<?xml version="1.0" encoding="utf-8"?>
<!-- Generator: Adobe Illustrator 22.1.0, SVG Export Plug-In . SVG Version: 6.00 Build 0)  -->
<svg version="1.1" id="Layer_1" xmlns="http://www.w3.org/2000/svg" xmlns:xlink="http://www.w3.org/1999/xlink" x="0px" y="0px"
	 viewBox="0 0 841.9 256" style="enable-background:new 0 0 841.9 256;" xml:space="preserve">
<style type="text/css">
	.st0{fill:#FFFFFF;}
</style>
<path class="st0" d="M294.6,255.8V0h59.9v96.6h47.9V0H461v255.9h-58.6V149.3h-47.9v106.5H294.6z M502.6,255.8V0h139.1v49.7h-79.6
	v46.9h73.4V148h-73.4v55.7h79.6v52.1L502.6,255.8L502.6,255.8z M678.8,255.8V0h58.8c16.8,0,31,0.8,42.6,2.4
	c11.6,1.6,21.9,4.9,31,9.9c9,5,16,12.6,21.3,22.8c5.2,10.2,7.9,23.7,8.3,40.5c0,21.2-4.7,39-13.9,53.5
	c-9.2,14.4-23.2,23.3-41.9,26.5c-10.2,1.6-25.6,2.3-46,2.3v98.1L678.8,255.8L678.8,255.8z M739,110.2c8.3,0,15.2-0.5,20.5-1.5
	c5.4-1,9.9-3.4,13.6-7.2c3.8-3.8,6.1-9.5,7.1-17.2c0.5-4.5,0.7-7.8,0.7-9.9c0-11.5-3.3-19.1-9.9-22.6c-6.6-3.6-17.3-5.5-32-5.6
	V110.2z"/>
<polygon class="st0" points="189,-0.1 174.6,0 122.9,146.3 157.1,136.7 115.3,256 256.7,256 256.8,-0.1 "/>
<polygon class="st0" points="0.3,0 0,256 77.1,256 124,119.3 93.3,130.6 138.9,0 "/>
</svg>
