<?xml version="1.0" encoding="UTF-8"?>
<svg xmlns="http://www.w3.org/2000/svg" version="1.1" viewBox="0 0 443 131.6">
  <defs>
    <style>
      .cls-1 {
        fill: #be5f25;
      }
    </style>
  </defs>
  <!-- Generator: Adobe Illustrator 28.7.1, SVG Export Plug-In . SVG Version: 1.2.0 Build 142)  -->
  <g>
    <g id="Layer_1">
      <g>
        <path class="cls-1" d="M19.5,46.8c2,0,3.8-.5,5.3-1.6,1.5-1.1,2.3-2.7,2.3-4.9s-.8-3.8-2.5-5c-1.7-1.2-4-2.2-7.1-3-3.1-.9-5.3-1.6-6.7-2.2-1.4-.6-2.7-1.5-3.9-2.5-2.5-2.1-3.7-5.3-3.7-9.7s1.3-6.6,3.8-9.2c2.5-2.6,6-3.8,10.4-3.8s4.3.3,6.6.9c2.3.6,3.7.9,4.3.9s1.1-.4,1.5-1.2h.7l.4,12.1h-1c-1.9-3.5-3.9-6.3-6-8.4-2.1-2.1-4.4-3.1-6.8-3.1s-4.4.6-5.7,1.7c-1.4,1.1-2,2.7-2,4.6s.8,3.4,2.4,4.4,3.6,1.9,6,2.5c2.4.6,3.9,1.1,4.7,1.3.7.2,1.7.6,2.8,1,1.1.4,2,.9,2.7,1.3.7.5,1.4,1,2.2,1.7.8.7,1.4,1.5,1.8,2.3,1.1,1.9,1.6,4.2,1.6,6.8,0,4.3-1.4,7.8-4,10.4-2.7,2.6-6.3,3.9-10.7,3.9s-4.9-.3-7.8-.9c-2.9-.6-4.6-.9-4.9-.9-.6,0-1.1.6-1.6,1.8h-.8l-.6-14.3h1c1.8,3.5,4,6.5,6.8,9.1,2.7,2.6,5.6,3.9,8.7,3.9Z"/>
        <path class="cls-1" d="M71.1,47.4h-13.7l-.7-4.4c-.6,1.6-1.6,2.8-2.9,3.7-1.3.9-3.1,1.3-5.6,1.3-6.2,0-9.3-3.3-9.3-10v-18.1h-3.4v-1.1h14.5v20.6c0,2.4.2,4,.5,4.7.3.8,1,1.1,2,1.1s1.9-.6,2.7-1.9c.8-1.2,1.2-3,1.2-5.2v-18.4h-2.8v-1.1h13.9v27.5h3.3v1.1Z"/>
        <path class="cls-1" d="M86.6,18.9v4.7c1.6-3.6,4.3-5.3,8.3-5.3s6.1,1.2,8,3.7c1.9,2.5,2.9,6.2,2.9,11.3s-1,8.8-3.1,11.2c-2.1,2.4-5.2,3.6-9.3,3.6s-3.4-.2-4.3-.7-1.7-1.2-2.3-2.2v15.5h7.7v1.1h-22.2v-1.1h3.3V19.9h-3.2v-1.1h14.2ZM93.6,23c-.4-1.4-1.2-2.1-2.3-2.1s-2.2.8-3.1,2.2c-.9,1.5-1.4,3.5-1.4,6v11c0,1.7.3,3.2,1,4.4.7,1.2,1.7,1.8,3,1.8s2.2-.9,2.7-2.6c.5-1.8.7-4.8.7-9.2v-3.1c0-4.1-.2-6.9-.6-8.3Z"/>
        <path class="cls-1" d="M111.7,44c-2.6-2.7-3.9-6.4-3.9-11.1s1.4-8.4,4.4-10.9c2.9-2.5,6.6-3.8,11.1-3.8,9.1,0,13.4,4.6,13.1,13.7h-16.9v2.3c0,3.9.5,6.9,1.5,8.9,1,2,2.7,3,5.2,3,4.6,0,7.7-2.5,9.1-7.4l1.1.2c-.8,2.9-2.1,5.1-4.1,6.7-2,1.6-5,2.4-8.9,2.4s-9-1.3-11.6-4ZM119.5,30.7h6.2v-2.9c0-3.2-.2-5.4-.6-6.6-.4-1.2-1.1-1.8-2.3-1.8s-2,.6-2.5,1.9c-.5,1.3-.8,3.4-.8,6.5v2.9Z"/>
        <path class="cls-1" d="M158.6,20.5c-1.5,0-2.8,1-3.9,2.9-1.1,1.9-1.7,4.2-1.7,6.8v16.1h4.3v1.1h-18.7v-1.1h3.3v-26.4h-3.3v-1.1h14.5v5.8c.5-2,1.5-3.6,3-4.7,1.5-1.1,3.2-1.7,5-1.7s3.4.5,4.6,1.6c1.2,1.1,1.8,2.6,1.8,4.5s-.4,3.4-1.3,4.5c-.9,1-2.2,1.6-4,1.6s-3.2-.6-4-1.8c-.9-1.2-1-2.9-.3-5h2.2c1-2,.6-3.1-1.3-3.1Z"/>
        <path class="cls-1" d="M175.3,7l-6.6.8v-1.2c-.1,0,13.4-1.9,13.4-1.9h4.9v41.5h4.7v1.1h-22.7v-1.1h6.3V7Z"/>
        <path class="cls-1" d="M1.3,65.4h17.9c5.6,0,9.7.8,12.5,2.2,2.8,1.5,4.2,4,4.2,7.6,0,5.5-3.3,8.8-9.9,9.8h0c8,1.1,12,4.6,12,10.6s-1.6,7.4-4.9,9.1c-3.3,1.7-8,2.6-14.2,2.6H1.3v-1.1h3.9v-39.7H1.3v-1.1ZM16.9,66.6v18.5h1.6c2.1,0,3.5-.6,4.4-1.9.8-1.3,1.2-3.2,1.2-5.8v-2.8c0-3-.4-5-1.1-6.2-.7-1.2-2.1-1.8-4.1-1.8h-1.9ZM16.9,86.2v20.1h2.8c2.2,0,3.7-.8,4.6-2.3.9-1.5,1.3-3.8,1.3-6.7v-3.2c0-2.6-.5-4.6-1.6-5.9-1.1-1.3-3-2-5.8-2h-1.4Z"/>
        <path class="cls-1" d="M54.5,93.3h1.7v-4.6c0-3.8-.2-6.3-.6-7.6s-1.2-2-2.4-2-1.4.2-2,.6c-.6.4-.9.9-.9,1.6s.1,1.3.4,2h1.5c.3.8.5,1.9.5,3s-.5,2.2-1.5,3.1c-1,.9-2.3,1.3-3.8,1.3-3.4,0-5.2-1.7-5.2-5,0-4.9,4.2-7.4,12.5-7.4s8,.8,9.9,2.4c1.8,1.6,2.7,4.6,2.7,8.9v12.2c0,2.1.6,3.1,1.7,3.1s2.2-2.1,2.4-6.2h.9c-.2,3.6-.8,6-2,7.3-1.2,1.3-3.1,2-5.7,2-4.8,0-7.6-1.5-8.3-4.4-.5,1.5-1.3,2.6-2.3,3.4-1,.7-2.6,1.1-4.6,1.1-5.9,0-8.9-2.4-8.9-7.3s1.1-4.8,3.4-5.8c2.3-1.1,5.7-1.6,10.4-1.6ZM52.5,104.7c.2.6.6.9,1.3.9s1.2-.5,1.7-1.5c.5-1,.8-2.4.8-4.2v-5.6h-.4c-2.5,0-3.7,1.8-3.7,5.5v1c0,2.1.1,3.4.3,4Z"/>
        <path class="cls-1" d="M74.5,108v-10.7h.7c1,3.5,2.4,5.9,4.2,7.3,1.8,1.4,4,2.1,6.6,2.1,4.1,0,6.1-1.3,6.1-3.9s-.5-2-1.5-2.5c-1.6-.9-3.6-1.6-6-2-2.7-.7-5-1.7-6.8-2.9-2.2-1.4-3.3-3.7-3.3-6.8s1-5.6,2.9-7.5,4.5-2.8,7.7-2.8,4,.5,6.1,1.4c.8.3,1.3.5,1.7.5s.7-.1,1-.4c.3-.3.6-.8,1-1.6h.7v9.2h-.7c-2-5.2-5.2-7.8-9.5-7.8s-3.3.3-4.2,1c-.9.7-1.4,1.5-1.4,2.5s.1,1.1.4,1.4c.3.3.5.6.7.8.2.2.4.3.8.5.4.2.7.3.9.4.2.1.6.2,1.1.4.5.2.9.3,1.1.3,2.7.7,4.7,1.3,5.9,1.8,1.2.5,2.3,1.1,3.4,1.8,2.2,1.5,3.3,4,3.3,7.3s-1,5.9-3,7.7c-2,1.7-4.7,2.6-8.2,2.6s-4.9-.6-7.2-1.7c-.5-.3-.9-.5-1.1-.5-.9,0-1.7.7-2.6,2.2h-.7Z"/>
        <path class="cls-1" d="M118.7,107.4v-1.1h2.8l-6.8-13.9-1.1.3v13.6h2.8v1.1h-17.2v-1.1h3.3v-42.8h-3.5v-1.1h14.7v29.1l1-.4,13.5-11.2h-5.6v-1.1h11.8v1.1h-4.2l-7.1,6.1,10.4,20.3h2.2v1.1h-16.7Z"/>
        <path class="cls-1" d="M139,104c-2.6-2.7-3.9-6.4-3.9-11.1s1.4-8.4,4.4-10.9c2.9-2.5,6.6-3.8,11.1-3.8,9.1,0,13.4,4.6,13.1,13.7h-16.9v2.3c0,3.9.5,6.9,1.5,8.9,1,2,2.7,3,5.2,3,4.6,0,7.7-2.5,9.1-7.4l1.1.2c-.8,2.9-2.1,5.1-4.1,6.7-2,1.6-5,2.4-8.9,2.4s-9-1.3-11.6-4ZM146.8,90.7h6.2v-2.9c0-3.2-.2-5.5-.6-6.6-.4-1.2-1.1-1.8-2.3-1.8s-2,.6-2.5,1.9c-.5,1.3-.8,3.4-.8,6.5v2.9Z"/>
        <path class="cls-1" d="M168.8,98.8v-18.9h-3.3v-1.1h3.3v-7.7l11.2-2.8v10.5h7.8v1.1h-7.8v20.2c0,1.9.2,3.3.6,4.1.4.9,1.2,1.3,2.4,1.3s2.2-.6,3.1-1.8c.9-1.2,1.5-2.8,1.8-4.9h1c-.3,2.9-1.2,5.1-2.6,6.7s-3.8,2.4-7.1,2.4-5.9-.7-7.6-2c-1.8-1.3-2.6-3.7-2.6-7.2Z"/>
      </g>
    </g>
  </g>
</svg>