<?xml version="1.0" encoding="UTF-8"?>
<svg xmlns="http://www.w3.org/2000/svg" version="1.1" viewBox="0 0 443 128.6">
  <defs>
    <style>
      .cls-1 {
        fill: #be5f25;
      }
    </style>
  </defs>
  <!-- Generator: Adobe Illustrator 28.7.1, SVG Export Plug-In . SVG Version: 1.2.0 Build 142)  -->
  <g>
    <g id="Layer_1">
      <g>
        <path class="cls-1" d="M1.3,5.4h17.9c5.6,0,9.7.8,12.5,2.2,2.8,1.5,4.2,4,4.2,7.6,0,5.5-3.3,8.8-9.9,9.8h0c8,1.1,12,4.6,12,10.6s-1.6,7.4-4.9,9.1c-3.3,1.7-8,2.6-14.2,2.6H1.3v-1.1h3.9V6.6H1.3v-1.1ZM16.9,6.6v18.5h1.6c2.1,0,3.5-.6,4.4-1.9.8-1.3,1.2-3.2,1.2-5.8v-2.8c0-3-.4-5-1.1-6.2-.7-1.2-2.1-1.8-4.1-1.8h-1.9ZM16.9,26.2v20.1h2.8c2.2,0,3.7-.8,4.6-2.3.9-1.5,1.3-3.8,1.3-6.7v-3.2c0-2.6-.5-4.6-1.6-5.9-1.1-1.3-3-2-5.8-2h-1.4Z"/>
        <path class="cls-1" d="M75.2,47.4h-13.7l-.7-4.4c-.6,1.6-1.6,2.8-2.9,3.7-1.3.9-3.1,1.3-5.6,1.3-6.2,0-9.3-3.3-9.3-10v-18.1h-3.4v-1.1h14.5v20.6c0,2.4.2,4,.5,4.7.3.8,1,1.1,2,1.1s1.9-.6,2.7-1.9c.8-1.2,1.2-3,1.2-5.2v-18.4h-2.8v-1.1h13.9v27.5h3.3v1.1Z"/>
        <path class="cls-1" d="M96.8,47.4l-.7-4.2c-1.4,3.2-4.1,4.8-8.3,4.8s-6.1-1.2-8-3.7c-1.9-2.5-2.8-6.2-2.8-11.1,0-10,4-14.9,11.9-14.9s5.8,1,7,2.9V3.5h-3.7v-1.1h15v43.9h2.9v1.1h-13.3ZM89.3,43.4c.4,1.4,1.2,2.1,2.4,2.1s2.2-.5,3.1-1.6c.9-1,1.3-2.6,1.3-4.6v-13.1c0-1.7-.3-3.2-1-4.4-.7-1.2-1.7-1.8-3-1.8s-2.2.9-2.7,2.6c-.5,1.8-.7,4.8-.7,9.2v3.1c0,4.2.2,7,.7,8.4Z"/>
        <path class="cls-1" d="M111.5,18.9h14.7v27.5h3.4v1.1h-17.8v-1.1h3.3v-26.4h-3.5v-1.1ZM120.5,14.7c-2.1,0-3.6-.5-4.5-1.6-.9-1.1-1.4-2.4-1.4-4s.5-2.9,1.5-4c1-1,2.5-1.6,4.5-1.6s3.5.5,4.6,1.4c1,.9,1.6,2.3,1.6,4s-.5,3.1-1.5,4.2c-1,1-2.6,1.6-4.7,1.6Z"/>
        <path class="cls-1" d="M133.7,38.8v-18.9h-3.3v-1.1h3.3v-7.7l11.2-2.8v10.5h7.8v1.1h-7.8v20.2c0,1.9.2,3.3.6,4.1.4.9,1.2,1.3,2.4,1.3s2.2-.6,3.1-1.8c.9-1.2,1.5-2.8,1.8-4.9h1c-.3,2.9-1.2,5.1-2.6,6.7s-3.8,2.4-7.1,2.4-5.9-.7-7.6-2c-1.8-1.3-2.6-3.7-2.6-7.2Z"/>
        <path class="cls-1" d="M158.5,44c-2.6-2.7-3.9-6.4-3.9-11.1s1.4-8.4,4.4-10.9c2.9-2.5,6.6-3.8,11.1-3.8,9.1,0,13.4,4.6,13.1,13.7h-16.9v2.3c0,3.9.5,6.9,1.5,8.9,1,2,2.7,3,5.2,3,4.6,0,7.7-2.5,9.1-7.4l1.1.2c-.8,2.9-2.1,5.1-4.1,6.7-2,1.6-5,2.4-8.9,2.4s-9-1.3-11.6-4ZM166.3,30.7h6.2v-2.9c0-3.2-.2-5.4-.6-6.6-.4-1.2-1.1-1.8-2.3-1.8s-2,.6-2.5,1.9c-.5,1.3-.8,3.4-.8,6.5v2.9Z"/>
        <path class="cls-1" d="M15.1,62.4v21c1.5-3.4,4.1-5.2,7.8-5.2,7.5,0,11.2,5,11.2,14.9s-1,8.8-3.1,11.2c-2.1,2.4-5.2,3.6-9.3,3.6s-3.7-.3-4.8-1c-1.1-.6-1.9-1.7-2.2-3.2l-.4,3.5H.6v-1.1h3.3v-42.8H.6v-1.1h14.5ZM21.9,83c-.4-1.4-1.2-2.1-2.3-2.1s-2.2.7-3.1,2.2c-.9,1.4-1.4,3.4-1.4,5.9v11.2c0,1.7.3,3.2,1,4.4.7,1.2,1.7,1.8,3,1.8s2.2-.9,2.7-2.6c.5-1.8.7-4.8.7-9.2v-3.1c0-4.1-.2-6.9-.6-8.3Z"/>
        <path class="cls-1" d="M40,104c-2.6-2.7-3.9-6.4-3.9-11.1s1.4-8.4,4.4-10.9c2.9-2.5,6.6-3.8,11.1-3.8,9.1,0,13.4,4.6,13.1,13.7h-16.9v2.3c0,3.9.5,6.9,1.5,8.9,1,2,2.7,3,5.2,3,4.6,0,7.7-2.5,9.1-7.4l1.1.2c-.8,2.9-2.1,5.1-4.1,6.7s-5,2.4-8.9,2.4-9-1.3-11.6-4ZM47.8,90.7h6.2v-2.9c0-3.2-.2-5.5-.6-6.6-.4-1.2-1.1-1.8-2.3-1.8s-2,.6-2.5,1.9c-.5,1.3-.8,3.4-.8,6.5v2.9Z"/>
        <path class="cls-1" d="M94.1,78.9v1.1l-14.2,26.4h.8c3.4,0,6-.9,7.9-2.6,1.9-1.8,3.4-4.6,4.5-8.6h.8l-1,12.3h-25.2v-.9l14.5-26.6h-.7c-4,0-6.9.7-8.4,2-1.6,1.3-3,4.1-4.2,8.5h-.8l.8-11.5h25.2Z"/>
        <path class="cls-1" d="M111.9,62.4v21c1.5-3.4,4.1-5.2,7.8-5.2,7.5,0,11.2,5,11.2,14.9s-1,8.8-3.1,11.2c-2.1,2.4-5.2,3.6-9.3,3.6s-3.7-.3-4.8-1c-1.1-.6-1.9-1.7-2.2-3.2l-.4,3.5h-13.7v-1.1h3.3v-42.8h-3.3v-1.1h14.5ZM118.7,83c-.4-1.4-1.2-2.1-2.3-2.1s-2.2.7-3.1,2.2c-.9,1.4-1.4,3.4-1.4,5.9v11.2c0,1.7.3,3.2,1,4.4.7,1.2,1.7,1.8,3,1.8s2.2-.9,2.7-2.6c.5-1.8.7-4.8.7-9.2v-3.1c0-4.1-.2-6.9-.6-8.3Z"/>
        <path class="cls-1" d="M152.8,80.5c-1.5,0-2.8,1-3.9,2.9-1.1,1.9-1.7,4.2-1.7,6.8v16.1h4.3v1.1h-18.7v-1.1h3.3v-26.4h-3.3v-1.1h14.5v5.8c.5-2,1.5-3.6,3-4.7,1.5-1.1,3.2-1.7,5-1.7s3.4.5,4.6,1.6c1.2,1.1,1.8,2.6,1.8,4.5s-.4,3.4-1.3,4.5c-.9,1-2.2,1.6-4,1.6s-3.2-.6-4-1.8c-.9-1.2-1-2.9-.3-5h2.2c1-2,.6-3.1-1.3-3.1Z"/>
        <path class="cls-1" d="M162.2,78.9h14.7v27.5h3.4v1.1h-17.8v-1.1h3.3v-26.4h-3.5v-1.1ZM171.2,74.7c-2.1,0-3.6-.5-4.5-1.6-.9-1.1-1.3-2.4-1.3-4s.5-2.9,1.5-4c1-1,2.5-1.6,4.5-1.6s3.5.5,4.6,1.4c1,.9,1.6,2.3,1.6,4s-.5,3.1-1.5,4.2c-1,1-2.6,1.6-4.7,1.6Z"/>
        <path class="cls-1" d="M209.3,78.9v1.1l-14.2,26.4h.8c3.4,0,6-.9,7.9-2.6,1.9-1.8,3.4-4.6,4.5-8.6h.8l-1,12.3h-25.2v-.9l14.5-26.6h-.7c-4,0-6.9.7-8.4,2-1.6,1.3-3,4.1-4.2,8.5h-.8l.8-11.5h25.2ZM204.7,63.4l-5.2,11.4c-1.1.6-2.2,1-3.2,1-2,0-3.3-1-4.1-2.9l-3.8-9.5.7-.4,7.6,6.4,7.4-6.4.7.5Z"/>
        <path class="cls-1" d="M211.6,78.9h14.5v5.5c.6-1.8,1.6-3.3,2.9-4.4,1.3-1.1,3.3-1.7,6-1.7,6.2,0,9.3,3.3,9.3,10v18.1h3.4v1.1h-17v-1.1h2.5v-19.5c0-2.4-.2-4-.5-4.7-.3-.7-.9-1-1.7-1-1.3,0-2.4.8-3.4,2.5-1,1.7-1.5,3.7-1.5,6.1v16.6h2.6v1.1h-17v-1.1h3.3v-26.4h-3.3v-1.1Z"/>
        <path class="cls-1" d="M248.2,78.9h14.7v27.5h3.4v1.1h-17.8v-1.1h3.3v-26.4h-3.5v-1.1ZM257.2,74.7c-2.1,0-3.6-.5-4.5-1.6-.9-1.1-1.3-2.4-1.3-4s.5-2.9,1.5-4c1-1,2.5-1.6,4.5-1.6s3.5.5,4.6,1.4c1,.9,1.6,2.3,1.6,4s-.5,3.1-1.5,4.2c-1,1-2.6,1.6-4.7,1.6Z"/>
      </g>
    </g>
  </g>
</svg>