<?xml version="1.0" encoding="UTF-8"?>
<svg xmlns="http://www.w3.org/2000/svg" version="1.1" viewBox="0 0 443 184.6">
  <defs>
    <style>
      .cls-1 {
        fill: #be5f25;
      }
    </style>
  </defs>
  <!-- Generator: Adobe Illustrator 28.7.1, SVG Export Plug-In . SVG Version: 1.2.0 Build 142)  -->
  <g>
    <g id="Layer_1">
      <g id="Layer_1-2" data-name="Layer_1">
        <g>
          <path class="cls-1" d="M33.5,5.4v1.3L15.8,46h2c3.6,0,6.8-1.1,9.5-3.5,2.7-2.3,4.7-5.6,5.9-9.8h1.1l-.7,14.6H2.9v-1.1L20.8,6.7h-2.5c-3.6,0-6.3.8-8.1,2.3s-3.9,4.8-6.2,9.6h-1.1l.9-13.3h29.7Z"/>
          <path class="cls-1" d="M51.7,33.3h1.7v-4.6c0-3.8-.2-6.3-.6-7.6-.4-1.3-1.2-1.9-2.4-1.9s-1.4.2-2,.6-.9.9-.9,1.6,0,1.3.4,2h1.5c.3.8.5,1.9.5,3s-.5,2.2-1.5,3.1-2.3,1.3-3.8,1.3c-3.4,0-5.2-1.7-5.2-5,0-4.9,4.2-7.4,12.5-7.4s8,.8,9.9,2.4c1.8,1.6,2.7,4.6,2.7,8.9v12.2c0,2.1.6,3.1,1.7,3.1s2.2-2.1,2.4-6.2h.9c-.2,3.6-.8,6-2,7.3s-3.1,2-5.7,2c-4.8,0-7.6-1.5-8.3-4.4-.5,1.5-1.3,2.6-2.3,3.4-1,.7-2.6,1.1-4.6,1.1-5.9,0-8.9-2.4-8.9-7.3s1.1-4.8,3.4-5.8c2.3-1.1,5.7-1.6,10.4-1.6l.2-.2ZM49.6,44.7c.2.6.6.9,1.3.9s1.2-.5,1.7-1.5.8-2.4.8-4.2v-5.6h-.4c-2.5,0-3.7,1.8-3.7,5.5v1c0,2.1,0,3.4.3,4h0Z"/>
          <path class="cls-1" d="M95.5,2.4v21c1.5-3.4,4.1-5.2,7.8-5.2,7.5,0,11.2,5,11.2,14.9s-1,8.8-3.1,11.2-5.2,3.6-9.3,3.6-3.7-.3-4.8-1c-1.1-.6-1.9-1.7-2.2-3.2l-.4,3.5h-13.7v-1.1h3.3V3.5h-3.3v-1.1h14.5ZM102.4,23c-.4-1.4-1.2-2.1-2.3-2.1s-2.2.7-3.1,2.2c-.9,1.4-1.4,3.4-1.4,5.9v11.2c0,1.7.3,3.2,1,4.4s1.7,1.8,3,1.8,2.2-.9,2.7-2.6c.5-1.8.7-4.8.7-9.2v-3.1c0-4.1-.2-6.9-.6-8.3v-.2Z"/>
          <path class="cls-1" d="M136.4,20.5c-1.5,0-2.8,1-3.9,2.9-1.1,1.9-1.7,4.2-1.7,6.8v16.1h4.3v1.1h-18.7v-1.1h3.3v-26.4h-3.3v-1.1h14.5v5.8c.5-2,1.5-3.6,3-4.7s3.2-1.7,5-1.7,3.4.5,4.6,1.6c1.2,1.1,1.8,2.6,1.8,4.5s-.4,3.4-1.3,4.5c-.9,1-2.2,1.6-4.1,1.6s-3.2-.6-4-1.8c-.9-1.2-1-2.9-.3-5h2.2c1-2,.6-3.1-1.3-3.1h-.1Z"/>
          <path class="cls-1" d="M172.7,18.9v1.1l-14.2,26.4h.8c3.4,0,6-.9,7.9-2.6,1.9-1.8,3.4-4.6,4.5-8.6h.8l-1,12.3h-25.2v-.9l14.5-26.6h-.7c-4,0-6.9.7-8.4,2-1.6,1.3-3,4.1-4.2,8.5h-.8l.8-11.5h25.2,0Z"/>
          <path class="cls-1" d="M179.8,44.2c-2.6-2.6-3.8-6.2-3.8-11s1.4-8.5,4.1-11c2.7-2.6,6.6-3.9,11.5-3.9s8.7,1.2,11.1,3.6c2.4,2.4,3.7,6,3.7,10.9,0,10.2-5.1,15.3-15.2,15.3s-8.8-1.3-11.3-3.8h-.1ZM194.8,35.6v-5.1c0-3.9-.2-6.7-.6-8.5-.4-1.8-1.4-2.7-2.9-2.7s-1.6.3-2.1.8-.9,1.3-1.2,2.5c-.4,1.8-.5,4.5-.5,8.2v4.7c0,4.4.1,7,.4,7.9.3.9.5,1.6.8,2.2.4,1,1.3,1.4,2.6,1.4s2.6-.9,3.1-2.7c.4-1.3.5-4.2.5-8.6h-.1Z"/>
          <path class="cls-1" d="M4.9,104.2c-2.6-2.6-3.8-6.2-3.8-11s1.4-8.5,4.1-11c2.7-2.6,6.6-3.9,11.6-3.9s8.7,1.2,11.1,3.6,3.7,6,3.7,10.9c0,10.2-5.1,15.3-15.2,15.3s-8.8-1.3-11.3-3.8h-.2ZM20,95.6v-5.1c0-3.9-.2-6.7-.6-8.5s-1.4-2.7-2.9-2.7-1.6.3-2.1.8-.9,1.3-1.2,2.5c-.4,1.8-.5,4.5-.5,8.2v4.7c0,4.4.1,7,.4,7.9.3.9.5,1.6.8,2.2.4,1,1.3,1.4,2.6,1.4s2.6-.9,3.1-2.7c.4-1.3.5-4.2.5-8.6h-.1Z"/>
          <path class="cls-1" d="M34.6,108v-10.7h.7c1,3.5,2.4,5.9,4.2,7.3s4,2.1,6.6,2.1c4.1,0,6.1-1.3,6.1-3.9s-.5-2-1.5-2.5c-1.6-.9-3.6-1.6-6-2-2.7-.7-5-1.7-6.8-2.9-2.2-1.4-3.3-3.7-3.3-6.8s1-5.6,2.9-7.5,4.5-2.8,7.7-2.8,4,.5,6.1,1.4c.8.3,1.3.5,1.7.5s.7,0,1-.4.6-.8,1-1.6h.7v9.2h-.7c-2-5.2-5.2-7.8-9.5-7.8s-3.3.3-4.2,1-1.4,1.5-1.4,2.5,0,1.1.4,1.4c.3.3.5.6.7.8.2.2.4.3.8.5.4.2.7.3.9.4s.6.2,1.1.4c.5.2.9.3,1.1.3,2.7.7,4.7,1.3,5.9,1.8s2.3,1.1,3.4,1.8c2.2,1.5,3.3,4,3.3,7.4s-1,5.9-3,7.7c-2,1.7-4.7,2.6-8.2,2.6s-4.9-.6-7.2-1.7c-.5-.3-.9-.5-1.1-.5-.9,0-1.7.7-2.6,2.2h-.7v-.2Z"/>
          <path class="cls-1" d="M57.2,79.9v-1.1h17.9v1.1h-3.8l7.2,19.9,6.5-19.9h-4v-1.1h8.1v1.1h-2.6l-8.9,27.5h-6.8l-11.1-27.5h-2.5,0Z"/>
          <path class="cls-1" d="M104.2,78.9v23.4c0,6.6-1.1,11.6-3.4,15s-6,5.2-11.1,5.2-5.8-.7-7.3-2-2.3-2.9-2.3-4.6.5-3.1,1.6-4c1-.9,2.3-1.4,3.9-1.4s2.7.4,3.5,1.3,1.2,1.8,1.2,2.9,0,2-.4,3h-2.3c-.6,1.1-.7,2-.3,2.8.5.8,1.3,1.1,2.5,1.1s2-.7,2.5-2.1c.4-1.4.7-4.2.7-8.6v-30.8h-3.9v-1.1h15.1ZM98.5,74.7c-2.1,0-3.6-.5-4.5-1.6s-1.4-2.4-1.4-4,.5-2.9,1.5-4c1-1,2.5-1.6,4.5-1.6s3.5.5,4.6,1.4c1,.9,1.6,2.3,1.6,4s-.5,3.1-1.5,4.2c-1,1-2.6,1.6-4.7,1.6h0Z"/>
          <path class="cls-1" d="M112.5,104c-2.6-2.7-3.9-6.4-3.9-11.1s1.4-8.4,4.4-10.9c2.9-2.5,6.6-3.8,11.1-3.8,9.1,0,13.4,4.6,13.1,13.7h-16.9v2.3c0,3.9.5,6.9,1.5,8.9s2.7,3,5.2,3c4.6,0,7.7-2.5,9.1-7.4l1.1.2c-.8,2.9-2.1,5.1-4.1,6.7s-5,2.4-8.9,2.4-9-1.3-11.6-4h0ZM120.3,90.7h6.2v-2.9c0-3.2-.2-5.4-.6-6.6s-1.1-1.8-2.3-1.8-2,.6-2.5,1.9-.8,3.4-.8,6.5c0,0,0,2.9,0,2.9Z"/>
          <path class="cls-1" d="M166.6,78.9v1.1l-14.2,26.4h.8c3.4,0,6-.9,7.9-2.6,1.9-1.8,3.4-4.6,4.5-8.6h.8l-1,12.3h-25.2v-.9l14.5-26.6h-.7c-4,0-6.9.7-8.4,2-1.6,1.3-3,4.1-4.2,8.5h-.8l.8-11.5h25.2,0ZM162,63.4l-5.2,11.4c-1.1.6-2.2,1-3.2,1-2,0-3.3-1-4.1-2.9l-3.8-9.5.7-.4,7.6,6.4,7.4-6.4.7.5h0Z"/>
          <path class="cls-1" d="M172.3,104c-2.6-2.7-3.9-6.4-3.9-11.1s1.4-8.4,4.3-10.9c2.9-2.5,6.6-3.8,11.1-3.8,9.1,0,13.4,4.6,13.1,13.7h-16.9v2.3c0,3.9.5,6.9,1.5,8.9s2.7,3,5.2,3c4.6,0,7.7-2.5,9.1-7.4l1.1.2c-.8,2.9-2.1,5.1-4.1,6.7s-5,2.4-8.9,2.4-9-1.3-11.6-4h0ZM180.1,90.7h6.2v-2.9c0-3.2-.2-5.4-.6-6.6-.4-1.2-1.1-1.8-2.3-1.8s-2,.6-2.5,1.9-.8,3.4-.8,6.5v2.9h0Z"/>
          <path class="cls-1" d="M199.2,78.9h14.5v5.5c.6-1.8,1.6-3.3,2.9-4.4,1.3-1.1,3.3-1.7,6-1.7,6.2,0,9.3,3.3,9.3,10v18.1h3.4v1.1h-17v-1.1h2.5v-19.5c0-2.4-.2-3.9-.5-4.6s-.9-1-1.7-1c-1.3,0-2.4.8-3.4,2.5s-1.5,3.7-1.5,6.1v16.6h2.6v1.1h-17v-1.1h3.3v-26.4h-3.3v-1.1h-.1Z"/>
          <path class="cls-1" d="M250.5,78.9v23.4c0,6.6-1.1,11.6-3.4,15-2.3,3.4-6,5.2-11.1,5.2s-5.7-.7-7.3-2c-1.5-1.3-2.3-2.9-2.3-4.6s.5-3.1,1.6-4c1-.9,2.3-1.4,3.9-1.4s2.7.4,3.5,1.3,1.2,1.8,1.2,2.9-.1,2-.4,3h-2.3c-.6,1.1-.7,2-.3,2.8.5.8,1.3,1.1,2.5,1.1s2-.7,2.5-2.1c.4-1.4.7-4.2.7-8.6v-30.8h-3.9v-1.1h15.1ZM244.8,74.7c-2.1,0-3.6-.5-4.5-1.6s-1.3-2.4-1.3-4,.5-2.9,1.5-4c1-1,2.5-1.6,4.5-1.6s3.5.5,4.6,1.4c1,.9,1.6,2.3,1.6,4s-.5,3.1-1.5,4.2c-1,1-2.6,1.6-4.7,1.6h-.2Z"/>
          <path class="cls-1" d="M258.9,104c-2.6-2.7-3.9-6.4-3.9-11.1s1.4-8.4,4.3-10.9,6.6-3.8,11.1-3.8c9.1,0,13.4,4.6,13.1,13.7h-16.9v2.3c0,3.9.5,6.9,1.5,8.9s2.7,3,5.2,3c4.6,0,7.7-2.5,9.1-7.4l1.1.2c-.8,2.9-2.1,5.1-4.1,6.7s-5,2.4-8.9,2.4-9-1.3-11.6-4h0ZM266.6,90.7h6.2v-2.9c0-3.2-.2-5.4-.6-6.6s-1.1-1.8-2.3-1.8-2,.6-2.5,1.9-.8,3.4-.8,6.5v2.9h0Z"/>
          <path class="cls-1" d="M20.2,167.4v-1.1h2.8l-6.8-13.9-1.1.3v13.6h2.8v1.1H.6v-1.1h3.3v-42.8H.4v-1.1h14.7v29.1l1-.4,13.5-11.2h-5.6v-1.1h11.8v1.1h-4.2l-7.1,6.1,10.4,20.3h2.2v1.1h-16.9Z"/>
          <path class="cls-1" d="M40.6,164.2c-2.6-2.6-3.8-6.2-3.8-11s1.4-8.5,4.1-11c2.7-2.6,6.6-3.9,11.6-3.9s8.7,1.2,11.1,3.6c2.4,2.4,3.7,6,3.7,10.9,0,10.2-5.1,15.3-15.2,15.3s-8.8-1.3-11.3-3.8h-.2ZM55.7,155.6v-5.1c0-3.9-.2-6.7-.6-8.5-.4-1.8-1.4-2.7-2.9-2.7s-1.6.2-2.1.8-.9,1.3-1.2,2.5c-.4,1.8-.5,4.5-.5,8.2v4.7c0,4.4,0,7,.4,7.9.3.9.5,1.6.8,2.2.4,1,1.3,1.4,2.6,1.4s2.6-.9,3.1-2.7c.4-1.3.5-4.2.5-8.6h0Z"/>
          <path class="cls-1" d="M70.3,168v-10.7h.7c1,3.5,2.4,5.9,4.2,7.3,1.8,1.4,4,2.1,6.6,2.1,4.1,0,6.1-1.3,6.1-3.9s-.5-2-1.5-2.5c-1.6-.9-3.6-1.6-6-2-2.7-.7-5-1.7-6.8-2.9-2.2-1.4-3.3-3.7-3.3-6.8s1-5.6,2.9-7.5,4.5-2.8,7.7-2.8,4,.5,6.1,1.4c.8.3,1.3.5,1.7.5s.7-.1,1-.4c.3-.3.6-.8,1-1.6h.7v9.2h-.7c-2-5.2-5.2-7.8-9.5-7.8s-3.3.3-4.2,1c-.9.7-1.4,1.5-1.4,2.5s0,1.1.4,1.4c.3.3.5.6.7.8s.4.3.8.5.7.3.9.4c.2.1.6.2,1.1.4s.9.3,1.1.3c2.7.7,4.7,1.3,5.9,1.8,1.2.5,2.3,1.1,3.4,1.8,2.2,1.5,3.3,4,3.3,7.3s-1,5.9-3,7.7c-2,1.7-4.7,2.6-8.2,2.6s-4.9-.6-7.2-1.7c-.5-.3-.9-.5-1.1-.5-.9,0-1.7.7-2.6,2.2h-.8Z"/>
          <path class="cls-1" d="M99.1,164c-2.6-2.7-3.9-6.4-3.9-11.1s1.4-8.4,4.4-10.9c2.9-2.5,6.6-3.8,11.1-3.8,9.1,0,13.4,4.6,13.1,13.7h-16.9v2.3c0,3.9.5,6.9,1.5,8.9s2.7,3,5.2,3c4.6,0,7.7-2.5,9.1-7.4l1.1.2c-.8,2.9-2.1,5.1-4.1,6.7s-5,2.4-8.9,2.4-9-1.3-11.6-4h0ZM106.9,150.7h6.2v-2.9c0-3.2-.2-5.5-.6-6.6-.4-1.2-1.1-1.8-2.3-1.8s-2,.6-2.5,1.9c-.5,1.3-.8,3.4-.8,6.5v2.9h0Z"/>
        </g>
      </g>
    </g>
  </g>
</svg>