<?xml version="1.0" encoding="UTF-8"?>
<svg xmlns="http://www.w3.org/2000/svg" version="1.1" viewBox="0 0 427 206.8">
  <defs>
    <style>
      .cls-1 {
        fill: #be5f25;
      }

      .cls-2 {
        fill: #fff;
      }
    </style>
  </defs>
  <!-- Generator: Adobe Illustrator 28.7.1, SVG Export Plug-In . SVG Version: 1.2.0 Build 142)  -->
  <g>
    <g id="Layer_1">
      <g id="Layer_1-2" data-name="Layer_1">
        <g>
          <path class="cls-2" d="M36,61.8l-5.2-15.3h-14l-5.5,15.3h5.3v1.3H5.8v-1.3h3.3L27.2,13.1h5.8l17.9,48.7h3.3v1.3h-23.2v-1.3s5,0,5,0ZM24.1,26.4l-6.7,18.6h12.8l-6.2-18.6h.1Z"/>
          <path class="cls-2" d="M97.4,48.8l5.9-20.4-4.3-13.5h-4v-1.3h22v1.3h-4.2l10.6,33.5,8.5-33.5h-7.2v-1.3h14.2v1.3h-4.7l-13,49h-6.3l-10.5-32-9.2,32h-6.2l-17.9-49h-3.3v-1.3h23v1.3h-5l11.5,33.9h.1Z"/>
          <path class="cls-2" d="M140.7,13.5h36.8l.7,14h-1.3c-2-4.8-4.1-8-6.2-9.8-2.2-1.8-5.4-2.7-9.6-2.7h-2.5v21.9h2.4c2.2,0,4.1-.8,5.6-2.5s2.6-3.9,3.2-6.8h1.1v21h-1.2c-.9-3.5-2-6.1-3.4-7.6s-3.4-2.3-5.9-2.3h-1.7v22.7h2.7c4.3,0,8-1.3,11.1-3.9,3-2.6,5.1-5.9,6.3-10h1.4l-.6,15.4h-38.9v-1.6h4.2V15.1h-4.2v-1.6h0Z"/>
          <path class="cls-2" d="M184.9,13.5h36.8l.7,14h-1.3c-2-4.8-4.1-8-6.2-9.8-2.2-1.8-5.4-2.7-9.6-2.7h-2.5v21.9h2.4c2.2,0,4.1-.8,5.6-2.5s2.6-3.9,3.2-6.8h1.1v21h-1.2c-.9-3.5-2-6.1-3.4-7.6s-3.4-2.3-5.9-2.3h-1.7v22.7h2.7c4.3,0,8-1.3,11.1-3.9,3-2.6,5.1-5.9,6.3-10h1.4l-.6,15.4h-38.9v-1.6h4.2V15.1h-4.2v-1.6Z"/>
          <path class="cls-2" d="M229.4,13.5h21.6v1.3h-3.9v22.4h.6c0,0,20-22.4,20-22.4h-5.6v-1.3h12.4v1.3h-4.3l-12.2,13.6,17,33.3h3.8v1.3h-22.7v-1.3h3.3l-11.7-22.6h-.6v22.6h3.9v1.3h-21.6v-1.3h3.9V14.9h-3.9v-1.3h0Z"/>
          <path class="cls-2" d="M281.1,13.5h36.8l.7,14h-1.3c-2-4.8-4.1-8-6.2-9.8-2.2-1.8-5.4-2.7-9.6-2.7h-2.5v21.9h2.4c2.2,0,4.1-.8,5.6-2.5s2.6-3.9,3.2-6.8h1.1v21h-1.2c-.9-3.5-2-6.1-3.4-7.6s-3.4-2.3-5.9-2.3h-1.7v22.7h2.7c4.3,0,8-1.3,11.1-3.9,3-2.6,5.1-5.9,6.3-10h1.4l-.6,15.4h-38.9v-1.6h4.2V15.1h-4.2v-1.6Z"/>
          <path class="cls-2" d="M365.7,14.9v48.2h-9.9l-24.3-45.8v44.5h3.9v1.3h-9.7v-1.3h3.9V14.9h-3.9v-1.3h19.6l18.6,35.6V14.9h-3.9v-1.3h9.7v1.3h-4Z"/>
          <path class="cls-2" d="M421.9,37.5c0,9.7-2.7,16.5-8.2,20.3-5.1,3.5-12,5.3-20.8,5.3h-20v-1.3h4.7V14.9h-4.7v-1.3h21.9c9.1,0,15.9,1.9,20.4,5.6,4.5,3.7,6.8,9.8,6.8,18.4h0ZM391.3,61.8h2.7c4.8,0,8.2-1.7,10.2-5.1,2.1-3.4,3.1-9,3.1-17v-4.1c0-10.6-2-17-6.1-19.2-1.9-1-4.7-1.6-8.2-1.6h-1.7v46.9h0Z"/>
          <path class="cls-2" d="M46.3,143.5l-6.9-20.5h-18.8l-7.3,20.5h7.1v1.8H5.8v-1.8h4.5l24.2-65.2h7.8l23.9,65.2h4.4v1.8h-31v-1.8h6.7ZM30.3,96l-8.9,24.9h17.2l-8.3-24.9Z"/>
          <path class="cls-2" d="M122,78.8l1,23.8h-1.8c-2.8-8.4-5.3-14.2-7.4-17.2s-5.3-4.6-9.3-4.6h-1.1v62.5h8.1v2h-34.6v-2h8.1v-62.5h-1.2c-4.1,0-7.2,1.6-9.4,4.8-2.2,3.2-4.7,8.9-7.3,17h-1.8l.9-23.8h56-.2Z"/>
          <path class="cls-2" d="M145.6,78.8h29.6v1.8h-5.5v29.4h18.9v-29.4h-5.6v-1.8h29.7v1.8h-5.6v62.8h5.6v1.8h-29.7v-1.8h5.6v-30.9h-18.9v30.9h5.5v1.8h-29.6v-1.8h5.6v-62.8h-5.6v-1.8Z"/>
          <path class="cls-2" d="M250.1,146.2c-10.6,0-18.5-2.9-23.7-8.6-5.2-5.7-7.8-14-7.8-24.9s2.8-19.4,8.4-25.6c5.6-6.2,13.5-9.4,23.8-9.4s18,3,23.2,8.9,7.8,14.3,7.8,25.2-2.6,19.3-7.9,25.3-13.2,9-23.8,9h0ZM262.2,115.9v-7c0-11.6-.6-18.9-1.7-21.9-1.3-3.5-3.1-5.6-5.4-6.5-1.3-.5-2.9-.8-4.8-.8s-3.5.3-4.9.8-2.5,1.4-3.4,2.7c-.9,1.3-1.6,2.6-2.1,4s-1,3.4-1.3,5.9c-.4,3.7-.6,9.1-.6,16.2v6.8c0,7.7.3,13.2.9,16.5s1.3,5.6,2.2,7c2,3.1,5,4.7,9.1,4.7s8.2-2.1,9.7-6.3,2.2-11.5,2.2-22h.1Z"/>
          <path class="cls-2" d="M337.7,78.8h25.3v1.8h-5.2v62.8h5.2v1.8h-28.9v-1.8h5.2v-59.3h-.4l-14.2,61.1h-11.9l-16.7-61.4h-.4v59.6h5.2v1.8h-12.9v-1.8h5.2v-62.8h-5.2v-1.8h25.6l12.6,48.9,11.4-48.9h0Z"/>
          <path class="cls-2" d="M367.4,78.8h49.4l.9,18.8h-1.7c-2.7-6.4-5.4-10.8-8.4-13.1-2.9-2.4-7.2-3.6-12.8-3.6h-3.3v29.3h3.2c3,0,5.5-1.1,7.5-3.4,2-2.2,3.4-5.3,4.3-9.1h1.4v28.1h-1.6c-1.1-4.7-2.7-8.1-4.6-10.2-1.9-2-4.6-3-7.9-3h-2.3v30.5h3.6c5.8,0,10.8-1.7,14.9-5.2s6.9-7.9,8.4-13.4h1.9l-.8,20.7h-52.1v-2.1h5.6v-62.3h-5.6v-2.1h0Z"/>
          <g>
            <path class="cls-1" d="M15.5,181.2c1.1,0,2-.3,2.9-.9s1.3-1.5,1.3-2.7-.5-2.1-1.4-2.7c-.9-.6-2.2-1.2-3.8-1.6-1.7-.5-2.9-.9-3.6-1.2s-1.5-.8-2.1-1.4c-1.3-1.1-2-2.9-2-5.2s.7-3.6,2.1-5c1.4-1.4,3.3-2.1,5.7-2.1s2.4.2,3.6.5c1.2.3,2,.5,2.3.5s.6-.2.8-.7h.4l.2,6.6h-.5c-1-1.9-2.1-3.4-3.3-4.5-1.1-1.1-2.4-1.7-3.7-1.7s-2.4.3-3.1.9c-.7.6-1.1,1.4-1.1,2.5s.4,1.8,1.3,2.4c.9.6,2,1,3.2,1.4,1.3.3,2.1.6,2.5.7.4.1.9.3,1.5.5s1.1.5,1.5.7.8.6,1.2.9c.4.4.8.8,1,1.3.6,1,.9,2.3.9,3.7,0,2.3-.7,4.2-2.2,5.7s-3.4,2.1-5.8,2.1-2.7-.2-4.3-.5-2.5-.5-2.7-.5c-.3,0-.6.3-.9,1h-.5l-.3-7.8h.6c1,1.9,2.2,3.5,3.7,5s3.1,2.1,4.7,2.1h0Z"/>
            <path class="cls-1" d="M43.6,181.6h-7.4l-.4-2.4c-.3.9-.9,1.5-1.5,2-.7.5-1.7.7-3,.7-3.4,0-5-1.8-5-5.4v-9.8h-1.8v-.6h7.9v11.2c0,1.3,0,2.2.3,2.6s.6.6,1.1.6,1-.3,1.5-1c.4-.7.7-1.6.7-2.8v-10h-1.5v-.6h7.6v14.9h1.8v.6h-.3Z"/>
            <path class="cls-1" d="M52,166.1v2.6c.8-1.9,2.3-2.9,4.5-2.9s3.3.7,4.3,2,1.5,3.4,1.5,6.1-.6,4.8-1.7,6.1c-1.1,1.3-2.8,2-5,2s-1.8-.1-2.3-.4c-.5-.3-.9-.7-1.3-1.2v8.4h4.2v.6h-12.1v-.6h1.8v-22.1h-1.7v-.6h7.8ZM55.8,168.3c-.2-.8-.6-1.2-1.3-1.2s-1.2.4-1.7,1.2-.7,1.9-.7,3.3v6c0,.9.2,1.7.6,2.4.4.7.9,1,1.6,1s1.2-.5,1.5-1.4c.3-1,.4-2.6.4-5v-1.7c0-2.2,0-3.7-.3-4.5h0Z"/>
            <path class="cls-1" d="M65.6,179.7c-1.4-1.4-2.1-3.5-2.1-6s.8-4.5,2.4-5.9,3.6-2.1,6-2.1c4.9,0,7.3,2.5,7.1,7.4h-9.2v1.3c0,2.1.3,3.7.8,4.8s1.5,1.6,2.8,1.6c2.5,0,4.2-1.3,5-4h.6c-.4,1.7-1.2,2.9-2.2,3.7-1.1.9-2.7,1.3-4.8,1.3s-4.9-.7-6.3-2.2h-.1ZM69.9,172.5h3.4v-1.6c0-1.8,0-3-.3-3.6-.2-.6-.6-1-1.2-1s-1.1.3-1.4,1-.4,1.9-.4,3.5v1.6h0Z"/>
            <path class="cls-1" d="M91.1,167c-.8,0-1.5.5-2.1,1.6-.6,1-.9,2.3-.9,3.7v8.7h2.3v.6h-10.2v-.6h1.8v-14.3h-1.8v-.6h7.9v3.1c.3-1.1.8-2,1.6-2.6s1.7-.9,2.7-.9,1.9.3,2.5.9c.6.6,1,1.4,1,2.4s-.2,1.9-.7,2.4c-.5.6-1.2.8-2.2.8s-1.7-.3-2.2-1-.5-1.6-.2-2.7h1.2c.5-1.1.3-1.7-.7-1.7v.2Z"/>
            <path class="cls-1" d="M100.1,159.6l-3.6.5v-.7l7.3-1h2.6v22.5h2.5v.6h-12.3v-.6h3.4v-21.3h0Z"/>
            <path class="cls-1" d="M116,157.1h7.9v11.9c.3-1,.9-1.8,1.6-2.4.7-.6,1.8-.9,3.3-.9,3.4,0,5.1,1.8,5.1,5.4v9.8h1.8v.6h-9.2v-.6h1.3v-10.6c0-1.3,0-2.1-.3-2.5-.2-.4-.5-.6-.9-.6-.7,0-1.3.5-1.8,1.4s-.8,2-.8,3.3v9h1.4v.6h-9.3v-.6h1.8v-23.3h-1.8v-.6h-.1Z"/>
            <path class="cls-1" d="M138.4,179.8c-1.4-1.4-2.1-3.4-2.1-6s.7-4.6,2.2-6,3.6-2.1,6.3-2.1,4.7.6,6,1.9c1.3,1.3,2,3.3,2,5.9,0,5.5-2.8,8.3-8.3,8.3s-4.8-.7-6.2-2.1h.1ZM146.6,175.2v-2.8c0-2.1-.1-3.6-.3-4.6s-.8-1.4-1.6-1.4-.9.1-1.2.4c-.3.3-.5.7-.6,1.4-.2,1-.3,2.5-.3,4.5v2.5c0,2.4,0,3.8.2,4.3.1.5.3.9.4,1.2.2.5.7.8,1.4.8s1.4-.5,1.7-1.5c.2-.7.3-2.3.3-4.7h0Z"/>
            <path class="cls-1" d="M153.8,166.1h7.9v3c.7-2.2,2.3-3.3,4.7-3.3s3.9,1.2,4.4,3.5c.8-2.3,2.4-3.5,4.8-3.5s4.8,1.8,4.8,5.4v9.8h1.8v.6h-9v-.6h1.1v-10.6c0-1.7-.1-2.6-.4-2.9s-.3-.2-.5-.2c-.6,0-1.2.4-1.7,1.3-.5.8-.7,1.9-.7,3.2v9.2h1.2v.6h-8.4v-.6h1.1v-10.6c0-1.7-.1-2.6-.4-2.9s-.3-.2-.5-.2c-.6,0-1.2.5-1.6,1.4-.5.9-.7,2-.7,3.3v9h1.2v.6h-9v-.6h1.8v-14.3h-1.8v-.6h-.1Z"/>
            <path class="cls-1" d="M185,179.7c-1.4-1.4-2.1-3.5-2.1-6s.8-4.5,2.4-5.9c1.6-1.4,3.6-2.1,6-2.1,4.9,0,7.3,2.5,7.1,7.4h-9.2v1.3c0,2.1.3,3.7.8,4.8s1.5,1.6,2.8,1.6c2.5,0,4.2-1.3,5-4h.6c-.4,1.7-1.2,2.9-2.2,3.7-1.1.9-2.7,1.3-4.8,1.3s-4.9-.7-6.3-2.2h-.1ZM189.2,172.5h3.4v-1.6c0-1.8-.1-3-.3-3.6s-.6-1-1.2-1-1.1.3-1.4,1c-.3.7-.4,1.9-.4,3.5v1.6h-.1Z"/>
            <path class="cls-1" d="M213.2,157.1v11.4c.8-1.9,2.2-2.8,4.2-2.8,4.1,0,6.1,2.7,6.1,8.1s-.6,4.8-1.7,6.1c-1.1,1.3-2.8,2-5,2s-2-.2-2.6-.5-1-.9-1.2-1.7l-.2,1.9h-7.4v-.6h1.8v-23.3h-1.8v-.6h7.9-.1ZM217,168.3c-.2-.8-.6-1.2-1.3-1.2s-1.2.4-1.7,1.2-.7,1.9-.7,3.2v6.1c0,.9.2,1.7.6,2.4.4.7.9,1,1.6,1s1.2-.5,1.5-1.4c.3-1,.4-2.6.4-5v-1.7c0-2.2-.1-3.7-.3-4.5h-.1Z"/>
            <path class="cls-1" d="M232.4,173.9h.9v-2.5c0-2.1-.1-3.4-.3-4.2s-.7-1.1-1.3-1.1-.7.1-1.1.3-.5.5-.5.8,0,.7.2,1.1h.8c.2.5.3,1,.3,1.6s-.3,1.2-.8,1.7-1.2.7-2.1.7c-1.9,0-2.8-.9-2.8-2.7,0-2.7,2.3-4,6.8-4s4.4.4,5.4,1.3c1,.9,1.5,2.5,1.5,4.8v6.6c0,1.1.3,1.7.9,1.7s1.2-1.1,1.3-3.4h.5c0,1.9-.4,3.3-1.1,4-.6.7-1.7,1.1-3.1,1.1-2.6,0-4.1-.8-4.5-2.4-.3.8-.7,1.4-1.3,1.8-.6.4-1.4.6-2.5.6-3.2,0-4.8-1.3-4.8-3.9s.6-2.6,1.8-3.2c1.2-.6,3.1-.9,5.7-.9v.2ZM231.2,180.1c.1.3.3.5.7.5s.7-.3.9-.8c.3-.6.4-1.3.4-2.3v-3h-.2c-1.3,0-2,1-2,3v.5c0,1.1,0,1.9.2,2.2h0Z"/>
            <path class="cls-1" d="M243.2,181.9v-5.8h.4c.6,1.9,1.3,3.2,2.3,4s2.1,1.1,3.6,1.1c2.2,0,3.3-.7,3.3-2.1s-.3-1.1-.8-1.4c-.8-.5-1.9-.8-3.3-1.1-1.5-.4-2.7-.9-3.7-1.6-1.2-.8-1.8-2-1.8-3.7s.5-3,1.6-4.1,2.4-1.5,4.2-1.5,2.2.2,3.3.7c.4.2.7.3.9.3s.4,0,.6-.2c.2-.2.3-.4.6-.8h.4v5h-.4c-1.1-2.8-2.8-4.2-5.1-4.2s-1.8.2-2.3.5c-.5.4-.7.8-.7,1.4s0,.6.2.8l.4.4s.2.2.4.3c.2,0,.4.2.5.2s.3.1.6.2c.3,0,.5.1.6.2,1.5.4,2.5.7,3.2,1s1.3.6,1.9,1c1.2.8,1.8,2.2,1.8,4s-.5,3.2-1.6,4.2c-1.1.9-2.6,1.4-4.5,1.4s-2.6-.3-3.9-.9c-.3-.2-.5-.3-.6-.3-.5,0-.9.4-1.4,1.2h-.4l-.3-.2Z"/>
            <path class="cls-1" d="M267.2,181.6v-.6h1.5l-3.7-7.6-.6.2v7.4h1.5v.6h-9.4v-.6h1.8v-23.3h-1.9v-.6h8v15.8l.5-.2,7.3-6.1h-3.1v-.6h6.4v.6h-2.3l-3.9,3.3,5.6,11h1.2v.6h-9.1.2Z"/>
            <path class="cls-1" d="M278.2,179.7c-1.4-1.4-2.1-3.5-2.1-6s.8-4.5,2.4-5.9,3.6-2.1,6-2.1c4.9,0,7.3,2.5,7.1,7.4h-9.2v1.3c0,2.1.3,3.7.8,4.8s1.5,1.6,2.8,1.6c2.5,0,4.2-1.3,5-4h.6c-.4,1.7-1.2,2.9-2.2,3.7-1.1.9-2.7,1.3-4.8,1.3s-4.9-.7-6.3-2.2h0ZM282.4,172.5h3.4v-1.6c0-1.8-.1-3-.3-3.6-.2-.6-.6-1-1.2-1s-1.1.3-1.4,1-.4,1.9-.4,3.5v1.6h-.1Z"/>
            <path class="cls-1" d="M294.4,176.9v-10.3h-1.8v-.6h1.8v-4.2l6.1-1.5v5.7h4.2v.6h-4.2v11c0,1,.1,1.8.3,2.2.2.5.6.7,1.3.7s1.2-.3,1.7-1,.8-1.5,1-2.7h.6c-.2,1.6-.7,2.8-1.4,3.6-.8.9-2.1,1.3-3.9,1.3s-3.2-.4-4.1-1.1c-1-.7-1.4-2-1.4-3.9l-.2.2Z"/>
            <path class="cls-1" d="M313.7,179.7c-1.4-1.4-2.1-3.5-2.1-6s.8-4.5,2.4-5.9,3.6-2.1,6-2.1c4.9,0,7.3,2.5,7.1,7.4h-9.2v1.3c0,2.1.3,3.7.8,4.8s1.5,1.6,2.8,1.6c2.5,0,4.2-1.3,5-4h.6c-.4,1.7-1.2,2.9-2.2,3.7-1.1.9-2.7,1.3-4.8,1.3s-4.9-.7-6.3-2.2h0ZM317.9,172.5h3.4v-1.6c0-1.8-.1-3-.3-3.6-.2-.6-.6-1-1.2-1s-1.1.3-1.4,1-.4,1.9-.4,3.5v1.6h-.1Z"/>
            <path class="cls-1" d="M339.4,181.6l-.4-2.3c-.7,1.7-2.2,2.6-4.5,2.6s-3.3-.7-4.3-2-1.5-3.4-1.5-6c0-5.4,2.1-8.1,6.5-8.1s3.2.5,3.8,1.6v-9.6h-2v-.6h8.1v23.8h1.6v.6h-7.3ZM335.2,179.4c.2.7.7,1.1,1.3,1.1s1.2-.3,1.7-.8c.5-.6.7-1.4.7-2.5v-7.1c0-.9-.2-1.7-.6-2.4s-.9-1-1.6-1-1.2.5-1.5,1.4c-.3,1-.4,2.6-.4,5v1.7c0,2.3.1,3.8.4,4.5h0Z"/>
            <path class="cls-1" d="M347.3,166.1h8v14.9h1.8v.6h-9.7v-.6h1.8v-14.3h-1.9v-.6h0ZM352.2,163.8c-1.2,0-2-.3-2.5-.9-.5-.6-.7-1.3-.7-2.2s.3-1.6.8-2.1c.5-.6,1.3-.8,2.4-.8s1.9.3,2.5.8.8,1.2.8,2.2-.3,1.7-.8,2.3-1.4.8-2.5.8h0Z"/>
            <path class="cls-1" d="M359.4,176.9v-10.3h-1.8v-.6h1.8v-4.2l6.1-1.5v5.7h4.2v.6h-4.2v11c0,1,.1,1.8.3,2.2.2.5.6.7,1.3.7s1.2-.3,1.7-1,.8-1.5,1-2.7h.6c-.2,1.6-.7,2.8-1.4,3.6-.8.9-2.1,1.3-3.9,1.3s-3.2-.4-4.1-1.1c-1-.7-1.4-2-1.4-3.9l-.2.2Z"/>
            <path class="cls-1" d="M370.5,166.1h8v14.9h1.8v.6h-9.7v-.6h1.8v-14.3h-1.9v-.6h0ZM375.4,163.8c-1.2,0-2-.3-2.5-.9-.5-.6-.7-1.3-.7-2.2s.3-1.6.8-2.1c.5-.6,1.3-.8,2.4-.8s1.9.3,2.5.8.8,1.2.8,2.2-.3,1.7-.8,2.3-1.4.8-2.5.8h0Z"/>
            <path class="cls-1" d="M383.3,179.8c-1.4-1.4-2.1-3.4-2.1-6s.7-4.6,2.2-6,3.6-2.1,6.3-2.1,4.7.6,6,1.9c1.3,1.3,2,3.3,2,5.9,0,5.5-2.8,8.3-8.3,8.3s-4.8-.7-6.2-2.1h.1ZM391.4,175.2v-2.8c0-2.1-.1-3.6-.3-4.6-.2-1-.8-1.4-1.6-1.4s-.9.1-1.2.4c-.3.3-.5.7-.6,1.4-.2,1-.3,2.5-.3,4.5v2.5c0,2.4,0,3.8.2,4.3.1.5.3.9.4,1.2.2.5.7.8,1.4.8s1.4-.5,1.7-1.5c.2-.7.3-2.3.3-4.7h0Z"/>
            <path class="cls-1" d="M398.7,166.1h7.9v3c.3-1,.9-1.8,1.6-2.4.7-.6,1.8-.9,3.3-.9,3.4,0,5.1,1.8,5.1,5.4v9.8h1.8v.6h-9.2v-.6h1.3v-10.6c0-1.3,0-2.1-.3-2.5-.2-.4-.5-.6-.9-.6-.7,0-1.3.5-1.8,1.4s-.8,2-.8,3.3v9h1.4v.6h-9.3v-.6h1.8v-14.3h-1.8v-.6h-.1Z"/>
          </g>
        </g>
      </g>
    </g>
  </g>
</svg>