<?xml version="1.0" encoding="UTF-8"?>
<svg xmlns="http://www.w3.org/2000/svg" version="1.1" viewBox="0 0 443 197.6">
  <defs>
    <style>
      .cls-1 {
        fill: #be5f25;
      }
    </style>
  </defs>
  <!-- Generator: Adobe Illustrator 28.7.1, SVG Export Plug-In . SVG Version: 1.2.0 Build 142)  -->
  <g>
    <g id="Layer_1">
      <g>
        <path class="cls-1" d="M52.8,25.7c0,8.2-2.3,14-7,17.2-4.3,3-10.2,4.5-17.6,4.5H11.3v-1.1h4V6.6h-4v-1.1h18.5c7.7,0,13.4,1.6,17.3,4.7,3.8,3.1,5.8,8.3,5.8,15.6ZM26.9,46.3h2.3c4,0,6.9-1.4,8.7-4.3,1.7-2.9,2.6-7.6,2.6-14.4v-3.5c0-9-1.7-14.4-5.2-16.3-1.6-.9-4-1.3-7-1.3h-1.4v39.7Z"/>
        <path class="cls-1" d="M90.4,47.4h-13.7l-.7-4.4c-.6,1.6-1.6,2.8-2.9,3.7-1.3.9-3.1,1.3-5.6,1.3-6.2,0-9.3-3.3-9.3-10v-18.1h-3.4v-1.1h14.5v20.6c0,2.4.2,4,.5,4.7.3.8,1,1.1,2,1.1s1.9-.6,2.7-1.9c.8-1.2,1.2-3,1.2-5.2v-18.4h-2.8v-1.1h13.9v27.5h3.3v1.1Z"/>
        <path class="cls-1" d="M106.1,2.4v21c1.5-3.4,4.1-5.2,7.8-5.2,7.5,0,11.2,5,11.2,14.9s-1,8.8-3.1,11.2c-2.1,2.4-5.2,3.6-9.3,3.6s-3.7-.3-4.8-1c-1.1-.6-1.9-1.7-2.2-3.2l-.4,3.5h-13.7v-1.1h3.3V3.5h-3.3v-1.1h14.5ZM112.9,23c-.4-1.4-1.2-2.1-2.3-2.1s-2.2.7-3.1,2.2c-.9,1.4-1.4,3.4-1.4,5.9v11.2c0,1.7.3,3.2,1,4.4.7,1.2,1.7,1.8,3,1.8s2.2-.9,2.7-2.6c.5-1.8.7-4.8.7-9.2v-3.1c0-4.1-.2-6.9-.6-8.3Z"/>
        <path class="cls-1" d="M126.6,18.9h14.7v27.5h3.4v1.1h-17.8v-1.1h3.3v-26.4h-3.5v-1.1ZM135.7,14.7c-2.1,0-3.6-.5-4.5-1.6-.9-1.1-1.4-2.4-1.4-4s.5-2.9,1.5-4c1-1,2.5-1.6,4.5-1.6s3.5.5,4.6,1.4c1,.9,1.6,2.3,1.6,4s-.5,3.1-1.5,4.2c-1,1-2.6,1.6-4.7,1.6Z"/>
        <path class="cls-1" d="M146,18.9h14.5v5.5c.6-1.8,1.6-3.3,2.9-4.4,1.3-1.1,3.3-1.7,6-1.7,6.2,0,9.3,3.3,9.3,10v18.1h3.4v1.1h-17v-1.1h2.5v-19.5c0-2.4-.2-3.9-.5-4.6-.3-.7-.9-1-1.7-1-1.3,0-2.4.8-3.4,2.5-1,1.7-1.5,3.7-1.5,6.1v16.6h2.6v1.1h-17v-1.1h3.3v-26.4h-3.3v-1.1Z"/>
        <path class="cls-1" d="M184.2,48v-10.7h.7c1,3.5,2.4,5.9,4.2,7.3,1.8,1.4,4,2.1,6.6,2.1,4.1,0,6.1-1.3,6.1-3.9s-.5-2-1.5-2.5c-1.6-.9-3.6-1.6-6-2-2.7-.7-5-1.7-6.8-2.9-2.2-1.4-3.3-3.7-3.3-6.8s1-5.6,2.9-7.5c1.9-1.9,4.5-2.8,7.7-2.8s4,.5,6.1,1.4c.8.3,1.3.5,1.7.5s.7-.1,1-.4c.3-.3.6-.8,1-1.6h.7v9.2h-.7c-2-5.2-5.2-7.8-9.5-7.8s-3.3.3-4.2,1c-.9.7-1.4,1.5-1.4,2.5s.1,1.1.4,1.4c.3.3.5.6.7.8.2.2.4.3.8.5s.7.3.9.4c.2.1.6.2,1.1.4.5.2.9.3,1.1.3,2.7.7,4.7,1.3,5.9,1.8,1.2.5,2.3,1.1,3.4,1.8,2.2,1.5,3.3,4,3.3,7.4s-1,5.9-3,7.7c-2,1.7-4.7,2.6-8.2,2.6s-4.9-.6-7.2-1.7c-.5-.3-.9-.5-1.1-.5-.9,0-1.7.7-2.6,2.2h-.7Z"/>
        <path class="cls-1" d="M228.5,47.4v-1.1h2.8l-6.8-13.9-1.1.3v13.6h2.8v1.1h-17.2v-1.1h3.3V3.5h-3.5v-1.1h14.7v29.1l1-.4,13.5-11.2h-5.6v-1.1h11.8v1.1h-4.2l-7.1,6.1,10.4,20.3h2.2v1.1h-16.7Z"/>
        <path class="cls-1" d="M259.3,33.3h1.7v-4.6c0-3.8-.2-6.3-.6-7.6-.4-1.3-1.2-1.9-2.4-1.9s-1.4.2-1.9.6c-.6.4-.9.9-.9,1.6s.1,1.3.4,2h1.5c.3.8.5,1.9.5,3s-.5,2.2-1.5,3.1c-1,.9-2.3,1.3-3.8,1.3-3.4,0-5.2-1.7-5.2-5,0-4.9,4.2-7.4,12.5-7.4s8,.8,9.9,2.4c1.8,1.6,2.7,4.6,2.7,8.9v12.2c0,2.1.6,3.1,1.7,3.1s2.2-2.1,2.4-6.2h.9c-.2,3.6-.8,6-2,7.3-1.2,1.3-3.1,2-5.7,2-4.8,0-7.6-1.5-8.3-4.4-.5,1.5-1.3,2.6-2.3,3.4s-2.6,1.1-4.6,1.1c-5.9,0-8.9-2.4-8.9-7.3s1.1-4.8,3.4-5.8c2.3-1.1,5.7-1.6,10.4-1.6ZM257.2,44.7c.2.6.6.9,1.3.9s1.2-.5,1.7-1.5.8-2.4.8-4.2v-5.6h-.4c-2.5,0-3.7,1.8-3.7,5.5v1c0,2.1.1,3.4.3,4Z"/>
        <path class="cls-1" d="M10.6,62.4h14.5v22c.6-1.8,1.6-3.3,2.9-4.4,1.3-1.1,3.3-1.7,6-1.7,6.2,0,9.3,3.3,9.3,10v18.1h3.4v1.1h-17v-1.1h2.5v-19.5c0-2.4-.2-3.9-.5-4.6-.3-.7-.9-1-1.7-1-1.3,0-2.4.8-3.4,2.5-1,1.7-1.5,3.7-1.5,6.1v16.6h2.6v1.1H10.6v-1.1h3.3v-42.8h-3.3v-1.1Z"/>
        <path class="cls-1" d="M47.3,78.9h14.7v27.5h3.4v1.1h-17.8v-1.1h3.3v-26.4h-3.5v-1.1ZM56.4,74.7c-2.1,0-3.6-.5-4.5-1.6-.9-1.1-1.4-2.4-1.4-4s.5-2.9,1.5-4c1-1,2.5-1.6,4.5-1.6s3.5.5,4.6,1.4c1,.9,1.6,2.3,1.6,4s-.5,3.1-1.5,4.2c-1,1-2.6,1.6-4.7,1.6Z"/>
        <path class="cls-1" d="M87,107.4l-.7-4.2c-1.4,3.2-4.1,4.8-8.3,4.8s-6.1-1.2-8-3.7c-1.9-2.5-2.8-6.2-2.8-11.1,0-10,4-14.9,11.9-14.9s5.8,1,7,2.9v-17.7h-3.7v-1.1h15v43.9h2.9v1.1h-13.3ZM79.4,103.4c.4,1.4,1.2,2.1,2.4,2.1s2.2-.5,3.1-1.6c.9-1,1.3-2.6,1.3-4.6v-13.1c0-1.7-.3-3.2-1-4.4-.7-1.2-1.7-1.8-3-1.8s-2.2.9-2.7,2.6c-.5,1.8-.7,4.8-.7,9.2v3.1c0,4.2.2,7,.7,8.4Z"/>
        <path class="cls-1" d="M121.9,80.5c-1.5,0-2.8,1-3.9,2.9-1.1,1.9-1.7,4.2-1.7,6.8v16.1h4.3v1.1h-18.7v-1.1h3.3v-26.4h-3.3v-1.1h14.5v5.8c.5-2,1.5-3.6,3-4.7,1.5-1.1,3.2-1.7,5-1.7s3.4.5,4.6,1.6c1.2,1.1,1.8,2.6,1.8,4.5s-.4,3.4-1.3,4.5c-.9,1-2.2,1.6-4.1,1.6s-3.2-.6-4-1.8c-.9-1.2-1-2.9-.3-5h2.2c1-2,.6-3.1-1.3-3.1Z"/>
        <path class="cls-1" d="M145.1,93.3h1.7v-4.6c0-3.8-.2-6.3-.6-7.6-.4-1.3-1.2-1.9-2.4-1.9s-1.4.2-2,.6c-.6.4-.9.9-.9,1.6s.1,1.3.4,2h1.5c.3.8.5,1.9.5,3s-.5,2.2-1.5,3.1c-1,.9-2.3,1.3-3.8,1.3-3.4,0-5.2-1.7-5.2-5,0-4.9,4.2-7.4,12.5-7.4s8,.8,9.9,2.4c1.8,1.6,2.7,4.6,2.7,8.9v12.2c0,2.1.6,3.1,1.7,3.1s2.2-2.1,2.4-6.2h.9c-.2,3.6-.8,6-2,7.3-1.2,1.3-3.1,2-5.7,2-4.8,0-7.6-1.5-8.3-4.4-.5,1.5-1.3,2.6-2.3,3.4-1,.7-2.6,1.1-4.6,1.1-5.9,0-8.9-2.4-8.9-7.3s1.1-4.8,3.4-5.8c2.3-1.1,5.7-1.6,10.4-1.6ZM143,104.7c.2.6.6.9,1.3.9s1.2-.5,1.7-1.5.8-2.4.8-4.2v-5.6h-.4c-2.5,0-3.7,1.8-3.7,5.5v1c0,2.1.1,3.4.3,4Z"/>
        <path class="cls-1" d="M165.7,98.8v-18.9h-3.3v-1.1h3.3v-7.7l11.2-2.8v10.5h7.8v1.1h-7.8v20.2c0,1.9.2,3.3.6,4.1.4.9,1.2,1.3,2.4,1.3s2.2-.6,3.1-1.8c.9-1.2,1.5-2.8,1.8-4.9h1c-.3,2.9-1.2,5.1-2.6,6.7s-3.8,2.4-7.1,2.4-5.9-.7-7.6-2c-1.8-1.3-2.6-3.7-2.6-7.2Z"/>
        <path class="cls-1" d="M200.7,93.3h1.7v-4.6c0-3.8-.2-6.3-.6-7.6-.4-1.3-1.2-1.9-2.4-1.9s-1.4.2-1.9.6c-.6.4-.9.9-.9,1.6s.1,1.3.4,2h1.5c.3.8.5,1.9.5,3s-.5,2.2-1.5,3.1c-1,.9-2.3,1.3-3.8,1.3-3.4,0-5.2-1.7-5.2-5,0-4.9,4.2-7.4,12.5-7.4s8,.8,9.9,2.4c1.8,1.6,2.7,4.6,2.7,8.9v12.2c0,2.1.6,3.1,1.7,3.1s2.2-2.1,2.4-6.2h.9c-.2,3.6-.8,6-2,7.3-1.2,1.3-3.1,2-5.7,2-4.8,0-7.6-1.5-8.3-4.4-.5,1.5-1.3,2.6-2.3,3.4-1,.7-2.6,1.1-4.6,1.1-5.9,0-8.9-2.4-8.9-7.3s1.1-4.8,3.4-5.8c2.3-1.1,5.7-1.6,10.4-1.6ZM198.7,104.7c.2.6.6.9,1.3.9s1.2-.5,1.7-1.5.8-2.4.8-4.2v-5.6h-.4c-2.5,0-3.7,1.8-3.7,5.5v1c0,2.1.1,3.4.3,4Z"/>
        <path class="cls-1" d="M236.1,79.3c-1.8,0-3,1-3.8,2.9-.8,1.9-1.1,5.1-1.1,9.5v3.1c0,4,.4,6.8,1.3,8.5.9,1.7,2.5,2.6,4.9,2.6s4.2-.8,5.6-2.4c1.4-1.6,2.3-3.4,2.7-5.5h1.1c-.8,3.6-2.2,6-4.2,7.6-2.1,1.6-4.9,2.3-8.6,2.3s-8.2-1.2-10.7-3.8c-2.5-2.5-3.7-6.2-3.7-11s1.4-8.5,4.2-11.1c2.8-2.6,6.8-3.9,11.8-3.9s6.3.7,8.2,2.1c1.9,1.4,2.8,3.1,2.8,5.2s-.5,3.6-1.4,4.6c-.9,1-2.1,1.4-3.7,1.4s-2.8-.4-3.8-1.3c-1-.8-1.4-2.1-1.4-3.7s0-1.4.3-2.2h2c.3-.8.4-1.5.4-2.2,0-1.9-1-2.9-2.9-2.9Z"/>
        <path class="cls-1" d="M248,78.9h14.7v27.5h3.4v1.1h-17.8v-1.1h3.3v-26.4h-3.5v-1.1ZM257.1,74.7c-2.1,0-3.6-.5-4.5-1.6-.9-1.1-1.3-2.4-1.3-4s.5-2.9,1.5-4c1-1,2.5-1.6,4.5-1.6s3.5.5,4.6,1.4c1,.9,1.6,2.3,1.6,4s-.5,3.1-1.5,4.2c-1,1-2.6,1.6-4.7,1.6ZM281.7,78.9v23.4c0,6.6-1.1,11.6-3.4,15-2.3,3.4-6,5.2-11.1,5.2s-5.8-.7-7.3-2c-1.5-1.3-2.3-2.9-2.3-4.6s.5-3.1,1.6-4c1-.9,2.3-1.4,3.9-1.4s2.7.4,3.5,1.3c.8.9,1.2,1.8,1.2,2.9s-.1,2-.4,3h-2.3c-.6,1.1-.7,2-.3,2.8.5.8,1.3,1.1,2.5,1.1s2-.7,2.5-2.1c.4-1.4.7-4.2.7-8.6v-30.8h-3.9v-1.1h15.1ZM276,74.7c-2.1,0-3.6-.5-4.5-1.6-.9-1.1-1.3-2.4-1.3-4s.5-2.9,1.5-4c1-1,2.5-1.6,4.5-1.6s3.5.5,4.6,1.4c1,.9,1.6,2.3,1.6,4s-.5,3.1-1.5,4.2c-1,1-2.6,1.6-4.7,1.6Z"/>
        <path class="cls-1" d="M300,93.3h1.7v-4.6c0-3.8-.2-6.3-.6-7.6-.4-1.3-1.2-1.9-2.4-1.9s-1.4.2-1.9.6c-.6.4-.9.9-.9,1.6s.1,1.3.4,2h1.5c.3.8.5,1.9.5,3s-.5,2.2-1.5,3.1c-1,.9-2.3,1.3-3.8,1.3-3.4,0-5.2-1.7-5.2-5,0-4.9,4.2-7.4,12.5-7.4s8,.8,9.9,2.4c1.8,1.6,2.7,4.6,2.7,8.9v12.2c0,2.1.6,3.1,1.7,3.1s2.2-2.1,2.4-6.2h.9c-.2,3.6-.8,6-2,7.3-1.2,1.3-3.1,2-5.7,2-4.8,0-7.6-1.5-8.3-4.4-.5,1.5-1.3,2.6-2.3,3.4-1,.7-2.6,1.1-4.6,1.1-5.9,0-8.9-2.4-8.9-7.3s1.1-4.8,3.4-5.8c2.3-1.1,5.7-1.6,10.4-1.6ZM298,104.7c.2.6.6.9,1.3.9s1.2-.5,1.7-1.5.8-2.4.8-4.2v-5.6h-.4c-2.5,0-3.7,1.8-3.7,5.5v1c0,2.1.1,3.4.3,4Z"/>
        <path class="cls-1" d="M25.1,138.9v23.4c0,6.6-1.1,11.6-3.4,15-2.3,3.4-6,5.2-11.1,5.2s-5.8-.7-7.3-2c-1.5-1.3-2.3-2.9-2.3-4.6s.5-3.1,1.6-4c1-.9,2.3-1.4,3.9-1.4s2.7.4,3.5,1.3c.8.9,1.2,1.8,1.2,2.9s-.1,2-.4,3h-2.3c-.6,1.1-.7,2-.3,2.8.5.8,1.3,1.1,2.5,1.1s2-.7,2.5-2.1c.4-1.4.7-4.2.7-8.6v-30.8h-3.9v-1.1h15.1ZM19.4,134.7c-2.1,0-3.6-.5-4.5-1.6s-1.4-2.4-1.4-4,.5-2.9,1.5-4c1-1,2.5-1.6,4.5-1.6s3.5.5,4.6,1.4c1,.9,1.6,2.3,1.6,4s-.5,3.1-1.5,4.2c-1,1-2.6,1.6-4.7,1.6Z"/>
        <path class="cls-1" d="M33.4,164c-2.6-2.7-3.9-6.4-3.9-11.1s1.4-8.4,4.4-10.9c2.9-2.5,6.6-3.8,11.1-3.8,9.1,0,13.4,4.6,13.1,13.7h-16.9v2.3c0,3.9.5,6.9,1.5,8.9,1,2,2.7,3,5.2,3,4.6,0,7.7-2.5,9.1-7.4l1.1.2c-.8,2.9-2.1,5.1-4.1,6.7s-5,2.4-8.9,2.4-9-1.3-11.6-4ZM41.2,150.7h6.2v-2.9c0-3.2-.2-5.5-.6-6.6-.4-1.2-1.1-1.8-2.3-1.8s-2,.6-2.5,1.9c-.5,1.3-.8,3.4-.8,6.5v2.9Z"/>
        <path class="cls-1" d="M71,138.9h14.5v5.5c1.3-4.1,4.2-6.1,8.7-6.1s7.2,2.2,8.2,6.5c1.4-4.3,4.3-6.5,8.8-6.5s8.8,3.3,8.8,10v18.1h3.4v1.1h-16.6v-1.1h2.1v-19.5c0-3-.3-4.8-.8-5.3-.2-.2-.6-.4-1-.4-1.2,0-2.2.8-3.1,2.3-.9,1.6-1.3,3.5-1.3,5.9v16.9h2.2v1.1h-15.4v-1.1h2.1v-19.5c0-3-.3-4.8-.8-5.3-.2-.2-.6-.4-1-.4-1.1,0-2.1.9-3,2.5-.9,1.7-1.4,3.7-1.4,6.1v16.6h2.2v1.1h-16.6v-1.1h3.3v-26.4h-3.3v-1.1Z"/>
        <path class="cls-1" d="M158.2,167.4h-13.7l-.7-4.4c-.6,1.6-1.6,2.8-2.9,3.7-1.3.9-3.1,1.3-5.6,1.3-6.2,0-9.3-3.3-9.3-10v-18.1h-3.4v-1.1h14.5v20.6c0,2.4.2,4,.5,4.7.3.8,1,1.1,2,1.1s1.9-.6,2.7-1.9c.8-1.2,1.2-3,1.2-5.2v-18.4h-2.8v-1.1h13.9v27.5h3.3v1.1Z"/>
        <path class="cls-1" d="M160.8,168v-10.7h.7c1,3.5,2.4,5.9,4.2,7.3,1.8,1.4,4,2.1,6.6,2.1,4.1,0,6.1-1.3,6.1-3.9s-.5-2-1.5-2.5c-1.6-.9-3.6-1.6-6-2-2.7-.7-5-1.7-6.8-2.9-2.2-1.4-3.3-3.7-3.3-6.8s1-5.6,2.9-7.5,4.5-2.8,7.7-2.8,4,.5,6.1,1.4c.8.3,1.3.5,1.7.5s.7-.1,1-.4c.3-.3.6-.8,1-1.6h.7v9.2h-.7c-2-5.2-5.2-7.8-9.5-7.8s-3.3.3-4.2,1c-.9.7-1.4,1.5-1.4,2.5s.1,1.1.4,1.4c.3.3.5.6.7.8.2.2.4.3.8.5.4.2.7.3.9.4.2.1.6.2,1.1.4.5.2.9.3,1.1.3,2.7.7,4.7,1.3,5.9,1.8,1.2.5,2.3,1.1,3.4,1.8,2.2,1.5,3.3,4,3.3,7.3s-1,5.9-3,7.7c-2,1.7-4.7,2.6-8.2,2.6s-4.9-.6-7.2-1.7c-.5-.3-.9-.5-1.1-.5-.9,0-1.7.7-2.6,2.2h-.7Z"/>
        <path class="cls-1" d="M187.8,158.8v-18.9h-3.3v-1.1h3.3v-7.7l11.2-2.8v10.5h7.8v1.1h-7.8v20.2c0,1.9.2,3.3.6,4.1.4.9,1.2,1.3,2.4,1.3s2.2-.6,3.1-1.8c.9-1.2,1.5-2.8,1.8-4.9h1c-.3,2.9-1.2,5.1-2.6,6.7s-3.8,2.4-7.1,2.4-5.9-.7-7.6-2c-1.8-1.3-2.6-3.7-2.6-7.2Z"/>
      </g>
    </g>
  </g>
</svg>