<?xml version="1.0" encoding="UTF-8"?>
<svg xmlns="http://www.w3.org/2000/svg" version="1.1" viewBox="0 0 443 130.6">
  <defs>
    <style>
      .cls-1 {
        fill: #be5f25;
      }
    </style>
  </defs>
  <!-- Generator: Adobe Illustrator 28.7.1, SVG Export Plug-In . SVG Version: 1.2.0 Build 142)  -->
  <g>
    <g id="Layer_1">
      <g>
        <path class="cls-1" d="M11.3,4.2h18.7v1.1h-3.5v18.6h11.9V5.3h-3.5v-1.1h18.8v1.1h-3.5v39.7h3.5v1.1h-18.8v-1.1h3.5v-19.6h-11.9v19.6h3.5v1.1H11.3v-1.1h3.5V5.3h-3.5v-1.1Z"/>
        <path class="cls-1" d="M69.9,32.1h1.7v-4.6c0-3.8-.2-6.3-.6-7.6-.4-1.3-1.2-1.9-2.4-1.9s-1.4.2-2,.6c-.6.4-.9.9-.9,1.6s.1,1.3.4,2h1.5c.3.8.5,1.9.5,3s-.5,2.2-1.5,3.1c-1,.9-2.3,1.3-3.8,1.3-3.4,0-5.2-1.7-5.2-5,0-4.9,4.2-7.4,12.5-7.4s8,.8,9.9,2.4c1.8,1.6,2.7,4.6,2.7,8.9v12.2c0,2.1.6,3.1,1.7,3.1s2.2-2.1,2.4-6.2h.9c-.2,3.6-.8,6-2,7.3-1.2,1.3-3.1,2-5.7,2-4.8,0-7.6-1.5-8.3-4.4-.5,1.5-1.3,2.6-2.3,3.4-1,.7-2.6,1.1-4.6,1.1-5.9,0-8.9-2.4-8.9-7.3s1.1-4.8,3.4-5.8c2.3-1.1,5.7-1.6,10.4-1.6ZM67.9,43.5c.2.6.6.9,1.3.9s1.2-.5,1.7-1.5.8-2.4.8-4.2v-5.6h-.4c-2.5,0-3.7,1.8-3.7,5.5v1c0,2.1.1,3.4.3,4Z"/>
        <path class="cls-1" d="M88.2,17.6h14.7v27.5h3.4v1.1h-17.8v-1.1h3.3v-26.4h-3.5v-1.1ZM97.3,13.5c-2.1,0-3.6-.5-4.5-1.6-.9-1.1-1.4-2.4-1.4-4s.5-2.9,1.5-4c1-1,2.5-1.6,4.5-1.6s3.5.5,4.6,1.4c1,.9,1.6,2.3,1.6,4s-.5,3.1-1.5,4.2c-1,1-2.6,1.6-4.7,1.6Z"/>
        <path class="cls-1" d="M127.5,19.3c-1.5,0-2.8,1-3.9,2.9-1.1,1.9-1.7,4.2-1.7,6.8v16.1h4.3v1.1h-18.7v-1.1h3.3v-26.4h-3.3v-1.1h14.5v5.8c.5-2,1.5-3.6,3-4.7,1.5-1.1,3.2-1.7,5-1.7s3.4.5,4.6,1.6c1.2,1.1,1.8,2.6,1.8,4.5s-.4,3.4-1.3,4.5c-.9,1-2.2,1.6-4.1,1.6s-3.2-.6-4-1.8c-.9-1.2-1-2.9-.3-5h2.2c1-2,.6-3.1-1.3-3.1Z"/>
        <path class="cls-1" d="M171.4,4.7c-6.2,0-9.3,6-9.3,17.9v4.7c0,5.7.8,10.1,2.5,13.3,1.6,3.2,4.1,4.8,7.3,4.8s8.4-4.3,12.1-12.8h1.1l-.4,13.4h-.7c-.2-.4-.5-.8-.7-.9-.2-.2-.5-.3-.9-.3s-1.8.3-4.3.9c-2.5.6-5.1.9-7.7.9-6.5,0-11.6-1.8-15.2-5.3-3.6-3.5-5.4-8.8-5.4-15.9s1.9-12.5,5.6-16.4c3.7-3.8,8.8-5.8,15.1-5.8s4.8.3,7.2.9c2.3.6,3.7.9,4.1.9s.7,0,.9-.3c.2-.2.4-.5.7-.9h.7l.5,13h-1.1c-1.8-4-3.7-7.1-5.5-9.3-1.9-2.1-4.1-3.2-6.5-3.2Z"/>
        <path class="cls-1" d="M203.8,32.1h1.7v-4.6c0-3.8-.2-6.3-.6-7.6-.4-1.3-1.2-1.9-2.4-1.9s-1.4.2-1.9.6c-.6.4-.9.9-.9,1.6s.1,1.3.4,2h1.5c.3.8.5,1.9.5,3s-.5,2.2-1.5,3.1c-1,.9-2.3,1.3-3.8,1.3-3.4,0-5.2-1.7-5.2-5,0-4.9,4.2-7.4,12.5-7.4s8,.8,9.9,2.4c1.8,1.6,2.7,4.6,2.7,8.9v12.2c0,2.1.6,3.1,1.7,3.1s2.2-2.1,2.4-6.2h.9c-.2,3.6-.8,6-2,7.3-1.2,1.3-3.1,2-5.7,2-4.8,0-7.6-1.5-8.3-4.4-.5,1.5-1.3,2.6-2.3,3.4s-2.6,1.1-4.6,1.1c-5.9,0-8.9-2.4-8.9-7.3s1.1-4.8,3.4-5.8c2.3-1.1,5.7-1.6,10.4-1.6ZM201.7,43.5c.2.6.6.9,1.3.9s1.2-.5,1.7-1.5.8-2.4.8-4.2v-5.6h-.4c-2.5,0-3.7,1.8-3.7,5.5v1c0,2.1.1,3.4.3,4Z"/>
        <path class="cls-1" d="M242.4,19.3c-1.5,0-2.8,1-3.9,2.9-1.1,1.9-1.7,4.2-1.7,6.8v16.1h4.3v1.1h-18.7v-1.1h3.3v-26.4h-3.3v-1.1h14.5v5.8c.5-2,1.5-3.6,3-4.7,1.5-1.1,3.2-1.7,5-1.7s3.4.5,4.6,1.6c1.2,1.1,1.8,2.6,1.8,4.5s-.4,3.4-1.3,4.5c-.9,1-2.2,1.6-4,1.6s-3.2-.6-4-1.8c-.9-1.2-1-2.9-.3-5h2.2c1-2,.6-3.1-1.3-3.1Z"/>
        <path class="cls-1" d="M255.9,42.8c-2.6-2.7-3.9-6.4-3.9-11.1s1.4-8.4,4.3-10.9c2.9-2.5,6.6-3.8,11.1-3.8,9.1,0,13.4,4.6,13.1,13.7h-16.9v2.3c0,3.9.5,6.9,1.5,8.9,1,2,2.7,3,5.2,3,4.6,0,7.7-2.5,9.1-7.4l1.1.2c-.8,2.9-2.1,5.1-4.1,6.7-2,1.6-5,2.4-8.9,2.4s-9-1.3-11.6-4ZM263.7,29.5h6.2v-2.9c0-3.2-.2-5.4-.6-6.6-.4-1.2-1.1-1.8-2.3-1.8s-2,.6-2.5,1.9c-.5,1.3-.8,3.4-.8,6.5v2.9Z"/>
        <path class="cls-1" d="M25.1,77.6v23.4c0,6.6-1.1,11.6-3.4,15-2.3,3.4-6,5.2-11.1,5.2s-5.8-.7-7.3-2c-1.5-1.3-2.3-2.9-2.3-4.6s.5-3.1,1.6-4c1-.9,2.3-1.4,3.9-1.4s2.7.4,3.5,1.3c.8.9,1.2,1.8,1.2,2.8s-.1,2-.4,3h-2.3c-.6,1.1-.7,2-.3,2.8.5.8,1.3,1.1,2.5,1.1s2-.7,2.5-2.1c.4-1.4.7-4.2.7-8.5v-30.8h-3.9v-1.1h15.1ZM19.4,73.5c-2.1,0-3.6-.5-4.5-1.6-.9-1.1-1.4-2.4-1.4-4s.5-2.9,1.5-4c1-1,2.5-1.6,4.5-1.6s3.5.5,4.6,1.4c1,.9,1.6,2.3,1.6,4s-.5,3.1-1.5,4.2c-1,1-2.6,1.6-4.7,1.6Z"/>
        <path class="cls-1" d="M33.4,102.8c-2.6-2.7-3.9-6.4-3.9-11.1s1.4-8.4,4.4-10.9c2.9-2.5,6.6-3.8,11.1-3.8,9.1,0,13.4,4.6,13.1,13.7h-16.9v2.3c0,3.9.5,6.9,1.5,8.9,1,2,2.7,3,5.2,3,4.6,0,7.7-2.5,9.1-7.4l1.1.2c-.8,2.9-2.1,5.1-4.1,6.7-2,1.6-5,2.4-8.9,2.4s-9-1.3-11.6-4ZM41.2,89.5h6.2v-2.9c0-3.2-.2-5.4-.6-6.6-.4-1.2-1.1-1.8-2.3-1.8s-2,.6-2.5,1.9c-.5,1.3-.8,3.4-.8,6.5v2.9Z"/>
        <path class="cls-1" d="M70.8,77.6h14.7v27.5h3.4v1.1h-17.8v-1.1h3.3v-26.4h-3.5v-1.1ZM79.8,73.5c-2.1,0-3.6-.5-4.5-1.6-.9-1.1-1.4-2.4-1.4-4s.5-2.9,1.5-4c1-1,2.5-1.6,4.5-1.6s3.5.5,4.6,1.4c1,.9,1.6,2.3,1.6,4s-.5,3.1-1.5,4.2c-1,1-2.6,1.6-4.7,1.6Z"/>
        <path class="cls-1" d="M90,77.6h14.5v5.5c1.3-4.1,4.2-6.1,8.7-6.1s7.2,2.2,8.2,6.5c1.4-4.3,4.3-6.5,8.8-6.5s8.8,3.3,8.8,10v18.1h3.4v1.1h-16.6v-1.1h2.1v-19.5c0-3-.3-4.8-.8-5.3-.2-.2-.6-.4-1-.4-1.2,0-2.2.8-3.1,2.3-.9,1.6-1.3,3.5-1.3,5.9v16.9h2.2v1.1h-15.4v-1.1h2.1v-19.5c0-3-.3-4.8-.8-5.3-.2-.2-.6-.4-1-.4-1.1,0-2.1.9-3,2.5-.9,1.7-1.4,3.7-1.4,6.1v16.6h2.2v1.1h-16.6v-1.1h3.3v-26.4h-3.3v-1.1Z"/>
        <path class="cls-1" d="M157.7,77.6v4.7c1.6-3.6,4.3-5.3,8.3-5.3s6.1,1.2,8,3.7c1.9,2.5,2.8,6.2,2.8,11.3s-1,8.8-3.1,11.2c-2.1,2.4-5.2,3.6-9.3,3.6s-3.4-.2-4.3-.7c-1-.5-1.7-1.2-2.3-2.2v15.5h7.7v1.1h-22.2v-1.1h3.3v-40.7h-3.2v-1.1h14.2ZM164.6,81.7c-.4-1.4-1.2-2.1-2.3-2.1s-2.2.8-3.1,2.2c-.9,1.5-1.4,3.5-1.4,6v11c0,1.7.3,3.2,1,4.4.7,1.2,1.7,1.8,3,1.8s2.2-.9,2.7-2.6.7-4.8.7-9.2v-3.1c0-4.1-.2-6.9-.6-8.3Z"/>
        <path class="cls-1" d="M182.8,102.8c-2.6-2.7-3.9-6.4-3.9-11.1s1.4-8.4,4.3-10.9c2.9-2.5,6.6-3.8,11.1-3.8,9.1,0,13.4,4.6,13.1,13.7h-16.9v2.3c0,3.9.5,6.9,1.5,8.9,1,2,2.7,3,5.2,3,4.6,0,7.7-2.5,9.1-7.4l1.1.2c-.8,2.9-2.1,5.1-4.1,6.7-2,1.6-5,2.4-8.9,2.4s-9-1.3-11.6-4ZM190.5,89.5h6.2v-2.9c0-3.2-.2-5.4-.6-6.6-.4-1.2-1.1-1.8-2.3-1.8s-2,.6-2.5,1.9c-.5,1.3-.8,3.4-.8,6.5v2.9Z"/>
        <path class="cls-1" d="M229.6,79.3c-1.5,0-2.8,1-3.9,2.9-1.1,1.9-1.7,4.2-1.7,6.8v16.1h4.3v1.1h-18.7v-1.1h3.3v-26.4h-3.3v-1.1h14.5v5.8c.5-2,1.5-3.6,3-4.7,1.5-1.1,3.2-1.7,5-1.7s3.4.5,4.6,1.6c1.2,1.1,1.8,2.6,1.8,4.5s-.4,3.4-1.3,4.5c-.9,1-2.2,1.6-4,1.6s-3.2-.6-4-1.8c-.9-1.2-1-2.9-.3-5h2.2c1-2,.6-3.1-1.3-3.1Z"/>
        <path class="cls-1" d="M252.8,92.1h1.7v-4.6c0-3.8-.2-6.3-.6-7.6-.4-1.3-1.2-1.9-2.4-1.9s-1.4.2-1.9.6c-.6.4-.9.9-.9,1.6s.1,1.3.4,2h1.5c.3.8.5,1.9.5,3s-.5,2.2-1.5,3.1c-1,.9-2.3,1.3-3.8,1.3-3.4,0-5.2-1.7-5.2-5,0-4.9,4.2-7.4,12.5-7.4s8,.8,9.9,2.4c1.8,1.6,2.7,4.6,2.7,8.9v12.2c0,2.1.6,3.1,1.7,3.1s2.2-2.1,2.4-6.2h.9c-.2,3.6-.8,6-2,7.3s-3.1,2-5.7,2c-4.8,0-7.6-1.5-8.3-4.4-.5,1.5-1.3,2.6-2.3,3.4-1,.7-2.6,1.1-4.6,1.1-5.9,0-8.9-2.4-8.9-7.3s1.1-4.8,3.4-5.8c2.3-1.1,5.7-1.6,10.4-1.6ZM250.7,103.5c.2.6.6.9,1.3.9s1.2-.5,1.7-1.5c.5-1,.8-2.4.8-4.2v-5.6h-.4c-2.5,0-3.7,1.8-3.7,5.5v1c0,2.1.1,3.4.3,4Z"/>
        <path class="cls-1" d="M273.4,97.6v-18.9h-3.3v-1.1h3.3v-7.7l11.2-2.8v10.5h7.8v1.1h-7.8v20.2c0,1.9.2,3.3.6,4.1.4.9,1.2,1.3,2.4,1.3s2.2-.6,3.1-1.8c.9-1.2,1.5-2.8,1.8-4.9h1c-.3,2.9-1.2,5.1-2.6,6.7s-3.8,2.4-7.1,2.4-5.9-.7-7.6-2c-1.8-1.3-2.6-3.7-2.6-7.2Z"/>
        <path class="cls-1" d="M293.8,77.6h14.7v27.5h3.4v1.1h-17.8v-1.1h3.3v-26.4h-3.5v-1.1ZM302.9,73.5c-2.1,0-3.6-.5-4.5-1.6-.9-1.1-1.3-2.4-1.3-4s.5-2.9,1.5-4c1-1,2.5-1.6,4.5-1.6s3.5.5,4.6,1.4c1,.9,1.6,2.3,1.6,4s-.5,3.1-1.5,4.2c-1,1-2.6,1.6-4.7,1.6Z"/>
        <path class="cls-1" d="M310.7,78.7v-1.1h17.9v1.1h-3.8l7.2,19.9,6.5-19.9h-4v-1.1h8.1v1.1h-2.6l-8.9,27.5h-6.8l-11.1-27.5h-2.5Z"/>
      </g>
    </g>
  </g>
</svg>