<?xml version="1.0" encoding="UTF-8"?>
<svg xmlns="http://www.w3.org/2000/svg" version="1.1" viewBox="0 0 443 124.6">
  <defs>
    <style>
      .cls-1 {
        fill: #be5f25;
      }
    </style>
  </defs>
  <!-- Generator: Adobe Illustrator 28.7.1, SVG Export Plug-In . SVG Version: 1.2.0 Build 142)  -->
  <g>
    <g id="Layer_1">
      <g>
        <path class="cls-1" d="M.9,5.4h17.6c6,0,10.5.9,13.5,2.6,3,1.7,4.4,4.9,4.4,9.3s-1.8,8.4-5.4,10.3c-3.4,1.7-8.1,2.6-14.1,2.6h-.5v16.1h7.5v1.1H.9v-1.1h3.9V6.6H.9v-1.1ZM16.5,6.6v22.5h1.3c2.4,0,4.1-.8,5-2.5.9-1.6,1.4-4.3,1.4-8v-2.9c0-3.4-.4-5.8-1.3-7.1-.9-1.4-2.4-2-4.7-2h-1.6Z"/>
        <path class="cls-1" d="M58.7,20.5c-1.5,0-2.8,1-3.9,2.9-1.1,1.9-1.7,4.2-1.7,6.8v16.1h4.3v1.1h-18.7v-1.1h3.3v-26.4h-3.3v-1.1h14.5v5.8c.5-2,1.5-3.6,3-4.7,1.5-1.1,3.2-1.7,5-1.7s3.4.5,4.6,1.6c1.2,1.1,1.8,2.6,1.8,4.5s-.4,3.4-1.3,4.5c-.9,1-2.2,1.6-4.1,1.6s-3.2-.6-4-1.8c-.9-1.2-1-2.9-.3-5h2.2c1-2,.6-3.1-1.3-3.1Z"/>
        <path class="cls-1" d="M81.8,33.3h1.7v-4.6c0-3.8-.2-6.3-.6-7.6-.4-1.3-1.2-1.9-2.4-1.9s-1.4.2-2,.6c-.6.4-.9.9-.9,1.6s.1,1.3.4,2h1.5c.3.8.5,1.9.5,3s-.5,2.2-1.5,3.1c-1,.9-2.3,1.3-3.8,1.3-3.4,0-5.2-1.7-5.2-5,0-4.9,4.2-7.4,12.5-7.4s8,.8,9.9,2.4c1.8,1.6,2.7,4.6,2.7,8.9v12.2c0,2.1.6,3.1,1.7,3.1s2.2-2.1,2.4-6.2h.9c-.2,3.6-.8,6-2,7.3-1.2,1.3-3.1,2-5.7,2-4.8,0-7.6-1.5-8.3-4.4-.5,1.5-1.3,2.6-2.3,3.4-1,.7-2.6,1.1-4.6,1.1-5.9,0-8.9-2.4-8.9-7.3s1.1-4.8,3.4-5.8c2.3-1.1,5.7-1.6,10.4-1.6ZM79.8,44.7c.2.6.6.9,1.3.9s1.2-.5,1.7-1.5.8-2.4.8-4.2v-5.6h-.4c-2.5,0-3.7,1.8-3.7,5.5v1c0,2.1.1,3.4.3,4Z"/>
        <path class="cls-1" d="M120,47.4v-1.1h2.8l-6.8-13.9-1.1.3v13.6h2.8v1.1h-17.2v-1.1h3.3V3.5h-3.5v-1.1h14.7v29.1l1-.4,13.5-11.2h-5.6v-1.1h11.8v1.1h-4.2l-7.1,6.1,10.4,20.3h2.2v1.1h-16.7Z"/>
        <path class="cls-1" d="M140.6,38.8v-18.9h-3.3v-1.1h3.3v-7.7l11.2-2.8v10.5h7.8v1.1h-7.8v20.2c0,1.9.2,3.3.6,4.1.4.9,1.2,1.3,2.4,1.3s2.2-.6,3.1-1.8c.9-1.2,1.5-2.8,1.8-4.9h1c-.3,2.9-1.2,5.1-2.6,6.7-1.4,1.6-3.8,2.4-7.1,2.4s-5.9-.7-7.6-2c-1.8-1.3-2.6-3.7-2.6-7.2Z"/>
        <path class="cls-1" d="M161,18.9h14.7v27.5h3.4v1.1h-17.8v-1.1h3.3v-26.4h-3.5v-1.1ZM170,14.7c-2.1,0-3.6-.5-4.5-1.6-.9-1.1-1.3-2.4-1.3-4s.5-2.9,1.5-4c1-1,2.5-1.6,4.5-1.6s3.5.5,4.6,1.4c1,.9,1.6,2.3,1.6,4s-.5,3.1-1.5,4.2c-1,1-2.6,1.6-4.7,1.6Z"/>
        <path class="cls-1" d="M197,19.3c-1.8,0-3,1-3.8,2.9-.8,1.9-1.1,5.1-1.1,9.5v3.1c0,4,.4,6.8,1.3,8.5.9,1.7,2.5,2.6,4.9,2.6s4.2-.8,5.6-2.4c1.4-1.6,2.3-3.4,2.7-5.5h1.1c-.8,3.6-2.2,6-4.2,7.6-2.1,1.6-4.9,2.3-8.6,2.3s-8.2-1.2-10.7-3.8c-2.5-2.5-3.7-6.2-3.7-11s1.4-8.5,4.2-11.1c2.8-2.6,6.8-3.9,11.8-3.9s6.3.7,8.2,2.1c1.9,1.4,2.8,3.1,2.8,5.2s-.5,3.6-1.4,4.6c-.9,1-2.1,1.4-3.7,1.4s-2.8-.4-3.8-1.3c-1-.8-1.4-2.1-1.4-3.7s0-1.4.3-2.2h2c.3-.8.4-1.5.4-2.2,0-1.9-1-2.9-2.9-2.9ZM203.9,3.4l-5.2,11.4c-1.1.6-2.2,1-3.2,1-2,0-3.3-1-4.1-2.9l-3.8-9.5.7-.4,7.6,6.4,7.4-6.4.7.5Z"/>
        <path class="cls-1" d="M209.3,18.9h14.5v5.5c.6-1.8,1.6-3.3,2.9-4.4,1.3-1.1,3.3-1.7,6-1.7,6.2,0,9.3,3.3,9.3,10v18.1h3.4v1.1h-17v-1.1h2.5v-19.5c0-2.4-.2-3.9-.5-4.6-.3-.7-.9-1-1.7-1-1.3,0-2.4.8-3.4,2.5-1,1.7-1.5,3.7-1.5,6.1v16.6h2.6v1.1h-17v-1.1h3.3v-26.4h-3.3v-1.1Z"/>
        <path class="cls-1" d="M250.5,44.2c-2.6-2.6-3.8-6.2-3.8-11s1.4-8.5,4.1-11c2.7-2.6,6.6-3.9,11.5-3.9s8.7,1.2,11.1,3.6c2.4,2.4,3.7,6,3.7,10.9,0,10.2-5.1,15.3-15.2,15.3s-8.8-1.3-11.3-3.8ZM265.6,35.6v-5.1c0-3.9-.2-6.7-.6-8.5-.4-1.8-1.4-2.7-2.9-2.7s-1.6.3-2.1.8c-.5.5-.9,1.3-1.2,2.5-.4,1.8-.5,4.5-.5,8.2v4.7c0,4.4.1,7,.4,7.9.3.9.5,1.6.8,2.2.4,1,1.3,1.4,2.6,1.4s2.6-.9,3.1-2.7c.4-1.3.5-4.2.5-8.6Z"/>
        <path class="cls-1" d="M289.3,18.9h14.7v27.5h3.4v1.1h-17.8v-1.1h3.3v-26.4h-3.5v-1.1ZM298.4,14.7c-2.1,0-3.6-.5-4.5-1.6-.9-1.1-1.3-2.4-1.3-4s.5-2.9,1.5-4c1-1,2.5-1.6,4.5-1.6s3.5.5,4.6,1.4c1,.9,1.6,2.3,1.6,4s-.5,3.1-1.5,4.2c-1,1-2.6,1.6-4.7,1.6Z"/>
        <path class="cls-1" d="M20.2,107.4v-1.1h2.8l-6.8-13.9-1.1.3v13.6h2.8v1.1H.6v-1.1h3.3v-42.8H.4v-1.1h14.7v29.1l1-.4,13.5-11.2h-5.6v-1.1h11.8v1.1h-4.2l-7.1,6.1,10.4,20.3h2.2v1.1h-16.7Z"/>
        <path class="cls-1" d="M57.8,80.5c-1.5,0-2.8,1-3.9,2.9-1.1,1.9-1.7,4.2-1.7,6.8v16.1h4.3v1.1h-18.7v-1.1h3.3v-26.4h-3.3v-1.1h14.5v5.8c.5-2,1.5-3.6,3-4.7,1.5-1.1,3.2-1.7,5-1.7s3.4.5,4.6,1.6c1.2,1.1,1.8,2.6,1.8,4.5s-.4,3.4-1.3,4.5c-.9,1-2.2,1.6-4.1,1.6s-3.2-.6-4-1.8c-.9-1.2-1-2.9-.3-5h2.2c1-2,.6-3.1-1.3-3.1Z"/>
        <path class="cls-1" d="M71.4,104c-2.6-2.7-3.9-6.4-3.9-11.1s1.4-8.4,4.4-10.9c2.9-2.5,6.6-3.8,11.1-3.8,9.1,0,13.4,4.6,13.1,13.7h-16.9v2.3c0,3.9.5,6.9,1.5,8.9,1,2,2.7,3,5.2,3,4.6,0,7.7-2.5,9.1-7.4l1.1.2c-.8,2.9-2.1,5.1-4.1,6.7s-5,2.4-8.9,2.4-9-1.3-11.6-4ZM79.1,90.7h6.2v-2.9c0-3.2-.2-5.4-.6-6.6-.4-1.2-1.1-1.8-2.3-1.8s-2,.6-2.5,1.9c-.5,1.3-.8,3.4-.8,6.5v2.9Z"/>
        <path class="cls-1" d="M98.2,78.9h14.5v5.5c1.3-4.1,4.2-6.1,8.7-6.1s7.2,2.2,8.2,6.5c1.4-4.3,4.3-6.5,8.8-6.5s8.8,3.3,8.8,10v18.1h3.4v1.1h-16.6v-1.1h2.1v-19.5c0-3-.3-4.8-.8-5.3-.2-.2-.6-.4-1-.4-1.2,0-2.2.8-3.1,2.3-.9,1.6-1.3,3.5-1.3,5.9v16.9h2.2v1.1h-15.4v-1.1h2.1v-19.5c0-3-.3-4.8-.8-5.3-.2-.2-.6-.4-1-.4-1.1,0-2.1.9-3,2.5-.9,1.7-1.4,3.7-1.4,6.1v16.6h2.2v1.1h-16.6v-1.1h3.3v-26.4h-3.3v-1.1Z"/>
        <path class="cls-1" d="M165.8,93.3h1.7v-4.6c0-3.8-.2-6.3-.6-7.6-.4-1.3-1.2-1.9-2.4-1.9s-1.4.2-1.9.6c-.6.4-.9.9-.9,1.6s.1,1.3.4,2h1.5c.3.8.5,1.9.5,3s-.5,2.2-1.5,3.1c-1,.9-2.3,1.3-3.8,1.3-3.4,0-5.2-1.7-5.2-5,0-4.9,4.2-7.4,12.5-7.4s8,.8,9.9,2.4c1.8,1.6,2.7,4.6,2.7,8.9v12.2c0,2.1.6,3.1,1.7,3.1s2.2-2.1,2.4-6.2h.9c-.2,3.6-.8,6-2,7.3-1.2,1.3-3.1,2-5.7,2-4.8,0-7.6-1.5-8.3-4.4-.5,1.5-1.3,2.6-2.3,3.4-1,.7-2.6,1.1-4.6,1.1-5.9,0-8.9-2.4-8.9-7.3s1.1-4.8,3.4-5.8c2.3-1.1,5.7-1.6,10.4-1.6ZM163.8,104.7c.2.6.6.9,1.3.9s1.2-.5,1.7-1.5c.5-1,.8-2.4.8-4.2v-5.6h-.4c-2.5,0-3.7,1.8-3.7,5.5v1c0,2.1.1,3.4.3,4Z"/>
        <path class="cls-1" d="M185.8,108v-10.7h.7c1,3.5,2.4,5.9,4.2,7.3,1.8,1.4,4,2.1,6.6,2.1,4.1,0,6.1-1.3,6.1-3.9s-.5-2-1.5-2.5c-1.6-.9-3.6-1.6-6-2-2.7-.7-5-1.7-6.8-2.9-2.2-1.4-3.3-3.7-3.3-6.8s1-5.6,2.9-7.5c1.9-1.9,4.5-2.8,7.7-2.8s4,.5,6.1,1.4c.8.3,1.3.5,1.7.5s.7-.1,1-.4c.3-.3.6-.8,1-1.6h.7v9.2h-.7c-2-5.2-5.2-7.8-9.5-7.8s-3.3.3-4.2,1c-.9.7-1.4,1.5-1.4,2.5s.1,1.1.4,1.4c.3.3.5.6.7.8.2.2.4.3.8.5s.7.3.9.4c.2.1.6.2,1.1.4.5.2.9.3,1.1.3,2.7.7,4.7,1.3,5.9,1.8,1.2.5,2.3,1.1,3.4,1.8,2.2,1.5,3.3,4,3.3,7.4s-1,5.9-3,7.7c-2,1.7-4.7,2.6-8.2,2.6s-4.9-.6-7.2-1.7c-.5-.3-.9-.5-1.1-.5-.9,0-1.7.7-2.6,2.2h-.7Z"/>
        <path class="cls-1" d="M212.8,98.8v-18.9h-3.3v-1.1h3.3v-7.7l11.2-2.8v10.5h7.8v1.1h-7.8v20.2c0,1.9.2,3.3.6,4.1.4.9,1.2,1.3,2.4,1.3s2.2-.6,3.1-1.8c.9-1.2,1.5-2.8,1.8-4.9h1c-.3,2.9-1.2,5.1-2.6,6.7s-3.8,2.4-7.1,2.4-5.9-.7-7.6-2c-1.8-1.3-2.6-3.7-2.6-7.2Z"/>
        <path class="cls-1" d="M237.8,104.2c-2.6-2.6-3.8-6.2-3.8-11s1.4-8.5,4.1-11c2.7-2.6,6.6-3.9,11.5-3.9s8.7,1.2,11.1,3.6c2.4,2.4,3.7,6,3.7,10.9,0,10.2-5.1,15.3-15.2,15.3s-8.8-1.3-11.3-3.8ZM252.8,95.6v-5.1c0-3.9-.2-6.7-.6-8.5-.4-1.8-1.4-2.7-2.9-2.7s-1.6.3-2.1.8c-.5.5-.9,1.3-1.2,2.5-.4,1.8-.5,4.5-.5,8.2v4.7c0,4.4.1,7,.4,7.9.3.9.5,1.6.8,2.2.4,1,1.3,1.4,2.6,1.4s2.6-.9,3.1-2.7c.4-1.3.5-4.2.5-8.6Z"/>
      </g>
    </g>
  </g>
</svg>