<?xml version="1.0" encoding="UTF-8"?>
<svg xmlns="http://www.w3.org/2000/svg" version="1.1" viewBox="0 0 443 132.6">
  <defs>
    <style>
      .cls-1 {
        fill: #be5f25;
      }
    </style>
  </defs>
  <!-- Generator: Adobe Illustrator 28.7.1, SVG Export Plug-In . SVG Version: 1.2.0 Build 142)  -->
  <g>
    <g id="Layer_1">
      <g>
        <path class="cls-1" d="M18.1,43.1c1.3,2,3.5,2.9,6.8,2.9s5.8-1,7.6-3.1c1.8-2,2.6-5.1,2.6-9.3V6.6h-3.9v-1.1h8.8v1.1h-3.3v26.7c0,5-1.1,8.7-3.3,11.1-2.2,2.4-6.1,3.7-11.7,3.7s-9.8-1.2-12.8-3.5c-2.9-2.3-4.4-6.3-4.4-11.9V6.6H1.3v-1.1h18.9v1.1h-3.9v28.1c0,3.7.6,6.5,1.9,8.5Z"/>
        <path class="cls-1" d="M66.8,2.4v21c1.5-3.4,4.1-5.2,7.8-5.2,7.5,0,11.2,5,11.2,14.9s-1,8.8-3.1,11.2c-2.1,2.4-5.2,3.6-9.3,3.6s-3.7-.3-4.8-1c-1.1-.6-1.9-1.7-2.2-3.2l-.4,3.5h-13.7v-1.1h3.3V3.5h-3.3v-1.1h14.5ZM73.7,23c-.4-1.4-1.2-2.1-2.3-2.1s-2.2.7-3.1,2.2c-.9,1.4-1.4,3.4-1.4,5.9v11.2c0,1.7.3,3.2,1,4.4.7,1.2,1.7,1.8,3,1.8s2.2-.9,2.7-2.6c.5-1.8.7-4.8.7-9.2v-3.1c0-4.1-.2-6.9-.6-8.3Z"/>
        <path class="cls-1" d="M92,44.2c-2.6-2.6-3.8-6.2-3.8-11s1.4-8.5,4.1-11c2.7-2.6,6.6-3.9,11.6-3.9s8.7,1.2,11.1,3.6c2.4,2.4,3.7,6,3.7,10.9,0,10.2-5.1,15.3-15.2,15.3s-8.8-1.3-11.3-3.8ZM107,35.6v-5.1c0-3.9-.2-6.7-.6-8.5-.4-1.8-1.4-2.7-2.9-2.7s-1.6.3-2.1.8c-.5.5-.9,1.3-1.2,2.5-.4,1.8-.5,4.5-.5,8.2v4.7c0,4.4.1,7,.4,7.9.3.9.5,1.6.8,2.2.4,1,1.3,1.4,2.6,1.4s2.6-.9,3.1-2.7c.4-1.3.5-4.2.5-8.6Z"/>
        <path class="cls-1" d="M140.3,20.5c-1.5,0-2.8,1-3.9,2.9-1.1,1.9-1.7,4.2-1.7,6.8v16.1h4.3v1.1h-18.7v-1.1h3.3v-26.4h-3.3v-1.1h14.5v5.8c.5-2,1.5-3.6,3-4.7,1.5-1.1,3.2-1.7,5-1.7s3.4.5,4.6,1.6c1.2,1.1,1.8,2.6,1.8,4.5s-.4,3.4-1.3,4.5c-.9,1-2.2,1.6-4.1,1.6s-3.2-.6-4-1.8c-.9-1.2-1-2.9-.3-5h2.2c1-2,.6-3.1-1.3-3.1Z"/>
        <path class="cls-1" d="M163.8,2.4v21c1.5-3.4,4.1-5.2,7.8-5.2,7.5,0,11.2,5,11.2,14.9s-1,8.8-3.1,11.2c-2.1,2.4-5.2,3.6-9.3,3.6s-3.7-.3-4.8-1c-1.1-.6-1.9-1.7-2.2-3.2l-.4,3.5h-13.7v-1.1h3.3V3.5h-3.3v-1.1h14.5ZM170.6,23c-.4-1.4-1.2-2.1-2.3-2.1s-2.2.7-3.1,2.2c-.9,1.4-1.4,3.4-1.4,5.9v11.2c0,1.7.4,3.2,1.1,4.4.7,1.2,1.7,1.8,3,1.8s2.2-.9,2.7-2.6c.5-1.8.7-4.8.7-9.2v-3.1c0-4.1-.2-6.9-.6-8.3Z"/>
        <path class="cls-1" d="M184.4,18.9h14.7v27.5h3.4v1.1h-17.8v-1.1h3.3v-26.4h-3.5v-1.1ZM193.4,14.7c-2.1,0-3.6-.5-4.5-1.6-.9-1.1-1.3-2.4-1.3-4s.5-2.9,1.5-4c1-1,2.5-1.6,4.5-1.6s3.5.5,4.6,1.4c1,.9,1.6,2.3,1.6,4s-.5,3.1-1.5,4.2c-1,1-2.6,1.6-4.7,1.6Z"/>
        <path class="cls-1" d="M228.8,18.9v4.7c1.6-3.6,4.3-5.3,8.3-5.3s6.1,1.2,8,3.7c1.9,2.5,2.8,6.2,2.8,11.3s-1,8.8-3.1,11.2c-2.1,2.4-5.2,3.6-9.3,3.6s-3.4-.2-4.3-.7-1.7-1.2-2.3-2.2v15.5h7.7v1.1h-22.2v-1.1h3.3V19.9h-3.2v-1.1h14.2ZM235.7,23c-.4-1.4-1.2-2.1-2.3-2.1s-2.2.8-3.1,2.2c-.9,1.5-1.4,3.5-1.4,6v11c0,1.7.3,3.2,1,4.4.7,1.2,1.7,1.8,3,1.8s2.2-.9,2.7-2.6c.5-1.8.7-4.8.7-9.2v-3.1c0-4.1-.2-6.9-.6-8.3Z"/>
        <path class="cls-1" d="M269.8,20.5c-1.5,0-2.8,1-3.9,2.9-1.1,1.9-1.7,4.2-1.7,6.8v16.1h4.3v1.1h-18.7v-1.1h3.3v-26.4h-3.3v-1.1h14.5v5.8c.5-2,1.5-3.6,3-4.7,1.5-1.1,3.2-1.7,5-1.7s3.4.5,4.6,1.6c1.2,1.1,1.8,2.6,1.8,4.5s-.4,3.4-1.3,4.5c-.9,1-2.2,1.6-4,1.6s-3.2-.6-4-1.8c-.9-1.2-1-2.9-.3-5h2.2c1-2,.6-3.1-1.3-3.1Z"/>
        <path class="cls-1" d="M283.4,44.2c-2.6-2.6-3.8-6.2-3.8-11s1.4-8.5,4.1-11c2.7-2.6,6.6-3.9,11.5-3.9s8.7,1.2,11.1,3.6c2.4,2.4,3.7,6,3.7,10.9,0,10.2-5.1,15.3-15.2,15.3s-8.8-1.3-11.3-3.8ZM298.5,35.6v-5.1c0-3.9-.2-6.7-.6-8.5-.4-1.8-1.4-2.7-2.9-2.7s-1.6.3-2.1.8c-.5.5-.9,1.3-1.2,2.5-.4,1.8-.5,4.5-.5,8.2v4.7c0,4.4.1,7,.4,7.9.3.9.5,1.6.8,2.2.4,1,1.3,1.4,2.6,1.4s2.6-.9,3.1-2.7c.4-1.3.5-4.2.5-8.6Z"/>
        <path class="cls-1" d="M314.7,38.8v-18.9h-3.3v-1.1h3.3v-7.7l11.2-2.8v10.5h7.8v1.1h-7.8v20.2c0,1.9.2,3.3.6,4.1.4.9,1.2,1.3,2.4,1.3s2.2-.6,3.1-1.8c.9-1.2,1.5-2.8,1.8-4.9h1c-.3,2.9-1.2,5.1-2.6,6.7s-3.8,2.4-7.1,2.4-5.9-.7-7.6-2c-1.8-1.3-2.6-3.7-2.6-7.2Z"/>
        <path class="cls-1" d="M335.1,18.9h14.7v27.5h3.4v1.1h-17.8v-1.1h3.3v-26.4h-3.5v-1.1ZM344.2,14.7c-2.1,0-3.6-.5-4.5-1.6-.9-1.1-1.3-2.4-1.3-4s.5-2.9,1.5-4c1-1,2.5-1.6,4.5-1.6s3.5.5,4.6,1.4c1,.9,1.6,2.3,1.6,4s-.5,3.1-1.5,4.2c-1,1-2.6,1.6-4.7,1.6Z"/>
        <path class="cls-1" d="M352,19.9v-1.1h17.9v1.1h-3.8l7.2,19.9,6.5-19.9h-4v-1.1h8.1v1.1h-2.6l-8.9,27.5h-6.8l-11.1-27.5h-2.5Z"/>
        <path class="cls-1" d="M3.6,98.8v-18.9H.3v-1.1h3.3v-7.7l11.2-2.8v10.5h7.8v1.1h-7.8v20.2c0,1.9.2,3.3.6,4.1.4.9,1.2,1.3,2.4,1.3s2.2-.6,3.1-1.8c.9-1.2,1.5-2.8,1.8-4.9h1c-.3,2.9-1.2,5.1-2.6,6.7s-3.8,2.4-7.1,2.4-5.9-.7-7.6-2c-1.8-1.3-2.6-3.7-2.6-7.2Z"/>
        <path class="cls-1" d="M38.6,93.3h1.7v-4.6c0-3.8-.2-6.3-.6-7.6s-1.2-2-2.4-2-1.4.2-2,.6c-.6.4-.9.9-.9,1.6s.1,1.3.4,2h1.5c.3.8.5,1.9.5,3s-.5,2.2-1.5,3.1c-1,.9-2.3,1.3-3.8,1.3-3.4,0-5.2-1.7-5.2-5,0-4.9,4.2-7.4,12.5-7.4s8,.8,9.9,2.4c1.8,1.6,2.7,4.6,2.7,8.9v12.2c0,2.1.6,3.1,1.7,3.1s2.2-2.1,2.4-6.2h.9c-.2,3.6-.8,6-2,7.3-1.2,1.3-3.1,2-5.7,2-4.8,0-7.6-1.5-8.3-4.4-.5,1.5-1.3,2.6-2.3,3.4-1,.7-2.6,1.1-4.6,1.1-5.9,0-8.9-2.4-8.9-7.3s1.1-4.8,3.4-5.8c2.3-1.1,5.7-1.6,10.4-1.6ZM36.6,104.7c.2.6.6.9,1.3.9s1.2-.5,1.7-1.5c.5-1,.8-2.4.8-4.2v-5.6h-.4c-2.5,0-3.7,1.8-3.7,5.5v1c0,2.1.1,3.4.3,4Z"/>
        <path class="cls-1" d="M57.2,78.9h14.5v5.5c1.3-4.1,4.2-6.1,8.7-6.1s7.2,2.2,8.2,6.5c1.4-4.3,4.3-6.5,8.8-6.5s8.8,3.3,8.8,10v18.1h3.4v1.1h-16.6v-1.1h2.1v-19.5c0-3-.3-4.8-.8-5.3-.2-.2-.6-.4-1-.4-1.2,0-2.2.8-3.1,2.3-.9,1.6-1.3,3.5-1.3,5.9v16.9h2.2v1.1h-15.4v-1.1h2.1v-19.5c0-3-.3-4.8-.8-5.3-.2-.2-.6-.4-1-.4-1.1,0-2.1.9-3,2.5-.9,1.7-1.4,3.7-1.4,6.1v16.6h2.2v1.1h-16.6v-1.1h3.3v-26.4h-3.3v-1.1Z"/>
        <path class="cls-1" d="M110.6,78.9h14.5v5.5c.6-1.8,1.6-3.3,2.9-4.4,1.3-1.1,3.3-1.7,6-1.7,6.2,0,9.3,3.3,9.3,10v18.1h3.4v1.1h-17v-1.1h2.5v-19.5c0-2.4-.2-4-.5-4.7-.3-.7-.9-1-1.7-1-1.3,0-2.4.8-3.4,2.5-1,1.7-1.5,3.7-1.5,6.1v16.6h2.6v1.1h-17v-1.1h3.3v-26.4h-3.3v-1.1Z"/>
        <path class="cls-1" d="M147.2,78.9h14.7v27.5h3.4v1.1h-17.8v-1.1h3.3v-26.4h-3.5v-1.1ZM156.2,74.7c-2.1,0-3.6-.5-4.5-1.6-.9-1.1-1.4-2.4-1.4-4s.5-2.9,1.5-4c1-1,2.5-1.6,4.5-1.6s3.5.5,4.6,1.4c1,.9,1.6,2.3,1.6,4s-.5,3.1-1.5,4.2c-1,1-2.6,1.6-4.7,1.6Z"/>
        <path class="cls-1" d="M166.4,62.4h14.5v22c.6-1.8,1.6-3.3,2.9-4.4,1.3-1.1,3.3-1.7,6-1.7,6.2,0,9.3,3.3,9.3,10v18.1h3.4v1.1h-17v-1.1h2.5v-19.5c0-2.4-.2-4-.5-4.7-.3-.7-.9-1-1.7-1-1.3,0-2.4.8-3.4,2.5-1,1.7-1.5,3.7-1.5,6.1v16.6h2.6v1.1h-17v-1.1h3.3v-42.8h-3.3v-1.1Z"/>
        <path class="cls-1" d="M214.2,78.9h14.5v5.5c1.3-4.1,4.2-6.1,8.7-6.1s7.2,2.2,8.2,6.5c1.4-4.3,4.3-6.5,8.8-6.5s8.8,3.3,8.8,10v18.1h3.4v1.1h-16.6v-1.1h2.1v-19.5c0-3-.3-4.8-.8-5.3-.2-.2-.6-.4-1-.4-1.2,0-2.2.8-3.1,2.3-.9,1.6-1.3,3.5-1.3,5.9v16.9h2.2v1.1h-15.4v-1.1h2.1v-19.5c0-3-.3-4.8-.8-5.3-.2-.2-.6-.4-1-.4-1.1,0-2.1.9-3,2.5-.9,1.7-1.4,3.7-1.4,6.1v16.6h2.2v1.1h-16.6v-1.1h3.3v-26.4h-3.3v-1.1Z"/>
        <path class="cls-1" d="M287.5,80.5c-1.5,0-2.8,1-3.9,2.9-1.1,1.9-1.7,4.2-1.7,6.8v16.1h4.3v1.1h-18.7v-1.1h3.3v-26.4h-3.3v-1.1h14.5v5.8c.5-2,1.5-3.6,3-4.7s3.2-1.7,5-1.7,3.4.5,4.6,1.6c1.2,1.1,1.8,2.6,1.8,4.5s-.4,3.4-1.3,4.5c-.9,1-2.2,1.6-4,1.6s-3.2-.6-4-1.8c-.9-1.2-1-2.9-.3-5h2.2c1-2,.6-3.1-1.3-3.1Z"/>
        <path class="cls-1" d="M296.3,62.4h14.7v43.9h3.4v1.1h-17.8v-1.1h3.3v-42.8h-3.5v-1.1Z"/>
        <path class="cls-1" d="M330,78.9v23.4c0,6.6-1.1,11.6-3.4,15-2.3,3.4-6,5.2-11.1,5.2s-5.7-.7-7.3-2c-1.5-1.3-2.3-2.9-2.3-4.6s.5-3.1,1.6-4c1-.9,2.3-1.4,3.9-1.4s2.7.4,3.5,1.3c.8.9,1.2,1.8,1.2,2.9s-.1,2-.4,3h-2.3c-.6,1.1-.7,2-.3,2.8.5.8,1.3,1.1,2.5,1.1s2-.7,2.5-2.1c.4-1.4.7-4.2.7-8.6v-30.8h-3.9v-1.1h15.1ZM324.3,74.7c-2.1,0-3.6-.5-4.5-1.6-.9-1.1-1.3-2.4-1.3-4s.5-2.9,1.5-4c1-1,2.5-1.6,4.5-1.6s3.5.5,4.6,1.4c1,.9,1.6,2.3,1.6,4s-.5,3.1-1.5,4.2c-1,1-2.6,1.6-4.7,1.6Z"/>
        <path class="cls-1" d="M348.6,93.3h1.7v-4.6c0-3.8-.2-6.3-.6-7.6s-1.2-2-2.4-2-1.4.2-1.9.6c-.6.4-.9.9-.9,1.6s.1,1.3.4,2h1.5c.3.8.5,1.9.5,3s-.5,2.2-1.5,3.1c-1,.9-2.3,1.3-3.8,1.3-3.4,0-5.2-1.7-5.2-5,0-4.9,4.2-7.4,12.5-7.4s8,.8,9.9,2.4c1.8,1.6,2.7,4.6,2.7,8.9v12.2c0,2.1.6,3.1,1.7,3.1s2.2-2.1,2.4-6.2h.9c-.2,3.6-.8,6-2,7.3-1.2,1.3-3.1,2-5.7,2-4.8,0-7.6-1.5-8.3-4.4-.5,1.5-1.3,2.6-2.3,3.4-1,.7-2.6,1.1-4.6,1.1-5.9,0-8.9-2.4-8.9-7.3s1.1-4.8,3.4-5.8,5.7-1.6,10.4-1.6ZM346.5,104.7c.2.6.6.9,1.3.9s1.2-.5,1.7-1.5c.5-1,.8-2.4.8-4.2v-5.6h-.4c-2.5,0-3.7,1.8-3.7,5.5v1c0,2.1.1,3.4.3,4Z"/>
      </g>
    </g>
  </g>
</svg>