<?xml version="1.0" encoding="UTF-8"?>
<svg xmlns="http://www.w3.org/2000/svg" version="1.1" viewBox="0 0 443 246.9">
  <defs>
    <style>
      .cls-1 {
        fill: #be5f25;
      }
    </style>
  </defs>
  <!-- Generator: Adobe Illustrator 28.7.1, SVG Export Plug-In . SVG Version: 1.2.0 Build 142)  -->
  <g>
    <g id="Layer_1">
      <g>
        <path class="cls-1" d="M20.5,45.3c1.3,2,3.5,2.9,6.8,2.9s5.8-1,7.6-3.1c1.8-2,2.6-5.1,2.6-9.3V8.8h-3.9v-1.1h8.8v1.1h-3.3v26.7c0,5-1.1,8.7-3.3,11.1-2.2,2.4-6.1,3.7-11.7,3.7s-9.8-1.2-12.8-3.5c-2.9-2.3-4.4-6.3-4.4-11.9V8.8h-3.3v-1.1h18.9v1.1h-3.9v28.1c0,3.7.6,6.5,1.9,8.5Z"/>
        <path class="cls-1" d="M43.3,21.1h14.5v5.5c1.3-4.1,4.2-6.1,8.7-6.1s7.2,2.2,8.2,6.5c1.4-4.3,4.3-6.5,8.8-6.5s8.8,3.3,8.8,10v18.1h3.4v1.1h-16.6v-1.1h2.1v-19.5c0-3-.3-4.8-.8-5.3-.2-.2-.6-.4-1-.4-1.2,0-2.2.8-3.1,2.3-.9,1.6-1.3,3.5-1.3,5.9v16.9h2.2v1.1h-15.4v-1.1h2.1v-19.5c0-3-.3-4.8-.8-5.3-.2-.2-.6-.4-1-.4-1.1,0-2.1.9-3,2.5-.9,1.7-1.4,3.7-1.4,6.1v16.6h2.2v1.1h-16.6v-1.1h3.3v-26.4h-3.3v-1.1Z"/>
        <path class="cls-1" d="M96.3,21.1h14.7v27.5h3.4v1.1h-17.8v-1.1h3.3v-26.4h-3.5v-1.1ZM105.4,16.9c-2.1,0-3.6-.5-4.5-1.6-.9-1.1-1.4-2.4-1.4-4s.5-2.9,1.5-4c1-1,2.5-1.6,4.5-1.6s3.5.5,4.6,1.4c1,.9,1.6,2.3,1.6,4s-.5,3.1-1.5,4.2c-1,1-2.6,1.6-4.7,1.6Z"/>
        <path class="cls-1" d="M135.6,22.8c-1.5,0-2.8,1-3.9,2.9-1.1,1.9-1.7,4.2-1.7,6.8v16.1h4.3v1.1h-18.7v-1.1h3.3v-26.4h-3.3v-1.1h14.5v5.8c.5-2,1.5-3.6,3-4.7,1.5-1.1,3.2-1.7,5-1.7s3.4.5,4.6,1.6c1.2,1.1,1.8,2.6,1.8,4.5s-.4,3.4-1.3,4.5c-.9,1-2.2,1.6-4.1,1.6s-3.2-.6-4-1.8c-.9-1.2-1-2.9-.3-5h2.2c1-2,.6-3.1-1.3-3.1Z"/>
        <path class="cls-1" d="M180.1,49.7h-13.7l-.7-4.4c-.6,1.6-1.6,2.8-2.9,3.7s-3.1,1.3-5.6,1.3c-6.2,0-9.3-3.3-9.3-10v-18.1h-3.4v-1.1h14.5v20.6c0,2.4.2,4,.5,4.7.3.8,1,1.1,2,1.1s1.9-.6,2.7-1.9c.8-1.2,1.2-3,1.2-5.2v-18.4h-2.8v-1.1h13.9v27.5h3.3v1.1Z"/>
        <path class="cls-1" d="M195.7,21.1v23.4c0,6.6-1.1,11.6-3.4,15-2.3,3.4-6,5.2-11.1,5.2s-5.7-.7-7.3-2c-1.5-1.3-2.3-2.9-2.3-4.6s.5-3.1,1.6-4c1-.9,2.3-1.4,3.9-1.4s2.7.4,3.5,1.3c.8.9,1.2,1.8,1.2,2.9s-.1,2-.4,3h-2.3c-.6,1.1-.7,2-.3,2.8.5.8,1.3,1.1,2.5,1.1s2-.7,2.5-2.1c.4-1.4.7-4.2.7-8.6v-30.8h-3.9v-1.1h15.1ZM190,16.9c-2.1,0-3.6-.5-4.5-1.6-.9-1.1-1.3-2.4-1.3-4s.5-2.9,1.5-4c1-1,2.5-1.6,4.5-1.6s3.5.5,4.6,1.4c1,.9,1.6,2.3,1.6,4s-.5,3.1-1.5,4.2c-1,1-2.6,1.6-4.7,1.6Z"/>
        <path class="cls-1" d="M235,49.7h-13.7l-.7-4.4c-.6,1.6-1.6,2.8-2.9,3.7s-3.1,1.3-5.6,1.3c-6.2,0-9.3-3.3-9.3-10v-18.1h-3.4v-1.1h14.5v20.6c0,2.4.2,4,.5,4.7.3.8,1,1.1,2,1.1s1.9-.6,2.7-1.9c.8-1.2,1.2-3,1.2-5.2v-18.4h-2.8v-1.1h13.9v27.5h3.3v1.1Z"/>
        <path class="cls-1" d="M253,21.6c-1.8,0-3,1-3.8,2.9-.8,1.9-1.1,5.1-1.1,9.5v3.1c0,4,.4,6.8,1.3,8.5.9,1.7,2.5,2.6,4.9,2.6s4.2-.8,5.6-2.4c1.4-1.6,2.3-3.4,2.7-5.5h1.1c-.8,3.6-2.2,6-4.2,7.6-2.1,1.6-4.9,2.3-8.6,2.3s-8.2-1.2-10.7-3.8c-2.5-2.5-3.7-6.2-3.7-11s1.4-8.5,4.2-11.1c2.8-2.6,6.8-3.9,11.8-3.9s6.3.7,8.2,2.1c1.9,1.4,2.8,3.1,2.8,5.2s-.5,3.6-1.4,4.6c-.9,1-2.1,1.4-3.7,1.4s-2.8-.4-3.8-1.3c-1-.8-1.4-2.1-1.4-3.7s0-1.4.3-2.2h2c.3-.8.4-1.5.4-2.2,0-1.9-1-2.9-2.9-2.9ZM247.3,16.8l3.8-11.5,2.8-.6c1.2-.3,2.2-.1,2.8.4.7.6,1,1.4,1,2.3s-.6,2-1.7,3l-8,6.7-.7-.4Z"/>
        <path class="cls-1" d="M265,21.1h14.7v27.5h3.4v1.1h-17.8v-1.1h3.3v-26.4h-3.5v-1.1ZM274,16.9c-2.1,0-3.6-.5-4.5-1.6-.9-1.1-1.3-2.4-1.3-4s.5-2.9,1.5-4c1-1,2.5-1.6,4.5-1.6s3.5.5,4.6,1.4c1,.9,1.6,2.3,1.6,4s-.5,3.1-1.5,4.2c-1,1-2.6,1.6-4.7,1.6Z"/>
        <path class="cls-1" d="M296.4,50.3v-10.7h.7c1,3.5,2.4,5.9,4.2,7.3,1.8,1.4,4,2.1,6.6,2.1,4.1,0,6.1-1.3,6.1-3.9s-.5-2-1.5-2.5c-1.6-.9-3.6-1.6-6-2-2.7-.7-5-1.7-6.8-2.9-2.2-1.4-3.3-3.7-3.3-6.8s1-5.6,2.9-7.5c1.9-1.9,4.5-2.8,7.7-2.8s4,.5,6.1,1.4c.8.3,1.3.5,1.7.5s.7-.1,1-.4c.3-.3.6-.8,1-1.6h.7v9.2h-.7c-2-5.2-5.2-7.8-9.5-7.8s-3.3.3-4.2,1c-.9.7-1.4,1.5-1.4,2.5s.1,1.1.4,1.4c.3.3.5.6.7.8.2.2.4.3.8.5s.7.3.9.4c.2.1.6.2,1.1.4.5.2.9.3,1.1.3,2.7.7,4.7,1.3,5.9,1.8,1.2.5,2.3,1.1,3.4,1.8,2.2,1.5,3.3,4,3.3,7.4s-1,5.9-3,7.7c-2,1.7-4.7,2.6-8.2,2.6s-4.9-.6-7.2-1.7c-.5-.3-.9-.5-1.1-.5-.9,0-1.7.7-2.6,2.2h-.7Z"/>
        <path class="cls-1" d="M335,21.1v4.7c1.6-3.6,4.3-5.3,8.3-5.3s6.1,1.2,8,3.7c1.9,2.5,2.8,6.2,2.8,11.3s-1,8.8-3.1,11.2c-2.1,2.4-5.2,3.6-9.3,3.6s-3.4-.2-4.3-.7-1.7-1.2-2.3-2.2v15.5h7.7v1.1h-22.2v-1.1h3.3V22.2h-3.2v-1.1h14.2ZM342,25.2c-.4-1.4-1.2-2.1-2.3-2.1s-2.2.8-3.1,2.2c-.9,1.5-1.4,3.5-1.4,6v11c0,1.7.3,3.2,1,4.4.7,1.2,1.7,1.8,3,1.8s2.2-.9,2.7-2.6c.5-1.8.7-4.8.7-9.2v-3.1c0-4.1-.2-6.9-.6-8.3Z"/>
        <path class="cls-1" d="M376,22.8c-1.5,0-2.8,1-3.9,2.9-1.1,1.9-1.7,4.2-1.7,6.8v16.1h4.3v1.1h-18.7v-1.1h3.3v-26.4h-3.3v-1.1h14.5v5.8c.5-2,1.5-3.6,3-4.7,1.5-1.1,3.2-1.7,5-1.7s3.4.5,4.6,1.6c1.2,1.1,1.8,2.6,1.8,4.5s-.4,3.4-1.3,4.5c-.9,1-2.2,1.6-4,1.6s-3.2-.6-4-1.8c-.9-1.2-1-2.9-.3-5h2.2c1-2,.6-3.1-1.3-3.1Z"/>
        <path class="cls-1" d="M389.5,46.3c-2.6-2.7-3.9-6.4-3.9-11.1s1.4-8.4,4.3-10.9c2.9-2.5,6.6-3.8,11.1-3.8,9.1,0,13.4,4.6,13.1,13.7h-16.9v2.3c0,3.9.5,6.9,1.5,8.9,1,2,2.7,3,5.2,3,4.6,0,7.7-2.5,9.1-7.4l1.1.2c-.8,2.9-2.1,5.1-4.1,6.7-2,1.6-5,2.4-8.9,2.4s-9-1.3-11.6-4ZM397.3,33h6.2v-2.9c0-3.2-.2-5.4-.6-6.6-.4-1.2-1.1-1.8-2.3-1.8s-2,.6-2.5,1.9c-.5,1.3-.8,3.4-.8,6.5v2.9Z"/>
        <path class="cls-1" d="M430.8,21.1v23.4c0,6.6-1.1,11.6-3.4,15-2.3,3.4-6,5.2-11.1,5.2s-5.7-.7-7.3-2c-1.5-1.3-2.3-2.9-2.3-4.6s.5-3.1,1.6-4c1-.9,2.3-1.4,3.9-1.4s2.7.4,3.5,1.3c.8.9,1.2,1.8,1.2,2.9s-.1,2-.4,3h-2.3c-.6,1.1-.7,2-.3,2.8.5.8,1.3,1.1,2.5,1.1s2-.7,2.5-2.1c.4-1.4.7-4.2.7-8.6v-30.8h-3.9v-1.1h15.1ZM425.1,16.9c-2.1,0-3.6-.5-4.5-1.6-.9-1.1-1.3-2.4-1.3-4s.5-2.9,1.5-4c1-1,2.5-1.6,4.5-1.6s3.5.5,4.6,1.4c1,.9,1.6,2.3,1.6,4s-.5,3.1-1.5,4.2c-1,1-2.6,1.6-4.7,1.6Z"/>
        <path class="cls-1" d="M30.8,81.1v1.1l-14.2,26.4h.8c3.4,0,6-.9,7.9-2.6,1.9-1.8,3.4-4.6,4.5-8.6h.8l-1,12.3H4.5v-.9l14.5-26.6h-.7c-4,0-6.9.7-8.4,2-1.6,1.3-3,4.1-4.2,8.5h-.8l.8-11.5h25.2Z"/>
        <path class="cls-1" d="M47.3,95.6h1.7v-4.6c0-3.8-.2-6.3-.6-7.6-.4-1.3-1.2-1.9-2.4-1.9s-1.4.2-2,.6c-.6.4-.9.9-.9,1.6s.1,1.3.4,2h1.5c.3.8.5,1.9.5,3s-.5,2.2-1.5,3.1c-1,.9-2.3,1.3-3.8,1.3-3.4,0-5.2-1.7-5.2-5,0-4.9,4.2-7.4,12.5-7.4s8,.8,9.9,2.4c1.8,1.6,2.7,4.6,2.7,8.9v12.2c0,2.1.6,3.1,1.7,3.1s2.2-2.1,2.4-6.2h.9c-.2,3.6-.8,6-2,7.3-1.2,1.3-3.1,2-5.7,2-4.8,0-7.6-1.5-8.3-4.4-.5,1.5-1.3,2.6-2.3,3.4-1,.7-2.6,1.1-4.6,1.1-5.9,0-8.9-2.4-8.9-7.3s1.1-4.8,3.4-5.9c2.3-1.1,5.7-1.6,10.4-1.6ZM45.2,106.9c.2.6.6.9,1.3.9s1.2-.5,1.7-1.5c.5-1,.8-2.4.8-4.2v-5.6h-.4c-2.5,0-3.7,1.8-3.7,5.5v1c0,2.1.1,3.4.3,4Z"/>
        <path class="cls-1" d="M79.6,101.1v-18.9h-3.3v-1.1h3.3v-7.7l11.2-2.8v10.5h7.8v1.1h-7.8v20.2c0,1.9.2,3.3.6,4.1.4.9,1.2,1.3,2.4,1.3s2.2-.6,3.1-1.8,1.5-2.8,1.8-4.9h1c-.3,2.9-1.2,5.1-2.6,6.7-1.4,1.6-3.8,2.4-7.1,2.4s-5.9-.7-7.6-2c-1.8-1.3-2.6-3.7-2.6-7.2Z"/>
        <path class="cls-1" d="M120.3,82.8c-1.5,0-2.8,1-3.9,2.9-1.1,1.9-1.7,4.2-1.7,6.8v16.1h4.3v1.1h-18.7v-1.1h3.3v-26.4h-3.3v-1.1h14.5v5.8c.5-2,1.5-3.6,3-4.7,1.5-1.1,3.2-1.7,5-1.7s3.4.5,4.6,1.6c1.2,1.1,1.8,2.6,1.8,4.5s-.4,3.4-1.3,4.5c-.9,1-2.2,1.6-4.1,1.6s-3.2-.6-4-1.8c-.9-1.2-1-2.9-.3-5h2.2c1-2,.6-3.1-1.3-3.1Z"/>
        <path class="cls-1" d="M133.8,106.3c-2.6-2.7-3.9-6.4-3.9-11.1s1.4-8.4,4.4-10.9c2.9-2.5,6.6-3.8,11.1-3.8,9.1,0,13.4,4.6,13.1,13.7h-16.9v2.3c0,3.9.5,6.9,1.5,8.9,1,2,2.7,3,5.2,3,4.6,0,7.7-2.5,9.1-7.4l1.1.2c-.8,2.9-2.1,5.1-4.1,6.7-2,1.6-5,2.4-8.9,2.4s-9-1.3-11.6-4ZM141.6,93h6.2v-2.9c0-3.2-.2-5.4-.6-6.6-.4-1.2-1.1-1.8-2.3-1.8s-2,.6-2.5,1.9c-.5,1.3-.8,3.4-.8,6.5v2.9Z"/>
        <path class="cls-1" d="M160.8,81.1h14.5v5.5c.6-1.8,1.6-3.3,2.9-4.4,1.3-1.1,3.3-1.7,6-1.7,6.2,0,9.3,3.3,9.3,10v18.1h3.4v1.1h-17v-1.1h2.5v-19.5c0-2.4-.2-3.9-.5-4.6-.3-.7-.9-1-1.7-1-1.3,0-2.4.8-3.4,2.5-1,1.7-1.5,3.7-1.5,6.1v16.6h2.6v1.1h-17v-1.1h3.3v-26.4h-3.3v-1.1Z"/>
        <path class="cls-1" d="M231.5,109.7h-13.7l-.7-4.4c-.6,1.6-1.6,2.8-2.9,3.7s-3.1,1.3-5.6,1.3c-6.2,0-9.3-3.3-9.3-10v-18.1h-3.4v-1.1h14.5v20.6c0,2.4.2,4,.5,4.7s1,1.1,2,1.1,1.9-.6,2.7-1.9c.8-1.2,1.2-3,1.2-5.2v-18.4h-2.8v-1.1h13.9v27.5h3.3v1.1Z"/>
        <path class="cls-1" d="M235.7,101.1v-18.9h-3.3v-1.1h3.3v-7.7l11.2-2.8v10.5h7.8v1.1h-7.8v20.2c0,1.9.2,3.3.6,4.1.4.9,1.2,1.3,2.4,1.3s2.2-.6,3.1-1.8c.9-1.2,1.5-2.8,1.8-4.9h1c-.3,2.9-1.2,5.1-2.6,6.7-1.4,1.6-3.8,2.4-7.1,2.4s-5.9-.7-7.6-2c-1.8-1.3-2.6-3.7-2.6-7.2Z"/>
        <path class="cls-1" d="M256.5,81.1h14.5v5.5c.6-1.8,1.6-3.3,2.9-4.4,1.3-1.1,3.3-1.7,6-1.7,6.2,0,9.3,3.3,9.3,10v18.1h3.4v1.1h-17v-1.1h2.5v-19.5c0-2.4-.2-3.9-.5-4.6-.3-.7-.9-1-1.7-1-1.3,0-2.4.8-3.4,2.5-1,1.7-1.5,3.7-1.5,6.1v16.6h2.6v1.1h-17v-1.1h3.3v-26.4h-3.3v-1.1Z"/>
        <path class="cls-1" d="M327.2,109.7h-13.7l-.7-4.4c-.6,1.6-1.6,2.8-2.9,3.7s-3.1,1.3-5.6,1.3c-6.2,0-9.3-3.3-9.3-10v-18.1h-3.4v-1.1h14.5v20.6c0,2.4.2,4,.5,4.7s1,1.1,2,1.1,1.9-.6,2.7-1.9c.8-1.2,1.2-3,1.2-5.2v-18.4h-2.8v-1.1h13.9v27.5h3.3v1.1Z"/>
        <path class="cls-1" d="M38,169.7h-13.7l-.7-4.4c-.6,1.6-1.6,2.8-2.9,3.7-1.3.9-3.1,1.3-5.6,1.3-6.2,0-9.3-3.3-9.3-10v-18.1h-3.4v-1.1h14.5v20.6c0,2.4.2,4,.5,4.7.3.8,1,1.1,2,1.1s1.9-.6,2.7-1.9c.8-1.2,1.2-3,1.2-5.2v-18.4h-2.8v-1.1h13.9v27.5h3.3v1.1Z"/>
        <path class="cls-1" d="M59.6,169.7l-.7-4.2c-1.4,3.2-4.1,4.8-8.3,4.8s-6.1-1.2-8-3.7c-1.9-2.5-2.8-6.2-2.8-11.1,0-10,4-14.9,11.9-14.9s5.8,1,7,2.9v-17.7h-3.7v-1.1h15v43.9h2.9v1.1h-13.3ZM52,165.6c.4,1.4,1.2,2.1,2.4,2.1s2.2-.5,3.1-1.6c.9-1,1.3-2.6,1.3-4.6v-13.1c0-1.7-.3-3.2-1-4.4-.7-1.2-1.7-1.8-3-1.8s-2.2.9-2.7,2.6c-.5,1.8-.7,4.8-.7,9.2v3.1c0,4.2.2,7,.7,8.4Z"/>
        <path class="cls-1" d="M78.8,166.4c-2.6-2.6-3.8-6.2-3.8-11s1.4-8.5,4.1-11c2.7-2.6,6.6-3.9,11.6-3.9s8.7,1.2,11.1,3.6c2.4,2.4,3.7,6,3.7,10.9,0,10.2-5.1,15.3-15.2,15.3s-8.8-1.3-11.3-3.8ZM93.9,157.8v-5.1c0-3.9-.2-6.7-.6-8.5s-1.4-2.7-2.9-2.7-1.6.2-2.1.8-.9,1.3-1.2,2.5c-.4,1.8-.5,4.5-.5,8.2v4.7c0,4.4.1,7,.4,7.9.3.9.5,1.6.8,2.2.4,1,1.3,1.4,2.6,1.4s2.6-.9,3.1-2.7c.4-1.3.5-4.2.5-8.6Z"/>
        <path class="cls-1" d="M121.5,124.7v21c1.5-3.4,4.1-5.2,7.8-5.2,7.5,0,11.2,5,11.2,14.9s-1,8.8-3.1,11.2c-2.1,2.4-5.2,3.6-9.3,3.6s-3.7-.3-4.8-1c-1.1-.6-1.9-1.7-2.2-3.2l-.4,3.5h-13.7v-1.1h3.3v-42.8h-3.3v-1.1h14.5ZM128.4,145.2c-.4-1.4-1.2-2.1-2.3-2.1s-2.2.7-3.1,2.2c-.9,1.4-1.4,3.4-1.4,5.9v11.2c0,1.7.3,3.2,1,4.4.7,1.2,1.7,1.8,3,1.8s2.2-.9,2.7-2.6c.5-1.8.7-4.8.7-9.2v-3.1c0-4.1-.2-6.9-.6-8.3Z"/>
        <path class="cls-1" d="M142.5,141.1h14.5v5.5c.6-1.8,1.6-3.3,2.9-4.4,1.3-1.1,3.3-1.7,6-1.7,6.2,0,9.3,3.3,9.3,10v18.1h3.4v1.1h-17v-1.1h2.5v-19.5c0-2.4-.2-4-.5-4.7-.3-.7-.9-1-1.7-1-1.3,0-2.4.8-3.4,2.5-1,1.7-1.5,3.7-1.5,6.1v16.6h2.6v1.1h-17v-1.1h3.3v-26.4h-3.3v-1.1Z"/>
        <path class="cls-1" d="M183.6,166.4c-2.6-2.6-3.8-6.2-3.8-11s1.4-8.5,4.1-11c2.7-2.6,6.6-3.9,11.5-3.9s8.7,1.2,11.1,3.6c2.4,2.4,3.7,6,3.7,10.9,0,10.2-5.1,15.3-15.2,15.3s-8.8-1.3-11.3-3.8ZM198.7,157.8v-5.1c0-3.9-.2-6.7-.6-8.5s-1.4-2.7-2.9-2.7-1.6.2-2.1.8-.9,1.3-1.2,2.5c-.4,1.8-.5,4.5-.5,8.2v4.7c0,4.4.1,7,.4,7.9.3.9.5,1.6.8,2.2.4,1,1.3,1.4,2.6,1.4s2.6-.9,3.1-2.7c.4-1.3.5-4.2.5-8.6Z"/>
        <path class="cls-1" d="M213.3,170.3v-10.7h.7c1,3.5,2.4,5.9,4.2,7.3,1.8,1.4,4,2.1,6.6,2.1,4.1,0,6.1-1.3,6.1-3.9s-.5-2-1.5-2.5c-1.6-.9-3.6-1.6-6-2-2.7-.7-5-1.7-6.8-2.9-2.2-1.4-3.3-3.7-3.3-6.8s1-5.6,2.9-7.5c1.9-1.9,4.5-2.8,7.7-2.8s4,.5,6.1,1.4c.8.3,1.3.5,1.7.5s.7-.1,1-.4c.3-.3.6-.8,1-1.6h.7v9.2h-.7c-2-5.2-5.2-7.8-9.5-7.8s-3.3.3-4.2,1-1.4,1.5-1.4,2.5.1,1.1.4,1.4c.3.3.5.6.7.8.2.2.4.3.8.5.4.2.7.3.9.4.2,0,.6.2,1.1.4.5.2.9.3,1.1.3,2.7.7,4.7,1.3,5.9,1.8,1.2.5,2.3,1.1,3.4,1.8,2.2,1.5,3.3,4,3.3,7.4s-1,5.9-3,7.7c-2,1.7-4.7,2.6-8.2,2.6s-4.9-.6-7.2-1.7c-.5-.3-.9-.5-1.1-.5-.9,0-1.7.7-2.6,2.2h-.7Z"/>
        <path class="cls-1" d="M240.3,161.1v-18.9h-3.3v-1.1h3.3v-7.7l11.2-2.8v10.5h7.8v1.1h-7.8v20.2c0,1.9.2,3.3.6,4.1.4.9,1.2,1.3,2.4,1.3s2.2-.6,3.1-1.8c.9-1.2,1.5-2.8,1.8-4.9h1c-.3,2.9-1.2,5.1-2.6,6.7-1.4,1.6-3.8,2.4-7.1,2.4s-5.9-.7-7.6-2c-1.8-1.3-2.6-3.7-2.6-7.2Z"/>
        <path class="cls-1" d="M3,201.1h14.5v5.5c.6-1.8,1.6-3.3,2.9-4.4,1.3-1.1,3.3-1.7,6-1.7,6.2,0,9.3,3.3,9.3,10v18.1h3.4v1.1h-17v-1.1h2.5v-19.5c0-2.4-.2-4-.5-4.7-.3-.7-.9-1-1.7-1-1.3,0-2.4.8-3.4,2.5-1,1.7-1.5,3.7-1.5,6.1v16.6h2.6v1.1H3v-1.1h3.3v-26.4h-3.3v-1.1Z"/>
        <path class="cls-1" d="M54.3,215.6h1.7v-4.6c0-3.8-.2-6.3-.6-7.7-.4-1.3-1.2-1.9-2.4-1.9s-1.4.2-2,.6c-.6.4-.9.9-.9,1.6s.1,1.3.4,2h1.5c.3.8.5,1.9.5,3s-.5,2.2-1.5,3.1c-1,.9-2.3,1.3-3.8,1.3-3.4,0-5.2-1.7-5.2-5,0-4.9,4.2-7.4,12.5-7.4s8,.8,9.9,2.4c1.8,1.6,2.7,4.6,2.7,8.9v12.2c0,2.1.6,3.1,1.7,3.1s2.2-2.1,2.4-6.2h.9c-.2,3.6-.8,6-2,7.3-1.2,1.3-3.1,2-5.7,2-4.8,0-7.6-1.5-8.3-4.4-.5,1.5-1.3,2.6-2.3,3.4-1,.7-2.6,1.1-4.6,1.1-5.9,0-8.9-2.4-8.9-7.3s1.1-4.8,3.4-5.8c2.3-1.1,5.7-1.6,10.4-1.6ZM52.2,226.9c.2.6.6.9,1.3.9s1.2-.5,1.7-1.5c.5-1,.8-2.4.8-4.2v-5.6h-.4c-2.5,0-3.7,1.8-3.7,5.5v1c0,2.1.1,3.4.3,4Z"/>
        <path class="cls-1" d="M103.2,229.7v-1.1h2.8l-6.8-13.9-1.1.3v13.6h2.8v1.1h-17.2v-1.1h3.3v-42.8h-3.5v-1.1h14.7v29.1l1-.4,13.5-11.2h-5.6v-1.1h11.8v1.1h-4.2l-7.1,6.1,10.4,20.3h2.2v1.1h-16.7Z"/>
        <path class="cls-1" d="M123.6,226.4c-2.6-2.6-3.8-6.2-3.8-11s1.4-8.5,4.1-11c2.7-2.6,6.6-3.9,11.6-3.9s8.7,1.2,11.1,3.6c2.4,2.4,3.7,6,3.7,10.9,0,10.2-5.1,15.3-15.2,15.3s-8.8-1.3-11.3-3.8ZM138.7,217.8v-5.1c0-3.9-.2-6.7-.6-8.5s-1.4-2.7-2.9-2.7-1.6.2-2.1.8-.9,1.3-1.2,2.5c-.4,1.8-.5,4.5-.5,8.2v4.7c0,4.4.1,7,.4,7.9.3.9.5,1.6.8,2.2.4,1,1.3,1.4,2.6,1.4s2.6-.9,3.1-2.7c.4-1.3.5-4.2.5-8.6Z"/>
        <path class="cls-1" d="M179.2,201.1v1.1l-14.2,26.4h.8c3.4,0,6-.9,7.9-2.6,1.9-1.8,3.4-4.6,4.5-8.6h.8l-1,12.3h-25.2v-.9l14.5-26.6h-.7c-4,0-6.9.7-8.4,2-1.6,1.3-3,4.1-4.2,8.5h-.8l.8-11.5h25.2ZM174.6,185.6l-5.2,11.4c-1.1.6-2.2,1-3.2,1-2,0-3.3-1-4.1-2.9l-3.8-9.5.7-.4,7.6,6.4,7.4-6.4.7.5Z"/>
        <path class="cls-1" d="M181,201.1h14.7v27.5h3.4v1.1h-17.8v-1.1h3.3v-26.4h-3.5v-1.1ZM190.1,196.9c-2.1,0-3.6-.5-4.5-1.6-.9-1.1-1.3-2.4-1.3-4s.5-2.9,1.5-4c1-1,2.5-1.6,4.5-1.6s3.5.5,4.6,1.4c1,.9,1.6,2.3,1.6,4s-.5,3.1-1.5,4.2c-1,1-2.6,1.6-4.7,1.6Z"/>
      </g>
    </g>
  </g>
</svg>