<?xml version="1.0" encoding="utf-8"?>
<!-- Generator: Adobe Illustrator 25.0.1, SVG Export Plug-In . SVG Version: 6.00 Build 0)  -->
<svg version="1.1" id="Layer_1" xmlns="http://www.w3.org/2000/svg" xmlns:xlink="http://www.w3.org/1999/xlink" x="0px" y="0px"
	 viewBox="0 0 548 1387" style="enable-background:new 0 0 548 1387;" xml:space="preserve">
<style type="text/css">
	.st0{clip-path:url(#SVGID_2_);}
	.st1{fill:#FEAE02;}
	.st2{fill:#43261F;}
	.st3{clip-path:url(#SVGID_4_);}
	.st4{fill:#DF4629;}
</style>
<g>
	<defs>
		
			<rect id="SVGID_1_" x="40.8" y="-3.4" transform="matrix(0.3904 -0.9206 0.9206 0.3904 23.1416 74.2153)" width="53.7" height="46.1"/>
	</defs>
	<clipPath id="SVGID_2_">
		<use xlink:href="#SVGID_1_"  style="overflow:visible;"/>
	</clipPath>
	<g class="st0">
		<path class="st1" d="M68,24.6c1.5,1,1.7,2.6,1.8,4.2c0,1.8-0.3,3.7-0.5,5.5c-0.1,0.8-0.4,1.7-0.7,2.5c-0.8,1.4-1.6,2.8-2.3,4.1
			c-1.1,0.9-2.2,1.9-3.3,2.8c-0.6-1.2-1.7-1.5-2.9-1.6c-0.1-1.4-0.1-2.8-0.1-4.3c0.7-3.5,1.9-6.8,3.5-10c0.8-1,1.7-2,2.5-3
			C66.6,24.9,67.3,24.8,68,24.6z"/>
		<path class="st1" d="M76.5,13c2,0.3,3.5,1.3,4.7,2.8c2,2.4,4,4.9,5.2,7.8c0.4,1,0.5,2,0.8,3c-1.9,0.2-2.5,1.7-3,3.3
			c-1.5-0.1-2.4-1.2-3.3-2.1c-3-3-5.2-6.5-6.3-10.5c-0.3-1,0-2.2,0-3.3C75.3,13.7,75.9,13.3,76.5,13z"/>
		<path class="st1" d="M77.4,1.4C78.7,1,80,1.2,81.1,1.9c4.1,2.4,7.4,5.6,9.4,9.9c-1.9,0.7-2.4,2.2-2.5,4c-1.6,0.3-2.9-0.5-4-1.4
			c-2.7-2.2-5.3-4.5-6.7-7.7c-0.5-1.2-0.8-2.5-1.1-3.7C76.6,2.5,77,1.9,77.4,1.4z"/>
		<path class="st2" d="M77.4,1.4C77,1.9,76.6,2.5,76.2,3c-3.2-2.9-6.4-5.8-9.6-8.7c-0.5-1.5-1.1-3.1-1.6-4.6
			c0.1-0.1,0.2-0.1,0.3-0.2C68.9-6.1,73.2-2.4,77.4,1.4z"/>
		<path class="st2" d="M76.5,13c-0.6,0.3-1.3,0.7-1.9,1c-2.2-2.9-9.8-14-12-16.9c0-1.5,3,1,3-0.4c1.9,2.7,6,9.6,7.9,12.2
			C74.4,10.4,75.5,11.7,76.5,13z"/>
		<path class="st2" d="M88.1,15.8c0.1-1.8,0.6-3.4,2.5-4c1.6,0.5,2.1,1.2,1.9,2.5c-0.2,1.4-1.8,2.9-2.9,2.9
			C88.7,17.1,88.3,16.5,88.1,15.8z"/>
		<path class="st2" d="M84.3,29.9c0.5-1.5,1.1-3,3-3.3c1.8,1.1,2,2,0.5,3.6c-0.1,0.1-0.1,0.2-0.2,0.3C86,32.2,85.1,32,84.3,29.9z"/>
		<path class="st2" d="M61.2,45.9c-0.5-0.2-1-0.3-1.5-0.5c-1.4-1.6-1.4-1.6,0.2-3.1c0.1-0.1,0.1-0.1,0.1-0.1
			c1.2,0.1,2.3,0.3,2.9,1.6C62.9,45,62.4,45.7,61.2,45.9z"/>
		<path class="st2" d="M68,24.6c-0.7,0.1-1.4,0.3-2,0.5c0-1.8-0.1-3.6-0.1-5.4c-0.1-1.8-0.2-3.6-0.4-5.4c-0.1-0.9-0.4-1.8-0.6-2.7
			c-0.1-0.6-1.2-15.4-1.3-16c0.7,0,1.5,0.8,2.3,0.1c0.3,1.6,1.7,17.7,1.8,19.4C68,18.3,67.9,21.5,68,24.6z"/>
		<path class="st2" d="M50.9,11.6c1-2.4,2.1-4.7,3.2-7.1c1.9-4.1,3.2-8.4,4.3-12.7c0.1-0.5,0.4-0.9,0.6-1.4c0.2,1.9,0.5,3.8,0.7,5.8
			c-1.7,5.6-4.2,11-6.9,16.3C52.1,12.1,51.5,11.8,50.9,11.6z"/>
		<path class="st2" d="M59,16c1-3.6,1.7-16.3,2.7-19.9c0.5,1.1,1.8,1.3,2.3,2.3c-0.8,2.6-2,15.1-2.8,17.7c-0.1,0.2-0.2,0.4-0.4,0.5
			C60.2,16.5,59.6,16.3,59,16z"/>
		<path class="st1" d="M50.9,11.6c0.6,0.3,1.2,0.5,1.8,0.8c0.5,1.3,0.4,2.7-0.1,4c-1.3,3.7-3,7.1-5.4,10.2c-1.1,1.4-2.5,2.5-4.3,2.9
			c-0.5-1.2-1.3-1.9-2.7-1.9c0.2-1.2,0.3-2.5,0.8-3.5c1.7-3.8,3.9-7.3,6.9-10.3C48.6,12.9,49.8,12.3,50.9,11.6z"/>
		<path class="st1" d="M59,16c0.6,0.2,1.2,0.5,1.8,0.7c0.1,0.1,0.1,0.1,0.2,0.2c0.8,1.6,0.7,3.2,0.2,4.8c-1.5,4.7-3.3,9.2-7.5,12.3
			c-0.6-1.5-1.9-1.8-3.3-2c0.2-1.7,0.4-3.4,0.6-5c1.5-2.5,2.9-5.1,4.4-7.6C56.3,17.9,57.5,16.8,59,16z"/>
		<path class="st2" d="M53.7,34c0,0.4-0.1,0.8-0.1,1.1c-0.2,0.3-0.5,0.5-0.7,0.7c-0.6,0-1.3,0.2-1.9,0c-1-0.2-1.7-0.8-1.9-1.7
			c-0.2-1.2,0.7-1.6,1.4-2.2C51.8,32.2,53.1,32.5,53.7,34z"/>
		<path class="st2" d="M40.1,27.6c1.4,0,2.2,0.6,2.7,1.9c-0.2,1.5-0.6,2-1.6,2.1c-1,0.1-2.3-0.8-2.5-1.7
			C38.4,28.9,38.8,28.3,40.1,27.6z"/>
	</g>
</g>
<g>
	<defs>
		
			<rect id="SVGID_3_" x="453.9" y="16.4" transform="matrix(0.9147 -0.4041 0.4041 0.9147 26.7411 206.8482)" width="99" height="47.4"/>
	</defs>
	<clipPath id="SVGID_4_">
		<use xlink:href="#SVGID_3_"  style="overflow:visible;"/>
	</clipPath>
	<g class="st3">
		<path class="st2" d="M552.8,37.6c5.8,1.3,5.8,4.9,4.4,4.4c-6-2.9-12.4-4.2-18.9-5.1c-1.7,1.7-3.3,3.3-4.9,4.8
			c-0.5-0.5-1-0.9-1.5-1.4c1.2-1.2,2.4-2.4,3.6-3.6c-0.1-0.1-0.1-0.3-0.1-0.4c-5.3-0.1-10.5-0.1-15.8-0.2c-1.6,2.3-3,4.5-4.5,6.6
			c-0.6-0.4-1.2-0.7-1.8-1.1c1.1-1.7,2.2-3.4,3.4-5.3c-5.2,0.7-10.4,1.3-15.6,2c-1.9,3.2-3.8,6.4-5.6,9.5c-0.6-0.3-1.2-0.7-1.8-1
			c1.5-2.6,3-5.1,4.5-7.7c-0.1-0.1-0.1-0.2-0.2-0.3c-4.8,1.1-9.6,2.2-14.4,3.4c-0.6,0.2-1.1,0.7-1.4,1.3c-1.8,2.8-3.5,5.7-5.3,8.5
			c-0.6-0.4-1.1-0.8-1.7-1.2c1.4-2.4,2.8-4.8,4.2-7.3c-0.1-0.1-0.1-0.2-0.1-0.3c-4.4,1.6-8.9,3.2-13.3,4.9c-0.2-0.6-0.3-1.3-0.5-1.9
			c4.1-1.6,8.3-3.1,12.4-4.7c0.6-0.2,1.1-0.4,2.1-0.7c-2.4-1-4.5-1.9-6.6-2.8c0.2-0.6,0.5-1.2,0.7-1.7c3,1.1,6,2.3,9.2,3.5
			c4.3-1,8.9-2,13.8-3.2c-2.1-1.1-4-2.1-5.8-3c0.4-0.6,0.8-1.2,1.1-1.7c2.7,1.4,5.4,2.7,8.1,4.1c5.6-0.7,11.3-1.4,17.1-2.2
			c-1.1-1.1-2.1-2-3.1-3c0.4-0.6,0.8-1.1,1.2-1.6c1.3,1.2,2.6,2.4,3.8,3.6c0.7,0.7,1.5,1.1,2.6,1c4.7,0,9.4,0.2,14.1,0.3
			c0.2,0,0.4,0,0.9,0c-1.6-1.8-3.1-3.5-4.6-5.2c0.6-0.4,1.2-0.8,1.8-1.2c2,2.3,4.1,4.5,6.1,6.7C544.4,35.6,548.6,36.6,552.8,37.6z"
			/>
		<path class="st4" d="M465.3,46.4c0.2,0.6,0.3,1.3,0.5,1.9c-0.3,1.1-0.4,2.2-0.9,3.2c-1.3,2.7-6.4,3.5-8.3,2.6
			c-1.2-0.6-2.1-1.5-2.3-2.8c-1.1-5.2,2.8-8.6,7.2-8.1c1.3,0.2,2.1,1,2.9,1.9C464.7,45.6,465,46,465.3,46.4z"/>
		<path class="st4" d="M473.9,36.4c-0.2,0.6-0.5,1.2-0.7,1.7c-1.4,1.5-2.7,2.9-5,3.2c-2,0.2-4.8-1.2-5.7-3.1
			c-0.9-2.1-0.5-4.6,1.4-6.2c0.7-0.7,1.7-1.2,2.6-1.5c3.6-1.2,6,0.8,7.2,4C473.8,35.2,473.8,35.8,473.9,36.4z"/>
		<path class="st4" d="M515.5,29.3c-0.4,0.6-0.8,1.1-1.2,1.6c-1.5,1.2-3.2,1.5-5.1,1.2c-2.2-0.3-3.7-2-3.7-4.2c0-2.4,1-4.4,3.1-5.7
			c1.7-1.1,3.5-1.2,5.1,0c1.6,1.2,2.7,2.9,2.4,5.1C516,28,515.7,28.7,515.5,29.3z"/>
		<path class="st4" d="M534.1,27.9c-0.6,0.4-1.2,0.8-1.8,1.2c-2.8,1.6-5.4,0.1-6.6-1.7c-1.3-2-0.8-4.9,1.2-6.7
			c0.3-0.2,0.5-0.4,0.8-0.6c2.3-1.5,4.5-1.5,6.2,0.2c2.2,2.3,2.4,4.6,0.6,7C534.4,27.4,534.2,27.7,534.1,27.9z"/>
		<path class="st4" d="M475,51c0.6,0.4,1.1,0.8,1.7,1.2c0.2,0.4,0.5,0.8,0.8,1.3c1,1.9,0.7,4.4-0.6,5.8c-1.7,1.8-5,2.8-7.2,1.3
			c-0.7-0.9-1.3-1.8-2-2.6c0-1,0-2.1,0.1-3.2c0.7-1,1.4-2.1,2.3-2.9C471.4,50.7,473.2,50.4,475,51z"/>
		<path class="st4" d="M492.2,32c-0.4,0.6-0.8,1.2-1.1,1.7c-1.1,1.1-2.4,1.5-3.8,1.8c-1.9,0.4-3.8-0.4-4.7-1.9
			c-1.1-1.7-0.9-4.5,0.3-5.9c0.5-0.6,1.1-1.1,1.7-1.5c1.8-1.2,3.7-1.7,5.6-0.4c1.9,1.3,2.6,3.2,2.3,5.4
			C492.3,31.6,492.3,31.8,492.2,32z"/>
		<path class="st4" d="M495.3,47.8c3.4,2.4,2.9,7.9-1.3,9.4c-1.5,0.6-2.9,1-4.4,0.5c-2-0.6-3.2-2.2-3.2-4.3c0-3.3,2.3-6,5.6-6.5
			c0.5-0.1,1-0.1,1.5-0.2C494.1,47.2,494.7,47.5,495.3,47.8z"/>
		<path class="st4" d="M515,42.7c0.5,0.6,1.1,1.2,1.5,1.9c1.4,2.7,0.2,6-2.6,7.3c-2.1,0.9-5.6-0.2-6.8-2.2c-0.6-1-0.7-2-0.4-3.1
			c0.8-2.5,2.7-5,6.5-4.9C513.8,42,514.4,42.3,515,42.7z"/>
		<path class="st4" d="M533.4,41.7c1,3.3,0.5,5.3-1.8,7.1c-1.7,1.3-4.2,1.4-5.7,0.2c-1.7-1.3-2.4-4.1-1.4-6c0.4-0.8,1-1.7,1.7-2.3
			c1.3-1.2,2.9-1.8,4.7-0.8c0.3,0.2,0.7,0.3,1.1,0.4C532.4,40.8,532.9,41.2,533.4,41.7z"/>
	</g>
</g>
</svg>
