<svg width="260" height="47" viewBox="0 0 260 47" fill="none" xmlns="http://www.w3.org/2000/svg">
<g clip-path="url(#clip0)">
<path d="M1.49424 37.7312C0.332039 35.0244 -0.083031 29.3647 -1.69463e-05 25.8377C0.166011 22.0646 1.66026 12.7958 5.72795 8.12041C8.3844 5.16754 13.5313 2.7068 16.3538 2.7068C23.4099 2.78883 26.8135 4.75741 27.9757 5.74171C28.0587 6.726 25.9834 13.534 24.9872 15.0925C23.576 15.1745 21.2516 14.7644 20.3384 14.3543C20.1724 11.8935 20.2554 8.94066 20.3384 6.47993C19.5913 5.90576 14.6935 5.98778 14.1954 6.23385C11.3729 8.69459 8.30139 17.9633 7.88632 25.0995C7.55426 30.103 9.04851 37.7312 13.8633 40.6021C17.3499 40.0279 21.4176 37.8953 24.2401 35.5986C24.9872 36.1728 25.4023 36.6649 25.7343 37.5672C24.4891 40.0279 16.5198 46.3438 10.9578 46.3438C7.8033 46.2618 3.48657 42.2426 1.49424 37.7312Z" fill="#064A42"/>
<path d="M29.7189 45.3595C29.8849 43.801 31.7942 35.1065 32.0433 32.5637C32.1263 23.377 32.2093 14.1082 32.2923 4.67539L29.3868 4.26527C29.2208 3.60907 29.1378 2.87086 29.2208 1.96859C31.1301 1.55846 36.9411 0.164049 38.1033 0C38.6844 0.164049 40.5107 1.64049 40.5937 2.21466L38.1863 28.6265L38.6014 28.7906C40.8428 24.3613 45.6576 16.4049 47.3179 14.6824C48.314 14.3543 50.6384 14.4363 51.9667 14.6824C53.2119 15.4206 54.7061 16.651 55.5363 17.7173C54.4571 24.1152 53.1289 38.1414 53.2949 40.8482L56.3664 40.7661C56.4494 41.0942 56.8645 42.1606 56.8645 42.6527C55.9513 43.4729 51.7176 46.2618 50.8045 46.2618C49.7253 46.2618 46.3217 43.3909 46.2387 41.8325C46.8198 35.1065 47.4009 27.3962 48.314 20.8342C48.148 20.5061 47.6499 20.3421 47.3179 20.26C45.2425 22.7208 39.2655 31.2513 38.2693 34.0401C38.0203 36.5009 37.9373 43.637 37.9373 44.4572C37.5222 44.9494 34.2016 46.2618 33.3715 46.2618C32.9564 46.2618 30.0509 45.8517 29.7189 45.3595Z" fill="#064A42"/>
<path d="M61.0152 45.2775C61.0982 44.1291 63.0076 34.6143 63.2566 32.0715L63.3396 19.1937L60.0191 19.1117C59.853 18.5375 59.77 17.5532 59.77 17.1431C61.5963 16.1588 66.0791 14.4363 67.0753 14.4363C68.1544 14.4363 70.5618 16.1588 70.8109 16.815L68.7355 30.5131L69.1506 30.5951C70.5618 26.2478 73.8824 17.2251 75.5427 14.4363C77.452 14.2722 80.3575 14.9284 82.2668 16.5689C82.0178 18.3735 80.5235 22.5567 79.4443 23.8691C77.8671 23.7871 76.2898 23.2129 75.2936 22.8848C73.4673 26.0017 70.3958 32.3176 69.3996 35.4345C69.0676 38.3054 68.9016 42.8988 68.9846 44.5393C68.1544 45.0314 65.2489 46.3438 64.2528 46.3438C63.8377 46.2618 61.3473 45.7696 61.0152 45.2775Z" fill="#064A42"/>
<path d="M86.1685 41.8325C86.5006 35.1065 87.4137 26.0017 87.9118 19.3578L84.4252 19.1117C84.3422 18.6195 84.1762 17.6353 84.2592 17.1431C86.0855 16.1588 90.3192 14.4363 91.0663 14.4363C92.0625 14.4363 95.217 16.0768 95.217 16.815C94.6359 23.2129 93.0587 38.3874 93.3077 40.9302C94.3039 40.8482 95.5491 40.9302 96.2962 40.8482C96.4622 41.2583 96.7113 42.0785 96.7943 42.6527C95.7151 43.8831 91.5644 46.3438 90.6513 46.3438C89.4061 46.2618 86.4176 43.555 86.1685 41.8325ZM87.9118 4.92147C87.9948 3.77313 91.3984 0.574173 93.1417 0.574173C94.3869 0.574173 96.8773 3.60908 96.6283 5.16754C96.4622 6.39791 93.2247 9.35079 91.6474 9.35079C90.0702 9.43281 87.6628 6.39791 87.9118 4.92147Z" fill="#064A42"/>
<path d="M99.4507 41.6684C99.9488 39.5358 101.443 36.2548 102.688 34.5323C103.352 34.6143 104.847 35.0244 105.345 35.5166C105.262 36.5829 104.847 39.0436 104.764 39.7818C106.258 41.1763 108.167 41.7504 110.575 41.7504C112.152 41.7504 113.48 41.5044 114.393 41.0942C114.808 40.7661 115.555 39.0436 115.555 37.8133C112.899 35.8447 101.277 30.185 100.779 25.8377C101.111 22.1466 103.933 17.4712 105.76 15.9127C107.171 15.1745 109.827 14.5183 112.235 14.5183C116.22 14.5183 118.129 15.3386 120.37 16.733C120.038 19.2757 118.959 22.3927 117.714 24.6894C116.967 24.7714 115.804 24.6894 114.974 24.4433C114.974 23.459 115.057 21.8185 114.891 20.178C113.729 19.6038 111.903 19.1937 109.993 19.1937C108.167 19.1937 107.254 19.3578 106.424 19.5218C106.009 20.096 105.594 21.3264 105.594 21.9825C108.167 24.7714 118.959 30.103 120.038 33.548C119.789 37.8953 118.627 41.2583 116.053 43.8831C114.891 45.0314 112.484 46.3438 109.329 46.3438C105.013 46.3438 100.613 43.8831 99.4507 41.6684Z" fill="#064A42"/>
<path d="M125.268 41.9145C125.434 37.9773 126.181 26.4119 126.679 18.7836H123.608C123.442 18.1274 123.525 17.0611 123.857 16.5689L127.427 15.6667C128.589 12.9599 129.419 9.84294 130.166 8.20245C130.664 8.12043 131.328 7.87435 131.909 7.79233C132.573 8.0384 133.404 8.53055 134.317 9.18674L133.819 15.8307H139.298C139.381 16.733 139.215 18.2094 138.799 18.8656H133.653C132.905 26.986 132.241 39.3717 132.407 40.8482C133.736 40.7662 136.807 39.8639 137.554 39.6998C137.803 40.0279 138.052 40.8482 138.135 41.4223C136.558 42.9808 131.743 46.1798 129.751 46.1798C128.34 46.2618 125.517 43.8011 125.268 41.9145Z" fill="#064A42"/>
<path d="M142.369 45.3595C142.535 43.801 144.61 35.3525 144.776 32.8098L144.942 19.1937L141.622 19.1117C141.456 18.5375 141.29 17.5532 141.373 17.1431C143.199 16.1588 147.848 14.3543 148.512 14.3543C149.425 14.3543 152.414 16.0768 152.497 16.815L150.919 28.7086L151.251 28.8726C153.493 24.1152 156.979 16.4869 158.806 14.6824C159.802 14.3543 162.209 14.4363 163.537 14.6824C164.949 15.2565 165.945 16.2408 166.609 17.3892L165.198 27.8063L165.53 27.8883C167.854 23.1309 171.673 16.0768 173.167 14.6004C174.163 14.2723 176.488 14.3543 177.733 14.6004C179.061 15.2565 180.638 16.897 181.302 18.0454C180.223 24.4433 178.895 38.0593 179.061 40.7661L182.133 40.6841C182.216 41.0122 182.548 42.0785 182.631 42.5707C181.718 43.4729 177.816 46.1798 176.488 46.1798C175.325 46.1798 172.088 43.3089 172.005 41.7504C172.586 35.0244 173.167 26.904 174.163 20.4241C173.914 20.096 173.665 19.9319 173.25 19.8499C171.424 22.0646 166.858 29.2007 165.032 32.9738C164.866 36.5009 164.7 42.9808 164.783 44.4572C164.368 44.9494 161.13 46.2618 160.217 46.2618C159.802 46.2618 157.062 45.8517 156.73 45.4415C156.979 42.9808 158.474 36.1728 158.806 32.4817L159.802 20.5881C159.553 20.26 159.304 20.096 158.972 20.014C156.813 22.4747 151.915 31.3333 150.919 34.2042C150.67 36.6649 150.421 43.801 150.504 44.6213C150.089 45.1134 146.603 46.4258 145.772 46.3438C145.357 46.2618 142.701 45.8517 142.369 45.3595Z" fill="#064A42"/>
<path d="M189.106 45.4415C188.11 44.7854 185.951 41.5044 185.868 40.0279C185.785 34.2042 188.525 22.3107 191.513 17.3892C192.841 15.9948 195.498 14.4363 196.66 14.4363C198.403 14.4363 201.475 15.0925 203.384 15.9128L203.55 14.7644C204.63 14.4363 209.112 14.1902 210.191 14.1082L211.188 15.1745C210.607 18.1274 209.61 22.4747 208.946 25.0175C208.531 29.4468 208.448 36.6649 208.282 40.8482L211.354 40.7662C211.686 41.2583 211.852 42.2426 211.852 42.6527C210.856 43.637 206.871 46.2618 205.626 46.2618C204.38 46.2618 200.811 42.9808 201.06 41.4223L202.72 31.3333L202.305 31.2513C199.981 36.1728 193.34 46.3438 191.762 46.3438C191.015 46.2618 189.853 46.0157 189.106 45.4415ZM202.554 26.0018L203.052 18.9477C201.475 18.2915 198.652 17.7993 197.158 17.8813C195.166 22.8028 193.008 33.1379 193.008 38.6335C193.34 38.8796 193.589 38.9616 193.838 38.9616C196.079 36.3368 201.143 29.3648 202.554 26.0018Z" fill="#064A42"/>
<path d="M214.674 39.7818C215.421 36.829 217.081 33.3839 218.659 30.9232C219.24 30.9232 221.149 31.4154 221.979 31.9075C221.813 34.0401 221.481 35.8447 221.315 37.7312C222.975 39.2897 226.213 40.438 229.451 40.438C231.194 40.438 232.854 40.1099 234.348 39.2897C235.096 37.8953 235.926 35.6806 236.009 33.9581C234.182 32.1536 230.115 29.4468 225.715 26.6579C220.983 23.7871 216.832 20.9983 216.417 17.8813C216.915 13.37 220.568 7.46423 222.892 5.16754C224.636 4.10122 227.541 2.78883 229.7 2.78883C231.526 2.78883 237.088 3.85515 240.907 6.31588C240.574 9.67888 239.329 13.8621 237.918 16.4049C236.922 16.3229 235.594 16.3229 234.68 15.9948C234.514 13.8621 234.514 11.9756 234.348 9.67888C233.186 8.94067 230.945 8.61257 228.703 8.61257C226.545 8.61257 224.636 8.94067 223.308 9.67888C222.56 11.0733 222.145 12.7958 221.896 14.1082C222.643 15.2565 226.545 18.0454 231.028 20.8342C235.013 23.377 239.495 26.0838 240.741 29.0366C240.657 34.1222 239.08 38.7976 235.76 42.6527C233.85 44.4572 228.786 46.1798 227.458 46.1798C222.643 46.2618 216.583 43.3909 214.674 39.7818Z" fill="#064A42"/>
<path d="M253.11 18.1274C252.778 19.9319 252.446 21.7365 252.114 23.541C254.438 22.7208 256.679 21.9825 259.004 21.1623C259.253 19.7679 259.751 16.1588 259.751 15.7487C257.509 16.4869 255.268 17.3072 253.11 18.1274Z" fill="#C74324"/>
<path d="M254.438 41.6684C254.853 40.192 255.268 38.6335 255.6 37.1571C253.276 37.8133 250.951 38.4695 248.627 39.1257C248.212 40.7661 247.797 42.4066 247.299 44.0471C249.789 43.2269 252.114 42.4887 254.438 41.6684Z" fill="#064A42"/>
<path d="M257.51 28.8726C257.842 27.4782 258.174 25.8377 258.506 24.3613C258.091 24.3613 257.676 24.5253 257.261 24.6893C255.351 25.1815 253.442 25.7557 251.533 26.3298C251.2 27.8883 250.785 29.6108 250.37 31.0872C250.702 31.0872 251.034 30.8412 251.367 30.7592C253.359 30.103 255.434 29.5288 257.51 28.8726Z" fill="#C74324"/>
<path d="M248.71 39.1257C251.034 38.4695 253.359 37.8133 255.683 37.1571C256.098 35.6806 256.513 33.9581 256.845 32.4817C256.513 32.4817 256.015 32.7277 255.683 32.8098C253.691 33.3839 251.615 34.0401 249.623 34.6963C249.291 36.1728 249.042 37.6492 248.71 39.1257Z" fill="#C74324"/>
<path d="M253.857 12.8778C253.857 12.7138 253.857 12.6318 253.774 12.5497C253.774 12.2216 253.774 11.9756 253.774 11.6475C253.774 11.3194 253.857 10.9913 253.857 10.5811C255.766 9.67887 257.759 8.7766 259.668 7.95636C259.751 8.94065 259.834 10.007 260 10.9913C260 11.1553 260 11.3194 260 11.4834C260 11.8935 259.917 12.2216 259.917 12.6318C258.091 13.452 256.264 14.3543 254.438 15.0925C254.189 15.1745 253.94 15.3386 253.691 15.5026C253.774 14.6003 253.857 13.7801 253.857 12.8778Z" fill="#C74122"/>
<path d="M249.623 34.6963C251.616 34.0401 253.608 33.3839 255.683 32.8098C256.015 32.7277 256.513 32.5637 256.845 32.4817C257.094 31.1693 257.261 30.185 257.51 28.8726C255.434 29.5288 253.359 30.103 251.367 30.7592C251.034 30.8412 250.702 31.0052 250.37 31.0873C250.121 32.3176 249.872 33.3839 249.623 34.6963Z" fill="#064A42"/>
<path d="M246.552 5.82373C249.457 4.67539 252.446 3.44502 255.351 2.29668C255.766 2.13263 256.264 1.96858 256.679 1.80453C255.268 0.574165 253.774 0.164043 251.781 0.738214C248.129 1.55846 246.552 5.57766 246.552 5.82373Z" fill="#064A42"/>
<path d="M254.438 41.6684C252.114 42.4887 249.706 43.3089 247.382 44.1291C247.299 44.4572 247.216 45.8517 247.797 46.0977C248.959 46.5078 250.121 46.8359 251.283 47.082C252.28 47.2461 253.276 46.5078 253.691 45.4415C254.106 44.1291 254.189 42.8988 254.438 41.6684Z" fill="#C74425"/>
<path d="M245.14 10.6632C245.306 10.5811 245.389 10.4991 245.555 10.4171C245.805 10.3351 246.137 10.253 246.386 10.171C246.552 10.089 246.635 10.089 246.801 10.007C247.05 9.92494 247.382 9.84292 247.631 9.76089C247.797 9.67887 247.88 9.67887 248.046 9.59684C248.295 9.51482 248.627 9.4328 248.876 9.35077C249.042 9.26875 249.125 9.26875 249.291 9.18672C249.872 8.94065 251.532 8.28445 252.114 8.03838C252.114 8.1204 252.695 7.62826 252.031 8.1204C251.699 8.36648 251.449 8.36648 251.117 8.69458C250.619 9.26875 250.702 9.76089 250.619 10.4171C250.619 10.5811 250.453 11.1553 250.453 11.3194C250.37 11.6475 250.287 12.0576 250.204 12.3857C248.461 13.0419 246.801 13.7801 245.057 14.4363C244.974 14.2722 244.891 13.37 244.808 12.3857C244.891 11.8115 245.057 11.2373 245.14 10.6632Z" fill="#064A42"/>
<path d="M249.54 14.2722C249.374 14.6824 249.208 15.0105 248.959 15.3386C248.876 15.3386 248.876 15.4206 248.793 15.4206C247.548 15.9948 245.971 16.0768 245.057 14.3543C246.801 13.6981 248.461 12.9598 250.204 12.3036C250.038 13.0419 249.789 13.6981 249.54 14.2722Z" fill="#C74425"/>
<path d="M245.805 7.79232L246.552 5.82373C249.457 4.67539 252.446 3.44502 255.351 2.29668C255.766 2.13263 256.264 1.96858 256.679 1.80453C257.925 2.62478 258.257 3.6911 258.838 5.24956C256.513 6.15183 254.106 7.13612 251.782 8.03839C251.698 8.03839 251.615 8.12042 251.532 8.12042C251.449 8.12042 251.449 8.20244 251.366 8.20244L250.951 8.36649L249.291 9.02269C249.125 9.10471 249.042 9.10471 248.876 9.18673C248.627 9.26876 248.295 9.35078 248.046 9.43281L247.631 9.59686C247.382 9.67888 247.05 9.7609 246.801 9.84293C246.635 9.92495 246.552 9.92495 246.386 10.007C246.22 10.089 245.555 10.3351 245.14 10.5811C245.389 9.7609 245.638 8.77661 245.805 7.79232Z" fill="#C74122"/>
<path d="M253.94 10.007C253.94 9.92495 253.94 9.92495 253.94 9.84293C253.94 9.02268 253.691 8.44851 252.861 8.20244C252.529 8.12041 252.197 8.03839 251.948 8.03839C254.272 7.13612 256.679 6.15183 259.004 5.24956C259.253 5.90575 259.502 6.64397 259.751 7.95636C257.841 8.85863 255.849 9.67888 253.94 10.5811C253.857 10.4171 253.94 10.171 253.94 10.007Z" fill="#064A42"/>
<path d="M259.004 21.1623C258.838 22.3106 258.672 23.2949 258.506 24.4433C258.091 24.4433 257.675 24.6073 257.26 24.7714C255.351 25.2635 253.442 25.8377 251.532 26.4119C251.782 25.5096 251.948 24.5253 252.197 23.623C254.355 22.7208 256.679 21.9005 259.004 21.1623Z" fill="#064A42"/>
<path d="M253.608 15.5026C253.857 15.3386 254.189 15.1745 254.355 15.0925C256.181 14.2722 258.007 13.452 259.834 12.6318C259.751 13.6981 259.751 14.6824 259.668 15.7487C257.426 16.5689 255.268 17.3072 253.027 18.1274C253.027 18.0454 253.027 17.9633 253.027 17.8813C253.359 17.1431 253.525 16.3229 253.608 15.5026Z" fill="#064A42"/>
</g>
<defs>
<clipPath id="clip0">
<rect width="260" height="47" fill="white"/>
</clipPath>
</defs>
</svg>
