<svg width="161" height="202" viewBox="0 0 161 202" fill="none" xmlns="http://www.w3.org/2000/svg">
<g clip-path="url(#clip0)">
<path d="M97.4231 145.375C96.0302 143.942 94.6836 142.489 92.9809 140.751C92.0891 144.644 91.3 148.153 91.4183 151.804C91.1889 153.37 90.9382 154.889 90.755 156.433C90.3991 159.181 89.7271 159.548 87.3062 158.199C87.0065 157.551 86.5939 157.63 85.9502 157.816C84.2005 158.401 83.3316 157.737 83.2724 155.912C83.2647 155.41 83.2784 154.955 83.3845 154.456C83.9571 151.328 84.5296 148.2 85.1022 145.072C85.109 144.844 85.1372 144.663 85.1441 144.435C85.055 144.364 85.0336 144.318 85.1047 144.229C86.458 142.423 86.1814 140.25 86.855 138.31C86.6984 138.214 86.5879 138.096 86.4099 137.954C85.624 138.318 84.8382 138.682 84.0524 139.046C82.5766 139.617 81.0546 140.209 79.536 140.688C77.509 141.401 75.4571 142.183 73.4155 142.623C70.6625 143.224 68.5865 141.771 67.7116 139.032C67.0652 137.03 67.3758 135.033 67.7541 133.062C68.3626 130.254 69.8161 128.907 72.6658 128.879C75.2416 128.865 77.7824 129.261 80.3762 129.408C81.0593 129.428 81.6996 129.356 82.3613 129.331C82.7422 129.547 83.1198 129.878 83.5041 129.98C85.6537 130.501 87.7818 130.975 90.3157 131.599C92.2742 130.131 94.4211 128.463 96.5679 126.796C99.0384 124.978 101.769 123.602 104.735 122.734C107.218 122.034 108.776 122.491 109.829 124.642C110.603 126.193 111.213 127.875 111.482 129.547C112.044 132.823 110.897 134.589 107.615 135.379C105.136 135.966 102.574 136.253 100.01 136.655C99.597 136.733 99.1382 136.833 98.4731 136.973C98.9362 137.488 99.1999 137.815 99.5346 138.053C101.45 139.524 103.413 140.974 105.304 142.512C107.487 144.196 109.645 145.948 111.849 147.678C112.583 148.293 112.858 149.008 112.535 149.887C112.166 150.788 111.384 151.038 110.519 150.989C110.042 150.929 109.587 150.915 108.996 150.852C109.111 151.585 109.229 152.204 109.212 152.773C109.185 154.413 107.977 155.197 106.542 154.402C105.869 154.04 105.363 153.432 104.786 152.913C103.522 151.758 102.257 150.603 100.993 149.448C99.892 148.161 98.6344 146.779 97.4231 145.375ZM72.5257 133.547C71.3256 135.563 71.2948 136.587 72.3324 138.465C76.2137 138.24 79.8338 136.845 83.3323 134.944C79.7061 134.265 76.1116 133.291 72.5257 133.547ZM105.294 129.155C104.967 128.69 104.226 128.303 103.611 128.307C102.447 128.34 98.6046 131.074 97.7272 132.21C99.1337 133.186 102.449 132.83 105.845 131.314C105.709 130.535 105.665 129.714 105.294 129.155Z" fill="#FEAE02"/>
<path d="M54.3168 72.0279C54.6053 72.2873 55.2422 72.3292 55.6762 72.2967C57.3908 72.1205 59.1089 71.8303 60.7807 71.5616C61.1223 71.5719 61.4638 71.5822 61.8302 71.5248C65.2381 71.126 68.6322 71.1827 71.9777 72.104C74.3052 72.7668 75.2101 73.7513 75.0245 76.139C74.9021 77.9359 74.5521 79.726 73.9315 81.4168C72.8428 84.2787 71.0828 85.2058 68.1466 84.3196C65.4809 83.5327 62.9392 82.4076 60.3266 81.3716C59.8532 81.1978 59.3584 80.9778 58.6179 80.5908C59.4064 82.4152 60.0665 83.9622 60.6589 85.4843C62.2076 89.3146 63.6887 93.1201 65.2161 96.9041C65.5551 97.7576 65.5774 98.5333 64.7847 99.1248C63.9707 99.6701 63.2199 99.6247 62.4401 99.0314C62.0163 98.7223 61.6388 98.3918 61.0156 97.8944C60.8564 98.6418 60.7965 99.1186 60.6475 99.5244C60.3711 100.382 59.7565 101.116 58.8491 100.975C58.237 100.865 57.642 100.186 57.1789 99.6706C56.762 99.1338 56.5548 98.4438 56.2303 97.8642C56.2192 97.4764 56.1832 97.1562 56.1721 96.7684C55.3964 93.7592 54.6421 90.7962 53.8202 87.8083C53.3587 85.7203 52.8723 83.6999 52.3321 81.1992C49.0065 84.9282 46.1433 88.4432 43.7465 92.3597C43.1071 93.161 42.5105 94.0548 41.7821 94.785C40.6307 95.9355 39.1857 95.4817 38.8244 93.8525C38.7422 93.5538 38.7987 93.1908 38.7627 92.8706C35.5423 92.3405 35.0997 91.142 37.1138 88.5814C37.3518 88.2467 37.6574 87.9368 37.8953 87.6021C40.7732 84.361 43.6048 81.1414 46.4612 77.8541C46.9338 77.2985 47.2744 76.5794 47.7538 75.7961C45.8499 75.4424 44.3553 75.1239 42.8358 74.873C41.7932 74.682 40.7471 74.6049 39.7044 74.414C37.9821 74.0886 36.2811 73.8094 34.587 73.3025C31.2202 72.3349 30.4761 69.0304 31.4305 66.8482C32.1649 65.1609 33.2161 63.5514 34.4204 62.1518C36.1932 60.0399 38.1638 59.689 40.5847 61.0383C42.6247 62.171 44.5405 63.6419 46.5061 64.9775C47.4888 65.6453 48.4253 66.3345 49.3867 66.9561C51.1322 68.7865 52.6783 70.4286 54.3168 72.0279ZM47.6817 72.1243C47.5927 72.0532 47.4788 72.0498 47.3898 71.9787C44.6512 69.8221 41.8913 67.6192 39.1065 65.4839C38.259 64.8658 37.3876 65.0447 36.7661 66.0061C36.2158 66.8784 35.7082 67.8432 35.1047 68.9647C39.2163 70.9347 43.2269 71.7166 47.3684 71.9325C47.5036 71.9822 47.5927 72.0532 47.6817 72.1243ZM68.4186 79.8148C68.5701 78.5657 68.7395 77.4768 68.8876 76.3416C65.6346 75.3775 62.7395 76.1564 59.7939 76.3411C62.4075 78.1066 64.985 79.5518 68.4186 79.8148Z" fill="#FEAE02"/>
<path d="M92.0286 13.0819C90.491 9.63945 88.0118 7.19431 84.4027 5.94594C83.7264 5.69764 82.9046 5.74126 82.2001 5.67445C75.9213 9.08657 69.6638 12.5449 63.3173 15.9322C62.9937 16.082 62.5383 16.0683 62.1257 16.147C61.6994 16.6812 61.1841 17.1443 60.8469 17.7496C58.7386 21.9255 57.1038 26.2753 55.9424 30.7989C55.79 31.3185 56.022 31.9409 56.0726 32.5351C57.4199 31.6867 58.7245 30.746 60.1146 29.9901C68.6371 25.4831 77.2058 20.9548 85.7283 16.4478C87.8581 15.3495 89.945 14.1588 92.0286 13.0819Z" fill="#DF4529"/>
<path d="M77.9728 78.1423C77.6339 80.3202 77.0459 82.445 76.9809 84.6084C76.9066 87.8427 77.1738 91.0874 77.3058 94.2824C77.917 93.6626 78.5744 93.0214 79.1641 92.3554C83.7719 86.9099 88.3797 81.4645 92.9661 75.9728C96.4406 71.838 99.8936 67.657 103.322 63.5436C101.111 62.041 98.6333 61.0547 95.9967 60.8157C95.2245 60.7241 94.3959 60.9954 93.5955 61.0853C93.521 61.2881 93.4466 61.491 93.3507 61.6477C90.032 65.149 86.6671 68.6717 83.3698 72.2192C81.5577 74.1248 79.7421 76.1443 77.9728 78.1423Z" fill="#DF4529"/>
<path d="M103.322 63.5437C99.8475 67.6785 96.4406 71.8382 92.9662 75.973C88.3798 81.4646 83.772 86.9101 79.1642 92.3555C78.5744 93.0215 77.917 93.6627 77.3058 94.2825C77.5439 96.9792 77.7606 99.6297 78.045 102.305C78.0989 102.785 78.3592 103.226 78.5056 103.664C80.6267 101.334 82.7941 98.9836 84.9152 96.6543C86.9405 94.4816 88.9196 92.3303 90.9663 90.2038C90.9053 86.9198 91.2074 83.6923 92.5058 80.6772C92.9458 79.6876 93.4106 78.6303 94.0748 77.7614C95.613 75.8704 96.9827 75.7977 98.8523 77.2899C99.4079 77.7625 99.9883 78.1675 100.544 78.6401C101.038 78.1307 101.575 77.7138 102.001 77.1797C104.339 74.4693 106.676 71.759 109.06 69.0273C107.482 66.9512 105.814 64.804 103.322 63.5437Z" fill="#F8DDC4"/>
<path d="M91.4396 151.85C91.2103 153.416 90.9595 154.935 90.7764 156.48C90.4204 159.227 89.7485 159.594 87.3275 158.245C88.4012 163.474 89.5426 168.728 90.6162 173.957C91.3875 173.319 92.205 172.66 92.9548 171.976C96.3806 168.706 99.7849 165.39 103.189 162.073C102.691 158.936 102.125 155.773 101.626 152.635C101.43 151.604 101.233 150.572 101.057 149.587C99.7995 148.204 98.5881 146.8 97.352 145.464C95.3977 147.547 93.4187 149.699 91.4396 151.85Z" fill="#DF4529"/>
<path d="M92.0285 13.0821C89.9664 14.2052 87.858 15.3497 85.7959 16.4728C77.2734 20.9798 68.6833 25.4619 60.1822 30.0151C58.7921 30.771 57.4875 31.7118 56.1402 32.5601C55.9767 32.6919 55.7241 32.7527 55.6283 32.9094C54.703 35.6394 53.9378 38.3515 53.9876 41.2477C59.2889 38.5127 64.5226 35.7529 69.8239 33.0179C70.5266 31.6259 71.2294 30.234 71.9997 28.8668C72.7487 27.4534 73.43 26.0152 74.2894 24.7191C75.6034 22.7073 77.4412 21.4635 79.928 21.3789C82.1349 22.2659 82.9413 24.2504 83.5167 26.3419C87.2215 24.4021 90.9726 22.441 94.6774 20.5012C94.1192 17.8404 93.3974 15.3115 92.0285 13.0821Z" fill="#F8DDC4"/>
<path d="M90.9875 90.25C88.9623 92.4227 86.9618 94.5277 84.9365 96.7004C82.8154 99.0298 80.648 101.381 78.5268 103.71C78.5705 104.532 78.5004 105.35 78.6579 106.175C79.3609 110.846 80.1102 115.496 80.8594 120.145C81.4458 119.593 82.1212 119.112 82.6861 118.514C86.0758 114.923 89.4904 111.265 92.8801 107.675C92.5676 105.181 92.2336 102.641 91.9673 100.126C91.611 96.8103 91.3224 93.5195 90.9875 90.25Z" fill="#DF4529"/>
<path d="M69.8488 32.9503C64.5475 35.6853 59.3138 38.4451 54.0125 41.1801C53.6411 42.924 53.1558 44.6644 52.852 46.4331C52.294 49.8352 51.825 53.3084 51.2671 56.7105C53.9267 55.423 56.6077 54.1818 59.2674 52.8944C61.3723 51.8637 63.4773 50.8331 65.5608 49.7562C66.0743 47.8343 66.6341 45.891 67.1476 43.9691C67.9941 40.8263 68.8406 37.6836 69.6195 34.5161C69.7932 34.0427 69.7641 33.4948 69.8488 32.9503Z" fill="#DF4529"/>
<path d="M56.19 96.9285C55.4143 93.9193 54.66 90.9563 53.8381 87.9685C50.7128 89.5838 47.6123 91.1315 44.487 92.7468C43.6808 96.8252 42.807 100.879 42.0008 104.957C41.6473 106.861 41.3401 108.744 41.0542 110.673C45.669 108.031 50.2624 105.343 54.9234 102.68C55.1818 101.662 55.3941 100.665 55.674 99.6937C55.8049 99.1278 56.0497 98.5654 56.2483 98.0244C56.2372 97.6365 56.2474 97.295 56.19 96.9285Z" fill="#DF4529"/>
<path d="M109.081 69.0736C106.744 71.784 104.427 74.5405 102.022 77.226C101.574 77.7139 101.059 78.177 100.565 78.6864C102.541 82.7119 103.528 87.0267 104.675 91.3235C105.147 93.07 105.35 93.1445 106.908 92.8723C109.616 89.9908 112.323 87.1093 115.009 84.1815C114.587 82.2998 114.257 80.3753 113.697 78.5578C112.636 75.1753 111.39 71.8783 109.081 69.0736Z" fill="#DF4529"/>
<path d="M94.6807 20.3874C90.9759 22.3271 87.2249 24.2883 83.52 26.228C83.521 29.9889 83.5221 33.7497 83.5163 37.7383C84.2114 38.8761 85.4287 39.323 86.9156 39.1399C89.4152 37.8704 91.9362 36.6472 94.4819 35.3563C94.6489 35.1106 94.8834 34.8898 94.9365 34.6406C95.7846 29.9253 96.1559 25.15 94.6807 20.3874Z" fill="#DF4529"/>
<path d="M92.9503 182.757C93.262 184.522 93.5522 186.24 93.7851 187.592C95.7507 188.927 97.366 189.021 99.1337 188.596C101.015 188.174 102.958 188.005 104.861 187.629C106.902 187.189 107.545 186.274 107.219 184.235C106.469 179.586 105.628 174.979 104.786 170.372C100.856 174.493 96.8802 178.636 92.9503 182.757Z" fill="#DF4529"/>
<path d="M39.1475 119.527C38.1708 120.934 38.4893 122.47 38.8327 123.939C38.9543 124.445 39.6203 125.034 40.1185 125.141C42.8304 125.906 45.5886 126.65 48.4213 127.191C50.2789 127.566 50.837 127.196 51.1904 125.292C52.0283 120.918 52.7061 116.562 53.4763 112.164C51.9475 112.984 50.4187 113.804 48.8684 114.578C45.5582 116.278 42.3653 117.869 39.1475 119.527Z" fill="#DF4529"/>
<path d="M92.8801 107.675C89.4904 111.266 86.1221 114.902 82.6861 118.514C82.1211 119.112 81.4458 119.593 80.8594 120.145C81.4356 122.966 82.0333 125.833 82.6095 128.654C83.0075 128.302 83.4732 127.974 83.8713 127.621C86.952 124.454 90.0327 121.288 93.1348 118.168C93.5577 117.747 94.2263 117.494 94.7596 117.191C94.1046 113.957 93.4923 110.816 92.8801 107.675Z" fill="#F8DDC4"/>
<path d="M92.9502 182.757C96.9263 178.614 100.856 174.493 104.832 170.351C104.324 167.555 103.79 164.826 103.282 162.03C99.8774 165.347 96.4731 168.663 93.0474 171.933C92.3189 172.663 91.48 173.276 90.7088 173.914C91.4168 176.899 92.1959 179.794 92.9502 182.757Z" fill="#F8DDC4"/>
<path d="M39.1474 119.527C42.3865 117.915 45.6043 116.257 48.7972 114.667C50.3475 113.893 51.8549 113.026 53.4051 112.253C53.9101 109.1 54.4398 105.879 54.9447 102.726C50.33 105.368 45.7366 108.056 41.0756 110.719C40.0579 113.492 39.1506 116.382 39.1474 119.527Z" fill="#F8DDC4"/>
<path d="M65.582 49.8024C63.4771 50.8331 61.3935 51.9099 59.2886 52.9406C56.6289 54.228 53.9479 55.4693 51.2882 56.7567C50.708 59.3832 50.0815 62.0311 50.2485 64.8168C51.1696 64.5027 52.1335 64.281 53.0118 63.8744C56.1302 62.4868 59.1597 61.0282 62.2567 59.5943C62.6728 59.4017 63.1282 59.4155 63.6084 59.3615C64.2845 56.5784 64.9821 53.8415 65.6368 51.0121C65.6719 50.6029 65.5931 50.1902 65.582 49.8024Z" fill="#F8DDC4"/>
<path d="M63.5871 59.3152C63.1283 59.4154 62.6515 59.3554 62.2355 59.548C59.1384 60.9818 56.0875 62.3943 52.9905 63.8281C52.1122 64.2347 51.1483 64.4564 50.2272 64.7705C49.9756 65.5607 49.7454 66.3971 49.54 67.1659C51.1322 68.7865 52.6783 70.4286 54.3168 72.0279C54.6053 72.2873 55.2422 72.3293 55.6762 72.2968C57.3909 72.1205 59.1089 71.8303 60.7807 71.5616C61.747 67.4652 62.6671 63.3902 63.5871 59.3152Z" fill="#DF4529"/>
<path d="M94.7631 117.077C94.2298 117.38 93.5612 117.633 93.1384 118.054C90.0362 121.174 86.9769 124.387 83.8748 127.507C83.4981 127.906 83.0325 128.234 82.613 128.54C82.56 128.789 82.5283 129.085 82.5215 129.313C82.9024 129.529 83.2799 129.86 83.6643 129.962C85.8138 130.483 87.942 130.957 90.4758 131.581C92.4344 130.113 94.5812 128.445 96.7281 126.777C96.0697 123.658 95.3933 120.378 94.7631 117.077Z" fill="#DF4529"/>
<path d="M77.9727 78.1425C79.7882 76.123 81.5576 74.125 83.3945 72.1517C86.6918 68.6042 90.0781 65.1278 93.3754 61.5802C93.4927 61.4698 93.5457 61.2207 93.6202 61.0178C92.6161 60.3038 91.5529 60.796 90.6746 61.2026C86.0093 63.2501 82.0032 66.1153 80.0097 71.0241C79.0519 73.3201 78.6137 75.7685 77.9727 78.1425Z" fill="#F8DDC4"/>
<path d="M62.172 16.1257C62.5846 16.047 62.9938 16.0821 63.3636 15.9109C69.6425 12.4988 75.9213 9.08664 82.2464 5.65313C81.0428 4.75074 79.5807 4.86624 78.2967 5.12387C71.5631 6.22021 65.9991 9.35755 62.3775 15.3569C62.1891 15.5564 62.2037 15.8303 62.172 16.1257Z" fill="#F8DDC4"/>
<path d="M44.5334 92.7255C47.6587 91.1101 50.7592 89.5625 53.8845 87.9472C53.423 85.8591 52.9367 83.8387 52.3964 81.338C49.0709 85.067 46.2076 88.582 43.8109 92.4986C44.0814 92.5979 44.2843 92.6724 44.5334 92.7255Z" fill="#F8DDC4"/>
<path d="M115.009 84.1815C112.302 87.063 109.594 89.9445 106.908 92.8722C107.2 93.0178 107.51 93.3234 107.716 93.2841C109.801 92.9366 111.889 92.4752 113.994 92.174C115.207 92.0054 115.819 91.3856 115.76 90.2898C115.615 88.2797 115.289 86.2413 115.009 84.1815Z" fill="#F8DDC4"/>
<path d="M94.4573 35.4236C91.9577 36.6931 89.4367 37.9163 86.8909 39.2072C88.6852 40.173 90.6421 40.2775 92.6915 40.3393C93.6039 38.7941 94.8083 37.3944 94.4573 35.4236Z" fill="#F8DDC4"/>
<path d="M85.1475 144.321C86.5008 142.516 86.2242 140.342 86.8979 138.402C86.7412 138.306 86.6308 138.189 86.4527 138.047C85.6669 138.411 84.8811 138.774 84.0952 139.138C84.4994 140.86 84.811 142.624 85.1475 144.321Z" fill="#DF4529"/>
<path d="M85.2127 145.189C85.2196 144.961 85.2478 144.78 85.2546 144.552C85.1802 144.755 85.2196 144.961 85.2127 145.189Z" fill="#DF4529"/>
<path d="M91.4398 151.85C93.4188 149.699 95.3979 147.547 97.4231 145.375C96.0303 143.942 94.6837 142.489 92.981 140.751C92.0429 144.666 91.3215 148.2 91.4398 151.85Z" fill="#F8DDC4"/>
</g>
<defs>
<clipPath id="clip0">
<rect width="95" height="178" fill="white" transform="translate(0.00439453 40.1912) rotate(-24.8423)"/>
</clipPath>
</defs>
</svg>
