<svg width="1920" height="314" viewBox="0 0 1920 314" fill="none" xmlns="http://www.w3.org/2000/svg">
<path d="M1266 144.757C1543.37 144.757 1685.54 111.34 1812.52 61.7215L1925 0.000366211L1925 314L-32.9434 314L-36.0001 108.757C40.1933 73.6609 134 32.7572 412 61.7217C635.77 85.036 902 144.757 1266 144.757Z" fill="white"/>
<g clip-path="url(#clip0)">
<path d="M394.6 278.3C402 279.3 409.2 278 416.6 276.8C416.7 276.4 416.9 275.8 417.2 275.2C417.7 274 418.6 273.6 419.7 273.9C420.6 274.2 421.1 275 420.8 276.2C420.2 279.3 419.2 282.2 417.2 284.6C415.3 286.9 412.8 288.1 409.9 288.7C405.8 289.7 401.8 289.3 397.9 287.8C395.6 286.9 393.9 285.3 392.5 283.3C391.3 281.4 391 279.4 391.2 277.2C391.3 276.1 392.1 275.3 393 275.1C394.3 274.9 395.1 275.7 394.9 277C394.9 277.4 394.7 277.8 394.6 278.3Z" fill="#3BB59E"/>
<path d="M404.5 279.9C397.7 280.2 391.1 279.2 384.8 277C378.6 274.9 372.6 272.2 367.4 268.2C362.5 264.5 358.5 260 356.6 254C356.4 253.4 356.2 252.8 356.1 252.2C355.9 250.5 356 249 357.2 247.5C361.6 242 364.7 235.8 367.5 229.4C369.9 223.8 371.8 218.1 373 212.1C373.8 208.2 374.3 204.3 375 200.4C375.6 196.4 376.1 192.4 376.8 188.4C377.6 183.7 378.3 179.1 379.4 174.5C380.7 169.3 383.2 164.7 387.5 161.3C390.1 159.2 393.4 158.1 396.6 157.3C401.1 156.2 405.6 155.6 410.2 155.9C415.7 156.2 421 157.2 425.8 160.3C429.5 162.7 432.1 166 433.6 170C435.3 174.5 436.1 179.2 436.3 184C436.5 188.2 436.9 192.4 437.5 196.6C439.1 206.8 441.8 216.7 444.6 226.6C445.8 230.8 447.7 234.8 449.4 238.8C451.1 242.9 453.1 246.9 455 250.8C455.6 252 455.5 253.2 455 254.3C453.3 257.8 451.1 261 448.1 263.5C445.4 265.7 442.8 268 440 269.9C434.3 273.8 428 276.2 421.3 277.8C415.7 279.2 410.1 280.1 404.5 279.9Z" fill="#FFA194"/>
<path d="M405.5 201.1C406.5 201.1 407.6 201.1 408.6 201.1C410 201.4 411.5 201.6 412.8 202.1C424.7 206.2 427.3 220.7 418.7 229.1C412.6 235 403.1 235.6 396.7 230.7C387.6 223.7 388.4 209.9 398.3 203.8C400.6 202.4 403 201.6 405.5 201.1Z" fill="#F8543C"/>
<path d="M377.7 217.1C378.3 216.2 379.6 216 380.6 215.9C385.8 215.3 391.1 215.3 396.3 215.9C396.9 216 397.5 216.2 398.1 216.4C398.8 216.7 399.3 217.2 399.2 218C399.1 218.9 398.5 219.2 397.7 219.3C395.2 219.5 392.8 219.8 390.3 219.7C386.7 219.6 383 219.2 379.4 218.9C378.8 218.8 378 218.8 377.7 218.3C377.4 218 377.4 217.4 377.7 217.1Z" fill="#D23D27"/>
<path d="M415.8 221.9C416.1 222.1 416.8 222.3 417.4 222.7C419.4 224.2 421.4 225.8 423.3 227.5C426.1 230.1 428.7 232.8 431.4 235.6C432.6 236.8 432.7 237.8 432.1 238.6C431.5 239.2 430.4 239.2 429.1 238.4C425.3 235.8 421.8 232.8 418.7 229.5C417.5 228.2 416.3 226.9 415.2 225.6C414.8 225.1 414.4 224.5 414.2 223.9C413.8 222.7 414.4 221.9 415.8 221.9Z" fill="#D23D27"/>
<path d="M428 192.7C427.8 193.6 427.1 195 426.1 196.1C422.3 200.4 418.4 204.5 414.6 208.6C414.3 208.9 414 209.2 413.6 209.4C413 209.7 412.3 209.8 411.9 209.2C411.7 208.9 411.7 208.2 412 207.8C413.2 205.9 414.4 204 415.9 202.2C418.7 198.8 421.7 195.5 424.6 192.1C425 191.6 425.5 191.2 426 190.9C427 190.4 428.4 191 428 192.7Z" fill="#D23D27"/>
<path d="M409.7 234.8C409.5 238.5 409.6 240.5 409.4 243.9C409.4 244.2 409.1 245.9 409 246.1C408.7 246.5 408.3 247 407.9 247C407.5 247 406.9 246.6 406.8 246.2C406.4 244.8 406 243.3 405.8 241.9C405.2 236.9 405.2 231.8 406 226.8C406 226.6 406.1 226.4 406.1 226.2C406.3 225.4 406.6 224.5 407.6 224.6C408.6 224.6 408.8 225.4 408.9 226.3C409.1 229.2 409.4 232.2 409.7 234.8Z" fill="#D23D27"/>
<path d="M400 225.1C399.9 225.3 399.8 225.7 399.5 226C399 226.7 398.4 227.5 397.7 228.2C394.1 231.6 390.4 235 386.7 238.4C386.3 238.8 385.8 239.1 385.3 239.4C384.7 239.8 384 239.9 383.4 239.5C382.7 238.9 383 238.3 383.4 237.7C384.4 236.4 385.3 235 386.5 233.8C389.5 230.8 392.5 227.9 395.7 225C396.5 224.3 397.5 223.9 398.5 223.6C399.5 223.4 400.1 224.1 400 225.1Z" fill="#D23D27"/>
<path d="M420.4 216.3C419.3 216.3 418.2 216.2 417.2 216.2C416.3 216.1 415.6 215.6 415.5 214.7C415.4 213.7 416.1 213.3 416.9 213.1C418.1 212.8 419.3 212.5 420.5 212.4C424.8 212.1 429.1 211.8 433.4 211.5C434 211.5 434.5 211.5 435.1 211.6C435.8 211.7 436.3 211.9 436.5 212.6C436.6 213.4 436.2 213.9 435.5 214.2C434.4 214.6 433.4 215 432.2 215.1C428.3 215.6 420.4 216.4 420.4 216.3Z" fill="#D23D27"/>
<path d="M407.9 207.4C407.9 208 407.7 208.6 407.4 209.2C406.8 210.3 405.7 210.3 405.1 209.2C404.9 208.9 404.8 208.5 404.7 208.2C403.8 202.8 403.5 197.4 404.6 192.1C404.8 191.3 405 190.6 405.3 189.9C405.5 189.5 406.1 189 406.5 189C406.9 189 407.5 189.6 407.6 190.1C407.9 191.1 407.9 192.1 408 193.1C408.1 193.8 408 194.5 408 195.3C408.4 195.2 408.1 203.4 407.9 207.4Z" fill="#D23D27"/>
<path d="M385.9 194.6C386.3 194.8 386.9 195 387.3 195.4C388.8 196.7 390.3 198 391.6 199.4C394.3 202.4 396.8 205.5 399.5 208.6C399.8 209 400.1 209.4 400.4 209.9C400.9 210.6 401.3 211.3 400.6 212C399.9 212.7 399.2 212 398.7 211.6C396.9 210 395 208.4 393.4 206.6C390.7 203.8 388.1 200.8 385.5 197.9C385.1 197.4 384.7 196.7 384.6 196C384.4 195.2 384.9 194.7 385.9 194.6Z" fill="#D23D27"/>
<path d="M407.5 214.9C408.8 214.9 409.9 216 409.9 217.3C409.9 218.6 408.8 219.6 407.5 219.6C406.1 219.6 405.3 218.9 405.3 217.5C405.2 216 406.2 214.9 407.5 214.9Z" fill="#FFE0BF"/>
<path d="M382.5 204.9C383.5 204.9 384.3 205.8 384.3 206.8C384.3 207.7 383.2 208.9 382.4 208.9C381.4 208.9 380.6 208 380.6 206.8C380.7 205.7 381.4 204.9 382.5 204.9Z" fill="#FFE0BF"/>
<path d="M397.2 195.1C396.3 195.1 395.4 194.4 395.4 193.4C395.4 192.3 396.2 191.4 397.2 191.4C398.1 191.4 399 192.2 399.1 193.1C399.2 194.2 398.3 195.1 397.2 195.1Z" fill="#FFE0BF"/>
<path d="M430.1 221.4C431.1 221.4 431.9 222.1 432 223.1C432.1 224.2 431.1 225.2 430 225.2C429.2 225.2 428.4 224.4 428.3 223.7C428.2 222.4 429 221.5 430.1 221.4Z" fill="#FFE0BF"/>
<path d="M394.4 240.9C394.4 239.8 395.2 238.9 396.3 238.9C397.2 238.9 398.1 239.8 398.1 240.6C398.1 241.4 397 242.5 396.2 242.6C395.2 242.6 394.4 241.8 394.4 240.9Z" fill="#FFE0BF"/>
<path d="M429.6 203.2C429.6 204.4 428.9 205.3 427.9 205.3C427.1 205.3 426.3 204.5 426.2 203.6C426.1 202.5 427 201.6 428.2 201.6C429.1 201.6 429.5 202.1 429.6 203.2Z" fill="#FFE0BF"/>
<path d="M414.8 239.5C414.8 238.3 415.6 237.4 416.6 237.4C417.6 237.4 418.2 238 418.2 239C418.2 240.2 417.4 241.1 416.4 241.1C415.5 241.2 414.8 240.5 414.8 239.5Z" fill="#FFE0BF"/>
<path d="M382.7 228.4C382.7 229.6 382.2 230 381.1 230C380 230 379.2 229.2 379.2 228.2C379.2 227.3 380.1 226.6 381.1 226.6C382.3 226.6 382.8 227.2 382.7 228.4Z" fill="#FFE0BF"/>
<path d="M414.9 193.7C413.8 193.7 413.3 193.3 413.3 192.1C413.3 191.2 414.1 190.3 415 190.3C415.8 190.3 416.7 191.2 416.7 192C416.7 192.9 416 193.7 414.9 193.7Z" fill="#FFE0BF"/>
<path d="M425.8 265.3C423 266.1 420 266.5 417 266.9C414.8 267.2 412.5 267.5 410.2 267.5C406.9 267.5 403.6 267.3 400.3 267.1C395.3 266.9 390.5 265.7 385.7 264.5C378.2 262.6 371.2 259.4 364.8 255.1C361.9 253.1 359.1 251 356.3 248.9C355.9 250 355.8 251 356 252.2C356.1 252.8 356.3 253.4 356.5 254C357.4 256.7 358.7 259 360.3 261.2C360.8 261.5 361.2 261.9 361.7 262.2C361.5 262.2 361.3 262.3 361.2 262.3C363 264.5 365.1 266.4 367.3 268.1C372.5 272.1 378.5 274.8 384.7 276.9C391 279.1 397.6 280.1 404.4 279.8C410 280 415.6 279.1 421.1 277.7C427.7 276 434.1 273.7 439.8 269.8C442.6 267.8 445.2 265.6 447.9 263.4C450.9 260.9 453.1 257.8 454.8 254.2C455.3 253.3 455.4 252.3 455.1 251.4C453.1 253.1 450.9 254.5 448.7 255.9C441.6 260.4 433.8 263 425.8 265.3Z" fill="#F8543C"/>
<path d="M402.3 170C408 170 413.7 169.9 419.3 169.9C422.9 169.9 426.5 169.8 430.1 169.6C431.1 169.5 432.2 169.4 433.2 169.2C431.7 165.4 429.2 162.4 425.7 160.1C421 157.1 415.7 156 410.1 155.7C405.5 155.5 400.9 156 396.5 157.1C393.2 157.9 390 159 387.4 161.1C384.7 163.3 382.7 165.9 381.3 168.9C384.7 169.2 388 169.5 391.4 169.7C395.1 170.1 398.7 170.1 402.3 170Z" fill="#F8543C"/>
<path d="M433.3 169.5C431.2 169.7 429.2 169.9 427.2 170C424.4 170.2 421.6 170.6 418.8 170.3C418.2 170.5 417.5 170.4 416.9 170.4C414.5 170.4 412 170.4 409.6 170.5C408.2 170.5 406.7 170.9 405.3 170.8C403.8 170.6 402.4 170 400.9 170.9C396.4 170.9 391.9 170.8 387.5 170.8C385.2 170.8 382.9 170.7 380.6 170.6C380.1 171.9 379.6 173.2 379.3 174.5C378.7 177 378.2 179.5 377.7 182C378 182.1 378.4 182.1 378.8 182C379.4 181.8 380.1 181.5 380.4 181C381.1 180 381.5 178.9 382.1 177.7C382.7 178.5 383.2 179.4 383.9 180.2C385.4 181.9 387.4 181.9 388.9 180.3C389.7 179.5 390.2 178.4 390.9 177.4C391.4 178.3 391.8 179.3 392.4 180.1C394.1 182.8 397.1 182.9 398.9 180.2C399.5 179.3 399.9 178.3 400.4 177.4C400.9 178.5 401.3 179.6 401.8 180.7C402.4 182 403.3 182.6 404.9 182.5C405.9 182.4 406.6 182 407.2 181.3C407.9 180.5 408.5 179.5 409.1 178.5C409.4 178.1 409.6 177.7 410 177.1C410.6 179 411.2 180.6 412.5 181.8C413.8 183 415.7 182.9 416.9 181.7C418 180.7 418.6 179.4 418.9 178C419.1 177.5 419.3 176.9 419.4 176.4C420.1 178 420.6 179.5 421.3 180.9C422.2 182.6 423.6 182.9 425.1 181.9C425.8 181.4 426.5 180.7 427 180C427.5 179.4 427.8 178.7 428.1 178.1C429 179.1 429.7 180.2 430.6 181.1C431.7 182.2 432.9 182.1 434 181C434.4 180.6 434.9 180.1 435.1 179.5C435.2 179.1 435.3 178.7 435.4 178.3C434.9 175.5 434.3 172.7 433.3 170C433.4 169.8 433.4 169.7 433.3 169.5Z" fill="#FFE0BF"/>
<path d="M367.1 256.6C369.1 257.9 371.2 259.2 373.5 259.9C377.9 261.3 382.4 262.6 386.8 264.2C390.7 265.6 394.7 266.3 398.8 266.4C403.3 266.5 407.8 266.1 412.2 266C415.3 266 418.4 265.5 421.5 264.9C424.4 264.3 427.3 263.8 430.2 262.9C436.3 261 442.4 259 447.9 255.5C450.2 254 452.6 252.5 455 251C455 250.9 454.9 250.8 454.9 250.7C453.9 248.7 453 246.6 452 244.6C451.4 244.6 450.7 244.7 450.1 245C448.6 245.6 447.9 246.9 447.7 248.5C447.6 249.1 447.5 249.6 447.4 250.2C446.6 249.7 445.9 249.2 445.2 248.8C444.2 248.3 442.6 248.3 441.7 249.5C441 250.4 440.3 251.4 440.1 252.6C440 253.1 439.9 253.6 439.7 254.3C439 253.5 438.4 252.9 437.8 252.3C436.5 251.1 434.5 251.2 433.2 252.4C431.7 253.9 431 255.7 430.8 257.9C430 257 429.3 256.2 428.5 255.5C426.9 254 424.5 254.3 423.2 256.1C422.6 257 422.2 257.9 421.6 259C421.4 258.7 421.2 258.3 420.9 258C420.3 257.4 419.7 256.7 418.9 256.3C417.4 255.6 415.3 256.3 414.2 258C413.5 259 413 260.1 412.3 261.2C411.7 260.3 411.2 259.3 410.6 258.4C409.3 256.5 406.8 256.3 405.3 257.9C404.3 259 403.4 260.2 402.4 261.4C402.4 261.3 402.3 261.1 402.2 260.8C401.7 259.8 401.4 258.8 400.8 257.9C399.6 256.2 397.9 256 396.3 257.3C395.2 258.2 394.3 259.4 393.5 260.3C393 259.1 392.5 257.6 391.7 256.2C390.8 254.7 388.7 254.1 387.3 255.1C386.4 255.6 385.7 256.5 385 257.3C384.6 257.7 384.3 258.2 384 258.7C383.8 257.8 383.9 256.9 383.7 256.1C383.6 255.3 383.2 254.5 382.9 253.8C382.2 252.4 380.8 251.9 379.4 252.5C378.4 253 377.6 253.7 376.7 254.3C376.3 254.6 375.9 254.8 375.4 255.2C375.4 254.4 375.4 253.9 375.4 253.4C375.5 252.2 375.1 251.1 374.4 250C373.5 248.4 371.9 247.9 370.3 248.8C369.8 249 369.4 249.4 369 249.6C368.3 250.1 367.5 250.7 366.6 251.3C366.6 249.6 366.7 248.2 366.5 246.9C366.2 244.3 364.5 243.4 362.4 244.1C361.9 244.3 361.3 244.5 360.8 244.8C359.8 245.5 358.8 246.2 357.8 246.9C357.6 247.1 357.4 247.4 357.2 247.6C356.8 248.1 356.5 248.6 356.3 249.1C357.1 249.8 357.9 250.5 358.7 251.1C361.5 252.9 364.3 254.8 367.1 256.6Z" fill="#FFE0BF"/>
<path d="M385.8 264.5C390.6 265.7 395.4 266.9 400.4 267.1C403.7 267.2 407 267.5 410.3 267.5C412.6 267.5 414.8 267.2 417.1 266.9C420 266.5 423 266.1 425.9 265.3C433.9 263 441.7 260.3 448.9 255.9C451.1 254.5 453.3 253.1 455.3 251.4C455.2 251.2 455.2 250.9 455 250.7C454.8 250.3 454.6 249.9 454.4 249.5C450.8 252.7 446.5 255 442.2 257.1C437 259.7 431.5 261.4 425.9 263C417.3 265.4 408.5 265.9 399.7 265C391.6 264.2 383.8 262.2 376.3 258.9C369.6 256 363.5 252.1 357.9 247.3C357.8 247.2 357.7 247.1 357.6 247.1C357.5 247.2 357.4 247.4 357.3 247.5C356.9 248 356.6 248.5 356.5 248.9C359.3 251 362.1 253.2 365 255.1C371.3 259.5 378.3 262.6 385.8 264.5Z" fill="#35837A"/>
<path d="M404.1 172.2C409 172.2 413.8 172.2 418.7 172C423.6 171.8 428.6 171.6 433.5 171.2C433.7 171.2 433.8 171.2 434 171.2C433.9 170.8 433.7 170.4 433.6 170C433.5 169.8 433.4 169.6 433.3 169.3C432.3 169.5 431.2 169.6 430.2 169.7C426.6 169.9 423 169.9 419.4 170C413.7 170.1 408 170.1 402.4 170.1C398.8 170.1 395.2 170.1 391.6 169.9C388.2 169.7 384.9 169.4 381.5 169.1C381.2 169.8 380.9 170.5 380.6 171.2C383.5 171.5 386.5 171.9 389.4 172C394.2 172.2 399.1 172.2 404.1 172.2Z" fill="#35837A"/>
<path d="M392.7 161.3C392.2 161.4 391.7 161.5 391.2 161.3C390.8 161.1 389.9 160.6 389.8 160.3C389.6 159.8 389.4 156.4 389.4 155.1C389.4 150.8 389.4 146.5 389.3 142.3C389.3 140.6 389.6 140.1 391.2 139.9C393 139.7 394.9 139.5 396.7 139.3C397.8 139.2 400.6 139 400.6 138.9C400.4 138.7 399.6 138.3 399.4 138.1C399.2 137.9 399 137.7 398.8 137.4C396 134.2 395 130.5 396 126.4C397.3 121.5 400.2 117.9 405.3 117C406.7 116.7 409.2 117 409.8 117.2C410.7 117.5 411.5 117.9 412.3 118.3C419.4 122.7 419.7 132.6 415 137.8C414.7 138.1 414.5 138.4 414.2 138.9C414.9 138.9 415.3 138.9 415.8 138.9C418 139 420.2 139.1 422.4 139.3C423.6 139.4 424.2 140 424.3 141.3C424.4 142 424.5 142.7 424.5 143.5C424.6 148.2 424.6 153 424.7 157.7C424.7 158.6 424.5 159.2 423.8 159.7C423.3 160 422.9 160.4 422.4 160.5C420.2 161.2 418.1 161.3 416.2 159.5C414 161.2 411.9 161.3 409.7 159.6C407.3 161.9 405 161.8 402.7 160C400.1 161.8 398.1 161.8 396.1 159.8C394.9 160.2 393.9 161 392.7 161.3ZM406.9 138.8C410 138.5 411.6 138.2 412.9 136.8C417.3 132.4 417 124.9 412 120.8C410.4 119.5 408.6 118.9 406.5 119C404.2 119.2 402.3 120.2 400.7 121.9C398.6 124.1 397.5 126.7 397.6 129.7C397.7 132.6 399 135 401.1 137C402.6 138.2 404.1 138.6 406.9 138.8Z" fill="#35837A"/>
<path d="M421.6 127.1C421.1 126.9 420.5 126.9 420 126.8C417.2 126.1 414.9 124.6 412.9 122.7C411.4 121.3 410.5 119.5 409.4 117.7C409.7 117.6 409.8 117.6 410 117.6C411.1 117.4 412.2 117.1 413.1 116.6C414.6 115.7 416.1 114.6 417.5 113.4C419.2 111.8 420.4 109.9 421 107.7C421.3 106.8 421.3 105.7 421.1 104.8C420.3 102.3 417.9 101.1 415.3 102.9C413.8 104 412.5 105.3 411.5 106.9C410.9 107.9 410.3 108.8 409.7 109.7C409.5 110.1 409.1 110.4 408.8 110.8C408.4 109 408.6 107.2 408.6 105.4C408.7 104 408.8 102.6 408.9 101.1C409.1 99.5 409 97.8 408.9 96.2C408.8 92.6 409.1 88.9 409 85.3C408.9 83.8 409.1 82.4 408.9 80.9C408.7 79.2 409 77.5 408.8 75.9C408.6 74.5 408.8 73.2 408.7 71.8C408.5 70 408.7 68.2 408.6 66.4C408.4 64.4 408.7 62.4 408.6 60.4C408.6 60.3 408.6 60.2 408.6 60.1H406.2C406.4 62.2 406.1 64.3 406.2 66.5C406.3 69.2 406.3 71.9 406.5 74.6C406.7 77 406.5 79.4 406.6 81.9C406.6 83.8 406.4 85.8 406.6 87.7C406.8 89.9 406.6 92.2 406.6 94.4C406.6 98.8 406.3 103.3 406.2 107.7C406.2 108 406.2 108.4 406.2 108.7C406.1 108.7 406.1 108.7 406 108.8C405.6 108.1 405.2 107.4 404.8 106.7C403.7 104.8 402.4 103.1 400.3 102.3C398.7 101.6 397 102 396.1 103.2C395.1 104.5 394.8 106 395.1 107.7C395.5 109.6 396.6 111.1 397.8 112.4C399.2 114 401.1 115 402.9 116C403.6 116.4 403.6 116.4 403.2 117C402.4 118.1 401.5 119.3 400.6 120.4C399.8 121.3 399.1 122.2 398.2 123.1C397 124.4 395.5 125.5 393.9 126.3C392.7 126.9 391.4 127.4 390 127.5C388.9 127.6 387.8 127.3 386.9 126.6C386.4 126.2 385.8 126.2 385.3 126.5C384.8 126.8 384.9 127.4 385 127.8C385.1 128.2 385.5 128.5 385.8 128.7C387.5 129.8 389.7 130.1 391.8 129.6C394.5 129 396.8 127.6 398.9 125.9C400.5 124.6 401.6 122.8 403 121.2C403.9 120.1 404.7 119 405.6 117.9C405.8 117.6 406.1 117.6 406.4 117.9C406.5 118.1 406.7 118.2 406.8 118.4C407.5 119.5 408.3 120.6 409 121.7C410.7 124.3 412.8 126.3 415.5 127.8C417.2 128.7 419 129.3 420.9 129.7C421.3 129.8 421.8 129.7 422.1 129.5C422.7 129.2 422.7 128.6 422.6 128C422.6 127.4 422 127.2 421.6 127.1ZM404.9 114.4C403.4 113.5 402.1 112.8 400.8 111.9C399.2 110.8 398.1 109.2 397.4 107.3C397.1 106.4 397.4 105.6 397.7 104.8C397.9 104.3 398.6 104.2 399.2 104.3C400.1 104.6 400.9 105.2 401.5 105.9C403.3 108.1 404.3 110.7 405 113.4C404.9 113.7 404.9 113.9 404.9 114.4ZM408.9 115.1C410.3 112.7 411.6 110.4 413.2 108.4C414.1 107.3 414.9 106.2 415.9 105.2C416.2 104.9 416.8 104.6 417.2 104.5C418.2 104.3 418.8 104.8 418.7 105.9C418.7 106.6 418.6 107.3 418.3 107.9C417.7 109.2 417 110.4 416 111.4C414.7 112.7 413.3 113.7 411.6 114.6C410.9 114.8 410.1 115.2 408.9 115.1Z" fill="#FFA194"/>
</g>
<defs>
<clipPath id="clip0">
<rect width="99.3" height="229.2" fill="white" transform="translate(356 60)"/>
</clipPath>
</defs>
</svg>
