<?xml version="1.0" encoding="utf-8"?>
<!-- Generator: Adobe Illustrator 25.0.1, SVG Export Plug-In . SVG Version: 6.00 Build 0)  -->
<svg version="1.1" id="Layer_1" xmlns="http://www.w3.org/2000/svg" xmlns:xlink="http://www.w3.org/1999/xlink" x="0px" y="0px"
	 viewBox="0 0 1920 354" style="enable-background:new 0 0 1920 354;" xml:space="preserve">
<style type="text/css">
	.st0{fill:#064A42;}
	.st1{clip-path:url(#SVGID_2_);}
	.st2{fill:#FFA194;}
	.st3{fill:#FFE0BF;}
	.st4{fill:#372F2C;}
	.st5{fill:#F8543C;}
	.st6{fill:#FFB674;}
	.st7{fill:#35837A;}
</style>
<path class="st0" d="M1266,146.8c277.4,0,419.5-33.4,546.5-83L1925,2v354H-32.9L-36,110.8c76.2-35.1,170-76,448-47
	C635.8,87,902,146.8,1266,146.8z"/>
<g>
	<defs>
		<rect id="SVGID_1_" x="1546" y="123" width="102" height="213"/>
	</defs>
	<clipPath id="SVGID_2_">
		<use xlink:href="#SVGID_1_"  style="overflow:visible;"/>
	</clipPath>
	<g class="st1">
		<path class="st2" d="M1598.1,335.6c-1.4,0-2.8,0-4.1,0c-0.3-0.1-0.6-0.2-1-0.2c-1.7-0.1-3.4-0.2-5.1-0.3
			c-3.6-0.4-7.2-1.3-10.6-2.9c-4.4-2-8.3-4.4-12-7.6c-3.8-3.3-7.2-7.1-9.9-11.4c-2.1-3.3-3.4-7-4.4-10.8c-0.9-3.3-1.6-6.6-1.8-10
			c-0.2-4.2-0.2-8.3,0.6-12.5c0.9-5.1,2.5-9.9,5-14.4c3-5.2,6.9-9.8,11.3-13.9c4.4-4,9.4-6.8,15-8.7c1.4-0.5,2.8-0.9,4.1-1.4
			c0.4-1.8,0.8-3.6,1.2-5.4c0.5-2,1.2-2.7,3.3-2.9c1.1-0.1,2.3-0.2,3.4-0.3c3.8-0.5,7.6-0.4,11.5-0.4c2.1,0,3.3,1.3,3.5,3.3
			c0.2,1.9,0.5,3.8,0.8,5.7c0.1,0.4,0.2,0.8,0.3,1.2c0.7,0.1,1.3,0.2,1.9,0.3c3.1,0.6,5.8,1.8,8.7,3.1c7.3,3.3,13.4,8,18,14.8
			c4.7,7,7.4,14.7,7.6,23.2c0.1,2.7,0,5.4-0.1,8.2c-0.1,1.6-0.2,3.2-0.5,4.7c-0.6,2.7-1.4,5.4-2.3,8c-1.7,4.7-3.9,9-7.1,12.7
			c-5.8,6.7-12.5,11.8-20.9,14.5c-5.1,1.7-10.3,3-15.7,3C1598.7,335.4,1598.5,335.6,1598.1,335.6z"/>
		<path class="st3" d="M1594.7,311c-0.9-0.2-1.8-0.3-2.7-0.5c-3.7-0.7-7-2.2-9.9-4.7c-4.3-3.6-6.8-8.2-7.5-13.8
			c-0.9-6.5,0.9-12.4,4.8-17.5c3.6-4.6,8.3-7.6,14-8.7c5.5-1,11-0.5,16,2.4c4.4,2.5,7.6,6.2,9.5,11c1.3,3.2,1.7,6.5,1.4,10
			c-0.4,4.3-2,8.3-4.6,11.9c-2.5,3.4-5.8,6-9.6,7.7c-2.4,1.1-4.9,1.8-7.6,2c-0.2,0-0.5,0.2-0.7,0.2
			C1596.9,311.1,1595.8,311,1594.7,311z"/>
		<path class="st4" d="M1595.6,208.3c1.2-0.1,2.4-0.1,3.6,0c2.3,0.2,4.2,1.5,5.7,3.3c3.3,4.2,2.7,9.5-0.9,13.4
			c-0.5,0.6-1.1,1.1-1.8,1.7c0.4,0.1,0.7,0.1,1,0.1c2.1,0.1,4.2,0.2,6.2,0.2c1.1,0.1,2,0.7,1.9,2c-0.1,2.9,0,6,0,8.9
			c0,1.3-0.3,1.7-1.6,1.9c-2.7,0.4-5.1-0.1-7-2.3c-0.2-0.2-0.4-0.4-0.6-0.7c-3.5,3.9-9.2,4.1-11.8,0.7c-1,1.6-2.4,2.5-4.1,3
			c-0.3,0.1-0.6,0.2-0.9,0.2c-2.4,0.1-2.6-0.4-2.7-2.4c-0.1-2.8-0.2-5.5-0.2-8.4c0-1.7,0.4-2.3,2.1-2.5c2-0.2,3.9-0.3,5.8-0.4
			c0.5,0,0.9,0,1.6,0c-0.4-0.3-0.6-0.5-0.7-0.7c-3.9-2.3-4.6-7.3-3.4-10.8c0.7-2.1,1.9-4,3.7-5.5
			C1592.9,209.1,1594.2,208.4,1595.6,208.3z M1605,218.2c0-2.9-1.3-5.5-3.2-6.7c-3.6-2.4-8.8-1.9-11.2,2.7c-0.2,0.5-0.5,1-0.7,1.5
			c-1.5,3.5-0.2,7.3,3.1,9.2c0.6,0.3,1.1,0.6,1.7,0.8c1.7,0.7,3.3,0.7,4.9-0.2C1602.9,224,1604.6,221.3,1605,218.2z"/>
		<path class="st5" d="M1599.1,307.3c-0.2-3.6-0.3-7.2-0.6-10.8c-0.1-1.1-0.3-2.3-0.5-3.4c-0.1-0.7-0.4-1.2-1.2-1.2
			c-0.7,0-1.1,0.5-1.2,1.3c-0.2,1.6-0.4,3.1-0.5,4.7c-0.2,3.3-0.3,6.7-0.5,10c0,4.8,0,9.6,0.9,14.4c0.2,1.2,0.7,2.5,1.1,3.7
			c0.2,0.6,0.7,0.9,1.4,0.8c0.6-0.1,1-0.6,1.1-1.1c0.2-0.6,0.2-1.2,0.3-1.9c0-3,0.1-6,0-9C1599.4,312.3,1599.2,309.8,1599.1,307.3z"
			/>
		<path class="st5" d="M1603.7,292.7c-0.8-0.7-1.7-1.3-2.6-1.9c-0.4-0.3-1-0.4-1.3,0.1c-0.2,0.4-0.3,1-0.2,1.5
			c0,0.3,0.3,0.6,0.6,0.9c3.8,4.7,7.8,9.4,12.2,13.5c2.5,2.4,5.3,4.4,7.9,6.6c0.6,0.5,1.5,0.9,2.3,1.1c0.9,0.2,1.4-0.3,1.4-1.2
			c0-1-0.7-1.6-1.3-2.3C1616.5,304.5,1610.4,298.2,1603.7,292.7z"/>
		<path class="st5" d="M1587.5,289.6c1.5-0.2,3.1-0.2,4.6-0.4c0.6-0.1,1.1-0.2,1.1-1c0-0.7-0.5-0.9-1.1-1c-0.7-0.1-1.4-0.2-2.1-0.2
			c-3.6-0.2-7.2-0.4-10.8-0.5c-2-0.1-4,0-6.2,0.1c-2.7,0.1-5.3,0.2-8,0.2c-0.7,0-1.5,0.1-2.3,0.3c-0.9,0.2-1.8,0.5-2.6,1
			c-1.1,0.7-1,2,0.2,2.6c0.6,0.2,1.2,0.3,1.8,0.4c1.2,0.1,2.4,0,3.7,0c0,0,0,0,0,0.1c2.7-0.1,5.4-0.2,8.1-0.3
			C1578.6,290.5,1583.1,290,1587.5,289.6z"/>
		<path class="st5" d="M1595,280.8c0.1,1.1,0.2,2,0.4,3c0.1,0.7,0.6,0.8,1.2,0.7c0.8-0.2,1.1-0.4,1.1-1.5c0-3.8,0.1-7.8,0.1-11.6
			c0,0,0-10.2-0.2-15.3c-0.1-1.4-0.4-2.7-0.7-4.1c-0.2-0.7-0.5-1.2-1.2-1.2c-0.8-0.1-1.1,0.6-1.3,1.1c-0.2,0.4-0.2,0.7-0.3,1.1
			c-0.2,2.2-0.3,4.4-0.3,6.5c0.1,3.8,0.2,7.5,0.5,11.3C1594.3,274.2,1594.7,277.6,1595,280.8z"/>
		<path class="st5" d="M1592.3,282c-4.9-6-10-11.7-15.8-16.8c-1.1-1-2.2-1.9-3.3-2.7c-0.5-0.4-1.2-0.6-1.5-0.7c-1.5,0-2.2,1-1.5,2
			c0.6,0.8,1.4,1.5,2.1,2.3c6.5,6.4,12.9,12.7,19.5,19c0.2,0.2,0.5,0.5,0.8,0.7c0.6,0.2,1.1,0.3,1.6-0.2c0.4-0.5,0.2-1-0.2-1.5
			C1593.4,283.4,1592.9,282.6,1592.3,282z"/>
		<path class="st5" d="M1634.2,286.4c-0.5-0.2-1-0.5-1.5-0.6c-1.7-0.2-3.3-0.5-5-0.5c-2.4,0-4.9,0.1-7.4,0.2
			c-1.3,0.1-2.6,0.2-3.8,0.4c-3.1,0.2-6.1,0.6-9.2,0.8c-1.7,0.2-3.5,0.3-5.2,0.5c-0.7,0.1-1.2,0.7-1.2,1.4c0,0.8,0.6,0.8,1.2,1
			c0.3,0.1,0.7,0.1,1,0.1c3.6-0.1,7.1-0.2,10.7-0.3c3.9-0.1,7.8-0.2,11.7-0.2c0,0.1,5.3-0.1,8-0.2c0.6,0,1.1-0.2,1.4-0.9
			C1635.1,287.3,1634.9,286.7,1634.2,286.4z"/>
		<path class="st5" d="M1592.6,290.8c-0.3,0.1-0.6,0.4-0.9,0.6c-2.7,2.1-5.3,4.2-7.9,6.4c-3.9,3.3-7.7,6.6-11.5,10
			c-1.1,1.1-2,2.4-3,3.6c-0.3,0.4-0.5,1-0.6,1.4c-0.1,1.6,1.1,1.9,2.1,1.3c0.7-0.4,1.3-0.8,1.8-1.4c6.9-6.6,13.8-13.2,20.7-19.8
			c0.2-0.2,0.6-0.6,0.6-0.8c0.1-0.3,0-0.9-0.2-1.1C1593.4,290.8,1592.9,290.7,1592.6,290.8z"/>
		<path class="st5" d="M1601.1,285.6c0.1-0.1,0.2-0.2,0.3-0.2c2.3-2.1,4.6-4.2,6.9-6.4c1.8-1.6,3.6-3.3,5.3-4.9
			c3.3-2.9,6.6-5.8,10-8.7c0.5-0.4,0.9-0.9,1.1-1.5c0.5-1.1-0.1-2-1.4-2c-0.2,0.1-0.7,0.1-1.1,0.3c-1.2,0.8-2.4,1.5-3.5,2.5
			c-4.9,4.3-9.6,9.1-14,13.8c-1.8,1.9-3.4,3.8-5.1,5.7c-0.4,0.5-0.8,1-0.2,1.6C1600,286.1,1600.6,285.9,1601.1,285.6z"/>
		<path class="st6" d="M1600.6,280.3c1.5-3.6,3.1-7.1,4.7-10.7c1.1-2.4,2.3-5,3.3-7.4c0.2-0.5,0.4-1.1,0.6-1.7
			c-0.2-0.2-0.3-0.7-0.6-0.7c-0.3-0.1-0.7,0-1,0.2c-0.2,0.2-0.4,0.6-0.5,0.9c-2.8,6.2-5.6,12.3-8.3,18.5c-0.5,1-0.4,1.6,0.2,1.9
			C1599.8,281.7,1600.2,281.4,1600.6,280.3z"/>
		<path class="st6" d="M1625.1,275.6c-0.2-0.5-0.7-0.7-1.2-0.5c-0.1,0.1-0.2,0.1-0.4,0.2c-6.2,2.8-12.5,5.5-18.7,8.4
			c-0.3,0.2-0.7,0.3-0.8,0.6c-0.2,0.2-0.2,0.7-0.1,0.9c0.1,0.2,0.4,0.4,0.7,0.6c0.6-0.2,1-0.3,1.5-0.5c2.2-1,4.3-2,6.4-2.9
			c2.9-1.4,5.9-2.8,8.8-4.1c1.1-0.5,2.3-1.1,3.4-1.6C1625,276.4,1625.3,276.2,1625.1,275.6z"/>
		<path class="st6" d="M1593.8,278.3c-1.2-3.2-2.5-6.4-3.7-9.6c-1.2-2.9-2.4-5.9-3.6-8.7c-0.2-0.3-0.2-1.1-0.9-1.1
			c-0.6,0-0.7,0.7-0.7,1.1c-0.1,0.3,0.1,0.8,0.2,1.1c2,5,4,10,6,15c0.5,1.2,0.9,2.5,1.4,3.8c0.2,0.6,0.5,1.1,1.1,0.8
			s0.8-0.7,0.7-1.4C1593.9,278.9,1593.8,278.6,1593.8,278.3z"/>
		<path class="st6" d="M1586.9,284.9c0.5,0.2,1.1,0.2,1.3-0.4c0.2-0.6,0-1-0.5-1.2c-0.2-0.2-0.6-0.3-0.8-0.4
			c-0.7-0.3-1.4-0.6-2.1-0.9c-5-2.1-10.1-4.2-15.1-6.2c-0.4-0.2-0.7-0.2-1.1-0.3c-0.8-0.1-1.3,0.3-1.1,0.8c0.1,0.3,0.6,0.7,0.9,0.8
			c5.4,2.3,10.8,4.6,16.3,6.9C1585.4,284.3,1586.1,284.7,1586.9,284.9z"/>
		<path class="st6" d="M1604.9,305c-1.1-2.4-2.1-4.8-3.2-7.3c-0.2-0.5-0.4-1.1-1.1-1.1c-0.7,0-0.9,0.4-0.9,1c0,0.3,0.2,0.6,0.2,0.9
			c2.4,5.2,4.8,10.4,7.3,15.7c0.3,0.7,0.7,1.4,1.1,2.1c0.2,0.4,0.6,0.8,1.1,0.5c0.2-0.2,0.4-0.7,0.4-1.1c0-0.3-0.2-0.7-0.4-1
			C1607.9,311.4,1606.4,308.3,1604.9,305z"/>
		<path class="st6" d="M1623.5,297.6c-0.1,0-0.2,0-0.2-0.1c-4.9-1.9-10-3.8-14.9-5.7c-1-0.4-1.9-0.8-3.1-1.2
			c-0.2,0.2-0.7,0.2-0.9,0.6c-0.2,0.4-0.1,0.9,0.4,1.1c0.4,0.2,0.8,0.4,1.2,0.6c5.7,2.1,11.4,4.2,17.1,6.4c0.6,0.2,1.1,0.4,1.5-0.3
			C1624.7,298.5,1624.4,298.1,1623.5,297.6z"/>
		<path class="st6" d="M1587.5,292.7c-0.2-0.7-0.9-0.8-2-0.2c-3.4,1.6-6.8,3.1-10.3,4.6c-2,0.9-4.1,1.6-6.2,2.4
			c-0.6,0.2-0.9,0.6-0.7,1.1c0.1,0.3,0.5,0.5,0.7,0.7c0.5-0.2,0.7-0.2,1.1-0.3c2-0.7,4-1.5,6-2.3c3.4-1.4,6.8-2.9,10.2-4.4
			C1587.4,293.6,1587.8,293.2,1587.5,292.7z"/>
		<path class="st6" d="M1592.7,296.4c-0.7-0.1-1,0.5-1.3,1.1c0,0,0,0.1,0,0.2c-2,5.3-4,10.5-6.1,15.8c-0.3,0.8-0.1,1.2,0.9,1.4
			c0.3-0.5,0.8-1.1,1.1-1.7c0.9-2.2,1.7-4.4,2.6-6.6c1.1-2.9,2.3-5.6,3.3-8.5C1593.4,297.2,1593.3,296.5,1592.7,296.4z"/>
		<path class="st7" d="M1563.3,299.3c-2-0.1-3.6,1.4-3.5,3.2c0.1,2.7,1.7,3.9,3.7,3.9c2,0.1,3.7-1.6,3.7-3.8
			C1567.1,300.5,1565.5,299.4,1563.3,299.3z"/>
		<path class="st7" d="M1583.7,315.9c-1.9,0-3.5,1.6-3.5,3.6c-0.2,2.1,1.9,3.3,3.3,3.4c2,0.1,3.7-1.6,3.8-3.3
			C1587.3,317.8,1585.5,315.8,1583.7,315.9z"/>
		<path class="st7" d="M1583.1,258c1.9,0,3.5-1.6,3.5-3.6c0-2-1.3-3.3-3.2-3.3c-1.9,0-3.6,1.6-3.6,3.8
			C1579.8,256.7,1581.1,258,1583.1,258z"/>
		<path class="st7" d="M1614.8,254.5c0.1-1.8-1.4-3.3-3.2-3.3c-1.7,0-3.5,1.9-3.5,3.8c-0.2,1.8,1.7,3.4,3.3,3.3
			C1613.4,258.2,1614.7,256.8,1614.8,254.5z"/>
		<path class="st7" d="M1629.9,297.4c-2.3,0-3.8,1.5-3.9,3.6c0,1.7,1.5,3.2,3.3,3.2s3.6-1.8,3.7-3.8
			C1633.1,298.9,1631.6,297.2,1629.9,297.4z"/>
		<path class="st7" d="M1612.3,318c-2.1,0-3.6,1.6-3.5,3.8c0,1.7,1.3,3.1,3,3.1c2,0,3.6-1.6,3.5-3.9
			C1615.3,319.4,1614,318.1,1612.3,318z"/>
		<path class="st7" d="M1629.6,277c1.9,0,3.7-1.6,3.7-3.5c0-1.8-1.2-3-3-3c-1.9,0-3.6,1.6-3.6,3.6
			C1626.6,275.7,1627.9,276.9,1629.6,277z"/>
		<path class="st7" d="M1562.5,277.6c1.7,0,3.3-1.7,3.3-3.7c0.1-1.7-1.2-3.1-2.8-3.1c-1.7,0-3.3,1.7-3.4,3.7
			C1559.6,276.3,1560.8,277.6,1562.5,277.6z"/>
		<path class="st4" d="M1628.3,258.1c-1,0.1-2,1-2,2c0,0.9,0.8,1.5,1.9,1.5c1,0,1.9-0.9,1.8-1.9
			C1629.9,258.7,1629.2,258,1628.3,258.1z"/>
		<path class="st4" d="M1598.3,328.7c-1.2,0-1.9,0.6-1.9,1.7c0,1.1,0.6,1.9,1.6,1.9c1,0,1.7-0.8,1.8-1.8
			C1599.8,329.3,1599.3,328.7,1598.3,328.7z"/>
		<path class="st4" d="M1597.6,246.8c0.3-0.9,0.2-1.7-0.7-2.2c0,0-0.9-0.2-1.4-0.1c-0.4,0.2-0.6,0.5-0.9,0.7c-0.9,1.1-0.3,2.4,1,2.6
			C1596.6,248,1597.2,247.7,1597.6,246.8z"/>
		<path class="st4" d="M1639.1,285.6c-0.9,0-1.9,0.9-1.9,1.9c-0.1,1,0.7,1.7,1.6,1.7c1.1,0.1,1.9-0.7,1.9-1.8
			C1640.6,286.4,1640,285.6,1639.1,285.6z"/>
		<path class="st4" d="M1627.8,316c-1.1,0-1.9,0.7-1.9,1.8c0,0.9,0.7,1.6,1.6,1.6c0.9,0,1.7-0.9,1.7-1.9
			C1629.1,316.7,1628.6,316.1,1627.8,316z"/>
		<path class="st4" d="M1566.4,316.1c-1,0.1-1.7,0.8-1.7,1.7c0,0.9,0.7,1.6,1.5,1.6c1,0,1.8-0.9,1.8-1.8
			C1567.9,316.7,1567.3,316,1566.4,316.1z"/>
		<path class="st4" d="M1567.4,258.1c-0.9-0.1-1.6,0.7-1.7,1.6c-0.1,1,0.6,1.6,1.5,1.6c0.9,0,1.6-0.7,1.7-1.6
			C1568.9,259,1568.3,258.2,1567.4,258.1z"/>
		<path class="st4" d="M1553.8,288.3c-0.2,0.2-0.3,0.5-0.5,0.7c-0.1-0.1-0.1-0.1-0.2-0.1c0,0.3,0,0.7,0,1.1c0.1,0,0.2,0,0.2-0.1
			c0,0.1,0,0.2,0.1,0.2c0.6,0.8,1.7,0.9,2.4,0.3c0.6-0.5,0.8-1.6,0.3-2.1C1555.6,287.9,1554.5,287.7,1553.8,288.3z"/>
		<path class="st4" d="M1598.2,288.5c0-0.8-0.8-1.7-1.6-1.6c-0.8,0-1.3,0.7-1.3,1.6c0,0.9,0.6,1.5,1.5,1.5
			S1598.3,289.3,1598.2,288.5z"/>
		<path class="st2" d="M1599.8,201.9c-0.9-0.9-2.8-0.7-3.6,0.4c-1,1.2-0.5,2.9,1.1,3.8c0,0.1,0,0.2,0,0.2c0.4,0,0.8,0.1,1.3,0.1
			c0-0.1,0-0.2,0-0.2c0.3-0.2,0.7-0.3,1-0.6C1600.8,204.3,1600.6,202.7,1599.8,201.9z"/>
		<path class="st2" d="M1598.7,187.7c1.1-0.2,1.5-0.9,1.9-1.9c0.2-1,0.2-2-0.7-2.6c-0.7-0.6-1.5-0.7-2.3-0.3
			c-0.9,0.4-1.3,1.1-1.2,2.1C1596,186.6,1597.1,188,1598.7,187.7z"/>
		<path class="st2" d="M1598.5,195c-1.2-0.1-2.2,1-2.4,2.3c-0.2,1.2,0.9,2.3,1.9,2.4c1.2,0.1,2.3-1,2.3-2.3
			C1600.6,196,1599.8,195.1,1598.5,195z"/>
		<path class="st2" d="M1598.2,181.3c1.1,0.1,2.1-0.9,2.2-2.2c0.1-1.2-0.7-2.4-1.7-2.4c-1.4-0.1-2.3,0.7-2.3,2.4
			C1596.2,180.3,1597,181.2,1598.2,181.3z"/>
		<path class="st2" d="M1598.2,193.3c1.2,0.1,2.2-0.8,2.2-2.3c0.1-1.2-0.6-2-1.9-2c-1.1-0.1-2.2,0.8-2.3,2
			C1596.1,192,1597.1,193.2,1598.2,193.3z"/>
		<path class="st2" d="M1598.5,169.8c1-0.2,1.5-0.9,1.9-1.9c0.2-1,0.2-2-0.7-2.6c-0.7-0.6-1.4-0.7-2.3-0.3c-0.9,0.4-1.3,1.1-1.2,2.1
			C1595.9,168.7,1597,170.1,1598.5,169.8z"/>
		<path class="st2" d="M1598.1,163.4c1.1,0.1,2.1-0.9,2.2-2.2c0.1-1.2-0.6-2.4-1.7-2.4c-1.4-0.1-2.3,0.7-2.3,2.4
			C1596.1,162.4,1596.9,163.3,1598.1,163.4z"/>
		<path class="st2" d="M1598.1,175.4c1.2,0.1,2.2-0.8,2.2-2.3c0.1-1.2-0.6-2-1.9-2c-1.1-0.1-2.2,0.8-2.3,2
			C1596,174.2,1597,175.3,1598.1,175.4z"/>
		<path class="st2" d="M1599,152.3c1.1-0.2,1.5-0.9,1.9-1.9c0.2-1,0.2-2-0.7-2.6c-0.7-0.6-1.5-0.7-2.3-0.3c-0.9,0.4-1.3,1.1-1.2,2.1
			C1596.4,151.2,1597.5,152.5,1599,152.3z"/>
		<path class="st2" d="M1598.6,145.9c1.1,0.1,2.1-0.9,2.2-2.2c0.1-1.2-0.6-2.4-1.7-2.4c-1.4-0.1-2.3,0.7-2.3,2.4
			C1596.6,144.9,1597.4,145.8,1598.6,145.9z"/>
		<path class="st2" d="M1598.6,157.8c1.2,0.1,2.2-0.8,2.2-2.3c0.1-1.2-0.6-2-1.9-2c-1.1-0.1-2.2,0.8-2.3,2
			C1596.5,156.7,1597.5,157.8,1598.6,157.8z"/>
		<path class="st2" d="M1599.4,134c1-0.2,1.5-0.9,1.9-1.9c0.2-1,0.2-2-0.7-2.6c-0.7-0.6-1.5-0.7-2.3-0.3c-0.9,0.4-1.3,1.1-1.2,2.1
			C1596.8,133,1597.9,134.3,1599.4,134z"/>
		<path class="st2" d="M1598.9,127.7c1.2,0.1,2.1-0.9,2.2-2.2c0.1-1.2-0.7-2.4-1.7-2.4c-1.4-0.1-2.3,0.7-2.4,2.4
			C1597,126.7,1597.7,127.6,1598.9,127.7z"/>
		<path class="st2" d="M1599,139.6c1.2,0.1,2.2-0.8,2.2-2.3c0.1-1.2-0.6-2-1.9-2c-1.1-0.1-2.2,0.8-2.3,2
			C1596.9,138.4,1597.9,139.6,1599,139.6z"/>
	</g>
</g>
</svg>
