<?xml version="1.0" encoding="utf-8"?>
<!-- Generator: Adobe Illustrator 25.0.1, SVG Export Plug-In . SVG Version: 6.00 Build 0)  -->
<svg version="1.1" id="Layer_1" xmlns="http://www.w3.org/2000/svg" xmlns:xlink="http://www.w3.org/1999/xlink" x="0px" y="0px"
	 viewBox="0 0 759 493" style="enable-background:new 0 0 759 493;" xml:space="preserve">
<style type="text/css">
	.st0{fill:#064A42;}
	.st1{clip-path:url(#SVGID_2_);}
	.st2{fill:#FFA194;}
	.st3{fill:#FFE0BF;}
	.st4{fill:#372F2C;}
	.st5{fill:#F8543C;}
	.st6{fill:#FFB674;}
	.st7{fill:#35837A;}
</style>
<path class="st0" d="M418,12.7c-278-29-371.8,11.9-448,47l3.1,435.2H765V59.4C636.3,42.4,522.5,23.6,418,12.7z"/>
<g>
	<defs>
		<rect id="SVGID_1_" x="45.8" y="12" width="150.8" height="315"/>
	</defs>
	<clipPath id="SVGID_2_">
		<use xlink:href="#SVGID_1_"  style="overflow:visible;"/>
	</clipPath>
	<g class="st1">
		<path class="st2" d="M122.9,326.4c-2,0-4.1,0-6.1,0c-0.5-0.1-0.9-0.2-1.4-0.2c-2.5-0.1-5-0.2-7.5-0.5c-5.4-0.6-10.6-1.9-15.7-4.2
			c-6.5-2.9-12.3-6.5-17.7-11.2c-5.6-4.9-10.7-10.5-14.6-16.9c-3.1-4.9-5-10.4-6.6-15.9c-1.3-4.8-2.4-9.8-2.6-14.7
			c-0.2-6.2-0.4-12.3,0.8-18.5c1.3-7.5,3.7-14.6,7.4-21.2c4.4-7.7,10.2-14.5,16.8-20.5c6.5-5.9,13.9-10,22.1-12.9
			c2-0.7,4.1-1.3,6.1-2.1c0.6-2.7,1.2-5.3,1.8-8c0.7-3,1.8-4,4.9-4.2c1.7-0.1,3.3-0.2,5-0.5c5.6-0.7,11.2-0.6,17-0.6
			c3.1,0,4.9,1.9,5.1,4.8c0.4,2.8,0.7,5.7,1.2,8.4c0.1,0.6,0.4,1.2,0.5,1.8c1.1,0.1,1.9,0.4,2.9,0.5c4.5,0.8,8.6,2.7,12.8,4.6
			c10.8,4.9,19.9,11.8,26.6,21.8c7,10.4,10.9,21.7,11.3,34.3c0.1,4,0,8-0.1,12.1c-0.1,2.3-0.2,4.7-0.7,7c-0.9,4-2,8-3.5,11.8
			c-2.5,6.9-5.8,13.3-10.5,18.8c-8.5,9.9-18.6,17.4-30.9,21.5c-7.5,2.5-15.2,4.5-23.2,4.5C123.8,326.2,123.4,326.4,122.9,326.4z"/>
		<path class="st3" d="M117.9,290.1c-1.3-0.2-2.6-0.5-3.9-0.7c-5.5-1-10.4-3.3-14.6-6.9c-6.3-5.3-10.1-12.1-11.1-20.4
			c-1.3-9.7,1.3-18.3,7.2-25.8c5.3-6.8,12.3-11.2,20.7-12.8c8.1-1.4,16.3-0.7,23.7,3.6c6.6,3.7,11.3,9.2,14,16.3
			c1.9,4.7,2.5,9.7,2,14.7c-0.6,6.4-2.9,12.3-6.8,17.6c-3.7,5.1-8.5,8.8-14.1,11.3c-3.6,1.6-7.3,2.7-11.3,2.9c-0.4,0-0.7,0.2-1,0.4
			C121.1,290.2,119.5,290.1,117.9,290.1z"/>
		<path class="st4" d="M119.2,138.1c1.8-0.1,3.6-0.1,5.3,0c3.3,0.4,6.2,2.2,8.4,4.8c4.9,6.2,3.9,14-1.3,19.8
			c-0.7,0.8-1.7,1.6-2.6,2.5c0.6,0.1,1.1,0.1,1.4,0.1c3.1,0.1,6.2,0.2,9.2,0.4c1.7,0.1,3,1.1,2.9,3c-0.1,4.3,0,8.8,0,13.2
			c0,1.9-0.5,2.5-2.4,2.8c-3.9,0.6-7.5-0.1-10.3-3.4c-0.2-0.4-0.6-0.6-0.8-1c-5.1,5.8-13.6,6-17.5,1c-1.4,2.4-3.6,3.7-6.1,4.5
			c-0.5,0.1-0.8,0.2-1.3,0.2c-3.6,0.1-3.8-0.6-3.9-3.5c-0.1-4.1-0.2-8.2-0.2-12.4c0-2.5,0.6-3.4,3.1-3.7c2.9-0.4,5.8-0.5,8.6-0.6
			c0.7,0,1.3,0,2.4,0c-0.6-0.5-0.8-0.7-1.1-1c-5.7-3.4-6.8-10.9-5-15.9c1.1-3.1,2.9-5.9,5.5-8.1
			C115.1,139.3,117.2,138.4,119.2,138.1z M133.1,152.9c0-4.2-1.9-8.1-4.7-9.9c-5.3-3.5-13.1-2.8-16.5,4c-0.4,0.7-0.7,1.4-1.1,2.2
			c-2.2,5.2-0.4,10.9,4.5,13.6c0.8,0.5,1.7,0.8,2.5,1.2c2.5,1.1,4.9,1,7.3-0.2C130,161.4,132.5,157.4,133.1,152.9z"/>
		<path class="st5" d="M124.3,284.5c-0.2-5.3-0.5-10.6-0.8-15.9c-0.1-1.7-0.5-3.4-0.7-5.1c-0.1-1-0.6-1.8-1.8-1.8
			c-1,0-1.7,0.7-1.8,1.9c-0.2,2.3-0.6,4.6-0.7,6.9c-0.4,4.9-0.5,9.9-0.7,14.8c0,7.1,0,14.2,1.3,21.2c0.4,1.8,1.1,3.7,1.7,5.4
			c0.4,0.8,1.1,1.3,2,1.2c1-0.1,1.6-0.8,1.7-1.7c0.2-0.8,0.4-1.8,0.5-2.8c0-4.5,0.1-8.9,0-13.3C124.8,291.9,124.5,288.3,124.3,284.5
			z"/>
		<path class="st5" d="M131.2,262.9c-1.2-1-2.5-1.9-3.8-2.8c-0.6-0.5-1.4-0.6-1.9,0.1c-0.4,0.6-0.5,1.4-0.4,2.2
			c0,0.5,0.5,0.8,0.8,1.3c5.6,7,11.5,13.9,18.1,20c3.7,3.5,7.8,6.5,11.7,9.8c1,0.7,2.2,1.3,3.4,1.6c1.3,0.2,2-0.5,2-1.8
			c0-1.4-1.1-2.4-1.9-3.4C150.1,280.4,141.1,271.1,131.2,262.9z"/>
		<path class="st5" d="M107.2,258.3c2.3-0.2,4.5-0.4,6.8-0.6c0.8-0.1,1.6-0.4,1.7-1.4c0-1-0.7-1.3-1.6-1.4c-1.1-0.1-2-0.4-3.1-0.4
			c-5.3-0.2-10.7-0.6-15.9-0.7c-3-0.1-6,0-9.1,0.1c-3.9,0.1-7.9,0.2-11.8,0.4c-1.1,0-2.3,0.1-3.4,0.5c-1.3,0.4-2.6,0.7-3.8,1.4
			c-1.7,1.1-1.6,3,0.4,3.9c0.8,0.4,1.8,0.5,2.6,0.6c1.8,0.1,3.6,0,5.4,0c0,0,0,0,0,0.1c3.9-0.1,8-0.2,12-0.5
			C94.1,259.7,100.7,258.9,107.2,258.3z"/>
		<path class="st5" d="M118.3,245.4c0.1,1.6,0.4,3,0.6,4.5c0.1,1,0.8,1.2,1.8,1.1c1.2-0.2,1.6-0.6,1.6-2.3c0-5.7,0.1-11.5,0.1-17.1
			c0,0,0-15.1-0.2-22.7c-0.1-2.1-0.6-4-1.1-6c-0.2-1-0.7-1.8-1.8-1.8c-1.2-0.1-1.6,0.8-1.9,1.7c-0.2,0.6-0.4,1.1-0.5,1.7
			c-0.2,3.3-0.5,6.5-0.5,9.7c0.1,5.6,0.4,11.1,0.7,16.7C117.3,235.6,117.8,240.6,118.3,245.4z"/>
		<path class="st5" d="M114.3,247.1c-7.3-8.8-14.8-17.3-23.3-24.9c-1.6-1.4-3.2-2.8-4.9-4c-0.7-0.6-1.8-0.8-2.3-1.1
			c-2.3,0-3.2,1.4-2.2,3c0.8,1.2,2,2.3,3.1,3.4c9.6,9.4,19.1,18.8,28.9,28.1c0.4,0.4,0.7,0.7,1.2,1c0.8,0.4,1.7,0.5,2.4-0.4
			c0.6-0.7,0.4-1.4-0.2-2.2C116,249.2,115.1,248.1,114.3,247.1z"/>
		<path class="st5" d="M176.3,253.6c-0.7-0.4-1.4-0.7-2.2-0.8c-2.5-0.4-4.9-0.7-7.4-0.7c-3.6,0-7.2,0.1-10.9,0.4
			c-1.9,0.1-3.8,0.4-5.6,0.6c-4.6,0.4-9,0.8-13.5,1.2c-2.5,0.2-5.1,0.5-7.7,0.7c-1,0.1-1.8,1.1-1.8,2.1c0,1.2,1,1.2,1.8,1.4
			c0.5,0.1,1,0.1,1.4,0.1c5.3-0.1,10.5-0.4,15.8-0.5c5.7-0.1,11.6-0.2,17.4-0.4c0,0.1,7.9-0.1,11.8-0.2c1,0,1.7-0.4,2-1.3
			C177.6,255,177.3,254.1,176.3,253.6z"/>
		<path class="st5" d="M114.8,260.1c-0.5,0.1-0.8,0.6-1.3,0.8c-3.9,3.1-7.9,6.2-11.7,9.4c-5.8,4.8-11.4,9.8-17,14.8
			c-1.7,1.6-3,3.5-4.4,5.3c-0.5,0.6-0.7,1.4-0.9,2.1c-0.1,2.3,1.7,2.8,3.1,1.9c1-0.6,1.9-1.2,2.6-2.1c10.2-9.8,20.3-19.6,30.7-29.3
			c0.4-0.4,0.8-0.8,0.9-1.2c0.1-0.5,0-1.3-0.2-1.6C116,260.1,115.3,260,114.8,260.1z"/>
		<path class="st5" d="M127.2,252.4c0.1-0.1,0.2-0.2,0.5-0.4c3.4-3.1,6.8-6.3,10.2-9.4c2.6-2.4,5.3-4.8,7.9-7.2
			c4.9-4.3,9.8-8.6,14.7-12.9c0.7-0.6,1.3-1.3,1.7-2.2c0.7-1.6-0.1-2.9-2-3c-0.4,0.1-1.1,0.1-1.6,0.5c-1.8,1.2-3.6,2.3-5.1,3.7
			c-7.3,6.4-14.1,13.4-20.7,20.4c-2.6,2.8-5,5.7-7.5,8.4c-0.6,0.7-1.2,1.4-0.2,2.3C125.7,253.3,126.5,252.9,127.2,252.4z"/>
		<path class="st6" d="M126.6,244.7c2.3-5.3,4.6-10.5,7-15.8c1.7-3.6,3.3-7.4,4.9-11c0.4-0.7,0.6-1.6,0.9-2.5c-0.2-0.4-0.5-1-0.8-1
			c-0.5-0.1-1.1,0-1.4,0.4c-0.4,0.4-0.6,0.8-0.7,1.3c-4.1,9.2-8.3,18.2-12.3,27.4c-0.7,1.4-0.6,2.4,0.2,2.8
			C125.3,246.7,125.9,246.3,126.6,244.7z"/>
		<path class="st6" d="M162.8,237.7c-0.4-0.7-1-1.1-1.8-0.7c-0.1,0.1-0.4,0.1-0.6,0.2c-9.2,4.1-18.4,8.2-27.7,12.4
			c-0.5,0.2-1,0.5-1.2,0.8c-0.2,0.4-0.4,1-0.1,1.3c0.1,0.4,0.6,0.6,1,0.8c0.8-0.2,1.6-0.5,2.2-0.7c3.2-1.4,6.3-2.9,9.4-4.3
			c4.3-2.1,8.7-4.1,13-6c1.7-0.7,3.4-1.6,5-2.3C162.7,238.9,163.1,238.5,162.8,237.7z"/>
		<path class="st6" d="M116.4,241.7c-1.8-4.7-3.7-9.4-5.5-14.2c-1.8-4.3-3.6-8.7-5.4-12.9c-0.3-0.5-0.4-1.7-1.3-1.7
			c-0.8,0-1.1,1.1-1.1,1.6c-0.1,0.5,0.1,1.2,0.4,1.7c3,7.4,6,14.8,8.9,22.2c0.7,1.8,1.3,3.7,2,5.6c0.2,0.8,0.7,1.6,1.7,1.2
			c1-0.4,1.2-1.1,1-2.1C116.7,242.5,116.6,242.2,116.4,241.7z"/>
		<path class="st6" d="M106.3,251.5c0.7,0.2,1.6,0.2,1.9-0.6c0.4-0.8,0-1.4-0.7-1.8c-0.4-0.2-0.8-0.5-1.2-0.6
			c-1.1-0.5-2-0.8-3.1-1.3c-7.4-3.1-15-6.2-22.4-9.2c-0.6-0.2-1.1-0.4-1.6-0.5c-1.2-0.1-1.9,0.5-1.7,1.2c0.1,0.5,0.8,1,1.3,1.2
			c8,3.4,16,6.8,24.1,10.1C104.1,250.5,105.1,251.1,106.3,251.5z"/>
		<path class="st6" d="M133,281.1c-1.7-3.5-3.1-7.1-4.7-10.7c-0.4-0.7-0.6-1.7-1.7-1.6c-1.1,0-1.3,0.6-1.3,1.4
			c0,0.5,0.2,0.8,0.4,1.3c3.6,7.7,7.2,15.4,10.8,23.2c0.5,1.1,1.1,2.1,1.7,3.1c0.4,0.6,0.8,1.2,1.6,0.7c0.4-0.4,0.6-1.1,0.6-1.7
			c0-0.5-0.4-1-0.6-1.4C137.4,290.7,135.1,286,133,281.1z"/>
		<path class="st6" d="M160.4,270.3c-0.1,0-0.2,0-0.4-0.1c-7.3-2.8-14.7-5.6-22-8.4c-1.4-0.6-2.9-1.2-4.5-1.8
			c-0.4,0.2-1,0.4-1.3,0.8c-0.4,0.6-0.1,1.3,0.6,1.7c0.6,0.4,1.2,0.6,1.8,0.8c8.4,3.1,16.9,6.3,25.3,9.4c0.8,0.4,1.7,0.6,2.1-0.5
			C162.2,271.5,161.7,270.9,160.4,270.3z"/>
		<path class="st6" d="M107.2,262.9c-0.4-1.1-1.3-1.2-3-0.4c-5,2.3-10.1,4.6-15.2,6.8c-3,1.3-6.1,2.4-9.2,3.6
			c-0.8,0.4-1.3,0.8-1,1.6c0.1,0.5,0.7,0.7,1.1,1c0.7-0.2,1.1-0.4,1.6-0.5c3-1.1,5.9-2.2,8.9-3.4c5-2.1,10.1-4.3,15.1-6.5
			C107,264.4,107.6,263.8,107.2,262.9z"/>
		<path class="st6" d="M114.9,268.5c-1.1-0.1-1.6,0.7-1.9,1.6c0,0,0,0.1,0,0.2c-3,7.8-6,15.6-9,23.4c-0.5,1.2-0.1,1.8,1.3,2.1
			c0.5-0.7,1.2-1.6,1.6-2.5c1.3-3.3,2.5-6.5,3.8-9.8c1.7-4.2,3.3-8.3,4.9-12.6C116,269.7,115.7,268.6,114.9,268.5z"/>
		<path class="st7" d="M71.4,272.7c-3-0.1-5.3,2.1-5.1,4.7c0.1,4,2.5,5.8,5.4,5.8c3,0.1,5.5-2.4,5.5-5.6
			C77.1,274.5,74.7,272.8,71.4,272.7z"/>
		<path class="st7" d="M101.6,297.3c-2.9,0-5.1,2.3-5.1,5.3c-0.4,3.1,2.8,4.9,4.9,5.1c3,0.1,5.5-2.4,5.6-4.9
			C106.9,300.1,104.2,297.2,101.6,297.3z"/>
		<path class="st7" d="M100.7,211.6c2.8,0,5.1-2.4,5.1-5.3c0-2.9-1.9-4.8-4.8-4.9c-2.9,0-5.3,2.4-5.3,5.6
			C95.7,209.7,97.7,211.6,100.7,211.6z"/>
		<path class="st7" d="M147.6,206.4c0.1-2.7-2-4.8-4.7-4.9c-2.5,0-5.1,2.8-5.1,5.6c-0.4,2.7,2.5,5.1,4.9,4.9
			C145.5,212,147.5,209.8,147.6,206.4z"/>
		<path class="st7" d="M170,269.9c-3.4,0-5.6,2.2-5.8,5.3c0,2.5,2.2,4.7,4.9,4.7c2.8,0,5.4-2.7,5.5-5.6
			C174.6,272.1,172.4,269.6,170,269.9z"/>
		<path class="st7" d="M143.9,300.5c-3.1,0-5.3,2.3-5.1,5.7c0,2.5,1.9,4.6,4.4,4.6c3,0,5.3-2.4,5.2-5.8
			C148.3,302.5,146.4,300.6,143.9,300.5z"/>
		<path class="st7" d="M169.5,239.7c2.9,0,5.4-2.3,5.4-5.2c0-2.7-1.8-4.5-4.4-4.5c-2.9,0-5.3,2.4-5.3,5.3
			C165.1,237.8,167,239.6,169.5,239.7z"/>
		<path class="st7" d="M70.2,240.7c2.5,0,4.9-2.5,4.9-5.4c0.1-2.5-1.8-4.6-4.2-4.6c-2.5,0-4.9,2.5-5,5.4
			C65.9,238.7,67.7,240.7,70.2,240.7z"/>
		<path class="st4" d="M167.6,211.8c-1.6,0.1-3,1.4-3,2.9c0,1.3,1.2,2.3,2.8,2.3c1.6,0,2.8-1.3,2.6-2.8
			C170,212.7,168.9,211.6,167.6,211.8z"/>
		<path class="st4" d="M123.2,316.1c-1.8,0-2.8,0.8-2.8,2.5c0,1.7,1,2.8,2.4,2.8c1.4,0,2.5-1.2,2.6-2.7
			C125.4,317.1,124.6,316.1,123.2,316.1z"/>
		<path class="st4" d="M122.1,195.1c0.5-1.3,0.2-2.5-1.1-3.3c0,0-1.3-0.4-2-0.1c-0.6,0.2-1,0.7-1.3,1.1c-1.3,1.6-0.5,3.5,1.4,3.9
			C120.6,196.9,121.6,196.4,122.1,195.1z"/>
		<path class="st4" d="M183.5,252.4c-1.3,0-2.8,1.3-2.9,2.8c-0.1,1.4,1,2.5,2.4,2.5c1.7,0.1,2.8-1,2.8-2.7
			C185.8,253.6,184.8,252.4,183.5,252.4z"/>
		<path class="st4" d="M166.7,297.4c-1.6,0-2.9,1.1-2.8,2.7c0,1.3,1.1,2.4,2.4,2.3c1.3,0,2.5-1.3,2.5-2.8
			C168.8,298.4,167.9,297.6,166.7,297.4z"/>
		<path class="st4" d="M76,297.6c-1.4,0.1-2.5,1.2-2.5,2.5c0,1.3,1,2.3,2.3,2.3c1.4,0,2.6-1.3,2.6-2.7
			C78.3,298.4,77.3,297.4,76,297.6z"/>
		<path class="st4" d="M77.4,211.9c-1.3-0.1-2.4,1-2.5,2.4c-0.1,1.4,0.8,2.4,2.3,2.4c1.3,0,2.4-1,2.5-2.3
			C79.7,213.1,78.7,212,77.4,211.9z"/>
		<path class="st4" d="M57.4,256.5c-0.4,0.2-0.5,0.7-0.7,1.1c-0.1-0.1-0.1-0.1-0.3-0.1c0,0.5,0,1.1,0,1.6c0.1,0,0.3,0,0.3-0.1
			c0,0.1,0,0.2,0.1,0.4c0.8,1.2,2.5,1.3,3.6,0.5c0.9-0.7,1.2-2.3,0.5-3.1C60.1,255.8,58.4,255.6,57.4,256.5z"/>
		<path class="st4" d="M123,256.8c0-1.2-1.2-2.5-2.4-2.4c-1.2,0-1.9,1-1.9,2.3c0,1.3,0.8,2.3,2.2,2.3S123.2,258,123,256.8z"/>
		<path class="st2" d="M125.3,128.7c-1.3-1.3-4.1-1-5.3,0.6c-1.4,1.8-0.7,4.2,1.7,5.6c0,0.1,0,0.2,0,0.2c0.6,0,1.2,0.1,1.9,0.1
			c0-0.1,0-0.2,0-0.4c0.5-0.2,1.1-0.5,1.4-0.8C126.9,132.2,126.5,129.9,125.3,128.7z"/>
		<path class="st2" d="M123.8,107.7c1.6-0.2,2.3-1.3,2.8-2.8c0.4-1.4,0.4-2.9-1-3.9c-1.1-0.8-2.1-1-3.3-0.5
			c-1.3,0.6-1.9,1.7-1.8,3.1C119.8,106,121.4,108.1,123.8,107.7z"/>
		<path class="st2" d="M123.5,118.5c-1.8-0.1-3.2,1.4-3.6,3.4c-0.2,1.8,1.3,3.4,2.9,3.5c1.8,0.1,3.4-1.4,3.5-3.4
			C126.5,120,125.3,118.6,123.5,118.5z"/>
		<path class="st2" d="M123,98.2c1.7,0.1,3.1-1.3,3.2-3.3c0.1-1.8-1-3.5-2.5-3.6c-2-0.1-3.4,1.1-3.5,3.5
			C120,96.7,121.2,98.1,123,98.2z"/>
		<path class="st2" d="M123,115.9c1.8,0.1,3.2-1.2,3.2-3.4c0.1-1.8-0.8-2.9-2.9-3c-1.7-0.1-3.2,1.2-3.5,2.9
			C119.9,114.1,121.4,115.8,123,115.9z"/>
		<path class="st2" d="M123.5,81.3c1.6-0.2,2.3-1.3,2.8-2.8c0.4-1.4,0.4-2.9-1-3.9c-1.1-0.8-2.1-1-3.3-0.5c-1.3,0.6-1.9,1.7-1.8,3.1
			C119.7,79.6,121.2,81.7,123.5,81.3z"/>
		<path class="st2" d="M122.9,71.8c1.7,0.1,3.1-1.3,3.2-3.3c0.1-1.8-1-3.5-2.5-3.6c-2-0.1-3.4,1.1-3.5,3.5
			C119.9,70.3,121.1,71.6,122.9,71.8z"/>
		<path class="st2" d="M122.9,89.5c1.8,0.1,3.2-1.2,3.2-3.4c0.1-1.8-0.8-2.9-2.9-3c-1.7-0.1-3.2,1.2-3.5,2.9
			C119.8,87.7,121.2,89.4,122.9,89.5z"/>
		<path class="st2" d="M124.2,55.4c1.6-0.2,2.3-1.3,2.8-2.8c0.4-1.4,0.4-2.9-1-3.9c-1.1-0.8-2.2-1-3.4-0.5c-1.3,0.6-1.9,1.7-1.8,3.1
			C120.4,53.7,122,55.7,124.2,55.4z"/>
		<path class="st2" d="M123.6,45.8c1.7,0.1,3.1-1.3,3.2-3.3c0.1-1.8-0.9-3.5-2.5-3.6c-2-0.1-3.3,1.1-3.5,3.5
			C120.6,44.4,121.8,45.7,123.6,45.8z"/>
		<path class="st2" d="M123.6,63.6c1.8,0.1,3.2-1.2,3.2-3.4c0.1-1.8-0.8-2.9-2.9-3c-1.7-0.1-3.2,1.2-3.5,2.9
			C120.5,61.9,122,63.4,123.6,63.6z"/>
		<path class="st2" d="M124.8,28.3c1.4-0.2,2.3-1.3,2.8-2.8c0.4-1.4,0.4-2.9-1-3.9c-1.1-0.8-2.1-1-3.3-0.5c-1.3,0.6-1.9,1.7-1.8,3.1
			C121,26.8,122.6,28.8,124.8,28.3z"/>
		<path class="st2" d="M124.1,18.9c1.8,0.1,3.1-1.3,3.2-3.3c0.1-1.8-1-3.5-2.5-3.6c-2-0.1-3.4,1.1-3.5,3.5
			C121.2,17.5,122.3,18.8,124.1,18.9z"/>
		<path class="st2" d="M124.2,36.6c1.8,0.1,3.2-1.2,3.2-3.4c0.1-1.8-0.8-2.9-2.9-3c-1.7-0.1-3.2,1.2-3.5,2.9
			C121.1,34.8,122.6,36.5,124.2,36.6z"/>
	</g>
</g>
</svg>
