<?xml version="1.0" encoding="utf-8"?>
<!-- Generator: Adobe Illustrator 25.0.1, SVG Export Plug-In . SVG Version: 6.00 Build 0)  -->
<svg version="1.1" id="Layer_1" xmlns="http://www.w3.org/2000/svg" xmlns:xlink="http://www.w3.org/1999/xlink" x="0px" y="0px"
	 viewBox="0 0 1175 431" style="enable-background:new 0 0 1175 431;" xml:space="preserve">
<style type="text/css">
	.st0{fill:#FFFFFF;}
	.st1{clip-path:url(#SVGID_2_);}
	.st2{fill:#3BB59E;}
	.st3{fill:#FFA194;}
	.st4{fill:#F8543C;}
	.st5{fill:#D23D27;}
	.st6{fill:#FFE0BF;}
	.st7{fill:#35837A;}
</style>
<path class="st0" d="M441,57.7c-278-29-371.8,11.9-448,47L-3.9,430H1174V138.6C870.7,127.6,639.2,78.4,441,57.7z"/>
<g>
	<defs>
		<rect id="SVGID_1_" x="385" y="60" width="156.4" height="361"/>
	</defs>
	<clipPath id="SVGID_2_">
		<use xlink:href="#SVGID_1_"  style="overflow:visible;"/>
	</clipPath>
	<g class="st1">
		<path class="st2" d="M445.8,403.8c11.7,1.6,23-0.5,34.7-2.4c0.2-0.6,0.5-1.6,0.9-2.5c0.8-1.9,2.2-2.5,3.9-2
			c1.4,0.5,2.2,1.7,1.7,3.6c-0.9,4.9-2.5,9.5-5.7,13.2c-3,3.6-6.9,5.5-11.5,6.5c-6.5,1.6-12.8,0.9-18.9-1.4
			c-3.6-1.4-6.3-3.9-8.5-7.1c-1.9-3-2.4-6.1-2-9.6c0.2-1.7,1.4-3,2.8-3.3c2-0.3,3.3,0.9,3,3C446.3,402.4,446,403,445.8,403.8z"/>
		<path class="st3" d="M461.4,406.4c-10.7,0.5-21.1-1.1-31-4.6c-9.8-3.3-19.2-7.6-27.4-13.9c-7.7-5.8-14-12.9-17-22.4
			c-0.3-0.9-0.6-1.9-0.8-2.8c-0.3-2.7-0.2-5,1.7-7.4c6.9-8.7,11.8-18.4,16.2-28.5c3.8-8.8,6.8-17.8,8.7-27.2
			c1.3-6.1,2-12.3,3.2-18.4c0.9-6.3,1.7-12.6,2.8-18.9c1.3-7.4,2.4-14.6,4.1-21.9c2-8.2,6-15.4,12.8-20.8c4.1-3.3,9.3-5,14.3-6.3
			c7.1-1.7,14.2-2.7,21.4-2.2c8.7,0.5,17,2,24.6,6.9c5.8,3.8,9.9,9,12.3,15.3c2.7,7.1,3.9,14.5,4.3,22.1c0.3,6.6,0.9,13.2,1.9,19.8
			c2.5,16.1,6.8,31.7,11.2,47.3c1.9,6.6,4.9,12.9,7.6,19.2c2.7,6.5,5.8,12.8,8.8,18.9c0.9,1.9,0.8,3.8,0,5.5
			c-2.7,5.5-6.1,10.6-10.9,14.5c-4.3,3.5-8.3,7.1-12.8,10.1c-9,6.1-18.9,9.9-29.5,12.4C479,405.2,470.2,406.7,461.4,406.4z"/>
		<path class="st4" d="M463,282.2c1.6,0,3.3,0,4.9,0c2.2,0.5,4.6,0.8,6.6,1.6c18.7,6.5,22.8,29.3,9.3,42.5
			c-9.6,9.3-24.6,10.2-34.7,2.5c-14.3-11-13.1-32.8,2.5-42.4C455.2,284.3,459,283,463,282.2z"/>
		<path class="st5" d="M419.2,307.4c0.9-1.4,3-1.7,4.6-1.9c8.2-0.9,16.5-0.9,24.7,0c0.9,0.2,1.9,0.5,2.8,0.8
			c1.1,0.5,1.9,1.3,1.7,2.5c-0.2,1.4-1.1,1.9-2.4,2c-3.9,0.3-7.7,0.8-11.7,0.6c-5.7-0.2-11.5-0.8-17.2-1.3c-0.9-0.2-2.2-0.2-2.7-0.9
			C418.7,308.9,418.7,307.9,419.2,307.4z"/>
		<path class="st5" d="M479.2,315c0.5,0.3,1.6,0.6,2.5,1.3c3.2,2.4,6.3,4.9,9.3,7.6c4.4,4.1,8.5,8.3,12.8,12.8
			c1.9,1.9,2,3.5,1.1,4.7c-0.9,0.9-2.7,0.9-4.7-0.3c-6-4.1-11.5-8.8-16.4-14c-1.9-2-3.8-4.1-5.5-6.1c-0.6-0.8-1.3-1.7-1.6-2.7
			C476,316.3,477,315,479.2,315z"/>
		<path class="st5" d="M498.4,269c-0.3,1.4-1.4,3.6-3,5.4c-6,6.8-12.1,13.2-18.1,19.7c-0.5,0.5-0.9,0.9-1.6,1.3
			c-0.9,0.5-2,0.6-2.7-0.3c-0.3-0.5-0.3-1.6,0.2-2.2c1.9-3,3.8-6,6.1-8.8c4.4-5.4,9.1-10.6,13.7-15.9c0.6-0.8,1.4-1.4,2.2-1.9
			C496.8,265.4,499,266.3,498.4,269z"/>
		<path class="st5" d="M469.6,335.3c-0.3,5.8-0.2,9-0.5,14.3c0,0.5-0.5,3.2-0.6,3.5c-0.5,0.6-1.1,1.4-1.7,1.4s-1.6-0.6-1.7-1.3
			c-0.6-2.2-1.3-4.6-1.6-6.8c-0.9-7.9-0.9-15.9,0.3-23.8c0-0.3,0.2-0.6,0.2-0.9c0.3-1.3,0.8-2.7,2.4-2.5c1.6,0,1.9,1.3,2,2.7
			C468.6,326.5,469.1,331.2,469.6,335.3z"/>
		<path class="st5" d="M454.3,320c-0.2,0.3-0.3,0.9-0.8,1.4c-0.8,1.1-1.7,2.4-2.8,3.5c-5.7,5.4-11.5,10.7-17.3,16.1
			c-0.6,0.6-1.4,1.1-2.2,1.6c-0.9,0.6-2,0.8-3,0.2c-1.1-0.9-0.6-1.9,0-2.8c1.6-2,3-4.3,4.9-6.1c4.7-4.7,9.5-9.3,14.5-13.9
			c1.3-1.1,2.8-1.7,4.4-2.2C453.5,317.4,454.5,318.5,454.3,320z"/>
		<path class="st5" d="M486.4,306.2c-1.7,0-3.5-0.2-5-0.2c-1.4-0.2-2.5-0.9-2.7-2.4c-0.2-1.6,0.9-2.2,2.2-2.5
			c1.9-0.5,3.8-0.9,5.7-1.1c6.8-0.5,13.5-0.9,20.3-1.4c0.9,0,1.7,0,2.7,0.2c1.1,0.2,1.9,0.5,2.2,1.6c0.2,1.3-0.5,2-1.6,2.5
			c-1.7,0.6-3.3,1.3-5.2,1.4C498.9,305.1,486.4,306.3,486.4,306.2z"/>
		<path class="st5" d="M466.7,292.2c0,0.9-0.3,1.9-0.8,2.8c-0.9,1.7-2.7,1.7-3.6,0c-0.3-0.5-0.5-1.1-0.6-1.6
			c-1.4-8.5-1.9-17-0.2-25.4c0.3-1.3,0.6-2.4,1.1-3.5c0.3-0.6,1.3-1.4,1.9-1.4s1.6,0.9,1.7,1.7c0.5,1.6,0.5,3.2,0.6,4.7
			c0.2,1.1,0,2.2,0,3.5C467.5,272.9,467.1,285.9,466.7,292.2z"/>
		<path class="st5" d="M432.1,272c0.6,0.3,1.6,0.6,2.2,1.3c2.4,2,4.7,4.1,6.8,6.3c4.3,4.7,8.2,9.6,12.4,14.5c0.5,0.6,0.9,1.3,1.4,2
			c0.8,1.1,1.4,2.2,0.3,3.3c-1.1,1.1-2.2,0-3-0.6c-2.8-2.5-5.8-5-8.3-7.9c-4.3-4.4-8.3-9.1-12.4-13.7c-0.6-0.8-1.3-1.9-1.4-3
			C429.7,272.9,430.5,272.2,432.1,272z"/>
		<path class="st6" d="M466.1,304c2,0,3.8,1.7,3.8,3.8c0,2-1.7,3.6-3.8,3.6c-2.2,0-3.5-1.1-3.5-3.3C462.5,305.7,464.1,304,466.1,304
			z"/>
		<path class="st6" d="M426.7,288.2c1.6,0,2.8,1.4,2.8,3c0,1.4-1.7,3.3-3,3.3c-1.6,0-2.8-1.4-2.8-3.3
			C423.9,289.5,425,288.2,426.7,288.2z"/>
		<path class="st6" d="M449.9,272.8c-1.4,0-2.8-1.1-2.8-2.7c0-1.7,1.3-3.2,2.8-3.2c1.4,0,2.8,1.3,3,2.7
			C453,271.4,451.6,272.8,449.9,272.8z"/>
		<path class="st6" d="M501.7,314.2c1.6,0,2.8,1.1,3,2.7c0.2,1.7-1.4,3.3-3.2,3.3c-1.3,0-2.5-1.3-2.7-2.4
			C498.7,315.8,500,314.4,501.7,314.2z"/>
		<path class="st6" d="M445.5,344.9c0-1.7,1.3-3.2,3-3.2c1.4,0,2.8,1.4,2.8,2.7s-1.7,3-3,3.2C446.7,347.6,445.5,346.3,445.5,344.9z"
			/>
		<path class="st6" d="M500.9,285.5c0,1.9-1.1,3.3-2.7,3.3c-1.3,0-2.5-1.3-2.7-2.7c-0.2-1.7,1.3-3.2,3.2-3.2
			C500.1,283,500.8,283.8,500.9,285.5z"/>
		<path class="st6" d="M477.6,342.7c0-1.9,1.3-3.3,2.8-3.3s2.5,0.9,2.5,2.5c0,1.9-1.3,3.3-2.8,3.3
			C478.7,345.4,477.6,344.3,477.6,342.7z"/>
		<path class="st6" d="M427.1,325.2c0,1.9-0.8,2.5-2.5,2.5c-1.7,0-3-1.3-3-2.8c0-1.4,1.4-2.5,3-2.5
			C426.4,322.4,427.2,323.3,427.1,325.2z"/>
		<path class="st6" d="M477.8,270.6c-1.7,0-2.5-0.6-2.5-2.5c0-1.4,1.3-2.8,2.7-2.8c1.3,0,2.7,1.4,2.7,2.7
			C480.6,269.3,479.5,270.6,477.8,270.6z"/>
		<path class="st4" d="M494.9,383.4c-4.4,1.3-9.1,1.9-13.9,2.5c-3.5,0.5-7.1,0.9-10.7,0.9c-5.2,0-10.4-0.3-15.6-0.6
			c-7.9-0.3-15.4-2.2-23-4.1c-11.8-3-22.8-8-32.9-14.8c-4.6-3.2-9-6.5-13.4-9.8c-0.6,1.7-0.8,3.3-0.5,5.2c0.2,0.9,0.5,1.9,0.8,2.8
			c1.4,4.3,3.5,7.9,6,11.3c0.8,0.5,1.4,1.1,2.2,1.6c-0.3,0-0.6,0.2-0.8,0.2c2.8,3.5,6.1,6.5,9.6,9.1c8.2,6.3,17.6,10.6,27.4,13.9
			c9.9,3.5,20.3,5,31,4.6c8.8,0.3,17.6-1.1,26.3-3.3c10.4-2.7,20.5-6.3,29.5-12.4c4.4-3.2,8.5-6.6,12.8-10.1
			c4.7-3.9,8.2-8.8,10.9-14.5c0.8-1.4,0.9-3,0.5-4.4c-3.2,2.7-6.6,4.9-10.1,7.1C519.8,375.6,507.5,379.7,494.9,383.4z"/>
		<path class="st4" d="M457.9,233.3c9,0,18-0.2,26.8-0.2c5.7,0,11.3-0.2,17-0.5c1.6-0.2,3.3-0.3,4.9-0.6c-2.4-6-6.3-10.7-11.8-14.3
			c-7.4-4.7-15.8-6.5-24.6-6.9c-7.2-0.3-14.5,0.5-21.4,2.2c-5.2,1.3-10.2,3-14.3,6.3c-4.3,3.5-7.4,7.6-9.6,12.3
			c5.4,0.5,10.6,0.9,15.9,1.3C446.6,233.4,452.3,233.4,457.9,233.3z"/>
		<path class="st6" d="M506.8,232.5c-3.3,0.3-6.5,0.6-9.6,0.8c-4.4,0.3-8.8,0.9-13.2,0.5c-0.9,0.3-2,0.2-3,0.2
			c-3.8,0-7.7,0-11.5,0.2c-2.2,0-4.6,0.6-6.8,0.5c-2.4-0.3-4.6-1.3-6.9,0.2c-7.1,0-14.2-0.2-21.1-0.2c-3.6,0-7.2-0.2-10.9-0.3
			c-0.8,2-1.6,4.1-2,6.1c-0.9,3.9-1.7,7.9-2.5,11.8c0.5,0.2,1.1,0.2,1.7,0c0.9-0.3,2-0.8,2.5-1.6c1.1-1.6,1.7-3.3,2.7-5.2
			c0.9,1.3,1.7,2.7,2.8,3.9c2.4,2.7,5.5,2.7,7.9,0.2c1.3-1.3,2-3,3.2-4.6c0.8,1.4,1.4,3,2.4,4.3c2.7,4.3,7.4,4.4,10.2,0.2
			c0.9-1.4,1.6-3,2.4-4.4c0.8,1.7,1.4,3.5,2.2,5.2c0.9,2,2.4,3,4.9,2.8c1.6-0.2,2.7-0.8,3.6-1.9c1.1-1.3,2-2.8,3-4.4
			c0.5-0.6,0.8-1.3,1.4-2.2c0.9,3,1.9,5.5,3.9,7.4c2,1.9,5,1.7,6.9-0.2c1.7-1.6,2.7-3.6,3.2-5.8c0.3-0.8,0.6-1.7,0.8-2.5
			c1.1,2.5,1.9,4.9,3,7.1c1.4,2.7,3.6,3.2,6,1.6c1.1-0.8,2.2-1.9,3-3c0.8-0.9,1.3-2,1.7-3c1.4,1.6,2.5,3.3,3.9,4.7
			c1.7,1.7,3.6,1.6,5.4-0.2c0.6-0.6,1.4-1.4,1.7-2.4c0.2-0.6,0.3-1.3,0.5-1.9c-0.8-4.4-1.7-8.8-3.3-13.1
			C506.9,232.9,506.9,232.8,506.8,232.5z"/>
		<path class="st6" d="M402.5,369.7c3.2,2,6.5,4.1,10.1,5.2c6.9,2.2,14,4.3,20.9,6.8c6.1,2.2,12.4,3.3,18.9,3.5
			c7.1,0.2,14.2-0.5,21.1-0.6c4.9,0,9.8-0.8,14.6-1.7c4.6-0.9,9.1-1.7,13.7-3.2c9.6-3,19.2-6.1,27.9-11.7c3.6-2.4,7.4-4.7,11.2-7.1
			c0-0.2-0.2-0.3-0.2-0.5c-1.6-3.2-3-6.5-4.6-9.6c-0.9,0-2,0.2-3,0.6c-2.4,0.9-3.5,3-3.8,5.5c-0.2,0.9-0.3,1.7-0.5,2.7
			c-1.3-0.8-2.4-1.6-3.5-2.2c-1.6-0.8-4.1-0.8-5.5,1.1c-1.1,1.4-2.2,3-2.5,4.9c-0.2,0.8-0.3,1.6-0.6,2.7c-1.1-1.3-2-2.2-3-3.2
			c-2-1.9-5.2-1.7-7.2,0.2c-2.4,2.4-3.5,5.2-3.8,8.7c-1.3-1.4-2.4-2.7-3.6-3.8c-2.5-2.4-6.3-1.9-8.3,0.9c-0.9,1.4-1.6,2.8-2.5,4.6
			c-0.3-0.5-0.6-1.1-1.1-1.6c-0.9-0.9-1.9-2-3.2-2.7c-2.4-1.1-5.7,0-7.4,2.7c-1.1,1.6-1.9,3.3-3,5c-0.9-1.4-1.7-3-2.7-4.4
			c-2-3-6-3.3-8.3-0.8c-1.6,1.7-3,3.6-4.6,5.5c0-0.2-0.2-0.5-0.3-0.9c-0.8-1.6-1.3-3.2-2.2-4.6c-1.9-2.7-4.6-3-7.1-0.9
			c-1.7,1.4-3.2,3.3-4.4,4.7c-0.8-1.9-1.6-4.3-2.8-6.5c-1.4-2.4-4.7-3.3-6.9-1.7c-1.4,0.8-2.5,2.2-3.6,3.5c-0.6,0.6-1.1,1.4-1.6,2.2
			c-0.3-1.4-0.2-2.8-0.5-4.1c-0.2-1.3-0.8-2.5-1.3-3.6c-1.1-2.2-3.3-3-5.5-2c-1.6,0.8-2.8,1.9-4.3,2.8c-0.6,0.5-1.3,0.8-2,1.4
			c0-1.3,0-2,0-2.8c0.2-1.9-0.5-3.6-1.6-5.4c-1.4-2.5-3.9-3.3-6.5-1.9c-0.8,0.3-1.4,0.9-2,1.3c-1.1,0.8-2.4,1.7-3.8,2.7
			c0-2.7,0.2-4.9-0.2-6.9c-0.5-4.1-3.2-5.5-6.5-4.4c-0.8,0.3-1.7,0.6-2.5,1.1c-1.6,1.1-3.2,2.2-4.7,3.3c-0.3,0.3-0.6,0.8-0.9,1.1
			c-0.6,0.8-1.1,1.6-1.4,2.4c1.3,1.1,2.5,2.2,3.8,3.2C393.7,363.8,398.1,366.8,402.5,369.7z"/>
		<path class="st7" d="M431.9,382.1c7.6,1.9,15.1,3.8,23,4.1c5.2,0.2,10.4,0.6,15.6,0.6c3.6,0,7.1-0.5,10.7-0.9
			c4.6-0.6,9.3-1.3,13.9-2.5c12.6-3.6,24.9-7.9,36.2-14.8c3.5-2.2,6.9-4.4,10.1-7.1c-0.2-0.3-0.2-0.8-0.5-1.1
			c-0.3-0.6-0.6-1.3-0.9-1.9c-5.7,5-12.4,8.7-19.2,12c-8.2,4.1-16.9,6.8-25.7,9.3c-13.5,3.8-27.4,4.6-41.3,3.2
			c-12.8-1.3-25-4.4-36.9-9.6c-10.6-4.6-20.2-10.7-29-18.3c-0.2-0.2-0.3-0.3-0.5-0.3c-0.2,0.2-0.3,0.5-0.5,0.6
			c-0.6,0.8-1.1,1.6-1.3,2.2c4.4,3.3,8.8,6.8,13.4,9.8C409.1,374.2,420.1,379.1,431.9,382.1z"/>
		<path class="st7" d="M460.8,236.7c7.7,0,15.3,0,23-0.3c7.7-0.3,15.6-0.6,23.3-1.3c0.3,0,0.5,0,0.8,0c-0.2-0.6-0.5-1.3-0.6-1.9
			c-0.2-0.3-0.3-0.6-0.5-1.1c-1.6,0.3-3.3,0.5-4.9,0.6c-5.7,0.3-11.3,0.3-17,0.5c-9,0.2-18,0.2-26.8,0.2c-5.7,0-11.3,0-17-0.3
			c-5.4-0.3-10.6-0.8-15.9-1.3c-0.5,1.1-0.9,2.2-1.4,3.3c4.6,0.5,9.3,1.1,13.9,1.3C445.2,236.7,452.9,236.7,460.8,236.7z"/>
		<path class="st7" d="M442.8,219.6c-0.8,0.2-1.6,0.3-2.4,0c-0.6-0.3-2-1.1-2.2-1.6c-0.3-0.8-0.6-6.1-0.6-8.2c0-6.8,0-13.5-0.2-20.2
			c0-2.7,0.5-3.5,3-3.8c2.8-0.3,5.8-0.6,8.7-0.9c1.7-0.2,6.1-0.5,6.1-0.6c-0.3-0.3-1.6-0.9-1.9-1.3c-0.3-0.3-0.6-0.6-0.9-1.1
			c-4.4-5-6-10.9-4.4-17.3c2-7.7,6.6-13.4,14.6-14.8c2.2-0.5,6.1,0,7.1,0.3c1.4,0.5,2.7,1.1,3.9,1.7c11.2,6.9,11.7,22.5,4.3,30.7
			c-0.5,0.5-0.8,0.9-1.3,1.7c1.1,0,1.7,0,2.5,0c3.5,0.2,6.9,0.3,10.4,0.6c1.9,0.2,2.8,1.1,3,3.2c0.2,1.1,0.3,2.2,0.3,3.5
			c0.2,7.4,0.2,15,0.3,22.4c0,1.4-0.3,2.4-1.4,3.2c-0.8,0.5-1.4,1.1-2.2,1.3c-3.5,1.1-6.8,1.3-9.8-1.6c-3.5,2.7-6.8,2.8-10.2,0.2
			c-3.8,3.6-7.4,3.5-11,0.6c-4.1,2.8-7.2,2.8-10.4-0.3C446.3,217.8,444.7,219.1,442.8,219.6z M465.2,184.1c4.9-0.5,7.4-0.9,9.5-3.2
			c6.9-6.9,6.5-18.7-1.4-25.2c-2.5-2-5.4-3-8.7-2.8c-3.6,0.3-6.6,1.9-9.1,4.6c-3.3,3.5-5,7.6-4.9,12.3c0.2,4.6,2.2,8.3,5.5,11.5
			C458.4,183.2,460.8,183.8,465.2,184.1z"/>
		<path class="st3" d="M488.3,165.7c-0.8-0.3-1.7-0.3-2.5-0.5c-4.4-1.1-8-3.5-11.2-6.5c-2.4-2.2-3.8-5-5.5-7.9
			c0.5-0.2,0.6-0.2,0.9-0.2c1.7-0.3,3.5-0.8,4.9-1.6c2.4-1.4,4.7-3.2,6.9-5c2.7-2.5,4.6-5.5,5.5-9c0.5-1.4,0.5-3.2,0.2-4.6
			c-1.3-3.9-5-5.8-9.1-3c-2.4,1.7-4.4,3.8-6,6.3c-0.9,1.6-1.9,3-2.8,4.4c-0.3,0.6-0.9,1.1-1.4,1.7c-0.6-2.8-0.3-5.7-0.3-8.5
			c0.2-2.2,0.3-4.4,0.5-6.8c0.3-2.5,0.2-5.2,0-7.7c-0.2-5.7,0.3-11.5,0.2-17.2c-0.2-2.4,0.2-4.6-0.2-6.9c-0.3-2.7,0.2-5.4-0.2-7.9
			c-0.3-2.2,0-4.3-0.2-6.5c-0.3-2.8,0-5.7-0.2-8.5c-0.3-3.2,0.2-6.3,0-9.5c0-0.2,0-0.3,0-0.5h-3.8c0.3,3.3-0.2,6.6,0,10.1
			c0.2,4.3,0.2,8.5,0.5,12.8c0.3,3.8,0,7.6,0.2,11.5c0,3-0.3,6.1,0,9.1c0.3,3.5,0,7.1,0,10.6c0,6.9-0.5,14-0.6,20.9
			c0,0.5,0,1.1,0,1.6c-0.2,0-0.2,0-0.3,0.2c-0.6-1.1-1.3-2.2-1.9-3.3c-1.7-3-3.8-5.7-7.1-6.9c-2.5-1.1-5.2-0.5-6.6,1.4
			c-1.6,2-2,4.4-1.6,7.1c0.6,3,2.4,5.4,4.3,7.4c2.2,2.5,5.2,4.1,8,5.7c1.1,0.6,1.1,0.6,0.5,1.6c-1.3,1.7-2.7,3.6-4.1,5.4
			c-1.3,1.4-2.4,2.8-3.8,4.3c-1.9,2-4.3,3.8-6.8,5c-1.9,0.9-3.9,1.7-6.1,1.9c-1.7,0.2-3.5-0.3-4.9-1.4c-0.8-0.6-1.7-0.6-2.5-0.2
			c-0.8,0.5-0.6,1.4-0.5,2c0.2,0.6,0.8,1.1,1.3,1.4c2.7,1.7,6.1,2.2,9.5,1.4c4.3-0.9,7.9-3.2,11.2-5.8c2.5-2,4.3-4.9,6.5-7.4
			c1.4-1.7,2.7-3.5,4.1-5.2c0.3-0.5,0.8-0.5,1.3,0c0.2,0.3,0.5,0.5,0.6,0.8c1.1,1.7,2.4,3.5,3.5,5.2c2.7,4.1,6,7.2,10.2,9.6
			c2.7,1.4,5.5,2.4,8.5,3c0.6,0.2,1.4,0,1.9-0.3c0.9-0.5,0.9-1.4,0.8-2.4C489.9,166.2,489,165.8,488.3,165.7z M462,145.7
			c-2.4-1.4-4.4-2.5-6.5-3.9c-2.5-1.7-4.3-4.3-5.4-7.2c-0.5-1.4,0-2.7,0.5-3.9c0.3-0.8,1.4-0.9,2.4-0.8c1.4,0.5,2.7,1.4,3.6,2.5
			c2.8,3.5,4.4,7.6,5.5,11.8C462,144.6,462,144.9,462,145.7z M468.3,146.8c2.2-3.8,4.3-7.4,6.8-10.6c1.4-1.7,2.7-3.5,4.3-5
			c0.5-0.5,1.4-0.9,2-1.1c1.6-0.3,2.5,0.5,2.4,2.2c0,1.1-0.2,2.2-0.6,3.2c-0.9,2-2,3.9-3.6,5.5c-2,2-4.3,3.6-6.9,5
			C471.5,146.3,470.2,146.9,468.3,146.8z"/>
	</g>
</g>
</svg>
