<svg width="243" height="86" viewBox="0 0 243 86" fill="none" xmlns="http://www.w3.org/2000/svg">
<g clip-path="url(#clip0)">
<path d="M237.321 40.1253V29.2316L233.877 36.9177H230.856L227.412 29.2316V40.1253H221.793V19.4272H227.956L232.366 29.171L236.837 19.4272H243V40.1253H237.321ZM213.033 36.0704H207.535L206.326 40.1253H200.526H200.345H194.182L190.255 33.7706H188.141V40.1253H182.522V19.4272H191.947C192.974 19.4272 193.88 19.6088 194.726 20.0324C195.572 20.456 196.297 21.0007 196.901 21.6665C197.505 22.3322 197.989 23.119 198.351 23.9663C198.714 24.8135 198.895 25.7214 198.895 26.5686C198.895 27.7791 198.653 28.8684 198.11 29.9578C197.566 30.9867 196.841 31.834 195.935 32.4997L200.466 39.9437L208.018 19.4272H212.61L220.222 40.1253H214.241L213.033 36.0704ZM192.612 24.9346C192.249 24.5715 191.947 24.3899 191.584 24.3899H188.141V28.8079H191.705C192.068 28.8079 192.37 28.6264 192.672 28.2027C192.974 27.8396 193.095 27.2949 193.095 26.5686C193.155 25.9029 192.974 25.3582 192.612 24.9346ZM210.314 25.3582L208.381 32.3181H212.126L210.314 25.3582ZM175.09 38.4307C173.822 39.6411 172.311 40.2463 170.619 40.2463C169.351 40.2463 168.142 39.9437 166.994 39.399C165.846 38.8544 164.88 38.0676 163.974 37.0993C163.128 36.1309 162.463 34.981 161.919 33.7101C161.436 32.4392 161.194 31.0472 161.194 29.5947C161.194 28.1422 161.436 26.8107 161.98 25.5398C162.463 24.2689 163.188 23.1795 164.094 22.2717C165.001 21.3639 166.028 20.6376 167.236 20.0929C168.444 19.5482 169.774 19.3062 171.163 19.3062C172.009 19.3062 172.855 19.4272 173.64 19.6088C174.426 19.7903 175.151 20.0929 175.815 20.5166C176.48 20.9402 177.084 21.3639 177.628 21.9691C178.172 22.5138 178.595 23.119 178.957 23.8452L174.788 27.0528C174.426 26.266 173.942 25.6003 173.217 25.1161C172.492 24.632 171.767 24.3899 170.982 24.3899C170.378 24.3899 169.894 24.5109 169.351 24.8135C168.867 25.1161 168.444 25.4793 168.082 25.9634C167.719 26.4476 167.417 27.0528 167.236 27.7185C167.055 28.3843 166.934 29.1105 166.934 29.8973C166.934 30.6841 167.055 31.4708 167.236 32.1366C167.417 32.8023 167.719 33.347 168.082 33.8311C168.444 34.3153 168.867 34.6784 169.411 34.9205C169.894 35.1626 170.499 35.2836 171.103 35.2836C171.828 35.2836 172.492 35.1021 173.097 34.739C173.761 34.3758 174.365 33.8917 174.909 33.2259H171.284V29.1105H179.743V40.1253H175.09V38.4307ZM145.304 19.4272H159.684V24.3899H150.923V27.2949H158.415V31.8945H150.923V35.1626H159.986V40.1253H145.365L145.304 19.4272ZM128.327 19.4272H133.946V35.1626H143.25V40.1253H128.267L128.327 19.4272ZM111.048 19.4272H125.427V24.3899H116.666V27.2949H124.158V31.8945H116.666V35.1626H125.669V40.1253H111.048V19.4272ZM103.073 40.1253H97.4537V24.3899H91.5327V19.4272H108.993V24.3899H103.073V40.1253Z" fill="#064A42"/>
<path d="M199.197 59.9762C198.714 61.2471 198.049 62.3365 197.143 63.3048C196.237 64.2732 195.21 65.0599 194.001 65.6046C192.793 66.2098 191.464 66.4519 190.014 66.4519C188.564 66.4519 187.234 66.1493 186.026 65.5441C184.818 64.9389 183.791 64.1521 182.945 63.1838C182.099 62.2155 181.434 61.0656 180.951 59.7946C180.468 58.5237 180.226 57.2528 180.226 55.9213C180.226 54.5898 180.468 53.2584 180.951 51.9874C181.434 50.7165 182.159 49.6271 183.005 48.6588C183.911 47.6905 184.939 46.9037 186.147 46.359C187.355 45.8143 188.684 45.5117 190.134 45.5117C191.584 45.5117 192.914 45.8143 194.122 46.4195C195.33 47.0247 196.357 47.8115 197.203 48.7798C198.049 49.7482 198.714 50.8981 199.197 52.169C199.68 53.4399 199.862 54.7109 199.862 56.0423C199.983 57.4343 199.68 58.7658 199.197 59.9762ZM193.941 53.9241C193.759 53.2584 193.518 52.7137 193.155 52.2295C192.793 51.7454 192.37 51.3217 191.887 51.0191C191.343 50.7165 190.739 50.5955 190.074 50.5955C189.349 50.5955 188.745 50.777 188.261 51.0796C187.778 51.3822 187.355 51.8059 186.993 52.29C186.63 52.7742 186.389 53.3794 186.268 54.0452C186.086 54.7109 186.026 55.3766 186.026 56.0423C186.026 56.7686 186.086 57.4343 186.268 58.0395C186.449 58.7053 186.691 59.2499 187.053 59.7946C187.416 60.2788 187.839 60.7024 188.382 61.005C188.926 61.3076 189.53 61.4892 190.195 61.4892C190.92 61.4892 191.524 61.3076 192.068 61.005C192.612 60.7024 193.034 60.2788 193.337 59.7341C193.639 59.1894 193.88 58.6447 194.062 57.979C194.243 57.3133 194.303 56.6475 194.303 55.9818C194.243 55.2556 194.122 54.5898 193.941 53.9241ZM172.19 45.6328H177.809V66.3309H172.19V45.6328ZM166.813 63.4864C165.907 64.3942 164.819 65.0599 163.551 65.6046C162.282 66.0888 160.832 66.3309 159.321 66.3309H151.407V45.6328H159.321C161.013 45.6328 162.524 45.9354 163.792 46.4195C165.061 46.9642 166.149 47.6905 167.055 48.6588C167.901 49.5666 168.565 50.656 169.049 51.9269C169.472 53.1979 169.713 54.5293 169.713 55.9213C169.713 57.4948 169.472 58.8868 168.988 60.2183C168.444 61.4892 167.719 62.5786 166.813 63.4864ZM163.611 53.8031C163.369 53.1373 163.067 52.5927 162.705 52.1085C162.282 51.6243 161.799 51.2612 161.255 51.0191C160.651 50.777 160.046 50.656 159.321 50.656H157.086V61.4287H159.321C160.046 61.4287 160.711 61.3076 161.315 61.005C161.919 60.763 162.403 60.3393 162.765 59.8551C163.188 59.371 163.43 58.8263 163.671 58.1606C163.853 57.4948 163.974 56.7686 163.974 55.9818C163.974 55.195 163.853 54.4688 163.611 53.8031ZM145.969 63.5469C145.184 64.4547 144.217 65.181 143.069 65.7257C141.921 66.2703 140.531 66.5124 138.961 66.5124C137.329 66.5124 135.94 66.2098 134.731 65.6651C133.583 65.1205 132.617 64.3942 131.831 63.4259C131.106 62.5181 130.502 61.4287 130.2 60.1578C129.838 58.9473 129.656 57.6159 129.656 56.2239V45.5722H135.275V56.2239C135.275 56.8896 135.336 57.5554 135.456 58.1606C135.577 58.7658 135.819 59.371 136.121 59.7946C136.423 60.2788 136.786 60.6419 137.209 60.9445C137.692 61.2471 138.236 61.3682 138.9 61.3682C139.565 61.3682 140.109 61.2471 140.592 60.9445C141.075 60.6419 141.438 60.2788 141.74 59.7946C142.042 59.3105 142.223 58.7658 142.404 58.1606C142.525 57.5554 142.586 56.8896 142.586 56.2239V45.5722H148.205V56.2239C148.205 57.6764 148.023 59.0079 147.661 60.2788C147.298 61.5497 146.694 62.6391 145.969 63.5469ZM121.983 66.3309H116.364V50.5955H110.443V45.6328H127.904V50.5955H121.983V66.3309ZM106.939 65.181C106.214 65.6651 105.368 66.0283 104.402 66.2703C103.435 66.5124 102.529 66.6335 101.562 66.6335C100.837 66.6335 100.052 66.573 99.2662 66.4519C98.4808 66.3309 97.6953 66.1493 96.9099 65.9677C96.1245 65.7257 95.3995 65.4836 94.6745 65.181C93.9494 64.8784 93.2848 64.5758 92.6807 64.2126L95.0974 59.2499C95.762 59.6736 96.487 60.0367 97.212 60.3998C97.8162 60.7024 98.5412 60.9445 99.3266 61.1866C100.112 61.4287 100.897 61.5497 101.743 61.5497C102.347 61.5497 102.77 61.4892 103.012 61.3076C103.254 61.1261 103.375 60.9445 103.375 60.6419C103.375 60.3393 103.254 60.0972 103.012 59.9157C102.77 59.7341 102.408 59.5525 101.985 59.371C101.562 59.1894 101.079 59.0684 100.535 58.8868C99.9912 58.7053 99.387 58.5237 98.7829 58.3421C97.8766 58.0395 97.0912 57.6764 96.4266 57.3133C95.762 56.9501 95.2182 56.5265 94.7953 56.1029C94.3724 55.6187 94.0703 55.1345 93.8286 54.5293C93.6474 53.9241 93.5265 53.2584 93.5265 52.5321C93.5265 51.3822 93.7078 50.3534 94.1307 49.5061C94.5536 48.6588 95.0974 47.9325 95.8224 47.3273C96.5474 46.7221 97.3328 46.2985 98.2391 45.9959C99.1454 45.6933 100.112 45.5722 101.139 45.5722C101.864 45.5722 102.65 45.6328 103.314 45.8143C104.039 45.9354 104.704 46.1169 105.368 46.359C106.033 46.6011 106.637 46.8432 107.241 47.0853C107.846 47.3273 108.329 47.5694 108.812 47.8115L106.395 52.4716C105.791 52.1085 105.248 51.8059 104.583 51.5638C104.039 51.3217 103.495 51.1402 102.831 50.8981C102.166 50.7165 101.562 50.5955 100.958 50.5955C100.475 50.5955 100.052 50.656 99.7495 50.8375C99.4475 51.0191 99.3266 51.2612 99.3266 51.6243C99.3266 51.9269 99.387 52.1085 99.5683 52.29C99.7495 52.4716 99.9912 52.6532 100.293 52.7742C100.595 52.8953 101.018 53.0768 101.502 53.1979C101.985 53.3189 102.529 53.5005 103.133 53.682C104.1 53.9846 104.945 54.2872 105.67 54.6504C106.395 55.0135 107.06 55.4371 107.604 55.8608C108.148 56.3449 108.571 56.8896 108.873 57.6159C109.175 58.2816 109.296 59.1289 109.296 60.0972C109.296 61.3682 109.054 62.397 108.631 63.2443C108.268 63.9706 107.664 64.6968 106.939 65.181Z" fill="#064A42"/>
<path d="M42.957 86L0 43.0303L42.957 0L85.914 43.0303L42.957 86ZM6.8272 43.0303L42.8966 79.1611L78.9659 43.0303L42.957 6.83885L6.8272 43.0303Z" fill="#064A42"/>
<path d="M23.6838 41.8807H27.5506C27.4902 40.1256 27.4902 37.4022 29.3631 37.4627V48.5985H26.5235V52.4718H39.0904V48.659H35.4653V37.4627C37.9424 37.0996 38.3049 39.5204 38.2445 41.9412H41.9904V33.5894H23.6838V41.8807Z" fill="#064A42"/>
<path d="M53.3489 41.7596L53.4093 45.3303H56.1281C55.5239 50.3535 47.6092 47.5091 48.0925 43.2121C48.153 40.6702 49.6634 38.0678 52.7447 38.1283C54.1343 38.2494 55.7052 38.7335 56.1281 40.065H60.1761L60.2365 34.0129H55.826V34.134C42.3529 29.3528 38.9091 52.3507 52.7447 52.4718C53.9531 52.4718 54.9802 52.3507 56.0073 51.9876V52.4718H60.5386V45.3303H62.1699V41.7596H53.3489Z" fill="#064A42"/>
</g>
<defs>
<clipPath id="clip0">
<rect width="243" height="86" fill="white"/>
</clipPath>
</defs>
</svg>
