<svg width="145" height="228" viewBox="0 0 145 228" fill="none" xmlns="http://www.w3.org/2000/svg">
<path d="M73.9863 227.046C71.9356 227.046 69.9315 226.999 67.8808 226.999C67.4147 226.906 66.9021 226.719 66.436 226.719C63.9192 226.532 61.3558 226.486 58.8391 226.206C53.3861 225.599 48.0729 224.245 43.0393 222.005C36.561 219.11 30.5487 215.47 25.1423 210.755C19.4563 205.76 14.3761 200.252 10.3679 193.857C7.24527 188.909 5.24118 183.495 3.74976 177.893C2.44476 173.038 1.27959 168.09 1.09316 163.096C0.86013 156.934 0.766916 150.726 1.88548 144.611C3.23708 137.096 5.56742 129.954 9.43579 123.325C13.9567 115.53 19.6893 108.762 26.3541 102.787C32.879 96.9053 40.3827 92.7042 48.6322 89.8568C50.6829 89.1566 52.7336 88.4564 54.8309 87.7562C55.4368 85.0488 56.0427 82.4348 56.6019 79.7741C57.2544 76.6933 58.4196 75.7131 61.5423 75.4797C63.2667 75.3396 64.9912 75.293 66.669 75.0596C72.3551 74.3127 78.0877 74.4061 83.8204 74.4061C86.943 74.4061 88.7141 76.3199 89.0403 79.3073C89.3666 82.1548 89.786 84.9555 90.2521 87.8029C90.3453 88.4097 90.5783 89.0165 90.7648 89.6234C91.7901 89.8101 92.7223 89.9501 93.6544 90.1368C98.2219 90.9771 102.416 92.7975 106.564 94.6647C117.424 99.6126 126.652 106.568 133.457 116.604C140.494 127.013 144.456 138.356 144.782 150.959C144.875 154.974 144.829 158.988 144.736 163.003C144.642 165.336 144.549 167.764 143.99 170.004C143.011 174.019 141.893 178.033 140.494 181.861C138.024 188.723 134.715 195.164 129.868 200.719C121.339 210.522 111.179 217.99 98.7345 222.191C91.091 224.759 83.3543 226.719 75.2447 226.719C74.8252 226.719 74.4058 226.953 73.9863 227.046Z" fill="#FFA194"/>
<path d="M68.8596 190.636C67.508 190.403 66.203 190.123 64.8514 189.89C59.3052 188.909 54.4114 186.575 50.077 182.981C43.6919 177.66 39.9167 170.891 38.7981 162.582C37.5397 152.873 40.1031 144.238 46.0688 136.629C51.4286 129.814 58.5128 125.333 66.9953 123.839C75.2447 122.345 83.4009 123.139 90.9046 127.433C97.5228 131.214 102.23 136.629 105.073 143.724C106.984 148.485 107.636 153.433 107.17 158.428C106.565 164.916 104.281 170.798 100.319 176.073C96.544 181.114 91.7901 184.895 86.1041 187.462C82.5154 189.096 78.7868 190.17 74.7786 190.356C74.4524 190.356 74.1261 190.59 73.7533 190.73C72.1687 190.636 70.4908 190.636 68.8596 190.636Z" fill="#FFE0BF"/>
<path d="M70.2577 38.2766C72.0288 38.0899 73.8465 38.1366 75.5709 38.3233C78.9266 38.6967 81.8163 40.4705 84.0068 43.1779C88.9471 49.3862 88.015 57.2282 82.6552 62.9697C81.8629 63.81 80.9773 64.5102 79.9986 65.4904C80.6045 65.5371 81.0239 65.6304 81.49 65.6304C84.6127 65.7705 87.7353 65.8638 90.8114 66.0039C92.4426 66.0972 93.7942 67.1242 93.7476 68.9913C93.6078 73.3791 93.701 77.7669 93.701 82.2014C93.701 84.1153 93.1883 84.7221 91.2774 84.9555C87.2692 85.5156 83.6805 84.7688 80.9307 81.5013C80.6511 81.1745 80.3248 80.8477 80.0452 80.521C74.8252 86.3558 66.2962 86.5892 62.4278 81.4546C61.0296 83.8819 58.8391 85.1889 56.2291 85.8891C55.8096 85.9824 55.3435 86.0758 54.9241 86.1225C51.2887 86.2158 51.0091 85.4689 50.9159 82.5749C50.7295 78.4204 50.6829 74.3127 50.6829 70.1583C50.6829 67.591 51.2421 66.7974 53.8055 66.4707C56.6951 66.0505 59.6314 66.0039 62.521 65.8172C63.1735 65.7705 63.8726 65.8172 64.9912 65.8172C64.3853 65.3504 64.1522 65.0703 63.8726 64.8836C58.0467 61.4293 56.9748 54.0074 58.7925 48.8727C59.911 45.6986 61.6355 42.9445 64.3853 40.7973C66.1563 39.4436 68.1138 38.4634 70.2577 38.2766ZM84.2398 53.0738C84.2864 48.8261 82.3289 44.9984 79.5791 43.1779C74.3125 39.677 66.436 40.3772 62.8939 47.1923C62.521 47.9392 62.1015 48.6393 61.7753 49.4329C59.5382 54.6609 61.4024 60.2624 66.2962 63.1098C67.1351 63.5766 68.0206 63.95 68.8595 64.3234C71.3297 65.397 73.7533 65.3037 76.1768 64.09C81.0705 61.5694 83.6805 57.6484 84.2398 53.0738Z" fill="#372F2C"/>
<path d="M75.3844 184.988C75.1048 179.667 74.8718 174.345 74.5455 169.071C74.4523 167.344 74.126 165.663 73.7998 163.936C73.6134 162.956 73.1939 162.116 72.0287 162.116C71.05 162.116 70.3509 162.862 70.2111 164.076C69.9314 166.363 69.5586 168.697 69.4188 170.985C69.0925 175.979 68.9061 180.927 68.673 185.922C68.6264 193.064 68.7196 200.159 69.978 207.207C70.3043 209.075 71.0034 210.895 71.7025 212.669C72.0287 213.462 72.7744 214.069 73.7998 213.882C74.7785 213.742 75.2912 213.042 75.5243 212.155C75.7107 211.268 75.9437 210.335 75.9437 209.401C75.9903 204.967 76.0835 200.486 75.9903 196.051C75.9437 192.41 75.5709 188.723 75.3844 184.988Z" fill="#F8543C"/>
<path d="M82.2357 163.283C81.0239 162.256 79.7189 161.369 78.4139 160.435C77.7614 159.968 76.9225 159.828 76.4564 160.575C76.0836 161.182 75.9903 162.022 76.037 162.769C76.0836 163.236 76.5496 163.656 76.9225 164.076C82.6085 171.125 88.481 177.986 95.1924 184.101C98.9675 187.556 103.022 190.683 107.031 193.857C107.963 194.604 109.221 195.118 110.433 195.398C111.738 195.678 112.484 194.884 112.484 193.624C112.484 192.13 111.412 191.196 110.526 190.263C101.438 180.927 92.3028 171.638 82.2357 163.283Z" fill="#F8543C"/>
<path d="M58.1399 158.801C60.4703 158.615 62.754 158.381 65.0844 158.148C65.9233 158.055 66.7156 157.774 66.7156 156.748C66.7156 155.767 65.9699 155.394 65.131 155.254C64.1056 155.067 63.0337 154.88 61.9617 154.834C56.6019 154.554 51.2421 154.227 45.8823 154.04C42.8529 153.947 39.7768 154.087 36.7474 154.18C32.7858 154.274 28.7776 154.414 24.816 154.6C23.6975 154.647 22.5323 154.74 21.4604 155.02C20.1088 155.394 18.7572 155.767 17.592 156.467C15.8675 157.541 16.054 159.548 17.9648 160.342C18.8038 160.715 19.7359 160.855 20.668 160.902C22.4391 160.995 24.2568 160.949 26.0278 160.949C26.0278 160.995 26.0278 160.995 26.0278 161.042C30.0826 160.855 34.1374 160.809 38.1456 160.529C44.857 160.062 51.4752 159.362 58.1399 158.801Z" fill="#F8543C"/>
<path d="M69.2324 145.825C69.3722 147.318 69.6519 148.859 69.8849 150.353C70.0713 151.333 70.7238 151.613 71.656 151.426C72.9143 151.146 73.194 150.773 73.194 149.092C73.2406 143.351 73.2872 137.656 73.3338 131.914C73.3804 131.914 73.2872 116.744 73.0542 109.182C73.0076 107.175 72.4483 105.121 72.0288 103.114C71.8424 102.18 71.3763 101.34 70.2111 101.293C68.9994 101.2 68.6265 102.087 68.3003 102.974C68.1138 103.534 67.9274 104.094 67.8808 104.701C67.6944 107.921 67.3215 111.189 67.4147 114.457C67.508 120.011 67.7876 125.613 68.1138 131.168C68.3469 136.022 68.8129 140.923 69.2324 145.825Z" fill="#F8543C"/>
<path d="M65.3174 147.505C57.9535 138.73 50.2634 130.281 41.7809 122.579C40.1963 121.178 38.5185 119.825 36.8406 118.564C36.0483 118.004 35.0695 117.724 34.6035 117.491C32.3197 117.491 31.3876 118.984 32.413 120.478C33.2985 121.738 34.4171 122.765 35.5356 123.839C45.2298 133.268 54.9241 142.651 64.5717 152.033C64.9445 152.406 65.3174 152.827 65.7835 153.013C66.6224 153.387 67.5545 153.48 68.1604 152.686C68.7197 151.986 68.4867 151.193 67.9274 150.493C66.9953 149.512 66.1563 148.485 65.3174 147.505Z" fill="#F8543C"/>
<path d="M127.817 154.087C127.118 153.713 126.372 153.34 125.627 153.247C123.156 152.92 120.64 152.5 118.123 152.453C114.488 152.406 110.806 152.593 107.17 152.78C105.259 152.873 103.349 153.153 101.438 153.34C96.8702 153.76 92.3493 154.134 87.7819 154.554C85.2185 154.787 82.6551 155.02 80.0917 155.347C79.0664 155.487 78.2275 156.467 78.2741 157.401C78.3207 158.568 79.2994 158.661 80.1383 158.848C80.6044 158.941 81.0705 158.941 81.5365 158.895C86.8497 158.708 92.1629 158.521 97.4295 158.335C103.255 158.195 109.128 158.055 114.954 157.961C114.954 158.008 122.923 157.868 126.885 157.728C127.817 157.681 128.609 157.401 128.889 156.421C129.215 155.347 128.749 154.554 127.817 154.087Z" fill="#F8543C"/>
<path d="M65.6903 160.575C65.2242 160.669 64.8047 161.135 64.3853 161.462C60.4237 164.59 56.3689 167.624 52.5005 170.845C46.7213 175.699 40.9886 180.694 35.3958 185.782C33.6713 187.322 32.3197 189.283 30.9215 191.103C30.4555 191.71 30.269 192.504 29.9428 193.204C29.8496 195.491 31.6672 195.958 33.0654 195.164C34.0442 194.604 34.9297 193.904 35.7686 193.11C46.0688 183.308 56.3689 173.505 66.669 163.703C67.0418 163.329 67.5079 162.909 67.6011 162.442C67.6943 161.929 67.6477 161.182 67.3215 160.855C66.9486 160.529 66.2029 160.482 65.6903 160.575Z" fill="#F8543C"/>
<path d="M78.3207 152.78C78.4605 152.64 78.6004 152.5 78.7868 152.36C82.1891 149.232 85.638 146.058 89.0869 142.931C91.7435 140.503 94.3535 138.029 97.0567 135.695C101.997 131.354 106.984 127.06 111.924 122.719C112.623 122.112 113.276 121.365 113.649 120.571C114.394 118.984 113.509 117.631 111.645 117.584C111.272 117.677 110.573 117.771 110.06 118.097C108.289 119.264 106.471 120.431 104.887 121.832C97.5228 128.273 90.6715 135.229 83.9602 142.324C81.3502 145.078 78.88 147.972 76.3632 150.773C75.7573 151.426 75.1981 152.266 76.0836 153.013C76.7361 153.713 77.575 153.34 78.3207 152.78Z" fill="#F8543C"/>
<path d="M77.7149 145.078C80.0452 139.803 82.3289 134.528 84.6593 129.254C86.2905 125.566 88.015 121.925 89.6928 118.237C90.0657 117.444 90.3453 116.65 90.6716 115.717C90.3919 115.343 90.1589 114.783 89.8326 114.737C89.4132 114.643 88.7607 114.783 88.4344 115.063C88.0616 115.39 87.8751 115.95 87.6887 116.417C83.5407 125.566 79.3927 134.762 75.2447 143.911C74.5922 145.405 74.6388 146.385 75.4777 146.712C76.3166 147.178 77.0157 146.665 77.7149 145.078Z" fill="#FFB674"/>
<path d="M114.161 138.076C113.789 137.376 113.183 136.956 112.344 137.376C112.157 137.469 111.971 137.516 111.784 137.609C102.463 141.764 93.1417 145.871 83.8203 150.026C83.3542 150.212 82.8416 150.539 82.5619 150.913C82.3289 151.239 82.2357 151.846 82.3755 152.22C82.5153 152.593 82.9814 152.78 83.3076 153.06C84.1466 152.78 84.8457 152.593 85.4982 152.313C88.714 150.866 91.8833 149.466 95.0992 147.972C99.4802 145.965 103.861 143.911 108.289 141.904C109.967 141.11 111.691 140.41 113.369 139.616C114.022 139.336 114.581 138.87 114.161 138.076Z" fill="#FFB674"/>
<path d="M67.4148 142.044C65.5505 137.282 63.7328 132.568 61.8219 127.807C60.0509 123.466 58.2332 119.124 56.4155 114.783C56.1825 114.27 56.0427 113.056 55.0639 113.103C54.1784 113.103 53.992 114.176 53.9454 114.643C53.8521 115.203 54.0852 115.81 54.3182 116.37C57.3011 123.792 60.2839 131.214 63.2667 138.636C64.0125 140.457 64.6183 142.37 65.2708 144.238C65.5505 145.031 66.0165 145.778 66.9953 145.451C67.9274 145.125 68.2537 144.331 67.9274 143.351C67.6944 142.931 67.5546 142.51 67.4148 142.044Z" fill="#FFB674"/>
<path d="M57.1146 151.846C57.8137 152.08 58.606 152.126 59.0255 151.286C59.3983 150.493 59.0255 149.839 58.373 149.419C58.0001 149.139 57.5807 148.999 57.1146 148.812C56.0892 148.392 55.0173 147.972 53.9919 147.552C46.4882 144.471 38.9379 141.39 31.4342 138.309C30.8749 138.076 30.3156 137.936 29.8962 137.843C28.6378 137.749 27.8921 138.263 28.1717 139.103C28.3582 139.616 28.964 140.083 29.4767 140.317C37.5863 143.724 45.6959 147.132 53.8055 150.493C54.9707 150.913 55.996 151.473 57.1146 151.846Z" fill="#FFB674"/>
<path d="M84.0533 181.581C82.4221 178.033 80.9306 174.392 79.346 170.845C79.0198 170.051 78.7401 169.164 77.7148 169.257C76.6428 169.257 76.3166 169.911 76.3632 170.705C76.4098 171.171 76.5962 171.591 76.7826 172.012C80.3714 179.76 84.0067 187.556 87.5954 195.304C88.1081 196.378 88.714 197.405 89.3199 198.432C89.6461 198.992 90.2054 199.692 90.9045 199.132C91.324 198.805 91.4638 198.012 91.4638 197.405C91.4638 196.938 91.0443 196.425 90.8579 195.958C88.6208 191.197 86.2904 186.435 84.0533 181.581Z" fill="#FFB674"/>
<path d="M111.738 170.798C111.598 170.751 111.458 170.751 111.365 170.705C103.954 167.904 96.544 165.103 89.1335 162.256C87.6421 161.695 86.1973 161.089 84.5194 160.388C84.1466 160.622 83.4941 160.762 83.2144 161.182C82.795 161.789 83.0746 162.489 83.7737 162.862C84.333 163.189 84.9389 163.516 85.5448 163.749C94.0272 166.877 102.556 170.004 111.039 173.178C111.924 173.505 112.717 173.832 113.229 172.758C113.602 171.965 113.043 171.265 111.738 170.798Z" fill="#FFB674"/>
<path d="M58.1399 163.329C57.7205 162.256 56.8349 162.162 55.0639 162.956C49.9837 165.196 44.9036 167.484 39.7768 169.678C36.7474 170.985 33.6247 172.152 30.5487 173.272C29.7097 173.599 29.2437 174.065 29.5233 174.859C29.6631 175.279 30.3156 175.559 30.6419 175.839C31.341 175.606 31.7604 175.512 32.2265 175.326C35.2094 174.205 38.1922 173.132 41.1284 171.918C46.2086 169.818 51.2421 167.577 56.2757 165.43C57.8603 164.823 58.4662 164.169 58.1399 163.329Z" fill="#FFB674"/>
<path d="M65.8301 168.884C64.6649 168.744 64.2455 169.631 63.8726 170.518C63.826 170.564 63.826 170.658 63.826 170.705C60.7965 178.547 57.7671 186.389 54.7376 194.184C54.2716 195.351 54.5978 195.958 56.0892 196.285C56.6019 195.491 57.301 194.697 57.6739 193.811C59.0255 190.59 60.2373 187.276 61.5423 184.008C63.1735 179.807 64.898 175.652 66.4826 171.451C66.9953 170.098 66.669 169.024 65.8301 168.884Z" fill="#FFB674"/>
<path d="M22.0197 173.132C19.0368 172.992 16.7065 175.139 16.7997 177.893C16.8929 181.814 19.3165 183.728 22.2527 183.728C25.2821 183.775 27.8455 181.301 27.7989 178.173C27.7057 174.952 25.2821 173.272 22.0197 173.132Z" fill="#35837A"/>
<path d="M52.4073 197.825C49.5643 197.872 47.234 200.206 47.1874 203.193C46.8611 206.367 49.8906 208.188 52.1277 208.281C55.1105 208.421 57.7205 205.854 57.7671 203.333C57.8137 200.579 55.1572 197.732 52.4073 197.825Z" fill="#35837A"/>
<path d="M51.5219 111.936C54.3649 111.983 56.6952 109.509 56.7418 106.568C56.7884 103.674 54.7844 101.667 51.9413 101.62C49.0983 101.573 46.6748 104.094 46.6282 107.175C46.5815 110.022 48.4924 111.936 51.5219 111.936Z" fill="#35837A"/>
<path d="M98.8277 106.708C98.921 104.094 96.777 101.807 94.1671 101.807C91.6503 101.807 88.9937 104.607 88.9471 107.315C88.6208 110.022 91.4173 112.403 93.934 112.309C96.777 112.263 98.7345 110.069 98.8277 106.708Z" fill="#35837A"/>
<path d="M121.385 170.331C117.983 170.331 115.699 172.432 115.653 175.652C115.606 178.173 117.843 180.32 120.593 180.367C123.343 180.414 126.046 177.66 126.093 174.812C126.139 172.618 123.809 170.051 121.385 170.331Z" fill="#35837A"/>
<path d="M95.0992 201.046C91.9766 201.046 89.8326 203.38 89.8326 206.787C89.8326 209.401 91.7901 211.408 94.2603 211.408C97.3364 211.455 99.5269 209.028 99.5269 205.667C99.5735 203.006 97.6626 201.046 95.0992 201.046Z" fill="#35837A"/>
<path d="M120.919 140.083C123.856 140.13 126.326 137.796 126.326 134.902C126.326 132.241 124.508 130.421 121.852 130.374C119.008 130.327 116.585 132.755 116.538 135.695C116.492 138.123 118.356 140.037 120.919 140.083Z" fill="#35837A"/>
<path d="M20.8545 141.11C23.3713 141.11 25.7482 138.496 25.8414 135.602C25.9346 133.128 23.9772 131.027 21.6468 130.981C19.0834 130.981 16.6599 133.548 16.5667 136.396C16.4734 139.056 18.2911 141.11 20.8545 141.11Z" fill="#35837A"/>
<path d="M119.102 111.983C117.564 112.076 116.072 113.476 116.072 114.877C116.072 116.184 117.284 117.211 118.822 117.164C120.36 117.164 121.572 115.904 121.525 114.316C121.479 113.009 120.36 111.936 119.102 111.983Z" fill="#372F2C"/>
<path d="M74.1728 216.683C72.3551 216.637 71.4696 217.477 71.423 219.251C71.3764 220.931 72.3551 222.005 73.8465 222.005C75.2447 222.005 76.3633 220.838 76.4565 219.297C76.5031 217.617 75.7108 216.683 74.1728 216.683Z" fill="#372F2C"/>
<path d="M73.1474 95.3649C73.6601 93.9645 73.3338 92.7975 72.0755 92.0973C72.0289 92.0973 70.8171 91.7239 69.9782 92.004C69.4189 92.1907 68.9994 92.7042 68.6732 93.1243C67.4148 94.7114 68.1605 96.6252 70.1646 96.9519C71.6094 97.232 72.6813 96.6719 73.1474 95.3649Z" fill="#372F2C"/>
<path d="M135.088 152.826C133.69 152.826 132.245 154.18 132.198 155.581C132.105 156.981 133.13 158.055 134.622 158.148C136.253 158.241 137.372 157.168 137.418 155.534C137.465 154.04 136.393 152.826 135.088 152.826Z" fill="#372F2C"/>
<path d="M118.17 198.012C116.538 197.965 115.327 199.085 115.327 200.626C115.327 201.979 116.352 203.006 117.704 202.96C119.055 202.96 120.174 201.653 120.22 200.159C120.267 198.945 119.428 198.058 118.17 198.012Z" fill="#372F2C"/>
<path d="M26.6337 198.058C25.2355 198.105 24.117 199.225 24.117 200.626C24.0703 201.933 25.0491 202.913 26.3541 202.866C27.7523 202.82 29.0107 201.559 29.0107 200.159C28.9641 198.852 27.9853 198.012 26.6337 198.058Z" fill="#372F2C"/>
<path d="M28.0786 112.169C26.6804 112.076 25.6085 113.103 25.5152 114.643C25.422 116.044 26.3076 117.024 27.7524 117.071C29.104 117.117 30.1293 116.137 30.2225 114.783C30.3624 113.383 29.4302 112.263 28.0786 112.169Z" fill="#372F2C"/>
<path d="M7.85118 156.934C7.52493 157.214 7.38511 157.681 7.15208 158.055C7.05886 157.961 6.96565 157.961 6.87244 157.961C6.87244 158.475 6.87244 159.035 6.87244 159.548C6.96565 159.595 7.05886 159.548 7.15208 159.455C7.19868 159.595 7.19868 159.735 7.24529 159.828C8.13082 160.995 9.80867 161.229 10.834 160.342C11.7662 159.548 11.9992 158.055 11.3001 157.168C10.5544 156.187 8.87653 156.047 7.85118 156.934Z" fill="#372F2C"/>
<path d="M74.1261 157.214C74.0795 155.954 72.9143 154.74 71.7491 154.74C70.584 154.74 69.745 155.721 69.7916 157.028C69.8383 158.428 70.6772 159.315 71.9822 159.315C73.2405 159.315 74.1727 158.428 74.1261 157.214Z" fill="#372F2C"/>
<path d="M75.9905 30.7147C74.5923 29.2676 71.6561 29.6877 70.3511 31.4148C68.8597 33.3754 69.6054 35.8493 72.1222 37.2964C72.1222 37.3897 72.1222 37.4831 72.1222 37.6231C72.7747 37.6698 73.4738 37.7165 74.1262 37.7632C74.1262 37.6698 74.1263 37.5298 74.1729 37.4364C74.6855 37.1097 75.2914 36.923 75.7109 36.5028C77.6218 34.5423 77.3421 32.0684 75.9905 30.7147Z" fill="#FC9C47"/>
<path d="M74.2661 8.3555C75.8507 8.07543 76.7829 6.86178 77.2023 5.41473C77.6218 3.92101 77.5752 2.38061 76.177 1.307C75.0584 0.466776 73.8 0.28006 72.5416 0.840207C71.1434 1.49371 70.5375 2.70736 70.5842 4.1544C70.0715 6.5817 71.7959 8.72893 74.2661 8.3555Z" fill="#FC9C47"/>
<path d="M74.1263 19.8385C72.1688 19.6985 70.5841 21.3322 70.3045 23.4794C70.0715 25.3933 71.7493 27.1204 73.334 27.1671C75.2914 27.2604 76.9693 25.6267 77.1091 23.5261C77.2489 21.4723 75.9905 19.9319 74.1263 19.8385Z" fill="#FC9C47"/>
<path d="M73.5669 17.0844C75.5244 17.2245 76.9692 15.7774 77.109 13.4902C77.2022 11.5763 76.1769 10.4561 74.0796 10.316C72.2619 10.2227 70.5375 11.6697 70.3976 13.3968C70.2578 15.2173 71.7492 16.9444 73.5669 17.0844Z" fill="#FC9C47"/>
</svg>
