<svg width="123" height="127" viewBox="0 0 123 127" fill="none" xmlns="http://www.w3.org/2000/svg">
<g clip-path="url(#clip0)">
<path d="M41.0249 49.3679C34.1248 42.4991 27.155 35.7336 20.1768 28.9249C17.9152 26.9868 15.6019 25.0138 13.3403 23.0757C10.8973 21.1279 7.59313 18.6747 5.2798 18.3169C4.3129 18.1908 2.08961 18.7577 1.70279 19.9995C1.334 21.1031 2.89173 23.8062 4.03031 25.7384C5.54722 28.0008 7.05572 30.2199 8.52939 32.4907C9.3437 33.6784 11.3002 36.1245 11.5332 36.1689C13.4657 38.2608 15.3634 40.4043 17.2959 42.4961C23.0755 47.2946 28.855 52.0931 35.7926 55.2308C37.2663 55.8864 38.9322 56.1457 40.5021 56.6032C39.9532 55.8575 39.1533 55.2054 38.8554 54.366C38.5744 53.6131 38.6321 52.5251 38.9985 51.8706C39.1991 51.5175 40.5203 51.6196 41.2013 51.8909C41.9256 52.1539 42.5442 52.7963 43.1723 53.2575C43.6408 51.282 42.0302 50.3838 41.0249 49.3679Z" fill="#55BE93"/>
<path d="M111.107 84.1514C112.229 85.9971 112.253 87.9666 111.785 89.942C110.326 96.0581 109.066 102.27 107.22 108.238C104.52 116.973 101.243 125.506 96.7423 133.515C96.245 134.42 95.4895 135.15 94.8805 135.941C93.7792 131.893 92.6347 127.853 91.5251 123.762C92.0236 122.633 92.5221 121.504 92.969 120.341C96.8959 109.841 100.814 99.2985 104.785 88.7906C105.258 87.5321 105.956 86.2747 106.782 85.2167C107.861 83.8405 109.273 83.0274 111.107 84.1514Z" fill="#55BE93"/>
<path d="M91.5336 123.805C92.6348 127.853 93.7793 131.893 94.889 135.984C94.949 137.677 97.0723 142.828 95.8051 143.927C92.7325 146.588 91.4018 143.437 90.249 137.739C89.8215 135.309 89.394 132.88 88.9665 130.451C87.1723 125.146 85.3264 119.807 83.4889 114.512C82.0273 111.61 80.5656 108.709 79.1473 105.799C77.5211 102.975 76.0246 100.125 74.2771 97.3693C72.598 94.7347 70.6848 92.2802 68.8496 89.7656C67.3843 87.538 65.919 85.3104 64.4538 83.0829C64.2124 82.9952 63.9709 82.9075 63.7211 82.7767C61.8247 78.7934 59.1043 75.419 55.6032 72.6451C55.3126 72.0735 55.1432 71.4335 54.7481 71.0168C51.5701 67.5968 48.3656 64.2717 45.1444 60.8601C43.6142 59.4527 42.0757 58.0021 40.5455 56.5948C39.9966 55.849 39.1967 55.197 38.8989 54.3576C38.6178 53.6046 38.6755 52.5166 39.0419 51.8621C39.2425 51.5091 40.5637 51.6111 41.2448 51.8825C41.969 52.1454 42.5876 52.7879 43.2157 53.249C45.4065 55.515 47.5972 57.781 49.7447 60.0553C53.044 63.4069 56.3085 66.81 59.6078 70.1616C62.1649 73.3882 64.6703 76.5801 67.2273 79.8068C67.8963 80.7086 68.522 81.6188 69.1994 82.5639C71.0514 85.1649 72.9383 87.7143 74.7903 90.3154C76.9305 93.9371 79.1224 97.5937 81.2626 101.216C82.5117 103.485 83.7523 105.711 85.0014 107.981C85.6343 109.159 86.2673 110.337 86.9435 111.507C88.4675 115.652 90.018 119.703 91.5336 123.805Z" fill="#186954"/>
<path d="M86.9519 111.55C86.319 110.372 85.6861 109.194 85.0099 108.025C83.7608 105.755 82.5202 103.529 81.2711 101.259C81.5606 100.44 81.9882 99.6391 82.0964 98.8104C83.5491 85.7412 84.9502 72.6372 86.4029 59.568C86.6841 57.0906 87.2823 56.7051 90.3055 56.7902C90.7546 58.4078 91.4968 60.1479 91.7634 61.9804C93.9956 77.384 93.4556 92.6087 88.779 107.561C88.3309 108.949 87.5898 110.215 86.9519 111.55Z" fill="#55BE93"/>
<path d="M74.7902 90.3153C72.9382 87.7143 71.0514 85.1649 69.1994 82.5638C68.5304 81.662 67.9047 80.7518 67.2273 79.8067C67.0016 76.7997 66.7843 73.8359 66.5586 70.8289C65.9813 62.5513 65.3607 54.2821 64.7833 46.0045C64.7185 45.2095 64.853 44.286 65.211 43.5883C65.9618 42.1412 67.5689 42.0979 68.5297 43.3468C68.83 43.737 69.069 44.2738 69.2479 44.7326C73.9593 56.9621 77.6763 69.3851 76.8529 82.6908C76.7375 84.8668 76.2161 87.032 75.738 89.1888C75.7356 89.638 75.1638 89.9286 74.7902 90.3153Z" fill="#55BE93"/>
<path d="M59.6078 70.1615C56.3085 66.81 53.044 63.4068 49.7447 60.0553C49.7387 59.563 49.854 59.0021 49.6835 58.5866C45.8283 49.376 41.9299 40.1739 38.0315 30.9717C37.3493 29.3097 36.6239 27.6561 36.2877 25.9268C36.1279 25.1055 36.6193 23.7088 37.2258 23.3665C37.8673 22.9726 39.3867 23.1707 39.9452 23.7351C41.5606 25.3502 43.0367 27.1719 44.3398 29.0272C49.6376 36.6562 53.5925 44.995 56.1361 53.9222C57.4163 58.429 58.4022 63.038 59.4314 67.6385C59.686 68.4863 59.5862 69.3582 59.6078 70.1615Z" fill="#55BE93"/>
<path d="M84.1472 138.208C72.7152 132.265 61.9979 125.151 51.4368 117.917C49.8874 116.873 48.4257 115.587 47.1634 114.172C46.5881 113.521 46.0344 112.059 46.3744 111.499C46.8453 110.69 48.2062 109.842 49.0782 109.941C51.7975 110.31 54.4723 110.911 57.0595 111.754C68.7883 115.531 79.0611 121.744 88.1304 130.075C88.3454 130.258 88.6733 130.328 88.9316 130.503C89.359 132.932 89.7865 135.361 90.214 137.791C88.2178 137.91 86.1783 138.037 84.1472 138.208Z" fill="#55BE93"/>
<path d="M83.4889 114.512C80.6062 113.996 77.6791 113.712 74.8757 112.911C62.8347 109.375 51.2057 104.727 40.2409 98.6486C37.8291 97.3229 35.0018 96.1678 34.2932 92.9855C34.7462 90.699 36.3977 90.4227 38.1321 90.8033C41.8255 91.5658 45.6234 92.1733 49.1234 93.5566C58.3046 97.1552 67.3801 101.133 76.4736 104.974C77.3095 105.349 78.2068 105.579 79.1124 105.851C80.5656 108.709 82.0273 111.611 83.4889 114.512Z" fill="#55BE93"/>
<path d="M55.5685 72.6967C50.6668 71.7206 45.6161 71.1323 40.8465 69.6819C29.7808 66.315 19.921 60.3806 10.2439 54.2313C8.19486 52.9248 5.86115 51.5391 5.92975 48.43C7.29549 46.6839 9.03352 46.3908 10.9901 47.2217C15.6708 49.1382 20.2818 51.1579 24.9625 53.0743C31.1685 55.6812 37.4094 58.2364 43.6419 60.7484C44.0815 60.9321 44.6436 60.8228 45.1877 60.8516C48.4006 64.22 51.6134 67.5883 54.7914 71.0083C55.1085 71.4851 55.2778 72.1251 55.5685 72.6967Z" fill="#55BE93"/>
<path d="M68.8147 89.8174C62.7682 91.2623 56.8731 90.255 51.0322 88.8333C41.6023 86.4944 33.1514 82.0358 24.8063 77.1978C23.2905 76.326 21.9741 75.3257 21.8553 73.3299C22.5232 71.2259 24.2 71.0793 25.9512 71.5464C30.5322 72.7195 35.148 73.841 39.6762 75.2038C47.7404 77.6737 55.7433 80.2901 63.7379 82.8633C63.9276 82.9161 64.169 83.0038 64.4105 83.0915C65.8757 85.319 67.3494 87.5898 68.8147 89.8174Z" fill="#55BE93"/>
</g>
<defs>
<clipPath id="clip0">
<rect width="97.0431" height="141.283" fill="white" transform="translate(0.065918 19.1963) rotate(-11.0033)"/>
</clipPath>
</defs>
</svg>
