<svg width="166" height="280" viewBox="0 0 166 280" fill="none" xmlns="http://www.w3.org/2000/svg">
<g clip-path="url(#clip0)">
<path d="M94.0462 98.6447C93.8569 100.3 93.0054 101.86 92.2485 103.326C91.4443 104.792 90.3089 106.022 89.2209 107.441C91.4916 108.055 92.1066 109.71 92.2012 111.933C92.2958 114.676 92.7216 117.466 92.9108 120.209C93.0527 122.195 92.7216 122.431 90.6874 122.431C86.619 122.431 82.5506 122.337 78.4822 122.337C76.8737 122.337 72.0957 121.864 71.055 121.296C71.055 120.634 70.9131 119.878 71.1023 119.168C72.0011 115.669 72.2377 112.122 73.2784 108.67C74.1772 107.582 76.0222 108.244 76.3061 107.772C73.1365 104.461 71.5281 99.0231 72.3323 94.5778C73.1838 89.9435 75.6438 86.0657 80.4691 85.451C82.1248 85.2145 85.8148 85.6874 86.004 85.7347C90.2143 86.9169 92.9108 89.4706 93.8096 93.8212C93.8096 94.1522 94.3773 95.8547 94.0462 98.6447ZM75.4072 97.6517C75.4545 101.151 76.7318 103.752 79.7595 105.407C81.9829 106.589 84.3955 107.11 86.619 105.313C89.9305 102.617 91.4443 99.1649 90.7347 94.9089C90.0724 91.2203 87.1393 88.8085 83.4494 88.6667C79.4283 88.5248 76.8264 90.3691 75.7857 94.2468C75.4545 95.2872 75.5965 96.5167 75.4072 97.6517Z" fill="#372F2C"/>
<path d="M77.0157 120.965C81.7464 121.155 86.4298 121.249 91.1131 121.486C93.9989 121.627 96.8846 121.958 99.7703 122.242C101.521 122.431 102.703 123.283 103.271 125.08C105.353 131.511 107.529 137.895 109.657 144.326C109.799 144.799 109.941 145.367 109.799 145.84C109.657 146.313 109.279 146.927 108.853 147.116C108.427 147.306 107.529 147.116 107.339 146.833C106.724 145.84 105.778 145.745 104.832 145.603C99.4392 144.705 94.0462 143.617 88.6059 143.002C82.2667 142.293 75.8803 142.151 69.4939 142.719C65.4255 143.097 61.4044 143.57 57.5252 144.752C56.3425 145.083 55.1599 145.319 54.4976 146.596C54.3083 146.975 53.3149 147.211 52.8418 147.069C52.4161 146.927 51.9903 146.171 51.943 145.603C51.8484 144.988 52.0849 144.326 52.3215 143.759C54.1664 139.172 55.9641 134.537 57.8564 129.95C58.7079 127.87 59.7013 125.836 60.6475 123.803C61.3571 122.195 62.729 121.533 64.3847 121.486C67.9327 121.344 71.4808 121.249 75.0288 121.107C75.7384 121.06 77.0157 121.013 77.0157 120.965Z" fill="#35837A"/>
<path d="M166 212.565C165.905 212.943 165.716 213.369 165.669 213.747C165.48 215.686 165.338 217.625 165.148 219.564C161.506 219.28 157.863 219.044 154.221 218.76C152.754 218.665 151.288 218.476 149.821 218.382C147.077 218.145 144.333 217.909 141.59 217.625C140.502 217.531 139.414 217.341 138.373 217.294C136.717 217.247 135.014 217.105 133.358 217.341C132.696 217.436 131.892 218.334 131.561 219.044C131.135 219.99 131.797 220.794 132.743 221.172C133.169 221.361 133.595 221.503 134.021 221.503C135.913 221.645 137.852 221.739 139.745 221.928C143.482 222.307 147.266 222.685 151.004 223.063C152.423 223.205 153.795 223.347 155.214 223.489C158.194 223.867 161.175 224.246 164.155 224.624C163.256 229.4 161.553 233.94 159.188 238.196C154.788 235.926 150.341 233.704 145.942 231.434C142.914 229.873 139.934 228.218 136.954 226.563C136.055 226.09 135.25 225.381 134.352 224.908C133.027 224.198 131.702 224.577 130.993 225.712C130.378 226.657 130.709 227.698 131.892 228.691C132.223 228.975 132.554 229.353 132.932 229.542C136.386 231.481 139.887 233.42 143.387 235.359C145.989 236.777 148.544 238.243 151.193 239.615C153.038 240.608 154.977 241.506 156.87 242.452C154.93 245.148 152.943 247.843 151.004 250.539C150.483 250.349 149.868 250.208 149.443 249.877C144.239 245.999 139.082 242.121 133.879 238.243C131.986 236.825 130.047 235.453 128.107 234.082C127.256 233.467 126.262 233.042 125.269 233.798C123.755 234.839 123.897 236.541 125.505 237.77C128.769 240.182 131.986 242.594 135.203 245.053C139.366 248.174 143.482 251.343 147.598 254.511C144.854 257.49 141.873 260.186 138.562 262.55C138.42 262.219 138.325 261.794 138.089 261.557C137.001 260.28 135.865 259.051 134.73 257.821C130.898 253.565 127.066 249.356 123.187 245.1C120.207 241.837 117.227 238.527 114.152 235.311C110.509 231.481 106.819 227.698 103.129 223.915C99.723 220.462 96.2696 217.058 92.8635 213.653C92.485 213.274 92.1066 212.802 91.6808 212.329C93.1 212.14 94.3773 211.856 95.6546 211.856C105.211 211.714 114.719 211.525 124.275 211.477C129.574 211.477 134.825 211.714 140.123 211.809C148.118 211.95 156.113 212.092 164.108 212.187C164.581 212.187 165.101 212.092 165.622 212.045C165.669 211.099 165.716 210.248 165.763 209.397C165.858 209.397 166 209.444 166.095 209.444C166 210.484 166 211.525 166 212.565Z" fill="#FC9C47"/>
<path d="M79.0499 141.158C79.0972 141.063 86.0986 141.063 86.9028 141.158C89.5993 141.442 92.2958 141.725 95.0396 141.962C94.8977 142.719 94.7558 143.475 94.6611 144.232C93.9989 148.015 93.3365 151.751 92.6743 155.534C91.9173 159.648 91.1131 163.81 90.4035 167.924C89.6939 172.322 89.0789 176.767 88.3693 181.165C88.1328 182.725 88.8424 184.286 90.0251 184.57C91.0658 184.854 92.3431 183.955 92.7216 182.394C93.5731 178.469 94.33 174.544 95.0396 170.572C95.7019 166.931 96.2696 163.29 96.8373 159.648C97.263 157.047 97.6888 154.494 98.1145 151.94C98.6349 148.866 99.1553 145.792 99.6757 142.719C103.744 143.712 107.812 144.705 111.834 145.651C111.55 146.076 111.171 146.454 110.935 146.88C108.853 150.663 106.772 154.399 104.69 158.182C102.893 161.493 101.048 164.85 99.2972 168.208C98.6822 169.343 98.2565 170.572 99.108 171.802C101.048 172.937 101.994 172.842 103.129 170.998C104.69 168.444 106.204 165.796 107.623 163.148C109.752 159.175 111.786 155.156 113.868 151.136C114.577 149.765 115.24 148.393 115.902 147.022C119.024 148.393 122.146 149.765 125.269 151.183C123.613 153.69 122.005 156.243 120.349 158.75C116.753 164.188 113.111 169.626 109.468 175.065C107.812 177.524 106.109 179.935 104.501 182.394C103.602 183.766 103.697 185.232 104.643 185.894C105.542 186.556 107.197 186.319 108.096 185.279C109.374 183.766 110.651 182.205 111.739 180.597C117.085 172.558 122.43 164.424 127.729 156.338C128.344 155.392 128.675 154.304 129.148 153.264C133.358 155.534 137.285 158.23 140.833 161.351C140.312 161.682 139.697 161.965 139.224 162.344C137.143 164.141 135.061 165.985 132.98 167.782C129.858 170.43 126.688 173.031 123.566 175.727C120.254 178.564 117.037 181.496 113.726 184.381C109.326 188.211 104.832 191.947 100.433 195.777C96.5061 199.182 92.6743 202.729 88.7951 206.181C86.7609 207.978 85.8621 207.127 84.6321 205.33C84.2536 204.81 84.2063 204.006 84.159 203.296C83.9698 200.033 83.8752 196.77 83.7332 193.46C83.5913 190.008 83.4967 186.509 83.3548 183.057C83.2129 180.125 83.1182 177.145 82.9763 174.213C82.8344 171.66 82.6925 169.106 82.5979 166.505C82.456 162.013 82.314 157.52 82.2194 153.028C82.1721 150.9 82.2667 148.772 82.1721 146.644C82.0775 144.894 81.841 143.097 81.6517 141.347C80.7529 141.253 79.9014 141.205 79.0499 141.158Z" fill="#FC9C47"/>
<path d="M165.574 207.127C165.622 207.883 165.622 208.64 165.669 209.397C165.622 210.248 165.574 211.052 165.527 212.045C165.007 212.092 164.533 212.187 164.013 212.187C156.018 212.045 148.023 211.95 140.028 211.809C134.73 211.714 129.479 211.43 124.181 211.477C114.625 211.525 105.116 211.714 95.56 211.856C94.2827 211.856 93.0527 212.14 91.5862 212.329C92.012 212.802 92.3431 213.274 92.7689 213.653C96.175 217.105 99.6284 220.462 103.034 223.915C106.724 227.698 110.414 231.481 114.057 235.311C117.085 238.527 120.112 241.837 123.093 245.1C126.972 249.309 130.804 253.565 134.635 257.821C135.771 259.051 136.906 260.28 137.994 261.557C138.231 261.841 138.325 262.219 138.467 262.55C137.048 263.496 135.629 264.442 134.21 265.388C133.973 264.962 133.831 264.442 133.547 264.063C132.743 263.07 131.892 262.125 131.04 261.131C127.019 256.686 122.998 252.288 118.977 247.89C116.091 244.769 113.253 241.601 110.367 238.527C107.481 235.453 104.596 232.427 101.663 229.448C97.2157 224.955 92.7216 220.51 88.2274 216.017C87.8016 215.592 87.2813 215.166 86.8555 214.788C85.4363 215.403 84.774 216.301 84.9632 217.72C85.1052 218.666 85.2944 219.611 85.3417 220.557C85.6255 225.57 85.8621 230.535 86.1459 235.548C86.2878 238.054 86.4297 240.561 86.5244 243.067C86.6663 246.708 86.8082 250.397 86.9028 254.038C87.0447 257.821 87.1867 261.604 87.2813 265.388C87.2813 265.529 87.2813 265.624 87.2813 265.766C87.5178 269.454 87.7543 273.19 88.0382 276.879C88.1328 277.872 88.2747 278.912 88.4166 279.905C86.7609 279.905 85.0578 279.905 83.4021 279.953C83.2602 278.818 83.1183 277.683 83.0236 276.501C82.7398 272.292 82.456 268.036 82.2667 263.827C81.9829 258.389 81.7464 252.95 81.4625 247.465C81.3206 244.769 81.1787 242.074 81.0841 239.378C80.9421 235.453 80.8475 231.528 80.6583 227.603C80.5637 225.381 80.3271 223.111 80.1852 220.888C80.1852 220.794 79.996 220.746 79.7595 220.604C79.2864 221.077 78.766 221.55 78.2456 222.023C75.9276 224.057 73.6569 226.137 71.2915 228.123C67.98 230.961 64.6213 233.751 61.3098 236.588C59.0863 238.527 56.8629 240.513 54.6395 242.405C51.1388 245.431 47.5908 248.411 44.1374 251.437C42.6708 252.714 41.2989 254.038 39.8324 255.268C37.3725 257.396 34.8652 259.524 32.3579 261.652C31.601 262.314 30.8914 263.07 30.1818 263.78C28.9045 262.834 27.5799 261.888 26.3026 260.942C26.5865 260.611 26.823 260.186 27.1542 259.902C29.8034 257.49 32.4999 255.078 35.1964 252.667C36.6629 251.343 38.1294 249.971 39.6432 248.647C42.1032 246.519 44.6577 244.391 47.1177 242.263C49.3884 240.277 51.6592 238.243 53.9299 236.304C58.2348 232.616 62.5397 228.975 66.8447 225.286C68.1693 224.151 69.4466 222.969 70.7712 221.834C73.5623 219.375 76.4007 216.916 79.1918 214.504C79.996 213.842 80.1379 213.038 79.6648 211.998C79.1918 211.998 78.766 211.998 78.293 211.998C67.6016 211.856 56.8629 211.761 46.1716 211.619C32.3106 211.477 18.4024 211.336 4.54146 211.241C3.07495 211.241 1.56112 211.241 0.0946092 211.241C0.0946092 209.68 0.0946092 208.167 0.0473022 206.607C26.208 207.127 52.3214 206.985 78.766 206.985C78.3876 206.512 78.2456 206.276 78.0564 206.134C74.2246 202.54 70.3454 198.946 66.5135 195.304C63.5332 192.467 60.5056 189.63 57.5725 186.745C51.328 180.692 45.1308 174.592 38.8863 168.491C35.764 165.418 32.6891 162.296 29.5668 159.175C29.0938 158.702 28.7153 158.23 28.2895 157.709C29.7087 156.764 31.128 155.865 32.5472 154.919C32.9729 155.534 33.2568 156.291 33.7771 156.764C38.7917 161.587 43.8535 166.363 48.9154 171.14C52.8891 174.923 56.8156 178.753 60.7421 182.584C65.8039 187.502 70.8185 192.373 75.8803 197.291C76.8264 198.189 77.8672 198.993 78.9079 199.892C79.0499 199.844 79.1918 199.797 79.2864 199.702C79.0972 196.723 78.9079 193.697 78.766 190.717C78.6241 187.265 78.4822 183.766 78.3403 180.314C78.2457 177.618 78.0564 174.923 77.9618 172.227C77.8199 168.633 77.6307 165.039 77.5834 161.445C77.536 154.683 77.5834 147.873 77.5834 141.111C78.0564 141.063 78.5768 141.063 79.0499 141.016C79.9014 141.063 80.7056 141.111 81.6991 141.158C81.8883 142.955 82.1248 144.705 82.2194 146.454C82.314 148.582 82.2194 150.71 82.2667 152.839C82.3613 157.331 82.5033 161.824 82.6452 166.316C82.7398 168.87 82.8817 171.423 83.0236 174.024C83.1656 176.956 83.3075 179.935 83.4021 182.867C83.544 186.319 83.6386 189.819 83.7806 193.271C83.9225 196.534 84.0171 199.797 84.2063 203.107C84.2536 203.817 84.3009 204.621 84.6794 205.141C85.9094 206.938 86.8082 207.789 88.8424 205.992C92.7216 202.54 96.5534 198.993 100.48 195.588C104.879 191.758 109.374 187.975 113.773 184.191C117.085 181.354 120.301 178.422 123.613 175.537C126.735 172.842 129.905 170.241 133.027 167.593C135.109 165.796 137.19 163.952 139.272 162.155C139.745 161.776 140.312 161.492 140.88 161.161C142.015 162.202 143.198 163.195 144.333 164.235C140.738 167.404 137.095 170.572 133.453 173.693C129.337 177.24 125.127 180.739 120.964 184.286C117.132 187.596 113.3 190.907 109.468 194.217C105.305 197.858 101.142 201.499 97.0265 205.141C96.5061 205.614 96.0331 206.181 95.3708 206.843C119.024 206.37 142.299 206.796 165.574 207.127Z" fill="#E77E1F"/>
<path d="M0.0473006 211.383C1.51382 211.383 3.02764 211.383 4.49415 211.383C18.3551 211.525 32.2633 211.619 46.1242 211.761C56.8156 211.856 67.5543 211.998 78.2456 212.14C78.6714 212.14 79.1445 212.14 79.6176 212.14C80.0906 213.18 79.9487 213.937 79.1445 214.646C76.3534 217.105 73.515 219.517 70.7238 221.976C69.3993 223.111 68.122 224.293 66.7974 225.428C62.4924 229.116 58.1875 232.758 53.8826 236.446C51.6119 238.433 49.3411 240.466 47.0704 242.405C44.6104 244.533 42.0559 246.661 39.5959 248.789C38.0821 250.113 36.6156 251.484 35.149 252.809C32.4525 255.22 29.8034 257.632 27.1069 260.044C26.7757 260.328 26.5392 260.753 26.2553 261.084C23.0858 258.862 20.2947 256.213 17.7401 253.281C20.6731 250.822 23.6062 248.316 26.5865 245.857C29.1411 243.729 31.7429 241.648 34.3448 239.567C36.5682 237.77 38.839 235.926 41.0151 234.082C41.6301 233.562 42.1978 232.9 42.6235 232.19C43.1439 231.386 43.1912 230.535 42.4816 229.684C41.772 228.833 40.9205 228.596 39.8797 229.022C39.3594 229.258 38.7917 229.448 38.3186 229.826C35.2437 232.332 32.1687 234.886 29.0938 237.392C26.9176 239.189 24.7415 240.986 22.6127 242.83C20.2001 244.911 17.7874 247.039 15.3747 249.215C15.1382 249.451 15.0436 249.877 14.9017 250.255C12.8202 247.276 10.7387 244.344 8.60985 241.364C13.8136 238.858 19.0647 236.399 24.2684 233.893C26.6338 232.758 29.0938 231.717 31.3645 230.488C32.9729 229.589 34.534 228.549 35.9533 227.367C36.8994 226.61 36.8994 225.286 36.2371 224.435C35.4802 223.394 34.6287 223.158 33.3514 223.773C32.4052 224.198 31.601 224.813 30.6549 225.286C23.1804 229.022 15.7059 232.805 8.18409 236.494C7.5691 236.777 6.8595 236.872 6.1972 237.061C4.54146 234.129 3.21686 231.055 2.41265 227.745C2.83841 227.651 3.31148 227.603 3.73724 227.461C7.19065 226.516 10.6441 225.522 14.0975 224.577C18.5443 223.3 22.9439 222.07 27.3907 220.746C28.3368 220.463 29.3303 219.942 30.0872 219.328C31.5064 218.145 31.1753 216.301 29.4249 215.639C28.8572 215.403 28.053 215.497 27.438 215.686C21.9504 217.247 16.4628 218.807 11.0225 220.415C7.75833 221.361 4.54146 222.449 1.32459 223.489C0.473063 219.469 -0.236541 215.497 0.0473006 211.383Z" fill="#FC9C47"/>
<path d="M28.3368 157.898C28.7626 158.371 29.1411 158.892 29.6141 159.364C32.6891 162.486 35.8113 165.607 38.9336 168.68C45.1308 174.781 51.3753 180.881 57.6198 186.934C60.5529 189.819 63.5805 192.656 66.5608 195.494C70.3927 199.135 74.2719 202.682 78.1037 206.323C78.2929 206.512 78.4349 206.701 78.8133 207.174C52.3214 207.08 26.208 207.221 0.0473022 206.749C0.189223 202.871 0.709599 199.088 1.79766 195.352C2.03419 195.541 2.27073 195.825 2.55457 195.872C4.02108 196.25 5.5349 196.581 7.04873 196.865C11.1644 197.716 15.2801 198.567 19.4431 199.371C23.7481 200.175 28.1003 200.885 32.4525 201.594C34.1083 201.878 35.764 201.972 37.4198 202.114C38.5078 202.209 39.1228 201.499 39.5013 200.648C39.927 199.702 39.5486 198.804 38.6971 198.284C37.8928 197.811 36.994 197.291 36.0952 197.101C31.4118 196.25 26.6811 195.494 21.9504 194.69C17.882 193.98 13.8136 193.224 9.69791 192.562C7.42718 192.183 5.15645 191.947 2.88572 191.616C4.163 188.637 5.44029 185.657 6.67027 182.678C7.23795 182.962 7.85294 183.246 8.42063 183.435C15.8005 186.319 23.1804 189.251 30.6076 192.041C31.8849 192.514 33.3514 192.562 34.7233 192.704C35.8586 192.798 36.5682 191.994 36.8048 191.048C36.994 190.15 36.5682 189.299 35.6221 188.826C34.7706 188.4 33.8717 187.975 32.9729 187.644C29.3776 186.272 25.7823 184.995 22.1869 183.624C17.7401 181.969 13.2932 180.314 8.84639 178.706C10.4548 175.727 12.2998 172.984 14.7124 170.619C15.4221 170.856 16.179 170.998 16.8413 171.376C19.3958 172.842 21.9504 174.355 24.4577 175.868C29.7087 178.942 35.0071 182.016 40.2582 185.09C42.9547 186.65 45.6512 188.306 48.6788 189.251C49.2938 189.015 49.9088 188.826 50.4292 188.637C51.4699 186.698 51.5172 186.603 50.098 185.232C49.5303 184.712 48.9154 184.286 48.2531 183.86C46.9285 183.056 45.5566 182.347 44.232 181.591C38.9809 178.611 33.7298 175.585 28.5261 172.606C25.0727 170.619 21.6193 168.633 18.1659 166.647C21.1935 163.384 24.5523 160.405 28.3368 157.898Z" fill="#FC9C47"/>
<path d="M88.4166 279.953C88.2747 278.96 88.1328 277.919 88.0382 276.926C87.7543 273.238 87.5178 269.502 87.2813 265.813C87.2813 265.671 87.2813 265.577 87.2813 265.435C87.1393 261.652 86.9974 257.868 86.9028 254.085C86.7609 250.444 86.6663 246.755 86.5243 243.114C86.4297 240.608 86.2878 238.101 86.1459 235.595C85.9094 230.582 85.6255 225.617 85.3417 220.604C85.2944 219.659 85.1051 218.713 84.9632 217.767C84.774 216.348 85.389 215.45 86.8555 214.835C87.3286 215.261 87.8016 215.639 88.2274 216.065C92.7216 220.557 97.2157 225.002 101.663 229.495C104.596 232.474 107.481 235.501 110.367 238.574C113.253 241.648 116.138 244.817 118.977 247.938C122.998 252.336 127.019 256.781 131.04 261.179C131.892 262.125 132.743 263.07 133.547 264.111C133.831 264.489 134.02 265.009 134.21 265.435C131.75 266.948 129.29 268.414 126.83 269.927C126.783 269.596 126.83 269.265 126.688 268.982C124.417 264.867 122.146 260.8 119.781 256.734C118.693 254.842 117.605 252.95 116.28 251.201C114.672 249.025 112.969 249.262 111.644 251.957C112.401 253.329 113.3 254.795 114.104 256.308C116.044 259.807 118.031 263.26 119.876 266.759C120.775 268.461 121.39 270.258 122.146 272.008C119.45 273.048 116.801 274.136 114.104 275.176C113.158 273.001 112.165 270.826 111.171 268.698C108.948 263.827 106.677 259.003 104.454 254.18C103.413 251.91 102.088 251.626 100.101 253.234C99.723 254.7 100.196 256.024 100.811 257.301C101.568 258.956 102.325 260.564 103.034 262.219C105.163 267.043 107.245 271.866 109.326 276.69C106.346 277.352 103.413 278.014 100.433 278.676C100.196 277.352 100.007 276.028 99.7703 274.704C99.0607 270.4 98.3511 266.144 97.6415 261.841C97.3576 260.28 97.1684 258.672 96.8373 257.112C96.5534 255.788 95.418 255.078 94.0935 255.268C93.0054 255.409 92.5796 256.024 92.5796 257.537C92.5796 258.436 92.7689 259.334 92.8635 260.186C93.2892 263.212 93.6677 266.286 94.0935 269.313C94.5665 272.67 95.1342 275.98 95.6073 279.338C93.3365 279.48 90.8766 279.716 88.4166 279.953Z" fill="#FC9C47"/>
<path d="M30.2291 263.922C30.9387 263.212 31.6483 262.456 32.4052 261.794C34.8652 259.666 37.3725 257.537 39.8797 255.409C41.3463 254.133 42.7182 252.809 44.1847 251.579C47.6854 248.552 51.2334 245.573 54.6868 242.547C56.9102 240.608 59.1337 238.622 61.3571 236.73C64.6686 233.893 68.0274 231.103 71.3388 228.265C73.6569 226.232 75.9749 224.198 78.293 222.165C78.8133 221.692 79.2864 221.219 79.8068 220.746C80.0433 220.888 80.2325 220.983 80.2325 221.03C80.4218 223.253 80.611 225.475 80.7056 227.745C80.8948 231.67 80.9895 235.595 81.1314 239.52C81.226 242.216 81.3679 244.911 81.5098 247.607C81.7464 253.045 82.0302 258.531 82.314 263.969C82.5506 268.178 82.7871 272.434 83.071 276.642C83.1656 277.777 83.3075 278.912 83.4494 280.095C79.6649 279.953 75.8803 279.811 72.0957 279.669C71.8592 279.669 71.6227 279.48 71.4335 279.385C71.5754 278.439 71.67 277.494 71.8119 276.548C72.9 271.11 74.0353 265.671 75.1234 260.28C75.4072 258.909 75.5965 257.49 75.6438 256.119C75.6911 255.031 74.8396 253.991 73.988 253.802C73.0892 253.612 72.0484 254.322 71.5754 255.362C71.4335 255.693 71.2915 256.071 71.2442 256.45C70.5346 259.618 69.7777 262.787 69.0681 265.955C68.122 270.164 67.2231 274.42 66.3243 278.676C62.9655 277.919 59.6067 277.115 56.2479 276.359C56.3425 276.075 56.3899 275.744 56.5318 275.46C58.8498 270.589 61.1679 265.719 63.4386 260.8C64.3847 258.767 65.3309 256.734 66.0878 254.606C66.4189 253.707 66.3716 252.525 66.1351 251.626C65.9459 250.917 65.1889 250.255 64.1482 250.349C62.8709 250.444 62.2086 251.343 61.7355 252.336C58.9444 258.625 56.1533 264.915 53.4095 271.204C52.8418 272.481 52.4634 273.852 51.9903 275.129C48.8681 273.852 45.7931 272.528 42.6708 271.251C42.9074 270.826 43.0966 270.353 43.4278 269.975C45.1308 267.894 46.8812 265.86 48.5842 263.732C51.2334 260.422 53.8826 257.159 56.4372 253.802C58.1402 251.579 59.7486 249.215 61.2625 246.85C62.114 245.573 61.8301 244.249 60.7894 243.398C59.7486 242.594 58.8971 242.641 57.6671 244.107C55.6803 246.472 53.9299 248.978 52.0376 251.39C48.5842 255.835 45.0835 260.28 41.6774 264.725C40.542 266.191 39.5486 267.705 38.4605 269.218C35.7167 267.326 32.9729 265.624 30.2291 263.922Z" fill="#FC9C47"/>
<path d="M77.5834 141.253C77.5834 148.015 77.536 154.825 77.5834 161.587C77.6307 165.181 77.8199 168.775 77.9618 172.369C78.0564 175.065 78.2457 177.76 78.3403 180.456C78.4822 183.908 78.5768 187.407 78.766 190.859C78.9079 193.886 79.0972 196.865 79.2864 199.844C79.1445 199.892 79.0026 199.939 78.9079 200.033C77.9145 199.182 76.8264 198.378 75.8803 197.433C70.8185 192.562 65.8039 187.644 60.7421 182.725C56.8156 178.895 52.8891 175.112 48.9154 171.281C43.9008 166.458 38.839 161.729 33.7771 156.905C33.2568 156.385 32.9256 155.676 32.5472 155.061C34.6287 153.832 36.7102 152.555 38.7917 151.325C39.454 152.318 40.069 153.359 40.7313 154.352C43.8062 159.412 46.8339 164.424 49.9088 169.484C50.6184 170.619 51.4699 171.66 52.3215 172.7C52.9364 173.457 53.6934 173.504 54.5449 173.031C56.0114 172.275 56.3898 171.187 55.4437 169.437C53.8353 166.6 52.0849 163.81 50.3819 161.067C47.9692 157.142 45.5093 153.217 43.0966 149.339C46.55 148.015 50.0507 146.691 53.5041 145.367C54.5922 147.968 55.7276 150.569 56.8156 153.17C58.2821 156.574 59.7959 159.979 61.2625 163.431C62.7763 167.025 64.2901 170.667 65.8039 174.261C66.4662 175.821 67.4597 176.436 68.9735 176.058C69.6831 175.869 70.1089 176.058 70.7238 176.341C72.3323 177.098 74.1773 175.821 74.0353 174.071C73.8461 171.991 73.515 169.91 73.1838 167.782C72.7107 164.424 72.2377 161.067 71.7646 157.757C71.4334 155.298 71.055 152.839 70.7238 150.379C70.3927 147.589 70.1089 144.799 69.825 142.009C72.4269 141.725 74.9815 141.489 77.5834 141.253Z" fill="#FC9C47"/>
<path d="M69.825 141.962C70.1089 144.752 70.3927 147.542 70.7238 150.332C71.0077 152.791 71.3861 155.25 71.7646 157.709C72.2377 161.067 72.7107 164.424 73.1838 167.735C73.4676 169.815 73.7988 171.896 74.0353 174.024C74.2246 175.774 72.3796 177.051 70.7238 176.294C70.1089 176.01 69.6831 175.821 68.9735 176.01C67.4124 176.389 66.4662 175.821 65.8039 174.213C64.2428 170.619 62.7763 166.978 61.2625 163.384C59.7959 159.979 58.2821 156.574 56.8156 153.122C55.6802 150.521 54.5922 147.92 53.5041 145.319C54.9233 144.894 56.3898 144.516 57.8091 144.09C61.1205 151.278 64.432 158.466 67.7908 165.701C67.8381 164.614 67.6489 163.526 67.5543 162.486C67.2704 159.837 67.0339 157.142 66.7028 154.494C66.2297 150.521 65.6147 146.549 65.0943 142.529C66.6555 142.388 68.2639 142.198 69.825 141.962Z" fill="#E77E1F"/>
<path d="M18.1659 166.742C21.6193 168.728 25.0727 170.714 28.5261 172.7C33.7771 175.679 38.9809 178.706 44.232 181.685C45.5566 182.442 46.9285 183.151 48.2531 183.955C48.9154 184.333 49.5777 184.806 50.098 185.326C51.5172 186.65 51.5172 186.745 50.4292 188.731C49.9088 188.92 49.2938 189.11 48.6788 189.346C45.6512 188.4 42.9547 186.745 40.2582 185.185C35.0071 182.111 29.7087 179.037 24.4577 175.963C21.9031 174.497 19.3958 172.937 16.8413 171.471C16.179 171.092 15.4221 170.95 14.7124 170.714C15.8478 169.343 17.0305 168.066 18.1659 166.742Z" fill="#E77E1F"/>
<path d="M2.83841 191.616C5.10914 191.9 7.37988 192.183 9.65061 192.562C13.719 193.224 17.8347 194.028 21.9031 194.69C26.6338 195.494 31.3645 196.25 36.0479 197.101C36.9467 197.291 37.8455 197.764 38.6498 198.284C39.5013 198.804 39.8797 199.702 39.454 200.648C39.0755 201.452 38.4605 202.209 37.3725 202.114C35.7167 201.972 34.061 201.878 32.4052 201.594C28.053 200.885 23.7008 200.175 19.3958 199.371C15.2801 198.615 11.1171 197.716 7.00142 196.865C5.4876 196.581 4.02108 196.25 2.50726 195.872C2.22342 195.825 1.98689 195.541 1.75035 195.352C2.17611 194.122 2.50726 192.893 2.83841 191.616Z" fill="#E77E1F"/>
<path d="M15.0909 250.255C15.2328 249.924 15.2801 249.451 15.564 249.214C17.9293 247.086 20.342 244.958 22.8019 242.83C24.9307 240.986 27.1069 239.189 29.283 237.392C32.3579 234.838 35.3856 232.332 38.5078 229.826C38.9336 229.447 39.5013 229.258 40.069 229.022C41.0624 228.596 41.9139 228.833 42.6708 229.684C43.3804 230.488 43.3331 231.339 42.8128 232.19C42.387 232.9 41.8193 233.562 41.2043 234.082C38.9809 235.926 36.7575 237.77 34.534 239.567C31.9322 241.648 29.3303 243.729 26.7757 245.857C23.7954 248.316 20.9097 250.822 17.9293 253.281C16.9359 252.288 15.9897 251.248 15.0909 250.255Z" fill="#E77E1F"/>
<path d="M38.4605 269.076C39.5486 267.563 40.542 266.05 41.6774 264.584C45.1308 260.138 48.5842 255.693 52.0376 251.248C53.9299 248.836 55.7276 246.33 57.6671 243.965C58.8971 242.499 59.7486 242.452 60.7894 243.256C61.8301 244.107 62.114 245.431 61.2625 246.708C59.7013 249.073 58.1402 251.39 56.4372 253.66C53.8826 257.017 51.2334 260.328 48.5842 263.591C46.8812 265.671 45.1308 267.705 43.4278 269.833C43.0966 270.211 42.9547 270.684 42.6708 271.11C41.2516 270.4 39.8797 269.738 38.4605 269.076Z" fill="#E77E1F"/>
<path d="M164.155 224.624C161.175 224.246 158.194 223.867 155.214 223.489C153.795 223.3 152.423 223.205 151.004 223.063C147.266 222.685 143.529 222.26 139.745 221.928C137.852 221.739 135.913 221.645 134.021 221.503C133.595 221.456 133.122 221.314 132.743 221.172C131.797 220.794 131.182 219.99 131.561 219.044C131.892 218.334 132.696 217.436 133.358 217.341C135.014 217.105 136.717 217.247 138.373 217.294C139.461 217.341 140.549 217.531 141.59 217.625C144.333 217.862 147.077 218.098 149.821 218.382C151.288 218.524 152.754 218.665 154.221 218.76C157.863 219.044 161.506 219.328 165.148 219.564C164.817 221.219 164.486 222.922 164.155 224.624Z" fill="#E77E1F"/>
<path d="M6.48105 237.014C7.14335 236.825 7.85295 236.73 8.46794 236.446C15.9424 232.71 23.4642 228.975 30.9387 225.239C31.8376 224.766 32.6891 224.198 33.6352 223.725C34.9125 223.111 35.7167 223.347 36.5209 224.388C37.1832 225.239 37.1359 226.563 36.2371 227.319C34.8179 228.454 33.2568 229.542 31.6483 230.441C29.3303 231.67 26.9176 232.71 24.5523 233.845C19.3485 236.352 14.0975 238.811 8.8937 241.317C8.04218 239.898 7.23796 238.433 6.48105 237.014Z" fill="#E77E1F"/>
<path d="M8.89369 178.8C13.3405 180.456 17.7874 182.111 22.2342 183.719C25.8296 185.043 29.4249 186.367 33.0202 187.738C33.9191 188.069 34.7706 188.495 35.6694 188.92C36.5682 189.346 37.0413 190.197 36.8521 191.143C36.6156 192.089 35.906 192.893 34.7706 192.798C33.3987 192.656 31.9322 192.609 30.6549 192.136C23.2277 189.346 15.8478 186.414 8.46793 183.529C7.85294 183.293 7.28526 183.009 6.71758 182.773C7.37987 181.401 8.13678 180.077 8.89369 178.8Z" fill="#E77E1F"/>
<path d="M156.822 242.499C154.93 241.554 153.038 240.655 151.146 239.662C148.544 238.291 145.942 236.825 143.34 235.406C139.839 233.467 136.386 231.528 132.885 229.589C132.507 229.353 132.176 229.022 131.844 228.738C130.662 227.745 130.378 226.705 130.946 225.759C131.655 224.624 133.027 224.246 134.304 224.955C135.203 225.428 136.007 226.09 136.906 226.61C139.887 228.265 142.867 229.92 145.895 231.481C150.294 233.798 154.741 236.021 159.14 238.243C158.384 239.615 157.627 241.033 156.822 242.499Z" fill="#E77E1F"/>
<path d="M147.503 254.511C143.387 251.343 139.224 248.221 135.109 245.053C131.892 242.594 128.628 240.182 125.411 237.77C123.802 236.541 123.66 234.839 125.174 233.798C126.215 233.089 127.161 233.467 128.013 234.082C129.952 235.453 131.892 236.825 133.784 238.243C138.988 242.121 144.144 245.999 149.348 249.877C149.774 250.208 150.389 250.302 150.909 250.539C149.774 251.863 148.638 253.187 147.503 254.511Z" fill="#E77E1F"/>
<path d="M1.51381 223.442C4.73068 222.401 7.94755 221.361 11.2117 220.368C16.652 218.76 22.1396 217.152 27.6272 215.639C28.2422 215.45 29.0464 215.403 29.6141 215.592C31.3645 216.254 31.6956 218.051 30.2764 219.28C29.5195 219.942 28.5261 220.415 27.5799 220.699C23.1804 222.023 18.7335 223.253 14.2867 224.529C10.8333 225.522 7.37987 226.468 3.92646 227.414C3.5007 227.556 3.07494 227.603 2.60187 227.698C2.31803 226.279 1.89226 224.86 1.51381 223.442Z" fill="#E77E1F"/>
<path d="M51.9903 274.94C52.4634 273.616 52.8418 272.292 53.4095 271.015C56.1533 264.726 58.8971 258.436 61.7355 252.146C62.1613 251.153 62.8709 250.302 64.1482 250.16C65.1416 250.066 65.8985 250.728 66.1351 251.437C66.4189 252.383 66.4189 253.518 66.0878 254.416C65.3309 256.544 64.3847 258.578 63.4386 260.611C61.1679 265.529 58.8498 270.4 56.5318 275.271C56.3899 275.555 56.3425 275.886 56.2479 276.17C54.8287 275.791 53.4095 275.366 51.9903 274.94Z" fill="#E77E1F"/>
<path d="M43.0966 149.386C45.5566 153.311 47.9692 157.189 50.3819 161.114C52.0849 163.904 53.8353 166.647 55.4437 169.484C56.3898 171.187 56.0114 172.274 54.5449 173.078C53.6934 173.551 52.9364 173.504 52.3215 172.747C51.4699 171.707 50.6184 170.667 49.9088 169.532C46.8338 164.519 43.8062 159.459 40.7313 154.399C40.1163 153.359 39.454 152.366 38.7917 151.373C40.2582 150.71 41.6774 150.048 43.0966 149.386Z" fill="#E77E1F"/>
<path d="M109.421 276.595C107.339 271.772 105.258 266.948 103.129 262.125C102.419 260.469 101.615 258.862 100.906 257.206C100.291 255.882 99.8649 254.606 100.196 253.14C102.183 251.532 103.555 251.863 104.548 254.085C106.772 258.956 109.042 263.78 111.266 268.603C112.259 270.779 113.205 272.954 114.199 275.082C112.59 275.602 110.982 276.075 109.421 276.595Z" fill="#E77E1F"/>
<path d="M66.3243 278.534C67.2231 274.278 68.122 270.069 69.0681 265.813C69.7777 262.645 70.4873 259.476 71.2442 256.308C71.3388 255.93 71.4334 255.551 71.5754 255.22C72.0484 254.18 73.0892 253.518 73.988 253.66C74.8395 253.802 75.6911 254.889 75.6438 255.977C75.5491 257.396 75.3599 258.767 75.1234 260.138C74.0353 265.577 72.9 271.015 71.8119 276.406C71.6227 277.352 71.5281 278.298 71.4334 279.243C69.6831 279.007 67.98 278.77 66.3243 278.534Z" fill="#E77E1F"/>
<path d="M95.7965 279.243C95.2761 275.886 94.7558 272.576 94.2827 269.218C93.8569 266.191 93.4312 263.165 93.0527 260.091C92.9108 259.193 92.7689 258.341 92.7689 257.443C92.7216 255.93 93.1946 255.315 94.2827 255.173C95.6073 254.984 96.7427 255.646 97.0265 257.017C97.3576 258.578 97.5469 260.138 97.8307 261.746C98.5403 266.05 99.2499 270.306 99.9595 274.609C100.196 275.933 100.385 277.257 100.622 278.581C98.9661 278.77 97.3576 279.007 95.7965 279.243Z" fill="#E77E1F"/>
<path d="M122.194 271.961C121.437 270.211 120.822 268.367 119.923 266.712C118.078 263.165 116.091 259.713 114.152 256.261C113.3 254.747 112.449 253.281 111.692 251.91C113.016 249.215 114.672 248.978 116.328 251.153C117.605 252.903 118.74 254.795 119.828 256.686C122.146 260.753 124.417 264.867 126.735 268.934C126.877 269.171 126.83 269.549 126.877 269.88C125.269 270.542 123.755 271.251 122.194 271.961Z" fill="#E77E1F"/>
<path d="M65.0943 142.624C65.6147 146.596 66.1824 150.569 66.7028 154.588C67.0339 157.236 67.2231 159.932 67.5543 162.58C67.6489 163.668 67.8381 164.708 67.7908 165.796C64.4793 158.608 61.1679 151.42 57.8091 144.185C60.2217 143.664 62.6344 143.144 65.0943 142.624Z" fill="#FC9C47"/>
<path d="M95.0396 142.009C96.6007 142.246 98.1619 142.482 99.723 142.719C99.2026 145.792 98.6822 148.866 98.1619 151.94C97.7361 154.494 97.3103 157.095 96.8846 159.648C96.2696 163.289 95.7492 166.931 95.0869 170.572C94.3773 174.497 93.6204 178.469 92.7689 182.394C92.4377 183.955 91.1131 184.854 90.0724 184.57C88.8897 184.286 88.1801 182.725 88.4166 181.165C89.1262 176.767 89.6939 172.322 90.4508 167.924C91.1604 163.762 91.9647 159.648 92.7216 155.534C93.3839 151.751 94.0462 148.015 94.7085 144.232C94.7558 143.522 94.8977 142.766 95.0396 142.009Z" fill="#E77E1F"/>
<path d="M125.316 151.231C126.593 151.893 127.871 152.555 129.195 153.217C128.722 154.257 128.391 155.345 127.776 156.291C122.478 164.377 117.179 172.511 111.786 180.55C110.698 182.205 109.421 183.766 108.144 185.232C107.245 186.272 105.589 186.509 104.69 185.847C103.744 185.185 103.649 183.719 104.548 182.347C106.157 179.888 107.907 177.476 109.516 175.017C113.158 169.579 116.801 164.141 120.396 158.702C122.052 156.291 123.66 153.737 125.316 151.231Z" fill="#E77E1F"/>
<path d="M111.881 145.698C113.253 146.171 114.625 146.644 115.949 147.116C115.287 148.488 114.577 149.859 113.915 151.231C111.834 155.25 109.799 159.27 107.671 163.242C106.251 165.89 104.738 168.539 103.176 171.092C102.041 172.937 101.095 173.031 99.1553 171.896C98.3038 170.667 98.7295 169.437 99.3445 168.302C101.142 164.945 102.94 161.634 104.738 158.277C106.819 154.494 108.901 150.71 110.982 146.975C111.266 146.502 111.597 146.076 111.881 145.698Z" fill="#E77E1F"/>
<path d="M165.574 207.127C142.299 206.749 119.024 206.37 95.3708 207.032C96.033 206.323 96.5061 205.803 97.0265 205.33C101.19 201.689 105.305 198.047 109.468 194.406C113.3 191.096 117.132 187.738 120.964 184.475C125.127 180.928 129.29 177.429 133.453 173.882C137.095 170.761 140.691 167.593 144.333 164.424C145.611 165.701 146.935 167.025 148.213 168.302C146.983 169.201 145.705 170.099 144.475 170.998C138.42 175.301 132.365 179.604 126.357 183.955C124.938 184.995 123.471 186.13 122.951 187.927C124.039 190.386 125.174 190.765 127.303 189.393C127.729 189.11 128.154 188.826 128.58 188.542C134.352 184.286 140.123 180.03 145.847 175.727C147.645 174.403 149.253 172.842 150.956 171.423C152.801 173.977 154.646 176.578 156.491 179.131C153.889 180.172 151.288 181.212 148.686 182.3C141.779 185.185 134.825 188.022 127.918 190.954C125.978 191.758 124.133 192.704 122.288 193.555C122.241 194.122 122.241 194.453 122.241 194.784C122.241 196.581 122.714 197.101 124.512 197.054C125.505 197.007 126.593 196.912 127.492 196.534C132.459 194.501 137.427 192.42 142.394 190.292C147.881 187.927 153.322 185.516 158.762 183.104C160.134 186.319 161.553 189.582 162.925 192.798C160.985 193.129 158.999 193.413 157.106 193.791C152.612 194.737 148.118 195.683 143.624 196.676C140.833 197.291 138.042 198.047 135.44 198.709C134.777 199.892 134.257 200.837 135.156 201.925C136.055 203.013 137.095 202.965 138.278 202.587C139.65 202.209 141.022 201.925 142.394 201.641C147.219 200.648 152.044 199.655 156.822 198.709C159.282 198.236 161.695 197.811 164.155 197.385C165.054 200.601 165.527 203.817 165.574 207.127Z" fill="#FC9C47"/>
<path d="M158.715 183.056C153.274 185.468 147.834 187.88 142.347 190.244C137.427 192.373 132.459 194.453 127.445 196.487C126.546 196.865 125.458 196.96 124.465 197.007C122.667 197.054 122.194 196.534 122.194 194.737C122.194 194.406 122.241 194.122 122.241 193.507C124.086 192.656 125.931 191.71 127.871 190.907C134.777 188.022 141.684 185.137 148.638 182.253C151.24 181.165 153.842 180.125 156.444 179.084C157.201 180.408 157.958 181.732 158.715 183.056Z" fill="#E77E1F"/>
<path d="M150.956 171.376C149.253 172.842 147.645 174.355 145.847 175.679C140.123 179.983 134.352 184.239 128.58 188.495C128.154 188.779 127.729 189.11 127.303 189.346C125.174 190.717 124.039 190.339 122.951 187.88C123.471 186.083 124.938 184.948 126.357 183.908C132.365 179.557 138.42 175.254 144.475 170.95C145.705 170.052 146.983 169.153 148.213 168.255C149.159 169.343 150.058 170.336 150.956 171.376Z" fill="#E77E1F"/>
<path d="M164.06 197.432C161.6 197.858 159.14 198.284 156.728 198.757C151.903 199.702 147.077 200.695 142.299 201.689C140.927 201.972 139.555 202.256 138.184 202.634C137.001 202.965 135.913 203.06 135.061 201.972C134.21 200.885 134.683 199.939 135.345 198.757C137.994 198.095 140.738 197.338 143.529 196.723C148.023 195.73 152.518 194.784 157.012 193.838C158.951 193.46 160.891 193.176 162.83 192.845C163.256 194.359 163.682 195.872 164.06 197.432Z" fill="#E77E1F"/>
<path d="M88.7478 263.023C85.5309 263.023 82.2667 263.023 79.0499 263.023C78.8606 262.881 78.6714 262.692 78.4349 262.645C76.9211 262.503 75.3599 262.361 73.8461 262.219C70.1562 261.888 66.5608 261.037 63.0128 259.996C55.5383 257.774 48.5842 254.416 42.1978 249.829C37.7036 246.614 33.8244 242.783 30.4184 238.527C26.6811 233.845 23.89 228.549 22.0923 222.78C20.9097 218.949 20.0581 214.977 20.1054 210.957C20.1054 208.451 20.2474 205.945 20.4839 203.486C20.7204 201.405 21.1462 199.324 21.6193 197.291C22.5181 193.555 24.0319 190.008 26.0661 186.698C27.6745 184.097 29.3303 181.449 31.3172 179.131C33.6352 176.483 36.2844 174.119 38.9809 171.802C44.1847 167.309 50.1926 164.141 56.6264 161.823C63.1547 159.506 69.825 157.851 76.8264 157.898C77.1576 157.898 77.4887 157.662 77.8199 157.52C80.8002 157.52 83.7806 157.52 86.7609 157.52C88.0855 157.757 89.4574 158.135 90.782 158.277C94.945 158.702 98.9661 159.601 102.94 160.783C107.671 162.202 112.165 164.283 116.564 166.6C120.443 168.68 123.944 171.234 127.208 174.166C129.716 176.436 132.034 178.99 134.257 181.59C136.717 184.475 138.799 187.644 140.36 191.143C141.59 193.933 142.678 196.818 143.529 199.75C144.239 202.161 144.806 204.715 144.901 207.269C145.043 210.579 145.138 213.937 144.665 217.294C144.002 221.976 142.82 226.421 140.738 230.677C137.71 236.919 133.595 242.358 128.344 246.945C124.985 249.877 121.437 252.477 117.51 254.606C108.806 259.382 99.4865 262.125 89.552 262.645C89.2682 262.645 89.0316 262.881 88.7478 263.023ZM58.0929 195.635C57.4306 195.304 56.7683 194.973 56.106 194.642C56.8629 192.278 56.7683 192.089 54.4976 191.71C52.7472 191.379 50.9969 191.001 49.2465 190.717C48.7734 190.67 48.1111 190.765 47.8746 191.048C47.6381 191.332 47.6854 192.089 47.9219 192.42C49.1046 194.264 50.3346 196.061 51.7065 197.764C52.3215 198.52 53.1257 198.473 53.9772 197.905C54.3083 197.669 54.5922 197.338 54.9706 197.007C55.7276 197.48 56.3899 197.858 57.0048 198.236C55.2072 202.114 54.7341 206.228 55.0653 210.484C55.1599 211.856 55.3491 213.274 55.7276 214.646C57.2414 220.273 60.3636 224.813 64.9051 228.549C69.4466 232.238 74.603 234.366 80.2799 235.028C84.0644 235.453 87.9909 235.359 91.7754 234.318C96.6007 232.994 100.858 230.724 104.454 227.319C107.008 224.86 108.995 221.928 110.272 218.571C112.023 214.078 112.59 209.444 111.55 204.81C109.989 197.811 106.157 192.278 100.243 188.116C97.4523 186.178 94.4246 184.948 91.2078 183.908C86.3351 182.347 81.4152 182.3 76.5426 183.34C69.352 184.901 63.202 188.353 59.0863 194.737C58.8498 195.068 58.4241 195.352 58.0929 195.635ZM43.1439 236.163C43.4751 235.453 43.8062 234.791 43.9954 234.129C44.3266 232.994 43.617 230.961 42.6708 230.535C40.6366 229.637 37.7509 231.292 37.5617 233.231C37.4671 234.46 38.2713 235.453 38.3186 236.541C38.3659 237.629 37.6563 238.764 37.6563 239.851C37.6563 241.175 38.839 242.263 40.069 242.499C41.9139 242.783 42.7655 242.358 43.5224 240.797C44.3266 239.142 44.232 237.581 43.1439 236.163ZM33.3987 191.663C33.4933 191.663 33.5406 191.71 33.6352 191.71C33.6352 192.183 33.5879 192.609 33.6352 193.082C33.9664 195.494 36.8994 197.054 38.9336 195.872C41.2989 194.453 42.1978 189.961 40.5893 187.738C38.9809 185.516 35.6221 185.705 34.4394 188.211C33.9664 189.251 33.7771 190.481 33.3987 191.663ZM28.053 213.795C27.9111 215.166 27.8165 216.348 26.1607 216.585C25.8296 216.632 25.593 217.294 25.3565 217.672C25.735 217.956 26.1134 218.334 26.5392 218.429C27.0122 218.476 27.5799 218.287 28.0057 218.051C29.1884 217.436 29.7561 216.348 29.8507 215.071C29.9453 213.133 29.9453 211.194 29.898 209.302C29.8507 208.025 29.1411 207.363 27.8638 207.221C25.5457 206.938 23.6062 208.735 23.6535 211.146C23.7008 212.66 24.5996 213.7 26.1134 213.842C26.6811 213.889 27.3434 213.795 28.053 213.795ZM86.004 252.099C86.7136 250.822 86.7136 250.822 87.9436 250.539C88.6532 250.397 89.1736 250.16 89.1262 249.309C89.0789 248.694 88.2747 248.127 87.4705 248.363C86.8082 248.552 86.0986 248.836 85.6255 249.309C84.0644 250.775 83.1656 252.572 83.2602 254.795C83.3075 256.024 83.7333 257.065 84.5375 257.916C86.004 259.524 87.6597 259.524 89.2209 258.152C90.6874 256.923 90.6874 254.227 89.2209 253.045C88.1801 252.288 87.1394 252.146 86.004 252.099ZM135.913 205.33C135.44 206.039 135.109 206.559 134.825 207.032C134.115 208.309 134.399 208.877 135.913 209.018C136.954 209.113 137.285 209.491 137.143 210.437C136.954 211.667 136.291 211.95 134.494 211.761C134.162 211.714 133.595 211.809 133.5 211.998C133.358 212.376 133.406 212.849 133.5 213.227C133.595 213.464 133.926 213.7 134.21 213.842C136.102 214.693 138.562 213.322 138.751 211.288C138.893 209.68 138.94 208.025 137.285 207.127C137.663 206.276 138.089 205.614 138.325 204.904C138.657 203.911 138.184 203.107 137.19 203.107C136.007 203.107 134.777 203.391 133.595 203.675C133.358 203.722 132.98 204.337 133.027 204.526C133.122 204.857 133.547 205.235 133.879 205.33C134.494 205.424 135.109 205.33 135.913 205.33ZM84.159 162.344C84.6321 163.62 84.3482 164.614 83.7333 165.465C83.071 166.363 82.1721 167.167 81.5098 168.066C81.226 168.444 80.9421 169.011 81.0841 169.39C81.226 169.768 81.7937 170.288 82.1721 170.241C83.6859 170.194 85.2471 170.052 86.7609 169.815C87.0447 169.768 87.5178 169.201 87.4705 168.87C87.4705 168.539 86.9501 168.113 86.619 168.018C86.0986 167.877 85.5309 167.971 84.774 167.971C85.1525 167.309 85.389 166.789 85.6728 166.269C86.3824 165.134 86.4771 163.857 86.4297 162.58C86.3824 161.54 85.9567 160.689 84.9632 160.263C84.0171 159.885 82.456 160.405 81.7937 161.209C81.4152 161.682 81.226 162.249 81.6518 162.817C82.0775 163.337 82.6452 163.384 83.2129 162.958C83.4967 162.864 83.7333 162.675 84.159 162.344ZM60.3163 253.187C60.3163 253.612 60.3163 254.18 60.3163 254.795C60.3636 255.457 60.6475 256.024 61.3571 255.93C61.7355 255.882 62.114 255.409 62.3978 255.031C62.5871 254.795 62.4924 254.416 62.5398 254.085C62.6344 253.376 62.8236 252.856 63.6751 252.572C64.8105 252.194 64.8105 251.295 63.817 250.586C63.5805 250.397 63.2494 250.349 63.1074 250.255C63.1074 249.215 63.202 248.269 63.0601 247.418C62.9655 246.85 62.6344 245.999 62.2086 245.857C61.2152 245.573 60.0798 245.526 58.9917 245.573C58.7079 245.573 58.2348 246.235 58.2821 246.519C58.3767 246.897 58.8025 247.37 59.181 247.559C59.6067 247.749 60.1744 247.654 60.6948 247.701C60.6948 248.6 60.6948 249.404 60.6948 250.16C59.796 250.586 58.5187 250.397 58.6133 251.626C58.6606 252.099 59.6067 252.572 60.3163 253.187ZM126.783 233.562C126.783 232.379 126.783 231.244 126.783 230.11C126.783 229.447 126.546 228.975 125.836 228.927C125.127 228.88 124.701 229.306 124.654 229.92C124.512 231.576 124.37 233.231 124.37 234.933C124.37 235.926 125.032 236.446 126.026 236.257C126.688 236.115 127.35 235.879 128.249 235.595C128.249 236.446 128.154 237.203 128.296 237.96C128.391 238.338 128.864 238.764 129.243 238.905C129.432 238.953 129.905 238.432 130.141 238.101C130.283 237.865 130.189 237.487 130.236 237.156C130.331 235.737 130.473 234.366 130.567 232.947C130.567 232.569 130.567 232.143 130.425 231.812C130.094 230.961 129.101 230.913 128.58 231.67C128.391 231.907 128.296 232.238 128.296 232.569C128.249 233.42 127.587 233.562 126.783 233.562ZM110.556 252.572C111.786 252.572 112.827 251.863 113.111 250.633C113.442 248.978 113.537 247.228 111.266 246.046C110.982 245.904 110.462 245.573 110.509 245.431C110.604 245.053 110.887 244.722 111.171 244.438C111.455 244.202 111.928 244.155 112.165 243.871C112.401 243.587 112.543 243.067 112.449 242.689C112.401 242.452 111.881 242.121 111.55 242.121C109.61 242.026 108.144 243.445 108.096 245.431C108.096 245.81 108.049 246.188 108.096 246.566C108.144 247.985 108.427 248.269 109.799 248.032C110.84 247.843 111.266 248.174 111.266 249.12C111.266 250.018 110.935 250.539 109.941 250.633C109.563 250.68 108.948 251.201 108.948 251.532C108.901 252.194 109.516 252.477 110.131 252.477C110.272 252.619 110.414 252.572 110.556 252.572ZM49.5303 174.923C49.5303 176.389 49.4357 177.665 49.5777 178.942C49.625 179.321 50.1926 179.888 50.5238 179.888C50.8549 179.888 51.4699 179.321 51.5172 178.99C51.8011 176.578 51.943 174.119 52.1322 171.66C52.1322 171.471 52.0849 171.281 52.0376 171.092C51.7065 170.052 50.9023 169.721 50.1453 170.525C48.8681 171.802 47.6854 173.173 46.55 174.544C46.3135 174.828 46.3608 175.585 46.55 175.916C46.8812 176.531 47.5435 176.436 48.0638 176.105C48.4896 175.774 48.9154 175.396 49.5303 174.923ZM55.7749 174.213C55.6802 175.254 55.5856 176.058 55.491 176.862C55.4437 177.571 55.3018 178.28 55.3964 178.99C55.4437 179.368 55.9168 179.935 56.2479 179.983C56.5791 180.03 57.0995 179.557 57.3833 179.226C57.6198 178.942 57.6198 178.517 57.6671 178.138C57.8091 177.003 57.951 175.868 57.9983 174.686C58.0929 173.126 58.0929 171.612 58.0456 170.052C58.0456 169.626 57.5725 169.059 57.2414 168.917C56.9102 168.822 56.2479 169.106 55.9641 169.437C55.1599 170.43 54.4976 171.518 53.788 172.605C53.2676 173.409 53.5987 174.071 54.5922 174.261C54.9233 174.355 55.2545 174.261 55.7749 174.213ZM126.404 191.569C126.688 190.907 127.019 190.339 127.208 189.724C127.729 188.4 127.634 187.123 127.256 185.799C126.972 184.853 126.309 184.475 125.411 184.381C124.465 184.286 123.613 184.664 123.045 185.421C122.856 185.705 122.809 186.367 122.998 186.65C123.187 186.934 123.802 187.029 124.181 186.982C124.606 186.934 125.032 186.556 125.458 186.319C125.978 188.116 125.458 189.488 124.323 190.67C123.991 191.001 123.566 191.238 123.424 191.663C123.235 192.089 123.14 192.704 123.329 193.082C123.471 193.366 124.086 193.555 124.465 193.555C125.742 193.507 127.019 193.366 128.296 193.176C128.58 193.129 128.817 192.704 129.101 192.467C128.817 192.183 128.58 191.758 128.249 191.663C127.634 191.569 127.066 191.616 126.404 191.569ZM76.5899 164.235C76.5899 165.985 76.6372 167.593 76.5899 169.201C76.5899 169.815 76.5899 170.43 77.3468 170.572C78.1983 170.714 78.4349 170.052 78.5768 169.39C78.6714 169.011 78.6241 168.633 78.6714 168.255C78.766 167.025 78.908 165.843 79.0026 164.614C79.0499 163.762 79.1445 162.958 79.0499 162.107C78.9553 160.736 77.8672 160.263 76.7791 161.161C75.7384 162.013 74.7449 162.958 73.7988 163.904C73.373 164.33 72.9946 164.85 73.4203 165.417C73.8934 166.032 74.5557 165.985 75.1234 165.559C75.6438 165.181 76.0695 164.708 76.5899 164.235ZM30.1345 192.278C30.1345 193.555 30.0872 194.548 30.1345 195.541C30.1818 196.203 30.6076 196.77 31.2226 196.629C31.6483 196.534 32.3106 195.967 32.3579 195.588C32.4999 193.413 32.5472 191.19 32.4525 189.015C32.4052 187.785 31.0806 187.265 30.2291 188.164C29.1884 189.204 28.2895 190.386 27.438 191.616C27.2488 191.9 27.2015 192.609 27.3907 192.798C27.6745 193.082 28.2895 193.271 28.7153 193.176C29.1411 193.082 29.5195 192.656 30.1345 192.278ZM109.279 173.457C109.184 174.166 109.137 174.639 109.09 175.159C108.995 176.531 108.901 177.855 108.948 179.226C108.948 179.557 109.516 180.172 109.894 180.172C110.225 180.172 110.746 179.699 110.887 179.273C111.124 178.753 111.077 178.138 111.124 177.571C111.219 175.49 111.313 173.457 111.313 171.376C111.313 170.241 110.32 169.532 109.563 170.099C108.427 170.95 107.481 171.991 106.535 173.031C106.346 173.268 106.393 174.024 106.63 174.213C106.961 174.45 107.576 174.544 107.954 174.45C108.333 174.308 108.711 173.882 109.279 173.457Z" fill="#FFE0BF"/>
<path d="M58.0929 195.635C58.424 195.352 58.8498 195.068 59.0863 194.737C63.2494 188.353 69.3519 184.948 76.5426 183.34C81.4152 182.3 86.3351 182.3 91.2078 183.908C94.4246 184.948 97.4523 186.178 100.243 188.116C106.157 192.231 109.989 197.811 111.55 204.81C112.59 209.491 112.023 214.078 110.272 218.571C108.948 221.928 107.008 224.86 104.454 227.319C100.906 230.772 96.6007 233.041 91.7754 234.318C87.9909 235.359 84.0644 235.453 80.2798 235.028C74.603 234.366 69.3993 232.285 64.9051 228.549C60.3636 224.813 57.2414 220.273 55.7275 214.646C55.3491 213.322 55.2072 211.903 55.0653 210.484C54.7341 206.276 55.2545 202.161 57.0048 198.236C58.7079 199.135 60.4109 200.033 62.1613 200.885C67.6962 203.627 73.2311 206.37 78.766 209.16C79.4283 209.491 79.996 210.011 80.5164 210.532C81.3206 211.383 82.2194 211.667 83.1183 211.241C84.0644 210.815 84.5375 209.728 84.3009 208.64C84.159 208.073 83.8752 207.552 83.8279 206.985C83.544 203.249 83.3075 199.513 83.071 195.777C83.0237 194.69 83.071 193.602 83.071 192.562C85.0578 192.183 85.1525 192.089 84.5848 190.339C84.1117 188.873 83.544 187.407 83.1183 185.941C82.929 185.279 82.5979 184.759 81.841 184.712C81.0368 184.664 80.7056 185.232 80.4691 185.847C79.9014 187.407 79.381 189.015 78.8606 190.576C78.6714 191.19 78.5768 192.089 79.3337 192.231C80.7056 192.514 80.611 193.46 80.6583 194.406C80.8002 196.723 80.9421 199.04 81.0368 201.358C81.1314 203.249 81.226 205.188 81.3679 207.647C73.1838 203.817 65.5674 199.844 58.0929 195.635Z" fill="#FFA194"/>
<path d="M58.0929 195.636C65.5674 199.844 73.1838 203.817 81.2733 207.694C81.1314 205.235 81.0368 203.344 80.9421 201.405C80.8002 199.088 80.7056 196.77 80.5637 194.453C80.5164 193.555 80.6583 192.562 79.2391 192.278C78.4822 192.136 78.5768 191.238 78.766 190.623C79.2391 189.015 79.8068 187.454 80.3744 185.894C80.611 185.279 80.9421 184.712 81.7464 184.759C82.5033 184.806 82.8344 185.326 83.0236 185.988C83.4967 187.454 84.0171 188.92 84.4902 190.386C85.0578 192.136 84.9632 192.278 82.9763 192.609C82.9763 193.649 82.929 194.737 82.9763 195.825C83.2129 199.561 83.4494 203.296 83.7332 207.032C83.7805 207.6 84.0644 208.12 84.2063 208.687C84.4428 209.775 83.9698 210.863 83.0236 211.288C82.1248 211.714 81.2733 211.43 80.4218 210.579C79.9014 210.059 79.3337 209.539 78.6714 209.208C73.1365 206.418 67.6016 203.675 62.0667 200.932C60.3636 200.081 58.6606 199.182 56.9102 198.284C56.2479 197.905 55.5856 197.48 54.876 197.054C54.5449 197.385 54.261 197.716 53.8826 197.953C53.0311 198.52 52.2268 198.567 51.6119 197.811C50.2873 196.108 49.0573 194.264 47.8273 192.467C47.5908 192.136 47.5435 191.379 47.78 191.096C48.0165 190.812 48.7261 190.67 49.1519 190.765C50.9022 191.048 52.6526 191.427 54.403 191.758C56.6264 192.183 56.7683 192.373 56.0114 194.69C56.721 194.973 57.4306 195.304 58.0929 195.636Z" fill="#372F2C"/>
<path d="M43.1439 236.163C44.232 237.581 44.3739 239.142 43.5224 240.797C42.7655 242.358 41.9139 242.83 40.069 242.499C38.7917 242.31 37.609 241.223 37.6563 239.851C37.6563 238.716 38.3659 237.629 38.3186 236.541C38.2713 235.453 37.4198 234.507 37.5617 233.231C37.7509 231.292 40.6366 229.637 42.6708 230.535C43.617 230.961 44.3266 232.994 43.9954 234.129C43.8062 234.838 43.4751 235.453 43.1439 236.163ZM42.5762 233.278C42.1032 232.805 41.8193 232.238 41.3936 232.096C40.7786 231.907 39.5486 233.089 39.5959 233.751C39.6432 234.129 39.8324 234.697 40.1636 234.886C40.4474 235.075 41.1097 235.075 41.3936 234.886C41.8193 234.507 42.1032 233.893 42.5762 233.278ZM39.8324 239.378C39.7851 239.662 39.927 240.277 40.7313 240.419C41.3462 240.513 42.0085 239.804 41.9612 238.764C41.9612 238.291 41.6301 237.629 41.2516 237.392C40.8259 237.156 39.9743 238.149 39.8324 239.378Z" fill="#372F2C"/>
<path d="M33.3987 191.663C33.7298 190.481 33.9191 189.299 34.4394 188.211C35.6221 185.705 38.9336 185.516 40.5893 187.738C42.1978 189.961 41.2989 194.453 38.9336 195.872C36.9467 197.101 33.9664 195.541 33.6352 193.082C33.5879 192.656 33.6352 192.183 33.6352 191.71C33.5879 191.663 33.4933 191.663 33.3987 191.663ZM35.4329 192.183C35.8586 192.798 36.1898 193.507 36.7575 193.886C37.0886 194.075 37.9875 193.886 38.2713 193.602C39.312 192.467 39.7378 191.048 39.2647 189.488C39.1228 189.015 38.5551 188.353 38.1767 188.306C37.6563 188.306 36.8521 188.684 36.6156 189.11C36.0952 190.008 35.8586 191.001 35.4329 192.183Z" fill="#372F2C"/>
<path d="M28.053 213.795C27.3434 213.795 26.7284 213.842 26.0661 213.795C24.5523 213.653 23.6535 212.612 23.6061 211.099C23.5588 208.687 25.4984 206.89 27.8165 207.174C29.0938 207.316 29.8034 207.978 29.8507 209.255C29.898 211.194 29.898 213.133 29.8034 215.024C29.756 216.301 29.1411 217.389 27.9584 218.003C27.5326 218.24 26.9649 218.429 26.4919 218.382C26.0661 218.334 25.6877 217.909 25.3092 217.625C25.593 217.247 25.8296 216.585 26.1134 216.537C27.8165 216.348 27.9111 215.213 28.053 213.795ZM28.1003 209.822C27.9111 209.68 27.6272 209.302 27.2961 209.255C26.3973 209.113 25.593 209.917 25.5457 210.91C25.4984 211.572 25.7823 211.856 26.4446 211.903C27.2961 211.903 28.1003 211.099 28.1003 209.822Z" fill="#372F2C"/>
<path d="M86.004 252.099C87.1867 252.194 88.2274 252.288 89.2209 253.045C90.6874 254.227 90.6874 256.875 89.2209 258.152C87.6597 259.524 86.004 259.524 84.5375 257.916C83.7333 257.017 83.3075 256.024 83.2602 254.795C83.1656 252.572 84.1117 250.775 85.6255 249.309C86.0986 248.836 86.8082 248.552 87.4705 248.363C88.2274 248.174 89.0789 248.694 89.1262 249.309C89.2209 250.113 88.6532 250.397 87.9436 250.539C86.6663 250.775 86.6663 250.822 86.004 252.099ZM87.0921 253.66C86.1932 253.66 85.2471 254.416 85.1525 255.173C85.1052 256.024 86.0513 257.159 86.8555 257.206C87.6597 257.254 88.6532 256.261 88.7478 255.362C88.7951 254.464 88.0382 253.66 87.0921 253.66Z" fill="#372F2C"/>
<path d="M135.913 205.33C135.061 205.33 134.494 205.424 133.926 205.283C133.595 205.188 133.169 204.81 133.074 204.479C132.98 204.289 133.358 203.675 133.642 203.627C134.825 203.344 136.055 203.107 137.237 203.06C138.231 203.06 138.704 203.864 138.373 204.857C138.136 205.566 137.71 206.228 137.332 207.08C138.988 207.978 138.94 209.633 138.799 211.241C138.609 213.274 136.149 214.646 134.257 213.795C133.973 213.653 133.642 213.464 133.547 213.18C133.406 212.802 133.406 212.281 133.547 211.95C133.642 211.761 134.21 211.667 134.541 211.714C136.339 211.95 137.001 211.619 137.19 210.39C137.332 209.444 137.001 209.066 135.96 208.971C134.494 208.829 134.162 208.262 134.872 206.985C135.156 206.512 135.487 206.039 135.913 205.33Z" fill="#372F2C"/>
<path d="M84.159 162.344C83.7333 162.675 83.4967 162.864 83.2129 163.053C82.6452 163.431 82.1248 163.431 81.6518 162.911C81.226 162.344 81.4152 161.824 81.7937 161.303C82.4087 160.499 84.0171 159.979 84.9632 160.358C85.9567 160.783 86.3824 161.587 86.4298 162.675C86.5244 163.999 86.3825 165.228 85.6728 166.363C85.389 166.836 85.1525 167.356 84.774 168.066C85.4836 168.066 86.0986 167.971 86.619 168.113C86.9974 168.208 87.4705 168.633 87.4705 168.964C87.4705 169.295 87.0447 169.863 86.7609 169.91C85.2471 170.146 83.686 170.288 82.1721 170.336C81.7937 170.336 81.1787 169.863 81.0841 169.484C80.9895 169.106 81.226 168.491 81.5098 168.16C82.2194 167.262 83.071 166.458 83.7333 165.559C84.3483 164.614 84.6794 163.621 84.159 162.344Z" fill="#372F2C"/>
<path d="M60.3163 253.187C59.6067 252.525 58.7079 252.099 58.6606 251.579C58.566 250.349 59.8433 250.539 60.7421 250.113C60.7421 249.356 60.7421 248.552 60.7421 247.654C60.2217 247.607 59.654 247.701 59.2283 247.512C58.8498 247.323 58.4241 246.897 58.3294 246.472C58.2821 246.188 58.8025 245.526 59.039 245.526C60.1271 245.526 61.2152 245.526 62.2559 245.81C62.6817 245.952 63.0128 246.803 63.1074 247.37C63.2494 248.221 63.1547 249.167 63.1547 250.208C63.2967 250.255 63.6278 250.349 63.8643 250.539C64.8578 251.248 64.8578 252.146 63.7224 252.525C62.8236 252.808 62.6817 253.329 62.5871 254.038C62.5398 254.369 62.5871 254.747 62.4451 254.984C62.1613 255.362 61.7828 255.835 61.4044 255.882C60.7421 255.977 60.4109 255.409 60.3636 254.747C60.269 254.227 60.3163 253.612 60.3163 253.187Z" fill="#372F2C"/>
<path d="M126.783 233.562C127.587 233.562 128.249 233.467 128.296 232.474C128.296 232.19 128.391 231.812 128.58 231.576C129.053 230.819 130.094 230.913 130.425 231.717C130.567 232.048 130.567 232.474 130.567 232.852C130.473 234.271 130.378 235.642 130.236 237.061C130.189 237.392 130.283 237.77 130.141 238.007C129.952 238.338 129.479 238.905 129.243 238.811C128.864 238.669 128.344 238.243 128.296 237.865C128.154 237.156 128.249 236.352 128.249 235.501C127.398 235.784 126.735 236.021 126.026 236.163C125.032 236.352 124.37 235.832 124.37 234.839C124.37 233.183 124.512 231.481 124.654 229.826C124.701 229.164 125.127 228.738 125.836 228.833C126.546 228.88 126.783 229.4 126.783 230.015C126.783 231.197 126.783 232.379 126.783 233.562Z" fill="#372F2C"/>
<path d="M110.556 252.572C110.414 252.572 110.32 252.572 110.178 252.572C109.516 252.572 108.948 252.288 108.995 251.626C109.042 251.295 109.61 250.775 109.989 250.728C110.982 250.633 111.36 250.113 111.313 249.214C111.313 248.221 110.887 247.938 109.847 248.127C108.475 248.363 108.144 248.08 108.144 246.661C108.144 246.283 108.144 245.904 108.144 245.526C108.191 243.54 109.657 242.121 111.597 242.216C111.928 242.216 112.401 242.547 112.496 242.783C112.59 243.114 112.449 243.634 112.212 243.965C112.023 244.249 111.502 244.296 111.219 244.533C110.935 244.769 110.651 245.148 110.556 245.526C110.509 245.668 111.029 245.999 111.313 246.141C113.537 247.37 113.489 249.073 113.158 250.728C112.827 251.91 111.786 252.619 110.556 252.572Z" fill="#372F2C"/>
<path d="M49.5303 174.923C48.9154 175.396 48.4896 175.774 48.0165 176.105C47.4961 176.436 46.8339 176.531 46.5027 175.916C46.3135 175.537 46.2662 174.828 46.5027 174.544C47.6381 173.126 48.8207 171.802 50.098 170.525C50.8549 169.768 51.6592 170.052 51.9903 171.092C52.0376 171.281 52.1322 171.471 52.0849 171.66C51.8957 174.119 51.7538 176.531 51.4699 178.99C51.4226 179.368 50.8549 179.888 50.4765 179.888C50.1453 179.888 49.5777 179.321 49.5303 178.942C49.483 177.666 49.5303 176.389 49.5303 174.923Z" fill="#372F2C"/>
<path d="M55.7749 174.213C55.2072 174.261 54.876 174.355 54.5922 174.261C53.6461 174.071 53.2676 173.409 53.788 172.606C54.4503 171.518 55.1599 170.43 55.9641 169.437C56.2006 169.106 56.9102 168.822 57.2414 168.917C57.6198 169.012 58.0456 169.626 58.0456 170.052C58.1402 171.612 58.0929 173.126 57.9983 174.686C57.951 175.821 57.8091 177.003 57.6671 178.138C57.6198 178.517 57.6198 178.942 57.3833 179.226C57.0995 179.557 56.6264 180.03 56.2479 179.983C55.9168 179.935 55.4437 179.368 55.3964 178.99C55.3018 178.328 55.4437 177.571 55.491 176.862C55.5856 176.058 55.6803 175.254 55.7749 174.213Z" fill="#372F2C"/>
<path d="M126.404 191.569C127.066 191.616 127.681 191.521 128.202 191.663C128.533 191.758 128.769 192.183 129.053 192.467C128.769 192.704 128.533 193.129 128.249 193.176C126.972 193.366 125.694 193.507 124.417 193.555C124.039 193.555 123.424 193.366 123.282 193.082C123.093 192.704 123.187 192.089 123.376 191.663C123.518 191.285 123.991 191.001 124.275 190.67C125.411 189.488 125.931 188.116 125.411 186.319C124.985 186.556 124.559 186.887 124.133 186.982C123.755 187.029 123.14 186.934 122.951 186.651C122.761 186.367 122.809 185.705 122.998 185.421C123.518 184.664 124.37 184.239 125.363 184.381C126.262 184.475 126.924 184.854 127.208 185.799C127.587 187.123 127.681 188.448 127.161 189.724C126.972 190.339 126.688 190.907 126.404 191.569Z" fill="#372F2C"/>
<path d="M76.5899 164.235C76.0695 164.708 75.5965 165.134 75.0761 165.512C74.5084 165.89 73.7988 165.985 73.373 165.37C72.9473 164.803 73.2784 164.283 73.7515 163.857C74.7449 162.958 75.6911 161.965 76.7318 161.114C77.8199 160.216 78.9079 160.689 79.0026 162.06C79.0499 162.911 79.0026 163.715 78.9552 164.566C78.8606 165.796 78.7187 166.978 78.6241 168.208C78.5768 168.586 78.6241 168.964 78.5295 169.343C78.3876 170.005 78.151 170.667 77.2995 170.525C76.5899 170.383 76.5426 169.815 76.5426 169.153C76.6372 167.593 76.5899 165.985 76.5899 164.235Z" fill="#372F2C"/>
<path d="M30.1345 192.278C29.5195 192.704 29.1411 193.129 28.668 193.176C28.2422 193.224 27.6272 193.082 27.3434 192.798C27.1542 192.609 27.1542 191.9 27.3907 191.616C28.2422 190.434 29.1884 189.251 30.1818 188.164C31.0333 187.265 32.3579 187.785 32.4052 189.015C32.4999 191.19 32.4525 193.413 32.3106 195.588C32.3106 195.967 31.6483 196.534 31.1753 196.629C30.5603 196.77 30.1345 196.203 30.0872 195.541C30.1345 194.548 30.1345 193.507 30.1345 192.278Z" fill="#372F2C"/>
<path d="M109.279 173.457C108.711 173.882 108.333 174.308 107.907 174.403C107.481 174.497 106.866 174.45 106.582 174.166C106.346 173.977 106.299 173.22 106.488 172.984C107.434 171.943 108.38 170.903 109.516 170.052C110.272 169.484 111.266 170.194 111.266 171.329C111.266 173.409 111.171 175.443 111.077 177.524C111.077 178.091 111.077 178.706 110.84 179.226C110.698 179.604 110.178 180.125 109.847 180.125C109.516 180.125 108.948 179.51 108.901 179.179C108.853 177.855 108.995 176.483 109.042 175.112C109.09 174.686 109.184 174.166 109.279 173.457Z" fill="#372F2C"/>
<path d="M42.5762 233.278C42.1032 233.94 41.8193 234.507 41.3462 234.886C41.0624 235.075 40.4474 235.075 40.1163 234.886C39.8324 234.697 39.5959 234.176 39.5486 233.751C39.5013 233.089 40.7313 231.907 41.3462 232.096C41.8193 232.19 42.1032 232.758 42.5762 233.278Z" fill="#FFE0BF"/>
<path d="M39.8324 239.378C39.9743 238.149 40.8259 237.156 41.2516 237.439C41.6301 237.676 41.9612 238.338 41.9612 238.811C41.9612 239.804 41.2989 240.561 40.7313 240.466C39.927 240.277 39.7851 239.662 39.8324 239.378Z" fill="#FFE0BF"/>
<path d="M35.4329 192.183C35.8586 191.001 36.0952 190.008 36.6156 189.157C36.8994 188.684 37.6563 188.306 38.1767 188.353C38.5551 188.353 39.0755 189.015 39.2647 189.535C39.7851 191.048 39.3594 192.467 38.2713 193.649C37.9875 193.98 37.0886 194.17 36.7575 193.933C36.1898 193.507 35.8586 192.798 35.4329 192.183Z" fill="#FFE0BF"/>
<path d="M28.1003 209.822C28.1003 211.099 27.2961 211.903 26.4446 211.856C25.8296 211.809 25.4984 211.525 25.5457 210.863C25.593 209.87 26.3973 209.066 27.2961 209.208C27.6272 209.302 27.9111 209.68 28.1003 209.822Z" fill="#FFE0BF"/>
<path d="M87.0921 253.66C88.0382 253.66 88.7951 254.464 88.7478 255.409C88.7005 256.308 87.707 257.301 86.8555 257.254C86.0513 257.206 85.1052 256.072 85.1525 255.22C85.1998 254.416 86.1932 253.612 87.0921 253.66Z" fill="#FFE0BF"/>
<path d="M101.237 101.482C100.575 101.293 99.9122 101.246 99.2499 101.057C95.8438 100.253 93.0527 98.4083 90.5455 95.9965C88.7478 94.2468 87.6597 92.0242 86.2405 89.8489C86.5717 89.7543 86.7609 89.707 86.9501 89.707C88.2747 89.4706 89.6466 89.1396 90.782 88.4302C92.6743 87.2953 94.4719 86.0184 96.1277 84.5052C98.2092 82.5663 99.6757 80.2018 100.48 77.5063C100.811 76.3714 100.906 75 100.575 73.9123C99.5811 70.7912 96.6481 69.3252 93.4785 71.5951C91.6335 72.9193 90.0251 74.5744 88.8424 76.5605C88.1328 77.7428 87.4232 78.8777 86.6663 80.0127C86.3824 80.4856 85.9567 80.8639 85.5782 81.3841C85.1052 79.1142 85.2944 76.9389 85.389 74.8108C85.4836 73.0611 85.5782 71.3587 85.8148 69.609C86.0513 67.6228 85.9094 65.5894 85.8621 63.6032C85.7675 59.158 86.1459 54.6655 85.9094 50.2203C85.8148 48.4233 86.0513 20.9008 85.8621 19.1038C85.6255 17.0704 85.9567 14.9896 85.7201 12.9089C85.5309 11.2537 85.7675 9.55132 85.6255 7.8489C85.4363 5.67358 85.6728 3.40368 85.4836 1.18108C85.2944 -1.23069 85.6255 -3.68974 85.4363 -6.14879C85.4363 -6.24337 85.4363 -6.81085 85.4363 -6.90543H82.456C82.6925 -4.3045 82.4087 -1.23069 82.5506 1.37024C82.6925 4.6805 82.6452 7.99077 82.8817 11.3483C83.071 14.2803 82.929 17.3068 82.929 20.2387C82.929 22.6032 82.7398 50.7405 82.929 53.1522C83.1656 55.895 82.9763 58.6378 82.9763 61.4279C82.9763 66.8662 82.6452 72.3045 82.5033 77.7901C82.5033 78.2157 82.456 78.6413 82.456 79.0196C82.3614 79.0196 82.3141 79.0669 82.2194 79.0669C81.7464 78.2157 81.2733 77.3645 80.8002 76.5133C79.4756 74.1961 77.8672 72.1626 75.2653 71.1223C73.2784 70.3183 71.2915 70.6966 70.1089 72.2099C68.8789 73.8178 68.5004 75.662 68.9262 77.6955C69.3993 80.0127 70.7712 81.8097 72.2377 83.4648C73.9407 85.4037 76.2588 86.6332 78.5295 87.8627C79.4283 88.3356 79.4283 88.2883 78.8606 89.0923C77.8199 90.4637 76.8265 91.8823 75.7384 93.2065C74.8396 94.3414 73.8461 95.4763 72.8527 96.564C71.3388 98.2191 69.5412 99.496 67.5543 100.536C66.0878 101.293 64.4793 101.908 62.8236 102.05C61.4517 102.144 60.1271 101.813 58.9917 100.915C58.3767 100.442 57.6671 100.442 57.0521 100.773C56.4372 101.104 56.5791 101.86 56.6737 102.381C56.7683 102.806 57.2414 103.232 57.6671 103.468C59.7486 104.84 62.4924 105.171 65.047 104.556C68.3112 103.799 71.1496 102.05 73.7042 99.9688C75.6911 98.361 77.063 96.1857 78.6714 94.2468C79.7595 92.9227 80.8002 91.5513 81.8883 90.1799C82.1721 89.8016 82.5033 89.7543 82.8344 90.1326C83.0237 90.3218 83.2129 90.511 83.3548 90.7001C84.2536 92.0242 85.1998 93.3956 86.0513 94.767C88.0855 97.9354 90.782 100.394 94.0462 102.239C96.1277 103.374 98.3511 104.036 100.622 104.556C101.095 104.651 101.71 104.556 102.136 104.367C102.94 104.036 102.798 103.232 102.751 102.522C102.561 101.766 101.852 101.624 101.237 101.482ZM80.7529 85.9239C78.8606 84.7889 77.2522 83.9377 75.7857 82.8973C73.7988 81.4787 72.4269 79.5871 71.5754 77.2699C71.1969 76.2295 71.5281 75.1892 71.9538 74.2434C72.1904 73.6759 73.0892 73.4394 73.7515 73.6759C74.8869 74.0542 75.7857 74.7163 76.5426 75.662C78.6714 78.3576 79.9487 81.4787 80.8002 84.7889C80.8475 85.0254 80.7529 85.3091 80.7529 85.9239ZM85.7201 86.7278C87.4705 83.7958 89.0316 81.0058 90.9712 78.4994C92.012 77.128 93.1 75.8039 94.2827 74.5271C94.6612 74.1015 95.3235 73.7705 95.8911 73.6759C97.1211 73.4867 97.8307 74.0542 97.7834 75.331C97.7361 76.1349 97.5942 77.0334 97.263 77.7428C96.5534 79.3033 95.6073 80.7693 94.4246 82.0461C92.8635 83.654 91.0658 84.9308 89.0789 85.9239C88.1328 86.3968 87.1394 86.9169 85.7201 86.7278Z" fill="#FFA194"/>
</g>
<defs>
<clipPath id="clip0">
<rect width="166" height="287" fill="white" transform="translate(0 -7)"/>
</clipPath>
</defs>
</svg>
