<svg width="207" height="409" viewBox="0 0 207 409" fill="none" xmlns="http://www.w3.org/2000/svg">
<path d="M0.744214 383.98C0.884034 386.688 1.3035 389.348 2.37545 391.916C3.30759 394.109 4.61258 396.07 6.38365 397.704C10.0656 401.111 14.4 403.445 19.1073 405.032C23.8146 406.619 28.6617 407.553 33.6021 408.02C37.6569 408.393 41.7116 408.58 45.7664 408.72C50.2873 408.907 54.8548 409.047 59.3757 409C66.3667 408.86 73.3577 408.673 80.3021 408.253C87.8991 407.833 95.4494 407.32 103.046 406.619C120.617 405.032 138.048 402.278 155.432 399.244C164.754 397.61 174.075 395.93 183.397 394.109C191.786 392.476 200.128 390.562 208.238 387.668C210.102 387.014 211.827 386.127 213.644 385.287C214.81 384.774 215.788 383.933 216.487 382.813C216.534 382.72 216.72 382.673 216.86 382.58C216.953 382.066 217.047 381.553 217.093 381.039C217 380.619 216.86 380.246 216.767 379.826C216.208 377.118 214.577 375.998 211.92 376.698C207.306 377.912 202.692 379.359 198.031 380.479C190.714 382.3 183.35 383.933 175.986 385.661C173.562 386.221 171.139 386.688 168.576 387.248C168.296 385.567 168.016 383.98 167.737 382.346C167.55 381.226 167.41 380.106 167.177 378.986C166.898 377.679 166.525 377.398 165.22 377.538C163.635 377.725 162.004 377.959 160.419 378.192C158.975 378.379 158.602 378.892 158.788 380.293C159.208 383.093 159.627 385.894 160.093 388.741C156.132 390.562 108.732 397.33 101.182 397.097C101.135 396.63 101.042 396.163 100.996 395.697C100.436 391.962 99.9236 388.275 99.3177 384.54C99.1313 383.327 98.7119 383 97.4069 383.14C95.6824 383.327 93.9579 383.513 92.1869 383.747C90.8819 383.887 90.6955 384.074 90.7887 385.427C91.0683 389.208 91.348 393.036 91.6276 396.817C91.6742 397.19 91.6742 397.61 91.6742 398.077C90.8353 398.171 90.0896 398.264 89.2973 398.311C77.7854 399.197 66.3201 399.944 54.7616 400.224C50.0543 400.318 45.347 400.178 40.6397 399.944C36.8179 399.758 32.9496 399.478 29.1744 398.871C24.3273 398.124 19.5734 396.723 15.4254 394.063C11.2774 391.449 8.66738 387.668 8.66738 382.486C8.66738 380.386 9.5063 378.565 10.6249 376.885C11.6968 375.251 13.0484 373.898 14.6331 372.777C16.2177 371.657 17.9421 371.003 19.8996 371.05C22.0902 371.097 24.2341 371.424 26.2382 372.404C30.526 374.598 32.3903 380.806 29.8735 384.727C28.6617 386.641 26.5178 387.621 24.5137 387.341C23.0223 387.108 21.8571 385.614 22.23 384.214C22.3232 383.98 22.2766 383.7 22.3698 383.42C22.7427 382.206 22.1834 381.366 21.2978 380.713C20.3657 380.059 19.3404 380.012 18.315 380.573C17.243 381.179 16.6838 382.113 16.3109 383.233C15.2389 386.594 16.6838 390.562 19.6666 392.429C22.696 394.343 26.0517 394.623 29.5007 394.203C36.1654 393.409 40.2202 387.808 40.1736 381.926C40.127 376.652 38.4026 372.077 34.3478 368.529C32.5301 366.942 30.3862 366.055 28.1024 365.355C25.1662 364.468 22.1834 363.862 19.0607 363.908C14.5398 363.908 10.6715 365.729 7.17596 368.483C4.0533 371.003 2.28224 373.711 1.44332 377.632C0.977248 380.152 0.651 382.066 0.744214 383.98Z" fill="#372F2C"/>
<path d="M79.1836 387.481C84.6366 388.321 90.1362 388.181 95.6359 388.041C101.275 387.901 106.868 387.574 112.461 386.828C117.168 386.221 121.876 385.427 126.583 384.68C129.379 384.213 132.176 383.793 134.925 383.14C136.463 382.766 138.001 382.113 139.4 381.319C141.777 379.919 144.014 378.332 146.344 376.838C146.717 376.605 147.043 376.371 147.416 376.091C148.022 377.959 148.581 379.779 149.141 381.599C149.653 383.233 149.7 383.327 151.471 383.093C156.784 382.393 162.097 381.599 167.41 380.993C172.63 380.386 177.804 379.546 182.884 378.285C185.727 377.585 188.523 376.745 191.366 375.951C193.044 375.485 193.557 375.298 193.51 372.824C193.417 369.183 192.671 365.635 191.926 362.088C191.646 360.827 191.413 359.614 191.133 358.353C190.993 357.747 190.76 357.186 190.527 356.626C190.108 355.739 189.362 355.366 188.384 355.553C187.125 355.786 185.867 355.879 184.655 356.16C177.338 357.653 169.927 358.634 162.517 359.24C153.568 359.987 144.946 362.134 136.463 364.888C130.777 366.756 125.091 368.576 119.405 370.443C110.55 373.291 101.415 374.598 92.0937 374.878C87.2932 375.018 82.4927 374.971 77.7388 374.504C74.8492 374.224 71.8664 374.131 69.0233 373.524C64.7821 372.684 60.6341 371.47 56.4861 370.397C54.3888 369.836 52.3381 369.09 50.4738 367.829C50.101 367.596 49.5883 367.643 49.0756 367.596C48.9358 367.969 48.7028 368.203 48.7028 368.483C48.6095 370.63 48.5163 372.731 48.4697 374.878C48.4231 376.231 49.1688 377.165 50.334 377.819C54.5752 380.246 58.9563 382.44 63.6169 383.933C66.5998 384.867 69.6292 385.614 72.6587 386.501C72.7985 386.501 78.904 387.481 79.1836 387.481Z" fill="#3BB59E"/>
<path d="M179.715 269.244C179.948 270.504 180.134 271.811 180.227 273.071C180.46 276.619 180.507 280.213 180.926 283.761C181.626 290.109 182.558 296.457 183.397 302.852C184.329 309.947 186.286 316.763 188.197 323.624C189.549 328.526 191.413 333.334 191.879 338.468C192.019 340.195 192.159 341.923 192.298 343.65C190.341 344.07 188.384 344.443 186.473 344.863C185.96 344.957 185.587 345.283 185.68 345.89C185.82 346.497 186.333 346.59 186.799 346.497C188.104 346.264 189.409 345.89 190.76 345.657C191.32 345.563 191.926 345.61 192.532 345.61C192.438 346.917 192.345 348.224 192.252 349.531C192.159 350.231 192.065 350.932 191.926 351.585C191.693 352.425 191.46 353.312 191.227 354.152C189.735 352.799 188.244 351.398 186.706 350.045C186.24 349.625 185.68 349.251 185.121 349.858C184.608 350.418 185.028 350.885 185.494 351.305C186.519 352.192 187.545 353.079 188.523 354.012C189.222 354.713 190.015 355.133 191.04 355.179C190.527 356.3 190.015 357.42 188.57 357.653C186.146 358.073 183.769 358.68 181.346 358.96C174.262 359.847 167.131 360.547 160.047 361.481C152.077 362.508 144.154 363.721 136.463 366.242C136.044 366.382 135.531 366.336 135.065 366.382C133.807 364.842 132.502 363.301 131.243 361.761C130.871 361.341 130.405 360.967 129.892 361.434C129.379 361.901 129.566 362.461 129.985 362.928C131.104 364.235 132.269 365.589 133.387 366.896C133.015 367.082 132.688 367.409 132.315 367.502C130.451 368.109 128.54 368.669 126.629 369.23C126.723 368.063 126.816 366.896 126.909 365.729C126.956 365.449 127.095 365.075 127.002 364.842C126.862 364.468 126.583 364.002 126.303 363.955C126.024 363.908 125.511 364.328 125.418 364.655C125.231 365.215 125.278 365.869 125.231 366.476C125.091 367.596 124.998 368.716 124.858 369.836C124.719 369.93 124.532 370.023 124.392 370.07C116.096 373.011 107.567 374.971 98.8051 376.045C94.4707 376.558 90.0896 376.838 85.7552 376.652C82.3063 376.512 78.8574 376.185 75.4551 375.905C74.4297 375.718 73.4044 375.578 72.379 375.391C70.5614 375.111 68.6971 374.831 66.8794 374.504C66.0871 374.411 65.3414 374.271 64.5491 374.178C61.7527 373.477 58.9562 372.777 56.2064 372.03C54.4354 371.564 52.7109 371.003 50.9865 370.35C50.0543 369.976 49.029 369.556 48.6561 368.436C48.7493 367.736 50.0543 364.188 50.6136 363.115C51.5458 364.188 52.1982 364.422 53.0372 364.048C53.7829 363.675 54.2489 362.928 54.2023 362.181C54.1557 361.294 53.6431 360.781 52.3847 360.454C53.2236 359.474 54.0625 358.447 54.9481 357.513C58.397 354.012 62.5916 351.725 67.1124 349.905C72.8917 347.571 78.7642 345.377 84.59 343.229C93.0259 340.102 101.182 336.508 108.36 330.953C112.508 327.732 115.397 323.858 116.795 318.816C117.867 314.989 118.939 311.161 119.825 307.287C120.477 304.346 121.037 301.359 121.223 298.324C121.549 293.657 121.596 288.989 121.596 284.321C121.596 281.427 121.316 278.579 121.083 275.685C121.037 274.985 121.223 274.425 121.782 274.098C122.295 273.725 122.947 273.445 123.553 273.305C127.655 272.184 131.803 271.391 135.997 270.877C145.505 269.71 155.06 268.45 164.567 267.33C168.296 266.91 172.025 266.77 175.8 266.49C176.406 266.583 177.011 266.676 177.617 266.77C178.689 267.236 179.528 268.03 179.715 269.244ZM153.335 320.73C153.102 319.143 152.869 317.556 152.683 315.922C152.589 315.316 152.403 314.895 151.704 314.942C151.098 315.035 150.912 315.502 150.958 316.016C151.191 318.116 151.424 320.264 151.751 322.364C151.797 322.644 152.31 323.064 152.636 323.111C152.916 323.111 153.242 322.691 153.475 322.457C153.428 321.757 153.428 321.244 153.335 320.73ZM173.423 341.362C174.821 342.389 176.266 343.416 177.664 344.443C178.13 344.77 178.643 344.957 179.062 344.443C179.482 343.93 179.202 343.463 178.736 343.136C177.384 342.109 176.033 341.082 174.634 340.102C174.355 339.915 173.982 339.729 173.702 339.775C173.376 339.822 173.096 340.102 172.677 340.382C173.003 340.802 173.143 341.176 173.423 341.362ZM171.325 287.588C171.558 287.682 172.164 287.495 172.304 287.262C173.19 285.581 174.075 283.854 174.868 282.127C174.961 281.894 174.774 281.287 174.541 281.147C174.308 281.007 173.656 281.147 173.516 281.333C172.537 283.06 171.652 284.788 170.673 286.655C170.859 286.935 171.046 287.448 171.325 287.588ZM181.532 342.576C181.532 342.903 181.998 343.323 182.325 343.416C182.884 343.556 183.21 343.089 183.21 342.529C183.21 340.615 183.164 338.702 183.07 336.788C183.07 336.274 182.744 335.901 182.231 335.994C181.905 336.041 181.626 336.414 181.392 336.601C181.439 338.748 181.439 340.662 181.532 342.576ZM172.584 350.605C173.329 350.465 174.075 350.185 174.868 349.998C175.8 349.765 176.732 349.531 177.664 349.251C178.177 349.111 178.549 348.784 178.456 348.224C178.316 347.571 177.804 347.477 177.244 347.617C175.613 348.037 173.935 348.411 172.304 348.878C171.931 348.971 171.652 349.344 171.419 349.484C171.232 350.325 171.791 350.745 172.584 350.605ZM168.669 285.394C168.436 284.694 168.11 284.041 167.83 283.341C167.41 282.407 166.944 281.427 166.478 280.54C166.199 280.026 165.779 279.7 165.173 280.026C164.661 280.306 164.707 280.82 164.94 281.287C165.639 282.874 166.338 284.461 167.131 286.048C167.271 286.328 167.597 286.515 167.69 286.655C168.529 286.701 168.902 286.141 168.669 285.394ZM72.379 364.795C72.9849 366.336 73.6374 367.829 74.2433 369.37C74.2899 369.51 74.3365 369.743 74.4763 369.836C74.8026 370.023 75.222 370.257 75.5017 370.163C75.7347 370.07 76.0144 369.556 75.9677 369.276C75.9211 368.716 75.6415 368.203 75.4551 367.689C74.9424 366.476 74.4763 365.262 73.917 364.095C73.7772 363.768 73.1713 363.628 72.7519 363.535C72.6121 363.488 72.379 363.908 72.1926 364.095C72.2392 364.375 72.2858 364.562 72.379 364.795ZM131.57 357.653C133.294 356.766 134.972 355.833 136.603 354.853C136.836 354.713 137.023 354.012 136.883 353.732C136.743 353.499 136.091 353.265 135.811 353.405C134.18 354.246 132.595 355.179 131.01 356.113C130.777 356.253 130.638 356.533 130.498 356.673C130.358 357.467 130.964 357.98 131.57 357.653ZM119.033 363.722C119.219 363.722 119.452 363.628 119.638 363.488C121.037 362.741 122.388 362.041 123.786 361.294C124.299 361.014 124.812 360.594 124.439 359.941C124.113 359.287 123.507 359.427 122.947 359.707C121.596 360.454 120.244 361.154 118.939 361.901C118.566 362.088 118.333 362.461 118.1 362.648C118.147 363.441 118.473 363.722 119.033 363.722ZM67.998 351.958C68.5573 353.499 69.1165 355.039 69.7224 356.58C69.9089 357.14 70.3283 357.467 70.9342 357.28C71.5867 357.046 71.5401 356.486 71.3537 355.973C70.7944 354.432 70.2351 352.892 69.5826 351.352C69.4428 351.025 68.9767 350.698 68.6505 350.698C68.4174 350.651 68.0912 351.118 67.8582 351.305C67.9048 351.632 67.9514 351.818 67.998 351.958ZM154.687 333.38C154.547 332.353 154.407 331.326 154.267 330.299C154.174 329.786 153.941 329.319 153.335 329.413C152.776 329.459 152.496 329.926 152.589 330.44C152.776 332.167 152.962 333.894 153.242 335.621C153.289 335.901 153.801 336.321 154.127 336.321C154.407 336.321 154.733 335.854 154.966 335.621C154.827 334.781 154.78 334.08 154.687 333.38ZM128.074 353.919C128.074 354.246 128.354 354.759 128.68 354.899C129.193 355.133 129.659 354.759 129.752 354.246C130.078 352.565 130.311 350.885 130.544 349.204C130.591 348.691 130.311 348.177 129.752 348.224C129.426 348.271 128.96 348.644 128.913 348.971C128.68 349.811 128.587 350.698 128.447 351.538C128.261 352.379 128.074 353.125 128.074 353.919ZM161.957 330.393C162.237 329.879 161.957 329.459 161.491 329.226C160.093 328.386 158.648 327.545 157.25 326.659C157.157 326.612 157.11 326.518 157.017 326.518C156.644 326.612 156.178 326.565 155.992 326.799C155.852 327.032 155.945 327.545 156.132 327.825C156.271 328.106 156.644 328.292 156.924 328.479C157.996 329.132 159.068 329.786 160.186 330.44C160.466 330.58 160.699 330.72 161.118 330.953C161.398 330.766 161.818 330.673 161.957 330.393ZM159.161 319.143C157.996 320.264 156.877 321.384 155.759 322.551C155.386 322.924 155.293 323.391 155.712 323.811C156.225 324.278 156.644 324.091 157.064 323.671C158.136 322.597 159.254 321.524 160.326 320.45C160.979 319.797 160.839 318.957 159.953 318.77C159.767 318.863 159.394 318.91 159.161 319.143ZM74.2899 357.467C74.5695 357.607 75.1754 357.56 75.3153 357.373C76.3406 355.833 77.3194 354.246 78.2515 352.612C78.3913 352.379 78.1117 351.772 77.8786 351.538C77.7388 351.398 77.0397 351.585 76.8999 351.818C75.9211 353.265 75.0356 354.759 74.1035 356.206C74.0569 356.3 74.0103 356.44 73.917 356.766C73.9637 356.953 74.0569 357.373 74.2899 357.467ZM145.831 333.707C146.064 333.66 146.298 333.474 146.484 333.334C147.649 332.26 148.814 331.233 149.933 330.159C150.399 329.739 150.725 329.226 150.166 328.712C149.653 328.246 149.141 328.479 148.674 328.946C147.603 329.973 146.531 330.953 145.459 331.98C145.226 332.213 145.039 332.493 144.899 332.633C144.806 333.334 145.272 333.8 145.831 333.707ZM165.593 299.445C165.872 299.538 166.292 299.351 166.618 299.211C166.758 299.165 166.851 298.931 166.898 298.791C167.55 297.391 168.249 295.944 168.809 294.497C168.948 294.217 168.762 293.61 168.529 293.377C168.11 293.05 167.597 293.19 167.317 293.703C166.572 295.244 165.826 296.831 165.033 298.558C165.22 298.885 165.36 299.351 165.593 299.445ZM171.791 294.31C172.351 295.524 172.957 296.737 173.563 297.951C173.842 298.464 174.122 299.025 174.821 298.745C175.52 298.464 175.427 297.858 175.147 297.298C174.448 295.897 173.796 294.45 173.003 293.096C172.863 292.816 172.397 292.676 172.071 292.63C171.885 292.63 171.652 292.956 171.372 293.143C171.558 293.563 171.652 293.937 171.791 294.31ZM120.571 351.772C121.549 352.985 122.528 354.152 123.507 355.319C123.88 355.739 124.299 356.113 124.858 355.693C125.418 355.273 125.278 354.759 124.905 354.292C123.926 353.079 122.994 351.912 121.969 350.745C121.782 350.511 121.363 350.278 121.083 350.278C120.757 350.278 120.477 350.605 120.104 350.791C120.337 351.258 120.384 351.585 120.571 351.772ZM144.34 322.831C145.692 323.671 147.09 324.511 148.535 325.258C149.001 325.492 149.513 325.538 149.793 324.978C150.073 324.465 149.84 323.998 149.42 323.764C148.022 322.924 146.624 322.131 145.226 321.384C144.526 321.01 143.967 321.29 143.827 322.037C143.874 322.271 144.06 322.644 144.34 322.831ZM100.856 366.009C100.669 367.036 101.322 367.923 102.347 368.109C103.419 368.296 104.351 367.643 104.538 366.569C104.724 365.542 104.165 364.748 103.14 364.562C102.021 364.328 101.042 364.982 100.856 366.009ZM182.185 352.098C182.185 351.492 182.045 350.885 181.299 350.932C180.647 350.978 180.507 351.492 180.46 352.052C180.367 353.592 180.274 355.086 180.227 356.626C180.181 357.186 180.367 357.607 180.973 357.653C181.626 357.747 181.812 357.28 181.859 356.766C181.905 356.44 181.952 356.066 182.092 355.413C182.045 354.526 182.138 353.312 182.185 352.098ZM68.2776 358.727C68.5573 358.213 68.2776 357.793 67.7183 357.607C66.3201 357.046 64.8753 356.533 63.4771 356.02C63.011 355.833 62.4984 355.926 62.2653 356.44C62.0323 357 62.3585 357.42 62.8246 357.607C64.2694 358.167 65.7608 358.68 67.3921 359.287C67.6717 359.1 68.1378 359.007 68.2776 358.727ZM81.747 363.255C82.0266 362.741 81.6072 362.368 81.0945 362.134C79.8361 361.574 78.6243 361.014 77.366 360.501C76.8067 360.267 76.2008 360.127 75.9211 360.827C75.6415 361.434 76.1076 361.854 76.5736 362.041C77.8786 362.648 79.1836 363.208 80.7216 363.862C81.0945 363.722 81.6072 363.581 81.747 363.255ZM175.66 324.605C176.639 324.745 177.524 324.044 177.664 323.018C177.804 322.037 177.058 321.104 176.126 320.964C175.194 320.824 174.308 321.477 174.168 322.411C173.935 323.484 174.588 324.465 175.66 324.605ZM160.699 290.669C160.466 290.716 160.14 291.276 160.186 291.556C160.233 291.836 160.699 292.21 160.979 292.21C161.631 292.256 162.284 292.116 162.936 292.023C163.822 291.883 164.754 291.789 165.639 291.556C165.919 291.463 166.338 291.043 166.338 290.762C166.338 290.436 165.919 290.156 165.686 289.829C163.868 290.109 162.284 290.342 160.699 290.669ZM68.3708 363.955C67.5785 365.122 66.8794 366.289 66.1803 367.456C65.9007 367.923 65.9007 368.389 66.4133 368.716C66.926 369.043 67.3455 368.81 67.6251 368.389C68.3708 367.176 69.1165 365.962 69.8623 364.702C70.1885 364.142 69.9089 363.722 69.303 363.301C68.9767 363.535 68.6039 363.675 68.3708 363.955ZM175.473 290.389C176.592 290.062 177.711 289.736 178.829 289.362C179.295 289.222 179.761 288.942 179.575 288.335C179.388 287.728 178.922 287.542 178.363 287.728C177.105 288.102 175.846 288.429 174.634 288.895C174.355 288.989 174.075 289.455 174.075 289.782C174.075 290.062 174.495 290.342 174.681 290.529C175.054 290.436 175.287 290.436 175.473 290.389ZM147.369 296.504C147.183 297.624 147.742 298.418 148.814 298.558C149.84 298.698 150.585 298.184 150.772 297.157C150.958 296.084 150.399 295.244 149.327 295.104C148.302 294.964 147.556 295.477 147.369 296.504ZM157.53 351.165C158.415 351.305 159.114 350.745 159.301 349.811C159.487 348.738 158.788 347.757 157.763 347.664C156.784 347.571 156.038 348.131 155.899 349.064C155.712 350.045 156.504 351.025 157.53 351.165ZM167.69 311.908C168.436 312.048 169.275 311.395 169.321 310.601C169.415 309.621 168.902 308.874 168.11 308.781C167.177 308.687 166.665 309.061 166.525 310.041C166.385 310.974 166.851 311.768 167.69 311.908ZM148.162 284.881C148.302 284.041 147.649 283.201 146.857 283.107C146.204 283.014 145.459 283.714 145.319 284.461C145.226 285.254 145.692 285.815 146.577 286.001C147.509 286.141 148.022 285.768 148.162 284.881ZM87.1534 370.35C87.2466 369.603 86.5475 368.81 85.8018 368.716C85.1959 368.669 84.4036 369.323 84.357 369.976C84.2638 370.723 84.9163 371.517 85.7086 371.61C86.5009 371.704 87.0602 371.237 87.1534 370.35ZM138.794 339.542C137.908 339.449 137.349 339.869 137.256 340.709C137.163 341.549 137.722 342.296 138.468 342.389C139.26 342.483 139.726 342.063 139.866 341.082C140.006 340.149 139.633 339.589 138.794 339.542ZM73.2645 360.687C73.4044 359.987 72.9383 359.24 72.2392 359.147C71.5867 359.054 70.841 359.614 70.7478 360.267C70.608 360.967 71.0274 361.528 71.7265 361.668C72.4722 361.854 73.0781 361.434 73.2645 360.687ZM128.727 359.24C128.867 358.447 128.4 357.793 127.562 357.653C126.769 357.513 126.303 357.84 126.163 358.587C126.024 359.334 126.49 359.941 127.235 360.081C127.981 360.267 128.587 359.894 128.727 359.24ZM170.953 290.389C171.046 289.689 170.72 289.082 170.114 288.989C169.461 288.849 168.529 289.409 168.389 290.109C168.249 290.762 168.715 291.323 169.461 291.463C170.3 291.603 170.859 291.229 170.953 290.389ZM154.314 326.518C154.407 325.865 153.848 325.165 153.149 325.025C152.45 324.885 151.844 325.305 151.751 326.005C151.611 326.705 152.077 327.265 152.916 327.405C153.708 327.592 154.267 327.219 154.314 326.518ZM183.443 347.617C183.583 346.917 183.164 346.264 182.511 346.17C181.905 346.077 181.206 346.544 181.066 347.197C180.926 347.851 181.253 348.411 181.952 348.551C182.651 348.644 183.303 348.271 183.443 347.617Z" fill="#35837A"/>
<path d="M50.567 363.115C51.4992 364.188 52.1516 364.422 52.9906 364.048C53.7363 363.675 54.2023 362.928 54.1557 362.181C54.1091 361.294 53.5965 360.781 52.3381 360.454C51.7788 361.341 51.1729 362.228 50.567 363.115Z" fill="#FC9C47"/>
<path d="M103.14 364.562C102.021 364.375 101.042 364.982 100.856 366.009C100.669 367.036 101.322 367.923 102.347 368.109C103.419 368.296 104.351 367.643 104.538 366.569C104.724 365.542 104.165 364.748 103.14 364.562Z" fill="#FC9C47"/>
<path d="M174.122 322.411C173.935 323.484 174.588 324.418 175.66 324.605C176.639 324.745 177.524 324.044 177.664 323.018C177.804 322.037 177.058 321.104 176.126 320.964C175.147 320.824 174.308 321.477 174.122 322.411Z" fill="#FC9C47"/>
<path d="M149.327 295.104C148.302 294.917 147.556 295.477 147.369 296.504C147.183 297.624 147.742 298.418 148.814 298.558C149.84 298.698 150.585 298.184 150.772 297.157C150.958 296.131 150.352 295.29 149.327 295.104Z" fill="#FC9C47"/>
<path d="M155.852 349.064C155.712 350.045 156.504 351.072 157.53 351.212C158.415 351.352 159.114 350.791 159.301 349.858C159.487 348.784 158.788 347.804 157.763 347.711C156.737 347.571 155.992 348.131 155.852 349.064Z" fill="#FC9C47"/>
<path d="M166.525 310.041C166.385 310.974 166.851 311.768 167.69 311.908C168.436 312.048 169.275 311.395 169.321 310.601C169.415 309.621 168.902 308.874 168.11 308.781C167.177 308.64 166.665 309.061 166.525 310.041Z" fill="#3BB59E"/>
<path d="M146.577 285.955C147.509 286.141 148.022 285.768 148.162 284.881C148.302 284.041 147.649 283.201 146.857 283.107C146.204 283.014 145.459 283.714 145.319 284.461C145.226 285.208 145.692 285.768 146.577 285.955Z" fill="#3BB59E"/>
<path d="M85.7086 371.61C86.501 371.704 87.1069 371.237 87.2001 370.35C87.2933 369.603 86.5942 368.81 85.8485 368.716C85.2426 368.669 84.4503 369.323 84.4037 369.976C84.2638 370.723 84.8697 371.517 85.7086 371.61Z" fill="#3BB59E"/>
<path d="M139.866 341.082C140.006 340.149 139.633 339.589 138.794 339.542C137.908 339.449 137.349 339.869 137.256 340.709C137.163 341.549 137.722 342.296 138.468 342.389C139.26 342.529 139.726 342.109 139.866 341.082Z" fill="#3BB59E"/>
<path d="M186.752 350.091C188.244 351.445 189.735 352.845 191.273 354.199C191.18 354.526 191.133 354.853 191.04 355.179C190.015 355.179 189.269 354.712 188.523 354.012C187.545 353.079 186.519 352.238 185.494 351.305C185.028 350.885 184.655 350.418 185.121 349.858C185.68 349.298 186.24 349.671 186.752 350.091Z" fill="#FFE0BF"/>
<path d="M131.29 361.761C132.549 363.301 133.854 364.842 135.112 366.382C134.739 367.129 134.087 366.989 133.434 366.896C132.316 365.589 131.15 364.235 130.032 362.928C129.612 362.461 129.426 361.901 129.939 361.434C130.451 361.014 130.917 361.341 131.29 361.761Z" fill="#FFE0BF"/>
<path d="M126.303 363.955C126.583 364.002 126.862 364.515 127.002 364.842C127.096 365.075 126.956 365.449 126.909 365.729C126.816 366.896 126.723 368.063 126.629 369.23C126.024 369.416 125.418 369.603 124.765 369.79C124.905 368.669 125.045 367.549 125.138 366.429C125.185 365.822 125.138 365.169 125.324 364.608C125.511 364.328 126.024 363.908 126.303 363.955Z" fill="#FFE0BF"/>
<path d="M186.426 344.91C188.384 344.49 190.341 344.116 192.252 343.696C192.345 344.35 192.392 345.003 192.485 345.657C191.879 345.657 191.273 345.61 190.714 345.703C189.409 345.937 188.104 346.31 186.752 346.544C186.24 346.637 185.727 346.497 185.634 345.937C185.541 345.33 185.913 345.003 186.426 344.91Z" fill="#FFE0BF"/>
<path d="M151.704 314.989C152.403 314.895 152.589 315.362 152.683 315.969C152.916 317.556 153.102 319.143 153.335 320.777C153.382 321.29 153.428 321.804 153.522 322.551C153.289 322.738 152.962 323.204 152.683 323.204C152.356 323.204 151.844 322.784 151.797 322.457C151.471 320.357 151.238 318.21 151.005 316.109C150.912 315.549 151.098 315.035 151.704 314.989Z" fill="#FFE0BF"/>
<path d="M173.656 339.729C173.982 339.682 174.355 339.869 174.588 340.055C175.986 341.036 177.338 342.063 178.689 343.089C179.155 343.463 179.435 343.883 179.016 344.396C178.596 344.91 178.083 344.723 177.617 344.396C176.173 343.37 174.774 342.389 173.376 341.316C173.097 341.082 172.91 340.756 172.584 340.289C173.097 340.055 173.376 339.775 173.656 339.729Z" fill="#FFE0BF"/>
<path d="M170.673 286.655C171.652 284.788 172.537 283.014 173.516 281.333C173.656 281.147 174.308 281.007 174.541 281.147C174.774 281.287 175.007 281.894 174.868 282.127C174.075 283.854 173.236 285.581 172.304 287.262C172.164 287.495 171.559 287.728 171.325 287.588C171.046 287.448 170.859 286.935 170.673 286.655Z" fill="#FFE0BF"/>
<path d="M182.232 335.994C182.698 335.901 183.07 336.274 183.07 336.788C183.117 338.702 183.164 340.615 183.21 342.529C183.21 343.043 182.884 343.556 182.325 343.416C181.998 343.323 181.579 342.903 181.532 342.576C181.439 340.662 181.439 338.748 181.393 336.601C181.626 336.414 181.905 336.041 182.232 335.994Z" fill="#FFE0BF"/>
<path d="M172.211 348.878C173.842 348.411 175.473 348.037 177.151 347.617C177.757 347.477 178.223 347.571 178.363 348.224C178.503 348.784 178.083 349.111 177.571 349.251C176.639 349.531 175.707 349.718 174.774 349.998C174.029 350.185 173.283 350.418 172.491 350.605C171.745 350.745 171.139 350.325 171.279 349.485C171.559 349.344 171.838 348.971 172.211 348.878Z" fill="#FFE0BF"/>
<path d="M167.69 286.608C167.55 286.468 167.224 286.281 167.131 286.001C166.385 284.414 165.686 282.827 164.94 281.24C164.707 280.773 164.661 280.26 165.173 279.98C165.733 279.653 166.199 279.98 166.478 280.493C166.944 281.427 167.41 282.36 167.83 283.294C168.156 283.947 168.482 284.648 168.669 285.348C168.902 286.141 168.529 286.701 167.69 286.608Z" fill="#FFE0BF"/>
<path d="M72.7054 363.535C73.1248 363.628 73.6841 363.768 73.8706 364.095C74.4764 365.262 74.9425 366.476 75.4086 367.689C75.6416 368.203 75.8747 368.763 75.9213 369.276C75.9679 369.556 75.6882 370.117 75.4552 370.163C75.1755 370.257 74.7561 370.023 74.4298 369.836C74.29 369.79 74.29 369.556 74.1968 369.37C73.5909 367.829 72.9384 366.336 72.3325 364.795C72.2393 364.608 72.1927 364.375 72.0995 364.095C72.3325 363.862 72.5656 363.488 72.7054 363.535Z" fill="#FFE0BF"/>
<path d="M131.57 357.653C130.964 357.98 130.405 357.467 130.498 356.673C130.591 356.533 130.731 356.253 131.011 356.113C132.595 355.179 134.18 354.246 135.811 353.405C136.091 353.265 136.743 353.499 136.883 353.732C137.023 354.012 136.836 354.713 136.603 354.853C134.926 355.833 133.248 356.766 131.57 357.653Z" fill="#FFE0BF"/>
<path d="M122.947 359.707C123.507 359.427 124.066 359.287 124.439 359.941C124.812 360.594 124.299 361.014 123.786 361.294C122.388 362.041 121.037 362.788 119.638 363.488C119.452 363.581 119.219 363.722 119.032 363.722C118.473 363.722 118.147 363.441 118.1 362.695C118.333 362.508 118.613 362.134 118.939 361.948C120.291 361.154 121.642 360.454 122.947 359.707Z" fill="#FFE0BF"/>
<path d="M69.7224 356.626C69.1165 355.086 68.5572 353.546 67.998 352.005C67.9513 351.865 67.9047 351.678 67.8115 351.352C68.0446 351.165 68.3708 350.745 68.6038 350.745C68.9301 350.791 69.3962 351.118 69.536 351.398C70.1885 352.892 70.7478 354.479 71.307 356.02C71.4935 356.533 71.5401 357.093 70.8876 357.327C70.3283 357.513 69.9088 357.14 69.7224 356.626Z" fill="#FFE0BF"/>
<path d="M153.335 329.366C153.941 329.273 154.174 329.786 154.267 330.253C154.454 331.28 154.547 332.307 154.687 333.334C154.78 334.034 154.827 334.734 154.92 335.574C154.64 335.808 154.361 336.274 154.081 336.274C153.755 336.274 153.242 335.854 153.195 335.574C152.916 333.847 152.729 332.12 152.543 330.393C152.496 329.879 152.776 329.459 153.335 329.366Z" fill="#FFE0BF"/>
<path d="M128.634 354.899C128.354 354.759 128.028 354.246 128.028 353.919C128.028 353.125 128.214 352.379 128.354 351.585C128.494 350.745 128.587 349.858 128.82 349.018C128.913 348.691 129.333 348.317 129.659 348.271C130.265 348.177 130.545 348.738 130.451 349.251C130.218 350.932 129.985 352.612 129.659 354.292C129.612 354.759 129.146 355.179 128.634 354.899Z" fill="#FFE0BF"/>
<path d="M156.038 326.799C156.178 326.565 156.691 326.565 157.064 326.518C157.11 326.518 157.204 326.612 157.297 326.659C158.695 327.499 160.14 328.339 161.538 329.226C162.004 329.506 162.284 329.926 162.004 330.393C161.864 330.673 161.445 330.766 161.165 330.953C160.746 330.72 160.466 330.626 160.233 330.44C159.161 329.786 158.042 329.133 156.971 328.479C156.691 328.292 156.318 328.106 156.178 327.825C155.992 327.545 155.899 327.032 156.038 326.799Z" fill="#FFE0BF"/>
<path d="M159.953 318.77C160.839 318.957 160.979 319.797 160.326 320.45C159.254 321.524 158.136 322.597 157.064 323.671C156.644 324.091 156.178 324.325 155.712 323.811C155.293 323.391 155.386 322.924 155.759 322.551C156.877 321.384 157.996 320.264 159.161 319.143C159.394 318.91 159.767 318.863 159.953 318.77Z" fill="#FFE0BF"/>
<path d="M74.29 357.467C74.0569 357.373 73.9637 356.953 73.8705 356.766C73.9637 356.486 74.0103 356.346 74.0569 356.206C74.9891 354.713 75.8746 353.219 76.8533 351.818C76.9932 351.585 77.6923 351.398 77.8321 351.538C78.1117 351.772 78.3448 352.379 78.2049 352.612C77.3194 354.246 76.3407 355.833 75.2687 357.373C75.1755 357.56 74.5696 357.607 74.29 357.467Z" fill="#FFE0BF"/>
<path d="M148.721 328.899C149.187 328.432 149.7 328.199 150.213 328.666C150.772 329.179 150.446 329.693 149.979 330.113C148.814 331.186 147.696 332.26 146.531 333.287C146.344 333.474 146.111 333.614 145.878 333.66C145.272 333.8 144.853 333.334 144.946 332.587C145.086 332.447 145.272 332.167 145.505 331.933C146.577 330.906 147.649 329.926 148.721 328.899Z" fill="#FFE0BF"/>
<path d="M166.618 299.258C166.292 299.398 165.872 299.585 165.593 299.491C165.313 299.398 165.22 298.931 165.033 298.651C165.826 296.924 166.571 295.337 167.317 293.797C167.55 293.283 168.109 293.096 168.529 293.47C168.762 293.657 168.948 294.263 168.809 294.59C168.249 296.037 167.55 297.438 166.898 298.885C166.851 298.978 166.758 299.211 166.618 299.258Z" fill="#FFE0BF"/>
<path d="M172.118 292.583C172.444 292.63 172.91 292.816 173.05 293.05C173.796 294.403 174.495 295.85 175.194 297.251C175.473 297.811 175.52 298.418 174.868 298.698C174.168 299.025 173.842 298.465 173.609 297.904C173.003 296.691 172.444 295.477 171.838 294.263C171.698 293.937 171.605 293.563 171.419 293.096C171.652 292.91 171.931 292.583 172.118 292.583Z" fill="#FFE0BF"/>
<path d="M123.507 355.319C122.528 354.152 121.549 352.985 120.571 351.772C120.384 351.538 120.291 351.258 120.104 350.791C120.477 350.605 120.757 350.278 121.083 350.278C121.363 350.278 121.782 350.465 121.969 350.745C122.947 351.912 123.926 353.079 124.905 354.292C125.278 354.759 125.418 355.273 124.858 355.693C124.299 356.113 123.88 355.786 123.507 355.319Z" fill="#FFE0BF"/>
<path d="M145.179 321.43C146.624 322.177 148.022 322.971 149.374 323.811C149.84 324.091 150.073 324.558 149.746 325.025C149.467 325.538 148.954 325.538 148.488 325.305C147.09 324.511 145.692 323.718 144.293 322.878C144.014 322.691 143.874 322.317 143.734 322.131C143.921 321.29 144.48 321.057 145.179 321.43Z" fill="#FFE0BF"/>
<path d="M181.253 350.932C181.998 350.885 182.185 351.538 182.138 352.098C182.138 353.312 182.045 354.526 181.998 355.459C181.905 356.113 181.859 356.44 181.765 356.813C181.672 357.327 181.486 357.747 180.88 357.7C180.274 357.607 180.134 357.186 180.134 356.673C180.227 355.133 180.321 353.639 180.367 352.098C180.46 351.492 180.6 350.932 181.253 350.932Z" fill="#FFE0BF"/>
<path d="M63.4772 355.973C64.922 356.486 66.3202 357.046 67.7184 357.56C68.2311 357.747 68.5107 358.167 68.2777 358.68C68.1378 358.96 67.6718 359.1 67.3921 359.24C65.7143 358.633 64.2695 358.12 62.8247 357.56C62.3586 357.373 62.0323 356.953 62.2654 356.393C62.4984 355.879 63.0111 355.786 63.4772 355.973Z" fill="#FFE0BF"/>
<path d="M75.9678 360.874C76.294 360.174 76.8999 360.314 77.4126 360.547C78.671 361.061 79.8828 361.621 81.1412 362.181C81.6072 362.415 82.0267 362.788 81.7936 363.301C81.6072 363.628 81.0945 363.815 80.8149 364.002C79.2769 363.348 77.9719 362.788 76.6669 362.181C76.1542 361.854 75.6881 361.481 75.9678 360.874Z" fill="#FFE0BF"/>
<path d="M166.292 290.763C166.292 290.996 165.919 291.463 165.593 291.556C164.707 291.789 163.775 291.883 162.89 292.023C162.237 292.116 161.585 292.256 160.932 292.21C160.652 292.21 160.186 291.836 160.14 291.556C160.093 291.276 160.419 290.716 160.652 290.669C162.237 290.342 163.822 290.109 165.546 289.829C165.872 290.156 166.245 290.436 166.292 290.763Z" fill="#FFE0BF"/>
<path d="M66.4133 368.763C65.9006 368.436 65.9006 367.923 66.1803 367.502C66.8794 366.289 67.6251 365.122 68.3708 364.002C68.5572 363.721 68.9767 363.581 69.2563 363.395C69.8622 363.815 70.1419 364.235 69.8156 364.795C69.1165 366.055 68.3708 367.269 67.5785 368.483C67.3455 368.856 66.926 369.043 66.4133 368.763Z" fill="#FFE0BF"/>
<path d="M174.681 290.482C174.495 290.249 174.075 290.016 174.075 289.736C174.075 289.455 174.355 288.942 174.634 288.849C175.846 288.429 177.105 288.055 178.363 287.682C178.969 287.495 179.435 287.635 179.575 288.289C179.761 288.895 179.295 289.175 178.829 289.315C177.711 289.689 176.592 290.016 175.473 290.342C175.287 290.436 175.054 290.436 174.681 290.482Z" fill="#FFE0BF"/>
<path d="M72.2393 359.147C72.9384 359.24 73.4044 359.987 73.2646 360.687C73.1248 361.434 72.4723 361.854 71.7266 361.714C71.0275 361.574 70.608 361.014 70.7479 360.314C70.8411 359.614 71.5868 359.054 72.2393 359.147Z" fill="#FFE0BF"/>
<path d="M127.562 357.653C128.401 357.793 128.867 358.447 128.727 359.24C128.587 359.894 128.028 360.267 127.235 360.127C126.49 359.987 126.024 359.38 126.163 358.634C126.303 357.887 126.769 357.513 127.562 357.653Z" fill="#FFE0BF"/>
<path d="M168.389 290.109C168.529 289.455 169.415 288.849 170.114 288.989C170.72 289.129 171.046 289.689 170.953 290.389C170.859 291.183 170.3 291.556 169.461 291.416C168.715 291.323 168.249 290.763 168.389 290.109Z" fill="#FFE0BF"/>
<path d="M153.195 325.025C153.894 325.165 154.407 325.865 154.361 326.518C154.267 327.219 153.755 327.545 152.916 327.405C152.077 327.265 151.657 326.705 151.751 326.005C151.89 325.305 152.45 324.885 153.195 325.025Z" fill="#FFE0BF"/>
<path d="M182.465 346.124C183.117 346.217 183.583 346.917 183.397 347.571C183.257 348.224 182.604 348.598 181.905 348.457C181.206 348.317 180.88 347.804 181.02 347.104C181.16 346.497 181.859 346.03 182.465 346.124Z" fill="#FFE0BF"/>
<path d="M177.664 236.382C177.384 236.475 177.058 236.522 176.778 236.662C175.007 237.455 174.681 237.269 174.308 235.308C173.283 229.8 172.164 224.339 171.232 218.83C169.601 208.934 168.203 198.992 167.69 188.909C167.504 185.408 168.156 182.141 169.648 179.013C170.626 176.959 172.257 175.793 174.495 175.512C174.774 175.466 175.054 175.326 175.334 175.232C176.172 175.559 176.965 175.886 177.804 176.166C177.85 176.353 177.897 176.539 178.037 176.633C179.249 177.66 179.994 179.013 180.46 180.46C181.02 182.421 181.579 184.428 181.952 186.435C183.536 195.538 183.35 204.733 182.092 213.836C181.206 220.091 179.808 226.299 178.643 232.507C178.549 232.974 178.596 233.441 178.596 233.954C178.27 234.748 177.944 235.541 177.664 236.382ZM177.291 227.793C178.177 222.845 179.202 217.897 179.854 212.949C181.02 203.893 181.206 194.837 179.482 185.782C179.155 184.195 178.689 182.654 178.223 181.114C178.037 180.554 177.757 179.947 177.431 179.48C175.986 177.286 173.609 177.24 172.071 179.387C170.952 180.974 170.347 182.794 170.207 184.661C170.02 187.369 170.02 190.076 170.207 192.784C170.859 202.539 172.397 212.155 173.982 221.771C174.541 225.132 175.24 228.493 175.893 231.807C175.939 232.087 176.079 232.321 176.172 232.601C176.266 232.601 176.359 232.601 176.406 232.601C176.732 230.92 177.011 229.38 177.291 227.793Z" fill="#372F2C"/>
<path d="M109.991 342.296C107.707 340.335 105.423 338.375 103.14 336.414C102.394 335.761 101.555 334.921 100.483 335.387C99.411 335.854 99.6906 337.021 99.5508 337.955C99.1779 340.662 98.7585 343.323 98.339 346.03C98.2924 346.17 98.1992 346.357 98.0594 346.684C97.7331 346.31 97.5001 346.03 97.3137 345.703C96.1485 344.07 95.0299 342.389 93.8648 340.756C93.725 340.522 93.5851 340.335 93.3987 340.149C92.5598 339.355 91.7675 339.495 91.4412 340.616C90.9751 342.203 90.6489 343.836 90.2294 345.47C89.81 347.151 89.3439 348.831 88.8312 350.745C87.0136 348.971 85.3823 347.384 83.7511 345.75C83.3316 345.33 82.9122 344.863 82.4461 344.49C81.9334 344.07 81.3275 343.79 80.8149 344.443C80.3022 345.05 80.675 345.563 81.1877 345.984C83.1918 347.897 85.1959 349.858 87.2466 351.818C87.433 352.005 87.6195 352.192 87.7593 352.379C86.8737 354.292 87.2466 355.646 88.7846 356.346C89.8566 356.86 91.2548 356.393 91.8607 355.366C92.6064 354.106 92.1869 352.985 90.5557 352.052C91.3014 348.971 92.0471 345.937 92.886 342.529C94.6571 345.283 96.2417 347.757 97.7798 350.185C96.6146 351.958 96.7078 353.125 98.0594 353.966C99.1314 354.619 100.623 354.432 101.229 353.499C102.021 352.285 101.508 350.838 99.6906 349.765C100.297 345.937 100.902 342.016 101.555 337.861C104.631 340.149 107.381 342.763 110.224 345.19C109.804 347.197 110.317 348.504 111.622 348.924C112.88 349.344 113.999 348.784 114.512 347.571C115.118 346.17 114.651 345.283 112.787 344.256C112.041 340.522 111.296 336.835 110.597 333.147C110.597 333.054 110.643 332.913 110.643 332.82C110.736 332.867 110.876 332.913 110.969 332.96C113.999 334.454 116.982 335.901 120.011 337.441C120.337 337.628 120.571 338.142 120.757 338.515C121.176 339.449 121.875 340.102 122.901 340.195C123.833 340.289 124.672 339.682 125.045 338.795C125.697 337.255 124.579 335.854 122.668 335.761C120.757 332.4 118.846 329.039 116.889 325.585C118.333 325.818 119.732 326.005 121.13 326.238C122.342 326.472 123.507 326.752 124.719 326.985C126.07 327.265 127.422 327.312 128.261 328.759C128.867 329.786 130.125 329.833 131.057 329.319C131.896 328.852 132.315 327.919 132.082 326.985C131.849 325.912 130.871 324.931 129.752 325.071C128.633 325.211 128.121 324.651 127.422 323.998C125.045 321.804 122.668 319.61 120.291 317.416C119.965 317.136 119.685 316.856 119.126 316.343C120.897 316.202 122.342 316.062 123.786 315.969C125.837 315.829 127.888 315.736 129.938 315.549C130.591 315.502 131.057 315.596 131.477 316.202C132.222 317.229 133.527 317.509 134.506 317.043C135.345 316.623 135.671 315.876 135.485 314.709C135.252 313.355 134.506 312.702 133.201 312.562C133.061 312.562 132.921 312.515 132.828 312.562C131.523 313.262 130.731 312.328 129.845 311.675C127.468 309.761 125.045 307.847 122.481 305.793C126.35 304.766 130.078 303.739 133.76 302.759C135.485 304.113 136.324 304.253 137.209 303.412C138.001 302.666 137.955 301.265 137.069 300.192C136.184 299.165 135.252 299.071 133.9 299.958C130.498 297.858 127.049 295.71 123.6 293.563C123.6 293.47 123.6 293.33 123.6 293.236C126.956 292.256 130.311 291.276 133.62 290.296C135.298 291.463 136.184 291.556 137.023 290.669C137.768 289.922 137.815 288.662 137.209 287.775C136.463 286.655 135.391 286.561 133.667 287.402C130.032 285.908 126.396 284.367 122.714 282.827C122.342 282.687 121.969 282.454 121.596 282.5C121.223 282.547 120.71 282.78 120.571 283.06C120.477 283.387 120.664 283.901 120.897 284.181C121.176 284.461 121.642 284.601 122.062 284.741C125.091 285.955 128.121 287.168 131.197 288.429C131.337 288.475 131.477 288.615 131.803 288.802C130.498 289.175 129.333 289.549 128.167 289.876C126.07 290.482 123.973 291.043 121.876 291.603C121.642 291.649 121.363 291.743 121.13 291.883C120.058 292.49 120.011 293.47 120.99 294.123C123.041 295.477 125.091 296.784 127.189 298.044C128.773 299.025 130.405 300.005 132.176 301.032C131.756 301.172 131.477 301.312 131.15 301.405C127.795 302.292 124.485 303.132 121.13 304.019C120.897 304.066 120.617 304.113 120.384 304.206C119.172 304.673 119.032 305.56 120.011 306.353C120.664 306.867 121.363 307.333 122.015 307.847C124.392 309.714 126.723 311.581 129.053 313.495C129.053 313.588 129.006 313.682 129.006 313.775C127.422 313.869 125.837 313.915 124.252 314.009C122.295 314.149 120.337 314.289 118.38 314.429C117.448 314.475 116.935 315.035 116.702 315.829C116.423 316.623 117.028 316.996 117.541 317.463C120.011 319.703 122.435 321.944 124.905 324.185C125.138 324.418 125.371 324.651 125.744 325.025C124.532 324.838 123.46 324.698 122.435 324.511C120.151 323.998 117.821 323.438 115.537 322.924C115.118 322.831 114.605 322.784 114.279 322.971C113.533 323.438 113.813 324.091 114.139 324.698C115.444 326.985 116.795 329.226 118.1 331.513C118.706 332.587 119.266 333.707 119.871 334.781C119.825 334.827 119.732 334.921 119.685 334.967C117.634 333.94 115.584 332.913 113.533 331.887C112.414 331.326 111.296 330.673 110.131 330.206C109.665 330.019 108.826 329.879 108.593 330.113C108.266 330.486 108.173 331.233 108.266 331.747C108.686 333.94 109.245 336.088 109.711 338.282C109.944 339.542 110.084 340.802 110.317 342.016C110.317 342.109 110.317 342.249 110.317 342.343C110.224 342.343 110.084 342.343 109.991 342.296Z" fill="#372F2C"/>
<path d="M183.303 265.042C183.397 265.556 183.443 265.976 183.49 266.443C183.816 268.45 183.49 270.364 182.511 272.138C181.392 274.098 179.342 275.032 177.151 274.798C174.681 274.518 173.003 272.931 171.279 271.391C170.673 270.831 170.114 270.224 169.508 269.57C168.855 270.831 168.343 272.044 167.69 273.165C166.665 274.985 165.173 276.245 163.169 276.946C160.559 277.832 157.297 276.339 155.898 274.612C155.199 273.725 154.593 272.791 153.894 271.764C153.289 272.418 152.729 273.071 152.077 273.725C150.865 274.985 149.56 276.152 147.789 276.572C145.552 277.132 143.501 276.712 141.683 275.265C140.984 274.705 140.378 274.005 139.633 273.305C138.747 274.985 137.396 276.292 135.811 277.366C133.62 278.859 131.01 278.766 129.146 276.946C128.214 276.012 127.422 274.938 126.49 273.865C125.604 274.472 124.672 275.172 123.693 275.825C121.409 277.319 118.893 277.272 116.562 276.245C113.999 275.078 112.414 272.838 111.902 269.99C111.715 268.963 111.575 267.937 111.622 266.863C111.669 266.163 111.389 265.836 110.923 265.463C109.431 264.296 108.173 262.942 107.334 261.215C106.169 258.787 106.216 257.247 108.36 254.773C108.686 254.4 109.059 254.026 109.431 253.653C109.059 253.139 108.732 252.626 108.36 252.159C106.821 250.245 106.868 248.145 107.474 245.951C107.66 245.297 107.987 244.69 108.266 244.037C109.059 241.983 110.457 240.629 112.601 240.116C113.067 240.023 113.207 239.743 113.207 239.276C113.16 238.295 113.113 237.269 113.253 236.288C113.626 232.881 117.355 230.593 120.664 232.041C121.829 232.554 122.994 233.161 124.206 233.768C124.812 233.067 125.464 232.227 126.21 231.434C127.375 230.22 128.773 229.333 130.358 228.726C133.434 227.606 135.951 228.82 138.141 230.874C138.421 231.154 138.701 231.434 138.98 231.714C139.866 232.601 140.052 232.647 140.844 231.854C142.103 230.5 143.687 229.707 145.319 228.96C147.323 227.979 149.933 228.306 151.051 229.707C151.844 230.687 152.496 231.76 153.195 232.834C153.289 232.974 153.335 233.161 153.475 233.441C154.221 232.694 154.827 232.041 155.479 231.434C156.97 230.127 158.508 228.96 160.466 228.4C163.682 227.513 166.059 228.54 167.597 231.387C167.97 232.087 168.389 232.834 168.855 233.628C170.813 232.414 172.957 231.854 175.147 231.62C176.732 231.434 178.316 231.387 179.854 232.087C181.486 232.834 182.511 234.048 182.837 235.775C182.977 236.615 183.024 237.502 183.024 238.389C183.024 238.902 183.117 239.182 183.63 239.416C186.007 240.583 186.985 242.637 187.312 245.204C187.545 246.931 186.845 248.238 185.68 249.405C185.401 249.732 185.121 250.059 184.795 250.479C185.261 250.805 185.68 251.085 186.053 251.412C188.104 253.279 188.989 255.66 189.222 258.367C189.222 258.554 189.316 258.741 189.409 258.974C189.316 259.581 189.222 260.188 189.129 260.795C187.778 262.942 185.587 264.016 183.303 265.042ZM164.381 251.552C164.474 251.179 164.567 250.759 164.474 250.385C164.381 250.059 164.008 249.638 163.728 249.638C163.449 249.592 163.123 249.965 162.843 250.199C162.75 250.245 162.796 250.432 162.75 250.572C162.284 252.299 160.792 253.559 159.021 253.699C157.856 253.793 157.017 253.233 156.318 252.439C155.992 252.066 155.759 251.646 155.432 251.319C155.106 251.039 154.733 250.759 154.314 250.665C153.615 250.525 153.102 251.085 153.475 251.646C154.594 253.326 155.712 255.147 157.996 255.473C160.559 255.94 163.682 254.026 164.381 251.552ZM176.545 242.963C176.592 242.823 176.685 242.637 176.732 242.497C176.825 242.03 176.965 241.516 176.359 241.236C175.753 240.956 175.38 241.33 175.101 241.843C175.054 241.936 175.007 241.983 174.961 242.076C174.401 243.29 173.562 243.85 172.211 243.804C170.393 243.757 168.995 243.15 168.109 241.516C167.876 241.05 167.597 240.583 167.224 240.209C166.851 239.789 166.292 239.602 165.826 240.023C165.406 240.396 165.5 240.863 165.826 241.33C166.105 241.75 166.385 242.217 166.618 242.683C167.643 244.457 169.228 245.297 171.186 245.577C173.842 245.904 175.706 244.877 176.545 242.963ZM139.819 254.866C140.705 254.166 141.171 253.279 141.171 252.159C141.171 251.832 140.891 251.366 140.611 251.272C140.378 251.179 139.959 251.506 139.679 251.692C139.539 251.786 139.446 252.066 139.4 252.252C138.747 254.026 136.65 254.96 134.925 254.073C134.04 253.606 133.341 252.906 132.548 252.299C132.502 252.252 132.455 252.159 132.409 252.112C131.849 251.412 131.337 251.272 130.871 251.646C130.451 251.972 130.498 252.626 130.964 253.279C131.989 254.773 133.527 255.707 135.531 255.987C137.116 256.407 138.561 255.893 139.819 254.866ZM130.544 262.568C130.684 262.102 130.777 261.588 130.172 261.355C129.705 261.168 129.333 261.355 129.053 261.775C129.053 261.822 129.006 261.868 128.96 261.868C127.468 263.922 125.418 264.202 123.553 262.475C122.947 261.915 122.481 261.215 122.015 260.561C121.689 260.094 121.363 259.721 120.71 260.094C120.104 260.468 120.198 260.981 120.431 261.448C121.503 263.409 122.994 264.856 124.532 265.182C127.608 265.649 129.938 264.436 130.544 262.568ZM153.615 242.87C153.708 242.73 153.801 242.543 153.848 242.403C153.941 241.89 153.941 241.283 153.335 241.096C152.776 240.909 152.45 241.283 152.217 241.75C151.005 244.13 149.42 244.737 146.997 243.71C146.251 243.383 145.598 242.87 144.899 242.45C144.759 242.357 144.666 242.123 144.526 242.123C144.107 242.076 143.594 241.936 143.315 242.123C142.849 242.45 142.942 243.01 143.315 243.383C144.247 244.41 145.365 245.157 146.67 245.531C147.09 245.624 147.509 245.671 147.975 245.764C150.585 246.138 152.589 245.111 153.615 242.87ZM177.151 261.075C176.965 260.748 176.639 260.375 176.359 260.375C176.079 260.328 175.753 260.748 175.52 260.981C175.427 261.075 175.427 261.308 175.427 261.495C175.007 263.502 172.91 264.342 171.232 263.129C170.58 262.662 170.067 261.962 169.461 261.355C169.135 260.981 168.762 260.795 168.296 261.075C167.83 261.355 167.876 261.775 168.016 262.242C168.436 263.642 170.813 265.369 172.491 265.463C174.308 265.556 176.172 264.529 176.872 262.942C177.011 262.615 177.105 262.288 177.198 261.962C177.198 261.682 177.291 261.308 177.151 261.075ZM153.055 262.849C153.149 262.615 153.242 262.288 153.149 262.102C153.009 261.728 152.776 261.308 152.45 261.121C151.937 260.841 151.611 261.308 151.471 261.728C151.191 262.755 150.585 263.362 149.653 263.829C148.721 264.296 147.882 264.342 147.09 263.735C146.484 263.269 145.925 262.708 145.365 262.148C144.759 261.542 144.34 261.401 143.921 261.775C143.361 262.288 143.594 262.755 143.921 263.269C144.853 264.669 146.391 265.696 147.929 265.929C149.746 266.209 152.496 264.529 153.055 262.849ZM130.824 244.27C131.104 243.99 131.383 243.617 131.43 243.29C131.477 242.963 131.29 242.45 131.057 242.31C130.824 242.17 130.311 242.263 130.032 242.45C129.705 242.637 129.566 243.103 129.239 243.29C127.049 244.831 125.418 244.644 123.367 242.823C123.041 242.543 122.808 242.17 122.435 241.936C122.062 241.75 121.596 241.656 121.27 242.123C120.943 242.543 121.083 242.963 121.363 243.29C122.481 244.55 123.553 245.671 125.511 245.904C127.701 246.324 129.426 245.671 130.824 244.27Z" fill="#FFE0BF"/>
<path d="M157.996 255.52C160.559 255.893 163.635 253.98 164.381 251.552C164.474 251.179 164.567 250.759 164.474 250.385C164.381 250.059 164.008 249.638 163.729 249.638C163.449 249.592 163.123 249.965 162.843 250.199C162.75 250.245 162.796 250.432 162.75 250.572C162.284 252.299 160.792 253.559 159.021 253.7C157.856 253.793 157.017 253.233 156.318 252.439C155.992 252.066 155.759 251.646 155.432 251.319C155.106 251.039 154.733 250.759 154.314 250.665C153.615 250.525 153.102 251.085 153.475 251.646C154.64 253.373 155.712 255.193 157.996 255.52Z" fill="#FC9C47"/>
<path d="M171.279 245.577C173.889 245.904 175.753 244.924 176.592 242.963C176.638 242.823 176.732 242.637 176.778 242.497C176.871 242.03 177.011 241.516 176.405 241.236C175.8 240.956 175.427 241.33 175.147 241.843C175.1 241.936 175.054 241.983 175.007 242.076C174.448 243.29 173.609 243.85 172.257 243.804C170.44 243.757 169.042 243.15 168.156 241.516C167.923 241.05 167.643 240.583 167.27 240.209C166.898 239.789 166.338 239.602 165.872 240.023C165.453 240.396 165.546 240.863 165.872 241.33C166.152 241.75 166.432 242.217 166.665 242.683C167.69 244.457 169.275 245.297 171.279 245.577Z" fill="#FC9C47"/>
<path d="M135.578 255.987C137.116 256.407 138.561 255.847 139.819 254.82C140.705 254.12 141.171 253.233 141.171 252.112C141.171 251.786 140.891 251.319 140.611 251.226C140.378 251.132 139.959 251.459 139.679 251.646C139.539 251.739 139.446 252.019 139.4 252.206C138.747 253.98 136.65 254.913 134.925 254.026C134.04 253.559 133.341 252.859 132.548 252.252C132.502 252.206 132.455 252.112 132.409 252.066C131.849 251.366 131.337 251.226 130.871 251.599C130.451 251.926 130.498 252.579 130.964 253.233C132.036 254.773 133.574 255.707 135.578 255.987Z" fill="#FC9C47"/>
<path d="M124.625 265.182C127.608 265.649 129.985 264.436 130.544 262.568C130.684 262.102 130.777 261.588 130.171 261.355C129.705 261.168 129.332 261.355 129.053 261.775C129.053 261.822 129.006 261.868 128.96 261.868C127.468 263.922 125.418 264.202 123.553 262.475C122.947 261.915 122.481 261.215 122.015 260.561C121.689 260.094 121.363 259.721 120.71 260.094C120.104 260.468 120.198 260.981 120.431 261.448C121.549 263.362 123.041 264.856 124.625 265.182Z" fill="#FC9C47"/>
<path d="M147.929 245.671C150.539 246.138 152.589 245.111 153.615 242.823C153.708 242.683 153.801 242.497 153.848 242.357C153.941 241.843 153.941 241.236 153.335 241.05C152.776 240.863 152.45 241.236 152.216 241.703C151.005 244.084 149.42 244.69 146.997 243.664C146.251 243.337 145.598 242.823 144.899 242.403C144.759 242.31 144.666 242.076 144.526 242.076C144.107 242.03 143.594 241.89 143.315 242.076C142.849 242.403 142.942 242.963 143.315 243.337C144.247 244.364 145.365 245.111 146.67 245.484C147.09 245.577 147.509 245.624 147.929 245.671Z" fill="#FC9C47"/>
<path d="M177.198 262.008C177.198 261.682 177.291 261.355 177.151 261.121C176.965 260.795 176.639 260.421 176.359 260.421C176.079 260.375 175.753 260.795 175.52 261.028C175.427 261.121 175.427 261.355 175.427 261.542C175.007 263.549 172.91 264.389 171.232 263.175C170.58 262.708 170.067 262.008 169.461 261.401C169.135 261.028 168.762 260.841 168.296 261.121C167.83 261.402 167.876 261.822 168.016 262.288C168.436 263.689 170.813 265.416 172.49 265.509C174.308 265.603 176.172 264.576 176.872 262.989C177.011 262.662 177.105 262.335 177.198 262.008Z" fill="#FC9C47"/>
<path d="M148.022 265.929C149.746 266.209 152.496 264.529 153.055 262.849C153.149 262.615 153.242 262.288 153.149 262.102C153.009 261.728 152.776 261.308 152.45 261.121C151.937 260.841 151.611 261.308 151.471 261.728C151.191 262.755 150.585 263.362 149.653 263.829C148.721 264.296 147.882 264.342 147.09 263.735C146.484 263.269 145.925 262.708 145.365 262.148C144.759 261.542 144.34 261.401 143.921 261.775C143.361 262.288 143.594 262.755 143.921 263.269C144.899 264.622 146.484 265.696 148.022 265.929Z" fill="#FC9C47"/>
<path d="M125.557 245.904C127.748 246.278 129.426 245.671 130.824 244.224C131.104 243.944 131.383 243.57 131.43 243.243C131.476 242.917 131.29 242.403 131.057 242.263C130.824 242.123 130.311 242.216 130.032 242.403C129.705 242.59 129.566 243.057 129.239 243.243C127.049 244.784 125.418 244.597 123.367 242.777C123.041 242.497 122.808 242.123 122.435 241.89C122.062 241.703 121.596 241.61 121.27 242.076C120.943 242.497 121.083 242.917 121.363 243.243C122.481 244.597 123.553 245.717 125.557 245.904Z" fill="#FC9C47"/>
<path d="M168.482 63.3899C169.135 60.3091 172.211 58.6753 174.028 59.0954C176.312 59.6089 177.384 61.0559 177.198 63.4365C177.058 65.5371 175.986 67.6843 174.588 67.7777C171.558 67.9177 169.741 68.2912 168.482 63.3899Z" fill="#35837A"/>
<path d="M175.054 8.40219C174.308 8.40219 173.656 8.35551 173.05 8.40219C170.533 8.63559 169.368 7.14186 168.669 5.27471C168.016 3.45423 169.135 2.14723 170.393 0.980256C171.978 -0.466789 174.867 -0.326752 176.312 1.21365C177.617 2.56734 177.571 5.7415 176.219 7.2819C175.893 7.65533 175.473 7.98208 175.054 8.40219Z" fill="#35837A"/>
<path d="M175.054 125.986C170.02 126.453 169.601 125.379 168.622 122.439C168.156 121.132 169.694 118.704 171.279 118.051C173.562 117.117 175.66 117.631 176.778 119.358C177.897 121.318 177.244 124.072 175.054 125.986Z" fill="#35837A"/>
<path d="M177.198 97.1387C177.338 98.5857 176.592 99.846 175.706 101.013C174.401 102.74 172.537 102.833 170.626 101.293C168.948 99.9394 168.482 97.5121 169.275 95.8317C170.113 94.1512 172.817 92.8909 174.774 93.2643C176.405 93.6378 177.244 94.8981 177.198 97.1387Z" fill="#35837A"/>
<path d="M177.431 155.394C177.384 157.588 176.219 159.128 174.681 160.248C174.075 160.669 173.003 160.715 172.211 160.575C170.393 160.202 168.529 157.401 168.902 155.581C169.321 153.713 170.673 152.593 172.397 151.94C174.122 151.286 175.427 151.566 176.545 153.06C177.011 153.667 177.151 154.6 177.431 155.394Z" fill="#35837A"/>
<path d="M177.477 37.6698C177.384 39.7237 176.405 41.1707 175.007 42.3844C173.889 43.318 172.304 43.3646 171.139 42.4778C169.741 41.4508 168.808 40.0038 168.902 38.3233C169.041 36.4095 170.393 35.1492 172.118 34.449C174.122 33.6088 175.147 33.7955 176.452 35.4292C177.011 35.9894 177.151 36.8763 177.477 37.6698Z" fill="#35837A"/>
<path d="M177.571 85.749C177.571 88.363 175.427 90.697 173.096 90.6503C170.859 90.6036 169.181 88.6898 169.228 86.2158C169.275 83.8352 171.185 81.9214 173.562 81.9214C175.706 81.8747 177.571 83.6952 177.571 85.749Z" fill="#35837A"/>
<path d="M173.05 148.859C170.533 149.092 169.368 147.085 169.228 144.704C169.088 142.464 171.465 140.083 173.609 140.13C175.66 140.177 177.571 142.137 177.524 144.191C177.524 147.038 175.706 148.906 173.05 148.859Z" fill="#35837A"/>
<path d="M173.423 31.2748C171.046 31.2748 169.228 29.501 169.228 27.2138C169.275 24.8798 171.418 22.5926 173.562 22.5459C175.566 22.5459 177.571 24.5064 177.571 26.5136C177.571 29.221 175.799 31.2748 173.423 31.2748Z" fill="#35837A"/>
<path d="M173.935 11.8564C175.473 11.7164 176.778 12.2299 177.431 13.9103C178.223 15.8241 177.99 16.8977 176.452 18.4848C175.194 19.7918 173.935 20.7254 171.978 19.9319C170.253 19.2317 168.948 17.2712 169.228 15.4507C169.554 13.3968 171.185 11.9031 173.189 11.8564C173.423 11.8564 173.609 11.8564 173.935 11.8564Z" fill="#35837A"/>
<path d="M173.236 79.214C170.999 79.214 169.181 77.2535 169.228 74.9662C169.275 73.0057 171.651 70.8118 173.656 70.8585C175.893 70.9052 177.99 72.6323 177.897 74.5928C177.804 77.1134 175.52 79.6808 173.236 79.214Z" fill="#35837A"/>
<path d="M173.795 129.487C175.566 129.487 177.198 130.514 177.757 132.194C178.27 133.735 177.617 134.949 176.545 136.069C175.333 137.329 174.122 138.356 172.257 137.656C170.3 136.909 168.948 134.949 169.228 133.128C169.554 130.934 171.372 129.487 173.795 129.487Z" fill="#35837A"/>
<path d="M177.571 108.435C177.571 111.236 175.939 113.103 173.516 113.103C171.092 113.103 169.647 111.609 169.554 109.275C169.414 106.521 171.745 105.354 174.588 105.167C176.452 105.027 177.571 106.428 177.571 108.435Z" fill="#35837A"/>
<path d="M174.355 163.703C176.545 163.703 177.571 164.73 177.571 166.924C177.571 169.724 175.753 171.778 173.329 171.685C171.418 171.591 169.647 169.631 169.601 167.624C169.601 165.29 171.512 163.749 174.355 163.703Z" fill="#35837A"/>
<path d="M177.524 47.9392C177.617 52.0936 176.312 53.774 173.236 53.6807C170.626 53.634 169.461 52.0002 169.694 48.6394C172.63 44.9984 174.914 44.765 177.524 47.9392Z" fill="#35837A"/>
</svg>
