<svg width="117" height="167" viewBox="0 0 117 167" fill="none" xmlns="http://www.w3.org/2000/svg">
<g clip-path="url(#clip0)">
<path d="M6.83156 108.901C6.71674 108.958 6.60192 109.015 6.48711 109.072C6.31488 108.559 6.14265 108.046 6.02783 107.532L6.14265 107.475L6.25747 107.418C6.4297 107.932 6.65933 108.445 6.83156 108.901Z" fill="#FDD1A9"/>
<path d="M54.4234 35.0081C56.3753 32.4994 58.3272 29.9337 60.3939 27.539C61.6569 26.1136 63.1496 24.8593 64.5274 23.5479C64.757 23.3199 65.0441 23.1488 65.3311 22.9778C66.6515 22.3506 67.5701 22.6357 67.8571 24.0611C68.3164 25.9426 68.6034 27.9382 68.8905 29.8767C69.1775 32.0433 69.4072 34.2099 69.6368 36.3195C69.6368 36.7186 69.522 37.1748 69.5794 37.5739C69.9813 43.1614 70.0387 48.692 69.2349 54.2226C68.9479 55.648 68.6034 57.1304 68.3164 58.5558C67.9145 59.9242 67.4553 61.2355 67.0534 62.6039C66.9386 62.775 66.7663 62.889 66.6515 63.1171C65.5608 65.1126 64.6422 67.1652 63.4366 69.1037C62.2884 70.9853 60.968 72.8098 59.1883 74.1212C59.1883 72.8098 59.0735 71.5554 57.8679 70.7572C56.5475 69.902 55.1697 70.3581 54.7104 71.8405C54.3086 73.0378 54.5956 74.1212 55.3993 75.0904C56.2605 76.1167 57.2938 75.8316 58.3272 75.4895C58.6716 76.2878 59.4754 75.6606 59.9347 76.0027C59.5328 77.4281 59.8198 78.7965 60.4513 80.1078C60.968 81.1911 61.8292 81.6473 62.7477 81.4192C63.6663 81.1911 64.1829 80.507 64.2403 79.2526C64.3552 77.9982 63.7811 76.9149 63.1496 75.8887C66.8238 76.0027 70.4405 76.4018 73.9425 77.5421C75.0907 77.9412 76.2963 78.1693 77.4445 78.4544C77.6741 78.6254 77.9612 78.8535 78.2482 78.9675C83.3002 81.0201 87.7781 83.9849 92.1986 87.1208C95.0117 89.1164 97.7099 91.283 100.466 93.4496C101.212 94.0198 101.843 94.761 102.417 95.5022C103.451 96.7565 102.934 98.0109 101.327 98.296C100.81 98.41 100.293 98.467 99.7192 98.467C90.6486 98.6951 81.6353 98.467 72.7943 96.1293C71.9906 95.9013 71.1294 95.7872 70.3257 95.6162C69.7516 95.3881 69.1775 95.1601 68.6034 94.875C66.7089 94.1338 64.6996 93.5066 62.8625 92.5373C60.9106 91.511 59.0735 90.1997 57.2364 89.0023C57.2938 88.6602 57.2938 88.2611 57.2938 87.919C57.2938 85.9235 55.5141 84.4411 53.5622 84.7832C50.9214 85.2393 49.601 87.5199 50.4047 90.1427C51.0362 92.1382 52.3566 92.9364 54.3085 92.2523C55.0549 91.9672 55.6864 91.34 56.3753 90.8839C56.4901 91.283 56.7197 91.6821 56.7197 92.0812C57.0068 95.3881 57.0642 98.6951 56.5475 102.002C56.3179 103.256 56.2031 104.511 56.0882 105.765C55.9734 105.936 55.8012 106.05 55.7438 106.278C54.4234 110.098 53.1604 113.918 51.84 117.738C51.7825 117.909 51.7251 118.024 51.6677 118.195C51.6103 118.423 51.6103 118.651 51.5529 118.879C51.3807 118.993 51.151 119.05 51.0936 119.221C49.7732 121.501 48.5102 123.839 47.1898 126.12C46.9028 126.462 46.6157 126.747 46.3861 127.089C44.836 129.142 43.4008 131.194 41.7933 133.19C40.5877 134.672 39.2673 134.444 38.4636 132.677C38.1191 131.935 37.8895 131.194 37.7173 130.396C37.3154 128.8 36.8561 127.203 36.5117 125.607C35.995 123.212 35.5357 120.874 35.1913 118.48C34.9042 116.427 34.8468 114.374 34.6746 112.322C34.7894 110.041 34.8468 107.704 35.1339 105.423C35.3635 103.313 35.8802 101.318 36.2821 99.2082C36.3969 98.9801 36.5117 98.6951 36.6265 98.467C36.8561 97.7828 37.0284 97.0416 37.3154 96.4144C39.0377 92.7084 41.2767 89.3444 44.2619 86.4936C44.6064 86.2086 44.7786 85.7524 45.0083 85.3533C46.7879 87.1778 50.0029 85.5244 50.1177 83.1867C50.2325 81.1341 49.0843 79.5947 46.7305 80.4499C44.8934 81.1911 44.2045 82.5025 44.6638 84.8402C42.023 85.4674 39.3821 85.0682 36.7987 84.8402C34.0431 84.6121 31.23 84.156 28.4744 83.8139C25.0873 82.6736 21.6427 81.6473 18.3704 80.2789C11.998 77.5991 6.19962 74.0641 1.31984 69.1608C0.688335 68.5336 -0.172803 67.9064 0.114243 66.8801C0.458699 65.7398 1.60688 65.6828 2.46802 65.6258C4.47734 65.4547 6.48667 65.3977 8.5534 65.3407C15.2703 65.2837 21.9872 65.2267 28.704 66.0249C29.5078 66.1389 30.3115 66.1959 31.1152 66.31C31.8615 66.424 32.6079 66.538 33.3542 66.6521C38.0617 67.3933 42.5971 68.7616 46.7305 71.2133C47.3046 71.5554 47.8213 72.0686 48.338 72.4677C47.5917 73.3229 47.075 74.2922 47.0176 75.4325C46.9602 77.6562 48.625 79.3096 50.5195 78.9105C52.0696 78.5684 53.5622 76.1737 53.3326 74.5773C53.103 72.8098 51.8974 72.1256 50.3473 71.7265C49.8306 70.13 49.3714 68.4766 48.7973 66.8801C47.9935 64.5995 47.4194 62.3188 47.2472 59.9242C47.1324 58.5558 47.075 57.1874 47.0176 55.876C47.1324 54.7927 47.1898 53.7094 47.3046 52.5691C47.9361 50.1174 48.4528 47.6657 49.1417 45.214C50.2899 41.736 52.414 38.4291 54.4234 35.0081ZM59.5328 79.5377C59.418 79.2526 59.3032 78.9105 59.1883 78.6254C58.3846 76.9149 56.3179 76.4588 54.94 77.7702C53.7919 78.8535 53.3326 80.2789 53.7919 81.8183C54.2511 83.4718 55.916 84.384 57.5235 83.9849C59.3032 83.5858 60.1069 82.2174 59.7624 80.3929C59.705 80.1078 59.6476 79.8228 59.5328 79.5377ZM41.5637 79.4807C42.023 80.849 42.9989 81.5332 44.1471 81.1341C45.4101 80.735 46.2713 78.7395 45.8694 77.257C45.5249 76.0597 44.3768 75.4325 43.1138 75.8316C41.6785 76.2307 41.047 77.8272 41.5637 79.4807ZM44.0323 91.6251C44.0897 91.7391 44.1471 91.9672 44.2619 92.1952C44.7212 93.0505 45.9268 93.6206 46.8453 93.3926C47.8213 93.1075 48.3954 92.1952 48.2806 91.0549C48.2806 90.7698 48.1658 90.5418 48.1084 90.3137C47.6491 88.7743 46.3861 87.919 45.0657 88.3181C43.8601 88.6602 43.4582 89.8576 44.0323 91.6251ZM63.6663 85.1253C63.2644 83.7569 62.1736 83.2437 61.1977 83.9849C60.2217 84.7261 59.6476 85.6954 59.6476 86.9498C59.6476 88.3752 60.8532 89.1164 62.1736 88.6602C63.4366 88.1471 64.1255 86.6647 63.6663 85.1253Z" fill="#DE4427"/>
<path d="M34.5603 112.55C34.7325 114.602 34.7899 116.655 35.077 118.708C35.4214 121.102 35.9381 123.497 36.3974 125.835C36.7418 127.431 37.1437 129.028 37.603 130.624C37.8326 131.365 38.0622 132.163 38.3493 132.905C39.0956 134.615 40.4734 134.9 41.679 133.418C43.2865 131.422 44.7217 129.37 46.2718 127.317C46.5014 126.975 46.7884 126.69 47.0755 126.348C47.0755 126.69 47.0755 127.089 47.0181 127.431C46.2718 130.453 45.3532 133.475 44.7217 136.497C44.4921 137.58 43.918 138.207 43.1143 138.663C42.4253 139.062 41.7364 139.404 40.9901 139.747C39.4975 140.431 38.0048 141.115 36.5122 141.799C35.7659 142.141 35.4214 142.654 35.7085 143.453C35.9955 144.308 36.6844 144.137 37.3159 143.909C38.2345 143.567 39.2104 143.168 40.129 142.768C41.1049 142.312 42.0809 141.913 43.0568 141.457C43.1717 141.571 43.2865 141.628 43.4013 141.742C42.3105 145.277 41.2198 148.755 40.129 152.176C41.5642 153.316 42.3105 153.202 42.8272 151.72C45.5828 144.251 47.3625 136.497 49.3719 128.799C49.7737 127.26 50.1182 125.664 50.5774 123.896C51.5534 125.207 52.2423 126.291 53.1609 127.317C54.2516 128.571 55.4572 129.712 56.6628 130.795C57.2369 131.308 57.9832 131.422 58.4999 130.795C59.074 130.168 58.6721 129.484 58.1555 128.971C58.0406 128.856 57.9258 128.742 57.811 128.628C56.6054 127.374 55.2276 126.234 54.1942 124.808C52.9312 123.098 51.3812 121.444 51.496 119.05C51.5534 118.822 51.6108 118.594 51.6108 118.366C51.6682 118.252 51.7256 118.08 51.783 117.909C53.1035 114.089 54.3665 110.269 55.6869 106.449C55.7443 106.278 55.9165 106.107 56.0313 105.936C57.2943 108.103 58.3851 110.326 59.7629 112.322C61.9445 115.458 65.102 117.624 68.0298 120.019C68.1447 120.247 68.2021 120.532 68.3169 120.76C69.178 122.813 70.0392 124.865 70.7855 126.975C70.9577 127.431 70.9577 128.229 70.6707 128.571C70.3836 128.856 69.6373 128.685 69.0632 128.685C69.0058 128.685 68.9484 128.628 68.891 128.628C65.8483 127.488 63.7242 128.628 63.3223 131.935C63.0927 133.646 63.4371 135.413 63.5519 137.124C63.6093 137.808 63.9538 138.435 64.0112 139.119C64.0686 139.576 63.8964 140.26 63.5519 140.488C63.2649 140.716 62.576 140.431 62.1167 140.317C61.313 140.089 60.5092 139.576 59.7629 139.633C57.9832 139.69 56.8351 140.83 56.2036 142.369C55.0554 145.22 54.4813 148.185 54.5387 151.264C54.5387 153.088 54.8257 154.97 54.998 156.794C55.0554 157.422 55.1128 158.049 54.4239 158.277C54.022 158.391 53.3331 158.277 52.9886 158.049C50.2904 156.281 48.6255 156.224 45.9273 158.049C43.1717 159.873 41.2198 162.325 39.6697 165.176C39.4401 165.632 39.2104 166.145 38.866 166.544C38.6363 166.829 38.1197 167.057 37.7752 167C37.4307 166.943 37.0863 166.487 36.9715 166.145C36.7992 165.632 36.8567 165.119 36.8567 164.549C36.7992 160.785 35.9955 157.136 34.0436 153.887C33.5269 152.974 32.7806 152.119 31.9195 151.549C31.2305 151.093 30.2546 151.093 29.3935 150.865C28.8768 150.694 28.1305 150.58 27.9582 150.238C27.786 149.838 28.073 149.154 28.3601 148.698C30.312 145.847 31.288 142.711 30.8287 139.233C30.4268 136.212 28.8194 134.045 26.2934 132.448C26.0063 132.22 25.6044 132.106 25.3174 131.935C23.9396 131.137 23.8822 130.111 25.26 129.313C26.7526 128.4 27.9008 127.146 28.5323 125.493C29.336 123.497 29.2212 121.558 28.3027 119.62C27.499 117.909 27.6138 117.624 29.1638 116.484C31.1157 115.23 32.838 113.861 34.5603 112.55Z" fill="#156751"/>
<path d="M69.1206 54.2797C69.9243 48.7492 69.9243 43.1616 69.465 37.631C69.4076 37.2319 69.5224 36.7758 69.5224 36.3767C69.9817 36.4907 70.441 36.4907 70.9002 36.7188C73.7133 38.0302 76.756 36.8898 77.8468 33.982C78.2486 32.9557 78.4208 31.8154 78.7079 30.7321C79.1672 28.9646 80.0283 28.6795 81.4061 29.8769C83.4154 31.5873 86.2859 31.1882 87.7785 28.9076C88.5249 27.7673 89.1564 26.5129 89.8453 25.3156C90.1897 24.7454 90.4768 24.1753 90.8786 23.7191C91.5676 22.8639 92.4287 22.8069 93.2324 23.4911C93.3472 23.6051 93.4621 23.7191 93.5769 23.8332C95.5862 25.7147 97.2511 25.8857 99.6048 24.4603C101.212 23.4911 102.533 22.1227 103.566 20.5832C103.796 20.2982 103.911 19.899 104.198 19.671C104.599 19.3859 105.116 18.9298 105.518 19.0438C105.92 19.1008 106.264 19.728 106.437 20.1271C106.609 20.4692 106.551 20.9824 106.666 21.3815C107.298 23.6051 108.79 24.6884 111.029 24.4603C112.063 24.3463 113.039 23.9472 114.072 23.6051C114.474 23.4911 114.818 23.206 115.22 23.0349C115.794 22.7499 116.483 22.6358 116.77 23.206C117 23.5481 116.885 24.2323 116.713 24.6314C116.426 25.3156 115.909 25.8857 115.507 26.5129C114.474 28.1664 113.842 29.9339 113.498 31.8724C113.211 33.3548 113.326 34.8373 113.957 36.2627C114.646 37.8591 114.244 38.6573 112.522 38.9994C111.316 39.2845 110.111 39.4556 108.963 39.8547C105.92 40.881 104.427 43.3897 104.886 46.5826C105.346 49.7755 105.059 50.0035 101.844 49.6614C100.523 49.4904 99.203 49.4904 97.8826 49.5474C95.6436 49.7184 94.6102 50.8588 94.5528 53.0824C94.5528 53.3104 94.5528 53.4815 94.5528 53.7096C94.6677 55.9332 94.3806 56.2753 92.1991 56.1613C89.5008 55.9902 87.3767 57.1875 85.31 58.727C83.9321 58.841 82.5543 59.0121 81.1765 59.1261C76.1819 59.5822 71.3595 60.5515 66.8816 62.7751C67.2835 61.4067 67.7427 60.0954 68.1446 58.727C68.6039 58.3849 69.0631 58.0428 69.5224 57.6437C71.5317 55.7621 73.5411 53.8806 75.6652 51.9421C77.7893 52.2271 79.7987 52.4552 81.8654 52.7973C82.7839 52.9113 83.5877 53.3104 84.5062 53.4245C85.1377 53.5385 85.8266 53.4245 86.0563 52.6263C86.2285 51.9421 85.8266 51.4859 85.1951 51.3149C84.4488 51.0298 83.7025 50.8017 82.8988 50.6307C81.4635 50.2886 80.0283 50.0035 78.2486 49.6614C80.6024 47.8369 82.7265 46.1834 84.8507 44.587C85.31 44.2449 85.9415 44.0738 86.5155 44.0168C89.6156 43.6747 92.7731 43.6177 95.8732 44.0739C97.0214 44.2449 97.3085 44.0738 97.8826 42.5914C95.5288 40.8809 92.7157 41.7362 90.0175 41.223C90.362 40.938 90.5916 40.6529 90.9361 40.4818C93.1176 39.1705 95.2417 37.8021 97.4807 36.6047C100.122 35.1793 102.877 33.925 105.575 32.5566C106.207 32.2715 106.724 31.8724 107.24 31.5303C107.011 29.9909 106.322 29.5918 105.059 30.219C101.672 31.8724 98.2844 33.4689 94.9547 35.2364C89.2712 38.2012 83.8173 41.7362 78.7653 45.8984C75.493 48.6351 72.3355 51.4859 69.1206 54.2797Z" fill="#156751"/>
<path d="M54.4239 35.008C52.472 38.372 50.2904 41.6789 49.1422 45.499C48.3959 47.8937 47.8792 50.4024 47.3051 52.8541C47.1903 52.455 47.0181 52.0558 46.9033 51.6567C45.9847 48.0077 45.0088 44.4157 44.1476 40.7667C44.0328 40.3105 44.1476 39.7974 44.205 39.3413C44.8939 36.1484 46.1569 33.2976 48.7978 31.188C49.6589 30.5038 49.6015 30.1047 48.7404 28.9643C45.4106 29.7626 44.4921 32.8414 42.8846 35.3501C42.7698 35.1791 42.655 35.1221 42.655 35.008C41.2772 30.6178 39.7271 26.2846 37.89 22.0654C36.5122 18.8725 35.1918 15.6226 33.7565 12.4867C33.3547 11.6885 33.0676 10.4911 31.6898 10.5482C30.8861 11.0613 30.8287 11.7455 31.1731 12.6007C32.6084 15.6796 33.9862 18.7015 35.364 21.7803C35.7085 22.6356 35.9381 23.5478 36.2826 24.6311C34.0436 24.061 32.1491 22.0654 30.1398 24.175C30.4268 25.1443 31.0583 25.3153 31.7472 25.5434C33.0676 25.9995 34.388 26.4556 35.5936 27.0828C37.0863 27.9381 38.2345 29.0784 38.6937 30.9029C39.6123 34.4949 40.7031 38.0299 41.7364 41.6219C42.5976 44.5867 43.4013 47.5516 44.205 50.5164C44.2624 50.6875 44.1476 50.9155 44.1476 51.1436C41.2772 48.4068 38.1196 46.0692 34.8473 43.9025C32.2639 42.1921 29.7953 40.3675 27.3267 38.543C29.6805 35.6922 28.9916 32.1572 25.7767 30.3327C25.1452 29.9906 24.5137 29.7056 23.9396 29.3635C22.7914 28.6793 22.5617 27.71 23.6525 26.9688C25.9489 25.3153 25.6044 22.5215 24.0544 20.64C23.2507 19.6137 22.2173 18.7585 21.2413 17.8462C20.8395 17.5041 20.3802 17.219 20.0357 16.8199C19.4042 16.1357 19.4616 15.5086 20.0932 14.8814C20.495 14.4823 21.0117 14.1402 21.5284 13.8551C24.6285 12.0306 25.3174 9.63591 23.7099 5.58777C23.1932 4.33341 22.5617 3.07906 21.9877 1.82471C21.758 1.25455 21.5284 0.570354 22.1599 0.228258C22.6192 0.000193588 23.3081 0.000193588 23.7673 0.171242C25.6618 0.969466 27.4415 1.93874 29.336 2.67995C32.1491 3.70624 35.0195 4.10535 38.0048 3.53519C39.4401 3.30712 39.9567 3.64922 40.3012 5.01761C40.5882 6.32897 40.7031 7.64034 41.1049 8.8947C41.5642 10.3201 42.1957 11.6315 42.942 12.9428C43.6309 14.2542 44.8365 14.8814 46.3866 14.9384C46.7884 14.9384 47.1329 14.9384 47.4774 14.9954C48.6255 15.1665 49.0274 15.7366 48.8552 16.8769C48.7978 17.2761 48.6829 17.7322 48.5681 18.1313C47.3625 21.8373 49.1996 24.8022 52.2997 26.9118C53.1609 27.4819 54.2516 27.824 55.2276 28.1661C56.1461 28.5082 56.6628 29.0784 56.4906 30.2757C54.4813 31.245 53.5627 32.7844 54.4239 35.008Z" fill="#2A9377"/>
<path d="M66.9391 62.6038C71.4744 60.3802 76.2968 59.4109 81.234 58.9548C82.6118 58.8407 83.9896 58.6697 85.3674 58.5557C89.2713 58.6697 93.1177 58.7837 97.0215 58.8978C98.2845 58.9548 99.6049 58.9548 100.868 59.0118C101.729 59.0688 102.762 58.9548 103.164 60.0381C103.566 61.2354 102.59 61.7486 101.844 62.3187C100.179 63.6301 98.3993 64.8274 96.6771 66.1388C94.1511 68.1344 91.6825 70.1299 89.2139 72.1825C85.7119 75.1473 81.8081 77.428 77.3302 78.5113C76.182 78.2262 74.9764 77.9411 73.8282 77.599C70.3262 76.4587 66.7095 76.0596 63.0353 75.9456C61.4278 74.8623 61.1408 74.9193 59.8203 76.0596C59.3037 75.7745 58.5573 76.3447 58.2129 75.5465C58.4999 75.0903 58.787 74.6342 59.1314 74.1781C60.9685 72.8097 62.2889 71.0422 63.3797 69.1607C64.5279 67.2221 65.5039 65.1695 66.5946 63.174C66.652 62.9459 66.8243 62.7749 66.9391 62.6038Z" fill="#BB331A"/>
<path d="M27.2118 38.4859C29.7378 40.2533 32.149 42.1349 34.7324 43.8454C38.0048 46.012 41.1623 48.3496 44.0327 51.0864C45.0087 52.7969 45.9846 54.4503 46.9606 56.1608C47.018 57.5292 47.1328 58.8976 47.1902 60.209C47.3625 62.6036 47.9366 64.8843 48.7403 67.1649C49.3144 68.7614 49.7737 70.4148 50.2903 72.0113C49.6014 72.2394 48.9125 72.4674 48.2236 72.7525C47.7069 72.2964 47.1902 71.8402 46.6161 71.4981C42.4827 69.0465 37.9474 67.7351 33.2398 66.9369C32.4935 66.8228 31.7472 66.7088 31.0008 66.5948C30.0823 64.5422 29.1063 62.5466 28.36 60.494C27.0396 56.845 25.834 53.196 24.6858 49.4899C23.7673 46.4681 23.021 43.3322 22.2746 40.2533C21.9876 39.056 21.758 37.9157 21.5283 36.8324C22.3895 35.7491 23.1932 35.8061 24.0543 36.3763C25.1451 37.0605 26.1785 37.7446 27.2118 38.4859Z" fill="#BB331A"/>
<path d="M44.894 85.5811C44.6644 85.9802 44.4921 86.4363 44.1477 86.7214C41.1624 89.5722 38.9809 92.9361 37.2012 96.6422C36.9141 97.3264 36.7419 98.0106 36.5123 98.6947C36.34 98.8088 36.1104 98.8658 35.9382 98.9798C31.0584 102.059 25.7193 103.94 20.208 105.537C17.2802 106.392 14.4097 107.304 11.4244 108.102C9.93179 108.502 8.32434 108.673 6.77429 108.958C6.60206 108.444 6.37242 107.988 6.2002 107.475C9.93179 100.861 13.9504 94.4185 19.634 89.2301C22.16 86.8924 25.0304 85.1249 28.3602 84.0986C31.1158 84.4407 33.8714 84.8398 36.6845 85.1249C39.3253 85.353 41.9087 85.7521 44.5496 85.1249C44.7218 85.239 44.8366 85.41 44.894 85.5811Z" fill="#BB331A"/>
<path d="M68.03 120.019C65.1021 117.681 61.9446 115.458 59.7631 112.322C58.3279 110.326 57.2371 108.046 56.0315 105.936C56.2037 104.682 56.3185 103.427 56.4908 102.173C57.0649 98.8661 56.95 95.5591 56.663 92.2522C56.6056 91.8531 56.4334 91.454 56.3185 91.0549C56.6056 90.4277 56.8926 89.8005 57.1223 89.1733C59.0168 90.3707 60.7965 91.6821 62.7484 92.7083C64.5855 93.6776 66.5948 94.2478 68.4893 95.046C69.0634 95.2741 69.6375 95.5021 70.2116 95.7872C73.5987 102.059 75.4358 108.844 76.5266 115.857C76.871 118.137 77.2155 120.475 77.5599 122.756C77.6174 123.041 77.6748 123.269 77.6748 123.554C77.6748 125.036 76.7562 125.778 75.3784 125.15C74.4024 124.694 73.5413 124.124 72.6227 123.497C71.3023 122.585 70.0393 121.615 68.7189 120.703C68.5467 120.475 68.3171 120.247 68.03 120.019Z" fill="#BB331A"/>
<path d="M68.0298 120.019C68.2594 120.247 68.5465 120.418 68.7761 120.646C68.6039 120.703 68.4891 120.76 68.3168 120.76C68.2594 120.532 68.1446 120.304 68.0298 120.019Z" fill="#FDD1A9"/>
<path d="M35.9956 98.9804C36.1678 98.8664 36.3975 98.8093 36.5697 98.6953C36.4549 98.9234 36.3401 99.2085 36.2252 99.4365C36.1104 99.3225 36.053 99.1514 35.9956 98.9804Z" fill="#FDD1A9"/>
<path d="M69.1207 54.2794C72.3356 51.4856 75.4931 48.6348 78.7654 45.898C83.8174 41.6789 89.2713 38.2009 95.0696 35.122C98.3994 33.3545 101.786 31.7581 105.174 30.1046C106.379 29.4774 107.068 29.8765 107.355 31.416C106.839 31.7581 106.264 32.1572 105.69 32.4423C102.992 33.8106 100.236 35.065 97.5956 36.4904C95.3567 37.6877 93.2325 39.0561 91.051 40.3675C90.7639 40.5385 90.5343 40.8236 90.1324 41.1087C92.8307 41.6218 95.7011 40.7666 97.9975 42.4771C97.4234 43.9595 97.1364 44.1305 95.9882 43.9595C92.8881 43.5034 89.7306 43.5604 86.6305 43.9025C86.0564 43.9595 85.4249 44.1305 84.9656 44.4726C82.8415 46.0691 80.7747 47.7226 78.3635 49.5471C80.1432 49.9462 81.5785 50.1742 83.0137 50.5163C83.8174 50.6874 84.5637 50.9155 85.3101 51.2005C85.8842 51.4286 86.3434 51.8277 86.1712 52.5119C85.999 53.3101 85.2526 53.4242 84.6211 53.3101C83.7026 53.1391 82.8989 52.797 81.9803 52.6829C79.9136 52.3409 77.8469 52.1128 75.7801 51.8277C73.656 53.7663 71.6467 55.6478 69.6373 57.5293C69.2355 57.9284 68.7188 58.2705 68.2595 58.6126C68.5466 57.1302 68.8336 55.7048 69.1207 54.2794Z" fill="#51BA8F"/>
<path d="M46.9609 56.1037C45.9849 54.3932 45.009 52.7398 44.033 51.0293C44.033 50.8012 44.1478 50.6302 44.0904 50.4021C43.2867 47.4373 42.483 44.4724 41.6218 41.5076C40.5884 37.9156 39.4977 34.3806 38.5791 30.7886C38.1198 28.9641 36.9717 27.7667 35.479 26.9685C34.2734 26.2843 32.953 25.8282 31.6326 25.4291C30.9437 25.201 30.3122 25.03 30.0251 24.0607C32.0345 22.0081 33.929 23.9467 36.1679 24.5168C35.8235 23.3765 35.5938 22.4642 35.2494 21.666C33.8716 18.5871 32.4363 15.5083 31.0585 12.4864C30.6566 11.6312 30.7141 10.947 31.5752 10.4338C32.953 10.3198 33.2401 11.5172 33.6419 12.3724C35.0772 15.5083 36.3976 18.7582 37.7754 21.9511C39.6125 26.1703 41.2199 30.5035 42.5404 34.8937C42.5404 35.0078 42.6552 35.0648 42.77 35.2358C44.3775 32.7841 45.296 29.6483 48.6257 28.85C49.4869 29.9904 49.5443 30.3895 48.6831 31.0737C46.0423 33.1833 44.7793 36.0341 44.0904 39.227C43.9756 39.6831 43.9182 40.1962 44.033 40.6524C44.9515 44.3014 45.8701 47.9504 46.7886 51.5424C46.9035 51.9415 47.0757 52.3406 47.1905 52.7398C47.1905 53.9371 47.0757 55.0204 46.9609 56.1037Z" fill="#52BC90"/>
<path d="M51.4386 119.05C51.3238 121.444 52.8738 123.098 54.1369 124.808C55.1702 126.234 56.548 127.374 57.7536 128.629C57.8684 128.743 57.9833 128.857 58.0981 128.971C58.6148 129.541 59.0166 130.168 58.4425 130.795C57.9259 131.422 57.1221 131.308 56.6054 130.795C55.3999 129.655 54.1943 128.514 53.1035 127.317C52.2423 126.348 51.496 125.208 50.5201 123.896C50.0608 125.721 49.7163 127.26 49.3145 128.8C47.3052 136.497 45.5255 144.251 42.7698 151.72C42.1957 153.202 41.5068 153.373 40.0716 152.176C41.1624 148.755 42.2531 145.22 43.3439 141.742C43.2291 141.628 43.1143 141.571 42.9995 141.457C42.0235 141.913 41.0476 142.369 40.0716 142.768C39.1531 143.168 38.2345 143.567 37.2585 143.909C36.627 144.137 35.9381 144.308 35.6511 143.453C35.364 142.654 35.7659 142.141 36.4548 141.799C37.9475 141.115 39.4401 140.431 40.9327 139.747C41.6216 139.405 42.368 139.062 43.0569 138.663C43.918 138.15 44.4347 137.523 44.6643 136.497C45.3532 133.475 46.2144 130.453 46.9607 127.431C47.0755 127.089 47.0181 126.69 47.0181 126.348C48.3385 124.067 49.6015 121.73 50.9219 119.449C51.0368 119.278 51.2664 119.164 51.4386 119.05Z" fill="#51BA8F"/>
<path d="M57.1795 89.1733C56.8925 89.8004 56.6054 90.4276 56.3758 91.0548C55.6869 91.5109 55.0554 92.1951 54.3091 92.4232C52.3571 93.1074 50.9793 92.3091 50.4052 90.3136C49.6015 87.6908 50.9219 85.4102 53.5627 84.9541C55.5721 84.612 57.2943 86.0374 57.2943 88.0899C57.2369 88.432 57.1795 88.7741 57.1795 89.1733Z" fill="#FDD1A9"/>
<path d="M48.2238 72.6958C48.9127 72.4677 49.6016 72.2397 50.2905 71.9546C51.8405 72.2967 53.0461 73.0379 53.2758 74.8054C53.5054 76.4018 51.9554 78.7395 50.4627 79.1386C48.5682 79.5947 46.8459 77.9413 46.9608 75.6606C46.9608 74.5203 47.4774 73.551 48.2238 72.6958Z" fill="#FDD1A9"/>
<path d="M59.5334 79.5377C59.5908 79.8228 59.7056 80.1649 59.763 80.45C60.1075 82.2745 59.3038 83.6429 57.5241 84.042C55.9166 84.4411 54.2518 83.4718 53.7925 81.8754C53.3332 80.3359 53.7351 78.9105 54.9407 77.8272C56.3185 76.5159 58.3852 76.915 59.189 78.6825C59.3612 78.9105 59.4186 79.2526 59.5334 79.5377Z" fill="#FDD1A9"/>
<path d="M44.8941 85.5812C44.7792 85.4101 44.6644 85.2391 44.607 85.068C44.1477 82.7874 44.8367 81.419 46.6738 80.6778C48.9701 79.7655 50.1183 81.362 50.0609 83.4146C49.9461 85.6952 46.7312 87.4057 44.8941 85.5812Z" fill="#FDD1A9"/>
<path d="M59.8202 76.0024C61.1981 74.8621 61.4277 74.8621 63.0352 75.8883C63.6667 76.9146 64.2407 77.9979 64.1259 79.2523C64.0111 80.4496 63.5518 81.1908 62.6333 81.4189C61.7147 81.647 60.8536 81.1908 60.3369 80.1075C59.7054 78.8532 59.4184 77.4848 59.8202 76.0024Z" fill="#FDD1A9"/>
<path d="M41.5644 79.4805C41.0477 77.827 41.7366 76.2305 43.1144 75.8314C44.3774 75.4323 45.5256 76.0595 45.8701 77.2568C46.2719 78.7392 45.4108 80.7348 44.1478 81.1339C42.9996 81.476 41.9662 80.8488 41.5644 79.4805Z" fill="#FDD1A9"/>
<path d="M59.0741 74.178C58.787 74.6341 58.5 75.0902 58.1555 75.5464C57.1222 75.8885 56.0888 76.1735 55.2276 75.1472C54.4239 74.178 54.1369 73.0947 54.5387 71.8973C54.998 70.4149 56.4332 69.9588 57.6962 70.814C58.9592 71.6123 59.0741 72.8666 59.0741 74.178Z" fill="#FDD1A9"/>
<path d="M44.033 91.6252C43.4589 89.8577 43.8608 88.6604 45.0664 88.2612C46.3868 87.8621 47.6498 88.7174 48.109 90.2568C48.1664 90.4849 48.2813 90.77 48.2813 90.998C48.3961 92.1383 47.7646 93.1076 46.846 93.3357C45.9849 93.5637 44.7219 92.9936 44.2626 92.1383C44.1478 92.0243 44.0904 91.7392 44.033 91.6252Z" fill="#FDD1A9"/>
<path d="M63.6669 85.1253C64.1262 86.6647 63.4946 88.1471 62.1168 88.6603C60.7964 89.1164 59.5908 88.3752 59.5908 86.9498C59.5908 85.6954 60.1649 84.6692 61.1409 83.985C62.1742 83.1867 63.2076 83.7569 63.6669 85.1253Z" fill="#FDD1A9"/>
<path d="M51.611 118.366C51.5535 118.594 51.4961 118.822 51.4387 119.107C51.4961 118.822 51.5535 118.594 51.611 118.366Z" fill="#51BA8F"/>
<path d="M51.7831 117.909C51.7257 118.08 51.6682 118.194 51.6108 118.365C51.6682 118.251 51.7257 118.08 51.7831 117.909Z" fill="#51BA8F"/>
</g>
<defs>
<clipPath id="clip0">
<rect width="117" height="167" fill="white"/>
</clipPath>
</defs>
</svg>
