<svg width="83" height="374" viewBox="0 0 83 374" fill="none" xmlns="http://www.w3.org/2000/svg">
<path d="M82.5248 207.889C82.4757 207.743 82.4757 207.645 82.4266 207.498C82.034 205.59 81.7886 203.633 81.7886 201.676C81.445 199.621 81.1014 197.566 80.7088 195.56C79.8744 191.254 78.9419 186.949 77.9602 182.692C76.6841 177.261 75.408 171.781 73.9846 166.4C72.414 160.43 70.6962 154.559 69.0274 148.639C67.2605 142.425 65.4935 136.163 63.6775 129.949C62.5487 126.133 61.3707 122.366 60.2418 118.598C58.6712 113.314 57.1497 108.079 55.6282 102.795C54.1557 97.6087 52.6833 92.4224 51.3581 87.2362C50.6709 84.4963 50.2783 81.6586 49.7875 78.8208C49.5421 77.353 49.1494 77.0106 47.7261 77.3041C47.1862 77.402 46.6463 77.4509 46.1064 77.4509C42.867 77.4509 39.6767 77.4998 36.4373 77.4509C34.8667 77.402 33.5415 77.9402 32.2163 78.6251C31.5783 78.9676 31.2347 79.5547 31.0875 80.3376C29.7623 87.6766 27.8972 94.9177 25.4922 102.012C24.2651 105.584 22.7436 109.106 21.4675 112.678C19.6515 117.571 17.8845 122.512 16.1667 127.454C14.3016 132.934 12.3874 138.365 10.6696 143.893C8.2155 151.77 5.85959 159.648 4.2399 167.721C3.35643 172.271 2.57113 176.87 1.88399 181.469C1.54042 183.866 1.39317 186.264 1.14777 188.661C1.00052 190.227 0.951441 191.841 0.804197 193.407C0.804197 193.456 0.804196 193.505 0.755114 193.554C0.755114 194.532 0.656952 195.511 0.460627 196.538C0.460627 197.272 0.460626 198.006 0.362463 198.691C0.411545 199.816 0.362463 200.991 0.166138 202.165C0.215219 208.428 0.411545 215.864 1.09869 221.148C1.5895 225.209 1.93307 229.319 2.52205 233.38C3.01286 236.903 3.79817 240.377 4.48531 243.85C5.46693 248.694 6.39948 253.538 7.47927 258.333C8.16641 261.366 9.04988 264.4 9.93335 267.384C11.2095 271.885 12.4856 276.387 13.8599 280.839C15.4795 286.025 17.3446 291.162 18.9152 296.398C21.9092 306.232 25.5903 315.87 27.799 325.9C29.1242 332.065 30.4494 338.23 31.7746 344.395C33.198 351.098 34.5722 357.801 36.0938 364.455C36.6337 366.754 37.6153 368.907 38.4497 371.109C38.5969 371.549 38.9405 371.989 39.284 372.332C40.8056 373.8 42.8179 373.555 43.5051 371.745C44.2413 369.739 44.8793 367.684 45.3702 365.629C46.3027 361.666 47.1862 357.703 48.0205 353.74C48.8549 349.777 49.493 345.765 50.3765 341.802C51.7017 335.784 53.1741 329.863 54.5484 323.846C55.6282 319.197 57.1497 314.647 58.6712 310.097C61.2725 302.367 63.4812 294.538 66.0825 286.808C69.1256 277.659 72.5613 268.656 75.4571 259.458C77.6167 252.559 79.3836 245.514 80.9051 238.42C81.9358 233.576 82.7211 228.585 82.7211 223.595C82.7211 219.827 82.9175 216.011 82.9665 212.244C82.623 210.874 82.4757 209.406 82.5248 207.889Z" fill="#FFE0BF"/>
<path d="M10.4733 178.876C9.24624 178.876 8.31369 179.854 8.31369 181.126C8.26461 182.496 9.29532 183.671 10.5714 183.72C11.8476 183.72 12.8292 182.692 12.8292 181.371C12.8292 179.952 11.7494 178.827 10.4733 178.876Z" fill="#372F2C"/>
<path d="M19.7988 189.101C18.6209 189.101 17.5411 190.178 17.492 191.45C17.4429 192.673 18.4245 193.554 19.897 193.554C21.124 193.603 22.1057 192.624 22.1057 191.401C22.1057 190.129 21.0749 189.101 19.7988 189.101Z" fill="#372F2C"/>
<path d="M48.266 215.669C47.0881 215.62 46.1555 216.647 46.1555 217.919C46.1555 219.191 47.1862 220.268 48.4133 220.268C49.6403 220.317 50.5238 219.338 50.5238 218.017C50.5238 216.745 49.5422 215.718 48.266 215.669Z" fill="#372F2C"/>
<path d="M38.3024 207.204C37.1735 207.253 36.241 208.183 36.241 209.357C36.241 210.629 37.2717 211.706 38.4987 211.706C39.6767 211.706 40.6583 210.678 40.6583 209.455C40.6583 208.183 39.5785 207.155 38.3024 207.204Z" fill="#372F2C"/>
<path d="M29.1733 198.691C28.0444 198.691 26.9646 199.719 26.9156 200.893C26.8665 202.116 27.9463 203.095 29.2715 203.095C30.5967 203.095 31.4801 202.214 31.4801 200.942C31.5292 199.67 30.4985 198.74 29.1733 198.691Z" fill="#372F2C"/>
<path d="M36.9772 310.733C35.8483 310.782 34.9158 311.712 35.0139 312.739C35.1121 314.109 36.1919 315.283 37.4189 315.234C38.5478 315.185 39.4313 314.207 39.3331 312.984C39.2349 311.663 38.2533 310.684 36.9772 310.733Z" fill="#372F2C"/>
<path d="M68.4875 230.983C67.3095 231.032 66.2788 232.108 66.2788 233.233C66.3279 234.456 67.4568 235.582 68.5856 235.533C69.7636 235.484 70.6961 234.456 70.647 233.233C70.598 231.961 69.6163 230.934 68.4875 230.983Z" fill="#372F2C"/>
<path d="M28.4861 302.513C27.4063 302.465 26.2775 303.639 26.2284 304.862C26.1793 306.134 26.9646 306.966 28.1916 307.015C29.4677 307.015 30.3512 306.134 30.3512 304.862C30.3512 303.639 29.5168 302.611 28.4861 302.513Z" fill="#372F2C"/>
<path d="M58.3277 223.35C57.1497 223.301 56.2172 224.231 56.1681 225.405C56.1681 226.53 57.0025 227.362 58.1804 227.411C59.3584 227.411 60.2909 226.481 60.2419 225.307C60.1928 224.28 59.3584 223.399 58.3277 223.35Z" fill="#372F2C"/>
<path d="M45.7629 317.289C44.7322 317.387 44.1432 318.17 44.1432 319.246C44.1923 320.421 45.0757 321.301 46.1555 321.203C47.1862 321.155 48.0206 320.274 47.9715 319.246C47.9225 318.121 46.8918 317.191 45.7629 317.289Z" fill="#372F2C"/>
<path d="M50.4747 98.734C49.493 98.6851 48.855 99.37 48.8059 100.397C48.7568 101.474 49.5912 102.355 50.6219 102.355C51.6526 102.355 52.4379 101.572 52.4379 100.593C52.4379 99.5168 51.6035 98.734 50.4747 98.734Z" fill="#372F2C"/>
<path d="M35.8483 89.1933C35.8483 88.1169 35.1612 87.383 34.1796 87.383C33.247 87.383 32.3636 88.2148 32.3145 89.1444C32.2654 90.025 33.1979 90.9546 34.0814 90.9546C35.063 90.9546 35.8483 90.1718 35.8483 89.1933Z" fill="#372F2C"/>
<path d="M42.229 93.0585C41.2473 93.0585 40.462 93.7924 40.462 94.8199C40.462 95.7984 41.1983 96.5323 42.0817 96.5323C43.0143 96.4834 43.7996 95.6516 43.7996 94.6731C43.7505 93.7924 43.0634 93.1074 42.229 93.0585Z" fill="#372F2C"/>
<path d="M31.3329 316.262C28.6334 313.913 26.1302 311.271 23.7252 308.629C23.2344 308.14 22.7927 307.602 22.351 307.064C24.0688 312.348 25.7867 317.632 27.1119 323.063C27.1609 323.112 27.21 323.112 27.21 323.16C27.3082 323.699 27.5045 324.188 27.4554 324.677C27.5536 325.069 27.6517 325.46 27.7499 325.9C28.8297 330.744 29.8604 335.588 30.8911 340.383C34.9649 344.15 39.0877 347.917 43.2106 351.587C44.5848 352.81 46.1554 353.838 47.726 354.914C47.8242 354.523 47.9224 354.131 47.9715 353.74C48.8058 349.777 49.4439 345.765 50.3274 341.802C50.9654 339.013 51.6035 336.175 52.2906 333.386C49.8856 331.527 47.4316 329.619 45.0756 327.711C40.4129 323.992 35.8483 320.176 31.3329 316.262Z" fill="#FFA194"/>
<path d="M65.9843 241.649C61.567 238.126 57.1988 234.652 52.8305 231.081C48.5604 227.607 44.2903 224.035 40.1184 220.463C36.4373 217.332 32.7071 214.152 29.1242 210.874C23.8725 206.079 18.5717 201.284 13.5163 196.294C9.39345 192.184 5.46693 187.878 1.5895 183.524C1.39317 185.187 1.29501 186.9 1.14777 188.612C1.00052 190.178 0.951441 191.792 0.804197 193.358C0.804197 193.407 0.804196 193.456 0.755114 193.505C0.755114 194.483 0.656952 195.462 0.460626 196.489C0.460626 197.223 0.460626 197.957 0.362463 198.642C0.411545 199.768 0.362463 200.942 0.166138 202.116C0.166138 203.339 0.166138 204.611 0.215219 205.883C3.30735 209.308 6.39948 212.733 9.54069 216.06C12.6328 219.338 15.9213 222.323 19.1607 225.454C21.6638 227.851 24.216 230.249 26.7683 232.646C27.9462 233.723 29.1242 234.799 30.3512 235.875C35.014 239.936 39.7258 243.997 44.4376 247.96C47.9224 250.945 51.5053 253.783 55.0392 256.718C58.4749 259.556 61.9106 262.443 65.3954 265.231C67.5549 266.944 69.7145 268.607 71.8741 270.271C73.1011 266.699 74.3282 263.176 75.4571 259.556C76.3405 256.767 77.1258 253.929 77.9111 251.092C73.9355 247.862 69.9109 244.78 65.9843 241.649Z" fill="#FFA194"/>
<path d="M51.3581 137.386C55.9227 141.251 60.6836 144.823 65.4445 148.395C66.917 149.471 68.4385 150.547 69.9109 151.673C69.6164 150.645 69.3219 149.618 69.0275 148.59C67.2605 142.377 65.4936 136.114 63.6776 129.9C62.7941 126.867 61.8616 123.882 60.929 120.849C54.5484 116.152 48.266 111.357 41.9836 106.513C37.1245 102.795 32.1673 99.0765 27.6027 95.0156C26.9156 97.3151 26.2284 99.6147 25.4431 101.914C24.4124 104.899 23.1854 107.834 22.0565 110.819C25.0505 113.754 27.9954 116.739 31.0875 119.528C37.7135 125.595 44.4867 131.564 51.3581 137.386Z" fill="#FFA194"/>
<path d="M82.5248 207.889C82.4757 207.743 82.4757 207.645 82.4266 207.498C82.034 205.59 81.7886 203.633 81.7886 201.676C81.445 199.621 81.1014 197.566 80.7088 195.56C80.1198 192.722 79.5308 189.835 78.8928 186.998C74.1319 183.328 69.3219 179.708 64.6591 175.94C58.0822 170.705 51.7016 165.225 45.321 159.746C38.1552 153.483 31.0383 147.171 24.0197 140.713C20.8294 137.777 17.6882 134.744 14.5961 131.759C13.2218 135.771 11.8475 139.783 10.6205 143.844C8.46088 150.743 6.39946 157.74 4.82886 164.785C8.75537 169.042 12.6328 173.298 16.7066 177.457C22.3509 183.23 28.2898 188.71 34.2777 194.141C39.873 199.278 45.5665 204.269 51.3581 209.161C61.0762 217.381 71.4815 224.671 82.1321 231.619C82.4757 229.026 82.7211 226.384 82.7211 223.693C82.7211 219.925 82.9174 216.109 82.9665 212.342C82.623 210.874 82.4757 209.406 82.5248 207.889Z" fill="#FC9C47"/>
<path d="M34.6213 264.253C27.2591 257.061 20.1913 249.575 12.9764 242.236C9.39343 238.566 5.81048 234.897 2.22754 231.227C2.3257 231.912 2.42387 232.597 2.52203 233.282C3.01284 236.805 3.79815 240.279 4.48529 243.753C5.46692 248.596 6.39946 253.44 7.47925 258.235C8.16639 261.268 9.04986 264.302 9.93333 267.286C10.915 270.809 11.9457 274.283 12.9764 277.805C19.7987 285.291 26.9646 292.435 34.3759 299.333C41.3455 305.84 48.6586 312.054 56.0699 318.023C56.8552 315.332 57.7387 312.69 58.6221 310.048C60.7326 303.786 62.5977 297.425 64.6101 291.162C61.3707 288.618 58.1804 286.025 55.0883 283.334C48.1187 277.218 41.2964 270.809 34.6213 264.253Z" fill="#FC9C47"/>
<path d="M47.3825 226.188C39.1859 219.436 31.0384 212.586 23.3817 205.247C17.3447 199.425 11.2586 193.603 5.46698 187.487C4.19087 186.117 2.86567 184.747 1.58955 183.377C1.44231 184.796 1.34414 186.215 1.1969 187.634C4.73076 191.352 8.31371 195.022 11.9457 198.593C19.5043 205.981 27.1119 213.32 35.2103 220.121C44.2904 227.754 53.4686 235.19 62.6959 242.676C67.3587 246.444 72.1686 249.966 76.9296 253.587C76.9786 253.636 77.0768 253.685 77.175 253.734C77.4694 252.706 77.7149 251.679 78.0093 250.651C75.6534 248.988 73.2975 247.324 71.0889 245.563C63.1377 239.105 55.2846 232.646 47.3825 226.188Z" fill="#F8543C"/>
<path d="M46.0083 112.433C51.1619 116.348 56.5117 120.017 61.7635 123.784L61.8125 123.833C61.3217 122.268 60.8309 120.702 60.3892 119.136C49.1005 111.308 38.6461 102.452 27.8973 93.9391C27.6028 95.0645 27.2592 96.1409 26.9647 97.2662C27.9954 98.0979 29.0261 98.9297 30.0569 99.7125C35.4558 103.822 40.5603 108.275 46.0083 112.433Z" fill="#F8543C"/>
<path d="M22.9399 308.825C23.578 310.733 24.167 312.69 24.805 314.598C33.3943 322.231 42.3271 329.423 51.7017 336.028C51.9471 334.952 52.1925 333.924 52.4379 332.848C48.4623 329.863 44.4376 326.928 40.6093 323.797C34.5722 319.002 28.6825 314.011 22.9399 308.825Z" fill="#F8543C"/>
<path d="M18.9644 234.114C17.7864 234.065 16.4122 235.582 16.4612 236.952C16.4612 238.126 17.541 239.153 18.719 239.153C19.9951 239.153 21.0749 238.028 21.0749 236.658C21.124 235.288 20.1423 234.163 18.9644 234.114Z" fill="#F8543C"/>
<path d="M39.0387 253.391C37.8116 253.391 36.5355 254.516 36.4374 255.691C36.3883 257.061 37.2718 257.99 38.597 258.039C40.0694 258.088 41.1492 257.061 41.1492 255.642C41.1492 254.468 40.1676 253.44 39.0387 253.391Z" fill="#F8543C"/>
<path d="M29.3205 244.878C27.9953 244.927 27.1118 245.759 27.0628 246.982C27.0137 248.401 28.0935 249.526 29.5168 249.526C30.842 249.526 31.7255 248.596 31.7255 247.177C31.7255 245.856 30.7439 244.878 29.3205 244.878Z" fill="#F8543C"/>
<path d="M9.0499 224.524C7.77379 224.524 6.79216 225.699 6.84124 227.117C6.89032 228.341 7.82287 229.27 8.95174 229.172C10.2279 229.123 11.4058 227.9 11.3567 226.677C11.3077 225.552 10.2279 224.524 9.0499 224.524Z" fill="#F8543C"/>
<path d="M49.7876 263.617C48.5114 263.617 47.4317 264.693 47.3826 265.867C47.3826 267.14 48.5114 268.314 49.7876 268.314C50.9164 268.314 51.7999 267.237 51.849 265.916C51.8981 264.644 51.0146 263.617 49.7876 263.617Z" fill="#F8543C"/>
<path d="M59.2603 272.228C58.1805 272.228 57.1498 273.255 57.1498 274.381C57.1498 275.555 58.1805 276.68 59.2603 276.729C60.3891 276.729 61.3217 275.702 61.3217 274.381C61.3217 273.206 60.3891 272.228 59.2603 272.228Z" fill="#F8543C"/>
<path d="M69.371 165.225C68.0949 165.274 67.3096 166.008 67.3096 167.133C67.3587 168.259 68.2421 169.139 69.3219 169.042C70.4508 168.993 71.2852 168.112 71.2852 166.987C71.2852 165.861 70.4999 165.176 69.371 165.225Z" fill="#F8543C"/>
<path d="M59.702 158.424C58.5732 158.376 57.5915 159.207 57.5425 160.235C57.4934 161.36 58.2787 162.29 59.4076 162.29C60.5364 162.339 61.3708 161.556 61.469 160.382C61.5181 159.256 60.8309 158.473 59.702 158.424Z" fill="#F8543C"/>
<path d="M39.7258 142.083C38.6951 142.034 37.8116 142.915 37.7626 144.089C37.7135 145.214 38.4497 145.997 39.5295 145.997C40.6093 146.046 41.4928 145.165 41.4928 143.991C41.5419 142.964 40.7565 142.083 39.7258 142.083Z" fill="#F8543C"/>
<path d="M49.3458 150.107C48.3151 150.156 47.4316 151.037 47.4316 152.015C47.4316 152.994 48.3642 153.825 49.3949 153.825C50.4747 153.825 51.3091 152.945 51.3091 151.966C51.26 150.939 50.3274 150.107 49.3458 150.107Z" fill="#F8543C"/>
<path d="M20.0442 123.931C18.9153 123.931 17.9828 124.91 18.0319 126.084C18.081 127.111 18.7681 127.796 19.8479 127.796C21.0258 127.796 21.9093 126.867 21.8602 125.693C21.8112 124.665 21.0749 123.931 20.0442 123.931Z" fill="#F8543C"/>
<path d="M30.5967 133.423C29.566 133.423 28.7806 134.108 28.7316 135.086C28.6825 136.114 29.566 136.995 30.5967 136.995C31.5783 136.995 32.3145 136.212 32.3636 135.184C32.3636 134.157 31.6274 133.423 30.5967 133.423Z" fill="#F8543C"/>
<path d="M29.2224 256.767C22.9891 250.7 17.0502 244.34 11.1114 238.028C7.92107 234.603 4.82894 231.13 1.78589 227.607C1.98221 229.466 2.22762 231.374 2.47303 233.233C9.39351 241.111 16.6085 248.694 24.0198 256.131C30.5967 262.687 37.3699 269.097 44.1432 275.408C50.5238 281.377 57.1007 287.199 63.5794 293.022C63.7267 293.12 63.8248 293.217 63.9721 293.364C64.2666 292.386 64.6101 291.407 64.9046 290.38C63.5303 289.156 62.107 287.982 60.7818 286.71C50.2783 276.729 39.6277 266.846 29.2224 256.767Z" fill="#35837A"/>
<path d="M57.886 173.054C65.0518 178.827 72.365 184.502 79.629 190.178C79.3345 188.71 78.991 187.193 78.6474 185.726C69.4692 178.387 60.2909 171.096 51.2109 163.66C44.4376 158.082 37.8117 152.26 31.2838 146.34C25.7376 141.3 20.2405 136.212 14.7925 131.074C14.3998 132.2 14.0072 133.374 13.6145 134.499C20.8295 141.3 28.1917 147.856 35.5539 154.413C42.7689 160.92 50.3274 166.938 57.886 173.054Z" fill="#35837A"/>
<path d="M28.1917 73.6835C28.388 72.1668 28.6825 70.6501 28.7807 69.0844C28.8788 67.9591 29.4187 67.372 30.5476 67.2741C31.2838 67.1763 32.0691 67.0784 32.6581 67.0295C31.8728 65.366 30.793 63.8003 30.3022 62.039C28.3389 54.7978 32.8544 49.8562 38.597 48.2417C40.2166 47.8013 42.0327 47.7035 43.7014 47.8992C46.5482 48.2417 48.7077 49.7584 50.0329 52.4494C51.4072 55.2382 51.849 58.1249 51.5545 61.1583C51.4072 62.9686 50.671 64.5832 49.3458 65.8553C48.8059 66.3935 48.266 66.9317 47.5789 67.5677C49.0022 67.7145 50.2293 67.8613 51.5054 68.008C52.8797 68.2037 53.1742 68.4973 53.2723 69.9162C53.3705 71.5308 53.5177 73.0964 53.6159 74.711C53.6159 76.9127 53.4196 82.3435 53.3705 82.8328C53.076 84.692 52.5361 85.5238 50.671 85.6216C49.0513 85.7195 47.4316 85.4259 46.3027 84.3985C44.8794 84.8877 44.2413 85.5238 42.2781 85.7195C41.5909 85.8173 40.9038 85.8663 40.2657 85.7195C38.1552 85.377 37.6644 84.4963 36.2901 83.8603C34.0324 86.2577 29.6641 86.698 28.0935 83.7135C28.0445 83.6646 28.0445 82.9796 27.9463 82.9796C27.9463 81.5607 27.9463 80.0929 27.9463 78.674C27.9954 77.0105 28.0935 75.347 28.1917 73.6835ZM48.9041 58.8098C49.0022 57.0485 48.3642 55.0914 47.3335 53.2322C46.6463 51.9601 45.6647 51.1773 44.3395 50.7859C41.051 49.9052 38.1061 50.688 35.5048 52.7918C32.8544 54.9446 31.7746 57.5377 32.9035 61.6965C33.787 65.1214 36.2411 66.8827 39.9222 67.2741C44.5358 67.7145 48.9531 63.7514 48.9041 58.8098Z" fill="#D23D27"/>
<path d="M45.9102 3.71843C45.9102 6.84973 43.2598 8.8068 40.4621 7.63256C39.775 7.339 39.0879 6.65403 38.7934 5.96905C37.8608 3.96306 39.9222 0.391416 42.1309 0.0489292C44.2905 -0.293557 45.9102 1.22317 45.9102 3.71843Z" fill="#FFE0BF"/>
<path d="M45.5665 23.1912C45.5665 25.4419 44.045 26.9097 41.8363 26.9097C39.824 26.9097 38.5479 25.5887 38.5969 23.5337C38.5969 21.5767 40.5602 19.6196 42.5235 19.6196C44.2904 19.6196 45.5665 21.1363 45.5665 23.1912Z" fill="#FFE0BF"/>
<path d="M44.9285 31.9491C44.9285 33.4658 44.5358 34.7869 43.1125 35.6186C41.64 36.4504 40.4621 36.4504 39.4314 35.5697C38.2534 34.5911 38.008 33.2212 38.3516 31.8023C38.8915 29.5517 40.9529 28.3775 43.2106 28.9646C44.4377 29.2581 44.9285 30.041 44.9285 31.9491Z" fill="#FFE0BF"/>
<path d="M45.9101 13.1613C46.3028 15.363 43.8487 16.9776 42.3762 17.2711C41.2965 17.4668 39.5786 16.2926 39.2841 15.2651C38.6951 13.2591 39.7749 11.1064 41.7873 10.3725C44.1923 9.34499 45.9101 10.5192 45.9101 13.1613Z" fill="#FFE0BF"/>
<path d="M41.7382 45.1593C39.6768 45.1593 38.597 44.2297 38.597 42.4194C38.5479 40.2666 40.0694 38.5542 42.0327 38.5542C43.8487 38.5053 45.2721 39.8752 45.2721 41.5387C45.223 43.5447 43.6524 45.1593 41.7382 45.1593Z" fill="#FFE0BF"/>
</svg>
