<svg width="88" height="84" viewBox="0 0 88 84" fill="none" xmlns="http://www.w3.org/2000/svg">
<g clip-path="url(#clip0)">
<path d="M14.1595 59.9768C15.7884 59.6494 17.3723 59.3082 19.0012 58.9808C19.4162 58.9136 19.8312 58.8464 20.2462 58.7792C21.8127 58.3348 23.393 57.8457 24.9595 57.4013C25.0633 57.3845 25.1844 57.4709 25.2744 57.4987C27.5498 56.8335 29.8389 56.1238 32.1143 55.4586C33.8398 54.819 35.5964 54.2378 37.3218 53.5982C40.2401 52.4475 43.1583 51.2968 46.0904 50.1015C47.916 49.2973 49.6965 48.4792 51.5221 47.675C53.6691 46.6281 55.8161 45.5811 57.9943 44.5927C58.4507 44.3916 58.9071 44.1906 59.3635 43.9895C59.4499 43.8696 59.505 43.6911 59.6226 43.6297C61.3995 42.6639 63.1627 41.7426 64.9847 40.7907C67.0969 39.5375 69.2091 38.2843 71.3351 36.9864C71.8191 36.6961 72.258 36.392 72.697 36.0878C73.205 35.5605 73.6679 35.0194 73.4838 34.1805C72.5661 33.1636 72.5661 33.1636 71.0757 33.6805C69.2748 34.8833 67.5326 36.0554 65.7317 37.2582C65.2339 37.5931 64.6912 37.9141 64.1934 38.249C63.8408 38.4332 63.5331 38.6314 63.1805 38.8156C61.5348 39.6754 59.8442 40.5213 58.1986 41.3811C55.7577 42.5816 53.2719 43.7682 50.831 44.9687C50.7584 45.0441 50.7171 45.1779 50.6445 45.2532C50.0843 45.4711 49.583 45.6582 49.0228 45.8761C47.6537 46.4792 46.3432 47.0517 44.9741 47.6548C42.5746 48.7215 40.2027 49.6989 37.772 50.7071C35.6177 51.4585 33.4185 52.1961 31.2643 52.9476C28.8852 53.6295 26.506 54.3115 24.0819 54.9795C22.3217 55.4129 20.5614 55.8463 18.815 56.2351C17.1585 56.6517 15.5609 57.0376 13.9044 57.4542C13.5343 57.5353 13.1331 57.5579 12.7631 57.639C11.3417 57.9328 9.90654 58.2711 8.47137 58.6095C6.38248 58.9902 4.24861 59.3569 2.15973 59.7376C1.89345 59.8019 1.60976 59.7631 1.34348 59.8274C0.648387 60.0035 0.316761 60.4387 0.376185 61.0435C0.4494 61.6038 0.847669 62.0691 1.56377 62.1438C2.24869 62.16 2.94739 62.1316 3.65988 62.0586C5.51368 61.8008 7.35007 61.4398 9.17268 61.1234C10.8603 60.7654 12.503 60.3934 14.1595 59.9768Z" fill="#186954"/>
<path d="M71.1069 33.739C72.5972 33.2222 72.5972 33.2222 73.5149 34.239C73.6991 35.078 73.2361 35.6191 72.7282 36.1463C74.7511 35.5009 76.462 34.2703 78.128 33.0257C80.8621 31.0361 83.3365 28.7707 85.1703 25.8674C85.6572 25.0893 85.978 24.211 86.2988 23.3326C86.4229 22.9311 86.4397 22.3986 86.3839 21.9415C86.265 20.7318 85.2196 19.9687 84.0681 20.3459C83.0791 20.6756 82.0938 21.153 81.3058 21.7892C77.4281 25.087 74.0524 28.8334 71.3311 33.173C71.2172 33.3821 71.162 33.5606 71.1069 33.739Z" fill="#55BE93"/>
<path d="M37.308 53.6429C35.5825 54.2825 33.8259 54.8637 32.1005 55.5033C32.4814 55.8654 32.7897 56.3029 33.2257 56.4865C37.2472 58.4628 41.3688 60.2744 45.8214 61.0154C47.271 61.268 48.7308 61.3283 50.2043 61.3439C51.1417 61.3404 52.1343 61.1585 52.4341 60.0293C52.7201 58.9447 52.0897 58.1144 51.259 57.6133C50.3833 57.0982 49.4627 56.5692 48.4905 56.3665C45.1516 55.5299 41.8301 54.7964 38.5087 54.0629C38.1038 53.9378 37.7128 53.768 37.308 53.6429Z" fill="#55BE93"/>
<path d="M25.2605 57.5437C25.1706 57.5159 25.0494 57.4295 24.9456 57.4463C23.3791 57.8907 21.8126 58.3351 20.2323 58.8242C23.1371 61.3838 26.4737 63.3439 30.0795 64.7517C31.8374 65.4418 33.7092 65.9226 35.5499 66.345C36.4183 66.5646 37.3108 66.5472 38.2032 66.5298C38.9469 66.5153 39.6695 66.2499 39.9316 65.4023C40.1348 64.5854 39.8505 63.911 39.2585 63.4347C38.6215 62.9446 37.9396 62.4405 37.2024 62.1149C34.3476 60.988 31.4789 59.9058 28.6102 58.8235C27.5132 58.3867 26.3713 57.9359 25.2605 57.5437Z" fill="#55BE93"/>
<path d="M31.2642 52.9477C33.4184 52.1962 35.6176 51.4586 37.7719 50.7072C37.3598 50.2865 37.8438 49.9963 37.9853 49.6979C39.0209 47.6231 40.1015 45.5622 41.0471 43.4596C41.5406 42.3414 41.8679 41.123 42.1815 39.9492C42.3056 39.5476 42.3398 39.1183 42.2702 38.7058C42.1339 37.3929 40.9572 36.7359 39.8129 37.4086C39.0939 37.8217 38.4234 38.3964 37.8741 39.0575C34.5056 43.0993 32.2377 47.7257 31.2642 52.9477Z" fill="#55BE93"/>
<path d="M64.9708 40.8353C63.1939 41.8011 61.4307 42.7224 59.6087 43.6743C59.4912 43.7357 59.436 43.9142 59.3497 44.0341C59.682 44.2346 60.0142 44.435 60.3741 44.5463C65.1872 46.0341 70.1135 46.6772 75.1076 45.826C76.1001 45.6441 77.0441 45.3005 77.9881 44.9569C78.7108 44.6915 79.1599 44.195 79.2006 43.4256C79.224 42.553 78.7321 41.9122 77.9224 41.662C76.9778 41.37 75.9744 41.1087 74.9471 41.0843C71.9999 41.0531 69.0252 41.111 66.0642 41.1244C65.7805 41.0856 65.3895 40.9158 64.9708 40.8353Z" fill="#55BE93"/>
<path d="M18.8461 56.2939C20.6063 55.8605 22.3666 55.4271 24.113 55.0383C24.4548 54.4108 24.7966 53.7834 25.1834 53.1698C26.9482 50.4896 28.2908 47.5811 29.2424 44.5028C29.4079 43.9674 29.5422 43.3736 29.5277 42.7826C29.5402 41.4668 28.526 40.7623 27.3331 41.2733C26.773 41.4912 26.2476 41.9153 25.871 42.3365C22.3089 46.3673 19.6811 50.8824 18.8461 56.2939Z" fill="#55BE93"/>
<path d="M58.1848 41.4258C59.8305 40.566 61.5211 39.7201 63.1667 38.8602C63.5194 38.676 63.827 38.4778 64.1797 38.2936C64.3038 37.8921 64.4279 37.4906 64.597 37.103C65.7465 34.819 66.941 32.549 68.0456 30.2512C68.4425 29.4452 68.7046 28.5976 68.8766 27.7221C69.1074 26.816 68.9508 25.8878 68.0752 25.3728C67.1995 24.8577 66.3731 25.1399 65.5988 25.7314C64.2855 26.7917 63.4567 28.1973 62.718 29.6307C60.6809 33.3509 59.3048 37.3243 58.1848 41.4258Z" fill="#55BE93"/>
<path d="M51.522 47.6749C49.6965 48.4791 47.9159 49.2972 46.0903 50.1014C50.3475 52.5904 54.9807 54.0226 59.9274 54.281C61.0897 54.347 62.3174 54.0423 63.4725 53.8128C64.2126 53.6506 64.8105 53.1512 64.8338 52.2786C64.8571 51.4061 64.424 50.7346 63.6144 50.4843C61.905 49.9559 60.1681 49.5167 58.4174 49.1222C56.3831 48.6888 54.3385 48.4478 52.3215 48.1176C52.0378 48.0788 51.5365 48.2659 51.522 47.6749Z" fill="#55BE93"/>
<path d="M8.51633 58.6235C9.95149 58.2851 11.3729 57.9913 12.808 57.653C13.1781 57.5719 13.5793 57.5493 13.9493 57.4681C13.9871 57.1866 13.9349 56.8772 14.0488 56.668C15.6541 53.5474 16.9895 50.3435 18.0999 47.0699C18.2379 46.6238 18.3758 46.1777 18.4237 45.7037C18.5951 44.1927 17.4561 43.2541 16.0731 43.9019C15.2641 44.2872 14.5211 44.9373 14.003 45.6568C12.3724 47.7432 11.1503 50.1025 10.2431 52.5591C9.51878 54.5834 9.07813 56.6466 8.51633 58.6235Z" fill="#55BE93"/>
<path d="M14.1594 59.9772C12.5167 60.3492 10.8603 60.7658 9.21759 61.1378C12.7528 64.5277 16.661 67.3487 21.4704 68.6888C22.2489 68.8805 23.1 68.997 23.8712 68.8933C25.5487 68.7276 26.2251 67.1771 25.1515 65.8677C24.6146 65.213 23.9603 64.6197 23.1919 64.2356C20.5859 62.9413 17.8936 61.7669 15.2738 60.5172C14.8689 60.3921 14.5367 60.1916 14.1594 59.9772Z" fill="#55BE93"/>
<path d="M45.0051 47.7133C46.3743 47.1101 47.6984 46.4931 49.0538 45.9345C49.569 45.7028 50.1153 45.5295 50.6755 45.3117C50.7031 45.2225 50.7894 45.1025 50.817 45.0133C50.8584 44.8795 50.886 44.7902 50.8686 44.6871C52.2496 42.1326 53.6618 39.6366 54.9978 37.0682C55.3258 36.4853 55.4739 35.8468 55.622 35.2084C55.8252 34.3914 55.731 33.5803 54.9141 33.0345C54.3083 32.6029 53.4783 32.7373 52.6765 33.4181C52.2687 33.7808 51.8609 34.1435 51.5293 34.5786C48.3197 38.4252 46.2558 42.8702 45.0051 47.7133Z" fill="#55BE93"/>
<path d="M50.8687 44.6875C50.8411 44.7767 50.8135 44.866 50.8309 44.9691C50.8447 44.9245 50.886 44.7906 50.8687 44.6875Z" fill="#55BE93"/>
<path d="M50.8169 45.0134C50.7894 45.1026 50.703 45.2226 50.6754 45.3118C50.7168 45.178 50.7444 45.0887 50.8169 45.0134Z" fill="#55BE93"/>
</g>
<defs>
<clipPath id="clip0">
<rect width="71" height="65" fill="white" transform="translate(19.1965) rotate(17.1774)"/>
</clipPath>
</defs>
</svg>
