<svg width="100" height="102" viewBox="0 0 100 102" fill="none" xmlns="http://www.w3.org/2000/svg">
<g clip-path="url(#clip0)">
<path d="M6.78539 71.7261C1.06786 72.7123 -0.285154 69.523 1.18866 69.4826C7.62113 69.8288 13.8228 68.5835 19.9838 67.0013C20.844 64.8883 21.6762 62.8682 22.5083 60.8481C23.1296 61.0769 23.7508 61.3057 24.3721 61.5345C23.7712 63.0566 23.1388 64.5489 22.5379 66.071C22.6327 66.1606 22.6977 66.2817 22.7925 66.3713C27.5304 64.4593 32.2683 62.5474 37.036 60.6039C37.573 57.9466 38.054 55.4753 38.5963 53.0022C39.2754 53.1065 39.9229 53.181 40.602 53.2853C40.2593 55.2305 39.9148 57.1143 39.5477 59.2753C43.9905 56.7261 48.342 54.2102 52.7847 51.6611C53.2948 48.0827 53.7751 44.5359 54.2256 41.0206C54.8731 41.0951 55.582 41.1679 56.2295 41.2423C55.8523 44.1103 55.5049 46.9467 55.1277 49.8147C55.2225 49.9043 55.3155 49.9325 55.4103 50.0221C59.2616 47.2126 63.1761 44.4628 66.994 41.5621C67.4447 41.2117 67.7302 40.4664 67.8053 39.8806C68.3261 36.6706 68.7856 33.4624 69.3064 30.2525C69.9557 30.3883 70.605 30.5242 71.2543 30.66C70.9033 33.3737 70.5505 36.0259 70.1995 38.7395C70.2943 38.8291 70.3576 38.8888 70.4524 38.9784C73.8034 35.8753 77.1544 32.7723 80.4739 29.6394C80.8567 30.1205 81.2413 30.6631 81.6241 31.1442C78.5449 34.0862 75.4043 37.0299 72.3251 39.9719C71.8762 40.3836 71.4571 40.7638 70.7381 41.3981C73.2577 41.3905 75.4702 41.3914 77.6845 41.4536C77.7024 42.0677 77.6905 42.7133 77.6769 43.2975C74.5766 43.4131 71.4448 43.4989 68.0989 43.6213C64.6071 46.1136 60.9048 48.7654 56.9325 51.6397C59.2118 51.8231 61.2455 52.0132 63.2774 52.1419C63.1427 52.7909 63.0396 53.4697 62.9049 54.1187C59.9483 53.8924 57.0233 53.6959 54.0667 53.4696C49.2925 56.2429 44.5165 58.9548 39.5914 61.8245C40.9902 62.37 42.2643 62.8574 43.477 63.3466C43.3423 63.9956 43.2076 64.6445 43.0413 65.2636C41.4566 64.6618 39.842 64.0914 38.2573 63.4896C37.3552 63.1148 36.5253 63.1068 35.5851 63.532C31.3647 65.2761 27.1091 66.8676 22.8553 68.5205C22.6728 68.5869 22.4606 68.6849 22.0361 68.8809C24.1861 69.8975 26.1501 70.8577 28.1122 71.7565C27.6985 72.321 27.3462 72.8837 26.9641 73.478C24.284 72.1994 21.6058 70.9822 18.989 69.7633C15.0117 70.3639 10.9135 71.0292 6.78539 71.7261Z" fill="#43261F"/>
<path d="M81.7134 31.0495C81.3306 30.5684 80.946 30.0258 80.5632 29.5446C80.3783 28.4742 80.0706 27.4072 80.1313 26.3301C80.2611 23.4074 84.5494 20.8318 86.5795 20.8991C87.841 20.9567 88.9941 21.509 89.7001 22.5344C92.6522 26.8168 90.4478 31.3019 86.2727 32.4918C85.0534 32.8324 83.9969 32.4312 82.9965 31.844C82.5278 31.5803 82.1206 31.3149 81.7134 31.0495Z" fill="#DF4629"/>
<path d="M77.7665 43.203C77.7486 42.5889 77.7604 41.9433 77.7741 41.3591C78.4256 39.4669 79.1123 37.7273 81.0153 36.5998C82.7079 35.6316 85.7873 35.8545 87.334 37.2563C88.9456 38.7793 89.477 41.1922 88.4326 43.3103C88.0278 44.1818 87.3757 44.9985 86.6567 45.6328C83.9316 48.0734 80.9869 47.2015 78.7325 44.7129C78.29 44.2948 78.0581 43.7173 77.7665 43.203Z" fill="#DF4629"/>
<path d="M43.2239 65.1972C43.3586 64.5482 43.4933 63.8992 43.6596 63.2801C44.5955 61.6567 45.981 60.6969 47.7827 60.3096C49.8879 59.791 51.85 60.6898 52.6759 62.6645C53.5686 64.8217 53.4155 66.9461 52.0903 68.9182C50.9702 70.5467 49.4564 71.3256 47.5664 70.7936C45.6466 70.293 44.0177 69.2315 43.4953 67.1256C43.2931 66.5166 43.2734 65.8411 43.2239 65.1972Z" fill="#DF4629"/>
<path d="M27.1152 73.3817C27.5289 72.8173 27.8812 72.2545 28.2633 71.6602C30.1269 69.1817 33.0257 69.5325 34.7494 70.6837C36.7241 72.0123 37.3276 74.792 36.1676 77.1591C36.0221 77.4396 35.8767 77.7201 35.7014 78.0322C34.2606 80.2533 32.1942 81.0474 30.1092 80.1519C27.2467 78.9398 26.205 76.9403 26.9524 74.1236C27.0085 73.9377 27.0609 73.629 27.1152 73.3817Z" fill="#DF4629"/>
<path d="M71.314 30.5968C70.6648 30.461 70.0155 30.3251 69.3662 30.1893C68.9888 29.8923 68.5816 29.6269 68.1725 29.3001C66.5365 27.9929 65.8524 25.6149 66.5076 23.8455C67.3623 21.5483 69.8824 19.4512 72.4777 19.9333C73.4149 20.4607 74.3224 21.0196 75.2597 21.5471C75.6252 22.4896 76.0224 23.462 76.3879 24.4046C76.0833 25.5498 75.9665 26.8128 75.4443 27.8719C74.6014 29.5235 73.1527 30.4236 71.314 30.5968Z" fill="#DF4629"/>
<path d="M63.0558 54.0226C63.1905 53.3737 63.2936 52.6948 63.4283 52.0459C63.9731 50.7097 64.9603 49.7915 66.1056 49.0227C67.7033 47.9649 69.7 47.941 71.0499 48.918C72.6508 50.0725 73.5858 52.628 72.9903 54.3344C72.7644 55.0166 72.4455 55.6706 72.0634 56.2649C70.9152 57.9863 69.4123 59.1337 67.2486 58.7013C65.0235 58.2706 63.6909 56.8322 63.1369 54.6964C63.0683 54.4525 63.0629 54.2682 63.0558 54.0226Z" fill="#DF4629"/>
<path d="M54.2871 41.019C50.3282 40.1441 48.7056 35.0878 51.9058 32.0811C53.0123 31.0368 54.0908 30.0854 55.654 29.9504C57.7067 29.7405 59.3022 30.7109 60.0947 32.5943C61.3178 35.5413 60.2758 38.7962 57.5608 40.5299C57.1381 40.7873 56.6838 41.0148 56.2611 41.2722C55.6119 41.1364 54.9346 41.0934 54.2871 41.019Z" fill="#DF4629"/>
<path d="M38.6279 53.0319C37.9715 52.6504 37.2256 52.3636 36.6287 51.919C34.3624 50.076 34.1988 46.5775 36.2258 44.4325C37.746 42.8238 41.3321 42.5105 43.0928 43.8758C43.9723 44.5277 44.4904 45.4353 44.5841 46.5389C44.8121 49.0831 44.0998 52.0524 40.6353 53.3764C39.9545 53.2107 39.2754 53.1064 38.6279 53.0319Z" fill="#DF4629"/>
<path d="M22.5381 60.8168C20.3749 58.295 20.0385 56.2454 21.4721 53.7787C22.4957 51.9992 24.7093 50.986 26.5045 51.4285C28.4858 51.9273 30.2119 54.2154 30.0571 56.2783C29.991 57.1712 29.8354 58.1588 29.4289 58.9688C28.6754 60.5258 27.5409 61.6631 25.537 61.4414C25.1668 61.3901 24.7703 61.4932 24.4018 61.5032C23.7806 61.2744 23.1593 61.0456 22.5381 60.8168Z" fill="#DF4629"/>
</g>
<defs>
<clipPath id="clip0">
<rect width="96" height="46" fill="white" transform="translate(99.6846 31.9097) rotate(133.379)"/>
</clipPath>
</defs>
</svg>
