<?xml version="1.0" encoding="UTF-8"?>
<svg id="Layer_1" xmlns="http://www.w3.org/2000/svg" version="1.1" viewBox="0 0 148 40">
  <!-- Generator: Adobe Illustrator 29.0.1, SVG Export Plug-In . SVG Version: 2.1.0 Build 192)  -->
  <defs>
    <style>
      .st0 {
        fill: #8bc650;
      }

      .st1 {
        fill: #fff;
      }
    </style>
  </defs>
  <g id="Page-1">
    <path id="Fill-1" class="st0" d="M62.2,37.1c-2.3-.4-4.2-.7-5.9-1-2.1-.3-4.3-.6-6.7-.8h-.7c-2.1-.3-4.2-.5-6.4-.5-2.5,0-4.9-.2-7.4-.2s-4.7,0-7.5.3c-2.3,0-4.6.4-6.8.7h-.4c-4.4.6-8.7,1.4-12.7,2.3-3.1.7-5.7,1.5-7.7,2.1,2.1-.2,4.8-.6,7.9-.9l8.8-.8,3.8-.3c1.5,0,3-.2,4.5-.2s1.7,0,2.6,0c2.7,0,5.2-.2,7.3,0h7.3c1,0,2,0,2.9,0,1.4,0,2.8,0,4.2,0,4.8.2,9.3.4,12.6.6l8.1.5c-1.9-.6-4.6-1.2-7.8-1.8"/>
    <path id="Fill-3" class="st0" d="M33.1,33.7q0,0,0,0c.6,0,1.2,0,1.9,0h.4c0,0,0,0,0-.2-.5-.6-1-1.3-1.4-1.9-.4,1.1-.7,1.8-.8,2.1"/>
    <path id="Fill-5" class="st0" d="M36.9,33.8c1.1,0,2.3,0,3.4,0-.8-1.1-1.4-2.1-1.7-3.2-.7,1.5-1.3,2.7-1.7,3.1"/>
    <g id="Group-9">
      <path id="Fill-7" class="st0" d="M28.6,11.9c.9-.9,2.3-1,3.3-.1.9.9,1,2.3.1,3.3-.9.9-2.3,1-3.3.1-.9-.9-1-2.4-.1-3.3M37.1,15.4c.9-.6,2.1-.4,2.7.5s.4,2.1-.5,2.7-2.1.4-2.7-.5c-.6-.9-.4-2.1.5-2.7M43,20.4c.7-.4,1.6-.2,2.1.5.4.7.2,1.6-.5,2s-1.6.2-2.1-.5-.2-1.6.5-2M20.2,34.7h.4c2.2-.3,4.5-.5,6.8-.7,1.2,0,2.4,0,3.5-.2-3.5-2.7-5.3-5.1-6.2-9.6-.7-3.2.8-6.6,3-7.6,3.1-1.5,5.3,0,5.9.4.6.5,1.1,1.3,1.4,2.2.2-.1.4-.2.6-.2,2.8-.7,4.3.9,4.6,1.4.5.7.7,1.6.7,2.7.2-.1.4-.1.6-.2,2.2-.4,3.3,1,3.6,1.3.6.9.6,2.3,0,3.8-.5,1.3-2.3,4.8-3.1,5.7h.5c2.2,0,4.4.3,6.5.4h.7c2.1.3,4,.5,5.9.8,1.9-3.3,2.9-7.1,2.9-11.2,0-12.8-10.5-23.3-23.5-23.3S11.6,10.9,11.6,23.8s1.2,8.2,3.2,11.7c1.8-.3,3.6-.6,5.4-.8"/>
    </g>
  </g>
  <g>
    <path id="Fill-11" data-name="Fill-1" class="st1" d="M77,30.4c-.2,0-.3-.1-.4-.3,0-.2-.3-.4-.4-.6l-6.5-12.7v13.1c0,.2,0,.3-.2.4s-.2.1-.4.1-.3,0-.4-.1-.2-.2-.2-.4v-15.2c0-.2,0-.3.2-.4,0-.1.3-.1.4-.1.2,0,.4.1.5.3.2.2.3.4.4.6l6.4,12.7v-13.1c0-.2,0-.3.2-.4,0-.1.2-.1.4-.1s.3,0,.4.1.2.2.2.4v15.2c0,.2,0,.3-.2.4-.2.1-.3.1-.4.1"/>
    <path id="Fill-31" data-name="Fill-3" class="st1" d="M86.1,23.9c0-.4,0-.8-.2-1.1-.2-.4-.4-.7-.6-1-.3-.3-.6-.5-1-.7s-.7-.3-1.2-.3-.8.1-1.2.3c-.4.2-.7.4-.9.7-.3.3-.5.6-.6,1-.2.4-.2.7-.2,1.1v2.6c0,.4,0,.8.2,1.2.2.4.4.7.6,1,.3.3.6.5.9.7.4.2.7.3,1.2.3s.8-.1,1.2-.3c.4-.2.7-.4,1-.7.3-.3.5-.6.6-1,.2-.4.2-.8.2-1.2v-2.6ZM83.1,19.8c.5,0,1.1.1,1.6.3s.9.5,1.3.9.7.8.9,1.3c.2.5.3,1,.3,1.6v2.6c0,.5,0,1-.3,1.5-.2.5-.5.9-.9,1.3s-.8.7-1.3.9-1,.3-1.6.3-1.1-.1-1.6-.3c-.5-.2-.9-.5-1.3-.9s-.7-.8-.9-1.3c-.2-.5-.3-1-.3-1.6v-2.6c0-.5,0-1.1.3-1.6.2-.5.5-.9.9-1.3s.8-.7,1.3-.9c.5,0,1-.2,1.6-.2Z"/>
    <path id="Fill-51" data-name="Fill-5" class="st1" d="M87.3,20.8s0-.1,0-.2v-.2c0-.1,0-.3.2-.4s.3-.1.4-.1.2,0,.3.1c0,0,0,.1.2.2l3,8.4,3-8.2c0-.1,0-.2,0-.3,0-.1.2-.1.3-.1s.3,0,.4.1.2.2.2.4v.2q0,.1,0,.2l-3.5,9.5c0,.2-.3.3-.5.3-.3,0-.4-.1-.5-.3l-3.4-9.6Z"/>
    <path id="Fill-71" data-name="Fill-7" class="st1" d="M102.6,23.9c0-.4,0-.8-.2-1.1-.2-.4-.4-.7-.6-1-.3-.3-.6-.5-1-.7s-.7-.3-1.2-.3-.8.1-1.2.3c-.4.2-.7.4-.9.7-.3.3-.5.6-.6,1-.2.4-.2.7-.2,1.1v2.6c0,.4,0,.8.2,1.2.2.4.4.7.6,1,.3.3.6.5.9.7.4.2.7.3,1.2.3s.8-.1,1.2-.3c.4-.2.7-.4,1-.7.3-.3.5-.6.6-1,.2-.4.2-.8.2-1.2v-2.6ZM99.6,19.8c.5,0,1.1.1,1.6.3s.9.5,1.3.9.7.8.9,1.3.3,1,.3,1.6v2.6c0,.5,0,1-.3,1.5s-.5.9-.9,1.3-.8.7-1.3.9c-.5.2-1,.3-1.6.3s-1.1-.1-1.6-.3c-.5-.2-.9-.5-1.3-.9s-.7-.8-.9-1.3-.3-1-.3-1.6v-2.6c0-.5,0-1.1.3-1.6s.5-.9.9-1.3.8-.7,1.3-.9c.5-.1,1-.2,1.6-.2Z"/>
    <path id="Fill-9" class="st1" d="M112.1,29.5c1.1,0,2-.3,2.6-.8.6-.6.9-1.4.9-2.5s0-1.2-.3-1.7c-.2-.4-.5-.8-.8-1.1-.3-.3-.7-.5-1.2-.7-.4-.2-.9-.4-1.4-.5-.5-.2-.9-.3-1.4-.5s-.8-.4-1.2-.7c-.3-.3-.6-.7-.8-1.1-.2-.5-.3-1-.3-1.7s0-1.5.4-2,.7-.9,1.1-1.2.9-.5,1.5-.6c.5-.1,1-.2,1.5-.2s.9,0,1.3.1.8.2,1.2.3c.3.1.6.2.8.4s.3.3.3.5,0,.3,0,.4c0,.2-.2.2-.4.2s-.2,0-.4-.1c-.2-.1-.4-.2-.6-.3s-.5-.2-.9-.3-.8-.1-1.3-.1-.8,0-1.2.1c-.4.1-.8.2-1.1.4-.3.2-.5.5-.7.9-.2.3-.3.8-.3,1.3s.2,1.3.6,1.7c.4.4.8.7,1.4,1,.5.3,1.1.5,1.8.7.6.2,1.2.5,1.8.8.5.3,1,.8,1.4,1.4s.6,1.4.6,2.4,0,1.5-.3,2c-.2.6-.5,1-.9,1.4s-.9.6-1.4.8c-.6.2-1.2.3-1.8.3s-1.3-.1-1.9-.3c-.5-.2-1-.4-1.4-.6s-.7-.5-.9-.8c-.2-.3-.3-.5-.3-.7s0-.3.2-.4.2-.2.3-.2.3.1.4.3c0,.2.3.4.6.6s.6.5,1,.6c.3.4.8.5,1.6.5"/>
    <path id="Fill-11" class="st1" d="M122.1,30.5c-.5,0-1-.1-1.5-.3-.5-.2-.9-.5-1.3-.9s-.7-.8-.9-1.3c-.2-.5-.3-1-.3-1.6v-6.1c0-.2,0-.3.2-.4s.2-.1.4-.1.3,0,.4.1.2.2.2.4v6.1c0,.4,0,.8.2,1.1.2.4.4.7.6,1,.3.3.6.5.9.7.4.2.7.3,1.2.3s.7-.1,1-.2.6-.3.9-.6c.3-.3.5-.6.7-1s.2-.8.2-1.2v-6.1c0-.1,0-.2.2-.3,0-.1.2-.1.4-.1s.3,0,.4.1,0,.2,0,.3v9.5c0,.1,0,.2,0,.3,0,.1-.2.1-.4.1s-.3,0-.4-.1-.2-.2-.2-.3v-1.1c-.2.4-.6.8-1.1,1.2-.4.4-1,.5-1.8.5"/>
    <path id="Fill-13" class="st1" d="M129,27.2c0,.8.2,1.4.5,1.7.3.3.9.5,1.8.5h.6c.2,0,.3,0,.4.1.1.1.1.2.1.4s0,.3-.1.4-.2.2-.4.2h-.6c-1.1,0-1.9-.3-2.5-.8s-.9-1.3-.9-2.4v-12c0-.1,0-.2.2-.3s.2-.1.4-.1.3,0,.4.1.1.2.1.3v4.6h3c.1,0,.2,0,.3.1s.1.2.1.3,0,.2-.1.3-.2.1-.3.1h-3v6.5Z"/>
    <path id="Fill-15" class="st1" d="M137.1,20.8c-.4,0-.8.1-1.2.3-.3.2-.6.5-.9.8-.2.3-.4.7-.6,1.2-.1.4-.2.9-.2,1.4v5.4c0,.1-.1.2-.2.3-.1.1-.2.1-.4.1s-.3,0-.4-.1c-.1-.1-.2-.2-.2-.3v-5.4c0-.6.1-1.2.3-1.8.2-.6.4-1.1.8-1.5.4-.4.7-.8,1.2-1.1.5-.3,1-.4,1.5-.4h1.1c.3,0,.5.2.5.5s0,.3-.1.4-.2.1-.3.1h-.9Z"/>
    <path id="Fill-17" class="st1" d="M145.4,25.5h-1.1c-.6,0-1.1,0-1.6.1-.5,0-1,.1-1.3.3-.4.1-.7.4-.9.6-.2.3-.3.6-.3,1.1s.2,1.2.6,1.5c.4.3.9.5,1.5.5s.8-.1,1.2-.2c.4-.2.7-.4,1-.6s.5-.5.7-.8.3-.5.3-.8v-1.7h0ZM142.7,19.8c.7,0,1.3.1,1.8.4.5.2.9.6,1.2,1s.5.9.7,1.4c.1.5.2,1,.2,1.6v4.1c0,.4.1.8.2,1s.4.3.7.3.2.1.3.1c.1.1.1.2.1.3,0,.2-.1.3-.2.4-.1.1-.2.1-.4.1-.6,0-1-.2-1.3-.5s-.4-.7-.5-1.2c-.4.5-.9.9-1.5,1.2-.6.3-1.2.5-2,.5s-.8-.1-1.2-.2-.7-.3-1-.5-.5-.5-.7-.9-.2-.8-.2-1.3.1-1.1.4-1.5c.2-.4.6-.7,1.1-.9s1-.4,1.6-.5,1.3-.1,2.1-.1h1.2v-.6c0-.4-.1-.8-.2-1.2-.1-.4-.3-.7-.5-1.1-.2-.3-.5-.6-.9-.8-.4-.2-.8-.3-1.3-.3s-.6,0-.9.1c-.1.3-.3.3-.5.4s-.3.1-.5.2c-.1.1-.2.1-.3.1-.2,0-.3-.1-.4-.2-.1-.1-.1-.3-.1-.4s.1-.3.3-.4.4-.2.7-.3c.3-.1.6-.2.9-.2.4-.1.7-.1,1.1-.1Z"/>
  </g>
</svg>