<svg id="Layer_1" data-name="Layer 1" xmlns="http://www.w3.org/2000/svg" xmlns:xlink="http://www.w3.org/1999/xlink" viewBox="0 0 256 256"><defs><style>.cls-1{fill:url(#Blue_Gradient_01);}</style><linearGradient id="Blue_Gradient_01" x1="42.33" y1="162.38" x2="221.07" y2="93.83" gradientUnits="userSpaceOnUse"><stop offset="0" stop-color="#11185b"/><stop offset="1" stop-color="#00299b"/></linearGradient></defs><title>PBZ Card 2019 web ikonice za svg</title><path class="cls-1" d="M102,95.71,73.73,163.18H55.28L41.37,109.34c-.85-3.32-1.58-4.53-4.15-5.93C33,101.13,26.09,99,20,97.67l.41-2h29.7a8.13,8.13,0,0,1,8,6.88l7.35,39L83.68,95.71Zm72.29,45.44c.08-17.8-24.62-18.79-24.45-26.74.05-2.42,2.36-5,7.4-5.65a32.88,32.88,0,0,1,17.21,3l3.06-14.31a47,47,0,0,0-16.32-3c-17.25,0-29.4,9.17-29.5,22.3-.11,9.71,8.67,15.13,15.28,18.36,6.8,3.31,9.09,5.43,9.06,8.39,0,4.52-5.43,6.52-10.45,6.6-8.77.14-13.86-2.37-17.92-4.26l-3.17,14.78c4.08,1.87,11.61,3.5,19.41,3.59,18.34,0,30.34-9.06,30.39-23.09m45.56,22H236L221.91,95.71H207a7.94,7.94,0,0,0-7.43,5l-26.19,62.52h18.33l3.64-10.08h22.39Zm-19.48-23.91,9.19-25.33,5.29,25.33ZM127,95.71l-14.43,67.47H95.06L109.5,95.71Z"/></svg>