<svg width="135" height="27" viewBox="0 0 135 27" fill="none" xmlns="http://www.w3.org/2000/svg">
<g clip-path="url(#clip0)">
<path d="M24.2933 7.62163C24.2069 7.56691 24.1098 7.53147 24.0084 7.51774C23.9071 7.50402 23.804 7.51232 23.7062 7.5421C22.648 7.45906 21.5862 7.43252 20.5252 7.46257H20.4523C19.9116 7.46257 19.3477 7.46257 18.7938 7.46257L14.2462 7.3731C13.1782 7.34328 12.0073 7.35322 10.8663 7.3963C10.0204 7.3963 9.20779 7.4228 8.35865 7.446C7.50951 7.4692 5.39661 7.47914 4.15276 7.48245H3.09465C3.00631 7.50074 2.92627 7.5471 2.86649 7.61459C2.8067 7.68208 2.77038 7.76708 2.76295 7.8569C2.76153 7.88513 2.76604 7.91334 2.7762 7.93971C2.78637 7.96609 2.80195 7.99004 2.82196 8.01003C2.84196 8.03001 2.86594 8.04559 2.89234 8.05574C2.91874 8.06589 2.94698 8.0704 2.97524 8.06898C3.09133 8.06898 3.84428 8.08554 5.20755 8.06898H6.61394C6.98212 8.06898 7.1546 8.06898 7.23421 8.06898C8.25914 7.96956 9.29735 7.97619 10.2924 7.97951H10.3687C11.0155 7.97951 11.6955 7.97951 12.3589 7.96294C12.503 7.98211 12.6494 7.97311 12.7901 7.93643H12.81C12.873 7.93643 12.936 7.91323 13.0057 7.9066C13.172 7.94476 13.3432 7.95705 13.5132 7.94305C13.6898 7.93348 13.867 7.94572 14.0406 7.97951H14.0671C14.2036 7.93974 14.3486 7.93974 14.4851 7.97951H14.5116C14.575 7.99303 14.6393 8.00189 14.704 8.00602C16.217 7.97686 17.7305 8.02664 19.2383 8.15513L20.0841 8.24791C20.8455 8.19382 21.6102 8.20601 22.3695 8.28437C22.913 8.33489 23.4588 8.35812 24.0047 8.35395H24.0379L24.3198 8.13194C24.3645 8.05608 24.3823 7.96737 24.3702 7.88018C24.3582 7.79298 24.3171 7.71239 24.2535 7.65145" fill="white"/>
<path d="M16.77 17.2313C17.0254 16.2107 16.7468 14.5273 16.6672 13.4968C16.5577 12.1116 16.3156 10.6569 14.886 10.1002C14.0501 9.76885 12.395 9.89146 11.9306 10.6735C11.4861 10.6735 11.045 11.6676 10.899 12.0487C10.7772 12.4967 10.7191 12.9596 10.7265 13.4239C10.7066 13.6956 10.5839 14.0866 10.5673 14.3981C10.5673 14.6135 10.7332 15.0277 10.6071 15.1702C10.71 15.4088 10.7464 16.2107 10.5176 16.2902C10.6947 16.5255 10.7754 16.8194 10.7431 17.112C10.7431 17.6554 10.7431 17.9934 10.7431 18.5767C10.7431 18.7059 10.8294 20.1507 11.1942 19.6238C11.4032 19.3222 11.1942 18.4905 11.1942 18.1194C11.1942 16.5222 11.0649 14.8985 11.2639 13.3145C11.3966 12.2939 11.5458 11.4489 12.448 10.8359C12.7541 10.6632 13.0932 10.557 13.4431 10.5244C13.7383 10.4747 14.3122 10.637 14.488 10.5244C14.959 10.8922 15.284 10.975 15.566 11.5185C15.7159 11.8273 15.8273 12.1534 15.8977 12.4894C16.0219 13.1349 16.0863 13.7905 16.0901 14.4478C16.0501 14.9805 16.0501 15.5155 16.0901 16.0483C16.1578 16.252 16.1816 16.4677 16.1597 16.6812C16.1332 16.9032 16.236 17.2644 16.0602 17.2876C16.135 17.5426 16.1138 17.816 16.0005 18.0564C16.1166 18.2287 16.1133 18.1757 16.0005 18.295C16.0499 18.3377 16.0882 18.3917 16.1124 18.4524C16.1365 18.513 16.1457 18.5786 16.1392 18.6435C16.1327 18.7085 16.1107 18.7709 16.075 18.8256C16.0393 18.8803 15.991 18.9256 15.9342 18.9577L16.037 19.0605L15.9408 19.0936C16.0735 19.3222 16.0635 19.531 16.2493 19.6635C16.3976 19.6081 16.5589 19.5966 16.7136 19.6304C16.7596 19.2745 16.7773 18.9155 16.7667 18.5568C16.7667 18.2254 16.9326 17.4865 16.7667 17.2313" fill="white"/>
<path d="M9.22804 17.2312C9.4536 16.1609 9.21146 14.5803 9.12522 13.4967C9.01244 12.1149 8.77694 10.6569 7.34401 10.1002C6.49487 9.7688 4.85962 9.90135 4.38861 10.6734C3.99057 10.6734 3.57264 11.4952 3.43001 11.8763C3.27039 12.3429 3.18423 12.8314 3.1746 13.3244C3.14475 13.6558 3.04192 14.0435 3.02534 14.398C3.02534 14.6167 3.19782 15.0276 3.06183 15.1701C3.1547 15.4319 3.23763 16.1941 2.97559 16.2902C3.15243 16.5256 3.23306 16.8193 3.20114 17.1119C3.20114 17.6554 3.20114 17.9868 3.20114 18.5766C3.18124 18.7025 3.28738 20.1473 3.65224 19.6237C3.8579 19.3288 3.65224 18.4871 3.65224 18.1193C3.65224 16.5221 3.52288 14.8984 3.72853 13.3145C3.86121 12.2905 4.00052 11.4522 4.90937 10.8358C5.21543 10.6632 5.55452 10.557 5.90446 10.5243C6.2063 10.4746 6.76355 10.6403 6.95261 10.5243C7.06207 10.6768 7.28431 10.7265 7.44021 10.8259C7.68303 11.0027 7.86497 11.2505 7.96097 11.535C8.09923 11.7749 8.21047 12.0294 8.29266 12.2938C8.42806 12.9167 8.4992 13.5519 8.50495 14.1893C8.50495 14.6068 8.52817 15.2033 8.50495 15.5678C8.54778 15.8369 8.60536 16.1035 8.67743 16.3664C8.67743 16.5221 8.48173 16.7806 8.61441 16.9363C8.53812 17.155 8.79021 17.2677 8.5149 17.3041C8.53812 17.5726 8.60777 17.8874 8.45188 18.0729C8.5746 18.2452 8.5746 18.1889 8.45188 18.3115C8.50209 18.3536 8.54132 18.4073 8.56618 18.4679C8.59104 18.5285 8.60079 18.5942 8.59459 18.6594C8.58839 18.7246 8.56643 18.7873 8.53059 18.8422C8.49475 18.897 8.44611 18.9423 8.38885 18.9742L8.495 19.077L8.39549 19.1101C8.53148 19.3354 8.5149 19.5475 8.70397 19.6801C8.85233 19.6246 9.01358 19.6131 9.16834 19.6469C9.21575 19.2856 9.23571 18.9211 9.22804 18.5567C9.22804 18.2254 9.38726 17.503 9.22804 17.2312Z" fill="white"/>
<path d="M24.1841 17.3571C24.2496 16.696 24.2496 16.03 24.1841 15.3689C24.131 13.9937 24.2372 12.2806 23.4511 11.0843C22.6649 9.88807 21.4841 10.0902 20.3796 10.1101C20.3033 10.3785 19.4807 10.5475 19.3546 10.7894C18.9035 10.7894 18.469 11.7636 18.3197 12.1646C18.2008 12.6132 18.1417 13.0756 18.1439 13.5398C18.124 13.8049 18.0079 14.2025 17.9913 14.514C17.9913 14.6896 18.1605 15.1767 18.0212 15.2861C18.1207 15.5412 18.197 16.3133 17.9316 16.4028C18.3927 16.8501 17.862 17.6289 18.1472 18.0596C18.1273 18.2386 18.1472 18.4838 18.1472 18.6826C18.1472 18.8814 18.1472 20.1605 18.595 19.7297C18.7974 19.5409 18.595 18.5236 18.595 18.2253C18.595 16.6281 18.4624 15.0044 18.6647 13.4238C18.794 12.3965 18.94 11.5648 19.8455 10.9485C20.1492 10.7672 20.4888 10.6541 20.8406 10.6171C21.1425 10.5641 21.7097 10.7297 21.8855 10.6171C22.2171 10.9485 22.6119 10.9286 22.8805 11.3859C23.0171 11.6552 23.1207 11.94 23.189 12.2342C23.3059 12.6276 23.375 13.0337 23.3947 13.4437C23.4146 13.9971 23.4577 14.5239 23.4643 15.0309C23.4643 15.4584 23.398 15.972 23.6534 16.3266C23.607 16.4525 23.4511 16.8866 23.5771 17.0291C23.471 17.2412 23.7828 17.3406 23.4776 17.3936C23.5495 17.6483 23.5307 17.92 23.4245 18.1624C23.534 18.3314 23.5307 18.2783 23.4245 18.3976C23.4736 18.4409 23.5116 18.4953 23.5352 18.5562C23.5588 18.6172 23.5674 18.683 23.5603 18.7479C23.5531 18.8129 23.5304 18.8752 23.4941 18.9296C23.4578 18.984 23.4089 19.0288 23.3515 19.0604L23.461 19.1664L23.3582 19.1962C23.4909 19.4249 23.4909 19.6336 23.67 19.7695C24.1543 19.5806 24.0945 19.9186 24.1775 19.3354C24.2339 18.9345 24.3798 17.6189 24.1775 17.3074" fill="white"/>
<path d="M0 27H27.1658V0H0V27ZM25.7263 25.5784H1.43624V1.42489H25.7263V25.5784Z" fill="white"/>
<path d="M55.2639 5.46417C55.2639 5.18582 55.3169 5.0831 55.4894 5.03339C55.766 4.992 56.0458 4.97647 56.3253 4.987C58.5045 4.987 59.493 7.20718 59.493 8.89053C59.493 10.1265 59.1115 11.0378 58.4581 11.5647C58.0236 11.9424 57.463 12.0485 56.6271 12.0485C56.2285 12.0618 55.8296 12.0351 55.4363 11.969C55.3368 11.9424 55.2639 11.8927 55.2639 11.6906V5.46417ZM52.2156 15.7002C52.2156 18.0198 52.2156 20.008 52.0895 21.0717C51.9867 21.804 51.8607 22.3574 51.3565 22.4601C51.057 22.5264 50.7511 22.5598 50.4443 22.5595C50.1392 22.5595 50.0397 22.6324 50.0397 22.765C50.0397 22.8975 50.2155 23.0135 50.5438 23.0135C51.5588 23.0135 53.1543 22.9373 53.7347 22.9373C54.5076 22.9373 56.8062 23.0864 57.4132 23.0864C62.0802 23.0864 64.1931 20.2897 64.1931 17.5923C64.1931 14.6431 61.649 12.8504 59.5726 12.1446C60.969 11.0378 62.1598 9.80511 62.1598 7.73405C62.1598 6.40857 61.3505 3.95312 56.7598 3.95312C55.8974 3.95312 54.9089 4.02603 53.6618 4.02603C53.1543 4.02603 51.5588 3.95312 50.2154 3.95312C49.8307 3.95312 49.6582 3.99952 49.6582 4.17846C49.6582 4.3574 49.8108 4.4071 50.0894 4.4071C50.4226 4.40052 50.7558 4.42492 51.0845 4.48C51.917 4.66226 52.1227 5.06321 52.1725 5.91483C52.2222 6.76645 52.2222 7.42588 52.2222 11.2631L52.2156 15.7002ZM61.0718 18.7256C61.0718 21.35 59.1414 21.9564 58.0003 21.9564C57.3679 21.9821 56.737 21.8784 56.1462 21.6516C55.3368 21.3202 55.2639 20.8961 55.2639 19.226V13.2547C55.2639 13.1288 55.3169 13.0757 55.4131 13.0757C55.7946 13.0757 56.05 13.0757 56.5011 13.1022C57.4962 13.1486 58.0733 13.3243 58.6073 13.7053C60.5345 15.0308 61.0718 17.1582 61.0718 18.7223" fill="white"/>
<path d="M37.5248 11.4057C37.5248 7.60825 37.5248 6.90906 37.4783 6.10383C37.4319 5.2986 37.2262 4.85788 36.397 4.67894C36.068 4.62623 35.735 4.60294 35.4019 4.60935C35.1233 4.60935 34.9707 4.55633 34.9707 4.38402C34.9707 4.21171 35.1498 4.15869 35.5246 4.15869C36.8514 4.15869 38.4369 4.23491 39.1401 4.23491C40.1684 4.23491 41.6278 4.15869 42.7888 4.15869C45.9299 4.15869 47.0577 5.20582 47.459 5.58027C48.2513 6.37286 48.7034 7.44258 48.7195 8.56259C48.7195 12.1049 46.1057 14.6001 42.54 14.6001C42.3639 14.6041 42.1877 14.5963 42.0126 14.577C41.8865 14.5504 41.7107 14.5272 41.7107 14.3549C41.7107 14.1826 41.8865 14.0766 42.4106 14.0766C43.817 14.0766 45.7806 12.5026 45.7806 9.95766C45.7806 9.13586 45.701 7.46245 44.2947 6.21318C43.6113 5.58855 42.7199 5.24012 41.7937 5.23564C41.4588 5.22408 41.124 5.25865 40.7986 5.33837C40.6759 5.38476 40.5963 5.53719 40.5963 5.81223V15.7964C40.5963 18.0928 40.5963 20.0644 40.7256 21.1414C40.7986 21.8373 40.9512 22.3873 41.7207 22.4867C42.145 22.5466 42.5726 22.5809 43.001 22.5895C43.2763 22.5895 43.4024 22.6624 43.4024 22.785C43.4024 22.9606 43.2001 23.0368 42.9248 23.0368C41.2663 23.0368 39.6841 22.9606 39.0307 22.9606C38.4535 22.9606 36.8746 23.0368 35.863 23.0368C35.5313 23.0368 35.3621 22.9606 35.3621 22.785C35.3621 22.6624 35.4649 22.5895 35.7668 22.5895C36.0715 22.5889 36.3752 22.5544 36.6723 22.4867C37.1765 22.3873 37.2992 21.824 37.3987 21.1116C37.5248 20.0644 37.5248 18.0928 37.5248 15.8096V11.4057Z" fill="white"/>
<path d="M69.049 21.5854C72.5948 16.2172 76.4093 10.5011 79.8755 4.91085C79.9765 4.77013 80.0435 4.60793 80.0712 4.43699C80.0712 4.31438 79.8954 4.23817 79.6467 4.23817H71.9779C70.9463 4.23817 69.7389 4.26137 67.3573 4.16195C67.0217 4.12861 66.689 4.0699 66.3623 3.98633C66.213 3.98633 66.1102 4.11556 66.0604 4.46019C65.9377 5.20908 65.5562 7.48228 65.5562 8.05555C65.5562 8.35378 65.5828 8.4797 65.7619 8.4797C65.941 8.4797 66.0073 8.38029 66.0604 8.03235C66.1312 7.62859 66.2893 7.2451 66.5235 6.90859C66.7578 6.57209 67.0628 6.29065 67.417 6.0839C68.2231 5.63655 69.7389 5.56033 71.0325 5.56033H75.9582C72.5948 10.8291 68.8765 16.469 65.344 21.9598C65.0388 22.4072 64.9658 22.5331 64.9658 22.7087C64.9658 22.8843 65.1151 22.9572 65.3937 22.9572C70.462 22.9572 74.6812 23.0832 78.8738 23.0832C79.3249 23.0832 79.504 22.881 79.6267 22.4204C79.8937 21.4242 80.0626 20.4042 80.1309 19.3751C80.1309 18.7754 80.0779 18.603 79.8822 18.603C79.6865 18.603 79.6765 18.7489 79.6267 19.0007C79.5368 19.4259 79.3824 19.8348 79.169 20.2135C78.7677 20.9624 77.7892 21.5854 75.2252 21.5854H69.049Z" fill="white"/>
<path d="M89.5108 21.3503C87.9385 19.9784 87.5206 18.1923 87.5206 16.6481C87.5163 15.8301 87.6804 15.02 88.0028 14.2681C88.3252 13.5162 88.799 12.8386 89.3947 12.2773C90.549 11.2236 92.0748 10.584 94.463 10.584C95.2397 10.5819 96.0157 10.6351 96.7849 10.7431C97.3985 10.8226 97.906 10.9684 98.3903 11.0148C98.5661 11.0347 98.6291 11.1109 98.6291 11.2103C98.6291 11.3097 98.5826 11.5417 98.5528 12.0852C98.5229 12.6286 98.5329 13.4902 98.5063 13.8083C98.4864 14.0469 98.4533 14.1728 98.3107 14.1728C98.168 14.1728 98.1514 14.0469 98.1514 13.8215C98.1219 13.2731 97.8986 12.7529 97.5212 12.3536C96.9938 11.7969 95.74 11.3594 94.2739 11.3594C92.8742 11.3594 91.952 11.6908 91.2555 12.3536C90.078 13.4272 89.7761 14.9416 89.7761 16.4857C89.7761 20.2832 92.6818 22.1621 94.8312 22.1621C96.2541 22.1621 97.1232 22.003 97.7633 21.2707C98.026 20.965 98.2154 20.6035 98.3173 20.2137C98.3637 19.9618 98.3969 19.8823 98.5263 19.8823C98.6556 19.8823 98.6689 19.9949 98.6689 20.1209C98.6035 20.8365 98.486 21.5464 98.3173 22.2449C98.3008 22.3538 98.2527 22.4554 98.179 22.5373C98.1053 22.6192 98.0093 22.6776 97.9027 22.7056C97.2592 22.964 96.0419 23.0701 95.0136 23.0701C92.8145 23.0701 90.9735 22.5962 89.5108 21.3337" fill="white"/>
<path d="M106.368 17.894C106.448 17.894 106.464 17.8443 106.448 17.7946L105.005 13.8579C104.985 13.795 104.972 13.7154 104.922 13.7154C104.872 13.7154 104.842 13.795 104.826 13.8579L103.35 17.7946C103.35 17.8576 103.35 17.9073 103.416 17.9073L106.368 17.894ZM103.098 18.6893C103.018 18.6893 102.985 18.7224 102.948 18.8152L102.083 21.0984C101.952 21.4084 101.871 21.7372 101.844 22.0726C101.844 22.3543 101.986 22.5663 102.484 22.5663H102.723C102.918 22.5663 102.965 22.5962 102.965 22.6923C102.965 22.7883 102.869 22.8513 102.693 22.8513C102.179 22.8513 101.492 22.8016 100.995 22.8016C100.819 22.8016 99.9365 22.8513 99.104 22.8513C98.8917 22.8513 98.7988 22.8215 98.7988 22.6923C98.7988 22.563 98.8619 22.5663 98.9879 22.5663C99.1553 22.564 99.3225 22.5529 99.4888 22.5332C100.225 22.4371 100.524 21.8936 100.852 21.0984L104.872 11.0811C105.065 10.6204 105.161 10.4448 105.323 10.4448C105.486 10.4448 105.565 10.5906 105.725 10.9551C106.109 11.8333 108.677 18.3381 109.705 20.7637C110.309 22.2018 110.786 22.4338 111.118 22.5332C111.337 22.5744 111.559 22.5954 111.781 22.5962C111.911 22.5962 111.987 22.5962 111.987 22.7221C111.987 22.848 111.844 22.8811 111.254 22.8811C110.664 22.8811 109.506 22.8811 108.219 22.8513C107.93 22.8314 107.738 22.8314 107.738 22.7221C107.738 22.6127 107.804 22.5962 107.964 22.5796C108.002 22.5696 108.038 22.5511 108.068 22.5254C108.099 22.4997 108.123 22.4676 108.139 22.4313C108.155 22.395 108.163 22.3556 108.162 22.3158C108.161 22.2761 108.151 22.2372 108.133 22.2018L106.849 18.8219C106.839 18.7878 106.818 18.758 106.789 18.7376C106.76 18.7171 106.725 18.7071 106.69 18.7092L103.098 18.6893Z" fill="white"/>
<path d="M114.279 16.6943C114.279 16.8667 114.309 16.9362 114.422 16.9793C114.818 17.0927 115.228 17.1474 115.639 17.1417C116.286 17.1417 116.492 17.0754 116.777 16.8667C117.258 16.5353 117.722 15.7831 117.722 14.4742C117.722 12.2142 116.22 11.5581 115.274 11.5581C114.989 11.5444 114.702 11.5666 114.422 11.6244C114.309 11.6542 114.279 11.7205 114.279 11.8464V16.6943ZM112.382 15.4351C112.382 13.0095 112.382 12.5655 112.352 12.0552C112.322 11.5449 112.193 11.2566 111.662 11.1439C111.454 11.1066 111.243 11.0899 111.032 11.0942C110.863 11.0942 110.767 11.0644 110.767 10.9517C110.767 10.839 110.876 10.8059 111.118 10.8059C111.971 10.8059 112.976 10.8589 113.314 10.8589C113.861 10.8589 115.082 10.8059 115.576 10.8059C116.591 10.8059 117.659 10.9053 118.528 11.4952C118.865 11.7516 119.138 12.0818 119.327 12.4604C119.515 12.8391 119.614 13.2559 119.616 13.6789C119.616 14.8586 119.115 15.9455 117.5 17.251C118.93 19.0371 120.034 20.4554 120.98 21.4462C121.878 22.3674 122.538 22.4801 122.777 22.5298C122.927 22.5601 123.079 22.5767 123.232 22.5795C123.354 22.5795 123.417 22.6259 123.417 22.7021C123.417 22.8346 123.311 22.8644 123.116 22.8644H121.59C120.691 22.8644 120.293 22.7849 119.875 22.5629C119.185 22.1951 118.575 21.4462 117.676 20.2168C117.036 19.3387 116.296 18.2551 116.09 18.0165C116.055 17.9768 116.011 17.9461 115.961 17.9271C115.911 17.908 115.858 17.9012 115.805 17.9072L114.405 17.874C114.322 17.874 114.279 17.9072 114.279 17.9999V18.2253C114.279 19.7065 114.279 20.9657 114.356 21.6351C114.405 22.099 114.501 22.4502 114.986 22.5165C115.228 22.543 115.576 22.5795 115.772 22.5795C115.898 22.5795 115.961 22.6259 115.961 22.7021C115.961 22.7783 115.848 22.8644 115.629 22.8644C114.701 22.8644 113.513 22.8147 113.274 22.8147C112.966 22.8147 111.947 22.8644 111.314 22.8644C111.108 22.8644 110.982 22.8147 110.982 22.7021C110.982 22.5894 111.052 22.5795 111.244 22.5795C111.437 22.5767 111.629 22.5556 111.818 22.5165C112.15 22.4502 112.216 22.099 112.286 21.6351C112.362 20.9723 112.362 19.7065 112.362 18.2385L112.382 15.4351Z" fill="white"/>
<path d="M125.503 17.1881C125.503 18.8781 125.523 20.1041 125.54 20.4123C125.54 20.81 125.586 21.4462 125.716 21.6218C125.921 21.9267 126.548 22.2614 127.812 22.2614C129.47 22.2614 130.545 21.93 131.504 21.1115C132.532 20.2334 132.854 18.7919 132.854 17.1351C132.854 15.1071 132.001 13.8015 131.315 13.1586C129.835 11.7536 127.998 11.5614 126.757 11.5614C126.407 11.5576 126.057 11.5943 125.716 11.6708C125.649 11.6941 125.594 11.7403 125.558 11.801C125.523 11.8618 125.511 11.9331 125.523 12.0022C125.503 12.5456 125.503 13.9307 125.503 15.1932V17.1881ZM123.513 15.4351C123.513 13.0095 123.513 12.5655 123.483 12.0552C123.454 11.5449 123.324 11.2566 122.79 11.1439C122.583 11.1066 122.373 11.0899 122.163 11.0942C121.987 11.0942 121.895 11.0644 121.895 10.9517C121.895 10.839 122.007 10.8059 122.249 10.8059C123.095 10.8059 124.11 10.8589 124.571 10.8589C125.072 10.8589 126.084 10.8059 127.042 10.8059C129.049 10.8059 131.729 10.8059 133.477 12.6284C134.499 13.7252 135.046 15.1803 135 16.6778C135.021 18.3311 134.396 19.9276 133.258 21.1281C132.512 21.877 130.85 23.0103 127.878 23.0103C127.301 23.0103 126.644 22.9605 126.037 22.9142C125.43 22.8678 124.863 22.8147 124.462 22.8147C124.286 22.8147 123.934 22.8147 123.55 22.8346C123.165 22.8545 122.764 22.8644 122.442 22.8644C122.236 22.8644 122.11 22.8147 122.11 22.7021C122.11 22.5894 122.176 22.5795 122.369 22.5795C122.563 22.5771 122.756 22.556 122.946 22.5165C123.261 22.4502 123.347 22.099 123.41 21.6351C123.49 20.9723 123.49 19.7065 123.49 18.2385L123.513 15.4351Z" fill="white"/>
</g>
<defs>
<clipPath id="clip0">
<rect width="135" height="27" fill="white"/>
</clipPath>
</defs>
</svg>
