<?xml version="1.0" encoding="utf-8"?>
<!-- Generator: Adobe Illustrator 23.0.1, SVG Export Plug-In . SVG Version: 6.00 Build 0)  -->
<svg version="1.1" id="Layer_1" xmlns="http://www.w3.org/2000/svg" xmlns:xlink="http://www.w3.org/1999/xlink" x="0px" y="0px"
	 viewBox="0 0 482.9 233.2" style="enable-background:new 0 0 482.9 233.2;" xml:space="preserve">
<style type="text/css">
	.st0{fill:#FDBE11;}
	.st1{fill:#42566B;}
	.st2{fill:#FFFFFF;}
	.st3{fill:#00A0D8;}
	.st4{fill:#BFDEFF;}
	.st5{fill:#EB6D6A;}
	.st6{fill:#52C8D1;}
	.st7{opacity:0.4;fill:#52C8D1;}
	.st8{clip-path:url(#SVGID_2_);}
</style>
<g>
	<g>
		<g>
			<g>
				<circle class="st0" cx="205.4" cy="76.2" r="11.4"/>
				<path class="st1" d="M205.4,88.6c-6.8,0-12.4-5.6-12.4-12.4c0-6.8,5.6-12.4,12.4-12.4c6.8,0,12.4,5.6,12.4,12.4
					C217.8,83,212.2,88.6,205.4,88.6z M205.4,65.7c-5.7,0-10.4,4.7-10.4,10.4c0,5.7,4.7,10.4,10.4,10.4c5.7,0,10.4-4.7,10.4-10.4
					C215.8,70.4,211.1,65.7,205.4,65.7z"/>
			</g>
		</g>
		<g>
			<path class="st1" d="M207.1,73.5c-0.5-0.4-0.9-0.7-1.5-0.7c-0.7,0-1.1,0.4-1.1,1.1c0,1.6,3.6,1.3,3.6,3.9c0,1.3-0.7,2.2-2,2.4
				v1.4h-1.1v-1.3c-0.8-0.1-1.7-0.4-2.3-1l0.7-1c0.6,0.5,1.2,0.8,2,0.8c0.9,0,1.3-0.4,1.3-1.1c0-1.7-3.6-1.5-3.6-4
				c0-1.2,0.8-2.1,2-2.3v-1.3h1.1v1.3c0.8,0.1,1.4,0.5,1.9,1L207.1,73.5z"/>
		</g>
	</g>
	<g>
		<g>
			
				<rect x="204.2" y="96.1" transform="matrix(-0.2537 0.9673 -0.9673 -0.2537 401.2261 -43.2601)" class="st2" width="26.3" height="74.1"/>
			<path class="st1" d="M250.5,156.5l-1-0.3l-72.6-19l7.2-27.4l73.6,19.3L250.5,156.5z M179.4,135.8l69.7,18.3l6.2-23.5l-69.7-18.3
				L179.4,135.8z"/>
		</g>
		<g>
			
				<rect x="208.5" y="100.5" transform="matrix(0.2537 -0.9673 0.9673 0.2537 33.3772 309.5638)" class="st2" width="17.5" height="65.3"/>
			<g>
				<path class="st1" d="M247.4,151.1l-65.1-17.1l5-18.9l65.1,17.1L247.4,151.1z M184.7,132.6l61.2,16.1l3.9-15l-61.2-16.1
					L184.7,132.6z"/>
			</g>
		</g>
		<g>
			<g>
				<path class="st2" d="M214.2,143.8c-4.5-1.2-6.9-6.8-5.5-12.5c1.4-5.7,6.2-9.3,10.7-8.1c4.5,1.2,6.9,6.8,5.5,12.5
					C223.5,141.4,218.7,145,214.2,143.8z"/>
				<path class="st1" d="M215.9,145c-0.7,0-1.3-0.1-2-0.3c-5-1.3-7.8-7.5-6.2-13.7c0.9-3.4,2.9-6.3,5.6-7.8c2-1.2,4.3-1.5,6.3-1
					c5,1.3,7.8,7.5,6.2,13.7c-0.9,3.4-2.9,6.3-5.6,7.8C218.9,144.6,217.4,145,215.9,145z M217.7,124c-1.1,0-2.2,0.3-3.3,1
					c-2.2,1.3-3.9,3.7-4.7,6.6c-1.3,5.1,0.8,10.2,4.8,11.2c1.6,0.4,3.2,0.2,4.8-0.8c2.2-1.3,3.9-3.7,4.7-6.6
					c1.3-5.1-0.8-10.2-4.8-11.2C218.7,124.1,218.2,124,217.7,124z"/>
			</g>
			<g>
				<path class="st3" d="M220.4,130.6c-0.5-0.7-0.9-1.2-1.7-1.4c-0.9-0.2-1.6,0.1-1.8,1c-0.5,2.1,4.2,2.9,3.3,6.3
					c-0.4,1.6-1.7,2.6-3.5,2.4l-0.5,1.8l-1.4-0.4l0.4-1.7c-1-0.4-2-1.2-2.6-2.1l1.2-1.1c0.6,0.8,1.3,1.5,2.3,1.7
					c1.1,0.3,1.8-0.1,2-1c0.6-2.3-4.1-3.2-3.3-6.4c0.4-1.6,1.7-2.5,3.3-2.3l0.5-1.7l1.4,0.4l-0.4,1.7c1.1,0.4,1.7,1.2,2.1,2
					L220.4,130.6z"/>
			</g>
		</g>
		<g>
			<path class="st2" d="M236.2,139.9c-1.3-0.4-2.1-1.7-1.8-3.1c0.4-1.3,1.7-2.1,3.1-1.8c1.3,0.4,2.1,1.7,1.8,3.1
				C238.9,139.5,237.5,140.3,236.2,139.9z"/>
			<path class="st1" d="M236.8,141c-0.3,0-0.6,0-0.9-0.1l0,0c-1.9-0.5-3-2.4-2.5-4.3c0.5-1.9,2.4-3,4.3-2.5c1.9,0.5,3,2.4,2.5,4.3
				C239.8,140,238.4,141,236.8,141z M236.8,136c-0.7,0-1.3,0.4-1.5,1.1c-0.2,0.8,0.3,1.6,1.1,1.8l0,0c0.4,0.1,0.8,0,1.1-0.2
				c0.3-0.2,0.6-0.5,0.7-0.9c0.2-0.8-0.3-1.6-1.1-1.8C237.1,136,236.9,136,236.8,136z"/>
		</g>
		<g>
			<path class="st2" d="M198.2,129.9c-1.3-0.4-2.1-1.7-1.8-3.1c0.4-1.3,1.7-2.1,3.1-1.8c1.3,0.4,2.1,1.7,1.8,3.1
				C200.9,129.5,199.5,130.3,198.2,129.9z"/>
			<path class="st1" d="M198.8,131c-0.3,0-0.6,0-0.9-0.1l0,0c-1.9-0.5-3-2.4-2.5-4.3c0.5-1.9,2.4-3,4.3-2.5c1.9,0.5,3,2.4,2.5,4.3
				C201.8,130,200.4,131,198.8,131z M198.8,126c-0.7,0-1.3,0.4-1.5,1.1c-0.2,0.8,0.3,1.6,1.1,1.8l0,0c0.4,0.1,0.8,0,1.1-0.2
				c0.3-0.2,0.6-0.5,0.7-0.9c0.2-0.8-0.3-1.6-1.1-1.8C199.1,126,198.9,126,198.8,126z"/>
		</g>
	</g>
	<g>
		<g>
			
				<rect x="272.2" y="130.2" transform="matrix(0.52 0.8541 -0.8541 0.52 279.7965 -163.4494)" class="st2" width="26.3" height="74.1"/>
			<path class="st1" d="M260.2,199.1l-14.7-24.2l0.9-0.5l64.1-39l14.7,24.2l-0.9,0.5L260.2,199.1z M248.2,175.6l12.6,20.8l61.5-37.5
				l-12.6-20.8L248.2,175.6z"/>
		</g>
		<g>
			
				<rect x="252.7" y="158.5" transform="matrix(0.8541 -0.52 0.52 0.8541 -45.3515 172.7756)" class="st2" width="65.3" height="17.5"/>
			<g>
				<path class="st1" d="M261.7,193.1l-10.2-16.7l57.5-35l10.2,16.7L261.7,193.1z M254.3,177.1l8.1,13.3l54.1-32.9l-8.1-13.3
					L254.3,177.1z"/>
			</g>
		</g>
		<g>
			<g>
				<path class="st2" d="M290.8,176.8c-4,2.4-9.7,0.3-12.8-4.7c-3.1-5-2.4-10.9,1.6-13.3c4-2.4,9.7-0.3,12.8,4.7
					C295.5,168.5,294.8,174.5,290.8,176.8z"/>
				<path class="st1" d="M287.2,178.8c-3.7,0-7.6-2.3-10-6.2c-1.9-3-2.5-6.5-1.8-9.5c0.6-2.3,1.9-4.1,3.7-5.2
					c4.4-2.7,10.8-0.4,14.1,5c1.9,3,2.5,6.5,1.8,9.5c-0.6,2.3-1.9,4.1-3.7,5.2l0,0C290.1,178.4,288.7,178.8,287.2,178.8z
					 M283.3,158.8c-1.1,0-2.2,0.3-3.1,0.8c-1.4,0.8-2.4,2.2-2.8,4c-0.6,2.5-0.1,5.4,1.5,8c2.8,4.5,7.9,6.5,11.4,4.4l0,0
					c1.4-0.8,2.4-2.2,2.8-4c0.6-2.5,0.1-5.4-1.5-8C289.6,160.8,286.3,158.8,283.3,158.8z"/>
			</g>
			<g>
				<path class="st3" d="M285.7,163.2c-0.9-0.2-1.5-0.2-2.2,0.3c-0.8,0.5-1.1,1.2-0.6,2c1.1,1.8,5-1.1,6.9,2c0.9,1.4,0.7,3-0.7,4.2
					l0.9,1.6l-1.2,0.7l-0.9-1.5c-1,0.5-2.2,0.7-3.3,0.4l0.1-1.7c1.1,0.1,2,0.1,2.8-0.4c1-0.6,1.2-1.4,0.7-2.2c-1.2-2-5.1,0.8-6.9-2
					c-0.9-1.4-0.6-2.9,0.6-4l-0.9-1.5l1.2-0.7l0.9,1.5c1-0.5,2-0.4,2.9-0.2L285.7,163.2z"/>
			</g>
		</g>
		<g>
			<path class="st2" d="M303.3,158.3c-1.2,0.7-2.7,0.3-3.4-0.8s-0.3-2.7,0.8-3.4c1.2-0.7,2.7-0.3,3.4,0.8S304.5,157.6,303.3,158.3z"
				/>
			<path class="st1" d="M302,159.7c-1.2,0-2.3-0.6-3-1.7c-1-1.6-0.5-3.8,1.2-4.8c1.6-1,3.8-0.5,4.8,1.2c1,1.6,0.5,3.8-1.2,4.8
				C303.3,159.5,302.6,159.7,302,159.7z M302,154.7c-0.3,0-0.5,0.1-0.8,0.2c-0.7,0.4-0.9,1.4-0.5,2.1c0.4,0.7,1.4,0.9,2.1,0.5
				c0.7-0.4,0.9-1.4,0.5-2.1C303,155,302.5,154.7,302,154.7z"/>
		</g>
		<g>
			<path class="st2" d="M269.7,178.7c-1.2,0.7-2.7,0.3-3.4-0.8s-0.3-2.7,0.8-3.4c1.2-0.7,2.7-0.3,3.4,0.8
				C271.3,176.5,270.9,178,269.7,178.7z"/>
			<path class="st1" d="M268.4,180.1c-1.2,0-2.3-0.6-3-1.7c-1-1.6-0.5-3.8,1.2-4.8c1.6-1,3.8-0.5,4.8,1.2c1,1.6,0.5,3.8-1.2,4.8h0
				C269.7,179.9,269.1,180.1,268.4,180.1z M268.4,175.1c-0.3,0-0.5,0.1-0.8,0.2c-0.7,0.4-0.9,1.4-0.5,2.1c0.2,0.3,0.5,0.6,0.9,0.7
				c0.4,0.1,0.8,0,1.1-0.2c0.7-0.4,0.9-1.4,0.5-2.1C269.4,175.4,268.9,175.1,268.4,175.1z"/>
		</g>
	</g>
	<g>
		<g>
			<path class="st4" d="M89.3,93.2h-5.7V64.5h5.7V93.2z M85.5,91.2h1.7V66.5h-1.7V91.2z"/>
		</g>
		<g>
			<path class="st4" d="M99.7,98.3H80.6c-1.5,0-2.7-1.2-2.7-2.7V60.9c0-1.5,1.2-2.7,2.7-2.7h19.1c1.5,0,2.7,1.2,2.7,2.7v34.6
				C102.5,97,101.2,98.3,99.7,98.3z M80.6,60.2c-0.4,0-0.7,0.3-0.7,0.7v34.6c0,0.4,0.3,0.7,0.7,0.7h19.1c0.4,0,0.7-0.3,0.7-0.7V60.9
				c0-0.4-0.3-0.7-0.7-0.7H80.6z"/>
		</g>
		<g>
			<path class="st4" d="M97,93.2h-5.7V79.9H97V93.2z M93.3,91.2H95v-9.3h-1.7V91.2z"/>
		</g>
		<g>
			<path class="st4" d="M97,78.7h-5.7v-14H97V78.7z M93.3,76.7H95v-10h-1.7V76.7z"/>
		</g>
	</g>
	<g>
		<circle class="st2" cx="250.9" cy="48.4" r="5"/>
		<path class="st1" d="M250.9,54.4c-3.3,0-6-2.7-6-6c0-3.3,2.7-6,6-6c3.3,0,6,2.7,6,6C256.9,51.8,254.2,54.4,250.9,54.4z
			 M250.9,44.4c-2.2,0-4,1.8-4,4c0,2.2,1.8,4,4,4c2.2,0,4-1.8,4-4C254.9,46.2,253.1,44.4,250.9,44.4z"/>
	</g>
	<g>
		<g>
			<rect x="263.7" y="27.5" class="st4" width="2" height="7"/>
		</g>
		<g>
			<rect x="261.2" y="30" class="st4" width="7" height="2"/>
		</g>
	</g>
	<g>
		<g>
			<rect x="233.3" y="66.3" class="st4" width="2" height="7"/>
		</g>
		<g>
			<rect x="230.8" y="68.8" class="st4" width="7" height="2"/>
		</g>
	</g>
	<g>
		<g>
			<path class="st4" d="M269.9,142.7h-9.3c-0.6,0-1-0.4-1-1c0-0.6,0.4-1,1-1h9.3c0.6,0,1,0.4,1,1
				C270.9,142.2,270.4,142.7,269.9,142.7z"/>
		</g>
		<g>
			<path class="st4" d="M276.4,142.7h-2.7c-0.6,0-1-0.4-1-1c0-0.6,0.4-1,1-1h2.7c0.6,0,1,0.4,1,1C277.4,142.2,277,142.7,276.4,142.7
				z"/>
		</g>
	</g>
	<g>
		<g>
			<path class="st4" d="M151.7,220.2h-9.3c-0.6,0-1-0.4-1-1c0-0.6,0.4-1,1-1h9.3c0.6,0,1,0.4,1,1
				C152.7,219.7,152.3,220.2,151.7,220.2z"/>
		</g>
		<g>
			<path class="st4" d="M158.3,220.2h-2.7c-0.6,0-1-0.4-1-1c0-0.6,0.4-1,1-1h2.7c0.6,0,1,0.4,1,1
				C159.3,219.7,158.8,220.2,158.3,220.2z"/>
		</g>
	</g>
	<g>
		<g>
			<path class="st4" d="M319,185.6h-9.3c-0.6,0-1-0.4-1-1c0-0.6,0.4-1,1-1h9.3c0.6,0,1,0.4,1,1C320,185.1,319.5,185.6,319,185.6z"/>
		</g>
		<g>
			<path class="st4" d="M325.5,185.6h-2.7c-0.6,0-1-0.4-1-1c0-0.6,0.4-1,1-1h2.7c0.6,0,1,0.4,1,1
				C326.5,185.1,326.1,185.6,325.5,185.6z"/>
		</g>
	</g>
	<g>
		<g>
			<path class="st4" d="M218.1,52.8h-9.3c-0.6,0-1-0.4-1-1c0-0.6,0.4-1,1-1h9.3c0.6,0,1,0.4,1,1C219.1,52.3,218.7,52.8,218.1,52.8z"
				/>
		</g>
		<g>
			<path class="st4" d="M224.7,52.8H222c-0.6,0-1-0.4-1-1c0-0.6,0.4-1,1-1h2.7c0.6,0,1,0.4,1,1C225.7,52.3,225.3,52.8,224.7,52.8z"
				/>
		</g>
	</g>
	<g>
		<g>
			<path class="st4" d="M367.2,28.5h-9.3c-0.6,0-1-0.4-1-1c0-0.6,0.4-1,1-1h9.3c0.6,0,1,0.4,1,1C368.2,28.1,367.7,28.5,367.2,28.5z"
				/>
		</g>
		<g>
			<path class="st4" d="M373.8,28.5h-2.7c-0.6,0-1-0.4-1-1c0-0.6,0.4-1,1-1h2.7c0.6,0,1,0.4,1,1C374.8,28.1,374.3,28.5,373.8,28.5z"
				/>
		</g>
	</g>
	<g>
		<g>
			<g>
				<g>
					<g>
						<path class="st2" d="M130.4,205l2.9-20.1l1.8-19.1c0.1-1.5,2.3-1.6,2.5-0.1l0.8,4.6c0,0,0,0,0,0c0,0.6-0.4,15.3,0.5,15.8
							c1,0.5-1.5,8,3,11.2c4.3,3.1,13.3,1.6,11.8-9.1c-0.4-2.7-0.7-8.4-0.8-8.7c0,0,0,0,0,0l0.3-4.2c0,0,0,0,0,0l-5.6-34.3
							c-0.4-2.5,2-4.4,4.4-3.5c0,0,0.1,0.1,0.1,0.1l2.8,7.6c0,0,0,0,0,0c0.1,0.4,4.8,19.6,8.4,22.9c3.6,3.3,4.6,4.2,11.4,1.6
							c0.6-0.1-2.7-7.2-2.9-7.6c0,0,0,0,0,0l-0.3-2.4c0,0,0,0,0,0c-0.3-0.8-10.6-28.1-10.3-29.4c0.3-1.3-3.8-5.6-7.3-8
							c-3.5-2.4-35.3-12.9-36.2-13.2c0,0,0,0,0,0c-5.5-0.2-7.5-0.8-10.1,1.1c-9.2,7.1-0.7-0.4-33,29.5c0,0,0,0,0,0
							c-3,2.4-8.8,7.7-11.5,6.7l-17.9-6.2c-0.1,0-0.2,0-0.2,0.1l-16.6,30c-0.1,0.1,0,0.2,0.1,0.2c32.6,9.8,31.7,9.1,34,11.3
							c1.5,1.4,4.4,3.6,9.9,5.6c9.3,3.4,14-5.4,27.3-13c0,0,0.1,0,0.1,0l2,0.7c0.1,0,0.1,0.1,0.1,0.2l-0.7,3c0,0.1-0.1,0.1-0.2,0.1
							c-21.5,4.7,1.8,30.3,14.6,5.2c0,0,0,0,0,0l3.4-15.8c0.4-1.8,2-3.1,3.8-3.2l0,0c0.1,0,0.2,0.1,0.2,0.2l-2.7,12l-2.4,11.5
							c0,0,0,0,0,0c0,0.2-1.5,5.1-1,8c1.1,6.4,4.9,11.3,13.4,9.2C130.3,205.1,130.4,205,130.4,205z"/>
						<path class="st1" d="M126.5,206.6c-2.1,0-4-0.5-5.5-1.5c-2.6-1.7-4.4-4.8-5.1-9c-0.5-3,0.9-7.9,1-8.4l2.4-11.5l2.4-10.8
							c-0.9,0.4-1.6,1.2-1.8,2.2l-3.4,15.8c0,0,0,0.1,0,0.1c0,0,0,0.1-0.1,0.2c-4.3,8.5-10.8,12.7-17.3,11.1c-4.6-1.1-8-5.1-7.9-9.1
							c0-1.9,1-6.5,9.1-8.5l0.4-1.8l-0.9-0.3c-4.2,2.4-7.5,5-10.5,7.2c-6.1,4.7-10.6,8.1-17.3,5.6c-5.6-2-8.7-4.3-10.3-5.8
							c-1.6-1.6-1.6-1.6-17.4-6.2c-4.2-1.2-9.5-2.8-16.2-4.8c-0.3-0.1-0.6-0.3-0.7-0.7c-0.1-0.3-0.1-0.7,0.1-1l16.6-30
							c0.3-0.5,0.9-0.7,1.4-0.5l17.9,6.2c1.8,0.6,6.8-3.5,9.2-5.5c0.5-0.4,0.9-0.7,1.2-1c7.3-6.7,12.5-11.5,16.3-15.1
							c10.4-9.6,10.4-9.6,13.5-11.9c0.8-0.6,1.8-1.4,3.3-2.5c2.4-1.8,4.4-1.7,8-1.5c0.8,0,1.7,0.1,2.7,0.1c0.1,0,0.2,0,0.2,0
							c0,0,0.1,0,0.1,0c3.4,1.1,33,10.9,36.5,13.4c2.2,1.6,8.1,6.5,7.7,9c0.2,1.9,6.2,18.3,10.2,28.9c0,0,0,0.1,0,0.1
							c0,0,0,0.1,0,0.1l0.3,2.3c3.5,7.3,3.2,7.9,2.9,8.3c-0.1,0.2-0.3,0.4-0.6,0.5l0,0c-7.1,2.7-8.5,1.8-12.4-1.8
							c-3.7-3.4-8.2-21.4-8.7-23.4l-2.6-7.1c-0.7-0.2-1.3,0-1.9,0.4c-0.6,0.5-0.9,1.3-0.8,2.1l5.6,34.3c0,0,0,0.1,0,0.1
							c0,0,0,0.1,0,0.1l-0.3,4.2c0,0.6,0.4,5.9,0.8,8.5c0.9,6.6-2,9.4-3.8,10.5c-2.8,1.7-6.9,1.5-9.6-0.4c-3.5-2.5-3.3-7.1-3.2-9.9
							c0-0.5,0.1-1.2,0-1.5c-0.6-0.6-1.1-3-0.8-16.4l-0.8-4.5c0-0.1,0-0.2-0.3-0.2c-0.3,0-0.3,0.2-0.3,0.3l-1.8,19.1l-2.9,20.2
							c0,0,0,0,0,0c-0.1,0.5-0.4,0.8-0.9,1C129.1,206.4,127.7,206.6,126.5,206.6z M130.4,205L130.4,205L130.4,205z M118.8,188.3
							c-0.6,1.9-1.3,5.5-1,7.5c0.4,2.5,1.5,5.9,4.2,7.6c1.9,1.2,4.4,1.5,7.4,0.9l2.8-19.6l1.8-19.1c0.1-1.2,1-2,2.2-2.1
							c1.2-0.1,2.1,0.7,2.4,1.9l0.8,4.6c0,0,0,0.1,0,0.1c0,0,0,0.1,0,0.1c-0.2,7.5-0.1,13.8,0.3,15c0.6,0.5,0.5,1.5,0.5,3
							c-0.1,2.5-0.3,6.3,2.3,8.1c1.8,1.3,5,1.8,7.4,0.3c2.4-1.4,3.4-4.5,2.8-8.5c-0.4-2.8-0.8-8.5-0.8-8.7c0,0,0-0.1,0-0.1l0.3-4.1
							l-5.6-34.2c-0.2-1.5,0.3-3,1.5-4c1.2-1,2.8-1.2,4.2-0.6c0.3,0.1,0.6,0.4,0.7,0.7l2.8,7.6c0,0,0,0.1,0,0.1
							c1.6,6.7,5.4,19.9,8.1,22.4c3.4,3.1,4.1,3.8,9.7,1.7c-0.4-1.1-1.5-3.7-2.8-6.5c0,0,0-0.1-0.1-0.1c0,0,0-0.1,0-0.2l-0.3-2.4
							c-7.1-18.8-10.5-28.8-10.3-29.9c-0.1-0.8-3.3-4.5-6.9-7c-2.8-1.9-26.7-10-35.8-13.1c-1,0-1.9-0.1-2.6-0.1
							c-3.4-0.2-4.9-0.3-6.7,1.1c-1.5,1.2-2.5,1.9-3.4,2.5c-3,2.2-3,2.2-13.3,11.8c-3.8,3.5-9,8.4-16.3,15.1c0,0,0,0-0.1,0.1
							c-0.4,0.3-0.8,0.7-1.3,1c-4.5,3.8-8.5,6.8-11.2,5.9l-17.2-6l-15.7,28.5c6.3,1.9,11.3,3.4,15.2,4.5c16.2,4.8,16.2,4.8,18.1,6.6
							c1.5,1.4,4.3,3.5,9.6,5.4c5.7,2.1,9.6-0.9,15.4-5.3c3.1-2.3,6.5-5,11.1-7.6c0.3-0.2,0.7-0.2,1-0.1l2,0.7
							c0.6,0.2,0.9,0.8,0.8,1.4l-0.7,3c-0.1,0.4-0.5,0.8-0.9,0.9c-5,1.1-7.9,3.5-8,6.6c0,3.1,2.8,6.3,6.4,7.2
							c2.6,0.7,9.3,1,14.9-9.9l3.4-15.7c0.5-2.3,2.5-3.9,4.8-4c0.4,0,0.7,0.1,1,0.4c0.2,0.3,0.3,0.6,0.2,1l-2.7,12l-2.4,11.5
							C118.9,188.2,118.8,188.3,118.8,188.3L118.8,188.3z M130,204.1C130,204.1,130,204.1,130,204.1C130,204.1,130,204.1,130,204.1z
							 M101.4,175.6C101.5,175.6,101.5,175.6,101.4,175.6L101.4,175.6z M99.5,175C99.5,175,99.5,175,99.5,175L99.5,175z
							 M174.5,168.4L174.5,168.4L174.5,168.4z M174.5,168.4L174.5,168.4L174.5,168.4z M174.6,168.4L174.6,168.4L174.6,168.4z
							 M122.1,164.2C122.1,164.2,122.1,164.2,122.1,164.2L122.1,164.2z M45.7,140.4L45.7,140.4C45.7,140.4,45.7,140.4,45.7,140.4z
							 M162.1,130.1C162.1,130.1,162.1,130.1,162.1,130.1C162.1,130.1,162.1,130.1,162.1,130.1z"/>
					</g>
				</g>
			</g>
			<g>
				<g>
					<g>
						<g>
							<g>
								<path class="st2" d="M193.1,69.8h-65.7V45.3c0-13.3,65.7-13.3,65.7,0V69.8z"/>
								<path class="st1" d="M193.1,70.8h-65.7c-0.6,0-1-0.4-1-1V45.3c0-7.6,17-11,33.9-11c16.8,0,33.9,3.4,33.9,11v24.5
									C194.1,70.3,193.6,70.8,193.1,70.8z M128.4,68.8h63.7V45.3c0-2.5-3.4-4.9-9.5-6.5c-5.9-1.6-13.8-2.5-22.3-2.5
									c-18.2,0-31.9,3.9-31.9,9V68.8z"/>
							</g>
						</g>
					</g>
					<g>
						<g>
							<path class="st3" d="M205.4,193.1c0,7.7-6.2,13.9-13.9,13.9H129c-7.7,0-13.9-6.2-13.9-13.9V83.6c0-7.7,6.2-13.9,13.9-13.9
								h62.5c7.7,0,13.9,6.2,13.9,13.9V193.1z"/>
							<path class="st1" d="M191.5,208H129c-8.2,0-14.9-6.7-14.9-14.9V83.6c0-8.2,6.7-14.9,14.9-14.9h62.5c8.2,0,14.9,6.7,14.9,14.9
								v109.5C206.4,201.3,199.7,208,191.5,208z M129,70.7c-7.1,0-12.9,5.8-12.9,12.9v109.5c0,7.1,5.8,12.9,12.9,12.9h62.5
								c7.1,0,12.9-5.8,12.9-12.9V83.6c0-7.1-5.8-12.9-12.9-12.9H129z"/>
						</g>
					</g>
					<g>
						<g>
							<g>
								<path class="st4" d="M140.1,133.4c0,3-2.5,5.5-5.5,5.5c-3,0-5.5-2.5-5.5-5.5c0-3,2.5-5.5,5.5-5.5
									C137.6,127.9,140.1,130.4,140.1,133.4z"/>
								<path class="st1" d="M134.6,139.9c-3.6,0-6.5-2.9-6.5-6.5s2.9-6.5,6.5-6.5s6.5,2.9,6.5,6.5S138.2,139.9,134.6,139.9z
									 M134.6,128.9c-2.5,0-4.5,2-4.5,4.5s2,4.5,4.5,4.5s4.5-2,4.5-4.5S137.1,128.9,134.6,128.9z"/>
							</g>
						</g>
					</g>
					<g>
						<g>
							<g>
								<path class="st4" d="M157.1,133.4c0,3-2.4,5.5-5.5,5.5c-3,0-5.5-2.5-5.5-5.5c0-3,2.4-5.5,5.5-5.5
									C154.6,127.9,157.1,130.4,157.1,133.4z"/>
								<path class="st1" d="M151.6,139.9c-3.6,0-6.5-2.9-6.5-6.5s2.9-6.5,6.5-6.5s6.5,2.9,6.5,6.5S155.2,139.9,151.6,139.9z
									 M151.6,128.9c-2.5,0-4.5,2-4.5,4.5s2,4.5,4.5,4.5c2.5,0,4.5-2,4.5-4.5S154.1,128.9,151.6,128.9z"/>
							</g>
						</g>
					</g>
					<g>
						<g>
							<g>
								<path class="st4" d="M174.1,133.4c0,3-2.5,5.5-5.5,5.5c-3,0-5.5-2.5-5.5-5.5c0-3,2.5-5.5,5.5-5.5
									C171.7,127.9,174.1,130.4,174.1,133.4z"/>
								<path class="st1" d="M168.6,139.9c-3.6,0-6.5-2.9-6.5-6.5s2.9-6.5,6.5-6.5c3.6,0,6.5,2.9,6.5,6.5S172.2,139.9,168.6,139.9z
									 M168.6,128.9c-2.5,0-4.5,2-4.5,4.5s2,4.5,4.5,4.5c2.5,0,4.5-2,4.5-4.5S171.1,128.9,168.6,128.9z"/>
							</g>
						</g>
					</g>
					<g>
						<g>
							<g>
								<path class="st4" d="M191.2,133.4c0,3-2.4,5.5-5.5,5.5c-3,0-5.5-2.5-5.5-5.5c0-3,2.5-5.5,5.5-5.5
									C188.7,127.9,191.2,130.4,191.2,133.4z"/>
								<path class="st1" d="M185.7,139.9c-3.6,0-6.5-2.9-6.5-6.5s2.9-6.5,6.5-6.5c3.6,0,6.5,2.9,6.5,6.5S189.3,139.9,185.7,139.9z
									 M185.7,128.9c-2.5,0-4.5,2-4.5,4.5s2,4.5,4.5,4.5c2.5,0,4.5-2,4.5-4.5S188.1,128.9,185.7,128.9z"/>
							</g>
						</g>
					</g>
					<g>
						<g>
							<g>
								<path class="st4" d="M140.1,148c0,3-2.5,5.5-5.5,5.5c-3,0-5.5-2.5-5.5-5.5c0-3,2.5-5.5,5.5-5.5
									C137.6,142.5,140.1,145,140.1,148z"/>
								<path class="st1" d="M134.6,154.5c-3.6,0-6.5-2.9-6.5-6.5c0-3.6,2.9-6.5,6.5-6.5s6.5,2.9,6.5,6.5
									C141.1,151.6,138.2,154.5,134.6,154.5z M134.6,143.5c-2.5,0-4.5,2-4.5,4.5c0,2.5,2,4.5,4.5,4.5s4.5-2,4.5-4.5
									C139.1,145.5,137.1,143.5,134.6,143.5z"/>
							</g>
						</g>
					</g>
					<g>
						<g>
							<g>
								<path class="st4" d="M157.1,148c0,3-2.4,5.5-5.5,5.5c-3,0-5.5-2.5-5.5-5.5c0-3,2.4-5.5,5.5-5.5
									C154.6,142.5,157.1,145,157.1,148z"/>
								<path class="st1" d="M151.6,154.5c-3.6,0-6.5-2.9-6.5-6.5c0-3.6,2.9-6.5,6.5-6.5s6.5,2.9,6.5,6.5
									C158.1,151.6,155.2,154.5,151.6,154.5z M151.6,143.5c-2.5,0-4.5,2-4.5,4.5c0,2.5,2,4.5,4.5,4.5c2.5,0,4.5-2,4.5-4.5
									C156.1,145.5,154.1,143.5,151.6,143.5z"/>
							</g>
						</g>
					</g>
					<g>
						<g>
							<g>
								<path class="st4" d="M174.1,148c0,3-2.5,5.5-5.5,5.5c-3,0-5.5-2.5-5.5-5.5c0-3,2.5-5.5,5.5-5.5
									C171.7,142.5,174.1,145,174.1,148z"/>
								<path class="st1" d="M168.6,154.5c-3.6,0-6.5-2.9-6.5-6.5c0-3.6,2.9-6.5,6.5-6.5c3.6,0,6.5,2.9,6.5,6.5
									C175.1,151.6,172.2,154.5,168.6,154.5z M168.6,143.5c-2.5,0-4.5,2-4.5,4.5c0,2.5,2,4.5,4.5,4.5c2.5,0,4.5-2,4.5-4.5
									C173.1,145.5,171.1,143.5,168.6,143.5z"/>
							</g>
						</g>
					</g>
					<g>
						<g>
							<g>
								<path class="st4" d="M191.2,148c0,3-2.4,5.5-5.5,5.5c-3,0-5.5-2.5-5.5-5.5c0-3,2.5-5.5,5.5-5.5
									C188.7,142.5,191.2,145,191.2,148z"/>
								<path class="st1" d="M185.7,154.5c-3.6,0-6.5-2.9-6.5-6.5c0-3.6,2.9-6.5,6.5-6.5c3.6,0,6.5,2.9,6.5,6.5
									C192.2,151.6,189.3,154.5,185.7,154.5z M185.7,143.5c-2.5,0-4.5,2-4.5,4.5c0,2.5,2,4.5,4.5,4.5c2.5,0,4.5-2,4.5-4.5
									C190.2,145.5,188.1,143.5,185.7,143.5z"/>
							</g>
						</g>
					</g>
					<g>
						<g>
							<g>
								<path class="st4" d="M140.1,162.6c0,3-2.5,5.5-5.5,5.5c-3,0-5.5-2.5-5.5-5.5c0-3,2.5-5.5,5.5-5.5
									C137.6,157.1,140.1,159.6,140.1,162.6z"/>
								<path class="st1" d="M134.6,169.1c-3.6,0-6.5-2.9-6.5-6.5c0-3.6,2.9-6.5,6.5-6.5s6.5,2.9,6.5,6.5
									C141.1,166.2,138.2,169.1,134.6,169.1z M134.6,158.1c-2.5,0-4.5,2-4.5,4.5c0,2.5,2,4.5,4.5,4.5s4.5-2,4.5-4.5
									C139.1,160.1,137.1,158.1,134.6,158.1z"/>
							</g>
						</g>
					</g>
					<g>
						<g>
							<g>
								<path class="st4" d="M157.1,162.6c0,3-2.4,5.5-5.5,5.5c-3,0-5.5-2.5-5.5-5.5c0-3,2.4-5.5,5.5-5.5
									C154.6,157.1,157.1,159.6,157.1,162.6z"/>
								<path class="st1" d="M151.6,169.1c-3.6,0-6.5-2.9-6.5-6.5c0-3.6,2.9-6.5,6.5-6.5s6.5,2.9,6.5,6.5
									C158.1,166.2,155.2,169.1,151.6,169.1z M151.6,158.1c-2.5,0-4.5,2-4.5,4.5c0,2.5,2,4.5,4.5,4.5c2.5,0,4.5-2,4.5-4.5
									C156.1,160.1,154.1,158.1,151.6,158.1z"/>
							</g>
						</g>
					</g>
					<g>
						<g>
							<g>
								<path class="st4" d="M174.1,162.6c0,3-2.5,5.5-5.5,5.5c-3,0-5.5-2.5-5.5-5.5c0-3,2.5-5.5,5.5-5.5
									C171.7,157.1,174.1,159.6,174.1,162.6z"/>
								<path class="st1" d="M168.6,169.1c-3.6,0-6.5-2.9-6.5-6.5c0-3.6,2.9-6.5,6.5-6.5c3.6,0,6.5,2.9,6.5,6.5
									C175.1,166.2,172.2,169.1,168.6,169.1z M168.6,158.1c-2.5,0-4.5,2-4.5,4.5c0,2.5,2,4.5,4.5,4.5c2.5,0,4.5-2,4.5-4.5
									C173.1,160.1,171.1,158.1,168.6,158.1z"/>
							</g>
						</g>
					</g>
					<g>
						<g>
							<g>
								<path class="st4" d="M191.3,162.6c0,3-2.5,5.5-5.5,5.5c-3,0-5.5-2.5-5.5-5.5c0-3,2.5-5.5,5.5-5.5
									C188.9,157.1,191.3,159.6,191.3,162.6z"/>
								<path class="st1" d="M185.9,169.1c-3.6,0-6.5-2.9-6.5-6.5c0-3.6,2.9-6.5,6.5-6.5s6.5,2.9,6.5,6.5
									C192.3,166.2,189.4,169.1,185.9,169.1z M185.9,158.1c-2.5,0-4.5,2-4.5,4.5c0,2.5,2,4.5,4.5,4.5s4.5-2,4.5-4.5
									C190.3,160.1,188.3,158.1,185.9,158.1z"/>
							</g>
						</g>
					</g>
					<g>
						<g>
							<g>
								<path class="st0" d="M147.4,179.4c0,2.9-2.3,5.2-5.2,5.2h-7.5c-2.9,0-5.2-2.3-5.2-5.2l0,0c0-2.9,2.3-5.2,5.2-5.2h7.5
									C145,174.2,147.4,176.5,147.4,179.4L147.4,179.4z"/>
								<path class="st1" d="M142.1,185.6h-7.5c-3.4,0-6.2-2.8-6.2-6.2c0-3.4,2.8-6.2,6.2-6.2h7.5c3.4,0,6.2,2.8,6.2,6.2
									C148.4,182.8,145.6,185.6,142.1,185.6z M134.7,175.2c-2.3,0-4.2,1.9-4.2,4.2c0,2.3,1.9,4.2,4.2,4.2h7.5
									c2.3,0,4.2-1.9,4.2-4.2c0-2.3-1.9-4.2-4.2-4.2H134.7z"/>
							</g>
						</g>
					</g>
					<g>
						<g>
							<g>
								<path class="st0" d="M169.4,179.4c0,2.9-2.3,5.2-5.2,5.2h-7.5c-2.9,0-5.2-2.3-5.2-5.2l0,0c0-2.9,2.3-5.2,5.2-5.2h7.5
									C167,174.2,169.4,176.5,169.4,179.4L169.4,179.4z"/>
								<path class="st1" d="M164.1,185.6h-7.5c-3.4,0-6.2-2.8-6.2-6.2c0-3.4,2.8-6.2,6.2-6.2h7.5c3.4,0,6.2,2.8,6.2,6.2
									C170.3,182.8,167.6,185.6,164.1,185.6z M156.7,175.2c-2.3,0-4.2,1.9-4.2,4.2c0,2.3,1.9,4.2,4.2,4.2h7.5
									c2.3,0,4.2-1.9,4.2-4.2c0-2.3-1.9-4.2-4.2-4.2H156.7z"/>
							</g>
						</g>
					</g>
					<g>
						<g>
							<g>
								<path class="st5" d="M191.3,179.4c0,2.9-2.3,5.2-5.2,5.2h-7.5c-2.9,0-5.2-2.3-5.2-5.2l0,0c0-2.9,2.3-5.2,5.2-5.2h7.5
									C189,174.2,191.3,176.5,191.3,179.4L191.3,179.4z"/>
								<path class="st1" d="M186.1,185.6h-7.5c-3.4,0-6.2-2.8-6.2-6.2c0-3.4,2.8-6.2,6.2-6.2h7.5c3.4,0,6.2,2.8,6.2,6.2
									C192.3,182.8,189.5,185.6,186.1,185.6z M178.6,175.2c-2.3,0-4.2,1.9-4.2,4.2c0,2.3,1.9,4.2,4.2,4.2h7.5
									c2.3,0,4.2-1.9,4.2-4.2c0-2.3-1.9-4.2-4.2-4.2H178.6z"/>
							</g>
						</g>
					</g>
					<g>
						<g>
							<g>
								<rect x="128.8" y="85.7" class="st2" width="62.3" height="28.8"/>
								<path class="st1" d="M191.1,115.4h-62.3c-0.6,0-1-0.4-1-1V85.7c0-0.6,0.4-1,1-1h62.3c0.6,0,1,0.4,1,1v28.8
									C192.1,115,191.6,115.4,191.1,115.4z M129.8,113.4h60.3V86.7h-60.3V113.4z"/>
							</g>
						</g>
					</g>
					<g>
						<g>
							<rect x="135.2" y="28.8" class="st4" width="50.1" height="40.7"/>
							<path class="st1" d="M186.3,70.4h-52.1V27.8h52.1V70.4z M136.2,68.4h48.1V29.8h-48.1V68.4z"/>
						</g>
					</g>
					<g>
						<g>
							<g>
								<rect x="205.3" y="96" class="st2" width="6.3" height="99.1"/>
								<path class="st1" d="M211.6,196h-6.3c-0.6,0-1-0.4-1-1V96c0-0.6,0.4-1,1-1h6.3c0.6,0,1,0.4,1,1V195
									C212.6,195.6,212.1,196,211.6,196z M206.3,194h4.3V97h-4.3V194z"/>
							</g>
						</g>
					</g>
					<g>
						<path class="st1" d="M161.3,37.1h-20.9v-1.3h20.9V37.1z"/>
					</g>
					<g>
						<path class="st1" d="M161.3,41.1h-20.9v-1.3h20.9V41.1z"/>
					</g>
					<g>
						<path class="st1" d="M161.3,45.1h-20.9v-1.3h20.9V45.1z"/>
					</g>
					<g>
						<path class="st1" d="M161.3,49.1h-20.9v-1.3h20.9V49.1z"/>
					</g>
					<g>
						<path class="st1" d="M161.3,53.1h-20.9v-1.3h20.9V53.1z"/>
					</g>
					<g>
						<path class="st1" d="M180.1,57h-15.6v-1.3h15.6V57z M161.3,57h-20.9v-1.3h20.9V57z"/>
					</g>
					<g>
						<rect x="140.4" y="59.8" class="st1" width="40.1" height="1.3"/>
					</g>
					<g>
						<rect x="129.3" y="118.7" class="st4" width="10.6" height="3.3"/>
						<path class="st1" d="M140.9,123h-12.6v-5.3h12.6V123z M130.3,121h8.6v-1.3h-8.6V121z"/>
					</g>
					<g>
						<rect x="146.3" y="118.7" class="st4" width="10.6" height="3.3"/>
						<path class="st1" d="M157.9,123h-12.6v-5.3h12.6V123z M147.3,121h8.6v-1.3h-8.6V121z"/>
					</g>
					<g>
						<rect x="163.3" y="118.7" class="st4" width="10.6" height="3.3"/>
						<path class="st1" d="M175,123h-12.6v-5.3H175V123z M164.3,121h8.6v-1.3h-8.6V121z"/>
					</g>
					<g>
						<rect x="180.4" y="118.7" class="st4" width="10.6" height="3.3"/>
						<path class="st1" d="M192,123h-12.6v-5.3H192V123z M181.4,121h8.6v-1.3h-8.6V121z"/>
					</g>
				</g>
				<g>
					<path class="st2" d="M141.7,103.2l-0.4,2.1h-1.2l1.8-7.7h1.5l1.8,7.7H144l-0.5-2.1H141.7z M143.4,102.2
						c-0.3-1.6-0.6-2.7-0.7-3.4h0c-0.1,0.7-0.4,1.9-0.7,3.4H143.4z"/>
					<path class="st2" d="M146,97.6h2.2c1.2,0,2.2,0.8,2.2,2.2c0,1.4-0.8,2.2-2.3,2.2h-0.9v3.2H146V97.6z M147.2,101.2h0.8
						c0.8,0,1.2-0.4,1.2-1.3c0-0.8-0.4-1.2-1.1-1.2h-0.8V101.2z"/>
					<path class="st2" d="M151.3,97.6h2.2c1.2,0,2.2,0.8,2.2,2.2c0,1.4-0.8,2.2-2.3,2.2h-0.9v3.2h-1.2V97.6z M152.5,101.2h0.8
						c0.8,0,1.2-0.4,1.2-1.3c0-0.8-0.4-1.2-1.1-1.2h-0.8V101.2z"/>
					<path class="st2" d="M157.8,102v3.4h-1.2v-7.7h2.2c1.4,0,2.1,0.7,2.1,2.1c0,1.1-0.6,1.6-1,1.8c0.6,0.3,0.9,0.8,0.9,1.9v0.3
						c0,0.8,0,1.2,0.1,1.6h-1.2c-0.1-0.4-0.1-1-0.1-1.6v-0.3c0-1.1-0.2-1.5-1.2-1.5H157.8z M157.8,101h0.8c0.9,0,1.2-0.4,1.2-1.2
						c0-0.7-0.3-1.1-1.1-1.1h-0.9V101z"/>
					<path class="st2" d="M166.7,101.4c0,2.7-0.7,4-2.5,4c-1.6,0-2.4-1.3-2.4-4c0-2.7,0.9-3.9,2.4-3.9
						C165.9,97.5,166.7,98.8,166.7,101.4z M163.1,101.4c0,2,0.3,3,1.2,3c0.9,0,1.2-1,1.2-3c0-2-0.3-2.9-1.2-2.9
						C163.4,98.5,163.1,99.6,163.1,101.4z"/>
					<path class="st2" d="M169,105.3l-1.9-7.7h1.3l0.8,3.4c0.2,1,0.5,2.2,0.6,3h0c0.1-0.7,0.4-2,0.6-3l0.7-3.4h1.2l-2,7.7H169z"/>
					<path class="st2" d="M176.8,101.8h-2.5v2.5h2.8l-0.1,1h-3.8v-7.7h3.8v1.1h-2.6v2.1h2.5V101.8z"/>
					<path class="st2" d="M178,97.6h1.9c1.9,0,2.7,1.3,2.7,3.7c0,2.6-0.7,4-2.8,4H178V97.6z M179.2,104.3h0.6c1.2,0,1.6-0.9,1.6-3
						c0-1.9-0.4-2.7-1.6-2.7h-0.6V104.3z"/>
				</g>
			</g>
			<g>
				<g>
					<g>
						<path class="st2" d="M171.1,113.6l-11.2,0.7l-1.3-1.1l-14.9-0.9c-0.9-0.1-1.8,0.2-2.5,0.7c0,0-29.4,4.9-29.4,2.1l0-0.1
							c0.1-3-0.9-5.9,3.2-6.7l-2.6-0.6c-1.7-0.1-3.7,1-5.1,1.9c-2.6,1.8-3.8,2.9-38.4,32.1c-5,4.6-22.2-6-22.2-6l-10,18.9l27.1,10.9
							c6.4,10.6,18.7,7.8,24.4,2.2c3.2-3.2,7.6-10.8,7.6-10.8l19.4-17.4l27.4-12.1c0,0,0.1,0,0.1,0c9,2.6,22.2,1.3,28-2.2
							C178,121,176,112.7,171.1,113.6z"/>
						<path class="st1" d="M76,173.7c-0.7,0-1.3,0-2-0.1c-4.5-0.6-8.3-3.1-10.9-7.2l-26.7-10.8c-0.3-0.1-0.5-0.3-0.6-0.6
							c-0.1-0.3-0.1-0.6,0.1-0.8l10-18.9c0.1-0.2,0.4-0.4,0.6-0.5c0.3-0.1,0.6,0,0.8,0.1c6.4,4,17.8,9.1,21,6.1
							c9.3-7.9,16.2-13.7,21.4-18c14.1-11.9,15.2-12.9,17.2-14.2c1.5-1,3.8-2.2,5.8-2.1c0.1,0,0.1,0,0.2,0l2.6,0.6
							c0.5,0.1,0.8,0.5,0.8,1c0,0.5-0.3,0.9-0.8,1c-2.4,0.5-2.5,1.6-2.4,4.1c0,0.4,0,0.9,0,1.3c2.4,0.8,15.8-0.7,28-2.7
							c0.9-0.6,1.9-0.8,3-0.8l14.9,0.9c0.2,0,0.4,0.1,0.6,0.2l1,0.8l10.7-0.7c2.2-0.4,4.2,0.8,5.1,3.1c1.1,3,0.1,7.6-4.9,10.6
							c-6.3,3.8-19.6,4.8-28.6,2.3l-26.9,11.8l-19.1,17.2c-0.6,1.1-4.6,7.8-7.7,10.9C85.5,171.8,80.6,173.7,76,173.7z M38.1,154.1
							l26,10.5c0.2,0.1,0.4,0.2,0.5,0.4c2.3,3.8,5.6,6.1,9.6,6.6c5.3,0.6,10.4-1.8,13.2-4.6c3.1-3,7.4-10.5,7.5-10.6
							c0.1-0.1,0.1-0.2,0.2-0.2l19.4-17.4c0.1-0.1,0.2-0.1,0.3-0.2l27.4-12.1c0.2-0.1,0.5-0.1,0.7,0c9.3,2.7,22,1.1,27.3-2
							c4-2.4,4.9-5.9,4.1-8.1c-0.5-1.4-1.6-2-2.9-1.8c0,0-0.1,0-0.1,0l-11.2,0.7c-0.3,0-0.5-0.1-0.7-0.2l-1-0.9l-14.6-0.9
							c-0.7,0-1.4,0.1-1.9,0.5c-0.1,0.1-0.3,0.1-0.4,0.2c-8.2,1.4-27.6,4.3-30,2.2c-0.3-0.3-0.5-0.7-0.5-1.1c0-0.6,0-1.1,0-1.6
							c-0.1-1.6-0.1-3.5,1.2-4.8c-1.1,0.1-2.5,0.7-4.1,1.7c-1.9,1.3-3,2.2-17,14c-5.1,4.3-12,10.2-21.3,18c-4.9,4.5-18.5-3-22.5-5.4
							L38.1,154.1z M171.1,113.6L171.1,113.6L171.1,113.6z"/>
					</g>
				</g>
			</g>
			<g>
				<g>
					<polygon class="st4" points="24,119.7 1.3,170.4 23.9,185.7 49,135.5 					"/>
					<path class="st1" d="M24.3,187.1L0,170.8l23.5-52.5l26.8,16.9L24.3,187.1z M2.5,170l21,14.1l24.2-48.4l-23.3-14.7L2.5,170z"/>
				</g>
			</g>
		</g>
	</g>
	<g>
		<g>
			<path class="st6" d="M337.2,191.8l-1-0.8c0.2-0.2,0.4-0.5,0.6-0.7l1,0.8C337.6,191.3,337.4,191.6,337.2,191.8z"/>
		</g>
		<g>
			<path class="st6" d="M250.7,233.2c-0.6,0-1.3,0-1.9,0l0-1.3c0.6,0,1.2,0,1.9,0L250.7,233.2z M252,233.2l0-1.3c0.6,0,1.2,0,1.9,0
				l0,1.3C253.3,233.2,252.6,233.2,252,233.2z M247.6,233.2c-0.6,0-1.3,0-1.9-0.1l0.1-1.3c0.6,0,1.2,0.1,1.9,0.1L247.6,233.2z
				 M255.2,233.1l0-1.3c0.6,0,1.3-0.1,1.9-0.1l0.1,1.3C256.4,233.1,255.8,233.1,255.2,233.1z M244.4,233c-0.6,0-1.3-0.1-1.9-0.1
				l0.1-1.3c0.6,0,1.2,0.1,1.9,0.1L244.4,233z M258.3,233l-0.1-1.3c0.6,0,1.2-0.1,1.9-0.1l0.1,1.3
				C259.6,232.9,258.9,232.9,258.3,233z M241.3,232.8c-0.6-0.1-1.3-0.1-1.9-0.2l0.1-1.3c0.6,0.1,1.2,0.1,1.9,0.2L241.3,232.8z
				 M261.5,232.7l-0.1-1.3c0.6-0.1,1.2-0.1,1.9-0.2l0.1,1.3C262.7,232.6,262.1,232.7,261.5,232.7z M238.1,232.5
				c-0.6-0.1-1.3-0.2-1.9-0.2l0.2-1.3c0.6,0.1,1.2,0.2,1.9,0.2L238.1,232.5z M264.6,232.4l-0.2-1.3c0.6-0.1,1.2-0.2,1.9-0.2l0.2,1.3
				C265.9,232.2,265.2,232.3,264.6,232.4z M235,232.1c-0.6-0.1-1.3-0.2-1.9-0.3l0.2-1.2c0.6,0.1,1.2,0.2,1.9,0.3L235,232.1z
				 M267.7,231.9l-0.2-1.3c0.6-0.1,1.2-0.2,1.8-0.3l0.2,1.2C269,231.8,268.4,231.9,267.7,231.9z M231.8,231.5
				c-0.6-0.1-1.2-0.2-1.9-0.3l0.2-1.2c0.6,0.1,1.2,0.2,1.8,0.3L231.8,231.5z M270.8,231.4l-0.2-1.2c0.6-0.1,1.2-0.2,1.8-0.3l0.2,1.2
				C272.1,231.2,271.5,231.3,270.8,231.4z M228.7,231c-0.6-0.1-1.2-0.3-1.9-0.4l0.3-1.2c0.6,0.1,1.2,0.3,1.8,0.4L228.7,231z
				 M273.9,230.8l-0.3-1.2c0.6-0.1,1.2-0.3,1.8-0.4l0.3,1.2C275.2,230.6,274.6,230.7,273.9,230.8z M225.6,230.3
				c-0.6-0.1-1.2-0.3-1.8-0.5l0.3-1.2c0.6,0.2,1.2,0.3,1.8,0.4L225.6,230.3z M277,230.1l-0.3-1.2c0.6-0.1,1.2-0.3,1.8-0.5l0.3,1.2
				C278.2,229.8,277.6,230,277,230.1z M222.6,229.5c-0.6-0.2-1.2-0.3-1.8-0.5l0.3-1.2c0.6,0.2,1.2,0.3,1.8,0.5L222.6,229.5z
				 M280.1,229.3l-0.3-1.2c0.6-0.2,1.2-0.3,1.8-0.5l0.4,1.2C281.3,229,280.7,229.2,280.1,229.3z M219.5,228.7
				c-0.6-0.2-1.2-0.4-1.8-0.6l0.4-1.2c0.6,0.2,1.2,0.4,1.8,0.5L219.5,228.7z M283.1,228.5l-0.4-1.2c0.6-0.2,1.2-0.4,1.8-0.6l0.4,1.2
				C284.3,228.1,283.7,228.3,283.1,228.5z M216.5,227.7c-0.6-0.2-1.2-0.4-1.8-0.6l0.4-1.2c0.6,0.2,1.2,0.4,1.8,0.6L216.5,227.7z
				 M286.1,227.5l-0.4-1.2c0.6-0.2,1.2-0.4,1.8-0.6l0.4,1.2C287.3,227.1,286.7,227.3,286.1,227.5z M289.1,226.5l-0.4-1.2
				c0.6-0.2,1.2-0.4,1.8-0.7l0.5,1.2C290.3,226,289.7,226.2,289.1,226.5z M292,225.3l-0.5-1.2c0.6-0.2,1.2-0.5,1.7-0.7l0.5,1.2
				C293.2,224.9,292.6,225.1,292,225.3z M294.9,224.1l-0.5-1.2c0.6-0.2,1.1-0.5,1.7-0.8l0.5,1.2
				C296.1,223.6,295.5,223.9,294.9,224.1z M297.8,222.8l-0.5-1.1c0.6-0.3,1.1-0.5,1.7-0.8l0.6,1.1
				C299,222.3,298.4,222.6,297.8,222.8z M300.7,221.4l-0.6-1.1c0.6-0.3,1.1-0.6,1.7-0.9l0.6,1.1
				C301.8,220.9,301.2,221.2,300.7,221.4z M303.5,220l-0.6-1.1c0.5-0.3,1.1-0.6,1.6-0.9l0.6,1.1C304.6,219.4,304,219.7,303.5,220z
				 M306.2,218.4l-0.6-1.1c0.5-0.3,1.1-0.6,1.6-1l0.7,1.1C307.3,217.8,306.8,218.1,306.2,218.4z M308.9,216.8l-0.7-1.1
				c0.5-0.3,1.1-0.7,1.6-1l0.7,1.1C310,216.1,309.5,216.5,308.9,216.8z M311.6,215.1l-0.7-1.1c0.5-0.3,1-0.7,1.6-1l0.7,1
				C312.6,214.4,312.1,214.8,311.6,215.1z M314.2,213.3l-0.7-1c0.5-0.4,1-0.7,1.5-1.1l0.7,1C315.2,212.6,314.7,213,314.2,213.3z
				 M316.8,211.5l-0.8-1c0.5-0.4,1-0.7,1.5-1.1l0.8,1C317.8,210.7,317.3,211.1,316.8,211.5z M319.3,209.6l-0.8-1
				c0.5-0.4,1-0.8,1.5-1.2l0.8,1C320.3,208.8,319.8,209.2,319.3,209.6z M321.7,207.6l-0.8-1c0.5-0.4,1-0.8,1.4-1.2l0.8,1
				C322.7,206.8,322.2,207.2,321.7,207.6z M324.1,205.5l-0.8-0.9c0.5-0.4,0.9-0.8,1.4-1.3l0.9,0.9
				C325.1,204.7,324.6,205.1,324.1,205.5z M326.5,203.4l-0.9-0.9c0.5-0.4,0.9-0.9,1.4-1.3l0.9,0.9
				C327.4,202.5,326.9,203,326.5,203.4z M328.7,201.2l-0.9-0.9c0.4-0.4,0.9-0.9,1.3-1.3l0.9,0.9
				C329.6,200.3,329.2,200.8,328.7,201.2z M330.9,198.9l-0.9-0.9c0.4-0.5,0.9-0.9,1.3-1.4l0.9,0.9
				C331.8,198,331.4,198.5,330.9,198.9z M333.1,196.6l-0.9-0.8c0.4-0.5,0.8-0.9,1.2-1.4l1,0.8C333.9,195.7,333.5,196.2,333.1,196.6z
				 M335.2,194.2l-1-0.8c0.4-0.5,0.8-1,1.2-1.4l1,0.8C336,193.3,335.6,193.8,335.2,194.2z"/>
		</g>
		<g>
			<path class="st6" d="M213.4,226.6c-0.3-0.1-0.6-0.2-0.9-0.3l0.4-1.2c0.3,0.1,0.6,0.2,0.9,0.3L213.4,226.6z"/>
		</g>
		<g>
			<polygon class="st6" points="204.5,222.3 218.1,222.3 213.4,225.9 214.2,231.8 			"/>
		</g>
	</g>
	<g>
		<g>
			<path class="st6" d="M194.7,29.3l-0.7-1.1c0.3-0.2,0.5-0.3,0.8-0.5l0.6,1.1C195.3,29,195,29.1,194.7,29.3z"/>
		</g>
		<g>
			<path class="st6" d="M341.2,61.3c-0.4-0.5-0.7-1-1.1-1.6l1-0.7c0.4,0.5,0.7,1,1.1,1.6L341.2,61.3z M339.4,58.8
				c-0.4-0.5-0.7-1-1.1-1.5l1-0.8c0.4,0.5,0.8,1,1.1,1.5L339.4,58.8z M337.5,56.2c-0.4-0.5-0.8-1-1.2-1.5l1-0.8
				c0.4,0.5,0.8,1,1.2,1.5L337.5,56.2z M335.5,53.8c-0.4-0.5-0.8-1-1.2-1.5l1-0.8c0.4,0.5,0.8,1,1.2,1.5L335.5,53.8z M333.5,51.3
				c-0.4-0.5-0.8-1-1.3-1.4l0.9-0.8c0.4,0.5,0.9,1,1.3,1.4L333.5,51.3z M331.4,49c-0.4-0.5-0.9-0.9-1.3-1.4l0.9-0.9
				c0.4,0.5,0.9,0.9,1.3,1.4L331.4,49z M329.2,46.7c-0.4-0.5-0.9-0.9-1.3-1.3l0.9-0.9c0.5,0.5,0.9,0.9,1.3,1.4L329.2,46.7z
				 M327,44.5c-0.5-0.4-0.9-0.9-1.4-1.3l0.9-0.9c0.5,0.4,0.9,0.9,1.4,1.3L327,44.5z M324.7,42.3c-0.5-0.4-0.9-0.8-1.4-1.3l0.8-0.9
				c0.5,0.4,1,0.9,1.4,1.3L324.7,42.3z M322.3,40.2c-0.5-0.4-1-0.8-1.4-1.2l0.8-1c0.5,0.4,1,0.8,1.5,1.2L322.3,40.2z M319.9,38.2
				c-0.5-0.4-1-0.8-1.5-1.2l0.8-1c0.5,0.4,1,0.8,1.5,1.2L319.9,38.2z M317.4,36.2c-0.5-0.4-1-0.8-1.5-1.1l0.8-1
				c0.5,0.4,1,0.8,1.5,1.2L317.4,36.2z M314.9,34.3c-0.5-0.4-1-0.7-1.5-1.1l0.7-1c0.5,0.4,1,0.7,1.6,1.1L314.9,34.3z M312.3,32.5
				c-0.5-0.4-1-0.7-1.6-1.1l0.7-1.1c0.5,0.4,1.1,0.7,1.6,1.1L312.3,32.5z M309.6,30.8c-0.5-0.3-1.1-0.7-1.6-1l0.7-1.1
				c0.5,0.3,1.1,0.7,1.6,1L309.6,30.8z M306.9,29.1c-0.5-0.3-1.1-0.6-1.6-1l0.6-1.1c0.6,0.3,1.1,0.6,1.7,1L306.9,29.1z M196.6,28.2
				l-0.6-1.1c0.6-0.3,1.1-0.6,1.7-0.9l0.6,1.1C197.7,27.5,197.2,27.9,196.6,28.2z M304.2,27.5c-0.6-0.3-1.1-0.6-1.7-0.9l0.6-1.1
				c0.6,0.3,1.1,0.6,1.7,0.9L304.2,27.5z M199.4,26.6l-0.6-1.1c0.6-0.3,1.1-0.6,1.7-0.9l0.6,1.1C200.5,26,199.9,26.3,199.4,26.6z
				 M301.4,26c-0.6-0.3-1.1-0.6-1.7-0.9l0.6-1.1c0.6,0.3,1.1,0.6,1.7,0.9L301.4,26z M202.2,25.2l-0.6-1.1c0.6-0.3,1.1-0.6,1.7-0.8
				l0.5,1.1C203.3,24.6,202.8,24.9,202.2,25.2z M298.6,24.6c-0.6-0.3-1.1-0.5-1.7-0.8l0.5-1.1c0.6,0.3,1.2,0.5,1.7,0.8L298.6,24.6z
				 M205,23.8l-0.5-1.1c0.6-0.3,1.2-0.5,1.7-0.8l0.5,1.2C206.2,23.3,205.6,23.5,205,23.8z M295.7,23.2c-0.6-0.3-1.2-0.5-1.7-0.8
				l0.5-1.2c0.6,0.3,1.2,0.5,1.8,0.8L295.7,23.2z M207.9,22.5l-0.5-1.2c0.6-0.3,1.2-0.5,1.8-0.7l0.5,1.2
				C209.1,22,208.5,22.3,207.9,22.5z M292.8,22c-0.6-0.2-1.2-0.5-1.8-0.7l0.5-1.2c0.6,0.2,1.2,0.5,1.8,0.7L292.8,22z M210.8,21.3
				l-0.5-1.2c0.6-0.2,1.2-0.5,1.8-0.7l0.4,1.2C212,20.9,211.4,21.1,210.8,21.3z M289.9,20.8c-0.6-0.2-1.2-0.4-1.8-0.7l0.4-1.2
				c0.6,0.2,1.2,0.4,1.8,0.7L289.9,20.8z M213.8,20.2l-0.4-1.2c0.6-0.2,1.2-0.4,1.8-0.6l0.4,1.2C215,19.8,214.4,20,213.8,20.2z
				 M286.9,19.7c-0.6-0.2-1.2-0.4-1.8-0.6l0.4-1.2c0.6,0.2,1.2,0.4,1.8,0.6L286.9,19.7z M216.8,19.2l-0.4-1.2
				c0.6-0.2,1.2-0.4,1.8-0.6l0.4,1.2C218,18.8,217.4,19,216.8,19.2z M283.9,18.7c-0.6-0.2-1.2-0.4-1.8-0.6l0.4-1.2
				c0.6,0.2,1.2,0.4,1.8,0.6L283.9,18.7z M219.8,18.2l-0.4-1.2c0.6-0.2,1.2-0.4,1.8-0.5l0.3,1.2C221,17.9,220.4,18,219.8,18.2z
				 M280.9,17.8c-0.6-0.2-1.2-0.3-1.8-0.5l0.3-1.2c0.6,0.2,1.2,0.3,1.9,0.5L280.9,17.8z M222.8,17.4l-0.3-1.2
				c0.6-0.2,1.2-0.3,1.9-0.5l0.3,1.2C224,17,223.4,17.2,222.8,17.4z M277.8,17c-0.6-0.2-1.2-0.3-1.8-0.4l0.3-1.2
				c0.6,0.1,1.2,0.3,1.9,0.5L277.8,17z M225.9,16.6l-0.3-1.2c0.6-0.1,1.2-0.3,1.9-0.4l0.3,1.2C227.1,16.3,226.5,16.4,225.9,16.6z
				 M274.7,16.3c-0.6-0.1-1.2-0.3-1.9-0.4l0.3-1.2c0.6,0.1,1.3,0.3,1.9,0.4L274.7,16.3z M229,15.9l-0.3-1.2c0.6-0.1,1.3-0.3,1.9-0.4
				l0.2,1.2C230.2,15.7,229.6,15.8,229,15.9z M271.6,15.6c-0.6-0.1-1.2-0.2-1.9-0.3L270,14c0.6,0.1,1.3,0.2,1.9,0.3L271.6,15.6z
				 M232.1,15.3l-0.2-1.2c0.6-0.1,1.3-0.2,1.9-0.3l0.2,1.2C233.3,15.1,232.7,15.2,232.1,15.3z M268.5,15.1c-0.6-0.1-1.3-0.2-1.9-0.3
				l0.2-1.3c0.6,0.1,1.3,0.2,1.9,0.3L268.5,15.1z M235.2,14.8l-0.2-1.3c0.6-0.1,1.3-0.2,1.9-0.3l0.2,1.3
				C236.4,14.6,235.8,14.7,235.2,14.8z M265.4,14.6c-0.6-0.1-1.3-0.2-1.9-0.2l0.1-1.3c0.6,0.1,1.3,0.2,1.9,0.2L265.4,14.6z
				 M238.3,14.4l-0.1-1.3c0.6-0.1,1.3-0.1,1.9-0.2l0.1,1.3C239.6,14.3,238.9,14.3,238.3,14.4z M262.2,14.3c-0.6-0.1-1.3-0.1-1.9-0.2
				l0.1-1.3c0.6,0.1,1.3,0.1,1.9,0.2L262.2,14.3z M241.4,14.1l-0.1-1.3c0.6-0.1,1.3-0.1,1.9-0.1l0.1,1.3
				C242.7,14,242.1,14,241.4,14.1z M259.1,14c-0.6,0-1.3-0.1-1.9-0.1l0.1-1.3c0.6,0,1.3,0.1,1.9,0.1L259.1,14z M244.6,13.9l-0.1-1.3
				c0.6,0,1.3-0.1,1.9-0.1l0.1,1.3C245.8,13.8,245.2,13.8,244.6,13.9z M255.9,13.8c-0.6,0-1.3-0.1-1.9-0.1l0-1.3
				c0.6,0,1.3,0,1.9,0.1L255.9,13.8z M247.7,13.7l0-1.3c0.6,0,1.3,0,1.9,0l0,1.3C249,13.7,248.4,13.7,247.7,13.7z M252.8,13.7
				c-0.6,0-1.2,0-1.8,0h-0.1v-1.3h0.1c0.6,0,1.2,0,1.8,0L252.8,13.7z"/>
		</g>
		<g>
			<path class="st6" d="M342.4,63.2c-0.2-0.3-0.3-0.5-0.5-0.8l1.1-0.7c0.2,0.3,0.4,0.5,0.5,0.8L342.4,63.2z"/>
		</g>
		<g>
			<polygon class="st6" points="347.5,70.5 336.6,62.4 342.5,62.3 345.3,57.1 			"/>
		</g>
	</g>
	<g>
		<path class="st4" d="M294.3,85.9c-2.2,0-4-1.8-4-4c0-2.2,1.8-4,4-4c2.2,0,4,1.8,4,4C298.3,84.2,296.6,85.9,294.3,85.9z
			 M294.3,79.9c-1.1,0-2,0.9-2,2c0,1.1,0.9,2,2,2c1.1,0,2-0.9,2-2C296.3,80.8,295.4,79.9,294.3,79.9z"/>
	</g>
	<g>
		<path class="st4" d="M220.2,38.5c-2.2,0-4-1.8-4-4c0-2.2,1.8-4,4-4c2.2,0,4,1.8,4,4C224.2,36.8,222.4,38.5,220.2,38.5z
			 M220.2,32.5c-1.1,0-2,0.9-2,2c0,1.1,0.9,2,2,2c1.1,0,2-0.9,2-2C222.2,33.4,221.3,32.5,220.2,32.5z"/>
	</g>
	<g>
		<path class="st4" d="M287.9,35.6c-2.2,0-4-1.8-4-4s1.8-4,4-4c2.2,0,4,1.8,4,4S290.1,35.6,287.9,35.6z M287.9,29.6
			c-1.1,0-2,0.9-2,2s0.9,2,2,2c1.1,0,2-0.9,2-2S289,29.6,287.9,29.6z"/>
	</g>
	<circle class="st7" cx="231.3" cy="100.1" r="3"/>
	<circle class="st7" cx="114.7" cy="61.7" r="3"/>
	<circle class="st7" cx="252.9" cy="86.5" r="3"/>
	<circle class="st6" cx="280.7" cy="47" r="3"/>
	<g>
		<path class="st2" d="M177.8,221.7c2.9-1.7,4.5-3.2,5.8-5.8c1.3,2.6,2.9,4.1,5.7,5.7c-2.9,1.7-4.5,3.2-5.8,5.8
			C182.2,224.8,180.6,223.3,177.8,221.7z"/>
		<path class="st1" d="M183.5,229.7l-0.9-1.8c-1.1-2.3-2.5-3.7-5.3-5.3l-1.5-0.9l1.5-0.9c2.8-1.6,4.2-3,5.4-5.4l0.9-1.8l0.9,1.8
			c1.1,2.3,2.5,3.7,5.3,5.3l1.5,0.9l-1.5,0.9c-2.8,1.6-4.2,3-5.4,5.4L183.5,229.7z M179.7,221.7c1.7,1.1,2.9,2.3,3.8,3.7
			c1-1.5,2.2-2.6,3.9-3.8c-1.7-1.1-2.9-2.3-3.8-3.7C182.6,219.4,181.4,220.6,179.7,221.7z"/>
	</g>
	<g>
		<g>
			<g>
				
					<ellipse transform="matrix(0.7071 -0.7071 0.7071 0.7071 47.7753 232.6081)" class="st0" cx="304.7" cy="58.6" rx="11.4" ry="11.4"/>
				<path class="st1" d="M304.7,71.1c-6.8,0-12.4-5.6-12.4-12.4c0-6.8,5.6-12.4,12.4-12.4c6.8,0,12.4,5.6,12.4,12.4
					C317.1,65.5,311.5,71.1,304.7,71.1z M304.7,48.2c-5.7,0-10.4,4.7-10.4,10.4c0,5.7,4.7,10.4,10.4,10.4c5.7,0,10.4-4.7,10.4-10.4
					C315.1,52.9,310.4,48.2,304.7,48.2z"/>
			</g>
		</g>
		<g>
			<path class="st1" d="M306.4,56c-0.5-0.4-0.9-0.7-1.5-0.7c-0.7,0-1.1,0.4-1.1,1.1c0,1.6,3.6,1.3,3.6,3.9c0,1.3-0.7,2.2-2,2.4V64
				h-1.1v-1.3c-0.8-0.1-1.7-0.4-2.3-1l0.7-1c0.6,0.5,1.2,0.8,2,0.8c0.9,0,1.3-0.4,1.3-1.1c0-1.7-3.6-1.5-3.6-4c0-1.2,0.8-2.1,2-2.3
				v-1.3h1.1v1.3c0.8,0.1,1.4,0.5,1.9,1L306.4,56z"/>
		</g>
	</g>
	<g>
		<g>
			<g>
				
					<ellipse transform="matrix(0.7071 -0.7071 0.7071 0.7071 0.6045 219.0706)" class="st0" cx="264.7" cy="108.8" rx="11.4" ry="11.4"/>
				<path class="st1" d="M264.7,121.2c-6.8,0-12.4-5.6-12.4-12.4c0-6.8,5.6-12.4,12.4-12.4c6.8,0,12.4,5.6,12.4,12.4
					C277.2,115.7,271.6,121.2,264.7,121.2z M264.7,98.4c-5.7,0-10.4,4.7-10.4,10.4c0,5.7,4.7,10.4,10.4,10.4
					c5.7,0,10.4-4.7,10.4-10.4C275.2,103.1,270.5,98.4,264.7,98.4z"/>
			</g>
		</g>
		<g>
			<path class="st1" d="M266.4,106.1c-0.5-0.4-0.9-0.7-1.5-0.7c-0.7,0-1.1,0.4-1.1,1.1c0,1.6,3.6,1.3,3.6,3.9c0,1.3-0.7,2.2-2,2.4
				v1.4h-1.1v-1.3c-0.8-0.1-1.7-0.4-2.3-1l0.7-1c0.6,0.5,1.2,0.8,2,0.8c0.9,0,1.3-0.4,1.3-1.1c0-1.7-3.6-1.5-3.6-4
				c0-1.2,0.8-2.1,2-2.3v-1.3h1.1v1.3c0.8,0.1,1.4,0.5,1.9,1L266.4,106.1z"/>
		</g>
	</g>
	<g>
		<g>
			<g>
				
					<ellipse transform="matrix(0.7071 -0.7071 0.7071 0.7071 60.5834 171.0954)" class="st0" cx="236.8" cy="12.4" rx="11.4" ry="11.4"/>
				<path class="st1" d="M236.8,24.8c-6.8,0-12.4-5.6-12.4-12.4C224.4,5.6,230,0,236.8,0c6.8,0,12.4,5.6,12.4,12.4
					C249.2,19.3,243.7,24.8,236.8,24.8z M236.8,2c-5.7,0-10.4,4.7-10.4,10.4s4.7,10.4,10.4,10.4c5.7,0,10.4-4.7,10.4-10.4
					S242.6,2,236.8,2z"/>
			</g>
		</g>
		<g>
			<path class="st1" d="M238.5,9.8c-0.5-0.4-0.9-0.7-1.5-0.7c-0.7,0-1.1,0.4-1.1,1.1c0,1.6,3.6,1.3,3.6,3.9c0,1.3-0.7,2.2-2,2.4v1.4
				h-1.1v-1.3c-0.8-0.1-1.7-0.4-2.3-1l0.7-1c0.6,0.5,1.2,0.8,2,0.8c0.9,0,1.3-0.4,1.3-1.1c0-1.7-3.6-1.5-3.6-4c0-1.2,0.8-2.1,2-2.3
				V6.5h1.1v1.3c0.8,0.1,1.4,0.5,1.9,1L238.5,9.8z"/>
		</g>
	</g>
	<g>
		<g>
			<g>
				<path class="st2" d="M353.7,174.1l-3-20.4l-1.8-19.4c-0.1-1.5-2.3-1.6-2.6-0.1l-0.9,4.7c0,0,0,0,0,0c0,0.6,0.4,15.5-0.5,16
					c-1,0.5,1.6,8.1-3,11.4c-4.4,3.1-13.5,1.6-12-9.2c0.4-2.8,0.8-8.5,0.8-8.8c0,0,0,0,0,0l-0.3-4.3c0,0,0,0,0,0l5.7-34.8
					c0.4-2.5-2.1-4.5-4.4-3.6c0,0-0.1,0.1-0.1,0.1l-2.8,7.7c0,0,0,0,0,0c-0.1,0.4-4.8,19.9-8.5,23.2c-3.7,3.4-4.7,4.3-11.6,1.6
					c-0.6-0.1,2.8-7.3,3-7.7c0,0,0,0,0,0l0.3-2.5c0,0,0,0,0,0c0.3-0.8,10.7-28.5,10.4-29.8c-0.3-1.3,3.9-5.7,7.4-8.2
					c3.5-2.4,35.8-13.1,36.7-13.4c0,0,0,0,0,0c0.3,0,3-0.1,5.6-0.3c1.7-0.1,3.3,0.4,4.6,1.4l6.8,5.2c0,0,0,0,0,0l26.7,24.7
					c0,0,0,0,0,0l6.3,5.1c0,0,0,0,0,0c1.6,0.7,3.6,2.2,5.3,1.7l18.1-6.3c0.1,0,0.2,0,0.2,0.1l16.8,30.4c0.1,0.1,0,0.2-0.1,0.3
					l-30.4,9.1c-1.5,0.5-2.9,1.2-4.1,2.3c-1.5,1.4-4.5,3.6-10,5.7c-5.2,1.9-12.1-1.3-14.6-3.6c-2.2-2-3.1-3.3-3.2-3.6
					c-0.2-0.5-3.5-2.3-9.9-5.9c0,0-0.1,0-0.1,0l-2,0.7c-0.1,0-0.1,0.1-0.1,0.2l0.8,3c0,0.1,0.1,0.1,0.2,0.1
					c9.6,0.8,12.1,8.1,7.8,12.9c0,0-0.1,0-0.1,0.1l-11.3,2.5c0,0,0,0,0,0c-0.9,0.1-1.8,0-2.7-0.4l-4.3-1.8c0,0-0.1,0-0.1-0.1
					l-4.1-7.9c0,0,0,0,0,0l-3.5-16c-0.4-1.8-2-3.2-3.9-3.2l0,0c-0.1,0-0.2,0.1-0.2,0.2l2.8,12.2l2.5,11.7c0,0,0,0,0,0
					c0,0.2,1.5,5.2,1,8.1c-1.1,6.5-5,11.5-13.6,9.3C353.8,174.2,353.8,174.2,353.7,174.1z"/>
				<path class="st1" d="M357.7,175.8c-1.3,0-2.6-0.2-4.1-0.6c-0.5-0.1-0.8-0.5-0.9-1l-3-20.4l-1.8-19.5c0-0.1,0-0.3-0.3-0.3
					c-0.2,0-0.3,0.2-0.3,0.3l-0.8,4.6c0.4,13.5-0.2,15.9-0.8,16.6c0,0.3,0,1,0,1.5c0.1,2.8,0.4,7.5-3.2,10c-2.8,2-6.9,2.1-9.8,0.4
					c-1.8-1.1-4.7-3.9-3.8-10.6c0.3-2.4,0.7-7.2,0.8-8.7h0c0,0,0,0,0,0l-0.3-4.2c0,0,0-0.1,0-0.1c0,0,0-0.1,0-0.1l5.7-34.8
					c0.1-0.8-0.2-1.6-0.8-2.1c-0.5-0.4-1.2-0.6-1.9-0.4l-2.7,7.3c-0.5,2-5,20.2-8.7,23.6c-4,3.7-5.5,4.6-12.6,1.8l0,0
					c-0.2-0.1-0.5-0.3-0.6-0.5c-0.3-0.5-0.6-1,3-8.5l0.3-2.3c0,0,0-0.1,0-0.1c0,0,0-0.1,0-0.1c5-13.4,10.2-27.6,10.4-29.3
					c-0.4-2.5,5.6-7.5,7.8-9.1c3.6-2.5,33.6-12.4,37-13.5c0,0,0.1,0,0.1,0c0.1,0,0.1,0,0.2,0c0.3,0,3-0.1,5.6-0.3
					c1.9-0.1,3.8,0.5,5.3,1.6l6.8,5.2c0,0,0.1,0,0.1,0.1l26.7,24.7l0,0l6.2,5c0.4,0.2,0.8,0.4,1.2,0.6c1.1,0.6,2.4,1.3,3.2,1
					l18.1-6.3c0.5-0.2,1.1,0,1.4,0.5l16.8,30.4c0.2,0.3,0.2,0.7,0.1,1c-0.1,0.3-0.4,0.6-0.8,0.7l-30.4,9.1c-1.4,0.4-2.6,1.1-3.6,2.1
					c-1.6,1.5-4.7,3.8-10.4,5.9c-5.7,2.1-13.1-1.5-15.6-3.8c-1.8-1.6-3-3-3.4-3.9c-0.5-0.5-3-1.9-6.2-3.6c-0.9-0.5-1.9-1.1-3.1-1.7
					l-1,0.3l0.4,1.7c4.8,0.5,8.3,2.7,9.6,6.1c1.1,2.8,0.4,6-1.8,8.4c-0.1,0.1-0.2,0.1-0.2,0.2c-0.1,0.1-0.3,0.1-0.4,0.2l-11.3,2.5
					c0,0-0.1,0-0.1,0c-1.1,0.1-2.2,0-3.2-0.4l-4.3-1.8c-0.3-0.1-0.5-0.3-0.6-0.6l-4-7.9c0,0-0.1-0.1-0.1-0.2c0,0,0-0.1,0-0.1
					l-3.5-16c-0.2-1-0.9-1.8-1.9-2.2l2.5,10.9l2.5,11.7c0,0,0,0,0,0c0.1,0.5,1.6,5.4,1,8.4c-0.7,4.2-2.5,7.4-5.1,9.1
					C361.7,175.2,359.8,175.8,357.7,175.8z M354.7,173.4c3.1,0.7,5.6,0.4,7.5-0.9c2.7-1.8,3.8-5.2,4.3-7.7c0.4-2.1-0.5-5.9-1-7.6
					c0,0,0-0.1,0-0.1l-2.5-11.7l-2.7-12.1c-0.1-0.4,0-0.7,0.2-1c0.2-0.3,0.6-0.4,0.9-0.4c2.4,0.1,4.4,1.7,4.9,4l3.5,15.9l3.9,7.6
					l4,1.6c0.7,0.3,1.4,0.4,2.2,0.3l11-2.4c1.6-1.8,2-4.1,1.2-6.1c-1.1-2.8-4.2-4.6-8.5-4.9c-0.5,0-0.9-0.4-1-0.9l-0.8-3
					c-0.1-0.6,0.2-1.2,0.8-1.4l2-0.7c0.3-0.1,0.6-0.1,0.9,0.1c1.3,0.7,2.4,1.4,3.4,1.9c6,3.4,6.7,3.8,7,4.5c0.1,0.2,0.9,1.3,2.9,3.2
					c2.3,2.1,8.9,5.1,13.5,3.4c5.3-2,8.2-4,9.7-5.5c1.2-1.2,2.8-2.1,4.5-2.6l29.5-8.8l-16-28.9l-17.5,6c-1.6,0.6-3.3-0.3-4.8-1.1
					c-0.4-0.2-0.8-0.4-1.2-0.6c0,0-0.1,0-0.1-0.1c0,0-0.1-0.1-0.1-0.1l-6.3-5.1l-26.8-24.7l-6.7-5.1c-1.1-0.9-2.5-1.3-3.9-1.2
					c-2.4,0.1-4.9,0.2-5.5,0.3c-11.5,3.8-33.7,11.4-36.3,13.2c-3.6,2.5-6.9,6.3-7,7.2c0.1,0.3,0.4,1.5-10.4,30.2l-0.3,2.4
					c0,0.1,0,0.1,0,0.2c0,0,0,0.1-0.1,0.1c-1.3,2.8-2.4,5.4-2.8,6.6c5.7,2.1,6.4,1.5,9.8-1.7c2.5-2.3,6.3-14.9,8.2-22.7
					c0,0,0-0.1,0-0.1l2.8-7.7c0.1-0.3,0.4-0.6,0.7-0.7c1.4-0.6,3-0.3,4.2,0.6c1.2,1,1.8,2.5,1.5,4l-5.7,34.7l0.3,4.2
					c0,0,0,0.1,0,0.1c-0.1,1.5-0.4,6.3-0.8,8.8c-0.6,4.1,0.5,7.2,2.9,8.6c2.5,1.5,5.7,1,7.6-0.3c2.7-1.9,2.5-5.7,2.4-8.3
					c-0.1-1.5-0.1-2.5,0.5-3c0.4-1.4,0.5-8.7,0.3-15.2c0,0,0-0.1,0-0.1c0,0,0-0.1,0-0.1l0.9-4.7c0.2-1.2,1.2-1.9,2.4-1.9
					c1.2,0.1,2.1,0.9,2.2,2.1l1.8,19.4L354.7,173.4z M373.7,159.6L373.7,159.6C373.7,159.6,373.7,159.6,373.7,159.6z M373.3,159.2
					L373.3,159.2C373.3,159.2,373.3,159.2,373.3,159.2z M384.4,146.4L384.4,146.4C384.4,146.4,384.4,146.4,384.4,146.4z M456.4,139
					C456.4,139,456.4,139,456.4,139L456.4,139z M456.8,137.8C456.8,137.8,456.8,137.8,456.8,137.8L456.8,137.8z M309,137.1
					L309,137.1L309,137.1z M309,137.1C309,137.1,309,137.1,309,137.1C309,137.1,309,137.1,309,137.1z M309,137.1L309,137.1
					L309,137.1z M362.2,132.8L362.2,132.8C362.2,132.8,362.2,132.8,362.2,132.8z M321.6,98.2C321.6,98.2,321.6,98.2,321.6,98.2
					C321.6,98.2,321.6,98.2,321.6,98.2z"/>
			</g>
		</g>
		<g>
			<g>
				<g>
					<path class="st3" d="M389.2,150.9c0,4.6-3.7,8.3-8.3,8.3h-85.4c-4.6,0-8.3-3.7-8.3-8.3v-44.4c0-4.6,3.7-8.3,8.3-8.3l85.4,0
						c4.6,0,8.3,3.7,8.3,8.3V150.9z"/>
					<path class="st1" d="M380.9,160.2h-85.4c-5.1,0-9.3-4.2-9.3-9.3v-44.4c0-5.1,4.2-9.3,9.3-9.3h85.4c5.1,0,9.3,4.2,9.3,9.3v44.4
						C390.2,156,386,160.2,380.9,160.2z M295.5,99.1c-4,0-7.3,3.3-7.3,7.3v44.4c0,4,3.3,7.3,7.3,7.3h85.4c4,0,7.3-3.3,7.3-7.3v-44.4
						c0-4-3.3-7.3-7.3-7.3H295.5z"/>
				</g>
			</g>
			<g>
				<g>
					<rect x="295.3" y="135.6" class="st2" width="18.8" height="4.2"/>
				</g>
				<g>
					<rect x="317.6" y="135.6" class="st2" width="18.8" height="4.2"/>
				</g>
				<g>
					<rect x="339.9" y="135.6" class="st2" width="18.8" height="4.2"/>
				</g>
				<g>
					<rect x="362.3" y="135.6" class="st2" width="18.8" height="4.2"/>
				</g>
			</g>
			<g>
				<rect x="295.3" y="145.9" class="st2" width="23.2" height="2.9"/>
			</g>
			<g>
				<rect x="322.9" y="145.9" class="st2" width="23.2" height="2.9"/>
			</g>
			<g>
				<g>
					<path class="st1" d="M313.2,122.1c0,2.3-1.9,4.2-4.2,4.2h-9.4c-2.3,0-4.2-1.9-4.2-4.2v-9.4c0-2.3,1.9-4.2,4.2-4.2h9.4
						c2.3,0,4.2,1.9,4.2,4.2V122.1z"/>
				</g>
				<g>
					<g>
						<path class="st2" d="M304.4,119.7c-1.2,0-2.2-1-2.2-2.2c0-1.2,1-2.2,2.2-2.2c1.2,0,2.2,1,2.2,2.2
							C306.6,118.7,305.6,119.7,304.4,119.7z M304.4,116.3c-0.6,0-1.2,0.5-1.2,1.2c0,0.7,0.5,1.2,1.2,1.2c0.6,0,1.2-0.5,1.2-1.2
							C305.5,116.8,305,116.3,304.4,116.3z"/>
					</g>
				</g>
				<g>
					<g>
						<path class="st2" d="M304.4,121.7c-2.4,0-4.3-1.9-4.3-4.3c0-2.4,1.9-4.3,4.3-4.3s4.3,1.9,4.3,4.3
							C308.7,119.8,306.7,121.7,304.4,121.7z M304.4,114.2c-1.8,0-3.3,1.5-3.3,3.3c0,1.8,1.5,3.3,3.3,3.3c1.8,0,3.3-1.5,3.3-3.3
							C307.6,115.7,306.2,114.2,304.4,114.2z"/>
					</g>
				</g>
				<g>
					<g>
						<path class="st2" d="M304.4,123.8c-3.5,0-6.4-2.9-6.4-6.4c0-3.5,2.9-6.4,6.4-6.4c3.5,0,6.4,2.9,6.4,6.4
							C310.7,121,307.9,123.8,304.4,123.8z M304.4,112.1c-2.9,0-5.3,2.4-5.3,5.3c0,2.9,2.4,5.3,5.3,5.3c2.9,0,5.3-2.4,5.3-5.3
							C309.7,114.5,307.3,112.1,304.4,112.1z"/>
					</g>
				</g>
				<g>
					<g>
						<path class="st2" d="M304.4,125.9c-4.7,0-8.5-3.8-8.5-8.5c0-4.7,3.8-8.5,8.5-8.5c4.7,0,8.5,3.8,8.5,8.5
							C312.8,122.1,309,125.9,304.4,125.9z M304.4,110c-4.1,0-7.4,3.3-7.4,7.4c0,4.1,3.3,7.4,7.4,7.4c4.1,0,7.4-3.3,7.4-7.4
							C311.8,113.4,308.5,110,304.4,110z"/>
					</g>
				</g>
				<g>
					<defs>
						<path id="SVGID_1_" d="M313.2,122.1c0,2.3-1.9,4.2-4.2,4.2h-9.4c-2.3,0-4.2-1.9-4.2-4.2v-9.4c0-2.3,1.9-4.2,4.2-4.2h9.4
							c2.3,0,4.2,1.9,4.2,4.2V122.1z"/>
					</defs>
					<clipPath id="SVGID_2_">
						<use xlink:href="#SVGID_1_"  style="overflow:visible;"/>
					</clipPath>
					<g class="st8">
						<g>
							<path class="st2" d="M304.4,128c-5.8,0-10.5-4.7-10.5-10.5c0-5.8,4.7-10.5,10.5-10.5c5.8,0,10.5,4.7,10.5,10.5
								C314.9,123.3,310.2,128,304.4,128z M304.4,107.9c-5.2,0-9.5,4.3-9.5,9.5c0,5.2,4.3,9.5,9.5,9.5c5.2,0,9.5-4.3,9.5-9.5
								C313.9,112.2,309.6,107.9,304.4,107.9z"/>
						</g>
					</g>
				</g>
			</g>
		</g>
		<g>
			<g>
				<path class="st2" d="M388.8,125.4l-21.4-15.6l-17.2,6.7c0,0,1.6,5.2,2,8.5c0.7,5.4-3.8,7.8-6,8.4c-2,0.5-2-0.3-2-0.3l-4-9.8
					l-1.5-0.7l-5.4-14.3c-0.5-1.2-0.4-2.6,0.1-3.8l0-0.1c0.8-2,2.5-3.5,4.5-4.1l30.8-9.7l0.4-0.4c2.2-1.8,3.4-4.5,3.4-7.3l0-0.1
					c-0.1-2.3-1.2-4.5-3.1-5.8c-0.3-0.2-0.7-0.4-1-0.4l-1.6-0.3l5.5-0.2c1.7-0.1,3.4,0.3,4.8,1.3c2.7,1.8,3.8,2.9,39,32.5
					c5.1,4.7,22.6-6.1,22.6-6.1l10.1,19.2l-27.4,11.1c-6.5,10.7-19,7.9-24.7,2.2C393.3,133.2,388.8,125.4,388.8,125.4z"/>
				<path class="st1" d="M408.9,142.4c-4.7,0-9.7-2-13.1-5.3c-3.1-3-7.1-9.7-7.8-11L367.3,111l-15.8,6.2c0.5,1.7,1.4,5.2,1.8,7.8
					c0.8,6-4.1,8.8-6.8,9.5c-1.3,0.3-2.1,0.2-2.7-0.2c-0.2-0.2-0.4-0.5-0.5-0.8l-3.8-9.4l-1.2-0.5c-0.2-0.1-0.4-0.3-0.5-0.6
					l-5.4-14.3c-0.6-1.5-0.5-3.1,0.1-4.5c1-2.3,2.8-4,5.2-4.8l30.6-9.6l0.3-0.2c1.9-1.6,3.1-4,3-6.5c-0.1-2.1-1-3.9-2.7-5.1
					c-0.2-0.1-0.4-0.2-0.6-0.3l-1.6-0.3c-0.5-0.1-0.8-0.6-0.8-1.1c0-0.5,0.5-0.9,1-0.9l5.5-0.2c1.9-0.1,3.8,0.4,5.4,1.4
					c2,1.3,3.2,2.3,17.4,14.4c5.2,4.4,12.2,10.3,21.6,18.2c3.3,3.1,14.9-2.2,21.4-6.2c0.2-0.1,0.5-0.2,0.8-0.1
					c0.3,0.1,0.5,0.3,0.6,0.5l10.1,19.2c0.1,0.3,0.2,0.5,0.1,0.8c-0.1,0.3-0.3,0.5-0.6,0.6L422,135c-2.6,4.2-6.5,6.8-11.1,7.3
					C410.3,142.4,409.6,142.4,408.9,142.4z M367.5,108.9c0.2,0,0.4,0.1,0.6,0.2l21.4,15.6c0.1,0.1,0.2,0.2,0.3,0.3
					c0,0.1,4.5,7.6,7.6,10.7c2.8,2.8,8.1,5.3,13.4,4.7c4.1-0.5,7.4-2.8,9.8-6.7c0.1-0.2,0.3-0.3,0.5-0.4l26.4-10.7l-9.1-17.3
					c-4,2.4-17.9,10-22.8,5.4C406,102.8,399,97,393.8,92.6c-14.2-12-15.4-13-17.3-14.2c-1.2-0.8-2.7-1.2-4.2-1.1l-1.3,0.1
					c1.5,1.5,2.4,3.6,2.5,5.7c0.1,3.2-1.3,6.2-3.7,8.2l-0.4,0.4c-0.1,0.1-0.2,0.1-0.3,0.2l-30.8,9.7c-1.8,0.6-3.2,1.9-3.9,3.6
					c-0.4,1-0.4,2.1-0.1,3.1l5.3,13.9l1.2,0.5c0.2,0.1,0.4,0.3,0.5,0.5l3.9,9.7c0.2,0,0.4,0,0.9-0.1c0.2-0.1,6.1-1.6,5.3-7.3
					c-0.4-3.2-2-8.3-2-8.3c-0.1-0.5,0.1-1,0.6-1.2l17.2-6.7C367.2,108.9,367.3,108.9,367.5,108.9z M345.3,133.3
					C345.3,133.3,345.3,133.3,345.3,133.3C345.3,133.3,345.3,133.3,345.3,133.3z M345.3,133.3L345.3,133.3L345.3,133.3z"/>
			</g>
		</g>
		<g>
			<g>
				<polygon class="st4" points="453.5,92.2 481.6,141.7 461.7,154.5 435.8,102.8 				"/>
				<path class="st1" d="M461.3,156l-26.8-53.5l19.3-11.7l29.1,51.2L461.3,156z M437.1,103.2l25,49.9l18.2-11.7l-27.1-47.8
					L437.1,103.2z"/>
			</g>
		</g>
	</g>
	<g>
		<g>
			<g>
				<path class="st2" d="M268.4,80.5c-5.5,0-10-4.5-10-10c0-5.5,4.5-10,10-10c5.5,0,10,4.5,10,10C278.4,76,274,80.5,268.4,80.5z"/>
				<path class="st1" d="M268.4,81.5c-6.1,0-11-4.9-11-11s4.9-11,11-11s11,4.9,11,11S274.5,81.5,268.4,81.5z M268.4,61.5
					c-5,0-9,4-9,9s4,9,9,9c5,0,9-4,9-9S273.4,61.5,268.4,61.5z"/>
			</g>
		</g>
		<g>
			<path class="st1" d="M269.9,68.2c-0.4-0.4-0.8-0.6-1.3-0.6c-0.6,0-1,0.3-1,0.9c0,1.4,3.1,1.1,3.1,3.5c0,1.1-0.6,1.9-1.8,2.1v1.2
				H268v-1.2c-0.7-0.1-1.5-0.4-2-0.9l0.6-0.9c0.5,0.4,1.1,0.7,1.7,0.7c0.8,0,1.1-0.4,1.1-1c0-1.5-3.1-1.3-3.1-3.5
				c0-1.1,0.7-1.8,1.7-2v-1.2h0.9v1.2c0.7,0.1,1.3,0.5,1.7,0.9L269.9,68.2z"/>
		</g>
	</g>
	<g>
		<g>
			<g>
				<circle class="st2" cx="226.8" cy="168.1" r="8"/>
				<path class="st1" d="M226.8,177.1c-5,0-9-4-9-9s4-9,9-9c5,0,9,4,9,9S231.8,177.1,226.8,177.1z M226.8,161.1c-3.9,0-7,3.1-7,7
					s3.1,7,7,7c3.9,0,7-3.1,7-7S230.7,161.1,226.8,161.1z"/>
			</g>
		</g>
		<g>
			<path class="st1" d="M228,166.2c-0.3-0.3-0.6-0.5-1.1-0.5c-0.5,0-0.8,0.3-0.8,0.7c0,1.1,2.5,0.9,2.5,2.8c0,0.9-0.5,1.5-1.4,1.7v1
				h-0.7v-0.9c-0.6-0.1-1.2-0.3-1.6-0.7l0.5-0.7c0.4,0.3,0.9,0.6,1.4,0.6c0.6,0,0.9-0.3,0.9-0.8c0-1.2-2.5-1-2.5-2.8
				c0-0.9,0.5-1.5,1.4-1.6v-0.9h0.7v0.9c0.6,0.1,1,0.4,1.3,0.7L228,166.2z"/>
		</g>
	</g>
	<g>
		<g>
			<g>
				<path class="st2" d="M252.9,220.6c-4.4,0-8-3.6-8-8c0-4.4,3.6-8,8-8c4.4,0,8,3.6,8,8C260.9,217,257.3,220.6,252.9,220.6z"/>
				<path class="st1" d="M252.9,221.6c-5,0-9-4-9-9c0-5,4-9,9-9s9,4,9,9C261.9,217.5,257.9,221.6,252.9,221.6z M252.9,205.6
					c-3.9,0-7,3.1-7,7c0,3.9,3.1,7,7,7c3.9,0,7-3.1,7-7C259.9,208.7,256.8,205.6,252.9,205.6z"/>
			</g>
		</g>
		<g>
			<path class="st1" d="M254.1,210.7c-0.3-0.3-0.6-0.5-1.1-0.5c-0.5,0-0.8,0.3-0.8,0.7c0,1.1,2.5,0.9,2.5,2.8c0,0.9-0.5,1.5-1.4,1.7
				v1h-0.7v-0.9c-0.6-0.1-1.2-0.3-1.6-0.7l0.5-0.7c0.4,0.3,0.9,0.6,1.4,0.6c0.6,0,0.9-0.3,0.9-0.8c0-1.2-2.5-1-2.5-2.8
				c0-0.9,0.5-1.5,1.4-1.6v-0.9h0.7v0.9c0.6,0.1,1,0.4,1.3,0.7L254.1,210.7z"/>
		</g>
	</g>
	<g>
		<g>
			<path class="st1" d="M360.8,69c-0.2,0-0.4-0.1-0.6-0.2c-0.5-0.3-0.6-0.9-0.2-1.4L370.2,53h19.3c0.7,0,1.2-0.5,1.2-1.2V39
				c0-0.7-0.5-1.2-1.2-1.2h-30.8c-0.7,0-1.2,0.5-1.2,1.2v12.8c0,0.7,0.5,1.2,1.2,1.2h3.7c0.6,0,1,0.4,1,1c0,0.6-0.4,1-1,1h-3.7
				c-1.8,0-3.2-1.4-3.2-3.2V39c0-1.8,1.4-3.2,3.2-3.2h30.8c1.8,0,3.2,1.4,3.2,3.2v12.8c0,1.8-1.4,3.2-3.2,3.2h-18.3l-9.6,13.6
				C361.4,68.9,361.1,69,360.8,69z"/>
		</g>
		<g>
			<g>
				<path class="st1" d="M369.9,42.9h-8.1c-0.6,0-1-0.4-1-1c0-0.6,0.4-1,1-1h8.1c0.6,0,1,0.4,1,1C370.9,42.4,370.5,42.9,369.9,42.9z
					"/>
			</g>
			<g>
				<path class="st1" d="M378.9,48h-17.2c-0.6,0-1-0.4-1-1c0-0.6,0.4-1,1-1h17.2c0.6,0,1,0.4,1,1C379.9,47.6,379.5,48,378.9,48z"/>
			</g>
		</g>
	</g>
	<g>
		<g>
			
				<rect x="186.9" y="155.6" transform="matrix(-0.2738 0.9618 -0.9618 -0.2738 440.1343 53.0148)" class="st2" width="26.3" height="74.1"/>
			<path class="st1" d="M232.8,216.7l-73.1-20.8l7.8-27.2l73.1,20.8L232.8,216.7z M162.1,194.5l69.3,19.7l6.7-23.4l-69.3-19.7
				L162.1,194.5z"/>
		</g>
		<g>
			
				<rect x="191.3" y="160" transform="matrix(0.2738 -0.9618 0.9618 0.2738 -40.0275 332.3162)" class="st2" width="17.5" height="65.3"/>
			<g>
				<path class="st1" d="M229.7,211.3L165,192.8l5.3-18.8l64.7,18.4L229.7,211.3z M167.5,191.5l60.9,17.3l4.3-14.9l-60.9-17.3
					L167.5,191.5z"/>
			</g>
		</g>
		<g>
			<g>
				<path class="st2" d="M196.7,203.2c-4.4-1.3-6.8-6.9-5.2-12.6c1.6-5.6,6.4-9.2,10.9-7.9c4.4,1.3,6.8,6.9,5.2,12.6
					C206,201,201.2,204.5,196.7,203.2z"/>
				<path class="st1" d="M198.6,204.5c-0.7,0-1.5-0.1-2.2-0.3h0c-5-1.4-7.6-7.6-5.9-13.8c0.9-3.4,3-6.2,5.8-7.7
					c2-1.1,4.3-1.4,6.4-0.8c5,1.4,7.6,7.6,5.9,13.8c-0.9,3.4-3,6.2-5.8,7.7C201.5,204.1,200,204.5,198.6,204.5z M197,202.3
					c1.6,0.5,3.2,0.2,4.8-0.7c2.3-1.3,4-3.6,4.8-6.5c1.4-5.1-0.6-10.2-4.5-11.3c-1.6-0.5-3.2-0.2-4.8,0.7c-2.3,1.3-4,3.6-4.8,6.5
					C191.1,196,193.1,201.1,197,202.3L197,202.3z"/>
			</g>
			<g>
				<path class="st3" d="M203.2,190.2c-0.5-0.8-0.9-1.2-1.7-1.5c-0.9-0.3-1.6,0.1-1.9,0.9c-0.6,2,4.2,3,3.2,6.4
					c-0.5,1.6-1.8,2.5-3.5,2.4l-0.5,1.7l-1.4-0.4l0.5-1.7c-1-0.4-2-1.2-2.6-2.1l1.3-1.1c0.6,0.9,1.3,1.5,2.2,1.8
					c1.1,0.3,1.8-0.1,2.1-1c0.6-2.2-4.1-3.2-3.2-6.4c0.5-1.6,1.8-2.4,3.4-2.3l0.5-1.7l1.4,0.4l-0.5,1.7c1.1,0.4,1.6,1.2,2.1,2
					L203.2,190.2z"/>
			</g>
		</g>
		<g>
			<path class="st2" d="M218.8,199.8c-1.3-0.4-2.1-1.8-1.7-3.1c0.4-1.3,1.8-2.1,3.1-1.7c1.3,0.4,2.1,1.8,1.7,3.1
				C221.5,199.4,220.1,200.2,218.8,199.8z"/>
			<path class="st1" d="M219.5,200.9c-0.3,0-0.6,0-1-0.1l0,0c-1.9-0.5-2.9-2.5-2.4-4.3c0.5-1.9,2.5-2.9,4.3-2.4
				c1.9,0.5,2.9,2.5,2.4,4.3C222.4,199.9,221,200.9,219.5,200.9z M219.1,198.9c0.8,0.2,1.6-0.2,1.9-1c0.1-0.4,0.1-0.8-0.1-1.1
				c-0.2-0.4-0.5-0.6-0.9-0.7c-0.8-0.2-1.6,0.2-1.9,1C217.8,197.8,218.3,198.6,219.1,198.9L219.1,198.9z"/>
		</g>
		<g>
			<path class="st2" d="M181,189c-1.3-0.4-2.1-1.8-1.7-3.1c0.4-1.3,1.8-2.1,3.1-1.7c1.3,0.4,2.1,1.8,1.7,3.1
				C183.7,188.6,182.3,189.4,181,189z"/>
			<path class="st1" d="M181.7,190.1c-0.3,0-0.6,0-1-0.1c-0.9-0.3-1.6-0.8-2.1-1.7c-0.5-0.8-0.6-1.8-0.3-2.7
				c0.3-0.9,0.8-1.6,1.7-2.1c0.8-0.5,1.8-0.6,2.7-0.3c0.9,0.3,1.6,0.8,2.1,1.7c0.5,0.8,0.6,1.8,0.3,2.7c-0.3,0.9-0.8,1.6-1.7,2.1
				C182.9,190,182.3,190.1,181.7,190.1z M181.7,185.1c-0.3,0-0.5,0.1-0.7,0.2c-0.4,0.2-0.6,0.5-0.7,0.9c-0.1,0.4-0.1,0.8,0.1,1.1
				c0.2,0.4,0.5,0.6,0.9,0.7l0,0c0.4,0.1,0.8,0.1,1.1-0.1c0.4-0.2,0.6-0.5,0.7-0.9c0.1-0.4,0.1-0.8-0.1-1.1
				c-0.2-0.4-0.5-0.6-0.9-0.7C182,185.1,181.8,185.1,181.7,185.1z"/>
		</g>
	</g>
	<g>
		<g>
			<path class="st2" d="M314.9,200.4L314.9,200.4c0-0.1,0.1-0.3,0.1-0.5c0-2.1-6.5-3.7-14.5-3.7c-8,0-14.5,1.7-14.5,3.7v26.7
				c0,2.1,6.5,3.7,14.5,3.7c8,0,14.5-1.7,14.5-3.7L314.9,200.4z"/>
			<path class="st1" d="M300.5,231.5c-5.4,0-15.5-1-15.5-4.7V200c0-3.8,10.1-4.7,15.5-4.7s15.5,1,15.5,4.7c0,0.2,0,0.3-0.1,0.5
				l0.1,26.3C316,230.5,305.9,231.5,300.5,231.5z M300.5,197.3c-8.7,0-13.4,1.9-13.5,2.7v26.7c0.1,0.8,4.8,2.7,13.5,2.7
				c8.7,0,13.4-1.9,13.5-2.7l-0.1-25.3l-0.6,0l0.7-1.4C313.9,199.2,309.2,197.3,300.5,197.3z"/>
		</g>
		<g>
			<path class="st1" d="M300.5,204.7c-5.4,0-15.5-1-15.5-4.7c0-3.8,10.1-4.7,15.5-4.7s15.5,1,15.5,4.7
				C316,203.7,305.9,204.7,300.5,204.7z M300.5,197.3c-8.7,0-13.4,1.9-13.5,2.7c0.1,0.8,4.8,2.7,13.5,2.7c8.7,0,13.4-1.9,13.5-2.7
				C313.9,199.2,309.2,197.3,300.5,197.3z M314,200L314,200L314,200z"/>
		</g>
		<g>
			<path class="st1" d="M300.5,210.1c-5.4,0-15.5-1-15.5-4.7c0-0.6,0.4-1,1-1c0.6,0,1,0.4,1,1c0.1,0.8,4.8,2.7,13.5,2.7
				c8.7,0,13.4-1.9,13.5-2.7c0-0.6,0.4-1,1-1s1,0.4,1,1C316,209.1,305.9,210.1,300.5,210.1z"/>
		</g>
		<g>
			<path class="st1" d="M300.5,215.4c-5.4,0-15.5-1-15.5-4.7c0-0.6,0.4-1,1-1c0.6,0,1,0.4,1,1c0.1,0.8,4.8,2.7,13.5,2.7
				c8.7,0,13.4-1.9,13.5-2.7c0-0.6,0.4-1,1-1s1,0.4,1,1C316,214.4,305.9,215.4,300.5,215.4z"/>
		</g>
		<g>
			<path class="st1" d="M300.5,220.8c-5.4,0-15.5-1-15.5-4.7c0-0.6,0.4-1,1-1c0.6,0,1,0.4,1,1c0.1,0.8,4.8,2.7,13.5,2.7
				s13.4-1.9,13.5-2.7c0-0.6,0.4-1,1-1s1,0.4,1,1C316,219.8,305.9,220.8,300.5,220.8z"/>
		</g>
		<g>
			<path class="st1" d="M300.5,226.1c-5.4,0-15.5-1-15.5-4.7c0-0.6,0.4-1,1-1c0.6,0,1,0.4,1,1c0.1,0.8,4.8,2.7,13.5,2.7
				s13.4-1.9,13.5-2.7c0-0.6,0.4-1,1-1s1,0.4,1,1C316,225.1,305.9,226.1,300.5,226.1z"/>
		</g>
		<g>
			<g>
				<g>
					<path class="st1" d="M287.9,205c-0.6,0-1-0.4-1-1v-2c0-0.6,0.4-1,1-1c0.6,0,1,0.4,1,1v2C288.9,204.6,288.5,205,287.9,205z"/>
				</g>
				<g>
					<path class="st1" d="M290.4,205.8c-0.6,0-1-0.4-1-1v-2c0-0.6,0.4-1,1-1s1,0.4,1,1v2C291.4,205.4,291,205.8,290.4,205.8z"/>
				</g>
				<g>
					<path class="st1" d="M293.3,206.5c-0.6,0-1-0.4-1-1v-2c0-0.6,0.4-1,1-1c0.6,0,1,0.4,1,1v2C294.3,206.1,293.9,206.5,293.3,206.5
						z"/>
				</g>
				<g>
					<path class="st1" d="M296.7,206.9c-0.6,0-1-0.4-1-1v-2c0-0.6,0.4-1,1-1c0.6,0,1,0.4,1,1v2C297.7,206.4,297.3,206.9,296.7,206.9
						z"/>
				</g>
			</g>
			<g>
				<g>
					<path class="st1" d="M313,204.9c-0.6,0-1-0.4-1-1v-2c0-0.6,0.4-1,1-1c0.6,0,1,0.4,1,1v2C314,204.5,313.5,204.9,313,204.9z"/>
				</g>
				<g>
					<path class="st1" d="M310.5,205.8c-0.6,0-1-0.4-1-1v-2c0-0.6,0.4-1,1-1c0.6,0,1,0.4,1,1v2C311.5,205.3,311,205.8,310.5,205.8z"
						/>
				</g>
				<g>
					<path class="st1" d="M307.6,206.4c-0.6,0-1-0.4-1-1v-2c0-0.6,0.4-1,1-1c0.6,0,1,0.4,1,1v2C308.6,206,308.2,206.4,307.6,206.4z"
						/>
				</g>
				<g>
					<path class="st1" d="M304.2,206.8c-0.6,0-1-0.4-1-1v-2c0-0.6,0.4-1,1-1s1,0.4,1,1v2C305.2,206.3,304.8,206.8,304.2,206.8z"/>
				</g>
			</g>
			<g>
				<path class="st1" d="M300.5,207c-0.6,0-1-0.4-1-1v-2c0-0.6,0.4-1,1-1s1,0.4,1,1v2C301.5,206.6,301,207,300.5,207z"/>
			</g>
		</g>
		<g>
			<g>
				<g>
					<path class="st1" d="M287.9,210.4c-0.6,0-1-0.4-1-1v-2c0-0.6,0.4-1,1-1c0.6,0,1,0.4,1,1v2C288.9,209.9,288.5,210.4,287.9,210.4
						z"/>
				</g>
				<g>
					<path class="st1" d="M290.4,211.2c-0.6,0-1-0.4-1-1v-2c0-0.6,0.4-1,1-1s1,0.4,1,1v2C291.4,210.8,291,211.2,290.4,211.2z"/>
				</g>
				<g>
					<path class="st1" d="M293.3,211.9c-0.6,0-1-0.4-1-1v-2c0-0.6,0.4-1,1-1c0.6,0,1,0.4,1,1v2C294.3,211.4,293.9,211.9,293.3,211.9
						z"/>
				</g>
				<g>
					<path class="st1" d="M296.7,212.2c-0.6,0-1-0.4-1-1v-2c0-0.6,0.4-1,1-1c0.6,0,1,0.4,1,1v2C297.7,211.8,297.3,212.2,296.7,212.2
						z"/>
				</g>
			</g>
			<g>
				<g>
					<path class="st1" d="M313,210.3c-0.6,0-1-0.4-1-1v-2c0-0.6,0.4-1,1-1c0.6,0,1,0.4,1,1v2C314,209.9,313.5,210.3,313,210.3z"/>
				</g>
				<g>
					<path class="st1" d="M310.5,211.2c-0.6,0-1-0.4-1-1v-2c0-0.6,0.4-1,1-1c0.6,0,1,0.4,1,1v2C311.5,210.7,311,211.2,310.5,211.2z"
						/>
				</g>
				<g>
					<path class="st1" d="M307.6,211.8c-0.6,0-1-0.4-1-1v-2c0-0.6,0.4-1,1-1c0.6,0,1,0.4,1,1v2C308.6,211.4,308.2,211.8,307.6,211.8
						z"/>
				</g>
				<g>
					<path class="st1" d="M304.2,212.2c-0.6,0-1-0.4-1-1v-2c0-0.6,0.4-1,1-1s1,0.4,1,1v2C305.2,211.7,304.8,212.2,304.2,212.2z"/>
				</g>
			</g>
			<g>
				<path class="st1" d="M300.5,212.4c-0.6,0-1-0.4-1-1v-2c0-0.6,0.4-1,1-1s1,0.4,1,1v2C301.5,212,301,212.4,300.5,212.4z"/>
			</g>
		</g>
		<g>
			<g>
				<g>
					<path class="st1" d="M287.9,215.8c-0.6,0-1-0.4-1-1v-2c0-0.6,0.4-1,1-1c0.6,0,1,0.4,1,1v2C288.9,215.3,288.5,215.8,287.9,215.8
						z"/>
				</g>
				<g>
					<path class="st1" d="M290.4,216.6c-0.6,0-1-0.4-1-1v-2c0-0.6,0.4-1,1-1s1,0.4,1,1v2C291.4,216.2,291,216.6,290.4,216.6z"/>
				</g>
				<g>
					<path class="st1" d="M293.3,217.3c-0.6,0-1-0.4-1-1v-2c0-0.6,0.4-1,1-1c0.6,0,1,0.4,1,1v2C294.3,216.8,293.9,217.3,293.3,217.3
						z"/>
				</g>
				<g>
					<path class="st1" d="M296.7,217.6c-0.6,0-1-0.4-1-1v-2c0-0.6,0.4-1,1-1c0.6,0,1,0.4,1,1v2C297.7,217.2,297.3,217.6,296.7,217.6
						z"/>
				</g>
			</g>
			<g>
				<g>
					<path class="st1" d="M313,215.7c-0.6,0-1-0.4-1-1v-2c0-0.6,0.4-1,1-1c0.6,0,1,0.4,1,1v2C314,215.2,313.5,215.7,313,215.7z"/>
				</g>
				<g>
					<path class="st1" d="M310.5,216.5c-0.6,0-1-0.4-1-1v-2c0-0.6,0.4-1,1-1c0.6,0,1,0.4,1,1v2C311.5,216.1,311,216.5,310.5,216.5z"
						/>
				</g>
				<g>
					<path class="st1" d="M307.6,217.2c-0.6,0-1-0.4-1-1v-2c0-0.6,0.4-1,1-1c0.6,0,1,0.4,1,1v2C308.6,216.8,308.2,217.2,307.6,217.2
						z"/>
				</g>
				<g>
					<path class="st1" d="M304.2,217.5c-0.6,0-1-0.4-1-1v-2c0-0.6,0.4-1,1-1s1,0.4,1,1v2C305.2,217.1,304.8,217.5,304.2,217.5z"/>
				</g>
			</g>
			<g>
				<path class="st1" d="M300.5,217.8c-0.6,0-1-0.4-1-1v-2c0-0.6,0.4-1,1-1s1,0.4,1,1v2C301.5,217.3,301,217.8,300.5,217.8z"/>
			</g>
		</g>
		<g>
			<g>
				<g>
					<path class="st1" d="M287.9,221.2c-0.6,0-1-0.4-1-1v-2c0-0.6,0.4-1,1-1c0.6,0,1,0.4,1,1v2C288.9,220.7,288.5,221.2,287.9,221.2
						z"/>
				</g>
				<g>
					<path class="st1" d="M290.4,222c-0.6,0-1-0.4-1-1v-2c0-0.6,0.4-1,1-1s1,0.4,1,1v2C291.4,221.6,291,222,290.4,222z"/>
				</g>
				<g>
					<path class="st1" d="M293.3,222.7c-0.6,0-1-0.4-1-1v-2c0-0.6,0.4-1,1-1c0.6,0,1,0.4,1,1v2C294.3,222.2,293.9,222.7,293.3,222.7
						z"/>
				</g>
				<g>
					<path class="st1" d="M296.7,223c-0.6,0-1-0.4-1-1v-2c0-0.6,0.4-1,1-1c0.6,0,1,0.4,1,1v2C297.7,222.6,297.3,223,296.7,223z"/>
				</g>
			</g>
			<g>
				<g>
					<path class="st1" d="M313,221.1c-0.6,0-1-0.4-1-1v-2c0-0.6,0.4-1,1-1c0.6,0,1,0.4,1,1v2C314,220.6,313.5,221.1,313,221.1z"/>
				</g>
				<g>
					<path class="st1" d="M310.5,221.9c-0.6,0-1-0.4-1-1v-2c0-0.6,0.4-1,1-1c0.6,0,1,0.4,1,1v2C311.5,221.5,311,221.9,310.5,221.9z"
						/>
				</g>
				<g>
					<path class="st1" d="M307.6,222.6c-0.6,0-1-0.4-1-1v-2c0-0.6,0.4-1,1-1c0.6,0,1,0.4,1,1v2C308.6,222.1,308.2,222.6,307.6,222.6
						z"/>
				</g>
				<g>
					<path class="st1" d="M304.2,222.9c-0.6,0-1-0.4-1-1v-2c0-0.6,0.4-1,1-1s1,0.4,1,1v2C305.2,222.5,304.8,222.9,304.2,222.9z"/>
				</g>
			</g>
			<g>
				<path class="st1" d="M300.5,223.2c-0.6,0-1-0.4-1-1v-2c0-0.6,0.4-1,1-1s1,0.4,1,1v2C301.5,222.7,301,223.2,300.5,223.2z"/>
			</g>
		</g>
		<g>
			<g>
				<g>
					<path class="st1" d="M287.9,226.6c-0.6,0-1-0.4-1-1v-2c0-0.6,0.4-1,1-1c0.6,0,1,0.4,1,1v2C288.9,226.1,288.5,226.6,287.9,226.6
						z"/>
				</g>
				<g>
					<path class="st1" d="M290.4,227.4c-0.6,0-1-0.4-1-1v-2c0-0.6,0.4-1,1-1s1,0.4,1,1v2C291.4,226.9,291,227.4,290.4,227.4z"/>
				</g>
				<g>
					<path class="st1" d="M293.3,228.1c-0.6,0-1-0.4-1-1v-2c0-0.6,0.4-1,1-1c0.6,0,1,0.4,1,1v2C294.3,227.6,293.9,228.1,293.3,228.1
						z"/>
				</g>
				<g>
					<path class="st1" d="M296.7,228.4c-0.6,0-1-0.4-1-1v-2c0-0.6,0.4-1,1-1c0.6,0,1,0.4,1,1v2C297.7,228,297.3,228.4,296.7,228.4z"
						/>
				</g>
			</g>
			<g>
				<g>
					<path class="st1" d="M313,226.5c-0.6,0-1-0.4-1-1v-2c0-0.6,0.4-1,1-1c0.6,0,1,0.4,1,1v2C314,226,313.5,226.5,313,226.5z"/>
				</g>
				<g>
					<path class="st1" d="M310.5,227.3c-0.6,0-1-0.4-1-1v-2c0-0.6,0.4-1,1-1c0.6,0,1,0.4,1,1v2C311.5,226.9,311,227.3,310.5,227.3z"
						/>
				</g>
				<g>
					<path class="st1" d="M307.6,228c-0.6,0-1-0.4-1-1v-2c0-0.6,0.4-1,1-1c0.6,0,1,0.4,1,1v2C308.6,227.5,308.2,228,307.6,228z"/>
				</g>
				<g>
					<path class="st1" d="M304.2,228.3c-0.6,0-1-0.4-1-1v-2c0-0.6,0.4-1,1-1s1,0.4,1,1v2C305.2,227.9,304.8,228.3,304.2,228.3z"/>
				</g>
			</g>
			<g>
				<path class="st1" d="M300.5,228.6c-0.6,0-1-0.4-1-1v-2c0-0.6,0.4-1,1-1s1,0.4,1,1v2C301.5,228.1,301,228.6,300.5,228.6z"/>
			</g>
		</g>
	</g>
</g>
</svg>
