<?xml version="1.0" encoding="UTF-8"?>
<svg id="Layer_1" xmlns="http://www.w3.org/2000/svg" version="1.1" viewBox="0 0 535 315">
  <!-- Generator: Adobe Illustrator 29.5.1, SVG Export Plug-In . SVG Version: 2.1.0 Build 141)  -->
  <defs>
    <style>
      .st0 {
        fill: #fff;
      }
    </style>
  </defs>
  <path class="st0" d="M20.6,96c4.2-1.2,5.4-2.6,5.4-10.4V8.7h-3.9c-7.7,0-10.2,2.7-14.4,29.9h-2.6L8.1,6.1h51.1l2.9,32.5h-2.6c-4.2-27.2-6.7-29.9-14.4-29.9h-3.9v76.8c0,7.8,1.2,9.3,5.4,10.4v1.6h-25.9v-1.6Z"/>
  <path class="st0" d="M98.7,96c4.7-1.2,5.9-2.6,5.9-10.4v-36.4c0-6.9-1.7-11.6-8-11.6s-11.1,5.1-11.1,12.3v35.8c0,7.8,1.2,9.3,5.9,10.4v1.6h-26.4v-1.6c4.7-1.2,5.9-2.6,5.9-10.4V20.5c0-7.8-1.2-9.3-5.9-10.4v-1.6h7.8c5-.1,8.8-.8,11.4-3.8h1.3v36.7c4.3-5.6,10.6-10.6,18.5-10.6s15.2,5.1,15.2,17.8v37c0,7.8,1.2,9.3,5.9,10.4v1.6h-26.4v-1.6Z"/>
  <path class="st0" d="M128,66.5c0-20.1,10.6-35.7,27.8-35.7s16.6,5.5,16.6,12.1-6.3,9.1-17.4,13.3c-8.9,3.4-11.2,5.6-11.2,12.1,0,9.4,4.2,22.2,14.5,22.2s12.9-8.2,14.9-20.2l2.4.7c-3.4,20.1-12.3,28-23.5,28s-24-13.8-24-32.5ZM152.5,54.3c7.6-3.4,9-6.8,9-11.4s-2.1-9.7-7.1-9.7c-7.7,0-11,11.2-11,26.6v.3c2.1-2.5,5.6-4.3,9-5.9Z"/>
  <path class="st0" d="M202.2,96c4.2-1.2,5.4-2.6,5.4-10.4V18.2c0-7.8-1.2-9.3-5.4-10.4v-1.6h7.2c10.7-.1,15-1.4,21.3-1.4,12.7,0,26.4,4.7,26.4,26.8s-12.7,28.2-25.3,28.2-6.3-.4-9-1.3v27.2c0,7.8,1.4,9.3,6.9,10.4v1.6h-27.4v-1.6ZM228.7,57.1c6.1,0,12-4.3,12-24.7s-6-25.1-12.4-25.1-3.5.3-5.6.8v47.7c2,.9,3.9,1.3,6,1.3Z"/>
  <path class="st0" d="M261,66.5c0-20.1,10.6-35.7,27.8-35.7s16.6,5.5,16.6,12.1-6.3,9.1-17.4,13.3c-8.9,3.4-11.2,5.6-11.2,12.1,0,9.4,4.2,22.2,14.5,22.2s12.9-8.2,14.9-20.2l2.4.7c-3.4,20.1-12.3,28-23.5,28s-24-13.8-24-32.5ZM285.5,54.3c7.6-3.4,9-6.8,9-11.4s-2.1-9.7-7.1-9.7c-7.7,0-11,11.2-11,26.6v.3c2.1-2.5,5.6-4.3,9-5.9Z"/>
  <path class="st0" d="M310.5,96c4.7-1.2,5.9-2.6,5.9-10.4v-38.9c0-7.8-1.2-9.3-5.9-10.4v-1.6h7.8c5-.1,8.8-.8,11.4-3.8h1.3v11.6c3.1-5.7,7.6-11.6,11.9-11.6s2.4,6,8.2,6,2.1-.3,2.5-.5l.8.8c-1.4,5.4-4.6,12.4-9.1,12.4s-5.6-8.5-9.8-8.5-4.4,3.3-4.4,10.7v33.8c0,7.8,2.2,9.3,10.6,10.4v1.6h-31.1v-1.6Z"/>
  <path class="st0" d="M357.6,96c4.7-1.2,5.9-2.6,5.9-10.4v-44.1c0-5.4-.7-6.5-7.8-6.5v-2.6h14.1c-7.8-3.7-11.5-9.1-11.5-15.8s6-11.8,15.2-11.8,8.6,1.8,15,1.8l2.4,21h-2.6c-4.2-17.2-7.7-20.2-12.1-20.2s-5.7,2.7-5.7,8.8,5.1,16.2,12.8,16.2h3.7v2.6c-7.3,0-8.6,1.2-8.6,6.5v44.1c0,7.8,1.7,9.3,8.1,10.4v1.6h-28.6v-1.6Z"/>
  <path class="st0" d="M388.4,66.5c0-20.1,10.6-35.7,27.8-35.7s16.6,5.5,16.6,12.1-6.3,9.1-17.4,13.3c-8.9,3.4-11.2,5.6-11.2,12.1,0,9.4,4.2,22.2,14.5,22.2s12.9-8.2,14.9-20.2l2.4.7c-3.4,20.1-12.3,28-23.5,28s-24-13.8-24-32.5ZM413,54.3c7.6-3.4,9-6.8,9-11.4s-2.1-9.7-7.1-9.7c-7.7,0-11,11.2-11,26.6v.3c2.1-2.5,5.6-4.3,9-5.9Z"/>
  <path class="st0" d="M440.9,64.5c0-20.8,10.3-33.7,26.9-33.7s9.7,1.8,14.4,1.8l2.9,22.7h-2.6c-3.4-19.1-8.1-21.9-12.8-21.9-8.8,0-12.5,11.4-12.5,27.3s3.9,31.3,14.1,31.3,10.8-4.2,14-19.3l2.6.4c-3.8,19.7-12,25.9-22.6,25.9-15.3,0-24.3-12.4-24.3-34.5Z"/>
  <path class="st0" d="M496.5,79.1v-37.7c0-5.4-.7-6.5-6.9-6.5h-.7v-2.6h3.1c12.5,0,14-6,16.6-17.5h2.5v17.5h12.4v2.6c-11,0-12.4,1.2-12.4,6.5v38.8c0,7.6.4,10.8,3.4,10.8s5.6-5.7,7.7-18.5l2.4.7c-2.7,17.2-5.9,25.2-16.2,25.2s-11.9-6.4-11.9-19.2Z"/>
  <path class="st0" d="M8.3,206.9l-2.7-33.2h2.6c3.7,26.3,10.8,32.3,18.7,32.3s9.5-4.2,9.5-11.6c0-11.1-7.2-20.8-16.1-33.2-8.1-11.1-15.2-20-15.2-30.4s8-16.5,21.6-16.5,12.1,1.7,18.9,1.7l3,32.3h-2.6c-3.8-26.3-9-31.3-17-31.3s-8.6,3.7-8.6,9.1,6.1,16.1,15.2,28.3c7.4,10.3,16.1,21.8,16.1,34.7s-8.8,19.5-21.9,19.5-13.7-1.7-21.4-1.7Z"/>
  <path class="st0" d="M57.1,176.1c0-20.1,10.6-35.7,27.8-35.7s16.6,5.5,16.6,12.1-6.3,9.1-17.4,13.3c-8.9,3.4-11.2,5.6-11.2,12.1,0,9.4,4.2,22.2,14.5,22.2s12.9-8.2,14.9-20.2l2.4.7c-3.4,20.1-12.3,28-23.5,28s-24-13.8-24-32.5ZM81.6,163.9c7.6-3.4,9-6.8,9-11.4s-2.1-9.7-7.1-9.7c-7.7,0-11,11.2-11,26.6v.3c2.1-2.5,5.6-4.3,9-5.9Z"/>
  <path class="st0" d="M106.6,205.6c4.7-1.2,5.9-2.6,5.9-10.4v-38.9c0-7.8-1.2-9.3-5.9-10.4v-1.6h7.8c5-.1,8.8-.8,11.4-3.8h1.3v11.6c3.1-5.7,7.6-11.6,11.9-11.6s2.4,6,8.2,6,2.1-.3,2.5-.5l.8.8c-1.4,5.4-4.6,12.4-9.1,12.4s-5.6-8.5-9.8-8.5-4.4,3.3-4.4,10.7v33.8c0,7.8,2.2,9.3,10.6,10.4v1.6h-31.1v-1.6Z"/>
  <path class="st0" d="M150.2,143.4v-1.6h29.9v1.6c-6.1,1.2-6.7,2.5-4.4,9.9l11.2,37.9,10.4-37.7c2.1-7.6,1.6-8.9-4.6-10.1v-1.6h15.9v1.6c-4.2,1.2-6.5,2.5-8.6,9.9l-15.9,55.2h-7.7l-17.4-55.2c-2.2-7.4-4.7-8.8-8.9-9.9Z"/>
  <path class="st0" d="M206.9,176.1c0-20.1,10.6-35.7,27.8-35.7s16.6,5.5,16.6,12.1-6.3,9.1-17.4,13.3c-8.9,3.4-11.2,5.6-11.2,12.1,0,9.4,4.2,22.2,14.5,22.2s12.9-8.2,14.9-20.2l2.4.7c-3.4,20.1-12.3,28-23.5,28s-24-13.8-24-32.5ZM231.4,163.9c7.6-3.4,9-6.8,9-11.4s-2.1-9.7-7.1-9.7c-7.7,0-11,11.2-11,26.6v.3c2.1-2.5,5.6-4.3,9-5.9Z"/>
</svg>