<svg width="532" height="70" viewBox="0 0 532 70" fill="none" xmlns="http://www.w3.org/2000/svg">
<path d="M-41 38.732C-38.8712 38.72 -36.2488 38.714 -33.1636 38.7079C-30.0785 38.7019 5.83305 38.6537 5.83305 38.6537C5.83305 38.6537 16.3227 30.4423 23.326 38.6416C30.3294 46.8409 39.5849 27.8257 42.701 38.6356C47.9149 56.6922 52.9438 20.8202 58.5897 39.1963C66.1484 59.4052 78.5508 19.5541 86.2637 38.6235C93.9767 57.693 100.98 57.7352 110.05 38.6235C119.121 19.5119 133.899 21.1638 134.886 38.6235C135.873 56.0833 142.507 77.4437 160.555 38.6296C172.155 -0.0278168 183.725 4.49387 186.841 38.6356C197.731 73.5249 203.285 67.8215 213.558 38.6416C223.832 9.46169 232.625 -29.0811 240.492 38.6476C248.359 106.376 267.426 38.6597 267.426 38.6597C267.426 38.6597 282.512 -21.4304 294.143 38.6718C300.098 70.5526 313.117 51.025 320.429 38.6838C327.741 26.3426 340.976 21.7064 346.098 38.6959C351.219 55.6853 360.444 55.4984 370.903 38.7079C381.361 21.9234 387.84 21.3567 394.658 38.72C401.477 56.0833 404.346 67.6045 417.149 38.732C429.953 9.8596 431.31 12.5605 438.16 38.7441C445.039 64.9277 450.685 77.293 457.504 38.7562C464.322 0.219364 467.129 0.352005 474.935 38.7682C482.74 77.1844 483.543 59.2484 490.268 38.7803C496.994 18.3061 498.074 32.3414 503.288 38.7863C509.765 46.7929 512.106 28.5016 517.5 38.6775C520.223 43.8138 522.5 38.8549 524 38.6775C525.5 38.5 526.5 38.5 529 38.5C530.08 38.5 531.5 38.5 531.5 38.5" stroke="white" stroke-miterlimit="10"/>
</svg>
