<svg width="604" height="74" viewBox="0 0 604 74" fill="none" xmlns="http://www.w3.org/2000/svg">
<path d="M0.482414 41.1155C2.73291 41.0955 5.51643 41.0955 8.77373 41.0955C12.031 41.0955 50.1415 41.0354 50.1415 41.0354C50.1415 41.0354 61.2459 32.3039 68.6784 41.0154C76.111 49.7268 85.9125 29.5403 89.2291 41.0154C94.7665 60.1806 100.097 22.0905 106.108 41.6162C114.103 63.0844 127.28 20.7487 135.453 41.0154C143.656 61.262 151.059 61.3221 160.682 41.0154C170.306 20.7087 185.971 22.471 187.007 41.0154C188.073 59.5598 195.091 82.2296 214.25 41.0154C226.539 -0.0386404 238.828 4.76768 242.145 41.0154C253.693 78.0641 259.586 72.0162 270.483 41.0154C281.38 10.0146 290.708 -30.8992 299.029 41.0154C307.379 112.95 327.575 41.0154 327.575 41.0154C327.575 41.0154 343.624 -22.7886 355.943 41.0554C362.25 74.92 376.079 54.1727 383.837 41.0755C391.595 27.9782 405.631 23.0517 411.05 41.0955C416.469 59.1392 426.271 58.939 437.375 41.1155C448.48 23.2921 455.35 22.6913 462.575 41.1355C469.8 59.5798 472.85 71.8159 486.442 41.1556C500.034 10.4952 501.455 13.359 508.74 41.1756C516.024 68.9922 522.036 82.1094 529.231 41.1956C536.456 0.201677 539.447 0.341861 547.709 41.1556C556 81.9492 556.859 62.9042 563.966 41.1756C571.102 19.427 572.228 34.3266 577.765 41.1756C582.621 52.1901 584.635 29.1398 588.899 41.1756C594.644 45.4612 594.881 41.1756 597.131 41.1756C599.382 41.1756 601.069 41.1756 602.224 41.1756C603.379 41.1756 603.971 41.1756 603.971 41.1756" stroke="#FF4E5C" stroke-width="2" stroke-miterlimit="10"/>
</svg>
