<svg xmlns="http://www.w3.org/2000/svg" data-dmid="dm-brand" viewBox="0 0 20 13.54" width="70" pointer-events="none" data-designsystem="true" role="img" height="100%"><path fill="#FFF" d="m19.88 7.95-.99.17c-.1-.22-.51-.87-.51-.87l-.95.15.43-2.62c.28-1.36-.16-2.59-1.68-2.59-.59 0-1.07.28-1.35.45-.22-.26-.63-.45-1.05-.45-.27 0-.89.05-1.46.47l.07-.39c-.33-.03-1.61 0-1.95.03l.43-2.25C10.26 0 8.68-.08 6.96.17l-.44 2.17c-1.7.48-2.78 2.05-2.78 4.2 0 .42.06.79.16 1.1-.96.12-2.7.43-3.87 1.07.26.25.66.62.94.96l-.97.35c.89 1.04 1.58 2 2.17 3.52 1.26-.66 3.01-1.64 6.18-1.64 1.49 0 5.88 1.13 8.93 1.13.96 0 1.72-.09 2.47-.47.16-.98.39-2.99.13-4.61"></path><path fill="#E30613" d="M18.5 9.73c-.78.53-2.33 1.2-4.74.6-.23-.06-.45-.12-.66-.18-1.52-.66-3.06-1.36-3.68-1.83 1.74.27 4.34.54 8.54-.14 0 0 .4.63.54 1.55m-16.31.43-.73.26s.84 1 .98 1.32l.21.57s2.65-1.46 6.5-1.24c.87.05 1.64.3 1.64.3s-1.57-1.02-1.88-1.12c-1.51-.37-2.95-.49-3.8-.52-1.46.39-2.71 1.05-2.71 1.05s-.11-.31-.21-.62"></path><path fill="#FEC700" d="M19.09 9.24s-.19.23-.59.49c-.78.53-2.33 1.2-4.74.6-.23-.06-.45-.12-.66-.18-2.2-.64-3.5-1.47-6.43-1.83-1.99.05-4.01.28-5.12.72 0 0 .3.31.39.44.05.1.15.39.25.69.11.32.21.62.21.62s1.25-.66 2.71-1.05c.69-.19 1.42-.3 2.09-.26 2.24.14 4.05 1.3 6.06 2.24 1.39.39 4.79.69 5.75.26-.01-.02.18-.95.08-2.74"></path><path fill="#1F3685" d="M7.42 4.14c-.91 0-1.43 1.27-1.43 2.17 0 .37.09.53.28.53.51 0 1.38-1.48 1.56-2.4l.05-.24c-.13-.03-.27-.06-.46-.06M8.5 7.96H7.17c.06-.35.17-.73.36-1.25h-.02c-.42.7-1.01 1.37-1.76 1.37-.77 0-1.16-.5-1.16-1.54 0-1.83.95-3.5 3.07-3.5.12 0 .24.01.42.04l.22-1.11v-.01c-.21-.04-.53-.08-.82-.1l.19-.91C8.34.88 9.03.83 9.84.86L8.5 7.96zm7.97 0h-1.32L15.63 5c.1-.48.03-.67-.19-.67-.45 0-1.25 1.18-1.44 2.34l-.21 1.29h-1.32L12.96 5c.1-.48.03-.67-.19-.67-.45 0-1.23 1.17-1.45 2.31l-.25 1.32H9.75l.71-3.72v-.03c-.21-.04-.53-.08-.82-.1l.19-.91c.7-.08 1.36-.12 2.09-.09-.08.38-.21.82-.37 1.25h.02c.44-.75.91-1.32 1.76-1.32.57 0 .95.3.95.96 0 .12-.03.24-.08.44l.01.01c.44-.8.99-1.4 1.84-1.4.94 0 1.14.68.96 1.59l-.54 3.32z"></path></svg>