<?xml version="1.0" encoding="utf-8"?>
<!-- Generator: Adobe Illustrator 25.0.1, SVG Export Plug-In . SVG Version: 6.00 Build 0)  -->
<svg version="1.1" id="Layer_1" xmlns="http://www.w3.org/2000/svg" xmlns:xlink="http://www.w3.org/1999/xlink" x="0px" y="0px"
	 viewBox="0 0 1920 1387" style="enable-background:new 0 0 1920 1387;" xml:space="preserve">
<style type="text/css">
	.st0{clip-path:url(#SVGID_2_);}
	.st1{fill:#1B6A56;}
	.st2{fill:#F5C895;}
	.st3{fill:#42251D;}
	.st4{clip-path:url(#SVGID_4_);}
	.st5{fill:#7F3521;}
	.st6{fill:#56BE93;}
	.st7{fill:#F7DFC5;}
	.st8{fill:#3F2119;}
	.st9{fill:#DE4428;}
	.st10{fill:#B15214;}
	.st11{clip-path:url(#SVGID_6_);}
	.st12{fill:#2A9377;}
	.st13{fill:#196954;}
	.st14{clip-path:url(#SVGID_8_);}
	.st15{fill:#FEAE02;}
	.st16{fill:#43261F;}
	.st17{clip-path:url(#SVGID_10_);}
	.st18{fill:#DF4629;}
</style>
<g>
	<defs>
		<rect id="SVGID_1_" x="-8" y="1009" width="128" height="163"/>
	</defs>
	<clipPath id="SVGID_2_">
		<use xlink:href="#SVGID_1_"  style="overflow:visible;"/>
	</clipPath>
	<g class="st0">
		<path class="st1" d="M-7.2,1172c-1.2-1.4-0.9-2.8,0.2-4.2c3.2-4.1,6.2-8.2,9.5-12.3c11-13.6,22.1-27.2,33.2-40.7
			c2.3-2.8,4.8-5.4,7.4-8.4c-7.1-15.4-12.8-31.3-16.5-47.8c1-0.3,2-0.6,3-0.9c1.5,5.2,3,10.4,4.6,15.6c0,0.2,0.2,0.3,0.3,0.6
			c3.6-7.3,7.2-14.4,10.8-21.7c1.1,0.4,2.2,0.8,3.4,1.2c-4.2,8.6-8.4,17.2-12.8,26c3.2,7.9,6.4,15.7,9.7,23.9
			c11.3-12.4,22.4-24.5,33.3-36.4c1.7-10.9,3.4-21.8,5.1-32.7c1.1,0.3,2.2,0.6,3.3,0.9c-1.3,8.7-2.6,17.5-3.9,26.2
			c0.2,0.1,0.4,0.2,0.5,0.3c0.6-0.5,1.3-1,1.9-1.6c2.9-3,5.9-6.1,8.8-9c0.5-0.5,1.1-0.8,1.7-1.2c0.5,1.2,0.9,2.4,1.4,3.6
			c-2.9,2.9-5.9,5.8-8.7,8.8c-8.3,8.7-16.4,17.5-24.7,26.2c-0.4,0.5-1,0.7-1.5,1c0.2,0.2,0.4,0.5,0.6,0.7c7.7,0.1,15.4,0.2,23.1,0.4
			c0.2,1.1,0.5,2.2,0.7,3.2c-5.4,0-10.7-0.1-16.1,0c-3.8,0-7.6,0.1-11.7,0.1c-10.1,11.5-20.3,23-30.9,35.1c3.9,0.3,7,0.6,10,0.8
			c5.1,0.4,10.1,0.8,15.2,1.2c0.8,0.1,1.6,0.4,2.4,0.6c-0.1,0.9-0.2,1.7-0.3,2.6c-4.1-0.2-8.2-0.3-12.3-0.5
			c-5.7-0.3-11.3-0.8-17-1.2c-0.4,0.4-0.8,0.7-1.2,1c-8.9,11-17.9,22-26.8,32.9c-1.3,1.7-2.4,3.5-3.6,5.3
			C-6,1171.9-6.6,1172-7.2,1172z"/>
		<path class="st2" d="M87.2,1035.3c-1.1-0.3-2.2-0.6-3.3-0.9c-1.7-1-3.8-1.7-5.2-3.1c-3.2-3.1-3.9-7.1-2.7-11.3
			c1.9-6.3,4.4-9.6,12.6-9.7c-0.6,2.7,0.9,4.3,3,5.4c2.5,1.3,5.1,2.4,7.6,0.1c0.8,2,1.9,3.9,2.4,5.9c1.2,5.3-2.1,11.7-7.1,12.9
			C92.2,1035.1,89.6,1035.1,87.2,1035.3z"/>
		<path class="st2" d="M55.6,1134.3c0.1-0.9,0.2-1.7,0.3-2.6c1-1.5,1.9-3.1,3-4.5c2.9-3.4,7.6-4.6,11.6-2.7c1.7,0.8,4.1,1.1,4.6,3.6
			c-1.7,2.9-1.3,5.9-0.4,8.8c0.7,2.1,2.1,3.8,4.6,3.9c-1.7,8.7-11.5,10.4-17.5,6.2c-3.6-2.6-6.1-5.8-6-10.5
			C55.9,1135.7,55.6,1135,55.6,1134.3z"/>
		<path class="st2" d="M29.5,1057.8c-1,0.3-2,0.6-3,0.9c-4.9,0.3-9.3-1-13.1-4.3c-5.1-4.5-3.9-13.5,2.3-16.6c1.9,2.9,4.9,3.3,7.9,3
			c2.2-0.2,4.2-1.3,4.3-4c4.8,1.6,7.6,4.8,8.2,10c0.4,3.5,0.1,6.6-2.7,8.9C32.3,1056.5,30.8,1057,29.5,1057.8z"/>
		<path class="st2" d="M48.6,1053.6c-1.1-0.4-2.2-0.8-3.4-1.2c-1.7-1.1-3.7-1.9-5-3.4c-5.2-5.7-2.8-14.6,4.9-16.9
			c2.9,4.8,9.2,5.9,12.9,2.4c0.4,0.5,0.7,1,1.2,1.4c3.8,2.9,4.2,6.8,2.8,10.8c-1.3,3.8-4.1,6.3-8.4,6.6
			C51.9,1053.3,50.2,1053.4,48.6,1053.6z"/>
		<path class="st2" d="M97.7,1053.5c-0.5-1.2-0.9-2.4-1.4-3.6c-1.4-4.1-0.5-7.7,2.5-10.7c2.2-2.3,5.3-2.5,8.3-2.7
			c1.4,4.8,5.4,6.8,10.3,5.1c1.3,2.1,2.5,4.2,2.6,6.8c0.2,3.6-1.7,7-5.1,8.5C108.9,1059.8,103.1,1059.4,97.7,1053.5z"/>
		<path class="st2" d="M87.1,1093.8c-0.2-1.1-0.5-2.2-0.7-3.2c0.9-1.6,1.6-3.3,2.6-4.8c1.7-2.4,3.9-3.9,6.9-4c1,0,2-0.5,3.1-0.8
			c2.2,0.7,4.4,1.4,5.6,3.7c-0.1,0.8-0.4,1.6-0.3,2.4c0.3,3.6,0.7,7.2,4.2,9.3c-1.1,4.2-3.8,7.2-8,8c-4.2,0.8-8.4-0.2-11-3.8
			C88.2,1098.7,87.8,1096.1,87.1,1093.8z"/>
		<path class="st3" d="M79.4,1140.8c-2.5-0.1-3.9-1.7-4.6-3.9c-1-2.9-1.4-6,0.4-8.8c3-1.3,4.5-0.8,5.9,2.1c0.7,1.4,1.2,3,1.5,4.6
			C83.2,1138.2,82.6,1139.1,79.4,1140.8z"/>
		<path class="st3" d="M58,1034.5c-3.7,3.5-9.9,2.4-12.9-2.4c0.5-2.7,1.5-3.9,3.9-3.6c2.3,0.2,4.6,0.9,6.7,1.7
			C57.5,1030.9,58.5,1032.4,58,1034.5z"/>
		<path class="st3" d="M28,1036.7c-0.1,2.7-2,3.8-4.3,4c-3,0.4-6-0.1-7.9-3c0.3-3.1,1.4-4.2,4.2-4.7
			C23.5,1032.5,26.5,1033.8,28,1036.7z"/>
		<path class="st3" d="M108.6,1096.4c-3.6-2.1-3.9-5.7-4.2-9.3c-0.1-0.8,0.2-1.6,0.3-2.5c2.2-1.8,3.2-1.8,4.9,0.2
			c2,2.4,2.7,5.3,2.5,8.3C111.9,1095.2,110.7,1096.3,108.6,1096.4z"/>
		<path class="st3" d="M117.4,1041.8c-4.9,1.6-8.9-0.3-10.3-5.1c1.7-3.1,4-3.7,7.4-2C118,1036.5,118.9,1038.8,117.4,1041.8z"/>
		<path class="st3" d="M99.3,1015.7c-2.6,2.3-5.2,1.2-7.6-0.1c-2.1-1.1-3.6-2.7-3-5.4c3.3-2.2,8.1-1.4,10.4,1.7
			C100,1013.2,99.9,1014.4,99.3,1015.7z"/>
	</g>
</g>
<g>
	<defs>
		<rect id="SVGID_3_" x="1733.6" y="1251.4" width="164" height="130"/>
	</defs>
	<clipPath id="SVGID_4_">
		<use xlink:href="#SVGID_3_"  style="overflow:visible;"/>
	</clipPath>
	<g class="st4">
		<path class="st5" d="M1734.8,1305.7c0.6-2.4,1.2-4.7,1.8-7.1l0.3,0.1h0.3c-0.6,2.4-1.3,4.8-1.9,7.2
			C1735.1,1305.8,1735,1305.8,1734.8,1305.7z"/>
		<path class="st6" d="M1786.5,1380.5c-2.3-0.6-4.7-1.2-7-1.8c0-0.2,0.1-0.3,0.2-0.5c2.3,0.6,4.6,1.1,6.9,1.8
			C1786.6,1380.2,1786.6,1380.3,1786.5,1380.5z"/>
		<path class="st7" d="M1734.8,1305.7c0.2,0.1,0.4,0.1,0.6,0.2c-0.4,1.5-0.7,3-1.1,4.5l-0.3-0.1l-0.3-0.1
			C1734,1308.7,1734.4,1307.2,1734.8,1305.7z"/>
		<path class="st7" d="M1779.7,1378.2c-0.1,0.1-0.1,0.3-0.2,0.5c-1.5-0.4-3-0.8-4.4-1.1c0-0.2,0.1-0.4,0.1-0.5
			C1776.7,1377.4,1778.2,1377.8,1779.7,1378.2z"/>
		<path class="st7" d="M1738,1292.9c0.2,0.1,0.4,0.1,0.6,0.2c-0.3,1.1-0.6,2.2-0.9,3.2c-0.1-0.1-0.3-0.2-0.5-0.2
			C1737.5,1295,1737.7,1294,1738,1292.9z"/>
		<path class="st6" d="M1737.2,1296.1c0.2,0,0.3,0.1,0.5,0.2c-0.1,0.8-0.3,1.7-0.5,2.4h-0.3l-0.3-0.1
			C1736.8,1297.8,1737,1296.9,1737.2,1296.1z"/>
		<path class="st7" d="M1786.5,1380.5c0-0.2,0.1-0.3,0.1-0.5c0.9,0.2,1.7,0.4,2.6,0.7c-0.1,0.2-0.1,0.3-0.1,0.5
			C1788.2,1380.9,1787.4,1380.7,1786.5,1380.5z"/>
		<path class="st8" d="M1789.2,1380.6c-0.9-0.2-1.7-0.4-2.6-0.7c-2.3-0.6-4.6-1.1-6.9-1.8c-1.5-0.4-3-0.8-4.5-1.2
			c-5-2.7-10.2-5.3-15.2-8.3c-7.2-4.3-12.4-10.7-16.5-17.9c-6.2-10.7-9.3-22.2-9.4-34.5c0-2,0.1-3.9,0.2-5.9c0.4-1.5,0.8-3,1.1-4.5
			c0.6-2.4,1.3-4.8,1.9-7.2c0.1-0.8,0.3-1.7,0.5-2.4c0.3-1.1,0.6-2.2,0.9-3.2c2.8-6.4,6.3-12.3,10.5-17.8c12-15.8,28-23.4,47.6-23.8
			c15.1-0.3,29,3.8,41.4,12.3c6.3,4.3,11.8,9.5,16.2,15.8c0.3,0.4,0.8,0.8,1.2,1.1c2.1,4.1,4.3,8.1,6.1,12.2c1.3,3,2.1,6.2,3,9.3
			c0.5,4.6,1.1,9.2,1.3,13.8c0.7,15.8-4.2,29.8-14.5,41.7c-10.2,11.7-22.9,19.4-38.1,22.6c-6.5,1.4-13.2,1.5-19.9,0.8
			C1792,1380.8,1790.6,1380.7,1789.2,1380.6z M1844.1,1351.4c4.1-5,7.2-10.8,9.3-16.8c4-11.5,5.2-23.3,1.8-35.3
			c-0.9-3.2-1.7-6.6-4.2-9.2c-0.4-0.8-0.8-1.8-1.3-2.6c-4.2-5.9-9.1-11.2-14.8-15.6c-3.8-3-8-5.2-12.6-6.6c-2-0.8-4-1.8-6.1-2.3
			c-7.4-2-15-2.5-22.6-1.9c-4,0.2-8,0.6-11.8,2.4c-8.4,3.9-15.9,9-22.7,15.4c-7.7,7.4-11.9,16.6-13.4,26.8c-1.3,9-1,18.2,0.9,27.2
			c0.2,1,0.8,1.9,1.2,2.9c0.9,2.5,1.5,5,2.9,7.3c6.5,11.2,15.6,19.4,27.6,24.1c7.2,3.5,14.7,5.5,22.7,5.4c7.4,0,14.4-2.3,21.2-5.1
			c1.4-0.6,2.8-1.6,4.2-2.4c1.1-0.4,2.3-0.6,3.3-1.2C1835.2,1360.6,1840.2,1356.6,1844.1,1351.4z"/>
		<path class="st9" d="M1864.6,1302.1c-1-3.1-1.7-6.3-3-9.3c-1.8-4.2-4-8.2-6.1-12.2c9.1-5.3,18.1-10.7,27.2-15.9
			c1-0.6,2.2-0.8,3.4-1.2c1.9-0.5,3.5,0,4.7,1.5c3.4,4.1,5.4,8.8,6.7,13.9c0.6,2.1-0.3,3.9-2,5.3c-0.2,0.2-0.5,0.4-0.8,0.6
			C1884.7,1290.5,1874.6,1296.3,1864.6,1302.1z"/>
		<path class="st10" d="M1747.8,1335.8c-0.4-1-1-1.9-1.2-2.9c-1.8-9-2.2-18.2-0.9-27.2c1.4-10.3,5.7-19.5,13.4-26.8
			c6.7-6.4,14.3-11.5,22.7-15.4c3.8-1.7,7.7-2.1,11.8-2.3c7.7-0.5,15.2-0.1,22.6,1.9c2.1,0.6,4.1,1.6,6.1,2.3
			c-0.3,0.3-0.6,0.7-0.9,1c-5.5,5.5-10.8,11.1-15,17.8c-2.2,3.6-2.3,4.8,0.5,8c4.5,5,9.2,9.7,13.8,14.4c0.5,0.5,1,0.8,1.5,1.2
			c1.5,1.3,3.2,1.5,4.9,0.8c1.7-0.7,3.5-1.4,5-2.5c3.6-2.7,7.1-5.5,10.5-8.4c2.8-2.4,5.5-5,8.2-7.5c2.4,2.6,3.2,5.9,4.2,9.2
			c3.4,11.9,2.2,23.8-1.8,35.3c-2.1,6-5.2,11.8-9.3,16.8c0.4-9.6-0.1-19.1-1.7-28.6c-0.8-4.4-1.9-5.4-6.4-5.2
			c-2.4,0.1-4.8,0.4-7.2,0.6c-6.2,0.5-12.4,0.9-18.6,1.6c-3.4,0.4-3.9,1.1-3.6,4.5c0.8,9.9,1.7,19.7,2.6,29.6
			c0.3,2.7,0.8,5.5,1.3,8.1c0.6,2.7,1.6,3.4,4.3,3.4c3.8-0.1,7.6-0.2,11.4-0.3c-1.4,0.8-2.7,1.7-4.2,2.4c-6.8,2.8-13.8,5-21.2,5.1
			c-7.9,0.1-15.5-1.9-22.7-5.4c4.4-0.7,8.8-0.9,13.2-2.8c0.1-1.6,0.5-3.1,0.4-4.6c-0.1-7.7-1.8-15.3-3.5-22.8
			c-1-4.4-2.2-5.1-6.8-4.6C1770.4,1333.5,1759.1,1334.7,1747.8,1335.8z M1792.5,1275.1c-1.2-0.1-1.8-0.1-2.3-0.1
			c-9.5,1.5-18.5,4.5-26.9,9.1c-2.8,1.5-3.2,2.8-2.5,6c2.5,11.4,6.2,22.3,11.4,32.7c1.8,3.7,2.4,4.1,6.5,3.2c9-2.1,17.5-5.5,25-11.1
			c2.8-2.1,3.4-4,2.3-7.1c-3.5-9.9-7-19.7-10.7-29.5C1794.7,1276.9,1793.2,1275.9,1792.5,1275.1z M1842.2,1310.2
			c-0.8,2.9,1.1,6.1,4,6.8c2.6,0.6,5.3-1.1,6.1-3.7c0.7-2.8-0.9-5.5-3.8-6.3C1845.8,1306.2,1842.8,1307.7,1842.2,1310.2z
			 M1793.1,1332.7c-0.7,2.8,0.6,5.2,2.9,5.7c2.3,0.5,5.6-1.7,6.1-3.9c0.5-2.2-1.1-4.9-3.1-5.5
			C1796.3,1328.4,1793.7,1330,1793.1,1332.7z M1807.2,1274.3c0.7-2.5-0.2-4.7-2.3-5.3c-2.4-0.8-5.4,0.9-6.2,3.4
			c-0.7,2.5,0.2,4.6,2.4,5.3C1804,1278.5,1806.3,1277.2,1807.2,1274.3z M1788,1272.1c2.3,0.6,5-1,5.6-3.3c0.6-2.4-0.6-4.4-3-4.9
			c-2.8-0.6-5.6,0.8-6,3.1C1784,1269.5,1785.4,1271.5,1788,1272.1z"/>
		<path class="st7" d="M1826.3,1365.2c-3.8,0.1-7.6,0.2-11.4,0.3c-2.8,0-3.8-0.8-4.4-3.4c-0.6-2.7-1.1-5.4-1.3-8.1
			c-0.9-9.9-1.8-19.7-2.6-29.6c-0.3-3.4,0.3-4.2,3.7-4.5c6.2-0.7,12.4-1.1,18.6-1.6c2.4-0.2,4.8-0.5,7.2-0.6
			c4.5-0.2,5.7,0.7,6.4,5.2c1.6,9.5,2.1,19,1.7,28.6c-3.9,5.2-8.9,9.2-14.5,12.5C1828.7,1364.6,1827.5,1364.8,1826.3,1365.2z"/>
		<path class="st7" d="M1851.1,1290.2c-2.7,2.5-5.4,5.1-8.2,7.5c-3.4,2.9-6.9,5.7-10.5,8.4c-1.4,1.1-3.3,1.8-5,2.5
			c-1.7,0.7-3.4,0.5-4.9-0.8c-0.5-0.4-1.1-0.8-1.5-1.2c-4.6-4.8-9.4-9.5-13.8-14.4c-2.8-3.1-2.8-4.3-0.5-8c4.1-6.7,9.4-12.3,15-17.8
			c0.3-0.3,0.6-0.7,0.9-1c4.6,1.4,8.8,3.6,12.6,6.6c5.7,4.4,10.6,9.7,14.8,15.6C1850.3,1288.4,1850.7,1289.3,1851.1,1290.2z"/>
		<path class="st7" d="M1747.8,1335.8c11.3-1.1,22.5-2.3,33.8-3.4c4.5-0.5,5.8,0.2,6.8,4.6c1.7,7.5,3.4,15,3.5,22.8
			c0,1.5-0.3,3-0.4,4.6c-4.4,1.8-8.8,2.1-13.2,2.8c-12-4.8-21.2-12.9-27.6-24.1C1749.4,1340.8,1748.8,1338.2,1747.8,1335.8z"/>
		<path class="st7" d="M1792.5,1275.1c0.8,0.8,2.2,1.8,2.8,3.2c3.7,9.8,7.2,19.7,10.7,29.5c1.1,3.2,0.5,5-2.3,7.1
			c-7.5,5.7-16,9-25,11.1c-4,0.9-4.7,0.5-6.5-3.2c-5.1-10.4-8.8-21.4-11.4-32.7c-0.7-3.2-0.3-4.5,2.5-6c8.4-4.6,17.4-7.6,26.9-9.1
			C1790.7,1274.9,1791.3,1275,1792.5,1275.1z"/>
		<path class="st8" d="M1842.2,1310.2c0.7-2.5,3.6-4,6.3-3.2c2.9,0.8,4.5,3.5,3.8,6.3c-0.7,2.6-3.5,4.3-6.1,3.7
			C1843.2,1316.3,1841.3,1313.1,1842.2,1310.2z"/>
		<path class="st8" d="M1793.1,1332.7c0.6-2.7,3.3-4.3,5.9-3.7c2,0.5,3.6,3.3,3.1,5.5c-0.5,2.2-3.8,4.3-6.1,3.9
			C1793.6,1337.9,1792.4,1335.5,1793.1,1332.7z"/>
		<path class="st8" d="M1807.2,1274.3c-0.8,3-3.2,4.2-6,3.3c-2.2-0.7-3.2-2.8-2.4-5.3c0.7-2.5,3.7-4.2,6.2-3.4
			C1806.9,1269.5,1807.9,1271.8,1807.2,1274.3z"/>
		<path class="st8" d="M1788,1272.1c-2.6-0.6-4-2.7-3.5-5.1c0.5-2.3,3.3-3.8,6-3.1c2.4,0.6,3.7,2.5,3,4.9
			C1793,1271.2,1790.3,1272.7,1788,1272.1z"/>
	</g>
</g>
<g>
	<defs>
		
			<rect id="SVGID_5_" x="1619.8" y="788.8" transform="matrix(0.4063 -0.9137 0.9137 0.4063 251.1045 2006.0078)" width="99" height="42"/>
	</defs>
	<clipPath id="SVGID_6_">
		<use xlink:href="#SVGID_5_"  style="overflow:visible;"/>
	</clipPath>
	<g class="st11">
		<path class="st12" d="M1649.6,830.1c-0.2-1.7-0.3-3.3-0.5-5c-0.6-4.8-1.3-9.6-2-14.4c-0.1-0.5-0.2-1-0.2-1.5
			c0-1.8,0.8-2.5,2.6-2.2c0.2,0,0.4,0.1,0.6,0.1c3.2,0.8,4.8,0,6.1-3c1.2-2.7,1.1-5.4-0.1-8.1c-0.2-0.4-0.5-0.8-0.5-1.2
			c0-0.7,0.1-1.6,0.6-2.1c0.6-0.7,1.5-0.6,2.3-0.2c0.2,0.1,0.4,0.3,0.6,0.5c1.1,1,2.2,0.8,3.3,0.1c2.1-1.4,3.4-3.3,4.2-5.6
			c0.9-2.8,1-5.6,0.4-8.4c-0.4-2.1,0.6-3.4,2.7-3c4.9,0.8,8.9-1.1,12.7-3.7c2.1-1.5,3.9-3.4,5.8-5.1c0.4-0.4,0.8-0.9,1.2-1.3
			c0.7-0.6,1.5-0.7,2.3-0.2c0.8,0.5,1,1.3,0.9,2.2c-0.1,0.7-0.4,1.4-0.6,2c-1,3.1-0.7,6.3-0.1,9.4c0.5,2.3,1.8,4,3.9,5
			c0.3,0.1,0.6,0.3,0.8,0.4c1.4,1,1.6,2.4,0.3,3.6c-0.3,0.3-0.7,0.5-1.1,0.8c-3.5,2.5-4.4,8.7-1.8,11.8c1.8,2,1,3.7-1.6,4.3
			c-6.1,1.3-9.6,6.2-8.9,12.7c0.1,0.6,0.2,1.2,0.2,1.7c0.1,1.9-0.7,2.8-2.6,2.7c-1,0-2.1-0.2-3.1-0.1c-4.3,0.4-6.8,3.1-8.6,6.7
			c-0.4,0.8-0.6,1.7-1,2.5c-0.8,1.6-1.8,2.1-3.5,1.8c-3.4-0.7-6.8-1.3-10.3-1.9c0.2-0.4,0.4-0.9,0.7-1.3c1.7-2.2,3.6-4.2,5.2-6.5
			c3.9-5.3,8.1-10.4,11.6-15.9c4.7-7.3,8.7-15,13.1-22.5c0.7-1.1,0.8-2.1-0.1-3.2c-1.7-0.4-2.2-0.2-3,1.2c-1,1.7-1.9,3.5-2.9,5.2
			c-3.6,6-7.1,12.1-10.9,18c-4.9,7.6-10.8,14.6-16.5,21.6C1651.4,828.7,1650.9,830,1649.6,830.1z"/>
		<path class="st13" d="M1649.6,830.1c1.4-0.1,1.8-1.4,2.5-2.2c5.7-7,11.6-14,16.5-21.6c3.8-5.9,7.3-12,10.9-18
			c1-1.7,1.9-3.5,2.9-5.2c0.8-1.4,1.2-1.6,3-1.2c0.9,1,0.8,2,0.1,3.2c-4.4,7.5-8.5,15.2-13.1,22.5c-3.5,5.5-7.7,10.7-11.6,15.9
			c-1.7,2.2-3.5,4.3-5.2,6.5c-0.3,0.4-0.5,0.9-0.7,1.3c-0.5,0.4-1,0.8-1.4,1.3c-5.2,5.1-10.3,10.2-15.5,15.3
			c-1.4,1.4-2.7,1.5-3.5,0.5c-0.8-1-0.5-2.1,1-3.5c4.3-4.1,8.6-8.3,12.8-12.4C1648.8,831.7,1649.1,830.8,1649.6,830.1z"/>
	</g>
</g>
<g>
	<defs>
		
			<rect id="SVGID_7_" x="50.8" y="-0.2" transform="matrix(0.3904 -0.9206 0.9206 0.3904 20.2962 133.3411)" width="120" height="103"/>
	</defs>
	<clipPath id="SVGID_8_">
		<use xlink:href="#SVGID_7_"  style="overflow:visible;"/>
	</clipPath>
	<g class="st14">
		<path class="st15" d="M111.7,62.5c3.3,2.3,3.8,5.9,3.9,9.3c0.1,4.1-0.6,8.3-1.1,12.4c-0.3,1.9-1,3.7-1.5,5.6
			c-1.7,3.1-3.5,6.2-5.2,9.2c-2.4,2.1-4.9,4.2-7.4,6.3c-1.3-2.7-3.8-3.4-6.6-3.5c-0.1-3.2-0.2-6.3-0.3-9.6
			c1.6-7.8,4.1-15.2,7.9-22.2c1.9-2.2,3.8-4.4,5.6-6.7C108.6,63.2,110.1,62.9,111.7,62.5z"/>
		<path class="st15" d="M130.7,36.6c4.4,0.6,7.8,2.9,10.6,6.2c4.5,5.5,9,10.9,11.7,17.5c0.9,2.2,1.2,4.5,1.8,6.7
			c-4.3,0.5-5.5,3.9-6.7,7.3c-3.3-0.3-5.4-2.6-7.4-4.7c-6.6-6.6-11.6-14.5-14-23.6c-0.6-2.2-0.1-4.9-0.1-7.3
			C127.9,38.1,129.4,37.3,130.7,36.6z"/>
		<path class="st15" d="M132.8,10.6c2.9-0.8,5.7-0.3,8.3,1.2c9.2,5.3,16.6,12.4,21.1,22.2c-4.3,1.5-5.3,5-5.6,9
			c-3.6,0.7-6.6-1-9-3.1c-5.9-4.9-11.8-10-15-17.3c-1.2-2.7-1.7-5.6-2.5-8.3C130.9,13,131.8,11.7,132.8,10.6z"/>
		<path class="st16" d="M132.8,10.6c-0.9,1.3-1.8,2.4-2.7,3.7c-7.2-6.5-14.3-13-21.5-19.5c-1.1-3.4-2.3-6.9-3.5-10.3
			c0.2-0.2,0.5-0.3,0.7-0.4C113.7-6.1,123.4,2.1,132.8,10.6z"/>
		<path class="st16" d="M130.7,36.6c-1.5,0.8-2.9,1.5-4.2,2.3c-4.9-6.5-21.9-31.2-26.9-37.7c-0.1-3.2,6.7,2.3,6.6-0.9
			c4.2,6,13.4,21.4,17.7,27.4C126.1,30.6,128.5,33.5,130.7,36.6z"/>
		<path class="st16" d="M156.6,42.9c0.3-4,1.4-7.5,5.6-9c3.6,1.2,4.7,2.6,4.2,5.5c-0.6,3.1-4,6.5-6.6,6.5
			C157.8,45.7,157.1,44.4,156.6,42.9z"/>
		<path class="st16" d="M148,74.4c1.2-3.4,2.4-6.8,6.7-7.3c4,2.6,4.4,4.5,1.2,8c-0.2,0.2-0.3,0.4-0.5,0.6
			C152,79.3,150,78.9,148,74.4z"/>
		<path class="st16" d="M96.6,110.1c-1.1-0.4-2.3-0.7-3.4-1.1c-3.2-3.5-3.1-3.7,0.4-6.9c0.1-0.1,0.2-0.2,0.3-0.2
			c2.7,0.1,5.2,0.7,6.6,3.5C100.4,107.9,99.2,109.6,96.6,110.1z"/>
		<path class="st16" d="M111.7,62.5c-1.5,0.3-3,0.6-4.6,1c0-4-0.2-8-0.2-12c-0.3-4-0.4-8-0.9-12c-0.2-2-0.8-4-1.3-6
			c-0.2-1.3-2.7-34.5-2.8-35.7c1.6,0.1,3.4,1.7,5.2,0.1c0.7,3.7,3.8,39.6,4.1,43.4C111.6,48.4,111.5,55.5,111.7,62.5z"/>
		<path class="st16" d="M73.5,33.3c2.3-5.3,4.6-10.5,7.1-15.8c4.2-9.1,7.1-18.7,9.5-28.4C90.4-12,91-13,91.4-14
			c0.5,4.3,1,8.6,1.5,12.9c-3.8,12.6-9.4,24.6-15.3,36.3C76.2,34.6,74.8,33.9,73.5,33.3z"/>
		<path class="st16" d="M91.6,43.2c2.2-8,3.8-36.4,6-44.5c1.1,2.4,4,2.8,5.1,5.2c-1.7,5.8-4.5,33.8-6.2,39.6
			c-0.3,0.4-0.5,0.8-0.9,1.2C94.3,44.3,93,43.8,91.6,43.2z"/>
		<path class="st15" d="M73.5,33.3c1.4,0.7,2.7,1.2,4,1.9c1.1,3,0.8,6-0.2,8.9c-2.9,8.2-6.8,16-12.2,22.8c-2.4,3.1-5.6,5.5-9.6,6.4
			c-1.1-2.8-3-4.3-6.1-4.2c0.5-2.6,0.6-5.5,1.7-7.9c3.8-8.5,8.8-16.3,15.4-23C68.5,36.3,71.1,35,73.5,33.3z"/>
		<path class="st15" d="M91.6,43.2c1.3,0.5,2.7,1.1,4.1,1.6c0.1,0.1,0.2,0.3,0.4,0.4c1.9,3.5,1.5,7.2,0.4,10.7
			c-3.4,10.4-7.4,20.6-16.7,27.4c-1.3-3.2-4.3-4-7.3-4.6c0.4-3.7,0.9-7.5,1.2-11.3c3.3-5.6,6.4-11.4,9.8-16.9
			C85.6,47.4,88.2,44.9,91.6,43.2z"/>
		<path class="st16" d="M79.8,83.4c-0.1,0.8-0.2,1.7-0.3,2.6c-0.5,0.6-1,1-1.5,1.6c-1.4,0-2.8,0.4-4.2,0.1c-2.1-0.5-3.8-1.7-4.3-3.9
			c-0.5-2.6,1.5-3.6,3.1-4.8C75.5,79.5,78.5,80.2,79.8,83.4z"/>
		<path class="st16" d="M49.4,69c3.1-0.1,5,1.4,6.1,4.2c-0.4,3.3-1.4,4.4-3.6,4.7c-2.2,0.2-5.1-1.7-5.7-3.9
			C45.6,72,46.4,70.8,49.4,69z"/>
	</g>
</g>
<g>
	<defs>
		<rect id="SVGID_9_" x="1710" y="387" width="221.2" height="105.8"/>
	</defs>
	<clipPath id="SVGID_10_">
		<use xlink:href="#SVGID_9_"  style="overflow:visible;"/>
	</clipPath>
	<g class="st17">
		<path class="st16" d="M1923.7,479.4c10.7,8,7.5,15.3,5.1,12.9c-9.6-11.3-21.5-19.7-33.9-27.5c-4.9,1.9-9.6,3.7-14.3,5.5
			c-0.6-1.4-1.2-2.8-1.8-4.2c3.5-1.4,7-2.7,10.5-4.1c0-0.3,0.1-0.6,0.1-0.9c-10.7-4.9-21.4-9.8-32.2-14.7
			c-5.3,3.3-10.2,6.4-15.2,9.4c-0.9-1.3-1.8-2.5-2.7-3.8c3.8-2.5,7.5-4.9,11.7-7.7c-11.3-3.4-22.4-6.7-33.7-10.1
			c-6.8,4.8-13.5,9.6-20.1,14.4c-0.9-1.2-1.9-2.5-2.8-3.7c5.4-3.9,10.7-7.8,16.1-11.7c0-0.3-0.1-0.5-0.1-0.8
			c-10.8-2-21.6-4.2-32.5-6c-1.3-0.2-3,0.5-4.1,1.3c-6.2,4.2-12.3,8.5-18.5,12.7c-0.8-1.3-1.6-2.6-2.4-3.9c5.1-3.7,10.1-7.3,15.2-11
			c0-0.3,0-0.5,0-0.8c-10.5-0.7-21-1.4-31.5-2c0.2-1.4,0.5-2.9,0.7-4.3c9.8,0.5,19.7,1.1,29.5,1.6c1.4,0.1,2.7,0.2,4.9,0.4
			c-4-4.2-7.5-7.9-10.9-11.7c1-1,2.1-2,3.1-2.9c5.1,5,10.2,10.1,15.7,15.5c9.7,1.9,20,3.9,31.1,6c-3.3-4.1-6.2-7.8-9.2-11.4
			c1.3-0.8,2.6-1.7,3.9-2.5c4.3,5.3,8.6,10.5,12.9,15.8c12.2,3.6,24.3,7.3,36.9,11c-1.3-3.2-2.5-6.1-3.6-8.9
			c1.3-0.8,2.6-1.6,3.9-2.3c1.5,3.6,3.1,7.2,4.6,10.8c0.8,2.1,2.1,3.5,4.3,4.4c9.6,4.3,19,8.9,28.5,13.4c0.4,0.2,0.9,0.4,1.9,0.8
			c-1.7-5.2-3.2-10-4.8-14.7c1.6-0.2,3.1-0.5,4.7-0.8c2.1,6.5,4.3,12.9,6.4,19.2C1908.4,467.8,1916,473.6,1923.7,479.4z"/>
		<path class="st18" d="M1737,418.4c-0.2,1.4-0.5,2.9-0.7,4.3c-1.5,2-2.8,4.2-4.7,5.8c-5.1,4.4-16.2,1.3-19.3-2.2
			c-1.9-2.2-2.8-5-2.2-7.8c2.5-11.7,13.5-15.1,22.1-10c2.5,1.5,3.5,3.9,4.1,6.5C1736.6,416.2,1736.8,417.3,1737,418.4z"/>
		<path class="st18" d="M1763.6,405.8c-1,1-2.1,2-3.1,2.9c-4.2,1.9-8.2,3.5-13.1,2.1c-4.3-1.3-8.8-6.8-8.9-11.6
			c0-5.1,3.2-9.8,8.4-11.4c2.1-0.7,4.5-0.9,6.7-0.7c8.4,0.7,11.6,7,11,14.7C1764.6,403.2,1764,404.5,1763.6,405.8z"/>
		<path class="st18" d="M1855.1,428.8c-1.3,0.8-2.6,1.6-3.9,2.3c-4.2,1-8,0.2-11.5-2.2c-4.2-2.7-5.8-7.4-3.8-11.9
			c2.2-4.9,6-8,11.4-8.9c4.5-0.7,8.2,0.6,10.3,4.6c2.2,4,3,8.4,0.3,12.6C1857.2,426.6,1856.1,427.7,1855.1,428.8z"/>
		<path class="st18" d="M1894.3,442.8c-1.6,0.2-3.1,0.5-4.7,0.8c-7.1,0.8-11.1-4.6-11.9-9.3c-0.9-5.4,2.8-10.8,8.6-12.6
			c0.7-0.2,1.4-0.4,2.2-0.6c6-1.1,10.6,1.1,12.4,6c2.5,6.7,0.8,11.6-5.1,14.8C1895.4,442.1,1894.8,442.5,1894.3,442.8z"/>
		<path class="st18" d="M1752.7,436.5c0.8,1.3,1.6,2.6,2.4,3.9c0.1,1.1,0.3,2.2,0.4,3.4c0.4,4.8-2.5,9.7-6.5,11.4
			c-5.2,2.2-12.7,1.3-16-3.8c-0.6-2.4-1.1-4.8-1.7-7.2c1-2.1,2-4.3,3-6.4c2.4-1.3,4.7-3.1,7.3-3.9
			C1745.7,432.7,1749.5,433.7,1752.7,436.5z"/>
		<path class="st18" d="M1805,413.3c-1.3,0.8-2.6,1.7-3.9,2.5c-3.1,1.2-6.2,1-9.3,0.3c-4.3-1-7.5-4.3-8-8.1
			c-0.6-4.5,2.2-10.1,6-11.8c1.5-0.7,3.1-1.2,4.7-1.5c4.7-0.8,9-0.1,11.7,4.2c2.8,4.4,2.5,8.9-0.2,13.2
			C1805.7,412.6,1805.4,412.9,1805,413.3z"/>
		<path class="st18" d="M1797.1,448.5c4.8,8-1.1,18.7-11.2,18.1c-3.5-0.2-6.8-0.5-9.5-2.9c-3.6-3.1-4.5-7.3-2.6-11.6
			c3-6.7,10.1-10.1,17.3-8.3c1.1,0.3,2.2,0.7,3.3,1C1795.2,446.1,1796.2,447.3,1797.1,448.5z"/>
		<path class="st18" d="M1842,455.7c0.4,1.7,1.1,3.4,1.3,5.1c0.5,6.7-5.1,12.5-11.9,12.5c-5.1,0-11.3-5.5-11.8-10.6
			c-0.3-2.5,0.4-4.8,2.1-6.7c3.9-4.4,10-7.9,17.7-4.2C1840.2,453.2,1841.1,454.5,1842,455.7z"/>
		<path class="st18" d="M1880.5,470.3c-0.8,7.6-3.7,11.4-10.1,12.9c-4.6,1.1-9.8-1-11.9-4.7c-2.3-4.1-1.2-10.6,2.5-13.6
			c1.6-1.3,3.5-2.6,5.5-3.2c3.8-1.2,7.5-1.1,10.3,2.6c0.5,0.7,1.3,1.2,1.9,1.8C1879.3,467.5,1879.9,468.9,1880.5,470.3z"/>
	</g>
</g>
</svg>
