<svg width="78" height="139" viewBox="0 0 78 139" fill="none" xmlns="http://www.w3.org/2000/svg">
<g clip-path="url(#clip0)">
<path d="M77.7072 89.014C77.473 90.0102 77.2973 91.0064 77.0631 92.0612C72.5541 90.9478 68.0451 89.893 63.536 88.7796C54.4595 86.4355 45.4414 83.8571 36.5991 80.6927C32.6757 79.2863 28.6937 77.8799 24.7703 76.4149C20.3784 74.7741 16.0451 73.0161 11.6532 71.2581C8.66667 70.086 5.73875 68.8554 2.75226 67.6248C2.57658 67.9764 2.40091 68.2694 2.28379 68.5038C2.04956 68.914 1.75676 69.3828 1.52253 69.793L1.34685 69.7344L1.22974 69.6172C2.45947 67.2732 3.63064 64.9292 4.86037 62.5852C4.97748 62.6438 5.0946 62.6438 5.15316 62.7024C4.86037 63.347 4.56757 64.0502 4.33334 64.6362C6.03154 65.398 7.55406 66.1598 9.13514 66.8044C13.6442 68.621 18.2117 70.4376 22.7793 72.1957C27.9324 74.1881 33.0856 76.1805 38.2973 77.9385C44.973 80.1653 51.6487 82.2163 58.3829 84.1501C64.7658 85.9081 71.2658 87.3731 77.7072 89.014Z" fill="#F7DFC5"/>
<path d="M3.92342 101.203C1.75676 94.1122 0 86.9629 0 79.5207C0 79.0519 0.117117 78.5245 0.175676 78.0557C3.57207 79.4035 7.02703 80.6927 10.4234 82.0405C12.6486 82.8609 14.8153 83.7399 17.0405 84.5017C20.0856 85.5565 23.1306 86.5527 26.1757 87.6075C29.9234 88.8967 33.6126 90.3617 37.4189 91.5923C42.1622 93.1746 46.964 94.6396 51.7658 96.1046C56.8018 97.6282 61.8964 99.0346 66.9324 100.5C68.8063 101.027 70.7387 101.613 72.6126 102.199C69.4505 107.18 65.8784 111.809 61.3108 115.618C60.0811 116.673 58.7342 117.611 57.446 118.607C54.6937 117.845 51.9414 117.083 49.1892 116.322C44.6802 115.032 40.1126 113.802 35.6036 112.454C30.8604 110.989 26.1757 109.29 21.491 107.825C15.5766 105.832 9.6036 103.84 3.92342 101.203ZM55.2793 107.532C54.4009 108.235 53.5225 108.821 52.8198 109.524C52.2342 110.11 52 110.813 52.6441 111.516C53.2297 112.161 53.8739 112.044 54.518 111.751C55.1622 111.399 55.7478 110.989 56.509 110.52C56.8018 111.223 56.9775 111.809 57.2117 112.395C57.6802 113.45 58.4414 113.919 59.2027 113.567C60.1982 113.157 60.1982 112.337 59.964 111.516C59.7297 110.52 59.4369 109.583 59.1441 108.586C59.964 107.883 60.8424 107.239 61.5451 106.477C62.0135 105.949 62.3063 105.246 61.7207 104.602C61.1351 104.016 60.4324 103.84 59.6712 104.309C59.0856 104.719 58.4414 105.129 57.7973 105.598C57.4459 105.012 57.2117 104.484 56.8604 104.016C56.3919 103.312 55.7478 102.902 54.9279 103.312C54.1667 103.723 53.9324 104.426 54.2252 105.246C54.518 106.008 54.8694 106.711 55.2793 107.532ZM44.6802 106.653C44.8559 107.121 44.973 107.473 45.1487 107.825C45.6171 108.938 46.3198 109.348 47.1396 108.997C48.1351 108.586 48.0766 107.766 47.9595 106.946C47.8424 106.301 47.6081 105.656 47.4324 104.953C48.1351 104.426 48.8378 103.957 49.4234 103.43C50.009 102.902 50.0676 102.082 49.5405 101.554C49.1892 101.203 48.4279 101.027 47.9009 101.086C47.3153 101.144 46.7883 101.554 46.2027 101.906C45.9099 101.32 45.6757 100.793 45.3829 100.324C44.9144 99.562 44.2703 99.0346 43.3919 99.4448C42.5721 99.855 42.3964 100.675 42.7478 101.554C42.982 102.258 43.2748 102.961 43.509 103.664C42.6892 104.191 41.9865 104.543 41.3423 105.07C40.6982 105.539 40.5225 106.184 40.8739 106.887C41.2838 107.649 41.9279 107.766 42.6306 107.532C43.2748 107.356 43.9189 107.004 44.6802 106.653ZM11.8288 90.7133C11.6532 90.3617 11.536 90.1273 11.3604 89.8343C10.6577 88.6623 9.8964 88.2521 9.13514 88.6037C8.31532 88.9553 8.13964 89.9515 8.66667 91.2407C8.9009 91.8267 9.13514 92.3542 9.36937 92.9402C8.49099 93.702 7.78829 94.4052 7.08559 95.0498C6.09009 95.9874 5.91442 96.7492 6.5 97.511C7.02703 98.2142 7.90541 98.1556 8.95946 97.3352C9.48649 96.925 10.0135 96.4562 10.5991 95.9874C10.7748 96.3976 10.8919 96.5734 10.9505 96.8078C11.2432 97.7454 11.8288 98.39 12.8829 98.1556C13.7027 98.0384 14.0541 97.0422 13.7613 95.8116C13.5856 95.167 13.4099 94.5224 13.2342 93.9364C13.9369 92.823 15.5766 92.2369 14.6982 90.7133C13.8784 89.4827 12.8243 90.1859 11.8288 90.7133ZM35.4865 98.097C35.2523 97.7454 35.018 97.4524 34.8423 97.1594C34.0811 95.9874 33.3784 95.6358 32.5586 96.046C31.7387 96.4562 31.6216 97.1594 32.1487 98.5072C32.3243 98.976 32.5 99.4448 32.6757 99.855C31.9144 100.382 31.2117 100.793 30.5676 101.261C29.9234 101.73 29.5135 102.433 29.982 103.195C30.4505 104.016 31.2703 104.133 32.0901 103.723C32.7342 103.43 33.3784 103.078 34.0811 102.668C34.3153 103.195 34.4324 103.547 34.5496 103.84C35.1351 105.305 35.7793 105.715 36.6577 105.363C37.536 105.012 37.7117 104.309 37.2432 102.785C37.0676 102.199 36.8919 101.613 36.7748 101.027C37.3018 100.617 37.7703 100.324 38.2387 99.9722C38.9414 99.4448 39.1757 98.7416 38.7072 97.9798C38.2387 97.218 37.4775 97.1594 36.7162 97.511C36.3063 97.7454 35.955 97.9212 35.4865 98.097ZM22.018 98.2142C22.4279 99.0932 22.6036 99.855 23.0721 100.382C23.4234 100.793 24.1847 101.144 24.5946 101.027C25.0631 100.91 25.5315 100.207 25.5901 99.6792C25.7072 99.0932 25.3559 98.4486 25.1802 97.8626C25.0045 97.3352 24.8288 96.8664 24.6532 96.3976C25.5315 95.4014 26.8784 94.7568 26 93.2918C25.1802 91.9439 24.1261 93.1746 23.1306 93.2332C23.0135 93.0574 22.8964 92.9402 22.7793 92.7644C21.9595 91.5923 21.2568 91.1821 20.5541 91.7095C19.6757 92.2955 19.6757 93.1746 20.0856 94.0536C20.3198 94.5224 20.6126 94.874 20.9054 95.3428C19.6757 96.1632 18.7973 96.7492 18.2117 97.5696C17.9189 97.9798 17.8604 98.8002 18.0946 99.269C18.4459 100.031 19.2658 99.9136 19.9099 99.6206C20.6126 99.2104 21.1982 98.7416 22.018 98.2142Z" fill="#BC331A"/>
<path d="M77.7074 89.014C71.2659 87.3732 64.8245 85.9082 58.383 84.0916C51.6488 82.2164 44.9146 80.1067 38.2975 77.8799C33.0858 76.1219 27.9326 74.1295 22.7794 72.1371C18.2119 70.3791 13.7029 68.5625 9.1353 66.7459C7.55422 66.1013 6.03169 65.3981 4.3335 64.5777C4.56773 63.9916 4.86052 63.2884 5.15332 62.6438C8.78395 58.0144 13.4686 55.0258 19.4416 54.1468C22.1353 53.7366 24.5948 54.1468 27.1128 55.2602C33.2614 58.0144 37.2434 62.8196 40.1128 68.7383C40.5227 69.6173 40.874 70.5549 41.284 71.4925C41.5182 72.0785 41.7524 72.7231 42.0452 73.6607C43.0407 72.8403 43.7434 72.2543 44.4461 71.6683C48.0182 69.2657 51.9416 67.6835 56.1578 66.7459C63.829 65.0465 72.6128 68.7969 75.8921 76.8251C77.5317 80.7514 78.5272 84.7362 77.7074 89.014Z" fill="#BC331A"/>
<path d="M72.6713 102.14C70.7974 101.554 68.865 101.027 66.9911 100.441C61.9551 98.976 56.8605 97.5696 51.8245 96.0459C47.0227 94.5809 42.2209 93.1159 37.4776 91.5337C33.7299 90.3031 29.9821 88.8381 26.2344 87.5489C23.1893 86.4941 20.1443 85.4979 17.0992 84.4431C14.874 83.6813 12.6488 82.8023 10.4821 81.9819C7.08573 80.6927 3.63077 79.3449 0.234375 77.997C0.702843 75.2428 1.17131 72.4886 1.63978 69.793C1.87401 69.3828 2.16681 68.914 2.40104 68.5038C5.21185 69.793 8.02266 71.1994 10.892 72.3714C13.9371 73.6606 17.0407 74.7154 20.0857 75.946C22.6037 76.8836 25.0632 77.9384 27.5812 78.876C29.865 79.6965 32.1488 80.3997 34.4326 81.2201C37.2434 82.2163 40.0542 83.2125 42.865 84.1501C45.7929 85.0877 48.7794 85.9081 51.7659 86.7871C56.9776 88.2521 62.1308 89.7757 67.3425 91.1821C70.4461 92.0611 73.5497 92.8229 76.7119 93.6433C75.892 96.6906 74.5452 99.562 72.6713 102.14Z" fill="#DE4327"/>
<path d="M3.92334 101.203C9.66208 103.84 15.5765 105.832 21.5495 107.707C26.2927 109.231 30.9188 110.872 35.6621 112.337C40.1711 113.743 44.7387 114.915 49.2477 116.204C51.9999 116.966 54.7522 117.728 57.5044 118.49C54.4008 120.717 51.2387 122.885 48.135 125.112C46.9053 124.76 45.617 124.408 44.3873 124.057C40.4639 122.885 36.5405 121.771 32.6756 120.541C29.2792 119.427 25.8828 118.255 22.4864 117.025C20.4954 116.322 18.5044 115.618 16.572 114.857C13.5855 113.743 10.6576 112.63 7.72965 111.516C6.44136 108.059 5.15307 104.66 3.92334 101.203Z" fill="#DE4327"/>
<path d="M44.3288 50.9823C42.6306 44.4776 42.2793 37.8558 42.9234 31.1754C43.6261 24.1433 45.0901 17.2871 47.7838 10.7238C48.955 7.85242 50.7117 5.274 52.937 3.10579C55.0451 1.05478 57.5045 -0.117227 60.5496 -2.67383e-05C63.1262 0.0585736 64.8244 1.28918 65.8198 3.57459C67.4009 7.14921 67.8694 10.9582 67.518 14.8259C66.9325 20.6859 65.2928 26.2529 63.0676 31.7028C60.0811 38.9692 56.2748 45.8254 52.2343 52.5645C51.2973 52.0371 50.3018 51.5683 49.3649 51.0409C52.937 45.1222 56.3334 39.145 59.0856 32.8162C61.4865 27.3077 63.4189 21.7407 64.1802 15.7635C64.6487 12.1888 64.3559 8.73142 63.0676 5.3912C62.3649 3.57459 61.7207 3.16439 59.7883 3.28159C57.7388 3.39879 56.0991 4.4536 54.7523 5.91861C52.2928 8.55562 50.7703 11.6614 49.6577 15.0017C45.9685 26.6045 44.5631 38.3832 47.1982 50.3963C46.2613 50.5721 45.3243 50.8065 44.3288 50.9823Z" fill="#42261E"/>
<path d="M43.0406 128.452C38.8244 130.855 34.6667 133.257 30.4505 135.601C28.2838 136.773 26.0586 137.711 23.8334 138.707C22.3694 139.352 21.4325 139.059 20.6712 137.652C17.2163 130.972 13.7613 124.291 10.3649 117.611C10.2478 117.377 10.2478 117.025 10.2478 116.732C11.946 117.494 13.6442 118.314 15.401 118.959C21.9595 121.303 28.4595 123.588 35.0181 125.874C37.6532 126.753 40.3469 127.573 43.0406 128.452Z" fill="#BC331A"/>
<path d="M49.3064 51.0409C50.2433 51.5683 51.2388 52.0371 52.1758 52.5645C52.6442 53.0919 53.1713 53.6779 53.6397 54.2053C56.7433 58.0143 54.6352 61.9991 51.6487 63.4641C50.5947 63.9915 49.4235 64.1673 48.3109 64.4603C47.7253 64.6361 47.0812 64.6361 46.4956 64.7533C45.5587 64.5775 44.5632 64.3431 43.6262 64.1673C41.6352 63.2883 40.3469 61.7061 39.5271 59.7137C38.3559 56.9595 39.1172 54.0881 41.5181 52.3887C42.3965 51.8027 43.392 51.3925 44.3289 50.8651C45.2659 50.6893 46.2614 50.5135 47.1983 50.2791C47.901 50.6307 48.6037 50.8651 49.3064 51.0409Z" fill="#2D9479"/>
<path d="M43.0405 128.452C40.3468 127.573 37.6531 126.753 35.018 125.874C28.4594 123.588 21.9008 121.303 15.4008 118.959C13.6441 118.314 11.9459 117.494 10.2477 116.732C9.25219 115.56 8.43237 114.271 8.43237 112.63C12.9999 114.505 17.5675 116.439 22.1936 118.197C27.581 120.189 33.027 122.006 38.4729 123.823C40.9324 124.643 43.4504 125.405 45.9684 126.167C45.3828 127.397 44.036 127.69 43.0405 128.452Z" fill="#F7DFC5"/>
<path d="M76.6531 93.5261C73.5495 92.7057 70.3873 91.9439 67.2837 91.0649C62.072 89.5999 56.9189 88.1349 51.7072 86.6699C48.7207 85.7909 45.7342 84.9705 42.8062 84.0329C39.9954 83.1539 37.1846 82.0991 34.3738 81.1028C32.09 80.341 29.8062 79.5792 27.5225 78.7588C25.0044 77.8212 22.545 76.825 20.027 75.8288C16.9819 74.6568 13.8783 73.5434 10.8333 72.2542C7.96391 71.0236 5.1531 69.6758 2.34229 68.3866C2.4594 68.0936 2.63508 67.8592 2.81075 67.5076C5.79724 68.7382 8.72517 69.9688 11.7117 71.1408C16.045 72.8988 20.4369 74.6568 24.8288 76.2976C28.7522 77.7626 32.7342 79.169 36.6576 80.5754C45.4999 83.7399 54.518 86.3769 63.5945 88.6623C68.1035 89.8343 72.6126 90.8305 77.1216 91.9439C76.8873 92.5299 76.7702 93.0573 76.6531 93.5261Z" fill="#BC331A"/>
<path d="M45.9684 126.049C43.4504 125.288 40.9324 124.526 38.4729 123.705C33.027 121.889 27.5811 120.072 22.1937 118.08C17.5675 116.38 13 114.388 8.4324 112.513C8.19817 112.161 7.96394 111.809 7.67114 111.516C10.5991 112.63 13.5856 113.743 16.5135 114.857C18.5045 115.619 20.4369 116.322 22.4279 117.025C25.8243 118.197 29.2207 119.428 32.6171 120.541C36.482 121.772 40.4054 122.885 44.3288 124.057C45.5585 124.409 46.8468 124.76 48.0765 125.112C47.3738 125.463 46.6711 125.756 45.9684 126.049Z" fill="#BC331A"/>
<path d="M43.6262 64.2261C44.5632 64.4019 45.5587 64.6363 46.4956 64.8121C45.7929 67.0389 45.0902 69.3243 44.3875 71.5511C43.6848 72.1371 42.9235 72.7817 41.9866 73.5435C41.6352 72.6059 41.4596 72.0199 41.2253 71.3753C42.0452 69.0899 42.865 66.6873 43.6262 64.2261Z" fill="#42261E"/>
<path d="M55.2793 107.532C54.9279 106.711 54.5766 106.008 54.2838 105.305C53.991 104.484 54.1667 103.781 54.9865 103.371C55.8063 102.961 56.4505 103.371 56.9189 104.074C57.2117 104.543 57.5045 105.012 57.8559 105.656C58.5586 105.188 59.1442 104.777 59.7297 104.367C60.491 103.84 61.1937 104.016 61.7793 104.66C62.3649 105.305 62.1306 106.008 61.6036 106.535C60.9009 107.297 60.0225 107.942 59.2027 108.645C59.4955 109.641 59.7883 110.579 60.0225 111.575C60.1982 112.395 60.1982 113.216 59.2613 113.626C58.4415 113.978 57.6802 113.509 57.2703 112.454C57.0361 111.868 56.8604 111.282 56.5676 110.579C55.8063 111.048 55.2207 111.458 54.5766 111.809C53.9325 112.161 53.2883 112.278 52.7027 111.575C52.0586 110.872 52.2928 110.11 52.8784 109.583C53.5225 108.821 54.3424 108.235 55.2793 107.532Z" fill="#F7DFC5"/>
<path d="M44.6802 106.653C43.9775 106.946 43.2748 107.297 42.5721 107.532C41.8694 107.766 41.1667 107.649 40.8154 106.887C40.464 106.184 40.6397 105.539 41.2838 105.07C41.928 104.602 42.6307 104.191 43.4505 103.664C43.1577 102.961 42.9235 102.258 42.6892 101.554C42.3379 100.675 42.5136 99.855 43.3334 99.4448C44.2118 98.976 44.8559 99.5034 45.3244 100.324C45.6172 100.793 45.8514 101.32 46.1442 101.906C46.7883 101.613 47.3154 101.144 47.8424 101.086C48.3694 101.027 49.0721 101.203 49.482 101.554C50.0091 102.082 49.9505 102.844 49.3649 103.43C48.7793 103.957 48.0766 104.426 47.3739 104.953C47.5496 105.598 47.7838 106.242 47.9009 106.946C48.0181 107.766 48.0766 108.645 47.0811 108.997C46.2613 109.29 45.5586 108.879 45.0901 107.825C44.973 107.473 44.8559 107.121 44.6802 106.653Z" fill="#F7DFC5"/>
<path d="M11.8289 90.7134C12.8244 90.186 13.8784 89.4242 14.6397 90.7134C15.5181 92.237 13.8784 92.823 13.1757 93.9364C13.3514 94.5224 13.5271 95.167 13.7028 95.8116C13.9956 97.0422 13.6442 98.0384 12.8244 98.1556C11.7703 98.3314 11.1848 97.6868 10.892 96.8078C10.8334 96.5734 10.7163 96.3976 10.5406 95.9874C9.95502 96.5148 9.428 96.925 8.90097 97.3352C7.84692 98.1556 6.96854 98.2142 6.44151 97.511C5.85593 96.8078 6.0316 96.046 7.0271 95.0498C7.7298 94.3466 8.49106 93.702 9.31088 92.9402C9.07665 92.3542 8.84241 91.8268 8.60818 91.2408C8.08115 89.9516 8.25683 88.9554 9.07665 88.6038C9.83791 88.2522 10.5992 88.6624 11.3019 89.8344C11.5361 90.1274 11.6532 90.4204 11.8289 90.7134Z" fill="#F7DFC5"/>
<path d="M35.4866 98.097C35.9551 97.9212 36.3065 97.7454 36.7164 97.5696C37.4776 97.2766 38.2389 97.2766 38.7074 98.0384C39.1758 98.8002 38.883 99.5034 38.2389 100.031C37.7704 100.382 37.3605 100.675 36.7749 101.086C36.9506 101.672 37.0677 102.258 37.2434 102.844C37.7119 104.367 37.5362 105.07 36.6578 105.422C35.7209 105.774 35.1353 105.363 34.5497 103.898C34.4326 103.547 34.2569 103.195 34.0812 102.726C33.3785 103.078 32.7344 103.488 32.0902 103.781C31.2704 104.191 30.4506 104.074 29.9821 103.254C29.5137 102.492 29.9236 101.789 30.5677 101.32C31.2119 100.851 31.9146 100.441 32.6758 99.9136C32.5001 99.4448 32.3245 98.976 32.1488 98.5658C31.6218 97.218 31.7389 96.5148 32.5587 96.1046C33.32 95.6944 34.0227 96.046 34.8425 97.218C35.0182 97.4524 35.2524 97.7454 35.4866 98.097Z" fill="#F7DFC5"/>
<path d="M22.0179 98.2142C21.1981 98.7416 20.6125 99.2104 19.9684 99.562C19.3242 99.9136 18.5044 99.9722 18.1531 99.2104C17.9188 98.7416 17.9774 97.9212 18.2702 97.511C18.8558 96.7492 19.6756 96.1632 20.9639 95.2842C20.6711 94.874 20.3783 94.4638 20.1441 93.995C19.7342 93.116 19.7342 92.2956 20.6125 91.651C21.3152 91.1822 22.0179 91.5338 22.8378 92.7058C22.9549 92.8816 23.072 92.9988 23.1891 93.1746C24.1261 93.116 25.2387 91.8854 26.0585 93.2332C26.9369 94.6396 25.59 95.3428 24.7116 96.339C24.8873 96.7492 25.063 97.2766 25.2387 97.804C25.4143 98.39 25.7657 99.0346 25.6486 99.6206C25.59 100.148 25.1215 100.851 24.6531 100.968C24.2432 101.086 23.4819 100.734 23.1306 100.324C22.6035 99.855 22.4279 99.0932 22.0179 98.2142Z" fill="#F7DFC5"/>
</g>
<defs>
<clipPath id="clip0">
<rect width="78" height="139" fill="white"/>
</clipPath>
</defs>
</svg>
