<svg width="180" height="181" viewBox="0 0 180 181" fill="none" xmlns="http://www.w3.org/2000/svg">
<g clip-path="url(#clip0)">
<path d="M113.762 36.4396C114.412 38.9082 115.062 41.3767 115.65 43.8289C115.743 44.706 115.913 45.5384 116.006 46.4155C116.108 46.7705 116.193 47.1866 116.355 47.558C116.367 47.7579 116.379 47.9578 116.408 48.0965C116.651 49.1451 116.817 50.2385 117.061 51.2871C117.651 55.4443 118.242 59.6015 118.771 63.7424C118.99 65.3743 119.208 67.0061 119.426 68.638C120.678 75.4637 121.87 82.273 123.203 89.776C112.342 81.6212 101.782 73.8095 91.9133 65.1338C88.8418 65.0975 86.0894 64.36 84.5878 61.4009C83.9773 60.254 83.7382 58.9443 83.2828 57.7078C79.8643 54.5629 76.4293 51.4791 72.9496 48.3178C72.4811 47.8644 72.0901 47.3663 71.6216 46.913C71.153 46.4597 70.6681 46.0675 70.1831 45.6753C68.582 44.0663 66.9361 42.3797 65.335 40.7706C63.7587 42.2494 61.8898 42.8631 59.761 42.4894C66.2375 50.1249 73.637 56.7622 81.2081 63.2487C87.3244 68.5588 93.6285 73.657 99.8387 78.8611C100.43 79.3472 100.988 79.9556 101.562 80.5029C103.87 81.1869 105.582 82.6288 106.558 84.8571C106.831 85.0614 107.104 85.2657 107.377 85.47C107.822 85.5235 108.405 85.5487 108.723 85.8305C116.486 91.8441 124.249 97.8578 131.996 103.933C132.375 104.231 132.66 104.635 132.978 104.917C132.929 105.1 132.802 105.329 132.753 105.512C127.985 104.956 123.262 104.477 118.495 103.92C115.826 108.253 111.115 107.974 108.038 105.511C106.734 104.506 105.855 102.894 104.772 101.555C99.6621 100.317 94.4914 99.0622 89.3983 97.763C85.8975 98.595 82.9287 97.9307 80.9094 94.7017C77.3258 93.1515 73.8034 91.6177 70.2361 90.0062C68.7386 90.4572 67.3022 90.9246 65.8047 91.3756C65.4517 93.1822 66.4784 94.2439 67.9419 94.8983C75.321 98.1867 82.6182 101.781 90.5578 103.712C92.5314 104.175 94.5051 104.638 96.4952 105.04C98.4241 105.426 100.337 105.873 102.266 106.259C110.327 108.222 118.623 109.068 126.891 109.776C131.002 110.091 135.109 110.667 139.248 111.12C140.904 111.302 142.102 112.213 143.39 113.279C163.377 130.435 179.612 150.584 192.715 173.369C193.566 174.843 194.433 176.255 195.3 177.667C195.614 178.21 195.927 178.753 196.412 179.145C197.41 180.068 198.589 180.319 199.801 179.463C200.859 178.698 201.231 177.552 200.682 176.422C200.059 175.075 199.298 173.756 198.521 172.499C190.558 159.155 182.379 145.884 171.992 134.251C164.272 125.627 155.834 117.728 147.473 109.784C142.833 105.328 137.722 101.402 132.816 97.2031C132.074 96.5455 131.582 95.6924 130.951 94.8677C130.833 94.5739 130.715 94.28 130.536 93.9698C128.854 91.6835 128.453 89.0195 128.269 86.2822C127.758 83.7852 127.263 81.2271 126.83 78.6854C126.745 78.2692 126.953 77.7351 127.007 77.2905C126.889 76.9967 126.771 76.7029 126.592 76.3927C124.633 74.1632 124.893 71.4795 125.198 68.8733C124.056 61.8805 122.975 54.9041 121.833 47.9113C121.525 46.1243 121.156 44.3209 120.787 42.5176C117.584 40.2825 116.16 37.2786 117.001 32.9151C115.67 34.4594 114.685 35.4413 113.762 36.4396Z" fill="#41241D"/>
<path d="M113.762 36.4396C114.685 35.4413 115.669 34.4595 116.952 33.0986C116.11 37.4622 117.596 40.4824 120.738 42.7011C122.992 43.8296 125.293 44.0526 127.558 42.6929C132.028 39.9572 132.489 36.2785 129.424 31.3269C127.331 27.8817 122.592 27.4641 119.227 30.2338C118.729 30.6248 118.353 31.0485 117.823 31.5619C117.721 31.2069 117.587 30.9742 117.636 30.7907C117.99 24.3299 114.86 22.3112 110.114 20.4495C107.199 19.3406 104.795 20.7287 102.777 22.8759C100.649 25.1903 99.8058 27.8488 100.891 30.893C102.298 34.9411 106.129 37.2789 110.437 36.8598C111.514 36.7551 112.624 36.528 113.762 36.4396Z" fill="#DE4629"/>
<path d="M136.215 44.8815C132.015 44.4115 128.495 47.2708 127.992 51.5939C127.424 56.1618 131.138 60.8938 135.661 61.3846C140.184 61.8754 144.32 58.919 144.757 54.8405C145.236 50.1176 141.244 45.4423 136.215 44.8815Z" fill="#DE4629"/>
<path d="M125.148 69.0569C124.827 71.7242 124.583 74.3468 126.543 76.5762C126.722 76.8865 126.84 77.1803 127.019 77.4905C128.527 78.2225 130.048 79.1543 131.683 79.658C133.624 80.2436 135.504 79.8298 137.288 78.7999C140.856 76.7402 141.86 72.7481 139.661 69.2089C136.848 64.7839 129.313 62.5681 125.148 69.0569Z" fill="#DE4629"/>
<path d="M73.8605 47.1197C76.3312 48.1751 78.7538 48.4309 81.2028 47.1204C83.6518 45.8099 85.1429 43.9149 85.1912 41.0433C85.1947 38.0942 83.9617 35.6004 81.4671 34.1453C78.0594 32.1833 73.107 32.5608 70.6993 36.898C69.5752 38.8913 69.6787 40.9513 70.5043 43.0081C70.9029 43.9672 71.4402 44.8979 71.9164 45.8121C71.8181 46.1791 71.7973 46.5013 71.6989 46.8683C72.5117 46.0372 73.1757 46.7396 73.8605 47.1197Z" fill="#DF462A"/>
<path d="M133.425 126.736C137.687 127.222 141.463 124.629 141.908 121.011C142.448 116.304 138.864 112.066 133.941 111.599C130.429 111.248 127.31 114.084 126.86 117.962C126.435 122.241 129.469 126.331 133.425 126.736Z" fill="#DF462A"/>
<path d="M116.408 48.0965C116.396 47.8966 116.384 47.6967 116.355 47.558C116.254 47.203 116.108 46.7705 116.006 46.4155C115.575 45.5787 115.082 44.7256 114.651 43.8889C113.636 43.027 112.809 41.9532 111.652 41.3808C108.908 40.1212 106.159 40.1056 103.696 42.1993C101.234 44.293 100.941 47.099 101.693 49.9226C102.545 53.1012 104.55 55.4082 107.934 55.9874C111.136 56.5174 114.116 54.6936 116.017 51.2695C116.234 50.2133 116.329 49.1243 116.408 48.0965Z" fill="#DE4629"/>
<path d="M106.713 84.7676C105.675 82.5229 104.009 81.1585 101.717 80.4134C101.273 80.3598 100.828 80.3062 100.384 80.2527C96.2395 80.0601 93.5239 82.6103 93.3925 86.7708C93.2631 92.6362 99.3238 96.6858 104.662 94.3794C107.772 93.0493 108.905 90.5339 107.885 87.2449C107.665 86.5961 107.646 85.9353 107.487 85.3029C107.259 85.1761 106.986 84.9719 106.713 84.7676Z" fill="#DE4629"/>
<path d="M117.727 63.7248C116.33 61.8427 114.79 60.25 112.499 59.5049C109.901 58.6778 107.604 59.1768 105.652 61.0794C103.794 62.876 103.31 65.1719 104.021 67.6569C104.947 71.0518 107.775 73.7106 110.797 73.9304C114.158 74.1098 116.778 72.6486 118.32 69.5871C118.738 67.5358 118.524 65.6429 117.727 63.7248Z" fill="#DF462A"/>
<path d="M49.9655 54.0908C55.6223 54.7543 59.0087 50.6793 57.4111 46.1211C56.2405 42.6607 53.8038 40.5 50.1743 39.8552C45.4885 38.993 41.604 43.459 43.218 47.956C44.4945 51.5104 47.0699 53.6427 49.9655 54.0908Z" fill="#DE4629"/>
<path d="M128.236 86.4047C128.42 89.142 128.821 91.806 130.503 94.0923C130.682 94.4025 130.8 94.6964 130.979 95.0066C131.301 95.0274 131.717 94.9422 132.068 95.1017C132.724 95.3432 133.348 95.7069 134.005 95.9484C137.275 96.9557 140.237 96.1761 141.843 93.853C143.449 91.5299 143.273 88.2705 141.335 85.7188C138.122 81.3178 132.134 81.1556 129.298 85.3781C129.016 85.6959 128.595 86.0421 128.236 86.4047Z" fill="#DF462A"/>
<path d="M63.0374 21.209C63.3213 22.5962 63.4053 23.9954 63.8443 25.293C64.8402 28.1822 67.5871 30.1638 70.1528 30.1302C72.7797 30.1129 75.9191 27.9385 76.9297 25.3903C77.5229 23.9103 77.594 22.4216 76.8492 21.042C75.4328 18.499 73.3139 16.6202 70.4391 15.8499C66.8915 14.8993 63.7641 17.2736 63.0374 21.209Z" fill="#DF462A"/>
<path d="M144.934 98.2212C144.464 102.422 147.274 106.125 151.197 106.652C155.076 107.101 158.309 104.821 158.721 101.326C159.175 97.1858 155.823 92.8132 151.789 92.4535C148.294 92.0414 145.317 94.5872 144.934 98.2212Z" fill="#DF462A"/>
<path d="M83.344 57.7242C83.7994 58.9607 84.0385 60.2703 84.649 61.4173C86.1506 64.3764 88.9031 65.1139 91.9745 65.1502C92.8888 64.674 93.8642 64.2143 94.7337 63.6606C97.2646 62.0442 98.1649 59.6632 97.2749 56.868C96.385 54.0728 94.5272 52.1983 91.7627 51.2609C88.6313 50.2251 85.5051 51.6164 84.1635 54.6659C83.7789 55.6118 83.6227 56.6844 83.344 57.7242Z" fill="#DE4629"/>
<path d="M36.2003 22.2782C31.4574 24.8097 31.4492 31.691 36.2877 34.4297C41.3545 37.2952 47.3142 33.6475 46.832 27.6182C46.7064 26.8634 46.5809 26.1086 46.4553 25.3538C45.9092 24.9453 45.2408 24.504 44.7886 23.9895C43.0576 21.8867 40.9048 21.1132 38.2527 21.7137C37.5427 21.9168 36.8327 22.1199 36.2003 22.2782Z" fill="#DE4629"/>
<path d="M104.772 101.555C105.855 102.894 106.734 104.506 108.038 105.511C111.131 107.913 115.826 108.253 118.65 103.831C119.147 100.752 118.424 98.067 116.436 95.6988C113.003 91.632 107.364 92.6124 105.543 97.6967C105.138 98.9648 105.055 100.254 104.772 101.555Z" fill="#DE4629"/>
<path d="M50.3607 81.7305C46.7879 81.3632 43.7545 83.6316 43.4364 87.0209C43.0931 90.9934 46.4045 95.0275 50.2383 95.3992C53.6888 95.7337 56.8489 93.2371 57.2118 89.9253C57.6327 85.908 54.5616 82.2006 50.3607 81.7305Z" fill="#DF462A"/>
<path d="M144.214 76.1976C143.682 80.3821 146.488 84.3461 150.167 84.8074C153.523 85.2479 157.414 82.2259 157.777 78.9142C158.194 75.1579 154.76 71.0911 150.804 70.6866C147.537 70.4012 144.67 72.7799 144.214 76.1976Z" fill="#DF462A"/>
<path d="M35.6272 54.5098C32.0708 54.0813 29.4251 56.1258 28.9966 59.6822C28.5266 63.8831 31.2547 67.8919 34.9499 68.292C38.6898 68.7697 41.8379 66.0731 42.3199 62.0722C42.8424 58.4098 39.8116 55.041 35.6272 54.5098Z" fill="#DF462A"/>
<path d="M59.8997 42.461C62.0285 42.8348 63.9138 42.1599 65.4737 40.7423C65.678 40.4692 65.9434 40.2126 66.1477 39.9395C68.1993 36.6869 68.2836 34.415 66.3734 32.002C64.0558 29.1521 60.8468 28.1611 57.4923 29.4257C56.9822 29.6168 56.4885 29.7467 56.0396 29.9542C54.8303 31.5313 53.8493 33.2352 53.7694 35.2461C54.2376 39.3705 55.9851 41.4121 59.8997 42.461Z" fill="#DE4629"/>
<path d="M102.233 106.381C100.304 105.995 98.3913 105.548 96.4624 105.163C95.7928 105.704 95.1843 106.263 94.5311 106.743C91.0815 109.097 90.2653 112.877 92.6068 116.127C95.0379 119.531 99.7117 120.194 102.827 117.62C105.367 115.481 105.783 111.725 103.821 108.773C103.328 107.92 102.819 107.128 102.233 106.381Z" fill="#DF462A"/>
<path d="M51.4056 23.2713C52.4095 22.9503 53.5028 22.7844 54.4619 22.3858C56.8453 21.3199 58.1365 19.437 58.3028 16.8592C58.469 14.2815 57.4436 12.2366 55.1772 10.9082C54.9489 10.7815 54.7207 10.6548 54.4924 10.5281C49.809 7.69978 45.9312 9.93861 44.7632 14.5424C44.7904 15.6642 44.6789 16.8143 44.9224 17.8629C45.6484 21.2698 48.2206 22.6801 51.4056 23.2713Z" fill="#DE4427"/>
<path d="M52.575 78.8493C56.1314 79.2778 59.3527 76.7975 59.6873 73.3471C60.083 69.913 56.5149 65.6135 53.1256 65.2954C49.8139 64.9325 46.6493 67.6902 46.1761 71.169C45.7312 74.7866 48.7576 78.4164 52.575 78.8493Z" fill="#DF462A"/>
<path d="M82.3794 110.501C82.7587 107.129 80.3528 103.14 77.1274 102.211C75.9041 101.883 74.2886 102.04 73.158 102.589C70.7418 103.778 69.2911 106.011 69.3367 108.777C69.4108 111.681 70.7377 114.069 73.3874 115.434C76.7667 117.258 81.9301 114.38 82.3794 110.501Z" fill="#DF462A"/>
<path d="M67.2592 68.8204C70.7544 69.2325 73.8534 66.7194 74.2819 63.163C74.7475 59.2233 72.1122 56.0915 67.9113 55.6215C64.5996 55.2585 61.4842 57.8328 61.0437 61.1893C60.5989 64.8068 63.5641 68.4203 67.2592 68.8204Z" fill="#DF462A"/>
<path d="M65.7883 91.4368C67.2859 90.9858 68.7222 90.5184 70.2198 90.0674C70.5508 89.5661 70.943 89.0812 71.2128 88.5635C71.6421 87.6951 72.1326 86.8432 72.195 85.8765C72.5875 81.7205 67.8528 77.3707 63.8015 78.0552C59.889 78.7113 57.6603 83.3587 59.5322 87.1381C60.7935 89.7706 63.0151 91.0215 65.7883 91.4368Z" fill="#DF462A"/>
<path d="M87.035 78.4461C87.4678 74.6286 84.7921 71.1583 81.097 70.7582C77.5242 70.3909 74.3924 73.0262 74.0699 76.6766C73.7637 80.2658 76.4439 83.4751 79.9391 83.8872C83.5731 84.2709 86.6229 81.9413 87.035 78.4461Z" fill="#DF462A"/>
<path d="M57.7365 97.9984C54.0861 97.6759 51.4329 99.2595 50.8505 101.922C50.1697 104.952 52.343 109.075 55.4461 109.972C57.0364 110.398 58.9697 110.523 60.5895 110.104C62.9642 109.561 64.4357 107.005 64.2753 104.667C64.067 101.53 62.112 99.0397 59.2372 98.2694C58.6867 98.1219 58.0423 98.0804 57.7365 97.9984Z" fill="#DF462A"/>
<path d="M43.2285 15.3767C42.8223 13.9567 42.5712 12.4472 41.9323 11.1615C40.3575 7.98617 36.8143 6.77454 33.9492 8.17022C31.0065 9.61067 29.7457 13.3374 31.1206 16.5248C32.0685 18.6144 33.5473 20.1906 35.6837 21.0253C39.1341 21.3598 41.5547 19.9106 42.9291 16.7388C43.0438 16.3106 43.0974 15.8661 43.2285 15.3767Z" fill="#DF462A"/>
<path d="M80.9094 94.7016C82.9287 97.9306 85.8974 98.5949 89.3982 97.7629C89.5861 97.551 89.7129 97.3228 89.8844 97.172C93.3143 94.1577 93.5953 91.1518 90.5973 87.6606C88.7439 85.5251 86.4524 84.7799 84.3344 85.5891C81.9226 86.5163 80.3616 88.9169 80.4847 91.6378C80.4672 92.682 80.7882 93.6858 80.9094 94.7016Z" fill="#DF462A"/>
<path d="M43.2285 15.3767C43.1138 15.8048 43.0602 16.2494 42.9455 16.6776C43.2545 17.4815 43.4249 18.3138 43.7951 19.1341C44.6818 21.2073 45.5686 23.2806 46.4553 25.3538C46.9806 26.0845 47.506 26.8153 47.9537 27.5909C49.8923 30.1426 51.8308 32.6943 53.7082 35.2296C53.8045 33.1576 54.7691 31.5149 55.9784 29.9377C54.4025 27.7454 52.9041 25.5083 51.3281 23.316C48.1431 22.7248 45.5709 21.3145 44.8612 17.8464C44.6178 16.7978 44.7293 15.6477 44.7021 14.5259C44.2979 14.811 43.755 15.1244 43.2285 15.3767Z" fill="#41241D"/>
<path d="M116.084 46.3707C116.185 46.7257 116.331 47.1583 116.433 47.5133C116.27 47.1419 116.169 46.7869 116.084 46.3707Z" fill="#FDC059"/>
</g>
<defs>
<clipPath id="clip0">
<rect width="131.523" height="207.131" fill="white" transform="translate(0 127.041) rotate(-75)"/>
</clipPath>
</defs>
</svg>
