<svg width="744" height="232" viewBox="0 0 744 232" fill="none" xmlns="http://www.w3.org/2000/svg">
<g clip-path="url(#clip0)">
<path d="M34.9023 122.349C31.8672 115.15 30.7832 100.098 31 90.7173C31.4336 80.6824 35.3359 56.0314 45.9588 43.5968C52.8962 35.7434 66.3375 29.1989 73.7085 29.1989C92.136 29.4171 101.025 34.6527 104.06 37.2705C104.277 39.8883 98.8566 57.9948 96.2551 62.1396C92.5696 62.3578 86.4994 61.267 84.1146 60.1763C83.681 53.6317 83.8978 45.7783 84.1146 39.2338C82.1635 37.7068 69.3726 37.9249 68.0718 38.5794C60.7008 45.1239 52.6794 69.7749 51.5955 88.7539C50.7283 102.061 54.6306 122.349 67.2047 129.984C76.31 128.457 86.9329 122.785 94.304 116.677C96.2551 118.204 97.3391 119.513 98.2063 121.913C94.9543 128.457 74.1421 145.255 59.6169 145.255C51.3787 145.037 40.1054 134.347 34.9023 122.349Z" fill="white"/>
<path d="M108.612 142.637C109.046 138.492 114.032 115.368 114.683 108.606C114.899 84.1728 115.116 59.5218 115.333 34.4346L107.745 33.3438C107.312 31.5986 107.095 29.6353 107.312 27.2356C112.298 26.1449 127.474 22.4363 130.509 22C132.026 22.4363 136.796 26.363 137.012 27.8901L130.725 98.1344L131.809 98.5707C137.663 86.7906 150.237 65.63 154.573 61.0489C157.174 60.1763 163.245 60.3944 166.713 61.0489C169.965 63.0122 173.868 66.2845 176.035 69.1204C173.217 86.1361 169.748 123.44 170.182 130.639L178.203 130.421C178.42 131.293 179.504 134.129 179.504 135.438C177.119 137.62 166.063 145.037 163.678 145.037C160.86 145.037 151.971 137.401 151.754 133.257C153.272 115.368 154.79 94.8621 157.174 77.4101C156.741 76.5375 155.44 76.1012 154.573 75.8831C149.153 82.4276 133.544 105.115 130.942 112.532C130.292 119.077 130.075 138.056 130.075 140.237C128.991 141.546 120.319 145.037 118.151 145.037C117.067 145.037 109.48 143.946 108.612 142.637Z" fill="white"/>
<path d="M190.344 142.419C190.561 139.365 195.547 114.059 196.197 107.297L196.414 73.0471L187.742 72.829C187.309 71.3019 187.092 68.6841 187.092 67.5934C191.861 64.9756 203.568 60.3944 206.17 60.3944C208.988 60.3944 215.275 64.9756 215.926 66.7208L210.506 103.152L211.59 103.37C215.275 91.808 223.947 67.8115 228.283 60.3944C233.269 59.9581 240.857 61.7033 245.843 66.0663C245.193 70.8656 241.291 81.9913 238.472 85.4817C234.353 85.2635 230.234 83.7365 227.633 82.8639C222.863 91.1536 214.842 107.951 212.24 116.241C211.373 123.876 210.939 136.092 211.156 140.455C208.988 141.764 201.4 145.255 198.799 145.255C197.715 145.037 191.211 143.728 190.344 142.419Z" fill="white"/>
<path d="M256.033 133.257C256.9 115.368 259.285 91.1536 260.585 73.4834L251.48 72.829C251.263 71.5201 250.83 68.9023 251.046 67.5934C255.816 64.9756 266.872 60.3944 268.823 60.3944C271.425 60.3944 279.663 64.7574 279.663 66.7208C278.146 83.7365 274.027 124.094 274.677 130.857C277.278 130.639 280.53 130.857 282.481 130.639C282.915 131.73 283.565 133.911 283.782 135.438C280.964 138.71 270.124 145.255 267.739 145.255C264.488 145.037 256.683 137.838 256.033 133.257ZM260.585 35.089C260.802 32.0349 269.691 23.5271 274.243 23.5271C277.495 23.5271 283.999 31.5986 283.349 35.7435C282.915 39.0157 274.46 46.8691 270.341 46.8691C266.222 47.0873 259.935 39.0157 260.585 35.089Z" fill="white"/>
<path d="M290.72 132.82C292.02 127.148 295.923 118.422 299.175 113.841C300.909 114.059 304.811 115.15 306.112 116.459C305.895 119.295 304.811 125.839 304.594 127.803C308.497 131.511 313.483 133.038 319.77 133.038C323.889 133.038 327.358 132.384 329.743 131.293C330.827 130.421 332.778 125.839 332.778 122.567C325.84 117.332 295.489 102.279 294.188 90.7173C295.056 80.9005 302.427 68.466 307.196 64.3211C310.882 62.3578 317.819 60.6126 324.106 60.6126C334.512 60.6126 339.498 62.7941 345.352 66.5026C344.485 73.2653 341.666 81.555 338.414 87.6632C336.463 87.8813 333.428 87.6632 331.26 87.0087C331.26 84.3909 331.477 80.0279 331.043 75.6649C328.008 74.1379 323.239 73.0471 318.253 73.0471C313.483 73.0471 311.098 73.4834 308.93 73.9197C307.846 75.4468 306.762 78.719 306.762 80.4642C313.483 87.8813 341.666 102.061 344.485 111.223C343.834 122.785 340.799 131.729 334.078 138.71C331.043 141.764 324.756 145.255 316.518 145.255C305.245 145.255 293.755 138.71 290.72 132.82Z" fill="white"/>
<path d="M358.143 133.475C358.576 123.003 360.527 92.2443 361.828 71.9564H353.807C353.373 70.2112 353.59 67.3752 354.457 66.0663L363.779 63.6667C366.814 56.4677 368.982 48.178 370.934 43.815C372.234 43.5969 373.969 42.9424 375.486 42.7243C377.221 43.3787 379.389 44.6876 381.773 46.4328L380.472 64.103H394.781C394.998 66.5026 394.564 70.4293 393.48 72.1745H380.039C378.088 93.7714 376.353 126.712 376.787 130.639C380.256 130.421 388.277 128.021 390.228 127.585C390.879 128.457 391.529 130.639 391.746 132.166C387.627 136.311 375.053 144.818 369.85 144.818C366.164 145.037 358.793 138.492 358.143 133.475Z" fill="white"/>
<path d="M402.802 142.637C403.236 138.492 408.656 116.023 409.089 109.26L409.523 73.0471L400.851 72.829C400.418 71.3019 399.984 68.6841 400.201 67.5934C404.97 64.9756 417.111 60.1763 418.845 60.1763C421.23 60.1763 429.035 64.7574 429.251 66.7208L425.132 98.3525L425.999 98.7888C431.853 86.1361 440.958 65.8482 445.728 61.0489C448.329 60.1763 454.616 60.3944 458.085 61.0489C461.77 62.5759 464.372 65.1937 466.106 68.2478L462.421 95.9529L463.288 96.171C469.358 83.5183 479.331 64.7574 483.233 60.8307C485.835 59.9581 491.905 60.1763 495.157 60.8307C498.626 62.5759 502.745 66.9389 504.479 69.993C501.661 87.0087 498.192 123.222 498.626 130.421L506.647 130.202C506.864 131.075 507.731 133.911 507.948 135.22C505.563 137.62 495.374 144.818 491.905 144.818C488.87 144.818 480.415 137.183 480.198 133.038C481.716 115.15 483.233 93.5532 485.835 76.3194C485.184 75.4468 484.534 75.0105 483.45 74.7923C478.68 80.6824 466.757 99.6614 461.987 109.696C461.554 119.077 461.12 136.311 461.337 140.237C460.253 141.546 451.798 145.037 449.413 145.037C448.329 145.037 441.175 143.946 440.308 142.855C440.958 136.311 444.861 118.204 445.728 108.387L448.329 76.7557C447.679 75.8831 447.028 75.4468 446.161 75.2286C440.525 81.7731 427.734 105.333 425.132 112.969C424.482 119.513 423.831 138.492 424.048 140.674C422.964 141.983 413.859 145.473 411.691 145.255C410.607 145.037 403.67 143.946 402.802 142.637Z" fill="white"/>
<path d="M524.858 142.855C522.256 141.11 516.619 132.384 516.403 128.457C516.186 112.969 523.34 81.3368 531.145 68.2478C534.613 64.5393 541.551 60.3944 544.586 60.3944C549.139 60.3944 557.16 62.1396 562.146 64.3211L562.58 61.267C565.398 60.3944 577.105 59.74 579.923 59.5218L582.525 62.3578C581.007 70.2112 578.406 81.7731 576.672 88.5358C575.588 100.316 575.371 119.513 574.937 130.639L582.959 130.421C583.826 131.73 584.259 134.347 584.259 135.438C581.658 138.056 571.252 145.037 568 145.037C564.748 145.037 555.426 136.311 556.076 132.166L560.412 105.333L559.328 105.115C553.258 118.204 535.914 145.255 531.795 145.255C529.844 145.037 526.809 144.382 524.858 142.855ZM559.978 91.1536L561.279 72.3927C557.16 70.6475 549.789 69.3386 545.887 69.5567C540.684 82.6457 535.047 110.133 535.047 124.749C535.914 125.403 536.565 125.621 537.215 125.621C543.068 118.641 556.293 100.098 559.978 91.1536Z" fill="white"/>
<path d="M591.63 127.803C593.581 119.949 597.917 110.787 602.036 104.243C603.554 104.243 608.54 105.551 610.708 106.86C610.274 112.532 609.407 117.332 608.974 122.349C613.309 126.494 621.764 129.548 630.219 129.548C634.772 129.548 639.108 128.675 643.01 126.494C644.961 122.785 647.129 116.895 647.346 112.314C642.577 107.515 631.954 100.316 620.464 92.8988C608.106 85.2635 597.267 77.8464 596.183 69.5567C597.483 57.5585 607.022 41.8517 613.093 35.7434C617.645 32.9075 625.233 29.4171 630.87 29.4171C635.639 29.4171 650.164 32.253 660.137 38.7975C659.27 47.7417 656.018 58.8674 652.332 65.63C649.731 65.4119 646.262 65.4119 643.877 64.5393C643.444 58.8674 643.444 53.8499 643.01 47.7417C639.975 45.7784 634.122 44.9058 628.268 44.9058C622.632 44.9058 617.645 45.7784 614.177 47.7417C612.225 51.4503 611.141 56.0314 610.491 59.5218C612.442 62.5759 622.632 69.993 634.338 77.4101C644.745 84.1728 656.451 91.3717 659.703 99.2251C659.487 112.75 655.368 125.185 646.696 135.438C641.709 140.237 628.485 144.818 625.016 144.818C612.442 145.037 596.616 137.401 591.63 127.803Z" fill="white"/>
<path d="M692.006 70.2112C691.139 75.0105 690.272 79.8098 689.405 84.6091C695.475 82.4276 701.328 80.4642 707.399 78.2827C708.049 74.5741 709.35 64.9756 709.35 63.8848C703.496 65.8482 697.643 68.0296 692.006 70.2112Z" fill="#C74324"/>
<path d="M695.475 132.82C696.559 128.894 697.643 124.749 698.51 120.822C692.44 122.567 686.369 124.312 680.299 126.058C679.215 130.421 678.131 134.784 676.831 139.147C683.334 136.965 689.405 135.002 695.475 132.82Z" fill="white"/>
<path d="M703.496 98.7888C704.363 95.0803 705.231 90.7173 706.098 86.7906C705.014 86.7906 703.93 87.2269 702.846 87.6632C697.86 88.9721 692.873 90.4991 687.887 92.0262C687.02 96.171 685.936 100.752 684.852 104.679C685.719 104.679 686.586 104.024 687.453 103.806C692.656 102.061 698.076 100.534 703.496 98.7888Z" fill="#C74324"/>
<path d="M680.516 126.058C686.586 124.312 692.657 122.567 698.727 120.822C699.811 116.895 700.895 112.314 701.762 108.387C700.895 108.387 699.594 109.042 698.727 109.26C693.524 110.787 688.104 112.532 682.901 114.277C682.034 118.204 681.383 122.131 680.516 126.058Z" fill="#C74324"/>
<path d="M693.957 56.2495C693.957 55.8132 693.957 55.5951 693.741 55.3769C693.741 54.5043 693.741 53.8499 693.741 52.9773C693.741 52.1047 693.957 51.2321 693.957 50.1413C698.944 47.7417 704.147 45.342 709.133 43.1605C709.35 45.7783 709.566 48.6143 710 51.2321C710 51.6684 710 52.1047 710 52.541C710 53.6317 709.783 54.5043 709.783 55.5951C705.014 57.7766 700.244 60.1762 695.475 62.1396C694.824 62.3577 694.174 62.7941 693.524 63.2303C693.741 60.8307 693.957 58.6492 693.957 56.2495Z" fill="#C74122"/>
<path d="M682.901 114.278C688.104 112.532 693.307 110.787 698.727 109.26C699.594 109.042 700.895 108.606 701.762 108.387C702.412 104.897 702.846 102.279 703.496 98.7888C698.076 100.534 692.656 102.061 687.453 103.806C686.586 104.024 685.719 104.461 684.852 104.679C684.202 107.951 683.551 110.787 682.901 114.278Z" fill="white"/>
<path d="M674.879 37.4887C682.467 34.4346 690.272 31.1623 697.859 28.1082C698.943 27.6719 700.244 27.2356 701.328 26.7993C697.643 23.527 693.74 22.4363 688.537 23.9633C678.998 26.1448 674.879 36.8342 674.879 37.4887Z" fill="white"/>
<path d="M695.475 132.82C689.405 135.002 683.117 137.183 677.047 139.365C676.83 140.237 676.614 143.946 678.131 144.6C681.166 145.691 684.202 146.564 687.237 147.218C689.838 147.654 692.44 145.691 693.524 142.855C694.608 139.365 694.824 136.092 695.475 132.82Z" fill="#C74425"/>
<path d="M671.194 50.3595C671.627 50.1414 671.844 49.9232 672.278 49.7051C672.928 49.4869 673.795 49.2688 674.446 49.0506C674.879 48.8325 675.096 48.8325 675.53 48.6143C676.18 48.3962 677.047 48.178 677.698 47.9599C678.131 47.7417 678.348 47.7417 678.782 47.5236C679.432 47.3054 680.299 47.0873 680.949 46.8691C681.383 46.6509 681.6 46.651 682.033 46.4328C683.551 45.7784 687.887 44.0332 689.405 43.3787C689.405 43.5969 690.922 42.2879 689.188 43.5968C688.321 44.2513 687.67 44.2513 686.803 45.1239C685.502 46.651 685.719 47.9599 685.502 49.7051C685.502 50.1414 685.069 51.6684 685.069 52.1047C684.852 52.9773 684.635 54.0681 684.418 54.9407C679.866 56.6859 675.53 58.6492 670.977 60.3944C670.76 59.9581 670.543 57.5585 670.327 54.9407C670.543 53.4136 670.977 51.8866 671.194 50.3595Z" fill="white"/>
<path d="M682.684 59.9581C682.25 61.0489 681.817 61.9215 681.166 62.7941C680.95 62.7941 680.95 63.0122 680.733 63.0122C677.481 64.5393 673.362 64.7574 670.977 60.1763C675.53 58.4311 679.866 56.4677 684.418 54.7225C683.985 56.6859 683.334 58.4311 682.684 59.9581Z" fill="#C74425"/>
<path d="M672.928 42.7242L674.879 37.4886C682.467 34.4345 690.272 31.1623 697.86 28.1082C698.944 27.6719 700.244 27.2356 701.328 26.7993C704.58 28.9808 705.447 31.8167 706.965 35.9616C700.895 38.3612 694.608 40.979 688.537 43.3787C688.321 43.3787 688.104 43.5968 687.887 43.5968C687.67 43.5968 687.67 43.815 687.453 43.815L686.369 44.2513L682.034 45.9965C681.6 46.2146 681.383 46.2146 680.95 46.4328C680.299 46.6509 679.432 46.8691 678.782 47.0872L677.698 47.5235C677.047 47.7417 676.18 47.9598 675.53 48.178C675.096 48.3961 674.879 48.3961 674.446 48.6143C674.012 48.8324 672.278 49.4869 671.194 50.1413C671.844 47.9598 672.495 45.342 672.928 42.7242Z" fill="#C74122"/>
<path d="M694.174 48.6143C694.174 48.3962 694.174 48.3962 694.174 48.178C694.174 45.9965 693.524 44.4694 691.356 43.815C690.489 43.5968 689.621 43.3787 688.971 43.3787C695.041 40.979 701.328 38.3612 707.398 35.9616C708.049 37.7068 708.699 39.6701 709.349 43.1605C704.363 45.5602 699.16 47.7417 694.174 50.1413C693.957 49.7051 694.174 49.0506 694.174 48.6143Z" fill="white"/>
<path d="M707.398 78.2827C706.965 81.3368 706.531 83.9546 706.098 87.0087C705.014 87.0087 703.93 87.445 702.846 87.8813C697.859 89.1902 692.873 90.7173 687.887 92.2443C688.537 89.8447 688.971 87.2269 689.621 84.8272C695.258 82.4276 701.328 80.2461 707.398 78.2827Z" fill="white"/>
<path d="M693.307 63.2304C693.957 62.7941 694.824 62.3578 695.258 62.1396C700.027 59.9581 704.797 57.7766 709.566 55.5951C709.35 58.4311 709.35 61.0489 709.133 63.8848C703.279 66.0663 697.643 68.0297 691.789 70.2112C691.789 69.993 691.789 69.7749 691.789 69.5567C692.656 67.5934 693.09 65.4119 693.307 63.2304Z" fill="white"/>
</g>
<path d="M10.0386 9.5329C10.9512 9.5329 11.8638 9.5329 12.7764 9.5329C13.9172 9.5329 15.058 9.5329 16.1987 9.5329H16.4269C16.8832 9.5329 17.5676 9.5329 17.5676 10.2138C17.5676 10.8947 17.3395 11.3487 16.655 11.3487C15.7424 11.5757 14.8298 11.8026 13.9172 11.8026C12.7764 12.0296 11.4075 12.2566 10.0386 12.4836C10.0386 13.1645 10.0386 14.0724 10.0386 14.7533C10.0386 16.5691 9.81049 18.6118 9.81049 20.4276C9.81049 20.6546 9.81049 20.6546 9.81049 20.8816C9.81049 21.3355 9.58234 21.7895 8.89788 22.0164C8.44158 22.0164 7.98528 21.7895 7.98528 21.1086C7.75713 20.6546 7.75713 20.2007 7.52898 19.7467C7.30083 17.7039 7.07268 15.4342 6.84453 13.3914C6.84453 13.1645 6.84453 12.9375 6.84453 12.7105C5.47562 12.7105 4.33487 12.7105 2.96596 12.7105C2.28151 12.7105 1.59706 12.7105 0.912603 12.4836C0.456302 12.2566 0 12.2566 0 11.3487C0 10.6678 0.456302 10.4408 0.912603 10.4408C2.50966 10.2138 4.10672 9.98684 5.70377 9.75987C6.16007 9.75987 6.38822 9.75987 6.84453 9.5329C6.84453 9.30592 6.84453 9.07895 6.84453 8.625C6.84453 6.12829 7.07268 3.63158 7.07268 1.13487V0.907895C7.30083 0.453947 7.52898 0 7.98528 0C8.44158 0 8.89788 0.226974 8.89788 0.680921C9.12603 2.04276 9.35418 3.17763 9.58234 4.53947C9.81049 6.12829 9.81049 7.71711 10.0386 9.5329Z" fill="#FFE0BF"/>
<path d="M547.563 165C548.476 165.681 548.247 166.589 548.476 167.497C548.476 167.951 548.476 168.178 548.476 168.859C549.16 168.859 549.616 169.086 550.073 169.086C550.301 169.086 550.529 169.086 550.757 169.086C551.213 169.086 551.442 169.313 551.442 169.766C551.442 170.22 551.213 170.674 550.757 170.674C550.073 170.674 549.388 170.901 548.704 170.901C548.704 171.582 548.476 172.49 548.476 173.398C548.476 174.079 548.019 174.533 547.335 174.306C547.107 174.079 546.65 173.852 546.65 173.398C546.422 173.171 546.65 172.717 546.65 172.263C546.65 171.809 546.422 171.355 546.422 170.901C545.51 170.901 544.597 170.674 543.913 170.674C543.456 170.674 543.228 170.22 543 169.766C543 169.313 543.228 168.859 543.684 168.859C544.597 168.632 545.282 168.632 546.422 168.632C546.422 168.178 546.422 167.724 546.422 167.27C546.194 166.362 546.65 165.681 547.563 165Z" fill="white"/>
<path d="M236.167 121.263C235.483 121.263 235.027 121.036 234.342 121.036C233.886 121.036 233.201 121.036 232.745 120.809C232.517 120.582 232.061 120.128 232.061 119.901C231.833 119.447 232.289 119.22 232.745 119.22C233.43 118.993 234.114 118.993 234.57 118.993C235.027 118.993 235.483 118.993 235.939 118.993C235.939 117.632 236.167 116.497 236.167 115.362C236.167 115.135 236.167 114.908 236.167 114.681C236.167 114.227 236.396 114 237.08 114C237.536 114 237.764 114.227 237.993 114.681C238.221 115.589 238.221 116.497 238.449 117.405C238.449 117.859 238.677 118.539 238.677 118.993C239.818 118.993 240.959 119.22 241.871 119.22C242.327 119.22 242.784 119.22 242.784 119.901C242.784 120.582 242.556 120.809 241.871 121.036C240.73 121.263 239.59 121.49 238.449 121.49C238.449 122.398 238.221 123.533 238.221 124.441C238.221 124.668 238.221 124.895 238.221 125.122C237.993 125.576 237.764 126.03 237.308 126.03C236.624 126.03 236.396 125.576 236.396 125.122C236.167 124.214 236.167 123.306 236.167 122.171C236.396 121.717 236.396 121.49 236.167 121.263Z" fill="#FFE0BF"/>
<path d="M737.384 42.898C736.699 42.898 736.243 42.671 735.558 42.671C735.102 42.671 734.418 42.671 733.961 42.4441C733.733 42.2171 733.277 41.7632 733.277 41.5362C733.049 41.0822 733.505 40.8553 733.961 40.8553C734.646 40.6283 735.33 40.6283 735.787 40.6283C736.243 40.6283 736.699 40.6283 737.156 40.6283C737.156 39.2664 737.384 38.1316 737.384 36.9967C737.384 36.7697 737.384 36.5428 737.384 36.3158C737.384 35.8618 737.612 35.6349 738.296 35.6349C738.753 35.6349 738.981 35.8618 739.209 36.3158C739.437 37.2237 739.437 38.1316 739.665 39.0395C739.665 39.4934 739.893 40.1743 739.893 40.6283C741.034 40.6283 742.175 40.8553 743.087 40.8553C743.544 40.8553 744 40.8553 744 41.5362C744 42.2171 743.772 42.4441 743.087 42.671C741.947 42.898 740.806 43.125 739.665 43.125C739.665 44.0329 739.437 45.1678 739.437 46.0757C739.437 46.3026 739.437 46.5296 739.437 46.7566C739.209 47.2105 738.981 47.6645 738.524 47.6645C737.84 47.6645 737.612 47.2105 737.612 46.7566C737.384 45.8487 737.384 44.9408 737.384 43.8059C737.384 43.125 737.384 43.125 737.384 42.898Z" fill="#FFE0BF"/>
<defs>
<clipPath id="clip0">
<rect width="679" height="125" fill="white" transform="translate(31 22)"/>
</clipPath>
</defs>
</svg>
