<svg width="102" height="51" viewBox="0 0 102 51" fill="none" xmlns="http://www.w3.org/2000/svg">
<g clip-path="url(#clip0)">
<path d="M1.17539 28.4183L21.9938 49.8054C23.5477 51.4094 26.0777 51.4094 27.6316 49.7848C29.1855 48.1808 29.1855 45.5691 27.6117 43.9651L13.6266 29.6111L98.0156 29.6111C100.207 29.6111 102 27.7602 102 25.4981C102 23.2361 100.207 21.3852 98.0156 21.3852L13.6266 21.3853L27.6117 7.03123C29.1656 5.4272 29.1855 2.8155 27.6316 1.21147C26.0777 -0.392556 23.5476 -0.413117 21.9937 1.19091L1.17539 22.578C-0.39844 24.2026 -0.378519 26.8143 1.17539 28.4183Z" fill="white"/>
</g>
<defs>
<clipPath id="clip0">
<rect width="102" height="51" fill="white" transform="translate(102 51) rotate(180)"/>
</clipPath>
</defs>
</svg>
