<svg width="215" height="42" viewBox="0 0 215 42" fill="none" xmlns="http://www.w3.org/2000/svg">
<g clip-path="url(#clip0)">
<path d="M69.315 0.0674157C69.315 0.0674157 69.452 11.9326 69.315 17.3933C69.315 20.3596 69.315 22.382 69.315 24.6067C69.5205 30.2022 67.3287 40.0449 53.5616 40.0449C43.4246 40.0449 37.8082 32.5618 37.8082 24.6067C37.8082 21.7753 37.8082 19.618 37.8082 16.7865C37.8082 12.2022 37.8082 2.29213 37.8082 1.88764H43.4931C43.4931 2.76405 43.4931 18.6742 43.4931 24.6067C43.4931 28.4494 45.4109 34.5169 53.6301 34.5169C61.8493 34.5169 63.7671 30.7416 63.7671 24.6067C63.7671 19.9551 63.7671 14.6966 63.7671 9.30337C63.7671 6.74157 63.7671 4.17978 63.7671 1.88764C64.6575 1.88764 64.7945 1.88764 65.6849 1.88764C65.6849 3.30337 65.8219 18.6742 65.6849 24.6067C65.6849 28.0449 65.6849 36.3371 53.6986 36.3371C45.4794 36.3371 41.7123 30.7416 41.7123 24.6067C41.7123 10.4494 41.7808 9.8427 41.7123 7.41573C41.7123 6.8764 41.7123 3.70787 41.7123 3.70787H39.7945C39.7945 3.70787 39.7945 19.5506 39.7945 24.5393C39.7945 30.6742 43.5616 38.1573 53.6986 38.1573C65.6849 38.1573 67.8082 30 67.6712 24.5393C67.8082 18.6067 67.6712 13.2135 67.6712 6.80899C67.6712 4.92135 67.6712 0 67.6712 0H61.9863C61.9863 0 61.9863 6.20225 61.9863 9.23596C61.9863 14.6292 61.9863 19.8876 61.9863 24.5393C61.9863 27.7079 61.9863 32.5618 53.7671 32.5618C51.1644 32.5618 45.5479 30.6742 45.5479 24.5393C45.5479 18.6067 45.5479 0 45.5479 0L35.8904 0.0674157V1.14607C35.8904 1.14607 35.8904 2.22472 35.8904 3.64045C35.9589 8.29214 35.8904 13.0787 35.8904 17.6629C35.8904 20.4944 35.8904 21.7753 35.8904 24.6067C35.8904 32.6292 41.5753 41.9326 53.5616 41.9326C66.9178 41.9326 71.3013 33.5056 71.3013 24.6067C71.3013 22.3146 71.3013 18.8764 71.3013 16.7865C71.3698 11.3933 71.3013 0 71.3013 0H69.315V0.0674157Z" fill="#064A42"/>
<path d="M95.6164 0.0673828H85.4109H83.5616V18.6741C83.5616 18.6741 83.8355 18.6741 95.6164 18.6741C103.151 18.6741 104.11 7.48311 95.6164 7.48311C92.4657 7.48311 89.3835 7.48311 89.178 7.48311H87.2602V14.9663H89.178C89.178 14.9663 89.178 10.4494 89.178 9.30334C90.8218 9.30334 94.3835 9.30334 95.6164 9.30334C101.301 9.30334 101.301 16.7865 95.6164 16.7865C90.3424 16.7865 85.4794 16.7865 85.4109 16.7865C85.4109 12.9438 85.4109 4.71907 85.4109 1.88761C87.9451 1.82019 93.0821 1.88761 95.6164 1.88761C111.233 1.88761 111.301 24.2696 95.6164 24.2696H87.3287V38.1573V40.0449H81.7122V0.0673828H79.7944V38.1573V41.9325H89.178V26.2247C90.3424 26.2247 95.5479 26.2247 95.6164 26.2247C113.699 26.2247 113.836 0.0673828 95.6164 0.0673828Z" fill="#064A42"/>
<path d="M143.904 32.6291C143.904 32.6291 130.891 32.6291 126.096 32.6291V28.0449H124.178V34.5168C124.178 34.5168 138.767 34.5168 141.986 34.5168V36.0673C141.986 36.1348 142.055 38.0898 141.986 40.1123C141.986 40.1123 141.986 40.1123 118.493 40.1123V0.134766H116.575V10.4494C116.575 18.8089 116.575 27.2359 116.575 35.5954V41.9999H117.671H119.658C119.658 41.9999 140.685 41.9999 140.822 41.9999H143.836V40.9887C143.904 39.4381 143.836 34.6516 143.836 34.3145V32.6291H143.904Z" fill="#064A42"/>
<path d="M180.343 25.8202L178.63 26.6291C178.63 26.6291 184.041 37.0786 185.548 40.1123H179.521L171.302 24.337H163.288V38.2247V40.1123C161.712 40.1123 159.247 40.1123 157.603 40.1123C157.603 39.573 157.603 0.134766 157.603 0.134766H155.685V41.9999H156.712C157.808 41.9999 165.137 41.9999 165.137 41.9999V38.2921V26.2247H170.069L178.493 41.9325H188.493L187.534 40.0449C187.397 39.6404 180.343 25.8202 180.343 25.8202Z" fill="#064A42"/>
<path d="M140.137 26.2248V16.854C140.137 16.854 128.562 16.854 126.096 16.854C126.096 16.854 126.096 16.5844 126.096 5.66303C126.986 5.66303 140.137 5.66303 140.137 5.66303V3.77539H124.178V18.6743H138.219C138.219 20.3597 138.219 24.2698 138.219 24.2698C129.589 24.2698 120.411 24.2698 120.411 24.2698V38.1574C120.411 38.1574 138.699 38.1574 140.137 38.1574V36.2698C138.767 36.2698 125.479 36.2698 122.329 36.2698C122.329 35.5282 122.329 26.6293 122.329 26.09H140.137V26.2248Z" fill="#064A42"/>
<path d="M161.438 1.95502C161.438 1.95502 167.534 1.95502 171.301 1.95502C182.877 1.88761 185.685 15.1685 180.137 20.6966C179.11 21.7078 178.562 22.1797 176.986 22.9887C175.48 23.7303 173.493 24.4045 173.493 24.4045L180.685 38.2921H182.74L176.164 25.4157C189.452 22.1797 188.562 0.134799 171.438 0.202214L159.589 0.0673828V38.2247H161.507L161.438 1.95502Z" fill="#064A42"/>
<path d="M120.411 19.6854V22.4494H136.37V20.5618C122.192 20.5618 125.206 20.5618 122.329 20.5618C122.329 20.5618 122.329 2.22469 122.329 1.95502H142.055V7.48311H128.014V9.37075C131.165 9.37075 143.973 9.37075 143.973 9.37075V0.0673828H120.48L120.548 1.75278C120.548 1.75278 120.548 1.95502 120.548 3.84266C120.343 9.50559 120.343 14.6966 120.411 19.6854Z" fill="#064A42"/>
<path d="M171.301 5.59548C181.507 5.59548 181.918 20.4944 171.301 20.4944H163.288V22.382H171.301C184.52 22.382 183.973 3.77526 171.301 3.77526C169.383 3.64043 165.479 3.77526 165.205 3.77526H163.288V9.30335H171.301C176.918 9.30335 176.918 16.7865 171.301 16.7865C169.863 16.7865 169.041 16.7865 168.562 16.7865C168.082 16.7865 167.945 16.7865 167.945 16.7865C167.466 16.7865 166.575 16.7865 165.205 16.7865V13.0112H163.288V18.6741H171.301C179.452 18.6741 179.315 7.48312 171.301 7.48312C170.89 7.48312 165.548 7.48312 165.205 7.48312C165.205 6.74155 165.205 6.20222 165.205 5.59548C166.918 5.59548 171.301 5.59548 171.301 5.59548Z" fill="#064A42"/>
<path d="M95.6163 22.3821C108.835 22.3821 108.835 3.77539 95.6163 3.77539C94.178 3.77539 87.3286 3.77539 87.3286 3.77539V5.59562C87.3286 5.59562 94.2465 5.5282 95.6163 5.59562C106.301 5.59562 106.164 20.4945 95.6163 20.4945C94.8629 20.4945 83.5615 20.4945 83.5615 20.4945V38.1574H85.4108C85.4108 38.1574 85.4108 24.3372 85.4108 22.3147C85.4108 22.3821 94.8629 22.3821 95.6163 22.3821Z" fill="#064A42"/>
<path d="M9.38356 3.236C12.2603 2.08993 15.3425 1.9551 18.3562 2.8315C22.3288 3.84274 27.7397 6.47195 27.7397 6.47195L28.6986 4.65173C28.6986 4.65173 23.2192 1.88768 18.9726 0.809029C15.4795 -0.202207 11.9863 -0.0673755 8.63014 1.28094C4.72603 2.76409 2.12329 5.73038 0.958904 10.045C-0.410959 15.0337 2.39726 19.8203 5.54795 22.1798C7.94521 24 10.6849 25.0113 12.7397 25.6854C14.0411 26.0899 15.4795 26.6293 16.7123 27.4382C17.6712 28.045 18.0137 28.9214 17.8082 30.3371C17.7397 30.8764 16.5753 31.7528 15.3425 31.7528C13.1507 31.7528 4.65753 28.7191 4.45205 28.6517L3.42466 28.2472L0 37.4158L0.958904 37.8203C1.16438 37.8877 6.57534 40.2472 9.10959 40.9214C10.6849 41.3933 12.3973 41.7978 14.2466 41.7978H14.3151C20.6164 41.7304 24.9315 39.1012 27.2603 33.8427C28.6986 30.5394 28.6986 25.2135 25.137 21.4382C23.4932 19.618 21.3014 18.2697 18.4247 17.1236C17.6712 16.854 16.9863 16.5843 16.2329 16.3821C15.137 16.045 14.1781 15.7079 13.1507 15.236C12.3288 14.8315 11.6438 14.3596 11.2329 13.6854C10.8219 13.1461 10.7534 12.4045 11.0274 11.7304C11.3014 10.9888 11.9863 10.5169 12.7397 10.3821C15 9.97757 17.1918 10.5169 19.726 11.4607C20.7534 11.8652 23.6301 12.9439 23.6301 12.9439L24.5205 13.2809L27.0548 7.9551L26.0274 7.5506C25.8219 7.48319 17.4658 3.03375 11.5068 4.38206C7.73973 4.92139 0 11.7304 8.0137 19.0787C9.93151 20.4944 11.9863 21.236 14.0411 21.9776C14.5205 22.1124 15 22.3146 15.4795 22.4495C17.1918 23.0562 18.4247 23.663 19.5205 24.4045C21.8493 25.9551 22.1233 28.2472 22.0548 29.4607C21.9178 31.7528 20.6849 33.7753 18.8356 34.7191C17.0548 35.7978 14.7945 36.3371 11.2329 35.2585C10.2055 34.9888 5.68493 33.5057 5.68493 33.5057L5 35.3933C5 35.3933 9.31507 36.9439 10.7534 37.2809C14.0411 38.0899 16.5068 38.2922 19.863 36.6068C22.3288 35.3259 24.0411 32.5618 24.1781 29.5955C24.3151 26.7641 23.0822 24.2697 20.7534 22.7191C19.5205 21.9102 18.1507 21.236 16.3014 20.5618C15.8219 20.3596 15.3425 20.2248 14.863 20.0225C12.8767 19.3484 11.0274 18.6742 9.45205 17.4607C2.80822 11.663 9.65753 6.80903 12.1233 6.47195C14.9315 5.93262 17.5342 6.60678 19.589 7.28094C20.6849 7.61802 23.0137 8.56184 24.3151 9.10116L23.5616 10.7191C22.6027 10.3821 21.2329 9.84274 20.5479 9.57307C18.0822 8.62925 15.3425 7.88768 12.4658 8.35959C10.9589 8.62925 9.72603 9.57307 9.10959 10.9888C8.56164 12.3371 8.69863 13.8203 9.52055 14.9663C10.2055 15.9102 11.0959 16.5843 12.2603 17.1911C13.3562 17.7304 14.4521 18.0675 15.5479 18.4045C16.2329 18.6742 16.9178 18.8764 17.6027 19.1461C20.2055 20.1573 22.1233 21.3708 23.5616 22.9214C26.3014 25.8877 26.5069 30.3371 25.274 33.1012C23.2877 37.618 19.726 39.7753 14.2466 39.8427C10.2055 39.6405 4.31507 37.0787 2.67123 36.4045L4.65753 31.0787C5.89041 31.5506 12.1918 34.1124 15.274 33.9776C17.4658 33.9102 19.589 32.427 19.863 30.7416C20.2055 28.5169 19.5205 26.8315 17.8082 25.8203C16.3699 24.9439 14.7945 24.3371 13.3562 23.8652C10.4795 22.9214 8.49315 21.9776 6.78082 20.6967C4.24657 18.5394 1.91781 14.6293 3.0137 10.5843C4.0411 6.87644 6.09589 4.51689 9.38356 3.236Z" fill="#064A42"/>
<path d="M206.096 42C205.822 42 205.548 42 205.411 42H204.315V38.1573C204.315 38.1573 204.315 21.3708 204.315 13.8202V12.7415H206.438V13.8202C206.438 21.3033 206.438 38.1573 206.438 38.1573V39.9101C208.151 39.9101 211.164 39.9101 212.808 39.9101C212.808 39.7078 212.808 39.4382 212.808 39.1685C212.808 38.8988 212.808 38.3595 212.808 38.3595C212.808 38.1573 212.808 14.6966 212.808 3.10109V2.35952H208.493C207.055 3.30334 201.644 6.87637 199.795 8.02244V10.8539C201.027 10.0449 203.219 8.56176 206.918 5.99997L207.192 5.79772H210.822V38.2921H208.63V7.88761H207.877C200.137 13.146 199.315 13.6179 199.247 13.6854L197.603 14.6966V6.67412L198.151 6.33705C198.767 5.99997 204.11 2.49435 207.534 0.26963L207.808 0.0673828H215V2.96626C214.932 14.5618 215 38.0224 215 38.2247C215 38.2247 215 38.764 215 38.9663C215 40.382 215 40.8539 215 40.8539V41.9326H213.904C213.973 42 208.288 42 206.096 42Z" fill="#064A42"/>
<path d="M201.781 14.5619H205.959V12.8091H204.383L201.781 14.5619Z" fill="#064A42"/>
</g>
<defs>
<clipPath id="clip0">
<rect width="215" height="42" fill="white"/>
</clipPath>
</defs>
</svg>
