<svg width="174" height="34" viewBox="0 0 174 34" fill="none" xmlns="http://www.w3.org/2000/svg">
<g clip-path="url(#clip0)">
<path d="M56.0969 0.0545746C56.0969 0.0545746 56.2077 9.65971 56.0969 14.0803C56.0969 16.4815 56.0969 18.1188 56.0969 19.9197C56.2632 24.4494 54.4893 32.4173 43.3476 32.4173C35.1437 32.4173 30.5983 26.3596 30.5983 19.9197C30.5983 17.6276 30.5983 15.8812 30.5983 13.5891C30.5983 9.87801 30.5983 1.85554 30.5983 1.52809H35.1991C35.1991 2.23756 35.1991 15.1172 35.1991 19.9197C35.1991 23.0305 36.7512 27.9422 43.403 27.9422C50.0548 27.9422 51.6069 24.886 51.6069 19.9197C51.6069 16.1541 51.6069 11.8973 51.6069 7.5313C51.6069 5.45746 51.6069 3.38363 51.6069 1.52809C52.3275 1.52809 52.4384 1.52809 53.159 1.52809C53.159 2.67416 53.2698 15.1172 53.159 19.9197C53.159 22.703 53.159 29.4157 43.4584 29.4157C36.8066 29.4157 33.7579 24.886 33.7579 19.9197C33.7579 8.45907 33.8133 7.9679 33.7579 6.00321C33.7579 5.56661 33.7579 3.00161 33.7579 3.00161H32.2058C32.2058 3.00161 32.2058 15.8266 32.2058 19.8652C32.2058 24.8315 35.2546 30.8892 43.4584 30.8892C53.159 30.8892 54.8774 24.2857 54.7665 19.8652C54.8774 15.0626 54.7665 10.6966 54.7665 5.51204C54.7665 3.98395 54.7665 0 54.7665 0H50.1657C50.1657 0 50.1657 5.02087 50.1657 7.47673C50.1657 11.8427 50.1657 16.0995 50.1657 19.8652C50.1657 22.4302 50.1657 26.3596 43.5139 26.3596C41.4075 26.3596 36.8621 24.8315 36.8621 19.8652C36.8621 15.0626 36.8621 0 36.8621 0L29.0462 0.0545746V0.927769C29.0462 0.927769 29.0462 1.80096 29.0462 2.94703C29.1016 6.71268 29.0462 10.5875 29.0462 14.2986C29.0462 16.5907 29.0462 17.6276 29.0462 19.9197C29.0462 26.4141 33.647 33.9454 43.3476 33.9454C54.1567 33.9454 57.7044 27.1236 57.7044 19.9197C57.7044 18.0642 57.7044 15.2809 57.7044 13.5891C57.7598 9.22311 57.7044 0 57.7044 0H56.0969V0.0545746Z" fill="white"/>
<path d="M77.3826 0.0545654H69.1233H67.6266V15.1172C67.6266 15.1172 67.8484 15.1172 77.3826 15.1172C83.4801 15.1172 84.2561 6.05778 77.3826 6.05778C74.8327 6.05778 72.3383 6.05778 72.172 6.05778H70.6199V12.1156H72.172C72.172 12.1156 72.172 8.45906 72.172 7.53129C73.5024 7.53129 76.3848 7.53129 77.3826 7.53129C81.9834 7.53129 81.9834 13.5891 77.3826 13.5891C73.1144 13.5891 69.1787 13.5891 69.1233 13.5891C69.1233 10.4783 69.1233 3.82022 69.1233 1.52808C71.1742 1.47351 75.3316 1.52808 77.3826 1.52808C90.021 1.52808 90.0764 19.6469 77.3826 19.6469H70.6754V30.8892V32.4173H66.13V0.0545654H64.5779V30.8892V33.9454H72.172V21.2295C73.1144 21.2295 77.3272 21.2295 77.3826 21.2295C92.0165 21.2295 92.1274 0.0545654 77.3826 0.0545654Z" fill="white"/>
<path d="M116.462 26.4141C116.462 26.4141 105.93 26.4141 102.05 26.4141V22.703H100.498V27.9422C100.498 27.9422 112.305 27.9422 114.91 27.9422V29.1974C114.91 29.252 114.965 30.8347 114.91 32.4719C114.91 32.4719 114.91 32.4719 95.8968 32.4719V0.109131H94.3447V8.45905C94.3447 15.2263 94.3447 22.0481 94.3447 28.8154V34H95.2316H96.8391C96.8391 34 113.857 34 113.967 34H116.406V33.1814C116.462 31.9261 116.406 28.0513 116.406 27.7785V26.4141H116.462Z" fill="white"/>
<path d="M145.952 20.9021L144.566 21.557C144.566 21.557 148.945 30.016 150.164 32.4719H145.286L138.635 19.7014H132.149V30.9438V32.4719C130.874 32.4719 128.879 32.4719 127.548 32.4719C127.548 32.0353 127.548 0.109131 127.548 0.109131H125.996V34H126.828C127.715 34 133.646 34 133.646 34V30.9984V21.2295H137.637L144.455 33.9454H152.548L151.772 32.4173C151.661 32.0899 145.952 20.9021 145.952 20.9021Z" fill="white"/>
<path d="M113.413 21.2296V13.6437C113.413 13.6437 104.045 13.6437 102.05 13.6437C102.05 13.6437 102.05 13.4254 102.05 4.5843C102.77 4.5843 113.413 4.5843 113.413 4.5843V3.05621H100.498V15.1172H111.861C111.861 16.4816 111.861 19.6469 111.861 19.6469C104.877 19.6469 97.4489 19.6469 97.4489 19.6469V30.8893C97.4489 30.8893 112.249 30.8893 113.413 30.8893V29.3612C112.305 29.3612 101.551 29.3612 99.0009 29.3612C99.0009 28.7609 99.0009 21.557 99.0009 21.1204H113.413V21.2296Z" fill="white"/>
<path d="M130.652 1.58266C130.652 1.58266 135.586 1.58266 138.635 1.58266C148.003 1.52808 150.275 12.2793 145.785 16.7544C144.954 17.573 144.51 17.955 143.235 18.6099C142.016 19.2103 140.408 19.756 140.408 19.756L146.229 30.9984H147.892L142.57 20.5746C153.324 17.955 152.603 0.10914 138.745 0.163715L129.156 0.0545654V30.9438H130.708L130.652 1.58266Z" fill="white"/>
<path d="M97.4489 15.9358V18.1733H110.364V16.6453C98.8901 16.6453 101.329 16.6453 99.001 16.6453C99.001 16.6453 99.001 1.80095 99.001 1.58266H114.965V6.05778H103.602V7.58587C106.152 7.58587 116.517 7.58587 116.517 7.58587V0.0545654H97.5043L97.5597 1.41893C97.5597 1.41893 97.5597 1.58266 97.5597 3.11075C97.3934 7.69501 97.3934 11.8973 97.4489 15.9358Z" fill="white"/>
<path d="M138.635 4.52972C146.894 4.52972 147.226 16.5907 138.635 16.5907H132.149V18.1188H138.635C149.333 18.1188 148.889 3.0562 138.635 3.0562C137.082 2.94705 133.923 3.0562 133.701 3.0562H132.149V7.53132H138.635C143.18 7.53132 143.18 13.5891 138.635 13.5891C137.47 13.5891 136.805 13.5891 136.417 13.5891C136.029 13.5891 135.918 13.5891 135.918 13.5891C135.53 13.5891 134.81 13.5891 133.701 13.5891V10.5329H132.149V15.1172H138.635C145.231 15.1172 145.12 6.05781 138.635 6.05781C138.302 6.05781 133.978 6.05781 133.701 6.05781C133.701 5.45749 133.701 5.02089 133.701 4.52972C135.087 4.52972 138.635 4.52972 138.635 4.52972Z" fill="white"/>
<path d="M77.3826 18.1188C88.0809 18.1188 88.0809 3.05621 77.3826 3.05621C76.2186 3.05621 70.6754 3.05621 70.6754 3.05621V4.52973C70.6754 4.52973 76.274 4.47515 77.3826 4.52973C86.03 4.52973 85.9191 16.5907 77.3826 16.5907C76.7729 16.5907 67.6266 16.5907 67.6266 16.5907V30.8893H69.1233C69.1233 30.8893 69.1233 19.7015 69.1233 18.0642C69.1233 18.1188 76.7729 18.1188 77.3826 18.1188Z" fill="white"/>
<path d="M7.59414 2.61962C9.92227 1.69185 12.4167 1.5827 14.8557 2.29217C18.0707 3.11079 22.4498 5.2392 22.4498 5.2392L23.2259 3.76569C23.2259 3.76569 18.7913 1.52813 15.3546 0.654934C12.5276 -0.163686 9.70054 -0.0545363 6.98439 1.03696C3.82479 2.2376 1.71838 4.63888 0.776043 8.13166C-0.33259 12.1702 1.94011 16.045 4.48997 17.9551C6.43007 19.4286 8.64734 20.2472 10.3103 20.793C11.3635 21.1204 12.5276 21.557 13.5253 22.2119C14.3014 22.7031 14.5785 23.4126 14.4122 24.5586C14.3568 24.9952 13.4145 25.7047 12.4167 25.7047C10.6429 25.7047 3.76935 23.2488 3.60306 23.1943L2.77158 22.8668L0 30.289L0.776043 30.6164C0.942338 30.671 5.32144 32.5811 7.37241 33.1268C8.64734 33.5089 10.0331 33.8363 11.5298 33.8363H11.5852C16.6849 33.7817 20.1771 31.6533 22.0618 27.3965C23.2259 24.7223 23.2259 20.411 20.3434 17.3548C19.0131 15.8813 17.2392 14.7898 14.9111 13.862C14.3014 13.6437 13.7471 13.4254 13.1373 13.2617C12.2504 12.9888 11.4744 12.7159 10.6429 12.3339C9.9777 12.0065 9.42338 11.6244 9.09079 11.0787C8.7582 10.6421 8.70277 10.0418 8.9245 9.49603C9.14623 8.8957 9.70054 8.51368 10.3103 8.40453C12.1395 8.07708 13.9133 8.51368 15.9643 9.27773C16.7958 9.60518 19.1239 10.4784 19.1239 10.4784L19.8445 10.7512L21.8955 6.43985L21.064 6.1124C20.8977 6.05782 14.1351 2.4559 9.31252 3.54739C6.26378 3.98399 0 9.49603 6.48551 15.4447C8.03759 16.5907 9.70054 17.191 11.3635 17.7914C11.7515 17.9005 12.1395 18.0642 12.5276 18.1734C13.9133 18.6646 14.9111 19.1557 15.798 19.7561C17.6827 21.0113 17.9044 22.8668 17.849 23.8492C17.7381 25.7047 16.7404 27.3419 15.2437 28.106C13.8025 28.9792 11.9732 29.4158 9.09079 28.5426C8.25932 28.3243 4.60083 27.1236 4.60083 27.1236L4.04651 28.6517C4.04651 28.6517 7.53871 29.9069 8.70277 30.1798C11.3635 30.8347 13.359 30.9984 16.0752 29.6341C18.0707 28.5971 19.4565 26.3596 19.5674 23.9583C19.6782 21.6662 18.6805 19.6469 16.7958 18.3917C15.798 17.7368 14.6894 17.191 13.1927 16.6453C12.8047 16.4816 12.4167 16.3724 12.0287 16.2087C10.4212 15.663 8.9245 15.1172 7.64957 14.1349C2.2727 9.44145 7.81587 5.51208 9.81141 5.2392C12.0841 4.80261 14.1905 5.34835 15.8535 5.8941C16.7404 6.16697 18.625 6.93102 19.6782 7.36761L19.0685 8.67741C18.2925 8.40453 17.1838 7.96794 16.6295 7.74964C14.634 6.98559 12.4167 6.38527 10.0886 6.76729C8.86907 6.98559 7.8713 7.74964 7.37241 8.8957C6.92896 9.9872 7.03982 11.1878 7.705 12.1156C8.25932 12.8797 8.97993 13.4254 9.92227 13.9166C10.8092 14.3532 11.6961 14.626 12.583 14.8989C13.1373 15.1172 13.6916 15.2809 14.2459 15.4992C16.3523 16.3179 17.9044 17.3002 19.0685 18.5554C21.2858 20.9567 21.4521 24.5586 20.4543 26.7962C18.8468 30.4527 15.9643 32.1991 11.5298 32.2536C8.25932 32.0899 3.4922 30.0161 2.16184 29.4703L3.76935 25.1589C4.76712 25.541 9.86684 27.6148 12.3613 27.5057C14.1351 27.4511 15.8535 26.2504 16.0752 24.8861C16.3523 23.0851 15.798 21.7207 14.4122 20.9021C13.2482 20.1927 11.9732 19.7015 10.8092 19.3195C8.48105 18.5554 6.87353 17.7914 5.48774 16.7545C3.43676 15.0081 1.55209 11.8427 2.43899 8.56826C3.27047 5.56665 4.93342 3.65654 7.59414 2.61962Z" fill="white"/>
<path d="M166.794 34C166.572 34 166.35 34 166.24 34H165.353V30.8892C165.353 30.8892 165.353 17.3002 165.353 11.1878V10.3146H167.071V11.1878C167.071 17.2456 167.071 30.8892 167.071 30.8892V32.3082C168.457 32.3082 170.896 32.3082 172.226 32.3082C172.226 32.1445 172.226 31.9262 172.226 31.7079C172.226 31.4896 172.226 31.053 172.226 31.053C172.226 30.8892 172.226 11.8973 172.226 2.51042V1.9101H168.734C167.57 2.67415 163.191 5.5666 161.694 6.49437V8.78651C162.692 8.13161 164.466 6.93097 167.459 4.85713L167.681 4.69341H170.619V30.9984H168.845V6.38522H168.235C161.971 10.642 161.306 11.0241 161.251 11.0786L159.92 11.8973V5.40288L160.364 5.13001C160.863 4.85713 165.186 2.01925 167.958 0.218289L168.18 0.0545654H174V2.40127C173.945 11.7881 174 30.7801 174 30.9438C174 30.9438 174 31.3804 174 31.5441C174 32.6902 174 33.0722 174 33.0722V33.9454H173.113C173.169 34 168.568 34 166.794 34Z" fill="white"/>
<path d="M163.302 11.7881H166.683V10.3691H165.408L163.302 11.7881Z" fill="white"/>
</g>
<defs>
<clipPath id="clip0">
<rect width="174" height="34" fill="white"/>
</clipPath>
</defs>
</svg>
