<svg width="147" height="712" viewBox="0 0 147 712" fill="none" xmlns="http://www.w3.org/2000/svg">
<g clip-path="url(#clip0)">
<path d="M137.109 585.72C130.661 575.129 121.862 566.71 111.48 559.813C105.195 555.63 98.5283 552.589 91.0963 550.579C83.1179 549.439 75.0848 548.733 66.997 548.298C64.21 548.57 61.0405 548.95 57.871 549.384C48.8543 550.688 40.4387 553.729 32.5695 558.455C25.0829 562.963 18.9625 568.883 13.5524 575.564C10.6561 579.148 7.9238 582.95 5.90186 587.024C1.20224 596.366 -0.546463 606.414 0.163946 616.842C0.655767 624.12 1.7487 631.235 4.48105 638.079C10.3829 652.907 19.9461 664.747 33.1706 673.763C39.1271 677.837 44.8651 682.127 50.6576 686.418C56.8874 691.035 61.8056 696.792 65.3576 703.636C66.1227 705.048 66.8331 706.569 67.8167 707.818C72.0245 713.304 76.1231 713.521 79.8937 707.981C81.697 705.319 83.3911 702.495 84.9212 699.616C89.6208 690.818 96.7796 684.137 104.375 678C110.332 673.22 116.835 669.201 122.737 664.367C127.273 660.619 131.644 656.491 135.415 652.038C143.12 642.913 145.743 631.724 146.781 620.21C147.984 607.555 143.557 596.257 137.109 585.72Z" fill="#3BB59E"/>
<path d="M56.4502 654.101C71.7513 654.97 86.9978 656.002 102.299 656.654C111.643 657.034 120.933 657.306 130.278 657.469C132.081 655.676 133.775 653.884 135.415 651.929C140.278 646.172 143.065 639.6 144.814 632.647C136.562 632.865 128.311 633.082 120.059 633.136C110.004 633.191 99.9491 632.81 89.8394 632.593C74.7022 632.267 59.5651 632.05 44.4279 631.507C31.0941 631.072 17.7602 630.312 4.48104 629.715C3.66134 629.66 2.78699 629.606 1.96729 629.552C2.62305 632.376 3.44275 635.2 4.53569 637.97C6.44833 642.858 8.85279 647.421 11.5851 651.657C21.3123 652.255 31.0394 652.689 40.8212 653.178C45.958 653.504 51.2041 653.83 56.4502 654.101Z" fill="#35837A"/>
<path d="M91.0963 550.579C83.1179 549.439 75.0848 548.733 66.997 548.298C64.21 548.57 61.0405 548.95 57.871 549.384C48.8543 550.688 40.4387 553.729 32.5695 558.455C27.2688 561.659 22.6238 565.57 18.4706 569.969C19.1811 570.132 19.8915 570.187 20.6019 570.241C32.7335 570.567 44.8651 570.893 56.9967 571.11C63.9368 571.219 70.9316 571.219 77.8718 571.219C84.2108 571.219 90.6045 571.001 96.9435 571.001C106.397 571.001 115.906 571.001 125.36 571.056C121.152 566.928 116.507 563.234 111.48 559.867C105.195 555.631 98.5283 552.589 91.0963 550.579Z" fill="#35837A"/>
<path d="M31.7498 614.018C45.2476 614.452 58.7453 614.67 72.2431 614.995C93.7193 615.539 115.196 616.136 136.726 616.625C140.06 616.679 143.393 616.625 146.727 616.408C146.836 616.408 146.891 616.353 147 616.353C147.055 607.663 144.541 599.57 140.661 591.912C137.601 592.021 134.54 592.129 131.48 592.238C128.201 592.347 124.977 592.401 121.698 592.401C112.409 592.292 103.119 592.184 93.8833 591.966C91.2602 591.912 88.5825 591.423 85.9595 591.369C80.1123 591.206 74.265 591.315 68.4725 591.097C55.5212 590.609 42.5152 589.957 29.5639 589.305C24.755 589.088 19.9461 588.708 15.1918 588.382C12.0223 588.164 8.85279 587.947 5.68327 587.676C1.96729 595.334 0.218587 603.481 0.16394 611.954C3.27881 612.225 6.39368 612.497 9.50855 612.714C16.8312 613.257 24.2632 613.801 31.7498 614.018Z" fill="#FFA194"/>
<path d="M85.413 674.035C70.8223 673.546 56.2316 673.111 41.6955 671.428C39.2911 671.156 36.9413 670.993 34.5368 670.559C32.1323 670.178 29.6732 669.69 27.2688 669.255C29.1268 670.776 31.0394 672.242 33.116 673.654C39.0725 677.728 44.8104 682.019 50.603 686.31C53.6632 688.591 56.3409 691.089 58.8 693.913C59.6743 693.968 60.6033 694.022 61.4777 694.076C69.0189 694.348 76.6149 694.402 84.1561 694.457C85.4676 694.457 86.7792 694.511 88.0907 694.511C92.5717 688.102 98.3097 682.833 104.375 677.945C105.742 676.859 107.162 675.827 108.529 674.741C100.823 674.523 93.1182 674.306 85.413 674.035Z" fill="#FFA194"/>
<path d="M20.9297 631.616C32.0231 631.941 43.0617 631.996 54.155 632.322C68.855 632.756 83.555 633.408 98.3097 633.788C107.982 634.06 117.709 634.168 127.436 634.277C132.737 634.331 138.093 634.386 143.393 634.277C143.721 634.277 144.049 634.223 144.377 634.223C145.634 629.66 146.344 624.935 146.836 620.155C147 618.689 147.055 617.277 147 615.81C144.978 615.864 142.956 615.919 140.88 615.973C135.47 616.027 130.06 616.136 124.704 615.919C114.157 615.539 103.665 615.43 93.1182 614.887C67.3249 613.638 41.5316 613.746 15.7929 611.682C11.0933 611.302 6.39369 611.085 1.69406 610.759C1.14759 610.705 0.60112 610.868 0.109298 611.085C0.0546515 612.931 0.109298 614.833 0.218592 616.679C0.546473 621.242 1.09294 625.75 2.07658 630.149C2.62305 630.312 3.16952 630.421 3.77064 630.475C9.45391 630.964 15.1918 631.453 20.9297 631.616Z" fill="#FFE0BF"/>
<path d="M62.0242 527.822C62.4613 526.301 61.587 525.866 61.0405 525.269C57.9256 522.065 56.4502 518.208 55.9037 513.7C55.1387 506.802 57.4885 501.262 62.352 496.7C64.8111 494.419 67.8714 493.278 71.2048 492.626C77.7624 491.377 82.79 493.984 87.2164 498.384C89.129 500.285 89.6208 502.837 90.2219 505.282C90.6591 507.128 90.7138 509.138 90.6045 511.093C90.2766 516.742 88.0907 521.684 84.2654 525.975C83.8282 526.464 83.5004 527.007 82.9539 527.767C84.8665 528.365 86.5059 528.148 88.0907 528.256C90.9323 528.419 91.916 529.397 91.916 532.113C91.9706 535.426 92.1346 538.739 92.0253 542.052C91.9706 544.605 91.8067 547.158 91.2056 549.602C90.6591 551.991 89.3476 554.327 86.9431 555.413C84.2108 556.608 81.4238 556.119 79.0193 554.218C78.5822 553.838 78.145 553.404 77.6532 552.969C75.358 553.947 73.5 555.739 70.8223 555.468C68.1446 555.142 66.5052 553.295 64.7565 551.231C63.8821 551.991 63.0624 552.426 62.516 553.132C60.9312 555.142 58.8 554.761 56.8327 554.327C53.8818 553.621 52.5156 551.34 52.5702 548.244C52.6249 543.138 52.6795 538.033 52.5702 532.927C52.461 528.636 53.9364 528.202 58.0349 527.822C59.4558 527.605 60.7126 527.767 62.0242 527.822ZM86.0688 510.767C86.0688 510.441 86.1234 510.061 86.1234 509.735C86.1234 504.467 84.5387 500.393 78.8554 497.841C75.6859 496.428 72.571 496.809 69.4561 497.786C65.6308 498.981 63.0078 501.48 61.4777 505.173C60.1115 508.486 59.8383 511.854 60.494 515.33C61.0952 518.371 62.6799 520.761 64.8111 522.934C67.4342 525.649 70.6037 526.573 74.1011 526.084C75.7952 525.866 77.7078 525.269 79.0193 524.291C83.5004 520.924 85.6862 516.307 86.0688 510.767Z" fill="#FFE0BF"/>
<path d="M55.248 582.027C55.3573 578.985 57.5431 577.03 60.658 577.139C63.3903 577.247 64.9205 578.931 64.8112 581.593C64.6472 584.254 62.0788 586.752 59.6197 586.644C56.7781 586.589 55.1933 584.851 55.248 582.027Z" fill="#35837A"/>
<path d="M47.3788 580.778C47.2149 584.254 44.8104 586.046 42.4606 585.938C40.0561 585.883 38.0889 583.493 38.1435 581.049C38.1982 578.388 40.548 576.433 43.6082 576.541C45.958 576.65 47.4881 578.334 47.3788 580.778Z" fill="#35837A"/>
<path d="M69.948 623.631C69.8387 626.347 67.7621 628.411 65.1937 628.357C63.1171 628.302 61.0952 626.021 61.2045 623.794C61.3138 621.187 63.5543 619.069 66.0134 619.178C68.4725 619.286 70.0573 621.079 69.948 623.631Z" fill="#372F2C"/>
<path d="M97.4353 582.407C97.2714 585.286 95.5773 586.915 92.9543 586.807C90.3312 586.698 88.2547 584.634 88.4186 582.299C88.5279 580.126 91.2056 577.736 93.5554 577.79C95.9599 577.845 97.5993 579.746 97.4353 582.407Z" fill="#35837A"/>
<path d="M120.933 621.622C123.229 621.622 125.415 623.251 125.305 625.641C125.141 628.031 122.955 629.932 120.387 629.877C117.928 629.823 115.851 627.759 115.906 625.532C115.961 623.142 118.092 621.513 120.933 621.622Z" fill="#372F2C"/>
<path d="M51.9145 622.762C51.8598 625.369 49.7286 627.433 47.1602 627.379C44.7011 627.325 43.0617 625.587 43.0617 623.088C43.0617 620.481 45.2476 618.472 47.9253 618.58C50.0019 618.635 51.9145 620.644 51.9145 622.762Z" fill="#372F2C"/>
<path d="M29.2907 580.398C29.2361 583.059 27.1048 585.123 24.5364 584.96C22.2413 584.851 20.7658 583.168 20.7658 580.723C20.7658 578.062 22.9517 575.89 25.4108 575.998C27.7606 576.052 29.3454 577.845 29.2907 580.398Z" fill="#35837A"/>
<path d="M82.5714 627.542C80.3855 627.705 78.3636 625.532 78.5822 623.251C78.8007 620.861 80.7134 619.504 83.7736 619.612C86.0141 619.721 87.5989 621.187 87.5442 623.197C87.5442 625.695 85.3037 627.651 82.5714 627.542Z" fill="#372F2C"/>
<path d="M34.9193 622.871C34.8647 625.152 33.116 626.782 30.7662 626.782C28.3071 626.727 26.1758 624.826 26.1212 622.545C26.0666 620.481 28.0885 618.471 30.2744 618.471C32.8974 618.471 34.974 620.427 34.9193 622.871Z" fill="#372F2C"/>
<path d="M127.491 581.158C127.382 583.819 125.578 585.449 122.846 585.286C120.387 585.177 118.857 583.548 118.857 581.266C118.912 578.768 120.988 576.813 123.502 576.867C125.961 576.921 127.6 578.714 127.491 581.158Z" fill="#35837A"/>
<path d="M17.2684 622.708C17.1045 624.935 14.9186 626.782 12.4595 626.619C10.0004 626.51 8.41561 624.826 8.57955 622.491C8.68884 620.318 11.3119 618.254 13.6617 618.471C15.5743 618.634 17.3777 620.753 17.2684 622.708Z" fill="#372F2C"/>
<path d="M77.4346 577.736C79.6204 577.519 81.0959 579.257 81.2052 581.429C81.3145 583.602 78.4729 586.264 76.287 586.209C74.3197 586.155 72.1885 583.928 72.2978 581.973C72.4071 579.474 74.6476 577.627 77.4346 577.736Z" fill="#35837A"/>
<path d="M107.818 624.826C108.037 626.999 105.742 629.008 103.501 628.845C101.097 628.683 99.2933 626.999 99.4026 624.826C99.5119 622.817 102.026 620.535 104.157 620.535C106.288 620.481 107.873 622.382 107.818 624.826Z" fill="#372F2C"/>
<path d="M47.7067 660.891C50.3844 660.999 51.6959 662.303 51.6413 664.801C51.5866 667.463 49.8379 669.038 47.1602 668.875C44.5372 668.766 42.9524 667.191 43.0071 664.693C43.0617 662.303 44.8651 660.782 47.7067 660.891Z" fill="#35837A"/>
<path d="M135.961 629.769C133.775 629.715 131.917 627.814 131.972 625.587C132.027 623.306 133.885 621.839 136.617 621.948C138.967 622.002 140.77 623.686 140.661 625.641C140.606 627.705 138.202 629.823 135.961 629.769Z" fill="#372F2C"/>
<path d="M67.5982 665.399C67.5435 667.517 65.6309 669.364 63.445 669.472C61.3138 669.581 58.9093 667.897 58.6907 665.996C58.6361 665.344 58.8546 664.638 59.1279 664.041C59.8929 662.303 62.6799 661.162 64.8112 661.597C66.3413 661.923 67.6528 663.715 67.5982 665.399Z" fill="#35837A"/>
<path d="M35.6844 664.095C35.903 666.213 34.1543 667.897 31.4766 667.843C29.1814 667.788 27.6513 665.996 27.6513 663.552C27.6513 661.434 29.5093 659.859 31.8045 660.022C34.2089 660.076 35.7937 661.76 35.6844 664.095Z" fill="#35837A"/>
<path d="M108.31 585.34C105.687 585.231 103.938 583.656 104.048 581.592C104.157 579.637 106.725 577.356 108.638 577.465C110.551 577.573 112.299 579.474 112.299 581.375C112.245 583.819 110.605 585.449 108.31 585.34Z" fill="#35837A"/>
<path d="M106.124 663.009C108.31 663.117 109.567 664.53 109.403 666.702C109.239 668.983 107.436 670.558 105.086 670.45C103.064 670.341 101.425 668.712 101.425 666.865C101.479 664.91 103.884 662.954 106.124 663.009Z" fill="#35837A"/>
<path d="M78.0903 669.146C75.9045 669.092 73.8825 667.3 74.1558 665.344C74.4836 663.118 75.3033 661.868 77.7625 661.977C80.6587 662.086 82.1889 664.041 82.0249 665.779C81.697 668.006 80.8227 669.146 78.0903 669.146Z" fill="#35837A"/>
<path d="M88.5279 666.159C88.2 664.15 90.7138 662.52 92.1346 662.574C93.9379 662.683 95.468 664.475 95.4134 666.539C95.3587 668.44 93.5554 670.07 91.5881 669.907C90.2219 669.744 88.0361 668.169 88.5279 666.159Z" fill="#35837A"/>
<path d="M50.2205 606.305C61.6963 606.74 73.1721 606.903 84.648 607.12C90.4952 607.229 96.2877 607.229 102.135 607.283C107.873 607.337 113.611 607.337 119.349 607.337C126.016 607.391 132.683 607.5 139.349 607.446C141.59 607.446 143.83 607.283 146.126 607.174C145.798 605.436 145.361 603.752 144.814 602.123C142.847 602.286 140.88 602.449 138.912 602.449C131.207 602.449 123.557 602.286 115.851 602.232C107.217 602.123 98.6376 602.177 90.0034 601.851C64.3193 600.874 38.6353 600.657 13.006 598.81C9.23534 598.538 5.51935 598.321 1.74872 598.049C1.2569 599.95 0.874369 601.906 0.601135 603.807C4.80894 604.133 9.01675 604.404 13.2792 604.621C25.6294 605.219 37.9249 605.871 50.2205 606.305Z" fill="#F8543C"/>
<path d="M94.9762 681.095C90.1673 681.041 85.3584 681.095 80.5495 681.041C69.2376 680.878 57.9803 680.661 46.6684 680.444C46.5045 680.444 46.2859 680.444 46.1219 680.444C45.1929 680.389 44.5372 680.715 43.9361 681.421C46.0673 682.996 48.1439 684.517 50.2751 686.092C50.8762 686.201 51.4773 686.255 52.1331 686.201C57.106 685.984 62.1335 686.147 67.1063 686.201C74.429 686.255 81.697 686.31 89.0197 686.31C91.0417 686.31 93.0636 686.31 95.0855 686.255C96.6156 684.734 98.2004 683.214 99.8398 681.801C99.5119 681.53 99.184 681.367 98.7469 681.15C97.3807 680.498 96.2331 681.15 94.9762 681.095Z" fill="#F8543C"/>
<path d="M73.2268 480.677C73.2268 480.026 73.2814 479.319 73.2814 478.668C73.5547 469.923 74.1011 461.233 74.1011 452.488C74.1011 448.089 74.429 443.635 74.0465 439.236C73.7186 435.38 74.1011 347.12 74.0465 343.318C73.9918 338.538 74.2651 333.813 73.9372 329.087C73.5547 323.765 73.6639 233.984 73.4454 228.661C73.2814 224.479 73.7732 220.297 73.3907 216.223C73.0082 212.204 73.7186 165.983 73.2814 162.018C72.8989 158.162 73.5546 154.36 73.1721 150.558C72.6803 145.615 73.5547 112.538 73.1175 107.65C72.8442 104.717 73.5547 73.5952 72.571 70.7165C72.5164 70.4993 72.571 56.1061 72.571 55.8889C72.8989 43.9398 72.571 16.5113 73.3361 4.61661C73.3907 3.63896 73.6639 2.66131 73.9372 1.68367C74.2104 0.814644 75.5219 -0.108691 76.1777 -6.31101e-05C77.1613 0.162878 78.4182 1.4121 78.4729 2.44406C78.5275 2.93288 78.4729 3.47602 78.4182 3.96485C78.1996 10.1023 77.9264 16.2941 77.8171 22.4315C77.6532 29.0578 77.3799 65.2852 77.7625 71.9114C77.981 76.4195 77.4892 109.062 77.7625 113.57C77.981 116.72 77.5985 148.005 77.981 151.101C78.3636 154.197 78.0357 157.184 78.0357 160.226C78.0903 165.005 77.7625 211.987 78.1996 216.712C78.5275 220.623 77.981 224.533 78.2543 228.39C78.5275 231.974 78.0903 320.017 78.4182 323.547C78.6915 326.263 78.3089 328.979 78.5822 331.64C78.9647 334.953 78.4182 338.266 78.8007 341.525C79.1286 344.458 78.7461 431.741 78.91 434.619C79.2379 441.789 78.6915 448.904 78.8007 456.073C78.8554 459.278 79.1286 462.537 78.7461 465.687C78.3636 468.457 78.1996 471.227 78.0903 474.051C77.9264 477.527 77.6532 481.003 78.4182 484.588C79.074 483.828 79.6751 483.176 80.1669 482.415C81.3691 480.623 82.5714 478.776 83.6643 476.93C85.577 473.725 88.1454 471.064 91.1509 469C96.2877 465.361 101.042 467.751 102.627 472.693C103.173 474.431 103.064 476.658 102.517 478.45C101.261 482.741 98.9108 486.489 95.5227 489.639C92.8996 492.083 90.0034 494.093 86.9431 495.939C85.0851 497.026 82.8993 497.569 80.768 497.949C80.4402 498.003 80.1669 498.112 79.6204 498.221C81.861 501.697 83.6643 505.227 86.5606 508.051C90.5498 511.908 95.0855 514.841 100.55 516.144C101.588 516.416 102.681 516.524 103.774 516.796C104.703 517.068 105.851 517.285 106.015 518.534C106.124 519.62 106.288 520.924 105.031 521.467C104.321 521.793 103.337 521.956 102.572 521.793C98.9108 520.924 95.3041 519.892 91.9706 518.045C86.6699 515.112 82.3528 511.147 79.074 506.096C77.6532 503.924 76.1777 501.751 74.7022 499.633C74.4836 499.307 74.1011 499.035 73.8279 498.71C73.2814 498.112 72.7896 498.221 72.3524 498.764C70.6037 500.936 68.9643 503.163 67.161 505.281C64.5379 508.377 62.352 511.853 59.1279 514.406C54.9747 517.774 50.439 520.544 45.1929 521.739C41.0398 522.716 36.668 522.173 33.2799 519.946C32.6242 519.512 31.8591 518.86 31.6952 518.154C31.4766 517.339 31.258 516.144 32.2963 515.601C33.2799 515.112 34.4822 515.058 35.4111 515.818C37.2145 517.231 39.4004 517.828 41.5862 517.611C44.2639 517.393 46.8323 516.416 49.1822 515.167C52.3517 513.537 55.248 511.419 57.7071 508.812C59.2918 507.074 60.8766 505.281 62.352 503.435C64.1007 501.262 65.7402 499.035 67.3796 496.809C68.3632 495.505 68.3086 495.559 66.8877 494.799C63.2264 492.844 59.5104 490.888 56.7234 487.792C54.319 485.131 52.1877 482.198 51.368 478.559C50.6576 475.3 51.2587 472.313 53.2807 469.76C55.1933 467.316 58.4175 466.719 61.587 467.968C65.7401 469.652 68.3632 472.91 70.4944 476.604C71.2595 477.962 72.0245 479.319 72.7896 480.677C72.9535 480.732 73.0628 480.732 73.2268 480.677ZM78.6915 493.224C81.0413 493.495 82.626 492.681 84.1561 491.92C87.3257 490.291 90.2766 488.281 92.7357 485.729C94.703 483.719 96.2331 481.383 97.326 478.885C97.8725 477.69 98.0911 476.332 98.1457 474.974C98.2004 472.965 97.1074 471.987 95.0855 472.313C94.1565 472.476 93.1182 472.965 92.4625 473.671C90.6045 475.68 88.8011 477.853 87.1071 480.026C83.9922 484.099 81.5331 488.498 78.6915 493.224ZM70.713 491.975C70.7677 490.943 70.877 490.508 70.7677 490.128C69.4015 484.805 67.3796 479.808 63.9368 475.463C62.7892 473.997 61.2591 472.91 59.4558 472.313C58.4175 471.987 56.9967 472.313 56.5595 473.236C55.8491 474.757 55.3026 476.387 55.9584 478.125C57.3245 481.764 59.5104 484.859 62.7346 487.086C65.0844 488.77 67.7074 490.128 70.713 491.975Z" fill="#FFA194"/>
<g clip-path="url(#clip1)">
<path d="M28.3913 86.1187C28.3895 87.1187 28.3877 88.1187 28.386 89.0187C28.3839 90.2187 28.3815 91.5187 28.4537 92.7188C28.4536 92.8188 28.4534 92.9188 28.4534 92.9188C28.3778 93.5187 28.3767 94.1187 27.7812 94.1176C27.2598 94.2167 26.9628 93.8161 26.8152 93.1158C26.6679 92.2156 26.4464 91.2152 26.3736 90.315C26.2272 88.9148 26.0809 87.5145 25.9349 85.9142C25.2649 85.913 24.6693 85.9119 24.0737 85.9108C22.5105 85.808 20.9471 85.8051 19.3838 85.7023C19.2349 85.702 19.1605 85.7019 19.0116 85.7016C18.5651 85.6008 18.1932 85.4001 18.12 84.7C18.1211 84.1 18.4195 83.8005 18.7921 83.6012C19.1645 83.5019 19.4626 83.3024 19.8349 83.3031C21.6222 83.0064 23.4093 82.8096 25.122 82.6127C25.3453 82.6131 25.4942 82.6134 25.7176 82.6138C25.7203 81.1138 25.7228 79.7138 25.7252 78.4138C25.7267 77.6138 25.8024 76.914 25.8783 76.1141C25.9538 75.5142 26.1038 74.9145 26.6994 74.9156C27.2206 74.9166 27.3685 75.4168 27.4419 76.017C27.6621 77.7174 27.8822 79.5178 28.028 81.218C28.1017 81.6182 28.1008 82.1182 28.1745 82.5183C28.4723 82.5188 28.6957 82.5193 28.919 82.5197C31.0034 82.6235 33.0877 82.7273 35.1721 82.8311C35.2466 82.8312 35.321 82.8313 35.4697 82.9316C35.8418 83.0323 36.139 83.3328 36.1381 83.8328C36.1372 84.3328 35.9131 84.7324 35.5407 84.8317C34.4979 85.1298 33.4551 85.4279 32.4126 85.526C31.0718 85.9236 29.7316 86.0211 28.3913 86.1187Z" fill="#E77E1F"/>
<path d="M105.945 138.653C103.711 138.849 102.003 136.446 101.934 133.346C101.935 132.746 101.936 132.146 102.012 131.546C102.463 129.247 103.73 128.349 105.442 128.352C106.485 128.354 107.526 128.656 108.418 129.657C109.309 130.659 109.828 131.86 109.825 133.46C109.824 134.06 109.823 134.76 109.747 135.36C109.446 137.459 107.881 138.356 106.54 138.554C106.391 138.654 106.168 138.653 105.945 138.653Z" fill="#FFE0BF"/>
<path d="M121.129 83.3022C119.491 83.1993 117.558 81.8957 117.637 79.1959C117.641 76.9959 118.985 75.0983 120.548 75.2012C122.186 75.3042 123.598 76.5067 123.667 79.3069C123.738 81.607 122.618 83.305 121.129 83.3022Z" fill="#3BB59E"/>
</g>
</g>
<defs>
<clipPath id="clip0">
<rect width="147" height="712" fill="white"/>
</clipPath>
<clipPath id="clip1">
<rect width="75.2675" height="214.145" fill="white" transform="translate(232.282 75.3902) rotate(90.1044)"/>
</clipPath>
</defs>
</svg>
