<svg width="179" height="643" viewBox="0 0 179 643" fill="none" xmlns="http://www.w3.org/2000/svg">
<path d="M0.490845 573.769C1.76696 573.182 2.55227 572.741 3.43573 572.448C4.17195 572.203 4.95726 572.007 5.74256 572.007C8.44204 572.056 11.1906 572.203 13.8901 572.35C14.8717 572.399 15.8533 572.595 16.884 572.692C17.5221 572.741 18.2583 572.937 18.7982 572.741C22.5775 571.273 26.2586 572.888 29.9888 572.986C32.0011 573.035 33.9644 573.524 35.9276 573.671C42.5046 574.16 49.0815 574.649 55.6584 575.041C61.4009 575.383 67.0944 575.824 72.8369 575.873C92.6167 576.117 112.397 576.166 132.176 576.362C138.851 576.411 145.526 576.704 152.202 576.704C155.539 576.704 158.926 576.264 162.263 575.824C165.748 575.383 169.184 574.747 172.619 574.16C173.552 574.013 174.435 573.769 175.27 573.573C175.712 573.035 176.153 572.546 176.546 572.056C177.969 572.105 178.46 572.888 178.46 574.16C178.509 577.585 177.577 580.863 176.104 583.848C171.785 592.703 165.846 600.287 158.484 606.941C149.747 614.818 139.588 620.347 129.035 625.337C121.427 628.958 113.378 631.306 105.427 633.949C100.47 635.612 95.807 637.814 92.4695 642.021C91.2424 643.587 88.3957 643.44 87.365 641.483C85.2545 637.569 81.966 635.612 77.6959 634.731C72.3951 633.606 67.0453 632.383 61.8917 630.768C51.83 627.588 42.7009 622.5 34.2098 616.286C27.5347 611.442 21.6449 605.767 16.0987 599.798C9.66907 592.85 4.66277 584.924 0.883496 576.264C0.638089 575.432 0.638089 574.552 0.490845 573.769Z" fill="#FFA194"/>
<path d="M74.9965 593.584C69.4994 592.85 65.2293 590.502 62.3335 585.707C61.4991 585.511 60.7629 585.364 59.9776 585.217C55.1185 584.337 50.2104 583.603 45.3513 582.576C43.6334 582.233 42.3082 582.429 40.7376 583.358C32.3938 588.202 22.3321 586.783 16.835 576.46C16.4423 575.677 16.2951 574.747 16.0988 574.16C16.835 573.23 17.3749 572.692 17.8166 572.056C19.8289 569.072 21.5959 565.94 23.8536 563.201C32.0502 553.122 40.345 543.092 48.7379 533.209C54.4804 526.457 59.7812 519.46 62.7752 510.947C62.9715 510.409 63.2169 509.87 63.4623 509.381C67.4379 501.504 71.119 493.48 73.3768 484.918C74.0639 482.374 74.7511 479.83 75.3891 477.53C74.7511 476.747 74.4075 476.209 74.0639 475.769C74.3584 474.301 75.3891 474.105 76.5671 474.154C78.2849 474.154 80.0028 474.203 81.7697 474.203C90.2117 474.203 98.6046 474.203 107.047 474.203C109.353 474.203 109.599 474.448 110.041 476.649C111.022 481.982 111.906 487.364 113.035 492.697C114.949 501.7 117.403 510.507 121.378 518.824C127.808 532.181 137.084 543.238 148.52 552.632C157.306 559.825 167.024 565.451 177.037 570.735C177.724 571.078 178.362 571.518 178.902 571.812C179.442 573.622 178.46 574.698 177.577 575.677C173.307 580.276 167.859 581.695 161.871 580.961C159.956 580.716 158.239 580.863 156.472 581.303C155.294 581.597 154.116 581.939 152.938 582.184C147.392 583.309 141.796 584.386 136.005 585.56C130.9 593.046 120.053 596.226 109.844 587.028C103.022 587.028 96.1997 587.028 89.2301 587.028C87.365 590.159 84.7146 592.263 81.0335 593.046C79.9537 593.29 77.5978 593.926 74.9965 593.584Z" fill="#35837A"/>
<path d="M88.3466 573.035C88.3466 569.023 88.2976 565.011 88.3466 560.999C88.4448 549.648 88.543 538.346 88.7884 526.995C88.9356 520.243 89.3283 513.54 89.6718 506.837C89.9173 502.189 90.1627 497.541 90.4572 492.893C90.8498 487.462 91.2915 482.031 91.7333 476.649C91.8314 475.084 93.1076 474.448 94.2364 474.007C95.3162 473.567 96.7887 473.567 97.6721 474.594C98.1629 475.182 98.3102 476.16 98.3593 476.943C98.4084 480.759 98.212 484.576 98.3593 488.343C98.6538 495.193 99.0955 502.042 99.5372 508.892C99.7826 513.1 100.077 517.307 100.519 521.515C101.157 526.995 101.942 532.426 102.777 537.857C103.66 543.777 104.691 549.697 105.623 555.617C106.556 561.341 107.488 567.066 108.372 572.741C109.01 576.802 109.697 580.912 110.286 584.973C110.728 588.104 109.157 590.453 106.752 592.116C102.188 595.297 94.8745 596.079 89.9663 590.355C88.8865 589.132 88.2485 587.811 88.2976 586.098C88.3957 581.793 88.3466 577.389 88.3466 573.035Z" fill="#3BB59E"/>
<path d="M40.6886 582.967C41.523 581.401 42.3083 579.836 43.1918 578.27C50.8485 564.228 58.5052 550.186 64.6403 535.361C68.8613 525.087 72.9842 514.763 75.9291 503.999C77.9905 496.514 80.0028 489.077 81.1317 481.395C81.4753 479.145 82.0152 476.943 82.506 474.546C84.1747 474.546 85.8435 474.546 87.4632 474.546C88.1994 475.182 88.1994 475.915 88.1013 476.845C87.0215 487.364 85.3527 497.835 83.0949 508.158C79.5611 524.597 75.9291 540.988 71.9044 557.28C69.843 565.5 66.849 573.524 64.1986 581.597C63.7078 583.065 63.0206 584.533 62.1863 585.854C60.4193 588.789 57.9162 590.551 54.3332 590.697C51.4865 590.795 48.738 590.551 46.1857 589.181C43.5353 587.86 41.7684 585.805 40.6886 582.967Z" fill="#3BB59E"/>
<path d="M146.754 590.746C142.189 590.844 138.606 588.545 135.759 585.462C133.207 582.722 131.048 579.493 129.084 576.264C124.569 568.827 121.28 560.803 117.992 552.779C114.114 543.239 110.482 533.6 108.028 523.521C105.967 515.106 104.445 506.593 103.366 498.03C102.875 494.067 102.237 490.104 101.844 486.141C101.55 483.059 101.451 479.976 101.451 476.894C101.451 474.79 101.991 474.105 103.267 473.958C104.789 473.763 105.722 474.546 105.967 476.356C106.31 479.047 106.556 481.738 106.949 484.429C108.666 495.584 110.826 506.69 114.458 517.405C117.599 526.652 122.458 534.97 127.759 543.092C135.907 555.568 145.821 566.479 156.668 576.607C157.797 577.683 158.975 578.759 160.153 579.787C161.134 580.668 161.184 581.597 160.447 582.625C157.159 587.468 152.692 590.404 146.754 590.746Z" fill="#3BB59E"/>
<path d="M73.9167 474.399C75.1928 474.399 76.2726 474.399 77.5978 474.399C77.4015 476.16 77.2542 477.775 77.0088 479.34C75.2419 490.936 71.2172 501.895 66.8981 512.757C62.7752 523.081 57.0327 532.573 50.9957 541.869C46.5783 548.718 41.572 555.03 35.8786 560.852C32.3938 564.424 28.8109 567.995 24.9825 571.225C21.2032 574.454 16.8841 576.9 11.8778 577.928C8.63839 578.613 5.54626 578.123 2.7977 576.313C1.76699 575.677 0.834443 574.552 0.39271 573.426C-0.539837 571.078 0.0982213 569.952 2.55229 569.316C9.08012 567.653 14.3809 563.935 19.5836 559.923C35.535 547.495 48.3453 532.377 58.0634 514.665C62.6771 506.299 66.8981 497.786 69.892 488.685C71.2663 484.478 72.1498 480.123 73.2296 475.867C73.3768 475.377 73.6713 474.937 73.9167 474.399Z" fill="#3BB59E"/>
<path d="M94.5799 422.488C94.6781 422.585 94.7272 422.781 94.8253 422.83C100.126 423.319 104.494 428.065 105.476 434.23C106.31 439.563 104.445 444.064 101.255 448.174C100.813 448.712 100.372 449.25 99.8316 449.887C102.629 450.082 105.231 450.229 107.881 450.425C109.697 450.572 110.286 451.061 110.58 452.871C111.219 457.03 112.004 461.189 111.955 465.445C111.955 468.087 112.298 470.729 112.347 473.371C112.396 475.573 112.004 475.867 109.844 475.915C103.513 476.062 97.1812 476.209 90.8497 476.356C87.0214 476.454 83.2421 476.503 79.4138 476.503C77.6959 476.503 75.9781 476.405 74.2602 476.258C72.346 476.111 71.9534 475.622 71.6589 473.763C70.9718 469.506 71.2172 465.152 71.2172 460.895C71.2172 458.791 71.3153 456.736 71.4135 454.632C71.5117 452.822 71.9043 451.501 74.4075 451.11C76.7634 450.767 79.1193 450.572 81.4752 450.327C82.5059 450.229 83.5366 450.082 84.6164 449.984C83.193 448.468 81.7697 447.147 80.6408 445.63C75.5363 438.927 77.5487 426.549 87.8067 423.27C88.3957 423.075 88.8865 422.732 89.4264 422.439C91.0951 422.488 92.813 422.488 94.5799 422.488ZM92.6658 426.01C84.3219 425.864 79.7573 433.643 81.5243 440.297C82.6041 444.26 85.3526 446.706 88.7392 448.712C91.3896 450.278 93.9909 449.887 96.3959 448.174C101.304 444.7 103.464 437.41 101.304 431.882C99.8316 428.016 96.1015 425.766 92.6658 426.01Z" fill="#372F2C"/>
<path d="M88.9356 633.949C86.9232 633.068 85.8435 631.698 86.0398 629.937C86.187 628.028 87.2668 626.61 88.9847 625.778C90.8007 624.897 93.0093 625.484 94.0891 627.099C95.1689 628.713 95.218 630.573 93.7946 632.383C92.9603 633.459 90.4571 634.682 88.9356 633.949Z" fill="#35837A"/>
<path d="M152.938 601.363C152.3 600.091 151.171 599.602 149.797 599.455C147.146 599.162 144.692 599.993 142.287 600.923C135.416 603.614 128.986 607.235 122.753 611.198C117.01 614.867 111.611 618.928 106.409 623.283C104.838 624.604 101.648 627.344 102.237 628.371C102.335 628.567 103.905 628.175 104.494 628.028C107.243 627.392 109.648 625.974 112.151 624.848C118.237 622.059 124.421 619.417 130.557 616.629C136.594 613.84 142.582 610.953 148.57 608.017C149.944 607.332 151.22 606.354 152.398 605.278C153.527 604.201 153.625 602.733 152.938 601.363Z" fill="#F8543C"/>
<path d="M73.7694 621.766C69.2539 618.047 64.6402 614.427 59.9775 610.904C54.1368 606.55 48.0507 602.538 41.1793 599.847C38.6271 598.868 36.0748 597.938 33.2772 598.134C32.0502 598.232 31.0685 598.623 30.4796 599.749C29.8415 600.972 30.136 602.097 30.8231 603.174C31.0685 603.516 31.363 603.859 31.7066 604.152C32.9827 605.18 34.1607 606.403 35.5349 607.235C40.1977 610.023 44.8604 612.812 49.6213 615.356C57.6216 619.613 65.9654 623.087 74.3093 626.659C75.4381 627.148 77.4996 627.784 77.794 627.148C77.8922 626.952 77.5977 626.022 77.4014 625.729C76.2234 624.359 75.1437 622.891 73.7694 621.766Z" fill="#F8543C"/>
<path d="M117.305 602.342C117.844 601.559 118.09 600.532 118.237 599.553C118.483 597.302 116.028 595.052 113.623 596.471C112.691 597.009 111.807 597.645 111.071 598.379C108.126 601.412 105.623 604.837 103.513 608.507C101.255 612.372 99.1444 616.335 97.8683 620.641C97.5738 621.619 97.1321 623.283 97.672 623.527C98.0647 623.674 99.8316 622.451 100.617 621.619C104.789 617.167 109.01 612.763 113.084 608.213C114.654 606.452 115.979 604.397 117.305 602.342Z" fill="#F8543C"/>
<path d="M82.0642 616.041C79.9046 610.219 76.3707 605.229 72.3951 600.581C70.9718 598.917 69.0576 597.645 66.8489 597.107C64.5912 596.52 63.0206 597.694 62.9715 599.993C62.9224 601.314 63.5114 602.391 64.1985 603.32C65.1802 604.641 66.2599 605.865 67.3888 607.088C70.3828 610.366 73.4258 613.595 76.4689 616.824C78.1376 618.586 79.8555 620.298 81.5733 622.059C81.7697 622.255 81.966 622.5 82.2114 622.598C82.8004 622.891 83.193 622.695 83.2912 622.059C83.3894 621.766 82.7022 617.705 82.0642 616.041Z" fill="#F8543C"/>
<path d="M93.6474 596.96C92.7639 595.296 91.0951 594.905 89.4264 595.737C87.9049 596.52 87.365 597.89 87.2668 599.406C87.1686 600.972 87.2177 602.538 87.2177 604.152C87.1686 604.152 87.2668 609.877 87.7085 612.714C88.0521 615.161 88.3957 616.971 89.2301 619.955C89.4264 620.738 90.0154 621.815 90.5553 621.864C91.3896 621.864 91.9295 619.613 91.9786 619.466C92.6657 616.286 93.4511 613.155 94.04 609.925C94.6781 606.647 94.8253 603.32 94.5308 599.993C94.4818 598.966 94.1382 597.89 93.6474 596.96Z" fill="#F8543C"/>
<path d="M47.9036 581.059C47.9036 578.515 49.5723 576.704 51.8301 576.704C54.3823 576.704 56.1002 578.515 56.1493 581.108C56.1493 583.603 54.2842 585.266 51.5356 585.218C49.0815 585.266 47.9036 583.848 47.9036 581.059Z" fill="#FFE0BF"/>
<path d="M34.946 577.292C34.946 579.444 33.0809 581.352 30.9214 581.401C29.3017 581.45 27.1912 579.64 27.1912 578.221C27.1912 576.117 29.2526 573.818 31.1668 573.622C32.9337 573.475 35.1424 575.775 34.946 577.292Z" fill="#FFE0BF"/>
<path d="M7.75489 572.692C7.75489 569.512 10.8961 567.408 13.4483 568.925C15.1171 569.904 15.657 572.007 14.5281 573.524C13.6937 574.649 12.7121 575.775 11.0924 575.824C8.88376 575.922 7.70581 574.845 7.75489 572.692Z" fill="#FFE0BF"/>
<path d="M74.4076 580.961C76.6653 580.961 78.5795 582.576 78.5795 584.533C78.5795 586.343 76.8616 588.153 74.9966 588.3C73.1805 588.398 71.2173 586.441 71.2173 584.484C71.2173 582.478 72.5916 580.961 74.4076 580.961Z" fill="#FFE0BF"/>
<path d="M24.7371 592.361C26.5531 592.361 28.1237 593.633 28.1237 595.248C28.1237 596.715 26.7495 598.183 25.2279 598.281C23.7555 598.379 22.1849 596.764 22.1849 595.199C22.1358 593.584 23.2647 592.361 24.7371 592.361Z" fill="#FFE0BF"/>
<path d="M158.582 593.095C160.398 593.095 161.969 594.367 161.969 595.981C161.969 597.449 160.594 598.917 159.073 599.015C157.6 599.113 156.03 597.498 156.03 595.933C155.981 594.318 157.11 593.095 158.582 593.095Z" fill="#FFE0BF"/>
<path d="M99.1445 582.233C101.402 582.233 102.777 583.456 102.777 585.413C102.777 587.664 101.304 589.132 99.0463 589.083C97.2303 589.034 95.4634 587.175 95.4634 585.267C95.4143 583.456 96.8377 582.233 99.1445 582.233Z" fill="#FFE0BF"/>
<path d="M142.483 581.842C142.483 579.934 143.858 578.417 145.674 578.368C147.342 578.319 149.011 579.836 148.962 581.255C148.913 582.869 147.097 584.826 145.674 584.826C143.514 584.777 142.483 583.848 142.483 581.842Z" fill="#FFE0BF"/>
<path d="M165.11 576.215C163.098 576.215 161.871 575.041 161.969 573.328C162.067 571.763 163.638 570.197 165.159 570.197C166.926 570.197 168.448 571.665 168.448 573.328C168.497 575.041 167.073 576.46 165.11 576.215Z" fill="#FFE0BF"/>
<path d="M121.673 586.979C119.415 587.028 118.777 586.441 118.777 584.386C118.777 582.184 119.611 581.01 121.28 580.961C123.047 580.912 124.765 582.331 124.814 583.897C124.814 585.462 123.244 586.979 121.673 586.979Z" fill="#FFE0BF"/>
<path d="M86.5305 304.868C87.2177 301.639 90.457 299.926 92.3712 300.367C94.7762 300.905 95.9051 302.422 95.7087 304.917C95.5615 307.119 94.4326 309.369 92.9602 309.467C89.7699 309.614 87.8557 309.956 86.5305 304.868Z" fill="#3BB59E"/>
<path d="M93.4511 247.232C92.6658 247.232 91.9786 247.183 91.3406 247.232C88.6902 247.477 87.4631 245.911 86.7269 243.954C86.0398 242.046 87.2177 240.676 88.5429 239.453C90.2117 237.936 93.2548 238.083 94.7763 239.698C96.1506 241.117 96.1015 244.444 94.6781 246.058C94.3345 246.45 93.8928 246.792 93.4511 247.232Z" fill="#3BB59E"/>
<path d="M93.451 370.479C88.1502 370.968 87.7085 369.843 86.6778 366.76C86.187 365.39 87.8067 362.846 89.4754 362.161C91.8804 361.182 94.0891 361.721 95.267 363.531C96.494 365.586 95.7578 368.473 93.451 370.479Z" fill="#3BB59E"/>
<path d="M95.7089 340.242C95.8562 341.759 95.0709 343.08 94.1383 344.303C92.764 346.113 90.8007 346.211 88.7884 344.596C87.0215 343.177 86.5307 340.633 87.365 338.872C88.2485 337.111 91.0952 335.79 93.1567 336.181C94.8745 336.572 95.758 337.893 95.7089 340.242Z" fill="#3BB59E"/>
<path d="M96.0524 216.898C95.5616 218.072 95.169 219.344 94.5309 220.421C93.2548 222.524 90.4081 222.818 88.592 221.154C87.2178 219.931 86.6779 217.827 87.3159 216.115C87.9049 214.451 89.8682 213.033 91.7332 212.935C94.4327 212.788 95.7089 214.011 96.0524 216.898Z" fill="#3BB59E"/>
<path d="M95.9542 401.302C95.9052 403.602 94.6781 405.216 93.0584 406.391C92.4204 406.831 91.2915 406.88 90.4571 406.733C88.5429 406.342 86.5797 403.406 86.9723 401.498C87.4141 399.541 88.8374 398.367 90.6534 397.682C92.4695 396.997 93.8437 397.29 95.0217 398.856C95.5616 399.492 95.6598 400.471 95.9542 401.302Z" fill="#3BB59E"/>
<path d="M96.0033 277.909C95.9051 280.062 94.8744 281.579 93.402 282.851C92.224 283.829 90.5553 283.878 89.3282 282.949C87.8558 281.872 86.8742 280.356 86.9723 278.594C87.1196 276.588 88.5429 275.267 90.3589 274.533C92.4694 273.653 93.5492 273.848 94.9235 275.561C95.5125 276.148 95.6597 277.078 96.0033 277.909Z" fill="#3BB59E"/>
<path d="M96.1015 328.304C96.1015 331.044 93.8438 333.49 91.3897 333.441C89.0338 333.392 87.2669 331.386 87.3159 328.793C87.365 326.298 89.3774 324.292 91.8805 324.292C94.1383 324.243 96.1015 326.151 96.1015 328.304Z" fill="#3BB59E"/>
<path d="M91.3406 394.453C88.6902 394.697 87.4631 392.593 87.3159 390.098C87.1686 387.75 89.6718 385.254 91.9296 385.303C94.0891 385.352 96.1015 387.407 96.0524 389.56C96.0524 392.544 94.1382 394.502 91.3406 394.453Z" fill="#3BB59E"/>
<path d="M91.7332 271.206C89.2301 271.206 87.3159 269.347 87.3159 266.95C87.365 264.503 89.6227 262.106 91.8805 262.057C93.991 262.057 96.1015 264.112 96.1015 266.216C96.1015 269.054 94.2364 271.157 91.7332 271.206Z" fill="#3BB59E"/>
<path d="M92.0278 200.948C94.2855 200.997 96.1506 202.905 96.1506 205.204C96.1015 207.7 93.7947 210.195 91.6351 210.097C89.2301 209.999 87.365 208.042 87.365 205.498C87.3159 202.856 89.3283 200.948 92.0278 200.948Z" fill="#3BB59E"/>
<path d="M92.2731 250.853C93.8928 250.706 95.2671 251.244 95.9542 253.006C96.7886 255.012 96.5432 256.137 94.9235 257.8C93.5983 259.17 92.2731 260.149 90.2117 259.317C88.3957 258.583 87.0214 256.528 87.3159 254.62C87.6594 252.467 89.3773 250.902 91.4878 250.853C91.7332 250.853 91.9295 250.853 92.2731 250.853Z" fill="#3BB59E"/>
<path d="M91.635 198.159C89.2791 198.159 87.2667 196.153 87.3649 193.853C87.4631 191.554 89.7208 189.352 92.1258 189.401C94.7762 189.45 96.5431 191.26 96.4941 193.364C96.3959 196.055 93.8927 198.599 91.635 198.159Z" fill="#3BB59E"/>
<path d="M91.5369 321.454C89.181 321.454 87.2668 319.399 87.3159 317.002C87.3649 314.947 89.8681 312.647 91.9786 312.696C94.3345 312.745 96.5432 314.555 96.445 316.61C96.3468 319.203 93.9419 321.943 91.5369 321.454Z" fill="#3BB59E"/>
<path d="M92.1259 374.099C93.991 374.099 95.7088 375.176 96.2978 376.937C96.8377 378.551 96.1506 379.824 95.0217 380.998C93.7456 382.319 92.4695 383.395 90.5062 382.661C88.4448 381.878 87.0214 379.824 87.3159 377.915C87.7086 375.616 89.5737 374.099 92.1259 374.099Z" fill="#3BB59E"/>
<path d="M96.1015 352.082C96.1015 355.018 94.3837 356.975 91.8314 356.975C89.2792 356.975 87.7577 355.409 87.6595 352.963C87.5123 350.076 89.9663 348.853 92.9603 348.657C94.9236 348.462 96.1015 349.978 96.1015 352.082Z" fill="#3BB59E"/>
<path d="M87.5613 230.793C87.7576 229.814 87.8558 228.591 88.2484 227.515C88.7392 226.145 92.2731 224.873 93.8437 225.362C95.7579 225.949 96.7395 228.249 95.9051 230.451C95.3162 231.967 94.4327 233.337 92.6658 233.631C90.8988 233.924 89.4264 233.288 88.3957 231.772C88.1993 231.478 87.9539 231.282 87.5613 230.793Z" fill="#3BB59E"/>
<path d="M85.009 5.68149C85.2054 4.70296 85.3035 3.47979 85.6962 2.4034C86.187 1.03346 89.7208 -0.238635 91.2915 0.250632C93.2056 0.837752 94.1873 3.1373 93.3529 5.339C92.7639 6.85573 91.8804 8.22568 90.1135 8.51924C88.3466 8.8128 86.8741 8.17675 85.8434 6.66002C85.6471 6.41539 85.4017 6.17076 85.009 5.68149Z" fill="#3BB59E"/>
<path d="M92.7148 410.011C95.0216 410.011 96.1014 411.088 96.1014 413.387C96.1014 416.323 94.1873 418.476 91.635 418.378C89.6227 418.28 87.7576 416.225 87.7085 414.121C87.7085 411.675 89.7208 410.011 92.7148 410.011Z" fill="#3BB59E"/>
<path d="M96.1015 288.673C96.1997 293.028 94.8254 294.789 91.586 294.691C88.8375 294.642 87.6104 292.93 87.8558 289.407C90.8989 285.591 93.3039 285.346 96.1015 288.673Z" fill="#3BB59E"/>
<path d="M92.813 138.811C92.0277 138.811 91.3406 138.762 90.7025 138.811C88.0521 139.056 86.8251 137.49 86.0889 135.533C85.4017 133.625 86.5797 132.255 87.9049 131.032C89.5736 129.515 92.6167 129.662 94.1382 131.276C95.5125 132.695 95.4634 136.022 94.0401 137.637C93.6965 138.028 93.2548 138.371 92.813 138.811Z" fill="#3BB59E"/>
<path d="M95.4144 108.476C94.9235 109.651 94.5309 110.923 93.8928 111.999C92.6167 114.103 89.77 114.396 87.954 112.733C86.5797 111.51 86.0398 109.406 86.6779 107.694C87.2668 106.03 89.2301 104.611 91.0952 104.513C93.7947 104.367 95.0708 105.59 95.4144 108.476Z" fill="#3BB59E"/>
<path d="M95.3652 169.488C95.2671 171.641 94.2364 173.157 92.7639 174.429C91.586 175.408 89.9172 175.457 88.6902 174.527C87.2177 173.451 86.2361 171.934 86.3343 170.173C86.4815 168.167 87.9049 166.895 89.7209 166.112C91.8314 165.231 92.9112 165.427 94.2855 167.139C94.8744 167.727 95.0217 168.656 95.3652 169.488Z" fill="#3BB59E"/>
<path d="M91.0952 162.736C88.592 162.736 86.6779 160.877 86.6779 158.479C86.7269 156.033 88.9847 153.636 91.2424 153.587C93.3529 153.587 95.4634 155.642 95.4634 157.746C95.4634 160.632 93.5983 162.736 91.0952 162.736Z" fill="#3BB59E"/>
<path d="M91.3897 92.5263C93.6474 92.5752 95.5125 94.4833 95.5125 96.7829C95.4634 99.2782 93.1566 101.773 90.997 101.676C88.592 101.578 86.727 99.6206 86.727 97.0765C86.6779 94.4344 88.6902 92.4774 91.3897 92.5263Z" fill="#3BB59E"/>
<path d="M91.635 142.431C93.2547 142.285 94.629 142.823 95.3161 144.584C96.1505 146.59 95.9051 147.716 94.2854 149.379C92.9602 150.749 91.635 151.728 89.5736 150.896C87.7576 150.162 86.3833 148.107 86.6778 146.199C87.0214 144.046 88.7392 142.48 90.8497 142.431C91.0951 142.383 91.2915 142.431 91.635 142.431Z" fill="#3BB59E"/>
<path d="M90.997 89.7375C88.6411 89.7375 86.6288 87.7315 86.727 85.4319C86.8251 83.1324 89.0829 80.9307 91.4879 80.9796C94.1383 81.0285 95.9052 82.8388 95.8561 84.9427C95.7579 87.6336 93.2548 90.1778 90.997 89.7375Z" fill="#3BB59E"/>
<path d="M86.9232 122.372C87.1195 121.393 87.2177 120.17 87.6104 119.093C88.1012 117.724 91.635 116.451 93.2056 116.941C95.1198 117.528 96.1015 119.827 95.2671 122.029C94.6781 123.546 93.7946 124.916 92.0277 125.209C90.2608 125.503 88.7883 124.867 87.7576 123.35C87.5613 123.057 87.3159 122.812 86.9232 122.372Z" fill="#3BB59E"/>
<path d="M95.4635 180.252C95.5616 184.606 94.1873 186.368 90.948 186.27C88.1994 186.221 86.9724 184.508 87.2178 180.986C90.2608 177.169 92.6658 176.925 95.4635 180.252Z" fill="#3BB59E"/>
<path d="M90.359 78.9736C88.0031 78.9736 85.9907 76.9676 86.0889 74.6681C86.1871 72.3685 88.4448 70.1668 90.8498 70.2157C93.5002 70.2647 95.2671 72.0749 95.2181 74.1788C95.1199 76.8698 92.6167 79.365 90.359 78.9736Z" fill="#3BB59E"/>
<path d="M91.5369 19.6256C90.7516 19.6256 90.0644 19.5767 89.4264 19.6256C86.776 19.8702 85.549 18.3046 84.8127 16.3475C84.1256 14.4394 85.3035 13.0694 86.6287 11.8463C88.2975 10.3295 91.3406 10.4763 92.8621 12.0909C94.2364 13.5098 94.1873 16.8368 92.7639 18.4514C92.4204 18.8428 92.0277 19.1853 91.5369 19.6256Z" fill="#3BB59E"/>
<path d="M94.0891 50.2537C93.9909 52.4064 92.9602 53.9232 91.4878 55.1953C90.3098 56.1738 88.6411 56.2227 87.414 55.2931C85.9416 54.2167 84.96 52.7 85.0581 50.9386C85.2054 48.9327 86.6287 47.6606 88.4447 46.8777C90.5552 45.9971 91.635 46.1928 93.0093 47.9052C93.5983 48.4923 93.7455 49.4708 94.0891 50.2537Z" fill="#3BB59E"/>
<path d="M89.8191 43.5507C87.3159 43.5507 85.4017 41.6915 85.4017 39.2941C85.4508 36.8478 87.7086 34.4504 89.9663 34.4014C92.0768 34.4014 94.1873 36.4563 94.1873 38.5602C94.1873 41.3979 92.3222 43.5507 89.8191 43.5507Z" fill="#3BB59E"/>
<path d="M90.3589 23.1972C91.9786 23.0505 93.3529 23.5887 94.04 25.35C94.8744 27.356 94.629 28.4813 93.0093 30.1448C91.6841 31.5148 90.3589 32.4933 88.2975 31.6616C86.4815 30.9277 85.1072 28.8727 85.4017 26.9646C85.7453 24.8118 87.4631 23.2462 89.5736 23.1972C89.819 23.1972 90.0153 23.1972 90.3589 23.1972Z" fill="#3BB59E"/>
<path d="M94.1873 61.0664C94.2855 65.4209 92.9112 67.1823 89.6718 67.0844C86.9233 67.0355 85.6963 65.3231 85.9417 61.8003C88.9847 57.9841 91.3897 57.7394 94.1873 61.0664Z" fill="#3BB59E"/>
</svg>
