<svg width="114" height="490" viewBox="0 0 114 490" fill="none" xmlns="http://www.w3.org/2000/svg">
<g clip-path="url(#clip0)">
<path d="M58.9418 131.822C57.4045 130.305 54.2491 130.704 52.8737 132.54C51.2555 134.616 52.0646 137.251 54.775 138.768C54.775 138.888 54.775 138.968 54.775 139.087C55.5032 139.127 56.2314 139.167 56.9595 139.247C56.9595 139.127 56.9595 139.008 57 138.888C57.5663 138.569 58.2136 138.329 58.6586 137.89C60.6813 135.854 60.3981 133.259 58.9418 131.822Z" fill="#FFA194"/>
<path d="M57.0809 108.108C58.8204 107.829 59.7509 106.551 60.2363 105.034C60.7218 103.437 60.6409 101.84 59.1036 100.683C57.9304 99.8045 56.555 99.6048 55.22 100.204C53.6827 100.882 53.0355 102.16 53.1164 103.757C52.5905 106.232 54.4514 108.507 57.0809 108.108Z" fill="#FFA194"/>
<path d="M56.9191 120.284C54.775 120.165 53.1164 121.841 52.8332 124.117C52.55 126.153 54.4109 127.949 56.11 128.029C58.2136 128.149 60.0341 126.392 60.1554 124.157C60.2768 122.001 58.9418 120.404 56.9191 120.284Z" fill="#FFA194"/>
<path d="M56.2718 97.3692C58.2541 97.489 59.8318 95.932 59.9936 93.6565C60.1554 91.5407 58.8204 89.7043 57.1214 89.6244C54.6941 89.4647 53.2378 90.9019 53.0759 93.5367C52.9141 95.7324 54.2087 97.2495 56.2718 97.3692Z" fill="#FFA194"/>
<path d="M56.3123 117.41C58.4159 117.57 59.9936 116.013 60.115 113.617C60.2363 111.581 59.1036 110.424 56.8786 110.264C54.9368 110.144 53.0759 111.701 52.9141 113.538C52.7523 115.414 54.3705 117.25 56.3123 117.41Z" fill="#FFA194"/>
<path d="M56.9191 78.2467C58.6586 77.9672 59.5891 76.6897 60.0745 75.1727C60.56 73.5758 60.479 71.979 58.9418 70.8212C57.7686 69.943 56.3932 69.7434 55.0582 70.3422C53.5209 71.0209 52.8736 72.2984 52.9546 73.8952C52.4287 76.4103 54.2491 78.6858 56.9191 78.2467Z" fill="#FFA194"/>
<path d="M56.11 67.5477C58.0923 67.6674 59.67 66.1105 59.8318 63.8349C59.9936 61.7191 58.6586 59.8827 56.9596 59.8028C54.5323 59.6431 53.0759 61.0803 52.9141 63.7152C52.7523 65.8709 54.0468 67.4279 56.11 67.5477Z" fill="#FFA194"/>
<path d="M56.1505 87.5485C58.2541 87.7082 59.8318 86.1512 59.9532 83.7559C60.0745 81.7199 58.9418 80.5622 56.7168 80.4025C54.775 80.2827 52.9141 81.8397 52.7523 83.6761C52.5905 85.5524 54.2087 87.3888 56.1505 87.5485Z" fill="#FFA194"/>
<path d="M57.7686 48.9441C59.5082 48.6647 60.4386 47.3872 60.9241 45.8701C61.4095 44.2733 61.3286 42.6764 59.7913 41.5187C58.6182 40.6404 57.2427 40.4408 55.9077 41.0396C54.3705 41.7183 53.7232 42.9958 53.8041 44.5926C53.2377 47.0678 55.0986 49.3833 57.7686 48.9441Z" fill="#FFA194"/>
<path d="M56.9595 38.2451C58.9418 38.3648 60.5195 36.8079 60.6813 34.5323C60.8431 32.4165 59.5082 30.5801 57.8091 30.5002C55.3818 30.3406 53.9255 31.7777 53.7637 34.4126C53.5614 36.5684 54.8559 38.1253 56.9595 38.2451Z" fill="#FFA194"/>
<path d="M57 58.2459C59.1036 58.4056 60.6813 56.8486 60.8027 54.4533C60.924 52.4173 59.7913 51.2596 57.5663 51.0999C55.6245 50.9801 53.7636 52.5371 53.6018 54.3735C53.3996 56.2498 55.0177 58.0862 57 58.2459Z" fill="#FFA194"/>
<path d="M58.4159 18.4838C60.1554 18.2043 61.0859 16.9268 61.5713 15.4098C62.0568 13.8129 61.9759 12.2161 60.4386 11.0583C59.2654 10.18 57.89 9.98044 56.555 10.5793C55.0177 11.2579 54.3705 12.5354 54.4514 14.1323C53.9255 16.6075 55.7864 18.9229 58.4159 18.4838Z" fill="#FFA194"/>
<path d="M57.6068 7.78533C59.5891 7.90509 61.1668 6.34814 61.3286 4.0726C61.4904 1.95675 60.1554 0.120343 58.4564 0.0404998C56.0291 -0.119187 54.5727 1.318 54.4109 3.95283C54.2491 6.10861 55.5436 7.66556 57.6068 7.78533Z" fill="#FFA194"/>
<path d="M57.6473 27.7856C59.7509 27.9452 61.3286 26.3883 61.45 23.993C61.5713 21.957 60.4386 20.7993 58.2136 20.6396C56.2718 20.5198 54.4109 22.0768 54.2491 23.9132C54.0873 25.7895 55.7055 27.6259 57.6473 27.7856Z" fill="#FFA194"/>
<path d="M56.6359 203.721C59.0632 203.721 61.4904 203.721 63.9581 203.721C65.7381 203.801 67.5586 203.881 69.3385 203.92C72.8985 204 76.418 203.841 79.9375 204.519C81.8794 204.879 82.2839 205.238 82.0816 207.234C81.8389 209.869 81.3534 212.464 81.0298 215.059C80.5039 219.091 79.9375 223.123 79.4521 227.155C79.1285 229.63 78.9262 232.105 78.643 234.58C78.4003 236.976 78.198 239.331 77.9553 241.726C77.8339 242.884 77.753 244.002 77.7126 245.16C77.6721 246.397 76.9439 247.156 75.8921 247.475C74.7999 247.834 73.6267 248.114 72.494 248.114C66.4258 248.114 60.3173 247.994 54.2491 247.914C49.961 247.874 45.6728 247.874 41.4251 247.795C39.7665 247.755 38.1079 247.595 36.4897 247.355C35.1143 247.156 34.7906 246.677 34.7097 245.319C34.5075 242.964 34.3456 240.649 34.0625 238.293C33.5365 234.141 32.9297 230.029 32.4038 225.917C31.7566 220.887 31.1902 215.857 30.5429 210.787C30.4216 209.749 30.2193 208.751 30.0575 207.713C30.0575 206.955 30.0575 206.156 30.0575 205.398C30.907 204.879 31.8375 204.719 32.8084 204.799C33.2534 204.839 33.6984 204.759 34.1029 204.719C37.0965 204.479 40.0901 204.2 43.0837 203.96C43.6906 203.92 44.2974 203.801 44.9446 203.721C46.3201 203.721 47.6551 203.721 49.0305 203.721C49.961 203.801 50.9319 203.96 51.8623 203.96C53.4805 203.92 55.0582 203.801 56.6359 203.721Z" fill="#FFA194"/>
<path d="M19.863 249.192C19.6608 249.631 19.3776 250.15 19.1753 250.629C17.719 250.749 17.5167 250.509 17.8403 249.272C19.5394 242.884 21.2789 236.497 22.8567 230.069C24.4344 223.682 25.9716 217.334 27.9943 211.067C28.318 210.068 28.7225 209.11 29.0057 208.112C29.208 207.474 29.2889 206.795 29.3293 206.156C29.3698 205.477 29.3293 204.839 29.3293 204C29.8552 203.921 30.3002 203.841 30.7857 203.761C31.352 205.118 31.8375 206.276 31.4734 207.713C31.1902 208.831 31.352 210.108 31.3925 211.306C31.4329 212.065 31.5543 212.823 31.6352 213.582C31.8375 216.137 31.9993 218.692 32.2016 221.286C32.3229 222.764 32.3634 224.241 32.5252 225.718C32.7679 228.113 33.0916 230.548 33.3343 232.944C33.5366 234.78 33.6984 236.616 33.9816 238.453C34.3861 241.407 34.8716 244.361 35.2761 247.315C35.3975 248.114 35.4379 248.912 35.5188 249.87C34.9929 249.87 34.467 250.03 34.2647 249.831C33.3747 248.992 32.3229 249.272 31.3925 249.431C29.7743 249.671 28.2371 249.751 26.6593 249.391C25.9716 249.232 25.203 249.351 24.4748 249.351C23.0185 249.272 21.5217 249.232 19.863 249.192Z" fill="#FFE0BF"/>
<path d="M81.2725 203.881C82.1625 203.641 82.8907 203.721 82.7694 204.679C82.4862 207.394 83.8616 209.669 84.5493 212.144C85.4798 215.578 86.5316 219.011 87.4216 222.444C89.2825 229.55 91.022 236.656 92.8425 243.723C93.3279 245.599 93.8538 247.475 94.3797 249.352C94.6629 250.429 94.3797 250.709 92.9638 250.549C92.7211 250.07 92.4784 249.591 92.2356 249.032C89.7275 249.192 87.1789 249.431 84.6302 249.511C83.3762 249.551 82.1221 249.352 80.868 249.352C79.8566 249.352 78.7644 248.912 77.8339 249.791C77.6721 249.95 77.1867 249.831 76.6608 249.831C76.7417 248.912 76.7417 248.074 76.863 247.276C77.1867 245.08 77.5508 242.884 77.8744 240.649C78.1576 238.613 78.4812 236.617 78.7239 234.58C78.9667 232.465 79.1285 230.309 79.3712 228.193C79.6544 225.598 79.9376 223.003 80.2207 220.408C80.3825 218.971 80.4635 217.574 80.5444 216.137C80.6657 213.622 80.8275 211.067 80.8275 208.552C80.8275 207.434 80.3421 206.316 80.868 205.198C80.9894 204.719 81.1107 204.28 81.2725 203.881Z" fill="#FFE0BF"/>
<path d="M9.18313 486.207C9.26404 486.247 9.34495 486.287 9.42585 486.287C9.42585 486.726 9.42585 487.166 9.42585 487.565C9.34495 487.565 9.26404 487.605 9.18313 487.645C9.18313 487.166 9.18313 486.687 9.18313 486.207Z" fill="#FFB674"/>
<path d="M101.5 487.645C101.419 487.605 101.338 487.605 101.257 487.565C101.257 487.126 101.257 486.686 101.257 486.287C101.338 486.287 101.419 486.247 101.5 486.207C101.5 486.687 101.5 487.166 101.5 487.645Z" fill="#FFB674"/>
<path d="M9.42586 487.605C9.42586 487.166 9.42586 486.726 9.42586 486.327C9.99222 484.85 11.2463 483.932 12.5408 483.213C14.4422 482.175 16.384 481.177 18.4472 480.419C22.4926 478.942 26.5785 477.544 31.0689 476.985C30.9071 475.628 30.7452 474.311 30.6643 472.993C30.3811 469.839 30.098 466.686 29.8957 463.532C29.6125 459.26 29.3698 455.028 29.1271 450.757C29.0057 448.401 28.763 446.086 28.763 443.731C28.7225 437.543 28.763 431.355 28.8439 425.167C28.8843 422.931 29.0462 420.656 29.1271 418.42C29.1675 417.941 29.2484 417.462 29.2889 416.983C29.4102 415.825 29.9362 414.987 31.1498 414.708C34.5479 414.508 37.9056 414.228 41.3038 414.149C44.2569 414.069 47.2101 414.268 50.1633 414.348C51.7005 414.468 52.1051 415.346 52.1455 416.544C52.2669 422.213 52.7523 427.842 52.2669 433.511C52.0646 435.986 52.0646 438.501 51.9028 440.976C51.7005 444.369 51.4173 447.763 51.1746 451.156C51.0533 453.072 50.8914 454.989 50.7296 456.905C50.4464 460.737 50.1633 464.57 49.8801 468.402C49.6778 471.516 49.516 474.63 49.2328 477.744C48.9496 480.978 48.4642 484.211 48.1405 487.445C48.0192 488.603 47.3719 489.162 46.2797 489.281C44.5806 489.441 42.8815 489.681 41.1824 489.72C34.1838 489.92 27.1853 490.279 20.1867 489.72C17.4358 489.521 14.6445 489.361 11.8936 489.122C10.8418 489.042 9.91131 488.603 9.42586 487.605Z" fill="#372F2C"/>
<path d="M101.216 486.287C101.216 486.726 101.216 487.165 101.216 487.565C100.731 488.523 99.8815 488.962 98.8701 489.082C97.1306 489.281 95.3911 489.561 93.6515 489.601C87.6643 489.76 81.6771 489.88 75.6899 489.88C72.2513 489.88 68.8126 489.561 65.3336 489.361C64.929 489.321 64.565 489.241 64.2009 489.201C63.1895 489.082 62.6232 488.563 62.5018 487.565C62.2591 485.648 61.895 483.772 61.7332 481.856C61.2882 476.347 60.8836 470.877 60.4791 465.368C60.0745 459.58 59.67 453.791 59.3059 448.002C58.9014 441.495 58.4159 434.988 58.2136 428.481C58.0923 424.568 58.3755 420.616 58.4968 416.664C58.5777 414.907 58.9418 414.588 60.7623 414.308C61.45 414.268 62.0972 414.189 62.785 414.189C68.4486 413.989 74.1121 414.069 79.7757 414.747C80.7871 415.067 81.2321 415.825 81.313 416.783C81.3535 417.183 81.4344 417.542 81.4748 417.941C82.0412 426.764 82.0412 435.587 81.7985 444.409C81.6771 449.679 81.3535 454.949 80.9894 460.218C80.6253 465.408 80.0589 470.638 79.6139 475.828C79.5735 476.147 79.6139 476.506 79.6139 476.945C83.7807 477.504 87.7048 478.862 91.6288 480.179C94.2584 481.057 96.807 482.135 98.9915 483.852C99.9219 484.531 100.529 485.489 101.216 486.287Z" fill="#372F2C"/>
<path d="M50.1228 414.308C47.1696 414.228 44.2165 414.069 41.2633 414.109C37.8652 414.189 34.5075 414.468 31.1093 414.668C30.988 409.997 30.8666 405.366 30.7857 400.695C30.7048 396.902 30.543 393.11 30.5025 389.317C30.3811 379.776 30.3002 370.195 30.2193 360.653C30.1789 355.424 30.2193 350.194 30.2193 344.924C30.2193 343.208 30.6643 342.689 32.4038 342.529C35.1143 342.289 37.8247 342.13 40.5351 341.93C43.3669 341.73 46.2392 341.491 49.071 341.371C51.296 341.291 52.1455 342.329 51.741 344.525C51.7005 344.765 51.6196 345.004 51.6196 345.244C51.4982 348.198 51.3769 351.192 51.296 354.146C51.1746 358.697 51.0532 363.248 50.9723 367.799C50.851 372.35 50.7701 376.902 50.6892 381.453C50.6083 387.082 50.5273 392.751 50.4869 398.38C50.4869 399.697 50.6892 401.054 50.6892 402.372C50.6892 403.849 50.5273 405.326 50.4464 406.803C50.2846 409.438 50.2037 411.873 50.1228 414.308Z" fill="#FFB674"/>
<path d="M79.8162 414.748C74.1931 414.069 68.5295 413.989 62.8254 414.189C62.1377 414.229 61.4904 414.269 60.8027 414.309C60.6409 410.436 60.4386 406.564 60.3173 402.691C60.2768 401.614 60.4791 400.496 60.5195 399.418C60.56 396.104 60.56 392.791 60.5195 389.477C60.4386 383.05 60.3577 376.663 60.2363 370.235C60.1554 366.722 60.0745 363.249 59.9532 359.736C59.8723 356.861 59.7913 353.987 59.6295 351.113C59.5082 348.757 59.3059 346.442 59.1441 344.086C59.0227 342.41 59.8723 341.372 61.5713 341.452C64.5245 341.571 67.4777 341.811 70.4308 342.01C72.1703 342.13 73.9099 342.21 75.6494 342.33C76.8226 342.41 77.9553 342.49 79.1285 342.649C80.1803 342.809 80.7062 343.488 80.7466 344.526C80.7466 344.925 80.7466 345.284 80.7466 345.683C80.7466 358.658 80.7871 371.632 80.7062 384.567C80.7062 388.799 80.5039 392.991 80.3825 397.222C80.3016 400.416 80.2207 403.65 80.0994 406.843C80.0589 409.478 79.9376 412.113 79.8162 414.748Z" fill="#FFB674"/>
<path d="M77.3485 248.992C77.3485 249.87 77.3485 250.709 77.3485 251.587C77.2676 251.986 77.1058 252.385 77.0653 252.825C76.7821 255.939 76.6203 259.052 76.2158 262.126C75.4876 267.596 74.719 273.065 73.7076 278.454C72.1299 286.678 70.6735 294.862 70.9567 303.286C71.1994 310.272 69.9049 317.139 67.8822 323.806C66.5472 328.157 64.8886 332.429 64.4031 336.98C64.2009 338.816 64.039 340.653 63.8772 342.529C64.4436 342.649 64.8886 342.609 65.1718 342.808C65.4145 342.928 65.6572 343.327 65.6572 343.567C65.6572 343.846 65.4145 344.166 65.1718 344.325C65.0099 344.445 64.7268 344.405 64.484 344.405C61.0859 344.525 57.6877 344.645 54.2896 344.764C53.6018 344.804 52.9546 344.924 52.2669 345.004C51.5791 345.004 50.8914 345.004 50.2037 345.004C48.9901 342.449 47.6955 339.934 47.0887 337.139C46.1987 332.868 45.1874 328.596 44.3378 324.325C42.5578 315.462 40.8992 306.599 38.5124 297.896C36.5706 290.83 35.4784 283.644 35.2356 276.339C35.2356 275.979 35.0738 275.58 34.9929 275.221C34.9929 273.504 34.9929 271.748 34.9929 270.031C35.0738 269.791 35.1952 269.592 35.1952 269.352C35.3974 264.602 35.6402 259.891 35.802 255.14C35.8829 253.064 35.7615 251.028 35.802 248.952C35.802 247.275 36.3279 246.796 37.9461 246.677C39.0383 246.597 40.171 246.477 41.2633 246.357C48.3428 245.679 55.4223 246.198 62.5018 246.756C65.9808 246.996 69.4599 247.236 72.9794 246.717C75.6494 246.277 76.1753 246.597 77.3485 248.992Z" fill="#D23D27"/>
<path d="M25.3648 347.799C25.2839 347.28 25.1221 346.801 25.1221 346.282C25.2839 341.291 25.4053 336.301 25.6884 331.311C25.9312 326.92 26.2143 322.528 26.6189 318.137C26.9425 314.664 27.428 311.19 27.9134 307.717C28.3584 304.483 28.5607 301.21 28.2371 297.936C28.0348 295.781 27.3066 293.625 26.7402 291.509C24.8793 284.802 23.3016 278.055 22.2903 271.149C21.9262 268.753 21.8048 266.278 21.643 263.843C21.3194 258.973 21.0362 254.062 20.7935 249.192C20.7126 247.874 20.7935 246.517 20.7935 245.24C22.5735 244.481 34.5884 244.721 37.9865 245.559C38.0674 245.798 38.1888 246.078 38.1888 246.357C38.5124 251.188 38.7147 256.018 39.1192 260.849C39.8474 269.472 40.8588 278.095 42.9219 286.559C43.4074 288.515 44.176 290.391 45.0256 292.188C47.2505 296.858 48.5451 301.809 49.3541 306.919C50.1228 311.789 50.6082 316.7 50.5678 321.65C50.5678 324.325 50.77 327.039 50.7296 329.714C50.6082 334.904 50.3655 340.054 50.2037 345.244C50.1632 346.481 49.8396 346.84 48.5046 346.92C44.7424 347.16 40.9397 347.359 37.137 347.519C35.1547 347.599 33.132 347.519 31.1498 347.559C30.7857 347.559 30.4216 347.719 30.0575 347.799C28.4798 347.799 26.9021 347.799 25.3648 347.799Z" fill="#F8543C"/>
<path d="M81.4343 347.799C80.9893 347.719 80.5039 347.599 80.0589 347.599C75.0426 347.48 70.0262 347.36 65.0504 347.2C64.2817 347.16 63.5131 347.04 62.7445 346.921C61.7331 346.761 61.4095 346.402 61.3286 345.404C61.2881 344.845 61.2881 344.246 61.2881 343.687C61.1263 337.26 60.8027 330.832 60.8431 324.405C60.8431 318.816 61.1668 313.187 62.0568 307.638C62.9468 302.009 64.3627 296.579 66.8708 291.429C68.7317 287.677 69.379 283.605 70.0667 279.533C70.714 275.62 71.2803 271.668 71.7658 267.716C72.0894 264.961 72.2512 262.167 72.4535 259.412C72.7367 255.939 72.9794 252.426 73.2626 248.953C73.3435 247.875 73.3839 246.757 73.4244 245.719C76.0135 244.761 88.8779 244.441 90.7793 245.28C90.7793 246.557 90.8197 247.915 90.7793 249.232C90.6174 252.585 90.4152 255.939 90.2129 259.292C89.7679 267.356 88.9588 275.341 86.9361 283.166C85.7629 287.677 84.428 292.148 83.5784 296.699C83.0525 299.454 83.2143 302.328 83.4166 305.162C83.6593 308.795 84.3066 312.388 84.6707 316.021C85.1157 320.013 85.5202 324.006 85.8034 328.038C86.0461 331.391 86.0866 334.744 86.2079 338.098C86.2889 340.892 86.3698 343.647 86.4507 346.442C86.4507 346.881 86.2889 347.36 86.2079 347.799C84.5493 347.799 83.0121 347.799 81.4343 347.799Z" fill="#F8543C"/>
<path d="M96.6452 365.524C95.2293 364.606 94.4606 363.248 94.0561 361.691C93.8134 360.813 93.6111 359.935 93.4088 359.096C92.802 359.017 92.1952 359.096 91.7502 358.857C91.3457 358.617 91.022 358.059 90.9007 357.579C90.213 354.625 90.0107 351.631 90.2939 348.397C91.022 348.238 91.7098 347.958 92.357 347.998C94.5011 348.118 96.6047 348.318 98.7083 348.517C99.0724 348.557 99.477 348.637 99.8411 348.677C99.922 348.597 100.003 348.557 100.043 348.477C100.124 347.958 100.205 347.28 100.933 347.399C101.904 347.519 101.904 348.318 101.904 349.076C101.904 349.954 101.904 350.833 101.904 351.711C101.581 354.346 101.419 357.021 100.933 359.655C100.529 361.891 99.8411 364.127 97.7779 365.564C97.4138 365.524 97.0093 365.524 96.6452 365.524Z" fill="#FFA194"/>
<path d="M10.4372 349.116C10.4372 349.036 10.4372 348.916 10.4372 348.837C10.4372 348.158 10.6395 347.479 11.3677 347.479C11.7317 347.479 12.0958 348.158 12.6622 348.717C14.8467 348.517 17.3953 348.238 19.9439 348.038C20.5912 347.998 21.2385 348.238 22.0476 348.397C22.2094 350.354 22.2094 352.15 22.0476 353.947C21.9262 355.144 21.7644 356.302 21.4812 357.46C21.1171 358.937 20.5508 359.256 19.0135 358.937C18.2449 361.292 18.164 364.007 15.6963 365.524C15.2917 365.524 14.9276 365.524 14.5231 365.524C12.824 364.366 11.9745 362.61 11.6508 360.733C11.0845 357.739 10.8013 354.705 10.3968 351.711C10.4372 350.833 10.4372 349.954 10.4372 349.116Z" fill="#FFA194"/>
<path d="M64.8482 291.988C68.6913 291.988 72.5345 291.988 76.3776 292.068C78.3599 292.108 80.3421 292.347 82.3244 292.587C83.8616 292.786 84.3875 293.345 84.428 294.862C84.4684 296.619 84.428 298.415 84.3066 300.172C84.2257 301.769 83.7403 302.128 82.0816 302.128C76.4585 302.128 70.7949 302.128 65.1718 302.128C65.0504 298.775 64.9291 295.381 64.8482 291.988Z" fill="#372F2C"/>
<path d="M48.7069 301.689C45.9156 301.529 43.0838 301.37 40.2924 301.21C36.8134 301.01 33.3343 300.851 29.8148 300.691C28.7225 300.651 28.0348 300.012 27.9539 298.894C27.8325 297.577 27.7516 296.22 27.7112 294.862C27.6707 293.146 28.1562 292.587 29.8552 292.507C32.4443 292.387 34.9929 292.307 37.582 292.267C40.4543 292.227 43.3265 292.227 46.1583 292.188C46.7247 292.188 47.3315 292.108 47.8978 292.068L47.9787 292.148L48.0192 292.068C48.1406 292.068 48.3024 292.068 48.4237 292.028C48.5046 292.267 48.626 292.467 48.626 292.707C48.7069 295.781 48.7069 298.735 48.7069 301.689Z" fill="#372F2C"/>
<path d="M48.7069 301.689C48.7069 298.735 48.7069 295.741 48.6665 292.786C48.6665 292.547 48.5451 292.347 48.4642 292.108C48.9901 290.551 48.9901 290.551 50.8105 290.511C53.1164 290.471 55.4223 290.311 57.7687 290.231C59.8318 290.231 61.895 290.231 63.9177 290.231C64.9291 290.471 64.7268 291.269 64.8482 291.948C64.9291 295.341 65.0504 298.735 65.1313 302.128C65.0909 302.607 65.0504 303.046 65.01 303.645C64.565 303.725 64.2009 303.845 63.8368 303.845C59.5082 303.925 55.1796 304.044 50.851 304.084C49.1115 304.124 48.9092 303.885 48.7474 302.088C48.7474 302.008 48.7069 301.849 48.7069 301.689ZM52.9951 293.186C52.7523 293.465 52.6714 293.505 52.631 293.625C51.9433 295.621 52.2264 297.697 52.3478 299.733C52.3883 300.491 52.9951 300.97 53.8851 300.97C55.9482 300.97 57.9709 301.01 60.0341 301.01C61.0455 301.01 61.45 300.691 61.5309 299.853C61.6523 298.336 61.7736 296.779 61.8141 295.262C61.8141 293.824 61.2477 293.265 59.7914 293.226C58.1732 293.186 56.5955 293.226 54.9773 293.226C54.2491 293.186 53.521 293.186 52.9951 293.186Z" fill="#FC9C47"/>
<path d="M52.995 293.186C53.5209 293.186 54.2491 293.186 54.9773 293.186C56.5955 293.186 58.1732 293.186 59.7913 293.186C61.2477 293.226 61.8545 293.784 61.8141 295.222C61.7736 296.739 61.6927 298.296 61.5309 299.813C61.45 300.651 61.0454 300.97 60.0341 300.97C57.9709 300.97 55.9482 300.93 53.885 300.93C52.995 300.93 52.3882 300.411 52.3478 299.693C52.2264 297.657 51.9028 295.581 52.631 293.585C52.6714 293.505 52.7523 293.425 52.995 293.186Z" fill="#FFE0BF"/>
<path d="M10.4372 243.243C12.5004 243.243 14.5231 243.243 16.5863 243.243C17.5976 243.323 18.609 243.523 19.6203 243.483C21.4003 243.443 22.2094 244.441 22.4117 246.158C22.7353 249.391 22.9376 252.665 23.0589 255.899C23.2207 260.769 23.2207 265.679 23.3826 270.59C23.5039 274.941 23.7062 279.293 23.9489 283.684C24.1916 288.275 24.5153 292.866 24.8389 297.457C25.203 303.246 25.6075 309.035 26.0121 314.823C26.1739 317.298 26.2953 319.773 26.4571 322.289C21.5217 323.287 16.4649 323.406 11.4486 323.646C9.10222 323.766 6.71542 323.486 4.32862 323.366C4.12635 320.772 3.92408 318.217 3.76226 315.622C3.47908 311.27 3.23636 306.919 2.95318 302.567C2.83181 300.891 2.71045 299.214 2.62954 297.537C2.38682 291.988 2.18455 286.399 1.98227 280.85C1.78 274.941 1.57773 269.073 1.37546 263.164C1.29455 260.689 1.17319 258.174 1.09228 255.699C1.09228 253.384 1.09228 251.068 1.09228 248.753C1.17319 248.274 1.29455 247.834 1.33501 247.355C1.69909 245.12 2.7509 244.082 5.01634 243.842C6.79633 243.643 8.61677 243.443 10.4372 243.243Z" fill="#D23D27"/>
<path d="M95.7551 243.243C97.8183 243.243 99.841 243.243 101.904 243.243C103.563 243.443 105.262 243.643 106.921 243.842C109.793 244.162 110.602 244.92 111.087 247.675C111.168 248.034 111.209 248.433 111.29 248.793C111.29 251.108 111.29 253.423 111.29 255.739C111.168 259.771 111.128 263.803 110.966 267.835C110.845 271.907 110.642 275.979 110.44 280.051C110.4 281.009 110.4 281.968 110.359 282.926C110.197 286.479 109.995 290.032 109.833 293.545C109.712 295.98 109.631 298.415 109.469 300.89C109.226 305.362 108.903 309.793 108.66 314.224C108.539 316.38 108.458 318.536 108.296 320.692C108.256 321.61 108.094 322.488 108.013 323.406C105.586 323.526 103.158 323.646 100.731 323.726C99.5174 323.766 98.3038 323.526 97.0901 323.486C93.3279 323.366 89.5657 323.047 85.8439 322.328C86.0866 318.416 86.2889 314.504 86.5316 310.552C86.653 308.555 86.7339 306.519 86.8957 304.523C87.1789 300.691 87.462 296.898 87.7452 293.066C87.8666 291.309 87.9879 289.513 88.0689 287.756C88.3116 282.806 88.5543 277.896 88.7566 272.945C88.9184 268.714 88.8779 264.522 89.0802 260.29C89.2825 255.659 89.5657 250.988 89.8893 246.357C90.0107 244.561 90.9006 243.403 92.8424 243.523C93.8134 243.563 94.7842 243.323 95.7551 243.243Z" fill="#D23D27"/>
<path d="M4.28815 323.366C6.67495 323.486 9.06175 323.766 11.4081 323.646C16.4244 323.406 21.4812 323.287 26.4166 322.289C26.4571 322.608 26.538 322.967 26.538 323.287C26.6593 329.235 26.8212 335.183 26.9425 341.132C26.983 342.888 27.0234 344.685 27.0234 346.441C27.0234 348.876 26.4975 349.435 23.9489 349.675C20.308 349.994 16.7076 350.274 13.0667 350.593C12.5004 350.593 11.8935 350.593 11.3272 350.633C10.2349 350.513 9.10221 350.433 8.00994 350.314C6.6345 350.154 6.10859 349.675 5.98723 348.318C5.78496 346.082 5.62314 343.846 5.46133 341.611C5.09724 336.86 4.73315 332.069 4.40952 327.319C4.28815 325.961 4.32861 324.644 4.28815 323.366ZM20.7126 343.687C22.1285 343.687 23.2207 342.569 23.2612 341.092C23.3016 339.615 22.0476 338.377 20.5103 338.337C19.0539 338.297 17.9212 339.375 17.8808 340.812C17.7999 342.329 19.1753 343.647 20.7126 343.687Z" fill="#372F2C"/>
<path d="M85.9248 322.289C89.6466 323.007 93.4088 323.327 97.1711 323.446C98.3847 323.486 99.5983 323.686 100.812 323.686C103.239 323.646 105.666 323.486 108.094 323.366C107.932 326.201 107.77 328.995 107.568 331.83C107.446 333.706 107.325 335.543 107.204 337.419C106.961 340.932 106.718 344.485 106.435 347.998C106.314 349.675 105.828 350.114 104.089 350.314C103.077 350.433 102.066 350.513 101.055 350.633C100.488 350.633 99.8815 350.633 99.3151 350.593C95.7956 350.314 92.2356 349.994 88.7161 349.715C88.4329 349.675 88.1498 349.675 87.8666 349.595C85.8843 349.236 85.3584 348.717 85.3989 346.721C85.4798 340.852 85.6821 335.024 85.8034 329.155C85.8439 327.558 85.8439 326.001 85.8439 324.404C85.8034 323.726 85.8843 323.007 85.9248 322.289ZM91.8311 338.337C90.2534 338.377 89.0398 339.575 89.0398 341.052C89.0802 342.529 90.1725 343.647 91.5884 343.647C93.1661 343.647 94.5011 342.329 94.4606 340.812C94.4202 339.415 93.2874 338.337 91.8311 338.337Z" fill="#372F2C"/>
<path d="M20.7126 343.687C19.1349 343.687 17.7999 342.329 17.8403 340.852C17.8808 339.415 19.054 338.337 20.4699 338.377C22.0476 338.417 23.2612 339.615 23.2208 341.132C23.2612 342.569 22.1285 343.687 20.7126 343.687Z" fill="#FFE0BF"/>
<path d="M91.8311 338.337C93.2875 338.337 94.4202 339.415 94.4606 340.852C94.5011 342.329 93.1256 343.687 91.5884 343.687C90.1725 343.687 89.0802 342.569 89.0397 341.092C89.0397 339.575 90.2938 338.377 91.8311 338.337Z" fill="#FFE0BF"/>
<path d="M15.2108 238.732C16.3435 238.932 17.4358 239.092 18.5685 239.291C21.2789 239.81 23.5039 241.088 25.1221 243.363C25.1221 243.443 25.1625 243.523 25.1625 243.643C25.0816 244.521 25.2839 245.559 24.8794 246.277C23.9489 248.034 22.6948 249.631 20.8744 250.469C16.384 252.585 11.6104 253.224 6.75587 252.186C4.04543 251.627 1.65863 250.23 1.05182 247.156C0.890003 246.357 0.930457 245.559 0.849548 244.76C0.849548 244.721 0.890003 244.601 0.890003 244.521C2.58908 241.327 5.54224 240.01 8.89994 239.291C9.91129 239.092 10.9227 238.932 11.934 238.732C13.0667 238.732 14.159 238.732 15.2108 238.732Z" fill="#FFB674"/>
<path d="M88.878 243.363C90.9816 240.489 93.9752 239.331 97.4138 239.012C97.8588 238.972 98.3038 238.852 98.7488 238.732C99.8006 238.732 100.893 238.732 101.945 238.732C102.956 238.932 103.967 239.092 104.979 239.291C108.336 240.01 111.29 241.327 112.989 244.521C112.989 244.601 113.029 244.681 113.029 244.8C113.029 245.24 113.07 245.719 112.989 246.198C112.786 247.874 112.26 249.351 110.885 250.429C109.226 251.707 107.325 252.386 105.302 252.545C101.54 252.865 97.8992 252.346 94.3393 251.108C92.0738 250.31 90.6175 248.633 89.242 246.796C88.5139 245.798 88.8375 244.681 88.7566 243.603C88.8375 243.523 88.8375 243.443 88.878 243.363Z" fill="#FFB674"/>
<path d="M0.890001 244.76C0.97091 245.559 0.930455 246.397 1.09227 247.156C1.69909 250.23 4.08588 251.627 6.79632 252.186C11.6508 253.224 16.4244 252.585 20.9148 250.469C22.7757 249.591 24.0298 247.994 24.9198 246.278C25.3244 245.559 25.1221 244.521 25.1625 243.603C27.0234 245.399 26.7402 249.751 24.7175 251.747C22.6948 253.783 20.1867 254.821 17.4358 255.42C16.5053 255.619 15.5749 255.819 14.6444 256.018C13.1881 256.018 11.7317 256.018 10.2754 256.018C10.0731 255.939 9.87084 255.819 9.66857 255.779C8.29312 255.46 6.91768 255.3 5.62314 254.821C3.03407 253.903 0.849547 252.545 0.0404625 249.711C0.0404625 248.713 0.0404625 247.755 0.0404625 246.757C0.283188 246.118 0.606822 245.439 0.890001 244.76Z" fill="#E77E1F"/>
<path d="M88.8375 243.603C88.9184 244.681 88.5948 245.798 89.3229 246.796C90.6984 248.633 92.1547 250.31 94.4202 251.108C97.9801 252.346 101.621 252.865 105.383 252.545C107.446 252.386 109.348 251.667 110.966 250.429C112.341 249.351 112.908 247.834 113.07 246.198C113.11 245.719 113.07 245.24 113.07 244.76C113.353 245.439 113.676 246.118 113.96 246.796C113.96 247.795 113.96 248.753 113.96 249.751C113.555 251.268 112.705 252.585 111.33 253.344C110.036 254.062 108.701 254.701 107.285 255.18C106.031 255.619 104.696 255.779 103.401 256.058C102.026 256.058 100.691 256.058 99.3151 256.058C97.697 255.659 96.0383 255.34 94.4202 254.901C92.357 254.342 90.6175 253.224 89.1611 251.707C87.2598 249.671 87.0171 245.399 88.8375 243.603Z" fill="#E77E1F"/>
<path d="M25.1625 243.643C25.1625 243.563 25.1221 243.483 25.1221 243.363C25.203 243.443 25.203 243.523 25.1625 243.643Z" fill="#E77E1F"/>
<path d="M88.8779 243.363C88.8779 243.443 88.8375 243.523 88.8375 243.643C88.797 243.523 88.797 243.443 88.8779 243.363Z" fill="#E77E1F"/>
<path d="M0.890011 244.8C0.890011 244.721 0.890011 244.641 0.930465 244.521C0.930465 244.601 0.890011 244.681 0.890011 244.8Z" fill="#E77E1F"/>
<path d="M113.07 244.521C113.11 244.601 113.15 244.681 113.11 244.8C113.11 244.681 113.07 244.601 113.07 244.521Z" fill="#E77E1F"/>
<path d="M77.2271 256.617C76.8226 259.132 74.9212 260.17 72.4535 259.851C72.1703 260.969 72.0085 262.087 71.6444 263.164C70.7949 265.64 69.4599 266.398 66.8304 265.959C66.709 266.598 66.5877 267.236 66.4258 267.875C65.9404 269.632 65.2931 271.308 63.3513 271.907C62.5422 272.147 61.6118 271.867 60.6813 271.827C59.9532 273.704 59.0632 275.58 56.6359 275.899C53.2782 276.379 51.7005 274.382 50.7701 271.548C49.3542 272.187 48.1405 272.426 47.0078 271.308C46.0774 270.35 45.4301 269.272 45.1065 267.955C44.9446 267.276 44.8233 266.558 44.7019 265.879C42.396 266.318 41.2633 265.879 40.3329 264.123C40.0092 263.484 39.7665 262.805 39.5642 262.126C39.362 261.368 39.2406 260.569 39.0788 259.691C38.0674 260.051 37.0965 260.21 36.247 259.492C34.8715 258.334 34.1029 256.937 33.9816 255.14C33.9411 254.741 33.9411 251.507 33.9816 251.308C34.5884 249.032 35.4379 246.836 36.8538 244.92C38.472 242.724 40.252 240.649 42.3556 238.852C45.9155 235.818 50.0014 234.261 54.6537 234.061C56.4337 233.982 58.2541 234.101 59.9936 234.341C63.3918 234.86 66.5472 236.097 69.1767 238.413C73.1817 241.966 75.6494 246.477 76.9035 251.627C77.1058 252.346 77.5508 254.701 77.2271 256.617Z" fill="#FFE0BF"/>
<path d="M35.802 212.783C35.8829 212.743 35.9234 212.743 36.0043 212.783C36.0043 213.182 36.0043 213.542 36.0043 213.941L35.8829 213.981L35.7616 213.941C35.802 213.542 35.802 213.182 35.802 212.783Z" fill="#FFA194"/>
<path d="M76.4181 213.941L76.2967 213.981L76.1753 213.941C76.1753 213.542 76.1753 213.182 76.1753 212.783C76.2562 212.743 76.2967 212.743 76.3776 212.783C76.4181 213.182 76.4181 213.542 76.4181 213.941Z" fill="#FFA194"/>
<path d="M48.626 239.93C44.5806 240.09 41.506 237.095 40.8183 233.383C40.7779 233.143 40.7779 232.904 40.7779 232.664C40.8588 232.025 41.3038 231.666 41.8701 231.866C42.3151 232.025 42.6792 232.385 43.0838 232.624C43.8524 233.103 44.5806 233.702 45.3896 234.061C46.7651 234.7 48.0192 234.421 49.1519 233.423C49.6373 232.984 50.2037 232.544 50.7296 232.145C51.5791 231.506 52.5905 231.307 53.6423 231.427C55.0582 231.586 55.9077 232.425 56.11 233.822C56.3527 235.738 55.0582 237.894 53.076 238.812C51.6601 239.571 50.1228 240.01 48.626 239.93Z" fill="#372F2C"/>
<path d="M65.1313 239.93C63.6345 239.97 62.1781 239.531 60.7622 238.852C59.2654 238.094 58.2136 236.936 57.89 235.259C57.3641 232.624 58.9418 230.868 61.895 231.626C62.7445 231.826 63.594 232.425 64.2009 233.023C66.2236 235.059 68.2867 234.66 70.4308 232.984C70.714 232.784 70.9163 232.505 71.1994 232.305C71.6849 231.906 72.2108 231.626 72.7772 231.985C73.3435 232.345 73.1817 232.944 73.1008 233.423C72.3726 237.215 69.3385 240.169 65.1313 239.93Z" fill="#372F2C"/>
<path d="M60.3173 227.913C60.1959 228.153 56.3123 228.113 54.3705 228.073C53.8446 228.073 53.4805 227.913 53.6423 227.195C53.7637 226.636 53.8041 226.157 53.9255 225.638C54.6132 222.205 55.3009 218.731 55.9887 215.298C56.0696 214.899 56.1909 214.46 56.3528 214.061C56.5955 213.502 57.3237 213.462 57.6473 214.021C57.8496 214.34 57.9305 214.739 58.0114 215.099C58.6586 218.173 59.3059 221.247 59.9127 224.321C60.115 225.478 60.56 227.275 60.3173 227.913Z" fill="#F8543C"/>
<path d="M36.0043 213.942C36.0043 213.543 35.8829 213.143 36.0043 212.784C36.4088 211.347 38.1888 211.387 39.4024 211.147C40.8992 210.828 42.477 210.828 44.0142 210.748C44.621 210.748 45.2683 210.908 45.8347 211.147C46.6437 211.467 47.0078 212.225 46.846 212.984C46.6437 213.862 46.1987 214.141 45.2683 214.061C42.6792 213.742 40.0901 213.742 37.5011 214.461C36.8943 214.62 36.3279 214.58 36.0043 213.942Z" fill="#372F2C"/>
<path d="M76.2158 212.783C76.3776 213.142 76.2158 213.542 76.2158 213.941C75.8921 214.58 75.3258 214.62 74.719 214.46C72.1703 213.741 69.5813 213.741 66.9518 214.061C66.3854 214.14 65.8999 214.061 65.5763 213.502C65.2122 212.863 65.2527 212.144 65.6977 211.625C66.2236 210.987 66.9922 210.787 67.7608 210.747C70.1476 210.587 72.494 210.867 74.7594 211.665C75.2853 211.865 75.9326 212.224 76.2158 212.783Z" fill="#372F2C"/>
<path d="M59.1441 255.02C57.4046 254.941 55.8673 254.861 54.2491 254.781C54.2087 252.984 54.1278 251.228 54.0873 249.351C55.4628 249.312 56.8787 249.232 58.2541 249.232C58.78 249.232 58.9823 249.551 59.0227 250.07C59.0227 251.627 59.1036 253.224 59.1441 255.02Z" fill="#FFA194"/>
<path d="M58.8205 247.715C57.2023 247.635 55.665 247.555 54.0469 247.515C54.0064 245.998 53.9659 244.441 53.885 242.804C55.4223 242.764 57 242.724 58.6587 242.645C58.6991 244.241 58.78 245.918 58.8205 247.715Z" fill="#FFA194"/>
<path d="M60.9241 254.861C60.8432 252.944 60.8027 251.228 60.7623 249.431C62.34 249.391 63.8368 249.072 65.4954 249.751C65.4145 251.028 65.3336 252.346 65.2527 253.663C65.2122 254.102 65.0099 254.302 64.6054 254.501C63.4322 254.98 62.2186 254.741 60.9241 254.861Z" fill="#FFA194"/>
<path d="M52.186 249.471C52.2264 251.228 52.3073 252.944 52.3478 254.701C51.1746 255.14 50.0419 254.701 48.9092 254.541C48.3428 254.461 47.9383 254.062 47.8978 253.344C47.8574 252.266 47.6146 251.188 47.5742 250.11C47.5337 249.471 47.8169 249.232 48.4237 249.272C49.6778 249.312 50.8914 249.391 52.186 249.471Z" fill="#FFA194"/>
<path d="M60.56 242.365C61.6927 242.485 62.7041 242.565 63.675 242.645C64.4031 242.685 64.8481 243.044 64.929 243.762C65.0909 245.04 65.2527 246.277 65.4145 247.555C63.7559 248.154 62.2591 247.435 60.7218 247.595C60.6813 245.918 60.6004 244.281 60.56 242.365Z" fill="#FFA194"/>
<path d="M47.8169 247.755C47.7765 246.637 47.736 245.759 47.736 244.84C47.736 243.643 47.9383 243.403 49.1519 243.084C49.8801 242.924 50.6487 242.844 51.4173 242.764C52.0242 242.685 52.3478 242.964 52.3478 243.563C52.3882 244.601 52.3882 245.679 52.4287 246.717C52.4692 247.315 52.186 247.595 51.5792 247.595C50.3655 247.675 49.1519 247.715 47.8169 247.755Z" fill="#FFA194"/>
<path d="M39.1597 219.211C39.1193 218.532 39.4024 218.013 39.5643 217.534C39.7665 216.975 40.1711 216.536 40.8183 216.496C41.5465 216.456 41.9915 216.855 42.3556 217.414C42.8815 218.292 42.6792 220.328 41.9915 221.127C41.3847 221.845 40.4138 221.885 39.8879 221.087C39.5642 220.528 39.2002 219.849 39.1597 219.211Z" fill="#372F2C"/>
<path d="M72.9795 219.171C72.939 219.69 72.6558 220.368 72.2917 220.967C71.7254 221.885 70.5926 221.885 70.0263 220.967C69.4195 219.969 69.2981 218.891 69.6217 217.773C69.8645 217.015 70.4713 216.496 71.159 216.496C71.8467 216.496 72.2917 216.855 72.6154 217.694C72.8176 218.093 73.0604 218.532 72.9795 219.171Z" fill="#372F2C"/>
<path d="M24.1916 160.526C24.1916 159.368 24.1916 158.21 24.1512 157.052C24.2321 156.493 24.313 155.974 24.3535 155.416C24.3939 154.617 24.4344 153.819 24.4344 153.06C26.0525 152.102 27.7112 151.982 29.3293 151.862C33.9816 151.543 38.6338 151.343 43.286 151.184C46.4415 151.064 49.5969 151.064 52.7523 151.024C55.0178 152.062 57.2428 152.022 59.5082 151.024C64.3222 151.184 69.1363 151.264 73.9099 151.463C77.2676 151.583 80.5848 151.783 83.9425 152.062C85.318 152.182 86.7743 152.342 88.0284 153.22C88.2711 157.012 88.0689 160.845 87.8262 164.677C85.3989 164.518 83.0121 164.318 80.5848 164.158C77.1867 163.959 73.829 163.799 70.4308 163.639C68.4486 163.56 66.4663 163.44 64.4841 163.4C60.8027 163.32 57.1214 163.16 53.3996 163.2C46.4415 163.28 39.5238 163.48 32.5657 163.639C32.3634 163.639 32.1611 163.639 31.9993 163.639C29.4911 163.839 26.983 164.039 24.4748 164.238C24.4344 163.001 24.313 161.763 24.1916 160.526Z" fill="#F8543C"/>
<path d="M52.7928 150.984C52.631 150.824 52.4287 150.665 52.2669 150.505C48.9092 147.79 49.3542 143.279 53.1973 141.283C53.9659 140.884 54.4514 140.605 55.3009 140.445C55.7864 140.365 56.555 140.325 57.0405 140.405C57.3236 140.445 57.6068 140.525 57.8496 140.605C60.3173 141.203 62.0568 142.561 62.5422 145.076C62.9872 147.431 61.895 149.228 60.0341 150.585C59.8723 150.705 59.7509 150.824 59.5891 150.944C57.3236 151.982 55.0582 152.022 52.7928 150.984Z" fill="#372F2C"/>
<path d="M87.9071 164.598C87.8261 166.713 87.7857 168.829 87.6239 170.905C87.4216 173.66 87.2193 176.454 86.9361 179.209C86.4911 183.6 86.0462 187.992 85.4798 192.343C84.9539 196.335 84.2662 200.288 83.6189 204.28C83.4975 205.078 83.2953 205.877 83.0121 206.635C82.6885 207.633 82.0816 207.992 81.0298 207.913C78.0362 207.713 75.0022 207.473 72.0085 207.274C69.7431 207.114 67.4372 206.955 65.1718 206.875C60.5195 206.755 55.8268 206.635 51.1746 206.715C44.9042 206.835 38.6338 207.154 32.3634 207.434C31.9184 207.434 31.5139 207.593 31.0689 207.633C29.7743 207.793 29.2484 207.434 29.0057 206.196C28.6416 204.16 28.318 202.124 28.0348 200.088C27.428 195.577 26.7807 191.066 26.2548 186.554C25.8098 182.802 25.4862 179.009 25.1625 175.257C24.8794 172.063 24.7175 168.829 24.5153 165.635C24.4748 165.156 24.5557 164.677 24.5557 164.198C27.0639 163.999 29.5721 163.799 32.0802 163.599C32.2825 163.599 32.4848 163.599 32.6466 163.599C39.6047 163.44 46.5224 163.24 53.4805 163.16C57.1618 163.12 60.8432 163.24 64.565 163.36C66.5472 163.4 68.5295 163.48 70.5117 163.599C73.9099 163.759 77.2676 163.919 80.6657 164.118C83.0525 164.238 85.4798 164.438 87.9071 164.598Z" fill="#D23D27"/>
<path d="M55.665 196.335C55.0987 194.738 54.4919 193.142 53.9659 191.505C52.7928 187.792 52.0241 184 52.1455 180.087C52.186 178.371 52.6714 176.814 53.4805 175.297C54.0873 174.179 55.0582 173.66 56.3123 173.58C57.5259 173.54 58.1327 174.338 58.6182 175.257C59.8318 177.532 60.2768 179.967 59.9532 182.482C59.67 184.638 59.3464 186.834 58.8205 188.95C58.2541 191.185 57.4855 193.341 56.7573 195.497C56.6359 195.816 56.3123 196.056 56.0696 196.335C55.9482 196.335 55.8268 196.335 55.665 196.335Z" fill="#FFB674"/>
<path d="M53.1973 197.533C52.55 197.413 52.105 197.413 51.741 197.293C47.1292 195.497 42.7197 193.261 39.362 189.549C38.5124 188.63 37.9865 187.393 37.4606 186.195C36.9752 185.117 37.4202 184.079 38.3102 183.401C38.6742 183.121 39.2811 182.962 39.7261 183.041C42.2342 183.281 44.2165 184.519 45.8346 186.315C48.5855 189.229 50.8105 192.543 52.5905 196.136C52.7928 196.495 52.9141 196.894 53.1973 197.533Z" fill="#FFB674"/>
<path d="M59.1036 197.533C59.2654 196.974 59.3059 196.655 59.4273 196.375C61.3691 192.423 63.7963 188.79 66.9113 185.676C68.3272 184.279 70.0667 183.281 72.0894 183.001C73.8694 182.762 75.3662 184.239 74.7594 185.996C74.3549 187.233 73.7076 188.511 72.8176 189.469C70.2285 192.383 66.9113 194.379 63.3918 195.976C62.4209 196.415 61.45 196.814 60.4386 197.214C60.1554 197.413 59.7104 197.453 59.1036 197.533Z" fill="#FFB674"/>
</g>
<defs>
<clipPath id="clip0">
<rect width="114" height="490" fill="white"/>
</clipPath>
</defs>
</svg>
