<?xml version="1.0" encoding="utf-8"?>
<!-- Generator: Adobe Illustrator 27.9.0, SVG Export Plug-In . SVG Version: 6.00 Build 0)  -->
<svg version="1.1" id="Layer_1" xmlns="http://www.w3.org/2000/svg" xmlns:xlink="http://www.w3.org/1999/xlink" x="0px" y="0px"
	 viewBox="0 0 451.5 234.8" style="enable-background:new 0 0 451.5 234.8;" xml:space="preserve">
<style type="text/css">
	.st0{fill:#FFFFFF;}
</style>
<path class="st0" d="M427.5,21.7c14.3,0,24.1,19,24.1,50.3c0,31.2-9.8,50.3-24.1,50.3c-14.1,0-23.9-19-23.9-50.3
	C403.5,40.8,413.3,21.7,427.5,21.7z M427.5,121c11.6,0,17.2-16.8,17.2-49c0-32.3-5.6-49-17.2-49c-11.5,0-17.1,16.7-17.1,49
	C410.4,104.2,416,121,427.5,121z"/>
<path class="st0" d="M385.6,23h12.3v1.3c-4.3,0-5.5,1.1-5.5,4.8v92H391l-32.2-90.3V115c0,3.6,1.1,4.8,5.5,4.8v1.3H352v-1.3
	c4.3,0,5.5-1.1,5.5-4.8V29c0-3.6-1.1-4.8-5.5-4.8V23h11.3l27.7,77.6V29c0-3.6-1.1-4.8-5.5-4.8V23z"/>
<path class="st0" d="M322.5,23c13.4,0,25.3,9.5,25.3,49s-11.9,49-25.3,49H301v-1.3c4.3,0,5.6-1.1,5.6-4.8V29c0-3.6-1.3-4.8-5.6-4.8
	V23H322.5z M322.5,119.7c10.9,0,18.5-7.7,18.5-47.7s-10.2-47.7-18.5-47.7h-3.6c-4.3,0-5.5,1.1-5.5,4.8v86c0,3.6,1.1,4.8,5.5,4.8
	H322.5z"/>
<path class="st0" d="M292.5,115c0.8,3.9,1.1,4.8,5.6,4.8v1.3h-16.5v-1.3c4.3,0,4.6-1.1,3.9-4.6l-4.2-20.9h-21.8l-4.3,20.7
	c-0.7,4.1-0.4,4.8,4.8,4.8v1.3h-11.6v-1.3c4.5,0,4.8-0.8,5.6-4.8l18.8-92h1.3L292.5,115z M259.6,92.9H281l-10.6-52.6L259.6,92.9z"/>
<path class="st0" d="M247,99.7h1.3c0,0-3.6,16.7-4.6,21.3h-39.2v-1.3c4.5,0,5.6-1.1,5.6-4.8V29c0-3.6-1.1-4.8-5.6-4.8V23h18.1v1.3
	c-4.5,0-5.6,1.1-5.6,4.8v86c0,3.6,1.1,4.8,5.6,4.8h11.6C242.8,119.7,244.6,110.1,247,99.7z"/>
<path class="st0" d="M174.7,21.7c14.3,0,24.1,19,24.1,50.3c0,31.2-9.8,50.3-24.1,50.3c-14.1,0-23.9-19-23.9-50.3
	C150.7,40.8,160.5,21.7,174.7,21.7z M174.7,121c11.6,0,17.2-16.8,17.2-49c0-32.3-5.6-49-17.2-49c-11.5,0-17.1,16.7-17.1,49
	C157.6,104.2,163.2,121,174.7,121z"/>
<path class="st0" d="M146.3,115c1.3,4.2,1.5,4.8,5.9,4.8v1.3h-16.7v-1.3c4.3,0,4.9-0.6,3.5-4.6l-18.8-57.3l-4.8,7V115
	c0,3.6,1.1,4.8,5.6,4.8v1.3H103v-1.3c4.5,0,5.6-1.1,5.6-4.8V29c0-3.6-1.1-4.8-5.6-4.8V23h18.1v1.3c-4.5,0-5.6,1.1-5.6,4.8v33.6
	L138.2,29c2.5-3.8,0-4.8-4.5-4.8V23h14.6v1.3c-4.3,0-6,0.8-8.5,4.8L125,50.7L146.3,115z"/>
<path class="st0" d="M73.2,21.7c14.3,0,24.1,19,24.1,50.3c0,31.2-9.8,50.3-24.1,50.3c-14.1,0-23.9-19-23.9-50.3
	C49.3,40.8,59.1,21.7,73.2,21.7z M73.2,121c11.6,0,17.2-16.8,17.2-49c0-32.3-5.6-49-17.2-49c-11.5,0-17.1,16.7-17.1,49
	C56.1,104.2,61.7,121,73.2,121z"/>
<path class="st0" d="M43.9,99.6l1.1,0.6c-4.1,14-11.6,22.1-20.9,22.1c-15.8,0-23.9-19-23.9-50.3c0-31.2,9.7-50.3,23.9-50.3
	c10.8,0,14,10.2,15.5,10.2c1.1,0,0.1-7,0.1-9h1c0.3,2.1,2.7,23.2,2.9,25.1h-1.3C39.4,31.1,32.7,23,24.1,23C12.7,23,7.1,39.8,7.1,72
	c0,32.2,3.4,48.6,18.2,48.6C33.5,120.6,40.4,111.6,43.9,99.6z M24.7,12.1L35.8,0.7L27.9,16h-6.2L12.5,0.6L24.7,12.1z"/>
<path class="st0" d="M325.6,225.7c0.1,3.9,0.4,4.6,4.9,4.6l-0.3,1.3h-16.4l0.1-1.3c4.3,0,4.8-1,4.6-4.6l-0.8-20.9h-22l-7.4,20.9
	c-1.5,3.9-1.3,4.6,3.9,4.6l-0.1,1.3h-11.6l0.1-1.3c4.5,0,4.9-0.7,6.3-4.6l33.3-92.1h1.3L325.6,225.7z M296.3,203.5h21.3l-2.2-52.6
	L296.3,203.5z"/>
<path class="st0" d="M269.1,133.5c14.4,0,26.3,9.9,20.2,49.4c-6.3,39.8-20.7,48.6-34.9,48.6h-19.9l0.1-1.3c4.5,0,5.7-1,6.3-4.6
	l6.7-42.4h-5.5l0.1-1.4h5.6l6.7-42.3c0.6-3.6-0.4-4.8-4.9-4.8l0.3-1.3H269.1z M282.4,183c6.4-40-5.2-48.2-13.4-48.2h-1.1
	c-4.5,0-5.7,1.1-6.3,4.8l-6.7,42.3h11.3l-0.3,1.4h-11.3l-6.7,42.4c-0.6,3.6,0.4,4.6,4.9,4.6h2.8C265.8,230.3,275.9,222.7,282.4,183z
	"/>
<path class="st0" d="M240.3,133.5c0.3,4.6,1.3,21.4,1.3,21.4h-1.3c-0.8-10.4-1.1-20.2-9.7-20.2h-8.4c-4.5,0-5.9,1.3-6.4,4.8
	l-4.8,30.9h12.7c5.6,0,6.7-5.5,7.7-11.8h1.3l-3.9,24.6h-1.3c1-6.3,1.7-11.6-3.9-11.6h-12.9l-8.5,53.9c-0.6,3.5,0.4,4.6,4.9,4.6h11.6
	c8.5,0,11.9-9.7,16.1-20h1.1c0,0-6.2,16.8-8,21.3h-39.2l0.3-1.3c4.3,0,5.7-1.1,6.3-4.6l13.6-86.1c0.6-3.5-0.4-4.8-4.8-4.8l0.1-1.3
	H240.3z"/>
<path class="st0" d="M187.5,133.5h12.5l-0.1,1.3c-4.5,0-5.7,1.3-6.3,4.8l-13.7,86.1c-0.6,3.5,0.4,4.6,4.9,4.6l-0.3,1.3h-17.9
	l0.1-1.3c4.5,0,5.7-1.1,6.3-4.6l13.6-85.7l-33,91.6h-1.3l-5.7-88.5l-13,82.6c-0.6,3.5,0.4,4.6,4.9,4.6l-0.3,1.3h-12.5l0.3-1.3
	c4.3,0,5.7-1.1,6.3-4.6l13.6-86.1c0.6-3.5-0.4-4.8-4.8-4.8l0.1-1.3h11.8l5.3,81.3L187.5,133.5z"/>
<path class="st0" d="M129.6,133.5h1.1c-0.3,2.1-1.5,23.2-1.7,25.1h-1.1c-0.3-16.7-6.3-24.8-14.7-25.1c-7.3-0.1-14.6,6.3-15.8,17.4
	c-3.1,28.1,30.7,28.7,27.9,57.7c-1.5,15.8-13.2,24.8-24.8,24.2c-11.5-0.4-17.2-12.2-18.9-12.2c-1.1,0-1.7,8.7-2,10.9h-1.1
	c0-2.2,1.7-26.9,1.8-28.8h1.3c0.1,18.5,10.2,28.6,18.6,28.8c9.5,0.4,17.5-5.5,18.9-20.3c2.2-26.5-30.9-27.2-27.3-57.8
	c1.7-14.4,12.5-21.3,21.1-21.1c10.2,0.3,13.4,10.1,15,10.1C128.9,142.4,129.3,135.5,129.6,133.5z"/>
</svg>
