<svg width="726" height="123" viewBox="0 0 726 123" fill="none" xmlns="http://www.w3.org/2000/svg">
<path d="M427.46 21.7402C441.74 21.7402 451.54 40.7802 451.54 72.0002C451.54 103.22 441.74 122.26 427.46 122.26C413.32 122.26 403.52 103.22 403.52 72.0002C403.52 40.7802 413.32 21.7402 427.46 21.7402ZM427.46 121C439.08 121 444.68 104.2 444.68 72.0002C444.68 39.6602 439.08 23.0002 427.46 23.0002C415.98 23.0002 410.38 39.6602 410.38 72.0002C410.38 104.2 415.98 121 427.46 121Z" fill="white"/>
<path d="M385.577 23H397.897V24.26C393.557 24.26 392.437 25.38 392.437 29.02V121H391.037L358.837 30.7V114.98C358.837 118.62 359.957 119.74 364.297 119.74V121H351.977V119.74C356.317 119.74 357.437 118.62 357.437 114.98V29.02C357.437 25.38 356.317 24.26 351.977 24.26V23H363.317L391.037 100.56V29.02C391.037 25.38 389.917 24.26 385.577 24.26V23Z" fill="white"/>
<path d="M322.541 23C335.981 23 347.881 32.52 347.881 72C347.881 111.48 335.981 121 322.541 121H300.981V119.74C305.321 119.74 306.581 118.62 306.581 114.98V29.02C306.581 25.38 305.321 24.26 300.981 24.26V23H322.541ZM322.541 119.74C333.461 119.74 341.021 112.04 341.021 72C341.021 31.96 330.801 24.26 322.541 24.26H318.901C314.561 24.26 313.441 25.38 313.441 29.02V114.98C313.441 118.62 314.561 119.74 318.901 119.74H322.541Z" fill="white"/>
<path d="M292.519 114.98C293.359 118.9 293.639 119.74 298.119 119.74V121H281.599V119.74C285.939 119.74 286.219 118.62 285.519 115.12L281.319 94.26H259.479L255.139 114.98C254.439 119.04 254.719 119.74 259.899 119.74V121H248.279V119.74C252.759 119.74 253.039 118.9 253.879 114.98L272.639 23H273.899L292.519 114.98ZM259.619 92.86H281.039L270.399 40.22L259.619 92.86Z" fill="white"/>
<path d="M247.018 99.72H248.278C248.278 99.72 244.638 116.38 243.658 121H204.458V119.74C208.938 119.74 210.058 118.62 210.058 114.98V29.02C210.058 25.38 208.938 24.26 204.458 24.26V23H222.518V24.26C218.038 24.26 216.918 25.38 216.918 29.02V114.98C216.918 118.62 218.038 119.74 222.518 119.74H234.138C242.818 119.74 244.638 110.08 247.018 99.72Z" fill="white"/>
<path d="M174.667 21.7402C188.947 21.7402 198.747 40.7802 198.747 72.0002C198.747 103.22 188.947 122.26 174.667 122.26C160.527 122.26 150.727 103.22 150.727 72.0002C150.727 40.7802 160.527 21.7402 174.667 21.7402ZM174.667 121C186.287 121 191.887 104.2 191.887 72.0002C191.887 39.6602 186.287 23.0002 174.667 23.0002C163.187 23.0002 157.587 39.6602 157.587 72.0002C157.587 104.2 163.187 121 174.667 121Z" fill="white"/>
<path d="M146.272 114.98C147.532 119.18 147.812 119.74 152.152 119.74V121H135.492V119.74C139.832 119.74 140.392 119.18 138.992 115.12L120.232 57.86L115.472 64.86V114.98C115.472 118.62 116.592 119.74 121.072 119.74V121H103.012V119.74C107.492 119.74 108.612 118.62 108.612 114.98V29.02C108.612 25.38 107.492 24.26 103.012 24.26V23H121.072V24.26C116.592 24.26 115.472 25.38 115.472 29.02V62.62L138.152 29.02C140.672 25.24 138.152 24.26 133.672 24.26V23H148.232V24.26C143.892 24.26 142.212 25.1 139.692 29.02L124.992 50.72L146.272 114.98Z" fill="white"/>
<path d="M73.222 21.7402C87.502 21.7402 97.302 40.7802 97.302 72.0002C97.302 103.22 87.502 122.26 73.222 122.26C59.082 122.26 49.282 103.22 49.282 72.0002C49.282 40.7802 59.082 21.7402 73.222 21.7402ZM73.222 121C84.842 121 90.442 104.2 90.442 72.0002C90.442 39.6602 84.842 23.0002 73.222 23.0002C61.742 23.0002 56.142 39.6602 56.142 72.0002C56.142 104.2 61.742 121 73.222 121Z" fill="white"/>
<path d="M43.88 99.5801L45 100.14C40.94 114.14 33.38 122.26 24.14 122.26C8.31995 122.26 0.199951 103.22 0.199951 72.0001C0.199951 40.7801 9.85995 21.7401 24.14 21.7401C34.92 21.7401 38.14 31.9601 39.68 31.9601C40.8 31.9601 39.82 24.9601 39.82 23.0001H40.8C41.08 25.1001 43.46 46.2401 43.74 48.0601H42.48C39.4 31.1201 32.68 23.0001 24.14 23.0001C12.66 23.0001 7.05995 39.8001 7.05995 72.0001C7.05995 104.2 10.42 120.58 25.26 120.58C33.52 120.58 40.38 111.62 43.88 99.5801ZM24.7 12.0801L35.76 0.740096L27.92 16.0001H21.76L12.52 0.600098L24.7 12.0801Z" fill="white"/>
<path d="M721.048 115.12C721.188 119.04 721.468 119.74 725.948 119.74L725.668 121H709.288L709.428 119.74C713.768 119.74 714.188 118.76 714.048 115.12L713.208 94.26H691.228L683.808 115.12C682.268 119.04 682.548 119.74 687.728 119.74L687.588 121H675.968L676.108 119.74C680.588 119.74 681.008 119.04 682.408 115.12L715.728 23H716.988L721.048 115.12ZM691.788 93H713.068L710.828 40.36L691.788 93Z" fill="white"/>
<path d="M664.627 23C679.047 23 690.947 32.94 684.787 72.42C678.487 112.18 664.067 121 649.927 121H630.047L630.187 119.74C634.667 119.74 635.927 118.76 636.487 115.12L643.207 72.7H637.747L637.887 71.3H643.487L650.207 29.02C650.767 25.38 649.787 24.26 645.307 24.26L645.587 23H664.627ZM677.927 72.42C684.367 32.38 672.747 24.26 664.487 24.26H663.367C658.887 24.26 657.627 25.38 657.067 29.02L650.347 71.3H661.687L661.407 72.7H650.067L643.347 115.12C642.787 118.76 643.767 119.74 648.247 119.74H651.047C661.267 119.74 671.347 112.18 677.927 72.42Z" fill="white"/>
<path d="M635.766 23C636.046 27.62 637.026 44.42 637.026 44.42H635.766C634.926 34.06 634.646 24.26 626.106 24.26H617.706C613.226 24.26 611.826 25.52 611.266 29.02L606.506 59.96H619.246C624.846 59.96 625.966 54.5 626.946 48.2H628.206L624.286 72.84H623.026C624.006 66.54 624.706 61.22 619.106 61.22H606.226L597.686 115.12C597.126 118.62 598.106 119.74 602.586 119.74H614.206C622.746 119.74 626.106 110.08 630.306 99.72H631.426C631.426 99.72 625.266 116.52 623.446 121H584.246L584.526 119.74C588.866 119.74 590.266 118.62 590.826 115.12L604.406 29.02C604.966 25.52 603.986 24.26 599.646 24.26L599.786 23H635.766Z" fill="white"/>
<path d="M582.962 23H595.422L595.282 24.26C590.802 24.26 589.542 25.52 588.982 29.02L575.262 115.12C574.702 118.62 575.682 119.74 580.162 119.74L579.882 121H561.962L562.102 119.74C566.582 119.74 567.842 118.62 568.402 115.12L581.982 29.44L548.942 121H547.682L541.942 32.52L528.922 115.12C528.362 118.62 529.342 119.74 533.822 119.74L533.542 121H521.082L521.362 119.74C525.702 119.74 527.102 118.62 527.662 115.12L541.242 29.02C541.802 25.52 540.822 24.26 536.482 24.26L536.622 23H548.382L553.702 104.34L582.962 23Z" fill="white"/>
<path d="M525.06 22.9999H526.18C525.9 25.0999 524.64 46.2399 524.5 48.0599H523.38C523.1 31.3999 517.08 23.2799 508.68 22.9999C501.4 22.8599 494.12 29.2999 492.86 40.3599C489.78 68.4999 523.52 69.0599 520.72 98.0399C519.18 113.86 507.56 122.82 495.94 122.26C484.46 121.84 478.72 110.08 477.04 110.08C475.92 110.08 475.36 118.76 475.08 121H473.96C473.96 118.76 475.64 94.1199 475.78 92.1599H477.04C477.18 110.64 487.26 120.72 495.66 121C505.18 121.42 513.16 115.54 514.56 100.7C516.8 74.2399 483.62 73.5399 487.26 42.8799C488.94 28.4599 499.72 21.5999 508.4 21.7399C518.62 22.0199 521.84 31.8199 523.38 31.8199C524.36 31.8199 524.78 24.9599 525.06 22.9999Z" fill="white"/>
</svg>
