<svg width="293" height="309" viewBox="0 0 293 309" fill="none" xmlns="http://www.w3.org/2000/svg">
<path d="M167.088 0.735107C175.758 0.735107 181.708 12.2951 181.708 31.2501C181.708 50.2051 175.758 61.7651 167.088 61.7651C158.503 61.7651 152.553 50.2051 152.553 31.2501C152.553 12.2951 158.503 0.735107 167.088 0.735107ZM167.088 61.0001C174.143 61.0001 177.543 50.8001 177.543 31.2501C177.543 11.6151 174.143 1.50011 167.088 1.50011C160.118 1.50011 156.718 11.6151 156.718 31.2501C156.718 50.8001 160.118 61.0001 167.088 61.0001Z" fill="white"/>
<path d="M141.659 1.5H149.139V2.265C146.504 2.265 145.824 2.945 145.824 5.155V61H144.974L125.424 6.175V57.345C125.424 59.555 126.104 60.235 128.739 60.235V61H121.259V60.235C123.894 60.235 124.574 59.555 124.574 57.345V5.155C124.574 2.945 123.894 2.265 121.259 2.265V1.5H128.144L144.974 48.59V5.155C144.974 2.945 144.294 2.265 141.659 2.265V1.5Z" fill="white"/>
<path d="M118.876 48.08H119.556C119.556 48.08 117.431 58.195 116.836 61H93.0364V60.235C95.6714 60.235 96.4364 59.555 96.4364 57.345V5.155C96.4364 2.945 95.6714 2.265 93.0364 2.265V1.5H115.816C116.496 4.305 118.621 14.42 118.621 14.42H117.941C116.411 8.13 115.306 2.265 110.121 2.265H104.001C101.281 2.265 100.601 2.945 100.601 5.155V23.855H108.336C111.736 23.855 111.906 20.625 111.906 16.8H112.671V31.675H111.906C111.906 27.935 111.736 24.62 108.336 24.62H100.601V57.345C100.601 59.555 101.281 60.235 104.001 60.235H111.056C116.241 60.235 117.346 54.37 118.876 48.08Z" fill="white"/>
<path d="M84.2436 1.5H91.2986V2.265C88.5786 2.265 88.4086 2.69 87.8986 5.155L76.5936 61H75.7436L64.4386 5.155C64.0136 2.775 63.7586 2.265 61.0386 2.265V1.5H71.0686V2.265C68.4336 2.265 68.2636 2.945 68.6886 5.07L77.8686 50.545L87.1336 5.155C87.6436 2.69 87.3886 2.265 84.2436 2.265V1.5Z" fill="white"/>
<path d="M60.4668 58.62C60.9768 59.98 61.3168 60.235 63.5268 60.235V61H58.4268C57.4918 61 56.7268 60.405 56.4718 59.555L46.8668 29.635H41.0018V57.345C41.0018 59.555 41.6818 60.235 44.4018 60.235V61H33.4368V60.235C36.1568 60.235 36.8368 59.555 36.8368 57.345V5.155C36.8368 2.945 36.1568 2.265 33.4368 2.265V1.5H47.4618C56.2168 1.5 59.9568 7.875 59.9568 15.525C59.9568 22.07 57.2368 27.68 51.1168 29.21L60.4668 58.62ZM41.0018 28.87H47.4618C55.0268 28.87 55.7918 21.645 55.7918 15.525C55.7918 9.405 55.0268 2.265 47.4618 2.265H44.4018C41.6818 2.265 41.0018 2.945 41.0018 5.155V28.87Z" fill="white"/>
<path d="M31.07 47.9951L31.75 48.3351C29.285 56.8351 24.6951 61.7651 19.085 61.7651C9.48005 61.7651 4.55005 50.2051 4.55005 31.2501C4.55005 12.2951 10.415 0.735107 19.085 0.735107C25.6301 0.735107 27.5851 6.94011 28.5201 6.94011C29.2001 6.94011 28.605 2.69011 28.605 1.50011H29.2001C29.3701 2.77511 30.815 15.6101 30.9851 16.7151H30.2201C28.35 6.43011 24.2701 1.50011 19.085 1.50011C12.115 1.50011 8.71505 11.7001 8.71505 31.2501C8.71505 50.8001 10.755 60.7451 19.765 60.7451C24.78 60.7451 28.945 55.3051 31.07 47.9951Z" fill="white"/>
<path d="M268.91 87.74C283.189 87.74 292.989 106.78 292.989 138C292.989 169.22 283.189 188.26 268.91 188.26C254.769 188.26 244.969 169.22 244.969 138C244.969 106.78 254.769 87.74 268.91 87.74ZM268.91 187C280.53 187 286.129 170.2 286.129 138C286.129 105.66 280.53 89 268.91 89C257.429 89 251.829 105.66 251.829 138C251.829 170.2 257.429 187 268.91 187Z" fill="white"/>
<path d="M227.027 89H239.347V90.26C235.007 90.26 233.887 91.38 233.887 95.02V187H232.487L200.287 96.7V180.98C200.287 184.62 201.407 185.74 205.747 185.74V187H193.427V185.74C197.767 185.74 198.887 184.62 198.887 180.98V95.02C198.887 91.38 197.767 90.26 193.427 90.26V89H204.767L232.487 166.56V95.02C232.487 91.38 231.367 90.26 227.027 90.26V89Z" fill="white"/>
<path d="M189.502 165.72H190.622C190.622 165.72 187.122 182.38 186.142 187H146.942V185.74C151.282 185.74 152.542 184.62 152.542 180.98V95.02C152.542 91.38 151.282 90.26 146.942 90.26V89H184.462C185.582 93.62 189.082 110.28 189.082 110.28H187.962C185.442 99.92 183.622 90.26 175.082 90.26H165.002C160.522 90.26 159.402 91.38 159.402 95.02V125.82H172.142C177.742 125.82 178.022 120.5 178.022 114.2H179.282V138.7H178.022C178.022 132.54 177.742 127.08 172.142 127.08H159.402V180.98C159.402 184.62 160.522 185.74 165.002 185.74H176.622C185.162 185.74 186.982 176.08 189.502 165.72Z" fill="white"/>
<path d="M132.46 89H144.08V90.26C139.6 90.26 139.32 90.96 138.48 95.02L119.86 187H118.46L99.8397 95.02C99.1397 91.1 98.7197 90.26 94.2397 90.26V89H110.76V90.26C106.42 90.26 106.14 91.38 106.84 94.88L121.96 169.78L137.22 95.02C138.06 90.96 137.64 90.26 132.46 90.26V89Z" fill="white"/>
<path d="M93.2981 183.08C94.1381 185.32 94.6981 185.74 98.3381 185.74V187H89.9381C88.3981 187 87.1381 186.02 86.7181 184.62L70.8981 135.34H61.2381V180.98C61.2381 184.62 62.3581 185.74 66.8381 185.74V187H48.7781V185.74C53.2581 185.74 54.3781 184.62 54.3781 180.98V95.02C54.3781 91.38 53.2581 90.26 48.7781 90.26V89H71.8781C86.2981 89 92.4581 99.5 92.4581 112.1C92.4581 122.88 87.9781 132.12 77.8981 134.64L93.2981 183.08ZM61.2381 134.08H71.8781C84.3381 134.08 85.5981 122.18 85.5981 112.1C85.5981 102.02 84.3381 90.26 71.8781 90.26H66.8381C62.3581 90.26 61.2381 91.38 61.2381 95.02V134.08Z" fill="white"/>
<path d="M44.88 165.58L46 166.14C41.94 180.14 34.38 188.26 25.14 188.26C9.31995 188.26 1.19995 169.22 1.19995 138C1.19995 106.78 10.86 87.74 25.14 87.74C35.92 87.74 39.14 97.96 40.68 97.96C41.8 97.96 40.82 90.96 40.82 89H41.8C42.08 91.1 44.46 112.24 44.74 114.06H43.48C40.4 97.12 33.68 89 25.14 89C13.66 89 8.05995 105.8 8.05995 138C8.05995 170.2 11.42 186.58 26.26 186.58C34.52 186.58 41.38 177.62 44.88 165.58Z" fill="white"/>
<path d="M230.065 221.92C242.305 221.92 250.705 238.24 250.705 265C250.705 291.76 242.305 308.08 230.065 308.08C217.945 308.08 209.545 291.76 209.545 265C209.545 238.24 217.945 221.92 230.065 221.92ZM230.065 307C240.025 307 244.825 292.6 244.825 265C244.825 237.28 240.025 223 230.065 223C220.225 223 215.425 237.28 215.425 265C215.425 292.6 220.225 307 230.065 307Z" fill="white"/>
<path d="M194.166 223H204.726V224.08C201.006 224.08 200.046 225.04 200.046 228.16V307H198.846L171.246 229.6V301.84C171.246 304.96 172.206 305.92 175.926 305.92V307H165.366V305.92C169.086 305.92 170.046 304.96 170.046 301.84V228.16C170.046 225.04 169.086 224.08 165.366 224.08V223H175.086L198.846 289.48V228.16C198.846 225.04 197.886 224.08 194.166 224.08V223Z" fill="white"/>
<path d="M162.002 288.76H162.962C162.962 288.76 159.962 303.04 159.122 307H125.522V305.92C129.242 305.92 130.322 304.96 130.322 301.84V228.16C130.322 225.04 129.242 224.08 125.522 224.08V223H157.682C158.642 226.96 161.642 241.24 161.642 241.24H160.682C158.522 232.36 156.962 224.08 149.642 224.08H141.002C137.162 224.08 136.202 225.04 136.202 228.16V254.56H147.122C151.922 254.56 152.162 250 152.162 244.6H153.242V265.6H152.162C152.162 260.32 151.922 255.64 147.122 255.64H136.202V301.84C136.202 304.96 137.162 305.92 141.002 305.92H150.962C158.282 305.92 159.842 297.64 162.002 288.76Z" fill="white"/>
<path d="M113.108 223H123.068V224.08C119.228 224.08 118.988 224.68 118.268 228.16L102.308 307H101.108L85.1484 228.16C84.5484 224.8 84.1884 224.08 80.3484 224.08V223H94.5084V224.08C90.7884 224.08 90.5484 225.04 91.1484 228.04L104.108 292.24L117.188 228.16C117.908 224.68 117.548 224.08 113.108 224.08V223Z" fill="white"/>
<path d="M79.5412 303.64C80.2612 305.56 80.7412 305.92 83.8612 305.92V307H76.6612C75.3412 307 74.2612 306.16 73.9012 304.96L60.3412 262.72H52.0612V301.84C52.0612 304.96 53.0212 305.92 56.8612 305.92V307H41.3812V305.92C45.2212 305.92 46.1812 304.96 46.1812 301.84V228.16C46.1812 225.04 45.2212 224.08 41.3812 224.08V223H61.1812C73.5412 223 78.8212 232 78.8212 242.8C78.8212 252.04 74.9812 259.96 66.3412 262.12L79.5412 303.64ZM52.0612 261.64H61.1812C71.8612 261.64 72.9412 251.44 72.9412 242.8C72.9412 234.16 71.8612 224.08 61.1812 224.08H56.8612C53.0212 224.08 52.0612 225.04 52.0612 228.16V261.64Z" fill="white"/>
<path d="M38.04 288.64L39 289.12C35.52 301.12 29.04 308.08 21.12 308.08C7.55998 308.08 0.599976 291.76 0.599976 265C0.599976 238.24 8.87998 221.92 21.12 221.92C30.36 221.92 33.12 230.68 34.44 230.68C35.4 230.68 34.56 224.68 34.56 223H35.4C35.64 224.8 37.68 242.92 37.92 244.48H36.84C34.2 229.96 28.44 223 21.12 223C11.28 223 6.47998 237.4 6.47998 265C6.47998 292.6 9.35997 306.64 22.08 306.64C29.16 306.64 35.04 298.96 38.04 288.64Z" fill="white"/>
</svg>
