<svg width="159" height="692" viewBox="0 0 159 692" fill="none" xmlns="http://www.w3.org/2000/svg">
<path d="M96.756 76.72H97.876C97.876 76.72 94.376 93.38 93.396 98H54.196V96.74C58.536 96.74 59.796 95.62 59.796 91.98V6.02001C59.796 2.38 58.536 1.26 54.196 1.26V0H91.716C92.836 4.62 96.336 21.28 96.336 21.28H95.216C92.696 10.92 90.8761 1.26 82.336 1.26H72.256C67.776 1.26 66.656 2.38 66.656 6.02001V36.82H79.396C84.996 36.82 85.276 31.5 85.276 25.2H86.536V49.7H85.276C85.276 43.54 84.996 38.08 79.396 38.08H66.656V91.98C66.656 95.62 67.776 96.74 72.256 96.74H83.876C92.416 96.74 94.236 87.08 96.756 76.72Z" fill="white"/>
<path d="M24.76 0C38.2 0 50.1 9.52001 50.1 49C50.1 88.48 38.2 98 24.76 98H3.19995V96.74C7.53995 96.74 8.79995 95.62 8.79995 91.98V6.02001C8.79995 2.38 7.53995 1.26 3.19995 1.26V0H24.76ZM24.76 96.74C35.68 96.74 43.24 89.04 43.24 49C43.24 8.96001 33.02 1.26 24.76 1.26H21.12C16.78 1.26 15.66 2.38 15.66 6.02001V91.98C15.66 95.62 16.78 96.74 21.12 96.74H24.76Z" fill="white"/>
<path d="M109.471 203.68H110.751C110.751 203.68 106.751 222.72 105.631 228H60.8312V226.56C65.7912 226.56 67.2312 225.28 67.2312 221.12V122.88C67.2312 118.72 65.7912 117.44 60.8312 117.44V116H103.711C104.991 121.28 108.991 140.32 108.991 140.32H107.711C104.831 128.48 102.751 117.44 92.9912 117.44H81.4712C76.3512 117.44 75.0712 118.72 75.0712 122.88V158.08H89.6312C96.0312 158.08 96.3512 152 96.3512 144.8H97.7912V172.8H96.3512C96.3512 165.76 96.0312 159.52 89.6312 159.52H75.0712V221.12C75.0712 225.28 76.3512 226.56 81.4712 226.56H94.7512C104.511 226.56 106.591 215.52 109.471 203.68Z" fill="white"/>
<path d="M44.28 116H57.56V117.44C52.44 117.44 52.12 118.24 51.16 122.88L29.88 228H28.28L6.99998 122.88C6.19998 118.4 5.71998 117.44 0.599976 117.44V116H19.48V117.44C14.52 117.44 14.2 118.72 15 122.72L32.28 208.32L49.72 122.88C50.68 118.24 50.2 117.44 44.28 117.44V116Z" fill="white"/>
<path d="M124.686 338.64H126.126C126.126 338.64 121.626 360.06 120.366 366H69.9664V364.38C75.5464 364.38 77.1664 362.94 77.1664 358.26V247.74C77.1664 243.06 75.5464 241.62 69.9664 241.62V240H118.206C119.646 245.94 124.146 267.36 124.146 267.36H122.706C119.466 254.04 117.126 241.62 106.146 241.62H93.1864C87.4264 241.62 85.9864 243.06 85.9864 247.74V287.34H102.366C109.566 287.34 109.926 280.5 109.926 272.4H111.546V303.9H109.926C109.926 295.98 109.566 288.96 102.366 288.96H85.9864V358.26C85.9864 362.94 87.4264 364.38 93.1864 364.38H108.126C119.106 364.38 121.446 351.96 124.686 338.64Z" fill="white"/>
<path d="M32.12 240C49.4 240 64.7 252.24 64.7 303C64.7 353.76 49.4 366 32.12 366H4.40002V364.38C9.98002 364.38 11.6 362.94 11.6 358.26V247.74C11.6 243.06 9.98002 241.62 4.40002 241.62V240H32.12ZM32.12 364.38C46.16 364.38 55.88 354.48 55.88 303C55.88 251.52 42.74 241.62 32.12 241.62H27.44C21.86 241.62 20.42 243.06 20.42 247.74V358.26C20.42 362.94 21.86 364.38 27.44 364.38H32.12Z" fill="white"/>
<path d="M132.206 491.6H133.806C133.806 491.6 128.806 515.4 127.406 522H71.4062V520.2C77.6063 520.2 79.4062 518.6 79.4062 513.4V390.6C79.4062 385.4 77.6063 383.8 71.4062 383.8V382H125.006C126.606 388.6 131.606 412.4 131.606 412.4H130.006C126.406 397.6 123.806 383.8 111.606 383.8H97.2063C90.8063 383.8 89.2063 385.4 89.2063 390.6V434.6H107.406C115.406 434.6 115.806 427 115.806 418H117.606V453H115.806C115.806 444.2 115.406 436.4 107.406 436.4H89.2063V513.4C89.2063 518.6 90.8063 520.2 97.2063 520.2H113.806C126.006 520.2 128.606 506.4 132.206 491.6Z" fill="white"/>
<path d="M13.2 406.8C13.2 446 67.4 448 67.4 489.2C67.4 511.4 53.8 523.8 37.6 523.8C21.2 523.8 11.8 506.2 9.4 506.2C7.6 506.2 9.2 518.8 9.4 522H7.6C7.2 518.8 3.4 483.4 3 480.6H4.8C9.6 507 24.2 522 37.6 522C50.8 522 59.2 513.4 59.2 492.8C59.2 455.4 5.8 454.2 5.8 410.2C5.8 390 21.4 380.2 33.8 380.2C48.2 380.2 54.6 394.6 56.8 394.6C58.6 394.6 57.4 384.8 57.2 382H58.8C59 385 62.4 415.2 62.8 417.8H61C56.6 394 45.8 382 33.8 382C23.4 382 13.2 391 13.2 406.8Z" fill="white"/>
<path d="M156.269 658.56H158.029C158.029 658.56 152.529 684.74 150.989 692H89.389V690.02C96.209 690.02 98.189 688.26 98.189 682.54V547.46C98.189 541.74 96.209 539.98 89.389 539.98V538H148.349C150.109 545.26 155.609 571.44 155.609 571.44H153.849C149.889 555.16 147.029 539.98 133.609 539.98H117.769C110.729 539.98 108.969 541.74 108.969 547.46V595.86H128.989C137.789 595.86 138.229 587.5 138.229 577.6H140.209V616.1H138.229C138.229 606.42 137.789 597.84 128.989 597.84H108.969V682.54C108.969 688.26 110.729 690.02 117.769 690.02H136.029C149.449 690.02 152.309 674.84 156.269 658.56Z" fill="white"/>
<path d="M82.38 538C83.92 545.26 89.42 571.44 89.42 571.44H87.66C83.7 555.16 80.84 539.98 67.42 539.98H59.5C52.68 539.98 50.7 541.74 50.7 547.46V682.54C50.7 688.26 52.68 690.02 59.5 690.02V692H31.12V690.02C38.16 690.02 39.92 688.26 39.92 682.54V547.46C39.92 541.74 38.16 539.98 31.12 539.98H23.42C9.77995 539.98 6.91995 555.16 3.17995 571.44H1.19995C1.19995 571.44 6.91995 545.26 8.45995 538H82.38Z" fill="white"/>
</svg>
