<?xml version="1.0" encoding="utf-8"?>
<!-- Generator: Adobe Illustrator 27.9.0, SVG Export Plug-In . SVG Version: 6.00 Build 0)  -->
<svg version="1.1" id="Layer_1" xmlns="http://www.w3.org/2000/svg" xmlns:xlink="http://www.w3.org/1999/xlink" x="0px" y="0px"
	 viewBox="0 0 417 212.5" style="enable-background:new 0 0 417 212.5;" xml:space="preserve">
<style type="text/css">
	.st0{fill:#FFFFFF;}
</style>
<path class="st0" d="M411.3,8v86c0,3.6,1.1,4.8,5.6,4.8v1.3h-18.1v-1.3c4.5,0,5.6-1.1,5.6-4.8V8c0-3.6-1.1-4.8-5.6-4.8V2h18.1v1.3
	C412.5,3.3,411.3,4.4,411.3,8z"/>
<path class="st0" d="M390.2,94c1.3,4.2,1.5,4.8,5.9,4.8v1.3h-16.7v-1.3c4.3,0,4.9-0.6,3.5-4.6l-18.8-57.3l-4.8,7V94
	c0,3.6,1.1,4.8,5.6,4.8v1.3h-18.1v-1.3c4.5,0,5.6-1.1,5.6-4.8V8c0-3.6-1.1-4.8-5.6-4.8V2H365v1.3c-4.5,0-5.6,1.1-5.6,4.8v33.6
	L382.1,8c2.5-3.8,0-4.8-4.5-4.8V2h14.6v1.3c-4.3,0-6,0.8-8.5,4.8l-14.7,21.7L390.2,94z"/>
<path class="st0" d="M306.2,19.4c0,27.4,37.9,28.8,37.9,57.7c0,15.5-9.5,24.2-20.9,24.2c-11.5,0-18.1-12.3-19.7-12.3
	c-1.3,0-0.1,8.8,0,11.1h-1.3c-0.3-2.2-2.9-27-3.2-29h1.3c3.4,18.5,13.6,29,23,29c9.2,0,15.1-6,15.1-20.4c0-26.2-37.4-27-37.4-57.8
	c0-14.1,10.9-21,19.6-21c10.1,0,14.6,10.1,16.1,10.1c1.3,0,0.4-6.9,0.3-8.8h1.1c0.1,2.1,2.5,23.2,2.8,25.1h-1.3
	C336.6,10.4,329,2,320.6,2C313.3,2,306.2,8.3,306.2,19.4z"/>
<path class="st0" d="M285.4,2h12.3v1.3c-4.3,0-5.5,1.1-5.5,4.8v68.3c0,14-5.7,24.9-17.4,24.9c-13.7,0-21.4-8-21.4-26V8
	c0-3.6-1.1-4.8-5.5-4.8V2H266v1.3c-4.3,0-5.6,1.1-5.6,4.8v63.3c0,20.9,3.8,28.7,15.5,28.7c9.7,0,15.1-10.1,15.1-23.1L290.9,8
	c0-3.6-1.1-4.8-5.5-4.8V2z"/>
<path class="st0" d="M244,78.6l1.1,0.6c-4.1,14-11.6,22.1-20.9,22.1c-15.8,0-23.9-19-23.9-50.3S210,0.7,224.3,0.7
	c10.8,0,14,10.2,15.5,10.2c1.1,0,0.1-7,0.1-9h1c0.3,2.1,2.7,23.2,2.9,25.1h-1.3C239.6,10.1,232.8,2,224.3,2
	c-11.5,0-17.1,16.8-17.1,49s3.4,48.6,18.2,48.6C233.7,99.6,240.5,90.6,244,78.6z"/>
<path class="st0" d="M182.4,2h12.3v1.3c-4.3,0-5.5,1.1-5.5,4.8v92h-1.4L155.7,9.7V94c0,3.6,1.1,4.8,5.5,4.8v1.3h-12.3v-1.3
	c4.3,0,5.5-1.1,5.5-4.8V8c0-3.6-1.1-4.8-5.5-4.8V2h11.3l27.7,77.6V8c0-3.6-1.1-4.8-5.5-4.8V2z"/>
<path class="st0" d="M140.4,94c0.8,3.9,1.1,4.8,5.6,4.8v1.3h-16.5v-1.3c4.3,0,4.6-1.1,3.9-4.6l-4.2-20.9h-21.8L103,94
	c-0.7,4.1-0.4,4.8,4.8,4.8v1.3H96.1v-1.3c4.5,0,4.8-0.8,5.6-4.8l18.8-92h1.3L140.4,94z M107.5,71.9h21.4l-10.6-52.6L107.5,71.9z"/>
<path class="st0" d="M88.2,96.1c0.8,2.2,1.4,2.7,5,2.7v1.3h-8.4c-1.5,0-2.8-1-3.2-2.4L65.8,48.3h-9.7V94c0,3.6,1.1,4.8,5.6,4.8v1.3
	H43.7v-1.3c4.5,0,5.6-1.1,5.6-4.8V8c0-3.6-1.1-4.8-5.6-4.8V2h23.1c14.4,0,20.6,10.5,20.6,23.1c0,10.8-4.5,20-14.6,22.5L88.2,96.1z
	 M56.1,47.1h10.6c12.5,0,13.7-11.9,13.7-22S79.2,3.3,66.8,3.3h-5c-4.5,0-5.6,1.1-5.6,4.8V47.1z"/>
<path class="st0" d="M37.7,2c1.1,4.6,4.6,21.3,4.6,21.3h-1.1c-2.5-10.4-4.3-20-12.9-20H18.1c-4.3,0-5.5,1.1-5.5,4.8v30.8h12.7
	c5.6,0,5.9-5.3,5.9-11.6h1.3v24.5h-1.3c0-6.2-0.3-11.6-5.9-11.6H12.7V94c0,3.6,1.1,4.8,5.5,4.8v1.3H0.2v-1.3c4.3,0,5.6-1.1,5.6-4.8
	V8c0-3.6-1.3-4.8-5.6-4.8V2H37.7z"/>
<path class="st0" d="M169.2,184.6l1.1,0.6c-4.1,14-11.6,22.1-20.9,22.1c-15.8,0-23.9-19-23.9-50.3s9.7-50.3,23.9-50.3
	c10.8,0,14,10.2,15.5,10.2c1.1,0,0.1-7,0.1-9h1c0.3,2.1,2.7,23.2,2.9,25.1h-1.3c-3.1-16.9-9.8-25.1-18.3-25.1
	c-11.5,0-17.1,16.8-17.1,49s3.4,48.6,18.2,48.6C158.8,205.6,165.7,196.6,169.2,184.6z"/>
<path class="st0" d="M114.1,114v86c0,3.6,1.1,4.8,5.6,4.8v1.3h-18.1v-1.3c4.5,0,5.6-1.1,5.6-4.8v-86c0-3.6-1.1-4.8-5.6-4.8V108h18.1
	v1.3C115.3,109.3,114.1,110.4,114.1,114z"/>
<path class="st0" d="M91.9,114v86c0,3.6,1.3,4.8,5.6,4.8v1.3H79.6v-1.3c4.3,0,5.5-1.1,5.5-4.8v-53.9H61.2V200c0,3.6,1.1,4.8,5.6,4.8
	v1.3H48.8v-1.3c4.5,0,5.6-1.1,5.6-4.8v-86c0-3.6-1.1-4.8-5.6-4.8V108h18.1v1.3c-4.5,0-5.6,1.1-5.6,4.8v30.8H85V114
	c0-3.6-1.1-4.8-5.5-4.8V108h17.9v1.3C93.2,109.3,91.9,110.4,91.9,114z"/>
<path class="st0" d="M44.9,184.6l1.1,0.6c-4.1,14-11.6,22.1-20.9,22.1c-15.8,0-23.9-19-23.9-50.3s9.7-50.3,23.9-50.3
	c10.8,0,14,10.2,15.5,10.2c1.1,0,0.1-7,0.1-9h1c0.3,2.1,2.7,23.2,2.9,25.1h-1.3c-3.1-16.9-9.8-25.1-18.3-25.1
	c-11.5,0-17.1,16.8-17.1,49s3.4,48.6,18.2,48.6C34.5,205.6,41.4,196.6,44.9,184.6z"/>
</svg>
