<svg width="494" height="454" viewBox="0 0 494 454" fill="none" xmlns="http://www.w3.org/2000/svg">
<path d="M480.6 66.7C481.2 69.5 481.4 70.1 484.6 70.1V71H472.8V70.1C475.9 70.1 476.1 69.3 475.6 66.8L472.6 51.9H457L453.9 66.7C453.4 69.6 453.6 70.1 457.3 70.1V71H449V70.1C452.2 70.1 452.4 69.5 453 66.7L466.4 1H467.3L480.6 66.7ZM457.1 50.9H472.4L464.8 13.3L457.1 50.9Z" fill="black"/>
<path d="M449.737 1H458.038V1.9C454.838 1.9 454.638 2.4 454.038 5.3L440.737 71H439.737L426.438 5.3C425.938 2.5 425.638 1.9 422.438 1.9V1H434.237V1.9C431.137 1.9 430.938 2.7 431.438 5.2L442.237 58.7L453.138 5.3C453.738 2.4 453.437 1.9 449.737 1.9V1Z" fill="black"/>
<path d="M405.209 0.100006C415.409 0.100006 422.409 13.7 422.409 36C422.409 58.3 415.409 71.9 405.209 71.9C395.109 71.9 388.109 58.3 388.109 36C388.109 13.7 395.109 0.100006 405.209 0.100006ZM405.209 71C413.509 71 417.509 59 417.509 36C417.509 12.9 413.509 1.00001 405.209 1.00001C397.009 1.00001 393.009 12.9 393.009 36C393.009 59 397.009 71 405.209 71Z" fill="black"/>
<path d="M365.033 1C374.633 1 383.133 7.8 383.133 36C383.133 64.2 374.633 71 365.033 71H349.633V70.1C352.733 70.1 353.633 69.3 353.633 66.7V5.3C353.633 2.7 352.733 1.9 349.633 1.9V1H365.033ZM365.033 70.1C372.833 70.1 378.233 64.6 378.233 36C378.233 7.4 370.933 1.9 365.033 1.9H362.433C359.333 1.9 358.533 2.7 358.533 5.3V66.7C358.533 69.3 359.333 70.1 362.433 70.1H365.033Z" fill="black"/>
<path d="M337.891 1H346.691V1.9C343.591 1.9 342.791 2.7 342.791 5.3V71H341.791L318.791 6.5V66.7C318.791 69.3 319.591 70.1 322.691 70.1V71H313.891V70.1C316.991 70.1 317.791 69.3 317.791 66.7V5.3C317.791 2.7 316.991 1.9 313.891 1.9V1H321.991L341.791 56.4V5.3C341.791 2.7 340.991 1.9 337.891 1.9V1Z" fill="black"/>
<path d="M311.087 55.8H311.888C311.888 55.8 309.387 67.7 308.688 71H280.688V70.1C283.788 70.1 284.688 69.3 284.688 66.7V5.3C284.688 2.7 283.788 1.9 280.688 1.9V1H307.487C308.287 4.3 310.788 16.2 310.788 16.2H309.987C308.187 8.8 306.888 1.9 300.788 1.9H293.587C290.387 1.9 289.587 2.7 289.587 5.3V27.3H298.688C302.687 27.3 302.888 23.5 302.888 19H303.788V36.5H302.888C302.888 32.1 302.687 28.2 298.688 28.2H289.587V66.7C289.587 69.3 290.387 70.1 293.587 70.1H301.888C307.988 70.1 309.287 63.2 311.087 55.8Z" fill="black"/>
<path d="M274.011 68.2C274.611 69.8 275.011 70.1 277.611 70.1V71H271.611C270.511 71 269.611 70.3 269.311 69.3L258.011 34.1H251.111V66.7C251.111 69.3 251.911 70.1 255.111 70.1V71H242.211V70.1C245.411 70.1 246.211 69.3 246.211 66.7V5.3C246.211 2.7 245.411 1.9 242.211 1.9V1H258.711C269.011 1 273.411 8.5 273.411 17.5C273.411 25.2 270.211 31.8 263.011 33.6L274.011 68.2ZM251.111 33.2H258.711C267.611 33.2 268.511 24.7 268.511 17.5C268.511 10.3 267.611 1.9 258.711 1.9H255.111C251.911 1.9 251.111 2.7 251.111 5.3V33.2Z" fill="black"/>
<path d="M239.025 1C239.725 4.3 242.225 16.2 242.225 16.2H241.425C239.625 8.8 238.325 1.9 232.225 1.9H228.625C225.525 1.9 224.625 2.7 224.625 5.3V66.7C224.625 69.3 225.525 70.1 228.625 70.1V71H215.725V70.1C218.925 70.1 219.725 69.3 219.725 66.7V5.3C219.725 2.7 218.925 1.9 215.725 1.9H212.225C206.025 1.9 204.725 8.8 203.025 16.2H202.125C202.125 16.2 204.725 4.3 205.425 1H239.025Z" fill="black"/>
<path d="M178.123 1.9C175.023 1.9 174.123 2.7 174.123 5.3V66.7C174.123 69.3 175.023 70.1 178.123 70.1V71H165.323V70.1C168.423 70.1 169.223 69.3 169.223 66.7V5.6L155.923 71H155.023L142.423 8.8V66.7C142.423 69.3 143.323 70.1 146.423 70.1V71H137.523V70.1C140.723 70.1 141.523 69.3 141.523 66.7V5.3C141.523 2.7 140.723 1.9 137.523 1.9V1H145.823L157.523 58.7L169.223 1H178.123V1.9Z" fill="black"/>
<path d="M131.479 66.7C132.079 69.5 132.279 70.1 135.479 70.1V71H123.679V70.1C126.779 70.1 126.979 69.3 126.479 66.8L123.479 51.9H107.879L104.779 66.7C104.279 69.6 104.479 70.1 108.179 70.1V71H99.8789V70.1C103.079 70.1 103.279 69.5 103.879 66.7L117.279 1H118.179L131.479 66.7ZM107.979 50.9H123.279L115.679 13.3L107.979 50.9Z" fill="black"/>
<path d="M82.8063 1C92.4062 1 100.906 7.8 100.906 36C100.906 64.2 92.4062 71 82.8063 71H67.4062V70.1C70.5063 70.1 71.4062 69.3 71.4062 66.7V5.3C71.4062 2.7 70.5063 1.9 67.4062 1.9V1H82.8063ZM82.8063 70.1C90.6063 70.1 96.0062 64.6 96.0062 36C96.0062 7.4 88.7063 1.9 82.8063 1.9H80.2063C77.1063 1.9 76.3063 2.7 76.3063 5.3V66.7C76.3063 69.3 77.1063 70.1 80.2063 70.1H82.8063Z" fill="black"/>
<path d="M64.6031 55.8H65.4031C65.4031 55.8 62.9031 67.7 62.2031 71H34.2031V70.1C37.3031 70.1 38.2031 69.3 38.2031 66.7V5.3C38.2031 2.7 37.3031 1.9 34.2031 1.9V1H61.0031C61.8031 4.3 64.3031 16.2 64.3031 16.2H63.5031C61.7031 8.8 60.4031 1.9 54.3031 1.9H47.1031C43.9031 1.9 43.1031 2.7 43.1031 5.3V27.3H52.2031C56.2031 27.3 56.4031 23.5 56.4031 19H57.3031V36.5H56.4031C56.4031 32.1 56.2031 28.2 52.2031 28.2H43.1031V66.7C43.1031 69.3 43.9031 70.1 47.1031 70.1H55.4031C61.5031 70.1 62.8031 63.2 64.6031 55.8Z" fill="black"/>
<path d="M5.1 13.4C5.1 33 32.2 34 32.2 54.6C32.2 65.7 25.4 71.9 17.3 71.9C9.1 71.9 4.4 63.1 3.2 63.1C2.3 63.1 3.1 69.4 3.2 71H2.3C2.1 69.4 0.2 51.7 0 50.3H0.9C3.3 63.5 10.6 71 17.3 71C23.9 71 28.1 66.7 28.1 56.4C28.1 37.7 1.4 37.1 1.4 15.1C1.4 5.00001 9.2 0.100006 15.4 0.100006C22.6 0.100006 25.8 7.30001 26.9 7.30001C27.8 7.30001 27.2 2.40001 27.1 1.00001H27.9C28 2.50001 29.7 17.6 29.9 18.9H29C26.8 7.00001 21.4 1.00001 15.4 1.00001C10.2 1.00001 5.1 5.50001 5.1 13.4Z" fill="black"/>
<path d="M479.192 94.8C472.992 94.8 471.192 96.4 471.192 101.6V224.4C471.192 229.6 472.992 231.2 479.192 231.2V233H453.592V231.2C459.792 231.2 461.392 229.6 461.392 224.4V102.2L434.792 233H432.992L407.792 108.6V224.4C407.792 229.6 409.592 231.2 415.792 231.2V233H397.992V231.2C404.392 231.2 405.992 229.6 405.992 224.4V101.6C405.992 96.4 404.392 94.8 397.992 94.8V93H414.592L437.992 208.4L461.392 93H479.192V94.8Z" fill="black"/>
<path d="M385.903 224.4C387.103 230 387.503 231.2 393.903 231.2V233H370.303V231.2C376.503 231.2 376.903 229.6 375.903 224.6L369.903 194.8H338.703L332.503 224.4C331.503 230.2 331.903 231.2 339.303 231.2V233H322.703V231.2C329.103 231.2 329.503 230 330.703 224.4L357.503 93H359.303L385.903 224.4ZM338.903 192.8H369.503L354.303 117.6L338.903 192.8Z" fill="black"/>
<path d="M288.558 93C307.758 93 324.758 106.6 324.758 163C324.758 219.4 307.758 233 288.558 233H257.758V231.2C263.958 231.2 265.758 229.6 265.758 224.4V101.6C265.758 96.4 263.958 94.8 257.758 94.8V93H288.558ZM288.558 231.2C304.158 231.2 314.958 220.2 314.958 163C314.958 105.8 300.358 94.8 288.558 94.8H283.358C277.158 94.8 275.558 96.4 275.558 101.6V224.4C275.558 229.6 277.158 231.2 283.358 231.2H288.558Z" fill="black"/>
<path d="M252.152 202.6H253.752C253.752 202.6 248.752 226.4 247.352 233H191.352V231.2C197.552 231.2 199.352 229.6 199.352 224.4V101.6C199.352 96.4 197.552 94.8 191.352 94.8V93H244.952C246.552 99.6 251.552 123.4 251.552 123.4H249.952C246.352 108.6 243.752 94.8 231.552 94.8H217.152C210.752 94.8 209.152 96.4 209.152 101.6V145.6H227.352C235.352 145.6 235.752 138 235.752 129H237.552V164H235.752C235.752 155.2 235.352 147.4 227.352 147.4H209.152V224.4C209.152 229.6 210.752 231.2 217.152 231.2H233.752C245.952 231.2 248.552 217.4 252.152 202.6Z" fill="black"/>
<path d="M133.145 117.8C133.145 157 187.345 159 187.345 200.2C187.345 222.4 173.745 234.8 157.545 234.8C141.145 234.8 131.745 217.2 129.345 217.2C127.545 217.2 129.145 229.8 129.345 233H127.545C127.145 229.8 123.345 194.4 122.945 191.6H124.745C129.545 218 144.145 233 157.545 233C170.745 233 179.145 224.4 179.145 203.8C179.145 166.4 125.745 165.2 125.745 121.2C125.745 101 141.345 91.2 153.745 91.2C168.145 91.2 174.545 105.6 176.745 105.6C178.545 105.6 177.345 95.8 177.145 93H178.745C178.945 96 182.345 126.2 182.745 128.8H180.945C176.545 105 165.745 93 153.745 93C143.345 93 133.145 102 133.145 117.8Z" fill="black"/>
<path d="M57.4 93H75V94.8C68.8 94.8 67.2 96.4 67.2 101.6V199.2C67.2 219.2 59 234.8 42.4 234.8C22.8 234.8 11.8 223.4 11.8 197.6V101.6C11.8 96.4 10.2 94.8 4 94.8V93H29.6V94.8C23.4 94.8 21.6 96.4 21.6 101.6V192C21.6 221.8 27 233 43.8 233C57.6 233 65.4 218.6 65.4 200L65.2 101.6C65.2 96.4 63.6 94.8 57.4 94.8V93Z" fill="black"/>
<path d="M487.652 340.98C488.492 344.9 488.772 345.74 493.252 345.74V347H476.732V345.74C481.072 345.74 481.352 344.62 480.652 341.12L476.452 320.26H454.612L450.272 340.98C449.572 345.04 449.852 345.74 455.032 345.74V347H443.412V345.74C447.892 345.74 448.172 344.9 449.012 340.98L467.772 249H469.032L487.652 340.98ZM454.752 318.86H476.172L465.532 266.22L454.752 318.86Z" fill="black"/>
<path d="M428.243 249H446.164V250.26C441.824 250.26 440.703 251.38 440.703 255.02V324.88C440.703 340.28 433.423 348.26 422.363 348.26C412.843 348.26 404.583 341.12 404.583 334.68C404.583 332.58 405.564 330.48 407.664 330.48C409.484 330.48 410.884 331.88 410.884 334.68C410.884 342.1 415.083 347 422.363 347C434.123 347 433.844 331.46 433.844 324.88V255.02C433.844 251.38 432.584 250.26 428.243 250.26V249Z" fill="black"/>
<path d="M398.926 255.02V340.98C398.926 344.62 400.046 345.74 404.526 345.74V347H386.466V345.74C390.946 345.74 392.066 344.62 392.066 340.98V255.02C392.066 251.38 390.946 250.26 386.466 250.26V249H404.526V250.26C400.046 250.26 398.926 251.38 398.926 255.02Z" fill="black"/>
<path d="M382.567 325.58L383.687 326.14C379.627 340.14 372.067 348.26 362.827 348.26C347.007 348.26 338.887 329.22 338.887 298C338.887 266.78 348.547 247.74 362.827 247.74C373.607 247.74 376.827 257.96 378.367 257.96C379.487 257.96 378.507 250.96 378.507 249H379.487C379.767 251.1 382.147 272.24 382.427 274.06H381.167C378.087 257.12 371.367 249 362.827 249C351.347 249 345.747 265.8 345.747 298C345.747 330.2 349.107 346.58 363.947 346.58C372.207 346.58 379.067 337.62 382.567 325.58Z" fill="black"/>
<path d="M334.663 340.98C335.503 344.9 335.783 345.74 340.263 345.74V347H323.743V345.74C328.083 345.74 328.363 344.62 327.663 341.12L323.463 320.26H301.623L297.283 340.98C296.583 345.04 296.863 345.74 302.043 345.74V347H290.423V345.74C294.903 345.74 295.183 344.9 296.023 340.98L314.783 249H316.043L334.663 340.98ZM301.763 318.86H323.183L312.543 266.22L301.763 318.86Z" fill="black"/>
<path d="M278.152 249H290.472V250.26C286.132 250.26 285.012 251.38 285.012 255.02V347H283.612L251.412 256.7V340.98C251.412 344.62 252.532 345.74 256.872 345.74V347H244.552V345.74C248.892 345.74 250.012 344.62 250.012 340.98V255.02C250.012 251.38 248.892 250.26 244.552 250.26V249H255.892L283.612 326.56V255.02C283.612 251.38 282.492 250.26 278.152 250.26V249Z" fill="black"/>
<path d="M234.726 255.02V340.98C234.726 344.62 235.846 345.74 240.326 345.74V347H222.266V345.74C226.746 345.74 227.866 344.62 227.866 340.98V255.02C227.866 251.38 226.746 250.26 222.266 250.26V249H240.326V250.26C235.846 250.26 234.726 251.38 234.726 255.02Z" fill="black"/>
<path d="M198.753 294.08C212.053 295.34 219.473 308.5 219.473 320.54C219.473 335.1 209.813 347 196.373 347H169.493V345.74C173.833 345.74 175.093 344.62 175.093 340.98V255.02C175.093 251.38 173.833 250.26 169.493 250.26V249H192.593C207.013 249 213.033 259.5 213.033 272.1C213.033 282.32 207.853 291.14 198.753 294.08ZM181.953 255.02V294.08H192.593C205.053 294.08 206.733 282.32 206.733 272.1C206.733 262.02 205.053 250.26 192.593 250.26H187.553C183.073 250.26 181.953 251.38 181.953 255.02ZM196.373 345.74C208.833 345.74 212.613 333.14 212.613 320.54C212.613 310.46 209.253 295.34 196.793 295.34H181.953V340.98C181.953 344.62 183.073 345.74 187.553 345.74H196.373Z" fill="black"/>
<path d="M162.485 250.26C158.145 250.26 156.885 251.38 156.885 255.02V340.98C156.885 344.62 158.145 345.74 162.485 345.74V347H144.565V345.74C148.905 345.74 150.025 344.62 150.025 340.98V255.44L131.405 347H130.145L112.505 259.92V340.98C112.505 344.62 113.765 345.74 118.105 345.74V347H105.645V345.74C110.125 345.74 111.245 344.62 111.245 340.98V255.02C111.245 251.38 110.125 250.26 105.645 250.26V249H117.265L133.645 329.78L150.025 249H162.485V250.26Z" fill="black"/>
<path d="M75.8548 247.74C90.1348 247.74 99.9348 266.78 99.9348 298C99.9348 329.22 90.1348 348.26 75.8548 348.26C61.7148 348.26 51.9148 329.22 51.9148 298C51.9148 266.78 61.7148 247.74 75.8548 247.74ZM75.8548 347C87.4748 347 93.0748 330.2 93.0748 298C93.0748 265.66 87.4748 249 75.8548 249C64.3748 249 58.7748 265.66 58.7748 298C58.7748 330.2 64.3748 347 75.8548 347Z" fill="black"/>
<path d="M47.46 340.98C48.72 345.18 49 345.74 53.34 345.74V347H36.68V345.74C41.02 345.74 41.58 345.18 40.18 341.12L21.42 283.86L16.66 290.86V340.98C16.66 344.62 17.78 345.74 22.26 345.74V347H4.19995V345.74C8.67995 345.74 9.79995 344.62 9.79995 340.98V255.02C9.79995 251.38 8.67995 250.26 4.19995 250.26V249H22.26V250.26C17.78 250.26 16.66 251.38 16.66 255.02V288.62L39.34 255.02C41.86 251.24 39.34 250.26 34.86 250.26V249H49.42V250.26C45.08 250.26 43.4 251.1 40.88 255.02L26.18 276.72L47.46 340.98Z" fill="black"/>
<path d="M490.368 436.733C490.368 438.397 490.901 438.996 492.965 438.996V439.595H484.444V438.996C486.508 438.996 487.107 438.397 487.107 436.733V412.836C487.107 407.844 485.443 406.246 483.18 406.246C481.316 406.246 478.52 407.777 476.989 410.44V436.733C476.989 438.397 477.588 438.996 479.652 438.996V439.595H471.131V438.996C473.195 438.996 473.727 438.397 473.727 436.733V408.51C473.727 406.779 473.195 406.246 471.131 406.246V405.647H476.989V409.641C478.587 406.979 481.649 405.048 484.444 405.048C489.636 405.048 490.368 409.508 490.368 412.969V436.733Z" fill="black"/>
<path d="M469.774 420.358H456.062C456.062 421.09 456.062 421.822 456.062 422.621C456.062 433.871 458.525 439.462 462.851 439.462C465.447 439.462 467.511 437.265 468.709 433.937L469.042 434.137C467.577 438.264 465.248 440.194 462.385 440.194C457.06 440.194 452.8 434.27 452.8 422.621C452.8 410.972 457.26 405.048 461.919 405.048C466.246 405.048 469.774 410.773 469.774 420.358ZM461.919 405.647C457.992 405.647 456.328 410.373 456.128 419.759H466.579C466.512 410.373 465.847 405.647 461.919 405.647Z" fill="black"/>
<path d="M436.998 411.172C436.998 420.025 450.111 421.024 450.111 431.008C450.111 437.532 445.984 440.194 442.257 440.194C437.398 440.194 434.469 435.734 434.469 432.739C434.469 431.607 434.868 430.875 435.667 430.875C436.665 430.875 436.998 431.741 436.932 432.739C436.732 436.4 439.062 439.595 442.323 439.595C445.718 439.595 448.114 436.799 448.114 432.34C448.114 423.886 435.201 423.154 435.201 412.637C435.201 407.91 438.13 405.048 441.658 405.048C445.585 405.048 448.913 408.975 448.913 412.237C448.913 413.236 448.714 414.234 447.715 414.234C446.85 414.234 446.517 413.169 446.517 412.237C446.517 408.643 444.72 405.647 441.658 405.647C439.528 405.647 436.998 407.245 436.998 411.172Z" fill="black"/>
<path d="M433.112 420.358H419.399C419.399 421.09 419.399 421.822 419.399 422.621C419.399 433.871 421.862 439.462 426.189 439.462C428.785 439.462 430.848 437.265 432.047 433.937L432.379 434.137C430.915 438.264 428.585 440.194 425.723 440.194C420.398 440.194 416.138 434.27 416.138 422.621C416.138 410.972 420.598 405.048 425.257 405.048C429.584 405.048 433.112 410.773 433.112 420.358ZM425.257 405.647C421.33 405.647 419.666 410.373 419.466 419.759H429.917C429.85 410.373 429.184 405.647 425.257 405.647Z" fill="black"/>
<path d="M405.862 406.246V405.647C411.786 405.647 411.786 405.647 411.786 405.647V441.392C411.786 449.846 409.523 453.84 404.93 453.84C401.669 453.84 399.406 450.046 399.406 447.25C399.406 446.252 399.938 445.12 400.87 445.12C401.802 445.12 402.201 445.985 401.935 447.25C401.203 449.979 402.268 453.241 404.797 453.241C408.858 453.241 408.525 444.521 408.525 441.392V408.51C408.525 406.779 407.926 406.246 405.862 406.246ZM409.79 400.988C408.458 400.988 407.393 399.923 407.393 398.591C407.393 397.26 408.458 396.195 409.79 396.195C411.121 396.195 412.186 397.26 412.186 398.591C412.186 399.923 411.121 400.988 409.79 400.988Z" fill="black"/>
<path d="M389.815 438.464L390.081 438.996C389.216 439.861 388.284 440.261 387.152 440.194C384.956 439.995 383.425 438.597 383.425 436.2V435.601C381.894 438.197 379.697 440.194 376.968 440.194C371.776 440.194 370.112 435.734 370.112 432.273V408.51C370.112 406.779 369.579 406.246 367.449 406.246V405.647H372.508C373.041 405.647 373.373 406.047 373.373 406.513V432.406C373.373 437.399 375.969 438.93 378.166 438.93C380.03 438.93 382.093 437.265 383.425 434.536V408.51C383.425 406.779 382.892 406.246 380.829 406.246V405.647H385.888C386.354 405.647 386.686 406.047 386.686 406.513V436.666C386.686 438.064 387.485 438.93 388.417 438.996C388.883 439.063 389.349 438.863 389.815 438.464Z" fill="black"/>
<path d="M364.195 436.733C364.195 438.397 364.727 438.996 366.791 438.996V439.595H358.271V438.996C360.334 438.996 360.933 438.397 360.933 436.733V412.836C360.933 407.844 359.269 406.246 357.006 406.246C355.142 406.246 352.346 407.777 350.815 410.44V436.733C350.815 438.397 351.415 438.996 353.478 438.996V439.595H344.958V438.996C347.021 438.996 347.554 438.397 347.554 436.733V408.51C347.554 406.779 347.021 406.246 344.958 406.246V405.647H350.815V409.641C352.413 406.979 355.475 405.048 358.271 405.048C363.463 405.048 364.195 409.508 364.195 412.969V436.733Z" fill="black"/>
<path d="M343.6 420.358H329.888C329.888 421.09 329.888 421.822 329.888 422.621C329.888 433.871 332.351 439.462 336.678 439.462C339.274 439.462 341.337 437.265 342.535 433.937L342.868 434.137C341.404 438.264 339.074 440.194 336.212 440.194C330.887 440.194 326.626 434.27 326.626 422.621C326.626 410.972 331.086 405.048 335.746 405.048C340.073 405.048 343.6 410.773 343.6 420.358ZM335.746 405.647C331.819 405.647 330.154 410.373 329.955 419.759H340.405C340.339 410.373 339.673 405.647 335.746 405.647Z" fill="black"/>
<path d="M325.309 435.135L325.909 435.468C325.176 438.264 323.912 440.194 321.848 440.194C317.189 440.194 316.922 434.803 316.922 429.477V408.51C316.922 406.779 316.39 406.246 314.26 406.246V405.647C318.919 405.647 319.252 403.517 319.585 399.79H320.184V405.647H324.045V406.246H320.184V433.072C320.184 437.265 321.116 438.93 322.647 438.93C323.845 438.93 324.844 437.265 325.309 435.135Z" fill="black"/>
<path d="M299.774 411.172C299.774 420.025 312.887 421.024 312.887 431.008C312.887 437.532 308.76 440.194 305.032 440.194C300.173 440.194 297.244 435.734 297.244 432.739C297.244 431.607 297.644 430.875 298.443 430.875C299.441 430.875 299.774 431.741 299.707 432.739C299.508 436.4 301.837 439.595 305.099 439.595C308.494 439.595 310.89 436.799 310.89 432.34C310.89 423.886 297.977 423.154 297.977 412.637C297.977 407.91 300.905 405.048 304.433 405.048C308.361 405.048 311.689 408.976 311.689 412.237C311.689 413.236 311.489 414.234 310.491 414.234C309.625 414.234 309.293 413.169 309.293 412.237C309.293 408.643 307.495 405.647 304.433 405.647C302.303 405.647 299.774 407.245 299.774 411.172ZM304.633 399.79L309.892 394.398L306.164 401.653H303.235L298.842 394.331L304.633 399.79Z" fill="black"/>
<path d="M295.887 420.358H282.175C282.175 421.09 282.175 421.822 282.175 422.621C282.175 433.871 284.638 439.462 288.964 439.462C291.56 439.462 293.624 437.265 294.822 433.937L295.155 434.137C293.69 438.264 291.361 440.194 288.498 440.194C283.173 440.194 278.913 434.27 278.913 422.621C278.913 410.972 283.373 405.048 288.032 405.048C292.359 405.048 295.887 410.773 295.887 420.358ZM288.032 405.647C284.105 405.647 282.441 410.373 282.241 419.759H292.692C292.625 410.373 291.96 405.647 288.032 405.647Z" fill="black"/>
<path d="M268.638 406.246V405.647C274.562 405.647 274.562 405.647 274.562 405.647V441.392C274.562 449.846 272.299 453.84 267.706 453.84C264.444 453.84 262.181 450.046 262.181 447.25C262.181 446.252 262.714 445.12 263.646 445.12C264.577 445.12 264.977 445.985 264.711 447.25C263.978 449.979 265.043 453.241 267.573 453.241C271.633 453.241 271.3 444.521 271.3 441.392V408.51C271.3 406.779 270.701 406.246 268.638 406.246ZM272.565 400.988C271.234 400.988 270.169 399.923 270.169 398.591C270.169 397.26 271.234 396.195 272.565 396.195C273.897 396.195 274.962 397.26 274.962 398.591C274.962 399.923 273.897 400.988 272.565 400.988Z" fill="black"/>
<path d="M264.182 436.733C264.182 438.397 264.714 438.996 266.778 438.996V439.595H258.258V438.996C260.321 438.996 260.92 438.397 260.92 436.733V408.51C260.92 406.779 260.321 406.246 258.258 406.246V405.647C261.785 405.647 264.182 405.647 264.182 405.647V436.733ZM262.185 400.988C260.854 400.988 259.789 399.923 259.789 398.591C259.789 397.26 260.854 396.195 262.185 396.195C263.516 396.195 264.581 397.26 264.581 398.591C264.581 399.923 263.516 400.988 262.185 400.988Z" fill="black"/>
<path d="M252.08 405.647H257.605V406.246C255.541 406.246 255.408 406.579 255.009 408.443L247.62 439.595H247.021L239.632 408.51C239.233 406.646 239.1 406.246 236.97 406.246V405.647H244.824V406.246C242.761 406.246 242.628 406.779 243.027 408.443L248.685 432.473L254.343 408.443C254.809 406.579 254.543 406.246 252.08 406.246V405.647Z" fill="black"/>
<path d="M224.499 411.172C224.499 420.025 237.612 421.024 237.612 431.008C237.612 437.532 233.485 440.194 229.757 440.194C224.898 440.194 221.969 435.734 221.969 432.739C221.969 431.607 222.369 430.875 223.167 430.875C224.166 430.875 224.499 431.741 224.432 432.739C224.232 436.4 226.562 439.595 229.824 439.595C233.219 439.595 235.615 436.799 235.615 432.34C235.615 423.886 222.701 423.154 222.701 412.637C222.701 407.91 225.63 405.048 229.158 405.048C233.086 405.048 236.414 408.975 236.414 412.237C236.414 413.236 236.214 414.234 235.216 414.234C234.35 414.234 234.017 413.169 234.017 412.237C234.017 408.643 232.22 405.647 229.158 405.647C227.028 405.647 224.499 407.245 224.499 411.172Z" fill="black"/>
<path d="M210.744 405.048C215.337 405.048 219.93 410.972 219.93 422.621C219.93 434.27 215.337 440.194 210.744 440.194C206.084 440.194 201.558 434.27 201.558 422.621C201.558 410.972 206.084 405.048 210.744 405.048ZM210.744 439.595C215.07 439.595 216.668 433.871 216.668 422.621C216.668 411.305 215.07 405.647 210.744 405.647C206.417 405.647 204.753 411.305 204.753 422.621C204.753 433.871 206.417 439.595 210.744 439.595Z" fill="black"/>
<path d="M176.357 405.048C180.95 405.048 185.542 410.972 185.542 422.621C185.542 434.27 180.95 440.194 176.357 440.194C171.697 440.194 167.171 434.27 167.171 422.621C167.171 410.972 171.697 405.048 176.357 405.048ZM176.357 439.595C180.683 439.595 182.281 433.871 182.281 422.621C182.281 411.305 180.683 405.647 176.357 405.647C172.03 405.647 170.366 411.305 170.366 422.621C170.366 433.871 172.03 439.595 176.357 439.595Z" fill="black"/>
<path d="M162.551 436.733C162.551 438.397 163.084 438.996 165.147 438.996V439.595H156.627V438.996C158.69 438.996 159.289 438.397 159.289 436.733V412.836C159.289 407.844 157.625 406.246 155.362 406.246C153.498 406.246 150.703 407.777 149.172 410.44V436.733C149.172 438.397 149.771 438.996 151.834 438.996V439.595H143.314V438.996C145.377 438.996 145.91 438.397 145.91 436.733V408.51C145.91 406.779 145.377 406.246 143.314 406.246V405.647H149.172V409.641C150.769 406.979 153.831 405.048 156.627 405.048C161.819 405.048 162.551 409.508 162.551 412.969V436.733Z" fill="black"/>
<path d="M141.722 438.464L141.988 438.996C141.123 439.861 140.191 440.261 139.059 440.194C137.063 439.995 135.598 438.863 135.332 436.799C133.934 438.796 132.536 440.194 130.14 440.194C125.48 440.194 120.887 434.27 120.887 422.621C120.887 410.972 125.48 405.048 130.14 405.048C131.737 405.048 133.867 406.047 135.332 408.576V395.862C135.332 394.198 134.799 393.599 132.669 393.599V393C138.594 393 138.594 393 138.594 393V436.666C138.594 438.064 139.392 438.93 140.324 438.996C140.79 439.063 141.19 438.863 141.722 438.464ZM135.332 434.137V409.774C134.2 407.378 132.47 405.647 130.14 405.647C125.813 405.647 124.149 411.305 124.149 422.621C124.149 433.871 125.813 439.595 130.14 439.595C132.27 439.595 134.2 437.998 135.332 434.137Z" fill="black"/>
<path d="M109.012 405.048C113.605 405.048 118.198 410.972 118.198 422.621C118.198 434.27 113.605 440.194 109.012 440.194C104.352 440.194 99.8259 434.27 99.8259 422.621C99.8259 410.972 104.352 405.048 109.012 405.048ZM109.012 439.595C113.339 439.595 114.936 433.871 114.936 422.621C114.936 411.305 113.339 405.647 109.012 405.647C104.685 405.647 103.021 411.305 103.021 422.621C103.021 433.871 104.685 439.595 109.012 439.595Z" fill="black"/>
<path d="M95.1545 436.733C95.1545 438.397 95.7536 438.996 97.8171 438.996V439.595H89.2968V438.996C91.3603 438.996 91.8928 438.397 91.8928 436.733V412.836C91.8928 407.844 90.2953 406.246 88.0321 406.246C85.902 406.246 83.9717 407.777 82.5072 410.44C82.6404 411.239 82.6404 412.104 82.6404 412.969V436.733C82.6404 438.397 83.2395 438.996 85.303 438.996V439.595H76.7827V438.996C78.8462 438.996 79.3787 438.397 79.3787 436.733V412.836C79.3787 407.844 77.7812 406.246 75.518 406.246C73.6542 406.246 71.6572 407.777 70.1262 410.44V436.733C70.1262 438.397 70.7253 438.996 72.7888 438.996V439.595H64.2686V438.996C66.3321 438.996 66.8646 438.397 66.8646 436.733V408.51C66.8646 406.779 66.3321 406.246 64.2686 406.246V405.647H70.1262V409.641C71.7238 406.979 73.987 405.048 76.7827 405.048C80.3772 405.048 81.8416 407.245 82.3741 409.708C83.9051 407.112 86.2349 405.048 89.2968 405.048C94.4223 405.048 95.1545 409.508 95.1545 412.969V436.733Z" fill="black"/>
<path d="M48.9633 438.464L49.2961 438.996C48.4307 439.861 47.4323 440.261 46.3007 440.194C44.1706 439.995 42.9059 438.663 42.6396 436.2C41.508 438.863 39.7108 440.194 37.5807 440.194C34.8516 440.194 30.1255 438.33 30.1255 432.007C30.1255 424.152 37.2479 419.559 42.6396 417.562V413.768C42.6396 408.909 41.3083 405.647 38.7789 405.647C35.85 405.647 34.5853 408.044 34.5853 412.171C34.5853 413.302 34.2525 414.234 33.3206 414.234C32.4552 414.234 32.0559 413.369 32.0559 412.171C32.0559 408.975 34.785 405.048 38.7789 405.048C42.7728 405.048 45.9013 408.044 45.9013 414.168V436.666C45.9013 438.064 46.6335 438.93 47.5654 438.996C48.0314 439.063 48.4973 438.863 48.9633 438.464ZM42.6396 433.937V418.095C40.7093 418.694 33.3206 423.487 33.3206 432.406C33.3206 437.598 35.85 439.595 37.9801 439.595C40.5096 439.595 42.3068 436.6 42.6396 433.937Z" fill="black"/>
<path d="M27.4432 431.275H28.1089C27.5764 433.804 26.6445 438.064 26.3116 439.595H12.2L24.0484 406.246H18.8564C15.3285 406.246 14.1969 409.774 13.1984 413.901H12.5993C13.1319 411.438 13.9972 407.178 14.3966 405.647H27.7095L15.861 438.996H21.7852C25.3797 438.996 26.4448 435.468 27.4432 431.275Z" fill="black"/>
</svg>
