<?xml version="1.0" encoding="utf-8"?>
<!-- Generator: Adobe Illustrator 27.9.0, SVG Export Plug-In . SVG Version: 6.00 Build 0)  -->
<svg version="1.1" id="Layer_1" xmlns="http://www.w3.org/2000/svg" xmlns:xlink="http://www.w3.org/1999/xlink" x="0px" y="0px"
	 viewBox="0 0 494 454" style="enable-background:new 0 0 494 454;" xml:space="preserve">
<style type="text/css">
	.st0{fill:#FFFFFF;}
</style>
<path class="st0" d="M480.6,66.7c0.6,2.8,0.8,3.4,4,3.4V71h-11.8v-0.9c3.1,0,3.3-0.8,2.8-3.3l-3-14.9H457l-3.1,14.8
	c-0.5,2.9-0.3,3.4,3.4,3.4V71H449v-0.9c3.2,0,3.4-0.6,4-3.4L466.4,1h0.9L480.6,66.7z M457.1,50.9h15.3l-7.6-37.6L457.1,50.9z"/>
<path class="st0" d="M449.7,1h8.3v0.9c-3.2,0-3.4,0.5-4,3.4L440.7,71h-1L426.4,5.3c-0.5-2.8-0.8-3.4-4-3.4V1h11.8v0.9
	c-3.1,0-3.3,0.8-2.8,3.3l10.8,53.5l10.9-53.4c0.6-2.9,0.3-3.4-3.4-3.4V1z"/>
<path class="st0" d="M405.2,0.1c10.2,0,17.2,13.6,17.2,35.9s-7,35.9-17.2,35.9c-10.1,0-17.1-13.6-17.1-35.9S395.1,0.1,405.2,0.1z
	 M405.2,71c8.3,0,12.3-12,12.3-35c0-23.1-4-35-12.3-35C397,1,393,12.9,393,36C393,59,397,71,405.2,71z"/>
<path class="st0" d="M365,1c9.6,0,18.1,6.8,18.1,35s-8.5,35-18.1,35h-15.4v-0.9c3.1,0,4-0.8,4-3.4V5.3c0-2.6-0.9-3.4-4-3.4V1H365z
	 M365,70.1c7.8,0,13.2-5.5,13.2-34.1S370.9,1.9,365,1.9h-2.6c-3.1,0-3.9,0.8-3.9,3.4v61.4c0,2.6,0.8,3.4,3.9,3.4H365z"/>
<path class="st0" d="M337.9,1h8.8v0.9c-3.1,0-3.9,0.8-3.9,3.4V71h-1l-23-64.5v60.2c0,2.6,0.8,3.4,3.9,3.4V71h-8.8v-0.9
	c3.1,0,3.9-0.8,3.9-3.4V5.3c0-2.6-0.8-3.4-3.9-3.4V1h8.1l19.8,55.4V5.3c0-2.6-0.8-3.4-3.9-3.4V1z"/>
<path class="st0" d="M311.1,55.8h0.8c0,0-2.5,11.9-3.2,15.2h-28v-0.9c3.1,0,4-0.8,4-3.4V5.3c0-2.6-0.9-3.4-4-3.4V1h26.8
	c0.8,3.3,3.3,15.2,3.3,15.2H310c-1.8-7.4-3.1-14.3-9.2-14.3h-7.2c-3.2,0-4,0.8-4,3.4v22h9.1c4,0,4.2-3.8,4.2-8.3h0.9v17.5h-0.9
	c0-4.4-0.2-8.3-4.2-8.3h-9.1v38.5c0,2.6,0.8,3.4,4,3.4h8.3C308,70.1,309.3,63.2,311.1,55.8z"/>
<path class="st0" d="M274,68.2c0.6,1.6,1,1.9,3.6,1.9V71h-6c-1.1,0-2-0.7-2.3-1.7L258,34.1h-6.9v32.6c0,2.6,0.8,3.4,4,3.4V71h-12.9
	v-0.9c3.2,0,4-0.8,4-3.4V5.3c0-2.6-0.8-3.4-4-3.4V1h16.5c10.3,0,14.7,7.5,14.7,16.5c0,7.7-3.2,14.3-10.4,16.1L274,68.2z M251.1,33.2
	h7.6c8.9,0,9.8-8.5,9.8-15.7s-0.9-15.6-9.8-15.6h-3.6c-3.2,0-4,0.8-4,3.4V33.2z"/>
<path class="st0" d="M239,1c0.7,3.3,3.2,15.2,3.2,15.2h-0.8c-1.8-7.4-3.1-14.3-9.2-14.3h-3.6c-3.1,0-4,0.8-4,3.4v61.4
	c0,2.6,0.9,3.4,4,3.4V71h-12.9v-0.9c3.2,0,4-0.8,4-3.4V5.3c0-2.6-0.8-3.4-4-3.4h-3.5c-6.2,0-7.5,6.9-9.2,14.3h-0.9
	c0,0,2.6-11.9,3.3-15.2H239z"/>
<path class="st0" d="M178.1,1.9c-3.1,0-4,0.8-4,3.4v61.4c0,2.6,0.9,3.4,4,3.4V71h-12.8v-0.9c3.1,0,3.9-0.8,3.9-3.4V5.6L155.9,71H155
	L142.4,8.8v57.9c0,2.6,0.9,3.4,4,3.4V71h-8.9v-0.9c3.2,0,4-0.8,4-3.4V5.3c0-2.6-0.8-3.4-4-3.4V1h8.3l11.7,57.7L169.2,1h8.9V1.9z"/>
<path class="st0" d="M131.5,66.7c0.6,2.8,0.8,3.4,4,3.4V71h-11.8v-0.9c3.1,0,3.3-0.8,2.8-3.3l-3-14.9h-15.6l-3.1,14.8
	c-0.5,2.9-0.3,3.4,3.4,3.4V71h-8.3v-0.9c3.2,0,3.4-0.6,4-3.4L117.3,1h0.9L131.5,66.7z M108,50.9h15.3l-7.6-37.6L108,50.9z"/>
<path class="st0" d="M82.8,1c9.6,0,18.1,6.8,18.1,35s-8.5,35-18.1,35H67.4v-0.9c3.1,0,4-0.8,4-3.4V5.3c0-2.6-0.9-3.4-4-3.4V1H82.8z
	 M82.8,70.1C90.6,70.1,96,64.6,96,36S88.7,1.9,82.8,1.9h-2.6c-3.1,0-3.9,0.8-3.9,3.4v61.4c0,2.6,0.8,3.4,3.9,3.4H82.8z"/>
<path class="st0" d="M64.6,55.8h0.8c0,0-2.5,11.9-3.2,15.2h-28v-0.9c3.1,0,4-0.8,4-3.4V5.3c0-2.6-0.9-3.4-4-3.4V1H61
	c0.8,3.3,3.3,15.2,3.3,15.2h-0.8c-1.8-7.4-3.1-14.3-9.2-14.3h-7.2c-3.2,0-4,0.8-4,3.4v22h9.1c4,0,4.2-3.8,4.2-8.3h0.9v17.5h-0.9
	c0-4.4-0.2-8.3-4.2-8.3h-9.1v38.5c0,2.6,0.8,3.4,4,3.4h8.3C61.5,70.1,62.8,63.2,64.6,55.8z"/>
<path class="st0" d="M5.1,13.4C5.1,33,32.2,34,32.2,54.6c0,11.1-6.8,17.3-14.9,17.3c-8.2,0-12.9-8.8-14.1-8.8c-0.9,0-0.1,6.3,0,7.9
	H2.3C2.1,69.4,0.2,51.7,0,50.3h0.9C3.3,63.5,10.6,71,17.3,71c6.6,0,10.8-4.3,10.8-14.6c0-18.7-26.7-19.3-26.7-41.3
	c0-10.1,7.8-15,14-15c7.2,0,10.4,7.2,11.5,7.2c0.9,0,0.3-4.9,0.2-6.3h0.8c0.1,1.5,1.8,16.6,2,17.9H29C26.8,7,21.4,1,15.4,1
	C10.2,1,5.1,5.5,5.1,13.4z"/>
<path class="st0" d="M479.2,94.8c-6.2,0-8,1.6-8,6.8v122.8c0,5.2,1.8,6.8,8,6.8v1.8h-25.6v-1.8c6.2,0,7.8-1.6,7.8-6.8V102.2
	L434.8,233H433l-25.2-124.4v115.8c0,5.2,1.8,6.8,8,6.8v1.8H398v-1.8c6.4,0,8-1.6,8-6.8V101.6c0-5.2-1.6-6.8-8-6.8V93h16.6L438,208.4
	L461.4,93h17.8V94.8z"/>
<path class="st0" d="M385.9,224.4c1.2,5.6,1.6,6.8,8,6.8v1.8h-23.6v-1.8c6.2,0,6.6-1.6,5.6-6.6l-6-29.8h-31.2l-6.2,29.6
	c-1,5.8-0.6,6.8,6.8,6.8v1.8h-16.6v-1.8c6.4,0,6.8-1.2,8-6.8L357.5,93h1.8L385.9,224.4z M338.9,192.8h30.6l-15.2-75.2L338.9,192.8z"
	/>
<path class="st0" d="M288.6,93c19.2,0,36.2,13.6,36.2,70s-17,70-36.2,70h-30.8v-1.8c6.2,0,8-1.6,8-6.8V101.6c0-5.2-1.8-6.8-8-6.8V93
	H288.6z M288.6,231.2c15.6,0,26.4-11,26.4-68.2s-14.6-68.2-26.4-68.2h-5.2c-6.2,0-7.8,1.6-7.8,6.8v122.8c0,5.2,1.6,6.8,7.8,6.8
	H288.6z"/>
<path class="st0" d="M252.2,202.6h1.6c0,0-5,23.8-6.4,30.4h-56v-1.8c6.2,0,8-1.6,8-6.8V101.6c0-5.2-1.8-6.8-8-6.8V93H245
	c1.6,6.6,6.6,30.4,6.6,30.4H250c-3.6-14.8-6.2-28.6-18.4-28.6h-14.4c-6.4,0-8,1.6-8,6.8v44h18.2c8,0,8.4-7.6,8.4-16.6h1.8v35h-1.8
	c0-8.8-0.4-16.6-8.4-16.6h-18.2v77c0,5.2,1.6,6.8,8,6.8h16.6C246,231.2,248.6,217.4,252.2,202.6z"/>
<path class="st0" d="M133.1,117.8c0,39.2,54.2,41.2,54.2,82.4c0,22.2-13.6,34.6-29.8,34.6c-16.4,0-25.8-17.6-28.2-17.6
	c-1.8,0-0.2,12.6,0,15.8h-1.8c-0.4-3.2-4.2-38.6-4.6-41.4h1.8c4.8,26.4,19.4,41.4,32.8,41.4c13.2,0,21.6-8.6,21.6-29.2
	c0-37.4-53.4-38.6-53.4-82.6c0-20.2,15.6-30,28-30c14.4,0,20.8,14.4,23,14.4c1.8,0,0.6-9.8,0.4-12.6h1.6c0.2,3,3.6,33.2,4,35.8h-1.8
	C176.5,105,165.7,93,153.7,93C143.3,93,133.1,102,133.1,117.8z"/>
<path class="st0" d="M57.4,93H75v1.8c-6.2,0-7.8,1.6-7.8,6.8v97.6c0,20-8.2,35.6-24.8,35.6c-19.6,0-30.6-11.4-30.6-37.2v-96
	c0-5.2-1.6-6.8-7.8-6.8V93h25.6v1.8c-6.2,0-8,1.6-8,6.8V192c0,29.8,5.4,41,22.2,41c13.8,0,21.6-14.4,21.6-33l-0.2-98.4
	c0-5.2-1.6-6.8-7.8-6.8V93z"/>
<path class="st0" d="M487.7,341c0.8,3.9,1.1,4.8,5.6,4.8v1.3h-16.5v-1.3c4.3,0,4.6-1.1,3.9-4.6l-4.2-20.9h-21.8l-4.3,20.7
	c-0.7,4.1-0.4,4.8,4.8,4.8v1.3h-11.6v-1.3c4.5,0,4.8-0.8,5.6-4.8l18.8-92h1.3L487.7,341z M454.8,318.9h21.4l-10.6-52.6L454.8,318.9z
	"/>
<path class="st0" d="M428.2,249h17.9v1.3c-4.3,0-5.5,1.1-5.5,4.8v69.9c0,15.4-7.3,23.4-18.3,23.4c-9.5,0-17.8-7.1-17.8-13.6
	c0-2.1,1-4.2,3.1-4.2c1.8,0,3.2,1.4,3.2,4.2c0,7.4,4.2,12.3,11.5,12.3c11.8,0,11.5-15.5,11.5-22.1V255c0-3.6-1.3-4.8-5.6-4.8V249z"
	/>
<path class="st0" d="M398.9,255v86c0,3.6,1.1,4.8,5.6,4.8v1.3h-18.1v-1.3c4.5,0,5.6-1.1,5.6-4.8v-86c0-3.6-1.1-4.8-5.6-4.8V249h18.1
	v1.3C400,250.3,398.9,251.4,398.9,255z"/>
<path class="st0" d="M382.6,325.6l1.1,0.6c-4.1,14-11.6,22.1-20.9,22.1c-15.8,0-23.9-19-23.9-50.3s9.7-50.3,23.9-50.3
	c10.8,0,14,10.2,15.5,10.2c1.1,0,0.1-7,0.1-9h1c0.3,2.1,2.7,23.2,2.9,25.1h-1.3c-3.1-16.9-9.8-25.1-18.3-25.1
	c-11.5,0-17.1,16.8-17.1,49s3.4,48.6,18.2,48.6C372.2,346.6,379.1,337.6,382.6,325.6z"/>
<path class="st0" d="M334.7,341c0.8,3.9,1.1,4.8,5.6,4.8v1.3h-16.5v-1.3c4.3,0,4.6-1.1,3.9-4.6l-4.2-20.9h-21.8l-4.3,20.7
	c-0.7,4.1-0.4,4.8,4.8,4.8v1.3h-11.6v-1.3c4.5,0,4.8-0.8,5.6-4.8l18.8-92h1.3L334.7,341z M301.8,318.9h21.4l-10.6-52.6L301.8,318.9z
	"/>
<path class="st0" d="M278.2,249h12.3v1.3c-4.3,0-5.5,1.1-5.5,4.8v92h-1.4l-32.2-90.3V341c0,3.6,1.1,4.8,5.5,4.8v1.3h-12.3v-1.3
	c4.3,0,5.5-1.1,5.5-4.8v-86c0-3.6-1.1-4.8-5.5-4.8V249h11.3l27.7,77.6V255c0-3.6-1.1-4.8-5.5-4.8V249z"/>
<path class="st0" d="M234.7,255v86c0,3.6,1.1,4.8,5.6,4.8v1.3h-18.1v-1.3c4.5,0,5.6-1.1,5.6-4.8v-86c0-3.6-1.1-4.8-5.6-4.8V249h18.1
	v1.3C235.8,250.3,234.7,251.4,234.7,255z"/>
<path class="st0" d="M198.8,294.1c13.3,1.3,20.7,14.4,20.7,26.5c0,14.6-9.7,26.5-23.1,26.5h-26.9v-1.3c4.3,0,5.6-1.1,5.6-4.8v-86
	c0-3.6-1.3-4.8-5.6-4.8V249h23.1c14.4,0,20.4,10.5,20.4,23.1C213,282.3,207.9,291.1,198.8,294.1z M182,255v39.1h10.6
	c12.5,0,14.1-11.8,14.1-22c0-10.1-1.7-21.8-14.1-21.8h-5C183.1,250.3,182,251.4,182,255z M196.4,345.7c12.5,0,16.2-12.6,16.2-25.2
	c0-10.1-3.4-25.2-15.8-25.2H182V341c0,3.6,1.1,4.8,5.6,4.8H196.4z"/>
<path class="st0" d="M162.5,250.3c-4.3,0-5.6,1.1-5.6,4.8v86c0,3.6,1.3,4.8,5.6,4.8v1.3h-17.9v-1.3c4.3,0,5.5-1.1,5.5-4.8v-85.5
	L131.4,347h-1.3l-17.6-87.1V341c0,3.6,1.3,4.8,5.6,4.8v1.3h-12.5v-1.3c4.5,0,5.6-1.1,5.6-4.8v-86c0-3.6-1.1-4.8-5.6-4.8V249h11.6
	l16.4,80.8L150,249h12.5V250.3z"/>
<path class="st0" d="M75.9,247.7c14.3,0,24.1,19,24.1,50.3s-9.8,50.3-24.1,50.3c-14.1,0-23.9-19-23.9-50.3S61.7,247.7,75.9,247.7z
	 M75.9,347c11.6,0,17.2-16.8,17.2-49c0-32.3-5.6-49-17.2-49c-11.5,0-17.1,16.7-17.1,49C58.8,330.2,64.4,347,75.9,347z"/>
<path class="st0" d="M47.5,341c1.3,4.2,1.5,4.8,5.9,4.8v1.3H36.7v-1.3c4.3,0,4.9-0.6,3.5-4.6l-18.8-57.3l-4.8,7V341
	c0,3.6,1.1,4.8,5.6,4.8v1.3H4.2v-1.3c4.5,0,5.6-1.1,5.6-4.8v-86c0-3.6-1.1-4.8-5.6-4.8V249h18.1v1.3c-4.5,0-5.6,1.1-5.6,4.8v33.6
	L39.3,255c2.5-3.8,0-4.8-4.5-4.8V249h14.6v1.3c-4.3,0-6,0.8-8.5,4.8l-14.7,21.7L47.5,341z"/>
<path class="st0" d="M490.4,436.7c0,1.7,0.5,2.3,2.6,2.3v0.6h-8.5V439c2.1,0,2.7-0.6,2.7-2.3v-23.9c0-5-1.7-6.6-3.9-6.6
	c-1.9,0-4.7,1.5-6.2,4.2v26.3c0,1.7,0.6,2.3,2.7,2.3v0.6h-8.5V439c2.1,0,2.6-0.6,2.6-2.3v-28.2c0-1.7-0.5-2.3-2.6-2.3v-0.6h5.9v4
	c1.6-2.7,4.7-4.6,7.5-4.6c5.2,0,5.9,4.5,5.9,7.9V436.7z"/>
<path class="st0" d="M469.8,420.4h-13.7c0,0.7,0,1.5,0,2.3c0,11.2,2.5,16.8,6.8,16.8c2.6,0,4.7-2.2,5.9-5.5l0.3,0.2
	c-1.5,4.1-3.8,6.1-6.7,6.1c-5.3,0-9.6-5.9-9.6-17.6c0-11.6,4.5-17.6,9.1-17.6C466.2,405,469.8,410.8,469.8,420.4z M461.9,405.6
	c-3.9,0-5.6,4.7-5.8,14.1h10.5C466.5,410.4,465.8,405.6,461.9,405.6z"/>
<path class="st0" d="M437,411.2c0,8.9,13.1,9.9,13.1,19.8c0,6.5-4.1,9.2-7.9,9.2c-4.9,0-7.8-4.5-7.8-7.5c0-1.1,0.4-1.9,1.2-1.9
	c1,0,1.3,0.9,1.3,1.9c-0.2,3.7,2.1,6.9,5.4,6.9c3.4,0,5.8-2.8,5.8-7.3c0-8.5-12.9-9.2-12.9-19.7c0-4.7,2.9-7.6,6.5-7.6
	c3.9,0,7.3,3.9,7.3,7.2c0,1-0.2,2-1.2,2c-0.9,0-1.2-1.1-1.2-2c0-3.6-1.8-6.6-4.9-6.6C439.5,405.6,437,407.2,437,411.2z"/>
<path class="st0" d="M433.1,420.4h-13.7c0,0.7,0,1.5,0,2.3c0,11.2,2.5,16.8,6.8,16.8c2.6,0,4.7-2.2,5.9-5.5l0.3,0.2
	c-1.5,4.1-3.8,6.1-6.7,6.1c-5.3,0-9.6-5.9-9.6-17.6c0-11.6,4.5-17.6,9.1-17.6C429.6,405,433.1,410.8,433.1,420.4z M425.3,405.6
	c-3.9,0-5.6,4.7-5.8,14.1h10.5C429.9,410.4,429.2,405.6,425.3,405.6z"/>
<path class="st0" d="M405.9,406.2v-0.6c5.9,0,5.9,0,5.9,0v35.7c0,8.5-2.3,12.4-6.9,12.4c-3.3,0-5.5-3.8-5.5-6.6c0-1,0.5-2.1,1.5-2.1
	s1.3,0.9,1.1,2.1c-0.7,2.7,0.3,6,2.9,6c4.1,0,3.7-8.7,3.7-11.8v-32.9C408.5,406.8,407.9,406.2,405.9,406.2z M409.8,401
	c-1.3,0-2.4-1.1-2.4-2.4c0-1.3,1.1-2.4,2.4-2.4c1.3,0,2.4,1.1,2.4,2.4C412.2,399.9,411.1,401,409.8,401z"/>
<path class="st0" d="M389.8,438.5l0.3,0.5c-0.9,0.9-1.8,1.3-2.9,1.2c-2.2-0.2-3.7-1.6-3.7-4v-0.6c-1.5,2.6-3.7,4.6-6.5,4.6
	c-5.2,0-6.9-4.5-6.9-7.9v-23.8c0-1.7-0.5-2.3-2.7-2.3v-0.6h5.1c0.5,0,0.9,0.4,0.9,0.9v25.9c0,5,2.6,6.5,4.8,6.5
	c1.9,0,3.9-1.7,5.3-4.4v-26c0-1.7-0.5-2.3-2.6-2.3v-0.6h5.1c0.5,0,0.8,0.4,0.8,0.9v30.2c0,1.4,0.8,2.3,1.7,2.3
	C388.9,439.1,389.3,438.9,389.8,438.5z"/>
<path class="st0" d="M364.2,436.7c0,1.7,0.5,2.3,2.6,2.3v0.6h-8.5V439c2.1,0,2.7-0.6,2.7-2.3v-23.9c0-5-1.7-6.6-3.9-6.6
	c-1.9,0-4.7,1.5-6.2,4.2v26.3c0,1.7,0.6,2.3,2.7,2.3v0.6H345V439c2.1,0,2.6-0.6,2.6-2.3v-28.2c0-1.7-0.5-2.3-2.6-2.3v-0.6h5.9v4
	c1.6-2.7,4.7-4.6,7.5-4.6c5.2,0,5.9,4.5,5.9,7.9V436.7z"/>
<path class="st0" d="M343.6,420.4h-13.7c0,0.7,0,1.5,0,2.3c0,11.2,2.5,16.8,6.8,16.8c2.6,0,4.7-2.2,5.9-5.5l0.3,0.2
	c-1.5,4.1-3.8,6.1-6.7,6.1c-5.3,0-9.6-5.9-9.6-17.6c0-11.6,4.5-17.6,9.1-17.6C340.1,405,343.6,410.8,343.6,420.4z M335.7,405.6
	c-3.9,0-5.6,4.7-5.8,14.1h10.5C340.3,410.4,339.7,405.6,335.7,405.6z"/>
<path class="st0" d="M325.3,435.1l0.6,0.3c-0.7,2.8-2,4.7-4.1,4.7c-4.7,0-4.9-5.4-4.9-10.7v-21c0-1.7-0.5-2.3-2.7-2.3v-0.6
	c4.7,0,5-2.1,5.3-5.9h0.6v5.9h3.9v0.6h-3.9v26.8c0,4.2,0.9,5.9,2.5,5.9C323.8,438.9,324.8,437.3,325.3,435.1z"/>
<path class="st0" d="M299.8,411.2c0,8.9,13.1,9.9,13.1,19.8c0,6.5-4.1,9.2-7.9,9.2c-4.9,0-7.8-4.5-7.8-7.5c0-1.1,0.4-1.9,1.2-1.9
	c1,0,1.3,0.9,1.3,1.9c-0.2,3.7,2.1,6.9,5.4,6.9c3.4,0,5.8-2.8,5.8-7.3c0-8.5-12.9-9.2-12.9-19.7c0-4.7,2.9-7.6,6.5-7.6
	c3.9,0,7.3,3.9,7.3,7.2c0,1-0.2,2-1.2,2c-0.9,0-1.2-1.1-1.2-2c0-3.6-1.8-6.6-4.9-6.6C302.3,405.6,299.8,407.2,299.8,411.2z
	 M304.6,399.8l5.3-5.4l-3.7,7.3h-2.9l-4.4-7.3L304.6,399.8z"/>
<path class="st0" d="M295.9,420.4h-13.7c0,0.7,0,1.5,0,2.3c0,11.2,2.5,16.8,6.8,16.8c2.6,0,4.7-2.2,5.9-5.5l0.3,0.2
	c-1.5,4.1-3.8,6.1-6.7,6.1c-5.3,0-9.6-5.9-9.6-17.6c0-11.6,4.5-17.6,9.1-17.6C292.4,405,295.9,410.8,295.9,420.4z M288,405.6
	c-3.9,0-5.6,4.7-5.8,14.1h10.5C292.6,410.4,292,405.6,288,405.6z"/>
<path class="st0" d="M268.6,406.2v-0.6c5.9,0,5.9,0,5.9,0v35.7c0,8.5-2.3,12.4-6.9,12.4c-3.3,0-5.5-3.8-5.5-6.6c0-1,0.5-2.1,1.5-2.1
	c0.9,0,1.3,0.9,1.1,2.1c-0.7,2.7,0.3,6,2.9,6c4.1,0,3.7-8.7,3.7-11.8v-32.9C271.3,406.8,270.7,406.2,268.6,406.2z M272.6,401
	c-1.3,0-2.4-1.1-2.4-2.4c0-1.3,1.1-2.4,2.4-2.4c1.3,0,2.4,1.1,2.4,2.4C275,399.9,273.9,401,272.6,401z"/>
<path class="st0" d="M264.2,436.7c0,1.7,0.5,2.3,2.6,2.3v0.6h-8.5V439c2.1,0,2.7-0.6,2.7-2.3v-28.2c0-1.7-0.6-2.3-2.7-2.3v-0.6
	c3.5,0,5.9,0,5.9,0V436.7z M262.2,401c-1.3,0-2.4-1.1-2.4-2.4c0-1.3,1.1-2.4,2.4-2.4s2.4,1.1,2.4,2.4
	C264.6,399.9,263.5,401,262.2,401z"/>
<path class="st0" d="M252.1,405.6h5.5v0.6c-2.1,0-2.2,0.3-2.6,2.2l-7.4,31.2H247l-7.4-31.1c-0.4-1.9-0.5-2.3-2.7-2.3v-0.6h7.9v0.6
	c-2.1,0-2.2,0.5-1.8,2.2l5.7,24l5.7-24c0.5-1.9,0.2-2.2-2.3-2.2V405.6z"/>
<path class="st0" d="M224.5,411.2c0,8.9,13.1,9.9,13.1,19.8c0,6.5-4.1,9.2-7.9,9.2c-4.9,0-7.8-4.5-7.8-7.5c0-1.1,0.4-1.9,1.2-1.9
	c1,0,1.3,0.9,1.3,1.9c-0.2,3.7,2.1,6.9,5.4,6.9c3.4,0,5.8-2.8,5.8-7.3c0-8.5-12.9-9.2-12.9-19.7c0-4.7,2.9-7.6,6.5-7.6
	c3.9,0,7.3,3.9,7.3,7.2c0,1-0.2,2-1.2,2c-0.9,0-1.2-1.1-1.2-2c0-3.6-1.8-6.6-4.9-6.6C227,405.6,224.5,407.2,224.5,411.2z"/>
<path class="st0" d="M210.7,405c4.6,0,9.2,5.9,9.2,17.6c0,11.6-4.6,17.6-9.2,17.6c-4.7,0-9.2-5.9-9.2-17.6
	C201.6,411,206.1,405,210.7,405z M210.7,439.6c4.3,0,5.9-5.7,5.9-17c0-11.3-1.6-17-5.9-17c-4.3,0-6,5.7-6,17
	C204.8,433.9,206.4,439.6,210.7,439.6z"/>
<path class="st0" d="M176.4,405c4.6,0,9.2,5.9,9.2,17.6c0,11.6-4.6,17.6-9.2,17.6c-4.7,0-9.2-5.9-9.2-17.6
	C167.2,411,171.7,405,176.4,405z M176.4,439.6c4.3,0,5.9-5.7,5.9-17c0-11.3-1.6-17-5.9-17c-4.3,0-6,5.7-6,17
	C170.4,433.9,172,439.6,176.4,439.6z"/>
<path class="st0" d="M162.6,436.7c0,1.7,0.5,2.3,2.6,2.3v0.6h-8.5V439c2.1,0,2.7-0.6,2.7-2.3v-23.9c0-5-1.7-6.6-3.9-6.6
	c-1.9,0-4.7,1.5-6.2,4.2v26.3c0,1.7,0.6,2.3,2.7,2.3v0.6h-8.5V439c2.1,0,2.6-0.6,2.6-2.3v-28.2c0-1.7-0.5-2.3-2.6-2.3v-0.6h5.9v4
	c1.6-2.7,4.7-4.6,7.5-4.6c5.2,0,5.9,4.5,5.9,7.9V436.7z"/>
<path class="st0" d="M141.7,438.5l0.3,0.5c-0.9,0.9-1.8,1.3-2.9,1.2c-2-0.2-3.5-1.3-3.7-3.4c-1.4,2-2.8,3.4-5.2,3.4
	c-4.7,0-9.3-5.9-9.3-17.6c0-11.6,4.6-17.6,9.3-17.6c1.6,0,3.7,1,5.2,3.5v-12.7c0-1.7-0.5-2.3-2.7-2.3V393c5.9,0,5.9,0,5.9,0v43.7
	c0,1.4,0.8,2.3,1.7,2.3C140.8,439.1,141.2,438.9,141.7,438.5z M135.3,434.1v-24.4c-1.1-2.4-2.9-4.1-5.2-4.1c-4.3,0-6,5.7-6,17
	c0,11.2,1.7,17,6,17C132.3,439.6,134.2,438,135.3,434.1z"/>
<path class="st0" d="M109,405c4.6,0,9.2,5.9,9.2,17.6c0,11.6-4.6,17.6-9.2,17.6c-4.7,0-9.2-5.9-9.2-17.6C99.8,411,104.4,405,109,405
	z M109,439.6c4.3,0,5.9-5.7,5.9-17c0-11.3-1.6-17-5.9-17c-4.3,0-6,5.7-6,17C103,433.9,104.7,439.6,109,439.6z"/>
<path class="st0" d="M95.2,436.7c0,1.7,0.6,2.3,2.7,2.3v0.6h-8.5V439c2.1,0,2.6-0.6,2.6-2.3v-23.9c0-5-1.6-6.6-3.9-6.6
	c-2.1,0-4.1,1.5-5.5,4.2c0.1,0.8,0.1,1.7,0.1,2.5v23.8c0,1.7,0.6,2.3,2.7,2.3v0.6h-8.5V439c2.1,0,2.6-0.6,2.6-2.3v-23.9
	c0-5-1.6-6.6-3.9-6.6c-1.9,0-3.9,1.5-5.4,4.2v26.3c0,1.7,0.6,2.3,2.7,2.3v0.6h-8.5V439c2.1,0,2.6-0.6,2.6-2.3v-28.2
	c0-1.7-0.5-2.3-2.6-2.3v-0.6h5.9v4c1.6-2.7,3.9-4.6,6.7-4.6c3.6,0,5.1,2.2,5.6,4.7c1.5-2.6,3.9-4.7,6.9-4.7c5.1,0,5.9,4.5,5.9,7.9
	V436.7z"/>
<path class="st0" d="M49,438.5l0.3,0.5c-0.9,0.9-1.9,1.3-3,1.2c-2.1-0.2-3.4-1.5-3.7-4c-1.1,2.7-2.9,4-5.1,4c-2.7,0-7.5-1.9-7.5-8.2
	c0-7.9,7.1-12.4,12.5-14.4v-3.8c0-4.9-1.3-8.1-3.9-8.1c-2.9,0-4.2,2.4-4.2,6.5c0,1.1-0.3,2.1-1.3,2.1c-0.9,0-1.3-0.9-1.3-2.1
	c0-3.2,2.7-7.1,6.7-7.1s7.1,3,7.1,9.1v22.5c0,1.4,0.7,2.3,1.7,2.3C48,439.1,48.5,438.9,49,438.5z M42.6,433.9v-15.8
	c-1.9,0.6-9.3,5.4-9.3,14.3c0,5.2,2.5,7.2,4.7,7.2C40.5,439.6,42.3,436.6,42.6,433.9z"/>
<path class="st0" d="M27.4,431.3h0.7c-0.5,2.5-1.5,6.8-1.8,8.3H12.2L24,406.2h-5.2c-3.5,0-4.7,3.5-5.7,7.7h-0.6
	c0.5-2.5,1.4-6.7,1.8-8.3h13.3L15.9,439h5.9C25.4,439,26.4,435.5,27.4,431.3z"/>
</svg>
