<svg width="339" height="627" viewBox="0 0 339 627" fill="none" xmlns="http://www.w3.org/2000/svg">
<path d="M331.215 29.02V114.98C331.215 118.62 332.335 119.74 336.815 119.74V121H318.755V119.74C323.235 119.74 324.355 118.62 324.355 114.98V29.02C324.355 25.38 323.235 24.26 318.755 24.26V23H336.815V24.26C332.335 24.26 331.215 25.38 331.215 29.02Z" fill="white"/>
<path d="M302.316 23H314.636V24.26C310.296 24.26 309.176 25.38 309.176 29.02V121H307.776L275.576 30.7V114.98C275.576 118.62 276.696 119.74 281.036 119.74V121H268.716V119.74C273.056 119.74 274.176 118.62 274.176 114.98V29.02C274.176 25.38 273.056 24.26 268.716 24.26V23H280.056L307.776 100.56V29.02C307.776 25.38 306.656 24.26 302.316 24.26V23Z" fill="white"/>
<path d="M260.253 114.98C261.093 118.9 261.373 119.74 265.853 119.74V121H249.333V119.74C253.673 119.74 253.953 118.62 253.253 115.12L249.053 94.26H227.213L222.873 114.98C222.173 119.04 222.453 119.74 227.633 119.74V121H216.013V119.74C220.493 119.74 220.773 118.9 221.613 114.98L240.373 23H241.633L260.253 114.98ZM227.353 92.86H248.773L238.133 40.22L227.353 92.86Z" fill="white"/>
<path d="M216.282 99.5796L217.402 100.14C213.342 114.14 205.782 122.26 196.542 122.26C180.722 122.26 172.602 103.22 172.602 71.9996C172.602 40.7796 182.262 21.7396 196.542 21.7396C207.322 21.7396 210.542 31.9596 212.082 31.9596C213.202 31.9596 212.222 24.9596 212.222 22.9996H213.202C213.482 25.0996 215.862 46.2396 216.142 48.0596H214.882C211.802 31.1196 205.082 22.9996 196.542 22.9996C185.062 22.9996 179.462 39.7996 179.462 71.9996C179.462 104.2 182.822 120.58 197.662 120.58C205.922 120.58 212.782 111.62 216.282 99.5796ZM197.102 12.0796L208.162 0.739607L200.322 15.9996H194.162L184.922 0.599609L197.102 12.0796Z" fill="white"/>
<path d="M128.987 40.3596C128.987 67.7996 166.927 69.1996 166.927 98.0396C166.927 113.58 157.407 122.26 146.067 122.26C134.587 122.26 128.007 109.94 126.327 109.94C125.067 109.94 126.187 118.76 126.327 121H125.067C124.787 118.76 122.127 93.9796 121.847 92.0196H123.107C126.467 110.5 136.687 121 146.067 121C155.307 121 161.187 114.98 161.187 100.56C161.187 74.3796 123.807 73.5396 123.807 42.7396C123.807 28.5996 134.727 21.7396 143.407 21.7396C153.487 21.7396 157.967 31.8196 159.507 31.8196C160.767 31.8196 159.927 24.9596 159.787 22.9996H160.907C161.047 25.0996 163.427 46.2396 163.707 48.0596H162.447C159.367 31.3996 151.807 22.9996 143.407 22.9996C136.127 22.9996 128.987 29.2996 128.987 40.3596ZM144.107 12.0796L155.167 0.739607L147.327 15.9996H141.167L131.927 0.599609L144.107 12.0796Z" fill="white"/>
<path d="M117.819 99.72H118.939C118.939 99.72 115.439 116.38 114.459 121H75.2585V119.74C79.5985 119.74 80.8586 118.62 80.8586 114.98V29.02C80.8586 25.38 79.5985 24.26 75.2585 24.26V23H112.779C113.899 27.62 117.399 44.28 117.399 44.28H116.279C113.759 33.92 111.939 24.26 103.399 24.26H93.3186C88.8385 24.26 87.7186 25.38 87.7186 29.02V59.82H100.459C106.059 59.82 106.339 54.5 106.339 48.2H107.599V72.7H106.339C106.339 66.54 106.059 61.08 100.459 61.08H87.7186V114.98C87.7186 118.62 88.8385 119.74 93.3186 119.74H104.939C113.479 119.74 115.299 110.08 117.819 99.72Z" fill="white"/>
<path d="M53.0521 23H70.9721V24.26C66.6321 24.26 65.5121 25.38 65.5121 29.02V98.88C65.5121 114.28 58.2321 122.26 47.1721 122.26C37.6521 122.26 29.3921 115.12 29.3921 108.68C29.3921 106.58 30.3721 104.48 32.4721 104.48C34.2921 104.48 35.6921 105.88 35.6921 108.68C35.6921 116.1 39.8921 121 47.1721 121C58.9321 121 58.6521 105.46 58.6521 98.88V29.02C58.6521 25.38 57.3921 24.26 53.0521 24.26V23Z" fill="white"/>
<path d="M21.2 23C35.62 23 44.72 32.24 44.72 49.04C44.72 65.7 35.62 74.94 21.2 74.94H12.66V114.98C12.66 118.62 13.78 119.74 18.26 119.74V121H0.199951V119.74C4.67995 119.74 5.79995 118.62 5.79995 114.98V29.02C5.79995 25.38 4.67995 24.26 0.199951 24.26V23H21.2ZM21.2 73.68C33.66 73.68 38 65 38 49.04C38 32.94 33.66 24.26 21.2 24.26H18.26C13.78 24.26 12.66 25.38 12.66 29.02V73.68H21.2Z" fill="white"/>
<path d="M234.236 149C235.216 153.62 238.716 170.28 238.716 170.28H237.596C235.076 159.92 233.256 150.26 224.716 150.26H219.676C215.336 150.26 214.076 151.38 214.076 155.02V240.98C214.076 244.62 215.336 245.74 219.676 245.74V247H201.616V245.74C206.096 245.74 207.216 244.62 207.216 240.98V155.02C207.216 151.38 206.096 150.26 201.616 150.26H196.716C188.036 150.26 186.216 159.92 183.836 170.28H182.576C182.576 170.28 186.216 153.62 187.196 149H234.236Z" fill="white"/>
<path d="M188.124 240.98C188.964 244.9 189.244 245.74 193.724 245.74V247H177.204V245.74C181.544 245.74 181.824 244.62 181.124 241.12L176.924 220.26H155.084L150.744 240.98C150.044 245.04 150.324 245.74 155.504 245.74V247H143.884V245.74C148.364 245.74 148.644 244.9 149.484 240.98L168.244 149H169.504L188.124 240.98ZM155.224 218.86H176.644L166.004 166.22L155.224 218.86Z" fill="white"/>
<path d="M105.94 166.36C105.94 193.8 143.88 195.2 143.88 224.04C143.88 239.58 134.36 248.26 123.02 248.26C111.54 248.26 104.96 235.94 103.28 235.94C102.02 235.94 103.14 244.76 103.28 247H102.02C101.74 244.76 99.08 219.98 98.8 218.02H100.06C103.42 236.5 113.64 247 123.02 247C132.26 247 138.14 240.98 138.14 226.56C138.14 200.38 100.76 199.54 100.76 168.74C100.76 154.6 111.68 147.74 120.36 147.74C130.44 147.74 134.92 157.82 136.46 157.82C137.72 157.82 136.88 150.96 136.74 149H137.86C138 151.1 140.38 172.24 140.66 174.06H139.4C136.32 157.4 128.76 149 120.36 149C113.08 149 105.94 155.3 105.94 166.36Z" fill="white"/>
<path d="M332.215 281.02V366.98C332.215 370.62 333.335 371.74 337.815 371.74V373H319.755V371.74C324.235 371.74 325.355 370.62 325.355 366.98V281.02C325.355 277.38 324.235 276.26 319.755 276.26V275H337.815V276.26C333.335 276.26 332.215 277.38 332.215 281.02Z" fill="white"/>
<path d="M303.316 275H315.636V276.26C311.296 276.26 310.176 277.38 310.176 281.02V373H308.776L276.576 282.7V366.98C276.576 370.62 277.696 371.74 282.036 371.74V373H269.716V371.74C274.056 371.74 275.176 370.62 275.176 366.98V281.02C275.176 277.38 274.056 276.26 269.716 276.26V275H281.056L308.776 352.56V281.02C308.776 277.38 307.656 276.26 303.316 276.26V275Z" fill="white"/>
<path d="M261.253 366.98C262.093 370.9 262.373 371.74 266.853 371.74V373H250.333V371.74C254.673 371.74 254.953 370.62 254.253 367.12L250.053 346.26H228.213L223.873 366.98C223.173 371.04 223.453 371.74 228.633 371.74V373H217.013V371.74C221.493 371.74 221.773 370.9 222.613 366.98L241.373 275H242.633L261.253 366.98ZM228.353 344.86H249.773L239.133 292.22L228.353 344.86Z" fill="white"/>
<path d="M217.282 351.58L218.402 352.14C214.342 366.14 206.782 374.26 197.542 374.26C181.722 374.26 173.602 355.22 173.602 324C173.602 292.78 183.262 273.74 197.542 273.74C208.322 273.74 211.542 283.96 213.082 283.96C214.202 283.96 213.222 276.96 213.222 275H214.202C214.482 277.1 216.862 298.24 217.142 300.06H215.882C212.802 283.12 206.082 275 197.542 275C186.062 275 180.462 291.8 180.462 324C180.462 356.2 183.822 372.58 198.662 372.58C206.922 372.58 213.782 363.62 217.282 351.58ZM198.102 264.08L209.162 252.74L201.322 268H195.162L185.922 252.6L198.102 264.08Z" fill="white"/>
<path d="M129.987 292.36C129.987 319.8 167.927 321.2 167.927 350.04C167.927 365.58 158.407 374.26 147.067 374.26C135.587 374.26 129.007 361.94 127.327 361.94C126.067 361.94 127.187 370.76 127.327 373H126.067C125.787 370.76 123.127 345.98 122.847 344.02H124.107C127.467 362.5 137.687 373 147.067 373C156.307 373 162.187 366.98 162.187 352.56C162.187 326.38 124.807 325.54 124.807 294.74C124.807 280.6 135.727 273.74 144.407 273.74C154.487 273.74 158.967 283.82 160.507 283.82C161.767 283.82 160.927 276.96 160.787 275H161.907C162.047 277.1 164.427 298.24 164.707 300.06H163.447C160.367 283.4 152.807 275 144.407 275C137.127 275 129.987 281.3 129.987 292.36ZM145.107 264.08L156.167 252.74L148.327 268H142.167L132.927 252.6L145.107 264.08Z" fill="white"/>
<path d="M118.819 351.72H119.939C119.939 351.72 116.439 368.38 115.459 373H76.2585V371.74C80.5985 371.74 81.8586 370.62 81.8586 366.98V281.02C81.8586 277.38 80.5985 276.26 76.2585 276.26V275H113.779C114.899 279.62 118.399 296.28 118.399 296.28H117.279C114.759 285.92 112.939 276.26 104.399 276.26H94.3186C89.8385 276.26 88.7186 277.38 88.7186 281.02V311.82H101.459C107.059 311.82 107.339 306.5 107.339 300.2H108.599V324.7H107.339C107.339 318.54 107.059 313.08 101.459 313.08H88.7186V366.98C88.7186 370.62 89.8385 371.74 94.3186 371.74H105.939C114.479 371.74 116.299 362.08 118.819 351.72Z" fill="white"/>
<path d="M54.0521 275H71.9721V276.26C67.6321 276.26 66.5121 277.38 66.5121 281.02V350.88C66.5121 366.28 59.2321 374.26 48.1721 374.26C38.6521 374.26 30.3921 367.12 30.3921 360.68C30.3921 358.58 31.3721 356.48 33.4721 356.48C35.2921 356.48 36.6921 357.88 36.6921 360.68C36.6921 368.1 40.8921 373 48.1721 373C59.9321 373 59.6521 357.46 59.6521 350.88V281.02C59.6521 277.38 58.3921 276.26 54.0521 276.26V275Z" fill="white"/>
<path d="M22.2 275C36.62 275 45.72 284.24 45.72 301.04C45.72 317.7 36.62 326.94 22.2 326.94H13.66V366.98C13.66 370.62 14.78 371.74 19.26 371.74V373H1.19995V371.74C5.67995 371.74 6.79995 370.62 6.79995 366.98V281.02C6.79995 277.38 5.67995 276.26 1.19995 276.26V275H22.2ZM22.2 325.68C34.66 325.68 39 317 39 301.04C39 284.94 34.66 276.26 22.2 276.26H19.26C14.78 276.26 13.66 277.38 13.66 281.02V325.68H22.2Z" fill="white"/>
<path d="M234.236 401C235.216 405.62 238.716 422.28 238.716 422.28H237.596C235.076 411.92 233.256 402.26 224.716 402.26H219.676C215.336 402.26 214.076 403.38 214.076 407.02V492.98C214.076 496.62 215.336 497.74 219.676 497.74V499H201.616V497.74C206.096 497.74 207.216 496.62 207.216 492.98V407.02C207.216 403.38 206.096 402.26 201.616 402.26H196.716C188.036 402.26 186.216 411.92 183.836 422.28H182.576C182.576 422.28 186.216 405.62 187.196 401H234.236Z" fill="white"/>
<path d="M188.124 492.98C188.964 496.9 189.244 497.74 193.724 497.74V499H177.204V497.74C181.544 497.74 181.824 496.62 181.124 493.12L176.924 472.26H155.084L150.744 492.98C150.044 497.04 150.324 497.74 155.504 497.74V499H143.884V497.74C148.364 497.74 148.644 496.9 149.484 492.98L168.244 401H169.504L188.124 492.98ZM155.224 470.86H176.644L166.004 418.22L155.224 470.86Z" fill="white"/>
<path d="M105.94 418.36C105.94 445.8 143.88 447.2 143.88 476.04C143.88 491.58 134.36 500.26 123.02 500.26C111.54 500.26 104.96 487.94 103.28 487.94C102.02 487.94 103.14 496.76 103.28 499H102.02C101.74 496.76 99.08 471.98 98.8 470.02H100.06C103.42 488.5 113.64 499 123.02 499C132.26 499 138.14 492.98 138.14 478.56C138.14 452.38 100.76 451.54 100.76 420.74C100.76 406.6 111.68 399.74 120.36 399.74C130.44 399.74 134.92 409.82 136.46 409.82C137.72 409.82 136.88 402.96 136.74 401H137.86C138 403.1 140.38 424.24 140.66 426.06H139.4C136.32 409.4 128.76 401 120.36 401C113.08 401 105.94 407.3 105.94 418.36Z" fill="white"/>
<path d="M333.215 533.02V618.98C333.215 622.62 334.335 623.74 338.815 623.74V625H320.755V623.74C325.235 623.74 326.355 622.62 326.355 618.98V533.02C326.355 529.38 325.235 528.26 320.755 528.26V527H338.815V528.26C334.335 528.26 333.215 529.38 333.215 533.02Z" fill="white"/>
<path d="M304.316 527H316.636V528.26C312.296 528.26 311.176 529.38 311.176 533.02V625H309.776L277.576 534.7V618.98C277.576 622.62 278.696 623.74 283.036 623.74V625H270.716V623.74C275.056 623.74 276.176 622.62 276.176 618.98V533.02C276.176 529.38 275.056 528.26 270.716 528.26V527H282.056L309.776 604.56V533.02C309.776 529.38 308.656 528.26 304.316 528.26V527Z" fill="white"/>
<path d="M262.253 618.98C263.093 622.9 263.373 623.74 267.853 623.74V625H251.333V623.74C255.673 623.74 255.953 622.62 255.253 619.12L251.053 598.26H229.213L224.873 618.98C224.173 623.04 224.453 623.74 229.633 623.74V625H218.013V623.74C222.493 623.74 222.773 622.9 223.613 618.98L242.373 527H243.633L262.253 618.98ZM229.353 596.86H250.773L240.133 544.22L229.353 596.86Z" fill="white"/>
<path d="M218.282 603.58L219.402 604.14C215.342 618.14 207.782 626.26 198.542 626.26C182.722 626.26 174.602 607.22 174.602 576C174.602 544.78 184.262 525.74 198.542 525.74C209.322 525.74 212.542 535.96 214.082 535.96C215.202 535.96 214.222 528.96 214.222 527H215.202C215.482 529.1 217.862 550.24 218.142 552.06H216.882C213.802 535.12 207.082 527 198.542 527C187.062 527 181.462 543.8 181.462 576C181.462 608.2 184.822 624.58 199.662 624.58C207.922 624.58 214.782 615.62 218.282 603.58ZM199.102 516.08L210.162 504.74L202.322 520H196.162L186.922 504.6L199.102 516.08Z" fill="white"/>
<path d="M130.987 544.36C130.987 571.8 168.927 573.2 168.927 602.04C168.927 617.58 159.407 626.26 148.067 626.26C136.587 626.26 130.007 613.94 128.327 613.94C127.067 613.94 128.187 622.76 128.327 625H127.067C126.787 622.76 124.127 597.98 123.847 596.02H125.107C128.467 614.5 138.687 625 148.067 625C157.307 625 163.187 618.98 163.187 604.56C163.187 578.38 125.807 577.54 125.807 546.74C125.807 532.6 136.727 525.74 145.407 525.74C155.487 525.74 159.967 535.82 161.507 535.82C162.767 535.82 161.927 528.96 161.787 527H162.907C163.047 529.1 165.427 550.24 165.707 552.06H164.447C161.367 535.4 153.807 527 145.407 527C138.127 527 130.987 533.3 130.987 544.36ZM146.107 516.08L157.167 504.74L149.327 520H143.167L133.927 504.6L146.107 516.08Z" fill="white"/>
<path d="M119.819 603.72H120.939C120.939 603.72 117.439 620.38 116.459 625H77.2585V623.74C81.5985 623.74 82.8586 622.62 82.8586 618.98V533.02C82.8586 529.38 81.5985 528.26 77.2585 528.26V527H114.779C115.899 531.62 119.399 548.28 119.399 548.28H118.279C115.759 537.92 113.939 528.26 105.399 528.26H95.3186C90.8385 528.26 89.7186 529.38 89.7186 533.02V563.82H102.459C108.059 563.82 108.339 558.5 108.339 552.2H109.599V576.7H108.339C108.339 570.54 108.059 565.08 102.459 565.08H89.7186V618.98C89.7186 622.62 90.8385 623.74 95.3186 623.74H106.939C115.479 623.74 117.299 614.08 119.819 603.72Z" fill="white"/>
<path d="M55.0521 527H72.9721V528.26C68.6321 528.26 67.5121 529.38 67.5121 533.02V602.88C67.5121 618.28 60.2321 626.26 49.1721 626.26C39.6521 626.26 31.3921 619.12 31.3921 612.68C31.3921 610.58 32.3721 608.48 34.4721 608.48C36.2921 608.48 37.6921 609.88 37.6921 612.68C37.6921 620.1 41.8921 625 49.1721 625C60.9321 625 60.6521 609.46 60.6521 602.88V533.02C60.6521 529.38 59.3921 528.26 55.0521 528.26V527Z" fill="white"/>
<path d="M23.2 527C37.62 527 46.72 536.24 46.72 553.04C46.72 569.7 37.62 578.94 23.2 578.94H14.66V618.98C14.66 622.62 15.78 623.74 20.26 623.74V625H2.19995V623.74C6.67995 623.74 7.79995 622.62 7.79995 618.98V533.02C7.79995 529.38 6.67995 528.26 2.19995 528.26V527H23.2ZM23.2 577.68C35.66 577.68 40 569 40 553.04C40 536.94 35.66 528.26 23.2 528.26H20.26C15.78 528.26 14.66 529.38 14.66 533.02V577.68H23.2Z" fill="white"/>
</svg>
