<svg width="352" height="214" viewBox="0 0 352 214" fill="none" xmlns="http://www.w3.org/2000/svg">
<path d="M337.348 80.84C338.428 84.44 338.668 84.92 342.388 84.92V86H328.108V84.92C331.828 84.92 332.308 84.44 331.108 80.96L315.028 31.88L310.948 37.88V80.84C310.948 83.96 311.908 84.92 315.748 84.92V86H300.268V84.92C304.108 84.92 305.068 83.96 305.068 80.84V7.16001C305.068 4.04 304.108 3.08 300.268 3.08V2H315.748V3.08C311.908 3.08 310.948 4.04 310.948 7.16001V35.96L330.388 7.16001C332.548 3.92 330.388 3.08 326.548 3.08V2H339.028V3.08C335.308 3.08 333.868 3.8 331.708 7.16001L319.108 25.76L337.348 80.84Z" fill="white"/>
<path d="M293.014 80.84C293.734 84.2 293.974 84.92 297.814 84.92V86H283.654V84.92C287.374 84.92 287.614 83.96 287.014 80.96L283.414 63.08H264.694L260.974 80.84C260.374 84.32 260.614 84.92 265.054 84.92V86H255.094V84.92C258.934 84.92 259.174 84.2 259.894 80.84L275.975 2H277.054L293.014 80.84ZM264.814 61.88H283.174L274.054 16.76L264.814 61.88Z" fill="white"/>
<path d="M260.82 2C261.66 5.96 264.66 20.24 264.66 20.24H263.7C261.54 11.36 259.98 3.08 252.66 3.08H248.34C244.62 3.08 243.54 4.04 243.54 7.16001V80.84C243.54 83.96 244.62 84.92 248.34 84.92V86H232.86V84.92C236.7 84.92 237.66 83.96 237.66 80.84V7.16001C237.66 4.04 236.7 3.08 232.86 3.08H228.66C221.22 3.08 219.66 11.36 217.62 20.24H216.54C216.54 20.24 219.66 5.96 220.5 2H260.82Z" fill="white"/>
<path d="M221.296 80.84C222.016 84.2 222.256 84.92 226.096 84.92V86H211.936V84.92C215.656 84.92 215.896 83.96 215.296 80.96L211.696 63.08H192.976L189.256 80.84C188.656 84.32 188.896 84.92 193.336 84.92V86H183.376V84.92C187.216 84.92 187.456 84.2 188.176 80.84L204.256 2H205.336L221.296 80.84ZM193.096 61.88H211.456L202.336 16.76L193.096 61.88Z" fill="white"/>
<path d="M176.592 82.64C177.312 84.56 177.792 84.92 180.912 84.92V86H173.712C172.392 86 171.312 85.16 170.952 83.96L157.392 41.72H149.112V80.84C149.112 83.96 150.072 84.92 153.912 84.92V86H138.432V84.92C142.272 84.92 143.232 83.96 143.232 80.84V7.16001C143.232 4.04 142.272 3.08 138.432 3.08V2H158.232C170.592 2 175.872 11 175.872 21.8C175.872 31.04 172.032 38.96 163.392 41.12L176.592 82.64ZM149.112 40.64H158.232C168.912 40.64 169.992 30.44 169.992 21.8C169.992 13.16 168.912 3.08 158.232 3.08H153.912C150.072 3.08 149.112 4.04 149.112 7.16001V40.64Z" fill="white"/>
<path d="M126.019 2H135.979V3.08C132.139 3.08 131.899 3.68 131.179 7.16001L115.219 86H114.019L98.0585 7.16001C97.4585 3.8 97.0985 3.08 93.2585 3.08V2H107.419V3.08C103.699 3.08 103.459 4.04 104.059 7.04L117.019 71.24L130.099 7.16001C130.819 3.68 130.459 3.08 126.019 3.08V2Z" fill="white"/>
<path d="M72.5848 0.919922C84.8248 0.919922 93.2248 17.2399 93.2248 43.9999C93.2248 70.7599 84.8248 87.0799 72.5848 87.0799C60.4648 87.0799 52.0648 70.7599 52.0648 43.9999C52.0648 17.2399 60.4648 0.919922 72.5848 0.919922ZM72.5848 85.9999C82.5448 85.9999 87.3448 71.5999 87.3448 43.9999C87.3448 16.2799 82.5448 1.99992 72.5848 1.99992C62.7448 1.99992 57.9448 16.2799 57.9448 43.9999C57.9448 71.5999 62.7448 85.9999 72.5848 85.9999Z" fill="white"/>
<path d="M27.057 2C39.417 2 47.217 9.92 47.217 24.32C47.217 38.6 39.417 46.52 27.057 46.52H19.737V80.84C19.737 83.96 20.697 84.92 24.537 84.92V86H9.05701V84.92C12.897 84.92 13.857 83.96 13.857 80.84V7.16001C13.857 4.04 12.897 3.08 9.05701 3.08V2H27.057ZM27.057 45.44C37.737 45.44 41.457 38 41.457 24.32C41.457 10.52 37.737 3.08 27.057 3.08H24.537C20.697 3.08 19.737 4.04 19.737 7.16001V45.44H27.057Z" fill="white"/>
<path d="M345.853 205.98C346.693 209.9 346.973 210.74 351.453 210.74V212H334.933V210.74C339.273 210.74 339.553 209.62 338.853 206.12L334.653 185.26H312.813L308.473 205.98C307.773 210.04 308.053 210.74 313.233 210.74V212H301.613V210.74C306.093 210.74 306.373 209.9 307.213 205.98L325.973 114H327.233L345.853 205.98ZM312.953 183.86H334.373L323.733 131.22L312.953 183.86Z" fill="white"/>
<path d="M297.405 115.26C293.065 115.26 291.805 116.38 291.805 120.02V205.98C291.805 209.62 293.065 210.74 297.405 210.74V212H279.485V210.74C283.825 210.74 284.945 209.62 284.945 205.98V120.44L266.325 212H265.065L247.425 124.92V205.98C247.425 209.62 248.685 210.74 253.025 210.74V212H240.565V210.74C245.045 210.74 246.165 209.62 246.165 205.98V120.02C246.165 116.38 245.045 115.26 240.565 115.26V114H252.185L268.565 194.78L284.945 114H297.405V115.26Z" fill="white"/>
<path d="M224.045 114H236.365V115.26C232.025 115.26 230.905 116.38 230.905 120.02V188.34C230.905 202.34 225.165 213.26 213.545 213.26C199.825 213.26 192.125 205.28 192.125 187.22V120.02C192.125 116.38 191.005 115.26 186.665 115.26V114H204.585V115.26C200.245 115.26 198.985 116.38 198.985 120.02V183.3C198.985 204.16 202.765 212 214.525 212C224.185 212 229.645 201.92 229.645 188.9L229.505 120.02C229.505 116.38 228.385 115.26 224.045 115.26V114Z" fill="white"/>
<path d="M184.004 190.72H185.264C185.264 190.72 181.624 207.38 180.644 212H141.444V210.74C145.924 210.74 147.044 209.62 147.044 205.98V120.02C147.044 116.38 145.924 115.26 141.444 115.26V114H159.504V115.26C155.024 115.26 153.904 116.38 153.904 120.02V205.98C153.904 209.62 155.024 210.74 159.504 210.74H171.124C179.804 210.74 181.624 201.08 184.004 190.72Z" fill="white"/>
<path d="M115.139 114C129.559 114 138.659 123.24 138.659 140.04C138.659 156.7 129.559 165.94 115.139 165.94H106.599V205.98C106.599 209.62 107.719 210.74 112.199 210.74V212H94.1394V210.74C98.6194 210.74 99.7394 209.62 99.7394 205.98V120.02C99.7394 116.38 98.6194 115.26 94.1394 115.26V114H115.139ZM115.139 164.68C127.599 164.68 131.939 156 131.939 140.04C131.939 123.94 127.599 115.26 115.139 115.26H112.199C107.719 115.26 106.599 116.38 106.599 120.02V164.68H115.139Z" fill="white"/>
<path d="M90.215 190.72H91.335C91.335 190.72 87.835 207.38 86.855 212H47.655V210.74C51.995 210.74 53.255 209.62 53.255 205.98V120.02C53.255 116.38 51.995 115.26 47.655 115.26V114H85.175C86.295 118.62 89.795 135.28 89.795 135.28H88.675C86.155 124.92 84.335 115.26 75.795 115.26H65.715C61.235 115.26 60.115 116.38 60.115 120.02V150.82H72.855C78.455 150.82 78.735 145.5 78.735 139.2H79.995V163.7H78.735C78.735 157.54 78.455 152.08 72.855 152.08H60.115V205.98C60.115 209.62 61.235 210.74 65.715 210.74H77.335C85.875 210.74 87.695 201.08 90.215 190.72Z" fill="white"/>
<path d="M21.3503 114C35.7703 114 44.8703 123.24 44.8703 140.04C44.8703 156.7 35.7703 165.94 21.3503 165.94H12.8103V205.98C12.8103 209.62 13.9303 210.74 18.4103 210.74V212H0.350342V210.74C4.83034 210.74 5.95034 209.62 5.95034 205.98V120.02C5.95034 116.38 4.83034 115.26 0.350342 115.26V114H21.3503ZM21.3503 164.68C33.8103 164.68 38.1503 156 38.1503 140.04C38.1503 123.94 33.8103 115.26 21.3503 115.26H18.4103C13.9303 115.26 12.8103 116.38 12.8103 120.02V164.68H21.3503Z" fill="white"/>
</svg>
