<svg width="367" height="228" viewBox="0 0 367 228" fill="none" xmlns="http://www.w3.org/2000/svg">
<path opacity="0.6" d="M360.531 93.98C361.371 97.9 361.651 98.74 366.131 98.74V100H349.611V98.74C353.951 98.74 354.231 97.62 353.531 94.12L349.331 73.26H327.491L323.151 93.98C322.451 98.04 322.731 98.74 327.911 98.74V100H316.291V98.74C320.771 98.74 321.051 97.9 321.891 93.98L340.651 2H341.911L360.531 93.98ZM327.631 71.86H349.051L338.411 19.22L327.631 71.86Z" fill="white"/>
<path opacity="0.6" d="M304.019 2H316.339V3.26C311.999 3.26 310.879 4.38 310.879 8.02001V100H309.479L277.279 9.7V93.98C277.279 97.62 278.399 98.74 282.739 98.74V100H270.419V98.74C274.759 98.74 275.879 97.62 275.879 93.98V8.02001C275.879 4.38 274.759 3.26 270.419 3.26V2H281.759L309.479 79.56V8.02001C309.479 4.38 308.359 3.26 304.019 3.26V2Z" fill="white"/>
<path opacity="0.6" d="M261.072 96.08C261.912 98.32 262.472 98.74 266.112 98.74V100H257.712C256.172 100 254.912 99.02 254.492 97.62L238.672 48.34H229.012V93.98C229.012 97.62 230.132 98.74 234.612 98.74V100H216.552V98.74C221.032 98.74 222.152 97.62 222.152 93.98V8.02001C222.152 4.38 221.032 3.26 216.552 3.26V2H239.652C254.072 2 260.232 12.5 260.232 25.1C260.232 35.88 255.752 45.12 245.672 47.64L261.072 96.08ZM229.012 47.08H239.652C252.112 47.08 253.372 35.18 253.372 25.1C253.372 15.02 252.112 3.26 239.652 3.26H234.612C230.132 3.26 229.012 4.38 229.012 8.02001V47.08Z" fill="white"/>
<path opacity="0.6" d="M206.726 8.02001V93.98C206.726 97.62 207.846 98.74 212.326 98.74V100H194.266V98.74C198.746 98.74 199.866 97.62 199.866 93.98V8.02001C199.866 4.38 198.746 3.26 194.266 3.26V2H212.326V3.26C207.846 3.26 206.726 4.38 206.726 8.02001Z" fill="white"/>
<path opacity="0.6" d="M188.72 78.72H189.98C189.98 78.72 186.34 95.38 185.36 100H149.8L181.16 3.26H164.64C156.1 3.26 154.28 12.92 151.76 23.28H150.64C150.64 23.28 154.14 6.62 155.26 2H188.72L157.5 98.74H175.84C184.52 98.74 186.34 89.08 188.72 78.72Z" fill="white"/>
<path opacity="0.6" d="M122.913 0.740234C137.193 0.740234 146.993 19.7802 146.993 51.0002C146.993 82.2202 137.193 101.26 122.913 101.26C108.773 101.26 98.9734 82.2202 98.9734 51.0002C98.9734 19.7802 108.773 0.740234 122.913 0.740234ZM122.913 100C134.533 100 140.133 83.2002 140.133 51.0002C140.133 18.6602 134.533 2.00023 122.913 2.00023C111.433 2.00023 105.833 18.6602 105.833 51.0002C105.833 83.2002 111.433 100 122.913 100Z" fill="white"/>
<path opacity="0.6" d="M92.4973 96.08C93.3373 98.32 93.8973 98.74 97.5373 98.74V100H89.1373C87.5973 100 86.3373 99.02 85.9173 97.62L70.0973 48.34H60.4373V93.98C60.4373 97.62 61.5573 98.74 66.0373 98.74V100H47.9773V98.74C52.4573 98.74 53.5773 97.62 53.5773 93.98V8.02001C53.5773 4.38 52.4573 3.26 47.9773 3.26V2H71.0773C85.4973 2 91.6573 12.5 91.6573 25.1C91.6573 35.88 87.1773 45.12 77.0973 47.64L92.4973 96.08ZM60.4373 47.08H71.0773C83.5373 47.08 84.7973 35.18 84.7973 25.1C84.7973 15.02 83.5373 3.26 71.0773 3.26H66.0373C61.5573 3.26 60.4373 4.38 60.4373 8.02001V47.08Z" fill="white"/>
<path opacity="0.6" d="M21.6726 2C36.0926 2 45.1926 11.24 45.1926 28.04C45.1926 44.7 36.0926 53.94 21.6726 53.94H13.1326V93.98C13.1326 97.62 14.2526 98.74 18.7326 98.74V100H0.672607V98.74C5.15261 98.74 6.27261 97.62 6.27261 93.98V8.02001C6.27261 4.38 5.15261 3.26 0.672607 3.26V2H21.6726ZM21.6726 52.68C34.1326 52.68 38.4726 44 38.4726 28.04C38.4726 11.94 34.1326 3.26 21.6726 3.26H18.7326C14.2526 3.26 13.1326 4.38 13.1326 8.02001V52.68H21.6726Z" fill="white"/>
<path d="M353.8 128C354.78 132.62 358.28 149.28 358.28 149.28H357.16C354.64 138.92 352.82 129.26 344.28 129.26H339.24C334.9 129.26 333.64 130.38 333.64 134.02V219.98C333.64 223.62 334.9 224.74 339.24 224.74V226H321.18V224.74C325.66 224.74 326.78 223.62 326.78 219.98V134.02C326.78 130.38 325.66 129.26 321.18 129.26H316.28C307.6 129.26 305.78 138.92 303.4 149.28H302.14C302.14 149.28 305.78 132.62 306.76 128H353.8Z" fill="white"/>
<path d="M266.93 145.36C266.93 172.8 304.87 174.2 304.87 203.04C304.87 218.58 295.35 227.26 284.01 227.26C272.53 227.26 265.95 214.94 264.27 214.94C263.01 214.94 264.13 223.76 264.27 226H263.01C262.73 223.76 260.07 198.98 259.79 197.02H261.05C264.41 215.5 274.63 226 284.01 226C293.25 226 299.13 219.98 299.13 205.56C299.13 179.38 261.75 178.54 261.75 147.74C261.75 133.6 272.67 126.74 281.35 126.74C291.43 126.74 295.91 136.82 297.45 136.82C298.71 136.82 297.87 129.96 297.73 128H298.85C298.99 130.1 301.37 151.24 301.65 153.06H300.39C297.31 136.4 289.75 128 281.35 128C274.07 128 266.93 134.3 266.93 145.36Z" fill="white"/>
<path d="M230.033 126.74C244.313 126.74 254.113 145.78 254.113 177C254.113 208.22 244.313 227.26 230.033 227.26C215.893 227.26 206.093 208.22 206.093 177C206.093 145.78 215.893 126.74 230.033 126.74ZM230.033 226C241.653 226 247.253 209.2 247.253 177C247.253 144.66 241.653 128 230.033 128C218.553 128 212.953 144.66 212.953 177C212.953 209.2 218.553 226 230.033 226Z" fill="white"/>
<path d="M201.638 219.98C202.898 224.18 203.178 224.74 207.518 224.74V226H190.858V224.74C195.198 224.74 195.758 224.18 194.358 220.12L175.598 162.86L170.838 169.86V219.98C170.838 223.62 171.958 224.74 176.438 224.74V226H158.378V224.74C162.858 224.74 163.978 223.62 163.978 219.98V134.02C163.978 130.38 162.858 129.26 158.378 129.26V128H176.438V129.26C171.958 129.26 170.838 130.38 170.838 134.02V167.62L193.518 134.02C196.038 130.24 193.518 129.26 189.038 129.26V128H203.598V129.26C199.258 129.26 197.578 130.1 195.058 134.02L180.358 155.72L201.638 219.98Z" fill="white"/>
<path d="M117.633 145.36C117.633 172.8 155.573 174.2 155.573 203.04C155.573 218.58 146.053 227.26 134.713 227.26C123.233 227.26 116.653 214.94 114.973 214.94C113.713 214.94 114.833 223.76 114.973 226H113.713C113.433 223.76 110.773 198.98 110.493 197.02H111.753C115.113 215.5 125.333 226 134.713 226C143.953 226 149.833 219.98 149.833 205.56C149.833 179.38 112.453 178.54 112.453 147.74C112.453 133.6 123.373 126.74 132.053 126.74C142.133 126.74 146.613 136.82 148.153 136.82C149.413 136.82 148.573 129.96 148.433 128H149.553C149.693 130.1 152.073 151.24 152.353 153.06H151.093C148.013 136.4 140.453 128 132.053 128C124.773 128 117.633 134.3 117.633 145.36Z" fill="white"/>
<path d="M104.05 222.08C104.89 224.32 105.45 224.74 109.09 224.74V226H100.69C99.15 226 97.89 225.02 97.47 223.62L81.65 174.34H71.99V219.98C71.99 223.62 73.11 224.74 77.59 224.74V226H59.53V224.74C64.01 224.74 65.13 223.62 65.13 219.98V134.02C65.13 130.38 64.01 129.26 59.53 129.26V128H82.63C97.05 128 103.21 138.5 103.21 151.1C103.21 161.88 98.73 171.12 88.65 173.64L104.05 222.08ZM71.99 173.08H82.63C95.09 173.08 96.35 161.18 96.35 151.1C96.35 141.02 95.09 129.26 82.63 129.26H77.59C73.11 129.26 71.99 130.38 71.99 134.02V173.08Z" fill="white"/>
<path d="M30.0939 128C43.5339 128 55.4339 137.52 55.4339 177C55.4339 216.48 43.5339 226 30.0939 226H8.53394V224.74C12.8739 224.74 14.1339 223.62 14.1339 219.98V134.02C14.1339 130.38 12.8739 129.26 8.53394 129.26V128H30.0939ZM30.0939 224.74C41.0139 224.74 48.5739 217.04 48.5739 177C48.5739 136.96 38.3539 129.26 30.0939 129.26H26.4539C22.1139 129.26 20.9939 130.38 20.9939 134.02V219.98C20.9939 223.62 22.1139 224.74 26.4539 224.74H30.0939Z" fill="white"/>
</svg>
