<?xml version="1.0" encoding="utf-8"?>
<!-- Generator: Adobe Illustrator 23.0.2, SVG Export Plug-In . SVG Version: 6.00 Build 0)  -->
<svg version="1.1" xmlns="http://www.w3.org/2000/svg" xmlns:xlink="http://www.w3.org/1999/xlink" x="0px" y="0px"
	 viewBox="0 0 372.5 378.3" style="enable-background:new 0 0 372.5 378.3;" xml:space="preserve">
<style type="text/css">
	.st0{fill:#F46CBD;}
	.st1{fill:#CC4093;}
	.st2{fill:#151E79;}
	.st3{fill:#FFFFFF;}
</style>
<g id="bg">
</g>
<g id="art">
	<g>
		<path class="st0" d="M186.3,357.1c-70.8,0-131.3-20-161.9-53.5c-16.8-18.3-24.2-39.9-22-64c2.1-22.9,13.8-44.4,33.1-60.3
			c9-7.4,22.5-17.1,36-21.3c15.8-4.9,32.7-6.7,49.1-8.3l1.9-0.2c19.2-2,39-4,58.6-5.6c4.3-0.3,8.7-0.8,13.3-1.3
			c9.7-1,19.7-2.1,29.4-2.1c5.8,0,11,0.4,15.6,1.2c39.4,6.6,68.4,17.3,91.4,33.9c23.9,17.2,37.5,39.4,39.4,64
			c1.9,24.9-5.7,46.9-22.7,65.3C316.8,338.1,258.1,357.1,186.3,357.1z"/>
		<path class="st1" d="M180,287c-39.1,3-71.4-7.8-90.1-28.3c-10.3-11.2-8.8-25.1-2.9-40.8c5-13.2,21.2-3.4,33-13.2
			c5.5-4.5-11.6-32.5-3.3-35.1c9.7-3,20.1-4.1,30.1-5.1l1.2-0.1c11.8-1.2,23.9-2.5,35.9-3.4c2.6-0.2,5.3-0.5,8.1-0.8
			c5.9-0.6,12.1-1.3,18-1.3c3.6,0,2.1,23,5,23.4c24.1,4,48,3.5,64,10.2c12.2,5.1,23.4,15.8,22.4,30c-1.1,15.3-9.4,25.3-19.8,36.6
			c-15.5,16.7-38.1,28.3-68.1,27.8C206.4,286.7,187.7,287,180,287z"/>
		<path class="st2" d="M186.3,359.1c-71.3,0-132.4-20.2-163.4-54.1C5.7,286.2-1.8,264.1,0.4,239.4c3.2-35.1,26.1-63.3,66.4-81.6
			c1.5-0.7,3.3,0,4,1.5c0.7,1.5,0,3.3-1.5,4C31.1,180.7,9.4,207.2,6.5,240c-2.1,22.9,5,43.4,20.9,60.9
			c29.9,32.7,89.3,52.1,158.9,52.1c69.6,0,128.8-19,158.2-50.8c16.2-17.5,23.5-38.5,21.6-62.2c-3.7-46.9-52.8-83-128.3-94.2
			c-1.7-0.2-2.8-1.8-2.6-3.5c0.2-1.7,1.8-2.8,3.5-2.6c37.7,5.6,70,17.5,93.2,34.2c24.4,17.6,38.3,40.2,40.3,65.5
			c2,25.5-5.8,48-23.2,66.9C318,339.9,258.7,359.1,186.3,359.1z"/>
		<path class="st3" d="M214.8,376.3c-4.4,0-9.8-2.2-15.6-6.2c-7.4-5.2-12.2-11.3-14.4-18.2c-1.6-5.2-1.3-10.2-0.9-15.6
			c0.2-3.1,0.5-6.4,0.3-9.7c-0.5-9.5-3.5-18.6-8.4-25.8c-2.8-4.1-6.6-7.3-10.2-10.5c-1.3-1.1-2.6-2.3-3.9-3.4
			c-6.7-6.2-12.7-12.6-18.1-18.9c-4.9-5.9-9.4-13.2-13.7-20.3c-1.4-2.3-2.7-4.5-4.1-6.6c-2-3.2-4-6.3-6-9.2l-0.7-1.1l-1.3,0.2
			c-1.7,0.3-3.4,0.5-5.2,0.6c-2.1,0.2-4.3,0.4-6.5,0.9c-5.6,1.2-10.2,2.9-14.1,5.2c-3.8,2.3-7.3,5.5-11,10.1l-1,1.3
			c-2.4,3.1-4.8,6.2-8.1,7.9c-2.1,1.1-4.6,1.7-7.3,1.7c-3.2,0-6.3-0.8-8.7-2.3c-4-2.4-6.5-5.9-7.3-10.4c-1.6-9.2,3.9-21,10-28.7
			c6.5-8.1,15.3-14.5,25.5-18.7c1.5-0.6,3-1.2,4.6-1.7l4.6-1.5l-4.3-2.3c-9.6-5.1-16.3-13.1-19.5-23.2c-2.7-8.6-2.9-17.6-2.8-26.7
			c0.1-9.1-2.9-17.9-8.7-26.2l-0.1-0.1l-0.1-0.1c-7.3-7.3-12.5-18-15.5-31.8C39.7,72.5,39.1,59,40.7,46c1.4-11.2,4.1-24.8,12.8-30.8
			c1.8-1.2,3.8-1.8,6-1.8c7,0,15.2,5.9,19.1,8.8C88.4,29.4,97.7,39,106.2,51l0.9,1.3l1.5-0.6c11.8-4.9,25.7-6.1,37.8-6.5
			c2.9-0.1,5.9-0.2,8.7-0.2c3.9,0,7.8,0.1,11.6,0.3c5.5,0.3,11.8,0.6,17.6,1.9l1.8,0.4l0.5-1.8c3.8-12.9,11-24.9,20.5-33.7
			C211,8.5,217.9,2,224.6,2c6.7,0,11.2,6,13.9,11c7.5,14.2,8.4,32.4,8.5,44.7c0,8.2-0.6,16.4-1.8,24.3c-1,6.7-2.1,14.3-4.9,20.9
			l-0.4,0.9c-2.6,6.3-5.9,14.1-4.7,21.2c0.5,2.6,1.2,5.2,1.9,7.7c0.5,1.8,1.1,3.8,1.5,5.6c2.8,12.9,2.8,22.7,0,30.9l-1.1,3.2
			l3.3-0.5c4.2-0.6,8.4-1,12.5-1c7.3,0,14.2,1,20.6,3c6.2,1.9,16.9,7.5,19.3,14.6c1,2.7,0.5,5.4-1.4,8.1c-2.7,4-7.7,5.9-15.3,5.9
			c-2.6,0-5.2-0.2-7.2-0.4c-1.5-0.1-2.9-0.3-4.4-0.5c-4.1-0.5-8.3-0.9-12.6-1.1l-4.6-0.2l3,3.5c1.1,1.3,2.1,2.6,3.1,3.8
			c2.8,3.7,5.2,7.4,7,11.2l0.5,0.9l1,0.2c13.8,2.2,26.5,9.3,34.9,19.5c1.3,1.5,2.5,3.1,3.7,4.7c3.4,4.5,7,9.2,11.7,12.6
			c4.6,3.3,9.3,3.5,13.8,3.8c1,0.1,2,0.1,3,0.2c2.9,0.2,12.4,1.6,14.4,8.8c1.7,6.2-4.4,11.2-8.2,13.7c-6.2,4-14.7,6.4-22.7,6.4
			c0,0,0,0,0,0c-5.5,0-10.6-1.1-14.8-3.2c-4.4-2.2-7.9-5.4-11.8-8.8c-2.4-2.2-5-4.4-7.7-6.4c-6.3-4.5-14.2-7.7-22.3-9l-1.3-0.2
			l-0.7,1.1c-7.1,10.3-18.7,18.3-31.7,21.8l-1.9,0.5l0.4,1.9c2.4,11.2,2.9,20.2,1.6,28.4c-0.8,4.7-2.3,9-4.2,14.1
			c-1.4,3.8-2.2,7-2.3,9.4c0.2,3.2,1.7,6,3,8.5c0.3,0.6,0.6,1.1,0.8,1.6l0.2,0.4c1.8,3.6,3.6,7.3,4.6,11.1
			c0.6,2.4,2.1,10.6-4.9,14.1C218.6,375.9,216.8,376.3,214.8,376.3z"/>
		<path class="st0" d="M136,171.3c4.4,5.8,15.9,14.3,25.1,13.9c16.6-0.7,23-16.9,23-16.9s-12.3-10.7-21.7-10.8
			C152.9,157.4,136,171.3,136,171.3z"/>
		<path class="st2" d="M93.3,159.4C93.3,159.3,93.8,157.3,93.3,159.4c-2.3,8.1,4.5,13.5,11.9,14.5c7.5,1,16.4-0.7,23.7-4.3
			c8.5-4.2,15.7-12,24.8-14.8c6.7-2,13.5,0.7,19.4,3.8c6.8,3.6,13.4,8,21.2,9.1c7.4,1.1,18.3,0.7,23.4-5.1c2.1-2.4,2.6-6,2-9
			c-0.5-2.5-2.9-4.7-1.2-7.3c1-1.6,4.1-2.2,5.7-1.1c1.5,1,2.2,3.6,2.6,5.2c1.3,5.9,0,12.7-4.3,17c-6,6.1-15.8,7.5-24,7.2
			c-7.9-0.4-14.9-2.9-21.7-6.8c-7.1-4-15.5-10.3-23.9-6.2c-8.7,4.3-15.6,11.2-24.6,15c-7.5,3.1-15.6,4.4-23.7,3.6
			c-7.5-0.7-14.5-4.4-17.7-11.5c-1.5-3.3-2.5-8.2-1.1-11.7C87.8,152.8,94.5,154.7,93.3,159.4z"/>
		<path class="st2" d="M158.7,160.1c-1.6,0-3-1.3-3-2.9c0-0.1-0.3-9.6-1.3-14.4c-0.3-1.7,0.7-3.3,2.4-3.6c1.7-0.3,3.3,0.7,3.6,2.4
			c1.1,5.3,1.4,15,1.4,15.4c0.1,1.7-1.3,3.1-2.9,3.2C158.8,160.1,158.7,160.1,158.7,160.1z"/>
		<path class="st2" d="M160.1,188.2c-12.8,0-23.7-9.1-27.4-15.8c-0.8-1.5-0.3-3.3,1.2-4.1c1.5-0.8,3.3-0.3,4.1,1.2
			c3,5.5,12.5,13.3,23.3,12.7c10.9-0.6,19.3-9.2,19.5-13.4c0.1-1.7,1.5-3,3.2-2.9c1.7,0.1,3,1.5,2.9,3.2
			c-0.4,8.1-11.8,18.4-25.2,19.1C161.1,188.2,160.6,188.2,160.1,188.2z"/>
		<path class="st2" d="M158.7,170.9c0,0-0.2-0.8-0.4-2c-0.3-1.2-0.4-2.7-0.6-4.3c-0.2-1.5-0.4-3-0.6-4c-0.1-0.5-0.2-0.9-0.2-1.1
			c0-0.2-0.1-0.3-0.1-0.3l-0.2-0.7c-0.4-1.6,0.6-3.1,2.2-3.5c1.3-0.3,2.6,0.4,3.2,1.5c0,0,0.1,0.3,0.4,0.7c0.2,0.5,0.4,1.1,0.6,1.8
			c0.2,0.7,0.4,1.5,0.5,2.3c0.2,0.8,0.2,1.7,0.3,2.6c0.2,1.7,0.1,3.4,0,4.7c-0.1,1.3-0.4,2.1-0.4,2.1c-0.4,1.3-1.7,2-3,1.7
			C159.6,172.4,159,171.8,158.7,170.9L158.7,170.9z"/>
		<g>
			<path class="st2" d="M170.2,133.7c0,3.4-5.8,7.5-13,7.5s-13-4.1-13-7.5c0-3.4,5.8-4.7,13-4.7S170.2,130.3,170.2,133.7z"/>
			<path class="st2" d="M157.2,145.2c-9.1,0-17.1-5.4-17.1-11.5c0-4,3-8.8,17.1-8.8c14.1,0,17.1,4.8,17.1,8.8
				C174.3,139.8,166.3,145.2,157.2,145.2z M148.6,134.1c1.1,1.1,4.1,3,8.5,3c4.4,0,7.4-1.8,8.5-3c-1.2-0.5-3.8-1.1-8.5-1.1
				S149.8,133.6,148.6,134.1z M166.4,134.5L166.4,134.5L166.4,134.5z M166.2,133.4L166.2,133.4L166.2,133.4z M148.2,133.4"/>
		</g>
		<path class="st2" d="M252.5,89.3c-0.6-0.5-14.6-12.4-50.7-10.1c-20.6,1.3-30.6,7.4-37.8,11.8c-4.8,2.9-8.2,5-13.2,5.1
			c-2.1,0-4.9-1.1-8.7-2.7c-9.1-3.8-22.8-9.5-49.5-7.5c-37.2,2.8-49.1,21.8-49.6,22.6c-0.6,1.1-0.8,2.3-0.3,3.5l4.1,11.2
			c0.6,1.7,2.2,2.7,4,2.7l5.9-0.2c9,16.9,23.2,25.9,40.6,25.9c1.8,0,3.7-0.1,5.7-0.3c20.9-2.2,25.6-10,30.2-17.5
			c4.5-7.5,10.8-11.7,18.7-12.6c16-1.9,20.5,3.3,25.7,9.3c3.8,4.3,8,9.2,16.3,11c15.4,3.3,35.3,1,44.7-15.2
			c3.3-5.8,4.4-13.3,4.8-17.7l4.7-0.6c1.7-0.2,3.1-1.5,3.5-3.2l2.4-11.5C254.1,91.7,253.6,90.2,252.5,89.3z"/>
		<g>
			<path class="st2" d="M105.7,200.4C105.6,200.4,105.6,200.4,105.7,200.4L105.7,200.4z"/>
			<path class="st2" d="M106.4,200.5c-0.5-0.1-0.7-0.1-0.8-0.1C105.9,200.4,107.1,200.6,106.4,200.5z"/>
			<path class="st2" d="M206.7,63.8c3.4,2.8,7.2,5.3,10.1,8.6c0.9,1.1,1.9,2.7,3.6,1.7c1.6-0.9,1-2.6,0.2-3.8
				c-2.3-3.8-6-6.8-9.3-9.7c-1.9-1.7-4-3.4-5.5-5.4c-1.4-1.9-1.2-3.6-0.7-5.8c2-9,7.5-16.8,11.2-25.1c0.9-2.2-1.5-3-3.1-2
				c-1.7,1.1-3,3.2-4.2,4.8c-3.4,4.6-6,9.7-8,15c-1.4,3.6-2.8,8-2.2,11.9C199.5,58.2,203.6,61.3,206.7,63.8z"/>
			<path class="st2" d="M69.6,34.1c-2.3-1.7-4.1,1.4-2.7,3.3c1.4,1.9,3.5,3.5,5.1,5.2c4.7,5,9.4,10.1,13.5,15.6
				c1.5,2,3.3,4.2,3.2,6.8c-0.1,2.8-1.2,5.6-2.3,8.1c-2.2,5.1-5.3,9.7-7.1,15c-0.8,2.2-4.2,11.8,1.5,10.9c2.5-0.4,2.5-3.3,3-5.2
				c0.6-2.3,1.4-4.5,2.4-6.6c2.8-5.7,6.1-11,7.8-17.2c1.4-5.2,0.7-9.3-2.4-13.7C85.9,47.7,77.9,40.1,69.6,34.1z"/>
			<path class="st2" d="M346,269.1c-1.9-7-9.7-9.8-16.2-10.3c-5.7-0.5-10.8,0-15.8-3.6c-6.1-4.4-10.3-11.2-15-16.9
				c-9-10.9-22.2-18-36.2-20.2c-2-4.1-4.5-7.9-7.2-11.5c-1-1.3-2.1-2.6-3.2-3.9c5.6,0.2,11.2,1,16.8,1.5c8.2,0.8,19.1,1.3,24.4-6.3
				c8.5-12.3-9.7-22.9-19.1-25.8c-10.9-3.3-22.7-3.8-34-2.1c3.5-10.1,2.4-21.5,0.1-32c-1-4.4-2.6-8.8-3.3-13.3
				c-1.2-6.9,2.3-14.8,4.9-21c2.8-6.6,3.9-14.3,5-21.3c1.2-8.2,1.8-16.4,1.8-24.7c-0.1-15.2-1.5-32-8.7-45.7
				C237.1,6.1,232,0,224.7,0c-7.1,0-13.9,5.9-18.8,10.5c-9.9,9.2-17.3,21.6-21.1,34.6c-5.8-1.3-12-1.6-17.9-1.9
				c-6.8-0.4-13.7-0.4-20.5-0.1c-12.8,0.5-26.5,1.7-38.5,6.7C100,38.8,90.6,28.5,79.8,20.6c-7.1-5.2-18.7-13-27.4-7
				C42.7,20.2,40,35.1,38.7,45.8c-1.6,13.1-1.1,26.7,1.7,39.6c2.6,11.9,7.3,24.1,16,32.8c5.3,7.5,8.4,15.9,8.4,25
				c-0.1,9.2,0.1,18.4,2.9,27.3c3.5,11.1,10.9,19.4,20.5,24.4c-1.6,0.5-3.2,1.1-4.7,1.7c-10.1,4.1-19.4,10.7-26.3,19.3
				c-8.9,11.1-17.9,32.7-2.2,42.1c5.1,3.1,12.7,3.4,18,0.7c4.2-2.2,6.9-6.1,9.8-9.7c3-3.8,6.3-7.2,10.4-9.7c4.2-2.5,8.8-4,13.5-4.9
				c3.9-0.8,7.9-0.8,11.7-1.5c2,3,4,6.1,6,9.2c5.5,8.7,11.3,19.2,18,27.1c5.7,6.7,11.8,13.1,18.3,19.1c4.7,4.4,10.1,8.3,13.8,13.6
				c4.9,7.2,7.6,16.1,8,24.7c0.5,8.8-2.1,17.1,0.7,25.8c2.6,8.1,8.3,14.4,15.1,19.2c6.3,4.5,15.5,9,23.1,5.1
				c6.3-3.2,7.5-10.1,5.9-16.4c-1.1-4.2-3.1-8-5-11.9c-1.4-2.8-3.5-6-3.7-9.2c0.1-2.6,1.1-6,2.1-8.7c1.8-4.8,3.5-9.4,4.3-14.5
				c1.6-9.7,0.5-19.6-1.6-29.1c13-3.5,25.3-11.6,32.9-22.6c7.6,1.3,15.2,4.2,21.5,8.7c6.8,4.8,12.2,11.4,19.7,15.3
				c11.8,6,28.7,3.7,39.5-3.3C342.1,281.6,347.8,276,346,269.1z M243.3,175.8c6.9-0.8,14-0.7,20.9,0.4c6.9,1,14.3,3,19.9,7.4
				c2.3,1.8,4.9,4.5,5.3,7.5c0.1,1.2-0.2,2.2-0.8,3.3c0,0.1-0.2,0.3-0.2,0.3c-2.6,2.9-6.4,3.8-10.3,4c-8,0.5-15.8-1.2-23.8-1.3
				c-1.5,0-4.4-0.2-6.1,0.7c-5.2-5-11.2-9.2-18.1-11.2c-0.4-0.1-1-0.3-1.8-0.5c3.2-2.3,5.9-5.1,8.1-8.4c0.3-0.5,0.6-1,0.9-1.5
				C239.3,176.8,241.7,176,243.3,175.8z M136.5,252c-3.4-4.9-6.5-12-9.7-17c-3-4.7-6.2-9.4-10.8-12.6c-1.5-0.9-3.5,0-3.5,1.9
				c0,0.9,0.7,1.8,1.4,2.7c-2.3,0.2-4.7,0.6-6.9,1c-9.6,1.6-18.7,5.4-25.6,12.5c-5,5.1-8.5,13.2-16.4,13.6
				c-15.5,0.6-12.5-17.1-7.6-26.7c4.5-8.7,11.8-16.1,20.2-21.3c4.2-2.6,8.8-4.7,13.7-5.8c2.3-0.6,4.9-1.1,7.3-1
				c2.6,0.1,5.3,1,7.9,1.3c1.7,0.2,2.9-1.7,2.1-3.2c-0.7-1.4-2.7-1.5-4-1.9c-8.1-2.4-16.3-5.6-22.4-11.6c-6.3-6.2-9.5-14.5-10.7-23
				c-1.3-8.7,0.4-17.8-1.4-26.4c-1.5-7.3-5-15.6-10.2-21.1C47.9,100.6,44.5,81.1,44,64.3c-0.3-9.1,0.4-18.3,2.5-27.1
				c1.4-6.1,4.7-19.2,12.6-19.8c2.4-0.2,5.3,1.3,7.4,2.2c3.9,1.8,7.6,4.2,11,6.7c7.2,5.4,13.6,11.9,19.4,18.8
				c2.6,3.1,4.8,6.8,7.6,9.8c2.6,2.8,7.3-0.6,10.2-1.5c8.7-2.7,17.9-3.7,26.9-4.3c9.6-0.6,19.3-0.6,28.9,0.1
				c4.3,0.3,8.6,0.7,12.9,1.5c3.3,0.6,5.5,1.2,6.6-2.5c4.8-16,14.7-31.5,29.4-40.2c16.9-10,21.8,27.5,22.6,37
				c1.6,18.4-0.2,37.4-5.4,55.2c-3.2,7.3-6.7,16.2-5.8,24.3c0.6,5.3,2.7,10.6,3.9,15.8c3.3,15.3,3.2,32.6-11.2,42.1
				c-5.3,3.5-11.7,5.3-18,6.3c-2.4,0.4-4.8,0.6-7.2,0.8c-1.3,0.1-3.2,0-3.5,1.7c-0.3,1.6,1.2,2,2.4,2.3c8,1.6,16.7,0.5,24.2-2.9
				c1.1,0.4,2.6,0.3,3.6,0.5c2.7,0.5,5.2,1.4,7.6,2.6c7.6,3.7,13.5,10,18.4,16.9c-53.2-0.5-91.6,35.7-103.6,55.3
				C143.6,261.5,139.9,256.8,136.5,252z M219.1,312.6c-0.7,5.9-2.8,11.3-4.8,16.8c-1.2,3.2-2.3,6.6-2.2,10.1c0.2,5,3.3,9.7,5.4,14.1
				c1.9,4,5.1,9.6,3.7,14.2c-1.6,5.2-7.9,4.4-11.9,2.9c-5.2-2-10-5.5-13.9-9.5c-3.5-3.6-6-7.9-7.1-12.8c-1.3-5.6-0.3-10.9,0.1-16.5
				c0.8-11-2.3-22.8-8.2-32c-3.9-6.2-9.8-11.1-15.4-16c3.9-3.9,13.1-8,23.2-8.5c7.9-0.4,19.3,1.2,28.8,10.9c0,0.1,0,0.1,0,0.2
				c0.6,2.8,1.2,5.6,1.6,8.4C219.4,300.8,219.8,306.7,219.1,312.6z M331.4,281.2c-8.2,4.4-20.2,6.1-29.1,2.7
				c-5.1-1.9-9.3-5.7-13.3-9.3c-4.4-3.9-8.8-7.6-14.1-10.3c-5.2-2.7-10.9-4.6-16.6-5.7c-0.3-0.1-0.6-0.1-0.9-0.2
				c-1.6-9-3-27.6,4.3-34.1c1,0.1,2,0.2,2.8,0.4c5.6,1.2,11.1,3.2,16.1,6c5,2.8,9.4,6.4,13.1,10.7c3.7,4.4,7,9.1,10.9,13.4
				c3.5,3.9,7.6,7.2,12.6,8.8c4.1,1.3,8,1,12.2,1.3c3.9,0.3,11.3,2,10.9,7.3C339.8,276.2,334.6,279.5,331.4,281.2z"/>
		</g>
		<path class="st2" d="M210.9,208.3C210.9,208.3,210.9,208.3,210.9,208.3L210.9,208.3c-0.3-0.9-1.7-3.7-7.1-2
			c-2.2,0.7-3.7,1.7-4.4,3c-0.4,0.9-0.5,1.8-0.2,2.7c0.2,0.7,1.1,2.6,4,2.6c0.8,0,1.9-0.2,3.1-0.5c2.2-0.7,3.7-1.7,4.4-3
			C211.1,210.1,211.2,209.2,210.9,208.3z"/>
		<path class="st2" d="M113.4,158.9c0.2,1.8-1.3,3.5-3.4,3.7c-2,0.2-3.8-1.1-4-3c-0.2-1.8,1.3-3.5,3.4-3.7
			C111.4,155.7,113.2,157,113.4,158.9z"/>
		<path class="st2" d="M133.9,151.8c0.2,1.7-1.2,3.2-3,3.4c-1.8,0.2-3.5-1-3.6-2.7c-0.2-1.7,1.2-3.2,3-3.4
			C132.1,148.9,133.7,150.1,133.9,151.8z"/>
		<path class="st2" d="M125.4,164.2c0.1,1.5-1.1,2.9-2.8,3.1c-1.7,0.2-3.2-0.9-3.3-2.5c-0.1-1.5,1.1-2.9,2.8-3.1
			C123.8,161.6,125.2,162.7,125.4,164.2z"/>
		<path class="st2" d="M189.1,149.9c0.2,1.8-1.3,3.5-3.4,3.7c-2,0.2-3.8-1.1-4-3c-0.2-1.8,1.3-3.5,3.4-3.7
			C187.2,146.7,189,148,189.1,149.9z"/>
		<path class="st2" d="M201.1,160c0.2,1.7-1.2,3.2-3,3.3c-1.8,0.2-3.5-1-3.6-2.7c-0.2-1.7,1.2-3.2,3-3.3
			C199.3,157.2,200.9,158.4,201.1,160z"/>
		<path class="st2" d="M210.1,150.8c0.2,1.6-1.1,3-2.8,3.1c-1.7,0.2-3.2-1-3.4-2.5c-0.2-1.6,1.1-3,2.8-3.1
			C208.4,148.2,209.9,149.3,210.1,150.8z"/>
		<path class="st3" d="M89.1,99.8c0,0-1.1,1.4-2.9,3.5c-1.7,2.1-4.1,4.9-6.5,7.7c-2.4,2.8-4.9,5.5-6.8,7.5c-1.9,2-3.2,3.3-3.2,3.3
			c-1.1,1.1-2.9,1.1-4-0.1c-1-1-1.1-2.5-0.3-3.6c0,0,1.1-1.5,2.8-3.8c1.7-2.2,4.1-5.1,6.6-7.8c2.5-2.8,5.1-5.4,7.2-7.3
			c1-1,2-1.8,2.6-2.3c0.6-0.5,1-0.8,1-0.8c1.1-0.9,2.7-0.7,3.6,0.4C89.8,97.6,89.8,98.9,89.1,99.8z"/>
		<path class="st3" d="M106.3,101.2c0,0-6.6,7.4-13.1,14.9c-1.7,1.9-3.3,3.7-4.9,5.5c-1.6,1.8-3.1,3.3-4.3,4.7
			c-2.6,2.7-4.3,4.5-4.3,4.5c-1.1,1.1-2.8,1.1-3.8,0c-1-1-1.1-2.4-0.3-3.5c0,0,1.5-2.1,3.8-5c1.2-1.5,2.5-3.2,4.1-5
			c1.5-1.8,3.2-3.7,4.8-5.6c1.7-1.9,3.4-3.7,5-5.5c1.6-1.7,3.2-3.3,4.6-4.6c1.3-1.3,2.6-2.5,3.4-3.2c0.8-0.7,1.3-1.1,1.3-1.1
			c1.2-1,2.9-0.9,3.9,0.3C107.2,98.6,107.2,100.1,106.3,101.2L106.3,101.2z"/>
		<path class="st3" d="M195.2,93.4c0,0-1.1,1.3-2.7,3.3c-1.6,2-3.8,4.6-6.1,7.2c-2.3,2.6-4.6,5.2-6.4,7c-1.8,1.9-3,3.1-3,3.1
			c-1.1,1.1-2.9,1.1-4-0.1c-1-1-1-2.5-0.3-3.6c0,0,1-1.5,2.6-3.5c1.6-2.1,3.8-4.8,6.2-7.4c2.4-2.6,4.8-5.1,6.8-6.9
			c1-0.9,1.9-1.6,2.5-2.1c0.6-0.5,1-0.7,1-0.7c1.1-0.9,2.7-0.6,3.6,0.5C196,91.2,195.9,92.5,195.2,93.4z"/>
		<path class="st3" d="M213.4,94.7c0,0-6.1,7-12.3,14c-1.6,1.7-3.1,3.5-4.6,5.1c-1.5,1.6-2.9,3.1-4.1,4.4c-2.4,2.6-4.1,4.2-4.1,4.2
			c-1.1,1.1-2.8,1.1-3.8,0c-1-0.9-1.1-2.4-0.3-3.5c0,0,1.4-1.9,3.6-4.7c1.1-1.4,2.4-3,3.8-4.7c1.4-1.7,3-3.5,4.5-5.3
			c1.6-1.7,3.2-3.5,4.7-5.1c1.5-1.6,3-3.1,4.3-4.3c1.3-1.3,2.5-2.3,3.2-3c0.8-0.7,1.2-1,1.2-1c1.2-1,2.9-0.8,3.9,0.3
			C214.4,92.1,214.3,93.6,213.4,94.7L213.4,94.7z"/>
		<path class="st3" d="M55.2,276.8c9,7.2,18.5,13.4,28.8,18.4c6,2.9,12.2,5.5,18.6,7.8c5.1,1.8,10.6,3.2,15.4,5.7
			c3.9,2,3.6,7.6-1.1,8.2c-5.5,0.7-11.6-0.8-16.9-2.2c-12.7-3.4-24.8-8.9-35.6-16.4c-5.4-3.8-10.7-8.3-14.5-13.8
			c-1.2-1.7-2.4-3.4-1.7-5.6C49.2,276,52.8,274.9,55.2,276.8z"/>
		<path class="st3" d="M248.9,306.2c7.1-1.8,13.2-4.1,20.3-6.3c2.6-0.8,5.5-2.2,7.8,0.1c2.3,2.3,1.3,5.5-1.1,7.1
			c-6.1,4.1-14.3,5.9-21.5,6.9c-2.7,0.4-7,0.5-8.6-1.5C243.8,310,244.8,307.3,248.9,306.2z"/>
		<path class="st3" d="M143.9,318c-0.1,2.8-2.5,4.6-6.6,4.2c-3-0.3-6.9-2.8-6.4-6c0.4-2.3,4.3-4.1,7.2-3.6
			C141.4,313.3,144.1,315.2,143.9,318z"/>
	</g>
	<g>
	</g>
	<g>
	</g>
	<g>
	</g>
	<g>
	</g>
	<g>
	</g>
	<g>
	</g>
</g>
</svg>
