<?xml version="1.0" encoding="UTF-8"?>
<svg id="Layer_1" xmlns="http://www.w3.org/2000/svg" version="1.1" viewBox="0 0 535 364">
  <!-- Generator: Adobe Illustrator 29.3.1, SVG Export Plug-In . SVG Version: 2.1.0 Build 151)  -->
  <defs>
    <style>
      .st0 {
        fill: #e2d09f;
      }

      .st1 {
        fill: #fff;
      }
    </style>
  </defs>
  <g>
    <path class="st1" d="M202.2,109.4c0,0-.5,3.5-2.8,3.5h-3.6v-4.5h4.7v-3.8h-4.7v-3.4h4.6c.5,0,.9.3,1.2.6.5.5.6,1.1.6,1.5v.8h3.4v-6.9h-16.9v4.1h1.9v11.7h-1.9v4.1h16.9v-8.3h-3.3v.7h0Z"/>
    <path class="st1" d="M239.7,109.4c0,0-.5,3.5-2.8,3.5h-3.6v-4.5h4.7v-3.8h-4.7v-3.4h4.6c.5,0,.9.3,1.2.6.5.5.6,1.1.6,1.5v.8h3.4v-6.9h-16.9v4.1h1.9v11.7h-1.9v4.1h16.9v-8.4h-3.3v.7h0Z"/>
    <path class="st1" d="M220.2,108.2c0,.2-.4,4.6-2.3,4.8h-3v-11.7h1.8v-4.1h-9.4v4.1h2.1v11.7h-1.5v4.1h16v-9.7h-3.7v.8h0Z"/>
    <path class="st1" d="M255.5,109.6h2.9v.4c-.1,2-2.5,2.2-3.5,2.2h0c-1,0-2.4-.5-3.4-1.5-.9-.9-1.4-2.1-1.4-3.5,0-2.7,1.6-5.3,4.7-5.3h.1c1,0,2.3.4,3,1.1.1,0,.3.3.3.5l.2.5h4.3v-6.4h-4.7v.2c-1-.4-2-.6-3-.6h-.4c-2.6,0-4.9,1-6.6,2.9-1.7,1.8-2.6,4.4-2.6,7.1s1.1,5.5,3,7.4c1.6,1.6,3.7,2.6,5.7,2.6s3.1,0,4.3-.5v.5h4.8v-7.5h1.7v-3.7h-9.3v3.8-.2Z"/>
    <path class="st1" d="M166.7,106h4.2v-.9c0-1.7.3-2.9.9-3.5.3-.4.7-.4.7-.4h.9v11.7h-3v4.1h13.2v-4.1h-3.8v-11.7h.7c.5,0,.9,0,1.2.5.6.6.9,1.7,1,3.4v.8h4v-8.8h-20.1v8.8h.1Z"/>
    <path class="st1" d="M282.9,109.1c2.6-1.1,3.9-3,4-5.8,0-1.6-.5-3-1.4-4-2.1-2.1-5.8-2.2-10.2-2.2h-9.9v4.1h2.6v11.7h-2.6v4.1h10.6v-4.1h-2.1v-2.7h4l3.4,6.8h5.8v-4.1h-2.1l-2.1-3.7h0ZM273.9,101.2h4.4c1,0,2.3.2,3,.9s.5.9.5,1.4c0,1.5-.6,2.5-3.3,2.5h-4.6v-4.8Z"/>
    <path class="st1" d="M303.9,101.2h2.1v-4.1h-12.8v4.1h2.4l-5.1,11.7h-1.5v4.1h9.8v-4.1h-2.6l.6-1.3h5.9l.6,1.3h-2.4v4.1h9.8v-4.1h-1.7l-5.1-11.7h0ZM301.5,108.7h-3.4l1.7-4.3,1.7,4.3h0Z"/>
    <polygon class="st1" points="336.9 100.8 336.9 97.1 327.9 97.1 324.1 104.9 321.1 97.1 311.7 97.1 311.7 100.9 313.9 100.9 313.9 113 312.2 113 312.2 117 321.4 117 321.4 113 319.8 113 319.7 107.5 323.9 116.9 329 106.9 329 113 327.4 113 327.4 117 336.6 117 336.6 113 334.8 113 334.8 100.8 336.9 100.8"/>
  </g>
  <g>
    <path class="st0" d="M162.6,137c-1.2.5-2,1.4-2.5,2.8-.4,1.4-.7,3.6-.7,6.6v59.5c0,3,.2,5.2.7,6.6.4,1.4,1.3,2.3,2.5,2.8,1.2.5,3.2.8,5.8,1v2.4c-4.4-.2-10.7-.4-18.8-.4s-14.9.1-19,.4v-2.4c2.9-.2,5-.5,6.3-1,1.3-.5,2.2-1.4,2.7-2.8.5-1.4.7-3.6.7-6.6v-62.8l-28.9,75.6h-1.9l-32.4-77.3v57.5c0,4.7.2,8.2.7,10.4.5,2.2,1.5,3.8,3.1,4.8,1.6,1,4.2,1.7,7.8,2.1v2.4c-3.1-.2-7.4-.4-13-.4s-7.9.1-10.4.4v-2.4c2.6-.4,4.6-1.1,5.8-2,1.2-1,2.1-2.5,2.5-4.6.4-2.1.7-5.2.7-9.2v-54c0-3-.2-5.2-.7-6.6-.4-1.4-1.3-2.3-2.5-2.8-1.2-.5-3.2-.8-5.8-1v-2.4c2.6.2,6,.4,10.4.4,7.4,0,13.7-.1,19-.4l24.2,58.4,22.1-58.1h8.5c8.2,0,14.4-.1,18.8-.4v2.4c-2.7.2-4.7.5-5.9,1Z"/>
    <path class="st0" d="M249.4,214.3c1.4,1.2,2.7,1.8,4,1.9v2.4c-4.8-.2-10.9-.4-18.2-.4s-14.2.1-18.2.4v-2.4c3-.2,5.2-.5,6.5-1.1,1.3-.6,1.9-1.7,1.9-3.2s-.5-3.4-1.4-5.8l-7.2-19.7h-26.2l-3.1,8.3c-2.2,5.8-3.4,10.2-3.4,13.3s.9,5,2.7,6.2c1.8,1.2,4.5,1.8,8,2v2.4c-5.4-.2-10.4-.4-14.9-.4s-6.7.1-9.1.4v-2.4c3.9-.7,7.4-4.9,10.3-12.6l27.4-70.2c.9,0,2.3.1,4.2.1s3.3,0,4.1-.1l29.2,75.1c1,2.6,2.2,4.6,3.6,5.8ZM215.8,184.1l-11.9-32.4-12.5,32.4h24.4Z"/>
    <path class="st0" d="M292,136.1c-2.9.2-5,.5-6.3,1-1.3.5-2.2,1.4-2.7,2.8-.5,1.4-.7,3.6-.7,6.6v61c0,2.6.2,4.4.6,5.6.4,1.2,1.1,1.9,2.1,2.3,1,.4,2.6.6,4.9.6h5.9c5.4,0,10.1-2.4,14.1-7.3,4-4.9,6.5-11.4,7.7-19.4h2.8c-.2,2.7-.4,6.2-.4,10.6,0,7.7.3,14,.8,19-5.4-.2-14.6-.4-27.5-.4s-30.5.1-39.1.4v-2.4c2.6-.2,4.6-.5,5.8-1,1.2-.5,2.1-1.4,2.5-2.8.4-1.4.7-3.6.7-6.6v-59.5c0-3-.2-5.2-.7-6.6-.4-1.4-1.3-2.3-2.5-2.8-1.2-.5-3.2-.8-5.8-1v-2.4c4.1.2,10.4.4,19,.4s14.4-.1,18.8-.4v2.4Z"/>
    <path class="st0" d="M391.6,154.1c0,3.8.1,6.8.4,9.1h-2.8c-1.9-9.8-4.5-16.8-7.9-20.8-3.3-4-7.9-6-13.6-6h-2.8v68.5c0,3.4.3,5.8,1,7.3.7,1.5,1.9,2.5,3.6,3.1,1.7.5,4.5.8,8.2.9v2.4c-10.1-.2-17.7-.4-22.8-.4s-12.4.1-22,.4v-2.4c3.8,0,6.5-.4,8.2-.9,1.7-.5,2.9-1.5,3.6-3.1.7-1.5,1-4,1-7.3v-68.5h-2.6c-3.8,0-7.1.8-9.8,2.5-2.7,1.7-5,4.5-6.9,8.3-1.9,3.9-3.6,9.2-4.9,15.9h-2.8c.2-2.3.4-5.4.4-9.1,0-6-.3-12.8-.8-20.4,7.3.2,19.6.4,37.1.4s29.8-.1,37-.4c-.6,7.6-.8,14.4-.8,20.4Z"/>
    <path class="st0" d="M465.5,214.3c1.4,1.2,2.7,1.8,4,1.9v2.4c-4.8-.2-10.9-.4-18.2-.4s-14.2.1-18.2.4v-2.4c3-.2,5.2-.5,6.5-1.1,1.3-.6,1.9-1.7,1.9-3.2s-.5-3.4-1.4-5.8l-7.2-19.7h-26.2l-3.1,8.3c-2.2,5.8-3.4,10.2-3.4,13.3s.9,5,2.7,6.2c1.8,1.2,4.5,1.8,8,2v2.4c-5.4-.2-10.4-.4-14.9-.4s-6.7.1-9.1.4v-2.4c3.9-.7,7.4-4.9,10.3-12.6l27.4-70.2c.9,0,2.3.1,4.2.1s3.3,0,4.1-.1l29.2,75.1c1,2.6,2.2,4.6,3.6,5.8ZM431.9,184.1l-11.9-32.4-12.5,32.4h24.4Z"/>
  </g>
  <g>
    <path class="st1" d="M28.8,260.4h.8l-.9,2.9c-.5,1.5-1.1,2.5-2,3.2-.9.6-1.7,1-2.7,1s-1.5-.2-1.9-.6c-.4-.4-.6-1-.6-1.8s.2-1.8.5-3.1l.6-2c-1.3,2.7-2.5,4.6-3.8,5.8-1.3,1.2-2.7,1.8-4.2,1.8s-2.3-.4-3.1-1.3-1.1-2.2-1.1-4,.6-4.6,1.7-7.2c1.2-2.6,2.7-4.8,4.7-6.5,2-1.8,4.1-2.7,6.5-2.7s1,.2,1.5.5.8.8,1,1.4l2-7.5c.1-.3.2-.7.2-1.1,0-.5-.2-.9-.6-1.2s-1.1-.4-2.1-.4l.2-.8c1.4,0,2.7-.2,3.8-.4s2.2-.7,3.3-1.2l-7.8,28.4c-.2.6-.2,1.1-.2,1.4,0,.7.3,1.1,1,1.1s1-.3,1.5-.9c.5-.6.9-1.7,1.4-3.2l.5-1.5ZM18.5,264.4c1-1.1,2.1-2.6,3.1-4.5,1-1.9,1.9-3.9,2.5-6l1.4-5.2c-.2-.7-.4-1.2-.8-1.5-.4-.3-.8-.5-1.3-.5-1.6,0-3.2.9-4.6,2.6-1.4,1.7-2.6,3.8-3.5,6.4-.9,2.5-1.3,4.9-1.3,7s.6,3.5,1.8,3.5,1.7-.6,2.8-1.7Z"/>
    <path class="st1" d="M44.6,254c-2.4,1.6-5.2,2.9-8.3,4-.3,1.3-.4,2.6-.4,3.9,0,2.6.9,3.8,2.8,3.8s4.3-1.3,6.2-4l.6.3c-.9,1.5-2,2.7-3.5,3.8-1.5,1.1-3,1.6-4.6,1.6s-2.9-.5-3.9-1.4-1.4-2.4-1.4-4.2.6-4.3,1.8-6.9,2.8-4.7,4.8-6.5,4.2-2.7,6.6-2.7,1.6.2,2.1.7c.6.5.8,1.1.8,2,0,2.2-1.2,4.1-3.6,5.7ZM41.5,248c-1.1,1-2,2.3-3,4-.9,1.7-1.6,3.4-2.1,5.3,2.5-.9,4.3-1.7,5.4-2.6,1-.8,1.8-1.7,2.3-2.8.5-1.1.8-2.3.8-3.6s0-1.2-.2-1.4-.3-.4-.5-.4c-.9,0-1.8.5-2.9,1.5Z"/>
    <path class="st1" d="M72.9,238.5c0,.8-.3,1.5-.9,2.1s-1.3.9-2.1.9-1.1-.2-1.5-.6c-.4-.4-.6-.9-.6-1.4s0-.3,0-.6c.1-.6.4-1.1.8-1.6.4-.5,1-.8,1.5-.9-.6-.2-1.5-.4-2.6-.4s-2.9.4-4.2,1.3c-1.1.7-1.9,1.7-2.5,3-.6,1.3-1.3,3.2-1.9,5.8h0s7.6,0,7.6,0c1.5,0,2.7-.2,3.6-.6l-5.4,17.7c-.2.6-.3,1.1-.3,1.5,0,.7.3,1,.9,1s1.1-.3,1.6-.9c.5-.6,1-1.7,1.6-3.2l.6-1.5h.8l-1,2.9c-.5,1.5-1.2,2.5-2.1,3.2-.9.6-1.8,1-2.8,1-1.9,0-2.8-.8-2.8-2.4s.2-1.8.7-3.2l4.5-14.7h-7.6l-7.6,26.7c-1.4,0-2.6.2-3.6.6l7.8-27.3h-3.9l.2-.8h3.8c.5-1.9,1.1-3.5,1.8-4.8.6-1.3,1.4-2.3,2.4-3.1,1.1-1,2.4-1.7,3.9-2.1,1.5-.5,3-.7,4.5-.7s1.8.1,2.7.4c.8.3,1.4.7,1.9,1.3.2.3.4.7.4,1.2Z"/>
    <path class="st1" d="M93.1,260.4l-1,2.9c-1,2.7-2.6,4.1-4.8,4.1s-2-.4-2.5-1.2c-.2-.3-.3-.8-.3-1.3s.2-1.8.7-3.1l3.8-11.4c.3-.9.4-1.5.4-2,0-.9-.4-1.4-1.3-1.4s-2.2.7-3.5,2.2c-1.3,1.5-2.6,3.5-3.8,6.1-1.3,2.6-2.3,5.5-3.2,8.6l-.7,2.9h-3.5l4.8-17.2c.2-.7.3-1.2.3-1.5,0-.7-.3-1-.9-1s-1.1.3-1.6.9c-.5.6-1,1.7-1.5,3.2l-.5,1.5h-.8l1-2.9c1-2.7,2.5-4.1,4.8-4.1s1.5.2,1.8.6c.4.4.5,1,.5,1.7s-.2,1.8-.6,3.2l-1.4,5.5c1.7-4,3.3-6.9,4.9-8.6,1.6-1.7,3.3-2.5,5.1-2.5s3.2,1,3.2,3-.2,1.9-.6,3l-3.9,11.7c-.2.6-.3,1.1-.3,1.5,0,.6.3,1,1,1s1-.3,1.5-.9c.5-.6,1-1.7,1.5-3.2l.5-1.5h.8Z"/>
    <path class="st1" d="M101.8,248.2c0-.7-.3-1-.9-1s-1.2.3-1.6,1c-.5.6-1,1.7-1.5,3.1l-.6,1.5h-.8l1-2.9c.5-1.5,1.2-2.6,2.1-3.2.9-.6,1.8-.9,2.8-.9,1.8,0,2.6.8,2.6,2.5s-.2,1.9-.6,3.1l-4.3,12.1c-.2.6-.3,1.1-.3,1.5,0,.7.3,1,1,1s1.1-.3,1.6-.9c.5-.6,1-1.7,1.6-3.2l.6-1.5h.8l-1,2.9c-.5,1.5-1.2,2.5-2.1,3.2-.9.6-1.8,1-2.8,1-1.9,0-2.8-.8-2.8-2.4s.2-1.8.7-3.2l4.3-12.1c.2-.6.3-1.1.3-1.5ZM103.5,237.4c.6-.6,1.3-.9,2.1-.9s1.1.2,1.5.6.6.9.6,1.5-.3,1.5-.9,2.1-1.3.9-2.1.9-1.1-.2-1.4-.6c-.4-.4-.6-.9-.6-1.5s.3-1.5.9-2.1Z"/>
    <path class="st1" d="M116.1,248.7c-1.3,1.4-2.4,3.3-3.2,5.7-.8,2.4-1.3,4.9-1.3,7.5s.2,2.3.7,2.9c.5.6,1.2.9,2.1.9,2.2,0,4.2-1.3,6-4l.8.3c-.9,1.5-2,2.7-3.5,3.8-1.5,1.1-3,1.6-4.6,1.6s-2.9-.5-3.9-1.5-1.4-2.5-1.4-4.4.5-4.5,1.5-7c1-2.5,2.4-4.6,4.3-6.3,1.8-1.7,3.9-2.6,6.3-2.6s2.3.3,3.1.9c.8.6,1.2,1.4,1.2,2.5s-.3,1.6-.8,2.2c-.5.7-1.2,1-2,1s-.9-.1-1.2-.4c-.3-.3-.4-.7-.4-1.1,0-.7.3-1.4.9-1.9s1.3-.9,2.1-1.1c-.6-.8-1.5-1.2-2.7-1.2s-2.7.7-4,2.2Z"/>
    <path class="st1" d="M131.1,248.2c0-.7-.3-1-.9-1s-1.2.3-1.6,1c-.5.6-1,1.7-1.5,3.1l-.6,1.5h-.8l1-2.9c.5-1.5,1.2-2.6,2.1-3.2.9-.6,1.8-.9,2.8-.9,1.8,0,2.6.8,2.6,2.5s-.2,1.9-.6,3.1l-4.3,12.1c-.2.6-.3,1.1-.3,1.5,0,.7.3,1,1,1s1.1-.3,1.6-.9c.5-.6,1-1.7,1.6-3.2l.6-1.5h.8l-1,2.9c-.5,1.5-1.2,2.5-2.1,3.2-.9.6-1.8,1-2.8,1-1.9,0-2.8-.8-2.8-2.4s.2-1.8.7-3.2l4.3-12.1c.2-.6.3-1.1.3-1.5ZM132.9,237.4c.6-.6,1.3-.9,2.1-.9s1.1.2,1.5.6.6.9.6,1.5-.3,1.5-.9,2.1-1.3.9-2.1.9-1.1-.2-1.4-.6c-.4-.4-.6-.9-.6-1.5s.3-1.5.9-2.1Z"/>
    <path class="st1" d="M131.2,273.8c1.7,0,3.1-.8,4.2-2.1,1.2-1.3,2.1-3.2,2.6-5.6l4.6-16.4c.2-.6.3-1.2.3-1.6,0-.6-.3-.9-.9-.9s-1,.3-1.5.9c-.5.6-1,1.7-1.5,3.1l-.5,1.5h-.8l1-2.9c.9-2.7,2.5-4.1,4.9-4.1s2.7.8,2.7,2.4-.2,1.7-.6,3.2l-3.1,10.9c-1.1,4.4-2.9,7.7-5.3,9.7-.9.7-1.9,1.3-3,1.8-1.1.4-2.2.7-3.3.7l.2-.6ZM144.9,237.2c.6-.7,1.3-1,2.1-1s1.1.2,1.5.6c.4.4.6.9.6,1.5s-.3,1.4-.9,2.1c-.6.7-1.3,1-2.1,1s-1.1-.2-1.4-.6c-.4-.4-.6-.9-.6-1.5s.3-1.4.9-2.1Z"/>
    <path class="st1" d="M165.8,260.3h.8l-1,2.9c-.5,1.5-1.2,2.5-2,3.2-.8.7-1.7,1-2.6,1s-.9,0-1.3-.3c-.4-.2-.7-.4-.9-.8-.2-.4-.4-.9-.4-1.4s0-1.2.3-1.9c.2-.7.3-1.1.4-1.3l.7-2.9c-1.3,3-2.6,5.2-3.9,6.5-1.3,1.3-2.7,2-4.1,2s-2.2-.4-2.8-1.3c-.6-.9-1-2.1-1-3.5,0-2.2.6-4.6,1.7-7.2,1.1-2.7,2.6-4.9,4.5-6.8s3.7-2.8,5.6-2.8,1.3.3,1.8.8c.5.5.7,1.3.8,2.2l.6-2.5c1.5,0,2.7-.2,3.7-.6l-5,17.7c0,.1,0,.3-.2.6s-.1.6-.1.9c0,.7.3,1,.9,1,1.2,0,2.2-1.4,3.1-4.1l.5-1.5ZM155.6,264.4c1-1.1,2.1-2.7,3.1-4.6s1.8-3.9,2.5-6.1l.7-2.8c0-.2,0-.5,0-.9,0-1.1-.2-2-.6-2.6-.4-.6-.9-.9-1.6-.9-1.1,0-2.4.9-3.6,2.7-1.3,1.8-2.4,4-3.2,6.6-.9,2.6-1.3,5-1.3,7.3s.1,1.9.4,2.4c.2.5.6.7,1,.7.7,0,1.6-.6,2.7-1.7Z"/>
    <path class="st1" d="M196.8,260.3h.8l-1,2.9c-.5,1.5-1.2,2.5-2,3.2s-1.7,1-2.6,1-.9,0-1.3-.3c-.4-.2-.7-.4-.9-.8-.2-.4-.4-.9-.4-1.4s0-1.2.3-1.9.3-1.1.4-1.3l.7-2.9c-1.3,3-2.6,5.2-3.9,6.5-1.3,1.3-2.7,2-4.1,2s-2.2-.4-2.8-1.3-1-2.1-1-3.5c0-2.2.6-4.6,1.7-7.2,1.1-2.7,2.6-4.9,4.5-6.8s3.7-2.8,5.6-2.8,1.3.3,1.8.8.7,1.3.8,2.2l.6-2.5c1.5,0,2.7-.2,3.7-.6l-5,17.7c0,.1,0,.3-.2.6s-.1.6-.1.9c0,.7.3,1,.9,1,1.2,0,2.2-1.4,3.1-4.1l.5-1.5ZM186.6,264.4c1-1.1,2.1-2.7,3.1-4.6s1.8-3.9,2.5-6.1l.7-2.8c0-.2,0-.5,0-.9,0-1.1-.2-2-.6-2.6-.4-.6-.9-.9-1.6-.9-1.1,0-2.4.9-3.6,2.7-1.3,1.8-2.4,4-3.2,6.6-.9,2.6-1.3,5-1.3,7.3s.1,1.9.4,2.4c.2.5.6.7,1,.7.7,0,1.6-.6,2.7-1.7Z"/>
    <path class="st1" d="M219.5,260.4h.8l-1,2.9c-1,2.7-2.6,4.1-4.8,4.1s-.8,0-1.2-.3c-.4-.2-.7-.5-.8-.8-.2-.4-.2-.8-.2-1.2,0-.7.2-1.8.6-3.3l1.2-5c-1.5,3.8-3.1,6.5-4.5,8.2-1.5,1.6-3.1,2.4-4.8,2.4s-3.4-1-3.4-3.1.2-1.8.6-3l3.9-11.7c.2-.6.3-1.1.3-1.5,0-.7-.3-1-1-1s-1,.3-1.5.9c-.5.6-1,1.7-1.5,3.2l-.5,1.5h-.8l1-2.9c1-2.7,2.6-4.1,4.8-4.1s2.8.8,2.8,2.5-.2,1.8-.6,3.1l-3.8,11.4c-.3.8-.4,1.5-.4,2,0,.9.4,1.4,1.3,1.4s2.2-.8,3.4-2.3c1.3-1.5,2.5-3.7,3.7-6.4,1.2-2.7,2.3-5.8,3.2-9.2l.5-2c1.5,0,2.7-.2,3.6-.6l-5,17.7c-.2.7-.3,1.2-.3,1.6,0,.6.3.9.8.9s1.1-.3,1.6-.9c.5-.6,1-1.7,1.5-3.1l.5-1.5Z"/>
    <path class="st1" d="M227.1,263.4c0,.3-.1.6-.1.9,0,.5.2.9.5,1.2.3.3.7.4,1.2.4s1.3-.3,1.9-.9c.6-.6,1.1-1.6,1.7-3.1l.6-1.6h.8l-.8,2.5c-.6,1.7-1.3,2.8-2.2,3.5-.9.7-2,1-3.3,1s-2.1-.3-2.7-.9c-.6-.6-.9-1.4-.9-2.4s.1-1.5.4-2.3l4.2-14.7h-3.6l.2-.8h3.6l1.8-6.1c1.4,0,2.6-.2,3.6-.6l-1.9,6.6h5.3v.8h-5.5l-4.6,16.4Z"/>
    <path class="st1" d="M248.7,254c-2.4,1.6-5.2,2.9-8.3,4-.3,1.3-.4,2.6-.4,3.9,0,2.6.9,3.8,2.8,3.8s4.3-1.3,6.2-4l.6.3c-.9,1.5-2,2.7-3.5,3.8-1.5,1.1-3,1.6-4.6,1.6s-2.9-.5-3.9-1.4-1.4-2.4-1.4-4.2.6-4.3,1.8-6.9,2.8-4.7,4.8-6.5,4.2-2.7,6.6-2.7,1.6.2,2.1.7c.6.5.8,1.1.8,2,0,2.2-1.2,4.1-3.6,5.7ZM245.6,248c-1.1,1-2,2.3-3,4-.9,1.7-1.6,3.4-2.1,5.3,2.5-.9,4.3-1.7,5.4-2.6,1-.8,1.8-1.7,2.3-2.8.5-1.1.8-2.3.8-3.6s0-1.2-.2-1.4-.3-.4-.5-.4c-.9,0-1.8.5-2.9,1.5Z"/>
    <path class="st1" d="M274,260.4l-1,2.9c-1,2.7-2.6,4.1-4.8,4.1s-2-.4-2.5-1.2c-.2-.3-.3-.8-.3-1.3s.2-1.8.7-3.1l3.8-11.4c.3-.9.4-1.5.4-2,0-.9-.4-1.4-1.3-1.4s-2.2.7-3.5,2.2c-1.3,1.5-2.6,3.5-3.8,6.1-1.3,2.6-2.3,5.5-3.2,8.6l-.7,2.9h-3.5l4.8-17.2c.2-.7.3-1.2.3-1.5,0-.7-.3-1-.9-1s-1.1.3-1.6.9c-.5.6-1,1.7-1.5,3.2l-.5,1.5h-.8l1-2.9c1-2.7,2.5-4.1,4.8-4.1s1.5.2,1.8.6c.4.4.5,1,.5,1.7s-.2,1.8-.6,3.2l-1.4,5.5c1.7-4,3.3-6.9,4.9-8.6s3.3-2.5,5.1-2.5,3.2,1,3.2,3-.2,1.9-.6,3l-3.9,11.7c-.2.6-.3,1.1-.3,1.5,0,.6.3,1,1,1s1-.3,1.5-.9c.5-.6,1-1.7,1.5-3.2l.5-1.5h.8Z"/>
    <path class="st1" d="M280.9,263.4c0,.3-.1.6-.1.9,0,.5.2.9.5,1.2.3.3.7.4,1.2.4s1.3-.3,1.9-.9c.6-.6,1.1-1.6,1.7-3.1l.6-1.6h.8l-.8,2.5c-.6,1.7-1.3,2.8-2.2,3.5-.9.7-2,1-3.3,1s-2.1-.3-2.7-.9c-.6-.6-.9-1.4-.9-2.4s.1-1.5.4-2.3l4.2-14.7h-3.6l.2-.8h3.6l1.8-6.1c1.4,0,2.6-.2,3.6-.6l-1.9,6.6h5.3v.8h-5.5l-4.6,16.4Z"/>
    <path class="st1" d="M296.1,248.2c0-.7-.3-1-.9-1s-1.2.3-1.6,1c-.5.6-1,1.7-1.5,3.1l-.6,1.5h-.8l1-2.9c.5-1.5,1.2-2.6,2.1-3.2.9-.6,1.8-.9,2.8-.9,1.8,0,2.6.8,2.6,2.5s-.2,1.9-.6,3.1l-4.3,12.1c-.2.6-.3,1.1-.3,1.5,0,.7.3,1,1,1s1.1-.3,1.6-.9c.5-.6,1-1.7,1.6-3.2l.6-1.5h.8l-1,2.9c-.5,1.5-1.2,2.5-2.1,3.2-.9.6-1.8,1-2.8,1-1.9,0-2.8-.8-2.8-2.4s.2-1.8.7-3.2l4.3-12.1c.2-.6.3-1.1.3-1.5ZM297.9,237.4c.6-.6,1.3-.9,2.1-.9s1.1.2,1.5.6.6.9.6,1.5-.3,1.5-.9,2.1-1.3.9-2.1.9-1.1-.2-1.4-.6c-.4-.4-.6-.9-.6-1.5s.3-1.5.9-2.1Z"/>
    <path class="st1" d="M310.5,248.7c-1.3,1.4-2.4,3.3-3.2,5.7-.8,2.4-1.3,4.9-1.3,7.5s.2,2.3.7,2.9c.5.6,1.2.9,2.1.9,2.2,0,4.2-1.3,6-4l.8.3c-.9,1.5-2,2.7-3.5,3.8-1.5,1.1-3,1.6-4.6,1.6s-2.9-.5-3.9-1.5-1.4-2.5-1.4-4.4.5-4.5,1.5-7c1-2.5,2.4-4.6,4.3-6.3,1.8-1.7,3.9-2.6,6.3-2.6s2.3.3,3.1.9c.8.6,1.2,1.4,1.2,2.5s-.3,1.6-.8,2.2c-.5.7-1.2,1-2,1s-.9-.1-1.2-.4c-.3-.3-.4-.7-.4-1.1,0-.7.3-1.4.9-1.9s1.3-.9,2.1-1.1c-.6-.8-1.5-1.2-2.7-1.2s-2.7.7-4,2.2ZM319.6,236.6c1.2-.7,2.4-1.4,3.6-1.8l.2.6c-1.7.7-3.4,1.7-4.9,3-1.5,1.2-2.8,2.5-3.7,3.9h-.7c-.3-1.7-.8-3.1-1.5-4.1-.7-1.1-1.8-2-3.2-2.8l.2-.6c1.5.4,2.8,1,3.8,1.6s2,1.5,2.9,2.5c1-.8,2.1-1.6,3.4-2.3Z"/>
    <path class="st1" d="M340,260.4l-1,2.9c-1,2.7-2.6,4.1-4.8,4.1s-2-.4-2.5-1.2c-.2-.3-.3-.8-.3-1.3s.2-1.8.7-3.1l3.8-11.4c.3-.9.4-1.5.4-2,0-.9-.4-1.4-1.3-1.4s-2.2.7-3.5,2.2c-1.3,1.5-2.6,3.5-3.8,6.1-1.3,2.6-2.3,5.5-3.2,8.6l-.7,2.9h-3.5l4.8-17.2c.2-.7.3-1.2.3-1.5,0-.7-.3-1-.9-1s-1.1.3-1.6.9c-.5.6-1,1.7-1.5,3.2l-.5,1.5h-.8l1-2.9c1-2.7,2.5-4.1,4.8-4.1s1.5.2,1.8.6c.4.4.5,1,.5,1.7s-.2,1.8-.6,3.2l-1.4,5.5c1.7-4,3.3-6.9,4.9-8.6,1.6-1.7,3.3-2.5,5.1-2.5s3.2,1,3.2,3-.2,1.9-.6,3l-3.9,11.7c-.2.6-.3,1.1-.3,1.5,0,.6.3,1,1,1s1-.3,1.5-.9c.5-.6,1-1.7,1.5-3.2l.5-1.5h.8Z"/>
    <path class="st1" d="M344.3,254.3c.9-2.4,2.3-4.5,4-6.1,1.8-1.7,3.8-2.5,6.1-2.5s3,.5,4,1.6c1,1.1,1.5,2.6,1.5,4.7s-.5,4.4-1.4,6.8c-.9,2.4-2.3,4.5-4,6.1s-3.8,2.5-6.1,2.5-3-.5-4-1.6c-1-1.1-1.5-2.6-1.5-4.7s.5-4.4,1.4-6.8ZM350.3,249.1c-1.2,1.7-2.2,3.9-2.9,6.5s-1.1,5.1-1.1,7.5.2,2.1.6,2.6c.4.6.9.8,1.7.8,1.4,0,2.6-.9,3.9-2.6s2.2-3.9,2.9-6.5,1.1-5.1,1.1-7.5-.2-2.1-.6-2.6c-.4-.6-.9-.8-1.7-.8-1.4,0-2.6.9-3.9,2.6Z"/>
    <path class="st1" d="M381,244.7c.4.4.6,1,.6,1.8s-.2,1.2-.5,1.6c-.3.4-.8.6-1.2.6s-1-.2-1.3-.5-.6-.9-.6-1.5.1-1,.4-1.7c-1,.5-1.8,1-2.3,1.7,1.1.8,1.7,2,1.7,3.6s-.3,2.3-.9,3.4c-.6,1.1-1.4,2.1-2.4,2.9s-2.3,1.4-3.7,1.6l-1.3.7c-1.3.7-2.2,1.2-2.7,1.6-.6.4-.9.8-.9,1.2s.2.5.6.8c.4.2,1,.4,1.8.6l2.9.8c1.5.4,2.7.8,3.4,1.3.7.5,1.1,1.2,1.1,2.2s-.4,2.1-1.3,3.2c-.8,1.1-2.1,2.1-3.9,2.9-1.7.8-3.9,1.2-6.5,1.2s-3.6-.3-4.7-.8c-1.1-.5-1.6-1.3-1.6-2.2s.5-1.8,1.5-2.7c1-.9,2.4-1.6,4.2-2.2l.3.6c-1.7.9-2.6,2.1-2.6,3.6s.4,1.8,1.1,2.3c.7.5,1.6.7,2.8.7s2.4-.2,3.6-.7c1.3-.5,2.3-1.1,3.1-1.9.8-.8,1.2-1.6,1.2-2.5s-.1-.6-.3-.8c-.2-.1-.7-.3-1.3-.4l-6.1-1.6c-1.4-.4-2.2-1.2-2.2-2.4s.4-1.6,1.3-2.5c.9-.8,2.5-1.8,4.9-2.9h-.3c-1.5,0-2.8-.4-3.8-1.1-1-.7-1.4-1.8-1.4-3.3s.3-2.3.9-3.6c.6-1.3,1.5-2.4,2.8-3.3,1.3-.9,3-1.4,5-1.4s2.1.2,2.9.5c.5-.6,1.1-1.2,1.8-1.6.7-.4,1.4-.6,2.2-.6s1.3.2,1.7.6ZM372.2,256.2c.7-.9,1.2-2,1.5-3.3.3-1.3.4-2.4.4-3.5s-.1-1.7-.4-2.2c-.3-.5-.8-.7-1.5-.7-1.3,0-2.3.6-3.1,1.7-.8,1.1-1.3,2.4-1.6,3.7-.3,1.4-.4,2.5-.4,3.3,0,1.6.7,2.4,2.1,2.4s2.2-.5,2.9-1.4Z"/>
    <path class="st1" d="M391.9,254.3c.9-2.4,2.3-4.5,4-6.1,1.8-1.7,3.8-2.5,6.1-2.5s3,.5,4,1.6c1,1.1,1.5,2.6,1.5,4.7s-.5,4.4-1.4,6.8-2.3,4.5-4,6.1c-1.8,1.7-3.8,2.5-6.1,2.5s-3-.5-4-1.6c-1-1.1-1.5-2.6-1.5-4.7s.5-4.4,1.4-6.8ZM397.9,249.1c-1.2,1.7-2.2,3.9-2.9,6.5s-1.1,5.1-1.1,7.5.2,2.1.6,2.6c.4.6.9.8,1.7.8,1.4,0,2.6-.9,3.9-2.6,1.2-1.7,2.2-3.9,2.9-6.5s1.1-5.1,1.1-7.5-.2-2.1-.6-2.6c-.4-.6-.9-.8-1.7-.8-1.4,0-2.6.9-3.9,2.6Z"/>
    <path class="st1" d="M428,260.4h.8l-.9,2.9c-.5,1.5-1.1,2.5-2,3.2-.9.6-1.7,1-2.7,1s-1.5-.2-1.9-.6c-.4-.4-.6-1-.6-1.8s.2-1.8.5-3.1l.6-2c-1.3,2.7-2.5,4.6-3.8,5.8-1.3,1.2-2.7,1.8-4.2,1.8s-2.3-.4-3.1-1.3c-.7-.9-1.1-2.2-1.1-4s.6-4.6,1.7-7.2c1.2-2.6,2.7-4.8,4.7-6.5,2-1.8,4.1-2.7,6.5-2.7s1,.2,1.5.5c.5.3.8.8,1,1.4l2-7.5c.1-.3.2-.7.2-1.1,0-.5-.2-.9-.6-1.2-.4-.3-1.1-.4-2.1-.4l.2-.8c1.4,0,2.7-.2,3.8-.4,1.1-.3,2.2-.7,3.3-1.2l-7.8,28.4c-.2.6-.2,1.1-.2,1.4,0,.7.3,1.1,1,1.1s1-.3,1.5-.9c.5-.6.9-1.7,1.4-3.2l.5-1.5ZM417.7,264.4c1-1.1,2.1-2.6,3.1-4.5s1.9-3.9,2.5-6l1.4-5.2c-.2-.7-.4-1.2-.8-1.5-.4-.3-.8-.5-1.3-.5-1.6,0-3.2.9-4.6,2.6-1.4,1.7-2.6,3.8-3.5,6.4-.9,2.5-1.3,4.9-1.3,7s.6,3.5,1.8,3.5,1.7-.6,2.8-1.7Z"/>
    <path class="st1" d="M461.2,260.4l-1,2.9c-1,2.7-2.6,4.1-4.8,4.1s-2-.4-2.5-1.1c-.2-.4-.4-.9-.4-1.4s.2-1.8.7-3.1l3.8-11.4c.3-.8.4-1.5.4-2.1s-.3-1.2-.9-1.2c-1.5,0-3.2,1.7-5.1,5.2-1.9,3.5-3.8,8.1-5.5,13.8v-.2s-.2,1-.2,1h-3.6l5-16.5c.3-.8.4-1.5.4-2,0-.9-.4-1.3-1.1-1.3s-2.1.8-3.3,2.3c-1.2,1.6-2.4,3.7-3.6,6.4-1.2,2.7-2.2,5.7-3.1,8.9l-.6,2.2h-3.5l4.8-17.2c.2-.7.3-1.2.3-1.5,0-.7-.3-1-.8-1s-1.1.3-1.6.9c-.5.6-1,1.7-1.5,3.1l-.5,1.5h-.8l1-2.9c1-2.7,2.6-4.1,4.8-4.1s2.3.8,2.3,2.4-.2,1.8-.6,3.2l-1.3,5.1c1.6-3.9,3.1-6.6,4.5-8.3,1.4-1.6,3-2.4,4.8-2.4s2.6.9,2.6,2.8-.2,1.9-.6,3.2l-1.4,5.4c1.1-2.8,2.2-5,3.2-6.7s2-2.8,3-3.6c1-.8,2.2-1.1,3.4-1.1,1.9,0,2.8,1,2.8,3s-.2,1.9-.6,3l-3.9,11.7c-.2.7-.3,1.2-.3,1.5,0,.6.3,1,1,1s1-.3,1.5-.9c.5-.6,1-1.7,1.5-3.2l.5-1.5h.8Z"/>
    <path class="st1" d="M465.4,254.3c.9-2.4,2.3-4.5,4-6.1,1.8-1.7,3.8-2.5,6.1-2.5s3,.5,4,1.6c1,1.1,1.5,2.6,1.5,4.7s-.5,4.4-1.4,6.8-2.3,4.5-4,6.1c-1.8,1.7-3.8,2.5-6.1,2.5s-3-.5-4-1.6c-1-1.1-1.5-2.6-1.5-4.7s.5-4.4,1.4-6.8ZM471.5,249.1c-1.2,1.7-2.2,3.9-2.9,6.5s-1.1,5.1-1.1,7.5.2,2.1.6,2.6c.4.6.9.8,1.7.8,1.4,0,2.6-.9,3.9-2.6,1.2-1.7,2.2-3.9,2.9-6.5s1.1-5.1,1.1-7.5-.2-2.1-.6-2.6c-.4-.6-.9-.8-1.7-.8-1.4,0-2.6.9-3.9,2.6Z"/>
    <path class="st1" d="M500.2,246.4c.4.4.6,1,.6,1.6s-.3,1.5-.8,2c-.6.6-1.2.8-2,.8s-.9-.1-1.2-.4c-.3-.3-.4-.6-.4-1.1s.2-1.1.5-1.6c.3-.4.8-.8,1.3-1-.1-.1-.3-.2-.4-.2-1.4,0-3,1.6-4.7,4.7-1.7,3.1-3.3,7.2-4.8,12.3l-.8,3.2h-3.5l4.8-17.2c.2-.6.3-1.1.3-1.6s-.3-.9-.8-.9-1.1.3-1.6.9c-.5.6-1,1.7-1.5,3.1l-.5,1.5h-.8l1-2.9c1-2.7,2.6-4.1,4.8-4.1s2.3.8,2.3,2.3-.2,1.8-.6,3.3l-1.3,5c1.4-3.9,2.8-6.6,4.1-8.2,1.3-1.6,2.7-2.4,4.3-2.4s1.3.2,1.7.6Z"/>
    <path class="st1" d="M517.2,260.3h.8l-1,2.9c-.5,1.5-1.2,2.5-2,3.2s-1.7,1-2.6,1-.9,0-1.3-.3c-.4-.2-.7-.4-.9-.8-.2-.4-.4-.9-.4-1.4s0-1.2.3-1.9.3-1.1.4-1.3l.7-2.9c-1.3,3-2.6,5.2-3.9,6.5-1.3,1.3-2.7,2-4.1,2s-2.2-.4-2.8-1.3-1-2.1-1-3.5c0-2.2.6-4.6,1.7-7.2,1.1-2.7,2.6-4.9,4.5-6.8s3.7-2.8,5.6-2.8,1.3.3,1.8.8.7,1.3.8,2.2l.6-2.5c1.5,0,2.7-.2,3.7-.6l-5,17.7c0,.1,0,.3-.2.6s-.1.6-.1.9c0,.7.3,1,.9,1,1.2,0,2.2-1.4,3.1-4.1l.5-1.5ZM506.9,264.4c1-1.1,2.1-2.7,3.1-4.6s1.8-3.9,2.5-6.1l.7-2.8c0-.2,0-.5,0-.9,0-1.1-.2-2-.6-2.6-.4-.6-.9-.9-1.6-.9-1.1,0-2.4.9-3.6,2.7-1.3,1.8-2.4,4-3.2,6.6-.9,2.6-1.3,5-1.3,7.3s.1,1.9.4,2.4c.2.5.6.7,1,.7.7,0,1.6-.6,2.7-1.7Z"/>
  </g>
</svg>