<svg id="Layer_1" data-name="Layer 1" xmlns="http://www.w3.org/2000/svg" viewBox="0 0 204 76.24"
     preserveAspectRatio="none" >
  <path fill="rgba(0,0,0, .125)" class="button-shadow" transform="translate(2,0)"
        d="M206,3.91c-19.69,0-164.78,7.48-193.18,20.46C3.2,28.77,0,34.83,0,40.07s2.91,11.07,12.19,15.4C40.3,68.61,186.14,76.24,206,76.24c26.37,0,47.77-15.54,47.77-36.16S232.36,3.91,206,3.91Z"/>
  <path transform="translate(2,0)" fill="#f3410e" class="button-body"
        d="M206,0C186.3,0,41.21,7.48,12.81,20.46,3.2,24.86,0,30.92,0,36.16s2.91,11.07,12.19,15.4C40.3,64.7,186.14,72.33,206,72.33c26.37,0,47.77-15.54,47.77-36.16S232.36,0,206,0Z"/>
</svg>
