
<svg xmlns="http://www.w3.org/2000/svg" version="1.1" xmlns:xlink="http://www.w3.org/1999/xlink" preserveAspectRatio="none" x="0px" y="0px" width="1280px" height="1280px" viewBox="0 0 1280 1280" class="hrvatska-izborne">
<defs>
<g id="Layer1_0_MEMBER_0_FILL">
<path  stroke="none" d="
M 920.35 1066.45
Q 919.35 1067.85 921.5 1068.9 923.6 1069.9 924.6 1069.35 925.85 1068.8 923.8 1066.5 921.85 1064.35 920.35 1066.45
M 895.75 1044.6
Q 894.25 1043.65 893.35 1045.1 892.1 1047.1 890.25 1047.3 888.15 1047.5 885.65 1045.9 883.4 1044.45 883.05 1044.6 880.6 1045.5 884.7 1048.55 888.45 1051.4 890.05 1051.6 890.6 1051.6 893.3 1051.55 896 1051.65 897.25 1052.4 898.25 1053 901.35 1056.15 904.45 1059 906.75 1059 909.15 1059 908.4 1057.45 907.05 1055.6 906.75 1055 906.25 1054 902.1 1050 897.75 1045.8 895.75 1044.6
M 916.05 1062.5
Q 914.35 1061.4 913.75 1060.95 913 1060.4 911.55 1060.6
L 910.25 1060.95
Q 909 1060.95 909.2 1061.8 909.4 1062.55 910.55 1063.5 913.6 1065.95 915.45 1064.75 917.1 1063.6 916.05 1062.5
M 682.25 1045.95
Q 686.05 1046.85 686.25 1045.95 686.6 1045 684.65 1044.25 682.8 1043.55 682.25 1045.95
M 704.7 1038.75
Q 701.25 1038.2 700.7 1038.8 700.35 1039.2 700.1 1040.45 699.6 1041.1 698.45 1040.1 697 1038.85 696.6 1038.85 693.55 1039.05 697.5 1042.65 701.95 1046.85 701.8 1047.15 701.3 1048.25 703.6 1050.3 705.9 1052.45 707.3 1051.45 709.05 1050.2 711 1050.05 713.3 1049.8 713.9 1051.45 715 1054.35 720.3 1049.65 722.4 1047.8 723.75 1045.5 725.2 1042.95 725.2 1040.65 725.2 1038.75 722.65 1039 716.85 1039.6 716 1039.55 711.8 1039.45 710.35 1039.4 708.25 1039.25 704.7 1038.75
M 798.2 1034.25
Q 796.65 1035.3 795.4 1036.15 794.55 1038.5 800.25 1041 806 1043.55 809.2 1041.7 811.7 1040.3 814.35 1043.25 817.65 1047 819.9 1047.3 822.5 1047.65 823.95 1047.95 824.4 1047.95 826.5 1047.3 828.15 1046.7 831.2 1048.95 835.1 1051.75 838.1 1052.35 840.95 1052.9 842.35 1053.6 843.9 1054.4 848.5 1055.45 854.05 1056.8 855 1056.85 855.9 1056.9 858.9 1056.65 861.95 1056.65 863.3 1058.2 866.1 1061.5 867 1062.15 869.5 1064 870.35 1063.25 871.7 1062.05 872.8 1062.15 875.05 1062.35 876.2 1060.9 877.25 1059.5 876.8 1057.25 876.45 1055.6 872.25 1054.2 865.6 1052.05 863.8 1051.15 859.95 1049.25 857.6 1048.65 853.1 1047.75 847.9 1046.6 842.2 1045.3 840.45 1043.9 838.55 1042.35 835.8 1041.65 828.65 1039.85 828.45 1039.75 825.65 1038.8 822.2 1036.15 819.45 1034.05 815.85 1034.6 811.9 1035.2 809.5 1033.85 805.95 1031.55 805.25 1031.2 804.55 1030.8 802.9 1031.6 801.3 1032.25 798.2 1034.25
M 675.45 983.65
L 669.25 984.65
Q 665.3 986.45 672 988.55 679.9 990.95 679.75 991.95 679.6 993.35 677.15 993.7 673.35 994.25 671.95 994.85 669.25 996.05 669.1 998.25 669 1000.35 671.05 1001.45 672.4 1002.15 675.4 1001.6 679.4 1000.9 682.35 1001.15 686.05 1001.5 687.1 1003 687.75 1004 689.85 1007.25 691.8 1009.3 696.8 1007.95 703.85 1006 706.95 1006.15 710.9 1006.4 715.3 1007.15 718.75 1007.35 724.05 1004.85 729.85 1002.05 731.8 1001.65 732.35 1001.55 741.1 1001.1 747.15 1000.75 751 1002.45 756.9 1005.15 759.35 1005.65 764.9 1006.85 767.6 1004.85 769.85 1003.25 768.85 1001.65 767.2 998.75 765.7 996.6 762.75 992.55 760.55 992.25 758.45 992 751.9 990 745.35 987.9 744.35 987.65 739.95 986.55 732.35 986.4 721 986.1 716.55 989.6 711.8 993.35 704.3 991.9 698.95 990.9 689.45 986.35 682.95 983.3 675.45 983.65
M 676.25 956.25
Q 673.05 958.2 676.1 960.45 678.2 962.05 679.45 962.35 681.95 962.9 684.2 960.45 687.65 956.75 687.8 956.25 688.3 954.85 684.2 954.65 679.3 954.4 676.25 956.25
M 826.35 938.15
Q 822.55 936.05 821.1 933.25 820.4 931.9 819.7 928.3 819.15 925.15 817.75 923.35 815.7 920.6 810.75 918.45 801.85 914.55 798.8 909.55 797.786328125 907.2609375 796.65 905.1 794.2775390625 900.6533203125 791.35 896.75 785.4 888.8 784.9 883.45 784.5 879.35 787.35 875.95 790.3 872.45 790.6 867.25 791 860.9 786.45 856.55 782.35 852.6 776.7 852.85 770.4 853.95 767.35 853.95 764.2 853.95 755.55 845.65 754.7697265625 844.899609375 754 844.2
L 698.2 849.95 677.9 867.75
Q 679.7029296875 868.2427734375 680.9 868.9 683.3 870.15 687.25 874.35 690.5 877.8 701.2 878.6 706.85 879.05 714.75 878.95 717.65 879.15 720.8 883.25 722.65 885.6 726.05 890.75 726.2 890.9 732.9 898.8 736.287890625 902.765234375 737.55 905.1 737.9544921875 905.7978515625 738.15 906.35 738.85 908.35 741.95 910 745.1 911.7 745.95 913.85 747.1 916.7 748.45 918.3 748.5 918.4 752.85 922.85 756.65 926.65 757.2 927.05 758.65 928.15 761.85 928.95 764.35 929.6 767.45 933.35 770.65 937.25 772.55 937.95 775.6 939.05 781.05 942.6 786.4 946.1 788.15 948.05 789.5 949.6 790.95 949.95 794.85 950.95 795.65 951.25 798.6 952.3 799.85 954.65 800.55 955.95 801.75 958.45 802.6 959.6 805.85 964.25 809.15 968.75 811.25 970.85 812.65 972.25 813.85 971.45 814.7 970.85 815.25 969.45 813.1 977.05 820.75 976.35 824.15 976.05 827.35 975.4 828.85 975.05 828.55 975.45 828.25 975.9 826.3 977.95 824.45 980.25 824.25 982.35 824.05 984.85 828 989.65 831.65 994.05 835.85 997.05 839.4 999.65 846.95 998.45 853.5 997.45 857.25 995.05 861.65 992.6 863.85 991.25 867.85 988.75 869.65 986.05 871.6 983.15 864.05 969.7 856.7 956.75 854.05 955.75 852.95 955.3 843.45 948.85 832.8 941.7 826.35 938.15
M 990.3 1083.05
Q 984.25 1082.7 980.55 1082.6 973.7 1082.4 970.6 1082.95 968.15 1083.4 966.25 1080.1 963.75 1075.7 960.2 1073.95 956 1071.95 954.5 1071 953.15 1070.15 952.7 1069.95 952.05 1069.65 951.05 1068.2 949.95 1066.6 946.6 1064.75 943.25 1062.9 942.95 1061.75 942.45 1059.8 941.7 1058.95 940.3 1057.4 937.65 1053.75 934.1 1048.8 931.9 1045.95 929.15 1042.4 927.55 1043.2 925.05 1044.4 923.2 1043.65 920.5 1042.55 919.35 1040.1 917.9 1037.1 916.3 1035.85 912.5 1032.95 911.7 1032.5 909.4 1031.3 905 1030.65 901 1030.1 901.75 1028.2 903.3 1026 903 1025.15 901.55 1023.6 900.35 1022.2 898.05 1019.55 897.5 1015.35 896.85 1010.1 893.6 1005.65 890.4 1001.25 887.4 1001.45 885.55 1001.6 883.4 1004.8 881.75 1007.3 880.2 1005.75 878.45 1004 876.3 1002.8 873.15 1001.25 870.4 999.65 866.95 997.65 863.95 999.3 862.3 1000.2 860.3 1002.25 859.55 1002.75 859.3 1006.2 859 1010.4 857.4 1013.55 855.7 1017.05 851.75 1013.2 847.35 1007.95 845.6 1006.95 840.7 1004.05 839.6 1003.55 835.75 1001.65 833.5 1002.05 832.25 1002.25 829.95 1002.95 828.25 1003.45 826 1003.45 822.7 1003.45 822 1002.45 821 1001.1 822 996.15 822.85 991.95 818.7 991.35 816.15 991.1 814.75 990.95 812.2 990.65 810.7 989.85 804.8 986.05 800.65 983.65 792.95 979.15 786.7 978.3 782.6 977.7 773.35 975.1 766.25 973.05 762.4 973.35 758.45 973.7 755.9 974.55 751.7 975.95 748.85 976.6 744.3 977.65 743.1 974.05 742.5 971.75 742.1 970.5 741.35 968.2 740.05 966.8 737.3 963.75 737.75 966.9 738.05 969.35 739.6 972.85 740.5 974.8 739.4 976.2 738.8 976.95 737.6 978.35 736.35 981.85 749.15 984.75 751.55 985.3 766.4 987.7 769.95 988.15 771 987.85 774.75 986.7 775.9 986.5 779.45 985.85 782.8 990.1 787 995.3 789.5 996.2 793.3 997.65 797 1000.75 799 1002.45 801.9 1005.3 803.45 1006.65 806.5 1005.7 810.7 1004.4 810.9 1004.4 813.1 1004.4 815.5 1005.95 818.4 1007.8 818.4 1010.5 818.4 1012.85 817.8 1013.5 817.05 1014.25 817 1014.5 816.8 1015.4 827.45 1019.95 840.7 1025.65 841 1025.8 843.05 1026.85 852 1029.35 860.95 1031.75 862.1 1032.4 862.55 1032.65 867.55 1034.4 871.45 1035.75 872.8 1037.3 873.95 1038.6 875.85 1040.85 877.45 1042.15 879.1 1040.5 880.45 1039.15 876.25 1035.15 871.2 1030.4 870.8 1028.1 870.35 1025.55 875.6 1030.85 881.65 1036.85 882.6 1036.2 883 1035.9 884.7 1032.5 886 1029.9 888.7 1030.1 891.2 1030.25 893.25 1033.4 895.25 1036.5 896.5 1036.5 898.7 1036.5 899.35 1037.45 900 1038.45 898.5 1039.7 897.15 1040.85 898.05 1041.85 898.55 1042.4 900.2 1043.5 902.15 1045.05 908.85 1049.85 917.05 1055.75 921 1058.2 924.6 1060.35 926.5 1061.05 928.85 1061.9 929.4 1062.2 931 1063.05 931 1065.4 930.95 1066.65 930.6 1068.8 930.6 1069.95 931.85 1070.9 932.55 1071.45 934.1 1072.3 936.9 1073.8 937.1 1073.95 939.25 1075.25 940.5 1076.9 941.45 1078.15 941.8 1079.85 941.9 1080.25 942.5 1078.9 943.2 1077.4 947.5 1078.65 952.8 1080.2 953.5 1080.1 955.9 1079.8 957.4 1080.25 959.55 1080.85 961.3 1083 962.9 1085 962.05 1086.85 961.8958984375 1087.1720703125 961.65 1087.6 961.051953125 1088.7001953125 959.9 1090.5 959.05 1092.5 960.45 1093.55 961.2 1094.15 966.8 1096.6 969.75 1097.9 971.45 1101.1 972.85 1103.8 977.2 1104.7 981.95 1105.7 988.15 1111.35 995.65 1118.15 996.9 1118.85 999.9 1120.5 999.2 1121.45 998 1123.1 998.3 1124.05 998.75 1125.75 1001.6 1125.85 1004.85 1126 1005.2 1126.35 1010.1 1131.45 1011.6 1132.8 1013.05 1134.1 1015.85 1137.35 1018.35 1139.9 1020.3 1139.35 1021.95 1138.85 1019.35 1135.8 1016.25 1132.15 1016.5 1130.95 1017 1128.85 1014.4 1125 1011.65 1120.8 1007.3 1117.95 1002.5 1114.65 1002.25 1114.2 1001.8 1113.35 1003.3 1108.95 1004.5 1105.4 1004.45 1104.5 1004.35 1102.4 1004.5 1101.15 1004.95 1097.7 1003.75 1095.15 1002.5 1092.6 999.3 1090.45 998.15078125 1089.695703125 996.35 1087.6 995.688671875 1086.778125 994.9 1085.75 992.9 1083.15 990.3 1083.05
M 644 1045.15
Q 645.45 1044.45 647.55 1044.15 650.15 1043.8 649.6 1042.2 649.25 1041.3 647.55 1039.6 646.65 1038.65 645.3 1038.85 643.65 1039.35 642.75 1039.6 640.4 1040.2 639.95 1043.2 639.45 1046.2 641.45 1045.85 642.65 1045.75 644 1045.15
M 449.55 958.35
Q 449.05 957.2 448.5 956.35 447.35 954.65 446.95 956.1 446.35 958.35 447.05 959.85 447.8 961.5 449.55 958.35
M 622.35 930.65
Q 620.75 931.85 626.25 934.75 631.35 937.45 636.85 938.85 641.2 939.95 642.55 940.65 643.55 941.2 646.25 943.15 648.45 944.55 650.05 944 652.9 943 655.75 943.15 659.3 943.25 661.2 945 663.2 946.9 665.55 947.15 668.4 947.5 670.3 948.7 672.6 950.15 674.55 950.65 677.3 951.35 680.75 950.4 682.8 949.85 687.85 948.35 691.3 947.6 695.5 948.4 697.85 948.8 702.55 949.75 705 950.05 710.4 949.6 715.85 949.15 718.45 949.45 720.45 949.7 725.15 951.5 728.95 953 732.05 952.65 735.35 952.3 740.3 952.45 748.75 952.65 749.35 952.65 754.65 952.65 757.2 952.4 760.15 952.1 762.65 951.25 765.85 950.15 767.6 948.85 769.8 947.2 768.45 946.05 767.2 945 759.7 944.5 749.8 944.05 744.45 943.75 739.1 943.45 735.15 942.1 730.8 940.6 724.75 940.05 711.4 938.95 709.35 938.85 702.85 938.55 701.35 939.45 699.9 940.3 693.75 940 686.85 939.45 684.55 939.45 681.65 939.45 677.65 934.3 673.95 928.7 673.25 927.85 672.15 925.35 671.25 924.3 669.6 922.4 666.35 924.05 663.35 925.55 659.25 922.9 654.75 920.05 653.6 920.25 651.1 920.65 649.95 921.55 648.7 922.5 648.7 924.25 648.7 925.7 652.1 927.5 657.5 930.35 657.9 930.65 659.05 931.45 658.5 932.05 658 932.6 656.45 932.7 652.5 932.95 650.4 930.65 648.45 928.5 645.45 927.2 643 926.1 641.4 926.1 639.4 926.1 636 926.75 631.7 927.55 630.4 928.65 628.4 930.35 622.35 930.65
M 624.55 938.85
Q 620.4 936.8 619.55 936.35 617.25 935.4 614.6 935.95 611.6 936.6 615.75 939.6 616.25 939.95 618.5 940.85 620.65 941.7 622.05 942.15 622.95 942.45 624.25 943.15 625.4 943.4 626.75 942.15 628 940.9 624.55 938.85
M 562.85 962.35
Q 562.65 962.8 558.85 965.35 556.85 966.65 560.85 968.15 567 970.55 567.4 970.9 568.65 972 565.7 974.6 562.35 977.6 562.05 979.25 561.8 981.05 565.45 980.35 578.15 978.35 580.7 977.45 582 977 585.9 977.55 589.25 978.05 589.7 977.45 590.95 975.8 596.1 967.35 597.35 966 597.95 965.05 599 963.25 597.55 962.35 596.35 961.65 592.65 962.25 588.75 962.9 587.45 962.35 584.2 960.7 582.05 959.75 578.1 958.05 575.2 958.45 570.1 959.15 567.7 959.7 563.55 960.65 562.85 962.35
M 549.2 984.15
Q 549.1 984.7 548.5 987.9 548.15 991 549.2 991.65 550.45 992.5 552.8 990.9 555.05 989.3 555.35 987.85 555.6 986.5 552.55 984.5 549.5 982.55 549.2 984.15
M 503.6 971.95
Q 501.15 972.3 500.8 972.45 499.5 972.85 499.35 973.95 499.05 975.55 500.3 976.55 501.65 977.7 503.6 975.95 505.85 974.05 505.85 972.85 505.9 971.6 503.6 971.95
M 559.95 864.45
L 562.05 866.9
Q 564.55 869.1 566.35 867.65 567.35 866.85 567.1 865.7 566.8 864.65 565.65 863.9 562.6 861.95 559.95 864.45
M 593.55 871.95
Q 588.9 872 587.95 874.6 586.45 878.85 589.5 880.65 591.4 881.7 597.05 883.65 600.85 885.6 602 885.95 603.25 886.35 608.65 887.65 612.85 888.75 615.4 892.1 617.8 895.35 619.95 895.75 622.9 896.25 627.4 898.6 629.85 899.9 634.35 902.35 638.2078125 904.2205078125 640 905.1 641.30078125 905.725390625 641.55 905.85 642.85 906.45 646.5 908.45 650.4 910.4 654.85 911.65 662.15 913.65 668.75 914.85 670.85 915.35 676.35 915.1 682.55 914.75 683.75 914.85 687.35 915.15 701.95 911.35 711.7 908.8 714.05 906.75 714.875 906.025 715.45 905.1 716 904.175 716.3 903.05 716.85 900.95 716.35 898.65 715.65 895.35 704.75 893.45 702.3 893.05 701.95 891.4 701.65 889.75 698.35 889.45 694.65 889.1 691.15 889.4 686.4 889.75 685.65 889.75 684 889.75 681.9 887.45 679.8 885.15 676.15 885.15 672 885.15 667.8 883.9 662.65 882.15 659.05 881.15 654.45 879.9 649.65 879.65 643.7 879.6 639.65 879.45 634 879.25 633.6 879.3 633.3 879.6 632.75 880.05 632 880.65 631.85 882.15 631.85 882.35 631.85 885.25 631.85 885.75 632.6 888.35 633 889.8 631.85 890.15 631.25 890.35 631.1 892.4 630.95 894.35 627.9 895.05 624.45 895.85 622.9 893.2 622.65 892.75 620.85 887.25 620.05 884.8 618.8 883.7 617.15 882.2 616.55 881.15 615.35 879.1 614.05 879.05 612.9 879.05 611.05 880.65 609.8 881.75 609.55 880.2 609.15 878.1 608.45 877.95 607.4 877.8 604.5 875.9 601 873.6 600.05 873.15 597.25 871.95 593.55 871.95
M 581.35 877.45
Q 582 878.85 582.85 877 583.7 875.1 582.6 874.85 581.1 874.55 580.85 874.7 580.2 875.05 581.35 877.45
M 582.35 863.5
Q 581.2 859.8 579.05 861.1 577.6 861.95 573.15 863.6 569.9 865.35 572.1 868.3 574.6 871.6 581.35 868.3 583.5 867.2 582.35 863.5 Z"/>
</g>

<g id="Layer1_1_MEMBER_0_FILL">
<path  stroke="none" d="
M 657.05 734.95
Q 654.15 734.65 648.55 723.3 643.3 712.65 640.35 713.85 636.4 715.4 634.15 712.9 632.45 711.05 631.35 706.35 630.9 702.1 630.5 701.15 630 699.8 626.45 699.95 623 700.15 620.15 697.45 617.05 693.75 615.15 691.85 613 689.7 611.6 689.75 610.25 689.85 609.65 689.25 609.3 688.9 607.15 684.1 604.75 678.9 600.65 673.95 598.6 671.45 594 666.75 592.75 665.5 593.45 664.15 594.35 662.4 593.15 659.45 591.9 656.4 589.15 654.05 586.7 652 586.45 647 586.35 644.9 586.85 640.15 587 638.7 589.1 634.75 591.15 630.9 591.15 629.75 591.15 627.8 588.6 625.3 585.8 622.55 582.75 622.55 579.3 622.55 578.35 622.25 577.15 621.8 576.15 619.95 575.3 618.35 577.5 617.7 578.85 617.3 582.55 616.45 585.05 615.6 584.45 614.4 583.9 613.3 581.15 612.15 578.9 611.25 578.75 610.55 578.85 608.65 578.55 606.05 578.2 601.2 577.8 598.7 577.2 594.45 575.35 589.85 573.55 585.35 568.6 583.4 561.8 581.5 557.45 579.75 551.7 577.45 552.25 573.65 552.75 570.25 555.75 569.95 557.85 569.75 558.9 568.35 559.8 567.1 560.65 563.85 561.85 559.85 560.65 556.85 559 552.6 552.85 550.85 547.8 549.45 545.05 542.8 543.55 539.25 543.15 538.65 542.05 536.85 540.45 536.95 537.7 537.1 536.5 534.2 534.55 529.6 532.95 527.95 530.25 525.2 529.7 526.05 529.3 526.6 528.35 529.35 527.4 530.8 526.25 530.6 524.4 530.2 523.45 530.55 522.2 531 521.6 532.1 520.95 533.25 519.15 534.05 517.35 534.8 516.8 532.75 516 529.95 514.25 529.15 512.35 528.3 510.9 525.25 509.2 521.5 506.75 519.35 503.45 516.45 502.1 513.75 501.25 512.05 500.65 508.95 500.3 507.1 502.85 506.45 507 505.4 508.15 504.65 511.5 502.45 511.95 501.9 512.9 500.8 510.75 500.05 508.95 499.45 507.4 494.2 507.17578125 493.428515625 506.95 492.7
L 489.65 477.55 466.25 492.1 444.45 475.95 423.5 442.05 378.35 416.25 353.3 438.05 363 528.4 342.9 535.85
Q 343.055859375 539.85546875 344.4 542.2 345.85 544.75 351.25 550.95 355.15 556.35 357.05 560.8 358.15 563.5 359.95 569.15 361.1 572.35 368.5 576.75 377.15 581.85 380.75 586.45 385.4 592.4 414.25 626.65 416.75 629.6 422.25 632.7 427.95 635.9 433.65 637.35 438.15 638.5 439.25 639.6 441.7 642.05 443.45 643.15 447.1 645.45 448.35 648.45 448.95 649.95 449.55 651.55 450.15 652 455.25 652.5 460.65 653 461.95 653.55 463.8 654.4 462.2 656.8 460.5 659.2 459.65 657.55 458.8 656.15 455.6 654.9 452.65 653.75 450.65 653.75 447.4 653.85 444.95 653.8 440.35 653.7 437.05 653.15 433.85 652.6 431.75 650.7 429.8 648.5 428.65 647.65 425.55 645.35 425 644.95 422.85 643.25 421.15 641.55 418.55 638.95 417.35 638.15 415.4 636.8 414.25 637.75 413.35 638.5 415.25 641.9 417.6 646.1 417.75 647.55 417.9 649.3 417.7 649.1 417.05 648.55 416.35 649.55 415.85 650.25 417.6 652.45 419.1 654.4 416.65 656.15 414.15 658 412.85 656.1 409.55 651.15 407.95 649.75 404.1 646.3 402.15 647.05 400.45 647.7 401.35 649.75 402.05 651.35 402.2 653.4 402.3 655.6 401.65 657.25 401.05 658.75 397.7 656.25 394.8 654.15 393.25 652.05 392.65 651.2 390.1 648.55 387.9 646.3 387.75 645.65 387.5 644.75 383.1 641.5 378.7 638.2 376.75 637.55 373.55 636.45 371.8 636.15 368.65 635.55 367.55 636.65 365.9 638.3 368.85 643.1 371.85 648.1 375.95 646.75 380.05 645.4 382.35 646.5 383.8 647.15 385.45 649.65 386.5 651.25 386.6 652.55 386.65 653.35 386.65 655.45 386.8 656.55 390.05 660.35 393.25 664.05 393.25 666.15 393.25 668.15 392.55 669.1 391.85 670 391.85 671.35 391.85 672.45 397.5 678.65 403.15 684.9 403.15 688.15 403.15 691.95 405.9 693.95 407.75 695.35 414.45 698.85 419.2 701.65 418.4 702.9 418.3 703 417.25 703.95 416.45 704.7 416.45 705.45 416.45 707 418.55 708 420.9 709.2 421.05 709.45 421.35 710 422.75 710.55 424.85 711.3 426.85 712.65 428.9 714.05 432.55 719.05 436.75 724.75 438.65 726.55 439.658984375 727.4767578125 440.3 728.15 440.077734375 728.1595703125 439.15 728.75 435.9 730.75 433.85 730.05 431.8 729.35 424.55 724 417.2 718.6 415.45 717.95 413.3 717.15 409.25 711.45 403.8 703.9 402.35 702.35 398.7 697.9 397 696.05 394.25 693.05 389.95 691.05 386.45 689.45 382.3 684.7 378.9 680.8 377.15 680.95 375.9 681.05 372.55 679.75 369.7 678.6 366.55 679.55 363.45 680.6 361.75 677.05 359 671.3 357.35 669.75 354.15 666.65 353.6 668.3 353.15 669.5 354.15 672.05 355.05 674.35 362.55 682.45 362.55 685.3 365.5 687.35 368.35 689.3 369.55 687.85 371.55 685.7 371.8 685.55 372.95 684.55 374.45 684.35 375.7 684.2 377.5 686.65 379.55 689.45 380.55 689.85 382.2 690.4 384.15 693.65 385.7 696.25 386.95 699.65 387.95 702.3 392.35 706.15 396.4 709.65 399.05 710.65 400.65 711.25 403.45 711.35 405.45 711.75 405.45 714.15 405.45 716.8 406.35 717.45 406.45 717.5 408.95 718.15 410.5 718.55 413.55 722.2 416.05 725.2 417.65 727.95 419.25 730.65 419.75 731.25 420.8 732.45 422.55 732.85 424.4 733.3 426.95 735.65 429.35 737.85 430.05 739.55 431.1 742 431.4 742.55 432.15 743.95 432.95 744.15 434.05 744.35 437.85 745.55
L 436.9 747.3
Q 436.4 749.3 438.75 750.75 439.5 751.2 443.65 754.5 446.15 756.55 448.05 756.55 449.8 756.55 446.65 754.7 442.85 752.45 442.85 751.95 442.85 751.6 445.35 750.35 447.9 749 448.05 747.35 448.25 745.5 444.1 742.1 439.25 738.55 437.95 737.55 436.4 736.35 437.25 734.9 439.9 730.2 439.95 730.05 440.52734375 728.6478515625 440.45 728.3 441.3248046875 729.2046875 441.6 729.7 442.3 731 443.25 732.05 447.7 737 449.05 738.25 453.4 742.35 456.55 742.75 459.55 743.1 460.9 745.7 461.7 747.15 462.95 749.95 463.9 751.25 465 753.25 465.381640625 753.94375 465.65 754.45 464.6736328125 754.3578125 462.85 755.6
L 466.6 758.6
Q 466.97265625 757.233203125 466.85 756.15 467.5841796875 756.656640625 469.3 757.3 472.3 758.4 473.65 759.25 477.55 761.5 482.85 762.75 485.2 763.3 488.3 766.1 491.7 769.2 490.95 771.15 490.25 772.8 486.45 770.55 482.2 768.05 481.75 768.25 480.95 768.6 481.7 770.35 482.85 773 482.95 773.75 483.15 775.1 480.95 772.25 477.6 767.8 477.45 767.65 476.45 766.65 475.9 765.15 475.25 763.5 475.15 763.35 474.75 762.75 473.3 764.8 471.9 766.75 471.65 767.95 471.25 769.8 476.55 774.05 478.25 775.35 478.55 775.8 478.85 776.2 479.75 777.85 480.75 779.5 481.85 780.45 482.85 781.3 484.65 782.15 486.25 783 486.7 782 487.15 781.1 486.35 780.15 485.85 779.5 485.6 777.55 485.3 775.25 484.95 774.35 484.35 773.05 485.55 772.95 485.65 772.9 488.75 773.15 490.05 773.3 489.9 773.5 489.45 774.15 490.15 775.15 490.85 776.1 492.55 777.7 494.75 779.7 496.55 781.75 499.45 785.05 501.1 785.8 503.2 786.8 506.65 785.75 509.15 785.05 510.95 786.35 514.3 788.8 519.35 790.35 525.85 792.35 524.05 787.6 520.2 780.65 518.75 777.05 517.75 774.6 518.15 773.75 518.4 773.2 519.7 773.2 523.05 773.1 523.35 770.65 523.8 767.55 522.75 766.45 520.75 764.4 520.15 762.85 518.3 757.8 527.65 767.15 530.2 769.7 531.3 769.35 532.25 769.1 535.75 766.55 538.65 764.85 540.85 765.55 545.55 767.1 546.15 767.15 548.9 767.45 549.35 766.35
L 549.35 769.55
Q 549.15 771.45 548.2 771.2 545.5 770.45 545.35 770.45 543.9 770.45 542.5 769.9 540.35 769.05 538.95 768.75 536.8 768.2 534.95 769.25 533.85 769.85 531.15 771.65 530.1 772.2 529 773.7 528.3 774.65 525.35 775.15 522.2 775.7 522.5 776.75 522.7 777.4 523.35 779.15 523.15 780.4 524.5 782.25 525.25 783.25 526.55 784.95 527 785.65 529.7 787.5 532.1 789.65 531.75 792.45 531.4 795.05 530.15 794.1 527.45 792.05 525.95 791.85 524.4 791.55 524.05 792.45 523.75 793.35 525 795.05 526.2 796.7 527.65 797.65
L 530.4 799.45
Q 531.25 800.25 531.45 801.95 531.65 803.6 532.65 804.55 533.25 805.15 534.95 806.25 536.15 807.25 537.35 805.35 538.45 803.6 538.45 801.65 538.45 800.15 540.35 800.25 541.75 800.35 543.05 801.05 543.65 801.35 541.3 804 538.85 806.7 539.25 807.15 539.7 807.6 540.7 808.35 540.65 809.05 536.05 810.35 531.65 811.6 532 812.05 532.3 812.45 534.05 813.85 534.5 814.85 537.2 814.85 539.85 814.85 540.15 815.85 540.5 817 539.2 817.25 536.05 817.75 534.95 818.15 532.95 818.9 534.35 824.15 535.85 829.8 534.65 830.85 532.95 832.35 534.25 832.95 534.5 833.05 538.15 833.75 540.2 834.15 539.35 835.45 538.9 836.2 537.25 837.75 536.7 838.35 538.7 839.35 541.05 840.5 541.05 842.05 541.05 843.95 542.25 843.85 542.55 843.8 545.65 842.65 547.55 841.85 546.85 843.3 546.55 843.9 544.75 846.45 543.95 847.55 545.1 848.6 547.05 850.35 547.65 851.65 548.4 853.35 550.3 853.45 552.15 853.5 552.55 854.55 553.05 855.75 555.8 856.35 559.8 857.15 562.05 858.35 565.25 860.05 568.45 859.05 569.6 858.65 574.15 856.05 576.15 854.9 576.3 855.25 576.75 856.2 579.35 856.35 582.7 856.55 582.65 854.85 581.8 852.45 581.35 851.15 580.95 849.95 578 849.45 575.05 848.95 574.45 847.15 573.7 845 578.4 846.75 580.9 847.7 585.15 849.45 586.45 849.75 586.55 849.35 586.9 848.15 588.65 846.85 590.85 845.2 593.55 846.6 595 847.3 596.75 848.85 597.65 849.5 596.75 850.4 595.9 851.2 594.15 851.45 592.95 851.6 591.1 851.45 589.35 851.3 588.65 851.45 587.7 851.65 589.7 853.15 591.2 854.35 593.25 855.45 594.65 856.3 595.65 856.3 596.05 856.3 599.65 855.75 601.65 855.45 601.5 855.3 600.95 854.9 602.25 854.05 603.85 853 605.15 853.7 605.95 854.15 608.05 855.45 610.45 856.55 612 857 614.4 857.65 618.75 858.05 623.35 858.5 623.5 856.1 623.6 853.8 619.95 851.95 616.65 850.3 615.1 849.7 613.75 849.15 611.25 848.45 609.2 847.9 606.1 847.45 602.3 847 600.25 846.75 597.7 846.35 600.3 845.05 601.9 844.25 607.45 841.85 611.2 840.1 613.85 839.55 615.35 839.2 619.55 838.95 623.4 838.7 629.6 840.2 636.05 841.7 633.45 842.75 629.8 844.25 625.35 846.55 623.65 847.45 624.55 848.55 625.45 849.7 628.45 850.35 630.55 850.85 638.85 850.75 647.4 850.7 649.05 850.95 651.15 851.3 653.3 854.2 656.55 858.5 658.85 860.45 663.15 864.05 665.3 865.05 667.75 866.2 673.05 866.85 675.8619140625 867.194921875 677.9 867.75
L 699.25 850.65 754 844.2
Q 746.1142578125 836.7818359375 743.05 836.05 739.55 835.2 735.2 826.75 730.85 818.4 727.75 817.85 724.55 817.25 723.1 812.6 721.55 807.9 718.25 807.15 714.95 806.4 714.35 801.75 713.75 797.05 710.45 796.15 707.15 795.3 701.45 788.25 696 781.45 693.15 781.15 689.2 780.75 687.2 776 685.4 771.9 686.25 768.75 686.95 765.95 683 761.15 678.7 756.05 672.95 753.75 668.8 752.1 664.25 743.4 660 735.25 657.05 734.95
M 459.45 665.35
L 465.45 665.55
Q 471.75 666.05 473.35 667.65 474.65 668.95 475.95 673.45 477.25 678.05 478.55 679.45 480.4 681.7 479.9 683.5 479.35 685.3 476.7 685.85 474.55 686.45 474.45 682.65 474.75 678.05 474.45 676.6 474 674.35 472.55 673.6 471.05 672.85 466.95 672.85 465.55 672.85 461.5 672.95 459.25 673.05 456.15 672.85 452.65 672.7 452.35 670.5 452.7 667.35 452.85 665.35 453.05 662.95 455.65 663.85 457.05 664.35 459.45 665.35
M 547.25 757.2
Q 547.7 758.35 548.8 760.75 549.65 762.85 549.25 764.1 549.05 764.9 549.05 765.1 548.6 763.2 546.05 760.3 544.45 758.4 543.7 757.15 543.2 756.25 542.05 755.1 540.65 753.8 541.8 752.75 543.65 751 543.7 750.85 543.95 750.3 544.5 747.6 545 745.3 545.45 744.8 546.1 744.1 546.3 746.8 546.5 749.45 546.05 751.7 545.65 753.55 546.1 754.7 546.35 755.4 547.25 757.2
M 498.15 815.8
Q 494.35 814.95 493.45 813.6 487.2 804.3 484.7 805.15 483.35 805.75 479.75 805.6
L 476.45 805.3 475.95 807.3
Q 476.1 809.55 479.35 810.8 481.45 811.6 485.35 814.3 488.65 816.6 492.05 817.35 496.9 818.5 499.1 818.55 501.55 818.6 501.55 817.35 501.55 816.55 498.15 815.8
M 493.85 799
Q 493.75 799.05 492.45 799.4 490.5 799.9 485.8 798.5 483.85 797.9 483.55 797.9 483 797.85 483.95 798.6 484.5 799.05 486.35 800.65 488.35 802.15 490.35 802.8 491.85 803.25 492.95 804.75 493.7 805.75 494.95 805.2 496.1 804.65 499.15 804.7 501 804.4 498.45 802 496.25 799.95 494.35 796.85 493 794.65 492.05 794.5 485.05 793.45 488.85 796.5 490.65 797.95 493.3 798.7 493.95 798.9 493.85 799
M 505.7 796.9
Q 503.95 797.05 503.25 796.6 502.4 796 501.9 798.5 501.65 799.8 501.55 801.15 504 802.55 504.7 802.65 506.4 802.8 506.75 799.85 507.05 797.1 505.7 796.9
M 517.1 799.85
Q 518.55 802.4 521.65 806.15 525.6 810.95 526.35 809.3 527.35 807.1 524.45 800.65 521.55 794.15 519.7 796.5
L 517.1 799.85
M 506.9 790.75
Q 504.65 788.15 504.2 789.35 502.9 792.9 505.9 794.4 506.95 794.9 508.05 794.85 509.1 794.85 509.1 794.35 509.1 793.3 506.9 790.75
M 514.85 791.85
L 509.95 787.85 509.05 791.35
Q 509.3 794.35 514.85 791.85
M 458.2 766.15
Q 460.4 766.9 461.15 765.6
L 461.45 764.15
Q 459.8 764.4 458.55 764.75 456.1 765.5 458.2 766.15
M 454.45 756.65
Q 453.3 758.05 454.5 759.95 455.75 762 458.2 761.6 459.45 761.4 459.6 760.05 459.7 758.8 458.95 757.45 456.95 753.8 454.45 756.65
M 412.2 770.6
Q 410.95 771 411.7 772.5 412.5 773.95 414.2 774.35 416.2 774.75 415.3 772.2 414.5 769.75 412.2 770.6
M 420.35 776.65
Q 418.25 776.5 419.2 777.8
L 422.5 780
Q 426.3 782.6 429 784.7 432.55 787.6 434.6 787.85 436.9 788.15 435.4 784.7 433.85 781.25 425.5 778.05 422.25 776.75 420.35 776.65
M 413.7 739.55
Q 412.2 740.3 413.55 741.1 414.75 741.75 416.2 740.1 417.6 738.55 418.95 739.65 420.25 740.8 422 743.05 423.1 743.85 422.95 739.65 422.85 738.6 421.65 737.3 420.35 735.85 418.95 735.85 417.1 735.85 416.35 736.15 415.3 736.55 415.55 737.8 415.65 738.6 413.7 739.55
M 393.3 715.4
Q 390.55 713.5 388.95 712.35 386.65 710.7 385.1 707.65 383.7 704.85 383.7 702.6 383.7 700.9 382 700.35 379.8 699.9 378.7 699.3 377.4 698.55 377.15 702.15 377.05 703.9 377.2 705.85 380.4 710.4 387.3 715.45 394.2 720.5 394.7 718.65 395.2 717 393.3 715.4
M 346.1 676.6
Q 342.7 677 346.9 679.9 351.05 682.85 353.5 682.35 355.5 682 351 679.25
L 346.1 676.6
M 338.7 688.7
Q 338.8 688.75 343.5 690.55 347.55 692.1 348.4 693.3 349.55 694.95 354 699.45 358.7 704.2 360.5 705.4 362.5 706.7 367.35 714.65 372.25 722.65 374.4 728.2 376.15 732.65 386.35 743.1 396.1 753.1 396.1 753.3
L 397.9 755.15
Q 400 756.95 401.6 757 402.95 756.7 400 752.15 397.2 747.85 398.4 748 400.1 748.2 402.25 751.8 403.7 754.35 405 757.8 405.7 759.7 407.4 760.15 409.95 760.85 410.2 761 411.25 761.7 409.75 762.95 408.9 763.65 406.7 765.3 405.2 766.8 408.3 767.85 411.45 768.9 414.2 766.7 416.65 764.8 417.35 766.7 417.75 767.8 418.5 770.5 421.3 774.4 426.6 776.9 429.05 778.05 432.1 779.75 435.1 781.45 435.85 781.8 437.75 782.65 441.25 785.1 445.3 787.95 446.85 789.9 448.15 791.55 447.6 792.3 446.75 793.45 446.85 793.9 446.95 794.6 448.6 795.35 450.45 796.15 451.1 797.9 451.6 799.3 451.45 801.35 451.4 802 452.5 801.1 453.85 799.95 454.75 800.75 455.3 801.25 456.3 802.8 457.3 804.05 458.95 802.55 460.6 801.1 458.6 799.3 457.45 798.25 454.2 796.85 451.85 795.85 451.7 794.4 451.85 792.15 451.85 791.3 451.8 789.85 450 788.6 446.2 785.4 443.15 783.1 437.45 778.8 432.5 777 427.75 775.25 425.55 770.9 423.75 766.2 422.3 764.6 418.4 761.75 416.5 760.35 413.05 757.8 413.9 755.4 414.75 752.85 417.7 755.2 419.65 756.75 426.3 762.6 431.4 766.6 432.3 766.55 432.85 766.55 431.8 764.9 430.7 763.15 429.15 760.25 427 756.1 425.7 752.5 425 750.6 424.6 750.45 424.3 750.35 423.8 751.25 422.45 754 420.8 753.7 419.15 753.4 417.2 750.95 415.55 748.85 414.2 749.3 413.2 749.6 411.35 751.85 409.75 753.75 407.8 753.6 405.85 753.45 406.05 749.65 406.3 744.35 405.8 742.9 405.05 740.7 404.9 738.9 404.8 737.4 404.4 736.5 403.7 734.95 402 735.1 400.25 735.2 400.9 737.1 401.6 739.05 401.6 740.95 401.6 742.85 400.9 742.6 400.15 742.35 396.1 738.7 391.85 734.85 389.6 732.2 387.1 728.7 386.1 727.4 384.4 725.25 382.1 724.7 379.25 724.1 378 722.85 376.6 721.5 374.9 717.5 373.6 714.45 375.35 715.5 378.05 717.15 378.6 716.6 379.5 715.55 378.2 713.65 377.05 711.9 374.9 710.5 373.45 709.55 372.95 712.65 372.65 714.15 372.6 714.3 372.4 714.75 372 713.7 367.9 702.8 366.2 699.8 365.05 697.8 363.35 697.05 358.7 695 356.4 693.7 352.25 691.35 352.2 689.85 352.15 688.8 350.3 688.2 347.7 687.3 346.35 684.8 345.35 682.25 344.9 681.8 341.05 677.45 338.7 676.9 337.55 676.6 338.7 679.65 340 683.05 338.7 683.5 337.4 683.9 334.7 682.2 331.75 680.3 330.2 680.3 328.15 680.3 332.75 684.15 335.65 686.6 338.7 688.7
M 337.2 622.6
Q 337.5 624.2 338.75 623.95 340 623.75 340.1 622.6 340.35 621.25 338.5 620.45 336.75 619.7 337.2 622.6
M 334.5 596.65
Q 337.5 601.1 339.35 599.3 341.2 597.55 339.55 594.25 338.25 591.75 335.9 593.5 333.5 595.25 334.5 596.65
M 352.1 610.45
Q 351 609.6 349 606.95 347.35 604.8 346.1 604.35 341.85 602.8 342.15 604.5 342.35 605.9 345.65 609.05 348.7 612 352.2 614.4 355.9 616.95 357.35 616.85 359.9 616.65 357.2 614.3 353.4 611.45 352.1 610.45
M 311.9 647.1
Q 310.75 646.05 308.85 646.05 307.2 646.05 306.8 646.5 306.55 646.75 306.2 647.45 305.4 648.45 308.8 649.4 312.15 650.3 312.65 649.25 313.05 648.1 311.9 647.1
M 315.1 653.75
Q 314.6 654.75 317.8 654.05 321.1 653.35 322.7 651.75 324.3 650.15 325.8 654.8 327.25 659.3 326.7 662.45 326.35 664.9 328.25 666.7 329.3 667.7 331.35 668.85 333.7 670.65 333.1 668.35 331.85 664.7 331.5 662.75 331.1 660.4 333.25 661.95 334.4 662.8 337.1 665.65 338.8 667.45 341.45 668 344.15 668.55 344.8 667.1 346.45 663.4 342 662.15 339.55 661.5 334.55 657.55 329.7 653.75 328.1 651.45 326.9 649.7 322.75 647.95 318.55 646.45 317.9 646.05 317.2 645.6 316.3 649.15 315.25 653.5 315.1 653.75
M 296 636.15
Q 290.75 631.55 288 629.85
L 286.5 630.05
Q 285.75 630.9 289.7 634.15 292.9 636.75 297 640.55 299.75 642.9 300.9 642.25 302.1 641.5 296 636.15
M 323.2 613.65
Q 317.95 611.9 318.8 617.1 319.05 618.55 319.65 621.65 319.95 624.2 318.9 625.15 317 627.05 319.15 627.85 323.7 629.55 324.4 630.05 326.6 631.7 328.45 631.05 329.4 630.7 329.9 630.05 330.05 629 329.55 627.5 328.65 624.55 325.7 622.55 323.05 620.75 324.9 619.75 327.85 618.15 328.1 616.75 328.5 614.55 325.9 613.9
L 323.2 613.65
M 309.35 615.65
Q 309.2 613.1 306.85 614.05 302.85 615.65 302.7 615.65 298.85 615.65 301.25 618.3 304.85 622.25 304.9 622.6 305.2 624.75 307.1 627.25 309.45 630.35 312.7 631.3 316.05 632.35 314.55 628.95 313.05 625.65 310.7 624.35 309.15 623.45 309.2 621.05 309.5 617.8 309.35 615.65
M 315.85 539.05
Q 313.15 538.75 322.45 553.75 323.95 556.05 333.45 567.65 337.3 572.4 337.8 573.15 339.9 576.2 339.6 578.15 339.3 580.05 341.65 581.25 343.5 582.2 344.7 582.05 344.9037109375 582.02734375 345.6 581.85 345.26796875 582.1244140625 345.1 582.5 344.4 584.05 345.85 585.7 347.95 588.5 346.1 593.8 345.3 596.45 347.1 597.6 348.35 598.45 353.35 600.35 357 602 357.65 602.35 358.25 602.75 360.85 604.35 363.95 606.2 365.55 608.35 366.95 610.25 368.05 613.65 369.15 616.85 370.1 617.7 370.9 618.35 374.45 619.45 376.85 620.2 377.75 619.75 378.95 619.15 381.2 619.45 384.75 619.95 385 622.65 385.25 625.35 382.2 626.65 379.7 627.7 380.65 631.4 381.1 633.35 382.2 635.85 383.15 640.8 387.75 643.2 390.2 644.5 393.75 645.6 395.3 646.7 396.3 645.05 397.3 643.45 395.15 643 393.4 642.65 391.55 640.55 388.25 636.9 387.95 636.6 385.75 634.6 388.3 635.95 390.9 637.3 392.85 639.2 394.7 641.05 398.85 640.95 402.65 640.8 405.85 639.2 408.15 638.05 405.3 635.95 401.45 633.05 401.2 632 400.9 630.5 403.7 632.4 407.85 635.3 409.6 635.8 412.1 636.55 412.3 635.9 412.1 634.85 412.2 634.4 412.45 633.85 410.2 631.25 408.55 629.3 406.45 627.2 404.95 625.7 402.4 624.55 399.8 623.4 397.2 623.2 395.2 623 394.45 621.25 393.9 619 393.2 618 392.55 617.05 390.95 613.85 389.25 610.55 388 608.6 386.6 606.4 381.65 603.05 376.45 599.75 375.3 598.9 373.8 597.85 373.05 599.8 372.55 601 371.5 604.4 370.55 606.45 367.85 602.75 364.55 597.5 363.1 595.2 360.4 590.25 358.55 587.85 355.35 583.65 350.7 582.1 348.8140625 581.5044921875 347.55 581.45 347.7412109375 581.3984375 347.95 581.35 350.8 580.75 352.2 580.75 353.45 580.75 355.9 582.75 358.85 585.1 360.3 585.65 362.2 586.4 363.8 588.35 364.75 589.55 366.9 592.35 368.3 593.9 371.65 594.85 375 595.85 375.9 596.85 377.2 598.3 377.3 595.45
L 377.1 592.35 371 585.65
Q 364.9 583.35 363.2 582.05 362.05 581.15 361 579.95 360.4 579.3 358.3 576.65 357.1 575.1 356.95 572.95 356.8 571.1 356 570.55 355.45 570.2 353.65 568 352.05 566.1 350.2 565.25 348.95 564.65 348.75 563 348.55 561.45 345.35 560.15 341.45 558.6 340.95 560.15 340.7 560.9 341.55 565.25 342.1 568.25 340.2 567.55 338.35 566.8 338.05 565.25 337.9 564.4 335.75 562.05 333.6 559.6 333.45 558.95 333.15 557.55 325.6 548.6 317.75 539.25 315.85 539.05 Z"/>
</g>

<g id="Layer1_2_MEMBER_0_FILL">
<path  stroke="none" d="
M 331.3 497.5
Q 329.25 497.05 327.65 501 327.3 501.85 328.55 504.25 329.8 506.7 330.85 506.35 331.85 506 333.15 502.35 334.45 498.65 333.7 498.75 332.4 497.75 331.3 497.5
M 284.55 606.1
Q 286.75 605.55 283.85 603.4 280.9 601.25 279.65 601.8 277.9 602.5 277.3 603.75 276.65 605.1 277.95 606.1 279.1 607.05 280.75 606.95 281.8 606.9 284.55 606.1
M 138.2 481.9
Q 137.9 481.35 134.55 479.35 132.65 478.15 131.15 476.65 130.2 475.7 129.35 475.55 128.05 475.35 128.95 478.1 129.8 480.85 131.35 482.15 132.6 483.2 132.1 485.4 131.85 486.5 131.35 487.35 131.35 490.65 133.05 489.1 135.45 486.25 136.85 484.85 138.85 482.85 138.2 481.9
M 283 545.75
L 283 547.6
Q 283.4 549.45 285.4 549.25 287.7 548.95 286.5 547.5 285.3 546.05 283 545.75
M 317.15 499.1
Q 316.25 498.2 314.55 498.8 312.55 499.45 311.65 502 310.95 503.9 310.55 503.45 309.4 502 307.15 502 304.75 502 307.45 504.9 311.35 509.05 311.65 511 311.95 513.15 311.65 512.6 310.8 511 309.95 511 309.1 511 308.9 511.95 308.6 513.55 307.65 514.8 306.4 516.4 304.3 514.9
L 302.45 513.1
Q 298.45 517.65 304.55 520.75 309.4 523.2 314.25 523 315.6 523 318.2 522.8 319.6 522.65 320.95 523 322.25 523.35 323 525.9 323.95 529.25 324.95 530.5 326.15 531.95 328.65 535.8 331.15 539.3 333.95 540.9 336.75 542.5 337.4 541.7 338 540.2 339.15 539.5 340.75 538.45 336.65 531.15 332.75 524.2 330.45 522.4 327.95 520.45 323.15 514.95 317.75 508.8 317.75 507 317.75 505.5 318.45 504.7 319.15 503.95 319.15 503.4 319.15 502.45 318.45 501.05 317.85 499.85 317.15 499.1
M 229.85 587.35
L 231.5 590.75
Q 233.45 593.65 235 591.15 236.75 588.25 233.4 586.2 232.1 585.45 231.05 585.65 229.9 585.9 229.85 587.35
M 234.6 565.8
Q 232.6 564.3 232.85 567.2 233.1 570.7 235.65 572.4 238.1 574.05 236.85 568.6 236.45 567.15 234.6 565.8
M 235.15 516.85
Q 234 516.7 233.15 519.3 232.25 521.95 233.75 522.35 235.4 522.8 236.6 520 237.8 517.2 235.15 516.85
M 231 542.15
Q 230.65 540.85 228.55 542.45 227.25 543.4 223.85 546.25 221.9 547.7 222 549.65 222.15 552.25 221.5 553.5 220.4 555.65 220.5 557.05 220.6 558 221.5 559.25 223.75 562.6 227.25 563.05 230.7 563.5 229.85 561.15 229.75 560.85 227.7 557.1 226.2 554.35 226.15 551.95 226.05 549.5 227.25 548.9 228.9 548.55 229.85 547.95 231.15 547.2 231.35 545.45 231.55 543.95 231 542.15
M 319.1 492
L 316.95 490.6
Q 312.55 493 316.25 496.2 319.75 499.2 322.15 498.8 323.5 498.45 323.35 497.7 323.3 497.4 322.15 495.2 321.4 493.75 319.1 492
M 270.35 545.7
Q 270.2 545.2 269.85 545.5 269.45 545.85 269.9 546.75 270.5 546.15 270.35 545.7
M 246.7 442.25
Q 244.9 438.85 245.2 434.65 245.95 429.9 246.1 427.25 246.55 422.85 246.65 421.45 246.85 419.35 246.1 418.25 245.25 417.1 242.3 416.4 239.6 415.75 237.7 416 236.25 416.15 234.15 420.7 233.05 423.15 231.35 427.25 229.35 431.3 230.15 432.55 230.75 433.5 233.85 436.05 236.3 438.95 237.8 440.4 239.4 441.95 241.95 443.85 245 446.1 245.6 447.65 246.45 449.85 244.85 454.25 243.35 458.3 243.6 459.3 243.8 460 245.15 461.75 245.25 462 249.1 466.3 251.8 469.3 251.25 471.85 250.75 474.25 251.9 476.9 253.25 479.95 253.25 481.35 253.25 486.2 246.65 485.15 244.55 484.8 240.8 480.05 236.85 474.95 235.65 474.45 233.85 473.7 233.7 475.95 233.6 477.35 233.65 481.35 233.45 483.8 235 486.45 235.9 488 238.25 491.75 239.35 493.85 240.2 498.5 241.05 503.3 242.55 506.45 244.15 509.75 244.75 510 245.1 510.15 245.45 511.45 246.2 514.05 247.75 520.15 248.2 522.05 249.55 526 251.15 530.7 251.75 532.85 252.65 536 251.45 537.1 250.7 537.8 247.95 538.95 246.3 539.95 244.15 537.7 241.65 535.15 241.35 535.15 240.4 535.15 240.55 537.55 240.6 538.95 241.05 542.35 241.5 549.45 245.05 553.65 247.6 556.6 248.4 558.35 249.3 560.45 248.85 563.15 248.5 565.2 247.55 567 246.25 569.4 245.65 571.25 244.7 573.95 245.8 574.55 246.6 575 249.65 576.15 251.5 577.25 253.25 575.55 255.15 573.6 256.25 573.85 257.55 574.15 257.35 574.7 256.75 576.3 257.25 578.75 257.85 581.65 259.55 582.75 263.4 585.35 264.05 585.95 266.05 587.85 268.15 589.55 269.25 590.6 269.25 592.05 269.25 594.85 274.15 596.75 275.6 597.3 277 595.85 278.3 594 278.75 593.55 280.4 592.4 281.05 591.7 282.35 590.4 280.15 590.05 278 589.9 277.55 589.8 277.2 589.75 274.95 588.65 273.15 587.7 271 585.45 267.9 582.15 264.85 579.65 261.05 576.6 259.45 573.35 257.5 569.65 257.15 569.25 255.5 567.5 253.4 560.75 251.35 553.95 251.55 550.75 251.75 548 252.65 546.2
L 253.55 544.95 254.9 547.6
Q 256.7 550.9 259.05 554.15 263.15 559.75 264.4 561.05 267.25 563.95 269.75 563.35 273.65 562.4 279.55 557.55 280.6 556.75 278.7 555.2 273.85 551.25 272.35 549.75 270.45 547.85 269.9 546.75 269.8 546.8 269.75 546.85 268.7 547.85 267.25 543.2 265.3 537 262.55 534.75 259.55 532.3 262.4 530.95 266.4 529.05 266.55 528.25 266.85 526.55 265.5 523.45 263.6 519.75 262.75 517.75 261.9 515.7 263.7 515.7 265.95 515.6 265.95 513.75 265.95 512.45 263.45 504.25 261 496.4 261.35 492.65 261.65 489.55 262.5 487.5 262.9 486.55 262.25 484.85 261.55 482.85 262.6 480.55 264.3 477.4 265.45 474.75 266.9 471.45 267.7 470.5 268.6 469.65 269.45 468.65 270.5 467.45 272.3 468.45 273.35 469.05 275.85 470.65 278.3 471.8 278.65 471.85 279.85 472 282.2 470.65 284.7 469.15 280.6 466.3 276.5 463.45 274.4 464.55 271.85 466.3 270.65 466.8 268.6 467.7 267.5 466.25 266.55 465 265.1 465.4 261.95 466.25 259.4 466.25 255.7 466.25 251.85 456.3 248.15 445 246.7 442.25
M 144.15 343.45
Q 143.9 341.1 142.35 340.35 139.6 339 134.6 339.2 129.3 339.4 125.55 341.25 121.15 343.45 121.1 343.45 120.3 343.65 117.45 342.45 112.3 339.3 109.15 337.55 103.4 334.35 101.25 336.05 99.1 337.85 94.8 334.45 90.35 330.25 89.15 329.45 87.05 328.1 86.05 330.2 85.55 331.3 85.15 333.25 85 333.45 83.95 334.1 83.15 334.55 83.15 335.55 83.15 335.7 86.05 340.5 88.75 344.95 88.05 348.25 87.45 351 87.75 350.85 88.65 350.4 89.25 352.55 89.75 354.4 90.75 356.25 91.4 357.45 91.55 359.45 91.7 361.35 92.05 361.7 93.15 362.65 94.75 365.85 96.7 369.75 96.25 371.35 96 372.3 95.35 374.25 95.35 376.15 95.95 377.25 96.1 377.55 97.35 379.15 97.9 379.8 101.75 379.6 105.3 379.4 105.45 380.35 105.65 381.45 103.4 382.45 101.55 383.25 100.25 383.25 99.9 383.25 101.65 385.35 103.6 387.65 102.25 388.15 100.8 388.7 100.55 390.95 100.4 392.05 100.55 393.05
L 102.5 395.45
Q 104.45 398.15 104.55 399.45 104.7 401.1 104.5 402.15 104.2 403.25 103.35 404.05 102.5 404.9 102.1 405.6 101.8 406.15 101.05 407.85 100.6 408.85 102.45 411.9 104.55 415.3 104.55 416.85 104.55 421.75 104.85 422.65 105.05 423.3 109.35 424.15 113.55 424.95 116.45 424.95 120.25 424.95 126.85 424.65 128.1 424.65 129.05 425.8 129.55 426.4 129.75 426.95
L 122.85 426.95
Q 121.45 427.25 119.35 427.25 118.05 427.25 116.3 427.65 114.15 428.15 112.75 428.45 110.95 428.85 108.45 430.6 107.25 431.45 106.35 432.25
L 107.25 433.45
Q 107.35 433.6 108.85 434.95 110.05 436.05 111.25 438.05 112.45 440.1 111.4 440.6 110.8 440.85 109.85 441.25 109.55 442.2 110.15 443.25 110.95 444.55 113.05 444.75 114.75 444.9 116.7 445.5 118.6 446.05 119.65 446.15 121.05 446.35 120.4 447.8 120 448.75 118.75 451.65 118.2 453.55 119.75 453.95 123.5 455.05 124.25 455.45 126.15 456.45 125.95 456.45 125.25 456.45 126.25 457.45 127.25 458.45 128.85 460.65 130.9 463.1 134.95 466.45 138.95 469.8 139.15 472.1 139.2 472.55 139.05 473.55 138.95 474.2 139.25 474.55 140.5 475.8 141.7 479.1 143.1 483 142.15 484.95 141.3 486.65 140.85 486.75 140.25 486.85 140.15 486.95 139.7 487.6 140.65 488.5 141.6 489.4 144.15 490.75 145.9 491.6 147.15 492.2 147.6 492.45 148.15 493.05 148.8 493.7 147.9 495 147.05 496.25 146.15 496.25 145.75 496.25 143.2 495.1 141.1 494.15 140.95 494.85 140.8 495.45 143.9 497.6 147.05 499.8 147.05 500.35 147.05 500.9 148.2 501.6 149.35 502.35 149.35 503.25 149.35 504.15 150.45 505.1 152 506.5 152.85 507.85 153.9 509.6 155.3 510.55 156.1 511.1 157.75 512.15 158.75 513 159.1 514.4 159.75 517.3 159.75 517.35 160.35 518.95 162.2 520.2 163.85 521.35 164.65 521.15 165.5 520.85 164.95 517.5 164.3 513.85 162.35 511.95 160.3 509.9 160.2 508.4 160.05 506.9 161.45 507.65 162.3 508.1 165.2 509.95 167.9 511.55 168.95 511.45 170.25 511.25 171.5 511.55 172.8 511.9 175.55 513.15 178.2 514.35 179.35 513.5 180.35 512.75 179.85 510.85 179.55 509.7 177.65 507.2 175.85 504.95 175.85 504.25 175.85 503.95 176.95 500.95 178.05 498.1 177.85 495.85 177.7 493.7 176.3 491.95 174.95 490.25 174.95 489.75 174.95 488.75 176.8 487.9 178.55 487.1 181.05 486.85 183.2 486.65 184.15 484.6 184.85 483.1 184.85 481.05 184.85 479.55 186.5 476.05 188.15 472.55 189.45 471.25 190.4 470.3 191.95 472.05 193.8 474.15 194.65 474.15 196.1 474.15 196.25 472.15 196.35 470.2 195.25 469.55 191.85 467.35 191.45 465.75 191.3 465.2 189.7 463.3 187.75 461.05 186.85 459.35 185.8 457.35 185.75 456.8 185.95 455.9 185.95 454.45 185.95 452.65 187.25 452.2 187.9 452 188.55 452.15
L 189.45 454.15
Q 190.6 456.4 192.05 457.65 193.2 458.65 193.5 461.6 193.8 464.6 194.95 465.75 196.75 467.55 198.75 468.95 201 470.5 204.75 472.35 207.8 473.85 208.25 472.35 209.5 468.15 210.25 467.15 213.7 462.5 208.55 450.95 207.5 448.55 208 446.3 208.85 443.85 209.15 442.55 209.5 441 211.55 438.6 213.75 436.2 214.35 435.35 215.85 433.55 216.75 432.3 218.5 429.9 219.55 427.25 223.95 416.1 225.05 407.05 225.6 402.35 228.7 392.95 232.15 382.9 233.15 379.85 234.6 375.45 237.45 372.75 240.1 370.2 242.15 370.85 242.55 371 249.1 373.5 255.2 375.85 259.45 377.25 262.9 378.35 266.35 378.65 268.1 378.8 268.65 379.85 269.55 381.35 271.9 383.75 274.15 386.15 276.15 387.65 277.95 389.05 278.65 388.2 279 387.7 280.45 383.35 281.55 380 283.05 384.85 284.5 389.55 284.25 391.15 284.1 391.85 284.5 393.15 285.05 395.05 285.15 395.75 285.35 397.1 284.15 397.95 283.2 398.65 282.25 398.65 281.5 398.65 280.75 401.2 279.85 404.05 279.65 408.45 279.35 415.15 277.95 420.25 277.8 420.85 277.5 423.45 276.85 426.4 275.05 429.45 273.45 432.2 271.55 430.75 268.8 428.6 267.25 428.85 265.25 429.15 265 430.05 264.2 432.75 261.15 436.65 257.5 441.35 258.7 442 259.05 442.2 260.05 442.35 260.85 442.55 260.85 443.25 260.85 444.95 266.65 449.7 272.4 454.4 276.15 455.95 279.9 457.5 281.9 457.4 284.05 457.25 285.95 455.35 287.85 453.45 289.95 454.15 291.85 454.75 294.35 457.65 296.15 459.8 295.05 461.9 293.75 464.4 294.05 465.45 294.6 467.2 295.95 467.9 300.5 470.25 300.65 470.35 302.85 471.75 304.65 472.35 305.65 472.65 306.75 473.85 308.65 476.05 311.15 477.1 314.45 478.5 317.75 477.35 320.65 476.35 320.95 478.85 321.35 482.9 321.55 483.15 322.4 484.35 323.1 484.6 323.55 484.75 324.75 485.15 325.45 485.6 328.25 487.35 331.25 489.25 333.95 491.25 336.5 493.15 335.55 490.2 333.95 485.1 333.95 484.65 333.95 482.8 330.8 481.4 326.85 480.05 325.25 479.45 322.85 478.55 320.95 476.35 319.1 474.15 318.85 471.95 318.65 470.1 320.35 470 321.4 469.95 324.05 470.25 326.25 470.25 327.2 470.05 328.6 469.75 330.95 468.55 333.05 467.5 331.6 465.4 329.5 463.05 329.25 462.15 328.55 460.15 322.85 456.05 320.85 454.6 320.1 451.4 319.5 447.4 319.05 445.35 318.45 442.8 315.75 442.35 311.7 442.3 308.95 442.15 305.3 441.95 303.85 438.8 302.85 436.6 302.85 432.65 302.85 430.65 304.4 427.85 305.9 425.15 305.75 423.45 305.55 421.2 302.45 420.25 298.25 419.4 295.95 418.85 292.9 418.05 292.25 417.1 292.15 416.9 291.65 414.25 291.5 413.7 289.45 408.6 287.65 404.15 287.35 401.25 287 398.5 289.8 401.25 293.8 405.25 294.85 405.55 296.15 405.95 306 414.4 316.3 423.25 319.75 424.95 322.5 426.3 327.1 429.1 330.9 431.35 334.15 432.75 338.2 434.45 340.25 440.75 341.6 444.8 342.25 451.55 342.65 455.65 344.55 461.2 345.7 464.45 348.35 471.25 350.4 476.7 349.9 481.1 349.35 486.15 345.15 494.65 341.75 501.55 342.5 512.35 342.7 515.3 343.25 521.3 343.6 526.55 343.15 530.45 342.8126953125 533.4484375 342.9 535.85
L 363 528.4 353.3 438.05 281.5 367.05 237.15 358.15 233.45 335.35
Q 228.75 335.85 228 335.65 227.35 335.5 227.35 332.75 227.35 329.95 226.15 329.65 225.35 329.45 221.25 330.45 218.45 331.15 218 334.4 217.9 335.15 217.8 336.25 217.6 336.95 216.95 336.65 215.75 336.05 213.45 336.2 206.55 336.65 206.25 336.65 200.9 336.8 195.25 334.15 189.35 331.35 185.75 326.65 182.6 322.5 181.65 322.95 180.9 323.3 178.25 326.65 176.9 327.8 175.05 329.1 174.7 329.35 174.25 330.65 173.7 332 174.7 332.85 178.75 336.35 179.45 337.05 182.55 340.15 180.1 341.35 176 342.25 173.95 342.85 171.95 343.45 169.5 343.45 167 343.45 164.95 344.05 162.3 344.85 160.8 346.4 160.2 347 158.55 349.55 157.65 351.05 154.35 350 153.45 349.7 147.25 346.95 144.45 345.7 144.15 343.45 Z"/>
</g>

<g id="Layer1_3_MEMBER_0_FILL">
<path  stroke="none" d="
M 482.45 246.3
Q 481.3 245.55 478.65 243.3 477.3 242.05 476.4 242 475.25 242 472.55 243.5 470.35 244.65 469.2 243.9 468.1 243.2 467.65 243.5 466.95 243.95 466.85 244.55 466.5 246.4 465.35 249.3 464.05 252.55 462.85 250.35 460.95 247 459.85 247 458.05 247 456.9 250.4 456.3 252.25 455.55 255.7 455.1 257.05 448.15 258.8 440.6 260.7 439.05 262.05 437.05 263.85 434.1 265.05 430.1 266.4 427.25 267.55 422.5 269.45 420.75 271.25 418.55 273.5 417.75 278.25 417 282.35 419.55 282.2 420.9 282.1 422.95 281.15 423.4 281.15 423.65 282.15 424.05 283.7 424.95 284.95 427.1 287.85 427.35 288.1 428.65 289.25 429.55 287.55 430 286.7 430.2 283.95 430.3 281.65 432.15 279.45 434.2 277 435.45 279.6 435.95 280.7 436.75 284.95 436.95 286 440.2 290.85 442.9 294.9 441.95 296.55 440.95 298.25 439.6 297.55 436.75 296.05 436.15 295.95 434.55 295.65 434.35 296 433.7 297.1 431.25 298.25 428.4 299.6 427.7 299.2 426.85 298.7 426.35 298.85 425.15 299.25 424.85 300.45 424.7 301.35 424.05 304.7 423.35 307 421.85 306.7 420.55 306.45 420.55 307 420.55 308.1 421.75 310.1 422.45 311.25 424.05 313.6 424.9 314.95 425.25 318.75 425.45 320.85 425.75 324.85 426.05 327 428.95 329.25 430.6 330.5 434.15 333 436.25 334.7 435.9 335.8 435.85 335.85 434.15 337.85 433.05 339.2 431.1 340.55 428.95 341.95 426.65 342.75 424.35 343.65 422.25 342.9 420.35 342.25 418.25 340.15 416.6 338.5 414.85 339.55 412.9 341.3 411.85 342.15 410.05 343.35 409.2 343.95 407.75 344.95 406.35 347.05 404.75 349.5 404.65 349.5 403.9 349.05 402.35 348.45 400.55 347.75 399.8 348.85 398.05 351.35 396.55 352.45 394 354.5 391.35 351.8 388.15 347.55 386.15 345.25 382.95 341.3 381.7 339.85 379.7 337.55 377.15 335.75 374.65 333.9 373.35 334.05 371.35 334.6 369.05 334.85 366.4 335.2 364.8 334.3 362.5 333.05 361.55 332.85 360 332.55 356.75 328.65 353.35 324.5 351.15 323.65 348.45 322.6 348.4 324.7 348.35 326 348.85 329.45 348.85 332.5 347.8 335.35 346.45 338.9 343.95 339.85 339.5 341.5 337.1 341.75 332.85 342.15 331.55 339.25 329.25 334.15 329.05 333.8 327.65 331.35 325.15 329.45 322.2 327.2 318.05 324.75 313.75 322.25 312.75 322.25 311.9 322.25 310.25 323.85 309.4 324.65 308.75 325.45 306.95 325.45 307.55 321.05 308.6 315.65 308.75 313.65 308.95 311.15 304.45 308.05 298.8 304.7 296.65 303.25 293.35 301.05 292.75 299.4 292.05 297.65 292.85 293.15 293.75 288.7 290.95 287.35 288.2 286.05 285.95 289.35 284.5 291.5 280.9 296.9 277.45 301.5 274.15 302.95 271.1 304.3 272.1 305.15 274.05 306.9 274.15 307.55 274.4 309.7 271.8 315.3 268.95 321.25 265.75 324.35 262.75 327.2 260.4 327.7 259.45 327.9 256.55 327.55 254.9 327.35 254 329.05 253.5 330 252.75 332.45 252.1 334.1 250.9 334.55 249.95 334.85 245.55 335.35 242.75 335.65 241.75 337.2 240.9 338.55 238.65 338.55 236.55 338.55 236.75 336.85 236.85 335.2 233.45 335.35
L 237.15 358.15 281.5 367.05 353.3 438.05 378.35 416.25 423.5 442.05 444.45 475.95 466.25 492.1 489.65 477.55 506.95 492.7
Q 505.21875 486.9203125 504.15 485.05 502.25 481.7 502.95 479.7 504.3 477.4 504.75 475.25 505.3 472.55 506.65 471.4 507.5 470.7 510.25 468.85 512.45 467.1 512.45 464.6 512.45 462.4 511.15 461.65 510.45 461.2 508.9 456.7 507.1 451.55 505.95 449.85 504.4 447.45 504.6 446.4 504.75 445.7 506.25 444.65 507.45 443.8 507.7 443.2 507.85 442.9 508.55 439.45 509.05 437 511.25 436.25 514.05 435.3 514.65 434.55 515.7 433.15 513.7 429.5 510.9 424.9 509.75 422.45 508.25 419.25 509.45 416.8 509.65 416.35 513.25 411.75 515.2 409.3 517 408.85 518 408.6 519.85 408.25 520.85 407.8 520.7 407.65 520.3 407.1 520.75 405.95 521.3 404.5 522.7 404.85 523.5 405 525.05 405.65
L 517.05 368.6 540.15 331 534.15 307.45 541.5 264 487.9 247.2
Q 487.5103515625 247.346484375 487.05 247.5 485.2 248.05 482.45 246.3 Z"/>
</g>

<g id="Layer1_4_MEMBER_0_FILL">
<path  stroke="none" d="
M 651.75 279.9
L 651.75 274.85 623.75 250.2 603.7 262.75 564.85 250.2 564.85 242.9 556.2 242.9 541.5 264 534.15 307.45 540.15 331 517.05 368.6 525.05 405.65
Q 527.85 406.25 530.85 406.25 532.15 406.25 532.65 405.15 533.2 403.8 534.65 403.35 536.2 402.85 538.2 404.9 540.4 407.15 541.55 407.15 542.9 407.15 545.3 405.55 548.15 403.65 549.95 403.15 552.8 402.25 554.9 406.45 557 410.7 555.75 414.95 555.1 417.15 555.1 417.45 555.1 417.8 555.6 417.6 557.75 416.85 559.75 418.75 561.75 420.65 562.3 421.9 562.65 422.8 564.35 423.95 566.55 425.4 566.5 428.55 566.5 430.35 566.05 434.05 566.05 436.25 568.7 437.6 570.3 438.4 574.45 439.85 578.15 441.45 579.8 442.95 582.15 445.15 581.95 448.25 581.5 455 589.15 455.45 591.3 455.6 593.8 457.55 596.1 459.35 599.55 459.25 601.7 459.15 602 459.65 602.2 459.9 601.8 460.95 601 463.25 605.35 464.15 610.85 465.3 614.1 462.7 616.9 460.45 616.35 457.75 615.95 455.7 617.2 454.05 618.2 452.7 621.25 450.55 623.6 448.95 623.35 446.45 622.55 443.45 622.45 441.85 622.35 440.6 624 439.1 625.3 437.8 624.15 435.25 622.8 432.15 624.75 431.4 625.8 430.95 630.75 430.95 634.3 430.95 636.65 426.6 638.2 423.65 640.55 415.35 642.25 409.4 644.2 407.3 645.4 406.05 648.05 404.65 649.75 403.5 652.05 404.75 654.95 406.35 655.55 406.35 656.65 406.35 658.4 405 660.15 403.6 661.65 403.45 663.55 403.25 667 405.7 669.55 407.5 671.45 409.55 673 411.1 676.4 411.7 680.4 412.4 684.15 410.95 687.9 409.6 688.95 409.65 689.25 409.65 691.35 410.65 692.5 411.25 696.7 413.95 701.15 415.95 705.55 414.15 709.6 412.45 708.5 409.95 707.75 408.7 707.5 408.15 707.05 407.2 707.55 406.65 708 406.2 709.15 406.5 710.1 406.8 712.45 403.75 714.6 400.95 715 400.65 715.3 400.4 716.45 398.85 717.85 397 718.45 396.9 718.95 396.85 719.65 395.65 720.7 393.65 720.85 393.55 721.1 393.35 724.25 391.65 727.2 390.1 727.05 393.3 726.95 396.6 725.15 397.15 723.65 397.6 724.75 399.45 725.8 401.3 728.65 403.25 730.7 404.65 731.35 402.4 732.15 399.3 733.55 398.95 735.4 398.45 734.65 402.8 734.05 406.2 734.45 405.55 735.65 403.55 738.35 402.4 741.2 401.15 740.85 403.55 740.5 405.65 744.8 409.55 747 411.55 749.85 413.95 750.4 414.8 752.45 415.6 755.790625 416.965234375 757.2 417.5
L 763.85 360.4 733.15 346.65 702.45 306.85 672.2 279.9 651.75 279.9 Z"/>
</g>

<g id="Layer1_5_MEMBER_0_FILL">
<path  stroke="none" d="
M 1015 359.45
L 1015 391.1 951.7 391.1 933.35 367.6 933.35 347.2 815.05 299.7 806.3 313.75 742.3 309.45 717.8 326.75 733.15 346.65 763.85 360.4 757.2 417.5 758.25 417.95
Q 760.2 418.8 763.15 420.3 765.35 421.4 768.95 422.85 773.25 424.6 774.95 424.5 776.35 424.45 781.05 423.15 784.75 422.35 784.8 419.2 784.9 415.25 786.25 414.15 788.15 412.55 788.65 413.9 789.5 416.25 790.85 416.75 792.45 417.35 795.15 418.35 796.95 419.25 796.35 420.75 795.65 422.6 799.55 424.35 803.85 426.2 811.65 426.85 817.9 427.35 817.85 424.9 817.6 423.6 817.7 423.1 817.9 422.25 819.45 422.25 822.1 422.25 822 425.9 821.95 429.6 823.45 429.75 825.6 429.95 825.7 430.9 825.75 431.5 825.75 432.95 826.15 433.85 829.85 434.1 831.05 434.15 835.25 434.15 836.5 434.15 837.35 432 838.3 429.45 839.05 428.95 840 428.25 840.8 430.9 841.6 433.65 841.95 433.55 842.3 433.45 843.2 432.55 844 431.7 844.85 431.55 845.65 431.4 846.3 432.3 847.35 433.65 848.05 434.15 849.3 435.05 849.7 434.8 850.05 434.6 852.05 432.15 854.1 429.65 855.6 428.6 857.35 427.4 859.85 426.95 861.95 426.6 867.6 432.05
L 874.85 439.05
Q 876.7 440.35 877.9 440.55 878.7 440.7 880.95 440.75 883 440.95 884.05 442.05 884.8 442.85 886.45 445.95 888.85 450.55 895.65 449.45 897.45 449.1 901.25 446.15 905.65 442.75 906.65 442.25 908.7 441.25 909.05 439.55 909.3 438.1 908.35 435.35 907.55 433.05 909.05 432.6 909.5 432.45 913.25 432.45 915.25 432.45 915.4 431.2 915.85 427.5 916.45 425.85 917.75 422.2 918.7 421.65 919.4 421.2 922.25 420.65 924.3 420 925.6 423.35 926.9 426.7 928.05 426.45 929.35 426.15 929.4 425.9 929.5 425.15 930.95 423.85 932.8 422.2 933.45 423.65 933.85 424.55 934.45 427.35 934.75 428.25 934.4 431.35 934.15 433.6 935.65 434.25 936.85 434.8 938.55 437.75 940.05 440.35 941.45 440.35 942.9 440.35 944.45 439 946.2 437.4 946.95 437.15 948.15 436.8 949.5 437.85 950.3 438.5 952.45 440.35 954.2 441.5 956.45 440.5 957.8 439.95 961.15 437.45 963.3 435.85 963.05 433.8 962.2 430.7 962.05 427.95 961.85 424.7 963.65 424.5 968.25 423.95 968.95 423.65 971.6 422.5 973.1 426.65 974.7 431.15 975.35 431.15 976.05 431.15 978.35 433 980.6 434.8 982.85 434.65 985.95 434.4 992.55 434.6 999.3 434.8 1001.65 435.25 1003.6 435.6 1004.65 437.45 1005.35 438.6 1007.45 442.15 1009.3 444.7 1011.85 445.7 1013.35 446.3 1016.45 447.05 1018.6 447.85 1020.5 446.6 1021.6 445.9 1023.65 443.55 1024.7 442.35 1024.05 440.3 1023.4 438.45 1024.25 438.05 1025.2 437.55 1027.2 440 1029.3 442.65 1029.75 442.65 1030.4 442.65 1030.45 440.05 1030.55 437.45 1030.95 437.45 1031.85 437.45 1034.15 439.45
L 1036.15 438.05
Q 1038.4 436.5 1039.65 435.95 1041.2 435.25 1040.7 437.7 1040.2 440.1 1038.45 440.55 1036.9 440.95 1036.9 442.35 1036.85 442.6 1037.25 444.35 1037.5 445.1 1040.25 445.2 1043.1 445.35 1043.85 444.35 1044.05 444.1 1044.65 440.25 1045.1 437.1 1047.35 436.55 1049.85 435.95 1049.25 438.7 1048.75 440.95 1047.35 442.65 1046.55 443.6 1047.1 445.55 1047.55 447 1049.05 449.55 1049.8 450.85 1053.05 452.55 1056.55 454.4 1058.55 457.05 1060.75 459.85 1059.95 460.5 1058.85 461.4 1059.15 462.25 1059.7 463.8 1061 463.05 1064.5 461.1 1065.25 460.85 1068.25 459.8 1069.75 462.6 1071.2 465.4 1068.45 466.95 1066.35 468.05 1067.95 469.8 1070.95 473 1071.65 475.05 1072.55 477.85 1068.45 477.4 1063 476.8 1061.55 478.25 1059.35 480.45 1068.55 489.6 1077.3 498.3 1081.25 499.65 1084.25 500.65 1095.45 500.5 1105.9 500.4 1110.75 499.65 1114.3 499.1 1112.05 495.1 1108.4 490 1107.25 487.55 1105.8 484.5 1107.25 484.05 1108.1 483.8 1110.45 483.75 1111.5 483.45 1115.2 485.85 1119.75 488.85 1121.75 489.55 1124.5 490.45 1125.25 488.9 1125.8 486.25 1126.35 484.35 1127.2 481.7 1128.75 480.2 1130.05 478.95 1132.45 477.95 1134.5 477.1 1135.5 475.3 1136.4 473.7 1136.25 471.85 1135.85 468.9 1135.1 467.8 1133.65 465.8 1130.45 467.85 1127.2 469.95 1124.4 468.6 1122.4 467.65 1120.95 465.25 1120.2 464.05 1123.05 461.15 1126.5 457.6 1127.05 455.75 1127.95 452.8 1128 451.25 1128.05 449.8 1127.35 448.25 1126.65 446.7 1126.7 444 1126.8 441.25 1127.65 440.15 1128.5 439.2 1127.15 436.5 1125.9 434.05 1124.15 432.35 1122.7 430.9 1123.45 428.3 1124.1 425.8 1126.15 424.25 1127.75 423.05 1129.95 424.9 1131.15 425.95 1133.05 427.75 1134.2 428.35 1137.05 426.15 1139.3 424.4 1141.75 421.65 1143.5 419.7 1143.8 417.55 1144 416.05 1143.45 414.15 1142.5 412.45 1142.2 411.9 1141.75 411 1143.15 410.65 1144.3 410.35 1148.1 412.95 1152.3 415.85 1154.15 416.15 1156.65 416.55 1157.35 416.85 1157.95 417.1 1159.65 418.15 1163.2 420.05 1161.05 412.95 1160.2 410.2 1161.2 409.7 1161.7 409.45 1165.95 409.45 1168.8 409.45 1168.85 410.1 1169 412.05 1169.45 412.65 1169.95 413.4 1170.5 415.65 1170.8 416.9 1172.65 417.55 1174.55 418.25 1174.8 418.75 1175.15 419.4 1175.25 419.45 1177.35 420.65 1179.85 418.15 1181.1 416.9 1182.7 417.4 1183.7 417.75 1186.25 419.05 1188.15 419.85 1189.05 419.2 1189.65 418.8 1191.15 416.75 1191.6 414.9 1189.95 410.35 1187.95 405.25 1187.35 403.25 1186.55 400.55 1182.55 400.2 1181.2 400.05 1170 400.35 1163.2 400.55 1155.85 397.55 1142 391.95 1138.5 390.85 1128.65 387.85 1126.55 382.75 1126 381.45 1125.55 378.45 1125.1 375.75 1124.35 374.35 1122.45 371 1120.65 370.8 1116.95 371.15 1112.5 371.15 1106.9 371.15 1104.85 367.75 1103.4 363.6 1102.4 362.15 1101.1 360.25 1103.85 359.25 1105.3 358.75 1109.6 358.15 1112.05 357.75 1112.7 356.85 1113.15 356.15 1114.2 353.55 1115.2 351.75 1111.25 348.75 1105.9 344.7 1105.2 343.65 1102.6 339.75 1107.5 332.65 1108.55 331.1 1110.85 332.9 1114.05 335.4 1116.2 335.55 1120 335.8 1121.65 335
L 1074.25 313.5 1015 359.45 Z"/>
</g>

<g id="Layer1_6_MEMBER_0_FILL">
<path  stroke="none" d="
M 1088.1 222.25
Q 1088.45 220.65 1087 220.85 1086.3 220.95 1083.95 223.25 1081.75 225.3 1078.9 225.15 1074.95 224.3 1073.75 224.3 1072.05 224.35 1070.8 228.05 1069.45 231.95 1068.3 232.15 1067.6 232.3 1066.5 230.65 1065.9 229.8 1064.45 229.4 1062 228.7 1059.6 227.45 1055.6 225.35 1050.85 224.25 1045.65 223.05 1044 224.25 1043.1 224.9 1042.2 227.15 1041.1 229.75 1038.2 232.65 1035.6 235.25 1036 235.7 1037.2 237 1036.2 241.35 1035.05 246.35 1030.45 248.7 1023.25 252.35 1021.2 254.35 1017.25 258.2 1016.25 257.05 1015.8 256.2 1015.55 255.75 1015.1 254.95 1014.3 254.95 1012.4 254.95 1011.9 255.65 1011.4 256.3 1011.4 258.75 1011.4 260.6 1009.6 261.3 1006.9 262.35 1006.5 262.75 1004.95 264.75 1003.7 265.7 1001.5 267.35 997.8 267.35 994.75 267.35 993.15 264.9 991.55 262.45 989.4 262.45 986.75 262.45 985.65 263.4 984.2 264.6 983.6 264.75 982.25 265.1 978.85 264.6 972.2 263.6 971.8 263.55 969.05 263.25 963.95 260.3 959.1 257.45 956.8 257.45 954.5 257.45 953.85 258.7 953.2 259.9 951 259.75 948.9 259.6 948.65 257.5 948.45 255.85 946.1 256.55 945.3 256.8 941.05 258.85 938.4 260.15 934.3 260.35 930.35 260.5 926.4 257.85 922.15 254.95 921 254.85 919.35 254.7 915.9 255.45 912.05 256.25 908.9 256.25 906.95 256.25 903.1 254.7 901.4 254.05 899.9 256.85 898.2 260.1 895.7 258.9 894.15 258.15 891.5 254.85 889.85 251.95 889.1 251.1 887.95 249.75 884.3 249.95 882.45 250.05 881.1 249.05 879.6 247.6 878.7 246.75 874.85 243.05 867.2 242.45 858.75 241.7 858.05 239 857.85 238.3 858.2 236.55 858.5 234.9 858.2 234.05 857.25 231.5 852.25 224.75 847.05 217.85 845.2 216.95 843.75 216.3 833.6 214.9 822.45 213.4 820.6 212.95 817.8 212.15 816.8 213.25 815.65 215.25 814.5 216.95 813.05 219.15 811.75 218.1
L 810.7 216.65 807.2 218.35
Q 805.15 219.35 805.9 216.75 807.2 212.2 807.2 211.75 807.2 209.95 806.05 211.05 804.35 213.05 803.2 214.05 801.25 215.75 800.4 215.6 799.35 215.45 799.7 212.65 800.1 210.15 801.7 210.15 802.5 210.15 803.2 210.65 803.2 209 803 207.45 802.55 204.35 801.5 204.85 800.65 205.3 800.6 205.3 800.35 205.2 799.2 205.55 798.15 205.85 797.6 206.5 796.9 207.25 794.9 208.05 792.75 208.85 793.5 207.95 794.9 206.15 794.9 205.55 794.9 204.2 793.7 203 792.4 201.65 790.5 201.65 785.95 201.65 783.9 199.95 782.8 199 784.9 197.75 786.65 196.7 789.1 196.15 791.4 195.6 790.2 193.7 790.1376953125 193.603125 790.05 193.5
L 751.7 203 747.7 219.7 761.75 244.1 806.9 258.8 815.05 299.7 933.35 347.2 933.35 367.6 951.7 391.1 1015 391.1 1015 359.45 1074.25 313.5 1121.65 335
Q 1123.75 334.05 1126 330.35 1128.1 326.95 1123.75 324.95 1121.6 324 1114.7 322.55 1112.9 322.15 1112.15 320.55 1111.65 318.65 1111.4 317.9 1110.45 315.55 1103.7 320.25 1096.35 325.4 1094.75 321.1 1094.2 319.75 1094.3 317.25 1094.5 314.75 1094.5 314.15 1094.5 313.35 1090.9 312 1087.5 310.7 1088.1 308.05 1088.9 305 1091.25 303.45 1092.45 302.65 1095.9 301.45 1097.9 300.7 1097.4 299.6 1096.2 297.85 1095.6 296.25 1094.9 294.3 1096.95 294.1 1098.2 293.95 1101.4 293.65 1103.25 293.05 1102.25 288.85 1101.45 285.4 1100.5 284.15 1098.7 283.05 1097.45 282.3 1095.1 280.85 1096.2 279.85 1096.8 279.25 1099.7 279.2 1102.6 279.1 1105 276.95 1107.7 274.5 1102.65 274.8 1099 275 1094.7 276.05 1092.4 276.7 1091.2 276.2 1090.2 275.8 1088.3 273.75 1086.8 272.05 1088.45 272.15 1088.65 272.15 1092.3 272.85 1094.25 273.3 1097.3 273.1 1100.25 272.95 1102.7 272.25 1105 271.6 1104.9 269.75 1104.75 267.9 1102.7 267.65 1100.85 267.45 1096 266.6 1091.4 265.85 1089.1 265.35 1086.05 264.7 1084.5 263.9 1081.9 262.55 1080.7 259.85 1079.55 257.1 1082.7 257.45 1085.75 257.8 1087.1 259.55 1088 260.85 1089.65 258.55 1090.8 256.95 1092 254.05 1092.7 252.5 1091.85 250.55 1090.2 246.75 1090 245.95 1089.15 243.1 1086.95 244.6 1085 245.9 1083.1 249.75 1081.55 252.85 1080.5 250.25 1079.6 248.1 1079.6 244.25 1079.6 241.55 1080.6 240.55 1081 240.15 1083.9 238.75 1085.5 238.05 1086.95 237.45 1087.65 236.85 1088.2 234.15 1088.75 231.8 1087.15 230.9 1084.55 229.3 1084.1 228.65 1083.15 227.2 1084.7 226.6 1086.8 225.8 1087 225.15 1087.9 223.15 1088.1 222.25 Z"/>
</g>

<g id="Layer1_7_MEMBER_0_FILL">
<path  stroke="none" d="
M 664.75 78.75
Q 660.2 78.1 654.55 75.7 649 73.3 645.65 70.65 642.6 68.15 640.7 67.4 639.15 66.8 636.15 66.65 634.35 66.5 632.2 64.55 630.15 62.65 627.95 62.65 625.5 62.65 623.7 60.75 621.35 58.3 620.85 58.05 619.05 57.1 617.3 58.55 615.4 60.05 613.95 63.85 612.5 67.65 611.75 68.1 611.1 68.45 608.25 67.35 605.8 66.4 602.05 69.4 598.85 71.9 598.05 73.95 597.5 75.2 598.6 77.35 599.25 78.65 600.95 81.45 601.75 83.05 602.45 86.9 603.2 90.95 603.55 91.85 604 93.05 605.9 94.4 607.75 95.8 608.15 96.75 608.75 98.25 606.45 100.25 604.05 102.25 601.55 102.25 599.65 102.25 598.7 101.9 597.45 101.5 596.05 101.35 594.15 101.15 591.65 101.7 588.95 102.25 588.85 102.25 586.9 102.25 582.25 97.95 580.25 96.15 576.65 97.2 573.65 98.05 570.45 100.55 568.3 102.2 565 102.25 562.55 102.35 562.65 102.85 562.75 103.35 565.65 107.4 568.45 111.2 568.45 112.35 568.45 113.45 564.4 114.2 559.65 115.05 558.65 115.85 557.65 116.6 556.85 118.55 556.15 120.15 554.65 120.75 553.3 121.3 552.65 120.7 552 120 550.05 120.75 548.35 121.4 543.9 124.05 540.1 126.25 539.05 126.25 537.65 126.25 533.25 128.5 529.15 130.55 526.05 132.65 523.95 134.1 520.3 134.1 517.35 134.1 517.35 134.65 517.35 136.95 516.75 140.2 515.8 145 514.15 146.45 512.6 147.85 510.05 146.05 506.95 143.85 506.65 143.85 502.5 143.5 499.05 143.35 492.35 143 490.75 143.85 489.2 144.7 488.8 148.2 488.1 153.55 487.85 154.3 487.2 156.35 485.05 157.3 483.1 158.15 482.95 159.2 482.8 160.5 481.8 162.15 480.75 163.85 480.65 164.35 480.6 164.6 482.45 167.35 483.95 169.6 482.05 170.95 480 172.45 484.95 176.95 487.4 179.15 493.35 183.35 495.35 184.8 500.6 188.25 504.4 191.6 502.05 195.2 499.55 199 498.6 202.85 498.1 204.85 497.75 208.8 497.6 210.55 497.2 218.55
L 556.2 217.7 571.7 208.8 571.7 177.85 590.45 168.85 615.7 177 629.6 153.35 706.2 105.15
Q 702.0205078125 103.372265625 700.15 102.25 695.8 99.65 695.45 100 695.25 101.4 693.55 102.25 691.65 103.2 690.6 100.35 689.3 96.85 688.05 96.45 686.7 96.05 687 97 687.45 98.3 685.75 98.45 683.95 98.6 682.45 95.3 680.05 90 678.55 88.05 676.15 84.95 675.7 84 675.4 83.1 674.55 81.65 673.5 79.8 671.25 79.45 667.75 79.2 664.75 78.75 Z"/>
</g>

<g id="Layer1_8_MEMBER_0_FILL">
<path  stroke="none" d="
M 713.35 114.65
Q 715.45 112.5 713.45 110.05 711.15 107.25 708 105.95 707.05546875 105.5537109375 706.2 105.15
L 629.6 153.35 615.7 177 590.45 168.85 571.7 177.85 571.7 208.8 556.2 217.7 556.2 242.9 564.85 242.9 564.85 250.2 603.7 262.75 623.75 250.2 651.75 274.85 651.75 279.9 672.2 279.9 702.45 306.85 717.8 326.75 742.3 309.45 806.3 313.75 815.05 299.7 806.9 258.8 761.75 244.1 747.7 219.7 751.7 203 790.05 193.5
Q 788.6216796875 191.5423828125 783.9 190.35 779.95 189.4 780.05 184.6 780.15 181.6 780.05 181.1 779.8 179.35 778.4 178.75 776.2 177.9 775.15 174.1 774.35 171.15 772.9 171.85 770.75 172.9 769.4 170.15 768.05 167.55 767.1 160.85 766.35 155.5 765 155.65 762.95 156.95 761.35 156.85 759.9 156.7 757.5 154.35 754.75 151.7 751.55 150.75 749.6 150.15 742.2 146.35 736.25 143.25 732.75 143.25 729.65 143.25 730.25 141.05 730.85 138.8 728.15 138.65 725.35 138.5 725.9 136.5 726.15 135.55 725.95 135.3 725.6 134.9 723.85 135.15 720.85 135.65 718.3 129.4 714.85 120.85 713.45 119.25 711.3 116.8 713.35 114.65 Z"/>
</g>

<g id="Layer1_9_MEMBER_0_FILL">
<path  stroke="none" d="
M 556.2 242.9
L 556.2 217.7 497.2 218.55
Q 496.6 225.85 495.15 226.7 492.15 228.45 493.15 234.2 493.3 235.1 495.65 239.5 497.25 242.55 495.75 243.7 494.05 245 491.5 246 490.8859375 246.2193359375 487.9 247.2
L 541.5 264 556.2 242.9 Z"/>
</g>

<path id="Layer0_0_1_STROKES" stroke="#FFFFFF" stroke-width="1" stroke-linejoin="round" stroke-linecap="round" fill="none" d="
M 790.075 193.5
L 751.7 203 747.7 219.7 761.75 244.1 806.9 258.8 815.05 299.7 933.35 347.2 933.35 367.6 951.7 391.1 1015 391.1 1015 359.45 1074.25 313.5 1121.65 335
M 706.2 105.175
L 629.6 153.35 615.7 177 590.45 168.85 571.7 177.85 571.7 208.8 556.2 217.7 556.2 242.9 564.85 242.9 564.85 250.2 603.7 262.75 623.75 250.2 651.75 274.85 651.75 279.9 672.2 279.9 702.45 306.85 717.8 326.75 742.3 309.45 806.3 313.75 815.05 299.7
M 717.8 326.75
L 733.15 346.65 763.85 360.4 757.2 417.525
M 556.2 217.7
L 497.2 218.55
M 487.925 247.2
L 541.5 264 556.2 242.9
M 541.5 264
L 534.15 307.45 540.15 331 517.05 368.6 525.05 405.65
M 342.9 535.85
L 363 528.4 353.3 438.05 281.5 367.05 237.15 358.15 233.45 335.35
M 506.95 492.725
L 489.65 477.55 466.25 492.1 444.45 475.95 423.5 442.05 378.35 416.25 353.3 438.05
M 754.025 844.2
L 699.25 850.65 677.9 867.75"/>
</defs>

<g transform="matrix( 1, 0, 0, 1, 0,0) ">
<use xlink:href="#Layer1_0_MEMBER_0_FILL"/>
</g>

<g transform="matrix( 1, 0, 0, 1, 0,0) ">
<use xlink:href="#Layer1_1_MEMBER_0_FILL"/>
</g>

<g transform="matrix( 1, 0, 0, 1, 0,0) ">
<use xlink:href="#Layer1_2_MEMBER_0_FILL"/>
</g>

<g transform="matrix( 1, 0, 0, 1, 0,0) ">
<use xlink:href="#Layer1_3_MEMBER_0_FILL"/>
</g>

<g transform="matrix( 1, 0, 0, 1, 0,0) ">
<use xlink:href="#Layer1_4_MEMBER_0_FILL"/>
</g>

<g transform="matrix( 1, 0, 0, 1, 0,0) ">
<use xlink:href="#Layer1_5_MEMBER_0_FILL"/>
</g>

<g transform="matrix( 1, 0, 0, 1, 0,0) ">
<use xlink:href="#Layer1_6_MEMBER_0_FILL"/>
</g>

<g transform="matrix( 1, 0, 0, 1, 0,0) ">
<use xlink:href="#Layer1_7_MEMBER_0_FILL"/>
</g>

<g transform="matrix( 1, 0, 0, 1, 0,0) ">
<use xlink:href="#Layer1_8_MEMBER_0_FILL"/>
</g>

<g transform="matrix( 1, 0, 0, 1, 0,0) ">
<use xlink:href="#Layer1_9_MEMBER_0_FILL"/>
</g>

<g transform="matrix( 1, 0, 0, 1, 0,0) ">
<use xlink:href="#Layer0_0_1_STROKES"/>
</g>
</svg>
