<?xml version="1.0" encoding="utf-8"?>
<!-- Generator: Adobe Illustrator 23.0.3, SVG Export Plug-In . SVG Version: 6.00 Build 0)  -->
<svg version="1.1" xmlns="http://www.w3.org/2000/svg" xmlns:xlink="http://www.w3.org/1999/xlink" x="0px" y="0px"
	 viewBox="0 0 1356.5 1266.4" style="enable-background:new 0 0 1356.5 1266.4;" xml:space="preserve">
<style type="text/css">
	.st0{opacity:0.85;}
	.st1{opacity:0;fill:#FFFFFF;}
	.st2{opacity:1.960784e-02;fill:#FBFBFB;}
	.st3{opacity:3.921569e-02;fill:#F6F6F6;}
	.st4{opacity:5.882353e-02;fill:#F2F2F2;}
	.st5{opacity:7.843138e-02;fill:#EEEDEE;}
	.st6{opacity:9.803922e-02;fill:#E9E9E9;}
	.st7{opacity:0.1176;fill:#E5E5E5;}
	.st8{opacity:0.1373;fill:#E1E0E0;}
	.st9{opacity:0.1569;fill:#DCDCDC;}
	.st10{opacity:0.1765;fill:#D8D7D8;}
	.st11{opacity:0.1961;fill:#D4D3D3;}
	.st12{opacity:0.2157;fill:#D0CFCF;}
	.st13{opacity:0.2353;fill:#CBCACB;}
	.st14{opacity:0.2549;fill:#C7C6C6;}
	.st15{opacity:0.2745;fill:#C3C2C2;}
	.st16{opacity:0.2941;fill:#BEBDBD;}
	.st17{opacity:0.3137;fill:#BAB9B9;}
	.st18{opacity:0.3333;fill:#B6B4B5;}
	.st19{opacity:0.3529;fill:#B1B0B0;}
	.st20{opacity:0.3725;fill:#ADACAC;}
	.st21{opacity:0.3922;fill:#A9A7A8;}
	.st22{opacity:0.4118;fill:#A4A3A3;}
	.st23{opacity:0.4314;fill:#A09E9F;}
	.st24{opacity:0.451;fill:#9C9A9A;}
	.st25{opacity:0.4706;fill:#979696;}
	.st26{opacity:0.4902;fill:#939192;}
	.st27{opacity:0.5098;fill:#8F8D8D;}
	.st28{opacity:0.5294;fill:#8B8889;}
	.st29{opacity:0.549;fill:#868485;}
	.st30{opacity:0.5686;fill:#828080;}
	.st31{opacity:0.5882;fill:#7E7B7C;}
	.st32{opacity:0.6078;fill:#797777;}
	.st33{opacity:0.6275;fill:#757273;}
	.st34{opacity:0.6471;fill:#716E6F;}
	.st35{opacity:0.6667;fill:#6C6A6A;}
	.st36{opacity:0.6863;fill:#686566;}
	.st37{opacity:0.7059;fill:#646162;}
	.st38{opacity:0.7255;fill:#5F5C5D;}
	.st39{opacity:0.7451;fill:#5B5859;}
	.st40{opacity:0.7647;fill:#575454;}
	.st41{opacity:0.7843;fill:#524F50;}
	.st42{opacity:0.8039;fill:#4E4B4C;}
	.st43{opacity:0.8235;fill:#4A4747;}
	.st44{opacity:0.8431;fill:#464243;}
	.st45{opacity:0.8627;fill:#413E3F;}
	.st46{opacity:0.8824;fill:#3D393A;}
	.st47{opacity:0.902;fill:#393536;}
	.st48{opacity:0.9216;fill:#343131;}
	.st49{opacity:0.9412;fill:#302C2D;}
	.st50{opacity:0.9608;fill:#2C2829;}
	.st51{opacity:0.9804;fill:#272324;}
	.st52{fill:#231F20;}
	.st53{opacity:0.15;}
	
		.st54{clip-path:url(#SVGID_2_);fill:none;stroke:#E0221D;stroke-width:0.7408;stroke-linecap:round;stroke-linejoin:round;stroke-miterlimit:10;}
	.st55{opacity:0.15;fill:url(#SVGID_3_);}
	
		.st56{fill:none;stroke:#E0221D;stroke-width:0.7408;stroke-linecap:round;stroke-linejoin:round;stroke-miterlimit:10;stroke-dasharray:1.4815,3.9508;}
	.st57{opacity:0.15;fill:url(#SVGID_4_);}
	.st58{fill:url(#SVGID_5_);}
	.st59{fill:url(#SVGID_6_);}
	.st60{fill:url(#SVGID_7_);}
	.st61{fill:url(#SVGID_8_);}
	.st62{fill:none;stroke:#E0221D;stroke-width:0.7408;stroke-linecap:round;stroke-linejoin:round;stroke-miterlimit:10;}
	
		.st63{clip-path:url(#SVGID_10_);fill:none;stroke:#E0221D;stroke-width:0.7408;stroke-linecap:round;stroke-linejoin:round;stroke-miterlimit:10;}
	.st64{opacity:0.8;}
	.st65{opacity:0.7;clip-path:url(#SVGID_12_);}
	.st66{opacity:0;fill:#DE201E;}
	.st67{opacity:1.960784e-02;fill:#DF231D;}
	.st68{opacity:3.921569e-02;fill:#DF271D;}
	.st69{opacity:5.882353e-02;fill:#E02A1C;}
	.st70{opacity:7.843138e-02;fill:#E12D1C;}
	.st71{opacity:9.803922e-02;fill:#E1301B;}
	.st72{opacity:0.1176;fill:#E2341A;}
	.st73{opacity:0.1373;fill:#E3371A;}
	.st74{opacity:0.1569;fill:#E33A19;}
	.st75{opacity:0.1765;fill:#E43E19;}
	.st76{opacity:0.1961;fill:#E44118;}
	.st77{opacity:0.2157;fill:#E54418;}
	.st78{opacity:0.2353;fill:#E64817;}
	.st79{opacity:0.2549;fill:#E64B16;}
	.st80{opacity:0.2745;fill:#E74E16;}
	.st81{opacity:0.2941;fill:#E85115;}
	.st82{opacity:0.3137;fill:#E85515;}
	.st83{opacity:0.3333;fill:#E95814;}
	.st84{opacity:0.3529;fill:#EA5B13;}
	.st85{opacity:0.3725;fill:#EA5F13;}
	.st86{opacity:0.3922;fill:#EB6212;}
	.st87{opacity:0.4118;fill:#EC6512;}
	.st88{opacity:0.4314;fill:#EC6811;}
	.st89{opacity:0.451;fill:#ED6C10;}
	.st90{opacity:0.4706;fill:#EE6F10;}
	.st91{opacity:0.4902;fill:#EE720F;}
	.st92{opacity:0.5098;fill:#EF760F;}
	.st93{opacity:0.5294;fill:#EF790E;}
	.st94{opacity:0.549;fill:#F07C0E;}
	.st95{opacity:0.5686;fill:#F1800D;}
	.st96{opacity:0.5882;fill:#F1830C;}
	.st97{opacity:0.6078;fill:#F2860C;}
	.st98{opacity:0.6275;fill:#F3890B;}
	.st99{opacity:0.6471;fill:#F38D0B;}
	.st100{opacity:0.6667;fill:#F4900A;}
	.st101{opacity:0.6863;fill:#F59309;}
	.st102{opacity:0.7059;fill:#F59709;}
	.st103{opacity:0.7255;fill:#F69A08;}
	.st104{opacity:0.7451;fill:#F79D08;}
	.st105{opacity:0.7647;fill:#F7A007;}
	.st106{opacity:0.7843;fill:#F8A406;}
	.st107{opacity:0.8039;fill:#F9A706;}
	.st108{opacity:0.8235;fill:#F9AA05;}
	.st109{opacity:0.8431;fill:#FAAE05;}
	.st110{opacity:0.8627;fill:#FAB104;}
	.st111{opacity:0.8824;fill:#FBB404;}
	.st112{opacity:0.902;fill:#FCB803;}
	.st113{opacity:0.9216;fill:#FCBB02;}
	.st114{opacity:0.9412;fill:#FDBE02;}
	.st115{opacity:0.9608;fill:#FEC101;}
	.st116{opacity:0.9804;fill:#FEC501;}
	.st117{fill:#FFC800;}
	
		.st118{clip-path:url(#SVGID_14_);fill:none;stroke:#E0221D;stroke-width:0.7408;stroke-linecap:round;stroke-linejoin:round;stroke-miterlimit:10;}
	
		.st119{clip-path:url(#SVGID_16_);fill:none;stroke:#FFFFFF;stroke-width:0.7408;stroke-linecap:round;stroke-linejoin:round;stroke-miterlimit:10;}
	.st120{clip-path:url(#SVGID_16_);}
	
		.st121{clip-path:url(#SVGID_18_);fill:none;stroke:#FFFFFF;stroke-width:0.7408;stroke-linecap:round;stroke-linejoin:round;stroke-miterlimit:10;}
	.st122{opacity:0.7;clip-path:url(#SVGID_16_);}
	.st123{opacity:0.7;}
	
		.st124{clip-path:url(#SVGID_20_);fill:none;stroke:#FFCC00;stroke-width:0.7408;stroke-linecap:round;stroke-linejoin:round;stroke-miterlimit:10;}
	.st125{opacity:0.7;fill:#EDEDF4;}
	.st126{fill:#3B477B;}
	.st127{fill:#FF6347;}
	.st128{opacity:8.000000e-02;enable-background:new    ;}
	.st129{opacity:8.000000e-02;}
	.st130{fill:#FFFFFF;}
	.st131{opacity:8.000000e-02;fill:#FFFFFF;enable-background:new    ;}
	.st132{fill:#EDEDF4;}
	.st133{opacity:0.3;fill:#FFFFFF;enable-background:new    ;}
	.st134{fill:url(#SVGID_21_);}
	.st135{fill:#F7C4A7;}
	.st136{opacity:0.1;enable-background:new    ;}
	.st137{fill:#F3B5B7;}
	.st138{fill:#FC6681;}
	.st139{fill:#575988;}
	.st140{opacity:5.000000e-02;enable-background:new    ;}
	.st141{opacity:0.1;}
	.st142{fill:#965D7B;}
</style>
<g id="Layer_2">
	<g class="st0">
		<path class="st1" d="M1222.2,581.7c0,127.5-34.3,271.6-142.5,351.4c-127.7,94.2-268,32.1-411.2,48c-129.2,14.4-244.9,87.1-320.9,2
			c-48.7-54.5-24.6-130.8-47.4-177.2c-40.3-82-119.1-126.7-129.6-225.1c-18-168.8,86.6-179.2,213.7-232.3
			c106.2-44.4,206.4-162.7,315.5-187C909.3,114.8,1222.2,369.7,1222.2,581.7z"/>
		<path class="st2" d="M1219.6,581.7c0,126.9-34.2,270.3-141.8,349.7c-127.1,93.7-266.7,31.9-409.2,47.8
			c-128.5,14.3-243.7,86.6-319.3,1.9c-48.4-54.3-24.5-130.2-47.2-176.4c-40.1-81.5-118.5-126.1-129-224
			c-17.9-168,86.2-178.3,212.6-231.2c105.7-44.2,205.3-161.9,313.9-186C908.2,117.2,1219.6,370.8,1219.6,581.7z"/>
		<path class="st3" d="M1217,581.8c0,126.2-34,268.9-141.1,347.9c-126.5,93.3-265.3,31.7-407.1,47.5
			c-127.9,14.2-242.5,86.2-317.7,1.9c-48.2-54-24.4-129.5-46.9-175.5c-39.9-81.1-118-125.5-128.3-222.9
			c-17.8-167.2,85.8-177.4,211.6-230c105.1-44,204.3-161.1,312.3-185.1C907.2,119.5,1217,371.9,1217,581.8z"/>
		<path class="st4" d="M1214.3,581.8c0,125.6-33.8,267.6-140.4,346.2c-125.8,92.8-264,31.6-405.1,47.3
			c-127.2,14.2-241.3,85.8-316.1,1.9c-48-53.7-24.2-128.9-46.7-174.6c-39.7-80.7-117.4-124.8-127.7-221.8
			C160.6,414.5,263.6,404.4,388.8,352c104.6-43.8,203.3-160.3,310.8-184.2C906.1,121.9,1214.3,373,1214.3,581.8z"/>
		<path class="st5" d="M1211.7,581.9c0,125-33.7,266.2-139.7,344.4c-125.2,92.3-262.7,31.4-403,47c-126.6,14.1-240.1,85.3-314.5,1.9
			C306.7,921.8,330.3,847,308,801.5c-39.5-80.3-116.8-124.2-127.1-220.6c-17.6-165.5,84.9-175.6,209.4-227.7
			c104.1-43.6,202.3-159.5,309.2-183.2C905.1,124.3,1211.7,374.1,1211.7,581.9z"/>
		<path class="st6" d="M1209.1,581.9c0,124.3-33.5,264.9-139,342.7c-124.5,91.9-261.3,31.3-401,46.8c-126,14-238.8,84.9-312.9,1.9
			c-47.5-53.2-24-127.6-46.2-172.8C270.7,720.6,193.7,676.9,183.5,581C166,416.3,268,406.2,391.9,354.4
			C495.4,311,593.1,195.7,699.5,172.1C904,126.6,1209.1,375.2,1209.1,581.9z"/>
		<path class="st7" d="M1206.5,581.9c0,123.7-33.3,263.5-138.3,340.9c-123.9,91.4-260,31.1-399,46.6
			c-125.3,13.9-237.6,84.5-311.3,1.9c-47.2-52.9-23.9-126.9-46-171.9c-39.1-79.5-115.6-123-125.8-218.4
			c-17.5-163.8,84.1-173.8,207.3-225.4c103-43.1,200.2-157.8,306.1-181.4C902.9,129,1206.5,376.3,1206.5,581.9z"/>
		<path class="st8" d="M1203.9,582c0,123.1-33.1,262.2-137.6,339.2c-123.3,90.9-258.7,30.9-396.9,46.3
			c-124.7,13.9-236.4,84-309.7,1.9c-47-52.6-23.8-126.3-45.8-171.1C275,719.2,198.9,676,188.7,581c-17.4-163,83.6-172.9,206.2-224.3
			c102.5-42.9,199.2-157,304.5-180.4C901.9,131.3,1203.9,377.4,1203.9,582z"/>
		<path class="st9" d="M1201.2,582c0,122.4-33,260.8-136.9,337.4c-122.6,90.4-257.3,30.8-394.9,46.1c-124,13.8-235.2,83.6-308.1,1.9
			c-46.7-52.4-23.6-125.6-45.5-170.2c-38.7-78.7-114.4-121.7-124.5-216.2C174.1,419,274.5,409,396.5,358
			c102-42.7,198.2-156.2,302.9-179.5C900.8,133.7,1201.2,378.5,1201.2,582z"/>
		<path class="st10" d="M1198.6,582.1c0,121.8-32.8,259.5-136.2,335.7c-122,90-256,30.6-392.8,45.8c-123.4,13.7-234,83.2-306.5,1.9
			c-46.5-52.1-23.5-125-45.3-169.3C279.3,717.9,204,675.1,194,581.1C176.8,419.8,276.7,410,398.1,359.2
			c101.4-42.5,197.1-155.4,301.4-178.6C899.7,136.1,1198.6,379.6,1198.6,582.1z"/>
		<path class="st11" d="M1196,582.1c0,121.2-32.6,258.1-135.5,333.9c-121.4,89.5-254.7,30.5-390.8,45.6
			c-122.7,13.7-232.8,82.7-305,1.9c-46.3-51.8-23.4-124.3-45.1-168.4c-38.3-77.9-113.2-120.4-123.2-213.9
			c-17.1-160.4,82.3-170.3,203.1-220.8c100.9-42.2,196.1-154.6,299.8-177.7C898.7,138.4,1196,380.7,1196,582.1z"/>
		<path class="st12" d="M1193.4,582.1c0,120.5-32.5,256.8-134.7,332.2c-120.7,89-253.3,30.3-388.7,45.4
			c-122.1,13.6-231.5,82.3-303.4,1.8c-46-51.6-23.3-123.7-44.8-167.5c-38.1-77.5-112.6-119.8-122.5-212.8
			c-17-159.6,81.9-169.4,202-219.6c100.4-42,195.1-153.8,298.2-176.7C897.6,140.8,1193.4,381.8,1193.4,582.1z"/>
		<path class="st13" d="M1190.8,582.2c0,119.9-32.3,255.4-134,330.4c-120.1,88.6-252,30.1-386.7,45.1
			c-121.5,13.5-230.3,81.9-301.8,1.8c-45.8-51.3-23.1-123-44.6-166.7c-37.9-77.1-112-119.2-121.9-211.7
			c-16.9-158.8,81.5-168.5,200.9-218.5c99.9-41.8,194.1-153,296.7-175.8C896.5,143.2,1190.8,382.9,1190.8,582.2z"/>
		<path class="st14" d="M1188.1,582.2c0,119.3-32.1,254.1-133.3,328.7c-119.5,88.1-250.7,30-384.6,44.9
			c-120.8,13.4-229.1,81.4-300.2,1.8c-45.5-51-23-122.4-44.4-165.8C288,715.2,214.2,673.3,204.4,581.3
			c-16.8-157.9,81-167.6,199.9-217.3c99.3-41.6,193-152.2,295.1-174.9C895.5,145.5,1188.1,384,1188.1,582.2z"/>
		<path class="st15" d="M1185.5,582.3c0,118.6-31.9,252.7-132.6,327c-118.8,87.6-249.3,29.8-382.6,44.7
			c-120.2,13.4-227.9,81-298.6,1.8c-45.3-50.7-22.9-121.7-44.1-164.9C290.2,714.6,216.8,672.9,207,581.4
			c-16.8-157.1,80.6-166.7,198.8-216.2c98.8-41.4,192-151.4,293.5-173.9C894.4,147.9,1185.5,385.1,1185.5,582.3z"/>
		<path class="st16" d="M1182.9,582.3c0,118-31.8,251.4-131.9,325.2c-118.2,87.2-248,29.7-380.5,44.4
			c-119.5,13.3-226.7,80.6-297,1.8c-45.1-50.5-22.8-121-43.9-164c-37.3-75.8-110.3-117.3-120-208.3
			c-16.7-156.2,80.2-165.8,197.7-215c98.3-41.1,191-150.6,291.9-173C893.3,150.2,1182.9,386.2,1182.9,582.3z"/>
		<path class="st17" d="M1180.3,582.3c0,117.4-31.6,250-131.2,323.5c-117.6,86.7-246.7,29.5-378.5,44.2
			c-118.9,13.2-225.4,80.2-295.4,1.8c-44.8-50.2-22.7-120.4-43.6-163.1C294.5,713.2,221.9,672,212.2,581.4
			C195.7,426,292,416.5,408.9,367.6c97.7-40.9,190-149.7,290.4-172.1C892.3,152.6,1180.3,387.3,1180.3,582.3z"/>
		<path class="st18" d="M1177.7,582.4c0,116.7-31.4,248.7-130.5,321.7c-116.9,86.2-245.3,29.4-376.5,43.9
			c-118.3,13.2-224.2,79.7-293.8,1.8c-44.6-49.9-22.5-119.7-43.4-162.2c-36.9-75-109.1-116-118.7-206.1
			c-16.5-154.6,79.3-164,195.6-212.7c97.2-40.7,188.9-148.9,288.8-171.1C891.2,155,1177.7,388.3,1177.7,582.4z"/>
		<path class="st19" d="M1175,582.4c0,116.1-31.3,247.3-129.8,320c-116.3,85.8-244,29.2-374.4,43.7c-117.6,13.1-223,79.3-292.2,1.8
			c-44.3-49.7-22.4-119.1-43.2-161.4c-36.7-74.6-108.5-115.4-118-205C201.1,427.8,296.3,418.4,412,370
			c96.7-40.5,187.9-148.1,287.2-170.2C890.2,157.3,1175,389.4,1175,582.4z"/>
		<path class="st20" d="M1172.4,582.5c0,115.5-31.1,245.9-129.1,318.2c-115.7,85.3-242.7,29-372.4,43.5
			c-117,13-221.8,78.9-290.6,1.8c-44.1-49.4-22.3-118.4-42.9-160.5C301,711.2,229.6,670.7,220.1,581.6
			c-16.3-152.9,78.5-162.2,193.5-210.4c96.2-40.2,186.9-147.3,285.7-169.3C889.1,159.7,1172.4,390.5,1172.4,582.5z"/>
		<path class="st21" d="M1169.8,582.5c0,114.8-30.9,244.6-128.4,316.5c-115,84.8-241.3,28.9-370.3,43.2
			c-116.3,12.9-220.6,78.4-289,1.8c-43.8-49.1-22.2-117.8-42.7-159.6c-36.3-73.8-107.3-114.1-116.7-202.7
			c-16.2-152,78-161.4,192.4-209.2c95.6-40,185.8-146.5,284.1-168.4C888,162.1,1169.8,391.6,1169.8,582.5z"/>
		<path class="st22" d="M1167.2,582.5c0,114.2-30.8,243.2-127.7,314.7c-114.4,84.4-240,28.7-368.3,43
			c-115.7,12.9-219.4,78-287.4,1.8c-43.6-48.9-22-117.1-42.5-158.7c-36.1-73.4-106.7-113.5-116.1-201.6
			c-16.1-151.2,77.6-160.5,191.4-208.1c95.1-39.8,184.8-145.7,282.5-167.4C887,164.4,1167.2,392.7,1167.2,582.5z"/>
		<path class="st23" d="M1164.5,582.6c0,113.6-30.6,241.9-126.9,313c-113.7,83.9-238.7,28.6-366.2,42.7
			c-115,12.8-218.1,77.6-285.8,1.7c-43.4-48.6-21.9-116.5-42.2-157.8c-35.9-73-106.1-112.9-115.4-200.5
			c-16-150.4,77.2-159.6,190.3-206.9c94.6-39.6,183.8-144.9,281-166.5C885.9,166.8,1164.5,393.8,1164.5,582.6z"/>
		<path class="st24" d="M1161.9,582.6c0,112.9-30.4,240.5-126.2,311.2c-113.1,83.4-237.3,28.4-364.2,42.5
			c-114.4,12.7-216.9,77.1-284.2,1.7c-43.1-48.3-21.8-115.8-42-157c-35.7-72.6-105.5-112.2-114.8-199.4
			C214.6,432.2,307.2,423.1,419.7,376c94-39.4,182.8-144.1,279.4-165.6C884.8,169.1,1161.9,394.9,1161.9,582.6z"/>
		<path class="st25" d="M1159.3,582.7c0,112.3-30.2,239.2-125.5,309.5c-112.5,83-236,28.2-362.1,42.3
			c-113.8,12.7-215.7,76.7-282.6,1.7c-42.9-48-21.7-115.2-41.8-156.1c-35.5-72.2-104.9-111.6-114.2-198.2
			C217.3,433.1,309.4,424,421.3,377.2c93.5-39.1,181.7-143.3,277.8-164.6C883.8,171.5,1159.3,396,1159.3,582.7z"/>
		<path class="st26" d="M1156.7,582.7c0,111.6-30.1,237.8-124.8,307.7c-111.8,82.5-234.7,28.1-360.1,42
			c-113.1,12.6-214.5,76.3-281,1.7c-42.6-47.8-21.6-114.5-41.5-155.2C314,707.2,244.9,668,235.7,581.9
			C220,434,311.6,425,422.8,378.4c93-38.9,180.7-142.5,276.3-163.7C882.7,173.9,1156.7,397.1,1156.7,582.7z"/>
		<path class="st27" d="M1154.1,582.7c0,111-29.9,236.5-124.1,306c-111.2,82-233.3,27.9-358.1,41.8
			c-112.5,12.5-213.3,75.8-279.4,1.7c-42.4-47.5-21.4-113.9-41.3-154.3c-35.1-71.4-103.7-110.3-112.9-196
			c-15.7-147,75.4-156,186-202.3c92.5-38.7,179.7-141.7,274.7-162.8C881.6,176.2,1154.1,398.2,1154.1,582.7z"/>
		<path class="st28" d="M1151.4,582.8c0,110.4-29.7,235.1-123.4,304.2c-110.6,81.5-232,27.8-356,41.5
			c-111.8,12.4-212,75.4-277.8,1.7C352.1,883,372.9,817,353.2,776.8C318.3,705.9,250,667.1,240.9,581.9
			c-15.6-146.2,75-155.1,185-201.1c91.9-38.5,178.7-140.8,273.1-161.8C880.6,178.6,1151.4,399.3,1151.4,582.8z"/>
		<path class="st29" d="M1148.8,582.8c0,109.7-29.6,233.8-122.7,302.5c-109.9,81.1-230.7,27.6-354,41.3
			c-111.2,12.4-210.8,75-276.2,1.7c-41.9-47-21.2-112.6-40.8-152.5C320.5,705.2,252.6,666.7,243.6,582
			c-15.5-145.3,74.6-154.2,183.9-200c91.4-38.3,177.6-140,271.5-160.9C879.5,181,1148.8,400.4,1148.8,582.8z"/>
		<path class="st30" d="M1146.2,582.9c0,109.1-29.4,232.4-122,300.7c-109.3,80.6-229.3,27.4-351.9,41.1
			c-110.5,12.3-209.6,74.5-274.6,1.7c-41.7-46.7-21.1-111.9-40.6-151.7c-34.4-70.1-102-108.5-110.9-192.6
			C230.8,437.5,320.3,428.7,429,383.2c90.9-38,176.6-139.2,270-160C878.4,183.3,1146.2,401.5,1146.2,582.9z"/>
		<path class="st31" d="M1143.6,582.9c0,108.5-29.2,231.1-121.3,299c-108.7,80.1-228,27.3-349.9,40.8
			c-109.9,12.2-208.4,74.1-273,1.7C358,878,378.5,813.1,359.1,773.6c-34.2-69.7-101.4-107.8-110.3-191.5
			c-15.3-143.6,73.7-152.4,181.8-197.7C520.9,346.6,606.2,246,699,225.3C877.4,185.7,1143.6,402.6,1143.6,582.9z"/>
		<path class="st32" d="M1141,583c0,107.8-29,229.7-120.6,297.2c-108,79.7-226.7,27.1-347.8,40.6c-109.3,12.2-207.2,73.7-271.4,1.7
			C360,876.3,380.3,811.8,361,772.5c-34-69.3-100.8-107.2-109.6-190.4c-15.2-142.8,73.3-151.5,180.7-196.5
			C521.9,348,606.7,248,699,227.5C876.3,188,1141,403.7,1141,583z"/>
		<path class="st33" d="M1138.3,583c0,107.2-28.9,228.4-119.9,295.5c-107.4,79.2-225.3,27-345.8,40.4
			c-108.6,12.1-206,73.2-269.8,1.6c-40.9-45.9-20.7-110-39.9-149c-33.8-68.9-100.2-106.6-109-189.3
			c-15.1-142,72.8-150.7,179.7-195.4C523,349.4,607.2,250,698.9,229.6C875.3,190.4,1138.3,404.8,1138.3,583z"/>
		<path class="st34" d="M1135.7,583c0,106.6-28.7,227-119.1,293.7c-106.8,78.7-224,26.8-343.7,40.1c-108,12-204.7,72.8-268.2,1.6
			C363.9,872.9,384,809.2,365,770.4c-33.6-68.5-99.6-105.9-108.4-188.2C241.6,441.1,329,432.4,435.2,388
			c88.8-37.2,172.5-136,263.7-156.3C874.2,192.8,1135.7,405.9,1135.7,583z"/>
		<path class="st35" d="M1133.1,583.1c0,105.9-28.5,225.7-118.4,292C908.5,953.3,792,901.7,673,914.9
			c-107.3,11.9-203.5,72.4-266.6,1.6c-40.5-45.3-20.5-108.7-39.4-147.3c-33.4-68.1-99-105.3-107.7-187
			c-15-140.3,72-148.9,177.5-193.1C525,352.3,608.2,254,698.9,233.9C873.1,195.1,1133.1,407,1133.1,583.1z"/>
		<path class="st36" d="M1130.5,583.1c0,105.3-28.4,224.3-117.7,290.2c-105.5,77.8-221.3,26.5-339.6,39.6
			c-106.7,11.9-202.3,71.9-265,1.6c-40.2-45.1-20.3-108-39.2-146.4c-33.2-67.7-98.4-104.7-107.1-185.9
			c-14.9-139.4,71.6-148,176.5-191.9C526,353.7,608.8,256,698.9,236C872.1,197.5,1130.5,408,1130.5,583.1z"/>
		<path class="st37" d="M1127.9,583.2c0,104.7-28.2,223-117,288.5C906,949,790.8,898,673.2,911c-106,11.8-201.1,71.5-263.5,1.6
			c-40-44.8-20.2-107.4-38.9-145.5c-33-67.3-97.8-104-106.4-184.8c-14.8-138.6,71.1-147.1,175.4-190.7
			c87.2-36.5,169.4-133.6,259-153.5C871,199.9,1127.9,409.1,1127.9,583.2z"/>
		<path class="st38" d="M1125.2,583.2c0,104-28,221.6-116.3,286.7c-104.2,76.9-218.7,26.2-335.6,39.2
			c-105.4,11.7-199.9,71.1-261.9,1.6c-39.7-44.5-20.1-106.7-38.7-144.6c-32.8-66.9-97.2-103.4-105.8-183.7
			c-14.7-137.8,70.7-146.2,174.4-189.6c86.7-36.3,168.4-132.8,257.4-152.5C869.9,202.2,1125.2,410.2,1125.2,583.2z"/>
		<path class="st39" d="M1122.6,583.2c0,103.4-27.8,220.3-115.6,285c-103.6,76.4-217.3,26-333.5,38.9
			c-104.8,11.7-198.6,70.6-260.3,1.6c-39.5-44.2-20-106.1-38.5-143.7c-32.6-66.5-96.6-102.8-105.1-182.6
			C255.1,445.5,339.9,437.1,443,394c86.1-36,167.4-131.9,255.9-151.6C868.9,204.6,1122.6,411.3,1122.6,583.2z"/>
		<path class="st40" d="M1120,583.3c0,102.8-27.7,218.9-114.9,283.3c-102.9,75.9-216,25.8-331.5,38.7
			c-104.1,11.6-197.4,70.2-258.7,1.6c-39.2-44-19.8-105.4-38.2-142.9c-32.4-66.1-96-102.2-104.5-181.4
			c-14.5-136.1,69.8-144.4,172.2-187.3c85.6-35.8,166.3-131.1,254.3-150.7C867.8,206.9,1120,412.4,1120,583.3z"/>
		<path class="st41" d="M1117.4,583.3c0,102.1-27.5,217.6-114.2,281.5c-102.3,75.5-214.7,25.7-329.4,38.4
			c-103.5,11.5-196.2,69.8-257.1,1.6c-39-43.7-19.7-104.8-38-142c-32.2-65.6-95.4-101.5-103.8-180.3
			C260.5,447.3,344.3,439,446.1,396.4c85.1-35.6,165.3-130.3,252.7-149.8C866.7,209.3,1117.4,413.5,1117.4,583.3z"/>
		<path class="st42" d="M1114.8,583.4c0,101.5-27.3,216.2-113.5,279.8c-101.7,75-213.3,25.5-327.4,38.2
			c-102.8,11.4-195,69.3-255.5,1.6c-38.8-43.4-19.6-104.1-37.8-141.1c-32-65.2-94.8-100.9-103.2-179.2
			c-14.3-134.4,69-142.6,170.1-185c84.5-35.4,164.3-129.5,251.1-148.8C865.7,211.7,1114.8,414.6,1114.8,583.4z"/>
		<path class="st43" d="M1112.1,583.4c0,100.9-27.2,214.9-112.8,278c-101,74.5-212,25.4-325.3,38c-102.2,11.4-193.8,68.9-253.9,1.5
			c-38.5-43.2-19.5-103.5-37.5-140.2c-31.8-64.8-94.3-100.3-102.6-178.1c-14.2-133.6,68.5-141.7,169-183.8
			c84-35.2,163.3-128.7,249.6-147.9C864.6,214,1112.1,415.7,1112.1,583.4z"/>
		<path class="st44" d="M1109.5,583.4c0,100.2-27,213.5-112.1,276.3c-100.4,74.1-210.7,25.2-323.3,37.7
			c-101.5,11.3-192.6,68.5-252.3,1.5c-38.3-42.9-19.4-102.8-37.3-139.3C353,695.2,291,660,282.7,582.7
			c-14.2-132.7,68.1-140.9,168-182.7c83.5-34.9,162.2-127.9,248-147C863.5,216.4,1109.5,416.8,1109.5,583.4z"/>
		<path class="st45" d="M1106.9,583.5c0,99.6-26.8,212.2-111.3,274.5c-99.8,73.6-209.3,25-321.2,37.5
			c-100.9,11.2-191.3,68-250.7,1.5c-38-42.6-19.2-102.2-37-138.4c-31.4-64-93.1-99-101.3-175.8c-14.1-131.9,67.7-140,166.9-181.5
			c83-34.7,161.2-127.1,246.4-146C862.5,218.8,1106.9,417.9,1106.9,583.5z"/>
		<path class="st46" d="M1104.3,583.5c0,99-26.7,210.8-110.6,272.8c-99.1,73.1-208,24.9-319.2,37.3
			c-100.3,11.2-190.1,67.6-249.1,1.5c-37.8-42.3-19.1-101.5-36.8-137.6c-31.2-63.6-92.5-98.4-100.6-174.7
			c-14-131.1,67.2-139.1,165.9-180.3c82.4-34.5,160.2-126.3,244.9-145.1C861.4,221.1,1104.3,419,1104.3,583.5z"/>
		<path class="st47" d="M1101.7,583.6c0,98.3-26.5,209.5-109.9,271c-98.5,72.6-206.7,24.7-317.1,37c-99.6,11.1-188.9,67.2-247.5,1.5
			c-37.5-42.1-19-100.9-36.6-136.7c-31-63.2-91.9-97.7-100-173.6c-13.9-130.2,66.8-138.2,164.8-179.2
			c81.9-34.3,159.2-125.5,243.3-144.2C860.4,223.5,1101.7,420.1,1101.7,583.6z"/>
		<path class="st48" d="M1099,583.6c0,97.7-26.3,208.1-109.2,269.3c-97.9,72.2-205.3,24.6-315.1,36.8c-99,11-187.7,66.7-245.9,1.5
			c-37.3-41.8-18.9-100.2-36.3-135.8c-30.8-62.8-91.3-97.1-99.3-172.5c-13.8-129.4,66.4-137.3,163.7-178
			c81.4-34.1,158.1-124.7,241.7-143.3C859.3,225.8,1099,421.2,1099,583.6z"/>
		<path class="st49" d="M1096.4,583.6c0,97.1-26.1,206.8-108.5,267.5c-97.2,71.7-204,24.4-313.1,36.5
			c-98.3,10.9-186.5,66.3-244.3,1.5c-37.1-41.5-18.7-99.6-36.1-134.9c-30.6-62.4-90.7-96.5-98.7-171.4
			c-13.7-128.5,66-136.4,162.7-176.9c80.8-33.8,157.1-123.9,240.2-142.3C858.2,228.2,1096.4,422.3,1096.4,583.6z"/>
		<path class="st50" d="M1093.8,583.7c0,96.4-26,205.4-107.8,265.8c-96.6,71.2-202.7,24.2-311,36.3c-97.7,10.9-185.2,65.9-242.7,1.5
			c-36.8-41.3-18.6-98.9-35.9-134c-30.4-62-90.1-95.8-98-170.3C284.8,455.2,363.9,447.4,460,407.2c80.3-33.6,156.1-123,238.6-141.4
			C857.2,230.6,1093.8,423.4,1093.8,583.7z"/>
		<path class="st51" d="M1091.2,583.7c0,95.8-25.8,204.1-107.1,264c-96,70.8-201.3,24.1-309,36.1c-97,10.8-184,65.4-241.1,1.5
			c-36.6-41-18.5-98.3-35.6-133.2c-30.2-61.6-89.5-95.2-97.4-169.1c-13.5-126.9,65.1-134.6,160.5-174.6
			c79.8-33.4,155.1-122.2,237-140.5C856.1,232.9,1091.2,424.5,1091.2,583.7z"/>
		<path class="st52" d="M1088.6,583.8c0,95.2-25.6,202.7-106.4,262.3c-95.3,70.3-200,23.9-306.9,35.8c-96.4,10.7-182.8,65-239.5,1.5
			c-36.3-40.7-18.4-97.6-35.4-132.3c-30-61.2-88.9-94.6-96.7-168c-13.4-126,64.7-133.7,159.5-173.4c79.3-33.2,154-121.4,235.5-139.5
			C855,235.3,1088.6,425.6,1088.6,583.8z"/>
	</g>
	<g class="st53">
		<defs>
			<path id="SVGID_1_" class="st53" d="M946.8,908.2c-15.3,47-68.1,71.4-89.2,115.8c-20.2,42.5-10.9,88.7-62.4,110.3
				c-83.1,34.9-156.7-52.5-197.2-109.5c-57.8-81.4-111.3-61.1-207.1-68c-107.1-7.7-127.2-78.3-117.1-179.3
				c17.7-176,259-255.3,415.2-212.9C818.5,599.8,995.8,757.6,946.8,908.2z"/>
		</defs>
		<clipPath id="SVGID_2_">
			<use xlink:href="#SVGID_1_"  style="overflow:visible;"/>
		</clipPath>
		<line class="st54" x1="191.2" y1="521.5" x2="1030.7" y2="521.5"/>
		<line class="st54" x1="191.2" y1="534.3" x2="1030.7" y2="534.3"/>
		<line class="st54" x1="191.2" y1="547.2" x2="1030.7" y2="547.2"/>
		<line class="st54" x1="191.2" y1="560" x2="1030.7" y2="560"/>
		<line class="st54" x1="191.2" y1="572.8" x2="1030.7" y2="572.8"/>
		<line class="st54" x1="191.2" y1="585.7" x2="1030.7" y2="585.7"/>
		<line class="st54" x1="191.2" y1="598.5" x2="1030.7" y2="598.5"/>
		<line class="st54" x1="191.2" y1="611.3" x2="1030.7" y2="611.3"/>
		<line class="st54" x1="191.2" y1="624.2" x2="1030.7" y2="624.2"/>
		<line class="st54" x1="191.2" y1="637" x2="1030.7" y2="637"/>
		<line class="st54" x1="191.2" y1="649.8" x2="1030.7" y2="649.8"/>
		<line class="st54" x1="191.2" y1="662.7" x2="1030.7" y2="662.7"/>
		<line class="st54" x1="191.2" y1="675.5" x2="1030.7" y2="675.5"/>
		<line class="st54" x1="191.2" y1="688.3" x2="1030.7" y2="688.3"/>
		<line class="st54" x1="191.2" y1="701.2" x2="1030.7" y2="701.2"/>
		<line class="st54" x1="191.2" y1="714" x2="1030.7" y2="714"/>
		<line class="st54" x1="191.2" y1="726.8" x2="1030.7" y2="726.8"/>
		<line class="st54" x1="191.2" y1="739.7" x2="1030.7" y2="739.7"/>
		<line class="st54" x1="191.2" y1="752.5" x2="1030.7" y2="752.5"/>
		<line class="st54" x1="191.2" y1="765.3" x2="1030.7" y2="765.3"/>
		<line class="st54" x1="191.2" y1="778.2" x2="1030.7" y2="778.2"/>
		<line class="st54" x1="191.2" y1="791" x2="1030.7" y2="791"/>
		<line class="st54" x1="191.2" y1="803.8" x2="1030.7" y2="803.8"/>
		<line class="st54" x1="191.2" y1="816.7" x2="1030.7" y2="816.7"/>
		<line class="st54" x1="191.2" y1="829.5" x2="1030.7" y2="829.5"/>
		<line class="st54" x1="191.2" y1="842.3" x2="1030.7" y2="842.3"/>
		<line class="st54" x1="191.2" y1="855.2" x2="1030.7" y2="855.2"/>
		<line class="st54" x1="191.2" y1="868" x2="1030.7" y2="868"/>
		<line class="st54" x1="191.2" y1="880.8" x2="1030.7" y2="880.8"/>
		<line class="st54" x1="191.2" y1="893.7" x2="1030.7" y2="893.7"/>
		<line class="st54" x1="191.2" y1="906.7" x2="1030.7" y2="906.7"/>
		<line class="st54" x1="191.2" y1="919.5" x2="1030.7" y2="919.5"/>
		<line class="st54" x1="191.2" y1="932.3" x2="1030.7" y2="932.3"/>
		<line class="st54" x1="191.2" y1="945.2" x2="1030.7" y2="945.2"/>
		<line class="st54" x1="191.2" y1="958" x2="1030.7" y2="958"/>
		<line class="st54" x1="191.2" y1="970.8" x2="1030.7" y2="970.8"/>
		<line class="st54" x1="191.2" y1="983.7" x2="1030.7" y2="983.7"/>
		<line class="st54" x1="191.2" y1="996.5" x2="1030.7" y2="996.5"/>
		<line class="st54" x1="191.2" y1="1009.3" x2="1030.7" y2="1009.3"/>
		<line class="st54" x1="191.2" y1="1022.2" x2="1030.7" y2="1022.2"/>
		<line class="st54" x1="191.2" y1="1035" x2="1030.7" y2="1035"/>
		<line class="st54" x1="191.2" y1="1047.8" x2="1030.7" y2="1047.8"/>
		<line class="st54" x1="191.2" y1="1060.7" x2="1030.7" y2="1060.7"/>
		<line class="st54" x1="191.2" y1="1073.5" x2="1030.7" y2="1073.5"/>
		<line class="st54" x1="191.2" y1="1086.3" x2="1030.7" y2="1086.3"/>
		<line class="st54" x1="191.2" y1="1099.2" x2="1030.7" y2="1099.2"/>
		<line class="st54" x1="191.2" y1="1112" x2="1030.7" y2="1112"/>
		<line class="st54" x1="191.2" y1="1124.8" x2="1030.7" y2="1124.8"/>
		<line class="st54" x1="191.2" y1="1137.7" x2="1030.7" y2="1137.7"/>
		<line class="st54" x1="191.2" y1="1150.5" x2="1030.7" y2="1150.5"/>
		<line class="st54" x1="191.2" y1="1163.3" x2="1030.7" y2="1163.3"/>
		<line class="st54" x1="191.2" y1="1176.2" x2="1030.7" y2="1176.2"/>
		<line class="st54" x1="191.2" y1="1189" x2="1030.7" y2="1189"/>
		<line class="st54" x1="191.2" y1="1201.8" x2="1030.7" y2="1201.8"/>
		<line class="st54" x1="191.2" y1="1214.7" x2="1030.7" y2="1214.7"/>
		<line class="st54" x1="191.2" y1="1227.5" x2="1030.7" y2="1227.5"/>
		<line class="st54" x1="191.2" y1="1240.3" x2="1030.7" y2="1240.3"/>
		<line class="st54" x1="191.2" y1="1253.2" x2="1030.7" y2="1253.2"/>
		<line class="st54" x1="191.2" y1="1266" x2="1030.7" y2="1266"/>
	</g>
	
		<linearGradient id="SVGID_3_" gradientUnits="userSpaceOnUse" x1="195.3571" y1="1082.4752" x2="808.0389" y2="1082.4752" gradientTransform="matrix(0.1456 0.9893 -0.9893 0.1456 1275.1213 -164.4273)">
		<stop  offset="0" style="stop-color:#CD0028"/>
		<stop  offset="1" style="stop-color:#F04114"/>
	</linearGradient>
	<path class="st55" d="M47.9,523.1c71.5-152.4-37.3-371.7,233.3-325.2c163.8,28.2,331.3,203.9,313.1,374.6
		c-24.6,231.2-197.3,189-364,212.5c-72.9,10.3-126.7,71.8-195.8,20.3C-37.3,751.7,21,580.4,47.9,523.1z"/>
	<path class="st56" d="M388.7,988.9c-50.7-3.6-89.1-20.6-114.1-50.4c-15.2-18.1-24.3-39.6-29.3-61.9"/>
	<path class="st56" d="M875.7,1071.9c-7.9,31.6-17.8,70.9-68,92"/>
	<linearGradient id="SVGID_4_" gradientUnits="userSpaceOnUse" x1="413.1952" y1="561.74" x2="1356.5378" y2="561.74">
		<stop  offset="0" style="stop-color:#CD0028"/>
		<stop  offset="1" style="stop-color:#F04114"/>
	</linearGradient>
	<path class="st57" d="M753.3,893.6c-117.2-77.9-306-48.3-336-207.9C387.1,524.5,528.4,353,636.9,250.6
		c253.2-239.3,490.5-262.1,674.3,45.8c35.7,59.8,69.8,161.8,21.4,243.9c-28.1,47.7-114.9,54.7-123.1,112.9
		c-14.7,105.6,125.1,186.4,58.5,319.8C1169.3,1170.7,850.8,958.4,753.3,893.6z"/>
	<path class="st56" d="M161.2,506.6C143.8,343.1,237,307.7,335.8,270.2"/>
	<path class="st56" d="M1069.8,206.2c47.3,42.3,87,90.5,114.9,139.4c31.1,54.5,46.8,107.8,46.8,158.4"/>
	<path class="st56" d="M509.6,171.8c57.7-42.7,117.3-86.9,182.8-101.5"/>
	<linearGradient id="SVGID_5_" gradientUnits="userSpaceOnUse" x1="456.7289" y1="948.7025" x2="921.9302" y2="142.9502">
		<stop  offset="0" style="stop-color:#B50028"/>
		<stop  offset="0.1759" style="stop-color:#CD0028"/>
		<stop  offset="1" style="stop-color:#F04114"/>
	</linearGradient>
	<path class="st58" d="M1198.7,504c0,121.8-32.8,259.5-136.2,335.8c-122,90-256,30.6-392.9,45.9c-123.4,13.7-234,83.2-306.6,1.9
		c-46.5-52.1-23.5-125-45.3-169.3c-38.5-78.3-113.8-121.1-123.9-215.1c-17.2-161.3,82.8-171.2,204.2-222
		c101.5-42.5,197.2-155.4,301.4-178.6C899.8,57.9,1198.7,301.5,1198.7,504z"/>
	
		<linearGradient id="SVGID_6_" gradientUnits="userSpaceOnUse" x1="1155.3594" y1="691.1885" x2="1153.2098" y2="646.9658" gradientTransform="matrix(0.9581 0.2866 -0.2866 0.9581 93.4863 -58.8494)">
		<stop  offset="0" style="stop-color:#CD0028"/>
		<stop  offset="1" style="stop-color:#F04114"/>
	</linearGradient>
	<path class="st59" d="M1033.6,923.9c-6.4,25.6-52.3,7.9-54-10.8c-1.4-14.7,23.5-24.3,34.5-21.3
		C1029.8,896,1037.2,909.7,1033.6,923.9z"/>
	
		<linearGradient id="SVGID_7_" gradientUnits="userSpaceOnUse" x1="400.2671" y1="374.4179" x2="393.212" y2="389.2386" gradientTransform="matrix(-0.9969 -7.920000e-02 7.920000e-02 -0.9969 1414.9883 1285.3024)">
		<stop  offset="0" style="stop-color:#CD0028"/>
		<stop  offset="1" style="stop-color:#F04114"/>
	</linearGradient>
	<path class="st60" d="M1041.8,874.8c-2.9-9.4,9.2-12.1,14.1-7.2C1065.8,877.6,1046.2,889,1041.8,874.8z"/>
	
		<linearGradient id="SVGID_8_" gradientUnits="userSpaceOnUse" x1="654.4691" y1="856.0485" x2="653.1408" y2="826.1826" gradientTransform="matrix(0.843 0.538 -0.538 0.843 207.6645 -248.1333)">
		<stop  offset="0" style="stop-color:#CD0028"/>
		<stop  offset="1" style="stop-color:#F04114"/>
	</linearGradient>
	<path class="st61" d="M318.6,818.8c-3.6,19.2-20.3,10.6-24.2-2.5C286.3,789.5,324.1,789.9,318.6,818.8z"/>
	<path class="st62" d="M448.8,193.9l-4,4.6l-4.6-4c-2.5-2.2-6.4-2-8.6,0.6c-2.2,2.5-1.9,6.4,0.6,8.6l4.6,4l-4,4.6
		c-2.2,2.5-1.9,6.4,0.6,8.6c2.5,2.2,6.4,2,8.6-0.6l4-4.6l4.6,4c2.5,2.2,6.4,2,8.6-0.6c2.2-2.5,1.9-6.4-0.6-8.6l-4.6-4l4-4.6
		c2.2-2.5,1.9-6.4-0.6-8.6S451,191.3,448.8,193.9z"/>
	<path class="st62" d="M800.9,22.1l-12,35.2c-0.1,0.3,0.2,0.6,0.5,0.5l36.4-7.2c0.3-0.1,0.4-0.4,0.2-0.6L801.6,22
		C801.4,21.7,801,21.8,800.9,22.1z"/>
	<path class="st62" d="M1304.2,605.6l-14.5,29.9c-0.1,0.2,0.1,0.5,0.3,0.5l33.1-2.4c0.3,0,0.4-0.3,0.3-0.6l-18.6-27.5
		C1304.6,605.3,1304.3,605.3,1304.2,605.6z"/>
	<path class="st62" d="M140.6,555.1l-6.2-1.7l1.7-6.3c0.9-3.5-1.1-7-4.6-7.9c-3.4-0.9-7,1.1-7.9,4.6l-1.7,6.3l-6.2-1.7
		c-3.4-0.9-7,1.1-7.9,4.6s1.1,7,4.6,7.9l6.2,1.7l-1.7,6.3c-0.9,3.5,1.1,7,4.6,7.9s7-1.1,7.9-4.6l1.7-6.3l6.2,1.7
		c3.4,0.9,7-1.1,7.9-4.6C146.1,559.6,144,556,140.6,555.1z"/>
	<path class="st62" d="M463.9,1003.7l-4.4,2.2l-2.2-4.4c-1.2-2.4-4.2-3.4-6.6-2.2c-2.4,1.2-3.4,4.2-2.2,6.6l2.2,4.4l-4.4,2.2
		c-2.4,1.2-3.4,4.2-2.2,6.6c1.2,2.4,4.2,3.4,6.6,2.2l4.4-2.2l2.2,4.4c1.2,2.4,4.2,3.4,6.6,2.2s3.4-4.2,2.2-6.6l-2.2-4.4l4.4-2.2
		c2.4-1.2,3.4-4.2,2.2-6.6C469.3,1003.4,466.3,1002.4,463.9,1003.7z"/>
	<path class="st62" d="M902.6,1014.5l6.1,29.8c0,0.2,0.3,0.3,0.5,0.2l22.7-20.2c0.2-0.2,0.1-0.5-0.1-0.5l-28.8-9.6
		C902.8,1014,902.5,1014.2,902.6,1014.5z"/>
	<path class="st62" d="M1213.6,812.3l-8.9,4.4l-4.4-8.9c-2.4-4.9-8.4-6.9-13.2-4.5c-4.9,2.4-6.9,8.4-4.5,13.3l4.4,8.9l-8.9,4.4
		c-4.9,2.4-6.9,8.4-4.5,13.3c2.4,4.9,8.4,6.9,13.2,4.5l8.9-4.4l4.4,8.9c2.4,4.9,8.4,6.9,13.2,4.5c4.9-2.4,6.9-8.4,4.5-13.3l-4.4-8.9
		l8.9-4.4c4.9-2.4,6.9-8.4,4.5-13.3C1224.4,811.9,1218.5,809.9,1213.6,812.3z"/>
	<ellipse class="st62" cx="1099.7" cy="1053.4" rx="29.9" ry="30"/>
	<ellipse class="st62" cx="953.2" cy="159.5" rx="46.6" ry="46.7"/>
	<path class="st62" d="M265.8,191.5c0,10.1-8.2,18.4-18.3,18.4c-10.1,0-18.3-8.2-18.3-18.4c0-10.2,8.2-18.4,18.3-18.4
		C257.6,173.1,265.8,181.4,265.8,191.5z"/>
	<g>
		<defs>
			<path id="SVGID_9_" d="M160.8,620.3c-46-124.2,194.1-190.5,217.1-74.3c6.3,32-63,114.9-87.5,129.7
				C230.2,712.1,188,694,160.8,620.3z"/>
		</defs>
		<clipPath id="SVGID_10_">
			<use xlink:href="#SVGID_9_"  style="overflow:visible;"/>
		</clipPath>
		<line class="st63" x1="137.5" y1="435.6" x2="437.6" y2="435.6"/>
		<line class="st63" x1="137.5" y1="448.4" x2="437.6" y2="448.4"/>
		<line class="st63" x1="137.5" y1="461.3" x2="437.6" y2="461.3"/>
		<line class="st63" x1="137.5" y1="474.1" x2="437.6" y2="474.1"/>
		<line class="st63" x1="137.5" y1="486.9" x2="437.6" y2="486.9"/>
		<line class="st63" x1="137.5" y1="499.8" x2="437.6" y2="499.8"/>
		<line class="st63" x1="137.5" y1="512.6" x2="437.6" y2="512.6"/>
		<line class="st63" x1="137.5" y1="525.4" x2="437.6" y2="525.4"/>
		<line class="st63" x1="137.5" y1="538.3" x2="437.6" y2="538.3"/>
		<line class="st63" x1="137.5" y1="551.1" x2="437.6" y2="551.1"/>
		<line class="st63" x1="137.5" y1="563.9" x2="437.6" y2="563.9"/>
		<line class="st63" x1="137.5" y1="576.8" x2="437.6" y2="576.8"/>
		<line class="st63" x1="137.5" y1="589.6" x2="437.6" y2="589.6"/>
		<line class="st63" x1="137.5" y1="602.4" x2="437.6" y2="602.4"/>
		<line class="st63" x1="137.5" y1="615.3" x2="437.6" y2="615.3"/>
		<line class="st63" x1="137.5" y1="628.1" x2="437.6" y2="628.1"/>
		<line class="st63" x1="137.5" y1="640.9" x2="437.6" y2="640.9"/>
		<line class="st63" x1="137.5" y1="653.8" x2="437.6" y2="653.8"/>
		<line class="st63" x1="137.5" y1="666.6" x2="437.6" y2="666.6"/>
		<line class="st63" x1="137.5" y1="679.4" x2="437.6" y2="679.4"/>
		<line class="st63" x1="137.5" y1="692.3" x2="437.6" y2="692.3"/>
		<line class="st63" x1="137.5" y1="705.1" x2="437.6" y2="705.1"/>
		<line class="st63" x1="137.5" y1="717.9" x2="437.6" y2="717.9"/>
		<line class="st63" x1="137.5" y1="730.8" x2="437.6" y2="730.8"/>
		<line class="st63" x1="137.5" y1="743.6" x2="437.6" y2="743.6"/>
		<line class="st63" x1="137.5" y1="756.4" x2="437.6" y2="756.4"/>
		<line class="st63" x1="137.5" y1="769.3" x2="437.6" y2="769.3"/>
		<line class="st63" x1="137.5" y1="782.1" x2="437.6" y2="782.1"/>
		<line class="st63" x1="137.5" y1="794.9" x2="437.6" y2="794.9"/>
		<line class="st63" x1="137.5" y1="807.8" x2="437.6" y2="807.8"/>
	</g>
	<ellipse class="st62" cx="145.4" cy="915.2" rx="41.7" ry="41.8"/>
	<g class="st64">
		<defs>
			<path id="SVGID_11_" class="st64" d="M1198.7,504c0,121.8-32.8,259.5-136.2,335.8c-122,90-256,30.6-392.9,45.9
				c-123.4,13.7-234,83.2-306.6,1.9c-46.5-52.1-23.5-125-45.3-169.3c-38.5-78.3-113.8-121.1-123.9-215.1
				c-17.2-161.3,82.8-171.2,204.2-222c101.5-42.5,197.2-155.4,301.4-178.6C899.8,57.9,1198.7,301.5,1198.7,504z"/>
		</defs>
		<clipPath id="SVGID_12_">
			<use xlink:href="#SVGID_11_"  style="overflow:visible;"/>
		</clipPath>
		<g class="st65">
			
				<ellipse transform="matrix(0.7443 -0.6679 0.6679 0.7443 -62.4564 664.3861)" class="st66" cx="836.4" cy="413.8" rx="376.7" ry="441.3"/>
			
				<ellipse transform="matrix(0.7443 -0.6679 0.6679 0.7443 -61.776 664.775)" class="st67" cx="837.2" cy="413.1" rx="369.6" ry="433.1"/>
			
				<ellipse transform="matrix(0.7443 -0.6679 0.6679 0.7443 -61.0955 665.1645)" class="st68" cx="838" cy="412.4" rx="362.5" ry="424.9"/>
			
				<ellipse transform="matrix(0.7443 -0.6679 0.6679 0.7443 -60.4148 665.5545)" class="st69" cx="838.9" cy="411.7" rx="355.3" ry="416.8"/>
			
				<ellipse transform="matrix(0.7442 -0.6679 0.6679 0.7442 -59.7339 665.9451)" class="st70" cx="839.7" cy="411" rx="348.2" ry="408.6"/>
			
				<ellipse transform="matrix(0.7442 -0.6679 0.6679 0.7442 -59.0527 666.3363)" class="st71" cx="840.5" cy="410.3" rx="341.1" ry="400.4"/>
			
				<ellipse transform="matrix(0.7442 -0.6679 0.6679 0.7442 -58.3714 666.7281)" class="st72" cx="841.3" cy="409.6" rx="334" ry="392.2"/>
			
				<ellipse transform="matrix(0.7442 -0.668 0.668 0.7442 -57.6898 667.1207)" class="st73" cx="842.2" cy="408.9" rx="326.9" ry="384"/>
			
				<ellipse transform="matrix(0.7442 -0.668 0.668 0.7442 -57.0079 667.514)" class="st74" cx="843" cy="408.2" rx="319.8" ry="375.8"/>
			
				<ellipse transform="matrix(0.7442 -0.668 0.668 0.7442 -56.3258 667.9081)" class="st75" cx="843.8" cy="407.5" rx="312.7" ry="367.7"/>
			
				<ellipse transform="matrix(0.7442 -0.668 0.668 0.7442 -55.6433 668.303)" class="st76" cx="844.6" cy="406.8" rx="305.6" ry="359.5"/>
			
				<ellipse transform="matrix(0.7441 -0.668 0.668 0.7441 -54.9606 668.6988)" class="st77" cx="845.5" cy="406.1" rx="298.5" ry="351.3"/>
			
				<ellipse transform="matrix(0.7441 -0.668 0.668 0.7441 -54.2776 669.0955)" class="st78" cx="846.3" cy="405.4" rx="291.3" ry="343.1"/>
			
				<ellipse transform="matrix(0.7441 -0.6681 0.6681 0.7441 -53.5942 669.4932)" class="st79" cx="847.1" cy="404.7" rx="284.2" ry="334.9"/>
			
				<ellipse transform="matrix(0.7441 -0.6681 0.6681 0.7441 -52.9104 669.8919)" class="st80" cx="847.9" cy="404" rx="277.1" ry="326.7"/>
			
				<ellipse transform="matrix(0.7441 -0.6681 0.6681 0.7441 -52.2263 670.2918)" class="st81" cx="848.8" cy="403.3" rx="270" ry="318.6"/>
			
				<ellipse transform="matrix(0.744 -0.6681 0.6681 0.744 -51.5417 670.6928)" class="st82" cx="849.6" cy="402.6" rx="262.9" ry="310.4"/>
			
				<ellipse transform="matrix(0.744 -0.6682 0.6682 0.744 -50.8567 671.0952)" class="st83" cx="850.4" cy="401.9" rx="255.8" ry="302.2"/>
			
				<ellipse transform="matrix(0.744 -0.6682 0.6682 0.744 -50.1713 671.4988)" class="st84" cx="851.2" cy="401.2" rx="248.7" ry="294"/>
			
				<ellipse transform="matrix(0.744 -0.6682 0.6682 0.744 -49.4853 671.904)" class="st85" cx="852.1" cy="400.5" rx="241.6" ry="285.8"/>
			
				<ellipse transform="matrix(0.744 -0.6682 0.6682 0.744 -48.7987 672.3107)" class="st86" cx="852.9" cy="399.8" rx="234.5" ry="277.6"/>
			
				<ellipse transform="matrix(0.7439 -0.6683 0.6683 0.7439 -48.1116 672.7192)" class="st87" cx="853.7" cy="399.1" rx="227.3" ry="269.5"/>
			
				<ellipse transform="matrix(0.7439 -0.6683 0.6683 0.7439 -47.4238 673.1294)" class="st88" cx="854.5" cy="398.4" rx="220.2" ry="261.3"/>
			
				<ellipse transform="matrix(0.7439 -0.6683 0.6683 0.7439 -46.7354 673.5416)" class="st89" cx="855.4" cy="397.7" rx="213.1" ry="253.1"/>
			
				<ellipse transform="matrix(0.7438 -0.6684 0.6684 0.7438 -46.0462 673.956)" class="st90" cx="856.2" cy="397" rx="206" ry="244.9"/>
			
				<ellipse transform="matrix(0.7438 -0.6684 0.6684 0.7438 -45.3562 674.3727)" class="st91" cx="857" cy="396.4" rx="198.9" ry="236.7"/>
			
				<ellipse transform="matrix(0.7438 -0.6684 0.6684 0.7438 -44.6653 674.7919)" class="st92" cx="857.9" cy="395.7" rx="191.8" ry="228.5"/>
			
				<ellipse transform="matrix(0.7437 -0.6685 0.6685 0.7437 -43.9734 675.2139)" class="st93" cx="858.7" cy="395" rx="184.7" ry="220.4"/>
			
				<ellipse transform="matrix(0.7437 -0.6685 0.6685 0.7437 -43.2805 675.6388)" class="st94" cx="859.5" cy="394.3" rx="177.6" ry="212.2"/>
			
				<ellipse transform="matrix(0.7437 -0.6686 0.6686 0.7437 -42.5865 676.067)" class="st95" cx="860.3" cy="393.6" rx="170.4" ry="204"/>
			
				<ellipse transform="matrix(0.7436 -0.6686 0.6686 0.7436 -41.8912 676.4989)" class="st96" cx="861.2" cy="392.9" rx="163.3" ry="195.8"/>
			
				<ellipse transform="matrix(0.7436 -0.6687 0.6687 0.7436 -41.1945 676.9348)" class="st97" cx="862" cy="392.2" rx="156.2" ry="187.6"/>
			
				<ellipse transform="matrix(0.7435 -0.6687 0.6687 0.7435 -40.4963 677.3749)" class="st98" cx="862.8" cy="391.5" rx="149.1" ry="179.4"/>
			
				<ellipse transform="matrix(0.7435 -0.6688 0.6688 0.7435 -39.7963 677.8201)" class="st99" cx="863.6" cy="390.8" rx="142" ry="171.3"/>
			
				<ellipse transform="matrix(0.7434 -0.6688 0.6688 0.7434 -39.0945 678.2706)" class="st100" cx="864.5" cy="390.1" rx="134.9" ry="163.1"/>
			
				<ellipse transform="matrix(0.7434 -0.6689 0.6689 0.7434 -38.3905 678.7273)" class="st101" cx="865.3" cy="389.4" rx="127.8" ry="154.9"/>
			
				<ellipse transform="matrix(0.7433 -0.669 0.669 0.7433 -37.6842 679.1907)" class="st102" cx="866.1" cy="388.7" rx="120.7" ry="146.7"/>
			
				<ellipse transform="matrix(0.7432 -0.6691 0.6691 0.7432 -36.9751 679.6619)" class="st103" cx="866.9" cy="388" rx="113.6" ry="138.5"/>
			
				<ellipse transform="matrix(0.7431 -0.6691 0.6691 0.7431 -36.263 680.1418)" class="st104" cx="867.8" cy="387.3" rx="106.4" ry="130.3"/>
			
				<ellipse transform="matrix(0.743 -0.6692 0.6692 0.743 -35.5474 680.6317)" class="st105" cx="868.6" cy="386.6" rx="99.3" ry="122.2"/>
			<path class="st106" d="M937.5,323.7c42.4,46.6,46.2,112.2,8.6,146.5c-37.6,34.4-102.4,24.5-144.8-22.1
				c-42.4-46.6-46.2-112.2-8.6-146.5C830.3,267.2,895.1,277.1,937.5,323.7z"/>
			<path class="st107" d="M933.1,327.8c39.3,43.2,43.1,104,8.4,135.7c-34.7,31.7-94.7,22.4-134-20.8c-39.3-43.2-43.1-104-8.4-135.7
				C833.7,275.2,893.7,284.6,933.1,327.8z"/>
			<path class="st108" d="M928.6,331.9c36.3,39.9,39.9,95.8,8.1,124.8c-31.8,29.1-87,20.3-123.2-19.6
				c-36.3-39.9-39.9-95.8-8.1-124.8C837.2,283.2,892.4,292,928.6,331.9z"/>
			<path class="st109" d="M924.2,336c33.2,36.5,36.7,87.6,7.9,114c-28.9,26.4-79.3,18.2-112.5-18.3c-33.2-36.5-36.7-87.6-7.9-114
				S891,299.5,924.2,336z"/>
			<path class="st110" d="M919.8,340.1c30.2,33.2,33.6,79.4,7.6,103.1c-26,23.8-71.5,16.1-101.7-17.1C795.5,393,792.1,346.8,818,323
				C844,299.3,889.6,306.9,919.8,340.1z"/>
			<path class="st111" d="M915.4,344.2c27.2,29.8,30.4,71.2,7.3,92.3c-23.1,21.1-63.8,14-91-15.8c-27.2-29.8-30.4-71.2-7.3-92.3
				C847.5,307.3,888.2,314.3,915.4,344.2z"/>
			<path class="st112" d="M910.9,348.3c24.1,26.5,27.3,63,7.1,81.4c-20.2,18.5-56.1,11.9-80.2-14.6c-24.1-26.5-27.3-63-7.1-81.4
				C850.9,315.3,886.8,321.8,910.9,348.3z"/>
			<path class="st113" d="M906.5,352.4c21.1,23.2,24.1,54.8,6.8,70.6c-17.3,15.8-48.4,9.9-69.5-13.3c-21.1-23.2-24.1-54.8-6.8-70.6
				C854.3,323.3,885.4,329.2,906.5,352.4z"/>
			<path class="st114" d="M902.1,356.5c18,19.8,21,46.6,6.6,59.7s-40.7,7.8-58.7-12c-18-19.8-21-46.6-6.6-59.7
				C857.8,331.3,884.1,336.7,902.1,356.5z"/>
			<path class="st115" d="M897.7,360.6c15,16.5,17.8,38.4,6.3,48.9c-11.5,10.5-33,5.7-48-10.8c-15-16.5-17.8-38.4-6.3-48.9
				C861.2,339.3,882.7,344.1,897.7,360.6z"/>
			<path class="st116" d="M893.2,364.7c11.9,13.1,14.7,30.2,6.1,38c-8.6,7.9-25.3,3.6-37.2-9.5c-11.9-13.1-14.7-30.2-6.1-38
				C864.6,347.3,881.3,351.6,893.2,364.7z"/>
			<path class="st117" d="M888.8,368.8c8.9,9.8,11.5,22,5.8,27.2s-17.5,1.5-26.5-8.3c-8.9-9.8-11.5-22-5.8-27.2
				S879.9,359,888.8,368.8z"/>
		</g>
	</g>
	<g>
		<defs>
			<path id="SVGID_13_" d="M1148,767.9c-85.6,13.2-124.3-62.9-132.2-133.8c-5.4-48.9,33.1-148.2,97.4-142.1
				c28.6,2.7,43.7,26,58.3,47.6c24.8,36.6,70.1,71.8,85.2,104.8C1284.2,704.1,1231.9,755,1148,767.9z"/>
		</defs>
		<clipPath id="SVGID_14_">
			<use xlink:href="#SVGID_13_"  style="overflow:visible;"/>
		</clipPath>
		<line class="st118" x1="983.2" y1="494.3" x2="1283.3" y2="494.3"/>
		<line class="st118" x1="983.2" y1="507.1" x2="1283.3" y2="507.1"/>
		<line class="st118" x1="983.2" y1="520" x2="1283.3" y2="520"/>
		<line class="st118" x1="983.2" y1="532.8" x2="1283.3" y2="532.8"/>
		<line class="st118" x1="983.2" y1="545.6" x2="1283.3" y2="545.6"/>
		<line class="st118" x1="983.2" y1="558.5" x2="1283.3" y2="558.5"/>
		<line class="st118" x1="983.2" y1="571.3" x2="1283.3" y2="571.3"/>
		<line class="st118" x1="983.2" y1="584.1" x2="1283.3" y2="584.1"/>
		<line class="st118" x1="983.2" y1="597" x2="1283.3" y2="597"/>
		<line class="st118" x1="983.2" y1="609.8" x2="1283.3" y2="609.8"/>
		<line class="st118" x1="983.2" y1="622.6" x2="1283.3" y2="622.6"/>
		<line class="st118" x1="983.2" y1="635.5" x2="1283.3" y2="635.5"/>
		<line class="st118" x1="983.2" y1="648.3" x2="1283.3" y2="648.3"/>
		<line class="st118" x1="983.2" y1="661.1" x2="1283.3" y2="661.1"/>
		<line class="st118" x1="983.2" y1="674" x2="1283.3" y2="674"/>
		<line class="st118" x1="983.2" y1="686.8" x2="1283.3" y2="686.8"/>
		<line class="st118" x1="983.2" y1="699.6" x2="1283.3" y2="699.6"/>
		<line class="st118" x1="983.2" y1="712.5" x2="1283.3" y2="712.5"/>
		<line class="st118" x1="983.2" y1="725.3" x2="1283.3" y2="725.3"/>
		<line class="st118" x1="983.2" y1="738.1" x2="1283.3" y2="738.1"/>
		<line class="st118" x1="983.2" y1="751" x2="1283.3" y2="751"/>
		<line class="st118" x1="983.2" y1="763.8" x2="1283.3" y2="763.8"/>
		<line class="st118" x1="983.2" y1="776.6" x2="1283.3" y2="776.6"/>
		<line class="st118" x1="983.2" y1="789.5" x2="1283.3" y2="789.5"/>
		<line class="st118" x1="983.2" y1="802.3" x2="1283.3" y2="802.3"/>
		<line class="st118" x1="983.2" y1="815.1" x2="1283.3" y2="815.1"/>
		<line class="st118" x1="983.2" y1="828" x2="1283.3" y2="828"/>
		<line class="st118" x1="983.2" y1="840.8" x2="1283.3" y2="840.8"/>
		<line class="st118" x1="983.2" y1="853.6" x2="1283.3" y2="853.6"/>
		<line class="st118" x1="983.2" y1="866.5" x2="1283.3" y2="866.5"/>
	</g>
	<g>
		<defs>
			<path id="SVGID_15_" d="M1198.7,504c0,121.8-32.8,259.5-136.2,335.8c-122,90-256,30.6-392.9,45.9c-123.4,13.7-234,83.2-306.6,1.9
				c-46.5-52.1-23.5-125-45.3-169.3c-38.5-78.3-113.8-121.1-123.9-215.1c-17.2-161.3,82.8-171.2,204.2-222
				c101.5-42.5,197.2-155.4,301.4-178.6C899.8,57.9,1198.7,301.5,1198.7,504z"/>
		</defs>
		<clipPath id="SVGID_16_">
			<use xlink:href="#SVGID_15_"  style="overflow:visible;"/>
		</clipPath>
		<ellipse class="st119" cx="953.2" cy="159.5" rx="46.6" ry="46.7"/>
		<g class="st120">
			<defs>
				<path id="SVGID_17_" d="M160.8,620.3c-46-124.2,194.1-190.5,217.1-74.3c6.3,32-63,114.9-87.5,129.7
					C230.2,712.1,188,694,160.8,620.3z"/>
			</defs>
			<clipPath id="SVGID_18_">
				<use xlink:href="#SVGID_17_"  style="overflow:visible;"/>
			</clipPath>
			<line class="st121" x1="137.5" y1="435.6" x2="437.6" y2="435.6"/>
			<line class="st121" x1="137.5" y1="448.4" x2="437.6" y2="448.4"/>
			<line class="st121" x1="137.5" y1="461.3" x2="437.6" y2="461.3"/>
			<line class="st121" x1="137.5" y1="474.1" x2="437.6" y2="474.1"/>
			<line class="st121" x1="137.5" y1="486.9" x2="437.6" y2="486.9"/>
			<line class="st121" x1="137.5" y1="499.8" x2="437.6" y2="499.8"/>
			<line class="st121" x1="137.5" y1="512.6" x2="437.6" y2="512.6"/>
			<line class="st121" x1="137.5" y1="525.4" x2="437.6" y2="525.4"/>
			<line class="st121" x1="137.5" y1="538.3" x2="437.6" y2="538.3"/>
			<line class="st121" x1="137.5" y1="551.1" x2="437.6" y2="551.1"/>
			<line class="st121" x1="137.5" y1="563.9" x2="437.6" y2="563.9"/>
			<line class="st121" x1="137.5" y1="576.8" x2="437.6" y2="576.8"/>
			<line class="st121" x1="137.5" y1="589.6" x2="437.6" y2="589.6"/>
			<line class="st121" x1="137.5" y1="602.4" x2="437.6" y2="602.4"/>
			<line class="st121" x1="137.5" y1="615.3" x2="437.6" y2="615.3"/>
			<line class="st121" x1="137.5" y1="628.1" x2="437.6" y2="628.1"/>
			<line class="st121" x1="137.5" y1="640.9" x2="437.6" y2="640.9"/>
			<line class="st121" x1="137.5" y1="653.8" x2="437.6" y2="653.8"/>
			<line class="st121" x1="137.5" y1="666.6" x2="437.6" y2="666.6"/>
			<line class="st121" x1="137.5" y1="679.4" x2="437.6" y2="679.4"/>
			<line class="st121" x1="137.5" y1="692.3" x2="437.6" y2="692.3"/>
			<line class="st121" x1="137.5" y1="705.1" x2="437.6" y2="705.1"/>
			<line class="st121" x1="137.5" y1="717.9" x2="437.6" y2="717.9"/>
			<line class="st121" x1="137.5" y1="730.8" x2="437.6" y2="730.8"/>
			<line class="st121" x1="137.5" y1="743.6" x2="437.6" y2="743.6"/>
			<line class="st121" x1="137.5" y1="756.4" x2="437.6" y2="756.4"/>
			<line class="st121" x1="137.5" y1="769.3" x2="437.6" y2="769.3"/>
			<line class="st121" x1="137.5" y1="782.1" x2="437.6" y2="782.1"/>
			<line class="st121" x1="137.5" y1="794.9" x2="437.6" y2="794.9"/>
			<line class="st121" x1="137.5" y1="807.8" x2="437.6" y2="807.8"/>
		</g>
		<g class="st122">
			<defs>
				<path id="SVGID_19_" class="st123" d="M1148,767.9c-85.6,13.2-124.3-62.9-132.2-133.8c-5.4-48.9,33.1-148.2,97.4-142.1
					c28.6,2.7,43.7,26,58.3,47.6c24.8,36.6,70.1,71.8,85.2,104.8C1284.2,704.1,1231.9,755,1148,767.9z"/>
			</defs>
			<clipPath id="SVGID_20_">
				<use xlink:href="#SVGID_19_"  style="overflow:visible;"/>
			</clipPath>
			<line class="st124" x1="983.2" y1="494.3" x2="1283.3" y2="494.3"/>
			<line class="st124" x1="983.2" y1="507.1" x2="1283.3" y2="507.1"/>
			<line class="st124" x1="983.2" y1="520" x2="1283.3" y2="520"/>
			<line class="st124" x1="983.2" y1="532.8" x2="1283.3" y2="532.8"/>
			<line class="st124" x1="983.2" y1="545.6" x2="1283.3" y2="545.6"/>
			<line class="st124" x1="983.2" y1="558.5" x2="1283.3" y2="558.5"/>
			<line class="st124" x1="983.2" y1="571.3" x2="1283.3" y2="571.3"/>
			<line class="st124" x1="983.2" y1="584.1" x2="1283.3" y2="584.1"/>
			<line class="st124" x1="983.2" y1="597" x2="1283.3" y2="597"/>
			<line class="st124" x1="983.2" y1="609.8" x2="1283.3" y2="609.8"/>
			<line class="st124" x1="983.2" y1="622.6" x2="1283.3" y2="622.6"/>
			<line class="st124" x1="983.2" y1="635.5" x2="1283.3" y2="635.5"/>
			<line class="st124" x1="983.2" y1="648.3" x2="1283.3" y2="648.3"/>
			<line class="st124" x1="983.2" y1="661.1" x2="1283.3" y2="661.1"/>
			<line class="st124" x1="983.2" y1="674" x2="1283.3" y2="674"/>
			<line class="st124" x1="983.2" y1="686.8" x2="1283.3" y2="686.8"/>
			<line class="st124" x1="983.2" y1="699.6" x2="1283.3" y2="699.6"/>
			<line class="st124" x1="983.2" y1="712.5" x2="1283.3" y2="712.5"/>
			<line class="st124" x1="983.2" y1="725.3" x2="1283.3" y2="725.3"/>
			<line class="st124" x1="983.2" y1="738.1" x2="1283.3" y2="738.1"/>
			<line class="st124" x1="983.2" y1="751" x2="1283.3" y2="751"/>
			<line class="st124" x1="983.2" y1="763.8" x2="1283.3" y2="763.8"/>
			<line class="st124" x1="983.2" y1="776.6" x2="1283.3" y2="776.6"/>
			<line class="st124" x1="983.2" y1="789.5" x2="1283.3" y2="789.5"/>
			<line class="st124" x1="983.2" y1="802.3" x2="1283.3" y2="802.3"/>
			<line class="st124" x1="983.2" y1="815.1" x2="1283.3" y2="815.1"/>
			<line class="st124" x1="983.2" y1="828" x2="1283.3" y2="828"/>
			<line class="st124" x1="983.2" y1="840.8" x2="1283.3" y2="840.8"/>
			<line class="st124" x1="983.2" y1="853.6" x2="1283.3" y2="853.6"/>
			<line class="st124" x1="983.2" y1="866.5" x2="1283.3" y2="866.5"/>
		</g>
	</g>
</g>
<g id="Layer_1">
	<title>window_shopping</title>
	<rect x="409.9" y="311.7" class="st125" width="665" height="433.7"/>
	<ellipse class="st126" cx="523.8" cy="667.1" rx="56.3" ry="8.9"/>
	<rect x="514.9" y="340.5" class="st126" width="17.8" height="326.7"/>
	<circle class="st126" cx="523.8" cy="349.4" r="22.6"/>
	<path class="st127" d="M573.9,370c0,0-8.9,19.2-15.8,59L519,385.8c0,0,10.5-4.2,21.7-9C551.2,372.3,562.5,370,573.9,370L573.9,370z
		"/>
	<path class="st128" d="M573.9,370c0,0-8.9,19.2-15.8,59L519,385.8c0,0,10.5-4.2,21.7-9C551.2,372.3,562.5,370,573.9,370L573.9,370z
		"/>
	<path class="st127" d="M475.1,370c0,0,12.4,36.4,13,50.8v17.2h72.1v-17.8c-8.8-11.1-18.7-21.3-29.6-30.4
		C514.8,376.9,495.3,370,475.1,370L475.1,370z"/>
	<path class="st127" d="M488.1,437.9c0,0-18.5,22-19.9,48s11.7,103.6,11.7,103.6s43.9,15.8,87.8,0c0,0,13.7-79.6,12.4-105
		s-27.8-58.7-27.8-58.7L488.1,437.9z"/>
	<path class="st128" d="M533.1,418.4c0,0,8.9-0.7,14.4,2.1s12.7,3,12.7,3"/>
	<path class="st128" d="M533.1,422.5c0,0,8.9-0.7,14.4,2.1s12.7,3,12.7,3"/>
	<path class="st128" d="M533.1,428c0,0,8.9-0.7,14.4,2.1s12.7,3,12.7,3"/>
	<path class="st128" d="M491.9,438.3c0,0-5.5,14.4-4.8,16.5s-5.5,14.4-5.5,14.4"/>
	<path class="st128" d="M496,447.2c0,0-5.5,14.4-4.8,16.5s-5.5,14.4-5.5,14.4"/>
	<path class="st128" d="M557.8,438.3c0,0,5.5,14.4,4.8,16.5s5.5,14.4,5.5,14.4"/>
	<path class="st128" d="M553.6,447.2c0,0,5.5,14.4,4.8,16.5s5.5,14.4,5.5,14.4"/>
	<ellipse class="st126" cx="738.6" cy="710.4" rx="56.3" ry="8.9"/>
	<rect x="729.7" y="383.7" class="st126" width="17.8" height="326.7"/>
	<circle class="st126" cx="738.6" cy="392.6" r="22.6"/>
	<path class="st127" d="M703.9,497.3l-81.7,113.2l22.7,8.9c0,0-4.1,4.1-1.4,6.2c0,0,9.6,8.9,35,10.3c0,0,7.5-10.3,22.7,3.4
		c15.1,13.7,33.6,2.8,33.6,2.8s13.7-11.7,29.5-0.7S800,636,800,636s10.3-15.1,32.3-9.6c22,5.5,22-15.1,22-15.1l-83-116.7
		L703.9,497.3z"/>
	<g class="st129">
		<path class="st130" d="M833.8,626.7c6,1.2,10.2,0.4,13.2-1.4C842.6,624.8,838.1,625.3,833.8,626.7z"/>
		<path class="st130" d="M664.1,625.6c-2.7-2.1,1.4-6.2,1.4-6.2l-22.7-8.9l61.1-113.2l-81.7,113.2l22.7,8.9c0,0-4.1,4.1-1.4,6.2
			c0,0,9.6,8.9,35,10.3c0.9-1,1.9-1.9,3.1-2.5C669.2,630.3,664.1,625.6,664.1,625.6z"/>
		<path class="st130" d="M721.8,639.3c-15.1-13.7-22.7-3.4-22.7-3.4c-0.8,0-1.7-0.1-2.5-0.2c1.6,1.1,3.1,2.3,4.6,3.6
			c10.2,9.3,21.9,7.3,28.5,5C726.8,643.2,724.1,641.5,721.8,639.3z"/>
		<path class="st130" d="M784.9,641.5c-10-7-19.2-4.8-24.6-2.3c1.4,0.7,2.7,1.4,4,2.3c7.7,5.4,16.4,4.2,23.2,1.6
			C786.7,642.6,785.8,642,784.9,641.5z"/>
	</g>
	<path class="st127" d="M778.1,506.6h-76.9c0,0-4.8-58.3-11.7-67.3c2.8-1.2,5.7-2.3,8.7-3.2c4.6-1.4,9.3-2.6,14-3.5
		c16.3-3.1,33-3.3,49.4-0.5c4.8,0.8,9.5,1.9,14.1,3.3c3.7,1.1,7.4,2.3,11.2,3.8C792.7,441.5,773.3,494.2,778.1,506.6z"/>
	<path class="st131" d="M721.7,506.6h-10.2c-0.1-12.9-9.6-54.6-13.3-70.4c4.6-1.4,9.3-2.6,14-3.5C713,449.2,719.8,494.3,721.7,506.6
		z"/>
	<path class="st131" d="M775.7,435.5c-3.5,15.2-13.3,58-13.4,71.1h-10.2c1.9-12.3,8.8-58.1,9.5-74.4
		C766.4,433,771.1,434.1,775.7,435.5z"/>
	<ellipse class="st126" cx="952" cy="669.2" rx="56.3" ry="8.9"/>
	<rect x="943.1" y="342.5" class="st126" width="17.8" height="326.7"/>
	<circle class="st126" cx="952" cy="351.5" r="22.7"/>
	<path class="st127" d="M991.4,459.6c-0.7-2.2-1.3-4.3-1.9-6.2V428l8.2-35c-19.2-28.1-46,0-46,0c-29.5-26.1-44.6,0-44.6,0
		c2.1,4.8,6.9,35,6.9,35v29c-10.9,22.9-14.2,48.3-12.7,73.8l5.1,87.4c0,0,49.4,19.2,90.6,0l4.1-73.3
		C1002.7,516.1,999.5,487.3,991.4,459.6z"/>
	<g class="st129">
		<path d="M962.3,393.7c0,0,9.7-10.2,21.7-12.2c-10.9-3.5-21.7,3-27.5,7.6C958.5,390.5,960.5,392,962.3,393.7z"/>
		<path d="M917,618.8l-5.1-87.4c-1.5-25.5,1.8-50.9,12.7-73.8v-29c0,0-4.8-30.2-6.9-35c0,0,5.5-9.5,16.4-11.3
			c-17.7-4.9-26.7,10.6-26.7,10.6c2.1,4.8,6.9,35,6.9,35v29c-10.9,22.9-14.2,48.3-12.7,73.8l5.1,87.4c14.5,5.1,29.7,8,45,8.5
			C939.9,625.4,928.3,622.8,917,618.8z"/>
	</g>
	<g class="st129">
		<path d="M941.7,393c1.5-1.5,3.2-3,4.9-4.3c-10-7.2-18.1-8.2-24.3-6.7C927.9,383.2,934.4,386.5,941.7,393z"/>
		<path d="M991.7,459.6c-0.7-2.2-1.3-4.3-1.9-6.2V428l8.2-35c-8.1-11.9-17.5-13.7-25.8-11.9c5.3,1.3,10.6,4.8,15.5,11.9l-8.2,35
			v25.5c0.6,1.9,1.3,4,1.9,6.2c8.1,27.6,11.4,56.4,9.7,85.2l-4.1,73.3c-12,5.6-24.7,7.9-36.7,8.4c14.8,0.6,31.5-1.2,47-8.4l4.2-73.2
			C1003.1,516.1,999.8,487.3,991.7,459.6z"/>
	</g>
	<rect x="436.4" y="746" class="st132" width="60" height="32"/>
	<rect x="496.9" y="779.5" class="st125" width="60" height="32"/>
	<rect x="557.4" y="746" class="st125" width="60" height="32"/>
	<rect x="557.9" y="812.5" class="st125" width="60" height="32"/>
	<rect x="617.9" y="779.5" class="st125" width="60" height="32"/>
	<rect x="678.4" y="746" class="st125" width="60" height="32"/>
	<rect x="738.9" y="779.5" class="st125" width="60" height="32"/>
	<rect x="799.4" y="746" class="st125" width="60" height="32"/>
	<rect x="799.9" y="812.5" class="st125" width="60" height="32"/>
	<rect x="859.9" y="779.5" class="st125" width="60" height="32"/>
	<rect x="1014.9" y="746.5" class="st125" width="60" height="32"/>
	<rect x="953.9" y="780.5" class="st125" width="60" height="32"/>
	<rect x="480.9" y="279.5" class="st125" width="60" height="32"/>
	<rect x="540.9" y="245.5" class="st125" width="60" height="32"/>
	<rect x="601.4" y="212" class="st125" width="60" height="32"/>
	<rect x="601.9" y="278.5" class="st125" width="60" height="32"/>
	<rect x="661.9" y="245.5" class="st125" width="60" height="32"/>
	<rect x="722.9" y="279.5" class="st125" width="60" height="32"/>
	<rect x="782.9" y="245.5" class="st125" width="60" height="32"/>
	<rect x="843.4" y="212" class="st125" width="60" height="32"/>
	<rect x="843.9" y="278.5" class="st125" width="60" height="32"/>
	<rect x="903.9" y="245.5" class="st125" width="60" height="32"/>
	<polygon class="st133" points="587.4,311.7 409.9,478.1 409.9,511.3 631.4,311.7 	"/>
	<polygon class="st133" points="409.9,558.1 409.9,625.1 799.9,311.7 742.4,310.5 	"/>
	
		<linearGradient id="SVGID_21_" gradientUnits="userSpaceOnUse" x1="703.8148" y1="150.6617" x2="703.8148" y2="654.5286" gradientTransform="matrix(1 0 0 -1 -245.62 1141.4636)">
		<stop  offset="0" style="stop-color:#808080;stop-opacity:0.25"/>
		<stop  offset="0.54" style="stop-color:#808080;stop-opacity:0.12"/>
		<stop  offset="1" style="stop-color:#808080;stop-opacity:0.1"/>
	</linearGradient>
	<path class="st134" d="M550,984.5l0.1-0.2l0.1-0.2l0.1-0.2c0-0.1,0-0.2,0.1-0.3c0-0.1,0-0.2,0-0.2s0-0.1,0-0.2s0-0.1,0-0.2
		s0-0.1,0-0.2s0-0.1,0-0.2c0.2-1.4-0.8-3.1-2.1-4.5c-1.7-2-4.2-3.1-6.8-3.3c-14.4-0.7-30.6-25.3-30.6-25.3l-0.6,0.5
		c-1.7-3.3-3.2-6.8-4.3-10.4h1.6v-0.4l0,0v-0.4l0,0l-2.2-23l6-68.9c1.9-4.1,3.2-8.4,4.2-12.9c0.3-1.6,0.5-3.3,0.5-5
		c0-0.1,0-0.2,0-0.4c0-3.7-0.9-7.4-2.6-10.7l-25.2-48.5c0.9,0.1,1.4,0.1,1.4,0.1c7.4-10.6,2.7-26.3-2.6-37.7c1.1-0.6,1.9-1,1.9-1
		c-0.3-0.1-0.5-0.2-0.7-0.4l0.7-0.3c-4.3-1.6-7.9-14-9.5-21l2.4-8.8c4,0.6,7.9,1.8,11.6,3.5c0,0-0.3-0.7-0.9-1.9l0,0l0.9,0.4
		c0,0-0.3-0.7-0.9-1.8l0,0c-3.1-6.7-13.1-30-13.4-50.5c0-2.7,0.3-5.5,0.7-8.1c0.5-2.6,0.7-5.2,0.6-7.8c0.5-11.9-5.9-23-16.4-28.7
		c0,0-9.8-8-12-17.5c-0.7-3.1-3-5.7-5.8-7.7c1-7.5,4.8-14.4,8.6-19.7c0.4-0.1,0.9-0.2,1.3-0.3c0.5-0.7,1-1.3,1.5-1.8
		c11.3-3.2,19.1-13.4,19.2-25.1c0-8.6-4.4-16.7-11.5-21.5c0.7-0.1,1.4-0.6,2.3-2c1.2-2,1.3-4.5,0.4-6.6c-0.7-1.6-1.8-2.9-3-4.1
		c-2-1.9-4.3-3.5-6.7-4.8c-5.6-3.3-11.5-6.7-18-7.5c-3.3-0.3-6.6-0.2-10,0.2l-15.1,1.4c-7.2,0.6-15.2,1.7-19.6,7.2s-3.8,13.6-8.3,19
		c-3.3,4-8.7,5.7-12.8,8.9c-7.5,5.9-9.4,16.5-7.7,25.7c1.7,9.2,6.5,17.6,10.6,26.1s7.5,17.7,6.4,27c-1,8-5.4,15.3-6.9,23.3
		c-1.1,5.9-0.7,12,1.2,17.6c0.3,1.2,0.9,2.2,1.7,3.1c0.1,0.1,0.3,0.2,0.4,0.3c0.1,0.1,0.2,0.3,0.4,0.4c1.5,1.4,3.7,1.6,5.8,1.6
		c5,0.2,10.1,0.2,14.7,2.1c1.5,0.7,3,1.6,4.2,2.7c2.1,2,3.2,4.9,3.1,7.8c-0.4,4.4-4.2,9-1.8,12.7h0.4c0.1,0.2,0.2,0.5,0.4,0.7
		c2.5,0.4,5.1,0.5,7.6,0.2c0.6,4.2,0.9,8.4,1,12.6c0,4.6-0.6,8.4-2.1,10.7h0.3h0.3h0.2c-0.2,0.5-0.5,1-0.8,1.5l3-0.2
		c-3.8,6.3-7.9,12.4-12.4,18.3c-5.6,6.9-8.7,15.5-8.7,24.4c0,1.3,0,2.6,0.1,3.9c0.7,7.1,3.2,14.7,9.7,20.8c0,0,2.8,6.7,2.9,12.4
		c0,1.2-0.2,2.5-0.6,3.7v51.8l-9,34.3c-1.2,6.8-1.7,13.8-1.7,20.7c0,10,1.2,21.7,6.2,30.3l7.5,35.7l0.8,0.1v10
		c-0.9-0.8-1.5-1.4-1.5-1.4l-2.2,21.9h0.1l-0.1,0.7c0,0,12.8,2.9,48.8,3.6h1.9h2.4h1.2h0.5h1.5h0.1l1.5-0.1h0.5l1-0.1h0.5l0.9-0.1
		h0.4l1.1-0.1h0.2l1.2-0.1h0.3l0.8-0.1l0.4-0.1l0.7-0.1l0.3-0.1l0.8-0.2h0.1l0.9-0.2l0.2-0.1l0.6-0.2l0.3-0.1l0.5-0.2l0.2-0.1
		l0.6-0.2h0.1l0.6-0.3l0.1-0.1l0.4-0.2l0.2-0.1l0.4-0.2l0.1-0.1l0.4-0.2h0l0.4-0.3h0l0.3-0.3l0.1-0.1l0.2-0.2l0.1-0.1l0.2-0.3l0,0
		c0.1-0.1,0.1-0.2,0.2-0.3l0,0c0-0.1,0.1-0.2,0.1-0.3v-0.1c0-0.1,0.1-0.2,0.1-0.3v-0.1c0-0.1,0-0.2,0-0.3l0,0c0-0.2,0-0.4,0-0.5
		c0.4-2.6-3.6-5.2-7.1-5.2c-7.5,0-32.3-21.1-33.8-22.6c-0.6-0.6-1.8-0.4-3.2,0.3c-1.1-1-2.4-2.3-3.6-3.6c0.4-0.5,0.7-1.1,0.8-1.7
		l-0.1-0.3c0-0.2,0.1-0.3,0.1-0.5c0,0-5.1-12.4-5.3-18.3c0-0.2,0-0.4,0-0.6l0.6-52.3c0.1-6.8,2.3-13.4,6.3-19
		c3.1-4.5,6.3-11.4,6.7-21.2l10.4-37.9c14,12.9,25,30,26.3,31.9c-0.8,3.5-5.4,24.1-5.3,44.3c0,0.1,0,0.2,0,0.4
		c-0.1,6.1,0.5,12.2,1.6,18.3c2.5,12,3.9,24.3,4,36.5c0,4.1-0.2,6.5-0.2,6.5l0,0c0,0.2,0,0.4,0,0.4l0,0c0,0.2,0,0.4,0,0.4h1.5v9.4
		l-0.4-0.3l-9.4,16.4l0.2,0.2l-0.2,0.5c0,0,15.8,16,54.8,20.4l2.2,0.2l0.6,0.1l1.5,0.1h0.6l1.9,0.1l0,0l1.7,0.1h0.5h1.2h2h1.3h0.4
		h0.9h0.4l1.1-0.1h0.2l0.9-0.1h0.3l0.7-0.1l0.3,0l0.8-0.2h0.1l0.6-0.2l0.2-0.1l0.4-0.2l0.2-0.1l0.5-0.3l0.1-0.1l0.3-0.2l0.2-0.1
		l0.2-0.2l0.1-0.1c0.1-0.1,0.2-0.2,0.3-0.3l0.1-0.1L550,984.5z"/>
	<path class="st135" d="M478.2,718.1c0,0,22.3,33.2,10.1,51.2c0,0-18,0-13.7-19.5c2.6-11.7,2.1-23.9-1.4-35.3L478.2,718.1z"/>
	<path class="st135" d="M413.3,945.9v25.9l23.1,2.2l8.6-13l-2.2-3.6c0,0-10.1-7.9-12.2-15.1S413.3,945.9,413.3,945.9z"/>
	<path class="st136" d="M423.4,968.2c0,0,15.6-17.5,18.7-14.4c1.4,1.4,25.2,22.3,32.4,22.3s16.6,11.5-18,10.8s-46.8-3.6-46.8-3.6
		l2.2-21.6C411.9,961.7,419.8,969.6,423.4,968.2z"/>
	<path class="st137" d="M423.4,968.9c0,0,15.6-17.5,18.7-14.4c1.4,1.4,25.2,22.3,32.4,22.3s16.6,11.5-18,10.8s-46.8-3.6-46.8-3.6
		l2.1-21.6C411.9,962.5,419.8,970.4,423.4,968.9z"/>
	<path class="st135" d="M481,932.9v20.2l12.3,10.1l13.7-3.6l3.6-7.9c0,0-7.2-10.1-9.4-27.4L481,932.9z"/>
	<path class="st136" d="M491.1,954.5h8.6l9-7.6c0,0,15.5,24.4,29.3,25.1c2.5,0.2,4.9,1.3,6.5,3.3c3.6,4.2,5.3,10.3-20.3,7.4
		c-37.5-4.3-52.6-20.1-52.6-20.1l9-16.2L491.1,954.5z"/>
	<path class="st137" d="M491.1,955.2h8.6l9-7.6c0,0,15.5,24.4,29.3,25.1c2.5,0.2,4.9,1.3,6.5,3.3c3.6,4.2,5.3,10.3-20.3,7.4
		c-37.5-4.3-52.6-20.2-52.6-20.2l9-16.2L491.1,955.2z"/>
	<path class="st136" d="M477.4,705.9c0,0,4.3,23.1,10.1,25.2c0,0-12.3,5.8-10.1,11.5l-10.1-46.8l12.3,1.4L477.4,705.9z"/>
	<path class="st138" d="M477.4,705.1c0,0,4.3,23.1,10.1,25.2c0,0-12.3,5.8-10.1,11.5l-10.1-46.8l12.3,1.4L477.4,705.1z"/>
	<path class="st136" d="M477.4,705.1c0,0,4.3,23.1,10.1,25.2c0,0-12.3,5.8-10.1,11.5l-10.1-46.8l12.3,1.4L477.4,705.1z"/>
	<path class="st136" d="M468.1,732.5l43,85.3c2.4,4.7,3.1,10,2.1,15.1c-0.9,4.4-2.2,8.6-4,12.7l-5.8,68.5l2.1,23.1h-25.9
		c0,0,1.4-18-3.6-43.2s3.6-62,3.6-62S463.7,806,445.7,793S468.1,732.5,468.1,732.5z"/>
	<path class="st139" d="M468.1,731.8l43,85.3c2.4,4.7,3.1,10,2.1,15.1c-0.9,4.4-2.2,8.6-4,12.7l-5.8,68.5l2.1,23h-25.9
		c0,0,1.4-18-3.6-43.2s3.6-62,3.6-62s-15.9-25.9-33.9-38.9S468.1,731.8,468.1,731.8z"/>
	<path class="st140" d="M468.1,732.2l43,85.3c2.4,4.7,3.1,10,2.1,15.1c-0.9,4.4-2.2,8.6-4,12.7l-5.8,68.5l2.1,23.1h-25.9
		c0,0,1.4-18-3.6-43.2s3.6-62,3.6-62s-15.9-25.9-33.9-38.9S468.1,732.2,468.1,732.2z"/>
	<path class="st136" d="M421.9,694.3c0,0-8.9,15.8-15.5,24.3c-6.1,7.7-9,17.4-8.3,27.2c0.6,7,3.1,14.5,9.4,20.5
		c0,0,4.3,10.8,2.2,16.6v51.2L401,868c0,0-5.8,31.7,4.3,49.7l7.2,35.3c0,0,23.1,2.9,23.8-4.3c0,0-5.8-14.4-5-19.5l0.6-51.7
		c0.1-6.7,2.2-13.3,6-18.8c3-4.4,6-11.3,6.4-21l38.2-143.4H421.9z"/>
	<path class="st139" d="M421.9,693.6c0,0-8.9,15.8-15.5,24.3c-6.1,7.7-9,17.4-8.3,27.2c0.6,7,3.1,14.5,9.4,20.5
		c0,0,4.3,10.8,2.2,16.6v51.2l-8.6,33.9c0,0-5.8,31.7,4.3,49.7l7.2,35.3c0,0,23.1,2.9,23.8-4.3c0,0-5.8-14.4-5-19.5l0.6-51.7
		c0.1-6.7,2.2-13.3,6-18.8c3-4.4,6-11.3,6.4-21l38.2-143.4H421.9z"/>
	<path class="st135" d="M473.8,746.2c0,0,5,32.4-13,42.5c0,0-7.2-5,2.9-21.6l0.7-22.3L473.8,746.2z"/>
	<path class="st136" d="M524.3,981.9c-34.1-3.9-49.7-17.4-52.2-19.8l-0.4,1.1c0,0,15.1,15.8,52.6,20.2c19.2,2.2,23.1-0.7,22.3-4
		C545.9,982,540.6,983.8,524.3,981.9z"/>
	<path class="st136" d="M456.5,985.5c-32-0.7-44.9-3.2-46.6-3.6l-0.2,2.1c0,0,12.3,2.9,46.8,3.6c21.5,0.5,26-3.8,24.6-7.2
		C479.9,983.2,473.5,985.8,456.5,985.5z"/>
	<path class="st136" d="M412.9,766.8c0,0,17.3,0,22.3-4.3s17.3,0,17.3,0"/>
	<path class="st136" d="M408.6,918.1c-10.1-18-4.3-49.7-4.3-49.7l8.6-33.9v-51.2c2.2-5.8-2.2-16.6-2.2-16.6
		c-6.3-6-8.7-13.5-9.4-20.5c-0.8-9.8,2.2-19.5,8.3-27.2c6.6-8.5,15.5-24.3,15.5-24.3h57.5l0.2-0.7h-60.5c0,0-8.9,15.8-15.5,24.3
		c-6.1,7.7-9.1,17.4-8.3,27.2c0.6,7,3.1,14.5,9.4,20.5c0,0,4.3,10.8,2.2,16.6v51.2l-8.6,33.9c0,0-5.8,31.7,4.3,49.7l7.2,35.3
		c0,0,1.1,0.1,2.8,0.3L408.6,918.1z"/>
	<path class="st135" d="M463.7,552.4c0,0-16.6,15.1-17.3,32.4c-0.7,17.3-28.1-3.6-28.1-3.6s20.9-9.4,19.5-36.8L463.7,552.4z"/>
	<path class="st136" d="M434.2,577.6c0,0-22.3-8.6-26.7,28.1l5,48.3c0,0,8.6,36.8,2.9,46.1c0,0,59.1-5,76.4,4.3c0,0-17.3-36-13-61.3
		s-15.1-34.6-15.1-34.6s-9.4-7.9-11.5-17.3S434.2,577.6,434.2,577.6z"/>
	<path class="st138" d="M434.2,576.1c0,0-22.3-8.7-26.7,28.1l4.1,39.4c0.5,5.3,1.4,10.5,2.4,15.7c2.2,11.1,5.6,32.5,1.4,39.3
		c0,0,59.1-5,76.4,4.3c0,0-17.3-36-13-61.3s-15.1-34.6-15.1-34.6s-9.4-7.9-11.5-17.3S434.2,576.1,434.2,576.1z"/>
	<path class="st136" d="M429.9,623.7l25.9,95.8c0,0,10.1,23.1,5.8,29.5c0,0,11.5,5.8,16.6,0S467.4,677,467.4,677l-9.4-53.3
		L429.9,623.7z"/>
	<path class="st138" d="M430.6,623l25.9,95.8c0,0,10.1,23.1,5.8,29.5c0,0,11.5,5.8,16.6,0S468,676.3,468,676.3l-9.4-53.3L430.6,623z
		"/>
	<path class="st136" d="M458.3,639.2c0,0,7.2,20.9,10.8,23.1s1.4,18,1.4,18"/>
	<path class="st136" d="M437.4,554.2c3.9,2.4,7.7,9,12.6,9c2.1,0,4.1-0.2,6.1-0.7c2.3-3.1,4.8-6,7.6-8.6l-25.9-7.9
		C438.1,551,438.5,550.2,437.4,554.2z"/>
	<circle class="st135" cx="450.1" cy="535.8" r="25.9"/>
	<g class="st141">
		<path d="M419.2,698.4c4-7.1,0.6-28.1-1.6-39c-1-5.2-1.8-10.4-2.4-15.7l-4.1-39.4c2.7-22.9,12.4-28.2,19.3-28.9
			c-6.5-0.6-19.7,1.6-22.9,28.9l4.1,39.4c0.5,5.3,1.4,10.5,2.4,15.7c2.2,11.1,5.6,32.5,1.4,39.3
			C415.5,698.7,416.8,698.5,419.2,698.4z"/>
		<path d="M450.8,697.3c16,0.1,33,1.3,41.1,5.7c0,0-0.3-0.7-0.8-1.8C481.2,698,465.2,697.2,450.8,697.3z"/>
	</g>
	<path class="st136" d="M458.7,529.8c-2.2,5.7-6.2,10.4-10.3,14.9c-2.3,2.5-4.6,5.1-6,8.2c-1.1,2.8-1.8,5.8-2,8.8
		c-1.6,12.4-3.1,25.5,2.3,36.7c1.5,3.1,3.5,6.1,4.5,9.4c1.8,6.1,0,12.7-2.4,18.6c-3.3,8.2-7.6,16-12.8,23.2c-3,4.2-6.4,8.3-7.5,13.3
		c-0.7,3.3-0.5,7.1-2.6,9.8c-2.8,3.6-8.3,3.3-12.8,2.7c-2.3-3.7,1.4-8.2,1.8-12.6c0.5-4.8-3.3-9.1-7.7-11s-9.3-2-14.1-2.1
		c-2-0.1-4.1-0.2-5.6-1.6c-0.8-0.9-1.4-1.9-1.6-3.1c-1.8-5.6-2.2-11.5-1.1-17.2c1.5-7.9,5.7-15.1,6.6-23c1.1-9.2-2.2-18.3-6.1-26.7
		s-8.5-16.7-10.1-25.8c-1.7-9.1,0.2-19.5,7.4-25.4c3.9-3.2,9.1-4.9,12.3-8.8c4.3-5.3,3.7-13.4,7.9-18.8s12-6.5,18.9-7.1l14.5-1.3
		c3.2-0.4,6.4-0.5,9.5-0.2c6.3,0.8,11.9,4.1,17.3,7.4c3.4,2.1,7.1,4.4,8.6,8.1c0.9,2.1,0.7,4.5-0.4,6.6c-2.7,4.3-3.9,0.2-6,1.1
		C458.1,515.1,460.4,525.5,458.7,529.8z"/>
	<path class="st142" d="M458,529c-2.2,5.7-6.3,10.4-10.3,14.9c-2.3,2.5-4.6,5.1-6,8.2c-1.1,2.8-1.8,5.8-2,8.8
		c-1.6,12.3-3.1,25.5,2.3,36.7c1.5,3.1,3.5,6.1,4.5,9.4c1.8,6.1,0,12.7-2.4,18.6c-3.3,8.2-7.6,16-12.8,23.2c-3,4.1-6.4,8.3-7.5,13.3
		c-0.7,3.3-0.5,7.1-2.6,9.8c-2.8,3.6-8.3,3.3-12.8,2.7c-2.3-3.7,1.4-8.2,1.8-12.6c0.5-4.8-3.3-9.1-7.7-11s-9.3-2-14.1-2.1
		c-2-0.1-4.1-0.2-5.6-1.6c-0.8-0.9-1.4-1.9-1.6-3.1c-1.8-5.6-2.2-11.5-1.1-17.2c1.5-7.9,5.7-15.1,6.6-23c1.1-9.2-2.2-18.3-6.1-26.7
		s-8.5-16.7-10.1-25.8c-1.7-9.1,0.2-19.5,7.4-25.4c3.9-3.2,9.1-4.9,12.3-8.8c4.3-5.3,3.7-13.4,7.9-18.8s12-6.5,18.9-7.1l14.5-1.3
		c3.2-0.4,6.4-0.5,9.5-0.2c6.3,0.8,11.9,4.1,17.3,7.4c3.4,2.1,7.1,4.4,8.6,8.1c0.9,2.1,0.7,4.5-0.4,6.6c-2.7,4.3-3.9,0.2-6,1.1
		C457.4,514.4,459.7,524.7,458,529z"/>
</g>
</svg>
