<?xml version="1.0" standalone="no"?>
<!DOCTYPE svg PUBLIC "-//W3C//DTD SVG 1.1//EN" "http://www.w3.org/Graphics/SVG/1.1/DTD/svg11.dtd" >
<svg xmlns="http://www.w3.org/2000/svg" xmlns:xlink="http://www.w3.org/1999/xlink" version="1.1">
<metadata></metadata>
<defs>
<font id="lorimer_no_2_condensedregular" horiz-adv-x="1024" >
<font-face units-per-em="2048" ascent="1638" descent="-410" />
<missing-glyph horiz-adv-x="333" />
<glyph horiz-adv-x="0" />
<glyph horiz-adv-x="682" />
<glyph unicode=" "  horiz-adv-x="333" />
<glyph unicode="&#x09;" horiz-adv-x="333" />
<glyph unicode="&#xa0;" horiz-adv-x="333" />
<glyph unicode="!" horiz-adv-x="397" d="M104 1434h189l-45 -1069h-96zM111 0v182h176v-182h-176z" />
<glyph unicode="&#x22;" horiz-adv-x="598" d="M94 1434h162l-25 -654h-110zM340 1434h164l-27 -654h-110z" />
<glyph unicode="#" horiz-adv-x="1157" d="M27 424l24 123h221l78 362h-221l25 121h221l86 404h135l-86 -404h260l86 404h135l-86 -404h225l-26 -121h-223l-78 -362h225l-24 -123h-226l-90 -424h-135l90 424h-260l-90 -424h-135l90 424h-221zM408 547h260l77 362h-260z" />
<glyph unicode="$" horiz-adv-x="753" d="M76 434l153 33q0 -178 35 -247.5t123 -69.5q68 0 99.5 38t31.5 125q0 62 -14 112t-49.5 100t-67.5 84.5t-96 95.5q-106 100 -159.5 191t-53.5 218q0 129 57 207t166 98v215h145v-215q64 -12 108 -45.5t68.5 -87.5t35 -118t12.5 -150l-154 -35q-1 66 -3.5 106.5 t-10.5 82.5t-23 64t-41 36t-63 14q-139 0 -139 -168q0 -33 7 -64t14 -53.5t28.5 -53.5t32 -46t44 -49t45.5 -45t54 -51q52 -49 84.5 -86t66.5 -90t50 -114.5t16 -135.5q0 -136 -58.5 -218.5t-173.5 -99.5v-213h-145v217q-106 24 -163.5 123.5t-61.5 294.5z" />
<glyph unicode="%" horiz-adv-x="1241" d="M47 1073q0 210 51.5 293.5t177.5 83.5q127 0 179.5 -83.5t52.5 -293.5t-52.5 -293.5t-179.5 -83.5q-126 0 -177.5 83.5t-51.5 293.5zM172 1073q0 -110 9.5 -166.5t31 -78t63.5 -21.5q63 0 85 53t22 213q0 161 -22 214.5t-85 53.5q-42 0 -63.5 -21.5t-31 -78.5t-9.5 -168z M193 0l739 1434h112l-739 -1434h-112zM733 360q0 210 53 293.5t179 83.5t177.5 -83.5t51.5 -293.5t-51.5 -293t-177.5 -83t-179 83t-53 293zM860 360q0 -111 9.5 -167.5t31 -78.5t64.5 -22q42 0 63.5 21.5t31 78.5t9.5 168q0 110 -9.5 166.5t-31 78.5t-63.5 22 q-43 0 -64.5 -22t-31 -78.5t-9.5 -166.5z" />
<glyph unicode="&#x26;" horiz-adv-x="860" d="M51 356q0 175 60.5 293t179.5 197q-88 191 -88 330q0 141 62.5 209.5t174.5 68.5q222 0 222 -287q0 -123 -46.5 -208.5t-150.5 -147.5l137 -297q27 74 71 141.5t93 92.5l86 -125q-97 -69 -172 -275l162 -348h-166l-78 170q-40 -97 -99 -146t-161 -49q-142 0 -214.5 91.5 t-72.5 289.5zM209 373q0 -125 32.5 -190.5t112.5 -65.5q61 0 98 51t72 164l-184 403q-131 -110 -131 -362zM352 1178q0 -123 68 -269q66 39 91.5 100t25.5 150q0 87 -21 125.5t-70 38.5q-47 0 -70.5 -34t-23.5 -111z" />
<glyph unicode="'" horiz-adv-x="356" d="M94 1434h166l-24 -654h-115z" />
<glyph unicode="(" horiz-adv-x="485" d="M94 573q0 281 69.5 507.5t176.5 377.5h123q-107 -196 -166 -409.5t-59 -481.5q0 -205 46 -411t165 -449l-115 -24q-240 419 -240 890z" />
<glyph unicode=")" horiz-adv-x="485" d="M23 1458h122q107 -151 176.5 -377.5t69.5 -507.5q0 -473 -239 -890l-115 24q119 243 165 449t46 411q0 268 -59 481.5t-166 409.5z" />
<glyph unicode="*" horiz-adv-x="733" d="M27 1147l41 127l247 -96l-14 266h131l-14 -266l250 96l41 -127l-260 -68l167 -209l-106 -75l-143 223l-146 -223l-104 77l168 207z" />
<glyph unicode="+" horiz-adv-x="808" d="M104 657v136h230v241h141v-241h230v-136h-230v-241h-141v241h-230z" />
<glyph unicode="," horiz-adv-x="374" d="M98 0v182h176v-153l-106 -267l-64 21l68 217h-74z" />
<glyph unicode="-" horiz-adv-x="577" d="M98 578v137h379v-137h-379z" />
<glyph unicode="." horiz-adv-x="374" d="M98 0v182h176v-182h-176z" />
<glyph unicode="/" horiz-adv-x="749" d="M2 -154l606 1639h131l-608 -1639h-129z" />
<glyph unicode="0" horiz-adv-x="796" d="M86 717q0 461 49 583q64 158 262 158q90 0 161 -38t104 -120q49 -122 49 -583q0 -462 -49 -584q-33 -82 -104 -120t-161 -38q-198 0 -262 158q-49 122 -49 584zM248 717q0 -338 18 -467q10 -74 41 -103.5t90 -29.5q61 0 92 29.5t41 103.5q17 136 17 467t-17 467 q-10 74 -41 103.5t-92 29.5q-59 0 -90 -29.5t-41 -103.5q-18 -129 -18 -467z" />
<glyph unicode="1" horiz-adv-x="450" d="M14 1366l193 76h119v-1442h-160v1268l-119 -25z" />
<glyph unicode="2" horiz-adv-x="706" d="M27 0v111q238 342 349 569.5t111 429.5q0 108 -34 157.5t-105 49.5q-86 0 -122.5 -65t-39.5 -234l-155 33q8 208 84.5 307.5t234.5 99.5q150 0 223.5 -91t73.5 -253q0 -207 -108.5 -439.5t-327.5 -527.5h446v-147h-630z" />
<glyph unicode="3" horiz-adv-x="722" d="M53 403l156 33q12 -207 37 -258q27 -59 110 -59q54 0 85 27t42 102q13 89 13 198q0 111 -4 181q-7 96 -59.5 127.5t-196.5 33.5l-27 119l268 381h-422v146h602v-117l-270 -397q52 -2 93 -16t69.5 -36t48.5 -56.5t32 -70t18.5 -85.5t8.5 -94.5t2 -104.5q0 -213 -47 -324 q-62 -158 -256 -158q-166 0 -237 109q-56 84 -66 319z" />
<glyph unicode="4" horiz-adv-x="768" d="M23 598l407 836h182v-834h121v-135h-121v-465h-153v465h-408zM172 600h289v604l-2 2l-10 -26z" />
<glyph unicode="5" horiz-adv-x="735" d="M61 403l156 33q6 -121 13.5 -174t21.5 -84q17 -33 43 -46t67 -13q67 0 97 35t39 96q12 82 12 211q0 103 -6 174q-7 75 -36.5 115.5t-100.5 40.5q-97 0 -131 -89l-154 33l45 699h528l-28 -144h-361l-28 -428q61 70 172 70q89 0 145 -43.5t86.5 -150t30.5 -283.5 q0 -222 -49 -326q-36 -77 -104 -115.5t-157 -38.5q-73 0 -136.5 26.5t-100.5 82.5q-53 80 -64 319z" />
<glyph unicode="6" horiz-adv-x="780" d="M86 721q0 239 10 374.5t39 204.5q64 158 271 158q195 0 256 -158q22 -57 32 -219l-153 -32q-2 69 -11 137q-10 74 -40 102.5t-89 28.5q-57 0 -90.5 -27.5t-44.5 -103.5q-17 -116 -20 -369q84 76 221 76q138 0 191 -93.5t53 -318.5q0 -230 -49 -348q-67 -158 -261 -158 q-204 0 -266 158q-28 68 -38.5 202t-10.5 386zM246 698q0 -313 20 -450q11 -78 41 -103.5t90 -25.5q61 0 92.5 26t45.5 103q16 94 16 229q0 63 -3 103.5t-11.5 76.5t-24 55.5t-40.5 30.5t-62 11q-85 0 -164 -56z" />
<glyph unicode="7" horiz-adv-x="612" d="M10 1288v146h588v-117q-81 -207 -132.5 -376.5t-93.5 -410t-61 -530.5h-166q16 341 100.5 684t200.5 604h-436z" />
<glyph unicode="8" horiz-adv-x="745" d="M53 342q0 265 209 414q-58 53 -94 97.5t-64 116.5t-28 156q0 151 82 241.5t231 90.5q144 0 220.5 -88t76.5 -240q0 -121 -50 -208.5t-147 -161.5q38 -32 65.5 -59.5t58.5 -67.5t50 -81t31.5 -97t12.5 -119q0 -169 -83.5 -265t-238.5 -96q-156 0 -244 97t-88 270zM207 358 q0 -239 176 -239q164 0 164 203q0 61 -15 113t-45.5 96t-60.5 75.5t-76 71.5q-75 -64 -109 -139t-34 -181zM229 1133q0 -95 43.5 -162t126.5 -137q75 66 107.5 130t32.5 156q0 201 -152 201q-78 0 -118 -50.5t-40 -137.5z" />
<glyph unicode="9" horiz-adv-x="780" d="M70 952q0 237 49 348q67 158 260 158q204 0 266 -158q28 -68 38.5 -201.5t10.5 -379.5q0 -238 -10.5 -377.5t-38.5 -208.5q-63 -158 -270 -158q-193 0 -254 158q-16 42 -22 83t-13 136l156 35q3 -84 10 -137q10 -76 39.5 -103.5t87.5 -27.5q57 0 90.5 27.5t44.5 103.5 q14 94 18 364q-81 -73 -219 -73q-137 0 -190 93.5t-53 317.5zM229 956q0 -153 27.5 -214.5t114.5 -61.5q89 0 164 53q0 309 -21 453q-10 78 -40 104.5t-91 26.5t-92 -26.5t-45 -104.5q-17 -96 -17 -230z" />
<glyph unicode=":" horiz-adv-x="378" d="M100 0v182h176v-182h-176zM100 602v182h176v-182h-176z" />
<glyph unicode=";" horiz-adv-x="378" d="M100 0v182h176v-153l-106 -267l-64 21l68 217h-74zM100 602v182h176v-182h-176z" />
<glyph unicode="&#x3c;" horiz-adv-x="845" d="M78 653v146l661 340v-164l-506 -250l506 -250v-164z" />
<glyph unicode="=" horiz-adv-x="808" d="M104 504v135h601v-135h-601zM104 811v135h601v-135h-601z" />
<glyph unicode="&#x3e;" horiz-adv-x="845" d="M106 311v164l506 250l-506 250v164l662 -340v-146z" />
<glyph unicode="?" horiz-adv-x="714" d="M43 1112q34 346 332 346q141 0 218 -86.5t77 -247.5q0 -94 -27 -172t-65 -134.5t-76.5 -114t-65.5 -138t-28 -178.5h-138q0 71 9.5 129.5t34 117t45 95.5t63.5 109q55 91 73.5 145.5t18.5 140.5q0 94 -32 142.5t-113 48.5q-84 0 -125.5 -51.5t-48.5 -184.5zM250 0v182 h176v-182h-176z" />
<glyph unicode="@" horiz-adv-x="1234" d="M68 530q0 452 139 651t438 199q143 0 245.5 -54t161.5 -157t86 -237.5t27 -310.5q0 -275 -61 -396t-186 -121q-78 0 -132 42t-67 135q-33 -89 -85.5 -127.5t-135.5 -38.5q-179 0 -179 174q0 87 33 246q23 110 49 187.5t50.5 121.5t56 69t58 32t63.5 7q124 0 143 -82 l29 70h127l-105 -481q-12 -62 -12 -131q0 -144 111 -144q76 0 113.5 96t37.5 326q0 127 -13 228.5t-43.5 189t-79.5 146t-123 91.5t-171 33q-255 0 -369 -183.5t-114 -582.5q0 -162 21.5 -283.5t59 -200t95.5 -127t124.5 -68t151.5 -19.5q188 0 303 66l39 -80 q-130 -74 -340 -74q-82 0 -149.5 15.5t-130.5 50.5t-110.5 95.5t-83 146t-54 207t-18.5 273.5zM459 313q0 -41 17.5 -59t55.5 -18q53 0 82 35t56 126q20 71 32 138q31 158 31 204q0 50 -19.5 71t-62.5 21q-51 0 -73.5 -30t-47.5 -117q-18 -64 -34 -147q-37 -178 -37 -224z " />
<glyph unicode="A" horiz-adv-x="710" d="M10 0l254 1434h180l256 -1434h-157l-43 272h-291l-43 -272h-156zM229 399h250l-117 727l-6 39h-4l-4 -39z" />
<glyph unicode="B" horiz-adv-x="794" d="M102 0v1434h236q209 0 286.5 -79t77.5 -278q0 -120 -29 -193.5t-102 -107.5v-4q88 -22 121 -116t33 -253q0 -221 -71 -312t-253 -91h-299zM258 143h125q73 0 109.5 19.5t54.5 77.5t18 174q0 69 -4.5 110.5t-17 75.5t-37.5 50.5t-62.5 25t-95.5 8.5h-90v-541zM258 819h74 q131 0 174 48.5t43 191.5q0 141 -42 186t-171 45h-78v-471z" />
<glyph unicode="C" horiz-adv-x="763" d="M84 717q0 459 49 583q32 82 102.5 120t161.5 38q165 0 240 -108q30 -44 42.5 -108.5t20.5 -190.5l-157 -35q-4 73 -6.5 107t-9.5 72.5t-19 61.5q-28 60 -111 60q-59 0 -90 -29.5t-43 -105.5q-16 -112 -16 -465t16 -465q12 -76 43 -105.5t90 -29.5q82 0 113 63 q14 29 20.5 76.5t12.5 171.5l159 -33q-14 -234 -65 -311q-73 -109 -240 -109q-91 0 -161.5 38t-102.5 120q-49 124 -49 584z" />
<glyph unicode="D" horiz-adv-x="804" d="M102 0v1434h275q119 0 192 -36t107 -126q27 -70 36 -198.5t9 -356.5q0 -247 -8.5 -365.5t-34.5 -191.5q-34 -90 -104 -125t-197 -35h-275zM262 143h98q78 0 115 19.5t55 81.5q27 103 27 473q0 373 -27 473q-16 62 -53.5 81t-116.5 19h-98v-1147z" />
<glyph unicode="E" horiz-adv-x="692" d="M102 0v1434h549v-144h-393v-428h291v-145h-291v-570h393v-147h-549z" />
<glyph unicode="F" horiz-adv-x="684" d="M102 0v1434h539v-144h-381v-428h297v-147h-297v-715h-158z" />
<glyph unicode="G" horiz-adv-x="788" d="M84 717q0 465 49 583q33 83 103.5 120.5t160.5 37.5q165 0 240 -108q31 -45 45 -114.5t20 -184.5l-159 -35q-3 102 -9.5 154.5t-23.5 86.5q-32 60 -113 60q-60 0 -90.5 -29.5t-42.5 -105.5q-18 -126 -18 -465t18 -465q12 -76 43.5 -105.5t89.5 -29.5q56 0 86.5 25 t42.5 79q19 78 19 418h-142v139h299v-778h-88l-24 94q-49 -119 -207 -119q-87 0 -153 39t-97 119q-49 121 -49 584z" />
<glyph unicode="H" horiz-adv-x="811" d="M102 0v1434h160v-570h289v570h158v-1434h-158v715h-289v-715h-160z" />
<glyph unicode="I" horiz-adv-x="364" d="M102 0v1434h160v-1434h-160z" />
<glyph unicode="J" horiz-adv-x="468" d="M14 2v150q90 -9 97 -9q63 0 81.5 24t18.5 103v1164h158v-1201q0 -125 -52.5 -181t-185.5 -56q-67 0 -117 6z" />
<glyph unicode="K" horiz-adv-x="724" d="M102 0v1434h158v-674l272 674h170l-208 -500l217 -934h-162l-162 727l-127 -317v-410h-158z" />
<glyph unicode="L" horiz-adv-x="632" d="M102 0v1434h160v-1284h356v-150h-516z" />
<glyph unicode="M" horiz-adv-x="1056" d="M106 0v1434h263l157 -1096l158 1096h266v-1434h-155v1286h-4l-199 -1290h-131l-197 1290h-4v-1286h-154z" />
<glyph unicode="N" horiz-adv-x="829" d="M102 0v1434h160l311 -1008v1008h154v-1434h-160l-309 1008v-1008h-156z" />
<glyph unicode="O" horiz-adv-x="794" d="M84 717q0 459 49 583q32 82 102.5 120t161.5 38q203 0 265 -158q27 -69 38 -204.5t11 -378.5q0 -460 -49 -584q-32 -82 -102.5 -120t-162.5 -38q-91 0 -161.5 38t-102.5 120q-49 124 -49 584zM248 717q0 -353 16 -465q12 -76 43 -105.5t90 -29.5t90 29.5t43 105.5 q19 133 19 465t-19 465q-12 76 -43 105.5t-90 29.5t-90 -29.5t-43 -105.5q-16 -112 -16 -465z" />
<glyph unicode="P" horiz-adv-x="761" d="M102 0v1434h256q200 0 282.5 -84.5t82.5 -290.5q0 -103 -17 -173.5t-58.5 -121.5t-114 -74.5t-181.5 -23.5h-92v-666h-158zM260 805h90q129 0 171 49t42 197q0 145 -42 192t-171 47h-90v-485z" />
<glyph unicode="Q" horiz-adv-x="794" d="M84 717q0 459 49 583q32 82 102.5 120t161.5 38q203 0 265 -158q27 -69 38 -204.5t11 -378.5q0 -460 -49 -584q-16 -36 -33 -59q45 -31 131 -31l-27 -149q-154 9 -229 96q-52 -15 -107 -15q-91 0 -161.5 38t-102.5 120q-49 124 -49 584zM248 717q0 -353 16 -465 q12 -76 43 -105.5t90 -29.5t90 29.5t43 105.5q19 133 19 465t-19 465q-12 76 -43 105.5t-90 29.5t-90 -29.5t-43 -105.5q-16 -112 -16 -465z" />
<glyph unicode="R" horiz-adv-x="804" d="M102 0v1434h252q201 0 285 -81.5t84 -283.5q0 -126 -29 -198.5t-100 -108.5v-2q37 -14 61 -37.5t37 -60t18 -77.5t5 -98q0 -311 10 -477v-10h-160q-6 180 -6 459q0 120 -35.5 164.5t-136.5 44.5h-127v-668h-158zM260 805h90q129 0 171 49t42 197q0 145 -41.5 192 t-171.5 47h-90v-485z" />
<glyph unicode="S" horiz-adv-x="708" d="M49 393l154 31q6 -130 22 -194t46 -87.5t89 -23.5q69 0 101.5 38.5t32.5 129.5q0 65 -12.5 117t-43.5 101t-59.5 82.5t-83.5 90.5q-122 125 -180 226.5t-58 234.5q0 156 79.5 237.5t221.5 81.5q67 0 118 -19.5t84 -53.5t53.5 -86.5t29.5 -112t10 -135.5l-155 -29 q-1 64 -3.5 104.5t-11 80.5t-23.5 61.5t-41.5 35t-64.5 13.5q-141 0 -141 -170q0 -34 6.5 -67t13.5 -57t26 -55.5t29 -47t39.5 -49t39.5 -44t45 -47.5q44 -45 62.5 -65.5t54 -62.5t52 -73.5t36.5 -77t28 -95.5t8 -107q0 -152 -70.5 -238t-224.5 -86q-73 0 -126 19.5 t-94 65.5t-63 129t-26 204z" />
<glyph unicode="T" horiz-adv-x="677" d="M33 1286v148h612v-148h-227v-1286h-158v1286h-227z" />
<glyph unicode="U" horiz-adv-x="804" d="M98 434v1000h160v-930q0 -179 8 -242q10 -83 42 -112t93 -29t94.5 29.5t43.5 111.5q8 63 8 242v930h158v-1000q0 -124 -13.5 -206t-47.5 -141t-93.5 -85.5t-149.5 -26.5t-148.5 26.5t-93 85t-48 141t-13.5 206.5z" />
<glyph unicode="V" horiz-adv-x="729" d="M25 1434h161l170 -1043l6 -55h3l6 55l172 1043h159l-260 -1438h-157z" />
<glyph unicode="W" horiz-adv-x="1159" d="M39 1434h160l133 -1026l2 -39h4l2 39l168 1026h143l168 -1026l4 -39h2l2 39l134 1026h157l-200 -1434h-164l-168 1022l-4 37h-4l-5 -37l-167 -1022h-166z" />
<glyph unicode="X" horiz-adv-x="720" d="M8 0l256 754l-235 680h164l167 -516l168 516h164l-237 -680l258 -754h-170l-183 584l-182 -584h-170z" />
<glyph unicode="Y" horiz-adv-x="716" d="M16 1434h168l156 -519l18 -69l21 69l153 519h168l-262 -770v-664h-157v664z" />
<glyph unicode="Z" horiz-adv-x="667" d="M41 0v123l408 1163h-402v148h571v-123l-407 -1164h416v-147h-586z" />
<glyph unicode="[" horiz-adv-x="514" d="M154 -346v1804h338v-123h-195v-1558h195v-123h-338z" />
<glyph unicode="\" horiz-adv-x="749" d="M12 1485h129l609 -1639h-132z" />
<glyph unicode="]" horiz-adv-x="514" d="M23 -223h194v1558h-194v123h337v-1804h-337v123z" />
<glyph unicode="^" horiz-adv-x="722" d="M39 950l254 488h137l254 -488h-147l-177 297l-172 -297h-149z" />
<glyph unicode="_" d="M0 -25h1024v-129h-1024v129z" />
<glyph unicode="`" horiz-adv-x="1021" d="M303 1323h178l94 -279h-126z" />
<glyph unicode="a" horiz-adv-x="671" d="M37 233q0 67 20.5 121t65.5 99t126.5 70.5t194.5 27.5v80q0 99 -22 141.5t-86 42.5q-62 0 -95 -38t-36 -128l-137 29q7 73 31 126t61.5 83t81.5 43.5t98 13.5q250 0 250 -311v-463q0 -36 13 -47.5t46 -11.5v-109q-30 -6 -53 -6q-51 0 -87.5 21.5t-47.5 66.5 q-22 -45 -71 -70.5t-118 -25.5q-104 0 -169.5 61.5t-65.5 183.5zM188 250q0 -139 121 -139q63 0 99 36.5t36 106.5v190q-77 -1 -130 -17.5t-79 -45t-36.5 -59.5t-10.5 -72z" />
<glyph unicode="b" horiz-adv-x="700" d="M86 0v1434h147v-578q47 88 160 88q89 0 142 -45q55 -46 76.5 -139.5t21.5 -290.5q0 -212 -23 -305t-75 -135q-56 -43 -138 -43q-124 0 -178 98l-16 -84h-117zM229 465q0 -208 21 -270q26 -80 115 -80q51 0 74.5 27t31.5 87q8 63 8 236q0 175 -8 235q-8 58 -33.5 86.5 t-77.5 28.5q-83 0 -110 -82q-21 -64 -21 -268z" />
<glyph unicode="c" horiz-adv-x="663" d="M63 465q0 192 22 284.5t81 141.5q65 55 176 55q254 0 274 -293l-149 -30q-1 39 -3.5 63t-10 51.5t-20.5 42.5t-36 25t-55 10q-103 0 -117 -115q-8 -60 -8 -235q0 -174 8 -234t35.5 -88t81.5 -28q71 0 97 45.5t28 152.5l149 -30q-17 -299 -274 -299q-110 0 -176 55 q-58 47 -80.5 139.5t-22.5 286.5z" />
<glyph unicode="d" horiz-adv-x="700" d="M68 469q0 197 21.5 290.5t76.5 139.5q53 45 141 45q113 0 160 -88v578h147v-1434h-116l-17 84q-54 -98 -178 -98q-81 0 -137 43q-52 42 -75 135t-23 305zM221 465q0 -173 8 -236q8 -60 32 -87t75 -27q89 0 115 80q20 59 20 270q0 207 -20 268q-27 82 -111 82 q-52 0 -77.5 -28.5t-33.5 -86.5q-8 -60 -8 -235z" />
<glyph unicode="e" horiz-adv-x="681" d="M63 467q0 190 22 282.5t81 141.5q65 55 176 55q112 0 178 -55q58 -47 81.5 -143.5t23.5 -307.5h-410q0 -139 10 -211q8 -60 35.5 -88t81.5 -28q70 0 98.5 46t28.5 154l147 -30q-8 -142 -71.5 -220.5t-202.5 -78.5q-109 0 -176 55q-58 47 -80.5 136.5t-22.5 291.5z M215 559h256q-3 88 -10 143q-6 50 -31 83.5t-88 33.5q-52 0 -81 -28.5t-36 -88.5t-10 -143z" />
<glyph unicode="f" horiz-adv-x="413" d="M25 801v129h98v254q0 131 54.5 196.5t180.5 65.5q20 0 48 -4v-133q-6 2 -25 2q-65 0 -88 -35.5t-23 -140.5v-205h131v-129h-131v-801h-147v801h-98z" />
<glyph unicode="g" horiz-adv-x="688" d="M18 -121q0 70 37.5 116.5t102.5 67.5q-95 42 -95 138q0 85 84 123q-77 81 -77 268q0 103 17.5 174t66.5 117q66 63 170 63q119 0 184 -84q50 81 168 84v-153q-20 4 -43 4q-48 0 -80 -19q25 -79 25 -186q0 -96 -18 -163.5t-66 -113.5q-64 -61 -170 -61q-61 0 -113 25 q-25 -17 -25 -46q0 -20 9 -32.5t34 -22t51.5 -16t79.5 -16.5q10 -2 15.5 -3t14 -2.5t16.5 -3.5q146 -29 197.5 -81.5t51.5 -149.5q0 -135 -76 -190.5t-227 -55.5q-160 0 -247 55.5t-87 163.5zM162 -102q0 -61 42.5 -90t151.5 -29q95 0 126.5 25t31.5 85q0 63 -45.5 88 t-210.5 56q-96 -31 -96 -135zM213 592q0 -123 23.5 -168t87.5 -45t87 44.5t23 168.5q0 133 -22.5 180t-87.5 47q-66 0 -88.5 -47t-22.5 -180z" />
<glyph unicode="h" horiz-adv-x="696" d="M86 0v1434h147v-582q50 94 173 94q107 0 158.5 -76.5t51.5 -261.5v-608h-149v604q0 124 -22.5 169.5t-79.5 45.5q-64 0 -98 -47t-34 -160v-612h-147z" />
<glyph unicode="i" horiz-adv-x="321" d="M74 1106v180h174v-180h-174zM86 0v930h150v-930h-150z" />
<glyph unicode="j" horiz-adv-x="325" d="M-31 -150q12 -2 29 -2q53 0 72.5 28t19.5 101v953h148v-940q0 -153 -61 -214t-208 -63v137zM78 1106v180h172v-180h-172z" />
<glyph unicode="k" horiz-adv-x="641" d="M86 0v1434h145v-955l228 451h159l-182 -357l187 -573h-156l-129 426l-107 -215v-211h-145z" />
<glyph unicode="l" horiz-adv-x="319" d="M86 0v1434h147v-1434h-147z" />
<glyph unicode="m" horiz-adv-x="1056" d="M86 0v930h125l16 -96q46 112 172 112q137 0 172 -125q56 125 195 125q107 0 158 -76.5t51 -263.5v-606h-146v604q0 123 -22.5 169t-77.5 46q-60 0 -92.5 -46.5t-32.5 -160.5v-612h-147v604q0 123 -23 169t-78 46q-60 0 -92.5 -46.5t-32.5 -160.5v-612h-145z" />
<glyph unicode="n" horiz-adv-x="696" d="M86 0v930h125l16 -92q48 108 179 108q107 0 158.5 -76.5t51.5 -261.5v-608h-149v604q0 124 -22.5 169.5t-79.5 45.5q-64 0 -98 -47t-34 -160v-612h-147z" />
<glyph unicode="o" horiz-adv-x="686" d="M63 465q0 192 22 284.5t81 141.5q65 55 176 55q113 0 178 -55q59 -49 81 -141.5t22 -284.5q0 -194 -22.5 -286.5t-80.5 -139.5q-66 -55 -178 -55q-110 0 -176 55q-58 47 -80.5 139.5t-22.5 286.5zM217 465q0 -173 8 -236q8 -59 35.5 -86.5t81.5 -27.5q55 0 83 27.5 t36 86.5q8 63 8 236q0 175 -8 235q-8 59 -36 87t-83 28q-54 0 -81.5 -28t-35.5 -87q-8 -60 -8 -235z" />
<glyph unicode="p" horiz-adv-x="702" d="M86 -332v1262h147v-78q47 92 162 92q86 0 142 -45q55 -46 76.5 -139.5t21.5 -290.5q0 -213 -22.5 -305.5t-75.5 -134.5q-56 -43 -138 -43q-111 0 -166 73v-391h-147zM231 465q0 -124 4 -177.5t17 -92.5q29 -80 110 -80q52 0 77.5 27.5t33.5 86.5q8 63 8 236q0 175 -8 235 q-8 58 -33.5 86.5t-77.5 28.5q-47 0 -72 -21t-38 -61q-21 -64 -21 -268z" />
<glyph unicode="q" horiz-adv-x="702" d="M68 469q0 197 21.5 290.5t76.5 139.5q53 45 141 45q119 0 166 -100l14 86h129v-1262h-147v391q-55 -73 -166 -73q-81 0 -137 43q-53 42 -75.5 134.5t-22.5 305.5zM221 465q0 -173 8 -236q8 -60 33 -87t76 -27q87 0 113 80q20 59 20 270q0 207 -20 268q-27 82 -111 82 q-52 0 -77.5 -28.5t-33.5 -86.5q-8 -60 -8 -235z" />
<glyph unicode="r" horiz-adv-x="466" d="M86 0v930h125l20 -113q45 124 218 127v-162q-20 4 -54 4q-89 0 -125.5 -51.5t-36.5 -173.5v-561h-147z" />
<glyph unicode="s" horiz-adv-x="618" d="M43 272l141 27q3 -102 34 -144t97 -42q57 0 85 25.5t28 84.5q0 29 -8 53.5t-19.5 40.5t-34.5 33.5t-41 28t-52 30t-56 33.5q-36 23 -60.5 42.5t-52 51t-41.5 74.5t-14 95q0 115 70.5 178t189.5 63q127 0 190 -75t68 -209l-137 -25q-3 97 -31.5 139.5t-93.5 42.5 q-112 0 -112 -110q0 -27 8.5 -49.5t20 -38t34.5 -33t40.5 -27.5t50.5 -28.5t52 -30.5q42 -26 69.5 -48t53.5 -54t38.5 -74.5t12.5 -96.5q0 -243 -254 -243q-126 0 -197.5 66t-78.5 220z" />
<glyph unicode="t" horiz-adv-x="471" d="M10 801v129h107v215l149 33v-248h176v-129h-176v-506q0 -101 22 -136.5t81 -35.5q21 0 75 6v-129q-52 -10 -102 -10q-120 0 -173.5 65.5t-53.5 214.5q0 9 0.5 100t1 215.5t0.5 215.5h-107z" />
<glyph unicode="u" horiz-adv-x="690" d="M80 317v613h149v-611q0 -121 21.5 -163.5t77.5 -42.5q65 0 97 45.5t32 158.5v613h147v-930h-121l-18 102q-46 -116 -180 -116q-103 0 -154 74.5t-51 256.5z" />
<glyph unicode="v" horiz-adv-x="610" d="M16 930h156l115 -600l16 -94h4l19 94l112 600h156l-209 -936h-158z" />
<glyph unicode="w" horiz-adv-x="958" d="M27 930h149l94 -561l17 -95h4l16 95l107 561h129l108 -561l17 -95h4l16 95l92 561h152l-176 -930h-146l-112 567l-19 92h-4l-16 -92l-111 -567h-145z" />
<glyph unicode="x" horiz-adv-x="589" d="M10 0l201 481l-191 449h154l121 -316l121 316h153l-190 -449l201 -481h-164l-121 336l-121 -336h-164z" />
<glyph unicode="y" horiz-adv-x="616" d="M25 930h155l113 -600l18 -94h4l17 94l112 600h156l-207 -928q-16 -74 -28 -117.5t-30 -86t-38 -63.5t-52 -39t-71.5 -23.5t-97.5 -6.5l-25 139q40 -4 55 -4q62 0 88.5 35t26.5 129q0 97 -35 252z" />
<glyph unicode="z" horiz-adv-x="591" d="M35 0v115l338 684h-332v131h498v-111l-336 -686h342v-133h-510z" />
<glyph unicode="{" horiz-adv-x="548" d="M68 487v138q76 0 99 29t23 108v502q0 108 45 151t154 43h139v-123h-116q-44 0 -61 -16.5t-17 -61.5v-534q0 -79 -23 -116t-82 -50q59 -15 82 -52.5t23 -113.5v-538q0 -46 17 -61t61 -15h116v-123h-139q-109 0 -154 43t-45 151v500q0 82 -22.5 110.5t-99.5 28.5z" />
<glyph unicode="|" d="M446 -334v1870h132v-1870h-132z" />
<glyph unicode="}" horiz-adv-x="548" d="M20 -223h117q44 0 61 15t17 61v538q0 77 22.5 114t81.5 52q-59 13 -81.5 50t-22.5 116v534q0 45 -17 61.5t-61 16.5h-117v123h140q109 0 153.5 -43t44.5 -151v-502q0 -79 23.5 -108t99.5 -29v-138q-77 0 -100 -29t-23 -110v-500q0 -108 -44.5 -151t-153.5 -43h-140v123z " />
<glyph unicode="~" horiz-adv-x="804" d="M47 653q24 87 83 132.5t138 45.5q59 0 148.5 -35.5t132.5 -35.5t70.5 19t50.5 59l88 -39q-24 -86 -83.5 -131t-137.5 -45q-59 0 -148.5 34.5t-134.5 34.5q-42 0 -69.5 -18.5t-49.5 -57.5z" />
<glyph unicode="&#xa2;" horiz-adv-x="673" d="M78 725q0 191 20.5 283.5t79.5 140.5q43 37 103 47v164h141v-162q184 -37 201 -287l-144 -30q-1 39 -4 64t-10.5 52.5t-20.5 42.5t-35.5 25t-54.5 10q-103 0 -118 -117q-9 -88 -9 -233t9 -233q13 -117 118 -117q72 0 97.5 46t27.5 154l144 -30q-14 -257 -201 -293v-162 h-141v162q-62 13 -103 49q-58 48 -79 141t-21 283z" />
<glyph unicode="&#xa3;" horiz-adv-x="829" d="M2 113q0 60 44.5 94.5t123.5 34.5q74 0 154 -41q12 59 12 143q-3 123 -45 248h-178v129h127q-11 26 -37.5 81.5t-39.5 87t-29.5 78.5t-24 90.5t-7.5 88.5q0 145 81 228t231 83q168 0 247 -105t84 -304l-157 -33q0 160 -42 229.5t-130 69.5q-152 0 -152 -178 q0 -66 17 -128.5t55.5 -155t52.5 -132.5h266v-129h-229q18 -83 18 -178q0 -148 -41 -256q73 -39 146 -39q46 0 66 17.5t20 62.5q0 28 -4 61h149q4 -36 4 -80q0 -111 -54.5 -158t-154.5 -47q-73 0 -126 21.5t-107 60.5q-65 -75 -176 -75q-72 0 -118 32.5t-46 98.5zM104 100 q0 -45 72 -45q71 0 103 47q-59 39 -111 39q-64 0 -64 -41z" />
<glyph unicode="&#xa5;" horiz-adv-x="774" d="M45 1434h168l174 -588l174 588h168l-242 -680h218v-123h-240v-172h240v-123h-240v-336h-156v336h-239v123h239v172h-239v123h215z" />
<glyph unicode="&#xa8;" d="M305 1044v179h160v-179h-160zM559 1044v179h160v-179h-160z" />
<glyph unicode="&#xa9;" horiz-adv-x="1484" d="M117 717q0 195 45 339.5t129.5 231.5t196.5 128.5t255 41.5q113 0 207 -25.5t172.5 -82t132 -142.5t83.5 -210t30 -281q0 -195 -45 -339.5t-129.5 -231.5t-196.5 -129t-254 -42q-143 0 -255 42t-196.5 129t-129.5 231.5t-45 339.5zM211 717q0 -654 532 -654 q531 0 531 654q0 653 -531 653q-532 0 -532 -653zM489 717q0 171 20.5 251.5t74.5 121.5q65 51 164 51q125 0 181.5 -65.5t69.5 -196.5l-135 -27q-2 84 -25 125t-89 41q-79 0 -102 -63t-23 -238q0 -176 23 -238.5t102 -62.5q29 0 49.5 9t32.5 23t19 39.5t9.5 48.5t3.5 60 l135 -27q-6 -63 -20 -109.5t-41.5 -86t-76 -60t-116.5 -20.5q-98 0 -161 51q-54 44 -74.5 124.5t-20.5 248.5z" />
<glyph unicode="&#xab;" horiz-adv-x="681" d="M53 465l154 375h141l-143 -375l143 -375h-141zM334 465l153 375h140l-142 -375l142 -375h-140z" />
<glyph unicode="&#xad;" horiz-adv-x="577" d="M98 578v137h379v-137h-379z" />
<glyph unicode="&#xae;" horiz-adv-x="913" d="M68 1024q0 222 107 330t282 108t282 -108t107 -330t-107 -330t-282 -108t-282 108t-107 330zM139 1024q0 -193 84 -283t234 -90q149 0 233 90t84 283q0 192 -84 281.5t-233 89.5q-150 0 -234 -89t-84 -282zM315 786v482h138q91 0 126 -30t35 -95q0 -45 -14 -69t-47 -36 v-2q34 -7 45.5 -25.5t11.5 -56.5q0 -113 4 -168h-88q-2 45 -2 140q0 38 -10 49.5t-43 11.5h-70v-201h-86zM401 1055h39q53 0 68.5 13.5t15.5 57.5q0 42 -15.5 56t-68.5 14h-39v-141z" />
<glyph unicode="&#xb4;" d="M449 1044l94 279h178l-146 -279h-126z" />
<glyph unicode="&#xb8;" d="M354 -238q68 -14 115 -14q49 0 65.5 12.5t16.5 42.5t-22.5 40t-96.5 10h-20l59 192h68l-37 -129q95 -3 135.5 -27t40.5 -86q0 -68 -44.5 -96.5t-154.5 -28.5q-41 0 -125 15v69z" />
<glyph unicode="&#xbb;" horiz-adv-x="681" d="M55 90l142 375l-142 375h140l153 -375l-153 -375h-140zM334 90l143 375l-143 375h141l154 -375l-154 -375h-141z" />
<glyph unicode="&#x106;" horiz-adv-x="763" d="M84 717q0 459 49 583q32 82 102.5 120t161.5 38q165 0 240 -108q30 -44 42.5 -108.5t20.5 -190.5l-157 -35q-4 73 -6.5 107t-9.5 72.5t-19 61.5q-28 60 -111 60q-59 0 -90 -29.5t-43 -105.5q-16 -112 -16 -465t16 -465q12 -76 43 -105.5t90 -29.5q82 0 113 63 q14 29 20.5 76.5t12.5 171.5l159 -33q-14 -234 -65 -311q-73 -109 -240 -109q-91 0 -161.5 38t-102.5 120q-49 124 -49 584zM328 1546l106 275h180l-153 -275h-133z" />
<glyph unicode="&#x107;" horiz-adv-x="663" d="M63 465q0 192 22 284.5t81 141.5q65 55 176 55q254 0 274 -293l-149 -30q-1 39 -3.5 63t-10 51.5t-20.5 42.5t-36 25t-55 10q-103 0 -117 -115q-8 -60 -8 -235q0 -174 8 -234t35.5 -88t81.5 -28q71 0 97 45.5t28 152.5l149 -30q-17 -299 -274 -299q-110 0 -176 55 q-58 47 -80.5 139.5t-22.5 286.5zM279 1044l94 279h178l-145 -279h-127z" />
<glyph unicode="&#x10c;" horiz-adv-x="763" d="M84 717q0 459 49 583q32 82 102.5 120t161.5 38q165 0 240 -108q30 -44 42.5 -108.5t20.5 -190.5l-157 -35q-4 73 -6.5 107t-9.5 72.5t-19 61.5q-28 60 -111 60q-59 0 -90 -29.5t-43 -105.5q-16 -112 -16 -465t16 -465q12 -76 43 -105.5t90 -29.5q82 0 113 63 q14 29 20.5 76.5t12.5 171.5l159 -33q-14 -234 -65 -311q-73 -109 -240 -109q-91 0 -161.5 38t-102.5 120q-49 124 -49 584zM174 1821h113l110 -156l111 156h113l-146 -275h-156z" />
<glyph unicode="&#x10d;" horiz-adv-x="663" d="M63 465q0 192 22 284.5t81 141.5q65 55 176 55q254 0 274 -293l-149 -30q-1 39 -3.5 63t-10 51.5t-20.5 42.5t-36 25t-55 10q-103 0 -117 -115q-8 -60 -8 -235q0 -174 8 -234t35.5 -88t81.5 -28q71 0 97 45.5t28 152.5l149 -30q-17 -299 -274 -299q-110 0 -176 55 q-58 47 -80.5 139.5t-22.5 286.5zM123 1323h117l102 -160l102 160h117l-149 -279h-140z" />
<glyph unicode="&#x110;" horiz-adv-x="804" d="M6 717v145h96v572h275q119 0 192 -36t107 -126q27 -70 36 -198.5t9 -356.5q0 -247 -8.5 -365.5t-34.5 -191.5q-34 -90 -104 -125t-197 -35h-275v717h-96zM262 143h98q78 0 115 19.5t55 81.5q27 103 27 473q0 373 -27 473q-16 62 -53.5 81t-116.5 19h-98v-428h152v-145 h-152v-574z" />
<glyph unicode="&#x111;" horiz-adv-x="700" d="M68 469q0 197 21.5 290.5t76.5 139.5q53 45 141 45q113 0 160 -88v272h-262v107h262v199h147v-199h97v-107h-97v-1128h-116l-17 84q-54 -98 -178 -98q-81 0 -137 43q-52 42 -75 135t-23 305zM221 465q0 -173 8 -236q8 -60 32 -87t75 -27q89 0 115 80q20 59 20 270 q0 207 -20 268q-27 82 -111 82q-52 0 -77.5 -28.5t-33.5 -86.5q-8 -60 -8 -235z" />
<glyph unicode="&#x160;" horiz-adv-x="708" d="M49 393l154 31q6 -130 22 -194t46 -87.5t89 -23.5q69 0 101.5 38.5t32.5 129.5q0 65 -12.5 117t-43.5 101t-59.5 82.5t-83.5 90.5q-122 125 -180 226.5t-58 234.5q0 156 79.5 237.5t221.5 81.5q67 0 118 -19.5t84 -53.5t53.5 -86.5t29.5 -112t10 -135.5l-155 -29 q-1 64 -3.5 104.5t-11 80.5t-23.5 61.5t-41.5 35t-64.5 13.5q-141 0 -141 -170q0 -34 6.5 -67t13.5 -57t26 -55.5t29 -47t39.5 -49t39.5 -44t45 -47.5q44 -45 62.5 -65.5t54 -62.5t52 -73.5t36.5 -77t28 -95.5t8 -107q0 -152 -70.5 -238t-224.5 -86q-73 0 -126 19.5 t-94 65.5t-63 129t-26 204zM131 1821h113l110 -156l111 156h113l-146 -275h-156z" />
<glyph unicode="&#x161;" horiz-adv-x="618" d="M43 272l141 27q3 -102 34 -144t97 -42q57 0 85 25.5t28 84.5q0 29 -8 53.5t-19.5 40.5t-34.5 33.5t-41 28t-52 30t-56 33.5q-36 23 -60.5 42.5t-52 51t-41.5 74.5t-14 95q0 115 70.5 178t189.5 63q127 0 190 -75t68 -209l-137 -25q-3 97 -31.5 139.5t-93.5 42.5 q-112 0 -112 -110q0 -27 8.5 -49.5t20 -38t34.5 -33t40.5 -27.5t50.5 -28.5t52 -30.5q42 -26 69.5 -48t53.5 -54t38.5 -74.5t12.5 -96.5q0 -243 -254 -243q-126 0 -197.5 66t-78.5 220zM90 1323h117l102 -160l103 160h116l-149 -279h-139z" />
<glyph unicode="&#x17d;" horiz-adv-x="667" d="M41 0v123l408 1163h-402v148h571v-123l-407 -1164h416v-147h-586zM111 1821h112l111 -156l110 156h113l-145 -275h-156z" />
<glyph unicode="&#x17e;" horiz-adv-x="591" d="M35 0v115l338 684h-332v131h498v-111l-336 -686h342v-133h-510zM72 1323h116l103 -160l102 160h117l-150 -279h-139z" />
<glyph unicode="&#x2c6;" d="M293 1044l149 279h140l149 -279h-117l-102 160l-102 -160h-117z" />
<glyph unicode="&#x2da;" d="M340 1190q0 71 49 115.5t123 44.5t123 -44.5t49 -115.5t-49 -115.5t-123 -44.5t-123 44.5t-49 115.5zM436 1190q0 -37 20.5 -57.5t55.5 -20.5t55.5 20.5t20.5 57.5t-20.5 57.5t-55.5 20.5t-55.5 -20.5t-20.5 -57.5z" />
<glyph unicode="&#x2dc;" d="M283 1051q0 112 29.5 157t103.5 45q41 0 72 -15.5t46.5 -33.5t36 -33.5t41.5 -15.5q25 0 34 19.5t9 66.5h86q0 -113 -30 -159t-105 -46q-41 0 -72 15.5t-46 34t-35 34t-41 15.5q-25 0 -34 -19.5t-9 -64.5h-86z" />
<glyph unicode="&#x2000;" horiz-adv-x="910" />
<glyph unicode="&#x2001;" horiz-adv-x="1821" />
<glyph unicode="&#x2002;" horiz-adv-x="910" />
<glyph unicode="&#x2003;" horiz-adv-x="1821" />
<glyph unicode="&#x2004;" horiz-adv-x="607" />
<glyph unicode="&#x2005;" horiz-adv-x="455" />
<glyph unicode="&#x2006;" horiz-adv-x="303" />
<glyph unicode="&#x2007;" horiz-adv-x="303" />
<glyph unicode="&#x2008;" horiz-adv-x="227" />
<glyph unicode="&#x2009;" horiz-adv-x="364" />
<glyph unicode="&#x200a;" horiz-adv-x="101" />
<glyph unicode="&#x2010;" horiz-adv-x="577" d="M98 578v137h379v-137h-379z" />
<glyph unicode="&#x2011;" horiz-adv-x="577" d="M98 578v137h379v-137h-379z" />
<glyph unicode="&#x2012;" horiz-adv-x="577" d="M98 578v137h379v-137h-379z" />
<glyph unicode="&#x2013;" horiz-adv-x="700" d="M98 582v133h504v-133h-504z" />
<glyph unicode="&#x2014;" horiz-adv-x="1077" d="M109 580v135h860v-135h-860z" />
<glyph unicode="&#x2018;" horiz-adv-x="374" d="M100 1034v156l107 266l63 -22l-67 -217h73v-183h-176z" />
<glyph unicode="&#x2019;" horiz-adv-x="374" d="M98 1251v183h176v-156l-106 -266l-64 22l68 217h-74z" />
<glyph unicode="&#x201a;" horiz-adv-x="374" d="M98 0v182h176v-155l-106 -267l-64 23l68 217h-74z" />
<glyph unicode="&#x201c;" horiz-adv-x="618" d="M98 1034v156l107 266l63 -22l-65 -217h71v-183h-176zM344 1034v156l107 266l63 -22l-68 -217h74v-183h-176z" />
<glyph unicode="&#x201d;" horiz-adv-x="618" d="M98 1251v183h176v-156l-106 -266l-64 22l68 217h-74zM344 1251v183h176v-156l-106 -266l-64 22l66 217h-72z" />
<glyph unicode="&#x201e;" horiz-adv-x="618" d="M98 0v182h176v-155l-106 -267l-64 23l68 217h-74zM344 0v182h176v-155l-106 -267l-64 23l66 217h-72z" />
<glyph unicode="&#x2026;" horiz-adv-x="1212" d="M123 0v182h176v-182h-176zM518 0v182h176v-182h-176zM911 0v182h176v-182h-176z" />
<glyph unicode="&#x202f;" horiz-adv-x="364" />
<glyph unicode="&#x2039;" horiz-adv-x="409" d="M53 465l154 375h147l-143 -375l143 -375h-147z" />
<glyph unicode="&#x203a;" horiz-adv-x="409" d="M55 90l144 375l-144 375h148l153 -375l-153 -375h-148z" />
<glyph unicode="&#x205f;" horiz-adv-x="455" />
<glyph unicode="&#x20ac;" horiz-adv-x="788" d="M12 514v123h113v168h-113v123h113q6 275 45 372q62 158 262 158q155 0 222.5 -83.5t72.5 -244.5l-156 -34q-6 128 -33 174.5t-110 46.5q-58 0 -89.5 -28t-41.5 -103q-11 -92 -14 -258h335l-26 -123h-311v-168h278l-27 -123h-249q3 -174 14 -266q10 -75 41.5 -103 t89.5 -28q81 0 109 45t34 176l156 -35q-4 -170 -78 -249t-217 -79q-200 0 -262 158q-41 95 -47 381h-111z" />
<glyph unicode="&#x2122;" horiz-adv-x="993" d="M14 1339v95h348v-95h-122v-520h-103v520h-123zM432 819v615h154l88 -437h4l88 437h154v-615h-91v492h-4l-110 -492h-78l-109 492h-4v-492h-92z" />
<glyph unicode="&#x25fc;" horiz-adv-x="931" d="M0 0v932h932v-932h-932z" />
</font>
</defs>
</svg>
