<?xml version="1.0" encoding="UTF-8"?>
<svg xmlns="http://www.w3.org/2000/svg" version="1.1" viewBox="0 0 535 364">
  <defs>
    <style>
      .cls-1 {
        fill: #fff;
      }
    </style>
  </defs>
  <!-- Generator: Adobe Illustrator 28.7.1, SVG Export Plug-In . SVG Version: 1.2.0 Build 142)  -->
  <g>
    <g id="Layer_1">
      <g id="Layer_1-2" data-name="Layer_1">
        <g id="Layer_1-2">
          <g id="Layer_1-2-2" data-name="Layer_1-2">
            <g id="Layer_1-2-2">
              <g>
                <g>
                  <path class="cls-1" d="M51.3,150.5c3.6,2.7,5.8,6.4,6.6,11h-12.9c-.6-1.2-1.6-2.1-3-2.9-1.2-.7-2.9-1.1-4.6-1.1-3,0-5.3,1-7.1,3-1.7,2-2.6,4.7-2.6,8.1s1,6.7,2.9,8.7,4.7,3,8.3,3,3.8-.5,5.5-1.5,2.9-2.5,3.7-4.5h-12.2v-8.7h22.3v12.2c-1.6,3.6-4.1,6.8-7.6,9.3-3.5,2.6-7.8,3.8-13.1,3.8s-8.4-1-11.8-2.9-6-4.6-7.7-7.9c-1.9-3.3-2.7-7.3-2.7-11.7s.9-8.2,2.7-11.7c1.9-3.3,4.3-6,7.7-7.9,3.3-1.9,7.2-2.9,11.7-2.9s10.3,1.4,13.9,4.1v.4h0Z"/>
                  <path class="cls-1" d="M97,175.6h-23.1c.2,4,2,6,5.2,6s2.2-.2,3-.9,1.4-1.4,1.6-2.4h12.9c-.5,2.5-1.5,4.7-3.1,6.6-1.6,2-3.6,3.5-6,4.6s-5.1,1.7-7.9,1.7-6.6-.7-9.2-2.1c-2.7-1.5-4.7-3.5-6.2-6.2s-2.2-6-2.2-9.6.7-6.8,2.2-9.6,3.6-4.7,6.3-6.2,5.7-2.1,9.2-2.1,6.6.7,9.2,2.1c2.6,1.4,4.7,3.5,6.2,6.1s2.2,5.6,2.2,9.1,0,1.9-.4,2.9h.1ZM83.4,166.4c-1-.9-2.2-1.4-3.7-1.4s-3,.5-4,1.4-1.6,2.2-1.7,4.1h10.9c0-1.7-.5-3.1-1.5-4.1Z"/>
                  <path class="cls-1" d="M134.9,159.6c2.2,2.7,3.5,6.3,3.5,10.9v20.3h-12.2v-18.7c0-2-.5-3.6-1.6-4.7s-2.5-1.7-4.2-1.7-3.2.6-4.3,1.7c-1.1,1.2-1.6,2.9-1.6,4.8v18.5h-12.3v-34.9h12.3v5.8c1-1.9,2.5-3.3,4.3-4.5s4.1-1.7,6.7-1.7c4,0,7.2,1.4,9.4,4h0v.2h0Z"/>
                  <path class="cls-1" d="M178.1,175.6h-23.1c.2,4,2,6,5.2,6s2.2-.2,3-.9c.7-.6,1.4-1.4,1.6-2.4h12.9c-.5,2.5-1.5,4.7-3.1,6.6-1.6,2-3.6,3.5-6,4.6s-5.1,1.7-7.9,1.7-6.6-.7-9.2-2.1c-2.7-1.5-4.7-3.5-6.2-6.2s-2.2-6-2.2-9.6.7-6.8,2.2-9.6,3.6-4.7,6.3-6.2,5.7-2.1,9.2-2.1,6.6.7,9.2,2.1c2.6,1.4,4.7,3.5,6.2,6.1s2.2,5.6,2.2,9.1,0,1.9-.4,2.9h.1ZM164.6,166.4c-1-.9-2.2-1.4-3.7-1.4s-3,.5-4,1.4-1.6,2.2-1.7,4.1h10.9c0-1.7-.5-3.1-1.5-4.1h0Z"/>
                  <path class="cls-1" d="M200.8,157.5c2.1-1.2,4.2-1.9,6.6-1.9v13h-3.6c-2.7,0-4.8.5-6.2,1.6s-2.1,2.9-2.1,5.5v15h-12.3v-34.9h12.3v6.6c1.4-2.1,3.1-3.7,5.2-5h.1Z"/>
                  <path class="cls-1" d="M230.7,157c1.9,1.1,3.1,2.5,4,4.3v-5.6h12.2v34.9h-12.2v-5.6c-.9,1.9-2.2,3.3-4,4.3s-4,1.6-6.3,1.6-5.3-.7-7.6-2.1c-2.2-1.5-4-3.5-5.3-6.2s-2-6-2-9.6.6-6.8,2-9.6,3.1-4.7,5.3-6.2,4.7-2.1,7.6-2.1,4.6.5,6.3,1.6h0v.3ZM223.7,168c-1.2,1.2-1.7,3-1.7,5.2s.6,4.1,1.7,5.3c1.2,1.2,2.7,1.9,4.6,1.9s3.3-.6,4.6-2c1.2-1.2,1.9-3.1,1.9-5.3s-.6-4-1.9-5.2-2.7-2-4.6-2-3.5.6-4.6,1.9v.2h0Z"/>
                  <path class="cls-1" d="M274.4,180.3v10.4h-5.1c-4.2,0-7.6-1.1-10-3.2-2.4-2.1-3.6-5.6-3.6-10.5v-11h-4.5v-10.2h4.5v-8.4h12.3v8.4h6.3v10.2h-6.3v11.3c0,1.1.2,1.9.7,2.4s1.2.7,2.4.7h3.3Z"/>
                  <path class="cls-1" d="M281.1,141.7c1.4-1.2,3.1-1.7,5.2-1.7s3.8.6,5.2,1.7c1.2,1.2,2,2.7,2,4.5s-.6,3.2-2,4.3-3,1.7-5.1,1.7-3.8-.6-5.2-1.7-2-2.6-2-4.3.6-3.3,2-4.5h-.1ZM292.3,155.9v34.9h-12.3v-34.9h12.3Z"/>
                  <path class="cls-1" d="M324.9,157.6c2.7,1.5,5,3.5,6.4,6.2,1.6,2.7,2.4,5.8,2.4,9.4s-.7,6.8-2.4,9.6-3.7,4.7-6.4,6.2-5.8,2.2-9.3,2.2-6.6-.7-9.4-2.2c-2.7-1.5-5-3.5-6.6-6.2s-2.4-5.8-2.4-9.6.7-6.8,2.4-9.6,3.7-4.7,6.6-6.2c2.7-1.5,6-2.1,9.4-2.1s6.6.7,9.3,2.1h0v.2h0ZM311.3,167.9c-1.1,1.2-1.7,3.1-1.7,5.5s.6,4.2,1.7,5.5,2.5,1.9,4.2,1.9,3.1-.6,4.2-1.9,1.7-3.1,1.7-5.5-.6-4.2-1.7-5.5-2.5-1.9-4.2-1.9-3.1.6-4.2,1.9Z"/>
                  <path class="cls-1" d="M371.4,159.6c2.2,2.7,3.5,6.3,3.5,10.9v20.3h-12.2v-18.7c0-2-.5-3.6-1.6-4.7-1.1-1.1-2.5-1.7-4.2-1.7s-3.2.6-4.3,1.7-1.6,2.9-1.6,4.8v18.5h-12.3v-34.9h12.3v5.8c1-1.9,2.5-3.3,4.3-4.5,1.9-1.1,4.1-1.7,6.7-1.7,4,0,7.2,1.4,9.4,4h0v.2h0Z"/>
                  <path class="cls-1" d="M427.6,150.5c3.6,2.7,5.8,6.4,6.6,11h-12.9c-.6-1.2-1.6-2.1-3-2.9-1.2-.7-2.9-1.1-4.6-1.1-3,0-5.3,1-7.1,3-1.7,2-2.6,4.7-2.6,8.1s1,6.7,2.9,8.7,4.7,3,8.3,3,3.8-.5,5.5-1.5,2.9-2.5,3.7-4.5h-12.2v-8.7h22.3v12.2c-1.6,3.6-4.1,6.8-7.6,9.3-3.5,2.6-7.8,3.8-13.1,3.8s-8.4-1-11.8-2.9-6-4.6-7.7-7.9c-1.9-3.3-2.7-7.3-2.7-11.7s.9-8.2,2.7-11.7c1.9-3.3,4.3-6,7.7-7.9,3.3-1.9,7.2-2.9,11.7-2.9s10.3,1.4,13.9,4.1v.4h0Z"/>
                  <path class="cls-1" d="M459.4,157c1.9,1.1,3.1,2.5,4,4.3v-5.6h12.2v34.9h-12.2v-5.6c-.9,1.9-2.2,3.3-4,4.3s-4,1.6-6.3,1.6-5.3-.7-7.6-2.1c-2.2-1.5-4-3.5-5.3-6.2s-2-6-2-9.6.6-6.8,2-9.6,3.1-4.7,5.3-6.2,4.7-2.1,7.6-2.1,4.6.5,6.3,1.6h0v.3ZM452.4,168c-1.2,1.2-1.7,3-1.7,5.2s.6,4.1,1.7,5.3c1.2,1.2,2.7,1.9,4.6,1.9s3.3-.6,4.6-2c1.2-1.2,1.9-3.1,1.9-5.3s-.6-4-1.9-5.2-2.7-2-4.6-2-3.5.6-4.6,1.9v.2h0Z"/>
                  <path class="cls-1" d="M512.4,157.6c2.2,1.5,4,3.5,5.3,6.2,1.2,2.7,2,5.8,2,9.6s-.6,6.8-2,9.6c-1.2,2.7-3.1,4.8-5.3,6.2-2.2,1.5-4.7,2.1-7.6,2.1s-4.6-.5-6.3-1.6-3.1-2.5-4-4.3v22.2h-12.3v-51.6h12.3v5.6c.9-1.9,2.2-3.3,4-4.3s3.8-1.6,6.3-1.6,5.3.7,7.6,2.1h0v-.2ZM496.2,168.2c-1.2,1.2-1.9,3-1.9,5.2s.6,4,1.9,5.3c1.2,1.2,2.7,2,4.6,2s3.5-.6,4.6-1.9c1.2-1.2,1.7-3,1.7-5.3s-.6-4-1.7-5.2c-1.2-1.2-2.7-1.9-4.6-1.9s-3.3.6-4.6,2v-.2h0Z"/>
                </g>
                <g>
                  <path class="cls-1" d="M91.7,229.9c.5.6.7,1.3.7,2s-.4,1.9-1.1,2.5-1.7.9-3.2.9h-4.9v-13.1h4.8c1.3,0,2.3.3,3,.9s1,1.3,1,2.3-.2,1.5-.7,2c-.4.5-1,.8-1.7,1,.8.2,1.4.5,1.9,1.1h.2v.4h0ZM85.1,228.2h2.9c.8,0,1.4-.2,1.9-.6.4-.4.6-.9.6-1.6s-.2-1.2-.6-1.5c-.4-.4-1.1-.6-1.9-.6h-2.8v4.3h0ZM90,233.6c.5-.4.7-1,.7-1.7s-.2-1.3-.7-1.7-1.2-.6-2-.6h-2.9v4.7h2.9c.9,0,1.5-.2,2-.6h0Z"/>
                  <path class="cls-1" d="M101.3,226.1c.7.5,1.1,1.1,1.4,1.9v-2.5h1.7v10.2h-1.7v-2.5c-.3.8-.7,1.5-1.4,1.9s-1.5.7-2.5.7-1.7-.2-2.4-.6c-.7-.4-1.2-1-1.6-1.8s-.6-1.7-.6-2.8.2-1.9.6-2.8.9-1.4,1.6-1.8,1.5-.6,2.4-.6,1.8.2,2.5.7h0ZM96.7,227.8c-.6.6-.9,1.5-.9,2.8s.3,2,.9,2.8c.6.6,1.4,1,2.4,1s1.2-.2,1.8-.5c.5-.3.9-.7,1.2-1.3.3-.5.4-1.2.4-1.9s0-1.4-.4-1.9-.7-1-1.2-1.3-1.1-.4-1.8-.4c-1,0-1.8.3-2.4,1h0v-.3h0Z"/>
                  <path class="cls-1" d="M113,226.2c.7.6,1.1,1.4,1.2,2.4h-1.6c0-.6-.3-1.1-.7-1.5-.4-.4-1-.6-1.7-.6s-1.1.1-1.4.4-.5.7-.5,1.2,0,.7.3.9.5.4.8.5.8.2,1.4.4c.7.2,1.3.3,1.8.5s.8.5,1.2.8.5.9.5,1.6-.3,1.5-.9,2-1.4.8-2.4.8-2.2-.3-3-.9c-.7-.6-1.2-1.4-1.3-2.4h1.6c0,.6.3,1.1.8,1.5s1.1.6,1.8.6,1-.1,1.3-.4.5-.7.5-1.1,0-.7-.3-.9c-.2-.2-.5-.4-.9-.5-.3-.1-.8-.2-1.4-.4-.7-.2-1.3-.3-1.8-.5-.4-.2-.8-.4-1.1-.8s-.5-.9-.5-1.5.3-1.5.9-2,1.5-.8,2.5-.8,2,.3,2.8.9v-.2h0ZM113,222.8l-2.5,1.5-2.5-1.5v-1.2l2.5,1.5,2.5-1.5v1.2Z"/>
                  <path class="cls-1" d="M126.8,235.5l-3.9-4.6v4.6h-1.7v-13.7h1.7v8l3.9-4.4h2l-4.6,5.1,4.7,5.1h-2.1Z"/>
                  <path class="cls-1" d="M137.1,226.1c.7.5,1.1,1.1,1.4,1.9v-2.5h1.7v10.2h-1.7v-2.5c-.3.8-.7,1.5-1.4,1.9s-1.5.7-2.5.7-1.7-.2-2.4-.6-1.2-1-1.6-1.8c-.4-.8-.6-1.7-.6-2.8s.2-1.9.6-2.8c.4-.8.9-1.4,1.6-1.8.7-.4,1.5-.6,2.4-.6s1.8.2,2.5.7h0ZM132.6,227.8c-.6.6-.9,1.5-.9,2.8s.3,2,.9,2.8c.6.6,1.4,1,2.4,1s1.2-.2,1.8-.5c.5-.3.9-.7,1.2-1.3.3-.5.4-1.2.4-1.9s-.1-1.4-.4-1.9-.7-1-1.2-1.3-1.1-.4-1.8-.4c-1,0-1.8.3-2.4,1h0v-.3h0Z"/>
                  <path class="cls-1" d="M150.1,226c.8.4,1.3,1,1.8,1.8.4.8.6,1.7.6,2.8s-.2,1.9-.6,2.8c-.4.8-1,1.4-1.8,1.8s-1.6.6-2.7.6-1.8-.2-2.7-.6c-.8-.4-1.4-1-1.8-1.8-.4-.8-.7-1.7-.7-2.8s.2-1.9.7-2.8c.4-.8,1-1.4,1.8-1.8s1.6-.6,2.7-.6,1.8.2,2.7.6ZM145.8,227.2c-.5.3-.9.7-1.2,1.2s-.5,1.2-.5,2,.2,1.5.5,2c.3.6.7,1,1.2,1.2.5.3,1,.4,1.6.4s1.1-.1,1.6-.4.9-.7,1.2-1.2.5-1.2.5-2-.2-1.5-.5-2-.7-1-1.2-1.2c-.5-.3-1-.4-1.6-.4s-1.1.1-1.6.4Z"/>
                  <path class="cls-1" d="M165.3,226.2c.7.6,1.1,1.4,1.2,2.4h-1.6c0-.6-.3-1.1-.7-1.5s-1-.6-1.7-.6-1.1.1-1.4.4-.5.7-.5,1.2.1.7.3.9.5.4.8.5.8.2,1.4.4c.7.2,1.3.3,1.8.5s.8.5,1.2.8.5.9.5,1.6-.3,1.5-.9,2c-.6.5-1.4.8-2.4.8s-2.2-.3-3-.9c-.7-.6-1.2-1.4-1.3-2.4h1.6c0,.6.3,1.1.8,1.5s1.1.6,1.8.6,1-.1,1.3-.4.5-.7.5-1.1-.1-.7-.3-.9-.5-.4-.9-.5c-.3-.1-.8-.2-1.4-.4-.7-.2-1.3-.3-1.8-.5-.4-.2-.8-.4-1.1-.8s-.5-.9-.5-1.5.3-1.5.9-2,1.5-.8,2.5-.8,2,.3,2.8.9v-.2h0ZM165.3,222.8l-2.5,1.5-2.5-1.5v-1.2l2.5,1.5,2.5-1.5v1.2Z"/>
                  <path class="cls-1" d="M173.7,234.1v1.5h-1.2c-1,0-1.8-.2-2.3-.7s-.8-1.3-.8-2.4v-5.5h-1.5v-1.4h1.5v-2.5h1.7v2.5h2.7v1.4h-2.7v5.5c0,.6.1,1.1.4,1.3.2.2.6.4,1.2.4h1Z"/>
                  <path class="cls-1" d="M183.1,226c.8.4,1.3,1,1.8,1.8.4.8.6,1.7.6,2.8s-.2,1.9-.6,2.8c-.4.8-1,1.4-1.8,1.8s-1.6.6-2.7.6-1.8-.2-2.7-.6c-.8-.4-1.4-1-1.8-1.8-.4-.8-.7-1.7-.7-2.8s.2-1.9.7-2.8c.4-.8,1-1.4,1.8-1.8s1.6-.6,2.7-.6,1.8.2,2.7.6ZM178.7,227.2c-.5.3-.9.7-1.2,1.2s-.5,1.2-.5,2,.2,1.5.5,2c.3.6.7,1,1.2,1.2.5.3,1,.4,1.6.4s1.1-.1,1.6-.4.9-.7,1.2-1.2.5-1.2.5-2-.2-1.5-.5-2-.7-1-1.2-1.2c-.5-.3-1-.4-1.6-.4s-1.1.1-1.6.4Z"/>
                  <path class="cls-1" d="M205.2,222.8v12.9h-1.7v-10.2l-4.1,10.2h-1.5l-4.1-10.2v10.2h-1.7v-12.9h2l4.6,10.8,4.5-10.8h2Z"/>
                  <path class="cls-1" d="M208.1,221.7c.2-.2.5-.3.8-.3s.6,0,.8.3c.2.2.3.4.3.7s-.1.5-.3.7-.5.3-.8.3-.6,0-.8-.3c-.2-.2-.3-.4-.3-.7s.1-.5.3-.7ZM209.6,225.4v10.2h-1.7v-10.2h1.7Z"/>
                  <path class="cls-1" d="M214.1,221.9v13.7h-1.7v-13.7h1.7Z"/>
                  <path class="cls-1" d="M222.3,235.5l-3.9-4.6v4.6h-1.7v-13.7h1.7v8l3.9-4.4h2l-4.6,5.1,4.7,5.1h-2.1,0Z"/>
                  <path class="cls-1" d="M232.6,226.1c.7.5,1.1,1.1,1.4,1.9v-2.5h1.7v10.2h-1.7v-2.5c-.3.8-.7,1.5-1.4,1.9s-1.5.7-2.5.7-1.7-.2-2.4-.6-1.2-1-1.6-1.8c-.4-.8-.6-1.7-.6-2.8s.2-1.9.6-2.8c.4-.8.9-1.4,1.6-1.8.7-.4,1.5-.6,2.4-.6s1.8.2,2.5.7h0ZM228.1,227.8c-.6.6-.9,1.5-.9,2.8s.3,2,.9,2.8c.6.6,1.4,1,2.4,1s1.2-.2,1.8-.5c.5-.3.9-.7,1.2-1.3.3-.5.4-1.2.4-1.9s-.1-1.4-.4-1.9-.7-1-1.2-1.3-1.1-.4-1.8-.4c-1,0-1.8.3-2.4,1h0v-.3h0Z"/>
                  <path class="cls-1" d="M250.6,226.4c.8.7,1.3,1.6,1.5,2.8h-1.7c-.1-.7-.5-1.3-1-1.7s-1.2-.6-2-.6-1.1.1-1.6.4-.9.7-1.2,1.2-.4,1.2-.4,2,.1,1.5.4,2c.3.6.7,1,1.2,1.2.5.3,1,.4,1.6.4s1.5-.2,2-.6.9-1,1-1.7h1.7c-.2,1.1-.7,2.1-1.5,2.8s-1.9,1-3.3,1-1.8-.2-2.5-.6-1.3-1-1.7-1.8-.6-1.7-.6-2.8.2-1.9.6-2.8c.4-.8,1-1.4,1.7-1.8s1.6-.6,2.5-.6,2.3.3,3.3,1v.2h0ZM249.9,222.8l-2.5,1.5-2.5-1.5v-1.2l2.5,1.5,2.5-1.5v1.2Z"/>
                  <path class="cls-1" d="M261.6,226c.8.4,1.3,1,1.8,1.8.4.8.6,1.7.6,2.8s-.2,1.9-.6,2.8-1,1.4-1.8,1.8-1.6.6-2.7.6-1.8-.2-2.7-.6-1.4-1-1.8-1.8-.7-1.7-.7-2.8.2-1.9.7-2.8c.4-.8,1-1.4,1.8-1.8.8-.4,1.6-.6,2.7-.6s1.8.2,2.7.6ZM257.4,227.2c-.5.3-.9.7-1.2,1.2s-.5,1.2-.5,2,.2,1.5.5,2c.3.6.7,1,1.2,1.2.5.3,1,.4,1.6.4s1.1-.1,1.6-.4.9-.7,1.2-1.2c.3-.5.5-1.2.5-2s-.2-1.5-.5-2-.7-1-1.2-1.2c-.5-.3-1-.4-1.6-.4s-1.1.1-1.6.4Z"/>
                  <path class="cls-1" d="M271.8,235.5l-3.9-4.6v4.6h-1.7v-13.7h1.7v8l3.9-4.4h2l-4.6,5.1,4.7,5.1h-2.1Z"/>
                  <path class="cls-1" d="M282.6,226c.8.4,1.3,1,1.8,1.8.4.8.6,1.7.6,2.8s-.2,1.9-.6,2.8-1,1.4-1.8,1.8-1.6.6-2.7.6-1.8-.2-2.7-.6-1.4-1-1.8-1.8-.7-1.7-.7-2.8.2-1.9.7-2.8c.4-.8,1-1.4,1.8-1.8s1.6-.6,2.7-.6,1.8.2,2.7.6ZM278.4,227.2c-.5.3-.9.7-1.2,1.2s-.5,1.2-.5,2,.2,1.5.5,2c.3.6.7,1,1.2,1.2.5.3,1,.4,1.6.4s1.1-.1,1.6-.4.9-.7,1.2-1.2c.3-.5.5-1.2.5-2s-.2-1.5-.5-2-.7-1-1.2-1.2c-.5-.3-1-.4-1.6-.4s-1.1.1-1.6.4Z"/>
                  <path class="cls-1" d="M289.1,221.9v13.7h-1.7v-13.7h1.7Z"/>
                  <path class="cls-1" d="M298.6,226.1c.7.5,1.1,1.1,1.4,1.9v-2.5h1.7v10.2h-1.7v-2.5c-.3.8-.7,1.5-1.4,1.9-.7.5-1.5.7-2.5.7s-1.7-.2-2.4-.6c-.7-.4-1.2-1-1.6-1.8s-.6-1.7-.6-2.8.2-1.9.6-2.8.9-1.4,1.6-1.8,1.5-.6,2.4-.6,1.8.2,2.5.7h0ZM293.9,227.8c-.6.6-.9,1.5-.9,2.8s.3,2,.9,2.8c.6.6,1.4,1,2.4,1s1.2-.2,1.8-.5c.5-.3.9-.7,1.2-1.3.3-.5.4-1.2.4-1.9s-.1-1.4-.4-1.9c-.3-.6-.7-1-1.2-1.3s-1.1-.4-1.8-.4c-1,0-1.8.3-2.4,1h0v-.3h0Z"/>
                  <path class="cls-1" d="M310.9,226.1c.7.5,1.1,1.1,1.4,1.9v-6.1h1.7v13.7h-1.7v-2.5c-.3.8-.7,1.5-1.4,1.9-.7.5-1.5.7-2.5.7s-1.7-.2-2.4-.6c-.7-.4-1.2-1-1.6-1.8s-.6-1.7-.6-2.8.2-1.9.6-2.8.9-1.4,1.6-1.8,1.5-.6,2.4-.6,1.8.2,2.5.7h0ZM306.4,227.8c-.6.6-.9,1.5-.9,2.8s.3,2,.9,2.8c.6.6,1.4,1,2.4,1s1.2-.2,1.8-.5c.5-.3.9-.7,1.2-1.3.3-.5.4-1.2.4-1.9s-.1-1.4-.4-1.9c-.3-.6-.7-1-1.2-1.3s-1.1-.4-1.8-.4c-1,0-1.8.3-2.4,1h0v-.3h0Z"/>
                  <path class="cls-1" d="M323.3,226.1c.7.5,1.1,1.1,1.4,1.9v-2.5h1.7v10.2h-1.7v-2.5c-.3.8-.7,1.5-1.4,1.9-.7.5-1.5.7-2.5.7s-1.7-.2-2.4-.6c-.7-.4-1.2-1-1.6-1.8s-.6-1.7-.6-2.8.2-1.9.6-2.8.9-1.4,1.6-1.8,1.5-.6,2.4-.6,1.8.2,2.5.7h0ZM318.9,227.8c-.6.6-.9,1.5-.9,2.8s.3,2,.9,2.8c.6.6,1.4,1,2.4,1s1.2-.2,1.8-.5c.5-.3.9-.7,1.2-1.3.3-.5.4-1.2.4-1.9s-.1-1.4-.4-1.9c-.3-.6-.7-1-1.2-1.3s-1.1-.4-1.8-.4c-1,0-1.8.3-2.4,1h0v-.3h0Z"/>
                  <path class="cls-1" d="M333.7,221.7c.2-.2.5-.3.8-.3s.6,0,.8.3c.2.2.3.4.3.7s-.1.5-.3.7c-.2.2-.5.3-.8.3s-.6,0-.8-.3c-.2-.2-.3-.4-.3-.7s.1-.5.3-.7ZM335.4,225.4v10.2h-1.7v-10.2h1.7Z"/>
                  <path class="cls-1" d="M353.4,226.4c.7.7,1.1,1.8,1.1,3.3v5.9h-1.7v-5.7c0-1-.2-1.7-.7-2.2s-1.1-.8-2-.8-1.6.3-2.1.9-.8,1.4-.8,2.5v5.4h-1.7v-5.7c0-1-.2-1.7-.7-2.2s-1.1-.8-2-.8-1.6.3-2.1.9-.8,1.4-.8,2.5v5.4h-1.7v-10.2h1.7v2.3c.2-.8.7-1.4,1.3-1.8.6-.4,1.3-.6,2.1-.6s1.6.2,2.2.6,1.1,1.1,1.3,1.9c.3-.8.7-1.4,1.4-1.9.7-.4,1.4-.7,2.2-.7s2.1.4,2.9,1.1h.2,0Z"/>
                  <path class="cls-1" d="M363.8,226.1c.7.5,1.1,1.1,1.4,1.9v-2.5h1.7v10.2h-1.7v-2.5c-.3.8-.7,1.5-1.4,1.9-.7.5-1.5.7-2.5.7s-1.7-.2-2.4-.6c-.7-.4-1.2-1-1.6-1.8s-.6-1.7-.6-2.8.2-1.9.6-2.8.9-1.4,1.6-1.8,1.5-.6,2.4-.6,1.8.2,2.5.7h0ZM359.3,227.8c-.6.6-.9,1.5-.9,2.8s.3,2,.9,2.8c.6.6,1.4,1,2.4,1s1.2-.2,1.8-.5c.5-.3.9-.7,1.2-1.3.3-.5.4-1.2.4-1.9s-.1-1.4-.4-1.9c-.3-.6-.7-1-1.2-1.3s-1.1-.4-1.8-.4c-1,0-1.8.3-2.4,1h0v-.3h0Z"/>
                  <path class="cls-1" d="M380.1,226.2c.7.6,1.1,1.4,1.2,2.4h-1.6c0-.6-.3-1.1-.7-1.5s-1-.6-1.7-.6-1.1.1-1.4.4-.5.7-.5,1.2.1.7.3.9.5.4.8.5.8.2,1.4.4c.7.2,1.3.3,1.8.5s.8.5,1.2.8.5.9.5,1.6-.3,1.5-.9,2-1.4.8-2.4.8-2.2-.3-3-.9-1.2-1.4-1.3-2.4h1.6c0,.6.3,1.1.8,1.5s1.1.6,1.8.6,1-.1,1.3-.4.5-.7.5-1.1-.1-.7-.3-.9-.5-.4-.9-.5c-.3-.1-.8-.2-1.4-.4-.7-.2-1.3-.3-1.8-.5-.4-.2-.8-.4-1.1-.8-.3-.4-.5-.9-.5-1.5s.3-1.5.9-2,1.5-.8,2.5-.8,2,.3,2.8.9v-.2h.1Z"/>
                  <path class="cls-1" d="M387.7,233.8l3.2-8.4h1.8l-4,10.2h-2l-4-10.2h1.8l3.2,8.4Z"/>
                  <path class="cls-1" d="M401.6,226c.8.4,1.3,1,1.8,1.8.4.8.6,1.7.6,2.8s-.2,1.9-.6,2.8-1,1.4-1.8,1.8-1.6.6-2.7.6-1.8-.2-2.7-.6-1.4-1-1.8-1.8-.7-1.7-.7-2.8.2-1.9.7-2.8c.4-.8,1-1.4,1.8-1.8s1.6-.6,2.7-.6,1.8.2,2.7.6ZM397.2,227.2c-.5.3-.9.7-1.2,1.2s-.5,1.2-.5,2,.2,1.5.5,2c.3.6.7,1,1.2,1.2.5.3,1,.4,1.6.4s1.1-.1,1.6-.4.9-.7,1.2-1.2c.3-.5.5-1.2.5-2s-.2-1.5-.5-2-.7-1-1.2-1.2c-.5-.3-1-.4-1.6-.4s-1.1.1-1.6.4Z"/>
                  <path class="cls-1" d="M404.3,238.9h.7c.4,0,.8,0,1-.3.2-.2.3-.5.3-1v-12.1h1.7v12.2c0,1.8-.9,2.8-2.8,2.8h-.9v-1.5h-.1,0ZM406.3,223.2c-.2-.2-.3-.4-.3-.7s.1-.5.3-.7c.2-.2.5-.3.8-.3s.6,0,.8.3c.2.2.3.4.3.7s-.1.5-.3.7c-.2.2-.5.3-.8.3s-.6,0-.8-.3Z"/>
                  <path class="cls-1" d="M429.9,230.1c1.2-1.4,1.9-2.7,1.9-3.9s-.2-1.3-.6-1.8c-.4-.4-1-.7-1.8-.7s-1.5.3-1.9.8-.7,1.3-.7,2.2h-1.6c0-1.4.5-2.5,1.3-3.4s1.8-1.2,3.2-1.2,2.1.3,2.9,1,1.1,1.5,1.1,2.8-.3,2-.9,3-1.4,1.9-2.3,2.9c-.9.9-1.9,1.6-3,2.2h6.6v1.4h-9v-1.2c2.1-1.4,3.8-2.8,5-4.2h-.2Z"/>
                  <path class="cls-1" d="M435.2,232.6v-1.4l6.7-8.8h1.8v8.7h1.9v1.4h-1.9v3h-1.7v-3h-6.8ZM442.2,224.5l-5.1,6.6h5.1v-6.6Z"/>
                  <path class="cls-1" d="M108.9,257.8l-3.9-4.6v4.6h-1.7v-13.7h1.7v8l3.9-4.4h2l-4.6,5.1,4.7,5.1h-2.1Z"/>
                  <path class="cls-1" d="M119.7,248.1c.8.4,1.3,1,1.8,1.8.4.8.6,1.7.6,2.8s-.2,1.9-.6,2.8-1,1.4-1.8,1.8-1.6.6-2.7.6-1.8-.2-2.7-.6c-.8-.4-1.4-1-1.8-1.8s-.7-1.7-.7-2.8.2-1.9.7-2.8c.4-.8,1-1.4,1.8-1.8s1.6-.6,2.7-.6,1.8.2,2.7.6h0ZM115.4,249.4c-.5.3-.9.7-1.2,1.2-.3.5-.5,1.2-.5,2s.2,1.5.5,2c.3.6.7,1,1.2,1.2.5.3,1,.4,1.6.4s1.1-.1,1.6-.4.9-.7,1.2-1.2c.3-.5.5-1.2.5-2s-.2-1.5-.5-2c-.3-.6-.7-1-1.2-1.2-.5-.3-1-.4-1.6-.4s-1.1.1-1.6.4h0Z"/>
                  <path class="cls-1" d="M132.1,248.5c.8.7,1.3,1.6,1.5,2.8h-1.7c-.1-.7-.5-1.3-1-1.7s-1.2-.6-2-.6-1.1.1-1.6.4-.9.7-1.2,1.2-.4,1.2-.4,2,0,1.5.4,2c.3.6.7,1,1.2,1.2.5.3,1,.4,1.6.4s1.5-.2,2-.6.9-1,1-1.7h1.7c-.2,1.1-.7,2.1-1.5,2.8-.8.7-1.9,1-3.3,1s-1.8-.2-2.5-.6-1.3-1-1.7-1.8-.6-1.7-.6-2.8.2-1.9.6-2.8,1-1.4,1.7-1.8,1.6-.6,2.5-.6,2.3.3,3.3,1v.2h0Z"/>
                  <path class="cls-1" d="M141.4,257.8l-3.9-4.6v4.6h-1.7v-13.7h1.7v8l3.9-4.4h2l-4.6,5.1,4.7,5.1h-2.1,0Z"/>
                  <path class="cls-1" d="M145.1,243.9c.2-.2.5-.3.8-.3s.6,0,.8.3c.2.2.3.4.3.7s-.1.5-.3.7-.5.3-.8.3-.6,0-.8-.3c-.2-.2-.3-.4-.3-.7s.1-.5.3-.7ZM146.7,247.6v10.2h-1.7v-10.2h1.7Z"/>
                  <path class="cls-1" d="M157.1,248.5c.8.7,1.3,1.6,1.5,2.8h-1.7c-.1-.7-.5-1.3-1-1.7s-1.2-.6-2-.6-1.1.1-1.6.4-.9.7-1.2,1.2-.4,1.2-.4,2,.1,1.5.4,2c.3.6.7,1,1.2,1.2.5.3,1,.4,1.6.4s1.5-.2,2-.6.9-1,1-1.7h1.7c-.2,1.1-.7,2.1-1.5,2.8-.8.7-1.9,1-3.3,1s-1.8-.2-2.5-.6-1.3-1-1.7-1.8-.6-1.7-.6-2.8.2-1.9.6-2.8,1-1.4,1.7-1.8,1.6-.6,2.5-.6,2.3.3,3.3,1v.2h0Z"/>
                  <path class="cls-1" d="M170.2,253.1h-8.2c0,1.1.4,2,1,2.7s1.4.9,2.2.9,1.5-.2,2-.6.9-.9,1-1.6h1.8c-.1.7-.4,1.3-.8,1.9-.4.6-1,1-1.6,1.3-.7.3-1.4.5-2.2.5s-1.8-.2-2.5-.6-1.3-1-1.7-1.8-.6-1.7-.6-2.8.2-1.9.6-2.8,1-1.4,1.7-1.8,1.6-.6,2.5-.6,1.8.2,2.5.6,1.3,1,1.7,1.7.6,1.5.6,2.3v.9l-.2-.3h.2ZM168.1,250.3c-.3-.5-.7-.9-1.1-1.1-.5-.2-1-.4-1.6-.4-.9,0-1.7.3-2.3.8-.6.6-.9,1.4-1,2.5h6.5c0-.7,0-1.4-.4-1.9h0Z"/>
                  <path class="cls-1" d="M419.9,230.5h-8.2c0,1.1.4,2,1,2.7s1.4.9,2.2.9,1.5-.2,2-.6.9-.9,1-1.6h1.8c-.1.7-.4,1.3-.8,1.9s-1,1-1.6,1.3c-.7.3-1.4.5-2.2.5s-1.8-.2-2.5-.6-1.3-1-1.7-1.8-.6-1.7-.6-2.8.2-1.9.6-2.8,1-1.4,1.7-1.8,1.6-.6,2.5-.6,1.8.2,2.5.6,1.3,1,1.7,1.7.6,1.5.6,2.3v.9l-.2-.3h.2ZM417.8,227.7c-.3-.5-.7-.9-1.1-1.1-.5-.2-1-.4-1.6-.4-.9,0-1.7.3-2.3.8-.6.6-.9,1.4-1,2.5h6.5c0-.7,0-1.4-.4-1.9h-.1Z"/>
                  <path class="cls-1" d="M186.1,247.6v10.2h-1.7v-2.3c-.3.8-.7,1.4-1.4,1.9-.6.4-1.4.6-2.3.6s-2.1-.4-2.9-1.1c-.7-.7-1.1-1.8-1.1-3.3v-5.9h1.7v5.7c0,1,.3,1.8.8,2.3s1.2.8,2.1.8,1.6-.3,2.2-.9c.5-.6.8-1.4.8-2.7v-5.4h1.8,0Z"/>
                  <path class="cls-1" d="M189.6,256.3h5.4v1.4h-7.2v-1.3l5.2-7.3h-5v-1.4h6.9v1.3l-5.3,7.3h0ZM194.1,245l-2.5,1.5-2.5-1.5v-1.2l2.5,1.5,2.5-1.5v1.2Z"/>
                  <path class="cls-1" d="M197.1,243.9c.2-.2.5-.3.8-.3s.6,0,.8.3c.2.2.3.4.3.7s-.1.5-.3.7-.5.3-.8.3-.6,0-.8-.3c-.2-.2-.3-.4-.3-.7s.1-.5.3-.7ZM198.6,247.6v10.2h-1.7v-10.2h1.7Z"/>
                  <path class="cls-1" d="M206.2,256.2v1.5h-1.2c-1,0-1.8-.2-2.3-.7s-.8-1.3-.8-2.4v-5.5h-1.5v-1.4h1.5v-2.5h1.7v2.5h2.7v1.4h-2.7v5.5c0,.6.1,1.1.4,1.3.2.2.6.4,1.2.4h1Z"/>
                  <path class="cls-1" d="M213.8,257.8l-3.9-4.6v4.6h-1.7v-13.7h1.7v8l3.9-4.4h2l-4.6,5.1,4.7,5.1h-2.1,0Z"/>
                  <path class="cls-1" d="M224.1,248.2c.7.5,1.1,1.1,1.4,1.9v-2.5h1.7v10.2h-1.7v-2.5c-.3.8-.7,1.5-1.4,1.9-.7.5-1.5.7-2.5.7s-1.7-.2-2.4-.6-1.2-1-1.6-1.8c-.4-.8-.6-1.7-.6-2.8s.2-1.9.6-2.8c.4-.8.9-1.4,1.6-1.8.7-.4,1.5-.6,2.4-.6s1.8.2,2.5.7h0ZM219.6,249.9c-.6.6-.9,1.5-.9,2.8s.3,2,.9,2.8c.6.6,1.4,1,2.4,1s1.2-.2,1.8-.5c.5-.3.9-.7,1.2-1.3s.4-1.2.4-1.9-.1-1.4-.4-1.9-.7-1-1.2-1.3-1.1-.4-1.8-.4c-1,0-1.8.3-2.4,1h0v-.3h0Z"/>
                  <path class="cls-1" d="M231.1,258.1c0,.6-.2,1.1-.5,1.5s-.8.6-1.4.6v-.7c.3,0,.5,0,.7-.2.1-.2.2-.4.2-.8v-.2h-.9v-1.7h1.7c.2.5.3,1,.3,1.5h-.1Z"/>
                  <path class="cls-1" d="M242.6,256.2v1.5h-1.2c-1,0-1.8-.2-2.3-.7s-.8-1.3-.8-2.4v-5.5h-1.5v-1.4h1.5v-2.5h1.7v2.5h2.7v1.4h-2.7v5.5c0,.6.1,1.1.4,1.3.2.2.6.4,1.2.4h1Z"/>
                  <path class="cls-1" d="M251.2,248.2c.7.5,1.1,1.1,1.4,1.9v-2.5h1.7v10.2h-1.7v-2.5c-.3.8-.7,1.5-1.4,1.9-.7.5-1.5.7-2.5.7s-1.7-.2-2.4-.6-1.2-1-1.6-1.8c-.4-.8-.6-1.7-.6-2.8s.2-1.9.6-2.8c.4-.8.9-1.4,1.6-1.8.7-.4,1.5-.6,2.4-.6s1.8.2,2.5.7h0ZM246.7,249.9c-.6.6-.9,1.5-.9,2.8s.3,2,.9,2.8c.6.6,1.4,1,2.4,1s1.2-.2,1.8-.5c.5-.3.9-.7,1.2-1.3s.4-1.2.4-1.9-.1-1.4-.4-1.9-.7-1-1.2-1.3-1.1-.4-1.8-.4c-1,0-1.8.3-2.4,1h0v-.3h0Z"/>
                  <path class="cls-1" d="M262.6,257.8l-3.9-4.6v4.6h-1.7v-13.7h1.7v8l3.9-4.4h2l-4.6,5.1,4.7,5.1h-2.1Z"/>
                  <path class="cls-1" d="M273.4,248.1c.8.4,1.3,1,1.8,1.8s.6,1.7.6,2.8-.2,1.9-.6,2.8-1,1.4-1.8,1.8-1.6.6-2.7.6-1.8-.2-2.7-.6-1.4-1-1.8-1.8-.7-1.7-.7-2.8.2-1.9.7-2.8c.4-.8,1-1.4,1.8-1.8s1.6-.6,2.7-.6,1.8.2,2.7.6h0ZM269.1,249.4c-.5.3-.9.7-1.2,1.2-.3.5-.5,1.2-.5,2s.2,1.5.5,2c.3.6.7,1,1.2,1.2.5.3,1,.4,1.6.4s1.1-.1,1.6-.4.9-.7,1.2-1.2c.3-.5.5-1.2.5-2s-.2-1.5-.5-2c-.3-.6-.7-1-1.2-1.2-.5-.3-1-.4-1.6-.4s-1.1.1-1.6.4h0Z"/>
                  <path class="cls-1" d="M282.6,243.9c.2-.2.5-.3.8-.3s.6,0,.8.3c.2.2.3.4.3.7s-.1.5-.3.7c-.2.2-.5.3-.8.3s-.6,0-.8-.3c-.2-.2-.3-.4-.3-.7s.1-.5.3-.7ZM284.4,247.6v10.2h-1.7v-10.2h1.7Z"/>
                  <path class="cls-1" d="M299.8,248.6c.7.7,1.1,1.8,1.1,3.3v5.9h-1.7v-5.7c0-1-.3-1.8-.8-2.3s-1.2-.8-2.1-.8-1.6.3-2.2.9c-.5.6-.8,1.4-.8,2.7v5.4h-1.7v-10.2h1.7v2.4c.3-.8.7-1.4,1.4-1.9.6-.4,1.4-.7,2.2-.7s2.1.4,2.9,1.1h.1-.1Z"/>
                  <path class="cls-1" d="M310.2,248.2c.7.5,1.1,1.1,1.4,1.9v-2.5h1.7v10.2h-1.7v-2.5c-.3.8-.7,1.5-1.4,1.9-.7.5-1.5.7-2.5.7s-1.7-.2-2.4-.6c-.7-.4-1.2-1-1.6-1.8s-.6-1.7-.6-2.8.2-1.9.6-2.8.9-1.4,1.6-1.8,1.5-.6,2.4-.6,1.8.2,2.5.7h0ZM305.7,249.9c-.6.6-.9,1.5-.9,2.8s.3,2,.9,2.8c.6.6,1.4,1,2.4,1s1.2-.2,1.8-.5c.5-.3.9-.7,1.2-1.3.3-.5.4-1.2.4-1.9s-.1-1.4-.4-1.9c-.3-.6-.7-1-1.2-1.3s-1.1-.4-1.8-.4c-1,0-1.8.3-2.4,1h0v-.3h0Z"/>
                  <path class="cls-1" d="M321.9,248.4c.7.6,1.1,1.4,1.2,2.4h-1.6c0-.6-.3-1.1-.7-1.5s-1-.6-1.7-.6-1.1.1-1.4.4-.5.7-.5,1.2.1.7.3.9.5.4.8.5.8.2,1.4.4c.7.2,1.3.3,1.8.5s.8.5,1.2.8c.3.4.5.9.5,1.6s-.3,1.5-.9,2-1.4.8-2.4.8-2.2-.3-3-.9-1.2-1.4-1.3-2.4h1.6c0,.6.3,1.1.8,1.5s1.1.6,1.8.6,1-.1,1.3-.4.5-.7.5-1.1-.1-.7-.3-.9-.5-.4-.9-.5c-.3-.1-.8-.2-1.4-.4-.7-.2-1.3-.3-1.8-.5-.4-.2-.8-.4-1.1-.8-.3-.4-.5-.9-.5-1.5s.3-1.5.9-2,1.5-.8,2.5-.8,2,.3,2.8.9v-.2h.1ZM321.9,245l-2.5,1.5-2.5-1.5v-1.2l2.5,1.5,2.5-1.5v1.2Z"/>
                  <path class="cls-1" d="M336.8,248.2c.7.5,1.1,1.1,1.4,1.9v-6.1h1.7v13.7h-1.7v-2.5c-.3.8-.7,1.5-1.4,1.9-.7.5-1.5.7-2.5.7s-1.7-.2-2.4-.6c-.7-.4-1.2-1-1.6-1.8s-.6-1.7-.6-2.8.2-1.9.6-2.8.9-1.4,1.6-1.8,1.5-.6,2.4-.6,1.8.2,2.5.7h0ZM332.2,249.9c-.6.6-.9,1.5-.9,2.8s.3,2,.9,2.8c.6.6,1.4,1,2.4,1s1.2-.2,1.8-.5c.5-.3.9-.7,1.2-1.3.3-.5.4-1.2.4-1.9s-.1-1.4-.4-1.9c-.3-.6-.7-1-1.2-1.3s-1.1-.4-1.8-.4c-1,0-1.8.3-2.4,1h0v-.3h0Z"/>
                  <path class="cls-1" d="M349.2,248.2c.7.5,1.1,1.1,1.4,1.9v-2.5h1.7v10.2h-1.7v-2.5c-.3.8-.7,1.5-1.4,1.9-.7.5-1.5.7-2.5.7s-1.7-.2-2.4-.6c-.7-.4-1.2-1-1.6-1.8s-.6-1.7-.6-2.8.2-1.9.6-2.8.9-1.4,1.6-1.8,1.5-.6,2.4-.6,1.8.2,2.5.7h0ZM344.8,249.9c-.6.6-.9,1.5-.9,2.8s.3,2,.9,2.8c.6.6,1.4,1,2.4,1s1.2-.2,1.8-.5c.5-.3.9-.7,1.2-1.3.3-.5.4-1.2.4-1.9s-.1-1.4-.4-1.9c-.3-.6-.7-1-1.2-1.3s-1.1-.4-1.8-.4c-1,0-1.8.3-2.4,1h0v-.3h0Z"/>
                  <path class="cls-1" d="M363.2,248.6c.7.7,1.1,1.8,1.1,3.3v5.9h-1.7v-5.7c0-1-.3-1.8-.8-2.3s-1.2-.8-2.1-.8-1.6.3-2.2.9c-.5.6-.8,1.4-.8,2.7v5.4h-1.7v-10.2h1.7v2.4c.3-.8.7-1.4,1.4-1.9.6-.4,1.4-.7,2.2-.7s2.1.4,2.9,1.1h.1-.1Z"/>
                  <path class="cls-1" d="M378.2,248.2c.7.5,1.1,1.1,1.4,1.9v-6.1h1.7v13.7h-1.7v-2.5c-.3.8-.7,1.5-1.4,1.9-.7.5-1.5.7-2.5.7s-1.7-.2-2.4-.6c-.7-.4-1.2-1-1.6-1.8s-.6-1.7-.6-2.8.2-1.9.6-2.8.9-1.4,1.6-1.8,1.5-.6,2.4-.6,1.8.2,2.5.7h0ZM373.6,249.9c-.6.6-.9,1.5-.9,2.8s.3,2,.9,2.8c.6.6,1.4,1,2.4,1s1.2-.2,1.8-.5c.5-.3.9-.7,1.2-1.3.3-.5.4-1.2.4-1.9s-.1-1.4-.4-1.9c-.3-.6-.7-1-1.2-1.3s-1.1-.4-1.8-.4c-1,0-1.8.3-2.4,1h0v-.3h0Z"/>
                  <path class="cls-1" d="M391.2,248.1c.8.4,1.3,1,1.8,1.8s.6,1.7.6,2.8-.2,1.9-.6,2.8-1,1.4-1.8,1.8-1.6.6-2.7.6-1.8-.2-2.7-.6-1.4-1-1.8-1.8-.7-1.7-.7-2.8.2-1.9.7-2.8c.4-.8,1-1.4,1.8-1.8s1.6-.6,2.7-.6,1.8.2,2.7.6h0ZM386.9,249.4c-.5.3-.9.7-1.2,1.2-.3.5-.5,1.2-.5,2s.2,1.5.5,2c.3.6.7,1,1.2,1.2.5.3,1,.4,1.6.4s1.1-.1,1.6-.4.9-.7,1.2-1.2c.3-.5.5-1.2.5-2s-.2-1.5-.5-2c-.3-.6-.7-1-1.2-1.2-.5-.3-1-.4-1.6-.4s-1.1.1-1.6.4h0Z"/>
                  <path class="cls-1" d="M404.1,248.6c.7.7,1.1,1.8,1.1,3.3v5.9h-1.7v-5.7c0-1-.3-1.8-.8-2.3s-1.2-.8-2.1-.8-1.6.3-2.2.9c-.5.6-.8,1.4-.8,2.7v5.4h-1.7v-10.2h1.7v2.4c.3-.8.7-1.4,1.4-1.9.6-.4,1.4-.7,2.2-.7s2.1.4,2.9,1.1h.1-.1Z"/>
                  <path class="cls-1" d="M415.1,248.1c.8.4,1.3,1,1.8,1.8s.6,1.7.6,2.8-.2,1.9-.6,2.8-1,1.4-1.8,1.8-1.6.6-2.7.6-1.8-.2-2.7-.6-1.4-1-1.8-1.8-.7-1.7-.7-2.8.2-1.9.7-2.8c.4-.8,1-1.4,1.8-1.8s1.6-.6,2.7-.6,1.8.2,2.7.6h0ZM410.6,249.4c-.5.3-.9.7-1.2,1.2-.3.5-.5,1.2-.5,2s.2,1.5.5,2c.3.6.7,1,1.2,1.2.5.3,1,.4,1.6.4s1.1-.1,1.6-.4.9-.7,1.2-1.2c.3-.5.5-1.2.5-2s-.2-1.5-.5-2c-.3-.6-.7-1-1.2-1.2-.5-.3-1-.4-1.6-.4s-1.1.1-1.6.4h0Z"/>
                  <path class="cls-1" d="M425.6,248.4c.7.6,1.1,1.4,1.2,2.4h-1.6c0-.6-.3-1.1-.7-1.5s-1-.6-1.7-.6-1.1.1-1.4.4-.5.7-.5,1.2.1.7.3.9.5.4.8.5.8.2,1.4.4c.7.2,1.3.3,1.8.5s.8.5,1.2.8c.3.4.5.9.5,1.6s-.3,1.5-.9,2-1.4.8-2.4.8-2.2-.3-3-.9-1.2-1.4-1.3-2.4h1.6c0,.6.3,1.1.8,1.5s1.1.6,1.8.6,1-.1,1.3-.4.5-.7.5-1.1-.1-.7-.3-.9-.5-.4-.9-.5c-.3-.1-.8-.2-1.4-.4-.7-.2-1.3-.3-1.8-.5-.4-.2-.8-.4-1.1-.8-.3-.4-.5-.9-.5-1.5s.3-1.5.9-2,1.5-.8,2.5-.8,2,.3,2.8.9v-.2h.1Z"/>
                  <path class="cls-1" d="M429.2,243.9c.2-.2.5-.3.8-.3s.6,0,.8.3c.2.2.3.4.3.7s-.1.5-.3.7c-.2.2-.5.3-.8.3s-.6,0-.8-.3c-.2-.2-.3-.4-.3-.7s.1-.5.3-.7ZM430.9,247.6v10.2h-1.7v-10.2h1.7Z"/>
                  <path class="cls-1" d="M109.4,274.5c1.2-1.4,1.8-2.7,1.8-3.9s-.2-1.3-.6-1.8c-.4-.4-1-.7-1.8-.7s-1.5.3-1.9.8-.7,1.3-.7,2.2h-1.6c0-1.4.5-2.5,1.3-3.4s1.8-1.2,3.2-1.2,2.1.3,2.9,1,1.1,1.5,1.1,2.8-.3,2-.9,3-1.4,1.9-2.3,2.9-1.9,1.6-3,2.2h6.6v1.4h-9v-1.2c2.1-1.4,3.8-2.8,5-4.2h0Z"/>
                  <path class="cls-1" d="M114.7,276.9v-1.4l6.7-8.8h1.8v8.7h1.9v1.4h-1.9v3h-1.7v-3h-6.8ZM121.6,268.9l-5.1,6.6h5.1v-6.6Z"/>
                  <path class="cls-1" d="M139.6,270.3c.7.4,1.2,1,1.6,1.8.4.8.6,1.7.6,2.8s-.2,1.9-.6,2.8-.9,1.4-1.6,1.8c-.7.4-1.5.6-2.4.6s-1.8-.2-2.5-.7-1.1-1.1-1.4-1.9v7.4h-1.7v-15h1.7v2.5c.3-.8.7-1.4,1.4-1.9s1.5-.7,2.5-.7,1.7.2,2.4.6h0ZM134.8,271.6c-.5.3-.9.7-1.2,1.3s-.4,1.2-.4,1.9.1,1.4.4,1.9c.3.6.7,1,1.2,1.3s1.1.5,1.7.5c1,0,1.8-.3,2.5-1,.6-.6.9-1.5.9-2.8s-.3-2-.9-2.8c-.6-.6-1.4-1-2.5-1s-1.2.1-1.7.4h0v.3h0Z"/>
                  <path class="cls-1" d="M147.1,270.2c.6-.4,1.4-.6,2.2-.6v1.8h-.5c-.9,0-1.7.2-2.3.7s-.9,1.3-.9,2.4v5.3h-1.7v-10.2h1.7v2c.3-.7.8-1.2,1.4-1.6h.1v.2h0Z"/>
                  <path class="cls-1" d="M151.1,266c.2-.2.5-.3.8-.3s.6,0,.8.3.3.4.3.7-.1.5-.3.7-.5.3-.8.3-.6,0-.8-.3-.3-.4-.3-.7.1-.5.3-.7ZM152.7,269.8v10.2h-1.7v-10.2h1.7Z"/>
                  <path class="cls-1" d="M157.1,266.2v13.7h-1.7v-13.7h1.7Z"/>
                  <path class="cls-1" d="M159.9,266c.2-.2.5-.3.8-.3s.6,0,.8.3.3.4.3.7-.1.5-.3.7-.5.3-.8.3-.6,0-.8-.3-.3-.4-.3-.7.1-.5.3-.7ZM161.6,269.8v10.2h-1.7v-10.2h1.7Z"/>
                  <path class="cls-1" d="M169.7,280l-3.9-4.6v4.6h-1.7v-13.7h1.7v8l3.9-4.4h2l-4.6,5.1,4.7,5.1h-2.1,0Z"/>
                  <path class="cls-1" d="M182.6,275.2h-8.2c0,1.1.4,2,1,2.7s1.4.9,2.2.9,1.5-.2,2-.6.9-.9,1-1.6h1.8c-.1.7-.4,1.3-.8,1.9s-1,1-1.6,1.3c-.7.3-1.4.5-2.2.5s-1.8-.2-2.5-.6-1.3-1-1.7-1.8-.6-1.7-.6-2.8.2-1.9.6-2.8c.4-.8,1-1.4,1.7-1.8s1.6-.6,2.5-.6,1.8.2,2.5.6,1.3,1,1.7,1.7.6,1.5.6,2.3v.9l-.2-.3h.2ZM180.7,272.6c-.3-.5-.7-.9-1.1-1.1-.5-.2-1-.4-1.6-.4-.9,0-1.7.3-2.3.8-.6.6-.9,1.4-1,2.5h6.5c0-.7,0-1.4-.4-1.8h0Z"/>
                  <path class="cls-1" d="M190.6,278.6h5.4v1.4h-7.2v-1.3l5.2-7.3h-5v-1.4h6.9v1.3l-5.3,7.3h0Z"/>
                  <path class="cls-1" d="M204.4,270.4c.7.5,1.1,1.1,1.4,1.9v-2.5h1.7v10.2h-1.7v-2.5c-.3.8-.7,1.5-1.4,1.9s-1.5.7-2.5.7-1.7-.2-2.4-.6-1.2-1-1.6-1.8c-.4-.8-.6-1.7-.6-2.8s.2-1.9.6-2.8c.4-.8.9-1.4,1.6-1.8.7-.4,1.5-.6,2.4-.6s1.8.2,2.5.7h0ZM199.8,272.2c-.6.6-.9,1.5-.9,2.8s.3,2,.9,2.8c.6.6,1.4,1,2.4,1s1.2-.2,1.8-.5c.5-.3.9-.7,1.2-1.3.3-.5.4-1.2.4-1.9s-.1-1.4-.4-1.9-.7-1-1.2-1.3-1.1-.4-1.8-.4c-1,0-1.8.3-2.4,1h0v-.3h0Z"/>
                  <path class="cls-1" d="M223.8,269.8v10.2h-1.7v-2.3c-.3.8-.7,1.4-1.4,1.9-.6.4-1.4.6-2.3.6s-2.1-.4-2.9-1.1-1.1-1.8-1.1-3.3v-5.9h1.7v5.7c0,1,.3,1.8.8,2.3s1.2.8,2.1.8,1.6-.3,2.2-.9c.5-.6.8-1.4.8-2.7v-5.4h1.8,0Z"/>
                  <path class="cls-1" d="M227.6,278.6h5.4v1.4h-7.2v-1.3l5.2-7.3h-5v-1.4h6.9v1.3l-5.3,7.3h0ZM231.9,267.2l-2.5,1.5-2.5-1.5v-1.2l2.5,1.5,2.5-1.5v1.2Z"/>
                  <path class="cls-1" d="M234.7,266c.2-.2.5-.3.8-.3s.6,0,.8.3.3.4.3.7-.1.5-.3.7-.5.3-.8.3-.6,0-.8-.3-.3-.4-.3-.7.1-.5.3-.7ZM236.4,269.8v10.2h-1.7v-10.2h1.7Z"/>
                  <path class="cls-1" d="M243.1,278.2l3.2-8.4h1.8l-4,10.2h-2l-4-10.2h1.8l3.2,8.4h0Z"/>
                  <path class="cls-1" d="M256.3,270.4c.7.5,1.1,1.1,1.4,1.9v-2.5h1.7v10.2h-1.7v-2.5c-.3.8-.7,1.5-1.4,1.9s-1.5.7-2.5.7-1.7-.2-2.4-.6-1.2-1-1.6-1.8c-.4-.8-.6-1.7-.6-2.8s.2-1.9.6-2.8c.4-.8.9-1.4,1.6-1.8.7-.4,1.5-.6,2.4-.6s1.8.2,2.5.7h0ZM251.8,272.2c-.6.6-.9,1.5-.9,2.8s.3,2,.9,2.8c.6.6,1.4,1,2.4,1s1.2-.2,1.8-.5c.5-.3.9-.7,1.2-1.3.3-.5.4-1.2.4-1.9s-.1-1.4-.4-1.9-.7-1-1.2-1.3-1.1-.4-1.8-.4c-1,0-1.8.3-2.4,1h0v-.3h0Z"/>
                  <path class="cls-1" d="M270.3,270.8c.7.7,1.1,1.8,1.1,3.3v5.9h-1.7v-5.7c0-1-.3-1.8-.8-2.3s-1.2-.8-2.1-.8-1.6.3-2.2.9c-.5.6-.8,1.4-.8,2.7v5.4h-1.7v-10.2h1.7v2.4c.3-.8.7-1.4,1.4-1.9.6-.4,1.4-.7,2.2-.7s2.1.4,2.9,1.1h.1-.1Z"/>
                  <path class="cls-1" d="M272.1,283.3h.7c.4,0,.8,0,1-.3.2-.2.3-.5.3-1v-12.1h1.7v12.2c0,1.8-.9,2.8-2.8,2.8h-.9v-1.5h-.1,0ZM274.1,267.6c-.2-.2-.3-.4-.3-.7s.1-.5.3-.7.5-.3.8-.3.6,0,.8.3.3.4.3.7-.1.5-.3.7-.5.3-.8.3-.6,0-.8-.3Z"/>
                  <path class="cls-1" d="M287.7,275.2h-8.2c0,1.1.4,2,1,2.7s1.4.9,2.2.9,1.5-.2,2-.6.9-.9,1-1.6h1.8c-.1.7-.4,1.3-.8,1.9-.4.5-1,1-1.6,1.3s-1.4.5-2.2.5-1.8-.2-2.5-.6-1.3-1-1.7-1.8c-.4-.8-.6-1.7-.6-2.8s.2-1.9.6-2.8c.4-.8,1-1.4,1.7-1.8s1.6-.6,2.5-.6,1.8.2,2.5.6,1.3,1,1.7,1.7c.4.7.6,1.5.6,2.3v.9l-.2-.3h.2ZM285.8,272.6c-.3-.5-.7-.9-1.1-1.1-.5-.2-1-.4-1.6-.4-.9,0-1.7.3-2.3.8-.6.6-.9,1.4-1,2.5h6.5c0-.7,0-1.4-.4-1.8h-.1Z"/>
                  <path class="cls-1" d="M303.7,269.8v10.2h-1.7v-2.3c-.3.8-.7,1.4-1.4,1.9-.6.4-1.4.6-2.3.6s-2.1-.4-2.9-1.1c-.7-.7-1.1-1.8-1.1-3.3v-5.9h1.7v5.7c0,1,.3,1.8.8,2.3s1.2.8,2.1.8,1.6-.3,2.2-.9c.5-.6.8-1.4.8-2.7v-5.4h1.8Z"/>
                  <path class="cls-1" d="M316.8,270.6c.7.6,1.1,1.4,1.2,2.4h-1.6c0-.6-.3-1.1-.7-1.5s-1-.6-1.7-.6-1.1.1-1.4.4-.5.7-.5,1.2.1.7.3.9.5.4.8.5.8.2,1.4.4c.7.2,1.3.3,1.8.5s.8.5,1.2.8.5.9.5,1.6-.3,1.5-.9,2-1.4.8-2.4.8-2.2-.3-3-.9-1.2-1.4-1.3-2.4h1.6c0,.6.3,1.1.8,1.5s1.1.6,1.8.6,1-.1,1.3-.4.5-.7.5-1.1-.1-.7-.3-.9-.5-.4-.9-.5c-.3-.1-.8-.2-1.4-.4-.7-.2-1.3-.3-1.8-.5-.4-.2-.8-.4-1.1-.8-.3-.4-.5-.9-.5-1.5s.3-1.5.9-2,1.5-.8,2.5-.8,2,.3,2.8.9v-.2h.1Z"/>
                  <path class="cls-1" d="M324.6,278.2l3.2-8.4h1.8l-4,10.2h-2l-4-10.2h1.8l3.2,8.4Z"/>
                  <path class="cls-1" d="M337.7,270.4c.7.5,1.1,1.1,1.4,1.9v-2.5h1.7v10.2h-1.7v-2.5c-.3.8-.7,1.5-1.4,1.9-.7.5-1.5.7-2.5.7s-1.7-.2-2.4-.6c-.7-.4-1.2-1-1.6-1.8s-.6-1.7-.6-2.8.2-1.9.6-2.8c.4-.8.9-1.4,1.6-1.8s1.5-.6,2.4-.6,1.8.2,2.5.7h0ZM333.1,272.2c-.6.6-.9,1.5-.9,2.8s.3,2,.9,2.8c.6.6,1.4,1,2.4,1s1.2-.2,1.8-.5c.5-.3.9-.7,1.2-1.3.3-.5.4-1.2.4-1.9s-.1-1.4-.4-1.9c-.3-.6-.7-1-1.2-1.3s-1.1-.4-1.8-.4c-1,0-1.8.3-2.4,1h0v-.3h0Z"/>
                  <path class="cls-1" d="M349.1,280l-3.9-4.6v4.6h-1.7v-13.7h1.7v8l3.9-4.4h2l-4.6,5.1,4.7,5.1h-2.1Z"/>
                  <path class="cls-1" d="M359.9,270.3c.8.4,1.3,1,1.8,1.8.4.8.6,1.7.6,2.8s-.2,1.9-.6,2.8c-.4.8-1,1.4-1.8,1.8s-1.6.6-2.7.6-1.8-.2-2.7-.6c-.8-.4-1.4-1-1.8-1.8s-.7-1.7-.7-2.8.2-1.9.7-2.8c.4-.8,1-1.4,1.8-1.8s1.6-.6,2.7-.6,1.8.2,2.7.6h0ZM355.6,271.5c-.5.3-.9.7-1.2,1.2-.3.6-.5,1.2-.5,2s.2,1.5.5,2c.3.6.7,1,1.2,1.2.5.3,1,.4,1.6.4s1.1-.1,1.6-.4.9-.7,1.2-1.2c.3-.5.5-1.2.5-2s-.2-1.5-.5-2-.7-1-1.2-1.2c-.5-.3-1-.4-1.6-.4s-1.1.1-1.6.4Z"/>
                  <path class="cls-1" d="M379.8,270.8c.7.7,1.1,1.8,1.1,3.3v5.9h-1.7v-5.7c0-1-.2-1.7-.7-2.2s-1.1-.8-2-.8-1.6.3-2.1.9-.8,1.4-.8,2.5v5.4h-1.7v-5.7c0-1-.2-1.7-.7-2.2s-1.1-.8-2-.8-1.6.3-2.1.9-.8,1.4-.8,2.5v5.4h-1.7v-10.2h1.7v2.3c.2-.8.7-1.4,1.3-1.8.6-.4,1.3-.6,2.1-.6s1.6.2,2.2.6,1.1,1.1,1.3,1.9c.3-.8.7-1.4,1.4-1.9s1.4-.7,2.2-.7,2.1.4,2.9,1.1h.2,0Z"/>
                  <path class="cls-1" d="M394.1,270.6c.7.6,1.1,1.4,1.2,2.4h-1.6c0-.6-.3-1.1-.7-1.5s-1-.6-1.7-.6-1.1.1-1.4.4-.5.7-.5,1.2.1.7.3.9.5.4.8.5.8.2,1.4.4c.7.2,1.3.3,1.8.5s.8.5,1.2.8.5.9.5,1.6-.3,1.5-.9,2-1.4.8-2.4.8-2.2-.3-3-.9-1.2-1.4-1.3-2.4h1.6c0,.6.3,1.1.8,1.5s1.1.6,1.8.6,1-.1,1.3-.4.5-.7.5-1.1-.1-.7-.3-.9-.5-.4-.9-.5c-.3-.1-.8-.2-1.4-.4-.7-.2-1.3-.3-1.8-.5-.4-.2-.8-.4-1.1-.8-.3-.4-.5-.9-.5-1.5s.3-1.5.9-2,1.5-.8,2.5-.8,2,.3,2.8.9v-.2h.1Z"/>
                  <path class="cls-1" d="M404.4,270.4c.7.5,1.1,1.1,1.4,1.9v-2.5h1.7v10.2h-1.7v-2.5c-.3.8-.7,1.5-1.4,1.9-.7.5-1.5.7-2.5.7s-1.7-.2-2.4-.6c-.7-.4-1.2-1-1.6-1.8s-.6-1.7-.6-2.8.2-1.9.6-2.8c.4-.8.9-1.4,1.6-1.8s1.5-.6,2.4-.6,1.8.2,2.5.7h0ZM399.8,272.2c-.6.6-.9,1.5-.9,2.8s.3,2,.9,2.8c.6.6,1.4,1,2.4,1s1.2-.2,1.8-.5c.5-.3.9-.7,1.2-1.3.3-.5.4-1.2.4-1.9s-.1-1.4-.4-1.9c-.3-.6-.7-1-1.2-1.3s-1.1-.4-1.8-.4c-1,0-1.8.3-2.4,1h0v-.3h0Z"/>
                  <path class="cls-1" d="M415.1,278.5v1.5h-1.2c-1,0-1.8-.2-2.3-.7s-.8-1.3-.8-2.4v-5.5h-1.5v-1.4h1.5v-2.5h1.7v2.5h2.7v1.4h-2.7v5.5c0,.6.1,1.1.4,1.3s.6.4,1.2.4h1,0Z"/>
                  <path class="cls-1" d="M426.1,269.8v10.2h-1.7v-2.3c-.3.8-.7,1.4-1.4,1.9-.6.4-1.4.6-2.3.6s-2.1-.4-2.9-1.1c-.7-.7-1.1-1.8-1.1-3.3v-5.9h1.7v5.7c0,1,.3,1.8.8,2.3s1.2.8,2.1.8,1.6-.3,2.2-.9c.5-.6.8-1.4.8-2.7v-5.4h1.8Z"/>
                  <path class="cls-1" d="M430.1,278v1.9h-2v-1.9h2Z"/>
                </g>
                <g>
                  <g>
                    <path class="cls-1" d="M243.9,98.6l-7.3-8.6h.6l7.1,8.2,7.1-8.2h.6l-7.3,8.6,7.6,8.9h-.6l-7.3-8.6-7.3,8.6h-.6l7.6-8.9h-.2Z"/>
                    <g>
                      <path class="cls-1" d="M277,93.7c-.6-.9-1.9-1.3-3-1.3s-2.8.5-2.8,1.9c0,3.5,8.8,1.2,8.8,7.9s-3.5,6.3-7.3,6.3-4.6-.8-6.4-2.3l3-3.2c.9,1,2.2,1.8,3.7,1.8s2.8-.6,2.8-1.9c0-3.6-8.9-1.5-8.9-7.9s3.6-6.2,7.2-6.2,4.3.5,5.9,1.9l-2.8,3.1h-.2Z"/>
                      <path class="cls-1" d="M304.4,100.8c0,4.5-2.7,7.9-8,7.9s-8-3.2-8-7.9v-11.7h4.3v11.6c0,2.3,1.5,4.1,4,4.1s3.9-1.8,3.9-4.1v-11.6h4.3v11.7h-.5,0Z"/>
                      <path class="cls-1" d="M313.7,89.2h7.1c4,0,7.2,1.3,7.2,5.8s-3,5.9-7.1,5.9h-3v7.5h-4.3v-19.1h0ZM317.9,97.3h2.7c1.4,0,3-.5,3-2.2s-1.9-2.2-3.7-2.2h-2.1v4.5h.1Z"/>
                      <path class="cls-1" d="M336.2,89.2h12.9v4h-8.8v3.6h8.2v4h-8.2v4h9.1v4h-13.4v-19.1h0v-.5h.2,0Z"/>
                      <path class="cls-1" d="M358.4,89.2h7.3c4,0,7.2,1.3,7.2,5.8s-1.4,4.8-4.1,5.3l4.9,8h-5l-4-7.6h-2.1v7.6h-4.3v-19.1h-.1s.2,0,.2,0ZM362.6,97.1h2.4c1.5,0,3.6,0,3.6-2.1s-1.7-2.2-3.2-2.2h-2.7v4.4h-.1,0Z"/>
                      <path class="cls-1" d="M387.1,93.7l-3.9,3.5-2.2-2.6,6.2-5.3h3.9v19.1h-4v-14.6h0Z"/>
                    </g>
                  </g>
                  <path class="cls-1" d="M196.3,80.3h0c-.6,0-1.4.6-1.8,1.2-1.2,1.4-1.9,3.1-2.5,4.7-.4,1.2-.6,2.1-.8,3.3-.2,1.6-.4,2.9-.6,4.5,0,1-.4,1.9-.6,2.7s-.6,1.6-1.2,2.1c-.4.2-.8.4-1.2.2-.4,0-.6-.6-.8-1v-.8c0-1.8.4-3.5,1-5.1.6-1.4,1.2-2.7,1.6-4.3.4-1,.6-1.9.4-2.9,0-.6-.6-1.2-1.2-1.6-.8,0-1.6,0-2.1.6-.4.6-.8,1.2-1.2,1.6-1.4,2.5-1.9,5.4-2.1,8.2v5.4c0,1.2-.4,2.1-1,3.3-.4.6-.6,1.2-1.4,1.4-.4-.4-.4-1-.4-1.4,0-1.2.6-2.3,1-3.5,0-.8,0-1.8-.6-2.3-.4-.4-1-.4-1.4-.2-.6,0-1.2.6-1.6,1.2-.6.8-1,1.9-1.2,2.9-.4,1.6-.6,3.3-1,4.9v3.1c0,1,.2,1.8,1,2.5s1.2.6,1.8.4c.6,0,1.2-.6,1.6-1.2,1-1.2,1.8-2.3,2.5-3.5,0-.2.6-.6.8-.2.4.4.4,1,.8,1.4.6.4,1.4.4,1.9,0,1.2-.6,1.9-1.6,2.7-2.7.4-.6.6-1.4,1.2-2.1.6.6.4,1.6,1.2,1.9h1c.6-.4.8-1,1-1.6.4-1,.6-1.8,1-2.7,0-.4,0-1,.4-1.4,0,0,.4,0,.6-.2.2.2.4.6.4,1,0,.6,0,1.4.4,1.9.2.6.8,1,1.4,1.2h2.1c1.2-.2,2.1-1.2,2.7-2.3,0,0,.2-.4.4-.6.4.2.8.6,1.2.8.8.2,1.6,0,2.3,0,1.4-.4,2.3-1.6,3.3-2.5s.6-.8,1-1c0,.4.4.6.6,1,.2.2.6.4,1.2.4,1.2,0,2.1-.6,3.1-1.2.8-.6,1.6-1.4,2.3-2.1,1.2-1.2,2.1-2.3,2.7-3.9.2-.4.4-1,.4-1.6s-.4-1-1-.8-1.2.8-1.6,1.2c-.6.6-1,1.2-1.4,1.6-.4.6-1.2,1.2-1.9,1.2s-.6,0-.6-.4c-.2-.2-.4-.6-.2-1.2.4-1.2,1.2-2.5,1.2-3.9,0,0-.2-.4-.4-.6-.4-.4-1.2-.2-1.6-.2s-.8.6-1.2,1c-.6,1-1.2,2.1-1.6,3.3-.4.8-.6,1.6-1.2,2.1-.4.6-1,1-1.6,1.2-.8,0-1.6-.6-1.6-1.2,0-1,.4-1.9,1-2.7,1.2-1.4,2.7-2.1,4.3-3.3.8-.6,1.6-1.2,1.9-2.1,0-.4,0-1-.2-1.4-.4-.6-1.2-1-1.8-1-1.2,0-1.9.6-2.7,1.2-1,.8-1.9,1.6-2.7,2.5-1.2,1.2-1.9,2.5-2.7,3.9-.4.6-.6,1.6-.6,2.1,0,1.2-.4,2.1-.8,3.3-.2.6-.6,1.4-1,1.9h-.4c-.4-.2-.8-.6-1.2-1.2-.2-.2-.6-.4-.8-.6,1-.8,1.9-1.6,2.7-2.7,1-1.2,1.6-2.5,1.8-3.9,0-.8,0-1.6-.8-2.1-.6-.4-1.4-.6-1.9-.4-1,0-1.8.6-2.5,1.2-.8.6-1.4,1.2-1.9,1.8v-.4c0-.8.6-1.6,1-2.3.6-1,1-1.8,1.4-2.7.4-1.2,1-2.1,1-3.3s-1-1.8-1.8-1.8h0l-.2-.4-1,1.2ZM175.5,87.7h-.4c-1.8,0-3.3,1.2-4.5,2.5-1.2,1.2-2.1,2.5-2.9,3.9-.2.6-.6,1-.6,1.6h-.2c-.4-.2-.6-1-1.2-1.4-.8-.6-1.8-.6-2.7,0-.8.4-1.6,1-1.6,1.8h-.4c-.4-.6,0-1.6-.2-2.3,0-1.2-.2-2.3-.8-3.3-.4-.6-.8-1.4-1.6-1.8-1.2-.6-2.7-.6-3.9,0-1.4.6-2.7,1.8-3.5,2.9-1.2,1.4-2.1,2.9-2.9,4.5-1.6,2.7-2.7,5.8-3.5,8.8-.6,1.8-1.2,3.7-.8,5.6,0,.6,0,1.2.6,1.8l.6.6h1.2c.6-.4,1.2-1,1.4-1.6v-1.2c0-1.2.6-2.5.8-3.7.6-2.1,1.2-4.5,2.1-6.6.6-1.2,1.4-2.3,2.5-2.9.4,0,.8-.4,1.2-.2.6,0,1.2.8,1.2,1.4.4,1.2.4,2.3.4,3.5v1.6c-.2,3.3-1,6.2-1.8,9.3s-1,3.1-1.2,4.7v1.8c0,.6.2,1.2.6,1.6.8.6,2.1.6,3.1,0,.8-.6,1.2-1.8,1.6-2.7.2-1.2.6-2.1.6-3.1.4-3.1.6-6.2,1.2-9.1.2-1,.6-2.1,1.4-2.7.2-.2.6-.6,1.2-.4s.8.6,1,1.2v1.4c0,.6-.2,1.4-.4,1.9s-.2,1.4-.4,1.9c0,1.2-.4,2.1-.6,3.1v.6c0,1-.2,1.9-.4,2.9,0,.8.2,1.8,1,2.3.4.4,1.2.6,1.6.4s1.2-.6,1.4-1.2c.6-1.2,1-2.7,1.2-4.1,0-1.4,0-2.7.2-4.3.2-1.9.6-3.9,1-5.6.2-1.2.6-2.3,1.2-3.3.4-.6.8-1.2,1.6-1.2s.6.2.8.6c.2.6,0,1.2,0,1.8-.2,1.6-1,3.3-1.4,4.9-.6,1.8-1,3.7-1,5.4v1.6c0,1.4.4,2.7.8,4.3,0,.6.2,1,.4,1.6.4.6.8,1.2,1.4,1.4.6.4,1.2.4,1.8.4,1,0,1.9-.4,2.3-1.4.4-.6,0-1.6,0-2.1-1-2.3-1.2-5.1-1.4-7.6v-4.3c0-1.8.4-3.5,1-5.3,1.2-2.7,2.1-5.6,2.5-8.8v-1.8c0-.6-.8-1.2-1.4-1.2s-.2,0-.4,0h0l-.6-.2ZM181,90h-.6c-1.2.6-1.9,1.8-1.9,3.1s.2.8.4,1.2c.2,0,.6.2,1,.2,1.2,0,2.1-.6,2.7-1.6,0-.6.4-1.2.2-1.6,0-.4-.2-1-.6-1.2-.2,0-.6-.2-1-.2h-.2ZM196.7,93.1h.4l.4.4h0c-.2.8-.8,1.4-1.4,1.8h-1.9v-.4h0c0-.2,0-.4.2-.6h0s.2-.4.4-.6l.2-.2s.2-.2.4-.4h1.2v-.4l.2.4Z"/>
                </g>
              </g>
            </g>
          </g>
        </g>
      </g>
    </g>
  </g>
</svg>