<svg width="532" height="630" viewBox="0 0 532 630" fill="none" xmlns="http://www.w3.org/2000/svg">
<mask id="path-1-inside-1_210_49" fill="white">
<path d="M0.753903 532.754C44.1769 576.177 99.5013 605.748 159.731 617.729C219.96 629.709 282.39 623.56 339.125 600.06C395.86 576.56 444.352 536.763 478.469 485.703C512.586 434.643 530.796 374.613 530.796 313.203C530.796 251.794 512.586 191.763 478.469 140.703C444.352 89.6431 395.86 49.8466 339.125 26.3462C282.39 2.84582 219.96 -3.30295 159.731 8.67744C99.5013 20.6578 44.1769 50.2293 0.753901 93.6523L62.8589 155.757C93.9987 124.617 133.673 103.411 176.865 94.8195C220.058 86.2281 264.828 90.6375 305.514 107.49C346.2 124.343 380.975 152.882 405.441 189.499C429.908 226.115 442.967 269.165 442.967 313.203C442.967 357.242 429.908 400.291 405.441 436.908C380.975 473.524 346.2 502.063 305.514 518.916C264.828 535.769 220.058 540.178 176.865 531.587C133.673 522.995 93.9987 501.789 62.8589 470.649L0.753903 532.754Z"/>
</mask>
<path d="M0.753903 532.754C44.1769 576.177 99.5013 605.748 159.731 617.729C219.96 629.709 282.39 623.56 339.125 600.06C395.86 576.56 444.352 536.763 478.469 485.703C512.586 434.643 530.796 374.613 530.796 313.203C530.796 251.794 512.586 191.763 478.469 140.703C444.352 89.6431 395.86 49.8466 339.125 26.3462C282.39 2.84582 219.96 -3.30295 159.731 8.67744C99.5013 20.6578 44.1769 50.2293 0.753901 93.6523L62.8589 155.757C93.9987 124.617 133.673 103.411 176.865 94.8195C220.058 86.2281 264.828 90.6375 305.514 107.49C346.2 124.343 380.975 152.882 405.441 189.499C429.908 226.115 442.967 269.165 442.967 313.203C442.967 357.242 429.908 400.291 405.441 436.908C380.975 473.524 346.2 502.063 305.514 518.916C264.828 535.769 220.058 540.178 176.865 531.587C133.673 522.995 93.9987 501.789 62.8589 470.649L0.753903 532.754Z" stroke="#008200" stroke-width="4" mask="url(#path-1-inside-1_210_49)"/>
<mask id="mask0_210_49" style="mask-type:alpha" maskUnits="userSpaceOnUse" x="0" y="2" width="531" height="622">
<mask id="path-2-inside-2_210_49" fill="white">
<path d="M0.753903 532.754C44.1769 576.177 99.5013 605.748 159.731 617.729C219.96 629.709 282.39 623.56 339.125 600.06C395.86 576.56 444.352 536.763 478.469 485.703C512.586 434.643 530.796 374.613 530.796 313.203C530.796 251.794 512.586 191.763 478.469 140.703C444.352 89.6431 395.86 49.8466 339.125 26.3462C282.39 2.84582 219.96 -3.30295 159.731 8.67744C99.5013 20.6578 44.1769 50.2293 0.753901 93.6523L62.8589 155.757C93.9987 124.617 133.673 103.411 176.865 94.8195C220.058 86.2281 264.828 90.6375 305.514 107.49C346.2 124.343 380.975 152.882 405.441 189.499C429.908 226.115 442.967 269.165 442.967 313.203C442.967 357.242 429.908 400.291 405.441 436.908C380.975 473.524 346.2 502.063 305.514 518.916C264.828 535.769 220.058 540.178 176.865 531.587C133.673 522.995 93.9987 501.789 62.8589 470.649L0.753903 532.754Z"/>
</mask>
<path d="M0.753903 532.754C44.1769 576.177 99.5013 605.748 159.731 617.729C219.96 629.709 282.39 623.56 339.125 600.06C395.86 576.56 444.352 536.763 478.469 485.703C512.586 434.643 530.796 374.613 530.796 313.203C530.796 251.794 512.586 191.763 478.469 140.703C444.352 89.6431 395.86 49.8466 339.125 26.3462C282.39 2.84582 219.96 -3.30295 159.731 8.67744C99.5013 20.6578 44.1769 50.2293 0.753901 93.6523L62.8589 155.757C93.9987 124.617 133.673 103.411 176.865 94.8195C220.058 86.2281 264.828 90.6375 305.514 107.49C346.2 124.343 380.975 152.882 405.441 189.499C429.908 226.115 442.967 269.165 442.967 313.203C442.967 357.242 429.908 400.291 405.441 436.908C380.975 473.524 346.2 502.063 305.514 518.916C264.828 535.769 220.058 540.178 176.865 531.587C133.673 522.995 93.9987 501.789 62.8589 470.649L0.753903 532.754Z" fill="#C4C4C4" stroke="#008200" stroke-width="4" mask="url(#path-2-inside-2_210_49)"/>
</mask>
<g mask="url(#mask0_210_49)">
<path d="M-126 307C-126 307 -65 345 6 345C77 345 124 307 183.5 307C243 307 273.5 356 340 356C406.5 356 421 316 507.5 316C594 316 614.5 332 651 332C687.5 332 721 307 721 307V671H-126V307Z" fill="#008200"/>
</g>
</svg>
