<svg width="68" height="67" viewBox="0 0 68 67" fill="none" xmlns="http://www.w3.org/2000/svg">
<path d="M21 30.7764C21 36.4227 16.299 41 10.5 41C4.70101 41 0 36.4227 0 30.7764C0 25.13 10.5 11 10.5 11C10.5 11 21 25.13 21 30.7764Z" fill="white" fill-opacity="0.4"/>
<path d="M68 38.7764C68 44.4227 63.299 49 57.5 49C51.701 49 47 44.4227 47 38.7764C47 33.13 57.5 19 57.5 19C57.5 19 68 33.13 68 38.7764Z" fill="white" fill-opacity="0.4"/>
<path d="M49 19.7764C49 25.4227 44.299 30 38.5 30C32.701 30 28 25.4227 28 19.7764C28 14.13 38.5 0 38.5 0C38.5 0 49 14.13 49 19.7764Z" fill="white" fill-opacity="0.4"/>
<path d="M40 56.7764C40 62.4227 35.299 67 29.5 67C23.701 67 19 62.4227 19 56.7764C19 51.13 29.5 37 29.5 37C29.5 37 40 51.13 40 56.7764Z" fill="white" fill-opacity="0.4"/>
</svg>
