<svg width="145" height="97" viewBox="0 0 145 97" fill="none" xmlns="http://www.w3.org/2000/svg">
<path d="M7.85094 24.4772V25.6694L1.65742 33.3459V33.3895H7.85094V34.6253H0V33.4622L6.19352 25.8003V25.7421H0.11631V24.4772H7.85094Z" fill="black"/>
<path d="M17.2095 34.6253L16.1191 32.0229H11.1904L10.1 34.6253H8.66068L12.9642 24.4772H14.3453L18.6488 34.6253H17.2095ZM11.7138 30.7434V30.8161H15.5957V30.7434L13.6766 26.1056H13.6475L11.7138 30.7434Z" fill="black"/>
<path d="M31.8214 31.7757C31.8214 33.6754 30.5759 34.6253 28.0849 34.6253H23.9123V24.4772H27.9977C29.0348 24.4772 29.8344 24.7147 30.3966 25.1896C30.9685 25.6646 31.2544 26.3043 31.2544 27.1088C31.2544 28.1749 30.7892 28.9164 29.8587 29.3332V29.3768C31.1672 29.7936 31.8214 30.5932 31.8214 31.7757ZM25.2353 33.3895H27.9541C28.8943 33.3895 29.5582 33.2441 29.9459 32.9533C30.3433 32.6626 30.542 32.2506 30.542 31.7175C30.542 30.6126 29.6842 30.0601 27.9686 30.0601H25.2353V33.3895ZM25.2353 28.8679H27.6488C28.5114 28.8679 29.1172 28.7226 29.4661 28.4318C29.8151 28.141 29.9895 27.7533 29.9895 27.2687C29.9895 26.7744 29.8005 26.3915 29.4225 26.1201C29.0542 25.8487 28.5453 25.713 27.8959 25.713H25.2353V28.8679Z" fill="black"/>
<path d="M34.8071 25.7857C35.7279 24.8165 36.954 24.3318 38.4854 24.3318C40.0168 24.3318 41.2429 24.8165 42.1637 25.7857C43.0845 26.755 43.5594 28.0102 43.5885 29.5513C43.5594 31.0924 43.0845 32.3476 42.1637 33.3168C41.2429 34.2861 40.0168 34.7707 38.4854 34.7707C36.954 34.7707 35.7279 34.2861 34.8071 33.3168C33.8863 32.3476 33.4114 31.0924 33.3823 29.5513C33.4114 28.0102 33.8863 26.755 34.8071 25.7857ZM34.7053 29.5513C34.7053 30.7047 35.0397 31.6594 35.7085 32.4154C36.387 33.1617 37.3078 33.5349 38.4709 33.5349C39.6437 33.5349 40.5693 33.1617 41.2478 32.4154C41.9262 31.6594 42.2655 30.7047 42.2655 29.5513C42.2655 28.3979 41.9262 27.448 41.2478 26.7017C40.5693 25.9457 39.6437 25.5676 38.4709 25.5676C37.3078 25.5676 36.387 25.9457 35.7085 26.7017C35.0397 27.448 34.7053 28.3979 34.7053 29.5513Z" fill="black"/>
<path d="M52.4506 33.3023V34.6253H45.7773V24.4772H47.1003V33.3023H52.4506Z" fill="black"/>
<path d="M56.8438 24.4772H58.1668V31.2814C58.1668 32.5511 57.8809 33.4525 57.309 33.9856C56.7469 34.509 56.0635 34.7707 55.2591 34.7707C54.4643 34.7707 53.7422 34.572 53.0928 34.1746V32.8661H53.1509C53.7422 33.3023 54.3431 33.5204 54.9537 33.5204C55.5644 33.5204 56.0296 33.3701 56.3495 33.0697C56.679 32.7692 56.8438 32.2022 56.8438 31.3686V24.4772Z" fill="black"/>
<path d="M62.2496 24.4772V34.6253H60.9266V24.4772H62.2496Z" fill="black"/>
<path d="M36.6393 58.7475C37.5844 57.4633 38.1417 55.9609 38.1417 54.7494C38.1417 51.9628 36.8574 50.2181 32.7381 49.6608C29.3215 49.2004 28.1584 48.8854 28.1584 47.1407C28.1584 46.6803 28.328 46.1957 28.6188 45.8323H30.3634C32.1565 46.438 33.3923 47.3346 34.5312 48.8127L38.3598 45.5899C37.027 43.6514 34.1677 42.9487 32.1565 42.9487L26.0987 45.4203C25.0568 46.438 24.3783 47.9646 24.3783 49.1762C24.3783 52.3505 26.5591 53.8528 30.4361 54.5071C33.8527 55.0886 34.3616 55.5975 34.3616 57.0513C34.3616 57.5117 34.192 58.0206 33.9012 58.4325H32.0354C30.2423 57.8267 29.0065 56.9302 27.8676 55.4521L24.0391 58.6748C25.3718 60.6133 28.0857 61.3161 30.3634 61.3161L36.6393 58.7475Z" fill="black"/>
<path d="M49.4541 55.0886L45.1409 42.9487L40.0281 43.918L46.2071 61.3161L50.3264 60.9768L56.7235 42.9487L53.6461 43.288L49.4541 55.0886Z" fill="black"/>
<path d="M59.3738 61.098L64.5593 60.9768V43.1668L59.3738 43.288V61.098Z" fill="black"/>
<path d="M73.9987 58.4325H73.3202C72.3752 57.4633 71.939 56.809 71.0667 55.3309L67.2382 58.6748C68.4255 60.6133 69.7582 61.3161 70.9213 61.3161L79.1842 57.9479V43.1668L73.9987 43.288V58.4325Z" fill="black"/>
<path d="M93.4983 53.3197L94.4675 50.4604H88.5066V46.1473H94.7098L95.6791 43.288H83.3211V60.9768H94.7098L95.6791 58.1175H88.5066V53.3197H93.4983Z" fill="black"/>
<path d="M112.973 43.288H98.1675L97.1983 46.1473H102.505V61.098L107.69 60.9768V46.1473H112.004L112.973 43.288Z" fill="black"/>
<mask id="path-3-inside-1_210_43" fill="white">
<path d="M63.9785 81.75C70.5547 88.3262 78.9334 92.8047 88.0549 94.6191C97.1764 96.4335 106.631 95.5022 115.223 91.9432C123.816 88.3842 131.159 82.3572 136.326 74.6244C141.493 66.8915 144.251 57.8002 144.251 48.5C144.251 39.1998 141.493 30.1085 136.326 22.3756C131.159 14.6428 123.816 8.61581 115.223 5.05678C106.631 1.49775 97.1764 0.566547 88.0549 2.38092C78.9334 4.1953 70.5547 8.67377 63.9785 15.25L73.384 24.6555C78.1 19.9395 84.1086 16.7279 90.6498 15.4268C97.1911 14.1256 103.971 14.7934 110.133 17.3457C116.295 19.898 121.561 24.2201 125.267 29.7655C128.972 35.3109 130.95 41.8306 130.95 48.5C130.95 55.1694 128.972 61.6891 125.267 67.2345C121.561 72.7799 116.295 77.102 110.133 79.6543C103.971 82.2066 97.1911 82.8744 90.6498 81.5732C84.1086 80.2721 78.1 77.0605 73.384 72.3445L63.9785 81.75Z"/>
</mask>
<path d="M63.9785 81.75C70.5547 88.3262 78.9334 92.8047 88.0549 94.6191C97.1764 96.4335 106.631 95.5022 115.223 91.9432C123.816 88.3842 131.159 82.3572 136.326 74.6244C141.493 66.8915 144.251 57.8002 144.251 48.5C144.251 39.1998 141.493 30.1085 136.326 22.3756C131.159 14.6428 123.816 8.61581 115.223 5.05678C106.631 1.49775 97.1764 0.566547 88.0549 2.38092C78.9334 4.1953 70.5547 8.67377 63.9785 15.25L73.384 24.6555C78.1 19.9395 84.1086 16.7279 90.6498 15.4268C97.1911 14.1256 103.971 14.7934 110.133 17.3457C116.295 19.898 121.561 24.2201 125.267 29.7655C128.972 35.3109 130.95 41.8306 130.95 48.5C130.95 55.1694 128.972 61.6891 125.267 67.2345C121.561 72.7799 116.295 77.102 110.133 79.6543C103.971 82.2066 97.1911 82.8744 90.6498 81.5732C84.1086 80.2721 78.1 77.0605 73.384 72.3445L63.9785 81.75Z" fill="#008200" stroke="#008200" stroke-width="4" mask="url(#path-3-inside-1_210_43)"/>
</svg>
