<svg width="217" height="246" viewBox="0 0 217 246" fill="none" xmlns="http://www.w3.org/2000/svg">
<path d="M83.1115 79.1895C83.1115 100.924 64.889 118.627 42.3057 118.627C19.7225 118.627 1.5 100.924 1.5 79.1895C1.5 73.8955 4.00992 66.382 7.96911 57.9131C11.8994 49.5059 17.153 40.3706 22.4259 31.9096C27.6956 23.4537 32.9677 15.6981 36.9237 10.055C38.9012 7.23405 40.5488 4.94261 41.7012 3.35735C41.9211 3.0548 42.123 2.77799 42.3057 2.52815C42.4884 2.77799 42.6903 3.0548 42.9103 3.35735C44.0627 4.94261 45.7102 7.23405 47.6877 10.055C51.6438 15.6981 56.9159 23.4537 62.1856 31.9096C67.4585 40.3706 72.712 49.5059 76.6423 57.9131C80.6015 66.382 83.1115 73.8955 83.1115 79.1895Z" stroke="#008200" stroke-width="3"/>
<path d="M166.288 194.027C166.288 221.852 142.896 244.5 113.926 244.5C84.956 244.5 61.5635 221.852 61.5635 194.027C61.5635 187.21 64.795 177.601 69.8376 166.845C74.8513 156.151 81.5493 144.538 88.2667 133.79C94.981 123.046 101.698 113.194 106.737 106.025C109.256 102.442 111.355 99.5309 112.824 97.5167C113.245 96.9394 113.614 96.4357 113.926 96.0111C114.238 96.4357 114.607 96.9394 115.028 97.5167C116.497 99.5309 118.596 102.442 121.115 106.025C126.154 113.194 132.871 123.046 139.585 133.79C146.303 144.538 153.001 156.151 158.014 166.845C163.057 177.601 166.288 187.21 166.288 194.027Z" stroke="#008200" stroke-width="3"/>
<path d="M215.252 97.4788C215.252 114.592 200.889 128.551 183.064 128.551C165.239 128.551 150.876 114.592 150.876 97.4788C150.876 93.3401 152.847 87.4157 155.998 80.6803C159.121 74.0069 163.297 66.75 167.493 60.023C171.685 53.3011 175.88 47.1352 179.028 42.6481C180.602 40.4053 181.913 38.5835 182.829 37.3234C182.911 37.2116 182.989 37.1043 183.064 37.0014C183.139 37.1043 183.217 37.2116 183.298 37.3234C184.215 38.5835 185.526 40.4053 187.1 42.6481C190.248 47.1352 194.443 53.3011 198.635 60.023C202.831 66.75 207.007 74.0069 210.129 80.6803C213.281 87.4157 215.252 93.3401 215.252 97.4788Z" stroke="#008200" stroke-width="3"/>
</svg>
