<svg width="277" height="33" viewBox="0 0 277 33" fill="none" xmlns="http://www.w3.org/2000/svg">
<g clip-path="url(#clip0_141_2278)">
<path d="M57.8175 20.4071C57.8175 20.5757 56.986 26.2538 53.2166 26.2538H47.2852V18.7768H54.9904V12.4803H47.2852V6.85854H54.7687C55.6002 6.97097 56.2654 7.30828 56.7643 7.81424C57.5404 8.6013 57.7621 9.66944 57.8175 10.2316L57.9284 11.5246L63.3054 11.4684V0.0561523H54.6024H35.8105V6.85854H38.9702V26.1976H35.8105V32.9437H63.3054V19.1703H57.9284L57.8175 20.4071Z" fill="white"/>
<path d="M118.738 20.3509C118.738 20.5195 117.907 26.1976 114.137 26.1976H108.206V18.7206H115.856V12.4803H108.15V6.85854H115.634C116.465 6.97097 117.131 7.30828 117.63 7.81424C118.406 8.6013 118.627 9.66944 118.683 10.2316L118.794 11.5246L124.171 11.4684V0.0561523H115.468H96.6758V6.85854H99.8355V26.1976H96.6758V32.9437H124.171V19.1141H118.794L118.738 20.3509Z" fill="white"/>
<path d="M87.1413 18.2709C87.1413 18.6082 86.4761 25.9165 83.3718 26.1414H78.5491V6.80238H81.5425V0H66.1875V6.80238H69.6244V26.1414H67.1299V32.9438H93.1835V16.9779H87.1967L87.1413 18.2709Z" fill="white"/>
<path d="M144.514 20.5758H149.171V21.3066C148.949 24.5673 145.124 24.9608 143.517 24.9608H143.461C141.909 24.9608 139.581 24.1738 137.862 22.431C136.421 20.9693 135.59 18.9455 135.59 16.6968C135.701 12.3118 138.14 7.92675 143.295 7.92675H143.517C145.124 7.98296 147.286 8.60136 148.395 9.66951C148.617 9.89438 148.838 10.1755 148.949 10.4566L149.337 11.2436H156.322V0.674617H148.727V0.955707C147.064 0.337308 145.457 0 143.849 0C143.628 0 143.461 0 143.295 0C143.184 0 143.184 0 143.129 0C138.971 0 135.091 1.68654 132.319 4.72232C129.547 7.75809 128.051 11.9182 128.051 16.4157C128.051 21.0818 129.769 25.4106 132.929 28.5588C135.534 31.201 138.916 32.7751 142.131 32.8876C145.069 33 147.12 32.7189 149.115 32.0443V32.8876H156.932V20.5196H159.703V14.3356H144.514V20.5758Z" fill="white"/>
<path d="M0 14.6727H6.76286V13.2673C6.70742 10.4564 7.20632 8.54495 8.14869 7.53302C8.70302 6.91462 9.25735 6.91462 9.36822 6.91462H10.8649V26.1974H6.04223V32.9998H27.5503V26.3099H21.3972V6.97084H22.2842H22.5059C23.3374 6.97084 23.9472 7.19571 24.5015 7.75789C25.4993 8.76982 25.9982 10.5688 26.1091 13.3797L26.1645 14.7289H32.6502V0.168457H0V14.6727Z" fill="white"/>
<path d="M189.083 19.9011C193.352 18.0459 195.458 14.8977 195.514 10.2878C195.514 7.58937 194.737 5.39687 193.185 3.76654C189.804 0.337243 183.706 0.0561523 176.611 0.0561523H160.535V6.85854H164.748V26.1413H160.591V32.8875H177.886L177.941 26.0851H174.393V21.6439H180.879L186.422 32.8313H195.902V26.0851L192.465 26.0289L189.083 19.9011ZM174.393 6.85854H174.892C175.613 6.85854 176.445 6.85854 177.331 6.85854H177.997C180.602 6.85854 181.045 6.85854 181.156 6.85854H181.489C183.152 6.91475 185.258 7.13963 186.367 8.26399C186.921 8.82617 187.199 9.66944 187.199 10.6251C187.199 13.0987 186.256 14.7291 181.766 14.7291C181.101 14.7291 180.491 14.7291 179.937 14.7291H179.77C179.493 14.7291 179.216 14.7291 178.994 14.7291C176.777 14.7291 175.28 14.7291 174.338 14.7291L174.393 6.85854Z" fill="white"/>
<path d="M223.175 6.85847H226.611V0.112305H205.824V6.85847L209.704 6.80225L201.334 26.1413H198.95V32.8874H214.86V26.1413H210.702L211.7 23.9488H221.29L222.288 26.1413H218.407V32.9436H234.317V26.1975H231.49L223.175 6.85847ZM219.294 19.1702H213.695L216.523 12.143L219.294 19.1702Z" fill="white"/>
<path d="M277 6.18386V0.112305H262.31L256.102 12.8738L251.168 0.112305H235.979V6.24007H239.472V26.1975H236.7V32.9436H251.667V26.1975H249.062L249.006 17.2026L255.714 32.7188L264.029 16.2469V26.1975H261.534V32.8874H276.501V26.1975H273.563V6.18386H277Z" fill="white"/>
</g>
<defs>
<clipPath id="clip0_141_2278">
<rect width="277" height="33" fill="white"/>
</clipPath>
</defs>
</svg>
