<?xml version="1.0" encoding="UTF-8"?>
<svg id="Layer_1" xmlns="http://www.w3.org/2000/svg" version="1.1" viewBox="0 0 535 364">
  <!-- Generator: Adobe Illustrator 29.3.1, SVG Export Plug-In . SVG Version: 2.1.0 Build 151)  -->
  <defs>
    <style>
      .st0 {
        fill: #fff;
      }
    </style>
  </defs>
  <g>
    <g>
      <path class="st0" d="M169.5,30.3c.4.2.5.4.4.8,0,.4-.1.6-.3,1-1.3,3.4-2.6,6.7-3.9,10v.2c.5,0,.9,0,1.4,0h.9c.6,0,.9.5.6,1.1,0,.2-.2.4-.4.6-.6.4-1.2.9-1.5,1.6-.6,1-1.6,1.6-2.7,1.9-.1,0-.2,0-.3.3-1.8,4.7-3.5,9.5-5.1,14.3,0,0,0,.2-.1.4-.2.4-.9.4-1.1,0-.4-.6-1-1.1-1.6-1.5-.2,0-.4-.4-.5-.6-.2-.2-.2-.5-.1-.9.7-2.7,1.6-5.3,2.5-7.8.4-1,.7-2,1.1-3h-.4c-1.8.4-3.7.8-5.5,1.2-.1,0-.2,0-.3.2-1.2,3.2-2.4,6.5-3.6,9.8-.1.4-.3.8-.6,1.1s-.4.4-.6.4c-.4,0-.9-.2-.9-.7s0-.6.1-.9c1.1-3.1,2.2-6.1,3.3-9.2v-.3c-.9,0-1.4-.6-1.9-1.2l-.2-.2c-.3-.4-.6-.7-1.2-.8-.4,0-.6-.4-.7-.8h0v-.4l.4-.4c.1,0,.4,0,.5-.2,1.6-.4,3.2-.9,4.8-1.3.2,0,.3,0,.4-.4,1.7-4.1,3.3-8.3,5-12.4.1-.4.4-.6.6-.9s.5-.4.9-.5c.4,0,.8.2.8.6s0,.6-.2.9c-1.5,3.9-3.1,7.8-4.7,11.7v.3h.2c1.8-.4,3.7-.7,5.5-1.1.1,0,.2,0,.3-.3.7-1.9,1.5-3.7,2.2-5.5s1.5-3.5,2.2-5.3c.1-.4.4-.6.8-.7,1-.4,2.1-.6,3.1-1h.5,0Z"/>
      <path class="st0" d="M181.5,52.2c.4-.9.6-1.7,1-2.6,2.2-5.5,4.7-10.8,7.3-16.1.3-.5.6-1,.9-1.5.2-.4.6-.6,1.1-.7.6-.1,1.2-.4,1.7-.6.4-.1.9-.3,1.4-.3s.7.2.7.7-.1,1.1-.3,1.7c-.7,3.2-1.4,6.4-2.1,9.6-.7,3.5-1.4,7.1-2.2,10.7-.6,3-1.2,6-1.8,9-.1.6-.5.7-1.1.5-.1,0-.3,0-.4-.3-.4-.6-.9-1-1.5-1.4-.2,0-.4-.3-.5-.4-.2-.2-.3-.4-.2-.8.4-2.4.8-4.9,1.2-7.3.4-2.5.9-5,1.4-7.5.4-2.1.8-4.1,1.2-6.2h0c0,0,0,0,0,0-1.8,3.7-3.5,7.6-5.1,11.4-1.2,3-2.3,5.9-3.5,8.8,0,.2-.2.4-.3.6-.2.3-.6.3-.9,0,0,0-.1,0-.2-.3-.4-.6-.8-1.1-1.3-1.5-.4-.4-.8-1-.9-1.7,0-.5-.1-1-.1-1.6,0-1.9,0-3.7.2-5.6.1-1.9.4-3.9.6-5.8,0-1.2.1-2.2.2-3.4h0c0,0,0,0,0,0-1.4,4.5-2.9,9.1-4.3,13.6-.6,2.2-1.3,4.3-1.9,6.5-.1.4-.3.8-.6,1.1-.2,0-.4.3-.6.3-.4,0-.6-.3-.7-.6s0-.6,0-.9c1.4-5.2,3-10.4,4.6-15.5,1.2-3.7,2.4-7.5,3.8-11.2.1-.5.4-.9.9-1,1-.4,2-.8,3-1.2h.7c.4,0,.6.2.6.6v1.9c-.1,1.4-.3,2.8-.5,4.2-.1,1.3-.4,2.7-.6,4-.2,1.6-.4,3.1-.6,4.7-.2,1.9-.4,3.9-.4,5.9v.2h.1Z"/>
      <path class="st0" d="M167.1,57c-.2,0-.5.4-.7.5-.6.3-1.2.4-1.7.2-.9-.3-1.4-1.2-1.3-2.2,0-.6.4-1.3.8-1.8.4-.4.8-.9,1.2-1.4,0,0,.1-.2,0-.4-.1-.5-.4-1-.4-1.6s.4-1.2.9-1.5c.6-.4,1.2-.3,1.8,0,.6.4.9,1.1.6,1.8-.2.5-.6.9-.9,1.4-.1.2-.3.4-.4.6h0c.1.6.3,1,.4,1.4l.4-.4c.1,0,.4-.2.5-.3.4,0,.6,0,.6.5s-.1.6-.3,1c-.2.3-.4.6-.6.9v.2c0,.2.1.4.2.7v.5c0,.4-.4.6-.8.4-.1,0-.3-.3-.4-.4,0,0,0-.2-.1-.3h0l.2.2ZM166,54c-.1.2-.3.4-.4.5-.1.2-.3.4-.4.6v.4h.4c.2,0,.4-.2.6-.4h0c-.1-.5-.2-.8-.4-1.2h.2ZM166.4,51.2h0c.1-.2.4-.4.5-.7.1-.2,0-.5-.2-.6-.2,0-.4,0-.5.4v.9s.2,0,.2,0Z"/>
    </g>
    <path class="st0" d="M216.7,48.5l-8.6-10.1h.7l8.3,9.6,8.3-9.6h.7l-8.6,10.1,8.9,10.5h-.7l-8.6-10.1-8.6,10.1h-.7l8.9-10.5h-.1.1Z"/>
    <g>
      <path class="st0" d="M255.4,42.4c-.8-1-2.4-1.5-3.5-1.5s-3.3.6-3.3,2.3c0,4,10.2,1.4,10.2,9.3s-4,7.3-8.6,7.3-5.4-.9-7.5-2.8l3.5-3.8c1,1.3,2.7,2.1,4.3,2.1s3.4-.7,3.4-2.3c0-4.1-10.4-1.9-10.4-9.3s4.1-7.2,8.5-7.2,5,.6,6.8,2.3l-3.4,3.7h0Z"/>
      <path class="st0" d="M287.5,50.6c0,5.3-3.2,9.1-9.4,9.1s-9.4-3.9-9.4-9.1v-13.7h4.9v13.5c0,2.7,1.9,4.8,4.5,4.8s4.5-2.1,4.5-4.8v-13.5h4.9v13.7h0Z"/>
      <path class="st0" d="M298.3,37h8.3c4.6,0,8.5,1.5,8.5,6.8s-3.5,6.8-8.3,6.8h-3.6v8.7h-4.9v-22.2h0ZM303.3,46.4h3.2c1.7,0,3.5-.6,3.5-2.7s-2.3-2.6-4.2-2.6h-2.5v5.3h0Z"/>
      <path class="st0" d="M324.7,37h15.1v4.5h-10.2v4.2h9.6v4.5h-9.6v4.5h10.8v4.5h-15.7v-22.2h0Z"/>
      <path class="st0" d="M350.6,37h8.6c4.5,0,8.4,1.6,8.4,6.8s-1.7,5.5-4.8,6.1l5.7,9.4h-5.9l-4.7-8.9h-2.4v8.9h-4.9v-22.3h0ZM355.5,46.2h2.9c1.8,0,4.1,0,4.1-2.4s-2-2.6-3.8-2.6h-3.2v5h0Z"/>
      <path class="st0" d="M384.1,42.2l-4.5,4-2.7-3.1,7.3-6.1h4.4v22.2h-4.5v-17h0Z"/>
    </g>
  </g>
  <g>
    <g>
      <path class="st0" d="M129.3,135.5c0,.1-.1.2-.3.2h-.5l-39.2-44.7c-1.9-2.2-3.5-3.6-4.9-4.4-1.3-.8-2.7-1.2-3.9-1.2s-.1-.1-.1-.5,0-.5.1-.5h15.2c.8,0,1.2.3,1.5.9s1.2,1.7,2.4,3.3l29.3,33.7.6,13.1h-.1ZM88.7,124.1v-37.8h2.4v37.8c0,2.8.6,5,1.7,6.7,1.2,1.6,2.8,2.4,4.9,2.4s.1.1.1.5,0,.5-.1.5h-16.5c-1.3,0-.2-.1-.2-.5s0-.5.2-.5c2.3,0,4.2-.8,5.6-2.4,1.4-1.6,2.1-3.8,2.1-6.7h-.2ZM129.3,94.6v40.7l-2.3-2.4v-38.4c0-2.8-.6-5.1-1.7-6.7s-2.8-2.6-4.9-2.6-.1-.1-.1-.5,0-.5.1-.5c1.2,0,2.3,0,3.6.1,1.3,0,2.7.1,4.1.1s2.8,0,4.2-.1c1.4,0,2.7-.1,3.8-.1s.1.1.1.5,0,.5-.1.5c-2.1,0-3.8.8-5,2.6-1.3,1.6-1.9,3.9-1.9,6.7h.1Z"/>
      <path class="st0" d="M156,135.4c-3.4,0-6.3-.8-8.7-2.3s-4.3-3.6-5.7-6.2c-1.3-2.6-2-5.3-2-8.4s.6-5.1,1.6-7.2c1-2,2.4-3.7,4.2-5,1.7-1.3,3.7-2.3,5.7-2.9s4.1-.9,6.2-.9c3.4,0,6.3.8,8.7,2.4s4.3,3.6,5.6,6.2c1.3,2.6,1.9,5.1,1.9,8s-.8,6.2-2.4,8.6c-1.6,2.4-3.7,4.4-6.4,5.7-2.7,1.4-5.6,2.1-8.7,2.1h.1ZM158.5,133.7c2.1,0,3.7-1,4.8-3.1,1-2.1,1.6-5,1.6-8.8s-.5-7.1-1.5-9.8c-.9-2.6-2.2-4.5-3.8-5.9-1.5-1.3-3.1-2-4.9-2s-3.6.9-4.8,2.8c-1,1.9-1.6,4.8-1.6,8.6s.5,6.7,1.4,9.5c.9,2.8,2.1,4.9,3.7,6.4,1.5,1.5,3.3,2.2,5.1,2.2h0Z"/>
      <path class="st0" d="M212.3,103.6s.1.1.1.5,0,.5-.1.5c-1.5,0-2.9.6-4.1,1.7s-2.3,3-3.4,5.5l-9.8,22.6c0,.2-.3.3-.8.3s-.8-.1-.9-.3l-12.2-24.1c-1.2-2.4-2.2-3.9-3-4.6-.8-.7-1.9-1-3-1s-.2-.1-.2-.5,0-.5.2-.5h17.5c1.3,0,.2.1.2.5s0,.5-.2.5c-1.6,0-2.9.2-3.8.6-.9.5-1,1.3-.3,2.4l9.5,18-4.1,7,8.7-21c.9-2.2.9-3.9,0-5.2s-2.3-1.9-4.5-1.9-.1-.1-.1-.5,0-.5.1-.5h14.2,0Z"/>
      <path class="st0" d="M219.9,134.8c-1.6,0-3-.5-3.9-1.3-1-.9-1.5-2.1-1.5-3.8s.7-3.3,2.2-4.1c1.5-.8,3.7-1.7,6.8-2.8l8.9-2.9.3,1.2-5.5,2c-1.4.6-2.4,1.2-3,1.7s-.9,1.4-.9,2.3.3,2,.9,2.7,1.4.9,2.4.9,1,0,1.7-.2,1.5-.5,2.3-.8l4.4-2.4v1.4l-6.7,3.7c-1.3.7-2.8,1.3-4.2,1.7-1.5.5-2.8.7-4.1.7h-.3ZM236.6,134.8c-.2,0-.5.1-.8.1-.9,0-1.9-.6-2.9-1.9-.9-1.3-1.4-3.1-1.4-5.5v-13.6c0-2.1-.1-3.8-.3-5.2s-.7-2.4-1.3-3.1-1.4-1-2.4-1-1.5.2-2.2.6c-.6.3-1.2,1-1.5,1.9-.3.9-.6,2.1-.7,3.6-.1,1.5-.6,2.7-1.4,3.4s-1.9,1-3.3,1-2.3-.3-2.9-.9-.9-1.4-.9-2.4.6-2.3,1.6-3.4c1.2-1,2.6-2.1,4.2-2.9,1.6-.9,3.4-1.5,5.2-2.1,1.9-.5,3.5-.8,4.9-.8,2.3,0,4.3.7,5.9,2.1,1.6,1.4,2.4,3.6,2.4,6.6v14.2c0,1.5.2,2.8.8,3.6s1.4,1.3,2.3,1.3,1.5-.2,2.3-.6c.2,0,.3,0,.5.2.1.3,0,.5-.2.6l-8.2,3.9.3.3Z"/>
      <path class="st0" d="M266.6,134.3c-.1,0-.2-.1-.2-.5s0-.5.2-.5c1.6,0,2.8-.3,3.4-1.2s.9-2.2.9-4.3v-15c0-1.6-.2-2.9-.6-3.6-.3-.8-1-1.2-1.9-1.2s-1,0-1.6.2-1.4.5-2.2.8c-.2,0-.3,0-.5-.3v-.6l11-5.5c.3,0,.5-.1.6-.1.6,0,1.2.6,1.7,1.9s.9,3.1.9,5.5v17.6c0,2.1.3,3.6.9,4.3.6.8,1.7,1.2,3.4,1.2s.2.1.2.5,0,.5-.2.5h-16.1v.2ZM287,134.3c-.1,0-.2-.1-.2-.5s0-.5.2-.5c1.6,0,2.8-.3,3.4-1.2s.9-2.2.9-4.3v-11.5c0-5.7-2-8.5-5.9-8.5s-3.3.3-4.8,1.2c-1.5.8-2.8,1.9-3.7,3.3l-.3-.9c1.9-2.7,3.8-4.8,6.2-6.4,2.2-1.6,4.8-2.4,7.4-2.4s5,.8,6.5,2.3c1.5,1.5,2.3,3.8,2.3,6.7v16.1c0,2.1.3,3.6.9,4.3.6.8,1.7,1.2,3.4,1.2s.3.1.3.5,0,.5-.3.5h-16.3ZM307.9,134.3c-.1,0-.2-.1-.2-.5s0-.5.2-.5c1.6,0,2.8-.3,3.4-1.2s.9-2.2.9-4.3v-11.5c0-5.7-2-8.5-5.9-8.5s-3.3.3-4.8,1.2c-1.5.8-2.8,1.9-3.7,3.3l-.3-.9c1.9-2.7,3.8-4.8,6.2-6.4,2.2-1.6,4.8-2.4,7.4-2.4s5,.8,6.5,2.4c1.5,1.6,2.3,4.2,2.3,7.5v15.3c0,2.1.3,3.6.9,4.3.6.8,1.7,1.2,3.4,1.2s.3.1.3.5,0,.5-.3.5h-16.3Z"/>
      <path class="st0" d="M344.2,135.4c-3.4,0-6.3-.8-8.7-2.3s-4.3-3.6-5.7-6.2c-1.3-2.6-2-5.3-2-8.4s.6-5.1,1.6-7.2c1-2,2.4-3.7,4.2-5,1.7-1.3,3.7-2.3,5.7-2.9s4.1-.9,6.2-.9c3.4,0,6.3.8,8.7,2.4s4.3,3.6,5.6,6.2c1.3,2.6,1.9,5.1,1.9,8s-.8,6.2-2.4,8.6-3.7,4.4-6.4,5.7c-2.7,1.4-5.6,2.1-8.7,2.1h.1ZM346.7,133.7c2.1,0,3.7-1,4.8-3.1,1-2.1,1.6-5,1.6-8.8s-.5-7.1-1.5-9.8c-.9-2.6-2.2-4.5-3.8-5.9-1.5-1.3-3.1-2-4.9-2s-3.6.9-4.8,2.8c-1,1.9-1.6,4.8-1.6,8.6s.5,6.7,1.4,9.5c.9,2.8,2.1,4.9,3.7,6.4,1.5,1.5,3.3,2.2,5.1,2.2h0Z"/>
      <path class="st0" d="M379.4,135.4c-2.3,0-4.4-.6-6.3-1.9-1.9-1.3-3.4-3-4.5-5.3s-1.7-5.1-1.7-8.4.6-5.9,1.7-8.1,2.7-3.9,4.5-5.3c1.9-1.3,3.8-2.3,5.9-2.9,2.1-.6,4.2-.9,6-.9s3.7.2,5.3.7,3.1,1,4.4,1.7l-1.9,6.5c-1.2-2.4-2.4-4.2-3.8-5.2-1.4-1-3.3-1.6-5.3-1.6s-4.9.9-6.5,2.8-2.4,5.2-2.4,9.9.3,5.6,1.2,7.8c.7,2.1,1.7,3.7,3.1,4.9,1.3,1.2,2.8,1.6,4.4,1.6s3.9-.6,5.6-1.7,3.1-2.6,4.6-4.2l.8.7c-1.2,1.3-2.4,2.7-3.9,4.1s-3.3,2.6-5.1,3.6c-1.9.9-3.9,1.5-6.4,1.5h.2ZM398.8,77.6v47.5c0,1.9.1,3.1.5,3.8.3.7.9,1.2,1.7,1.2s.8,0,1.4-.2,1.2-.3,1.9-.6c.1,0,.3,0,.5.2.1.3.2.5,0,.6l-11,5.3h-.3c-.6,0-1-.7-1.5-2-.5-1.3-.7-3.3-.7-5.7v-40.4c0-1.9-.1-3.1-.5-3.9-.3-.8-.9-1.3-1.9-1.3s-.8,0-1.3.2c-.5.1-1,.3-1.6.6-.2,0-.3,0-.6-.3-.1-.3-.2-.5,0-.6l11.7-5.5h.3c.2,0,.6.1.9.3.3.2.5.5.5.7Z"/>
      <path class="st0" d="M413.6,134.8c-1.6,0-3-.5-3.9-1.3-1-.9-1.5-2.1-1.5-3.8s.7-3.3,2.2-4.1,3.7-1.7,6.8-2.8l8.9-2.9.3,1.2-5.5,2c-1.4.6-2.4,1.2-3,1.7s-.9,1.4-.9,2.3.3,2,.9,2.7,1.4.9,2.4.9,1,0,1.7-.2,1.5-.5,2.3-.8l4.4-2.4v1.4l-6.7,3.7c-1.3.7-2.8,1.3-4.2,1.7-1.5.5-2.8.7-4.1.7h-.3ZM430.4,134.8c-.2,0-.5.1-.8.1-.9,0-1.9-.6-2.9-1.9-.9-1.3-1.4-3.1-1.4-5.5v-13.6c0-2.1-.1-3.8-.3-5.2-.2-1.4-.7-2.4-1.3-3.1s-1.4-1-2.4-1-1.5.2-2.2.6c-.6.3-1.2,1-1.5,1.9-.3.9-.6,2.1-.7,3.6-.1,1.5-.6,2.7-1.4,3.4s-1.9,1-3.3,1-2.3-.3-2.9-.9-.9-1.4-.9-2.4.6-2.3,1.6-3.4c1.2-1,2.6-2.1,4.2-2.9,1.6-.9,3.4-1.5,5.2-2.1,1.9-.5,3.5-.8,4.9-.8,2.3,0,4.3.7,5.9,2.1,1.6,1.4,2.4,3.6,2.4,6.6v14.2c0,1.5.2,2.8.8,3.6s1.4,1.3,2.3,1.3,1.5-.2,2.3-.6c.2,0,.3,0,.5.2.1.3,0,.5-.2.6l-8.2,3.9.3.3Z"/>
      <path class="st0" d="M446.6,125.9c1.9,0,3.3.6,4.3,1.9,1,1.3,1.5,3.3,1.5,5.8s-.7,5.7-2.1,8.2c-1.4,2.6-3.4,5.1-5.8,7.5-.2.1-.3.1-.6,0-.1-.1-.2-.3,0-.6,1.5-1.9,2.6-3.7,3-5.5s.8-3.6.8-5.6-.1-2.8-.5-3.5-.7-1.3-1.3-1.6l2.9-.6c0,.9-.2,1.6-.8,2.1s-1.4.7-2.4.7-2.4-.5-3.3-1.3c-.8-.8-1.2-1.9-1.2-3.3s.5-2.7,1.4-3.5c.9-.8,2.2-1.2,3.7-1.2l.2.2Z"/>
      <path class="st0" d="M12.1,194.1c-.1,0-.2-.1-.2-.5s0-.5.2-.5c1.6,0,2.8-.3,3.4-1.2s.9-2.2.9-4.3v-15c0-1.6-.2-2.9-.6-3.6-.3-.8-1-1.2-1.9-1.2s-1,0-1.6.2-1.4.5-2.2.8c-.2,0-.3,0-.5-.3v-.6l11-5.5c.3,0,.5-.1.6-.1.6,0,1.2.6,1.7,1.9s.9,3.1.9,5.5v17.6c0,2.1.3,3.6.9,4.3.6.8,1.7,1.2,3.4,1.2s.2.1.2.5,0,.5-.2.5H12.1v.2ZM33.5,194.1c-.1,0-.2-.1-.2-.5s0-.5.2-.5c1.6,0,2.8-.3,3.4-1.2s.9-2.2.9-4.3v-11.5c0-2.9-.5-5-1.5-6.4s-2.7-2.1-4.9-2.1-3.3.3-4.9,1.2-3,1.9-4.1,3.3l-.3-.9c1.9-2.7,3.9-4.8,6.3-6.4s4.9-2.4,7.7-2.4,5.2.9,6.8,2.8c1.6,1.9,2.4,4.3,2.4,7.2v15.3c0,2.1.3,3.6.9,4.3.6.8,1.7,1.2,3.4,1.2s.2.1.2.5,0,.5-.2.5h-16.1Z"/>
      <path class="st0" d="M69.9,195.1c-3.4,0-6.3-.8-8.7-2.3s-4.3-3.6-5.7-6.2c-1.3-2.6-2-5.3-2-8.4s.6-5.1,1.6-7.2c1-2,2.4-3.7,4.2-5s3.7-2.3,5.7-2.9,4.1-.9,6.2-.9c3.4,0,6.3.8,8.7,2.4,2.4,1.6,4.3,3.6,5.6,6.2,1.3,2.6,1.9,5.1,1.9,8s-.8,6.2-2.4,8.6c-1.6,2.4-3.7,4.4-6.4,5.7-2.7,1.4-5.6,2.1-8.7,2.1h.1ZM72.2,193.4c2.1,0,3.7-1,4.8-3.1s1.6-5,1.6-8.8-.5-7.1-1.5-9.8c-.9-2.6-2.2-4.5-3.8-5.9-1.5-1.3-3.1-2-4.9-2s-3.6.9-4.8,2.8c-1,1.9-1.6,4.8-1.6,8.6s.5,6.7,1.4,9.5c.9,2.8,2.1,4.9,3.7,6.4,1.5,1.5,3.3,2.2,5.1,2.2h0Z"/>
      <path class="st0" d="M126.1,163.4s.1.1.1.5,0,.5-.1.5c-1.5,0-2.9.6-4.1,1.7s-2.3,3-3.4,5.5l-9.8,22.6c0,.2-.3.3-.8.3s-.8-.1-.9-.3l-12.2-24.1c-1.2-2.4-2.2-3.9-3-4.6s-1.9-1-3-1-.2-.1-.2-.5,0-.5.2-.5h17.5c1.3,0,.2.1.2.5s0,.5-.2.5c-1.6,0-2.9.2-3.8.6-.9.5-1,1.3-.3,2.4l9.5,18-4.1,7,8.7-21c.9-2.2.9-3.9,0-5.2s-2.3-1.9-4.5-1.9-.1-.1-.1-.5,0-.5.1-.5h14.2,0Z"/>
      <path class="st0" d="M133.6,194.6c-1.6,0-3-.5-3.9-1.3-1-.9-1.5-2.1-1.5-3.8s.7-3.3,2.2-4.1c1.5-.8,3.7-1.7,6.8-2.8l8.9-2.9.3,1.2-5.5,2c-1.4.6-2.4,1.2-3,1.7s-.9,1.4-.9,2.3.3,2,.9,2.7,1.4.9,2.4.9,1,0,1.7-.2,1.5-.5,2.3-.8l4.4-2.4v1.4l-6.7,3.7c-1.3.7-2.8,1.3-4.2,1.7-1.5.5-2.8.7-4.1.7h-.3ZM150.5,194.6c-.2,0-.5.1-.8.1-.9,0-1.9-.6-2.9-1.9-.9-1.3-1.4-3.1-1.4-5.5v-13.6c0-2.1-.1-3.8-.3-5.2s-.7-2.4-1.3-3.1c-.6-.7-1.4-1-2.4-1s-1.5.2-2.2.6c-.6.3-1.2,1-1.5,1.9-.3.9-.6,2.1-.7,3.6s-.6,2.7-1.4,3.4-1.9,1-3.3,1-2.3-.3-2.9-.9-.9-1.4-.9-2.4.6-2.3,1.6-3.4c1.2-1,2.6-2.1,4.2-2.9,1.6-.9,3.4-1.5,5.2-2.1,1.9-.5,3.5-.8,4.9-.8,2.3,0,4.3.7,5.9,2.1,1.6,1.4,2.4,3.6,2.4,6.6v14.2c0,1.5.2,2.8.8,3.6.6.8,1.4,1.3,2.3,1.3s1.5-.2,2.3-.6c.2,0,.3,0,.5.2.1.3,0,.5-.2.6l-8.2,3.9.3.3Z"/>
      <path class="st0" d="M179.2,216c-.1,0-.2-.1-.2-.5s0-.5.2-.5c1.9,0,3-.3,3.6-1,.6-.7.8-2.2.8-4.4v-36.9c0-1.6-.2-2.9-.6-3.6-.3-.8-1-1.2-2-1.2s-.9,0-1.6.2c-.6.2-1.3.5-2.1.8-.2,0-.3,0-.6-.3-.1-.3-.2-.5,0-.6l11.3-5.5h.3c.6,0,1.2.6,1.7,1.9s.8,3.1.8,5.5v39.6c0,1.5.1,2.7.5,3.5.3.8,1,1.4,2.1,1.6,1,.3,2.6.5,4.5.5s.2.1.2.5,0,.5-.2.5h-18.9.1ZM197.9,195.1c-2.1,0-3.8-.1-5.3-.5-1.5-.3-3.3-.8-5.2-1.5l2.8-5c1.2,1.4,2.4,2.7,3.8,3.6s3.1,1.4,5.5,1.4,4.4-1,5.9-3.3c1.4-2.2,2.2-5.7,2.2-10.4s-.9-7.4-2.9-9.5-4.3-3.1-7-3.1-3.7.5-5.1,1.5c-1.4,1-2.8,2.3-4.2,3.8l-.8-.9c2.7-3.1,5.3-5.3,7.8-6.7,2.4-1.4,5-2.1,7.7-2.1s4.3.6,6.3,1.7c1.9,1.2,3.5,2.8,4.6,5,1.2,2.2,1.7,4.9,1.7,8s-.6,6.3-1.6,8.6-2.6,4.2-4.3,5.6-3.6,2.4-5.7,3c-2.1.6-4.1.9-6,.9h-.1Z"/>
      <path class="st0" d="M236.9,195.1c-3.4,0-6.3-.8-8.7-2.3s-4.3-3.6-5.7-6.2c-1.3-2.6-2-5.3-2-8.4s.6-5.1,1.6-7.2c1-2,2.4-3.7,4.2-5s3.7-2.3,5.7-2.9,4.1-.9,6.2-.9c3.4,0,6.3.8,8.7,2.4,2.4,1.6,4.3,3.6,5.6,6.2s1.9,5.1,1.9,8-.8,6.2-2.4,8.6c-1.6,2.4-3.7,4.4-6.4,5.7-2.7,1.4-5.6,2.1-8.7,2.1h.1ZM239.4,193.4c2.1,0,3.7-1,4.8-3.1,1-2.1,1.6-5,1.6-8.8s-.5-7.1-1.5-9.8c-.9-2.6-2.2-4.5-3.8-5.9-1.5-1.3-3.1-2-4.9-2s-3.6.9-4.8,2.8c-1,1.9-1.6,4.8-1.6,8.6s.5,6.7,1.4,9.5,2.1,4.9,3.7,6.4c1.5,1.5,3.3,2.2,5.1,2.2h0Z"/>
      <path class="st0" d="M293.3,163.4s.1.1.1.5,0,.5-.1.5c-1.5,0-2.9.6-4.1,1.7s-2.3,3-3.4,5.5l-9.8,22.6c0,.2-.3.3-.8.3s-.8-.1-.9-.3l-12.2-24.1c-1.2-2.4-2.2-3.9-3-4.6s-1.9-1-3-1-.2-.1-.2-.5,0-.5.2-.5h17.5c1.3,0,.2.1.2.5s0,.5-.2.5c-1.6,0-2.9.2-3.8.6-.9.5-1,1.3-.3,2.4l9.5,18-4.1,7,8.7-21c.9-2.2.9-3.9,0-5.2s-2.3-1.9-4.5-1.9-.1-.1-.1-.5,0-.5.1-.5h14.2,0Z"/>
      <path class="st0" d="M310.8,195.1c-3.5,0-6.4-.7-8.8-2.2-2.4-1.4-4.3-3.4-5.5-5.7-1.3-2.3-1.9-4.9-1.9-7.5s.8-6,2.4-8.6,3.7-4.6,6.5-6.2,5.8-2.3,9.3-2.3,5.8.7,7.5,2.1,2.7,3.4,2.7,5.8,0,1.2-.1,1.6c0,.5-.3.7-.7.7h-7.7c0-2.6-.2-4.5-.9-6.2-.7-1.6-2-2.4-3.7-2.4s-3.8,1.2-5.2,3.3c-1.3,2.2-2,5.1-2,8.8s.5,5.6,1.4,7.8c.9,2.2,2.3,3.9,4.2,5.2s3.9,1.9,6.5,1.9,2.7-.2,4.1-.6c1.5-.3,2.8-.9,3.9-1.6,0,0,.2,0,.5.1.2.2.2.3.1.6-2,2-3.9,3.4-6,4.2-2.1.8-4.3,1.3-6.6,1.3h0ZM299.9,173v-1.5l17.4-.3v1.7h-17.4Z"/>
      <path class="st0" d="M328.1,193.1l17.8-28.1c.2-.3,0-.6-.3-.6-2.8,0-5.3.3-7.7.9-2.2.6-4.2,1.5-5.7,2.8-1.5,1.3-2.7,2.8-3.3,4.8,0,0-.2.1-.5,0-.3,0-.5-.1-.3-.3l3.4-12.5s.2-.1.6,0c.3,0,.5.1.3.3-.2,1.2,0,2,.6,2.3s1.7.6,3.5.6h18.3c.2,0,.5,0,.6.3.1.2.1.5,0,.6l-18.2,27.9c-.1.3,0,.6.3.6,2.6,0,4.9-.2,6.8-.6,2-.3,3.7-.9,5.1-1.6s2.6-1.7,3.5-2.8c.9-1.2,1.5-2.4,1.7-4.1,0-.1.2-.2.5-.2s.5,0,.5.2v9.6c-.1.2-.2.5-.3.6-.1.2-.3.2-.6.2h-26c-.2,0-.3,0-.5-.3-.1-.2-.1-.5,0-.6h-.1Z"/>
      <path class="st0" d="M366.4,194.6c-1.6,0-3-.5-3.9-1.3-1-.9-1.5-2.1-1.5-3.8s.7-3.3,2.2-4.1,3.7-1.7,6.8-2.8l8.9-2.9.3,1.2-5.5,2c-1.4.6-2.4,1.2-3,1.7s-.9,1.4-.9,2.3.3,2,.9,2.7,1.4.9,2.4.9,1,0,1.7-.2,1.5-.5,2.3-.8l4.4-2.4v1.4l-6.7,3.7c-1.3.7-2.8,1.3-4.2,1.7-1.5.5-2.8.7-4.1.7h-.3ZM383.1,194.6c-.2,0-.5.1-.8.1-.9,0-1.9-.6-2.9-1.9-.9-1.3-1.4-3.1-1.4-5.5v-13.6c0-2.1-.1-3.8-.3-5.2-.2-1.4-.7-2.4-1.3-3.1-.6-.7-1.4-1-2.4-1s-1.5.2-2.2.6c-.6.3-1.2,1-1.5,1.9-.3.9-.6,2.1-.7,3.6s-.6,2.7-1.4,3.4-1.9,1-3.3,1-2.3-.3-2.9-.9-.9-1.4-.9-2.4.6-2.3,1.6-3.4c1.2-1,2.6-2.1,4.2-2.9,1.6-.9,3.4-1.5,5.2-2.1,1.9-.5,3.5-.8,4.9-.8,2.3,0,4.3.7,5.9,2.1s2.4,3.6,2.4,6.6v14.2c0,1.5.2,2.8.8,3.6.6.8,1.4,1.3,2.3,1.3s1.5-.2,2.3-.6c.2,0,.3,0,.5.2.1.3,0,.5-.2.6l-8.2,3.9.3.3Z"/>
      <path class="st0" d="M394.4,194.1c-.1,0-.2-.1-.2-.5s0-.5.2-.5c1.6,0,2.8-.3,3.4-1.2s.9-2.2.9-4.3v-15c0-1.6-.2-2.9-.6-3.6-.3-.8-1-1.2-1.9-1.2s-1,0-1.6.2-1.4.5-2.2.8c-.2,0-.3,0-.5-.3v-.6l11-5.5c.3,0,.5-.1.6-.1.6,0,1.2.6,1.7,1.9s.9,3.1.9,5.5v17.6c0,2.1.3,3.6.9,4.3.6.8,1.7,1.2,3.4,1.2s.2.1.2.5,0,.5-.2.5h-16.1v.2ZM415.9,194.1c-.1,0-.2-.1-.2-.5s0-.5.2-.5c1.6,0,2.8-.3,3.4-1.2s.9-2.2.9-4.3v-11.5c0-2.9-.5-5-1.5-6.4s-2.7-2.1-4.9-2.1-3.3.3-4.9,1.2c-1.6.8-3,1.9-4.1,3.3l-.3-.9c1.9-2.7,3.9-4.8,6.3-6.4s4.9-2.4,7.7-2.4,5.2.9,6.8,2.8c1.6,1.9,2.4,4.3,2.4,7.2v15.3c0,2.1.3,3.6.9,4.3.6.8,1.7,1.2,3.4,1.2s.2.1.2.5,0,.5-.2.5h-16.1,0Z"/>
      <path class="st0" d="M452.1,195.1c-3.4,0-6.3-.8-8.7-2.3s-4.3-3.6-5.7-6.2c-1.3-2.6-2-5.3-2-8.4s.6-5.1,1.6-7.2c1-2,2.4-3.7,4.2-5s3.7-2.3,5.7-2.9,4.1-.9,6.2-.9c3.4,0,6.3.8,8.7,2.4,2.4,1.6,4.3,3.6,5.6,6.2,1.3,2.6,1.9,5.1,1.9,8s-.8,6.2-2.4,8.6c-1.6,2.4-3.7,4.4-6.4,5.7-2.7,1.4-5.6,2.1-8.7,2.1h.1ZM454.5,193.4c2.1,0,3.7-1,4.8-3.1s1.6-5,1.6-8.8-.5-7.1-1.5-9.8c-.9-2.6-2.2-4.5-3.8-5.9-1.5-1.3-3.1-2-4.9-2s-3.6.9-4.8,2.8c-1,1.9-1.6,4.8-1.6,8.6s.5,6.7,1.4,9.5c.9,2.8,2.1,4.9,3.7,6.4,1.5,1.5,3.3,2.2,5.1,2.2h0Z"/>
      <path class="st0" d="M481.6,167.2c0,1.2.3,2.1.9,3s1.4,1.6,2.3,2.4c.9.7,2,1.4,3.1,2.1,1.3.7,2.7,1.5,3.9,2.3s2.3,1.9,3.1,3,1.3,2.7,1.3,4.5-.5,3.4-1.3,5c-.9,1.6-2.2,2.9-3.9,3.9s-3.9,1.5-6.6,1.5-2.7-.1-3.9-.5c-1.3-.3-2.8-.8-4.3-1.7,0,0-.2-.2-.3-.3,0-.1-.1-.3-.1-.6v-7.9c-.1-.1,0-.2.2-.2.3,0,.5,0,.5.1.6,1.7,1.4,3.3,2.4,4.8s2.3,2.7,3.6,3.5c1.4.9,2.7,1.3,4.1,1.3s2-.3,2.7-1c.7-.7,1-1.7,1-3s-.3-2.7-1-3.7c-.7-.9-1.5-1.9-2.6-2.6-1-.7-2.1-1.4-3.1-2-1.3-.7-2.4-1.4-3.7-2.2-1.3-.7-2.2-1.7-3-2.8-.8-1.2-1.2-2.7-1.2-4.5s.6-4.1,1.6-5.3c1.2-1.3,2.6-2.3,4.3-2.9s3.6-.9,5.6-.9,2.2,0,3.3.2c.9.1,2.1.5,3.4.9.5.1.7.5.7.9v7.1c0,1.4-.1.2-.5.2s-.5,0-.5-.2c0-1-.5-2.1-1.3-3.3s-1.9-2.2-3.3-3c-1.3-.9-2.8-1.3-4.3-1.3s-1.5.2-2.2.6-1,1.3-1,2.6h.1Z"/>
      <path class="st0" d="M513.7,195.1c-1.3,0-2.6-.2-3.8-.6-1.3-.5-2.4-1.2-3.3-2.2-.9-1-1.3-2.6-1.3-4.4v-17.6c0-1.2-.1-2-.3-2.7-.2-.6-.7-1-1.3-1.4-.6-.2-1.4-.3-2.4-.3s-.3-.2-.3-.7,0-.7.3-.7c2.7,0,4.9-.7,6.6-1.7s3-2.7,3.8-4.9c0-.2.3-.3.7-.3s.5,0,.5.3v27.5c0,2.1.6,3.6,1.6,4.5,1,.9,2.4,1.4,4.1,1.4s2.3-.2,3.5-.8c1-.5,2-1,2.8-1.6.1-.1.3-.1.6.1.2.2.2.5,0,.6-2,2-3.8,3.4-5.7,4.3s-3.8,1.4-5.9,1.4h-.1ZM522.9,167.4c-2.2-.5-4.3-.8-6.4-1s-4.2-.2-6.5-.2v-2.1c2.2,0,4.3,0,6.4-.2,2.1-.1,4.3-.3,6.7-.6,0,0,.2.2.3.6.1.3.2.8.2,1.3s0,1-.2,1.5c-.2.5-.3.7-.6.7h0Z"/>
    </g>
    <g>
      <path class="st0" d="M21.6,253.7v-17.9c0-.7,0-1.3-.2-1.6-.1-.3-.5-.6-.8-.8-.5-.1-1-.2-1.9-.2s0,0,0-.2v-.2h10.6c.7,0,0,0,0,.2v.2c-.9,0-1.6,0-2.1.2s-.8.5-.9.8-.2.9-.2,1.7v17.8c0,.7,0,1.3.2,1.7s.5.7.9.8c.5.1,1.2.2,2.1.2s0,0,0,.2v.2h-10.6c-.7,0,0,0,0-.2v-.2c.9,0,1.5,0,2-.2.5-.1.7-.3.8-.8s.2-.9.2-1.7h-.1ZM23.6,244.9v-1h16.7v1h-16.7ZM38.3,235.9c0-.7,0-1.3-.2-1.7-.1-.3-.5-.7-.9-.8-.5-.1-1.2-.2-2.1-.2s0,0,0-.2v-.2h10.4c.6,0,0,0,0,.2v.2c-.8,0-1.5,0-2,.2-.5.1-.7.3-.8.8-.1.3-.2.9-.2,1.6v17.9c0,.7,0,1.3.2,1.7.1.3.5.7.8.8.5.1,1,.2,2,.2s0,0,0,.2v.2h-10.4c-.7,0,0,0,0-.2v-.2c.9,0,1.6,0,2.1-.2.5-.1.8-.3.9-.8.1-.3.2-.9.2-1.7v-17.8h0Z"/>
      <path class="st0" d="M49.3,251.8c0-1,.2-1.9.8-2.7s1.3-1.5,2.1-2.2c.8-.7,1.7-1.4,2.8-2.1.9-.7,1.9-1.5,2.8-2.2.8-.8,1.5-1.6,2.1-2.7.6-.9.8-2,.8-3.3s-.2-2.1-.8-2.7-1.3-.9-2.1-.9-1.3.2-1.5.7c-.3.5-.5,1.2-.5,2.1,0,1.4.3,2.9.9,4.3.7,1.5,1.5,2.9,2.7,4.3,1,1.4,2.3,2.8,3.7,4.1s2.7,2.4,4.1,3.5c1.9,1.4,3.4,2.4,4.6,3.1,1.3.7,2.3,1.2,2.9,1.3,0,0,.1,0,.1.2s0,.2-.1.2h-6.3c-.2,0-.7,0-1.2-.3-.5-.2-1-.6-1.9-1-.8-.6-1.9-1.3-3-2.3-1-.9-2.2-1.9-3.4-3s-2.3-2.2-3.3-3.5-1.9-2.3-2.4-3.5-.6-1.3-.8-2c-.2-.7-.3-1.4-.3-2.2,0-1.4.3-2.6.9-3.7.6-1,1.4-2,2.6-2.6s2.4-.9,3.9-.9,2,.1,2.8.5c.8.3,1.4.7,1.7,1.3.5.6.6,1.3.6,2.1s-.2,2-.8,2.8-1.3,1.5-2.1,2.2c-.9.7-1.7,1.3-2.8,2-.9.7-1.9,1.3-2.8,2-.9.7-1.6,1.4-2.1,2.2-.6.8-.8,1.7-.8,2.8s.2,1.9.8,2.8c.6.9,1.4,1.6,2.4,2.2s2.3.8,3.8.8,2-.1,2.8-.5,1.4-.8,1.9-1.4.9-1.4,1.2-2.3.3-2,.3-3.1-.2-2.6-.7-3.3-1.3-1-2.4-1,0,0,0-.2v-.2h9.2v.5c-.8,0-1.4,0-1.7.2s-.7.5-.8.9-.3,1-.6,1.7-.5,1.6-.8,2.6-.8,1.9-1.3,2.8c-.6.9-1.3,1.9-2.1,2.6-.8.8-2,1.4-3.1,1.9s-2.8.7-4.5.7-3.4-.2-4.5-.8-2.1-1.3-2.7-2.1-.8-1.7-.8-2.7l-.3.2Z"/>
      <path class="st0" d="M78.8,252l.3-18.3h1.2l-.5,18.3c0,1.4.2,2.4.8,3.3s1.4,1.2,2.4,1.2,0,0,0,.2v.2h-7.8c-.6,0,0,0,0-.2v-.2c1,0,1.9-.3,2.6-1.2.6-.8.9-1.9.9-3.3ZM106.5,256.4v.5h-9.9c-.7,0,0,0,0-.2v-.2c1.2,0,2-.1,2.3-.5.3-.3.5-1,.3-2.2l-.9-17.1,2-3.1-9.9,23s-.1.1-.2.1-.2,0-.3-.1l-10.8-20.5c-.9-1.9-2.1-2.8-3.5-2.8s0,0,0-.2v-.2h6.2c.2,0,.6.1.8.3s.5.8.9,1.6l8.6,16.1-2,3.5,9.1-20.7c.1-.3.3-.6.5-.7s.3-.2.7-.2h5.7c.6,0,0,0,0,.2v.2c-1.2,0-2.1.2-2.6.7-.6.5-.8,1.3-.7,2.3l.9,17.5c0,.7.1,1.3.2,1.7.1.3.3.7.8.8.3.1.9.2,1.7.2h0Z"/>
      <path class="st0" d="M126.2,256.8v-.5c.8,0,1.4-.2,1.6-.6.3-.3.5-1,.5-2.1v-19.5c0-.9,0-1.5-.2-1.9s-.5-.6-.9-.6-.8.1-1.5.5c0,0-.1,0-.2-.2v-.2l5.6-2.7h.2c.1,0,.2,0,.3.1.1,0,.2.2.2.3v24.3c0,1,.1,1.7.5,2.1.3.3.8.6,1.6.6s.1,0,.1.2,0,.2-.1.2h-7.7,0ZM130.5,251.1l-.2-.6,5.2-5c.7-.7,1-1.4.9-2,0-.7-.6-1-1.4-1s0,0,0-.2v-.2h9.1c.5,0,0,0,0,.2v.2c-.7,0-1.4,0-2.3.3-.9.2-1.7.6-2.7,1s-1.7,1-2.7,1.9l-5.9,5.5h0ZM135.8,256.8v-.5c.7,0,1.2-.1,1.3-.5s0-.7-.2-1.2l-4.6-5.9,2.7-2,5.3,6.8c.7.9,1.5,1.6,2.1,2.1.7.5,1.4.6,2.1.6s0,0,0,.2v.2h-8.6Z"/>
      <path class="st0" d="M153.4,257.3c-1.6,0-3-.3-4.2-1.2-1.2-.7-2.1-1.7-2.8-3-.7-1.3-.9-2.6-.9-4.1s.2-2.4.8-3.5,1.2-1.7,2.1-2.4c.8-.6,1.7-1,2.8-1.4s2-.5,3-.5c1.6,0,3,.3,4.2,1.2s2.1,1.7,2.7,3c.6,1.2.9,2.4.9,3.8s-.3,2.9-1.2,4.2c-.8,1.2-1.9,2.1-3.1,2.8-1.3.7-2.7.9-4.2.9h-.1ZM154.5,256.5c1,0,1.7-.5,2.3-1.5.5-1,.8-2.4.8-4.2s-.2-3.5-.7-4.6c-.5-1.3-1-2.2-1.9-2.9-.7-.7-1.5-.9-2.3-.9s-1.7.5-2.3,1.4-.8,2.3-.8,4.2.2,3.3.7,4.6c.5,1.3,1,2.3,1.7,3s1.5,1,2.4,1h0Z"/>
      <path class="st0" d="M164.5,256.8v-.5c.8,0,1.4-.2,1.6-.6.3-.3.5-1,.5-2.1v-19.5c0-.9,0-1.5-.2-1.9s-.5-.6-.9-.6-.8.1-1.5.5c0,0-.1,0-.2-.2v-.2l5.7-2.7h.1c.1,0,.2,0,.5.1.1,0,.2.2.2.3v24.3c0,1,.1,1.7.5,2.1.2.3.8.6,1.6.6s.1,0,.1.2,0,.2-.1.2h-7.8Z"/>
      <path class="st0" d="M182.5,257.3c-1.6,0-3.1-.3-4.3-1s-2.1-1.6-2.7-2.8-.9-2.3-.9-3.6.3-2.9,1.2-4.2,1.9-2.2,3.1-3,2.8-1.2,4.5-1.2,2.8.3,3.7,1c.8.7,1.3,1.6,1.3,2.8s0,.6,0,.8-.1.3-.3.3h-3.7c0-1.2,0-2.2-.5-3-.3-.8-.9-1.2-1.9-1.2s-1.9.6-2.6,1.6c-.7,1-.9,2.4-.9,4.3s.2,2.7.7,3.8c.5,1,1.2,1.9,2,2.6.9.6,2,.9,3.1.9s1.3,0,2-.2c.7-.2,1.4-.5,1.9-.8h.2v.2c-.9.9-2,1.6-2.9,2-1,.3-2.1.6-3.1.6h.1ZM177.2,246.6v-.7l8.4-.2v.8h-8.4Z"/>
      <path class="st0" d="M190.3,256.8v-.5c.8,0,1.4-.2,1.6-.6.3-.3.5-1,.5-2.1v-19.5c0-.9,0-1.5-.2-1.9s-.5-.6-.9-.6-.8.1-1.5.5c0,0-.1,0-.2-.2v-.2l5.6-2.7h.2c.1,0,.2,0,.3.1.1,0,.2.2.2.3v24.3c0,1,.1,1.7.5,2.1.3.3.8.6,1.6.6s.1,0,.1.2,0,.2-.1.2h-7.7,0ZM194.6,251.1l-.2-.6,5.2-5c.7-.7,1-1.4.9-2,0-.7-.6-1-1.4-1s0,0,0-.2v-.2h9.1c.5,0,0,0,0,.2v.2c-.7,0-1.4,0-2.3.3-.9.2-1.7.6-2.7,1s-1.7,1-2.7,1.9l-5.9,5.5h0ZM200,256.8v-.5c.7,0,1.2-.1,1.3-.5s0-.7-.2-1.2l-4.6-5.9,2.7-2,5.3,6.8c.7.9,1.5,1.6,2.1,2.1.7.5,1.4.6,2.1.6s0,0,0,.2v.2h-8.6Z"/>
      <path class="st0" d="M217.4,257.3c-1.7,0-3.3-.3-4.4-1.2s-2-1.7-2.6-2.9-.8-2.3-.8-3.6.2-2.4.8-3.5,1.3-1.9,2.1-2.6c.9-.7,1.9-1.2,2.9-1.5s2.1-.6,3.3-.6,1.5,0,2.2.3c.7.2,1.4.6,1.9.9.5.5.7.9.7,1.6s-.2.8-.6,1.2-.9.6-1.6.6-1.2-.1-1.5-.5c-.3-.3-.7-.8-.8-1.5-.2-.6-.3-1-.6-1.4s-.6-.5-1.3-.5c-1.2,0-2,.6-2.7,1.6-.7,1.2-.9,2.6-.9,4.3s.2,2.4.6,3.5,1,1.9,1.9,2.6c.9.6,2.1.9,3.5.9s1.4,0,2-.2,1.2-.5,1.7-.7h.2v.2c-.9.8-1.9,1.5-2.8,1.9-.9.5-2.1.7-3.4.7l.2.2Z"/>
      <path class="st0" d="M226.3,256.8v-.5c.8,0,1.3-.2,1.6-.6s.5-1,.5-2.1v-6.8c0-.8,0-1.5-.2-1.9-.1-.3-.5-.6-.9-.6h-.6c-.2,0-.5.2-.8.3,0,0-.2,0-.2-.2v-.2l5.8-2.7h0c.1,0,.2,0,.3.2.1.1.2.2.2.3v11.6c0,1,.1,1.7.5,2.1.3.3.8.6,1.6.6s0,0,0,.2v.2h-7.8ZM230,237.8c-.7,0-1.3-.2-1.7-.6-.5-.5-.6-1-.6-1.7s.2-1.2.6-1.6c.5-.3,1-.6,1.7-.6s1.3.2,1.6.6c.3.3.6.9.6,1.6,0,1.5-.7,2.3-2.2,2.3Z"/>
      <path class="st0" d="M242.2,242.1v16.6c0,1.7-.2,3.1-.6,4.3s-1.2,2.1-2.1,2.8c-1,.7-2.3,1.4-4.1,2h-.1v-.3c1.3-.6,2.1-1.4,2.7-2.7.5-1.2.7-2.9.7-5.1v-12.8c0-.8,0-1.5-.2-1.9-.1-.3-.5-.6-.9-.6h-.6c-.2,0-.5.2-.8.3,0,0-.2,0-.2-.2v-.2l5.8-2.7h0c.1,0,.2,0,.3.2.1.1.2.2.2.3h-.1ZM240.1,237.8c-.7,0-1.3-.2-1.7-.6-.5-.5-.6-1-.6-1.7s.2-1.2.6-1.6c.5-.3,1-.6,1.7-.6s1.3.2,1.6.6c.3.3.6.9.6,1.6,0,1.5-.7,2.3-2.2,2.3Z"/>
      <path class="st0" d="M249.3,257.1c-.8,0-1.4-.2-2-.6-.5-.5-.7-1-.7-1.9s.3-1.6,1-2c.7-.3,1.9-.8,3.3-1.3l4.3-1.4v.6c.1,0-2.6.9-2.6.9-.7.2-1.2.6-1.5.8-.3.3-.5.7-.5,1.2s.1.9.5,1.3c.3.3.7.5,1.2.5s.5,0,.8-.1c.3,0,.7-.2,1.2-.3l2.1-1.2v.7l-3.3,1.9c-.7.3-1.3.6-2.1.8s-1.4.3-2,.3l.2-.2ZM257.3,257.1h-.3c-.5,0-.9-.3-1.4-.9-.5-.6-.7-1.5-.7-2.7v-6.5c0-1,0-1.9-.2-2.6-.1-.7-.3-1.2-.6-1.5-.2-.3-.7-.5-1.2-.5s-.7,0-1,.2-.6.5-.7.9c-.2.5-.3,1-.3,1.7s-.3,1.3-.7,1.6-.9.5-1.6.5-1.2-.1-1.4-.5c-.2-.2-.5-.7-.5-1.2s.2-1.2.8-1.6c.6-.6,1.2-1,2-1.4.8-.5,1.6-.8,2.6-1s1.6-.3,2.3-.3c1.2,0,2.1.3,2.9,1,.8.7,1.2,1.7,1.2,3.3v6.8c0,.7.1,1.3.3,1.7.2.5.7.6,1.2.6s.7,0,1.2-.2c0,0,.2,0,.2.1v.2l-3.9,1.9v.2Z"/>
      <path class="st0" d="M277.5,242.1v16.6c0,1.7-.2,3.1-.6,4.3s-1.2,2.1-2.1,2.8c-1,.7-2.3,1.4-4.1,2h-.1v-.3c1.3-.6,2.1-1.4,2.7-2.7.5-1.2.7-2.9.7-5.1v-12.8c0-.8,0-1.5-.2-1.9-.1-.3-.5-.6-.9-.6h-.6c-.2,0-.5.2-.8.3,0,0-.2,0-.2-.2v-.2l5.8-2.7h0c.1,0,.2,0,.3.2.1.1.2.2.2.3h-.1ZM275.4,237.8c-.7,0-1.3-.2-1.7-.6-.5-.5-.6-1-.6-1.7s.2-1.2.6-1.6c.5-.3,1-.6,1.7-.6s1.3.2,1.6.6.6.9.6,1.6c0,1.5-.7,2.3-2.2,2.3Z"/>
      <path class="st0" d="M289.4,257.3c-1.6,0-3.1-.3-4.3-1s-2.1-1.6-2.7-2.8-.9-2.3-.9-3.6.3-2.9,1.2-4.2,1.9-2.2,3.1-3,2.8-1.2,4.5-1.2,2.8.3,3.7,1c.8.7,1.3,1.6,1.3,2.8s0,.6,0,.8-.1.3-.3.3h-3.7c0-1.2,0-2.2-.5-3-.3-.8-.9-1.2-1.9-1.2s-1.9.6-2.6,1.6-.9,2.4-.9,4.3.2,2.7.7,3.8c.5,1,1.2,1.9,2,2.6.9.6,2,.9,3.1.9s1.3,0,2-.2,1.4-.5,1.9-.8h.2v.2c-.9.9-2,1.6-2.9,2-1,.3-2.1.6-3.1.6h.1ZM284.2,246.6v-.7l8.4-.2v.8h-8.4Z"/>
      <path class="st0" d="M314.6,257.3c-1.6,0-3-.3-4.2-1.2-1.2-.7-2.1-1.7-2.8-3s-.9-2.6-.9-4.1.2-2.4.8-3.5,1.2-1.7,2.1-2.4c.8-.6,1.7-1,2.8-1.4s2-.5,3-.5c1.6,0,3,.3,4.2,1.2s2.1,1.7,2.7,3c.6,1.2.9,2.4.9,3.8s-.3,2.9-1.2,4.2c-.8,1.2-1.9,2.1-3.1,2.8-1.3.7-2.7.9-4.2.9h-.1ZM315.8,256.5c1,0,1.7-.5,2.3-1.5.5-1,.8-2.4.8-4.2s-.2-3.5-.7-4.6c-.5-1.3-1-2.2-1.9-2.9-.7-.7-1.5-.9-2.3-.9s-1.7.5-2.3,1.4-.8,2.3-.8,4.2.2,3.3.7,4.6c.5,1.3,1,2.3,1.7,3s1.5,1,2.4,1h0Z"/>
      <path class="st0" d="M331.6,257.3c-1.2,0-2.1-.3-3-.9-.9-.6-1.6-1.4-2.2-2.6s-.8-2.4-.8-4.1.2-2.9.8-3.9,1.3-2,2.2-2.6c.9-.7,1.9-1.2,2.9-1.4,1-.3,2-.5,2.9-.5s1.7,0,2.6.3c.8.2,1.5.5,2.2.8l-.9,3.1c-.6-1.2-1.2-2-1.9-2.6s-1.5-.8-2.6-.8-2.3.5-3.1,1.4-1.2,2.6-1.2,4.8.2,2.7.6,3.7.8,1.9,1.5,2.3c.7.6,1.4.8,2.2.8s2-.2,2.7-.8,1.5-1.3,2.2-2.1l.3.3c-.6.6-1.2,1.3-1.9,2s-1.5,1.3-2.4,1.7c-.9.5-2,.7-3,.7h-.1ZM341,229.4v23c0,.9,0,1.5.2,1.9.1.3.5.6.8.6h.7c.2,0,.6-.2.9-.3,0,0,.1,0,.2.1v.2l-5.3,2.6h-.2c-.2,0-.5-.3-.7-.9-.2-.7-.3-1.5-.3-2.8v-19.5c0-.9,0-1.5-.2-1.9s-.5-.6-.9-.6h-.6c-.2,0-.5.2-.8.3,0,0-.2,0-.2-.2v-.2l5.7-2.7h.1c.1,0,.2,0,.5.1.1,0,.2.2.2.3h0Z"/>
      <path class="st0" d="M348.2,257.1c-.8,0-1.4-.2-2-.6-.5-.5-.7-1-.7-1.9s.3-1.6,1-2,1.9-.8,3.3-1.3l4.3-1.4v.6c.1,0-2.6.9-2.6.9-.7.2-1.2.6-1.5.8-.3.3-.5.7-.5,1.2s.1.9.5,1.3.7.5,1.2.5.5,0,.8-.1c.3,0,.7-.2,1.2-.3l2.1-1.2v.7l-3.3,1.9c-.7.3-1.3.6-2.1.8s-1.4.3-2,.3l.2-.2ZM356.2,257.1h-.3c-.5,0-.9-.3-1.4-.9-.5-.6-.7-1.5-.7-2.7v-6.5c0-1,0-1.9-.2-2.6-.1-.7-.3-1.2-.6-1.5s-.7-.5-1.2-.5-.7,0-1,.2-.6.5-.7.9c-.2.5-.3,1-.3,1.7s-.3,1.3-.7,1.6-.9.5-1.6.5-1.2-.1-1.4-.5c-.2-.2-.5-.7-.5-1.2s.2-1.2.8-1.6c.6-.6,1.2-1,2-1.4.8-.5,1.6-.8,2.6-1,.9-.2,1.6-.3,2.3-.3,1.2,0,2.1.3,2.9,1,.8.7,1.2,1.7,1.2,3.3v6.8c0,.7.1,1.3.3,1.7.2.5.7.6,1.2.6s.7,0,1.2-.2c0,0,.2,0,.2.1v.2l-3.9,1.9v.2Z"/>
      <path class="st0" d="M370.7,256.8v-.5c.8,0,1.3-.2,1.6-.6s.5-1,.5-2.1v-7.2c0-.8,0-1.4-.2-1.7s-.5-.6-.9-.6-.5,0-.8.1c-.3,0-.7.2-1,.3,0,0-.2,0-.2-.1v-.2l5.3-2.7h.2c.2,0,.6.3.8.9s.5,1.5.5,2.7v8.6c0,1,.1,1.7.5,2.1s.8.6,1.6.6,0,0,0,.2v.2h-7.8ZM380.6,256.8v-.5c.8,0,1.4-.2,1.6-.6s.5-1,.5-2.1v-5.6c0-2.7-.9-4.1-2.9-4.1s-1.5.2-2.3.6c-.7.3-1.4.9-1.9,1.6l-.2-.5c.9-1.3,1.9-2.3,2.9-3.1s2.3-1.2,3.6-1.2,2.4.3,3.1,1.2c.7.7,1.2,1.9,1.2,3.3v7.8c0,1,.1,1.7.5,2.1s.8.6,1.6.6.1,0,.1.2,0,.2-.1.2h-7.7ZM390.7,256.8v-.5c.8,0,1.4-.2,1.6-.6.3-.3.5-1,.5-2.1v-5.6c0-2.7-.9-4.1-2.9-4.1s-1.5.2-2.3.6c-.7.3-1.4.9-1.9,1.6l-.2-.5c.9-1.3,1.9-2.3,2.9-3.1s2.3-1.2,3.6-1.2,2.4.3,3.1,1.2,1.2,2,1.2,3.6v7.4c0,1,.1,1.7.5,2.1s.8.6,1.6.6.1,0,.1.2,0,.2-.1.2h-7.7Z"/>
      <path class="st0" d="M408.2,257.3c-1.6,0-3-.3-4.2-1.2-1.2-.7-2.1-1.7-2.8-3s-.9-2.6-.9-4.1.2-2.4.8-3.5,1.2-1.7,2.1-2.4c.8-.6,1.7-1,2.8-1.4s2-.5,3-.5c1.6,0,3,.3,4.2,1.2s2.1,1.7,2.7,3c.6,1.2.9,2.4.9,3.8s-.3,2.9-1.2,4.2c-.8,1.2-1.9,2.1-3.1,2.8-1.3.7-2.7.9-4.2.9h-.1ZM409.3,256.5c1,0,1.7-.5,2.3-1.5.5-1,.8-2.4.8-4.2s-.2-3.5-.7-4.6c-.5-1.3-1-2.2-1.9-2.9-.7-.7-1.5-.9-2.3-.9s-1.7.5-2.3,1.4-.8,2.3-.8,4.2.2,3.3.7,4.6c.5,1.3,1,2.3,1.7,3s1.5,1,2.4,1h0Z"/>
      <path class="st0" d="M425.1,257.3c-1.2,0-2.1-.3-3-.9-.9-.6-1.6-1.4-2.2-2.6s-.8-2.4-.8-4.1.2-2.9.8-3.9,1.3-2,2.2-2.6c.9-.7,1.9-1.2,2.9-1.4,1-.3,2-.5,2.9-.5s1.7,0,2.6.3c.8.2,1.5.5,2.2.8l-.9,3.1c-.6-1.2-1.2-2-1.9-2.6s-1.5-.8-2.6-.8-2.3.5-3.1,1.4-1.2,2.6-1.2,4.8.2,2.7.6,3.7.8,1.9,1.5,2.3c.7.6,1.4.8,2.2.8s2-.2,2.7-.8,1.5-1.3,2.2-2.1l.3.3c-.6.6-1.2,1.3-1.9,2s-1.5,1.3-2.4,1.7c-.9.5-2,.7-3,.7h-.1ZM434.5,229.4v23c0,.9,0,1.5.2,1.9.1.3.5.6.8.6h.7c.2,0,.6-.2.9-.3,0,0,.1,0,.2.1v.2l-5.3,2.6h-.2c-.2,0-.5-.3-.7-.9-.2-.7-.3-1.5-.3-2.8v-19.5c0-.9,0-1.5-.2-1.9s-.5-.6-.9-.6h-.6c-.2,0-.5.2-.8.3,0,0-.2,0-.2-.2v-.2l5.7-2.7h.1c.1,0,.2,0,.5.1.1,0,.2.2.2.3h0Z"/>
      <path class="st0" d="M446.6,257.3c-1.6,0-3.1-.3-4.3-1s-2.1-1.6-2.7-2.8-.9-2.3-.9-3.6.3-2.9,1.2-4.2,1.9-2.2,3.1-3,2.8-1.2,4.5-1.2,2.8.3,3.7,1c.8.7,1.3,1.6,1.3,2.8s0,.6,0,.8-.1.3-.3.3h-3.7c0-1.2,0-2.2-.5-3-.3-.8-.9-1.2-1.9-1.2s-1.9.6-2.6,1.6-.9,2.4-.9,4.3.2,2.7.7,3.8c.5,1,1.2,1.9,2,2.6.9.6,2,.9,3.1.9s1.3,0,2-.2,1.4-.5,1.9-.8h.2v.2c-.9.9-2,1.6-2.9,2-1,.3-2.1.6-3.1.6h.1ZM441.3,246.6v-.7l8.4-.2v.8h-8.4Z"/>
      <path class="st0" d="M455.1,256.8v-.5c.8,0,1.3-.2,1.6-.6s.5-1,.5-2.1v-7.2c0-.8,0-1.4-.2-1.7s-.5-.6-.9-.6-.5,0-.8.1c-.3,0-.7.2-1,.3,0,0-.2,0-.2-.1v-.2l5.3-2.7h.2c.2,0,.6.3.8.9s.5,1.5.5,2.7v8.6c0,.7,0,1.2.3,1.6s.6.7,1,.8c.5.1,1.2.2,2.1.2s.1,0,.1.2,0,.2-.1.2h-9.2ZM459.9,246.4l-.3-.5c1-1.2,1.9-2.1,2.6-2.7s1.3-1,1.7-1.3c.5-.2.9-.3,1.3-.3s1,.2,1.6.6.8.9.8,1.5-.1.9-.5,1.3-.8.5-1.3.5-.9-.1-1.2-.5c-.2-.2-.5-.6-.7-.8s-.6-.3-.9-.3-.3,0-.6.1c-.2,0-.6.3-.9.7s-.9.9-1.6,1.6h0Z"/>
      <path class="st0" d="M469.7,256.8v-.5c.8,0,1.3-.2,1.6-.6s.5-1,.5-2.1v-7.2c0-.8,0-1.4-.2-1.7s-.5-.6-.9-.6-.5,0-.8.1c-.3,0-.7.2-1,.3,0,0-.2,0-.2-.1v-.2l5.3-2.7h.2c.2,0,.6.3.8.9s.5,1.5.5,2.7v8.6c0,1,.1,1.7.5,2.1s.8.6,1.6.6,0,0,0,.2v.2h-7.8ZM480.1,256.8v-.5c.8,0,1.3-.2,1.6-.6.2-.3.5-1,.5-2.1v-5.6c0-1.4-.2-2.4-.7-3.1-.5-.7-1.3-1-2.3-1s-1.5.2-2.3.6-1.5.9-2,1.6l-.2-.5c.9-1.3,1.9-2.3,3-3.1s2.3-1.2,3.7-1.2,2.6.5,3.4,1.4c.8.9,1.2,2.1,1.2,3.5v7.4c0,1,.1,1.7.5,2.1s.8.6,1.6.6,0,0,0,.2v.2h-7.9Z"/>
      <path class="st0" d="M497.6,257.3c-1.6,0-3-.3-4.2-1.2-1.2-.7-2.1-1.7-2.8-3s-.9-2.6-.9-4.1.2-2.4.8-3.5,1.2-1.7,2.1-2.4c.8-.6,1.7-1,2.8-1.4s2-.5,3-.5c1.6,0,3,.3,4.2,1.2s2.1,1.7,2.7,3c.6,1.2.9,2.4.9,3.8s-.3,2.9-1.2,4.2c-.8,1.2-1.9,2.1-3.1,2.8-1.3.7-2.7.9-4.2.9h-.1ZM498.7,256.5c1,0,1.7-.5,2.3-1.5.5-1,.8-2.4.8-4.2s-.2-3.5-.7-4.6c-.5-1.3-1-2.2-1.9-2.9-.7-.7-1.5-.9-2.3-.9s-1.7.5-2.3,1.4-.8,2.3-.8,4.2.2,3.3.7,4.6c.5,1.3,1,2.3,1.7,3s1.5,1,2.4,1h0Z"/>
      <path class="st0" d="M514.5,242.1v16.6c0,1.7-.2,3.1-.6,4.3s-1.2,2.1-2.1,2.8c-1,.7-2.3,1.4-4.1,2h-.1v-.3c1.3-.6,2.1-1.4,2.7-2.7.5-1.2.7-2.9.7-5.1v-12.8c0-.8,0-1.5-.2-1.9-.1-.3-.5-.6-.9-.6h-.6c-.2,0-.5.2-.8.3,0,0-.2,0-.2-.2v-.2l5.8-2.7h0c.1,0,.2,0,.3.2.1.1.2.2.2.3h-.1ZM512.4,237.8c-.7,0-1.3-.2-1.7-.6-.5-.5-.6-1-.6-1.7s.2-1.2.6-1.6c.5-.3,1-.6,1.7-.6s1.3.2,1.6.6.6.9.6,1.6c0,1.5-.7,2.3-2.2,2.3Z"/>
      <path class="st0" d="M18.7,302.6l8.6-13.6q0-.2-.2-.2c-1.4,0-2.6.1-3.7.5-1,.3-2,.7-2.8,1.3-.7.6-1.3,1.4-1.6,2.3h-.2c-.1,0-.2,0-.1-.1l1.6-6h.2c.1,0,.2,0,.1.1-.1.6,0,.9.2,1.2.3.2.8.2,1.6.2h8.8c.1,0,.2,0,.2.1v.3l-8.8,13.5q0,.2.2.2c1.3,0,2.3,0,3.4-.2.9-.2,1.7-.5,2.4-.8.7-.3,1.3-.8,1.6-1.4.5-.6.7-1.2.8-2h.5v4.6s0,.2-.1.2c0,0-.1.1-.2.1h-12.5s-.2,0-.2-.1v-.3h.2ZM22.5,275.1s0-.1.1-.1h.2l2.7,4.2,2.7-4.2h.2q.1,0,0,.1l-2.6,9.6c0,.1-.1.2-.5.2s-.5,0-.5-.2l-2.7-9.6h.2Z"/>
      <path class="st0" d="M42,303.5c-1.6,0-3.1-.3-4.3-1s-2.1-1.6-2.7-2.8-.9-2.3-.9-3.6.3-2.9,1.2-4.2,1.9-2.2,3.1-3,2.8-1.2,4.5-1.2,2.8.3,3.7,1c.8.7,1.3,1.6,1.3,2.8s0,.6,0,.8-.1.3-.3.3h-3.7c0-1.2,0-2.2-.5-3-.3-.8-.9-1.2-1.9-1.2s-1.9.6-2.6,1.6-.9,2.4-.9,4.3.2,2.7.7,3.8c.5,1,1.2,1.9,2,2.6.9.6,2,.9,3.1.9s1.3,0,2-.2,1.4-.5,1.9-.8h.2v.2c-.9.9-2,1.6-2.9,2-1,.3-2.1.6-3.1.6h.1ZM36.8,292.8v-.7l8.4-.2v.8h-8.4Z"/>
      <path class="st0" d="M50.6,303v-.5c.8,0,1.3-.2,1.6-.6s.5-1,.5-2.1v-7.2c0-.8,0-1.4-.2-1.7s-.5-.6-.9-.6-.5,0-.8.1c-.3,0-.7.2-1,.3,0,0-.2,0-.2-.1v-.2l5.3-2.7h.2c.2,0,.6.3.8.9s.5,1.5.5,2.7v8.6c0,1,.1,1.7.5,2.1s.8.6,1.6.6,0,0,0,.2v.2h-7.8ZM60.9,303v-.5c.8,0,1.3-.2,1.6-.6.2-.3.5-1,.5-2.1v-5.6c0-1.4-.2-2.4-.7-3.1s-1.3-1-2.3-1-1.5.2-2.3.6-1.5.9-2,1.6l-.2-.5c.9-1.3,1.9-2.3,3-3.1s2.3-1.2,3.7-1.2,2.6.5,3.4,1.4c.8.9,1.2,2.1,1.2,3.5v7.4c0,1,.1,1.7.5,2.1s.8.6,1.6.6,0,0,0,.2v.2h-7.9Z"/>
      <path class="st0" d="M73.8,290c0,.6.1,1,.5,1.4.3.5.7.8,1.2,1.2s.9.7,1.5,1c.7.3,1.3.7,1.9,1.2.6.3,1.2.9,1.5,1.4.5.6.6,1.3.6,2.2s-.2,1.6-.6,2.4c-.5.8-1,1.4-1.9,1.9s-1.9.7-3.3.7-1.3,0-2-.2c-.7-.1-1.3-.5-2.1-.8v-.2c-.1,0-.1-.1-.1-.2v-3.8s0-.1.1-.1h.2c.2.8.7,1.6,1.2,2.3s1,1.3,1.7,1.7,1.3.6,2,.6.9-.1,1.3-.5c.3-.3.5-.8.5-1.5s-.1-1.3-.5-1.7-.7-.9-1.2-1.3-1-.7-1.5-.9c-.6-.3-1.2-.7-1.7-1s-1-.8-1.5-1.4-.6-1.3-.6-2.2.2-2,.8-2.6c.6-.7,1.3-1.2,2.1-1.4.8-.2,1.7-.5,2.7-.5h1.5c.5,0,1,.2,1.6.5.2,0,.3.2.3.5v3.5c0,.7,0,0-.2,0h-.2c0-.5-.2-1-.6-1.6s-.9-1-1.5-1.5c-.7-.5-1.4-.6-2.1-.6s-.7,0-1,.2-.5.6-.5,1.3v.2Z"/>
      <path class="st0" d="M89.4,303.5c-.6,0-1.3,0-1.9-.3-.6-.2-1.2-.6-1.6-1s-.6-1.3-.6-2.2v-8.6c0-.6,0-.9-.2-1.3-.1-.3-.3-.6-.6-.7s-.7-.2-1.2-.2-.1,0-.1-.3,0-.3.1-.3c1.3,0,2.3-.3,3.3-.8.8-.6,1.4-1.3,1.9-2.3,0,0,.1-.1.3-.1s.2,0,.2.1v13.2c0,1,.2,1.7.8,2.2s1.2.7,2,.7,1.2-.1,1.6-.3c.6-.2.9-.5,1.3-.8h.2c.1,0,.1.2,0,.2-.9.9-1.9,1.6-2.8,2.1s-1.9.7-2.9.7v.2ZM93.8,290.2c-1-.2-2.1-.3-3-.5-1,0-2.1-.1-3.1-.1v-1h3.1c1,0,2.1-.1,3.3-.2v.2c.1.2.1.3.1.6s0,.5-.1.7c0,.2-.2.3-.2.3Z"/>
      <path class="st0" d="M112.7,288.2v.5c-.7,0-1.4.2-2,.8s-1.2,1.4-1.6,2.7l-4.8,10.9c0,.1-.2.2-.3.2s-.3,0-.5-.2l-5.9-11.6c-.6-1.2-1-2-1.5-2.2-.5-.3-.9-.5-1.5-.5s0,0,0-.2v-.2h8.5c.7,0,0,0,0,.2v.2c-.8,0-1.4,0-1.9.3-.5.2-.5.6-.2,1.2l4.6,8.7-2,3.4,4.2-10.2c.5-1,.5-1.9,0-2.6-.5-.6-1.2-.9-2.2-.9s0,0,0-.2v-.2h7.1Z"/>
      <path class="st0" d="M121.2,303.5c-1.6,0-3.1-.3-4.3-1s-2.1-1.6-2.7-2.8-.9-2.3-.9-3.6.3-2.9,1.2-4.2,1.9-2.2,3.1-3,2.8-1.2,4.5-1.2,2.8.3,3.7,1c.8.7,1.3,1.6,1.3,2.8s0,.6,0,.8-.1.3-.3.3h-3.7c0-1.2,0-2.2-.5-3-.3-.8-.9-1.2-1.9-1.2s-1.9.6-2.6,1.6c-.7,1-.9,2.4-.9,4.3s.2,2.7.7,3.8c.5,1,1.2,1.9,2,2.6.9.6,2,.9,3.1.9s1.3,0,2-.2c.7-.2,1.4-.5,1.9-.8h.2v.2c-.9.9-2,1.6-2.9,2-1,.3-2.1.6-3.1.6h.1ZM116,292.8v-.7l8.4-.2v.8h-8.4Z"/>
      <path class="st0" d="M129.8,303v-.5c.8,0,1.3-.2,1.6-.6s.5-1,.5-2.1v-7.2c0-.8,0-1.4-.2-1.7s-.5-.6-.9-.6-.5,0-.8.1c-.3,0-.7.2-1,.3,0,0-.2,0-.2-.1v-.2l5.3-2.7h.2c.2,0,.6.3.8.9s.5,1.5.5,2.7v8.6c0,1,.1,1.7.5,2.1.3.3.8.6,1.6.6s0,0,0,.2v.2h-7.8ZM140.1,303v-.5c.8,0,1.3-.2,1.6-.6.2-.3.5-1,.5-2.1v-5.6c0-1.4-.2-2.4-.7-3.1-.5-.7-1.3-1-2.3-1s-1.5.2-2.3.6-1.5.9-2,1.6l-.2-.5c.9-1.3,1.9-2.3,3-3.1s2.3-1.2,3.7-1.2,2.6.5,3.4,1.4c.8.9,1.2,2.1,1.2,3.5v7.4c0,1,.1,1.7.5,2.1s.8.6,1.6.6,0,0,0,.2v.2h-7.9Z"/>
      <path class="st0" d="M157.7,303.5c-1.6,0-3-.3-4.2-1.2-1.2-.7-2.1-1.7-2.8-3-.7-1.3-.9-2.6-.9-4.1s.2-2.4.8-3.5,1.2-1.7,2.1-2.4c.8-.6,1.7-1,2.8-1.4s2-.5,3-.5c1.6,0,3,.3,4.2,1.2s2.1,1.7,2.7,3c.6,1.2.9,2.4.9,3.8s-.3,2.9-1.2,4.2c-.8,1.2-1.9,2.1-3.1,2.8-1.3.7-2.7.9-4.2.9h-.1ZM158.8,302.7c1,0,1.7-.5,2.3-1.5.5-1,.8-2.4.8-4.2s-.2-3.5-.7-4.6c-.5-1.3-1-2.2-1.9-2.9-.7-.7-1.5-.9-2.3-.9s-1.7.5-2.3,1.4c-.6.9-.8,2.3-.8,4.2s.2,3.3.7,4.6c.5,1.3,1,2.3,1.7,3s1.5,1,2.4,1h0Z"/>
      <path class="st0" d="M171.9,290c0,.6.1,1,.5,1.4.3.5.7.8,1.2,1.2s.9.7,1.5,1c.7.3,1.3.7,1.9,1.2.6.3,1.2.9,1.5,1.4.5.6.6,1.3.6,2.2s-.2,1.6-.6,2.4c-.5.8-1,1.4-1.9,1.9-.8.5-1.9.7-3.3.7s-1.3,0-2-.2c-.7-.1-1.3-.5-2.1-.8v-.2c-.1,0-.1-.1-.1-.2v-3.8s0-.1.1-.1h.2c.2.8.7,1.6,1.2,2.3s1,1.3,1.7,1.7,1.3.6,2,.6.9-.1,1.3-.5.5-.8.5-1.5-.1-1.3-.5-1.7c-.3-.5-.7-.9-1.2-1.3s-1-.7-1.5-.9c-.6-.3-1.2-.7-1.7-1s-1-.8-1.5-1.4-.6-1.3-.6-2.2.2-2,.8-2.6c.6-.7,1.3-1.2,2.1-1.4s1.7-.5,2.7-.5h1.5c.5,0,1,.2,1.6.5.2,0,.3.2.3.5v3.5c0,.7,0,0-.2,0h-.2c0-.5-.2-1-.6-1.6s-.9-1-1.5-1.5c-.7-.5-1.4-.6-2.1-.6s-.7,0-1,.2c-.3.2-.5.6-.5,1.3v.2Z"/>
      <path class="st0" d="M187.4,303.5c-.6,0-1.3,0-1.9-.3-.6-.2-1.2-.6-1.6-1s-.6-1.3-.6-2.2v-8.6c0-.6,0-.9-.2-1.3-.1-.3-.3-.6-.6-.7s-.7-.2-1.2-.2-.1,0-.1-.3,0-.3.1-.3c1.3,0,2.3-.3,3.3-.8.8-.6,1.4-1.3,1.9-2.3,0,0,.1-.1.3-.1s.2,0,.2.1v13.2c0,1,.2,1.7.8,2.2s1.2.7,2,.7,1.2-.1,1.6-.3c.6-.2.9-.5,1.3-.8h.2c.1,0,.1.2,0,.2-.9.9-1.9,1.6-2.8,2.1-.9.5-1.9.7-2.9.7v.2ZM191.9,290.2c-1-.2-2.1-.3-3-.5-1,0-2.1-.1-3.1-.1v-1h3.1c1,0,2.1-.1,3.3-.2v.2c.1.2.1.3.1.6s0,.5-.1.7c0,.2-.2.3-.2.3Z"/>
      <path class="st0" d="M194.8,303v-.5c.8,0,1.3-.2,1.6-.6s.5-1,.5-2.1v-6.8c0-.8,0-1.5-.2-1.9-.1-.3-.5-.6-.9-.6h-.6c-.2,0-.5.2-.8.3,0,0-.2,0-.2-.2v-.2l5.8-2.7h0c.1,0,.2,0,.3.2.1.1.2.2.2.3v11.6c0,1,.1,1.7.5,2.1.3.3.8.6,1.6.6s0,0,0,.2v.2h-7.8ZM198.5,284c-.7,0-1.3-.2-1.7-.6-.5-.5-.6-1-.6-1.7s.2-1.2.6-1.6c.5-.3,1-.6,1.7-.6s1.3.2,1.6.6c.3.3.6.9.6,1.6,0,1.5-.7,2.3-2.2,2.3Z"/>
      <path class="st0" d="M217,290c0,.6.1,1,.5,1.4.3.5.7.8,1.2,1.2s.9.7,1.5,1c.7.3,1.3.7,1.9,1.2.6.3,1.2.9,1.5,1.4.5.6.6,1.3.6,2.2s-.2,1.6-.6,2.4c-.5.8-1,1.4-1.9,1.9-.8.5-1.9.7-3.3.7s-1.3,0-2-.2c-.7-.1-1.3-.5-2.1-.8v-.2c-.1,0-.1-.1-.1-.2v-3.8s0-.1.1-.1h.2c.2.8.7,1.6,1.2,2.3s1,1.3,1.7,1.7,1.3.6,2,.6.9-.1,1.3-.5.5-.8.5-1.5-.1-1.3-.5-1.7c-.3-.5-.7-.9-1.2-1.3s-1-.7-1.5-.9c-.6-.3-1.2-.7-1.7-1s-1-.8-1.5-1.4-.6-1.3-.6-2.2.2-2,.8-2.6c.6-.7,1.3-1.2,2.1-1.4s1.7-.5,2.7-.5h1.5c.5,0,1,.2,1.6.5.2,0,.3.2.3.5v3.5c0,.7,0,0-.2,0h-.2c0-.5-.2-1-.6-1.6s-.9-1-1.5-1.5c-.7-.5-1.4-.6-2.1-.6s-.7,0-1,.2c-.3.2-.5.6-.5,1.3v.2Z"/>
      <path class="st0" d="M251.9,288.2v.5c-.7,0-1.4.2-2,.8s-1.2,1.4-1.6,2.7l-4.8,10.9c0,.1-.2.2-.3.2s-.3,0-.5-.2l-5.9-11.6c-.6-1.2-1-2-1.5-2.2-.5-.3-.9-.5-1.5-.5s0,0,0-.2v-.2h8.5c.7,0,0,0,0,.2v.2c-.8,0-1.4,0-1.9.3-.5.2-.5.6-.2,1.2l4.6,8.7-2,3.4,4.2-10.2c.5-1,.5-1.9,0-2.6-.5-.6-1.2-.9-2.2-.9s0,0,0-.2v-.2h7.1Z"/>
      <path class="st0" d="M252.9,303v-.5c.8,0,1.3-.2,1.6-.6s.5-1,.5-2.1v-6.8c0-.8,0-1.5-.2-1.9-.1-.3-.5-.6-.9-.6h-.6c-.2,0-.5.2-.8.3,0,0-.2,0-.2-.2v-.2l5.8-2.7h0c.1,0,.2,0,.3.2.1.1.2.2.2.3v11.6c0,1,.1,1.7.5,2.1s.8.6,1.6.6,0,0,0,.2v.2h-7.8ZM256.6,284c-.7,0-1.3-.2-1.7-.6-.5-.5-.6-1-.6-1.7s.2-1.2.6-1.6c.5-.3,1-.6,1.7-.6s1.3.2,1.6.6.6.9.6,1.6c0,1.5-.7,2.3-2.2,2.3Z"/>
      <path class="st0" d="M263,303v-.5c.8,0,1.3-.2,1.6-.6s.5-1,.5-2.1v-7.2c0-.8,0-1.4-.2-1.7s-.5-.6-.9-.6-.5,0-.8.1c-.3,0-.7.2-1,.3,0,0-.2,0-.2-.1v-.2l5.3-2.7h.2c.2,0,.6.3.8.9s.5,1.5.5,2.7v8.6c0,1,.1,1.7.5,2.1s.8.6,1.6.6,0,0,0,.2v.2h-7.8ZM273.3,303v-.5c.8,0,1.3-.2,1.6-.6.2-.3.5-1,.5-2.1v-5.6c0-1.4-.2-2.4-.7-3.1s-1.3-1-2.3-1-1.5.2-2.3.6-1.5.9-2,1.6l-.2-.5c.9-1.3,1.9-2.3,3-3.1s2.3-1.2,3.7-1.2,2.6.5,3.4,1.4c.8.9,1.2,2.1,1.2,3.5v7.4c0,1,.1,1.7.5,2.1s.8.6,1.6.6,0,0,0,.2v.2h-7.9Z"/>
      <path class="st0" d="M288.8,303.5c-.6,0-1.3,0-1.9-.3-.6-.2-1.2-.6-1.6-1s-.6-1.3-.6-2.2v-8.6c0-.6,0-.9-.2-1.3-.1-.3-.3-.6-.6-.7s-.7-.2-1.2-.2-.1,0-.1-.3,0-.3.1-.3c1.3,0,2.3-.3,3.3-.8.8-.6,1.4-1.3,1.9-2.3,0,0,.1-.1.3-.1s.2,0,.2.1v13.2c0,1,.2,1.7.8,2.2s1.2.7,2,.7,1.2-.1,1.6-.3c.6-.2.9-.5,1.3-.8h.2c.1,0,.1.2,0,.2-.9.9-1.9,1.6-2.8,2.1s-1.9.7-2.9.7v.2ZM293.3,290.2c-1-.2-2.1-.3-3-.5-1,0-2.1-.1-3.1-.1v-1h3.1c1,0,2.1-.1,3.3-.2v.2c.1.2.1.3.1.6s0,.5-.1.7c0,.2-.2.3-.2.3h0Z"/>
      <path class="st0" d="M298.8,303.3c-.8,0-1.4-.2-2-.6-.5-.5-.7-1-.7-1.9s.3-1.6,1-2c.7-.3,1.9-.8,3.3-1.3l4.3-1.4v.6c.1,0-2.6.9-2.6.9-.7.2-1.2.6-1.5.8-.3.3-.5.7-.5,1.2s.1.9.5,1.3c.3.3.7.5,1.2.5s.5,0,.8-.1c.3,0,.7-.2,1.2-.3l2.1-1.2v.7l-3.3,1.9c-.7.3-1.3.6-2.1.8s-1.4.3-2,.3l.2-.2ZM307,303.3h-.3c-.5,0-.9-.3-1.4-.9-.5-.6-.7-1.5-.7-2.7v-6.5c0-1,0-1.9-.2-2.6-.1-.7-.3-1.2-.6-1.5s-.7-.5-1.2-.5-.7,0-1,.2-.6.5-.7.9c-.2.5-.3,1-.3,1.7s-.3,1.3-.7,1.6-.9.5-1.6.5-1.2-.1-1.4-.5c-.2-.2-.5-.7-.5-1.2s.2-1.2.8-1.6c.6-.6,1.2-1,2-1.4.8-.5,1.6-.8,2.6-1,.9-.2,1.6-.3,2.3-.3,1.2,0,2.1.3,2.9,1s1.2,1.7,1.2,3.3v6.8c0,.7.1,1.3.3,1.7.2.5.7.6,1.2.6s.7,0,1.2-.2c0,0,.2,0,.2.1v.2l-3.9,1.9v.2Z"/>
      <path class="st0" d="M317.9,313.9c-1.9,0-3.4-.3-4.6-1.2s-1.9-1.9-1.9-3.3.1-1.2.3-1.7c.2-.6.7-1.3,1.4-2.1.7-.8,1.7-1.6,3.1-2.6l.3.5c-.2.2-.5.6-.7.9s-.5.8-.6,1.3-.2,1.2-.2,1.9c0,1.6.5,2.9,1.4,3.8.9.8,2,1.3,3.4,1.3s1.6-.1,2.3-.5,1.2-.8,1.6-1.5c.3-.7.6-1.4.6-2.3s-.1-1.4-.5-1.9-.8-.8-1.4-1.2c-.6-.2-1.3-.5-2-.6s-1.4-.2-2.2-.3c-.9-.1-1.7-.3-2.6-.5s-1.5-.5-2-.9c-.5-.5-.8-1-.8-2s.3-1.4.9-2.2,1.6-1.5,3-2.2l.3.2c-.5.2-.8.6-1,.8-.2.3-.3.7-.3,1.2s.2,1,.7,1.4c.5.3,1,.6,1.7.7s1.5.3,2.3.5,1.6.2,2.4.5c.8.2,1.5.5,2.2.7.7.3,1.3.7,1.6,1.3.5.6.6,1.3.6,2.2s-.2,2.1-.8,3c-.5.9-1.3,1.7-2.1,2.6-.9.7-2,1.3-3.1,1.7s-2.4.6-3.8.6h.2ZM318.7,297.5c-1.3,0-2.4-.2-3.4-.7s-1.6-1-2.1-1.7-.7-1.5-.7-2.2.3-2,1-2.7c.7-.7,1.6-1.3,2.6-1.6,1-.3,2-.5,3-.5s2.3.2,3.3.6c.9.5,1.6,1,2.2,1.7s.8,1.5.8,2.4-.3,1.9-1,2.6-1.5,1.3-2.6,1.6c-1,.3-2.1.6-3.1.6h0ZM319.7,296.8c.5,0,.8-.2,1.3-.7s.6-1.3.6-2.4-.3-2.6-1-3.5-1.6-1.4-2.6-1.4-.9.2-1.3.8c-.2.6-.3,1.3-.3,2.2s.1,1.6.5,2.4c.2.8.7,1.4,1.2,1.9s1.2.7,1.9.7h-.1ZM322.5,291v-1.3c.9-.7,1.7-1.2,2.4-1.5.8-.3,1.6-.5,2.6-.5s.2,0,.2.3v.8c0,.3,0,.8-.1,1.2s-.2.6-.2.6c-.5-.2-.9-.3-1.5-.5-.5,0-.9-.1-1.4-.1h-.9c-.3,0-.6.1-.9.2l-.2.7h.1Z"/>
      <path class="st0" d="M337.3,303.5c-1.6,0-3.1-.3-4.3-1s-2.1-1.6-2.7-2.8-.9-2.3-.9-3.6.3-2.9,1.2-4.2,1.9-2.2,3.1-3,2.8-1.2,4.5-1.2,2.8.3,3.7,1c.8.7,1.3,1.6,1.3,2.8s0,.6,0,.8-.1.3-.3.3h-3.7c0-1.2,0-2.2-.5-3-.3-.8-.9-1.2-1.9-1.2s-1.9.6-2.6,1.6-.9,2.4-.9,4.3.2,2.7.7,3.8c.5,1,1.2,1.9,2,2.6.9.6,2,.9,3.1.9s1.3,0,2-.2,1.4-.5,1.9-.8h.2v.2c-.9.9-2,1.6-2.9,2-1,.3-2.1.6-3.1.6h.1ZM332,292.8v-.7l8.4-.2v.8h-8.4Z"/>
      <path class="st0" d="M354.3,313.6v-.5c.9,0,1.5-.1,1.7-.5s.3-1,.3-2.2v-17.9c0-.8,0-1.4-.2-1.7s-.5-.6-.9-.6-.5,0-.8.1c-.3,0-.7.2-1,.3,0,0-.2,0-.2-.1v-.2l5.5-2.7h.2c.2,0,.6.3.8.9s.3,1.5.3,2.7v19.2c0,.7,0,1.3.2,1.6s.5.7.9.8,1.2.2,2.2.2,0,0,0,.2v.2h-9.2.1ZM363.4,303.5c-1,0-1.9,0-2.6-.2-.7-.1-1.5-.3-2.6-.7l1.4-2.4c.6.7,1.2,1.3,1.9,1.7s1.5.7,2.7.7,2.2-.6,2.9-1.6,1-2.8,1-5-.5-3.6-1.4-4.6c-.9-1-2.1-1.5-3.4-1.5s-1.7.2-2.4.7-1.4,1.2-2.1,1.9l-.3-.5c1.3-1.5,2.6-2.6,3.7-3.3,1.2-.7,2.4-1,3.7-1s2.1.2,3,.8,1.6,1.4,2.2,2.4.8,2.3.8,3.8-.2,3-.8,4.2-1.2,2.1-2.1,2.7c-.8.7-1.7,1.2-2.8,1.5s-2,.5-2.9.5h0Z"/>
      <path class="st0" d="M374.5,303v-.5c.8,0,1.3-.2,1.6-.6s.5-1,.5-2.1v-7.2c0-.8,0-1.4-.2-1.7s-.5-.6-.9-.6-.5,0-.8.1c-.3,0-.7.2-1,.3,0,0-.2,0-.2-.1v-.2l5.3-2.7h.2c.2,0,.6.3.8.9s.5,1.5.5,2.7v8.6c0,.7,0,1.2.3,1.6s.6.7,1,.8,1.2.2,2.1.2.1,0,.1.2,0,.2-.1.2h-9.2ZM379.3,292.6l-.3-.5c1-1.2,1.9-2.1,2.6-2.7s1.3-1,1.7-1.3.9-.3,1.3-.3,1,.2,1.6.6.8.9.8,1.5-.1.9-.5,1.3c-.3.3-.8.5-1.3.5s-.9-.1-1.2-.5c-.2-.2-.5-.6-.7-.8s-.6-.3-.9-.3-.3,0-.6.1c-.2,0-.6.3-.9.7l-1.6,1.6h0Z"/>
      <path class="st0" d="M389.1,303v-.5c.8,0,1.3-.2,1.6-.6s.5-1,.5-2.1v-6.8c0-.8,0-1.5-.2-1.9-.1-.3-.5-.6-.9-.6h-.6c-.2,0-.5.2-.8.3,0,0-.2,0-.2-.2v-.2l5.8-2.7h0c.1,0,.2,0,.3.2.1.1.2.2.2.3v11.6c0,1,.1,1.7.5,2.1s.8.6,1.6.6,0,0,0,.2v.2h-7.8ZM392.9,284c-.7,0-1.3-.2-1.7-.6-.5-.5-.6-1-.6-1.7s.2-1.2.6-1.6c.5-.3,1-.6,1.7-.6s1.3.2,1.6.6.6.9.6,1.6c0,1.5-.7,2.3-2.2,2.3Z"/>
      <path class="st0" d="M399,302.6l8.6-13.6q0-.2-.2-.2c-1.4,0-2.6.1-3.7.5-1,.3-2,.7-2.8,1.3-.7.6-1.3,1.4-1.6,2.3h-.2c-.1,0-.2,0-.1-.1l1.6-6h.2c.1,0,.2,0,.1.1-.1.6,0,.9.2,1.2.3.2.8.2,1.6.2h8.8c.1,0,.2,0,.2.1v.3l-8.8,13.5q0,.2.2.2c1.3,0,2.3,0,3.4-.2.9-.2,1.7-.5,2.4-.8.7-.3,1.3-.8,1.6-1.4.5-.6.7-1.2.8-2h.5v4.6s0,.2-.1.2c0,0-.1.1-.2.1h-12.5s-.2,0-.2-.1v-.3h.2Z"/>
      <path class="st0" d="M430.8,288.2v.5c-.7,0-1.4.2-2,.8s-1.2,1.4-1.6,2.7l-4.8,10.9c0,.1-.2.2-.3.2s-.3,0-.5-.2l-5.9-11.6c-.6-1.2-1-2-1.5-2.2-.5-.3-.9-.5-1.5-.5s0,0,0-.2v-.2h8.5c.7,0,0,0,0,.2v.2c-.8,0-1.4,0-1.9.3-.5.2-.5.6-.2,1.2l4.6,8.7-2,3.4,4.2-10.2c.5-1,.5-1.9,0-2.6-.5-.6-1.2-.9-2.2-.9s0,0,0-.2v-.2h7.1Z"/>
      <path class="st0" d="M437.7,303.5c-1.4,0-2.6-.5-3.4-1.4s-1.2-2.1-1.2-3.5v-5.7c0-.8,0-1.5-.2-1.9-.2-.5-.5-.6-.9-.6s-.6,0-.9.2c0,0-.2,0-.2-.2v-.2l5.1-2.4h.2c.1,0,.2,0,.3.1.1,0,.2.2.2.3v8.5c0,1.4.2,2.4.8,3.1s1.3,1,2.4,1,1.5-.2,2.2-.6c.7-.5,1.3-.9,1.7-1.6l.2.5c-.9,1.3-1.9,2.3-2.9,3.1s-2.2,1.2-3.6,1.2h0ZM446.8,288.3v10.2c0,.9,0,1.5.2,1.9.1.3.5.6.8.6h.7c.2,0,.6-.2.9-.3,0,0,.2,0,.2.1v.2l-5.3,2.6h-.2c-.2,0-.5-.3-.7-.9s-.3-1.5-.3-2.8v-6.8c0-.8,0-1.5-.2-1.9-.2-.5-.5-.6-.9-.6s-.6,0-1,.2c0,0-.1,0-.2-.2v-.2l5.1-2.4h.2c.1,0,.2,0,.3.1.1,0,.2.2.2.3h.2Z"/>
      <path class="st0" d="M450.6,303v-.5c.8,0,1.4-.2,1.6-.6.3-.3.5-1,.5-2.1v-19.5c0-.9,0-1.5-.2-1.9s-.5-.6-.9-.6-.8.1-1.5.5c0,0-.1,0-.2-.2v-.2l5.6-2.7h.2c.1,0,.2,0,.3.1.1,0,.2.2.2.3v24.3c0,1,.1,1.7.5,2.1s.8.6,1.6.6.1,0,.1.2,0,.2-.1.2h-7.7ZM454.9,297.3l-.2-.6,5.2-5c.7-.7,1-1.4.9-2,0-.7-.6-1-1.4-1s0,0,0-.2v-.2h9.1c.5,0,0,0,0,.2v.2c-.7,0-1.4,0-2.3.3-.9.2-1.7.6-2.7,1s-1.7,1-2.7,1.9l-5.9,5.5h0ZM460.3,303v-.5c.7,0,1.2-.1,1.3-.5s0-.7-.2-1.2l-4.6-5.9,2.7-2,5.3,6.8c.7.9,1.5,1.6,2.1,2.1.7.5,1.4.6,2.1.6s0,0,0,.2v.2h-8.6Z"/>
      <path class="st0" d="M477.8,303.5c-1.6,0-3-.3-4.2-1.2-1.2-.7-2.1-1.7-2.8-3s-.9-2.6-.9-4.1.2-2.4.8-3.5,1.2-1.7,2.1-2.4c.8-.6,1.7-1,2.8-1.4s2-.5,3-.5c1.6,0,3,.3,4.2,1.2s2.1,1.7,2.7,3c.6,1.2.9,2.4.9,3.8s-.3,2.9-1.2,4.2c-.8,1.2-1.9,2.1-3.1,2.8s-2.7.9-4.2.9h-.1ZM479,302.7c1,0,1.7-.5,2.3-1.5.5-1,.8-2.4.8-4.2s-.2-3.5-.7-4.6c-.5-1.3-1-2.2-1.9-2.9-.7-.7-1.5-.9-2.3-.9s-1.7.5-2.3,1.4c-.6.9-.8,2.3-.8,4.2s.2,3.3.7,4.6c.5,1.3,1,2.3,1.7,3s1.5,1,2.4,1h0Z"/>
      <path class="st0" d="M489,303v-.5c.8,0,1.3-.2,1.6-.6s.5-1,.5-2.1v-7.2c0-.8,0-1.4-.2-1.7s-.5-.6-.9-.6-.5,0-.8.1c-.3,0-.7.2-1,.3,0,0-.2,0-.2-.1v-.2l5.3-2.7h.2c.2,0,.6.3.8.9s.5,1.5.5,2.7v8.6c0,1,.1,1.7.5,2.1s.8.6,1.6.6,0,0,0,.2v.2h-7.8ZM498.9,303v-.5c.8,0,1.4-.2,1.6-.6s.5-1,.5-2.1v-5.6c0-2.7-.9-4.1-2.9-4.1s-1.5.2-2.3.6c-.7.3-1.4.9-1.9,1.6l-.2-.5c.9-1.3,1.9-2.3,2.9-3.1s2.3-1.2,3.6-1.2,2.4.3,3.1,1.2c.7.7,1.2,1.9,1.2,3.3v7.8c0,1,.1,1.7.5,2.1s.8.6,1.6.6.1,0,.1.2,0,.2-.1.2h-7.7ZM509,303v-.5c.8,0,1.4-.2,1.6-.6.3-.3.5-1,.5-2.1v-5.6c0-2.7-.9-4.1-2.9-4.1s-1.5.2-2.3.6c-.7.3-1.4.9-1.9,1.6l-.2-.5c.9-1.3,1.9-2.3,2.9-3.1s2.3-1.2,3.6-1.2,2.4.3,3.1,1.2,1.2,2,1.2,3.6v7.4c0,1,.1,1.7.5,2.1s.8.6,1.6.6.1,0,.1.2,0,.2-.1.2h-7.7Z"/>
    </g>
  </g>
</svg>