<?xml version="1.0" encoding="UTF-8"?>
<svg id="Layer_1" xmlns="http://www.w3.org/2000/svg" version="1.1" viewBox="0 0 519 286.9">
  <!-- Generator: Adobe Illustrator 29.3.1, SVG Export Plug-In . SVG Version: 2.1.0 Build 151)  -->
  <path d="M109.1,25c.3,0,.4.3.4.9s-.1.9-.4.9c-3.7,0-7.1,1.6-10.4,4.8-3.2,3.2-5.8,7.5-7.8,12.8l-27.6,73.7c-.1.4-.6.6-1.6.6s-1.5-.2-1.7-.6L21.9,37.4c-1.7-3.5-3.4-6.1-5.2-7.9-1.8-1.8-3.8-2.7-6.1-2.7s-.4-.3-.4-.9.1-.9.4-.9c1.2,0,2.1,0,2.8.1.6.1,1.5.2,2.7.2,1.1,0,3,0,5.4,0,5.6,0,10.1,0,13.6,0,3.5,0,6.3-.1,8.5-.2,2.2,0,4.1-.1,5.7-.1s.4.3.4.9-.2.9-.4.9c-4.3,0-7.1,1.2-8.5,3.6-1.4,2.4-1.1,5.6.7,9.7l27.2,57.9-7,12.2,25.1-66.3c1.8-4.9,1.9-9,.4-12.2-1.5-3.3-4.8-4.9-9.6-4.9s-.4-.3-.4-.9.1-.9.4-.9c2.9,0,5.6,0,8.2.2,2.6.1,6,.2,10.3.2s5.1,0,6.8-.2c1.7-.2,3.9-.2,6.3-.2Z"/>
  <path d="M143.4,120.1c-6.5,0-12-1.3-16.5-4-4.5-2.7-8-6.2-10.3-10.7-2.3-4.4-3.5-9.1-3.5-14.1s1.5-11.2,4.5-16c3-4.8,7-8.7,12.2-11.6s10.9-4.3,17.4-4.3,10.9,1.3,14.2,4c3.3,2.6,4.9,6.2,4.9,10.8s-.1,2.1-.3,3c-.2.9-.6,1.3-1.3,1.3h-14.3c.2-4.7-.3-8.5-1.6-11.6-1.3-3-3.6-4.6-7-4.6s-7.2,2.1-9.7,6.2c-2.5,4.1-3.7,9.6-3.7,16.5s.9,10.5,2.7,14.6c1.8,4.2,4.4,7.4,7.8,9.7,3.4,2.3,7.5,3.4,12.2,3.4s4.9-.3,7.7-1c2.7-.7,5.2-1.7,7.4-3.1.2-.2.5,0,.8.3.3.4.4.7.2,1-3.7,3.7-7.4,6.3-11.3,7.8-3.8,1.5-7.9,2.3-12.3,2.3ZM122.9,78.8v-2.8c-.1,0,32.5-.7,32.5-.7v3.3l-32.5.3Z"/>
  <path d="M205.6,120.1c-6.9,0-12.5-1.5-17-4.4-4.5-2.9-7.8-6.7-9.9-11.3-2.1-4.6-3.2-9.2-3.2-13.9s1-9.4,3.1-13.3c2.1-3.9,4.9-7.1,8.3-9.8,3.4-2.6,7.2-4.7,11.4-6s8.3-2.1,12.4-2.1,5.8.4,8.7,1.3c2.9.8,5.3,2.1,7.2,3.7,1.9,1.6,2.8,3.7,2.8,6.2s-.7,3.3-2.1,4.7c-1.4,1.4-3.4,2.2-6.1,2.2s-4.4-.6-5.8-1.9c-1.4-1.3-2.5-3.2-3.3-5.7-.7-2.4-1.5-4.2-2.3-5.4-.8-1.2-2.5-1.9-4.9-1.9-4.3,0-7.7,2.1-10.2,6.4-2.5,4.3-3.8,9.9-3.8,16.7s.7,9.5,2.2,13.7c1.5,4.1,3.9,7.4,7.3,9.9,3.4,2.4,7.9,3.7,13.6,3.7s5.5-.3,7.5-1c2-.7,4.3-1.6,6.8-2.8.2-.2.5,0,.8.3.3.4.4.7.2.9-3.5,3.2-7.1,5.6-10.7,7.4-3.7,1.7-8,2.6-13,2.6ZM195.8,9.9c-.1-.3.1-.5.7-.6.5,0,.9,0,1,.1l10.3,16.3,10.2-16.3c.2-.2.5-.2,1-.1.5.1.6.3.4.6l-10,37.2c-.1.5-.6.7-1.6.7s-1.6-.2-1.8-.7l-10.2-37.2Z"/>
  <path d="M269.2,120.1c-6.5,0-12-1.3-16.5-4-4.5-2.7-8-6.2-10.3-10.7-2.3-4.4-3.5-9.1-3.5-14.1s1.5-11.2,4.5-16c3-4.8,7-8.7,12.2-11.6,5.1-2.9,10.9-4.3,17.4-4.3s10.9,1.3,14.2,4c3.3,2.6,4.9,6.2,4.9,10.8s-.1,2.1-.3,3c-.2.9-.6,1.3-1.3,1.3h-14.3c.2-4.7-.3-8.5-1.6-11.6-1.3-3-3.6-4.6-7-4.6s-7.2,2.1-9.7,6.2c-2.5,4.1-3.7,9.6-3.7,16.5s.9,10.5,2.7,14.6c1.8,4.2,4.4,7.4,7.8,9.7,3.4,2.3,7.5,3.4,12.2,3.4s4.9-.3,7.7-1c2.7-.7,5.2-1.7,7.4-3.1.2-.2.5,0,.8.3.3.4.4.7.2,1-3.7,3.7-7.4,6.3-11.3,7.8-3.8,1.5-7.9,2.3-12.3,2.3ZM248.8,78.8v-2.8c-.1,0,32.5-.7,32.5-.7v3.3l-32.5.3Z"/>
  <path d="M302.4,118.3c-.3,0-.4-.3-.4-.9s.2-.9.4-.9c3.1,0,5.2-.7,6.3-2.2,1.1-1.4,1.6-4.2,1.6-8.1v-28.1c0-3.1-.3-5.3-1-6.8-.7-1.4-1.9-2.2-3.6-2.2s-1.9.2-3.1.5c-1.2.3-2.5.9-4,1.6-.4.2-.7,0-.9-.6-.2-.6-.2-.9,0-1l20.8-10.2c.6-.2.9-.3,1-.3,1.1,0,2.2,1.2,3.3,3.6,1.1,2.4,1.6,5.8,1.6,10.3v33.1c0,2.6.4,4.7,1.2,6.2.8,1.5,2.2,2.6,4.1,3.2,1.9.6,4.6.9,8,.9s.6.3.6.9-.2.9-.6.9c-2.7,0-5.7,0-9.2-.1-3.4,0-7.1-.2-11.1-.2s-5.5,0-8.1.2c-2.6,0-4.9.1-6.9.1ZM320.6,77.9l-1.2-1.9c3.9-4.5,7.2-7.9,9.9-10.3,2.7-2.4,5-4.1,6.9-5,1.9-.9,3.6-1.4,5.1-1.4s4.3.8,6.5,2.3c2.2,1.5,3.4,3.6,3.4,6s-.6,3.8-1.9,5.2c-1.2,1.3-3,2-5.2,2s-3.7-.5-4.7-1.6c-1-1.1-2-2.2-2.8-3.2-.8-1-2.1-1.6-3.7-1.6s-1.5.2-2.3.7c-.8.4-2,1.3-3.6,2.7-1.5,1.3-3.7,3.4-6.3,6.2Z"/>
  <path d="M359,118.3c-.3,0-.4-.3-.4-.9s.2-.9.4-.9c3.1,0,5.2-.7,6.3-2.2,1.1-1.4,1.6-4.2,1.6-8.1v-28.1c0-3.1-.3-5.3-1-6.8-.7-1.4-1.9-2.2-3.6-2.2s-1.9.2-3.1.5c-1.2.3-2.5.9-4,1.6-.4.2-.7,0-.9-.6-.2-.6-.2-.9,0-1l20.8-10.2c.6-.2.9-.3,1-.3,1.1,0,2.2,1.2,3.3,3.6,1.1,2.4,1.6,5.8,1.6,10.3v33.1c0,4,.6,6.7,1.7,8.1,1.1,1.4,3.3,2.2,6.3,2.2s.4.3.4.9-.1.9-.4.9c-2,0-4.3,0-6.9-.1-2.6,0-5.3-.2-8.2-.2s-5.5,0-8.1.2c-2.6,0-4.9.1-6.9.1ZM399.1,118.3c-.3,0-.4-.3-.4-.9s.1-.9.4-.9c3.1,0,5.2-.7,6.3-2.2,1.1-1.4,1.6-4.2,1.6-8.1v-21.5c0-5.4-1-9.4-2.9-11.9-1.9-2.6-5-3.9-9.2-3.9s-6,.7-9.2,2.2c-3.1,1.5-5.6,3.5-7.5,6.1l-.7-1.8c3.5-5,7.4-9,11.8-12,4.4-3,9.2-4.6,14.3-4.6s9.9,1.7,12.9,5.2c3,3.5,4.6,8,4.6,13.4v28.7c0,4,.6,6.7,1.7,8.1,1.1,1.4,3.3,2.2,6.3,2.2s.4.3.4.9-.2.9-.4.9c-2,0-4.3,0-6.9-.1-2.6,0-5.3-.2-8.2-.2s-5.5,0-8.1.2c-2.6,0-4.9.1-6.9.1Z"/>
  <path d="M459.7,61.3c0,1.2,0,3.2-.1,6-.1,2.8-.2,6.8-.2,11.9v46.3c0,6.6-.8,12.1-2.5,16.5-1.6,4.4-4.4,8.1-8.2,11-3.8,2.9-9.1,5.4-15.9,7.5-.2,0-.4-.1-.7-.7-.2-.5-.2-.9,0-1,4.9-2.1,8.3-5.5,10.2-10.2,1.9-4.7,2.9-11.2,2.9-19.7v-49.4c0-3.3-.3-5.7-.9-7.2-.6-1.5-1.7-2.3-3.4-2.3s-1.5.2-2.5.4c-.9.3-2,.7-3.1,1.2-.4.1-.7-.2-1-.7-.3-.6-.3-.9,0-1l22.5-10.5c.2,0,.3-.1.4-.1.5,0,1,.2,1.5.7.5.5.7.9.7,1.3ZM451.5,44.4c-2.8,0-5-.8-6.6-2.4-1.6-1.6-2.5-3.8-2.5-6.7s.8-4.7,2.5-6.2c1.6-1.5,3.9-2.3,6.6-2.3s4.9.8,6.4,2.3c1.5,1.5,2.2,3.6,2.2,6.2,0,6.1-2.9,9.1-8.7,9.1Z"/>
  <path d="M476.8,118.3c-.3,0-.4-.3-.4-.9s.2-.9.4-.9c3.1,0,5.2-.7,6.3-2.2,1.1-1.4,1.6-4.2,1.6-8.1v-26.7c0-3.3-.3-5.7-1-7.2-.6-1.5-1.8-2.3-3.5-2.3s-1.5.2-2.5.4c-.9.3-2,.7-3.1,1.2-.4.1-.7-.2-1-.7-.2-.6-.2-.9,0-1l22.5-10.5c.2,0,.3-.1.4-.1.5,0,1,.2,1.5.7.5.5.7.9.7,1.3,0,1.2,0,3.2-.1,6-.1,2.8-.2,6.8-.2,11.9v27c0,4,.6,6.7,1.7,8.1,1.1,1.4,3.3,2.2,6.3,2.2s.4.3.4.9-.1.9-.4.9c-2,0-4.3,0-6.9-.1-2.6,0-5.3-.2-8.2-.2s-5.5,0-8.1.2c-2.6,0-4.9.1-6.9.1ZM491.1,44.4c-2.8,0-5-.8-6.6-2.4-1.6-1.6-2.5-3.8-2.5-6.7s.8-4.7,2.5-6.2c1.6-1.5,3.9-2.3,6.6-2.3s4.9.8,6.4,2.3c1.5,1.5,2.2,3.6,2.2,6.2,0,6.1-2.9,9.1-8.7,9.1Z"/>
  <path d="M14.6,229.2c0-5.5.8-10.6,2.3-15.5,1.5-4.8,3.8-9.1,6.8-12.8,3-3.7,6.7-6.6,11-8.7,4.4-2.1,9.4-3.2,15.1-3.2s10.7,1.1,15.1,3.2c4.4,2.1,8.1,5.1,11,8.7,3,3.7,5.2,7.9,6.8,12.8,1.5,4.8,2.3,10,2.3,15.5s-.8,10.7-2.3,15.5c-1.5,4.9-3.8,9.1-6.8,12.8-3,3.6-6.7,6.5-11,8.7-4.4,2.1-9.4,3.2-15.1,3.2s-10.7-1.1-15.1-3.2c-4.4-2.1-8.1-5-11-8.7-3-3.6-5.2-7.9-6.8-12.8-1.5-4.9-2.3-10.1-2.3-15.5ZM20.2,229.2c0,4.6.6,9,1.9,13.2,1.3,4.2,3.2,8,5.7,11.3,2.5,3.3,5.6,5.9,9.3,7.8,3.7,1.9,7.9,2.9,12.7,2.9s9-1,12.7-2.9c3.7-1.9,6.8-4.6,9.3-7.8,2.5-3.3,4.4-7,5.7-11.3,1.3-4.2,1.9-8.6,1.9-13.2s-.6-9-1.9-13.2c-1.3-4.2-3.2-8-5.7-11.3-2.5-3.3-5.6-5.9-9.3-7.8-3.7-1.9-7.9-2.9-12.7-2.9s-9,1-12.7,2.9c-3.7,1.9-6.8,4.6-9.3,7.8-2.5,3.3-4.4,7-5.7,11.3-1.3,4.2-1.9,8.6-1.9,13.2Z"/>
  <path d="M159.1,267.6h-5.7v-16.4h-.3c-1,2.9-2.4,5.4-4.3,7.7-1.8,2.2-4,4.2-6.4,5.7-2.4,1.6-5.1,2.8-8,3.6-2.9.8-5.8,1.2-8.8,1.2-4.5,0-8.3-.5-11.4-1.6-3.1-1.1-5.7-2.5-7.7-4.3-2-1.8-3.6-3.8-4.7-6-1.1-2.2-2-4.5-2.5-6.8-.5-2.3-.8-4.5-.9-6.6-.1-2.1-.2-4-.2-5.6v-47.5h5.7v48.5c0,2,.1,4.4.4,7.2.3,2.8,1.2,5.6,2.6,8.2,1.4,2.6,3.6,4.9,6.5,6.8,2.9,1.9,7,2.8,12.2,2.8s8.1-.8,11.6-2.4c3.4-1.6,6.3-3.8,8.7-6.6,2.4-2.8,4.2-6.2,5.4-10.2,1.2-3.9,1.9-8.2,1.9-12.9v-41.5h5.7v76.7Z"/>
  <path d="M204,195.8h-16.7v53.6c0,3.1.3,5.5,1,7.3.7,1.8,1.8,3.2,3.2,4.1,1.4.9,3.2,1.5,5.2,1.7,2,.2,4.4.3,7.1.2v4.9c-2.9.2-5.7.2-8.4,0-2.7-.2-5.2-1-7.2-2.2-2.1-1.2-3.8-3.1-5-5.6-1.2-2.5-1.8-5.9-1.6-10.3v-53.6h-14.2v-4.9h14.2v-23.9h5.7v23.9h16.7v4.9Z"/>
  <path d="M206.1,195.8v-4.9h13.7v-15.8c0-2.7.4-5,1.3-6.9.9-1.9,2.1-3.5,3.7-4.7,1.5-1.2,3.3-2.1,5.4-2.7,2-.6,4.2-.9,6.5-.9s3.9.2,6.7.7v4.9c-2.8-.5-5-.7-6.7-.7-3.2,0-5.8.7-8,2.2-2.1,1.4-3.2,4.3-3.2,8.6v15.4h16v4.9h-16v71.8h-5.7v-71.8h-13.7Z"/>
  <path d="M251.8,176.4v-15.4h5.7v15.4h-5.7ZM251.8,267.6v-76.7h5.7v76.7h-5.7Z"/>
  <path d="M303.7,195.8h-16.7v53.6c0,3.1.3,5.5,1,7.3.7,1.8,1.8,3.2,3.2,4.1,1.4.9,3.2,1.5,5.2,1.7,2,.2,4.4.3,7.1.2v4.9c-2.9.2-5.7.2-8.4,0-2.7-.2-5.2-1-7.2-2.2-2.1-1.2-3.8-3.1-5-5.6-1.2-2.5-1.8-5.9-1.6-10.3v-53.6h-14.2v-4.9h14.2v-23.9h5.7v23.9h16.7v4.9Z"/>
</svg>