<?xml version="1.0" encoding="UTF-8"?>
<svg id="Layer_1" xmlns="http://www.w3.org/2000/svg" version="1.1" viewBox="0 0 519 158.6">
  <!-- Generator: Adobe Illustrator 29.3.1, SVG Export Plug-In . SVG Version: 2.1.0 Build 151)  -->
  <path d="M17.2,63.6l1-49,3,.2-1.1,48.8c0,3.7.7,6.5,2.2,8.7s3.8,3.2,6.5,3.2.3.2.3.6,0,.6-.3.6H7.9c-1.5,0-.3-.2-.3-.6s0-.6.3-.6c2.9,0,5-1,6.6-3.2,1.6-2.2,2.5-5,2.5-8.7h.1ZM90.9,75.4c.1,0,.2.2.2.6s0,.6-.2.6h-26.2c-1.7,0-.3-.2-.3-.6s0-.6.3-.6c3.2,0,5.3-.5,6.2-1.4.9-.9,1.3-2.9,1-5.7l-2.4-45.8,5.3-8.2-26.3,61.6c0,.2-.3.5-.8.5s-.7-.1-.9-.5L18,20.8c-2.6-4.9-5.7-7.3-9.4-7.3s-.3-.2-.3-.6,0-.6.3-.6h16.4c.7,0,1.7.3,2.2,1s1.4,2.2,2.5,4.4l23.1,43.3-5.2,9.3,24.2-55.3c.5-.9.8-1.6,1.3-2.1.5-.3,1-.6,1.8-.6h15c1.5,0,.3.2.3.6s0,.6-.3.6c-3.2,0-5.5.7-7,1.9-1.5,1.3-2.2,3.3-2.1,6.1l2.5,46.8c.1,1.9.3,3.5.8,4.6.3,1,1,1.7,2.1,2.1s2.5.5,4.7.5Z"/>
  <path d="M117.8,78.1c-4.4,0-8.1-1-11.2-3-3.2-1.9-5.6-4.7-7.3-8s-2.5-6.9-2.5-10.8.7-6.6,2.1-9.3c1.4-2.6,3.2-4.8,5.5-6.4,2.3-1.7,4.7-3,7.4-3.8,2.6-.8,5.3-1.3,7.9-1.3,4.4,0,8.1,1,11.3,3.1,3.1,2.1,5.5,4.7,7.2,7.9,1.6,3.2,2.5,6.6,2.5,10.3s-1,7.9-3.1,11.1c-2.1,3.2-4.8,5.7-8.2,7.4s-7.2,2.6-11.2,2.6h-.3ZM120.9,75.9c2.7,0,4.8-1.4,6.2-4,1.4-2.6,2.1-6.4,2.1-11.3s-.7-9.2-1.9-12.6c-1.3-3.3-2.9-6-4.9-7.7-1.9-1.7-4.1-2.5-6.3-2.5s-4.7,1.3-6.2,3.5c-1.4,2.4-2.1,6.1-2.1,11.1s.6,8.8,1.7,12.4,2.7,6.3,4.7,8.2,4.2,2.9,6.6,2.9h.1Z"/>
  <path d="M163.3,78.1c-3,0-5.6-.8-8.1-2.4s-4.4-3.9-5.8-6.9-2.2-6.6-2.2-10.9.8-7.7,2.3-10.5,3.4-5.2,5.8-6.9,4.9-3,7.7-3.8,5.4-1.1,7.8-1.1,4.8.3,6.9.9c2.2.6,4,1.4,5.7,2.3l-2.4,8.4c-1.5-3.1-3.1-5.4-4.9-6.8s-4.1-2.1-6.9-2.1-6.3,1.3-8.4,3.7c-2.1,2.4-3.1,6.6-3.1,12.7s.5,7.2,1.5,10c.9,2.7,2.3,4.8,4,6.3s3.7,2.2,5.7,2.2,5.2-.8,7.2-2.3,4-3.3,6-5.5l1,.9c-1.5,1.6-3.1,3.4-5.2,5.2-1.9,1.8-4.1,3.3-6.6,4.6-2.4,1.3-5.2,1.9-8.2,1.9h.2ZM188.5,3.3v61.4c0,2.3.2,4,.7,4.9.5.9,1.1,1.5,2.2,1.5s1,0,1.8-.3c.7-.2,1.5-.5,2.4-.8.2-.1.5,0,.6.3.2.3.2.7,0,.8l-14.2,6.9h-.6c-.7,0-1.4-.9-1.9-2.5-.6-1.7-.9-4.1-.9-7.3V16c0-2.3-.2-4-.6-5.2-.5-1-1.3-1.6-2.4-1.6s-1,0-1.7.3c-.7.2-1.4.5-2.1.8-.2,0-.5,0-.7-.5-.2-.5-.2-.7,0-.7l15.1-7.1h.5c.3,0,.7.1,1.1.5s.6.6.6.9v-.2Z"/>
  <path d="M207.6,77.4c-2.2,0-3.9-.6-5.2-1.7s-1.9-2.7-1.9-4.9.9-4.2,2.9-5.3c1.8-1,4.8-2.3,8.8-3.5l11.6-3.7.5,1.6-7.1,2.5c-1.8.7-3.2,1.5-4,2.3s-1.1,1.8-1.1,3,.5,2.5,1.3,3.4c.8.8,1.8,1.3,3.1,1.3s1.3-.1,2.2-.3c.9-.2,1.9-.6,3.1-1l5.7-3.1v1.7l-8.8,4.8c-1.7.9-3.5,1.6-5.5,2.2s-3.7.9-5.3.9h-.1ZM229.2,77.3c-.2.1-.6.2-1,.2-1.3,0-2.5-.8-3.7-2.5s-1.8-4-1.8-7.1v-17.5c0-2.6-.2-4.9-.6-6.6-.3-1.8-.9-3.1-1.6-4-.8-.9-1.8-1.4-3.1-1.4s-1.9.2-2.7.8-1.5,1.4-1.9,2.5-.8,2.7-.9,4.7c-.2,1.9-.8,3.4-1.8,4.4-1,.9-2.4,1.4-4.2,1.4s-3-.3-3.7-1.1c-.8-.8-1.1-1.8-1.1-3.1s.7-3,2.2-4.4c1.5-1.4,3.2-2.6,5.4-3.8s4.5-2.1,6.8-2.6c2.3-.7,4.5-1,6.3-1,3,0,5.6.9,7.8,2.7,2.2,1.8,3.2,4.7,3.2,8.6v18.2c0,1.9.3,3.5,1,4.7.7,1.1,1.7,1.6,3.1,1.6s1.9-.2,3-.7c.2-.1.5,0,.7.3.1.3,0,.7-.2.8l-10.6,5h-.2Z"/>
  <path d="M9.4,135.5c0,1.4.3,2.6.9,3.7s1.3,1.9,2.1,2.6,1.8,1.3,3,1.7c1.1.3,2.4.6,3.7.6s1.9,0,3.1-.2,2.1-.5,3.1-.9c.9-.5,1.7-1.1,2.3-1.9s.9-1.8.9-3.1-.5-2.9-1.5-3.7-2.3-1.5-3.8-1.9c-1.5-.5-3.1-.8-4.8-1.1-1.7-.2-3.3-.7-4.8-1.3s-2.7-1.4-3.8-2.4-1.5-2.6-1.5-4.6.3-2.6.9-3.7c.7-1,1.5-1.7,2.5-2.3s2.2-1,3.4-1.3,2.5-.3,3.8-.3,3,.2,4.4.6,2.5.9,3.4,1.7,1.7,1.7,2.3,2.9.8,2.6.8,4.4h-2.2c0-1.4-.2-2.5-.7-3.4s-1-1.7-1.8-2.3-1.7-1-2.7-1.4c-1-.2-2.2-.5-3.4-.5s-1.9,0-3,.2c-1,.2-1.9.5-2.7.9s-1.5,1-1.9,1.8-.8,1.6-.8,2.6.2,2.2.9,2.9c.6.7,1.4,1.3,2.3,1.7s1.9.8,3.2,1c1.1.2,2.3.6,3.5.8,1.5.2,2.9.6,4.1.9s2.4.9,3.3,1.5c.9.7,1.7,1.5,2.2,2.4.6,1,.8,2.3.8,3.8s-.3,2.9-1.1,3.9-1.6,1.8-2.7,2.5c-1.1.6-2.3,1-3.7,1.3-1.4.2-2.6.3-4,.3s-3.2-.2-4.7-.7-2.6-1.1-3.8-2.1c-1-.9-1.9-1.9-2.5-3.3-.6-1.3-.9-2.9-1-4.6h2.2v.2Z"/>
  <path d="M36.4,110.4v-6h2.2v6h-2.2ZM36.4,145.4v-29.4h2.2v29.4h-2.2Z"/>
  <path d="M45.6,116h2.2v6h.1c.2-.9.6-1.8,1.1-2.6.6-.8,1.3-1.5,2.1-2.2.8-.6,1.7-1.1,2.7-1.4,1-.3,2.1-.6,3.2-.6s2.6.2,3.7.6,1.9.8,2.6,1.4,1.3,1.3,1.7,2.1c.5.8.7,1.5.9,2.3h0c.9-2.1,2.1-3.7,3.5-4.7s3.4-1.6,5.8-1.6,2.5.2,3.7.6,2.1,1,2.9,1.8,1.5,1.8,1.9,3.1c.5,1.3.7,2.7.7,4.5v20.1h-2.2v-20.1c0-1.8-.2-3.3-.9-4.5-.6-1-1.3-1.8-2.1-2.4-.8-.6-1.6-.9-2.3-1-.8-.1-1.4-.2-1.8-.2-1.4,0-2.5.2-3.7.7s-2.1,1.1-2.9,2.1-1.5,2.1-1.9,3.4-.7,2.9-.7,4.7v17.4h-2.2v-20.1c0-1.8-.2-3.3-.8-4.4s-1.3-1.9-1.9-2.4c-.8-.6-1.5-.9-2.3-1s-1.4-.2-1.8-.2c-1,0-2.1.2-3.2.6-1.1.5-2.2,1-3.1,1.9-.9.9-1.7,2.1-2.3,3.3-.6,1.4-.9,3-.9,4.8v17.4h-2.2v-29.4l.2.2Z"/>
  <path d="M91.5,104.5h2.2v17.7h0c.5-1.1,1-2.2,1.8-3,.8-.9,1.6-1.6,2.6-2.2s2.1-1,3.2-1.4c1.1-.2,2.3-.5,3.5-.5,2.2,0,4,.3,5.6,1.1s2.9,1.8,4,3.2c1,1.4,1.8,2.9,2.4,4.7s.8,3.7.8,5.7c0,3.5-.5,6.3-1.5,8.5-.9,2.2-2.1,3.8-3.4,4.8-1.4,1.1-2.7,1.8-4.2,2.3-1.5.3-2.7.6-3.8.6-1.9,0-3.7-.3-4.9-.9-1.4-.6-2.5-1.4-3.3-2.2-.9-.8-1.6-1.6-2.1-2.4-.5-.8-.8-1.4-.9-1.7h0v6.6h-2.2v-41.1ZM105,144.1c1.9,0,3.5-.5,4.9-1.3,1.4-.8,2.4-1.9,3.3-3.3s1.5-2.9,1.8-4.6c.3-1.7.6-3.4.6-5s-.2-3.2-.7-4.7c-.5-1.5-1.1-2.9-2.1-4.1-.9-1.1-2.1-2.2-3.3-2.9-1.4-.7-2.9-1-4.6-1s-3.5.3-5,.9c-1.4.7-2.6,1.5-3.5,2.6-.9,1.1-1.6,2.5-2.1,4.1s-.7,3.2-.7,5,.2,3.5.7,5.3,1,3.2,1.9,4.6c.9,1.3,2.1,2.4,3.4,3.2s3.1,1.1,5.2,1.1h.1Z"/>
  <path d="M121.5,130.6c0-2.1.3-4.1.9-6s1.5-3.4,2.6-4.9c1.1-1.4,2.5-2.5,4.2-3.3,1.7-.8,3.5-1.3,5.7-1.3s4.1.5,5.7,1.3c1.7.8,3.1,1.9,4.2,3.3,1.1,1.4,2.1,3.1,2.6,4.9s.9,3.8.9,6-.3,4.1-.9,6-1.5,3.5-2.6,4.9-2.5,2.5-4.2,3.3-3.7,1.3-5.7,1.3-4.1-.5-5.7-1.3c-1.7-.8-3.1-1.9-4.2-3.3s-2.1-3-2.6-4.9-.9-3.9-.9-6ZM123.7,130.6c0,1.7.2,3.4.8,5,.5,1.6,1.3,3.1,2.2,4.4s2.2,2.3,3.5,3c1.4.8,3,1.1,4.8,1.1s3.4-.3,4.8-1.1,2.6-1.7,3.5-3,1.7-2.7,2.2-4.4c.5-1.6.7-3.3.7-5s-.2-3.4-.7-5-1.3-3.1-2.2-4.4-2.2-2.3-3.5-3c-1.4-.8-3.1-1.1-4.8-1.1s-3.4.3-4.8,1.1-2.6,1.7-3.5,3-1.7,2.7-2.2,4.4-.8,3.3-.8,5Z"/>
  <path d="M156.3,104.5v40.9h-2.2v-40.9h2.2Z"/>
  <path d="M199.8,143.4v1.9h-23.4v-2.1l19.7-25.4h-18.2v-1.9h20.8v2.1l-19.8,25.4h20.8Z"/>
  <path d="M223,139.5h-.1c-.3.9-.8,1.7-1.5,2.5s-1.5,1.5-2.4,2.1-1.9,1.1-3.2,1.4c-1.1.3-2.5.6-3.9.6-3.1,0-5.5-.7-7.2-2.1s-2.5-3.4-2.5-6.3.3-3.1,1-4.2c.7-1,1.6-1.9,2.6-2.5,1-.6,2.2-1,3.4-1.4,1.3-.2,2.5-.5,3.7-.6l3.4-.2c1.6-.1,2.7-.3,3.7-.6s1.6-.6,2.1-1c.5-.5.8-1,.9-1.7s.2-1.6.2-2.5-.1-1.6-.5-2.3-.8-1.3-1.4-1.8c-.7-.6-1.5-.9-2.5-1.3-1-.3-2.3-.5-3.8-.5-2.6,0-4.8.7-6.4,1.9-1.6,1.3-2.5,3.3-2.6,6h-2.2c.1-3.2,1.1-5.7,3.1-7.3s4.7-2.4,8.2-2.4,6.2.7,7.8,2.1c1.6,1.4,2.4,3.2,2.4,5.5v18.4c0,.5,0,.8.2,1.1,0,.3.3.6.6.8s.7.3,1.1.3.9,0,1.6-.2v1.8c-.6.1-1.1.2-1.8.2s-1.6-.1-2.1-.3c-.6-.2-.9-.6-1.1-.9s-.5-.8-.6-1.4c0-.6-.1-1-.1-1.7v-1.6h-.2ZM223,128.7c-.6.7-1.4,1.1-2.4,1.3-1.1.2-2.3.5-3.7.6l-3.7.3c-1,.1-2.2.2-3.2.5s-2.1.6-2.9,1c-.9.5-1.6,1.1-2.1,2.1s-.8,1.9-.8,3.3c0,2.2.7,3.8,2.1,4.8s3.3,1.6,5.7,1.6,4.5-.5,6-1.4,2.5-1.9,3.3-3.1,1.3-2.3,1.5-3.3c.2-1.1.3-1.8.3-2.2v-5.5h-.2Z"/>
  <path d="M234.8,116v32.6c0,1,0,1.9-.2,2.9-.1.9-.5,1.7-.9,2.3s-1,1.1-1.8,1.6c-.8.5-1.8.6-3.1.6h-1.8v-1.9h1.5c.8,0,1.4,0,1.9-.2s1-.5,1.4-.9.6-1,.7-1.7.2-1.7.2-2.7v-32.4h2.2ZM232.7,110.4v-6h2.2v6h-2.2Z"/>
  <path d="M242.5,131v.3c0,1.7.2,3.3.7,4.9.5,1.6,1.1,3,2.1,4.1s2.1,2.1,3.4,2.7c1.4.7,3,1,4.7,1,3,0,5.3-.8,7-2.3s2.9-3.7,3.5-6.4h2.2c-.7,3.4-2.1,6.1-4.2,7.9-2.2,1.8-5,2.7-8.6,2.7s-4.1-.3-5.7-1.1-3-1.8-4-3.2c-1.1-1.4-1.9-3-2.4-4.8-.6-1.8-.8-3.9-.8-6s.2-4,.8-6c.6-1.8,1.4-3.5,2.5-4.9,1.1-1.4,2.5-2.5,4.1-3.4s3.7-1.3,5.8-1.3,3.9.3,5.5,1.1c1.6.8,2.9,1.8,4,3.1,1,1.4,1.8,2.9,2.4,4.6s.8,3.5.8,5.6,0,.5,0,.7v.6h-23.8ZM264.1,129c0-1.6-.3-3.1-.8-4.6-.5-1.4-1.1-2.7-2.1-3.8-.9-1.1-1.9-1.9-3.3-2.6-1.3-.7-2.7-.9-4.4-.9s-3.3.3-4.7,1c-1.4.7-2.5,1.5-3.4,2.6s-1.6,2.4-2.2,3.8c-.5,1.5-.8,3-.9,4.5h21.8Z"/>
  <path d="M294.1,139.1h-.1c-1.3,2.3-2.7,4.1-4.6,5.3s-4,1.7-6.6,1.7-4.1-.5-5.7-1.3c-1.6-.8-2.9-1.9-4-3.4-1-1.4-1.8-3.1-2.3-4.9s-.7-3.8-.7-5.8.2-4.2.8-6.1c.6-1.9,1.4-3.5,2.4-4.9,1.1-1.4,2.4-2.5,4.1-3.2,1.6-.8,3.5-1.3,5.7-1.3s2.4.1,3.5.5,2.2.8,3.2,1.4c1,.6,1.8,1.4,2.5,2.3.7.9,1.3,1.9,1.6,3.1h.1v-18.1h2.2v40.9h-2.2v-6.3.2ZM283.3,144.1c1.8,0,3.4-.3,4.8-1.1s2.5-1.7,3.4-3.1c.9-1.3,1.6-2.7,2.1-4.4.5-1.6.7-3.3.7-4.9s-.2-3.4-.7-5-1.1-3.1-1.9-4.4c-.9-1.3-2.1-2.3-3.4-3.1s-3-1.1-4.9-1.1-3.5.3-4.9,1.1-2.5,1.7-3.4,3-1.6,2.7-1.9,4.4c-.5,1.6-.6,3.3-.6,5s.2,3.4.7,5c.5,1.6,1.1,3.1,2.1,4.4s2.1,2.3,3.4,3c1.4.8,3,1.1,4.9,1.1h-.2Z"/>
  <path d="M303.3,116h2.2v6.3h0c.3-1.1.9-2.1,1.6-3,.7-.9,1.5-1.6,2.4-2.2.9-.6,1.9-1,3.1-1.4,1.1-.3,2.3-.5,3.4-.5,1.7,0,3.2.2,4.4.7s2.2.9,3,1.6,1.4,1.5,1.8,2.3c.5.9.8,1.7.9,2.6.2.9.3,1.7.3,2.5v20.4h-2.2v-18.5c0-.7,0-1.6-.1-2.7s-.5-2.2-1-3.2-1.4-1.8-2.5-2.6c-1.1-.7-2.6-1-4.7-1s-3.2.3-4.5.9-2.4,1.5-3.3,2.5c-.9,1-1.6,2.4-2.1,3.9s-.7,3.2-.7,4.9v15.9h-2.2v-29.4h.1Z"/>
  <path d="M333.5,110.4v-6h2.2v6h-2.2ZM333.5,145.4v-29.4h2.2v29.4h-2.2Z"/>
  <path d="M343.6,135.5c0,1.4.3,2.6.9,3.7s1.3,1.9,2.1,2.6,1.8,1.3,3,1.7c1.1.3,2.4.6,3.7.6s1.9,0,3.1-.2,2.1-.5,3-.9,1.7-1.1,2.3-1.9.9-1.8.9-3.1-.5-2.9-1.5-3.7-2.3-1.5-3.8-1.9c-1.5-.5-3.1-.8-4.8-1.1s-3.3-.7-4.8-1.3-2.7-1.4-3.8-2.4-1.5-2.6-1.5-4.6.3-2.6.9-3.7c.7-1,1.5-1.7,2.5-2.3,1-.6,2.2-1,3.4-1.3s2.5-.3,3.8-.3,3,.2,4.4.6c1.4.3,2.5.9,3.4,1.7,1,.8,1.7,1.7,2.3,2.9s.8,2.6.8,4.4h-2.2c0-1.4-.2-2.5-.7-3.4s-1-1.7-1.8-2.3-1.7-1-2.7-1.4c-1-.2-2.2-.5-3.4-.5s-1.9,0-3,.2-1.9.5-2.7.9-1.5,1-1.9,1.8c-.5.7-.8,1.6-.8,2.6s.2,2.2.9,2.9c.6.7,1.4,1.3,2.3,1.7s1.9.8,3.2,1c1.1.2,2.3.6,3.5.8,1.5.2,2.9.6,4.1.9s2.4.9,3.3,1.5c.9.7,1.7,1.5,2.2,2.4.6,1,.8,2.3.8,3.8s-.3,2.9-1.1,3.9c-.7,1-1.6,1.8-2.7,2.5-1.1.6-2.3,1-3.7,1.3-1.4.2-2.6.3-4,.3s-3.2-.2-4.7-.7-2.6-1.1-3.8-2.1c-1-.9-1.9-1.9-2.5-3.3-.6-1.3-.9-2.9-.9-4.6h2.2v.2ZM352.2,111.6l-6.6-8h2.2l5.5,6.6,5.6-6.6h2.2l-6.6,8h-2.3.1Z"/>
  <path d="M380.9,117.8h-6.4v20.6c0,1.1.1,2.2.3,2.9s.7,1.3,1.3,1.6c.6.3,1.3.6,2.1.7h2.7v1.9h-3.2c-1,0-1.9-.3-2.7-.9-.8-.5-1.5-1.1-1.9-2.2-.5-.9-.7-2.3-.6-4v-20.6h-5.5v-1.9h5.5v-9.2h2.2v9.2h6.4v1.9h-.1Z"/>
  <path d="M396.1,145.4h-2.7l-11.8-29.4h2.5l10.6,26.9h0l10-26.9h2.4l-11.1,29.4h.1Z"/>
  <path d="M429.9,139.5h-.1c-.3.9-.8,1.7-1.5,2.5-.7.8-1.5,1.5-2.4,2.1-.9.6-1.9,1.1-3.2,1.4-1.1.3-2.5.6-3.9.6-3.1,0-5.5-.7-7.2-2.1s-2.5-3.4-2.5-6.3.3-3.1,1-4.2c.7-1,1.6-1.9,2.6-2.5s2.2-1,3.4-1.4c1.3-.2,2.5-.5,3.7-.6l3.4-.2c1.6-.1,2.7-.3,3.7-.6.9-.2,1.6-.6,2.1-1s.8-1,.9-1.7c.1-.7.2-1.6.2-2.5s-.1-1.6-.5-2.3-.8-1.3-1.4-1.8c-.7-.6-1.5-.9-2.5-1.3-1-.3-2.3-.5-3.8-.5-2.6,0-4.8.7-6.4,1.9s-2.5,3.3-2.6,6h-2.2c.1-3.2,1.1-5.7,3.1-7.3s4.7-2.4,8.2-2.4,6.2.7,7.8,2.1c1.6,1.4,2.4,3.2,2.4,5.5v18.4c0,.5,0,.8.2,1.1,0,.3.3.6.6.8s.7.3,1.1.3.9,0,1.6-.2v1.8c-.6.1-1.1.2-1.8.2s-1.6-.1-2.1-.3c-.6-.2-.9-.6-1.1-.9s-.5-.8-.6-1.4c0-.6-.1-1-.1-1.7v-1.6h-.2ZM429.9,128.7c-.6.7-1.4,1.1-2.4,1.3-1.1.2-2.3.5-3.7.6l-3.7.3c-1,.1-2.2.2-3.2.5s-2.1.6-2.9,1c-.9.5-1.6,1.1-2.1,2.1s-.8,1.9-.8,3.3c0,2.2.7,3.8,2.1,4.8,1.4,1,3.3,1.6,5.7,1.6s4.5-.5,6-1.4c1.5-.9,2.5-1.9,3.3-3.1.8-1.1,1.3-2.3,1.5-3.3.2-1.1.3-1.8.3-2.2v-5.5h-.2Z"/>
</svg>