<?xml version="1.0" encoding="UTF-8"?>
<svg id="Layer_1" xmlns="http://www.w3.org/2000/svg" version="1.1" viewBox="0 0 443 167.3">
  <!-- Generator: Adobe Illustrator 29.3.1, SVG Export Plug-In . SVG Version: 2.1.0 Build 151)  -->
  <path d="M11,62l.7-35.5,2.2.2-.8,35.4c0,2.7.5,4.7,1.6,6.3,1.2,1.6,2.7,2.3,4.7,2.3s.2.2.2.4,0,.4-.2.4H4.2c-1.1,0-.2-.2-.2-.4s0-.4.2-.4c2.1,0,3.7-.7,4.9-2.3,1.2-1.6,1.8-3.7,1.9-6.3ZM64.5,70.5c0,0,.2.2.2.4s0,.4-.2.4h-19c-1.2,0-.2-.2-.2-.4s0-.4.2-.4c2.3,0,3.8-.3,4.5-1,.7-.7.9-2.1.7-4.2l-1.7-33.2,3.8-6-19.1,44.8c0,.2-.2.3-.6.3s-.5,0-.7-.3L11.6,30.9c-1.9-3.6-4.2-5.3-6.8-5.3s-.2-.2-.2-.4,0-.4.2-.4h11.9c.5,0,1.2.2,1.6.7.4.5,1,1.6,1.8,3.2l16.8,31.4-3.7,6.7,17.5-40.2c.3-.7.6-1.2.9-1.5.3-.2.7-.4,1.3-.4h10.9c1.1,0,.2.2.2.4s0,.4-.2.4c-2.3,0-4,.5-5.1,1.4-1.1.9-1.6,2.4-1.5,4.4l1.8,34c0,1.4.2,2.6.6,3.3.2.7.7,1.2,1.5,1.5s1.9.4,3.4.4h0Z"/>
  <path d="M69.3,71.4c-.2,0-.2-.2-.2-.4s0-.4.2-.4c1.6,0,2.6-.3,3.2-1.1.6-.7.8-2.1.8-4.1v-13.4c0-1.7-.2-2.8-.5-3.7-.3-.7-.9-1.2-1.7-1.2s-.7,0-1.2.2c-.5.2-1,.3-1.5.6-.2,0-.3,0-.5-.3s0-.5,0-.5l11.3-5.2h.2c.2,0,.5.2.7.4s.4.5.4.7v22.5c0,2,.2,3.3.8,4.1s1.7,1.1,3.2,1.1.2.2.2.4,0,.4-.2.4h-15l-.2-.2ZM76.4,34.4c-1.4,0-2.5-.4-3.3-1.2-.8-.8-1.2-1.9-1.2-3.4s.4-2.3,1.2-3.1c.8-.7,1.9-1.2,3.3-1.2s2.5.4,3.2,1.2,1.2,1.8,1.2,3.1c0,3.1-1.4,4.6-4.3,4.6h0Z"/>
  <path d="M88.9,71.4c-.2,0-.2-.2-.2-.4s0-.4.2-.4c1.6,0,2.6-.3,3.2-1.1.6-.7.8-2.1.8-4.1v-14c0-1.6-.2-2.7-.5-3.4-.3-.7-.9-1.1-1.8-1.1s-1,0-1.6.2c-.6.2-1.2.4-2,.7-.2,0-.3,0-.4-.3s0-.5,0-.5l10.4-5.1c.3,0,.5-.2.5-.2.6,0,1.1.6,1.7,1.8.6,1.2.8,2.9.8,5.1v16.6c0,2,.2,3.3.8,4.1s1.7,1.1,3.2,1.1.2.2.2.4,0,.4-.2.4h-11.6c-1.3,0-2.4,0-3.4,0ZM109,71.4c-.2,0-.2-.2-.2-.4s0-.4.2-.4c1.6,0,2.6-.3,3.2-1.1s.8-2.1.8-4.1v-10.8c0-2.7-.5-4.6-1.5-6-1-1.3-2.5-1.9-4.6-1.9s-3,.4-4.6,1.2-2.8,1.7-3.7,3.1l-.3-.9c1.7-2.5,3.7-4.5,5.9-6s4.6-2.2,7.1-2.2,5,.9,6.5,2.7c1.5,1.7,2.2,4,2.2,6.7v14.4c0,2,.2,3.3.8,4.1s1.7,1.1,3.2,1.1.2.2.2.4,0,.4-.2.4h-15v-.2Z"/>
  <path d="M128.2,71.4c-.2,0-.2-.2-.2-.4s0-.4.2-.4c1.6,0,2.6-.3,3.2-1.1s.8-2.1.8-4.1v-13.4c0-1.7-.2-2.8-.5-3.7-.3-.7-.9-1.2-1.7-1.2s-.7,0-1.2.2c-.5.2-1,.3-1.5.6-.2,0-.3,0-.5-.3-.2-.3,0-.5,0-.5l11.3-5.2h.2c.2,0,.5.2.7.4.2.2.4.5.4.7v22.5c0,2,.2,3.3.8,4.1s1.7,1.1,3.2,1.1.2.2.2.4,0,.4-.2.4h-15l-.2-.2ZM135.4,34.4c-1.4,0-2.5-.4-3.3-1.2-.8-.8-1.2-1.9-1.2-3.4s.4-2.3,1.2-3.1c.8-.7,1.9-1.2,3.3-1.2s2.5.4,3.2,1.2,1.2,1.8,1.2,3.1c0,3.1-1.4,4.6-4.3,4.6h0Z"/>
  <path d="M148.3,71.1c-.2,0-.2-.2-.2-.4s0-.4.2-.4c1.6,0,2.6-.3,3.2-1.1.6-.7.8-2.1.8-4.1v-14c0-1.6-.2-2.7-.5-3.4-.3-.7-.9-1.1-1.8-1.1s-1,0-1.6.2c-.6.2-1.2.4-2,.7-.2,0-.3,0-.4-.3s0-.5,0-.5l10.4-5.1c.3,0,.5-.2.5-.2.6,0,1.1.6,1.7,1.8.6,1.2.8,2.9.8,5.1v16.6c0,2,.2,3.3.8,4.1s1.7,1.1,3.2,1.1.2.2.2.4,0,.4-.2.4h-15,0ZM167.5,71.1c-.2,0-.2-.2-.2-.4s0-.4.2-.4c1.6,0,2.6-.3,3.2-1.1.6-.7.8-2.1.8-4.1v-10.8c0-5.3-1.9-7.9-5.6-7.9s-3.1.4-4.5,1.2c-1.4.7-2.7,1.7-3.5,3.1l-.3-.9c1.7-2.5,3.6-4.5,5.7-6,2.2-1.5,4.4-2.2,6.9-2.2s4.6.7,6.1,2.2c1.4,1.4,2.2,3.6,2.2,6.4v15.2c0,2,.2,3.3.8,4.1s1.7,1.1,3.2,1.1.3.2.3.4,0,.4-.3.4h-15v-.2ZM187.1,71.1c-.2,0-.2-.2-.2-.4s0-.4.2-.4c1.6,0,2.6-.3,3.2-1.1.6-.7.8-2.1.8-4.1v-10.8c0-5.3-1.9-7.9-5.6-7.9s-3.1.4-4.5,1.2-2.7,1.7-3.5,3.1l-.4-.9c1.7-2.5,3.6-4.5,5.7-6,2.2-1.5,4.4-2.2,6.9-2.2s4.6.7,6.1,2.2c1.4,1.5,2.2,3.9,2.2,7.1v14.4c0,2,.2,3.3.8,4.1s1.7,1.1,3.2,1.1.3.2.3.4,0,.4-.3.4h-15,.2Z"/>
  <path d="M211.7,71.7c-1.6,0-2.8-.4-3.7-1.2s-1.4-2-1.4-3.6.7-3.1,2.1-3.8c1.4-.7,3.5-1.7,6.4-2.6l8.4-2.7.3,1.2-5.1,1.9c-1.3.5-2.3,1.1-2.9,1.7s-.8,1.3-.8,2.2.3,1.9.9,2.5,1.3.9,2.2.9.9,0,1.6-.2,1.4-.4,2.2-.7l4.2-2.2v1.2l-6.4,3.5c-1.2.7-2.6,1.2-4,1.6-1.4.4-2.7.7-3.8.7v-.2ZM227.4,71.6c-.2,0-.4.2-.7.2-.9,0-1.8-.6-2.7-1.8-.9-1.2-1.3-2.9-1.3-5.1v-12.7c0-1.9-.2-3.6-.4-4.9s-.7-2.2-1.2-2.9c-.6-.7-1.3-1-2.2-1s-1.4.2-2,.6-1.1,1-1.4,1.8c-.3.8-.6,2-.7,3.4-.2,1.4-.6,2.5-1.3,3.2s-1.7,1-3.1,1-2.2-.2-2.7-.8c-.6-.6-.8-1.3-.8-2.2s.5-2.2,1.6-3.2c1.1-1,2.3-1.9,3.9-2.7,1.6-.8,3.2-1.5,4.9-1.9,1.7-.5,3.2-.7,4.6-.7,2.2,0,4.1.7,5.6,2s2.3,3.4,2.3,6.2v13.2c0,1.4.2,2.6.7,3.4s1.2,1.2,2.2,1.2,1.4-.2,2.2-.5c.2,0,.3,0,.5.2,0,.2,0,.5-.2.6l-7.7,3.7h-.2Z"/>
  <path d="M237.6,71.1c0,0-.2-.2-.2-.4s0-.4.2-.4c1.6,0,2.6-.3,3.2-1.1.6-.7.8-2.1.8-4.1V27.2c0-1.7,0-2.9-.4-3.7-.3-.7-.9-1.2-1.7-1.2s-1.6.2-2.8.8c-.2,0-.3,0-.4-.4-.2-.3-.2-.5,0-.5l11-5.1h.3c.2,0,.5,0,.8.3s.4.4.4.7v47.2c0,2,.2,3.3.8,4.1.6.7,1.6,1.1,3.2,1.1s.3.2.3.4,0,.4-.3.4h-15.1Z"/>
  <path d="M257.9,71.1c-.2,0-.2-.2-.2-.4s0-.4.2-.4c1.6,0,2.6-.3,3.2-1.1.6-.7.8-2.1.8-4.1v-13.4c0-1.7-.2-2.8-.5-3.7-.3-.7-.9-1.2-1.7-1.2s-.7,0-1.2.2c-.5.2-1,.3-1.5.6-.2,0-.3,0-.5-.3-.2-.3,0-.5,0-.5l11.3-5.2h.2c.2,0,.5.2.7.4.2.2.4.5.4.7v22.5c0,2,.2,3.3.8,4.1s1.7,1.1,3.2,1.1.2.2.2.4,0,.4-.2.4h-15l-.2-.2ZM265.2,34.2c-1.4,0-2.5-.4-3.3-1.2-.8-.8-1.2-1.9-1.2-3.4s.4-2.3,1.2-3.1c.8-.7,1.9-1.2,3.3-1.2s2.5.4,3.2,1.2,1.2,1.8,1.2,3.1c0,3.1-1.4,4.6-4.3,4.6h0Z"/>
  <path d="M283.5,45.9c0,1.1.2,2,.8,2.8s1.3,1.6,2.2,2.2c.9.7,1.9,1.3,2.9,2,1.2.7,2.5,1.4,3.7,2.2,1.2.7,2.2,1.7,3,2.8.8,1.1,1.2,2.5,1.2,4.2s-.4,3.2-1.2,4.6-2.1,2.7-3.7,3.7c-1.7.9-3.7,1.4-6.2,1.4s-2.5-.2-3.7-.4-2.6-.8-4.1-1.6c0,0-.2-.2-.3-.4,0-.2-.2-.3-.2-.5l-.2-7.4c0-.2.2-.2.4-.2s.4,0,.5,0c.6,1.6,1.3,3.1,2.3,4.5s2.2,2.5,3.4,3.3,2.6,1.2,3.8,1.2,1.8-.3,2.5-.9c.7-.7,1-1.6,1-2.9s-.3-2.6-.9-3.5c-.7-.9-1.4-1.7-2.3-2.4-.9-.7-1.9-1.2-2.9-1.8-1.2-.7-2.3-1.3-3.4-2-1.2-.7-2.1-1.6-2.8-2.7s-1.2-2.5-1.2-4.2.5-3.7,1.6-5c1.1-1.2,2.4-2.2,4.1-2.7,1.7-.6,3.4-.8,5.2-.8s2.1,0,3,.2c.9.2,2,.4,3.2.9.4.2.7.4.7.8v6.6c0,1.3-.2.2-.4.2s-.4,0-.4-.2c0-.9-.4-2-1.2-3.1-.7-1.1-1.7-2.1-3-2.9s-2.6-1.2-4.1-1.2-1.4.2-2.1.5-1,1.2-1,2.4v-.2Z"/>
  <path d="M313.6,72c-1.2,0-2.4-.2-3.7-.6s-2.2-1.1-3.1-2.1-1.2-2.4-1.2-4.2v-16.6c0-1.1-.2-1.9-.4-2.5s-.7-1-1.2-1.2c-.6-.2-1.3-.4-2.2-.4s-.3-.2-.3-.7,0-.7.3-.7c2.6,0,4.6-.7,6.2-1.7s2.8-2.5,3.6-4.5c0-.2.3-.3.7-.3s.5,0,.5.3v25.8c0,2,.5,3.4,1.5,4.2s2.2,1.2,3.7,1.2,2.2-.2,3.2-.7c1-.5,1.9-1,2.6-1.5.2-.2.3,0,.6,0s.2.4,0,.6c-1.8,1.8-3.7,3.2-5.3,4.1-1.7.8-3.6,1.3-5.6,1.3h0ZM322.3,46.1c-2.1-.4-4-.7-6-.9-1.9-.2-4-.2-6.1-.2v-1.9c2.1,0,4.1,0,6-.2,2-.2,4.1-.3,6.3-.5,0,0,.2.2.3.6,0,.4.2.7.2,1.2s0,1-.2,1.5c-.2.5-.3.7-.6.7v-.2Z"/>
  <path d="M327.9,71.1c-.2,0-.2-.2-.2-.4s0-.4.2-.4c1.6,0,2.6-.3,3.2-1.1.6-.7.8-2.1.8-4.1v-13.4c0-1.7-.2-2.8-.5-3.7-.3-.7-.9-1.2-1.7-1.2s-.7,0-1.2.2c-.5.2-1,.3-1.5.6-.2,0-.3,0-.5-.3-.2-.3,0-.5,0-.5l11.3-5.2h.2c.2,0,.5.2.7.4.2.2.4.5.4.7v22.5c0,2,.2,3.3.8,4.1s1.7,1.1,3.2,1.1.2.2.2.4,0,.4-.2.4h-15l-.2-.2ZM335.2,34.2c-1.4,0-2.5-.4-3.3-1.2-.8-.8-1.2-1.9-1.2-3.4s.4-2.3,1.2-3.1c.8-.7,1.9-1.2,3.3-1.2s2.5.4,3.2,1.2,1.2,1.8,1.2,3.1c0,3.1-1.4,4.6-4.3,4.6h0Z"/>
  <path d="M362.2,72c-3.4,0-6.3-.7-8.6-2.2s-3.9-3.3-5-5.6-1.6-4.6-1.6-7,.5-4.7,1.6-6.6c1.1-1.9,2.4-3.6,4.2-4.9s3.7-2.3,5.7-3c2.1-.7,4.2-1.1,6.2-1.1s2.9.2,4.3.7,2.7,1.1,3.6,1.9,1.4,1.8,1.4,3.1-.3,1.7-1.1,2.3c-.7.7-1.7,1.1-3.1,1.1s-2.2-.3-2.9-1-1.2-1.6-1.7-2.8c-.3-1.2-.7-2.1-1.2-2.7s-1.2-.9-2.4-.9c-2.2,0-3.8,1.1-5.1,3.2-1.2,2.2-1.9,4.9-1.9,8.4s.3,4.7,1.2,6.8c.7,2.1,2,3.7,3.7,4.9,1.7,1.2,4,1.8,6.8,1.8s2.7-.2,3.7-.5c1-.3,2.2-.8,3.4-1.4,0,0,.2,0,.4.2s.2.3,0,.4c-1.7,1.6-3.6,2.8-5.4,3.7-1.8.8-4,1.3-6.5,1.3h0ZM357.2,16.8c0-.2,0-.2.3-.3h.5l5.1,8.1,5.1-8.1c0,0,.2,0,.5,0,.2,0,.3.2.2.3l-5,18.6c0,.2-.3.4-.8.4s-.8,0-.9-.4l-5.1-18.6Z"/>
  <path d="M378,71.1c0,0-.2-.2-.2-.4s0-.4.2-.4c1.6,0,2.6-.3,3.2-1.1.6-.7.8-2.1.8-4.1V27.2c0-1.7-.2-2.9-.4-3.7-.3-.7-.9-1.2-1.7-1.2s-1.7.2-2.8.8c-.2,0-.3,0-.4-.4-.2-.3-.2-.5,0-.5l10.9-5.1h.3c.2,0,.5,0,.7.3s.4.4.4.7v47.2c0,2,.2,3.3.8,4.1s1.7,1.1,3.2,1.1.3.2.3.4,0,.4-.3.4h-15,0ZM386.3,60l-.4-1.2,10.1-9.7c1.4-1.3,2-2.6,1.9-3.9-.2-1.3-1.1-2-2.8-2s-.2-.2-.2-.4,0-.4.2-.4h17.6c1.1,0,.2.2.2.4s0,.4-.2.4c-1.2,0-2.7.2-4.5.7s-3.5,1.1-5.2,2c-1.8.9-3.5,2.2-5.1,3.7l-11.6,10.5h0ZM396.8,71.1c-.2,0-.2-.2-.2-.4s0-.4.2-.4c1.3,0,2.2-.3,2.6-.9.3-.6.2-1.3-.4-2.2l-9-11.6,5.1-3.9,10.5,13.4c1.4,1.8,2.8,3.2,4.2,4s2.7,1.2,4,1.2.2.2.2.4,0,.4-.2.4h-16.8Z"/>
  <path d="M416.1,71.1c-.2,0-.2-.2-.2-.4s0-.4.2-.4c1.6,0,2.6-.3,3.2-1.1.6-.7.8-2.1.8-4.1v-13.4c0-1.7-.2-2.8-.5-3.7-.3-.7-.9-1.2-1.7-1.2s-.7,0-1.2.2c-.5.2-1,.3-1.5.6-.2,0-.3,0-.5-.3s0-.5,0-.5l11.3-5.2h.2c.2,0,.5.2.7.4s.4.5.4.7v22.5c0,2,.2,3.3.8,4.1s1.7,1.1,3.2,1.1.2.2.2.4,0,.4-.2.4h-15l-.2-.2ZM423.2,34.2c-1.4,0-2.5-.4-3.3-1.2-.8-.8-1.2-1.9-1.2-3.4s.4-2.3,1.2-3.1c.8-.7,1.9-1.2,3.3-1.2s2.5.4,3.2,1.2,1.2,1.8,1.2,3.1c0,3.1-1.4,4.6-4.3,4.6h0Z"/>
  <path d="M17.1,138.2c.1,2.2.6,4.1,1.4,5.7.8,1.7,1.9,3.1,3.3,4.2,1.4,1.2,2.9,2.1,4.7,2.7,1.8.6,3.8.9,5.9.9s3.1-.1,4.8-.4,3.3-.8,4.8-1.5,2.7-1.7,3.6-3c1-1.3,1.4-2.9,1.4-4.9s-.8-4.5-2.3-5.9c-1.6-1.3-3.5-2.3-5.9-3.1-2.4-.7-4.9-1.3-7.7-1.8-2.7-.5-5.3-1.1-7.7-2-2.4-.9-4.3-2.2-5.9-3.8-1.6-1.7-2.3-4.1-2.3-7.2s.5-4.2,1.5-5.7,2.3-2.7,3.9-3.6,3.4-1.5,5.4-1.9,4-.6,5.9-.6,4.7.3,6.8.8c2.1.5,3.9,1.4,5.4,2.6s2.7,2.7,3.6,4.6,1.3,4.1,1.3,6.8h-3.4c0-2.1-.3-3.9-1-5.4s-1.7-2.7-2.9-3.6c-1.2-.9-2.7-1.6-4.4-2.1-1.7-.5-3.5-.7-5.4-.7s-3.1.2-4.7.4c-1.6.3-3,.8-4.3,1.5s-2.3,1.7-3.1,2.8c-.8,1.1-1.2,2.5-1.2,4.1s.4,3.4,1.4,4.5c.9,1.1,2.1,2.1,3.6,2.7,1.5.7,3.1,1.2,5,1.7,1.8.4,3.7.8,5.5,1.3,2.3.4,4.4.9,6.4,1.5s3.8,1.4,5.2,2.3,2.6,2.3,3.5,3.8c.8,1.6,1.3,3.5,1.3,5.9s-.6,4.6-1.7,6.2c-1.1,1.6-2.6,2.9-4.3,3.9-1.7,1-3.7,1.7-5.8,2.1-2.1.4-4.2.6-6.3.6s-5.1-.3-7.3-1c-2.3-.7-4.2-1.7-5.9-3.2-1.7-1.4-3-3.1-4-5.2-1-2-1.5-4.4-1.5-7.1h3.4Z"/>
  <path d="M75.8,110.3h-10.1v32.3c0,1.9.2,3.3.6,4.4.4,1.1,1.1,1.9,1.9,2.5.9.6,1.9.9,3.2,1,1.2.1,2.7.2,4.3,0v3c-1.7.1-3.4.1-5.1,0s-3.1-.6-4.4-1.4c-1.3-.8-2.3-1.9-3-3.4-.8-1.5-1.1-3.6-.9-6.2v-32.3h-8.6v-3h8.6v-14.4h3.4v14.4h10.1v3h0Z"/>
  <path d="M83,98.6v-9.3h3.4v9.3h-3.4ZM83,153.6v-46.3h3.4v46.3h-3.4Z"/>
  <path d="M101.5,89.3v64.3h-3.4v-64.3h3.4Z"/>
</svg>