<?xml version="1.0" encoding="UTF-8"?>
<svg id="Layer_1" xmlns="http://www.w3.org/2000/svg" version="1.1" viewBox="0 0 443 349.5">
  <!-- Generator: Adobe Illustrator 29.3.1, SVG Export Plug-In . SVG Version: 2.1.0 Build 151)  -->
  <path d="M18.9,20.3c0,2.3.6,4.3,1.8,6s2.7,3.3,4.6,4.6c1.9,1.4,3.9,2.8,6,4.1,2.3,1.4,4.5,3,6.5,4.5,2.1,1.6,3.8,3.4,5.1,5.5,1.4,2.1,2,4.5,2,7.4s-.9,6-2.6,8.4c-1.7,2.4-4,4.3-6.9,5.6-2.9,1.3-6.2,2-9.9,2s-3.7-.2-5.6-.5c-2-.4-3.7-.8-5.3-1.4-1.6-.5-2.7-1.1-3.5-1.7-.2-.2-.5-.4-.6-.6-.2-.2-.3-.6-.3-1.1l-.3-14.3c0-.3,0-.5.4-.5.3,0,.5,0,.6.3.9,1.9,1.9,3.8,3,5.9,1.1,2.1,2.3,4,3.6,5.7,1.4,1.7,2.9,3.2,4.5,4.3,1.7,1.1,3.6,1.7,5.8,1.7s2.7-.2,4-.7c1.3-.5,2.3-1.4,3.1-2.6.8-1.3,1.2-3,1.2-5.2s-.6-5.2-1.9-7.2c-1.3-2-2.9-3.8-4.9-5.3-2-1.5-4.1-3-6.2-4.4-2.1-1.4-4.1-2.8-6-4.3-1.9-1.5-3.5-3.1-4.7-5-1.2-1.9-1.8-4.2-1.8-6.8s.9-6.1,2.8-8.2c1.9-2.1,4.3-3.7,7.2-4.7,2.9-1,5.9-1.5,8.9-1.5s4.3.2,6.5.6c2.2.4,3.9.9,5.1,1.4.6.2,1,.5,1.1.8.1.3.2.6.2,1v13.2c0,.2-.1.3-.4.4-.3,0-.5,0-.6-.1-.4-.7-.9-1.9-1.5-3.6-.7-1.6-1.5-3.4-2.6-5.2-1.1-1.8-2.5-3.3-4.1-4.6-1.7-1.3-3.7-1.9-6.1-1.9s-2.9.3-4.1.9c-1.2.6-2.2,1.5-3,2.7-.8,1.2-1.1,2.7-1.1,4.5Z"/>
  <path d="M66.9,68.6c-3.3,0-5.9-1.1-7.8-3.1-1.9-2.1-2.8-4.8-2.8-8.1v-13.2c0-2-.2-3.4-.7-4.4-.4-1-1.2-1.4-2.1-1.4s-1.4.2-2.2.6c-.2,0-.4,0-.6-.4-.2-.4-.1-.6,0-.6l12.1-5.8c.2,0,.3,0,.4,0,.3,0,.6.1.9.4.3.3.5.5.5.8v19.9c0,3.2.6,5.7,1.8,7.3,1.2,1.6,3.1,2.4,5.6,2.4s3.5-.5,5.2-1.5c1.7-1,3.1-2.2,4.1-3.7l.5,1.1c-2,2.9-4.3,5.3-6.8,7.2s-5.3,2.8-8.3,2.8ZM88.1,33.1v23.9c0,2,.2,3.5.6,4.3.4.8,1,1.3,1.9,1.3s.9,0,1.6-.3c.6-.2,1.3-.4,2.1-.7.2-.1.5,0,.6.3.2.3.2.6,0,.7l-12.4,6c-.1,0-.3,0-.4,0-.6,0-1.1-.8-1.6-2.2-.5-1.5-.7-3.6-.7-6.4v-16c0-2-.2-3.4-.7-4.4-.5-1-1.2-1.4-2.1-1.4s-1.4.2-2.3.6c-.2,0-.3,0-.5-.4-.2-.4-.1-.6,0-.6l12.1-5.8c.1,0,.3,0,.5,0,.3,0,.6.1.9.4.3.3.5.5.5.8Z"/>
  <path d="M135.9,32.7c.1,0,.2.2.2.5s0,.5-.2.5c-1.7,0-3.3.7-4.6,2-1.4,1.3-2.6,3.4-3.8,6.1l-11.1,25.6c-.1.3-.4.5-.9.5s-.9-.2-1-.5l-13.8-27.3c-1.3-2.8-2.5-4.5-3.4-5.3-1-.7-2.1-1.1-3.4-1.1s-.3-.2-.3-.5,0-.5.3-.5c1,0,2.2,0,3.5,0,1.3,0,3,0,5.3,0s4.6,0,6.3,0c1.7,0,3.4,0,4.9,0s.3.2.3.5,0,.5-.3.5c-1.9,0-3.3.2-4.3.7-1,.5-1.2,1.4-.5,2.8l10.8,20.3-4.6,7.9,9.8-23.8c1-2.5,1-4.4,0-5.9-1-1.4-2.7-2.2-5.1-2.2s-.2-.2-.2-.5,0-.5.2-.5c1.4,0,2.8,0,4.1,0,1.3,0,3,0,5,0s2.6,0,3.6,0c.9,0,2.1,0,3.4,0Z"/>
  <path d="M138.2,67.5c-.2,0-.3-.2-.3-.5s0-.5.3-.5c1.9,0,3.1-.4,3.8-1.3.7-.9,1-2.5,1-4.9v-16.9c0-1.9-.2-3.2-.6-4.1-.4-.9-1.1-1.3-2.2-1.3s-1.2.1-1.9.3c-.7.2-1.5.5-2.4.9-.2.1-.4,0-.5-.4-.1-.4-.1-.6,0-.6l12.5-6.1c.4-.1.6-.2.6-.2.7,0,1.3.7,2,2.2.7,1.4,1,3.5,1,6.2v20c0,1.6.2,2.8.7,3.7.5.9,1.3,1.6,2.5,1.9,1.2.4,2.8.5,4.8.5s.4.2.4.5-.1.5-.4.5c-1.6,0-3.5,0-5.5,0-2.1,0-4.3,0-6.7,0s-3.3,0-4.9,0c-1.6,0-2.9,0-4.1,0ZM149.1,43.1l-.7-1.2c2.3-2.7,4.3-4.8,5.9-6.2s3-2.4,4.1-3c1.1-.6,2.2-.9,3.1-.9s2.6.5,3.9,1.4c1.3.9,2,2.1,2,3.6s-.4,2.3-1.1,3.1c-.8.8-1.8,1.2-3.1,1.2s-2.2-.3-2.8-1c-.6-.7-1.2-1.3-1.7-1.9-.5-.6-1.2-.9-2.2-.9s-.9.1-1.4.4c-.5.3-1.2.8-2.2,1.6-.9.8-2.2,2.1-3.8,3.7Z"/>
  <path d="M189.9,68.6c-3.9,0-7.2-.8-9.9-2.4-2.7-1.6-4.8-3.8-6.2-6.4-1.4-2.7-2.1-5.5-2.1-8.5s.9-6.8,2.7-9.7c1.8-2.9,4.2-5.2,7.3-7,3.1-1.7,6.6-2.6,10.5-2.6s6.6.8,8.6,2.4c2,1.6,3,3.8,3,6.5s0,1.3-.2,1.8c-.1.5-.4.8-.8.8h-8.6c.1-2.8-.2-5.1-1-7-.8-1.8-2.2-2.7-4.2-2.7s-4.4,1.2-5.8,3.7c-1.5,2.5-2.2,5.8-2.2,9.9s.5,6.3,1.6,8.8,2.6,4.5,4.7,5.9c2,1.4,4.5,2.1,7.4,2.1s3-.2,4.6-.6c1.6-.4,3.1-1,4.5-1.9.1-.1.3,0,.5.2.2.2.3.4.1.6-2.2,2.2-4.5,3.8-6.8,4.7-2.3.9-4.8,1.4-7.4,1.4ZM177.6,43.6v-1.7c0,0,19.6-.4,19.6-.4v2l-19.6.2Z"/>
  <path d="M209.9,67.5c-.2,0-.3-.2-.3-.5s0-.5.3-.5c1.9,0,3.1-.4,3.8-1.3.7-.9,1-2.5,1-4.9v-16.9c0-1.9-.2-3.2-.6-4.1-.4-.9-1.1-1.3-2.2-1.3s-1.2.1-1.9.3c-.7.2-1.5.5-2.4.9-.2.1-.4,0-.5-.4-.1-.4-.1-.6,0-.6l12.5-6.1c.4-.1.6-.2.6-.2.7,0,1.3.7,2,2.2.7,1.4,1,3.5,1,6.2v20c0,2.4.3,4,1,4.9.7.9,2,1.3,3.8,1.3s.3.2.3.5,0,.5-.3.5c-1.2,0-2.6,0-4.1,0-1.6,0-3.2,0-5,0s-3.3,0-4.9,0c-1.6,0-2.9,0-4.1,0ZM233,67.5c-.2,0-.3-.2-.3-.5s0-.5.3-.5c1.9,0,3.1-.4,3.8-1.3.7-.9,1-2.5,1-4.9v-13c0-6.4-2.2-9.5-6.8-9.5s-3.7.5-5.4,1.4c-1.7.9-3.2,2.1-4.2,3.7l-.5-1.1c2-3,4.3-5.4,6.9-7.2,2.5-1.8,5.3-2.7,8.3-2.7s5.6.9,7.4,2.6c1.7,1.7,2.6,4.3,2.6,7.6v18.3c0,2.4.3,4,1,4.9.7.9,2,1.3,3.8,1.3s.4.2.4.5-.1.5-.4.5c-1.2,0-2.6,0-4.1,0-1.6,0-3.2,0-5,0s-3.3,0-4.9,0c-1.6,0-2.9,0-4.1,0ZM256.6,67.5c-.2,0-.3-.2-.3-.5s0-.5.3-.5c1.9,0,3.1-.4,3.8-1.3.7-.9,1-2.5,1-4.9v-13c0-6.4-2.2-9.5-6.8-9.5s-3.7.5-5.4,1.4c-1.7.9-3.2,2.1-4.2,3.7l-.5-1.1c2-3,4.3-5.4,6.9-7.2,2.5-1.8,5.3-2.7,8.3-2.7s5.6.9,7.4,2.7c1.7,1.8,2.6,4.7,2.6,8.5v17.3c0,2.4.3,4,1,4.9.7.9,2,1.3,3.8,1.3s.4.2.4.5-.1.5-.4.5c-1.2,0-2.6,0-4.1,0-1.6,0-3.2,0-5,0s-3.3,0-4.9,0c-1.6,0-2.9,0-4.1,0Z"/>
  <path d="M297.5,68.6c-3.9,0-7.2-.8-9.9-2.4-2.7-1.6-4.8-3.8-6.2-6.4-1.4-2.7-2.1-5.5-2.1-8.5s.9-6.8,2.7-9.7c1.8-2.9,4.2-5.2,7.3-7,3.1-1.7,6.6-2.6,10.5-2.6s6.6.8,8.6,2.4c2,1.6,3,3.8,3,6.5s0,1.3-.2,1.8c-.1.5-.4.8-.8.8h-8.6c.1-2.8-.2-5.1-1-7-.8-1.8-2.2-2.7-4.2-2.7s-4.3,1.2-5.8,3.7c-1.5,2.5-2.2,5.8-2.2,9.9s.5,6.3,1.6,8.8,2.6,4.5,4.7,5.9c2,1.4,4.5,2.1,7.4,2.1s3-.2,4.6-.6c1.6-.4,3.1-1,4.5-1.9.1-.1.3,0,.5.2.2.2.3.4.1.6-2.2,2.2-4.5,3.8-6.8,4.7-2.3.9-4.8,1.4-7.4,1.4ZM285.1,43.6v-1.7c0,0,19.6-.4,19.6-.4v2l-19.6.2Z"/>
  <path d="M317.4,67.5c-.2,0-.3-.2-.3-.5s0-.5.3-.5c1.9,0,3.1-.4,3.8-1.3.7-.9,1-2.5,1-4.9v-16.9c0-1.9-.2-3.2-.6-4.1-.4-.9-1.1-1.3-2.2-1.3s-1.2.1-1.9.3c-.7.2-1.5.5-2.4.9-.2.1-.4,0-.5-.4s-.1-.6,0-.6l12.5-6.1c.4-.1.6-.2.6-.2.7,0,1.3.7,2,2.2.7,1.4,1,3.5,1,6.2v20c0,2.4.3,4,1,4.9.7.9,2,1.3,3.8,1.3s.3.2.3.5,0,.5-.3.5c-1.2,0-2.6,0-4.1,0-1.6,0-3.2,0-4.9,0s-3.3,0-4.9,0c-1.6,0-2.9,0-4.1,0ZM341.6,67.5c-.2,0-.3-.2-.3-.5s0-.5.3-.5c1.9,0,3.1-.4,3.8-1.3.7-.9,1-2.5,1-4.9v-13c0-3.2-.6-5.6-1.8-7.2-1.2-1.6-3-2.3-5.5-2.3s-3.6.5-5.5,1.4c-1.9.9-3.4,2.1-4.5,3.7l-.4-1.1c2.1-3,4.5-5.4,7.1-7.2,2.6-1.8,5.5-2.7,8.6-2.7s6,1.1,7.8,3.1c1.8,2.1,2.7,4.8,2.7,8.1v17.3c0,2.4.3,4,1,4.9.7.9,2,1.3,3.8,1.3s.3.2.3.5,0,.5-.3.5c-1.2,0-2.6,0-4.1,0-1.6,0-3.2,0-5,0s-3.3,0-4.9,0c-1.6,0-2.9,0-4.1,0Z"/>
  <path d="M371.1,68.1c-1.9,0-3.4-.5-4.5-1.5-1.1-1-1.7-2.4-1.7-4.3s.8-3.7,2.5-4.6c1.6-.9,4.2-2,7.7-3.1l10.1-3.2.4,1.4-6.2,2.2c-1.6.6-2.8,1.3-3.5,2-.7.7-1,1.6-1,2.6s.4,2.2,1.1,3c.7.7,1.6,1.1,2.7,1.1s1.1-.1,1.9-.3c.8-.2,1.7-.5,2.7-.9l4.9-2.7v1.5c0,0-7.7,4.2-7.7,4.2-1.5.8-3.1,1.4-4.8,1.9-1.7.5-3.2.8-4.6.8ZM390,68c-.2.1-.5.2-.9.2-1.1,0-2.2-.7-3.2-2.2s-1.6-3.5-1.6-6.2v-15.3c0-2.3-.2-4.3-.5-5.8-.3-1.6-.8-2.7-1.4-3.5-.7-.8-1.6-1.2-2.7-1.2s-1.7.2-2.4.7c-.7.5-1.3,1.2-1.7,2.2-.4,1-.7,2.4-.8,4.1-.2,1.7-.7,3-1.6,3.8-.9.8-2.1,1.2-3.7,1.2s-2.6-.3-3.2-1c-.7-.7-1-1.6-1-2.7s.6-2.6,1.9-3.8c1.3-1.2,2.8-2.3,4.7-3.3,1.9-1,3.9-1.8,5.9-2.3,2-.6,3.9-.9,5.5-.9,2.6,0,4.9.8,6.8,2.4,1.9,1.6,2.8,4.1,2.8,7.5v15.9c0,1.7.3,3.1.9,4.1.6,1,1.5,1.4,2.7,1.4s1.7-.2,2.6-.6c.2-.1.4,0,.6.3.1.3,0,.6-.2.7l-9.3,4.4Z"/>
  <path d="M6.2,136.4l20.1-31.7c.2-.4,0-.6-.5-.6-3.2,0-6,.3-8.6,1-2.6.7-4.7,1.7-6.4,3.1-1.7,1.4-3,3.2-3.7,5.4,0,.1-.3.2-.6,0-.3,0-.5-.2-.4-.4l3.8-14.1c0-.1.3-.1.6,0,.4,0,.5.2.4.4-.3,1.3,0,2.2.6,2.6.7.4,2,.6,3.9.6h20.7c.3,0,.5.1.7.4.1.2.2.5,0,.7l-20.5,31.4c-.2.4,0,.6.5.6,2.9,0,5.5-.2,7.8-.6s4.2-1,5.8-1.9c1.6-.8,2.9-1.9,3.9-3.2,1-1.3,1.7-2.8,2-4.5,0-.2.3-.3.6-.3s.5,0,.5.3l-.2,10.9c0,.2,0,.5-.2.7-.2.2-.4.3-.7.3H6.9c-.2,0-.4-.1-.6-.4-.2-.2-.2-.5,0-.7ZM15.3,72.1c0-.2,0-.3.4-.4.3,0,.5,0,.6,0l6.2,9.8,6.1-9.8c.1-.1.3-.1.6,0,.3,0,.4.2.3.4l-6,22.4c0,.3-.4.5-1,.5s-1-.1-1.1-.5l-6.1-22.4Z"/>
  <path d="M60.9,138.6c-3.9,0-7.2-.8-9.9-2.4-2.7-1.6-4.8-3.8-6.2-6.4-1.4-2.7-2.1-5.5-2.1-8.5s.9-6.8,2.7-9.7c1.8-2.9,4.2-5.2,7.3-7,3.1-1.7,6.6-2.6,10.5-2.6s6.6.8,8.6,2.4c2,1.6,3,3.8,3,6.5s0,1.3-.2,1.8c-.1.5-.4.8-.8.8h-8.6c.1-2.8-.2-5.1-1-7-.8-1.8-2.2-2.7-4.2-2.7s-4.4,1.2-5.8,3.7c-1.5,2.5-2.2,5.8-2.2,9.9s.5,6.3,1.6,8.8c1.1,2.5,2.6,4.5,4.7,5.8,2,1.4,4.5,2.1,7.4,2.1s3-.2,4.6-.6c1.6-.4,3.1-1,4.5-1.9.1-.1.3,0,.5.2.2.2.3.4.1.6-2.2,2.2-4.5,3.8-6.8,4.7-2.3.9-4.8,1.4-7.4,1.4ZM48.5,113.6v-1.7c0,0,19.6-.4,19.6-.4v2l-19.6.2Z"/>
  <path d="M80.8,137.5c-.2,0-.3-.2-.3-.5s0-.5.3-.5c1.9,0,3.1-.4,3.8-1.3.7-.9,1-2.5,1-4.9v-16.9c0-1.9-.2-3.2-.6-4.1-.4-.9-1.1-1.3-2.2-1.3s-1.2.1-1.9.3c-.7.2-1.5.5-2.4.9-.2.1-.4,0-.5-.4-.1-.4-.1-.6,0-.6l12.5-6.1c.4-.1.6-.2.6-.2.7,0,1.3.7,2,2.2.7,1.4,1,3.5,1,6.2v20c0,2.4.3,4,1,4.9.7.9,2,1.3,3.8,1.3s.3.2.3.5,0,.5-.3.5c-1.2,0-2.6,0-4.1,0-1.6,0-3.2,0-5,0s-3.3,0-4.9,0c-1.6,0-2.9,0-4.1,0ZM105,137.5c-.2,0-.3-.2-.3-.5s0-.5.3-.5c1.9,0,3.1-.4,3.8-1.3.7-.9,1-2.5,1-4.9v-13c0-3.2-.6-5.6-1.8-7.2-1.2-1.6-3-2.3-5.5-2.3s-3.6.5-5.5,1.4-3.4,2.1-4.5,3.7l-.5-1.1c2.1-3,4.5-5.4,7.1-7.2,2.6-1.8,5.5-2.7,8.6-2.7s6,1.1,7.8,3.2c1.8,2.1,2.7,4.8,2.7,8.1v17.3c0,2.4.3,4,1,4.9.7.9,2,1.3,3.8,1.3s.3.2.3.5,0,.5-.3.5c-1.2,0-2.6,0-4.1,0-1.6,0-3.2,0-4.9,0s-3.3,0-4.9,0c-1.6,0-2.9,0-4.1,0Z"/>
  <path d="M135.3,107.1c0,1.3.3,2.4,1,3.4.7,1,1.6,1.9,2.7,2.7,1.1.8,2.2,1.6,3.5,2.4,1.5.8,3,1.7,4.4,2.7,1.4.9,2.6,2.1,3.6,3.4,1,1.3,1.4,3,1.4,5.1s-.5,3.8-1.5,5.6c-1,1.8-2.5,3.3-4.5,4.5s-4.5,1.7-7.5,1.7-3-.2-4.5-.5c-1.5-.3-3.1-1-4.9-1.9-.1-.1-.2-.3-.4-.5-.1-.2-.2-.4-.2-.6l-.2-8.9c0-.2.2-.3.5-.3.3,0,.5,0,.6.1.7,1.9,1.6,3.7,2.8,5.4,1.2,1.7,2.6,3,4.1,4,1.5,1,3.1,1.5,4.6,1.5s2.2-.4,3-1.1c.8-.8,1.2-1.9,1.2-3.5s-.4-3.1-1.1-4.2c-.8-1.1-1.7-2.1-2.8-2.9-1.1-.8-2.3-1.5-3.5-2.2-1.4-.8-2.8-1.6-4.1-2.4-1.4-.8-2.5-1.9-3.4-3.2-.9-1.3-1.4-3-1.4-5.1s.6-4.5,1.9-6c1.3-1.5,2.9-2.6,4.9-3.2,2-.7,4.1-1,6.3-1s2.5,0,3.6.3c1.1.2,2.4.5,3.8,1.1.5.2.8.5.8,1,0,1.2,0,2.4,0,3.7,0,1.3,0,2.7,0,4.3s-.2.3-.5.3-.5,0-.5-.3c0-1.1-.5-2.4-1.4-3.7-.9-1.3-2.1-2.5-3.6-3.5-1.5-1-3.1-1.5-4.9-1.5s-1.7.2-2.5.6c-.8.4-1.2,1.4-1.2,2.9Z"/>
  <path d="M171.6,138.6c-1.4,0-2.9-.2-4.4-.7-1.5-.5-2.7-1.3-3.7-2.5-1-1.2-1.5-2.9-1.5-5v-20c0-1.3-.2-2.2-.5-3-.3-.7-.8-1.2-1.4-1.5-.7-.3-1.6-.5-2.7-.5s-.4-.3-.4-.8.1-.8.4-.8c3.1-.1,5.5-.8,7.5-2,1.9-1.2,3.4-3,4.3-5.4.1-.2.4-.4.8-.4s.6.1.6.4v31.1c0,2.4.6,4.1,1.8,5.1,1.2,1,2.7,1.5,4.5,1.5s2.7-.3,3.9-.9c1.2-.6,2.3-1.2,3.1-1.8.2-.2.4-.1.7.1.3.3.3.5,0,.7-2.2,2.2-4.4,3.9-6.4,4.9-2.1,1-4.3,1.6-6.7,1.6ZM181.9,107.3c-2.5-.5-4.8-.9-7.2-1.1-2.3-.2-4.8-.3-7.3-.3v-2.3c2.5,0,4.9,0,7.2-.3,2.4-.2,4.9-.4,7.6-.6.1,0,.3.2.4.7.1.5.2.9.2,1.5s-.1,1.2-.3,1.8c-.2.6-.4.8-.7.8Z"/>
  <path d="M226.1,102.7c.1,0,.2.2.2.5s0,.5-.2.5c-1.7,0-3.3.7-4.6,2-1.4,1.3-2.6,3.4-3.8,6.1l-11.1,25.6c-.1.3-.4.4-.9.4s-.9-.2-1-.4l-13.8-27.3c-1.3-2.8-2.5-4.5-3.4-5.3-1-.8-2.1-1.1-3.4-1.1s-.3-.2-.3-.5,0-.5.3-.5c1,0,2.2,0,3.5,0,1.3,0,3,0,5.3,0s4.6,0,6.3,0c1.7,0,3.4,0,4.9,0s.3.2.3.5,0,.5-.3.5c-1.9,0-3.3.2-4.3.7-1,.5-1.2,1.4-.5,2.8l10.8,20.3-4.6,7.9,9.8-23.8c1-2.5,1-4.4,0-5.8-1-1.4-2.7-2.2-5.1-2.2s-.2-.2-.2-.5,0-.5.2-.5c1.4,0,2.8,0,4.1,0,1.3,0,3,0,5,0s2.6,0,3.6,0c.9,0,2.1,0,3.4,0Z"/>
  <path d="M246,138.6c-3.9,0-7.2-.8-9.9-2.4s-4.8-3.8-6.2-6.4c-1.4-2.7-2.1-5.5-2.1-8.5s.9-6.8,2.7-9.7c1.8-2.9,4.2-5.2,7.3-7,3.1-1.7,6.6-2.6,10.5-2.6s6.6.8,8.6,2.4c2,1.6,3,3.8,3,6.5s0,1.3-.2,1.8c-.1.5-.4.8-.8.8h-8.6c.1-2.8-.2-5.1-1-7-.8-1.8-2.2-2.7-4.2-2.7s-4.4,1.2-5.8,3.7c-1.5,2.5-2.2,5.8-2.2,9.9s.5,6.3,1.6,8.8c1.1,2.5,2.6,4.5,4.7,5.8,2,1.4,4.5,2.1,7.4,2.1s3-.2,4.6-.6c1.7-.4,3.1-1,4.5-1.9.1-.1.3,0,.5.2.2.2.3.4.1.6-2.2,2.2-4.5,3.8-6.8,4.7-2.3.9-4.8,1.4-7.4,1.4ZM233.6,113.6v-1.7c0,0,19.6-.4,19.6-.4v2l-19.6.2Z"/>
  <path d="M266,137.5c-.2,0-.3-.2-.3-.5s0-.5.3-.5c1.9,0,3.1-.4,3.8-1.3s1-2.5,1-4.9v-16.9c0-1.9-.2-3.2-.6-4.1-.4-.9-1.1-1.3-2.2-1.3s-1.2.1-1.9.3c-.7.2-1.5.5-2.4.9-.2.1-.4,0-.5-.4-.1-.4-.1-.6,0-.6l12.5-6.1c.4-.1.6-.2.6-.2.7,0,1.3.7,2,2.2.7,1.4,1,3.5,1,6.2v20c0,2.4.3,4,1,4.9.7.9,2,1.3,3.8,1.3s.3.2.3.5,0,.5-.3.5c-1.2,0-2.6,0-4.1,0-1.6,0-3.2,0-4.9,0s-3.3,0-4.9,0c-1.6,0-2.9,0-4.1,0ZM290.2,137.5c-.2,0-.3-.2-.3-.5s0-.5.3-.5c1.9,0,3.1-.4,3.8-1.3.7-.9,1-2.5,1-4.9v-13c0-3.2-.6-5.6-1.8-7.2-1.2-1.6-3-2.3-5.5-2.3s-3.6.5-5.5,1.4c-1.9.9-3.4,2.1-4.5,3.7l-.4-1.1c2.1-3,4.5-5.4,7.1-7.2,2.6-1.8,5.5-2.7,8.6-2.7s6,1.1,7.8,3.2c1.8,2.1,2.7,4.8,2.7,8.1v17.3c0,2.4.3,4,1,4.9.7.9,2,1.3,3.8,1.3s.3.2.3.5,0,.5-.3.5c-1.2,0-2.6,0-4.1,0-1.6,0-3.2,0-5,0s-3.3,0-4.9,0c-1.6,0-2.9,0-4.1,0Z"/>
  <path d="M319.6,138.1c-1.9,0-3.4-.5-4.5-1.5-1.1-1-1.7-2.4-1.7-4.3s.8-3.7,2.5-4.6c1.6-.9,4.2-2,7.7-3.1l10.1-3.2.4,1.4-6.2,2.2c-1.6.6-2.8,1.3-3.5,2s-1,1.6-1,2.6.4,2.2,1.1,3c.7.7,1.6,1.1,2.7,1.1s1.1-.1,1.9-.3c.8-.2,1.7-.5,2.7-.9l4.9-2.7v1.5c0,0-7.7,4.2-7.7,4.2-1.5.8-3.1,1.4-4.8,1.9-1.7.5-3.2.8-4.6.8ZM338.5,138c-.2.1-.5.2-.9.2-1.1,0-2.2-.7-3.2-2.2s-1.6-3.5-1.6-6.2v-15.3c0-2.3-.2-4.3-.5-5.8-.3-1.6-.8-2.7-1.4-3.5-.7-.8-1.6-1.2-2.7-1.2s-1.7.2-2.4.7-1.3,1.2-1.7,2.2c-.4,1-.7,2.4-.8,4.1-.2,1.7-.7,3-1.6,3.8-.9.8-2.1,1.2-3.7,1.2s-2.6-.3-3.2-1c-.7-.7-1-1.6-1-2.7s.6-2.6,1.9-3.8c1.3-1.2,2.8-2.3,4.7-3.3s3.9-1.8,5.9-2.3c2-.6,3.9-.9,5.5-.9,2.6,0,4.9.8,6.8,2.4,1.9,1.6,2.8,4.1,2.8,7.5v15.9c0,1.7.3,3.1.9,4.1.6,1,1.5,1.4,2.7,1.4s1.7-.2,2.6-.6c.2-.1.4,0,.6.3.1.3,0,.6-.2.7l-9.3,4.4Z"/>
  <path d="M19.6,232.9c-4.4,0-8-.9-10.8-2.8-2.9-1.9-4.3-4.4-4.3-7.5s.3-2.6.9-4.1c.6-1.5,1.7-3.1,3.3-4.9,1.6-1.8,4.1-3.8,7.3-5.8l.9,1c-.6.6-1.2,1.3-1.7,2.1-.5.8-1,1.8-1.3,3-.3,1.2-.5,2.7-.5,4.5,0,3.9,1,6.8,3.1,8.8,2.1,2,4.7,3,7.8,3s3.9-.4,5.5-1.2c1.6-.8,2.8-2,3.7-3.5.9-1.5,1.4-3.3,1.4-5.4s-.4-3.3-1.2-4.4c-.8-1.1-1.9-2-3.2-2.6-1.4-.6-2.9-1.1-4.5-1.5-1.7-.4-3.4-.7-5.1-.9-2.1-.4-4.1-.8-6.1-1.2-2-.4-3.5-1.2-4.7-2.2-1.2-1-1.8-2.5-1.8-4.5s.7-3.3,2.1-5.1c1.4-1.9,3.8-3.5,7.2-5l.8.5c-1.1.6-2,1.3-2.5,2-.5.7-.8,1.6-.8,2.6s.5,2.4,1.6,3.2c1,.8,2.4,1.3,4.2,1.7,1.7.4,3.6.7,5.5,1.1,1.9.3,3.8.7,5.7,1.1,1.9.4,3.6,1,5.2,1.7,1.6.7,2.9,1.7,3.8,3.1,1,1.3,1.4,3,1.4,5.1s-.6,4.8-1.8,7c-1.2,2.2-2.9,4.1-4.9,5.8-2.1,1.7-4.5,3.1-7.3,4.1-2.8,1-5.7,1.5-8.8,1.5ZM21.4,194.4c-3.1,0-5.7-.5-7.8-1.6-2.1-1.1-3.8-2.5-4.9-4.2-1.1-1.7-1.7-3.5-1.7-5.3s.8-4.6,2.5-6.3c1.6-1.7,3.7-2.9,6.1-3.7,2.4-.8,4.7-1.2,6.9-1.2s5.3.5,7.5,1.5c2.2,1,3.9,2.3,5.1,4,1.2,1.7,1.8,3.5,1.8,5.6s-.8,4.4-2.4,6c-1.6,1.7-3.6,3-5.9,3.9-2.4.9-4.8,1.3-7.2,1.3ZM23.9,192.8c1,0,2-.6,2.9-1.7.9-1.1,1.4-3,1.4-5.8s-.9-6-2.6-8.2c-1.7-2.2-3.7-3.3-6-3.3s-2.3.6-2.9,1.8c-.6,1.2-.9,3-.9,5.3s.3,3.9,1,5.7c.7,1.8,1.6,3.3,2.8,4.5,1.2,1.2,2.6,1.8,4.2,1.8ZM30.5,179.3l.2-2.9c1.9-1.5,3.8-2.6,5.6-3.4,1.8-.8,3.9-1.2,6.1-1.2s.5.2.6.7c0,.5.1,1.1.1,1.8s-.1,1.8-.4,2.8c-.2,1-.4,1.4-.6,1.3-1.1-.5-2.3-.9-3.4-1.1-1.1-.3-2.2-.4-3.3-.4s-1.4,0-2.1.1c-.7,0-1.5.3-2.2.6l-.5,1.7Z"/>
  <path d="M53.7,208.1c-1.9,0-3.4-.5-4.5-1.5-1.1-1-1.7-2.4-1.7-4.3s.8-3.7,2.5-4.6c1.6-.9,4.2-2,7.7-3.1l10.1-3.2.4,1.4-6.2,2.2c-1.6.6-2.8,1.3-3.5,2-.7.7-1,1.6-1,2.6s.4,2.2,1.1,3c.7.7,1.6,1.1,2.7,1.1s1.1-.1,1.9-.3c.8-.2,1.7-.5,2.7-.9l4.9-2.7v1.5c0,0-7.6,4.2-7.6,4.2-1.5.8-3.1,1.4-4.8,1.9-1.7.5-3.2.8-4.6.8ZM72.6,208c-.2.1-.5.2-.9.2-1.1,0-2.2-.7-3.2-2.2-1.1-1.4-1.6-3.5-1.6-6.2v-15.3c0-2.3-.2-4.3-.5-5.8-.3-1.6-.8-2.7-1.4-3.5-.7-.8-1.6-1.2-2.7-1.2s-1.7.2-2.4.7c-.7.5-1.3,1.2-1.7,2.2-.4,1-.7,2.4-.8,4.1-.2,1.7-.7,3-1.6,3.8s-2.1,1.2-3.7,1.2-2.6-.3-3.2-1c-.7-.7-1-1.6-1-2.7s.6-2.6,1.9-3.8c1.3-1.2,2.8-2.3,4.7-3.3,1.9-1,3.9-1.8,5.9-2.3,2-.6,3.9-.9,5.5-.9,2.6,0,4.9.8,6.8,2.4,1.9,1.6,2.8,4.1,2.8,7.5v15.9c0,1.7.3,3.1.9,4.1s1.5,1.4,2.7,1.4,1.7-.2,2.6-.6c.2-.1.4,0,.6.3.1.3,0,.6-.2.7l-9.3,4.4Z"/>
  <path d="M85.2,207.5c-.2,0-.3-.2-.3-.5s0-.5.3-.5c1.9,0,3.1-.4,3.8-1.3.7-.9,1-2.5,1-4.9v-16.9c0-1.9-.2-3.2-.6-4.1-.4-.9-1.1-1.3-2.2-1.3s-1.2.1-1.9.3c-.7.2-1.5.5-2.4.9-.2.1-.4,0-.5-.4-.1-.4-.1-.6,0-.6l12.5-6.1c.4-.1.6-.2.6-.2.7,0,1.3.7,2,2.2.7,1.4,1,3.5,1,6.2v20c0,1.6.2,2.8.7,3.7.5.9,1.3,1.6,2.5,1.9,1.2.4,2.8.5,4.8.5s.4.2.4.5-.1.5-.4.5c-1.6,0-3.5,0-5.5,0-2.1,0-4.3,0-6.7,0s-3.3,0-4.9,0c-1.6,0-2.9,0-4.1,0ZM96.2,183.1l-.7-1.2c2.3-2.7,4.3-4.8,5.9-6.2s3-2.4,4.1-3c1.1-.6,2.2-.9,3.1-.9s2.6.5,3.9,1.4c1.3.9,2,2.1,2,3.6s-.4,2.3-1.1,3.1c-.8.8-1.8,1.2-3.1,1.2s-2.2-.3-2.8-1c-.6-.7-1.2-1.3-1.7-1.9-.5-.6-1.2-.9-2.2-.9s-.9.1-1.4.4c-.5.3-1.2.8-2.2,1.6-.9.8-2.2,2.1-3.8,3.7Z"/>
  <path d="M132.9,208.6c-2.6,0-4.9-.7-7.1-2.1-2.1-1.4-3.8-3.4-5.1-6-1.3-2.6-1.9-5.8-1.9-9.5s.7-6.7,2-9.2c1.3-2.5,3-4.5,5.1-6,2.1-1.5,4.3-2.6,6.7-3.3,2.4-.7,4.7-1,6.8-1s4.2.3,6,.8c1.9.5,3.5,1.2,5,2l-2.1,7.3c-1.3-2.7-2.7-4.7-4.3-5.9-1.6-1.2-3.6-1.8-6-1.8s-5.5,1.1-7.3,3.2c-1.8,2.1-2.7,5.8-2.7,11.1s.4,6.3,1.3,8.7c.8,2.4,2,4.2,3.5,5.5,1.5,1.3,3.2,1.9,5,1.9s4.5-.7,6.3-2c1.8-1.3,3.5-2.9,5.2-4.8l.9.8c-1.3,1.4-2.7,3-4.5,4.5s-3.6,2.9-5.8,4c-2.1,1.1-4.5,1.7-7.2,1.7ZM154.8,143.4v53.6c0,2,.2,3.5.6,4.3.4.8,1,1.3,1.9,1.3s.9,0,1.6-.3,1.3-.4,2.1-.7c.2-.1.4,0,.5.3.2.3.2.6,0,.7l-12.4,6c-.2,0-.3,0-.5,0-.6,0-1.2-.8-1.7-2.2-.5-1.5-.8-3.6-.8-6.4v-45.6c0-2-.2-3.5-.5-4.5-.4-.9-1.1-1.4-2.1-1.4s-.9,0-1.5.3c-.6.2-1.2.4-1.8.7-.2,0-.4,0-.6-.4-.2-.4-.2-.6,0-.6l13.2-6.2c.1,0,.2,0,.4,0,.3,0,.6.1,1,.4.4.3.5.5.5.8Z"/>
  <path d="M182.9,208.6c-3.9,0-7.2-.8-9.9-2.4-2.7-1.6-4.8-3.8-6.2-6.4-1.4-2.7-2.1-5.5-2.1-8.5s.9-6.8,2.7-9.7c1.8-2.9,4.2-5.2,7.3-7,3.1-1.7,6.6-2.6,10.5-2.6s6.6.8,8.6,2.4c2,1.6,3,3.8,3,6.5s0,1.3-.2,1.8c-.1.5-.4.8-.8.8h-8.6c.1-2.8-.2-5.1-1-7-.8-1.8-2.2-2.7-4.2-2.7s-4.4,1.2-5.8,3.7c-1.5,2.5-2.2,5.8-2.2,9.9s.5,6.3,1.6,8.8,2.6,4.5,4.7,5.8c2,1.4,4.5,2.1,7.4,2.1s3-.2,4.6-.6c1.6-.4,3.1-1,4.5-1.9.1-.1.3,0,.5.2.2.2.3.4.1.6-2.2,2.2-4.5,3.8-6.8,4.7-2.3.9-4.8,1.4-7.4,1.4ZM170.6,183.6v-1.7c0,0,19.6-.4,19.6-.4v2l-19.6.2Z"/>
  <path d="M202.9,207.5c-.2,0-.3-.2-.3-.5s0-.5.3-.5c1.9,0,3.1-.4,3.8-1.3.7-.9,1-2.5,1-4.9v-16.9c0-1.9-.2-3.2-.6-4.1-.4-.9-1.1-1.3-2.2-1.3s-1.2.1-1.9.3c-.7.2-1.5.5-2.4.9-.2.1-.4,0-.5-.4-.1-.4-.1-.6,0-.6l12.5-6.1c.4-.1.6-.2.6-.2.7,0,1.3.7,2,2.2.7,1.4,1,3.5,1,6.2v20c0,1.6.2,2.8.7,3.7.5.9,1.3,1.6,2.5,1.9,1.2.4,2.8.5,4.8.5s.4.2.4.5-.1.5-.4.5c-1.6,0-3.5,0-5.5,0-2.1,0-4.3,0-6.7,0s-3.3,0-4.9,0c-1.6,0-2.9,0-4.1,0ZM213.9,183.1l-.7-1.2c2.3-2.7,4.3-4.8,5.9-6.2s3-2.4,4.1-3c1.1-.6,2.2-.9,3.1-.9s2.6.5,3.9,1.4c1.3.9,2,2.1,2,3.6s-.4,2.3-1.1,3.1c-.8.8-1.8,1.2-3.1,1.2s-2.2-.3-2.8-1c-.6-.7-1.2-1.3-1.7-1.9-.5-.6-1.2-.9-2.2-.9s-.9.1-1.4.4c-.5.3-1.2.8-2.2,1.6-.9.8-2.2,2.1-3.8,3.7Z"/>
  <path d="M254.8,208.6c-3.8,0-7.1-.9-9.8-2.6-2.8-1.7-4.9-4.1-6.4-7-1.5-2.9-2.2-6-2.2-9.4s.6-5.8,1.8-8.1c1.2-2.3,2.8-4.2,4.8-5.6s4.1-2.6,6.5-3.3c2.3-.7,4.6-1.1,6.9-1.1,3.8,0,7.1.9,9.9,2.7,2.7,1.8,4.8,4.1,6.3,6.9,1.4,2.8,2.2,5.8,2.2,9s-.9,6.9-2.7,9.7c-1.8,2.8-4.2,4.9-7.2,6.5-3,1.5-6.3,2.3-9.8,2.3ZM257.5,206.8c2.4,0,4.2-1.2,5.4-3.5,1.2-2.3,1.8-5.6,1.8-9.9s-.6-8-1.7-11c-1.1-2.9-2.5-5.2-4.3-6.7-1.7-1.5-3.6-2.2-5.5-2.2s-4.1,1-5.4,3.1c-1.2,2.1-1.8,5.3-1.8,9.7s.5,7.7,1.5,10.8c1,3.1,2.4,5.5,4.1,7.2,1.7,1.7,3.7,2.5,5.8,2.5Z"/>
  <path d="M280.7,208.1c-.2,0-.4,0-.5-.3-.1-.3,0-.4.2-.5,1.4-.8,2.5-2,3.2-3.4.8-1.4,1.2-3.3,1.2-5.7v-43.7c0-2-.2-3.5-.6-4.5-.4-.9-1.1-1.4-2.1-1.4s-1.9.3-3.3,1c-.2,0-.4,0-.6-.4-.2-.4-.2-.6,0-.6l13.1-6.2c.2,0,.3,0,.4,0,.3,0,.6.1.9.4.3.3.5.5.5.8v59l-12.4,5.7ZM301.6,208.6c-2.6,0-5.1-.5-7.6-1.4-2.5-.9-4.7-2.3-6.7-4.1l5.8-10.5c0,3.5.6,6.4,1.8,8.5,1.2,2.1,2.6,3.6,4.3,4.5,1.7.9,3.2,1.3,4.5,1.3,2.6,0,4.6-1.3,6-4,1.4-2.6,2-6.3,2-11.1s-.9-9.3-2.7-11.8c-1.8-2.5-4.2-3.7-7.2-3.7s-3.6.4-5.3,1.2c-1.7.8-3.2,1.7-4.6,2.8l-.8-.7c1.3-1.3,2.6-2.5,4-3.7s3-2.2,4.8-3.1,3.8-1.2,6.1-1.2,5.1.6,7.3,1.8c2.2,1.2,4.1,3.1,5.5,5.5,1.4,2.5,2.1,5.6,2.1,9.4s-.9,8.3-2.8,11.3c-1.9,3-4.3,5.3-7.2,6.8-2.9,1.5-6.1,2.2-9.4,2.2Z"/>
  <path d="M333.7,208.1c-1.9,0-3.4-.5-4.5-1.5-1.1-1-1.7-2.4-1.7-4.3s.8-3.7,2.5-4.6c1.6-.9,4.2-2,7.7-3.1l10.1-3.2.4,1.4-6.2,2.2c-1.6.6-2.8,1.3-3.5,2-.7.7-1,1.6-1,2.6s.4,2.2,1.1,3c.7.7,1.6,1.1,2.7,1.1s1.1-.1,1.9-.3c.8-.2,1.7-.5,2.7-.9l4.9-2.7v1.5c0,0-7.7,4.2-7.7,4.2-1.5.8-3.1,1.4-4.8,1.9-1.7.5-3.2.8-4.6.8ZM352.6,208c-.2.1-.5.2-.9.2-1.1,0-2.2-.7-3.2-2.2-1.1-1.4-1.6-3.5-1.6-6.2v-15.3c0-2.3-.2-4.3-.5-5.8-.3-1.6-.8-2.7-1.4-3.5-.7-.8-1.6-1.2-2.7-1.2s-1.7.2-2.4.7-1.3,1.2-1.7,2.2c-.4,1-.7,2.4-.8,4.1-.2,1.7-.7,3-1.6,3.8-.9.8-2.1,1.2-3.7,1.2s-2.6-.3-3.2-1c-.7-.7-1-1.6-1-2.7s.6-2.6,1.9-3.8c1.3-1.2,2.8-2.3,4.7-3.3s3.9-1.8,5.9-2.3c2-.6,3.9-.9,5.5-.9,2.6,0,4.9.8,6.8,2.4,1.9,1.6,2.8,4.1,2.8,7.5v15.9c0,1.7.3,3.1.9,4.1s1.5,1.4,2.7,1.4,1.7-.2,2.6-.6c.2-.1.4,0,.6.3.1.3,0,.6-.2.7l-9.3,4.4Z"/>
  <path d="M6.2,231.8h1.9v23.7l15.9-13.7h2.8l-11.2,9.6,12.1,16.1h-2.6l-11-14.7-5.9,4.9v9.7h-1.9v-35.7Z"/>
  <path d="M27.4,254.6c0-1.8.3-3.6.8-5.2.5-1.6,1.3-3,2.3-4.3,1-1.2,2.2-2.2,3.7-2.9,1.5-.7,3.1-1.1,5-1.1s3.6.4,5.1,1.1c1.5.7,2.7,1.7,3.7,2.9,1,1.2,1.8,2.7,2.3,4.3.5,1.6.8,3.3.8,5.2s-.3,3.6-.8,5.2c-.5,1.6-1.3,3.1-2.3,4.3s-2.2,2.2-3.7,2.9c-1.5.7-3.2,1.1-5.1,1.1s-3.6-.4-5-1.1c-1.5-.7-2.7-1.7-3.7-2.9s-1.8-2.6-2.3-4.3c-.5-1.6-.8-3.4-.8-5.2ZM29.3,254.6c0,1.5.2,3,.6,4.4.4,1.4,1.1,2.7,1.9,3.8.8,1.1,1.9,2,3.1,2.6,1.2.7,2.6,1,4.2,1s3-.3,4.2-1c1.2-.7,2.3-1.5,3.1-2.6.8-1.1,1.5-2.4,1.9-3.8.4-1.4.6-2.9.6-4.4s-.2-3-.6-4.4c-.4-1.4-1.1-2.7-1.9-3.8-.8-1.1-1.9-2-3.1-2.6-1.2-.7-2.6-1-4.2-1s-3,.3-4.2,1c-1.2.7-2.3,1.5-3.1,2.6-.8,1.1-1.5,2.4-1.9,3.8-.4,1.4-.6,2.9-.6,4.4Z"/>
  <path d="M57.8,241.8v28.5c0,.9,0,1.7-.2,2.5-.1.8-.4,1.5-.8,2.1-.4.6-.9,1-1.6,1.4-.7.4-1.6.5-2.7.5h-1.2c-.1,0-.3,0-.4,0v-1.7c.2,0,.4,0,.6,0,.2,0,.4,0,.7,0,.7,0,1.2,0,1.7-.2.5-.2.9-.4,1.1-.8.3-.4.5-.9.6-1.5.1-.6.2-1.5.2-2.4v-28.3h1.9ZM55.9,236.9v-5.2h1.9v5.2h-1.9Z"/>
  <path d="M80.9,262.4h-.1c-.3.8-.7,1.5-1.3,2.2-.6.7-1.3,1.3-2.1,1.8-.8.5-1.7.9-2.8,1.2-1,.3-2.2.4-3.4.4-2.7,0-4.9-.6-6.4-1.8-1.5-1.2-2.2-3-2.2-5.5s.3-2.7.9-3.7c.6-.9,1.4-1.7,2.3-2.2.9-.5,1.9-.9,3.1-1.2,1.1-.2,2.2-.4,3.2-.5l3-.2c1.4,0,2.4-.3,3.2-.5.8-.2,1.4-.5,1.8-.9s.6-.9.8-1.5c.1-.6.1-1.4.1-2.2s-.1-1.4-.4-2c-.3-.6-.7-1.1-1.2-1.6-.6-.5-1.3-.8-2.2-1.1-.9-.3-2-.4-3.3-.4-2.3,0-4.2.6-5.6,1.7-1.4,1.1-2.2,2.9-2.3,5.2h-1.9c.1-2.8,1-5,2.7-6.4,1.7-1.4,4.1-2.1,7.2-2.1s5.4.6,6.8,1.8c1.4,1.2,2.1,2.8,2.1,4.8v15c0,.4,0,.7,0,1.1,0,.4,0,.7.2,1,0,.3.3.5.5.7.2.2.6.3,1,.3s.8,0,1.4-.2v1.6c-.5.1-1,.2-1.6.2-.8,0-1.4,0-1.8-.3-.5-.2-.8-.5-1-.8-.2-.3-.4-.7-.5-1.2,0-.4-.1-.9-.1-1.5v-1.3ZM80.9,252.9c-.5.6-1.2.9-2.1,1.1-1,.2-2,.4-3.2.5l-3.2.3c-.9.1-1.9.2-2.8.4-.9.2-1.8.5-2.5.9s-1.4,1-1.8,1.8c-.5.8-.7,1.7-.7,2.9,0,1.9.6,3.3,1.8,4.2,1.2.9,2.9,1.4,5,1.4s3.9-.4,5.1-1.2c1.3-.8,2.2-1.7,2.9-2.7.7-1,1.1-2,1.3-2.9.2-1,.3-1.6.3-1.9v-4.8Z"/>
  <path d="M104.7,247.5h.1c.2-.8.7-1.6,1.3-2.3.6-.7,1.4-1.4,2.2-1.9.9-.5,1.9-.9,3-1.2,1.1-.3,2.2-.4,3.4-.4v1.9c-1-.1-2.1,0-3.4.3-1.3.3-2.5,1.1-3.7,2.2-.5.5-.9,1-1.2,1.5s-.6,1-.9,1.5c-.2.6-.4,1.2-.5,1.9-.1.7-.2,1.5-.2,2.5v14.1h-1.9v-25.7h1.9v5.7Z"/>
  <path d="M116.8,254.9v.3c0,1.5.2,2.9.6,4.3.4,1.4,1,2.6,1.8,3.6.8,1,1.8,1.8,3,2.4,1.2.6,2.6.9,4.1.9,2.6,0,4.6-.7,6.1-2,1.5-1.3,2.5-3.2,3.1-5.6h1.9c-.6,3-1.8,5.3-3.7,6.9-1.9,1.6-4.4,2.4-7.5,2.4s-3.6-.3-5-1c-1.4-.7-2.6-1.6-3.6-2.8-.9-1.2-1.7-2.6-2.1-4.2-.5-1.6-.7-3.4-.7-5.2s.2-3.5.7-5.2c.5-1.6,1.2-3.1,2.2-4.3,1-1.2,2.2-2.2,3.6-3s3.2-1.1,5.1-1.1,3.4.3,4.8,1c1.4.7,2.5,1.6,3.5,2.7.9,1.2,1.6,2.5,2.1,4,.5,1.5.7,3.1.7,4.9s0,.4,0,.6c0,.2,0,.4,0,.5h-20.8ZM135.7,253.2c0-1.4-.3-2.7-.7-4-.4-1.2-1-2.4-1.8-3.3-.8-.9-1.7-1.7-2.9-2.3-1.1-.6-2.4-.8-3.8-.8s-2.9.3-4.1.9c-1.2.6-2.2,1.3-3,2.3-.8.9-1.4,2.1-1.9,3.3-.4,1.3-.7,2.6-.8,3.9h18.9Z"/>
  <path d="M142.5,236.9v-5.2h1.9v5.2h-1.9ZM142.5,267.5v-25.7h1.9v25.7h-1.9Z"/>
  <path d="M150.4,241.8h1.9v5.5h0c.3-1,.8-1.8,1.4-2.6.6-.8,1.3-1.4,2.1-1.9.8-.5,1.7-.9,2.7-1.2,1-.3,2-.4,3-.4,1.5,0,2.8.2,3.8.6,1,.4,1.9.8,2.6,1.4.7.6,1.2,1.3,1.6,2,.4.8.7,1.5.8,2.3.2.8.3,1.5.3,2.2,0,.7,0,1.3,0,1.9v15.9h-1.9v-16.2c0-.6,0-1.4-.1-2.4s-.4-1.9-.9-2.8c-.5-.9-1.2-1.6-2.2-2.3-1-.6-2.3-.9-4.1-.9s-2.8.3-3.9.8c-1.1.5-2.1,1.3-2.9,2.2-.8.9-1.4,2.1-1.8,3.4-.4,1.3-.6,2.8-.6,4.3v13.9h-1.9v-25.7Z"/>
  <path d="M185.8,243.4h-5.6v18c0,1,.1,1.8.4,2.4.2.6.6,1.1,1.1,1.4.5.3,1.1.5,1.8.6.7,0,1.5,0,2.4,0v1.7c-1,0-1.9,0-2.8,0-.9,0-1.7-.3-2.4-.8-.7-.4-1.3-1-1.7-1.9-.4-.8-.6-2-.5-3.4v-18h-4.8v-1.7h4.8v-8h1.9v8h5.6v1.7Z"/>
  <path d="M189.3,254.9v.3c0,1.5.2,2.9.6,4.3.4,1.4,1,2.6,1.8,3.6.8,1,1.8,1.8,3,2.4,1.2.6,2.6.9,4.1.9,2.6,0,4.6-.7,6.1-2,1.5-1.3,2.5-3.2,3.1-5.6h1.9c-.6,3-1.8,5.3-3.7,6.9-1.9,1.6-4.4,2.4-7.5,2.4s-3.6-.3-5-1c-1.4-.7-2.6-1.6-3.6-2.8-.9-1.2-1.7-2.6-2.1-4.2-.5-1.6-.7-3.4-.7-5.2s.2-3.5.7-5.2c.5-1.6,1.2-3.1,2.2-4.3,1-1.2,2.2-2.2,3.6-3s3.2-1.1,5.1-1.1,3.4.3,4.8,1c1.4.7,2.5,1.6,3.5,2.7.9,1.2,1.6,2.5,2.1,4,.5,1.5.7,3.1.7,4.9s0,.4,0,.6c0,.2,0,.4,0,.5h-20.8ZM208.2,253.2c0-1.4-.3-2.7-.7-4-.4-1.2-1-2.4-1.8-3.3-.8-.9-1.7-1.7-2.9-2.3-1.1-.6-2.4-.8-3.8-.8s-2.9.3-4.1.9c-1.2.6-2.2,1.3-3,2.3-.8.9-1.4,2.1-1.9,3.3-.4,1.3-.7,2.6-.8,3.9h18.9Z"/>
  <path d="M216.5,247.5h.1c.2-.8.7-1.6,1.3-2.3.6-.7,1.4-1.4,2.2-1.9.9-.5,1.9-.9,2.9-1.2,1.1-.3,2.2-.4,3.4-.4v1.9c-1-.1-2.1,0-3.4.3-1.3.3-2.5,1.1-3.7,2.2-.5.5-.9,1-1.2,1.5s-.6,1-.9,1.5c-.2.6-.4,1.2-.5,1.9-.1.7-.2,1.5-.2,2.5v14.1h-1.9v-25.7h1.9v5.7Z"/>
  <path d="M230.8,247.7h.1c.2-.6.5-1.3,1-2.1.5-.8,1.1-1.5,1.9-2.1.8-.7,1.7-1.2,2.8-1.6s2.3-.7,3.7-.7,3.7.4,5.1,1.1c1.4.7,2.6,1.7,3.6,3,.9,1.2,1.7,2.7,2.1,4.3.5,1.6.7,3.4.7,5.2s-.2,3.8-.7,5.4c-.5,1.6-1.2,3-2.1,4.2-1,1.2-2.2,2.1-3.6,2.8s-3.2,1-5.1,1-4-.5-5.7-1.4c-1.7-.9-2.9-2.4-3.7-4.5h0v14.5h-1.9v-34.9h1.9v5.9ZM240.2,266.4c1.7,0,3.1-.3,4.3-.9,1.2-.6,2.2-1.5,3-2.6.8-1.1,1.4-2.3,1.8-3.7.4-1.4.6-2.9.6-4.5s-.2-2.9-.6-4.3-.9-2.7-1.7-3.8c-.8-1.1-1.8-2-3-2.7s-2.7-1-4.4-1-3.2.3-4.4,1c-1.2.7-2.2,1.6-2.9,2.7s-1.3,2.4-1.6,3.8c-.3,1.4-.5,2.9-.5,4.4s.2,3,.5,4.4.8,2.7,1.5,3.8,1.7,1.9,2.9,2.6c1.2.7,2.7,1,4.5,1Z"/>
  <path d="M258.2,247.5h.1c.2-.8.7-1.6,1.3-2.3.6-.7,1.4-1.4,2.2-1.9s1.9-.9,3-1.2c1.1-.3,2.2-.4,3.4-.4v1.9c-1-.1-2.1,0-3.4.3-1.3.3-2.5,1.1-3.7,2.2-.5.5-.9,1-1.2,1.5-.3.5-.6,1-.9,1.5-.2.6-.4,1.2-.5,1.9-.1.7-.2,1.5-.2,2.5v14.1h-1.9v-25.7h1.9v5.7Z"/>
  <path d="M270.3,254.9v.3c0,1.5.2,2.9.6,4.3.4,1.4,1,2.6,1.8,3.6s1.8,1.8,3,2.4c1.2.6,2.6.9,4.1.9,2.6,0,4.6-.7,6.1-2,1.5-1.3,2.5-3.2,3.1-5.6h1.9c-.6,3-1.8,5.3-3.7,6.9-1.9,1.6-4.4,2.4-7.5,2.4s-3.6-.3-5-1c-1.4-.7-2.6-1.6-3.5-2.8s-1.7-2.6-2.1-4.2c-.5-1.6-.7-3.4-.7-5.2s.2-3.5.7-5.2c.5-1.6,1.2-3.1,2.2-4.3s2.2-2.2,3.6-3,3.2-1.1,5.1-1.1,3.4.3,4.8,1c1.4.7,2.5,1.6,3.5,2.7.9,1.2,1.6,2.5,2.1,4,.5,1.5.7,3.1.7,4.9s0,.4,0,.6c0,.2,0,.4,0,.5h-20.8ZM289.2,253.2c0-1.4-.3-2.7-.7-4s-1-2.4-1.8-3.3c-.8-.9-1.7-1.7-2.9-2.3-1.1-.6-2.4-.8-3.8-.8s-2.9.3-4.1.9c-1.2.6-2.2,1.3-3,2.3-.8.9-1.4,2.1-1.9,3.3-.4,1.3-.7,2.6-.8,3.9h18.9Z"/>
  <path d="M305,243.4h-5.6v18c0,1,.1,1.8.3,2.4.2.6.6,1.1,1.1,1.4.5.3,1.1.5,1.8.6.7,0,1.5,0,2.4,0v1.7c-1,0-1.9,0-2.8,0-.9,0-1.7-.3-2.4-.8-.7-.4-1.3-1-1.7-1.9-.4-.8-.6-2-.5-3.4v-18h-4.8v-1.7h4.8v-8h1.9v8h5.6v1.7Z"/>
  <path d="M308.9,236.9v-5.2h1.9v5.2h-1.9ZM308.9,267.5v-25.7h1.9v25.7h-1.9Z"/>
  <path d="M318.8,247.5h.1c.2-.8.7-1.6,1.3-2.3.6-.7,1.4-1.4,2.2-1.9s1.9-.9,3-1.2c1.1-.3,2.2-.4,3.4-.4v1.9c-1-.1-2.1,0-3.4.3-1.3.3-2.5,1.1-3.7,2.2-.5.5-.9,1-1.2,1.5-.3.5-.6,1-.9,1.5-.2.6-.4,1.2-.5,1.9-.1.7-.2,1.5-.2,2.5v14.1h-1.9v-25.7h1.9v5.7Z"/>
  <path d="M346.8,262.4h-.1c-.3.8-.7,1.5-1.3,2.2-.6.7-1.3,1.3-2.1,1.8s-1.7.9-2.8,1.2c-1,.3-2.2.4-3.4.4-2.7,0-4.9-.6-6.4-1.8-1.5-1.2-2.2-3-2.2-5.5s.3-2.7.9-3.7c.6-.9,1.4-1.7,2.3-2.2.9-.5,1.9-.9,3.1-1.2,1.1-.2,2.2-.4,3.2-.5l2.9-.2c1.4,0,2.4-.3,3.2-.5.8-.2,1.4-.5,1.8-.9.4-.4.7-.9.8-1.5.1-.6.2-1.4.2-2.2s-.1-1.4-.4-2c-.3-.6-.7-1.1-1.2-1.6s-1.3-.8-2.2-1.1-2-.4-3.3-.4c-2.3,0-4.2.6-5.6,1.7-1.4,1.1-2.2,2.9-2.3,5.2h-1.9c.1-2.8,1-5,2.7-6.4,1.7-1.4,4.1-2.1,7.2-2.1s5.4.6,6.8,1.8c1.4,1.2,2.1,2.8,2.1,4.8v15c0,.4,0,.7,0,1.1,0,.4,0,.7.2,1,0,.3.3.5.5.7.2.2.6.3,1,.3s.8,0,1.4-.2v1.6c-.5.1-1,.2-1.5.2-.8,0-1.4,0-1.8-.3-.5-.2-.8-.5-1-.8-.2-.3-.4-.7-.5-1.2s-.1-.9-.1-1.5v-1.3ZM346.8,252.9c-.5.6-1.2.9-2.1,1.1-1,.2-2,.4-3.2.5l-3.2.3c-.9.1-1.9.2-2.8.4-.9.2-1.8.5-2.5.9s-1.4,1-1.8,1.8c-.5.8-.7,1.7-.7,2.9,0,1.9.6,3.3,1.8,4.2,1.2.9,2.8,1.4,4.9,1.4s3.9-.4,5.2-1.2c1.3-.8,2.2-1.7,2.9-2.7.7-1,1.1-2,1.3-2.9.2-1,.3-1.6.3-1.9v-4.8Z"/>
  <path d="M8.4,307.7h.1c.2-.6.5-1.3,1-2.1.5-.8,1.1-1.5,1.9-2.1.8-.7,1.7-1.2,2.8-1.6,1.1-.4,2.3-.7,3.7-.7s3.7.4,5.1,1.1c1.4.7,2.6,1.7,3.6,3,.9,1.2,1.7,2.7,2.1,4.3.5,1.6.7,3.4.7,5.2s-.2,3.8-.7,5.4c-.5,1.6-1.2,3-2.1,4.2-1,1.2-2.2,2.1-3.6,2.8s-3.2,1-5.1,1-4-.5-5.7-1.4c-1.7-.9-2.9-2.4-3.7-4.5h0v14.5h-1.9v-34.9h1.9v5.9ZM17.8,326.4c1.7,0,3.1-.3,4.3-.9,1.2-.6,2.2-1.5,3-2.6.8-1.1,1.4-2.3,1.8-3.7.4-1.4.6-2.9.6-4.5s-.2-2.9-.6-4.3c-.4-1.4-.9-2.7-1.7-3.8-.8-1.1-1.8-2-3-2.7-1.2-.7-2.7-1-4.4-1s-3.2.3-4.4,1c-1.2.7-2.2,1.6-2.9,2.7s-1.3,2.4-1.6,3.8c-.3,1.4-.5,2.9-.5,4.4s.1,3,.5,4.4.8,2.7,1.5,3.8,1.7,1.9,2.9,2.6,2.7,1,4.5,1Z"/>
  <path d="M35.8,307.5h.1c.2-.8.7-1.6,1.3-2.3.6-.7,1.4-1.4,2.2-1.9.9-.5,1.9-.9,3-1.2,1.1-.3,2.2-.4,3.4-.4v1.9c-1-.1-2.1,0-3.4.3-1.3.3-2.5,1.1-3.7,2.2-.5.5-.9,1-1.2,1.5s-.6,1-.9,1.5c-.2.6-.4,1.2-.5,1.9-.1.7-.2,1.5-.2,2.5v14.1h-1.9v-25.7h1.9v5.7Z"/>
  <path d="M46,314.6c0-1.8.3-3.6.8-5.2.5-1.6,1.3-3,2.3-4.3,1-1.2,2.2-2.2,3.7-2.9,1.5-.7,3.1-1.1,5-1.1s3.6.4,5.1,1.1c1.5.7,2.7,1.7,3.7,2.9,1,1.2,1.8,2.7,2.3,4.3.5,1.6.8,3.3.8,5.2s-.3,3.6-.8,5.2c-.5,1.6-1.3,3.1-2.3,4.3s-2.2,2.2-3.7,2.9c-1.5.7-3.2,1.1-5.1,1.1s-3.6-.4-5-1.1c-1.5-.7-2.7-1.7-3.7-2.9s-1.8-2.6-2.3-4.3c-.5-1.6-.8-3.4-.8-5.2ZM47.9,314.6c0,1.5.2,3,.6,4.4.4,1.4,1.1,2.7,1.9,3.8.8,1.1,1.9,2,3.1,2.6,1.2.7,2.6,1,4.2,1s3-.3,4.2-1c1.2-.7,2.3-1.5,3.1-2.6.8-1.1,1.5-2.4,1.9-3.8.4-1.4.6-2.9.6-4.4s-.2-3-.6-4.4c-.4-1.4-1.1-2.7-1.9-3.8-.8-1.1-1.9-2-3.1-2.6-1.2-.7-2.6-1-4.2-1s-3,.3-4.2,1c-1.2.7-2.3,1.5-3.1,2.6-.8,1.1-1.5,2.4-1.9,3.8-.4,1.4-.6,2.9-.6,4.4Z"/>
  <path d="M74.9,318.9c0,1.2.3,2.3.8,3.2.5.9,1.1,1.7,1.8,2.3s1.6,1.1,2.6,1.5c1,.3,2.1.5,3.2.5s1.7,0,2.7-.2,1.8-.4,2.6-.8c.8-.4,1.5-1,2-1.7s.8-1.6.8-2.7-.4-2.5-1.3-3.2c-.9-.7-2-1.3-3.3-1.7-1.3-.4-2.7-.7-4.2-1-1.5-.2-2.9-.6-4.2-1.1-1.3-.5-2.4-1.2-3.3-2.1-.9-.9-1.3-2.3-1.3-4s.3-2.3.8-3.2c.6-.8,1.3-1.5,2.2-2,.9-.5,1.9-.9,3-1.1,1.1-.2,2.2-.3,3.3-.3s2.6.2,3.8.5c1.2.3,2.2.8,3,1.4.9.7,1.5,1.5,2,2.6.5,1,.7,2.3.7,3.8h-1.9c0-1.2-.2-2.2-.6-3-.4-.8-.9-1.5-1.6-2-.7-.5-1.5-.9-2.4-1.2-.9-.2-1.9-.4-3-.4s-1.7,0-2.6.2c-.9.2-1.7.4-2.4.8s-1.3.9-1.7,1.6c-.4.6-.7,1.4-.7,2.3s.2,1.9.8,2.5c.5.6,1.2,1.1,2,1.5.8.4,1.7.7,2.8.9,1,.2,2,.5,3.1.7,1.3.2,2.5.5,3.6.8,1.1.3,2.1.8,2.9,1.3.8.6,1.5,1.3,1.9,2.1.5.9.7,2,.7,3.3s-.3,2.5-1,3.4c-.6.9-1.4,1.6-2.4,2.2-1,.5-2,.9-3.2,1.2-1.2.2-2.3.3-3.5.3s-2.8-.2-4.1-.6-2.3-1-3.3-1.8c-.9-.8-1.7-1.7-2.2-2.9-.5-1.1-.8-2.5-.9-4h1.9ZM82.4,298l-5.8-7h1.9l4.9,5.8,4.9-5.8h1.9l-5.8,7h-2Z"/>
  <path d="M100.4,291.8v35.7h-1.9v-35.7h1.9Z"/>
  <path d="M105.3,314.6c0-1.8.3-3.6.8-5.2.5-1.6,1.3-3,2.3-4.3,1-1.2,2.2-2.2,3.7-2.9,1.5-.7,3.1-1.1,5-1.1s3.6.4,5.1,1.1c1.5.7,2.7,1.7,3.7,2.9,1,1.2,1.8,2.7,2.3,4.3.5,1.6.8,3.3.8,5.2s-.3,3.6-.8,5.2c-.5,1.6-1.3,3.1-2.3,4.3s-2.2,2.2-3.7,2.9c-1.5.7-3.2,1.1-5.1,1.1s-3.6-.4-5-1.1c-1.5-.7-2.7-1.7-3.7-2.9s-1.8-2.6-2.3-4.3c-.5-1.6-.8-3.4-.8-5.2ZM107.2,314.6c0,1.5.2,3,.6,4.4.4,1.4,1.1,2.7,1.9,3.8.8,1.1,1.9,2,3.1,2.6,1.2.7,2.6,1,4.2,1s3-.3,4.2-1c1.2-.7,2.3-1.5,3.1-2.6.8-1.1,1.5-2.4,1.9-3.8.4-1.4.6-2.9.6-4.4s-.2-3-.6-4.4c-.4-1.4-1.1-2.7-1.9-3.8-.8-1.1-1.9-2-3.1-2.6-1.2-.7-2.6-1-4.2-1s-3,.3-4.2,1c-1.2.7-2.3,1.5-3.1,2.6-.8,1.1-1.5,2.4-1.9,3.8-.4,1.4-.6,2.9-.6,4.4Z"/>
  <path d="M134.2,318.9c0,1.2.3,2.3.8,3.2.5.9,1.1,1.7,1.8,2.3s1.6,1.1,2.6,1.5c1,.3,2.1.5,3.2.5s1.7,0,2.7-.2,1.8-.4,2.6-.8c.8-.4,1.5-1,2-1.7s.8-1.6.8-2.7-.4-2.5-1.3-3.2c-.9-.7-2-1.3-3.3-1.7-1.3-.4-2.7-.7-4.2-1-1.5-.2-2.9-.6-4.2-1.1-1.3-.5-2.4-1.2-3.3-2.1-.9-.9-1.3-2.3-1.3-4s.3-2.3.8-3.2c.6-.8,1.3-1.5,2.2-2,.9-.5,1.9-.9,3-1.1,1.1-.2,2.2-.3,3.3-.3s2.6.2,3.8.5c1.2.3,2.2.8,3,1.4.9.7,1.5,1.5,2,2.6.5,1,.7,2.3.7,3.8h-1.9c0-1.2-.2-2.2-.6-3-.4-.8-.9-1.5-1.6-2-.7-.5-1.5-.9-2.4-1.2-.9-.2-1.9-.4-3-.4s-1.7,0-2.6.2c-.9.2-1.7.4-2.4.8s-1.3.9-1.7,1.6c-.4.6-.7,1.4-.7,2.3s.2,1.9.8,2.5c.5.6,1.2,1.1,2,1.5.8.4,1.7.7,2.8.9,1,.2,2,.5,3.1.7,1.3.2,2.5.5,3.6.8,1.1.3,2.1.8,2.9,1.3.8.6,1.5,1.3,1.9,2.1.5.9.7,2,.7,3.3s-.3,2.5-1,3.4c-.6.9-1.4,1.6-2.4,2.2-1,.5-2,.9-3.2,1.2-1.2.2-2.3.3-3.5.3s-2.8-.2-4.1-.6-2.3-1-3.3-1.8c-.9-.8-1.7-1.7-2.2-2.9-.5-1.1-.8-2.5-.9-4h1.9Z"/>
  <path d="M166.8,303.4h-5.6v18c0,1,.1,1.8.4,2.4.2.6.6,1.1,1.1,1.4.5.3,1.1.5,1.8.6.7,0,1.5,0,2.4,0v1.7c-1,0-1.9,0-2.8,0-.9,0-1.7-.3-2.4-.8-.7-.4-1.3-1-1.7-1.9-.4-.8-.6-2-.5-3.4v-18h-4.8v-1.7h4.8v-8h1.9v8h5.6v1.7Z"/>
</svg>