<?xml version="1.0" encoding="UTF-8"?>
<svg id="Layer_1" xmlns="http://www.w3.org/2000/svg" version="1.1" viewBox="0 0 443 167.3">
  <!-- Generator: Adobe Illustrator 29.3.1, SVG Export Plug-In . SVG Version: 2.1.0 Build 151)  -->
  <path d="M30.4,59.9c-1.9,0-4.2,0-7-.3-2.8-.2-5.4-.3-7.7-.3s-4.1,0-6.1,0c-1.9,0-3.7,0-5.2,0s-.2-.2-.2-.5,0-.5.2-.5c1.8,0,3.2-.1,4.1-.4.9-.3,1.5-.9,1.8-1.8.3-.9.5-2.2.5-3.9V11.8c0-1.7-.1-3-.4-3.8-.3-.8-.9-1.4-1.8-1.8-.9-.3-2.2-.5-4-.5s-.3-.2-.3-.5,0-.5.3-.5c1.5,0,3.2,0,5.1.1,1.9,0,3.9.1,6.1.1s4.4,0,6.9-.2c2.5-.1,4.7-.2,6.5-.2,6.1,0,11.4,1.2,15.9,3.5,4.5,2.3,8,5.5,10.5,9.6,2.5,4,3.8,8.6,3.8,13.6s-.8,8.3-2.3,11.9c-1.5,3.5-3.6,6.5-6.3,9-2.7,2.5-5.8,4.4-9.3,5.7-3.5,1.3-7.2,2-11.1,2ZM29.5,57.9c3.7,0,7-.9,9.8-2.9,2.9-1.9,5.1-4.7,6.8-8.4,1.6-3.7,2.5-8.2,2.5-13.5s-.8-9.5-2.3-13.5c-1.5-4-3.7-7.2-6.4-9.6-2.7-2.4-6-3.6-9.8-3.6s-5.8.3-7.3,1c-1.5.6-2.2,2.2-2.2,4.6v39.5c0,2.2.6,3.8,1.7,4.8,1.1,1.1,3.6,1.6,7.2,1.6Z"/>
  <path d="M67.1,59.5c-.2,0-.3-.2-.3-.5s0-.5.3-.5c1.8,0,3-.4,3.7-1.3.6-.8,1-2.4,1-4.8v-16.5c0-1.8-.2-3.1-.6-4-.4-.8-1.1-1.3-2.1-1.3s-1.1.1-1.8.3c-.7.2-1.5.5-2.4.9-.2.1-.4,0-.5-.4-.1-.4-.1-.6,0-.6l12.2-6c.4-.1.6-.2.6-.2.6,0,1.3.7,1.9,2.1.6,1.4,1,3.4,1,6.1v19.5c0,2.3.3,3.9,1,4.8.7.8,1.9,1.3,3.7,1.3s.3.2.3.5,0,.5-.3.5c-1.2,0-2.5,0-4,0-1.5,0-3.1,0-4.8,0s-3.2,0-4.7,0c-1.5,0-2.9,0-4,0ZM90.6,59.5c-.2,0-.3-.2-.3-.5s0-.5.3-.5c1.8,0,3-.4,3.7-1.3.6-.8,1-2.4,1-4.8v-12.6c0-3.2-.6-5.5-1.7-7-1.1-1.5-2.9-2.3-5.4-2.3s-3.6.4-5.4,1.3c-1.8.9-3.3,2.1-4.4,3.6l-.4-1.1c2-2.9,4.4-5.3,6.9-7.1,2.6-1.8,5.4-2.7,8.4-2.7s5.8,1,7.6,3.1c1.8,2,2.7,4.7,2.7,7.9v16.8c0,2.3.3,3.9,1,4.8.7.8,1.9,1.3,3.7,1.3s.3.2.3.5,0,.5-.3.5c-1.2,0-2.5,0-4,0-1.5,0-3.1,0-4.8,0s-3.2,0-4.7,0c-1.5,0-2.9,0-4,0Z"/>
  <path d="M130.4,60.6c-3.8,0-7-.8-9.7-2.4-2.7-1.6-4.7-3.7-6.1-6.3-1.4-2.6-2.1-5.4-2.1-8.3s.9-6.6,2.6-9.4c1.8-2.8,4.1-5.1,7.1-6.8s6.4-2.5,10.2-2.5,6.4.8,8.3,2.3c1.9,1.5,2.9,3.7,2.9,6.4s0,1.2-.2,1.8c-.1.5-.4.8-.8.8h-8.4c.1-2.7-.2-5-1-6.8-.8-1.8-2.1-2.7-4.1-2.7s-4.2,1.2-5.7,3.6c-1.5,2.4-2.2,5.7-2.2,9.7s.5,6.1,1.6,8.6c1.1,2.5,2.6,4.4,4.6,5.7,2,1.3,4.4,2,7.2,2s2.9-.2,4.5-.6c1.6-.4,3.1-1,4.3-1.8.1-.1.3,0,.5.2.2.2.2.4.1.6-2.2,2.2-4.4,3.7-6.6,4.6-2.3.9-4.7,1.4-7.2,1.4ZM118.4,36.3v-1.7c0,0,19.1-.4,19.1-.4v1.9l-19.1.2Z"/>
  <path d="M186.2,25.7c.1,0,.2.2.2.5s0,.5-.2.5c-1.7,0-3.2.6-4.5,1.9-1.3,1.3-2.6,3.3-3.7,6l-10.8,24.9c-.1.3-.4.4-.9.4s-.8-.1-1-.4l-13.4-26.6c-1.3-2.7-2.4-4.4-3.3-5.1-.9-.7-2-1.1-3.3-1.1s-.3-.2-.3-.5,0-.5.3-.5c1,0,2.1,0,3.4,0,1.3,0,3,0,5.1,0s4.4,0,6.1,0c1.7,0,3.3,0,4.7,0s.3.2.3.5,0,.5-.3.5c-1.8,0-3.2.2-4.2.7-1,.5-1.1,1.4-.4,2.7l10.5,19.8-4.5,7.7,9.6-23.2c1-2.4,1-4.3,0-5.7s-2.6-2.1-5-2.1-.2-.2-.2-.5,0-.5.2-.5c1.4,0,2.7,0,4,0,1.3,0,2.9,0,4.9,0s2.6,0,3.5,0c.9,0,2,0,3.3,0Z"/>
  <path d="M188.4,59.5c-.2,0-.3-.2-.3-.5s0-.5.3-.5c1.8,0,3-.4,3.7-1.3.6-.8,1-2.4,1-4.8v-16.5c0-1.8-.2-3.1-.6-4-.4-.8-1.1-1.3-2.1-1.3s-1.1.1-1.8.3c-.7.2-1.5.5-2.4.9-.2.1-.4,0-.5-.4-.1-.4-.1-.6,0-.6l12.2-6c.4-.1.6-.2.6-.2.6,0,1.3.7,1.9,2.1.6,1.4,1,3.4,1,6.1v19.5c0,2.3.3,3.9,1,4.8.7.8,1.9,1.3,3.7,1.3s.3.2.3.5,0,.5-.3.5c-1.2,0-2.5,0-4,0-1.5,0-3.1,0-4.8,0s-3.2,0-4.7,0c-1.5,0-2.9,0-4,0ZM212,59.5c-.2,0-.3-.2-.3-.5s0-.5.3-.5c1.8,0,3-.4,3.7-1.3.6-.8,1-2.4,1-4.8v-12.6c0-3.2-.6-5.5-1.7-7-1.1-1.5-2.9-2.3-5.4-2.3s-3.6.4-5.4,1.3c-1.8.9-3.3,2.1-4.4,3.6l-.4-1.1c2-2.9,4.4-5.3,6.9-7.1,2.6-1.8,5.4-2.7,8.4-2.7s5.8,1,7.6,3.1c1.8,2,2.7,4.7,2.7,7.9v16.8c0,2.3.3,3.9,1,4.8.7.8,1.9,1.3,3.7,1.3s.3.2.3.5,0,.5-.3.5c-1.2,0-2.5,0-4,0-1.5,0-3.1,0-4.8,0s-3.2,0-4.7,0c-1.5,0-2.9,0-4,0Z"/>
  <path d="M251.8,60.6c-3.8,0-7-.8-9.7-2.4-2.7-1.6-4.7-3.7-6.1-6.3-1.4-2.6-2.1-5.4-2.1-8.3s.9-6.6,2.6-9.4c1.8-2.8,4.1-5.1,7.1-6.8s6.4-2.5,10.2-2.5,6.4.8,8.3,2.3c1.9,1.5,2.9,3.7,2.9,6.4s0,1.2-.2,1.8c-.1.5-.4.8-.8.8h-8.4c.1-2.7-.2-5-1-6.8-.8-1.8-2.1-2.7-4.1-2.7s-4.2,1.2-5.7,3.6c-1.5,2.4-2.2,5.7-2.2,9.7s.5,6.1,1.6,8.6c1.1,2.5,2.6,4.4,4.6,5.7,2,1.3,4.4,2,7.2,2s2.9-.2,4.5-.6c1.6-.4,3.1-1,4.3-1.8.1-.1.3,0,.5.2.2.2.2.4.1.6-2.2,2.2-4.4,3.7-6.6,4.6-2.3.9-4.7,1.4-7.2,1.4ZM239.7,36.3v-1.7c0,0,19.1-.4,19.1-.4v1.9l-19.1.2Z"/>
  <path d="M23.9,147.2h-4.1L1.6,102.2h3.9l16.3,41.2h.2l15.3-41.2h3.7l-17,45.1Z"/>
  <path d="M75.6,138.3h-.2c-.5,1.3-1.3,2.6-2.3,3.8-1,1.2-2.2,2.3-3.6,3.2-1.4.9-3.1,1.7-4.9,2.2-1.8.5-3.8.8-6,.8-4.8,0-8.5-1-11.1-3.1-2.6-2.1-3.9-5.3-3.9-9.6s.5-4.8,1.6-6.4c1.1-1.7,2.4-3,4-3.9,1.6-1,3.4-1.7,5.4-2.1,2-.4,3.8-.7,5.7-.9l5.2-.4c2.4-.2,4.3-.5,5.7-.8,1.4-.4,2.4-.9,3.1-1.6.7-.7,1.1-1.5,1.3-2.6s.3-2.4.3-3.9-.2-2.4-.7-3.4c-.5-1.1-1.2-2-2.2-2.8-1-.8-2.3-1.5-3.9-1.9-1.6-.5-3.5-.7-5.8-.7-4,0-7.3,1-9.8,3-2.5,2-3.8,5-4.1,9h-3.3c.2-5,1.8-8.7,4.8-11.2,3-2.5,7.1-3.7,12.6-3.7s9.4,1.1,11.9,3.2c2.5,2.1,3.7,4.9,3.7,8.4v26.2c0,.6,0,1.3,0,1.9,0,.6.1,1.2.3,1.8.2.5.5,1,.9,1.3.4.3,1,.5,1.8.5s1.4,0,2.5-.3v2.8c-.9.2-1.8.4-2.7.4-1.3,0-2.4-.2-3.2-.5-.8-.4-1.4-.8-1.8-1.4-.4-.6-.7-1.3-.8-2.1-.1-.8-.2-1.7-.2-2.6v-2.4ZM75.6,121.6c-.8,1-2.1,1.7-3.7,2-1.7.4-3.5.6-5.6.8l-5.6.5c-1.6.2-3.3.4-4.9.7-1.6.3-3.1.9-4.4,1.6-1.3.8-2.4,1.8-3.2,3.1-.8,1.3-1.2,3-1.2,5.1,0,3.3,1.1,5.8,3.2,7.4,2.1,1.6,5,2.4,8.7,2.4s6.8-.7,9-2.1c2.2-1.4,3.9-3,5.1-4.7,1.2-1.8,1.9-3.5,2.2-5.2.3-1.7.5-2.8.5-3.4v-8.4Z"/>
  <path d="M92.8,112.2h.3c.4-1.5,1.2-2.8,2.2-4.1,1.1-1.3,2.4-2.4,3.9-3.3,1.5-.9,3.3-1.7,5.2-2.1,1.9-.5,3.9-.7,5.9-.7v3.3c-1.8-.2-3.8,0-6,.5-2.3.6-4.4,1.9-6.4,3.9-.8.9-1.5,1.7-2.1,2.5-.6.8-1.1,1.7-1.5,2.7-.4,1-.7,2.1-1,3.3-.2,1.2-.4,2.7-.4,4.4v24.6h-3.3v-45.1h3.3v10Z"/>
  <path d="M114.7,93.7v-9h3.3v9h-3.3ZM114.7,147.2v-45.1h3.3v45.1h-3.3Z"/>
  <path d="M132.7,102.2v49.9c0,1.5-.1,3-.4,4.3-.2,1.4-.7,2.6-1.4,3.6-.7,1-1.6,1.8-2.8,2.5-1.2.6-2.8.9-4.7.9h-2.1c-.2,0-.5,0-.7,0v-3c.3,0,.6.1,1,.1.4,0,.8,0,1.2,0,1.2,0,2.2-.1,3-.4.8-.3,1.5-.7,2-1.4.5-.7.9-1.6,1.1-2.7.2-1.1.4-2.6.4-4.2v-49.6h3.3ZM129.4,93.7v-9h3.3v9h-3.3Z"/>
  <path d="M173.3,138.3h-.2c-.5,1.3-1.3,2.6-2.3,3.8-1,1.2-2.2,2.3-3.6,3.2-1.4.9-3.1,1.7-4.9,2.2-1.8.5-3.8.8-6,.8-4.8,0-8.5-1-11.1-3.1-2.6-2.1-3.9-5.3-3.9-9.6s.5-4.8,1.6-6.4c1.1-1.7,2.4-3,4-3.9,1.6-1,3.4-1.7,5.4-2.1,2-.4,3.8-.7,5.7-.9l5.2-.4c2.4-.2,4.3-.5,5.7-.8,1.4-.4,2.4-.9,3.1-1.6.7-.7,1.1-1.5,1.3-2.6s.3-2.4.3-3.9-.2-2.4-.7-3.4c-.5-1.1-1.2-2-2.2-2.8-1-.8-2.3-1.5-3.9-1.9-1.6-.5-3.5-.7-5.8-.7-4,0-7.3,1-9.8,3-2.5,2-3.8,5-4.1,9h-3.3c.2-5,1.8-8.7,4.8-11.2,3-2.5,7.1-3.7,12.6-3.7s9.4,1.1,11.9,3.2c2.5,2.1,3.7,4.9,3.7,8.4v26.2c0,.6,0,1.3,0,1.9,0,.6.1,1.2.3,1.8.2.5.5,1,.9,1.3.4.3,1,.5,1.8.5s1.4,0,2.5-.3v2.8c-.9.2-1.8.4-2.7.4-1.3,0-2.4-.2-3.2-.5-.8-.4-1.4-.8-1.8-1.4-.4-.6-.7-1.3-.8-2.1-.1-.8-.2-1.7-.2-2.6v-2.4ZM173.3,121.6c-.8,1-2.1,1.7-3.7,2-1.7.4-3.5.6-5.6.8l-5.6.5c-1.6.2-3.3.4-4.9.7-1.6.3-3.1.9-4.4,1.6-1.3.8-2.4,1.8-3.2,3.1-.8,1.3-1.2,3-1.2,5.1,0,3.3,1.1,5.8,3.2,7.4,2.1,1.6,5,2.4,8.7,2.4s6.8-.7,9-2.1c2.2-1.4,3.9-3,5.1-4.7,1.2-1.8,1.9-3.5,2.2-5.2.3-1.7.5-2.8.5-3.4v-8.4Z"/>
  <path d="M187.2,102.2h3.3v9.6h.2c.6-1.7,1.4-3.2,2.5-4.5,1.1-1.3,2.3-2.4,3.8-3.4,1.4-.9,3-1.6,4.7-2.1,1.7-.5,3.4-.7,5.2-.7,2.6,0,4.9.3,6.7,1,1.8.6,3.3,1.5,4.5,2.5,1.2,1.1,2.1,2.2,2.8,3.6.7,1.3,1.2,2.6,1.4,4,.3,1.3.5,2.6.5,3.9,0,1.3,0,2.4,0,3.3v27.9h-3.3v-28.5c0-1.1,0-2.5-.3-4.2-.2-1.7-.7-3.3-1.5-4.9-.8-1.5-2.1-2.9-3.9-4-1.7-1.1-4.1-1.7-7.1-1.7s-4.9.5-6.8,1.4c-2,.9-3.7,2.2-5.1,3.9-1.4,1.7-2.5,3.7-3.2,6-.7,2.3-1.1,4.8-1.1,7.6v24.4h-3.3v-45.1Z"/>
  <path d="M249.3,105.1h-9.8v31.5c0,1.8.2,3.2.6,4.3.4,1.1,1,1.9,1.9,2.4.8.6,1.9.9,3.1,1,1.2.1,2.6.1,4.2,0v2.9c-1.7.1-3.3.1-5,0-1.6-.1-3-.6-4.3-1.3-1.2-.7-2.2-1.8-2.9-3.3-.7-1.5-1-3.5-.9-6.1v-31.5h-8.3v-2.9h8.3v-14h3.3v14h9.8v2.9Z"/>
  <path d="M255.4,125.1v.5c0,2.6.4,5.1,1.1,7.5.7,2.4,1.7,4.5,3.1,6.3,1.4,1.8,3.1,3.2,5.2,4.3,2.1,1.1,4.5,1.6,7.3,1.6,4.5,0,8.1-1.2,10.7-3.6,2.6-2.4,4.5-5.7,5.5-9.9h3.3c-1,5.3-3.1,9.3-6.4,12.1-3.3,2.8-7.7,4.2-13.1,4.2s-6.2-.6-8.7-1.8c-2.5-1.2-4.6-2.8-6.2-4.9-1.7-2.1-2.9-4.5-3.7-7.4-.8-2.8-1.2-5.9-1.2-9.2s.4-6.2,1.3-9.1c.8-2.9,2.1-5.4,3.8-7.6,1.7-2.2,3.8-3.9,6.4-5.3s5.5-2,9-2,5.9.6,8.4,1.8c2.4,1.2,4.5,2.8,6.1,4.8,1.6,2,2.9,4.4,3.7,7,.8,2.7,1.3,5.5,1.3,8.6s0,.6,0,1c0,.4,0,.7,0,.9h-36.5ZM288.6,122.2c-.1-2.5-.5-4.8-1.2-7-.7-2.2-1.7-4.1-3.1-5.8-1.4-1.7-3-3-5-4-2-1-4.2-1.5-6.7-1.5s-5.1.5-7.1,1.5c-2.1,1-3.8,2.4-5.2,4-1.4,1.7-2.5,3.6-3.3,5.8-.8,2.2-1.2,4.5-1.4,6.8h33.1Z"/>
</svg>