<?xml version="1.0" encoding="utf-8"?>
<!-- Generator: Adobe Illustrator 27.0.0, SVG Export Plug-In . SVG Version: 6.00 Build 0)  -->
<svg version="1.1" id="Layer_1" xmlns="http://www.w3.org/2000/svg" xmlns:xlink="http://www.w3.org/1999/xlink" x="0px" y="0px"
	 viewBox="0 0 1600 1200" style="enable-background:new 0 0 1600 1200;" xml:space="preserve">
<style type="text/css">
	.st0{fill:#F2F2F2;}
	.st1{fill:none;stroke:#B1B5BA;stroke-miterlimit:10;}
	.st2{fill:#D1D3D4;}
	.st3{fill:#E0E0E0;}
	.st4{fill:#939598;}
	.st5{fill:#FFFFFF;}
	.st6{fill:#BCBEC0;}
	.st7{fill:#E6E7E8;}
	.st8{fill:#A7A9AC;}
	.st9{fill:#84888F;}
	.st10{opacity:0.9;fill:#FFFFFF;enable-background:new    ;}
	.st11{fill:#B0B4B9;}
	.st12{opacity:0.5;fill:#FFFFFF;enable-background:new    ;}
	.st13{fill:#E20074;}
	.st14{fill:#DBDBDB;}
	.st15{opacity:0.5;fill:#58595B;enable-background:new    ;}
	.st16{fill:#D8DBDD;}
	.st17{opacity:0.7;fill:#FFFFFF;enable-background:new    ;}
	.st18{fill:#231F20;}
	.st19{opacity:0.15;enable-background:new    ;}
	.st20{fill:#FA9B9B;}
	.st21{opacity:0.15;fill:#231F20;enable-background:new    ;}
	.st22{fill:#FC9D9D;}
	.st23{opacity:0.3;fill:#231F20;enable-background:new    ;}
	.st24{opacity:0.3;}
	.st25{opacity:0.3;enable-background:new    ;}
	.st26{fill:#FFFFFF;stroke:#FFFFFF;stroke-miterlimit:10;}
	.st27{fill:none;stroke:#FFFFFF;stroke-miterlimit:10;}
	.st28{fill:none;stroke:#FFFFFF;stroke-linecap:round;stroke-miterlimit:10;stroke-dasharray:1,1;}
	.st29{opacity:0.5;enable-background:new    ;}
	.st30{fill:#808285;}
	.st31{fill:#61656D;}
	.st32{fill:none;stroke:#231F20;stroke-miterlimit:10;}
	.st33{fill:#3F4249;}
	.st34{opacity:0.4;fill:#FFFFFF;enable-background:new    ;}
	.st35{opacity:0.2;enable-background:new    ;}
	.st36{fill:none;stroke:#FFFFFF;stroke-width:0.5;stroke-miterlimit:10;}
	.st37{fill:none;stroke:#FFFFFF;stroke-width:0.5;stroke-linecap:round;stroke-miterlimit:10;}
	.st38{fill:#FFFFFF;stroke:#231F20;stroke-miterlimit:10;}
	.st39{fill:#FA898F;}
	.st40{opacity:0.2;fill:#FFFFFF;enable-background:new    ;}
	.st41{fill:#231F20;stroke:#231F20;stroke-miterlimit:10;}
	.st42{opacity:0.5;fill:#231F20;enable-background:new    ;}
	.st43{opacity:0.4;fill:#231F20;enable-background:new    ;}
	.st44{opacity:0.7;fill:#231F20;enable-background:new    ;}
	.st45{fill:#C46F69;}
	.st46{fill:#25282F;}
	.st47{fill:#21252B;}
	.st48{opacity:0.2;fill:#21252B;enable-background:new    ;}
</style>
<path class="st0" d="M250.4,1049.2l-49.5-559.1c-1.3-14.3,3.1-28.5,12.1-39.6l228.6-280.8c5.8-7.1,13.2-12.6,21.6-16.1
	s17.6-4.8,26.7-3.9l699.2,71.9c9.7,1,18.9,4.5,26.8,10.3c7.9,5.7,14.1,13.5,18,22.4l161,368.4c4.2,9.7,5.6,20.4,3.9,30.8
	l-64.1,395.8L250.4,1049.2z"/>
<path class="st1" d="M1395.7,1047.3H182.3"/>
<path class="st2" d="M281.5,919.4v39h57.1h63v-39H281.5z"/>
<path class="st3" d="M276.8,908.5v10.9H406v-10.9h-67.1H276.8z"/>
<path class="st4" d="M340.9,958.4h60.4v-39h4.2v-10.9h-64.9L340.9,958.4z"/>
<path class="st5" d="M326.4,938.9h-31.2v12.4h31.2V938.9z"/>
<path class="st6" d="M340.7,908.5h-64.2v10.9h64.2V908.5z"/>
<path class="st4" d="M334,469h-20.8v84.3H334V469z"/>
<path class="st7" d="M330.5,473.2h-13.8v49.3h13.8V473.2z"/>
<path class="st2" d="M323.6,533.1c1.8,0,3.3-1.5,3.3-3.3c0-1.8-1.5-3.3-3.3-3.3c-1.8,0-3.3,1.5-3.3,3.3
	C320.3,531.7,321.8,533.1,323.6,533.1z"/>
<path class="st6" d="M354.7,469H334v84.3h20.8V469z"/>
<path class="st7" d="M351.2,473.2h-13.8v49.3h13.8V473.2z"/>
<path class="st2" d="M344.3,533.1c1.8,0,3.3-1.5,3.3-3.3c0-1.8-1.5-3.3-3.3-3.3c-1.8,0-3.3,1.5-3.3,3.3
	C341.1,531.7,342.5,533.1,344.3,533.1z"/>
<path class="st2" d="M375.5,469h-20.8v84.3h20.8V469z"/>
<path class="st7" d="M372,473.2h-13.8v49.3H372V473.2z"/>
<path class="st8" d="M365.1,533.1c1.8,0,3.3-1.5,3.3-3.3c0-1.8-1.5-3.3-3.3-3.3c-1.8,0-3.3,1.5-3.3,3.3
	C361.8,531.7,363.3,533.1,365.1,533.1z"/>
<path class="st4" d="M333,619.8h-18V693h18V619.8z"/>
<path class="st7" d="M330,623.5h-12v42.8h12V623.5z"/>
<path class="st2" d="M324,675.5c1.6,0,2.8-1.3,2.8-2.9c0-1.6-1.3-2.8-2.8-2.8s-2.9,1.3-2.9,2.8C321.2,674.2,322.4,675.5,324,675.5z"
	/>
<path class="st6" d="M351.1,619.8h-18V693h18V619.8z"/>
<path class="st7" d="M348.1,623.5h-12v42.8h12V623.5z"/>
<path class="st2" d="M342.1,675.5c1.6,0,2.9-1.3,2.9-2.9c0-1.6-1.3-2.8-2.9-2.8s-2.9,1.3-2.9,2.8
	C339.2,674.2,340.5,675.5,342.1,675.5z"/>
<path class="st2" d="M369.1,619.8h-18V693h18V619.8z"/>
<path class="st7" d="M366.1,623.5h-12v42.8h12V623.5z"/>
<path class="st8" d="M360.1,675.5c1.6,0,2.9-1.3,2.9-2.9c0-1.6-1.3-2.8-2.9-2.8c-1.6,0-2.8,1.3-2.8,2.8
	C357.2,674.2,358.5,675.5,360.1,675.5z"/>
<path class="st6" d="M305.4,630.9L276,688l9.3,4.8l29.5-57.1L305.4,630.9z"/>
<path class="st2" d="M401.3,919.3v3.4l0.1-0.6l0.6-2.7v-0.1H401.3z M401.3,919.3v3.4l0.1-0.6l0.6-2.7v-0.1H401.3z M420.3,430v122.8
	h-30.7V430h-14.1v122.8H271.9V430h-14.1v122.8h-28V430h-14.1v615h14.1v-75h28v75h14.1v-75h103.5v75h14.1v-75h30.7v75h14.1V430H420.3
	z M229.8,578.1l12.6,52.2l-12.6,51.3V578.1z M245,641.1l12.4,51.4h-24.9L245,641.1z M229.8,843.6l12.6,52.2l-12.6,51.3V843.6z
	 M232.7,835.2h24.7L245,885.2L232.7,835.2z M232.7,957.7l12.3-51.1l12.4,51.1H232.7z M257.9,937.4l-10.2-41.5l10.2-42.3V937.4z
	 M257.9,822.9h-28V705.2h28V822.9z M257.9,671.9l-10.2-41.5l10.2-42.3L257.9,671.9z M257.9,567.6L245,619.8l-13.4-54.4h26.2
	L257.9,567.6z M418.6,565.3l-13.4,54.4l-13.4-54.4H418.6z M417.6,692.5h-24.8l12.4-51.4L417.6,692.5z M389.6,576.4l13,53.9l-13,52.9
	V576.4z M389.6,841.9l13,53.9l-3.1,12.6v0.1l-2.7,10.8v0.1l-7.2,29.3L389.6,841.9z M392.9,835.2h24.7l-12.3,50.1L392.9,835.2z
	 M271.9,565.3h103.5v127.2H271.9V565.3z M271.9,705.2h103.5v117.6H271.9V705.2z M271.9,835.2h103.5v122.5H271.9V835.2z M392.9,957.7
	l8.4-34.9l0.1-0.6l0.6-2.7v-0.1l2.6-10.8v-0.1l0.5-1.9l0.5,2l0.3,1.2l11.6,47.9L392.9,957.7z M420.3,946.5l-12.5-50.7l12.5-51.7
	V946.5z M420.3,822.9h-30.7V705.2h30.7V822.9z M420.3,681l-12.5-50.7l12.5-51.7V681z M401.3,919.3v3.4l0.2-0.6l0.6-2.7v-0.1H401.3z
	 M401.3,919.3v3.4l0.2-0.6l0.6-2.7v-0.1H401.3z"/>
<path class="st9" d="M440.8,313.2c0-8.8,3.3-17.4,9.2-24c5.9-6.6,14-10.8,22.8-11.8v-0.2h4c4.9-0.2,9.7,0.5,14.3,2.2
	c4.6,1.7,8.7,4.3,12.3,7.7c3.5,3.4,6.3,7.4,8.2,11.9c1.9,4.5,2.9,9.3,2.9,14.2c0,4.9-1,9.7-2.9,14.2c-1.9,4.5-4.7,8.5-8.2,11.9
	c-3.5,3.4-7.7,6-12.3,7.7c-4.6,1.7-9.4,2.5-14.3,2.2h-4V349c-8.8-1-16.9-5.2-22.8-11.8C444.1,330.6,440.8,322.1,440.8,313.2
	L440.8,313.2z"/>
<path class="st8" d="M472.8,349.2c19.9,0,36-16.1,36-36c0-19.9-16.1-36-36-36c-19.9,0-36,16.1-36,36
	C436.9,333.1,452.9,349.2,472.8,349.2z"/>
<path class="st5" d="M472.8,345.2c17.7,0,32-14.3,32-32c0-17.7-14.3-32-32-32c-17.7,0-32,14.3-32,32
	C440.8,330.9,455.1,345.2,472.8,345.2z"/>
<path class="st9" d="M472.8,345.2c17.7,0,32-14.3,32-32c0-17.7-14.3-32-32-32c-17.7,0-32,14.3-32,32
	C440.8,330.9,455.1,345.2,472.8,345.2z"/>
<path class="st10" d="M472.8,345.2c17.7,0,32-14.3,32-32c0-17.7-14.3-32-32-32c-17.7,0-32,14.3-32,32
	C440.8,330.9,455.1,345.2,472.8,345.2z"/>
<path class="st11" d="M472.8,281.3c0.6,0,1.2,0,1.8,0.1c-8.1,0.6-15.6,4.2-21.1,10.1c-5.5,5.9-8.5,13.7-8.5,21.8
	c0,8.1,3,15.8,8.5,21.8c5.5,5.9,13,9.5,21.1,10.1c-0.6,0-1.1,0.1-1.8,0.1c-8.5,0-16.6-3.4-22.6-9.4c-6-6-9.4-14.1-9.4-22.6
	s3.4-16.6,9.4-22.6C456.2,284.6,464.3,281.2,472.8,281.3L472.8,281.3z"/>
<path class="st12" d="M445.4,329.7c-2.9-4.9-4.5-10.4-4.6-16.1c-0.1-5.7,1.3-11.2,4.1-16.2c2.8-4.9,6.8-9,11.7-11.9
	c4.9-2.9,10.5-4.4,16.1-4.4c0.9,0,1.8,0.1,2.6,0.1L445.4,329.7z"/>
<path class="st12" d="M480.3,282.1c1.5,0.4,3,0.9,4.5,1.4l-33.1,53.7c-1.3-1.1-2.5-2.4-3.6-3.7L480.3,282.1z"/>
<path class="st13" d="M472.5,315.7l10.6-21.1c0.2-0.4,0.2-0.8,0.1-1.3s-0.4-0.8-0.8-1c-0.4-0.2-0.8-0.2-1.3-0.1
	c-0.4,0.1-0.8,0.4-1,0.8l-9.1,18.2l-12.1-6c-0.4-0.1-0.8-0.1-1.2,0c-0.4,0.2-0.7,0.5-0.9,0.8c-0.2,0.4-0.2,0.8-0.1,1.2
	c0.1,0.4,0.4,0.7,0.7,0.9L472.5,315.7z"/>
<path class="st11" d="M1117.8,440.5h58.7v-85.1h-58.7V440.5z"/>
<path class="st5" d="M1114.6,440.5h58.7v-85.1h-58.7V440.5z"/>
<path class="st14" d="M1121.9,431.1h44.3v-66.7h-44.3V431.1z"/>
<path class="st13" d="M1136.7,401.9c2.8,0,5.1-2.3,5.1-5.1s-2.3-5.1-5.1-5.1c-2.8,0-5.1,2.3-5.1,5.1S1133.8,401.9,1136.7,401.9z"/>
<path class="st15" d="M1136.7,418.7h14.8v-41.9h-14.8V418.7z"/>
<path class="st5" d="M1095.1,390h-62.9v87.6h62.9V390z"/>
<path class="st11" d="M1097.7,390.1h-2.7v87.6h2.7V390.1z"/>
<path class="st16" d="M1087.2,398.5h-47.1v70.9h47.1V398.5z"/>
<path class="st11" d="M1004.9,532.4H603.7c-0.2,0-0.4,0-0.5-0.1c-0.2-0.1-0.3-0.2-0.4-0.3c-0.1-0.1-0.2-0.3-0.3-0.4
	c-0.1-0.2-0.1-0.3-0.1-0.5V280.5c0-0.4,0.1-0.7,0.4-0.9s0.6-0.4,0.9-0.4h401.2c0.4,0,0.7,0.1,1,0.4s0.4,0.6,0.4,0.9v250.5
	c0,0.2,0,0.4-0.1,0.5c-0.1,0.2-0.2,0.3-0.3,0.4c-0.1,0.1-0.3,0.2-0.4,0.3C1005.2,532.4,1005,532.4,1004.9,532.4z"/>
<path class="st5" d="M1000.2,532.4H599.1c-0.2,0-0.4,0-0.5-0.1c-0.2-0.1-0.3-0.2-0.4-0.3c-0.1-0.1-0.2-0.3-0.3-0.4
	c-0.1-0.2-0.1-0.3-0.1-0.5V280.5c0-0.4,0.1-0.7,0.4-0.9c0.3-0.3,0.6-0.4,0.9-0.4h401.2c0.4,0,0.7,0.1,1,0.4s0.4,0.6,0.4,0.9v250.5
	c0,0.2,0,0.4-0.1,0.5c-0.1,0.2-0.2,0.3-0.3,0.4c-0.1,0.1-0.3,0.2-0.4,0.3C1000.6,532.4,1000.4,532.4,1000.2,532.4z"/>
<path class="st13" d="M993.6,287.3H605.7v237h387.8V287.3z"/>
<path class="st17" d="M993.4,287.3H605.6v237h387.8V287.3z"/>
<path class="st18" d="M522.1,1006.7h-13.3c-0.9,2-1.5,4.2-1.8,6.3l-5.2,23.2c-0.6,3.2-0.5,6.6,0.3,9.8l0,0c0.3,1.3,1.1,2.5,2.2,3.4
	c1.1,0.9,2.4,1.3,3.8,1.3h6.2c1.1,0,2.2-0.3,3.1-0.8c0.9-0.5,1.7-1.3,2.3-2.3l0.5-0.8c1.9-3.3,2.9-7,3.1-10.7l-0.1-21.6
	c0.2-2.6-0.2-5.2-1-7.7l0,0L522.1,1006.7z"/>
<path class="st19" d="M507.5,868.8l4.2,122.2c0.4,10.9-0.3,21.9-1.9,32.7l-0.6,4c-0.4,2.3-0.5,4.7-0.5,7v1.1c-1.1-0.8-2-1.9-2.6-3.2
	c-0.6-1.3-0.7-2.7-0.6-4.1l2.2-11.1c0.5-2.4,0.8-4.9,1-7.4c0.8-1.8,1.1-3.1,0.2-3.3c0.1-2.1,0.1-4.3,0-6.4l-5.1-145.2l31.8,4.7
	l5.7,0.8l-5.8,0.8l-24.3,3.1c-1,0.2-1.9,0.7-2.6,1.5C507.8,866.8,507.4,867.8,507.5,868.8L507.5,868.8z"/>
<path class="st20" d="M604,831.4l-40.5-1.1l43.4,165.4c1.4,4.3,2,8.7,2,13.2l0,0l14.5,26.2l16.3,8.2l4.2-5.7l-17.9-33.6
	c-1.3-2.4-2.2-5-2.6-7.7L604,831.4z"/>
<path class="st21" d="M625.9,1004c-1.3-2.4-2.2-5-2.6-7.7l-19.4-164.9l-40.5-1.1v0.1l36.5,1l19.4,165c0.5,2.7,1.3,5.3,2.6,7.7
	l17.8,33.6l-3.1,4.2l2.9,1.5l4.2-5.7L625.9,1004z"/>
<path class="st18" d="M660.5,1047.9c0.1,0.3,0.1,0.6,0.1,0.9c0,0.3-0.1,0.6-0.3,0.9c-0.2,0.3-0.4,0.5-0.7,0.6
	c-0.3,0.2-0.6,0.2-0.9,0.2h-20.6c-2.5,0-5-0.5-7.3-1.6c-2.3-1.1-4.3-2.7-5.9-4.6l-11.3-13.9c-0.2-0.2-0.5-0.4-0.8-0.5
	c-0.3-0.1-0.6-0.1-0.9,0c-0.3,0.1-0.6,0.3-0.7,0.5s-0.3,0.6-0.3,0.9l-0.6,19.2h-2.1l-2.7-18.7c-1.2-7.8,0-15.8,3.4-23l18.6,22.5
	c2,2.4,4.5,4.2,7.4,5.3s6,1.4,9.1,0.9l0,0l11.5,5.2C657.7,1043.9,659.4,1045.7,660.5,1047.9L660.5,1047.9z"/>
<path class="st20" d="M538.1,830.7l-2.6,29l-0.1,1.6L523,997c-0.9,7.8-1.3,15.6-1.2,23.5l0.1,9.4c-0.1,2-0.9,3.8-2.3,5.2
	c-1.4,1.4-3.3,2.1-5.3,2.1H513c-1.6,0-3.1-0.5-4.4-1.4c-1.1-0.8-2-1.9-2.6-3.2c-0.6-1.3-0.7-2.7-0.6-4.1l2.2-11.1
	c0.5-2.4,0.8-4.9,1-7.4c0.1-1.1,0.2-2.2,0.2-3.3c0.1-2.1,0.1-4.3,0-6.4l-5.1-145.2l-0.9-24.7L538.1,830.7z"/>
<path class="st21" d="M518.2,1009.8c0.1,1.8,0.1,3.7,0,5.5c0,1-0.1,1.9-0.2,2.9c-0.2,2.2-0.5,4.3-1,6.4l-2,9.7
	c-0.2,1.6-0.3,3.2,0.6,4.5c2.7-0.9,6.4-3.6,6.5-6.3l-0.2-7.7c-0.2-6.8,0-13.2,0.4-20.3l13-143l-31.5-2L528,865L518.2,1009.8z"/>
<path class="st22" d="M582.6,565.4c-5.3,10.7,7.2,28.7,8.6,40.5l-0.1,4.8l18.1,36.5l-11.2,5.8l8,14.9l20.9-3.2c1.8-0.3,3.5-0.9,5-2
	c1.5-1,2.7-2.4,3.6-3.9s1.4-3.3,1.5-5.1c0.1-1.8-0.2-3.6-0.9-5.3L606.8,577C603.6,569.1,591,564.7,582.6,565.4z"/>
<path class="st13" d="M512.3,694.1l-0.6,2.3c-9.4,37.4-14,75.8-13.5,114.3L497,859l116,7.6l-21.4-172.4L512.3,694.1z"/>
<path class="st13" d="M576.2,564.2l15.1,1.7c3.6,0.4,7,1.8,9.9,4c2.9,2.2,5.1,5.1,6.5,8.5l13.7,34.3l-23.9,11.1L576.2,564.2z"/>
<path class="st13" d="M497.2,588.8l15.9,17.6c0,0,8.1,33.7,5,62.1c-1,8.7-5.6,25.7-5.6,25.7l79.3,0.2c-0.9-12.8-0.5-25.7,1-38.4
	c0.7-5.6,4.3-19.2,4.3-19.2c0.8-4.1,1.7-5,3.6-7.2c5.9-6.9,8.8-11.8,6.6-20.4l-3.8-13.1l1.4-7c0.1-9.7-4.4-17.7-13.6-20.6l-14.8-4
	l-40.2-0.5l-24.7,5C502.7,570.9,496.7,579.5,497.2,588.8z"/>
<path class="st23" d="M595.6,588.9l6.9,16.8c2.2,8.5-0.1,15.1-6,22c-1.9,2.2-8.4,22.7-9.8,28.2c-7.8,30.1,18.8,201,20.2,210.3
	l6.1,0.4l-21.4-172.3h0.1c-0.9-12.8-0.5-25.7,1-38.4c0.7-5.6,4.3-19.2,4.3-19.2c0.8-4.1,1.7-5,3.6-7.2c5.9-6.9,8.8-11.8,6.6-20.4
	l-0.9-3.1C604.4,599.4,600.7,593.5,595.6,588.9L595.6,588.9z"/>
<path class="st18" d="M514.1,687.1l2.6-10.8l74.7,1.8l0,10.4L514.1,687.1z"/>
<path class="st22" d="M606.3,648.6l-19.4,7.8c-0.3,0.1-0.5,0.1-0.8,0.1l-14.3,0.8c-1.5,0.1-3,0.4-4.3,1l-16.1,7.2
	c-0.3,0.1-0.6,0.4-0.8,0.8c-0.1,0.3-0.1,0.7,0,1.1l0,0c0.1,0.2,0.2,0.3,0.3,0.5c0.1,0.1,0.3,0.3,0.4,0.3c0.2,0.1,0.4,0.1,0.5,0.1
	c0.2,0,0.4,0,0.6-0.1l15.5-5.2l-14.4,9.3c-0.3,0.2-0.6,0.6-0.7,1c-0.1,0.4,0,0.8,0.2,1.2l0,0c0.2,0.3,0.5,0.6,0.9,0.7
	c0.4,0.1,0.8,0.1,1.1-0.1l14.9-7.2l-13.4,6.4c-0.3,0.2-0.6,0.5-0.8,0.9c-0.1,0.4-0.1,0.8,0,1.1c0.1,0.2,0.2,0.4,0.3,0.5
	c0.1,0.1,0.3,0.3,0.5,0.3c0.2,0.1,0.4,0.1,0.6,0.1c0.2,0,0.4,0,0.6-0.1l13.8-4.8l-11.9,4.2c-0.3,0.1-0.6,0.3-0.7,0.6
	c-0.1,0.3-0.2,0.6-0.1,0.9c0.1,0.3,0.3,0.6,0.6,0.7c0.3,0.2,0.6,0.2,1,0.1l32.7-7.7l23.6-5.2L606.3,648.6z"/>
<g class="st24">
	<path class="st25" d="M556.5,674.5c0,0-0.1,0-0.1,0c0,0-0.1-0.1-0.1-0.1c0,0,0-0.1,0-0.1c0,0,0-0.1,0-0.1c0,0,0-0.1,0.1-0.1
		c0,0,0,0,0.1-0.1l13.4-6.4c0,0,0.1,0,0.1,0c0,0,0.1,0,0.1,0c0,0,0.1,0,0.1,0c0,0,0,0.1,0.1,0.1c0,0,0,0.1,0,0.1c0,0,0,0.1,0,0.1
		c0,0,0,0.1-0.1,0.1s-0.1,0-0.1,0.1L556.5,674.5L556.5,674.5z"/>
</g>
<g class="st24">
	<path class="st25" d="M559.6,676.8c-0.1,0-0.1,0-0.1,0c0,0-0.1-0.1-0.1-0.1c0-0.1,0-0.1,0-0.2c0-0.1,0.1-0.1,0.1-0.1l11.9-4.2
		c0.1,0,0.1,0,0.2,0c0.1,0,0.1,0.1,0.1,0.1c0,0,0,0.1,0,0.1c0,0,0,0.1,0,0.1c0,0,0,0.1-0.1,0.1c0,0-0.1,0-0.1,0L559.6,676.8
		L559.6,676.8z"/>
</g>
<path class="st19" d="M635.9,648.3L606.9,577c-2-5.1-8-8.7-14.3-10.4c5.1,2,11.5,6.8,13.2,11.1l28.6,70.4c2.4,8.6,0,12.2-8,14.6
	l-15.2,2.9l-21.1,4.7l-31.4,7.4c0,0.2,0,0.3,0.1,0.5c0.1,0.3,0.3,0.6,0.6,0.7c0.3,0.2,0.6,0.2,1,0.1l32.7-7.7l21.1-4.7l12.8-1.9
	C634.3,662.8,638.9,655.4,635.9,648.3z"/>
<path class="st13" d="M540.4,574.3l-21.3-7.1c-14.7,2.6-16.6,3.7-22.9,17.6l-13.6,29.5l29.3,13.6L540.4,574.3z"/>
<path class="st26" d="M524.6,699.5c0.7,0,1.3-0.6,1.3-1.3c0-0.7-0.6-1.3-1.3-1.3c-0.7,0-1.3,0.6-1.3,1.3
	C523.3,699,523.9,699.5,524.6,699.5z"/>
<path class="st26" d="M555.2,583.9c0.7,0,1.3-0.6,1.3-1.3c0-0.7-0.6-1.3-1.3-1.3c-0.7,0-1.3,0.6-1.3,1.3
	C553.9,583.3,554.5,583.9,555.2,583.9z"/>
<path class="st26" d="M591.6,574.9c0.7,0,1.3-0.6,1.3-1.3c0-0.7-0.6-1.3-1.3-1.3c-0.7,0-1.3,0.6-1.3,1.3
	C590.3,574.4,590.9,574.9,591.6,574.9z"/>
<path class="st26" d="M547.4,707.2c0.7,0,1.3-0.6,1.3-1.3s-0.6-1.3-1.3-1.3c-0.7,0-1.3,0.6-1.3,1.3S546.7,707.2,547.4,707.2z"/>
<path class="st26" d="M572.9,699.7c0.7,0,1.3-0.6,1.3-1.3s-0.6-1.3-1.3-1.3c-0.7,0-1.3,0.6-1.3,1.3S572.2,699.7,572.9,699.7z"/>
<path class="st26" d="M514.8,722c0.7,0,1.3-0.6,1.3-1.3c0-0.7-0.6-1.3-1.3-1.3c-0.7,0-1.3,0.6-1.3,1.3
	C513.6,721.5,514.1,722,514.8,722z"/>
<path class="st26" d="M557.1,729.7c0.7,0,1.3-0.6,1.3-1.3c0-0.7-0.6-1.3-1.3-1.3c-0.7,0-1.3,0.6-1.3,1.3
	C555.8,729.2,556.4,729.7,557.1,729.7z"/>
<path class="st26" d="M593.1,718.5c0.7,0,1.3-0.6,1.3-1.3c0-0.7-0.6-1.3-1.3-1.3c-0.7,0-1.3,0.6-1.3,1.3
	C591.8,717.9,592.4,718.5,593.1,718.5z"/>
<path class="st26" d="M529.8,743c0.7,0,1.3-0.6,1.3-1.3c0-0.7-0.6-1.3-1.3-1.3c-0.7,0-1.3,0.6-1.3,1.3
	C528.6,742.4,529.1,743,529.8,743z"/>
<path class="st26" d="M560.1,759c0.7,0,1.3-0.6,1.3-1.3c0-0.7-0.6-1.3-1.3-1.3c-0.7,0-1.3,0.6-1.3,1.3
	C558.8,758.4,559.4,759,560.1,759z"/>
<path class="st26" d="M585.6,751.5c0.7,0,1.3-0.6,1.3-1.3c0-0.7-0.6-1.3-1.3-1.3c-0.7,0-1.3,0.6-1.3,1.3
	C584.3,750.9,584.9,751.5,585.6,751.5z"/>
<path class="st26" d="M501.8,765.5c0.7,0,1.3-0.6,1.3-1.3s-0.6-1.3-1.3-1.3c-0.7,0-1.3,0.6-1.3,1.3S501.1,765.5,501.8,765.5z"/>
<path class="st26" d="M522.6,773.2c0.7,0,1.3-0.6,1.3-1.3c0-0.7-0.6-1.3-1.3-1.3c-0.7,0-1.3,0.6-1.3,1.3
	C521.4,772.7,521.9,773.2,522.6,773.2z"/>
<path class="st26" d="M600.6,818.9c0.7,0,1.3-0.6,1.3-1.3c0-0.7-0.6-1.3-1.3-1.3c-0.7,0-1.3,0.6-1.3,1.3
	C599.3,818.4,599.9,818.9,600.6,818.9z"/>
<path class="st26" d="M499.8,803c0.7,0,1.3-0.6,1.3-1.3c0-0.7-0.6-1.3-1.3-1.3c-0.7,0-1.3,0.6-1.3,1.3
	C498.6,802.4,499.1,803,499.8,803z"/>
<path class="st26" d="M516.6,821.9c0.7,0,1.3-0.6,1.3-1.3c0-0.7-0.6-1.3-1.3-1.3c-0.7,0-1.3,0.6-1.3,1.3
	C515.4,821.4,515.9,821.9,516.6,821.9z"/>
<path class="st26" d="M539.9,810.7c0.7,0,1.3-0.6,1.3-1.3c0-0.7-0.6-1.3-1.3-1.3c-0.7,0-1.3,0.6-1.3,1.3
	C538.6,810.1,539.2,810.7,539.9,810.7z"/>
<path class="st26" d="M507.3,848c0.7,0,1.3-0.6,1.3-1.3c0-0.7-0.6-1.3-1.3-1.3c-0.7,0-1.3,0.6-1.3,1.3
	C506.1,847.4,506.6,848,507.3,848z"/>
<path class="st26" d="M534.6,841.4c0.7,0,1.3-0.6,1.3-1.3c0-0.7-0.6-1.3-1.3-1.3c-0.7,0-1.3,0.6-1.3,1.3
	C533.3,840.9,533.9,841.4,534.6,841.4z"/>
<path class="st26" d="M574.4,825.7c0.7,0,1.3-0.6,1.3-1.3c0-0.7-0.6-1.3-1.3-1.3c-0.7,0-1.3,0.6-1.3,1.3
	C573.1,825.1,573.7,825.7,574.4,825.7z"/>
<path class="st26" d="M557.6,854.7c0.7,0,1.3-0.6,1.3-1.3c0-0.7-0.6-1.3-1.3-1.3c-0.7,0-1.3,0.6-1.3,1.3
	C556.3,854.1,556.9,854.7,557.6,854.7z"/>
<path class="st26" d="M582.6,863.2c0.7,0,1.3-0.6,1.3-1.3s-0.6-1.3-1.3-1.3c-0.7,0-1.3,0.6-1.3,1.3S581.9,863.2,582.6,863.2z"/>
<path class="st26" d="M608.1,855.7c0.7,0,1.3-0.6,1.3-1.3c0-0.7-0.6-1.3-1.3-1.3c-0.7,0-1.3,0.6-1.3,1.3
	C606.8,855.1,607.4,855.7,608.1,855.7z"/>
<path class="st26" d="M546.3,785c0.7,0,1.3-0.6,1.3-1.3c0-0.7-0.6-1.3-1.3-1.3c-0.7,0-1.3,0.6-1.3,1.3
	C545,784.4,545.6,785,546.3,785z"/>
<path class="st26" d="M575.1,789.7c0.7,0,1.3-0.6,1.3-1.3c0-0.7-0.6-1.3-1.3-1.3c-0.7,0-1.3,0.6-1.3,1.3
	C573.8,789.1,574.4,789.7,575.1,789.7z"/>
<path class="st26" d="M600.6,782.2c0.7,0,1.3-0.6,1.3-1.3c0-0.7-0.6-1.3-1.3-1.3c-0.7,0-1.3,0.6-1.3,1.3
	C599.3,781.6,599.9,782.2,600.6,782.2z"/>
<path class="st26" d="M548.1,621.8c0.7,0,1.3-0.6,1.3-1.3c0-0.7-0.6-1.3-1.3-1.3c-0.7,0-1.3,0.6-1.3,1.3
	C546.8,621.2,547.4,621.8,548.1,621.8z"/>
<path class="st26" d="M560.5,657.4c0.7,0,1.3-0.6,1.3-1.3c0-0.7-0.6-1.3-1.3-1.3c-0.7,0-1.3,0.6-1.3,1.3
	C559.2,656.8,559.8,657.4,560.5,657.4z"/>
<path class="st26" d="M536.4,673.7c0.7,0,1.3-0.6,1.3-1.3c0-0.7-0.6-1.3-1.3-1.3c-0.7,0-1.3,0.6-1.3,1.3
	C535.1,673.2,535.7,673.7,536.4,673.7z"/>
<path class="st26" d="M533.9,647.7c0.7,0,1.3-0.6,1.3-1.3c0-0.7-0.6-1.3-1.3-1.3c-0.7,0-1.3,0.6-1.3,1.3
	C532.6,647.1,533.2,647.7,533.9,647.7z"/>
<path class="st26" d="M584.4,613.7c0.7,0,1.3-0.6,1.3-1.3c0-0.7-0.6-1.3-1.3-1.3c-0.7,0-1.3,0.6-1.3,1.3
	C583.1,613.2,583.7,613.7,584.4,613.7z"/>
<path class="st26" d="M616.6,610.9c0.7,0,1.3-0.6,1.3-1.3c0-0.7-0.6-1.3-1.3-1.3s-1.3,0.6-1.3,1.3
	C615.4,610.3,615.9,610.9,616.6,610.9z"/>
<path class="st26" d="M598.9,599.1c0.7,0,1.3-0.6,1.3-1.3c0-0.7-0.6-1.3-1.3-1.3c-0.7,0-1.3,0.6-1.3,1.3
	C597.6,598.5,598.2,599.1,598.9,599.1z"/>
<path class="st26" d="M571.9,635.7c0.7,0,1.3-0.6,1.3-1.3c0-0.7-0.6-1.3-1.3-1.3c-0.7,0-1.3,0.6-1.3,1.3
	C570.6,635.1,571.2,635.7,571.9,635.7z"/>
<path class="st26" d="M597.9,626.7c0.7,0,1.3-0.6,1.3-1.3c0-0.7-0.6-1.3-1.3-1.3c-0.7,0-1.3,0.6-1.3,1.3
	C596.6,626.1,597.2,626.7,597.9,626.7z"/>
<path class="st26" d="M589.9,652.7c0.7,0,1.3-0.6,1.3-1.3c0-0.7-0.6-1.3-1.3-1.3c-0.7,0-1.3,0.6-1.3,1.3
	C588.6,652.1,589.2,652.7,589.9,652.7z"/>
<path class="st26" d="M572.8,596.1c0.7,0,1.3-0.6,1.3-1.3c0-0.7-0.6-1.3-1.3-1.3c-0.7,0-1.3,0.6-1.3,1.3
	C571.5,595.6,572.1,596.1,572.8,596.1z"/>
<path class="st26" d="M526.8,575.1c0.7,0,1.3-0.6,1.3-1.3c0-0.7-0.6-1.3-1.3-1.3c-0.7,0-1.3,0.6-1.3,1.3
	C525.6,574.5,526.1,575.1,526.8,575.1z"/>
<path class="st26" d="M510.9,588.7c0.7,0,1.3-0.6,1.3-1.3c0-0.7-0.6-1.3-1.3-1.3c-0.7,0-1.3,0.6-1.3,1.3
	C509.6,588.1,510.2,588.7,510.9,588.7z"/>
<path class="st26" d="M514.3,612.3c0.7,0,1.3-0.6,1.3-1.3c0-0.7-0.6-1.3-1.3-1.3c-0.7,0-1.3,0.6-1.3,1.3
	C513,611.7,513.6,612.3,514.3,612.3z"/>
<path class="st26" d="M532.9,597.8c0.7,0,1.3-0.6,1.3-1.3c0-0.7-0.6-1.3-1.3-1.3s-1.3,0.6-1.3,1.3
	C531.6,597.2,532.2,597.8,532.9,597.8z"/>
<path d="M563.4,494.3c2.5-1,5.2-1.2,7.8-0.7c2.6,0.5,5.1,1.7,7,3.6c6.8,6.4,2,10.6,8,13.8c6,3.2,1.6,11.9,8.6,15.9
	c7,4,2.4,13.8-4.8,15.2c0,0-3.5,9.1-11,8.2c0,0-7,7.8-20.7,2.8l-5-2.1L563.4,494.3z"/>
<path d="M532.8,497c0,0-9.1,1.2-10.8,9.2s-1.1,6.2-6.1,10.3s1.3,8.8-2.6,12.9c-2,2.1-3,3.8-3.2,5.8c-0.1,1.7,0.4,3.4,1.4,4.8
	c1,1.4,2.4,2.4,4.1,2.8c2.3,0.6,4.2,2.8,5.5,5.8c2.7,5.9,12.4,3.3,12.4,3.3s9.2,5.3,14.8,1.4c5.6-4-2.8-58.5-2.8-58.5L532.8,497z"/>
<path d="M571.3,494.7c0,0-3.7-8.5-16.9-8.5s-17.3,13-17.3,13l19.3,10.5L571.3,494.7z"/>
<path class="st22" d="M565.6,526.8l3.5,32.1c0.1,1,0.5,1.9,1.2,2.6c0.6,0.7,1.5,1.3,2.4,1.6l3.5,1.1l0.1,4.8c0,0.7-0.1,1.4-0.5,2.1
	c-0.3,0.6-0.8,1.2-1.4,1.6c-4.7,3.1-12.7,8.7-12.7,8.7s-15.7-6.1-21.9-9.3c-0.5-0.3-0.9-0.6-1.3-1c-0.4-0.4-0.6-0.9-0.8-1.5
	l-1.7-5.8c0,0,4.8-3,4.9-5.2l0.8-27L565.6,526.8z"/>
<path class="st27" d="M574.6,540.4c0.4,0.5,0.9,0.9,1.5,1.1c0.6,0.2,1.2,0.3,1.9,0.3c0.6-0.1,1.3-0.3,1.8-0.6c0.5-0.4,1-0.8,1.3-1.4
	c0.3-0.6,0.5-1.2,0.5-1.8c0-0.6-0.2-1.3-0.5-1.8c-0.3-0.6-0.7-1.1-1.3-1.4c-0.5-0.4-1.1-0.6-1.8-0.7"/>
<path class="st22" d="M576.4,534.2l-0.9-21.7c0-0.9-0.3-1.9-0.7-2.7c-0.4-0.9-1-1.6-1.7-2.3c-0.7-0.6-1.5-1.1-2.4-1.5
	c-0.9-0.3-1.8-0.5-2.8-0.4l-21.8,1c-0.7,0-1.4,0.2-2.1,0.5c-0.7,0.3-1.3,0.7-1.8,1.3c-0.5,0.5-0.9,1.2-1.1,1.8
	c-0.3,0.7-0.4,1.4-0.3,2.1l1,23.3c0.1,2.2,0.6,4.3,1.5,6.3c0.9,2,2.2,3.8,3.8,5.2c1.6,1.5,3.5,2.6,5.5,3.4c2.1,0.7,4.2,1.1,6.4,1
	l1.3-0.1c4.4-0.2,8.5-2.2,11.5-5.4C575,542.9,576.6,538.6,576.4,534.2L576.4,534.2z"/>
<path d="M559.7,528.9c1,0,1.8-0.8,1.8-1.8s-0.8-1.8-1.8-1.8c-1,0-1.8,0.8-1.8,1.8S558.7,528.9,559.7,528.9z"/>
<path class="st5" d="M560.4,527.1c0.2,0,0.4-0.2,0.4-0.4c0-0.2-0.2-0.4-0.4-0.4c-0.2,0-0.4,0.2-0.4,0.4
	C560.1,526.9,560.2,527.1,560.4,527.1z"/>
<path d="M573.7,528.9c1,0,1.8-0.8,1.8-1.8s-0.8-1.8-1.8-1.8c-1,0-1.8,0.8-1.8,1.8S572.7,528.9,573.7,528.9z"/>
<path class="st5" d="M574.5,527c0.2,0,0.4-0.2,0.4-0.4c0-0.2-0.2-0.4-0.4-0.4c-0.2,0-0.4,0.2-0.4,0.4
	C574.1,526.8,574.2,527,574.5,527z"/>
<path class="st19" d="M541.4,542.1l2.7-5.4h-2.5L541.4,542.1z"/>
<g class="st24">
	<path class="st25" d="M568,534.2c-0.1-0.6-0.3-1.1-0.8-1.4c-0.4-0.4-1-0.5-1.6-0.5c-0.1,0-0.2,0.1-0.3,0.2
		c-0.1,0.1-0.1,0.2-0.1,0.4c0,0.1,0.1,0.2,0.2,0.3c0.1,0.1,0.2,0.1,0.4,0.1c0.3,0,0.6,0.1,0.8,0.3c0.2,0.2,0.4,0.4,0.4,0.7
		c0,0.1,0,0.3,0,0.4c0,0.1-0.1,0.3-0.2,0.4c-0.1,0.1-0.2,0.2-0.3,0.3c-0.1,0.1-0.3,0.1-0.4,0.1l-2.4,0.2c-0.1,0-0.2,0.1-0.3,0.2
		c-0.1,0.1-0.1,0.2-0.1,0.4c0,0.1,0.1,0.2,0.2,0.3c0.1,0.1,0.2,0.1,0.4,0.1l2.4-0.2c0.3,0,0.6-0.1,0.8-0.2c0.3-0.1,0.5-0.3,0.6-0.5
		c0.2-0.2,0.3-0.5,0.4-0.8C568.1,534.7,568.1,534.4,568,534.2L568,534.2z"/>
</g>
<path class="st22" d="M544,536.6l-1.8-8.5c-2-7.8-11.6-5.6-9.3,2.2c2.3,7.7,10.2,6.4,10.2,6.4H544z"/>
<path class="st27" d="M544.2,539.2c-0.2,0.7-0.7,1.2-1.2,1.7c-0.5,0.4-1.2,0.7-1.9,0.9c-0.7,0.1-1.4,0-2.1-0.2
	c-0.7-0.3-1.2-0.7-1.7-1.2c-0.4-0.6-0.7-1.2-0.8-1.9c-0.1-0.7,0-1.4,0.3-2.1s0.7-1.2,1.3-1.6s1.2-0.7,1.9-0.8"/>
<path class="st25" d="M534.8,526.6c0.1,0.1,0.2,0.2,0.4,0.2s0.3,0,0.4-0.1c0.2-0.2,0.4-0.4,0.7-0.5c0.3-0.1,0.6-0.1,0.9-0.1
	c0.3,0,0.6,0.1,0.8,0.3c0.2,0.2,0.4,0.4,0.6,0.7c0.5,0.7,0.8,1.6,0.9,2.5l0.2,0.9c0.1,0.7,1.1,0.4,1-0.2l-0.1-0.8
	c-0.1-1.1-0.5-2.1-1.1-3c-0.2-0.4-0.5-0.7-0.9-0.9c-0.3-0.2-0.7-0.4-1.1-0.5c-0.4,0-0.8,0-1.2,0.2c-0.4,0.1-0.8,0.4-1.1,0.7
	c-0.1,0.1-0.2,0.2-0.2,0.3C534.7,526.3,534.7,526.5,534.8,526.6L534.8,526.6z"/>
<path class="st13" d="M573.2,520.7c-1.1,0.1-2.1,0.4-3,1c-0.9,0.5-1.7,1.3-2.4,2.2c-1.5-0.5-3.1-0.5-4.5,0.1
	c-0.7-1.1-1.7-2.1-2.9-2.7c-1.2-0.6-2.5-0.9-3.9-0.8c-1.4,0.1-2.8,0.6-3.9,1.5c-1.1,0.9-2,2.1-2.4,3.5c-0.4,1.4-0.5,2.8-0.1,4.2
	c0.4,1.4,1.2,2.6,2.3,3.6c1.1,0.9,2.4,1.5,3.9,1.7c1.4,0.2,2.9-0.1,4.2-0.7c1.3-0.7,2.3-1.7,3-2.9c0.7-1.3,1-2.7,0.9-4.1
	c-0.1-0.8-0.3-1.6-0.6-2.3c1.2-0.4,2.4-0.4,3.6-0.1c-0.5,1-0.8,2.1-0.8,3.2c0,1.1,0.2,2.2,0.7,3.2c0.5,1,1.2,1.9,2.1,2.6
	c0.9,0.7,1.9,1.2,3,1.4c1.1,0.2,2.2,0.2,3.3-0.1s2.1-0.8,2.9-1.6c0.8-0.7,1.5-1.7,1.9-2.7c0.4-1,0.6-2.2,0.5-3.3
	c-0.2-1.9-1.1-3.7-2.6-5C577,521.3,575.1,520.6,573.2,520.7z M557.7,534c-1.2,0.1-2.5-0.2-3.6-0.8c-1.1-0.6-2-1.5-2.5-2.6
	c-0.6-1.1-0.8-2.4-0.6-3.6c0.1-1.2,0.7-2.4,1.5-3.3c0.8-0.9,1.9-1.6,3.1-2c1.2-0.3,2.5-0.3,3.6,0.1c1.2,0.4,2.2,1.1,3,2.1
	c0.8,1,1.2,2.2,1.3,3.4c0.1,1.7-0.4,3.3-1.5,4.6C560.9,533.1,559.4,533.9,557.7,534L557.7,534z M574.3,534.3
	c-1.2,0.1-2.5-0.2-3.6-0.8c-1.1-0.6-2-1.5-2.5-2.6c-0.6-1.1-0.8-2.4-0.6-3.6c0.1-1.2,0.7-2.4,1.5-3.3c0.8-0.9,1.9-1.6,3.1-2
	c1.2-0.3,2.5-0.3,3.6,0.1c1.2,0.4,2.2,1.1,3,2.1c0.8,1,1.2,2.2,1.3,3.4c0.1,1.7-0.4,3.3-1.5,4.6
	C577.5,533.4,575.9,534.2,574.3,534.3L574.3,534.3z"/>
<path class="st19" d="M569.4,554.5c-1.2,0.3-2.5,0.5-3.8,0.5c-3.2,0-6.2-1.1-8.8-3c-2.7-0.3-5.3-1.1-7.6-2.5c-0.1,0-0.1-0.1-0.2-0.1
	c0-0.1-0.1-0.1-0.1-0.2c0-0.1,0-0.1,0-0.2c0-0.1,0-0.1,0.1-0.2s0.1-0.1,0.1-0.1c0.1,0,0.1-0.1,0.2-0.1c0.1,0,0.1,0,0.2,0
	c0.1,0,0.1,0,0.2,0.1c1.8,1,3.8,1.8,5.8,2.1c0.1,0,0.3,0.1,0.5,0.1c0.4,0.1,0.8,0.1,1.2,0.1h0.2c0.2,0.1,0.5,0.1,0.8,0.1h2
	c3-0.1,5.9-0.9,8.5-2.3l0,0L569.4,554.5z"/>
<path class="st5" d="M558.8,539.4c-0.3,0-0.4,0.2-0.3,0.5c0.4,0.9,1.1,1.6,1.9,2.1c0.8,0.5,1.8,0.8,2.7,0.8s1.9-0.3,2.7-0.8
	c0.8-0.5,1.5-1.3,1.9-2.1c0,0,0-0.1,0-0.2c0-0.1,0-0.1-0.1-0.1c0,0-0.1-0.1-0.1-0.1c0,0-0.1,0-0.2,0H558.8z"/>
<path d="M570.6,500.3c0,0-0.9,8.8-10.8,10.2c-10.1,1.4-7.9,7.3-20.2,5.9c0,0-4.4-6.4,2.1-13.1c4.4-4.4,12.9-8.1,19-7.4
	C562.7,496.1,567.6,499.7,570.6,500.3z"/>
<path d="M569.3,501c0,0-6.3,6.3,11.2,17.8c0.4-2.5,0-5.1-1.1-7.3C577.4,507.8,569.3,501,569.3,501z"/>
<path class="st28" d="M540.8,559.2c0,0,5.1,13.2,19.7,12.4c13.9-0.8,8.9-11.5,8.9-11.5"/>
<path class="st5" d="M562.4,573.5l-1.2,0.9l-1.4-0.5l-0.2-1.5l1.2-1l1.4,0.5L562.4,573.5z"/>
<path class="st13" d="M561.9,573.3l-0.7,0.6l-0.9-0.3l-0.2-1l0.7-0.6l0.9,0.3L561.9,573.3z"/>
<path class="st29" d="M561.9,573.3l-0.7,0.6l-0.9-0.3l-0.2-1l0.7-0.6l0.9,0.3L561.9,573.3z"/>
<path class="st20" d="M456.9,565.7l-2.3,3.1l-1.5-1.9c-0.3-0.4-0.5-0.7-0.7-1.2l-3.6-9c0-0.1,0-0.1,0-0.2c0-0.1,0-0.1,0.1-0.2
	c0-0.1,0.1-0.1,0.2-0.2c0.1,0,0.1-0.1,0.2-0.1h0.2c0.5-0.1,1.1,0,1.5,0.3c0.5,0.3,0.9,0.6,1.1,1.1l1.8,3.7c0.3,0.7,0.7,1.4,1.2,2
	l1.2,1.8L456.9,565.7z"/>
<path class="st20" d="M461,562l-4.1,3.7l-0.4-1.4l-4.4-15.3c-0.1-0.2-0.1-0.5-0.1-0.7c0-0.2,0.1-0.5,0.2-0.7
	c0.1-0.2,0.3-0.4,0.4-0.5c0.2-0.1,0.4-0.2,0.6-0.3c0.2-0.1,0.5-0.1,0.7,0c0.2,0,0.5,0.1,0.6,0.2c0.2,0.1,0.4,0.3,0.5,0.5
	c0.1,0.2,0.2,0.4,0.3,0.6c0.8,3.6,2,7.1,3.5,10.5C459.4,559.9,460.1,561,461,562L461,562z"/>
<path class="st20" d="M462,551.2l-1,10.8l-1.6-4.7l-4.7-13.9c-0.2-0.4-0.2-0.9,0-1.3c0.2-0.4,0.5-0.8,1-0.9c0.4-0.2,0.9-0.2,1.3,0
	c0.4,0.2,0.8,0.5,0.9,1L462,551.2z"/>
<path class="st22" d="M478.6,581.9c-0.3,0.7-0.3,1.5,0,2.2l2,6.3l-14.8,3.1l-0.5-6.1c-0.1-0.9-0.5-1.8-1.2-2.4
	c-1.8-1.5-5.4-5.8-9.3-16.4l1.6-4l0.6,0.9l-0.4-1.4l2.3-5.6c0.5,1.2,1.2,2.4,2.1,3.4l-1.6-4.7l2.6-6.2l-1.9-6.1
	c0-0.1-0.1-0.3-0.1-0.4c0-0.4,0.1-0.8,0.4-1.1c0.3-0.3,0.7-0.5,1.1-0.5c0.3-0.1,0.6,0,0.8,0.1c0.2,0.1,0.5,0.3,0.6,0.6l5.2,10.8
	c0.4,0.8,0.7,1.6,0.9,2.5c0.8,2.6,2.1,5,3.9,7.1c0.6,0.8,1.3,1.6,2.1,2.3c0.3,0.2,0.5,0.4,0.9,0.6c1.1,0.5,1.6-0.2,1.9-0.9
	c0.2-0.6,0.2-1.3,0.1-2c-0.4-1.7-1.2-5.9,0-8.2c0.1-0.2,0.3-0.4,0.5-0.6c0.2-0.1,0.5-0.2,0.7-0.2c0.3,0,0.5,0.1,0.7,0.2
	c0.2,0.1,0.4,0.3,0.5,0.6c1.6,3.4,2.3,11,2.5,13.4c0,0.5,0,1-0.2,1.5L478.6,581.9z"/>
<path class="st22" d="M512.5,626.9l-12.1,22l-2.8,5.1l-0.2,0.4l-2.8-2.5l-20.4-18.4l9.2-20.8l3,1.5l3.9,1.9l2.2,1L512.5,626.9z"/>
<path class="st19" d="M500.4,648.9c0.3-1.5,0.5-3.1,0.5-4.7c0-3.3-0.6-6.5-1.8-9.6l-6.7-17.5l-2.2-1.1l-9.8-25.6l-2.9,0.6l8.8,23.1
	l7.8,20.5c2.3,6.1,2.3,12.5,0.4,17.2c-1.4,3.3-3.7,5.8-6.9,6.7c1.2,0.3,2.5,0.4,3.7,0.2c1.2-0.2,2.4-0.6,3.5-1.2L500.4,648.9z"/>
<path class="st22" d="M497.7,654l-0.2,0.4c-0.6,1.2-1.5,2.3-2.5,3.2c-1,0.9-2.3,1.6-3.7,2c-7.7,2.1-15.9-6.2-17.9-17.2l-7.7-48.8
	l11.9-2.5l2.9-0.6l9.8,25.5l7.5,19.6C500.2,642.2,500.1,649.2,497.7,654z"/>
<path class="st2" d="M796.1,763.8h10.2l-30.5,286.4h-4L796.1,763.8z"/>
<path class="st2" d="M1193.7,1050.2h-4l-30.5-286.4h10.2L1193.7,1050.2z"/>
<path class="st30" d="M775.7,1050.2h-1.5l26.7-277.6c0.2-2-0.6-3.7-2.1-4.2l-3.1-1.1l0.4-3.9l10.1,0.4L775.7,1050.2z"/>
<path class="st30" d="M1169.4,763.8h-3.4l26.3,286.4h1.4L1169.4,763.8z"/>
<path class="st30" d="M1236.9,758.7c0,2.8-1.7,5.1-3.9,5.1H828.1c-2.1,0-3.9-2.2-3.9-5.1c0-2.8,1.7-5.1,3.9-5.1h404.9
	C1235.2,753.6,1236.9,755.9,1236.9,758.7z"/>
<path class="st2" d="M1119.3,758.7c0,2.8-1.7,5.1-3.9,5.1H753.9c-2.1,0-3.9-2.2-3.9-5.1c0-2.8,1.7-5.1,3.9-5.1h361.5
	C1117.5,753.6,1119.3,755.9,1119.3,758.7z"/>
<path class="st22" d="M1146.2,613.3c-0.1,0.3-0.2,0.7-0.3,1l-10.5,37.3l26.7,1.6l11-34.6L1146.2,613.3z"/>
<path class="st31" d="M1170.5,577.5c-9,0.3-17,7.6-19.1,15.6l-15.8,57.4h29.4l14.6-73.5L1170.5,577.5z"/>
<path class="st18" d="M1150.2,564.2c0.3,6.9,0.4,14.5-3.9,19.9c-2.3,3-5.8,5.1-7.5,8.5c-2.2,4.3-0.9,9.5-2,14.3
	c-1,4.2-3.8,7.7-5.5,11.7c-1.3,3-1.9,6.2-1.7,9.4c0.2,3.2,1.1,6.3,2.7,9.1c1.7,2.8,4.1,5,6.9,6.5c2.9,1.5,6.1,2.1,9.3,1.8
	c5.4-0.7,10.1-4.1,13.8-8.1c4.1-4.4,7.2-9.6,9.3-15.3c2.1-5.7,3-11.7,2.7-17.7c-0.3-6-1.7-11.9-4.2-17.4
	c-2.5-5.5-6.1-10.4-10.6-14.4l-1.1-0.9"/>
<path class="st18" d="M1241.1,547.5c4.7,6,10.5,11.8,11,19.3c0.4,5.5-2.3,11-2,16.5c0.5,13.4,16.5,21.5,19.3,34.6
	c0.5,2.5,0.5,5,0,7.5c-0.5,2.5-1.5,4.8-2.9,6.9c-1.4,2.1-3.2,3.9-5.3,5.3c-2.1,1.4-4.5,2.4-7,2.8c-3.9,0.8-8,0.4-11.7-1.2
	c-9.7-4.1-14.5-15.4-14.4-25.8c0-10.4,3.7-20.4,6.1-30.5c4.5-18.1,2-33.7-1-52.1"/>
<path class="st18" d="M1242.7,581c-2.4-4-5.1-8.2-4.8-12.9c0.4-5.3,4.8-10,3.7-15.2c-0.7-3.2-3.3-5.6-5-8.5
	c-3-5.1-2.6-11.5-2.7-17.4s-1-12.5-5.6-16.3s-10.6-3.5-15.9-5.3c-2.7-1-5.3-2.5-8-3.5c-5.8-2.1-12.9-3.1-18.5-0.6
	c-4.1,1.5-7.7,4-10.8,7.1c-4.5,3.5-6,11.9-7.1,17.6c-1.4,6.9-1.8,14.3-5.3,20.3c-2.2,3.7-5.4,6.7-8.1,10c-2.7,3.3-5.1,7.3-4.9,11.6
	c0.2,4.9,3.7,9.5,2.9,14.3c-0.4,2.8-2.2,5.2-2.9,7.9c-1.3,5.1,1.2,10.6,5.1,14c3.9,3.4,8.8,5.5,13.8,7.3c4.9,1.8,9.9,3.5,14,6.8
	c4.1,3.3,7.6,8.5,12.9,9.9c4.5,1.2,9.3-0.5,13.7-2.3c7.9-3.2,16.2-6.6,21.4-13.4c2.4-3.1,4-6.7,6.7-9.6c2.7-2.8,6.6-5,8.1-8.8
	C1247.2,589.8,1245.1,585,1242.7,581z"/>
<path class="st31" d="M1256.4,600.8l-15.4,17.1c0,0-7.8,32.7-4.8,60.2c1,8.4,6,18.4,6,18.4c1.6,3,0.1,6.6-3.3,6.6l-73.6,0.1
	c0.4-12.5-0.1-24.9-1.6-37.3c-0.7-5.5-4.2-18.6-4.2-18.6c-0.7-4-1.7-4.9-3.5-7c-5.8-6.7-8.6-11.5-6.4-19.8l3.7-11.6l-0.7-5.1
	c-0.7-3.2-0.6-6.5,0.2-9.7c0.7-3.1,2.3-6,4.5-8.3c2.2-2.3,5-4,8-5l14.3-3.8l39-0.4l23.9,4.9C1251.1,583.5,1256.9,591.9,1256.4,600.8
	z"/>
<path class="st20" d="M1189.9,541l-3.4,31.1c-0.1,0.9-0.5,1.8-1.1,2.6c-0.6,0.7-1.4,1.2-2.4,1.5l-3.3,1l-0.2,4.8
	c0,0.7,0.1,1.4,0.4,2c0.3,0.6,0.8,1.1,1.4,1.5c4.6,3,12.3,8.4,12.3,8.4s15.2-5.9,21.3-9c0.5-0.2,0.9-0.6,1.2-1
	c0.3-0.4,0.6-0.9,0.8-1.4l1.7-5.6c0,0-4.7-2.9-4.7-5l-0.7-26.2L1189.9,541z"/>
<path class="st27" d="M1181.1,554.1c-0.4,0.5-0.9,0.9-1.5,1.1c-0.6,0.2-1.2,0.3-1.8,0.3c-0.6-0.1-1.2-0.3-1.7-0.6
	c-0.5-0.3-1-0.8-1.2-1.4c-0.3-0.6-0.5-1.2-0.5-1.8c0-0.6,0.2-1.2,0.4-1.8c0.3-0.6,0.7-1,1.2-1.4c0.5-0.4,1.1-0.6,1.7-0.6"/>
<path class="st20" d="M1179.3,548.2l0.9-21c0.1-1.8,0.9-3.6,2.2-4.8c1.4-1.3,3.2-1.9,5-1.8l21.2,0.9c0.7,0,1.4,0.2,2,0.5
	c0.7,0.3,1.2,0.7,1.7,1.2c0.5,0.5,0.8,1.1,1.1,1.8c0.2,0.7,0.3,1.4,0.3,2.1l-1,22.6c-0.1,2.1-0.6,4.2-1.5,6.1
	c-0.9,1.9-2.2,3.6-3.7,5.1c-1.6,1.4-3.4,2.5-5.4,3.3c-2,0.7-4.1,1-6.2,1l-1.2-0.1c-4.3-0.2-8.3-2.1-11.2-5.2
	S1179.2,552.4,1179.3,548.2z"/>
<path d="M1196.6,542c1,0,1.8-0.8,1.8-1.8c0-1-0.8-1.8-1.8-1.8c-1,0-1.8,0.8-1.8,1.8C1194.8,541.2,1195.6,542,1196.6,542z"/>
<path class="st5" d="M1195.8,540.2c0.2,0,0.4-0.2,0.4-0.4s-0.2-0.4-0.4-0.4c-0.2,0-0.4,0.2-0.4,0.4S1195.6,540.2,1195.8,540.2z"/>
<path d="M1183,542c1,0,1.8-0.8,1.8-1.8c0-1-0.8-1.8-1.8-1.8s-1.8,0.8-1.8,1.8C1181.2,541.2,1182,542,1183,542z"/>
<path class="st5" d="M1182.2,540.2c0.2,0,0.4-0.2,0.4-0.4c0-0.2-0.2-0.4-0.4-0.4s-0.4,0.2-0.4,0.4
	C1181.9,540,1182,540.2,1182.2,540.2z"/>
<path class="st18" d="M1208.5,515.8c-0.7,4.3-0.7,9.1,1.9,12.6c1.3,1.4,2.4,3,3.4,4.7c1.5,3.6-0.5,7.8-0.2,11.7
	c0.1,1.4,0.5,2.8,1.2,4.1c0.7,1.3,1.6,2.4,2.7,3.3c0.8,0.7,1.7,1.2,2.8,1.4c1,0.2,2.1,0,3.1-0.4c1.3-1.1,2.1-2.6,2.3-4.2
	c1.5-6,2.4-12.2,2.7-18.5c0.4-2.3,0.1-4.6-0.9-6.7c-1.1-2.1-2.8-3.7-4.9-4.7c-2.1-1.4-4.4-2.7-6.7-3.8c-1.3-0.8-2.9-1.2-4.5-1.2
	c-0.8,0-1.5,0.3-2.1,0.9c-0.6,0.5-0.9,1.2-1,2"/>
<path class="st19" d="M1213.4,555.8l-2.6-5.2h2.5L1213.4,555.8z"/>
<g class="st24">
	<path class="st25" d="M1187.6,548.1c0.1-0.5,0.3-1.1,0.8-1.4c0.4-0.4,1-0.5,1.5-0.5c0.1,0,0.2,0.1,0.3,0.2c0.1,0.1,0.1,0.2,0.1,0.3
		c0,0.1-0.1,0.2-0.2,0.3c-0.1,0.1-0.2,0.1-0.3,0.1c-0.3,0-0.6,0.1-0.8,0.3c-0.2,0.2-0.4,0.4-0.4,0.7c0,0.1,0,0.3,0,0.4
		c0,0.1,0.1,0.3,0.2,0.4c0.1,0.1,0.2,0.2,0.3,0.3c0.1,0.1,0.2,0.1,0.4,0.1l2.3,0.2c0.1,0,0.2,0,0.2,0c0.1,0,0.1,0.1,0.2,0.1
		c0,0.1,0.1,0.1,0.1,0.2s0,0.1,0,0.2c0,0.1,0,0.1-0.1,0.2c0,0.1-0.1,0.1-0.1,0.2c-0.1,0-0.1,0.1-0.2,0.1c-0.1,0-0.2,0-0.2,0
		l-2.3-0.2c-0.3,0-0.5-0.1-0.8-0.2c-0.2-0.1-0.5-0.3-0.6-0.5c-0.2-0.2-0.3-0.5-0.3-0.7C1187.5,548.6,1187.5,548.4,1187.6,548.1z"/>
</g>
<path class="st20" d="M1210.8,550.5l1.7-8.3c2-7.6,11.3-5.4,9,2.1c-2.3,7.5-9.9,6.2-9.9,6.2H1210.8z"/>
<path class="st27" d="M1210.6,553c0.2,0.6,0.6,1.2,1.2,1.6c0.5,0.4,1.2,0.7,1.8,0.8c0.7,0.1,1.4,0,2-0.2c0.6-0.2,1.2-0.7,1.6-1.2
	c0.4-0.5,0.7-1.2,0.8-1.9c0.1-0.7,0-1.4-0.3-2c-0.3-0.6-0.7-1.2-1.2-1.6c-0.5-0.4-1.2-0.7-1.9-0.7"/>
<path class="st25" d="M1219.8,540.7c-0.1,0.1-0.2,0.2-0.3,0.2c-0.1,0-0.3,0-0.4-0.1c-0.4-0.4-1-0.6-1.5-0.6
	c-0.3,0.1-0.5,0.2-0.8,0.3c-0.2,0.2-0.4,0.4-0.6,0.6c-0.5,0.7-0.8,1.5-0.9,2.4l-0.2,0.9c-0.1,0.7-1.1,0.4-1-0.2l0.1-0.8
	c0.1-1.1,0.5-2.1,1.1-2.9c0.2-0.4,0.5-0.7,0.9-0.9c0.3-0.2,0.7-0.4,1.1-0.4c0.4,0,0.8,0,1.2,0.2c0.4,0.1,0.8,0.4,1.1,0.6
	c0.1,0.1,0.2,0.2,0.2,0.3C1219.8,540.5,1219.8,540.6,1219.8,540.7L1219.8,540.7z"/>
<path class="st32" d="M1202.6,536.5c-1.1-1-2.5-1.5-4-1.7c-0.5,0-1,0-1.4,0c-0.2,0-0.5,0.1-0.7,0.1c-0.9,0.2-1.8,0.6-2.5,1.1
	s-1.4,1.2-1.9,2c-1.4-0.5-2.9-0.6-4.4-0.1c-0.8-1.1-1.9-2-3.1-2.5c-0.7-0.3-1.4-0.5-2.1-0.5c-0.9,0-1.8,0.1-2.7,0.3
	c-1.6,0.5-2.9,1.5-3.8,2.9c-0.7,1-1.1,2.1-1.2,3.3c-0.1,1.5,0.3,3,1.1,4.3c0.8,1.3,2,2.3,3.4,2.8c0.6,0.3,1.3,0.4,2,0.5
	c1.9,0.1,3.7-0.5,5.1-1.7c1.4-1.2,2.3-2.9,2.4-4.8c0.1-1.3-0.2-2.6-0.7-3.7c1.2-0.3,2.4-0.3,3.5,0.1c-0.3,0.7-0.5,1.4-0.6,2.1
	c0,0,0,0.1,0,0.1c-0.1,1.9,0.5,3.7,1.7,5.1c1.2,1.4,2.9,2.3,4.8,2.4c0.5,0.1,0.9,0.1,1.4,0c1.3-0.2,2.6-0.7,3.7-1.6
	c1-0.9,1.8-2,2.2-3.3c0.2-0.5,0.3-1,0.3-1.5c0.1-1.1-0.1-2.2-0.5-3.3C1204.2,538.1,1203.5,537.2,1202.6,536.5z"/>
<path class="st19" d="M1186.2,567.9c1.2,0.3,2.4,0.4,3.6,0.4c3.1,0,6.1-1.1,8.5-2.9c2.6-0.3,5.2-1.1,7.4-2.4
	c0.1-0.1,0.2-0.2,0.2-0.3c0-0.1,0-0.3-0.1-0.4c0-0.1-0.1-0.1-0.1-0.1c-0.1,0-0.1-0.1-0.2-0.1c-0.1,0-0.1,0-0.2,0
	c-0.1,0-0.1,0-0.2,0.1c-1.8,1-3.7,1.7-5.7,2c-0.1,0-0.3,0.1-0.4,0.1c-0.4,0.1-0.8,0.1-1.2,0.1h-0.1c-0.2,0.1-0.5,0.1-0.7,0.1h-2
	c-2.9-0.1-5.8-0.8-8.3-2.2L1186.2,567.9z"/>
<path class="st5" d="M1196.4,553.2c0.3,0,0.4,0.2,0.3,0.4c-0.4,0.8-1,1.6-1.8,2.1c-0.8,0.5-1.7,0.8-2.7,0.8c-0.9,0-1.9-0.3-2.7-0.8
	c-0.8-0.5-1.4-1.2-1.8-2.1c0,0,0-0.1,0-0.2c0-0.1,0-0.1,0.1-0.1c0,0,0.1-0.1,0.1-0.1c0.1,0,0.1,0,0.2,0H1196.4z"/>
<path class="st18" d="M1173.3,542c-0.3-2.5,0.4-5,1.8-7.1c1.4-2.1,3.6-3.5,6-4.2c4.9-1.1,10.3,1.5,14.7-0.9c3.5-1.8,5.1-6.2,8.6-7.9
	c2.9-1.4,6.4-0.7,9.7-0.6c3.3,0.1,7.1-1.1,8-4.3c-7.1-4.7-14.8-8.7-23.3-9.3c-8.4-0.7-17.5,2.4-22.3,9.4c-4.8,7-4.5,15.7-4.1,23.9"
	/>
<path class="st22" d="M1255.3,623l-27.2-4.1l-1.6,41.9l25.4,8.1L1255.3,623z"/>
<path class="st33" d="M1232.9,1005.9h12.9c0.8,2,1.5,4,1.8,6.1l5.1,22.5c0.6,3.1,0.5,6.4-0.3,9.5c-0.3,1.3-1.1,2.5-2.1,3.3
	c-1.1,0.8-2.4,1.3-3.7,1.3h-6c-1.1,0-2.1-0.3-3-0.8c-0.9-0.5-1.7-1.3-2.2-2.2l-0.4-0.7c-1.8-3.2-2.8-6.7-3-10.4l0.1-21
	C1231.8,1010.9,1232.2,1008.3,1232.9,1005.9L1232.9,1005.9z"/>
<path class="st20" d="M1245.8,999.8c-0.3,5.5,0.1,11.1,1.2,16.6l2.1,10.8c0.1,1.1,0.1,2.1-0.2,3.1c-0.3,1-0.8,2-1.5,2.8
	c-0.7,0.8-1.6,1.4-2.5,1.9c-1,0.4-2,0.7-3.1,0.7h-1.2c-1.9,0-3.8-0.7-5.1-2.1c-1.4-1.3-2.2-3.1-2.3-5.1l0.1-9.1
	c0.1-7.6-0.3-15.2-1.2-22.8l-11.9-131l-0.2-2.7l-2.5-27.5l34.2-0.4l-0.8,23.3L1245.8,999.8z"/>
<path class="st19" d="M1249.1,1027.1c0.1,1.1,0.1,2.1-0.2,3.1c-0.3,1-0.8,2-1.5,2.8c-0.7,0.8-1.6,1.4-2.5,1.9c-1,0.4-2,0.7-3.1,0.7
	h-0.1v-2.4c0-2.3-0.2-4.6-0.5-6.8l-0.6-3.8c-1.6-10.5-2.2-21.1-1.9-31.7l4.1-118.6c0-1-0.3-2-0.9-2.7c-0.6-0.8-1.5-1.3-2.5-1.5
	l-19.2-2.4l-10-1.3l9.8-1.5l30.9-4.6l-5,141.5c-0.3,5.5,0.1,11.1,1.2,16.6L1249.1,1027.1z"/>
<path class="st20" d="M1153.4,835.9l39.3-1l-42.1,160.4c-1.3,4.1-2,8.5-1.9,12.8l0,0l-14.1,25.5l-15.9,7.9l-4.1-5.5l17.3-32.6
	c1.2-2.3,2.1-4.8,2.5-7.4L1153.4,835.9z"/>
<path class="st19" d="M1133,1023.6l8.9-10.7c2.3-2.8,3.8-6.2,4.2-9.9c0.3-2.6-0.6-6.6,0.2-9.1l30.9-117.6c0.8-3.1,0.2-5.8-2.9-5.6
	l-25-1l39.7-20.1l-38.3,145.8c-1.3,4.1-1.9,8.5-1.9,12.8l-14.1,25.5l-15.9,7.9l-4.1-5.5l1.4-2.7l6.9-2.6
	C1126.9,1029.2,1130.3,1026.8,1133,1023.6L1133,1023.6z"/>
<path class="st33" d="M1098.6,1045.9c-0.1,0.3-0.2,0.6-0.1,0.9c0,0.3,0.1,0.6,0.3,0.9c0.2,0.3,0.4,0.5,0.7,0.6
	c0.3,0.1,0.6,0.2,0.9,0.2h20c2.4,0,4.9-0.5,7.1-1.6c2.2-1,4.2-2.6,5.7-4.4l11-13.5c0.2-0.2,0.4-0.4,0.7-0.5c0.3-0.1,0.6-0.1,0.9,0
	c0.3,0.1,0.5,0.3,0.7,0.5c0.2,0.2,0.3,0.5,0.3,0.8l0.6,18.6h2l2.6-18.1c1.2-7.6,0-15.4-3.3-22.3l0,0l-18,21.8
	c-1.9,2.3-4.4,4.1-7.2,5.2c-2.8,1.1-5.9,1.3-8.8,0.8l-11.2,5.1C1101.4,1042.1,1099.7,1043.8,1098.6,1045.9z"/>
<path class="st13" d="M1241.6,703.2l0.5,2.3c9.1,36.2,13.5,73.5,13.1,110.9l1.2,46.8l-112.6,7.4l21.5-167.3L1241.6,703.2z"/>
<path class="st34" d="M1241.6,703.2l0.5,2.3c9.1,36.2,13.5,73.5,13.1,110.9l1.2,46.8l-112.6,7.4l21.5-167.3L1241.6,703.2z"/>
<path d="M1243.7,711.4l-2-8.2l-76.4,0.1l-1.6,8.1H1243.7z"/>
<path class="st25" d="M1236.4,680.2c0.5,5.4,5.5,16.3,5.6,16.3c1.7,2.8,0.3,6.1-2,6.7h1.6c4.2,17.1,7.5,34.3,9.9,51.7
	c2.6,20.3,3.8,40.8,3.6,61.3l1.2,46.8h-13.8l-1.2-46.8c0.4-37.4-4-74.7-13.1-110.9l-0.5-2.2l-5.8-21.8l-56.2-27.7l7.2-1.7
	L1236.4,680.2L1236.4,680.2z"/>
<path class="st22" d="M1167.1,640l75.3,17c1.7,0.3,3.3,1,4.7,2.1c1.4,1,2.6,2.4,3.4,3.9c0.8,1.5,1.3,3.2,1.4,5s-0.2,3.5-0.9,5.1
	c-0.6,1.5-1.5,2.8-2.6,4s-2.5,2.1-3.9,2.7c-1.5,0.6-3.1,1-4.7,1c-1.6,0-3.2-0.3-4.7-0.9l-66.5-26L1167.1,640z"/>
<path class="st22" d="M1206,643.4l6-1.2l0.3-0.9c0.3-1,0.9-1.9,1.8-2.5l7.1-5c0.2-0.2,0.5-0.3,0.8-0.3c0.3,0,0.6,0,0.8,0.1l8.9,2.7
	l-0.1,2.9l-7.6-1.6l-0.1,0.3l5.4,1.2c0.1,0,0.3,0.1,0.4,0.2c0.1,0.1,0.2,0.2,0.2,0.4l0.7,2.8c1.3,2,0.7,4.6,0.1,6.2l-2.5,4.7
	l-10.6,2.7c-0.9-0.1-15.7,0.8-15.7,0.8L1206,643.4z"/>
<path class="st19" d="M1152.2,628.7l9.3,4.2c2.5,2.3,4.8,4.8,7,7.4V638c-2.2-2.6-4.5-5.1-7-7.4l-9.3-4.2c-0.1-0.1-0.3-0.1-0.4-0.1
	s-0.3,0-0.4,0.1c-0.1,0.1-0.2,0.2-0.3,0.3c-0.1,0.1-0.1,0.3-0.1,0.4c0,0.5,0.1,1.1,0.5,1.5c0.1-0.1,0.2-0.1,0.4-0.1
	C1152,628.6,1152.1,628.6,1152.2,628.7L1152.2,628.7z"/>
<path class="st22" d="M1143,631.5c-0.1,0-0.2,0-0.3,0s-0.2,0.1-0.2,0.2c-0.1,0.1-0.1,0.2-0.1,0.2c0,0.1,0,0.2,0,0.3
	c0.3,0.7,0.6,1.3,0.9,2c0.1,0.1,0.2,0.3,0.3,0.4c0.1,0.1,0.2,0.2,0.4,0.2l12,3.5c0,0,0.1,0,0.1,0.1l4.1,4.8l-3.9-4.2
	c-0.3-0.3-0.6-0.5-1-0.6l-10.6-2.8c-0.1,0-0.2,0-0.3,0c-0.1,0-0.2,0.1-0.2,0.1c-0.1,0.1-0.1,0.1-0.2,0.2c0,0.1,0,0.2,0,0.3l0.3,1.6
	c0,0.3,0.2,0.5,0.4,0.8c0.2,0.2,0.4,0.4,0.7,0.5l8,2.5c0.3,0.1,0.6,0.2,0.8,0.5l4.3,4.5l-3.5-3.3c-0.3-0.3-0.6-0.5-1-0.6l-6.9-2.6
	c-0.1,0-0.2,0-0.2,0c-0.1,0-0.2,0-0.2,0.1c-0.1,0-0.1,0.1-0.2,0.2c0,0.1-0.1,0.1-0.1,0.2l-0.1,0.7c-0.1,0.3,0,0.6,0.1,0.9
	c0.1,0.3,0.3,0.5,0.6,0.7l8.9,5.6h0.1l14,5l-1.5-13.1c-2.2-2.6-4.5-5.1-7-7.4l-9.3-4.2c-0.1-0.1-0.3-0.1-0.4-0.1s-0.3,0-0.4,0.1
	c-0.1,0.1-0.2,0.2-0.3,0.3c-0.1,0.1-0.1,0.2-0.1,0.4l0,0c0,0.4,0.1,0.8,0.2,1.1c0.2,0.4,0.4,0.7,0.8,0.9l6.6,4.1
	c0,0,0.1,0.1,0.1,0.1l3,4.7l-3.7-4.7c-0.2-0.3-0.6-0.5-0.9-0.6C1152.5,633.8,1145.4,631.9,1143,631.5z"/>
<path class="st22" d="M1206,643.4l-60.1,1.3c-1.8,0-3.5,0.4-5,1.2c-1.6,0.8-3,1.9-4.1,3.2c-1.1,1.4-1.9,2.9-2.3,4.6
	c-0.4,1.7-0.4,3.5-0.1,5.2c0.3,1.6,0.9,3.1,1.8,4.4c0.9,1.3,2,2.5,3.4,3.3c1.3,0.9,2.8,1.5,4.4,1.8c1.6,0.3,3.2,0.3,4.8,0l52.9-11.6
	L1206,643.4z"/>
<path class="st22" d="M1206,643.4l6-1.2l0.3-0.9c0.3-1,0.9-1.9,1.8-2.5l7.1-5c0.2-0.2,0.5-0.3,0.8-0.3c0.3,0,0.6,0,0.8,0.1l8.9,2.7
	l-0.1,2.9l-7.6-1.6l-0.1,0.3l5.4,1.2c0.1,0,0.3,0.1,0.4,0.2c0.1,0.1,0.2,0.2,0.2,0.4l0.7,2.8c1.3,2,0.7,4.6,0.1,6.2l-2.5,4.7
	l-10.6,2.7c-0.9-0.1-15.7,0.8-15.7,0.8L1206,643.4z"/>
<path class="st35" d="M1230,653.3l-4.6-3.6l1.2-26.2c0-0.1-0.1-0.2-0.1-0.2c-0.1-0.1-0.1-0.1-0.2-0.1c-0.1,0-0.2,0-0.2,0.1
	c-0.1,0.1-0.1,0.1-0.1,0.2l-8.1,28.1l11.9,2.7h0.1C1230.2,654.3,1230.5,653.8,1230,653.3z"/>
<path class="st31" d="M1228.1,579l16.8,3.2c3.8,1.3,7.1,3.8,9.4,7.2c2.2,3.4,3.2,7.4,2.9,11.5l-4.6,59.5l-27.4-7L1228.1,579z"/>
<path class="st36" d="M1193.4,647.2c-0.6,0-1.2-0.2-1.7-0.5c-0.5-0.3-0.9-0.8-1.1-1.4c-0.2-0.6-0.3-1.2-0.2-1.8
	c0.1-0.6,0.4-1.1,0.8-1.6c0.4-0.4,1-0.7,1.6-0.8c0.6-0.1,1.2-0.1,1.8,0.2c0.6,0.2,1,0.6,1.4,1.1c0.3,0.5,0.5,1.1,0.5,1.7
	c0,0.8-0.3,1.6-0.9,2.2C1195,646.9,1194.2,647.2,1193.4,647.2z"/>
<path class="st37" d="M1193.4,646c-0.4,0-0.7-0.1-1.1-0.3c-0.3-0.2-0.5-0.5-0.7-0.8c-0.1-0.3-0.2-0.7-0.1-1.1c0.1-0.4,0.2-0.7,0.5-1
	c0.3-0.3,0.6-0.4,1-0.5c0.4-0.1,0.8,0,1.1,0.1c0.3,0.1,0.6,0.4,0.8,0.7c0.2,0.3,0.3,0.7,0.3,1"/>
<path class="st36" d="M1166.6,588.2c-0.6,0-1.2-0.2-1.7-0.5c-0.5-0.3-0.9-0.8-1.1-1.4c-0.2-0.6-0.3-1.2-0.2-1.8
	c0.1-0.6,0.4-1.1,0.8-1.6c0.4-0.4,1-0.7,1.6-0.8c0.6-0.1,1.2-0.1,1.8,0.2c0.6,0.2,1,0.6,1.4,1.1c0.3,0.5,0.5,1.1,0.5,1.7
	c0,0.8-0.3,1.6-0.9,2.2C1168.2,587.9,1167.4,588.2,1166.6,588.2L1166.6,588.2z"/>
<path class="st37" d="M1166.6,587.1c-0.4,0-0.7-0.1-1-0.3c-0.3-0.2-0.6-0.5-0.7-0.8c-0.1-0.3-0.2-0.7-0.1-1.1c0.1-0.4,0.2-0.7,0.5-1
	c0.3-0.3,0.6-0.4,1-0.5c0.4-0.1,0.8,0,1.1,0.1c0.4,0.1,0.6,0.4,0.9,0.7c0.2,0.3,0.3,0.7,0.3,1"/>
<path class="st36" d="M1188.3,601.5c-0.6,0-1.2-0.2-1.7-0.5c-0.5-0.3-0.9-0.8-1.1-1.4c-0.2-0.6-0.3-1.2-0.2-1.8
	c0.1-0.6,0.4-1.1,0.8-1.6c0.4-0.4,1-0.7,1.6-0.8c0.6-0.1,1.2-0.1,1.8,0.2c0.6,0.2,1,0.6,1.4,1.1c0.3,0.5,0.5,1.1,0.5,1.7
	c0,0.8-0.3,1.6-0.9,2.2C1189.9,601.2,1189.1,601.5,1188.3,601.5z"/>
<path class="st37" d="M1188.3,600.3c-0.4,0-0.7-0.1-1.1-0.3c-0.3-0.2-0.5-0.5-0.7-0.8c-0.1-0.3-0.2-0.7-0.1-1.1
	c0.1-0.4,0.2-0.7,0.5-1c0.3-0.3,0.6-0.4,1-0.5c0.4-0.1,0.8,0,1.1,0.1c0.3,0.1,0.6,0.4,0.8,0.7c0.2,0.3,0.3,0.7,0.3,1.1"/>
<path class="st36" d="M1220.2,593.4c-0.6,0-1.2-0.2-1.7-0.5s-0.9-0.8-1.1-1.4c-0.2-0.6-0.3-1.2-0.2-1.8c0.1-0.6,0.4-1.1,0.8-1.6
	c0.4-0.4,1-0.7,1.6-0.8c0.6-0.1,1.2-0.1,1.8,0.2c0.6,0.2,1,0.6,1.4,1.1c0.3,0.5,0.5,1.1,0.5,1.7c0,0.8-0.3,1.6-0.9,2.2
	C1221.8,593.1,1221.1,593.4,1220.2,593.4z"/>
<path class="st37" d="M1220.2,592.2c-0.4,0-0.7-0.1-1.1-0.3c-0.3-0.2-0.6-0.5-0.7-0.8c-0.2-0.3-0.2-0.7-0.1-1.1
	c0.1-0.4,0.3-0.7,0.5-1c0.3-0.3,0.6-0.4,1-0.5c0.4-0.1,0.7,0,1.1,0.1c0.4,0.1,0.6,0.4,0.9,0.7c0.2,0.3,0.3,0.7,0.3,1.1"/>
<path class="st36" d="M1247.3,593.8c-0.6,0-1.2-0.2-1.7-0.5c-0.5-0.3-0.9-0.8-1.1-1.4c-0.2-0.6-0.3-1.2-0.2-1.8
	c0.1-0.6,0.4-1.1,0.8-1.6c0.4-0.4,1-0.7,1.6-0.8c0.6-0.1,1.2-0.1,1.8,0.2c0.6,0.2,1,0.6,1.4,1.1c0.3,0.5,0.5,1.1,0.5,1.7
	c0,0.8-0.3,1.6-0.9,2.2C1248.9,593.4,1248.1,593.8,1247.3,593.8z"/>
<path class="st37" d="M1247.3,592.6c-0.4,0-0.7-0.1-1-0.3c-0.3-0.2-0.6-0.5-0.7-0.8c-0.1-0.3-0.2-0.7-0.1-1.1c0.1-0.4,0.2-0.7,0.5-1
	c0.3-0.3,0.6-0.4,1-0.5c0.4-0.1,0.8,0,1.1,0.1c0.3,0.1,0.6,0.4,0.8,0.7s0.3,0.7,0.3,1.1"/>
<path class="st36" d="M1210.8,621.3c-0.6,0-1.2-0.2-1.7-0.5s-0.9-0.8-1.1-1.4c-0.2-0.6-0.3-1.2-0.2-1.8c0.1-0.6,0.4-1.1,0.8-1.6
	c0.4-0.4,1-0.7,1.6-0.8c0.6-0.1,1.2-0.1,1.8,0.2c0.6,0.2,1,0.6,1.4,1.1c0.3,0.5,0.5,1.1,0.5,1.7c0,0.8-0.3,1.6-0.9,2.2
	C1212.4,621,1211.7,621.3,1210.8,621.3L1210.8,621.3z"/>
<path class="st37" d="M1210.8,620.2c-0.4,0-0.7-0.1-1-0.3c-0.3-0.2-0.6-0.5-0.7-0.8c-0.1-0.3-0.2-0.7-0.1-1.1c0.1-0.4,0.2-0.7,0.5-1
	c0.3-0.3,0.6-0.4,1-0.5c0.4-0.1,0.8,0,1.1,0.1c0.4,0.1,0.6,0.4,0.9,0.7c0.2,0.3,0.3,0.7,0.3,1.1"/>
<path class="st36" d="M1174.4,625.9c-0.6,0-1.2-0.2-1.7-0.5c-0.5-0.3-0.9-0.8-1.1-1.4c-0.2-0.6-0.3-1.2-0.2-1.8
	c0.1-0.6,0.4-1.1,0.8-1.6c0.4-0.4,1-0.7,1.6-0.8c0.6-0.1,1.2-0.1,1.8,0.2c0.6,0.2,1,0.6,1.4,1.1c0.3,0.5,0.5,1.1,0.5,1.7
	c0,0.8-0.3,1.6-0.9,2.2C1176,625.6,1175.2,625.9,1174.4,625.9L1174.4,625.9z"/>
<path class="st37" d="M1174.4,624.7c-0.4,0-0.7-0.1-1.1-0.3c-0.3-0.2-0.5-0.5-0.7-0.8c-0.1-0.3-0.2-0.7-0.1-1.1
	c0.1-0.4,0.2-0.7,0.5-1c0.3-0.3,0.6-0.4,1-0.5c0.4-0.1,0.8,0,1.1,0.1c0.3,0.1,0.6,0.4,0.8,0.7c0.2,0.3,0.3,0.7,0.3,1.1"/>
<path class="st36" d="M1245.9,624.3c-0.6,0-1.2-0.2-1.7-0.5s-0.9-0.8-1.1-1.4c-0.2-0.6-0.3-1.2-0.2-1.8c0.1-0.6,0.4-1.1,0.8-1.6
	c0.4-0.4,1-0.7,1.6-0.8c0.6-0.1,1.2-0.1,1.8,0.2c0.6,0.2,1,0.6,1.4,1.1c0.3,0.5,0.5,1.1,0.5,1.7c0,0.8-0.3,1.6-0.9,2.2
	C1247.5,623.9,1246.7,624.3,1245.9,624.3L1245.9,624.3z"/>
<path class="st37" d="M1245.9,623.1c-0.4,0-0.7-0.1-1.1-0.3c-0.3-0.2-0.5-0.5-0.7-0.8c-0.1-0.3-0.2-0.7-0.1-1.1
	c0.1-0.4,0.2-0.7,0.5-1c0.3-0.3,0.6-0.4,1-0.5c0.4-0.1,0.8,0,1.1,0.1c0.3,0.1,0.6,0.4,0.8,0.7c0.2,0.3,0.3,0.7,0.3,1"/>
<path class="st36" d="M1242.6,652.3c-0.6,0-1.2-0.2-1.7-0.5s-0.9-0.8-1.1-1.4s-0.3-1.2-0.2-1.8c0.1-0.6,0.4-1.1,0.8-1.6
	c0.4-0.4,1-0.7,1.6-0.8c0.6-0.1,1.2-0.1,1.8,0.2c0.6,0.2,1,0.6,1.4,1.1c0.3,0.5,0.5,1.1,0.5,1.7c0,0.8-0.3,1.6-0.9,2.2
	C1244.1,652,1243.4,652.3,1242.6,652.3L1242.6,652.3z"/>
<path class="st37" d="M1242.6,651.1c-0.4,0-0.7-0.1-1.1-0.3c-0.3-0.2-0.6-0.5-0.7-0.8c-0.1-0.3-0.2-0.7-0.1-1.1
	c0.1-0.4,0.2-0.7,0.5-1c0.3-0.3,0.6-0.4,1-0.5s0.8,0,1.1,0.1c0.3,0.1,0.6,0.4,0.8,0.7c0.2,0.3,0.3,0.7,0.3,1"/>
<path class="st36" d="M1170.2,677.3c-0.6,0-1.2-0.2-1.7-0.5c-0.5-0.3-0.9-0.8-1.1-1.4c-0.2-0.6-0.3-1.2-0.2-1.8
	c0.1-0.6,0.4-1.1,0.8-1.6c0.4-0.4,1-0.7,1.6-0.8c0.6-0.1,1.2-0.1,1.8,0.2c0.6,0.2,1,0.6,1.4,1.1c0.3,0.5,0.5,1.1,0.5,1.7
	c0,0.8-0.3,1.6-0.9,2.2C1171.8,677,1171,677.3,1170.2,677.3L1170.2,677.3z"/>
<path class="st37" d="M1170.2,676.2c-0.4,0-0.7-0.1-1.1-0.3c-0.3-0.2-0.6-0.5-0.7-0.8c-0.2-0.3-0.2-0.7-0.1-1.1
	c0.1-0.4,0.2-0.7,0.5-1c0.3-0.3,0.6-0.4,1-0.5c0.4-0.1,0.8,0,1.1,0.1c0.3,0.1,0.7,0.4,0.8,0.7c0.2,0.3,0.3,0.7,0.3,1"/>
<path class="st36" d="M1186.1,698.7c-0.6,0-1.2-0.2-1.7-0.5c-0.5-0.3-0.9-0.8-1.1-1.4c-0.2-0.6-0.3-1.2-0.2-1.8
	c0.1-0.6,0.4-1.1,0.8-1.6c0.4-0.4,1-0.7,1.6-0.8c0.6-0.1,1.2-0.1,1.8,0.2c0.6,0.2,1,0.6,1.4,1.1c0.3,0.5,0.5,1.1,0.5,1.7
	c0,0.8-0.3,1.6-0.9,2.2C1187.7,698.3,1186.9,698.7,1186.1,698.7L1186.1,698.7z"/>
<path class="st37" d="M1186.1,697.5c-0.4,0-0.7-0.1-1-0.3c-0.3-0.2-0.6-0.5-0.7-0.8c-0.1-0.3-0.2-0.7-0.1-1.1c0.1-0.4,0.2-0.7,0.5-1
	c0.3-0.3,0.6-0.4,1-0.5c0.4-0.1,0.8,0,1.1,0.1c0.3,0.1,0.6,0.4,0.8,0.7c0.2,0.3,0.3,0.7,0.3,1.1"/>
<path class="st36" d="M1206,678.8c-0.6,0-1.2-0.2-1.7-0.5s-0.9-0.8-1.1-1.4c-0.2-0.6-0.3-1.2-0.2-1.8c0.1-0.6,0.4-1.1,0.8-1.6
	c0.4-0.4,1-0.7,1.6-0.8c0.6-0.1,1.2-0.1,1.8,0.2c0.6,0.2,1,0.6,1.4,1.1c0.3,0.5,0.5,1.1,0.5,1.7c0,0.8-0.3,1.6-0.9,2.2
	C1207.6,678.4,1206.8,678.8,1206,678.8z"/>
<path class="st37" d="M1206,677.6c-0.4,0-0.7-0.1-1.1-0.3c-0.3-0.2-0.5-0.5-0.7-0.8c-0.2-0.3-0.2-0.7-0.1-1.1c0.1-0.4,0.2-0.7,0.5-1
	c0.3-0.3,0.6-0.4,1-0.5c0.4-0.1,0.8,0,1.1,0.1c0.3,0.1,0.7,0.4,0.8,0.7c0.2,0.3,0.3,0.7,0.3,1"/>
<path class="st36" d="M1231.1,698.2c-0.6,0-1.2-0.2-1.7-0.5c-0.5-0.3-0.9-0.8-1.1-1.4c-0.2-0.6-0.3-1.2-0.2-1.8
	c0.1-0.6,0.4-1.1,0.8-1.6c0.4-0.4,1-0.7,1.6-0.8c0.6-0.1,1.2-0.1,1.8,0.2s1,0.6,1.4,1.1c0.3,0.5,0.5,1.1,0.5,1.7
	c0,0.8-0.3,1.6-0.9,2.2C1232.7,697.9,1231.9,698.2,1231.1,698.2L1231.1,698.2z"/>
<path class="st37" d="M1231.1,697c-0.4,0-0.7-0.1-1-0.3c-0.3-0.2-0.6-0.5-0.7-0.8c-0.2-0.3-0.2-0.7-0.1-1.1c0.1-0.4,0.2-0.7,0.5-1
	c0.3-0.3,0.6-0.4,1-0.5c0.4-0.1,0.8,0,1.1,0.1c0.3,0.1,0.6,0.4,0.8,0.7c0.2,0.3,0.3,0.7,0.3,1"/>
<path class="st36" d="M1158.2,614.2c-0.6,0-1.2-0.2-1.7-0.5s-0.9-0.8-1.1-1.4c-0.2-0.6-0.3-1.2-0.2-1.8c0.1-0.6,0.4-1.1,0.8-1.6
	c0.4-0.4,1-0.7,1.6-0.8c0.6-0.1,1.2-0.1,1.8,0.2c0.6,0.2,1,0.6,1.4,1.1c0.3,0.5,0.5,1.1,0.5,1.7c0,0.8-0.3,1.6-0.9,2.2
	C1159.7,613.9,1159,614.2,1158.2,614.2z"/>
<path class="st37" d="M1158.2,613c-0.4,0-0.7-0.1-1.1-0.3c-0.3-0.2-0.6-0.5-0.7-0.8c-0.2-0.3-0.2-0.7-0.1-1.1c0.1-0.4,0.2-0.7,0.5-1
	s0.6-0.4,1-0.5c0.4-0.1,0.7,0,1.1,0.1c0.3,0.1,0.6,0.4,0.8,0.7c0.2,0.3,0.3,0.7,0.3,1.1"/>
<path class="st25" d="M1221.1,631.6l-7.1,5c-0.8,0.6-1.5,1.5-1.8,2.5l-0.3,0.9l-6,1.2l-60,1.3c-1.6,0-3.2,0.4-4.7,1
	c-1.5,0.7-2.8,1.6-3.9,2.8c-1.1,1.2-1.9,2.6-2.4,4.2c-0.5,1.5-0.7,3.2-0.6,4.8c0.3-2.9,1.6-5.6,3.8-7.5c2.2-2,4.9-3,7.9-3.1
	l59.4-1.3h0.7l6-1.2l0.3-0.9c0.3-1,0.9-1.9,1.8-2.5l7.1-5c0.3-0.2,0.6-0.3,0.9-0.3c0.3,0,0.6,0,0.9,0.1l0.6-2.1
	c-0.4-0.2-0.8-0.4-1.3-0.3C1221.9,631.2,1221.5,631.3,1221.1,631.6z"/>
<path class="st22" d="M1206,643.4l-60.1,1.3c-1.8,0-3.5,0.4-5,1.2c-1.6,0.8-3,1.9-4.1,3.2c-1.1,1.4-1.9,2.9-2.3,4.6
	c-0.4,1.7-0.4,3.5-0.1,5.2c0.3,1.6,0.9,3.1,1.8,4.4c0.9,1.3,2,2.5,3.4,3.3c1.3,0.9,2.8,1.5,4.4,1.8c1.6,0.3,3.2,0.3,4.8,0l52.9-11.6
	L1206,643.4z"/>
<path class="st35" d="M1185.5,660.3l32.2-8.8l5.2,1.2l-32.6,9.4L1185.5,660.3z"/>
<path class="st18" d="M1230.2,520.4c-0.1,1.3,0,2.7,0.4,4c0.3,1.3,0.9,2.5,1.3,3.8c1,2.5,2.4,4.8,4,6.9c0.4,0.6,0.8,1.1,1.2,1.6
	c0.4,0.5,0.8,1.1,1.3,1.6l1.3,1.5c0.5,0.5,0.9,1.1,1.3,1.6c1.5,2.3,2.6,4.9,3.3,7.6c1.4,5.3,1.7,10.8,2.4,16.1
	c0.3,2.7,0.8,5.4,1.2,8c0.4,2.7,1.2,5.3,2.5,7.7c-1.5-2.3-2.6-4.8-3.3-7.5c-0.4-1.3-0.6-2.6-0.8-4c-0.2-1.4-0.4-2.7-0.5-4
	c-0.7-5.4-1-10.8-2.3-16c-0.6-2.6-1.7-5.1-3.1-7.3c-0.4-0.5-0.8-1.1-1.2-1.5l-1.3-1.5c-0.5-0.5-0.9-1-1.3-1.6
	c-0.4-0.6-0.9-1.1-1.2-1.6c-1.7-2.2-3-4.6-4.1-7.1c-0.5-1.3-0.9-2.6-1-4C1229.8,523.2,1229.9,521.8,1230.2,520.4z"/>
<path class="st38" d="M842,692.8c0-0.5,0.2-1,0.6-1.4s0.9-0.6,1.4-0.6l13.8,0.1c0.5,0,1,0.2,1.4,0.6l5.6,5.6
	c0.2,0.2,0.4,0.3,0.6,0.4c0.2,0.1,0.5,0.2,0.8,0.1h32.6c0.5,0,1,0.2,1.4,0.6s0.6,0.9,0.6,1.4l-0.2,22.9c0,0.5-0.2,1-0.6,1.4
	s-0.9,0.6-1.4,0.6l-53-0.4c-0.5,0-1-0.2-1.4-0.5c-0.4-0.4-0.6-0.8-0.6-1.3L842,692.8L842,692.8z"/>
<path class="st38" d="M842,692.8c0-0.5,0.2-1,0.6-1.4s0.9-0.6,1.4-0.6l13.8,0.1c0.5,0,1,0.2,1.4,0.6l5.6,5.6
	c0.2,0.2,0.4,0.3,0.6,0.4c0.2,0.1,0.5,0.2,0.8,0.1h32.6c0.5,0,1,0.2,1.4,0.6s0.6,0.9,0.6,1.4l-0.2,22.9c0,0.5-0.2,1-0.6,1.4
	s-0.9,0.6-1.4,0.6l-53-0.4c-0.5,0-1-0.2-1.4-0.5c-0.4-0.4-0.6-0.8-0.6-1.3L842,692.8L842,692.8z"/>
<path class="st13" d="M843,695.8l-0.2,32.7l57.9,0.4l0.2-32.7L843,695.8z"/>
<path class="st25" d="M843,695.8l-0.2,32.7l57.9,0.4l0.2-32.7L843,695.8z"/>
<path class="st13" d="M826.4,687.2c0-0.5,0.2-1,0.6-1.4s0.9-0.6,1.4-0.6l13.7,0.1c0.5,0,1,0.2,1.4,0.6l5.6,5.6
	c0.4,0.4,0.9,0.6,1.4,0.6h32.6c0.5,0,1,0.2,1.4,0.6s0.6,0.9,0.6,1.4L885,717c0,0.5-0.2,1-0.6,1.4s-0.9,0.6-1.4,0.6l-53-0.4
	c-0.5,0-1-0.2-1.4-0.5c-0.4-0.4-0.6-0.8-0.6-1.3L826.4,687.2C826.4,687.2,826.4,687.2,826.4,687.2z"/>
<path class="st35" d="M826.4,687.2c0-0.5,0.2-1,0.6-1.4s0.9-0.6,1.4-0.6l13.7,0.1c0.5,0,1,0.2,1.4,0.6l5.6,5.6
	c0.4,0.4,0.9,0.6,1.4,0.6h32.6c0.5,0,1,0.2,1.4,0.6s0.6,0.9,0.6,1.4L885,717c0,0.5-0.2,1-0.6,1.4s-0.9,0.6-1.4,0.6l-53-0.4
	c-0.5,0-1-0.2-1.4-0.5c-0.4-0.4-0.6-0.8-0.6-1.3L826.4,687.2C826.4,687.2,826.4,687.2,826.4,687.2z"/>
<path class="st5" d="M827.3,688.2l-0.3,34.6l57.9,0.4l0.3-34.6L827.3,688.2z"/>
<path class="st13" d="M822.7,691.1c0-0.3,0.1-0.7,0.4-0.9c0.2-0.2,0.6-0.4,0.9-0.4l63.7,0.5h0.1c0.3,0,0.7,0.2,0.9,0.4
	c0.2,0.3,0.3,0.6,0.3,0.9l-3.1,36.1c0,0.3-0.2,0.6-0.4,0.8c-0.2,0.2-0.5,0.3-0.9,0.3l-56.5-0.4c-0.3,0-0.6-0.1-0.8-0.3
	c-0.2-0.2-0.4-0.5-0.4-0.8l-4.2-36.1C822.7,691.2,822.7,691.1,822.7,691.1z"/>
<path class="st35" d="M822.7,691.1c0-0.3,0.1-0.7,0.4-0.9c0.2-0.2,0.6-0.4,0.9-0.4l63.7,0.5h0.1c0.3,0,0.7,0.2,0.9,0.4
	c0.2,0.3,0.3,0.6,0.3,0.9l-3.1,36.1c0,0.3-0.2,0.6-0.4,0.8c-0.2,0.2-0.5,0.3-0.9,0.3l-56.5-0.4c-0.3,0-0.6-0.1-0.8-0.3
	c-0.2-0.2-0.4-0.5-0.4-0.8l-4.2-36.1C822.7,691.2,822.7,691.1,822.7,691.1z"/>
<path class="st13" d="M808.8,694.1c0-0.5,0.2-1,0.6-1.4s0.9-0.6,1.4-0.6l13.8,0.1c0.5,0,1,0.2,1.4,0.6l5.6,5.6
	c0.4,0.4,0.9,0.6,1.4,0.6h32.6c0.5,0,1,0.2,1.4,0.6s0.6,0.9,0.6,1.4l-0.2,22.9c0,0.5-0.2,1-0.6,1.4s-0.9,0.6-1.4,0.6l-53-0.4
	c-0.5,0-1-0.2-1.4-0.5c-0.4-0.4-0.6-0.8-0.6-1.3L808.8,694.1L808.8,694.1z"/>
<path class="st5" d="M809.7,695.1l-0.3,34.6l57.9,0.4l0.3-34.6L809.7,695.1z"/>
<path class="st13" d="M805.1,698c0-0.2,0-0.3,0.1-0.5c0.1-0.2,0.2-0.3,0.3-0.4c0.1-0.1,0.3-0.2,0.4-0.3c0.2-0.1,0.3-0.1,0.5-0.1
	l63.7,0.5h0.1c0.3,0,0.7,0.2,0.9,0.4c0.2,0.3,0.3,0.6,0.3,0.9l-3.1,36.1c0,0.3-0.2,0.6-0.4,0.8c-0.2,0.2-0.6,0.3-0.9,0.3l-56.5-0.4
	c-0.3,0-0.6-0.1-0.8-0.3c-0.2-0.2-0.4-0.5-0.4-0.8l-4.2-36.1C805.1,698.1,805.1,698,805.1,698L805.1,698z"/>
<path class="st8" d="M870.2,753.7v-50.1h-72.3v50.1h111.3v-50.1h-39L870.2,753.7"/>
<path class="st30" d="M897.3,753.2v-50.1H873v50.1h37.4v-50.1h-13.1V753.2z"/>
<path class="st5" d="M847.8,712.1c0,0.5-0.1,1-0.3,1.4c-0.2,0.4-0.5,0.9-0.8,1.2s-0.8,0.6-1.2,0.8c-0.4,0.2-0.9,0.3-1.4,0.3h-17.7
	c-1,0-1.9-0.4-2.6-1.1c-0.7-0.7-1.1-1.6-1.1-2.6c0-1,0.4-1.9,1.1-2.6c0.7-0.7,1.6-1.1,2.6-1.1h17.7c0.5,0,1,0.1,1.4,0.3
	c0.4,0.2,0.9,0.5,1.2,0.8c0.3,0.3,0.6,0.8,0.8,1.2C847.7,711.1,847.8,711.6,847.8,712.1L847.8,712.1z"/>
<path class="st39" d="M937.7,560c-0.2,0.1-18.7,60.4-26.6,86.1c-1,3.4-3.1,6.4-5.8,8.7c-2.7,2.3-6.1,3.7-9.6,4.2l-63.1,7.9
	l-1.5-16.8l50.8-19.1l9.8-35.1"/>
<path class="st39" d="M945.5,1033.8L892,1035l19.6-14.6c1.8-1.3,3.2-3.2,4-5.4c0.9-2.3,0-4-0.3-5.2c-0.7-3.5-2.4-14.8-2.4-14.8
	l29.9,0.1L945.5,1033.8z"/>
<path class="st21" d="M935.6,1014.3v-0.3c0.1-0.8-0.2-1.7-0.7-2.3c-0.5-0.7-1.3-1.1-2.1-1.2l-17.6-0.6l-0.6-3.5h28.9v0.1l1.3,18.7
	l-26.2,5.2l7.1-2.8C930.8,1025.5,935.2,1019.6,935.6,1014.3z"/>
<path class="st13" d="M946.7,1025v19.4c0,0.8-0.1,1.5-0.4,2.2c-0.3,0.7-0.7,1.3-1.2,1.8c-0.5,0.5-1.2,0.9-1.8,1.2
	c-0.7,0.3-1.4,0.4-2.2,0.4h-66c-0.6,0-1.2-0.2-1.7-0.7c-0.4-0.4-0.7-1.1-0.7-1.7l0,0c0-2.3,0.7-4.4,2-6.3c1.3-1.8,3.2-3.2,5.3-3.9
	l14.9-4.9l18.9-14.7c1-0.7,2.1-1.1,3.3-1.1c1.2,0,2.4,0.5,3.3,1.3l8.4,7.1c0.6,0.5,1.3,0.9,2.1,1s1.6,0.1,2.3-0.1l10.6-3.3
	c0.3-0.1,0.7-0.1,1-0.1c0.4,0,0.7,0.2,1,0.4c0.3,0.2,0.5,0.5,0.7,0.8C946.6,1024.3,946.7,1024.7,946.7,1025L946.7,1025z"/>
<path class="st40" d="M946.7,1025v19.4c0,0.8-0.1,1.5-0.4,2.2c-0.3,0.7-0.7,1.3-1.2,1.8c-0.5,0.5-1.2,0.9-1.8,1.2
	c-0.7,0.3-1.4,0.4-2.2,0.4h-66c-0.6,0-1.2-0.2-1.7-0.7c-0.4-0.4-0.7-1.1-0.7-1.7l0,0c0-2.3,0.7-4.4,2-6.3c1.3-1.8,3.2-3.2,5.3-3.9
	l14.9-4.9l18.9-14.7c1-0.7,2.1-1.1,3.3-1.1c1.2,0,2.4,0.5,3.3,1.3l8.4,7.1c0.6,0.5,1.3,0.9,2.1,1s1.6,0.1,2.3-0.1l10.6-3.3
	c0.3-0.1,0.7-0.1,1-0.1c0.4,0,0.7,0.2,1,0.4c0.3,0.2,0.5,0.5,0.7,0.8C946.6,1024.3,946.7,1024.7,946.7,1025L946.7,1025z"/>
<path class="st13" d="M941,1050.1h-66c-0.6,0-1.2-0.2-1.7-0.7c-0.4-0.4-0.7-1.1-0.7-1.7l0,0c0-0.8,0.1-1.6,0.3-2.4h73.7
	c-0.2,1.3-0.9,2.5-1.9,3.4C943.6,1049.6,942.3,1050.1,941,1050.1L941,1050.1z"/>
<path class="st35" d="M941,1050.1h-66c-0.6,0-1.2-0.2-1.7-0.7c-0.4-0.4-0.7-1.1-0.7-1.7l0,0c0-0.8,0.1-1.6,0.3-2.4h73.7
	c-0.2,1.3-0.9,2.5-1.9,3.4C943.6,1049.6,942.3,1050.1,941,1050.1L941,1050.1z"/>
<path class="st41" d="M914.2,1025.7c0.1,0,0.3-0.1,0.4-0.2c0.1-0.1,0.1-0.1,0.1-0.2c0-0.1,0-0.1,0-0.2c0-0.1,0-0.2,0-0.2
	c0-0.1-0.1-0.1-0.1-0.2l-4-4.3c-0.1-0.1-0.3-0.2-0.4-0.2c-0.2,0-0.3,0.1-0.4,0.2c-0.1,0.1-0.2,0.3-0.2,0.4c0,0.2,0.1,0.3,0.2,0.4
	l4,4.3C913.8,1025.6,914,1025.7,914.2,1025.7L914.2,1025.7z"/>
<path class="st41" d="M911,1028.1c0.1,0,0.3-0.1,0.4-0.2c0.1,0,0.1-0.1,0.1-0.2c0-0.1,0-0.2,0-0.2c0-0.1,0-0.2,0-0.2
	c0-0.1-0.1-0.1-0.1-0.2l-4-4.3c-0.1-0.1-0.3-0.2-0.4-0.2c-0.2,0-0.3,0.1-0.4,0.2c-0.1,0.1-0.2,0.3-0.2,0.4c0,0.1,0.1,0.3,0.2,0.4
	l4,4.3C910.7,1028.1,910.8,1028.1,911,1028.1L911,1028.1z"/>
<path class="st41" d="M907.9,1030.6c0.1,0,0.3-0.1,0.4-0.2c0.1-0.1,0.2-0.3,0.2-0.4c0-0.2-0.1-0.3-0.2-0.4l-4-4.3
	c-0.1-0.1-0.3-0.1-0.4-0.1c-0.1,0-0.3,0.1-0.4,0.2c-0.1,0.1-0.2,0.2-0.2,0.4c0,0.2,0,0.3,0.1,0.4l4,4.3
	C907.5,1030.5,907.7,1030.6,907.9,1030.6L907.9,1030.6z"/>
<path class="st39" d="M1002.1,1030.6l-24.5-3.2l-1.5-21l-0.5-11.5l28.8,0.2l-0.4,11.3L1002.1,1030.6z"/>
<path class="st21" d="M997.4,1026.5l-0.5-11.7c0-0.7-0.3-1.5-0.8-2c-0.5-0.5-1.2-0.9-1.9-1l-17.8-2.3l-0.2-3.2h27.9l-2.2,26.1
	L997.4,1026.5z"/>
<path class="st40" d="M999.9,1019.5l-0.7-0.7c-2.6-2.5-6.1-3.9-9.7-3.9c-3.6,0-7.1,1.5-9.6,4.1l-0.4,0.5c-1.3,1.3-2,3.1-2,4.9v2.9
	c0,1.7-0.2,3.4-0.8,5l-2.4,7.9c-0.6,1.9-0.9,3.9-0.9,5.9v1c0,0.8,0.4,1.5,0.9,2c0.6,0.5,1.3,0.8,2.1,0.8h27.6c0.4,0,0.8,0,1.1-0.2
	c0.3-0.1,0.7-0.3,1-0.6c0.3-0.3,0.5-0.6,0.7-0.9c0.2-0.4,0.2-0.7,0.3-1.1v-0.4c0-2.3-0.4-4.6-1.1-6.8l-2.8-7.8c-0.6-1.8-1-3.6-1-5.5
	l-0.1-2.2C1002,1022.6,1001.2,1020.9,999.9,1019.5L999.9,1019.5z"/>
<path class="st13" d="M1007.1,1046.8v0.4c0,0.8-0.4,1.5-0.9,2c-0.6,0.5-1.3,0.8-2.1,0.8h-27.5c-0.4,0-0.8,0-1.1-0.2
	c-0.4-0.1-0.7-0.3-1-0.6c-0.3-0.3-0.5-0.6-0.7-0.9c-0.2-0.3-0.2-0.7-0.3-1.1v-1c0-0.4,0-0.8,0.1-1.1h33.5V1046.8z"/>
<path class="st13" d="M999.9,1019.5l-0.7-0.7c-2.6-2.5-6.1-3.9-9.7-3.9c-3.6,0-7.1,1.5-9.6,4.1l-0.4,0.5c-1.3,1.3-2,3.1-2,4.9v2.9
	c0,1.7-0.2,3.4-0.8,5l-2.4,7.9c-0.6,1.9-0.9,3.9-0.9,5.9v1c0,0.8,0.4,1.5,0.9,2c0.6,0.5,1.3,0.8,2.1,0.8h27.6c0.4,0,0.8,0,1.1-0.2
	c0.3-0.1,0.7-0.3,1-0.6c0.3-0.3,0.5-0.6,0.7-0.9c0.2-0.4,0.2-0.7,0.3-1.1v-0.4c0-2.3-0.4-4.6-1.1-6.8l-2.8-7.8c-0.6-1.8-1-3.6-1-5.5
	l-0.1-2.2C1002,1022.6,1001.2,1020.9,999.9,1019.5L999.9,1019.5z"/>
<path class="st41" d="M984.6,1026.1c0.1,0,0.2,0,0.3-0.1c1.6-0.8,3.3-1.1,5.1-1.1c1.8,0,3.5,0.4,5.1,1.1c0.1,0.1,0.2,0.1,0.3,0.1
	c0.1,0,0.2,0,0.3,0c0.1,0,0.2-0.1,0.2-0.1c0.1-0.1,0.1-0.1,0.2-0.2c0-0.1,0.1-0.2,0.1-0.3c0-0.1,0-0.2,0-0.3c0-0.1-0.1-0.2-0.1-0.2
	c-0.1-0.1-0.1-0.1-0.2-0.2c-1.8-0.9-3.7-1.3-5.7-1.3c-2,0-3.9,0.5-5.7,1.3c-0.2,0.1-0.3,0.2-0.3,0.4c-0.1,0.2-0.1,0.3,0,0.5
	c0.1,0.1,0.2,0.2,0.3,0.3C984.3,1026,984.4,1026.1,984.6,1026.1L984.6,1026.1z"/>
<path class="st41" d="M984.6,1029.6c0.1,0,0.2,0,0.3-0.1c1.6-0.8,3.3-1.1,5.1-1.1c1.8,0,3.5,0.4,5.1,1.1c0.1,0.1,0.2,0.1,0.3,0.1
	c0.1,0,0.2,0,0.3,0c0.1,0,0.2-0.1,0.2-0.1c0.1-0.1,0.1-0.1,0.2-0.2c0-0.1,0.1-0.2,0.1-0.3c0-0.1,0-0.2,0-0.3c0-0.1-0.1-0.2-0.1-0.2
	c-0.1-0.1-0.1-0.1-0.2-0.2c-1.8-0.9-3.7-1.3-5.7-1.3c-2,0-3.9,0.5-5.7,1.3c-0.2,0.1-0.3,0.2-0.3,0.4c-0.1,0.2-0.1,0.4,0,0.5
	c0.1,0.1,0.2,0.2,0.3,0.3C984.3,1029.6,984.4,1029.6,984.6,1029.6z"/>
<path class="st41" d="M984.6,1033c0.1,0,0.2,0,0.3-0.1c1.6-0.8,3.3-1.1,5.1-1.1c1.8,0,3.5,0.4,5.1,1.1c0.1,0,0.2,0.1,0.3,0.1
	c0.1,0,0.2,0,0.3,0c0.1,0,0.2-0.1,0.2-0.1c0.1-0.1,0.1-0.1,0.2-0.2c0-0.1,0.1-0.2,0.1-0.3c0-0.1,0-0.2,0-0.3c0-0.1-0.1-0.2-0.1-0.2
	c-0.1-0.1-0.1-0.1-0.2-0.2c-1.8-0.9-3.7-1.3-5.7-1.3c-2,0-3.9,0.5-5.7,1.3c-0.2,0.1-0.3,0.2-0.3,0.4c-0.1,0.2-0.1,0.3,0,0.5
	c0.1,0.1,0.2,0.2,0.3,0.3C984.3,1033,984.4,1033,984.6,1033L984.6,1033z"/>
<path class="st33" d="M1019.1,696.4l-15,310h-27.9l-11.5-252.8c-0.1-0.8-0.4-1.5-1-2.1c-0.6-0.5-1.4-0.8-2.2-0.8l0,0
	c-0.8,0-1.6,0.3-2.1,0.8c-0.6,0.5-0.9,1.3-1,2.1l-25.5,112.5l10.8,140.2h-28.9l-21-133.6c-0.7-4.3-0.8-8.7-0.4-13l16.6-174.4
	L1019.1,696.4L1019.1,696.4z"/>
<path class="st42" d="M961.5,750.7c-0.9-0.9-1.9-1.5-3.1-1.8c-1.2-0.3-2.4-0.3-3.6,0c-1.2,0.3-2.2,1-3.1,1.9c-0.8,0.9-1.4,2-1.7,3.2
	l-27.8,108.6c-0.3,1.3-0.4,2.7-0.3,4l12.5,139.7h9.2l-10.8-140.2l25.7-113.3c0.2-0.6,0.7-1.1,1.2-1.5
	C960.2,750.9,960.8,750.7,961.5,750.7z"/>
<path class="st42" d="M1007,696.4l-15,310h12l15-310H1007z"/>
<path class="st35" d="M1007.1,1046.8v0.4c0,0.8-0.4,1.5-0.9,2c-0.6,0.5-1.3,0.8-2.1,0.8h-27.5c-0.4,0-0.8,0-1.1-0.2
	c-0.4-0.1-0.7-0.3-1-0.6c-0.3-0.3-0.5-0.6-0.7-0.9c-0.2-0.3-0.2-0.7-0.3-1.1v-1c0-0.4,0-0.8,0.1-1.1h33.5V1046.8z"/>
<path class="st13" d="M889.5,603.9l11.6-45.2c1-4.1,3.2-7.7,6.5-10.4c3.2-2.7,7.2-4.2,11.4-4.4l29.9-1.6l-9.2,63.5h-26L889.5,603.9z
	"/>
<path class="st21" d="M911,601.9l2.2-17.3c0-0.1,0.1-0.2,0.2-0.3c0.1-0.1,0.2-0.1,0.3-0.1c0.1,0,0.2,0.1,0.3,0.1
	c0.1,0.1,0.1,0.2,0.1,0.3l-0.4,17.5L911,601.9z"/>
<path class="st39" d="M807.9,646.5l17.6,8.8l10-3.3v14.4l-8.1,1.4l-17.9,11.1l-16.6-11.7l5.8-14.4L807.9,646.5z"/>
<path class="st21" d="M911,601.9c0,0-0.7,22.3-2.9,42.3c-0.8,7.2-8.1,12-15.4,12.9l-66,8.2l0.6,2.5l4.1-0.8l64.2-8
	c3.5-0.4,6.9-1.9,9.6-4.2c2.7-2.3,4.7-5.3,5.8-8.7c7.9-25.7,26.4-86,26.6-86.1L911,601.9z"/>
<path class="st35" d="M819,658.3c0,0,2.6,0,4-3.2c0-0.1,0.1-0.2,0.3-0.3c0.1-0.1,0.3-0.1,0.4,0c0.1,0,0.2,0.1,0.3,0.3
	c0.1,0.1,0.1,0.3,0,0.4c-0.3,0.9-0.8,1.6-1.5,2.3c-0.6,0.7-1.4,1.2-2.3,1.5L819,658.3z"/>
<path class="st13" d="M1031,620.9l-12.9,90.1H907.6l9.7-166.6l28-1.9l0.8,7.5c1.9,8.3,34.4,4.3,41.2-3.2l-2.6-5.5l10.9,1.5
	l14.1,24.6l17,42.6L1031,620.9z"/>
<path class="st23" d="M1026.6,610l-17-42.6c-1.5,0-3.1,0.4-4.5,1.1c-1.4,0.7-2.6,1.6-3.7,2.8c-1,1.2-1.8,2.5-2.2,4
	c-0.4,1.5-0.6,3-0.4,4.6l8.6,63.3L988.1,711h30l12.9-90.1L1026.6,610z"/>
<path class="st39" d="M1037.7,566.1l12.3,67.8c0.8,4.5,0.1,9.1-2.1,13.1l-39.7,72.9c1,3.3,1,6.7,0.2,10c-0.9,3.3-2.6,6.3-5,8.7
	c0,0-10.5-9.5-15-19.2l30.6-78.1l-10-34.2L1037.7,566.1z"/>
<path class="st43" d="M1004,738c0,0-10.6-9.9-15.2-19.6l-0.4,0.9c4.5,9.7,15,19.2,15,19.2L1004,738z"/>
<path class="st13" d="M1046.1,610H1010l-12.7-42.4l-10-20.8l-2.6-5.5l30.7,4.1c1.3,0.2,2.6,0.4,3.8,0.8c9.9,3,17.3,12.3,19.3,22.6
	L1046.1,610z"/>
<path class="st13" d="M988.7,541.9c4.4,22.2-54.5,24.5-43.4,0.6L988.7,541.9z"/>
<path class="st44" d="M988.7,541.9c4.4,22.2-54.5,24.5-43.4,0.6l39.6-1.1L988.7,541.9z"/>
<path class="st13" d="M890.5,600.2l-1,3.7l24.2,1.9l0.1-3.8L890.5,600.2z"/>
<path class="st44" d="M913.7,605.8l0.1-3.8l-23.2-1.8l-1,3.7L913.7,605.8z"/>
<path class="st13" d="M1008.7,605.8l1.3,4.2h36.1l-0.9-4.2H1008.7z"/>
<path class="st44" d="M1008.7,605.8l1.3,4.2h36.1l-0.9-4.2H1008.7z"/>
<path class="st39" d="M984.9,541.4c1.8,9.5-33.7,16.2-35.5,6.7l-1.7-19v0c1.9,1.1,4.1,1.8,6.3,1.9c2.6,0.1,5.2-0.2,7.6-1
	c8.2-2.5,15.9-9.6,15.2-19.3L984.9,541.4z"/>
<path class="st35" d="M979.3,520.3l-4.2-2.9l1.4-7.6L979.3,520.3z"/>
<path class="st39" d="M976.9,511.1c-0.5,18-18.2,21.3-24.9,19.9c-9-1.9-12.7-13-12.9-12.7c-5.7-13.7-4.8-33.3-4.8-33.3l34.1-7.3
	l4.6,18.8C975.5,506.6,976.9,511.1,976.9,511.1z"/>
<g class="st24">
	<path class="st25" d="M945.6,508.3c0.1-0.6,0.3-1.1,0.7-1.4c0.4-0.4,1-0.5,1.5-0.5c0.1,0,0.2,0,0.2,0c0.1,0,0.1,0.1,0.2,0.1
		c0.1,0.1,0.1,0.1,0.1,0.2c0,0.1,0,0.2,0,0.2c0,0.1,0,0.2-0.1,0.2c0,0.1-0.1,0.1-0.2,0.2s-0.1,0.1-0.2,0.1c-0.1,0-0.2,0-0.2,0
		c-0.3,0-0.6,0.1-0.8,0.3c-0.2,0.2-0.4,0.4-0.4,0.7c0,0.3,0.1,0.6,0.2,0.8s0.4,0.4,0.7,0.4l2.3,0.2c0.1,0,0.2,0,0.2,0
		c0.1,0,0.1,0.1,0.2,0.1s0.1,0.1,0.1,0.2c0,0.1,0,0.2,0,0.2c0,0.1,0,0.2-0.1,0.2c0,0.1-0.1,0.1-0.2,0.2c-0.1,0-0.1,0.1-0.2,0.1
		c-0.1,0-0.2,0-0.2,0l-2.3-0.2c-0.3,0-0.5-0.1-0.8-0.2c-0.2-0.1-0.5-0.3-0.6-0.5c-0.2-0.2-0.3-0.5-0.3-0.7
		C945.6,508.8,945.6,508.5,945.6,508.3z"/>
</g>
<path class="st18" d="M961.5,530.3c-2.5,0.8-5,1.1-7.6,1c-2.2-0.2-4.4-0.8-6.3-2c-0.7-0.4-1.4-0.9-2-1.4l-0.4-0.4
	c-0.2-0.1-0.3-0.3-0.5-0.5c-2.5-2.5-4.4-5.6-5.6-8.9c0.2-0.2,1.3-1.7,5.6-3.2c4.1-1.4,8.6-4.5,20.6-5.2c0,0,4.6-8.2,6.3-10.4
	c0.3-0.4,0.5-0.6,0.6-0.5l3.2,6.1l0.1,0.5c0.1,0.4,0.3,0.7,0.4,1c0.3,0.6,0.5,1.2,0.6,1.8c0.2,0.8,0.3,1.5,0.3,2.3
	C977.4,520.5,969.8,527.7,961.5,530.3z"/>
<path class="st5" d="M951.1,521.1c5.6,0.2,7.6-5.5,7.2-5.7c-0.3-0.2-10.7,3.5-10.9,3.8C947.4,519.5,949.5,521.2,951.1,521.1z"/>
<path class="st18" d="M926.6,484.8c6.6,8,20,3.9,28.3-2.2c4.1,4.6,8.6,6.8,14.3,4.5c0.2,3.5,2.3,9,2.4,12.4
	c-0.2,3.5,0.5,4.2,2.8,6.8c2.5,2.4,7,2.8,9.2,0.1c0.7-1.1,1.1-2.3,1.3-3.5c0.2-1.3,0.1-2.5-0.3-3.8c-0.8-2.4-1.1-5-1.1-7.5
	c0.4-3.7,4.6-1.3,4.2-9.5c-0.5-10.8-9.9-9.9-9.9-9.9c-0.9-2.3-2.3-4.5-4-6.3c-1.1-1.3-2.6-2.4-4.2-3.1c-0.8-0.3-1.7-0.4-2.5-0.2
	c-0.8,0.2-1.6,0.7-2.1,1.3c-3.6-2.7-7.8-4.4-12.2-5c-4.4-0.3-9.3,1.9-10.7,6.1c-4.3-1.3-11-0.8-14.1,2.6
	C925.1,471.2,922.3,480.9,926.6,484.8"/>
<path class="st39" d="M975.9,506.5L975.9,506.5c-0.2-0.3-3.8-7.5-3.8-7.5c0-0.1-0.3,0-0.6,0.5c-0.3-1.6-0.7-3.1-1.2-4.7
	c0,0,2.5-4.8,7.4-3.7C983.3,492.3,984.5,504.1,975.9,506.5z"/>
<path class="st35" d="M978.5,494c-0.4-0.2-0.8-0.3-1.3-0.4c-0.4,0-0.9,0-1.3,0.2c-0.4,0.2-0.8,0.5-1,0.8c-0.3,0.3-0.5,0.7-0.6,1.2
	c-0.4,1.1-0.4,2.2-0.2,3.3l0.1,1c0,0.1,0,0.1,0.1,0.2s0.1,0.1,0.1,0.1c0.1,0,0.1,0.1,0.2,0.1c0.1,0,0.1,0,0.2,0c0.1,0,0.1,0,0.2-0.1
	c0.1,0,0.1-0.1,0.2-0.1c0-0.1,0.1-0.1,0.1-0.2c0-0.1,0-0.1,0-0.2l-0.1-1c-0.1-0.9-0.1-1.9,0.2-2.8c0.2-0.6,0.6-1.1,1.1-1.4
	c0.6-0.2,1.2-0.1,1.7,0.1c0.1,0.1,0.3,0.1,0.4,0c0.1-0.1,0.2-0.2,0.3-0.3C978.9,494.5,978.8,494.2,978.5,494z"/>
<path d="M956,501c1.1,0,2-0.9,2-1.9s-0.9-2-2-2c-1.1,0-2,0.9-2,2S954.9,501,956,501z"/>
<path class="st5" d="M955.1,498.9c0.2,0,0.4-0.2,0.4-0.4s-0.2-0.4-0.4-0.4c-0.2,0-0.4,0.2-0.4,0.4S954.9,498.9,955.1,498.9z"/>
<path d="M940.5,503.1c1.1,0,1.9-0.9,1.9-2s-0.9-1.9-1.9-1.9c-1.1,0-2,0.9-2,1.9S939.5,503.1,940.5,503.1z"/>
<path class="st5" d="M939.7,500.9c0.2,0,0.4-0.2,0.4-0.4c0-0.2-0.2-0.4-0.4-0.4c-0.2,0-0.4,0.2-0.4,0.4
	C939.3,500.8,939.5,500.9,939.7,500.9z"/>
<path class="st45" d="M659.7,1039.1h22.8l4.2-38.6l-26.9,0.1L659.7,1039.1z"/>
<path class="st35" d="M659.8,1011.8v3.1h17.9c0.6,0,1.2,0.1,1.7,0.4c0.5,0.2,1,0.6,1.4,1c0.4,0.4,0.7,1,0.9,1.5
	c0.2,0.6,0.2,1.2,0.2,1.8l-1.5,13.7h2.8l2.4-21.5H659.8z"/>
<path class="st46" d="M662.1,1024.4l0.7-0.6c5.2-4.5,14.1-4.4,19.1,0.2l0.4,0.4c0.6,0.5,1.1,1.2,1.4,1.9c0.3,0.7,0.5,1.5,0.6,2.3
	v2.5c0,1.5,0.2,2.9,0.8,4.3l2.4,6.8c0.6,1.6,0.9,3.3,0.9,5.1v0.9c0,1.3-1.4,2.4-3,2.4H658c-1.7,0-3-1.1-3-2.4v-0.3
	c0-2,0.4-4,1.2-5.9l2.7-6.7c0.6-1.5,1-3.1,1-4.8l0.1-1.9C660.1,1027,660.8,1025.5,662.1,1024.4z"/>
<path class="st45" d="M748.5,1012l1.5,22.4l44.4,2.1l-14.8-14.9c-2.8-2-4.5-6.5-5.1-9.8L748.5,1012z"/>
<path class="st35" d="M764.4,1015.8c2,0,4,0.6,5.8,1.6s3.2,2.6,4.1,4.4c0.7,1.5,1.8,2.8,3.1,3.8l10.6,10.7l6.5,0.3l-14.8-14.9
	c-2.8-2-4.5-6.5-5.1-9.8l-26.1,0.3l0.3,3.9L764.4,1015.8z"/>
<path class="st46" d="M749.2,1025c0,0,10.1,6.3,21.4,0.8c-0.2-1.2-0.1-2.4,0.3-3.5c0.4-1.1,1.1-2.1,2-2.9c1.9-1.5,5.7-2,6.7-0.6
	c1,1.4,2.7,3.6,5.3,6.9c3.8,4.5,8.8,9.7,12.8,10.6c7.2,1.5,21.7-5.8,22.7,9.5c0,0-14.2,5.3-27.4,4c-8.6-1-17.1-3-25.2-6v6.1h-20.6
	C747.1,1050,742.5,1032.7,749.2,1025z"/>
<path d="M745.6,1040.2c0.2,3.3,0.7,6.6,1.5,9.8h20.6v-6.2c8.1,3,16.6,5,25.2,6c13.2,1.3,27.4-4,27.4-4c-0.1-1.2-0.2-2.4-0.5-3.5
	c-10.3,5.2-22.3,6.3-33.4,3c-7.5-2.2-13.6-3.7-19-5.2C767.4,1040.2,749.7,1039.8,745.6,1040.2z"/>
<path d="M795.8,1037c0,0-10.5,3.1-18.3-2.9c-5.8-4.4-8.8-7-6.4-12.3c0.4-1,1.2-1.9,2.1-2.6c0.9-0.6,2-1,3.1-1
	C776.2,1018.1,783.6,1035.3,795.8,1037z"/>
<path class="st5" d="M698.3,718.7c10.9-96.7-8.7-155.8-15.7-176.2l11-3l36.4,0.3l4.6,1.6c0.9,18.1,13.9,99.3,26.4,177.1h-62.7V718.7
	z"/>
<path class="st13" d="M660.2,695.8l107.3,1.7l10.2,315H748l-27.5-258.3c-0.1-0.8-0.5-1.5-1.1-2.1c-0.6-0.5-1.4-0.8-2.2-0.9l0,0
	c-0.8,0-1.6,0.3-2.2,0.8c-0.6,0.5-1,1.3-1.1,2.1L688,1012.5h-29.8L660.2,695.8z"/>
<path class="st13" d="M657.6,1006.1h32.2l-0.6,6.4h-31.7L657.6,1006.1z"/>
<path class="st35" d="M677.6,1006.1h12.2l-0.6,6.4l-12.1-0.1L677.6,1006.1z"/>
<path class="st13" d="M774.5,1006h-28.2l0.7,6.5h27.8L774.5,1006z"/>
<path class="st13" d="M778.2,1006h-3.7l0.4,6.5h3.6L778.2,1006z"/>
<path class="st35" d="M778.1,1006h-4.8l0.5,6.5h4.7L778.1,1006z"/>
<path class="st35" d="M677.6,1006l21.5-240.9c0.6-3.9,2.5-7.4,5.5-9.9c3-2.5,6.8-3.9,10.7-3.8h2.2c-0.8,0-1.6,0.3-2.3,0.8
	c-0.6,0.6-1,1.3-1.1,2.2L688.5,1006H677.6z"/>
<path d="M757.8,704.5h-66.3c-0.4,0-0.6-1.8-0.6-3.7c0-1.5,0.2-3,0.6-4.5h66.3c0.5,1.4,0.7,2.9,0.6,4.5
	C758.4,702.7,758.1,704.5,757.8,704.5z"/>
<path class="st45" d="M729.4,497.2c0,0-31.9-20-33.1,4.4l-0.5,6.3l-2.2,32c0,0.9,0.3,1.7,0.9,2.4l22.1,12.6c0.3,0.2,0.6,0.3,0.9,0.3
	c0.3,0,0.6-0.1,0.9-0.3l10-11.6c0.5-0.4,0.8-0.9,1-1.4c0.2-0.6,0.3-1.2,0.2-1.8l0,0l-2-19c0.4-1.8,0.6-3.7,0.6-5.6
	C728.6,505.8,729.4,497.2,729.4,497.2z"/>
<path d="M731,498.6c6.6,0,11.9-5.3,11.9-11.9c0-6.6-5.3-11.9-11.9-11.9c-6.6,0-11.9,5.3-11.9,11.9
	C719.1,493.3,724.4,498.6,731,498.6z"/>
<path class="st45" d="M733,479.9c0,0,11.3,47.5-13,50.7c-21.1,2.8-23.4-30.1-23.4-30.1l1-21.3L733,479.9z"/>
<path d="M724.7,460.1c-6.6,0-12.3,2.7-15.5,6.9c-0.8,1-1.9,1.8-3.1,2.2c-1.2,0.5-2.5,0.6-3.8,0.4c-0.8,0-1.5,0-2.3,0.1
	c-21.1,1.5-18.1,33,1,30.4c4-0.5,7.6-3.4,9.7-7.9c0.7-1.5,1.8-2.7,3.3-3.4c1.5-0.7,3.2-0.9,4.7-0.4c2,0.5,4,0.8,6,0.8
	c10.1,0,18.3-6.5,18.3-14.5S734.8,460.1,724.7,460.1z"/>
<path class="st35" d="M695.7,509.5c1.1,0.1,2.2-0.2,3.1-0.7l-3.4,5.3L695.7,509.5z"/>
<path class="st45" d="M697,496.9c-0.2-0.6-0.5-1.2-1-1.6c-0.4-0.5-1-0.8-1.6-1c-0.6-0.2-1.2-0.3-1.9-0.3c-0.6,0-1.3,0.2-1.8,0.5
	c-5.3,2.3-4.2,14.4,4.8,15.1c4.7,0.4,3.8-2.4,3-6L697,496.9z"/>
<path class="st25" d="M690.5,497.6c0.4-0.3,0.8-0.5,1.2-0.6c0.4-0.1,0.9-0.1,1.4-0.1c0.4,0.1,0.8,0.3,1.2,0.6c0.3,0.3,0.6,0.6,0.8,1
	c0.6,1,0.9,2.1,0.9,3.3l0.1,1c0,0.1,0,0.1,0,0.2c0,0.1-0.1,0.1-0.1,0.2c-0.1,0.1-0.1,0.1-0.2,0.1c-0.1,0-0.1,0-0.2,0
	c-0.1,0-0.1,0-0.2,0c-0.1,0-0.1-0.1-0.2-0.1c0-0.1-0.1-0.1-0.1-0.2c0-0.1,0-0.1,0-0.2l-0.1-1c0-1-0.3-1.9-0.7-2.7
	c-0.3-0.5-0.8-1-1.3-1.2c-0.6,0-1.2,0.1-1.7,0.5c-0.1,0.1-0.3,0.1-0.4,0.1c-0.1,0-0.3-0.1-0.4-0.2
	C690.2,498.1,690.3,497.8,690.5,497.6z"/>
<path class="st25" d="M729.2,534.4l-0.8-7.6c-2,2.1-7.9,5.1-14.5,3.6c-3.3-0.8-6.3-2.7-8.5-5.3c-0.1-0.1-0.2-0.2-0.3-0.2
	c-0.1,0-0.3,0-0.4,0.1c-0.1,0-0.1,0.1-0.1,0.1c0,0.1-0.1,0.1-0.1,0.2c0,0.1,0,0.1,0,0.2c0,0.1,0.1,0.1,0.1,0.2
	c2.9,3.3,6.9,5.5,11.2,6c1.9,1.3,4.1,2.3,6.4,2.7C724.5,534.9,726.9,534.9,729.2,534.4L729.2,534.4z"/>
<path class="st25" d="M721.8,520.9C721.8,521,721.7,521,721.8,520.9l-3,0.2c-0.2,0-0.3-0.1-0.5-0.2c-0.1-0.1-0.2-0.3-0.2-0.5
	c0-0.1,0-0.2,0-0.3c0-0.1,0.1-0.2,0.1-0.2c0.1-0.1,0.1-0.1,0.2-0.2c0.1,0,0.2-0.1,0.3-0.1l2.9-0.2c0.4,0,0.7,0.2,0.7,0.5
	C722.3,520.6,722.1,520.9,721.8,520.9z"/>
<path class="st25" d="M722.9,518.1c-5.3,0.8-7.7-2.1-8.6-3.5c0-0.1-0.1-0.2-0.1-0.2c0-0.1,0-0.2,0-0.3c0-0.1,0.1-0.2,0.1-0.2
	c0.1-0.1,0.1-0.1,0.2-0.2c0.1,0,0.2-0.1,0.2-0.1c0.1,0,0.2,0,0.3,0c0.1,0,0.2,0.1,0.2,0.1c0.1,0.1,0.1,0.1,0.2,0.2
	c0.8,1.4,3.4,4.5,9.8,2.3c0.1,0,0.2-0.1,0.3-0.1c0.1,0,0.2,0,0.3,0.1c0.1,0,0.2,0.1,0.2,0.1c0.1,0.1,0.1,0.1,0.1,0.2
	c0,0.1,0,0.2,0,0.3c0,0.1,0,0.2-0.1,0.2c0,0.1-0.1,0.1-0.2,0.2c-0.1,0.1-0.1,0.1-0.2,0.1C724.7,517.8,723.8,518,722.9,518.1
	L722.9,518.1z"/>
<path d="M715.5,504c1.1,0,1.9-0.9,1.9-2s-0.9-1.9-1.9-1.9c-1.1,0-2,0.9-2,1.9S714.5,504,715.5,504z"/>
<path class="st5" d="M716.4,501.9c0.2,0,0.4-0.2,0.4-0.4s-0.2-0.4-0.4-0.4c-0.2,0-0.4,0.2-0.4,0.4S716.2,501.9,716.4,501.9z"/>
<path d="M731,504.1c1.1,0,2-0.9,2-1.9c0-1.1-0.9-2-2-2c-1.1,0-2,0.9-2,2C729,503.2,729.9,504.1,731,504.1z"/>
<path class="st5" d="M731.8,501.9c0.2,0,0.4-0.2,0.4-0.4c0-0.2-0.2-0.4-0.4-0.4c-0.2,0-0.4,0.2-0.4,0.4
	C731.4,501.8,731.6,501.9,731.8,501.9z"/>
<path class="st25" d="M724.3,513.3l-2.6,0.2c-0.1,0-0.2,0-0.2,0s-0.2-0.1-0.2-0.1c-0.1-0.1-0.1-0.1-0.2-0.2s-0.1-0.2-0.1-0.2
	c0-0.1,0-0.2,0-0.2s0.1-0.1,0.1-0.2c0.1-0.1,0.1-0.1,0.2-0.1c0.1,0,0.2,0,0.2,0l2.6-0.2c0.2,0,0.3,0,0.4-0.1
	c0.1-0.1,0.3-0.2,0.4-0.3c0.1-0.1,0.2-0.2,0.2-0.4c0-0.1,0.1-0.3,0.1-0.5c0-0.2,0-0.3-0.1-0.4c-0.1-0.1-0.2-0.3-0.3-0.4
	c-0.1-0.1-0.2-0.2-0.4-0.2c-0.1-0.1-0.3-0.1-0.5-0.1c-0.2,0-0.3-0.1-0.4-0.2c-0.1-0.1-0.2-0.2-0.2-0.4c-0.1-0.3,0.2-0.5,0.5-0.6
	c0.6,0,1.2,0.2,1.7,0.6c0.5,0.4,0.8,0.9,0.8,1.5c0,0.6-0.2,1.2-0.6,1.7C725.5,513,724.9,513.3,724.3,513.3L724.3,513.3z"/>
<path class="st18" d="M738.8,497.9H709c-0.4,0-0.8,0.1-1.2,0.2c-0.4,0.2-0.7,0.4-1,0.7c-0.3,0.3-0.5,0.6-0.7,1
	c-0.2,0.4-0.2,0.8-0.2,1.2v2.4c0.2,2.1,1.2,4.1,2.7,5.6c1.6,1.4,3.6,2.3,5.8,2.3c2.1,0,4.2-0.8,5.8-2.3c1.6-1.4,2.5-3.4,2.7-5.6
	v-2.4c0-0.7-0.2-1.4-0.7-1.9h3.3c-0.4,0.6-0.6,1.2-0.6,1.9v2.4c0.1,2.2,1,4.3,2.6,5.8c1.6,1.5,3.7,2.4,5.9,2.4
	c2.2,0,4.3-0.9,5.9-2.4c1.6-1.5,2.5-3.6,2.6-5.8v-2.4c0-0.8-0.3-1.6-0.9-2.2C740.5,498.3,739.7,498,738.8,497.9L738.8,497.9z
	 M721.7,501.1v2.4c0,1.9-0.7,3.8-2.1,5.2c-1.4,1.4-3.2,2.1-5.1,2.2c-1.9,0-3.8-0.7-5.2-2.1c-1.4-1.4-2.1-3.2-2.2-5.1v-2.4
	c0-0.5,0.2-1,0.6-1.4c0.4-0.4,0.8-0.6,1.4-0.6h10.8c0.5,0,0.9,0.2,1.3,0.5C721.5,500.1,721.7,500.6,721.7,501.1L721.7,501.1z
	 M740.7,503.5c0,1-0.1,2-0.5,2.9s-0.9,1.8-1.5,2.5c-0.7,0.7-1.5,1.3-2.4,1.7c-0.9,0.4-1.9,0.6-2.8,0.6c-1,0-1.9-0.2-2.8-0.6
	c-0.9-0.4-1.7-0.9-2.4-1.6c-0.7-0.7-1.2-1.5-1.6-2.4c-0.4-0.9-0.5-1.9-0.5-2.9v-2.4c0-0.5,0.2-1,0.6-1.4c0.4-0.4,0.8-0.6,1.3-0.6
	h10.8c0.5,0,1,0.2,1.3,0.6c0.4,0.4,0.6,0.8,0.6,1.4L740.7,503.5z"/>
<path class="st25" d="M697.1,543.9l-3.5-2.9c5.9,19.9,19.7,90.3,17,170.8c-0.7,19.7-15.9,35.3-34.3,35.3h5
	c18.4,0,33.6-15.6,34.3-35.3C718.4,629.3,702.8,561.7,697.1,543.9z"/>
<path class="st47" d="M658.3,739.8l3.4-81.3l-12.3-70.6l-2.8-12.1c-1.3-5.8-0.4-11.8,2.6-17c3-5.1,7.9-8.9,13.6-10.5l30.5-8.7
	c5.7,17.9,20.2,89.7,17.4,172.1c-0.7,19.7-15.9,35.3-34.3,35.3H665c-0.9,0-1.8-0.2-2.7-0.6c-0.8-0.4-1.6-0.9-2.2-1.6
	c-0.6-0.7-1.1-1.5-1.4-2.3S658.3,740.7,658.3,739.8z"/>
<path class="st45" d="M851,592.8l-9.7,3.8l-9.2,23.3l16.2-2.2l7.5-4.3L851,592.8z"/>
<path class="st45" d="M889.8,586l-14.5,9.4c0.1,0.1,9.8-5.7,9.8-5.7c1.4-1,3.1,1,1.4,2.4l-9.5,7.2c0,0-2.3,4.8-11.7,8.3
	c-2.6,1.5-9.4,5.7-9.4,5.7l-4.8-20.6l2.2-8.9c0.3-1.4,0.8-2.8,1.5-4.1l3.8-6.9l0.7-2.9c0-0.1,0.1-0.2,0.1-0.2c0-0.1,0.1-0.1,0.2-0.2
	c0.1,0,0.1-0.1,0.2-0.1c0.1,0,0.2,0,0.2,0c0.4,0.1,0.8,0.3,1.1,0.5c0.3,0.2,0.6,0.5,0.8,0.9c0.2,0.3,0.4,0.7,0.4,1.1
	c0.1,0.4,0,0.8,0,1.2l-1.9,8.1c-0.1,0.4-0.1,0.8,0.1,1.2c0.1,0.4,0.4,0.7,0.7,1c0.4,0.3,0.9,0.5,1.4,0.6c0.3,0,0.6,0,0.9,0
	c0.4,0,0.9-0.1,1.3-0.2c2.9-0.9,13.2-5.9,17-7.7c0.4-0.2,0.8-0.2,1.2-0.1c0.4,0.1,0.7,0.4,0.9,0.7c0.1,0.2,0.2,0.4,0.2,0.6
	c0,0.2,0,0.5,0,0.7c-0.1,0.2-0.2,0.4-0.3,0.6c-0.1,0.2-0.3,0.3-0.5,0.5l-10.9,6c-0.2,0.1-0.4,0.3-0.4,0.5c-0.1,0.2,0,0.5,0.1,0.7
	l0,0c0.1,0.1,0.1,0.2,0.2,0.3c0.1,0.1,0.2,0.1,0.3,0.2c0.1,0,0.2,0,0.4,0c0.1,0,0.2-0.1,0.4-0.1l14.5-8.2c0.4-0.2,0.8-0.3,1.2-0.2
	c0.4,0.1,0.8,0.3,1,0.7l0,0c0.1,0.2,0.2,0.4,0.3,0.6c0,0.2,0,0.5,0,0.7c-0.1,0.2-0.1,0.4-0.3,0.6c-0.1,0.2-0.3,0.3-0.5,0.5l-1,0.6
	c0.7,0.2,1.4,0.7,1.8,1.3c0.2,0.2,0.3,0.4,0.4,0.6c0.1,0.2,0.1,0.5,0.1,0.7c0,0.2-0.1,0.5-0.3,0.7C890.2,585.7,890,585.9,889.8,586
	L889.8,586z"/>
<path class="st43" d="M874.3,590.6c0,0-0.1,0-0.1,0c0,0-0.1-0.1-0.1-0.1c0,0,0-0.1,0-0.1s0-0.1,0-0.1c0,0,0-0.1,0-0.1
	c0,0,0,0,0.1-0.1l14.1-7.8c0,0,0.1,0,0.1,0s0.1,0,0.1,0c0,0,0.1,0,0.1,0c0,0,0,0,0.1,0.1c0,0,0,0.1,0,0.1s0,0.1,0,0.1
	c0,0,0,0.1,0,0.1c0,0,0,0-0.1,0.1l-14.1,7.8L874.3,590.6z"/>
<path class="st43" d="M875.1,595.5l5.5-3.1c0.1,0,0.1,0,0.2,0c0.1,0,0.1,0.1,0.1,0.1c0,0.1,0,0.1,0,0.2c0,0.1-0.1,0.1-0.1,0.1
	l-5.5,3.1c-0.1,0-0.1,0-0.2,0c-0.1,0-0.1-0.1-0.1-0.1c0-0.1,0-0.1,0-0.2C875,595.5,875.1,595.5,875.1,595.5L875.1,595.5z"/>
<path class="st43" d="M860.4,596.7c-0.1,0-0.1,0.1-0.2,0.1c-0.1,0-0.2,0-0.2-0.1c-0.1,0-0.1-0.1-0.2-0.2c0-0.1-0.1-0.2,0-0.3
	c0-0.1,0.1-0.2,0.2-0.3c5.7-3.3,2.5-11.5,2.5-11.5c0-0.1,0-0.1,0-0.2c0.3,0,0.6,0,0.9,0C863.8,585.5,866.4,593.3,860.4,596.7z"/>
<path class="st45" d="M824.8,665l-2.2-2.7l-9.1-14.3l-7-1.8l-8.8,5.4l-9.4-3l-3,14.8c6.1,1.6,10.7,7.2,10.7,7.2l10.6,6.2l2.2,2.6
	c0.2,0.3,0.5,0.5,0.8,0.6c0.3,0.2,0.6,0.2,0.9,0.3c0.3,0,0.7,0,1-0.1c0.3-0.1,0.6-0.3,0.9-0.5c0.3-0.2,0.5-0.5,0.6-0.8
	s0.2-0.6,0.3-0.9c0-0.3,0-0.7-0.1-1c-0.1-0.3-0.3-0.6-0.5-0.9c0,0-2.6-3.5-2.8-3.7c0.1,0.2,0.8,0.7,1,0.9l3.2,3.8
	c0.4,0.4,0.9,0.7,1.4,0.7c0.6,0,1.1-0.1,1.5-0.5l0.5-0.4c0.2-0.2,0.4-0.4,0.5-0.6c0.1-0.2,0.2-0.5,0.2-0.8c0-0.3,0-0.5-0.1-0.8
	c-0.1-0.3-0.2-0.5-0.4-0.7l-3.2-3.8c-0.2-0.2-0.6-0.9-0.7-1c0.1,0.1,0.8,1,1.1,1.3l2.7,3.1c0.2,0.3,0.5,0.5,0.8,0.7
	c0.3,0.2,0.7,0.3,1,0.3c0.4,0,0.7,0,1.1-0.1c0.3-0.1,0.7-0.3,0.9-0.5c0.3-0.2,0.5-0.5,0.7-0.8c0.2-0.3,0.3-0.7,0.3-1
	c0-0.4,0-0.7-0.2-1.1c-0.1-0.3-0.3-0.6-0.6-0.9l-2.7-3.2c-0.4-0.5-1.5-1.6-1.7-1.8c0.1,0.2,3.5,3.1,3.5,3.1c0.5,0.5,1.1,0.8,1.8,0.8
	s1.4-0.2,1.9-0.6c0.5-0.4,0.9-1.1,0.9-1.7C825.5,666.2,825.3,665.5,824.8,665L824.8,665z"/>
<path class="st21" d="M814.5,670.2c-0.2-0.3-0.4-0.7-0.7-1c-0.6,1.4-2.6,2.7-3.9,3.2c0.1,0.1,4.3,4.7,4.3,4.7
	c0.4,0.4,0.9,0.7,1.4,0.7c0.5,0,1.1-0.1,1.5-0.5l0.5-0.4c0.2-0.2,0.4-0.4,0.5-0.6c0.1-0.2,0.2-0.5,0.2-0.8c0-0.3,0-0.5-0.1-0.8
	s-0.2-0.5-0.4-0.7L814.5,670.2z"/>
<path class="st21" d="M809.9,672.4c-0.4,0.9-0.9,1.7-1.6,2.4c-0.8,0.6-1.8,1.1-2.8,1.2c0.3,0.2,0.7,0.4,1,0.5l2.3,2.7
	c0.2,0.3,0.5,0.5,0.8,0.6c0.3,0.2,0.6,0.2,0.9,0.3c0.3,0,0.7,0,1-0.1c0.3-0.1,0.6-0.3,0.9-0.5c0.3-0.2,0.5-0.5,0.6-0.8
	c0.2-0.3,0.2-0.6,0.3-0.9c0-0.3,0-0.7-0.1-1s-0.3-0.6-0.5-0.9L809.9,672.4z"/>
<path class="st21" d="M821.6,670.2l-2.6-3.1c-0.4-0.5-0.8-0.9-1.2-1.3c0,1-0.4,1.9-1.1,2.6c-0.8,0.6-1.8,0.9-2.8,0.9
	c0.3,0.5,0.7,0.9,1.1,1.3l2.7,3.1c0.2,0.3,0.5,0.5,0.8,0.7c0.3,0.2,0.7,0.3,1,0.3c0.4,0,0.7,0,1.1-0.1c0.3-0.1,0.7-0.3,0.9-0.5
	c0.3-0.2,0.5-0.5,0.7-0.8c0.2-0.3,0.3-0.7,0.3-1c0-0.4,0-0.7-0.2-1.1C822.1,670.8,821.9,670.5,821.6,670.2L821.6,670.2z"/>
<path class="st21" d="M824.8,665l-2.2-2.7c-0.1,1.8-3.8,4.2-4.9,3.5l3.1,2.6c0.5,0.5,1.1,0.8,1.8,0.8c0.7,0,1.4-0.2,1.9-0.6
	c0.5-0.4,0.9-1.1,0.9-1.7C825.4,666.2,825.2,665.5,824.8,665z"/>
<path class="st39" d="M792.7,667.2l0.2-0.1c0.6-0.2,1.3-0.2,2,0c0.6,0.2,1.2,0.6,1.6,1.2c0.1,0.2,0.2,0.4,0.3,0.7
	c0,0.2,0,0.5-0.1,0.7c-0.1,0.2-0.2,0.4-0.4,0.6c-0.2,0.2-0.4,0.3-0.6,0.3l-1.1,0.3c-0.6,0.1-1.1,0.1-1.7-0.2
	c-0.5-0.3-0.9-0.7-1.1-1.2l-0.1-0.2c-0.1-0.2-0.1-0.4-0.1-0.6c0-0.2,0.1-0.4,0.1-0.6c0.1-0.2,0.2-0.4,0.4-0.5
	C792.3,667.4,792.5,667.3,792.7,667.2L792.7,667.2z"/>
<path class="st39" d="M802.5,676.5l1.5,2.1c0.3,0.4,0.7,0.7,1.2,0.9c0.5,0.2,1,0.3,1.5,0.2l0,0c0.5-0.1,0.9-0.3,1.1-0.7l2.1-2.9
	c0.2-0.2,0.3-0.5,0.3-0.8c0.1-0.3,0.1-0.6,0-0.8c0-0.3-0.2-0.5-0.3-0.8c-0.2-0.2-0.3-0.4-0.6-0.6c-0.4-0.3-0.8-0.4-1.3-0.4
	c-0.5,0-0.9,0.2-1.3,0.5L802.5,676.5z"/>
<path class="st39" d="M798.8,674.3l1.2,1.8c0.4,0.6,1,1,1.7,1.1c0.7,0.1,1.4,0,2-0.4l4.9-3.2c0.3-0.2,0.6-0.5,0.7-0.8
	c0.2-0.3,0.3-0.7,0.3-1.1c0-0.4-0.1-0.7-0.2-1.1c-0.2-0.3-0.4-0.6-0.7-0.8c-0.4-0.3-0.8-0.4-1.3-0.4s-0.9,0.1-1.3,0.3L798.8,674.3z"
	/>
<path class="st35" d="M808.6,669.8c-0.4-0.3-1-0.5-1.5-0.4c0.5,0,0.9,0.2,1.3,0.5c0.4,0.3,0.6,0.7,0.7,1.2c0.1,0.5,0.1,0.9-0.1,1.4
	c-0.2,0.4-0.5,0.8-0.9,1.1l-4.9,3.2c-0.4,0.2-0.8,0.4-1.2,0.4c0.6,0.1,1.1-0.1,1.6-0.4l4.9-3.2c0.3-0.2,0.6-0.5,0.7-0.8
	c0.2-0.3,0.3-0.7,0.3-1.1c0-0.4-0.1-0.7-0.2-1.1S808.9,670.1,808.6,669.8L808.6,669.8z"/>
<path class="st39" d="M794.5,669.7l3.3,0.2c0.5,0,0.9-0.1,1.4-0.3l2.7-1.5c0.5-0.3,1.1-0.4,1.6-0.3c0.6,0.1,1,0.4,1.4,0.8l0,0
	c0.2,0.2,0.3,0.5,0.4,0.7c0.1,0.3,0.1,0.6,0.1,0.8c0,0.3-0.1,0.5-0.3,0.8c-0.1,0.2-0.3,0.5-0.5,0.6l-3,2.5c-0.4,0.3-0.9,0.5-1.5,0.5
	l0,0c-0.9,0-1.8-0.2-2.6-0.7c-0.8-0.5-1.4-1.1-1.8-1.9L794.5,669.7z"/>
<path class="st35" d="M804.8,668.7c-0.2-0.3-0.5-0.5-0.9-0.7c-0.3-0.1-0.7-0.2-1.1-0.2c0.3,0,0.6,0.1,0.9,0.3
	c0.3,0.1,0.5,0.3,0.7,0.6c0.2,0.2,0.3,0.5,0.4,0.7c0.1,0.3,0.1,0.5,0.1,0.8c0,0.3-0.1,0.5-0.2,0.8c-0.1,0.2-0.3,0.5-0.5,0.6l-3,2.5
	c-0.4,0.3-0.8,0.5-1.3,0.5h0.3c0.5,0,1.1-0.2,1.5-0.5l3-2.5c0.2-0.2,0.4-0.4,0.5-0.6c0.1-0.2,0.2-0.5,0.2-0.8c0-0.3,0-0.6-0.1-0.8
	C805.1,669.1,805,668.9,804.8,668.7z"/>
<path class="st47" d="M849.3,618.4l-65.5,39.5c-3.2,1-6.7,0.8-9.8-0.6c-3.1-1.3-5.6-3.8-7-6.8L736.5,570l28.5-12l28.2,61.6
	l48.7-23.4L849.3,618.4z"/>
<path class="st35" d="M796.8,668.3c-0.3-0.4-0.7-0.8-1.2-1c-0.5-0.2-1-0.3-1.5-0.3c0.5,0,0.9,0.1,1.4,0.4c0.4,0.2,0.8,0.5,1.1,0.9
	c0.1,0.2,0.2,0.4,0.3,0.7c0,0.2,0,0.5-0.1,0.7c-0.1,0.2-0.2,0.4-0.4,0.6c-0.2,0.2-0.4,0.3-0.6,0.3l-1.1,0.3c-0.1,0-0.3,0-0.4,0.1
	c0.2,0,0.4,0,0.7-0.1l1.1-0.3c0.2-0.1,0.5-0.2,0.6-0.3c0.2-0.2,0.3-0.4,0.4-0.6c0.1-0.2,0.1-0.5,0.1-0.7
	C797,668.8,796.9,668.5,796.8,668.3z"/>
<path class="st48" d="M885.2,589.2l-2.2,1.3l-5.3,4c0,0-2.4,4.9-12.1,8.6c-2.7,1.6-9.8,5.9-9.8,5.9l-7.7,4.5l-64.2,38.8
	c-3.2,1-6.6,0.8-9.6-0.5c-3-1.3-5.5-3.7-6.9-6.7l-28.6-75.4l-2.3,1l30,79c1.4,3,3.9,5.3,6.9,6.7c3,1.3,6.4,1.5,9.6,0.5l64.2-38.8
	l7.7-4.4c0,0,7.1-4.4,9.8-5.9c9.8-3.7,12.1-8.6,12.1-8.6l9.8-7.4C888.4,590.3,886.7,588.2,885.2,589.2z"/>
<path class="st35" d="M761,735.8l12.3,270.2h4.2l-8.6-265.6c-0.1,0,0.1,6.5,0,6.5"/>
<path class="st47" d="M771.6,744.2c-0.5,1.2-1.4,2.1-2.5,2.7c-0.1,0-0.1,0-0.2,0h-1.3c-2.1,0-4.1-0.7-5.8-2
	c-2.2-1.8-3.7-4.3-4.1-7.1c-10.8-76.4-24.3-178-25.3-196.7v-0.5l19.9,5.6c9.5,2.7,16,10.4,16.1,19.1c0,8.2,0.1,17.3,0.2,19.5
	L771.6,744.2z"/>
<path class="st25" d="M770.2,629.8l-0.5-44.9c-0.1-2.2,0.2-11.2-0.2-19.5c-0.2-4.3-9-17-17.1-19.1l-19.9-5.6v0.5v0.1l17.9,5
	c9.5,2.7,16,10.4,16.1,19.1c0,8.2,0.1,17.3,0.2,19.5l0.7,37.4l0.2,12.3l2,109.8c-0.5,1.2-1.4,2.1-2.5,2.7h0c0.2,0,0.4,0,0.6,0h1.3
	c0.1,0,0.1,0,0.2,0c1.1-0.6,2-1.6,2.5-2.7l-1.2-102.4l5.5,14.5C778.7,662.3,770.2,629.8,770.2,629.8z"/>
<path class="st35" d="M698.1,704.6l-20.6,0.2c-0.6,0-1.2-0.1-1.8-0.4c-0.6-0.2-1.1-0.6-1.5-1c-0.4-0.4-0.8-1-1-1.6
	c-0.2-0.6-0.3-1.2-0.3-1.8l0.2-6.1l1.6-0.1l-0.3,5c0,0.6,0,1.2,0.3,1.8c0.2,0.6,0.5,1.1,1,1.6c0.4,0.4,0.9,0.8,1.5,1
	c0.6,0.2,1.2,0.4,1.8,0.4l18.2-0.1c1.1,0,2.2-0.4,3-1.2c0.8-0.7,1.3-1.7,1.5-2.8l0.7-5.7h1.1l-0.8,7c-0.1,1.1-0.6,2.1-1.5,2.8
	C700.2,704.2,699.2,704.6,698.1,704.6L698.1,704.6z"/>
<path class="st47" d="M675.1,693.2l-0.3,5.2c0,0.6,0.1,1.2,0.3,1.8c0.2,0.6,0.5,1.1,0.9,1.5c0.4,0.4,0.9,0.8,1.5,1
	c0.5,0.2,1.1,0.4,1.7,0.3l18.4-0.1c1.1,0,2.1-0.4,2.9-1.1c0.8-0.7,1.3-1.7,1.4-2.7l0.7-5.9L675.1,693.2z"/>
<path class="st47" d="M653,585.2l15.5,51.5c1.2,4,3.6,7.6,6.7,10.4c3.2,2.7,7.1,4.5,11.3,5.1l101.1,15.7l5.7-23.8l-90.1-24.9
	l-11-38.5"/>
<g class="st24">
	<path class="st25" d="M793.4,644l-89.9-24.9l-11-38.5l-3,2l11,38.5l92.7,23.8L793.4,644z"/>
	<path class="st25" d="M671.7,634.6l-18.6-49.5l14.1,51.6c2.5,8.2,10.2,16.8,18.7,18l101.7,13.1l0.8-3.2l-98.7-14.5
		c-4.2-0.6-8.1-2.4-11.3-5.1C675.3,642.3,672.9,638.7,671.7,634.6L671.7,634.6z"/>
</g>
<path class="st39" d="M831.1,650.1l-7.5,2.2l-8.8-5.7c-0.6-0.4-1.4-0.7-2.1-0.9c-0.8-0.1-1.5-0.1-2.3,0l-2.1,0.5
	c-1,0.2-1.9,0.7-2.6,1.5l-6.2,6.3c0,0,0,0.1-0.1,0.1c0,0,0,0.1,0,0.1c0,0,0,0.1,0,0.1c0,0,0,0.1,0.1,0.1l0.8,0.7
	c0.6,0.6,1.4,0.9,2.3,1c0.9,0,1.7-0.2,2.4-0.7l4.6-4.5l12.8,10l11.2-2.1"/>
<path class="st35" d="M821.1,660l-11.6-9.1l-4.6,4.5c-0.7,0.5-1.5,0.8-2.4,0.7c-0.9,0-1.7-0.4-2.3-1l-0.4-0.4l-0.3,0.3
	c0,0,0,0.1-0.1,0.1c0,0,0,0.1,0,0.1c0,0,0,0.1,0,0.1c0,0,0,0.1,0.1,0.1l0.8,0.7c0.6,0.6,1.4,0.9,2.3,1c0.9,0,1.7-0.2,2.4-0.7
	l4.6-4.5l12.7,9.8L821.1,660z"/>
<path class="st30" d="M1112,690.5c-0.8,0.7-1.6,1.3-2.5,1.9c-4,3-7.6,6.6-10.7,10.5c-0.6,0.9-1.3,1.7-2,2.4c0.4-1,1-1.9,1.6-2.7
	c1.5-2.1,3.1-4,4.9-5.8c1.8-1.8,3.8-3.4,5.9-4.8C1110.1,691.4,1111,690.9,1112,690.5L1112,690.5z"/>
<path class="st30" d="M1110,682.1c-0.2,2-0.6,4-1.2,6c-0.4,2-1,4-1.7,5.9c0.2-2,0.6-4,1.2-6C1108.6,686,1109.2,684,1110,682.1
	L1110,682.1z"/>
<path class="st8" d="M1109.1,681.7c-0.4,0.2-0.5,1.2-0.2,1.6c0.1,0.2,0.3,0.3,0.6,0.4s0.5,0.1,0.7,0.1c0.2,0,0.5-0.1,0.6-0.3
	c0.2-0.2,0.3-0.4,0.4-0.6c0.1-0.2,0.1-0.5,0-0.7c-0.1-0.2-0.2-0.4-0.4-0.6c-0.2-0.2-0.4-0.3-0.6-0.3c-0.2,0-0.5,0-0.7,0.1
	C1109.3,681.5,1109.2,681.6,1109.1,681.7"/>
<path class="st30" d="M1113.4,685.5c0.1,0.2-0.9,0.7-2.2,1.3c-1.2,0.6-2.3,0.9-2.4,0.8c-0.1-0.2,0.9-0.7,2.2-1.3
	C1111.7,685.8,1112.5,685.6,1113.4,685.5L1113.4,685.5z"/>
<path class="st8" d="M1113.3,684.5c-0.3,0.2-0.6,0.5-0.8,0.9c-0.1,0.2,0,0.4,0,0.6c0.1,0.2,0.2,0.3,0.4,0.4c0.1,0,0.3,0,0.4,0
	c0.1,0,0.3-0.1,0.4-0.2c0.2-0.2,0.4-0.4,0.5-0.7c0.1-0.3,0.1-0.6,0-0.9c-0.1-0.1-0.2-0.3-0.3-0.3c-0.1-0.1-0.3-0.1-0.4-0.1"/>
<path class="st8" d="M1113.2,689.4c0.3,0,0.6,0.2,0.8,0.4c0.2,0.2,0.3,0.5,0.3,0.8c0,0.3-0.1,0.6-0.4,0.8c-0.2,0.2-0.5,0.3-0.8,0.3
	c-0.3,0-0.6-0.1-0.8-0.3c-0.2-0.2-0.4-0.5-0.4-0.8c0-0.3,0.1-0.6,0.3-0.8c0.2-0.2,0.5-0.4,0.8-0.4"/>
<path class="st30" d="M1087.5,656.7c0.1,0.7,0.1,1.3,0.1,2c0,1.4,0.1,3.1,0.2,5.3c0.1,4.5,0.2,10.7,0.3,17.5
	c0.1,6.8,0.2,13,0.2,17.5v5.3c0,0.6,0,1.3-0.1,1.9c-0.1-0.7-0.2-1.3-0.1-2c0-1.4-0.1-3.1-0.2-5.3c-0.1-4.5-0.2-10.7-0.3-17.5
	c-0.1-6.8-0.2-13-0.2-17.5v-5.3C1087.4,657.9,1087.4,657.3,1087.5,656.7z"/>
<path class="st13" d="M1096.3,652.9c0.1,1.7-0.2,3.4-1.1,4.9c-0.8,1.5-2.1,2.7-3.6,3.5c-1.5,0.8-3.2,1.1-4.9,0.9
	c-1.7-0.2-3.3-0.9-4.6-2c-1.3-1.1-2.2-2.6-2.7-4.2c-0.5-1.6-0.4-3.4,0.1-5c0.5-1.6,1.5-3.1,2.9-4.1c1.3-1.1,3-1.7,4.7-1.8
	c1.1-0.1,2.3,0,3.4,0.4c1.1,0.3,2.1,0.9,2.9,1.6c0.9,0.7,1.6,1.6,2.1,2.7C1095.9,650.7,1096.2,651.8,1096.3,652.9z"/>
<g class="st24">
	<path class="st23" d="M1087.3,662.3c0-0.8,0-1.7,0.1-2.5c0.1-2-0.2-4-0.9-5.8c-0.8-1.8-2.1-3.3-3.9-4.2c-0.8-0.3-1.6-0.5-2.4-0.7
		c0.2-0.1,0.5-0.1,0.7-0.1c0.6,0,1.3,0.1,1.9,0.4c1,0.4,1.8,1,2.6,1.7c0.7,0.7,1.3,1.6,1.7,2.6c0.7,1.9,1,4,0.8,6.1
		C1087.7,660.7,1087.6,661.5,1087.3,662.3L1087.3,662.3z"/>
	<path class="st23" d="M1095.3,650.2c-1.7,0.2-3.3,0.7-4.8,1.5c-2.4,1.6-3.2,3.8-3.4,3.7c0-0.5,0.2-1,0.5-1.5
		c0.6-1.1,1.5-2.1,2.5-2.8c1.1-0.7,2.3-1.1,3.6-1.2C1094.8,650,1095.3,650.2,1095.3,650.2z"/>
	<path class="st23" d="M1091.5,650.9c-0.1,0-0.2-0.6-0.8-1.3c-0.6-0.8-1.5-1.4-2.5-1.6c-1-0.2-2.1,0-2.9,0.6
		c-0.2,0.2-0.5,0.3-0.6,0.5c-0.7,0.6-0.9,1.2-0.9,1.2c-0.1,0,0-0.7,0.7-1.4c0.4-0.5,1-0.9,1.6-1.2c0.6-0.3,1.3-0.4,1.9-0.3
		c0.7,0.1,1.3,0.3,1.8,0.6c0.6,0.3,1,0.8,1.4,1.4C1091.4,649.8,1091.5,650.4,1091.5,650.9L1091.5,650.9z"/>
	<path class="st23" d="M1089.1,652.6c-0.2,0-0.3-1.2-1.1-2.4s-1.7-2-1.6-2.1c0.1-0.1,1.3,0.5,2,1.9
		C1089,650.7,1089.2,651.6,1089.1,652.6L1089.1,652.6z"/>
	<path class="st23" d="M1088.3,650c0,0.2-0.7,0.4-1.3,1s-1,1.2-1.2,1.2c-0.2-0.1,0-0.8,0.8-1.6S1088.3,649.9,1088.3,650z"/>
</g>
<path class="st30" d="M1069.1,683.2c0.2,0,2.5,7,5.3,15.6c2.8,8.6,4.9,15.8,4.8,15.8c-0.1,0.1-2.5-7-5.3-15.6
	S1069,683.3,1069.1,683.2z"/>
<path class="st30" d="M1074.6,700.5c-1.9-1.3-3.8-2.7-5.6-4.1c-3-2.4-5.4-4.4-5.3-4.5c2,1.2,3.9,2.5,5.7,4
	C1072.5,698.2,1074.8,700.4,1074.6,700.5z"/>
<path class="st8" d="M1062.4,691.1c-0.2,0.3-0.3,0.6-0.2,1c0,0.4,0.2,0.7,0.5,0.9c0.3,0.2,0.7,0.3,1.1,0.3c0.4-0.1,0.8-0.3,1-0.6
	c0.2-0.3,0.2-0.7,0.1-1.1c-0.1-0.4-0.3-0.7-0.7-0.9c-0.3-0.2-0.7-0.2-1.1-0.1c-0.4,0.1-0.7,0.3-0.9,0.6"/>
<path class="st30" d="M1074.7,679.8c0.2,0-0.3,2.5-1.4,5.5s-1.7,5.3-1.8,5.3c0.1-1.9,0.6-3.7,1.3-5.5
	C1073.3,683.3,1073.9,681.5,1074.7,679.8L1074.7,679.8z"/>
<path class="st8" d="M1074.4,677.6c-0.6,0.4-0.6,0.7-0.8,1.3c-0.1,0.2-0.1,0.3-0.1,0.5c0,0.2,0,0.3,0.1,0.5c0.1,0.2,0.2,0.3,0.3,0.4
	c0.1,0.1,0.3,0.2,0.4,0.3c0.3,0,0.7-0.1,0.9-0.2c0.3-0.2,0.5-0.4,0.6-0.8c0.1-0.3,0.2-0.6,0.2-0.9s-0.1-0.6-0.2-0.9
	c-0.1-0.1-0.2-0.2-0.3-0.3c-0.1-0.1-0.2-0.1-0.4-0.2c-0.1,0-0.3,0-0.4,0C1074.7,677.5,1074.6,677.6,1074.4,677.6c0,0,0,0.1-0.1,0.1"
	/>
<path class="st30" d="M1064.5,698.3c0.7-0.6,1.4-1,2.3-1.3c1.3-0.6,2.4-0.9,2.5-0.8c-0.7,0.6-1.4,1-2.3,1.3
	C1066.2,698,1065.3,698.3,1064.5,698.3L1064.5,698.3z"/>
<path class="st8" d="M1062.4,697.4c-0.4,0.2-0.6,1.2-0.6,1.6c0,0.2,0.1,0.4,0.2,0.6c0.1,0.2,0.2,0.3,0.4,0.4
	c0.2,0.2,0.5,0.2,0.8,0.2c0.3,0,0.6-0.1,0.8-0.2c0.2-0.1,0.5-0.3,0.6-0.6c0.1-0.2,0.2-0.5,0.2-0.8c0-0.3-0.1-0.6-0.2-0.8
	c-0.2-0.2-0.4-0.4-0.6-0.6c-0.2-0.1-0.5-0.2-0.8-0.2C1062.9,697.1,1062.6,697.2,1062.4,697.4"/>
<path class="st8" d="M1066.6,681.6c-0.1,0.4-0.1,0.9,0.1,1.3c0.2,0.4,0.5,0.8,0.9,1s0.9,0.3,1.3,0.2c0.5-0.1,0.9-0.3,1.2-0.7
	c0.1-0.2,0.2-0.3,0.3-0.5c0.1-0.2,0.1-0.4,0.1-0.6c-0.1-0.4-0.4-0.8-0.7-1.1c-0.3-0.3-0.7-0.5-1.2-0.6c-0.4,0-0.8,0-1.2,0.2
	C1067.1,680.9,1066.8,681.2,1066.6,681.6"/>
<path class="st30" d="M1096.2,690.2c-0.1,0.8-0.4,1.6-0.7,2.3c-0.6,1.6-1.2,3.4-1.9,5.4s-1.4,3.8-2,5.4c-0.2,0.8-0.5,1.5-0.9,2.2
	c-0.2,0,0.8-3.6,2.3-7.8C1094.6,693.5,1096,690.1,1096.2,690.2z"/>
<path class="st13" d="M1105.4,686.2c-0.3,1.4-1,2.7-2.1,3.8c-1.1,1-2.4,1.7-3.8,2c-1.4,0.3-2.9,0.1-4.3-0.5
	c-1.3-0.6-2.5-1.5-3.3-2.8c-0.8-1.2-1.2-2.7-1.2-4.1c0-1.5,0.5-2.9,1.3-4.1c0.8-1.2,2-2.1,3.4-2.7s2.8-0.7,4.3-0.4
	c0.9,0.2,1.8,0.6,2.7,1.1c0.8,0.5,1.5,1.3,2,2.1c0.5,0.8,0.9,1.7,1.1,2.7C1105.6,684.3,1105.6,685.3,1105.4,686.2z"/>
<g class="st24">
	<path class="st23" d="M1095.7,691.7c0.2-0.7,0.4-1.4,0.6-2c0.6-1.6,0.8-3.3,0.7-5c-0.2-1.7-0.9-3.2-2.2-4.4
		c-0.6-0.4-1.1-0.8-1.8-1.1c0.7,0,1.4,0.3,2,0.8c0.7,0.6,1.3,1.3,1.7,2.1c0.4,0.8,0.7,1.7,0.8,2.6c0.1,1.8-0.2,3.5-0.9,5.2
		C1096.5,690.5,1096.2,691.2,1095.7,691.7L1095.7,691.7z"/>
	<path class="st23" d="M1105.3,683.8c-1.4-0.2-2.9-0.2-4.3,0.2c-2.3,0.7-3.6,2.3-3.7,2.2s0.2-0.5,0.7-1.1c0.8-0.8,1.7-1.3,2.8-1.6
		c1-0.3,2.2-0.4,3.2-0.1C1104.8,683.5,1105.3,683.7,1105.3,683.8z"/>
	<path class="st23" d="M1101.9,683.4c-0.1,0,0-0.5-0.3-1.2c-0.2-0.5-0.4-0.9-0.8-1.3c-0.3-0.4-0.8-0.6-1.2-0.8
		c-0.5-0.2-1-0.3-1.5-0.2c-0.5,0-1,0.2-1.4,0.4c-0.7,0.4-1,0.8-1.1,0.7c-0.1-0.1,0.2-0.5,0.9-1c0.5-0.3,1-0.5,1.6-0.6
		c0.6-0.1,1.1,0,1.7,0.2c0.5,0.2,1,0.5,1.4,1c0.4,0.4,0.6,1,0.8,1.5C1102.2,682.9,1102,683.5,1101.9,683.4z"/>
	<path class="st23" d="M1099.6,684.2c-0.2,0,0-1-0.3-2.2c-0.3-1.2-0.8-2-0.7-2.1c0.1-0.1,0.9,0.7,1.3,2
		C1100.1,683.2,1099.7,684.3,1099.6,684.2z"/>
	<path class="st23" d="M1099.5,681.9c0,0.2-0.7,0.2-1.3,0.5c-0.6,0.3-1.1,0.8-1.2,0.6c-0.1-0.1,0.2-0.7,0.9-1.1
		C1098.7,681.5,1099.5,681.8,1099.5,681.9z"/>
</g>
<path class="st30" d="M1079.2,674.7c0.1,0.4,0.2,0.8,0.3,1.2c0.2,0.9,0.3,2,0.6,3.4c0.4,2.8,1,6.8,1.7,11.2
	c0.7,4.4,1.1,8.3,1.5,11.2c0.2,1.3,0.3,2.5,0.4,3.4c0.1,0.4,0.1,0.8,0.1,1.2c-0.1-0.4-0.2-0.8-0.3-1.2c-0.2-0.9-0.3-2-0.6-3.4
	c-0.5-2.9-1-6.8-1.7-11.2c-0.7-4.4-1.2-8.3-1.5-11.2c-0.2-1.3-0.3-2.5-0.4-3.4C1079.2,675.5,1079.1,675.1,1079.2,674.7L1079.2,674.7
	z"/>
<path class="st13" d="M1085.5,666.9c0.4,1.4,0.4,2.9-0.1,4.3c-0.5,1.4-1.3,2.6-2.5,3.5c-1.2,0.9-2.5,1.4-4,1.6
	c-1.5,0.1-2.9-0.2-4.2-0.9c-1.3-0.7-2.3-1.8-3-3.1c-0.7-1.3-0.9-2.8-0.8-4.2c0.2-1.5,0.8-2.8,1.7-3.9c1-1.1,2.2-1.9,3.6-2.3
	c1.9-0.5,3.9-0.3,5.6,0.7C1083.7,663.4,1084.9,665,1085.5,666.9L1085.5,666.9z"/>
<path class="st23" d="M1079.4,676.2c-0.2-0.7-0.3-1.4-0.4-2.1c-0.2-1.7-0.8-3.3-1.7-4.7c-0.9-1.4-2.3-2.4-3.9-2.9
	c-0.7-0.1-1.4-0.2-2.1-0.2c0.7-0.3,1.4-0.4,2.2-0.2c0.9,0.2,1.7,0.5,2.5,1.1c0.7,0.5,1.4,1.2,1.9,1.9c0.9,1.5,1.5,3.2,1.6,5
	C1079.6,674.8,1079.6,675.6,1079.4,676.2z"/>
<path class="st23" d="M1084.2,664.8c-1.4,0.5-2.6,1.2-3.7,2.1c-0.9,1.1-1.7,2.3-2.2,3.7c-0.2-0.1-0.1-0.5,0.2-1.3
	c0.3-1,0.9-2,1.7-2.8c0.8-0.8,1.8-1.3,2.8-1.6C1083.3,664.7,1083.8,664.7,1084.2,664.8L1084.2,664.8z"/>
<path class="st23" d="M1081.1,666c-0.1,0-0.3-0.4-0.9-0.9c-0.4-0.3-0.8-0.6-1.2-0.8c-0.5-0.2-1-0.2-1.4-0.2c-0.5,0.1-1,0.2-1.4,0.5
	c-0.4,0.3-0.8,0.6-1.1,1c-0.4,0.6-0.5,1.1-0.6,1.1s-0.1-0.6,0.3-1.3c0.4-0.8,1.2-1.4,2-1.7s1.8-0.2,2.7,0.2c0.4,0.2,0.8,0.5,1.1,0.8
	C1081.1,665.4,1081.2,666,1081.1,666z"/>
<path class="st23" d="M1079.4,667.8c-0.2,0-0.5-0.9-1.3-1.9c-0.8-0.9-1.7-1.4-1.6-1.6c0.1-0.2,1.2,0.2,2.1,1.2
	S1079.5,667.8,1079.4,667.8z"/>
<path class="st23" d="M1078.2,665.8c0.1,0.1-0.5,0.5-0.9,1c-0.4,0.5-0.6,1.2-0.8,1.2c-0.2,0-0.2-0.7,0.3-1.5
	S1078.2,665.6,1078.2,665.8z"/>
<path class="st8" d="M1080.2,753.4l-6.7-48.5h28.9l-5.9,48.5H1080.2z"/>
<path class="st5" d="M1100.3,723.9c0,0.1-5.4,0.2-12.1,0.2c-6.7,0-12.1-0.1-12.1-0.2c0-0.1,5.4-0.2,12.1-0.2
	C1094.9,723.7,1100.3,723.8,1100.3,723.9z"/>
<path class="st5" d="M1099.7,727c0,0.1-5.2,0.2-11.6,0.2s-11.6-0.1-11.6-0.2s5.2-0.3,11.6-0.3S1099.7,726.9,1099.7,727z"/>
<path class="st5" d="M1099.3,730c0,0.1-5,0.2-11.2,0.2c-6.2,0-11.2-0.1-11.2-0.2s5-0.2,11.2-0.2
	C1094.3,729.8,1099.3,729.8,1099.3,730z"/>
<path class="st5" d="M1099,733.2c0,0.1-4.8,0.2-10.8,0.2c-5.9,0-10.8-0.1-10.8-0.2s4.8-0.2,10.8-0.2S1099,733.1,1099,733.2z"/>
<path class="st5" d="M1098.6,736.2c0,0.1-4.6,0.2-10.2,0.2s-10.2-0.1-10.2-0.2c0-0.1,4.6-0.2,10.2-0.2S1098.6,736,1098.6,736.2z"/>
<path class="st5" d="M1098,739.1c-3.3,0.2-6.6,0.3-9.9,0.2c-3.3,0.1-6.6,0-9.9-0.2c0-0.1,4.4-0.2,9.9-0.2S1098,739,1098,739.1z"/>
<path class="st5" d="M1097.9,742.1c0,0.1-4.3,0.2-9.6,0.2s-9.6-0.1-9.6-0.2c3.2-0.2,6.4-0.3,9.6-0.2
	C1091.5,741.8,1094.7,741.9,1097.9,742.1z"/>
<path class="st5" d="M1097.5,745.1c-6.2,0.3-12.3,0.3-18.5,0C1085.2,744.7,1091.4,744.7,1097.5,745.1L1097.5,745.1z"/>
</svg>
