<?xml version="1.0" encoding="utf-8"?>
<!-- Generator: Adobe Illustrator 27.0.0, SVG Export Plug-In . SVG Version: 6.00 Build 0)  -->
<svg version="1.1" id="Layer_1" xmlns="http://www.w3.org/2000/svg" xmlns:xlink="http://www.w3.org/1999/xlink" x="0px" y="0px"
	 viewBox="0 0 1600 1200" style="enable-background:new 0 0 1600 1200;" xml:space="preserve">
<style type="text/css">
	.st0{fill:#F4F4F4;}
	.st1{fill:#B2B6BB;}
	.st2{fill:#DADDDF;}
	.st3{fill:#61656D;}
	.st4{fill:#FFFFFF;}
	.st5{fill:#FAFAFA;}
	.st6{fill:#E20074;}
	.st7{opacity:0.4;}
	.st8{opacity:0.4;fill:#FFFFFF;enable-background:new    ;}
	.st9{opacity:0.2;enable-background:new    ;}
	.st10{fill:#868A91;}
	.st11{opacity:0.15;enable-background:new    ;}
	.st12{opacity:0.2;fill:#FFFFFF;enable-background:new    ;}
	.st13{fill:#DDDDDD;}
	.st14{fill:#B1B5BA;}
	.st15{fill:#FC9D9D;}
	.st16{opacity:0.2;fill:none;stroke:#000000;stroke-width:1.17;stroke-miterlimit:10;enable-background:new    ;}
	.st17{fill:#21252B;}
	.st18{opacity:0.3;enable-background:new    ;}
	.st19{fill:#3F4249;}
	.st20{fill:#858990;}
	.st21{opacity:0.3;fill:#FFFFFF;enable-background:new    ;}
	.st22{fill:none;stroke:#868A91;stroke-width:0.8;stroke-miterlimit:10;}
	.st23{opacity:0.3;}
</style>
<path class="st0" d="M160.6,603.5l108.3,473.3h1053.7l73.5-391.3c1.1-8.5,0.5-17.1-1.8-25.4l-127.5-376.2
	c-3.3-12.1-10.1-22.9-19.5-31.2s-20.9-13.7-33.3-15.5l-663-92.8c-11.2-1.7-22.7-0.3-33.3,3.9c-10.6,4.2-19.8,11.1-26.8,20.1
	l-318,380.7c-6,7.6-10.1,16.4-12.3,25.8C158.5,584.4,158.5,594.1,160.6,603.5L160.6,603.5z"/>
<path class="st1" d="M1087.3,253.7H698.8v364.1h388.5V253.7z"/>
<path class="st2" d="M1078.3,253.7H689.8v364.1h388.5V253.7z"/>
<path class="st3" d="M1060.2,272.6H708.5v325.5h351.7V272.6z"/>
<path class="st1" d="M899.4,272.8h-9.1v325.4h9.1V272.8z"/>
<path class="st2" d="M893.4,266.5h-9.1v331.6h9.1V266.5z"/>
<path class="st2" d="M708.5,430.6v11.2h351.7v-11.2H708.5z"/>
<path class="st4" d="M845.8,391.4c-8.6,0-17-2.4-24.2-6.9c-7.3-4.5-13.1-11-16.9-18.7c-3.8-7.7-5.3-16.3-4.5-24.8
	c0.9-8.5,4.1-16.6,9.3-23.4c-5.2,4-9.4,9-12.5,14.8s-4.9,12.1-5.3,18.6c-0.4,6.5,0.5,13,2.8,19.1s5.9,11.6,10.5,16.3
	c4.6,4.6,10.2,8.2,16.3,10.5s12.6,3.3,19.1,2.8c6.5-0.4,12.8-2.2,18.6-5.3c5.8-3.1,10.8-7.3,14.7-12.5
	C865.7,388,855.9,391.4,845.8,391.4L845.8,391.4z"/>
<path class="st4" d="M1051.2,395.7l2.1,1.2l-2.1,1.2c-1.1,0.6-2,1.5-2.7,2.6l-1.2,2.1l-1.2-2.1c-0.6-1.1-1.5-2-2.6-2.6l-2.1-1.2
	l2.1-1.2c1.1-0.6,2-1.5,2.7-2.6l1.2-2.1l1.2,2.1C1049.1,394.1,1050,395.1,1051.2,395.7z"/>
<path class="st4" d="M935.2,519.7l2.1,1.2l-2.1,1.2c-1.1,0.6-2,1.5-2.7,2.6l-1.2,2.1l-1.2-2.1c-0.6-1.1-1.5-2-2.6-2.7l-2.1-1.2
	l2.1-1.2c1.1-0.6,2-1.5,2.7-2.6l1.2-2.1l1.2,2.1C933.1,518.1,934,519.1,935.2,519.7z"/>
<path class="st4" d="M978.2,293.7l2.1,1.2l-2.1,1.2c-1.1,0.6-2,1.5-2.7,2.6l-1.2,2.1l-1.2-2.1c-0.6-1.1-1.5-2-2.6-2.6l-2.1-1.2
	l2.1-1.2c1.1-0.6,2-1.5,2.7-2.6l1.2-2.1l1.2,2.1C976.1,292.1,977,293.1,978.2,293.7L978.2,293.7z"/>
<path class="st4" d="M773.3,521.6l2.1,1.2l-2.1,1.2c-1.1,0.6-2,1.5-2.7,2.6l-1.2,2.2l-1.2-2.1c-0.6-1.1-1.5-2-2.6-2.6l-2.1-1.2
	l2.1-1.2c1.1-0.6,2-1.5,2.7-2.6l1.2-2.1l1.2,2.1C771.3,520.1,772.2,521,773.3,521.6L773.3,521.6z"/>
<path class="st4" d="M767.3,337.6l2.1,1.2l-2.1,1.2c-1.1,0.6-2,1.5-2.7,2.6l-1.2,2.2l-1.2-2.1c-0.6-1.1-1.5-2-2.6-2.6l-2.1-1.2
	l2.1-1.2c1.1-0.6,2-1.5,2.7-2.6l1.2-2.1l1.2,2.1C765.3,336.1,766.2,337,767.3,337.6L767.3,337.6z"/>
<path class="st4" d="M872.1,474.8l0.8,0.5l-0.8,0.5c-0.4,0.2-0.8,0.6-1,1l-0.5,0.8l-0.5-0.8c-0.2-0.4-0.6-0.8-1-1l-0.8-0.5l0.8-0.5
	c0.4-0.2,0.8-0.6,1-1l0.5-0.8l0.5,0.8C871.3,474.3,871.7,474.6,872.1,474.8z"/>
<path class="st4" d="M954.1,396.8l0.8,0.5l-0.8,0.5c-0.4,0.2-0.8,0.6-1,1l-0.5,0.8l-0.5-0.9c-0.2-0.4-0.6-0.8-1-1l-0.8-0.5l0.8-0.5
	c0.4-0.2,0.8-0.6,1-1l0.5-0.8l0.5,0.8C953.3,396.2,953.7,396.6,954.1,396.8L954.1,396.8z"/>
<path class="st4" d="M745.1,398.8l0.8,0.5l-0.8,0.5c-0.4,0.2-0.8,0.6-1,1l-0.5,0.8l-0.5-0.9c-0.2-0.4-0.6-0.8-1-1l-0.8-0.5l0.8-0.5
	c0.4-0.2,0.8-0.6,1-1l0.5-0.8l0.5,0.8C744.3,398.2,744.7,398.6,745.1,398.8z"/>
<path class="st4" d="M1017.6,522.8l0.8,0.5l-0.8,0.5c-0.4,0.2-0.8,0.6-1,1l-0.5,0.8l-0.5-0.8c-0.2-0.4-0.6-0.8-1-1.1l-0.8-0.5
	l0.8-0.5c0.4-0.2,0.8-0.6,1-1l0.5-0.8l0.5,0.9C1016.8,522.2,1017.2,522.5,1017.6,522.8L1017.6,522.8z"/>
<path class="st5" d="M920.6,372.9l0.8,0.5l-0.8,0.4c-0.4,0.2-0.8,0.6-1,1l-0.5,0.9l-0.4-0.9c-0.2-0.4-0.6-0.8-1-1l-0.8-0.5l0.8-0.5
	c0.4-0.2,0.8-0.6,1-1l0.5-0.8l0.5,0.8C919.9,372.3,920.2,372.6,920.6,372.9L920.6,372.9z"/>
<path class="st6" d="M1093.3,346.4H678.7v12.3h414.6V346.4z"/>
<path class="st6" d="M1093.3,323.1H678.7v12.3h414.6V323.1z"/>
<path class="st6" d="M1093.3,299.8H678.7v12.3h414.6V299.8z"/>
<path class="st6" d="M1093.3,276.5H678.7v12.3h414.6V276.5z"/>
<path class="st6" d="M1093.3,253.2H678.7v12.3h414.6V253.2z"/>
<g class="st7">
	<path class="st8" d="M1093.3,346.4H678.7v12.3h414.6V346.4z"/>
	<path class="st8" d="M1093.3,323.1H678.7v12.3h414.6V323.1z"/>
	<path class="st8" d="M1093.3,299.8H678.7v12.3h414.6V299.8z"/>
	<path class="st8" d="M1093.3,276.5H678.7v12.3h414.6V276.5z"/>
	<path class="st8" d="M1093.3,253.2H678.7v12.3h414.6V253.2z"/>
</g>
<path class="st3" d="M942.4,763.2h-16.2l48.9,311.1h6.3L942.4,763.2z"/>
<path class="st9" d="M981.4,1074.3h-2.7l-16.4-124l-5-2.9L926.8,768l-0.7-4.8h16.2L981.4,1074.3z"/>
<path class="st6" d="M964.7,840.4h170.4c4.1,0,7.9,1.6,10.8,4.5s4.5,6.7,4.5,10.8v3.1H949.5v-3.1c0-4,1.6-7.9,4.5-10.8
	C956.8,842,960.7,840.4,964.7,840.4L964.7,840.4z"/>
<path class="st6" d="M1174.6,659.3l-2.3-0.3c-3.8-0.5-7.2,2.1-7.8,5.8l-12.7,88.1c-0.5,3.8,2.1,7.2,5.8,7.8l2.3,0.3
	c3.8,0.5,7.2-2.1,7.8-5.8l12.7-88.1C1181,663.4,1178.4,659.9,1174.6,659.3z"/>
<path class="st3" d="M1131.4,863h-10.6l31.9,210.2h4.1L1131.4,863z"/>
<path class="st9" d="M1156.9,1073.2h-1.7l-10.7-88l-3.3-1.9l-19.8-117.2l-0.5-3.1h10.6L1156.9,1073.2z"/>
<path class="st3" d="M985.2,863h10.6l-31.9,210.2h-4.1L985.2,863z"/>
<path class="st9" d="M964.4,1073.2h-1.7l10.8-88l-3.3-1.9l15.4-117.2l-0.5-3.1h10.6L964.4,1073.2z"/>
<path class="st3" d="M1154,858.8H949.7c-1.8,0-3.3,1.5-3.3,3.3v1.1c0,1.8,1.5,3.3,3.3,3.3H1154c1.8,0,3.3-1.5,3.3-3.3v-1.1
	C1157.3,860.3,1155.8,858.8,1154,858.8z"/>
<path class="st3" d="M1151,862.1l29.5-199.2c0.1-0.5,0.2-1,0.5-1.4s0.6-0.8,1-1.1s0.9-0.5,1.4-0.6s1-0.1,1.5-0.1h0.2
	c1,0.2,1.9,0.7,2.5,1.5s0.8,1.8,0.7,2.8l-29.6,199.2c-0.1,0.9-0.6,1.7-1.3,2.3c-0.7,0.6-1.6,0.9-2.5,0.9l0,0c-0.6,0-1.1-0.1-1.6-0.3
	s-0.9-0.6-1.3-1s-0.6-0.9-0.8-1.4S1150.9,862.7,1151,862.1z"/>
<path class="st3" d="M1096.7,866.6l31.9,207h4.1l-25.4-207H1096.7z"/>
<path class="st3" d="M959.8,866.6l-25.4,207h4.1l31.9-207H959.8z"/>
<path class="st9" d="M1132.7,1073.7h-1.8L1103.5,873c-0.1-0.8-0.4-1.5-1-2s-1.3-0.8-2.1-0.9l-3.5-0.4l-0.4-3.1h10.6L1132.7,1073.7z"
	/>
<path class="st9" d="M937,1073.7l28.5-200.4c0.1-0.8-0.1-1.6-0.6-2.2c-0.5-0.7-1.2-1.1-2-1.3l-3.4-0.6l0.3-2.4h10.6l-31.8,207
	L937,1073.7z"/>
<path class="st9" d="M1149.2,854.6H949.9v3.8h199.3L1149.2,854.6L1149.2,854.6z"/>
<path class="st9" d="M1175.3,659.2L1160,761.3l6.1-3.3l13.8-95.1L1175.3,659.2z"/>
<path class="st1" d="M1417.8,1074.5H198.9c-0.5,0-0.9,0.2-1.2,0.5s-0.5,0.8-0.5,1.2s0.2,0.9,0.5,1.2c0.3,0.3,0.8,0.5,1.2,0.5h1218.9
	c0.5,0,0.9-0.2,1.2-0.5c0.3-0.3,0.5-0.8,0.5-1.2s-0.2-0.9-0.5-1.2C1418.7,1074.7,1418.3,1074.5,1417.8,1074.5L1417.8,1074.5z"/>
<path class="st10" d="M202.2,785.1h38.1v-7.3h-39.8L202.2,785.1z"/>
<path class="st10" d="M250.3,995.5v-214h-48.9L250.3,995.5z"/>
<path class="st1" d="M252.9,1006.8h218.8V781.6H248v204.1L252.9,1006.8z"/>
<path class="st10" d="M259.4,813.1l201.9-0.2v176.7H259.4V813.1z M459.6,814.7H261V988h198.6V814.7z"/>
<path class="st1" d="M480,785.1H240.1c-0.5,0-1-0.1-1.4-0.3s-0.9-0.5-1.2-0.8s-0.6-0.7-0.8-1.2c-0.2-0.4-0.3-0.9-0.3-1.4l0,0
	c0-0.5,0.1-1,0.3-1.4s0.5-0.9,0.8-1.2s0.7-0.6,1.2-0.8c0.4-0.2,0.9-0.3,1.4-0.3H480c0.5,0,1,0.1,1.4,0.3s0.9,0.5,1.2,0.8
	c0.3,0.3,0.6,0.7,0.8,1.2c0.2,0.4,0.3,0.9,0.3,1.4l0,0c0,1-0.4,1.9-1.1,2.6C481.9,784.7,481,785.1,480,785.1L480,785.1z"/>
<path class="st10" d="M461.2,900.2H259.4v1.6h201.9L461.2,900.2L461.2,900.2z"/>
<path class="st10" d="M369,841.3c3.1,0,5.6-2.5,5.6-5.6s-2.5-5.6-5.6-5.6s-5.6,2.5-5.6,5.6S365.9,841.3,369,841.3z"/>
<path class="st11" d="M366.9,835.7c0-1.2,0.4-2.3,1-3.2c0.7-0.9,1.6-1.7,2.7-2c-0.6-0.2-1.2-0.3-1.8-0.3c-1.4,0.1-2.8,0.7-3.8,1.7
	s-1.6,2.4-1.6,3.9s0.6,2.8,1.6,3.9c1,1,2.4,1.7,3.8,1.7c0.6,0,1.2-0.1,1.8-0.3c-1.1-0.4-2.1-1.1-2.7-2
	C367.3,838,366.9,836.8,366.9,835.7L366.9,835.7z"/>
<path class="st10" d="M369,928.2c3.1,0,5.6-2.5,5.6-5.6s-2.5-5.6-5.6-5.6s-5.6,2.5-5.6,5.6S365.9,928.2,369,928.2z"/>
<path class="st11" d="M366.9,922.6c0-1.2,0.4-2.3,1-3.2c0.7-0.9,1.6-1.7,2.7-2c-0.6-0.2-1.2-0.3-1.8-0.3c-1.4,0.1-2.8,0.7-3.8,1.7
	s-1.6,2.4-1.6,3.9c0,1.4,0.6,2.8,1.6,3.9c1,1,2.4,1.7,3.8,1.7c0.6,0,1.2-0.1,1.8-0.3c-1.1-0.4-2.1-1.1-2.7-2
	C367.3,924.9,366.9,923.8,366.9,922.6L366.9,922.6z"/>
<path class="st10" d="M236.5,792.7l11.6-7.6h223.7v3.5L236.5,792.7z"/>
<path class="st1" d="M262.4,1048.2l10.5-41.5h-17.7l-0.7,7.2L262.4,1048.2z"/>
<path class="st10" d="M273,1006.8h-17.7l-0.7,7.6l3.8,16.6l2.7-17.3l10.1-1.9L273,1006.8z"/>
<path class="st1" d="M395.3,1006.8l5.6,62.3c0.1,0.5,0.1,1.1,0,1.6s-0.4,1-0.7,1.4c-0.3,0.4-0.8,0.8-1.3,1s-1,0.4-1.6,0.4l0,0
	c-0.8,0-1.5-0.2-2.1-0.7s-1.1-1.1-1.3-1.8l-16.3-64.3L395.3,1006.8L395.3,1006.8z"/>
<path class="st10" d="M392.2,1039.9l6-1.5l-2.9-31.6h-17.7l16.3,64.2c0.2,0.7,0.7,1.3,1.3,1.8c0.6,0.4,1.4,0.7,2.1,0.7h0.2
	L392.2,1039.9z"/>
<path class="st1" d="M460.7,1006.8l5.6,62.3c0.1,0.5,0.1,1.1,0,1.6s-0.4,1-0.7,1.4c-0.3,0.4-0.8,0.8-1.3,1s-1,0.4-1.6,0.4l0,0
	c-0.8,0-1.5-0.2-2.1-0.7s-1.1-1.1-1.3-1.8l-16.3-64.3L460.7,1006.8L460.7,1006.8z"/>
<path class="st10" d="M453.8,1012.2l7.8-1.4l-0.9-4H443l16.3,64.2c0.2,0.7,0.7,1.3,1.3,1.8c0.6,0.4,1.4,0.7,2.1,0.7h0.3
	L453.8,1012.2z"/>
<path class="st6" d="M363.1,759.8h-69.7V778h69.7c2.4-0.1,4.6-1.1,6.3-2.8c1.6-1.7,2.6-4,2.6-6.3c0-2.4-0.9-4.6-2.6-6.3
	S365.5,759.9,363.1,759.8z"/>
<path class="st12" d="M363.1,759.8h-69.7V778h69.7c2.4-0.1,4.6-1.1,6.3-2.8c1.6-1.7,2.6-4,2.6-6.3c0-2.4-0.9-4.6-2.6-6.3
	S365.5,759.9,363.1,759.8z"/>
<path class="st6" d="M299.2,778.1h-35.3v-2.6h10.9v-12.9h-10.9v-2.7h35.3c2.4,0.1,4.6,1.1,6.3,2.8c1.6,1.7,2.6,4,2.6,6.3
	c0,2.4-0.9,4.6-2.6,6.3C303.8,777,301.5,778,299.2,778.1"/>
<path class="st4" d="M266.5,775.4h32.6c0.9,0,1.7-0.1,2.5-0.4c0.8-0.3,1.5-0.8,2.2-1.4c0.6-0.6,1.1-1.3,1.5-2.1
	c0.3-0.8,0.5-1.7,0.5-2.5c0-0.9-0.2-1.7-0.5-2.5s-0.8-1.5-1.5-2.1c-0.6-0.6-1.4-1.1-2.2-1.4c-0.8-0.3-1.7-0.4-2.5-0.4h-32.6V775.4z"
	/>
<path class="st6" d="M373.5,745.8h-58.2v14h58.2c0.6,0,1.2-0.3,1.7-0.7c0.5-0.5,0.7-1.1,0.7-1.7v-9.2c0-0.3-0.1-0.6-0.2-0.9
	c-0.1-0.3-0.3-0.6-0.5-0.8s-0.5-0.4-0.8-0.5S373.8,745.8,373.5,745.8"/>
<path class="st9" d="M340.5,750.5h20c0.3,0,0.5,0.1,0.7,0.3s0.3,0.4,0.3,0.7v3.1c0,0.3-0.1,0.5-0.3,0.7c-0.2,0.2-0.4,0.3-0.7,0.3
	h-20c-0.3,0-0.5-0.1-0.7-0.3s-0.3-0.4-0.3-0.7v-3.1c0-0.3,0.1-0.5,0.3-0.7C339.9,750.6,340.2,750.5,340.5,750.5z"/>
<path class="st6" d="M292.8,759.8h31.7c0.6,0,1.2-0.3,1.7-0.7c0.4-0.5,0.7-1.1,0.7-1.7v-9.2c0-0.3-0.1-0.6-0.2-0.9
	c-0.1-0.3-0.3-0.6-0.5-0.8s-0.5-0.4-0.8-0.5s-0.6-0.2-0.9-0.2h-31.7L292.8,759.8L292.8,759.8z"/>
<path class="st9" d="M292.8,759.8h31.7c0.6,0,1.2-0.3,1.7-0.7c0.4-0.5,0.7-1.1,0.7-1.7v-9.2c0-0.3-0.1-0.6-0.2-0.9
	c-0.1-0.3-0.3-0.6-0.5-0.8s-0.5-0.4-0.8-0.5s-0.6-0.2-0.9-0.2h-31.7L292.8,759.8L292.8,759.8z"/>
<path class="st4" d="M292.8,757.7h30.8c0.2,0,0.3,0,0.5-0.1c0.1-0.1,0.3-0.1,0.4-0.3c0.2-0.2,0.3-0.5,0.4-0.8V749
	c0-0.3-0.1-0.6-0.4-0.8c-0.1-0.1-0.2-0.2-0.4-0.3s-0.3-0.1-0.5-0.1h-30.8V757.7z"/>
<path class="st4" d="M537,359.1H435.5v140.4H537V359.1z"/>
<path class="st13" d="M523.4,372.1H449v114.4h74.4V372.1z"/>
<path class="st2" d="M540,359h-3v140.4h3V359z"/>
<path class="st14" d="M508.4,391.9h-34.8v74.8h34.8V391.9z"/>
<path class="st6" d="M462.8,446.3H483V426h-20.3L462.8,446.3L462.8,446.3z"/>
<path class="st15" d="M1029.9,709.2c-0.7,3-6.2,5.2-8.2,7.5s-9.8,10.3-12.7,11.3l-43.8,7.9l0.1,0.1l-31.4,2.8l-3,1.4
	c-2.5,1.2-5.3,1.9-8,1.9c-2.8,0.1-5.6-0.4-8.1-1.5h-0.1l-4.4-1.8c-0.5-0.2-1.1-0.3-1.7-0.3c-0.6,0-1.2,0.1-1.7,0.4l-10.8,5.2
	c-0.3,0.1-0.6,0.2-0.9,0.2c-0.3,0-0.6-0.1-0.8-0.3s-0.4-0.4-0.5-0.6c-0.1-0.2-0.2-0.5-0.2-0.8s0-0.5,0.1-0.8s0.3-0.5,0.5-0.7
	l7.8-6.6l-11.7,9.6c-0.3,0.2-0.6,0.4-0.9,0.4c-0.3,0.1-0.7,0-1-0.1s-0.6-0.3-0.8-0.5s-0.4-0.5-0.5-0.8s-0.1-0.6,0-1
	c0.1-0.3,0.2-0.6,0.4-0.9l8.2-9.1l-11,11.9c-0.3,0.3-0.6,0.5-1,0.6s-0.8,0.1-1.2-0.1c-0.3-0.1-0.6-0.3-0.9-0.5
	c-0.2-0.2-0.4-0.5-0.5-0.9c-0.1-0.3-0.1-0.7-0.1-1s0.2-0.7,0.4-0.9l8-10.7L877,741c-0.2,0.2-0.5,0.3-0.7,0.4
	c-0.3,0.1-0.5,0.1-0.8,0.1s-0.6-0.1-0.8-0.2c-0.3-0.1-0.5-0.3-0.7-0.5c-0.5-0.4-0.6-1.8,0.2-2.6l13.2-13.2c1.3-1.4,3.1-2.3,5.1-2.5
	l22.6,0.6l23.2-3.1l-0.1-0.1L1018,695"/>
<path class="st11" d="M894.2,741.4c0.1,0,0.1,0,0.2-0.2l7.2-6.1c0.1-0.1,0.2-0.4,0.1-0.5s-0.4-0.2-0.5-0.1l-7.2,6.1
	c-0.1,0.1-0.2,0.4-0.1,0.5L894.2,741.4z"/>
<path class="st11" d="M887.8,741.6c0.1,0,0.3,0,0.3-0.1l7.7-8.6c0.1-0.1,0.1-0.2,0.1-0.3s-0.1-0.2-0.1-0.3c-0.1-0.1-0.2-0.1-0.3-0.1
	s-0.2,0.1-0.3,0.1l-7.7,8.6c-0.1,0.1-0.1,0.2-0.1,0.3s0,0.2,0.1,0.3S887.7,741.6,887.8,741.6z"/>
<path class="st11" d="M904.5,737.5c-2.4,1.5-6.6,3.8-7.9,4.8c-2,1.3-2.8-0.2-2.8-0.2c0,0.3,0,0.7,0.1,1s0.3,0.6,0.6,0.8
	s0.5,0.2,0.8,0.3c0.3,0,0.6,0,0.9-0.1l10.8-5.2c0.5-0.2,1.1-0.4,1.7-0.4c0.6,0,1.2,0.1,1.7,0.3l-2.3-1.2c-0.6-0.3-1.2-0.5-1.8-0.5
	C905.6,737.1,905,737.2,904.5,737.5L904.5,737.5z"/>
<path class="st11" d="M1012.3,727.7l-54.2,8.6l-9.5,0.6l-14.8,1.9c-9.3,5.4-16.9,2.6-16.9,2.6c3.9-0.1,7.7-1.4,10.9-3.7
	c1.4-1,3-1.7,4.7-2L954,732l62.9-19.1"/>
<path class="st6" d="M1071.9,608.7l-63.6,81.5l-17.4,8.9l19.1,31.8l15-12.1l14.7-13.4L1071.9,608.7z"/>
<path class="st16" d="M1010,693.2l12.7,19.7"/>
<path class="st9" d="M1070.8,609.8l-51.5,97.4l-17.4,8.9l8.2,14.6l15-12.1l14.7-13.4L1070.8,609.8z"/>
<path class="st15" d="M962,1052.6l-0.2,7.4c-0.1,2.7-1.2,5.2-3.1,7.1c-1.9,1.9-4.4,3-7.1,3.1h-0.1l-19.3,0.3H878
	c-0.9-1.6-3.4-6.5-0.3-7.6l36.9-15.8c6.5-2.2,9.1-5.2,12.5-8.6c1.3-1.8,1.8-4.1,1.5-6.3l-2.5-17.5l31.2-20.2l3.1,46L962,1052.6z"/>
<path class="st17" d="M892.8,1069.9c-3.9-4.3-5.4-7.3-6-10.6c0-0.2,0-0.4,0.1-0.6s0.3-0.3,0.5-0.4l25.5-10.9
	c0.3-0.1,0.6-0.2,0.9-0.1c0.3,0,0.6,0.1,0.9,0.2c0.3,0.1,0.5,0.3,0.7,0.6c0.2,0.2,0.4,0.5,0.4,0.8c1.3,4.3,2.9,14.2,9.2,20.8
	l36.3-0.1c0.6,0,1.2,0.3,1.6,0.7c0.4,0.4,0.6,1,0.6,1.6s-0.2,1.2-0.6,1.6c-0.4,0.4-1,0.7-1.6,0.7l-89.8,0.1c-0.6,0-1.2-0.2-1.7-0.7
	c-0.4-0.4-0.7-1-0.7-1.7v-2.2L892.8,1069.9z"/>
<path class="st11" d="M922.1,1070.5h10.1l19.3-0.3h0.1c2.7-0.1,5.2-1.2,7.1-3.1c1.9-1.9,3-4.4,3.1-7.1l0.2-7.4l-1.7-12.2l-3.1-46
	l-11.2,7.4l4.2,48.8c0,0,3.7,11.5-28.1,15.5L922.1,1070.5z"/>
<path class="st17" d="M946.3,871.3l13.4,144.2l-33.7,5.4l-17.2-87.5L946.3,871.3z"/>
<path class="st18" d="M948.5,1017.4l-12.2-105.8l10-40.3l13.4,144.2L948.5,1017.4z"/>
<path class="st4" d="M1073.7,605.1c0,0-6.6,14.6-10.5,23.9l58-36l-29.4-10.2l-16.2,5.7L1073.7,605.1z"/>
<path class="st15" d="M868.3,1070.5h-54.2c-0.9-1.6-3.4-6.5-0.3-7.6l36.9-15.8c6.5-2.2,13.3-3.7,17.1-8.6c0.8-1.1,1.4-2.2,1.9-3.4
	l9.9-65.2L912,987l-5.9,27.4c-1.4,10.1-4.2,20.1-6.9,30.1c-0.6,2.7-1,5.4-1,8.2l-0.2,7.4c-0.1,2.7-1.2,5.2-3.1,7.1
	c-1.9,1.9-4.4,3-7.1,3.1h-0.2L868.3,1070.5L868.3,1070.5z"/>
<path class="st11" d="M813.1,1068.2c0.5,1,0.9,1.9,1.2,2.5h54.2l19.4-0.3h0.1c2.7-0.1,5.2-1.2,7.1-3.1c1.9-1.9,3-4.5,3.1-7.1
	l0.2-7.4c0-3.2,0.5-6.3,1.4-9.4c1.7-5.1,2.5-10.1,3.7-15.3l3.1-14.9l-1.3,2.3l-10.6-0.9l-9.4,38c0,0-9.9,13.5-39.6,14.7l-29.6,1
	L813.1,1068.2z"/>
<path class="st17" d="M829.7,1069.9c-3.1-3.4-5.2-7.6-6.1-12.1c0-0.2,0-0.4,0.1-0.6s0.3-0.3,0.5-0.4l23.9-8.6
	c0.3-0.1,0.6-0.2,0.9-0.1c0.3,0,0.6,0.1,0.9,0.2c0.3,0.1,0.5,0.3,0.7,0.6c0.2,0.2,0.4,0.5,0.4,0.8c1.3,4.3,4.5,13.5,10.8,20
	l36.3-0.1c0.3,0,0.6,0,0.9,0.1s0.6,0.3,0.8,0.5s0.4,0.5,0.5,0.8s0.2,0.6,0.2,0.9s-0.1,0.6-0.2,0.9c-0.1,0.3-0.3,0.6-0.5,0.8
	c-0.2,0.2-0.5,0.4-0.8,0.5s-0.6,0.1-0.9,0.1l-89.7,0.1c-0.6,0-1.2-0.2-1.7-0.7c-0.4-0.4-0.7-1-0.7-1.7v-2.2L829.7,1069.9z"/>
<path class="st17" d="M1148.8,786.3c0,0,3.8,37.5-31.9,53.6c-7,3.1-14.4,4.9-22,5.4L949,856.2c0,0-4.1,29.9-17,69.1
	c-8,24.3-15.2,48.3-20.2,72.6l-4.8,20.4l-35.1-6.2l17.5-183.3c0.6-4.3,2.4-8.2,5.3-11.4c2.9-3.2,6.7-5.4,10.9-6.3l170.7-36.9
	l49.5-2.3L1148.8,786.3z"/>
<path class="st18" d="M1094.9,845.3c7.6-0.5,15-2.4,22-5.4c35.6-16.1,31.9-53.6,31.9-53.6l-4-6.1l-10.2,2.1c0,0-7.6,39.9-41.9,45.4
	l-157.4,16.4c0,0,2.5,20.2-14.8,72.4c-4.9,14.8-9.1,29.9-12.7,45.1l-13,55l12.1,1.7l5-20.4c5-24.3,12.2-48.3,20.2-72.6
	c12.8-39.2,17-69.1,17-69.1L1094.9,845.3z"/>
<path class="st6" d="M1060.4,632.6c9-12.4,19-24,29.8-34.7l31-18.2c0,0,30.4,30.4,31.2,59.2c0,0,0.8,21.8-5.5,51.4
	c0,0-5.6,29.5-1.5,53.8c0.6,3.7,1.2,7.4,1.7,11.2l4.1,31.1c0,0.2,0,0.3,0,0.5c-0.1,0.2-0.2,0.3-0.3,0.4c-0.1,0.1-0.3,0.2-0.5,0.2
	s-0.3,0-0.5-0.1c-4.1-2.1-13-5.9-41.1-5.9c-2.3,0-25.7,0.8-39.7-2.3c0,0-26.4-55.3-24.1-74.8C1049.9,661,1060.4,632.6,1060.4,632.6z
	"/>
<path d="M1035.1,506c0,0-7.8,13.2,7.8,26.5l6.1-24L1035.1,506z"/>
<path class="st9" d="M1076.3,588.5l-0.5,1.8l-0.2-1.8l-1.9,16.6l2-12c0,0,0-0.1,0.1-0.1h0.1c0.1,0,0.1,0,0.1,0l0.1,0.1l1.1,13.3
	l11.2-6.8l1.1-9.3L1076.3,588.5z"/>
<path class="st15" d="M1043.1,510c0,0-2,13-1.3,19.1l1.6,8.9l-3,12.5c-0.1,0.5-0.1,1.1,0.2,1.6c0.2,0.5,0.6,0.9,1.1,1.2l3.6,0.3
	l8.8,14.3c2.7,5.1,5.9,6.1,11.4,4.2l8-3.5c0.6-0.2,1.2-0.1,1.7,0.1c0.5,0.2,1,0.7,1.2,1.2l2.3,18.6l39-14l-5.1-24
	c0,0-4.6-53.1-36.2-57.8C1060.8,490.4,1043.1,510,1043.1,510z"/>
<path d="M1045.9,535.5c-0.4-1.4,0.1-2.8,1.3-3.2c1.2-0.3,2.4,0.4,2.8,1.7c0.5,1.3-0.1,2.8-1.3,3.2c-0.3,0.1-0.6,0.1-0.9,0
	c-0.3,0-0.6-0.1-0.9-0.3s-0.5-0.4-0.7-0.6C1046.1,536.1,1045.9,535.8,1045.9,535.5z"/>
<path class="st4" d="M1046.2,534.6c0-0.1,0-0.2,0.1-0.3s0.2-0.2,0.3-0.2c0.1,0,0.2,0,0.3,0.1c0.1,0,0.2,0.1,0.2,0.2
	c0.1,0.1,0.1,0.2,0.1,0.3s-0.1,0.2-0.1,0.3c-0.1,0.1-0.2,0.1-0.2,0.2c-0.1,0-0.2,0-0.3,0c-0.1,0-0.2-0.1-0.2-0.2
	C1046.2,534.8,1046.2,534.7,1046.2,534.6z"/>
<path class="st11" d="M1076.4,570.6l0.8,2.4l7.4-7.5c0.1-0.1,0.2-0.3,0.2-0.5s-0.1-0.4-0.2-0.5s-0.3-0.2-0.5-0.3
	c-0.2,0-0.4,0-0.5,0.1l-10.9,4.5c0.5-0.2,1-0.3,1.5-0.2s1,0.4,1.3,0.8C1075.8,569.8,1076.1,570.2,1076.4,570.6L1076.4,570.6z"/>
<path class="st4" d="M1049,558.8c2.1-1.1,3.9-2.5,5.5-4.3c0,1.4-0.3,2.9-1,4.2s-1.6,2.4-2.8,3.3L1049,558.8z"/>
<path d="M1043,527.9c0.2,0.3,1.6-0.2,3.4-0.4s3.2-0.1,3.4-0.4c0.1-0.2-0.2-0.4-0.8-0.6c-0.9-0.2-1.7-0.3-2.6-0.2s-1.8,0.4-2.6,0.8
	C1043.2,527.5,1042.9,527.8,1043,527.9z"/>
<path class="st4" d="M1121.2,579.6l-2.7-9.6l-44.8,16.6v18.5l1.8-14.1c0.2-0.9,1-1.1,1-0.2c0.3,4.7,1.1,9.3,2.3,13.9L1121.2,579.6z"
	/>
<path d="M1042.8,512c0,0,5,14.7,17,8.6c0,0,6.8-4.3,10.9,5.8c0,0,2.5,6,6.4,3.7l6.3,5.3c0,0,5.2,5.8,6.8,18.4
	c0.8,6.8,0.3,13.7-1.4,20.2c-2.5,9.8-6.2,29.3,5.2,27.3c1.7-0.3,3.3-1,4.7-2.1c4.8-3.5,21.6-13.9,36.5,2.2c0,0,15.2,13.6,16,44
	c0,0,10.1,10.8,9.5-33.2c-0.1-8-2-15.9-5.7-23.1c-3.1-6.1-7.7-11.3-13.2-15.3c-5.3-3.7-10-8.2-14-13.4c-5.9-7.9-12.5-18.8-10.6-26.8
	c0.5-1.9,0.9-3.9,1.1-5.9c0.8-9.1,0.7-30.3-16.4-43.8c-8.3-6.4-18.6-9.6-29.1-9.1c-13,0.5-35.4,12.4-37.7,31.1L1042.8,512z"/>
<path class="st11" d="M1080.8,537.2l3.4-1.9l1.6,4.1L1080.8,537.2z"/>
<path class="st15" d="M1080.1,537.6l-4.9-8c-1.2-1.8-1.6-4-1.2-6.1c1.5-7.3,11.8-8.5,13.6,0.8c2.1,11-7.2,12.9-7.2,12.9
	L1080.1,537.6z"/>
<path class="st18" d="M1078.3,527.8c0,0.2,0.2,0.4,0.4,0.6c0.2,0.1,0.4,0.2,0.7,0.2c0.2-0.1,0.4-0.2,0.5-0.4s0.2-0.4,0.1-0.6
	c-0.2-1-0.3-2-0.3-3c0-0.7,0.3-1.4,0.8-2c0.5-0.4,1.1-0.4,2-0.2c0.1,0,0.2,0.1,0.3,0s0.2-0.1,0.2-0.2c0.1,0,0.2-0.2,0.3-0.5
	c0-0.2,0-0.4-0.1-0.6c-0.1-0.2-0.3-0.3-0.5-0.4c-0.5-0.2-1.1-0.2-1.7-0.1c-0.5,0.1-1.1,0.3-1.5,0.6c-0.4,0.4-0.8,0.9-1,1.4
	s-0.4,1.1-0.4,1.7C1077.9,525.4,1078,526.6,1078.3,527.8L1078.3,527.8z"/>
<path class="st9" d="M1106,615.2c0,0-15.8,3.4-20,25.8l-13,83.4l6.6-5L1106,615.2z"/>
<path class="st9" d="M1118.4,614.4c0,0,29.2,3.4,15.8,52.3l-29,99.5l-10.9-7.4L1118.4,614.4z"/>
<path class="st11" d="M1047.1,674.7l2.6-0.3l0.7,2.9L1047.1,674.7z"/>
<path class="st15" d="M1099.8,756.8c0,0-32.6,12-87.3,26.5l-9.3-9.3l65-35.8l14.4-16.4L1099.8,756.8z"/>
<path class="st15" d="M1018.7,781.7l-2.3,1.7c-1.9,1.5-4.1,2.5-6.4,3.1c-2.3,0.6-4.8,0.7-7.1,0.2h-0.1h-0.2c-1-0.2-2.1-0.7-2.9-0.1
	l-8.1,6.4c-0.2,0.2-0.5,0.3-0.7,0.3c-0.3,0-0.5,0-0.8-0.1c-0.2-0.1-0.4-0.2-0.6-0.4s-0.3-0.4-0.3-0.6c-0.1-0.2-0.1-0.5,0-0.7
	c0-0.2,0.1-0.5,0.3-0.6l5.4-7l-8.1,10.2c-0.2,0.2-0.4,0.4-0.7,0.5s-0.6,0.2-0.9,0.1c-0.3,0-0.6-0.1-0.8-0.3s-0.4-0.4-0.6-0.6
	c-0.1-0.3-0.2-0.5-0.2-0.8s0.1-0.6,0.2-0.8l5.2-9.2l-6.9,12c-0.2,0.3-0.4,0.5-0.7,0.7c-0.3,0.1-0.7,0.2-1,0.2s-0.6-0.1-0.8-0.3
	c-0.3-0.2-0.5-0.4-0.6-0.6c-0.2-0.3-0.2-0.5-0.3-0.8c0-0.3,0-0.6,0.2-0.9l4.8-10.5l-8.7,11.1c-0.1,0.2-0.3,0.4-0.5,0.5
	s-0.4,0.2-0.7,0.2c-0.2,0-0.5,0-0.7,0c-0.2-0.1-0.5-0.2-0.6-0.3c-0.3-0.3-0.5-0.7-0.6-1.1c-0.1-0.4,0.1-0.8,0.3-1.2l8.7-13.5
	c0.8-1.5,2.2-2.5,3.8-3.1l22.5-3.8L1018.7,781.7z"/>
<path class="st11" d="M989.7,791.4c0.1,0,0.1,0,0.2-0.2l5-6.4c0.1-0.1,0.1-0.4,0-0.5s-0.4-0.1-0.5,0l-5,6.4c-0.1,0.1-0.1,0.4,0,0.5
	L989.7,791.4z"/>
<path class="st11" d="M984.3,792.7c0.1,0,0.2-0.1,0.2-0.2l4.9-8.6c0-0.1,0-0.2,0-0.2c0-0.1-0.1-0.1-0.1-0.2c-0.1,0-0.2,0-0.2,0
	c-0.1,0-0.1,0.1-0.2,0.1l-4.9,8.6c0,0.1,0,0.2,0,0.2c0,0.1,0.1,0.2,0.1,0.2C984.1,792.8,984.2,792.7,984.3,792.7z"/>
<path class="st11" d="M997.6,786.3c-1.8,1.7-4.8,4.4-5.8,5.5c-1.5,1.5-2.4,0.3-2.4,0.3c0,0.3,0.1,0.6,0.3,0.8s0.4,0.4,0.7,0.5
	c0.2,0.1,0.5,0.1,0.8,0.1s0.5-0.1,0.7-0.3l8.1-6.4c0.8-0.6,1.9-0.1,2.8,0.1l-2.2-1.3c-0.5-0.2-1.1-0.2-1.6-0.1
	C998.5,785.7,998,785.9,997.6,786.3L997.6,786.3z"/>
<path class="st11" d="M1089.6,754.9l-72.6,25.4c0,0-4.4,5.8-14.2,6.8c0,0,8,1.7,15.9-5.3l45.8-13.1l30.1-9.8L1089.6,754.9z"/>
<path class="st6" d="M1129,659c4.5-15.7,4-26,1.8-32.8c-1.4-4.3-4.3-7.8-8.2-10.1c-3.9-2.2-8.4-3-12.8-2.1
	c-6.2,1.4-11.7,5.1-15.3,10.3c-3.1,4.3-5.1,9.3-5.9,14.6l-13.4,82.4l-10.1,13.2l6.2,7l13.2-10.9l-6.2,16.4l23.5,16.3l8.4-30.4
	L1129,659z"/>
<path class="st15" d="M1035.7,769.1l-6.6,1.6c0,0-0.7,3,4.1,2.5l3.9,0.2c1.1-1.5,1.9-3.2,2.5-5c0-0.1,0-0.1,0-0.2
	c0-0.1,0-0.1-0.1-0.1s-0.1-0.1-0.2-0.1s-0.1,0-0.2,0L1035.7,769.1z"/>
<path class="st9" d="M1151.2,786.3l-4.1-31.1c-0.5-3.8-1.1-7.5-1.7-11.2c-2.8-16.8-1-36.1,0.4-46.4c-1.4,8.6-2.8,16.9-4,23.8
	c-1.6,9.7-1.2,18.3-1.8,28.1c-0.7,11.1-2.5,22.1-5.4,32.8l1.3,0.8c7.8,1.3,11.6,3,13.9,4.2c0.2,0.1,0.3,0.1,0.5,0.1s0.4-0.1,0.5-0.2
	c0.2-0.1,0.3-0.3,0.3-0.4C1151.2,786.7,1151.2,786.5,1151.2,786.3L1151.2,786.3z"/>
<path class="st16" d="M1078.5,721.8l27.5,15"/>
<path class="st15" d="M922.8,742.1l-18.6,4l-0.1-0.1c-0.3-0.4-0.6-0.9-0.7-1.4s-0.1-1,0.1-1.5c0.1-0.5,0.4-1,0.8-1.3
	c0.4-0.4,0.8-0.6,1.3-0.8l13.1-4L922.8,742.1z"/>
<path class="st11" d="M921.6,740.6l-18.2,4.1l0.8,1.4l18.6-4L921.6,740.6z"/>
<path class="st4" d="M1014.4,764.8c0,0.7,0.5,1.2,1.2,1.2c0.6,0,1.2-0.5,1.2-1.2"/>
<path class="st4" d="M418.7,468.1H317.2v114h101.5V468.1z"/>
<path class="st13" d="M405.1,481.3h-74.4V569h74.4V481.3z"/>
<path class="st2" d="M421.7,468.1h-2.9v114h2.9V468.1z"/>
<path class="st14" d="M382.8,499.2H353v51.9h29.8V499.2z"/>
<path class="st6" d="M383,536.1c6.2,0,11.2-5,11.2-11.2s-5-11.2-11.2-11.2s-11.2,5-11.2,11.2S376.8,536.1,383,536.1z"/>
<path class="st3" d="M852.6,763.2l48.9,311.1h6.3l-38.9-311.1L852.6,763.2L852.6,763.2z"/>
<path class="st3" d="M584.3,763.2l-39,311.1h6.3l48.9-311.1L584.3,763.2L584.3,763.2z"/>
<path class="st9" d="M907.8,1074.3H905L863.2,773c-0.1-1.2-0.6-2.3-1.5-3.1s-2-1.3-3.1-1.4l-5.3-0.6l-0.6-4.8H869L907.8,1074.3z"/>
<path class="st9" d="M549.4,1074.3L593,773.5c0.1-1.2-0.2-2.5-0.9-3.5s-1.8-1.7-3-2l-5.2-1l0.4-3.8h16.2l-48.8,311.1H549.4z"/>
<path class="st3" d="M630.6,1074.3h6.5L686,763.2h-16.3L630.6,1074.3z"/>
<path class="st9" d="M634.7,1074.3l15.8-123l-5.8-3.9l24.9-184.2H686l-48.9,311.1H634.7z"/>
<path class="st3" d="M592.4,756.9c0,0.8,0.2,1.7,0.5,2.4c0.3,0.8,0.8,1.4,1.5,2c1.3,1.2,3.1,1.9,4.9,1.9H972
	c1.6-0.2,3.1-0.9,4.3-2.1c1.1-1.1,1.7-2.6,1.7-4.1s-0.6-3-1.7-4.1c-1.1-1.2-2.6-1.9-4.3-2.1H599.2c-0.9,0-1.8,0.2-2.6,0.5
	s-1.6,0.8-2.2,1.3c-0.6,0.6-1.1,1.2-1.5,2C592.6,755.3,592.4,756.1,592.4,756.9"/>
<path class="st9" d="M592.4,756.9c0,0.8,0.2,1.7,0.5,2.4c0.3,0.8,0.8,1.4,1.5,2c1.3,1.2,3.1,1.9,4.9,1.9H972
	c1.6-0.2,3.1-0.9,4.3-2.1c1.1-1.1,1.7-2.6,1.7-4.1s-0.6-3-1.7-4.1c-1.1-1.2-2.6-1.9-4.3-2.1H599.2c-0.9,0-1.8,0.2-2.6,0.5
	s-1.6,0.8-2.2,1.3c-0.6,0.6-1.1,1.2-1.5,2C592.6,755.3,592.4,756.1,592.4,756.9"/>
<path class="st3" d="M538.2,756.9c0,0.8,0.2,1.6,0.5,2.4c0.3,0.8,0.8,1.4,1.4,2c1.2,1.2,2.9,1.9,4.6,1.9h279.2c1.5-0.2,3-1,4-2.1
	s1.6-2.6,1.6-4.1s-0.6-3-1.6-4.1s-2.5-1.9-4-2.1H544.7c-1.7,0-3.3,0.6-4.6,1.8c-0.6,0.6-1.1,1.2-1.4,2
	C538.4,755.3,538.2,756.1,538.2,756.9"/>
<path class="st19" d="M711,704.3l13.4-66l-0.4-0.1l-13.4,66L711,704.3z"/>
<path class="st19" d="M707.3,616.1h-0.4l1.8,85.8h0.4L707.3,616.1z"/>
<path class="st19" d="M687.7,631.8l-0.3,0.3l20.5,25.7l0.3-0.3L687.7,631.8z"/>
<path class="st20" d="M696.8,718.3l3.4-3c3.5-3,5.2-6.7,5.2-10.3v-7.3h13.2v7.3c0,3.7,1.8,7.3,5.2,10.3l3.4,3
	c7.1,6.4,9.4,14.4,6.2,21.8l-3.8,9h-35.2l-3.8-9C687.5,732.7,689.8,724.8,696.8,718.3z"/>
<path class="st3" d="M695.9,718.3l3.1-3c3.1-3,7-6.7,7-10.3v-7.3h3.4v6.7c0,4.1-1.8,8.1-5.1,11.6c-5.1,6.3-5.1,13.6-3.3,19.5
	c1.2,3.7,3.3,7.1,6,9.9l2.3,2.5c0.5,0.5,1.1,0.9,1.8,1.1c0.7,0.3,1.4,0.4,2.1,0.3h-19.5l-3.4-9C687.6,732.7,689.7,724.8,695.9,718.3
	z"/>
<path class="st19" d="M691.9,658.3l-0.3,0.3l24.3,20.2l0.3-0.3L691.9,658.3z"/>
<path class="st19" d="M713,694.4l21.5-20.4l-0.2-0.2l-21.5,20.3L713,694.4z"/>
<path class="st6" d="M699.7,647.2l-3.4-14.8c-0.3-1.2-0.9-2.3-1.7-3.3c-0.8-0.9-1.9-1.6-3.1-2c-1.2-0.4-2.4-0.5-3.7-0.3
	c-1.2,0.2-2.4,0.7-3.4,1.5l0,0c-1,0.8-1.7,1.8-2.2,2.9c-0.5,1.1-0.6,2.4-0.5,3.6c0.1,1.2,0.6,2.4,1.3,3.4s1.7,1.8,2.8,2.4
	L699.7,647.2z"/>
<path class="st21" d="M699.7,647.2l-3.4-14.8c-0.3-1.2-0.9-2.3-1.7-3.3c-0.8-0.9-1.9-1.6-3.1-2c-1.2-0.4-2.4-0.5-3.7-0.3
	c-1.2,0.2-2.4,0.7-3.4,1.5l0,0c-1,0.8-1.7,1.8-2.2,2.9c-0.5,1.1-0.6,2.4-0.5,3.6c0.1,1.2,0.6,2.4,1.3,3.4s1.7,1.8,2.8,2.4
	L699.7,647.2z"/>
<path class="st6" d="M681.9,634.1c0,1.4,0.4,2.7,1.1,3.9c0.7,1.2,1.8,2.1,3,2.6l13.7,6.6l-15.1-18.9c-0.9,0.7-1.6,1.5-2.1,2.6
	C682.1,631.9,681.9,633,681.9,634.1L681.9,634.1z"/>
<path class="st6" d="M707.5,640.6l9.7-20c0.8-1.6,1.2-3.5,1.1-5.3s-0.7-3.6-1.6-5.1c-1-1.5-2.3-2.8-3.9-3.7
	c-1.6-0.9-3.4-1.3-5.2-1.3l0,0c-1.8,0-3.6,0.5-5.2,1.4s-2.9,2.2-3.9,3.7s-1.5,3.3-1.6,5.1s0.3,3.6,1,5.3L707.5,640.6z"/>
<path class="st21" d="M707.5,640.6l9.7-20c0.8-1.6,1.2-3.5,1.1-5.3s-0.7-3.6-1.6-5.1c-1-1.5-2.3-2.8-3.9-3.7
	c-1.6-0.9-3.4-1.3-5.2-1.3l0,0c-1.8,0-3.6,0.5-5.2,1.4s-2.9,2.2-3.9,3.7s-1.5,3.3-1.6,5.1s0.3,3.6,1,5.3L707.5,640.6z"/>
<path class="st21" d="M707,605.2l0.5,35.4l-9.7-20c-0.8-1.6-1.2-3.4-1.1-5.2c0.1-1.8,0.6-3.5,1.5-5s2.2-2.8,3.7-3.7
	C703.5,605.8,705.2,605.3,707,605.2L707,605.2z"/>
<path class="st6" d="M718.3,667.3l14-16.8c1.2-1.4,1.9-3,2.3-4.8c0.3-1.8,0.2-3.6-0.3-5.3s-1.5-3.2-2.8-4.5
	c-1.3-1.2-2.9-2.1-4.6-2.5l0,0c-1.7-0.4-3.6-0.4-5.3,0c-1.7,0.5-3.3,1.3-4.6,2.6c-1.3,1.2-2.3,2.8-2.8,4.5s-0.6,3.5-0.3,5.3
	L718.3,667.3z"/>
<path class="st21" d="M713.8,645.9c-0.4-1.8-0.3-3.6,0.3-5.3c0.5-1.7,1.5-3.3,2.8-4.5s2.9-2.1,4.6-2.6c1.7-0.5,3.6-0.5,5.3,0
	l-8.6,33.8L713.8,645.9z"/>
<path class="st6" d="M720.2,687.3l6.4-16c0.5-1.3,1.4-2.5,2.5-3.4s2.4-1.5,3.8-1.8c1.4-0.3,2.8-0.2,4.2,0.3c1.3,0.4,2.5,1.2,3.5,2.3
	c1,1,1.6,2.3,2,3.7c0.3,1.4,0.3,2.8-0.1,4.2c-0.4,1.4-1.1,2.6-2.1,3.6s-2.2,1.7-3.6,2.2L720.2,687.3z"/>
<path class="st21" d="M720.2,687.3l6.4-16c0.5-1.3,1.4-2.5,2.5-3.4s2.4-1.5,3.8-1.8c1.4-0.3,2.8-0.2,4.2,0.3
	c1.3,0.4,2.5,1.2,3.5,2.3c1,1,1.6,2.3,2,3.7c0.3,1.4,0.3,2.8-0.1,4.2c-0.4,1.4-1.1,2.6-2.1,3.6s-2.2,1.7-3.6,2.2L720.2,687.3z"/>
<path class="st21" d="M740.3,668.4l-20,18.9l6.4-16c0.5-1.3,1.3-2.4,2.4-3.3c1.1-0.9,2.3-1.5,3.6-1.8s2.7-0.2,4,0.1
	C738.1,666.7,739.3,667.4,740.3,668.4L740.3,668.4z"/>
<path class="st6" d="M709.6,673.2l-7-16.9c-0.6-1.4-1.5-2.6-2.7-3.5s-2.6-1.6-4-1.8c-1.5-0.3-3-0.1-4.4,0.4s-2.7,1.3-3.7,2.4
	c-1,1.1-1.7,2.5-2,3.9c-0.3,1.5-0.3,3,0.1,4.4c0.4,1.4,1.2,2.7,2.3,3.8s2.4,1.8,3.8,2.2L709.6,673.2z"/>
<path class="st21" d="M709.6,673.2l-7-16.9c-0.6-1.4-1.5-2.6-2.7-3.5s-2.6-1.6-4-1.8c-1.5-0.3-3-0.1-4.4,0.4s-2.7,1.3-3.7,2.4
	c-1,1.1-1.7,2.5-2,3.9c-0.3,1.5-0.3,3,0.1,4.4c0.4,1.4,1.2,2.7,2.3,3.8s2.4,1.8,3.8,2.2L709.6,673.2z"/>
<path class="st19" d="M708.8,694l0.2-0.3l-33.3-18.2l-0.2,0.3L708.8,694z"/>
<path class="st6" d="M703.4,690.8l-12.1-16.5c-1-1.4-2.3-2.4-3.8-3.1c-1.5-0.7-3.2-1-4.9-0.9s-3.3,0.7-4.7,1.6
	c-1.4,0.9-2.6,2.2-3.3,3.6l0,0c-0.8,1.5-1.2,3.1-1.2,4.8s0.5,3.3,1.3,4.8s2,2.7,3.4,3.5c1.4,0.9,3.1,1.4,4.7,1.4L703.4,690.8z"/>
<path class="st21" d="M703.4,690.8l-12.1-16.5c-1-1.4-2.3-2.4-3.8-3.1c-1.5-0.7-3.2-1-4.9-0.9s-3.3,0.7-4.7,1.6
	c-1.4,0.9-2.6,2.2-3.3,3.6l0,0c-0.8,1.5-1.2,3.1-1.2,4.8s0.5,3.3,1.3,4.8s2,2.7,3.4,3.5c1.4,0.9,3.1,1.4,4.7,1.4L703.4,690.8z"/>
<path class="st6" d="M674.3,684.2c0.8,1.7,2,3.1,3.5,4.2c1.5,1,3.3,1.6,5.2,1.7l20.5,0.8l-28.7-15.4c-0.7,1.3-1.1,2.8-1.2,4.3
	C673.5,681.3,673.7,682.8,674.3,684.2L674.3,684.2z"/>
<path class="st21" d="M702.6,656.3l7,16.9l-21.8-19.5c1-1.1,2.3-1.9,3.7-2.4s2.9-0.6,4.4-0.3s2.8,0.9,4,1.8
	C701.1,653.7,702,654.9,702.6,656.3L702.6,656.3z"/>
<path class="st6" d="M843.1,744.9l-40.9-100.3c-0.4-0.9-1.1-1.6-1.9-2s-1.9-0.4-2.8,0l-2.1,0.8l43.9,107.7l1.3-0.5v0.2H951
	c1.6,0,3-0.6,4.2-1.7c1.1-1.1,1.7-2.6,1.7-4.2H843.1z"/>
<path class="st18" d="M843.1,744.9l-40.9-100.3c-0.4-0.9-1.1-1.6-1.9-2s-1.9-0.4-2.8,0l-2.1,0.8l43.9,107.7l1.3-0.5v0.2H951
	c1.6,0,3-0.6,4.2-1.7c1.1-1.1,1.7-2.6,1.7-4.2H843.1z"/>
<path class="st22" d="M1330.2,1015.1c0,0,8.8-70.2,29-108.6"/>
<path class="st22" d="M1315.3,894.4c0,0,13.7,56.6,11.5,95.6"/>
<path class="st6" d="M1357.3,910c0,0,0.2-37.9,33.3-40.1C1390.6,869.8,1393.3,903.1,1357.3,910z"/>
<path class="st6" d="M1277.8,901.8c0,0-8.9-36.1-48.2-25.8C1229.6,876,1237.1,902.3,1277.8,901.8z"/>
<path class="st6" d="M1320.3,916.6c0,0,11.7-30.7-15.4-46.7C1304.9,869.8,1292.9,900,1320.3,916.6z"/>
<path class="st22" d="M1277.8,901.8c0,0,36,41.2,36,113.3"/>
<path class="st22" d="M1341.3,896.2c-7.9,31.7-11.4,38.6-16,119"/>
<path class="st22" d="M1248,852.2c15.9,7.2,65.9,59.7,57.5,161.7"/>
<path class="st22" d="M1299.4,1013.8c0,0,10.4-70.7-33.3-94.2"/>
<path class="st22" d="M1331.6,1004.5c0,0,3.8-11.2,15.9-20.6"/>
<path class="st22" d="M1335.5,982.5c0,0,24.7-21.8,37.1-25.4"/>
<path class="st6" d="M1285.7,937.5c0,0-9.7-37.1-48.3-28.4C1237.4,909.1,1244.1,940.7,1285.7,937.5z"/>
<g class="st7">
	<g class="st7">
		<path class="st8" d="M1285.7,937.5c0,0-9.7-37.1-48.3-28.4C1237.4,909.1,1244.1,940.7,1285.7,937.5z"/>
	</g>
</g>
<path class="st6" d="M1305.5,975.6c0,0-6.6-26.4-42-17.6C1263.7,957.9,1275.2,984.3,1305.5,975.6z"/>
<path class="st6" d="M1329.6,958.5c0,0,3.3-41.4,46.4-46.5C1375.9,912,1378,952.5,1329.6,958.5"/>
<path class="st22" d="M1319.6,832.4c0,0-1.7,153-2,182.7"/>
<path class="st6" d="M1326,947.5c0,0-36.8,1.9-36.8-38.8C1289.2,908.7,1324.8,909.1,1326,947.5z"/>
<g class="st7">
	<g class="st7">
		<path class="st8" d="M1326,947.5c0,0-36.8,1.9-36.8-38.8C1289.2,908.7,1324.8,909.1,1326,947.5z"/>
	</g>
</g>
<path class="st6" d="M1360.9,963.2c0,0,9.9-28,41.7-20.9C1402.4,942.3,1397.2,966,1360.9,963.2z"/>
<g class="st7">
	<g class="st7">
		<path class="st8" d="M1360.9,963.2c0,0,9.9-28,41.7-20.9C1402.4,942.3,1397.2,966,1360.9,963.2z"/>
	</g>
</g>
<path class="st10" d="M1346.2,1014.4H1281v8.2h65.2V1014.4z"/>
<path class="st10" d="M1337.9,1076h-48.8l-3.6-53.5h56L1337.9,1076z"/>
<path class="st10" d="M1337.9,1076h-48.8l-3.6-53.5h56L1337.9,1076z"/>
<path class="st3" d="M1346.2,1014.4h-10.5v8.1h-9.8h-40.2l0.1,2.3h40.1l0.2,51.2h12l3.6-53.5h4.6L1346.2,1014.4L1346.2,1014.4z"/>
<path class="st6" d="M1319.2,864c0,0-18-27.2,5.5-53.4C1324.5,810.6,1340.1,837.2,1319.2,864z"/>
<g class="st7">
	<g class="st7">
		<path class="st8" d="M1319.2,864c0,0-18-27.2,5.5-53.4C1324.5,810.6,1340.1,837.2,1319.2,864z"/>
	</g>
</g>
<path class="st6" d="M1335.5,918.8c0,0-19.8-42.3,15.6-68.2C1351.1,850.6,1375.4,888.8,1335.5,918.8z"/>
<g class="st7">
	<g class="st7">
		<path class="st8" d="M1335.5,918.8c0,0-19.8-42.3,15.6-68.2C1351.1,850.6,1375.4,888.8,1335.5,918.8z"/>
	</g>
</g>
<path class="st6" d="M1340.3,991c0,0,4.8-18.5,30-14.6C1370.3,976.5,1366.1,995.2,1340.3,991z"/>
<path class="st6" d="M1305.9,999.4c0,0-5.5-35.6,27.1-39.8C1333,959.6,1340.8,990.6,1305.9,999.4z"/>
<g class="st7">
	<g class="st7">
		<path class="st8" d="M1305.9,999.4c0,0-5.5-35.6,27.1-39.8C1333,959.6,1340.8,990.6,1305.9,999.4z"/>
	</g>
</g>
<path class="st6" d="M1239,846.7c0,0,19.6-2,23.4,16.9C1262.5,863.4,1244.8,865.6,1239,846.7z"/>
<g class="st23">
	<g class="st23">
		<path class="st21" d="M1239,846.7c0,0,19.6-2,23.4,16.9C1262.5,863.4,1244.8,865.6,1239,846.7z"/>
	</g>
</g>
<path class="st6" d="M1286.9,844.7c0,0-24.4,25.4-0.6,53.1C1286.3,897.7,1310.4,870.6,1286.9,844.7z"/>
<g class="st7">
	<g class="st7">
		<path class="st8" d="M1286.9,844.7c0,0-24.4,25.4-0.6,53.1C1286.3,897.7,1310.4,870.6,1286.9,844.7z"/>
	</g>
</g>
</svg>
