<?xml version="1.0" encoding="utf-8"?>
<!-- Generator: Adobe Illustrator 27.0.0, SVG Export Plug-In . SVG Version: 6.00 Build 0)  -->
<svg version="1.1" id="Layer_1" xmlns="http://www.w3.org/2000/svg" xmlns:xlink="http://www.w3.org/1999/xlink" x="0px" y="0px"
	 viewBox="0 0 1600 1200" style="enable-background:new 0 0 1600 1200;" xml:space="preserve">
<style type="text/css">
	.st0{fill:#F4F4F4;}
	.st1{fill:#E20074;}
	.st2{opacity:0.2;enable-background:new    ;}
	.st3{opacity:0.1;enable-background:new    ;}
	.st4{fill:#FFFFFF;}
	.st5{opacity:0.6;}
	.st6{opacity:0.6;fill:#FFFFFF;enable-background:new    ;}
	.st7{opacity:0.6;fill:#E20074;enable-background:new    ;}
	.st8{fill:#B2B6BB;}
	.st9{fill:#868A91;}
	.st10{fill:#61656D;}
	.st11{fill:#3F4249;}
	.st12{opacity:0.7;enable-background:new    ;}
	.st13{opacity:0.2;}
	.st14{opacity:0.2;fill:#FFFFFF;enable-background:new    ;}
	.st15{opacity:0.13;enable-background:new    ;}
	.st16{opacity:8.000000e-02;enable-background:new    ;}
	.st17{fill:#DADDDF;}
	.st18{opacity:0.4;fill:#FFFFFF;enable-background:new    ;}
	.st19{opacity:0.4;}
	.st20{fill:#FC9D9D;}
	.st21{opacity:0.15;enable-background:new    ;}
	.st22{opacity:0.3;enable-background:new    ;}
	.st23{opacity:0.5;enable-background:new    ;}
	.st24{opacity:0.25;enable-background:new    ;}
	.st25{fill:#80848B;}
	.st26{fill:none;stroke:#868A91;stroke-width:0.55;stroke-miterlimit:10;}
	.st27{opacity:0.4;enable-background:new    ;}
	.st28{fill-rule:evenodd;clip-rule:evenodd;fill:#B2B6BB;}
</style>
<path class="st0" d="M373.7,1019.7L238.3,786.5c-8.9-11.2-10.5-28-3.9-41.2l189.1-497.2c6.5-13,18-21.6,30.9-23.1l547.1-44.5
	c11.4-1.3,22.7,3,31.2,11.9l327,385.6c9.1,9.6,12.3,24.7,8,38.1l-90.6,403.5H373.7z"/>
<path class="st1" d="M475.1,874.5h-98.2c-0.4,0-0.7-0.1-1-0.4c-0.3-0.3-0.4-0.6-0.4-1v-73.2c0-0.4,0.1-0.7,0.4-1
	c0.3-0.3,0.6-0.4,1-0.4h98.2c0.4,0,0.7,0.1,1,0.4c0.3,0.3,0.4,0.6,0.4,1v73.2c0,0.4-0.1,0.7-0.4,1
	C475.8,874.4,475.5,874.5,475.1,874.5z M376.9,799.5c-0.1,0-0.2,0-0.3,0.1s-0.1,0.2-0.1,0.3v73.2c0,0.1,0,0.2,0.1,0.3
	s0.2,0.1,0.3,0.1h96.7c0.1,0,0.2,0,0.3-0.1c0.1-0.1,0.1-0.2,0.1-0.3v-73.2c0-0.1,0-0.2-0.1-0.3c-0.1-0.1-0.2-0.1-0.3-0.1H376.9z"/>
<path class="st2" d="M475.1,874.5h-98.2c-0.4,0-0.7-0.1-1-0.4c-0.3-0.3-0.4-0.6-0.4-1v-73.2c0-0.4,0.1-0.7,0.4-1
	c0.3-0.3,0.6-0.4,1-0.4h98.2c0.4,0,0.7,0.1,1,0.4c0.3,0.3,0.4,0.6,0.4,1v73.2c0,0.4-0.1,0.7-0.4,1
	C475.8,874.4,475.5,874.5,475.1,874.5z M376.9,799.5c-0.1,0-0.2,0-0.3,0.1s-0.1,0.2-0.1,0.3v73.2c0,0.1,0,0.2,0.1,0.3
	s0.2,0.1,0.3,0.1h96.7c0.1,0,0.2,0,0.3-0.1c0.1-0.1,0.1-0.2,0.1-0.3v-73.2c0-0.1,0-0.2-0.1-0.3c-0.1-0.1-0.2-0.1-0.3-0.1H376.9z"/>
<path class="st1" d="M473.4,874.5h-96.5c-0.4,0-0.7-0.1-1-0.4c-0.3-0.3-0.4-0.6-0.4-1v-73.2c0-0.4,0.1-0.7,0.4-1
	c0.3-0.3,0.6-0.4,1-0.4h96.5c0.4,0,0.7,0.1,1,0.4c0.3,0.3,0.4,0.6,0.4,1v73.2c0,0.4-0.1,0.7-0.4,1
	C474.1,874.4,473.8,874.5,473.4,874.5L473.4,874.5z M376.9,799.5c-0.1,0-0.1,0-0.2,0c0,0-0.1,0-0.1,0.1c0,0-0.1,0.1-0.1,0.1
	c0,0,0,0.1,0,0.2v73.2c0,0.1,0,0.1,0,0.2c0,0,0,0.1,0.1,0.1c0,0,0.1,0.1,0.1,0.1c0,0,0.1,0,0.2,0h96.5c0.1,0,0.2,0,0.3-0.1
	c0.1-0.1,0.1-0.2,0.1-0.3v-73.2c0-0.1,0-0.2-0.1-0.3c-0.1-0.1-0.2-0.1-0.3-0.1H376.9z"/>
<path class="st1" d="M473.3,810h-96.4v1h96.4V810z"/>
<path class="st1" d="M383.5,806c0.8,0,1.5-0.7,1.5-1.5s-0.7-1.5-1.5-1.5s-1.5,0.7-1.5,1.5S382.7,806,383.5,806z"/>
<path class="st1" d="M388.5,806c0.8,0,1.5-0.7,1.5-1.5s-0.7-1.5-1.5-1.5s-1.5,0.7-1.5,1.5S387.7,806,388.5,806z"/>
<path class="st1" d="M393.5,806c0.8,0,1.5-0.7,1.5-1.5s-0.7-1.5-1.5-1.5s-1.5,0.7-1.5,1.5S392.7,806,393.5,806z"/>
<path class="st1" d="M675.2,415.5H510.4c-1.3,0-2.4-0.6-2.4-1.4v-73.2c0-0.8,1-1.4,2.4-1.4h164.8c1.3,0,2.3,0.6,2.3,1.4v73.2
	C677.5,414.9,676.5,415.5,675.2,415.5z M510.3,340.5c-0.4,0-0.6,0.2-0.6,0.4v73.2c0,0.2,0.3,0.4,0.6,0.4h162.3
	c0.4,0,0.6-0.2,0.6-0.4v-73.2c0-0.2-0.3-0.4-0.6-0.4H510.3z"/>
<path class="st2" d="M675.2,415.5H510.4c-1.3,0-2.4-0.6-2.4-1.4v-73.2c0-0.8,1-1.4,2.4-1.4h164.8c1.3,0,2.3,0.6,2.3,1.4v73.2
	C677.5,414.9,676.5,415.5,675.2,415.5z M510.3,340.5c-0.4,0-0.6,0.2-0.6,0.4v73.2c0,0.2,0.3,0.4,0.6,0.4h162.3
	c0.4,0,0.6-0.2,0.6-0.4v-73.2c0-0.2-0.3-0.4-0.6-0.4H510.3z"/>
<path class="st1" d="M672.3,415.5h-162c-1.3,0-2.3-0.6-2.3-1.4v-73.2c0-0.8,1-1.4,2.3-1.4h162c1.3,0,2.3,0.6,2.3,1.4v73.2
	C674.7,414.9,673.6,415.5,672.3,415.5z M510.3,340.5c-0.4,0-0.6,0.2-0.6,0.4v73.2c0,0.2,0.3,0.4,0.6,0.4h162c0.4,0,0.6-0.2,0.6-0.4
	v-73.2c0-0.2-0.3-0.4-0.6-0.4H510.3z"/>
<path class="st1" d="M672.2,351H510.3v1h161.8V351z"/>
<path class="st1" d="M515.5,347c0.8,0,1.5-0.7,1.5-1.5s-0.7-1.5-1.5-1.5s-1.5,0.7-1.5,1.5S514.7,347,515.5,347z"/>
<path class="st1" d="M520.5,347c0.8,0,1.5-0.7,1.5-1.5s-0.7-1.5-1.5-1.5s-1.5,0.7-1.5,1.5S519.7,347,520.5,347z"/>
<path class="st1" d="M525.5,347c0.8,0,1.5-0.7,1.5-1.5s-0.7-1.5-1.5-1.5s-1.5,0.7-1.5,1.5S524.7,347,525.5,347z"/>
<path class="st3" d="M731.9,654.8v15.4H480.6V502h16.8"/>
<path class="st4" d="M749.4,485.7H498.1V654h251.3V485.7z"/>
<path class="st1" d="M508,493.1c0,0.4-0.1,0.8-0.3,1.1c-0.2,0.3-0.5,0.6-0.9,0.7c-0.4,0.2-0.8,0.2-1.2,0.1s-0.7-0.3-1-0.5
	c-0.3-0.3-0.5-0.6-0.5-1c-0.1-0.4,0-0.8,0.1-1.2c0.2-0.4,0.4-0.7,0.7-0.9c0.3-0.2,0.7-0.3,1.1-0.3c0.5,0,1,0.2,1.4,0.6
	S508,492.6,508,493.1z"/>
<path class="st1" d="M514.9,493.1c0,0.4-0.1,0.8-0.3,1.1c-0.2,0.3-0.5,0.6-0.9,0.7c-0.4,0.2-0.8,0.2-1.2,0.1s-0.7-0.3-1-0.5
	s-0.5-0.6-0.5-1c-0.1-0.4,0-0.8,0.1-1.2c0.2-0.4,0.4-0.7,0.7-0.9c0.3-0.2,0.7-0.3,1.1-0.3c0.5,0,1,0.2,1.4,0.6
	S514.9,492.6,514.9,493.1z"/>
<path class="st1" d="M521.7,493.1c0,0.4-0.1,0.8-0.3,1.1c-0.2,0.3-0.5,0.6-0.9,0.7c-0.4,0.2-0.8,0.2-1.2,0.1s-0.7-0.3-1-0.5
	c-0.3-0.3-0.5-0.6-0.5-1c-0.1-0.4,0-0.8,0.1-1.2c0.2-0.4,0.4-0.7,0.7-0.9c0.3-0.2,0.7-0.3,1.1-0.3c0.5,0,1,0.2,1.4,0.6
	S521.7,492.6,521.7,493.1z"/>
<g class="st5">
	<path class="st6" d="M508,493.1c0,0.4-0.1,0.8-0.3,1.1c-0.2,0.3-0.5,0.6-0.9,0.7c-0.4,0.2-0.8,0.2-1.2,0.1s-0.7-0.3-1-0.5
		c-0.3-0.3-0.5-0.6-0.5-1c-0.1-0.4,0-0.8,0.1-1.2c0.2-0.4,0.4-0.7,0.7-0.9c0.3-0.2,0.7-0.3,1.1-0.3c0.5,0,1,0.2,1.4,0.6
		S508,492.6,508,493.1z"/>
	<path class="st6" d="M514.9,493.1c0,0.4-0.1,0.8-0.3,1.1c-0.2,0.3-0.5,0.6-0.9,0.7c-0.4,0.2-0.8,0.2-1.2,0.1s-0.7-0.3-1-0.5
		s-0.5-0.6-0.5-1c-0.1-0.4,0-0.8,0.1-1.2c0.2-0.4,0.4-0.7,0.7-0.9c0.3-0.2,0.7-0.3,1.1-0.3c0.5,0,1,0.2,1.4,0.6
		S514.9,492.6,514.9,493.1z"/>
	<path class="st6" d="M521.7,493.1c0,0.4-0.1,0.8-0.3,1.1c-0.2,0.3-0.5,0.6-0.9,0.7c-0.4,0.2-0.8,0.2-1.2,0.1s-0.7-0.3-1-0.5
		c-0.3-0.3-0.5-0.6-0.5-1c-0.1-0.4,0-0.8,0.1-1.2c0.2-0.4,0.4-0.7,0.7-0.9c0.3-0.2,0.7-0.3,1.1-0.3c0.5,0,1,0.2,1.4,0.6
		S521.7,492.6,521.7,493.1z"/>
</g>
<path class="st1" d="M497.5,485.1v169.4H750V485.1H497.5z M748.9,486.3v13.9H498.7v-13.9H748.9z M498.7,653.4V501.3h250.2v152.1
	H498.7z"/>
<path class="st6" d="M497.5,485.1v169.4H750V485.1H497.5z M748.9,486.3v13.9H498.7v-13.9H748.9z M498.7,653.4V501.3h250.2v152.1
	H498.7z"/>
<path class="st1" d="M587.2,518.3h-67v67h67V518.3z"/>
<g class="st5">
	<path class="st6" d="M587.2,518.3h-67v67h67V518.3z"/>
</g>
<path class="st1" d="M555.9,607.9h-31.5v31.5h31.5V607.9z"/>
<path class="st6" d="M555.9,607.9h-31.5v31.5h31.5V607.9z"/>
<path class="st1" d="M613,607.9h-31.5v31.5H613V607.9z"/>
<path class="st6" d="M613,607.9h-31.5v31.5H613V607.9z"/>
<path class="st1" d="M670.2,607.9h-31.5v31.5h31.5V607.9z"/>
<path class="st6" d="M670.2,607.9h-31.5v31.5h31.5V607.9z"/>
<path class="st1" d="M727.3,607.9h-31.5v31.5h31.5V607.9z"/>
<path class="st6" d="M727.3,607.9h-31.5v31.5h31.5V607.9z"/>
<g class="st5">
	<path class="st7" d="M715.4,530.2H598.6c-0.2,0-0.3-0.1-0.4-0.2c-0.1-0.1-0.2-0.2-0.2-0.4c0-0.1,0-0.1,0-0.2c0-0.1,0.1-0.1,0.1-0.2
		c0.1-0.1,0.1-0.1,0.2-0.1c0.1,0,0.1,0,0.2,0h116.8c0.1,0,0.1,0,0.2,0c0.1,0,0.1,0.1,0.2,0.1c0.1,0.1,0.1,0.1,0.1,0.2
		c0,0.1,0,0.1,0,0.2c0,0.1,0,0.1,0,0.2c0,0.1-0.1,0.1-0.1,0.2c-0.1,0.1-0.1,0.1-0.2,0.1C715.5,530.2,715.5,530.2,715.4,530.2z"/>
	<path class="st7" d="M715.4,542.8H598.6c-0.2,0-0.3-0.1-0.4-0.2c-0.1-0.1-0.2-0.2-0.2-0.4c0-0.1,0-0.1,0-0.2c0-0.1,0.1-0.1,0.1-0.2
		c0.1-0.1,0.1-0.1,0.2-0.1c0.1,0,0.1,0,0.2,0h116.8c0.1,0,0.1,0,0.2,0c0.1,0,0.1,0.1,0.2,0.1c0.1,0.1,0.1,0.1,0.1,0.2
		c0,0.1,0,0.1,0,0.2c0,0.2-0.1,0.3-0.2,0.4C715.7,542.7,715.5,542.8,715.4,542.8L715.4,542.8z"/>
	<path class="st7" d="M715.4,555.3H598.6c-0.2,0-0.3-0.1-0.4-0.2c-0.1-0.1-0.2-0.2-0.2-0.4c0-0.2,0.1-0.3,0.2-0.4
		c0.1-0.1,0.3-0.2,0.4-0.2h116.8c0.1,0,0.1,0,0.2,0c0.1,0,0.1,0.1,0.2,0.1c0.1,0.1,0.1,0.1,0.1,0.2c0,0.1,0,0.1,0,0.2
		c0,0.2-0.1,0.3-0.2,0.4C715.7,555.2,715.5,555.3,715.4,555.3L715.4,555.3z"/>
	<path class="st7" d="M666.3,567.8h-67.7c-0.1,0-0.1,0-0.2,0c-0.1,0-0.1-0.1-0.2-0.1c-0.1-0.1-0.1-0.1-0.1-0.2c0-0.1,0-0.1,0-0.2
		c0-0.1,0.1-0.3,0.2-0.4c0.1-0.1,0.2-0.2,0.4-0.2h67.7c0.1,0,0.3,0.1,0.4,0.2c0.1,0.1,0.2,0.2,0.2,0.4c0,0.1,0,0.1,0,0.2
		c0,0.1-0.1,0.1-0.1,0.2c-0.1,0.1-0.1,0.1-0.2,0.1C666.5,567.8,666.4,567.8,666.3,567.8z"/>
</g>
<path class="st8" d="M1344.1,1019.2H302.9c-0.2,0-0.4,0-0.7,0c-0.2,0-0.4-0.2-0.6-0.3s-0.3-0.3-0.4-0.5c-0.1-0.2-0.1-0.4-0.1-0.6
	c0-0.2,0-0.4,0.1-0.6c0.1-0.2,0.2-0.4,0.4-0.5c0.2-0.1,0.4-0.2,0.6-0.3c0.2-0.1,0.4-0.1,0.7,0h1041.3c0.2,0,0.4,0,0.7,0
	c0.2,0,0.4,0.2,0.6,0.3c0.2,0.1,0.3,0.3,0.4,0.5c0.1,0.2,0.2,0.4,0.2,0.6c0,0.2-0.1,0.4-0.2,0.6c-0.1,0.2-0.2,0.4-0.4,0.5
	c-0.2,0.1-0.4,0.2-0.6,0.3C1344.6,1019.2,1344.3,1019.2,1344.1,1019.2z"/>
<path class="st9" d="M824,765.2h120.3c1.5,0,3,0.6,4.1,1.7c1.1,1.1,1.7,2.6,1.7,4.1c0,1.5-0.6,3-1.7,4.1c-1.1,1.1-2.5,1.7-4.1,1.7
	H824"/>
<path class="st2" d="M824,765.2h120.3c1.5,0,3,0.6,4.1,1.7c1.1,1.1,1.7,2.6,1.7,4.1c0,1.5-0.6,3-1.7,4.1c-1.1,1.1-2.5,1.7-4.1,1.7
	H824"/>
<path class="st9" d="M519.9,765.2H880c0.8-0.1,1.6,0,2.4,0.3c0.8,0.3,1.5,0.7,2,1.2c0.6,0.5,1.1,1.2,1.4,1.9
	c0.3,0.7,0.5,1.5,0.5,2.3c0,0.8-0.2,1.6-0.5,2.3c-0.3,0.7-0.8,1.4-1.4,1.9c-0.6,0.5-1.3,1-2,1.2c-0.8,0.3-1.6,0.4-2.4,0.3H519.9
	c-0.8,0.1-1.6,0-2.4-0.3c-0.8-0.3-1.5-0.7-2-1.2c-0.6-0.5-1.1-1.2-1.4-1.9c-0.3-0.7-0.5-1.5-0.5-2.3c0-0.8,0.2-1.6,0.5-2.3
	c0.3-0.7,0.8-1.4,1.4-1.9s1.3-1,2-1.2C518.3,765.2,519.1,765.1,519.9,765.2z"/>
<path class="st9" d="M533,776.8h-5.9v239.6h5.9V776.8z"/>
<path class="st9" d="M875.2,776.7h-5.9v239.7h5.9V776.7z"/>
<path class="st9" d="M748.6,776.4l120.7,0.3v38.8l-120.7-0.3V776.4z"/>
<path class="st2" d="M864.5,811.3l-111-0.2v-29.6l111,0.2V811.3z M754.4,810.2l109.2,0.2v-27.8l-109.2-0.2V810.2z"/>
<path class="st10" d="M812,795.2c0.2,0.7,0.1,1.4-0.2,2c-0.3,0.6-0.8,1.2-1.4,1.5c-0.6,0.3-1.3,0.5-2,0.4c-0.7-0.1-1.3-0.4-1.8-0.9
	c-0.5-0.5-0.8-1.1-0.9-1.8c-0.1-0.7,0-1.4,0.4-2c0.3-0.6,0.9-1.1,1.5-1.4c0.6-0.3,1.3-0.3,2-0.2c0.6,0.1,1.1,0.4,1.5,0.8
	C811.6,794.2,811.9,794.7,812,795.2"/>
<path class="st2" d="M812,795.2c-0.1-0.6-0.4-1.1-0.8-1.5c-0.4-0.4-0.9-0.7-1.5-0.8c-0.4-0.1-0.8-0.1-1.2,0h0.3
	c0.7,0.2,1.4,0.6,1.8,1.2s0.7,1.3,0.6,2.1c0,0.7-0.3,1.4-0.8,2s-1.2,0.9-1.9,1c0.5,0.1,1,0,1.5-0.2c0.5-0.2,0.9-0.5,1.3-0.8
	c0.3-0.4,0.6-0.8,0.7-1.3C812.1,796.3,812.1,795.8,812,795.2L812,795.2z"/>
<path class="st9" d="M748.6,811.4l120.7,0.3v38.8l-120.7-0.3V811.4z"/>
<path class="st2" d="M864.5,846.3l-111-0.2v-29.6l111,0.2V846.3z M754.4,845.2l109.2,0.2v-27.8l-109.2-0.2V845.2z"/>
<path class="st10" d="M812,830.2c0.2,0.7,0.1,1.4-0.2,2c-0.3,0.6-0.8,1.2-1.4,1.5c-0.6,0.3-1.3,0.5-2,0.4c-0.7-0.1-1.3-0.4-1.8-0.9
	c-0.5-0.5-0.8-1.1-0.9-1.8c-0.1-0.7,0-1.4,0.4-2c0.3-0.6,0.9-1.1,1.5-1.4c0.6-0.3,1.3-0.3,2-0.2c0.6,0.1,1.1,0.4,1.5,0.8
	C811.6,829.2,811.9,829.7,812,830.2"/>
<path class="st2" d="M812,830.2c-0.1-0.6-0.4-1.1-0.8-1.5c-0.4-0.4-0.9-0.7-1.5-0.8c-0.4-0.1-0.8-0.1-1.2,0h0.3
	c0.7,0.2,1.4,0.6,1.8,1.2s0.7,1.3,0.6,2.1c0,0.7-0.3,1.4-0.8,2s-1.2,0.9-1.9,1c0.5,0.1,1,0,1.5-0.2c0.5-0.2,0.9-0.5,1.3-0.8
	c0.3-0.4,0.6-0.8,0.7-1.3C812.1,831.3,812.1,830.8,812,830.2L812,830.2z"/>
<path class="st9" d="M748.6,847.4l120.7,0.3v38.8l-120.7-0.3V847.4z"/>
<path class="st2" d="M864.5,882.3l-111-0.2v-29.6l111,0.2V882.3z M754.4,881.2l109.2,0.2v-27.8l-109.2-0.2V881.2z"/>
<path class="st10" d="M812,866.2c0.2,0.7,0.1,1.4-0.2,2c-0.3,0.6-0.8,1.2-1.4,1.5c-0.6,0.3-1.3,0.5-2,0.4c-0.7-0.1-1.3-0.4-1.8-0.9
	c-0.5-0.5-0.8-1.1-0.9-1.8c-0.1-0.7,0-1.4,0.4-2c0.3-0.6,0.9-1.1,1.5-1.4c0.6-0.3,1.3-0.3,2-0.2c0.6,0.1,1.1,0.4,1.5,0.8
	C811.6,865.2,811.9,865.7,812,866.2z"/>
<path class="st9" d="M763,994h-14v22h14V994z"/>
<path class="st2" d="M763,994h-7v22h7V994z"/>
<path class="st9" d="M828,994h-14v22h14V994z"/>
<path class="st2" d="M828,994h-7v22h7V994z"/>
<path class="st2" d="M812,866.2c-0.1-0.6-0.4-1.1-0.8-1.5c-0.4-0.4-0.9-0.7-1.5-0.8c-0.4-0.1-0.8-0.1-1.2,0h0.3
	c0.7,0.2,1.4,0.6,1.8,1.2s0.7,1.3,0.6,2.1c0,0.7-0.3,1.4-0.8,2s-1.2,0.9-1.9,1c0.5,0.1,1,0,1.5-0.2c0.5-0.2,0.9-0.5,1.3-0.8
	c0.3-0.4,0.6-0.8,0.7-1.3C812.1,867.3,812.1,866.8,812,866.2L812,866.2z"/>
<path class="st9" d="M748.6,883.4l120.7,0.3v38.8l-120.7-0.3V883.4z"/>
<path class="st2" d="M864.5,918.3l-111-0.2v-29.6l111,0.2V918.3z M754.4,917.2l109.2,0.2v-27.8l-109.2-0.2V917.2z"/>
<path class="st10" d="M812,902.2c0.2,0.7,0.1,1.4-0.2,2c-0.3,0.6-0.8,1.2-1.4,1.5c-0.6,0.3-1.3,0.5-2,0.4c-0.7-0.1-1.3-0.4-1.8-0.9
	c-0.5-0.5-0.8-1.1-0.9-1.8c-0.1-0.7,0-1.4,0.4-2c0.3-0.6,0.9-1.1,1.5-1.4c0.6-0.3,1.3-0.3,2-0.2c0.6,0.1,1.1,0.4,1.5,0.8
	C811.6,901.2,811.9,901.7,812,902.2"/>
<path class="st2" d="M812,902.2c-0.1-0.6-0.4-1.1-0.8-1.5c-0.4-0.4-0.9-0.7-1.5-0.8c-0.4-0.1-0.8-0.1-1.2,0h0.3
	c0.7,0.2,1.4,0.6,1.8,1.2s0.7,1.3,0.6,2.1c0,0.7-0.3,1.4-0.8,2s-1.2,0.9-1.9,1c0.5,0.1,1,0,1.5-0.2c0.5-0.2,0.9-0.5,1.3-0.8
	c0.3-0.4,0.6-0.8,0.7-1.3C812.1,903.3,812.1,902.8,812,902.2L812,902.2z"/>
<path class="st9" d="M748.6,919.4l120.7,0.3v38.8l-120.7-0.3V919.4z"/>
<path class="st2" d="M864.5,954.3l-111-0.2v-29.6l111,0.2V954.3z M754.4,953.2l109.2,0.2v-27.8l-109.2-0.2V953.2z"/>
<path class="st10" d="M812,938.2c0.2,0.7,0.1,1.4-0.2,2c-0.3,0.6-0.8,1.2-1.4,1.5c-0.6,0.3-1.3,0.5-2,0.4c-0.7-0.1-1.3-0.4-1.8-0.9
	c-0.5-0.5-0.8-1.1-0.9-1.8c-0.1-0.7,0-1.4,0.4-2c0.3-0.6,0.9-1.1,1.5-1.4c0.6-0.3,1.3-0.3,2-0.2c0.6,0.1,1.1,0.4,1.5,0.8
	C811.6,937.2,811.9,937.7,812,938.2z"/>
<path class="st2" d="M812,938.2c-0.1-0.6-0.4-1.1-0.8-1.5c-0.4-0.4-0.9-0.7-1.5-0.8c-0.4-0.1-0.8-0.1-1.2,0h0.3
	c0.7,0.2,1.4,0.6,1.8,1.2s0.7,1.3,0.6,2.1c0,0.7-0.3,1.4-0.8,2s-1.2,0.9-1.9,1c0.5,0.1,1,0,1.5-0.2c0.5-0.2,0.9-0.5,1.3-0.8
	c0.3-0.4,0.6-0.8,0.7-1.3C812.1,939.3,812.1,938.8,812,938.2L812,938.2z"/>
<path class="st9" d="M748.6,955.4l120.7,0.3v38.8l-120.7-0.3V955.4z"/>
<path class="st2" d="M864.5,990.3l-111-0.2v-29.6l111,0.2V990.3z M754.4,989.2l109.2,0.2v-27.8l-109.2-0.2V989.2z"/>
<path class="st10" d="M812,974.2c0.2,0.7,0.1,1.4-0.2,2c-0.3,0.6-0.8,1.2-1.4,1.5c-0.6,0.3-1.3,0.5-2,0.4c-0.7-0.1-1.3-0.4-1.8-0.9
	c-0.5-0.5-0.8-1.1-0.9-1.8c-0.1-0.7,0-1.4,0.4-2c0.3-0.6,0.9-1.1,1.5-1.4c0.6-0.3,1.3-0.3,2-0.2c0.6,0.1,1.1,0.4,1.5,0.8
	C811.6,973.2,811.9,973.7,812,974.2"/>
<path class="st2" d="M812,974.2c-0.1-0.6-0.4-1.1-0.8-1.5c-0.4-0.4-0.9-0.7-1.5-0.8c-0.4-0.1-0.8-0.1-1.2,0h0.3
	c0.7,0.2,1.4,0.6,1.8,1.2s0.7,1.3,0.6,2.1c0,0.7-0.3,1.4-0.8,2s-1.2,0.9-1.9,1c0.5,0.1,1,0,1.5-0.2c0.5-0.2,0.9-0.5,1.3-0.8
	c0.3-0.4,0.6-0.8,0.7-1.3C812.1,975.3,812.1,974.8,812,974.2L812,974.2z"/>
<path class="st2" d="M937.8,776.7H748.6v3.3h189.3V776.7z"/>
<path class="st2" d="M595.9,776.7h-68.6v3.3h68.6V776.7z"/>
<path class="st2" d="M576.4,868.9h-49.3v5.8h50.8L576.4,868.9z"/>
<path class="st2" d="M595.7,868.9h-14l-0.8,5.8h14.8V868.9z"/>
<path class="st9" d="M875.2,776.7v239.7h8.5v-21.9h40.6v21.9h13.5V776.7H875.2z"/>
<path class="st9" d="M533,776.8v239.6h8.7v-21.9h40.6v21.9h13.4V776.8H533z"/>
<path class="st2" d="M533,776.8v239.6h8.7v-21.9h40.6v21.9h13.4V776.8H533z"/>
<path class="st2" d="M875.2,776.7v239.7h8.5v-21.9h40.6v21.9h13.5V776.7H875.2z"/>
<path class="st9" d="M930,994.5h-5.7v21.9h5.7V994.5z"/>
<path class="st9" d="M588,994.5h-5.7v21.9h5.7V994.5z"/>
<path class="st11" d="M740.6,764h-28.8l-24.6-98.7H716L740.6,764z"/>
<path class="st2" d="M740.6,764h-28.8l-24.6-98.7H716L740.6,764z"/>
<path class="st11" d="M738.6,764h-28.8l-24.6-98.7H714L738.6,764z"/>
<path class="st2" d="M735.6,744h-30.9l-1.3-5.2h30.9L735.6,744z"/>
<path class="st11" d="M795.4,638H631.1v100.7h164.4V638z"/>
<path class="st12" d="M789.7,642.7H636.8v91.4h152.9V642.7z"/>
<path class="st11" d="M797.7,638h-2.3v100.8h2.3V638z"/>
<path class="st2" d="M797.7,638h-2.3v100.8h2.3V638z"/>
<path class="st11" d="M777,760H673.2v5.3H777V760z"/>
<path class="st1" d="M695.4,649.4H647v3.8h48.4V649.4z"/>
<path class="st1" d="M684,655.8h-37v3.8h37V655.8z"/>
<path class="st1" d="M691.2,662.3H647v3.8h44.2V662.3z"/>
<path class="st1" d="M682.8,668.8H647v3.8h35.8V668.8z"/>
<path class="st1" d="M699,675.3h-40.4v3.8H699V675.3z"/>
<path class="st1" d="M695.4,683.1h-36.8v3.8h36.8V683.1z"/>
<path class="st1" d="M684,689.5h-37v3.8h37V689.5z"/>
<path class="st1" d="M691.2,696H647v3.8h44.2V696z"/>
<path class="st1" d="M682.8,702.5H647v3.8h35.8V702.5z"/>
<path class="st1" d="M699,709h-52v3.8h52V709z"/>
<path class="st1" d="M707.1,716.4h-44.2v3.8h44.2V716.4z"/>
<path class="st1" d="M699,723.8h-52v3.8h52V723.8z"/>
<g class="st13">
	<path class="st2" d="M695.4,649.4H647v3.8h48.4V649.4z"/>
	<path class="st2" d="M684,655.8h-37v3.8h37V655.8z"/>
	<path class="st2" d="M691.2,662.3H647v3.8h44.2V662.3z"/>
	<path class="st2" d="M682.8,668.8H647v3.8h35.8V668.8z"/>
	<path class="st2" d="M699,675.3h-40.4v3.8H699V675.3z"/>
	<path class="st2" d="M695.4,683.1h-36.8v3.8h36.8V683.1z"/>
	<path class="st2" d="M684,689.5h-37v3.8h37V689.5z"/>
	<path class="st2" d="M691.2,696H647v3.8h44.2V696z"/>
	<path class="st2" d="M682.8,702.5H647v3.8h35.8V702.5z"/>
	<path class="st2" d="M699,709h-52v3.8h52V709z"/>
	<path class="st2" d="M707.1,716.4h-44.2v3.8h44.2V716.4z"/>
	<path class="st2" d="M699,723.8h-52v3.8h52V723.8z"/>
</g>
<path class="st1" d="M768,649.4h-48.4v3.8H768V649.4z"/>
<path class="st1" d="M756.6,655.8h-37v3.8h37V655.8z"/>
<path class="st1" d="M763.9,662.3h-44.2v3.8h44.2V662.3z"/>
<path class="st1" d="M755.4,668.8h-35.8v3.8h35.8V668.8z"/>
<path class="st1" d="M771.6,675.3h-40.4v3.8h40.4V675.3z"/>
<path class="st1" d="M768,683.1h-36.8v3.8H768V683.1z"/>
<path class="st1" d="M756.6,689.5h-37v3.8h37V689.5z"/>
<path class="st1" d="M763.9,696h-44.2v3.8h44.2V696z"/>
<path class="st1" d="M755.4,702.5h-35.8v3.8h35.8V702.5z"/>
<path class="st1" d="M771.6,709h-52v3.8h52V709z"/>
<path class="st1" d="M779.7,716.4h-44.2v3.8h44.2V716.4z"/>
<path class="st1" d="M771.6,723.8h-52v3.8h52V723.8z"/>
<g class="st13">
	<path class="st14" d="M768,649.4h-48.4v3.8H768V649.4z"/>
	<path class="st14" d="M756.6,655.8h-37v3.8h37V655.8z"/>
	<path class="st14" d="M763.9,662.3h-44.2v3.8h44.2V662.3z"/>
	<path class="st14" d="M755.4,668.8h-35.8v3.8h35.8V668.8z"/>
	<path class="st14" d="M771.6,675.3h-40.4v3.8h40.4V675.3z"/>
	<path class="st14" d="M768,683.1h-36.8v3.8H768V683.1z"/>
	<path class="st14" d="M756.6,689.5h-37v3.8h37V689.5z"/>
	<path class="st14" d="M763.9,696h-44.2v3.8h44.2V696z"/>
	<path class="st14" d="M755.4,702.5h-35.8v3.8h35.8V702.5z"/>
	<path class="st14" d="M771.6,709h-52v3.8h52V709z"/>
	<path class="st14" d="M779.7,716.4h-44.2v3.8h44.2V716.4z"/>
	<path class="st14" d="M771.6,723.8h-52v3.8h52V723.8z"/>
</g>
<path class="st4" d="M1239.4,442.4H931.9V676h307.5V442.4z"/>
<path class="st15" d="M1239.4,442.4H931.9V676h307.5V442.4z"/>
<path class="st4" d="M1222.4,455.4H914.9V689h307.5V455.4z"/>
<path class="st16" d="M1222.4,455.4H914.9V689h307.5V455.4z"/>
<path class="st4" d="M1206.4,472.4H898.9V706h307.5V472.4z"/>
<path class="st1" d="M1206.4,489H898.9v1.5h307.5V489z"/>
<path class="st6" d="M1206.4,489H899v1.5h307.4V489z"/>
<path class="st1" d="M1207.1,706.7h-309V471.7h309V706.7z M899.6,705.2h306V473.2h-306V705.2z"/>
<path class="st6" d="M1207.1,706.7h-309V471.7h309V706.7z M899.6,705.2h306V473.2h-306V705.2z"/>
<path class="st1" d="M909.3,481.1c0,0.4-0.1,0.8-0.3,1.2c-0.2,0.3-0.6,0.6-0.9,0.8c-0.4,0.2-0.8,0.2-1.2,0.1
	c-0.4-0.1-0.8-0.3-1.1-0.6c-0.3-0.3-0.5-0.7-0.6-1.1c-0.1-0.4,0-0.8,0.1-1.2c0.2-0.4,0.4-0.7,0.8-0.9c0.3-0.2,0.7-0.4,1.2-0.4
	c0.6,0,1.1,0.2,1.5,0.6C909,480,909.3,480.5,909.3,481.1L909.3,481.1z"/>
<path class="st1" d="M916.4,481.1c0,0.4-0.1,0.8-0.4,1.2c-0.2,0.3-0.6,0.6-0.9,0.8c-0.4,0.2-0.8,0.2-1.2,0.1
	c-0.4-0.1-0.8-0.3-1.1-0.6c-0.3-0.3-0.5-0.7-0.6-1.1c-0.1-0.4,0-0.8,0.1-1.2c0.2-0.4,0.4-0.7,0.8-0.9c0.3-0.2,0.7-0.4,1.2-0.4
	c0.6,0,1.1,0.2,1.5,0.6C916.2,480,916.4,480.5,916.4,481.1L916.4,481.1z"/>
<path class="st1" d="M923.4,481.1c0,0.4-0.1,0.8-0.4,1.2c-0.2,0.3-0.6,0.6-0.9,0.8c-0.4,0.2-0.8,0.2-1.2,0.1
	c-0.4-0.1-0.8-0.3-1.1-0.6c-0.3-0.3-0.5-0.7-0.6-1.1c-0.1-0.4,0-0.8,0.1-1.2c0.2-0.4,0.4-0.7,0.8-0.9c0.3-0.2,0.7-0.4,1.2-0.4
	c0.6,0,1.1,0.2,1.5,0.6C923.2,480,923.4,480.5,923.4,481.1L923.4,481.1z"/>
<path class="st6" d="M909.3,481.1c0,0.4-0.1,0.8-0.3,1.2c-0.2,0.3-0.6,0.6-0.9,0.8c-0.4,0.2-0.8,0.2-1.2,0.1
	c-0.4-0.1-0.8-0.3-1.1-0.6c-0.3-0.3-0.5-0.7-0.6-1.1c-0.1-0.4,0-0.8,0.1-1.2c0.2-0.4,0.4-0.7,0.8-0.9c0.3-0.2,0.7-0.4,1.2-0.4
	c0.6,0,1.1,0.2,1.5,0.6C909,480,909.3,480.5,909.3,481.1L909.3,481.1z"/>
<path class="st6" d="M916.4,481.1c0,0.4-0.1,0.8-0.4,1.2c-0.2,0.3-0.6,0.6-0.9,0.8c-0.4,0.2-0.8,0.2-1.2,0.1
	c-0.4-0.1-0.8-0.3-1.1-0.6c-0.3-0.3-0.5-0.7-0.6-1.1c-0.1-0.4,0-0.8,0.1-1.2c0.2-0.4,0.4-0.7,0.8-0.9c0.3-0.2,0.7-0.4,1.2-0.4
	c0.6,0,1.1,0.2,1.5,0.6C916.2,480,916.4,480.5,916.4,481.1L916.4,481.1z"/>
<path class="st6" d="M923.4,481.1c0,0.4-0.1,0.8-0.4,1.2c-0.2,0.3-0.6,0.6-0.9,0.8c-0.4,0.2-0.8,0.2-1.2,0.1
	c-0.4-0.1-0.8-0.3-1.1-0.6c-0.3-0.3-0.5-0.7-0.6-1.1c-0.1-0.4,0-0.8,0.1-1.2c0.2-0.4,0.4-0.7,0.8-0.9c0.3-0.2,0.7-0.4,1.2-0.4
	c0.6,0,1.1,0.2,1.5,0.6C923.2,480,923.4,480.5,923.4,481.1L923.4,481.1z"/>
<path class="st17" d="M923.3,526.1h-10.6v3.9h10.6V526.1z"/>
<path class="st17" d="M1088.4,526.1H931v3.9h157.4V526.1z"/>
<path class="st1" d="M1112.9,526.1h-18.5v3.9h18.5V526.1z"/>
<path class="st17" d="M1142.5,577.9H1124v3.9h18.5V577.9z"/>
<path class="st8" d="M1179.3,526.1h-62.4v3.9h62.4V526.1z"/>
<path class="st17" d="M933.9,536.4h-10.6v3.9h10.6V536.4z"/>
<path class="st8" d="M1013,536.4h-71.7v3.9h71.7V536.4z"/>
<path class="st8" d="M1119.6,577.9h-27.8v3.9h27.8V577.9z"/>
<path class="st8" d="M1007.2,567.5H931v3.9h76.2V567.5z"/>
<path class="st1" d="M994.8,546.8h-53.5v3.9h53.5V546.8z"/>
<path class="st8" d="M1155.9,557.2h-49.2v3.9h49.2V557.2z"/>
<path class="st8" d="M1119.2,546.8H1000v3.9h119.2V546.8z"/>
<path class="st1" d="M1085.5,577.9H931v3.9h154.5V577.9z"/>
<path class="st1" d="M1196,536.4h-81.2v3.9h81.2V536.4z"/>
<path class="st17" d="M1110.8,536.4h-92.4v3.9h92.4V536.4z"/>
<path class="st17" d="M1184.8,546.8h-31.5v3.9h31.5V546.8z"/>
<path class="st17" d="M933.9,546.8h-10.6v3.9h10.6V546.8z"/>
<path class="st8" d="M923.3,557.2h-10.6v3.9h10.6V557.2z"/>
<path class="st17" d="M993.7,557.2H931v3.9h62.7V557.2z"/>
<path class="st17" d="M1004,588.3h-62.7v3.9h62.7V588.3z"/>
<path class="st1" d="M1167.7,598.6h-74.2v3.9h74.2V598.6z"/>
<path class="st1" d="M1106.1,588.3H1009v3.9h97.1V588.3z"/>
<path class="st17" d="M1088.4,598.6H972v3.9h116.4V598.6z"/>
<path class="st8" d="M959.5,598.6h-18.1v3.9h18.1V598.6z"/>
<path class="st17" d="M1112.9,567.5H1013v3.9h99.9V567.5z"/>
<path class="st1" d="M1186.9,567.5h-70v3.9h70V567.5z"/>
<path class="st1" d="M1102.2,557.2H999v3.9h103.2V557.2z"/>
<path class="st17" d="M923.3,567.5h-10.6v3.9h10.6V567.5z"/>
<path class="st17" d="M923.3,577.9h-10.6v3.9h10.6V577.9z"/>
<path class="st8" d="M933.9,588.3h-10.6v3.9h10.6V588.3z"/>
<path class="st17" d="M933.9,598.6h-10.6v3.9h10.6V598.6z"/>
<path class="st17" d="M923.3,607.3h-10.6v3.9h10.6V607.3z"/>
<path class="st17" d="M1055.3,607.3H931v3.9h124.3V607.3z"/>
<path class="st17" d="M933.9,617.7h-10.6v3.9h10.6V617.7z"/>
<path class="st8" d="M1021.2,617.7h-79.8v3.9h79.8V617.7z"/>
<path class="st8" d="M1007.2,648.8H931v3.9h76.2V648.8z"/>
<path class="st1" d="M994.8,628h-53.5v3.9h53.5V628z"/>
<path class="st8" d="M1119.2,628H1000v3.9h119.2V628z"/>
<path class="st1" d="M1085.5,659.1H931v3.9h154.5V659.1z"/>
<path class="st1" d="M1196,617.7h-81.2v3.9h81.2V617.7z"/>
<path class="st17" d="M1110.8,617.7H1026v3.9h84.8V617.7z"/>
<path class="st17" d="M1184.8,628h-31.5v3.9h31.5V628z"/>
<path class="st17" d="M933.9,628h-10.6v3.9h10.6V628z"/>
<path class="st8" d="M923.3,638.4h-10.6v3.9h10.6V638.4z"/>
<path class="st17" d="M993.7,638.4H931v3.9h62.7V638.4z"/>
<path class="st17" d="M1112.9,648.8H1012v3.9h100.9V648.8z"/>
<path class="st1" d="M1102.2,638.4H999v3.9h103.2V638.4z"/>
<path class="st17" d="M923.3,648.8h-10.6v3.9h10.6V648.8z"/>
<path class="st1" d="M922.9,516.3l3.6-8.5c0-0.1,0.1-0.2,0.2-0.3c0.1-0.1,0.2-0.1,0.3-0.2c0.1,0,0.2-0.1,0.3-0.1
	c0.1,0,0.2,0,0.3,0.1c0.2,0.1,0.3,0.2,0.4,0.4c0.1,0.2,0.1,0.4,0,0.6l-3.6,8.5c-0.1,0.1-0.2,0.3-0.3,0.3c-0.1,0.1-0.3,0.1-0.4,0.1
	c-0.1,0-0.2,0-0.3-0.1c-0.1,0-0.2-0.1-0.3-0.2s-0.1-0.2-0.2-0.3c0-0.1-0.1-0.2-0.1-0.3C922.9,516.5,922.9,516.4,922.9,516.3
	L922.9,516.3z"/>
<path class="st1" d="M935,512.9c0,0-0.1,0.1-0.1,0.1l-4.1,4.2c-0.2,0.2-0.4,0.3-0.7,0.3c-0.2,0-0.5-0.1-0.7-0.3
	c-0.1-0.1-0.2-0.2-0.2-0.3c0-0.1-0.1-0.2-0.1-0.4c0-0.1,0-0.2,0.1-0.4c0-0.1,0.1-0.2,0.2-0.3l3.4-3.5l-3.4-3.5
	c-0.1-0.1-0.2-0.2-0.2-0.3c0-0.1-0.1-0.2-0.1-0.4c0-0.1,0-0.2,0.1-0.4c0-0.1,0.1-0.2,0.2-0.3c0.2-0.2,0.4-0.3,0.7-0.3
	s0.5,0.1,0.7,0.3l4.1,4.1c0,0,0.1,0.1,0.1,0.1l0,0c0,0,0.1,0.1,0.1,0.1l0,0c0,0,0,0.1,0,0.1c0,0,0,0,0,0v0.1c0,0,0,0,0,0.1v0.2
	c0,0,0,0.1,0,0.1l0,0C935.1,512.7,935,512.8,935,512.9z"/>
<path class="st1" d="M923.9,681.3l3.6-8.5c0-0.1,0.1-0.2,0.2-0.3c0.1-0.1,0.2-0.1,0.3-0.2c0.1,0,0.2-0.1,0.3-0.1
	c0.1,0,0.2,0,0.3,0.1c0.2,0.1,0.3,0.2,0.4,0.4c0.1,0.2,0.1,0.4,0,0.6l-3.6,8.5c-0.1,0.1-0.2,0.3-0.3,0.3c-0.1,0.1-0.3,0.1-0.4,0.1
	c-0.1,0-0.2,0-0.3-0.1c-0.1,0-0.2-0.1-0.3-0.2s-0.1-0.2-0.2-0.3c0-0.1-0.1-0.2-0.1-0.3C923.9,681.5,923.9,681.4,923.9,681.3
	L923.9,681.3z"/>
<path class="st1" d="M936,677.9c0,0-0.1,0.1-0.1,0.1l-4.1,4.2c-0.2,0.2-0.4,0.3-0.7,0.3c-0.2,0-0.5-0.1-0.7-0.3
	c-0.1-0.1-0.2-0.2-0.2-0.3c0-0.1-0.1-0.2-0.1-0.4c0-0.1,0-0.2,0.1-0.4c0-0.1,0.1-0.2,0.2-0.3l3.4-3.5l-3.4-3.5
	c-0.1-0.1-0.2-0.2-0.2-0.3c0-0.1-0.1-0.2-0.1-0.4c0-0.1,0-0.2,0.1-0.4c0-0.1,0.1-0.2,0.2-0.3c0.2-0.2,0.4-0.3,0.7-0.3
	s0.5,0.1,0.7,0.3l4.1,4.2c0,0,0.1,0.1,0.1,0.1l0,0c0,0,0.1,0.1,0.1,0.1l0,0c0,0,0,0.1,0,0.1c0,0,0,0,0,0v0.1c0,0,0,0,0,0.1v0.2
	c0,0,0,0.1,0,0.1l0,0C936.1,677.7,936,677.8,936,677.9L936,677.9z"/>
<path class="st18" d="M1112.9,526.1h-18.5v3.9h18.5V526.1z"/>
<path class="st18" d="M994.8,546.8h-53.5v3.9h53.5V546.8z"/>
<path class="st18" d="M1085.5,577.9H931v3.9h154.5V577.9z"/>
<path class="st18" d="M1196,536.4h-81.2v3.9h81.2V536.4z"/>
<path class="st18" d="M1167.7,598.6h-74.2v3.9h74.2V598.6z"/>
<path class="st18" d="M1106.1,588.3H1009v3.9h97.1V588.3z"/>
<path class="st18" d="M1186.9,567.5h-70v3.9h70V567.5z"/>
<path class="st18" d="M1102.2,557.2H999v3.9h103.2V557.2z"/>
<path class="st18" d="M994.8,628h-53.5v3.9h53.5V628z"/>
<path class="st18" d="M1085.5,659.1H931v3.9h154.5V659.1z"/>
<path class="st18" d="M1196,617.7h-81.2v3.9h81.2V617.7z"/>
<path class="st18" d="M1102.2,638.4H999v3.9h103.2V638.4z"/>
<g class="st19">
	<path class="st18" d="M922.9,516.3l3.6-8.5c0-0.1,0.1-0.2,0.2-0.3c0.1-0.1,0.2-0.1,0.3-0.2c0.1,0,0.2-0.1,0.3-0.1
		c0.1,0,0.2,0,0.3,0.1c0.2,0.1,0.3,0.2,0.4,0.4c0.1,0.2,0.1,0.4,0,0.6l-3.6,8.5c-0.1,0.1-0.2,0.3-0.3,0.3c-0.1,0.1-0.3,0.1-0.4,0.1
		c-0.1,0-0.2,0-0.3-0.1c-0.1,0-0.2-0.1-0.3-0.2s-0.1-0.2-0.2-0.3c0-0.1-0.1-0.2-0.1-0.3C922.9,516.5,922.9,516.4,922.9,516.3
		L922.9,516.3z"/>
	<path class="st18" d="M935,512.9c0,0-0.1,0.1-0.1,0.1l-4.1,4.2c-0.2,0.2-0.4,0.3-0.7,0.3c-0.2,0-0.5-0.1-0.6-0.3
		c-0.1-0.1-0.2-0.2-0.2-0.3c0-0.1-0.1-0.2-0.1-0.4c0-0.1,0-0.2,0.1-0.4c0-0.1,0.1-0.2,0.2-0.3l3.4-3.5l-3.4-3.5
		c-0.1-0.1-0.2-0.2-0.2-0.3c0-0.1-0.1-0.2-0.1-0.4c0-0.1,0-0.2,0.1-0.4c0-0.1,0.1-0.2,0.2-0.3c0.2-0.2,0.4-0.3,0.6-0.3
		c0.2,0,0.5,0.1,0.7,0.3l4.1,4.1c0,0,0.1,0.1,0.1,0.1l0,0c0,0,0,0.1,0.1,0.1l0,0c0,0,0,0.1,0,0.1c0,0,0,0,0,0v0.1c0,0,0,0,0,0.1v0.2
		c0,0,0,0.1,0,0.1l0,0C935.1,512.7,935,512.8,935,512.9z"/>
</g>
<g class="st19">
	<path class="st18" d="M923.9,681.3l3.6-8.5c0-0.1,0.1-0.2,0.2-0.3c0.1-0.1,0.2-0.1,0.3-0.2c0.1,0,0.2-0.1,0.3-0.1
		c0.1,0,0.2,0,0.3,0.1c0.2,0.1,0.3,0.2,0.4,0.4c0.1,0.2,0.1,0.4,0,0.6l-3.6,8.5c-0.1,0.1-0.2,0.3-0.3,0.3c-0.1,0.1-0.3,0.1-0.4,0.1
		c-0.1,0-0.2,0-0.3-0.1c-0.1,0-0.2-0.1-0.3-0.2s-0.1-0.2-0.2-0.3c0-0.1-0.1-0.2-0.1-0.3C923.9,681.5,923.9,681.4,923.9,681.3
		L923.9,681.3z"/>
	<path class="st18" d="M936,677.9c0,0-0.1,0.1-0.1,0.1l-4.1,4.2c-0.2,0.2-0.4,0.3-0.7,0.3c-0.2,0-0.5-0.1-0.6-0.3
		c-0.1-0.1-0.2-0.2-0.2-0.3c0-0.1-0.1-0.2-0.1-0.4c0-0.1,0-0.2,0.1-0.4c0-0.1,0.1-0.2,0.2-0.3l3.4-3.5l-3.4-3.5
		c-0.1-0.1-0.2-0.2-0.2-0.3c0-0.1-0.1-0.2-0.1-0.4c0-0.1,0-0.2,0.1-0.4c0-0.1,0.1-0.2,0.2-0.3c0.2-0.2,0.4-0.3,0.6-0.3
		c0.2,0,0.5,0.1,0.7,0.3l4.1,4.2c0,0,0.1,0.1,0.1,0.1l0,0c0,0,0,0.1,0.1,0.1l0,0c0,0,0,0.1,0,0.1c0,0,0,0,0,0v0.1c0,0,0,0,0,0.1v0.2
		c0,0,0,0.1,0,0.1l0,0C936.1,677.7,936,677.8,936,677.9L936,677.9z"/>
</g>
<path class="st20" d="M668.3,943.2c-3.4,9.3-7.8,19.4-9.4,26.4c-0.6,2.4-0.7,4.9,0.7,6.9l19.9,30.1c6.4,16.4-34-19.3-38.7-21.2
	l-1.4-0.6c-5.3-2.2-21.4-8.3-13.7-17.7l5.3-8.5c2.5-4.7,6.4-17,8.8-23.6L668.3,943.2z"/>
<path class="st21" d="M654.7,926.6l-2.8-10.4l-12.3,18.9c-2.4,6.6-5.9,18.6-8.4,23.4l-5.3,8.5c-2.6,3.2-2.6,5.9-1.3,8.2l6.1,2.9
	C642.5,954.4,654.7,926.6,654.7,926.6z"/>
<path class="st20" d="M635.3,979.2c0.4,0,0.7-0.2,1-0.4c0.3-0.3,0.4-0.6,0.4-1c0-0.4-0.2-0.7-0.4-1c-0.3-0.3-0.6-0.4-1-0.4
	s-0.7,0.2-1,0.4c-0.3,0.3-0.4,0.6-0.4,1c0,0.4,0.2,0.7,0.4,1C634.6,979,634.9,979.2,635.3,979.2L635.3,979.2z"/>
<path class="st11" d="M561.7,792.2h149.2c3.6,0,7.2,0.9,10.4,2.7c3.2,1.8,5.8,4.3,7.7,7.5c1.9,3.1,2.9,6.6,3.1,10.3
	c0.1,3.6-0.7,7.2-2.4,10.5l-67.8,143.3l-30.2-13.7l35.5-109.5h-84.6L561.7,792.2z"/>
<path class="st22" d="M561.7,792.2h138.9c1.5,0,3,0.4,4.3,1.1c1.3,0.7,2.4,1.7,3.3,3s1.3,2.7,1.5,4.2c0.1,1.5-0.1,3-0.7,4.4
	l-1.9,4.4l0.7,1c3.5,5,5,12.9,6.1,19.3l3,17c0,0.1,0,0.2,0,0.3c0,0.1-0.1,0.2-0.1,0.2c0,0.1-0.1,0.1-0.2,0.2c-0.1,0-0.2,0.1-0.2,0.1
	h-0.1c-0.2,0-0.3-0.1-0.4-0.2c-0.1-0.1-0.2-0.2-0.2-0.4l-3-16.9c-1.1-6.4-2.7-14.2-6.2-19.1l-61.6,147.7l-13.2-5.7l35.5-109.5h-84.6
	L561.7,792.2z"/>
<path class="st20" d="M733.6,958.2c2.1,9.7,3.9,20.5,6.3,27.3c0.8,2.3,2,4.5,4.3,5.4l33,14.6c14.3,10.4-39,2.2-44,3l-1.5,0.2
	c-5.6,1-22.5,4.5-21.1-7.5l-0.1-10.1c-0.4-5.4-3.8-17.8-5.4-24.6L733.6,958.2z"/>
<path class="st21" d="M713.2,951.6l-8-7.2L705,967c1.6,6.8,5.1,18.9,5.5,24.2l0.1,10.1c-0.5,4.1,1,6.4,3.3,7.6l6.7-0.8
	C717.9,981.6,713.2,951.6,713.2,951.6z"/>
<path class="st20" d="M724.4,1006.5c0.4,0,0.7-0.2,1-0.4c0.3-0.3,0.4-0.6,0.4-1c0-0.4-0.2-0.8-0.4-1c-0.3-0.3-0.6-0.4-1-0.4
	c-0.4,0-0.7,0.1-1,0.4c-0.3,0.3-0.4,0.6-0.4,1c0,0.4,0.2,0.8,0.4,1C723.7,1006.4,724,1006.5,724.4,1006.5L724.4,1006.5z"/>
<path class="st11" d="M514.7,823.5l2.9,3.1c5,5.3,11.1,9.6,17.8,12.5s14,4.5,21.3,4.6l108,1.4l42.6,138.3L740,977l-29.2-156
	c-1-5.5-3.8-10.6-7.9-14.4c-4.1-3.8-9.3-6.3-14.9-6.9l-98.6-11.4L514.7,823.5z"/>
<path class="st22" d="M539.7,811.7c9.1,12.9,28.6,17.7,43.5,17.9l85.9,2.6c2.9,0.1,5.6,1.1,7.9,2.9c2.3,1.8,3.9,4.2,4.6,7L718,981
	l-10.8,2.4L664.7,845l-103.8-1.3c-8.7-0.1-17.2-2-25.1-5.4c-7.9-3.5-15.1-8.5-21.1-14.8L539.7,811.7z"/>
<path class="st1" d="M521.3,674.5l-38.7,63.2c-1.3,2.1-2,4.4-2,6.9s0.6,4.8,1.7,6.9c1.2,2.1,2.9,3.9,5,5.1c2.1,1.2,4.5,1.9,6.9,1.9
	h40.2L521.3,674.5z"/>
<path class="st20" d="M593.3,614.2l3.4,20.2c0.2,1,5.6,5.8,5.5,7.5c0,0.8-0.3,1.7-0.8,2.3c-0.5,0.7-1.3,1.1-2.1,1.3
	c-1.3,0.3-1.7,0.1-1.7,0.1l-2.5,10.7c-1.2,5.7-4.9,10.3-12.1,9l-6.6-1l-7.1,17l-26.6-19.7l7.3-21.8l9.3-30.9L593.3,614.2z"/>
<path d="M545.3,607.7c3.3-6.5,7.6-8.8,14.2-8.4c0.5,0,1-0.2,1.5-0.5c0.4-0.3,0.8-0.7,1-1.2c1.3-2.2,4.6-6.1,11.8-5.7
	c2,0,4,0.6,5.8,1.6c1.8,1,3.2,2.5,4.3,4.2c0.4,0.7,1.1,1.2,1.9,1.4c0.8,0.2,1.6,0.2,2.4-0.2c1.5-0.7,3.2-1,4.9-0.8
	c1.7,0.1,3.3,0.7,4.7,1.7c7.4,4.7,4.4,17.5-3.6,18.7l-6.3,0.6c-0.6,0.1-1.1,0.3-1.5,0.7c-0.4,0.4-0.7,1-0.7,1.5
	c-0.1,1.1-0.4,2.2-0.9,3.2c-0.8,1.7-2.2,3-3.8,3.9c-1.6,0.9-3.5,1.3-5.4,1.1c-0.2,0-0.4,0-0.6,0.1s-0.4,0.2-0.5,0.3
	c-0.1,0.1-0.3,0.3-0.3,0.5c-0.1,0.2-0.1,0.4-0.1,0.6l0.1,7.1c0,0.4-0.1,0.7-0.3,1.1c-0.2,0.3-0.5,0.6-0.8,0.7
	c-0.2,0.1-0.5,0.2-0.8,0.2c-0.3,0-0.5,0-0.8-0.2c-0.2-0.1-0.5-0.3-0.6-0.4c-0.2-0.2-0.3-0.4-0.4-0.7l-1.5-4.7
	c-0.3-0.8-0.8-1.5-1.4-2c-0.7-0.5-1.4-0.8-2.3-0.9l-1.9-0.2c-1.8,2.7-3.5,5.8-5,8.1c-1,1.6-2.3,3.1-3.7,4.3
	c-2.7,2.1-4.8,1.4-6.2-1.4c0,0-8.4-17.8-4.5-31C544.4,610,544.8,608.9,545.3,607.7"/>
<path class="st21" d="M554.7,643.5l5.3,0.6l0.6,0.3c1.8,0.9,4.9,2.1,7.4,1.4c0.2-0.1,0.3-0.2,0.4-0.3c0.1-0.2,0.1-0.4,0.1-0.5
	c-0.1-0.2-0.2-0.3-0.3-0.4c-0.2-0.1-0.3-0.1-0.5-0.1c-0.4,0.1-0.8,0.2-1.3,0.2l-7.8-5.4C557.4,640.9,556.1,642.3,554.7,643.5"/>
<path class="st20" d="M566.3,630.4c-0.3-0.6-0.7-1.2-1.3-1.7c-0.5-0.5-1.2-0.8-1.9-1c-0.7-0.2-1.4-0.2-2.1-0.1
	c-0.7,0.1-1.4,0.4-1.9,0.8c-5.6,3.2-3,16.5,7.1,16.2c5.3-0.2,3.9-3.1,2.5-7L566.3,630.4z"/>
<path class="st21" d="M559.2,632c0.4-0.4,0.8-0.6,1.3-0.8c0.5-0.2,1-0.3,1.5-0.2c0.5,0.1,1,0.3,1.4,0.5c0.4,0.3,0.8,0.6,1.1,1.1
	c0.8,1,1.2,2.3,1.4,3.5l0.2,1.2c0,0.2,0,0.3-0.1,0.5c-0.1,0.1-0.2,0.2-0.4,0.2c-0.1,0-0.2,0-0.2,0c-0.1,0-0.2-0.1-0.2-0.1
	c-0.1,0-0.1-0.1-0.2-0.2c0-0.1-0.1-0.1-0.1-0.2l-0.2-1.2c-0.1-1.1-0.5-2.1-1.1-3c-0.4-0.6-1-1-1.6-1.1c-0.3,0-0.7,0.1-1,0.2
	c-0.3,0.1-0.6,0.3-0.9,0.6c-0.1,0.1-0.3,0.2-0.4,0.1c-0.2,0-0.3-0.1-0.4-0.2c-0.1-0.1-0.2-0.3-0.1-0.4S559.1,632.1,559.2,632"/>
<path class="st1" d="M514.7,823.5c19.6,1.7,39.1-4.4,54.2-17l20.2-16.8l-20.2-48.8l31.5-34.9l-1.5-4.5c-2.4-7.3-7.5-13.6-14.1-17.5
	l-7.7-4.6l-2.2-8.5l-29.8-19l-4.9,8.9c-7.1,2.1-13.3,6.3-18,12.1c-4.6,5.8-7.4,12.8-7.9,20.1l-7.3,78.9c-0.9,12.7-1.2,24.5,2.1,38.5
	c0.7,3,1.8,5.9,3.3,8.6L514.7,823.5z"/>
<path class="st2" d="M589.1,789.7l-21.6-52.2c0-0.1-0.1-0.2-0.2-0.3c-0.1-0.1-0.2-0.2-0.3-0.2c-0.1-0.1-0.2-0.1-0.4-0.1
	c-0.1,0-0.3,0-0.4,0c-0.1,0-0.2,0.1-0.3,0.2c-0.1,0.1-0.2,0.2-0.2,0.3c-0.1,0.1-0.1,0.2-0.1,0.4c0,0.1,0,0.3,0,0.4l15.9,57.4
	L589.1,789.7z"/>
<path class="st2" d="M577,680.2c0.1,0,0.3,0,0.4-0.1c0.1-0.1,0.2-0.2,0.3-0.3c0.1-0.2,0.1-0.4,0.1-0.6c-0.1-0.2-0.2-0.4-0.4-0.5
	L545.7,661c-0.1-0.1-0.2-0.1-0.3-0.1c-0.1,0-0.2,0-0.3,0c-0.1,0-0.2,0.1-0.3,0.1c-0.1,0.1-0.1,0.1-0.2,0.2c-0.1,0.1-0.1,0.2-0.1,0.3
	c0,0.1,0,0.2,0,0.3c0,0.1,0.1,0.2,0.1,0.3c0.1,0.1,0.1,0.1,0.2,0.2l31.7,17.8C576.7,680.2,576.9,680.3,577,680.2"/>
<path class="st2" d="M514.7,690.7l-14.4,67.7h7.8l7.5-67.6c0-0.1,0-0.2-0.1-0.3c-0.1-0.1-0.2-0.2-0.3-0.2c-0.1,0-0.2,0-0.3,0.1
	C514.8,690.5,514.7,690.6,514.7,690.7z"/>
<path class="st21" d="M576.5,664.3l-4.2-0.8c-0.2,0-0.5,0-0.7,0.1c-0.2,0.1-0.4,0.3-0.5,0.5c-0.1,0.2-0.2,0.4-0.1,0.7
	c0,0.2,0.1,0.5,0.3,0.6l3.4,2.9L576.5,664.3z"/>
<path class="st20" d="M672.2,748l-56.9,11.9l-4-14.2l-34.4,13.9l9,26.8c3.2,6.5,7.9,10.9,15.8,10.5c11.9-0.6,92.3-38,92.3-38
	l-6.2-13.4l-10.7,1.4"/>
<path d="M593,633.4c0.4-1.3,0-2.5-1.1-2.8c-1.1-0.3-2.1,0.3-2.6,1.4c-0.5,1.2,0,2.5,1.1,2.9c0.3,0.1,0.5,0.1,0.8,0.1
	c0.3,0,0.5-0.1,0.8-0.3c0.2-0.1,0.4-0.3,0.6-0.5C592.8,633.9,592.9,633.6,593,633.4L593,633.4z"/>
<path class="st4" d="M592.6,633.6c0-0.1,0-0.2-0.1-0.3c-0.1-0.1-0.2-0.1-0.3-0.2c-0.1,0-0.2,0-0.3,0.1c-0.1,0.1-0.1,0.2-0.2,0.3
	c0,0.1,0,0.2,0.1,0.3c0.1,0.1,0.2,0.1,0.3,0.2c0.1,0,0.2,0,0.3-0.1C592.5,633.8,592.6,633.7,592.6,633.6L592.6,633.6z"/>
<path d="M595.6,627.5c-0.2,0.4-1.9-0.1-3.9-0.3c-2-0.2-3.7,0-3.9-0.4c-0.1-0.2,0.3-0.5,1-0.8c1-0.3,2-0.5,3.1-0.4
	c1,0.1,2,0.4,2.9,0.9C595.4,626.9,595.7,627.3,595.6,627.5z"/>
<path class="st4" d="M596.6,650.5c-1.6,0.2-3.2,0.1-4.8-0.2c-0.4-0.1-0.4,0.4-0.2,0.8c1.1,1.3,2.6,2.2,4.3,2.5L596.6,650.5z"/>
<path class="st20" d="M720,756c0,0-16.3,2.9-25.6,2.1L693,753l15.7-0.9L720,756z"/>
<path class="st21" d="M720,756c0,0-16.3,2.9-25.6,2.1L693,753l15.7-0.9L720,756z"/>
<path class="st20" d="M708.9,747.8l11.1,2.5l6.8,13.1c0.2,0.3,0.2,0.7,0.1,1l0,0c0,0.2-0.1,0.4-0.2,0.5c-0.1,0.2-0.3,0.3-0.4,0.4
	c-0.2,0.1-0.4,0.2-0.6,0.2c-0.2,0-0.4,0-0.6,0l0,0c-0.7-0.1-1.2-0.5-1.6-1.1l-5.8-9.2l-5.1-1.3L708.9,747.8z"/>
<path class="st20" d="M731.8,759.2c0,0.2,0,0.5-0.1,0.7c-0.1,0.2-0.2,0.4-0.4,0.6c-0.2,0.2-0.4,0.3-0.6,0.4
	c-0.2,0.1-0.5,0.2-0.7,0.2l0,0c-0.6,0-1.2-0.1-1.7-0.5l-4.5-3l-3.8-7.4l11,7.5c0.2,0.2,0.5,0.4,0.6,0.6
	C731.7,758.6,731.8,758.9,731.8,759.2L731.8,759.2z"/>
<path class="st21" d="M720.6,759.9l-2.4-6.3l-9.3-5.7l3.7,6.1l5.1,1.3L720.6,759.9z"/>
<path class="st20" d="M719.9,750.3l13.2,2.9c0.2,0.1,0.4,0.2,0.6,0.3c0.2,0.2,0.3,0.4,0.4,0.6l0,0c0.1,0.3,0.1,0.7,0,1
	c-0.1,0.3-0.4,0.5-0.7,0.7h-0.1c-0.3,0.1-0.6,0.2-0.9,0.1l-5.7-1L719.9,750.3z"/>
<path class="st21" d="M725.7,758.9l-5.7-8.6l3.8,7.4L725.7,758.9z"/>
<path class="st21" d="M728.9,755.4l-2.1-0.5l-6.3-4.5l1.1,0.2L728.9,755.4z"/>
<path class="st20" d="M677,747l2,4.2l7.9,9.6c0.7,1.2,1.6,2.3,2.8,3c1.2,0.7,2.5,1.2,3.9,1.3c3.8,0.2,7.7,0.9,11.3,2
	c0.3,0.1,0.5,0.1,0.8,0c0.3-0.1,0.5-0.2,0.7-0.4c0.3-0.3,0.5-0.8,0.5-1.3s-0.2-0.9-0.5-1.3l-0.1-0.1c-1.2-1.3-2.8-2.2-4.5-2.7
	l-4.7-1.5c-0.6-0.2-0.9-1.2-0.9-1.8c0-0.3,0.1-0.6,0.3-0.8c0.2-0.2,0.5-0.4,0.8-0.4l7.4-2.1c0.4-0.1,0.9-0.1,1.3,0
	c0.4,0.1,0.9,0.3,1.2,0.6l3.8,2.8l3.4,8.9c0.1,0.2,0.2,0.4,0.4,0.6c0.2,0.2,0.4,0.3,0.6,0.3h0.1c0.4,0.1,0.8,0,1.1-0.2
	c0.3-0.2,0.6-0.5,0.7-0.9l0,0c0-0.2,0-0.4,0-0.6l-2.3-10.9l-4-7l-15.2-3.5c-1-0.2-2-0.3-3-0.2L677,747z"/>
<path class="st1" d="M612.1,747.7L600.3,706l-31.4,34.8l9.4,22.7L612.1,747.7z"/>
<path class="st21" d="M615.7,760l-6.8,2.1c-0.1,0.1-0.3,0.1-0.5,0c-0.2,0-0.3-0.1-0.4-0.3c-0.1-0.1-0.1-0.3-0.1-0.4
	c0-0.2,0.1-0.3,0.2-0.4l6.4-5.2L615.7,760z"/>
<path class="st1" d="M708.5,989.7v20.3c0,0.8,0.2,1.6,0.5,2.3c0.3,0.7,0.7,1.4,1.3,1.9c0.6,0.6,1.2,1,1.9,1.3
	c0.7,0.3,1.5,0.4,2.3,0.4h69c0.7,0,1.3-0.3,1.8-0.7c0.5-0.5,0.7-1.1,0.7-1.8c0-2.4-0.8-4.7-2.1-6.6c-1.4-1.9-3.3-3.3-5.6-4.1
	l-15.6-5.1L743,982.3c-1-0.8-2.2-1.2-3.5-1.1c-1.3,0-2.5,0.5-3.4,1.3l-8.8,7.5c-0.6,0.5-1.4,0.9-2.2,1.1c-0.8,0.2-1.7,0.1-2.5-0.1
	l-11.1-3.4c-0.4-0.1-0.7-0.1-1.1-0.1c-0.4,0.1-0.7,0.2-1,0.4c-0.3,0.2-0.5,0.5-0.7,0.8C708.6,989,708.5,989.3,708.5,989.7z"/>
<path class="st1" d="M714.5,1016h69c0.7,0,1.3-0.3,1.8-0.7c0.5-0.5,0.7-1.1,0.7-1.8c0-0.8-0.1-1.7-0.3-2.5h-77c0.2,1.4,1,2.6,2,3.5
	C711.7,1015.5,713.1,1016,714.5,1016z"/>
<path class="st23" d="M714.5,1016h69c0.7,0,1.3-0.3,1.8-0.7c0.5-0.5,0.7-1.1,0.7-1.8c0-0.8-0.1-1.7-0.3-2.5h-77c0.2,1.4,1,2.6,2,3.5
	C711.7,1015.5,713.1,1016,714.5,1016z"/>
<path class="st4" d="M742.6,990.4c-0.2,0-0.3-0.1-0.4-0.2c-0.1-0.1-0.2-0.3-0.2-0.4c0-0.2,0.1-0.3,0.2-0.4l4.2-4.5
	c0.1-0.1,0.3-0.2,0.4-0.2c0.2,0,0.3,0.1,0.4,0.2c0.1,0.1,0.2,0.3,0.2,0.4c0,0.2-0.1,0.3-0.2,0.4l-4.2,4.5
	C742.9,990.3,742.7,990.4,742.6,990.4L742.6,990.4z"/>
<path class="st4" d="M745.9,993c-0.2,0-0.3-0.1-0.4-0.2c-0.1-0.1-0.2-0.3-0.2-0.4c0-0.2,0.1-0.3,0.2-0.4l4.2-4.5
	c0.1-0.1,0.3-0.2,0.4-0.2c0.2,0,0.3,0.1,0.4,0.2c0.1,0.1,0.2,0.3,0.2,0.4c0,0.2-0.1,0.3-0.2,0.4l-4.2,4.5
	C746.2,992.9,746,993,745.9,993z"/>
<path class="st4" d="M749.1,995.6c-0.1,0-0.3-0.1-0.4-0.2c-0.1-0.1-0.2-0.3-0.2-0.4c0-0.2,0.1-0.3,0.2-0.4l4.2-4.5
	c0.1-0.1,0.1-0.1,0.2-0.1c0.1,0,0.2,0,0.2,0c0.1,0,0.2,0,0.2,0c0.1,0,0.1,0.1,0.2,0.1c0.1,0.1,0.1,0.1,0.1,0.2c0,0.1,0,0.2,0,0.2
	c0,0.1,0,0.2,0,0.2c0,0.1-0.1,0.1-0.1,0.2l-4.2,4.5c-0.1,0.1-0.1,0.1-0.2,0.1C749.3,995.6,749.2,995.6,749.1,995.6z"/>
<path class="st1" d="M628.7,959l-9.9,17.7c-0.4,0.7-0.6,1.4-0.7,2.2c-0.1,0.8,0,1.6,0.2,2.3c0.2,0.8,0.6,1.5,1.1,2.1
	c0.5,0.6,1.1,1.1,1.8,1.5l54.5,30.4l5.8,0.2c2.6-0.4,3.9-0.2,4.6-1.4c2.3-4.2,0.5-6.1-2.7-9.6l-11.1-12.1l-9.8-23
	c-0.5-1.2-1.4-2.1-2.5-2.7c-1.1-0.6-2.4-0.8-3.6-0.5l-11.3,2.2c-0.8,0.2-1.7,0.1-2.4-0.1s-1.5-0.7-2.1-1.3l-8-8.4
	c-0.3-0.3-0.6-0.4-0.9-0.6c-0.3-0.1-0.7-0.1-1.1-0.1c-0.4,0.1-0.7,0.2-1,0.4C629.2,958.4,628.9,958.7,628.7,959z"/>
<path class="st23" d="M686.8,1012.1l-8.5-1.2l-59.8-33.4c-0.5,1.3-0.4,2.8,0,4.1c0.5,1.3,1.4,2.4,2.7,3.1l54.5,30.4l5.7,0.2
	c1.2,0,2.4-0.2,3.5-0.6c0.6-0.3,1.1-0.8,1.4-1.4C686.5,1013,686.6,1012.6,686.8,1012.1L686.8,1012.1z"/>
<path class="st4" d="M658.1,976.2c-0.1-0.1-0.2-0.2-0.3-0.3c0-0.2,0-0.3,0.1-0.5c0.1-0.1,0.2-0.2,0.4-0.3l5.8-1.9
	c0.2,0,0.3,0,0.5,0.1c0.1,0.1,0.2,0.2,0.3,0.4c0,0.2,0,0.3-0.1,0.5c-0.1,0.1-0.2,0.3-0.4,0.3l-5.8,1.9
	C658.4,976.3,658.3,976.2,658.1,976.2L658.1,976.2z"/>
<path class="st4" d="M659.8,980c-0.1-0.1-0.2-0.2-0.3-0.3c0-0.2,0-0.3,0.1-0.5c0.1-0.1,0.2-0.2,0.4-0.3l5.8-1.9c0.2,0,0.3,0,0.5,0.1
	c0.1,0.1,0.3,0.2,0.3,0.4c0,0.2,0,0.3-0.1,0.5c-0.1,0.1-0.2,0.3-0.4,0.3l-5.8,1.9C660.1,980.1,659.9,980.1,659.8,980z"/>
<path class="st4" d="M661.4,983.9c-0.1-0.1-0.2-0.2-0.3-0.3c0-0.2,0-0.3,0.1-0.5c0.1-0.1,0.2-0.3,0.4-0.3l5.9-1.9
	c0.2,0,0.3,0,0.5,0.1c0.1,0.1,0.2,0.2,0.3,0.4c0,0.2,0,0.3-0.1,0.5c-0.1,0.1-0.2,0.2-0.4,0.3l-5.8,1.9c-0.1,0-0.2,0-0.3,0
	S661.4,983.9,661.4,983.9L661.4,983.9z"/>
<path class="st8" d="M459.1,1015.6l27.1-150.2c0.5-3.6-1.1-5.8,2.5-5.8h59.6c1.8,0.1,3.6,0.8,5,2c1.4,1.2,2.3,2.8,2.7,4.6
	l20.8,150.3h7.7l-19.7-151.1c-0.9-6.1-8.9-11-15-11h-62.6c-3.1,0.1-6,1.2-8.3,3.2c-2.3,2-3.9,4.8-4.4,7.8l-27.9,150.2H459.1z"/>
<path class="st22" d="M478.9,857.6h13.8v1.9h-3.9c-3.5,0-2,2.1-2.4,5.5h-11.8C475.1,862.1,476.6,859.5,478.9,857.6"/>
<path class="st8" d="M459.1,1015.6h-4.7l27.8-151.8c0.6-2.5,2-4.7,3.9-6.4c2-1.6,4.4-2.6,7-2.6h64c2.6,0.1,5,1,7,2.7
	c1.9,1.7,3.2,4,3.7,6.5l21.3,152.5h-4.6l-20.9-151.8c-0.3-1.5-1.1-2.9-2.2-3.9s-2.6-1.6-4.1-1.6h-64c-1.6,0.1-3.1,0.6-4.3,1.6
	c-1.2,1-2.1,2.4-2.4,3.9L459.1,1015.6z"/>
<path class="st24" d="M459.1,1015.6h-4.7l27.8-151.8c0.6-2.5,2-4.7,3.9-6.4c2-1.6,4.4-2.6,7-2.6h64c2.6,0.1,5,1,7,2.7
	c1.9,1.7,3.2,4,3.7,6.5l21.3,152.5h-4.6l-20.9-151.8c-0.3-1.5-1.1-2.9-2.2-3.9s-2.6-1.6-4.1-1.6h-64c-1.6,0.1-3.1,0.6-4.3,1.6
	c-1.2,1-2.1,2.4-2.4,3.9L459.1,1015.6z"/>
<path class="st8" d="M467.1,858.9c-11.8-0.8-2.6-27.2-4.4-37.9l-0.4-2.1l4.3-0.7l0.3,2.1c2.6,15.7-5.2,34.2,0.1,34.2
	c2.5,0,6.1-0.1,11.2-0.3c13.2-0.4,35.3-1.1,75.2-1.1h2.2v4.3h-2.2c-39.8,0-61.8,0.7-75,1.1C473.3,858.8,469.7,858.9,467.1,858.9"/>
<path class="st25" d="M558.1,857.5h-86.9c-6.9,0-6.8-5.8-5-16c2-11,1-18.5,0.6-21.2l4.3-0.7c2.6,15.4-5.3,33.6,0.1,33.6H558
	L558.1,857.5L558.1,857.5z"/>
<path class="st9" d="M663.8,862.2c-7,4.1-14.9,6.3-23,6.3H526c-25.5,0-52.9-1.9-57-12.2c-4.1-10.4,175.4-6.6,175.4-6.6
	s14.2,2.5,15.6,3.7S663.8,862.2,663.8,862.2"/>
<path class="st8" d="M472.9,826.9l-13.8-100.5c-0.3-1.8-8.9-2.5-8.6-4c1.2-5.6,6.6-14.4,20.5-14.4h70.2c4.1,0.1,7.9,1.6,11,4.3
	c3.1,2.6,5.1,6.3,5.8,10.3c0,0,15,98.8,14.4,101c-0.6,2.2-2.6,6.7-6.2,6.7c-3.7,0-92.8,0.7-92.8,0.7L472.9,826.9z"/>
<path class="st8" d="M566,858.5h-91.6c-1,0-2-0.2-3-0.6s-1.8-1-2.5-1.7c-0.7-0.7-1.3-1.6-1.7-2.5c-0.4-0.9-0.6-2-0.6-3
	c0-1,0.2-2,0.6-3c0.4-0.9,1-1.8,1.7-2.5c0.7-0.7,1.6-1.3,2.5-1.7s2-0.6,3-0.6H566c2.1,0,4,0.8,5.5,2.3c1.5,1.5,2.3,3.4,2.3,5.5
	c0,2.1-0.8,4-2.3,5.5C570,857.7,568.1,858.5,566,858.5z"/>
<path class="st8" d="M669.7,870.2c-1.6,0-3.1-0.6-4.3-1.6c-1.2-1-1.9-2.5-2.2-4c-0.1-0.6-1.9-7.4-16.9-7.4H573
	c-1.7,0-3.3-0.6-4.5-1.7s-2-2.7-2.2-4.3c-0.1-0.9,0.1-1.8,0.4-2.6c0.3-0.8,0.8-1.6,1.4-2.3c0.6-0.6,1.3-1.2,2.2-1.5
	c0.8-0.4,1.7-0.5,2.6-0.5h73.6c23.9,0,29.7,14.3,29.8,19.3c0,1.7-0.6,3.3-1.7,4.6s-2.7,2-4.4,2.1L669.7,870.2L669.7,870.2z
	 M663.2,863.8c0,0.3,0,0.6,0.1,0.8c0-0.1,0-0.2,0-0.3C663.3,864.1,663.3,863.9,663.2,863.8L663.2,863.8z"/>
<path class="st21" d="M669.7,870.2c-1.6,0-3.1-0.6-4.3-1.6c-1.2-1-1.9-2.5-2.2-4c-0.1-0.6-1.9-7.4-16.9-7.4H573
	c-1.7,0-3.3-0.6-4.5-1.7s-2-2.7-2.2-4.3c-0.1-0.9,0.1-1.8,0.4-2.6c0.3-0.8,0.8-1.6,1.4-2.3c0.6-0.6,1.3-1.2,2.2-1.5
	c0.8-0.4,1.7-0.5,2.6-0.5h73.6c23.9,0,29.7,14.3,29.8,19.3c0,1.7-0.6,3.3-1.7,4.6s-2.7,2-4.4,2.1L669.7,870.2L669.7,870.2z
	 M663.2,863.8c0,0.3,0,0.6,0.1,0.8c0-0.1,0-0.2,0-0.3C663.3,864.1,663.3,863.9,663.2,863.8L663.2,863.8z"/>
<path class="st8" d="M650.7,857.5h-86.2c-0.7,0-1.3-0.2-2-0.4c-0.6-0.3-1.2-0.7-1.6-1.2c-0.5-0.5-0.8-1.1-1-1.7
	c-0.2-0.6-0.3-1.3-0.3-2c0.1-9.3,3.5-14.2,0.4-32.4l-1.2-0.9l5-0.7l0.3,2.1c3,18.1-4.4,32.8,0.3,32.8h86.2L650.7,857.5z"/>
<path class="st25" d="M653.2,858.2h-85.7c-10.6,0-0.8-18.7-4.5-37.8l4.4-0.8c2.6,15.8-3.8,34.3,1.6,34.3h84.2V858.2z"/>
<path class="st8" d="M683.7,1015.6L662.6,859c-0.4-2.5-1.7-4.8-3.7-6.5c-1.9-1.7-4.4-2.6-7-2.7h-5.3c-0.8-0.1-1.5-0.2-2.3-0.2
	l-62.4-0.2c-3.1,0.1-6,1.2-8.3,3.2c-2.3,2-3.9,4.7-4.4,7.8l-21,156h12.5l20.9-156.8c0.3-1.5,1-2.9,2.2-3.9s2.6-1.6,4.1-1.6h35.6
	l19.5,0.4c1.8,0.1,3.6,0.8,5,2c1.4,1.2,2.3,2.8,2.7,4.6l20.7,154.4h7.6l-0.1-0.9l0.1,0.9L683.7,1015.6z"/>
<path class="st24" d="M679.2,1015.6l-20.8-156c-0.3-1.5-1-2.9-2.2-3.9c-1.1-1-2.6-1.6-4.1-1.6h-64c-1.5,0.1-3,0.6-4.1,1.6
	s-1.9,2.4-2.2,3.9l-20.9,156.8h-4.7L577.4,859c0.4-2.5,1.7-4.8,3.7-6.5c1.9-1.7,4.4-2.6,6.9-2.7h64c2.6,0,5,1,7,2.7
	c1.9,1.7,3.2,4,3.7,6.5l21.1,156.6L679.2,1015.6z"/>
<path class="st25" d="M468.4,826.9l-13.8-100.5c-0.3-1.8-6.2-2.5-5.9-4c1.2-5.6,12.1-10.5,18.4-10.5h70.2c4.1,0.1,8,1.6,11,4.3
	c3.1,2.7,5.1,6.3,5.8,10.3L567.8,830l-4,0.9H469L468.4,826.9z"/>
<path class="st25" d="M467.2,711.9h70.2c2.7,0.1,5.4,0.8,7.8,2c2.4,1.3,4.5,3.1,6.1,5.3c-0.4-0.1-0.7-0.3-0.9-0.6
	c-2-2.2-3.8,2.5-3.8,4.2c0,1.4-63.2,7.4-91,9.8l-0.9-6.1c-0.3-1.8-6.2-2.5-5.9-4C450,716.8,460.9,711.9,467.2,711.9"/>
<path class="st8" d="M460.9,830.9l-13.8-100.5c-0.3-1.8-0.2-3.7,0.2-5.5c0.5-1.8,1.4-3.4,2.6-4.8c1.2-1.4,2.7-2.5,4.4-3.2
	c1.7-0.7,3.5-1.1,5.4-1h73.6c4.1,0.1,8,1.6,11,4.3c3.1,2.7,5.1,6.3,5.8,10.3l13.8,100.5c0,0-21.8,5.6-56.6,5.6
	S460.9,830.9,460.9,830.9z"/>
<path class="st22" d="M569.8,858.2h-99.8l1.5,1.6h97.8L569.8,858.2z"/>
<path class="st11" d="M922.5,650H814.6v115.2h107.9V650z"/>
<path class="st26" d="M864.5,654.7h-45.9v102.6h45.9V654.7z"/>
<path class="st22" d="M922.5,650.3H869V765h53.5V650.3z"/>
<path class="st9" d="M861.2,661.3h-39.3v4.4h39.3V661.3z"/>
<path class="st26" d="M861.2,695.7h-39.3v10.9h39.3V695.7z"/>
<path class="st26" d="M861.2,706.6h-39.3v10.9h39.3V706.6z"/>
<path class="st9" d="M826.5,668.9h-4.4v1.1h4.4V668.9z"/>
<path class="st9" d="M860.1,674.4H823v0.8h37.1V674.4z"/>
<path class="st9" d="M859,679h-34.9v0.8H859V679z"/>
<path class="st1" d="M841.6,743.1c1.5,0,2.7-1.2,2.7-2.7c0-1.5-1.2-2.7-2.7-2.7s-2.7,1.2-2.7,2.7C838.8,741.9,840,743.1,841.6,743.1
	z"/>
<path class="st22" d="M841.6,737.7h-0.2c0.7,0,1.3,0.3,1.8,0.9c0.5,0.5,0.7,1.2,0.7,1.9s-0.3,1.4-0.7,1.9c-0.5,0.5-1.1,0.8-1.8,0.9
	h0.2c0.4,0,0.7,0,1.1-0.2c0.3-0.1,0.7-0.3,0.9-0.6c0.3-0.3,0.5-0.6,0.6-0.9s0.2-0.7,0.2-1.1c0-0.4-0.1-0.7-0.2-1.1
	c-0.1-0.3-0.4-0.6-0.6-0.9c-0.3-0.3-0.6-0.5-0.9-0.6C842.3,737.7,841.9,737.6,841.6,737.7L841.6,737.7z"/>
<path class="st27" d="M842.1,728.9H841c-0.3,0-0.5,0.2-0.5,0.5v4.4c0,0.3,0.2,0.5,0.5,0.5h1.1c0.3,0,0.5-0.2,0.5-0.5v-4.4
	C842.6,729.2,842.4,728.9,842.1,728.9z"/>
<path class="st22" d="M842.1,729h-0.3c0.1,0,0.3,0.1,0.4,0.1c0.1,0.1,0.1,0.2,0.1,0.4v4.4c0,0.1-0.1,0.3-0.1,0.4
	c-0.1,0.1-0.2,0.1-0.4,0.1h0.3c0.1,0,0.3-0.1,0.4-0.1c0.1-0.1,0.1-0.2,0.1-0.4v-4.4c0-0.1-0.1-0.3-0.1-0.4
	C842.4,729.1,842.3,729,842.1,729L842.1,729z"/>
<path class="st1" d="M402.1,541h-96.5c-0.5,0-0.9,0.4-0.9,0.9v73.2c0,0.5,0.4,0.9,0.9,0.9h96.5c0.5,0,0.9-0.4,0.9-0.9v-73.2
	C403,541.4,402.6,541,402.1,541z"/>
<path class="st2" d="M402.1,541h-96.5c-0.5,0-0.9,0.4-0.9,0.9v73.2c0,0.5,0.4,0.9,0.9,0.9h96.5c0.5,0,0.9-0.4,0.9-0.9v-73.2
	C403,541.4,402.6,541,402.1,541z"/>
<path class="st1" d="M400.4,541h-96.5c-0.5,0-0.9,0.4-0.9,0.9v73.2c0,0.5,0.4,0.9,0.9,0.9h96.5c0.5,0,0.9-0.4,0.9-0.9v-73.2
	C401.3,541.4,400.9,541,400.4,541z"/>
<path class="st4" d="M400.3,552h-96.4v1h96.4V552z"/>
<path class="st4" d="M310.5,548c0.8,0,1.5-0.7,1.5-1.5s-0.7-1.5-1.5-1.5s-1.5,0.7-1.5,1.5S309.7,548,310.5,548z"/>
<path class="st4" d="M315.5,548c0.8,0,1.5-0.7,1.5-1.5s-0.7-1.5-1.5-1.5s-1.5,0.7-1.5,1.5S314.7,548,315.5,548z"/>
<path class="st4" d="M320.5,548c0.8,0,1.5-0.7,1.5-1.5s-0.7-1.5-1.5-1.5s-1.5,0.7-1.5,1.5S319.7,548,320.5,548z"/>
<path class="st1" d="M1236,753h-112c-0.6,0-1,0.5-1,1V839c0,0.6,0.5,1,1,1h112c0.6,0,1-0.5,1-1V754C1237,753.5,1236.5,753,1236,753z
	"/>
<path class="st2" d="M1236,753h-112c-0.6,0-1,0.5-1,1V839c0,0.6,0.5,1,1,1h112c0.6,0,1-0.5,1-1V754C1237,753.5,1236.5,753,1236,753z
	"/>
<path class="st1" d="M1234,753h-112c-0.6,0-1,0.5-1,1V839c0,0.6,0.5,1,1,1h112c0.6,0,1-0.5,1-1V754C1235,753.5,1234.6,753,1234,753z
	"/>
<path class="st4" d="M1233.9,765.8H1122v1.2h111.9V765.8z"/>
<path class="st4" d="M1129.7,761.1c1,0,1.7-0.8,1.7-1.7s-0.8-1.7-1.7-1.7c-1,0-1.7,0.8-1.7,1.7S1128.7,761.1,1129.7,761.1z"/>
<path class="st4" d="M1135.5,761.1c1,0,1.7-0.8,1.7-1.7s-0.8-1.7-1.7-1.7s-1.7,0.8-1.7,1.7S1134.5,761.1,1135.5,761.1z"/>
<path class="st4" d="M1141.3,761.1c1,0,1.7-0.8,1.7-1.7s-0.8-1.7-1.7-1.7c-1,0-1.7,0.8-1.7,1.7S1140.3,761.1,1141.3,761.1z"/>
<path class="st3" d="M1005.2,302.6H718.5v116.4h286.7V302.6z"/>
<path class="st4" d="M996,294.6H709.3V411H996V294.6z"/>
<path class="st8" d="M721.6,303.2c0,0.4-0.1,0.8-0.4,1.2c-0.2,0.3-0.6,0.6-0.9,0.8c-0.4,0.2-0.8,0.2-1.2,0.1
	c-0.4-0.1-0.8-0.3-1.1-0.6c-0.3-0.3-0.5-0.7-0.6-1.1c-0.1-0.4,0-0.8,0.1-1.2c0.2-0.4,0.4-0.7,0.8-0.9c0.3-0.2,0.7-0.3,1.2-0.3
	c0.6,0,1.1,0.2,1.5,0.6C721.4,302.2,721.6,302.7,721.6,303.2L721.6,303.2z"/>
<path class="st8" d="M728.8,303.2c0,0.4-0.1,0.8-0.4,1.2c-0.2,0.3-0.6,0.6-0.9,0.8c-0.4,0.2-0.8,0.2-1.2,0.1
	c-0.4-0.1-0.8-0.3-1.1-0.6c-0.3-0.3-0.5-0.7-0.6-1.1c-0.1-0.4,0-0.8,0.1-1.2c0.2-0.4,0.4-0.7,0.8-0.9c0.3-0.2,0.7-0.3,1.2-0.3
	c0.3,0,0.5,0.1,0.8,0.2c0.3,0.1,0.5,0.3,0.7,0.5s0.3,0.4,0.5,0.7C728.7,302.7,728.8,303,728.8,303.2L728.8,303.2z"/>
<path class="st8" d="M735.8,303.2c0,0.4-0.1,0.8-0.3,1.2c-0.2,0.3-0.6,0.6-0.9,0.8c-0.4,0.2-0.8,0.2-1.2,0.1
	c-0.4-0.1-0.8-0.3-1.1-0.6c-0.3-0.3-0.5-0.7-0.6-1.1c-0.1-0.4,0-0.8,0.1-1.2c0.2-0.4,0.4-0.7,0.8-0.9c0.3-0.2,0.8-0.4,1.2-0.3
	c0.6,0,1.1,0.2,1.5,0.6C735.6,302.2,735.8,302.7,735.8,303.2L735.8,303.2z"/>
<path class="st8" d="M708.8,294v117.6h287.8V294H708.8z M995.4,295.1v15.3H709.9v-15.3H995.4z M709.9,410.4v-98.9h285.5v98.9H709.9z
	"/>
<path class="st8" d="M800.4,325.8h-69.2V395h69.2V325.8z"/>
<path class="st8" d="M973.6,350.5H814.5c-0.1,0-0.2,0-0.2,0c-0.1,0-0.1-0.1-0.2-0.1s-0.1-0.1-0.1-0.2c0-0.1,0-0.1,0-0.2
	c0-0.2,0.1-0.3,0.2-0.4c0.1-0.1,0.3-0.2,0.4-0.2h159.2c0.2,0,0.3,0.1,0.4,0.2c0.1,0.1,0.2,0.3,0.2,0.4c0,0.1,0,0.1,0,0.2
	c0,0.1-0.1,0.1-0.1,0.2c-0.1,0.1-0.1,0.1-0.2,0.1C973.8,350.5,973.7,350.5,973.6,350.5z"/>
<path class="st8" d="M973.6,336.6H814.5c-0.1,0-0.2,0-0.2,0c-0.1,0-0.2-0.1-0.2-0.1c-0.1-0.1-0.1-0.1-0.1-0.2c0-0.1-0.1-0.2-0.1-0.2
	c0-0.1,0-0.2,0.1-0.2s0.1-0.1,0.1-0.2c0.1-0.1,0.1-0.1,0.2-0.1c0.1,0,0.2,0,0.2,0h159.2c0.1,0,0.3,0.1,0.4,0.2
	c0.1,0.1,0.1,0.2,0.1,0.4c0,0.1-0.1,0.3-0.1,0.4C973.9,336.5,973.8,336.6,973.6,336.6z"/>
<path class="st8" d="M973.6,364.4H814.5c-0.1,0-0.2,0-0.2,0c-0.1,0-0.2-0.1-0.2-0.1c-0.1-0.1-0.1-0.1-0.1-0.2c0-0.1-0.1-0.2-0.1-0.2
	c0-0.1,0-0.2,0.1-0.2s0.1-0.1,0.1-0.2c0.1-0.1,0.1-0.1,0.2-0.1c0.1,0,0.2,0,0.2,0h159.2c0.1,0,0.3,0.1,0.4,0.2
	c0.1,0.1,0.1,0.2,0.1,0.4c0,0.1-0.1,0.3-0.1,0.4C973.9,364.3,973.8,364.4,973.6,364.4L973.6,364.4z"/>
<path class="st8" d="M913,378.2h-98.8c-0.2,0-0.4-0.2-0.4-0.6s0.2-0.6,0.4-0.6H913c0.2,0,0.4,0.3,0.4,0.6S913.2,378.2,913,378.2z"/>
<path class="st8" d="M1073.7,848l-3.9-1.8c-0.1-1.5-0.4-3-0.8-4.5l3-3.1l0.1-0.1l-0.1-0.1l-4-6.1l-0.1-0.1l-0.2,0.1l-4,1.5
	c-1.1-1-2.4-1.9-3.8-2.6c0-1.5,0-2.9-0.1-4.3v-0.1h-0.1l-7.2-1.5h-0.1l-0.1,0.1c-0.6,1.4-1.2,2.7-1.8,3.9c-1.5,0.1-3.1,0.4-4.5,0.8
	l-3.1-3l-0.1-0.1l-0.1,0.1l-6.1,4l-0.1,0v0.1c0.6,1.6,1.1,3,1.5,4.1c-0.8,0.9-1.5,1.9-2.1,2.9c-0.2,0.3-0.3,0.6-0.4,0.8
	c-0.1,0.1-0.1,0.2-0.1,0.3h-4.5v0c-0.4,1.8-0.9,4.2-1.6,7.1v0.1h0.1l3.9,1.8c0.1,1.5,0.4,3.1,0.8,4.5l-3,3.1l-0.1,0.1l0.1,0.1l4,6.1
	l0.1,0.1l0.1,0l4-1.5c1.1,1,2.4,1.9,3.8,2.6c0,1.3,0,2.8,0,4.3v0.2h0.2l7.1,1.5h0.2l0.1-0.2l1.8-3.9c1.5-0.1,3-0.4,4.5-0.8l3.1,3
	l0.1,0.1l0.2-0.1l6.1-4l0.2-0.1l-0.1-0.2c-0.5-1.3-1-2.6-1.5-4c1-1.1,1.9-2.4,2.6-3.7l4.3-0.1h0.2v-0.2c0.5-2.4,1-4.8,1.5-7.2
	L1073.7,848L1073.7,848z M1044.7,843.5c0.8-1.6,2.1-2.8,3.7-3.5c1.1-0.5,2.3-0.7,3.5-0.7c1.4,0,2.7,0.5,3.9,1.2
	c0.6,0.4,1.2,0.9,1.7,1.4c0.5,0.6,0.9,1.2,1.2,1.9c0.7,1.5,0.8,3.1,0.5,4.7c-0.3,1.6-1.2,3-2.4,4.1c-0.6,0.5-1.2,0.9-1.9,1.2
	c-0.7,0.3-1.4,0.5-2.1,0.6c-1.3,0.2-2.7,0-4-0.5c-1.1-0.4-2.1-1.2-2.9-2c-1.2-1.3-1.8-3-1.9-4.7c0-0.6,0-1.3,0.1-1.9
	C1044.2,844.7,1044.5,844.1,1044.7,843.5L1044.7,843.5z M1036.1,838.1C1036.1,838.1,1036.1,838,1036.1,838.1
	c-0.1,0.1-0.2,0.3-0.4,0.5L1036.1,838.1z"/>
<path class="st9" d="M1013.3,943.7l-12.3-4.9l1.1-6.8c-1.5-1.2-2.9-2.5-4.1-4l-6.8,1.2l-5.1-12.1l5.6-4c-0.2-1.9-0.2-3.9-0.1-5.8
	l-5.5-3.8l0.2-0.9l4.5-11.1l0.9,0.1l5.8,1l0.8-0.9c1.1-1.2,2.2-2.4,3.4-3.4l-1.3-6.6l0.8-0.5l11.1-4.8l4,5.5
	c1.9-0.2,3.9-0.3,5.8-0.1l3.9-5.8l12.2,4.8l-1,6.8c1.5,1.2,2.9,2.5,4.1,4l6.8-1.3l5.2,12.1l-5.6,4.1c0.2,1.9,0.2,3.8,0.1,5.7
	l5.7,3.9l-4.9,12.3l-6.8-1.1c-1.2,1.5-2.5,2.9-4,4.1l1.3,6.8l-12.1,5.2l-4.1-5.6c-1.9,0.2-3.8,0.2-5.7,0.1L1013.3,943.7z
	 M1003.5,937.3l8.9,3.6l3.6-5.3l0.7,0.1c2.2,0.2,4.3,0.2,6.5-0.1l0.7-0.1l3.8,5.2l8.8-3.8l-1.2-6.3l0.5-0.4c1.7-1.4,3.2-2.9,4.5-4.7
	l0.4-0.5l6.3,1l3.6-9l-5.3-3.6l0.1-0.7c0.2-2.2,0.2-4.4-0.1-6.5l-0.1-0.7l5.2-3.8l-3.8-8.8l-6.3,1.2l-0.4-0.5
	c-1.4-1.7-2.9-3.2-4.7-4.6l-0.6-0.4l1-6.3l-8.8-3.5l-3.6,5.3l-0.7-0.1c-2.2-0.2-4.4-0.2-6.6,0.1l-0.7,0.1l-3.8-5.2l-8.6,3.8l1.2,6.3
	l-0.5,0.4c-1.3,1.1-2.5,2.3-3.6,3.6l-1.6,1.9l-6.2-1l-3.5,8.6l5.2,3.6l-0.1,0.7c-0.3,2.2-0.2,4.4,0.1,6.6l0.1,0.7l-5.2,3.8l3.7,8.7
	l6.3-1.2l0.4,0.5c1.4,1.7,2.9,3.3,4.7,4.6l0.5,0.4L1003.5,937.3z M1019.9,921.8h-0.5c-2.1-0.1-4.1-0.6-6-1.7c-1.8-1-3.3-2.5-4.4-4.3
	c-1.5-2.4-2.1-5.3-1.8-8.1c0.2-2.1,1-4.1,2.3-5.7c1.7-2.3,4.2-4,6.9-4.7c1.9-0.5,3.9-0.6,5.8-0.2c2.2,0.5,4.2,1.5,5.9,3
	c0.9,0.8,1.7,1.7,2.3,2.8c0.7,1.1,1.2,2.2,1.5,3.5c0.7,2.6,0.5,5.3-0.5,7.7c-1,2.5-2.7,4.6-5,6c-1.1,0.7-2.2,1.2-3.4,1.5
	C1022,921.7,1020.9,921.9,1019.9,921.8L1019.9,921.8z M1019.8,899c-0.9,0-1.9,0.1-2.8,0.4c-2.3,0.6-4.3,2-5.7,3.8
	c-1,1.4-1.7,3-1.9,4.6c-0.3,2.4,0.2,4.7,1.5,6.8c0.8,1.4,2,2.5,3.3,3.4c1.6,1,3.3,1.5,5.2,1.6c1,0,2-0.1,2.9-0.4
	c1-0.2,1.9-0.7,2.8-1.2c1.8-1.1,3.3-2.9,4.1-4.9c0.8-2,1-4.2,0.4-6.4c-0.5-2-1.6-3.7-3.1-5.1c-1.4-1.2-3.1-2.1-4.9-2.4
	C1021.1,899.1,1020.5,899,1019.8,899L1019.8,899z"/>
<path class="st28" d="M1152.8,907.3c-0.2-3.3-0.7-6.5-1.8-9.6l6.4-6.5l-8.1-12.6l-8.5,3.1c-2.4-2.2-5.1-4.1-8-5.6l-0.1-9.1
	l-14.7-3.2l-3.8,8.2c-3.3,0.2-6.5,0.7-9.6,1.7l-6.5-6.4l-12.6,8.1l3.1,8.5c-2.2,2.4-4.1,5.1-5.6,8l-9.1,0.1l-3.2,14.7l8.2,3.8
	c0.2,3.3,0.7,6.5,1.7,9.6l-6.3,6.5l8.1,12.6l8.5-3.1c2.4,2.2,5.1,4.1,8,5.6l0.1,9.1l14.7,3.2l3.8-8.2c3.3-0.1,6.5-0.7,9.6-1.8
	l6.5,6.4l12.6-8.1l-3.1-8.5c2.2-2.4,4.1-5.1,5.6-8l9.1-0.1l3.2-14.7L1152.8,907.3z M1131.7,911.7c-0.7,3.1-2.3,6-4.5,8.2
	c-2.3,2.2-5.2,3.7-8.3,4.3c-3.1,0.6-6.4,0.2-9.3-1.1c-2.9-1.3-5.4-3.4-7.1-6.1c-1.7-2.7-2.6-5.8-2.6-9c0.1-3.2,1.1-6.3,2.9-8.9
	c1.8-2.6,4.4-4.6,7.3-5.8c3-1.2,6.2-1.4,9.3-0.8c4.2,0.9,7.8,3.4,10.1,7C1131.8,903.2,1132.6,907.6,1131.7,911.7L1131.7,911.7z"/>
</svg>
