<?xml version="1.0" encoding="UTF-8"?>
<svg id="Layer_1" xmlns="http://www.w3.org/2000/svg" version="1.1" viewBox="0 0 535 364">
  <!-- Generator: Adobe Illustrator 29.0.1, SVG Export Plug-In . SVG Version: 2.1.0 Build 192)  -->
  <defs>
    <style>
      .st0 {
        fill: #8e8888;
      }
    </style>
  </defs>
  <path class="st0" d="M457.6,255.3c-.3,0-.5-.1-.7-.4-.3-.5-.2-1,.3-1.6.6-.7,1.3-1.3,2-1.8l9.4-7.3c1.9-1.5,3.1-1.9,3.6-1.2.3.6.3,1.1-.1,1.4-.3.1-1.5,1.1-3.6,2.7-2.5,2-4.4,3.5-5.6,4.6-.6.6-1.3,1.1-1.9,1.6-1.8,1.4-2.9,2-3.3,2h0Z"/>
  <g>
    <path class="st0" d="M88.1,228.9c-2.6,0-3.9-.9-3.9-2.6s.2-2.3.7-3.2l8.1-12.2c9.3-20.1,17.6-37.6,24.9-52.4,13.2-27,19.8-40.8,19.8-41.4s-.4-.6-1.2-.6c-3.2.2-8.5,1-16,2.1-14.8,2.3-27.1,4.5-37.1,6.5-1.6.1-2.9,1-3.9,2.4-10,15.4-17.3,28-21.9,37.5-.4.9-.5,1.5-.5,2s.2.9.7,1.2c.4.4.6.9.6,1.7s-.1,1.1-.4,1.8c-.9,3.1-2.9,6.1-6.2,9.3-.7.6-1.7,1-2.9,1s-2.9-.4-4.3-1.2c-2.3-1.3-3.5-3.1-3.5-5,0-2.9,7-15.4,21-37.2l5-8.1c.4-.6.7-1.2,1-2-.4-.1-.7-.2-1.1-.2-.4.1-.6.1-.7.2-.2.1-.5.1-.6.1-12.1,2.8-24.1,6.2-35.8,10.5l-.6.2c-2.6,1-4.8,1.5-6.3,1.5h-1.5c-1.7-.7-2.6-2.1-2.6-4s.1-.9.2-1.5c.1-.6.4-1.1.9-1.6.5-.5,1-.7,1.5-.7s.6,0,1,.1c.4.1.7.2,1.2.2s.8-.1,1.2-.2c13.7-4.2,29.1-8.1,46.1-11.7,1.7-.4,3.1-1.3,3.9-2.8,2.3-4,5.5-9.2,9.5-15.4,9.4-14.5,19.5-28.8,30.5-42.8,13.2-16.8,24.9-29.2,35.2-36.9,6.8-5.3,12.5-7.8,17-7.8,3.4,0,6,1.7,7.8,5.1.8,2,1.3,4.3,1.3,7,0,8.2-2.6,19-7.7,32.6-4,10.3-9.4,22.7-16.2,37.2l-6,12.8c.6.1,1.1.2,1.7.2s.6,0,1-.1c.2-.1.5-.1.7-.1l15.6-1.3c2.1-.1,5.5-.1,10-.1.4,0,1,.2,1.7.6.6.4,1,1,1.1,1.7,0,1-.6,1.5-1.7,1.5h-1.3c-4.8.2-11.5.7-20.1,1.6-2.6.4-5.1.6-7.9.9-.9.1-1.6.4-2.4.9-1.7,1-12.1,22.3-31,64.2-10.3,22.6-16.7,36.6-19.5,42-1,1.8-2,3.7-2.8,5.6-.4.6-1.2,1-2.4,1h-.7ZM105.6,115.5c10.4-1.6,21.2-2.9,32.8-4.2,1.3-.1,2.2-.9,2.6-2,1.8-3.7,5.5-11.5,10.9-23.3,7.8-17.3,13.3-31.4,16.2-41.9l.4-1.7c1.7-5.9,2.4-10.3,2.4-13.3,0-4.9-1.6-7.5-4.9-7.5s-2.4.4-4,1.1c-5.2,2.8-10.7,7.1-16.7,12.9-11,10.7-22.6,24.9-34.8,42.5-9.4,13.7-17.9,27.1-25.6,40.2,7.2-1,14.2-2,20.8-2.9Z"/>
    <path class="st0" d="M155.1,153.6c-1.1-.9-1.7-2-1.7-3.2s.4-3.1,1.1-4.9c3.5-8.4,8.1-16.4,13.7-23.7,1.5-1.8,2.8-2.8,4-2.9,1.1,0,2,.5,2.6,1.3.4.6.6,1.1.6,1.7v.7c-1.6,3.5-3.5,7.3-6,11.1l-2.9,5.1c-.6.9-.9,2-1,3.3,2.1-1.8,4.8-4.3,8.1-7.4l8.1-7.4c4-3.7,6.7-5.5,8.1-5.5.9,0,1.7.4,2.8,1.1,1,.7,1.6,2.1,1.7,3.9l-.2,7c0,2.1.1,4.4.4,7,.4,4.3,2.7,6.3,7.1,6.3s3.9-.6,6.6-1.7c4.3-1.8,10.4-6.1,18.2-12.8,2.4-2.2,3.8-3.2,4.2-3.2s.7.2.7.7-.1.4-.2.6c-7.8,9-15.5,15.4-23.3,19-2.6,1.2-5,1.8-7.3,1.8-2,0-3.8-.4-5.5-1.2-2.8-1.6-4.6-4-5.2-7.1-.5-2.4-.6-4.8-.6-7.2v-2s.2-5,.2-5v-.7c-2.6,1.8-7,6-13.2,12.5-3.1,3.2-6.4,6.5-9.9,9.9-1.3,1.3-3.2,2.3-5.2,3.1-.9.4-1.8.5-2.7.5s-2-.2-2.9-.7Z"/>
    <path class="st0" d="M244.7,150.3c-1.3-.1-2.4-1.1-3.4-2.9-.5-1.2-.7-2.4-.7-3.8,0-2.7.7-5.5,2.3-8.5-2.3,1.6-5,3.2-8.2,5-4.9,2.8-7.9,4.2-9,4.2s-1.5-.2-2.2-.7c-.6-.5-1-1.2-1-2s.2-1.5.6-2.2c1.5-5,4.5-9.6,9.4-13.9,2.1-1.7,4.4-2.6,7-2.6.1,0,1,0,2.4.1,1.5.1,2.8,1.1,4.2,3.1l.2.2c.1,0,.5-.1.9-.5.5-.4,1-.5,1.5-.5.7,0,1.3.1,1.8.6.5.5.7,1,.7,1.5s-.5,2-1.7,4.3c-2.8,5.1-4.3,9-4.3,11.7s1,3.1,3.1,3.1,5-.7,8.8-2.1c5.9-2.2,11.7-4.9,17.6-8.1,5.9-3.1,9.8-5.4,11.7-6.7.2-.2.5-.2.7-.2.6,0,1,.4,1,1.3s-.1.5-.4.7c-3.3,2.7-7.6,5.6-12.9,8.7-5.5,3.2-10.9,5.7-16.4,7.8-4.2,1.7-7.8,2.6-11,2.6-.5,0-1.5,0-2.7-.1ZM232,136c4.5-2.7,7.9-4.9,10.4-6.7-.9-1.1-1.7-1.6-2.8-1.6s-.9.1-1.2.2c-3.2,1.3-6,3.9-8.3,7.8v.6c0,.4,0,.5.2.5s.9-.2,1.7-.9Z"/>
    <path class="st0" d="M48.1,354.5c-6.5-2.2-11.6-5.5-15.4-10-6-7.1-9-17.6-9-31.6s2.6-25.1,7.8-38.9c6.5-17.3,15.9-34.2,28.1-50.4,11.6-15.4,23.1-27.6,34.3-36.5,9.5-8.2,19.5-14.8,29.9-19.7,9.5-4.5,18.2-6.7,26.1-6.7,2.8,0,5.7.2,8.5.9,4.4,1.1,7.8,3.3,10.4,6.8,2.2,3.1,3.3,6.5,3.3,10.3s-1.5,10.7-4.2,17.6c-4.8,12-9.6,21.5-14.6,28.6-1.5,1.8-3.3,2.7-5.5,2.7-1.2,0-2.4-.2-3.4-1-1.3-1-2.1-2.1-2.1-3.5s.5-3.1,1.6-4.9c1-1.7,2.1-2.9,3.2-3.8,1.6-1.1,3.2-3.1,5-5.7,3.5-5.5,6.2-10.5,7.9-15.1.4-1,.7-1.8,1.1-2.7l1.7-4.4c.9-2.4,1.3-4.8,1.3-7s-.6-4.3-1.6-6.2c-1.6-2.9-6-4.5-13.4-4.5s-17.3,2.7-27,8.1c-13.3,7.3-26.1,17.3-38.6,30-17,17.5-30.4,36.4-40.3,56.8-8.8,18.1-13.1,34.8-13.1,50.3s.2,7.5.7,11.1c.9,6.2,3.2,11.5,7,16,6.2,7.7,16.1,11.5,29.5,11.5s17.2-1.7,26.6-5.1c13.6-5,27.3-13.4,41.6-25,11.4-9.3,24.2-21.4,38.7-36l10.3-10.1c.7-.6,1.3-.9,2-.9,1,0,1.5.5,1.5,1.6s-4.5,6.1-13.4,15.6c-12,12.9-23.8,24.2-35.3,33.6-15,12.3-29.8,21.2-44.2,26.6-9.5,3.5-18.7,5.4-27.3,5.4-6.7,0-13.3-1.1-19.8-3.4Z"/>
    <path class="st0" d="M200.5,296.8c-1.3-.1-2.4-1.1-3.4-2.9-.5-1.2-.7-2.4-.7-3.8,0-2.7.7-5.5,2.3-8.5-2.3,1.6-5,3.2-8.2,5-4.9,2.8-7.9,4.2-9,4.2s-1.5-.2-2.2-.7c-.6-.5-1-1.2-1-2s.2-1.5.6-2.2c1.5-5,4.5-9.6,9.4-13.9,2.1-1.7,4.4-2.6,7-2.6s1,0,2.4.1c1.5.1,2.8,1.1,4.2,3.1l.2.2c.1,0,.5-.1.8-.5.5-.4,1-.5,1.5-.5.7,0,1.3.1,1.8.6.5.5.7,1,.7,1.5s-.5,2-1.7,4.3c-2.8,5.1-4.3,9-4.3,11.7s1,3.1,3.1,3.1c2.1,0,5-.7,8.8-2.1,5.9-2.2,11.7-4.9,17.6-8.1,5.9-3.1,9.8-5.4,11.7-6.7.2-.2.5-.2.7-.2.6,0,1,.4,1,1.3s-.1.5-.4.7c-3.3,2.7-7.6,5.6-12.9,8.7-5.5,3.2-10.9,5.7-16.4,7.8-4.2,1.7-7.8,2.6-11,2.6-.5,0-1.5,0-2.7-.1ZM187.8,282.6c4.5-2.7,7.9-4.9,10.4-6.7-.9-1.1-1.7-1.6-2.8-1.6s-.9.1-1.2.2c-3.2,1.3-6,3.9-8.3,7.8v.6c0,.4,0,.5.2.5s.9-.2,1.7-.9Z"/>
    <path class="st0" d="M242.3,319.9c-2-2.1-2.8-4.6-2.8-7.9,0-4.8,2.7-11.7,8.1-20.5,2.7-4.3,4-7,4-8.2s-.6-1.7-1.6-2.3c-1.1-.5-2.4-1-4.2-1.3-1.8-.4-3.3-.9-4.6-1.6-.9-.7-1.2-1.7-1.2-2.9,0-2.8,1.3-5.6,4-8.7.7-.7,1.8-1.2,3.1-1.2,2.1,0,3.5.9,4.6,2.4.2.5.4,1,.4,1.5,0,1-.5,2.1-1.5,3.3,5.9,1.8,8.8,4.8,8.8,8.7s-.1,1.5-.2,2.3c-.4,1.5-1.8,3.8-4.2,7.1-2.4,3.3-4.8,7-6.8,10.9-2.1,3.9-3.2,7.7-3.2,11.2s2,5,5.6,5c2.3,0,5.1-1,8.4-2.7,8.4-5.2,17.5-12.2,27.1-21l11.2-9.5c5.7-4.5,10-7.3,12.9-8.4.4,0,.6.1.6.5v.5c-3.1,1.6-7.1,4.8-12.1,9.3l-7.2,6.5c-5,4.8-10.3,9.5-15.6,14.2-12.1,10.3-21.2,15.5-27.3,15.5s-5-.9-6.4-2.4Z"/>
    <path class="st0" d="M305.1,295.5c-1-2-1.6-4.4-1.7-7.2,0-1.6.4-3.4,1-5.7,3.3-7.7,9-13.4,17.2-17,2-.6,3.8-.9,5.5-.9,3.3,0,5,1.8,5,5.4s-1.7,5.9-5.1,8.8c-6.8,4.6-11.6,7-14.2,7s-2.1-.4-2.7-1c-.4,1.5-.5,2.8-.5,3.9s.1,1.7.4,2.3c1.2,2.6,3.3,3.9,6.4,3.9,6,0,13.5-2.2,22.7-6.5,9.2-4.3,16.4-8.4,21.7-12.5.2-.1.5-.2.6-.2.5,0,.9.4,1,1.1,0,.2-.1.5-.4.7-5.1,4.9-12.2,9.6-21.4,14.4-9.2,4.8-17.7,7.6-25.8,8.4-4.9-.4-8.2-2.1-9.8-5ZM320.7,276.3c3.1-2.3,4.9-4.3,5.1-5.6-4.9,1.7-9.2,5.1-12.9,10.1,2.7-1,5.2-2.4,7.8-4.5Z"/>
    <path class="st0" d="M352.8,300.1c0-.7.1-1.6.4-2.6,3.3-14.5,6.8-23.9,10.6-28.3.4-.4,1.1-.6,2.1-.6s1.1.1,1.7.5,1,.7,1.2,1.2c.4.5.5,1,.5,1.3,0,.6-1.2,3.9-3.7,9.9-2.8,6.5-4.8,12.3-5.9,17.6v.2c0,.2,0,.4.2.4h.1s.5-.1.5-.1l9.3-8.2c11.2-10.5,21.2-18.6,30.2-24.3.5-.2.9-.2,1.2-.2h.7c.4,0,.6.1.9.5.1.4.2.6.2,1,0,.6-.1,1.1-.5,1.5-6.6,4.5-12.6,9.3-17.9,14.3-3.7,3.3-7.2,6.7-10.7,10l-9.6,9-1.1.7c-1.1,1.1-2.3,1.6-3.7,1.6-4.4-.1-6.7-2-6.7-5.4Z"/>
    <path class="st0" d="M398.4,294.9c.2-4.2,1.6-8.5,4.2-13.2,2.4-4.5,5-8.3,7.8-11.2,1.6-1.5,3.1-2.2,4.2-2.2,1.8,0,2.7.9,2.7,2.6s-1.1,2.8-3.2,6.1l-7.1,11.2c-1.3,2.2-2,4.2-2,5.7s1,3.1,2.9,3.1c3.2,0,9.2-2.1,17.9-6.3,7.1-3.3,12.6-6.2,16.4-8.7,1.3-.9,2.6-1.7,3.8-2.4l5.6-3.7c.6,0,1,.1,1.2.4,0,.5-.1.9-.5,1.1-4.9,4.5-11.8,9.2-20.9,14-9,4.9-16.8,8.1-23.3,9.6-1,.2-1.8.2-2.7.2-4.6,0-7-2.1-7.1-6.3ZM420.9,254c0-1.8.7-3.1,2.2-3.8,1.1-.5,2.1-.9,3.2-.9s2.3.2,3.8.7c1.5.4,2.2,1.1,2.2,2.1,0,1.7-2.2,3.4-6.3,4.9l-1.7.2c-2.2,0-3.3-1.1-3.3-3.3Z"/>
    <path class="st0" d="M449.1,302.6c-2.3-1-3.4-3.5-3.4-7.9s1.2-9.8,3.7-14.8c2.4-5,5.4-9.3,8.8-13.1,3.2-3.3,6-5,8.4-5s1.5.1,2.9.5c1.6.4,2.8,2,3.7,4.5.2.9.4,1.6.4,2.4,0,1.6-.6,3.1-1.7,4.4-.4.4-.9.5-1.3.5-1.1,0-1.8-.6-2.3-2-.1-.5-.6-1.6-1.5-3.2-.9.1-1.7.6-2.3,1.2-3.3,2.8-6.1,6.3-8.4,10.9-2.8,5.2-4.2,9.8-4.2,13.8s1,4.9,3.1,4.9c1.5,0,3.3-.5,5.5-1.2,6.2-2.1,12.7-5.4,19.5-9.6,6.7-4.3,12.6-8.4,17.5-12.7.4-.2.8-.4,1.2-.4.4.1.5.2.6.5,0,.4-.2.7-.7,1.2-4.5,4.6-10.3,9.4-17.5,14.4-7.2,5-13.9,8.5-20.1,10.6-2.3.7-4.5,1.1-6.3,1.1-1.6,0-3.3-.4-5.4-1.1Z"/>
  </g>
</svg>