<?xml version="1.0" encoding="UTF-8"?>
<svg id="Layer_1" xmlns="http://www.w3.org/2000/svg" version="1.1" viewBox="0 0 535 364">
  <!-- Generator: Adobe Illustrator 29.0.1, SVG Export Plug-In . SVG Version: 2.1.0 Build 192)  -->
  <defs>
    <style>
      .st0 {
        fill: #fff;
      }
    </style>
  </defs>
  <path class="st0" d="M188,200.5c-3.4-.6-6.1-2.8-8.2-6.4-2.1-3.7-3.2-8.8-3.2-15.2,0-11.3,2.7-25.9,8-44.1,4-13.6,8.1-25,12.3-33.9l2.4-6.1q0,0,0,0t0,0c-.4.8-1.2,2-2.3,3.9-13.6,22.9-28.3,43.8-44.2,62.6-4.1,4.9-9.1,9.4-14.8,13.7-5,3.8-9.1,5.6-12,5.6s-4.2-.9-5.7-2.8c-2-2.5-3-5.9-3-9.9s.3-6.5.8-9.5c1.6-9.6,4-18.5,7.1-26.8,6.7-17.4,14.5-33.5,23.4-48.4,8.7-14.3,17-26,25-35.2,3.4-3.9,5.8-5.8,7.3-5.8s2.6.7,3.5,1.9c.4.6.5,1.3.5,1.9s-.4,1.8-1.1,3.4c-1.2,2.3-2.2,3.4-3.2,3.4s-.3,0-.5,0c-.2,0-.4,0-.6,0-.4,0-.8.3-1.3,1-2,2.2-4.2,5.2-6.7,8.8l-2.5,3.5c-9.3,12.6-17.4,25.8-24.7,39.8-.3.7-.6,1.3-.9,1.8-3.2,6.1-6.2,12.1-9.1,18.2-6.4,13.6-10.2,26.5-11.5,38.8v1.9c0,2.3,0,4,.5,4.8.8,2.4,2,3.7,3.8,3.7s1.9-.2,3.1-.7c5.4-1.8,12.1-7.2,20.1-16.1,8.2-9.3,17.1-20.5,26.5-33.6,2.9-4,6.7-9.8,11.2-17.3,7.9-12.9,13.1-21.1,15.5-24.6.7-.9,1.4-1.3,2.4-1.3s.5,0,.7,0c.8.4,1.1,1.2,1.1,2.2s-.3,2.2-.9,3.8v.4c-4.8,12.6-9.2,25.4-13.1,38.4-4.8,15.2-8.5,30.1-10.8,44.3-.7,4.5-1,8.2-1,11.2,0,5,1,9.1,2.9,11.9,1.9,2.4,4.5,3.7,7.7,3.7s7.9-1.3,12.6-4c9.4-5.5,18-13.2,26-23.1,7.1-8.8,13.3-18.3,18.5-28.4,7-13.6,12.3-29.3,16.2-47,1.3-6.4,1.9-12.2,1.9-17.5,0-9.1-1.5-16.8-4.6-23.1-3.1-6.3-6.5-11.2-10.1-14.6-1.1-.9-1.9-1.3-2.7-1.3h-1c-.5,0-.8-.3-.8-1.2v-.6c0-.3.3-.5.8-.7s1-.3,1.4-.3c1.7,0,3.4.9,5,2.6,3.5,3.6,6.5,7.5,9,11.8,4.4,7.7,6.7,16.6,6.7,26.8s-.3,6.1-.7,9.1c-2.4,19-7.9,37.1-16.5,54.2-6.5,12.9-14.5,24.9-23.8,35.9-6.8,8-14.8,14.7-23.8,20.2-5.3,3.5-10.6,5.2-15.9,5.2s-1.8,0-2.8-.2Z"/>
  <path class="st0" d="M269.4,145.3c-.8-1.5-1.3-3.5-1.3-5.7,0-1.3.3-2.7.8-4.5,2.6-6.1,7.1-10.6,13.6-13.4,1.5-.5,3-.7,4.3-.7,2.6,0,4,1.4,4,4.2s-1.3,4.6-4,6.9c-5.4,3.7-9.2,5.5-11.2,5.5s-1.6-.3-2.1-.8c-.3,1.2-.4,2.2-.4,3.1s0,1.3.3,1.8c1,2,2.6,3.1,5,3.1,4.7,0,10.7-1.7,17.9-5.1,7.2-3.4,12.9-6.7,17.2-9.8.2,0,.4-.2.5-.2.4,0,.7.3.8.9,0,.2,0,.4-.3.6-4,3.9-9.6,7.6-16.9,11.4-7.2,3.8-14,6-20.3,6.7-3.9-.3-6.5-1.6-7.7-4ZM281.8,130.2c2.4-1.8,3.9-3.4,4-4.4-3.9,1.3-7.2,4-10.2,8,2.1-.8,4.1-1.9,6.2-3.6Z"/>
  <path class="st0" d="M324.4,85.2c0,0,.2-.7.5-1.5,1.6-4.3,3.9-8.4,6.6-12.1.7-1.1,1.4-1.6,2.1-1.6s.6,0,1,.3c.3.2.7.5,1.1.9.3.4.5.7.5,1,0,.7-.3,1.3-1,1.8-2.9,3.6-5.4,7.5-7.4,11.9-.4.8-.9,1.1-1.4,1.1-1.3,0-1.8-.5-1.8-1.5Z"/>
  <path class="st0" d="M339.2,164.6c-1.5-1.6-2.2-3.7-2.2-6.3,0-3.8,2.1-9.3,6.4-16.2,2.1-3.4,3.2-5.5,3.2-6.5s-.5-1.3-1.3-1.8c-.9-.4-1.9-.8-3.3-1.1-1.4-.3-2.6-.7-3.7-1.3-.7-.6-1-1.3-1-2.3,0-2.2,1.1-4.4,3.2-6.8.6-.6,1.4-1,2.4-1,1.6,0,2.8.7,3.7,1.9.2.4.3.8.3,1.2,0,.8-.4,1.6-1.2,2.6,4.6,1.4,6.9,3.8,6.9,6.8s0,1.2-.2,1.8c-.3,1.2-1.4,3-3.3,5.6-1.9,2.6-3.8,5.5-5.4,8.6s-2.5,6.1-2.5,8.9,1.5,4,4.4,4,4-.8,6.7-2.1c6.7-4.1,13.8-9.6,21.4-16.6l8.9-7.5c4.5-3.6,7.9-5.8,10.2-6.7.3,0,.5,0,.5.4v.4c-2.4,1.3-5.6,3.8-9.5,7.3l-5.7,5.1c-4,3.8-8.1,7.5-12.3,11.2-9.5,8.1-16.8,12.2-21.6,12.2s-4-.7-5-1.9Z"/>
  <path class="st0" d="M388.8,145.3c-.8-1.5-1.3-3.5-1.4-5.7,0-1.3.3-2.7.8-4.5,2.6-6.1,7.1-10.6,13.6-13.4,1.5-.5,3-.7,4.3-.7,2.6,0,4,1.4,4,4.2s-1.4,4.6-4,6.9c-5.4,3.7-9.2,5.5-11.2,5.5s-1.6-.3-2.1-.8c-.3,1.2-.4,2.2-.4,3.1s0,1.3.3,1.8c1,2,2.6,3.1,5,3.1,4.7,0,10.7-1.7,17.9-5.1s12.9-6.7,17.2-9.8c.2,0,.4-.2.5-.2.4,0,.7.3.8.9,0,.2,0,.4-.3.6-4,3.9-9.6,7.6-16.9,11.4-7.2,3.8-14,6-20.3,6.7-3.9-.3-6.5-1.6-7.7-4ZM401.1,130.2c2.4-1.8,3.9-3.4,4-4.4-3.9,1.3-7.2,4-10.2,8,2.1-.8,4.1-1.9,6.2-3.6Z"/>
  <path class="st0" d="M40.8,283.3c-.8-.8-1.2-1.7-1.2-3.1s.2-1.8.6-3.5c.4-1.6,1.8-4,4.3-7.1,3.7-4.4,6.8-7.7,9.4-9.9,2.6-2.1,6-4.4,10.1-7,.5-.2.8-.5,1-.9v-1c0-2.6-.6-3.9-1.9-3.9l-.9.2c-4.2,2-8.1,5-11.6,8.9-3.6,3.9-6.7,7.6-9.5,11.4-.7.9-1.3,1.3-2.2,1.3s-1.3-.3-1.8-.9c-.3-.4-.4-.8-.4-1.3s1.7-5.3,5.3-14c3.4-8.9,7.5-17.4,12.2-25.7,6.3-10.8,12.8-19,19.8-24.7,3.1-2.4,5.6-3.7,7.6-3.7s2.5.7,3.3,1.9c.7,1,1,1.9,1,3s-.9,3.5-2.5,6c-8.3,13-18.2,24.6-29.9,34.9-2.4,2-4.1,4.2-5.3,6.7-.8,1.8-1.3,3.8-1.9,5.7,1.3-1.8,3.6-4.1,6.7-6.9,3-2.8,6.1-4.7,9.2-5.7l1.3-.2c1.3,0,2.4.5,3.4,1.3,1,.8,1.6,1.5,2,2.3.3.8.5,1.4.5,2,0,.3.2.4.3.4h.5c6.7-2.5,13.9-4,21.4-4.4h1.5c.2,0,.4.3.4.7s0,.3-.2.5c0,.2-.9.3-2.4.5-6.8.6-13.5,2.3-20.1,5.2-1,.5-1.6,1.3-2,2.6-2.2,7.8-5.4,14.1-9.4,18.9-1.3,1.5-2.9,3.4-5.1,5.4-4,3.7-7.1,5.5-9.8,5.5s-2.4-.5-3.5-1.3ZM48.7,278.6c3.4-3,6.2-6,8.5-8.9,2.2-2.8,4.2-6.3,6.1-10.3v-.3h.2l.3-1,.6-1.7v-.2c0,0,0-.2-.2-.2l-1.6,1.1c-5.8,3.8-11,8.7-15.5,14.7-2.5,3.5-3.8,6.1-3.8,7.8s.4,1.5,1.2,1.5,2.3-.8,4.3-2.5ZM54.9,238.8c5.3-5.4,10.1-10.7,14.6-16,4.3-5.3,8.4-11.3,11.9-17.9l.2-.4c.5-.7.8-1.4,1-2.2l-.4-.3c-2.4,1.4-4.4,3.1-6.3,5.2-9.2,9.6-16.6,20.5-22.1,32.6l1.2-1Z"/>
  <path class="st0" d="M105.1,262.1c-1.1,0-1.9-.9-2.7-2.3-.4-1-.6-1.9-.6-3,0-2.1.6-4.3,1.8-6.7-1.8,1.3-4,2.5-6.5,4-3.9,2.2-6.3,3.3-7.1,3.3s-1.2-.2-1.7-.6c-.5-.4-.8-1-.8-1.5s.2-1.2.5-1.7c1.2-4,3.6-7.6,7.4-11,1.6-1.3,3.5-2,5.5-2s.8,0,1.9,0c1.2,0,2.2.9,3.3,2.4l.2.2c0,0,.4,0,.7-.4.4-.3.8-.4,1.2-.4.6,0,1.1,0,1.4.5.4.4.6.8.6,1.2s-.4,1.5-1.3,3.4c-2.2,4-3.4,7.1-3.4,9.3s.8,2.4,2.4,2.4,4-.6,6.9-1.6c4.6-1.7,9.3-3.9,13.9-6.4,4.6-2.4,7.7-4.2,9.3-5.3.2-.2.4-.2.6-.2.5,0,.8.3.8,1.1s0,.4-.3.6c-2.6,2.1-6,4.4-10.2,6.8-4.3,2.5-8.6,4.5-12.9,6.2-3.3,1.3-6.2,2-8.7,2s-1.2,0-2.1,0ZM95,250.8c3.6-2.1,6.3-3.9,8.2-5.3-.7-.9-1.3-1.3-2.2-1.3s-.7,0-1,.2c-2.5,1.1-4.7,3.1-6.6,6.2v.5c0,.3,0,.4.2.4s.7-.2,1.3-.7Z"/>
  <path class="st0" d="M136.3,266.6c-1.8-.8-2.7-2.8-2.7-6.3s1-7.7,2.9-11.7,4.2-7.3,6.9-10.3c2.5-2.6,4.7-4,6.7-4s1.2,0,2.3.4c1.3.3,2.2,1.5,2.9,3.6.2.7.3,1.3.3,1.9,0,1.3-.5,2.4-1.3,3.5-.3.3-.7.4-1.1.4-.9,0-1.4-.5-1.8-1.5,0-.4-.5-1.3-1.2-2.5-.7,0-1.3.5-1.8,1-2.6,2.2-4.8,5-6.7,8.6-2.2,4.1-3.3,7.7-3.3,10.9s.8,3.9,2.4,3.9,2.6-.4,4.3-1c4.9-1.6,10-4.2,15.4-7.6,5.3-3.4,9.9-6.7,13.8-10,.3-.2.7-.3,1-.3.3,0,.4.2.5.4,0,.3-.2.6-.6,1-3.6,3.7-8.1,7.4-13.8,11.4-5.7,4-11,6.7-15.9,8.4-1.8.6-3.6.9-5,.9s-2.6-.3-4.2-.9Z"/>
  <path class="st0" d="M162.7,286.5c-.6,0-1.1-.2-1.5-.5-.5-.4-.7-1-.7-1.7,0-2.6,2.6-10.6,7.9-24.1,6.1-15.7,13.4-31.5,21.9-47.4,6.7-12.5,12.1-21.4,16.5-26.7,1.1-.9,2.1-1.3,3.2-1.3s2.3.5,3.1,1.5c.4.6.6,1.2.6,1.8s0,.8-.2,1.2c-1.1,2.3-2.3,4-3.8,5-.4.3-.8.6-1.2,1-1.4,1.3-4.9,6.7-10.5,16.2-9.7,16.4-16.2,28.6-19.4,36.5,1.8-2,4.7-4.7,8.7-8.3,9.5-8.5,17.2-12.8,22.8-12.8s2.6.4,3.3,1.1,1.1,1.4,1.2,2.3c0,.9-.4,1.5-1.1,2.2-.5.4-1,.6-1.4.6s-1.2-.2-1.8-.8c-.7-.5-1.3-.8-1.5-.8h-.5c-4.9,1.6-12.4,6.6-22.5,15-6.8,5.8-10.2,9.3-10.2,10.6s.4.8,1.3.8c6.7-.9,15.3-2.5,25.7-5.1,10.4-2.6,19.2-5,26.2-7.2h.6c.7,0,1.1,0,1.3.5,0,.9-.5,1.4-1.3,1.7-16,5.5-32.3,9.9-49,13.2l-.7.2c-2.2.3-3.9.7-4.8,1.2-1.5.8-3.7,5.1-6.5,12.8l-3,7.2c-.2.6-.4,1.2-.5,1.7,0,.6-.3,1.2-.6,1.6s-.7.8-1.3.8h-.2Z"/>
  <path class="st0" d="M259.6,283.3c-.8-.8-1.2-1.7-1.2-3.1s.2-1.8.6-3.5c.4-1.6,1.8-4,4.3-7.1,3.7-4.4,6.8-7.7,9.4-9.9,2.6-2.1,6-4.4,10.1-7,.5-.2.8-.5,1-.9v-1c0-2.6-.6-3.9-1.9-3.9l-.9.2c-4.2,2-8.1,5-11.6,8.9-3.6,3.9-6.7,7.6-9.5,11.4-.7.9-1.3,1.3-2.2,1.3s-1.3-.3-1.8-.9c-.3-.4-.4-.8-.4-1.3s1.7-5.3,5.3-14c3.4-8.9,7.5-17.4,12.2-25.7,6.3-10.8,12.8-19,19.8-24.7,3.1-2.4,5.6-3.7,7.6-3.7s2.5.7,3.3,1.9c.7,1,1,1.9,1,3s-.9,3.5-2.5,6c-8.3,13-18.2,24.6-29.9,34.9-2.4,2-4.1,4.2-5.3,6.7-.8,1.8-1.3,3.8-1.9,5.7,1.3-1.8,3.6-4.1,6.7-6.9,3-2.8,6.1-4.7,9.2-5.7l1.3-.2c1.3,0,2.4.5,3.4,1.3,1,.8,1.6,1.5,2,2.3.3.8.5,1.4.5,2,0,.3.2.4.3.4h.5c6.7-2.5,13.9-4,21.4-4.4h1.5c.2,0,.4.3.4.7s0,.3-.2.5c0,.2-.9.3-2.4.5-6.8.6-13.5,2.3-20.1,5.2-1,.5-1.6,1.3-2,2.6-2.2,7.8-5.4,14.1-9.4,18.9-1.3,1.5-2.9,3.4-5.1,5.4-4,3.7-7.1,5.5-9.8,5.5s-2.4-.5-3.5-1.3ZM267.5,278.6c3.4-3,6.2-6,8.5-8.9,2.2-2.8,4.2-6.3,6.1-10.3v-.3h.2l.3-1,.6-1.7v-.2c0,0,0-.2-.2-.2l-1.6,1.1c-5.8,3.8-11,8.7-15.5,14.7-2.5,3.5-3.8,6.1-3.8,7.8s.4,1.5,1.2,1.5,2.3-.8,4.3-2.5ZM273.7,238.8c5.3-5.4,10.1-10.7,14.6-16,4.3-5.3,8.4-11.3,11.9-17.9l.2-.4c.5-.7.8-1.4,1-2.2l-.4-.3c-2.4,1.4-4.4,3.1-6.3,5.2-9.2,9.6-16.6,20.5-22.1,32.6l1.2-1Z"/>
  <path class="st0" d="M323.9,262.1c-1.1,0-1.9-.9-2.7-2.3-.4-1-.6-1.9-.6-3,0-2.1.6-4.3,1.8-6.7-1.8,1.3-4,2.5-6.5,4-3.9,2.2-6.3,3.3-7.1,3.3s-1.2-.2-1.7-.6c-.5-.4-.8-1-.8-1.5s.2-1.2.5-1.7c1.2-4,3.6-7.6,7.4-11,1.6-1.3,3.5-2,5.5-2s.8,0,1.9,0c1.2,0,2.2.9,3.3,2.4l.2.2c0,0,.4,0,.7-.4.4-.3.8-.4,1.2-.4.6,0,1.1,0,1.4.5s.6.8.6,1.2-.4,1.5-1.3,3.4c-2.2,4-3.4,7.1-3.4,9.3s.8,2.4,2.4,2.4,4-.6,6.9-1.6c4.6-1.7,9.3-3.9,13.9-6.4,4.6-2.4,7.7-4.2,9.3-5.3.2-.2.4-.2.6-.2.5,0,.8.3.8,1.1s0,.4-.3.6c-2.6,2.1-6,4.4-10.2,6.8-4.3,2.5-8.6,4.5-12.9,6.2-3.3,1.3-6.2,2-8.7,2s-1.2,0-2.1,0ZM313.9,250.8c3.6-2.1,6.3-3.9,8.2-5.3-.7-.9-1.3-1.3-2.2-1.3s-.7,0-1,.2c-2.5,1.1-4.7,3.1-6.6,6.2v.5c0,.3,0,.4.2.4s.7-.2,1.3-.7Z"/>
  <path class="st0" d="M352.9,283.3c-.8-.8-1.2-1.7-1.2-3.1s.2-1.8.6-3.5c.4-1.6,1.8-4,4.3-7.1,3.7-4.4,6.8-7.7,9.4-9.9,2.6-2.1,6-4.4,10.1-7,.5-.2.8-.5,1-.9v-1c0-2.6-.6-3.9-1.9-3.9l-.9.2c-4.2,2-8.1,5-11.6,8.9-3.6,3.9-6.7,7.6-9.5,11.4-.7.9-1.3,1.3-2.2,1.3s-1.3-.3-1.8-.9c-.3-.4-.4-.8-.4-1.3s1.7-5.3,5.3-14c3.4-8.9,7.5-17.4,12.2-25.7,6.3-10.8,12.8-19,19.8-24.7,3.1-2.4,5.6-3.7,7.6-3.7s2.5.7,3.3,1.9c.7,1,1,1.9,1,3s-.9,3.5-2.5,6c-8.3,13-18.2,24.6-29.9,34.9-2.4,2-4.1,4.2-5.3,6.7-.8,1.8-1.3,3.8-1.9,5.7,1.3-1.8,3.6-4.1,6.7-6.9,3-2.8,6.1-4.7,9.2-5.7l1.3-.2c1.3,0,2.4.5,3.4,1.3,1,.8,1.6,1.5,2,2.3.3.8.5,1.4.5,2,0,.3.2.4.3.4h.5c6.7-2.5,13.9-4,21.4-4.4h1.5c.2,0,.4.3.4.7s0,.3-.2.5c0,.2-.9.3-2.4.5-6.8.6-13.5,2.3-20.1,5.2-1,.5-1.6,1.3-2,2.6-2.2,7.8-5.4,14.1-9.4,18.9-1.3,1.5-2.9,3.4-5.1,5.4-4,3.7-7.1,5.5-9.8,5.5s-2.4-.5-3.5-1.3ZM360.8,278.6c3.4-3,6.2-6,8.5-8.9,2.2-2.8,4.2-6.3,6.1-10.3v-.3h.2l.3-1,.6-1.7v-.2c0,0,0-.2-.2-.2l-1.6,1.1c-5.8,3.8-11,8.7-15.5,14.7-2.5,3.5-3.8,6.1-3.8,7.8s.4,1.5,1.2,1.5,2.3-.8,4.3-2.5ZM367,238.8c5.3-5.4,10.1-10.7,14.6-16,4.3-5.3,8.4-11.3,11.9-17.9l.2-.4c.5-.7.8-1.4,1-2.2l-.4-.3c-2.4,1.4-4.4,3.1-6.3,5.2-9.2,9.6-16.6,20.5-22.1,32.6l1.2-1Z"/>
  <path class="st0" d="M364.7,325c0-.8-.2-1.5-.2-2.3,0-3.3,1.1-6.8,3.1-10.8,5.2-9.3,11.9-17.4,19.9-24.5,8-6.9,16.4-13.4,25.1-19.4,1.3-.9,2.2-1.8,2.8-2.9l8.3-14.7h-.2c0,0-2,1.5-2,1.5-10.2,9.6-16.7,14.4-19.5,14.4s-1.6-.3-2.3-.9c-1-.9-1.4-2.1-1.4-3.8,0-3.4,1.3-7.3,3.8-11.7,2.1-3.8,4.2-6.7,6.5-8.7,1.4-1.3,2.6-1.8,3.6-1.8s1.4.6,1.4,1.8-.7,2.1-1.9,4c-3.4,4.3-6,9-7.9,13.9-.2.5-.3,1.3-.3,2.1v.9c2.9-1.2,6.7-3.8,11.6-7.8,2.2-1.7,6.4-5.5,12.5-11.3.9-.9,1.5-1.3,2.2-1.3s.4,0,.7.3c.3,0,.5.4.7.9,0,.5.2.9.2,1.2-.3.8-2,4.2-5.4,10.4-2,3.6-3.1,5.8-3.3,6.8,9.6-6.7,19.8-12,30.3-15.8l1.3-.3c.4,0,.6.4.6.8s-.3.8-.7,1l-6.3,2.5c-6,2.6-15.1,8.4-27.4,17.2-.9.7-1.5,1.4-2,2.4-1.3,2.6-2.6,5-3.8,7.4-9.8,20.5-20.7,36.5-32.8,48-1.6,1.5-3.7,2.7-6,3.6-1.7.7-3.5,1-5.1,1-3.6,0-5.5-1.3-5.9-4ZM379.8,321.8c6.7-6.5,12.4-13.7,17.2-21.9,6.4-10.6,11.1-19.6,14.2-26.9-19.3,12.7-32.9,26-40.7,39.7-1.9,3.5-2.9,6.7-2.9,9.7s0,.9,0,1.8c0,1.1,1.2,1.6,3.1,1.7,3.3,0,6.3-1.4,9.1-4.2Z"/>
  <path class="st0" d="M458.5,268.2c0-1.3.8-2.6,1.8-4,1.5-1.9,2.8-3,3.9-3s1.6.5,1.6,1.3-.3,2.4-1,4.2c-.5,1.3-1.3,2.5-2.5,3.5-.4.3-.8.4-1.2.5l-.4.2c-1.5,0-2.3-1.1-2.3-2.7ZM468.6,255.1c-1.3,0-1.8-.7-1.8-1.9.8-3.4,3.3-9,7.7-17l1.5-3c.8-1.7,2.3-4.8,4.6-9.3,8-15.7,13.4-23.6,16.2-23.6s1.4.5,1.4,1.4,0,1.4-.3,1.8c-10,16.7-18.2,30.9-24.5,42.8-1.8,3.3-3.1,6-3.8,8.1,0,.4-.4.6-.9.6h-.3Z"/>
</svg>