<?xml version="1.0" encoding="UTF-8"?>
<svg id="Layer_1" xmlns="http://www.w3.org/2000/svg" xmlns:xlink="http://www.w3.org/1999/xlink" version="1.1" viewBox="0 0 535 364">
  <!-- Generator: Adobe Illustrator 29.0.1, SVG Export Plug-In . SVG Version: 2.1.0 Build 192)  -->
  <defs>
    <style>
      .st0 {
        fill: url(#linear-gradient2);
      }

      .st1 {
        fill: url(#linear-gradient1);
      }

      .st2 {
        fill: url(#linear-gradient9);
      }

      .st3 {
        fill: url(#linear-gradient3);
      }

      .st4 {
        fill: url(#linear-gradient6);
      }

      .st5 {
        fill: url(#linear-gradient8);
      }

      .st6 {
        fill: url(#linear-gradient7);
      }

      .st7 {
        fill: url(#linear-gradient5);
      }

      .st8 {
        fill: url(#linear-gradient4);
      }

      .st9 {
        fill: url(#linear-gradient31);
      }

      .st10 {
        fill: url(#linear-gradient30);
      }

      .st11 {
        fill: url(#linear-gradient32);
      }

      .st12 {
        fill: url(#linear-gradient28);
      }

      .st13 {
        fill: url(#linear-gradient29);
      }

      .st14 {
        fill: url(#linear-gradient18);
      }

      .st15 {
        fill: url(#linear-gradient13);
      }

      .st16 {
        fill: url(#linear-gradient12);
      }

      .st17 {
        fill: url(#linear-gradient15);
      }

      .st18 {
        fill: url(#linear-gradient16);
      }

      .st19 {
        fill: url(#linear-gradient11);
      }

      .st20 {
        fill: url(#linear-gradient10);
      }

      .st21 {
        fill: url(#linear-gradient17);
      }

      .st22 {
        fill: url(#linear-gradient14);
      }

      .st23 {
        fill: url(#linear-gradient19);
      }

      .st24 {
        fill: url(#linear-gradient23);
      }

      .st25 {
        fill: url(#linear-gradient22);
      }

      .st26 {
        fill: url(#linear-gradient24);
      }

      .st27 {
        fill: url(#linear-gradient25);
      }

      .st28 {
        fill: url(#linear-gradient21);
      }

      .st29 {
        fill: url(#linear-gradient20);
      }

      .st30 {
        fill: url(#linear-gradient27);
      }

      .st31 {
        fill: url(#linear-gradient26);
      }

      .st32 {
        fill: url(#linear-gradient);
      }
    </style>
    <linearGradient id="linear-gradient" x1="-110.3" y1="2648.2" x2="496.7" y2="2941.2" gradientTransform="translate(0 -2470)" gradientUnits="userSpaceOnUse">
      <stop offset="0" stop-color="#fff"/>
      <stop offset="1" stop-color="#fff"/>
    </linearGradient>
    <linearGradient id="linear-gradient1" x1="-106.3" y1="2640" x2="500.7" y2="2933" gradientTransform="translate(0 -2470)" gradientUnits="userSpaceOnUse">
      <stop offset="0" stop-color="#fff"/>
      <stop offset="1" stop-color="#fff"/>
    </linearGradient>
    <linearGradient id="linear-gradient2" x1="-103.3" y1="2633.7" x2="503.7" y2="2926.7" gradientTransform="translate(0 -2470)" gradientUnits="userSpaceOnUse">
      <stop offset="0" stop-color="#fff"/>
      <stop offset="1" stop-color="#fff"/>
    </linearGradient>
    <linearGradient id="linear-gradient3" x1="-99.6" y1="2626" x2="507.4" y2="2919" gradientTransform="translate(0 -2470)" gradientUnits="userSpaceOnUse">
      <stop offset="0" stop-color="#fff"/>
      <stop offset="1" stop-color="#fff"/>
    </linearGradient>
    <linearGradient id="linear-gradient4" x1="-96.3" y1="2619.4" x2="510.7" y2="2912.4" gradientTransform="translate(0 -2470)" gradientUnits="userSpaceOnUse">
      <stop offset="0" stop-color="#fff"/>
      <stop offset="1" stop-color="#fff"/>
    </linearGradient>
    <linearGradient id="linear-gradient5" x1="-92.4" y1="2611.1" x2="514.6" y2="2904.1" gradientTransform="translate(0 -2470)" gradientUnits="userSpaceOnUse">
      <stop offset="0" stop-color="#fff"/>
      <stop offset="1" stop-color="#fff"/>
    </linearGradient>
    <linearGradient id="linear-gradient6" x1="-10.7" y1="2585.9" x2="596.3" y2="2878.9" gradientTransform="translate(0 -2470)" gradientUnits="userSpaceOnUse">
      <stop offset="0" stop-color="#fff"/>
      <stop offset="1" stop-color="#fff"/>
    </linearGradient>
    <linearGradient id="linear-gradient7" x1="-6.5" y1="2577.4" x2="600.5" y2="2870.4" gradientTransform="translate(0 -2470)" gradientUnits="userSpaceOnUse">
      <stop offset="0" stop-color="#fff"/>
      <stop offset="1" stop-color="#fff"/>
    </linearGradient>
    <linearGradient id="linear-gradient8" x1="-6.3" y1="2577" x2="600.7" y2="2870" gradientTransform="translate(0 -2470)" gradientUnits="userSpaceOnUse">
      <stop offset="0" stop-color="#fff"/>
      <stop offset="1" stop-color="#fff"/>
    </linearGradient>
    <linearGradient id="linear-gradient9" x1="12" y1="2539.1" x2="619" y2="2832.1" gradientTransform="translate(0 -2470)" gradientUnits="userSpaceOnUse">
      <stop offset="0" stop-color="#fff"/>
      <stop offset="1" stop-color="#fff"/>
    </linearGradient>
    <linearGradient id="linear-gradient10" x1="13.1" y1="2536.8" x2="620.1" y2="2829.8" gradientTransform="translate(0 -2470)" gradientUnits="userSpaceOnUse">
      <stop offset="0" stop-color="#fff"/>
      <stop offset="1" stop-color="#fff"/>
    </linearGradient>
    <linearGradient id="linear-gradient11" x1="19" y1="2524.6" x2="626" y2="2817.6" gradientTransform="translate(0 -2470)" gradientUnits="userSpaceOnUse">
      <stop offset="0" stop-color="#fff"/>
      <stop offset="1" stop-color="#fff"/>
    </linearGradient>
    <linearGradient id="linear-gradient12" x1="21.9" y1="2518.5" x2="628.9" y2="2811.5" gradientTransform="translate(0 -2470)" gradientUnits="userSpaceOnUse">
      <stop offset="0" stop-color="#fff"/>
      <stop offset="1" stop-color="#fff"/>
    </linearGradient>
    <linearGradient id="linear-gradient13" x1="31.1" y1="2499.6" x2="638.1" y2="2792.6" gradientTransform="translate(0 -2470)" gradientUnits="userSpaceOnUse">
      <stop offset="0" stop-color="#fff"/>
      <stop offset="1" stop-color="#fff"/>
    </linearGradient>
    <linearGradient id="linear-gradient14" x1="30.1" y1="2501.6" x2="637.1" y2="2794.6" gradientTransform="translate(0 -2470)" gradientUnits="userSpaceOnUse">
      <stop offset="0" stop-color="#fff"/>
      <stop offset="1" stop-color="#fff"/>
    </linearGradient>
    <linearGradient id="linear-gradient15" x1="-56.3" y1="2680.6" x2="550.7" y2="2973.6" gradientTransform="translate(0 -2470)" gradientUnits="userSpaceOnUse">
      <stop offset="0" stop-color="#fff"/>
      <stop offset="1" stop-color="#fff"/>
    </linearGradient>
    <linearGradient id="linear-gradient16" x1="-57.9" y1="2683.9" x2="549.1" y2="2976.9" gradientTransform="translate(0 -2470)" gradientUnits="userSpaceOnUse">
      <stop offset="0" stop-color="#fff"/>
      <stop offset="1" stop-color="#fff"/>
    </linearGradient>
    <linearGradient id="linear-gradient17" x1="-51.4" y1="2670.6" x2="555.6" y2="2963.6" gradientTransform="translate(0 -2470)" gradientUnits="userSpaceOnUse">
      <stop offset="0" stop-color="#fff"/>
      <stop offset="1" stop-color="#fff"/>
    </linearGradient>
    <linearGradient id="linear-gradient18" x1="-46.7" y1="2660.9" x2="560.3" y2="2953.9" gradientTransform="translate(0 -2470)" gradientUnits="userSpaceOnUse">
      <stop offset="0" stop-color="#fff"/>
      <stop offset="1" stop-color="#fff"/>
    </linearGradient>
    <linearGradient id="linear-gradient19" x1="-37.1" y1="2640.8" x2="569.9" y2="2933.8" gradientTransform="translate(0 -2470)" gradientUnits="userSpaceOnUse">
      <stop offset="0" stop-color="#fff"/>
      <stop offset="1" stop-color="#fff"/>
    </linearGradient>
    <linearGradient id="linear-gradient20" x1="-38.1" y1="2642.9" x2="568.9" y2="2935.9" gradientTransform="translate(0 -2470)" gradientUnits="userSpaceOnUse">
      <stop offset="0" stop-color="#fff"/>
      <stop offset="1" stop-color="#fff"/>
    </linearGradient>
    <linearGradient id="linear-gradient21" x1="-34.7" y1="2635.9" x2="572.3" y2="2928.9" gradientTransform="translate(0 -2470)" gradientUnits="userSpaceOnUse">
      <stop offset="0" stop-color="#fff"/>
      <stop offset="1" stop-color="#fff"/>
    </linearGradient>
    <linearGradient id="linear-gradient22" x1="-32.5" y1="2631.3" x2="574.5" y2="2924.3" gradientTransform="translate(0 -2470)" gradientUnits="userSpaceOnUse">
      <stop offset="0" stop-color="#fff"/>
      <stop offset="1" stop-color="#fff"/>
    </linearGradient>
    <linearGradient id="linear-gradient23" x1="-19.2" y1="2603.9" x2="587.8" y2="2896.9" gradientTransform="translate(0 -2470)" gradientUnits="userSpaceOnUse">
      <stop offset="0" stop-color="#fff"/>
      <stop offset="1" stop-color="#fff"/>
    </linearGradient>
    <linearGradient id="linear-gradient24" x1="-16.4" y1="2597.8" x2="590.6" y2="2890.8" gradientTransform="translate(0 -2470)" gradientUnits="userSpaceOnUse">
      <stop offset="0" stop-color="#fff"/>
      <stop offset="1" stop-color="#fff"/>
    </linearGradient>
    <linearGradient id="linear-gradient25" x1="-9.1" y1="2582.9" x2="597.9" y2="2875.9" gradientTransform="translate(0 -2470)" gradientUnits="userSpaceOnUse">
      <stop offset="0" stop-color="#fff"/>
      <stop offset="1" stop-color="#fff"/>
    </linearGradient>
    <linearGradient id="linear-gradient26" x1="2.1" y1="2559.7" x2="609.1" y2="2852.7" gradientTransform="translate(0 -2470)" gradientUnits="userSpaceOnUse">
      <stop offset="0" stop-color="#fff"/>
      <stop offset="1" stop-color="#fff"/>
    </linearGradient>
    <linearGradient id="linear-gradient27" x1="5.5" y1="2552.6" x2="612.5" y2="2845.6" gradientTransform="translate(0 -2470)" gradientUnits="userSpaceOnUse">
      <stop offset="0" stop-color="#fff"/>
      <stop offset="1" stop-color="#fff"/>
    </linearGradient>
    <linearGradient id="linear-gradient28" x1="9" y1="2545.2" x2="616" y2="2838.2" gradientTransform="translate(0 -2470)" gradientUnits="userSpaceOnUse">
      <stop offset="0" stop-color="#fff"/>
      <stop offset="1" stop-color="#fff"/>
    </linearGradient>
    <linearGradient id="linear-gradient29" x1="17.2" y1="2528.5" x2="624.2" y2="2821.5" gradientTransform="translate(0 -2470)" gradientUnits="userSpaceOnUse">
      <stop offset="0" stop-color="#fff"/>
      <stop offset="1" stop-color="#fff"/>
    </linearGradient>
    <linearGradient id="linear-gradient30" x1="24.8" y1="2512.7" x2="631.8" y2="2805.7" gradientTransform="translate(0 -2470)" gradientUnits="userSpaceOnUse">
      <stop offset="0" stop-color="#fff"/>
      <stop offset="1" stop-color="#fff"/>
    </linearGradient>
    <linearGradient id="linear-gradient31" x1="28.6" y1="2504.9" x2="635.6" y2="2797.9" gradientTransform="translate(0 -2470)" gradientUnits="userSpaceOnUse">
      <stop offset="0" stop-color="#fff"/>
      <stop offset="1" stop-color="#fff"/>
    </linearGradient>
    <linearGradient id="linear-gradient32" x1="32.3" y1="2497.1" x2="639.3" y2="2790.1" gradientTransform="translate(0 -2470)" gradientUnits="userSpaceOnUse">
      <stop offset="0" stop-color="#fff"/>
      <stop offset="1" stop-color="#fff"/>
    </linearGradient>
  </defs>
  <g>
    <path class="st32" d="M225.2,334.7c-.5-.7-1.7-1.1-2.5-1.1s-2.3.5-2.3,1.6c0,2.8,7.2,1,7.2,6.5s-2.8,5.2-6,5.2-3.8-.6-5.3-2l2.4-2.7c.7.9,1.9,1.5,3.1,1.5s2.4-.5,2.4-1.6c0-2.8-7.3-1.3-7.3-6.5s2.8-5.1,6-5.1,3.5.5,4.8,1.6l-2.4,2.6h-.1Z"/>
    <path class="st1" d="M247.8,340.5c0,3.7-2.3,6.4-6.6,6.4s-6.6-2.7-6.6-6.4v-9.6h3.5v9.5c0,1.9,1.3,3.4,3.2,3.4s3.1-1.5,3.1-3.4v-9.5h3.5v9.6h-.1Z"/>
    <path class="st0" d="M255.4,330.9h5.8c3.3,0,6,1.1,6,4.7s-2.5,4.8-5.8,4.8h-2.5v6.1h-3.5v-15.6h0ZM258.8,337.5h2.3c1.2,0,2.4-.4,2.4-1.9s-1.6-1.8-3-1.8h-1.8v3.7h.1Z"/>
    <path class="st3" d="M273.8,330.9h10.6v3.2h-7.2v2.9h6.8v3.2h-6.8v3.2h7.6v3.2h-11v-15.6h0Z"/>
    <path class="st8" d="M292,330.9h6c3.2,0,5.9,1.1,5.9,4.7s-1.2,3.9-3.4,4.3l4,6.6h-4.1l-3.3-6.2h-1.7v6.2h-3.5v-15.7h.1ZM295.4,337.4h2c1.3,0,2.8,0,2.8-1.7s-1.4-1.8-2.7-1.8h-2.2v3.5h.1Z"/>
    <path class="st7" d="M315.5,334.6l-3.1,2.8-1.9-2.2,5.1-4.3h3.1v15.6h-3.2v-11.9h0Z"/>
  </g>
  <g>
    <path class="st4" d="M113.2,242.2c-.3-.2-.4-.6-.4-1.2,1.4-5.1,3.1-10.1,5.1-15,12-29.7,23.5-54.2,34.5-73.5l.5-1c-.5-.2-1.1-.2-1.8-.2-13.3,0-26.5,1-39.5,2.9-2.2.4-3.9.6-5.1.6s-2-.7-2-2.1.3-1.2.9-1.4c.9-.3,1.8-.5,2.6-.7,7.5-1.4,15.1-2.2,23-2.2s2.8,0,4.1,0h19c4.2,0,.8-.2,1-.5.6-.7,1.2-1.1,1.7-1.1s1.1.3,1.5.8c.2.3.3.6.3,1,.2,0,.6.2,1.1.2,16.2.5,29.1,1.4,38.4,2.7h2.4c1.1,0,1.7.5,1.7,1.4s-.5,1.3-1.6,1.3c-1.5-.3-3-.6-4.4-.9-4.8-1-16.5-1.5-34.8-1.6h-3.4c-.5,0-.8.2-1,.7-2.6,5-5.2,9.7-7.8,14.4-8.1,14.7-15.4,29.1-22.1,43.3-6.7,14.2-10.9,24.6-12.8,31.3-.2.6-.5.9-.9.9h-.2Z"/>
    <path class="st6" d="M162.1,213.2c-.9-.3-1.6-1-2.1-2.2-.5-1.1-.7-2.3-.7-3.4s0-1.5.2-2.6c.3-2,.5-3.5.5-4.3s0-.9-.2-1.1c-1,.3-1.7.7-2.3,1.3-3.2,2.2-5.8,4.8-8,8-1.5,2.2-2.8,3.3-3.8,3.3s-.7-.1-1-.3c-.5-.3-.7-.7-.7-1.3s.3-1.9,1.1-3.3c11.3-20.5,20-34,26.1-40.8,1.7-1.6,3.4-2.4,4.9-2.4s2.5,1,2.5,3-.8,4.3-2.4,7.4c-4.4,8.8-11.1,15.7-19.9,20.9-.6.4-1.1.9-1.5,1.5l-2.9,4.7.2.2c1.4-1.2,2.5-2.1,3.2-2.6,1.9-1.5,3.5-2.3,4.4-2.3,1.8,0,2.7,1.1,2.8,3.3,0,1.2,0,2.5-.2,3.8s-.3,2.5-.3,3.6.1,1.6.3,2.2c.3,1,1.3,1.5,2.9,1.5,3,0,6.7-1.4,11-4.3,3.9-2.6,7-4.8,9.1-6.7.2-.2.5-.3.6-.3.3,0,.4.2.4.5s0,.5-.2.7l-.3.3c-7.9,7.1-14.5,11.1-20,12h-1.2c-.9,0-1.8,0-2.7-.3h.2,0ZM158.9,190.6c4.3-2.6,8-6.1,11.3-10.5,2.9-3.7,5.1-7.7,6.4-11.9.2-.6.3-1.1.3-1.3,0-.3-.1-.5-.4-.5s-.9.3-1.7,1c-2.9,2.5-6.2,6.5-9.7,12-2.8,4.2-4.9,7.7-6.4,10.5-.2.2-.3.5-.3.6s0,.2.1.2.2,0,.4-.2h0Z"/>
    <path class="st5" d="M183.8,209.3c-.5-.9-.7-2.1-.8-3.4,0-.7.2-1.6.5-2.7,1.5-3.6,4.2-6.3,8-7.9.9-.3,1.8-.4,2.6-.4,1.5,0,2.3.9,2.3,2.5s-.8,2.7-2.4,4.1c-3.2,2.2-5.4,3.2-6.6,3.2s-1-.2-1.3-.5c-.2.7-.2,1.3-.2,1.8s0,.8.2,1.1c.6,1.2,1.5,1.8,3,1.8,2.8,0,6.3-1,10.6-3s7.6-3.9,10.1-5.8h.3c.2,0,.4.2.5.5,0,0,0,.2-.2.3-2.4,2.3-5.7,4.5-10,6.7s-8.3,3.5-12,3.9c-2.3-.2-3.8-1-4.6-2.3v.2h0ZM191.1,200.3c1.4-1.1,2.3-2,2.4-2.6-2.3.8-4.3,2.4-6,4.7,1.3-.5,2.5-1.1,3.6-2.1h0Z"/>
    <path class="st2" d="M235.9,233.3c-.6-.3-1-1-1-2.1s1-4.6,3.1-10.9c1.4-4.2,2.6-7.6,3.5-10.3.2-.3.2-.6.2-.8s-.2-.5-.7-.7c-.5-.3-1-.6-1.5-1-2.1-1.4-3.7-2.2-4.7-2.5-1.4-.4-2.5-1.1-3.2-2.2-.1-.2-.2-.5-.2-.7s.1-.6.3-1c.2-.6.8-.9,1.7-.9s1.3.3,2.1.8c2.3,1.7,4.9,2.5,7.8,2.5h.4c.1,0,.2,0,.3-.2,0,0,.2-.3.3-.7h0c3-7.6,6.7-15.7,11-24.5,4.3-8.7,8.6-16.4,12.7-23.3.2-.3.3-.6.3-.7s0-.3-.1-.5v-.4s.1-.3.3-.6c.3-.4.9-1.1,1.7-2.2.8-1,1.6-2,2.5-3,.8-.9,1.4-1.5,1.7-1.7.3-.2.6-.3,1-.3.6,0,1.2.3,1.6.8.3.3.4.7.4,1.1s-.1.9-.3,1.3c-.5.9-1.3,2.1-2.3,3.5-.6.9-1.3,1.8-1.8,2.6-5.8,9.3-10.9,18.9-15.7,28.7-.1,0-.2.3-.2.5v.3c1.8-2.7,4.8-6.7,9.1-11.9,5.5-6.7,11.7-12.4,18.7-17,4.5-3,8.2-4.6,10.9-4.7,2.5,0,4.3,1.3,5.5,3.6.7,1.4,1,3.1,1,5.1s-.2,3.2-.6,5.1c-.9,4-2.5,7.9-4.9,11.6-5.4,8.3-12.4,15.3-21.3,21.2-9.4,6.2-18.8,9.5-28.2,9.9-.3,0-.6,0-.7.2s-.2.2-.2.4c0,.3.2.5.5.7,2.8,2,6,4.1,9.6,6.3,8.4,5.1,15.8,8.3,22.5,9.6,1.8.4,3.5.6,5,.6s1.4,0,2.1-.1h.3c.8,0,1.3.2,1.4.7,0,.7-1.5,1.1-4.5,1.1s-3.6-.2-5.6-.6c-3.8-.7-9.5-2.9-17.1-6.4-4.3-1.9-8.4-4.2-12.4-6.9-1.9-1.2-3-1.8-3.1-1.8,0,0-.2.2-.3.6-2.6,6-5,12.2-7,18.5h0c0,.3-.1.5-.1.8s.1.5.4.8v.2c0,.2-.2.5-.6.9-.4.4-.8.6-1.2.6h-.4ZM250.4,203.8c7.4-.7,14.7-3.3,21.7-7.8,9-5.6,16.4-12.7,22.2-21.4,1.2-1.9,2.3-3.8,3.1-5.8,1.5-3.5,2.2-6.7,2.2-9.6s-.3-3.1-1.1-4.2c-.8-1.1-1.9-1.7-3.3-1.7h-1.5c-.9,0-2.6.9-5.2,2.4-6.3,3.9-12.5,9.4-18.9,16.4-9.5,10.4-15.8,18.9-18.7,25.4-1.2,2.6-1.9,4.3-2.3,5.3v.2c-.2.2-.3.4-.3.6v.3h2.1,0Z"/>
    <path class="st20" d="M288.7,209.4c0-1.9.8-4.3,2.5-7.2,2.2-3.9,4.4-5.9,6.6-5.9s2.6,1,2.6,2.9-.2,2.2-.7,3.1c1.5.7,3,1,4.5,1s1.4,0,2.1-.2c3-.6,5.8-1.5,8.3-2.8h.3c.3,0,.5.2.5.5s0,.2-.1.4c0,.2-1.4.7-4,1.8-3,1.2-5.7,1.8-8.2,1.8s-3-.2-4.2-.7c-.4.9-1,2-1.8,3.3-.8,1.4-1.7,2.6-2.7,3.7s-2.1,1.7-3.1,1.8c-1.8,0-2.6-1.1-2.6-3.2v-.2h0ZM292.5,209.8c2-1.5,3.6-3.8,4.7-6.7-.6-.4-1-1.1-1.4-2.3-.7.5-1.8,2.3-3.5,5.3-.9,1.6-1.3,2.7-1.3,3.3s.2.8.5.8.6-.1.9-.3h0ZM298.4,199c0-.3-.2-.4-.4-.4-.3,0-.5.3-.5.8s.2,1.1.6,1.5c.2-.7.3-1.3.3-1.9h0Z"/>
    <path class="st19" d="M322.3,209.9c-.6,0-1.1-.5-1.6-1.4-.2-.6-.3-1.1-.3-1.8,0-1.3.3-2.6,1.1-4-1.1.7-2.3,1.5-3.8,2.3-2.3,1.3-3.7,1.9-4.2,1.9s-.7,0-1-.3c-.3-.2-.5-.6-.5-.9s.1-.7.3-1c.7-2.3,2.1-4.5,4.4-6.5,1-.8,2.1-1.2,3.2-1.2h1.1c.7,0,1.3.5,1.9,1.4h.5c.2-.2.5-.2.7-.2.3,0,.6,0,.9.3.2.2.3.5.3.7s-.2.9-.8,2c-1.3,2.4-2,4.2-2,5.5s.5,1.4,1.4,1.4,2.3-.3,4.1-1c2.7-1,5.5-2.3,8.2-3.8,2.7-1.4,4.6-2.5,5.5-3.1h.3c.3,0,.5.2.5.6s0,.2-.2.3c-1.5,1.3-3.5,2.6-6,4-2.6,1.5-5.1,2.7-7.6,3.6-1.9.8-3.6,1.2-5.1,1.2s-.7,0-1.3,0v.2-.2ZM316.4,203.2c2.1-1.3,3.7-2.3,4.8-3.1-.4-.5-.8-.7-1.3-.7h-.6c-1.5.6-2.8,1.8-3.9,3.6v.3c0,.1,0,.2.1.2.1,0,.4,0,.8-.4h.1Z"/>
    <path class="st16" d="M341.8,220.7c-.9-1-1.3-2.2-1.3-3.7,0-2.2,1.3-5.5,3.8-9.6,1.3-2,1.9-3.2,1.9-3.8s-.3-.8-.7-1.1c-.5-.2-1.1-.5-1.9-.6-.9-.2-1.5-.4-2.2-.7-.4-.3-.6-.8-.6-1.4,0-1.3.6-2.6,1.9-4,.3-.3.9-.6,1.4-.6,1,0,1.7.4,2.2,1.1.1.2.2.5.2.7,0,.5-.2,1-.7,1.5,2.7.9,4.1,2.2,4.1,4s0,.7-.1,1.1c-.2.7-.9,1.8-1.9,3.3-1.1,1.5-2.2,3.2-3.2,5.1s-1.5,3.6-1.5,5.2.9,2.3,2.6,2.3,2.4-.5,3.9-1.3c3.9-2.5,8.2-5.7,12.7-9.8l5.2-4.4c2.7-2.1,4.7-3.4,6-3.9.2,0,.3,0,.3.2v.2c-1.4.7-3.3,2.2-5.6,4.3l-3.4,3c-2.3,2.2-4.8,4.4-7.3,6.6-5.6,4.8-9.9,7.2-12.8,7.2s-2.3-.4-3-1.1v.2Z"/>
    <path class="st15" d="M388.6,213.9c-.5-.5-.8-1.1-.8-1.9,0-1.2,1.8-5.2,5.5-11.9.8-1.9,1.2-3,1.2-3.2-1.1.2-3.6,2-7.5,5.5-4.3,3.6-7.6,6.2-10.1,7.7-2.2,1.4-3.9,2.1-5.2,2.1s-1.4-.2-1.9-.6c-.7-.5-1.1-1.4-1.1-2.7,0-2.3,1.1-5,3-7.9,1.8-2.7,3.2-4.2,4.2-4.2s1.3.4,1.3,1.1-.2.7-.5,1.2c-.4.5-.7,1-1.1,1.6-2.9,4-4.3,6.6-4.3,7.6s.5,1.1,1.3,1.2c1,0,2.5-.6,4.4-1.8,2.7-1.8,6.4-4.6,11.1-8.3,2.2-1.7,3.8-3,5-3.7,1.1-.7,2.1-1.1,2.9-1.1s1.2.2,1.5.6c.3.5.4.9.4,1.2,0,.7-1.3,3.4-3.8,8-2.2,4-3.3,6.6-3.5,7.6,1-.9,3.1-3.4,6.4-7.4,3.5-4.3,5.7-6.7,6.4-7.2.5-.3.9-.4,1.2-.4,1.2,0,1.8.7,1.9,2v.6c0,1.8-.1,3.3-.1,4.6s.1,2,.3,2.9c.2.9.5,1.4,1,1.6.5.3,1.1.4,1.8.4,2.7,0,6.7-2.5,12-7.5.9-.9,1.5-1.4,1.7-1.4s.1,0,.1.2,0,.3-.2.5c-1.7,2-3.6,3.8-5.8,5.6-3.2,2.7-6,4-8.3,4s-3.5-.8-4.1-2.5c-.4-1-.6-2.4-.6-4.2s0-.9,0-1.3v-3.3l-1.3,1.3c-.4.4-2.1,2.6-5.2,6.7-2.7,3.4-4.6,5.7-5.6,6.9-.5.6-1.1.9-1.8.9s-1.4-.3-1.9-.8v-.3h.1ZM377.9,193.5c0-.6.3-1.2.9-1.8.3-.5.6-.7,1-.7s.6.2,1,.4c.4.3.6.6.6.9,0,1-.9,1.6-2.7,1.9-.5,0-.7-.3-.7-.8h0Z"/>
    <path class="st22" d="M406.4,249.4c-2.4,0-3.9-.9-4.4-2.5-.3-1-.5-2-.5-3.1s.2-2.3.6-3.9c.4-1.7,1.1-3.2,1.9-4.7,2.9-4.8,7-9.6,12.3-14.3s11.1-8.9,17.4-12.8c.5-.3,1.2-1.5,2.2-3.8.8-1.7,1.2-2.6,1.2-2.9s0,0-.1,0l-6.7,3-3.8,1.8c-2.1.9-3.5,1.4-4.3,1.4s-1.2-.2-1.5-.6c-.4-.4-.6-.9-.6-1.5s0-.9.2-1.4c.7-1.9,2.2-3.6,4.4-5.4,2.1-1.7,4.3-2.9,6.6-3.4.6-.2,1.1-.2,1.7-.2,1.4,0,2.6.6,3.4,1.8.4.5.7,1.1.9,1.9h1.2c.5,0,1,0,1.4.5.3.4.6.9.6,1.5s-.6,1.8-1.7,4l-1,2.1c4.4-2.1,7.6-3.5,9.6-4.3,2.6-1,5.5-1.8,8.7-2.2h.1c.3,0,.5.2.5.5s-.1.3-.4.4c-2.8.6-6.1,1.8-9.8,3.3-3.8,1.6-6.8,3.1-9.1,4.4-.3.1-.6.3-.9.6-.2.3-1.2,2.1-2.9,5.5-4.4,8.9-8.4,16.1-12.3,21.8-5.4,8.1-10.3,12.3-14.6,12.7h-.3v-.2ZM419.1,236.4c4-6.8,7.9-13.8,11.4-21.2l2.5-4.9c-4,2.3-8.7,5.8-14,10.4-5.4,4.6-9.8,9.5-13.3,14.8-.9,1.4-1.5,3-1.9,5-.3,1.1-.5,2.2-.5,3.2,0,2.7,1,4,3,4h.2c4-.7,8.3-4.5,12.6-11.4h0ZM426.6,203.1c1.4-.5,2.9-1.1,4.4-1.7,1.4-.6,2.5-1.1,3.1-1.5-.3-.6-.8-.9-1.5-.9s-.7,0-1.1.2c-3.2.7-6,2.3-8.1,4.9.6-.2,1.7-.5,3.1-1h.1Z"/>
    <path class="st17" d="M13,310.6c-.3-.2-.4-.6-.4-1.2,1.4-5.1,3.1-10.1,5.1-15,12-29.7,23.5-54.2,34.5-73.5l.5-1c-.5-.2-1.1-.2-1.8-.2-13.3,0-26.5,1-39.5,2.9-2.2.4-3.9.6-5.1.6s-2-.7-2-2.1.3-1.2.9-1.4c.9-.3,1.8-.5,2.6-.7,7.5-1.4,15.1-2.2,23-2.2s2.8,0,4.1,0h3.9c1.9,0,3.8,0,5.8-.1s5.1,0,9.3,0,.8-.2,1-.5c.6-.7,1.2-1.1,1.7-1.1s1.1.3,1.5.8c.2.3.3.6.3,1,.2.1.6.2,1.1.2,16.2.5,29.1,1.4,38.4,2.7h2.4c1.1,0,1.7.5,1.7,1.4s-.5,1.3-1.6,1.3c-1.5-.3-3-.6-4.4-.9-4.8-1-16.5-1.5-34.8-1.6h-3.4c-.5,0-.8.2-1,.7-2.6,5-5.2,9.7-7.8,14.4-8.1,14.7-15.4,29.1-22.1,43.3s-10.9,24.6-12.8,31.3c-.2.6-.5.9-.9.9h-.2Z"/>
    <path class="st18" d="M57.9,283.6c-.9-.3-1.4-1.2-1.4-2.6,0-2.7,1-5.9,2.9-9.5v-.3h0s0,.1-.2.2c-4.1,4.8-7.5,7.8-10.1,8.7-.3.1-.7.2-1,.2-1.3,0-2.1-.6-2.3-1.8,0-2.1.6-4.3,1.7-6.7,1.1-2.3,2.2-4.2,3.3-5.7,1.2-1.5,2.2-2.2,2.9-2.2h.7c.3,0,.6.2.8.5s.3.7.3,1.1c0,1.1-.5,1.9-1.5,2.3-.5.2-1,.6-1.6,1.3-1,1.2-1.9,2.7-2.7,4.7-.6,1.3-.9,2.5-.9,3.7,2.5-.9,5.8-3.6,9.9-8.2.2-.2.5-.3.7-.6.6-.7,1.2-1.1,1.7-1.1s1,.3,1.3.9v.5c0,.3,0,.7-.3,1.1-.6,1-1.3,2.5-2.1,4.6s-1.3,4.3-1.6,6.4c0,.8.5,1.2,1.4,1.2s.7,0,1.2-.2c2.7-1,5-2.6,6.8-4.8,1.8-2.2,2.9-4.7,3.5-7.4v-.2c-.2,0-.3-.3-.5-.7s-.2-1-.2-1.7,0-.7.3-1.1c.3-.6.7-.9,1.4-.9,1,0,1.4.7,1.4,2.1s0,.6-.2.9v.7c0,.5.2.8.5,1,1.5.6,3.1.9,4.8.9,2.6,0,5.1-.6,7.6-1.9.5-.3.9-.5,1.2-.5s.3.1.3.3h0c0,.2-.2.3-.3.4-3,1.8-6,2.6-9.1,2.6s-3.6-.3-5.5-.9c-.7,2.7-2.2,5.2-4.2,7.7-2.1,2.5-4.5,4.2-7.2,5.1-.6.2-1.1.2-1.7.2s-1.2-.1-1.9-.4h-.2,0Z"/>
    <path class="st21" d="M86.1,277.7c-.5-.9-.7-2.1-.8-3.4,0-.7.2-1.6.5-2.7,1.5-3.6,4.2-6.3,8-7.9.9-.3,1.8-.4,2.6-.4,1.5,0,2.3.9,2.3,2.5s-.8,2.7-2.4,4.1c-3.2,2.2-5.4,3.2-6.6,3.2s-1-.2-1.3-.5c-.2.7-.2,1.3-.2,1.8s0,.8.2,1.1c.6,1.2,1.5,1.8,3,1.8,2.8,0,6.3-1,10.6-3,4.3-2,7.6-3.9,10.1-5.8,0,0,.2-.1.3-.1.2,0,.4.2.5.5,0,.1,0,.2-.2.3-2.4,2.3-5.7,4.5-10,6.7s-8.3,3.5-12,3.9c-2.3-.2-3.8-1-4.6-2.3v.2h0ZM93.4,268.7c1.4-1.1,2.3-2,2.4-2.6-2.3.8-4.3,2.4-6,4.7,1.3-.5,2.5-1.1,3.6-2.1h0Z"/>
    <path class="st14" d="M108,279.9c-.5-.4-.8-.9-.8-1.5s.2-1.4.5-2.3c1.7-3.9,3.8-7.6,6.4-11.1.7-.9,1.3-1.3,1.9-1.4.5,0,.9.2,1.2.6.2.3.3.5.3.8v.3c-.7,1.7-1.7,3.4-2.8,5.2l-1.4,2.4c-.3.4-.4.9-.5,1.5,1-.9,2.2-2,3.8-3.5l3.8-3.5c1.9-1.7,3.1-2.6,3.8-2.6s.8.2,1.3.5.7,1,.8,1.8v6.4c.2,2,1.3,3,3.3,3s1.8-.3,3.1-.8c2-.9,4.8-2.9,8.5-6,1.1-1,1.8-1.5,1.9-1.5s.3.1.3.3,0,.2-.1.3c-3.6,4.2-7.2,7.2-10.9,8.9-1.2.6-2.3.9-3.4.9s-1.8-.2-2.6-.6c-1.3-.7-2.2-1.9-2.5-3.3-.2-1.1-.3-2.2-.3-3.4v-3.2l.2-.3c-1.3.9-3.3,2.8-6.2,5.8-1.4,1.5-3,3-4.6,4.6-.6.6-1.5,1.1-2.5,1.4-.4.2-.9.2-1.3.2s-.9-.1-1.4-.3c0,0,.2.4.2.4Z"/>
    <path class="st23" d="M133.2,296.5c-.3,0-.7-.4-1-.9-.2-.3-.2-.6-.2-1s0-.8.2-1.3c.9-3.4,2.7-8.2,5.6-14.4,2.8-6.2,5.8-12.3,9-18.3,3.1-6,5.6-10.6,7.4-13.7.2-.3.3-.6.3-.7,0-.2-.2-.3-.6-.3l-7.7.3c-7.1,0-14.2.6-21.2,1.7h-1.9c-.3,0-.6-.2-.7-.5-.2-.2-.3-.3-.3-.5v-.5c0-.9.5-1.5,1.5-1.9,1.3-.4,2.6-.6,3.9-.6h4c4.2-.2,9.3-.3,15.2-.3s6.3-.1,8.7-.2c.7,0,1.1-.4,1.5-1,.3-.6.9-1.7,1.8-3.1,2.3-3.8,4-6.2,4.8-7.2.5-.6,1-.9,1.6-.9s.9.2,1.4.6c.1.1.2.3.2.4s0,.3-.1.5c-.3.6-.5,1-.7,1.1-1.1,1.9-2.9,4.8-5.2,8.6-.2.3-.3.5-.3.7s.2.2.6.2h13.8c17.1.3,27.2.6,30.5.9.5,0,.7.3.7.7s-.2,1-.6,1.5c-.1.2-.2.2-.3.2h-.4c-.2,0-.4-.2-.6-.2s-.4-.2-.5-.2h-.3c-5.2-.4-15.4-.6-30.7-.7-6.2,0-10.5.1-12.9.3-.9.2-1.5.8-2,1.9-11.6,20.5-19,35.7-22.2,45.7-.2.5-.2.9-.2,1.4.2.1.3.2.5.2s.3.2.4.2.2.1.2.2c0,.5-.3.9-1,1.1-.3.1-.6.2-.9.2h-.8l-.4-.2h-.1Z"/>
    <path class="st29" d="M151.5,277.4c.1-1.9.7-4,1.9-6.2,1.1-2.1,2.3-3.9,3.6-5.2s1.4-1,1.9-1c.9,0,1.3.4,1.3,1.2s-.5,1.3-1.5,2.9l-3.3,5.2c-.6,1-.9,1.9-.9,2.7s.5,1.4,1.4,1.4c1.5,0,4.3-1,8.4-3,3.3-1.5,5.9-2.9,7.6-4,.6-.4,1.2-.8,1.8-1.1l2.6-1.7c.3,0,.5,0,.6.2,0,.2,0,.4-.2.5-2.3,2.1-5.5,4.3-9.7,6.6s-7.9,3.8-10.9,4.5c-.5.1-.9.1-1.3.1-2.2,0-3.2-1-3.3-3h0ZM162,258.3c0-.9.3-1.4,1-1.8.5-.2,1-.4,1.5-.4s1.1.1,1.8.3,1,.5,1,1c0,.8-1,1.6-3,2.3h-.8c-1,.1-1.5-.4-1.5-1.4h0Z"/>
    <path class="st28" d="M174.8,277.7c-.5-.9-.7-2.1-.8-3.4,0-.7.2-1.6.5-2.7,1.5-3.6,4.2-6.3,8-7.9.9-.3,1.8-.4,2.6-.4,1.5,0,2.3.9,2.3,2.5s-.8,2.7-2.4,4.1c-3.2,2.2-5.4,3.2-6.6,3.2s-1-.2-1.3-.5c-.2.7-.2,1.3-.2,1.8s0,.8.2,1.1c.6,1.2,1.5,1.8,3,1.8,2.8,0,6.3-1,10.6-3s7.6-3.9,10.1-5.8c.1,0,.2-.1.3-.1.2,0,.4.2.5.5,0,.1,0,.2-.2.3-2.4,2.3-5.7,4.5-10,6.7s-8.3,3.5-12,3.9c-2.3-.2-3.8-1-4.6-2.3v.2h0ZM182.1,268.7c1.4-1.1,2.3-2,2.4-2.6-2.3.8-4.3,2.4-6,4.7,1.3-.5,2.5-1.1,3.6-2.1h0Z"/>
    <path class="st25" d="M194.1,295.1c-.9-.8-1.3-1.9-1.3-3.4v-1.3c0-.7.6-2.1,1.8-3.8,1.9-2.8,4.6-5.4,7.9-7.9,3.3-2.5,6.7-4.3,10.3-5.5-.2-.3-1.3-.5-3.4-.6-1.8-.1-3.6-.4-5.5-.8-1.8-.4-3-1.1-3.4-2.3v-.8c0-1.5.7-3.1,2.5-5.1,1.7-1.9,3.7-3.6,6.1-5.1,2.2-1.4,3.9-2,5.3-2s1.5.3,2.3.9,1.2,1.3,1.2,1.9-.2,1.3-.7,2.2c-.3.6-.7.9-1.3.9s-1.4-.5-1.9-1.5-.6-.6-1.1-.6c-1.1,0-2.7.8-5,2.5-2.5,1.8-3.8,3.5-3.8,5.1s.4,1.1,1,1.4,1.7.5,3.2.6c1.4.1,2.9.3,4.3.6s2.4.9,2.9,1.6c2.1-.7,5-1.5,8.5-2.3,4.9-1.1,8-1.7,9.1-1.7s.7.2.7.4-.3.4-.9.6c-2.1.3-4.8.9-8.3,1.8s-6.3,1.7-8.3,2.6c-.1,0-.2.1-.2.2v.2c.2.5.3,1.3.3,2.4s-.2,2.5-.7,4c-1.3,3.2-3.2,6.2-5.8,9s-5.5,4.9-8.7,6.2c-1.4.5-2.6.7-3.6.7s-2.5-.4-3.3-1.3l-.2.2h0ZM200.2,294.1c3.2-1.2,6-3.3,8.4-6.3,2.5-2.9,4.1-6,5.1-9.4.2-.5.2-1.1.2-1.7,0-.9-.1-1.5-.3-2-3.2,1-6.5,2.7-9.9,5.1s-6.1,5-8.1,7.8c-.9,1.5-1.4,2.9-1.4,4,0,2.1,1,3,3,3s1.8-.2,2.9-.6h.1Z"/>
    <path class="st24" d="M261.3,278.3c-.6,0-1.1-.5-1.6-1.4-.2-.6-.3-1.1-.3-1.8,0-1.3.3-2.6,1.1-4-1.1.7-2.3,1.5-3.8,2.3-2.3,1.3-3.7,1.9-4.2,1.9s-.7-.1-1-.3-.5-.6-.5-.9.1-.7.3-1c.7-2.3,2.1-4.5,4.4-6.5,1-.8,2.1-1.2,3.2-1.2h1.1c.7,0,1.3.5,1.9,1.4h.1c0,.1.2,0,.4-.1.2-.2.5-.2.7-.2.3,0,.6,0,.9.3s.3.5.3.7-.2.9-.8,2c-1.3,2.4-2,4.2-2,5.5s.5,1.4,1.4,1.4,2.3-.3,4.1-1c2.7-1,5.5-2.3,8.2-3.8,2.7-1.4,4.6-2.5,5.5-3.1.1-.1.2-.1.3-.1.3,0,.5.2.5.6s0,.2-.2.3c-1.5,1.3-3.5,2.6-6,4-2.6,1.5-5.1,2.7-7.6,3.6-1.9.8-3.6,1.2-5.1,1.2s-.7,0-1.3,0v.2h0ZM255.4,271.7c2.1-1.3,3.7-2.3,4.8-3.1-.4-.5-.8-.7-1.3-.7s-.4,0-.6.1c-1.5.6-2.8,1.8-3.9,3.6v.3c0,.1,0,.2.1.2.1,0,.4-.1.8-.4h0Z"/>
    <path class="st26" d="M280.8,289.1c-.9-1-1.3-2.2-1.3-3.7,0-2.2,1.3-5.5,3.8-9.6,1.3-2,1.9-3.2,1.9-3.8s-.3-.8-.7-1.1c-.5-.2-1.1-.5-1.9-.6-.9-.2-1.5-.4-2.2-.7-.4-.3-.6-.8-.6-1.4,0-1.3.6-2.6,1.9-4,.3-.3.9-.6,1.4-.6,1,0,1.7.4,2.2,1.1.1.2.2.5.2.7,0,.5-.2,1-.7,1.5,2.7.9,4.1,2.2,4.1,4s0,.7-.1,1.1c-.2.7-.9,1.8-1.9,3.3-1.1,1.5-2.2,3.2-3.2,5.1s-1.5,3.6-1.5,5.2.9,2.3,2.6,2.3,2.4-.5,3.9-1.3c3.9-2.5,8.2-5.7,12.7-9.8l5.2-4.4c2.7-2.1,4.7-3.4,6-3.9.2,0,.3,0,.3.2v.2c-1.4.7-3.3,2.2-5.6,4.3l-3.4,3c-2.3,2.2-4.8,4.4-7.3,6.6-5.6,4.8-9.9,7.2-12.8,7.2s-2.3-.4-3-1.1v.2h0Z"/>
    <path class="st27" d="M310.1,277.7c-.5-.9-.7-2.1-.8-3.4,0-.7.2-1.6.5-2.7,1.5-3.6,4.2-6.3,8-7.9.9-.3,1.8-.4,2.6-.4,1.5,0,2.3.9,2.3,2.5s-.8,2.7-2.4,4.1c-3.2,2.2-5.4,3.2-6.6,3.2s-1-.2-1.3-.5c-.2.7-.2,1.3-.2,1.8s0,.8.2,1.1c.6,1.2,1.5,1.8,3,1.8,2.8,0,6.3-1,10.6-3,4.3-2,7.6-3.9,10.1-5.8.1,0,.2-.1.3-.1.2,0,.4.2.5.5,0,.1,0,.2-.2.3-2.4,2.3-5.7,4.5-10,6.7s-8.3,3.5-12,3.9c-2.3-.2-3.8-1-4.6-2.3v.2h0ZM317.4,268.7c1.4-1.1,2.3-2,2.4-2.6-2.3.8-4.3,2.4-6,4.7,1.3-.5,2.5-1.1,3.6-2.1h0Z"/>
    <path class="st31" d="M354.3,290.9c-.5-.5-.7-1-.7-1.8s.1-1.1.3-2.1c.2-1,1.1-2.3,2.6-4.2,2.2-2.6,4-4.6,5.6-5.9,1.5-1.3,3.5-2.6,6-4.2.3-.1.5-.3.6-.5v-.6c0-1.5-.3-2.3-1.1-2.3h-.5c-2.5,1.3-4.8,3.1-6.8,5.4-2.1,2.3-4,4.5-5.6,6.7-.4.5-.8.7-1.3.7s-.8-.2-1.1-.5c-.2-.2-.2-.5-.2-.7s1-3.1,3.1-8.3c2-5.2,4.4-10.3,7.2-15.2,3.7-6.4,7.6-11.2,11.7-14.6,1.8-1.4,3.3-2.2,4.5-2.2s1.5.4,1.9,1.1c.4.6.6,1.1.6,1.8s-.5,2.1-1.5,3.5c-4.9,7.7-10.8,14.5-17.7,20.6-1.4,1.2-2.5,2.5-3.1,4-.5,1.1-.8,2.2-1.1,3.4.8-1.1,2.1-2.5,3.9-4.1,1.8-1.7,3.6-2.8,5.4-3.4h.8c.7-.1,1.4.2,2,.6s1,.9,1.2,1.4.3.9.3,1.2.1.2.2.2h.3c4-1.5,8.2-2.3,12.7-2.6h.9c.1,0,.2.2.2.4s0,.2-.1.3c0,.1-.5.2-1.4.3-4,.3-8,1.4-11.9,3.1-.6.3-1,.8-1.2,1.5-1.3,4.6-3.2,8.3-5.6,11.2-.7.9-1.7,2-3,3.2-2.3,2.2-4.2,3.2-5.8,3.2s-1.4-.3-2.1-.8l-.2.2h0ZM358.9,288.1c2-1.8,3.6-3.5,5-5.2,1.3-1.7,2.5-3.7,3.6-6.1v-.2h.1l.2-.6.3-1h0c0-.1,0-.2-.1-.2l-1,.6c-3.4,2.2-6.5,5.1-9.2,8.7-1.5,2.1-2.2,3.6-2.2,4.6s.2.9.7.9,1.4-.5,2.6-1.5h0ZM362.6,264.6c3.1-3.2,6-6.3,8.6-9.5,2.6-3.1,5-6.7,7-10.6v-.2c.4-.4.6-.9.7-1.3l-.2-.2c-1.4.8-2.6,1.8-3.7,3.1-5.4,5.7-9.8,12.1-13.1,19.3l.7-.6Z"/>
    <path class="st30" d="M392.3,278.3c-.6,0-1.1-.5-1.6-1.4-.2-.6-.3-1.1-.3-1.8,0-1.3.3-2.6,1.1-4-1.1.7-2.3,1.5-3.8,2.3-2.3,1.3-3.7,1.9-4.2,1.9s-.7-.1-1-.3-.5-.6-.5-.9.1-.7.3-1c.7-2.3,2.1-4.5,4.4-6.5,1-.8,2.1-1.2,3.2-1.2h1.1c.7,0,1.3.5,1.9,1.4h.1c0,.1.2,0,.4-.1.2-.2.5-.2.7-.2.3,0,.6,0,.9.3s.3.5.3.7-.2.9-.8,2c-1.3,2.4-2,4.2-2,5.5s.5,1.4,1.4,1.4,2.3-.3,4.1-1c2.7-1,5.5-2.3,8.2-3.8,2.7-1.4,4.6-2.5,5.5-3.1.1-.1.2-.1.3-.1.3,0,.5.2.5.6s0,.2-.2.3c-1.5,1.3-3.5,2.6-6,4-2.6,1.5-5.1,2.7-7.6,3.6-1.9.8-3.6,1.2-5.1,1.2s-.7,0-1.3,0v.2ZM386.4,271.7c2.1-1.3,3.7-2.3,4.8-3.1-.4-.5-.8-.7-1.3-.7s-.4,0-.6.1c-1.5.6-2.8,1.8-3.9,3.6v.3c0,.1,0,.2.1.2.1,0,.4-.1.8-.4h.1Z"/>
    <path class="st12" d="M410.8,281c-1.1-.5-1.6-1.7-1.6-3.7s.6-4.6,1.7-6.9,2.5-4.3,4.1-6.1c1.5-1.5,2.8-2.3,3.9-2.3s.7,0,1.4.2c.7.2,1.3.9,1.7,2.1.1.4.2.7.2,1.1,0,.7-.3,1.4-.8,2.1-.2.2-.4.2-.6.2-.5,0-.9-.3-1.1-.9,0-.2-.3-.7-.7-1.5-.4,0-.8.3-1.1.6-1.5,1.3-2.9,3-3.9,5.1-1.3,2.5-1.9,4.6-1.9,6.4s.5,2.3,1.4,2.3,1.5-.2,2.6-.6c2.9-1,5.9-2.5,9.1-4.5,3.1-2,5.9-3.9,8.2-5.9.2-.1.4-.2.6-.2s.2.1.3.2c0,.2-.1.3-.3.6-2.1,2.2-4.8,4.4-8.2,6.7-3.4,2.3-6.5,4-9.4,5-1.1.3-2.1.5-3,.5s-1.5-.2-2.5-.5h-.1Z"/>
    <path class="st13" d="M426.4,292.8c-.3,0-.6-.1-.9-.3s-.4-.6-.4-1c0-1.5,1.5-6.3,4.7-14.3,3.6-9.3,7.9-18.6,12.9-28,3.9-7.4,7.2-12.7,9.7-15.8.6-.5,1.3-.8,1.9-.8s1.4.3,1.8.9c.2.3.3.7.3,1.1s0,.5-.1.7c-.6,1.4-1.4,2.3-2.2,3-.2.2-.5.3-.7.6-.9.7-2.9,3.9-6.2,9.6-5.8,9.7-9.6,16.9-11.5,21.6,1.1-1.2,2.8-2.8,5.1-4.9,5.6-5,10.1-7.6,13.5-7.6s1.5.2,1.9.6.6.9.7,1.4c0,.5-.2.9-.6,1.3-.3.2-.6.3-.9.3s-.7-.1-1.1-.5c-.4-.3-.7-.5-.9-.5h-.3c-2.9,1-7.4,3.9-13.3,8.9-4,3.4-6,5.5-6,6.3s.2.5.8.5c4-.5,9.1-1.5,15.2-3,6.2-1.5,11.3-3,15.5-4.3h.3c.4,0,.6,0,.7.3,0,.5-.3.9-.8,1-9.5,3.2-19.1,5.9-29,7.8h-.4c-1.3.3-2.3.5-2.9.8-.9.5-2.2,3-3.8,7.6l-1.8,4.3c-.1.3-.2.7-.3,1,0,.3-.2.7-.3,1s-.4.5-.8.5h-.1.3,0Z"/>
    <path class="st10" d="M468.3,282c0-.7.5-1.5,1.1-2.4.9-1.1,1.7-1.8,2.3-1.8s1,.3,1,.8-.2,1.4-.6,2.5c-.3.8-.8,1.5-1.5,2.1-.2.2-.5.2-.7.3h-.2c-.9,0-1.4-.5-1.4-1.5h0ZM474.3,274.2c-.7,0-1.1-.4-1.1-1.1.5-2,1.9-5.3,4.6-10l.9-1.8c.5-1,1.4-2.9,2.7-5.5,4.7-9.3,7.9-14,9.6-14s.9.3.9.9,0,.9-.2,1.1c-5.9,9.9-10.8,18.3-14.5,25.3-1.1,1.9-1.8,3.5-2.2,4.8,0,.2-.2.3-.5.3h-.2,0Z"/>
    <path class="st9" d="M488.2,282c0-.7.5-1.5,1.1-2.4.9-1.1,1.7-1.8,2.3-1.8s1,.3,1,.8-.2,1.4-.6,2.5c-.3.8-.8,1.5-1.5,2.1-.2.2-.5.2-.7.3h-.2c-.9,0-1.4-.5-1.4-1.5h0ZM494.2,274.2c-.7,0-1.1-.4-1.1-1.1.5-2,1.9-5.3,4.6-10l.9-1.8c.5-1,1.4-2.9,2.7-5.5,4.7-9.3,7.9-14,9.6-14s.9.3.9.9,0,.9-.2,1.1c-5.9,9.9-10.8,18.3-14.5,25.3-1.1,1.9-1.8,3.5-2.2,4.8,0,.2-.2.3-.5.3h-.2,0Z"/>
    <path class="st11" d="M508.2,282c0-.7.5-1.5,1.1-2.4.9-1.1,1.7-1.8,2.3-1.8s1,.3,1,.8-.2,1.4-.6,2.5c-.3.8-.8,1.5-1.5,2.1-.2.2-.5.2-.7.3h-.2c-.9,0-1.4-.5-1.4-1.5h0ZM514.2,274.2c-.7,0-1.1-.4-1.1-1.1.5-2,1.9-5.3,4.6-10l.9-1.8c.5-1,1.4-2.9,2.7-5.5,4.7-9.3,7.9-14,9.6-14s.9.3.9.9,0,.9-.2,1.1c-5.9,9.9-10.8,18.3-14.5,25.3-1.1,1.9-1.8,3.5-2.2,4.8,0,.2-.2.3-.5.3h-.2Z"/>
  </g>
</svg>