<?xml version="1.0" encoding="UTF-8"?>
<svg id="Layer_1" xmlns="http://www.w3.org/2000/svg" version="1.1" viewBox="0 0 535 364">
  <!-- Generator: Adobe Illustrator 29.0.1, SVG Export Plug-In . SVG Version: 2.1.0 Build 192)  -->
  <defs>
    <style>
      .st0 {
        fill: #8e8888;
      }
    </style>
  </defs>
  <path class="st0" d="M24.5,206.8c-.4-.1-.6-.4-.9-.7-.2-.2-.4-.5-.4-.7,0-1.3,1.5-5.9,4.4-13.3,12.1-30.3,27.8-63.7,47.3-100.2l2-3.5c6-10.6,11.2-21,15.6-31.1,5.1-11.7,7.7-20.8,7.7-27.4s-.1-2.2-.2-3.3c-1-5.9-3.9-8.8-8.7-8.8s-8,1.5-13.2,4.4c-6.2,3.4-12.8,8.2-19.9,14.4-10.4,9.1-19,18.4-26.1,27.8-2.4,2.9-3.8,5.9-4,8.8-.1,1.5-.9,2.6-2,3.3-1.2.7-2.4,1.1-3.8,1.1s-2.2-.4-2.9-1.1c-.6-.7-1-1.6-1-2.4v-1.2c1-2.9,2.6-5.9,4.8-8.9,10.4-14,20.7-25.5,31.3-34.4,5.2-4.5,11.1-8.7,17.7-12.4,7.6-4.5,13.9-6.7,19-6.7s7.9,1.5,11.1,4.3c3.5,3.3,5.2,7.7,5.2,13-.1,8.4-4,20.6-11.6,36.6-4.9,10.4-11.9,23.6-21,39.7-7.7,13.3-15.8,29.1-24.7,47.7-11.9,24.7-19.7,42.9-23.4,54.4-.4.7-.9,1.1-1.5,1.1s-.6-.1-1-.2Z"/>
  <path class="st0" d="M88,148.3c0-.7.1-1.6.4-2.6,3.3-14.5,6.8-23.9,10.6-28.3.4-.4,1.1-.6,2.1-.6s1.1.1,1.7.5,1,.7,1.2,1.2c.4.5.5,1,.5,1.3,0,.6-1.2,3.9-3.7,9.9-2.8,6.5-4.8,12.3-5.9,17.6v.2c0,.2,0,.4.2.4h.6c0-.1,9.3-8.3,9.3-8.3,11.2-10.5,21.2-18.5,30.1-24.3.5-.2.9-.2,1.2-.2h.7c.4,0,.6.1.9.5.1.4.2.6.2,1,0,.6-.1,1.1-.5,1.5-6.6,4.5-12.6,9.3-17.9,14.3-3.7,3.3-7.2,6.7-10.7,10l-9.6,9-1.1.7c-1.1,1.1-2.3,1.6-3.7,1.6-4.4-.1-6.7-2-6.7-5.4Z"/>
  <path class="st0" d="M179.1,148.5c-.7-.5-1.1-1-1.1-1.6s.7-2.2,2.2-4c.7-1,1.2-2,1.6-2.8,1.1-2.8,3.4-7.1,6.7-13,3.3-5.9,5.1-9.1,5.4-9.9q0-.1-.1-.1c-.4,0-1,.5-2,1.5-8.4,7.9-13.4,12.6-14.7,13.8-8.7,7.6-16.2,11.7-22.7,12.4-4.8,0-7.1-2.2-7.1-6.5s.9-6.3,2.6-9.9l-3.2,3c-3,3.4-5.5,5.1-7.3,5.1s-2.7-.9-2.7-2.6.6-3,1.7-5.4c3.8-7.3,7.3-11,10.6-11s2.6.9,3.7,2.6c.1,0,.7-.6,1.7-1.8.9-1.2,1.3-1.8,1.5-1.8,1.7,0,2.6.9,2.6,2.6s-.7,2.2-2.3,5.2c-3.5,6.9-5.2,11.5-5.2,13.5s1.2,3.5,3.5,3.5,6-1.1,9.8-3.4c4.8-2.8,11.6-8.3,20.4-16.2,2.7-2.6,5-4.5,6.9-6.1,1.1-1,2.3-1.5,3.5-1.6.9,0,1.8.4,2.7,1.2.2.4.4.7.5,1.3,0,2-2.9,8-8.8,18.2-.6.9-1,1.8-1.1,2.9,1.8-1.6,4.3-3.8,7.3-6.6,9.9-9.1,15.8-13.7,17.8-13.7s3.2,1.3,3.4,3.9c0,1.2-.1,2.8-.2,4.9-.1,2.4-.1,5-.1,7.7,0,5.6,2.7,8.4,7.9,8.4s6.7-1.5,11.2-4.4c4.4-3,8.9-6.7,13.7-11,1.8-1.6,3-2.6,3.7-2.9.2,0,.4.2.4.7s-1.9,2.6-5.7,6.3-10.1,9-14.7,11.6c-3.7,2.1-6.9,3.2-10,3.2-6.7,0-10.2-3.9-10.5-11.7-.1-1.5-.1-3.5-.1-6.2s.1-3.4.4-6c-2.8,2-7.3,6.2-13.4,12.8-6.5,6.8-11,11.1-13.3,12.7-1.6,1.1-3,1.7-4.4,1.7s-1.7-.2-2.3-.7ZM146.2,127.4c.9-1.1,2.2-2.4,3.9-4-.6-.9-1-1.2-1.5-1.2-1.5,0-3.3,1.8-5.6,5.6-.9,1.3-1.2,2.3-1.2,2.9s0,.2.2.2c1.5-.9,2.8-2,4.1-3.5Z"/>
  <path class="st0" d="M268.5,145c-1.3-.1-2.4-1.1-3.4-2.9-.5-1.2-.7-2.4-.7-3.8,0-2.7.7-5.5,2.3-8.5-2.3,1.6-5,3.2-8.2,5-4.9,2.8-7.9,4.1-9,4.1s-1.5-.2-2.2-.7c-.6-.5-1-1.2-1-2s.2-1.5.6-2.2c1.5-5,4.5-9.6,9.4-13.9,2.1-1.7,4.4-2.6,6.9-2.6s1,0,2.4.1c1.5.1,2.8,1.1,4.1,3l.2.2c.1,0,.5-.1.9-.5.5-.4,1-.5,1.5-.5.7,0,1.3.1,1.8.6.5.5.7,1,.7,1.5s-.5,2-1.7,4.3c-2.8,5.1-4.3,9-4.3,11.7s1,3,3,3,5-.7,8.8-2.1c5.9-2.2,11.7-4.9,17.6-8,5.9-3,9.8-5.4,11.7-6.7.2-.2.5-.2.7-.2.6,0,1,.4,1,1.3s-.1.5-.4.7c-3.3,2.7-7.6,5.6-12.9,8.7-5.5,3.2-10.8,5.7-16.3,7.8-4.1,1.7-7.8,2.6-11,2.6s-1.5,0-2.7-.1ZM255.8,130.7c4.5-2.7,7.9-4.9,10.4-6.7-.9-1.1-1.7-1.6-2.8-1.6s-.9.1-1.2.2c-3.2,1.3-6,3.9-8.3,7.8v.6c0,.4,0,.5.2.5s.9-.2,1.7-.9Z"/>
  <path class="st0" d="M21.4,350.5c-2.4-.6-4.1-4-5.2-10.2-.5-2.4-.7-5.6-.7-9.6,0-7.4.9-15.5,2.4-24.4,5-27.1,11.2-52.2,18.5-75.3l.5-1.5c9.4-29.9,17.3-51.2,23.8-63.7,3.3-6.5,6.2-9.6,8.5-9.6s2.7.7,4,2.2c1.6,2,2.4,3.9,2.4,6v.7c-.2.6-1.1,1.5-2.7,2.4-.6.4-1.1.6-1.2.9-1.7,3-3.7,7.4-6,13.2v.2c-4.9,12.3-9.6,24.4-14.1,36.4-10.1,27.1-17.8,51.8-22.9,74.3-.5,1.8-1.7,6.9-3.7,15.2-2.3,10.4-3.5,18.9-3.5,25.5s.6,6.8,1.7,8.9c.5,1,1.1,1.5,1.8,1.5s.9-.2,1.3-.5c4.3-2.3,10.7-9.4,19.5-21.1,6.3-8.5,11.9-16.6,16.7-24,14.3-21.4,25.6-38.1,33.8-50,14.6-21.3,30.3-42.2,47.2-62.3,11.5-13.7,21.8-24.6,31.3-32.7,4-3.5,6.3-5.2,6.9-5.2s.5.1,1,.4c.5.1.7.5.7,1.1s-.2.6-.6,1c-5.5,4.4-12.1,11-19.7,19.7-27.7,31.7-52.8,65.2-75.6,100.6l-19.9,31.1c-16,24.7-28.3,40.5-37.3,47.2-2.1,1.5-4,2.3-6,2.3s-1.6-.2-3-.6Z"/>
  <path class="st0" d="M108.6,295.4c0-5.5,3.2-13.3,9.5-23.4,2.3-3.8,4-6.1,5-7.2,1.3-1.5,2.8-2.2,4.4-2.2s1.6.2,2.2.7c1,.7,1.5,2,1.5,3.4s-.2,1.2-.5,1.7l-2,2.3c-1.1,1.1-2.9,3.4-5.2,7.1-5.1,7.4-7.7,12.2-7.7,14.4s.6,2.1,1.8,2.1c3.4,0,10.5-6.2,21.5-18.4,3-3.3,5.1-5.5,6.2-6.5l1-.9c1.7-1.7,3-2.6,4-2.6s.9.1,1.2.4c1.6,1.1,2.3,2.6,2.3,4.3s-.7,3.4-2.1,7.4c-2.6,6.2-3.8,10.6-3.8,13s.4,1.8,1.2,2c8-.6,21.2-8,39.4-22.1.6-.5,1.1-.7,1.5-.7.5.1.7.5.7,1,0,.7-4.6,4.8-13.9,11.9-12.3,9.8-22.2,14.6-29.4,14.6h-.7c-3.2-.6-4.8-3-4.9-7.1,0-4.5,1.2-10,3.5-16.3-1.6,1.7-3.5,3.9-5.9,6.6-3.8,4.5-7.9,9-12.4,13.3-4.5,4.3-8.7,6.7-12.6,7.1-4-.5-6-2.6-6-6Z"/>
  <path class="st0" d="M173.5,322.2c-.7,0-1.3-.2-2-.6-.6-.5-.9-1.2-.9-2.2,0-3.3,3.3-13.4,10-30.5,7.7-19.9,16.9-39.9,27.7-60,8.4-15.8,15.4-27.1,20.8-33.8,1.3-1.1,2.7-1.7,4-1.7s2.9.6,3.9,2c.5.7.7,1.5.7,2.3s0,1-.2,1.5c-1.3,2.9-2.9,5-4.8,6.3-.5.4-1,.7-1.5,1.2-1.8,1.6-6.2,8.4-13.3,20.5-12.3,20.7-20.5,36.2-24.5,46.2,2.3-2.6,6-6,11-10.5,12.1-10.7,21.7-16.2,28.8-16.2s3.3.5,4.1,1.3c.9.9,1.3,1.8,1.5,2.9,0,1.1-.5,2-1.3,2.8-.6.5-1.2.7-1.8.7s-1.5-.2-2.3-1c-.9-.6-1.6-1-2-1h-.6c-6.2,2.1-15.7,8.3-28.4,19-8.7,7.3-12.9,11.7-12.9,13.4s.5,1,1.7,1c8.5-1.1,19.4-3.2,32.5-6.5,13.2-3.3,24.3-6.3,33.2-9.1h.7c.9-.1,1.3.1,1.6.6,0,1.1-.6,1.8-1.7,2.2-20.2,6.9-40.8,12.6-61.9,16.7l-.9.2c-2.8.4-4.9.9-6.1,1.5-2,1-4.6,6.5-8.2,16.2l-3.8,9.1c-.2.7-.5,1.5-.6,2.2-.1.7-.4,1.5-.7,2.1s-.9,1-1.7,1h-.2Z"/>
  <path class="st0" d="M245.7,295.4c0-5.5,3.2-13.3,9.5-23.4,2.3-3.8,4-6.1,5-7.2,1.3-1.5,2.8-2.2,4.4-2.2s1.6.2,2.2.7c1,.7,1.5,2,1.5,3.4s-.2,1.2-.5,1.7l-2,2.3c-1.1,1.1-2.9,3.4-5.2,7.1-5.1,7.4-7.7,12.2-7.7,14.4s.6,2.1,1.8,2.1c3.4,0,10.5-6.2,21.5-18.4,3-3.3,5.1-5.5,6.2-6.5l1-.9c1.7-1.7,3-2.6,4-2.6s.9.1,1.2.4c1.6,1.1,2.3,2.6,2.3,4.3s-.7,3.4-2.1,7.4c-2.6,6.2-3.8,10.6-3.8,13s.4,1.8,1.2,2c8-.6,21.2-8,39.4-22.1.6-.5,1.1-.7,1.5-.7.5.1.7.5.7,1,0,.7-4.6,4.8-13.9,11.9-12.3,9.8-22.2,14.6-29.4,14.6h-.7c-3.2-.6-4.8-3-4.9-7.1,0-4.5,1.2-10,3.5-16.3-1.6,1.7-3.5,3.9-5.8,6.6-3.8,4.5-7.9,9-12.4,13.3-4.5,4.3-8.7,6.7-12.6,7.1-4-.5-6-2.6-6-6Z"/>
  <path class="st0" d="M311.9,327.2c-1.8-1.7-2.8-4.1-2.8-7.2v-2.7c0-1.6,1.2-4.4,3.8-8.2,4.1-6,9.8-11.6,16.8-16.8,7.1-5.2,14.4-9.1,22.1-11.8-.4-.7-2.8-1.1-7.3-1.3-3.9-.2-7.8-.9-11.7-1.7s-6.3-2.4-7.3-5v-1.7c-.1-3.2,1.6-6.7,5.2-10.8,3.5-4,7.9-7.7,13-10.8,4.6-2.9,8.4-4.3,11.3-4.3s3.3.6,4.9,2c1.7,1.3,2.6,2.7,2.6,4s-.5,2.8-1.6,4.6c-.7,1.2-1.6,2-2.8,2s-2.9-1.1-4-3.2c-.5-.9-1.3-1.2-2.4-1.2-2.3,0-5.9,1.7-10.6,5.4-5.2,3.8-8,7.4-8.2,11,.1,1.5.9,2.4,2.2,3,1.3.6,3.7,1.1,6.8,1.2,3,.2,6.1.7,9.1,1.3,3,.6,5.1,1.8,6.2,3.4,4.5-1.6,10.6-3.2,18.2-4.9,10.5-2.4,17.1-3.7,19.5-3.7s1.5.4,1.5.9-.6.9-1.9,1.2c-4.4.6-10.2,2-17.7,3.8-7.4,1.8-13.4,3.7-17.8,5.5-.2.1-.4.2-.4.5v.5c.5,1,.6,2.7.6,5.1s-.5,5.2-1.6,8.5c-2.7,6.8-6.8,13.3-12.3,19.3-5.5,6-11.7,10.5-18.5,13.3-2.9,1-5.5,1.6-7.8,1.6s-5.2-.9-7.1-2.7ZM324.9,324.9c6.8-2.6,12.8-7.1,18-13.4,5.2-6.2,8.8-12.9,10.8-20.1.4-1.1.5-2.4.5-3.7,0-2-.2-3.3-.6-4.3-6.8,2.2-13.9,5.9-21.1,11-7.2,5.1-13,10.7-17.3,16.7-2,3.2-2.9,6.1-2.9,8.5,0,4.4,2.2,6.5,6.5,6.5s3.8-.4,6.1-1.2ZM348.7,231.8v-1.2c1.3-7.1,2.7-10.6,4.1-10.6s1.3.2,1.3.9c0,1.5-.1,2.4-.5,2.9,0,.9-.2,1.6-.5,2.4-.2.9-.5,2-.6,3.3,1.1-1,2-1.6,2.6-2,7.3-5.5,11.3-8.3,11.9-8.3s.9.4.9,1.1-.2.7-.9,1.2c-2.1,1.6-6.3,5.1-12.8,10.7-1.2,1.1-2.3,1.7-3.3,1.7s-2.2-.7-2.3-2.2Z"/>
  <path class="st0" d="M386.7,289.3c.2-4.1,1.6-8.5,4.1-13.2,2.4-4.5,5-8.3,7.8-11.2,1.6-1.5,3-2.2,4.1-2.2,1.8,0,2.7.9,2.7,2.6s-1.1,2.8-3.2,6.1l-7.1,11.2c-1.3,2.2-2,4.1-2,5.7s1,3,2.9,3c3.2,0,9.1-2.1,17.9-6.3,7.1-3.3,12.6-6.2,16.3-8.7,1.3-.9,2.6-1.7,3.8-2.4l5.6-3.7c.6,0,1,.1,1.2.4,0,.5-.1.9-.5,1.1-4.9,4.5-11.8,9.1-20.8,14-9,4.9-16.8,8-23.3,9.6-1,.2-1.8.2-2.7.2-4.6,0-6.9-2.1-7.1-6.3ZM409.1,248.5c0-1.8.7-3,2.2-3.8,1.1-.5,2.1-.9,3.2-.9s2.3.2,3.8.7c1.5.4,2.2,1.1,2.2,2.1,0,1.7-2.2,3.4-6.3,4.9l-1.7.2c-2.2,0-3.3-1.1-3.3-3.3Z"/>
  <path class="st0" d="M437.3,297c-2.3-1-3.4-3.5-3.4-7.9s1.2-9.8,3.7-14.7c2.4-5,5.4-9.3,8.8-13,3.2-3.3,6-5,8.4-5s1.5.1,2.9.5c1.6.4,2.8,2,3.7,4.5.2.9.4,1.6.4,2.4,0,1.6-.6,3-1.7,4.4-.4.4-.9.5-1.3.5-1.1,0-1.8-.6-2.3-2-.1-.5-.6-1.6-1.5-3.2-.9.1-1.7.6-2.3,1.2-3.3,2.8-6.1,6.3-8.4,10.8-2.8,5.2-4.1,9.8-4.1,13.8s1,4.9,3,4.9,3.3-.5,5.5-1.2c6.2-2.1,12.7-5.4,19.5-9.6,6.7-4.3,12.6-8.4,17.4-12.7.4-.2.9-.4,1.2-.4.4.1.5.2.6.5,0,.4-.2.7-.7,1.2-4.5,4.6-10.2,9.4-17.4,14.4-7.2,5-13.9,8.5-20.1,10.6-2.3.7-4.5,1.1-6.3,1.1s-3.3-.4-5.4-1.1Z"/>
  <path class="st0" d="M445.8,250.1c-.3,0-.5-.1-.7-.4-.3-.5-.2-1,.3-1.6.6-.7,1.3-1.3,2-1.8l9.4-7.3c1.9-1.5,3.1-1.9,3.6-1.2.3.6.3,1.1-.1,1.4-.3.1-1.5,1.1-3.6,2.7-2.5,2-4.4,3.5-5.6,4.6-.6.6-1.3,1.1-1.9,1.6-1.8,1.4-2.9,2-3.3,2Z"/>
</svg>