<?xml version="1.0" encoding="UTF-8"?>
<svg id="Layer_1" xmlns="http://www.w3.org/2000/svg" version="1.1" viewBox="0 0 535 364">
  <!-- Generator: Adobe Illustrator 29.0.1, SVG Export Plug-In . SVG Version: 2.1.0 Build 192)  -->
  <defs>
    <style>
      .st0 {
        fill: #8e8888;
      }
    </style>
  </defs>
  <path class="st0" d="M407.2,255.3c-.3,0-.5-.1-.7-.4-.3-.5-.2-1,.3-1.6.6-.7,1.3-1.3,2-1.8l9.4-7.3c1.9-1.5,3.1-1.9,3.6-1.2.3.6.3,1.1-.1,1.4-.3.1-1.5,1.1-3.6,2.7-2.5,2-4.4,3.5-5.6,4.6-.6.6-1.3,1.1-1.9,1.6-1.8,1.4-2.9,2-3.3,2h0Z"/>
  <g>
    <path class="st0" d="M125.7,236.5c-3.9-4.2-6-11.9-6.3-23.2,0-28.2,4.3-56.5,12.9-84.8,5.3-17.9,13.8-38.4,25.3-61.6.4-1,.7-1.7,1.1-2.4-.9,1-1.6,1.9-2,2.7-6.6,9.3-15.3,22.6-26.2,39.9-12.2,19.3-23.7,36.6-34.7,52.4-11.9,17.1-19.7,27.1-23.5,30.1-1.1.7-2.4,1.1-3.5,1.1-1.6,0-2.9-.4-3.9-1.2-1-.7-1.6-1.9-1.7-3.2,0-4.2.7-9.7,2.2-16.4,2.6-10.8,7.1-26,13.4-45.6,3.4-10.4,5.2-15.9,5.5-16.4,4.8-13.8,11.2-29.6,19-47.3,2.5-5.7,4.8-11.3,7.1-16.6v-.6c.1,0-.4.5-.4.5-4.1,6.6-8.6,13.2-13.2,20l-4.1,6.1c-24.3,36.9-44.3,68.7-60.2,95.5-.5.9-2.2,4-5.3,9.3-5.5,8.8-8.8,14.2-10.3,15.9-1.1,1.1-2.4,1.6-3.7,1.6s-2-.4-2.7-1.1c-.7-.9-1.1-2-1.2-3.5.1-2.6.7-5.8,1.7-9.4,1.9-7.3,4.3-13.7,7.5-19.1,10.8-21.6,25.3-46,43.5-73,5.2-7.7,10.7-14.7,16.6-21,5.6-6.1,9.6-9.2,11.8-9.2s1.9.5,3,1.6c.6-.4,1-.9,1.2-1.5l.4-.5,13.8-20.1c7.8-11.3,12-17.1,12.7-17.8s1.6-1,2.7-1,2.6.6,3.6,2c.4.6.6,1.4.6,2.2,0,2.9-6.1,18.5-18.1,46.8-4.6,10.4-8.8,21.1-12.9,32-8.2,21.4-14.9,41.4-20.2,60-1.4,4.5-2.5,9.2-3.4,14-.5,2.4-.7,4.2-.7,5.8.5-.1,1-.5,1.6-1.1l.4-.5c2.9-3.2,6.3-7.6,10.2-13,.4-.6.9-1.4,1.5-2.1,8.3-11.7,17.9-26.1,28.8-43.3,15.6-24.8,33.4-50.8,53.4-77.9,2.1-2.9,4-5.6,5.7-8.2,6.5-9.8,10.6-14.7,12.4-14.7s2.1.4,2.9,1.2c.4.4.6.9.6,1.5v.9c-4.6,8.6-10.6,19.3-18.1,32-7.1,11.8-13.3,24-18.5,36.5-5.8,14.3-11.1,28.7-15.6,43.2-2.1,6.8-4.3,16-6.5,27.7v.5c-1.2,6-2.5,13.3-3.6,21.9-1.9,12.8-2.7,23.1-2.7,31.2s1.4,14.3,4.1,18.3c.4.6.6,1.1.6,1.5,0,1.5-.7,2.2-2.4,2.2s-1.6-.2-2.1-.7ZM33.7,150.2c10.1-16.3,24.3-38.3,42.6-65.7l11.9-17.9c.6-1,.9-1.6.9-2-.6.2-1.2.7-1.7,1.4-5.6,6.2-11.8,14.3-18.6,24.3-11.4,16.9-23.1,36-35.2,57.3-8.1,13.9-12.3,22-12.7,24.2l12.8-21.6Z"/>
    <path class="st0" d="M178.1,152.8c-1.4-.1-2.5-1.1-3.5-3-.5-1.2-.7-2.5-.7-3.9,0-2.7.7-5.6,2.4-8.7-2.4,1.6-5.1,3.2-8.3,5.1-5,2.9-8.1,4.2-9.2,4.2s-1.5-.2-2.2-.7c-.6-.5-1-1.2-1-2s.2-1.5.6-2.2c1.5-5.1,4.6-9.8,9.6-14.2,2.1-1.7,4.5-2.6,7.1-2.6s1,0,2.5.1c1.5.1,2.9,1.1,4.2,3.1l.2.2c.1,0,.5-.1.9-.5.5-.4,1-.5,1.5-.5.7,0,1.4.1,1.9.6s.7,1,.7,1.5-.5,2-1.7,4.3c-2.9,5.2-4.3,9.2-4.3,11.9s1,3.1,3.1,3.1,5.1-.7,8.9-2.1c6-2.2,11.9-5,17.9-8.2,6-3.1,9.9-5.5,11.9-6.8.2-.2.5-.2.7-.2.6,0,1,.4,1,1.4s-.1.5-.4.7c-3.4,2.7-7.7,5.7-13.2,8.8-5.6,3.2-11.1,5.8-16.6,7.9-4.2,1.7-7.9,2.6-11.2,2.6s-1.5,0-2.7-.1ZM165.2,138.3c4.6-2.7,8.1-5,10.6-6.8-.9-1.1-1.7-1.6-2.9-1.6s-.9.1-1.2.2c-3.2,1.4-6.1,4-8.4,7.9v.6c0,.4,0,.5.2.5s.9-.2,1.7-.9Z"/>
    <path class="st0" d="M200.9,192.3c-.7-.1-1.5-.9-2.1-2-.4-.6-.5-1.4-.5-2.2s.1-1.7.4-2.9c1.9-7.5,6-17.9,12.2-31.3,6.1-13.4,12.7-26.7,19.5-39.9,6.8-13.2,12.2-23.1,16.1-29.8.4-.7.6-1.4.6-1.6,0-.5-.4-.6-1.2-.6l-16.8.6c-15.5.1-30.9,1.2-46.2,3.6h-2.1c-.6.1-1.2.1-1.9-.1-.6-.1-1.2-.5-1.6-1-.4-.4-.6-.7-.7-1-.1-.1-.1-.4-.2-.5,0-.1-.1-.4-.1-.6,0-1.9,1.1-3.2,3.2-4.2,2.9-.9,5.7-1.2,8.6-1.2s2.1,0,3.1.1c1.9.1,3.7.1,5.6.1,9.2-.4,20.2-.6,33-.7,7.3-.1,13.7-.2,18.9-.4,1.5-.1,2.5-.9,3.2-2.1.6-1.4,2-3.6,4-6.7,5.1-8.3,8.7-13.5,10.6-15.6,1.1-1.2,2.2-2,3.5-2s2,.5,3,1.4c.2.2.4.6.4.9s-.1.6-.2,1.1c-.6,1.4-1.1,2.2-1.5,2.4-2.4,4.2-6.2,10.4-11.3,18.6-.4.6-.6,1.1-.6,1.5s.4.4,1.2.4c2.7-.1,6.2-.1,10.4-.1h19.5c37.3.7,59.4,1.2,66.5,1.9,1.1.1,1.6.6,1.6,1.6s-.4,2.2-1.2,3.4c-.2.4-.5.5-.7.5s-.5,0-.9-.1c-.4-.1-.9-.4-1.4-.5-.5-.1-.9-.4-1.1-.5-.4-.1-.6-.1-.7-.1-11.3-.9-33.5-1.4-66.8-1.5-13.5,0-23,.2-28.2.6-2,.4-3.4,1.7-4.3,4.1-25.2,44.6-41.4,77.8-48.4,99.6-.4,1-.5,2-.5,3,.4.2.7.4,1.1.5s.7.4.9.5c.2.1.4.2.4.5,0,1-.7,1.9-2.2,2.4-.6.2-1.2.4-1.9.4s-1,0-1.7-.1Z"/>
    <path class="st0" d="M245.5,151.4c-1-2-1.6-4.5-1.7-7.3,0-1.6.4-3.5,1-5.8,3.4-7.8,9.2-13.7,17.5-17.3,2-.6,3.9-.9,5.6-.9,3.4,0,5.1,1.9,5.1,5.5s-1.7,6-5.2,8.9c-7,4.7-11.8,7.1-14.4,7.1s-2.1-.4-2.7-1c-.4,1.5-.5,2.9-.5,4s.1,1.7.4,2.4c1.2,2.6,3.4,4,6.5,4,6.1,0,13.8-2.2,23.1-6.6s16.6-8.6,22.1-12.7c.2-.1.5-.2.6-.2.5,0,.9.4,1,1.1,0,.2-.1.5-.4.7-5.2,5-12.4,9.8-21.7,14.7-9.3,4.8-18,7.7-26.2,8.6-5-.4-8.3-2.1-9.9-5.1ZM261.4,131.9c3.1-2.4,5-4.3,5.2-5.7-5,1.7-9.3,5.2-13.2,10.3,2.7-1,5.3-2.5,7.9-4.6Z"/>
    <path class="st0" d="M230.6,229.5c-1.2-1.6-1.9-3.6-1.9-6.1,0-4.1,1.4-8.7,4-14,7.1-14.3,16.9-26.3,29.4-36.3,7.1-5.6,14.4-10.4,21.9-14.7,1.1-.7,2-1.7,2.6-3,3.5-6,7.8-13,12.9-21.1,2.4-3.9,4.1-6.5,5.2-7.8.9-1,1.9-1.6,2.9-1.6s2.4.6,3,1.9c.5.7.6,1.4.6,2s-.1,1.2-.5,1.9l-2,3.4c-2.1,3.7-3.5,5.8-4.2,6.3-.4.2-.6.6-.7,1-1.2,2.1-2.4,3.9-3.4,5.2-1,1.4-2.1,3.2-3.5,5.6v1.1c16.1-8.4,32.7-15.8,49.7-21.9h.4c.1-.1.2,0,.5.1.1.1.2.4.2.6s0,.2-.1.5c-.1.1-.2.2-.4.4-18,7.8-35.6,16.5-52.9,26-1.4.9-2.4,2-3,3.5-2.5,4.3-5,8.9-7.6,13.7-7,12.8-13.2,23.4-18.6,31.7-10.8,16.1-20.4,24.2-28.9,24.2s-4.2-.9-5.6-2.5ZM250.7,215.5c4.7-5.8,8.8-11.6,12.3-17.4,3.4-5.7,6.7-11.7,9.9-17.8l6.2-11.6,1.2-2.5-1.6.7c-11.9,7.3-22.4,16.9-31.2,28.7-6.2,8.9-10.6,17-12.8,24.2-.6,2.2-1,4-1,5.3s.5,1.9,1.5,1.9h.2c5-1.2,9.9-5.2,15.2-11.7ZM314.3,109.9c-.4-1.1-.5-2.1-.5-2.6,0-1.2.4-2.4,1-3.5,1-1.5,2.4-2.1,4.3-2.1s3.7.7,4.1,2.2c.2,1.1.4,1.9.4,2.4,0,1.2-.2,2.5-1,3.6-.9,1.6-2.4,2.4-4.5,2.4-2.2-.4-3.5-1.1-3.9-2.4Z"/>
    <path class="st0" d="M361.3,152.8c-1.4-.1-2.5-1.1-3.5-3-.5-1.2-.7-2.5-.7-3.9,0-2.7.7-5.6,2.4-8.7-2.4,1.6-5.1,3.2-8.3,5.1-5,2.9-8.1,4.2-9.2,4.2s-1.5-.2-2.2-.7c-.6-.5-1-1.2-1-2s.2-1.5.6-2.2c1.5-5.1,4.6-9.8,9.6-14.2,2.1-1.7,4.5-2.6,7.1-2.6s1,0,2.5.1c1.5.1,2.9,1.1,4.2,3.1l.2.2c.1,0,.5-.1.9-.5.5-.4,1-.5,1.5-.5.7,0,1.4.1,1.9.6.5.5.7,1,.7,1.5s-.5,2-1.7,4.3c-2.9,5.2-4.3,9.2-4.3,11.9s1,3.1,3.1,3.1,5.1-.7,8.9-2.1c6-2.2,11.9-5,17.9-8.2,6-3.1,9.9-5.5,11.9-6.8.2-.2.5-.2.7-.2.6,0,1,.4,1,1.4s-.1.5-.4.7c-3.4,2.7-7.7,5.7-13.2,8.8-5.6,3.2-11.1,5.8-16.6,7.9-4.2,1.7-7.9,2.6-11.2,2.6s-1.5,0-2.7-.1ZM348.4,138.3c4.6-2.7,8.1-5,10.6-6.8-.9-1.1-1.7-1.6-2.9-1.6s-.9.1-1.2.2c-3.2,1.4-6.1,4-8.4,7.9v.6c0,.4,0,.5.2.5s.9-.2,1.7-.9Z"/>
    <path class="st0" d="M31.1,357.5c-12.9,0-19.4-4.8-19.4-14.8s3.9-13.4,11.4-22.2c8.1-9.3,19.3-19,33.7-29.3,11.8-8.3,23.2-15.5,34.4-21.2.6-.4.9-.6.9-.9s-.1-.4-.5-.6c-5.5-3.6-14.9-7.7-28.3-12.3-13.3-4.7-22.4-8.6-27.2-11.6-7.3-4.6-10.9-9.9-10.9-15.9s2-8.6,6-13.2c8.7-9.8,21.7-19.5,39.4-29.3,12.4-6.8,25.1-11.7,38-14.3,4.5-1,8.3-1.4,11.4-1.4s4.8.2,7.1.7c5.8,1.6,8.8,5.2,8.8,11.1s-1.1,7.6-3.4,11.6c-4.7,8.1-10.9,16-18.6,23.7-1.5,1.2-2.4,2.5-2.7,3.6-.2.6-.9,1.2-1.7,1.6-.9.4-1.7.6-2.6.6h-1.1c-.6-.1-1.4-.5-2-1.2s-1-1.6-1-2.2c0-1.6,1-3.1,2.7-4.6,1.9-1.5,4-3.5,6.3-6,6-6.2,10.3-11.9,13-17.1,1.9-3.6,2.9-6.6,2.9-8.7,0-3.4-2.5-5-7.6-5s-8.9.9-14.9,2.6h-.2c-24.3,6.7-45.5,18-63.1,34.2-2.6,2.4-5,5.1-6.8,8.1-1.6,2.7-2.5,5.1-2.5,7.1s.1,1.4.4,2.7c.5,2.6,4,5.8,10.6,9.6,5.5,3,13.4,6.3,23.7,10.1,13.2,4.7,23.1,9.2,29.6,13.2.6.4,1.1.6,1.7.6s.7-.1,1.1-.2c7.9-3.1,14.7-4.6,20.4-4.6s4.2.1,6.3.5c3.7.5,6.2,2.7,7.2,6.6h-.5c-.4,0-.7-.1-1-.5,0-.4-.4-1-1.2-1.9-1.6-1.5-4.6-2.2-9.2-2.2l-4,.2c-4.3.2-9.6,1.6-15.4,4.2-.4.1-.5.4-.5.6s.2.6.9,1c4.2,3.5,7.2,7.1,9.1,10.4,1.2,2.6,2,5.7,2,9.3,0,6.8-3.4,14.9-10.2,24.3-8.9,11.9-20.7,22.2-35.5,31.1-12.5,7.6-24.2,11.4-35,11.9h-1.7ZM44,352c11.1-3.4,21.4-8.6,30.9-15.7,9.6-7.1,17.9-15.2,24.7-24.2,6.2-8.2,9.3-15.4,9.3-21.9s-.6-4.8-1.6-7.9c-1.1-3.1-4.1-6.3-9.2-9.7-.5-.4-1.1-.5-1.7-.6-.7,0-1.4.1-2,.4-13.2,6.3-27,14.9-41.4,25.7-16.5,12.4-28.1,24.1-34.4,35-1.6,3-2.4,6.1-2.4,9.3s.5,4,1.4,5.8c.9,2,2.7,3.4,5.6,4.2,2.9.7,5.8,1.1,8.9,1.1s8.2-.5,11.8-1.6Z"/>
    <path class="st0" d="M126.7,306.1c0-5.6,3.2-13.5,9.7-23.8,2.4-3.9,4.1-6.2,5.1-7.3,1.4-1.5,2.9-2.2,4.5-2.2s1.6.2,2.2.7c1,.7,1.5,2,1.5,3.5s-.2,1.2-.5,1.7l-2,2.4c-1.1,1.1-3,3.5-5.3,7.2-5.2,7.6-7.8,12.4-7.8,14.7s.6,2.1,1.9,2.1c3.5,0,10.7-6.3,21.9-18.8,3.1-3.4,5.2-5.6,6.3-6.6l1-.9c1.7-1.7,3.1-2.6,4.1-2.6s.9.1,1.2.4c1.6,1.1,2.4,2.6,2.4,4.3s-.7,3.5-2.1,7.6c-2.6,6.3-3.9,10.8-3.9,13.3s.4,1.9,1.2,2c8.2-.6,21.6-8.2,40.1-22.5.6-.5,1.1-.7,1.5-.7.5.1.7.5.7,1,0,.7-4.7,4.8-14.2,12.2-12.5,9.9-22.6,14.9-29.9,14.9h-.7c-3.2-.6-4.8-3.1-5-7.2,0-4.6,1.2-10.2,3.6-16.6-1.6,1.7-3.6,4-6,6.7-3.9,4.6-8.1,9.2-12.7,13.5-4.6,4.3-8.8,6.8-12.8,7.2-4.1-.5-6.1-2.6-6.1-6.1Z"/>
    <path class="st0" d="M205.3,307.7c-2.4-1-3.5-3.6-3.5-8.1s1.2-9.9,3.7-15c2.5-5.1,5.5-9.4,8.9-13.3,3.2-3.4,6.1-5.1,8.6-5.1s1.5.1,3,.5c1.6.4,2.9,2,3.7,4.6.2.9.4,1.6.4,2.5,0,1.6-.6,3.1-1.7,4.5-.4.4-.9.5-1.4.5-1.1,0-1.9-.6-2.4-2-.1-.5-.6-1.6-1.5-3.2-.9.1-1.7.6-2.4,1.2-3.4,2.9-6.2,6.5-8.6,11.1-2.9,5.3-4.2,9.9-4.2,14s1,5,3.1,5,3.4-.5,5.6-1.2c6.3-2.1,12.9-5.5,19.9-9.8,6.8-4.3,12.8-8.6,17.8-12.9.4-.2.9-.4,1.2-.4.4.1.5.2.6.5,0,.4-.2.7-.7,1.2-4.6,4.7-10.4,9.6-17.8,14.7-7.3,5.1-14.2,8.7-20.5,10.8-2.4.7-4.6,1.1-6.5,1.1s-3.4-.4-5.5-1.1ZM224.2,256.9l.2-1.2c1.2-7.2,2.6-10.8,4.1-10.8s1.2.2,1.2.9c0,1.5-.1,2.5-.4,3-.1.9-.2,1.6-.5,2.5-.2.9-.5,2-.7,3.4,1.1-1,2-1.6,2.7-2,7.5-5.6,11.4-8.4,12.2-8.4s.9.4.9,1.1-.4.7-1,1.2c-2.1,1.6-6.5,5.2-13,10.9-1.2,1.1-2.4,1.7-3.4,1.7s-2.1-.7-2.4-2.2Z"/>
    <path class="st0" d="M251.1,300.5c-1-2-1.6-4.5-1.7-7.3,0-1.6.4-3.5,1-5.8,3.4-7.8,9.2-13.7,17.5-17.3,2-.6,3.9-.9,5.6-.9,3.4,0,5.1,1.9,5.1,5.5s-1.7,6-5.2,8.9c-7,4.7-11.8,7.1-14.4,7.1s-2.1-.4-2.7-1c-.4,1.5-.5,2.9-.5,4s.1,1.7.4,2.4c1.2,2.6,3.4,4,6.5,4,6.1,0,13.8-2.2,23.1-6.6,9.3-4.3,16.6-8.6,22.1-12.7.2-.1.5-.2.6-.2.5,0,.9.4,1,1.1,0,.2-.1.5-.4.7-5.2,5-12.4,9.8-21.7,14.7s-18,7.7-26.2,8.6c-5-.4-8.3-2.1-9.9-5.1ZM267,281c3.1-2.4,5-4.3,5.2-5.7-5,1.7-9.3,5.2-13.2,10.3,2.7-1,5.3-2.5,7.9-4.6Z"/>
    <path class="st0" d="M299.6,305.2c0-.7.1-1.6.4-2.6,3.4-14.8,7-24.3,10.8-28.8.4-.4,1.1-.6,2.1-.6s1.1.1,1.7.5c.6.4,1,.7,1.2,1.2.4.5.5,1,.5,1.4,0,.6-1.2,4-3.7,10.1-2.9,6.6-4.8,12.5-6,17.9v.2c0,.2,0,.4.2.4h.6c0-.1,9.4-8.4,9.4-8.4,11.4-10.7,21.6-18.9,30.7-24.7.5-.2.9-.2,1.2-.2h.7c.4,0,.6.1.9.5.1.4.2.6.2,1,0,.6-.1,1.1-.5,1.5-6.7,4.6-12.8,9.4-18.3,14.5-3.7,3.4-7.3,6.8-10.9,10.2l-9.8,9.2-1.1.7c-1.1,1.1-2.4,1.6-3.7,1.6-4.5-.1-6.8-2-6.8-5.5Z"/>
    <path class="st0" d="M345.9,299.8c.2-4.2,1.6-8.7,4.2-13.4,2.5-4.6,5.1-8.4,7.9-11.4,1.6-1.5,3.1-2.2,4.2-2.2,1.9,0,2.7.9,2.7,2.6s-1.1,2.9-3.2,6.2l-7.2,11.4c-1.4,2.2-2,4.2-2,5.8s1,3.1,3,3.1c3.2,0,9.3-2.1,18.3-6.5,7.2-3.4,12.8-6.3,16.6-8.8,1.4-.9,2.6-1.7,3.9-2.5l5.7-3.7c.6,0,1,.1,1.2.4,0,.5-.1.9-.5,1.1-5,4.6-12,9.3-21.2,14.3-9.2,5-17.1,8.2-23.7,9.8-1,.2-1.9.2-2.7.2-4.7,0-7.1-2.1-7.2-6.5ZM368.8,258.2c0-1.9.7-3.1,2.2-3.8,1.1-.5,2.1-.9,3.2-.9s2.4.2,3.9.7c1.5.4,2.2,1.1,2.2,2.1,0,1.7-2.2,3.5-6.5,5l-1.7.2c-2.2,0-3.4-1.1-3.4-3.4Z"/>
    <path class="st0" d="M397.5,307.7c-2.4-1-3.5-3.6-3.5-8.1s1.2-9.9,3.7-15,5.5-9.4,8.9-13.3c3.2-3.4,6.1-5.1,8.6-5.1s1.5.1,3,.5c1.6.4,2.9,2,3.7,4.6.2.9.4,1.6.4,2.5,0,1.6-.6,3.1-1.7,4.5-.4.4-.9.5-1.4.5-1.1,0-1.9-.6-2.4-2-.1-.5-.6-1.6-1.5-3.2-.9.1-1.7.6-2.4,1.2-3.4,2.9-6.2,6.5-8.6,11.1-2.9,5.3-4.2,9.9-4.2,14s1,5,3.1,5,3.4-.5,5.6-1.2c6.3-2.1,12.9-5.5,19.9-9.8,6.8-4.3,12.8-8.6,17.8-12.9.4-.2.9-.4,1.2-.4.4.1.5.2.6.5,0,.4-.2.7-.7,1.2-4.6,4.7-10.4,9.6-17.8,14.7-7.3,5.1-14.2,8.7-20.5,10.8-2.4.7-4.6,1.1-6.5,1.1s-3.4-.4-5.5-1.1Z"/>
  </g>
</svg>