<?xml version="1.0" encoding="UTF-8"?>
<svg id="Layer_1" xmlns="http://www.w3.org/2000/svg" version="1.1" viewBox="0 0 535 364">
  <!-- Generator: Adobe Illustrator 29.0.1, SVG Export Plug-In . SVG Version: 2.1.0 Build 192)  -->
  <defs>
    <style>
      .st0 {
        fill: #8e8888;
      }

      .st1 {
        fill: #fff;
      }
    </style>
  </defs>
  <g>
    <path class="st0" d="M22.7,295.8c-.5-.3-.7-1-.7-2,2.4-8.7,5.3-17.2,8.7-25.4,20.4-50.3,39.8-91.9,58.4-124.6l.9-1.7c-.9-.3-1.9-.4-3-.4-22.5,0-44.8,1.6-66.9,4.9-3.7.7-6.6,1-8.7,1s-3.4-1.2-3.4-3.5.5-2,1.4-2.3c1.4-.5,3-.9,4.4-1.2,12.7-2.4,25.6-3.7,38.9-3.7s4.7,0,7,0c2.2,0,4.4,0,6.6,0,3.2,0,6.5,0,9.8-.2,3.3,0,8.6,0,15.8,0s1.4-.3,1.6-.9c1.1-1.3,2-1.8,2.9-1.8s1.8.5,2.5,1.4c.3.5.5,1.1.5,1.7.3.2,1,.3,1.8.3,27.5.9,49.3,2.4,65,4.6h3c0,0,1.1,0,1.1,0,1.9,0,2.9.8,2.9,2.3s-.9,2.1-2.7,2.1c-2.6-.6-5-1.1-7.4-1.4-8.2-1.7-27.9-2.6-58.9-2.7-2.4,0-4.3,0-5.7,0-.8,0-1.4.4-1.7,1.2-4.4,8.4-8.9,16.5-13.2,24.3-13.7,24.8-26.2,49.4-37.4,73.4-11.2,24.1-18.5,41.7-21.7,53-.3,1.1-.9,1.5-1.5,1.5h-.2Z"/>
    <path class="st0" d="M105.5,246.7c-1.5-.5-2.7-1.7-3.5-3.7-.8-1.9-1.2-3.9-1.2-5.8s0-2.6.4-4.3c.6-3.4.9-5.9.9-7.3s0-1.5-.3-1.9c-1.6.5-2.9,1.3-3.9,2.1-5.4,3.7-9.9,8.2-13.5,13.5-2.5,3.8-4.7,5.6-6.4,5.6s-1.2-.2-1.7-.5c-.8-.6-1.2-1.3-1.2-2.1,0-1.4.6-3.3,1.9-5.6,19.1-34.7,33.8-57.7,44.1-69.1,2.9-2.7,5.7-4.1,8.3-4.1s4.3,1.6,4.3,5-1.4,7.2-4.1,12.6c-7.5,15-18.7,26.7-33.7,35.4-1.1.7-1.9,1.4-2.6,2.5l-4.8,8,.3.3c2.4-2,4.2-3.5,5.4-4.3,3.3-2.6,5.9-3.9,7.5-3.9,3,0,4.5,1.8,4.7,5.6,0,2,0,4.2-.4,6.4-.3,2.2-.5,4.3-.5,6.1s.2,2.7.5,3.8c.6,1.7,2.1,2.6,4.8,2.6,5.1,0,11.3-2.4,18.6-7.2,6.7-4.3,11.8-8.1,15.5-11.3.4-.3.8-.5,1.1-.5.5,0,.7.4.7.9s0,.8-.4,1.2l-.6.5c-13.4,12.1-24.6,18.8-33.8,20.3h-2c-1.4,0-3,0-4.5-.6ZM100.2,208.5c7.2-4.4,13.6-10.3,19.1-17.8,4.9-6.3,8.6-13,10.9-20.1.3-1.1.5-1.8.5-2.2,0-.6-.2-.8-.7-.8s-1.4.6-2.8,1.7c-4.9,4.3-10.4,11-16.5,20.3-4.7,7.1-8.3,13-10.9,17.8-.3.4-.5.8-.5,1.1s0,.3.2.3c.2,0,.4,0,.7-.3Z"/>
    <path class="st0" d="M142.3,240.1c-.8-1.5-1.3-3.5-1.4-5.7,0-1.3.3-2.7.8-4.5,2.6-6.1,7.1-10.6,13.6-13.4,1.5-.5,3-.7,4.3-.7,2.6,0,4,1.4,4,4.3s-1.4,4.6-4.1,7c-5.4,3.7-9.2,5.5-11.2,5.5s-1.6-.3-2.1-.8c-.3,1.2-.4,2.2-.4,3.1s0,1.4.3,1.8c1,2,2.6,3.1,5,3.1,4.7,0,10.7-1.7,18-5.1,7.2-3.4,12.9-6.7,17.2-9.9.2,0,.4-.2.5-.2.4,0,.7.3.8.9,0,.2,0,.4-.3.6-4.1,3.9-9.7,7.6-16.9,11.4-7.2,3.8-14,6-20.4,6.7-3.9-.3-6.5-1.6-7.7-4ZM154.7,224.9c2.4-1.8,3.9-3.4,4.1-4.4-3.9,1.4-7.2,4.1-10.2,8,2.1-.8,4.2-1.9,6.2-3.6Z"/>
    <path class="st0" d="M222.8,280.4c0-2.3.2-4.2.7-5.8,2.5-10.7,6.7-22.8,12.6-36.2,2.6-6,5.1-12.4,7.6-19,9.7-26.7,20.4-50.6,32-71.9.3-.5.4-.9.4-1.3s0-.8-.2-1.1c0-.4,0-.7,0-1.2v-.9c0-1.3,1.3-3.2,3.8-5.8,1.9-2,3.5-3.1,4.4-3.1s1,0,1.6.2c.7.2,1.3.6,1.9,1.1.6.6.9,1.1.9,1.6,0,1.3-.5,2.7-1.4,4.5-1.1,1.8-2.7,5-5.1,9.7-15.8,30-24.2,46.8-24.7,50.1.5-.4.9-.9,1.1-1.4l.2-.3c12.9-21.9,27.1-39.8,42.6-53.6,3.6-3.1,7.1-5.3,10.6-6.8,2.1-.9,4.3-1.4,6.3-1.4,3.7,0,6.1,1.8,7.3,5.4.7,1.9,1,4.4,1,7.5,0,6.7-1.1,14.1-3.2,22.3-2.2,8.2-5.3,16.4-9.3,24.8-8.4,17.7-17.4,29.8-26.9,36.1-4.5,3.1-9,4.6-13.2,4.6s-8.8-1.3-12.4-3.9c-3.3-2.3-4.9-5.7-4.9-10s.6-6.5,1.7-6.5c.5,0,.8.6.8,1.3v2.9c0,6.1,2.3,10.1,7.2,12.1,1.9.8,4,1.2,6.2,1.2,5.2,0,10.2-2.1,15.1-6.4,8.5-7.5,16.1-18.7,23.1-33.7,3.9-8.4,6.9-16.7,9.1-24.7,2-7.4,3-13.7,3-19s-.5-7-1.4-8.6c-.7-1.3-1.7-1.8-3.3-1.8-4,0-8.8,2.3-14.3,7-8,7.1-15.6,15.3-22.8,24.5-14.2,18.3-25.8,37.9-34.8,58.7-4.1,9.4-7.1,17.6-9,24.6-2.4,7.7-4.7,15.5-6.8,23.2,0,.7-.5,1.4-1,2.2-1.2,1.9-2.4,2.8-3.8,2.8s-2.7-1.4-2.7-4.3Z"/>
    <path class="st0" d="M332,241.1c-1.1,0-1.9-.9-2.7-2.3-.4-1-.6-1.9-.6-3,0-2.1.6-4.3,1.8-6.8-1.8,1.3-4,2.5-6.5,4-3.9,2.2-6.3,3.3-7.1,3.3s-1.2-.2-1.7-.6c-.5-.4-.8-1-.8-1.5s.2-1.2.5-1.7c1.2-4,3.6-7.6,7.4-11,1.6-1.4,3.5-2,5.5-2s.8,0,1.9,0c1.2,0,2.2.9,3.3,2.4l.2.2c0,0,.4,0,.7-.4.4-.3.8-.4,1.2-.4.6,0,1.1,0,1.4.5.4.4.6.8.6,1.2s-.4,1.5-1.4,3.4c-2.2,4.1-3.4,7.1-3.4,9.3s.8,2.4,2.4,2.4,4-.6,7-1.6c4.6-1.7,9.3-3.9,13.9-6.4,4.6-2.4,7.7-4.3,9.3-5.3.2-.2.4-.2.6-.2.5,0,.8.3.8,1.1s0,.4-.3.6c-2.6,2.1-6,4.4-10.2,6.9-4.3,2.5-8.6,4.5-12.9,6.2-3.3,1.4-6.2,2-8.7,2s-1.2,0-2.1,0ZM322,229.8c3.6-2.1,6.3-3.9,8.2-5.3-.7-.9-1.4-1.3-2.2-1.3s-.7,0-1,.2c-2.5,1.1-4.7,3.1-6.6,6.2v.5c0,.3,0,.4.2.4s.7-.2,1.4-.7Z"/>
    <path class="st0" d="M365.1,259.4c-1.5-1.6-2.2-3.7-2.2-6.3,0-3.8,2.1-9.3,6.4-16.2,2.1-3.4,3.2-5.5,3.2-6.5s-.5-1.4-1.3-1.8c-.9-.4-1.9-.8-3.3-1.1-1.4-.3-2.6-.7-3.7-1.3-.7-.6-1-1.4-1-2.3,0-2.2,1.1-4.4,3.2-6.9.6-.6,1.4-1,2.4-1,1.6,0,2.8.7,3.7,1.9.2.4.3.8.3,1.2,0,.8-.4,1.6-1.2,2.6,4.6,1.4,7,3.8,7,6.9s0,1.2-.2,1.8c-.3,1.2-1.4,3-3.3,5.6-1.9,2.6-3.8,5.5-5.4,8.6-1.6,3.1-2.5,6.1-2.5,8.9s1.5,4,4.4,4,4.1-.8,6.7-2.1c6.7-4.2,13.8-9.7,21.4-16.6l8.9-7.5c4.5-3.6,7.9-5.8,10.2-6.7.3,0,.5,0,.5.4v.4c-2.4,1.3-5.6,3.8-9.6,7.3l-5.7,5.1c-4,3.8-8.1,7.5-12.4,11.2-9.6,8.1-16.8,12.3-21.6,12.3s-4-.7-5-1.9Z"/>
    <path class="st0" d="M401.7,271.9c-.6,0-1.2-.7-1.6-1.5-.3-.5-.4-1.1-.4-1.7s0-1.4.3-2.2c1.4-5.8,4.6-13.9,9.5-24.3,4.7-10.4,9.9-20.8,15.2-31,5.3-10.2,9.5-18,12.6-23.2.3-.6.5-1.1.5-1.3,0-.4-.3-.5-1-.5l-13,.5c-12.1,0-24.1,1-35.9,2.8h-1.6c-.5,0-1,0-1.4,0-.5,0-1-.4-1.3-.8-.3-.3-.5-.6-.6-.8,0,0,0-.3-.2-.4,0,0,0-.3,0-.5,0-1.4.9-2.5,2.5-3.3,2.2-.7,4.4-1,6.7-1s1.6,0,2.4,0c1.4,0,2.9,0,4.3,0,7.1-.3,15.7-.5,25.7-.6,5.7,0,10.6-.2,14.7-.3,1.2,0,1.9-.7,2.5-1.6.5-1.1,1.5-2.8,3.1-5.2,4-6.5,6.8-10.5,8.2-12.2.9-1,1.7-1.5,2.7-1.5s1.5.4,2.3,1.1c.2.2.3.5.3.7s0,.5-.2.9c-.5,1.1-.9,1.7-1.2,1.8-1.8,3.3-4.8,8.1-8.8,14.5-.3.5-.5.9-.5,1.2s.3.3,1,.3c2.1,0,4.8,0,8.1,0h15.2c29,.6,46.2,1,51.7,1.4.9,0,1.3.5,1.3,1.3s-.3,1.7-1,2.6c-.2.3-.4.4-.6.4s-.4,0-.7,0c-.3,0-.7-.3-1.1-.4s-.7-.3-.9-.4c-.3,0-.5,0-.6,0-8.8-.7-26.1-1.1-52-1.2-10.5,0-17.9.2-21.9.5-1.5.3-2.6,1.4-3.4,3.2-19.6,34.7-32.2,60.5-37.7,77.5-.3.8-.4,1.5-.4,2.3.3.2.6.3.9.4.3,0,.6.3.7.4.2,0,.3.2.3.4,0,.8-.6,1.4-1.7,1.8-.5.2-1,.3-1.4.3s-.8,0-1.4,0Z"/>
    <path class="st0" d="M398.9,304.2c0-.8-.2-1.5-.2-2.3,0-3.3,1.1-6.9,3.1-10.8,5.2-9.4,11.9-17.5,19.9-24.5,8-7,16.4-13.4,25.1-19.4,1.3-.9,2.2-1.8,2.8-2.9l8.3-14.8h-.2c0,0-2,1.5-2,1.5-10.2,9.7-16.7,14.4-19.5,14.4s-1.6-.3-2.3-.9c-1-.9-1.4-2.1-1.4-3.8,0-3.4,1.3-7.3,3.8-11.7,2.1-3.8,4.3-6.7,6.5-8.7,1.4-1.3,2.6-1.8,3.6-1.8s1.4.6,1.4,1.8-.7,2.1-1.9,4c-3.4,4.3-6,9-7.9,13.9-.2.5-.3,1.3-.3,2.1v.9c2.9-1.2,6.8-3.8,11.6-7.8,2.2-1.7,6.4-5.5,12.6-11.3.9-.9,1.5-1.3,2.2-1.3s.4,0,.7.3c.3,0,.5.4.7.9,0,.5.2.9.2,1.2-.3.8-2,4.2-5.4,10.4-2,3.6-3.1,5.8-3.3,6.9,9.7-6.7,19.8-12,30.3-15.8l1.3-.3c.4,0,.6.4.6.8s-.3.8-.7,1l-6.3,2.5c-6,2.6-15.2,8.4-27.4,17.2-.9.7-1.5,1.4-2,2.4-1.4,2.6-2.6,5-3.8,7.4-9.9,20.6-20.8,36.6-32.8,48.1-1.6,1.5-3.7,2.7-6,3.6-1.7.7-3.5,1-5.1,1-3.6,0-5.5-1.4-5.9-4.1ZM414,301c6.8-6.5,12.5-13.7,17.2-21.9,6.4-10.6,11.1-19.6,14.2-27-19.3,12.8-32.9,26.1-40.8,39.8-1.9,3.5-2.9,6.8-2.9,9.8s0,.9,0,1.8c0,1.1,1.2,1.6,3.1,1.7,3.3,0,6.3-1.4,9.1-4.3Z"/>
  </g>
  <g>
    <path class="st1" d="M96.6,79.8l3.4,12.3c0,.4.2.6.4.6s.4-.2.5-.5l3.7-10.5c.1-.4.2-.7.3-1.1s.1-.7.1-1,0-.2,0-.4,0-.2,0-.3c-.2-.2-.4-.4-.6-.5s-.4-.3-.7-.4-.5-.2-.7-.2-.5-.1-.7-.2c0,0-.1,0-.1-.2s0-.3.2-.3.3,0,.4,0c.2,0,.5,0,.9,0s.7,0,1.1,0,.8,0,1.2,0,.7,0,1.1,0,.6,0,.9,0,.6,0,.9-.1c.1,0,.3,0,.4,0s.3,0,.4,0,.1,0,.2,0,.1,0,.2,0,.1,0,.2,0,0,0,0,.1c0,0,0,.2-.3.3s-.4.2-.7.3-.5.2-.8.2-.4.1-.5.2c-.1,0-.3.2-.4.3s-.3.3-.5.5-.3.3-.4.5-.2.3-.2.3l-5.8,14.8c0,.2-.1.4-.2.7s-.2.6-.3.9-.2.6-.3.9-.2.5-.2.6c0,.3-.2.4-.4.4s-.2,0-.2-.2-.1-.2-.1-.3c-.5-1.8-1.1-3.7-1.6-5.6s-1.1-3.8-1.7-5.7c0-.1,0-.2-.2-.2s-.2,0-.2.2l-3.9,9.5c0,0,0,.2-.1.4s-.1.4-.2.6-.1.4-.2.7-.2.4-.2.5c0,.1-.1.2-.2.2s-.2,0-.3,0-.1-.2-.2-.3l-6.8-17.5c0-.1-.1-.3-.2-.5s-.2-.4-.4-.6-.3-.4-.5-.6-.4-.3-.7-.4c0,0-.1,0-.2,0s-.2,0-.3,0c-.1,0-.3,0-.4,0s-.3,0-.4,0-.2,0-.3-.2-.1-.2-.1-.3c0-.2,0-.3.1-.4s.2,0,.4,0,.3,0,.6,0h1.1c.4,0,.8,0,1.3.1s.8,0,1.2,0,.6,0,1,0,.6,0,.9,0,.6,0,.8,0,.4,0,.6,0h.3c.2,0,.4,0,.6.1s.3.2.3.3,0,.2-.1.3-.2.1-.2.1h-1c-.3,0-.5,0-.7.1s-.3.2-.4.3c0,0-.1.2-.1.4s0,.3,0,.4,0,.2,0,.4,0,.3.1.5.1.4.2.6.1.4.2.5l4.3,11.2c0,.2.2.3.3.4s.2.2.3.2.2-.2.4-.6c.2-.4.4-.8.6-1.3s.5-1.1.7-1.6.5-1.1.7-1.7.4-1.1.6-1.6.2-.6.3-.9,0-.5,0-.6c0-.2,0-.6,0-.9s-.1-.8-.3-1.2-.2-.9-.4-1.3-.3-.9-.5-1.3-.4-.7-.6-1-.4-.5-.6-.6c0,0-.1,0-.3,0s-.3,0-.4,0-.2,0-.3,0-.3,0-.5,0-.3,0-.5,0-.3,0-.3,0c-.2,0-.2-.1-.3-.2s0-.1,0-.2,0-.2.1-.3.2-.1.3-.1c.4,0,.8,0,1.1,0s.6,0,1,0,.7,0,1,0,.8,0,1.3,0,.9,0,1.3,0,.7,0,1,0,.7,0,1,0,.7,0,1.1,0,.3,0,.3.2,0,.3,0,.4,0,.1,0,.1-.1,0-.2,0-.2,0-.2,0-.1,0-.1,0h-1.4c0,0-.1,0-.2,0s-.2,0-.2.1-.1.1-.2.2,0,.2,0,.4,0,.4,0,.6,0,.3,0,.5Z"/>
    <path class="st1" d="M121.2,88.8h-10.1c-.1,0-.2,0-.2.1s0,.1,0,.3c0,0,0,.3,0,.6s0,.6,0,1,0,.7.1,1.1.2.7.3,1c.4,1.2,1.1,2.1,1.9,2.8s2,1,3.4,1,.4,0,.7-.1.5-.2.8-.3.5-.3.7-.4.4-.3.6-.5c.1-.1.2-.3.3-.4s.2-.3.3-.6c0,0,0,0,.2,0s.1,0,.2,0c.2,0,.3,0,.4.2s0,.3,0,.4,0,.1,0,.2,0,.2-.1.3,0,.2-.1.3,0,.1-.1.2c-.4.6-.8,1-1.4,1.5s-1.2.8-2,1c-.2,0-.5,0-.9.1s-.9,0-1.4,0-.9,0-1.4-.2-.9-.3-1.4-.5-.8-.5-1.2-.7-.7-.6-.9-.9c-.5-.7-.9-1.5-1.2-2.2s-.4-1.6-.4-2.5,0-.6,0-.9,0-.6.2-.9.2-.6.3-.8.3-.6.5-.9c.3-.5.7-1,1.1-1.5s.9-.8,1.4-1.2,1-.6,1.6-.7,1.2-.3,1.9-.3,1.1,0,1.7.2,1.2.4,1.7.7c.2.1.4.3.7.6s.6.6.9.9.6.7.8,1,.3.7.3,1,0,.2,0,.2,0,0-.2,0ZM111.5,88h6.5c.2,0,.3,0,.3,0s0,0,0-.1c0-.2,0-.5-.2-.7s-.2-.5-.4-.7-.3-.4-.5-.6-.3-.3-.4-.4c-.3-.3-.6-.4-.9-.5s-.7-.1-1.1-.1-.3,0-.5,0-.3,0-.4,0-.3,0-.4,0-.3,0-.5.2c-.2,0-.4.2-.6.4s-.4.4-.6.7-.4.5-.5.8-.2.6-.2.9,0,.2.3.2Z"/>
    <path class="st1" d="M136.5,96.1h0c0,0,0,.1-.2.3s-.3.3-.5.5-.4.3-.5.5-.3.2-.3.2c-.3.2-.7.3-1.1.5s-.8.2-1.3.2-.7,0-1-.1-.7-.3-.9-.5-.5-.6-.7-1-.3-.9-.3-1.5,0-.5.2-.9.3-.7.6-.9c.3-.3.6-.6.9-.8s.7-.4,1.1-.6.8-.3,1.3-.5,1-.3,1.6-.4c.1,0,.3,0,.4-.1s.3,0,.4-.1.3,0,.4-.1.2,0,.2,0c0,0,0,0,.1-.1s0,0,0-.2c0-.2,0-.5.1-.7s0-.5,0-.8,0-.5,0-.7,0-.4,0-.6c0-.4,0-.7-.2-1.1s-.3-.6-.6-.9-.5-.4-.9-.6-.7-.2-1.1-.2-.6,0-.9.2-.6.3-.9.6-.5.5-.6.8-.2.6-.2.9,0,.3.1.4.2.2.2.2.2.2.2.3.1.2.1.4c0,.4-.1.7-.4.9s-.6.3-.9.3-.4,0-.6-.1-.3-.2-.4-.4-.2-.3-.3-.5,0-.4,0-.6,0-.4.2-.6.2-.4.4-.7.3-.4.5-.6.3-.3.4-.5c.2-.2.4-.4.6-.5s.4-.3.6-.5c.2-.1.3-.2.5-.3s.3-.1.5-.2c0,0,.2,0,.4-.1s.4-.1.6-.2.4,0,.7-.1.5,0,.7,0c.5,0,.9,0,1.4.2s.8.3,1.2.6.6.6.8,1.1.3.9.3,1.5,0,1.3-.1,2-.1,1.4-.2,2-.2,1.2-.2,1.7-.1,1-.1,1.3,0,.4,0,.6,0,.5.2.7.2.4.3.6.3.2.6.2.5,0,.8-.2.5-.3.7-.5.4-.4.6-.6.3-.5.4-.7c0,0,0,0,0-.1s0,0,.1,0,0,0,0,.1h0c0,.6,0,1-.2,1.4s-.4.8-.7,1.2-.7.6-1.1.9-1,.3-1.6.3-.2,0-.4,0-.3,0-.4,0c-.3-.1-.5-.3-.6-.4s-.3-.3-.4-.5-.2-.3-.3-.5-.2-.4-.3-.6ZM131.8,95.5c0,.2,0,.5.1.6s.2.3.4.4.3.2.5.2.4,0,.6,0,.5,0,.7,0,.5-.1.7-.2.4-.2.6-.3.3-.2.5-.3c.2-.2.4-.4.4-.7,0-.7,0-1.4.1-2s.1-1.3.1-1.9,0-.1,0-.2,0-.1-.1-.1-.2,0-.3,0-.2,0-.2,0c-.4.2-.8.3-1.3.5s-.8.4-1.2.6c-.3.1-.5.3-.7.6s-.4.5-.5.8-.3.6-.3.9-.1.6-.1.9Z"/>
    <path class="st1" d="M145.6,97v-8c0-.3,0-.6,0-.9s0-.6,0-.9,0-.5-.2-.7-.2-.3-.3-.4c-.2-.1-.5-.2-.9-.2s-.4,0-.6,0-.4,0-.5,0,0,0-.1,0,0,0,0-.1c0-.1,0-.2.1-.2.3-.2.6-.3.9-.4s.6-.2,1-.3c.3,0,.6-.2.9-.3s.6-.2.8-.4c.2,0,.3-.2.5-.3s.3-.1.6-.1.1,0,.2.1,0,.1,0,.2v.8c0,0,0,.2,0,.3v.3c0,.1,0,.2,0,.3s0,.2,0,.2,0,0,0,0h0c0,0,.1,0,.2,0s.1-.1.2-.2.1-.2.2-.3.2-.3.3-.4c.2-.2.4-.4.6-.5s.5-.3.7-.4.5-.2.8-.3.5-.1.8-.1c.4,0,.8,0,1.1,0s.7.2,1.1.3.6.4.8.7.3.7.3,1.1,0,.5-.2.7-.2.4-.4.5-.4.3-.6.3-.4.1-.7.1-.3,0-.5,0-.3-.1-.3-.2c-.3-.3-.5-.6-.6-1.1,0-.3,0-.5,0-.7s0-.3-.1-.4-.2-.2-.3-.2-.4,0-.7,0-.5,0-.8.2-.5.3-.7.5-.4.4-.6.7-.3.5-.3.7c0,.2,0,.4,0,.7s0,.5,0,.8v8.8c0,.1.2.2.3.2s.3,0,.5,0,.1,0,.2,0,.2,0,.3,0,.2,0,.3,0,.1,0,.2,0c.2,0,.4,0,.5,0s.2.2.2.3,0,.2-.2.3-.2.2-.3.2c-.5,0-1.1-.2-1.6-.2s-1.1,0-1.7,0-1.1,0-1.6,0-1,0-1.6,0-.2,0-.4-.1-.2-.2-.2-.3,0-.1,0-.2.1-.1.2-.1.1,0,.2,0,.1,0,.2,0c.1,0,.2,0,.3,0s.2,0,.3,0c0,0,.2,0,.3,0s.2,0,.3,0,.1,0,.2,0,.1,0,.2-.1.1-.1.2-.2,0-.1,0-.2Z"/>
    <path class="st1" d="M168.9,88.8h-10.1c-.1,0-.2,0-.2.1s0,.1,0,.3c0,0,0,.3,0,.6s0,.6,0,1,0,.7.1,1.1.2.7.3,1c.4,1.2,1.1,2.1,1.9,2.8s2,1,3.4,1,.4,0,.7-.1.5-.2.8-.3.5-.3.7-.4.4-.3.6-.5c.1-.1.2-.3.3-.4s.2-.3.3-.6c0,0,0,0,.2,0s.1,0,.2,0c.2,0,.3,0,.4.2s0,.3,0,.4,0,.1,0,.2,0,.2-.1.3,0,.2-.1.3,0,.1-.1.2c-.4.6-.8,1-1.4,1.5s-1.2.8-2,1c-.2,0-.5,0-.9.1s-.9,0-1.4,0-.9,0-1.4-.2-.9-.3-1.4-.5-.8-.5-1.2-.7-.7-.6-.9-.9c-.5-.7-.9-1.5-1.2-2.2s-.4-1.6-.4-2.5,0-.6,0-.9,0-.6.2-.9.2-.6.3-.8.3-.6.5-.9c.3-.5.7-1,1.1-1.5s.9-.8,1.4-1.2,1-.6,1.6-.7,1.2-.3,1.9-.3,1.1,0,1.7.2,1.2.4,1.7.7c.2.1.4.3.7.6s.6.6.9.9.6.7.8,1,.3.7.3,1,0,.2,0,.2,0,0-.2,0ZM159.2,88h6.5c.2,0,.3,0,.3,0s0,0,0-.1c0-.2,0-.5-.2-.7s-.2-.5-.4-.7-.3-.4-.5-.6-.3-.3-.4-.4c-.3-.3-.6-.4-.9-.5s-.7-.1-1.1-.1-.3,0-.5,0-.3,0-.4,0-.3,0-.4,0-.3,0-.5.2c-.2,0-.4.2-.6.4s-.4.4-.6.7-.4.5-.5.8-.2.6-.2.9,0,.2.3.2Z"/>
    <path class="st1" d="M182.1,97v-8.3c0-1-.3-1.8-.8-2.3s-1.3-.8-2.2-.8-.8,0-1.2.1-.6.2-.8.4c-.3.3-.6.5-.8.7s-.4.5-.5.8-.2.6-.2.9,0,.7,0,1.2v7c0,.3,0,.4.2.5s.4.1.8.1h.8c.4,0,.5.1.5.3s-.1.5-.4.5h-.8c-.4,0-.7,0-1.1,0s-.8,0-1.3,0-.4,0-.7,0-.6,0-.9,0-.6,0-.9,0-.6,0-.8,0-.3-.1-.3-.3.1-.4.4-.4c.3,0,.6,0,1,0h.8s.1,0,.2,0,0-.1,0-.2v-6.2c0-.3,0-.7,0-1.2s0-1,0-1.5,0-.5,0-.7,0-.4-.1-.6-.1-.4-.2-.5-.2-.3-.4-.4c0,0-.2,0-.4,0s-.4,0-.6,0-.3,0-.5,0-.3,0-.3,0c-.2,0-.3,0-.4,0s0,0,0-.1c0,0,0-.1.1-.2s.2,0,.4-.2c0,0,.2,0,.3,0s.3,0,.4,0,.3,0,.4,0,.2,0,.2,0c.5-.1,1-.3,1.5-.6s1-.5,1.4-.6c0,0,.1,0,.2,0,0,0,0,0,.1,0,.2,0,.2.2.2.4s0,.4,0,.6,0,.4,0,.5,0,.2,0,.4,0,.3,0,.5,0,.3,0,.5,0,.2.1.2.1,0,.3-.2.3-.4.5-.6.4-.5.6-.7.5-.5.7-.7c.5-.3.9-.6,1.4-.8s1-.2,1.6-.2,1.4.1,1.9.3.9.5,1.2.8.5.7.6,1.2.2.9.2,1.3c0,.2,0,.5,0,.7s0,.5,0,.7v5.4c0,.2,0,.5,0,.7s0,.4,0,.6v.6c0,.2,0,.4,0,.6s0,.2,0,.3.2.1.3.1.3,0,.6,0,.6,0,1,0,.3,0,.4.2.1.3.1.4,0,.2,0,.2-.1,0-.2.1-.2,0-.3,0-.2,0-.3,0c-.4,0-.9,0-1.4,0s-1,0-1.5,0-.3,0-.5,0-.4,0-.6,0-.5,0-.8,0-.7,0-1.2,0-.2,0-.3-.1,0-.2,0-.3c0-.2.1-.4.4-.4.1,0,.2,0,.3,0h.4c.2,0,.4,0,.5,0s.3,0,.5,0,.2,0,.3-.1.1-.1.1-.2Z"/>
    <path class="st1" d="M188.1,82.7s0,0,0,0,0,0,.1-.2c.2,0,.3-.2.4-.2s.2-.1.3-.2c.2,0,.4-.2.6-.4s.5-.3.8-.5.5-.4.6-.6.3-.4.3-.7,0,0,0-.1,0,0,0,0c0,0-.2,0-.3,0s-.2,0-.3,0-.2,0-.3,0-.2,0-.3,0c0,0-.1,0-.2,0s-.2,0-.2-.1-.2-.1-.2-.2-.1-.1-.2-.2c-.2-.2-.3-.5-.3-.9s.1-.8.4-1.1.7-.4,1.1-.4.6,0,.9.2.5.3.7.6.3.5.4.8.2.6.2.9c0,.6-.1,1.1-.4,1.6s-.6.8-1,1.1c-.2.1-.3.2-.5.3s-.4.2-.6.3c-.3.1-.5.2-.8.3s-.5,0-.7,0-.2,0-.2,0-.2,0-.3-.2Z"/>
    <path class="st1" d="M196,94.1c0-1.4,0-2.8.1-4.1s.1-2.7.1-4.1c-.4,0-.7,0-1.1,0s-.7,0-1,0-.2,0-.3,0-.2,0-.2-.2,0,0,0,0,0,0,.1-.1c.5-.4,1-.9,1.4-1.3s.9-.9,1.4-1.4c.1-.1.3-.3.4-.5s.3-.4.4-.5.3-.4.5-.5.3-.4.5-.5,0,0,.2,0,.1,0,.2.2l-.2,3.2c0,.2,0,.3.1.3l3.8-.3c0,0,.2,0,.2,0s0,.1.1.2,0,.1,0,.2,0,.1,0,.2c0,.3,0,.5-.1.6s-.3.2-.6.2h-3.5c0,0-.1,0-.2.1,0,0,0,0,0,.1v8.1c0,.3,0,.7.2,1.1s.4.7.8,1.1.4.3.6.4.5.2.7.2c.5,0,.9,0,1.3-.2s.6-.3.8-.5.4-.4.5-.7.3-.5.4-.7c0,0,0-.1.1-.1s0,0,0,0,0,.1,0,.2c0,.2,0,.5-.2.8s-.3.6-.6.9-.5.6-.8.8-.6.4-.8.5c-.5.2-1,.3-1.6.3s-1.2-.1-1.7-.4-.9-.6-1.3-1-.6-.8-.8-1.3-.3-1-.3-1.4Z"/>
    <path class="st1" d="M218.6,96.1h0c0,0,0,.1-.2.3s-.3.3-.5.5-.4.3-.5.5-.3.2-.3.2c-.3.2-.7.3-1.1.5s-.8.2-1.3.2-.7,0-1-.1-.7-.3-.9-.5-.5-.6-.7-1-.3-.9-.3-1.5,0-.5.2-.9.3-.7.6-.9c.3-.3.6-.6.9-.8s.7-.4,1.1-.6.8-.3,1.3-.5,1-.3,1.6-.4c.1,0,.3,0,.4-.1s.3,0,.4-.1.3,0,.4-.1.2,0,.2,0c0,0,0,0,.1-.1s0,0,0-.2c0-.2,0-.5.1-.7s0-.5,0-.8,0-.5,0-.7,0-.4,0-.6c0-.4,0-.7-.2-1.1s-.3-.6-.6-.9-.5-.4-.9-.6-.7-.2-1.1-.2-.6,0-.9.2-.6.3-.9.6-.5.5-.6.8-.2.6-.2.9,0,.3.1.4.2.2.2.2.2.2.2.3.1.2.1.4c0,.4-.1.7-.4.9s-.6.3-.9.3-.4,0-.6-.1-.3-.2-.4-.4-.2-.3-.3-.5,0-.4,0-.6,0-.4.2-.6.2-.4.4-.7.3-.4.5-.6.3-.3.4-.5c.2-.2.4-.4.6-.5s.4-.3.6-.5c.2-.1.3-.2.5-.3s.3-.1.5-.2c0,0,.2,0,.4-.1s.4-.1.6-.2.4,0,.7-.1.5,0,.7,0c.5,0,.9,0,1.4.2s.8.3,1.2.6.6.6.8,1.1.3.9.3,1.5,0,1.3-.1,2-.1,1.4-.2,2-.2,1.2-.2,1.7-.1,1-.1,1.3,0,.4,0,.6,0,.5.2.7.2.4.3.6.3.2.6.2.5,0,.8-.2.5-.3.7-.5.4-.4.6-.6.3-.5.4-.7c0,0,0,0,0-.1s0,0,.1,0,0,0,0,.1h0c0,.6,0,1-.2,1.4s-.4.8-.7,1.2-.7.6-1.1.9-1,.3-1.6.3-.2,0-.4,0-.3,0-.4,0c-.3-.1-.5-.3-.6-.4s-.3-.3-.4-.5-.2-.3-.3-.5-.2-.4-.3-.6ZM213.9,95.5c0,.2,0,.5.1.6s.2.3.4.4.3.2.5.2.4,0,.6,0,.5,0,.7,0,.5-.1.7-.2.4-.2.6-.3.3-.2.5-.3c.2-.2.4-.4.4-.7,0-.7,0-1.4.1-2s.1-1.3.1-1.9,0-.1,0-.2,0-.1-.1-.1-.2,0-.3,0-.2,0-.2,0c-.4.2-.8.3-1.3.5s-.8.4-1.2.6c-.3.1-.5.3-.7.6s-.4.5-.5.8-.3.6-.3.9-.1.6-.1.9Z"/>
    <path class="st1" d="M227,94.1c0-1.4,0-2.8.1-4.1s.1-2.7.1-4.1c-.4,0-.7,0-1.1,0s-.7,0-1,0-.2,0-.3,0-.2,0-.2-.2,0,0,0,0,0,0,.1-.1c.5-.4,1-.9,1.4-1.3s.9-.9,1.4-1.4c.1-.1.3-.3.4-.5s.3-.4.4-.5.3-.4.5-.5.3-.4.5-.5,0,0,.2,0,.1,0,.2.2l-.2,3.2c0,.2,0,.3.1.3l3.8-.3c0,0,.2,0,.2,0s0,.1.1.2,0,.1,0,.2,0,.1,0,.2c0,.3,0,.5-.1.6s-.3.2-.6.2h-3.5c0,0-.1,0-.2.1,0,0,0,0,0,.1v8.1c0,.3,0,.7.2,1.1s.4.7.8,1.1.4.3.6.4.5.2.7.2c.5,0,.9,0,1.3-.2s.6-.3.8-.5.4-.4.5-.7.3-.5.4-.7c0,0,0-.1.1-.1s0,0,0,0,0,.1,0,.2c0,.2,0,.5-.2.8s-.3.6-.6.9-.5.6-.8.8-.6.4-.8.5c-.5.2-1,.3-1.6.3s-1.2-.1-1.7-.4-.9-.6-1.3-1-.6-.8-.8-1.3-.3-1-.3-1.4Z"/>
    <path class="st1" d="M244.2,94.1c0-1.4,0-2.8.1-4.1s.1-2.7.1-4.1c-.4,0-.7,0-1.1,0s-.7,0-1,0-.2,0-.3,0-.2,0-.2-.2,0,0,0,0,0,0,.1-.1c.5-.4,1-.9,1.4-1.3s.9-.9,1.4-1.4c.1-.1.3-.3.4-.5s.3-.4.4-.5.3-.4.5-.5.3-.4.5-.5,0,0,.2,0,.1,0,.2.2l-.2,3.2c0,.2,0,.3.1.3l3.8-.3c0,0,.2,0,.2,0s0,.1.1.2,0,.1,0,.2,0,.1,0,.2c0,.3,0,.5-.1.6s-.3.2-.6.2h-3.5c0,0-.1,0-.2.1,0,0,0,0,0,.1v8.1c0,.3,0,.7.2,1.1s.4.7.8,1.1.4.3.6.4.5.2.7.2c.5,0,.9,0,1.3-.2s.6-.3.8-.5.4-.4.5-.7.3-.5.4-.7c0,0,0-.1.1-.1s0,0,0,0,0,.1,0,.2c0,.2,0,.5-.2.8s-.3.6-.6.9-.5.6-.8.8-.6.4-.8.5c-.5.2-1,.3-1.6.3s-1.2-.1-1.7-.4-.9-.6-1.3-1-.6-.8-.8-1.3-.3-1-.3-1.4Z"/>
    <path class="st1" d="M252.8,97.9c0-.2,0-.3.1-.3s.2,0,.3,0h1.4c.4,0,.6-.2.6-.6v-11.6c0-.4,0-.7,0-1s0-.6,0-.9,0-.6,0-.8,0-.6,0-.9,0-.4,0-.6-.1-.4-.2-.6-.2-.3-.4-.4-.3-.2-.5-.2-.3,0-.4,0-.3,0-.4.1-.3,0-.4.1-.2,0-.3,0c-.2,0-.3,0-.3-.3s0-.2,0-.2,0-.1.2-.2c.3-.1.6-.3,1.1-.5s.8-.3,1.3-.5c.4-.2.7-.3,1-.5s.6-.3.9-.5c.1,0,.2-.1.3-.2s.2,0,.3,0,.1,0,.2.2c0,0,0,0,0,.1s0,.1,0,.2,0,.2,0,.2,0,.1,0,.1v8.8c0,.1,0,.2.1.2.3-.4.7-.9,1-1.3s.7-.8,1.2-1.1c.3-.3.7-.5,1.1-.6s.8-.3,1.3-.3.7,0,1,0,.7.2,1,.3.6.3.8.6.5.5.7.8c.1.2.3.6.4,1s.2.9.2,1.3.1.9.1,1.4,0,.8,0,1.1v6.6c0,.1,0,.2.2.2h1.7c.1,0,.2,0,.3,0s.1,0,.1.2c0,.2,0,.3-.2.4s-.2.2-.3.2c-.4,0-.9,0-1.3,0s-.9,0-1.4,0-1.1,0-1.6,0-1,0-1.5,0-.5,0-.6,0-.2-.2-.2-.4,0-.3.1-.3.2,0,.5,0c.3,0,.6,0,.9,0s.5,0,.6,0,.1,0,.2,0,0-.1,0-.2v-6.8c0-.2,0-.5,0-.8s0-.6,0-.9,0-.6-.1-.8-.1-.5-.2-.7c-.3-.5-.7-.8-1.1-1s-.9-.3-1.4-.3-.4,0-.6,0-.3,0-.5,0-.3.1-.4.2-.3.2-.4.3c-.5.4-.9.8-1.2,1.2s-.4,1-.4,1.6v7.4c0,0,0,.1,0,.2s0,.2,0,.3,0,.2,0,.2.1.1.2.1h1.6c.1,0,.3,0,.4,0s.2.2.2.3,0,.2,0,.2-.2,0-.3.1h-1c-.2,0-.5,0-.8,0s-.6,0-.8,0-.5,0-.8,0-.5,0-.7,0c-.4,0-.7,0-1.1,0s-.7,0-1,0h-.6c0,0-.1,0-.2-.1s0-.2,0-.3Z"/>
    <path class="st1" d="M283,88.8h-10.1c-.1,0-.2,0-.2.1s0,.1,0,.3c0,0,0,.3,0,.6s0,.6,0,1,0,.7.1,1.1.2.7.3,1c.4,1.2,1.1,2.1,1.9,2.8s2,1,3.5,1,.4,0,.7-.1.5-.2.8-.3.5-.3.7-.4.4-.3.6-.5c.1-.1.2-.3.3-.4s.2-.3.3-.6c0,0,0,0,.2,0s.1,0,.2,0c.2,0,.3,0,.4.2s0,.3,0,.4,0,.1,0,.2,0,.2-.1.3,0,.2-.1.3,0,.1-.1.2c-.4.6-.8,1-1.4,1.5s-1.2.8-2,1c-.2,0-.5,0-.9.1s-.9,0-1.4,0-.9,0-1.4-.2-.9-.3-1.4-.5-.8-.5-1.2-.7-.7-.6-.9-.9c-.5-.7-.9-1.5-1.2-2.2s-.4-1.6-.4-2.5,0-.6,0-.9,0-.6.2-.9.2-.6.3-.8.3-.6.5-.9c.3-.5.7-1,1.1-1.5s.9-.8,1.4-1.2,1-.6,1.6-.7,1.2-.3,1.9-.3,1.1,0,1.7.2,1.2.4,1.7.7c.2.1.4.3.7.6s.6.6.9.9.6.7.8,1,.3.7.3,1,0,.2,0,.2,0,0-.2,0ZM273.2,88h6.5c.2,0,.3,0,.3,0s0,0,0-.1c0-.2,0-.5-.2-.7s-.2-.5-.4-.7-.3-.4-.5-.6-.3-.3-.4-.4c-.3-.3-.6-.4-.9-.5s-.7-.1-1.1-.1-.3,0-.5,0-.3,0-.4,0-.3,0-.4,0-.3,0-.5.2c-.2,0-.4.2-.6.4s-.4.4-.6.7-.4.5-.5.8-.2.6-.2.9,0,.2.3.2Z"/>
    <path class="st1" d="M289.8,86.1c0-.1,0-.2.3-.3.8-.2,1.7-.5,2.5-.8s1.6-.7,2.4-1.1c0,0,0,0,.1,0s0,0,.1,0c0,0,.1,0,.1,0v1.7c0,.1,0,.2,0,.2.5-.6,1.2-1.1,1.9-1.4s1.5-.4,2.3-.4,1.2.1,1.8.3,1,.5,1.5.8.9.8,1.2,1.3.7,1,.9,1.6c.2.4.3.9.4,1.4s0,1,0,1.5c0,1-.2,1.9-.5,2.8s-.8,1.5-1.4,2.1-1.3,1-2.2,1.3-1.7.5-2.7.5-.3,0-.5,0-.4,0-.6-.1-.4-.1-.6-.2-.4-.1-.6-.2c-.1,0-.3,0-.3,0-.1,0-.2,0-.2.2v6.8c0,.2,0,.2.2.2.2,0,.5,0,.8,0s.5,0,.7,0,.2,0,.3.1.2.2.2.2c0,.1,0,.2-.2.3s-.3,0-.4,0h-3.1c0,0-.3,0-.6,0s-.6,0-.9,0-.6,0-.9,0-.4,0-.5,0-.1,0-.2,0-.2,0-.2,0-.1,0-.2,0,0,0,0-.1c0-.2.1-.3.4-.3h1.5c.2,0,.4,0,.5,0s.2-.2.2-.4v-15.6c0-.1,0-.2,0-.3s0-.2,0-.3c0-.3,0-.5-.2-.7s-.2-.4-.3-.5-.3-.2-.5-.3-.5-.1-.8-.1-.4,0-.6.1-.4.1-.6.1-.3,0-.3,0ZM302.9,91.4c0-.5,0-1-.1-1.5s-.2-1-.4-1.5-.4-.9-.7-1.4-.6-.8-1-1.1-.8-.6-1.3-.8-1-.3-1.6-.3-.7,0-1,.2-.6.3-.8.5-.4.5-.5.7-.2.6-.2,1,0,.1,0,.2,0,.2,0,.4,0,.4,0,.7,0,.7,0,1.3,0,1.2,0,2,0,1.8.1,3c0,.1,0,.2.2.4s.2.2.3.3c.3.2.5.4.7.6s.5.3.7.4.5.2.7.3.5,0,.8,0c.5,0,.9-.1,1.3-.3s.7-.5,1-.8.5-.7.7-1.1.3-.8.5-1.2c0-.2.1-.4.2-.6s0-.4,0-.5,0-.3,0-.5,0-.3,0-.5Z"/>
    <path class="st1" d="M314.6,96.1h0c0,0,0,.1-.2.3s-.3.3-.5.5-.4.3-.5.5-.3.2-.3.2c-.3.2-.7.3-1.1.5s-.8.2-1.3.2-.7,0-1-.1-.7-.3-.9-.5-.5-.6-.7-1-.3-.9-.3-1.5,0-.5.2-.9.3-.7.6-.9c.3-.3.6-.6.9-.8s.7-.4,1.1-.6.8-.3,1.3-.5,1-.3,1.6-.4c.1,0,.3,0,.4-.1s.3,0,.4-.1.3,0,.4-.1.2,0,.2,0c0,0,0,0,.1-.1s0,0,0-.2c0-.2,0-.5.1-.7s0-.5,0-.8,0-.5,0-.7,0-.4,0-.6c0-.4,0-.7-.2-1.1s-.3-.6-.6-.9-.5-.4-.9-.6-.7-.2-1.1-.2-.6,0-.9.2-.6.3-.9.6-.5.5-.6.8-.2.6-.2.9,0,.3.1.4.2.2.2.2.2.2.2.3.1.2.1.4c0,.4-.1.7-.4.9s-.6.3-.9.3-.4,0-.6-.1-.3-.2-.4-.4-.2-.3-.3-.5,0-.4,0-.6,0-.4.2-.6.2-.4.4-.7.3-.4.5-.6.3-.3.4-.5c.2-.2.4-.4.6-.5s.4-.3.6-.5c.2-.1.3-.2.5-.3s.3-.1.5-.2c0,0,.2,0,.4-.1s.4-.1.6-.2.4,0,.7-.1.5,0,.7,0c.5,0,.9,0,1.4.2s.8.3,1.2.6.6.6.8,1.1.3.9.3,1.5,0,1.3-.1,2-.1,1.4-.2,2-.2,1.2-.2,1.7-.1,1-.1,1.3,0,.4,0,.6,0,.5.2.7.2.4.3.6.3.2.6.2.5,0,.8-.2.5-.3.7-.5.4-.4.6-.6.3-.5.4-.7c0,0,0,0,0-.1s0,0,.1,0,0,0,0,.1h0c0,.6,0,1-.2,1.4s-.4.8-.7,1.2-.7.6-1.1.9-1,.3-1.6.3-.2,0-.4,0-.3,0-.4,0c-.3-.1-.5-.3-.6-.4s-.3-.3-.4-.5-.2-.3-.3-.5-.2-.4-.3-.6ZM309.9,95.5c0,.2,0,.5.1.6s.2.3.4.4.3.2.5.2.4,0,.6,0,.5,0,.7,0,.5-.1.7-.2.4-.2.6-.3.3-.2.5-.3c.2-.2.4-.4.4-.7,0-.7,0-1.4.1-2s.1-1.3.1-1.9,0-.1,0-.2,0-.1-.1-.1-.2,0-.3,0-.2,0-.2,0c-.4.2-.8.3-1.3.5s-.8.4-1.2.6c-.3.1-.5.3-.7.6s-.4.5-.5.8-.3.6-.3.9-.1.6-.1.9Z"/>
    <path class="st1" d="M323.7,97v-8c0-.3,0-.6,0-.9s0-.6,0-.9,0-.5-.2-.7-.2-.3-.3-.4c-.2-.1-.5-.2-.9-.2s-.4,0-.6,0-.4,0-.5,0,0,0-.1,0,0,0,0-.1c0-.1,0-.2.1-.2.3-.2.6-.3.9-.4s.6-.2,1-.3c.3,0,.6-.2.9-.3s.6-.2.8-.4c.2,0,.3-.2.5-.3s.3-.1.6-.1.1,0,.2.1,0,.1,0,.2v.8c0,0,0,.2,0,.3v.3c0,.1,0,.2,0,.3s0,.2,0,.2,0,0,0,0h0c0,0,.1,0,.2,0s.1-.1.2-.2.1-.2.2-.3.2-.3.3-.4c.2-.2.4-.4.6-.5s.5-.3.7-.4.5-.2.8-.3.5-.1.8-.1c.4,0,.8,0,1.1,0s.7.2,1.1.3.6.4.8.7.3.7.3,1.1,0,.5-.2.7-.2.4-.4.5-.4.3-.6.3-.4.1-.7.1-.3,0-.5,0-.3-.1-.3-.2c-.3-.3-.5-.6-.6-1.1,0-.3,0-.5,0-.7s0-.3-.1-.4-.2-.2-.3-.2-.4,0-.7,0-.5,0-.8.2-.5.3-.7.5-.4.4-.6.7-.3.5-.3.7c0,.2,0,.4,0,.7s0,.5,0,.8v8.8c0,.1.2.2.3.2s.3,0,.5,0,.1,0,.2,0,.2,0,.3,0,.2,0,.3,0,.1,0,.2,0c.2,0,.4,0,.5,0s.2.2.2.3,0,.2-.2.3-.2.2-.3.2c-.5,0-1.1-.2-1.6-.2s-1.1,0-1.7,0-1.1,0-1.6,0-1,0-1.6,0-.2,0-.4-.1-.2-.2-.2-.3,0-.1,0-.2.1-.1.2-.1.1,0,.2,0,.1,0,.2,0c.1,0,.2,0,.3,0s.2,0,.3,0c0,0,.2,0,.3,0s.2,0,.3,0,.1,0,.2,0,.1,0,.2-.1.1-.1.2-.2,0-.1,0-.2Z"/>
    <path class="st1" d="M335.9,94.1c0-1.4,0-2.8.1-4.1s.1-2.7.1-4.1c-.4,0-.7,0-1.1,0s-.7,0-1,0-.2,0-.3,0-.2,0-.2-.2,0,0,0,0,0,0,.1-.1c.5-.4,1-.9,1.4-1.3s.9-.9,1.4-1.4c.1-.1.3-.3.4-.5s.3-.4.4-.5.3-.4.5-.5.3-.4.5-.5,0,0,.2,0,.1,0,.2.2l-.2,3.2c0,.2,0,.3.1.3l3.8-.3c0,0,.2,0,.2,0s0,.1.1.2,0,.1,0,.2,0,.1,0,.2c0,.3,0,.5-.1.6s-.3.2-.6.2h-3.5c0,0-.1,0-.2.1,0,0,0,0,0,.1v8.1c0,.3,0,.7.2,1.1s.4.7.8,1.1.4.3.6.4.5.2.7.2c.5,0,.9,0,1.3-.2s.6-.3.8-.5.4-.4.5-.7.3-.5.4-.7c0,0,0-.1.1-.1s0,0,0,0,0,.1,0,.2c0,.2,0,.5-.2.8s-.3.6-.6.9-.5.6-.8.8-.6.4-.8.5c-.5.2-1,.3-1.6.3s-1.2-.1-1.7-.4-.9-.6-1.3-1-.6-.8-.8-1.3-.3-1-.3-1.4Z"/>
    <path class="st1" d="M345.9,102.4c0-.4.1-.7.3-.9s.5-.3.9-.3.3,0,.5.1.3.2.4.3.2.2.3.3.1.1.2.1c.3,0,.5-.1.7-.3s.4-.5.6-.8.3-.6.4-.9.2-.6.2-.8c0-.6,0-1.2-.2-1.9s-.3-1.3-.5-1.8c-.4-1.6-.9-3.3-1.2-4.9s-.8-3.3-1.2-4.9c0,0,0,0,0-.2s0-.2,0-.3,0-.2-.1-.3,0-.1-.1-.1c-.1,0-.2,0-.4,0s-.3,0-.5,0-.4,0-.5,0-.3,0-.5,0c-.2,0-.2-.1-.2-.3s0-.2.1-.2.2,0,.3,0c.2,0,.5,0,.8,0s.6,0,.9,0,.6,0,.9,0,.5,0,.7,0c.5,0,1,0,1.6,0s1,0,1.5,0,.1,0,.2,0,.2,0,.2,0c0,0,0,0,.1.1s0,.1,0,.2,0,.1-.1.2-.2,0-.3,0-.2,0-.4,0-.3,0-.3,0-.2,0-.3,0-.2,0-.3,0c-.2,0-.3,0-.4.1s-.2.2-.2.3,0,.4,0,.6.1.4.2.6.1.4.2.6.1.4.2.5c.3,1.3.7,2.5,1,3.8s.7,2.6,1.1,4.1c.1,0,.2,0,.4-.2,0-.2.2-.3.2-.5s.1-.3.2-.5c.4-1.2.9-2.3,1.3-3.5s1-2.3,1.5-3.5c.2-.5.3-.9.3-1.4s0-.2,0-.3,0-.2,0-.3-.1-.2-.2-.2-.2,0-.4,0h-.5c-.1,0-.2,0-.3,0s-.2,0-.4,0-.2,0-.3,0-.1,0-.2,0c0,0,0,0,0-.2s0-.2,0-.2.1-.1.2-.1c0,0,.1,0,.2,0h.3c.3,0,.6,0,.8,0s.5,0,.7,0,.5,0,.7,0,.5,0,.7,0c.4,0,.9,0,1.4,0s.9,0,1.3,0,0,0,.2,0,.1,0,.2,0,.1,0,.2,0,0,0,0,.1c0,0,0,.2-.1.2s-.2,0-.3.1-.2,0-.4,0-.2,0-.3,0c-.2,0-.3,0-.5,0s-.3,0-.5.1-.3.1-.5.2-.3.2-.4.4c-.1.2-.2.3-.4.5s-.3.4-.4.7-.3.5-.4.7-.2.4-.3.6c-.5,1.1-1,2.1-1.5,3.2s-1,2.2-1.5,3.2c-.2.5-.5,1-.7,1.5s-.4.9-.6,1.4-.4.9-.6,1.4-.4,1-.7,1.5c0,0-.1.2-.2.5s-.2.5-.4.7-.3.5-.4.7-.2.4-.3.4c-.1.2-.3.4-.5.6s-.3.4-.5.5-.4.3-.6.4-.5.1-.8.1-.4,0-.5-.2-.3-.2-.4-.4-.2-.3-.3-.5,0-.4,0-.6Z"/>
    <path class="st1" d="M359.3,101.1s0,0,0,0,0,0,.1-.2c.2,0,.3-.2.4-.2s.2-.1.3-.2c0,0,0,0,0,0,.2,0,.4-.2.6-.4s.5-.3.7-.5.4-.4.6-.6.2-.4.2-.7,0,0,0-.1,0,0,0,0h-.3c0,0-.2,0-.3,0s-.2,0-.3,0-.2,0-.3,0c0,0-.1,0-.2,0s-.2,0-.2-.1-.2-.1-.2-.2-.1-.1-.2-.2c-.2-.2-.3-.5-.3-.9s.1-.8.4-1.1.7-.4,1.1-.4.6,0,.9.2.5.3.7.6.3.5.4.8.2.6.2.9c0,.6-.1,1.1-.4,1.6s-.6.8-1,1.1c-.2.1-.3.2-.5.3s-.4.2-.6.3c-.3.1-.5.2-.8.3s-.5,0-.7,0-.2,0-.2,0-.2,0-.3-.2Z"/>
    <path class="st1" d="M378.8,98.1l-5.3-12.6c0-.2-.1-.3-.2-.4s-.1-.2-.2-.2-.1,0-.2,0-.2,0-.3,0h-.9c0,0-.2,0-.2,0-.2,0-.4-.2-.4-.4s0-.2.1-.2.2,0,.3-.1.2,0,.4,0,.2,0,.4,0c.2,0,.5,0,.8,0s.7,0,1.2,0,.5,0,.7,0,.6,0,.8,0,.6,0,.8,0,.5,0,.6,0,.3,0,.4,0,.2.1.2.3,0,.2,0,.2-.1,0-.2.1-.2,0-.3,0-.2,0-.3,0c-.2,0-.4,0-.6,0s-.3.1-.3.3,0,.3,0,.5,0,.3.1.5l3.7,9c0,.2.1.3.2.3s.1,0,.2,0,.2-.1.3-.3.3-.6.4-1,.3-.9.5-1.3.3-.9.5-1.3.3-.8.4-1.1c0,0,0-.2.1-.3s0-.3,0-.4h0c0-.2,0-.4-.1-.6s-.2-.5-.3-.8-.2-.7-.4-1-.3-.7-.4-1-.3-.6-.4-.9-.2-.5-.3-.6c0-.1-.2-.2-.2-.2h-1.3c-.1,0-.2,0-.2-.1s0-.1,0-.2c0-.2,0-.3.2-.4s.3,0,.5,0,.3,0,.6,0,.5,0,.7,0,.5,0,.8,0,.5,0,.7,0,.5,0,.7,0,.5,0,.8,0,.5,0,.7,0,.4,0,.6,0h.1c0,0,.1,0,.2,0s.1,0,.2,0,0,0,0,0c0,.2,0,.3-.3.4s-.4,0-.6,0h-.9c-.3,0-.5,0-.5.2,0,.3,0,.5.1.7s.2.4.3.7c0,.2.2.5.3.9s.3.8.5,1.3.3,1,.5,1.5.4,1,.5,1.5.3.9.5,1.3.3.7.4.9c0,.2.2.3.3.3s.1,0,.2-.2.2-.3.2-.4c.2-.5.4-.9.5-1.3s.3-.8.4-1.2.3-.8.4-1.2.3-.9.4-1.5c.1-.4.2-.7.4-1.1s.2-.8.2-1.1,0-.3-.1-.5-.2-.3-.3-.4c0,0-.2-.1-.4-.1s-.4,0-.6-.1-.4-.1-.5-.2-.2-.2-.2-.4,0-.2.1-.2.2,0,.3,0c.2,0,.4,0,.6,0s.5,0,.8,0,.6,0,.8,0,.6,0,.8,0c.4,0,.7,0,1.1,0s.7,0,1.1,0c0,0,.2,0,.3,0s.2,0,.3,0,.2,0,.2.1,0,.1,0,.2,0,.2-.2.2c-.3,0-.6.1-.8.2s-.4.1-.6.2-.4.2-.5.3-.4.3-.6.5c-.4.4-.7.9-1,1.7-.3.7-.6,1.4-.8,1.9s-.5,1.1-.7,1.7-.4,1.1-.6,1.6-.5,1.1-.7,1.7c-.2.4-.3.7-.5,1.1s-.3.8-.5,1.1c0,0,0,.2-.1.4s-.1.3-.2.5-.1.3-.2.4-.1.2-.2.2c-.2,0-.3,0-.4-.3s-.2-.4-.3-.6-.1-.4-.2-.7-.2-.6-.4-1-.3-.7-.4-1.1-.3-.8-.4-1.2-.3-.7-.4-1.1-.2-.6-.3-.8c0,0-.1-.1-.2-.1,0,0-.1,0-.1.1-.1.2-.3.4-.3.6-.4,1-.9,1.9-1.4,2.8s-.9,1.8-1.3,2.7c-.1.2-.2.4-.3.5s-.2.2-.4.2c-.2,0-.4,0-.5-.2Z"/>
    <path class="st1" d="M407.1,88.8h-10.1c-.1,0-.2,0-.2.1s0,.1,0,.3c0,0,0,.3,0,.6s0,.6,0,1,0,.7.1,1.1.2.7.3,1c.4,1.2,1.1,2.1,1.9,2.8s2,1,3.5,1,.4,0,.7-.1.5-.2.8-.3.5-.3.7-.4.4-.3.6-.5c.1-.1.2-.3.3-.4s.2-.3.3-.6c0,0,0,0,.2,0s.1,0,.2,0c.2,0,.3,0,.4.2s0,.3,0,.4,0,.1,0,.2,0,.2-.1.3,0,.2-.1.3,0,.1-.1.2c-.4.6-.8,1-1.4,1.5s-1.2.8-2,1c-.2,0-.5,0-.9.1s-.9,0-1.4,0-.9,0-1.4-.2-.9-.3-1.4-.5-.8-.5-1.2-.7-.7-.6-.9-.9c-.5-.7-.9-1.5-1.2-2.2s-.4-1.6-.4-2.5,0-.6,0-.9,0-.6.2-.9.2-.6.3-.8.3-.6.5-.9c.3-.5.7-1,1.1-1.5s.9-.8,1.4-1.2,1-.6,1.6-.7,1.2-.3,1.9-.3,1.1,0,1.7.2,1.2.4,1.7.7c.2.1.4.3.7.6s.6.6.9.9.6.7.8,1,.3.7.3,1,0,.2,0,.2,0,0-.2,0ZM397.4,88h6.5c.2,0,.3,0,.3,0s0,0,0-.1c0-.2,0-.5-.2-.7s-.2-.5-.4-.7-.3-.4-.5-.6-.3-.3-.4-.4c-.3-.3-.6-.4-.9-.5s-.7-.1-1.1-.1-.3,0-.5,0-.3,0-.4,0-.3,0-.4,0-.3,0-.5.2c-.2,0-.4.2-.6.4s-.4.4-.6.7-.4.5-.5.8-.2.6-.2.9,0,.2.3.2Z"/>
    <path class="st1" d="M422.4,96.1h0c0,0,0,.1-.2.3s-.3.3-.5.5-.4.3-.5.5-.3.2-.3.2c-.3.2-.7.3-1.1.5s-.8.2-1.3.2-.7,0-1-.1-.7-.3-.9-.5-.5-.6-.7-1-.3-.9-.3-1.5,0-.5.2-.9.3-.7.6-.9c.3-.3.6-.6.9-.8s.7-.4,1.1-.6.8-.3,1.3-.5,1-.3,1.6-.4c.1,0,.3,0,.4-.1s.3,0,.4-.1.3,0,.4-.1.2,0,.2,0c0,0,0,0,.1-.1s0,0,0-.2c0-.2,0-.5.1-.7s0-.5,0-.8,0-.5,0-.7,0-.4,0-.6c0-.4,0-.7-.2-1.1s-.3-.6-.6-.9-.5-.4-.9-.6-.7-.2-1.1-.2-.6,0-.9.2-.6.3-.9.6-.5.5-.6.8-.2.6-.2.9,0,.3.1.4.2.2.2.2.2.2.2.3.1.2.1.4c0,.4-.1.7-.4.9s-.6.3-.9.3-.4,0-.6-.1-.3-.2-.4-.4-.2-.3-.3-.5,0-.4,0-.6,0-.4.2-.6.2-.4.4-.7.3-.4.5-.6.3-.3.4-.5c.2-.2.4-.4.6-.5s.4-.3.6-.5c.2-.1.3-.2.5-.3s.3-.1.5-.2c0,0,.2,0,.4-.1s.4-.1.6-.2.4,0,.7-.1.5,0,.7,0c.5,0,.9,0,1.4.2s.8.3,1.2.6.6.6.8,1.1.3.9.3,1.5,0,1.3-.1,2-.1,1.4-.2,2-.2,1.2-.2,1.7-.1,1-.1,1.3,0,.4,0,.6,0,.5.2.7.2.4.3.6.3.2.6.2.5,0,.8-.2.5-.3.7-.5.4-.4.6-.6.3-.5.4-.7c0,0,0,0,0-.1s0,0,.1,0,0,0,0,.1h0c0,.6,0,1-.2,1.4s-.4.8-.7,1.2-.7.6-1.1.9-1,.3-1.6.3-.2,0-.4,0-.3,0-.4,0c-.3-.1-.5-.3-.6-.4s-.3-.3-.4-.5-.2-.3-.3-.5-.2-.4-.3-.6ZM417.7,95.5c0,.2,0,.5.1.6s.2.3.4.4.3.2.5.2.4,0,.6,0,.5,0,.7,0,.5-.1.7-.2.4-.2.6-.3.3-.2.5-.3c.2-.2.4-.4.4-.7,0-.7,0-1.4.1-2s.1-1.3.1-1.9,0-.1,0-.2,0-.1-.1-.1-.2,0-.3,0-.2,0-.2,0c-.4.2-.8.3-1.3.5s-.8.4-1.2.6c-.3.1-.5.3-.7.6s-.4.5-.5.8-.3.6-.3.9-.1.6-.1.9Z"/>
    <path class="st1" d="M431.5,97v-8c0-.3,0-.6,0-.9s0-.6,0-.9,0-.5-.2-.7-.2-.3-.3-.4c-.2-.1-.5-.2-.9-.2s-.4,0-.6,0-.4,0-.5,0,0,0-.1,0,0,0,0-.1c0-.1,0-.2.1-.2.3-.2.6-.3.9-.4s.6-.2,1-.3c.3,0,.6-.2.9-.3s.6-.2.8-.4c.2,0,.3-.2.5-.3s.3-.1.6-.1.1,0,.2.1,0,.1,0,.2v.8c0,0,0,.2,0,.3v.3c0,.1,0,.2,0,.3s0,.2,0,.2,0,0,0,0h0c0,0,.1,0,.2,0s.1-.1.2-.2.1-.2.2-.3.2-.3.3-.4c.2-.2.4-.4.6-.5s.5-.3.7-.4.5-.2.8-.3.5-.1.8-.1c.4,0,.8,0,1.1,0s.7.2,1.1.3.6.4.8.7.3.7.3,1.1,0,.5-.2.7c-.1.2-.2.4-.4.5s-.4.3-.6.3-.4.1-.7.1-.3,0-.5,0-.3-.1-.3-.2c-.3-.3-.5-.6-.6-1.1,0-.3,0-.5,0-.7s0-.3-.1-.4-.2-.2-.3-.2-.4,0-.7,0-.5,0-.8.2-.5.3-.7.5-.4.4-.6.7-.3.5-.3.7c0,.2,0,.4,0,.7s0,.5,0,.8v8.8c0,.1.2.2.3.2s.3,0,.5,0,.1,0,.2,0,.2,0,.3,0,.2,0,.3,0,.1,0,.2,0c.2,0,.4,0,.5,0s.2.2.2.3,0,.2-.2.3-.2.2-.3.2c-.5,0-1.1-.2-1.6-.2s-1.1,0-1.7,0-1.1,0-1.6,0-1,0-1.6,0-.2,0-.4-.1-.2-.2-.2-.3,0-.1,0-.2.1-.1.2-.1.1,0,.2,0,.1,0,.2,0c.1,0,.2,0,.3,0s.2,0,.3,0c0,0,.2,0,.3,0s.2,0,.3,0,.1,0,.2,0,.1,0,.2-.1.1-.1.2-.2,0-.1,0-.2Z"/>
    <path class="st1" d="M454.8,88.8h-10.1c-.1,0-.2,0-.2.1s0,.1,0,.3c0,0,0,.3,0,.6,0,.3,0,.6,0,1s0,.7.1,1.1.2.7.3,1c.4,1.2,1.1,2.1,1.9,2.8.9.6,2,1,3.4,1s.4,0,.7-.1.5-.2.8-.3.5-.3.7-.4.4-.3.6-.5c.1-.1.2-.3.3-.4s.2-.3.3-.6c0,0,0,0,.2,0s.1,0,.2,0c.2,0,.3,0,.4.2,0,.1,0,.3,0,.4s0,.1,0,.2,0,.2-.1.3c0,0,0,.2-.1.3s0,.1-.1.2c-.4.6-.8,1-1.4,1.5s-1.2.8-2,1c-.2,0-.5,0-.9.1-.4,0-.9,0-1.4,0s-.9,0-1.4-.2-.9-.3-1.4-.5-.8-.5-1.2-.7-.7-.6-.9-.9c-.5-.7-.9-1.5-1.2-2.2-.2-.7-.4-1.6-.4-2.5s0-.6,0-.9c0-.3,0-.6.2-.9,0-.3.2-.6.3-.8s.3-.6.5-.9c.3-.5.7-1,1.1-1.5s.9-.8,1.4-1.2,1-.6,1.6-.7,1.2-.3,1.9-.3,1.1,0,1.7.2c.6.1,1.2.4,1.7.7.2.1.4.3.7.6s.6.6.9.9.6.7.8,1,.3.7.3,1,0,.2,0,.2c0,0,0,0-.2,0ZM445.1,88h6.5c.2,0,.3,0,.3,0s0,0,0-.1c0-.2,0-.5-.2-.7s-.2-.5-.4-.7c-.2-.2-.3-.4-.5-.6s-.3-.3-.4-.4c-.3-.3-.6-.4-.9-.5s-.7-.1-1.1-.1-.3,0-.5,0c-.1,0-.3,0-.4,0s-.3,0-.4,0-.3,0-.5.2c-.2,0-.4.2-.6.4-.2.2-.4.4-.6.7-.2.2-.4.5-.5.8-.1.3-.2.6-.2.9s0,.2.3.2Z"/>
  </g>
</svg>