<?xml version="1.0" encoding="UTF-8"?>
<svg width="65px" height="15px" viewBox="0 0 65 15" version="1.1" xmlns="http://www.w3.org/2000/svg" xmlns:xlink="http://www.w3.org/1999/xlink">
    <!-- Generator: Sketch 53.2 (72643) - https://sketchapp.com -->
    <title>biobio-napust</title>
    <desc>Created with Sketch.</desc>
    <g id="Koncept" stroke="none" stroke-width="1" fill="none" fill-rule="evenodd">
        <g id="biobio-napust">
            <path d="M40.9,8.9 C40.9,7.1 42.2,5.4 44.3,5.4 C46.3,5.4 47.7,7.1 47.7,8.9 C47.7,10.9 46.1,12.4 44.3,12.4 C42.7,12.5 40.9,11.2 40.9,8.9 Z M41,14 L41,12.6 L41,12.6 C42,14 43.6,14.3 44.5,14.3 C47.4,14.3 49.6,11.9 49.6,9.1 C49.6,6 47.1,3.9 44.4,3.9 C43.1,3.9 41.8,4.4 41,5.6 L41,5.6 L41,0.9 L39.1,0.9 L39.1,14 L41,14 Z" id="Shape" fill="#F78D1E"></path>
            <path d="M52.8,0.7 L51,0.7 L51,2.9 L52.9,2.9 L52.9,0.7 L52.8,0.7 Z M52.8,4 L51,4 L51,14 L52.9,14 L52.9,4 L52.8,4 Z" id="Shape" fill="#F78D1E"></path>
            <path d="M63.1,8.9 C63.1,10.8 61.6,12.5 59.6,12.5 C57.5,12.5 56.1,10.8 56.1,9 C56.1,7.2 57.5,5.5 59.6,5.5 C61.7,5.4 63.1,7.2 63.1,8.9 Z M64.9,8.9 C64.9,6.1 62.5,3.7 59.5,3.7 C56.4,3.7 54.1,6.2 54.1,8.9 C54.1,11.4 56.1,14.2 59.5,14.2 C62.9,14.2 64.9,11.4 64.9,8.9 Z" id="Shape" fill="#F78D1E"></path>
            <path d="M1.9,8.9 C1.9,7.1 3.2,5.4 5.3,5.4 C7.3,5.4 8.7,7.1 8.7,8.9 C8.7,10.9 7.1,12.4 5.3,12.4 C3.6,12.5 1.9,11.2 1.9,8.9 Z M1.9,14 L1.9,12.6 L1.9,12.6 C2.9,14 4.5,14.3 5.4,14.3 C8.3,14.3 10.5,11.9 10.5,9.1 C10.5,6 8,3.9 5.3,3.9 C4,3.9 2.7,4.4 1.9,5.6 L1.9,5.6 L1.9,0.9 L0,0.9 L0,14 L1.9,14 Z" id="Shape" fill="#62AC46"></path>
            <path d="M13.8,0.7 L11.9,0.7 L11.9,2.9 L13.8,2.9 L13.8,0.7 Z M13.8,4 L11.9,4 L11.9,14 L13.8,14 L13.8,4 Z" id="Shape" fill="#62AC46"></path>
            <path d="M24,8.9 C24,10.8 22.5,12.5 20.5,12.5 C18.4,12.5 17,10.8 17,9 C17,7.2 18.4,5.5 20.5,5.5 C22.6,5.5 24,7.2 24,8.9 Z M25.9,8.9 C25.9,6.1 23.5,3.7 20.5,3.7 C17.4,3.7 15.1,6.2 15.1,8.9 C15.1,11.4 17.1,14.2 20.5,14.2 C23.9,14.2 25.9,11.4 25.9,8.9 Z" id="Shape" fill="#62AC46"></path>
            <path d="M31.2,14.3 C30,14.3 28.9,13.8 28.1,13 C27.4,12.2 27,11.2 27,10.2 C27,8.6 27.9,7.4 29.6,6.5 L29.7,6.4 L29.6,6.3 C29.1,5.7 28.5,5 28.5,3.9 C28.5,2.2 30,0.8 31.8,0.8 C33.6,0.8 35.1,2.3 35.1,4.1 C35.1,5.3 34.3,6.3 33,7 L32.8,7.1 L34.6,8.9 L36,6.8 L37.7,6.8 L37.7,7.3 L36,10 L37.7,11.7 L37.7,14 L37.4,14 L35.1,11.7 L35,11.9 C34.1,13.5 32.8,14.3 31.2,14.3 L31.2,14.3 Z M30.9,7.7 C30.6,7.8 30.2,8 30,8.2 C28.9,9 28.8,9.7 28.8,10.2 C28.8,10.8 29.1,11.4 29.5,11.8 C29.9,12.2 30.5,12.4 31.1,12.4 C32.5,12.4 33.2,11.3 33.7,10.4 L33.7,10.3 L30.9,7.7 L30.9,7.7 Z M31.8,2.5 C30.9,2.5 30.3,3.2 30.3,3.8 C30.3,4.4 30.8,4.9 31.4,5.5 L31.5,5.6 L31.6,5.6 C32.4,5.3 33.3,4.8 33.3,3.9 L33.3,3.9 C33.3,3.6 33.2,3.3 33,3 C32.6,2.7 32.2,2.5 31.8,2.5 L31.8,2.5 L31.8,2.5 Z" id="Shape" fill="#6C7175" fill-rule="nonzero"></path>
        </g>
    </g>
</svg>