<?xml version="1.0" encoding="utf-8"?>
<!-- Generator: Adobe Illustrator 22.1.0, SVG Export Plug-In . SVG Version: 6.00 Build 0)  -->
<svg version="1.1" id="Layer_1" xmlns="http://www.w3.org/2000/svg" xmlns:xlink="http://www.w3.org/1999/xlink" x="0px" y="0px"
	 viewBox="0 0 1275 341" style="enable-background:new 0 0 1275 341;" xml:space="preserve">
<style type="text/css">
	.st0{fill:#20364C;}
	.st1{fill:#D1E5F0;}
	.st2{fill:#FFF0C2;}
	.st3{fill:#FFFFFF;}
	.st4{fill:#D2FAE9;}
	.st5{fill:#B3D4E5;}
	.st6{fill:#FFA194;}
	.st7{fill:#83BDE8;}
	.st8{fill:#FFEBAC;}
	.st9{opacity:0.3;}
	.st10{fill:#2F4357;}
	.st11{fill:#FABB86;}
	.st12{fill:#EB6550;}
	.st13{fill:#387385;}
	.st14{fill:#4A8A9C;}
	.st15{fill:#F9806D;}
	.st16{fill:#FCCB9F;}
	.st17{fill:#F5ECE4;}
	.st18{fill:#2A4763;}
	.st19{fill:#43678C;}
	.st20{fill:#4ABFF0;}
	.st21{fill:#BFA894;}
	.st22{fill:#DEC9B5;}
	.st23{fill:#693A32;}
	.st24{fill:#8D493E;}
	.st25{fill:#28A6DB;}
</style>
<path class="st0" d="M1064.4,255.5c-72.6,6.2-137.6,2.1-219.8-10.3c-82.2-12.3-170.1-12.3-217.8-6.2
	c-47.8,6.2-124.2,27.7-256.1,25.7C244,262.8,141.8,218.6,0,239.8V341h1275V238.2C1227.8,242,1120.1,250.8,1064.4,255.5z"/>
<g>
	<g>
		<g>
			<path class="st1" d="M782.1,212.8c-10.7-46.1,48.4-72.1,77.2-72.1c-6,51.7-38.6,73.1-57.2,73.5s-18.6,0.5-18.6,0.5L782.1,212.8z"
				/>
			<path class="st2" d="M790,187.7c25.1-47,14-77.7,14-77.7s-27.5,11.6-32.1,46.5c-4.7,34.9-1.9,39.6-1.9,39.6L790,187.7z"/>
			<g>
				<path class="st3" d="M778.8,194C778.8,194,778.8,194,778.8,194c-0.5,0-0.7-0.4-0.7-0.8c3.8-37.6,7.7-46,16.2-64.6
					c0.9-2,1.9-4.1,2.9-6.3c0.2-0.4,0.6-0.5,0.9-0.3c0.4,0.2,0.5,0.6,0.3,0.9c-1,2.3-2,4.4-2.9,6.3c-8.5,18.4-12.3,26.9-16.1,64.2
					C779.5,193.7,779.2,194,778.8,194z"/>
			</g>
			<g>
				<path class="st3" d="M783,211.6c-0.2,0-0.4-0.1-0.5-0.2c-0.3-0.3-0.3-0.7,0-1c0.3-0.3,32.1-30.2,68.4-65.6c0.3-0.3,0.7-0.3,1,0
					c0.3,0.3,0.3,0.7,0,1c-36.3,35.4-68.1,65.3-68.4,65.6C783.4,211.6,783.2,211.6,783,211.6z"/>
			</g>
			<g>
				<path class="st3" d="M817.9,178.1c-0.1,0-0.6,0-0.8-0.6c-0.9-2.2,2-19.9,9.6-28c0.3-0.3,0.7-0.3,1,0c0.3,0.3,0.3,0.7,0,1
					c-7,7.4-9.9,23.7-9.4,26.3c5,0,26.3-1,29.8-4.9c0.3-0.3,0.7-0.3,1-0.1c0.3,0.3,0.3,0.7,0.1,1
					C844.6,177.8,818.2,178.1,817.9,178.1z"/>
			</g>
			<g>
				<path class="st3" d="M815,199.7c-9.2,0-17.3-1.9-17.8-2c-0.3-0.1-0.5-0.4-0.5-0.7c0-0.8,0.1-20.3,7.1-32.9
					c0.2-0.3,0.6-0.5,0.9-0.3c0.3,0.2,0.5,0.6,0.3,0.9c-6.2,11.1-6.8,28.4-6.9,31.7c3,0.7,17.9,3.6,29.3,0.3
					c0.4-0.1,0.8,0.1,0.9,0.5c0.1,0.4-0.1,0.8-0.5,0.9C823.8,199.3,819.3,199.7,815,199.7z"/>
			</g>
		</g>
		<path class="st0" d="M802.1,214.2c-2.8-58.6-49.6-74-66.3-51.7c-16.8,22.3-16.1,25.8-16.1,25.8s1.4-75.4-42.6-71.9
			s-45.4,64.9-45.4,64.9s-2.1-127.7-79.6-122.2s-73.3,99.8-73.3,99.8s-2.1-37.7-39.1-41.9c-37-4.2-42.6,41.2-42.6,41.2
			s-33.5-34.2-63.5-44s-55.8-6.3-51.7,34.2c4.2,40.5,27.2,65.6,27.2,65.6S802.2,216.3,802.1,214.2z"/>
		<g>
			<g>
				<path class="st3" d="M552.2,212.6c-0.4,0-0.7-0.3-0.7-0.7c0-0.1,0-9.7,0.5-39.1c0.1-7.8,0.7-16.9,1.4-26.5
					c1.8-27.2,3.9-58.1-3.6-77.5c-0.1-0.4,0-0.8,0.4-0.9c0.4-0.1,0.8,0,0.9,0.4c7.6,19.7,5.5,50.7,3.7,78.1
					c-0.6,9.6-1.2,18.6-1.4,26.4c-0.5,29.4-0.5,39-0.5,39.1C552.9,212.3,552.6,212.6,552.2,212.6z"/>
			</g>
			<g>
				<path class="st3" d="M554.1,145.1c-0.2,0-0.4-0.1-0.5-0.3c-0.2-0.3-0.2-0.7,0.1-1c0.4-0.4,42.4-35.4,34.2-65.8
					c-0.1-0.4,0.1-0.8,0.5-0.9c0.4-0.1,0.8,0.1,0.9,0.5c3.5,13-1.4,28.7-14.2,45.6c-9.6,12.7-20.4,21.6-20.5,21.7
					C554.4,145.1,554.2,145.1,554.1,145.1z"/>
			</g>
			<g>
				<path class="st3" d="M553.1,200.5c-0.1,0-0.2,0-0.3-0.1c-0.3-0.2-0.5-0.6-0.3-0.9c8-16.4,32.2-26.6,48.1-33.4
					c8-3.4,14.9-6.3,16.1-8.5c0.2-0.3,0.6-0.5,0.9-0.3c0.3,0.2,0.5,0.6,0.3,0.9c-1.4,2.6-7.9,5.4-16.8,9.1
					c-15.8,6.7-39.6,16.8-47.4,32.7C553.6,200.3,553.4,200.5,553.1,200.5z"/>
			</g>
			<g>
				<path class="st3" d="M575.5,121.8c-0.3,0-0.6-0.2-0.7-0.6c0-0.3-4.7-25.9-3.3-44.8c0-0.4,0.4-0.7,0.7-0.6c0.4,0,0.7,0.4,0.6,0.7
					c-1.3,17.1,2.5,39.9,3.1,43.9c4.1-0.3,27.6-2.3,32.5-6.8c0.3-0.3,0.7-0.2,1,0c0.3,0.3,0.2,0.7,0,1
					C603.7,119.9,576.7,121.8,575.5,121.8C575.5,121.8,575.5,121.8,575.5,121.8z"/>
			</g>
			<g>
				<path class="st3" d="M552.7,165.1c-0.2,0-0.4-0.1-0.6-0.3c-0.1-0.2-15-21.4-28.2-29.1c-1.5-0.9-2.9-1.7-4.3-2.4
					c-11.2-6.3-20-11.3-22.1-31.1c0-0.4,0.2-0.7,0.6-0.8c0.4,0,0.7,0.2,0.8,0.6c2,19.1,10.2,23.7,21.4,30.1c1.4,0.8,2.8,1.6,4.3,2.5
					c13.5,7.9,28,28.6,28.6,29.5c0.2,0.3,0.1,0.8-0.2,1C552.9,165.1,552.8,165.1,552.7,165.1z"/>
			</g>
			<g>
				<path class="st3" d="M509.5,148c-0.8,0-1.6,0-2.5-0.1c-0.4,0-0.7-0.4-0.6-0.8c0-0.4,0.4-0.7,0.8-0.6c5.6,0.5,9.9-0.7,12.8-3.3
					c3.6-3.3,3.7-8.1,3.7-8.1c0-0.1,0-0.2,0-0.3c0.1-0.2,8.2-21.5,0.9-44.7c-0.1-0.4,0.1-0.8,0.5-0.9c0.4-0.1,0.8,0.1,0.9,0.5
					c7.1,22.8-0.2,43.7-0.9,45.5c0,0.9-0.4,5.5-4.1,9C518.1,146.7,514.3,148,509.5,148z"/>
			</g>
			<g>
				<path class="st3" d="M521.4,181.1c-8.4,0-17.2-1.2-24-4.9c-0.3-0.2-0.5-0.6-0.3-0.9c0.2-0.3,0.6-0.5,0.9-0.3
					c18.2,10,52.2,1,52.5,0.9c0.4-0.1,0.8,0.1,0.9,0.5c0.1,0.4-0.1,0.8-0.5,0.9C550.1,177.4,536.2,181.1,521.4,181.1z"/>
			</g>
			<g>
				<path class="st3" d="M554.5,124.2c-0.2,0-0.4-0.1-0.6-0.3c-0.1-0.2-15-22.8-19.2-48.2c-0.1-0.4,0.2-0.7,0.6-0.8
					c0.4-0.1,0.7,0.2,0.8,0.6c4.1,25.2,18.8,47.4,19,47.7c0.2,0.3,0.1,0.8-0.2,1C554.8,124.1,554.7,124.2,554.5,124.2z"/>
			</g>
			<g>
				<path class="st3" d="M591.8,193.4c-15.9,0-19.7-12.8-19.7-13c0-0.1,0-0.3,0-0.4c0.4-1.3,9.1-31.5,24-44.1c0.3-0.2,0.7-0.2,1,0.1
					c0.2,0.3,0.2,0.7-0.1,1c-13.9,11.8-22.7,40.5-23.5,43.2c0.6,1.7,5.2,13.9,22.9,11.4c18.9-2.7,24.1-12.1,24.1-12.2
					c0.2-0.3,0.6-0.5,0.9-0.3c0.3,0.2,0.5,0.6,0.3,0.9c-0.2,0.4-5.5,10.1-25.2,12.9C594.8,193.3,593.2,193.4,591.8,193.4z"/>
			</g>
			<g>
				<path class="st3" d="M536.8,179.5c-0.4,0-0.7-0.3-0.7-0.7c0-0.1-0.2-11.8-15.9-20.8c-0.3-0.2-0.5-0.6-0.3-1
					c0.2-0.3,0.6-0.5,1-0.3c16.4,9.4,16.6,21.5,16.6,22C537.5,179.2,537.2,179.5,536.8,179.5z"/>
			</g>
		</g>
		<g>
			<path class="st1" d="M512.2,214.7c0.5-52.6-23.7-93.1-47.5-98.7c-4.7,9.8-5.1,34.9,0.5,56.3c6.1,23.5,24.7,41.9,24.7,41.9
				L512.2,214.7z"/>
			<path class="st2" d="M487.1,201.6c-0.2-0.7-0.5-1.3-0.7-1.9c-18.8-49.4-70.8-37.6-92.4-35.3c-21.9,2.3-33,7-33,7
				s9.3,25.6,43.3,35.8c34,10.2,88.4,7,88.4,7L487.1,201.6z"/>
			<g>
				<path class="st3" d="M498.7,213.5c-0.3,0-0.6-0.2-0.7-0.5c-0.1-0.6-14.6-62.1-28.8-85.4c-0.2-0.3-0.1-0.8,0.2-1
					c0.3-0.2,0.8-0.1,1,0.2c14.3,23.6,28.8,85.2,28.9,85.8c0.1,0.4-0.1,0.8-0.5,0.8C498.8,213.5,498.7,213.5,498.7,213.5z"/>
			</g>
			<g>
				<path class="st3" d="M480.5,214.4c-0.1,0-0.2,0-0.4-0.1c-0.6-0.4-60.4-36.2-103.4-36.2c-0.4,0-0.7-0.3-0.7-0.7
					c0-0.4,0.3-0.7,0.7-0.7c43.4,0,103.5,36,104.1,36.4c0.3,0.2,0.4,0.6,0.2,1C481,214.3,480.8,214.4,480.5,214.4z"/>
			</g>
			<g>
				<path class="st3" d="M397.5,197.7c-0.3,0-0.5,0-0.8,0c-0.4,0-0.7-0.3-0.7-0.7c0-0.4,0.3-0.7,0.7-0.7c9,0.4,24.1-7.4,27.1-9
					c-0.8-2.6-5-14.3-15.4-21.9c-0.3-0.2-0.4-0.7-0.2-1c0.2-0.3,0.7-0.4,1-0.2c12.2,8.9,15.9,22.6,16.1,23.2
					c0.1,0.3-0.1,0.6-0.3,0.8C424.3,188.7,407.9,197.7,397.5,197.7z"/>
			</g>
			<g>
				<path class="st3" d="M435.9,208.9c-0.3,0-0.6-0.2-0.7-0.5c-0.1-0.4,0.1-0.8,0.5-0.9c11.7-3.2,18.5-7.5,19.9-8.5
					c-0.2-2.7-1.6-19.3-13.8-32.2c-0.3-0.3-0.2-0.7,0-1c0.3-0.3,0.7-0.2,1,0c13.5,14.5,14.1,33.3,14.1,33.5c0,0.2-0.1,0.4-0.3,0.6
					c-0.3,0.2-7.2,5.2-20.7,9C436,208.8,435.9,208.9,435.9,208.9z"/>
			</g>
		</g>
		<path class="st4" d="M841.2,203.5c12.4-22.3,53.8-16.2,46.9-6.8c-6.9,9.4-20.6,12.2-33.6,13.5
			C841.5,211.4,835.8,213.2,841.2,203.5z"/>
		<path class="st5" d="M717.4,209c1.4,2.1,2.8,4.3,4,6.6h0.8c-1.3-2.4-2.7-4.9-4.4-7.3c0.9-0.2,12-10.7,6.1-28c-0.5-1.4-1.6-2-2.1-1
			c-4.8,8.8-4.8,19.2-4.9,27.6c-0.8-1.2-5.9-7.7-12.7-13.4c0.6-0.7,3.7-6.7,1.6-14.2c-0.9-3.2-2.6-6.2-4-8.2
			c-0.7-0.9-1.7-1.1-1.9-0.2c-1.9,7.1-0.3,14.3,2.5,21.1c-5.7-4.2-11.3-7.5-15.1-9.2c0.8-0.6,1.8-10.8-7.6-15.7
			c-0.7-0.4-1.4,0.1-1.3,0.9c0.6,6.4,3,10.6,6.7,13.7c-2.3-1-5.1-2.2-7.9-3.1c0-0.9-6-8.2-15.2-4.3c-0.7,0.3-0.8,1.2-0.2,1.6
			c2.2,1.9,4.4,3.2,6.8,3.8c3.6,1,8,0.1,8.5-0.5c2.5,0.8,5.2,1.9,7.6,3c-4.8-0.5-9.1,1.4-12.7,6.2c-0.5,0.6-0.3,1.4,0.3,1.5
			c1.5,0.1,4.3,0.3,7.4-1c2.9-1.1,7.5-4.5,7.5-5.5c3.1,1.4,8.7,4.4,14.9,9.1c-7.2-1.5-13.5,0.3-18.4,5.8c-0.6,0.6-0.2,1.4,0.6,1.4
			c2.1,0,5.9,0,10.1-1.1c4.3-1.1,9.3-3.9,9.6-4.6c4.6,3.8,9.6,8.9,12.9,13.7c-3.6-1.3-9.2-1.8-13.8-0.6c-5.3,1.4-9.2,4.4-11.2,6.1
			c-0.8,0.7-0.6,1.4,0.4,1.3C707.4,213.7,717,210,717.4,209z"/>
		<path class="st6" d="M737.7,201.1c0.3,4.8,0.4,9.6,0.3,14.5h0.7c0.1-4.7,0.1-9.8-0.3-15.1c0.9,0.6,15.4-4.7,18.9-28
			c0.3-1.9-0.4-3.4-1.3-2.8c-8.9,5.4-14.3,18-17.8,28.2c-0.4-3.8-1.1-12.8-5.3-28.4c1-0.3,10.7-6.8,9.1-26.1c-0.1-1.6-1-2.7-1.7-2.1
			c-6,5.5-7.8,14.5-8.5,24.6c-2.2-7.3-6.4-18.8-9.9-25.7c0.3,0.1,0.6,0,0.8-0.3c4.5-6.8,3.8-15.1,0.4-22.5c-0.5-1-1.4-1.3-1.8-0.6
			c-3.1,6.2-3.1,12.7-1.1,19.9c-2-4-2.7-5.5-6.2-11.8c0.4-0.7-0.9-13.5-13.2-20.8c-0.9-0.5-1.6,0.1-1.3,1c1.2,4,2.7,7.6,4.9,10.9
			c2.9,4.5,8.1,9.2,9,9.2c2.3,4.1,3.1,5.5,6,11.4c-4.5-5.9-10-8.9-16.6-8.9c-0.8,0-1.1,0.9-0.5,1.7c4.9,6.2,10.3,10.5,18.1,11.3
			c0.3,0,0.6-0.1,0.8-0.3c3.5,7.1,7.6,18.2,9.8,25.6c-5-7.5-12.1-14.2-20.9-14.1c-0.9,0-0.9,1.2-0.1,2.3c2.2,2.7,6.1,7.3,10.7,10.7
			c4.8,3.6,10.7,5.3,11.4,4.8c4.1,15.4,4.8,24.1,5.4,29.1c-5.3-9.5-14.4-17.7-25.5-17.8c-1.1,0-1.1,1.3-0.1,2.4
			c0.9,1,1.7,1.9,2.5,2.8C727.7,200.6,737.1,201.8,737.7,201.1z"/>
		<path class="st7" d="M322.1,202.3c1.3,4.2,2.2,8.1,2.9,11.9h0.7c-0.8-4.1-1.8-8.4-3.1-12.6c0.8,0.2,13.1-6.4,12.5-24.5
			c-0.2-4.3-0.5-5.2-1.2-5.9c-0.4-0.4-0.9-0.5-1.2,0c-6.3,7.5-8.8,19.3-10.8,28.5c-2.5-7.6-7.1-15.7-10.4-19.9
			c1.3-0.9,5.1-7.4,3.3-14.9c-1.1-4.9-3.6-9.2-4.4-10.3c-0.8-1.2-2.1-1.6-2.4-0.8c-2.5,8,0.3,17.7,1.6,23.6
			c-1.7-2.4-8.7-9.4-16.5-13.7c1.1-0.5,1.7-11.7-10.6-17c-0.9-0.4-1.7,0.1-1.5,0.9c1.7,6.5,4.9,10.8,9.5,14.6
			c-3.6-1.7-5.9-2.7-9.7-3.8c-0.2-1.2-8.8-8.6-19-3.3c-0.8,0.4-0.7,1.3,0,1.6c3,1.5,5.8,2.6,8.7,3c3.7,0.6,9.4,0,10-0.7
			c3.7,1.1,6,2.1,9.3,3.7c-5.7-1.2-10.7,0.7-14.3,5.7c-0.5,0.6-0.2,1.4,0.5,1.5c6,0.6,11.4-1.3,16.4-4.9c0.3-0.2,0.4-0.5,0.4-0.7
			c6.2,3.2,14.3,10.7,16.3,13.5c-6.1-3.6-14.2-4.2-20.5,1.3c-0.6,0.6-0.4,1.4,0.5,1.5c2.3,0.3,6.2,1.1,10.8,1.2
			c4,0.1,10.5-0.9,11-1.7c3.7,4.7,7.8,12.2,10.5,20.3c-7.4-6.6-17-8.6-26.5-4.2c-0.5,0.2-0.7,0.5-0.7,0.8c0.1,0.7,1.1,0.9,3.4,1.5
			c0.9,0.2,1.7,0.5,2.5,0.8c1.7,0.5,3.4,0.9,4.9,1.4C315.2,203.5,321.7,203,322.1,202.3z"/>
		<path class="st8" d="M326.1,206.5c4.7,2.7,8.1,2.7,8.4,2.3c0.2,1.9,0.5,3.6,0.7,5.4h0.7c-0.3-2.1-0.6-4.1-0.8-6.1
			c0.8,0.5,7.2-2.8,12-8.5c4.3-5.1,7.5-11.4,9.2-15.1c0.7-1.5,0.2-2.8-0.8-2.4c-9.7,2.9-16.5,11.9-20.6,23.4
			c-1.2-11.3-1.5-17.6-1.8-28c0.7,0,5.6-1.9,9.7-6.9c3.6-4.3,6-9.9,7.3-13.1c0.5-1.3,0.1-2.5-0.7-2.2c-7.7,2.2-12.9,9.3-16.4,18.5
			c-0.2-10.2,0-19.3,0.2-26.8c0.2,0.2,0.6,0.3,0.9,0.1c6.1-3.4,10.1-9.1,11.8-17.8c0.2-1-0.4-1.7-1.2-1.4c-6.1,3-9.6,8.2-11.3,15.3
			c0.4-7.8,0.2-5,0.7-13c0.2-0.1,0.4-0.3,0.5-0.6c3.6-7.4,4.4-15,2.1-23.2c-0.3-1-1.1-1.1-1.6-0.2c-4,7.2-4.8,15.2-2.1,23.3
			c0.1,0.3,0.3,0.5,0.4,0.6c-0.3,4-0.5,8.1-0.7,12.6c-1.1-7.1-4-12.6-9.4-16.4c-0.7-0.5-1.4,0.2-1.4,1.2c0.4,7.9,3.1,15,9.8,19.3
			c0.3,0.2,0.6,0.2,0.8,0c-0.3,8.1-0.5,16.9-0.2,26.8c-3.1-9.4-7.4-17.5-14.8-21.1c-0.8-0.4-1.3,0.8-1,2.2
			c4.8,19.3,15.2,22.9,15.9,22.6c0.4,11.1,0.7,17.2,1.9,28.9c-5.3-9-13.8-19.3-24.1-21.8c-1.1-0.3-1.3,1.3-0.5,2.8
			C313.3,194.9,319,202.4,326.1,206.5z"/>
		<path class="st6" d="M716.1,81.2c0,4.8-3.1,8.7-3.1,8.7s-3.1-3.9-3.1-8.7c0-4.8,3.1-8.7,3.1-8.7S716.1,76.4,716.1,81.2z"/>
		<path class="st6" d="M693.1,106c2.5,3.3,2.3,7.5,2.3,7.5s-4.1-1-6.6-4.3s-2.3-7.5-2.3-7.5S690.6,102.7,693.1,106z"/>
		<path class="st2" d="M825.2,131.6c-3.9,5-10.6,6.3-10.6,6.3s-0.4-6.8,3.5-11.9c3.9-5,10.6-6.3,10.6-6.3S829.1,126.6,825.2,131.6z"
			/>
		<path class="st7" d="M272,123.9c1.9,4.4,0.6,9.3,0.6,9.3s-4.4-2.3-6.4-6.7c-1.9-4.4-0.6-9.3-0.6-9.3S270.1,119.5,272,123.9z"/>
		<path class="st7" d="M305.1,141.3c-0.6,4.8-4.1,8.3-4.1,8.3s-2.7-4.2-2.1-9c0.6-4.8,4.1-8.3,4.1-8.3S305.7,136.5,305.1,141.3z"/>
		<path class="st7" d="M284.7,87c0.3,3.9-1.8,7.2-1.8,7.2s-2.5-3-2.8-6.8c-0.3-3.9,1.8-7.2,1.8-7.2S284.4,83.1,284.7,87z"/>
	</g>
	<g>
		<g class="st9">
			<path d="M403.8,292.7c-70-7-107,1-79,8c28,7,159.1,22,181.1,16c22-6,18-9-24-14C439.8,297.7,403.8,292.7,403.8,292.7z"/>
			<path d="M661.6,295.6c31,2,56-5,40-8c-16-3-20-3-51,0c-15.9,1.5-38.6-9.3-53.4-11.2c-19.4,4.7-40.5,8.9-66.7,10.5
				C580,293.8,634.6,293.8,661.6,295.6z"/>
			<path d="M770.6,298.3c-36,0-36,21,2,19c38-2,55,0,87,1c32,1,41.6-4.3,11.6-11.3c-30-7-37.6,5.3-64.6,1.3
				C779.6,304.4,770.6,298.3,770.6,298.3z"/>
			<path d="M979.7,296.6c-48.2,5.8-74.5-7.9-85.5-2.9s-5,20,40,18c45-2,72-7,78-7C1018.2,304.7,1005.2,293.6,979.7,296.6z"/>
		</g>
		<g>
			<path class="st10" d="M443.3,38.8c-5-18.3-19-26-27.6-22.9c-8.4,3-15.4,5-20.9,16.3c-5.6,11.3-8.2,0.6-17.5-5.8
				c-9.3-6.4-20.6-3.9-23.8,8.3c-3.2,12.1-16.2,13.7-19.1-9.8c-1.4-11.3-4.5-21.2-7.5-4c-2.9,17.2,2.4,48.7,22.5,52.5
				c20,3.9,23.7-21.5,33.8-8.9c10.1,12.6,29.7,27.7,47.3,16.8C448.2,70.5,446.2,49.6,443.3,38.8z"/>
			<path class="st11" d="M464.9,57.2c-0.7-3.1-5.2-4.9-5.5-8.1c-0.1-1.8,2-4,3.1-6.3c0.8-1.6,2.8-2.1,4.2-1c2.3,1.7,5.3,4.3,6.2,6.3
				c1.4,3.4-1.9,8.7-1.9,8.7L464.9,57.2z"/>
			<path class="st12" d="M416.6,83.1c-1.2,2.8-0.6,6.4,2.2,7.3c10,3.2,26.3,4.1,38.9,5.2c12.9,1.1,17.5-0.3,19-7.4
				c1.5-7.2-2-29-3.5-32.1c-1.4-3.1-9.2-0.2-9.2-0.2l-0.9,22.9c0,0-11.9-7.4-27.9-11.6C425.9,69.2,418.9,78,416.6,83.1z"/>
			<path class="st13" d="M365.2,213.5c13.1-10,20.6-16.9,18.8-47.5c-1.2-20.4,4.2-30.2,11.4-34.2c0.5-0.3,1.1-0.6,1.6-0.8l29.6,14.6
				l5.8-3.2c-0.8,2.1-1.5,4.1-2,6.1c-3.9,14.6-16,61.2-38.4,73.9c-23.8,13.5-36.5,57.4-36.5,57.4s-8,1.5-8.3-3.2
				C346.3,264.6,349.9,225.1,365.2,213.5z"/>
			<path class="st11" d="M397,131c6.7-3.2,13.9-3.7,12.2-18.7c-1.8-16.1-8.5-36.5,0.7-44.8c9.2-8.3,7.1-11.5,8.7-29.9l11.8,6.8
				c0,0-0.7,10-0.3,17.5c0.4,7.5,14.8,14.2,15.3,28.6c0.8,23.4-8.1,39.2-12.9,51.8l-5.8,3.2L397,131z"/>
			<path class="st14" d="M406.8,126.3c-22.3,4.8-25.1,22.9-18.5,33c8.8,13.4,48.4,16.5,55,17c6.7,0.5,2.4-4.4-4.8,13
				c-7.8,18.9-3.1,62.2-3.1,62.2s7.3,3.4,8.2,0.5c20.5-63.7,25.9-64.8,26.8-82.6C471.4,151.6,406.8,126.3,406.8,126.3z"/>
			<path class="st15" d="M434.2,62.2c-2.7-2.3-18.4-7.9-19-6.3c-0.7,1.6,1,2.7-1.7,4.7c-2.7,2-9.8,9.8-9.4,18.2
				c0.4,8.4,3.6,25.3,3.7,32.3c0.1,7-10.1,18.4-10.1,18.4s8.9-0.3,15.8,3.5c6.9,3.7,20.9,5.6,20.9,5.6s11.5-22,12.8-43
				C448,80.9,435.2,68,435.2,68S436.9,64.5,434.2,62.2z"/>
			<path class="st11" d="M399.9,121.2c2.6,1.8,7-0.2,9.3,1.9c1.3,1.2,1.2,4.3,1.9,6.8c0.5,1.8-0.6,3.5-2.4,3.8
				c-2.8,0.4-6.7,0.8-8.6-0.1c-3.3-1.4-4.3-7.7-4.3-7.7L399.9,121.2z"/>
			<path class="st6" d="M418,67.6c-0.9-2.9-3.7-5.1-6.4-3.7c-9.4,4.9-21.8,16-31.6,24.3c-10.1,8.5-12.6,12.8-8.9,19.1
				c3.6,6.2,20.5,19.6,23.6,20.8c3.1,1.2,6.8-6.5,6.8-6.5l-14.3-17.3c0,0,13.5-3.2,27.8-11.7C420.3,84.3,419.7,72.9,418,67.6z"/>
			<path class="st16" d="M419.1,47.6c3.3,6.4,7.3,8.6,17.4,7.6c3-0.3,1.9-12.2,0.1-19.3s-9.7-8.7-13.7-5.9
				C418.5,33.2,414.9,39.6,419.1,47.6z"/>
			<path class="st0" d="M355.5,280.1c3,6.6,22.5,13.4,13.8,14.6c-8.7,1.2-12.5-0.6-18.7-2.7c-6.2-2.1-8.7-3.2-7.2-6.2
				c1.5-3.1,4.6-8.2,4.6-8.2L355.5,280.1z"/>
			<path class="st0" d="M443.4,254.4c3,6.6,22.5,13.4,13.8,14.6c-8.7,1.2-12.5-0.6-18.7-2.7c-6.2-2.1-8.7-3.2-7.2-6.2
				c1.5-3.1,4.6-8.2,4.6-8.2L443.4,254.4z"/>
			<path class="st17" d="M355.5,279.6c3,6.6,22.5,13.4,13.8,14.6c-8.7,1.2-12.5-0.6-18.7-2.7c-6.2-2.1-8.7-3.2-7.2-6.2
				c1.5-3.1,4.6-8.2,4.6-8.2L355.5,279.6z"/>
			<path class="st17" d="M443.4,253.9c3,6.6,22.5,13.4,13.8,14.6c-8.7,1.2-12.5-0.6-18.7-2.7c-6.2-2.1-8.7-3.2-7.2-6.2
				c1.5-3.1,4.6-8.2,4.6-8.2L443.4,253.9z"/>
			<path class="st0" d="M355.4,278c3,6.6,22.5,13.4,13.8,14.6c-8.7,1.2-12.5-0.6-18.7-2.7c-6.2-2.1-8.7-3.2-7.2-6.2
				c1.5-3.1,4.6-8.2,4.6-8.2L355.4,278z"/>
			<path class="st0" d="M443.3,252.3c3,6.6,22.5,13.4,13.8,14.6c-8.7,1.2-12.5-0.6-18.7-2.7c-6.2-2.1-8.7-3.2-7.2-6.2
				c1.5-3.1,4.6-8.2,4.6-8.2L443.3,252.3z"/>
			<path class="st10" d="M442.3,37c-11.5,0.4-17.2-5.5-17.7-3.9c-0.5,1.6-2.5,14.3-12.6,24.3c-10.2,10-22.8,5.8-29,1.9
				c-6.2-4,30.8-37.4,30.8-37.4l20.8,3.3L442.3,37z"/>
			<path class="st16" d="M417,46c1.5,2,3.7,2.7,4.9,1.7s1-3.5-0.6-5.4c-1.5-2-3.7-2.7-4.9-1.7C415.3,41.6,415.5,44.1,417,46z"/>
			<path class="st10" d="M438.5,20.1c0,0-0.1-0.2-0.4-0.5c-0.1-0.2-0.3-0.4-0.5-0.6c-0.2-0.2-0.4-0.5-0.6-0.8
				c-0.2-0.3-0.5-0.6-0.7-0.9c-0.3-0.3-0.6-0.6-0.9-0.9c-0.3-0.3-0.7-0.6-1-0.9c-0.3-0.3-0.7-0.6-1.1-0.8c-0.4-0.3-0.8-0.5-1.2-0.7
				c-0.4-0.2-0.8-0.4-1.2-0.6c-0.4-0.2-0.7-0.4-1.1-0.5c-0.3-0.2-0.7-0.3-1-0.5c-0.3-0.1-0.6-0.3-0.9-0.3c-0.3-0.1-0.5-0.2-0.7-0.3
				c-0.4-0.1-0.6-0.2-0.6-0.2l0-0.2c0,0,0.2-0.1,0.7-0.2c0.2,0,0.5-0.1,0.8-0.1c0.3,0,0.7,0,1.1,0c0.4,0.1,0.8,0.1,1.2,0.2
				c0.4,0.1,0.9,0.3,1.3,0.5c0.4,0.2,0.8,0.5,1.2,0.8c0.4,0.3,0.8,0.6,1.2,1c0.4,0.3,0.7,0.7,1.1,1.1c0.3,0.4,0.7,0.7,0.9,1.1
				c0.3,0.4,0.5,0.7,0.8,1.1c0.2,0.4,0.4,0.7,0.6,1c0.2,0.3,0.3,0.6,0.5,0.9c0.1,0.3,0.2,0.5,0.3,0.7c0.2,0.4,0.3,0.6,0.3,0.6
				L438.5,20.1z"/>
			<path class="st0" d="M387.9,77.3c0,0-0.2-0.1-0.6-0.3c-0.2-0.1-0.4-0.2-0.7-0.3c-0.3-0.1-0.5-0.3-0.8-0.5c-0.3-0.2-0.7-0.4-1-0.6
				c-0.3-0.2-0.7-0.5-1-0.7c-0.3-0.3-0.7-0.6-1-0.9c-0.3-0.3-0.7-0.7-1-1c-0.3-0.4-0.6-0.7-0.9-1.1c-0.3-0.4-0.6-0.8-0.8-1.2
				c-0.2-0.4-0.4-0.8-0.5-1.2c-0.1-0.4-0.2-0.8-0.3-1.1c-0.1-0.7-0.1-1.3-0.1-1.8c0-0.4,0.1-0.7,0.1-0.7l0.2,0c0,0,0.4,0.8,1.1,2
				c0.1,0.1,0.2,0.3,0.3,0.4c0.1,0.2,0.2,0.3,0.3,0.5c0.2,0.3,0.4,0.7,0.6,1c0.2,0.4,0.4,0.7,0.6,1.1c0.2,0.4,0.4,0.7,0.7,1.1
				c0.2,0.4,0.5,0.7,0.8,1.1c0.3,0.3,0.6,0.7,0.8,1c0.3,0.3,0.6,0.6,0.9,0.8c0.3,0.3,0.6,0.5,0.8,0.7c0.3,0.2,0.5,0.4,0.7,0.6
				c0.2,0.2,0.4,0.3,0.6,0.4c0.3,0.2,0.5,0.4,0.5,0.4L387.9,77.3z"/>
			<path class="st10" d="M381.3,25.2c0,0-0.2-0.1-0.4-0.3c-0.3-0.2-0.6-0.5-1.1-0.9c-0.5-0.3-1-0.7-1.6-1.1
				c-0.3-0.2-0.6-0.4-0.9-0.6c-0.3-0.2-0.6-0.4-1-0.6c-0.3-0.2-0.7-0.3-1-0.5c-0.3-0.1-0.7-0.3-1-0.4c-0.3-0.2-0.6-0.3-0.9-0.4
				c-0.3-0.1-0.5-0.3-0.8-0.4c-1-0.5-1.7-0.8-1.7-0.8l0-0.2c0,0,0.2-0.1,0.6-0.2c0.2-0.1,0.4-0.1,0.7-0.1c0.3,0,0.6,0,0.9,0
				c0.3,0,0.7,0.1,1,0.2c0.3,0.1,0.7,0.2,1.1,0.4c0.3,0.2,0.7,0.4,1,0.6c0.3,0.2,0.7,0.5,1,0.7c0.3,0.2,0.6,0.5,0.9,0.8
				c0.3,0.2,0.6,0.5,0.9,0.8c0.3,0.3,0.5,0.5,0.8,0.8c0.2,0.3,0.4,0.5,0.6,0.7c0.4,0.4,0.7,0.8,0.9,1.1c0.2,0.3,0.3,0.4,0.3,0.4
				L381.3,25.2z"/>
			<path class="st10" d="M346.6,75.8c0,0-0.2-0.1-0.6-0.2c-0.4-0.1-0.9-0.3-1.6-0.5c-0.3-0.1-0.7-0.2-1.1-0.4
				c-0.4-0.1-0.8-0.3-1.2-0.5c-0.8-0.3-1.6-0.8-2.5-1.2c-0.8-0.4-1.7-0.8-2.4-1.3c-0.7-0.5-1.3-1-1.8-1.5c-1-1-1.5-1.9-1.5-1.9
				l0.1-0.1c0,0,0.9,0.3,2.2,0.9c0.6,0.3,1.3,0.7,2,1.2c0.7,0.5,1.4,1.1,2.1,1.6c0.4,0.3,0.7,0.5,1.1,0.8c0.4,0.2,0.7,0.5,1.1,0.7
				c0.4,0.2,0.7,0.4,1.1,0.6c0.3,0.2,0.7,0.4,1,0.6c0.6,0.3,1.1,0.6,1.5,0.8c0.4,0.2,0.6,0.3,0.6,0.3L346.6,75.8z"/>
			<path class="st10" d="M336.3,23.4c0,0-0.1-0.2-0.3-0.7c-0.1-0.2-0.2-0.5-0.3-0.8c-0.1-0.3-0.2-0.6-0.3-1
				c-0.1-0.4-0.2-0.8-0.3-1.2c-0.1-0.4-0.2-0.9-0.2-1.4c-0.1-0.5-0.1-1-0.1-1.5c0-0.5,0-1.1,0-1.6c0-0.5,0.1-1.1,0.2-1.6
				c0.1-0.5,0.2-1,0.4-1.5c0.2-0.5,0.4-0.9,0.7-1.3c0.2-0.4,0.5-0.8,0.8-1.1c0.3-0.3,0.6-0.6,0.8-0.7c0.3-0.2,0.5-0.4,0.7-0.5
				c0.4-0.2,0.7-0.3,0.7-0.3l0.1,0.1c0,0-0.1,0.2-0.4,0.6c-0.1,0.2-0.2,0.4-0.4,0.7c-0.2,0.2-0.3,0.6-0.5,0.9
				c-0.1,0.2-0.1,0.3-0.2,0.5c-0.1,0.2-0.2,0.3-0.2,0.5c-0.2,0.4-0.3,0.8-0.5,1.2c-0.1,0.4-0.3,0.8-0.5,1.3
				c-0.2,0.4-0.3,0.9-0.4,1.4c-0.1,0.5-0.2,1-0.2,1.4c0,0.5-0.1,1-0.1,1.4c0,0.5,0,0.9,0,1.3c0,0.4,0.1,0.8,0.1,1.2
				c0.1,0.4,0.1,0.7,0.1,1c0,0.3,0.1,0.6,0.1,0.8c0.1,0.4,0.1,0.7,0.1,0.7L336.3,23.4z"/>
		</g>
		<g>
			<path class="st0" d="M507.8,185c-7.1-5.2-14.2-6-14.8,3.5c-0.4,7-5.7,14.7-3,24c2.7,9.3,6,7.5,7.5-1.7c1.2-7.5,2.9-10.3,6.2-14.1
				C507.5,192.2,507.8,185,507.8,185z"/>
			<path class="st7" d="M509.4,185c-7.1-5.2-14.2-6-14.8,3.5c-0.4,7-5.7,14.7-3,24c2.7,9.3,6,7.5,7.5-1.7c1.2-7.5,2.9-10.3,6.2-14.1
				C509.1,192.3,509.4,185,509.4,185z"/>
			<path class="st0" d="M650.3,281.8c0.7,9,4.7,15.3,12,9.6c5.4-4.2,14.4-4.8,19.5-12.9c5.1-8.1,1.6-9.6-6.1-4.9
				c-6.2,3.8-9.4,4.2-14.3,4C655.7,277.4,650.3,281.8,650.3,281.8z"/>
			<path class="st7" d="M649.2,280.1c0.7,9,4.7,15.3,12,9.6c5.4-4.2,14.4-4.8,19.5-12.9c5.1-8.1,1.6-9.6-6.1-4.9
				c-6.2,3.8-9.4,4.2-14.3,4C654.7,275.7,649.2,280.1,649.2,280.1z"/>
			<path class="st18" d="M609.1,145.4c-14.4,33.1-34.3,58.7-37.9,60.8c-3.6,2.1-35.2,0.1-51.5-3.7c-16.3-3.8-16.3-3.8-16.3-3.8
				s0.7-11.9,5.4-14.4c4.7-2.5,36.4-5.7,42.1-7c5.7-1.3,23.6-45.9,23.6-45.9L609.1,145.4z"/>
			<path class="st19" d="M612,130.6c11.7,22.9,19.5,41.6,26.6,58.2c7,16.6,4.8,34.4,15.4,62.3c10.6,27.9,8.5,24.8,4.4,28
				c-2.4,1.9-8.4,2.6-10.4,0c-16-21.7-32.6-45.2-36.7-66.5c-4.9-25.3-43.3-38.4-39.3-73.8c1.9-16.4,19.1-22.2,19.1-22.2L612,130.6z"
				/>
			<path class="st11" d="M596.5,57.3c-7.1,17.6,11.7,42.3,18.5,51.4c6.9,9.1,17.8,12,31.6-2s11.7-15,15.8-17
				c7.4,2.8,15.4-12.5,5.6-14.8c-9.8-2.2-14.5,6.7-14.5,6.7s-16.2,9.8-20.6,15.1c-4.6,1.5-3.8-19.5-17.8-31.1
				C601.3,54,596.5,57.3,596.5,57.3z"/>
			<path class="st20" d="M595.3,28.5c-0.9,13.6,1.1,20.2-2.9,22.1c-4,1.9-9.6,0.1-15.6,3.8c-2.9,1.8-12.4,20.5-6.4,32.7
				c6.9,14,9.6,28,7.1,36.5c-1.2,4.1,25.7,15,36.2,10.2c3.3-14.9,11.3-38.3,10.2-52.7c-1.4-19.8-13.4-22.3-15.4-30
				c-1.9-7.7,0.1-14.6,0.1-14.6L595.3,28.5z"/>
			<path class="st11" d="M577.5,54.2c5.6-3.2,9.4-2.9,10.8-1.1c2,2.6,8.6,24.5-0.1,33.8c-3.6,3.8-11.3,3.3-11.3,3.3L577.5,54.2z"/>
			<path class="st16" d="M586.6,52.3C565.2,50.9,551.3,83,545,92.5c-6.3,9.5-4.7,16.6,12.1,26.5s19,6.9,21.3,12.9
				c2.3,6,12.6,6.3,11.8-4.1c-0.8-10.5-9.3-11.1-9.3-11.1s-14.6-10.9-17.4-15c-2.7-4.2,16.1-5.5,22.6-22.8
				C592.8,61.4,586.6,52.3,586.6,52.3z"/>
			<path class="st11" d="M592.4,50.6c4-1.9,2-8.5,2.9-22.1l13.5,8c0,0-2,6.9-0.1,14.6c0.9,3.5,5,7,8,10.9c-9.3,4-18.2-0.6-21.7-7
				c-1.1-2-2-3.4-2.8-4.4C592.2,50.7,592.3,50.6,592.4,50.6z"/>
			<path class="st16" d="M597.7,30.5c-0.2,8.8,3.3,17.4,16.3,17.2c6.6-0.1,7.4-7.7,7.6-16.5c0.2-8.8-4.9-16.1-11.6-16.3
				C603.5,14.7,598,21.7,597.7,30.5z"/>
			<path class="st0" d="M623,8.4c8.8-0.8,4.6,8.1,3,9c-1.6,0.9-1.8,2.2-1.4,5c0.5,2.8-1.6,6.3-8.8,4.6c-7.2-1.7-11.2-5.4-11.4,0
				s0.4,6-1.3,7.4s-1.4,6.9,0.1,8.2c1.6,1.4,8-0.9,11.4-2.7c3.4-1.8,5.4-2.5,6.4-0.9c1,1.5,0.4,12.9-1.8,13.4
				c-2.1,0.5-20.3-6.6-21.1-8.3c-0.8-1.7,0.1-10.6-1.6-11.8c-1.7-1.2-1.3,7.6-1.3,7.6s-1.4-8.2-3.9-14.8c-2.5-6.6-0.9-8,2.5-8.7
				c3.4-0.6-0.9-7.1,3.3-9.6c4.2-2.5,7.9,2.7,10.8,2.4c2.9-0.3,4.6-4.9,7.9-4.1S620,8.7,623,8.4z"/>
			<path class="st16" d="M599.6,31.9c0.6,2.1,2.3,3.4,3.7,3c1.4-0.5,2-2.6,1.4-4.7s-2.3-3.4-3.7-3C599.6,27.7,599,29.8,599.6,31.9z"
				/>
			<path class="st0" d="M621.3,4.1c0,0-0.1-0.1-0.3-0.2c-0.2-0.1-0.4-0.3-0.7-0.5c-0.3-0.2-0.7-0.4-1-0.6c-0.2-0.1-0.4-0.2-0.6-0.3
				c-0.2-0.1-0.4-0.2-0.6-0.3c-0.4-0.2-0.9-0.2-1.3-0.2c-0.2,0-0.4-0.1-0.5-0.2c-0.2-0.1-0.3-0.1-0.5-0.2c-0.7-0.3-1.2-0.4-1.2-0.4
				l-0.1-0.2c0,0,0.1-0.1,0.3-0.3c0.2-0.2,0.5-0.4,1-0.5c0.4-0.1,1-0.2,1.5,0c0.3,0.1,0.5,0.2,0.8,0.3c0.2,0.2,0.5,0.3,0.7,0.4
				c0.2,0.2,0.5,0.3,0.7,0.5c0.2,0.2,0.4,0.3,0.6,0.5c0.2,0.2,0.3,0.3,0.5,0.5c0.1,0.2,0.3,0.3,0.4,0.5c0.2,0.3,0.4,0.6,0.5,0.8
				c0.1,0.2,0.2,0.3,0.2,0.3L621.3,4.1z"/>
			<path class="st0" d="M588,22.4c0,0-0.1-0.1-0.2-0.4c-0.1-0.2-0.2-0.5-0.4-0.9c-0.1-0.2-0.1-0.4-0.2-0.7c-0.1-0.2-0.1-0.5-0.2-0.8
				c-0.1-0.3-0.1-0.5-0.1-0.8c0-0.3-0.1-0.6-0.1-0.9c0-0.3,0-0.6,0-0.9c0-0.3,0-0.6,0.1-0.9c0.1-0.3,0.2-0.5,0.3-0.8
				c0.1-0.2,0.3-0.4,0.4-0.6c0.2-0.2,0.3-0.3,0.5-0.4c0.2-0.1,0.3-0.2,0.4-0.3c0.3-0.1,0.5-0.1,0.5-0.1l0.1,0.1c0,0-0.1,0.6-0.2,1.4
				c0,0.2-0.1,0.4-0.1,0.6c0,0.2-0.1,0.4-0.1,0.6c0,0.2-0.2,0.4-0.2,0.7c-0.1,0.2-0.2,0.5-0.2,0.7c0,0.3-0.1,0.5-0.1,0.8
				c0,0.3-0.1,0.5-0.1,0.8c0,0.5,0,1,0,1.4c0,0.4,0.1,0.8,0.1,1c0,0.2,0,0.4,0,0.4L588,22.4z"/>
			<path class="st0" d="M627.8,18.7c0,0,0.1-0.1,0.3-0.3c0.1-0.1,0.2-0.2,0.4-0.3c0.2-0.1,0.3-0.3,0.5-0.4c0.2-0.2,0.4-0.3,0.5-0.5
				c0.2-0.2,0.4-0.4,0.5-0.6c0.2-0.2,0.3-0.4,0.5-0.7c0.1-0.3,0.3-0.5,0.4-0.7c0.1-0.3,0.2-0.5,0.3-0.8c0.1-0.3,0.1-0.5,0.2-0.8
				c0.1-0.5,0.3-0.9,0.5-1.4c0.2-0.4,0.3-0.8,0.4-1c0.1-0.3,0.2-0.4,0.2-0.4l0.2,0c0,0,0.1,0.1,0.3,0.4c0.1,0.3,0.3,0.7,0.4,1.2
				c0.1,0.5,0.1,1.1-0.1,1.8c-0.2,0.6-0.6,1.2-1,1.8c-0.2,0.3-0.4,0.5-0.6,0.8c-0.2,0.2-0.5,0.4-0.7,0.7c-0.2,0.2-0.5,0.4-0.7,0.5
				c-0.2,0.2-0.5,0.3-0.7,0.4c-0.4,0.2-0.8,0.3-1.1,0.4c-0.3,0.1-0.4,0.1-0.4,0.1L627.8,18.7z"/>
		</g>
		<g>
			
				<ellipse transform="matrix(0.9959 -9.036910e-02 9.036910e-02 0.9959 -20.1672 76.5914)" class="st21" cx="835.7" cy="261" rx="11.2" ry="11.2"/>
			<path class="st21" d="M836.2,274.7c11.2,5.8,18-3.1,19.5,4.9c1.6,8-13.3,8.6-17.5,7.6c-4.2-1-6.8-2.9-6.8-2.9L836.2,274.7z"/>
			<path class="st21" d="M826.3,256.2c-3.3,6.6-8.5,5.1-13.5,10.1c-3,3-7.2,4.5-11.4,4.1c-7.5-0.7-16.5-2.8-16.5-2.8
				s-12.9,7.9-10.4,17.9c2.5,10.1,8,13.4,13.8,8.7c5.8-4.7,11.6,6.2,30.8,4.6c9.6-0.8,18.4-7.5,18.3-20c-0.1-12.5-0.1-12.5-0.1-12.5
				L826.3,256.2z"/>
			<path class="st21" d="M777.3,275.3c-5.8,9.3-2.9,19.4-16.1,23.3c-3.7,1.1-1.1,5.4,1.4,6.6c2.5,1.2,8.9,2.2,15.6-7.7
				C784.9,287.8,777.3,275.3,777.3,275.3z"/>
			<path class="st22" d="M831.5,273.2c3.3,11.2,11.1,18.8,17.3,20.8c6.2,2,4.1,5.1,1.7,7.3c-2.4,2.2-9.1,2.4-16.6-2.6
				c-7.5-5-16.6-8-21.8-17.7c-4.2-7.7-2.3-15.2,7.4-16.9C829.1,262.4,831.5,273.2,831.5,273.2z"/>
			<path class="st22" d="M787.1,267.8c-9.3-4.1-13.8-12.3-20.2-10.9c-6.4,1.4-1.3,1.8,4.2,5.3c5.4,3.5,4.3,6.3,8.4,9.2
				C783.7,274.4,787.1,267.8,787.1,267.8z"/>
			<path class="st22" d="M793.1,270.1c6.4,6.8,9,16.5-2.7,25.1c-8.8,6.5,4,15.3-3.3,16.6s-9.4-2.4-10.4-12.4s-6-11.6-0.9-23
				C780.9,265.1,790.4,267.3,793.1,270.1z"/>
			<path class="st21" d="M852.4,255.6c-5.5,2.5-9.4,1.8-9.4,1.8l-4.5,14.1c0,0,12.1,2.3,14.7-3.3
				C855.9,262.6,852.4,255.6,852.4,255.6z"/>
			<path class="st21" d="M840.9,251.6c1.3-4-5.8-7.9-6.8-7c-1,0.9,0.2,3.5,1.8,4.5c1.5,1,2.5,2.6,2.5,2.6L840.9,251.6z"/>
			<path class="st22" d="M836.1,249.7c-4.2-1.2-6.3-6.4-10.8-4.6c-4.5,1.8-6.6,0.9-5.6,3c1,2.1,5.4,0.7,7.3,2.3
				c1.9,1.6,0.5,3.2,5.9,3.9C838.2,255,838.5,250.4,836.1,249.7z"/>
			<path class="st23" d="M853.5,258.8c-1.8,0.2-2.4-1.4-3.2-1.8c-0.8-0.4,1.1-1.8,2.1-1.4C853.3,256,853.5,258.8,853.5,258.8z"/>
			<path class="st21" d="M775.8,257.2c0,0-0.1-0.1-0.2-0.3c-0.1-0.2-0.2-0.5-0.5-0.8c-0.1-0.2-0.2-0.3-0.4-0.5
				c-0.1-0.2-0.3-0.3-0.5-0.5c-0.2-0.2-0.4-0.4-0.6-0.5c-0.2-0.2-0.4-0.3-0.6-0.5c-0.2-0.2-0.5-0.3-0.7-0.4
				c-0.2-0.1-0.5-0.3-0.7-0.3c-0.3-0.1-0.5-0.1-0.8-0.1c-0.2,0-0.5,0-0.7,0.1c-0.4,0.1-0.7,0.3-0.9,0.4c-0.2,0.2-0.3,0.3-0.3,0.3
				l0.1,0.1c0,0,0.5,0.1,1.2,0.4c0.2,0.1,0.3,0.1,0.5,0.2c0.2,0.1,0.4,0.1,0.5,0.2c0.2,0,0.4,0.1,0.6,0.1c0.2,0.1,0.4,0.1,0.6,0.2
				c0.2,0.1,0.4,0.2,0.6,0.3c0.2,0.1,0.4,0.2,0.6,0.3c0.4,0.2,0.7,0.5,1,0.7c0.3,0.2,0.5,0.5,0.7,0.6c0.2,0.1,0.3,0.2,0.3,0.2
				L775.8,257.2z"/>
			<path class="st21" d="M840.7,245.5c0,0,0-0.1-0.1-0.3c-0.1-0.2-0.1-0.4-0.2-0.7c-0.1-0.3-0.3-0.6-0.4-1c-0.2-0.4-0.4-0.7-0.7-1.1
				c-0.1-0.2-0.3-0.3-0.4-0.5c-0.1-0.2-0.3-0.3-0.5-0.5c-0.2-0.1-0.4-0.2-0.6-0.3c-0.2-0.1-0.4-0.1-0.6-0.1c-0.2,0-0.3,0-0.5,0
				c-0.1,0-0.3,0-0.4,0.1c-0.2,0.1-0.3,0.2-0.3,0.2l0,0.2c0,0,0.3,0.4,0.7,0.8c0.2,0.2,0.4,0.4,0.7,0.6c0.3,0.2,0.6,0.3,0.9,0.5
				c0.1,0.1,0.3,0.2,0.4,0.4c0.1,0.1,0.3,0.2,0.4,0.4c0.3,0.3,0.5,0.5,0.7,0.7c0.2,0.2,0.4,0.4,0.5,0.6c0.1,0.1,0.2,0.2,0.2,0.2
				L840.7,245.5z"/>
			<path class="st21" d="M817.1,261.4c0,0-0.1,0-0.3-0.1c-0.2-0.1-0.5-0.1-0.8-0.2c-0.2,0-0.4-0.1-0.6-0.1c-0.2,0-0.4,0-0.7,0
				c-0.2,0-0.5,0-0.7,0.1c-0.2,0-0.5,0.1-0.7,0.2c-0.2,0.1-0.5,0.2-0.7,0.3c-0.2,0.1-0.5,0.2-0.6,0.3c-0.4,0.3-0.7,0.6-0.8,1
				c-0.4,0.7-0.4,1.3-0.4,1.3l0.1,0.1c0,0,0.5-0.2,1.1-0.5c0.3-0.1,0.6-0.3,0.9-0.5c0.3-0.2,0.6-0.6,0.9-0.8
				c0.2-0.1,0.4-0.2,0.5-0.3c0.2-0.1,0.4-0.2,0.6-0.2c0.2-0.1,0.4-0.1,0.5-0.2c0.2-0.1,0.3-0.1,0.5-0.1c0.2,0,0.3-0.1,0.4-0.1
				c0.1,0,0.3,0,0.4,0c0.2,0,0.3,0,0.3,0L817.1,261.4z"/>
			<path class="st21" d="M822,300.4c0,0-0.2,0-0.5,0.1c-0.3,0.1-0.8,0.2-1.3,0.2c-0.3,0-0.6,0.1-0.9,0.1c-0.3,0-0.6,0.1-1,0.1
				c-0.7,0-1.4,0.1-2.2,0c-0.4,0-0.7,0-1.1-0.1c-0.4,0-0.7-0.1-1-0.1c-0.3,0-0.7,0-1,0c-0.3,0-0.6,0-0.9,0c-1.1,0.1-1.9,0.2-1.9,0.2
				l0,0.2c0,0,0.7,0.5,1.8,0.9c0.3,0.1,0.6,0.2,0.9,0.2c0.3,0.1,0.7,0.1,1,0.1c0.7,0,1.5-0.1,2.3-0.2c0.4,0,0.8-0.1,1.1-0.2
				c0.4-0.1,0.7-0.2,1.1-0.2c0.4-0.1,0.7-0.2,1-0.3c0.3-0.1,0.6-0.2,0.9-0.3c0.5-0.2,1-0.4,1.3-0.5c0.3-0.1,0.5-0.2,0.5-0.2
				L822,300.4z"/>
			<path class="st21" d="M826.9,242.9c0,0-0.2-0.1-0.5-0.2c-0.1-0.1-0.3-0.1-0.6-0.2c-0.2-0.1-0.5-0.1-0.8-0.1c-0.3,0-0.6,0-0.9,0.1
				c-0.3,0-0.7,0.1-1,0.3c-0.7,0.2-1.3,0.5-2,0.8c-0.3,0.1-0.6,0.3-0.9,0.3c-0.2,0-0.3,0.1-0.4,0.1c-0.1,0-0.3,0-0.4,0.1
				c-0.1,0-0.2,0-0.4,0.1c-0.1,0-0.2,0-0.3,0c-0.3,0-0.6,0-0.9,0c-1.1,0-1.8,0.3-1.8,0.3l0,0.2c0,0,0.7,0.4,1.7,0.8
				c0.3,0.1,0.5,0.2,0.8,0.2c0.2,0,0.4,0.1,0.6,0.1c0.2,0,0.4,0,0.6-0.1c0.2-0.1,0.4-0.1,0.6-0.2c0.2-0.1,0.4-0.2,0.5-0.3
				c0.3-0.2,0.7-0.4,1-0.6c0.6-0.4,1.2-0.8,1.8-1.1c0.3-0.1,0.6-0.3,0.8-0.4c0.3-0.1,0.5-0.2,0.8-0.2c0.2,0,0.5-0.1,0.7-0.1
				c0.2,0,0.4,0,0.5,0c0.3,0.1,0.5,0.1,0.5,0.1L826.9,242.9z"/>
		</g>
		<g>
			<path class="st24" d="M966,127.8c36.2-2.2,27.8,26.5,24.2,29.8c-3.7,3.3-8,4.8-16.3,2.2c-8.3-2.7-11.2-6.8-18.8-8
				C947.4,150.6,966,127.8,966,127.8z"/>
			<path class="st11" d="M997.5,174.3c2-2.5,0.5-5.5,0.3-6.8c-0.2-1.3,1.8-6.8,4.3-6.5c2.5,0.3,5.8,5.7,6.2,8.2
				c0.3,2.5-2,6.7-3.3,8.5C1003.7,179.5,997.5,174.3,997.5,174.3z"/>
			<path class="st12" d="M948.4,176.6c2.3-7.5,13-8,19.3-5.2c6.4,2.8,13.4,15.6,13.4,15.6s13-6.6,15-12.5c1.9-5.9,10.1,2.6,10.1,2.6
				s-5,16.7-21.6,22.9C968.1,206.1,947.7,178.7,948.4,176.6z"/>
			<path class="st15" d="M898,214.5c-3-5.5-6.8-7-9.3-3.7c-2.5,3.3-8.5,9-8.7,18.2c-0.1,4.8,4.3-0.3,6.3-3.5c2-3.2,4.7-5,6.7-6
				C895,218.5,898,214.5,898,214.5z"/>
			<path class="st15" d="M979.7,296.6c1.9,6,5.4,8.1,8.5,5.3c3.1-2.8,10-7.3,11.9-16.3c1-4.7-4.3-0.5-6.9,2.3
				c-2.6,2.7-5.5,4.1-7.7,4.7C983.4,293.3,979.7,296.6,979.7,296.6z"/>
			<path class="st25" d="M959.6,229.2c-7.4,8.9-28.3,18.2-31.6,18.2c-12.1,0-32-22.9-35.7-26.5c-3.7-3.6,4.7-7.6,4.7-7.6
				s28.1,8.5,30.3,17.6c9.7-2.5,13.3-20.5,13.3-20.5L959.6,229.2z"/>
			<path class="st20" d="M961.5,216.5c6.2,18.3,8.6,29.5,9,40.6c0.5,11.2,11.6,30.9,14,33.7c2.4,2.9-1.4,8.1-3.6,8.1
				s-20.9-9-24.9-26.8c-4-17.8,1.7-14.5-10.2-33.3c-11.9-18.8-7.1-28-7.1-28L961.5,216.5z"/>
			<path class="st15" d="M972.4,158.3c0,0-4.2,8.7-2.2,14.2c2,5.6,7.3,14.5,0.7,34.2c-1.7,5.1-7.8,15.3-7.8,15.3
				s-12.2-4.7-23.1-12.9c-0.2-9.6,5.1-11.5,6.2-26.5c0.6-8.6,4-18,9.8-20.5c3.8-1.6,9.1-10.4,9.1-10.4L972.4,158.3z"/>
			<path class="st11" d="M946.5,210.1c2.6,1.5,4.7,4,8.9,7c1.9,1.4,1.2,4.4,0.1,7.2c-1,2.8-1.4,3.8-6.2,2.4
				c-4.8-1.3-2.7-3.1-2.9-5.7c-0.2-2.6-4.7-3.9-4.7-3.9L946.5,210.1z"/>
			<path class="st6" d="M955.9,164.5c6.8,3.8,5,14.4,0.9,20c-4.1,5.6-18.1,9.8-18.1,9.8s4.2,13.5,9.6,16.6c5.3,3.1-5,8.8-5,8.8
				s-15.5-7.2-18-24.8C922.9,177.5,954,163.4,955.9,164.5z"/>
			<path class="st11" d="M970.2,172.5c-2-5.6,2.2-14.2,2.2-14.2l-7.3-6.4c0,0-5,8.5-8.8,10.3c2.6,0.4,7,5.1,9.9,8.2
				C967.7,172,969.1,172.5,970.2,172.5z"/>
			<path class="st16" d="M985.3,152.5c0,7.6-2,12.4-7.7,12.4s-12.9-4.9-12.9-12.4c0-7.6,4.6-13.7,10.3-13.7
				C980.6,138.8,985.3,145,985.3,152.5z"/>
			<path class="st24" d="M986.2,142.8c-0.5,9.8-11.5,11.3-11.5,11.3s4.3-2.7,3.5-7.5c-1.8,3.2-4,7-8.8,9.2c1.5-2.2,2-1.3,2.8-6.5
				c-2.3,3.3-4.5,6.2-10.3,9.7c-5.8,3.5-19.8,2.7-21.8-6c-2-8.7,1-17.5-15.5-17.7c-16.5-0.2-11.2-17,1.2-20.3
				c12.3-3.3-5,14.3,11,8.7s21.8,1.7,20.8,6.5s7.6-6.3,19-4.2C988.9,128.3,986.4,138.8,986.2,142.8z"/>
			<path class="st24" d="M911.9,129.4c0,0-0.1-0.3-0.4-0.7c-0.1-0.2-0.3-0.5-0.4-0.8c-0.1-0.3-0.3-0.7-0.4-1.2
				c-0.1-0.2-0.2-0.4-0.2-0.7c-0.1-0.2-0.1-0.5-0.2-0.7c-0.1-0.3-0.1-0.5-0.2-0.8c0-0.3,0-0.6-0.1-0.8c0-0.3,0-0.6,0-0.9
				c0-0.3,0-0.6,0.1-0.9c0-0.6,0.1-1.2,0.2-1.8c0.1-0.6,0.3-1.2,0.4-1.8c0.2-0.6,0.4-1.1,0.6-1.7c0.3-0.5,0.5-1,0.8-1.4
				c0.3-0.4,0.6-0.8,0.9-1.2c1.2-1.4,2.3-1.9,2.3-1.9l0.1,0.1c0,0-0.5,1.1-1.3,2.6c-0.2,0.4-0.4,0.8-0.6,1.2
				c-0.2,0.4-0.4,0.9-0.7,1.4c-0.3,0.5-0.5,0.9-0.7,1.4c-0.2,0.5-0.4,1-0.6,1.5c-0.1,0.5-0.3,1.1-0.4,1.6c0,0.3-0.1,0.5-0.1,0.8
				c0,0.3,0,0.5-0.1,0.8c0,0.3,0,0.5,0,0.8c0,0.3,0,0.5,0.1,0.7c0,0.2,0,0.5,0,0.7c0,0.2,0.1,0.4,0.1,0.6c0.1,0.4,0.1,0.8,0.2,1.1
				c0.1,0.3,0.2,0.6,0.3,0.9c0.2,0.5,0.3,0.8,0.3,0.8L911.9,129.4z"/>
			<path class="st24" d="M959.7,125.4c0,0,0-0.2-0.1-0.5c-0.1-0.3-0.1-0.8-0.2-1.3c-0.1-0.3-0.1-0.5-0.2-0.8
				c-0.1-0.3-0.2-0.6-0.3-0.9c-0.1-0.3-0.2-0.6-0.3-1c-0.1-0.3-0.3-0.6-0.4-0.9c-0.2-0.3-0.3-0.6-0.5-0.9c-0.2-0.3-0.4-0.5-0.6-0.8
				c-0.2-0.3-0.3-0.5-0.5-0.8c-0.1-0.3-0.3-0.5-0.4-0.7c-0.1-0.2-0.3-0.4-0.4-0.6c-0.1-0.2-0.2-0.4-0.3-0.5
				c-0.2-0.3-0.3-0.4-0.3-0.4l0.1-0.2c0,0,0.2,0,0.6,0.1c0.4,0.1,0.8,0.3,1.3,0.6c0.2,0.2,0.5,0.4,0.8,0.6c0.3,0.2,0.5,0.5,0.7,0.8
				c0.2,0.3,0.3,0.7,0.5,1c0.1,0.4,0.3,0.7,0.4,1.1c0.1,0.4,0.2,0.7,0.3,1.1c0.1,0.4,0.1,0.7,0.2,1.1c0,0.4,0.1,0.7,0.1,1
				c0,0.3,0,0.6,0,0.9c0,0.6-0.1,1-0.1,1.3c0,0.3-0.1,0.5-0.1,0.5L959.7,125.4z"/>
			<path class="st24" d="M993.7,155.8c0,0,0.1-0.2,0.3-0.4c0.1-0.1,0.2-0.3,0.3-0.5c0.1-0.2,0.2-0.4,0.3-0.6
				c0.1-0.2,0.3-0.5,0.4-0.8c0.1-0.3,0.2-0.6,0.4-0.9c0.1-0.3,0.2-0.6,0.3-0.9c0.1-0.3,0.2-0.7,0.2-1c0.1-0.3,0.1-0.7,0.1-1
				c0-0.3,0-0.7,0.1-1c0-0.3,0.1-0.6,0.1-0.9c0-0.3,0.1-0.6,0.2-0.8c0.2-1,0.4-1.8,0.4-1.8l0.2,0c0,0,0.6,0.6,0.8,1.8
				c0.1,0.3,0.1,0.6,0.1,0.9c0,0.3,0,0.7,0,1c-0.1,0.4-0.1,0.7-0.3,1.1c-0.1,0.4-0.3,0.7-0.4,1.1c-0.1,0.4-0.3,0.7-0.4,1
				c-0.2,0.3-0.4,0.6-0.5,1c-0.2,0.3-0.4,0.6-0.6,0.8c-0.2,0.3-0.4,0.5-0.6,0.7c-0.2,0.2-0.3,0.4-0.5,0.6c-0.2,0.2-0.3,0.3-0.4,0.4
				c-0.2,0.2-0.4,0.3-0.4,0.3L993.7,155.8z"/>
			<path class="st24" d="M945.5,160.8c0,0-0.2,0-0.6,0.1c-0.2,0-0.4,0.1-0.7,0.1c-0.3,0.1-0.6,0-0.9,0c-0.3,0-0.7,0-1.1-0.1
				c-0.4-0.1-0.8-0.1-1.2-0.3c-0.4-0.2-0.9-0.3-1.3-0.6c-0.2-0.1-0.4-0.2-0.6-0.4l-0.6-0.4c-0.4-0.3-0.7-0.7-1.1-1
				c-0.3-0.4-0.6-0.7-0.8-1.1c-0.2-0.4-0.4-0.8-0.5-1.2c-0.1-0.4-0.2-0.8-0.3-1.1c-0.2-1.4,0.1-2.4,0.1-2.4l0.2,0
				c0,0,0.5,0.8,1.1,1.9c0.3,0.5,0.7,1.2,1.1,1.8c0.2,0.3,0.4,0.7,0.6,1c0.2,0.3,0.4,0.7,0.7,1l0.4,0.4c0.1,0.1,0.3,0.2,0.5,0.4
				c0.3,0.3,0.6,0.5,1,0.6c0.3,0.2,0.7,0.3,1,0.5c0.3,0.2,0.7,0.2,1,0.3c0.3,0.1,0.6,0.2,0.9,0.2c0.3,0,0.5,0,0.7,0
				c0.4,0,0.6,0,0.6,0L945.5,160.8z"/>
		</g>
	</g>
</g>
<g>
</g>
<g>
</g>
<g>
</g>
<g>
</g>
<g>
</g>
<g>
</g>
<g>
</g>
<g>
</g>
<g>
</g>
<g>
</g>
<g>
</g>
<g>
</g>
<g>
</g>
<g>
</g>
<g>
</g>
</svg>
