<?xml version="1.0" encoding="utf-8"?>
<!-- Generator: Adobe Illustrator 22.1.0, SVG Export Plug-In . SVG Version: 6.00 Build 0)  -->
<svg version="1.1" id="Layer_1" xmlns="http://www.w3.org/2000/svg" xmlns:xlink="http://www.w3.org/1999/xlink" x="0px" y="0px"
	 viewBox="0 0 1275 341" style="enable-background:new 0 0 1275 341;" xml:space="preserve">
<style type="text/css">
	.st0{fill:#20364C;}
	.st1{fill:#FFA194;}
	.st2{fill:#8AD1B5;}
	.st3{fill:#83BDE8;}
	.st4{fill:#FABB86;}
	.st5{fill:#FCCB9F;}
	.st6{fill:#2F4357;}
	.st7{fill:#FB7664;}
	.st8{fill:#D9513F;}
	.st9{fill:#3A7080;}
	.st10{fill:#34506B;}
	.st11{fill:#406485;}
	.st12{fill:#96CBF2;}
	.st13{fill:#1F81B6;}
	.st14{fill:#D1E5F0;}
	.st15{fill:#478A9C;}
	.st16{fill:#79AED6;}
	.st17{fill:#FFEBAC;}
	.st18{fill:#29ABE2;}
	.st19{fill:#FFE38C;}
	.st20{fill:#F9806D;}
	.st21{fill:#8D493E;}
	.st22{fill:#FF9284;}
	.st23{opacity:0.3;}
	.st24{fill:#FFF3CC;}
	.st25{fill:#FFFFFF;}
	.st26{fill:#808C99;}
	.st27{fill:#96D6BC;}
	.st28{fill:#C6F1E0;}
	.st29{fill:#A65649;}
	.st30{opacity:0.5;}
	.st31{clip-path:url(#SVGID_2_);}
	.st32{fill:#D1897E;}
	.st33{fill:#E38E47;}
	.st34{fill:#79EDBD;}
	.st35{fill:#DEC9B5;}
	.st36{fill:#BFA894;}
	.st37{fill:#D2FAE9;}
</style>
<path class="st0" d="M1064.4,255.5c-72.6,6.2-137.6,2.1-219.8-10.3c-82.2-12.3-170.1-12.3-217.8-6.2
	c-47.8,6.2-124.2,27.7-256.1,25.7C244,262.8,141.8,218.6,0,239.8V341h1275V238.2C1227.8,242,1120.1,250.8,1064.4,255.5z"/>
<g>
	<path class="st1" d="M393.9,235.5c-5,6.5-5.3,16.8-5.9,22.1c-1.8-4.4-5-10.2-9.3-15.6c0.5-0.4,5.6-6.9-0.9-18.8
		c-0.5-0.9-1.4-1.3-1.7-0.7c-2.1,5.2-0.7,12.2,1.1,17.6c-4.9-5.6-9.7-9.7-12.7-11.9c0.2-0.1,0.4-0.2,0.4-0.5
		c0.8-5.5-1.9-10.2-6.4-13.4c-0.6-0.4-1.3-0.2-1.3,0.4c0.2,4.9,2.1,8.6,5.3,12.1c-0.7-0.5-3.7-2.6-7.1-4.5c0-0.7-5.1-7.7-14-6.8
		c-0.7,0.1-0.8,0.7-0.4,1.1c1.9,1.8,3.9,3.3,6.2,4.3c3.1,1.5,7.5,2.1,8,1.8c2.8,1.6,5.1,3.1,6.8,4.3c-4.3-1.7-8.5-1.4-12.2,1.2
		c-0.5,0.3-0.4,1,0.2,1.2c4.7,1.7,8.9,1.9,13.8-0.4c0.2-0.1,0.3-0.3,0.4-0.5c3.2,2.3,7.9,6.4,12.6,11.8c-5.3-3-11.1-4.3-16.4-1.1
		c-0.6,0.3-0.2,1,0.5,1.3c2,0.7,5.4,1.9,9,2.4c3.5,0.5,8-0.2,8.4-0.7c4,4.9,7.5,11.1,9.4,16c-2.9-2.8-11.3-7.7-20.2-3.6
		c-0.7,0.3-0.5,1,0.3,1.3c10.4,4.2,19.9,4.8,20.4,3.6c2.8,7.1,4.5,15.4,4.5,25.5c0,10.7,2.9-7.8-4.2-26.1c0.9,0.2,10.2-6.8,6.9-22.2
		C395.3,235.6,394.4,234.9,393.9,235.5z"/>
	<path class="st2" d="M420.3,210.7c-8.5,4.5-13.2,15.9-16.2,25c-0.1-1.9-1.3-14.4-3.8-27.1c0.5-0.1,9.1-4.1,9.9-23
		c0.1-1.4-0.6-2.6-1.3-2.1c-5.7,4.1-8.1,12.2-9.4,21.6c-1.2-5.5-2.4-11.7-6.4-25.3c0.3,0.1,0.5,0.1,0.8-0.2c4-4.8,5.2-11.7,3-20.4
		c-0.3-1-1.1-1.5-1.5-0.8c-3.5,5.1-4.3,11-3.3,18c-1.4-4.3-2.5-7.8-4.1-12c0.4-0.5,1-12.4-8.7-21.6c-0.7-0.7-1.4-0.3-1.3,0.6
		c0.8,7.8,3.5,14.6,8.8,20.8c0.2,0.2,0.4,0.3,0.6,0.4c1.6,4.5,3,8.5,3.9,11.5c-3.3-6.2-7.6-10-13.4-11.2c-0.7-0.2-1.1,0.7-0.6,1.5
		c3.2,6.4,7.6,11.7,14.5,13.8c0.3,0.1,0.5,0,0.7-0.2c3.2,10.7,4.3,15.6,6.4,25.2c-4.3-8.5-10.1-14.9-17.1-16.1
		c-0.8-0.1-0.9,1-0.2,2.2c1.5,2.6,4.5,7.7,8.5,11.7c4.1,4.1,9,6.2,9.6,5.8c1.8,9.3,3.2,20.3,3.8,27.8c-1.3-2.8-3.9-6.8-7.2-10.4
		c-3.9-4.3-8.8-7.6-14.7-8.3c-0.9-0.1-1,1.2-0.2,2.4c10.9,16.6,21.4,19.5,22.2,18.5c0.9,12.2,0.9,25.8-0.4,39.2
		c-1.5,15.1,3.4-6.9,1-39.8c0.7,0.5,6.3-2.2,10.4-8.3c2.2-3.2,4.8-8.6,6.7-16.7C421.7,211.7,421.1,210.3,420.3,210.7z"/>
	<path d="M390.5,277.2c26.2,1,40.9-1,49.3,0.7c8.4,1.7,15.4,6,13.4,8s15.4,7.7,33.5,2.3c18.1-5.4,15.1-10.7,37.9-9.7
		c22.8,1,5.4,4.4,26.2,3.7c20.8-0.7,36.5,1.3,51.3,1c14.8-0.3,55.3,1,67.1-1s1.3-5.4-9.1-6c-10.4-0.7-99.2-14.1-114.3-13.7
		c-15.1,0.3-89.2,9.4-107.6,11.4c-18.4,2-37.2,0.7-37.2,0.7L390.5,277.2z"/>
	<g>
		<path class="st3" d="M487.6,151.4c16.8,7.5,49.6,14.8,49.6,14.8l0.5,29.7l-33.6-0.7L487.6,151.4z"/>
		<g>
			<path class="st4" d="M400.5,267.3c-5.5,4.7-22.6,7.4-18.2,9.4c4.4,1.9,14.3,1.4,22.9,0.8c8.6-0.6,9.9-9.4,9.9-9.4L400.5,267.3z"
				/>
			<path class="st3" d="M468.3,125.3c-2.9,21.3-14.7,25.7-23.5,29.4c-8.8,3.7-15.1,5.9-24.3,45.2c-9.2,39.4-26.1,67.3-21.7,69.9
				c4.4,2.6,14.3,1.5,17.3-1.1c2.9-2.6,19.1-30.7,22.8-43.6c3.7-12.9,7.2-20.2,7.2-20.2s1.7,6.8,8.3,33.7c6.6,26.8,21,28.7,21,28.7
				s20.2-23.4,29.8-46.5c4-9.6,6.3-32.2,2.9-44c-8.1-28.7-25.4-22.8-25.7-31.6c-0.4-8.8,1.1-15.1,1.1-15.1L468.3,125.3z"/>
			<path class="st4" d="M482.3,145.1c-0.4-8.8,1.1-15.1,1.1-15.1l-15.1-4.8c-1.8,13.3-7.1,20-13,24.1c15.1,13.8,25.7,17,31.2,13.8
				c3.1-1.9,4.5-6.5,5.9-9.8C486.5,150.7,482.4,148.6,482.3,145.1z"/>
			<path class="st5" d="M496.4,121.4c0.9,9.7,0.8,20.4-6.5,21c-10.4,0.9-20.5-6.8-22.2-16.4c-2.4-13.4,6.9-18,14.2-18.7
				C489.2,106.7,495.5,111.7,496.4,121.4z"/>
			<path class="st0" d="M460.2,101.3c-0.7-4.2,6.4-5.5,10.3-4c4,1.6,2.5-7.4,12-5.2c7.3,1.6,5.4,5.6,11.9,3.8c5.3-1.5,8.7,0,7.4,5.9
				c-1.2,5.9,4.9,4.5,2.6,9.7c-1.7,3.7-4.7,4.8-10.5,3.4c-5.8-1.4-9.1-3.4-11.2-0.1c-2.1,3.3-7.3,1.7-9.2,2.8
				c-1.9,1.1,1.7,13.1,3.6,16.4c1.9,3.3,9.8-1.5,13.7-2.2c3.9-0.7,5.8-0.6,5.8-0.6s0.3,8-1,12.3c-1.2,4.3-15.2-1-21.4-3.6
				c-6.2-2.6-6.2-12.1-6.2-12.1s-0.3,1.7-1.5,5.8c-1.2,4.1-2.8-5.9-3.6-10.6c-0.8-4.7-10.1-7-8.3-13.8
				C456.5,102.4,460.9,104.9,460.2,101.3z"/>
			<path class="st5" d="M475,123.9c1.3,2.1,1.3,4.4-0.1,5.3c-1.4,0.9-3.5-0.1-4.8-2.2c-1.3-2.1-1.3-4.4,0.1-5.3
				C471.5,120.8,473.7,121.8,475,123.9z"/>
			<path class="st0" d="M452.5,111.2c0,0-0.1-0.1-0.2-0.4c-0.1-0.2-0.3-0.5-0.5-1c-0.1-0.2-0.2-0.4-0.3-0.7
				c-0.1-0.2-0.2-0.5-0.3-0.8c-0.1-0.3-0.1-0.6-0.2-0.9c-0.1-0.3-0.1-0.6-0.1-0.9c0-0.3,0-0.6,0-1c0-0.3,0.1-0.6,0.2-0.9
				c0.1-0.3,0.2-0.6,0.4-0.8c0.2-0.2,0.4-0.4,0.5-0.6c0.4-0.3,0.8-0.5,1-0.6c0.3-0.1,0.5-0.1,0.5-0.1l0.1,0.1c0,0-0.1,0.1-0.2,0.4
				c-0.1,0.1-0.1,0.2-0.2,0.4c-0.1,0.1-0.2,0.3-0.2,0.5c0,0.1-0.1,0.2-0.1,0.3c0,0.1-0.1,0.2-0.1,0.3c0,0.1-0.1,0.2-0.1,0.3
				c0,0.1-0.1,0.2-0.1,0.3c-0.1,0.2-0.2,0.5-0.3,0.7c-0.1,0.2-0.2,0.5-0.2,0.8c0,0.3-0.1,0.5-0.1,0.8c0,0.3,0,0.5,0,0.8
				c0,0.3,0,0.5,0.1,0.8c0,0.2,0.1,0.5,0.1,0.7c0.1,0.4,0.2,0.8,0.3,1c0.1,0.3,0.1,0.4,0.1,0.4L452.5,111.2z"/>
			<path class="st0" d="M505,100.7c0,0,0-0.2,0-0.5c0-0.3,0.1-0.8,0.1-1.4c0-0.3,0-0.6,0-0.9c0-0.3,0-0.7,0-1c0-0.4,0-0.7-0.1-1.1
				c-0.1-0.4-0.1-0.7-0.2-1.1c-0.1-0.4-0.2-0.7-0.4-1c-0.1-0.1-0.2-0.3-0.2-0.4c-0.1-0.1-0.2-0.2-0.3-0.4c-0.2-0.2-0.3-0.4-0.5-0.6
				c-0.1-0.1-0.2-0.2-0.3-0.3c-0.1-0.1-0.2-0.2-0.3-0.2c-0.2-0.1-0.4-0.2-0.6-0.3c-0.2-0.1-0.4-0.2-0.5-0.2
				c-0.3-0.1-0.5-0.2-0.5-0.2v-0.1c0,0,0.2-0.1,0.6-0.2c0.2,0,0.4-0.1,0.7-0.1c0.3,0,0.6,0,0.9,0.1c0.2,0,0.3,0.1,0.5,0.2
				c0.2,0.1,0.4,0.1,0.5,0.3c0.3,0.2,0.7,0.5,0.9,0.9c0.1,0.2,0.2,0.4,0.3,0.6c0.1,0.2,0.1,0.4,0.2,0.6c0.1,0.4,0.2,0.8,0.2,1.2
				c0.1,0.4,0.1,0.8,0.1,1.2c0,0.4,0,0.8-0.1,1.2c0,0.4-0.1,0.7-0.2,1.1c-0.1,0.3-0.1,0.6-0.2,0.9c-0.1,0.6-0.3,1-0.4,1.4
				c-0.1,0.3-0.2,0.5-0.2,0.5L505,100.7z"/>
			<path class="st0" d="M463.6,135c0,0-0.1-0.1-0.2-0.4c-0.1-0.2-0.2-0.6-0.4-1c-0.3-0.8-0.8-1.8-1.3-2.8c-0.1-0.2-0.3-0.5-0.4-0.7
				c-0.2-0.2-0.3-0.5-0.4-0.7c-0.1-0.2-0.2-0.4-0.3-0.7c-0.1-0.2-0.2-0.4-0.3-0.6c-0.1-0.2-0.2-0.4-0.2-0.5
				c-0.1-0.2-0.1-0.3-0.2-0.4c-0.1-0.2-0.2-0.4-0.2-0.4l0.1-0.1c0,0,0.2,0,0.5,0.1c0.3,0.1,0.6,0.3,1,0.6c0.4,0.3,0.7,0.7,1,1.2
				c0.3,0.5,0.4,1.1,0.6,1.7c0.1,0.3,0.2,0.6,0.3,0.8c0.1,0.3,0.1,0.6,0.2,0.8c0.1,0.5,0.2,1,0.3,1.5c0.1,0.9,0.2,1.4,0.2,1.4
				L463.6,135z"/>
		</g>
		<g>
			<path class="st6" d="M554.1,101.5c26.9-13.5,38.6,6,39.9,17.4c1.3,11.4-2,20.8,8.4,21.8c10.4,1,26.2,7,21.8,24.1
				c-4.4,17.1,8.4,26.8,17.4,17.8c9.1-9.1,2-13.7,2-13.7s12.1-2,11.4,17.8c-0.7,19.8-13.7,32.2-31.5,29.2
				c-17.8-3-88.9-37.2-94.9-57.3c-6-20.1,8.7-21.1,12.4-29.5C544.7,120.6,542.1,107.5,554.1,101.5z"/>
			<path class="st7" d="M558.8,136.4c-0.3,13.7,1.7,18.8-8.7,16.1c-10.4-2.7-20.8,3-19.4,26.8c1.3,23.8-2.3,23.1,4.7,37.2
				c7,14.1,40.6,18.8,40.6,18.8s20.5-3.7,33.9-22.1c13.4-18.4-8.4-47.6-16.1-52.6c-7.7-5-19.4-0.7-21.5-5.7c-2-5,4.4-17.8,4.4-17.8
				L558.8,136.4z"/>
			<path class="st8" d="M536.6,197.6c0,0,0.5,0.6,1.3,1.5c0.4,0.5,0.9,1.1,1.5,1.7c0.6,0.7,1.2,1.4,2,2.1c0.8,0.7,1.7,1.4,2.7,1.9
				c1.1,0.5,2.2,1,3.5,1.4c2.5,0.8,5.4,1.3,8.2,1.9c1.4,0.3,2.8,0.6,4.2,0.9c1.4,0.3,2.7,0.7,4,1.2c0.6,0.3,1.3,0.6,1.7,1.2
				c0.2,0.3,0.4,0.7,0.4,1c0,0.4,0,0.7,0,1c0,1.2,0,2.4,0.1,3.5c0.1,1.1,0.1,2.1,0.1,3c0,0.9-0.2,1.7-0.4,2.3
				c-0.2,0.6-0.4,1.1-0.7,1.4c-0.1,0.1-0.2,0.2-0.3,0.3c-0.1,0.1-0.1,0.1-0.1,0.1l-0.1-0.1c0,0,0-0.2,0-0.6c0-0.2,0.1-0.4,0.1-0.6
				c0.1-0.2,0.2-0.5,0.2-0.8c0.1-0.6,0.3-1.3,0.3-2.2c0.1-0.9,0.1-1.8,0.1-2.9c0-1.1,0-2.3,0.1-3.5c0-0.3,0.1-0.6,0-0.9
				c0-0.3-0.1-0.5-0.3-0.7c-0.4-0.4-0.9-0.7-1.5-1c-1.2-0.5-2.6-0.8-3.9-1.1c-1.4-0.3-2.8-0.6-4.2-0.8c-2.8-0.5-5.7-0.9-8.3-1.6
				c-1.3-0.4-2.6-0.9-3.7-1.5c-1.1-0.6-2.1-1.4-2.8-2.2c-0.8-0.8-1.4-1.6-1.9-2.3c-0.5-0.7-1-1.3-1.3-1.9
				C536.9,198.3,536.5,197.7,536.6,197.6L536.6,197.6z"/>
			<path class="st4" d="M572.2,154.8c-2-5,4.4-17.8,4.4-17.8l-17.8-0.7c-0.3,10.5,0.8,15.9-3.2,16.7c4,10.4,9,17.8,12.1,17.2
				c2.4-0.5,6-8.4,7.9-13.1C574,156.8,572.8,156.1,572.2,154.8z"/>
			<path class="st5" d="M581.8,131.1c-0.6,8.3-6.9,18.8-13.4,18.7c-4.1,0-14.1-7.4-13.5-20.7c0.4-8.3,5.7-11.3,11.9-12.9
				C575.9,113.9,582.5,121.4,581.8,131.1z"/>
			<path class="st9" d="M638.3,267c3.7-5.7,6.7-4.9,12.9,2.9c3.5,4.3,26.3,5.4,15.6,9.7c-7.6,3.1-10.9,2.2-22.6,1.2
				C632.4,279.7,638.3,267,638.3,267z"/>
			<path class="st10" d="M551.4,225.9c-17.3-4.3-15.8,16.8-9.4,29.2c6.4,12.4,16.8,20.1,32.9,24.5c16.1,4.4,33.5,3.4,36.2-1
				c2.7-4.4-20.5-32.5-33.5-40.2C564.5,230.6,559.5,227.9,551.4,225.9z"/>
			<path class="st11" d="M587,225.2c25.8,4.4,36.2,26.2,48.6,37.9c15.1,14.3,11.1,18.4,7,19.4c-5.1,1.3-16.5,2.8-37.6-4.4
				c-34.5-11.7-39.2-37.6-38.6-43.9C567.2,228.4,583.2,224.6,587,225.2z"/>
			<path class="st5" d="M549.6,197.3c-5.5-0.8-6.9-1.5-9.8,1.5c-2.9,3-5.9,5.5-2.4,5.3c3.5-0.3,7-1.5,5.9-0.8
				c-1.1,0.8-5.7,2.8-1.3,2.1c4.4-0.6,6.2-1.6,8.3-2.9C552.5,201.3,549.6,197.3,549.6,197.3z"/>
			<path class="st12" d="M578.9,185.8c-8.3,7-11.3,9.1-19.4,10.3c-8,1.3-11.1,1-11.1,1s-0.8,7.3,1.8,9.6c2.5,2.3,15.6,1.8,20.6-1.5
				c5-3.3,9.6-7.8,9.6-7.8L578.9,185.8z"/>
			<g>
				<path class="st13" d="M548.8,247.2c-2.5,2.8-11.3,2.1-9.1,6.4c1.5,2.8,8.7,4,13.3,3.4c4.7-0.6,4-3.1,4.4-5.4
					C557.9,249.3,548.8,247.2,548.8,247.2z"/>
				<path class="st14" d="M549.2,246.2c-2.5,2.8-10.8,3.8-9.1,6.4c1.8,2.6,8.7,4,13.3,3.4c4.7-0.6,4-3.1,4.4-5.4
					C558.2,248.3,549.2,246.2,549.2,246.2z"/>
			</g>
			<g>
				<path class="st14" d="M538.1,232.8c-6.3-1.9-7.8-5.2-9.7-2.8c-1.9,2.4,0.1,8,4.5,10.9s4.7,3.5,7.8,1.3c3.1-2.3,2.6-3.8,2.6-3.8
					L538.1,232.8z"/>
				<path class="st13" d="M527.1,231.1c1.8-3.1,2.6-1.9,3.4,0.3c0.8,2.1,1.4,5.7,5.4,8.5s2.6,3.9,1.3,4c-1.4,0.1-4.8-0.3-8.7-5.3
					C524.6,233.7,526.6,232,527.1,231.1z"/>
			</g>
			<path class="st9" d="M572.6,219.5c-16.3,0.5-36.1,10.1-35.6,13.1c2.9,0.5,3.6,8,5.9,9.1c2.3,1,14.6-2.3,14.6-2.3L572.6,219.5z"/>
			<path class="st15" d="M578.1,217.7c-10.8,0.8-16.8,5.5-22.1,13.6c-5.3,8-10.1,14.8-7.8,16.3c2.3,1.5,9.8,4.5,13.1,2
				c3.3-2.5,10.1-13.3,10.3-16.8c0.3-3.5,12.3-3.5,18.9-2.3c6.5,1.3,11.1-1.3,11.1-1.3L578.1,217.7z"/>
			<path class="st3" d="M595,167.5c2.5,9.6,0.5,9.1,4,13.1s7.8,8.3,9.1,17.9c1.3,9.6-3.8,15.8-4,22.9c-0.3,7,0.3,11.6-6,10.8
				c-6.3-0.8-9.3-14.2-25.8-13c-4.8-1.5-0.1-22.3,2.6-27.8c2.8-5.5,8.5-8.5,9.8-15.1S595,167.5,595,167.5z"/>
			<path class="st4" d="M595,167.5c0,0-9.1,2.3-10.3,8.8c-0.6,3.1-2.2,5.4-4,7.5c-0.7,5.3,5.2,3.9,9.4,2c3.7-1.6,7.2-5.2,8.1-6.2
				C595.8,176.5,597.3,176.2,595,167.5z"/>
			<path class="st5" d="M595.4,169.2c0,6.5-6,12.9-14.6,10.9c-4.5-1.1-5.7-4.4-5.7-10.9c0-6.5,4.5-11.8,10.1-11.8
				C590.8,157.4,595.4,162.7,595.4,169.2z"/>
			<path class="st7" d="M610,183c6.7,18.4,9.2,37.2,7.7,43.6c-1.5,6.4-12.1,7-15.3,2.2c-1-1.6,2-14.8,2-14.8L610,183z"/>
			<path class="st4" d="M604.5,216.4c-1.9-3.8-5.6-6.6-8.6-8.4c-2.1-1.2-3.8,0.4-3.5,2.8c0.5,4.5,0.9,10.7,3.9,12.4
				c4.9,2.9,9.6,5.7,10.9,4c1.3-1.7,1.3-2.5,0-5.9c-1.1-2.6-2-4-2.4-4.5C604.6,216.7,604.5,216.6,604.5,216.4z"/>
			<path class="st5" d="M599.6,201.2c-7.5-1.7-9.2-0.8-10.6,4c-1.3,4.9,0,6.7,1.7,6.5c1.7-0.2,6-4.5,7.2-4.5
				C599.1,207.3,599.6,201.2,599.6,201.2z"/>
			<path class="st12" d="M597.2,190.2c1-8.8,5.5-6.5,9.2-2.3c3.7,4.2,8.4,10.6,11.4,19.9c3,9.4-12.6,8-18.8,3.5
				c-6.2-4.5,0.2-11.1,0.2-11.1S596.5,196,597.2,190.2z"/>
			<path class="st16" d="M599.2,200.2c0,0,0.3,0,0.7,0c0.5,0,1.1,0,1.9,0.1c0.4,0,0.8,0.1,1.2,0.2c0.4,0.1,0.9,0.2,1.4,0.3
				c0.5,0.1,0.9,0.3,1.4,0.5c0.5,0.2,1,0.4,1.4,0.6c0.9,0.4,1.9,0.9,2.7,1.3c0.4,0.2,0.8,0.5,1.2,0.7c0.4,0.2,0.7,0.5,1,0.7
				c0.6,0.5,1.1,0.9,1.5,1.2c0.3,0.3,0.5,0.5,0.5,0.5l-0.1,0.1c0,0-0.2-0.2-0.6-0.4c-0.4-0.3-0.9-0.6-1.5-1
				c-0.3-0.2-0.7-0.4-1.1-0.6c-0.4-0.2-0.8-0.4-1.2-0.6c-0.9-0.4-1.8-0.8-2.7-1.1c-0.5-0.1-1-0.3-1.4-0.4c-0.5-0.1-1-0.2-1.4-0.4
				c-0.5-0.1-0.9-0.2-1.3-0.4c-0.4-0.1-0.8-0.2-1.2-0.3c-0.4-0.1-0.7-0.2-1-0.3c-0.3-0.1-0.6-0.2-0.8-0.2
				C599.5,200.4,599.2,200.3,599.2,200.2L599.2,200.2z"/>
			<path class="st5" d="M566.3,212.3c5.9-11.2,12.2-14,12.5-10.6c0.3,3.4-2,12.2-6.2,15.6c-4.2,3.4-6.2,2.5-6.2,1
				S566.3,212.3,566.3,212.3z"/>
			<path class="st17" d="M572.9,163.5c4.6,4,8.8,0.8,11.2,1.1c2.4,0.4,4.3,1.1,5.7-0.4c1.4-1.5-0.1,7.2-0.4,8
				c-0.3,0.9,1.3,3,2.6,0.3c1.4-2.8,2.3,0.6,3.5,3.1c1.3,2.5,3.3,3.3,3.3,3.3s-1.6-7.4,0.1-10.1c1.8-2.6,4.1-9.7,0.6-11.7
				s-2.3-3-4.4-4.5c-2.1-1.5-5.2-0.1-7.8,0.3c-2.6,0.4-3.9-1.8-6-0.8c-2.1,1-3.6,3-5.7,4.5c-2,1.5-5.4,1.1-5.4,1.1
				S571,161.9,572.9,163.5z"/>
			<path class="st5" d="M595.1,172.3c-0.9,1.6-2.6,2.4-3.7,1.7c-1.1-0.6-1.3-2.5-0.3-4c0.9-1.6,2.6-2.4,3.7-1.7
				C595.9,168.9,596,170.7,595.1,172.3z"/>
			<path class="st6" d="M581.9,138.3c0.8-8-2.8-18.6-2.8-18.6s-4,9.1-12.6,12.6s-5.8,13.8-9.8,17.1c-4,3.3-16.1-1.8-16.1-1.8
				l14.6-36.5l26.2,0.8l4.8,12.8L581.9,138.3z"/>
			<path class="st0" d="M532.8,132.7c0,0,0.1-0.2,0.3-0.5c0.1-0.2,0.2-0.3,0.4-0.6c0.2-0.2,0.3-0.5,0.5-0.7c0.2-0.3,0.4-0.6,0.6-0.9
				c0.2-0.3,0.4-0.7,0.6-1c0.2-0.4,0.4-0.7,0.6-1.1c0.2-0.4,0.3-0.8,0.5-1.2c0.2-0.4,0.3-0.8,0.4-1.2c0.1-0.4,0.2-0.8,0.3-1.2
				c0.1-0.4,0.2-0.7,0.4-1.1c0.1-0.3,0.2-0.7,0.3-1c0.2-0.6,0.3-1.1,0.4-1.5c0.1-0.4,0.2-0.6,0.2-0.6l0.1,0c0,0,0.1,0.2,0.2,0.6
				c0,0.2,0.1,0.4,0.1,0.7c0,0.3,0,0.6,0,0.9c0,0.3,0,0.7-0.1,1.1c-0.1,0.4-0.2,0.8-0.3,1.2c-0.1,0.4-0.3,0.8-0.5,1.2
				c-0.2,0.4-0.4,0.8-0.6,1.2c-0.2,0.4-0.4,0.8-0.7,1.2c-0.2,0.4-0.5,0.7-0.7,1.1c-0.2,0.3-0.5,0.7-0.7,1c-0.2,0.3-0.5,0.6-0.7,0.8
				c-0.4,0.5-0.8,0.9-1.1,1.2C533,132.6,532.9,132.8,532.8,132.7L532.8,132.7z"/>
			<path class="st0" d="M613.8,140.1c0,0-0.2-0.1-0.5-0.3c-0.3-0.2-0.8-0.4-1.3-0.7c-0.6-0.3-1.2-0.6-1.9-0.9
				c-0.3-0.2-0.7-0.3-1.1-0.5c-0.4-0.2-0.7-0.3-1.1-0.5c-0.4-0.1-0.8-0.3-1.1-0.4c-0.4-0.1-0.8-0.2-1.1-0.4c-0.4-0.1-0.7-0.2-1-0.4
				c-0.3-0.1-0.6-0.2-0.9-0.3c-0.3-0.1-0.5-0.2-0.8-0.3c-0.2-0.1-0.4-0.2-0.6-0.2c-0.3-0.1-0.5-0.2-0.5-0.2l0-0.1
				c0,0,0.2-0.1,0.6-0.2c0.4-0.1,0.9-0.1,1.6-0.1c0.3,0,0.7,0.1,1,0.1c0.4,0.1,0.7,0.2,1.1,0.3c0.4,0.1,0.8,0.3,1.1,0.5
				c0.4,0.2,0.8,0.4,1.1,0.6c0.4,0.2,0.7,0.4,1.1,0.6c0.4,0.2,0.7,0.4,1,0.6c0.3,0.2,0.7,0.4,0.9,0.6c0.3,0.2,0.6,0.4,0.8,0.6
				c0.5,0.4,0.9,0.7,1.2,0.9c0.3,0.2,0.4,0.4,0.4,0.4L613.8,140.1z"/>
			<path class="st0" d="M633.9,175.7c0,0,0.3,0,0.7,0c0.2,0,0.5,0,0.8,0c0.3,0,0.6-0.1,1-0.2c0.4-0.1,0.7-0.2,1.1-0.4
				c0.2-0.1,0.4-0.2,0.6-0.3c0.2-0.1,0.4-0.2,0.5-0.4c0.3-0.3,0.6-0.6,0.9-1c0.3-0.4,0.5-0.8,0.6-1.2c0.2-0.4,0.3-0.9,0.3-1.4
				c0.1-0.5,0.1-0.9,0.1-1.4c0-0.9,0-1.7-0.1-2.4c0-0.4-0.1-0.7-0.2-1c-0.1-0.3-0.2-0.5-0.2-0.7c-0.1-0.2-0.2-0.4-0.2-0.4
				c-0.1-0.1-0.1-0.2-0.1-0.2l0.1-0.1c0,0,0.1,0,0.2,0.1c0.1,0.1,0.3,0.2,0.4,0.3c0.1,0.1,0.2,0.2,0.3,0.3c0.1,0.1,0.2,0.2,0.3,0.4
				c0.2,0.3,0.4,0.6,0.5,1c0.2,0.4,0.3,0.8,0.3,1.3c0.1,0.5,0.1,0.9,0.1,1.5c0,0.5-0.1,1-0.2,1.5c-0.1,0.5-0.3,1-0.6,1.5
				c-0.2,0.5-0.5,1-0.9,1.4c-0.3,0.4-0.7,0.8-1.2,1.1c-0.4,0.3-0.9,0.5-1.3,0.7c-0.4,0.1-0.9,0.2-1.2,0.3c-0.4,0.1-0.7,0.1-1.1,0.1
				c-0.3,0-0.6,0-0.8-0.1c-0.4-0.1-0.7-0.1-0.7-0.1L633.9,175.7z"/>
			<path class="st0" d="M650.7,206.9c0,0,0.3-0.2,0.8-0.5c0.2-0.2,0.5-0.4,0.8-0.6c0.3-0.3,0.6-0.5,1-0.9c0.2-0.2,0.3-0.3,0.5-0.5
				c0.2-0.2,0.4-0.4,0.5-0.6c0.2-0.2,0.3-0.4,0.5-0.7c0.2-0.2,0.3-0.5,0.5-0.7c0.3-0.5,0.6-1,0.9-1.6c0.3-0.6,0.5-1.1,0.8-1.7
				c0.2-0.6,0.4-1.2,0.6-1.8c0.2-0.6,0.3-1.2,0.5-1.8c0.1-0.6,0.3-1.1,0.4-1.7c0.1-0.5,0.2-1,0.4-1.5c0.4-1.9,0.7-3.2,0.7-3.2h0.1
				c0,0,0.3,1.3,0.2,3.3c0,0.5-0.1,1-0.2,1.6c-0.1,0.6-0.2,1.2-0.3,1.8c-0.3,1.2-0.8,2.5-1.4,3.7c-0.3,0.6-0.6,1.2-0.9,1.8
				c-0.3,0.6-0.7,1.1-1.1,1.6c-0.2,0.3-0.4,0.5-0.6,0.7c-0.2,0.2-0.4,0.5-0.6,0.7c-0.2,0.2-0.4,0.4-0.6,0.6
				c-0.2,0.2-0.4,0.4-0.6,0.5c-0.4,0.3-0.8,0.6-1.1,0.8c-0.3,0.2-0.6,0.4-0.9,0.5c-0.5,0.3-0.8,0.4-0.8,0.4L650.7,206.9z"/>
			<path class="st0" d="M627.7,219.7c0,0,0.5,0.1,1.4,0.1c0.5,0,1,0.1,1.6,0.1c0.6,0,1.4,0,2.1,0c0.8,0,1.6,0,2.5-0.1
				c0.9-0.1,1.8-0.2,2.8-0.3c1-0.1,2-0.3,3-0.5c1-0.2,2-0.5,3-0.7c1-0.3,2-0.6,2.9-1c1-0.4,1.9-0.7,2.8-1.1c0.9-0.4,1.7-0.8,2.5-1.1
				c0.8-0.4,1.5-0.8,2.2-1.1c0.7-0.4,1.3-0.7,1.8-1.1c0.5-0.3,1-0.7,1.3-0.9c0.3-0.3,0.6-0.5,0.8-0.7c0.2-0.2,0.2-0.3,0.2-0.3
				l0.1,0.1c0,0-0.1,0.1-0.2,0.3c-0.1,0.2-0.3,0.5-0.6,0.9c-0.3,0.4-0.7,0.8-1.2,1.2c-0.5,0.4-1.1,0.9-1.7,1.4
				c-0.7,0.5-1.4,0.9-2.2,1.4c-0.8,0.4-1.7,0.9-2.6,1.3c-0.9,0.4-1.9,0.7-2.9,1c-1,0.3-2,0.6-3.1,0.8c-1,0.3-2.1,0.4-3.1,0.6
				c-1,0.2-2,0.3-3,0.4c-1,0.1-1.9,0.2-2.9,0.2c-0.9,0-1.8,0-2.6,0c-0.8,0-1.5-0.1-2.2-0.2c-0.6-0.1-1.2-0.1-1.7-0.2
				c-0.9-0.1-1.4-0.2-1.4-0.2L627.7,219.7z"/>
		</g>
		<g>
			<path class="st18" d="M546.6,269.5c6.1-3.7,14-11.8,15.6-9.7s-2.4,11.4-5.9,16.7s-6.6,7-10.5,4.6c-2.9-1.8-6.4-4.2-6.4-4.2
				L546.6,269.5z"/>
			<g>
				<ellipse transform="matrix(0.9433 -0.332 0.332 0.9433 -50.6577 186.3285)" class="st3" cx="520" cy="241.4" rx="27" ry="27"/>
				<path class="st19" d="M526.7,252.5c11.4-7,16.9-19.2,13.6-28.9c-8.5-9.7-23-12.2-34.4-5.3c-11.4,7-15.8,21-11,33.1
					C501.9,258.8,515.3,259.5,526.7,252.5z"/>
				<path class="st20" d="M540.6,224.6c-7.6-6-23-0.1-28.9,3.8c-5.8,3.8-17.9,14.2-16.1,23.7c7.2,6.7,20.1,7.1,31.1,0.3
					C537.7,245.7,543.3,234.1,540.6,224.6z"/>
			</g>
			<path class="st21" d="M462.4,149c19.5-2.4,24.6,3.1,30.7,19.1c6.1,16-2.9,30.7-17.5,27.8c-7.8-1.6-14-1.3-16.6-15.4
				C456.5,166.3,462.4,149,462.4,149z"/>
			<path class="st7" d="M465.1,169.8c-11.3,19.5-15.6,16.4-21.4,25c-10.4,15.7-0.7,43.4-1.9,54.6c3.2,7.8,30.8-0.3,30.8-0.3
				s3.9-15.8,4.8-24.8c1.7-16.5-3.2-18.5-5.4-28.7c-2.2-10.1-0.7-16.8-0.7-16.8L465.1,169.8z"/>
			<path class="st4" d="M469.6,198.1c1.2,0.5,2.5,0.9,3.4,1.2c-0.3-1.1-0.7-2.3-1-3.5c-2.2-10.1-0.7-16.8-0.7-16.8l-8.2-12
				c-1.5,8.3-6.7,15.5-10.2,19C460.6,190.4,463.6,195.7,469.6,198.1z"/>
			<path class="st5" d="M487.3,178c-1.8,8-5.6,13.6-9.9,12.4c-6.8-2-16-9.9-15.2-18.1c1.4-14.5,8.9-13.6,15.8-12.1
				C484.9,161.8,489.1,170,487.3,178z"/>
			<path class="st9" d="M495.1,241.5c15.8,6.1,20.3,10.4,35.9,19.9c5.6,3.4,16.8,7.3,16.8,7.3s-3.5,8-6.9,9.1
				c-3.4,1.1-18,0.3-42.5-7.7C473.8,262,495.1,241.5,495.1,241.5z"/>
			<path class="st15" d="M441.6,248.9c-3.5,12.5-5,20.4-0.4,26.3c4.6,5.9,11.2,5.3,19.9,5.3c8.6,0,15.6-4.6,15.6-4.6
				s4.2,5.7,8.6,6.4c4.4,0.7,27.7-9.5,31.3-19.1c5.8-15.7-2.2-23.6-17.1-23.4c-14.9,0.2-30.2,6.9-39.5,10
				C450.6,252.9,441.6,248.9,441.6,248.9z"/>
			<path class="st9" d="M499.9,250.5c0,0,0.1,0.1,0.1,0.4c0,0.1,0.1,0.3,0.1,0.5c0,0.2,0,0.4,0,0.7c0,0.3-0.1,0.5-0.2,0.9
				c0,0.2-0.1,0.3-0.2,0.5c-0.1,0.2-0.2,0.3-0.3,0.5c-0.4,0.6-1.1,1.2-1.8,1.7c-0.7,0.5-1.4,1-2.2,1.5c-0.8,0.5-1.6,1.1-2.4,1.7
				c-0.4,0.3-0.8,0.6-1.2,0.9c-0.4,0.3-0.8,0.6-1.3,1c-0.8,0.7-1.7,1.4-2.5,2.1c-0.8,0.7-1.6,1.5-2.4,2.2c-0.8,0.7-1.5,1.5-2.2,2.2
				c-0.3,0.4-0.7,0.7-1,1.1c-0.3,0.4-0.6,0.7-0.9,1.1c-0.3,0.4-0.6,0.7-0.8,1.1c-0.3,0.3-0.5,0.7-0.8,1c-0.2,0.3-0.4,0.7-0.7,1
				c-0.2,0.3-0.4,0.6-0.6,0.9c-0.3,0.6-0.6,1.1-0.8,1.5c-0.2,0.4-0.4,0.7-0.5,1c0,0.1-0.1,0.2-0.1,0.3c0,0,0,0.1,0,0.1l-1.1-0.3
				c0,0,0,0,0-0.1c0-0.1,0.1-0.2,0.1-0.3c0.1-0.3,0.2-0.6,0.4-1.1c0.2-0.5,0.5-1,0.8-1.6c0.2-0.3,0.4-0.6,0.6-0.9
				c0.2-0.3,0.4-0.7,0.7-1c0.2-0.3,0.5-0.7,0.7-1.1c0.3-0.4,0.6-0.7,0.8-1.1c0.3-0.4,0.6-0.8,0.9-1.1c0.3-0.4,0.7-0.8,1-1.2
				c0.7-0.8,1.4-1.6,2.2-2.3c0.8-0.8,1.6-1.5,2.4-2.2c0.8-0.7,1.7-1.4,2.6-2.1c0.4-0.3,0.9-0.7,1.3-1c0.4-0.3,0.9-0.6,1.3-0.9
				c0.8-0.6,1.7-1.1,2.5-1.6c0.8-0.5,1.6-1,2.2-1.4c0.6-0.5,1.2-0.9,1.5-1.4c0.3-0.5,0.6-0.9,0.8-1.3c0.1-0.2,0.2-0.4,0.3-0.5
				c0.1-0.2,0.2-0.3,0.2-0.4C499.8,250.6,499.9,250.5,499.9,250.5z"/>
			<path class="st4" d="M512.1,209.1c8.8-3.6,11-3.3,14.6,1c2.7,3.2,7.7,6.8,4.7,7c-3,0.3-9-2.2-12.3-2.2c-3.3,0-7.9,1.1-7.9,1.1
				L512.1,209.1z"/>
			<path class="st22" d="M447.8,194.9c10-7.6,23.7,17.8,41.5,17.1c17.8-0.7,23.3-4.8,25.1-3.4c1.8,1.4,2.3,5,2.3,7.3
				c0,2.3-25.4,12.7-32.3,13.7c-6.9,1-33.4-4.1-38.9-14.2C440.1,205.3,443.7,198,447.8,194.9z"/>
			<path class="st7" d="M439.3,223.7c0.3,13.2-3,27.9-5.2,34c-1.8,4.9-2.7,13.4,6.2,10.6c8.9-2.8,11.7-4.3,18.4-12.3
				c6.7-8,14.6-11,14.6-11L439.3,223.7z"/>
			<path class="st18" d="M476.8,275.8c-6.1,0.6-5.1-0.3-8.6,3c-3.5,3.3-19.1,8.5-9.7,9.6c9.4,1.1,19.5-0.9,22.4-2.6
				c2.9-1.7,5.1-3.2,5.5-3.6C482.7,281.9,476.8,275.8,476.8,275.8z"/>
			<path class="st21" d="M427.5,218.5c-5.9,2.9-7.7,11.2-2.2,13.8c5.5,2.6,7.5,8.1,4.8,9c-2.8,0.9,3.1,2.4,5.9-1.1
				c2.8-3.5,2.6-10.7-2.8-15.1C427.8,220.7,427.5,218.5,427.5,218.5z"/>
			<path class="st20" d="M430,215.8c-7,0.9-4.6,7.2-0.4,8.3c4.2,1.1,5.3-5,5.3-5L430,215.8z"/>
			<path class="st21" d="M472.3,149.2c-19.3-3.6-21.1,10.7-24.1,16.9c-5.7,12,1.1,16.5-3.3,15.8c-3.5-0.6-10.1-0.2-8.3,4.6
				c1.8,4.8,1.1,6.8-2.6,7.7c-3.7,0.9-0.9,4.8-0.7,6.4c0.2,1.7,0.4,6.4-3.3,7.2c-3.7,0.7,0.9,2.6,1.8,5.5c0.9,2.9-5-0.4-2.8,4
				c2.2,4.4,6.3,5.1,9.7,0c3.5-5.1,0-7.2-0.6-9.2c-0.6-2,4.6-2.2,4.6-4c0-1.8-1.8-2.4-1.3-5.1c0.6-2.8,2.8-3.9,5.1-4.8
				c2.4-0.9,3.7-2.4,2.9-5.1c-0.7-2.8,3.1,3.5,6.8,2.2c3.7-1.3,3.5-6.8,3.5-6.8s8.5,3.9,10.5-2.6c2-6.4,6.3-16.6,6.3-16.6
				s0.2,5.3-1.9,9.6c-2,4.4,4.8-1.9,5.7-6.3c0.9-4.4,0.2,7.5,0.2,7.5s4.6-1.8,4.8-8.5C485.8,161.1,480.2,150.7,472.3,149.2z"/>
			<path class="st21" d="M448.4,158.4c0,0-0.2,0.5-0.6,1.3c-0.2,0.4-0.3,0.8-0.5,1.3c-0.2,0.5-0.4,1-0.6,1.5c-0.2,0.5-0.3,1-0.5,1.5
				c-0.2,0.5-0.4,0.9-0.6,1.2c-0.4,0.7-0.8,1.2-0.8,1.2l-0.1,0c0,0-0.1-0.2-0.1-0.4c0-0.1,0-0.3,0-0.5c0-0.2,0-0.4,0-0.6
				c0-0.4,0.1-0.9,0.3-1.4c0.2-0.5,0.5-1,0.8-1.4c0.3-0.5,0.6-1,0.9-1.4c0.3-0.4,0.6-0.8,0.8-1.2c0.5-0.7,0.9-1.1,0.9-1.1
				L448.4,158.4z"/>
			<path class="st21" d="M497,176.9c0,0,0.1,0.2,0.2,0.7c0.1,0.2,0.1,0.5,0.2,0.8c0.1,0.3,0.1,0.6,0.2,1c0.1,0.4,0.2,0.8,0.2,1.2
				c0,0.4,0.1,0.9,0.1,1.4c0,0.5,0,1,0,1.5c-0.1,0.5-0.1,1-0.2,1.5c-0.1,0.5-0.1,1-0.3,1.5c-0.1,0.3-0.1,0.5-0.2,0.7
				c-0.1,0.2-0.1,0.5-0.2,0.7c-0.2,0.5-0.4,0.9-0.6,1.3c-0.2,0.4-0.4,0.8-0.7,1.1c-0.4,0.6-0.9,1.1-1.2,1.4
				c-0.3,0.3-0.6,0.4-0.6,0.4l-0.1-0.1c0,0,0.4-0.9,0.9-2.3c0.1-0.2,0.1-0.3,0.2-0.5c0.1-0.2,0.1-0.4,0.2-0.6
				c0.1-0.4,0.3-0.8,0.4-1.2c0.1-0.2,0.2-0.4,0.3-0.6c0.1-0.2,0.2-0.4,0.2-0.7c0.2-0.4,0.3-0.9,0.4-1.4c0.1-0.5,0.2-1,0.3-1.4
				c0.1-0.5,0.1-0.9,0.2-1.4c0-0.5,0-0.9,0.1-1.3c0-0.4,0-0.8,0-1.2c0-0.4,0-0.7-0.1-1c0-0.3-0.1-0.6-0.1-0.8c0-0.4-0.1-0.7-0.1-0.7
				L497,176.9z"/>
			<path class="st21" d="M436,180.9c0,0-0.1,0.1-0.3,0.2c-0.1,0.1-0.2,0.2-0.3,0.3c-0.1,0.1-0.2,0.2-0.3,0.4
				c-0.1,0.1-0.1,0.1-0.2,0.2c-0.1,0.1-0.1,0.2-0.2,0.3c-0.1,0.1-0.1,0.2-0.2,0.3c-0.1,0.1-0.1,0.2-0.1,0.3c0,0.1-0.1,0.2-0.1,0.3
				c0,0.1-0.1,0.2-0.1,0.3c-0.1,0.2-0.1,0.4-0.1,0.7c0,0.2,0,0.5,0.1,0.7c0,0.2,0.1,0.4,0.1,0.6c0,0.2,0,0.4,0.1,0.6
				c0,0.2,0,0.4,0,0.6c0,0.7,0,1.3,0,1.3l-0.1,0.1c0,0-0.1-0.1-0.3-0.2c-0.1-0.1-0.2-0.2-0.3-0.3c-0.1-0.1-0.2-0.3-0.3-0.5
				c-0.2-0.4-0.4-0.8-0.5-1.3c0-0.3,0-0.5,0-0.8c0-0.3,0.1-0.6,0.2-0.8c0.1-0.3,0.1-0.6,0.3-0.8c0.1-0.1,0.1-0.3,0.2-0.4
				c0.1-0.1,0.2-0.2,0.2-0.3c0.1-0.1,0.1-0.2,0.2-0.3c0.1-0.1,0.2-0.2,0.3-0.3c0.1-0.1,0.2-0.2,0.3-0.2c0.1-0.1,0.2-0.1,0.3-0.2
				c0.2-0.1,0.3-0.2,0.5-0.3c0.1-0.1,0.3-0.1,0.4-0.2c0.2-0.1,0.3-0.1,0.3-0.1L436,180.9z"/>
			<path class="st21" d="M429.8,204.5c0,0-0.1,0.1-0.3,0.1c-0.1,0-0.2,0.1-0.3,0.2c-0.1,0.1-0.2,0.1-0.4,0.2
				c-0.1,0.1-0.3,0.2-0.4,0.3c-0.1,0.1-0.3,0.2-0.4,0.3c-0.1,0.1-0.3,0.2-0.4,0.4c-0.1,0.1-0.2,0.3-0.4,0.4
				c-0.1,0.1-0.2,0.3-0.3,0.5c-0.1,0.2-0.1,0.3-0.2,0.4c-0.1,0.1-0.1,0.3-0.2,0.4c-0.1,0.1-0.1,0.2-0.1,0.3c0,0.1-0.1,0.2-0.1,0.3
				c0,0.1,0,0.2,0,0.3c0,0.1,0,0.2,0,0.2c0,0.1,0,0.1,0,0.1l-0.1,0.1c0,0,0,0-0.1,0c-0.1,0-0.2,0-0.3-0.1c-0.1-0.1-0.2-0.2-0.3-0.3
				c-0.1-0.1-0.2-0.3-0.3-0.5c-0.1-0.2-0.1-0.4-0.1-0.7c0-0.2,0.1-0.5,0.2-0.7c0.1-0.2,0.3-0.4,0.4-0.6c0.2-0.2,0.3-0.3,0.5-0.5
				c0.2-0.2,0.4-0.3,0.6-0.4c0.2-0.1,0.4-0.2,0.6-0.3c0.2-0.1,0.4-0.2,0.6-0.2c0.2-0.1,0.4-0.1,0.5-0.2c0.2,0,0.3-0.1,0.4-0.1
				c0.1,0,0.2,0,0.3-0.1c0.2,0,0.3,0,0.3,0L429.8,204.5z"/>
			<path class="st21" d="M420,226.1c0,0,0,0.1,0,0.4c0,0.2-0.1,0.6-0.1,1c0,0.2,0,0.4,0,0.7c0,0.2,0,0.5,0,0.7
				c0,0.3,0.1,0.5,0.1,0.8c0.1,0.2,0.1,0.5,0.2,0.7c0.1,0.2,0.2,0.4,0.3,0.6c0.1,0.2,0.3,0.4,0.4,0.5c0.1,0.1,0.1,0.2,0.2,0.2
				c0.1,0.1,0.1,0.2,0.2,0.2c0.1,0.2,0.3,0.3,0.4,0.4c0.1,0.1,0.3,0.3,0.4,0.4c0.1,0.1,0.2,0.2,0.3,0.3c0.2,0.2,0.3,0.3,0.3,0.3
				l0,0.1c0,0-0.2,0-0.4,0.1c-0.1,0-0.3,0-0.5,0c-0.2,0-0.4-0.1-0.6-0.1c-0.2-0.1-0.5-0.2-0.7-0.4c-0.1-0.1-0.2-0.2-0.3-0.3
				c-0.1-0.1-0.2-0.2-0.3-0.3c-0.2-0.3-0.3-0.6-0.4-0.9c-0.1-0.3-0.2-0.6-0.2-0.9c-0.1-0.3-0.1-0.6-0.1-0.9c0-0.3,0-0.6,0.1-0.9
				c0-0.3,0.1-0.5,0.1-0.8c0.1-0.2,0.1-0.5,0.2-0.7c0.1-0.4,0.2-0.7,0.3-1c0.1-0.2,0.1-0.4,0.1-0.4L420,226.1z"/>
			<path class="st21" d="M437.7,229.4c0,0,0.1,0.2,0.4,0.7c0.3,0.4,0.6,1,1,1.8c0.2,0.4,0.4,0.8,0.6,1.2c0.2,0.4,0.4,0.9,0.6,1.4
				c0.2,0.5,0.4,1,0.5,1.6c0.1,0.3,0.1,0.6,0.2,0.8l0.1,0.9c0.1,0.3,0.1,0.6,0.1,0.9c0,0.1,0,0.3,0,0.4l0,0.4l0,0.4
				c0,0.1-0.1,0.3-0.1,0.4c-0.1,0.3-0.1,0.6-0.3,0.9c-0.1,0.3-0.2,0.5-0.4,0.8c-0.2,0.2-0.3,0.5-0.5,0.7c-0.4,0.4-0.7,0.7-1.1,1
				c-0.2,0.1-0.4,0.2-0.5,0.3c-0.2,0.1-0.4,0.2-0.5,0.2c-0.2,0.1-0.3,0.1-0.5,0.2c-0.1,0-0.3,0.1-0.4,0.1c-0.5,0.1-0.8,0.2-0.8,0.2
				l-0.1-0.1c0,0,0.2-0.2,0.6-0.5c0.1-0.1,0.2-0.2,0.3-0.2c0.1-0.1,0.2-0.2,0.3-0.3c0.1-0.1,0.3-0.2,0.4-0.3
				c0.1-0.1,0.2-0.3,0.4-0.4c0.3-0.3,0.5-0.6,0.8-0.9c0.1-0.2,0.2-0.4,0.3-0.6c0.1-0.2,0.2-0.4,0.3-0.6c0.1-0.2,0.2-0.4,0.2-0.6
				c0-0.1,0.1-0.2,0.1-0.3l0.1-0.4l0.1-0.4c0-0.1,0-0.3,0-0.4c0-0.3,0-0.5,0-0.8l-0.1-0.8c0-0.3-0.1-0.5-0.1-0.8
				c-0.1-0.5-0.2-1-0.3-1.5c-0.2-0.5-0.3-1-0.4-1.4c-0.2-0.4-0.3-0.9-0.4-1.3c-0.1-0.4-0.3-0.7-0.4-1.1c-0.1-0.3-0.2-0.6-0.3-0.8
				c-0.2-0.4-0.3-0.7-0.3-0.7L437.7,229.4z"/>
		</g>
	</g>
	<path class="st23" d="M772.2,275.8c25.6,0,45.6,4.9,29,8.4c-16.6,3.5-43.1,4.8-84.3,3.7c-36.4-1-15.9-13.4-4-11.6
		C727.6,278.6,772.2,275.8,772.2,275.8z"/>
	<path class="st23" d="M868.3,287.9c-16.4,1.7-26.5,8.4-11.1,9.7c15.4,1.3,25.8,2,32.2,2.3c6.4,0.3,31.9-3,32.9-7
		c1-4-11.4-11.7-15.4-11.7S868.3,287.9,868.3,287.9z"/>
	<g>
		<path class="st24" d="M848.7,200.9c10.1-53.3-19.6-91-19.6-91s-16.6,44.8-13.1,69.9c3.5,25.1,25.1,52.3,25.1,52.3L848.7,200.9z"/>
		<g>
			<path class="st25" d="M834.6,216.5c-0.3,0-0.5-0.2-0.5-0.5c0-0.5,1.4-54.2-4.5-88.9c0-0.3,0.1-0.5,0.4-0.6c0.3,0,0.5,0.1,0.6,0.4
				c6,34.9,4.5,88.6,4.5,89.1C835.1,216.3,834.9,216.5,834.6,216.5z"/>
		</g>
		<path class="st26" d="M750.1,239.4c59.6,15.1,124.5,7.5,133.5,6.8c9.1-0.8,37.7-42.2,37.7-80c0-37.7-6.8-63.4-6.8-63.4
			s-55.8,24.4-64.8,58.3s-8.4,59.4-8.4,59.4s-7-68.2-54.5-61.4S750.1,239.4,750.1,239.4z"/>
		<g>
			<path class="st25" d="M851.7,237.1c-0.1,0-0.3-0.1-0.4-0.2c-0.2-0.2-0.2-0.5,0-0.7c8.2-7.7,44.6-67.5,55.7-122.5
				c0.1-0.3,0.3-0.4,0.6-0.4c0.3,0.1,0.4,0.3,0.4,0.6c-11.1,55.2-47.7,115.2-56,123C851.9,237.1,851.8,237.1,851.7,237.1z"/>
		</g>
		<g>
			<path class="st25" d="M886.9,174.7c-0.2,0-0.4-0.1-0.5-0.3c-0.1-0.3-9.5-29.1-2-48.1c0.1-0.3,0.4-0.4,0.7-0.3
				c0.3,0.1,0.4,0.4,0.3,0.7c-6.9,17.4,0.7,43.2,1.9,47c3.5-1.1,25.4-8.4,30.4-20.2c0.1-0.3,0.4-0.4,0.7-0.3
				c0.3,0.1,0.4,0.4,0.3,0.7c-5.6,13.1-30.4,20.6-31.5,20.9C887,174.7,887,174.7,886.9,174.7z"/>
		</g>
		<g>
			<path class="st25" d="M869.8,211c-0.2,0-0.3-0.1-0.4-0.2c-0.1-0.2-13.2-18-13.7-43.5c0-0.3,0.2-0.5,0.5-0.5
				c0.3,0,0.5,0.2,0.5,0.5c0.5,23.6,11.8,40.6,13.3,42.7c3.4-0.3,36-3.5,41.6-12.3c0.1-0.2,0.5-0.3,0.7-0.2c0.2,0.1,0.3,0.5,0.2,0.7
				C906.4,207.8,871.3,210.8,869.8,211C869.8,211,869.8,211,869.8,211z"/>
		</g>
		<path class="st14" d="M774.8,213.5c-5-48.8-72.4-86-76.9-74.9s0.5,44.8,19.1,65.9s56.8,26.2,56.8,26.2L774.8,213.5z"/>
		<path class="st24" d="M743.6,213.5c-25.6-37.2-66.4-30.2-66.4-30.2s5,32.2,45.8,37.2C763.7,225.5,743.6,213.5,743.6,213.5z"/>
		<g>
			<path class="st25" d="M769.7,228.1c-0.2,0-0.4-0.1-0.5-0.3c-4.6-9.7-26.4-41.5-58.2-74.3c-0.2-0.2-0.2-0.5,0-0.7
				c0.2-0.2,0.5-0.2,0.7,0c31.9,32.9,53.8,64.8,58.4,74.6c0.1,0.3,0,0.6-0.2,0.7C769.9,228,769.8,228.1,769.7,228.1z"/>
		</g>
		<g>
			<path class="st25" d="M735.2,182.6c-4.8,0-18.8-0.6-25.7-7c-0.2-0.2-0.2-0.5,0-0.7c0.2-0.2,0.5-0.2,0.7,0
				c7.1,6.6,23,6.7,26.1,6.7c-0.1-2.5-1-14.5-10.7-28.1c-0.2-0.2-0.1-0.5,0.1-0.7c0.2-0.2,0.5-0.1,0.7,0.1
				c11,15.5,10.9,29.1,10.9,29.2c0,0.3-0.2,0.5-0.5,0.5C736.7,182.5,736.1,182.6,735.2,182.6z"/>
		</g>
		<g>
			<path class="st25" d="M757.1,207.4C757.1,207.4,757.1,207.4,757.1,207.4l-19.2-3.5c-0.3-0.1-0.5-0.3-0.4-0.6
				c0.1-0.3,0.3-0.5,0.6-0.4l18.5,3.4c0.1-3.2,0.4-19.2-4.5-32.9c-0.1-0.3,0-0.5,0.3-0.6c0.3-0.1,0.5,0,0.6,0.3
				c5.5,15.5,4.6,33.7,4.6,33.9c0,0.1-0.1,0.3-0.2,0.4C757.4,207.4,757.3,207.4,757.1,207.4z"/>
		</g>
		<g>
			<path class="st25" d="M744.7,223c-0.1,0-0.2,0-0.2-0.1c-1.4-0.8-3.6-2.3-6.6-4.5c-10.1-7.1-28.9-20.4-52.3-28.1
				c-0.3-0.1-0.4-0.4-0.3-0.6c0.1-0.3,0.4-0.4,0.6-0.3c23.5,7.8,42.4,21.1,52.5,28.3c2.9,2,5.1,3.6,6.5,4.4c0.2,0.1,0.3,0.4,0.2,0.7
				C745.1,222.9,744.9,223,744.7,223z"/>
		</g>
	</g>
	<g>
		<path class="st4" d="M764.5,225.5c33.2-9.9,45.9-16.6,52.1-14.9c6.2,1.7,8,7,2.5,9.9c-5.5,2.8-14.9,3.5-17.3,3.7
			c-2.3,0.2-7,0.8-9.4,1c-2.3,0.2-27.2,11.2-27.2,11.2l-8.5-9.2L764.5,225.5z"/>
		<path class="st27" d="M726.8,228.1c0,0-24.3-11.4-30.3-13.2c-6-1.8-12.4,0.3-9.7,1.3s5.2,2.2-0.5,2.8c-5.7,0.7-6.7,3.9-4.5,4.5
			c2.2,0.7,5.7,1.5,4,1.8c-1.7,0.3-9.1,5.4-2,3.7c7-1.7,8.7-3.9,8.7-3.9s-5.5,9.7-0.2,5.4s6.5-5.5,11.4-5.7
			C708.5,224.7,726.8,228.1,726.8,228.1z"/>
		<path class="st28" d="M731.7,226.9l-1-4.7l-27.8-9.4c0,0-10.9-9.6-12.1-6.5s3.7,5.7-0.3,4.5c-4-1.2-4,0.8-4,0.8s5,3,0.7,2.7
			c-4.4-0.3-8.4,3-5.5,3.2c2.8,0.2,9.2-0.7,6.5,0.8c-2.7,1.5-1,2.8,3,1.5c4-1.3,10.1-1.5,6.5,0c-3.5,1.5-10.7,4.9-3,3.4
			c7.7-1.5,7-3.7,9.4-0.7s4.4,4.2,4.4,4.2L731.7,226.9z"/>
		<path class="st29" d="M746.9,244.4h-3.1c-3.8,0-7-3.2-7-7v-51.9c0-3.9,3.2-7,7-7h3.1c3.8,0,7,3.1,7,7v51.9
			C753.9,241.3,750.7,244.4,746.9,244.4z"/>
		<path class="st21" d="M750,244.4c-2.1,0-3.9-1.8-3.9-3.9v-58.1c0-2.1,1.8-3.9,3.9-3.9c2.1,0,3.9,1.8,3.9,3.9v58.1
			C753.9,242.6,752.1,244.4,750,244.4z"/>
		<g class="st30">
			<defs>
				<path id="SVGID_1_" class="st30" d="M768.5,285.9h-42.3c-10.5,0-19.5-2.7-21.1-13.1l-5.7-37.5c-0.8-5.4,3.4-10.3,8.8-10.3h78.3
					c5.5,0,9.6,4.9,8.8,10.3l-5.7,37.5C788,283.2,779,285.9,768.5,285.9z"/>
			</defs>
			<use xlink:href="#SVGID_1_"  style="overflow:visible;fill:#A65649;"/>
			<clipPath id="SVGID_2_">
				<use xlink:href="#SVGID_1_"  style="overflow:visible;"/>
			</clipPath>
			<g class="st31">
				
					<rect x="707.9" y="229.8" transform="matrix(0.866 -0.5 0.5 0.866 -35.7125 390.7287)" class="st32" width="6.8" height="64.4"/>
				
					<rect x="725.2" y="229.6" transform="matrix(0.866 -0.5 0.5 0.866 -33.2621 399.3706)" class="st32" width="6.8" height="64.4"/>
				
					<rect x="744.6" y="229.8" transform="matrix(0.866 -0.5 0.5 0.866 -30.7937 409.0858)" class="st32" width="6.8" height="64.4"/>
				
					<rect x="761.9" y="229.6" transform="matrix(0.866 -0.5 0.5 0.866 -28.3434 417.7278)" class="st32" width="6.8" height="64.4"/>
				
					<rect x="775.3" y="223.5" transform="matrix(0.866 -0.5 0.5 0.866 -23.5402 423.5832)" class="st32" width="6.8" height="64.4"/>
				
					<rect x="792.6" y="223.3" transform="matrix(0.866 -0.5 0.5 0.866 -21.0898 432.2251)" class="st32" width="6.8" height="64.4"/>
			</g>
			<g class="st31">
				
					<rect x="786.3" y="227.6" transform="matrix(-0.866 -0.5 0.5 -0.866 1343.7583 879.5411)" class="st32" width="6.8" height="64.4"/>
				
					<rect x="769" y="227.3" transform="matrix(-0.866 -0.5 0.5 -0.866 1311.506 870.3962)" class="st32" width="6.8" height="64.4"/>
				
					<rect x="749.6" y="227.6" transform="matrix(-0.866 -0.5 0.5 -0.866 1275.2482 861.1839)" class="st32" width="6.8" height="64.4"/>
				
					<rect x="732.3" y="227.3" transform="matrix(-0.866 -0.5 0.5 -0.866 1242.9957 852.039)" class="st32" width="6.8" height="64.4"/>
				
					<rect x="718.9" y="221.3" transform="matrix(-0.866 -0.5 0.5 -0.866 1221.1433 834.1132)" class="st32" width="6.8" height="64.4"/>
				
					<rect x="701.6" y="221" transform="matrix(-0.866 -0.5 0.5 -0.866 1188.8909 824.9683)" class="st32" width="6.8" height="64.4"/>
			</g>
		</g>
		<path class="st32" d="M794,235.9h-92.3c-3,0-5.4-2.4-5.4-5.4c0-3,2.4-5.4,5.4-5.4H794c3,0,5.4,2.4,5.4,5.4
			C799.4,233.4,797,235.9,794,235.9z"/>
		<path class="st29" d="M744.3,230.3l-38.6-15.2c-2.1-0.8-3.2-3.3-2.3-5.4c0.8-2.1,3.3-3.2,5.4-2.3l38.6,15.2
			c2.1,0.8,3.2,3.3,2.3,5.4C748.8,230.1,746.4,231.2,744.3,230.3z"/>
		<path class="st29" d="M788.4,218.9L747,230.5c-2.2,0.6-4.5-0.7-5.1-2.9c-0.6-2.2,0.7-4.5,2.9-5.1l41.5-11.6
			c2.2-0.6,4.5,0.7,5.1,2.9C791.9,216,790.6,218.3,788.4,218.9z"/>
		<path class="st29" d="M741.5,249.3c-2.5,0-4.6-2.1-4.6-4.6v-30.8c0-2.5,2.1-4.6,4.6-4.6c2.5,0,4.6,2.1,4.6,4.6v30.8
			C746.1,247.2,744,249.3,741.5,249.3z"/>
		<path class="st33" d="M807.1,211.4c0,0,0.2,0,0.4,0.1c0.1,0,0.3,0.1,0.5,0.1c0.2,0,0.4,0.1,0.6,0.2c0.2,0.1,0.5,0.2,0.8,0.2
			c0.3,0.1,0.5,0.2,0.8,0.3c0.3,0.1,0.6,0.2,0.9,0.4c0.3,0.1,0.6,0.3,0.9,0.5c0.3,0.2,0.6,0.3,0.9,0.5c0.3,0.2,0.5,0.4,0.8,0.6
			c0.2,0.2,0.4,0.5,0.6,0.7c0.2,0.3,0.3,0.5,0.4,0.7c0.1,0.2,0.2,0.5,0.2,0.7c0,0.2,0.1,0.4,0.1,0.6c0,0.3-0.1,0.5-0.1,0.5l-0.1,0
			c0,0-0.4-0.6-1-1.2c-0.1-0.2-0.3-0.3-0.5-0.5c-0.2-0.2-0.4-0.4-0.6-0.6c-0.2-0.2-0.4-0.4-0.6-0.6c-0.2-0.2-0.4-0.4-0.7-0.6
			c-0.2-0.2-0.5-0.4-0.7-0.5c-0.2-0.2-0.5-0.3-0.8-0.5c-0.3-0.1-0.5-0.3-0.7-0.4c-0.2-0.1-0.5-0.2-0.7-0.4c-0.2-0.1-0.4-0.2-0.6-0.3
			c-0.2-0.1-0.3-0.2-0.5-0.2c-0.3-0.1-0.4-0.2-0.4-0.2L807.1,211.4z"/>
		<path class="st33" d="M799.9,213.9c0,0,0.1,0,0.4,0c0.1,0,0.3,0,0.5,0c0.2,0,0.4,0,0.6,0.1c0.1,0,0.2,0,0.4,0
			c0.1,0,0.2,0.1,0.4,0.1c0.3,0.1,0.5,0.1,0.8,0.2c0.3,0.1,0.6,0.2,0.8,0.3c0.1,0.1,0.3,0.1,0.4,0.2l0.4,0.2
			c0.3,0.1,0.5,0.3,0.8,0.5c0.3,0.2,0.5,0.4,0.7,0.6c0.2,0.2,0.4,0.4,0.5,0.7c0.2,0.2,0.3,0.4,0.4,0.7c0.1,0.2,0.2,0.4,0.3,0.6
			c0.1,0.2,0.1,0.3,0.1,0.5c0.1,0.3,0.1,0.4,0.1,0.4l-0.1,0.1c0,0-0.1-0.1-0.3-0.3c-0.2-0.2-0.5-0.4-0.8-0.7c-0.3-0.3-0.7-0.6-1.1-1
			c-0.4-0.4-0.7-0.8-1.2-1.2l-0.3-0.3l-0.3-0.2c-0.2-0.2-0.5-0.3-0.7-0.4c-0.2-0.1-0.5-0.2-0.7-0.3c-0.1-0.1-0.2-0.1-0.3-0.1
			c-0.1,0-0.2-0.1-0.3-0.1c-0.2-0.1-0.4-0.1-0.6-0.2c-0.2,0-0.3-0.1-0.5-0.1c-0.3-0.1-0.4-0.1-0.4-0.1L799.9,213.9z"/>
		<path class="st33" d="M792,216.6c0,0,0.1,0,0.3,0c0.1,0,0.2,0,0.4,0c0.1,0,0.3,0,0.5,0c0.2,0,0.4,0,0.6,0.1c0.2,0,0.4,0.1,0.6,0.1
			c0.2,0.1,0.5,0.1,0.7,0.2c0.2,0.1,0.5,0.2,0.7,0.3c0.4,0.2,0.9,0.4,1.3,0.7c0.2,0.1,0.3,0.3,0.5,0.5c0.1,0.2,0.3,0.3,0.3,0.5
			c0.2,0.3,0.3,0.6,0.3,0.9c0,0.2,0,0.4,0,0.4l-0.1,0.1c0,0-0.5-0.2-1-0.6c-0.3-0.2-0.6-0.4-0.9-0.7c-0.3-0.3-0.6-0.6-1-0.9
			c-0.2-0.1-0.4-0.2-0.5-0.4c-0.2-0.1-0.4-0.2-0.6-0.3c-0.2-0.1-0.4-0.2-0.5-0.3c-0.2-0.1-0.3-0.1-0.5-0.2c-0.2-0.1-0.3-0.1-0.4-0.2
			c-0.1,0-0.3-0.1-0.4-0.1c-0.2-0.1-0.3-0.1-0.3-0.1L792,216.6z"/>
		<path class="st34" d="M726.1,225.2c-10.6-6.4-20.3-5.5-26.5-2.5c-6.2,3-7.4,6.9-2.5,5.5c4.9-1.3,8.9-5.2,7.7-1.8
			c-1.2,3.4,0.7,5.2,3.4,2.8c2.7-2.3,5-3.9,6.2-2c1.2,1.8,3,4.2,6.5,1.2S726.1,225.2,726.1,225.2z"/>
	</g>
	<g>
		<path class="st35" d="M904.2,234.8c5.4,1.8,6.1,18.6,4.3,23.8c-1.7,5.2-1.9,17.1-4.5,11.9s-3-10.4-3-10.4s3.9-5.2,4.5-10.4
			C906.1,244.1,903.5,234.6,904.2,234.8z"/>
		<path class="st36" d="M865.2,239.6c-13.2,8-6.1,33.6-6.1,33.6l22.5-1.1c0,0,15.4,9.7,16.2-6.7c0.9-16.5-2.4-27.1-10.8-28.8
			C878.6,234.8,865.2,239.6,865.2,239.6z"/>
		<path class="st36" d="M894.7,254.5c3,4.5,4.8,0,11,12.8c6.3,12.8,5,24.3,0,26c-5,1.7-8.9,3.5-19.3,0.9
			c-12.2-3.1-15.4,1.3-19.5-0.2c-4.1-1.5-5.6-27.9-5.6-27.9L894.7,254.5z"/>
		<path class="st36" d="M883.7,220.9c3.7,6.6,1.6,16-5.9,20.2c-7.5,4.2-16.8,0.7-20.5-5.9c-3.7-6.6-0.4-13.7,7.1-17.9
			C871.9,213.2,879.9,214.4,883.7,220.9z"/>
		<path class="st35" d="M876.2,228.6c-11.3,5.3-14.7,12.3-12.7,14.9c2,2.6,3.7,3.4,7.3,9.8c1.3,2.3,8.9-2.3,13.6-4.2
			c4.7-1.9,10.2-6.2,7.6-10C889.2,235.4,889.2,222.5,876.2,228.6z"/>
		<path class="st21" d="M872.8,234.6c-3.4-1.7-4.3-2.2-1.5-3.8c2.8-1.6,4.4-2.5,3.9-1c-0.5,1.5,0.6,5-0.5,5.1
			C873.7,235.1,872.8,234.6,872.8,234.6z"/>
		<path class="st35" d="M870.4,215.2c4.1-6.4,3.9-8.5,7.2-6.8c3.3,1.7,6.6,0.5,7.5,2.5c0.9,2-0.4,6.8-4.8,5.8s-5.3-3.5-5.3-3.5
			s0.3,2.2-1.9,2.4C871,215.9,870.4,215.2,870.4,215.2z"/>
		<path class="st36" d="M860.3,221.2c-6.1,0.9-6.5-2.7-8.9,1.3c-2.4,3.9-5.5,9-3,9.4c2.4,0.4,6.3,0.9,6.7-2.5s-0.1-5.7,1.2-5.4
			C859.5,224.9,860.3,221.2,860.3,221.2z"/>
		<path class="st35" d="M856.5,253c-1.7,12.9,6.5,41.1,6.5,41.1s4.3,0.9,6.9,0.9c2.6,0,5.2,0,4.1-5.4s-3-14.5-2.6-20.6
			c0.4-6.1-3-9.7-5-8.7c-1.9,1.1-3.7,0.4-4.3-4.3c-0.6-4.8-1.1-7.8-2.2-6.1c-1.1,1.7,0.2-5,0.2-5S857,249.8,856.5,253z"/>
		<path class="st35" d="M894.2,242c6.9,8.9,6.7,28.4,4.1,39.8c-2.6,11.5-1.9,13.2-3,13.6s-6.5,0.9-9.7-0.6c-3.2-1.5,1.9-12.1,0-17.8
			c-1.9-5.6-10.4-0.6-14.5-2.4c-4.1-1.7,5.6-1.5,9.1-5.2c3.5-3.7,4.5-2.6,3-6.7c-1.5-4.1,3.7-4.8,5-4.3c1.3,0.4,4.1-2.4,3.2-8
			S894.2,242,894.2,242z"/>
		<g>
			<path class="st36" d="M878.5,205.5c0,0,0.2,0,0.6,0c0.2,0,0.4,0,0.6,0.1c0.2,0,0.5,0,0.8,0c0.3,0,0.6,0,1,0c0.3,0,0.7,0,1.1,0
				c0.4,0,0.8-0.1,1.1-0.1c0.4,0,0.8-0.1,1.2-0.2c0.4-0.1,0.8-0.2,1.1-0.3c0.4-0.1,0.7-0.2,1.1-0.3c0.3-0.1,0.7-0.2,1-0.3
				c0.3-0.1,0.6-0.2,0.9-0.3c1.1-0.3,1.9-0.6,1.9-0.6l0.1,0.1c0,0-0.1,0.2-0.4,0.5c-0.1,0.1-0.3,0.3-0.5,0.5
				c-0.2,0.2-0.4,0.3-0.7,0.5c-0.3,0.2-0.6,0.3-0.9,0.5c-0.3,0.2-0.7,0.3-1.1,0.4c-0.4,0.1-0.8,0.2-1.2,0.2c-0.4,0-0.8,0.1-1.2,0.1
				c-0.4,0-0.8,0-1.2,0c-0.4,0-0.8,0-1.2-0.1c-0.4,0-0.8-0.1-1.1-0.1c-0.3-0.1-0.7-0.1-1-0.2c-0.6-0.1-1.1-0.2-1.4-0.3
				c-0.3-0.1-0.5-0.1-0.5-0.1L878.5,205.5z"/>
			<path class="st36" d="M847.4,224.9c0,0,0,0.1-0.1,0.4c0,0.2-0.1,0.6-0.2,1c-0.1,0.2-0.1,0.4-0.2,0.7c-0.1,0.2-0.1,0.5-0.2,0.8
				c-0.1,0.3-0.2,0.5-0.3,0.8c-0.1,0.3-0.2,0.5-0.3,0.8c-0.1,0.3-0.2,0.5-0.3,0.8c-0.1,0.3-0.2,0.5-0.4,0.8c-0.3,0.5-0.7,0.9-1,1.2
				c-0.4,0.3-0.7,0.5-1,0.6c-0.3,0.1-0.4,0.1-0.4,0.1l-0.1-0.1c0,0,0.1-0.1,0.2-0.4c0.1-0.2,0.3-0.5,0.5-0.9
				c0.1-0.2,0.2-0.4,0.3-0.6c0.1-0.2,0.2-0.4,0.4-0.6c0.1-0.2,0.3-0.4,0.5-0.6c0.2-0.2,0.3-0.5,0.5-0.7c0.3-0.5,0.6-1,0.8-1.4
				c0.3-0.5,0.5-0.9,0.7-1.3c0.2-0.4,0.3-0.7,0.4-0.9c0.1-0.2,0.2-0.4,0.2-0.4L847.4,224.9z"/>
			<path class="st36" d="M888.8,228.5c0,0,0.1,0.1,0.3,0.2c0.2,0.1,0.5,0.3,0.8,0.5c0.2,0.1,0.4,0.2,0.6,0.4
				c0.2,0.1,0.4,0.3,0.6,0.5c0.2,0.2,0.4,0.3,0.6,0.5c0.2,0.2,0.4,0.4,0.6,0.6c0.2,0.2,0.4,0.4,0.6,0.6c0.2,0.2,0.3,0.4,0.5,0.7
				c0.1,0.2,0.2,0.5,0.3,0.7c0.1,0.2,0.1,0.5,0.2,0.7c0,0.2,0,0.4,0,0.6c0,0.2,0,0.3,0,0.5c-0.1,0.3-0.1,0.4-0.1,0.4h-0.1
				c0,0-0.3-0.5-0.7-1.2c-0.2-0.3-0.4-0.7-0.7-1.1c-0.2-0.4-0.4-0.9-0.7-1.3c-0.1-0.2-0.3-0.4-0.4-0.6c-0.2-0.2-0.3-0.4-0.5-0.6
				c-0.3-0.4-0.6-0.7-0.9-1c-0.3-0.3-0.5-0.5-0.7-0.7c-0.2-0.2-0.3-0.3-0.3-0.3L888.8,228.5z"/>
			<path class="st36" d="M855.6,250c0,0,0,0.2-0.1,0.4c-0.1,0.3-0.2,0.7-0.3,1.2c-0.1,0.2-0.1,0.5-0.2,0.8c-0.1,0.3-0.1,0.6-0.2,0.9
				c-0.1,0.3-0.1,0.6-0.1,0.9c-0.1,0.3-0.1,0.6-0.1,1c0,0.3,0,0.6,0,1c0,0.3,0,0.6,0,0.9c0,0.3,0,0.6,0,0.9c0,0.3,0,0.5,0,0.8
				c0,1,0,1.7,0,1.7l-0.1,0.1c0,0-0.1-0.1-0.3-0.4c-0.1-0.1-0.2-0.3-0.3-0.5c-0.1-0.2-0.2-0.4-0.3-0.7c-0.1-0.3-0.2-0.5-0.2-0.8
				c-0.1-0.3-0.1-0.6-0.1-0.9c0-0.3,0-0.7,0.1-1c0.1-0.3,0.1-0.7,0.2-1c0.1-0.3,0.1-0.7,0.2-1c0.1-0.3,0.2-0.6,0.3-0.9
				c0.1-0.3,0.2-0.6,0.3-0.9c0.1-0.3,0.2-0.5,0.3-0.8c0.2-0.5,0.4-0.8,0.5-1.1c0.1-0.3,0.2-0.4,0.2-0.4L855.6,250z"/>
			<path class="st36" d="M911.8,244.6c0,0,0-0.1,0-0.4c0-0.3,0-0.6,0-1.1c0-0.2,0-0.4-0.1-0.7c0-0.2-0.1-0.5-0.1-0.8
				c0-0.3-0.1-0.5-0.1-0.8c-0.1-0.3-0.1-0.5-0.2-0.8c-0.1-0.3-0.2-0.5-0.3-0.8c-0.1-0.3-0.2-0.5-0.3-0.7c-0.1-0.2-0.2-0.5-0.2-0.7
				c-0.1-0.2-0.1-0.4-0.2-0.6c-0.3-0.8-0.4-1.4-0.4-1.4l0.1-0.1c0,0,0.2,0.1,0.4,0.2c0.2,0.2,0.5,0.4,0.8,0.8
				c0.3,0.4,0.6,0.8,0.8,1.4c0.2,0.6,0.3,1.2,0.3,1.8c0,0.3,0.1,0.6,0.1,0.9c0,0.3,0,0.6,0,0.9c0,0.3,0,0.6,0,0.8
				c0,0.3-0.1,0.5-0.1,0.7c-0.1,0.4-0.1,0.8-0.2,1.1c-0.1,0.3-0.1,0.4-0.1,0.4L911.8,244.6z"/>
			<path class="st36" d="M908.8,239.3c0,0-0.1-0.2-0.2-0.5c-0.1-0.1-0.1-0.3-0.2-0.5c-0.1-0.2-0.2-0.4-0.3-0.6
				c-0.1-0.2-0.3-0.5-0.4-0.7c-0.1-0.3-0.3-0.5-0.5-0.8c-0.2-0.3-0.4-0.5-0.6-0.8c-0.2-0.3-0.5-0.5-0.7-0.7
				c-0.2-0.2-0.5-0.5-0.8-0.7c-0.3-0.2-0.5-0.4-0.8-0.6c-0.5-0.4-0.9-0.8-1.3-1.2c-0.7-0.7-1.2-1.3-1.2-1.3l0.1-0.1
				c0,0,0.8,0.1,1.7,0.6c0.5,0.2,1,0.6,1.6,1c0.3,0.2,0.5,0.5,0.7,0.8c0.2,0.3,0.5,0.6,0.7,0.8c0.2,0.3,0.4,0.6,0.6,0.9
				c0.2,0.3,0.4,0.6,0.5,0.9c0.2,0.3,0.3,0.6,0.4,0.9c0.1,0.3,0.2,0.6,0.3,0.8c0.1,0.3,0.1,0.5,0.2,0.7c0,0.2,0.1,0.4,0.1,0.5
				c0,0.3,0.1,0.5,0.1,0.5L908.8,239.3z"/>
		</g>
	</g>
	<path class="st2" d="M403,107.8c0,5.6-3.8,10.2-3.8,10.2s-3.8-4.6-3.8-10.2c0-5.6,3.8-10.2,3.8-10.2S403,102.1,403,107.8z"/>
	<path class="st37" d="M859.5,101.9c-1.2,6.7-6.7,11.3-6.7,11.3s-3.6-6.3-2.3-13c1.2-6.7,6.7-11.3,6.7-11.3S860.7,95.2,859.5,101.9z
		"/>
	<path class="st24" d="M810.3,140.2c2.7,6.3,0.6,13.2,0.6,13.2s-6.4-3.3-9.1-9.6c-2.7-6.3-0.6-13.2-0.6-13.2
		S807.6,133.9,810.3,140.2z"/>
	<path class="st37" d="M944.6,89.6c-2.7,4.9-8.8,6.8-8.8,6.8s-1.7-6.1,0.9-11.1c2.7-4.9,8.8-6.8,8.8-6.8S947.3,84.7,944.6,89.6z"/>
	<path class="st37" d="M909,43.6c-0.9,4.4-5,7.3-5,7.3s-2.6-4.2-1.7-8.6c0.9-4.4,5-7.3,5-7.3S909.9,39.2,909,43.6z"/>
	<path class="st2" d="M351.3,94.6c1.8,4.5,0.7,9.2,0.7,9.2s-4.2-2.5-6-7c-1.8-4.5-0.7-9.2-0.7-9.2S349.5,90.1,351.3,94.6z"/>
	<path class="st2" d="M364.1,66.1c0.4,3.6-1.8,6.8-1.8,6.8s-2.8-2.7-3.2-6.3c-0.4-3.6,1.8-6.8,1.8-6.8S363.7,62.5,364.1,66.1z"/>
	<path class="st2" d="M364.3,168.9c3.7,3.1,4.8,7.9,4.8,7.9s-4.9-0.3-8.5-3.5c-3.7-3.1-4.8-7.9-4.8-7.9S360.6,165.8,364.3,168.9z"/>
	<path class="st1" d="M357.4,130.6c1,3.8-0.8,7.5-0.8,7.5s-3.4-2.4-4.3-6.2c-1-3.8,0.8-7.5,0.8-7.5S356.4,126.8,357.4,130.6z"/>
	<path class="st1" d="M334.8,149.8c1.8,3.5,0.9,7.5,0.9,7.5s-3.8-1.6-5.6-5.1c-1.8-3.5-0.9-7.5-0.9-7.5S333,146.3,334.8,149.8z"/>
	<path class="st1" d="M350.3,199.2c1.2,3.1-0.2,6.5-0.2,6.5s-3.3-1.6-4.6-4.6c-1.2-3.1,0.2-6.5,0.2-6.5S349.1,196.1,350.3,199.2z"/>
</g>
<g>
</g>
<g>
</g>
<g>
</g>
<g>
</g>
<g>
</g>
<g>
</g>
<g>
</g>
<g>
</g>
<g>
</g>
<g>
</g>
<g>
</g>
<g>
</g>
<g>
</g>
<g>
</g>
<g>
</g>
</svg>
