<?xml version="1.0" encoding="utf-8"?>
<!-- Generator: Adobe Illustrator 22.1.0, SVG Export Plug-In . SVG Version: 6.00 Build 0)  -->
<svg version="1.1" id="Layer_1" xmlns="http://www.w3.org/2000/svg" xmlns:xlink="http://www.w3.org/1999/xlink" x="0px" y="0px"
	 viewBox="0 0 1275 559.9" style="enable-background:new 0 0 1275 559.9;" xml:space="preserve">
<style type="text/css">
	.st0{fill:#20364C;}
	.st1{fill:#516273;}
	.st2{fill:#FFFFFF;}
	.st3{fill:#828E9B;}
	.st4{fill:#83BDE8;}
	.st5{fill:#FB9082;}
	.st6{fill:#2F4357;}
	.st7{fill:#EB6955;}
	.st8{fill:#96C7E0;}
	.st9{fill:#B0DDF5;}
	.st10{fill:#FABB86;}
	.st11{fill:#FCCB9F;}
	.st12{fill:#3C5978;}
	.st13{fill:#8D493E;}
	.st14{fill:#4F90BF;}
	.st15{fill:#FFE591;}
	.st16{fill:#1F81B6;}
	.st17{fill:#74B7E8;}
	.st18{fill:#8AC7F5;}
	.st19{fill:#F9806D;}
	.st20{fill:#F5ECE4;}
	.st21{fill:#32606D;}
	.st22{fill:#3F798A;}
	.st23{fill:#FC7862;}
	.st24{fill:#69A4CF;}
	.st25{fill:#9CE6C9;}
	.st26{fill:#7FC3F5;}
	.st27{fill:#FFEBAC;}
	.st28{fill:#C6F1E0;}
	.st29{fill:#FF9284;}
</style>
<path class="st0" d="M0.1,427.2c150-36,415.9-19.3,443.9,18.7s-26,78,128,58c154-20,304,20,480,20s223-62,223-62v98l-1275,0
	L0.1,427.2z"/>
<g>
	<g>
		<path class="st1" d="M433.4,348.1c12-137,166-137,166-137s8,132-38,149S433.4,348.1,433.4,348.1z"/>
		<g>
			<path class="st2" d="M476.1,355.5c-0.2,0-0.4-0.1-0.6-0.2c-0.5-0.3-0.6-0.9-0.3-1.4c0.6-0.9,63.3-93.2,109.6-125.6
				c0.5-0.3,1.1-0.2,1.4,0.2c0.3,0.5,0.2,1.1-0.2,1.4C540,262.1,477.6,354.1,476.9,355C476.7,355.3,476.4,355.5,476.1,355.5z"/>
		</g>
		<g>
			<path class="st2" d="M562.2,291.9c-17.1,0-35.6-2.3-36.9-2.5c-0.5-0.1-0.9-0.5-0.9-1.1c0-0.4,2.9-41.9,23.6-65.3
				c0.4-0.4,1-0.5,1.4-0.1c0.4,0.4,0.5,1,0.1,1.4c-18.5,20.9-22.4,56.9-23,63.1c7.1,0.8,52.2,5.8,61.6-1.9c0.4-0.3,1.1-0.3,1.4,0.1
				c0.3,0.4,0.3,1.1-0.1,1.4C585,290.8,573.9,291.9,562.2,291.9z"/>
		</g>
		<g>
			<path class="st2" d="M544.9,335.5c-23.2,0-49.5-7-51-7.4c-0.4-0.1-0.6-0.4-0.7-0.8c-0.1-0.4-8.5-44,8.1-73.4
				c0.3-0.5,0.9-0.6,1.4-0.4c0.5,0.3,0.6,0.9,0.4,1.4c-15.2,26.8-9,66-8,71.4c5.9,1.5,52.6,13,73.4,3.2c0.5-0.2,1.1,0,1.3,0.5
				c0.2,0.5,0,1.1-0.5,1.3C562.7,334.4,554.1,335.5,544.9,335.5z"/>
		</g>
	</g>
	<path class="st3" d="M453.4,366.1c-26-104,25-154,52-176c13,50,17,98-14,137S453.4,366.1,453.4,366.1z"/>
	<g>
		<path class="st2" d="M453.4,360.1c-0.1,0-0.3,0-0.4-0.1c-0.5-0.2-0.8-0.8-0.5-1.3c0.4-0.9,39-94.4,42.9-144.7c0-0.6,0.5-1,1.1-0.9
			c0.6,0,1,0.5,0.9,1.1c-4,50.6-42.7,144.4-43.1,145.3C454.2,359.9,453.8,360.1,453.4,360.1z"/>
	</g>
	<path class="st0" d="M994.9,364.7c217.5,0,270,55.5,190.5,70.5c-79.5,15-259.5,18-409.5,15c-150-3-214.5-16.5-198-42
		c16.5-25.5-184.5-24-240-24c-55.5,0-241.5-3-241.5-3s-37.5-136.5,45-145.5c82.5-9,102.7,64.1,102.7,64.1s5.3-109.1,125.3-85.1
		s105,129,105,129L994.9,364.7z"/>
	<path class="st4" d="M172.6,260.9c-10.6,11.1-13.2,31.4-14.7,46.6c-4.8-14.1-8.6-22.8-17.6-39c1-0.6,12.4-12.4,2.3-40.5
		c-0.8-2.2-2.5-3.5-3.2-2.4c-6.7,10.8-4.3,25.6-2,38c-6.4-10.6-14.8-22.3-24.1-32.9c0.5,0,0.9-0.2,1-0.8c3-9.7,0.4-20.8-8.9-31.8
		c-1.1-1.3-2.6-1.3-2.8-0.1c-1.7,10,1.1,19,6.9,28.5c-5.7-6.4-12.6-13.3-13.7-14.3c0.3-1.3-7.4-18.9-27.5-24.1
		c-1.5-0.4-2.2,0.7-1.4,1.9c6.9,10.5,14.9,17.7,27,22.8c0.4,0.2,0.8,0.2,1.1,0.1c1.3,1.2,7.8,7.7,13.2,13.7
		c-8.7-6.6-17.7-8.8-26.8-6.2c-1.2,0.3-1.1,1.7,0.1,2.6c3,2.2,8.6,6,14.9,8c3.2,1,6.2,1.4,8.8,1.5c2.6,0.1,4.8-0.1,6.3-0.3
		c0.5-0.1,0.8-0.4,0.9-0.8c9.2,10.6,17.6,22.2,24,32.8c-9.4-8.7-22.3-15.8-34.8-12.4c-1.2,0.3-0.8,2,0.9,3.2
		c6.2,4.5,14.9,10,22.3,12.4c5.9,2,13.7,2.7,14.5,1.6c11.6,20.8,14.5,30,17.9,40c-10.5-12-26.2-20.7-41.8-16.9
		c-1.5,0.4-1.1,2.2,0.7,3.5c6.4,4.3,12.9,8.7,20.3,12.1c13.2,6.2,21.3,5.8,21.8,4.8c6.2,20.9,8.4,41.6,7.1,60.6
		c-1.7,24.5,7.5-15.2-6.4-61.8c1.6,0.6,19.7-11.4,16.5-46.7C175.3,261.7,173.7,259.7,172.6,260.9z"/>
	<path class="st5" d="M153.7,370.2c3.2,4,6,8,8.4,12.1h1.2c-2.7-4.6-5.8-9.2-9.4-13.4c1.3-0.1,16.3-19.9-7.1-48.5
		c-2-2.3-4.7-3.1-4.9-1.6c-1.8,13.2,4.7,29,9.7,47.4c-9.5-10.4-18.3-16.4-30.9-22.2c-0.3-0.1-0.4-0.2-0.4-0.2
		c0.4-1,2.8-19.4-25.4-30.7c-2.3-0.9-4.5-0.3-4,0.9c3.2,9.4,11.8,17.4,24.6,28c-8.7-3.3-23.3-5.6-36.5-4.5c0.3-0.4,0.3-0.8,0-1.3
		c-6.7-9.8-18.5-12.2-30-9.9c-1.6,0.3-2.3,1.6-1.4,2.4c7.4,6.1,16.6,8.8,26.3,9.3c-9.6,1.4-11.2,1.9-17.5,3.6c-1-1-19-3-30.6,12.5
		c-0.8,1.1-0.2,2.2,1.2,2c11.3-1.3,20.1-5,29.1-12.6c0.3-0.3,0.5-0.6,0.6-0.9c8.8-2.3,10.5-2.5,16.8-3.5
		c-8.9,3.2-14.9,9.4-16.3,18.8c-0.2,1.2,0.9,1.9,2,1.3c7.9-4,15.1-9,20-19.5c0.2-0.4,0.2-0.9-0.1-1.2c9.9-1.1,26,0.7,36.1,4.5
		c-12.4-0.2-24,4.8-28.1,16.6c-0.4,1.2,0.8,1.9,2.3,1.4c4-1.5,10.7-3.6,16.8-6.5c5.4-2.4,13.7-8.3,13.8-9.7
		c1.1,0.4,16.9,6.6,31.7,22.9c-11.2-4.8-24.2-4.6-33.9,3.3c-2.5,2.1-4.3,4.2-5.4,5.7c-0.9,1.2-0.2,2.2,1.4,1.9
		c7.5-1.3,21.6-2.6,28.4-4C148,373.4,153.5,371.3,153.7,370.2z"/>
	<g>
		<path class="st2" d="M352.8,363.5c-0.2,0-0.4-0.1-0.6-0.2c-4.1-2.7-99.9-67.5-83.7-101.3c4-8.3,9.8-12.3,16.9-11.7
			c10.4,0.9,22.8,12,35,31.2c13,20.6,24.5,48.5,33.4,80.7c0.1,0.4,0,0.8-0.4,1.1C353.2,363.4,353,363.5,352.8,363.5z M284,252.3
			c-5.7,0-10.2,3.6-13.6,10.6c-14.1,29.4,66.1,87,80.7,97.2c-19.3-68.6-47.6-106.1-65.8-107.8C284.8,252.3,284.4,252.3,284,252.3z"
			/>
	</g>
	<g>
		<path class="st2" d="M270.5,370.1c-13.5,0-23.3-3.7-28.8-11c-6-8-6.2-19.7-0.6-33.1c2.4-5.6,6.1-9.1,11.2-10.5
			c17.8-4.8,50.8,16.4,98.3,52.1c0.4,0.3,0.5,0.8,0.3,1.3c-0.2,0.4-0.7,0.6-1.2,0.5c-0.2-0.1-19.9-5.8-68.9,0
			C277.2,369.9,273.8,370.1,270.5,370.1z M257.8,316.9c-1.8,0-3.4,0.2-4.9,0.6c-4.5,1.2-7.8,4.3-9.9,9.4
			c-5.3,12.7-5.2,23.7,0.3,31.1c6.3,8.4,19.2,11.7,37.3,9.5c36.8-4.4,56.9-2.4,65.2-0.9C306,336.7,275.5,316.9,257.8,316.9z"/>
	</g>
	<g>
		<path class="st2" d="M350.8,340.1c-0.4,0-0.8-0.3-0.9-0.6c-23-60.9-28.1-100.1-14.5-113.3c6.1-6,16-6.5,28.5-1.4
			c4.6,1.9,7.9,5.4,10,10.6c11.6,29.1-20.7,101-22.1,104.1C351.5,339.9,351.2,340.1,350.8,340.1z M348.4,223.4
			c-4.3,0-8.4,1.1-11.7,4.3c-8.9,8.7-13.6,34.6,14.1,108.8c5.4-12.6,31.2-74.7,21.1-100.3c-1.8-4.6-4.8-7.8-8.9-9.5
			C358.7,224.9,353.4,223.4,348.4,223.4z"/>
	</g>
	<g>
		<path class="st2" d="M354.8,356.1c-0.2,0-0.4-0.1-0.6-0.2c-0.3-0.2-0.5-0.7-0.4-1.1c10.1-39.5,33.2-101.8,55.4-111.9
			c4.2-1.9,8.3-1.9,12-0.1c10.4,5.2,16.4,12.6,17.5,21.3c1.7,13.7-8.7,30.7-29.9,49c-37.6,32.3-53.3,42.6-53.4,42.7
			C355.2,356.1,355,356.1,354.8,356.1z M415.4,243.5c-1.7,0-3.5,0.4-5.4,1.3c-21,9.6-43.3,68.8-53.6,108c5.5-3.9,21.4-15.6,51-41.1
			c20.8-17.8,30.9-34.2,29.3-47.2c-1-8.2-6.5-14.9-16.4-19.8C418.7,243.9,417.1,243.5,415.4,243.5z"/>
	</g>
	<g>
		<path class="st2" d="M352.8,378.3c-3.9,0-6-0.1-6.1-0.1c-0.4,0-0.8-0.3-0.9-0.7c-0.1-0.4,0-0.8,0.4-1.1
			c18.9-14.1,35.2-28,49.6-40.1c31.5-26.7,52.2-44.3,64.3-33.1c7,6.4,9.5,16.6,6.7,27.3c-3.7,14.4-17.9,32.2-46.5,39.1
			C388.2,377.2,363.6,378.3,352.8,378.3z M349.6,376.2c8.3,0.2,34.6-0.1,70.2-8.7c27.7-6.7,41.4-23.9,45-37.7
			c2.6-10.1,0.4-19.3-6.1-25.3c-10.8-9.9-31.1,7.2-61.7,33.2C383.2,349.4,367.6,362.7,349.6,376.2z"/>
	</g>
</g>
<g>
	<path class="st6" d="M953.1,24.1c22.3-38.6,78.7-24,89.3-4c10.7,20-6.5,21.9,46,28c28.7,3.3,30,32.7,33.3,61.3
		c4.3,37.3,32.7,18.7,50.7,3.3c18-15.3,38,18.7,13.3,57.3c-24.7,38.7-51.3,60-92,40s-72-16.7-108-34c-36-17.3-42.7-37.5-41.3-70.7
		C946.4,56.1,938.4,49.5,953.1,24.1z"/>
	<path class="st7" d="M999.4,143.6c-21,5.5-37.5,79.5-48.5,105s-68,91.5-68,91.5l35.5,16c0,0,42-56,57.5-81.5s13.5-42,17-44.5
		S999.4,143.6,999.4,143.6z"/>
	<g>
		<path class="st0" d="M907.9,278.1c12.5,46,17.2,68.7,0.5,82.7c-16.7,14-170.7,38.7-182,16c-11.3-22.7,82-96,82-96L907.9,278.1z"/>
		<path class="st8" d="M808.1,144.1c-29.5,41.5-55.1,81.4-80.3,86.7c-9.1,1.9-20-35.4-43.7-8.7c-23.3,26.3,5,51,5,51
			s44.3,28.5,79.3,13s50-66,50-66L808.1,144.1z"/>
		<path class="st9" d="M882.4,130.1c29,15,42.5,27,42.5,27s-11.2,87-11.8,139c7.3,24-107.5,22.2-118.7-4
			c-3.2-7.4-0.1-107.2,7.2-135.5c3.5-13.7,11.8-18.5,21.8-23.5S882.4,130.1,882.4,130.1z"/>
		<path class="st8" d="M919.6,153.1c25.5,8.5,67.7,171,81,198.3c13.3,27.3,18.7,27.3,8,33.3c-10.7,6-20.7,7.3-29.3,4
			c-8.7-3.3-65.3-118.2-69.9-155.7C899.1,150.8,919.6,153.1,919.6,153.1z"/>
		<path class="st10" d="M856.4,66.1c3.5,21.5,10.5,55.5,26,64c6.3,3.4-18.7,30-32.7,30c-11.2,0-31.5-22.7-26.3-27
			c6.5-5.5,15.5-10.5,10-31S856.4,66.1,856.4,66.1z"/>
		<path class="st11" d="M859.9,76c-0.5,20.2-3.8,35.9-22.6,40.9c-12.6,3.3-24.4-11.1-32.3-29.7C794.4,62.1,810,49,825.1,45.9
			C840.3,42.8,860.7,46.6,859.9,76z"/>
		<path class="st0" d="M794.9,292.3C679.7,327.5,620,376,645.3,405.5c25.3,29.5,69.9,13.2,117.2-10.4c47.4-23.6,47.2-76.3,45.1-76.6
			L794.9,292.3z"/>
		<path class="st12" d="M901.9,323.4c-34.6-12.2-92.1,3.5-135.7,17c-43.7,13.5-52.2,61.4-38.7,73.3c13.5,11.9,110.1-4.5,155-24.5
			C927.4,369.1,927.8,332.6,901.9,323.4z"/>
		<ellipse transform="matrix(0.1522 -0.9883 0.9883 0.1522 667.6686 911.2981)" class="st11" cx="865" cy="66.5" rx="10.2" ry="7"/>
		<ellipse transform="matrix(0.5 -0.866 0.866 0.5 328.4586 741.1783)" class="st11" cx="806.1" cy="86.1" rx="7" ry="10.2"/>
		<path class="st0" d="M782.9,32.6c9.1-14.3,16.5-4,26-3.5s13.5-17.5,24.5-8s14,16.5,24.5,15s5,14,4.5,28.5s4.5,14,4.5,29.5
			c0,10-15,28.5-18,30s-29.5-3.6-34-12c-3.5-6.5-9.5-27.5-14-33.5c-6.5,3.5-24.5-1.5-18-20.5C785.8,49.9,774.9,45.1,782.9,32.6z"/>
		<path class="st11" d="M800.6,78.8C800.6,78.8,800.6,78.8,800.6,78.8c11.5-7.5,10.4-17.2,12.9-21.2c2.5-4,14,2,21.5,4.5
			c7.5,2.5,9-9.5,13.5-8s12,26,13,32s-8,9-18,10s-19,14.5-23,13s-14.2-18.7-15-20C803.7,86.5,800.4,79,800.6,78.8z"/>
		<path class="st0" d="M809.6,111.1c0,0,0.3,0.1,0.7,0.4c0.2,0.1,0.4,0.3,0.7,0.5c0.2,0.2,0.5,0.4,0.8,0.7c0.3,0.2,0.5,0.5,0.8,0.8
			c0.3,0.3,0.6,0.6,0.8,1c0.3,0.4,0.5,0.7,0.8,1.2c0.3,0.4,0.5,0.8,0.8,1.2c0.3,0.4,0.6,0.7,1,1.1c0.3,0.3,0.7,0.7,1,1
			c0.3,0.3,0.7,0.6,1,0.9c0.3,0.3,0.6,0.5,0.9,0.8c0.6,0.5,1.1,0.8,1.5,1c0.4,0.2,0.6,0.3,0.6,0.3l-0.1,0.3c0,0-1.1-0.1-2.5-0.7
			c-0.7-0.3-1.6-0.7-2.5-1.2c-0.4-0.2-0.9-0.5-1.3-0.8c-0.4-0.3-0.8-0.6-1.3-1c-0.4-0.3-0.8-0.7-1.3-1c-0.4-0.4-0.8-0.7-1.1-1.1
			c-0.6-0.8-1-1.7-1.3-2.5c-0.1-0.4-0.2-0.8-0.3-1.1c0-0.3-0.1-0.6-0.1-0.9c0-0.5,0-0.8,0-0.8L809.6,111.1z"/>
		<path class="st0" d="M789,22.3c0,0-0.2,0.2-0.6,0.5c-0.2,0.1-0.4,0.3-0.7,0.4c-0.1,0.1-0.3,0.1-0.5,0.2c-0.1,0.1-0.3,0.2-0.5,0.3
			c-0.3,0.2-0.6,0.3-1,0.5c-0.4,0.2-0.7,0.3-1.1,0.5c-0.4,0.1-0.8,0.2-1.3,0.3c-0.5,0.1-0.9,0.3-1.3,0.4c-0.4,0.2-0.8,0.4-1.2,0.6
			c-0.4,0.2-0.8,0.4-1.1,0.7c-0.4,0.2-0.7,0.5-1,0.8c-0.3,0.3-0.6,0.5-0.8,0.8c-0.5,0.5-0.8,1-1,1.4c-0.2,0.4-0.3,0.6-0.3,0.6
			l-0.3-0.1c0,0,0-0.3,0.1-0.7c0.1-0.4,0.3-1.1,0.6-1.8c0.2-0.3,0.4-0.7,0.6-1.1c0.2-0.4,0.5-0.8,0.9-1.2c0.3-0.4,0.7-0.7,1.1-1.1
			c0.4-0.3,0.8-0.7,1.3-1c0.4-0.3,0.9-0.6,1.3-0.9c0.5-0.3,0.9-0.6,1.4-0.7c0.5-0.1,0.9-0.3,1.4-0.3c0.5,0,0.9,0,1.3,0
			c0.8,0,1.4,0.2,1.9,0.4c0.5,0.2,0.7,0.3,0.7,0.3L789,22.3z"/>
		<path class="st0" d="M853.9,29c0,0,0.2-0.2,0.5-0.5c0.2-0.2,0.4-0.3,0.6-0.5c0.2-0.2,0.5-0.4,0.9-0.5c0.3-0.2,0.7-0.3,1.2-0.5
			c0.4-0.2,0.9-0.2,1.3-0.3c0.5-0.1,1,0,1.5,0.1c0.5,0.1,1,0.2,1.5,0.2c0.5,0.1,1,0.2,1.5,0.3c0.5,0.1,0.9,0.3,1.4,0.5
			c0.4,0.2,0.8,0.4,1.2,0.6c0.4,0.2,0.7,0.5,1,0.7c1.2,0.9,1.6,1.9,1.6,1.9l-0.2,0.2c0,0-0.2-0.2-0.5-0.4c-0.3-0.2-0.8-0.5-1.4-0.7
			c-0.3-0.1-0.6-0.2-1-0.3c-0.4-0.1-0.8-0.2-1.1-0.2c-0.4,0-0.8-0.1-1.2-0.1c-0.4,0-0.8,0-1.3,0c-0.4,0-0.9,0.1-1.3,0.2
			c-0.4,0.1-0.8,0.2-1.2,0.2c-0.4,0.1-0.8,0-1.2,0c-0.4,0-0.7,0-1.1-0.1c-0.3-0.1-0.7-0.1-1-0.1c-0.3,0-0.6-0.1-0.8-0.2
			c-0.4-0.1-0.7-0.2-0.7-0.2L853.9,29z"/>
	</g>
	<g>
		<path class="st13" d="M731.2,112.6c8.3-0.8,12.6,0,12.6,0s5.9-8.5,19.4-2.8s20,25.3,16.3,39.8s-24.3,12.3-24.3,12.3
			s-1.5,20.5-19,23.3s-37.3-16.3-32.3-42.8S727,113.1,731.2,112.6z"/>
		<path class="st14" d="M716.8,277.8c-2,10.7-13.9,15.4-25.8,21.1c-10.5,5,12.2,38.6,22.8,40.6c10.7,2,22.3-17.3,60.3-6.7
			c17.4,4.9,34.3-27,10.7-44c-6-4.3-16-18.3-17.3-18.3C766.1,270.5,716.8,277.8,716.8,277.8z"/>
		<path class="st15" d="M734.8,162.5c1.7,15.7,3.3,20.3-3,23c-6.3,2.7-19,7-23.3,17c-4.3,10,5.3,58.3,5,76.3
			c-3,11.3,10.7,19,40,15.3c29.3-3.7,24.3-10.7,24.3-14c0-3.3,6.3-26.3,7.3-51c1-24.7-0.5-28.4-6.2-33.5
			c-11.3-10.3-19.8-1.2-21.8-15.5c-1.9-13.3-0.7-22-0.7-22L734.8,162.5z"/>
		<path class="st11" d="M778.2,194.6c14.3,10.7,34.8,68.5,33,72.7s-33.5,24.3-43.8,26.8s-1.5-9.8,10.3-24s10.9-13.2,10.9-13.2
			s-3.3-6.5-5.2-11.8C782.7,194.6,778.2,194.6,778.2,194.6z"/>
		<path class="st10" d="M757.1,209.1c5.6-3,7.6-14.5,7.9-19.9c-3.8-0.5-7-2.4-7.9-9.1c-1.9-13.3-0.7-22-0.7-22l-21.7,4.3
			c1.7,15.7,3.3,20.3-3,23c-1,0.4-2.1,0.9-3.3,1.4C730.1,204.5,750.8,212.5,757.1,209.1z"/>
		<path class="st11" d="M770.7,146.1c2.6,14.6-0.9,27.1-12.1,29c-11.2,2-25.9-7.3-28.5-21.9c-2.6-14.6,4.4-28,15.6-30
			C757,121.2,768.2,131.5,770.7,146.1z"/>
		<path class="st16" d="M762.7,412.6c5.5,9.3,25.5,13.5,37.3,10.5s-2.2-12.4-6.3-15.5c-10.5-8-21.8-3.5-22.5-3.3
			S762.7,412.6,762.7,412.6z"/>
		<path class="st16" d="M728.1,400.5c0.3,15-3,21-15.3,24.7c-12.3,3.7-25.7,6-22.3-1.3c3.3-7.3,12.7-20,21.7-24
			S728.1,400.5,728.1,400.5z"/>
		<path class="st17" d="M774.4,293.3c25.1-12.9,38,14.2,23.3,33.2c-12.7,16.5-27,27.7-42.7,50.3c-16.2,23.4-19.3,27.1-28.7,31.1
			c-9.3,4-17.7-5.3-17.7-5.3s4.3-17.2,20-50.5C744.4,318.8,757.7,301.9,774.4,293.3z"/>
		<path class="st18" d="M692.3,298.5c12.2-3.6,39.7,23.7,46.3,50.3c6.7,26.7,39.3,54.3,39.3,54.3s-7.3,10.1-14,11.8
			c-6.7,1.7-20.3-3.4-36.3-15.1c-16-11.7-47.8-59.3-48.7-78.7C678.2,304.6,682.4,301.4,692.3,298.5z"/>
		<path class="st11" d="M713.4,195.5c9,7.5,6.7,30.3,2.3,49.9c-3.9,16.9-17.8,46.3-29.3,47.3s1.5-37.8,7.5-62
			S713.4,195.5,713.4,195.5z"/>
		<path class="st19" d="M738.6,313.8c-1.2-2.3-0.2-5.1,2.1-6.3l69.4-34.7c2.3-1.2,5.1-0.2,6.3,2.1c1.2,2.3,0.2,5.1-2.1,6.3
			l-69.4,34.7C742.5,317.1,739.7,316.1,738.6,313.8z"/>
		<path class="st19" d="M746.9,314.7c-1.5,2.1-4.5,2.5-6.5,1L678,269.6c-2.1-1.5-2.5-4.5-1-6.5s4.5-2.5,6.5-1l62.4,46.1
			C748,309.7,748.5,312.7,746.9,314.7z"/>
		<path class="st20" d="M742.2,307.8l-58.3-44.3c-1-0.8-1.2-2.3-0.5-3.3c0.8-1,2.3-1.2,3.3-0.5L745,304c1,0.8,1.2,2.3,0.5,3.3
			S743.2,308.6,742.2,307.8z"/>
		<path class="st20" d="M811.2,276.8l-66.1,31.6c-1.2,0.6-2.6,0.1-3.2-1.1c-0.6-1.2-0.1-2.6,1.1-3.2l66.1-31.6
			c1.2-0.6,2.6-0.1,3.2,1.1C812.9,274.8,812.4,276.3,811.2,276.8z"/>
		<path class="st11" d="M765.4,286.6c-11.8,1.3-25.8,18.5-19.5,17.7c6.3-0.7,20.8-10,23.8-13.2S765.4,286.6,765.4,286.6z"/>
		<path class="st11" d="M685.7,272.9c-9.5-4.2-13.3,13.5-1.8,20.5c6.9,4.2,27,7.5,37.3,8.1C702.7,286.8,698.7,278.6,685.7,272.9z"/>
		<path class="st11" d="M710.2,294.5c-0.4-7.2,5.9-4.3,11.5-1.3c5.7,3,26,9.2,14.9,11.3c-9.3,1.8-16.9,0.4-19-3.4
			C714,294.4,710.2,294.5,710.2,294.5z"/>
		<path class="st13" d="M762.4,121.9c1.8,29-20,38.5-20,38.5s12.5-14.8,10.3-26c-1.5,5.3-4,17.5-11,23.3c4-13.8,0.5-17.5,0.5-17.5
			s-0.3,25.5-10.3,30.5s-11.5-44-10-44s22.8-7.5,22.8-7.5L762.4,121.9z"/>
		<path class="st13" d="M725.8,117.8c-2.9-16.2-21.6-22-29.8-3c-8.2,18.9-0.6,31,15.4,29C727.4,141.9,725.8,117.8,725.8,117.8z"/>
		<path class="st13" d="M750.9,111c0-13.8,15.4-13.1,22.3-5.7c6.9,7.5,0.4,22-3.7,19.9C765.4,123.2,750.9,111,750.9,111z"/>
		<path class="st13" d="M748.3,102.1c0,0-0.1-0.3-0.3-0.8c-0.1-0.2-0.2-0.5-0.2-0.9c-0.1-0.3-0.1-0.8,0-1.2c0-0.5,0.1-1,0.3-1.5
			c0.2-0.5,0.4-1.1,0.8-1.5c0.2-0.2,0.4-0.5,0.6-0.7c0.2-0.2,0.5-0.4,0.7-0.6c0.5-0.4,1.1-0.6,1.6-0.9c0.5-0.3,1.1-0.4,1.7-0.6
			c0.6-0.1,1.1-0.2,1.6-0.2c1.1-0.1,2,0,2.8,0.1c1.6,0.2,2.6,0.6,2.6,0.6l-0.1,0.3c0,0-1.1,0-2.6,0.1c-0.4,0.1-0.8,0.1-1.2,0.2
			c-0.4,0.1-0.9,0.2-1.3,0.3c-0.4,0.1-0.9,0.3-1.3,0.5c-0.4,0.2-0.8,0.4-1.2,0.7c-0.3,0.3-0.7,0.6-0.9,0.9c-0.1,0.2-0.3,0.3-0.4,0.5
			c-0.1,0.2-0.2,0.3-0.3,0.5c-0.3,0.3-0.4,0.6-0.6,0.9c-0.3,0.3-0.4,0.6-0.6,0.9c-0.2,0.3-0.4,0.5-0.5,0.9c-0.2,0.3-0.3,0.6-0.4,0.8
			c-0.3,0.4-0.5,0.7-0.5,0.7L748.3,102.1z"/>
		<path class="st13" d="M700.1,153.6c0,0,0.2,0.2,0.4,0.6c0.1,0.2,0.2,0.4,0.4,0.7c0.1,0.3,0.2,0.5,0.4,0.8c0.1,0.3,0.2,0.6,0.3,0.9
			c0.1,0.3,0.2,0.7,0.2,1.1c0,0.4,0,0.8,0,1.2c0,0.4,0,0.8,0,1.2c0.1,0.8,0.2,1.6,0.3,2.4c0.1,0.8,0.3,1.5,0.4,2.1
			c0.3,1.2,0.6,2,0.6,2l-0.2,0.2c0,0-0.6-0.6-1.3-1.8c-0.3-0.6-0.7-1.2-1.1-2c-0.4-0.7-0.7-1.6-1-2.4c-0.3-0.8-0.7-1.7-0.8-2.5
			c-0.1-0.8,0-1.6,0.2-2.3c0.2-0.7,0.4-1.2,0.6-1.6c0.2-0.4,0.4-0.6,0.4-0.6L700.1,153.6z"/>
		<path class="st13" d="M765.6,124.1c0,0,0.2,0.3,0.5,0.8c0.2,0.3,0.3,0.6,0.5,1c0.2,0.4,0.3,0.8,0.5,1.4c0.2,0.5,0.3,1.1,0.3,1.6
			c0.1,0.6,0.1,1.2,0.1,1.8c0,0.6-0.1,1.3-0.3,2c-0.1,0.7-0.3,1.3-0.4,2c-0.1,0.7-0.3,1.3-0.5,2c-0.1,0.6-0.4,1.3-0.5,1.9
			c-0.4,1.2-0.8,2.3-1.2,3.2c-0.8,1.8-1.5,3-1.5,3l-0.3-0.1c0,0,0.4-1.3,0.8-3.2c0.2-1,0.4-2.1,0.5-3.3c0.1-1.2,0.3-2.5,0.3-3.7
			c0.1-1.3-0.1-2.5-0.1-3.7c0-0.6,0-1.2,0.1-1.7c0.1-0.5,0.1-1,0.2-1.5c0.1-0.5,0.2-0.9,0.2-1.3c0.1-0.4,0.1-0.8,0.2-1.1
			c0.1-0.6,0.3-0.9,0.3-0.9L765.6,124.1z"/>
	</g>
	<path class="st10" d="M700.4,213.1c-11.6,1.8-16.3,15-18.7,26.7c-2.3,11.7,4.7,22.7,10.3,15c5.7-7.7,10.7-28.7,11.7-34.7
		S704.8,212.5,700.4,213.1z"/>
	<g>
		<path class="st0" d="M1098.9,392.6c13.5-34,37.7-8.8,44.5-5c18,10,68.5,28,23,29c-38.2,0.8-56-7.5-56-7.5L1098.9,392.6z"/>
		<path class="st21" d="M1097.4,376.1c22.5,10.5,30.5,22,33,36c1.9,10.8-28.5,13-66.5,18s-92-4-92-4L1097.4,376.1z"/>
		<path class="st21" d="M1014.9,332.1c-61-4-146.5,11-159,55s46,37.5,109.5,35s105.5-82,105.5-82L1014.9,332.1z"/>
		<path class="st22" d="M1096.9,299.6c52,46,59.5,79.5,25.5,100.5s-87,40-168,27.5c-72.8-11.2-59.2-73.8,15.3-71.5
			C1035.8,358.1,1096.9,299.6,1096.9,299.6z"/>
		<path class="st23" d="M1053.9,131.6c4,2.5,20.1,8.3,29,19.5c29.7,37.4,1.5,124,32.5,163c31,39-79,27-99,27c-20,0-7.6-32.3-25-71
			c-32-71-17-74,0-109S1035.7,120.2,1053.9,131.6z"/>
		<path class="st10" d="M1023.4,75.1l-29,15c0,0,12.3,34.1-1.6,67.9c-0.3,13.7,2.5,24.8,8.3,23.4c7-1.7,34-38.7,43-45
			c2.9-2,6.3-3.7,9.7-5C1034.4,117.6,1033.2,107.4,1023.4,75.1z"/>
		<path class="st11" d="M1014.7,89.4c-7.3,14.4-19.7,25.3-34.3,20.8c-10-3.1-12.7-16.8-12.6-33c0.2-24.5,19.1-31.3,32.1-28
			C1012.8,52.6,1025.3,68.5,1014.7,89.4z"/>
		<path class="st11" d="M1009.4,242.1c-19.7,11.3-34,32-34,32s-17.7-2-25-2c-7.3,0-9.9-8.1-24.7-4.7c-5.8,1.3-2.3,10,3.3,10
			c5.7,0,7,7.3,14.7,4.3c9.7,6,10.7,10.3,35.7,14.7c25,4.3,30.3-23.7,30.3-23.7L1009.4,242.1z"/>
		<path class="st24" d="M907.9,318.1c-11-17.5-18-24-22-11c-4,13,2,30.5,7.5,31s13.5-3,13.5-3L907.9,318.1z"/>
		<path class="st25" d="M1008.9,315.6c-36.5-22-91.5-5-100-2.5s-9.5,19.5-6.5,23.5s21.5-4,35.5-2.5S1008.9,315.6,1008.9,315.6z"/>
		<g>
			<path class="st19" d="M931.2,299c-0.6,0-1.2,0-1.8-0.1c-6-0.9-8.5-4.7-10.8-8.1c-1.7-2.5-3.2-4.7-5.9-5.5l-1.3-0.4
				c-4.5-1.2-8.7-2.3-9.7-5.6c-0.7-2.3,0.4-5.1,3.5-8.7c4.2-4.8,10.1-7,15.8-5.9c5.6,1.1,9.9,5.2,11.9,11.3c0.7,0.7,2.5,2.5,4.9,5.7
				c2.2,3,2.9,9.3,0.4,13.4C936.8,297.7,934.3,299,931.2,299z M918.1,267.5c-3.8,0-7.6,1.8-10.5,5.1c-2.9,3.3-3.2,5-2.9,5.9
				c0.5,1.7,4.1,2.7,7.6,3.6l1.3,0.4c3.8,1.1,5.7,3.9,7.6,6.7c2.1,3.1,4,6.1,8.7,6.8c2.7,0.4,4.6-0.4,5.8-2.3
				c1.7-2.9,1.3-8-0.2-10.1c-2.8-3.8-4.8-5.5-4.8-5.5l-0.3-0.3l-0.1-0.4c-1.7-5.2-5.2-8.7-9.8-9.6
				C919.7,267.6,918.9,267.5,918.1,267.5z"/>
		</g>
		<path class="st26" d="M1030.4,202.8c8,20,0,14.7,18,31.3c18,16.7,19.3,44,17.3,70.7c-2,26.7,2,19.3-24,25.3c-26,6-54-1.3-54.7-22
			c-0.7-20.7,6-50,17.3-62c11.3-12,23-22.3,23-22.3L1030.4,202.8z"/>
		<path class="st10" d="M1019.1,224.8c-1.7,9.7-16.3,22.7-16.3,22.7s-0.3,9.7,15.7,5.3c16-4.3,17-15.3,21.7-18.7
			c4.7-3.3,6-2.3,6-2.3s-7.7-4-6.7-20.7C1040,202.5,1019.1,224.8,1019.1,224.8z"/>
		<path class="st11" d="M1044.2,209.9c-3.8,16.3-11.8,24.1-31.7,24.1c-14.1,0-21-12.5-21-29.2c0-16.7,12.9-25.2,27.1-25.2
			C1032.7,179.6,1049.5,187.1,1044.2,209.9z"/>
		<path class="st27" d="M1036.2,174.4c-44-22.8-45.1,14.8-52.1,17.1c-7,2.3,9.3,12.6,21.7,7.7c12.3-4.9-2.8,2.8-2.8,2.8
			s16.1,0,19.3-6.1c3.3-6.1,2.6,5.1,4.9,11.9s6.5,7.2,8.4,10.9c1.9,3.7,5.8,6.3,5.8,6.3s-1.9-7,4.9-15.4c6.8-8.4,3-23.9-4.7-26.1
			C1038.4,182.6,1040.1,176.4,1036.2,174.4z"/>
		<path class="st11" d="M1035.2,211.2c-1.8,3.5-5.1,5.3-7.5,4.1c-2.3-1.2-2.7-5-0.9-8.4c1.8-3.5,5.1-5.3,7.5-4.1
			S1037,207.7,1035.2,211.2z"/>
		<path class="st4" d="M908.9,345.1c-13.5-6.5-22.5-14.5-23.5-7s8,30.5,17,32s16-9,16-9L908.9,345.1z"/>
		<path class="st28" d="M1049.9,315.1c33,14,28,51.5,0,50.5c-28-1-66.2-12-73-17.5c-11,9.5-59.3,20.7-62,17c0,0-3.9-2.4-8-19
			c-2.5-10,41.5-27.5,65-30C990,314.2,1043.8,312.5,1049.9,315.1z"/>
		<path class="st10" d="M1047.4,289.1c-20.5,1.5-41-6-37.5-2.5s16,8.5,12,9c-4,0.5-37.5-19.5-32-5.5c5.5,14,23,21.5,34,21.5
			c11,0,25-6,25-6L1047.4,289.1z"/>
		<path class="st29" d="M1069.9,141.1c29,8.6,66,102.5,78.5,135.5s-42.1,38.9-64.5,37c-29-2.5-43-5.5-43-5.5s-2-14,0.5-19
			s63.5-20,63.5-20s-30.1-35.7-44.5-74C1045.4,155.1,1051.4,135.6,1069.9,141.1z"/>
		<path class="st11" d="M1050.3,236.6c22.5,3.5,35,40,39,55c4,15-0.8,17.3-12.8,26.8c-12,9.5-17.8,9.7-20.3,14.7s-1.8,21-8.3,19.5
			s1-19-3-23.5s-8-8.3,2-6.7c8.3,1.3,11-17.3,17.5-24.3c6.5-7-23-14-24.5-38.5S1050.3,236.6,1050.3,236.6z"/>
		<g>
			<path class="st11" d="M939.4,275.8c-8.1-1.1-10.8-3.3-10.9-0.3c-0.1,3.1,0.2,4.7,5.2,5.9s6.2,1.2,6.4,1.1
				C940.3,282.5,939.4,275.8,939.4,275.8z"/>
			<path class="st11" d="M923.3,269.1c1.7-3.5,4.8,0.2,5.6,2.9c0.8,2.7-0.4,3.6-0.4,3.6L923.3,269.1z"/>
			<path class="st27" d="M912.9,268.5c-1.4-0.2-2.4-2,0.8-3.8c-1.3-1.8-3.4-3-5.8-3c-4,0-7.2,3.2-7.2,7.2c0,4,3.2,7.2,7.2,7.2
				c4,0,7.2-3.2,7.2-7.2c0-0.3,0-0.7-0.1-1C914.4,268.2,913.6,268.6,912.9,268.5z"/>
			<path class="st4" d="M917.1,286.7c0.7-0.5,1.9-0.8,3,0.7c0.6-1.1,1-2.3,1-3.6c0-4-3.2-7.2-7.2-7.2c-4,0-7.2,3.2-7.2,7.2
				c0,4,3.2,7.2,7.2,7.2c1.4,0,2.7-0.4,3.8-1.1C917.4,289.1,916.5,287.2,917.1,286.7z"/>
			<path class="st28" d="M939.5,284.6c0.2,1.1,0,2.7-1.7,2.8c-1.8,0.2-1.5-1.4-2.2-3.2c-3.3,0.6-5.8,3.5-5.8,7c0,4,3.2,7.2,7.2,7.2
				c4,0,7.2-3.2,7.2-7.2C944.1,288.3,942.2,285.7,939.5,284.6z"/>
		</g>
		<path class="st22" d="M943.4,361.6c46-10,72-2.5,94.5,1.5c22.5,4,48.5,10,48.5,10l-62.5,23L943.4,361.6z"/>
		<path class="st6" d="M954.4,60.5c30,2.7,55.3-12.7,55.3-5.3c0,7.3,6.7,72.7,27.3,84.7c20.7,12,30-2.7,48.7,10.7
			s-23.3-64.7-24-66.7s-42-51.3-42-51.3h-59.3L954.4,60.5z"/>
		<path class="st6" d="M946.6,17.7c0,0-0.1,0.5-0.4,1.4c-0.1,0.4-0.3,0.9-0.5,1.5c-0.2,0.6-0.4,1.2-0.7,1.9c-0.1,0.3-0.2,0.7-0.4,1
			c-0.1,0.4-0.3,0.7-0.4,1.1c-0.2,0.8-0.6,1.6-0.9,2.4c-0.3,0.8-0.7,1.7-1,2.5c-0.3,0.9-0.6,1.8-0.9,2.7c-0.2,0.9-0.5,1.9-0.6,2.8
			c-0.2,0.9-0.3,1.8-0.4,2.7c-0.1,0.9-0.2,1.8-0.2,2.6c0,0.8,0,1.6,0,2.3c0,0.7,0.1,1.4,0.1,2c0,0.6,0.1,1.1,0.2,1.5
			c0.1,0.8,0.3,1.3,0.3,1.3l-0.3,0.1c0,0-0.2-0.5-0.5-1.3c-0.1-0.4-0.3-0.9-0.4-1.5c-0.2-0.6-0.3-1.3-0.4-2
			c-0.2-1.5-0.5-3.3-0.5-5.2c0-1,0-1.9,0.1-2.9c0.1-1,0.3-2,0.4-3c0.2-1,0.4-2,0.6-3c0.2-1,0.5-1.9,0.8-2.8c0.4-0.9,0.8-1.7,1.2-2.5
			c0.4-0.8,0.9-1.5,1.3-2.1c0.4-0.6,0.9-1.2,1.3-1.6c0.4-0.5,0.8-0.8,1.1-1.1c0.6-0.6,1-1,1-1L946.6,17.7z"/>
		<path class="st6" d="M1071.9,39.5c0,0,0.4-0.2,1.2-0.6c0.4-0.2,0.9-0.4,1.4-0.6c0.6-0.2,1.2-0.4,1.9-0.6c0.7-0.2,1.5-0.3,2.3-0.5
			c0.8-0.2,1.7-0.3,2.6-0.3c0.9,0,1.9-0.1,2.8,0c1,0.1,1.9,0.1,2.9,0.2c1,0.1,1.9,0.2,2.9,0.3c1,0.1,1.9,0.3,2.8,0.5
			c0.9,0.2,1.7,0.5,2.5,0.7c0.8,0.3,1.5,0.6,2.2,0.9c0.3,0.2,0.6,0.3,0.9,0.5c0.3,0.2,0.6,0.3,0.8,0.5c0.5,0.3,0.9,0.6,1.3,0.9
			c0.7,0.5,1,0.9,1,0.9l-0.2,0.2c0,0-0.1-0.1-0.3-0.2c-0.2-0.1-0.4-0.3-0.8-0.5c-0.3-0.2-0.8-0.4-1.3-0.6c-0.3-0.1-0.5-0.2-0.8-0.3
			c-0.3-0.1-0.6-0.2-1-0.3c-0.7-0.2-1.4-0.4-2.2-0.5c-0.8-0.1-1.6-0.3-2.5-0.4c-0.9-0.1-1.8-0.1-2.7-0.2c-0.9-0.1-1.8,0-2.8,0
			c-0.9,0-1.9,0.1-2.8,0.2c-0.9,0.1-1.8,0.2-2.7,0.3c-0.9,0-1.7,0.1-2.5,0.1c-0.8,0-1.6,0-2.3,0c-0.7,0-1.4,0-2-0.1
			c-0.6,0-1.1-0.1-1.5-0.1c-0.9-0.1-1.4-0.2-1.4-0.2L1071.9,39.5z"/>
		<path class="st6" d="M1148.4,121c0,0,0.3-0.4,1-0.9c0.3-0.3,0.7-0.6,1.2-0.9c0.5-0.3,1-0.7,1.5-1.1c0.3-0.2,0.5-0.4,0.8-0.6
			c0.3-0.2,0.6-0.4,0.9-0.6c0.6-0.5,1.3-0.9,2-1.4c0.7-0.5,1.4-1,2.2-1.4c0.7-0.5,1.4-1,2.2-1.6c0.7-0.6,1.3-1.2,2-1.8
			c0.6-0.6,1.3-1.2,1.8-1.9c0.3-0.3,0.6-0.6,0.8-0.9c0.3-0.3,0.5-0.6,0.7-0.9c0.5-0.6,0.9-1.2,1.3-1.8c0.4-0.6,0.7-1.1,1-1.6
			c0.3-0.5,0.5-0.9,0.7-1.3c0.3-0.7,0.5-1.1,0.5-1.1l0.3,0.1c0,0-0.1,0.5-0.3,1.3c-0.2,0.8-0.6,1.9-1.2,3.2c-0.3,0.6-0.6,1.3-1,2
			c-0.4,0.7-0.8,1.4-1.4,2.2c-0.5,0.8-1.1,1.5-1.6,2.2c-0.6,0.7-1.2,1.4-1.9,2.1c-1.3,1.4-2.7,2.7-4.2,3.8c-0.8,0.5-1.5,0.9-2.2,1.3
			c-0.7,0.4-1.5,0.7-2.1,0.9c-1.3,0.6-2.5,0.7-3.3,0.9c-0.8,0.2-1.3,0.2-1.3,0.2L1148.4,121z"/>
		<path class="st6" d="M1200.6,149.7c0,0,0.1,0.7,0.2,1.9c0,0.6,0.1,1.3,0.1,2.2c0,0.9-0.1,1.8-0.2,2.9c-0.1,1.1-0.4,2.2-0.6,3.4
			c-0.1,0.3-0.1,0.6-0.2,0.9c-0.1,0.3-0.2,0.6-0.3,0.9c-0.2,0.6-0.4,1.2-0.6,1.8c-0.4,1.3-1,2.5-1.6,3.7c-0.6,1.2-1.2,2.5-1.9,3.7
			c-0.7,1.2-1.3,2.4-2,3.6c-0.7,1.2-1.4,2.3-2.1,3.4c-0.7,1.1-1.4,2.1-2.1,3.1c-0.7,1-1.4,1.9-2,2.7c-2.5,3.3-4.4,5.3-4.4,5.3
			l-0.2-0.2c0,0,1.6-2.2,3.7-5.7c0.5-0.9,1.1-1.8,1.7-2.9c0.6-1,1.2-2.1,1.8-3.2c0.6-1.1,1.2-2.3,1.8-3.5c0.6-1.2,1.1-2.4,1.7-3.7
			c0.5-1.3,1-2.5,1.4-3.8c0.4-1.3,0.9-2.5,1.2-3.7c0.4-1.2,0.9-2.3,1.2-3.4c0.2-0.5,0.4-1.1,0.5-1.6c0.2-0.5,0.4-1,0.5-1.5
			c0.3-0.9,0.6-1.8,0.8-2.6c0.3-0.8,0.4-1.5,0.6-2.1c0.3-1.2,0.6-1.8,0.6-1.8L1200.6,149.7z"/>
		<path class="st6" d="M1197.6,184.7c0,0-0.2,0.5-0.6,1.4c-0.2,0.4-0.5,0.9-0.9,1.5c-0.4,0.5-0.8,1.2-1.4,1.8
			c-0.5,0.6-1.1,1.3-1.8,1.9c-0.6,0.7-1.4,1.3-2.2,1.9c-0.8,0.6-1.7,1.1-2.6,1.7c-0.9,0.5-1.9,1-2.8,1.6c-1.9,1-3.8,2-5.6,2.7
			c-1.8,0.8-3.6,1.5-5.1,2c-3,1.1-5,1.6-5,1.6l-0.1-0.3c0,0,1.9-0.9,4.7-2.3c0.7-0.4,1.5-0.8,2.2-1.2c0.8-0.4,1.6-0.9,2.5-1.4
			c0.9-0.5,1.7-1,2.6-1.6c0.9-0.5,1.7-1.1,2.6-1.7c0.8-0.6,1.7-1.2,2.5-1.8c0.8-0.7,1.6-1.2,2.3-1.8c0.7-0.6,1.5-1.1,2.2-1.6
			c0.4-0.3,0.7-0.5,1-0.8c0.3-0.2,0.7-0.4,1-0.7c0.6-0.5,1.2-0.9,1.7-1.2c0.5-0.4,1-0.7,1.4-1c0.8-0.6,1.2-0.8,1.2-0.8L1197.6,184.7
			z"/>
	</g>
</g>
<g>
</g>
<g>
</g>
<g>
</g>
<g>
</g>
<g>
</g>
<g>
</g>
<g>
</g>
<g>
</g>
<g>
</g>
<g>
</g>
<g>
</g>
<g>
</g>
<g>
</g>
<g>
</g>
<g>
</g>
</svg>
