<?xml version="1.0" encoding="utf-8"?>
<!-- Generator: Adobe Illustrator 25.2.0, SVG Export Plug-In . SVG Version: 6.00 Build 0)  -->
<svg version="1.1" id="Layer_1" xmlns="http://www.w3.org/2000/svg" xmlns:xlink="http://www.w3.org/1999/xlink" x="0px" y="0px"
	 viewBox="0 0 400.9 346.3" style="enable-background:new 0 0 400.9 346.3;" xml:space="preserve">
<style type="text/css">
	.st0{fill:#00A88F;}
	.st1{opacity:6.000000e-02;}
	.st2{fill:#5DAFA1;}
	.st3{opacity:0.3;}
	.st4{fill:#FFFFFF;}
	.st5{fill:#F4D92A;}
	.st6{fill:#68BCAE;}
	.st7{opacity:0.75;fill:#FFFFFF;}
	.st8{opacity:0.25;}
	.st9{opacity:0.5;fill:#FFFFFF;}
	.st10{opacity:0.1;}
	.st11{fill:#F2F2F2;}
	.st12{fill:#B3B3B3;}
	.st13{opacity:0.4;fill:#FFFFFF;}
	.st14{fill:#E6E6E6;}
	.st15{fill:#E6E7E8;}
	.st16{fill:#EDEDED;}
	.st17{fill:#EBEBEB;}
	.st18{fill:#D1D1D1;}
	.st19{fill-rule:evenodd;clip-rule:evenodd;fill:#FFFFFF;}
	.st20{fill:#E0C027;}
	.st21{fill-rule:evenodd;clip-rule:evenodd;fill:#D1D1D1;}
	.st22{fill-rule:evenodd;clip-rule:evenodd;fill:#B3B3B3;}
	.st23{fill-rule:evenodd;clip-rule:evenodd;fill:#D22E1C;}
</style>
<g>
	<g>
		<path class="st0" d="M374.6,11.4c0-6.6,2.8-11.2,8.7-11.4c0.2,0,0.3,0.1,0.3,0.3v5.1c0,0.2-0.1,0.3-0.3,0.4
			c-2.8,0.4-4.6,1.6-4.6,5.8c0,3.3,1,5.1,3.3,5.1c5.7,0,1.2-16.1,11.2-16.1c4.7,0,7.7,3.7,7.7,10.1c0,5.9-2.3,10-7.7,10.7
			c-0.2,0-0.3-0.1-0.3-0.3v-5.1c0-0.2,0.1-0.3,0.3-0.4c2.3-0.3,3.5-2.1,3.5-5.2c0-2.6-0.9-4.5-3-4.5c-5.4,0-1,16.2-11,16.2
			C377.5,22.1,374.6,18,374.6,11.4z"/>
		<path class="st0" d="M375.1,23.5c0-0.2,0.1-0.3,0.3-0.3l9,0.1l8.9-0.1c0.2,0,0.3,0.1,0.3,0.3v4.8c0,0.2-0.1,0.3-0.3,0.3l-2.8-0.1
			c2.2,1.4,3.3,3.9,3.3,6.6c0,0.3,0,0.6-0.1,0.8c0,0.2-0.2,0.3-0.4,0.3H390c-0.2,0-0.3-0.1-0.3-0.3c0-0.2,0-0.5,0-0.7
			c0-3.8-2.1-6.7-6.4-6.6h-7.9c-0.2,0-0.3-0.1-0.3-0.3V23.5z"/>
		<path class="st0" d="M381.4,54c0,0.2-0.1,0.3-0.3,0.3c-3.4-0.5-6.4-3.7-6.4-8.9c0-6.2,4.1-9.5,9.7-9.5c5.9,0,9.8,3.5,9.8,9.4
			c0,6.1-4,9.5-10.5,9.6c-0.2,0-0.3-0.1-0.3-0.3V41.3c-3.5,0.2-5,1.6-5,4.2c0,1.8,0.8,3.1,2.8,3.6c0.2,0,0.3,0.2,0.3,0.4V54z
			 M390.6,45.4c0-2.2-1.3-3.5-3.9-3.9v7.6C388.7,48.8,390.6,47.7,390.6,45.4z"/>
		<path class="st0" d="M375.1,69.4c0-0.2,0.1-0.3,0.3-0.3l1.8,0.1c-1.6-1.3-2.5-3.1-2.5-5.5c0-5.3,4.2-8,9.6-8
			c5.4,0,9.7,3.1,9.7,8.1c0,2.3-0.8,4.1-2.3,5.3l8.3,0c0.2,0,0.3,0.1,0.3,0.3v4.8c0,0.2-0.1,0.3-0.3,0.3l-12.3-0.1l-12.3,0.1
			c-0.2,0-0.3-0.1-0.3-0.3V69.4z M378.4,65.3c0,2.6,2,4,5.9,4.1c4,0,6.2-1.4,6.2-4c0.1-2.7-2-4.1-5.9-4.1
			C380.4,61.2,378.3,62.7,378.4,65.3z"/>
		<path class="st0" d="M374.7,84.8c0-5.4,2.2-8.9,6.3-9c0.2,0,0.3,0.1,0.3,0.3v4.6c0,0.2-0.1,0.3-0.3,0.3c-2.1,0.1-3,1.5-3,4
			c0,2.1,0.8,3.3,2.3,3.3c3.5,0,0.1-12.1,7.9-12.1c3.9,0,5.9,3.1,5.9,8.1c0,4.9-1.9,8.1-5.8,8.5c-0.2,0-0.3-0.1-0.3-0.3v-4.4
			c0-0.2,0.1-0.3,0.3-0.4c1.6-0.3,2.6-1.3,2.6-3.5c0-1.8-0.6-2.9-2.2-2.9c-3.5,0,0.1,12.1-7.8,12.1
			C376.9,93.5,374.7,89.9,374.7,84.8z"/>
		<path class="st0" d="M375.8,105.7c-0.2,0-0.4-0.1-0.4-0.3c-0.4-1-0.6-2.2-0.6-3.4c0-3.1,1.6-6.1,5.8-6.1l9.3,0v-2.1
			c0-0.2,0.1-0.3,0.3-0.3h3.2c0.2,0,0.3,0.1,0.3,0.3v2.1l4.3,0c0.2,0,0.3,0.1,0.3,0.3v4.8c0,0.2-0.1,0.3-0.3,0.3l-4.3,0v4.1
			c0,0.2-0.1,0.3-0.3,0.3h-3.2c-0.2,0-0.3-0.1-0.3-0.3v-4.1l-9.1,0c-1.6,0-2.1,0.8-2.1,2c0,0.9,0.1,1.5,0.3,2.1
			c0,0.2-0.1,0.3-0.3,0.3H375.8z"/>
		<path class="st0" d="M375.4,119c-0.1-0.1-0.3-0.3-0.3-0.4v-5.7c0-0.2,0.1-0.4,0.3-0.4l18-6.3c0.1-0.1,0.3,0,0.3,0.2v5.2
			c0,0.2-0.1,0.4-0.3,0.4l-13.7,4l13.7,4.4c0.2,0.1,0.3,0.3,0.3,0.4v4.4c0,0.2-0.1,0.3-0.3,0.2L375.4,119z"/>
		<path class="st0" d="M375.1,138.1c0-0.2,0.1-0.3,0.3-0.3l1.8,0.1c-1.6-1.3-2.5-3.1-2.5-5.5c0-5.3,4.2-8,9.6-8
			c5.4,0,9.7,3.1,9.7,8.1c0,2.3-0.8,4.1-2.3,5.4l1.7-0.1c0.2,0,0.3,0.1,0.3,0.3v4.8c0,0.2-0.1,0.3-0.3,0.3l-9-0.1l-8.9,0.1
			c-0.2,0-0.3-0.1-0.3-0.3V138.1z M378.4,133.9c0,2.6,2,4,5.9,4.1c4,0,6.1-1.4,6.2-4c0.1-2.7-2-4.1-5.8-4.1
			C380.5,129.9,378.4,131.3,378.4,133.9z"/>
		<path class="st0" d="M374.8,162.6c0-2.2,0.8-4,2.3-5.3l-7.7,0.1c-0.2,0-0.3-0.1-0.3-0.3v-4.9c0-0.2,0.1-0.3,0.3-0.3l13.3,0.1
			l10.7-0.1c0.2,0,0.3,0.1,0.3,0.3v4.8c0,0.2-0.1,0.3-0.3,0.3l-1.8-0.1c1.6,1.3,2.5,3.1,2.5,5.5c0,5.3-4.2,8-9.6,8
			C379.1,170.7,374.8,167.6,374.8,162.6z M378.4,161.1c0,2.7,2,4.1,5.8,4.1c4.1,0,6.2-1.4,6.2-4c0-2.6-2-4-5.8-4.1
			C380.6,157.1,378.4,158.5,378.4,161.1z"/>
		<path class="st0" d="M375.1,172.3c0-0.2,0.1-0.3,0.3-0.3l9,0.1l8.9-0.1c0.2,0,0.3,0.1,0.3,0.3v4.8c0,0.2-0.1,0.3-0.3,0.3l-2.8-0.1
			c2.2,1.4,3.3,3.9,3.3,6.6c0,0.3,0,0.6-0.1,0.8c0,0.2-0.2,0.3-0.4,0.3H390c-0.2,0-0.3-0.1-0.3-0.3c0-0.2,0-0.5,0-0.7
			c0-3.8-2.1-6.7-6.4-6.6h-7.9c-0.2,0-0.3-0.1-0.3-0.3V172.3z"/>
		<path class="st0" d="M374.7,194.2c0-6,3.8-9.5,9.7-9.5s9.8,3.5,9.8,9.5c0,6-3.8,9.5-9.7,9.5S374.7,200.3,374.7,194.2z
			 M378.3,194.2c0,2.7,1.8,3.9,6.1,3.9c4.2,0,6.2-1.3,6.2-4c0-2.7-2.1-4-6.2-4C380.2,190.2,378.3,191.5,378.3,194.2z"/>
		<path class="st0" d="M375.8,215.9c-0.2,0-0.4-0.1-0.4-0.3c-0.4-1-0.6-2.2-0.6-3.4c0-3.1,1.6-6.1,5.8-6.1l9.3,0V204
			c0-0.2,0.1-0.3,0.3-0.3h3.2c0.2,0,0.3,0.1,0.3,0.3v2.1l4.3,0c0.2,0,0.3,0.1,0.3,0.3v4.8c0,0.2-0.1,0.3-0.3,0.3l-4.3,0v4.1
			c0,0.2-0.1,0.3-0.3,0.3h-3.2c-0.2,0-0.3-0.1-0.3-0.3v-4.1l-9.1,0c-1.6,0-2.1,0.8-2.1,2c0,0.9,0.1,1.5,0.3,2.1
			c0,0.2-0.1,0.3-0.3,0.3H375.8z"/>
		<path class="st0" d="M395.5,217.5c0-0.2,0.1-0.3,0.3-0.3h4.2c0.2,0,0.3,0.1,0.3,0.3v4.8c0,0.2-0.1,0.3-0.3,0.3h-4.2
			c-0.2,0-0.3-0.1-0.3-0.3V217.5z M375.1,217.5c0-0.2,0.1-0.3,0.3-0.3l8.9,0.1l9-0.1c0.2,0,0.3,0.1,0.3,0.3v4.9
			c0,0.2-0.1,0.3-0.3,0.3l-9-0.1l-8.9,0.1c-0.2,0-0.3-0.1-0.3-0.3V217.5z"/>
		<path class="st0" d="M375.4,236.1c-0.1-0.1-0.3-0.3-0.3-0.4v-5.7c0-0.2,0.1-0.4,0.3-0.4l18-6.3c0.1-0.1,0.3,0,0.3,0.2v5.2
			c0,0.2-0.1,0.4-0.3,0.4l-13.7,4l13.7,4.4c0.2,0.1,0.3,0.3,0.3,0.4v4.4c0,0.2-0.1,0.3-0.3,0.2L375.4,236.1z"/>
		<path class="st0" d="M395.5,250c0-0.2,0.1-0.3,0.3-0.3h4.2c0.2,0,0.3,0.1,0.3,0.3v4.8c0,0.2-0.1,0.3-0.3,0.3h-4.2
			c-0.2,0-0.3-0.1-0.3-0.3V250z M375.1,250c0-0.2,0.1-0.3,0.3-0.3l8.9,0.1l9-0.1c0.2,0,0.3,0.1,0.3,0.3v4.9c0,0.2-0.1,0.3-0.3,0.3
			l-9-0.1l-8.9,0.1c-0.2,0-0.3-0.1-0.3-0.3V250z"/>
		<path class="st0" d="M375.1,257.5c0-0.2,0.1-0.3,0.3-0.3l12.3,0.1l12.3-0.1c0.2,0,0.3,0.1,0.3,0.3v4.7c0,0.2-0.1,0.3-0.3,0.3
			l-12.3-0.1l-12.3,0.1c-0.2,0-0.3-0.1-0.3-0.3V257.5z"/>
		<path class="st0" d="M395.5,264.8c0-0.2,0.1-0.3,0.3-0.3h4.2c0.2,0,0.3,0.1,0.3,0.3v4.8c0,0.2-0.1,0.3-0.3,0.3h-4.2
			c-0.2,0-0.3-0.1-0.3-0.3V264.8z M375.1,264.8c0-0.2,0.1-0.3,0.3-0.3l8.9,0.1l9-0.1c0.2,0,0.3,0.1,0.3,0.3v4.9
			c0,0.2-0.1,0.3-0.3,0.3l-9-0.1l-8.9,0.1c-0.2,0-0.3-0.1-0.3-0.3V264.8z"/>
		<path class="st0" d="M337.5,15.9c-0.2,0-0.3-0.1-0.3-0.3v-15c0-0.2,0.1-0.3,0.3-0.3h3.2c0.2,0,0.4,0.1,0.6,0.2l10.7,8.3V1.4
			c0-0.2,0.1-0.3,0.3-0.3h3.2c0.2,0,0.3,0.1,0.3,0.3v13.7c0,0.2-0.1,0.3-0.3,0.3h-3.2c-0.2,0-0.4-0.1-0.6-0.2L341,6.8v8.9
			c0,0.2-0.1,0.3-0.3,0.3H337.5z"/>
		<path class="st0" d="M337.1,30c0-0.2,0.1-0.3,0.3-0.3l1.8,0.1c-1.6-1.3-2.5-3.1-2.5-5.5c0-5.3,4.2-8,9.6-8c5.4,0,9.7,3.1,9.7,8.1
			c0,2.3-0.8,4.1-2.3,5.4l1.7-0.1c0.2,0,0.3,0.1,0.3,0.3v4.8c0,0.2-0.1,0.3-0.3,0.3l-9-0.1l-8.9,0.1c-0.2,0-0.3-0.1-0.3-0.3V30z
			 M340.4,25.8c0,2.6,2,4,5.9,4.1c4,0,6.1-1.4,6.2-4c0.1-2.7-2-4.1-5.8-4.1C342.5,21.7,340.4,23.2,340.4,25.8z"/>
		<path class="st0" d="M336.7,52.3c0-5.4,2.2-8.9,6.3-9c0.2,0,0.3,0.1,0.3,0.3v4.6c0,0.2-0.1,0.3-0.3,0.3c-2.1,0.1-3,1.5-3,4
			c0,2.1,0.8,3.3,2.3,3.3c3.5,0,0.1-12.1,7.9-12.1c3.9,0,5.9,3.1,5.9,8.1c0,4.9-1.9,8.1-5.8,8.5c-0.2,0-0.3-0.1-0.3-0.3v-4.4
			c0-0.2,0.1-0.3,0.3-0.4c1.6-0.3,2.6-1.3,2.6-3.5c0-1.8-0.6-2.9-2.2-2.9c-3.5,0,0.1,12.1-7.8,12.1C338.9,61,336.7,57.3,336.7,52.3z
			"/>
		<path class="st0" d="M343.8,67.8l-6.3,0.1c-0.2,0-0.3-0.1-0.3-0.3v-4.9c0-0.2,0.1-0.3,0.3-0.3l6.3,0.1l11.6,0
			c0.2,0,0.3,0.1,0.3,0.3v4.6c0,0.2-0.1,0.3-0.3,0.3l-2-0.1c1.8,1.3,2.8,3,2.8,5.3c0,2.6-1.1,4.4-3.5,5.3c2.8,1.6,3.5,3.5,3.5,5.7
			c0,3.7-2.3,5.9-7.2,5.9h-5.1l-6.3,0.1c-0.2,0-0.3-0.1-0.3-0.3v-4.9c0-0.2,0.1-0.3,0.3-0.3l6.3,0.1h5c2.2,0,3.3-0.9,3.3-2.4
			c0-1.5-2-3.3-5.8-3.3h-2.6l-6.3,0.1c-0.2,0-0.3-0.1-0.3-0.3v-4.9c0-0.2,0.1-0.3,0.3-0.3l6.3,0.1h5c2.2,0,3.3-0.9,3.3-2.4
			s-2-3.3-5.8-3.3H343.8z"/>
		<path class="st0" d="M337.1,104.6c0-0.2,0.1-0.3,0.3-0.3l1.8,0.1c-1.6-1.3-2.5-3.1-2.5-5.5c0-5.3,4.2-8,9.6-8
			c5.4,0,9.7,3.1,9.7,8.1c0,2.3-0.8,4.1-2.3,5.4l1.7-0.1c0.2,0,0.3,0.1,0.3,0.3v4.8c0,0.2-0.1,0.3-0.3,0.3l-9-0.1l-8.9,0.1
			c-0.2,0-0.3-0.1-0.3-0.3V104.6z M340.4,100.4c0,2.6,2,4,5.9,4.1c4,0,6.1-1.4,6.2-4c0.1-2.7-2-4.1-5.8-4.1
			C342.5,96.3,340.4,97.8,340.4,100.4z"/>
		<path class="st0" d="M337.1,111.7c0-0.2,0.1-0.3,0.3-0.3l8.6,0.1l9.3,0c0.2,0,0.3,0.1,0.3,0.3v4.6c0,0.2-0.1,0.3-0.3,0.3l-2-0.1
			c1.6,1.3,2.8,3.4,2.8,6c0,3.9-2.7,6.4-7.2,6.4H345l-7.6,0.1c-0.2,0-0.3-0.1-0.3-0.3v-4.8c0-0.2,0.1-0.3,0.3-0.3l7.6,0.1h3.8
			c2,0,3.3-1.2,3.3-2.8c0-1.9-1.8-4-5.8-4H345l-7.6,0.1c-0.2,0-0.3-0.1-0.3-0.3V111.7z"/>
		<path class="st0" d="M357.5,131c0-0.2,0.1-0.3,0.3-0.3h4.2c0.2,0,0.3,0.1,0.3,0.3v4.8c0,0.2-0.1,0.3-0.3,0.3h-4.2
			c-0.2,0-0.3-0.1-0.3-0.3V131z M331,131c0-0.2,0.1-0.3,0.3-0.3l12.2,0.1l11.8-0.1c0.2,0,0.3,0.1,0.3,0.3v4.9c0,0.2-0.1,0.3-0.3,0.3
			l-11.8-0.1l-12.2,0.1c-0.2,0-0.3-0.1-0.3-0.3V131z"/>
		<path class="st0" d="M357.5,138.5c0-0.2,0.1-0.3,0.3-0.3h4.2c0.2,0,0.3,0.1,0.3,0.3v4.8c0,0.2-0.1,0.3-0.3,0.3h-4.2
			c-0.2,0-0.3-0.1-0.3-0.3V138.5z M337.1,138.5c0-0.2,0.1-0.3,0.3-0.3l8.9,0.1l9-0.1c0.2,0,0.3,0.1,0.3,0.3v4.9
			c0,0.2-0.1,0.3-0.3,0.3l-9-0.1l-8.9,0.1c-0.2,0-0.3-0.1-0.3-0.3V138.5z"/>
		<path class="st0" d="M337.4,157.1c-0.1-0.1-0.3-0.3-0.3-0.4v-5.7c0-0.2,0.1-0.4,0.3-0.4l18-6.3c0.1-0.1,0.3,0,0.3,0.2v5.2
			c0,0.2-0.1,0.4-0.3,0.4l-13.7,4l13.7,4.4c0.2,0.1,0.3,0.3,0.3,0.4v4.4c0,0.2-0.1,0.3-0.3,0.2L337.4,157.1z"/>
		<path class="st0" d="M337.1,176.2c0-0.2,0.1-0.3,0.3-0.3l1.8,0.1c-1.6-1.3-2.5-3.1-2.5-5.5c0-5.3,4.2-8,9.6-8
			c5.4,0,9.7,3.1,9.7,8.1c0,2.3-0.8,4.1-2.3,5.4l1.7-0.1c0.2,0,0.3,0.1,0.3,0.3v4.8c0,0.2-0.1,0.3-0.3,0.3l-9-0.1l-8.9,0.1
			c-0.2,0-0.3-0.1-0.3-0.3V176.2z M340.4,172c0,2.6,2,4,5.9,4.1c4,0,6.1-1.4,6.2-4c0.1-2.7-2-4.1-5.8-4.1
			C342.5,167.9,340.4,169.4,340.4,172z"/>
		<path class="st0" d="M337.1,183.3c0-0.2,0.1-0.3,0.3-0.3l8.6,0.1l9.3,0c0.2,0,0.3,0.1,0.3,0.3v4.6c0,0.2-0.1,0.3-0.3,0.3l-2-0.1
			c1.6,1.3,2.8,3.4,2.8,6c0,3.9-2.7,6.4-7.2,6.4H345l-7.6,0.1c-0.2,0-0.3-0.1-0.3-0.3v-4.8c0-0.2,0.1-0.3,0.3-0.3l7.6,0.1h3.8
			c2,0,3.3-1.2,3.3-2.8c0-1.9-1.8-4-5.8-4H345l-7.6,0.1c-0.2,0-0.3-0.1-0.3-0.3V183.3z"/>
		<path class="st0" d="M357.5,202.6c0-0.2,0.1-0.3,0.3-0.3h4.2c0.2,0,0.3,0.1,0.3,0.3v4.8c0,0.2-0.1,0.3-0.3,0.3h-4.2
			c-0.2,0-0.3-0.1-0.3-0.3V202.6z M331,202.6c0-0.2,0.1-0.3,0.3-0.3l12.2,0.1l11.8-0.1c0.2,0,0.3,0.1,0.3,0.3v4.9
			c0,0.2-0.1,0.3-0.3,0.3l-11.8-0.1l-12.2,0.1c-0.2,0-0.3-0.1-0.3-0.3V202.6z"/>
		<path class="st0" d="M343.4,227.3c0,0.2-0.1,0.3-0.3,0.3c-3.4-0.5-6.4-3.7-6.4-8.9c0-6.2,4.1-9.5,9.7-9.5c5.9,0,9.8,3.5,9.8,9.4
			c0,6.1-4,9.5-10.5,9.6c-0.2,0-0.3-0.1-0.3-0.3v-13.2c-3.5,0.2-5,1.6-5,4.2c0,1.8,0.8,3.1,2.8,3.6c0.2,0,0.3,0.2,0.3,0.4V227.3z
			 M352.6,218.7c0-2.2-1.3-3.5-3.9-3.9v7.6C350.7,222.2,352.6,221,352.6,218.7z"/>
		<path class="st0" d="M337.8,247.3c-0.2,0-0.4-0.1-0.4-0.3c-0.4-1-0.6-2.2-0.6-3.4c0-3.1,1.6-6.1,5.8-6.1l9.3,0v-2.1
			c0-0.2,0.1-0.3,0.3-0.3h3.2c0.2,0,0.3,0.1,0.3,0.3v2.1l4.3,0c0.2,0,0.3,0.1,0.3,0.3v4.8c0,0.2-0.1,0.3-0.3,0.3l-4.3,0v4.1
			c0,0.2-0.1,0.3-0.3,0.3h-3.2c-0.2,0-0.3-0.1-0.3-0.3v-4.1l-9.1,0c-1.6,0-2.1,0.8-2.1,2c0,0.9,0.1,1.5,0.3,2.1
			c0,0.2-0.1,0.3-0.3,0.3H337.8z"/>
		<path class="st0" d="M343.4,265.6c0,0.2-0.1,0.3-0.3,0.3c-3.4-0.5-6.4-3.7-6.4-8.9c0-6.2,4.1-9.5,9.7-9.5c5.9,0,9.8,3.5,9.8,9.4
			c0,6.1-4,9.5-10.5,9.6c-0.2,0-0.3-0.1-0.3-0.3v-13.2c-3.5,0.2-5,1.6-5,4.2c0,1.8,0.8,3.1,2.8,3.6c0.2,0,0.3,0.2,0.3,0.4V265.6z
			 M352.6,257c0-2.2-1.3-3.5-3.9-3.9v7.6C350.7,260.5,352.6,259.3,352.6,257z"/>
		<path class="st0" d="M329.9,276.9c-0.1-4.9,1.9-8.6,6-8.9c0.2,0,0.3,0.1,0.3,0.3v4.6c0,0.2-0.1,0.4-0.3,0.4
			c-1.5,0.3-2.4,1.5-2.4,3.7c0,2.3,1.3,4,4.2,4h2.1c-1.6-1.2-2.6-3-2.6-5.3c0-5.5,4.1-8.4,9.3-8.4c5.2,0,9.4,3.1,9.4,8.1
			c0,2.3-0.8,4.1-2.3,5.4l1.7-0.1c0.2,0,0.3,0.1,0.3,0.3v4.8c0,0.2-0.1,0.3-0.3,0.3l-9.2-0.1l-8.5,0
			C333,286.1,329.9,283,329.9,276.9z M340.8,276.9c0,2.6,1.9,4,5.6,4.1c3.9,0,6-1.4,6-4c0.1-2.7-1.9-4.1-5.7-4.1
			C342.8,272.8,340.7,274.3,340.8,276.9z"/>
		<path class="st0" d="M336.7,297c0-6,3.8-9.5,9.7-9.5s9.8,3.5,9.8,9.5s-3.8,9.5-9.7,9.5S336.7,303,336.7,297z M340.3,297
			c0,2.7,1.8,3.9,6.1,3.9c4.2,0,6.2-1.3,6.2-4c0-2.7-2.1-4-6.2-4C342.2,292.9,340.3,294.3,340.3,297z"/>
		<path class="st0" d="M336.8,318.5c0-2.3,0.8-4.1,2.3-5.4l-1.7,0.1c-0.2,0-0.3-0.1-0.3-0.3V308c0-0.2,0.1-0.3,0.3-0.3l12.3,0.1
			l12.3-0.1c0.2,0,0.3,0.1,0.3,0.3v4.8c0,0.2-0.1,0.3-0.3,0.3l-8.5,0c1.6,1.3,2.5,3.1,2.5,5.4c0,5.3-4.2,8-9.6,8
			C341.1,326.6,336.8,323.5,336.8,318.5z M340.5,316.9c-0.1,2.7,2.1,4.1,5.8,4.1c4.1,0,6.2-1.4,6.1-4c0-2.6-1.9-4-5.8-4.1
			C342.7,312.9,340.5,314.3,340.5,316.9z"/>
		<path class="st0" d="M337.1,341.2c0-0.2,0.1-0.3,0.3-0.3l1.8,0.1c-1.6-1.3-2.5-3.1-2.5-5.5c0-5.3,4.2-8,9.6-8
			c5.4,0,9.7,3.1,9.7,8.1c0,2.3-0.8,4.1-2.3,5.4l1.7-0.1c0.2,0,0.3,0.1,0.3,0.3v4.8c0,0.2-0.1,0.3-0.3,0.3l-9-0.1l-8.9,0.1
			c-0.2,0-0.3-0.1-0.3-0.3V341.2z M340.4,337c0,2.6,2,4,5.9,4.1c4,0,6.1-1.4,6.2-4c0.1-2.7-2-4.1-5.8-4.1
			C342.5,333,340.4,334.4,340.4,337z"/>
	</g>
</g>
<g>
	<g>
		<g>
			<g>
				<g class="st1">
					<path d="M231.4,283.6v-15.1c0-1.5-1.2-2.8-2.8-2.8h-9.8c-0.9,0-1.6,0.4-2.2,1.1l0,0l-1.3,1.6c-0.2,0.3-0.4,0.6-0.4,1v5.4v2.8
						v5.4c0,0.4,0.1,0.7,0.4,1l1.3,1.6l0,0c0.5,0.6,1.3,1.1,2.2,1.1h9.8C230.1,286.4,231.4,285.1,231.4,283.6z"/>
				</g>
				<g class="st1">
					<path d="M224.5,280.2c0.4-0.2,0.7-0.7,0.7-1.2v-2.6v-0.8v-2.6c0-0.5-0.3-0.9-0.7-1.2l-3.6-2.1c-0.2-0.1-0.5-0.2-0.7-0.2h-3.1
						c-0.8,0-1.4,0.6-1.4,1.4v4.7v0.8v4.7c0,0.8,0.6,1.4,1.4,1.4h3.1c0.2,0,0.5-0.1,0.7-0.2L224.5,280.2z"/>
				</g>
				<g class="st1">
					<path d="M211.8,279.1v-6c0-0.7,0.6-1.3,1.3-1.3h0.6c0.7,0,1.3,0.6,1.3,1.3v6c0,0.7-0.6,1.3-1.3,1.3h-0.6
						C212.4,280.4,211.8,279.8,211.8,279.1z"/>
				</g>
				<g class="st1">
					<path d="M194.1,285.2l17.7-6.2v-2.9v-2.9l-17.7-6.2c-0.5-0.2-0.9-0.5-1.2-0.8l-1.1-1.3c-0.5-0.6-1.3-1-2.2-1h-74.3
						c-1.4,0-2.6,1.2-2.6,2.6v9.6v9.6c0,1.4,1.2,2.6,2.6,2.6h74.3c0.8,0,1.6-0.4,2.2-1l1.1-1.3C193.2,285.6,193.6,285.3,194.1,285.2
						z"/>
				</g>
				<g class="st1">
					<path d="M121.5,266.2h67c0.9,0,1.7,0.4,2.3,1l0.4,0.4c0.6,0.7,1.4,1.2,2.2,1.5l18.4,5.6v2.6l-18.4,5.6
						c-0.9,0.3-1.6,0.8-2.2,1.5l-0.4,0.4c-0.6,0.7-1.4,1-2.3,1h-67c-3.2,0-5.8-2.6-5.8-5.8v-8.3
						C115.8,268.7,118.3,266.2,121.5,266.2z"/>
				</g>
				<g>
					<path class="st2" d="M173,266.2h-51.5c-3.2,0-5.8,2.6-5.8,5.8v8.3c0,3.2,2.6,5.8,5.8,5.8H173
						C172.9,285.3,173.3,268.6,173,266.2z"/>
				</g>
				<g class="st1">
					<path d="M216.7,280.6v-9.1c0-0.6,0.5-1.1,1.1-1.1h1.6c0.6,0,1.1,0.5,1.1,1.1v9.1c0,0.6-0.5,1.1-1.1,1.1h-1.6
						C217.2,281.8,216.7,281.2,216.7,280.6z"/>
				</g>
				<g class="st3">
					<path class="st4" d="M123.7,278.3c15.1-4.6,30.8-4.7,46.4-5.2c9.3-0.3,18.5-0.3,27.8-0.2c-2.9-0.9-5.3-1.6-5.3-1.6
						c-1.3-0.4-2.4-1.2-3.2-2.2l-0.4-0.4c-0.1-0.1-0.3-0.2-0.5-0.2h-67c-1.9,0-3.4,1.5-3.4,3.4v8.3c0,0.4,0.1,0.7,0.2,1
						C119.9,279.9,121.7,278.9,123.7,278.3z"/>
				</g>
			</g>
			<g>
				<path class="st4" d="M124.1,279.5c-1.5,0-2.3-0.8-2.3-2.2l0-1.5l0-1.9c0,0,0-0.1,0.1-0.1h1.1c0,0,0.1,0,0.1,0.1l0,1.9v1.5
					c0,0.8,0.3,1.2,1,1.2c0.8,0,1.1-0.4,1.1-1.2v-1.5l0-1.9c0,0,0-0.1,0.1-0.1h1c0,0,0.1,0,0.1,0.1l0,1.9v1.5
					C126.3,278.8,125.5,279.5,124.1,279.5z"/>
				<path class="st4" d="M127.9,277.9l0,1.4c0,0,0,0.1-0.1,0.1h-1.1c0,0-0.1,0-0.1-0.1l0-1.4l0-2.6c0,0,0-0.1,0.1-0.1h1
					c0,0,0.1,0,0.1,0.1l0,0.4c0.3-0.4,0.7-0.6,1.2-0.6c0.6,0,1,0.2,1.2,0.8c0.4-0.6,0.8-0.8,1.2-0.8c0.8,0,1.3,0.5,1.3,1.6v1.1
					l0,1.4c0,0,0,0.1-0.1,0.1h-1.1c0,0-0.1,0-0.1-0.1l0-1.4v-1.1c0-0.5-0.2-0.7-0.5-0.7c-0.3,0-0.7,0.4-0.7,1.3v0.6l0,1.4
					c0,0,0,0.1-0.1,0.1h-1.1c0,0-0.1,0-0.1-0.1l0-1.4v-1.1c0-0.5-0.2-0.7-0.5-0.7c-0.3,0-0.7,0.4-0.7,1.3V277.9z"/>
				<path class="st4" d="M133.2,274.9C133.1,274.9,133.1,274.9,133.2,274.9l-0.1-1c0,0,0-0.1,0.1-0.1h1.1c0,0,0.1,0,0.1,0.1v0.9
					c0,0,0,0.1-0.1,0.1H133.2z M133.2,280.8C133.1,280.8,133.1,280.7,133.2,280.8l0-2.8l0-2.6c0,0,0-0.1,0.1-0.1h1.1
					c0,0,0.1,0,0.1,0.1l0,2.6l0,2.7c0,0,0,0.1-0.1,0.1H133.2z"/>
				<path class="st4" d="M138.6,278C138.7,278,138.7,278.1,138.6,278c0,0.8-0.8,1.5-1.9,1.5c-1.4,0-2.1-0.9-2.1-2.1
					c0-1.3,0.8-2.2,2.1-2.2c1.3,0,2.1,0.9,2.1,2.3c0,0,0,0.1-0.1,0.1h-2.9c0,0.8,0.3,1.1,0.9,1.1c0.4,0,0.7-0.2,0.8-0.6
					c0,0,0-0.1,0.1-0.1H138.6z M136.7,276c-0.5,0-0.8,0.3-0.9,0.9h1.7C137.5,276.4,137.2,276,136.7,276z"/>
				<path class="st4" d="M141.5,279.3C141.5,279.3,141.5,279.3,141.5,279.3c-0.3,0.2-0.6,0.2-0.8,0.2c-0.7,0-1.4-0.4-1.4-1.3l0-2.1
					h-0.5c0,0-0.1,0-0.1-0.1v-0.7c0,0,0-0.1,0.1-0.1h0.5l0-1c0,0,0-0.1,0.1-0.1h1.1c0,0,0.1,0,0.1,0.1l0,1h0.9c0,0,0.1,0,0.1,0.1
					v0.7c0,0,0,0.1-0.1,0.1h-0.9l0,2c0,0.4,0.2,0.5,0.4,0.5c0.2,0,0.3,0,0.5-0.1c0,0,0.1,0,0.1,0.1V279.3z"/>
				<path class="st4" d="M141.8,279.4C141.8,279.4,141.8,279.4,141.8,279.4l0-2l0-2.1c0,0,0-0.1,0.1-0.1h1c0,0,0.1,0,0.1,0.1l0,0.4
					c0.3-0.4,0.7-0.6,1.3-0.6c0.9,0,1.4,0.6,1.4,1.6v0.9l0,1.7c0,0,0,0.1-0.1,0.1h-1.1c0,0-0.1,0-0.1-0.1l0-1.7v-0.8
					c0-0.4-0.3-0.7-0.6-0.7c-0.4,0-0.9,0.4-0.9,1.3v0.3l0,1.7c0,0,0,0.1-0.1,0.1H141.8z"/>
				<path class="st4" d="M149.9,278C150,278,150,278.1,149.9,278c0,0.8-0.8,1.5-1.9,1.5c-1.4,0-2.1-0.9-2.1-2.1
					c0-1.3,0.8-2.2,2.1-2.2c1.3,0,2.1,0.9,2.1,2.3c0,0,0,0.1-0.1,0.1h-2.9c0,0.8,0.3,1.1,0.9,1.1c0.4,0,0.7-0.2,0.8-0.6
					c0,0,0-0.1,0.1-0.1H149.9z M148,276c-0.5,0-0.8,0.3-0.9,0.9h1.7C148.8,276.4,148.5,276,148,276z"/>
				<path class="st4" d="M153.8,279.5c-1.2,0-2-0.5-2-1.4c0,0,0-0.1,0.1-0.1h1c0,0,0.1,0,0.1,0.1c0,0.5,0.3,0.7,0.9,0.7
					c0.5,0,0.7-0.2,0.7-0.5c0-0.8-2.7,0-2.7-1.7c0-0.9,0.7-1.3,1.8-1.3c1.1,0,1.8,0.4,1.9,1.3c0,0,0,0.1-0.1,0.1h-1
					c0,0-0.1,0-0.1-0.1c-0.1-0.3-0.3-0.6-0.8-0.6c-0.4,0-0.6,0.1-0.6,0.5c0,0.8,2.7,0,2.7,1.7C155.7,279,154.9,279.5,153.8,279.5z"
					/>
				<path class="st4" d="M157.4,279.5c-0.9,0-1.4-0.6-1.4-1.6v-0.9l0-1.7c0,0,0-0.1,0.1-0.1h1.1c0,0,0.1,0,0.1,0.1l0,1.7v0.8
					c0,0.4,0.3,0.7,0.6,0.7c0.4,0,0.9-0.4,0.9-1.3v-0.3l0-1.7c0,0,0-0.1,0.1-0.1h1.1c0,0,0.1,0,0.1,0.1l0,1.9l0,2.1
					c0,0,0,0.1-0.1,0.1h-1c0,0-0.1,0-0.1-0.1l0-0.4C158.4,279.3,157.9,279.5,157.4,279.5z"/>
				<path class="st4" d="M163.6,279.3C163.6,279.4,163.6,279.4,163.6,279.3l-3.4,0.1c0,0-0.1,0-0.1-0.1v-0.7c0,0,0-0.1,0-0.1
					l1.8-2.4h-1.6c0,0-0.1,0-0.1-0.1v-0.7c0,0,0-0.1,0.1-0.1h3c0,0,0.1,0,0.1,0.1v0.7c0,0,0,0.1,0,0.1l-1.9,2.3h2c0,0,0.1,0,0.1,0.1
					V279.3z"/>
				<path class="st4" d="M167.7,278C167.7,278,167.8,278.1,167.7,278c0,0.8-0.8,1.5-1.9,1.5c-1.4,0-2.1-0.9-2.1-2.1
					c0-1.3,0.8-2.2,2.1-2.2c1.3,0,2.1,0.9,2.1,2.3c0,0,0,0.1-0.1,0.1h-2.9c0,0.8,0.3,1.1,0.9,1.1c0.4,0,0.7-0.2,0.8-0.6
					c0,0,0-0.1,0.1-0.1H167.7z M165.8,276c-0.5,0-0.8,0.3-0.9,0.9h1.7C166.5,276.4,166.3,276,165.8,276z"/>
			</g>
		</g>
	</g>
	<g>
		<g>
			<g>
				<g class="st1">
					<path d="M231.4,308.9v-15.1c0-1.5-1.2-2.8-2.8-2.8h-9.8c-0.9,0-1.6,0.4-2.2,1.1l0,0l-1.3,1.6c-0.2,0.3-0.4,0.6-0.4,1v5.4v2.8
						v5.4c0,0.4,0.1,0.7,0.4,1l1.3,1.6l0,0c0.5,0.6,1.3,1.1,2.2,1.1h9.8C230.1,311.6,231.4,310.4,231.4,308.9z"/>
				</g>
				<g class="st1">
					<path d="M224.5,305.5c0.4-0.2,0.7-0.7,0.7-1.2v-2.6V301v-2.6c0-0.5-0.3-0.9-0.7-1.2l-3.6-2.1c-0.2-0.1-0.5-0.2-0.7-0.2h-3.1
						c-0.8,0-1.4,0.6-1.4,1.4v4.7v0.8v4.7c0,0.8,0.6,1.4,1.4,1.4h3.1c0.2,0,0.5-0.1,0.7-0.2L224.5,305.5z"/>
				</g>
				<g class="st1">
					<path d="M211.8,304.4v-6c0-0.7,0.6-1.3,1.3-1.3h0.6c0.7,0,1.3,0.6,1.3,1.3v6c0,0.7-0.6,1.3-1.3,1.3h-0.6
						C212.4,305.7,211.8,305.1,211.8,304.4z"/>
				</g>
				<g class="st1">
					<path d="M194.1,310.5l17.7-6.2v-2.9v-2.9l-17.7-6.2c-0.5-0.2-0.9-0.5-1.2-0.8l-1.1-1.3c-0.5-0.6-1.3-1-2.2-1h-74.3
						c-1.4,0-2.6,1.2-2.6,2.6v9.6v9.6c0,1.4,1.2,2.6,2.6,2.6h74.3c0.8,0,1.6-0.4,2.2-1l1.1-1.3C193.2,310.9,193.6,310.6,194.1,310.5
						z"/>
				</g>
				<g class="st1">
					<path d="M121.5,291.4h67c0.9,0,1.7,0.4,2.3,1l0.4,0.4c0.6,0.7,1.4,1.2,2.2,1.5l18.4,5.6v2.6l-18.4,5.6
						c-0.9,0.3-1.6,0.8-2.2,1.5l-0.4,0.4c-0.6,0.7-1.4,1-2.3,1h-67c-3.2,0-5.8-2.6-5.8-5.8v-8.3C115.8,294,118.3,291.4,121.5,291.4z
						"/>
				</g>
				<g>
					<path class="st2" d="M173,291.4h-51.5c-3.2,0-5.8,2.6-5.8,5.8v8.3c0,3.2,2.6,5.8,5.8,5.8H173
						C172.9,310.6,173.3,293.9,173,291.4z"/>
				</g>
				<g class="st1">
					<path d="M216.7,305.9v-9.1c0-0.6,0.5-1.1,1.1-1.1h1.6c0.6,0,1.1,0.5,1.1,1.1v9.1c0,0.6-0.5,1.1-1.1,1.1h-1.6
						C217.2,307,216.7,306.5,216.7,305.9z"/>
				</g>
				<g class="st3">
					<path class="st4" d="M123.7,303.6c15.1-4.6,30.8-4.7,46.4-5.2c9.3-0.3,18.5-0.3,27.8-0.2c-2.9-0.9-5.3-1.6-5.3-1.6
						c-1.3-0.4-2.4-1.2-3.2-2.2L189,294c-0.1-0.1-0.3-0.2-0.5-0.2h-67c-1.9,0-3.4,1.5-3.4,3.4v8.3c0,0.4,0.1,0.7,0.2,1
						C119.9,305.2,121.7,304.2,123.7,303.6z"/>
				</g>
			</g>
			<g>
				<path class="st4" d="M124.1,304.8c-1.5,0-2.3-0.8-2.3-2.2l0-1.5l0-1.9c0,0,0-0.1,0.1-0.1h1.1c0,0,0.1,0,0.1,0.1l0,1.9v1.5
					c0,0.8,0.3,1.2,1,1.2c0.8,0,1.1-0.4,1.1-1.2v-1.5l0-1.9c0,0,0-0.1,0.1-0.1h1c0,0,0.1,0,0.1,0.1l0,1.9v1.5
					C126.3,304,125.5,304.8,124.1,304.8z"/>
				<path class="st4" d="M127.9,303.2l0,1.4c0,0,0,0.1-0.1,0.1h-1.1c0,0-0.1,0-0.1-0.1l0-1.4l0-2.6c0,0,0-0.1,0.1-0.1h1
					c0,0,0.1,0,0.1,0.1l0,0.4c0.3-0.4,0.7-0.6,1.2-0.6c0.6,0,1,0.2,1.2,0.8c0.4-0.6,0.8-0.8,1.2-0.8c0.8,0,1.3,0.5,1.3,1.6v1.1
					l0,1.4c0,0,0,0.1-0.1,0.1h-1.1c0,0-0.1,0-0.1-0.1l0-1.4v-1.1c0-0.5-0.2-0.7-0.5-0.7c-0.3,0-0.7,0.4-0.7,1.3v0.6l0,1.4
					c0,0,0,0.1-0.1,0.1h-1.1c0,0-0.1,0-0.1-0.1l0-1.4v-1.1c0-0.5-0.2-0.7-0.5-0.7c-0.3,0-0.7,0.4-0.7,1.3V303.2z"/>
				<path class="st4" d="M133.2,300.2C133.1,300.2,133.1,300.2,133.2,300.2l-0.1-1c0,0,0-0.1,0.1-0.1h1.1c0,0,0.1,0,0.1,0.1v0.9
					c0,0,0,0.1-0.1,0.1H133.2z M133.2,306C133.1,306,133.1,306,133.2,306l0-2.8l0-2.6c0,0,0-0.1,0.1-0.1h1.1c0,0,0.1,0,0.1,0.1
					l0,2.6l0,2.7c0,0,0,0.1-0.1,0.1H133.2z"/>
				<path class="st4" d="M138.6,303.3C138.7,303.3,138.7,303.3,138.6,303.3c0,0.8-0.8,1.5-1.9,1.5c-1.4,0-2.1-0.9-2.1-2.1
					c0-1.3,0.8-2.2,2.1-2.2c1.3,0,2.1,0.9,2.1,2.3c0,0,0,0.1-0.1,0.1h-2.9c0,0.8,0.3,1.1,0.9,1.1c0.4,0,0.7-0.2,0.8-0.6
					c0,0,0-0.1,0.1-0.1H138.6z M136.7,301.3c-0.5,0-0.8,0.3-0.9,0.9h1.7C137.5,301.7,137.2,301.3,136.7,301.3z"/>
				<path class="st4" d="M141.5,304.5C141.5,304.6,141.5,304.6,141.5,304.5c-0.3,0.2-0.6,0.2-0.8,0.2c-0.7,0-1.4-0.4-1.4-1.3l0-2.1
					h-0.5c0,0-0.1,0-0.1-0.1v-0.7c0,0,0-0.1,0.1-0.1h0.5l0-1c0,0,0-0.1,0.1-0.1h1.1c0,0,0.1,0,0.1,0.1l0,1h0.9c0,0,0.1,0,0.1,0.1
					v0.7c0,0,0,0.1-0.1,0.1h-0.9l0,2c0,0.4,0.2,0.5,0.4,0.5c0.2,0,0.3,0,0.5-0.1c0,0,0.1,0,0.1,0.1V304.5z"/>
				<path class="st4" d="M141.8,304.7C141.8,304.7,141.8,304.7,141.8,304.7l0-2l0-2.1c0,0,0-0.1,0.1-0.1h1c0,0,0.1,0,0.1,0.1l0,0.4
					c0.3-0.4,0.7-0.6,1.3-0.6c0.9,0,1.4,0.6,1.4,1.6v0.9l0,1.7c0,0,0,0.1-0.1,0.1h-1.1c0,0-0.1,0-0.1-0.1l0-1.7v-0.8
					c0-0.4-0.3-0.7-0.6-0.7c-0.4,0-0.9,0.4-0.9,1.3v0.3l0,1.7c0,0,0,0.1-0.1,0.1H141.8z"/>
				<path class="st4" d="M149.9,303.3C150,303.3,150,303.3,149.9,303.3c0,0.8-0.8,1.5-1.9,1.5c-1.4,0-2.1-0.9-2.1-2.1
					c0-1.3,0.8-2.2,2.1-2.2c1.3,0,2.1,0.9,2.1,2.3c0,0,0,0.1-0.1,0.1h-2.9c0,0.8,0.3,1.1,0.9,1.1c0.4,0,0.7-0.2,0.8-0.6
					c0,0,0-0.1,0.1-0.1H149.9z M148,301.3c-0.5,0-0.8,0.3-0.9,0.9h1.7C148.8,301.7,148.5,301.3,148,301.3z"/>
				<path class="st4" d="M153.8,304.8c-1.2,0-2-0.5-2-1.4c0,0,0-0.1,0.1-0.1h1c0,0,0.1,0,0.1,0.1c0,0.5,0.3,0.7,0.9,0.7
					c0.5,0,0.7-0.2,0.7-0.5c0-0.8-2.7,0-2.7-1.7c0-0.9,0.7-1.3,1.8-1.3c1.1,0,1.8,0.4,1.9,1.3c0,0,0,0.1-0.1,0.1h-1
					c0,0-0.1,0-0.1-0.1c-0.1-0.3-0.3-0.6-0.8-0.6c-0.4,0-0.6,0.1-0.6,0.5c0,0.8,2.7,0,2.7,1.7C155.7,304.3,154.9,304.8,153.8,304.8z
					"/>
				<path class="st4" d="M157.4,304.8c-0.9,0-1.4-0.6-1.4-1.6v-0.9l0-1.7c0,0,0-0.1,0.1-0.1h1.1c0,0,0.1,0,0.1,0.1l0,1.7v0.8
					c0,0.4,0.3,0.7,0.6,0.7c0.4,0,0.9-0.4,0.9-1.3v-0.3l0-1.7c0,0,0-0.1,0.1-0.1h1.1c0,0,0.1,0,0.1,0.1l0,1.9l0,2.1
					c0,0,0,0.1-0.1,0.1h-1c0,0-0.1,0-0.1-0.1l0-0.4C158.4,304.5,157.9,304.8,157.4,304.8z"/>
				<path class="st4" d="M163.6,304.6C163.6,304.7,163.6,304.7,163.6,304.6l-3.4,0.1c0,0-0.1,0-0.1-0.1v-0.7c0,0,0-0.1,0-0.1
					l1.8-2.4h-1.6c0,0-0.1,0-0.1-0.1v-0.7c0,0,0-0.1,0.1-0.1h3c0,0,0.1,0,0.1,0.1v0.7c0,0,0,0.1,0,0.1l-1.9,2.3h2c0,0,0.1,0,0.1,0.1
					V304.6z"/>
				<path class="st4" d="M167.7,303.3C167.7,303.3,167.8,303.3,167.7,303.3c0,0.8-0.8,1.5-1.9,1.5c-1.4,0-2.1-0.9-2.1-2.1
					c0-1.3,0.8-2.2,2.1-2.2c1.3,0,2.1,0.9,2.1,2.3c0,0,0,0.1-0.1,0.1h-2.9c0,0.8,0.3,1.1,0.9,1.1c0.4,0,0.7-0.2,0.8-0.6
					c0,0,0-0.1,0.1-0.1H167.7z M165.8,301.3c-0.5,0-0.8,0.3-0.9,0.9h1.7C166.5,301.7,166.3,301.3,165.8,301.3z"/>
			</g>
		</g>
	</g>
	<g>
		<g>
			<g>
				<g class="st1">
					<path d="M231.4,334.2v-15.1c0-1.5-1.2-2.8-2.8-2.8h-9.8c-0.9,0-1.6,0.4-2.2,1.1l0,0l-1.3,1.6c-0.2,0.3-0.4,0.6-0.4,1v5.4v2.8
						v5.4c0,0.4,0.1,0.7,0.4,1l1.3,1.6l0,0c0.5,0.6,1.3,1.1,2.2,1.1h9.8C230.1,336.9,231.4,335.7,231.4,334.2z"/>
				</g>
				<g class="st1">
					<path d="M224.5,330.8c0.4-0.2,0.7-0.7,0.7-1.2V327v-0.8v-2.6c0-0.5-0.3-0.9-0.7-1.2l-3.6-2.1c-0.2-0.1-0.5-0.2-0.7-0.2h-3.1
						c-0.8,0-1.4,0.6-1.4,1.4v4.7v0.8v4.7c0,0.8,0.6,1.4,1.4,1.4h3.1c0.2,0,0.5-0.1,0.7-0.2L224.5,330.8z"/>
				</g>
				<g class="st1">
					<path d="M211.8,329.6v-6c0-0.7,0.6-1.3,1.3-1.3h0.6c0.7,0,1.3,0.6,1.3,1.3v6c0,0.7-0.6,1.3-1.3,1.3h-0.6
						C212.4,331,211.8,330.4,211.8,329.6z"/>
				</g>
				<g class="st1">
					<path d="M194.1,335.7l17.7-6.2v-2.9v-2.9l-17.7-6.2c-0.5-0.2-0.9-0.5-1.2-0.8l-1.1-1.3c-0.5-0.6-1.3-1-2.2-1h-74.3
						c-1.4,0-2.6,1.2-2.6,2.6v9.6v9.6c0,1.4,1.2,2.6,2.6,2.6h74.3c0.8,0,1.6-0.4,2.2-1l1.1-1.3C193.2,336.2,193.6,335.9,194.1,335.7
						z"/>
				</g>
				<g class="st1">
					<path d="M121.5,316.7h67c0.9,0,1.7,0.4,2.3,1l0.4,0.4c0.6,0.7,1.4,1.2,2.2,1.5l18.4,5.6v2.6l-18.4,5.6
						c-0.9,0.3-1.6,0.8-2.2,1.5l-0.4,0.4c-0.6,0.7-1.4,1-2.3,1h-67c-3.2,0-5.8-2.6-5.8-5.8v-8.3
						C115.8,319.3,118.3,316.7,121.5,316.7z"/>
				</g>
				<g>
					<path class="st2" d="M173,316.7h-51.5c-3.2,0-5.8,2.6-5.8,5.8v8.3c0,3.2,2.6,5.8,5.8,5.8H173
						C172.9,335.9,173.3,319.2,173,316.7z"/>
				</g>
				<g class="st1">
					<path d="M216.7,331.2V322c0-0.6,0.5-1.1,1.1-1.1h1.6c0.6,0,1.1,0.5,1.1,1.1v9.1c0,0.6-0.5,1.1-1.1,1.1h-1.6
						C217.2,332.3,216.7,331.8,216.7,331.2z"/>
				</g>
				<g class="st3">
					<path class="st4" d="M123.7,328.9c15.1-4.6,30.8-4.7,46.4-5.2c9.3-0.3,18.5-0.3,27.8-0.2c-2.9-0.9-5.3-1.6-5.3-1.6
						c-1.3-0.4-2.4-1.2-3.2-2.2l-0.4-0.4c-0.1-0.1-0.3-0.2-0.5-0.2h-67c-1.9,0-3.4,1.5-3.4,3.4v8.3c0,0.4,0.1,0.7,0.2,1
						C119.9,330.5,121.7,329.5,123.7,328.9z"/>
				</g>
			</g>
			<g>
				<path class="st4" d="M124.1,330.1c-1.5,0-2.3-0.8-2.3-2.2l0-1.5l0-1.9c0,0,0-0.1,0.1-0.1h1.1c0,0,0.1,0,0.1,0.1l0,1.9v1.5
					c0,0.8,0.3,1.2,1,1.2c0.8,0,1.1-0.4,1.1-1.2v-1.5l0-1.9c0,0,0-0.1,0.1-0.1h1c0,0,0.1,0,0.1,0.1l0,1.9v1.5
					C126.3,329.3,125.5,330.1,124.1,330.1z"/>
				<path class="st4" d="M127.9,328.5l0,1.4c0,0,0,0.1-0.1,0.1h-1.1c0,0-0.1,0-0.1-0.1l0-1.4l0-2.6c0,0,0-0.1,0.1-0.1h1
					c0,0,0.1,0,0.1,0.1l0,0.4c0.3-0.4,0.7-0.6,1.2-0.6c0.6,0,1,0.2,1.2,0.8c0.4-0.6,0.8-0.8,1.2-0.8c0.8,0,1.3,0.5,1.3,1.6v1.1
					l0,1.4c0,0,0,0.1-0.1,0.1h-1.1c0,0-0.1,0-0.1-0.1l0-1.4v-1.1c0-0.5-0.2-0.7-0.5-0.7c-0.3,0-0.7,0.4-0.7,1.3v0.6l0,1.4
					c0,0,0,0.1-0.1,0.1h-1.1c0,0-0.1,0-0.1-0.1l0-1.4v-1.1c0-0.5-0.2-0.7-0.5-0.7c-0.3,0-0.7,0.4-0.7,1.3V328.5z"/>
				<path class="st4" d="M133.2,325.5C133.1,325.5,133.1,325.4,133.2,325.5l-0.1-1c0,0,0-0.1,0.1-0.1h1.1c0,0,0.1,0,0.1,0.1v0.9
					c0,0,0,0.1-0.1,0.1H133.2z M133.2,331.3C133.1,331.3,133.1,331.3,133.2,331.3l0-2.8l0-2.6c0,0,0-0.1,0.1-0.1h1.1
					c0,0,0.1,0,0.1,0.1l0,2.6l0,2.7c0,0,0,0.1-0.1,0.1H133.2z"/>
				<path class="st4" d="M138.6,328.6C138.7,328.6,138.7,328.6,138.6,328.6c0,0.8-0.8,1.5-1.9,1.5c-1.4,0-2.1-0.9-2.1-2.1
					c0-1.3,0.8-2.2,2.1-2.2c1.3,0,2.1,0.9,2.1,2.3c0,0,0,0.1-0.1,0.1h-2.9c0,0.8,0.3,1.1,0.9,1.1c0.4,0,0.7-0.2,0.8-0.6
					c0,0,0-0.1,0.1-0.1H138.6z M136.7,326.6c-0.5,0-0.8,0.3-0.9,0.9h1.7C137.5,327,137.2,326.6,136.7,326.6z"/>
				<path class="st4" d="M141.5,329.8C141.5,329.9,141.5,329.9,141.5,329.8c-0.3,0.2-0.6,0.2-0.8,0.2c-0.7,0-1.4-0.4-1.4-1.3l0-2.1
					h-0.5c0,0-0.1,0-0.1-0.1v-0.7c0,0,0-0.1,0.1-0.1h0.5l0-1c0,0,0-0.1,0.1-0.1h1.1c0,0,0.1,0,0.1,0.1l0,1h0.9c0,0,0.1,0,0.1,0.1
					v0.7c0,0,0,0.1-0.1,0.1h-0.9l0,2c0,0.4,0.2,0.5,0.4,0.5c0.2,0,0.3,0,0.5-0.1c0,0,0.1,0,0.1,0.1V329.8z"/>
				<path class="st4" d="M141.8,330C141.8,330,141.8,329.9,141.8,330l0-2l0-2.1c0,0,0-0.1,0.1-0.1h1c0,0,0.1,0,0.1,0.1l0,0.4
					c0.3-0.4,0.7-0.6,1.3-0.6c0.9,0,1.4,0.6,1.4,1.6v0.9l0,1.7c0,0,0,0.1-0.1,0.1h-1.1c0,0-0.1,0-0.1-0.1l0-1.7v-0.8
					c0-0.4-0.3-0.7-0.6-0.7c-0.4,0-0.9,0.4-0.9,1.3v0.3l0,1.7c0,0,0,0.1-0.1,0.1H141.8z"/>
				<path class="st4" d="M149.9,328.6C150,328.6,150,328.6,149.9,328.6c0,0.8-0.8,1.5-1.9,1.5c-1.4,0-2.1-0.9-2.1-2.1
					c0-1.3,0.8-2.2,2.1-2.2c1.3,0,2.1,0.9,2.1,2.3c0,0,0,0.1-0.1,0.1h-2.9c0,0.8,0.3,1.1,0.9,1.1c0.4,0,0.7-0.2,0.8-0.6
					c0,0,0-0.1,0.1-0.1H149.9z M148,326.6c-0.5,0-0.8,0.3-0.9,0.9h1.7C148.8,327,148.5,326.6,148,326.6z"/>
				<path class="st4" d="M153.8,330.1c-1.2,0-2-0.5-2-1.4c0,0,0-0.1,0.1-0.1h1c0,0,0.1,0,0.1,0.1c0,0.5,0.3,0.7,0.9,0.7
					c0.5,0,0.7-0.2,0.7-0.5c0-0.8-2.7,0-2.7-1.7c0-0.9,0.7-1.3,1.8-1.3c1.1,0,1.8,0.4,1.9,1.3c0,0,0,0.1-0.1,0.1h-1
					c0,0-0.1,0-0.1-0.1c-0.1-0.3-0.3-0.6-0.8-0.6c-0.4,0-0.6,0.1-0.6,0.5c0,0.8,2.7,0,2.7,1.7C155.7,329.6,154.9,330.1,153.8,330.1z
					"/>
				<path class="st4" d="M157.4,330.1c-0.9,0-1.4-0.6-1.4-1.6v-0.9l0-1.7c0,0,0-0.1,0.1-0.1h1.1c0,0,0.1,0,0.1,0.1l0,1.7v0.8
					c0,0.4,0.3,0.7,0.6,0.7c0.4,0,0.9-0.4,0.9-1.3v-0.3l0-1.7c0,0,0-0.1,0.1-0.1h1.1c0,0,0.1,0,0.1,0.1l0,1.9l0,2.1
					c0,0,0,0.1-0.1,0.1h-1c0,0-0.1,0-0.1-0.1l0-0.4C158.4,329.8,157.9,330.1,157.4,330.1z"/>
				<path class="st4" d="M163.6,329.9C163.6,329.9,163.6,330,163.6,329.9l-3.4,0.1c0,0-0.1,0-0.1-0.1v-0.7c0,0,0-0.1,0-0.1l1.8-2.4
					h-1.6c0,0-0.1,0-0.1-0.1v-0.7c0,0,0-0.1,0.1-0.1h3c0,0,0.1,0,0.1,0.1v0.7c0,0,0,0.1,0,0.1l-1.9,2.3h2c0,0,0.1,0,0.1,0.1V329.9z"
					/>
				<path class="st4" d="M167.7,328.6C167.7,328.6,167.8,328.6,167.7,328.6c0,0.8-0.8,1.5-1.9,1.5c-1.4,0-2.1-0.9-2.1-2.1
					c0-1.3,0.8-2.2,2.1-2.2c1.3,0,2.1,0.9,2.1,2.3c0,0,0,0.1-0.1,0.1h-2.9c0,0.8,0.3,1.1,0.9,1.1c0.4,0,0.7-0.2,0.8-0.6
					c0,0,0-0.1,0.1-0.1H167.7z M165.8,326.6c-0.5,0-0.8,0.3-0.9,0.9h1.7C166.5,327,166.3,326.6,165.8,326.6z"/>
			</g>
		</g>
	</g>
</g>
<g>
	<g>
		<g>
			<path class="st0" d="M286.8,104.9H249h-0.9v0.9v0.1c0,0.5,0.4,0.9,0.9,0.9h37.8c0.5,0,0.9-0.4,0.9-0.9v-0.1v-0.9H286.8z"/>
			<path class="st5" d="M289.1,90.1h-42.6c-0.9,0-1.7,0.7-1.7,1.7v11.4c0,0.9,0.7,1.7,1.7,1.7h42.6c0.9,0,1.7-0.7,1.7-1.7V91.8
				C290.8,90.9,290.1,90.1,289.1,90.1z"/>
			<path class="st6" d="M300.9,122.6c-0.3-1.1-0.8-2.1-1.5-3c-2-2.6-4.7-5.5-7.5-6.6c-5.4-2.1-6.1-2.6-6.2-3.5v-2.8h-2.6H270h-2.1
				h-2.1h-13.2h-2.6v2.8c-0.1,0.8-0.8,1.4-6.2,3.5c-2.8,1.1-5.5,4-7.5,6.6c-0.7,0.9-1.2,1.9-1.5,3c-0.7,2.4-1.9,7.1-1.9,12.7v80.2
				v3.4v2.1c0,2.4,2,4.4,4.4,4.4h30.6h30.6c2.4,0,4.4-2,4.4-4.4v-2.1v-3.4v-80.2C302.8,129.8,301.6,125,300.9,122.6z"/>
		</g>
		<path class="st7" d="M242.5,221.2v-2.1v-3.4v-80.2c0-5.6,1.2-10.4,1.9-12.7c0.3-1.1,0.8-2.1,1.5-3c2-2.6,4.7-5.5,7.5-6.6
			c5.4-2.1,6.1-2.6,6.2-3.5v-2.8h-1.3h-2.6v2.8c-0.1,0.8-0.8,1.4-6.2,3.5c-2.8,1.1-5.5,4-7.5,6.6c-0.7,0.9-1.2,1.9-1.5,3
			c-0.7,2.4-1.9,7.1-1.9,12.7v80.2v3.4v2.1c0,2.4,2,4.4,4.4,4.4h3.9C244.4,225.6,242.5,223.6,242.5,221.2z"/>
		<g>
			<rect x="280.8" y="90.1" class="st8" width="7.4" height="14.8"/>
			<rect x="247" y="90.1" class="st9" width="1.2" height="14.8"/>
			<rect x="249.7" y="90.1" class="st9" width="2.6" height="14.8"/>
			<rect x="277.1" y="104.9" class="st8" width="7.4" height="1.9"/>
			<rect x="249.9" y="106.8" class="st8" width="35.9" height="1.8"/>
		</g>
		<g>
			<path class="st4" d="M288.2,190.8h-40.7c-5.9,0-10.8-4.8-10.8-10.8v-24.7c0-5.9,4.8-10.8,10.8-10.8h40.7
				c5.9,0,10.8,4.8,10.8,10.8v24.7C298.9,186,294.1,190.8,288.2,190.8z"/>
			<g>
				<g>
					<path class="st5" d="M262.3,169.2L262.3,169.2c-2.8,2.8-3,7.1-0.8,10.2l11-11C269.3,166.2,265,166.4,262.3,169.2z"/>
					<path class="st5" d="M274.2,170.2l-11,11c3.1,2.2,7.4,1.9,10.2-0.8l0,0C276.2,177.6,276.4,173.3,274.2,170.2z"/>
				</g>
			</g>
		</g>
		<path class="st10" d="M300.9,122.6c-0.3-1.1-0.8-2.1-1.5-3c-2-2.6-4.7-5.5-7.5-6.6c-5.4-2.1-6.1-2.6-6.2-3.5v-2.8h-2.6h-4.3v2.8
			c0.1,0.8,0.8,1.4,6.2,3.5c2.8,1.1,5.5,4,7.5,6.6c0.7,0.9,1.2,1.9,1.5,3c0.7,2.4,1.9,7.1,1.9,12.7v80.2v3.4v2.1
			c0,2.4-2,4.4-4.4,4.4h6.9c2.4,0,4.4-2,4.4-4.4v-2.1v-3.4v-80.2C302.8,129.8,301.6,125,300.9,122.6z"/>
	</g>
	<g>
		<path class="st5" d="M257.7,162.2c-2.2,0-3.7-0.9-3.8-2.9c0-0.1,0-0.1,0.1-0.1h1.7c0.1,0,0.1,0,0.1,0.1c0.1,0.9,0.5,1.5,1.9,1.5
			c1.1,0,1.7-0.3,1.7-1.1c0-1.9-5.4-0.4-5.4-3.7c0-1.6,1.2-2.6,3.4-2.6c2,0,3.3,0.8,3.6,2.6c0,0.1,0,0.1-0.1,0.1h-1.7
			c-0.1,0-0.1,0-0.1-0.1c-0.1-0.8-0.7-1.2-1.7-1.2c-0.9,0-1.5,0.3-1.5,1c0,1.8,5.4,0.3,5.4,3.7C261.2,161.2,259.9,162.2,257.7,162.2
			z"/>
		<path class="st5" d="M261.8,155.2c-0.1,0-0.1,0-0.1-0.1v-1.4c0-0.1,0-0.1,0.1-0.1h1.6c0.1,0,0.1,0,0.1,0.1v1.4
			c0,0.1,0,0.1-0.1,0.1H261.8z M261.8,162c-0.1,0-0.1,0-0.1-0.1l0-3l0-3c0-0.1,0-0.1,0.1-0.1h1.6c0.1,0,0.1,0,0.1,0.1l0,3l0,3
			c0,0.1,0,0.1-0.1,0.1H261.8z"/>
		<path class="st5" d="M264.2,162c-0.1,0-0.1,0-0.1-0.1l0-3l0-3c0-0.1,0-0.1,0.1-0.1h1.6c0.1,0,0.1,0,0.1,0.1l0,0.9
			c0.5-0.7,1.3-1.1,2.2-1.1c0.1,0,0.2,0,0.3,0c0.1,0,0.1,0.1,0.1,0.1v1.1c0,0.1,0,0.1-0.1,0.1c-0.1,0-0.2,0-0.2,0
			c-1.3,0-2.2,0.7-2.2,2.1v2.6c0,0.1,0,0.1-0.1,0.1H264.2z"/>
		<path class="st5" d="M270.9,162.1c-1.3,0-2.2-0.9-2.2-2.4v-1.3l0-2.5c0-0.1,0-0.1,0.1-0.1h1.6c0.1,0,0.1,0,0.1,0.1l0,2.5v1.3
			c0,0.7,0.4,1.1,0.9,1.1c0.6,0,1.3-0.6,1.3-1.9v-0.5l0-2.5c0-0.1,0-0.1,0.1-0.1h1.6c0.1,0,0.1,0,0.1,0.1l0,2.9l0,3.1
			c0,0.1,0,0.1-0.1,0.1h-1.5c-0.1,0-0.1,0-0.1-0.1l0-0.7C272.5,161.8,271.7,162.1,270.9,162.1z"/>
		<path class="st5" d="M278.7,162.1c-0.7,0-1.3-0.3-1.8-0.8l0,2.6c0,0.1,0,0.1-0.1,0.1h-1.6c-0.1,0-0.1,0-0.1-0.1l0-4.4l0-3.6
			c0-0.1,0-0.1,0.1-0.1h1.6c0.1,0,0.1,0,0.1,0.1l0,0.6c0.4-0.5,1-0.8,1.8-0.8c1.8,0,2.7,1.4,2.7,3.2
			C281.4,160.7,280.4,162.1,278.7,162.1z M278.2,160.9c0.9,0,1.4-0.7,1.4-1.9c0-1.4-0.5-2.1-1.3-2.1c-0.9,0-1.3,0.7-1.4,1.9
			C276.9,160.2,277.4,160.9,278.2,160.9z"/>
	</g>
</g>
<g>
	<path class="st11" d="M189.9,160.6v48.5c0,3.4-2.8,6.2-6.2,6.2h-81.1c-3.4,0-6.2-2.8-6.2-6.2v-48.5c0-3.4,2.8-6.2,6.2-6.2h81.1
		C187.1,154.4,189.9,157.2,189.9,160.6z"/>
	<g>
		<g>
			<g>
				<circle class="st12" cx="112" cy="171.7" r="6.9"/>
				<path class="st9" d="M107.7,175.8l0.2,0.2c0.2,0.2,0.7,0.2,0.9,0l7.5-7.5c0.2-0.2,0.2-0.7,0-0.9l-0.2-0.2
					c-0.2-0.2-0.7-0.2-0.9,0l-7.5,7.5C107.4,175.1,107.4,175.5,107.7,175.8z"/>
				<circle class="st13" cx="112" cy="171.7" r="8.6"/>
			</g>
			<g>
				<circle class="st12" cx="132.8" cy="171.7" r="6.9"/>
				<path class="st9" d="M128.5,175.8l0.2,0.2c0.2,0.2,0.7,0.2,0.9,0l7.5-7.5c0.2-0.2,0.2-0.7,0-0.9l-0.2-0.2
					c-0.2-0.2-0.7-0.2-0.9,0l-7.5,7.5C128.3,175.1,128.3,175.5,128.5,175.8z"/>
				<circle class="st13" cx="132.8" cy="171.7" r="8.6"/>
			</g>
			<g>
				<circle class="st12" cx="153.7" cy="171.7" r="6.9"/>
				<path class="st9" d="M149.4,175.8l0.2,0.2c0.2,0.2,0.7,0.2,0.9,0l7.5-7.5c0.2-0.2,0.2-0.7,0-0.9l-0.2-0.2
					c-0.2-0.2-0.7-0.2-0.9,0l-7.5,7.5C149.1,175.1,149.1,175.5,149.4,175.8z"/>
				<circle class="st13" cx="153.7" cy="171.7" r="8.6"/>
			</g>
			<g>
				<circle class="st12" cx="174.6" cy="171.7" r="6.9"/>
				<path class="st9" d="M170.3,175.8l0.2,0.2c0.2,0.2,0.7,0.2,0.9,0l7.5-7.5c0.2-0.2,0.2-0.7,0-0.9l-0.2-0.2
					c-0.2-0.2-0.7-0.2-0.9,0l-7.5,7.5C170,175.1,170,175.5,170.3,175.8z"/>
				<circle class="st13" cx="174.6" cy="171.7" r="8.6"/>
			</g>
			<g>
				<circle class="st12" cx="112" cy="198.1" r="6.9"/>
				<path class="st9" d="M107.7,202.2l0.2,0.2c0.2,0.2,0.7,0.2,0.9,0l7.5-7.5c0.2-0.2,0.2-0.7,0-0.9l-0.2-0.2
					c-0.2-0.2-0.7-0.2-0.9,0l-7.5,7.5C107.4,201.6,107.4,202,107.7,202.2z"/>
				<circle class="st13" cx="112" cy="198.1" r="8.6"/>
			</g>
			<g>
				<circle class="st12" cx="132.8" cy="198.1" r="6.9"/>
				<path class="st9" d="M128.5,202.2l0.2,0.2c0.2,0.2,0.7,0.2,0.9,0l7.5-7.5c0.2-0.2,0.2-0.7,0-0.9l-0.2-0.2
					c-0.2-0.2-0.7-0.2-0.9,0l-7.5,7.5C128.3,201.6,128.3,202,128.5,202.2z"/>
				<circle class="st13" cx="132.8" cy="198.1" r="8.6"/>
			</g>
			<g>
				<circle class="st12" cx="153.7" cy="198.1" r="6.9"/>
				<path class="st9" d="M149.4,202.2l0.2,0.2c0.2,0.2,0.7,0.2,0.9,0l7.5-7.5c0.2-0.2,0.2-0.7,0-0.9l-0.2-0.2
					c-0.2-0.2-0.7-0.2-0.9,0l-7.5,7.5C149.1,201.6,149.1,202,149.4,202.2z"/>
				<circle class="st13" cx="153.7" cy="198.1" r="8.6"/>
			</g>
			<g>
				<circle class="st12" cx="174.6" cy="198.1" r="6.9"/>
				<path class="st9" d="M170.3,202.2l0.2,0.2c0.2,0.2,0.7,0.2,0.9,0l7.5-7.5c0.2-0.2,0.2-0.7,0-0.9l-0.2-0.2
					c-0.2-0.2-0.7-0.2-0.9,0l-7.5,7.5C170,201.6,170,202,170.3,202.2z"/>
				<circle class="st13" cx="174.6" cy="198.1" r="8.6"/>
			</g>
		</g>
	</g>
</g>
<g>
	<g>
		<path class="st11" d="M30.6,191c-8.3,0-15,11.2-15,25v54.2h30.1v-54.2C45.6,202.2,38.9,191,30.6,191z"/>
		<rect x="15.5" y="222.9" class="st5" width="30.1" height="32"/>
	</g>
	<path class="st11" d="M51.2,176.8h-13c-1.1,0-2-0.9-2-2V172c0-1.1,0.9-2,2-2h13c1.1,0,2,0.9,2,2v2.8
		C53.2,175.9,52.3,176.8,51.2,176.8z"/>
	<g>
		<path class="st11" d="M36.5,192.8H24.7c-0.7,0-1.2-0.5-1.2-1.2v-23.8c0-0.7,0.5-1.2,1.2-1.2h11.8c0.7,0,1.2,0.5,1.2,1.2v23.8
			C37.7,192.2,37.2,192.8,36.5,192.8z"/>
		<path class="st14" d="M37.1,167v23.7h0.6c0,0,0-0.1,0-0.1v-21.7C37.7,168.1,37.5,167.4,37.1,167z"/>
		<rect x="32.5" y="166.6" class="st15" width="3.2" height="26.2"/>
	</g>
	<g>
		<path class="st5" d="M38.4,196.7H22.7c-0.9,0-1.6-0.7-1.6-1.6v-3.3c0-0.9,0.7-1.6,1.6-1.6h15.6c0.9,0,1.6,0.7,1.6,1.6v3.3
			C40,196,39.3,196.7,38.4,196.7z"/>
		<path class="st11" d="M32.5,196.7h5.9c0.2,0,0.4,0,0.5-0.1v-6.3c-0.2,0-0.3-0.1-0.5-0.1h-5.9V196.7z"/>
		<path class="st16" d="M22.2,196.6c0.2,0,0.4,0.1,0.6,0.1h0.7v-6.4h-0.7c-0.2,0-0.4,0-0.6,0.1V196.6z"/>
	</g>
	<g>
		<path class="st11" d="M41,199.8H20.2c-0.7,0-1.3-0.6-1.3-1.3v-2c0-0.7,0.6-1.3,1.3-1.3H41c0.7,0,1.3,0.6,1.3,1.3v2
			C42.2,199.2,41.7,199.8,41,199.8z"/>
		<rect x="31.8" y="195.3" class="st17" width="8.2" height="4"/>
	</g>
	<rect x="49.6" y="172.4" class="st11" width="1.9" height="32.1"/>
	<path class="st11" d="M51.4,209.9h-1.6c-0.4,0-0.8-0.4-0.8-0.8v-7.2c0-0.4,0.4-0.8,0.8-0.8h1.6c0.4,0,0.8,0.4,0.8,0.8v7.2
		C52.2,209.5,51.8,209.9,51.4,209.9z"/>
	<path class="st17" d="M39.8,203.3c0.6,0,1.2,0.3,1.5,0.9c0.7,1.3,1.7,4.4,1.7,10.2V266c0,0.9-0.8,1.7-1.7,1.7h-4.7
		c-0.9,0-1.7-0.8-1.7-1.7v-52c0,0,0.3-4.8-1-8.3c-0.4-1.1,0.4-2.3,1.6-2.3H39.8z"/>
</g>
<g>
	<g>
		<path class="st0" d="M179.2,119.1H3.3c-1.8,0-3.3-1.5-3.3-3.3V11.4c0-1.8,1.5-3.3,3.3-3.3h176c1.8,0,3.3,1.5,3.3,3.3v104.4
			C182.5,117.6,181,119.1,179.2,119.1z"/>
		<path class="st18" d="M0,64.3l156.8,0c11.5,0,20.4-2.4,25.6-8.3v24c-7.7,6.5-16.5,8.3-25.6,8.3L0,88.3V64.3z"/>
		<path class="st5" d="M0,68.5l156.8,0c11.5,0,20.4-2.4,25.6-8.3v24c-7.7,6.5-16.5,8.3-25.6,8.3H0V68.5z"/>
		<g>
			<g>
				
					<ellipse transform="matrix(0.4849 -0.8746 0.8746 0.4849 -50.3476 79.9292)" class="st11" cx="42.7" cy="82.7" rx="15.9" ry="15.9"/>
			</g>
			<g>
				<path class="st18" d="M58.5,83.1c-3,11.5-20.3,14-30.3,6c0,0-0.1-0.1-0.1-0.1c1.7,3.9,4.9,7.1,9.1,8.6c8.2,3,17.3-1.3,20.3-9.5
					C58.2,86.4,58.5,84.8,58.5,83.1z"/>
			</g>
		</g>
		<g>
			<g>
				<path class="st19" d="M20.7,32.4c0.1,0.1,0.2,0.3,0.2,0.4c0,0.3-0.3,0.6-0.6,0.6h-1.4v-2h1.4c0.3,0,0.6,0.3,0.6,0.6
					C20.8,32.2,20.8,32.3,20.7,32.4L20.7,32.4z M19.4,33h0.8c0.1,0,0.2-0.1,0.2-0.2s-0.1-0.2-0.2-0.2h-0.8V33L19.4,33z M19.4,32.2
					h0.8c0.1,0,0.2-0.1,0.2-0.2c0-0.1-0.1-0.2-0.2-0.2h-0.8V32.2L19.4,32.2z M19.8,34.3L19.5,35h0.7L19.8,34.3L19.8,34.3z M21,35.8
					h-0.5l-0.2-0.3h-1.1l-0.2,0.3h-0.5l1-2h0.5L21,35.8L21,35.8z M20.5,36.2H21l-1,1.3v0.7h-0.5v-0.7l-1-1.3h0.6l0.7,0.9L20.5,36.2
					L20.5,36.2z M23.1,36.2v0.4h-1.3V37h1.3v0.4h-1.3v0.4h1.3v0.4h-1.8v-2H23.1L23.1,36.2z M25,36.6h-0.7V37H25
					c0.1,0,0.2-0.1,0.2-0.2C25.1,36.7,25.1,36.6,25,36.6L25,36.6z M24.6,37.5h-0.3v0.8h-0.5v-2H25c0.4,0,0.6,0.3,0.6,0.6
					c0,0.3-0.2,0.5-0.4,0.6l0.6,0.8h-0.6L24.6,37.5L24.6,37.5z M17.6,36.7l-0.3,0.7h0.7L17.6,36.7L17.6,36.7z M18.8,38.2h-0.5
					l-0.2-0.3H17l-0.2,0.3h-0.5l1-2h0.5L18.8,38.2L18.8,38.2z M15.9,37.2c0.1,0.1,0.2,0.3,0.2,0.4c0,0.3-0.3,0.6-0.6,0.6h-1.4v-2
					h1.3c0.3,0,0.6,0.3,0.6,0.6C16,37,16,37.1,15.9,37.2L15.9,37.2z M14.6,37.8h0.9c0.1,0,0.2-0.1,0.2-0.2c0-0.1-0.1-0.2-0.2-0.2
					h-0.9V37.8L14.6,37.8z M14.6,37h0.8c0.1,0,0.2-0.1,0.2-0.2c0-0.1-0.1-0.2-0.2-0.2h-0.8V37L14.6,37z M20.7,38.6v0.4h-1.3v0.3h1.3
					v0.4h-1.3v0.4h1.3v0.4h-1.8v-2H20.7L20.7,38.6z M18.9,43.1v-2h1.3c0.4,0,0.6,0.3,0.6,0.6c0,0.3-0.2,0.5-0.4,0.6l0.6,0.8h-0.6
					l-0.6-0.8h-0.5v0.8H18.9L18.9,43.1z M20.4,41.7c0-0.1-0.1-0.2-0.2-0.2h-0.8v0.4h0.8C20.3,41.9,20.4,41.8,20.4,41.7L20.4,41.7z
					 M26.9,37.2c0,3.9-3.2,7.1-7.1,7.1c-3.9,0-7.1-3.2-7.1-7.1s3.2-7.1,7.1-7.1C23.7,30.1,26.9,33.3,26.9,37.2L26.9,37.2z
					 M13.4,37.2c0-3.6,2.9-6.5,6.5-6.5c3.6,0,6.4,2.9,6.4,6.5s-2.9,6.4-6.4,6.4C16.3,43.6,13.4,40.8,13.4,37.2L13.4,37.2z"/>
				<path class="st19" d="M122.1,34.7c0.2,0.1,0.3,0.4,0.3,0.7c0,1.9,0,3.7,0,5.5c0,1,0,1.8,0.5,2.7c0.9,1.5,2.6,1.9,4.5,1.7
					c1-0.2,1.8-0.7,2.4-1.7c0.3-0.4,0.4-1,0.4-1.7c0-2.2,0-4.3,0.1-6.5c0-0.3,0.1-0.4,0.3-0.6c-0.6,0-1.1,0-1.7,0
					c0.2,0.2,0.3,0.4,0.4,0.7c0,2,0,4.1,0,6.1c0,0.6,0,1.1-0.2,1.6c-0.7,1.4-2.4,1.9-3.8,0.9c-0.5-0.3-0.7-0.9-0.8-1.6
					c0-2.3,0-4.6-0.1-6.9c0-0.4,0.2-0.5,0.4-0.8C124,34.7,123.1,34.7,122.1,34.7L122.1,34.7z M137.3,37.3c0-0.7,0-1.5,0-2.2
					c-1.7-0.8-3.8-0.9-5.2,0.6c-1,1.1-0.7,2.9,0.4,3.8c0.5,0.4,1.1,0.7,1.7,1c0.5,0.3,1.1,0.6,1.6,1c0.6,0.6,0.7,1.7,0.1,2.4
					c-0.6,0.7-1.8,0.8-2.8,0.4c-0.6-0.4-1.2-1.1-1.6-2.2c0,0.8,0,1.7,0,2.5c0.5,0.3,1,0.5,1.5,0.6h0c0.9,0.2,1.6,0.2,2.3,0.1
					c1.3-0.2,2-1.1,2.5-2.1c0.3-0.9,0.3-1.8-0.2-2.7c-0.4-0.5-1-1-1.8-1.4c-0.8-0.3-1.7-0.6-2.4-1.3c-0.3-0.3-0.5-0.8-0.5-1.4
					c0.4-1.3,1.9-1.5,2.9-0.8C136.7,36,137,36.6,137.3,37.3L137.3,37.3z M115.2,34.6c0.9,0,1.8,0,2.7,0c-0.2,0.2-0.4,0.4-0.3,0.7
					v9.1h3.3c0.5,0,1-0.3,1.3-0.7l-0.3,1.6l-4.3,0l0,0l-2.3,0c0.2-0.1,0.4-0.3,0.3-0.8c0-3.1,0-6.2,0-9.4
					C115.5,34.8,115.4,34.7,115.2,34.6L115.2,34.6z M109.7,35.3c0,1.5,0,3,0,4.5c0.8,0.1,1.6,0,2.3-0.4c0.5-0.6,0.9-1.3,0.7-2.5
					c-0.2-0.6-0.5-1.1-1.3-1.4C110.9,35.3,110.3,35.2,109.7,35.3L109.7,35.3z M107.4,34.6c0.2,0.1,0.3,0.3,0.3,0.6
					c0,3.2,0,6.3,0,9.5c0,0.3-0.2,0.4-0.4,0.6c0.9,0,1.8,0,2.8,0c-0.2-0.1-0.4-0.3-0.4-0.6c0-1.4,0-2.8,0-4.1c0.9,0.3,1.8,0.3,2.8,0
					c0.6-0.2,1.2-0.6,1.8-1.3c0.4-0.6,0.5-1.4,0.4-2.4c-0.3-1.1-1.2-1.7-2.4-2c-0.5,0-1-0.1-1.4-0.1
					C109.7,34.6,108.5,34.6,107.4,34.6L107.4,34.6z M88.9,29.5c0.7,0.3,1.1,0.8,1.2,1.5c0,4.5,0,9,0.1,13.5
					c-0.1,0.4-0.3,0.6-0.5,0.7c0.7,0,1.5,0,2.3,0c-0.3-0.1-0.5-0.4-0.6-0.7l0.1-11.8l11.1,13.2c0-5.2,0-10.5,0-15.7
					c0-0.3,0.2-0.5,0.5-0.7c-0.8,0-1.6,0-2.4-0.1c0.3,0.3,0.5,0.6,0.5,1l-0.1,9.2l-8.4-10.2C91.5,29.5,90.2,29.5,88.9,29.5
					L88.9,29.5z M85.9,25.5c0.8,0,1.5,0.7,1.5,1.5c0,0.8-0.7,1.5-1.5,1.5c-0.8,0-1.5-0.7-1.5-1.5C84.4,26.2,85.1,25.5,85.9,25.5
					L85.9,25.5z M84,29.4c1.3,0,2.6,0,4,0.1c-0.4,0.2-0.6,0.5-0.5,1c0,4.6,0,9.3,0,13.9c0,0.4,0.2,0.7,0.5,0.8c-1.3,0-2.7,0-4,0
					c0.3-0.2,0.5-0.4,0.5-1.1c0-4.6,0-9.3,0.1-13.9C84.4,29.8,84.2,29.6,84,29.4L84,29.4z M74.4,30.5c0,2.2,0,4-0.1,6.2
					c1.2,0.2,2.4,0,3.4-0.7c0.8-0.8,1.3-1.5,1-3.3c-0.3-0.9-0.7-1.7-2-2.1C76.1,30.5,75.3,30.5,74.4,30.5L74.4,30.5z M70.9,29.5
					c0.3,0.2,0.4,0.5,0.5,0.8c0,4.7,0,9.4,0,14.1c-0.1,0.4-0.3,0.6-0.5,0.8c1.4,0,2.7,0,4.1-0.1c-0.3-0.1-0.6-0.4-0.6-0.9l0-6.3l1,0
					c0.8,0,1.4,0.3,1.7,1.1c1.1,2.4,2.2,4.7,3.3,7.1c0.7,1.3,1.5,1.7,2.3,1.7c1,0,2-0.1,3-0.1c-1.1-0.7-2-1.5-2.5-2.7
					c-0.9-2-1.8-4-2.7-6c-0.5-0.7-1.1-1.3-2.2-1.8c2.2-0.8,3.8-1.8,3.5-4.7c-0.4-1.7-1.8-2.5-3.6-2.9c-0.7-0.1-1.4-0.1-2.1-0.2
					C74.3,29.5,72.6,29.5,70.9,29.5L70.9,29.5z M67.1,25.5c0.8,0,1.5,0.7,1.5,1.5c0,0.8-0.7,1.5-1.5,1.5c-0.8,0-1.5-0.7-1.5-1.5
					C65.7,26.2,66.3,25.5,67.1,25.5L67.1,25.5z M65.3,29.4c1.3,0,2.6,0,4,0.1c-0.4,0.2-0.6,0.5-0.5,1c0,4.6,0,9.3,0,13.9
					c0,0.4,0.2,0.7,0.5,0.8c-1.3,0-2.7,0-4,0c0.3-0.2,0.5-0.4,0.5-1.1c0-4.6,0-9.3,0.1-13.9C65.7,29.8,65.5,29.6,65.3,29.4
					L65.3,29.4z M56.9,30.5c0,2.2,0,4.4-0.1,6.7c1.2,0.2,2.4,0,3.4-0.7c0.8-0.8,1.3-1.9,1-3.7c-0.3-0.9-0.7-1.7-2-2.1
					C58.6,30.5,57.8,30.5,56.9,30.5L56.9,30.5z M53.4,29.5c0.3,0.2,0.4,0.5,0.5,0.8c0,4.7,0,9.4,0,14.1c-0.1,0.4-0.3,0.6-0.5,0.8
					c1.4,0,2.7,0,4.1-0.1c-0.3-0.1-0.6-0.4-0.6-0.9c0-2.1,0-4.1,0-6.2c1.4,0.4,2.7,0.5,4.1,0c0.9-0.3,1.8-0.9,2.6-2
					c0.6-0.9,0.8-2.1,0.6-3.6c-0.4-1.7-1.8-2.5-3.6-2.9c-0.7-0.1-1.3-0.2-2.1-0.2C56.8,29.5,55.1,29.5,53.4,29.5L53.4,29.5z
					 M51,33.4c0-1.1,0-2.2,0-3.3c-2.6-1.2-6.8-1.1-8.2,1.5c-0.3,0.6-0.5,1.3-0.4,2.2c0,1.9,1.1,2.8,2.3,3.6c1.2,0.6,2.3,1.2,3.5,1.8
					c0.9,0.8,1.6,1.6,1.3,2.7c-0.1,0.8-0.3,1.5-1.6,2.2c-1.1,0.3-2.1,0.2-3-0.2c-0.9-0.4-1.9-1.1-2.6-2.7c-1.8-4.1-3.6-8.2-5.4-12.3
					c-2.2,5.1-4.4,10.2-6.6,15.3c-0.3,0.5-0.6,0.8-1,1c1,0,2,0,3,0c-0.2-0.2-0.5-0.3-0.5-0.8c0.5-1.2,1-2.3,1.4-3.5H39l1.4,3.4
					c-0.1,0.5-0.3,0.7-0.5,0.9c1.6,0,3.2,0,4.9,0c1.3,0.3,2.5,0.3,3.6,0.1c1.9-0.4,3-1.6,3.8-3.1c0.6-1.8,0.3-3.6-1.1-4.9
					c-0.5-0.5-1.1-0.9-2-1.2c-1.2-0.5-2.5-1-3.5-1.9C44,32.8,45,31,46.7,30.4c1.1-0.2,1.8,0.1,2.4,0.5C50.1,31.6,50.6,32.5,51,33.4
					L51,33.4z M36.1,34.1l2.3,5.5L36.1,34.1L36.1,34.1z M33.9,39.5l2.2-5.4l2.3,5.4H33.9L33.9,39.5z"/>
			</g>
			<g>
				<g>
					<path class="st5" d="M169.8,37.2C169.8,37.2,169.8,37.2,169.8,37.2c0.1-7.5-5.6-13.9-13.1-14.6c-8-0.7-15,5.1-15.8,13.1
						c-0.7,7.5,4.4,14.1,11.5,15.6c0.1,0,0.1,0,0.2,0c0.1,0,0.3,0,0.4,0.1c0.1,0,0.2,0,0.3,0c0,0,0.1,0,0.1,0c0.1,0,0.2,0,0.2,0
						c0,0,0.1,0,0.1,0c0.1,0,0.1,0,0.2,0c8,0.7,15-5.1,15.8-13.1c0-0.2,0-0.5,0-0.7c0-0.1,0-0.2,0-0.3
						C169.8,37.4,169.8,37.3,169.8,37.2z M148.2,32.9c2.9-4.4,8.4-4.5,12.8-2.6c0,1.1,0.1,2.1,0.1,3.2c-1.2-1.8-2.7-3.3-5.4-3.2
						c-1.2,0.2-2.4,0.6-3.5,1.3c-2.4,1.8-2.7,5.4-1.8,8c0.9,2,2.3,3.3,4.2,3.8c1.5,0.4,2.6,0.2,3.9-0.5c1.2-0.6,2-1.6,2.6-2.7
						c0,1,0,2-0.1,3c-2.7,1.6-4.8,1.9-7.7,1.4C147.9,43.6,145.1,37.6,148.2,32.9z"/>
				</g>
				<g>
					<path class="st20" d="M169.5,33.8c-0.1,10.8-14.8,17-25.4,12.2c0,0-0.1,0-0.1-0.1c2.4,3,5.9,5.1,10.1,5.5
						c8,0.7,15-5.1,15.8-13.1C169.9,36.8,169.8,35.3,169.5,33.8z"/>
				</g>
			</g>
		</g>
		<g>
			<g>
				
					<ellipse transform="matrix(0.7144 -0.6998 0.6998 0.7144 -62.9745 42.8338)" class="st11" cx="21" cy="98.6" rx="15.9" ry="15.9"/>
			</g>
			<g>
				<path class="st18" d="M36,103.5c-6.2,10.1-23.5,7.6-30.7-2.9c0,0,0-0.1-0.1-0.1c0.5,4.2,2.7,8.2,6.3,10.9c7,5.2,17,3.7,22.2-3.3
					C34.8,106.6,35.5,105.1,36,103.5z"/>
			</g>
		</g>
		<g>
			<path class="st21" d="M22.6,91.1c0.1-0.2,0.2-0.4,0.2-0.6c0-0.5-0.4-1-0.9-1h-2.2v3.2H22c0.5,0,1-0.5,1-1
				C22.9,91.6,22.8,91.3,22.6,91.1z M20.5,90.3h1.3c0.2,0,0.3,0.1,0.3,0.2c0,0.2-0.1,0.3-0.3,0.3h-1.3V90.3z M21.9,92.1h-1.4v-0.6
				h1.4c0.2,0,0.3,0.2,0.3,0.3C22.2,92,22,92.1,21.9,92.1z"/>
			<path class="st21" d="M21.6,93.5h-0.8l-1.6,3.2H20l0.3-0.5h1.8l0.3,0.5h0.8L21.6,93.5z M20.6,95.5l0.6-1.2l0.5,1.2H20.6z"/>
			<polygon class="st21" points="22.3,97.4 23.2,97.4 21.6,99.5 21.6,100.7 20.8,100.7 20.8,99.5 19.2,97.4 20.1,97.4 21.2,98.9 
				22.3,97.4 			"/>
			<polygon class="st21" points="26.6,97.4 26.6,98.1 24.4,98.1 24.4,98.6 26.5,98.6 26.5,99.3 24.4,99.3 24.4,99.9 26.6,99.9 
				26.6,100.7 23.6,100.7 23.6,97.4 26.6,97.4 			"/>
			<path class="st21" d="M29.9,99.4c0.4-0.1,0.7-0.5,0.7-1c0-0.5-0.4-1-1-1h-2v3.2h0.8v-1.2H29l1,1.2h0.9L29.9,99.4z M29.6,98.7
				h-1.1v-0.6h1.1c0.2,0,0.3,0.2,0.3,0.3S29.8,98.7,29.6,98.7z"/>
			<path class="st21" d="M17.9,97.4h-0.7l-1.6,3.2h0.8l0.2-0.5h1.8l0.2,0.5h0.8L17.9,97.4z M16.9,99.4l0.5-1.2l0.6,1.2H16.9z"/>
			<path class="st21" d="M14.8,99c0.1-0.2,0.2-0.4,0.2-0.6c0-0.5-0.4-0.9-1-0.9h-2.2v3.2h2.2c0.5,0,1-0.5,1-1
				C15.1,99.4,15,99.1,14.8,99z M12.6,98.1H14c0.2,0,0.2,0.1,0.2,0.3c0,0.2-0.1,0.2-0.2,0.2h-1.4V98.1z M14,99.9h-1.4v-0.6H14
				c0.2,0,0.3,0.1,0.3,0.3C14.3,99.8,14.2,99.9,14,99.9z"/>
			<polygon class="st21" points="22.6,101.3 22.6,102 20.5,102 20.5,102.6 22.6,102.6 22.6,103.3 20.5,103.3 20.5,103.9 22.6,103.9 
				22.6,104.6 19.7,104.6 19.7,101.3 22.6,101.3 			"/>
			<path class="st21" d="M22.2,107.3c0.4-0.2,0.6-0.5,0.6-1c0-0.5-0.4-1-1-1h-2.2v3.2h0.8v-1.2h0.9l0.9,1.2h1L22.2,107.3z
				 M21.8,106.7h-1.3v-0.6h1.3c0.2,0,0.3,0.1,0.3,0.3C22.1,106.5,21.9,106.6,21.8,106.7z"/>
		</g>
		<g>
			<path class="st21" d="M44.3,74.9c0.1-0.2,0.2-0.4,0.2-0.6c0-0.5-0.4-1-0.9-1h-2.2v3.2h2.3c0.5,0,1-0.5,1-1
				C44.6,75.4,44.4,75.1,44.3,74.9z M42.1,74.1h1.3c0.2,0,0.3,0.1,0.3,0.2c0,0.2-0.1,0.3-0.3,0.3h-1.3V74.1z M43.5,75.9h-1.4v-0.6
				h1.4c0.2,0,0.3,0.2,0.3,0.3C43.8,75.8,43.6,75.9,43.5,75.9z"/>
			<path class="st21" d="M43.2,77.2h-0.8l-1.6,3.2h0.8l0.3-0.5h1.8l0.3,0.5h0.8L43.2,77.2z M42.2,79.2l0.6-1.2l0.5,1.2H42.2z"/>
			<polygon class="st21" points="43.9,81.2 44.8,81.2 43.2,83.3 43.2,84.4 42.4,84.4 42.4,83.3 40.8,81.2 41.7,81.2 42.8,82.6 
				43.9,81.2 			"/>
			<polygon class="st21" points="48.2,81.2 48.2,81.9 46.1,81.9 46.1,82.4 48.1,82.4 48.1,83.1 46.1,83.1 46.1,83.7 48.2,83.7 
				48.2,84.4 45.3,84.4 45.3,81.2 48.2,81.2 			"/>
			<path class="st21" d="M51.5,83.1c0.4-0.1,0.7-0.5,0.7-1c0-0.5-0.4-1-1-1h-2v3.2h0.8v-1.2h0.5l1,1.2h0.9L51.5,83.1z M51.2,82.5
				h-1.1v-0.6h1.1c0.2,0,0.3,0.2,0.3,0.3C51.5,82.4,51.4,82.5,51.2,82.5z"/>
			<path class="st21" d="M39.5,81.2h-0.7l-1.6,3.2h0.8l0.2-0.5H40l0.2,0.5h0.8L39.5,81.2z M38.6,83.2l0.5-1.2l0.6,1.2H38.6z"/>
			<path class="st21" d="M36.4,82.7c0.1-0.2,0.2-0.4,0.2-0.6c0-0.5-0.4-0.9-1-0.9h-2.2v3.2h2.2c0.5,0,1-0.5,1-1
				C36.7,83.1,36.6,82.9,36.4,82.7z M34.2,81.9h1.4c0.2,0,0.2,0.1,0.2,0.3c0,0.2-0.1,0.2-0.2,0.2h-1.4V81.9z M35.6,83.7h-1.4v-0.6
				h1.4c0.2,0,0.3,0.1,0.3,0.3C35.9,83.6,35.8,83.7,35.6,83.7z"/>
			<polygon class="st21" points="44.3,85.1 44.3,85.8 42.1,85.8 42.1,86.3 44.2,86.3 44.2,87 42.1,87 42.1,87.7 44.3,87.7 
				44.3,88.3 41.3,88.3 41.3,85.1 44.3,85.1 			"/>
			<path class="st21" d="M43.9,91.1c0.4-0.2,0.6-0.5,0.6-1c0-0.5-0.4-1-1-1h-2.2v3.2h0.8v-1.2H43l0.9,1.2h1L43.9,91.1z M43.4,90.5
				h-1.3v-0.6h1.3c0.2,0,0.3,0.1,0.3,0.3C43.7,90.3,43.6,90.4,43.4,90.5z"/>
		</g>
	</g>
	<g>
		<path class="st1" d="M182.5,119.1H3.2c-1.8,0-3.2-1.4-3.2-3.2L182.5,8.1V119.1z"/>
	</g>
</g>
<g>
	<path class="st19" d="M185.1,133.7L185.1,133.7c-10.8,0-19.5-8.7-19.5-19.5v0c0-10.8,8.7-19.5,19.5-19.5h0
		c10.8,0,19.5,8.7,19.5,19.5v0C204.6,124.9,195.9,133.7,185.1,133.7z"/>
	<g>
		<path class="st22" d="M178.8,102.2c1.7,0,3.1,1.4,3.1,3.1c0,1.7-1.4,3.1-3.1,3.1c-1.7,0-3.1-1.4-3.1-3.1
			C175.8,103.6,177.1,102.2,178.8,102.2L178.8,102.2z M194.4,105.3c0,1.7-1.4,3-3.1,3c-1.7,0-3-1.3-3.1-3l0,0c0,0,0,0,0,0
			c0,0,0,0,0,0c-0.4,0.4-0.8,0.7-1.2,1c0,0,0,0,0,0c-0.6-0.8-0.9-1.8-0.9-2.8c0,0,0,0,0,0c0.5,0,1,0,1.5,0.1c0,0,0,0,0,0
			c-0.2-0.5-0.4-1-0.5-1.4c0,0,0,0,0,0c1-0.3,2-0.3,3,0c0,0,0,0,0,0c-0.1,0.2-0.1,0.4-0.2,0.5c0,0,0,0,0,0c0.2-0.1,0.5-0.2,0.8-0.3
			l0,0c0,0,0.1,0,0.1,0l0,0l0,0c0,0,0,0,0.1,0l0,0l0,0c0,0,0,0,0.1,0l0,0c0,0,0,0,0.1,0l0,0c0,0,0,0,0.1,0l0,0c0,0,0,0,0.1,0l0,0
			c0,0,0.1,0,0.1,0c0,0,0,0,0.1,0h0l0,0c0,0,0,0,0.1,0l0,0c0,0,0,0,0.1,0l0,0l0,0l0,0c0,0,0,0,0.1,0l0,0c0,0,0,0,0.1,0l0,0l0,0
			c0,0,0,0,0.1,0l0,0c0,0,0,0,0.1,0l0,0l0,0l0,0c0,0,0,0,0.1,0l0,0l0.1,0l0,0c0,0,0,0,0.1,0l0,0h0l0,0c0,0,0,0,0.1,0l0,0
			c0,0,0,0,0.1,0l0,0c0,0,0,0,0.1,0l0,0l0,0l0,0l0,0l0,0l0,0l0,0l0,0l0,0l0,0l0,0l0,0l0,0l0,0l0,0l0,0l0,0c0,0,0,0,0,0
			c-0.1-0.2-0.1-0.4-0.2-0.5c0,0,0,0,0,0c1-0.3,1.9-0.3,3,0c0,0,0,0,0,0c-0.1,0.5-0.3,1-0.6,1.4c0,0,0,0,0,0c0.5,0,1,0,1.5-0.1
			c0,0,0,0,0,0c-0.1,1.1-0.4,2-0.9,2.8c0,0,0,0,0,0C195.2,106,194.8,105.7,194.4,105.3C194.4,105.3,194.4,105.3,194.4,105.3
			L194.4,105.3C194.4,105.3,194.4,105.3,194.4,105.3L194.4,105.3z M190.9,125.1L190.9,125.1c0,0.9-0.7,1.6-1.6,1.6
			c-0.9,0-1.6-0.7-1.6-1.6v0l0-5.5c0,0,0,0,0,0h-1.4c0,0,0,0,0,0l1.3-4.6c0,0,0,0,0,0c0,0,0,0,0,0c0,0,0,0,0,0l0,0l-0.8,0.8
			c0.1,0.4-0.1,0.9-0.4,1.2c-0.4,0.3-0.9,0.5-1.3,0.3c-0.4,0.1-0.9,0-1.3-0.3c-0.3-0.3-0.5-0.8-0.4-1.2l-1-1c0,0,0,0,0,0
			c0,0,0,0,0,0c0,0,0,0,0,0v2.1l0,0.8l0,7.4l0,0c0,0.9-0.7,1.6-1.6,1.6c-0.9,0-1.6-0.7-1.6-1.6v0l0-5.5c0,0,0,0,0,0h-0.4h-0.4
			c0,0,0,0,0,0l0,5.5l0,0c0,0.9-0.7,1.6-1.6,1.6c-0.9,0-1.6-0.7-1.6-1.6v0l0-5.5h0l0-2.8v-2v-0.1v0v0v0c0,0,0,0,0,0c0,0,0,0,0,0
			l-2.1,2.2l0,0c-0.5,0.5-1.4,0.5-1.9,0c-0.5-0.5-0.5-1.4,0-1.9l0,0l6-6.2c0,0,0,0,0,0c0.5,0.2,1,0.3,1.6,0.3c0.6,0,1.1-0.1,1.6-0.3
			c0,0,0,0,0,0l4.6,4.8l4.6-4.8c0,0,0,0,0,0c0.5,0.2,1,0.3,1.6,0.3c0.6,0,1.1-0.1,1.6-0.3c0,0,0,0,0,0l6,6.2c0.5,0.5,0.5,1.4,0,1.9
			c-0.5,0.5-1.4,0.5-1.9,0l-1.9-2c0,0,0,0,0,0l1.3,4.7c0,0,0,0,0,0h-1.4c0,0,0,0,0,0l0,5.5v0c0,0.9-0.7,1.6-1.6,1.6
			c-0.9,0-1.6-0.7-1.6-1.6v0l0-5.5c0,0,0,0,0,0h-0.4h-0.4c0,0,0,0,0,0L190.9,125.1L190.9,125.1z"/>
		<path class="st23" d="M185.1,92.1c12.2,0,22,9.9,22,22c0,12.2-9.9,22-22,22c-12.2,0-22-9.9-22-22C163,102,172.9,92.1,185.1,92.1
			L185.1,92.1z M173.9,100.3l25,25c2.5-3.1,4-6.9,4-11.2c0-9.8-7.9-17.7-17.7-17.7C180.8,96.4,176.9,97.8,173.9,100.3L173.9,100.3z
			 M196.2,127.9l-25-25c-2.5,3-4,6.9-4,11.2c0,9.8,7.9,17.7,17.7,17.7C189.3,131.9,193.2,130.4,196.2,127.9L196.2,127.9z"/>
	</g>
</g>
</svg>
