<?xml version="1.0" encoding="utf-8"?>
<!-- Generator: Adobe Illustrator 25.2.0, SVG Export Plug-In . SVG Version: 6.00 Build 0)  -->
<svg version="1.1" id="Layer_1" xmlns="http://www.w3.org/2000/svg" xmlns:xlink="http://www.w3.org/1999/xlink" x="0px" y="0px"
	 viewBox="0 0 525.6 134.8" style="enable-background:new 0 0 525.6 134.8;" xml:space="preserve">
<style type="text/css">
	.st0{fill-rule:evenodd;clip-rule:evenodd;fill:#5DAFA1;}
	.st1{fill:none;}
	.st2{fill:#00A88F;}
	.st3{fill:#1B5E53;}
	.st4{fill-rule:evenodd;clip-rule:evenodd;fill:#38423F;}
	.st5{fill-rule:evenodd;clip-rule:evenodd;fill:#D6D6D6;}
	.st6{fill-rule:evenodd;clip-rule:evenodd;fill:#F2F2F2;}
	.st7{fill-rule:evenodd;clip-rule:evenodd;fill:#FDFDFD;}
	.st8{fill:#FFD25C;}
	.st9{fill-rule:evenodd;clip-rule:evenodd;fill:#A1A1A1;}
	.st10{fill:#5DAFA1;}
	.st11{fill:#FFFFFF;}
	.st12{fill:#D22E1C;}
	.st13{fill:#F2F2F2;}
	.st14{fill:#D6D6D6;}
	.st15{fill:#E3E3E3;}
	.st16{fill:#D1D3D4;}
	.st17{fill:#A1A1A1;}
	.st18{fill:#38423F;}
</style>
<path class="st0" d="M484.2,62.8h8.8v-1.7h15.5v1.7h8.8c4.6,0,8.3,3.7,8.3,8.3c0,1.5,0,2.9,0,4.3c-2.1,1.1-3.5,3.1-3.5,5.3
	c0,0.6,0,1.2,0,1.7c0,2.3,1.4,4.3,3.5,5.3c0,1.6,0,3.1,0,4.7c-2.1,1.1-3.5,3-3.5,5.3c0,0.6,0,1.2,0,1.7c0,2.3,1.4,4.3,3.5,5.3
	c0,1.6,0,3.1,0,4.7c-2.1,1.1-3.5,3.1-3.5,5.3c0,0.6,0,1.2,0,1.7c0,2.3,1.4,4.3,3.5,5.3c0,1.4,0,2.9,0,4.3c0,4.6-3.7,8.3-8.3,8.3
	c-11.1,0-22.1,0-33.1,0c-4.6,0-8.3-3.7-8.3-8.3c0-1.4,0-2.9,0-4.3c2.1-1.1,3.5-3.1,3.5-5.3c0-0.6,0-1.2,0-1.7c0-2.3-1.4-4.2-3.5-5.3
	c0-1.6,0-3.1,0-4.7c2.1-1.1,3.5-3,3.5-5.3c0-0.5,0-1.1,0-1.7c0-2.3-1.4-4.3-3.5-5.3c0-1.6,0-3.1,0-4.7c2.1-1.1,3.5-3.1,3.5-5.3
	c0-0.6,0-1.2,0-1.7c0-2.3-1.4-4.2-3.5-5.3c0-1.4,0-2.9,0-4.3C475.9,66.6,479.7,62.8,484.2,62.8L484.2,62.8z"/>
<g>
	<rect y="11.9" class="st1" width="382.2" height="41.8"/>
	<path class="st2" d="M9.8,38.9c-5.9,0-9-2.9-9.4-8.4c0-0.2,0.1-0.3,0.3-0.3h4.9c0.2,0,0.3,0.2,0.3,0.3c0.2,2.9,1.4,4.6,4,4.5
		c2.3,0,3.9-1.7,4-4.5c0.1-3-1.6-4.3-5.5-4.3H7.7c-0.2,0-0.3-0.2-0.3-0.3v-3c0-0.2,0.2-0.3,0.3-0.3h0.8c3.5,0,5.1-1.5,5.1-3.6
		c0-2.1-1.4-3.5-3.3-3.5c-2.3,0-3.6,1.3-3.8,4c0,0.2-0.2,0.3-0.4,0.3H1.2c-0.2,0-0.3-0.2-0.3-0.3c0.3-5.1,3.8-7.8,9.6-7.8
		c5.2,0,8.7,2.7,8.7,6.8c0,3.2-1.9,4.9-4.4,5.7c3.2,0.8,5.1,3,5.1,6.2C19.9,35.8,15.2,38.9,9.8,38.9z"/>
	<path class="st2" d="M21.4,38.5c-0.2,0-0.3-0.2-0.3-0.3v-4.7c0-0.2,0.2-0.3,0.3-0.3h5.2c0.2,0,0.3,0.2,0.3,0.3v4.7
		c0,0.2-0.2,0.3-0.3,0.3H21.4z"/>
	<path class="st2" d="M55.8,38.2c0,0.2-0.2,0.3-0.3,0.3H35.1c-0.2,0-0.3-0.2-0.3-0.3v-4c0-0.2,0.1-0.5,0.2-0.6l13.8-17.3H36.1
		c-0.2,0-0.3-0.2-0.3-0.3v-3.6c0-0.2,0.2-0.3,0.3-0.3h19.3c0.2,0,0.3,0.2,0.3,0.3v4.2c0,0.2-0.1,0.5-0.2,0.6L41.9,34.2h13.6
		c0.2,0,0.3,0.2,0.3,0.3V38.2z"/>
	<path class="st2" d="M70.3,38.5c-0.2,0-0.3-0.2-0.3-0.3l0.1-1.9c-1.4,1.7-3.3,2.7-5.8,2.7c-5.5,0-8.5-4.4-8.5-10.1
		c0-5.7,3.3-10.2,8.6-10.2c2.4,0,4.3,0.9,5.7,2.5L70,19.3c0-0.2,0.2-0.3,0.3-0.3h5.1c0.2,0,0.3,0.2,0.3,0.3l-0.1,9.5l0.1,9.4
		c0,0.2-0.2,0.3-0.3,0.3H70.3z M65.9,35.1c2.8,0,4.3-2.1,4.3-6.2c0-4.2-1.4-6.5-4.2-6.5c-2.9-0.1-4.4,2.1-4.4,6.1
		C61.6,32.9,63.2,35.1,65.9,35.1z"/>
	<path class="st2" d="M86.6,39c-5.7,0-9.3-2.3-9.5-6.7c0-0.2,0.2-0.3,0.3-0.3h4.9c0.2,0,0.3,0.2,0.3,0.3c0.2,2.2,1.6,3.2,4.3,3.2
		c2.2,0,3.5-0.9,3.5-2.4c0-3.7-12.8-0.1-12.8-8.3c0-4.1,3.3-6.2,8.5-6.2c5.1,0,8.6,2.1,8.9,6.2c0,0.2-0.1,0.3-0.3,0.3H90
		c-0.2,0-0.3-0.2-0.4-0.3c-0.3-1.7-1.4-2.7-3.7-2.7c-1.9,0-3,0.7-3,2.4c0,3.7,12.8-0.1,12.8,8.2C95.7,36.6,91.8,39,86.6,39z
		 M87.6,17c-0.2,0.1-0.4,0.2-0.6,0.2h-1.6c-0.2,0-0.5-0.1-0.6-0.2l-5.4-3.8c-0.2-0.1-0.2-0.3-0.2-0.5l0.9-2.1c0-0.2,0.3-0.2,0.4-0.2
		l5.6,2.8l5.6-2.8c0.2-0.1,0.4,0,0.4,0.2l0.9,2.1c0,0.2,0,0.4-0.2,0.5L87.6,17z"/>
	<path class="st2" d="M108.5,37.8c0,0.2-0.2,0.4-0.3,0.5c-1.1,0.4-2.4,0.6-3.6,0.6c-3.3,0-6.5-1.7-6.5-6.1l0-9.8H96
		c-0.2,0-0.3-0.2-0.3-0.3v-3.3c0-0.2,0.2-0.3,0.3-0.3h2.2l0-4.6c0-0.2,0.2-0.3,0.3-0.3h5.1c0.2,0,0.3,0.2,0.3,0.3l0,4.6h4.3
		c0.2,0,0.3,0.2,0.3,0.3v3.3c0,0.2-0.2,0.3-0.3,0.3h-4.4l0,9.7c0,1.7,0.8,2.2,2.1,2.2c0.9,0,1.6-0.2,2.2-0.3c0.2,0,0.3,0.1,0.3,0.3
		V37.8z"/>
	<path class="st2" d="M110.2,17c-0.2,0-0.3-0.2-0.3-0.3v-4.4c0-0.2,0.2-0.3,0.3-0.3h5.1c0.2,0,0.3,0.2,0.3,0.3v4.4
		c0,0.2-0.2,0.3-0.3,0.3H110.2z M110.2,38.5c-0.2,0-0.3-0.2-0.3-0.3l0.1-9.4l-0.1-9.5c0-0.2,0.2-0.3,0.3-0.3h5.1
		c0.2,0,0.3,0.2,0.3,0.3l-0.1,9.5l0.1,9.4c0,0.2-0.2,0.3-0.3,0.3H110.2z"/>
	<path class="st2" d="M129.8,37.8c0,0.2-0.2,0.4-0.3,0.5c-1.1,0.4-2.4,0.6-3.6,0.6c-3.3,0-6.5-1.7-6.5-6.1l0-9.8h-2.2
		c-0.2,0-0.3-0.2-0.3-0.3v-3.3c0-0.2,0.2-0.3,0.3-0.3h2.2l0-4.6c0-0.2,0.2-0.3,0.3-0.3h5.1c0.2,0,0.3,0.2,0.3,0.3l0,4.6h4.3
		c0.2,0,0.3,0.2,0.3,0.3v3.3c0,0.2-0.2,0.3-0.3,0.3h-4.4l0,9.7c0,1.7,0.8,2.2,2.1,2.2c0.9,0,1.6-0.2,2.2-0.3c0.2,0,0.3,0.1,0.3,0.3
		V37.8z"/>
	<path class="st2" d="M131.4,38.5c-0.2,0-0.3-0.2-0.3-0.3l0.1-9l0-9.8c0-0.2,0.2-0.3,0.3-0.3h4.8c0.2,0,0.3,0.2,0.3,0.3l-0.1,2.1
		c1.3-1.7,3.6-2.9,6.3-2.9c4.1,0,6.8,2.8,6.8,7.6v4.1l0.1,8c0,0.2-0.2,0.3-0.3,0.3h-5.1c-0.2,0-0.3-0.2-0.3-0.3l0.1-8v-4
		c0-2.1-1.3-3.5-3-3.5c-2.1,0-4.3,1.9-4.3,6.1v1.4l0.1,8c0,0.2-0.2,0.3-0.3,0.3H131.4z"/>
	<path class="st2" d="M165.4,38.5c-0.2,0-0.3-0.2-0.3-0.3l0.1-1.9c-1.4,1.7-3.3,2.7-5.8,2.7c-5.5,0-8.5-4.4-8.5-10.1
		c0-5.7,3.3-10.2,8.6-10.2c2.4,0,4.3,0.9,5.7,2.5l-0.1-1.7c0-0.2,0.2-0.3,0.3-0.3h5.1c0.2,0,0.3,0.2,0.3,0.3l-0.1,9.5l0.1,9.4
		c0,0.2-0.2,0.3-0.3,0.3H165.4z M161,35.1c2.8,0,4.3-2.1,4.3-6.2c0-4.2-1.4-6.5-4.2-6.5c-2.9-0.1-4.4,2.1-4.4,6.1
		C156.7,32.9,158.2,35.1,161,35.1z"/>
	<path class="st2" d="M189,39c-5.7,0-9.3-2.3-9.5-6.7c0-0.2,0.2-0.3,0.3-0.3h4.9c0.2,0,0.3,0.2,0.3,0.3c0.2,2.2,1.6,3.2,4.3,3.2
		c2.2,0,3.5-0.9,3.5-2.4c0-3.7-12.8-0.1-12.8-8.3c0-4.1,3.3-6.2,8.5-6.2c5.1,0,8.6,2.1,8.9,6.2c0,0.2-0.1,0.3-0.3,0.3h-4.6
		c-0.2,0-0.3-0.2-0.4-0.3c-0.3-1.7-1.4-2.7-3.7-2.7c-1.9,0-3,0.7-3,2.4c0,3.7,12.8-0.1,12.8,8.2C198.2,36.6,194.3,39,189,39z"/>
	<path class="st2" d="M199.8,38.5c-0.2,0-0.3-0.2-0.3-0.3l0.2-9.5l-0.2-9.4c0-0.2,0.2-0.3,0.3-0.3h5c0.2,0,0.3,0.2,0.3,0.3l-0.2,3
		c1.5-2.3,4.1-3.5,7-3.5c0.3,0,0.6,0,0.9,0.1c0.2,0,0.3,0.2,0.3,0.4v3.5c0,0.2-0.2,0.3-0.3,0.3c-0.2,0-0.5,0-0.7,0c-4,0-7,2.2-7,6.7
		v8.4c0,0.2-0.2,0.3-0.3,0.3H199.8z"/>
	<path class="st2" d="M232,31.9c0.2,0,0.3,0.2,0.3,0.3c-0.5,3.6-3.9,6.8-9.4,6.8c-6.5,0-10.1-4.3-10.1-10.2c0-6.2,3.7-10.3,10-10.3
		c6.4,0,10,4.3,10.1,11.1c0,0.2-0.2,0.3-0.3,0.3h-14c0.2,3.7,1.7,5.3,4.4,5.3c1.9,0,3.3-0.9,3.8-3c0-0.2,0.2-0.3,0.4-0.3H232z
		 M222.9,22.2c-2.3,0-3.6,1.4-4.1,4.1h8C226.5,24.2,225.4,22.2,222.9,22.2z"/>
	<path class="st2" d="M248.3,38.5c-0.2,0-0.3-0.2-0.3-0.3l0.1-1.9c-1.4,1.7-3.3,2.7-5.8,2.7c-5.5,0-8.5-4.4-8.5-10.1
		c0-5.7,3.3-10.2,8.6-10.2c2.4,0,4.3,0.8,5.6,2.4l0-8.7c0-0.2,0.2-0.3,0.3-0.3h5.1c0.2,0,0.3,0.2,0.3,0.3l-0.1,13l0.1,13
		c0,0.2-0.2,0.3-0.3,0.3H248.3z M243.9,35.1c2.8,0,4.3-2.1,4.3-6.2c0-4.2-1.4-6.5-4.2-6.6c-2.9-0.1-4.4,2.1-4.4,6.2
		C239.6,32.9,241.1,35.2,243.9,35.1z"/>
	<path class="st2" d="M264.5,39c-5.7,0-9.3-2.3-9.5-6.7c0-0.2,0.2-0.3,0.3-0.3h4.9c0.2,0,0.3,0.2,0.3,0.3c0.2,2.2,1.6,3.2,4.3,3.2
		c2.2,0,3.5-0.9,3.5-2.4c0-3.7-12.8-0.1-12.8-8.3c0-4.1,3.3-6.2,8.5-6.2c5.1,0,8.6,2.1,8.9,6.2c0,0.2-0.1,0.3-0.3,0.3H268
		c-0.2,0-0.3-0.2-0.4-0.3c-0.3-1.7-1.4-2.7-3.7-2.7c-1.9,0-3,0.7-3,2.4c0,3.7,12.8-0.1,12.8,8.2C273.7,36.6,269.8,39,264.5,39z"/>
	<path class="st2" d="M286.5,37.8c0,0.2-0.2,0.4-0.3,0.5c-1.1,0.4-2.4,0.6-3.6,0.6c-3.3,0-6.5-1.7-6.5-6.1l0-9.8H274
		c-0.2,0-0.3-0.2-0.3-0.3v-3.3c0-0.2,0.2-0.3,0.3-0.3h2.2l0-4.6c0-0.2,0.2-0.3,0.3-0.3h5.1c0.2,0,0.3,0.2,0.3,0.3l0,4.6h4.3
		c0.2,0,0.3,0.2,0.3,0.3v3.3c0,0.2-0.2,0.3-0.3,0.3h-4.4l0,9.7c0,1.7,0.8,2.2,2.1,2.2c0.9,0,1.6-0.2,2.2-0.3c0.2,0,0.3,0.1,0.3,0.3
		V37.8z"/>
	<path class="st2" d="M300.6,38.2c-0.1,0.2-0.3,0.3-0.5,0.3h-6c-0.2,0-0.4-0.2-0.5-0.3l-6.6-19c-0.1-0.2,0-0.3,0.2-0.3h5.5
		c0.2,0,0.4,0.2,0.5,0.3l4.2,14.4l4.6-14.4c0.1-0.2,0.3-0.3,0.5-0.3h4.7c0.2,0,0.3,0.2,0.2,0.3L300.6,38.2z"/>
	<path class="st2" d="M320.8,38.5c-0.2,0-0.3-0.2-0.3-0.3l0.1-1.9c-1.4,1.7-3.3,2.7-5.8,2.7c-5.5,0-8.5-4.4-8.5-10.1
		c0-5.7,3.3-10.2,8.6-10.2c2.4,0,4.3,0.9,5.7,2.5l-0.1-1.7c0-0.2,0.2-0.3,0.3-0.3h5.1c0.2,0,0.3,0.2,0.3,0.3l-0.1,9.5l0.1,9.4
		c0,0.2-0.2,0.3-0.3,0.3H320.8z M316.3,35.1c2.8,0,4.3-2.1,4.3-6.2c0-4.2-1.4-6.5-4.2-6.5c-2.9-0.1-4.4,2.1-4.4,6.1
		C312.1,32.9,313.6,35.1,316.3,35.1z"/>
</g>
<g>
	<path class="st3" d="M48.2,71.6c-0.1,0-0.2-0.1-0.2-0.2V68c0-0.1,0.1-0.2,0.2-0.2h3.2c0.1,0,0.2,0.1,0.2,0.2v3.5
		c0,0.1-0.1,0.2-0.2,0.2H48.2z"/>
	<path class="st3" d="M91.3,74.9c0,0.1-0.1,0.2-0.2,0.2h-6.9c-0.1,0-0.2-0.1-0.2-0.2V74c0-0.1,0-0.2,0.1-0.3l5-6.6h-4.5
		c-0.1,0-0.2-0.1-0.2-0.2V66c0-0.1,0.1-0.2,0.2-0.2h6.3c0.1,0,0.2,0.1,0.2,0.2v0.9c0,0.1,0,0.2-0.1,0.3l-5,6.6h5.2
		c0.1,0,0.2,0.1,0.2,0.2V74.9z"/>
	<path class="st3" d="M98.8,75.1c-0.1,0-0.2-0.1-0.2-0.2l0-1.3c-0.6,1-1.6,1.7-3,1.7c-2.5,0-3.8-2.1-3.8-4.8s1.4-4.8,3.9-4.8
		c1.3,0,2.3,0.6,2.9,1.6l0-1.2c0-0.1,0.1-0.2,0.2-0.2h1.3c0.1,0,0.2,0.1,0.2,0.2l-0.1,4.4l0.1,4.5c0,0.1-0.1,0.2-0.2,0.2H98.8z
		 M96.1,74.1c1.6,0,2.6-1.2,2.6-3.5c0-2.2-0.8-3.5-2.3-3.7c-0.1,0-0.3,0-0.4,0c-1.7,0.1-2.4,1.5-2.4,3.5
		C93.5,72.6,94.3,74.1,96.1,74.1z"/>
	<path class="st3" d="M109.2,75.3c-2.8,0-4.4-1.9-4.4-4.8c0-2.9,1.6-4.9,4.4-4.9c2.8,0,4.4,1.9,4.4,4.8S112.1,75.3,109.2,75.3z
		 M109.2,74.1c1.8,0,2.7-1.3,2.7-3.6s-0.9-3.7-2.7-3.7c-1.8,0-2.7,1.4-2.7,3.7S107.4,74.1,109.2,74.1z"/>
	<path class="st3" d="M121.6,75.1c-0.1,0-0.2-0.1-0.2-0.2l0-1.3c-0.6,1-1.6,1.7-3,1.7c-2.5,0-3.8-2.1-3.8-4.8c0-2.7,1.4-4.8,3.9-4.8
		c1.3,0,2.3,0.5,2.9,1.6l0-4.5c0-0.1,0.1-0.2,0.2-0.2h1.3c0.1,0,0.2,0.1,0.2,0.2l-0.1,5.4l0.1,6.8c0,0.1-0.1,0.2-0.2,0.2H121.6z
		 M118.9,74.1c1.6,0,2.6-1.2,2.6-3.5c0-2.3-0.9-3.7-2.6-3.7c-1.8,0-2.6,1.5-2.6,3.5C116.4,72.6,117.2,74.1,118.9,74.1z"/>
	<path class="st3" d="M129.4,75.3c-1.3,0-2.3-0.6-2.9-1.6l0,1.2c0,0.1-0.1,0.2-0.2,0.2H125c-0.1,0-0.2-0.1-0.2-0.2l0.1-6.7l-0.1-5.5
		c0-0.1,0.1-0.2,0.2-0.2h1.3c0.1,0,0.2,0.1,0.2,0.2l0,4.6c0.6-1,1.6-1.6,3-1.6c2.5,0,3.8,2.1,3.8,4.8
		C133.2,73.1,131.8,75.3,129.4,75.3z M128.9,74.1c1.8,0,2.6-1.4,2.6-3.5c0-2.2-0.8-3.7-2.6-3.7c-1.6,0-2.6,1.2-2.6,3.5
		C126.4,72.7,127.3,74.1,128.9,74.1z"/>
	<path class="st3" d="M134.9,75.1c-0.1,0-0.2-0.1-0.2-0.2l0.1-4.6l-0.1-4.3c0-0.1,0.1-0.2,0.2-0.2h1.3c0.1,0,0.2,0.1,0.2,0.2
		l-0.1,4.3l0.1,4.6c0,0.1-0.1,0.2-0.2,0.2H134.9z M134.9,64.7c-0.1,0-0.2-0.1-0.2-0.2v-1.4c0-0.1,0.1-0.2,0.2-0.2h1.3
		c0.1,0,0.2,0.1,0.2,0.2v1.4c0,0.1-0.1,0.2-0.2,0.2H134.9z"/>
	<path class="st3" d="M138.4,78.2c-0.1,0-0.2-0.1-0.2-0.2l0.1-5.9l-0.1-6.1c0-0.1,0.1-0.2,0.2-0.2h1.3c0.1,0,0.2,0.1,0.2,0.2
		l-0.1,6.1l0.1,5.9c0,0.1-0.1,0.2-0.2,0.2H138.4z M138.4,64.7c-0.1,0-0.2-0.1-0.2-0.2v-1.4c0-0.1,0.1-0.2,0.2-0.2h1.3
		c0.1,0,0.2,0.1,0.2,0.2v1.4c0,0.1-0.1,0.2-0.2,0.2H138.4z"/>
	<path class="st3" d="M148.3,75.1c-0.1,0-0.2-0.1-0.2-0.2l0-1.3c-0.6,1-1.6,1.7-3,1.7c-2.5,0-3.8-2.1-3.8-4.8s1.4-4.8,3.9-4.8
		c1.3,0,2.3,0.6,2.9,1.6l0-1.2c0-0.1,0.1-0.2,0.2-0.2h1.3c0.1,0,0.2,0.1,0.2,0.2l-0.1,4.4l0.1,4.5c0,0.1-0.1,0.2-0.2,0.2H148.3z
		 M145.6,74.1c1.6,0,2.6-1.2,2.6-3.5c0-2.2-0.8-3.5-2.3-3.7c-0.1,0-0.3,0-0.4,0c-1.7,0.1-2.4,1.5-2.4,3.5
		C143.1,72.6,143.9,74.1,145.6,74.1z"/>
	<path class="st3" d="M151.7,75.1c-0.1,0-0.2-0.1-0.2-0.2l0.1-4.1l-0.1-4.9c0-0.1,0.1-0.2,0.2-0.2h1.2c0.1,0,0.2,0.1,0.2,0.2l0,1.4
		c0.6-0.9,1.6-1.8,3.1-1.8c1.9,0,3.1,1.3,3.1,3.7v1.9l0.1,3.8c0,0.1-0.1,0.2-0.2,0.2h-1.3c-0.1,0-0.2-0.1-0.2-0.2l0-3.8v-1.8
		c0-1.7-0.8-2.4-2-2.4c-1.2,0-2.2,1-2.6,2.8v1.4l0,3.8c0,0.1-0.1,0.2-0.2,0.2H151.7z"/>
	<path class="st3" d="M161.2,78.2c-0.1,0-0.2-0.1-0.2-0.2l0.1-5.9l-0.1-6.1c0-0.1,0.1-0.2,0.2-0.2h1.3c0.1,0,0.2,0.1,0.2,0.2
		l-0.1,6.1l0.1,5.9c0,0.1-0.1,0.2-0.2,0.2H161.2z M161.2,64.7c-0.1,0-0.2-0.1-0.2-0.2v-1.4c0-0.1,0.1-0.2,0.2-0.2h1.3
		c0.1,0,0.2,0.1,0.2,0.2v1.4c0,0.1-0.1,0.2-0.2,0.2H161.2z"/>
	<path class="st3" d="M172.5,71.9c0.1,0,0.2,0.1,0.2,0.2c-0.3,1.9-1.7,3.3-4.1,3.3c-2.9,0-4.4-2-4.4-4.8c0-2.9,1.7-4.9,4.3-4.9
		s4.3,1.8,4.3,4.9c0,0.1-0.1,0.2-0.2,0.2h-6.8c0.1,2.2,1,3.4,2.8,3.4c1.4,0,2.2-0.7,2.5-2.1c0-0.1,0.1-0.2,0.2-0.2H172.5z
		 M168.6,66.8c-1.5,0-2.4,1-2.6,2.7h5.2C171,68.1,170.2,66.8,168.6,66.8z"/>
	<path class="st3" d="M182.2,73.6l-2-3.2l-1.2,1.3l0,3.2c0,0.1-0.1,0.2-0.2,0.2h-1.3c-0.1,0-0.2-0.1-0.2-0.2l0.1-6.1l-0.1-6.2
		c0-0.1,0.1-0.2,0.2-0.2h1.3c0.1,0,0.2,0.1,0.2,0.2l-0.1,6.1v1l3.5-3.9c0.1-0.1,0.2-0.1,0.3-0.1h1.5c0.1,0,0.1,0.1,0.1,0.1l-3,3.3
		l3.4,5.7c0,0.1,0,0.2-0.1,0.2h-1.5c-0.1,0-0.2-0.1-0.3-0.2L182.2,73.6z"/>
	<path class="st3" d="M188.6,75.3c-1.9,0-3.1-1.3-3.1-3.7v-1.8l0-3.8c0-0.1,0.1-0.2,0.2-0.2h1.3c0.1,0,0.2,0.1,0.2,0.2l0,3.8v1.8
		c0,1.7,0.8,2.4,2,2.4c1.2,0,2.2-1,2.6-2.8v-1.4l0-3.8c0-0.1,0.1-0.2,0.2-0.2h1.3c0.1,0,0.2,0.1,0.2,0.2l-0.1,4.1l0,4.9
		c0,0.1-0.1,0.2-0.2,0.2h-1.2c-0.1,0-0.2-0.1-0.2-0.2l0.1-1.4C191.1,74.5,190,75.3,188.6,75.3z"/>
	<path class="st3" d="M199.7,73.6l-2-3.2l-1.2,1.3l0,3.2c0,0.1-0.1,0.2-0.2,0.2h-1.3c-0.1,0-0.2-0.1-0.2-0.2l0.1-6.1l-0.1-6.2
		c0-0.1,0.1-0.2,0.2-0.2h1.3c0.1,0,0.2,0.1,0.2,0.2l-0.1,6.1v1l3.5-3.9c0.1-0.1,0.2-0.1,0.3-0.1h1.5c0.1,0,0.1,0.1,0.1,0.1l-3,3.3
		l3.4,5.7c0,0.1,0,0.2-0.1,0.2h-1.5c-0.1,0-0.2-0.1-0.3-0.2L199.7,73.6z"/>
	<path class="st3" d="M209.3,75.1c-0.1,0-0.2-0.1-0.2-0.2l0-1.3c-0.6,1-1.6,1.7-3,1.7c-2.5,0-3.8-2.1-3.8-4.8s1.4-4.8,3.9-4.8
		c1.3,0,2.3,0.6,2.9,1.6l0-1.2c0-0.1,0.1-0.2,0.2-0.2h1.3c0.1,0,0.2,0.1,0.2,0.2l-0.1,4.4l0.1,4.5c0,0.1-0.1,0.2-0.2,0.2H209.3z
		 M206.6,74.1c1.6,0,2.6-1.2,2.6-3.5c0-2.2-0.8-3.5-2.3-3.7c-0.1,0-0.3,0-0.4,0c-1.7,0.1-2.4,1.5-2.4,3.5
		C204,72.6,204.8,74.1,206.6,74.1z"/>
	<path class="st3" d="M216.5,75.3c-2.8,0-4.3-1.9-4.3-4.8s1.6-4.9,4.4-4.9c2.3,0,3.7,1.3,3.9,3.2c0,0.1-0.1,0.2-0.2,0.2h-1.2
		c-0.1,0-0.2-0.1-0.2-0.2c-0.2-1.4-1.2-2-2.4-2c-1.8,0-2.7,1.3-2.7,3.6c0,2.4,0.9,3.6,2.7,3.6c1.4,0,2.3-0.8,2.5-2.3
		c0-0.1,0.1-0.2,0.2-0.2h1.2c0.1,0,0.2,0.1,0.2,0.2C220.3,73.9,218.9,75.3,216.5,75.3z"/>
	<path class="st3" d="M228.4,75.1c-0.1,0-0.2-0.1-0.2-0.2l0-1.3c-0.6,1-1.6,1.7-3,1.7c-2.5,0-3.8-2.1-3.8-4.8s1.4-4.8,3.9-4.8
		c1.3,0,2.3,0.6,2.9,1.6l0-1.2c0-0.1,0.1-0.2,0.2-0.2h1.3c0.1,0,0.2,0.1,0.2,0.2l-0.1,4.4l0.1,4.5c0,0.1-0.1,0.2-0.2,0.2H228.4z
		 M225.7,74.1c1.6,0,2.6-1.2,2.6-3.5c0-2.2-0.8-3.5-2.3-3.7c-0.1,0-0.3,0-0.4,0c-1.7,0.1-2.4,1.5-2.4,3.5
		C223.2,72.6,224,74.1,225.7,74.1z"/>
	<path class="st3" d="M48.2,93.2c-0.1,0-0.2-0.1-0.2-0.2v-3.5c0-0.1,0.1-0.2,0.2-0.2h3.2c0.1,0,0.2,0.1,0.2,0.2v3.5
		c0,0.1-0.1,0.2-0.2,0.2H48.2z"/>
	<path class="st3" d="M91.3,96.5c0,0.1-0.1,0.2-0.2,0.2h-6.9c-0.1,0-0.2-0.1-0.2-0.2v-0.9c0-0.1,0-0.2,0.1-0.3l5-6.6h-4.5
		c-0.1,0-0.2-0.1-0.2-0.2v-0.9c0-0.1,0.1-0.2,0.2-0.2h6.3c0.1,0,0.2,0.1,0.2,0.2v0.9c0,0.1,0,0.2-0.1,0.3l-5,6.6h5.2
		c0.1,0,0.2,0.1,0.2,0.2V96.5z"/>
	<path class="st3" d="M98.8,96.7c-0.1,0-0.2-0.1-0.2-0.2l0-1.3c-0.6,1-1.6,1.7-3,1.7c-2.5,0-3.8-2.1-3.8-4.8s1.4-4.8,3.9-4.8
		c1.3,0,2.3,0.6,2.9,1.6l0-1.2c0-0.1,0.1-0.2,0.2-0.2h1.3c0.1,0,0.2,0.1,0.2,0.2l-0.1,4.4l0.1,4.5c0,0.1-0.1,0.2-0.2,0.2H98.8z
		 M96.1,95.7c1.6,0,2.6-1.2,2.6-3.5c0-2.2-0.8-3.5-2.3-3.7c-0.1,0-0.3,0-0.4,0c-1.7,0.1-2.4,1.5-2.4,3.5
		C93.5,94.2,94.3,95.7,96.1,95.7z"/>
	<path class="st3" d="M112.3,96.5c0,0.1-0.1,0.2-0.2,0.2h-6.9c-0.1,0-0.2-0.1-0.2-0.2v-0.9c0-0.1,0-0.2,0.1-0.3l5-6.6h-4.5
		c-0.1,0-0.2-0.1-0.2-0.2v-0.9c0-0.1,0.1-0.2,0.2-0.2h6.3c0.1,0,0.2,0.1,0.2,0.2v0.9c0,0.1,0,0.2-0.1,0.3l-5,6.6h5.2
		c0.1,0,0.2,0.1,0.2,0.2V96.5z"/>
	<path class="st3" d="M119.8,96.7c-0.1,0-0.2-0.1-0.2-0.2l0-1.3c-0.6,1-1.6,1.7-3,1.7c-2.5,0-3.8-2.1-3.8-4.8s1.4-4.8,3.9-4.8
		c1.3,0,2.3,0.6,2.9,1.6l0-1.2c0-0.1,0.1-0.2,0.2-0.2h1.3c0.1,0,0.2,0.1,0.2,0.2l-0.1,4.4l0.1,4.5c0,0.1-0.1,0.2-0.2,0.2H119.8z
		 M117.1,95.7c1.6,0,2.6-1.2,2.6-3.5c0-2.2-0.8-3.5-2.3-3.7c-0.1,0-0.3,0-0.4,0c-1.7,0.1-2.4,1.5-2.4,3.5
		C114.5,94.2,115.4,95.7,117.1,95.7z"/>
	<path class="st3" d="M126.8,96.9c-2.4,0-4.1-1.1-4.2-3.2c0-0.1,0.1-0.2,0.2-0.2h1.2c0.1,0,0.2,0.1,0.2,0.2c0.1,1.5,1,2.1,2.6,2.1
		c1.4,0,2.3-0.6,2.3-1.6c0-2.4-6.3-0.5-6.3-4.2c0-1.8,1.5-2.7,3.7-2.7c2.1,0,3.7,0.9,3.9,2.8c0,0.1-0.1,0.2-0.2,0.2H129
		c-0.1,0-0.2-0.1-0.2-0.2c-0.1-1.2-1-1.7-2.3-1.7c-1.3,0-2.1,0.5-2.1,1.5c0,2.3,6.3,0.3,6.3,4.2C130.7,95.9,129,96.9,126.8,96.9z
		 M127.1,86.3c-0.1,0.1-0.2,0.1-0.3,0.1h-0.4c-0.1,0-0.2,0-0.3-0.1l-2.3-1.4c-0.1-0.1-0.1-0.2-0.1-0.3l0.2-0.5
		c0-0.1,0.1-0.1,0.2-0.1l2.5,1.1l2.4-1.1c0.1,0,0.2,0,0.2,0.1l0.2,0.5c0,0.1,0,0.2-0.1,0.3L127.1,86.3z"/>
	<path class="st3" d="M136.4,96.4c0,0.1-0.1,0.2-0.2,0.2c-0.4,0.1-0.8,0.2-1.2,0.2c-1.4,0-2.5-0.7-2.5-2.7v-5.4h-1
		c-0.1,0-0.2-0.1-0.2-0.2v-0.9c0-0.1,0.1-0.2,0.2-0.2h1l0-2.1c0-0.1,0.1-0.2,0.2-0.2h1.3c0.1,0,0.2,0.1,0.2,0.2l0,2.1h2.1
		c0.1,0,0.2,0.1,0.2,0.2v0.9c0,0.1-0.1,0.2-0.2,0.2h-2.1v5.4c0,1.1,0.4,1.5,1.2,1.5c0.3,0,0.7-0.1,0.9-0.1c0.1,0,0.2,0,0.2,0.1V96.4
		z"/>
	<path class="st3" d="M137.8,96.7c-0.1,0-0.2-0.1-0.2-0.2l0.1-4.6l-0.1-4.3c0-0.1,0.1-0.2,0.2-0.2h1.3c0.1,0,0.2,0.1,0.2,0.2
		l-0.1,4.3l0.1,4.6c0,0.1-0.1,0.2-0.2,0.2H137.8z M137.9,86.3c-0.1,0-0.2-0.1-0.2-0.2v-1.4c0-0.1,0.1-0.2,0.2-0.2h1.3
		c0.1,0,0.2,0.1,0.2,0.2v1.4c0,0.1-0.1,0.2-0.2,0.2H137.9z"/>
	<path class="st3" d="M145.8,96.4c0,0.1-0.1,0.2-0.2,0.2c-0.4,0.1-0.8,0.2-1.2,0.2c-1.4,0-2.5-0.7-2.5-2.7v-5.4h-1
		c-0.1,0-0.2-0.1-0.2-0.2v-0.9c0-0.1,0.1-0.2,0.2-0.2h1l0-2.1c0-0.1,0.1-0.2,0.2-0.2h1.3c0.1,0,0.2,0.1,0.2,0.2l0,2.1h2.1
		c0.1,0,0.2,0.1,0.2,0.2v0.9c0,0.1-0.1,0.2-0.2,0.2h-2.1v5.4c0,1.1,0.4,1.5,1.2,1.5c0.3,0,0.7-0.1,0.9-0.1c0.1,0,0.2,0,0.2,0.1V96.4
		z"/>
	<path class="st3" d="M150.1,96.9c-1.9,0-3.1-1.3-3.1-3.7v-1.8l0-3.8c0-0.1,0.1-0.2,0.2-0.2h1.3c0.1,0,0.2,0.1,0.2,0.2l0,3.8v1.8
		c0,1.7,0.8,2.4,2,2.4c1.2,0,2.2-1,2.6-2.8v-1.4l0-3.8c0-0.1,0.1-0.2,0.2-0.2h1.3c0.1,0,0.2,0.1,0.2,0.2l-0.1,4.1l0,4.9
		c0,0.1-0.1,0.2-0.2,0.2h-1.2c-0.1,0-0.2-0.1-0.2-0.2l0.1-1.4C152.6,96.1,151.5,96.9,150.1,96.9z"/>
	<path class="st3" d="M163.7,96.9c-2.8,0-4.4-1.9-4.4-4.8c0-2.9,1.6-4.9,4.4-4.9c2.8,0,4.4,1.9,4.4,4.8S166.6,96.9,163.7,96.9z
		 M163.7,95.7c1.8,0,2.7-1.3,2.7-3.6s-0.9-3.7-2.7-3.7c-1.8,0-2.7,1.4-2.7,3.7S161.9,95.7,163.7,95.7z"/>
	<path class="st3" d="M176.1,96.7c-0.1,0-0.2-0.1-0.2-0.2l0-1.3c-0.6,1-1.6,1.7-3,1.7c-2.5,0-3.8-2.1-3.8-4.8c0-2.7,1.4-4.8,3.9-4.8
		c1.3,0,2.3,0.5,2.9,1.6l0-4.5c0-0.1,0.1-0.2,0.2-0.2h1.3c0.1,0,0.2,0.1,0.2,0.2l-0.1,5.4l0.1,6.8c0,0.1-0.1,0.2-0.2,0.2H176.1z
		 M173.4,95.7c1.6,0,2.6-1.2,2.6-3.5c0-2.3-0.9-3.7-2.6-3.7c-1.8,0-2.6,1.5-2.6,3.5C170.8,94.2,171.7,95.7,173.4,95.7z"/>
	<path class="st3" d="M186.4,96.9c-2.4,0-4.1-1.1-4.2-3.2c0-0.1,0.1-0.2,0.2-0.2h1.2c0.1,0,0.2,0.1,0.2,0.2c0.1,1.5,1,2.1,2.6,2.1
		c1.4,0,2.3-0.6,2.3-1.6c0-2.4-6.3-0.5-6.3-4.2c0-1.8,1.5-2.7,3.7-2.7c2.1,0,3.7,0.9,3.9,2.8c0,0.1-0.1,0.2-0.2,0.2h-1.2
		c-0.1,0-0.2-0.1-0.2-0.2c-0.1-1.2-1-1.7-2.3-1.7c-1.3,0-2.1,0.5-2.1,1.5c0,2.3,6.3,0.3,6.3,4.2C190.3,95.9,188.6,96.9,186.4,96.9z"
		/>
	<path class="st3" d="M194.7,96.9c-1.9,0-3.1-1.3-3.1-3.7v-1.8l0-3.8c0-0.1,0.1-0.2,0.2-0.2h1.3c0.1,0,0.2,0.1,0.2,0.2l0,3.8v1.8
		c0,1.7,0.8,2.4,2,2.4c1.2,0,2.2-1,2.6-2.8v-1.4l0-3.8c0-0.1,0.1-0.2,0.2-0.2h1.3c0.1,0,0.2,0.1,0.2,0.2l-0.1,4.1l0,4.9
		c0,0.1-0.1,0.2-0.2,0.2h-1.2c-0.1,0-0.2-0.1-0.2-0.2l0.1-1.4C197.2,96.1,196.2,96.9,194.7,96.9z"/>
	<path class="st3" d="M201.3,96.7c-0.1,0-0.2-0.1-0.2-0.2l0.1-4.1l-0.1-4.9c0-0.1,0.1-0.2,0.2-0.2h1.2c0.1,0,0.2,0.1,0.2,0.2l0,1.4
		c0.6-0.9,1.6-1.8,3.1-1.8c1.9,0,3.1,1.3,3.1,3.7v1.9l0.1,3.8c0,0.1-0.1,0.2-0.2,0.2h-1.3c-0.1,0-0.2-0.1-0.2-0.2l0-3.8V91
		c0-1.7-0.8-2.4-2-2.4c-1.2,0-2.2,1-2.6,2.8v1.4l0,3.8c0,0.1-0.1,0.2-0.2,0.2H201.3z"/>
	<path class="st3" d="M214.6,96.9c-2.8,0-4.3-1.9-4.3-4.8s1.6-4.9,4.4-4.9c2.3,0,3.7,1.3,3.9,3.2c0,0.1-0.1,0.2-0.2,0.2h-1.2
		c-0.1,0-0.2-0.1-0.2-0.2c-0.2-1.4-1.2-2-2.4-2c-1.8,0-2.7,1.3-2.7,3.6c0,2.4,0.9,3.6,2.7,3.6c1.4,0,2.3-0.8,2.5-2.3
		c0-0.1,0.1-0.2,0.2-0.2h1.2c0.1,0,0.2,0.1,0.2,0.2C218.4,95.5,216.9,96.9,214.6,96.9z"/>
	<path class="st3" d="M226.5,96.7c-0.1,0-0.2-0.1-0.2-0.2l0-1.3c-0.6,1-1.6,1.7-3,1.7c-2.5,0-3.8-2.1-3.8-4.8s1.4-4.8,3.9-4.8
		c1.3,0,2.3,0.6,2.9,1.6l0-1.2c0-0.1,0.1-0.2,0.2-0.2h1.3c0.1,0,0.2,0.1,0.2,0.2l-0.1,4.4l0.1,4.5c0,0.1-0.1,0.2-0.2,0.2H226.5z
		 M223.8,95.7c1.6,0,2.6-1.2,2.6-3.5c0-2.2-0.8-3.5-2.3-3.7c-0.1,0-0.3,0-0.4,0c-1.7,0.1-2.4,1.5-2.4,3.5
		C221.2,94.2,222.1,95.7,223.8,95.7z"/>
</g>
<g>
	<path class="st4" d="M523.9,131.6c-1.5,1.9-3.9,3.2-6.5,3.2h-33.1c-4.6,0-8.3-3.7-8.3-8.3v-4.3c2.1-1.1,3.5-3.1,3.5-5.3V115
		c0-2.3-1.4-4.2-3.5-5.3V105c2.1-1.1,3.5-3,3.5-5.3v-1.7c0-2.3-1.4-4.3-3.5-5.3v-4.7c2.1-1.1,3.5-3.1,3.5-5.3v-1.7
		c0-2.3-1.4-4.3-3.5-5.3v-4.3c0-4.6,3.7-8.3,8.3-8.3h8.8v-1.7h2.1v3.7h-6.3c-3.3,0-6,3.7-6,8.3c0,1.4,0,0.8,0,2.3
		c1.5,1.1,2.5,3.1,2.5,5.3v1.7c0,2.3-1,4.3-2.5,5.3v4.7c1.5,1.1,2.5,3.1,2.5,5.3v1.7c0,2.3-1,4.3-2.5,5.3v4.7
		c1.5,1.1,2.5,3.1,2.5,5.3v1.8c0,2.3-1,4.3-2.5,5.3c0,3.4-0.4,6.9,1.5,10h39C523.5,131.9,523.7,131.8,523.9,131.6z"/>
	<path class="st0" d="M522.1,80.8v1.7c0,2.3,1.4,4.3,3.5,5.3v4.7c-2.1,1.1-3.5,3.1-3.5,5.3v1.7c0,2.3,1.4,4.3,3.5,5.3v4.7
		c-2.1,1.1-3.5,3.1-3.5,5.3v1.8c0,2.3,1.4,4.3,3.5,5.3v4.3c0,1.4-0.3,2.7-0.9,3.8c-0.1,0.2-0.3,0.4-0.4,0.7
		c-0.1,0.2-0.3,0.4-0.4,0.6c-0.2,0.2-0.3,0.4-0.5,0.6h-39c-1.9-3.1-1.5-6.5-1.5-10c1.5-1.1,2.5-3.1,2.5-5.3V115c0-2.3-1-4.2-2.5-5.3
		V105c1.5-1.1,2.5-3,2.5-5.3v-1.7c0-2.3-1-4.3-2.5-5.3v-4.7c1.5-1.1,2.5-3.1,2.5-5.3v-1.7c0-2.3-1-4.3-2.5-5.3c0-1.4,0-0.9,0-2.3
		c0-4.6,2.7-8.3,6-8.3h6.3v-3.7h13.4v1.7h8.8c4.6,0,8.3,3.7,8.3,8.3v4.3C523.5,76.5,522.1,78.5,522.1,80.8z"/>
	<path class="st0" d="M522.1,80.8v1.7c0,2.3,1.4,4.3,3.5,5.3v4.7c-2.1,1.1-3.5,3.1-3.5,5.3v1.7c0,2.3,1.4,4.3,3.5,5.3v4.7
		c-2.1,1.1-3.5,3.1-3.5,5.3v1.8c0,2.3,1.4,4.3,3.5,5.3v4.3c0,1.4-0.3,2.7-0.9,3.8c-0.1,0.2-0.3,0.4-0.4,0.7
		c-0.1,0.2-0.3,0.4-0.4,0.6c-0.2,0.2-0.3,0.4-0.5,0.6h-39c-1.9-3.1-1.5-6.5-1.5-10c1.5-1.1,2.5-3.1,2.5-5.3V115c0-2.3-1-4.2-2.5-5.3
		V105c1.5-1.1,2.5-3,2.5-5.3v-1.7c0-2.3-1-4.3-2.5-5.3v-4.7c1.5-1.1,2.5-3.1,2.5-5.3v-1.7c0-2.3-1-4.3-2.5-5.3c0-1.4,0-0.9,0-2.3
		c0-4.6,2.7-8.3,6-8.3h6.3v-3.7h13.4v1.7h8.8c4.6,0,8.3,3.7,8.3,8.3v4.3C523.5,76.5,522.1,78.5,522.1,80.8z"/>
	<path class="st5" d="M509.3,44.6v16.3c0,0.1-0.1,0.3-0.3,0.3h-16.5c-0.1,0-0.3-0.1-0.3-0.3V44.6c0-2.5,2.1-4.6,4.6-4.6h7.8
		C507.2,40,509.3,42.1,509.3,44.6z"/>
	<path class="st6" d="M496.3,59.3H509c0.1,0,0.3-0.1,0.3-0.2V44.6c0-2.5-2.1-4.6-4.6-4.6h-5.8c-1.5,0.8-2.5,2.4-2.5,4.3V59.3z"/>
	<path class="st7" d="M494.9,82.1h11.7c1.9,0,3.5,1.6,3.5,3.5v24.7c0,2-1.6,3.5-3.5,3.5h-11.7c-1.9,0-3.5-1.6-3.5-3.5V85.6
		C491.4,83.7,493,82.1,494.9,82.1L494.9,82.1z"/>
	<g>
		<path class="st8" d="M497.4,97.9c0-0.2-0.2-0.4-0.4-0.4h-2.4c-0.2,0-0.4,0.2-0.4,0.4c0,0.3,0.2,0.5,0.4,0.5h2.4
			C497.2,98.4,497.4,98.2,497.4,97.9z"/>
		<path class="st8" d="M497.8,95.6c0.2,0.2,0.4,0.2,0.6,0c0.2-0.2,0.2-0.5,0-0.7l-1.7-1.7c-0.2-0.2-0.4-0.2-0.6,0
			c-0.2,0.2-0.2,0.5,0,0.7L497.8,95.6z"/>
		<path class="st8" d="M500.8,94.6c0.2,0,0.4-0.2,0.4-0.4v-2.4c0-0.2-0.2-0.4-0.4-0.4c-0.2,0-0.4,0.2-0.4,0.4v2.4
			C500.3,94.4,500.5,94.6,500.8,94.6z"/>
		<path class="st8" d="M503.7,95.6l1.7-1.7c0.2-0.2,0.2-0.5,0-0.7c-0.2-0.2-0.4-0.2-0.6,0l-1.7,1.7c-0.2,0.2-0.2,0.5,0,0.7
			C503.3,95.8,503.6,95.8,503.7,95.6z"/>
		<path class="st8" d="M497.8,100.3l-1.7,1.7c-0.2,0.2-0.2,0.5,0,0.7c0.2,0.2,0.4,0.2,0.6,0l1.7-1.7c0.2-0.2,0.2-0.5,0-0.7
			C498.2,100.1,498,100.1,497.8,100.3z"/>
		<path class="st8" d="M507,97.5h-2.4c-0.2,0-0.4,0.2-0.4,0.4c0,0.3,0.2,0.5,0.4,0.5h2.4c0.2,0,0.4-0.2,0.4-0.5
			C507.4,97.7,507.2,97.5,507,97.5z"/>
		<path class="st8" d="M503.7,100.3c-0.2-0.2-0.4-0.2-0.6,0c-0.2,0.2-0.2,0.5,0,0.7l1.7,1.7c0.2,0.2,0.4,0.2,0.6,0
			c0.2-0.2,0.2-0.5,0-0.7L503.7,100.3z"/>
		<path class="st8" d="M500.8,95.5c-1.3,0-2.4,1.1-2.4,2.4c0,1.3,1.1,2.4,2.4,2.4c1.3,0,2.4-1.1,2.4-2.4
			C503.2,96.6,502.1,95.5,500.8,95.5z"/>
		<path class="st8" d="M500.8,101.3c-0.2,0-0.4,0.2-0.4,0.5v2.4c0,0.3,0.2,0.5,0.4,0.5c0.2,0,0.4-0.2,0.4-0.5v-2.4
			C501.2,101.5,501,101.3,500.8,101.3z"/>
	</g>
	<path class="st9" d="M477.7,131.6c1.5,1.9,3.9,3.2,6.5,3.2h33.1c4.6,0,8.3-3.7,8.3-8.3v-4.3c-2.1-1.1-3.5-3.1-3.5-5.3v-1.8
		c0-2.3,1.4-4.2,3.5-5.3V105c-2.1-1.1-3.5-3-3.5-5.3v-1.7c0-2.3,1.4-4.3,3.5-5.3v-4.7c-2.1-1.1-3.5-3.1-3.5-5.3v-1.7
		c0-2.3,1.4-4.3,3.5-5.3v-4.3c0-4.6-3.7-8.3-8.3-8.3h-8.8v-1.7h-2.1v3.7h6.3c3.3,0,6,3.7,6,8.3c0,1.4,0,0.8,0,2.3
		c-1.5,1.1-2.5,3.1-2.5,5.3v1.7c0,2.3,1,4.3,2.5,5.3v4.7c-1.5,1.1-2.5,3.1-2.5,5.3v1.7c0,2.3,1,4.3,2.5,5.3v4.7
		c-1.5,1.1-2.5,3.1-2.5,5.3v1.8c0,2.3,1,4.3,2.5,5.3c0,3.4,0.4,6.9-1.5,10h-39C478,132,477.8,131.8,477.7,131.6z"/>
</g>
<g>
	<path class="st10" d="M430.6,99.3H400c-2.8,0-5-2.2-5-5V28.7c0-2.8,2.2-5,5-5h30.6c2.8,0,5,2.2,5,5v65.6
		C435.6,97.1,433.4,99.3,430.6,99.3z"/>
	<rect x="399.5" y="73.7" class="st11" width="31.6" height="4.4"/>
	<rect x="399.5" y="80.2" class="st11" width="31.6" height="4.4"/>
	<g>
		
			<ellipse transform="matrix(0.2282 -0.9736 0.9736 0.2282 273.3825 441.7071)" class="st12" cx="415.3" cy="48.4" rx="15.8" ry="15.8"/>
		
			<ellipse transform="matrix(0.2284 -0.9736 0.9736 0.2284 273.2949 441.6754)" class="st11" cx="415.3" cy="48.4" rx="14.4" ry="14.4"/>
		<g>
			<path class="st13" d="M404.3,49.2c2.7,1.8,7.4,2.8,8.7,1c1.3-1.8-1.4-5.8-4.1-7.7c-2.7-1.8-4.5-0.9-5.8,1
				C401.8,45.3,401.6,47.3,404.3,49.2z"/>
			<ellipse transform="matrix(0.9433 -0.332 0.332 0.9433 6.4313 141.1385)" class="st14" cx="416.2" cy="51.7" rx="5.8" ry="4.8"/>
			<path class="st13" d="M423.4,42.5c-1,3.2-4,6.8-6.1,6.2c-2.1-0.7-2.6-5.4-1.6-8.6c1-3.2,3-3.5,5.1-2.8S424.3,39.3,423.4,42.5z"/>
		</g>
		
			<rect x="414.2" y="33.3" transform="matrix(0.7071 0.7071 -0.7071 0.7071 155.8755 -279.4718)" class="st12" width="2.2" height="30.2"/>
	</g>
	<path class="st13" d="M432.9,23.7h-35.3c-1.5,0-2.7-1.2-2.7-2.7l0,0c0-1.5,1.2-2.7,2.7-2.7h35.3c1.5,0,2.7,1.2,2.7,2.7l0,0
		C435.6,22.5,434.4,23.7,432.9,23.7z"/>
	<path class="st15" d="M432.9,18.3h-4.7c1.5,0,2.7,1.2,2.7,2.7c0,1.5-1.2,2.7-2.7,2.7h4.7c1.5,0,2.7-1.2,2.7-2.7
		C435.6,19.5,434.4,18.3,432.9,18.3z"/>
	<path class="st10" d="M428.3,18.3h-26c-1,0-1.9-0.8-1.9-1.9l0,0c0-1,0.8-1.9,1.9-1.9h26c1,0,1.9,0.8,1.9,1.9l0,0
		C430.1,17.5,429.3,18.3,428.3,18.3z"/>
	<rect x="407.5" class="st14" width="15.7" height="14.6"/>
	<rect x="420" class="st15" width="3.1" height="14.6"/>
	<path class="st16" d="M411.1,4.9c0-2-1.6-3.7-3.7-3.7v7.3C409.5,8.6,411.1,6.9,411.1,4.9z"/>
	<path class="st17" d="M430.6,23.7h-5.5c2.8,0,5,2.2,5,5v65.6c0,2.8-2.2,5-5,5h5.5c2.8,0,5-2.2,5-5V28.7
		C435.6,25.9,433.4,23.7,430.6,23.7z"/>
	<path class="st18" d="M400,23.7h5.5c-2.8,0-5,2.2-5,5v65.6c0,2.8,2.2,5,5,5H400c-2.8,0-5-2.2-5-5V28.7
		C395,25.9,397.2,23.7,400,23.7z"/>
</g>
</svg>
