<?xml version="1.0" encoding="utf-8"?>
<!-- Generator: Adobe Illustrator 25.1.0, SVG Export Plug-In . SVG Version: 6.00 Build 0)  -->
<svg version="1.1" id="Layer_1" xmlns="http://www.w3.org/2000/svg" xmlns:xlink="http://www.w3.org/1999/xlink" x="0px" y="0px"
	 viewBox="0 0 300.6 228.3" style="enable-background:new 0 0 300.6 228.3;" xml:space="preserve">
<style type="text/css">
	.st0{fill:#1B5E53;}
	.st1{fill:#00A88F;}
	.st2{fill:#D6D6D6;}
	.st3{fill:#FFFFFC;}
	.st4{fill:#F0EBE4;}
	.st5{fill:#F4D92A;}
	.st6{fill:#EBEEF7;}
	.st7{fill:#FFF9EA;}
	.st8{opacity:0.1;}
	.st9{fill:none;}
	.st10{fill:#5DAFA1;}
	.st11{fill:#FAF8F6;}
	.st12{fill:#F0EAE3;}
	.st13{fill:#FFFFFF;}
	.st14{fill:#EAE3DE;}
	.st15{fill:#DACFC6;}
	.st16{opacity:5.000000e-02;}
</style>
<g>
	<g>
		<path class="st0" d="M51.8,110c0,0.1-0.1,0.2-0.2,0.2h-8.9c-0.1,0-0.2-0.1-0.2-0.2v-1.1c0-0.1,0-0.2,0.1-0.3l7.1-9.6h-6.5
			c-0.1,0-0.2-0.1-0.2-0.2v-1c0-0.1,0.1-0.2,0.2-0.2h8.4c0.1,0,0.2,0.1,0.2,0.2v1.2c0,0.1,0,0.2-0.1,0.3l-7,9.6h7
			c0.1,0,0.2,0.1,0.2,0.2V110z"/>
		<path class="st0" d="M59.1,110.2c-0.1,0-0.2-0.1-0.2-0.2l0-1.3c-0.6,1-1.6,1.7-3,1.7c-2.5,0-3.8-2.1-3.8-4.8s1.4-4.8,3.9-4.8
			c1.3,0,2.3,0.6,2.9,1.6l0-1.2c0-0.1,0.1-0.2,0.2-0.2h1.3c0.1,0,0.2,0.1,0.2,0.2l-0.1,4.4l0.1,4.5c0,0.1-0.1,0.2-0.2,0.2H59.1z
			 M56.4,109.1c1.6,0,2.6-1.2,2.6-3.5c0-2.2-0.8-3.5-2.3-3.7c-0.1,0-0.3,0-0.4,0c-1.7,0.1-2.4,1.5-2.4,3.5
			C53.8,107.6,54.6,109.1,56.4,109.1z"/>
		<path class="st0" d="M67.3,106.5l0.1,3.4c0,0.1-0.1,0.2-0.2,0.2h-1.4c-0.1,0-0.2-0.1-0.2-0.2l0.1-3.4l-0.1-5.5
			c0-0.1,0.1-0.2,0.2-0.2h1.3c0.1,0,0.2,0.1,0.2,0.2l0,1.4c0.6-1,1.5-1.8,2.9-1.8c1.3,0,2.3,0.6,2.7,1.9c0.6-1.3,1.6-1.9,2.9-1.9
			c1.8,0,2.9,1.2,2.9,3.7v2.2l0,3.4c0,0.1-0.1,0.2-0.2,0.2h-1.3c-0.1,0-0.2-0.1-0.2-0.2l0.1-3.4v-2.1c0-1.7-0.7-2.4-1.8-2.4
			c-1,0-1.8,0.9-2.2,2.4v2.1L73,110c0,0.1-0.1,0.2-0.2,0.2h-1.3c-0.1,0-0.2-0.1-0.2-0.2l0.1-3.4v-2.1c0-1.7-0.7-2.4-1.8-2.4
			c-1.1,0-2,1-2.3,2.8V106.5z"/>
		<path class="st0" d="M86.8,110.2c-0.1,0-0.2-0.1-0.2-0.2l0-1.3c-0.6,1-1.6,1.7-3,1.7c-2.5,0-3.8-2.1-3.8-4.8s1.4-4.8,3.9-4.8
			c1.3,0,2.3,0.6,2.9,1.6l0-1.2c0-0.1,0.1-0.2,0.2-0.2h1.3c0.1,0,0.2,0.1,0.2,0.2l-0.1,4.4l0.1,4.5c0,0.1-0.1,0.2-0.2,0.2H86.8z
			 M84.1,109.1c1.6,0,2.6-1.2,2.6-3.5c0-2.2-0.8-3.5-2.3-3.7c-0.1,0-0.3,0-0.4,0c-1.7,0.1-2.4,1.5-2.4,3.5
			C81.6,107.6,82.4,109.1,84.1,109.1z"/>
		<path class="st0" d="M90.3,110.2c-0.1,0-0.2-0.1-0.2-0.2l0.1-6.2l-0.1-6c0-0.1,0.1-0.2,0.2-0.2h1.3c0.1,0,0.2,0.1,0.2,0.2l-0.1,6
			l0.1,6.2c0,0.1-0.1,0.2-0.2,0.2H90.3z"/>
		<path class="st0" d="M101.6,106.9c0.1,0,0.2,0.1,0.2,0.2c-0.3,1.9-1.7,3.3-4.1,3.3c-2.9,0-4.4-2-4.4-4.8c0-2.9,1.7-4.9,4.3-4.9
			c2.7,0,4.3,1.8,4.3,4.9c0,0.1-0.1,0.2-0.2,0.2h-6.8c0.1,2.2,1,3.4,2.8,3.4c1.4,0,2.2-0.7,2.5-2.1c0-0.1,0.1-0.2,0.2-0.2H101.6z
			 M97.6,101.9c-1.5,0-2.4,1-2.6,2.7h5.2C100.1,103.1,99.2,101.9,97.6,101.9z"/>
		<path class="st0" d="M110.4,110.4c-2.8,0-4.4-1.9-4.4-4.8c0-2.9,1.6-4.9,4.4-4.9c2.8,0,4.4,1.9,4.4,4.8S113.2,110.4,110.4,110.4z
			 M110.4,109.2c1.8,0,2.7-1.3,2.7-3.6s-0.9-3.7-2.7-3.7c-1.8,0-2.7,1.4-2.7,3.7S108.6,109.2,110.4,109.2z"/>
		<path class="st0" d="M120.7,110.3c-1.3,0-2.3-0.5-2.9-1.5l0,4.2c0,0.1-0.1,0.2-0.2,0.2h-1.3c-0.1,0-0.2-0.1-0.2-0.2l0.1-6.9
			l-0.1-5.1c0-0.1,0.1-0.2,0.2-0.2h1.3c0.1,0,0.2,0.1,0.2,0.2l0,1.3c0.6-1,1.6-1.7,3-1.7c2.5,0,3.8,2.1,3.8,4.8
			C124.6,108.2,123.1,110.3,120.7,110.3z M120.3,109.1c1.8,0,2.6-1.4,2.6-3.5c0-2.2-0.8-3.7-2.6-3.7c-1.6,0-2.6,1.2-2.6,3.5
			C117.7,107.8,118.6,109.1,120.3,109.1z"/>
		<path class="st0" d="M133.9,106.9c0.1,0,0.2,0.1,0.2,0.2c-0.3,1.9-1.7,3.3-4.1,3.3c-2.9,0-4.4-2-4.4-4.8c0-2.9,1.7-4.9,4.3-4.9
			c2.7,0,4.3,1.8,4.3,4.9c0,0.1-0.1,0.2-0.2,0.2h-6.8c0.1,2.2,1,3.4,2.8,3.4c1.4,0,2.2-0.7,2.5-2.1c0-0.1,0.1-0.2,0.2-0.2H133.9z
			 M130,101.9c-1.5,0-2.4,1-2.6,2.7h5.2C132.4,103.1,131.6,101.9,130,101.9z"/>
		<path class="st0" d="M140.4,108.7l-2-3.2l-1.2,1.3l0,3.2c0,0.1-0.1,0.2-0.2,0.2h-1.3c-0.1,0-0.2-0.1-0.2-0.2l0.1-6.1l-0.1-6.2
			c0-0.1,0.1-0.2,0.2-0.2h1.3c0.1,0,0.2,0.1,0.2,0.2l-0.1,6.1v1l3.5-3.9c0.1-0.1,0.2-0.1,0.3-0.1h1.5c0.1,0,0.1,0.1,0.1,0.1l-3,3.3
			l3.4,5.7c0,0.1,0,0.2-0.1,0.2h-1.5c-0.1,0-0.2-0.1-0.3-0.2L140.4,108.7z"/>
		<path class="st0" d="M144.3,110.2c-0.1,0-0.2-0.1-0.2-0.2l0.1-6.2l-0.1-6c0-0.1,0.1-0.2,0.2-0.2h1.3c0.1,0,0.2,0.1,0.2,0.2l-0.1,6
			l0.1,6.2c0,0.1-0.1,0.2-0.2,0.2H144.3z"/>
		<path class="st0" d="M147.8,110.2c-0.1,0-0.2-0.1-0.2-0.2l0.1-4.6l-0.1-4.3c0-0.1,0.1-0.2,0.2-0.2h1.3c0.1,0,0.2,0.1,0.2,0.2
			l-0.1,4.3l0.1,4.6c0,0.1-0.1,0.2-0.2,0.2H147.8z M147.8,99.8c-0.1,0-0.2-0.1-0.2-0.2v-1.4c0-0.1,0.1-0.2,0.2-0.2h1.3
			c0.1,0,0.2,0.1,0.2,0.2v1.4c0,0.1-0.1,0.2-0.2,0.2H147.8z"/>
		<path class="st0" d="M151.3,110.2c-0.1,0-0.2-0.1-0.2-0.2l0.1-4.1l-0.1-4.9c0-0.1,0.1-0.2,0.2-0.2h1.2c0.1,0,0.2,0.1,0.2,0.2
			l0,1.4c0.6-0.9,1.6-1.8,3.1-1.8c1.9,0,3.1,1.3,3.1,3.7v1.9l0.1,3.8c0,0.1-0.1,0.2-0.2,0.2h-1.3c-0.1,0-0.2-0.1-0.2-0.2l0-3.8v-1.8
			c0-1.7-0.8-2.4-2-2.4c-1.2,0-2.2,1-2.6,2.8v1.4l0,3.8c0,0.1-0.1,0.2-0.2,0.2H151.3z"/>
		<path class="st0" d="M168.6,106.9c0.1,0,0.2,0.1,0.2,0.2c-0.3,1.9-1.7,3.3-4.1,3.3c-2.9,0-4.4-2-4.4-4.8c0-2.9,1.7-4.9,4.3-4.9
			s4.3,1.8,4.3,4.9c0,0.1-0.1,0.2-0.2,0.2h-6.8c0.1,2.2,1,3.4,2.8,3.4c1.4,0,2.2-0.7,2.5-2.1c0-0.1,0.1-0.2,0.2-0.2H168.6z
			 M164.6,101.9c-1.5,0-2.4,1-2.6,2.7h5.2C167.1,103.1,166.2,101.9,164.6,101.9z"/>
		<path class="st0" d="M169.6,111.9c-0.1,0-0.2-0.1-0.1-0.2l0.4-1.6v-1.7c0-0.1,0.1-0.2,0.2-0.2h1.3c0.1,0,0.2,0.1,0.2,0.2v1.5
			c0,0.1,0,0.2-0.1,0.3l-1,1.5c-0.1,0.1-0.2,0.1-0.3,0.1H169.6z"/>
		<path class="st0" d="M49.9,131.6c0,0.1-0.1,0.2-0.2,0.2h-6.9c-0.1,0-0.2-0.1-0.2-0.2v-0.9c0-0.1,0-0.2,0.1-0.3l5-6.6h-4.5
			c-0.1,0-0.2-0.1-0.2-0.2v-0.9c0-0.1,0.1-0.2,0.2-0.2h6.3c0.1,0,0.2,0.1,0.2,0.2v0.9c0,0.1,0,0.2-0.1,0.3l-5,6.6h5.2
			c0.1,0,0.2,0.1,0.2,0.2V131.6z"/>
		<path class="st0" d="M57.4,131.8c-0.1,0-0.2-0.1-0.2-0.2l0-1.3c-0.6,1-1.6,1.7-3,1.7c-2.5,0-3.8-2.1-3.8-4.8
			c0-2.7,1.4-4.8,3.9-4.8c1.3,0,2.3,0.6,2.9,1.6l0-1.2c0-0.1,0.1-0.2,0.2-0.2h1.3c0.1,0,0.2,0.1,0.2,0.2l-0.1,4.4l0.1,4.5
			c0,0.1-0.1,0.2-0.2,0.2H57.4z M54.7,130.7c1.6,0,2.6-1.2,2.6-3.5c0-2.2-0.8-3.5-2.3-3.7c-0.1,0-0.3,0-0.4,0
			c-1.7,0.1-2.4,1.5-2.4,3.5C52.1,129.2,53,130.7,54.7,130.7z"/>
		<path class="st0" d="M67,132c-1.9,0-3.1-1.3-3.1-3.7v-1.8l0-3.8c0-0.1,0.1-0.2,0.2-0.2h1.3c0.1,0,0.2,0.1,0.2,0.2l0,3.8v1.8
			c0,1.7,0.8,2.4,2,2.4c1.2,0,2.2-1,2.6-2.8v-1.4l0-3.8c0-0.1,0.1-0.2,0.2-0.2h1.3c0.1,0,0.2,0.1,0.2,0.2l-0.1,4.1l0,4.9
			c0,0.1-0.1,0.2-0.2,0.2h-1.2c-0.1,0-0.2-0.1-0.2-0.2l0.1-1.4C69.5,131.1,68.5,132,67,132z"/>
		<path class="st0" d="M77.9,131.9c-1.3,0-2.3-0.6-2.9-1.6l0,1.2c0,0.1-0.1,0.2-0.2,0.2h-1.3c-0.1,0-0.2-0.1-0.2-0.2l0.1-6.7
			l-0.1-5.5c0-0.1,0.1-0.2,0.2-0.2h1.3c0.1,0,0.2,0.1,0.2,0.2l0,4.6c0.6-1,1.6-1.6,3-1.6c2.5,0,3.8,2.1,3.8,4.8
			C81.8,129.8,80.4,131.9,77.9,131.9z M77.5,130.7c1.8,0,2.6-1.4,2.6-3.5c0-2.2-0.8-3.7-2.6-3.7c-1.6,0-2.6,1.2-2.6,3.5
			C74.9,129.4,75.9,130.7,77.5,130.7z"/>
		<path class="st0" d="M87.3,132c-2.8,0-4.4-1.9-4.4-4.8c0-2.9,1.6-4.9,4.4-4.9c2.8,0,4.4,1.9,4.4,4.8C91.7,130,90.1,132,87.3,132z
			 M87.3,130.8c1.8,0,2.7-1.3,2.7-3.6c0-2.3-0.9-3.7-2.7-3.7c-1.8,0-2.7,1.4-2.7,3.7C84.5,129.5,85.4,130.8,87.3,130.8z"/>
		<path class="st0" d="M99.6,131.8c-0.1,0-0.2-0.1-0.2-0.2l0-1.3c-0.6,1-1.6,1.7-3,1.7c-2.5,0-3.8-2.1-3.8-4.8
			c0-2.7,1.4-4.8,3.9-4.8c1.3,0,2.3,0.5,2.9,1.6l0-4.5c0-0.1,0.1-0.2,0.2-0.2h1.3c0.1,0,0.2,0.1,0.2,0.2l-0.1,5.4l0.1,6.8
			c0,0.1-0.1,0.2-0.2,0.2H99.6z M96.9,130.7c1.6,0,2.6-1.2,2.6-3.5c0-2.3-0.9-3.7-2.6-3.7c-1.8,0-2.6,1.5-2.6,3.5
			C94.4,129.3,95.2,130.7,96.9,130.7z"/>
		<path class="st0" d="M110.8,128.5c0.1,0,0.2,0.1,0.2,0.2c-0.3,1.9-1.7,3.3-4.1,3.3c-2.9,0-4.4-2-4.4-4.8c0-2.9,1.7-4.9,4.3-4.9
			c2.7,0,4.3,1.8,4.3,4.9c0,0.1-0.1,0.2-0.2,0.2h-6.8c0.1,2.2,1,3.4,2.8,3.4c1.4,0,2.2-0.7,2.5-2.1c0-0.1,0.1-0.2,0.2-0.2H110.8z
			 M106.8,123.5c-1.5,0-2.4,1-2.6,2.7h5.2C109.3,124.7,108.5,123.5,106.8,123.5z"/>
		<path class="st0" d="M116,131.8c-0.1,0-0.2-0.1-0.2-0.2l0.1-4.6l-0.1-4.3c0-0.1,0.1-0.2,0.2-0.2h1.3c0.1,0,0.2,0.1,0.2,0.2
			l-0.1,4.3l0.1,4.6c0,0.1-0.1,0.2-0.2,0.2H116z M116,121.4c-0.1,0-0.2-0.1-0.2-0.2v-1.4c0-0.1,0.1-0.2,0.2-0.2h1.3
			c0.1,0,0.2,0.1,0.2,0.2v1.4c0,0.1-0.1,0.2-0.2,0.2H116z"/>
		<path class="st0" d="M119.5,131.8c-0.1,0-0.2-0.1-0.2-0.2l0.1-4.1l-0.1-4.9c0-0.1,0.1-0.2,0.2-0.2h1.2c0.1,0,0.2,0.1,0.2,0.2
			l0,1.4c0.6-0.9,1.6-1.8,3.1-1.8c1.9,0,3.1,1.3,3.1,3.7v1.9l0.1,3.8c0,0.1-0.1,0.2-0.2,0.2h-1.3c-0.1,0-0.2-0.1-0.2-0.2l0-3.8V126
			c0-1.7-0.8-2.4-2-2.4c-1.2,0-2.2,1-2.6,2.8v1.4l0,3.8c0,0.1-0.1,0.2-0.2,0.2H119.5z"/>
		<path class="st0" d="M132.5,132c-2.4,0-4.1-1.1-4.2-3.2c0-0.1,0.1-0.2,0.2-0.2h1.2c0.1,0,0.2,0.1,0.2,0.2c0.1,1.5,1,2.1,2.6,2.1
			c1.4,0,2.3-0.6,2.3-1.6c0-2.4-6.3-0.5-6.3-4.2c0-1.8,1.5-2.7,3.7-2.7c2.1,0,3.7,0.9,3.9,2.8c0,0.1-0.1,0.2-0.2,0.2h-1.2
			c-0.1,0-0.2-0.1-0.2-0.2c-0.1-1.2-1-1.7-2.3-1.7c-1.3,0-2.1,0.5-2.1,1.5c0,2.3,6.3,0.3,6.3,4.2C136.4,130.9,134.7,132,132.5,132z"
			/>
		<path class="st0" d="M145.7,128.5c0.1,0,0.2,0.1,0.2,0.2c-0.3,1.9-1.7,3.3-4.1,3.3c-2.9,0-4.4-2-4.4-4.8c0-2.9,1.7-4.9,4.3-4.9
			c2.7,0,4.3,1.8,4.3,4.9c0,0.1-0.1,0.2-0.2,0.2h-6.8c0.1,2.2,1,3.4,2.8,3.4c1.4,0,2.2-0.7,2.5-2.1c0-0.1,0.1-0.2,0.2-0.2H145.7z
			 M141.8,123.5c-1.5,0-2.4,1-2.6,2.7h5.2C144.2,124.7,143.4,123.5,141.8,123.5z"/>
		<path class="st0" d="M152.2,130.3l-2-3.2l-1.2,1.3l0,3.2c0,0.1-0.1,0.2-0.2,0.2h-1.3c-0.1,0-0.2-0.1-0.2-0.2l0.1-6.1l-0.1-6.2
			c0-0.1,0.1-0.2,0.2-0.2h1.3c0.1,0,0.2,0.1,0.2,0.2l-0.1,6.1v1l3.5-3.9c0.1-0.1,0.2-0.1,0.3-0.1h1.5c0.1,0,0.1,0.1,0.1,0.1l-3,3.3
			l3.4,5.7c0,0.1,0,0.2-0.1,0.2h-1.5c-0.1,0-0.2-0.1-0.3-0.2L152.2,130.3z"/>
		<path class="st0" d="M161.8,131.8c-0.1,0-0.2-0.1-0.2-0.2l0-1.3c-0.6,1-1.6,1.7-3,1.7c-2.5,0-3.8-2.1-3.8-4.8
			c0-2.7,1.4-4.8,3.9-4.8c1.3,0,2.3,0.6,2.9,1.6l0-1.2c0-0.1,0.1-0.2,0.2-0.2h1.3c0.1,0,0.2,0.1,0.2,0.2l-0.1,4.4l0.1,4.5
			c0,0.1-0.1,0.2-0.2,0.2H161.8z M159.1,130.7c1.6,0,2.6-1.2,2.6-3.5c0-2.2-0.8-3.5-2.3-3.7c-0.1,0-0.3,0-0.4,0
			c-1.7,0.1-2.4,1.5-2.4,3.5C156.5,129.2,157.3,130.7,159.1,130.7z"/>
		<path class="st0" d="M169.6,131.5c0,0.1-0.1,0.2-0.2,0.2c-0.4,0.1-0.8,0.2-1.2,0.2c-1.4,0-2.5-0.7-2.5-2.7v-5.4h-1
			c-0.1,0-0.2-0.1-0.2-0.2v-0.9c0-0.1,0.1-0.2,0.2-0.2h1l0-2.1c0-0.1,0.1-0.2,0.2-0.2h1.3c0.1,0,0.2,0.1,0.2,0.2l0,2.1h2.1
			c0.1,0,0.2,0.1,0.2,0.2v0.9c0,0.1-0.1,0.2-0.2,0.2h-2.1v5.4c0,1.1,0.4,1.5,1.2,1.5c0.3,0,0.7-0.1,0.9-0.1c0.1,0,0.2,0,0.2,0.1
			V131.5z"/>
		<path class="st0" d="M177,131.8c-0.1,0-0.2-0.1-0.2-0.2l0-1.3c-0.6,1-1.6,1.7-3,1.7c-2.5,0-3.8-2.1-3.8-4.8c0-2.7,1.4-4.8,3.9-4.8
			c1.3,0,2.3,0.6,2.9,1.6l0-1.2c0-0.1,0.1-0.2,0.2-0.2h1.3c0.1,0,0.2,0.1,0.2,0.2l-0.1,4.4l0.1,4.5c0,0.1-0.1,0.2-0.2,0.2H177z
			 M174.3,130.7c1.6,0,2.6-1.2,2.6-3.5c0-2.2-0.8-3.5-2.3-3.7c-0.1,0-0.3,0-0.4,0c-1.7,0.1-2.4,1.5-2.4,3.5
			C171.7,129.2,172.5,130.7,174.3,130.7z"/>
	</g>
</g>
<g>
	<g>
		<path class="st1" d="M280,15.3l6.1-4l-2.6-2.1l-7.7,0.1c-0.2,0-0.3-0.1-0.3-0.3V4c0-0.2,0.1-0.3,0.3-0.3L288,3.9l12.3-0.1
			c0.2,0,0.3,0.1,0.3,0.3V9c0,0.2-0.1,0.3-0.3,0.3l-10.2-0.1l10.3,7.4c0.1,0.1,0.3,0.3,0.3,0.5v5.8c0,0.1-0.1,0.2-0.3,0.1l-10-8.2
			L275.7,25c-0.1,0.1-0.3,0-0.3-0.1v-6.1c0-0.2,0.1-0.4,0.3-0.5L280,15.3z"/>
		<path class="st1" d="M275.4,25.9c0-0.2,0.1-0.3,0.3-0.3l9,0.1l8.9-0.1c0.2,0,0.3,0.1,0.3,0.3v4.8c0,0.2-0.1,0.3-0.3,0.3l-2.8-0.1
			c2.2,1.4,3.3,3.9,3.3,6.6c0,0.3,0,0.6-0.1,0.8c0,0.2-0.2,0.3-0.4,0.3h-3.3c-0.2,0-0.3-0.1-0.3-0.3c0-0.2,0-0.5,0-0.7
			c0-3.8-2.1-6.7-6.4-6.6h-7.9c-0.2,0-0.3-0.1-0.3-0.3V25.9z"/>
		<path class="st1" d="M281.7,56.4c0,0.2-0.1,0.3-0.3,0.3c-3.4-0.5-6.4-3.7-6.4-8.9c0-6.2,4.1-9.5,9.7-9.5c5.9,0,9.8,3.5,9.8,9.4
			c0,6.1-4,9.5-10.5,9.6c-0.2,0-0.3-0.1-0.3-0.3V43.7c-3.5,0.2-5,1.6-5,4.2c0,1.8,0.8,3.1,2.8,3.6c0.2,0,0.3,0.2,0.3,0.4V56.4z
			 M290.9,47.7c0-2.2-1.3-3.5-3.9-3.9v7.6C289,51.2,290.9,50.1,290.9,47.7z"/>
		<path class="st1" d="M282.1,63.9l-6.3,0.1c-0.2,0-0.3-0.1-0.3-0.3v-4.9c0-0.2,0.1-0.3,0.3-0.3l6.3,0.1l11.6,0
			c0.2,0,0.3,0.1,0.3,0.3v4.6c0,0.2-0.1,0.3-0.3,0.3l-2-0.1c1.8,1.3,2.8,3,2.8,5.3c0,2.6-1.1,4.4-3.5,5.3c2.8,1.6,3.5,3.5,3.5,5.7
			c0,3.7-2.3,5.9-7.2,5.9h-5.1l-6.3,0.1c-0.2,0-0.3-0.1-0.3-0.3v-4.9c0-0.2,0.1-0.3,0.3-0.3l6.3,0.1h5c2.2,0,3.3-0.9,3.3-2.4
			c0-1.5-2-3.3-5.8-3.3h-2.6l-6.3,0.1c-0.2,0-0.3-0.1-0.3-0.3v-4.9c0-0.2,0.1-0.3,0.3-0.3l6.3,0.1h5c2.2,0,3.3-0.9,3.3-2.4
			s-2-3.3-5.8-3.3H282.1z"/>
		<path class="st1" d="M281.7,105.1c0,0.2-0.1,0.3-0.3,0.3c-3.4-0.5-6.4-3.7-6.4-8.9c0-6.2,4.1-9.5,9.7-9.5c5.9,0,9.8,3.5,9.8,9.4
			c0,6.1-4,9.5-10.5,9.6c-0.2,0-0.3-0.1-0.3-0.3V92.4c-3.5,0.2-5,1.6-5,4.2c0,1.8,0.8,3.1,2.8,3.6c0.2,0,0.3,0.2,0.3,0.4V105.1z
			 M290.9,96.5c0-2.2-1.3-3.5-3.9-3.9v7.6C289,100,290.9,98.8,290.9,96.5z"/>
		<path class="st1" d="M295.8,114.3c0-0.2,0.1-0.3,0.3-0.3h4.2c0.2,0,0.3,0.1,0.3,0.3v4.8c0,0.2-0.1,0.3-0.3,0.3h-4.2
			c-0.2,0-0.3-0.1-0.3-0.3V114.3z M275.4,114.3c0-0.2,0.1-0.3,0.3-0.3l8.9,0.1l9-0.1c0.2,0,0.3,0.1,0.3,0.3v4.9
			c0,0.2-0.1,0.3-0.3,0.3l-9-0.1l-8.9,0.1c-0.2,0-0.3-0.1-0.3-0.3V114.3z"/>
		<path class="st1" d="M275.4,121.8c0-0.2,0.1-0.3,0.3-0.3l12.3,0.1l12.3-0.1c0.2,0,0.3,0.1,0.3,0.3v4.7c0,0.2-0.1,0.3-0.3,0.3
			l-12.3-0.1l-12.3,0.1c-0.2,0-0.3-0.1-0.3-0.3V121.8z"/>
		<path class="st1" d="M295.8,129.1c0-0.2,0.1-0.3,0.3-0.3h4.2c0.2,0,0.3,0.1,0.3,0.3v4.8c0,0.2-0.1,0.3-0.3,0.3h-4.2
			c-0.2,0-0.3-0.1-0.3-0.3V129.1z M275.4,129.1c0-0.2,0.1-0.3,0.3-0.3l8.9,0.1l9-0.1c0.2,0,0.3,0.1,0.3,0.3v4.9
			c0,0.2-0.1,0.3-0.3,0.3l-9-0.1l-8.9,0.1c-0.2,0-0.3-0.1-0.3-0.3V129.1z"/>
		<path class="st1" d="M282.1,148.5l-6.3,0.1c-0.2,0-0.3-0.1-0.3-0.3v-4.9c0-0.2,0.1-0.3,0.3-0.3l6.3,0.1l11.6,0
			c0.2,0,0.3,0.1,0.3,0.3v4.6c0,0.2-0.1,0.3-0.3,0.3l-2-0.1c1.8,1.3,2.8,3,2.8,5.3c0,2.6-1.1,4.4-3.5,5.3c2.8,1.6,3.5,3.5,3.5,5.7
			c0,3.7-2.3,5.9-7.2,5.9h-5.1l-6.3,0.1c-0.2,0-0.3-0.1-0.3-0.3v-4.9c0-0.2,0.1-0.3,0.3-0.3l6.3,0.1h5c2.2,0,3.3-0.9,3.3-2.4
			c0-1.5-2-3.3-5.8-3.3h-2.6l-6.3,0.1c-0.2,0-0.3-0.1-0.3-0.3v-4.9c0-0.2,0.1-0.3,0.3-0.3l6.3,0.1h5c2.2,0,3.3-0.9,3.3-2.4
			s-2-3.3-5.8-3.3H282.1z"/>
		<path class="st1" d="M275.4,185.4c0-0.2,0.1-0.3,0.3-0.3l1.8,0.1c-1.6-1.3-2.5-3.1-2.5-5.5c0-5.3,4.2-8,9.6-8
			c5.4,0,9.7,3.1,9.7,8.1c0,2.3-0.8,4.1-2.3,5.4l1.7-0.1c0.2,0,0.3,0.1,0.3,0.3v4.8c0,0.2-0.1,0.3-0.3,0.3l-9-0.1l-8.9,0.1
			c-0.2,0-0.3-0.1-0.3-0.3V185.4z M278.7,181.1c0,2.6,2,4,5.9,4.1c4,0,6.1-1.4,6.2-4c0.1-2.7-2-4.1-5.8-4.1
			C280.8,177.1,278.6,178.6,278.7,181.1z"/>
		<path class="st1" d="M275,200.7c0-5.4,2.2-8.9,6.3-9c0.2,0,0.3,0.1,0.3,0.3v4.6c0,0.2-0.1,0.3-0.3,0.3c-2.1,0.1-3,1.5-3,4
			c0,2.1,0.8,3.3,2.3,3.3c3.5,0,0.1-12.1,7.9-12.1c3.9,0,5.9,3.1,5.9,8.1c0,4.9-1.9,8.1-5.8,8.5c-0.2,0-0.3-0.1-0.3-0.3V204
			c0-0.2,0.1-0.3,0.3-0.4c1.6-0.3,2.6-1.3,2.6-3.5c0-1.8-0.6-2.9-2.2-2.9c-3.5,0,0.1,12.1-7.8,12.1C277.2,209.4,275,205.7,275,200.7
			z"/>
		<path class="st1" d="M276.1,221.5c-0.2,0-0.4-0.1-0.4-0.3c-0.4-1-0.6-2.2-0.6-3.4c0-3.1,1.6-6.1,5.8-6.1l9.3,0v-2.1
			c0-0.2,0.1-0.3,0.3-0.3h3.2c0.2,0,0.3,0.1,0.3,0.3v2.1l4.3,0c0.2,0,0.3,0.1,0.3,0.3v4.8c0,0.2-0.1,0.3-0.3,0.3l-4.3,0v4.1
			c0,0.2-0.1,0.3-0.3,0.3h-3.2c-0.2,0-0.3-0.1-0.3-0.3v-4.1l-9.1,0c-1.6,0-2.1,0.8-2.1,2c0,0.9,0.1,1.5,0.3,2.1
			c0,0.2-0.1,0.3-0.3,0.3H276.1z"/>
		<path class="st1" d="M295.8,223.2c0-0.2,0.1-0.3,0.3-0.3h4.2c0.2,0,0.3,0.1,0.3,0.3v4.8c0,0.2-0.1,0.3-0.3,0.3h-4.2
			c-0.2,0-0.3-0.1-0.3-0.3V223.2z M275.4,223.2c0-0.2,0.1-0.3,0.3-0.3l8.9,0.1l9-0.1c0.2,0,0.3,0.1,0.3,0.3v4.9
			c0,0.2-0.1,0.3-0.3,0.3l-9-0.1l-8.9,0.1c-0.2,0-0.3-0.1-0.3-0.3V223.2z"/>
	</g>
</g>
<g>
	<g>
		
			<rect x="145.8" y="180" transform="matrix(-1.836970e-16 1 -1 -1.836970e-16 341.5067 37.8206)" class="st2" width="12.1" height="19.3"/>
	</g>
	<g>
		<path class="st3" d="M0,210.8c0,1.6,1.3,1.3,3,1.3c0,0,20.1-1,53.4-3c32-1.9,96.3-4.2,96.3-4.2c1.6,0,3-1.3,3-3v-24.8
			c0-1.6-1.3-3-3-3c0,0-64.3-2-96.3-4.2c-27.7-1.8-53.4-3-53.4-3c-1.6,0-3-0.3-3,1.3V210.8z"/>
	</g>
	<g>
		<path class="st3" d="M157.9,195.3V184c0-1.5,1.2-2.7,2.7-2.7l15.3,1.2c1.5,0,2.7,1.2,2.7,2.7v9c0,1.5-1.2,2.7-2.7,2.7l-15.3,1.2
			C159.1,198,157.9,196.8,157.9,195.3z"/>
	</g>
	<g>
		<g>
			<path class="st4" d="M3,167.2c-1.6,0-3-0.3-3,1.3v42.3c0,1.6,1.3,1.3,3,1.3c0,0,1.7-0.1,5-0.3v-44.5C4.8,167.2,3,167.2,3,167.2z"
				/>
		</g>
	</g>
	<g>
		<g>
			<path class="st4" d="M177.6,185.6C177.6,185.6,177.6,185.6,177.6,185.6l-17.3-1.2c-0.4,0-0.6-0.3-0.6-0.7c0-0.4,0.3-0.6,0.7-0.6
				l17.3,1.2c0.4,0,0.6,0.3,0.6,0.7C178.2,185.4,177.9,185.6,177.6,185.6z"/>
		</g>
		<g>
			<path class="st4" d="M177.6,188.9C177.6,188.9,177.6,188.9,177.6,188.9l-17.3-0.3c-0.4,0-0.6-0.3-0.6-0.7c0-0.4,0.3-0.6,0.7-0.6
				l17.3,0.3c0.4,0,0.6,0.3,0.6,0.7C178.2,188.6,177.9,188.9,177.6,188.9z"/>
		</g>
		<g>
			<path class="st4" d="M160.3,196.2c-0.3,0-0.6-0.3-0.6-0.6c0-0.4,0.2-0.7,0.6-0.7l17.3-1.2c0.4,0,0.7,0.2,0.7,0.6
				c0,0.4-0.2,0.7-0.6,0.7L160.3,196.2C160.3,196.2,160.3,196.2,160.3,196.2z"/>
		</g>
		<g>
			<path class="st4" d="M160.3,192.1c-0.4,0-0.6-0.3-0.6-0.6c0-0.4,0.3-0.7,0.6-0.7l17.3-0.3c0.4,0,0.7,0.3,0.7,0.6
				c0,0.4-0.3,0.7-0.6,0.7L160.3,192.1C160.3,192.1,160.3,192.1,160.3,192.1z"/>
		</g>
	</g>
	<g>
		<path class="st4" d="M157.9,197.2v-15c0-0.7,0.6-1.3,1.3-1.3l0,0c0.7,0,1.3,0.6,1.3,1.3v15c0,0.7-0.6,1.3-1.3,1.3l0,0
			C158.5,198.5,157.9,197.9,157.9,197.2z"/>
	</g>
	<g>
		<g>
			<path class="st5" d="M72.6,208.3v-37.2c-5.9-0.3-11.4-0.6-16.2-0.9c-13.9-0.9-27.3-1.7-37.2-2.2v43.3c9.1-0.5,21.7-1.2,37.2-2.1
				C61.2,208.9,66.7,208.6,72.6,208.3z"/>
		</g>
	</g>
	<g>
		
			<rect x="99.1" y="153.5" transform="matrix(-1.836970e-16 1 -1 -1.836970e-16 297.6597 80.8414)" class="st6" width="18.5" height="71.6"/>
	</g>
	<g>
		<polygon class="st7" points="56.1,185.3 48.9,185.3 48.9,178.1 40.2,178.1 40.2,185.3 33,185.3 33,194 40.2,194 40.2,201.2 
			48.9,201.2 48.9,194 56.1,194 		"/>
	</g>
	<g class="st8">
		<path d="M0,210v0.8c0,1.6,1.3,1.3,3,1.3c0,0,20.1-1,53.4-3c32-1.9,96.3-4.2,96.3-4.2c1.6,0,3-1.3,3-3V189
			C153.7,189.6,160.3,205.4,0,210z"/>
	</g>
	<g class="st8">
		<path d="M158.3,194.8c-0.1,0-0.3,0-0.4,0v2.4c0,0.7,0.6,1.3,1.3,1.3c0.4,0,0.8-0.2,1.1-0.5c0.1,0,0.2,0,0.3,0l15.3-1.2
			c1.5,0,2.7-1.2,2.7-2.7v-4.7C172.1,192.2,165.5,193.9,158.3,194.8z"/>
	</g>
	<g>
		<rect x="78.5" y="186.3" class="st9" width="54.3" height="7.8"/>
		<path class="st10" d="M81.4,191.1l-0.9-1.4l-0.5,0.6l0,1.8c0,0,0,0.1-0.1,0.1h-1.1c0,0-0.1,0-0.1-0.1l0-2.9l0-2.9
			c0,0,0-0.1,0.1-0.1h1.1c0,0,0.1,0,0.1,0.1l0,2.4l1.7-2.4c0,0,0.1-0.1,0.1-0.1h1.4c0,0,0.1,0,0,0.1l-1.9,2.3l2.4,3.4
			c0,0,0,0.1,0,0.1h-1.4c0,0-0.1,0-0.1-0.1L81.4,191.1z"/>
		<path class="st10" d="M83.9,192.1C83.8,192.1,83.8,192.1,83.9,192.1l0-2.2l0-2.1c0,0,0-0.1,0.1-0.1H85c0,0,0.1,0,0.1,0.1l0,0.7
			c0.3-0.5,0.9-0.8,1.5-0.8c0.1,0,0.1,0,0.2,0c0,0,0.1,0.1,0.1,0.1v0.8c0,0,0,0.1-0.1,0.1c0,0-0.1,0-0.2,0c-0.9,0-1.6,0.5-1.5,1.5
			v1.8c0,0,0,0.1-0.1,0.1H83.9z"/>
		<path class="st10" d="M91,190.7C91,190.7,91,190.7,91,190.7c0,0.9-0.8,1.6-2,1.6c-1.4,0-2.2-0.9-2.2-2.3c0-1.4,0.8-2.3,2.2-2.3
			c1.4,0,2.2,0.9,2.2,2.5c0,0,0,0.1-0.1,0.1H88c0,0.8,0.4,1.2,1,1.2c0.4,0,0.7-0.2,0.8-0.7c0,0,0.1-0.1,0.1-0.1H91z M88.9,188.5
			c-0.5,0-0.8,0.3-0.9,0.9h1.8C89.8,189,89.5,188.5,88.9,188.5z"/>
		<path class="st10" d="M92.7,190.6l0,1.5c0,0,0,0.1-0.1,0.1h-1.1c0,0-0.1,0-0.1-0.1l0-1.5l0-2.7c0,0,0-0.1,0.1-0.1h1.1
			c0,0,0.1,0,0.1,0.1l0,0.5c0.3-0.4,0.7-0.6,1.2-0.6c0.6,0,1,0.3,1.2,0.8c0.4-0.7,0.8-0.8,1.3-0.8c0.9,0,1.4,0.5,1.4,1.7v1.2l0,1.5
			c0,0,0,0.1-0.1,0.1h-1.1c0,0-0.1,0-0.1-0.1l0-1.5v-1.2c0-0.5-0.2-0.8-0.6-0.8c-0.3,0-0.8,0.5-0.8,1.3v0.6l0,1.5c0,0,0,0.1-0.1,0.1
			h-1.1c0,0-0.1,0-0.1-0.1l0-1.5v-1.2c0-0.5-0.2-0.8-0.6-0.8s-0.8,0.5-0.8,1.3V190.6z"/>
		<path class="st10" d="M101.3,192.1C101.3,192.1,101.2,192.1,101.3,192.1l-0.1-0.5c-0.3,0.4-0.7,0.6-1.3,0.6c-1.2,0-1.9-1-1.9-2.2
			c0-1.3,0.7-2.3,1.9-2.3c0.5,0,1,0.2,1.3,0.5l0-0.4c0,0,0-0.1,0.1-0.1h1.1c0,0,0.1,0,0.1,0.1l0,2.1l0,2.1c0,0,0,0.1-0.1,0.1H101.3z
			 M100.3,191.4c0.6,0,0.9-0.5,0.9-1.4c0-0.9-0.3-1.4-0.9-1.4c-0.6,0-1,0.5-1,1.4C99.4,190.9,99.7,191.4,100.3,191.4z"/>
	</g>
</g>
<g>
	<g>
		<g>
			<path class="st11" d="M226.1,64.2H115.8c-1.3,0-2.1-0.8-2.1-2.1V2c0-1.3,0.8-2,2.1-2h101.7l1.7,4.4l1.6-4.4h5.4
				c1.3,0,2.6,0.7,2.6,2v60.1C228.7,63.4,227.4,64.2,226.1,64.2z"/>
		</g>
		<g>
			<path class="st12" d="M122.8,64.2h-7.3c-1.1,0-1.9-0.9-1.9-1.9V1.8c0-1,0.8-1.8,1.8-1.8h7.4V64.2z"/>
		</g>
		<g>
			<path class="st13" d="M218.9,57.5h-95.5c-0.3,0-0.6-0.3-0.6-0.6V6.5c0-0.3,0.3-0.6,0.6-0.6h95.5c0.3,0,0.6,0.3,0.6,0.6v50.4
				C219.6,57.3,219.3,57.5,218.9,57.5z"/>
		</g>
		<g>
			<rect x="143.7" y="39.2" class="st6" width="75.9" height="19.2"/>
		</g>
		<g>
			<g>
				<g>
					<path class="st10" d="M149.5,49.2h-1.1v-4.8l-1.1,0v-0.9l2.2-0.2V49.2z"/>
				</g>
				<g>
					<path class="st10" d="M151.1,47.1c0-0.7,0.1-1.2,0.4-1.6c0.3-0.4,0.6-0.6,1.1-0.6c0.2,0,0.4,0,0.5,0.1c0.1,0.1,0.3,0.2,0.4,0.4
						l0.1-0.5h1v4.3c0,0.6-0.2,1-0.5,1.3c-0.3,0.3-0.8,0.5-1.4,0.5c-0.2,0-0.4,0-0.6-0.1c-0.2-0.1-0.4-0.1-0.6-0.2l0.2-0.9
						c0.2,0.1,0.3,0.1,0.5,0.2c0.2,0,0.3,0.1,0.5,0.1c0.2,0,0.4-0.1,0.6-0.2c0.1-0.1,0.2-0.3,0.2-0.6v-0.3c-0.1,0.1-0.2,0.2-0.4,0.3
						c-0.1,0.1-0.3,0.1-0.5,0.1c-0.5,0-0.8-0.2-1.1-0.6C151.2,48.3,151.1,47.8,151.1,47.1L151.1,47.1z M152.2,47.2
						c0,0.4,0,0.7,0.1,0.9c0.1,0.2,0.3,0.3,0.5,0.3c0.1,0,0.2,0,0.3-0.1c0.1-0.1,0.2-0.1,0.2-0.2v-2c-0.1-0.1-0.1-0.2-0.2-0.3
						c-0.1-0.1-0.2-0.1-0.3-0.1c-0.2,0-0.4,0.1-0.5,0.4C152.3,46.3,152.2,46.7,152.2,47.2L152.2,47.2z"/>
				</g>
			</g>
		</g>
		<g>
			<path class="st14" d="M217.9,2.5h-95.1c-0.2,0-0.4-0.2-0.4-0.4c0-0.2,0.2-0.4,0.4-0.4h95.1c0.2,0,0.4,0.2,0.4,0.4
				C218.3,2.3,218.1,2.5,217.9,2.5z"/>
		</g>
		<g>
			<path class="st14" d="M218.7,5h-95.9c-0.2,0-0.4-0.2-0.4-0.4c0-0.2,0.2-0.4,0.4-0.4h95.9c0.2,0,0.4,0.2,0.4,0.4
				C219.1,4.8,219,5,218.7,5z"/>
		</g>
		<g>
			<g>
				<path class="st14" d="M218.7,60h-95.9c-0.2,0-0.4-0.2-0.4-0.4c0-0.2,0.2-0.4,0.4-0.4h95.9c0.2,0,0.4,0.2,0.4,0.4
					C219.1,59.9,219,60,218.7,60z"/>
			</g>
			<g>
				<path class="st14" d="M218.7,62.5h-95.9c-0.2,0-0.4-0.2-0.4-0.4c0-0.2,0.2-0.4,0.4-0.4h95.9c0.2,0,0.4,0.2,0.4,0.4
					C219.1,62.4,219,62.5,218.7,62.5z"/>
			</g>
		</g>
		<g>
			<path class="st15" d="M219.1,63.8c-0.2,0-0.4-0.2-0.4-0.4v-4.2c0-0.2,0.2-0.4,0.4-0.4c0.2,0,0.4,0.2,0.4,0.4v4.2
				C219.6,63.6,219.4,63.8,219.1,63.8z M219.1,55.5c-0.2,0-0.4-0.2-0.4-0.4v-6.7c0-0.2,0.2-0.4,0.4-0.4c0.2,0,0.4,0.2,0.4,0.4V55
				C219.6,55.3,219.4,55.5,219.1,55.5z M219.1,44.6c-0.2,0-0.4-0.2-0.4-0.4v-6.7c0-0.2,0.2-0.4,0.4-0.4c0.2,0,0.4,0.2,0.4,0.4v6.7
				C219.6,44.4,219.4,44.6,219.1,44.6z M219.1,33.8c-0.2,0-0.4-0.2-0.4-0.4v-6.7c0-0.2,0.2-0.4,0.4-0.4c0.2,0,0.4,0.2,0.4,0.4v6.7
				C219.6,33.6,219.4,33.8,219.1,33.8z M219.1,22.9c-0.2,0-0.4-0.2-0.4-0.4v-6.7c0-0.2,0.2-0.4,0.4-0.4c0.2,0,0.4,0.2,0.4,0.4v6.7
				C219.6,22.7,219.4,22.9,219.1,22.9z M219.1,12.1c-0.2,0-0.4-0.2-0.4-0.4V5c0-0.2,0.2-0.4,0.4-0.4c0.2,0,0.4,0.2,0.4,0.4v6.7
				C219.6,11.9,219.4,12.1,219.1,12.1z"/>
		</g>
		<g class="st16">
			<path d="M188.2,43.8c-22.9,11.4-47.8,19.7-73.6,20.1c0.3,0.2,0.7,0.3,1.2,0.3h110.3c1.3,0,2.6-0.8,2.6-2.1V18.4
				C216,28.1,202.4,36.7,188.2,43.8z"/>
		</g>
		<g>
			<path class="st5" d="M143.7,58.4h-20.5c-0.4,0-0.3-0.7-0.3-1.1V6.8c0-0.4-0.1-1,0.3-1h20.5V58.4z"/>
		</g>
		<g>
			<polygon class="st13" points="139.5,20 135.3,20 135.3,15.8 130.3,15.8 130.3,20 126.2,20 126.2,25 130.3,25 130.3,29.2 
				135.3,29.2 135.3,25 139.5,25 			"/>
		</g>
	</g>
	<g>
		<rect x="148.1" y="11.6" class="st9" width="58.6" height="28"/>
		<path class="st10" d="M152.9,17.9c0,0-0.1,0-0.1-0.1l-0.5-1.5h-2.4l-0.5,1.5c0,0-0.1,0.1-0.1,0.1h-1.2c0,0-0.1,0-0.1-0.1l2.1-6.2
			c0,0,0.1-0.1,0.1-0.1h1.7c0,0,0.1,0,0.1,0.1l2.1,6.2c0,0,0,0.1-0.1,0.1H152.9z M151.9,15.2l-0.9-2.7l-0.8,2.7H151.9z"/>
		<path class="st10" d="M154.4,17.9C154.4,17.9,154.3,17.9,154.4,17.9l-0.1-2.2l0-2.3c0,0,0-0.1,0.1-0.1h1.1c0,0,0.1,0,0.1,0.1
			l0,0.5c0.3-0.4,0.9-0.7,1.5-0.7c1,0,1.6,0.7,1.6,1.8v1l0,1.9c0,0,0,0.1-0.1,0.1h-1.2c0,0-0.1,0-0.1-0.1l0-1.9v-1
			c0-0.5-0.3-0.8-0.7-0.8c-0.5,0-1,0.5-1,1.4v0.3l0,1.9c0,0,0,0.1-0.1,0.1H154.4z"/>
		<path class="st10" d="M162,17.8c0,0,0,0.1-0.1,0.1c-0.3,0.1-0.6,0.2-0.9,0.2c-0.8,0-1.5-0.4-1.5-1.5l0-2.3H159c0,0-0.1,0-0.1-0.1
			v-0.8c0,0,0-0.1,0.1-0.1h0.5l0-1.1c0,0,0-0.1,0.1-0.1h1.2c0,0,0.1,0,0.1,0.1l0,1.1h1c0,0,0.1,0,0.1,0.1v0.8c0,0,0,0.1-0.1,0.1h-1
			l0,2.3c0,0.4,0.2,0.5,0.5,0.5c0.2,0,0.4,0,0.5-0.1c0,0,0.1,0,0.1,0.1V17.8z"/>
		<path class="st10" d="M162.4,12.8C162.3,12.8,162.3,12.8,162.4,12.8l-0.1-1.1c0,0,0-0.1,0.1-0.1h1.2c0,0,0.1,0,0.1,0.1v1.1
			c0,0,0,0.1-0.1,0.1H162.4z M162.4,17.9C162.3,17.9,162.3,17.9,162.4,17.9l-0.1-2.3l0-2.3c0,0,0-0.1,0.1-0.1h1.2c0,0,0.1,0,0.1,0.1
			l0,2.3l0,2.2c0,0,0,0.1-0.1,0.1H162.4z"/>
		<path class="st10" d="M166.8,18c-0.6,0-1-0.2-1.3-0.6l0,0.4c0,0,0,0.1-0.1,0.1h-1.2c0,0-0.1,0-0.1-0.1l0-3.1l0-3.1
			c0,0,0-0.1,0.1-0.1h1.2c0,0,0.1,0,0.1,0.1l0,2.1c0.3-0.4,0.8-0.6,1.4-0.6c1.3,0,2,1,2,2.4C168.8,16.9,168.1,18,166.8,18z
			 M166.4,17.1c0.7,0,1-0.5,1-1.5c0-1-0.4-1.5-1-1.5c-0.7,0-1,0.5-1,1.4C165.4,16.5,165.8,17.1,166.4,17.1z"/>
		<path class="st10" d="M169.3,12.8C169.2,12.8,169.2,12.8,169.3,12.8l-0.1-1.1c0,0,0-0.1,0.1-0.1h1.2c0,0,0.1,0,0.1,0.1v1.1
			c0,0,0,0.1-0.1,0.1H169.3z M169.3,17.9C169.2,17.9,169.2,17.9,169.3,17.9l-0.1-2.3l0-2.3c0,0,0-0.1,0.1-0.1h1.2c0,0,0.1,0,0.1,0.1
			l0,2.3l0,2.2c0,0,0,0.1-0.1,0.1H169.3z"/>
		<path class="st10" d="M173.3,18c-1.5,0-2.4-0.9-2.4-2.4s0.9-2.5,2.4-2.5c1.5,0,2.4,1,2.4,2.4C175.7,17.1,174.9,18,173.3,18z
			 M173.3,17.1c0.7,0,1-0.5,1-1.5c0-1-0.3-1.6-1-1.6c-0.7,0-1,0.5-1,1.6S172.7,17.1,173.3,17.1z"/>
		<path class="st10" d="M178.8,17.8c0,0,0,0.1-0.1,0.1c-0.3,0.1-0.6,0.2-0.9,0.2c-0.8,0-1.5-0.4-1.5-1.5l0-2.3h-0.5
			c0,0-0.1,0-0.1-0.1v-0.8c0,0,0-0.1,0.1-0.1h0.5l0-1.1c0,0,0-0.1,0.1-0.1h1.2c0,0,0.1,0,0.1,0.1l0,1.1h1c0,0,0.1,0,0.1,0.1v0.8
			c0,0,0,0.1-0.1,0.1h-1l0,2.3c0,0.4,0.2,0.5,0.5,0.5c0.2,0,0.4,0,0.5-0.1c0,0,0.1,0,0.1,0.1V17.8z"/>
		<path class="st10" d="M179.2,12.8C179.1,12.8,179.1,12.8,179.2,12.8l-0.1-1.1c0,0,0-0.1,0.1-0.1h1.2c0,0,0.1,0,0.1,0.1v1.1
			c0,0,0,0.1-0.1,0.1H179.2z M179.2,17.9C179.1,17.9,179.1,17.9,179.2,17.9l-0.1-2.3l0-2.3c0,0,0-0.1,0.1-0.1h1.2c0,0,0.1,0,0.1,0.1
			l0,2.3l0,2.2c0,0,0,0.1-0.1,0.1H179.2z"/>
		<path class="st10" d="M183.3,17l-0.6-1l-0.4,0.6l0,1.4c0,0,0,0.1-0.1,0.1H181c0,0-0.1,0-0.1-0.1l0-3.1l0-3.1c0,0,0-0.1,0.1-0.1
			h1.2c0,0,0.1,0,0.1,0.1l0,3.1V15l1.3-1.7c0,0,0.1-0.1,0.1-0.1h1.3c0,0,0,0,0,0.1l-1.4,1.6l1.7,2.9c0,0,0,0.1,0,0.1h-1.4
			c0,0-0.1,0-0.1-0.1L183.3,17z"/>
		<path class="st10" d="M149.7,24.6l0,1.6c0,0,0,0.1-0.1,0.1h-1.2c0,0-0.1,0-0.1-0.1l0-1.6l0-2.9c0,0,0-0.1,0.1-0.1h1.2
			c0,0,0.1,0,0.1,0.1l0,0.5c0.3-0.5,0.7-0.7,1.3-0.7c0.7,0,1.1,0.3,1.3,0.9c0.4-0.7,0.9-0.9,1.4-0.9c0.9,0,1.5,0.6,1.5,1.8v1.3
			l0,1.6c0,0,0,0.1-0.1,0.1h-1.2c0,0-0.1,0-0.1-0.1l0-1.6v-1.3c0-0.6-0.2-0.8-0.6-0.8c-0.4,0-0.8,0.5-0.8,1.4v0.7l0,1.6
			c0,0,0,0.1-0.1,0.1h-1.2c0,0-0.1,0-0.1-0.1l0-1.6v-1.3c0-0.6-0.2-0.8-0.6-0.8c-0.4,0-0.8,0.5-0.8,1.4V24.6z"/>
		<path class="st10" d="M159,26.2C158.9,26.2,158.9,26.2,159,26.2l-0.1-0.5c-0.3,0.4-0.8,0.6-1.4,0.6c-1.3,0-2-1-2-2.4
			c0-1.3,0.8-2.4,2-2.4c0.6,0,1,0.2,1.3,0.6l0-0.4c0,0,0-0.1,0.1-0.1h1.2c0,0,0.1,0,0.1,0.1l0,2.3l0,2.2c0,0,0,0.1-0.1,0.1H159z
			 M157.9,25.4c0.7,0,1-0.5,1-1.5c0-1-0.3-1.5-1-1.5c-0.7,0-1,0.5-1,1.5C156.9,24.9,157.3,25.4,157.9,25.4z"/>
		<path class="st10" d="M162.8,26.3c-1.4,0-2.2-0.6-2.3-1.6c0,0,0-0.1,0.1-0.1h1.2c0,0,0.1,0,0.1,0.1c0,0.5,0.4,0.8,1,0.8
			c0.5,0,0.8-0.2,0.8-0.6c0-0.9-3,0-3-2c0-1,0.8-1.5,2-1.5c1.2,0,2,0.5,2.1,1.5c0,0,0,0.1-0.1,0.1h-1.1c0,0-0.1,0-0.1-0.1
			c-0.1-0.4-0.3-0.6-0.9-0.6c-0.4,0-0.7,0.2-0.7,0.6c0,0.9,3,0,3,2C165,25.8,164.1,26.3,162.8,26.3z"/>
		<path class="st10" d="M168.1,26.1c0,0,0,0.1-0.1,0.1c-0.3,0.1-0.6,0.2-0.9,0.2c-0.8,0-1.5-0.4-1.5-1.5l0-2.3h-0.5
			c0,0-0.1,0-0.1-0.1v-0.8c0,0,0-0.1,0.1-0.1h0.5l0-1.1c0,0,0-0.1,0.1-0.1h1.2c0,0,0.1,0,0.1,0.1l0,1.1h1c0,0,0.1,0,0.1,0.1v0.8
			c0,0,0,0.1-0.1,0.1h-1l0,2.3c0,0.4,0.2,0.5,0.5,0.5c0.2,0,0.4,0,0.5-0.1c0,0,0.1,0,0.1,0.1V26.1z"/>
	</g>
</g>
<g>
</g>
<g>
</g>
<g>
</g>
<g>
</g>
<g>
</g>
<g>
</g>
</svg>
