<?xml version="1.0" encoding="utf-8"?>
<!-- Generator: Adobe Illustrator 25.1.0, SVG Export Plug-In . SVG Version: 6.00 Build 0)  -->
<svg version="1.1" id="Layer_1" xmlns="http://www.w3.org/2000/svg" xmlns:xlink="http://www.w3.org/1999/xlink" x="0px" y="0px"
	 viewBox="0 0 298.9 515.3" style="enable-background:new 0 0 298.9 515.3;" xml:space="preserve">
<style type="text/css">
	.st0{fill:#F4D92A;}
	.st1{fill:#00A88F;}
	.st2{opacity:0.25;}
	.st3{opacity:0.5;fill:#68BCAE;}
	.st4{opacity:0.75;}
	.st5{opacity:0.5;}
	.st6{fill:#FFFFFF;}
	.st7{opacity:0.75;fill:#FFFFFF;}
	.st8{opacity:0.1;}
	.st9{opacity:0.4;fill:#FFFFFF;}
	.st10{opacity:0.5;fill:#FFFFFF;}
	.st11{opacity:0.75;fill:#F4D92A;}
	.st12{filter:url(#Adobe_OpacityMaskFilter);}
	.st13{filter:url(#Adobe_OpacityMaskFilter_1_);}
	.st14{mask:url(#SVGID_1_);fill:url(#SVGID_2_);}
	.st15{opacity:0.5;fill:url(#SVGID_3_);}
	.st16{fill:#1B5E53;}
	.st17{fill:#FAD2BB;}
	.st18{fill:#FAF8F6;}
	.st19{fill:#F0EAE3;}
	.st20{fill:#EAE3DE;}
	.st21{fill:#EBEEF7;}
	.st22{fill:#DACFC6;}
	.st23{fill:none;}
	.st24{fill:#5DAFA1;}
	.st25{opacity:0.2;}
	.st26{fill:#EDE6DE;}
	.st27{fill:#F5F1EC;}
	.st28{fill:#FBFAF8;}
</style>
<g>
	<path class="st0" d="M240.8,370.5v-1.3c0-0.7-0.6-1.3-1.3-1.3h-28.1c-0.7,0-1.3,0.6-1.3,1.3v1.3v19h30.8V370.5L240.8,370.5z"/>
	<path class="st0" d="M225,367.1c0-0.4,0.3-0.7,0.7-0.7"/>
	<path class="st1" d="M234.5,366.4h-18.3c-0.4,0-0.7,0.3-0.7,0.7v0.7h0.7h18.3h0.7v-0.7C235.2,366.8,234.9,366.4,234.5,366.4z"/>
	<path class="st0" d="M218.1,351.2v1.4v13.9h14.4v-14.9V350C225,349.9,218.1,351.2,218.1,351.2z"/>
	<path class="st2" d="M218.1,351.2v1.4c7.8-1.9,14.4-1,14.4-1V350C225,349.9,218.1,351.2,218.1,351.2z"/>
	<path class="st3" d="M238,397.2v-7.6h-1.3h-2.6h-21.3v7.6c0,0-18.1,9.7-18.1,23.1v25.5v52.4v2.1h0.1c1,8.4,8.2,15,16.9,15h13.7H239
		c8.7,0,15.9-6.5,16.9-15h0.1v-2.1v-52.4v-25.5C256.1,406.9,238,397.2,238,397.2z"/>
	<g class="st4">
		<g>
			<g class="st5">
				<path class="st6" d="M199.9,436.6V492v2.2h0.1c0.8,8.9,6.8,15.8,14,15.8h11.3h11.3c7.2,0,13.2-6.9,14-15.8h0.1V492v-55.5v-14.8
					h-51V436.6z"/>
			</g>
		</g>
	</g>
	<rect x="223.1" y="389.5" class="st6" width="4.5" height="96.2"/>
	<path class="st7" d="M203.6,500.3h-0.1v-2.1v-52.4v-25.5c0-13.4,18.1-23.1,18.1-23.1v-7.6h-5v7.6c0,0-18.1,9.7-18.1,23.1v25.5v52.4
		v2.1h0.1c1,8.4,8.2,15,16.9,15h5C211.8,515.3,204.6,508.7,203.6,500.3z"/>
	<g>
		<g>
			<path class="st6" d="M233.9,427.5h-17c-9.4,0-17,7.6-17,17v16.1c0,9.4,7.6,17,17,17h17c9.4,0,17-7.6,17-17v-16.1
				C250.9,435.1,243.3,427.5,233.9,427.5z"/>
		</g>
		<g>
			<path class="st0" d="M233,458.2h-3.5v-3.5c0-0.8-0.7-1.5-1.5-1.5h-5.1c-0.8,0-1.5,0.7-1.5,1.5v3.5h-3.5c-0.8,0-1.5,0.7-1.5,1.5
				v5.1c0,0.8,0.7,1.5,1.5,1.5h3.5v3.5c0,0.8,0.7,1.5,1.5,1.5h5.1c0.8,0,1.5-0.7,1.5-1.5v-3.5h3.5c0.8,0,1.5-0.7,1.5-1.5v-5.1
				C234.5,458.9,233.8,458.2,233,458.2z"/>
		</g>
	</g>
	<g>
		<g>
			
				<ellipse transform="matrix(0.2298 -0.9732 0.9732 0.2298 -311.5743 613.0736)" class="st6" cx="231.5" cy="503.4" rx="2" ry="2"/>
			<circle class="st6" cx="216.4" cy="503.4" r="3.1"/>
		</g>
		<g>
			<circle class="st6" cx="209" cy="496.1" r="2"/>
			
				<ellipse transform="matrix(0.9239 -0.3827 0.3827 0.9239 -172.7601 123.6657)" class="st6" cx="224.5" cy="496.1" rx="3.1" ry="3.1"/>
		</g>
	</g>
	<rect x="212.8" y="389.5" class="st2" width="25.3" height="3.2"/>
	<rect x="232.8" y="367.8" class="st2" width="5.2" height="21.7"/>
	<rect x="228.4" y="366.4" class="st2" width="4.4" height="1.4"/>
	<path class="st8" d="M238,397.2v-7.6h-1.3h-2.6h-2v7.6c0,0,18.1,9.7,18.1,23.1v25.5v52.4v2.1H250c-1,8.4-8.2,15-16.9,15h6
		c8.7,0,15.9-6.5,16.9-15h0.1v-2.1v-52.4v-25.5C256.1,406.9,238,397.2,238,397.2z"/>
	<rect x="228" y="350" class="st2" width="3" height="16.4"/>
	<path class="st0" d="M258.9,349.9l-21.1-5.9c-0.3-0.1-0.7-0.1-1,0c-2.4,0.5-13.2,2.3-20.2-0.1c-0.1,0-0.1,0-0.2,0
		c-0.7,0.1-5.4,1.3-4.9,7.9c0,0.2,0.2,0.4,0.5,0.4c0.9-0.2,3.1-0.6,6.1-1c0,0,6.9-1.3,14.4-1.1c8-0.2,16.7,0.6,23.1,3.5
		c0.1,0.1,0.3,0,0.4-0.1l3-3C259.3,350.3,259.2,349.9,258.9,349.9z"/>
</g>
<g>
	<g>
		<path class="st3" d="M215.5,116.2C215.5,116.2,215.5,116.2,215.5,116.2C215.5,116.2,215.5,116.2,215.5,116.2
			c-0.1-0.1-0.1-0.2-0.2-0.3c0,0,0,0,0-0.1c-0.1-0.1-0.1-0.2-0.2-0.2c0,0,0-0.1-0.1-0.1c-0.1-0.1-0.1-0.2-0.2-0.2c0,0,0-0.1-0.1-0.1
			c-0.1-0.1-0.1-0.2-0.2-0.3c0,0,0,0,0,0c-0.1-0.1-0.2-0.2-0.2-0.3c0,0,0-0.1-0.1-0.1c-0.1-0.1-0.1-0.2-0.2-0.2c0,0-0.1-0.1-0.1-0.1
			c-0.1-0.1-0.1-0.2-0.2-0.3c0,0,0-0.1-0.1-0.1c-0.1-0.1-0.2-0.2-0.3-0.3c0,0,0-0.1-0.1-0.1c-0.1-0.1-0.1-0.2-0.2-0.3
			c0,0-0.1-0.1-0.1-0.1c-0.1-0.1-0.1-0.2-0.2-0.3c0,0-0.1-0.1-0.1-0.1c-0.1-0.1-0.2-0.2-0.3-0.3c0,0,0,0,0,0
			c-0.1-0.1-0.2-0.2-0.3-0.3c0,0-0.1-0.1-0.1-0.1c-0.1-0.1-0.2-0.2-0.2-0.3c0,0-0.1-0.1-0.1-0.1c-0.1-0.1-0.2-0.2-0.3-0.3
			c0,0-0.1-0.1-0.1-0.1c-0.1-0.1-0.2-0.2-0.4-0.3c0,0-0.1-0.1-0.1-0.1c-0.1-0.1-0.2-0.2-0.3-0.3c0,0-0.1-0.1-0.1-0.1
			c-0.1-0.1-0.2-0.2-0.3-0.2c0,0-0.1-0.1-0.1-0.1c-0.1-0.1-0.3-0.2-0.4-0.3c0,0,0,0,0,0c-0.1-0.1-0.3-0.2-0.4-0.3
			c0,0-0.1-0.1-0.1-0.1c-0.1-0.1-0.2-0.2-0.3-0.2c0,0-0.1-0.1-0.1-0.1c-0.1-0.1-0.2-0.2-0.3-0.2c0,0-0.1-0.1-0.1-0.1
			c-0.1-0.1-0.3-0.2-0.4-0.3c0,0-0.1,0-0.1-0.1c-0.1-0.1-0.2-0.2-0.3-0.2c-0.1,0-0.1-0.1-0.2-0.1c-0.1-0.1-0.2-0.1-0.3-0.2
			c0,0-0.1-0.1-0.1-0.1c-0.2-0.1-0.3-0.2-0.5-0.3c0,0,0,0,0,0c-0.2-0.1-0.3-0.2-0.5-0.3c0,0-0.1-0.1-0.2-0.1
			c-0.1-0.1-0.2-0.1-0.4-0.2c-0.1,0-0.1-0.1-0.2-0.1c-0.1-0.1-0.3-0.1-0.4-0.2c0,0-0.1,0-0.1-0.1c-0.2-0.1-0.3-0.2-0.5-0.2
			c0,0-0.1,0-0.1-0.1c-0.1-0.1-0.3-0.1-0.4-0.2c-0.1,0-0.1,0-0.2-0.1c-0.1,0-0.3-0.1-0.4-0.1c-0.1,0-0.1,0-0.2-0.1
			c-0.2-0.1-0.4-0.1-0.6-0.2c0,0,0,0,0,0c0,0,0,0,0,0c0,0,0,0,0,0c0,0,0,0,0,0c0,0,0,0-0.1,0c0,0,0,0,0,0c0,0-0.1,0-0.1,0
			c0,0,0,0,0,0c0,0-0.1,0-0.1,0c0,0,0,0,0,0c0,0-0.1,0-0.1-0.1c0,0,0,0,0,0c0,0-0.1,0-0.1-0.1c0,0,0,0,0,0c0,0-0.1-0.1-0.2-0.1
			c0,0,0,0,0,0c-0.1,0-0.1-0.1-0.2-0.1c0,0,0,0,0,0c-0.1,0-0.1-0.1-0.2-0.1c0,0,0,0,0,0c-0.1,0-0.1-0.1-0.2-0.1c0,0,0,0,0,0
			c-0.1,0-0.1-0.1-0.2-0.1c0,0,0,0,0,0c-0.1-0.1-0.1-0.1-0.2-0.2c0,0,0,0,0,0c-0.1,0-0.1-0.1-0.2-0.2c0,0,0,0,0,0
			c-0.1-0.1-0.1-0.1-0.2-0.2c0,0,0,0,0,0c-0.1-0.1-0.1-0.1-0.2-0.2c0,0,0,0,0,0c-0.1-0.1-0.1-0.1-0.2-0.2c0,0,0,0,0-0.1
			c-0.1-0.1-0.1-0.1-0.2-0.2c0,0,0,0,0,0c-0.1-0.1-0.1-0.2-0.2-0.3c0,0,0,0,0-0.1c-0.1-0.1-0.1-0.2-0.2-0.3c0,0,0,0,0,0
			c-0.9-1.3-1.6-3.3-1.6-5.9h-8.6h-0.1h-0.1h-8.6c0,2.7-0.7,4.6-1.6,5.9c0,0,0,0,0,0c-0.1,0.1-0.1,0.2-0.2,0.3c0,0,0,0,0,0.1
			c-0.1,0.1-0.1,0.2-0.2,0.3c0,0,0,0,0,0c-0.1,0.1-0.1,0.1-0.2,0.2c0,0,0,0,0,0.1c-0.1,0.1-0.1,0.2-0.2,0.2c0,0,0,0,0,0
			c-0.1,0.1-0.1,0.1-0.2,0.2c0,0,0,0,0,0c-0.1,0.1-0.1,0.1-0.2,0.2c0,0,0,0,0,0c-0.1,0.1-0.1,0.1-0.2,0.2c0,0,0,0,0,0
			c-0.1,0.1-0.1,0.1-0.2,0.2c0,0,0,0,0,0c-0.1,0-0.1,0.1-0.2,0.1c0,0,0,0,0,0c-0.1,0-0.1,0.1-0.2,0.1c0,0,0,0,0,0
			c-0.1,0-0.1,0.1-0.2,0.1c0,0,0,0,0,0c-0.1,0-0.1,0.1-0.2,0.1c0,0,0,0,0,0c-0.1,0-0.1,0.1-0.2,0.1c0,0,0,0,0,0c0,0-0.1,0-0.1,0.1
			c0,0,0,0,0,0c0,0-0.1,0-0.1,0.1c0,0,0,0,0,0c0,0-0.1,0-0.1,0c0,0,0,0,0,0c0,0-0.1,0-0.1,0c0,0,0,0,0,0c0,0,0,0-0.1,0c0,0,0,0,0,0
			c0,0,0,0,0,0c0,0,0,0,0,0c0,0,0,0,0,0c-0.2,0.1-0.4,0.1-0.6,0.2c-0.1,0-0.1,0-0.2,0.1c-0.1,0-0.3,0.1-0.4,0.1
			c-0.1,0-0.1,0-0.2,0.1c-0.1,0.1-0.3,0.1-0.4,0.2c0,0-0.1,0-0.1,0.1c-0.2,0.1-0.3,0.2-0.5,0.2c0,0-0.1,0-0.1,0.1
			c-0.1,0.1-0.3,0.1-0.4,0.2c-0.1,0-0.1,0.1-0.2,0.1c-0.1,0.1-0.2,0.1-0.4,0.2c-0.1,0-0.1,0.1-0.2,0.1c-0.2,0.1-0.3,0.2-0.5,0.3
			c0,0,0,0,0,0c-0.2,0.1-0.3,0.2-0.5,0.3c0,0-0.1,0.1-0.1,0.1c-0.1,0.1-0.2,0.1-0.3,0.2c-0.1,0-0.1,0.1-0.2,0.1
			c-0.1,0.1-0.2,0.2-0.3,0.2c0,0-0.1,0-0.1,0.1c-0.1,0.1-0.3,0.2-0.4,0.3c0,0-0.1,0.1-0.1,0.1c-0.1,0.1-0.2,0.2-0.3,0.2
			c0,0-0.1,0.1-0.1,0.1c-0.1,0.1-0.2,0.2-0.3,0.2c0,0-0.1,0.1-0.1,0.1c-0.1,0.1-0.3,0.2-0.4,0.3c0,0,0,0,0,0
			c-0.1,0.1-0.3,0.2-0.4,0.3c0,0-0.1,0.1-0.1,0.1c-0.1,0.1-0.2,0.2-0.3,0.2c0,0-0.1,0.1-0.1,0.1c-0.1,0.1-0.2,0.2-0.3,0.3
			c0,0-0.1,0.1-0.1,0.1c-0.1,0.1-0.2,0.2-0.4,0.3c0,0-0.1,0.1-0.1,0.1c-0.1,0.1-0.2,0.2-0.3,0.3c0,0-0.1,0.1-0.1,0.1
			c-0.1,0.1-0.2,0.2-0.2,0.2c0,0-0.1,0.1-0.1,0.1c-0.1,0.1-0.2,0.2-0.3,0.3c0,0,0,0,0,0c-0.1,0.1-0.2,0.2-0.3,0.3
			c0,0-0.1,0.1-0.1,0.1c-0.1,0.1-0.1,0.2-0.2,0.2c0,0-0.1,0.1-0.1,0.1c-0.1,0.1-0.1,0.2-0.2,0.3c0,0,0,0.1-0.1,0.1
			c-0.1,0.1-0.2,0.2-0.3,0.3c0,0,0,0.1-0.1,0.1c-0.1,0.1-0.1,0.2-0.2,0.3c0,0-0.1,0.1-0.1,0.1c-0.1,0.1-0.1,0.2-0.2,0.2
			c0,0-0.1,0.1-0.1,0.1c-0.1,0.1-0.2,0.2-0.2,0.3c0,0,0,0,0,0c-0.1,0.1-0.1,0.2-0.2,0.3c0,0,0,0.1-0.1,0.1c-0.1,0.1-0.1,0.1-0.2,0.2
			c0,0,0,0.1-0.1,0.1c-0.1,0.1-0.1,0.2-0.2,0.2c0,0,0,0,0,0.1c-0.1,0.1-0.1,0.2-0.2,0.3c0,0,0,0,0,0c0,0,0,0,0,0
			c-1.2,1.9-1.8,4.1-1.8,6.3v4.7v22.8v50.5v11.8c0,4.3,3.5,7.7,7.7,7.7h11.8h18.7h11.8c4.3,0,7.7-3.5,7.7-7.7v-11.8v-50.5v-22.8
			v-4.7C217.3,120.3,216.7,118.1,215.5,116.2z"/>
		<path class="st7" d="M166.9,212.4v-11.8v-50.5v-22.8v-4.7c0-2.2,0.6-4.4,1.8-6.3c0,0,0,0,0,0c0,0,0,0,0,0c0.1-0.1,0.1-0.2,0.2-0.3
			c0,0,0,0,0-0.1c0.1-0.1,0.1-0.2,0.2-0.2c0,0,0-0.1,0.1-0.1c0.1-0.1,0.1-0.1,0.2-0.2c0,0,0-0.1,0.1-0.1c0.1-0.1,0.1-0.2,0.2-0.3
			c0,0,0,0,0,0c0.1-0.1,0.2-0.2,0.2-0.3c0,0,0-0.1,0.1-0.1c0.1-0.1,0.1-0.2,0.2-0.2c0,0,0.1-0.1,0.1-0.1c0.1-0.1,0.1-0.2,0.2-0.3
			c0,0,0-0.1,0.1-0.1c0.1-0.1,0.2-0.2,0.3-0.3c0,0,0-0.1,0.1-0.1c0.1-0.1,0.1-0.2,0.2-0.3c0,0,0.1-0.1,0.1-0.1
			c0.1-0.1,0.1-0.2,0.2-0.2c0,0,0.1-0.1,0.1-0.1c0.1-0.1,0.2-0.2,0.3-0.3c0,0,0,0,0,0c0.1-0.1,0.2-0.2,0.3-0.3c0,0,0.1-0.1,0.1-0.1
			c0.1-0.1,0.2-0.2,0.2-0.2c0,0,0.1-0.1,0.1-0.1c0.1-0.1,0.2-0.2,0.3-0.3c0,0,0.1-0.1,0.1-0.1c0.1-0.1,0.2-0.2,0.4-0.3
			c0,0,0.1-0.1,0.1-0.1c0.1-0.1,0.2-0.2,0.3-0.3c0,0,0.1-0.1,0.1-0.1c0.1-0.1,0.2-0.2,0.3-0.2c0,0,0.1-0.1,0.1-0.1
			c0.1-0.1,0.3-0.2,0.4-0.3c0,0,0,0,0,0c0.1-0.1,0.3-0.2,0.4-0.3c0,0,0.1-0.1,0.1-0.1c0.1-0.1,0.2-0.2,0.3-0.2c0,0,0.1-0.1,0.1-0.1
			c0.1-0.1,0.2-0.2,0.3-0.2c0,0,0.1-0.1,0.1-0.1c0.1-0.1,0.3-0.2,0.4-0.3c0,0,0.1,0,0.1-0.1c0.1-0.1,0.2-0.2,0.3-0.2
			c0.1,0,0.1-0.1,0.2-0.1c0.1-0.1,0.2-0.1,0.3-0.2c0,0,0.1-0.1,0.1-0.1c0.2-0.1,0.3-0.2,0.5-0.3c0,0,0,0,0,0
			c0.2-0.1,0.3-0.2,0.5-0.3c0,0,0.1-0.1,0.2-0.1c0.1-0.1,0.2-0.1,0.4-0.2c0.1,0,0.1-0.1,0.2-0.1c0.1-0.1,0.3-0.1,0.4-0.2
			c0,0,0.1,0,0.1-0.1c0.2-0.1,0.3-0.2,0.5-0.2c0,0,0.1,0,0.1-0.1c0.1-0.1,0.3-0.1,0.4-0.2c0.1,0,0.1,0,0.2-0.1
			c0.1,0,0.3-0.1,0.4-0.1c0.1,0,0.1,0,0.2-0.1c0.2-0.1,0.4-0.1,0.6-0.2c0,0,0,0,0,0c0,0,0,0,0,0c0,0,0,0,0,0c0,0,0,0,0,0
			c0,0,0,0,0.1,0c0,0,0,0,0,0c0,0,0.1,0,0.1,0c0,0,0,0,0,0c0,0,0.1,0,0.1,0c0,0,0,0,0,0c0,0,0.1,0,0.1-0.1c0,0,0,0,0,0
			c0,0,0.1,0,0.1-0.1c0,0,0,0,0,0c0,0,0.1-0.1,0.2-0.1c0,0,0,0,0,0c0.1,0,0.1-0.1,0.2-0.1c0,0,0,0,0,0c0.1,0,0.1-0.1,0.2-0.1
			c0,0,0,0,0,0c0.1,0,0.1-0.1,0.2-0.1c0,0,0,0,0,0c0.1,0,0.1-0.1,0.2-0.1c0,0,0,0,0,0c0.1-0.1,0.1-0.1,0.2-0.2c0,0,0,0,0,0
			c0.1,0,0.1-0.1,0.2-0.2c0,0,0,0,0,0c0.1-0.1,0.1-0.1,0.2-0.2c0,0,0,0,0,0c0.1-0.1,0.1-0.1,0.2-0.2c0,0,0,0,0,0
			c0.1-0.1,0.1-0.1,0.2-0.2c0,0,0,0,0-0.1c0.1-0.1,0.1-0.1,0.2-0.2c0,0,0,0,0,0c0.1-0.1,0.1-0.2,0.2-0.3c0,0,0,0,0-0.1
			c0.1-0.1,0.1-0.2,0.2-0.3c0,0,0,0,0,0c0.9-1.3,1.6-3.3,1.6-5.9h-3.7c0,2.7-0.7,4.6-1.6,5.9c0,0,0,0,0,0c-0.1,0.1-0.1,0.2-0.2,0.3
			c0,0,0,0,0,0.1c-0.1,0.1-0.1,0.2-0.2,0.3c0,0,0,0,0,0c-0.1,0.1-0.1,0.1-0.2,0.2c0,0,0,0,0,0.1c-0.1,0.1-0.1,0.2-0.2,0.2
			c0,0,0,0,0,0c-0.1,0.1-0.1,0.1-0.2,0.2c0,0,0,0,0,0c-0.1,0.1-0.1,0.1-0.2,0.2c0,0,0,0,0,0c-0.1,0.1-0.1,0.1-0.2,0.2c0,0,0,0,0,0
			c-0.1,0.1-0.1,0.1-0.2,0.2c0,0,0,0,0,0c-0.1,0-0.1,0.1-0.2,0.1c0,0,0,0,0,0c-0.1,0-0.1,0.1-0.2,0.1c0,0,0,0,0,0
			c-0.1,0-0.1,0.1-0.2,0.1c0,0,0,0,0,0c-0.1,0-0.1,0.1-0.2,0.1c0,0,0,0,0,0c-0.1,0-0.1,0.1-0.2,0.1c0,0,0,0,0,0c0,0-0.1,0-0.1,0.1
			c0,0,0,0,0,0c0,0-0.1,0-0.1,0.1c0,0,0,0,0,0c0,0-0.1,0-0.1,0c0,0,0,0,0,0c0,0-0.1,0-0.1,0c0,0,0,0,0,0c0,0,0,0-0.1,0c0,0,0,0,0,0
			c0,0,0,0,0,0c0,0,0,0,0,0c0,0,0,0,0,0c-0.2,0.1-0.4,0.1-0.6,0.2c-0.1,0-0.1,0-0.2,0.1c-0.1,0-0.3,0.1-0.4,0.1
			c-0.1,0-0.1,0-0.2,0.1c-0.1,0.1-0.3,0.1-0.4,0.2c0,0-0.1,0-0.1,0.1c-0.2,0.1-0.3,0.2-0.5,0.2c0,0-0.1,0-0.1,0.1
			c-0.1,0.1-0.3,0.1-0.4,0.2c-0.1,0-0.1,0.1-0.2,0.1c-0.1,0.1-0.2,0.1-0.4,0.2c-0.1,0-0.1,0.1-0.2,0.1c-0.2,0.1-0.3,0.2-0.5,0.3
			c0,0,0,0,0,0c-0.2,0.1-0.3,0.2-0.5,0.3c0,0-0.1,0.1-0.1,0.1c-0.1,0.1-0.2,0.1-0.3,0.2c-0.1,0-0.1,0.1-0.2,0.1
			c-0.1,0.1-0.2,0.2-0.3,0.2c0,0-0.1,0-0.1,0.1c-0.1,0.1-0.3,0.2-0.4,0.3c0,0-0.1,0.1-0.1,0.1c-0.1,0.1-0.2,0.2-0.3,0.2
			c0,0-0.1,0.1-0.1,0.1c-0.1,0.1-0.2,0.2-0.3,0.2c0,0-0.1,0.1-0.1,0.1c-0.1,0.1-0.3,0.2-0.4,0.3c0,0,0,0,0,0
			c-0.1,0.1-0.3,0.2-0.4,0.3c0,0-0.1,0.1-0.1,0.1c-0.1,0.1-0.2,0.2-0.3,0.2c0,0-0.1,0.1-0.1,0.1c-0.1,0.1-0.2,0.2-0.3,0.3
			c0,0-0.1,0.1-0.1,0.1c-0.1,0.1-0.2,0.2-0.4,0.3c0,0-0.1,0.1-0.1,0.1c-0.1,0.1-0.2,0.2-0.3,0.3c0,0-0.1,0.1-0.1,0.1
			c-0.1,0.1-0.2,0.2-0.2,0.2c0,0-0.1,0.1-0.1,0.1c-0.1,0.1-0.2,0.2-0.3,0.3c0,0,0,0,0,0c-0.1,0.1-0.2,0.2-0.3,0.3
			c0,0-0.1,0.1-0.1,0.1c-0.1,0.1-0.1,0.2-0.2,0.2c0,0-0.1,0.1-0.1,0.1c-0.1,0.1-0.1,0.2-0.2,0.3c0,0,0,0.1-0.1,0.1
			c-0.1,0.1-0.2,0.2-0.3,0.3c0,0,0,0.1-0.1,0.1c-0.1,0.1-0.1,0.2-0.2,0.3c0,0-0.1,0.1-0.1,0.1c-0.1,0.1-0.1,0.2-0.2,0.2
			c0,0-0.1,0.1-0.1,0.1c-0.1,0.1-0.2,0.2-0.2,0.3c0,0,0,0,0,0c-0.1,0.1-0.1,0.2-0.2,0.3c0,0,0,0.1-0.1,0.1c-0.1,0.1-0.1,0.1-0.2,0.2
			c0,0,0,0.1-0.1,0.1c-0.1,0.1-0.1,0.2-0.2,0.2c0,0,0,0,0,0.1c-0.1,0.1-0.1,0.2-0.2,0.3c0,0,0,0,0,0c0,0,0,0,0,0
			c-1.2,1.9-1.8,4.1-1.8,6.3v4.7v22.8v50.5v11.8c0,4.3,3.5,7.7,7.7,7.7h3.7C170.4,220.1,166.9,216.6,166.9,212.4z"/>
		<g>
			<g>
				<path class="st0" d="M157,64.3c0,0,2.2,12.5-5.8,28.9c0,0-0.4,2.4,2.1,0.1c2.5-2.3,10-13.4,11-20.4l8-1.3l3.6,2.5l0.4-0.7
					l-12.9-11.2l-5.3,1.2L157,64.3z"/>
				<path class="st0" d="M194.8,93.2h-12.7c-3.3,0-6-2.7-6-6v-1.1c0-3.3,2.7-6,6-6h12.7c3.3,0,6,2.7,6,6v1.1
					C200.8,90.5,198.1,93.2,194.8,93.2z"/>
				<path class="st0" d="M153.7,52.7h-2.1h-2.9c-0.3,0-0.5,0.2-0.5,0.5v9.1c0,0.3,0.2,0.5,0.5,0.5h2.9h2.1h0.5v-0.5v-9.1v-0.5H153.7
					z"/>
			</g>
		</g>
		<g class="st2">
			<g>
				<g>
					<path d="M163.4,72.9c-1,7-8.5,18.1-11,20.4c-0.4,0.4-0.7,0.6-1,0.8c0.2,0.3,0.7,0.4,2-0.8c2.5-2.3,10-13.4,11-20.4l7.2-1.1
						l-0.2-0.1L163.4,72.9z"/>
				</g>
			</g>
		</g>
		<g>
			<g>
				<path class="st1" d="M199.2,96.6h-21.5c-0.9,0-1.5-0.7-1.5-1.5v-0.3c0-0.9,0.7-1.5,1.5-1.5h21.5c0.9,0,1.5,0.7,1.5,1.5V95
					C200.8,95.9,200.1,96.6,199.2,96.6z"/>
				<path class="st1" d="M155.8,51.3c-0.5,0-1,0.3-1.3,0.7c-0.2,0.2-0.3,0.5-0.3,0.9v10c0,0.3,0.1,0.6,0.3,0.9
					c0.3,0.4,0.7,0.7,1.3,0.7h0.7v-13H155.8z"/>
			</g>
		</g>
		<path class="st6" d="M217.7,73c0-0.2-0.1-0.3-0.1-0.5c-0.1-1-0.5-1.9-0.9-2.7c-0.3-0.7-0.7-1.4-1.1-1.9
			c-5.6-7.3-12.5-13.2-15.4-15.5c-0.9-0.7-2.1-1.1-3.3-1.1h-40.5v13h3.4l18.3,11.4v4.5h20.8V78h17.5C218.4,78,218.3,75.4,217.7,73z
			 M217.6,72.8c0-0.1,0-0.1,0-0.2C217.6,72.6,217.6,72.7,217.6,72.8z"/>
		<rect x="186.7" y="96.6" class="st6" width="3.7" height="104.7"/>
		<path class="st9" d="M163.3,141.6v54v12.6c0,4.6,3,8.3,6.8,8.3h10.3h16.3H207c3.7,0,6.8-3.7,6.8-8.3v-12.6v-54v-15.1h-50.5V141.6z
			"/>
		<g>
			<path class="st6" d="M190.8,139.8h-4.7c-11.5,0-20.9,9.3-20.9,20.9v3.8c0,11.5,9.3,20.9,20.9,20.9h4.7c11.5,0,20.9-9.3,20.9-20.9
				v-3.8C211.7,149.2,202.4,139.8,190.8,139.8z"/>
		</g>
		<rect x="193.3" y="80.2" class="st2" width="5.6" height="13"/>
		<rect x="178.1" y="80.2" class="st10" width="0.8" height="13"/>
		<rect x="179.8" y="80.2" class="st10" width="1.8" height="13"/>
		<rect x="190.4" y="93.2" class="st2" width="5.6" height="3.4"/>
		<rect x="178.1" y="78" class="st2" width="20.8" height="1"/>
		<path class="st8" d="M215.5,116.2C215.5,116.2,215.5,116.2,215.5,116.2C215.5,116.2,215.5,116.2,215.5,116.2
			c-0.1-0.1-0.1-0.2-0.2-0.3c0,0,0,0,0-0.1c-0.1-0.1-0.1-0.2-0.2-0.2c0,0,0-0.1-0.1-0.1c-0.1-0.1-0.1-0.2-0.2-0.2c0,0,0-0.1-0.1-0.1
			c-0.1-0.1-0.1-0.2-0.2-0.3c0,0,0,0,0,0c-0.1-0.1-0.2-0.2-0.2-0.3c0,0,0-0.1-0.1-0.1c-0.1-0.1-0.1-0.2-0.2-0.2c0,0-0.1-0.1-0.1-0.1
			c-0.1-0.1-0.1-0.2-0.2-0.3c0,0,0-0.1-0.1-0.1c-0.1-0.1-0.2-0.2-0.3-0.3c0,0,0-0.1-0.1-0.1c-0.1-0.1-0.1-0.2-0.2-0.3
			c0,0-0.1-0.1-0.1-0.1c-0.1-0.1-0.1-0.2-0.2-0.3c0,0-0.1-0.1-0.1-0.1c-0.1-0.1-0.2-0.2-0.3-0.3c0,0,0,0,0,0
			c-0.1-0.1-0.2-0.2-0.3-0.3c0,0-0.1-0.1-0.1-0.1c-0.1-0.1-0.2-0.2-0.2-0.3c0,0-0.1-0.1-0.1-0.1c-0.1-0.1-0.2-0.2-0.3-0.3
			c0,0-0.1-0.1-0.1-0.1c-0.1-0.1-0.2-0.2-0.4-0.3c0,0-0.1-0.1-0.1-0.1c-0.1-0.1-0.2-0.2-0.3-0.3c0,0-0.1-0.1-0.1-0.1
			c-0.1-0.1-0.2-0.2-0.3-0.2c0,0-0.1-0.1-0.1-0.1c-0.1-0.1-0.3-0.2-0.4-0.3c0,0,0,0,0,0c-0.1-0.1-0.3-0.2-0.4-0.3
			c0,0-0.1-0.1-0.1-0.1c-0.1-0.1-0.2-0.2-0.3-0.2c0,0-0.1-0.1-0.1-0.1c-0.1-0.1-0.2-0.2-0.3-0.2c0,0-0.1-0.1-0.1-0.1
			c-0.1-0.1-0.3-0.2-0.4-0.3c0,0-0.1,0-0.1-0.1c-0.1-0.1-0.2-0.2-0.3-0.2c-0.1,0-0.1-0.1-0.2-0.1c-0.1-0.1-0.2-0.1-0.3-0.2
			c0,0-0.1-0.1-0.1-0.1c-0.2-0.1-0.3-0.2-0.5-0.3c0,0,0,0,0,0c-0.2-0.1-0.3-0.2-0.5-0.3c0,0-0.1-0.1-0.2-0.1
			c-0.1-0.1-0.2-0.1-0.4-0.2c-0.1,0-0.1-0.1-0.2-0.1c-0.1-0.1-0.3-0.1-0.4-0.2c0,0-0.1,0-0.1-0.1c-0.2-0.1-0.3-0.2-0.5-0.2
			c0,0-0.1,0-0.1-0.1c-0.1-0.1-0.3-0.1-0.4-0.2c-0.1,0-0.1,0-0.2-0.1c-0.1,0-0.3-0.1-0.4-0.1c-0.1,0-0.1,0-0.2-0.1
			c-0.2-0.1-0.4-0.1-0.6-0.2c0,0,0,0,0,0c0,0,0,0,0,0c0,0,0,0,0,0c0,0,0,0,0,0c0,0,0,0-0.1,0c0,0,0,0,0,0c0,0-0.1,0-0.1,0
			c0,0,0,0,0,0c0,0-0.1,0-0.1,0c0,0,0,0,0,0c0,0-0.1,0-0.1-0.1c0,0,0,0,0,0c0,0-0.1,0-0.1-0.1c0,0,0,0,0,0c0,0-0.1-0.1-0.2-0.1
			c0,0,0,0,0,0c-0.1,0-0.1-0.1-0.2-0.1c0,0,0,0,0,0c-0.1,0-0.1-0.1-0.2-0.1c0,0,0,0,0,0c-0.1,0-0.1-0.1-0.2-0.1c0,0,0,0,0,0
			c-0.1,0-0.1-0.1-0.2-0.1c0,0,0,0,0,0c-0.1-0.1-0.1-0.1-0.2-0.2c0,0,0,0,0,0c-0.1,0-0.1-0.1-0.2-0.2c0,0,0,0,0,0
			c-0.1-0.1-0.1-0.1-0.2-0.2c0,0,0,0,0,0c-0.1-0.1-0.1-0.1-0.2-0.2c0,0,0,0,0,0c-0.1-0.1-0.1-0.1-0.2-0.2c0,0,0,0,0-0.1
			c-0.1-0.1-0.1-0.1-0.2-0.2c0,0,0,0,0,0c-0.1-0.1-0.1-0.2-0.2-0.3c0,0,0,0,0-0.1c-0.1-0.1-0.1-0.2-0.2-0.3c0,0,0,0,0,0
			c-0.9-1.3-1.6-3.3-1.6-5.9h-8.5c0,2.7,0.7,4.6,1.6,5.9c0,0,0,0,0,0c0.1,0.1,0.1,0.2,0.2,0.3c0,0,0,0,0,0.1
			c0.1,0.1,0.1,0.2,0.2,0.3c0,0,0,0,0,0c0.1,0.1,0.1,0.2,0.2,0.2c0,0,0,0,0,0.1c0.1,0.1,0.1,0.2,0.2,0.2c0,0,0,0,0,0
			c0.1,0.1,0.1,0.1,0.2,0.2c0,0,0,0,0,0c0.1,0.1,0.1,0.1,0.2,0.2c0,0,0,0,0,0c0.1,0.1,0.1,0.1,0.2,0.2c0,0,0,0,0,0
			c0.1,0.1,0.1,0.1,0.2,0.2c0,0,0,0,0,0c0.1,0,0.1,0.1,0.2,0.1c0,0,0,0,0,0c0.1,0,0.1,0.1,0.2,0.1c0,0,0,0,0,0
			c0.1,0,0.1,0.1,0.2,0.1c0,0,0,0,0,0c0.1,0,0.1,0.1,0.2,0.1c0,0,0,0,0,0c0.1,0,0.1,0.1,0.2,0.1c0,0,0,0,0,0c0,0,0.1,0,0.1,0.1
			c0,0,0,0,0,0c0,0,0.1,0,0.1,0.1c0,0,0,0,0,0c0,0,0.1,0,0.1,0c0,0,0,0,0,0c0,0,0.1,0,0.1,0c0,0,0,0,0,0c0,0,0,0,0.1,0c0,0,0,0,0,0
			c0,0,0,0,0,0c0,0,0,0,0,0c0,0,0,0,0,0c0.2,0.1,0.4,0.1,0.6,0.2c0.1,0,0.1,0,0.2,0.1c0.1,0,0.3,0.1,0.4,0.1c0.1,0,0.1,0,0.2,0.1
			c0.1,0.1,0.3,0.1,0.4,0.2c0,0,0.1,0,0.1,0.1c0.2,0.1,0.3,0.2,0.5,0.2c0,0,0.1,0,0.1,0.1c0.1,0.1,0.3,0.1,0.4,0.2
			c0.1,0,0.1,0.1,0.2,0.1c0.1,0.1,0.2,0.1,0.4,0.2c0.1,0,0.1,0.1,0.2,0.1c0.2,0.1,0.3,0.2,0.5,0.3c0,0,0,0,0,0
			c0.2,0.1,0.3,0.2,0.5,0.3c0,0,0.1,0.1,0.1,0.1c0.1,0.1,0.2,0.1,0.3,0.2c0.1,0,0.1,0.1,0.2,0.1c0.1,0.1,0.2,0.2,0.3,0.2
			c0,0,0.1,0,0.1,0.1c0.1,0.1,0.3,0.2,0.4,0.3c0,0,0.1,0.1,0.1,0.1c0.1,0.1,0.2,0.2,0.3,0.2c0,0,0.1,0.1,0.1,0.1
			c0.1,0.1,0.2,0.2,0.3,0.2c0,0,0.1,0.1,0.1,0.1c0.1,0.1,0.3,0.2,0.4,0.3c0,0,0,0,0,0c0.1,0.1,0.3,0.2,0.4,0.3c0,0,0.1,0.1,0.1,0.1
			c0.1,0.1,0.2,0.2,0.3,0.2c0,0,0.1,0.1,0.1,0.1c0.1,0.1,0.2,0.2,0.3,0.3c0,0,0.1,0.1,0.1,0.1c0.1,0.1,0.2,0.2,0.4,0.3
			c0,0,0.1,0.1,0.1,0.1c0.1,0.1,0.2,0.2,0.3,0.3c0,0,0.1,0.1,0.1,0.1c0.1,0.1,0.2,0.2,0.2,0.3c0,0,0.1,0.1,0.1,0.1
			c0.1,0.1,0.2,0.2,0.3,0.3c0,0,0,0,0,0c0.1,0.1,0.2,0.2,0.3,0.3c0,0,0.1,0.1,0.1,0.1c0.1,0.1,0.1,0.2,0.2,0.3c0,0,0.1,0.1,0.1,0.1
			c0.1,0.1,0.2,0.2,0.2,0.3c0,0,0,0.1,0.1,0.1c0.1,0.1,0.2,0.2,0.3,0.3c0,0,0,0.1,0.1,0.1c0.1,0.1,0.1,0.2,0.2,0.3
			c0,0,0.1,0.1,0.1,0.1c0.1,0.1,0.1,0.2,0.2,0.2c0,0,0,0.1,0.1,0.1c0.1,0.1,0.2,0.2,0.2,0.3c0,0,0,0,0,0c0.1,0.1,0.1,0.2,0.2,0.3
			c0,0,0,0.1,0.1,0.1c0.1,0.1,0.1,0.2,0.2,0.2c0,0,0,0.1,0.1,0.1c0.1,0.1,0.1,0.2,0.2,0.2c0,0,0,0,0,0.1c0.1,0.1,0.1,0.2,0.2,0.3
			c0,0,0,0,0,0c0,0,0,0,0,0c1.2,1.9,1.8,4.1,1.8,6.3v4.7v22.8v50.5v11.8c0,4.3-3.5,7.7-7.7,7.7h8.5c4.3,0,7.7-3.5,7.7-7.7v-11.8
			v-50.5v-22.8v-4.7C217.3,120.3,216.7,118.1,215.5,116.2z"/>
		<g>
			
				<ellipse transform="matrix(0.1602 -0.9871 0.9871 0.1602 45.7486 315.8708)" class="st6" cx="208.5" cy="131" rx="2.5" ry="2.5"/>
			<circle class="st6" cx="202" cy="136.2" r="1.2"/>
			<circle class="st6" cx="195.5" cy="132.2" r="1.2"/>
		</g>
		<path class="st2" d="M197.2,97.7c0-0.4,0-0.7,0-1.1h-8.5h-0.1h-0.1h-0.1h-8.6c0,0.4,0,0.8,0,1.1l0,0h8.9L197.2,97.7L197.2,97.7z"
			/>
		<path class="st2" d="M218,74.6c0-0.2-0.1-0.4-0.1-0.7c0-0.1,0-0.1,0-0.2c0-0.2-0.1-0.3-0.1-0.5c0-0.1,0-0.2-0.1-0.2
			c0-0.2-0.1-0.3-0.1-0.5c-0.1-1-0.5-1.9-0.9-2.7c-0.2-0.5-0.5-0.9-0.7-1.3c-0.1-0.2-0.3-0.4-0.4-0.6c-0.7-0.9-1.3-1.7-2-2.5
			c-0.2-0.3-0.5-0.5-0.7-0.8c-0.2-0.2-0.4-0.4-0.6-0.6c-0.4-0.4-0.7-0.8-1.1-1.2c-0.6-0.6-1.1-1.2-1.7-1.8c-0.5-0.6-1.1-1.1-1.6-1.6
			c-0.4-0.4-0.7-0.7-1.1-1c-0.3-0.3-0.7-0.7-1-1c-0.3-0.2-0.5-0.5-0.8-0.7c-0.2-0.2-0.5-0.4-0.7-0.6c-0.2-0.1-0.3-0.3-0.5-0.4
			c-0.2-0.2-0.5-0.4-0.7-0.6c-0.4-0.3-0.7-0.6-1-0.9c-0.7-0.6-1.3-1-1.8-1.5c-0.1-0.1-0.2-0.2-0.3-0.2c-0.7-0.6-1.5-0.9-2.4-1.1
			c-0.3,0-0.6-0.1-0.9-0.1h-3.5c1.2,0,2.3,0.4,3.3,1.1c3,2.4,9.9,8.2,15.4,15.5c0.4,0.5,0.8,1.2,1.1,1.9c0.2,0.7,0.6,1.6,0.9,2.7
			c0,0,0,0,0,0c0,0.2,0.1,0.3,0.1,0.5c0.6,2.4,0.7,5-1.3,5h3.5c0.6,0,1.1-0.3,1.3-0.7c0.2-0.3,0.3-0.6,0.3-0.9c0-0.1,0-0.2,0-0.4
			C218.1,75.6,218.1,75.1,218,74.6z"/>
	</g>
	<g>
		<path class="st0" d="M175.4,154.5C175.4,154.5,175.3,154.5,175.4,154.5l-0.5-1.4h-2.1l-0.4,1.4c0,0-0.1,0.1-0.1,0.1h-1.1
			c0,0-0.1,0,0-0.1l1.9-5.6c0,0,0.1-0.1,0.1-0.1h1.5c0,0,0.1,0,0.1,0.1l1.9,5.6c0,0,0,0.1,0,0.1H175.4z M174.6,152.1l-0.8-2.4
			l-0.7,2.4H174.6z"/>
		<path class="st0" d="M176.8,154.5C176.8,154.5,176.7,154.5,176.8,154.5l0-2.8l0-2.8c0,0,0-0.1,0.1-0.1h1.1c0,0,0.1,0,0.1,0.1
			l0,2.7l0,2h2.3c0,0,0.1,0,0.1,0.1v0.8c0,0,0,0.1-0.1,0.1H176.8z"/>
		<path class="st0" d="M183.3,153.5l-0.9-1.4l-0.5,0.6l0,1.7c0,0,0,0.1-0.1,0.1h-1.1c0,0-0.1,0-0.1-0.1l0-2.8l0-2.8
			c0,0,0-0.1,0.1-0.1h1.1c0,0,0.1,0,0.1,0.1l0,2.3l1.7-2.3c0,0,0.1-0.1,0.1-0.1h1.3c0,0,0,0,0,0.1l-1.8,2.3l2.3,3.3c0,0,0,0.1,0,0.1
			H184c0,0-0.1,0-0.1-0.1L183.3,153.5z"/>
		<path class="st0" d="M187.8,154.7c-1.7,0-2.9-1.2-2.9-3c0-1.8,1.1-3,2.9-3c1.7,0,2.9,1.1,2.9,3
			C190.7,153.5,189.5,154.7,187.8,154.7z M187.8,153.7c1,0,1.6-0.8,1.6-2c0-1.2-0.6-2-1.6-2c-1,0-1.6,0.8-1.6,2
			C186.2,152.9,186.8,153.7,187.8,153.7z"/>
		<path class="st0" d="M194.8,154.5C194.7,154.5,194.7,154.5,194.8,154.5l0-2.6h-2.5l0,2.5c0,0,0,0.1-0.1,0.1h-1.1
			c0,0-0.1,0-0.1-0.1l0-2.8l0-2.8c0,0,0-0.1,0.1-0.1h1.1c0,0,0.1,0,0.1,0.1l0,2.1h2.5l0-2.1c0,0,0-0.1,0.1-0.1h1.1
			c0,0,0.1,0,0.1,0.1l0,2.8l0,2.8c0,0,0,0.1-0.1,0.1H194.8z"/>
		<path class="st0" d="M199.2,154.7c-1.7,0-2.9-1.2-2.9-3c0-1.8,1.1-3,2.9-3c1.7,0,2.9,1.1,2.9,3
			C202.1,153.5,200.9,154.7,199.2,154.7z M199.2,153.7c1,0,1.6-0.8,1.6-2c0-1.2-0.6-2-1.6-2c-1,0-1.6,0.8-1.6,2
			C197.6,152.9,198.2,153.7,199.2,153.7z"/>
		<path class="st0" d="M202.5,154.5C202.4,154.5,202.4,154.5,202.5,154.5l0-2.8l0-2.8c0,0,0-0.1,0.1-0.1h1.1c0,0,0.1,0,0.1,0.1
			l0,2.7l0,2h2.3c0,0,0.1,0,0.1,0.1v0.8c0,0,0,0.1-0.1,0.1H202.5z"/>
	</g>
	<g>
		<path class="st0" d="M177.4,172.3c0,0.1-0.1,0.2-0.2,0.2h-2.7c-0.1,0-0.2-0.1-0.2-0.2c0.6-4,1.8-8.1,3.6-11.1h-5.6
			c-0.1,0-0.2-0.1-0.2-0.2v-1.8c0-0.1,0.1-0.2,0.2-0.2h8.5c0.1,0,0.2,0.1,0.2,0.2v1.9c0,0.1,0,0.2-0.1,0.3
			C179.5,164.6,178,168.2,177.4,172.3z"/>
		<path class="st0" d="M186.5,172.8c-3.3,0-5.2-2.3-5.2-7c0-4.5,2.1-7.1,5.5-7.1c2.4,0,4,1.3,4.2,3.4c0,0.1-0.1,0.2-0.2,0.2h-2.5
			c-0.1,0-0.2-0.1-0.2-0.2c-0.2-0.8-0.7-1.4-1.6-1.4c-1.4,0-2.2,1.4-2.2,3.8c0.6-0.7,1.4-1.1,2.8-1.1c2.6,0,4.4,1.7,4.4,4.4
			C191.4,170.5,189.3,172.8,186.5,172.8z M186.3,170.7c1.3,0,2.1-0.9,2.1-2.5c0-1.6-0.6-2.7-1.9-2.7c-1.3,0-2.1,0.9-2.1,2.6
			C184.4,169.7,185.1,170.7,186.3,170.7z"/>
		<path class="st0" d="M195.5,165.8c-2.2,0-3.6-1.1-3.6-3.4c0-2.3,1.4-3.5,3.6-3.5c2.2,0,3.6,1.3,3.6,3.5
			C199.1,164.6,197.7,165.8,195.5,165.8z M193.5,172.5c-0.1,0-0.1-0.1-0.1-0.1l9.8-13.2c0.1-0.1,0.2-0.1,0.3-0.1h2.1
			c0.1,0,0.1,0.1,0.1,0.1l-9.8,13.2c-0.1,0.1-0.2,0.1-0.3,0.1H193.5z M195.5,164.1c0.8,0,1.2-0.5,1.2-1.7c0-1.3-0.4-1.8-1.2-1.8
			c-0.8,0-1.2,0.5-1.2,1.8C194.3,163.5,194.7,164.1,195.5,164.1z M203.6,172.7c-2.2,0-3.6-1.2-3.6-3.5s1.4-3.4,3.6-3.4
			s3.6,1.1,3.6,3.4C207.2,171.4,205.8,172.7,203.6,172.7z M203.6,171c0.7,0,1.2-0.5,1.2-1.8c0-1.2-0.4-1.7-1.2-1.7s-1.2,0.5-1.2,1.7
			C202.4,170.5,202.9,171,203.6,171z"/>
	</g>
</g>
<g>
	<g>
		<g>
			<g>
				<path class="st3" d="M69.8,27.2H13.6c-5.1,0-9.2,4.1-9.2,9.2v0v25.8v95.9V178v6c0,5.1,4.1,9.2,9.2,9.2h56.2
					c5.1,0,9.2-4.1,9.2-9.2v-6v-19.8V62.2V36.4v0C79,31.3,74.9,27.2,69.8,27.2z"/>
				<path class="st7" d="M8.6,184v-6v-19.8V62.2V36.4v0c0-5.1,4.1-9.2,9.2-9.2h-2.4c-5.1,0-9.2,4.1-9.2,9.2v0v25.8v95.9V178v6
					c0,5.1,4.1,9.2,9.2,9.2h2.4C12.8,193.2,8.6,189.1,8.6,184z"/>
				<path class="st8" d="M69.8,27.2h-6.2c5.1,0,9.2,4.1,9.2,9.2v0v25.8v95.9V178v6c0,5.1-4.1,9.2-9.2,9.2h6.2c5.1,0,9.2-4.1,9.2-9.2
					v-6v-19.8V62.2V36.4v0C79,31.3,74.9,27.2,69.8,27.2z"/>
				<path class="st11" d="M9.8,46.9v23.8v0v12.8V90v71.6v14.8v4.5c0,3.8,3.5,6.9,7.9,6.9h48.1c4.3,0,7.9-3.1,7.9-6.9v-4.5v-14.8V90
					v-6.5V70.7v0V46.9H9.8z"/>
				<path class="st6" d="M54.6,166.4H28.8c-9.3,0-16.8-7.5-16.8-16.8V70.9C12,61.6,19.5,54,28.8,54h25.7c9.3,0,16.8,7.5,16.8,16.8
					v78.6C71.4,158.8,63.9,166.4,54.6,166.4z"/>
				<g>
					<g>
						<g>
							<path class="st1" d="M59.2,111.8h-8.1v-8.1c0-1.9-1.6-3.5-3.5-3.5H35.8c-1.9,0-3.5,1.6-3.5,3.5v8.1h-8.1
								c-1.9,0-3.5,1.6-3.5,3.5v11.8c0,1.9,1.6,3.5,3.5,3.5h8.1v8.1c0,1.9,1.6,3.5,3.5,3.5h11.8c1.9,0,3.5-1.6,3.5-3.5v-8.1h8.1
								c1.9,0,3.5-1.6,3.5-3.5v-11.8C62.7,113.4,61.2,111.8,59.2,111.8z"/>
						</g>
					</g>
				</g>
			</g>
			<g>
				<rect x="27.4" y="23.9" class="st1" width="28.5" height="3.3"/>
				<path class="st0" d="M53.6,1.4H29.8c-1.9,0-3.4,1.5-3.4,3.4v7.9v7.9v3.4h3.4h23.8h3.4v-3.4v-7.9V4.8C56.9,2.9,55.4,1.4,53.6,1.4
					z"/>
				<path class="st10" d="M30.7,12.6V4.8c0-1.9,1.5-3.4,3.4-3.4h-2.1c-1.9,0-3.4,1.5-3.4,3.4v7.9v7.9v3.4h2.1v-3.4V12.6z"/>
				<path class="st2" d="M52.2,1.4h-3.8c1.9,0,3.4,1.5,3.4,3.4v7.9v7.9v3.4h0.4h3.4v-3.4v-7.9V4.8C55.6,2.9,54.1,1.4,52.2,1.4z"/>
				<rect x="27.4" y="23.9" class="st2" width="28.5" height="1.6"/>
				<rect x="50.1" y="23.9" class="st2" width="3.9" height="3.3"/>
			</g>
		</g>
		<defs>
			<filter id="Adobe_OpacityMaskFilter" filterUnits="userSpaceOnUse" x="23.9" y="26.7" width="2" height="0">
				<feFlood  style="flood-color:white;flood-opacity:1" result="back"/>
				<feBlend  in="SourceGraphic" in2="back" mode="normal"/>
			</filter>
		</defs>
		<mask maskUnits="userSpaceOnUse" x="23.9" y="26.7" width="2" height="0" id="SVGID_1_">
			<g class="st12">
				<defs>
					<filter id="Adobe_OpacityMaskFilter_1_" filterUnits="userSpaceOnUse" x="23.9" y="26.7" width="2" height="0">
						<feFlood  style="flood-color:white;flood-opacity:1" result="back"/>
						<feBlend  in="SourceGraphic" in2="back" mode="normal"/>
					</filter>
				</defs>
				<mask maskUnits="userSpaceOnUse" x="23.9" y="26.7" width="2" height="0" id="SVGID_1_">
					<g class="st13">
					</g>
				</mask>
				<linearGradient id="SVGID_2_" gradientUnits="userSpaceOnUse" x1="200.4359" y1="127.999" x2="16.0036" y2="21.5169">
					<stop  offset="0" style="stop-color:#000000"/>
					<stop  offset="1" style="stop-color:#FFFFFF"/>
				</linearGradient>
				<rect x="23.9" y="26.7" class="st14" width="2" height="0"/>
			</g>
		</mask>
		<linearGradient id="SVGID_3_" gradientUnits="userSpaceOnUse" x1="200.4359" y1="127.999" x2="16.0036" y2="21.5169">
			<stop  offset="0" style="stop-color:#FFFFFF"/>
			<stop  offset="1" style="stop-color:#127060"/>
		</linearGradient>
		<rect x="23.9" y="26.7" class="st15" width="2" height="0"/>
	</g>
	<g>
		<path class="st1" d="M22.4,74c-0.1,0-0.1-0.1-0.1-0.1l0.1-3.9h-3.8l0.1,3.9c0,0.1-0.1,0.1-0.1,0.1h-1.7c-0.1,0-0.1-0.1-0.1-0.1
			l0.1-4.3l-0.1-4.3c0-0.1,0.1-0.1,0.1-0.1h1.7c0.1,0,0.1,0.1,0.1,0.1l0,3.3h3.8l0-3.3c0-0.1,0.1-0.1,0.1-0.1h1.7
			c0.1,0,0.1,0.1,0.1,0.1l-0.1,4.3l0.1,4.3c0,0.1-0.1,0.1-0.1,0.1H22.4z"/>
		<path class="st1" d="M25,66.9c-0.1,0-0.1-0.1-0.1-0.1v-1.5c0-0.1,0.1-0.1,0.1-0.1h1.7c0.1,0,0.1,0.1,0.1,0.1v1.5
			c0,0.1-0.1,0.1-0.1,0.1H25z M25,74c-0.1,0-0.1-0.1-0.1-0.1l0-3.1l0-3.1c0-0.1,0.1-0.1,0.1-0.1h1.7c0.1,0,0.1,0.1,0.1,0.1l0,3.1
			l0,3.1c0,0.1-0.1,0.1-0.1,0.1H25z"/>
		<path class="st1" d="M32.1,74C32,74,32,73.9,32,73.9l0-0.6c-0.5,0.6-1.1,0.9-1.9,0.9c-1.8,0-2.8-1.5-2.8-3.3
			c0-1.9,1.1-3.4,2.8-3.4c0.8,0,1.4,0.3,1.9,0.8l0-2.9c0-0.1,0.1-0.1,0.1-0.1h1.7c0.1,0,0.1,0.1,0.1,0.1l0,4.3l0,4.3
			c0,0.1-0.1,0.1-0.1,0.1H32.1z M30.6,72.9c0.9,0,1.4-0.7,1.4-2.1c0-1.4-0.5-2.2-1.4-2.2c-1,0-1.4,0.7-1.4,2
			C29.2,72.1,29.7,72.9,30.6,72.9z"/>
		<path class="st1" d="M34.5,74c-0.1,0-0.1-0.1-0.1-0.1l0.1-3.1l-0.1-3.1c0-0.1,0.1-0.1,0.1-0.1h1.7c0.1,0,0.1,0.1,0.1,0.1l-0.1,1
			c0.5-0.8,1.4-1.1,2.3-1.1c0.1,0,0.2,0,0.3,0c0.1,0,0.1,0.1,0.1,0.1v1.2c0,0.1,0,0.1-0.1,0.1c-0.1,0-0.2,0-0.2,0
			c-1.3,0-2.3,0.7-2.3,2.2v2.8c0,0.1-0.1,0.1-0.1,0.1H34.5z"/>
		<path class="st1" d="M42.2,74.1c-2.1,0-3.3-1.3-3.3-3.4c0-2.1,1.2-3.4,3.3-3.4c2.1,0,3.3,1.3,3.3,3.4
			C45.5,72.8,44.3,74.1,42.2,74.1z M42.2,72.9c0.9,0,1.4-0.6,1.4-2.1c0-1.5-0.5-2.2-1.4-2.2c-1,0-1.4,0.7-1.4,2.2
			C40.8,72.2,41.2,72.9,42.2,72.9z"/>
		<path class="st1" d="M49.1,76.5c-1.7,0-3-0.7-3.1-2.1c0-0.1,0.1-0.1,0.1-0.1h1.6c0.1,0,0.1,0.1,0.1,0.1c0.1,0.5,0.5,0.8,1.3,0.8
			c0.8,0,1.4-0.5,1.4-1.5V73c-0.4,0.6-1.1,0.9-1.9,0.9c-1.9,0-2.9-1.4-2.9-3.2c0-1.8,1.1-3.3,2.8-3.3c0.8,0,1.4,0.3,1.9,0.8l0-0.6
			c0-0.1,0.1-0.1,0.1-0.1h1.7c0.1,0,0.1,0.1,0.1,0.1l0,3.2l0,3C52.3,75.4,51.2,76.5,49.1,76.5z M49.1,72.7c0.9,0,1.4-0.7,1.4-2
			c0-1.3-0.5-2.1-1.4-2.1c-1,0-1.4,0.7-1.4,2C47.7,72,48.2,72.7,49.1,72.7z"/>
		<path class="st1" d="M59.1,71.8c0.1,0,0.1,0.1,0.1,0.1c-0.2,1.2-1.3,2.2-3.1,2.2c-2.2,0-3.3-1.4-3.3-3.4c0-2.1,1.2-3.4,3.3-3.4
			c2.1,0,3.3,1.4,3.3,3.7c0,0.1-0.1,0.1-0.1,0.1h-4.6c0.1,1.2,0.6,1.8,1.5,1.8c0.6,0,1.1-0.3,1.3-1c0-0.1,0.1-0.1,0.1-0.1H59.1z
			 M56,68.6c-0.8,0-1.2,0.5-1.4,1.3h2.6C57.3,69.3,56.9,68.6,56,68.6z"/>
		<path class="st1" d="M59.9,74c-0.1,0-0.1-0.1-0.1-0.1l0-3l0-3.2c0-0.1,0.1-0.1,0.1-0.1h1.6c0.1,0,0.1,0.1,0.1,0.1l0,0.7
			c0.4-0.6,1.2-1,2.1-1c1.4,0,2.2,0.9,2.2,2.5v1.4l0,2.6c0,0.1-0.1,0.1-0.1,0.1h-1.7c-0.1,0-0.1-0.1-0.1-0.1l0-2.6v-1.3
			c0-0.7-0.4-1.2-1-1.2c-0.7,0-1.4,0.6-1.4,2v0.5l0,2.6c0,0.1-0.1,0.1-0.1,0.1H59.9z"/>
		<path class="st1" d="M37.1,89.1c-1.9,0-3-1-3.1-2.8c0-0.1,0-0.1,0.1-0.1h1.6c0.1,0,0.1,0.1,0.1,0.1c0,1,0.5,1.5,1.3,1.5
			c0.8,0,1.3-0.6,1.3-1.5c0-1-0.5-1.4-1.8-1.4h-0.3c-0.1,0-0.1-0.1-0.1-0.1v-1c0-0.1,0.1-0.1,0.1-0.1h0.3c1.2,0,1.7-0.5,1.7-1.2
			c0-0.7-0.5-1.2-1.1-1.2c-0.8,0-1.2,0.4-1.2,1.3c0,0.1-0.1,0.1-0.1,0.1h-1.6c-0.1,0-0.1-0.1-0.1-0.1c0.1-1.7,1.2-2.6,3.2-2.6
			c1.7,0,2.9,0.9,2.9,2.3c0,1.1-0.6,1.6-1.4,1.9c1.1,0.3,1.7,1,1.7,2.1C40.4,88.1,38.9,89.1,37.1,89.1z"/>
		<path class="st1" d="M43.2,84.6c-1.4,0-2.4-0.7-2.4-2.2c0-1.5,0.9-2.3,2.4-2.3c1.4,0,2.4,0.8,2.4,2.3
			C45.5,83.9,44.6,84.6,43.2,84.6z M41.9,89C41.8,89,41.8,89,41.9,89l6.4-8.7c0-0.1,0.1-0.1,0.2-0.1h1.3c0.1,0,0.1,0.1,0.1,0.1
			l-6.4,8.6c0,0.1-0.1,0.1-0.2,0.1H41.9z M43.2,83.5c0.5,0,0.8-0.3,0.8-1.1c0-0.9-0.3-1.2-0.8-1.2s-0.8,0.4-0.8,1.2
			C42.4,83.2,42.6,83.5,43.2,83.5z M48.4,89.1c-1.4,0-2.4-0.8-2.4-2.3s0.9-2.2,2.4-2.2s2.4,0.7,2.4,2.2
			C50.8,88.3,49.9,89.1,48.4,89.1z M48.4,88c0.5,0,0.8-0.4,0.8-1.2c0-0.8-0.3-1.1-0.8-1.1s-0.8,0.3-0.8,1.1C47.7,87.7,48,88,48.4,88
			z"/>
	</g>
</g>
<g>
	<g>
		<path class="st16" d="M1.2,255c-0.1,0-0.2-0.1-0.2-0.2l0.1-6.3l-0.1-6c0-0.1,0.1-0.2,0.2-0.2h4c3.6,0,6.4,2.2,6.4,6.3
			c0,4.3-3,6.3-6.3,6.3H1.2z M2.7,253.7h2.6c2.2,0,4.5-1.5,4.5-5c0-3.3-2.1-5-4.5-5H2.7c0,0-0.1,3.6-0.1,4.8
			C2.6,249.7,2.7,253.7,2.7,253.7z"/>
		<path class="st16" d="M21,251.8c0.1,0,0.2,0.1,0.2,0.2c-0.3,1.9-1.7,3.3-4.1,3.3c-2.9,0-4.4-2-4.4-4.8c0-2.9,1.7-4.9,4.3-4.9
			c2.7,0,4.3,1.8,4.3,4.9c0,0.1-0.1,0.2-0.2,0.2h-6.8c0.1,2.2,1,3.4,2.8,3.4c1.4,0,2.2-0.7,2.5-2.1c0-0.1,0.1-0.2,0.2-0.2H21z
			 M17,246.7c-1.5,0-2.4,1-2.6,2.7h5.2C19.5,248,18.7,246.7,17,246.7z"/>
		<path class="st16" d="M29.2,254.9c0,0.1-0.1,0.2-0.2,0.2h-6.9c-0.1,0-0.2-0.1-0.2-0.2v-0.9c0-0.1,0-0.2,0.1-0.3l5-6.6h-4.5
			c-0.1,0-0.2-0.1-0.2-0.2v-0.9c0-0.1,0.1-0.2,0.2-0.2h6.3c0.1,0,0.2,0.1,0.2,0.2v0.9c0,0.1,0,0.2-0.1,0.3l-5,6.6H29
			c0.1,0,0.2,0.1,0.2,0.2V254.9z"/>
		<path class="st16" d="M30.8,255c-0.1,0-0.2-0.1-0.2-0.2l0.1-4.6l-0.1-4.3c0-0.1,0.1-0.2,0.2-0.2h1.3c0.1,0,0.2,0.1,0.2,0.2
			l-0.1,4.3l0.1,4.6c0,0.1-0.1,0.2-0.2,0.2H30.8z M30.9,244.7c-0.1,0-0.2-0.1-0.2-0.2V243c0-0.1,0.1-0.2,0.2-0.2h1.3
			c0.1,0,0.2,0.1,0.2,0.2v1.4c0,0.1-0.1,0.2-0.2,0.2H30.9z"/>
		<path class="st16" d="M34.3,255c-0.1,0-0.2-0.1-0.2-0.2l0.1-4.1l-0.1-4.9c0-0.1,0.1-0.2,0.2-0.2h1.2c0.1,0,0.2,0.1,0.2,0.2l0,1.4
			c0.6-0.9,1.6-1.8,3.1-1.8c1.9,0,3.1,1.3,3.1,3.7v1.9l0.1,3.8c0,0.1-0.1,0.2-0.2,0.2h-1.3c-0.1,0-0.2-0.1-0.2-0.2l0-3.8v-1.8
			c0-1.7-0.8-2.4-2-2.4c-1.2,0-2.2,1-2.6,2.8v1.4l0,3.8c0,0.1-0.1,0.2-0.2,0.2H34.3z"/>
		<path class="st16" d="M46.2,250.9l0.1,4c0,0.1-0.1,0.2-0.2,0.2h-1.4c-0.1,0-0.2-0.1-0.2-0.2l0.1-4V247h-1.3
			c-0.1,0-0.2-0.1-0.2-0.2v-0.9c0-0.1,0.1-0.2,0.2-0.2h1.3V245c0-2,1.2-2.8,2.4-2.8c0.4,0,0.9,0.1,1.2,0.1c0.1,0,0.2,0.1,0.2,0.2
			v0.9c0,0.1-0.1,0.2-0.2,0.1c-0.3-0.1-0.5-0.1-0.8-0.1c-0.7,0-1.2,0.5-1.2,1.6v0.7h2c0.1,0,0.2,0.1,0.2,0.2v0.9
			c0,0.1-0.1,0.2-0.2,0.2h-2V250.9z"/>
		<path class="st16" d="M49.9,255c-0.1,0-0.2-0.1-0.2-0.2l0.1-4.6l-0.1-4.3c0-0.1,0.1-0.2,0.2-0.2h1.3c0.1,0,0.2,0.1,0.2,0.2
			l-0.1,4.3l0.1,4.6c0,0.1-0.1,0.2-0.2,0.2H49.9z M49.9,244.7c-0.1,0-0.2-0.1-0.2-0.2V243c0-0.1,0.1-0.2,0.2-0.2h1.3
			c0.1,0,0.2,0.1,0.2,0.2v1.4c0,0.1-0.1,0.2-0.2,0.2H49.9z"/>
		<path class="st16" d="M57.2,255.2c-2.8,0-4.3-1.9-4.3-4.8s1.6-4.9,4.4-4.9c2.3,0,3.7,1.3,3.9,3.2c0,0.1-0.1,0.2-0.2,0.2h-1.2
			c-0.1,0-0.2-0.1-0.2-0.2c-0.2-1.4-1.2-2-2.4-2c-1.8,0-2.7,1.3-2.7,3.6c0,2.4,0.9,3.6,2.7,3.6c1.4,0,2.3-0.8,2.5-2.3
			c0-0.1,0.1-0.2,0.2-0.2h1.2c0.1,0,0.2,0.1,0.2,0.2C61,253.8,59.6,255.2,57.2,255.2z"/>
		<path class="st16" d="M62.8,255c-0.1,0-0.2-0.1-0.2-0.2l0.1-4.6l-0.1-4.3c0-0.1,0.1-0.2,0.2-0.2h1.3c0.1,0,0.2,0.1,0.2,0.2
			l-0.1,4.3l0.1,4.6c0,0.1-0.1,0.2-0.2,0.2H62.8z M62.8,244.7c-0.1,0-0.2-0.1-0.2-0.2V243c0-0.1,0.1-0.2,0.2-0.2h1.3
			c0.1,0,0.2,0.1,0.2,0.2v1.4c0,0.1-0.1,0.2-0.2,0.2H62.8z"/>
		<path class="st16" d="M66.3,258.1c-0.1,0-0.2-0.1-0.2-0.2l0.1-5.9l-0.1-6.1c0-0.1,0.1-0.2,0.2-0.2h1.3c0.1,0,0.2,0.1,0.2,0.2
			l-0.1,6.1l0.1,5.9c0,0.1-0.1,0.2-0.2,0.2H66.3z M66.4,244.7c-0.1,0-0.2-0.1-0.2-0.2V243c0-0.1,0.1-0.2,0.2-0.2h1.3
			c0.1,0,0.2,0.1,0.2,0.2v1.4c0,0.1-0.1,0.2-0.2,0.2H66.4z"/>
		<path class="st16" d="M77.7,251.8c0.1,0,0.2,0.1,0.2,0.2c-0.3,1.9-1.7,3.3-4.1,3.3c-2.9,0-4.4-2-4.4-4.8c0-2.9,1.7-4.9,4.3-4.9
			c2.7,0,4.3,1.8,4.3,4.9c0,0.1-0.1,0.2-0.2,0.2H71c0.1,2.2,1,3.4,2.8,3.4c1.4,0,2.2-0.7,2.5-2.1c0-0.1,0.1-0.2,0.2-0.2H77.7z
			 M73.7,246.7c-1.5,0-2.4,1-2.6,2.7h5.2C76.2,248,75.3,246.7,73.7,246.7z"/>
		<path class="st16" d="M79.5,255c-0.1,0-0.2-0.1-0.2-0.2l0.1-4.1l-0.1-4.9c0-0.1,0.1-0.2,0.2-0.2h1.2c0.1,0,0.2,0.1,0.2,0.2l0,1.4
			c0.6-0.9,1.6-1.8,3.1-1.8c1.9,0,3.1,1.3,3.1,3.7v1.9l0.1,3.8c0,0.1-0.1,0.2-0.2,0.2h-1.3c-0.1,0-0.2-0.1-0.2-0.2l0-3.8v-1.8
			c0-1.7-0.8-2.4-2-2.4c-1.2,0-2.2,1-2.6,2.8v1.4l0,3.8c0,0.1-0.1,0.2-0.2,0.2H79.5z"/>
		<path class="st16" d="M92.6,255.2c-2.4,0-4.1-1.1-4.2-3.2c0-0.1,0.1-0.2,0.2-0.2h1.2c0.1,0,0.2,0.1,0.2,0.2c0.1,1.5,1,2.1,2.6,2.1
			c1.4,0,2.3-0.6,2.3-1.6c0-2.4-6.3-0.5-6.3-4.2c0-1.8,1.5-2.7,3.7-2.7c2.1,0,3.7,0.9,3.9,2.8c0,0.1-0.1,0.2-0.2,0.2h-1.2
			c-0.1,0-0.2-0.1-0.2-0.2c-0.1-1.2-1-1.7-2.3-1.7c-1.3,0-2.1,0.5-2.1,1.5c0,2.3,6.3,0.3,6.3,4.2C96.5,254.2,94.8,255.2,92.6,255.2z
			"/>
		<path class="st16" d="M108.1,254.9c0,0.1-0.1,0.2-0.2,0.2H101c-0.1,0-0.2-0.1-0.2-0.2v-0.9c0-0.1,0-0.2,0.1-0.3l5-6.6h-4.5
			c-0.1,0-0.2-0.1-0.2-0.2v-0.9c0-0.1,0.1-0.2,0.2-0.2h6.3c0.1,0,0.2,0.1,0.2,0.2v0.9c0,0.1,0,0.2-0.1,0.3l-5,6.6h5.2
			c0.1,0,0.2,0.1,0.2,0.2V254.9z"/>
		<path class="st16" d="M115.7,255c-0.1,0-0.2-0.1-0.2-0.2l0-1.3c-0.6,1-1.6,1.7-3,1.7c-2.5,0-3.8-2.1-3.8-4.8s1.4-4.8,3.9-4.8
			c1.3,0,2.3,0.6,2.9,1.6l0-1.2c0-0.1,0.1-0.2,0.2-0.2h1.3c0.1,0,0.2,0.1,0.2,0.2l-0.1,4.4l0.1,4.5c0,0.1-0.1,0.2-0.2,0.2H115.7z
			 M112.9,254c1.6,0,2.6-1.2,2.6-3.5c0-2.2-0.8-3.5-2.3-3.7c-0.1,0-0.3,0-0.4,0c-1.7,0.1-2.4,1.5-2.4,3.5
			C110.4,252.5,111.2,254,112.9,254z"/>
		<path class="st16" d="M126.7,255.2c-1.3,0-2.3-0.5-2.9-1.5l0,4.2c0,0.1-0.1,0.2-0.2,0.2h-1.3c-0.1,0-0.2-0.1-0.2-0.2l0.1-6.9
			l-0.1-5.1c0-0.1,0.1-0.2,0.2-0.2h1.3c0.1,0,0.2,0.1,0.2,0.2l0,1.3c0.6-1,1.6-1.7,3-1.7c2.5,0,3.8,2.1,3.8,4.8
			C130.6,253.1,129.2,255.2,126.7,255.2z M126.3,254c1.8,0,2.6-1.4,2.6-3.5c0-2.2-0.8-3.7-2.6-3.7c-1.6,0-2.6,1.2-2.6,3.5
			C123.7,252.7,124.7,254,126.3,254z"/>
		<path class="st16" d="M132.1,255c-0.1,0-0.2-0.1-0.2-0.2l0.1-4.6l-0.1-4.4c0-0.1,0.1-0.2,0.2-0.2h1.3c0.1,0,0.2,0.1,0.2,0.2
			l-0.1,1.6c0.6-1.2,1.9-1.8,3.2-1.8c0.2,0,0.4,0,0.5,0.1c0.1,0,0.2,0.1,0.2,0.2v1c0,0.1-0.1,0.2-0.2,0.2c-0.1,0-0.3,0-0.5,0
			c-1.5,0-2.9,0.9-3.1,3l0,4.9c0,0.1-0.1,0.2-0.2,0.2H132.1z"/>
		<path class="st16" d="M138.7,255c-0.1,0-0.2-0.1-0.2-0.2l0.1-4.6l-0.1-4.3c0-0.1,0.1-0.2,0.2-0.2h1.3c0.1,0,0.2,0.1,0.2,0.2
			l-0.1,4.3l0.1,4.6c0,0.1-0.1,0.2-0.2,0.2H138.7z M138.7,244.7c-0.1,0-0.2-0.1-0.2-0.2V243c0-0.1,0.1-0.2,0.2-0.2h1.3
			c0.1,0,0.2,0.1,0.2,0.2v1.4c0,0.1-0.1,0.2-0.2,0.2H138.7z"/>
		<path class="st16" d="M146.6,255.2c-1.3,0-2.3-0.6-2.9-1.6l0,1.2c0,0.1-0.1,0.2-0.2,0.2h-1.3c-0.1,0-0.2-0.1-0.2-0.2l0.1-6.7
			l-0.1-5.5c0-0.1,0.1-0.2,0.2-0.2h1.3c0.1,0,0.2,0.1,0.2,0.2l0,4.6c0.6-1,1.6-1.6,3-1.6c2.5,0,3.8,2.1,3.8,4.8
			C150.4,253.1,149,255.2,146.6,255.2z M146.2,254c1.8,0,2.6-1.4,2.6-3.5c0-2.2-0.8-3.7-2.6-3.7c-1.6,0-2.6,1.2-2.6,3.5
			C143.6,252.6,144.5,254,146.2,254z"/>
		<path class="st16" d="M155.9,255.2c-2.8,0-4.4-1.9-4.4-4.8c0-2.9,1.6-4.9,4.4-4.9c2.8,0,4.4,1.9,4.4,4.8S158.7,255.2,155.9,255.2z
			 M155.9,254c1.8,0,2.7-1.3,2.7-3.6s-0.9-3.7-2.7-3.7c-1.8,0-2.7,1.4-2.7,3.7S154.1,254,155.9,254z"/>
		<path class="st16" d="M161.8,255c-0.1,0-0.2-0.1-0.2-0.2l0.1-4.6l-0.1-4.4c0-0.1,0.1-0.2,0.2-0.2h1.3c0.1,0,0.2,0.1,0.2,0.2
			l-0.1,1.6c0.6-1.2,1.9-1.8,3.2-1.8c0.2,0,0.4,0,0.5,0.1c0.1,0,0.2,0.1,0.2,0.2v1c0,0.1-0.1,0.2-0.2,0.2c-0.1,0-0.3,0-0.5,0
			c-1.5,0-2.9,0.9-3.1,3l0,4.9c0,0.1-0.1,0.2-0.2,0.2H161.8z"/>
		<path class="st16" d="M166.4,256.8c-0.1,0-0.2-0.1-0.1-0.2l0.4-1.6v-1.7c0-0.1,0.1-0.2,0.2-0.2h1.3c0.1,0,0.2,0.1,0.2,0.2v1.5
			c0,0.1,0,0.2-0.1,0.3l-1,1.5c-0.1,0.1-0.2,0.1-0.3,0.1H166.4z"/>
		<path class="st16" d="M7.5,276.6c-0.1,0-0.2-0.1-0.2-0.2l0-1.3c-0.6,1-1.6,1.7-3,1.7c-2.5,0-3.8-2.1-3.8-4.8s1.4-4.8,3.9-4.8
			c1.3,0,2.3,0.6,2.9,1.6l0-1.2c0-0.1,0.1-0.2,0.2-0.2h1.3c0.1,0,0.2,0.1,0.2,0.2l-0.1,4.4l0.1,4.5c0,0.1-0.1,0.2-0.2,0.2H7.5z
			 M4.8,275.6c1.6,0,2.6-1.2,2.6-3.5c0-2.2-0.8-3.5-2.3-3.7c-0.1,0-0.3,0-0.4,0c-1.7,0.1-2.4,1.5-2.4,3.5
			C2.2,274.1,3,275.6,4.8,275.6z"/>
		<path class="st16" d="M10.9,276.6c-0.1,0-0.2-0.1-0.2-0.2l0.1-6.2l-0.1-6c0-0.1,0.1-0.2,0.2-0.2h1.3c0.1,0,0.2,0.1,0.2,0.2l-0.1,6
			l0.1,6.2c0,0.1-0.1,0.2-0.2,0.2H10.9z"/>
		<path class="st16" d="M18.9,275.1l-2-3.2l-1.2,1.3l0,3.2c0,0.1-0.1,0.2-0.2,0.2h-1.3c-0.1,0-0.2-0.1-0.2-0.2l0.1-6.1l-0.1-6.2
			c0-0.1,0.1-0.2,0.2-0.2h1.3c0.1,0,0.2,0.1,0.2,0.2l-0.1,6.1v1l3.5-3.9c0.1-0.1,0.2-0.1,0.3-0.1h1.5c0.1,0,0.1,0.1,0.1,0.1l-3,3.3
			l3.4,5.7c0,0.1,0,0.2-0.1,0.2h-1.5c-0.1,0-0.2-0.1-0.3-0.2L18.9,275.1z"/>
		<path class="st16" d="M26,276.8c-2.8,0-4.4-1.9-4.4-4.8c0-2.9,1.6-4.9,4.4-4.9c2.8,0,4.4,1.9,4.4,4.8S28.8,276.8,26,276.8z
			 M26,275.6c1.8,0,2.7-1.3,2.7-3.6s-0.9-3.7-2.7-3.7c-1.8,0-2.7,1.4-2.7,3.7S24.2,275.6,26,275.6z"/>
		<path class="st16" d="M36,268.4c-1.2,0-2.2,1-2.6,2.6l0.1,5.4c0,0.1-0.1,0.2-0.2,0.2H32c-0.1,0-0.2-0.1-0.2-0.2l0.1-6.2l-0.1-6
			c0-0.1,0.1-0.2,0.2-0.2h1.3c0.1,0,0.2,0.1,0.2,0.2l-0.1,4.6c0.6-1,1.6-1.7,3-1.7c2,0,3.2,1.2,3.2,3.9l0,1.9l0.1,3.6
			c0,0.1-0.1,0.2-0.2,0.2h-1.3c-0.1,0-0.2-0.1-0.2-0.2l0.1-3.5v-2C37.9,269.2,37.1,268.4,36,268.4z"/>
		<path class="st16" d="M45.3,276.8c-2.8,0-4.4-1.9-4.4-4.8c0-2.9,1.6-4.9,4.4-4.9c2.8,0,4.4,1.9,4.4,4.8S48.1,276.8,45.3,276.8z
			 M45.3,275.6c1.8,0,2.7-1.3,2.7-3.6s-0.9-3.7-2.7-3.7c-1.8,0-2.7,1.4-2.7,3.7S43.5,275.6,45.3,275.6z"/>
		<path class="st16" d="M51.3,276.6c-0.1,0-0.2-0.1-0.2-0.2l0.1-6.2l-0.1-6c0-0.1,0.1-0.2,0.2-0.2h1.3c0.1,0,0.2,0.1,0.2,0.2l-0.1,6
			l0.1,6.2c0,0.1-0.1,0.2-0.2,0.2H51.3z"/>
		<path class="st16" d="M64.9,276.5c0,0.1-0.1,0.2-0.2,0.2h-6.9c-0.1,0-0.2-0.1-0.2-0.2v-0.9c0-0.1,0-0.2,0.1-0.3l5-6.6h-4.5
			c-0.1,0-0.2-0.1-0.2-0.2v-0.9c0-0.1,0.1-0.2,0.2-0.2h6.3c0.1,0,0.2,0.1,0.2,0.2v0.9c0,0.1,0,0.2-0.1,0.3l-5,6.6h5.2
			c0.1,0,0.2,0.1,0.2,0.2V276.5z"/>
		<path class="st16" d="M72.5,276.6c-0.1,0-0.2-0.1-0.2-0.2l0-1.3c-0.6,1-1.6,1.7-3,1.7c-2.5,0-3.8-2.1-3.8-4.8s1.4-4.8,3.9-4.8
			c1.3,0,2.3,0.6,2.9,1.6l0-1.2c0-0.1,0.1-0.2,0.2-0.2h1.3c0.1,0,0.2,0.1,0.2,0.2l-0.1,4.4l0.1,4.5c0,0.1-0.1,0.2-0.2,0.2H72.5z
			 M69.8,275.6c1.6,0,2.6-1.2,2.6-3.5c0-2.2-0.8-3.5-2.3-3.7c-0.1,0-0.3,0-0.4,0c-1.7,0.1-2.4,1.5-2.4,3.5
			C67.2,274.1,68,275.6,69.8,275.6z"/>
		<path class="st16" d="M85.4,276.6c-0.1,0-0.2-0.1-0.2-0.2l0-1.3c-0.6,1-1.6,1.7-3,1.7c-2.5,0-3.8-2.1-3.8-4.8
			c0-2.7,1.4-4.8,3.9-4.8c1.3,0,2.3,0.5,2.9,1.6l0-4.5c0-0.1,0.1-0.2,0.2-0.2h1.3c0.1,0,0.2,0.1,0.2,0.2l-0.1,5.4l0.1,6.8
			c0,0.1-0.1,0.2-0.2,0.2H85.4z M82.7,275.6c1.6,0,2.6-1.2,2.6-3.5c0-2.3-0.9-3.7-2.6-3.7c-1.8,0-2.6,1.5-2.6,3.5
			C80.2,274.1,81,275.6,82.7,275.6z"/>
		<path class="st16" d="M96.6,273.4c0.1,0,0.2,0.1,0.2,0.2c-0.3,1.9-1.7,3.3-4.1,3.3c-2.9,0-4.4-2-4.4-4.8c0-2.9,1.7-4.9,4.3-4.9
			c2.7,0,4.3,1.8,4.3,4.9c0,0.1-0.1,0.2-0.2,0.2h-6.8c0.1,2.2,1,3.4,2.8,3.4c1.4,0,2.2-0.7,2.5-2.1c0-0.1,0.1-0.2,0.2-0.2H96.6z
			 M92.6,268.3c-1.5,0-2.4,1-2.6,2.7h5.2C95.1,269.6,94.3,268.3,92.6,268.3z"/>
		<path class="st16" d="M104.8,276.5c0,0.1-0.1,0.2-0.2,0.2h-6.9c-0.1,0-0.2-0.1-0.2-0.2v-0.9c0-0.1,0-0.2,0.1-0.3l5-6.6h-4.5
			c-0.1,0-0.2-0.1-0.2-0.2v-0.9c0-0.1,0.1-0.2,0.2-0.2h6.3c0.1,0,0.2,0.1,0.2,0.2v0.9c0,0.1,0,0.2-0.1,0.3l-5,6.6h5.2
			c0.1,0,0.2,0.1,0.2,0.2V276.5z"/>
		<path class="st16" d="M106.5,276.6c-0.1,0-0.2-0.1-0.2-0.2l0.1-4.6l-0.1-4.3c0-0.1,0.1-0.2,0.2-0.2h1.3c0.1,0,0.2,0.1,0.2,0.2
			l-0.1,4.3l0.1,4.6c0,0.1-0.1,0.2-0.2,0.2H106.5z M106.5,266.3c-0.1,0-0.2-0.1-0.2-0.2v-1.4c0-0.1,0.1-0.2,0.2-0.2h1.3
			c0.1,0,0.2,0.1,0.2,0.2v1.4c0,0.1-0.1,0.2-0.2,0.2H106.5z"/>
		<path class="st16" d="M109.9,276.6c-0.1,0-0.2-0.1-0.2-0.2l0.1-4.1l-0.1-4.9c0-0.1,0.1-0.2,0.2-0.2h1.2c0.1,0,0.2,0.1,0.2,0.2
			l0,1.4c0.6-0.9,1.6-1.8,3.1-1.8c1.9,0,3.1,1.3,3.1,3.7v1.9l0.1,3.8c0,0.1-0.1,0.2-0.2,0.2h-1.3c-0.1,0-0.2-0.1-0.2-0.2l0-3.8v-1.8
			c0-1.7-0.8-2.4-2-2.4c-1.2,0-2.2,1-2.6,2.8v1.4l0,3.8c0,0.1-0.1,0.2-0.2,0.2H109.9z"/>
		<path class="st16" d="M121.8,272.5l0.1,4c0,0.1-0.1,0.2-0.2,0.2h-1.4c-0.1,0-0.2-0.1-0.2-0.2l0.1-4v-3.8h-1.3
			c-0.1,0-0.2-0.1-0.2-0.2v-0.9c0-0.1,0.1-0.2,0.2-0.2h1.3v-0.8c0-2,1.2-2.8,2.4-2.8c0.4,0,0.9,0.1,1.2,0.1c0.1,0,0.2,0.1,0.2,0.2
			v0.9c0,0.1-0.1,0.2-0.2,0.1c-0.3-0.1-0.5-0.1-0.8-0.1c-0.7,0-1.2,0.5-1.2,1.6v0.7h2c0.1,0,0.2,0.1,0.2,0.2v0.9
			c0,0.1-0.1,0.2-0.2,0.2h-2V272.5z"/>
		<path class="st16" d="M132.6,273.4c0.1,0,0.2,0.1,0.2,0.2c-0.3,1.9-1.7,3.3-4.1,3.3c-2.9,0-4.4-2-4.4-4.8c0-2.9,1.7-4.9,4.3-4.9
			c2.7,0,4.3,1.8,4.3,4.9c0,0.1-0.1,0.2-0.2,0.2h-6.8c0.1,2.2,1,3.4,2.8,3.4c1.4,0,2.2-0.7,2.5-2.1c0-0.1,0.1-0.2,0.2-0.2H132.6z
			 M128.6,268.3c-1.5,0-2.4,1-2.6,2.7h5.2C131.1,269.6,130.2,268.3,128.6,268.3z"/>
		<path class="st16" d="M139,275.1l-2-3.2l-1.2,1.3l0,3.2c0,0.1-0.1,0.2-0.2,0.2h-1.3c-0.1,0-0.2-0.1-0.2-0.2l0.1-6.1l-0.1-6.2
			c0-0.1,0.1-0.2,0.2-0.2h1.3c0.1,0,0.2,0.1,0.2,0.2l-0.1,6.1v1l3.5-3.9c0.1-0.1,0.2-0.1,0.3-0.1h1.5c0.1,0,0.1,0.1,0.1,0.1l-3,3.3
			l3.4,5.7c0,0.1,0,0.2-0.1,0.2H140c-0.1,0-0.2-0.1-0.3-0.2L139,275.1z"/>
		<path class="st16" d="M146,276.8c-2.8,0-4.3-1.9-4.3-4.8s1.6-4.9,4.4-4.9c2.3,0,3.7,1.3,3.9,3.2c0,0.1-0.1,0.2-0.2,0.2h-1.2
			c-0.1,0-0.2-0.1-0.2-0.2c-0.2-1.4-1.2-2-2.4-2c-1.8,0-2.7,1.3-2.7,3.6c0,2.4,0.9,3.6,2.7,3.6c1.4,0,2.3-0.8,2.5-2.3
			c0-0.1,0.1-0.2,0.2-0.2h1.2c0.1,0,0.2,0.1,0.2,0.2C149.8,275.4,148.3,276.8,146,276.8z"/>
		<path class="st16" d="M151.6,276.6c-0.1,0-0.2-0.1-0.2-0.2l0.1-4.6l-0.1-4.3c0-0.1,0.1-0.2,0.2-0.2h1.3c0.1,0,0.2,0.1,0.2,0.2
			l-0.1,4.3l0.1,4.6c0,0.1-0.1,0.2-0.2,0.2H151.6z M151.6,266.3c-0.1,0-0.2-0.1-0.2-0.2v-1.4c0-0.1,0.1-0.2,0.2-0.2h1.3
			c0.1,0,0.2,0.1,0.2,0.2v1.4c0,0.1-0.1,0.2-0.2,0.2H151.6z"/>
		<path class="st16" d="M155.1,279.7c-0.1,0-0.2-0.1-0.2-0.2l0.1-5.9l-0.1-6.1c0-0.1,0.1-0.2,0.2-0.2h1.3c0.1,0,0.2,0.1,0.2,0.2
			l-0.1,6.1l0.1,5.9c0,0.1-0.1,0.2-0.2,0.2H155.1z M155.1,266.3c-0.1,0-0.2-0.1-0.2-0.2v-1.4c0-0.1,0.1-0.2,0.2-0.2h1.3
			c0.1,0,0.2,0.1,0.2,0.2v1.4c0,0.1-0.1,0.2-0.2,0.2H155.1z"/>
		<path class="st16" d="M161.5,276.8c-1.9,0-3.1-1.3-3.1-3.7v-1.8l0-3.8c0-0.1,0.1-0.2,0.2-0.2h1.3c0.1,0,0.2,0.1,0.2,0.2l0,3.8v1.8
			c0,1.7,0.8,2.4,2,2.4c1.2,0,2.2-1,2.6-2.8v-1.4l0-3.8c0-0.1,0.1-0.2,0.2-0.2h1.3c0.1,0,0.2,0.1,0.2,0.2l-0.1,4.1l0,4.9
			c0,0.1-0.1,0.2-0.2,0.2h-1.2c-0.1,0-0.2-0.1-0.2-0.2l0.1-1.4C164,276,163,276.8,161.5,276.8z"/>
		<path class="st16" d="M5.6,296.7l-2-3.2l-1.2,1.3l0,3.2c0,0.1-0.1,0.2-0.2,0.2H1c-0.1,0-0.2-0.1-0.2-0.2l0.1-6.1l-0.1-6.2
			c0-0.1,0.1-0.2,0.2-0.2h1.3c0.1,0,0.2,0.1,0.2,0.2l-0.1,6.1v1l3.5-3.9C6,289,6.2,289,6.3,289h1.5c0.1,0,0.1,0.1,0.1,0.1l-3,3.3
			l3.4,5.7c0,0.1,0,0.2-0.1,0.2H6.6c-0.1,0-0.2-0.1-0.3-0.2L5.6,296.7z"/>
		<path class="st16" d="M12.7,298.4c-2.8,0-4.4-1.9-4.4-4.8c0-2.9,1.6-4.9,4.4-4.9c2.8,0,4.4,1.9,4.4,4.8S15.5,298.4,12.7,298.4z
			 M12.7,297.2c1.8,0,2.7-1.3,2.7-3.6s-0.9-3.7-2.7-3.7c-1.8,0-2.7,1.4-2.7,3.7S10.8,297.2,12.7,297.2z"/>
		<path class="st16" d="M24.9,298.1c0,0.1-0.1,0.2-0.2,0.2h-6.9c-0.1,0-0.2-0.1-0.2-0.2v-0.9c0-0.1,0-0.2,0.1-0.3l5-6.6h-4.5
			c-0.1,0-0.2-0.1-0.2-0.2v-0.9c0-0.1,0.1-0.2,0.2-0.2h6.3c0.1,0,0.2,0.1,0.2,0.2v0.9c0,0.1,0,0.2-0.1,0.3l-5,6.6h5.2
			c0.1,0,0.2,0.1,0.2,0.2V298.1z M21.8,287.8c-0.1,0.1-0.2,0.1-0.3,0.1h-0.4c-0.1,0-0.2,0-0.3-0.1l-2.3-1.4
			c-0.1-0.1-0.1-0.2-0.1-0.3l0.2-0.5c0-0.1,0.1-0.1,0.2-0.1l2.5,1.1l2.4-1.1c0.1,0,0.2,0,0.2,0.1l0.2,0.5c0,0.1,0,0.2-0.1,0.3
			L21.8,287.8z"/>
		<path class="st16" d="M33.8,295c0.1,0,0.2,0.1,0.2,0.2c-0.3,1.9-1.7,3.3-4.1,3.3c-2.9,0-4.4-2-4.4-4.8c0-2.9,1.7-4.9,4.3-4.9
			c2.7,0,4.3,1.8,4.3,4.9c0,0.1-0.1,0.2-0.2,0.2h-6.8c0.1,2.2,1,3.4,2.8,3.4c1.4,0,2.2-0.7,2.5-2.1c0-0.1,0.1-0.2,0.2-0.2H33.8z
			 M29.8,289.9c-1.5,0-2.4,1-2.6,2.7h5.2C32.3,291.2,31.5,289.9,29.8,289.9z"/>
		<path class="st16" d="M42.1,298.1c0,0.1-0.1,0.2-0.2,0.2h-1.4c-0.1,0-0.2-0.1-0.1-0.2c0.7-4,1.9-7.9,3.6-11.1h-5.6
			c-0.1,0-0.2-0.1-0.2-0.2v-1c0-0.1,0.1-0.2,0.2-0.2h7.2c0.1,0,0.2,0.1,0.2,0.2v1c0,0.1,0,0.3-0.1,0.3
			C44,290.4,42.7,294.1,42.1,298.1z"/>
		<path class="st16" d="M50.8,298.5c-2.8,0-4.5-2.1-4.5-6.5c0-4.2,1.8-6.6,4.6-6.6c2.1,0,3.4,1.1,3.6,3.1c0,0.1-0.1,0.2-0.2,0.2
			h-1.3c-0.1,0-0.2-0.1-0.2-0.2c-0.1-1-0.8-1.8-2.1-1.8c-1.8,0-2.8,1.8-2.8,4.7c0.6-1,1.7-1.5,3.1-1.5c2.3,0,3.9,1.5,3.9,4.1
			C55,296.5,53.2,298.5,50.8,298.5z M50.7,297.1c1.6,0,2.6-1.2,2.6-3.1c0-1.8-0.9-3-2.5-3c-1.6,0-2.6,1.1-2.6,2.9
			C48.2,295.8,49.1,297.1,50.7,297.1z"/>
		<path class="st16" d="M59,291.6c-1.7,0-2.8-1.1-2.8-3.1c0-2,1.1-3.1,2.8-3.1c1.7,0,2.8,1.1,2.8,3.1
			C61.8,290.5,60.7,291.6,59,291.6z M59,290.5c0.9,0,1.4-0.6,1.4-2c0-1.4-0.5-2-1.4-2c-0.9,0-1.4,0.7-1.4,2
			C57.6,289.9,58.1,290.5,59,290.5z M57.9,298.2c-0.1,0-0.1-0.1-0.1-0.1l8.2-12.3c0.1-0.1,0.2-0.1,0.3-0.1h1.1
			c0.1,0,0.1,0.1,0.1,0.1l-8.2,12.3c-0.1,0.1-0.2,0.1-0.3,0.1H57.9z M66.4,298.4c-1.7,0-2.8-1.1-2.8-3.1s1.1-3,2.8-3
			c1.7,0,2.8,1.1,2.8,3S68.1,298.4,66.4,298.4z M66.4,297.3c0.9,0,1.4-0.7,1.4-2c0-1.3-0.5-2-1.4-2s-1.4,0.7-1.4,2
			C65,296.7,65.5,297.3,66.4,297.3z"/>
		<path class="st16" d="M70.4,293.6c-0.1,0-0.2-0.1-0.2-0.2v-0.9c0-0.1,0.1-0.2,0.2-0.2h3.7c0.1,0,0.2,0.1,0.2,0.2v0.9
			c0,0.1-0.1,0.2-0.2,0.2H70.4z"/>
		<path class="st16" d="M75.7,298.2c-0.1,0-0.2-0.1-0.2-0.2l0.1-4.1l-0.1-4.9c0-0.1,0.1-0.2,0.2-0.2h1.2c0.1,0,0.2,0.1,0.2,0.2
			l0,1.4c0.6-0.9,1.6-1.8,3.1-1.8c1.9,0,3.1,1.3,3.1,3.7v1.9l0.1,3.8c0,0.1-0.1,0.2-0.2,0.2h-1.3c-0.1,0-0.2-0.1-0.2-0.2l0-3.8v-1.8
			c0-1.7-0.8-2.4-2-2.4c-1.2,0-2.2,1-2.6,2.8v1.4l0,3.8c0,0.1-0.1,0.2-0.2,0.2H75.7z"/>
		<path class="st16" d="M85.2,298.2c-0.1,0-0.2-0.1-0.2-0.2l0.1-4.6l-0.1-4.3c0-0.1,0.1-0.2,0.2-0.2h1.3c0.1,0,0.2,0.1,0.2,0.2
			l-0.1,4.3l0.1,4.6c0,0.1-0.1,0.2-0.2,0.2H85.2z M85.2,287.9c-0.1,0-0.2-0.1-0.2-0.2v-1.4c0-0.1,0.1-0.2,0.2-0.2h1.3
			c0.1,0,0.2,0.1,0.2,0.2v1.4c0,0.1-0.1,0.2-0.2,0.2H85.2z"/>
		<path class="st16" d="M92.1,298.2c-0.1,0-0.2-0.1-0.2-0.2l0.1-4.6l-0.1-4.3c0-0.1,0.1-0.2,0.2-0.2h1.3c0.1,0,0.2,0.1,0.2,0.2
			l-0.1,4.3l0.1,4.6c0,0.1-0.1,0.2-0.2,0.2H92.1z M92.1,287.9c-0.1,0-0.2-0.1-0.2-0.2v-1.4c0-0.1,0.1-0.2,0.2-0.2h1.3
			c0.1,0,0.2,0.1,0.2,0.2v1.4c0,0.1-0.1,0.2-0.2,0.2H92.1z"/>
		<path class="st16" d="M103,290c-1.2,0-2.2,1-2.6,2.6l0.1,5.4c0,0.1-0.1,0.2-0.2,0.2h-1.3c-0.1,0-0.2-0.1-0.2-0.2l0.1-6.2l-0.1-6
			c0-0.1,0.1-0.2,0.2-0.2h1.3c0.1,0,0.2,0.1,0.2,0.2l-0.1,4.6c0.6-1,1.6-1.7,3-1.7c2,0,3.2,1.2,3.2,3.9l0,1.9l0.1,3.6
			c0,0.1-0.1,0.2-0.2,0.2H105c-0.1,0-0.2-0.1-0.2-0.2l0.1-3.5v-2C104.9,290.8,104.1,290,103,290z"/>
		<path class="st16" d="M108.5,298.2c-0.1,0-0.2-0.1-0.2-0.2l0.1-4.6l-0.1-4.3c0-0.1,0.1-0.2,0.2-0.2h1.3c0.1,0,0.2,0.1,0.2,0.2
			l-0.1,4.3l0.1,4.6c0,0.1-0.1,0.2-0.2,0.2H108.5z M108.5,287.9c-0.1,0-0.2-0.1-0.2-0.2v-1.4c0-0.1,0.1-0.2,0.2-0.2h1.3
			c0.1,0,0.2,0.1,0.2,0.2v1.4c0,0.1-0.1,0.2-0.2,0.2H108.5z"/>
		<path class="st16" d="M118.4,298.2c-0.1,0-0.2-0.1-0.2-0.2l0-1.3c-0.6,1-1.6,1.7-3,1.7c-2.5,0-3.8-2.1-3.8-4.8
			c0-2.7,1.4-4.8,3.9-4.8c1.3,0,2.3,0.5,2.9,1.6l0-4.5c0-0.1,0.1-0.2,0.2-0.2h1.3c0.1,0,0.2,0.1,0.2,0.2l-0.1,5.4l0.1,6.8
			c0,0.1-0.1,0.2-0.2,0.2H118.4z M115.7,297.2c1.6,0,2.6-1.2,2.6-3.5c0-2.3-0.9-3.7-2.6-3.7c-1.8,0-2.6,1.5-2.6,3.5
			C113.1,295.7,113.9,297.2,115.7,297.2z"/>
		<path class="st16" d="M121.7,298.2c-0.1,0-0.2-0.1-0.2-0.2l0.1-4.6l-0.1-4.4c0-0.1,0.1-0.2,0.2-0.2h1.3c0.1,0,0.2,0.1,0.2,0.2
			l-0.1,1.6c0.6-1.2,1.9-1.8,3.2-1.8c0.2,0,0.4,0,0.5,0.1c0.1,0,0.2,0.1,0.2,0.2v1c0,0.1-0.1,0.2-0.2,0.2c-0.1,0-0.3,0-0.5,0
			c-1.5,0-2.9,0.9-3.1,3l0,4.9c0,0.1-0.1,0.2-0.2,0.2H121.7z"/>
		<path class="st16" d="M131.4,298.4c-2.8,0-4.4-1.9-4.4-4.8c0-2.9,1.6-4.9,4.4-4.9c2.8,0,4.4,1.9,4.4,4.8S134.2,298.4,131.4,298.4z
			 M131.4,297.2c1.8,0,2.7-1.3,2.7-3.6s-0.9-3.7-2.7-3.7c-1.8,0-2.7,1.4-2.7,3.7S129.6,297.2,131.4,297.2z"/>
		<path class="st16" d="M141.1,301.8c-2.1,0-3.8-0.9-4-2.8c0-0.1,0.1-0.2,0.2-0.2h1.3c0.1,0,0.2,0.1,0.2,0.2
			c0.2,1.1,1.1,1.7,2.4,1.7c1.6,0,2.6-0.9,2.6-3v-1c-0.6,1-1.6,1.6-2.9,1.6c-2.6,0-4-2-4-4.6c0-2.6,1.4-4.8,3.9-4.8
			c1.3,0,2.3,0.6,2.9,1.6l-0.1-1.3c0-0.1,0.1-0.2,0.2-0.2h1.3c0.1,0,0.2,0.1,0.2,0.2l0,3.5l0,4.9
			C145.3,300.3,143.8,301.8,141.1,301.8z M141.2,297c1.5,0,2.5-1.1,2.5-3.4c0-2.2-0.8-3.5-2.3-3.6c-0.1,0-0.3,0-0.4,0
			c-1.6,0.1-2.4,1.4-2.4,3.5C138.5,295.7,139.4,297,141.2,297z"/>
		<path class="st16" d="M154.9,295c0.1,0,0.2,0.1,0.2,0.2c-0.3,1.9-1.7,3.3-4.1,3.3c-2.9,0-4.4-2-4.4-4.8c0-2.9,1.7-4.9,4.3-4.9
			c2.7,0,4.3,1.8,4.3,4.9c0,0.1-0.1,0.2-0.2,0.2h-6.8c0.1,2.2,1,3.4,2.8,3.4c1.4,0,2.2-0.7,2.5-2.1c0-0.1,0.1-0.2,0.2-0.2H154.9z
			 M151,289.9c-1.5,0-2.4,1-2.6,2.7h5.2C153.5,291.2,152.6,289.9,151,289.9z"/>
		<path class="st16" d="M156.8,298.2c-0.1,0-0.2-0.1-0.2-0.2l0.1-4.1l-0.1-4.9c0-0.1,0.1-0.2,0.2-0.2h1.2c0.1,0,0.2,0.1,0.2,0.2
			l0,1.4c0.6-0.9,1.6-1.8,3.1-1.8c1.9,0,3.1,1.3,3.1,3.7v1.9l0.1,3.8c0,0.1-0.1,0.2-0.2,0.2H163c-0.1,0-0.2-0.1-0.2-0.2l0-3.8v-1.8
			c0-1.7-0.8-2.4-2-2.4c-1.2,0-2.2,1-2.6,2.8v1.4l0,3.8c0,0.1-0.1,0.2-0.2,0.2H156.8z"/>
		<path class="st16" d="M4.7,320c-2.6,0-4-1.4-4.2-4c0-0.1,0.1-0.2,0.2-0.2H2c0.1,0,0.2,0.1,0.2,0.2c0.1,1.7,0.9,2.7,2.6,2.7
			c1.7,0,2.6-1.1,2.7-2.6c0-1.6-1-2.4-3-2.4H3.9c-0.1,0-0.2-0.1-0.2-0.2v-0.8c0-0.1,0.1-0.2,0.2-0.2h0.6c1.9,0,2.8-0.8,2.8-2.1
			c0-1.3-1-2.1-2.3-2.1c-1.6,0-2.4,0.8-2.6,2.5c0,0.1-0.1,0.2-0.2,0.2H0.9c-0.1,0-0.2-0.1-0.2-0.2c0.1-2.5,1.8-3.8,4.2-3.8
			c2.2,0,3.9,1.2,3.9,3.2c0,1.5-0.9,2.3-2.2,2.7c1.6,0.3,2.5,1.5,2.5,3C9.1,318.5,7.3,320,4.7,320z"/>
		<path class="st16" d="M13.2,313.2c-1.7,0-2.8-1.1-2.8-3.1c0-2,1.1-3.1,2.8-3.1c1.7,0,2.8,1.1,2.8,3.1
			C16,312.1,14.9,313.2,13.2,313.2z M13.2,312.1c0.9,0,1.4-0.6,1.4-2c0-1.4-0.5-2-1.4-2c-0.9,0-1.4,0.7-1.4,2
			C11.8,311.5,12.3,312.1,13.2,312.1z M12.1,319.8c-0.1,0-0.1-0.1-0.1-0.1l8.2-12.3c0.1-0.1,0.2-0.1,0.3-0.1h1.1
			c0.1,0,0.1,0.1,0.1,0.1l-8.2,12.3c-0.1,0.1-0.2,0.1-0.3,0.1H12.1z M20.6,320c-1.7,0-2.8-1.1-2.8-3.1s1.1-3,2.8-3
			c1.7,0,2.8,1.1,2.8,3S22.3,320,20.6,320z M20.6,318.9c0.9,0,1.4-0.7,1.4-2c0-1.3-0.5-2-1.4-2s-1.4,0.7-1.4,2
			C19.2,318.3,19.7,318.9,20.6,318.9z"/>
		<path class="st16" d="M24.6,315.2c-0.1,0-0.2-0.1-0.2-0.2v-0.9c0-0.1,0.1-0.2,0.2-0.2h3.7c0.1,0,0.2,0.1,0.2,0.2v0.9
			c0,0.1-0.1,0.2-0.2,0.2H24.6z"/>
		<path class="st16" d="M29.9,319.8c-0.1,0-0.2-0.1-0.2-0.2l0.1-4.1l-0.1-4.9c0-0.1,0.1-0.2,0.2-0.2h1.2c0.1,0,0.2,0.1,0.2,0.2
			l0,1.4c0.6-0.9,1.6-1.8,3.1-1.8c1.9,0,3.1,1.3,3.1,3.7v1.9l0.1,3.8c0,0.1-0.1,0.2-0.2,0.2H36c-0.1,0-0.2-0.1-0.2-0.2l0-3.8v-1.8
			c0-1.7-0.8-2.4-2-2.4c-1.2,0-2.2,1-2.6,2.8v1.4l0,3.8c0,0.1-0.1,0.2-0.2,0.2H29.9z"/>
		<path class="st16" d="M39.4,319.8c-0.1,0-0.2-0.1-0.2-0.2l0.1-4.6l-0.1-4.3c0-0.1,0.1-0.2,0.2-0.2h1.3c0.1,0,0.2,0.1,0.2,0.2
			l-0.1,4.3l0.1,4.6c0,0.1-0.1,0.2-0.2,0.2H39.4z M39.4,309.5c-0.1,0-0.2-0.1-0.2-0.2v-1.4c0-0.1,0.1-0.2,0.2-0.2h1.3
			c0.1,0,0.2,0.1,0.2,0.2v1.4c0,0.1-0.1,0.2-0.2,0.2H39.4z"/>
		<path class="st16" d="M42.3,321.6c-0.1,0-0.2-0.1-0.1-0.2l0.4-1.6v-1.7c0-0.1,0.1-0.2,0.2-0.2h1.3c0.1,0,0.2,0.1,0.2,0.2v1.5
			c0,0.1,0,0.2-0.1,0.3l-1,1.5c-0.1,0.1-0.2,0.1-0.3,0.1H42.3z"/>
		<path class="st16" d="M55.2,319.8c-0.1,0-0.2-0.1-0.2-0.2l0-1.3c-0.6,1-1.6,1.7-3,1.7c-2.5,0-3.8-2.1-3.8-4.8
			c0-2.7,1.4-4.8,3.9-4.8c1.3,0,2.3,0.5,2.9,1.6l0-4.5c0-0.1,0.1-0.2,0.2-0.2h1.3c0.1,0,0.2,0.1,0.2,0.2l-0.1,5.4l0.1,6.8
			c0,0.1-0.1,0.2-0.2,0.2H55.2z M52.5,318.8c1.6,0,2.6-1.2,2.6-3.5c0-2.3-0.9-3.7-2.6-3.7c-1.8,0-2.6,1.5-2.6,3.5
			C50,317.3,50.8,318.8,52.5,318.8z"/>
		<path class="st16" d="M66.4,316.6c0.1,0,0.2,0.1,0.2,0.2c-0.3,1.9-1.7,3.3-4.1,3.3c-2.9,0-4.4-2-4.4-4.8c0-2.9,1.7-4.9,4.3-4.9
			c2.7,0,4.3,1.8,4.3,4.9c0,0.1-0.1,0.2-0.2,0.2h-6.8c0.1,2.2,1,3.4,2.8,3.4c1.4,0,2.2-0.7,2.5-2.1c0-0.1,0.1-0.2,0.2-0.2H66.4z
			 M62.4,311.5c-1.5,0-2.4,1-2.6,2.7H65C64.9,312.8,64.1,311.5,62.4,311.5z"/>
		<path class="st16" d="M74.6,319.7c0,0.1-0.1,0.2-0.2,0.2h-6.9c-0.1,0-0.2-0.1-0.2-0.2v-0.9c0-0.1,0-0.2,0.1-0.3l5-6.6h-4.5
			c-0.1,0-0.2-0.1-0.2-0.2v-0.9c0-0.1,0.1-0.2,0.2-0.2h6.3c0.1,0,0.2,0.1,0.2,0.2v0.9c0,0.1,0,0.2-0.1,0.3l-5,6.6h5.2
			c0.1,0,0.2,0.1,0.2,0.2V319.7z"/>
		<path class="st16" d="M76.2,319.8c-0.1,0-0.2-0.1-0.2-0.2l0.1-4.6l-0.1-4.3c0-0.1,0.1-0.2,0.2-0.2h1.3c0.1,0,0.2,0.1,0.2,0.2
			l-0.1,4.3l0.1,4.6c0,0.1-0.1,0.2-0.2,0.2H76.2z M76.3,309.5c-0.1,0-0.2-0.1-0.2-0.2v-1.4c0-0.1,0.1-0.2,0.2-0.2h1.3
			c0.1,0,0.2,0.1,0.2,0.2v1.4c0,0.1-0.1,0.2-0.2,0.2H76.3z"/>
		<path class="st16" d="M79.7,319.8c-0.1,0-0.2-0.1-0.2-0.2l0.1-4.1l-0.1-4.9c0-0.1,0.1-0.2,0.2-0.2H81c0.1,0,0.2,0.1,0.2,0.2l0,1.4
			c0.6-0.9,1.6-1.8,3.1-1.8c1.9,0,3.1,1.3,3.1,3.7v1.9l0.1,3.8c0,0.1-0.1,0.2-0.2,0.2h-1.3c-0.1,0-0.2-0.1-0.2-0.2l0-3.8v-1.8
			c0-1.7-0.8-2.4-2-2.4c-1.2,0-2.2,1-2.6,2.8v1.4l0,3.8c0,0.1-0.1,0.2-0.2,0.2H79.7z"/>
		<path class="st16" d="M91.6,315.7l0.1,4c0,0.1-0.1,0.2-0.2,0.2h-1.4c-0.1,0-0.2-0.1-0.2-0.2l0.1-4v-3.8h-1.3
			c-0.1,0-0.2-0.1-0.2-0.2v-0.9c0-0.1,0.1-0.2,0.2-0.2H90v-0.8c0-2,1.2-2.8,2.4-2.8c0.4,0,0.9,0.1,1.2,0.1c0.1,0,0.2,0.1,0.2,0.2
			v0.9c0,0.1-0.1,0.2-0.2,0.1c-0.3-0.1-0.5-0.1-0.8-0.1c-0.7,0-1.2,0.5-1.2,1.6v0.7h2c0.1,0,0.2,0.1,0.2,0.2v0.9
			c0,0.1-0.1,0.2-0.2,0.2h-2V315.7z"/>
		<path class="st16" d="M102.3,316.6c0.1,0,0.2,0.1,0.2,0.2c-0.3,1.9-1.7,3.3-4.1,3.3c-2.9,0-4.4-2-4.4-4.8c0-2.9,1.7-4.9,4.3-4.9
			c2.7,0,4.3,1.8,4.3,4.9c0,0.1-0.1,0.2-0.2,0.2h-6.8c0.1,2.2,1,3.4,2.8,3.4c1.4,0,2.2-0.7,2.5-2.1c0-0.1,0.1-0.2,0.2-0.2H102.3z
			 M98.4,311.5c-1.5,0-2.4,1-2.6,2.7h5.2C100.9,312.8,100,311.5,98.4,311.5z"/>
		<path class="st16" d="M108.8,318.3l-2-3.2l-1.2,1.3l0,3.2c0,0.1-0.1,0.2-0.2,0.2h-1.3c-0.1,0-0.2-0.1-0.2-0.2l0.1-6.1l-0.1-6.2
			c0-0.1,0.1-0.2,0.2-0.2h1.3c0.1,0,0.2,0.1,0.2,0.2l-0.1,6.1v1l3.5-3.9c0.1-0.1,0.2-0.1,0.3-0.1h1.5c0.1,0,0.1,0.1,0.1,0.1l-3,3.3
			l3.4,5.7c0,0.1,0,0.2-0.1,0.2h-1.5c-0.1,0-0.2-0.1-0.3-0.2L108.8,318.3z"/>
		<path class="st16" d="M115.8,320c-2.8,0-4.3-1.9-4.3-4.8s1.6-4.9,4.4-4.9c2.3,0,3.7,1.3,3.9,3.2c0,0.1-0.1,0.2-0.2,0.2h-1.2
			c-0.1,0-0.2-0.1-0.2-0.2c-0.2-1.4-1.2-2-2.4-2c-1.8,0-2.7,1.3-2.7,3.6c0,2.4,0.9,3.6,2.7,3.6c1.4,0,2.3-0.8,2.5-2.3
			c0-0.1,0.1-0.2,0.2-0.2h1.2c0.1,0,0.2,0.1,0.2,0.2C119.6,318.6,118.1,320,115.8,320z"/>
		<path class="st16" d="M121.4,319.8c-0.1,0-0.2-0.1-0.2-0.2l0.1-4.6l-0.1-4.3c0-0.1,0.1-0.2,0.2-0.2h1.3c0.1,0,0.2,0.1,0.2,0.2
			l-0.1,4.3l0.1,4.6c0,0.1-0.1,0.2-0.2,0.2H121.4z M121.4,309.5c-0.1,0-0.2-0.1-0.2-0.2v-1.4c0-0.1,0.1-0.2,0.2-0.2h1.3
			c0.1,0,0.2,0.1,0.2,0.2v1.4c0,0.1-0.1,0.2-0.2,0.2H121.4z"/>
		<path class="st16" d="M124.9,322.9c-0.1,0-0.2-0.1-0.2-0.2l0.1-5.9l-0.1-6.1c0-0.1,0.1-0.2,0.2-0.2h1.3c0.1,0,0.2,0.1,0.2,0.2
			l-0.1,6.1l0.1,5.9c0,0.1-0.1,0.2-0.2,0.2H124.9z M124.9,309.5c-0.1,0-0.2-0.1-0.2-0.2v-1.4c0-0.1,0.1-0.2,0.2-0.2h1.3
			c0.1,0,0.2,0.1,0.2,0.2v1.4c0,0.1-0.1,0.2-0.2,0.2H124.9z"/>
		<path class="st16" d="M132,320c-2.4,0-4.1-1.1-4.2-3.2c0-0.1,0.1-0.2,0.2-0.2h1.2c0.1,0,0.2,0.1,0.2,0.2c0.1,1.5,1,2.1,2.6,2.1
			c1.4,0,2.3-0.6,2.3-1.6c0-2.4-6.3-0.5-6.3-4.2c0-1.8,1.5-2.7,3.7-2.7c2.1,0,3.7,0.9,3.9,2.8c0,0.1-0.1,0.2-0.2,0.2h-1.2
			c-0.1,0-0.2-0.1-0.2-0.2c-0.1-1.2-1-1.7-2.3-1.7c-1.3,0-2.1,0.5-2.1,1.5c0,2.3,6.3,0.3,6.3,4.2C135.9,319,134.2,320,132,320z"/>
		<path class="st16" d="M142,318.3l-2-3.2l-1.2,1.3l0,3.2c0,0.1-0.1,0.2-0.2,0.2h-1.3c-0.1,0-0.2-0.1-0.2-0.2l0.1-6.1l-0.1-6.2
			c0-0.1,0.1-0.2,0.2-0.2h1.3c0.1,0,0.2,0.1,0.2,0.2l-0.1,6.1v1l3.5-3.9c0.1-0.1,0.2-0.1,0.3-0.1h1.5c0.1,0,0.1,0.1,0.1,0.1l-3,3.3
			l3.4,5.7c0,0.1,0,0.2-0.1,0.2H143c-0.1,0-0.2-0.1-0.3-0.2L142,318.3z"/>
		<path class="st16" d="M149,320c-2.8,0-4.4-1.9-4.4-4.8c0-2.9,1.6-4.9,4.4-4.9c2.8,0,4.4,1.9,4.4,4.8S151.9,320,149,320z
			 M149,318.8c1.8,0,2.7-1.3,2.7-3.6s-0.9-3.7-2.7-3.7c-1.8,0-2.7,1.4-2.7,3.7S147.2,318.8,149,318.8z"/>
		<path class="st16" d="M4.7,341.6c-2.4,0-4.1-1.1-4.2-3.2c0-0.1,0.1-0.2,0.2-0.2h1.2c0.1,0,0.2,0.1,0.2,0.2c0.1,1.5,1,2.1,2.6,2.1
			c1.4,0,2.3-0.6,2.3-1.6c0-2.4-6.3-0.5-6.3-4.2c0-1.8,1.5-2.7,3.7-2.7c2.1,0,3.7,0.9,3.9,2.8c0,0.1-0.1,0.2-0.2,0.2H6.9
			c-0.1,0-0.2-0.1-0.2-0.2c-0.1-1.2-1-1.7-2.3-1.7c-1.3,0-2.1,0.5-2.1,1.5c0,2.3,6.3,0.3,6.3,4.2C8.5,340.6,6.8,341.6,4.7,341.6z"/>
		<path class="st16" d="M10,341.4c-0.1,0-0.2-0.1-0.2-0.2l0.1-4.6l-0.1-4.4c0-0.1,0.1-0.2,0.2-0.2h1.3c0.1,0,0.2,0.1,0.2,0.2
			l-0.1,1.6c0.6-1.2,1.9-1.8,3.2-1.8c0.2,0,0.4,0,0.5,0.1c0.1,0,0.2,0.1,0.2,0.2v1c0,0.1-0.1,0.2-0.2,0.2c-0.1,0-0.3,0-0.5,0
			c-1.5,0-2.9,0.9-3.1,3l0,4.9c0,0.1-0.1,0.2-0.2,0.2H10z"/>
		<path class="st16" d="M23.7,338.2c0.1,0,0.2,0.1,0.2,0.2c-0.3,1.9-1.7,3.3-4.1,3.3c-2.9,0-4.4-2-4.4-4.8c0-2.9,1.7-4.9,4.3-4.9
			c2.7,0,4.3,1.8,4.3,4.9c0,0.1-0.1,0.2-0.2,0.2H17c0.1,2.2,1,3.4,2.8,3.4c1.4,0,2.2-0.7,2.5-2.1c0-0.1,0.1-0.2,0.2-0.2H23.7z
			 M19.7,333.1c-1.5,0-2.4,1-2.6,2.7h5.2C22.2,334.4,21.3,333.1,19.7,333.1z"/>
		<path class="st16" d="M31.9,341.4c-0.1,0-0.2-0.1-0.2-0.2l0-1.3c-0.6,1-1.6,1.7-3,1.7c-2.5,0-3.8-2.1-3.8-4.8
			c0-2.7,1.4-4.8,3.9-4.8c1.3,0,2.3,0.5,2.9,1.6l0-4.5c0-0.1,0.1-0.2,0.2-0.2h1.3c0.1,0,0.2,0.1,0.2,0.2l-0.1,5.4l0.1,6.8
			c0,0.1-0.1,0.2-0.2,0.2H31.9z M29.3,340.4c1.6,0,2.6-1.2,2.6-3.5c0-2.3-0.9-3.7-2.6-3.7c-1.8,0-2.6,1.5-2.6,3.5
			C26.7,338.9,27.5,340.4,29.3,340.4z"/>
		<path class="st16" d="M38.9,341.6c-2.4,0-4.1-1.1-4.2-3.2c0-0.1,0.1-0.2,0.2-0.2h1.2c0.1,0,0.2,0.1,0.2,0.2c0.1,1.5,1,2.1,2.6,2.1
			c1.4,0,2.3-0.6,2.3-1.6c0-2.4-6.3-0.5-6.3-4.2c0-1.8,1.5-2.7,3.7-2.7c2.1,0,3.7,0.9,3.9,2.8c0,0.1-0.1,0.2-0.2,0.2h-1.2
			c-0.1,0-0.2-0.1-0.2-0.2c-0.1-1.2-1-1.7-2.3-1.7c-1.3,0-2.1,0.5-2.1,1.5c0,2.3,6.3,0.3,6.3,4.2C42.8,340.6,41.1,341.6,38.9,341.6z
			"/>
		<path class="st16" d="M48.5,341.1c0,0.1-0.1,0.2-0.2,0.2c-0.4,0.1-0.8,0.2-1.2,0.2c-1.4,0-2.5-0.7-2.5-2.7v-5.4h-1
			c-0.1,0-0.2-0.1-0.2-0.2v-0.9c0-0.1,0.1-0.2,0.2-0.2h1l0-2.1c0-0.1,0.1-0.2,0.2-0.2h1.3c0.1,0,0.2,0.1,0.2,0.2l0,2.1h2.1
			c0.1,0,0.2,0.1,0.2,0.2v0.9c0,0.1-0.1,0.2-0.2,0.2h-2.1v5.4c0,1.1,0.4,1.5,1.2,1.5c0.3,0,0.7-0.1,0.9-0.1c0.1,0,0.2,0,0.2,0.1
			V341.1z"/>
		<path class="st16" d="M54.6,341.3c0,0.1-0.1,0.2-0.2,0.2h-1.6c-0.1,0-0.2-0.1-0.2-0.2l-3.3-9c0-0.1,0-0.2,0.1-0.2h1.4
			c0.1,0,0.2,0.1,0.2,0.2l2.6,7.8l2.7-7.8c0-0.1,0.1-0.2,0.2-0.2h1.2c0.1,0,0.1,0.1,0.1,0.2L54.6,341.3z"/>
		<path class="st16" d="M62.4,341.6c-2.8,0-4.4-1.9-4.4-4.8c0-2.9,1.6-4.9,4.4-4.9c2.8,0,4.4,1.9,4.4,4.8S65.2,341.6,62.4,341.6z
			 M62.4,340.4c1.8,0,2.7-1.3,2.7-3.6s-0.9-3.7-2.7-3.7c-1.8,0-2.7,1.4-2.7,3.7S60.6,340.4,62.4,340.4z"/>
		<path class="st16" d="M78.4,341.3c0,0.1-0.1,0.2-0.2,0.2h-6.9c-0.1,0-0.2-0.1-0.2-0.2v-0.9c0-0.1,0-0.2,0.1-0.3l5-6.6h-4.5
			c-0.1,0-0.2-0.1-0.2-0.2v-0.9c0-0.1,0.1-0.2,0.2-0.2H78c0.1,0,0.2,0.1,0.2,0.2v0.9c0,0.1,0,0.2-0.1,0.3l-5,6.6h5.2
			c0.1,0,0.2,0.1,0.2,0.2V341.3z"/>
		<path class="st16" d="M85.9,341.4c-0.1,0-0.2-0.1-0.2-0.2l0-1.3c-0.6,1-1.6,1.7-3,1.7c-2.5,0-3.8-2.1-3.8-4.8s1.4-4.8,3.9-4.8
			c1.3,0,2.3,0.6,2.9,1.6l0-1.2c0-0.1,0.1-0.2,0.2-0.2h1.3c0.1,0,0.2,0.1,0.2,0.2l-0.1,4.4l0.1,4.5c0,0.1-0.1,0.2-0.2,0.2H85.9z
			 M83.2,340.4c1.6,0,2.6-1.2,2.6-3.5c0-2.2-0.8-3.5-2.3-3.7c-0.1,0-0.3,0-0.4,0c-1.7,0.1-2.4,1.5-2.4,3.5
			C80.6,338.9,81.4,340.4,83.2,340.4z"/>
		<path class="st16" d="M96.9,341.6c-1.3,0-2.3-0.5-2.9-1.5l0,4.2c0,0.1-0.1,0.2-0.2,0.2h-1.3c-0.1,0-0.2-0.1-0.2-0.2l0.1-6.9
			l-0.1-5.1c0-0.1,0.1-0.2,0.2-0.2h1.3c0.1,0,0.2,0.1,0.2,0.2l0,1.3c0.6-1,1.6-1.7,3-1.7c2.5,0,3.8,2.1,3.8,4.8
			C100.8,339.5,99.4,341.6,96.9,341.6z M96.5,340.4c1.8,0,2.6-1.4,2.6-3.5c0-2.2-0.8-3.7-2.6-3.7c-1.6,0-2.6,1.2-2.6,3.5
			C94,339.1,94.9,340.4,96.5,340.4z"/>
		<path class="st16" d="M106.3,341.6c-2.8,0-4.4-1.9-4.4-4.8c0-2.9,1.6-4.9,4.4-4.9c2.8,0,4.4,1.9,4.4,4.8S109.1,341.6,106.3,341.6z
			 M106.3,340.4c1.8,0,2.7-1.3,2.7-3.6s-0.9-3.7-2.7-3.7c-1.8,0-2.7,1.4-2.7,3.7S104.5,340.4,106.3,340.4z"/>
		<path class="st16" d="M116.2,341.3c0,0.1-0.1,0.2-0.2,0.2h-1.6c-0.1,0-0.2-0.1-0.2-0.2l-3.3-9c0-0.1,0-0.2,0.1-0.2h1.4
			c0.1,0,0.2,0.1,0.2,0.2l2.6,7.8l2.7-7.8c0-0.1,0.1-0.2,0.2-0.2h1.2c0.1,0,0.1,0.1,0.1,0.2L116.2,341.3z"/>
		<path class="st16" d="M120.6,341.4c-0.1,0-0.2-0.1-0.2-0.2l0.1-4.6l-0.1-4.4c0-0.1,0.1-0.2,0.2-0.2h1.3c0.1,0,0.2,0.1,0.2,0.2
			l-0.1,1.6c0.6-1.2,1.9-1.8,3.2-1.8c0.2,0,0.4,0,0.5,0.1c0.1,0,0.2,0.1,0.2,0.2v1c0,0.1-0.1,0.2-0.2,0.2c-0.1,0-0.3,0-0.5,0
			c-1.5,0-2.9,0.9-3.1,3l0,4.9c0,0.1-0.1,0.2-0.2,0.2H120.6z"/>
		<path class="st16" d="M134.2,338.2c0.1,0,0.2,0.1,0.2,0.2c-0.3,1.9-1.7,3.3-4.1,3.3c-2.9,0-4.4-2-4.4-4.8c0-2.9,1.7-4.9,4.3-4.9
			c2.7,0,4.3,1.8,4.3,4.9c0,0.1-0.1,0.2-0.2,0.2h-6.8c0.1,2.2,1,3.4,2.8,3.4c1.4,0,2.2-0.7,2.5-2.1c0-0.1,0.1-0.2,0.2-0.2H134.2z
			 M130.2,333.1c-1.5,0-2.4,1-2.6,2.7h5.2C132.7,334.4,131.9,333.1,130.2,333.1z"/>
		<path class="st16" d="M142.5,341.4c-0.1,0-0.2-0.1-0.2-0.2l0-1.3c-0.6,1-1.6,1.7-3,1.7c-2.5,0-3.8-2.1-3.8-4.8
			c0-2.7,1.4-4.8,3.9-4.8c1.3,0,2.3,0.5,2.9,1.6l0-4.5c0-0.1,0.1-0.2,0.2-0.2h1.3c0.1,0,0.2,0.1,0.2,0.2l-0.1,5.4l0.1,6.8
			c0,0.1-0.1,0.2-0.2,0.2H142.5z M139.8,340.4c1.6,0,2.6-1.2,2.6-3.5c0-2.3-0.9-3.7-2.6-3.7c-1.8,0-2.6,1.5-2.6,3.5
			C137.2,338.9,138,340.4,139.8,340.4z"/>
		<path class="st16" d="M153.7,338.2c0.1,0,0.2,0.1,0.2,0.2c-0.3,1.9-1.7,3.3-4.1,3.3c-2.9,0-4.4-2-4.4-4.8c0-2.9,1.7-4.9,4.3-4.9
			c2.7,0,4.3,1.8,4.3,4.9c0,0.1-0.1,0.2-0.2,0.2H147c0.1,2.2,1,3.4,2.8,3.4c1.4,0,2.2-0.7,2.5-2.1c0-0.1,0.1-0.2,0.2-0.2H153.7z
			 M149.7,333.1c-1.5,0-2.4,1-2.6,2.7h5.2C152.2,334.4,151.3,333.1,149.7,333.1z"/>
		<path class="st16" d="M2.6,365.6c-0.1,0-0.2-0.1-0.3-0.2c-1.2-2.3-1.9-4.8-1.9-7.8s0.7-5.5,1.8-7.6c0.1-0.1,0.2-0.2,0.3-0.2h1
			c0.1,0,0.1,0.1,0.1,0.2c-1,2.3-1.7,4.8-1.7,7.6c0,2.8,0.6,5.3,1.7,7.8c0,0.1,0,0.2-0.1,0.2H2.6z"/>
		<path class="st16" d="M11.7,363c-0.1,0-0.2-0.1-0.2-0.2l0-1.3c-0.6,1-1.6,1.7-3,1.7c-2.5,0-3.8-2.1-3.8-4.8s1.4-4.8,3.9-4.8
			c1.3,0,2.3,0.6,2.9,1.6l0-1.2c0-0.1,0.1-0.2,0.2-0.2H13c0.1,0,0.2,0.1,0.2,0.2l-0.1,4.4l0.1,4.5c0,0.1-0.1,0.2-0.2,0.2H11.7z
			 M9,362c1.6,0,2.6-1.2,2.6-3.5c0-2.2-0.8-3.5-2.3-3.7c-0.1,0-0.3,0-0.4,0c-1.7,0.1-2.4,1.5-2.4,3.5C6.5,360.5,7.3,362,9,362z"/>
		<path class="st16" d="M15.1,363c-0.1,0-0.2-0.1-0.2-0.2l0.1-4.1l-0.1-4.9c0-0.1,0.1-0.2,0.2-0.2h1.2c0.1,0,0.2,0.1,0.2,0.2l0,1.4
			c0.6-0.9,1.6-1.8,3.1-1.8c1.9,0,3.1,1.3,3.1,3.7v1.9l0.1,3.8c0,0.1-0.1,0.2-0.2,0.2h-1.3c-0.1,0-0.2-0.1-0.2-0.2l0-3.8v-1.8
			c0-1.7-0.8-2.4-2-2.4c-1.2,0-2.2,1-2.6,2.8v1.4l0,3.8c0,0.1-0.1,0.2-0.2,0.2H15.1z"/>
		<path class="st16" d="M28.9,362.7c0,0.1-0.1,0.2-0.2,0.2c-0.4,0.1-0.8,0.2-1.2,0.2c-1.4,0-2.5-0.7-2.5-2.7V355h-1
			c-0.1,0-0.2-0.1-0.2-0.2v-0.9c0-0.1,0.1-0.2,0.2-0.2h1l0-2.1c0-0.1,0.1-0.2,0.2-0.2h1.3c0.1,0,0.2,0.1,0.2,0.2l0,2.1h2.1
			c0.1,0,0.2,0.1,0.2,0.2v0.9c0,0.1-0.1,0.2-0.2,0.2h-2.1v5.4c0,1.1,0.4,1.5,1.2,1.5c0.3,0,0.7-0.1,0.9-0.1c0.1,0,0.2,0,0.2,0.1
			V362.7z"/>
		<path class="st16" d="M30.3,363c-0.1,0-0.2-0.1-0.2-0.2l0.1-4.6l-0.1-4.3c0-0.1,0.1-0.2,0.2-0.2h1.3c0.1,0,0.2,0.1,0.2,0.2
			l-0.1,4.3l0.1,4.6c0,0.1-0.1,0.2-0.2,0.2H30.3z M30.3,352.7c-0.1,0-0.2-0.1-0.2-0.2V351c0-0.1,0.1-0.2,0.2-0.2h1.3
			c0.1,0,0.2,0.1,0.2,0.2v1.4c0,0.1-0.1,0.2-0.2,0.2H30.3z"/>
		<path class="st16" d="M37.4,363.2c-2.4,0-4.1-1.1-4.2-3.2c0-0.1,0.1-0.2,0.2-0.2h1.2c0.1,0,0.2,0.1,0.2,0.2c0.1,1.5,1,2.1,2.6,2.1
			c1.4,0,2.3-0.6,2.3-1.6c0-2.4-6.3-0.5-6.3-4.2c0-1.8,1.5-2.7,3.7-2.7c2.1,0,3.7,0.9,3.9,2.8c0,0.1-0.1,0.2-0.2,0.2h-1.2
			c-0.1,0-0.2-0.1-0.2-0.2c-0.1-1.2-1-1.7-2.3-1.7c-1.3,0-2.1,0.5-2.1,1.5c0,2.3,6.3,0.3,6.3,4.2C41.3,362.2,39.6,363.2,37.4,363.2z
			"/>
		<path class="st16" d="M50.7,359.8c0.1,0,0.2,0.1,0.2,0.2c-0.3,1.9-1.7,3.3-4.1,3.3c-2.9,0-4.4-2-4.4-4.8c0-2.9,1.7-4.9,4.3-4.9
			c2.7,0,4.3,1.8,4.3,4.9c0,0.1-0.1,0.2-0.2,0.2H44c0.1,2.2,1,3.4,2.8,3.4c1.4,0,2.2-0.7,2.5-2.1c0-0.1,0.1-0.2,0.2-0.2H50.7z
			 M46.7,354.7c-1.5,0-2.4,1-2.6,2.7h5.2C49.2,356,48.3,354.7,46.7,354.7z"/>
		<path class="st16" d="M56.9,363.2c-1.3,0-2.3-0.5-2.9-1.5l0,4.2c0,0.1-0.1,0.2-0.2,0.2h-1.3c-0.1,0-0.2-0.1-0.2-0.2l0.1-6.9
			l-0.1-5.1c0-0.1,0.1-0.2,0.2-0.2h1.3c0.1,0,0.2,0.1,0.2,0.2l0,1.3c0.6-1,1.6-1.7,3-1.7c2.5,0,3.8,2.1,3.8,4.8
			C60.8,361.1,59.3,363.2,56.9,363.2z M56.5,362c1.8,0,2.6-1.4,2.6-3.5c0-2.2-0.8-3.7-2.6-3.7c-1.6,0-2.6,1.2-2.6,3.5
			C53.9,360.7,54.8,362,56.5,362z"/>
		<path class="st16" d="M66.5,362.7c0,0.1-0.1,0.2-0.2,0.2c-0.4,0.1-0.8,0.2-1.2,0.2c-1.4,0-2.5-0.7-2.5-2.7V355h-1
			c-0.1,0-0.2-0.1-0.2-0.2v-0.9c0-0.1,0.1-0.2,0.2-0.2h1l0-2.1c0-0.1,0.1-0.2,0.2-0.2h1.3c0.1,0,0.2,0.1,0.2,0.2l0,2.1h2.1
			c0.1,0,0.2,0.1,0.2,0.2v0.9c0,0.1-0.1,0.2-0.2,0.2h-2.1v5.4c0,1.1,0.4,1.5,1.2,1.5c0.3,0,0.7-0.1,0.9-0.1c0.1,0,0.2,0,0.2,0.1
			V362.7z"/>
		<path class="st16" d="M68,363c-0.1,0-0.2-0.1-0.2-0.2l0.1-4.6l-0.1-4.3c0-0.1,0.1-0.2,0.2-0.2h1.3c0.1,0,0.2,0.1,0.2,0.2l-0.1,4.3
			l0.1,4.6c0,0.1-0.1,0.2-0.2,0.2H68z M68,352.7c-0.1,0-0.2-0.1-0.2-0.2V351c0-0.1,0.1-0.2,0.2-0.2h1.3c0.1,0,0.2,0.1,0.2,0.2v1.4
			c0,0.1-0.1,0.2-0.2,0.2H68z"/>
		<path class="st16" d="M76,361.5l-2-3.2l-1.2,1.3l0,3.2c0,0.1-0.1,0.2-0.2,0.2h-1.3c-0.1,0-0.2-0.1-0.2-0.2l0.1-6.1l-0.1-6.2
			c0-0.1,0.1-0.2,0.2-0.2h1.3c0.1,0,0.2,0.1,0.2,0.2l-0.1,6.1v1l3.5-3.9c0.1-0.1,0.2-0.1,0.3-0.1h1.5c0.1,0,0.1,0.1,0.1,0.1l-3,3.3
			l3.4,5.7c0,0.1,0,0.2-0.1,0.2H77c-0.1,0-0.2-0.1-0.3-0.2L76,361.5z"/>
		<path class="st16" d="M90,362.9c0,0.1-0.1,0.2-0.2,0.2h-6.9c-0.1,0-0.2-0.1-0.2-0.2v-0.9c0-0.1,0-0.2,0.1-0.3l5-6.6h-4.5
			c-0.1,0-0.2-0.1-0.2-0.2v-0.9c0-0.1,0.1-0.2,0.2-0.2h6.3c0.1,0,0.2,0.1,0.2,0.2v0.9c0,0.1,0,0.2-0.1,0.3l-5,6.6h5.2
			c0.1,0,0.2,0.1,0.2,0.2V362.9z"/>
		<path class="st16" d="M97.5,363c-0.1,0-0.2-0.1-0.2-0.2l0-1.3c-0.6,1-1.6,1.7-3,1.7c-2.5,0-3.8-2.1-3.8-4.8s1.4-4.8,3.9-4.8
			c1.3,0,2.3,0.6,2.9,1.6l0-1.2c0-0.1,0.1-0.2,0.2-0.2h1.3c0.1,0,0.2,0.1,0.2,0.2l-0.1,4.4l0.1,4.5c0,0.1-0.1,0.2-0.2,0.2H97.5z
			 M94.8,362c1.6,0,2.6-1.2,2.6-3.5c0-2.2-0.8-3.5-2.3-3.7c-0.1,0-0.3,0-0.4,0c-1.7,0.1-2.4,1.5-2.4,3.5
			C92.3,360.5,93.1,362,94.8,362z"/>
		<path class="st16" d="M5.4,384.8c-1.3,0-2.3-0.5-2.9-1.5l0,4.2c0,0.1-0.1,0.2-0.2,0.2H1c-0.1,0-0.2-0.1-0.2-0.2l0.1-6.9l-0.1-5.1
			c0-0.1,0.1-0.2,0.2-0.2h1.3c0.1,0,0.2,0.1,0.2,0.2l0,1.3c0.6-1,1.6-1.7,3-1.7c2.5,0,3.8,2.1,3.8,4.8
			C9.3,382.7,7.9,384.8,5.4,384.8z M5,383.6c1.8,0,2.6-1.4,2.6-3.5c0-2.2-0.8-3.7-2.6-3.7c-1.6,0-2.6,1.2-2.6,3.5
			C2.4,382.3,3.3,383.6,5,383.6z"/>
		<path class="st16" d="M14.7,384.8c-2.8,0-4.4-1.9-4.4-4.8c0-2.9,1.6-4.9,4.4-4.9c2.8,0,4.4,1.9,4.4,4.8S17.6,384.8,14.7,384.8z
			 M14.7,383.6c1.8,0,2.7-1.3,2.7-3.6s-0.9-3.7-2.7-3.7c-1.8,0-2.7,1.4-2.7,3.7S12.9,383.6,14.7,383.6z"/>
		<path class="st16" d="M24.2,384.8c-2.4,0-4.1-1.1-4.2-3.2c0-0.1,0.1-0.2,0.2-0.2h1.2c0.1,0,0.2,0.1,0.2,0.2c0.1,1.5,1,2.1,2.6,2.1
			c1.4,0,2.3-0.6,2.3-1.6c0-2.4-6.3-0.5-6.3-4.2c0-1.8,1.5-2.7,3.7-2.7c2.1,0,3.7,0.9,3.9,2.8c0,0.1-0.1,0.2-0.2,0.2h-1.2
			c-0.1,0-0.2-0.1-0.2-0.2c-0.1-1.2-1-1.7-2.3-1.7c-1.3,0-2.1,0.5-2.1,1.5c0,2.3,6.3,0.3,6.3,4.2C28.1,383.8,26.4,384.8,24.2,384.8z
			"/>
		<path class="st16" d="M29.7,387.7c-0.1,0-0.2-0.1-0.2-0.2l0.1-5.9l-0.1-6.1c0-0.1,0.1-0.2,0.2-0.2H31c0.1,0,0.2,0.1,0.2,0.2
			l-0.1,6.1l0.1,5.9c0,0.1-0.1,0.2-0.2,0.2H29.7z M29.7,374.3c-0.1,0-0.2-0.1-0.2-0.2v-1.4c0-0.1,0.1-0.2,0.2-0.2H31
			c0.1,0,0.2,0.1,0.2,0.2v1.4c0,0.1-0.1,0.2-0.2,0.2H29.7z"/>
		<path class="st16" d="M41,381.4c0.1,0,0.2,0.1,0.2,0.2c-0.3,1.9-1.7,3.3-4.1,3.3c-2.9,0-4.4-2-4.4-4.8c0-2.9,1.7-4.9,4.3-4.9
			c2.7,0,4.3,1.8,4.3,4.9c0,0.1-0.1,0.2-0.2,0.2h-6.8c0.1,2.2,1,3.4,2.8,3.4c1.4,0,2.2-0.7,2.5-2.1c0-0.1,0.1-0.2,0.2-0.2H41z
			 M37,376.3c-1.5,0-2.4,1-2.6,2.7h5.2C39.5,377.6,38.6,376.3,37,376.3z"/>
		<path class="st16" d="M47.4,383.1l-2-3.2l-1.2,1.3l0,3.2c0,0.1-0.1,0.2-0.2,0.2h-1.3c-0.1,0-0.2-0.1-0.2-0.2l0.1-6.1l-0.1-6.2
			c0-0.1,0.1-0.2,0.2-0.2h1.3c0.1,0,0.2,0.1,0.2,0.2l-0.1,6.1v1l3.5-3.9c0.1-0.1,0.2-0.1,0.3-0.1h1.5c0.1,0,0.1,0.1,0.1,0.1l-3,3.3
			l3.4,5.7c0,0.1,0,0.2-0.1,0.2h-1.5c-0.1,0-0.2-0.1-0.3-0.2L47.4,383.1z"/>
		<path class="st16" d="M54.5,384.8c-2.8,0-4.4-1.9-4.4-4.8c0-2.9,1.6-4.9,4.4-4.9c2.8,0,4.4,1.9,4.4,4.8S57.3,384.8,54.5,384.8z
			 M54.5,383.6c1.8,0,2.7-1.3,2.7-3.6s-0.9-3.7-2.7-3.7c-1.8,0-2.7,1.4-2.7,3.7S52.7,383.6,54.5,383.6z"/>
		<path class="st16" d="M64.6,384.3c0,0.1-0.1,0.2-0.2,0.2c-0.4,0.1-0.8,0.2-1.2,0.2c-1.4,0-2.5-0.7-2.5-2.7v-5.4h-1
			c-0.1,0-0.2-0.1-0.2-0.2v-0.9c0-0.1,0.1-0.2,0.2-0.2h1l0-2.1c0-0.1,0.1-0.2,0.2-0.2h1.3c0.1,0,0.2,0.1,0.2,0.2l0,2.1h2.1
			c0.1,0,0.2,0.1,0.2,0.2v0.9c0,0.1-0.1,0.2-0.2,0.2h-2.1v5.4c0,1.1,0.4,1.5,1.2,1.5c0.3,0,0.7-0.1,0.9-0.1c0.1,0,0.2,0,0.2,0.1
			V384.3z"/>
		<path class="st16" d="M66.1,384.6c-0.1,0-0.2-0.1-0.2-0.2l0.1-4.6l-0.1-4.3c0-0.1,0.1-0.2,0.2-0.2h1.3c0.1,0,0.2,0.1,0.2,0.2
			l-0.1,4.3l0.1,4.6c0,0.1-0.1,0.2-0.2,0.2H66.1z M66.1,374.3c-0.1,0-0.2-0.1-0.2-0.2v-1.4c0-0.1,0.1-0.2,0.2-0.2h1.3
			c0.1,0,0.2,0.1,0.2,0.2v1.4c0,0.1-0.1,0.2-0.2,0.2H66.1z"/>
		<path class="st16" d="M69.6,384.6c-0.1,0-0.2-0.1-0.2-0.2l0.1-4.1l-0.1-4.9c0-0.1,0.1-0.2,0.2-0.2h1.2c0.1,0,0.2,0.1,0.2,0.2
			l0,1.4c0.6-0.9,1.6-1.8,3.1-1.8c1.9,0,3.1,1.3,3.1,3.7v1.9l0.1,3.8c0,0.1-0.1,0.2-0.2,0.2h-1.3c-0.1,0-0.2-0.1-0.2-0.2l0-3.8v-1.8
			c0-1.7-0.8-2.4-2-2.4c-1.2,0-2.2,1-2.6,2.8v1.4l0,3.8c0,0.1-0.1,0.2-0.2,0.2H69.6z"/>
		<path class="st16" d="M86.8,381.4c0.1,0,0.2,0.1,0.2,0.2c-0.3,1.9-1.7,3.3-4.1,3.3c-2.9,0-4.4-2-4.4-4.8c0-2.9,1.7-4.9,4.3-4.9
			c2.7,0,4.3,1.8,4.3,4.9c0,0.1-0.1,0.2-0.2,0.2h-6.8c0.1,2.2,1,3.4,2.8,3.4c1.4,0,2.2-0.7,2.5-2.1c0-0.1,0.1-0.2,0.2-0.2H86.8z
			 M82.9,376.3c-1.5,0-2.4,1-2.6,2.7h5.2C85.3,377.6,84.5,376.3,82.9,376.3z"/>
		<path class="st16" d="M92,384.6c-0.1,0-0.2-0.1-0.2-0.2l0.1-4.6l-0.1-4.3c0-0.1,0.1-0.2,0.2-0.2h1.3c0.1,0,0.2,0.1,0.2,0.2
			l-0.1,4.3l0.1,4.6c0,0.1-0.1,0.2-0.2,0.2H92z M92,374.3c-0.1,0-0.2-0.1-0.2-0.2v-1.4c0-0.1,0.1-0.2,0.2-0.2h1.3
			c0.1,0,0.2,0.1,0.2,0.2v1.4c0,0.1-0.1,0.2-0.2,0.2H92z"/>
		<path class="st16" d="M102.6,384.8c-2.8,0-4.4-1.9-4.4-4.8c0-2.9,1.6-4.9,4.4-4.9c2.8,0,4.4,1.9,4.4,4.8S105.4,384.8,102.6,384.8z
			 M102.6,383.6c1.8,0,2.7-1.3,2.7-3.6s-0.9-3.7-2.7-3.7c-1.8,0-2.7,1.4-2.7,3.7S100.7,383.6,102.6,383.6z"/>
		<path class="st16" d="M112.3,388.2c-2.1,0-3.8-0.9-4-2.8c0-0.1,0.1-0.2,0.2-0.2h1.3c0.1,0,0.2,0.1,0.2,0.2
			c0.2,1.1,1.1,1.7,2.4,1.7c1.6,0,2.6-0.9,2.6-3v-1c-0.6,1-1.6,1.6-2.9,1.6c-2.6,0-4-2-4-4.6c0-2.6,1.4-4.8,3.9-4.8
			c1.3,0,2.3,0.6,2.9,1.6l-0.1-1.3c0-0.1,0.1-0.2,0.2-0.2h1.3c0.1,0,0.2,0.1,0.2,0.2l0,3.5l0,4.9
			C116.4,386.7,114.9,388.2,112.3,388.2z M112.3,383.4c1.5,0,2.5-1.1,2.5-3.4c0-2.2-0.8-3.5-2.3-3.6c-0.1,0-0.3,0-0.4,0
			c-1.6,0.1-2.4,1.4-2.4,3.5C109.7,382.1,110.6,383.4,112.3,383.4z"/>
		<path class="st16" d="M118.3,384.6c-0.1,0-0.2-0.1-0.2-0.2l0.1-4.6l-0.1-4.4c0-0.1,0.1-0.2,0.2-0.2h1.3c0.1,0,0.2,0.1,0.2,0.2
			l-0.1,1.6c0.6-1.2,1.9-1.8,3.2-1.8c0.2,0,0.4,0,0.5,0.1c0.1,0,0.2,0.1,0.2,0.2v1c0,0.1-0.1,0.2-0.2,0.2c-0.1,0-0.3,0-0.5,0
			c-1.5,0-2.9,0.9-3.1,3l0,4.9c0,0.1-0.1,0.2-0.2,0.2H118.3z"/>
		<path class="st16" d="M131.9,381.4c0.1,0,0.2,0.1,0.2,0.2c-0.3,1.9-1.7,3.3-4.1,3.3c-2.9,0-4.4-2-4.4-4.8c0-2.9,1.7-4.9,4.3-4.9
			c2.7,0,4.3,1.8,4.3,4.9c0,0.1-0.1,0.2-0.2,0.2h-6.8c0.1,2.2,1,3.4,2.8,3.4c1.4,0,2.2-0.7,2.5-2.1c0-0.1,0.1-0.2,0.2-0.2H131.9z
			 M127.9,376.3c-1.5,0-2.4,1-2.6,2.7h5.2C130.4,377.6,129.5,376.3,127.9,376.3z"/>
		<path class="st16" d="M138.1,384.8c-1.3,0-2.3-0.6-2.9-1.6l0,1.2c0,0.1-0.1,0.2-0.2,0.2h-1.3c-0.1,0-0.2-0.1-0.2-0.2l0.1-6.7
			l-0.1-5.5c0-0.1,0.1-0.2,0.2-0.2h1.3c0.1,0,0.2,0.1,0.2,0.2l0,4.6c0.6-1,1.6-1.6,3-1.6c2.5,0,3.8,2.1,3.8,4.8
			C142,382.7,140.5,384.8,138.1,384.8z M137.7,383.6c1.8,0,2.6-1.4,2.6-3.5c0-2.2-0.8-3.7-2.6-3.7c-1.6,0-2.6,1.2-2.6,3.5
			C135.1,382.2,136,383.6,137.7,383.6z"/>
		<path class="st16" d="M147.4,384.8c-2.8,0-4.4-1.9-4.4-4.8c0-2.9,1.6-4.9,4.4-4.9c2.8,0,4.4,1.9,4.4,4.8S150.2,384.8,147.4,384.8z
			 M147.4,383.6c1.8,0,2.7-1.3,2.7-3.6s-0.9-3.7-2.7-3.7c-1.8,0-2.7,1.4-2.7,3.7S145.6,383.6,147.4,383.6z"/>
		<path class="st16" d="M157.6,384.3c0,0.1-0.1,0.2-0.2,0.2c-0.4,0.1-0.8,0.2-1.2,0.2c-1.4,0-2.5-0.7-2.5-2.7v-5.4h-1
			c-0.1,0-0.2-0.1-0.2-0.2v-0.9c0-0.1,0.1-0.2,0.2-0.2h1l0-2.1c0-0.1,0.1-0.2,0.2-0.2h1.3c0.1,0,0.2,0.1,0.2,0.2l0,2.1h2.1
			c0.1,0,0.2,0.1,0.2,0.2v0.9c0,0.1-0.1,0.2-0.2,0.2h-2.1v5.4c0,1.1,0.4,1.5,1.2,1.5c0.3,0,0.7-0.1,0.9-0.1c0.1,0,0.2,0,0.2,0.1
			V384.3z"/>
		<path class="st16" d="M159,384.6c-0.1,0-0.2-0.1-0.2-0.2l0.1-4.6l-0.1-4.3c0-0.1,0.1-0.2,0.2-0.2h1.3c0.1,0,0.2,0.1,0.2,0.2
			l-0.1,4.3l0.1,4.6c0,0.1-0.1,0.2-0.2,0.2H159z M159,374.3c-0.1,0-0.2-0.1-0.2-0.2v-1.4c0-0.1,0.1-0.2,0.2-0.2h1.3
			c0.1,0,0.2,0.1,0.2,0.2v1.4c0,0.1-0.1,0.2-0.2,0.2H159z"/>
		<path class="st16" d="M162.5,384.6c-0.1,0-0.2-0.1-0.2-0.2l0.1-4.1l-0.1-4.9c0-0.1,0.1-0.2,0.2-0.2h1.2c0.1,0,0.2,0.1,0.2,0.2
			l0,1.4c0.6-0.9,1.6-1.8,3.1-1.8c1.9,0,3.1,1.3,3.1,3.7v1.9l0.1,3.8c0,0.1-0.1,0.2-0.2,0.2h-1.3c-0.1,0-0.2-0.1-0.2-0.2l0-3.8v-1.8
			c0-1.7-0.8-2.4-2-2.4c-1.2,0-2.2,1-2.6,2.8v1.4l0,3.8c0,0.1-0.1,0.2-0.2,0.2H162.5z"/>
		<path class="st16" d="M179.8,381.4c0.1,0,0.2,0.1,0.2,0.2c-0.3,1.9-1.7,3.3-4.1,3.3c-2.9,0-4.4-2-4.4-4.8c0-2.9,1.7-4.9,4.3-4.9
			c2.7,0,4.3,1.8,4.3,4.9c0,0.1-0.1,0.2-0.2,0.2h-6.8c0.1,2.2,1,3.4,2.8,3.4c1.4,0,2.2-0.7,2.5-2.1c0-0.1,0.1-0.2,0.2-0.2H179.8z
			 M175.8,376.3c-1.5,0-2.4,1-2.6,2.7h5.2C178.3,377.6,177.4,376.3,175.8,376.3z"/>
		<path class="st16" d="M181.3,387.2c-0.1,0-0.1-0.1-0.1-0.2c1.1-2.4,1.7-5,1.7-7.8c0-2.8-0.6-5.3-1.7-7.6c0-0.1,0-0.2,0.1-0.2h1
			c0.1,0,0.2,0.1,0.3,0.2c1.1,2.1,1.8,4.6,1.8,7.6s-0.7,5.4-1.9,7.8c0,0.1-0.1,0.2-0.3,0.2H181.3z"/>
	</g>
</g>
<g>
	<g>
		<path class="st1" d="M273.3,0.3c0-0.2,0.1-0.3,0.3-0.3l12.3,0.2L298.2,0c0.2,0,0.3,0.1,0.3,0.3v8.9c0,7.2-3.9,13.4-12.8,13.4
			c-8.9,0-12.4-6.2-12.4-13.3V0.3z M277.4,5.6v4c0,4.1,2.4,7.3,8.4,7.3c6,0,8.7-3.2,8.7-7.5V5.6c0,0-4.2-0.1-8.4-0.1
			C281.8,5.4,277.4,5.6,277.4,5.6z"/>
		<path class="st1" d="M279.6,41.6c0,0.2-0.1,0.3-0.3,0.3c-3.4-0.5-6.4-3.7-6.4-8.9c0-6.2,4.1-9.5,9.7-9.5c5.9,0,9.8,3.5,9.8,9.4
			c0,6.1-4,9.5-10.5,9.6c-0.2,0-0.3-0.1-0.3-0.3V28.9c-3.5,0.2-5,1.6-5,4.2c0,1.8,0.8,3.1,2.8,3.6c0.2,0,0.3,0.2,0.3,0.4V41.6z
			 M288.8,32.9c0-2.2-1.3-3.5-3.9-3.9v7.6C286.9,36.4,288.8,35.3,288.8,32.9z"/>
		<path class="st1" d="M273.7,58.4c-0.2,0-0.3-0.1-0.3-0.3v-15c0-0.2,0.1-0.3,0.3-0.3h3.2c0.2,0,0.4,0.1,0.6,0.2l10.7,8.3v-7.5
			c0-0.2,0.1-0.3,0.3-0.3h3.2c0.2,0,0.3,0.1,0.3,0.3v13.7c0,0.2-0.1,0.3-0.3,0.3h-3.2c-0.2,0-0.4-0.1-0.6-0.2l-10.6-8.4v8.9
			c0,0.2-0.1,0.3-0.3,0.3H273.7z"/>
		<path class="st1" d="M293.7,60.3c0-0.2,0.1-0.3,0.3-0.3h4.2c0.2,0,0.3,0.1,0.3,0.3v4.8c0,0.2-0.1,0.3-0.3,0.3H294
			c-0.2,0-0.3-0.1-0.3-0.3V60.3z M273.3,60.3c0-0.2,0.1-0.3,0.3-0.3l8.9,0.1l9-0.1c0.2,0,0.3,0.1,0.3,0.3v4.9c0,0.2-0.1,0.3-0.3,0.3
			l-9-0.1l-8.9,0.1c-0.2,0-0.3-0.1-0.3-0.3V60.3z"/>
		<path class="st1" d="M273.3,67.6c0-0.2,0.1-0.3,0.3-0.3l8.6,0.1l9.3,0c0.2,0,0.3,0.1,0.3,0.3v4.6c0,0.2-0.1,0.3-0.3,0.3l-2-0.1
			c1.6,1.3,2.8,3.4,2.8,6c0,3.9-2.7,6.4-7.2,6.4h-3.9l-7.6,0.1c-0.2,0-0.3-0.1-0.3-0.3v-4.8c0-0.2,0.1-0.3,0.3-0.3l7.6,0.1h3.8
			c2,0,3.3-1.2,3.3-2.8c0-1.9-1.8-4-5.8-4h-1.4l-7.6,0.1c-0.2,0-0.3-0.1-0.3-0.3V67.6z"/>
		<path class="st1" d="M281.5,94.1l-7.8,0.2c-0.2,0-0.3-0.1-0.3-0.3v-5c0-0.2,0.1-0.3,0.3-0.3l7.8,0.1h6.6v-2.5
			c0-0.2,0.1-0.3,0.3-0.3h3.2c0.2,0,0.3,0.1,0.3,0.3v2.5h1.2c4.2,0,5.8,3,5.8,6c0,1.1-0.2,2.4-0.3,3.3c0,0.2-0.2,0.3-0.4,0.3h-3.1
			c-0.1,0-0.3-0.1-0.3-0.3c0.1-0.5,0.2-1.2,0.2-2.1c0-1.2-0.6-2-2.4-2h-0.7v4.1c0,0.2-0.1,0.3-0.3,0.3h-3.2c-0.2,0-0.3-0.1-0.3-0.3
			v-4.1H281.5z"/>
		<path class="st1" d="M279.6,116.6c0,0.2-0.1,0.3-0.3,0.3c-3.4-0.5-6.4-3.7-6.4-8.9c0-6.2,4.1-9.5,9.7-9.5c5.9,0,9.8,3.5,9.8,9.4
			c0,6.1-4,9.5-10.5,9.6c-0.2,0-0.3-0.1-0.3-0.3v-13.2c-3.5,0.2-5,1.6-5,4.2c0,1.8,0.8,3.1,2.8,3.6c0.2,0,0.3,0.2,0.3,0.4V116.6z
			 M288.8,107.9c0-2.2-1.3-3.5-3.9-3.9v7.6C286.9,111.4,288.8,110.3,288.8,107.9z"/>
		<path class="st1" d="M273.3,119c0-0.2,0.1-0.3,0.3-0.3l8.6,0.1l9.3,0c0.2,0,0.3,0.1,0.3,0.3v4.6c0,0.2-0.1,0.3-0.3,0.3l-2-0.1
			c1.6,1.3,2.8,3.4,2.8,6c0,3.9-2.7,6.4-7.2,6.4h-3.9l-7.6,0.1c-0.2,0-0.3-0.1-0.3-0.3v-4.8c0-0.2,0.1-0.3,0.3-0.3l7.6,0.1h3.8
			c2,0,3.3-1.2,3.3-2.8c0-1.9-1.8-4-5.8-4h-1.4l-7.6,0.1c-0.2,0-0.3-0.1-0.3-0.3V119z"/>
		<path class="st1" d="M272.9,147c0-5.9,3.8-9.5,9.7-9.5s9.8,3.5,9.8,9.6c0,4.8-2.7,7.8-6.7,8.3c-0.2,0-0.3-0.1-0.3-0.3v-4.4
			c0-0.2,0.1-0.3,0.3-0.4c2.1-0.4,3.1-1.7,3.1-3.3c0-2.7-2-4-6.1-4c-4.2,0-6.1,1.3-6.1,4c0,1.8,1.3,3.2,3.7,3.4
			c0.2,0,0.3,0.2,0.3,0.4v4.5c0,0.2-0.1,0.3-0.3,0.3C275.9,155.2,272.9,151.8,272.9,147z"/>
		<path class="st1" d="M293.7,157.2c0-0.2,0.1-0.3,0.3-0.3h4.2c0.2,0,0.3,0.1,0.3,0.3v4.8c0,0.2-0.1,0.3-0.3,0.3H294
			c-0.2,0-0.3-0.1-0.3-0.3V157.2z M273.3,157.2c0-0.2,0.1-0.3,0.3-0.3l8.9,0.1l9-0.1c0.2,0,0.3,0.1,0.3,0.3v4.9
			c0,0.2-0.1,0.3-0.3,0.3l-9-0.1l-8.9,0.1c-0.2,0-0.3-0.1-0.3-0.3V157.2z"/>
		<path class="st1" d="M293.7,164.6c0-0.2,0.1-0.3,0.3-0.3h4.2c0.2,0,0.3,0.1,0.3,0.3v4.8c0,0.2-0.1,0.3-0.3,0.3H294
			c-0.2,0-0.3-0.1-0.3-0.3V164.6z M267.2,164.6c0-0.2,0.1-0.3,0.3-0.3l12.2,0.1l11.8-0.1c0.2,0,0.3,0.1,0.3,0.3v4.9
			c0,0.2-0.1,0.3-0.3,0.3l-11.8-0.1l-12.2,0.1c-0.2,0-0.3-0.1-0.3-0.3V164.6z"/>
		<path class="st1" d="M272.9,180.2c0-5.4,2.2-8.9,6.3-9c0.2,0,0.3,0.1,0.3,0.3v4.6c0,0.2-0.1,0.3-0.3,0.3c-2.1,0.1-3,1.5-3,4
			c0,2.1,0.8,3.3,2.3,3.3c3.5,0,0.1-12.1,7.9-12.1c3.9,0,5.9,3.1,5.9,8.1c0,4.9-1.9,8.1-5.8,8.5c-0.2,0-0.3-0.1-0.3-0.3v-4.4
			c0-0.2,0.1-0.3,0.3-0.4c1.6-0.3,2.6-1.3,2.6-3.5c0-1.8-0.6-2.9-2.2-2.9c-3.5,0,0.1,12.1-7.8,12.1
			C275.1,188.9,272.9,185.2,272.9,180.2z"/>
		<path class="st1" d="M277.2,199.5l4.1-2.3l-2.2-1.8l-5.4,0c-0.2,0-0.3-0.1-0.3-0.3v-4.7c0-0.2,0.1-0.3,0.3-0.3l12.3,0.1l12.3-0.1
			c0.2,0,0.3,0.1,0.3,0.3v4.7c0,0.2-0.1,0.3-0.3,0.3l-12.2-0.1h-1.1l6.7,5.4c0.1,0.1,0.3,0.4,0.3,0.5v5.3c0,0.1-0.1,0.2-0.3,0.1
			l-6.4-5.7l-11.6,6.7c-0.1,0.1-0.3,0-0.3-0.2v-5.6c0-0.2,0.1-0.4,0.3-0.5L277.2,199.5z"/>
		<path class="st1" d="M273.3,219.8c0-0.2,0.1-0.3,0.3-0.3l1.8,0.1c-1.6-1.3-2.5-3.1-2.5-5.5c0-5.3,4.2-8,9.6-8
			c5.4,0,9.7,3.1,9.7,8.1c0,2.3-0.8,4.1-2.3,5.4l1.7-0.1c0.2,0,0.3,0.1,0.3,0.3v4.8c0,0.2-0.1,0.3-0.3,0.3l-9-0.1l-8.9,0.1
			c-0.2,0-0.3-0.1-0.3-0.3V219.8z M276.6,215.6c0,2.6,2,4,5.9,4.1c4,0,6.1-1.4,6.2-4c0.1-2.7-2-4.1-5.8-4.1
			C278.7,211.6,276.5,213,276.6,215.6z"/>
		<path class="st1" d="M272.9,242.2c0-5.4,2.2-8.9,6.3-9c0.2,0,0.3,0.1,0.3,0.3v4.6c0,0.2-0.1,0.3-0.3,0.3c-2.1,0.1-3,1.5-3,4
			c0,2.1,0.8,3.3,2.3,3.3c3.5,0,0.1-12.1,7.9-12.1c3.9,0,5.9,3.1,5.9,8.1c0,4.9-1.9,8.1-5.8,8.5c-0.2,0-0.3-0.1-0.3-0.3v-4.4
			c0-0.2,0.1-0.3,0.3-0.4c1.6-0.3,2.6-1.3,2.6-3.5c0-1.8-0.6-2.9-2.2-2.9c-3.5,0,0.1,12.1-7.8,12.1
			C275.1,250.9,272.9,247.2,272.9,242.2z"/>
		<path class="st1" d="M273.3,252.5c0-0.2,0.1-0.3,0.3-0.3l9,0.1l8.9-0.1c0.2,0,0.3,0.1,0.3,0.3v4.8c0,0.2-0.1,0.3-0.3,0.3l-2.8-0.1
			c2.2,1.4,3.3,3.9,3.3,6.6c0,0.3,0,0.6-0.1,0.8c0,0.2-0.2,0.3-0.4,0.3h-3.3c-0.2,0-0.3-0.1-0.3-0.3c0-0.2,0-0.5,0-0.7
			c0-3.8-2.1-6.7-6.4-6.6h-7.9c-0.2,0-0.3-0.1-0.3-0.3V252.5z"/>
		<path class="st1" d="M279.6,283c0,0.2-0.1,0.3-0.3,0.3c-3.4-0.5-6.4-3.7-6.4-8.9c0-6.2,4.1-9.5,9.7-9.5c5.9,0,9.8,3.5,9.8,9.4
			c0,6.1-4,9.5-10.5,9.6c-0.2,0-0.3-0.1-0.3-0.3v-13.2c-3.5,0.2-5,1.6-5,4.2c0,1.8,0.8,3.1,2.8,3.6c0.2,0,0.3,0.2,0.3,0.4V283z
			 M288.8,274.3c0-2.2-1.3-3.5-3.9-3.9v7.6C286.9,277.8,288.8,276.7,288.8,274.3z"/>
		<path class="st1" d="M273.3,298.4c0-0.2,0.1-0.3,0.3-0.3l1.8,0.1c-1.6-1.3-2.5-3.1-2.5-5.5c0-5.3,4.2-8,9.6-8
			c5.4,0,9.7,3.1,9.7,8.1c0,2.3-0.8,4.1-2.3,5.3l8.3,0c0.2,0,0.3,0.1,0.3,0.3v4.8c0,0.2-0.1,0.3-0.3,0.3l-12.3-0.1l-12.3,0.1
			c-0.2,0-0.3-0.1-0.3-0.3V298.4z M276.5,294.2c0,2.6,2,4,5.9,4.1c4,0,6.2-1.4,6.2-4c0.1-2.7-2-4.1-5.9-4.1
			C278.6,290.2,276.5,291.6,276.5,294.2z"/>
		<path class="st1" d="M272.9,313.8c0-5.4,2.2-8.9,6.3-9c0.2,0,0.3,0.1,0.3,0.3v4.6c0,0.2-0.1,0.3-0.3,0.3c-2.1,0.1-3,1.5-3,4
			c0,2.1,0.8,3.3,2.3,3.3c3.5,0,0.1-12.1,7.9-12.1c3.9,0,5.9,3.1,5.9,8.1c0,4.9-1.9,8.1-5.8,8.5c-0.2,0-0.3-0.1-0.3-0.3V317
			c0-0.2,0.1-0.3,0.3-0.4c1.6-0.3,2.6-1.3,2.6-3.5c0-1.8-0.6-2.9-2.2-2.9c-3.5,0,0.1,12.1-7.8,12.1
			C275.1,322.4,272.9,318.8,272.9,313.8z"/>
		<path class="st1" d="M274,334.6c-0.2,0-0.4-0.1-0.4-0.3c-0.4-1-0.6-2.2-0.6-3.4c0-3.1,1.6-6.1,5.8-6.1l9.3,0v-2.1
			c0-0.2,0.1-0.3,0.3-0.3h3.2c0.2,0,0.3,0.1,0.3,0.3v2.1l4.3,0c0.2,0,0.3,0.1,0.3,0.3v4.8c0,0.2-0.1,0.3-0.3,0.3l-4.3,0v4.1
			c0,0.2-0.1,0.3-0.3,0.3h-3.2c-0.2,0-0.3-0.1-0.3-0.3v-4.1l-9.1,0c-1.6,0-2.1,0.8-2.1,2c0,0.9,0.1,1.5,0.3,2.1
			c0,0.2-0.1,0.3-0.3,0.3H274z"/>
		<path class="st1" d="M273.6,347.9c-0.1-0.1-0.3-0.3-0.3-0.4v-5.7c0-0.2,0.1-0.4,0.3-0.4l18-6.3c0.1-0.1,0.3,0,0.3,0.2v5.2
			c0,0.2-0.1,0.4-0.3,0.4l-13.7,4l13.7,4.4c0.2,0.1,0.3,0.3,0.3,0.4v4.4c0,0.2-0.1,0.3-0.3,0.2L273.6,347.9z"/>
		<path class="st1" d="M273.3,367.1c0-0.2,0.1-0.3,0.3-0.3l1.8,0.1c-1.6-1.3-2.5-3.1-2.5-5.5c0-5.3,4.2-8,9.6-8
			c5.4,0,9.7,3.1,9.7,8.1c0,2.3-0.8,4.1-2.3,5.4l1.7-0.1c0.2,0,0.3,0.1,0.3,0.3v4.8c0,0.2-0.1,0.3-0.3,0.3l-9-0.1l-8.9,0.1
			c-0.2,0-0.3-0.1-0.3-0.3V367.1z M276.6,362.8c0,2.6,2,4,5.9,4.1c4,0,6.1-1.4,6.2-4c0.1-2.7-2-4.1-5.8-4.1
			C278.7,358.8,276.5,360.2,276.6,362.8z"/>
	</g>
</g>
<g>
	<g>
		<g>
			<polygon class="st17" points="60.6,438.7 57.3,438.7 57.3,435.4 53.4,435.4 53.4,438.7 50.1,438.7 50.1,442.7 53.4,442.7 
				53.4,445.9 57.3,445.9 57.3,442.7 60.6,442.7 			"/>
		</g>
		<g>
			<path class="st18" d="M109.7,491.4H43.4c-0.8,0-1.9-1.2-1.9-2.6v-66.2c0-1.4,1.1-2.3,1.9-2.3h59.9l1.7,4.8l1.6-4.8h3.2
				c0.8,0,2.3,0.9,2.3,2.3v66.2C112,490.2,110.4,491.4,109.7,491.4z"/>
		</g>
		<g>
			<path class="st19" d="M47.4,491.4h-3.5c-1.3,0-2.4-1.1-2.4-2.4v-67.1c0-0.9,0.7-1.6,1.6-1.6h4.3V491.4z"/>
		</g>
		<g>
			<path class="st6" d="M104.8,484.1H48c-0.3,0-0.6-0.3-0.6-0.6v-56.2c0-0.3,0.3-0.6,0.6-0.6h56.8c0.3,0,0.6,0.3,0.6,0.6v56.2
				C105.4,483.9,105.1,484.1,104.8,484.1z"/>
		</g>
		<g>
			<path class="st0" d="M63.2,484.1H47.8c-0.2,0-0.3-0.2-0.3-0.7v-55.6c0-0.4,0.1-1,0.3-1h15.5V484.1z"/>
		</g>
		<g>
			<path class="st20" d="M103.4,422.9h-56c-0.2,0-0.3-0.1-0.3-0.3c0-0.2,0.1-0.3,0.3-0.3h56c0.2,0,0.3,0.1,0.3,0.3
				C103.8,422.7,103.6,422.9,103.4,422.9z"/>
		</g>
		<g>
			<path class="st20" d="M104.7,425.5H47.4c-0.2,0-0.3-0.1-0.3-0.3c0-0.2,0.1-0.3,0.3-0.3h57.3c0.2,0,0.3,0.1,0.3,0.3
				C105.1,425.4,104.9,425.5,104.7,425.5z"/>
		</g>
		<g>
			<g>
				<path class="st20" d="M104.7,486.1H47.4c-0.2,0-0.3-0.1-0.3-0.3c0-0.2,0.1-0.3,0.3-0.3h57.3c0.2,0,0.3,0.1,0.3,0.3
					C105.1,486,104.9,486.1,104.7,486.1z"/>
			</g>
			<g>
				<path class="st20" d="M104.7,489.4H47.4c-0.2,0-0.3-0.1-0.3-0.3c0-0.2,0.1-0.3,0.3-0.3h57.3c0.2,0,0.3,0.1,0.3,0.3
					C105.1,489.3,104.9,489.4,104.7,489.4z"/>
			</g>
		</g>
		<g>
			<rect x="63.2" y="455.8" class="st21" width="41.5" height="28.3"/>
		</g>
		<g>
			<path class="st22" d="M105.1,490.4c-0.2,0-0.3-0.1-0.3-0.3v-4c0-0.2,0.1-0.3,0.3-0.3c0.2,0,0.3,0.1,0.3,0.3v4
				C105.4,490.3,105.3,490.4,105.1,490.4z M105.1,483.2c-0.2,0-0.3-0.1-0.3-0.3v-5.3c0-0.2,0.1-0.3,0.3-0.3c0.2,0,0.3,0.1,0.3,0.3
				v5.3C105.4,483,105.3,483.2,105.1,483.2z M105.1,474.6c-0.2,0-0.3-0.1-0.3-0.3V469c0-0.2,0.1-0.3,0.3-0.3c0.2,0,0.3,0.1,0.3,0.3
				v5.3C105.4,474.4,105.3,474.6,105.1,474.6z M105.1,466c-0.2,0-0.3-0.1-0.3-0.3v-5.3c0-0.2,0.1-0.3,0.3-0.3c0.2,0,0.3,0.1,0.3,0.3
				v5.3C105.4,465.9,105.3,466,105.1,466z M105.1,457.5c-0.2,0-0.3-0.1-0.3-0.3v-5.3c0-0.2,0.1-0.3,0.3-0.3c0.2,0,0.3,0.1,0.3,0.3
				v5.3C105.4,457.3,105.3,457.5,105.1,457.5z M105.1,448.9c-0.2,0-0.3-0.1-0.3-0.3v-5.3c0-0.2,0.1-0.3,0.3-0.3
				c0.2,0,0.3,0.1,0.3,0.3v5.3C105.4,448.8,105.3,448.9,105.1,448.9z M105.1,440.3c-0.2,0-0.3-0.1-0.3-0.3v-5.3
				c0-0.2,0.1-0.3,0.3-0.3c0.2,0,0.3,0.1,0.3,0.3v5.3C105.4,440.2,105.3,440.3,105.1,440.3z M105.1,431.8c-0.2,0-0.3-0.1-0.3-0.3
				v-5.3c0-0.2,0.1-0.3,0.3-0.3c0.2,0,0.3,0.1,0.3,0.3v5.3C105.4,431.6,105.3,431.8,105.1,431.8z"/>
		</g>
		<g>
			<rect x="65.9" y="461.1" class="st6" width="35.6" height="2"/>
		</g>
		<g>
			<rect x="65.9" y="464.4" class="st6" width="35.6" height="2"/>
		</g>
	</g>
	<g>
		<rect x="66.8" y="431.3" class="st23" width="35.1" height="32.9"/>
		<path class="st24" d="M67.1,435.7C67,435.7,67,435.6,67.1,435.7l0-2.2l0-2.1c0,0,0-0.1,0.1-0.1h1.5c1.2,0,2.3,0.7,2.3,2.2
			c0,1.5-1.1,2.1-2.3,2.1H67.1z M68,435h0.7c0.7,0,1.3-0.4,1.3-1.4c0-1-0.6-1.5-1.3-1.5H68c0,0,0,0.7,0,1.5
			C67.9,434.2,68,435,68,435z"/>
		<path class="st24" d="M74.2,434.6C74.2,434.6,74.2,434.6,74.2,434.6c0,0.6-0.6,1.2-1.5,1.2c-1.1,0-1.6-0.7-1.6-1.7
			c0-1,0.6-1.7,1.6-1.7c1,0,1.6,0.7,1.7,1.8c0,0,0,0.1-0.1,0.1H72c0,0.6,0.3,0.9,0.7,0.9c0.3,0,0.5-0.1,0.6-0.5c0,0,0-0.1,0.1-0.1
			H74.2z M72.7,433c-0.4,0-0.6,0.2-0.7,0.7h1.3C73.3,433.3,73.1,433,72.7,433z"/>
		<path class="st24" d="M77.1,435.6C77.1,435.6,77.1,435.7,77.1,435.6l-2.6,0.1c0,0-0.1,0-0.1-0.1v-0.5c0,0,0-0.1,0-0.1l1.4-1.8
			h-1.3c0,0-0.1,0-0.1-0.1v-0.5c0,0,0-0.1,0.1-0.1h2.4c0,0,0.1,0,0.1,0.1v0.6c0,0,0,0.1,0,0.1l-1.5,1.8H77c0,0,0.1,0,0.1,0.1V435.6z
			"/>
		<path class="st24" d="M77.4,432.2C77.4,432.2,77.4,432.1,77.4,432.2l-0.1-0.8c0,0,0-0.1,0.1-0.1h0.8c0,0,0.1,0,0.1,0.1v0.7
			c0,0,0,0.1-0.1,0.1H77.4z M77.4,435.7C77.4,435.7,77.4,435.6,77.4,435.7l0-1.6l0-1.5c0,0,0-0.1,0.1-0.1h0.8c0,0,0.1,0,0.1,0.1
			l0,1.5l0,1.5c0,0,0,0.1-0.1,0.1H77.4z"/>
		<path class="st24" d="M78.7,435.7C78.6,435.7,78.6,435.6,78.7,435.7l0-1.5l0-1.6c0,0,0-0.1,0.1-0.1h0.8c0,0,0.1,0,0.1,0.1l0,0.3
			c0.2-0.3,0.6-0.5,1-0.5c0.7,0,1.1,0.5,1.1,1.2v0.7l0,1.3c0,0,0,0.1-0.1,0.1h-0.8c0,0-0.1,0-0.1-0.1l0-1.3v-0.7
			c0-0.3-0.2-0.6-0.5-0.6c-0.3,0-0.7,0.3-0.7,1v0.2l0,1.3c0,0,0,0.1-0.1,0.1H78.7z"/>
		<path class="st24" d="M83.2,434.3l0,1.4c0,0,0,0.1-0.1,0.1h-0.9c0,0-0.1,0-0.1-0.1l0-1.4v-1.1h-0.4c0,0-0.1,0-0.1-0.1v-0.5
			c0,0,0-0.1,0.1-0.1h0.4v-0.2c0-0.7,0.5-1,1-1c0.2,0,0.4,0,0.6,0.1c0,0,0.1,0,0.1,0.1v0.5c0,0,0,0-0.1,0c-0.1,0-0.2,0-0.4,0
			c-0.2,0-0.3,0.1-0.3,0.4v0.1h0.7c0,0,0.1,0,0.1,0.1v0.5c0,0,0,0.1-0.1,0.1h-0.7V434.3z"/>
		<path class="st24" d="M84.3,432.2C84.3,432.2,84.2,432.1,84.3,432.2l-0.1-0.8c0,0,0-0.1,0.1-0.1h0.8c0,0,0.1,0,0.1,0.1v0.7
			c0,0,0,0.1-0.1,0.1H84.3z M84.3,435.7C84.3,435.7,84.2,435.6,84.3,435.7l0-1.6l0-1.5c0,0,0-0.1,0.1-0.1h0.8c0,0,0.1,0,0.1,0.1
			l0,1.5l0,1.5c0,0,0,0.1-0.1,0.1H84.3z"/>
		<path class="st24" d="M87.1,435.7c-1,0-1.6-0.7-1.6-1.7s0.6-1.7,1.7-1.7c0.8,0,1.4,0.5,1.4,1.2c0,0,0,0.1,0,0.1h-0.8
			c0,0-0.1,0-0.1-0.1c-0.1-0.4-0.3-0.5-0.6-0.5c-0.5,0-0.7,0.3-0.7,1.1c0,0.7,0.2,1,0.7,1.1c0.3,0,0.6-0.2,0.6-0.6
			c0,0,0-0.1,0.1-0.1h0.8c0,0,0.1,0,0,0.1C88.5,435.2,87.9,435.7,87.1,435.7z"/>
		<path class="st24" d="M88.8,432.2C88.8,432.2,88.8,432.1,88.8,432.2l-0.1-0.8c0,0,0-0.1,0.1-0.1h0.8c0,0,0.1,0,0.1,0.1v0.7
			c0,0,0,0.1-0.1,0.1H88.8z M88.8,435.7C88.8,435.7,88.8,435.6,88.8,435.7l0-1.6l0-1.5c0,0,0-0.1,0.1-0.1h0.8c0,0,0.1,0,0.1,0.1
			l0,1.5l0,1.5c0,0,0,0.1-0.1,0.1H88.8z"/>
		<path class="st24" d="M90.1,432.2C90.1,432.2,90,432.1,90.1,432.2l-0.1-0.8c0,0,0-0.1,0.1-0.1h0.8c0,0,0.1,0,0.1,0.1v0.7
			c0,0,0,0.1-0.1,0.1H90.1z M90.1,436.7C90.1,436.7,90,436.7,90.1,436.7l0-2.2l0-2c0,0,0-0.1,0.1-0.1h0.8c0,0,0.1,0,0.1,0.1l0,2
			l0,2.1c0,0,0,0.1-0.1,0.1H90.1z"/>
		<path class="st24" d="M94.4,434.6C94.4,434.6,94.4,434.6,94.4,434.6c0,0.6-0.6,1.2-1.5,1.2c-1.1,0-1.6-0.7-1.6-1.7
			c0-1,0.6-1.7,1.6-1.7c1,0,1.6,0.7,1.7,1.8c0,0,0,0.1-0.1,0.1h-2.3c0,0.6,0.3,0.9,0.7,0.9c0.3,0,0.5-0.1,0.6-0.5c0,0,0-0.1,0.1-0.1
			H94.4z M92.9,433c-0.4,0-0.6,0.2-0.7,0.7h1.3C93.5,433.3,93.3,433,92.9,433z"/>
		<path class="st24" d="M94.8,435.7C94.8,435.7,94.7,435.6,94.8,435.7l0-1.5l0-1.6c0,0,0-0.1,0.1-0.1h0.8c0,0,0.1,0,0.1,0.1l0,0.3
			c0.2-0.3,0.6-0.5,1-0.5c0.7,0,1.1,0.5,1.1,1.2v0.7l0,1.3c0,0,0,0.1-0.1,0.1h-0.8c0,0-0.1,0-0.1-0.1l0-1.3v-0.7
			c0-0.3-0.2-0.6-0.5-0.6c-0.3,0-0.7,0.3-0.7,1v0.2l0,1.3c0,0,0,0.1-0.1,0.1H94.8z"/>
		<path class="st24" d="M99.5,435.7c-0.9,0-1.5-0.4-1.6-1.1c0,0,0-0.1,0.1-0.1h0.8c0,0,0.1,0,0.1,0.1c0,0.4,0.3,0.5,0.7,0.5
			c0.4,0,0.6-0.1,0.6-0.4c0-0.6-2.1,0-2.1-1.4c0-0.7,0.5-1,1.4-1c0.8,0,1.4,0.3,1.5,1c0,0,0,0.1,0,0.1h-0.8c0,0-0.1,0-0.1-0.1
			c0-0.3-0.2-0.4-0.6-0.4c-0.3,0-0.5,0.1-0.5,0.4c0,0.6,2.1,0,2.1,1.3C101,435.4,100.4,435.7,99.5,435.7z"/>
		<path class="st24" d="M69.6,441.8C69.6,441.9,69.6,441.9,69.6,441.8l-2.6,0.1c0,0-0.1,0-0.1-0.1v-0.5c0,0,0-0.1,0-0.1l1.4-1.8
			h-1.3c0,0-0.1,0-0.1-0.1v-0.5c0,0,0-0.1,0.1-0.1h2.4c0,0,0.1,0,0.1,0.1v0.6c0,0,0,0.1,0,0.1l-1.5,1.8h1.5c0,0,0.1,0,0.1,0.1V441.8
			z"/>
		<path class="st24" d="M72.1,441.9C72,441.9,72,441.9,72.1,441.9l0-0.4c-0.2,0.3-0.5,0.4-0.9,0.4c-0.9,0-1.4-0.7-1.4-1.7
			c0-0.9,0.5-1.7,1.4-1.7c0.4,0,0.7,0.1,0.9,0.4l0-0.3c0,0,0-0.1,0.1-0.1h0.8c0,0,0.1,0,0.1,0.1l0,1.5l0,1.5c0,0,0,0.1-0.1,0.1H72.1
			z M71.3,441.3c0.5,0,0.7-0.3,0.7-1c0-0.7-0.2-1.1-0.7-1.1c-0.5,0-0.7,0.3-0.7,1C70.6,441,70.9,441.3,71.3,441.3z"/>
		<path class="st24" d="M76.3,441.9c-0.4,0-0.7-0.1-0.9-0.4l0,1.3c0,0,0,0.1-0.1,0.1h-0.8c0,0-0.1,0-0.1-0.1l0-2.3l0-1.8
			c0,0,0-0.1,0.1-0.1h0.8c0,0,0.1,0,0.1,0.1l0,0.3c0.2-0.3,0.5-0.4,0.9-0.4c0.9,0,1.4,0.7,1.4,1.7C77.7,441.2,77.2,441.9,76.3,441.9
			z M76,441.3c0.5,0,0.7-0.3,0.7-1c0-0.7-0.2-1.1-0.7-1.1c-0.5,0-0.7,0.3-0.7,1C75.3,440.9,75.6,441.3,76,441.3z"/>
		<path class="st24" d="M78,441.9C77.9,441.9,77.9,441.9,78,441.9l0-1.6l0-1.5c0,0,0-0.1,0.1-0.1h0.8c0,0,0.1,0,0.1,0.1l0,0.5
			c0.2-0.4,0.7-0.6,1.1-0.6c0,0,0.1,0,0.1,0c0,0,0.1,0,0.1,0.1v0.6c0,0,0,0-0.1,0c0,0-0.1,0-0.1,0c-0.7,0-1.1,0.4-1.1,1.1v1.4
			c0,0,0,0.1-0.1,0.1H78z"/>
		<path class="st24" d="M80.4,438.4C80.4,438.4,80.3,438.3,80.4,438.4l-0.1-0.8c0,0,0-0.1,0.1-0.1h0.8c0,0,0.1,0,0.1,0.1v0.7
			c0,0,0,0.1-0.1,0.1H80.4z M80.4,441.9C80.4,441.9,80.3,441.9,80.4,441.9l0-1.6l0-1.5c0,0,0-0.1,0.1-0.1h0.8c0,0,0.1,0,0.1,0.1
			l0,1.5l0,1.5c0,0,0,0.1-0.1,0.1H80.4z"/>
		<path class="st24" d="M83.4,441.9c-0.4,0-0.7-0.1-0.9-0.4l0,0.3c0,0,0,0.1-0.1,0.1h-0.8c0,0-0.1,0-0.1-0.1l0-2.1l0-2.1
			c0,0,0-0.1,0.1-0.1h0.8c0,0,0.1,0,0.1,0.1l0,1.5c0.2-0.3,0.5-0.4,0.9-0.4c0.9,0,1.4,0.7,1.4,1.7C84.9,441.2,84.3,441.9,83.4,441.9
			z M83.2,441.3c0.5,0,0.7-0.4,0.7-1c0-0.7-0.2-1.1-0.7-1.1c-0.5,0-0.7,0.3-0.7,1C82.5,440.9,82.7,441.3,83.2,441.3z"/>
		<path class="st24" d="M86.6,442c-1,0-1.6-0.7-1.6-1.7s0.6-1.7,1.6-1.7c1,0,1.6,0.7,1.6,1.7S87.7,442,86.6,442z M86.6,441.3
			c0.5,0,0.7-0.3,0.7-1c0-0.7-0.2-1.1-0.7-1.1c-0.5,0-0.7,0.4-0.7,1.1C85.9,441,86.2,441.3,86.6,441.3z"/>
		<path class="st24" d="M88.6,441.9C88.5,441.9,88.5,441.9,88.6,441.9l0-1.6l0-1.5c0,0,0-0.1,0.1-0.1h0.8c0,0,0.1,0,0.1,0.1l0,0.5
			c0.2-0.4,0.7-0.6,1.1-0.6c0,0,0.1,0,0.1,0c0,0,0.1,0,0.1,0.1v0.6c0,0,0,0-0.1,0c0,0-0.1,0-0.1,0c-0.7,0-1.1,0.4-1.1,1.1v1.4
			c0,0,0,0.1-0.1,0.1H88.6z"/>
	</g>
	<g>
		<g class="st25">
			<path d="M122.9,501.1L80,500c-0.9,0-1.5-0.7-1.5-1.5l0.5-41.3c0-0.9,0.7-1.5,1.5-1.5h42.4c0.9,0,1.5,0.7,1.5,1.5v42.4
				C124.5,500.4,123.8,501.1,122.9,501.1z"/>
		</g>
		<g>
			<path class="st26" d="M121.3,499.5H79c-0.9,0-1.5-0.7-1.5-1.5v-42.4c0-0.9,0.7-1.5,1.5-1.5h42.4c0.9,0,1.5,0.7,1.5,1.5v42.4
				C122.9,498.8,122.2,499.5,121.3,499.5z"/>
		</g>
		<g class="st25">
			<path d="M117.7,504.7l-40.5-14.4c-0.8-0.3-1.2-1.1-1-2l13.9-38.9c0.3-0.8,1.1-1.2,2-1l38.9,12.8c0.8,0.3,1.2,1.1,1,2l-12.3,40.5
				C119.4,504.6,118.5,505,117.7,504.7z"/>
		</g>
		<g>
			<path class="st27" d="M116.6,502.6l-40-13.3c-0.8-0.3-1.2-1.1-1-2l13.3-40c0.3-0.8,1.1-1.2,2-1l40,13.3c0.8,0.3,1.2,1.1,1,2
				l-13.3,40C118.3,502.4,117.4,502.9,116.6,502.6z"/>
		</g>
		<g>
			<path class="st28" d="M115.1,499.5l-38.2-11.3c-0.8-0.3-1.2-1.1-0.9-1.9l13.1-39.1c0.3-0.8,1.1-1.2,1.9-0.9l38.7,12.6
				c0.8,0.3,1.2,1.1,0.9,1.9L117,498.6C116.7,499.4,115.9,499.8,115.1,499.5z"/>
		</g>
		<g>
			<path class="st6" d="M76.9,488.2c-0.8-0.3-1.2-1.1-0.9-1.9l13.1-39.1c0.3-0.8,1.1-1.2,1.9-0.9l38.7,12.6c0.8,0.3,1.2,1.1,0.9,1.9
				c0,0-12.6,15.1-27.6,22.5C96.4,486.6,76.9,488.2,76.9,488.2z"/>
		</g>
	</g>
</g>
<g>
</g>
<g>
</g>
<g>
</g>
<g>
</g>
<g>
</g>
<g>
</g>
</svg>
