<?xml version="1.0" encoding="utf-8"?>
<!-- Generator: Adobe Illustrator 25.2.0, SVG Export Plug-In . SVG Version: 6.00 Build 0)  -->
<svg version="1.1" id="Layer_1" xmlns="http://www.w3.org/2000/svg" xmlns:xlink="http://www.w3.org/1999/xlink" x="0px" y="0px"
	 viewBox="0 0 237.9 109.2" style="enable-background:new 0 0 237.9 109.2;" xml:space="preserve">
<style type="text/css">
	.st0{fill:none;}
	.st1{fill:#00A88F;}
</style>
<g>
	<rect x="7" y="10" class="st0" width="237.9" height="109.2"/>
	<path class="st1" d="M28.2,30.2c0,0.2-0.2,0.3-0.3,0.3h-2.6v5.8c0,0.2-0.2,0.3-0.3,0.3h-5.1c-0.2,0-0.3-0.2-0.3-0.3v-5.7H7.9
		c-0.2,0-0.3-0.2-0.3-0.3v-4.2c0-0.2,0.1-0.5,0.2-0.6l9.7-15c0.1-0.2,0.3-0.3,0.5-0.3h7c0.2,0,0.3,0.2,0.3,0.3v15.8h2.6
		c0.2,0,0.3,0.2,0.3,0.3C28.2,26.6,28.2,30.2,28.2,30.2z M19.5,19.6l0.2-5.4l-7.6,12.1h7.3v-6.7H19.5z"/>
	<path class="st1" d="M29.5,36.6c-0.2,0-0.3-0.2-0.3-0.3v-4.7c0-0.2,0.2-0.3,0.3-0.3h5.2c0.2,0,0.3,0.2,0.3,0.3v4.7
		c0,0.2-0.2,0.3-0.3,0.3C34.7,36.6,29.5,36.6,29.5,36.6z"/>
	<path class="st1" d="M43.7,36.6c-0.2,0-0.3-0.2-0.3-0.3l0.2-13l-0.2-13c0-0.2,0.2-0.3,0.3-0.3h5.2c0.2,0,0.3,0.2,0.3,0.3L49,22.9
		l0.2,9.3H60c0.2,0,0.3,0.2,0.3,0.3v3.8c0,0.2-0.2,0.3-0.3,0.3C60,36.6,43.7,36.6,43.7,36.6z"/>
	<path class="st1" d="M61.8,15.1c-0.2,0-0.3-0.2-0.3-0.3v-4.5c0-0.2,0.2-0.3,0.3-0.3h5.1c0.2,0,0.3,0.2,0.3,0.3v4.4
		c0,0.2-0.2,0.3-0.3,0.3L61.8,15.1C61.8,15,61.8,15.1,61.8,15.1z M61.8,36.6c-0.2,0-0.3-0.2-0.3-0.3l0.1-9.4l-0.1-9.5
		c0-0.2,0.2-0.3,0.3-0.3h5.1c0.2,0,0.3,0.2,0.3,0.3l-0.1,9.5l0.1,9.4c0,0.2-0.2,0.3-0.3,0.3H61.8z"/>
	<path class="st1" d="M69.6,15.1c-0.2,0-0.3-0.2-0.3-0.3v-4.5c0-0.2,0.2-0.3,0.3-0.3h5.1c0.2,0,0.3,0.2,0.3,0.3v4.4
		c0,0.2-0.2,0.3-0.3,0.3L69.6,15.1L69.6,15.1z M69.6,43.1c-0.2,0-0.3-0.2-0.3-0.3L69.4,30l-0.1-12.5c0-0.2,0.2-0.3,0.3-0.3h5.1
		c0.2,0,0.3,0.2,0.3,0.3v12.4l0.1,12.8c0,0.2-0.2,0.3-0.3,0.3L69.6,43.1L69.6,43.1z"/>
	<path class="st1" d="M95.7,30c0.2,0,0.3,0.2,0.3,0.3c-0.5,3.6-3.9,6.8-9.4,6.8c-6.5,0-10.1-4.3-10.1-10.2c0-6.2,3.7-10.3,10-10.3
		c6.4,0,10,4.3,10.1,11.1c0,0.2-0.2,0.3-0.3,0.3h-14c0.2,3.7,1.7,5.3,4.4,5.3c1.9,0,3.3-0.9,3.8-3c0-0.2,0.2-0.3,0.4-0.3
		C90.9,30,95.7,30,95.7,30z M86.5,20.3c-2.3,0-3.6,1.4-4.1,4.1h8C90.2,22.3,89,20.3,86.5,20.3z"/>
	<path class="st1" d="M107.8,32.5l-2.4-4.3l-1.9,2.4v5.7c0,0.2-0.2,0.3-0.3,0.3h-5c-0.2,0-0.3-0.2-0.3-0.3l0.1-13l-0.1-13
		c0-0.2,0.2-0.3,0.3-0.3h5c0.2,0,0.3,0.2,0.3,0.3l-0.1,12.8v1.2l5.7-7.1c0.2-0.2,0.4-0.3,0.6-0.3h5.6c0.2,0,0.2,0.2,0.1,0.3l-6,6.8
		l7.1,12.2c0.1,0.2,0,0.3-0.2,0.3h-5.9c-0.2,0-0.4-0.1-0.5-0.3L107.8,32.5z"/>
	<path class="st1" d="M124.8,37.1c-6.4,0-10.1-4-10.1-10.2s3.7-10.3,10.1-10.3c6.4,0,10,4,10,10.2S131.2,37.1,124.8,37.1z
		 M124.8,33.3c2.8,0,4.1-1.9,4.1-6.4c0-4.4-1.4-6.5-4.2-6.5c-2.9,0-4.2,2.2-4.2,6.6S122,33.3,124.8,33.3z"/>
	<path class="st1" d="M147.4,36.3c-0.1,0.2-0.3,0.3-0.5,0.3h-6c-0.2,0-0.4-0.2-0.5-0.3l-6.6-19c-0.1-0.2,0-0.3,0.2-0.3h5.5
		c0.2,0,0.4,0.2,0.5,0.3l4.2,14.4l4.6-14.4c0.1-0.2,0.3-0.3,0.5-0.3h4.7c0.2,0,0.3,0.2,0.2,0.3L147.4,36.3z"/>
	<path class="st1" d="M155.1,15.1c-0.2,0-0.3-0.2-0.3-0.3v-4.5c0-0.2,0.2-0.3,0.3-0.3h5.1c0.2,0,0.3,0.2,0.3,0.3v4.4
		c0,0.2-0.2,0.3-0.3,0.3L155.1,15.1L155.1,15.1z M155.1,36.6c-0.2,0-0.3-0.2-0.3-0.3l0.1-9.4l-0.1-9.5c0-0.2,0.2-0.3,0.3-0.3h5.1
		c0.2,0,0.3,0.2,0.3,0.3l-0.1,9.5l0.1,9.4c0,0.2-0.2,0.3-0.3,0.3H155.1z"/>
	<path class="st1" d="M44.3,71.6c-0.2,0-0.3-0.2-0.3-0.3l0.1-9v-9.8c0-0.2,0.2-0.3,0.3-0.3h4.8c0.2,0,0.3,0.2,0.3,0.3l-0.1,2.1
		c1.3-1.7,3.6-2.9,6.3-2.9c4.1,0,6.8,2.8,6.8,7.6v4l0.1,8c0,0.2-0.2,0.3-0.3,0.3h-5.1c-0.2,0-0.3-0.2-0.3-0.3l0.1-8v-4
		c0-2.1-1.3-3.5-3-3.5c-2.1,0-4.3,1.9-4.3,6.1v1.4l0.1,8c0,0.2-0.2,0.3-0.3,0.3C49.5,71.6,44.3,71.6,44.3,71.6z"/>
	<path class="st1" d="M78.3,71.6c-0.2,0-0.3-0.2-0.3-0.3v-2C76.6,71,74.7,72,72.2,72c-5.5,0-8.5-4.4-8.5-10.1s3.3-10.2,8.6-10.2
		c2.4,0,4.3,0.9,5.7,2.5l-0.1-1.7c0-0.2,0.2-0.3,0.3-0.3h5.1c0.2,0,0.3,0.2,0.3,0.3L83.5,62l0.1,9.4c0,0.2-0.2,0.3-0.3,0.3
		L78.3,71.6L78.3,71.6z M73.8,68.2c2.8,0,4.3-2.1,4.3-6.2c0-4.2-1.4-6.5-4.2-6.5c-2.9-0.1-4.4,2.1-4.4,6.1
		C69.6,66,71.1,68.2,73.8,68.2z"/>
	<path class="st1" d="M93.1,71.6c-0.2,0-0.3-0.2-0.3-0.3l0.2-9.5l-0.2-9.4c0-0.2,0.2-0.3,0.3-0.3h5c0.2,0,0.3,0.2,0.3,0.3l-0.2,3
		c1.5-2.3,4.1-3.5,7-3.5c0.3,0,0.6,0,0.9,0.1c0.2,0,0.3,0.2,0.3,0.4v3.5c0,0.2-0.2,0.3-0.3,0.3c-0.2,0-0.5,0-0.7,0c-4,0-7,2.2-7,6.7
		v8.4c0,0.2-0.2,0.3-0.3,0.3C98.1,71.6,93.1,71.6,93.1,71.6z"/>
	<path class="st1" d="M125.3,65c0.2,0,0.3,0.2,0.3,0.3c-0.5,3.6-3.9,6.8-9.4,6.8c-6.5,0-10.1-4.3-10.1-10.2c0-6.2,3.7-10.3,10-10.3
		c6.4,0,10,4.3,10.1,11.1c0,0.2-0.2,0.3-0.3,0.3h-14c0.2,3.7,1.7,5.3,4.4,5.3c1.9,0,3.3-0.9,3.8-3c0-0.2,0.2-0.3,0.4-0.3
		C120.5,65,125.3,65,125.3,65z M116.1,55.3c-2.3,0-3.6,1.4-4.1,4.1h8C119.8,57.3,118.7,55.3,116.1,55.3z"/>
	<path class="st1" d="M137.1,72.1c-6.3,0-10-4-10-10.2s3.7-10.3,10.1-10.3c5,0,8.3,2.8,8.7,7.1c0,0.2-0.1,0.3-0.3,0.3H141
		c-0.2,0-0.3-0.2-0.4-0.3c-0.5-2.2-1.8-3.3-3.5-3.3c-2.9,0-4.3,2.1-4.3,6.5c0,4.5,1.4,6.4,4.3,6.5c1.9,0,3.4-1.3,3.6-3.9
		c0-0.2,0.2-0.3,0.4-0.3h4.7c0.2,0,0.3,0.2,0.3,0.3C145.8,68.9,142.2,72.1,137.1,72.1z"/>
	<path class="st1" d="M166.2,65c0.2,0,0.3,0.2,0.3,0.3c-0.5,3.6-3.9,6.8-9.4,6.8c-6.5,0-10.1-4.3-10.1-10.2c0-6.2,3.7-10.3,10-10.3
		c6.4,0,10,4.3,10.1,11.1c0,0.2-0.2,0.3-0.3,0.3h-14c0.2,3.7,1.7,5.3,4.4,5.3c1.9,0,3.3-0.9,3.8-3c0-0.2,0.2-0.3,0.4-0.3
		C161.4,65,166.2,65,166.2,65z M157,55.3c-2.3,0-3.6,1.4-4.1,4.1h8C160.7,57.3,159.5,55.3,157,55.3z"/>
	<path class="st1" d="M179.7,72c-2.4,0-4.3-0.8-5.6-2.4l0.1,8.1c0,0.2-0.2,0.3-0.3,0.3h-5.1c-0.2,0-0.3-0.2-0.3-0.3l0.1-14.1
		l-0.1-11.3c0-0.2,0.2-0.3,0.3-0.3h5.1c0.2,0,0.3,0.2,0.3,0.3l-0.2,2c1.4-1.7,3.3-2.7,5.8-2.7c5.5,0,8.5,4.4,8.5,10.1
		S185,72,179.7,72z M178.1,68.1c2.9,0,4.4-2.1,4.4-6.1c0-4.3-1.5-6.5-4.3-6.5s-4.3,2.1-4.3,6.2S175.4,68.1,178.1,68.1z"/>
	<path class="st1" d="M201.1,70.9c0,0.2-0.2,0.4-0.3,0.5c-1.1,0.4-2.4,0.6-3.6,0.6c-3.3,0-6.5-1.7-6.5-6.1v-9.8h-2.2
		c-0.2,0-0.3-0.2-0.3-0.3v-3.3c0-0.2,0.2-0.3,0.3-0.3h2.2v-4.6c0-0.2,0.2-0.3,0.3-0.3h5.1c0.2,0,0.3,0.2,0.3,0.3v4.6h4.3
		c0.2,0,0.3,0.2,0.3,0.3v3.3c0,0.2-0.2,0.3-0.3,0.3h-4.4v9.7c0,1.7,0.8,2.2,2.1,2.2c0.9,0,1.6-0.2,2.2-0.3c0.2,0,0.3,0.1,0.3,0.3
		v2.9C200.9,70.9,201.1,70.9,201.1,70.9z"/>
</g>
</svg>
