<?xml version="1.0" encoding="utf-8"?>
<!-- Generator: Adobe Illustrator 25.2.0, SVG Export Plug-In . SVG Version: 6.00 Build 0)  -->
<svg version="1.1" id="Layer_1" xmlns="http://www.w3.org/2000/svg" xmlns:xlink="http://www.w3.org/1999/xlink" x="0px" y="0px"
	 viewBox="0 0 715.6 426.9" style="enable-background:new 0 0 715.6 426.9;" xml:space="preserve">
<style type="text/css">
	.st0{fill:#00A88F;}
	.st1{fill:#1B5E53;}
	.st2{fill:none;}
	.st3{fill:#5DAFA1;}
	.st4{fill:#9FD3CA;}
	.st5{fill:#B3B3B3;}
	.st6{fill:#FFFFFF;}
</style>
<g>
	<path class="st0" d="M84.5,40.8c-0.2,0-0.4-0.2-0.4-0.4l0.1-13.4l0-11.7c-1.8,1.7-4.1,2.9-6.7,3.7c-0.2,0.1-0.4,0-0.4-0.3V14
		c0-0.2,0.1-0.5,0.4-0.6c3.2-1.2,5.6-3.1,7-5.8c0.1-0.2,0.4-0.4,0.6-0.4h6c0.2,0,0.4,0.2,0.4,0.4l-0.1,16.8l0.1,15.9
		c0,0.2-0.2,0.4-0.4,0.4H84.5z"/>
	<path class="st0" d="M101.1,40.8c-0.2,0-0.4-0.2-0.4-0.4l0.1-13.4l0-11.7c-1.8,1.7-4.1,2.9-6.7,3.7c-0.2,0.1-0.4,0-0.4-0.3V14
		c0-0.2,0.1-0.5,0.4-0.6c3.2-1.2,5.6-3.1,7-5.8c0.1-0.2,0.4-0.4,0.6-0.4h6c0.2,0,0.4,0.2,0.4,0.4l-0.1,16.8l0.1,15.9
		c0,0.2-0.2,0.4-0.4,0.4H101.1z"/>
	<path class="st0" d="M111.4,40.8c-0.2,0-0.4-0.2-0.4-0.4v-4.3c0-13.4,16.6-12.1,16.6-19.2c0.1-3.2-1.6-5.1-4.7-5.1
		c-3,0-4.9,2.3-5,6.3c0,0.2-0.2,0.4-0.4,0.4h-5.8c-0.2,0-0.4-0.2-0.4-0.4c0-7.3,3.9-11.5,11.7-11.6c7.5,0,11.3,3.8,11.5,10.1
		c0,12.4-16.6,11.7-16.6,18.1v0.6h16.1c0.2,0,0.4,0.2,0.4,0.4v4.6c0,0.2-0.2,0.4-0.4,0.4H111.4z"/>
	<path class="st1" d="M2.6,76.3c-0.1,0-0.2-0.1-0.3-0.2c-1.2-2.3-1.9-4.8-1.9-7.8s0.7-5.5,1.8-7.6c0.1-0.1,0.2-0.2,0.3-0.2h1
		c0.1,0,0.1,0.1,0.1,0.2c-1,2.3-1.7,4.8-1.7,7.6c0,2.8,0.6,5.3,1.7,7.8c0,0.1,0,0.2-0.1,0.2H2.6z"/>
	<path class="st1" d="M12.2,73.6c0,0.1-0.1,0.2-0.2,0.2H5.1c-0.1,0-0.2-0.1-0.2-0.2v-0.9c0-0.1,0-0.2,0.1-0.3l5-6.6H5.5
		c-0.1,0-0.2-0.1-0.2-0.2v-0.9c0-0.1,0.1-0.2,0.2-0.2h6.3c0.1,0,0.2,0.1,0.2,0.2v0.9c0,0.1,0,0.2-0.1,0.3l-5,6.6H12
		c0.1,0,0.2,0.1,0.2,0.2V73.6z M9.1,63.4c-0.1,0.1-0.2,0.1-0.3,0.1H8.4c-0.1,0-0.2,0-0.3-0.1L5.8,62c-0.1-0.1-0.1-0.2-0.1-0.3
		l0.2-0.5c0-0.1,0.1-0.1,0.2-0.1l2.5,1.1l2.4-1.1c0.1,0,0.2,0,0.2,0.1l0.2,0.5c0,0.1,0,0.2-0.1,0.3L9.1,63.4z"/>
	<path class="st1" d="M16.7,74c-1.9,0-3.1-1.3-3.1-3.7v-1.8l0-3.8c0-0.1,0.1-0.2,0.2-0.2H15c0.1,0,0.2,0.1,0.2,0.2l0,3.8v1.8
		c0,1.7,0.8,2.4,2,2.4c1.2,0,2.2-1,2.6-2.8v-1.4l0-3.8c0-0.1,0.1-0.2,0.2-0.2h1.3c0.1,0,0.2,0.1,0.2,0.2l-0.1,4.1l0,4.9
		c0,0.1-0.1,0.2-0.2,0.2h-1.2c-0.1,0-0.2-0.1-0.2-0.2l0.1-1.4C19.2,73.2,18.1,74,16.7,74z"/>
	<path class="st1" d="M23.2,73.8c-0.1,0-0.2-0.1-0.2-0.2l0.1-4.6L23,64.7c0-0.1,0.1-0.2,0.2-0.2h1.3c0.1,0,0.2,0.1,0.2,0.2l-0.1,1.6
		c0.6-1.2,1.9-1.8,3.2-1.8c0.2,0,0.4,0,0.5,0.1c0.1,0,0.2,0.1,0.2,0.2v1c0,0.1-0.1,0.2-0.2,0.2c-0.1,0-0.3,0-0.5,0
		c-1.5,0-2.9,0.9-3.1,3l0,4.9c0,0.1-0.1,0.2-0.2,0.2H23.2z"/>
	<path class="st1" d="M29.7,73.8c-0.1,0-0.2-0.1-0.2-0.2l0.1-4.1l-0.1-4.9c0-0.1,0.1-0.2,0.2-0.2H31c0.1,0,0.2,0.1,0.2,0.2l0,1.4
		c0.6-0.9,1.6-1.8,3.1-1.8c1.9,0,3.1,1.3,3.1,3.7v1.9l0.1,3.8c0,0.1-0.1,0.2-0.2,0.2h-1.3c-0.1,0-0.2-0.1-0.2-0.2l0-3.8v-1.8
		c0-1.7-0.8-2.4-2-2.4c-1.2,0-2.2,1-2.6,2.8v1.4l0,3.8c0,0.1-0.1,0.2-0.2,0.2H29.7z"/>
	<path class="st1" d="M39.3,73.8c-0.1,0-0.2-0.1-0.2-0.2l0.1-4.6l-0.1-4.3c0-0.1,0.1-0.2,0.2-0.2h1.3c0.1,0,0.2,0.1,0.2,0.2L40.7,69
		l0.1,4.6c0,0.1-0.1,0.2-0.2,0.2H39.3z M39.3,63.4c-0.1,0-0.2-0.1-0.2-0.2v-1.4c0-0.1,0.1-0.2,0.2-0.2h1.3c0.1,0,0.2,0.1,0.2,0.2
		v1.4c0,0.1-0.1,0.2-0.2,0.2H39.3z"/>
	<path class="st1" d="M50.5,74c-1.3,0-2.3-0.6-2.9-1.6l0,1.2c0,0.1-0.1,0.2-0.2,0.2h-1.3c-0.1,0-0.2-0.1-0.2-0.2l0.1-6.7l-0.1-5.5
		c0-0.1,0.1-0.2,0.2-0.2h1.3c0.1,0,0.2,0.1,0.2,0.2l0,4.6c0.6-1,1.6-1.6,3-1.6c2.5,0,3.8,2.1,3.8,4.8C54.3,71.8,52.9,74,50.5,74z
		 M50,72.8c1.8,0,2.6-1.4,2.6-3.5c0-2.2-0.8-3.7-2.6-3.7c-1.6,0-2.6,1.2-2.6,3.5C47.5,71.4,48.4,72.8,50,72.8z"/>
	<path class="st1" d="M55.9,73.8c-0.1,0-0.2-0.1-0.2-0.2l0.1-4.6l-0.1-4.4c0-0.1,0.1-0.2,0.2-0.2h1.3c0.1,0,0.2,0.1,0.2,0.2
		l-0.1,1.6c0.6-1.2,1.9-1.8,3.2-1.8c0.2,0,0.4,0,0.5,0.1c0.1,0,0.2,0.1,0.2,0.2v1c0,0.1-0.1,0.2-0.2,0.2c-0.1,0-0.3,0-0.5,0
		c-1.5,0-2.9,0.9-3.1,3l0,4.9c0,0.1-0.1,0.2-0.2,0.2H55.9z"/>
	<path class="st1" d="M65.6,74c-2.8,0-4.4-1.9-4.4-4.8c0-2.9,1.6-4.9,4.4-4.9c2.8,0,4.4,1.9,4.4,4.8S68.4,74,65.6,74z M65.6,72.8
		c1.8,0,2.7-1.3,2.7-3.6s-0.9-3.7-2.7-3.7c-1.8,0-2.7,1.4-2.7,3.7S63.7,72.8,65.6,72.8z"/>
	<path class="st1" d="M71.6,76.9c-0.1,0-0.2-0.1-0.2-0.2l0.1-5.9l-0.1-6.1c0-0.1,0.1-0.2,0.2-0.2h1.3c0.1,0,0.2,0.1,0.2,0.2L73,70.8
		l0.1,5.9c0,0.1-0.1,0.2-0.2,0.2H71.6z M71.6,63.4c-0.1,0-0.2-0.1-0.2-0.2v-1.4c0-0.1,0.1-0.2,0.2-0.2h1.3c0.1,0,0.2,0.1,0.2,0.2
		v1.4c0,0.1-0.1,0.2-0.2,0.2H71.6z"/>
	<path class="st1" d="M85.2,73.6c0,0.1-0.1,0.2-0.2,0.2h-6.9c-0.1,0-0.2-0.1-0.2-0.2v-0.9c0-0.1,0-0.2,0.1-0.3l5-6.6h-4.5
		c-0.1,0-0.2-0.1-0.2-0.2v-0.9c0-0.1,0.1-0.2,0.2-0.2h6.3c0.1,0,0.2,0.1,0.2,0.2v0.9c0,0.1,0,0.2-0.1,0.3l-5,6.6h5.2
		c0.1,0,0.2,0.1,0.2,0.2V73.6z"/>
	<path class="st1" d="M92.7,73.8c-0.1,0-0.2-0.1-0.2-0.2l0-1.3c-0.6,1-1.6,1.7-3,1.7c-2.5,0-3.8-2.1-3.8-4.8s1.4-4.8,3.9-4.8
		c1.3,0,2.3,0.6,2.9,1.6l0-1.2c0-0.1,0.1-0.2,0.2-0.2H94c0.1,0,0.2,0.1,0.2,0.2l-0.1,4.4l0.1,4.5c0,0.1-0.1,0.2-0.2,0.2H92.7z
		 M90,72.8c1.6,0,2.6-1.2,2.6-3.5c0-2.2-0.8-3.5-2.3-3.7c-0.1,0-0.3,0-0.4,0c-1.7,0.1-2.4,1.5-2.4,3.5C87.5,71.3,88.3,72.8,90,72.8z
		"/>
	<path class="st1" d="M103.1,74c-2.4,0-4.1-1.1-4.2-3.2c0-0.1,0.1-0.2,0.2-0.2h1.2c0.1,0,0.2,0.1,0.2,0.2c0.1,1.5,1,2.1,2.6,2.1
		c1.4,0,2.3-0.6,2.3-1.6c0-2.4-6.3-0.5-6.3-4.2c0-1.8,1.5-2.7,3.7-2.7c2.1,0,3.7,0.9,3.9,2.8c0,0.1-0.1,0.2-0.2,0.2h-1.2
		c-0.1,0-0.2-0.1-0.2-0.2c-0.1-1.2-1-1.7-2.3-1.7c-1.3,0-2.1,0.5-2.1,1.5c0,2.3,6.3,0.3,6.3,4.2C106.9,73,105.2,74,103.1,74z"/>
	<path class="st1" d="M112.5,73.7c0,0.1-0.1,0.2-0.2,0.2h-1.6c-0.1,0-0.2-0.1-0.2-0.2l-3.3-9c0-0.1,0-0.2,0.1-0.2h1.4
		c0.1,0,0.2,0.1,0.2,0.2l2.6,7.8l2.7-7.8c0-0.1,0.1-0.2,0.2-0.2h1.2c0.1,0,0.1,0.1,0.1,0.2L112.5,73.7z"/>
	<path class="st1" d="M122.9,73.8c-0.1,0-0.2-0.1-0.2-0.2l0-1.3c-0.6,1-1.6,1.7-3,1.7c-2.5,0-3.8-2.1-3.8-4.8s1.4-4.8,3.9-4.8
		c1.3,0,2.3,0.6,2.9,1.6l0-1.2c0-0.1,0.1-0.2,0.2-0.2h1.3c0.1,0,0.2,0.1,0.2,0.2l-0.1,4.4l0.1,4.5c0,0.1-0.1,0.2-0.2,0.2H122.9z
		 M120.1,72.8c1.6,0,2.6-1.2,2.6-3.5c0-2.2-0.8-3.5-2.3-3.7c-0.1,0-0.3,0-0.4,0c-1.7,0.1-2.4,1.5-2.4,3.5
		C117.6,71.3,118.4,72.8,120.1,72.8z"/>
	<path class="st1" d="M133.6,65.6c-1.2,0-2.2,1-2.6,2.6l0.1,5.4c0,0.1-0.1,0.2-0.2,0.2h-1.3c-0.1,0-0.2-0.1-0.2-0.2l0.1-6.2l-0.1-6
		c0-0.1,0.1-0.2,0.2-0.2h1.3c0.1,0,0.2,0.1,0.2,0.2L131,66c0.6-1,1.6-1.7,3-1.7c2,0,3.2,1.2,3.2,3.9l0,1.9l0.1,3.6
		c0,0.1-0.1,0.2-0.2,0.2h-1.3c-0.1,0-0.2-0.1-0.2-0.2l0.1-3.5v-2C135.5,66.3,134.7,65.6,133.6,65.6z"/>
	<path class="st1" d="M139.1,73.8c-0.1,0-0.2-0.1-0.2-0.2L139,69l-0.1-4.3c0-0.1,0.1-0.2,0.2-0.2h1.3c0.1,0,0.2,0.1,0.2,0.2
		l-0.1,4.3l0.1,4.6c0,0.1-0.1,0.2-0.2,0.2H139.1z M139.1,63.4c-0.1,0-0.2-0.1-0.2-0.2v-1.4c0-0.1,0.1-0.2,0.2-0.2h1.3
		c0.1,0,0.2,0.1,0.2,0.2v1.4c0,0.1-0.1,0.2-0.2,0.2H139.1z"/>
	<path class="st1" d="M147,73.5c0,0.1-0.1,0.2-0.2,0.2c-0.4,0.1-0.8,0.2-1.2,0.2c-1.4,0-2.5-0.7-2.5-2.7v-5.4h-1
		c-0.1,0-0.2-0.1-0.2-0.2v-0.9c0-0.1,0.1-0.2,0.2-0.2h1l0-2.1c0-0.1,0.1-0.2,0.2-0.2h1.3c0.1,0,0.2,0.1,0.2,0.2l0,2.1h2.1
		c0.1,0,0.2,0.1,0.2,0.2v0.9c0,0.1-0.1,0.2-0.2,0.2h-2.1v5.4c0,1.1,0.4,1.5,1.2,1.5c0.3,0,0.7-0.1,0.9-0.1c0.1,0,0.2,0,0.2,0.1V73.5
		z"/>
	<path class="st1" d="M148.4,73.8c-0.1,0-0.2-0.1-0.2-0.2l0.1-4.1l-0.1-4.9c0-0.1,0.1-0.2,0.2-0.2h1.2c0.1,0,0.2,0.1,0.2,0.2l0,1.4
		c0.6-0.9,1.6-1.8,3.1-1.8c1.9,0,3.1,1.3,3.1,3.7v1.9l0.1,3.8c0,0.1-0.1,0.2-0.2,0.2h-1.3c-0.1,0-0.2-0.1-0.2-0.2l0-3.8v-1.8
		c0-1.7-0.8-2.4-2-2.4c-1.2,0-2.2,1-2.6,2.8v1.4l0,3.8c0,0.1-0.1,0.2-0.2,0.2H148.4z"/>
	<path class="st1" d="M164.3,73.8c-0.1,0-0.2-0.1-0.2-0.2l0-1.3c-0.6,1-1.6,1.7-3,1.7c-2.5,0-3.8-2.1-3.8-4.8s1.4-4.8,3.9-4.8
		c1.3,0,2.3,0.6,2.9,1.6l0-1.2c0-0.1,0.1-0.2,0.2-0.2h1.3c0.1,0,0.2,0.1,0.2,0.2l-0.1,4.4l0.1,4.5c0,0.1-0.1,0.2-0.2,0.2H164.3z
		 M161.6,72.8c1.6,0,2.6-1.2,2.6-3.5c0-2.2-0.8-3.5-2.3-3.7c-0.1,0-0.3,0-0.4,0c-1.7,0.1-2.4,1.5-2.4,3.5
		C159,71.3,159.9,72.8,161.6,72.8z"/>
	<path class="st1" d="M174.6,74c-2.4,0-4.1-1.1-4.2-3.2c0-0.1,0.1-0.2,0.2-0.2h1.2c0.1,0,0.2,0.1,0.2,0.2c0.1,1.5,1,2.1,2.6,2.1
		c1.4,0,2.3-0.6,2.3-1.6c0-2.4-6.3-0.5-6.3-4.2c0-1.8,1.5-2.7,3.7-2.7c2.1,0,3.7,0.9,3.9,2.8c0,0.1-0.1,0.2-0.2,0.2h-1.2
		c-0.1,0-0.2-0.1-0.2-0.2c-0.1-1.2-1-1.7-2.3-1.7c-1.3,0-2.1,0.5-2.1,1.5c0,2.3,6.3,0.3,6.3,4.2C178.5,73,176.8,74,174.6,74z"/>
	<path class="st1" d="M184.2,73.5c0,0.1-0.1,0.2-0.2,0.2c-0.4,0.1-0.8,0.2-1.2,0.2c-1.4,0-2.5-0.7-2.5-2.7v-5.4h-1
		c-0.1,0-0.2-0.1-0.2-0.2v-0.9c0-0.1,0.1-0.2,0.2-0.2h1l0-2.1c0-0.1,0.1-0.2,0.2-0.2h1.3c0.1,0,0.2,0.1,0.2,0.2l0,2.1h2.1
		c0.1,0,0.2,0.1,0.2,0.2v0.9c0,0.1-0.1,0.2-0.2,0.2h-2.1v5.4c0,1.1,0.4,1.5,1.2,1.5c0.3,0,0.7-0.1,0.9-0.1c0.1,0,0.2,0,0.2,0.1V73.5
		z"/>
	<path class="st1" d="M191.6,73.8c-0.1,0-0.2-0.1-0.2-0.2l0-1.3c-0.6,1-1.6,1.7-3,1.7c-2.5,0-3.8-2.1-3.8-4.8s1.4-4.8,3.9-4.8
		c1.3,0,2.3,0.6,2.9,1.6l0-1.2c0-0.1,0.1-0.2,0.2-0.2h1.3c0.1,0,0.2,0.1,0.2,0.2l-0.1,4.4l0.1,4.5c0,0.1-0.1,0.2-0.2,0.2H191.6z
		 M188.9,72.8c1.6,0,2.6-1.2,2.6-3.5c0-2.2-0.8-3.5-2.3-3.7c-0.1,0-0.3,0-0.4,0c-1.7,0.1-2.4,1.5-2.4,3.5
		C186.4,71.3,187.2,72.8,188.9,72.8z"/>
	<path class="st1" d="M195,73.8c-0.1,0-0.2-0.1-0.2-0.2l0.1-4.1l-0.1-4.9c0-0.1,0.1-0.2,0.2-0.2h1.2c0.1,0,0.2,0.1,0.2,0.2l0,1.4
		c0.6-0.9,1.6-1.8,3.1-1.8c1.9,0,3.1,1.3,3.1,3.7v1.9l0.1,3.8c0,0.1-0.1,0.2-0.2,0.2h-1.3c-0.1,0-0.2-0.1-0.2-0.2l0-3.8v-1.8
		c0-1.7-0.8-2.4-2-2.4c-1.2,0-2.2,1-2.6,2.8v1.4l0,3.8c0,0.1-0.1,0.2-0.2,0.2H195z"/>
	<path class="st1" d="M204.5,76.9c-0.1,0-0.2-0.1-0.2-0.2l0.1-5.9l-0.1-6.1c0-0.1,0.1-0.2,0.2-0.2h1.3c0.1,0,0.2,0.1,0.2,0.2
		l-0.1,6.1l0.1,5.9c0,0.1-0.1,0.2-0.2,0.2H204.5z M204.5,63.4c-0.1,0-0.2-0.1-0.2-0.2v-1.4c0-0.1,0.1-0.2,0.2-0.2h1.3
		c0.1,0,0.2,0.1,0.2,0.2v1.4c0,0.1-0.1,0.2-0.2,0.2H204.5z"/>
	<path class="st1" d="M214.4,73.8c-0.1,0-0.2-0.1-0.2-0.2l0-1.3c-0.6,1-1.6,1.7-3,1.7c-2.5,0-3.8-2.1-3.8-4.8s1.4-4.8,3.9-4.8
		c1.3,0,2.3,0.6,2.9,1.6l0-1.2c0-0.1,0.1-0.2,0.2-0.2h1.3c0.1,0,0.2,0.1,0.2,0.2l-0.1,4.4l0.1,4.5c0,0.1-0.1,0.2-0.2,0.2H214.4z
		 M211.7,72.8c1.6,0,2.6-1.2,2.6-3.5c0-2.2-0.8-3.5-2.3-3.7c-0.1,0-0.3,0-0.4,0c-1.7,0.1-2.4,1.5-2.4,3.5
		C209.2,71.3,210,72.8,211.7,72.8z"/>
	<path class="st1" d="M217.4,76.3c-0.1,0-0.1-0.1-0.1-0.2c1.1-2.4,1.7-5,1.7-7.8c0-2.8-0.6-5.3-1.7-7.6c0-0.1,0-0.2,0.1-0.2h1
		c0.1,0,0.2,0.1,0.3,0.2c1.1,2.1,1.8,4.6,1.8,7.6s-0.7,5.4-1.9,7.8c0,0.1-0.1,0.2-0.3,0.2H217.4z"/>
</g>
<g>
	<path class="st0" d="M564.4,40.8c-0.2,0-0.4-0.2-0.4-0.4l0.1-13.4l0-11.7c-1.8,1.7-4.1,2.9-6.7,3.7c-0.2,0.1-0.4,0-0.4-0.3V14
		c0-0.2,0.1-0.5,0.4-0.6c3.2-1.2,5.6-3.1,7-5.8c0.1-0.2,0.4-0.4,0.6-0.4h6c0.2,0,0.4,0.2,0.4,0.4l-0.1,16.8l0.1,15.9
		c0,0.2-0.2,0.4-0.4,0.4H564.4z"/>
	<path class="st0" d="M586,41.5c-6.1,0-9.9-3.1-10.6-8.5c0-0.2,0.1-0.4,0.4-0.4h6.2c0.2,0,0.4,0.2,0.5,0.4c0.4,2,1.7,3.5,4,3.5
		c3.6,0,5.5-3.5,5.6-9.5c-1.5,1.7-3.6,2.8-7.1,2.8c-6.5,0-10.9-4.2-10.9-10.9c0-7.1,4.7-12.3,12.4-12.3c8,0,13.1,5.5,13.1,17.4
		C599.6,35.2,594.3,41.5,586,41.5z M586.6,24.7c3.3,0,5.3-2.3,5.3-6.4c0-4.1-1.8-6.6-4.9-6.6s-5.2,2.3-5.2,6.3
		C581.7,22.1,583.3,24.7,586.6,24.7z"/>
	<path class="st0" d="M627.2,32.7c0,0.2-0.2,0.4-0.4,0.4h-3.3v7.2c0,0.2-0.2,0.4-0.4,0.4h-6.4c-0.2,0-0.4-0.2-0.4-0.4v-7.2h-14.6
		c-0.2,0-0.4-0.2-0.4-0.4v-5.3c0-0.2,0.1-0.6,0.2-0.8l12.2-19c0.1-0.2,0.4-0.4,0.7-0.4h8.8c0.2,0,0.4,0.2,0.4,0.4v20.1h3.3
		c0.2,0,0.4,0.2,0.4,0.4V32.7z M616.2,19.3l0.2-6.8l-9.5,15.2h9.3V19.3z"/>
	<path class="st1" d="M499.6,76.3c-0.1,0-0.2-0.1-0.3-0.2c-1.2-2.3-1.9-4.8-1.9-7.8s0.7-5.5,1.8-7.6c0.1-0.1,0.2-0.2,0.3-0.2h1
		c0.1,0,0.1,0.1,0.1,0.2c-1,2.3-1.7,4.8-1.7,7.6c0,2.8,0.6,5.3,1.7,7.8c0,0.1,0,0.2-0.1,0.2H499.6z"/>
	<path class="st1" d="M506.4,65.6c-1.2,0-2.2,1-2.6,2.6l0.1,5.4c0,0.1-0.1,0.2-0.2,0.2h-1.3c-0.1,0-0.2-0.1-0.2-0.2l0.1-6.2l-0.1-6
		c0-0.1,0.1-0.2,0.2-0.2h1.3c0.1,0,0.2,0.1,0.2,0.2l-0.1,4.6c0.6-1,1.6-1.7,3-1.7c2,0,3.2,1.2,3.2,3.9l0,1.9l0.1,3.6
		c0,0.1-0.1,0.2-0.2,0.2h-1.3c-0.1,0-0.2-0.1-0.2-0.2l0.1-3.5v-2C508.3,66.3,507.5,65.6,506.4,65.6z"/>
	<path class="st1" d="M511.9,73.8c-0.1,0-0.2-0.1-0.2-0.2l0.1-4.6l-0.1-4.3c0-0.1,0.1-0.2,0.2-0.2h1.3c0.1,0,0.2,0.1,0.2,0.2
		l-0.1,4.3l0.1,4.6c0,0.1-0.1,0.2-0.2,0.2H511.9z M511.9,63.4c-0.1,0-0.2-0.1-0.2-0.2v-1.4c0-0.1,0.1-0.2,0.2-0.2h1.3
		c0.1,0,0.2,0.1,0.2,0.2v1.4c0,0.1-0.1,0.2-0.2,0.2H511.9z"/>
	<path class="st1" d="M519.8,73.5c0,0.1-0.1,0.2-0.2,0.2c-0.4,0.1-0.8,0.2-1.2,0.2c-1.4,0-2.5-0.7-2.5-2.7v-5.4h-1
		c-0.1,0-0.2-0.1-0.2-0.2v-0.9c0-0.1,0.1-0.2,0.2-0.2h1l0-2.1c0-0.1,0.1-0.2,0.2-0.2h1.3c0.1,0,0.2,0.1,0.2,0.2l0,2.1h2.1
		c0.1,0,0.2,0.1,0.2,0.2v0.9c0,0.1-0.1,0.2-0.2,0.2h-2.1v5.4c0,1.1,0.4,1.5,1.2,1.5c0.3,0,0.7-0.1,0.9-0.1c0.1,0,0.2,0,0.2,0.1V73.5
		z"/>
	<path class="st1" d="M521.2,73.8c-0.1,0-0.2-0.1-0.2-0.2l0.1-4.1l-0.1-4.9c0-0.1,0.1-0.2,0.2-0.2h1.2c0.1,0,0.2,0.1,0.2,0.2l0,1.4
		c0.6-0.9,1.6-1.8,3.1-1.8c1.9,0,3.1,1.3,3.1,3.7v1.9l0.1,3.8c0,0.1-0.1,0.2-0.2,0.2h-1.3c-0.1,0-0.2-0.1-0.2-0.2l0-3.8v-1.8
		c0-1.7-0.8-2.4-2-2.4c-1.2,0-2.2,1-2.6,2.8v1.4l0,3.8c0,0.1-0.1,0.2-0.2,0.2H521.2z"/>
	<path class="st1" d="M537.1,73.8c-0.1,0-0.2-0.1-0.2-0.2l0-1.3c-0.6,1-1.6,1.7-3,1.7c-2.5,0-3.8-2.1-3.8-4.8s1.4-4.8,3.9-4.8
		c1.3,0,2.3,0.6,2.9,1.6l0-1.2c0-0.1,0.1-0.2,0.2-0.2h1.3c0.1,0,0.2,0.1,0.2,0.2l-0.1,4.4l0.1,4.5c0,0.1-0.1,0.2-0.2,0.2H537.1z
		 M534.4,72.8c1.6,0,2.6-1.2,2.6-3.5c0-2.2-0.8-3.5-2.3-3.7c-0.1,0-0.3,0-0.4,0c-1.7,0.1-2.4,1.5-2.4,3.5
		C531.8,71.3,532.7,72.8,534.4,72.8z"/>
	<path class="st1" d="M545.3,70.2l0.1,3.4c0,0.1-0.1,0.2-0.2,0.2h-1.4c-0.1,0-0.2-0.1-0.2-0.2l0.1-3.4l-0.1-5.5
		c0-0.1,0.1-0.2,0.2-0.2h1.3c0.1,0,0.2,0.1,0.2,0.2l0,1.4c0.6-1,1.5-1.8,2.9-1.8c1.3,0,2.3,0.6,2.7,1.9c0.6-1.3,1.6-1.9,2.9-1.9
		c1.8,0,2.9,1.2,2.9,3.7v2.2l0,3.4c0,0.1-0.1,0.2-0.2,0.2h-1.3c-0.1,0-0.2-0.1-0.2-0.2l0.1-3.4v-2.1c0-1.7-0.7-2.4-1.8-2.4
		c-1,0-1.8,0.9-2.2,2.4v2.1l0.1,3.4c0,0.1-0.1,0.2-0.2,0.2h-1.3c-0.1,0-0.2-0.1-0.2-0.2l0.1-3.4v-2.1c0-1.7-0.7-2.4-1.8-2.4
		c-1.1,0-2,1-2.3,2.8V70.2z"/>
	<path class="st1" d="M566.2,70.6c0.1,0,0.2,0.1,0.2,0.2c-0.3,1.9-1.7,3.3-4.1,3.3c-2.9,0-4.4-2-4.4-4.8c0-2.9,1.7-4.9,4.3-4.9
		s4.3,1.8,4.3,4.9c0,0.1-0.1,0.2-0.2,0.2h-6.8c0.1,2.2,1,3.4,2.8,3.4c1.4,0,2.2-0.7,2.5-2.1c0-0.1,0.1-0.2,0.2-0.2H566.2z
		 M562.3,65.5c-1.5,0-2.4,1-2.6,2.7h5.2C564.7,66.8,563.9,65.5,562.3,65.5z"/>
	<path class="st1" d="M574.5,73.8c-0.1,0-0.2-0.1-0.2-0.2l0-1.3c-0.6,1-1.6,1.7-3,1.7c-2.5,0-3.8-2.1-3.8-4.8c0-2.7,1.4-4.8,3.9-4.8
		c1.3,0,2.3,0.5,2.9,1.6l0-4.5c0-0.1,0.1-0.2,0.2-0.2h1.3c0.1,0,0.2,0.1,0.2,0.2l-0.1,5.4l0.1,6.8c0,0.1-0.1,0.2-0.2,0.2H574.5z
		 M571.8,72.8c1.6,0,2.6-1.2,2.6-3.5c0-2.3-0.9-3.7-2.6-3.7c-1.8,0-2.6,1.5-2.6,3.5C569.3,71.3,570.1,72.8,571.8,72.8z"/>
	<path class="st1" d="M578,73.8c-0.1,0-0.2-0.1-0.2-0.2l0.1-4.6l-0.1-4.3c0-0.1,0.1-0.2,0.2-0.2h1.3c0.1,0,0.2,0.1,0.2,0.2l-0.1,4.3
		l0.1,4.6c0,0.1-0.1,0.2-0.2,0.2H578z M578,63.4c-0.1,0-0.2-0.1-0.2-0.2v-1.4c0-0.1,0.1-0.2,0.2-0.2h1.3c0.1,0,0.2,0.1,0.2,0.2v1.4
		c0,0.1-0.1,0.2-0.2,0.2H578z"/>
	<path class="st1" d="M585.3,74c-2.8,0-4.3-1.9-4.3-4.8s1.6-4.9,4.4-4.9c2.3,0,3.7,1.3,3.9,3.2c0,0.1-0.1,0.2-0.2,0.2h-1.2
		c-0.1,0-0.2-0.1-0.2-0.2c-0.2-1.4-1.2-2-2.4-2c-1.8,0-2.7,1.3-2.7,3.6c0,2.4,0.9,3.6,2.7,3.6c1.4,0,2.3-0.8,2.5-2.3
		c0-0.1,0.1-0.2,0.2-0.2h1.2c0.1,0,0.2,0.1,0.2,0.2C589.1,72.5,587.7,74,585.3,74z"/>
	<path class="st1" d="M590.9,73.8c-0.1,0-0.2-0.1-0.2-0.2l0.1-4.6l-0.1-4.3c0-0.1,0.1-0.2,0.2-0.2h1.3c0.1,0,0.2,0.1,0.2,0.2
		l-0.1,4.3l0.1,4.6c0,0.1-0.1,0.2-0.2,0.2H590.9z M590.9,63.4c-0.1,0-0.2-0.1-0.2-0.2v-1.4c0-0.1,0.1-0.2,0.2-0.2h1.3
		c0.1,0,0.2,0.1,0.2,0.2v1.4c0,0.1-0.1,0.2-0.2,0.2H590.9z"/>
	<path class="st1" d="M594.4,73.8c-0.1,0-0.2-0.1-0.2-0.2l0.1-4.1l-0.1-4.9c0-0.1,0.1-0.2,0.2-0.2h1.2c0.1,0,0.2,0.1,0.2,0.2l0,1.4
		c0.6-0.9,1.6-1.8,3.1-1.8c1.9,0,3.1,1.3,3.1,3.7v1.9l0.1,3.8c0,0.1-0.1,0.2-0.2,0.2h-1.3c-0.1,0-0.2-0.1-0.2-0.2l0-3.8v-1.8
		c0-1.7-0.8-2.4-2-2.4c-1.2,0-2.2,1-2.6,2.8v1.4l0,3.8c0,0.1-0.1,0.2-0.2,0.2H594.4z"/>
	<path class="st1" d="M607.4,74c-2.4,0-4.1-1.1-4.2-3.2c0-0.1,0.1-0.2,0.2-0.2h1.2c0.1,0,0.2,0.1,0.2,0.2c0.1,1.5,1,2.1,2.6,2.1
		c1.4,0,2.3-0.6,2.3-1.6c0-2.4-6.3-0.5-6.3-4.2c0-1.8,1.5-2.7,3.7-2.7c2.1,0,3.7,0.9,3.9,2.8c0,0.1-0.1,0.2-0.2,0.2h-1.2
		c-0.1,0-0.2-0.1-0.2-0.2c-0.1-1.2-1-1.7-2.3-1.7c-1.3,0-2.1,0.5-2.1,1.5c0,2.3,6.3,0.3,6.3,4.2C611.3,73,609.6,74,607.4,74z"/>
	<path class="st1" d="M617.4,72.3l-2-3.2l-1.2,1.3l0,3.2c0,0.1-0.1,0.2-0.2,0.2h-1.3c-0.1,0-0.2-0.1-0.2-0.2l0.1-6.1l-0.1-6.2
		c0-0.1,0.1-0.2,0.2-0.2h1.3c0.1,0,0.2,0.1,0.2,0.2l-0.1,6.1v1l3.5-3.9c0.1-0.1,0.2-0.1,0.3-0.1h1.5c0.1,0,0.1,0.1,0.1,0.1l-3,3.3
		l3.4,5.7c0,0.1,0,0.2-0.1,0.2h-1.5c-0.1,0-0.2-0.1-0.3-0.2L617.4,72.3z"/>
	<path class="st1" d="M627,73.8c-0.1,0-0.2-0.1-0.2-0.2l0-1.3c-0.6,1-1.6,1.7-3,1.7c-2.5,0-3.8-2.1-3.8-4.8s1.4-4.8,3.9-4.8
		c1.3,0,2.3,0.6,2.9,1.6l0-1.2c0-0.1,0.1-0.2,0.2-0.2h1.3c0.1,0,0.2,0.1,0.2,0.2l-0.1,4.4l0.1,4.5c0,0.1-0.1,0.2-0.2,0.2H627z
		 M624.3,72.8c1.6,0,2.6-1.2,2.6-3.5c0-2.2-0.8-3.5-2.3-3.7c-0.1,0-0.3,0-0.4,0c-1.7,0.1-2.4,1.5-2.4,3.5
		C621.7,71.3,622.5,72.8,624.3,72.8z"/>
	<path class="st1" d="M637.3,74c-2.4,0-4.1-1.1-4.2-3.2c0-0.1,0.1-0.2,0.2-0.2h1.2c0.1,0,0.2,0.1,0.2,0.2c0.1,1.5,1,2.1,2.6,2.1
		c1.4,0,2.3-0.6,2.3-1.6c0-2.4-6.3-0.5-6.3-4.2c0-1.8,1.5-2.7,3.7-2.7c2.1,0,3.7,0.9,3.9,2.8c0,0.1-0.1,0.2-0.2,0.2h-1.2
		c-0.1,0-0.2-0.1-0.2-0.2c-0.1-1.2-1-1.7-2.3-1.7c-1.3,0-2.1,0.5-2.1,1.5c0,2.3,6.3,0.3,6.3,4.2C641.2,73,639.5,74,637.3,74z"/>
	<path class="st1" d="M642.8,73.8c-0.1,0-0.2-0.1-0.2-0.2l0.1-6.2l-0.1-6c0-0.1,0.1-0.2,0.2-0.2h1.3c0.1,0,0.2,0.1,0.2,0.2l-0.1,6
		l0.1,6.2c0,0.1-0.1,0.2-0.2,0.2H642.8z"/>
	<path class="st1" d="M649.1,74c-1.9,0-3.1-1.3-3.1-3.7v-1.8l0-3.8c0-0.1,0.1-0.2,0.2-0.2h1.3c0.1,0,0.2,0.1,0.2,0.2l0,3.8v1.8
		c0,1.7,0.8,2.4,2,2.4c1.2,0,2.2-1,2.6-2.8v-1.4l0-3.8c0-0.1,0.1-0.2,0.2-0.2h1.3c0.1,0,0.2,0.1,0.2,0.2l-0.1,4.1l0,4.9
		c0,0.1-0.1,0.2-0.2,0.2h-1.2c-0.1,0-0.2-0.1-0.2-0.2l0.1-1.4C651.7,73.2,650.6,74,649.1,74z"/>
	<path class="st1" d="M662.5,73.6c0,0.1-0.1,0.2-0.2,0.2h-6.9c-0.1,0-0.2-0.1-0.2-0.2v-0.9c0-0.1,0-0.2,0.1-0.3l5-6.6h-4.5
		c-0.1,0-0.2-0.1-0.2-0.2v-0.9c0-0.1,0.1-0.2,0.2-0.2h6.3c0.1,0,0.2,0.1,0.2,0.2v0.9c0,0.1,0,0.2-0.1,0.3l-5,6.6h5.2
		c0.1,0,0.2,0.1,0.2,0.2V73.6z M659.4,63.4c-0.1,0.1-0.2,0.1-0.3,0.1h-0.4c-0.1,0-0.2,0-0.3-0.1l-2.3-1.4c-0.1-0.1-0.1-0.2-0.1-0.3
		l0.2-0.5c0-0.1,0.1-0.1,0.2-0.1l2.5,1.1l2.4-1.1c0.1,0,0.2,0,0.2,0.1l0.2,0.5c0,0.1,0,0.2-0.1,0.3L659.4,63.4z"/>
	<path class="st1" d="M668.5,74c-1.3,0-2.3-0.6-2.9-1.6l0,1.2c0,0.1-0.1,0.2-0.2,0.2h-1.3c-0.1,0-0.2-0.1-0.2-0.2l0.1-6.7l-0.1-5.5
		c0-0.1,0.1-0.2,0.2-0.2h1.3c0.1,0,0.2,0.1,0.2,0.2l0,4.6c0.6-1,1.6-1.6,3-1.6c2.5,0,3.8,2.1,3.8,4.8C672.3,71.8,670.9,74,668.5,74z
		 M668,72.8c1.8,0,2.6-1.4,2.6-3.5c0-2.2-0.8-3.7-2.6-3.7c-1.6,0-2.6,1.2-2.6,3.5C665.5,71.4,666.4,72.8,668,72.8z"/>
	<path class="st1" d="M680.3,73.8c-0.1,0-0.2-0.1-0.2-0.2l0-1.3c-0.6,1-1.6,1.7-3,1.7c-2.5,0-3.8-2.1-3.8-4.8s1.4-4.8,3.9-4.8
		c1.3,0,2.3,0.6,2.9,1.6l0-1.2c0-0.1,0.1-0.2,0.2-0.2h1.3c0.1,0,0.2,0.1,0.2,0.2l-0.1,4.4l0.1,4.5c0,0.1-0.1,0.2-0.2,0.2H680.3z
		 M677.6,72.8c1.6,0,2.6-1.2,2.6-3.5c0-2.2-0.8-3.5-2.3-3.7c-0.1,0-0.3,0-0.4,0c-1.7,0.1-2.4,1.5-2.4,3.5
		C675,71.3,675.9,72.8,677.6,72.8z"/>
	<path class="st1" d="M683.3,76.3c-0.1,0-0.1-0.1-0.1-0.2c1.1-2.4,1.7-5,1.7-7.8c0-2.8-0.6-5.3-1.7-7.6c0-0.1,0-0.2,0.1-0.2h1
		c0.1,0,0.2,0.1,0.3,0.2c1.1,2.1,1.8,4.6,1.8,7.6s-0.7,5.4-1.9,7.8c0,0.1-0.1,0.2-0.3,0.2H683.3z"/>
</g>
<g>
	<path class="st0" d="M84.1,202.5c-0.2,0-0.4-0.2-0.4-0.4l0.1-13.4l0-11.7c-1.8,1.7-4.1,2.9-6.7,3.7c-0.2,0.1-0.4,0-0.4-0.3v-4.7
		c0-0.2,0.1-0.5,0.4-0.6c3.2-1.2,5.6-3.1,7-5.8c0.1-0.2,0.4-0.4,0.6-0.4h6c0.2,0,0.4,0.2,0.4,0.4L91,186.1l0.1,15.9
		c0,0.2-0.2,0.4-0.4,0.4H84.1z"/>
	<path class="st0" d="M105.7,203.2c-6.1,0-9.9-3.1-10.6-8.5c0-0.2,0.1-0.4,0.4-0.4h6.2c0.2,0,0.4,0.2,0.5,0.4c0.4,2,1.7,3.5,4,3.5
		c3.6,0,5.5-3.5,5.6-9.5c-1.5,1.7-3.6,2.8-7.1,2.8c-6.5,0-10.9-4.2-10.9-10.9c0-7.1,4.7-12.3,12.4-12.3c8,0,13.1,5.5,13.1,17.4
		C119.4,196.9,114,203.2,105.7,203.2z M106.3,186.3c3.3,0,5.3-2.3,5.3-6.4c0-4.1-1.8-6.6-4.9-6.6s-5.2,2.3-5.2,6.3
		C101.5,183.7,103,186.3,106.3,186.3z"/>
	<path class="st0" d="M121,202.5c-0.2,0-0.4-0.2-0.4-0.4v-4.3c0-13.4,16.6-12.1,16.6-19.2c0.1-3.2-1.6-5.1-4.7-5.1
		c-3,0-4.9,2.3-5,6.3c0,0.2-0.2,0.4-0.4,0.4h-5.8c-0.2,0-0.4-0.2-0.4-0.4c0-7.3,3.9-11.5,11.7-11.6c7.5,0,11.3,3.8,11.5,10.1
		c0,12.4-16.6,11.7-16.6,18.1v0.6h16.1c0.2,0,0.4,0.2,0.4,0.4v4.6c0,0.2-0.2,0.4-0.4,0.4H121z"/>
	<path class="st1" d="M82.3,238c-0.1,0-0.2-0.1-0.3-0.2c-1.2-2.3-1.9-4.8-1.9-7.8s0.7-5.5,1.8-7.6c0.1-0.1,0.2-0.2,0.3-0.2h1
		c0.1,0,0.1,0.1,0.1,0.2c-1,2.3-1.7,4.8-1.7,7.6c0,2.8,0.6,5.3,1.7,7.8c0,0.1,0,0.2-0.1,0.2H82.3z"/>
	<path class="st1" d="M89.5,235.6c-1.3,0-2.3-0.5-2.9-1.5l0,4.2c0,0.1-0.1,0.2-0.2,0.2h-1.3c-0.1,0-0.2-0.1-0.2-0.2l0.1-6.9
		l-0.1-5.1c0-0.1,0.1-0.2,0.2-0.2h1.3c0.1,0,0.2,0.1,0.2,0.2l0,1.3c0.6-1,1.6-1.7,3-1.7c2.5,0,3.8,2.1,3.8,4.8
		C93.3,233.5,91.9,235.6,89.5,235.6z M89,234.4c1.8,0,2.6-1.4,2.6-3.5c0-2.2-0.8-3.7-2.6-3.7c-1.6,0-2.6,1.2-2.6,3.5
		C86.5,233.1,87.4,234.4,89,234.4z"/>
	<path class="st1" d="M98.8,235.7c-2.8,0-4.4-1.9-4.4-4.8c0-2.9,1.6-4.9,4.4-4.9c2.8,0,4.4,1.9,4.4,4.8S101.6,235.7,98.8,235.7z
		 M98.8,234.5c1.8,0,2.7-1.3,2.7-3.6s-0.9-3.7-2.7-3.7c-1.8,0-2.7,1.4-2.7,3.7S97,234.5,98.8,234.5z"/>
	<path class="st1" d="M104.8,235.5c-0.1,0-0.2-0.1-0.2-0.2l0.1-6.2l-0.1-6c0-0.1,0.1-0.2,0.2-0.2h1.3c0.1,0,0.2,0.1,0.2,0.2l-0.1,6
		l0.1,6.2c0,0.1-0.1,0.2-0.2,0.2H104.8z"/>
	<path class="st1" d="M108.3,235.5c-0.1,0-0.2-0.1-0.2-0.2l0.1-4.6l-0.1-4.3c0-0.1,0.1-0.2,0.2-0.2h1.3c0.1,0,0.2,0.1,0.2,0.2
		l-0.1,4.3l0.1,4.6c0,0.1-0.1,0.2-0.2,0.2H108.3z M108.4,225.1c-0.1,0-0.2-0.1-0.2-0.2v-1.4c0-0.1,0.1-0.2,0.2-0.2h1.3
		c0.1,0,0.2,0.1,0.2,0.2v1.4c0,0.1-0.1,0.2-0.2,0.2H108.4z"/>
	<path class="st1" d="M115.7,235.7c-2.8,0-4.3-1.9-4.3-4.8s1.6-4.9,4.4-4.9c2.3,0,3.7,1.3,3.9,3.2c0,0.1-0.1,0.2-0.2,0.2h-1.2
		c-0.1,0-0.2-0.1-0.2-0.2c-0.2-1.4-1.2-2-2.4-2c-1.8,0-2.7,1.3-2.7,3.6c0,2.4,0.9,3.6,2.7,3.6c1.4,0,2.3-0.8,2.5-2.3
		c0-0.1,0.1-0.2,0.2-0.2h1.2c0.1,0,0.2,0.1,0.2,0.2C119.5,234.2,118,235.7,115.7,235.7z"/>
	<path class="st1" d="M121.3,235.5c-0.1,0-0.2-0.1-0.2-0.2l0.1-4.6l-0.1-4.3c0-0.1,0.1-0.2,0.2-0.2h1.3c0.1,0,0.2,0.1,0.2,0.2
		l-0.1,4.3l0.1,4.6c0,0.1-0.1,0.2-0.2,0.2H121.3z M121.3,225.1c-0.1,0-0.2-0.1-0.2-0.2v-1.4c0-0.1,0.1-0.2,0.2-0.2h1.3
		c0.1,0,0.2,0.1,0.2,0.2v1.4c0,0.1-0.1,0.2-0.2,0.2H121.3z"/>
	<path class="st1" d="M124.8,238.5c-0.1,0-0.2-0.1-0.2-0.2l0.1-5.9l-0.1-6.1c0-0.1,0.1-0.2,0.2-0.2h1.3c0.1,0,0.2,0.1,0.2,0.2
		l-0.1,6.1l0.1,5.9c0,0.1-0.1,0.2-0.2,0.2H124.8z M124.8,225.1c-0.1,0-0.2-0.1-0.2-0.2v-1.4c0-0.1,0.1-0.2,0.2-0.2h1.3
		c0.1,0,0.2,0.1,0.2,0.2v1.4c0,0.1-0.1,0.2-0.2,0.2H124.8z"/>
	<path class="st1" d="M134.7,235.5c-0.1,0-0.2-0.1-0.2-0.2l0-1.3c-0.6,1-1.6,1.7-3,1.7c-2.5,0-3.8-2.1-3.8-4.8s1.4-4.8,3.9-4.8
		c1.3,0,2.3,0.6,2.9,1.6l0-1.2c0-0.1,0.1-0.2,0.2-0.2h1.3c0.1,0,0.2,0.1,0.2,0.2l-0.1,4.4l0.1,4.5c0,0.1-0.1,0.2-0.2,0.2H134.7z
		 M132,234.4c1.6,0,2.6-1.2,2.6-3.5c0-2.2-0.8-3.5-2.3-3.7c-0.1,0-0.3,0-0.4,0c-1.7,0.1-2.4,1.5-2.4,3.5
		C129.5,232.9,130.3,234.4,132,234.4z"/>
	<path class="st1" d="M137.7,238c-0.1,0-0.1-0.1-0.1-0.2c1.1-2.4,1.7-5,1.7-7.8c0-2.8-0.6-5.3-1.7-7.6c0-0.1,0-0.2,0.1-0.2h1
		c0.1,0,0.2,0.1,0.3,0.2c1.1,2.1,1.8,4.6,1.8,7.6s-0.7,5.4-1.9,7.8c0,0.1-0.1,0.2-0.3,0.2H137.7z"/>
</g>
<g>
	<path class="st0" d="M565.3,202.5c-0.2,0-0.4-0.2-0.4-0.4l0.1-13.4l0-11.7c-1.8,1.7-4.1,2.9-6.7,3.7c-0.2,0.1-0.4,0-0.4-0.3v-4.7
		c0-0.2,0.1-0.5,0.4-0.6c3.2-1.2,5.6-3.1,7-5.8c0.1-0.2,0.4-0.4,0.6-0.4h6c0.2,0,0.4,0.2,0.4,0.4l-0.1,16.8l0.1,15.9
		c0,0.2-0.2,0.4-0.4,0.4H565.3z"/>
	<path class="st0" d="M586.8,203.2c-6.1,0-9.9-3.1-10.6-8.5c0-0.2,0.1-0.4,0.4-0.4h6.2c0.2,0,0.4,0.2,0.5,0.4c0.4,2,1.7,3.5,4,3.5
		c3.6,0,5.5-3.5,5.6-9.5c-1.5,1.7-3.6,2.8-7.1,2.8c-6.5,0-10.9-4.2-10.9-10.9c0-7.1,4.7-12.3,12.4-12.3c8,0,13.1,5.5,13.1,17.4
		C600.5,196.9,595.2,203.2,586.8,203.2z M587.5,186.3c3.3,0,5.3-2.3,5.3-6.4c0-4.1-1.8-6.6-4.9-6.6s-5.2,2.3-5.2,6.3
		C582.6,183.7,584.2,186.3,587.5,186.3z"/>
	<path class="st0" d="M613.3,202.9c-7.4,0-11.3-3.7-11.9-10.6c0-0.2,0.1-0.4,0.4-0.4h6.2c0.2,0,0.4,0.2,0.4,0.4
		c0.2,3.6,1.8,5.8,5,5.7c2.9,0,4.9-2.1,5-5.7c0.1-3.8-2-5.4-7-5.4h-1c-0.2,0-0.4-0.2-0.4-0.4v-3.8c0-0.2,0.2-0.4,0.4-0.4h1
		c4.4,0,6.4-1.9,6.4-4.6c0-2.6-1.8-4.5-4.2-4.5c-2.9,0-4.5,1.6-4.8,5c0,0.2-0.2,0.4-0.5,0.4h-6.1c-0.2,0-0.4-0.2-0.4-0.4
		c0.4-6.4,4.8-9.9,12.1-9.9c6.5,0,10.9,3.4,11,8.6c0,4-2.4,6.2-5.5,7.2c4.1,1.1,6.4,3.8,6.4,7.9C626,199.1,620.1,202.9,613.3,202.9z
		"/>
	<path class="st1" d="M549.7,238c-0.1,0-0.2-0.1-0.3-0.2c-1.2-2.3-1.9-4.8-1.9-7.8s0.7-5.5,1.8-7.6c0.1-0.1,0.2-0.2,0.3-0.2h1
		c0.1,0,0.1,0.1,0.1,0.2c-1,2.3-1.7,4.8-1.7,7.6c0,2.8,0.6,5.3,1.7,7.8c0,0.1,0,0.2-0.1,0.2H549.7z"/>
	<path class="st1" d="M556.8,235.3c0,0.1-0.1,0.2-0.2,0.2H555c-0.1,0-0.2-0.1-0.2-0.2l-3.3-9c0-0.1,0-0.2,0.1-0.2h1.4
		c0.1,0,0.2,0.1,0.2,0.2l2.6,7.8l2.7-7.8c0-0.1,0.1-0.2,0.2-0.2h1.2c0.1,0,0.1,0.1,0.1,0.2L556.8,235.3z"/>
	<path class="st1" d="M567.2,235.5c-0.1,0-0.2-0.1-0.2-0.2l0-1.3c-0.6,1-1.6,1.7-3,1.7c-2.5,0-3.8-2.1-3.8-4.8s1.4-4.8,3.9-4.8
		c1.3,0,2.3,0.6,2.9,1.6l0-1.2c0-0.1,0.1-0.2,0.2-0.2h1.3c0.1,0,0.2,0.1,0.2,0.2l-0.1,4.4l0.1,4.5c0,0.1-0.1,0.2-0.2,0.2H567.2z
		 M564.5,234.4c1.6,0,2.6-1.2,2.6-3.5c0-2.2-0.8-3.5-2.3-3.7c-0.1,0-0.3,0-0.4,0c-1.7,0.1-2.4,1.5-2.4,3.5
		C561.9,232.9,562.7,234.4,564.5,234.4z"/>
	<path class="st1" d="M575,235.2c0,0.1-0.1,0.2-0.2,0.2c-0.4,0.1-0.8,0.2-1.2,0.2c-1.4,0-2.5-0.7-2.5-2.7v-5.4h-1
		c-0.1,0-0.2-0.1-0.2-0.2v-0.9c0-0.1,0.1-0.2,0.2-0.2h1l0-2.1c0-0.1,0.1-0.2,0.2-0.2h1.3c0.1,0,0.2,0.1,0.2,0.2l0,2.1h2.1
		c0.1,0,0.2,0.1,0.2,0.2v0.9c0,0.1-0.1,0.2-0.2,0.2h-2.1v5.4c0,1.1,0.4,1.5,1.2,1.5c0.3,0,0.7-0.1,0.9-0.1c0.1,0,0.2,0,0.2,0.1
		V235.2z"/>
	<path class="st1" d="M576.4,235.5c-0.1,0-0.2-0.1-0.2-0.2l0.1-4.6l-0.1-4.4c0-0.1,0.1-0.2,0.2-0.2h1.3c0.1,0,0.2,0.1,0.2,0.2
		l-0.1,1.6c0.6-1.2,1.9-1.8,3.2-1.8c0.2,0,0.4,0,0.5,0.1c0.1,0,0.2,0.1,0.2,0.2v1c0,0.1-0.1,0.2-0.2,0.2c-0.1,0-0.3,0-0.5,0
		c-1.5,0-2.9,0.9-3.1,3l0,4.9c0,0.1-0.1,0.2-0.2,0.2H576.4z"/>
	<path class="st1" d="M586.1,235.7c-2.8,0-4.4-1.9-4.4-4.8c0-2.9,1.6-4.9,4.4-4.9c2.8,0,4.4,1.9,4.4,4.8S588.9,235.7,586.1,235.7z
		 M586.1,234.5c1.8,0,2.7-1.3,2.7-3.6s-0.9-3.7-2.7-3.7c-1.8,0-2.7,1.4-2.7,3.7S584.2,234.5,586.1,234.5z"/>
	<path class="st1" d="M595.8,239c-2.1,0-3.8-0.9-4-2.8c0-0.1,0.1-0.2,0.2-0.2h1.3c0.1,0,0.2,0.1,0.2,0.2c0.2,1.1,1.1,1.7,2.4,1.7
		c1.6,0,2.6-0.9,2.6-3v-1c-0.6,1-1.6,1.6-2.9,1.6c-2.6,0-4-2-4-4.6c0-2.6,1.4-4.8,3.9-4.8c1.3,0,2.3,0.6,2.9,1.6l-0.1-1.3
		c0-0.1,0.1-0.2,0.2-0.2h1.3c0.1,0,0.2,0.1,0.2,0.2l0,3.5l0,4.9C599.9,237.5,598.4,239,595.8,239z M595.8,234.2
		c1.5,0,2.5-1.1,2.5-3.4c0-2.2-0.8-3.5-2.3-3.6c-0.1,0-0.3,0-0.4,0c-1.6,0.1-2.4,1.4-2.4,3.5C593.1,233,594,234.3,595.8,234.2z"/>
	<path class="st1" d="M608.2,235.5c-0.1,0-0.2-0.1-0.2-0.2l0-1.3c-0.6,1-1.6,1.7-3,1.7c-2.5,0-3.8-2.1-3.8-4.8s1.4-4.8,3.9-4.8
		c1.3,0,2.3,0.6,2.9,1.6l0-1.2c0-0.1,0.1-0.2,0.2-0.2h1.3c0.1,0,0.2,0.1,0.2,0.2l-0.1,4.4l0.1,4.5c0,0.1-0.1,0.2-0.2,0.2H608.2z
		 M605.5,234.4c1.6,0,2.6-1.2,2.6-3.5c0-2.2-0.8-3.5-2.3-3.7c-0.1,0-0.3,0-0.4,0c-1.7,0.1-2.4,1.5-2.4,3.5
		C602.9,232.9,603.8,234.4,605.5,234.4z"/>
	<path class="st1" d="M615.2,235.7c-2.4,0-4.1-1.1-4.2-3.2c0-0.1,0.1-0.2,0.2-0.2h1.2c0.1,0,0.2,0.1,0.2,0.2c0.1,1.5,1,2.1,2.6,2.1
		c1.4,0,2.3-0.6,2.3-1.6c0-2.4-6.3-0.5-6.3-4.2c0-1.8,1.5-2.7,3.7-2.7c2.1,0,3.7,0.9,3.9,2.8c0,0.1-0.1,0.2-0.2,0.2h-1.2
		c-0.1,0-0.2-0.1-0.2-0.2c-0.1-1.2-1-1.7-2.3-1.7c-1.3,0-2.1,0.5-2.1,1.5c0,2.3,6.3,0.3,6.3,4.2
		C619.1,234.6,617.4,235.7,615.2,235.7z"/>
	<path class="st1" d="M624.4,235.7c-2.8,0-4.3-1.9-4.3-4.8s1.6-4.9,4.4-4.9c2.3,0,3.7,1.3,3.9,3.2c0,0.1-0.1,0.2-0.2,0.2H627
		c-0.1,0-0.2-0.1-0.2-0.2c-0.2-1.4-1.2-2-2.4-2c-1.8,0-2.7,1.3-2.7,3.6c0,2.4,0.9,3.6,2.7,3.6c1.4,0,2.3-0.8,2.5-2.3
		c0-0.1,0.1-0.2,0.2-0.2h1.2c0.1,0,0.2,0.1,0.2,0.2C628.3,234.2,626.8,235.7,624.4,235.7z"/>
	<path class="st1" d="M630,235.5c-0.1,0-0.2-0.1-0.2-0.2l0.1-4.6l-0.1-4.3c0-0.1,0.1-0.2,0.2-0.2h1.3c0.1,0,0.2,0.1,0.2,0.2
		l-0.1,4.3l0.1,4.6c0,0.1-0.1,0.2-0.2,0.2H630z M630,225.1c-0.1,0-0.2-0.1-0.2-0.2v-1.4c0-0.1,0.1-0.2,0.2-0.2h1.3
		c0.1,0,0.2,0.1,0.2,0.2v1.4c0,0.1-0.1,0.2-0.2,0.2H630z"/>
	<path class="st1" d="M633.2,238c-0.1,0-0.1-0.1-0.1-0.2c1.1-2.4,1.7-5,1.7-7.8c0-2.8-0.6-5.3-1.7-7.6c0-0.1,0-0.2,0.1-0.2h1
		c0.1,0,0.2,0.1,0.3,0.2c1.1,2.1,1.8,4.6,1.8,7.6s-0.7,5.4-1.9,7.8c0,0.1-0.1,0.2-0.3,0.2H633.2z"/>
</g>
<g>
	<path class="st1" d="M15.1,324.2c-0.1,0-0.2-0.1-0.2-0.2v-3.5c0-0.1,0.1-0.2,0.2-0.2h3.2c0.1,0,0.2,0.1,0.2,0.2v3.5
		c0,0.1-0.1,0.2-0.2,0.2H15.1z"/>
	<path class="st1" d="M34.5,327.9c-1.3,0-2.3-0.6-2.9-1.6l0,1.2c0,0.1-0.1,0.2-0.2,0.2h-1.3c-0.1,0-0.2-0.1-0.2-0.2l0.1-6.7
		l-0.1-5.5c0-0.1,0.1-0.2,0.2-0.2h1.3c0.1,0,0.2,0.1,0.2,0.2l0,4.6c0.6-1,1.6-1.6,3-1.6c2.5,0,3.8,2.1,3.8,4.8
		C38.3,325.7,36.9,327.9,34.5,327.9z M34.1,326.6c1.8,0,2.6-1.4,2.6-3.5c0-2.2-0.8-3.7-2.6-3.7c-1.6,0-2.6,1.2-2.6,3.5
		C31.5,325.3,32.4,326.6,34.1,326.6z"/>
	<path class="st1" d="M39.9,327.7c-0.1,0-0.2-0.1-0.2-0.2l0.1-4.6l-0.1-4.4c0-0.1,0.1-0.2,0.2-0.2h1.3c0.1,0,0.2,0.1,0.2,0.2
		l-0.1,1.6c0.6-1.2,1.9-1.8,3.2-1.8c0.2,0,0.4,0,0.5,0.1c0.1,0,0.2,0.1,0.2,0.2v1c0,0.1-0.1,0.2-0.2,0.2c-0.1,0-0.3,0-0.5,0
		c-1.5,0-2.9,0.9-3.1,3l0,4.9c0,0.1-0.1,0.2-0.2,0.2H39.9z"/>
	<path class="st1" d="M49.6,327.9c-2.8,0-4.4-1.9-4.4-4.8c0-2.9,1.6-4.9,4.4-4.9c2.8,0,4.4,1.9,4.4,4.8S52.4,327.9,49.6,327.9z
		 M49.6,326.7c1.8,0,2.7-1.3,2.7-3.6s-0.9-3.7-2.7-3.7c-1.8,0-2.7,1.4-2.7,3.7S47.8,326.7,49.6,326.7z"/>
	<path class="st1" d="M55.6,330.8c-0.1,0-0.2-0.1-0.2-0.2l0.1-5.9l-0.1-6.1c0-0.1,0.1-0.2,0.2-0.2h1.3c0.1,0,0.2,0.1,0.2,0.2
		l-0.1,6.1l0.1,5.9c0,0.1-0.1,0.2-0.2,0.2H55.6z M55.6,317.3c-0.1,0-0.2-0.1-0.2-0.2v-1.4c0-0.1,0.1-0.2,0.2-0.2h1.3
		c0.1,0,0.2,0.1,0.2,0.2v1.4c0,0.1-0.1,0.2-0.2,0.2H55.6z"/>
	<path class="st1" d="M66.2,327.9c-2.8,0-4.4-1.9-4.4-4.8c0-2.9,1.6-4.9,4.4-4.9c2.8,0,4.4,1.9,4.4,4.8S69,327.9,66.2,327.9z
		 M66.2,326.7c1.8,0,2.7-1.3,2.7-3.6s-0.9-3.7-2.7-3.7c-1.8,0-2.7,1.4-2.7,3.7S64.4,326.7,66.2,326.7z"/>
	<path class="st1" d="M76.5,327.9c-1.3,0-2.3-0.6-2.9-1.6l0,1.2c0,0.1-0.1,0.2-0.2,0.2h-1.3c-0.1,0-0.2-0.1-0.2-0.2l0.1-6.7
		l-0.1-5.5c0-0.1,0.1-0.2,0.2-0.2h1.3c0.1,0,0.2,0.1,0.2,0.2l0,4.6c0.6-1,1.6-1.6,3-1.6c2.5,0,3.8,2.1,3.8,4.8
		C80.4,325.7,78.9,327.9,76.5,327.9z M76.1,326.6c1.8,0,2.6-1.4,2.6-3.5c0-2.2-0.8-3.7-2.6-3.7c-1.6,0-2.6,1.2-2.6,3.5
		C73.5,325.3,74.4,326.6,76.1,326.6z"/>
	<path class="st1" d="M82,327.7c-0.1,0-0.2-0.1-0.2-0.2l0.1-4.6l-0.1-4.3c0-0.1,0.1-0.2,0.2-0.2h1.3c0.1,0,0.2,0.1,0.2,0.2l-0.1,4.3
		l0.1,4.6c0,0.1-0.1,0.2-0.2,0.2H82z M82,317.3c-0.1,0-0.2-0.1-0.2-0.2v-1.4c0-0.1,0.1-0.2,0.2-0.2h1.3c0.1,0,0.2,0.1,0.2,0.2v1.4
		c0,0.1-0.1,0.2-0.2,0.2H82z"/>
	<path class="st1" d="M89.9,327.4c0,0.1-0.1,0.2-0.2,0.2c-0.4,0.1-0.8,0.2-1.2,0.2c-1.4,0-2.5-0.7-2.5-2.7v-5.4h-1
		c-0.1,0-0.2-0.1-0.2-0.2v-0.9c0-0.1,0.1-0.2,0.2-0.2h1l0-2.1c0-0.1,0.1-0.2,0.2-0.2h1.3c0.1,0,0.2,0.1,0.2,0.2l0,2.1h2.1
		c0.1,0,0.2,0.1,0.2,0.2v0.9c0,0.1-0.1,0.2-0.2,0.2h-2.1v5.4c0,1.1,0.4,1.5,1.2,1.5c0.3,0,0.7-0.1,0.9-0.1c0.1,0,0.2,0,0.2,0.1
		V327.4z"/>
	<path class="st1" d="M98.7,324.5c0.1,0,0.2,0.1,0.2,0.2c-0.3,1.9-1.7,3.3-4.1,3.3c-2.9,0-4.4-2-4.4-4.8c0-2.9,1.7-4.9,4.3-4.9
		s4.3,1.8,4.3,4.9c0,0.1-0.1,0.2-0.2,0.2h-6.8c0.1,2.2,1,3.4,2.8,3.4c1.4,0,2.2-0.7,2.5-2.1c0-0.1,0.1-0.2,0.2-0.2H98.7z
		 M94.8,319.4c-1.5,0-2.4,1-2.6,2.7h5.2C97.3,320.7,96.4,319.4,94.8,319.4z"/>
	<path class="st1" d="M100.7,327.7c-0.1,0-0.2-0.1-0.2-0.2l0.1-6.2l-0.1-6c0-0.1,0.1-0.2,0.2-0.2h1.3c0.1,0,0.2,0.1,0.2,0.2l-0.1,6
		l0.1,6.2c0,0.1-0.1,0.2-0.2,0.2H100.7z"/>
	<path class="st1" d="M104.2,330.8c-0.1,0-0.2-0.1-0.2-0.2l0.1-5.9l-0.1-6.1c0-0.1,0.1-0.2,0.2-0.2h1.3c0.1,0,0.2,0.1,0.2,0.2
		l-0.1,6.1l0.1,5.9c0,0.1-0.1,0.2-0.2,0.2H104.2z M104.3,317.3c-0.1,0-0.2-0.1-0.2-0.2v-1.4c0-0.1,0.1-0.2,0.2-0.2h1.3
		c0.1,0,0.2,0.1,0.2,0.2v1.4c0,0.1-0.1,0.2-0.2,0.2H104.3z"/>
	<path class="st1" d="M111.3,327.9c-2.4,0-4.1-1.1-4.2-3.2c0-0.1,0.1-0.2,0.2-0.2h1.2c0.1,0,0.2,0.1,0.2,0.2c0.1,1.5,1,2.1,2.6,2.1
		c1.4,0,2.3-0.6,2.3-1.6c0-2.4-6.3-0.5-6.3-4.2c0-1.8,1.5-2.7,3.7-2.7c2.1,0,3.7,0.9,3.9,2.8c0,0.1-0.1,0.2-0.2,0.2h-1.2
		c-0.1,0-0.2-0.1-0.2-0.2c-0.1-1.2-1-1.7-2.3-1.7c-1.3,0-2.1,0.5-2.1,1.5c0,2.3,6.3,0.3,6.3,4.2
		C115.2,326.8,113.5,327.9,111.3,327.9z"/>
	<path class="st1" d="M121.3,326.2l-2-3.2l-1.2,1.3l0,3.2c0,0.1-0.1,0.2-0.2,0.2h-1.3c-0.1,0-0.2-0.1-0.2-0.2l0.1-6.1l-0.1-6.2
		c0-0.1,0.1-0.2,0.2-0.2h1.3c0.1,0,0.2,0.1,0.2,0.2l-0.1,6.1v1l3.5-3.9c0.1-0.1,0.2-0.1,0.3-0.1h1.5c0.1,0,0.1,0.1,0.1,0.1l-3,3.3
		l3.4,5.7c0,0.1,0,0.2-0.1,0.2h-1.5c-0.1,0-0.2-0.1-0.3-0.2L121.3,326.2z"/>
	<path class="st1" d="M128.4,327.9c-2.8,0-4.4-1.9-4.4-4.8c0-2.9,1.6-4.9,4.4-4.9c2.8,0,4.4,1.9,4.4,4.8S131.2,327.9,128.4,327.9z
		 M128.4,326.7c1.8,0,2.7-1.3,2.7-3.6s-0.9-3.7-2.7-3.7c-1.8,0-2.7,1.4-2.7,3.7S126.5,326.7,128.4,326.7z"/>
	<path class="st1" d="M138.1,331.2c-2.1,0-3.8-0.9-4-2.8c0-0.1,0.1-0.2,0.2-0.2h1.3c0.1,0,0.2,0.1,0.2,0.2c0.2,1.1,1.1,1.7,2.4,1.7
		c1.6,0,2.6-0.9,2.6-3v-1c-0.6,1-1.6,1.6-2.9,1.6c-2.6,0-4-2-4-4.6c0-2.6,1.4-4.8,3.9-4.8c1.3,0,2.3,0.6,2.9,1.6l-0.1-1.3
		c0-0.1,0.1-0.2,0.2-0.2h1.3c0.1,0,0.2,0.1,0.2,0.2l0,3.5l0,4.9C142.2,329.7,140.7,331.2,138.1,331.2z M138.1,326.5
		c1.5,0,2.5-1.1,2.5-3.4c0-2.2-0.8-3.5-2.3-3.6c-0.1,0-0.3,0-0.4,0c-1.6,0.1-2.4,1.4-2.4,3.5C135.4,325.2,136.3,326.5,138.1,326.5z"
		/>
	<path class="st1" d="M147.5,327.7c-0.1,0-0.2-0.1-0.2-0.2l0.1-6.2l-0.1-6c0-0.1,0.1-0.2,0.2-0.2h1.3c0.1,0,0.2,0.1,0.2,0.2l-0.1,6
		l0.1,6.2c0,0.1-0.1,0.2-0.2,0.2H147.5z"/>
	<path class="st1" d="M151,327.7c-0.1,0-0.2-0.1-0.2-0.2l0.1-4.6l-0.1-4.3c0-0.1,0.1-0.2,0.2-0.2h1.3c0.1,0,0.2,0.1,0.2,0.2
		l-0.1,4.3l0.1,4.6c0,0.1-0.1,0.2-0.2,0.2H151z M151.1,317.3c-0.1,0-0.2-0.1-0.2-0.2v-1.4c0-0.1,0.1-0.2,0.2-0.2h1.3
		c0.1,0,0.2,0.1,0.2,0.2v1.4c0,0.1-0.1,0.2-0.2,0.2H151.1z"/>
	<path class="st1" d="M154.6,330.8c-0.1,0-0.2-0.1-0.2-0.2l0.1-5.9l-0.1-6.1c0-0.1,0.1-0.2,0.2-0.2h1.3c0.1,0,0.2,0.1,0.2,0.2
		l-0.1,6.1l0.1,5.9c0,0.1-0.1,0.2-0.2,0.2H154.6z M154.6,317.3c-0.1,0-0.2-0.1-0.2-0.2v-1.4c0-0.1,0.1-0.2,0.2-0.2h1.3
		c0.1,0,0.2,0.1,0.2,0.2v1.4c0,0.1-0.1,0.2-0.2,0.2H154.6z"/>
	<path class="st1" d="M165.9,324.5c0.1,0,0.2,0.1,0.2,0.2c-0.3,1.9-1.7,3.3-4.1,3.3c-2.9,0-4.4-2-4.4-4.8c0-2.9,1.7-4.9,4.3-4.9
		s4.3,1.8,4.3,4.9c0,0.1-0.1,0.2-0.2,0.2h-6.8c0.1,2.2,1,3.4,2.8,3.4c1.4,0,2.2-0.7,2.5-2.1c0-0.1,0.1-0.2,0.2-0.2H165.9z
		 M161.9,319.4c-1.5,0-2.4,1-2.6,2.7h5.2C164.4,320.7,163.6,319.4,161.9,319.4z"/>
	<path class="st1" d="M171.6,327.9c-2.8,0-4.3-1.9-4.3-4.8s1.6-4.9,4.4-4.9c2.3,0,3.7,1.3,3.9,3.2c0,0.1-0.1,0.2-0.2,0.2h-1.2
		c-0.1,0-0.2-0.1-0.2-0.2c-0.2-1.4-1.2-2-2.4-2c-1.8,0-2.7,1.3-2.7,3.6c0,2.4,0.9,3.6,2.7,3.6c1.4,0,2.3-0.8,2.5-2.3
		c0-0.1,0.1-0.2,0.2-0.2h1.2c0.1,0,0.2,0.1,0.2,0.2C175.4,326.4,174,327.9,171.6,327.9z M172,317.3c-0.1,0.1-0.2,0.1-0.3,0.1h-0.4
		c-0.1,0-0.2,0-0.3-0.1l-2.3-1.4c-0.1-0.1-0.1-0.2-0.1-0.3l0.2-0.5c0-0.1,0.1-0.1,0.2-0.1l2.5,1.1l2.4-1.1c0.1,0,0.2,0,0.2,0.1
		l0.2,0.5c0,0.1,0,0.2-0.1,0.3L172,317.3z"/>
	<path class="st1" d="M177.1,327.7c-0.1,0-0.2-0.1-0.2-0.2l0.1-4.1l-0.1-4.9c0-0.1,0.1-0.2,0.2-0.2h1.2c0.1,0,0.2,0.1,0.2,0.2l0,1.4
		c0.6-0.9,1.6-1.8,3.1-1.8c1.9,0,3.1,1.3,3.1,3.7v1.9l0.1,3.8c0,0.1-0.1,0.2-0.2,0.2h-1.3c-0.1,0-0.2-0.1-0.2-0.2l0-3.8v-1.8
		c0-1.7-0.8-2.4-2-2.4c-1.2,0-2.2,1-2.6,2.8v1.4l0,3.8c0,0.1-0.1,0.2-0.2,0.2H177.1z"/>
	<path class="st1" d="M186.6,327.7c-0.1,0-0.2-0.1-0.2-0.2l0.1-4.6l-0.1-4.3c0-0.1,0.1-0.2,0.2-0.2h1.3c0.1,0,0.2,0.1,0.2,0.2
		l-0.1,4.3l0.1,4.6c0,0.1-0.1,0.2-0.2,0.2H186.6z M186.7,317.3c-0.1,0-0.2-0.1-0.2-0.2v-1.4c0-0.1,0.1-0.2,0.2-0.2h1.3
		c0.1,0,0.2,0.1,0.2,0.2v1.4c0,0.1-0.1,0.2-0.2,0.2H186.7z"/>
	<path class="st1" d="M194.7,326.2l-2-3.2l-1.2,1.3l0,3.2c0,0.1-0.1,0.2-0.2,0.2h-1.3c-0.1,0-0.2-0.1-0.2-0.2l0.1-6.1l-0.1-6.2
		c0-0.1,0.1-0.2,0.2-0.2h1.3c0.1,0,0.2,0.1,0.2,0.2l-0.1,6.1v1l3.5-3.9c0.1-0.1,0.2-0.1,0.3-0.1h1.5c0.1,0,0.1,0.1,0.1,0.1l-3,3.3
		l3.4,5.7c0,0.1,0,0.2-0.1,0.2h-1.5c-0.1,0-0.2-0.1-0.3-0.2L194.7,326.2z"/>
	<path class="st1" d="M204.3,327.7c-0.1,0-0.2-0.1-0.2-0.2l0-1.3c-0.6,1-1.6,1.7-3,1.7c-2.5,0-3.8-2.1-3.8-4.8s1.4-4.8,3.9-4.8
		c1.3,0,2.3,0.6,2.9,1.6l0-1.2c0-0.1,0.1-0.2,0.2-0.2h1.3c0.1,0,0.2,0.1,0.2,0.2l-0.1,4.4l0.1,4.5c0,0.1-0.1,0.2-0.2,0.2H204.3z
		 M201.6,326.7c1.6,0,2.6-1.2,2.6-3.5c0-2.2-0.8-3.5-2.3-3.7c-0.1,0-0.3,0-0.4,0c-1.7,0.1-2.4,1.5-2.4,3.5
		C199,325.2,199.8,326.7,201.6,326.7z"/>
</g>
<g>
	<rect x="468.2" y="315.1" class="st2" width="247.4" height="111.8"/>
	<path class="st1" d="M489.5,324.2c-0.1,0-0.2-0.1-0.2-0.2v-3.5c0-0.1,0.1-0.2,0.2-0.2h3.2c0.1,0,0.2,0.1,0.2,0.2v3.5
		c0,0.1-0.1,0.2-0.2,0.2H489.5z"/>
	<path class="st1" d="M508.9,327.9c-1.3,0-2.3-0.6-2.9-1.6l0,1.2c0,0.1-0.1,0.2-0.2,0.2h-1.3c-0.1,0-0.2-0.1-0.2-0.2l0.1-6.7
		l-0.1-5.5c0-0.1,0.1-0.2,0.2-0.2h1.3c0.1,0,0.2,0.1,0.2,0.2l0,4.6c0.6-1,1.6-1.6,3-1.6c2.5,0,3.8,2.1,3.8,4.8
		C512.7,325.7,511.3,327.9,508.9,327.9z M508.5,326.6c1.8,0,2.6-1.4,2.6-3.5c0-2.2-0.8-3.7-2.6-3.7c-1.6,0-2.6,1.2-2.6,3.5
		C505.9,325.3,506.8,326.6,508.5,326.6z"/>
	<path class="st1" d="M514.3,327.7c-0.1,0-0.2-0.1-0.2-0.2l0.1-4.6l-0.1-4.4c0-0.1,0.1-0.2,0.2-0.2h1.3c0.1,0,0.2,0.1,0.2,0.2
		l-0.1,1.6c0.6-1.2,1.9-1.8,3.2-1.8c0.2,0,0.4,0,0.5,0.1c0.1,0,0.2,0.1,0.2,0.2v1c0,0.1-0.1,0.2-0.2,0.2c-0.1,0-0.3,0-0.5,0
		c-1.5,0-2.9,0.9-3.1,3l0,4.9c0,0.1-0.1,0.2-0.2,0.2H514.3z"/>
	<path class="st1" d="M524,327.9c-2.8,0-4.4-1.9-4.4-4.8c0-2.9,1.6-4.9,4.4-4.9c2.8,0,4.4,1.9,4.4,4.8S526.8,327.9,524,327.9z
		 M524,326.7c1.8,0,2.7-1.3,2.7-3.6s-0.9-3.7-2.7-3.7c-1.8,0-2.7,1.4-2.7,3.7S522.2,326.7,524,326.7z"/>
	<path class="st1" d="M530,330.8c-0.1,0-0.2-0.1-0.2-0.2l0.1-5.9l-0.1-6.1c0-0.1,0.1-0.2,0.2-0.2h1.3c0.1,0,0.2,0.1,0.2,0.2
		l-0.1,6.1l0.1,5.9c0,0.1-0.1,0.2-0.2,0.2H530z M530,317.3c-0.1,0-0.2-0.1-0.2-0.2v-1.4c0-0.1,0.1-0.2,0.2-0.2h1.3
		c0.1,0,0.2,0.1,0.2,0.2v1.4c0,0.1-0.1,0.2-0.2,0.2H530z"/>
	<path class="st1" d="M536.8,327.7c-0.1,0-0.2-0.1-0.2-0.2l0.1-4.6l-0.1-4.4c0-0.1,0.1-0.2,0.2-0.2h1.3c0.1,0,0.2,0.1,0.2,0.2
		l-0.1,1.6c0.6-1.2,1.9-1.8,3.2-1.8c0.2,0,0.4,0,0.5,0.1c0.1,0,0.2,0.1,0.2,0.2v1c0,0.1-0.1,0.2-0.2,0.2c-0.1,0-0.3,0-0.5,0
		c-1.5,0-2.9,0.9-3.1,3l0,4.9c0,0.1-0.1,0.2-0.2,0.2H536.8z"/>
	<path class="st1" d="M546.5,327.9c-2.8,0-4.4-1.9-4.4-4.8c0-2.9,1.6-4.9,4.4-4.9c2.8,0,4.4,1.9,4.4,4.8S549.3,327.9,546.5,327.9z
		 M546.5,326.7c1.8,0,2.7-1.3,2.7-3.6s-0.9-3.7-2.7-3.7c-1.8,0-2.7,1.4-2.7,3.7S544.7,326.7,546.5,326.7z"/>
	<path class="st1" d="M558.9,327.7c-0.1,0-0.2-0.1-0.2-0.2l0-1.3c-0.6,1-1.6,1.7-3,1.7c-2.5,0-3.8-2.1-3.8-4.8
		c0-2.7,1.4-4.8,3.9-4.8c1.3,0,2.3,0.5,2.9,1.6l0-4.5c0-0.1,0.1-0.2,0.2-0.2h1.3c0.1,0,0.2,0.1,0.2,0.2l-0.1,5.4l0.1,6.8
		c0,0.1-0.1,0.2-0.2,0.2H558.9z M556.2,326.7c1.6,0,2.6-1.2,2.6-3.5c0-2.3-0.9-3.7-2.6-3.7c-1.8,0-2.6,1.5-2.6,3.5
		C553.6,325.2,554.4,326.7,556.2,326.7z"/>
	<path class="st1" d="M562.3,327.7c-0.1,0-0.2-0.1-0.2-0.2l0.1-4.6l-0.1-4.3c0-0.1,0.1-0.2,0.2-0.2h1.3c0.1,0,0.2,0.1,0.2,0.2
		l-0.1,4.3l0.1,4.6c0,0.1-0.1,0.2-0.2,0.2H562.3z M562.3,317.3c-0.1,0-0.2-0.1-0.2-0.2v-1.4c0-0.1,0.1-0.2,0.2-0.2h1.3
		c0.1,0,0.2,0.1,0.2,0.2v1.4c0,0.1-0.1,0.2-0.2,0.2H562.3z"/>
	<path class="st1" d="M570.3,327.4c0,0.1-0.1,0.2-0.2,0.2c-0.4,0.1-0.8,0.2-1.2,0.2c-1.4,0-2.5-0.7-2.5-2.7v-5.4h-1
		c-0.1,0-0.2-0.1-0.2-0.2v-0.9c0-0.1,0.1-0.2,0.2-0.2h1l0-2.1c0-0.1,0.1-0.2,0.2-0.2h1.3c0.1,0,0.2,0.1,0.2,0.2l0,2.1h2.1
		c0.1,0,0.2,0.1,0.2,0.2v0.9c0,0.1-0.1,0.2-0.2,0.2H568v5.4c0,1.1,0.4,1.5,1.2,1.5c0.3,0,0.7-0.1,0.9-0.1c0.1,0,0.2,0,0.2,0.1V327.4
		z"/>
	<path class="st1" d="M579.1,324.5c0.1,0,0.2,0.1,0.2,0.2c-0.3,1.9-1.7,3.3-4.1,3.3c-2.9,0-4.4-2-4.4-4.8c0-2.9,1.7-4.9,4.3-4.9
		s4.3,1.8,4.3,4.9c0,0.1-0.1,0.2-0.2,0.2h-6.8c0.1,2.2,1,3.4,2.8,3.4c1.4,0,2.2-0.7,2.5-2.1c0-0.1,0.1-0.2,0.2-0.2H579.1z
		 M575.1,319.4c-1.5,0-2.4,1-2.6,2.7h5.2C577.6,320.7,576.7,319.4,575.1,319.4z"/>
	<path class="st1" d="M581,327.7c-0.1,0-0.2-0.1-0.2-0.2l0.1-6.2l-0.1-6c0-0.1,0.1-0.2,0.2-0.2h1.3c0.1,0,0.2,0.1,0.2,0.2l-0.1,6
		l0.1,6.2c0,0.1-0.1,0.2-0.2,0.2H581z"/>
	<path class="st1" d="M584.6,330.8c-0.1,0-0.2-0.1-0.2-0.2l0.1-5.9l-0.1-6.1c0-0.1,0.1-0.2,0.2-0.2h1.3c0.1,0,0.2,0.1,0.2,0.2
		l-0.1,6.1l0.1,5.9c0,0.1-0.1,0.2-0.2,0.2H584.6z M584.6,317.3c-0.1,0-0.2-0.1-0.2-0.2v-1.4c0-0.1,0.1-0.2,0.2-0.2h1.3
		c0.1,0,0.2,0.1,0.2,0.2v1.4c0,0.1-0.1,0.2-0.2,0.2H584.6z"/>
	<path class="st1" d="M594.5,327.7c-0.1,0-0.2-0.1-0.2-0.2l0-1.3c-0.6,1-1.6,1.7-3,1.7c-2.5,0-3.8-2.1-3.8-4.8s1.4-4.8,3.9-4.8
		c1.3,0,2.3,0.6,2.9,1.6l0-1.2c0-0.1,0.1-0.2,0.2-0.2h1.3c0.1,0,0.2,0.1,0.2,0.2l-0.1,4.4l0.1,4.5c0,0.1-0.1,0.2-0.2,0.2H594.5z
		 M591.8,326.7c1.6,0,2.6-1.2,2.6-3.5c0-2.2-0.8-3.5-2.3-3.7c-0.1,0-0.3,0-0.4,0c-1.7,0.1-2.4,1.5-2.4,3.5
		C589.2,325.2,590,326.7,591.8,326.7z"/>
	<path class="st1" d="M597.3,329.5c-0.1,0-0.2-0.1-0.1-0.2l0.4-1.6V326c0-0.1,0.1-0.2,0.2-0.2h1.3c0.1,0,0.2,0.1,0.2,0.2v1.5
		c0,0.1,0,0.2-0.1,0.3l-1,1.5c-0.1,0.1-0.2,0.1-0.3,0.1H597.3z"/>
	<path class="st1" d="M608.3,327.9c-1.3,0-2.3-0.6-2.9-1.6l0,1.2c0,0.1-0.1,0.2-0.2,0.2h-1.3c-0.1,0-0.2-0.1-0.2-0.2l0.1-6.7
		l-0.1-5.5c0-0.1,0.1-0.2,0.2-0.2h1.3c0.1,0,0.2,0.1,0.2,0.2l0,4.6c0.6-1,1.6-1.6,3-1.6c2.5,0,3.8,2.1,3.8,4.8
		C612.1,325.7,610.7,327.9,608.3,327.9z M607.9,326.6c1.8,0,2.6-1.4,2.6-3.5c0-2.2-0.8-3.7-2.6-3.7c-1.6,0-2.6,1.2-2.6,3.5
		C605.3,325.3,606.2,326.6,607.9,326.6z"/>
	<path class="st1" d="M620.1,327.7c-0.1,0-0.2-0.1-0.2-0.2l0-1.3c-0.6,1-1.6,1.7-3,1.7c-2.5,0-3.8-2.1-3.8-4.8s1.4-4.8,3.9-4.8
		c1.3,0,2.3,0.6,2.9,1.6l0-1.2c0-0.1,0.1-0.2,0.2-0.2h1.3c0.1,0,0.2,0.1,0.2,0.2l-0.1,4.4l0.1,4.5c0,0.1-0.1,0.2-0.2,0.2H620.1z
		 M617.4,326.7c1.6,0,2.6-1.2,2.6-3.5c0-2.2-0.8-3.5-2.3-3.7c-0.1,0-0.3,0-0.4,0c-1.7,0.1-2.4,1.5-2.4,3.5
		C614.9,325.2,615.7,326.7,617.4,326.7z"/>
	<path class="st1" d="M628,326.2l-2-3.2l-1.2,1.3l0,3.2c0,0.1-0.1,0.2-0.2,0.2h-1.3c-0.1,0-0.2-0.1-0.2-0.2l0.1-6.1l-0.1-6.2
		c0-0.1,0.1-0.2,0.2-0.2h1.3c0.1,0,0.2,0.1,0.2,0.2l-0.1,6.1v1l3.5-3.9c0.1-0.1,0.2-0.1,0.3-0.1h1.5c0.1,0,0.1,0.1,0.1,0.1l-3,3.3
		l3.4,5.7c0,0.1,0,0.2-0.1,0.2H629c-0.1,0-0.2-0.1-0.3-0.2L628,326.2z"/>
	<path class="st1" d="M639,324.5c0.1,0,0.2,0.1,0.2,0.2c-0.3,1.9-1.7,3.3-4.1,3.3c-2.9,0-4.4-2-4.4-4.8c0-2.9,1.7-4.9,4.3-4.9
		s4.3,1.8,4.3,4.9c0,0.1-0.1,0.2-0.2,0.2h-6.8c0.1,2.2,1,3.4,2.8,3.4c1.4,0,2.2-0.7,2.5-2.1c0-0.1,0.1-0.2,0.2-0.2H639z M635,319.4
		c-1.5,0-2.4,1-2.6,2.7h5.2C637.5,320.7,636.7,319.4,635,319.4z"/>
	<path class="st1" d="M640.1,329.5c-0.1,0-0.2-0.1-0.1-0.2l0.4-1.6V326c0-0.1,0.1-0.2,0.2-0.2h1.3c0.1,0,0.2,0.1,0.2,0.2v1.5
		c0,0.1,0,0.2-0.1,0.3l-1,1.5c-0.1,0.1-0.2,0.1-0.3,0.1H640.1z"/>
	<path class="st1" d="M653,327.7c-0.1,0-0.2-0.1-0.2-0.2l0-1.3c-0.6,1-1.6,1.7-3,1.7c-2.5,0-3.8-2.1-3.8-4.8c0-2.7,1.4-4.8,3.9-4.8
		c1.3,0,2.3,0.5,2.9,1.6l0-4.5c0-0.1,0.1-0.2,0.2-0.2h1.3c0.1,0,0.2,0.1,0.2,0.2l-0.1,5.4l0.1,6.8c0,0.1-0.1,0.2-0.2,0.2H653z
		 M650.3,326.7c1.6,0,2.6-1.2,2.6-3.5c0-2.3-0.9-3.7-2.6-3.7c-1.8,0-2.6,1.5-2.6,3.5C647.7,325.2,648.5,326.7,650.3,326.7z"/>
	<path class="st1" d="M656.4,330.8c-0.1,0-0.2-0.1-0.2-0.2l0.1-5.9l-0.1-6.1c0-0.1,0.1-0.2,0.2-0.2h1.3c0.1,0,0.2,0.1,0.2,0.2
		l-0.1,6.1l0.1,5.9c0,0.1-0.1,0.2-0.2,0.2H656.4z M656.4,317.3c-0.1,0-0.2-0.1-0.2-0.2v-1.4c0-0.1,0.1-0.2,0.2-0.2h1.3
		c0.1,0,0.2,0.1,0.2,0.2v1.4c0,0.1-0.1,0.2-0.2,0.2H656.4z"/>
	<path class="st1" d="M667.7,324.5c0.1,0,0.2,0.1,0.2,0.2c-0.3,1.9-1.7,3.3-4.1,3.3c-2.9,0-4.4-2-4.4-4.8c0-2.9,1.7-4.9,4.3-4.9
		s4.3,1.8,4.3,4.9c0,0.1-0.1,0.2-0.2,0.2H661c0.1,2.2,1,3.4,2.8,3.4c1.4,0,2.2-0.7,2.5-2.1c0-0.1,0.1-0.2,0.2-0.2H667.7z
		 M663.7,319.4c-1.5,0-2.4,1-2.6,2.7h5.2C666.2,320.7,665.4,319.4,663.7,319.4z"/>
	<path class="st1" d="M676,327.7c-0.1,0-0.2-0.1-0.2-0.2l0-1.3c-0.6,1-1.6,1.7-3,1.7c-2.5,0-3.8-2.1-3.8-4.8c0-2.7,1.4-4.8,3.9-4.8
		c1.3,0,2.3,0.5,2.9,1.6l0-4.5c0-0.1,0.1-0.2,0.2-0.2h1.3c0.1,0,0.2,0.1,0.2,0.2l-0.1,5.4l0.1,6.8c0,0.1-0.1,0.2-0.2,0.2H676z
		 M673.3,326.7c1.6,0,2.6-1.2,2.6-3.5c0-2.3-0.9-3.7-2.6-3.7c-1.8,0-2.6,1.5-2.6,3.5C670.7,325.2,671.6,326.7,673.3,326.7z"/>
	<path class="st1" d="M685.8,327.7c-0.1,0-0.2-0.1-0.2-0.2l0-1.3c-0.6,1-1.6,1.7-3,1.7c-2.5,0-3.8-2.1-3.8-4.8s1.4-4.8,3.9-4.8
		c1.3,0,2.3,0.6,2.9,1.6l0-1.2c0-0.1,0.1-0.2,0.2-0.2h1.3c0.1,0,0.2,0.1,0.2,0.2l-0.1,4.4l0.1,4.5c0,0.1-0.1,0.2-0.2,0.2H685.8z
		 M683.1,326.7c1.6,0,2.6-1.2,2.6-3.5c0-2.2-0.8-3.5-2.3-3.7c-0.1,0-0.3,0-0.4,0c-1.7,0.1-2.4,1.5-2.4,3.5
		C680.5,325.2,681.4,326.7,683.1,326.7z"/>
	<path class="st1" d="M692.6,327.7c-0.1,0-0.2-0.1-0.2-0.2l0.1-4.6l-0.1-4.3c0-0.1,0.1-0.2,0.2-0.2h1.3c0.1,0,0.2,0.1,0.2,0.2
		l-0.1,4.3l0.1,4.6c0,0.1-0.1,0.2-0.2,0.2H692.6z M692.6,317.3c-0.1,0-0.2-0.1-0.2-0.2v-1.4c0-0.1,0.1-0.2,0.2-0.2h1.3
		c0.1,0,0.2,0.1,0.2,0.2v1.4c0,0.1-0.1,0.2-0.2,0.2H692.6z"/>
	<path class="st1" d="M481,349.5c-2.8,0-4.3-1.9-4.3-4.8s1.6-4.9,4.4-4.9c2.3,0,3.7,1.3,3.9,3.2c0,0.1-0.1,0.2-0.2,0.2h-1.2
		c-0.1,0-0.2-0.1-0.2-0.2c-0.2-1.4-1.2-2-2.4-2c-1.8,0-2.7,1.3-2.7,3.6c0,2.4,0.9,3.6,2.7,3.6c1.4,0,2.3-0.8,2.5-2.3
		c0-0.1,0.1-0.2,0.2-0.2h1.2c0.1,0,0.2,0.1,0.2,0.2C484.8,348,483.4,349.5,481,349.5z M481.4,338.9c-0.1,0.1-0.2,0.1-0.3,0.1h-0.4
		c-0.1,0-0.2,0-0.3-0.1l-2.3-1.4c-0.1-0.1-0.1-0.2-0.1-0.3l0.2-0.5c0-0.1,0.1-0.1,0.2-0.1l2.5,1.1l2.4-1.1c0.1,0,0.2,0,0.2,0.1
		l0.2,0.5c0,0.1,0,0.2-0.1,0.3L481.4,338.9z"/>
	<path class="st1" d="M486.6,349.3c-0.1,0-0.2-0.1-0.2-0.2l0.1-6.2l-0.1-6c0-0.1,0.1-0.2,0.2-0.2h1.3c0.1,0,0.2,0.1,0.2,0.2l-0.1,6
		l0.1,6.2c0,0.1-0.1,0.2-0.2,0.2H486.6z"/>
	<path class="st1" d="M496.5,349.3c-0.1,0-0.2-0.1-0.2-0.2l0-1.3c-0.6,1-1.6,1.7-3,1.7c-2.5,0-3.8-2.1-3.8-4.8s1.4-4.8,3.9-4.8
		c1.3,0,2.3,0.6,2.9,1.6l0-1.2c0-0.1,0.1-0.2,0.2-0.2h1.3c0.1,0,0.2,0.1,0.2,0.2l-0.1,4.4l0.1,4.5c0,0.1-0.1,0.2-0.2,0.2H496.5z
		 M493.8,348.3c1.6,0,2.6-1.2,2.6-3.5c0-2.2-0.8-3.5-2.3-3.7c-0.1,0-0.3,0-0.4,0c-1.7,0.1-2.4,1.5-2.4,3.5
		C491.2,346.8,492,348.3,493.8,348.3z"/>
	<path class="st1" d="M499.9,349.3c-0.1,0-0.2-0.1-0.2-0.2l0.1-4.1l-0.1-4.9c0-0.1,0.1-0.2,0.2-0.2h1.2c0.1,0,0.2,0.1,0.2,0.2l0,1.4
		c0.6-0.9,1.6-1.8,3.1-1.8c1.9,0,3.1,1.3,3.1,3.7v1.9l0.1,3.8c0,0.1-0.1,0.2-0.2,0.2H506c-0.1,0-0.2-0.1-0.2-0.2l0-3.8v-1.8
		c0-1.7-0.8-2.4-2-2.4c-1.2,0-2.2,1-2.6,2.8v1.4l0,3.8c0,0.1-0.1,0.2-0.2,0.2H499.9z"/>
	<path class="st1" d="M513.2,349.5c-2.8,0-4.4-1.9-4.4-4.8c0-2.9,1.6-4.9,4.4-4.9c2.8,0,4.4,1.9,4.4,4.8S516,349.5,513.2,349.5z
		 M513.2,348.3c1.8,0,2.7-1.3,2.7-3.6s-0.9-3.7-2.7-3.7c-1.8,0-2.7,1.4-2.7,3.7S511.4,348.3,513.2,348.3z"/>
	<path class="st1" d="M523.1,349.2c0,0.1-0.1,0.2-0.2,0.2h-1.6c-0.1,0-0.2-0.1-0.2-0.2l-3.3-9c0-0.1,0-0.2,0.1-0.2h1.4
		c0.1,0,0.2,0.1,0.2,0.2l2.6,7.8l2.7-7.8c0-0.1,0.1-0.2,0.2-0.2h1.2c0.1,0,0.1,0.1,0.1,0.2L523.1,349.2z"/>
	<path class="st1" d="M533.5,349.3c-0.1,0-0.2-0.1-0.2-0.2l0-1.3c-0.6,1-1.6,1.7-3,1.7c-2.5,0-3.8-2.1-3.8-4.8s1.4-4.8,3.9-4.8
		c1.3,0,2.3,0.6,2.9,1.6l0-1.2c0-0.1,0.1-0.2,0.2-0.2h1.3c0.1,0,0.2,0.1,0.2,0.2l-0.1,4.4l0.1,4.5c0,0.1-0.1,0.2-0.2,0.2H533.5z
		 M530.8,348.3c1.6,0,2.6-1.2,2.6-3.5c0-2.2-0.8-3.5-2.3-3.7c-0.1,0-0.3,0-0.4,0c-1.7,0.1-2.4,1.5-2.4,3.5
		C528.2,346.8,529,348.3,530.8,348.3z"/>
	<path class="st1" d="M544,349.5c-2.8,0-4.4-1.9-4.4-4.8c0-2.9,1.6-4.9,4.4-4.9c2.8,0,4.4,1.9,4.4,4.8S546.8,349.5,544,349.5z
		 M544,348.3c1.8,0,2.7-1.3,2.7-3.6s-0.9-3.7-2.7-3.7c-1.8,0-2.7,1.4-2.7,3.7S542.1,348.3,544,348.3z"/>
	<path class="st1" d="M554.3,349.5c-1.3,0-2.3-0.6-2.9-1.6l0,1.2c0,0.1-0.1,0.2-0.2,0.2h-1.3c-0.1,0-0.2-0.1-0.2-0.2l0.1-6.7
		l-0.1-5.5c0-0.1,0.1-0.2,0.2-0.2h1.3c0.1,0,0.2,0.1,0.2,0.2l0,4.6c0.6-1,1.6-1.6,3-1.6c2.5,0,3.8,2.1,3.8,4.8
		C558.1,347.3,556.7,349.5,554.3,349.5z M553.9,348.2c1.8,0,2.6-1.4,2.6-3.5c0-2.2-0.8-3.7-2.6-3.7c-1.6,0-2.6,1.2-2.6,3.5
		C551.3,346.9,552.2,348.2,553.9,348.2z"/>
	<path class="st1" d="M559.8,349.3c-0.1,0-0.2-0.1-0.2-0.2l0.1-4.6l-0.1-4.3c0-0.1,0.1-0.2,0.2-0.2h1.3c0.1,0,0.2,0.1,0.2,0.2
		l-0.1,4.3l0.1,4.6c0,0.1-0.1,0.2-0.2,0.2H559.8z M559.8,338.9c-0.1,0-0.2-0.1-0.2-0.2v-1.4c0-0.1,0.1-0.2,0.2-0.2h1.3
		c0.1,0,0.2,0.1,0.2,0.2v1.4c0,0.1-0.1,0.2-0.2,0.2H559.8z"/>
	<path class="st1" d="M567.7,349c0,0.1-0.1,0.2-0.2,0.2c-0.4,0.1-0.8,0.2-1.2,0.2c-1.4,0-2.5-0.7-2.5-2.7v-5.4h-1
		c-0.1,0-0.2-0.1-0.2-0.2v-0.9c0-0.1,0.1-0.2,0.2-0.2h1l0-2.1c0-0.1,0.1-0.2,0.2-0.2h1.3c0.1,0,0.2,0.1,0.2,0.2l0,2.1h2.1
		c0.1,0,0.2,0.1,0.2,0.2v0.9c0,0.1-0.1,0.2-0.2,0.2h-2.1v5.4c0,1.1,0.4,1.5,1.2,1.5c0.3,0,0.7-0.1,0.9-0.1c0.1,0,0.2,0,0.2,0.1V349z
		"/>
	<path class="st1" d="M576.5,346.1c0.1,0,0.2,0.1,0.2,0.2c-0.3,1.9-1.7,3.3-4.1,3.3c-2.9,0-4.4-2-4.4-4.8c0-2.9,1.7-4.9,4.3-4.9
		s4.3,1.8,4.3,4.9c0,0.1-0.1,0.2-0.2,0.2h-6.8c0.1,2.2,1,3.4,2.8,3.4c1.4,0,2.2-0.7,2.5-2.1c0-0.1,0.1-0.2,0.2-0.2H576.5z
		 M572.5,341c-1.5,0-2.4,1-2.6,2.7h5.2C575,342.3,574.2,341,572.5,341z"/>
	<path class="st1" d="M578.5,349.3c-0.1,0-0.2-0.1-0.2-0.2l0.1-6.2l-0.1-6c0-0.1,0.1-0.2,0.2-0.2h1.3c0.1,0,0.2,0.1,0.2,0.2l-0.1,6
		l0.1,6.2c0,0.1-0.1,0.2-0.2,0.2H578.5z"/>
	<path class="st1" d="M582,352.4c-0.1,0-0.2-0.1-0.2-0.2l0.1-5.9l-0.1-6.1c0-0.1,0.1-0.2,0.2-0.2h1.3c0.1,0,0.2,0.1,0.2,0.2
		l-0.1,6.1l0.1,5.9c0,0.1-0.1,0.2-0.2,0.2H582z M582,338.9c-0.1,0-0.2-0.1-0.2-0.2v-1.4c0-0.1,0.1-0.2,0.2-0.2h1.3
		c0.1,0,0.2,0.1,0.2,0.2v1.4c0,0.1-0.1,0.2-0.2,0.2H582z"/>
	<path class="st1" d="M585.6,349.3c-0.1,0-0.2-0.1-0.2-0.2l0.1-4.6l-0.1-4.3c0-0.1,0.1-0.2,0.2-0.2h1.3c0.1,0,0.2,0.1,0.2,0.2
		l-0.1,4.3l0.1,4.6c0,0.1-0.1,0.2-0.2,0.2H585.6z M585.6,338.9c-0.1,0-0.2-0.1-0.2-0.2v-1.4c0-0.1,0.1-0.2,0.2-0.2h1.3
		c0.1,0,0.2,0.1,0.2,0.2v1.4c0,0.1-0.1,0.2-0.2,0.2H585.6z"/>
	<path class="st1" d="M597,347.8l-2-3.2l-1.2,1.3l0,3.2c0,0.1-0.1,0.2-0.2,0.2h-1.3c-0.1,0-0.2-0.1-0.2-0.2l0.1-6.1l-0.1-6.2
		c0-0.1,0.1-0.2,0.2-0.2h1.3c0.1,0,0.2,0.1,0.2,0.2l-0.1,6.1v1l3.5-3.9c0.1-0.1,0.2-0.1,0.3-0.1h1.5c0.1,0,0.1,0.1,0.1,0.1l-3,3.3
		l3.4,5.7c0,0.1,0,0.2-0.1,0.2H598c-0.1,0-0.2-0.1-0.3-0.2L597,347.8z"/>
	<path class="st1" d="M604,349.5c-2.8,0-4.4-1.9-4.4-4.8c0-2.9,1.6-4.9,4.4-4.9c2.8,0,4.4,1.9,4.4,4.8S606.8,349.5,604,349.5z
		 M604,348.3c1.8,0,2.7-1.3,2.7-3.6s-0.9-3.7-2.7-3.7c-1.8,0-2.7,1.4-2.7,3.7S602.2,348.3,604,348.3z"/>
	<path class="st1" d="M610,352.4c-0.1,0-0.2-0.1-0.2-0.2l0.1-5.9l-0.1-6.1c0-0.1,0.1-0.2,0.2-0.2h1.3c0.1,0,0.2,0.1,0.2,0.2
		l-0.1,6.1l0.1,5.9c0,0.1-0.1,0.2-0.2,0.2H610z M610.1,338.9c-0.1,0-0.2-0.1-0.2-0.2v-1.4c0-0.1,0.1-0.2,0.2-0.2h1.3
		c0.1,0,0.2,0.1,0.2,0.2v1.4c0,0.1-0.1,0.2-0.2,0.2H610.1z"/>
	<path class="st1" d="M613.6,349.3c-0.1,0-0.2-0.1-0.2-0.2l0.1-4.6l-0.1-4.3c0-0.1,0.1-0.2,0.2-0.2h1.3c0.1,0,0.2,0.1,0.2,0.2
		l-0.1,4.3l0.1,4.6c0,0.1-0.1,0.2-0.2,0.2H613.6z M613.6,338.9c-0.1,0-0.2-0.1-0.2-0.2v-1.4c0-0.1,0.1-0.2,0.2-0.2h1.3
		c0.1,0,0.2,0.1,0.2,0.2v1.4c0,0.1-0.1,0.2-0.2,0.2H613.6z"/>
	<path class="st1" d="M618.6,345.7l0.1,3.4c0,0.1-0.1,0.2-0.2,0.2h-1.4c-0.1,0-0.2-0.1-0.2-0.2l0.1-3.4l-0.1-5.5
		c0-0.1,0.1-0.2,0.2-0.2h1.3c0.1,0,0.2,0.1,0.2,0.2l0,1.4c0.6-1,1.5-1.8,2.9-1.8c1.3,0,2.3,0.6,2.7,1.9c0.6-1.3,1.6-1.9,2.9-1.9
		c1.8,0,2.9,1.2,2.9,3.7v2.2l0,3.4c0,0.1-0.1,0.2-0.2,0.2h-1.3c-0.1,0-0.2-0.1-0.2-0.2l0.1-3.4v-2.1c0-1.7-0.7-2.4-1.8-2.4
		c-1,0-1.8,0.9-2.2,2.4v2.1l0.1,3.4c0,0.1-0.1,0.2-0.2,0.2h-1.3c-0.1,0-0.2-0.1-0.2-0.2l0.1-3.4v-2.1c0-1.7-0.7-2.4-1.8-2.4
		s-2,1-2.3,2.8V345.7z"/>
	<path class="st1" d="M638.1,349.3c-0.1,0-0.2-0.1-0.2-0.2l0-1.3c-0.6,1-1.6,1.7-3,1.7c-2.5,0-3.8-2.1-3.8-4.8s1.4-4.8,3.9-4.8
		c1.3,0,2.3,0.6,2.9,1.6l0-1.2c0-0.1,0.1-0.2,0.2-0.2h1.3c0.1,0,0.2,0.1,0.2,0.2l-0.1,4.4l0.1,4.5c0,0.1-0.1,0.2-0.2,0.2H638.1z
		 M635.4,348.3c1.6,0,2.6-1.2,2.6-3.5c0-2.2-0.8-3.5-2.3-3.7c-0.1,0-0.3,0-0.4,0c-1.7,0.1-2.4,1.5-2.4,3.5
		C632.9,346.8,633.7,348.3,635.4,348.3z"/>
	<path class="st1" d="M648.5,349.5c-2.4,0-4.1-1.1-4.2-3.2c0-0.1,0.1-0.2,0.2-0.2h1.2c0.1,0,0.2,0.1,0.2,0.2c0.1,1.5,1,2.1,2.6,2.1
		c1.4,0,2.3-0.6,2.3-1.6c0-2.4-6.3-0.5-6.3-4.2c0-1.8,1.5-2.7,3.7-2.7c2.1,0,3.7,0.9,3.9,2.8c0,0.1-0.1,0.2-0.2,0.2h-1.2
		c-0.1,0-0.2-0.1-0.2-0.2c-0.1-1.2-1-1.7-2.3-1.7c-1.3,0-2.1,0.5-2.1,1.5c0,2.3,6.3,0.3,6.3,4.2
		C652.3,348.4,650.6,349.5,648.5,349.5z"/>
	<path class="st1" d="M661.7,346.1c0.1,0,0.2,0.1,0.2,0.2c-0.3,1.9-1.7,3.3-4.1,3.3c-2.9,0-4.4-2-4.4-4.8c0-2.9,1.7-4.9,4.3-4.9
		s4.3,1.8,4.3,4.9c0,0.1-0.1,0.2-0.2,0.2H655c0.1,2.2,1,3.4,2.8,3.4c1.4,0,2.2-0.7,2.5-2.1c0-0.1,0.1-0.2,0.2-0.2H661.7z M657.7,341
		c-1.5,0-2.4,1-2.6,2.7h5.2C660.2,342.3,659.3,341,657.7,341z"/>
	<path class="st1" d="M673,349.3c-0.1,0-0.2-0.1-0.2-0.2l0-1.3c-0.6,1-1.6,1.7-3,1.7c-2.5,0-3.8-2.1-3.8-4.8c0-2.7,1.4-4.8,3.9-4.8
		c1.3,0,2.3,0.5,2.9,1.6l0-4.5c0-0.1,0.1-0.2,0.2-0.2h1.3c0.1,0,0.2,0.1,0.2,0.2l-0.1,5.4l0.1,6.8c0,0.1-0.1,0.2-0.2,0.2H673z
		 M670.3,348.3c1.6,0,2.6-1.2,2.6-3.5c0-2.3-0.9-3.7-2.6-3.7c-1.8,0-2.6,1.5-2.6,3.5C667.8,346.8,668.6,348.3,670.3,348.3z"/>
	<path class="st1" d="M676.5,352.4c-0.1,0-0.2-0.1-0.2-0.2l0.1-5.9l-0.1-6.1c0-0.1,0.1-0.2,0.2-0.2h1.3c0.1,0,0.2,0.1,0.2,0.2
		l-0.1,6.1l0.1,5.9c0,0.1-0.1,0.2-0.2,0.2H676.5z M676.5,338.9c-0.1,0-0.2-0.1-0.2-0.2v-1.4c0-0.1,0.1-0.2,0.2-0.2h1.3
		c0.1,0,0.2,0.1,0.2,0.2v1.4c0,0.1-0.1,0.2-0.2,0.2H676.5z"/>
	<path class="st1" d="M687.8,346.1c0.1,0,0.2,0.1,0.2,0.2c-0.3,1.9-1.7,3.3-4.1,3.3c-2.9,0-4.4-2-4.4-4.8c0-2.9,1.7-4.9,4.3-4.9
		s4.3,1.8,4.3,4.9c0,0.1-0.1,0.2-0.2,0.2h-6.8c0.1,2.2,1,3.4,2.8,3.4c1.4,0,2.2-0.7,2.5-2.1c0-0.1,0.1-0.2,0.2-0.2H687.8z
		 M683.8,341c-1.5,0-2.4,1-2.6,2.7h5.2C686.3,342.3,685.4,341,683.8,341z"/>
	<path class="st1" d="M693.5,349.5c-2.8,0-4.3-1.9-4.3-4.8s1.6-4.9,4.4-4.9c2.3,0,3.7,1.3,3.9,3.2c0,0.1-0.1,0.2-0.2,0.2h-1.2
		c-0.1,0-0.2-0.1-0.2-0.2c-0.2-1.4-1.2-2-2.4-2c-1.8,0-2.7,1.3-2.7,3.6c0,2.4,0.9,3.6,2.7,3.6c1.4,0,2.3-0.8,2.5-2.3
		c0-0.1,0.1-0.2,0.2-0.2h1.2c0.1,0,0.2,0.1,0.2,0.2C697.3,348,695.8,349.5,693.5,349.5z"/>
	<path class="st1" d="M705.4,349.3c-0.1,0-0.2-0.1-0.2-0.2l0-1.3c-0.6,1-1.6,1.7-3,1.7c-2.5,0-3.8-2.1-3.8-4.8s1.4-4.8,3.9-4.8
		c1.3,0,2.3,0.6,2.9,1.6l0-1.2c0-0.1,0.1-0.2,0.2-0.2h1.3c0.1,0,0.2,0.1,0.2,0.2l-0.1,4.4l0.1,4.5c0,0.1-0.1,0.2-0.2,0.2H705.4z
		 M702.7,348.3c1.6,0,2.6-1.2,2.6-3.5c0-2.2-0.8-3.5-2.3-3.7c-0.1,0-0.3,0-0.4,0c-1.7,0.1-2.4,1.5-2.4,3.5
		C700.1,346.8,701,348.3,702.7,348.3z"/>
	<path class="st1" d="M484.1,367.3l0.1,3.4c0,0.1-0.1,0.2-0.2,0.2h-1.4c-0.1,0-0.2-0.1-0.2-0.2l0.1-3.4l-0.1-5.5
		c0-0.1,0.1-0.2,0.2-0.2h1.3c0.1,0,0.2,0.1,0.2,0.2l0,1.4c0.6-1,1.5-1.8,2.9-1.8c1.3,0,2.3,0.6,2.7,1.9c0.6-1.3,1.6-1.9,2.9-1.9
		c1.8,0,2.9,1.2,2.9,3.7v2.2l0,3.4c0,0.1-0.1,0.2-0.2,0.2h-1.3c-0.1,0-0.2-0.1-0.2-0.2l0.1-3.4v-2.1c0-1.7-0.7-2.4-1.8-2.4
		c-1,0-1.8,0.9-2.2,2.4v2.1l0.1,3.4c0,0.1-0.1,0.2-0.2,0.2h-1.3c-0.1,0-0.2-0.1-0.2-0.2l0.1-3.4v-2.1c0-1.7-0.7-2.4-1.8-2.4
		c-1.1,0-2,1-2.3,2.8V367.3z"/>
	<path class="st1" d="M501.1,371.1c-2.8,0-4.4-1.9-4.4-4.8c0-2.9,1.6-4.9,4.4-4.9c2.8,0,4.4,1.9,4.4,4.8S504,371.1,501.1,371.1z
		 M501.1,369.9c1.8,0,2.7-1.3,2.7-3.6s-0.9-3.7-2.7-3.7c-1.8,0-2.7,1.4-2.7,3.7S499.3,369.9,501.1,369.9z"/>
	<path class="st1" d="M510.8,374.4c-2.1,0-3.8-0.9-4-2.8c0-0.1,0.1-0.2,0.2-0.2h1.3c0.1,0,0.2,0.1,0.2,0.2c0.2,1.1,1.1,1.7,2.4,1.7
		c1.6,0,2.6-0.9,2.6-3v-1c-0.6,1-1.6,1.6-2.9,1.6c-2.6,0-4-2-4-4.6c0-2.6,1.4-4.8,3.9-4.8c1.3,0,2.3,0.6,2.9,1.6l-0.1-1.3
		c0-0.1,0.1-0.2,0.2-0.2h1.3c0.1,0,0.2,0.1,0.2,0.2l0,3.5l0,4.9C515,372.9,513.5,374.4,510.8,374.4z M510.9,369.7
		c1.5,0,2.5-1.1,2.5-3.4c0-2.2-0.8-3.5-2.3-3.6c-0.1,0-0.3,0-0.4,0c-1.6,0.1-2.4,1.4-2.4,3.5C508.2,368.4,509.1,369.7,510.9,369.7z"
		/>
	<path class="st1" d="M519.7,371.1c-1.9,0-3.1-1.3-3.1-3.7v-1.8l0-3.8c0-0.1,0.1-0.2,0.2-0.2h1.3c0.1,0,0.2,0.1,0.2,0.2l0,3.8v1.8
		c0,1.7,0.8,2.4,2,2.4c1.2,0,2.2-1,2.6-2.8v-1.4l0-3.8c0-0.1,0.1-0.2,0.2-0.2h1.3c0.1,0,0.2,0.1,0.2,0.2l-0.1,4.1l0,4.9
		c0,0.1-0.1,0.2-0.2,0.2H523c-0.1,0-0.2-0.1-0.2-0.2l0.1-1.4C522.2,370.3,521.2,371.1,519.7,371.1z"/>
	<path class="st1" d="M533.4,371.1c-2.8,0-4.4-1.9-4.4-4.8c0-2.9,1.6-4.9,4.4-4.9c2.8,0,4.4,1.9,4.4,4.8S536.2,371.1,533.4,371.1z
		 M533.4,369.9c1.8,0,2.7-1.3,2.7-3.6s-0.9-3.7-2.7-3.7c-1.8,0-2.7,1.4-2.7,3.7S531.6,369.9,533.4,369.9z"/>
	<path class="st1" d="M543.7,371.1c-1.3,0-2.3-0.6-2.9-1.6l0,1.2c0,0.1-0.1,0.2-0.2,0.2h-1.3c-0.1,0-0.2-0.1-0.2-0.2l0.1-6.7
		l-0.1-5.5c0-0.1,0.1-0.2,0.2-0.2h1.3c0.1,0,0.2,0.1,0.2,0.2l0,4.6c0.6-1,1.6-1.6,3-1.6c2.5,0,3.8,2.1,3.8,4.8
		C547.6,368.9,546.2,371.1,543.7,371.1z M543.3,369.8c1.8,0,2.6-1.4,2.6-3.5c0-2.2-0.8-3.7-2.6-3.7c-1.6,0-2.6,1.2-2.6,3.5
		C540.7,368.5,541.7,369.8,543.3,369.8z"/>
	<path class="st1" d="M549.1,370.9c-0.1,0-0.2-0.1-0.2-0.2l0.1-4.6l-0.1-4.4c0-0.1,0.1-0.2,0.2-0.2h1.3c0.1,0,0.2,0.1,0.2,0.2
		l-0.1,1.6c0.6-1.2,1.9-1.8,3.2-1.8c0.2,0,0.4,0,0.5,0.1c0.1,0,0.2,0.1,0.2,0.2v1c0,0.1-0.1,0.2-0.2,0.2c-0.1,0-0.3,0-0.5,0
		c-1.5,0-2.9,0.9-3.1,3l0,4.9c0,0.1-0.1,0.2-0.2,0.2H549.1z"/>
	<path class="st1" d="M561.3,370.9c-0.1,0-0.2-0.1-0.2-0.2l0-1.3c-0.6,1-1.6,1.7-3,1.7c-2.5,0-3.8-2.1-3.8-4.8s1.4-4.8,3.9-4.8
		c1.3,0,2.3,0.6,2.9,1.6l0-1.2c0-0.1,0.1-0.2,0.2-0.2h1.3c0.1,0,0.2,0.1,0.2,0.2l-0.1,4.4l0.1,4.5c0,0.1-0.1,0.2-0.2,0.2H561.3z
		 M558.6,369.9c1.6,0,2.6-1.2,2.6-3.5c0-2.2-0.8-3.5-2.3-3.7c-0.1,0-0.3,0-0.4,0c-1.7,0.1-2.4,1.5-2.4,3.5
		C556.1,368.4,556.9,369.9,558.6,369.9z"/>
	<path class="st1" d="M569.2,370.6c0,0.1-0.1,0.2-0.2,0.2c-0.4,0.1-0.8,0.2-1.2,0.2c-1.4,0-2.5-0.7-2.5-2.7v-5.4h-1
		c-0.1,0-0.2-0.1-0.2-0.2v-0.9c0-0.1,0.1-0.2,0.2-0.2h1l0-2.1c0-0.1,0.1-0.2,0.2-0.2h1.3c0.1,0,0.2,0.1,0.2,0.2l0,2.1h2.1
		c0.1,0,0.2,0.1,0.2,0.2v0.9c0,0.1-0.1,0.2-0.2,0.2h-2.1v5.4c0,1.1,0.4,1.5,1.2,1.5c0.3,0,0.7-0.1,0.9-0.1c0.1,0,0.2,0,0.2,0.1
		V370.6z"/>
	<path class="st1" d="M570.6,370.9c-0.1,0-0.2-0.1-0.2-0.2l0.1-4.6l-0.1-4.3c0-0.1,0.1-0.2,0.2-0.2h1.3c0.1,0,0.2,0.1,0.2,0.2
		l-0.1,4.3l0.1,4.6c0,0.1-0.1,0.2-0.2,0.2H570.6z M570.6,360.5c-0.1,0-0.2-0.1-0.2-0.2v-1.4c0-0.1,0.1-0.2,0.2-0.2h1.3
		c0.1,0,0.2,0.1,0.2,0.2v1.4c0,0.1-0.1,0.2-0.2,0.2H570.6z"/>
	<path class="st1" d="M578.6,370.6c0,0.1-0.1,0.2-0.2,0.2c-0.4,0.1-0.8,0.2-1.2,0.2c-1.4,0-2.5-0.7-2.5-2.7v-5.4h-1
		c-0.1,0-0.2-0.1-0.2-0.2v-0.9c0-0.1,0.1-0.2,0.2-0.2h1l0-2.1c0-0.1,0.1-0.2,0.2-0.2h1.3c0.1,0,0.2,0.1,0.2,0.2l0,2.1h2.1
		c0.1,0,0.2,0.1,0.2,0.2v0.9c0,0.1-0.1,0.2-0.2,0.2h-2.1v5.4c0,1.1,0.4,1.5,1.2,1.5c0.3,0,0.7-0.1,0.9-0.1c0.1,0,0.2,0,0.2,0.1
		V370.6z"/>
	<path class="st1" d="M580,370.9c-0.1,0-0.2-0.1-0.2-0.2l0.1-4.6l-0.1-4.3c0-0.1,0.1-0.2,0.2-0.2h1.3c0.1,0,0.2,0.1,0.2,0.2
		l-0.1,4.3l0.1,4.6c0,0.1-0.1,0.2-0.2,0.2H580z M580.1,360.5c-0.1,0-0.2-0.1-0.2-0.2v-1.4c0-0.1,0.1-0.2,0.2-0.2h1.3
		c0.1,0,0.2,0.1,0.2,0.2v1.4c0,0.1-0.1,0.2-0.2,0.2H580.1z"/>
	<path class="st1" d="M589.8,371.1c-1.9,0-3.1-1.3-3.1-3.7v-1.8l0-3.8c0-0.1,0.1-0.2,0.2-0.2h1.3c0.1,0,0.2,0.1,0.2,0.2l0,3.8v1.8
		c0,1.7,0.8,2.4,2,2.4c1.2,0,2.2-1,2.6-2.8v-1.4l0-3.8c0-0.1,0.1-0.2,0.2-0.2h1.3c0.1,0,0.2,0.1,0.2,0.2l-0.1,4.1l0,4.9
		c0,0.1-0.1,0.2-0.2,0.2H593c-0.1,0-0.2-0.1-0.2-0.2l0.1-1.4C592.3,370.3,591.2,371.1,589.8,371.1z"/>
	<path class="st1" d="M603.3,371.1c-2.4,0-4.1-1.1-4.2-3.2c0-0.1,0.1-0.2,0.2-0.2h1.2c0.1,0,0.2,0.1,0.2,0.2c0.1,1.5,1,2.1,2.6,2.1
		c1.4,0,2.3-0.6,2.3-1.6c0-2.4-6.3-0.5-6.3-4.2c0-1.8,1.5-2.7,3.7-2.7c2.1,0,3.7,0.9,3.9,2.8c0,0.1-0.1,0.2-0.2,0.2h-1.2
		c-0.1,0-0.2-0.1-0.2-0.2c-0.1-1.2-1-1.7-2.3-1.7c-1.3,0-2.1,0.5-2.1,1.5c0,2.3,6.3,0.3,6.3,4.2C607.2,370,605.5,371.1,603.3,371.1z
		"/>
	<path class="st1" d="M608.8,370.9c-0.1,0-0.2-0.1-0.2-0.2l0.1-6.2l-0.1-6c0-0.1,0.1-0.2,0.2-0.2h1.3c0.1,0,0.2,0.1,0.2,0.2l-0.1,6
		l0.1,6.2c0,0.1-0.1,0.2-0.2,0.2H608.8z"/>
	<path class="st1" d="M615.1,371.1c-1.9,0-3.1-1.3-3.1-3.7v-1.8l0-3.8c0-0.1,0.1-0.2,0.2-0.2h1.3c0.1,0,0.2,0.1,0.2,0.2l0,3.8v1.8
		c0,1.7,0.8,2.4,2,2.4c1.2,0,2.2-1,2.6-2.8v-1.4l0-3.8c0-0.1,0.1-0.2,0.2-0.2h1.3c0.1,0,0.2,0.1,0.2,0.2l-0.1,4.1l0,4.9
		c0,0.1-0.1,0.2-0.2,0.2h-1.2c-0.1,0-0.2-0.1-0.2-0.2l0.1-1.4C617.6,370.3,616.6,371.1,615.1,371.1z"/>
	<path class="st1" d="M625.5,371.1c-2.8,0-4.3-1.9-4.3-4.8s1.6-4.9,4.4-4.9c2.3,0,3.7,1.3,3.9,3.2c0,0.1-0.1,0.2-0.2,0.2h-1.2
		c-0.1,0-0.2-0.1-0.2-0.2c-0.2-1.4-1.2-2-2.4-2c-1.8,0-2.7,1.3-2.7,3.6c0,2.4,0.9,3.6,2.7,3.6c1.4,0,2.3-0.8,2.5-2.3
		c0-0.1,0.1-0.2,0.2-0.2h1.2c0.1,0,0.2,0.1,0.2,0.2C629.4,369.6,627.9,371.1,625.5,371.1z M625.9,360.5c-0.1,0.1-0.2,0.1-0.3,0.1
		h-0.4c-0.1,0-0.2,0-0.3-0.1l-2.3-1.4c-0.1-0.1-0.1-0.2-0.1-0.3l0.2-0.5c0-0.1,0.1-0.1,0.2-0.1l2.5,1.1l2.4-1.1c0.1,0,0.2,0,0.2,0.1
		l0.2,0.5c0,0.1,0,0.2-0.1,0.3L625.9,360.5z"/>
	<path class="st1" d="M637.5,370.9c-0.1,0-0.2-0.1-0.2-0.2l0-1.3c-0.6,1-1.6,1.7-3,1.7c-2.5,0-3.8-2.1-3.8-4.8s1.4-4.8,3.9-4.8
		c1.3,0,2.3,0.6,2.9,1.6l0-1.2c0-0.1,0.1-0.2,0.2-0.2h1.3c0.1,0,0.2,0.1,0.2,0.2l-0.1,4.4l0.1,4.5c0,0.1-0.1,0.2-0.2,0.2H637.5z
		 M634.8,369.9c1.6,0,2.6-1.2,2.6-3.5c0-2.2-0.8-3.5-2.3-3.7c-0.1,0-0.3,0-0.4,0c-1.7,0.1-2.4,1.5-2.4,3.5
		C632.2,368.4,633,369.9,634.8,369.9z"/>
	<path class="st1" d="M640.9,374c-0.1,0-0.2-0.1-0.2-0.2l0.1-5.9l-0.1-6.1c0-0.1,0.1-0.2,0.2-0.2h1.3c0.1,0,0.2,0.1,0.2,0.2
		l-0.1,6.1l0.1,5.9c0,0.1-0.1,0.2-0.2,0.2H640.9z M640.9,360.5c-0.1,0-0.2-0.1-0.2-0.2v-1.4c0-0.1,0.1-0.2,0.2-0.2h1.3
		c0.1,0,0.2,0.1,0.2,0.2v1.4c0,0.1-0.1,0.2-0.2,0.2H640.9z"/>
	<path class="st1" d="M647.3,371.1c-1.9,0-3.1-1.3-3.1-3.7v-1.8l0-3.8c0-0.1,0.1-0.2,0.2-0.2h1.3c0.1,0,0.2,0.1,0.2,0.2l0,3.8v1.8
		c0,1.7,0.8,2.4,2,2.4c1.2,0,2.2-1,2.6-2.8v-1.4l0-3.8c0-0.1,0.1-0.2,0.2-0.2h1.3c0.1,0,0.2,0.1,0.2,0.2l-0.1,4.1l0,4.9
		c0,0.1-0.1,0.2-0.2,0.2h-1.2c-0.1,0-0.2-0.1-0.2-0.2l0.1-1.4C649.8,370.3,648.7,371.1,647.3,371.1z"/>
	<path class="st1" d="M657.2,370.9c-0.1,0-0.2-0.1-0.2-0.2l0.1-4.1l-0.1-4.9c0-0.1,0.1-0.2,0.2-0.2h1.2c0.1,0,0.2,0.1,0.2,0.2l0,1.4
		c0.6-0.9,1.6-1.8,3.1-1.8c1.9,0,3.1,1.3,3.1,3.7v1.9l0.1,3.8c0,0.1-0.1,0.2-0.2,0.2h-1.3c-0.1,0-0.2-0.1-0.2-0.2l0-3.8v-1.8
		c0-1.7-0.8-2.4-2-2.4c-1.2,0-2.2,1-2.6,2.8v1.4l0,3.8c0,0.1-0.1,0.2-0.2,0.2H657.2z"/>
	<path class="st1" d="M669.5,371.1c-1.9,0-3.1-1.3-3.1-3.7v-1.8l0-3.8c0-0.1,0.1-0.2,0.2-0.2h1.3c0.1,0,0.2,0.1,0.2,0.2l0,3.8v1.8
		c0,1.7,0.8,2.4,2,2.4c1.2,0,2.2-1,2.6-2.8v-1.4l0-3.8c0-0.1,0.1-0.2,0.2-0.2h1.3c0.1,0,0.2,0.1,0.2,0.2l-0.1,4.1l0,4.9
		c0,0.1-0.1,0.2-0.2,0.2h-1.2c-0.1,0-0.2-0.1-0.2-0.2l0.1-1.4C672,370.3,671,371.1,669.5,371.1z"/>
	<path class="st1" d="M682.9,370.7c0,0.1-0.1,0.2-0.2,0.2h-6.9c-0.1,0-0.2-0.1-0.2-0.2v-0.9c0-0.1,0-0.2,0.1-0.3l5-6.6h-4.5
		c-0.1,0-0.2-0.1-0.2-0.2v-0.9c0-0.1,0.1-0.2,0.2-0.2h6.3c0.1,0,0.2,0.1,0.2,0.2v0.9c0,0.1,0,0.2-0.1,0.3l-5,6.6h5.2
		c0.1,0,0.2,0.1,0.2,0.2V370.7z M679.8,360.5c-0.1,0.1-0.2,0.1-0.3,0.1h-0.4c-0.1,0-0.2,0-0.3-0.1l-2.3-1.4
		c-0.1-0.1-0.1-0.2-0.1-0.3l0.2-0.5c0-0.1,0.1-0.1,0.2-0.1l2.5,1.1l2.4-1.1c0.1,0,0.2,0,0.2,0.1l0.2,0.5c0,0.1,0,0.2-0.1,0.3
		L679.8,360.5z"/>
	<path class="st1" d="M690.4,370.9c-0.1,0-0.2-0.1-0.2-0.2l0-1.3c-0.6,1-1.6,1.7-3,1.7c-2.5,0-3.8-2.1-3.8-4.8
		c0-2.7,1.4-4.8,3.9-4.8c1.3,0,2.3,0.5,2.9,1.6l0-4.5c0-0.1,0.1-0.2,0.2-0.2h1.3c0.1,0,0.2,0.1,0.2,0.2l-0.1,5.4l0.1,6.8
		c0,0.1-0.1,0.2-0.2,0.2H690.4z M687.7,369.9c1.6,0,2.6-1.2,2.6-3.5c0-2.3-0.9-3.7-2.6-3.7c-1.8,0-2.6,1.5-2.6,3.5
		C685.1,368.4,686,369.9,687.7,369.9z"/>
	<path class="st1" d="M701.6,367.7c0.1,0,0.2,0.1,0.2,0.2c-0.3,1.9-1.7,3.3-4.1,3.3c-2.9,0-4.4-2-4.4-4.8c0-2.9,1.7-4.9,4.3-4.9
		s4.3,1.8,4.3,4.9c0,0.1-0.1,0.2-0.2,0.2h-6.8c0.1,2.2,1,3.4,2.8,3.4c1.4,0,2.2-0.7,2.5-2.1c0-0.1,0.1-0.2,0.2-0.2H701.6z
		 M697.6,362.6c-1.5,0-2.4,1-2.6,2.7h5.2C700.1,363.9,699.2,362.6,697.6,362.6z"/>
</g>
<g>
	<g>
		<polygon class="st3" points="361,135.2 317.7,135.2 273.4,216.1 361,216.1 		"/>
		<polygon class="st1" points="361,135.2 404.4,135.2 448.7,216.1 361,216.1 		"/>
	</g>
	<rect x="319.6" y="101.5" class="st1" width="18.3" height="17.6"/>
	<rect x="384.2" y="101.5" class="st1" width="18.3" height="17.6"/>
	<polygon class="st4" points="404.4,135.2 317.7,135.2 319.6,119 402.5,119 	"/>
	<rect x="273.4" y="216.1" class="st4" width="175.3" height="29.9"/>
	<rect x="337.9" y="222.8" class="st1" width="46.2" height="15.4"/>
	<rect x="278.2" y="246" class="st5" width="27.9" height="6.6"/>
	<rect x="415" y="246" class="st5" width="27.9" height="6.6"/>
	<path class="st6" d="M394.7,175.3c0,18.7-15.2,33.9-33.9,33.9c-18.7,0-33.9-15.2-33.9-33.9c0-18.7,15.2-33.9,33.9-33.9
		C379.5,141.5,394.7,156.6,394.7,175.3z"/>
	<path class="st5" d="M374.1,175.3c0,7.5-5.9,13.5-13.3,13.5c-7.3,0-13.3-6-13.3-13.5c0-7.5,5.9-13.5,13.3-13.5
		C368.2,161.8,374.1,167.9,374.1,175.3z"/>
	<g>
		<path class="st5" d="M366.5,152.6c0,3-2.5,5.5-5.5,5.5c-3,0-5.5-2.5-5.5-5.5c0-3,2.5-5.5,5.5-5.5
			C364.1,147.1,366.5,149.5,366.5,152.6z"/>
		<path class="st5" d="M351.9,153.7c1.8,2.5,1.2,5.9-1.2,7.7c-2.5,1.8-5.9,1.2-7.7-1.2c-1.8-2.5-1.2-5.9,1.2-7.7
			C346.7,150.7,350.1,151.3,351.9,153.7z"/>
		<path class="st5" d="M340.8,163.3c2.9,0.9,4.5,4,3.5,6.9c-0.9,2.9-4,4.5-6.9,3.5c-2.9-0.9-4.5-4-3.5-6.9
			C334.8,163.9,337.9,162.4,340.8,163.3z"/>
		<path class="st5" d="M337.4,177.6c2.9-0.9,6,0.6,6.9,3.5c0.9,2.9-0.6,6-3.5,6.9c-2.9,0.9-6-0.6-6.9-3.5
			C332.9,181.6,334.5,178.5,337.4,177.6z"/>
		<path class="st5" d="M343,191.1c1.8-2.5,5.2-3,7.7-1.2c2.5,1.8,3,5.2,1.2,7.7c-1.8,2.5-5.2,3-7.7,1.2
			C341.8,197,341.2,193.6,343,191.1z"/>
		<path class="st5" d="M355.5,198.8c0-3,2.5-5.5,5.5-5.5c3,0,5.5,2.5,5.5,5.5c0,3-2.5,5.5-5.5,5.5
			C358,204.3,355.6,201.8,355.5,198.8z"/>
		<path class="st5" d="M370.2,197.6c-1.8-2.5-1.2-5.9,1.2-7.7c2.5-1.8,5.9-1.2,7.7,1.2c1.8,2.5,1.2,5.9-1.2,7.7
			C375.4,200.6,372,200,370.2,197.6z"/>
		<path class="st5" d="M381.3,188c-2.9-0.9-4.5-4-3.5-6.9c0.9-2.9,4-4.5,6.9-3.5c2.9,0.9,4.5,4,3.5,6.9
			C387.3,187.4,384.2,189,381.3,188z"/>
		<path class="st5" d="M384.7,173.8c-2.9,0.9-6-0.6-6.9-3.5c-0.9-2.9,0.6-6,3.5-6.9c2.9-0.9,6,0.6,6.9,3.5
			C389.2,169.7,387.6,172.8,384.7,173.8z"/>
	</g>
	<g>
		<path class="st6" d="M307.4,131.3l-24.1,11.7c-5,2.4-11,0.2-13.2-4.9l-4.5-10.4l40.6-19.7l5.4,9.9
			C314.4,122.8,312.4,128.9,307.4,131.3L307.4,131.3z"/>
		<path class="st3" d="M360.8,64.8v26.5c-14.6-0.1-33.8,0.5-56.6,12.5l2.3,4.2l-40.7,19.7l-6.5-15C250.4,92.3,303.3,65.1,360.8,64.8
			z"/>
		<path class="st6" d="M414.1,131.3l24.1,11.7c5,2.4,11,0.2,13.2-4.9l4.5-10.4L415.1,108l-5.4,9.9
			C407.1,122.8,409.1,128.9,414.1,131.3L414.1,131.3z"/>
		<path class="st1" d="M360.8,64.8v26.5c14.6-0.1,33.8,0.5,56.6,12.5l-2.3,4.2l40.7,19.7l6.5-15C471.1,92.3,418.2,65.1,360.8,64.8z"
			/>
	</g>
	<rect x="337.9" y="226.6" class="st6" width="46.2" height="7.2"/>
</g>
</svg>
