<?xml version="1.0" encoding="utf-8"?>
<!-- Generator: Adobe Illustrator 25.2.0, SVG Export Plug-In . SVG Version: 6.00 Build 0)  -->
<svg version="1.1" id="Layer_1" xmlns="http://www.w3.org/2000/svg" xmlns:xlink="http://www.w3.org/1999/xlink" x="0px" y="0px"
	 viewBox="0 0 446.2 119" style="enable-background:new 0 0 446.2 119;" xml:space="preserve">
<style type="text/css">
	.st0{opacity:0.6;}
	.st1{fill:#FFFFFF;}
	.st2{opacity:0.4;}
	.st3{fill:#68BCAE;}
	.st4{fill:none;}
	.st5{fill:#5DAFA1;}
	.st6{opacity:6.000000e-02;}
	.st7{fill:#1B5E53;}
	.st8{fill:#00A88F;}
</style>
<g>
	<g>
		<g>
			<g class="st0">
				<path class="st1" d="M77,119l-10.5-2H11.7l-9.6,2c-1.2,0-2.1-1-2.1-2.1l3.2-10.3L2.5,9.8L0,2.1C0,1,1,0,2.1,0l8,1.4h60.5L77,0
					c1.2,0,2.1,1,2.1,2.1l-2.8,7.7L76,106.9l3.1,10C79.1,118.1,78.1,119,77,119z"/>
			</g>
			<g class="st2">
				<path class="st1" d="M76.1,88.3c-6.8-2.1-13.4-4.8-19.8-8c-19.8-9.5-37-23.2-53.6-37.6l0.4,63.9L0,116.9c0,1.2,1,2.1,2.1,2.1
					l9.6-2h54.8l10.5,2c1.2,0,2.1-1,2.1-2.1l-3.1-10L76.1,88.3z"/>
			</g>
			<g class="st2">
				<path class="st1" d="M2.6,17.2c3.4,3,6.7,5.9,10.1,8.9c5.9,5.1,11.8,10.2,17.9,15.1c0.8,0.6,1.6,1.3,2.4,1.9
					c0.3,0.2,0.5,0.4,0.8,0.6c0.1,0.1,0.2,0.1,0.3,0.2c1.4,1.1,2.8,2.1,4.3,3.2c3.1,2.2,6.2,4.4,9.4,6.5c6.4,4.2,13.1,8,20.1,11.3
					c1,0.5,2.1,0.9,3.1,1.4c0,0,0.1,0,0.1,0.1c0.3,0.1,0.6,0.3,0.8,0.3c1.4,0.6,2.8,1.1,4.2,1.6l0.2-58.6L79.1,2c0-1-1-2-2.1-2
					l-6.3,1.4H10.1L2.1,0C1,0,0,1,0,2.1l2.5,7.7L2.6,17.2z"/>
			</g>
			<g>
				<path class="st3" d="M68.3,109.9H10.8c-1.3,0-2.3-1-2.3-2.3V12.1c0-1.3,1-2.3,2.3-2.3h57.6c1.3,0,2.3,1,2.3,2.3v95.4
					C70.7,108.8,69.6,109.9,68.3,109.9z"/>
			</g>
			<g class="st2">
				<path class="st1" d="M31.8,68.5c2.5-4.2,4.2-14.7,6.7-19c3.8-6.8,11.2-14.3,11.3-14.3c4.7-8,9.5-16.4,17.5-21.1H15.5
					c-1.1,0-2.1,0.9-2.1,2.1v84C17.4,90.5,25.8,76.8,31.8,68.5z"/>
			</g>
		</g>
		<g>
			<g>
				<g>
					<g>
						<rect x="38.8" y="32.7" class="st1" width="1.4" height="20.1"/>
					</g>
					<g>
						<path class="st1" d="M39.6,33.5c-0.2,0-0.5-0.1-0.6-0.3l-2.7-4.5c-0.2-0.3-0.1-0.8,0.2-1s0.8-0.1,1,0.2l2.1,3.4l2-3.4
							c0.2-0.3,0.6-0.4,1-0.2c0.3,0.2,0.5,0.6,0.2,1l-2.6,4.5C40.1,33.4,39.8,33.5,39.6,33.5L39.6,33.5z"/>
					</g>
					<g>
						<path class="st1" d="M39.6,38.4c-0.2,0-0.4-0.1-0.5-0.2L36.3,35c-0.3-0.3-0.2-0.7,0.1-1s0.7-0.2,1,0.1l2.1,2.5l2.1-2.5
							c0.3-0.3,0.7-0.3,1-0.1c0.3,0.3,0.3,0.7,0.1,1l-2.6,3.1C40,38.3,39.8,38.4,39.6,38.4L39.6,38.4z"/>
					</g>
					<g>
						<path class="st1" d="M36.9,51.6c-0.2,0-0.3-0.1-0.5-0.2c-0.3-0.3-0.3-0.7-0.1-1l2.6-3.1c0.1-0.2,0.3-0.3,0.5-0.3
							s0.4,0.1,0.5,0.2l2.7,3.1c0.3,0.3,0.2,0.7-0.1,1s-0.7,0.2-1-0.1l-2.1-2.5l-2.1,2.5C37.3,51.5,37.1,51.6,36.9,51.6z"/>
					</g>
					<g>
						<path class="st1" d="M36.9,57.7c-0.1,0-0.2,0-0.4-0.1c-0.3-0.2-0.5-0.6-0.2-1l2.6-4.5c0.1-0.2,0.4-0.3,0.6-0.3l0,0
							c0.2,0,0.5,0.1,0.6,0.3l2.7,4.5c0.2,0.3,0.1,0.8-0.2,1s-0.8,0.1-1-0.2L39.5,54l-2,3.4C37.4,57.6,37.1,57.7,36.9,57.7z"/>
					</g>
				</g>
				<g>
					<g>
						
							<rect x="38.7" y="32.7" transform="matrix(0.4731 -0.881 0.881 0.4731 -16.8652 57.2069)" class="st1" width="1.4" height="20.1"/>
					</g>
					<g>
						<path class="st1" d="M50.9,52.5c-0.2,0-0.5-0.1-0.6-0.3l-2.7-4.4c-0.1-0.2-0.1-0.5,0-0.7s0.3-0.4,0.6-0.4l5.2-0.3
							c0.4,0,0.7,0.3,0.7,0.7s-0.3,0.7-0.7,0.7l-4,0.2l2.1,3.4c0.2,0.3,0.1,0.8-0.2,1C51.2,52.5,51,52.5,50.9,52.5z"/>
					</g>
					<g>
						<path class="st1" d="M45.5,49.6c-0.3,0-0.6-0.2-0.7-0.5l-1.5-3.8c-0.1-0.2-0.1-0.4,0-0.6c0.1-0.2,0.3-0.3,0.5-0.4l4-0.9
							c0.4-0.1,0.8,0.2,0.8,0.5c0.1,0.4-0.2,0.8-0.5,0.8l-3.2,0.7l1.2,3c0.1,0.4,0,0.8-0.4,0.9C45.7,49.6,45.6,49.6,45.5,49.6z"/>
					</g>
					<g>
						<path class="st1" d="M31.1,41.9c-0.3,0-0.6-0.2-0.7-0.6c-0.1-0.4,0.2-0.8,0.5-0.8l3.2-0.7l-1.2-3c-0.1-0.4,0-0.8,0.4-0.9
							c0.4-0.1,0.8,0,0.9,0.4l1.5,3.8c0.1,0.2,0.1,0.4,0,0.6c-0.1,0.2-0.3,0.3-0.5,0.4l-4,0.9C31.2,41.9,31.1,41.9,31.1,41.9z"/>
					</g>
					<g>
						<path class="st1" d="M25.7,39c-0.4,0-0.7-0.3-0.7-0.7s0.3-0.7,0.7-0.7l4-0.2L27.6,34c-0.2-0.3-0.1-0.8,0.2-1
							c0.3-0.2,0.8-0.1,1,0.2l2.7,4.4c0.1,0.2,0.1,0.5,0,0.7s-0.3,0.4-0.6,0.4L25.7,39L25.7,39z"/>
					</g>
				</g>
				<g>
					<g>
						
							<rect x="29.6" y="41.9" transform="matrix(0.881 -0.4731 0.4731 0.881 -15.4332 23.8259)" class="st1" width="20.1" height="1.4"/>
					</g>
					<g>
						<path class="st1" d="M28.2,52.5c-0.1,0-0.3,0-0.4-0.1c-0.3-0.2-0.4-0.6-0.2-1l2.1-3.4l-4-0.2c-0.4,0-0.7-0.4-0.7-0.7
							c0-0.4,0.4-0.7,0.7-0.7l5.2,0.3c0.3,0,0.5,0.2,0.6,0.4s0.1,0.5,0,0.7l-2.7,4.4C28.7,52.4,28.4,52.5,28.2,52.5z"/>
					</g>
					<g>
						<path class="st1" d="M33.6,49.6c-0.1,0-0.2,0-0.3-0.1c-0.4-0.1-0.5-0.6-0.4-0.9l1.2-3l-3.2-0.7c-0.4-0.1-0.6-0.5-0.5-0.8
							c0.1-0.4,0.5-0.6,0.8-0.5l4,0.9c0.2,0,0.4,0.2,0.5,0.4s0.1,0.4,0,0.6l-1.5,3.8C34.2,49.4,33.9,49.6,33.6,49.6z"/>
					</g>
					<g>
						<path class="st1" d="M48,41.9c-0.1,0-0.1,0-0.2,0l-4-0.9c-0.2,0-0.4-0.2-0.5-0.4s-0.1-0.4,0-0.6l1.5-3.8
							c0.1-0.4,0.6-0.5,0.9-0.4c0.4,0.1,0.5,0.6,0.4,0.9l-1.2,3l3.2,0.7c0.4,0.1,0.6,0.5,0.5,0.8C48.6,41.7,48.3,41.9,48,41.9z"/>
					</g>
					<g>
						<path class="st1" d="M53.4,39L53.4,39l-5.2-0.3c-0.3,0-0.5-0.2-0.6-0.4s-0.1-0.5,0-0.7l2.7-4.4c0.2-0.3,0.6-0.4,1-0.2
							c0.3,0.2,0.4,0.6,0.2,1l-2.1,3.4l4,0.2c0.4,0,0.7,0.4,0.7,0.7C54.1,38.7,53.8,39,53.4,39z"/>
					</g>
				</g>
			</g>
			<g>
				<path class="st1" d="M39.5,62.6c-11,0-19.9-8.9-19.9-19.9s8.9-19.9,19.9-19.9s19.9,8.9,19.9,19.9S50.5,62.6,39.5,62.6z
					 M39.5,24.2C29.3,24.2,21,32.5,21,42.7s8.3,18.5,18.5,18.5S58,52.9,58,42.7S49.7,24.2,39.5,24.2z"/>
			</g>
		</g>
		<g>
			<rect x="8.4" y="75.1" class="st1" width="62.2" height="26.5"/>
		</g>
		<g>
			<rect x="15.5" y="85.2" class="st4" width="48.2" height="6.6"/>
			<path class="st5" d="M22.5,90.7C22.4,90.7,22.4,90.6,22.5,90.7v-2.5h-2.4v2.4c0,0,0,0.1-0.1,0.1h-1.1c0,0-0.1,0-0.1-0.1v-2.7
				v-2.7c0,0,0-0.1,0.1-0.1H20c0,0,0.1,0,0.1,0.1v2h2.4v-2c0,0,0-0.1,0.1-0.1h1.1c0,0,0.1,0,0.1,0.1v2.7v2.7c0,0,0,0.1-0.1,0.1H22.5
				z"/>
			<path class="st5" d="M24.1,90.7C24.1,90.7,24.1,90.6,24.1,90.7V88v-2.7c0,0,0-0.1,0.1-0.1h1c0,0,0.1,0,0.1,0.1V88v2.7
				c0,0,0,0.1-0.1,0.1L24.1,90.7L24.1,90.7z"/>
			<path class="st5" d="M28.5,90.7C28.5,90.7,28.5,90.6,28.5,90.7l-0.1-0.5c-0.3,0.3-0.7,0.5-1.2,0.5c-1.1,0-1.7-0.9-1.7-2.1
				s0.7-2.1,1.8-2.1c0.5,0,0.9,0.2,1.2,0.5v-0.4c0,0,0-0.1,0.1-0.1h1c0,0,0.1,0,0.1,0.1v1.9v1.9c0,0,0,0.1-0.1,0.1h-1.1
				C28.5,90.5,28.5,90.7,28.5,90.7z M27.6,90c0.6,0,0.9-0.4,0.9-1.3s-0.3-1.3-0.9-1.3s-0.9,0.4-0.9,1.3C26.8,89.5,27.1,90,27.6,90z"
				/>
			<path class="st5" d="M32.9,90.7C32.9,90.7,32.8,90.6,32.9,90.7v-0.5c-0.3,0.3-0.7,0.5-1.2,0.5c-1.1,0-1.7-0.9-1.7-2.1
				s0.7-2.1,1.8-2.1c0.5,0,0.9,0.2,1.2,0.5v-1.8c0,0,0-0.1,0.1-0.1h1c0,0,0.1,0,0.1,0.1v2.7v2.7c0,0,0,0.1-0.1,0.1
				C34.1,90.7,32.9,90.7,32.9,90.7z M32,90c0.6,0,0.9-0.4,0.9-1.3s-0.3-1.3-0.9-1.4c-0.6,0-0.9,0.4-0.9,1.3S31.4,90,32,90z"/>
			<path class="st5" d="M34.5,90.7C34.4,90.7,34.4,90.6,34.5,90.7v-1.9v-2c0,0,0-0.1,0.1-0.1h1c0,0,0.1,0,0.1,0.1v0.4
				c0.3-0.4,0.7-0.6,1.3-0.6c0.9,0,1.4,0.6,1.4,1.6V89v1.6c0,0,0,0.1-0.1,0.1h-1c0,0-0.1,0-0.1-0.1V89v-0.8c0-0.4-0.3-0.7-0.6-0.7
				c-0.4,0-0.9,0.4-0.9,1.3v0.3v1.6c0,0,0,0.1-0.1,0.1h-1.1C34.5,90.8,34.5,90.7,34.5,90.7z"/>
			<path class="st5" d="M38.7,86.2C38.6,86.2,38.6,86.2,38.7,86.2l-0.1-1c0,0,0-0.1,0.1-0.1h1c0,0,0.1,0,0.1,0.1v0.9
				c0,0,0,0.1-0.1,0.1H38.7z M38.7,90.7C38.6,90.7,38.6,90.6,38.7,90.7v-2v-1.9c0,0,0-0.1,0.1-0.1h1.1c0,0,0.1,0,0.1,0.1v1.9v1.9
				c0,0,0,0.1-0.1,0.1H38.7z"/>
			<path class="st5" d="M43.6,90.8c-1.3,0-2.1-0.8-2.1-2.1s0.8-2.1,2.1-2.1s2.1,0.8,2.1,2.1S44.9,90.8,43.6,90.8z M43.6,90
				c0.6,0,0.9-0.4,0.9-1.3s-0.3-1.3-0.9-1.3c-0.6,0-0.9,0.4-0.9,1.4S43,90,43.6,90z"/>
			<path class="st5" d="M48.3,90.7c-0.5,0-0.9-0.2-1.2-0.5v0.4c0,0,0,0.1-0.1,0.1h-1c0,0-0.1,0-0.1-0.1v-2.7v-2.7c0,0,0-0.1,0.1-0.1
				h1c0,0,0.1,0,0.1,0.1V87c0.3-0.3,0.7-0.5,1.2-0.5c1.1,0,1.7,0.9,1.7,2.1C50.1,89.8,49.4,90.7,48.3,90.7z M48,89.9
				c0.6,0,0.9-0.4,0.9-1.3s-0.3-1.3-0.9-1.3c-0.6,0-0.9,0.4-0.9,1.3S47.4,89.9,48,89.9z"/>
			<path class="st5" d="M50.4,90.7C50.4,90.7,50.4,90.6,50.4,90.7V88v-2.7c0,0,0-0.1,0.1-0.1h1c0,0,0.1,0,0.1,0.1V88v2.7
				c0,0,0,0.1-0.1,0.1L50.4,90.7L50.4,90.7z"/>
			<path class="st5" d="M53.9,90.8c-1.3,0-2.1-0.8-2.1-2.1s0.8-2.1,2.1-2.1s2.1,0.8,2.1,2.1S55.2,90.8,53.9,90.8z M53.9,90
				c0.6,0,0.9-0.4,0.9-1.3s-0.3-1.3-0.9-1.3c-0.6,0-0.9,0.4-0.9,1.4S53.3,90,53.9,90z"/>
			<path class="st5" d="M58.3,92.2c-1.1,0-1.9-0.4-1.9-1.3c0,0,0-0.1,0.1-0.1h1c0,0,0.1,0,0.1,0.1c0.1,0.3,0.3,0.5,0.8,0.5
				s0.9-0.3,0.9-0.9V90c-0.3,0.4-0.7,0.6-1.2,0.6c-1.2,0-1.8-0.9-1.8-2s0.7-2,1.8-2c0.5,0,0.9,0.2,1.2,0.5v-0.4c0,0,0-0.1,0.1-0.1h1
				c0,0,0.1,0,0.1,0.1v2v1.8C60.3,91.6,59.6,92.2,58.3,92.2z M58.2,89.9c0.6,0,0.9-0.4,0.9-1.2c0-0.8-0.3-1.3-0.9-1.3
				c-0.6,0-0.9,0.4-0.9,1.2C57.4,89.4,57.7,89.9,58.2,89.9z"/>
		</g>
	</g>
	<g class="st6">
		<path d="M79.1,2.1c0-0.9-0.6-1.7-1.4-2c-0.7,0.8-1.4,1.5-2.3,2.2c-0.2,0.2-0.4,0.3-0.5,0.3c-0.1,0.1-0.2,0.1-0.3,0.2
			c-0.4,0.3-0.7,0.6-1.1,0.9c-0.9,0.8-1.7,1.8-2.6,2.7l-0.1,0.1l0,0c-0.2,0.4-0.5,0.7-0.7,1.1c-0.6,0.9-1.1,1.8-1.6,2.7
			c-0.3,0.6-0.6,1.1-0.8,1.7c-0.8,1.6,0.2-0.5,0.2-0.5c-0.5,0.4-0.9,2.4-1.1,3c-0.7,2.2-1.4,4.4-1.9,6.6C62.4,30.6,60,40,56.6,49.2
			c-3.8,10.1-8.4,19.8-14.2,29C36.6,87.5,29.5,96.1,22,104c-3.4,3.6-7,6.9-10.5,10.4c-0.7,0.7-1.4,1.5-2.1,2.3
			c-0.2,0.3-0.4,0.7-0.7,1l3-0.6h54.8l10.5,2c1.2,0,2.1-1,2.1-2.1L76,107l0.3-97.1L79.1,2.1z"/>
	</g>
</g>
<g>
	<g>
		<path class="st7" d="M142.8,32.3c-0.1,0-0.2-0.1-0.2-0.2l0.1-6.1l-0.1-5h-3.5c-0.1,0-0.2-0.1-0.2-0.2v-1c0-0.1,0.1-0.2,0.2-0.2
			h8.7c0.1,0,0.2,0.1,0.2,0.2v1c0,0.1-0.1,0.2-0.2,0.2h-3.5l-0.1,5l0.1,6.1c0,0.1-0.1,0.2-0.2,0.2H142.8z"/>
		<path class="st7" d="M150.9,32.5c-2.8,0-4.4-1.9-4.4-4.8s1.6-4.9,4.4-4.9c2.8,0,4.4,1.9,4.4,4.8S153.8,32.5,150.9,32.5z
			 M150.9,31.3c1.8,0,2.7-1.3,2.7-3.6s-0.9-3.7-2.7-3.7s-2.7,1.4-2.7,3.7S149.1,31.3,150.9,31.3z"/>
		<path class="st7" d="M161.2,32.5c-1.3,0-2.3-0.5-2.9-1.5v4.2c0,0.1-0.1,0.2-0.2,0.2h-1.3c-0.1,0-0.2-0.1-0.2-0.2l0.1-6.9l-0.1-5.1
			c0-0.1,0.1-0.2,0.2-0.2h1.3c0.1,0,0.2,0.1,0.2,0.2v1.3c0.6-1,1.6-1.7,3-1.7c2.5,0,3.8,2.1,3.8,4.8S163.7,32.5,161.2,32.5z
			 M160.8,31.3c1.8,0,2.6-1.4,2.6-3.5c0-2.2-0.8-3.7-2.6-3.7c-1.6,0-2.6,1.2-2.6,3.5C158.3,29.9,159.2,31.3,160.8,31.3z"/>
		<path class="st7" d="M166.7,32.3c-0.1,0-0.2-0.1-0.2-0.2l0.1-6.2l-0.1-6c0-0.1,0.1-0.2,0.2-0.2h1.3c0.1,0,0.2,0.1,0.2,0.2l-0.1,6
			l0.1,6.2c0,0.1-0.1,0.2-0.2,0.2H166.7z"/>
		<path class="st7" d="M174.1,32.5c-2.8,0-4.4-1.9-4.4-4.8s1.6-4.9,4.4-4.9c2.8,0,4.4,1.9,4.4,4.8S176.9,32.5,174.1,32.5z
			 M174.1,31.3c1.8,0,2.7-1.3,2.7-3.6s-0.9-3.7-2.7-3.7s-2.7,1.4-2.7,3.7S172.3,31.3,174.1,31.3z"/>
		<path class="st7" d="M179.7,27.6c-0.1,0-0.2-0.1-0.2-0.2v-0.9c0-0.1,0.1-0.2,0.2-0.2h3.7c0.1,0,0.2,0.1,0.2,0.2v0.9
			c0,0.1-0.1,0.2-0.2,0.2H179.7z"/>
		<path class="st7" d="M189,24.1c-1.2,0-2.2,1-2.6,2.6l0.1,5.4c0,0.1-0.1,0.2-0.2,0.2H185c-0.1,0-0.2-0.1-0.2-0.2l0.1-6.2l-0.1-6
			c0-0.1,0.1-0.2,0.2-0.2h1.3c0.1,0,0.2,0.1,0.2,0.2l-0.1,4.6c0.6-1,1.6-1.7,3-1.7c2,0,3.2,1.2,3.2,3.9v1.9l0.1,3.6
			c0,0.1-0.1,0.2-0.2,0.2H191c-0.1,0-0.2-0.1-0.2-0.2l0.1-3.5v-2C190.9,24.8,190.1,24.1,189,24.1z"/>
		<path class="st7" d="M194.5,32.3c-0.1,0-0.2-0.1-0.2-0.2l0.1-6.2l-0.1-6c0-0.1,0.1-0.2,0.2-0.2h1.3c0.1,0,0.2,0.1,0.2,0.2l-0.1,6
			l0.1,6.2c0,0.1-0.1,0.2-0.2,0.2H194.5z"/>
		<path class="st7" d="M204.4,32.3c-0.1,0-0.2-0.1-0.2-0.2v-1.3c-0.6,1-1.6,1.7-3,1.7c-2.5,0-3.8-2.1-3.8-4.8s1.4-4.8,3.9-4.8
			c1.3,0,2.3,0.6,2.9,1.6v-1.2c0-0.1,0.1-0.2,0.2-0.2h1.3c0.1,0,0.2,0.1,0.2,0.2l-0.1,4.4l0.1,4.5c0,0.1-0.1,0.2-0.2,0.2h-1.3V32.3z
			 M201.7,31.3c1.6,0,2.6-1.2,2.6-3.5c0-2.2-0.8-3.5-2.3-3.7c-0.1,0-0.3,0-0.4,0c-1.7,0.1-2.4,1.5-2.4,3.5
			C199.1,29.8,199.9,31.3,201.7,31.3z"/>
		<path class="st7" d="M214.1,32.3c-0.1,0-0.2-0.1-0.2-0.2v-1.3c-0.6,1-1.6,1.7-3,1.7c-2.5,0-3.8-2.1-3.8-4.8s1.4-4.8,3.9-4.8
			c1.3,0,2.3,0.5,2.9,1.6V20c0-0.1,0.1-0.2,0.2-0.2h1.3c0.1,0,0.2,0.1,0.2,0.2l-0.1,5.4l0.1,6.8c0,0.1-0.1,0.2-0.2,0.2h-1.3V32.3z
			 M211.4,31.3c1.6,0,2.6-1.2,2.6-3.5s-0.9-3.7-2.6-3.7c-1.8,0-2.6,1.5-2.6,3.5C208.9,29.8,209.7,31.3,211.4,31.3z"/>
		<path class="st7" d="M217.5,32.3c-0.1,0-0.2-0.1-0.2-0.2l0.1-4.1l-0.1-4.9c0-0.1,0.1-0.2,0.2-0.2h1.2c0.1,0,0.2,0.1,0.2,0.2v1.4
			c0.6-0.9,1.6-1.8,3.1-1.8c1.9,0,3.1,1.3,3.1,3.7v1.9l0.1,3.8c0,0.1-0.1,0.2-0.2,0.2h-1.3c-0.1,0-0.2-0.1-0.2-0.2v-3.8v-1.8
			c0-1.7-0.8-2.4-2-2.4s-2.2,1-2.6,2.8v1.4v3.8c0,0.1-0.1,0.2-0.2,0.2H217.5z"/>
		<path class="st7" d="M227,32.3c-0.1,0-0.2-0.1-0.2-0.2l0.1-4.6l-0.1-4.3c0-0.1,0.1-0.2,0.2-0.2h1.3c0.1,0,0.2,0.1,0.2,0.2
			l-0.1,4.3l0.1,4.6c0,0.1-0.1,0.2-0.2,0.2C228.3,32.3,227,32.3,227,32.3z M227,21.9c-0.1,0-0.2-0.1-0.2-0.2v-1.4
			c0-0.1,0.1-0.2,0.2-0.2h1.3c0.1,0,0.2,0.1,0.2,0.2v1.4c0,0.1-0.1,0.2-0.2,0.2H227z"/>
		<path class="st7" d="M240.7,32.1c0,0.1-0.1,0.2-0.2,0.2h-6.9c-0.1,0-0.2-0.1-0.2-0.2v-0.9c0-0.1,0-0.2,0.1-0.3l5-6.6H234
			c-0.1,0-0.2-0.1-0.2-0.2v-0.9c0-0.1,0.1-0.2,0.2-0.2h6.3c0.1,0,0.2,0.1,0.2,0.2v0.9c0,0.1,0,0.2-0.1,0.3l-5,6.6h5.2
			c0.1,0,0.2,0.1,0.2,0.2v0.9H240.7z"/>
		<path class="st7" d="M248.2,32.3c-0.1,0-0.2-0.1-0.2-0.2v-1.3c-0.6,1-1.6,1.7-3,1.7c-2.5,0-3.8-2.1-3.8-4.8s1.4-4.8,3.9-4.8
			c1.3,0,2.3,0.6,2.9,1.6v-1.2c0-0.1,0.1-0.2,0.2-0.2h1.3c0.1,0,0.2,0.1,0.2,0.2l-0.1,4.4l0.1,4.5c0,0.1-0.1,0.2-0.2,0.2h-1.3V32.3z
			 M245.5,31.3c1.6,0,2.6-1.2,2.6-3.5c0-2.2-0.8-3.5-2.3-3.7c-0.1,0-0.3,0-0.4,0c-1.7,0.1-2.4,1.5-2.4,3.5
			C242.9,29.8,243.7,31.3,245.5,31.3z"/>
		<path class="st7" d="M258.5,32.5c-2.4,0-4.1-1.1-4.2-3.2c0-0.1,0.1-0.2,0.2-0.2h1.2c0.1,0,0.2,0.1,0.2,0.2c0.1,1.5,1,2.1,2.6,2.1
			c1.4,0,2.3-0.6,2.3-1.6c0-2.4-6.3-0.5-6.3-4.2c0-1.8,1.5-2.7,3.7-2.7c2.1,0,3.7,0.9,3.9,2.8c0,0.1-0.1,0.2-0.2,0.2h-1.2
			c-0.1,0-0.2-0.1-0.2-0.2c-0.1-1.2-1-1.7-2.3-1.7s-2.1,0.5-2.1,1.5c0,2.3,6.3,0.3,6.3,4.2C262.4,31.5,260.7,32.5,258.5,32.5z"/>
		<path class="st7" d="M264,32.3c-0.1,0-0.2-0.1-0.2-0.2l0.1-6.2l-0.1-6c0-0.1,0.1-0.2,0.2-0.2h1.3c0.1,0,0.2,0.1,0.2,0.2l-0.1,6
			l0.1,6.2c0,0.1-0.1,0.2-0.2,0.2H264z"/>
		<path class="st7" d="M270.3,32.5c-1.9,0-3.1-1.3-3.1-3.7V27v-3.8c0-0.1,0.1-0.2,0.2-0.2h1.3c0.1,0,0.2,0.1,0.2,0.2V27v1.8
			c0,1.7,0.8,2.4,2,2.4s2.2-1,2.6-2.8V27v-3.8c0-0.1,0.1-0.2,0.2-0.2h1.3c0.1,0,0.2,0.1,0.2,0.2l-0.1,4.1v4.9c0,0.1-0.1,0.2-0.2,0.2
			h-1.2c-0.1,0-0.2-0.1-0.2-0.2l0.1-1.4C272.9,31.7,271.8,32.5,270.3,32.5z"/>
		<path class="st7" d="M280.7,32.5c-2.8,0-4.3-1.9-4.3-4.8s1.6-4.9,4.4-4.9c2.3,0,3.7,1.3,3.9,3.2c0,0.1-0.1,0.2-0.2,0.2h-1.2
			c-0.1,0-0.2-0.1-0.2-0.2c-0.2-1.4-1.2-2-2.4-2c-1.8,0-2.7,1.3-2.7,3.6c0,2.4,0.9,3.6,2.7,3.6c1.4,0,2.3-0.8,2.5-2.3
			c0-0.1,0.1-0.2,0.2-0.2h1.2c0.1,0,0.2,0.1,0.2,0.2C284.6,31.1,283.1,32.5,280.7,32.5z M281.2,21.9c-0.1,0.1-0.2,0.1-0.3,0.1h-0.4
			c-0.1,0-0.2,0-0.3-0.1l-2.3-1.4c-0.1-0.1-0.1-0.2-0.1-0.3l0.2-0.5c0-0.1,0.1-0.1,0.2-0.1l2.5,1.1l2.4-1.1c0.1,0,0.2,0,0.2,0.1
			l0.2,0.5c0,0.1,0,0.2-0.1,0.3L281.2,21.9z"/>
		<path class="st7" d="M292.7,32.3c-0.1,0-0.2-0.1-0.2-0.2v-1.3c-0.6,1-1.6,1.7-3,1.7c-2.5,0-3.8-2.1-3.8-4.8s1.4-4.8,3.9-4.8
			c1.3,0,2.3,0.6,2.9,1.6v-1.2c0-0.1,0.1-0.2,0.2-0.2h1.3c0.1,0,0.2,0.1,0.2,0.2l-0.1,4.4l0.1,4.5c0,0.1-0.1,0.2-0.2,0.2h-1.3V32.3z
			 M290,31.3c1.6,0,2.6-1.2,2.6-3.5c0-2.2-0.8-3.5-2.3-3.7c-0.1,0-0.3,0-0.4,0c-1.7,0.1-2.4,1.5-2.4,3.5
			C287.4,29.8,288.2,31.3,290,31.3z"/>
		<path class="st7" d="M296.1,35.4c-0.1,0-0.2-0.1-0.2-0.2l0.1-5.9l-0.1-6.1c0-0.1,0.1-0.2,0.2-0.2h1.3c0.1,0,0.2,0.1,0.2,0.2
			l-0.1,6.1l0.1,5.9c0,0.1-0.1,0.2-0.2,0.2H296.1z M296.1,21.9c-0.1,0-0.2-0.1-0.2-0.2v-1.4c0-0.1,0.1-0.2,0.2-0.2h1.3
			c0.1,0,0.2,0.1,0.2,0.2v1.4c0,0.1-0.1,0.2-0.2,0.2H296.1z"/>
		<path class="st7" d="M307.4,29.1c0.1,0,0.2,0.1,0.2,0.2c-0.3,1.9-1.7,3.3-4.1,3.3c-2.9,0-4.4-2-4.4-4.8c0-2.9,1.7-4.9,4.3-4.9
			c2.7,0,4.3,1.8,4.3,4.9c0,0.1-0.1,0.2-0.2,0.2h-6.8c0.1,2.2,1,3.4,2.8,3.4c1.4,0,2.2-0.7,2.5-2.1c0-0.1,0.1-0.2,0.2-0.2
			C306.2,29.1,307.4,29.1,307.4,29.1z M303.4,24c-1.5,0-2.4,1-2.6,2.7h5.2C305.9,25.3,305.1,24,303.4,24z"/>
		<path class="st7" d="M313.3,32.2c0,0.1-0.1,0.2-0.2,0.2h-1.6c-0.1,0-0.2-0.1-0.2-0.2l-3.3-9c0-0.1,0-0.2,0.1-0.2h1.4
			c0.1,0,0.2,0.1,0.2,0.2l2.6,7.8l2.7-7.8c0-0.1,0.1-0.2,0.2-0.2h1.2c0.1,0,0.1,0.1,0.1,0.2L313.3,32.2z"/>
		<path class="st7" d="M325,29.1c0.1,0,0.2,0.1,0.2,0.2c-0.3,1.9-1.7,3.3-4.1,3.3c-2.9,0-4.4-2-4.4-4.8c0-2.9,1.7-4.9,4.3-4.9
			s4.3,1.8,4.3,4.9c0,0.1-0.1,0.2-0.2,0.2h-6.8c0.1,2.2,1,3.4,2.8,3.4c1.4,0,2.2-0.7,2.5-2.1c0-0.1,0.1-0.2,0.2-0.2
			C323.8,29.1,325,29.1,325,29.1z M321,24c-1.5,0-2.4,1-2.6,2.7h5.2C323.5,25.3,322.7,24,321,24z"/>
		<path class="st7" d="M142.7,54.1c-1.9,0-3.1-1.3-3.1-3.7v-1.8v-3.8c0-0.1,0.1-0.2,0.2-0.2h1.3c0.1,0,0.2,0.1,0.2,0.2v3.8v1.8
			c0,1.7,0.8,2.4,2,2.4s2.2-1,2.6-2.8v-1.4v-3.8c0-0.1,0.1-0.2,0.2-0.2h1.3c0.1,0,0.2,0.1,0.2,0.2l-0.1,4.1v4.9
			c0,0.1-0.1,0.2-0.2,0.2h-1.2c-0.1,0-0.2-0.1-0.2-0.2l0.1-1.4C145.2,53.3,144.2,54.1,142.7,54.1z"/>
		<path class="st7" d="M153,57.5c-2.1,0-3.8-0.9-4-2.8c0-0.1,0.1-0.2,0.2-0.2h1.3c0.1,0,0.2,0.1,0.2,0.2c0.2,1.1,1.1,1.7,2.4,1.7
			c1.6,0,2.6-0.9,2.6-3v-1c-0.6,1-1.6,1.6-2.9,1.6c-2.6,0-4-2-4-4.6s1.4-4.8,3.9-4.8c1.3,0,2.3,0.6,2.9,1.6l-0.1-1.3
			c0-0.1,0.1-0.2,0.2-0.2h1.3c0.1,0,0.2,0.1,0.2,0.2v3.5v4.9C157.2,56,155.7,57.5,153,57.5z M153.1,52.7c1.5,0,2.5-1.1,2.5-3.4
			c0-2.2-0.8-3.5-2.3-3.6c-0.1,0-0.3,0-0.4,0c-1.6,0.1-2.4,1.4-2.4,3.5C150.4,51.4,151.3,52.7,153.1,52.7z"/>
		<path class="st7" d="M165.5,53.9c-0.1,0-0.2-0.1-0.2-0.2v-1.3c-0.6,1-1.6,1.7-3,1.7c-2.5,0-3.8-2.1-3.8-4.8s1.4-4.8,3.9-4.8
			c1.3,0,2.3,0.6,2.9,1.6v-1.2c0-0.1,0.1-0.2,0.2-0.2h1.3c0.1,0,0.2,0.1,0.2,0.2l-0.1,4.4l0.1,4.5c0,0.1-0.1,0.2-0.2,0.2h-1.3V53.9z
			 M162.8,52.9c1.6,0,2.6-1.2,2.6-3.5c0-2.2-0.8-3.5-2.3-3.7c-0.1,0-0.3,0-0.4,0c-1.7,0.1-2.4,1.5-2.4,3.5
			C160.2,51.4,161,52.9,162.8,52.9z"/>
		<path class="st7" d="M168.8,53.9c-0.1,0-0.2-0.1-0.2-0.2l0.1-4.1l-0.1-4.9c0-0.1,0.1-0.2,0.2-0.2h1.2c0.1,0,0.2,0.1,0.2,0.2v1.4
			c0.6-0.9,1.6-1.8,3.1-1.8c1.9,0,3.1,1.3,3.1,3.7v2l0.1,3.8c0,0.1-0.1,0.2-0.2,0.2H175c-0.1,0-0.2-0.1-0.2-0.2V50v-1.8
			c0-1.7-0.8-2.4-2-2.4s-2.2,1-2.6,2.8V50v3.8c0,0.1-0.1,0.2-0.2,0.2L168.8,53.9L168.8,53.9z"/>
		<path class="st7" d="M181.2,54.1c-1.9,0-3.1-1.3-3.1-3.7v-1.8v-3.8c0-0.1,0.1-0.2,0.2-0.2h1.3c0.1,0,0.2,0.1,0.2,0.2v3.8v1.8
			c0,1.7,0.8,2.4,2,2.4s2.2-1,2.6-2.8v-1.4v-3.8c0-0.1,0.1-0.2,0.2-0.2h1.3c0.1,0,0.2,0.1,0.2,0.2l-0.1,4.1v4.9
			c0,0.1-0.1,0.2-0.2,0.2h-1.2c-0.1,0-0.2-0.1-0.2-0.2l0.1-1.4C183.7,53.3,182.6,54.1,181.2,54.1z"/>
		<path class="st7" d="M191.5,54.1c-2.8,0-4.3-1.9-4.3-4.8s1.6-4.9,4.4-4.9c2.3,0,3.7,1.3,3.9,3.2c0,0.1-0.1,0.2-0.2,0.2h-1.2
			c-0.1,0-0.2-0.1-0.2-0.2c-0.2-1.4-1.2-2-2.4-2c-1.8,0-2.7,1.3-2.7,3.6c0,2.4,0.9,3.6,2.7,3.6c1.4,0,2.3-0.8,2.5-2.3
			c0-0.1,0.1-0.2,0.2-0.2h1.2c0.1,0,0.2,0.1,0.2,0.2C195.4,52.7,193.9,54.1,191.5,54.1z M190,43.7c-0.1,0-0.2,0-0.2-0.1l-0.2-0.5
			c0-0.1,0-0.2,0.1-0.2l3.9-1.8c0.1,0,0.2,0,0.2,0.1l0.3,1c0,0.1,0,0.2-0.1,0.2L190,43.7z"/>
		<path class="st7" d="M203.5,53.9c-0.1,0-0.2-0.1-0.2-0.2v-1.3c-0.6,1-1.6,1.7-3,1.7c-2.5,0-3.8-2.1-3.8-4.8s1.4-4.8,3.9-4.8
			c1.3,0,2.3,0.6,2.9,1.6v-1.2c0-0.1,0.1-0.2,0.2-0.2h1.3c0.1,0,0.2,0.1,0.2,0.2l-0.1,4.4l0.1,4.5c0,0.1-0.1,0.2-0.2,0.2h-1.3V53.9z
			 M200.8,52.9c1.6,0,2.6-1.2,2.6-3.5c0-2.2-0.8-3.5-2.3-3.7c-0.1,0-0.3,0-0.4,0c-1.7,0.1-2.4,1.5-2.4,3.5
			C198.2,51.4,199,52.9,200.8,52.9z"/>
		<path class="st7" d="M206.3,55.7c-0.1,0-0.2-0.1-0.1-0.2l0.4-1.6v-1.7c0-0.1,0.1-0.2,0.2-0.2h1.3c0.1,0,0.2,0.1,0.2,0.2v1.5
			c0,0.1,0,0.2-0.1,0.3l-1,1.5c-0.1,0.1-0.2,0.1-0.3,0.1h-0.6V55.7z"/>
		<path class="st7" d="M217.3,54.1c-1.3,0-2.3-0.5-2.9-1.5v4.2c0,0.1-0.1,0.2-0.2,0.2h-1.3c-0.1,0-0.2-0.1-0.2-0.2l0.1-6.9l-0.1-5.1
			c0-0.1,0.1-0.2,0.2-0.2h1.3c0.1,0,0.2,0.1,0.2,0.2v1.3c0.6-1,1.6-1.7,3-1.7c2.5,0,3.8,2.1,3.8,4.8
			C221.1,51.9,219.7,54.1,217.3,54.1z M216.9,52.9c1.8,0,2.6-1.4,2.6-3.5c0-2.2-0.8-3.7-2.6-3.7c-1.6,0-2.6,1.2-2.6,3.5
			C214.3,51.5,215.2,52.9,216.9,52.9z"/>
		<path class="st7" d="M229.1,53.9c-0.1,0-0.2-0.1-0.2-0.2v-1.3c-0.6,1-1.6,1.7-3,1.7c-2.5,0-3.8-2.1-3.8-4.8s1.4-4.8,3.9-4.8
			c1.3,0,2.3,0.6,2.9,1.6v-1.2c0-0.1,0.1-0.2,0.2-0.2h1.3c0.1,0,0.2,0.1,0.2,0.2l-0.1,4.4l0.1,4.5c0,0.1-0.1,0.2-0.2,0.2h-1.3V53.9z
			 M226.4,52.9c1.6,0,2.6-1.2,2.6-3.5c0-2.2-0.8-3.5-2.3-3.7c-0.1,0-0.3,0-0.4,0c-1.7,0.1-2.4,1.5-2.4,3.5
			C223.9,51.4,224.7,52.9,226.4,52.9z"/>
		<path class="st7" d="M238.9,53.9c-0.1,0-0.2-0.1-0.2-0.2v-1.3c-0.6,1-1.6,1.7-3,1.7c-2.5,0-3.8-2.1-3.8-4.8s1.4-4.8,3.9-4.8
			c1.3,0,2.3,0.5,2.9,1.6v-4.5c0-0.1,0.1-0.2,0.2-0.2h1.3c0.1,0,0.2,0.1,0.2,0.2l-0.1,5.4l0.1,6.8c0,0.1-0.1,0.2-0.2,0.2h-1.3V53.9z
			 M236.2,52.9c1.6,0,2.6-1.2,2.6-3.5s-0.9-3.7-2.6-3.7c-1.8,0-2.6,1.5-2.6,3.5C233.7,51.4,234.5,52.9,236.2,52.9z"/>
		<path class="st7" d="M246.2,54.1c-2.8,0-4.4-1.9-4.4-4.8c0-2.9,1.6-4.9,4.4-4.9c2.8,0,4.4,1.9,4.4,4.8S249,54.1,246.2,54.1z
			 M246.2,52.9c1.8,0,2.7-1.3,2.7-3.6s-0.9-3.7-2.7-3.7s-2.7,1.4-2.7,3.7S244.4,52.9,246.2,52.9z"/>
		<path class="st7" d="M256.1,53.8c0,0.1-0.1,0.2-0.2,0.2h-1.6c-0.1,0-0.2-0.1-0.2-0.2l-3.3-9c0-0.1,0-0.2,0.1-0.2h1.4
			c0.1,0,0.2,0.1,0.2,0.2l2.6,7.8l2.7-7.8c0-0.1,0.1-0.2,0.2-0.2h1.2c0.1,0,0.1,0.1,0.1,0.2L256.1,53.8z"/>
		<path class="st7" d="M266.5,53.9c-0.1,0-0.2-0.1-0.2-0.2v-1.3c-0.6,1-1.6,1.7-3,1.7c-2.5,0-3.8-2.1-3.8-4.8s1.4-4.8,3.9-4.8
			c1.3,0,2.3,0.6,2.9,1.6v-1.2c0-0.1,0.1-0.2,0.2-0.2h1.3c0.1,0,0.2,0.1,0.2,0.2l-0.1,4.4l0.1,4.5c0,0.1-0.1,0.2-0.2,0.2h-1.3V53.9z
			 M263.8,52.9c1.6,0,2.6-1.2,2.6-3.5c0-2.2-0.8-3.5-2.3-3.7c-0.1,0-0.3,0-0.4,0c-1.7,0.1-2.4,1.5-2.4,3.5
			C261.2,51.4,262,52.9,263.8,52.9z"/>
		<path class="st7" d="M269.3,55.7c-0.1,0-0.2-0.1-0.1-0.2l0.4-1.6v-1.7c0-0.1,0.1-0.2,0.2-0.2h1.3c0.1,0,0.2,0.1,0.2,0.2v1.5
			c0,0.1,0,0.2-0.1,0.3l-1,1.5c-0.1,0.1-0.2,0.1-0.3,0.1h-0.6V55.7z"/>
		<path class="st7" d="M279.7,54.1c-2.8,0-4.4-1.9-4.4-4.8c0-2.9,1.6-4.9,4.4-4.9s4.4,1.9,4.4,4.8S282.5,54.1,279.7,54.1z
			 M279.7,52.9c1.8,0,2.7-1.3,2.7-3.6s-0.9-3.7-2.7-3.7c-1.8,0-2.7,1.4-2.7,3.7S277.8,52.9,279.7,52.9z"/>
		<path class="st7" d="M289.8,53.6c0,0.1-0.1,0.2-0.2,0.2c-0.4,0.1-0.8,0.2-1.2,0.2c-1.4,0-2.5-0.7-2.5-2.7v-5.4h-1
			c-0.1,0-0.2-0.1-0.2-0.2v-0.9c0-0.1,0.1-0.2,0.2-0.2h1v-2.1c0-0.1,0.1-0.2,0.2-0.2h1.3c0.1,0,0.2,0.1,0.2,0.2v2.1h2.1
			c0.1,0,0.2,0.1,0.2,0.2v0.9c0,0.1-0.1,0.2-0.2,0.2h-2.1v5.4c0,1.1,0.4,1.5,1.2,1.5c0.3,0,0.7-0.1,0.9-0.1c0.1,0,0.2,0,0.2,0.1v0.8
			H289.8z"/>
		<path class="st7" d="M298.6,50.7c0.1,0,0.2,0.1,0.2,0.2c-0.3,1.9-1.7,3.3-4.1,3.3c-2.9,0-4.4-2-4.4-4.8c0-2.9,1.7-4.9,4.3-4.9
			c2.7,0,4.3,1.8,4.3,4.9c0,0.1-0.1,0.2-0.2,0.2h-6.8c0.1,2.2,1,3.4,2.8,3.4c1.4,0,2.2-0.7,2.5-2.1c0-0.1,0.1-0.2,0.2-0.2
			C297.4,50.7,298.6,50.7,298.6,50.7z M294.6,45.6c-1.5,0-2.4,1-2.6,2.7h5.2C297.1,46.9,296.3,45.6,294.6,45.6z"/>
		<path class="st7" d="M305,52.4l-2-3.2l-1.2,1.3v3.2c0,0.1-0.1,0.2-0.2,0.2h-1.3c-0.1,0-0.2-0.1-0.2-0.2l0.1-6.1l-0.1-6.2
			c0-0.1,0.1-0.2,0.2-0.2h1.3c0.1,0,0.2,0.1,0.2,0.2l-0.1,6.1v1l3.5-3.9c0.1-0.1,0.2-0.1,0.3-0.1h1.5c0.1,0,0.1,0.1,0.1,0.1l-3,3.3
			l3.4,5.7c0,0.1,0,0.2-0.1,0.2H306c-0.1,0-0.2-0.1-0.3-0.2L305,52.4z"/>
		<path class="st7" d="M308.9,53.9c-0.1,0-0.2-0.1-0.2-0.2l0.1-6.2l-0.1-6c0-0.1,0.1-0.2,0.2-0.2h1.3c0.1,0,0.2,0.1,0.2,0.2l-0.1,6
			l0.1,6.2c0,0.1-0.1,0.2-0.2,0.2H308.9z"/>
		<path class="st7" d="M312.5,53.9c-0.1,0-0.2-0.1-0.2-0.2l0.1-4.6l-0.1-4.3c0-0.1,0.1-0.2,0.2-0.2h1.3c0.1,0,0.2,0.1,0.2,0.2
			l-0.1,4.3l0.1,4.6c0,0.1-0.1,0.2-0.2,0.2H312.5z M312.5,43.5c-0.1,0-0.2-0.1-0.2-0.2v-1.4c0-0.1,0.1-0.2,0.2-0.2h1.3
			c0.1,0,0.2,0.1,0.2,0.2v1.4c0,0.1-0.1,0.2-0.2,0.2H312.5z"/>
		<path class="st7" d="M316,53.9c-0.1,0-0.2-0.1-0.2-0.2l0.1-4.1l-0.1-4.9c0-0.1,0.1-0.2,0.2-0.2h1.2c0.1,0,0.2,0.1,0.2,0.2v1.4
			c0.6-0.9,1.6-1.8,3.1-1.8c1.9,0,3.1,1.3,3.1,3.7v2l0.1,3.8c0,0.1-0.1,0.2-0.2,0.2h-1.3c-0.1,0-0.2-0.1-0.2-0.2V50v-1.8
			c0-1.7-0.8-2.4-2-2.4s-2.2,1-2.6,2.8V50v3.8c0,0.1-0.1,0.2-0.2,0.2L316,53.9L316,53.9z"/>
		<path class="st7" d="M331.9,53.9c-0.1,0-0.2-0.1-0.2-0.2v-1.3c-0.6,1-1.6,1.7-3,1.7c-2.5,0-3.8-2.1-3.8-4.8s1.4-4.8,3.9-4.8
			c1.3,0,2.3,0.6,2.9,1.6v-1.2c0-0.1,0.1-0.2,0.2-0.2h1.3c0.1,0,0.2,0.1,0.2,0.2l-0.1,4.4l0.1,4.5c0,0.1-0.1,0.2-0.2,0.2h-1.3V53.9z
			 M329.2,52.9c1.6,0,2.6-1.2,2.6-3.5c0-2.2-0.8-3.5-2.3-3.7c-0.1,0-0.3,0-0.4,0c-1.7,0.1-2.4,1.5-2.4,3.5
			C326.6,51.4,327.4,52.9,329.2,52.9z"/>
		<path class="st7" d="M144.2,75.7c-1.3,0-2.3-0.5-2.9-1.5v4.2c0,0.1-0.1,0.2-0.2,0.2h-1.3c-0.1,0-0.2-0.1-0.2-0.2l0.1-6.9l-0.1-5.1
			c0-0.1,0.1-0.2,0.2-0.2h1.3c0.1,0,0.2,0.1,0.2,0.2v1.3c0.6-1,1.6-1.7,3-1.7c2.5,0,3.8,2.1,3.8,4.8
			C148.1,73.5,146.6,75.7,144.2,75.7z M143.8,74.5c1.8,0,2.6-1.4,2.6-3.5c0-2.2-0.8-3.7-2.6-3.7c-1.6,0-2.6,1.2-2.6,3.5
			C141.2,73.1,142.1,74.5,143.8,74.5z"/>
		<path class="st7" d="M149.6,75.5c-0.1,0-0.2-0.1-0.2-0.2l0.1-4.6l-0.1-4.4c0-0.1,0.1-0.2,0.2-0.2h1.3c0.1,0,0.2,0.1,0.2,0.2
			L151,68c0.6-1.2,1.9-1.8,3.2-1.8c0.2,0,0.4,0,0.5,0.1c0.1,0,0.2,0.1,0.2,0.2v1c0,0.1-0.1,0.2-0.2,0.2c-0.1,0-0.3,0-0.5,0
			c-1.5,0-2.9,0.9-3.1,3v4.9c0,0.1-0.1,0.2-0.2,0.2h-1.3V75.5z"/>
		<path class="st7" d="M159.3,75.7c-2.8,0-4.4-1.9-4.4-4.8s1.6-4.9,4.4-4.9c2.8,0,4.4,1.9,4.4,4.8S162.1,75.7,159.3,75.7z
			 M159.3,74.5c1.8,0,2.7-1.3,2.7-3.6s-0.9-3.7-2.7-3.7s-2.7,1.4-2.7,3.7S157.5,74.5,159.3,74.5z"/>
		<path class="st7" d="M168.1,75.7c-1.9,0-3.1-1.3-3.1-3.7v-1.8v-3.8c0-0.1,0.1-0.2,0.2-0.2h1.3c0.1,0,0.2,0.1,0.2,0.2v3.8V72
			c0,1.7,0.8,2.4,2,2.4s2.2-1,2.6-2.8v-1.4v-3.8c0-0.1,0.1-0.2,0.2-0.2h1.3c0.1,0,0.2,0.1,0.2,0.2l-0.1,4.1v4.9
			c0,0.1-0.1,0.2-0.2,0.2h-1.2c-0.1,0-0.2-0.1-0.2-0.2l0.1-1.4C170.6,74.9,169.6,75.7,168.1,75.7z"/>
		<path class="st7" d="M181.5,75.3c0,0.1-0.1,0.2-0.2,0.2h-6.9c-0.1,0-0.2-0.1-0.2-0.2v-0.9c0-0.1,0-0.2,0.1-0.3l5-6.6h-4.5
			c-0.1,0-0.2-0.1-0.2-0.2v-0.9c0-0.1,0.1-0.2,0.2-0.2h6.3c0.1,0,0.2,0.1,0.2,0.2v0.9c0,0.1,0,0.2-0.1,0.3l-5,6.6h5.2
			c0.1,0,0.2,0.1,0.2,0.2v0.9H181.5z"/>
		<path class="st7" d="M183.1,75.5c-0.1,0-0.2-0.1-0.2-0.2l0.1-4.6l-0.1-4.4c0-0.1,0.1-0.2,0.2-0.2h1.3c0.1,0,0.2,0.1,0.2,0.2
			l-0.1,1.6c0.6-1.2,1.9-1.8,3.2-1.8c0.2,0,0.4,0,0.5,0.1c0.1,0,0.2,0.1,0.2,0.2v1c0,0.1-0.1,0.2-0.2,0.2c-0.1,0-0.3,0-0.5,0
			c-1.5,0-2.9,0.9-3.1,3v4.9c0,0.1-0.1,0.2-0.2,0.2h-1.3V75.5z"/>
		<path class="st7" d="M192.7,75.7c-2.8,0-4.4-1.9-4.4-4.8s1.6-4.9,4.4-4.9c2.8,0,4.4,1.9,4.4,4.8S195.6,75.7,192.7,75.7z
			 M192.7,74.5c1.8,0,2.7-1.3,2.7-3.6s-0.9-3.7-2.7-3.7s-2.7,1.4-2.7,3.7S190.9,74.5,192.7,74.5z"/>
		<path class="st7" d="M202.5,75.7c-2.8,0-4.3-1.9-4.3-4.8s1.6-4.9,4.4-4.9c2.3,0,3.7,1.3,3.9,3.2c0,0.1-0.1,0.2-0.2,0.2h-1.2
			c-0.1,0-0.2-0.1-0.2-0.2c-0.2-1.4-1.2-2-2.4-2c-1.8,0-2.7,1.3-2.7,3.6c0,2.4,0.9,3.6,2.7,3.6c1.4,0,2.3-0.8,2.5-2.3
			c0-0.1,0.1-0.2,0.2-0.2h1.2c0.1,0,0.2,0.1,0.2,0.2C206.4,74.3,204.9,75.7,202.5,75.7z M202.9,65.1c-0.1,0.1-0.2,0.1-0.3,0.1h-0.4
			c-0.1,0-0.2,0-0.3-0.1l-2.3-1.4c-0.1-0.1-0.1-0.2-0.1-0.3l0.2-0.5c0-0.1,0.1-0.1,0.2-0.1l2.5,1.1l2.4-1.1c0.1,0,0.2,0,0.2,0.1
			l0.2,0.5c0,0.1,0,0.2-0.1,0.3L202.9,65.1z"/>
		<path class="st7" d="M215.9,72.3c0.1,0,0.2,0.1,0.2,0.2c-0.3,1.9-1.7,3.3-4.1,3.3c-2.9,0-4.4-2-4.4-4.8c0-2.9,1.7-4.9,4.3-4.9
			c2.7,0,4.3,1.8,4.3,4.9c0,0.1-0.1,0.2-0.2,0.2h-6.8c0.1,2.2,1,3.4,2.8,3.4c1.4,0,2.2-0.7,2.5-2.1c0-0.1,0.1-0.2,0.2-0.2H215.9z
			 M211.9,67.2c-1.5,0-2.4,1-2.6,2.7h5.2C214.4,68.5,213.5,67.2,211.9,67.2z"/>
		<path class="st7" d="M217.7,75.5c-0.1,0-0.2-0.1-0.2-0.2l0.1-4.1l-0.1-4.9c0-0.1,0.1-0.2,0.2-0.2h1.2c0.1,0,0.2,0.1,0.2,0.2v1.4
			c0.6-0.9,1.6-1.8,3.1-1.8c1.9,0,3.1,1.3,3.1,3.7v1.9l0.1,3.8c0,0.1-0.1,0.2-0.2,0.2h-1.3c-0.1,0-0.2-0.1-0.2-0.2v-3.8v-1.8
			c0-1.7-0.8-2.4-2-2.4s-2.2,1-2.6,2.8v1.4v3.8c0,0.1-0.1,0.2-0.2,0.2H217.7z"/>
		<path class="st7" d="M227.2,75.5c-0.1,0-0.2-0.1-0.2-0.2l0.1-4.6l-0.1-4.3c0-0.1,0.1-0.2,0.2-0.2h1.3c0.1,0,0.2,0.1,0.2,0.2
			l-0.1,4.3l0.1,4.6c0,0.1-0.1,0.2-0.2,0.2H227.2z M227.3,65.1c-0.1,0-0.2-0.1-0.2-0.2v-1.4c0-0.1,0.1-0.2,0.2-0.2h1.3
			c0.1,0,0.2,0.1,0.2,0.2V65c0,0.1-0.1,0.2-0.2,0.2L227.3,65.1L227.3,65.1z"/>
		<path class="st7" d="M234.8,67.3c-1.2,0-2.2,1-2.6,2.6l0.1,5.4c0,0.1-0.1,0.2-0.2,0.2h-1.3c-0.1,0-0.2-0.1-0.2-0.2l0.1-6.2l-0.1-6
			c0-0.1,0.1-0.2,0.2-0.2h1.3c0.1,0,0.2,0.1,0.2,0.2l-0.1,4.6c0.6-1,1.6-1.7,3-1.7c2,0,3.2,1.2,3.2,3.9v1.9l0.1,3.6
			c0,0.1-0.1,0.2-0.2,0.2H237c-0.1,0-0.2-0.1-0.2-0.2l0.1-3.5v-2C236.7,68,235.9,67.3,234.8,67.3z"/>
		<path class="st7" d="M246.4,75.7c-1.9,0-3.1-1.3-3.1-3.7v-1.8v-3.8c0-0.1,0.1-0.2,0.2-0.2h1.3c0.1,0,0.2,0.1,0.2,0.2v3.8V72
			c0,1.7,0.8,2.4,2,2.4s2.2-1,2.6-2.8v-1.4v-3.8c0-0.1,0.1-0.2,0.2-0.2h1.3c0.1,0,0.2,0.1,0.2,0.2l-0.1,4.1v4.9
			c0,0.1-0.1,0.2-0.2,0.2h-1.2c-0.1,0-0.2-0.1-0.2-0.2l0.1-1.4C248.9,74.9,247.9,75.7,246.4,75.7z"/>
		<path class="st7" d="M257.3,75.7c-1.3,0-2.3-0.6-2.9-1.6v1.2c0,0.1-0.1,0.2-0.2,0.2H253c-0.1,0-0.2-0.1-0.2-0.2l0.1-6.7l-0.1-5.5
			c0-0.1,0.1-0.2,0.2-0.2h1.3c0.1,0,0.2,0.1,0.2,0.2v4.6c0.6-1,1.6-1.6,3-1.6c2.5,0,3.8,2.1,3.8,4.8
			C261.2,73.5,259.8,75.7,257.3,75.7z M256.9,74.5c1.8,0,2.6-1.4,2.6-3.5c0-2.2-0.8-3.7-2.6-3.7c-1.6,0-2.6,1.2-2.6,3.5
			C254.4,73.1,255.3,74.5,256.9,74.5z"/>
		<path class="st7" d="M266.7,75.7c-2.8,0-4.4-1.9-4.4-4.8s1.6-4.9,4.4-4.9s4.4,1.9,4.4,4.8S269.5,75.7,266.7,75.7z M266.7,74.5
			c1.8,0,2.7-1.3,2.7-3.6s-0.9-3.7-2.7-3.7c-1.8,0-2.7,1.4-2.7,3.7S264.8,74.5,266.7,74.5z"/>
		<path class="st7" d="M279,75.5c-0.1,0-0.2-0.1-0.2-0.2V74c-0.6,1-1.6,1.7-3,1.7c-2.5,0-3.8-2.1-3.8-4.8c0-2.7,1.4-4.8,3.9-4.8
			c1.3,0,2.3,0.5,2.9,1.6v-4.5c0-0.1,0.1-0.2,0.2-0.2h1.3c0.1,0,0.2,0.1,0.2,0.2l-0.1,5.4l0.1,6.8c0,0.1-0.1,0.2-0.2,0.2L279,75.5
			L279,75.5z M276.4,74.5c1.6,0,2.6-1.2,2.6-3.5s-0.9-3.7-2.6-3.7c-1.8,0-2.6,1.5-2.6,3.5C273.8,73,274.6,74.5,276.4,74.5z"/>
		<path class="st7" d="M286.3,75.7c-2.8,0-4.4-1.9-4.4-4.8s1.6-4.9,4.4-4.9s4.4,1.9,4.4,4.8S289.1,75.7,286.3,75.7z M286.3,74.5
			c1.8,0,2.7-1.3,2.7-3.6s-0.9-3.7-2.7-3.7c-1.8,0-2.7,1.4-2.7,3.7S284.5,74.5,286.3,74.5z"/>
		<path class="st7" d="M293.7,71.9l0.1,3.4c0,0.1-0.1,0.2-0.2,0.2h-1.4c-0.1,0-0.2-0.1-0.2-0.2l0.1-3.4l-0.1-5.5
			c0-0.1,0.1-0.2,0.2-0.2h1.3c0.1,0,0.2,0.1,0.2,0.2v1.4c0.6-1,1.5-1.8,2.9-1.8c1.3,0,2.3,0.6,2.7,1.9c0.6-1.3,1.6-1.9,2.9-1.9
			c1.8,0,2.9,1.2,2.9,3.7v2.2v3.4c0,0.1-0.1,0.2-0.2,0.2h-1.3c-0.1,0-0.2-0.1-0.2-0.2l0.1-3.4v-2.1c0-1.7-0.7-2.4-1.8-2.4
			c-1,0-1.8,0.9-2.2,2.4v2.1l0.1,3.4c0,0.1-0.1,0.2-0.2,0.2H298c-0.1,0-0.2-0.1-0.2-0.2l0.1-3.4v-2.1c0-1.7-0.7-2.4-1.8-2.4
			c-1.1,0-2,1-2.3,2.8v1.7H293.7z"/>
		<path class="st7" d="M310.3,75.5c-0.1,0-0.2-0.1-0.2-0.2l0.1-4.6l-0.1-4.3c0-0.1,0.1-0.2,0.2-0.2h1.3c0.1,0,0.2,0.1,0.2,0.2
			l-0.1,4.3l0.1,4.6c0,0.1-0.1,0.2-0.2,0.2H310.3z M310.3,65.1c-0.1,0-0.2-0.1-0.2-0.2v-1.4c0-0.1,0.1-0.2,0.2-0.2h1.3
			c0.1,0,0.2,0.1,0.2,0.2V65c0,0.1-0.1,0.2-0.2,0.2L310.3,65.1L310.3,65.1z"/>
		<path class="st7" d="M313.8,75.5c-0.1,0-0.2-0.1-0.2-0.2l0.1-4.1l-0.1-4.9c0-0.1,0.1-0.2,0.2-0.2h1.2c0.1,0,0.2,0.1,0.2,0.2v1.4
			c0.6-0.9,1.6-1.8,3.1-1.8c1.9,0,3.1,1.3,3.1,3.7v1.9l0.1,3.8c0,0.1-0.1,0.2-0.2,0.2H320c-0.1,0-0.2-0.1-0.2-0.2v-3.8v-1.8
			c0-1.7-0.8-2.4-2-2.4s-2.2,1-2.6,2.8v1.4v3.8c0,0.1-0.1,0.2-0.2,0.2H313.8z"/>
		<path class="st7" d="M326.8,75.7c-2.4,0-4.1-1.1-4.2-3.2c0-0.1,0.1-0.2,0.2-0.2h1.2c0.1,0,0.2,0.1,0.2,0.2c0.1,1.5,1,2.1,2.6,2.1
			c1.4,0,2.3-0.6,2.3-1.6c0-2.4-6.3-0.5-6.3-4.2c0-1.8,1.5-2.7,3.7-2.7c2.1,0,3.7,0.9,3.9,2.8c0,0.1-0.1,0.2-0.2,0.2H329
			c-0.1,0-0.2-0.1-0.2-0.2c-0.1-1.2-1-1.7-2.3-1.7s-2.1,0.5-2.1,1.5c0,2.3,6.3,0.3,6.3,4.2C330.7,74.7,329,75.7,326.8,75.7z"/>
		<path class="st7" d="M340.1,72.3c0.1,0,0.2,0.1,0.2,0.2c-0.3,1.9-1.7,3.3-4.1,3.3c-2.9,0-4.4-2-4.4-4.8c0-2.9,1.7-4.9,4.3-4.9
			s4.3,1.8,4.3,4.9c0,0.1-0.1,0.2-0.2,0.2h-6.8c0.1,2.2,1,3.4,2.8,3.4c1.4,0,2.2-0.7,2.5-2.1c0-0.1,0.1-0.2,0.2-0.2H340.1z
			 M336.1,67.2c-1.5,0-2.4,1-2.6,2.7h5.2C338.6,68.5,337.7,67.2,336.1,67.2z"/>
		<path class="st7" d="M346.5,74l-2-3.2l-1.2,1.3v3.2c0,0.1-0.1,0.2-0.2,0.2h-1.3c-0.1,0-0.2-0.1-0.2-0.2l0.1-6.1l-0.1-6.2
			c0-0.1,0.1-0.2,0.2-0.2h1.3c0.1,0,0.2,0.1,0.2,0.2l-0.1,6.1v1l3.5-3.9c0.1-0.1,0.2-0.1,0.3-0.1h1.5c0.1,0,0.1,0.1,0.1,0.1l-3,3.3
			l3.4,5.7c0,0.1,0,0.2-0.1,0.2h-1.5c-0.1,0-0.2-0.1-0.3-0.2L346.5,74z"/>
		<path class="st7" d="M356.1,75.5c-0.1,0-0.2-0.1-0.2-0.2V74c-0.6,1-1.6,1.7-3,1.7c-2.5,0-3.8-2.1-3.8-4.8s1.4-4.8,3.9-4.8
			c1.3,0,2.3,0.6,2.9,1.6v-1.2c0-0.1,0.1-0.2,0.2-0.2h1.3c0.1,0,0.2,0.1,0.2,0.2l-0.1,4.4l0.1,4.5c0,0.1-0.1,0.2-0.2,0.2L356.1,75.5
			L356.1,75.5z M353.4,74.5c1.6,0,2.6-1.2,2.6-3.5c0-2.2-0.8-3.5-2.3-3.7c-0.1,0-0.3,0-0.4,0c-1.7,0.1-2.4,1.5-2.4,3.5
			C350.8,73,351.6,74.5,353.4,74.5z"/>
		<path class="st7" d="M363.9,75.2c0,0.1-0.1,0.2-0.2,0.2c-0.4,0.1-0.8,0.2-1.2,0.2c-1.4,0-2.5-0.7-2.5-2.7v-5.4h-1
			c-0.1,0-0.2-0.1-0.2-0.2v-0.9c0-0.1,0.1-0.2,0.2-0.2h1v-2.1c0-0.1,0.1-0.2,0.2-0.2h1.3c0.1,0,0.2,0.1,0.2,0.2v2.1h2.1
			c0.1,0,0.2,0.1,0.2,0.2v0.9c0,0.1-0.1,0.2-0.2,0.2h-2.1v5.4c0,1.1,0.4,1.5,1.2,1.5c0.3,0,0.7-0.1,0.9-0.1c0.1,0,0.2,0,0.2,0.1v0.8
			H363.9z"/>
		<path class="st7" d="M371.3,75.5c-0.1,0-0.2-0.1-0.2-0.2V74c-0.6,1-1.6,1.7-3,1.7c-2.5,0-3.8-2.1-3.8-4.8s1.4-4.8,3.9-4.8
			c1.3,0,2.3,0.6,2.9,1.6v-1.2c0-0.1,0.1-0.2,0.2-0.2h1.3c0.1,0,0.2,0.1,0.2,0.2l-0.1,4.4l0.1,4.5c0,0.1-0.1,0.2-0.2,0.2L371.3,75.5
			L371.3,75.5z M368.6,74.5c1.6,0,2.6-1.2,2.6-3.5c0-2.2-0.8-3.5-2.3-3.7c-0.1,0-0.3,0-0.4,0c-1.7,0.1-2.4,1.5-2.4,3.5
			C366,73,366.9,74.5,368.6,74.5z"/>
		<path class="st7" d="M139.9,97.1c-0.1,0-0.2-0.1-0.2-0.2l0.1-4.6l-0.1-4.3c0-0.1,0.1-0.2,0.2-0.2h1.3c0.1,0,0.2,0.1,0.2,0.2
			l-0.1,4.3l0.1,4.6c0,0.1-0.1,0.2-0.2,0.2H139.9z M139.9,86.7c-0.1,0-0.2-0.1-0.2-0.2v-1.4c0-0.1,0.1-0.2,0.2-0.2h1.3
			c0.1,0,0.2,0.1,0.2,0.2v1.4c0,0.1-0.1,0.2-0.2,0.2H139.9z"/>
		<path class="st7" d="M143.5,97.1c-0.1,0-0.2-0.1-0.2-0.2l0.1-6.2l-0.1-6c0-0.1,0.1-0.2,0.2-0.2h1.3c0.1,0,0.2,0.1,0.2,0.2l-0.1,6
			l0.1,6.2c0,0.1-0.1,0.2-0.2,0.2H143.5z"/>
		<path class="st7" d="M147,97.1c-0.1,0-0.2-0.1-0.2-0.2l0.1-4.6l-0.1-4.3c0-0.1,0.1-0.2,0.2-0.2h1.3c0.1,0,0.2,0.1,0.2,0.2
			l-0.1,4.3l0.1,4.6c0,0.1-0.1,0.2-0.2,0.2H147z M147,86.7c-0.1,0-0.2-0.1-0.2-0.2v-1.4c0-0.1,0.1-0.2,0.2-0.2h1.3
			c0.1,0,0.2,0.1,0.2,0.2v1.4c0,0.1-0.1,0.2-0.2,0.2H147z"/>
		<path class="st7" d="M157.5,97.3c-2.4,0-4.1-1.1-4.2-3.2c0-0.1,0.1-0.2,0.2-0.2h1.2c0.1,0,0.2,0.1,0.2,0.2c0.1,1.5,1,2.1,2.6,2.1
			c1.4,0,2.3-0.6,2.3-1.6c0-2.4-6.3-0.5-6.3-4.2c0-1.8,1.5-2.7,3.7-2.7c2.1,0,3.7,0.9,3.9,2.8c0,0.1-0.1,0.2-0.2,0.2h-1.2
			c-0.1,0-0.2-0.1-0.2-0.2c-0.1-1.2-1-1.7-2.3-1.7s-2.1,0.5-2.1,1.5c0,2.3,6.3,0.3,6.3,4.2C161.3,96.3,159.6,97.3,157.5,97.3z"/>
		<path class="st7" d="M167.2,97.3c-1.3,0-2.3-0.5-2.9-1.5v4.2c0,0.1-0.1,0.2-0.2,0.2h-1.3c-0.1,0-0.2-0.1-0.2-0.2l0.1-6.9l-0.1-5.1
			c0-0.1,0.1-0.2,0.2-0.2h1.3c0.1,0,0.2,0.1,0.2,0.2v1.3c0.6-1,1.6-1.7,3-1.7c2.5,0,3.8,2.1,3.8,4.8
			C171.1,95.1,169.7,97.3,167.2,97.3z M166.8,96.1c1.8,0,2.6-1.4,2.6-3.5c0-2.2-0.8-3.7-2.6-3.7c-1.6,0-2.6,1.2-2.6,3.5
			C164.2,94.7,165.2,96.1,166.8,96.1z"/>
		<path class="st7" d="M176.5,97.3c-2.8,0-4.4-1.9-4.4-4.8s1.6-4.9,4.4-4.9c2.8,0,4.4,1.9,4.4,4.8S179.4,97.3,176.5,97.3z
			 M176.5,96.1c1.8,0,2.7-1.3,2.7-3.6s-0.9-3.7-2.7-3.7s-2.7,1.4-2.7,3.7S174.7,96.1,176.5,96.1z"/>
		<path class="st7" d="M182.5,97.1c-0.1,0-0.2-0.1-0.2-0.2l0.1-4.6l-0.1-4.4c0-0.1,0.1-0.2,0.2-0.2h1.3c0.1,0,0.2,0.1,0.2,0.2
			l-0.1,1.6c0.6-1.2,1.9-1.8,3.2-1.8c0.2,0,0.4,0,0.5,0.1c0.1,0,0.2,0.1,0.2,0.2v1c0,0.1-0.1,0.2-0.2,0.2c-0.1,0-0.3,0-0.5,0
			c-1.5,0-2.9,0.9-3.1,3v4.9c0,0.1-0.1,0.2-0.2,0.2h-1.3V97.1z"/>
		<path class="st7" d="M193.6,96.8c0,0.1-0.1,0.2-0.2,0.2c-0.4,0.1-0.8,0.2-1.2,0.2c-1.4,0-2.5-0.7-2.5-2.7v-5.4h-1
			c-0.1,0-0.2-0.1-0.2-0.2V88c0-0.1,0.1-0.2,0.2-0.2h1v-2.1c0-0.1,0.1-0.2,0.2-0.2h1.3c0.1,0,0.2,0.1,0.2,0.2v2.1h2.1
			c0.1,0,0.2,0.1,0.2,0.2v0.9c0,0.1-0.1,0.2-0.2,0.2h-2.1v5.4c0,1.1,0.4,1.5,1.2,1.5c0.3,0,0.7-0.1,0.9-0.1c0.1,0,0.2,0,0.2,0.1
			L193.6,96.8L193.6,96.8z"/>
		<path class="st7" d="M198.5,97.3c-2.4,0-4.1-1.1-4.2-3.2c0-0.1,0.1-0.2,0.2-0.2h1.2c0.1,0,0.2,0.1,0.2,0.2c0.1,1.5,1,2.1,2.6,2.1
			c1.4,0,2.3-0.6,2.3-1.6c0-2.4-6.3-0.5-6.3-4.2c0-1.8,1.5-2.7,3.7-2.7c2.1,0,3.7,0.9,3.9,2.8c0,0.1-0.1,0.2-0.2,0.2h-1.2
			c-0.1,0-0.2-0.1-0.2-0.2c-0.1-1.2-1-1.7-2.3-1.7s-2.1,0.5-2.1,1.5c0,2.3,6.3,0.3,6.3,4.2C202.4,96.3,200.7,97.3,198.5,97.3z"/>
		<path class="st7" d="M208.5,95.6l-2-3.2l-1.2,1.3v3.2c0,0.1-0.1,0.2-0.2,0.2h-1.3c-0.1,0-0.2-0.1-0.2-0.2l0.1-6.1l-0.1-6.2
			c0-0.1,0.1-0.2,0.2-0.2h1.3c0.1,0,0.2,0.1,0.2,0.2l-0.1,6.1v1l3.5-3.9c0.1-0.1,0.2-0.1,0.3-0.1h1.5c0.1,0,0.1,0.1,0.1,0.1l-3,3.3
			l3.4,5.7c0,0.1,0,0.2-0.1,0.2h-1.5c-0.1,0-0.2-0.1-0.3-0.2L208.5,95.6z"/>
		<path class="st7" d="M212.4,97.1c-0.1,0-0.2-0.1-0.2-0.2l0.1-4.6l-0.1-4.3c0-0.1,0.1-0.2,0.2-0.2h1.3c0.1,0,0.2,0.1,0.2,0.2
			l-0.1,4.3l0.1,4.6c0,0.1-0.1,0.2-0.2,0.2H212.4z M212.4,86.7c-0.1,0-0.2-0.1-0.2-0.2v-1.4c0-0.1,0.1-0.2,0.2-0.2h1.3
			c0.1,0,0.2,0.1,0.2,0.2v1.4c0,0.1-0.1,0.2-0.2,0.2H212.4z"/>
		<path class="st7" d="M217.3,93.5l0.1,3.4c0,0.1-0.1,0.2-0.2,0.2h-1.4c-0.1,0-0.2-0.1-0.2-0.2l0.1-3.4l-0.1-5.5
			c0-0.1,0.1-0.2,0.2-0.2h1.3c0.1,0,0.2,0.1,0.2,0.2v1.4c0.6-1,1.5-1.8,2.9-1.8c1.3,0,2.3,0.6,2.7,1.9c0.6-1.3,1.6-1.9,2.9-1.9
			c1.8,0,2.9,1.2,2.9,3.7v2.2v3.4c0,0.1-0.1,0.2-0.2,0.2h-1.3c-0.1,0-0.2-0.1-0.2-0.2l0.1-3.4v-2.1c0-1.7-0.7-2.4-1.8-2.4
			c-1,0-1.8,0.9-2.2,2.4v2.1l0.1,3.4c0,0.1-0.1,0.2-0.2,0.2h-1.3c-0.1,0-0.2-0.1-0.2-0.2l0.1-3.4v-2.1c0-1.7-0.7-2.4-1.8-2.4
			s-2,1-2.3,2.8v1.7H217.3z"/>
		<path class="st7" d="M237.6,97.3c-2.8,0-4.4-1.9-4.4-4.8s1.6-4.9,4.4-4.9c2.8,0,4.4,1.9,4.4,4.8S240.4,97.3,237.6,97.3z
			 M237.6,96.1c1.8,0,2.7-1.3,2.7-3.6s-0.9-3.7-2.7-3.7s-2.7,1.4-2.7,3.7S235.8,96.1,237.6,96.1z"/>
		<path class="st7" d="M249.8,96.9c0,0.1-0.1,0.2-0.2,0.2h-6.9c-0.1,0-0.2-0.1-0.2-0.2V96c0-0.1,0-0.2,0.1-0.3l5-6.6h-4.5
			c-0.1,0-0.2-0.1-0.2-0.2V88c0-0.1,0.1-0.2,0.2-0.2h6.3c0.1,0,0.2,0.1,0.2,0.2v0.9c0,0.1,0,0.2-0.1,0.3l-5,6.6h5.2
			c0.1,0,0.2,0.1,0.2,0.2v0.9H249.8z"/>
		<path class="st7" d="M251.5,97.1c-0.1,0-0.2-0.1-0.2-0.2l0.1-6.2l-0.1-6c0-0.1,0.1-0.2,0.2-0.2h1.3c0.1,0,0.2,0.1,0.2,0.2l-0.1,6
			l0.1,6.2c0,0.1-0.1,0.2-0.2,0.2H251.5z"/>
		<path class="st7" d="M255,100.2c-0.1,0-0.2-0.1-0.2-0.2l0.1-5.9l-0.1-6.1c0-0.1,0.1-0.2,0.2-0.2h1.3c0.1,0,0.2,0.1,0.2,0.2
			l-0.1,6.1l0.1,5.9c0,0.1-0.1,0.2-0.2,0.2H255z M255.1,86.7c-0.1,0-0.2-0.1-0.2-0.2v-1.4c0-0.1,0.1-0.2,0.2-0.2h1.3
			c0.1,0,0.2,0.1,0.2,0.2v1.4c0,0.1-0.1,0.2-0.2,0.2H255.1z"/>
		<path class="st7" d="M266.3,93.9c0.1,0,0.2,0.1,0.2,0.2c-0.3,1.9-1.7,3.3-4.1,3.3c-2.9,0-4.4-2-4.4-4.8c0-2.9,1.7-4.9,4.3-4.9
			c2.7,0,4.3,1.8,4.3,4.9c0,0.1-0.1,0.2-0.2,0.2h-6.8c0.1,2.2,1,3.4,2.8,3.4c1.4,0,2.2-0.7,2.5-2.1c0-0.1,0.1-0.2,0.2-0.2H266.3z
			 M262.4,88.8c-1.5,0-2.4,1-2.6,2.7h5.2C264.9,90.1,264,88.8,262.4,88.8z"/>
		<path class="st7" d="M274.6,97.1c-0.1,0-0.2-0.1-0.2-0.2v-1.3c-0.6,1-1.6,1.7-3,1.7c-2.5,0-3.8-2.1-3.8-4.8c0-2.7,1.4-4.8,3.9-4.8
			c1.3,0,2.3,0.5,2.9,1.6v-4.5c0-0.1,0.1-0.2,0.2-0.2h1.3c0.1,0,0.2,0.1,0.2,0.2l-0.1,5.4l0.1,6.8c0,0.1-0.1,0.2-0.2,0.2L274.6,97.1
			L274.6,97.1z M271.9,96.1c1.6,0,2.6-1.2,2.6-3.5s-0.9-3.7-2.6-3.7c-1.8,0-2.6,1.5-2.6,3.5C269.4,94.6,270.2,96.1,271.9,96.1z"/>
		<path class="st7" d="M284.4,97.1c-0.1,0-0.2-0.1-0.2-0.2v-1.3c-0.6,1-1.6,1.7-3,1.7c-2.5,0-3.8-2.1-3.8-4.8s1.4-4.8,3.9-4.8
			c1.3,0,2.3,0.6,2.9,1.6v-1.2c0-0.1,0.1-0.2,0.2-0.2h1.3c0.1,0,0.2,0.1,0.2,0.2l-0.1,4.4l0.1,4.5c0,0.1-0.1,0.2-0.2,0.2L284.4,97.1
			L284.4,97.1z M281.7,96.1c1.6,0,2.6-1.2,2.6-3.5c0-2.2-0.8-3.5-2.3-3.7c-0.1,0-0.3,0-0.4,0c-1.7,0.1-2.4,1.5-2.4,3.5
			C279.2,94.6,280,96.1,281.7,96.1z"/>
		<path class="st7" d="M289.3,93.5l0.1,3.4c0,0.1-0.1,0.2-0.2,0.2h-1.4c-0.1,0-0.2-0.1-0.2-0.2l0.1-3.4l-0.1-5.5
			c0-0.1,0.1-0.2,0.2-0.2h1.3c0.1,0,0.2,0.1,0.2,0.2v1.4c0.6-1,1.5-1.8,2.9-1.8c1.3,0,2.3,0.6,2.7,1.9c0.6-1.3,1.6-1.9,2.9-1.9
			c1.8,0,2.9,1.2,2.9,3.7v2.2v3.4c0,0.1-0.1,0.2-0.2,0.2h-1.3c-0.1,0-0.2-0.1-0.2-0.2l0.1-3.4v-2.1c0-1.7-0.7-2.4-1.8-2.4
			c-1,0-1.8,0.9-2.2,2.4v2.1l0.1,3.4c0,0.1-0.1,0.2-0.2,0.2h-1.3c-0.1,0-0.2-0.1-0.2-0.2l0.1-3.4v-2.1c0-1.7-0.7-2.4-1.8-2.4
			s-2,1-2.3,2.8v1.7H289.3z"/>
		<path class="st7" d="M308.8,97.1c-0.1,0-0.2-0.1-0.2-0.2v-1.3c-0.6,1-1.6,1.7-3,1.7c-2.5,0-3.8-2.1-3.8-4.8s1.4-4.8,3.9-4.8
			c1.3,0,2.3,0.6,2.9,1.6v-1.2c0-0.1,0.1-0.2,0.2-0.2h1.3c0.1,0,0.2,0.1,0.2,0.2l-0.1,4.4l0.1,4.5c0,0.1-0.1,0.2-0.2,0.2L308.8,97.1
			L308.8,97.1z M306.1,96.1c1.6,0,2.6-1.2,2.6-3.5c0-2.2-0.8-3.5-2.3-3.7c-0.1,0-0.3,0-0.4,0c-1.7,0.1-2.4,1.5-2.4,3.5
			C303.5,94.6,304.4,96.1,306.1,96.1z"/>
		<path class="st7" d="M311.9,97.1c-0.1,0-0.2-0.1-0.2-0.2v-1.5c0-0.1,0.1-0.2,0.2-0.2h1.5c0.1,0,0.2,0.1,0.2,0.2v1.5
			c0,0.1-0.1,0.2-0.2,0.2H311.9z"/>
	</g>
</g>
<g>
	<path class="st8" d="M419.8,13.7C419.8,6,425.2,1,432.9,1c8.1,0,13.3,5,13.3,12.8c0,7.7-5.1,12.8-13.3,12.8
		C425.2,26.5,419.8,21.5,419.8,13.7z M424,13.8c0,4.6,3.4,7.1,8.9,7.1c5.5,0,9-2.5,9-7.1s-3.4-7.1-9-7.1C427.4,6.6,424,9.2,424,13.8
		z"/>
	<path class="st8" d="M420,38.6c0-2.3,0.8-4.1,2.4-5.4l-1.7,0.1c-0.2,0-0.3-0.1-0.3-0.3v-4.9c0-0.2,0.1-0.3,0.3-0.3L433,28l12.3-0.1
		c0.2,0,0.3,0.1,0.3,0.3V33c0,0.2-0.1,0.3-0.3,0.3l-8.5,0c1.6,1.3,2.5,3.1,2.5,5.5c0,5.3-4.2,8.1-9.6,8.1
		C424.3,46.8,420,43.7,420,38.6z M423.6,37.1c-0.1,2.8,2.1,4.2,5.8,4.2c4.1,0,6.2-1.4,6.2-4.1c0-2.6-2-4.1-5.8-4.1
		C425.9,33.1,423.7,34.5,423.6,37.1z"/>
	<path class="st8" d="M420.3,48.6c0-0.2,0.1-0.3,0.3-0.3l12.3,0.1l12.3-0.1c0.2,0,0.3,0.1,0.3,0.3v4.7c0,0.2-0.1,0.3-0.3,0.3
		L433,53.5l-12.3,0.1c-0.2,0-0.3-0.1-0.3-0.3V48.6z"/>
	<path class="st8" d="M419.8,64.7c0-6.1,3.8-9.6,9.7-9.6c5.9,0,9.8,3.5,9.8,9.6c0,6.1-3.8,9.5-9.7,9.5
		C423.8,74.2,419.8,70.8,419.8,64.7z M423.5,64.7c0,2.7,1.8,3.9,6.1,3.9c4.2,0,6.2-1.3,6.2-4c0-2.8-2.1-4-6.3-4S423.5,62,423.5,64.7
		z"/>
	<path class="st8" d="M420.6,90.3c-0.2,0-0.3-0.1-0.3-0.3V74.9c0-0.2,0.1-0.3,0.3-0.3h3.2c0.2,0,0.4,0.1,0.6,0.2l10.7,8.4v-7.5
		c0-0.2,0.1-0.3,0.3-0.3h3.2c0.2,0,0.3,0.1,0.3,0.3v13.8c0,0.2-0.1,0.3-0.3,0.3h-3.3c-0.2,0-0.4-0.1-0.6-0.2l-10.6-8.5V90
		c0,0.2-0.1,0.3-0.3,0.3H420.6z"/>
	<path class="st8" d="M440.8,92.2c0-0.2,0.1-0.3,0.3-0.3h4.2c0.2,0,0.3,0.1,0.3,0.3V97c0,0.2-0.1,0.3-0.3,0.3h-4.2
		c-0.2,0-0.3-0.1-0.3-0.3V92.2z M420.3,92.2c0-0.2,0.1-0.3,0.3-0.3l9,0.1l9-0.1c0.2,0,0.3,0.1,0.3,0.3v4.9c0,0.2-0.1,0.3-0.3,0.3
		l-9-0.1l-9,0.1c-0.2,0-0.3-0.1-0.3-0.3V92.2z"/>
</g>
</svg>
