<?xml version="1.0" encoding="utf-8"?>
<!-- Generator: Adobe Illustrator 25.1.0, SVG Export Plug-In . SVG Version: 6.00 Build 0)  -->
<svg version="1.1" id="Layer_1" xmlns="http://www.w3.org/2000/svg" xmlns:xlink="http://www.w3.org/1999/xlink" x="0px" y="0px"
	 viewBox="0 0 482.3 243.7" style="enable-background:new 0 0 482.3 243.7;" xml:space="preserve">
<style type="text/css">
	.st0{fill:#D6D6D6;}
	.st1{fill:#F2F2F2;}
	.st2{fill:#666666;}
	.st3{fill:#68BCAE;}
	.st4{fill:#00A88F;}
	.st5{fill:#FFFFFF;}
	.st6{fill:#333333;}
	.st7{fill:#839599;}
	.st8{fill:#B6C0C3;}
	.st9{fill:#E6E6E6;}
	.st10{fill:#B3B9BC;}
	.st11{fill:#B3B3B3;}
	.st12{fill:#727F7C;}
	.st13{opacity:6.000000e-02;}
	.st14{opacity:0.2;}
	.st15{fill:#1B5E53;}
	.st16{fill:#9FD3CA;}
	.st17{opacity:0.75;}
	.st18{fill:#EBEEF7;}
	.st19{fill:#5DAFA1;}
	.st20{opacity:0.25;}
	.st21{opacity:0.15;}
</style>
<g>
	<g>
		<path class="st0" d="M319.1,39.8l-1.6,14.1v12.2h3.4V54.6l5.2-9l-0.4-6.1C323.4,39.6,321.4,39.7,319.1,39.8z"/>
	</g>
	<g>
		<path class="st0" d="M336.1,11.1l0.4,1.3c0.8,2.6,0.5,5.5-0.8,7.9l-11.3,22.1l-2.5-5.9L336.1,11.1z"/>
	</g>
	<g>
		<path class="st1" d="M327,66.1V53.9l-1.4-16.5l12.6-29.6c0.2-0.4-0.2-0.9-0.7-0.8l-0.9,0.2c-0.8,0.1-1.5,0.6-1.9,1.4L319,35.8
			l-0.6,9.8l5.2,9v11.5H327z"/>
	</g>
	<g>
		<path class="st0" d="M323.8,42.6c0,0.9-0.7,1.6-1.6,1.6c-0.9,0-1.6-0.7-1.6-1.6c0-0.9,0.7-1.6,1.6-1.6
			C323.1,41,323.8,41.7,323.8,42.6z"/>
	</g>
	<g>
		<path class="st2" d="M323.3,42.3c0,0.7-0.6,1.3-1.3,1.3c-0.7,0-1.3-0.6-1.3-1.3c0-0.7,0.6-1.3,1.3-1.3
			C322.7,41.1,323.3,41.6,323.3,42.3z"/>
	</g>
	<g>
		<path class="st3" d="M321.7,98c0-0.1,0-0.2,0-0.3c0-0.3,0-0.5,0-0.8l-0.3-30.7c0-0.5-0.4-0.9-0.9-0.9h-2.8c-0.4,0-0.8,0.3-0.9,0.8
			l-1.1,12.5c-1.1,3.7-4.7,4.5-6,4.7c-0.2,0-0.4,0-0.5,0c0,0,0,0,0,0l0,0c-5.9,0.7-10.5,6.9-10.5,14.4c0,8,5.2,14.4,11.5,14.4
			c6,0,11-5.9,11.5-13.3c0-0.1,0-0.2,0-0.3L321.7,98z M310.1,108.6c-4.4,0-8-4.9-8-10.9c0-6,3.6-10.9,8-10.9c4.4,0,8,4.9,8,10.9
			C318.1,103.7,314.5,108.6,310.1,108.6z"/>
	</g>
	<g>
		<path class="st4" d="M319.4,66.4c0-0.2-0.8-0.2-1.3-0.1c-0.3,0-0.5,0.3-0.5,0.6c0,2.8-0.7,12.4-1.3,13.1c0,0-2.1,3.4-5.4,3.4
			c-0.2,0-5.7,1.2-7.5,3.3c-2.8,3.3-6,10.8-1.4,19.4c0.2-0.3,0.4-0.6,0.6-0.8c-1.3-2.1-2.6-8.1,0.5-15c2.3-5.2,8.9-5.7,13.1-2
			c0.2-0.2,0.3-0.5,0.4-0.7c0.1-0.2,0.4-0.8,0.5-1.2c0.1-0.3,0.2-0.7,0.3-0.8c0.2-0.5,0.3-0.9,0.5-1.4c0.6-2,1-4.1,1.4-6.2
			c0,0,0,0,0-0.1c0-0.5,0.1-1,0.1-1.5c0.1-1.2,0.1-2.4,0.2-3.5C319.5,70.7,319.5,68.6,319.4,66.4z"/>
	</g>
	<g>
		<path class="st3" d="M335.2,83.3L335.2,83.3C335.2,83.3,335.2,83.3,335.2,83.3c-0.2,0-0.4,0-0.6,0c-1.4-0.2-5-1-6-4.7l-1.1-12.5
			c0-0.4-0.4-0.8-0.9-0.8h-2.8c-0.5,0-0.9,0.4-0.9,0.9l-0.3,30.7c0,0.3,0,0.5,0,0.8c0,0.1,0,0.2,0,0.3l0,0.5c0,0.1,0,0.2,0,0.3
			c0.5,7.4,5.4,13.3,11.5,13.3c6.3,0,11.5-6.5,11.5-14.4C345.7,90.2,341.1,84,335.2,83.3z M334.2,108.6c-4.4,0-8-4.9-8-10.9
			c0-6,3.6-10.9,8-10.9c4.4,0,8,4.9,8,10.9C342.1,103.7,338.6,108.6,334.2,108.6z"/>
	</g>
	<g>
		<path class="st4" d="M325.8,66.1c-0.4,0-0.8,0-1.2,0c-0.5,0-0.9,0.4-0.9,0.9c0,6.5,0.2,13.6,0.1,20c-0.1,2.6-0.1,5.2,0,7.8
			c0.1,1.3,0.1,2.5,0.3,3.8c0,0.3,0.1,0.6,0.1,0.9c0,0.1,0,0.3,0.1,0.4c0,0,0,0,0,0c0.1,0.7,0.3,1.3,0.4,2c0.2-0.3,0.4-0.6,0.6-0.9
			c-0.4-1.8-0.4-3.7-0.1-5.6c0.2-1.4,0.6-2.8,1.3-4c1.7-3.4,4.9-5.8,9.2-5.3c0,0,0.1,0,0.1-0.1c0.2-0.3,0.4-0.7,0.6-1
			c-1.8-0.4-3.6-1-5.2-1.9c-3.1-1.7-4.3-3.8-4.6-16.2C326.6,66.5,326.3,66.2,325.8,66.1z"/>
	</g>
</g>
<g>
	<g>
		<g>
			<path class="st5" d="M195.5,19.1c0,0-72.9,0-75.4,0.2v0c0,0-4.5,0.1-13.4,2c-8.3,1.7-26.7,6.4-29.2,7c-0.2,0-0.4,0.1-0.6,0.1h-40
				c-1.4,0-2.5,1.1-2.5,2.5c0,1.4,1.1,2.5,2.5,2.5h40c0.2,0,0.4,0,0.6,0.1c2.5,0.6,20.9,5.3,29.2,7c8.9,1.8,13.4,2,13.4,2
				s1.1,0,1.6,0h73.7c4,0,7.3-3.3,7.3-7.3v-8.6C202.9,22.4,199.6,19.1,195.5,19.1z"/>
		</g>
		<g>
			<path class="st6" d="M45.4,28.3h-8.3c-1.4,0-2.5,1.1-2.5,2.5c0,1.4,1.1,2.5,2.5,2.5h8.3V28.3z"/>
		</g>
		<g>
			<path class="st3" d="M179.8,38.4h-48.7c-4.2,0-7.7-3.5-7.7-7.7v0c0-4.2,3.5-7.7,7.7-7.7h48.7c4.2,0,7.7,3.5,7.7,7.7v0
				C187.5,35,184,38.4,179.8,38.4z"/>
		</g>
		<g>
			<g>
				<path class="st7" d="M154.7,35.7h-20c-1.6,0-2.9-1.3-2.9-2.9v-4.3c0-1.6,1.3-2.9,2.9-2.9h20c1.6,0,2.9,1.3,2.9,2.9v4.3
					C157.6,34.5,156.3,35.7,154.7,35.7z"/>
			</g>
			<g>
				<path class="st7" d="M154.7,35.7h-20c-1.6,0-2.9-1.3-2.9-2.9v-4.3c0-1.6,1.3-2.9,2.9-2.9h20c1.6,0,2.9,1.3,2.9,2.9v4.3
					C157.6,34.5,156.3,35.7,154.7,35.7z"/>
			</g>
			<g>
				<path class="st8" d="M155.8,36.4h-22.2c-1.3,0-2.4-1.1-2.4-2.4v-6.5c0-1.3,1.1-2.4,2.4-2.4h22.2c1.3,0,2.4,1.1,2.4,2.4V34
					C158.2,35.3,157.1,36.4,155.8,36.4z M133.6,26.3c-0.6,0-1.1,0.5-1.1,1.1V34c0,0.6,0.5,1.1,1.1,1.1h22.2c0.6,0,1.1-0.5,1.1-1.1
					v-6.5c0-0.6-0.5-1.1-1.1-1.1H133.6z"/>
			</g>
		</g>
		<g>
			<path class="st9" d="M177.8,33.3h-5.3c-1.4,0-2.5-1.1-2.5-2.5v0c0-1.4,1.1-2.5,2.5-2.5h5.3c1.4,0,2.5,1.1,2.5,2.5v0
				C180.3,32.1,179.2,33.3,177.8,33.3z"/>
		</g>
		<g>
			<path class="st5" d="M177.3,28.2h-5c-1.3,0-2.4,0.9-2.4,2.1c0,1.2,1.1,2.1,2.4,2.1h5c1.3,0,2.4-0.9,2.4-2.1
				C179.6,29.1,178.6,28.2,177.3,28.2z"/>
		</g>
		<g>
			<g>
				<path class="st10" d="M135.1,27.2h2.1c0,0,0.1,0.1,0.3,0.2c-0.1,0.1-0.2,0.2-0.3,0.2h-2.1c0,0-0.1-0.1-0.3-0.2
					C134.9,27.3,135,27.2,135.1,27.2z M135.1,30.4h2.1c0,0,0.1,0.1,0.3,0.2c-0.1,0.1-0.2,0.2-0.3,0.2h-2.1c0,0-0.1-0.1-0.3-0.2
					C134.9,30.5,135,30.4,135.1,30.4z M135.1,33.5h2.1c0,0,0.1,0.1,0.3,0.2c-0.1,0.1-0.2,0.2-0.3,0.2h-2.1c0,0-0.1-0.1-0.3-0.2
					C134.9,33.6,135,33.6,135.1,33.5z M137.4,27.7c0.1,0.1,0.2,0.2,0.2,0.3v2.1c0,0-0.1,0.1-0.2,0.3c-0.1-0.1-0.2-0.2-0.2-0.3V28
					C137.2,27.9,137.3,27.8,137.4,27.7z M137.4,30.9c0.1,0.1,0.2,0.2,0.2,0.3v2.1c0,0-0.1,0.1-0.2,0.3c-0.1-0.1-0.2-0.2-0.2-0.3
					v-2.1C137.2,31.1,137.3,31,137.4,30.9z"/>
			</g>
			<g>
				<path class="st10" d="M138.7,27.5L138.7,27.5c0,0,0.2,0.2,0.5,0.5v2.1c0,0.1-0.1,0.2-0.2,0.3c0,0-0.1,0.1-0.2,0.2h0v-0.5
					c0,0,0,0,0,0l0,0V27.5z M138.7,27.2h3.1v0c-0.2,0.2-0.4,0.4-0.5,0.5h-2.2C139.1,27.7,139,27.5,138.7,27.2L138.7,27.2z
					 M139.2,30.4h2.5v0c-0.3,0.3-0.4,0.5-0.5,0.5h-2.6v0C139,30.5,139.1,30.4,139.2,30.4C139.2,30.4,139.2,30.4,139.2,30.4z
					 M141.3,33.5c0.2,0.1,0.3,0.3,0.5,0.5v0h-2.6c0,0,0,0,0,0l0,0h-0.5v0c0.3-0.3,0.5-0.5,0.5-0.5H141.3z M141.8,30.6L141.8,30.6
					l0,3.1h0l-0.5-0.5v-2.1C141.4,31,141.5,30.9,141.8,30.6z"/>
			</g>
			<g>
				<path class="st10" d="M144.8,27.5L144.8,27.5c0,0,0.2,0.2,0.5,0.5v2.1c0,0.1-0.1,0.2-0.2,0.3c0,0-0.1,0.1-0.2,0.2h0v-0.5
					c0,0,0,0,0,0l0,0V27.5z M144.9,27.2h3.1v0c-0.2,0.2-0.4,0.4-0.5,0.5h-2.2C145.3,27.7,145.2,27.5,144.9,27.2L144.9,27.2z
					 M145.4,30.4h2.5v0c-0.3,0.3-0.4,0.5-0.5,0.5h-2.6v0C145.1,30.5,145.3,30.4,145.4,30.4C145.4,30.4,145.4,30.4,145.4,30.4z
					 M147.5,33.5c0.2,0.1,0.3,0.3,0.5,0.5v0h-2.6c0,0,0,0,0,0l0,0h-0.5v0c0.3-0.3,0.5-0.5,0.5-0.5H147.5z M148,30.6L148,30.6l0,3.1
					h0l-0.5-0.5v-2.1C147.6,31,147.7,30.9,148,30.6z"/>
			</g>
		</g>
		<g>
			<g>
				<path class="st11" d="M134.9,27.2h2.1c0,0,0.1,0.1,0.3,0.2c-0.1,0.1-0.2,0.2-0.3,0.2h-2.1c0,0-0.1-0.1-0.3-0.2
					C134.7,27.3,134.8,27.2,134.9,27.2z M134.9,30.4h2.1c0,0,0.1,0.1,0.3,0.2c-0.1,0.1-0.2,0.2-0.3,0.2h-2.1c0,0-0.1-0.1-0.3-0.2
					C134.7,30.5,134.8,30.4,134.9,30.4z M134.9,33.5h2.1c0,0,0.1,0.1,0.3,0.2c-0.1,0.1-0.2,0.2-0.3,0.2h-2.1c0,0-0.1-0.1-0.3-0.2
					C134.7,33.6,134.8,33.6,134.9,33.5z M137.2,27.7c0.1,0.1,0.2,0.2,0.2,0.3v2.1c0,0-0.1,0.1-0.2,0.3c-0.1-0.1-0.2-0.2-0.2-0.3V28
					C137,27.9,137.1,27.8,137.2,27.7z M137.2,30.9c0.1,0.1,0.2,0.2,0.2,0.3v2.1c0,0-0.1,0.1-0.2,0.3c-0.1-0.1-0.2-0.2-0.2-0.3v-2.1
					C137,31.1,137.1,31,137.2,30.9z"/>
			</g>
			<g>
				<path class="st11" d="M138.5,27.5L138.5,27.5c0,0,0.2,0.2,0.5,0.5v2.1c0,0.1-0.1,0.2-0.2,0.3c0,0-0.1,0.1-0.2,0.2h0v-0.5
					c0,0,0,0,0,0l0,0V27.5z M138.5,27.2h3.1v0c-0.2,0.2-0.4,0.4-0.5,0.5h-2.2C138.9,27.7,138.8,27.5,138.5,27.2L138.5,27.2z
					 M139,30.4h2.5v0c-0.3,0.3-0.4,0.5-0.5,0.5h-2.6v0C138.8,30.5,138.9,30.4,139,30.4C139,30.4,139,30.4,139,30.4z M141.1,33.5
					c0.2,0.1,0.3,0.3,0.5,0.5v0H139c0,0,0,0,0,0l0,0h-0.5v0c0.3-0.3,0.5-0.5,0.5-0.5H141.1z M141.6,30.6L141.6,30.6l0,3.1h0
					l-0.5-0.5v-2.1C141.2,31,141.3,30.9,141.6,30.6z"/>
			</g>
			<g>
				<path class="st11" d="M144.6,27.5L144.6,27.5c0,0,0.2,0.2,0.5,0.5v2.1c0,0.1-0.1,0.2-0.2,0.3c0,0-0.1,0.1-0.2,0.2h0v-0.5
					c0,0,0,0,0,0l0,0V27.5z M144.6,27.2h3.1v0c-0.2,0.2-0.4,0.4-0.5,0.5h-2.2C145.1,27.7,145,27.5,144.6,27.2L144.6,27.2z
					 M145.2,30.4h2.5v0c-0.3,0.3-0.4,0.5-0.5,0.5h-2.6v0C144.9,30.5,145.1,30.4,145.2,30.4C145.1,30.4,145.2,30.4,145.2,30.4z
					 M147.3,33.5c0.2,0.1,0.3,0.3,0.5,0.5v0h-2.6c0,0,0,0,0,0l0,0h-0.5v0c0.3-0.3,0.5-0.5,0.5-0.5H147.3z M147.8,30.6L147.8,30.6
					l0,3.1h0l-0.5-0.5v-2.1C147.4,31,147.5,30.9,147.8,30.6z"/>
			</g>
		</g>
		<g>
			<path class="st11" d="M143.1,33.6l-0.2-0.2c0,0-0.1,0-0.2,0l-0.2,0.2c0,0,0,0.1,0,0.2l0.2,0.2c0,0,0.1,0,0.2,0l0.2-0.2
				C143.2,33.7,143.2,33.7,143.1,33.6z"/>
		</g>
		<g>
			<g>
				<path class="st12" d="M151.4,28.9L151.4,28.9L151.4,28.9c0.2-0.1,0.2-0.1,0.2-0.1l0,0v-1.1l0,0c0,0,0,0,0,0h1.1l0,0
					c0,0,0.1-0.1,0.1-0.1l0,0l0,0c-0.1-0.1-0.1-0.1-0.1-0.1l0,0h-1.1l0,0c0,0-0.1,0.1-0.1,0.1l0,0l0,0c0,0,0,0,0,0l0,0
					c-0.1,0.1-0.1,0.1-0.1,0.1l0,0v1.1l0,0C151.3,28.8,151.3,28.8,151.4,28.9z"/>
			</g>
			<g>
				<path class="st12" d="M152.8,30.5c-0.1-0.1-0.1-0.1-0.1-0.1l0,0h-1.1c0,0,0,0,0,0l0,0v-1.1l0,0c0,0-0.1-0.1-0.1-0.1l0,0l0,0
					c-0.1,0.1-0.1,0.1-0.1,0.1l0,0v1.1l0,0c0,0,0.1,0.1,0.1,0.1l0,0c0,0,0,0,0,0l0,0l0,0c0.1,0.1,0.1,0.1,0.1,0.1l0,0h1.1l0,0
					C152.7,30.7,152.7,30.7,152.8,30.5L152.8,30.5L152.8,30.5z"/>
			</g>
		</g>
		<g>
			<g>
				<path class="st12" d="M149.5,28.7c-0.4,0-0.7-0.3-0.7-0.7c0-0.4,0.3-0.7,0.7-0.7c0.4,0,0.7,0.3,0.7,0.7
					C150.2,28.4,149.8,28.7,149.5,28.7z M149.5,27.6c-0.2,0-0.4,0.2-0.4,0.4c0,0.2,0.2,0.4,0.4,0.4c0.2,0,0.4-0.2,0.4-0.4
					C149.9,27.8,149.7,27.6,149.5,27.6z"/>
			</g>
		</g>
		<g>
			<g>
				<path class="st11" d="M151.2,28.8L151.2,28.8L151.2,28.8c0.2-0.1,0.2-0.1,0.2-0.1l0,0v-1.1l0,0c0,0,0,0,0,0h1.1l0,0
					c0,0,0.1-0.1,0.1-0.1l0,0l0,0c-0.1-0.1-0.1-0.1-0.1-0.1l0,0h-1.1l0,0c0,0-0.1,0.1-0.1,0.1l0,0l0,0c0,0,0,0,0,0l0,0
					c-0.1,0.1-0.1,0.1-0.1,0.1l0,0v1.1l0,0C151.1,28.7,151.2,28.7,151.2,28.8z"/>
			</g>
			<g>
				<path class="st11" d="M152.6,30.4c-0.1-0.1-0.1-0.1-0.1-0.1l0,0h-1.1c0,0,0,0,0,0l0,0v-1.1l0,0c0,0-0.1-0.1-0.1-0.1l0,0l0,0
					c-0.1,0.1-0.1,0.1-0.1,0.1l0,0v1.1l0,0c0,0,0.1,0.1,0.1,0.1l0,0c0,0,0,0,0,0l0,0l0,0c0.1,0.1,0.1,0.1,0.1,0.1l0,0h1.1l0,0
					C152.5,30.6,152.6,30.5,152.6,30.4L152.6,30.4L152.6,30.4z"/>
			</g>
		</g>
		<g>
			<g>
				<path class="st11" d="M149.3,28.6c-0.4,0-0.7-0.3-0.7-0.7c0-0.4,0.3-0.7,0.7-0.7c0.4,0,0.7,0.3,0.7,0.7
					C150,28.3,149.7,28.6,149.3,28.6z M149.3,27.5c-0.2,0-0.4,0.2-0.4,0.4c0,0.2,0.2,0.4,0.4,0.4c0.2,0,0.4-0.2,0.4-0.4
					C149.7,27.7,149.5,27.5,149.3,27.5z"/>
			</g>
		</g>
	</g>
	<g class="st13">
		<path d="M191.4,34.3c-5.2-0.2-10.1-0.1-15.3,0.2C130.7,36.9,85.4,31,39.9,31c-2,0-3.5-0.9-4.3-2.2c-0.6,0.5-1,1.2-1,2
			c0,1.4,1.1,2.5,2.5,2.5h40c0.2,0,0.4,0,0.6,0.1c2.5,0.6,20.9,5.3,29.2,7c8.9,1.8,13.4,2,13.4,2s1.1,0,1.6,0h73.7
			c4,0,7.3-3.3,7.3-7.3v-6.2C201.2,33.4,195.3,34.4,191.4,34.3z"/>
	</g>
	<g class="st14">
		<path class="st5" d="M132.9,35.6c3.9-2.9,8.9-4.3,13.4-5.9c3.5-1.3,7.1-2.5,10.7-3.4c-0.3-0.3-0.8-0.5-1.3-0.5h-22.2
			c-1,0-1.8,0.8-1.8,1.8V34C131.9,34.7,132.3,35.3,132.9,35.6z"/>
	</g>
</g>
<g>
	<g>
		<path class="st15" d="M90.8,104.3c-3.2,0-5.1-1.5-5.2-4.4c0-0.1,0.1-0.2,0.2-0.2h1.4c0.1,0,0.2,0.1,0.2,0.2c0.2,1.9,1.1,3,3.5,3
			c1.9,0,3.2-0.7,3.2-2.3c0-3.5-8.2-0.9-8.2-5.7c0-2.3,1.8-3.6,4.6-3.6c2.9,0,4.7,1.2,5,3.8c0,0.1-0.1,0.2-0.2,0.2h-1.4
			c-0.1,0-0.2-0.1-0.2-0.2c-0.1-1.6-1.2-2.4-3.2-2.4c-1.7,0-2.9,0.6-2.9,2.1c0,3.2,8.2,0.7,8.2,5.7C95.7,103,93.6,104.3,90.8,104.3z
			 M91.1,90.4c-0.1,0.1-0.2,0.1-0.3,0.1h-0.4c-0.1,0-0.2,0-0.3-0.1L87.8,89c-0.1-0.1-0.1-0.2-0.1-0.3l0.2-0.5c0-0.1,0.1-0.1,0.2-0.1
			l2.5,1.1l2.4-1.1c0.1,0,0.2,0,0.2,0.1l0.2,0.5c0,0.1,0,0.2-0.1,0.3L91.1,90.4z"/>
		<path class="st15" d="M101.8,102.6l-2-3.2l-1.2,1.3l0,3.2c0,0.1-0.1,0.2-0.2,0.2h-1.3c-0.1,0-0.2-0.1-0.2-0.2l0.1-6.1L97,91.7
			c0-0.1,0.1-0.2,0.2-0.2h1.3c0.1,0,0.2,0.1,0.2,0.2l-0.1,6.1v1l3.5-3.9c0.1-0.1,0.2-0.1,0.3-0.1h1.5c0.1,0,0.1,0.1,0.1,0.1l-3,3.3
			l3.4,5.7c0,0.1,0,0.2-0.1,0.2h-1.5c-0.1,0-0.2-0.1-0.3-0.2L101.8,102.6z"/>
		<path class="st15" d="M111.4,104.1c-0.1,0-0.2-0.1-0.2-0.2l0-1.3c-0.6,1-1.6,1.7-3,1.7c-2.5,0-3.8-2.1-3.8-4.8s1.4-4.8,3.9-4.8
			c1.3,0,2.3,0.6,2.9,1.6l0-1.2c0-0.1,0.1-0.2,0.2-0.2h1.3c0.1,0,0.2,0.1,0.2,0.2l-0.1,4.4l0.1,4.5c0,0.1-0.1,0.2-0.2,0.2H111.4z
			 M108.7,103.1c1.6,0,2.6-1.2,2.6-3.5c0-2.2-0.8-3.5-2.3-3.7c-0.1,0-0.3,0-0.4,0c-1.7,0.1-2.4,1.5-2.4,3.5
			C106.1,101.6,106.9,103.1,108.7,103.1z"/>
		<path class="st15" d="M114.7,104.1c-0.1,0-0.2-0.1-0.2-0.2l0.1-4.6l-0.1-4.4c0-0.1,0.1-0.2,0.2-0.2h1.3c0.1,0,0.2,0.1,0.2,0.2
			l-0.1,1.6c0.6-1.2,1.9-1.8,3.2-1.8c0.2,0,0.4,0,0.5,0.1c0.1,0,0.2,0.1,0.2,0.2v1c0,0.1-0.1,0.2-0.2,0.2c-0.1,0-0.3,0-0.5,0
			c-1.5,0-2.9,0.9-3.1,3l0,4.9c0,0.1-0.1,0.2-0.2,0.2H114.7z"/>
		<path class="st15" d="M128.3,100.9c0.1,0,0.2,0.1,0.2,0.2c-0.3,1.9-1.7,3.3-4.1,3.3c-2.9,0-4.4-2-4.4-4.8c0-2.9,1.7-4.9,4.3-4.9
			c2.7,0,4.3,1.8,4.3,4.9c0,0.1-0.1,0.2-0.2,0.2h-6.8c0.1,2.2,1,3.4,2.8,3.4c1.4,0,2.2-0.7,2.5-2.1c0-0.1,0.1-0.2,0.2-0.2H128.3z
			 M124.3,95.8c-1.5,0-2.4,1-2.6,2.7h5.2C126.8,97.1,126,95.8,124.3,95.8z"/>
		<path class="st15" d="M129.4,105.9c-0.1,0-0.2-0.1-0.1-0.2l0.4-1.6v-1.7c0-0.1,0.1-0.2,0.2-0.2h1.3c0.1,0,0.2,0.1,0.2,0.2v1.5
			c0,0.1,0,0.2-0.1,0.3l-1,1.5c-0.1,0.1-0.2,0.1-0.3,0.1H129.4z"/>
		<path class="st15" d="M139.6,104.3c-2.4,0-4.1-1.1-4.2-3.2c0-0.1,0.1-0.2,0.2-0.2h1.2c0.1,0,0.2,0.1,0.2,0.2
			c0.1,1.5,1,2.1,2.6,2.1c1.4,0,2.3-0.6,2.3-1.6c0-2.4-6.3-0.5-6.3-4.2c0-1.8,1.5-2.7,3.7-2.7c2.1,0,3.7,0.9,3.9,2.8
			c0,0.1-0.1,0.2-0.2,0.2h-1.2c-0.1,0-0.2-0.1-0.2-0.2c-0.1-1.2-1-1.7-2.3-1.7c-1.3,0-2.1,0.5-2.1,1.5c0,2.3,6.3,0.3,6.3,4.2
			C143.5,103.3,141.8,104.3,139.6,104.3z"/>
		<path class="st15" d="M145.1,104.1c-0.1,0-0.2-0.1-0.2-0.2l0.1-4.6l-0.1-4.3c0-0.1,0.1-0.2,0.2-0.2h1.3c0.1,0,0.2,0.1,0.2,0.2
			l-0.1,4.3l0.1,4.6c0,0.1-0.1,0.2-0.2,0.2H145.1z M145.1,93.7c-0.1,0-0.2-0.1-0.2-0.2v-1.4c0-0.1,0.1-0.2,0.2-0.2h1.3
			c0.1,0,0.2,0.1,0.2,0.2v1.4c0,0.1-0.1,0.2-0.2,0.2H145.1z"/>
		<path class="st15" d="M152.3,107.6c-2.1,0-3.8-0.9-4-2.8c0-0.1,0.1-0.2,0.2-0.2h1.3c0.1,0,0.2,0.1,0.2,0.2
			c0.2,1.1,1.1,1.7,2.4,1.7c1.6,0,2.6-0.9,2.6-3v-1c-0.6,1-1.6,1.6-2.9,1.6c-2.6,0-4-2-4-4.6c0-2.6,1.4-4.8,3.9-4.8
			c1.3,0,2.3,0.6,2.9,1.6l-0.1-1.3c0-0.1,0.1-0.2,0.2-0.2h1.3c0.1,0,0.2,0.1,0.2,0.2l0,3.5l0,4.9C156.5,106.1,155,107.6,152.3,107.6
			z M152.4,102.9c1.5,0,2.5-1.1,2.5-3.4c0-2.2-0.8-3.5-2.3-3.6c-0.1,0-0.3,0-0.4,0c-1.6,0.1-2.4,1.4-2.4,3.5
			C149.7,101.6,150.6,102.9,152.4,102.9z"/>
		<path class="st15" d="M161.2,104.3c-1.9,0-3.1-1.3-3.1-3.7v-1.8l0-3.8c0-0.1,0.1-0.2,0.2-0.2h1.3c0.1,0,0.2,0.1,0.2,0.2l0,3.8v1.8
			c0,1.7,0.8,2.4,2,2.4c1.2,0,2.2-1,2.6-2.8v-1.4l0-3.8c0-0.1,0.1-0.2,0.2-0.2h1.3c0.1,0,0.2,0.1,0.2,0.2l-0.1,4.1l0,4.9
			c0,0.1-0.1,0.2-0.2,0.2h-1.2c-0.1,0-0.2-0.1-0.2-0.2l0.1-1.4C163.7,103.5,162.7,104.3,161.2,104.3z"/>
		<path class="st15" d="M167.8,104.1c-0.1,0-0.2-0.1-0.2-0.2l0.1-4.6l-0.1-4.4c0-0.1,0.1-0.2,0.2-0.2h1.3c0.1,0,0.2,0.1,0.2,0.2
			l-0.1,1.6c0.6-1.2,1.9-1.8,3.2-1.8c0.2,0,0.4,0,0.5,0.1c0.1,0,0.2,0.1,0.2,0.2v1c0,0.1-0.1,0.2-0.2,0.2c-0.1,0-0.3,0-0.5,0
			c-1.5,0-2.9,0.9-3.1,3l0,4.9c0,0.1-0.1,0.2-0.2,0.2H167.8z"/>
		<path class="st15" d="M174.3,104.1c-0.1,0-0.2-0.1-0.2-0.2l0.1-4.1l-0.1-4.9c0-0.1,0.1-0.2,0.2-0.2h1.2c0.1,0,0.2,0.1,0.2,0.2
			l0,1.4c0.6-0.9,1.6-1.8,3.1-1.8c1.9,0,3.1,1.3,3.1,3.7v1.9l0.1,3.8c0,0.1-0.1,0.2-0.2,0.2h-1.3c-0.1,0-0.2-0.1-0.2-0.2l0-3.8v-1.8
			c0-1.7-0.8-2.4-2-2.4c-1.2,0-2.2,1-2.6,2.8v1.4l0,3.8c0,0.1-0.1,0.2-0.2,0.2H174.3z"/>
		<path class="st15" d="M187.6,104.3c-2.8,0-4.4-1.9-4.4-4.8c0-2.9,1.6-4.9,4.4-4.9c2.8,0,4.4,1.9,4.4,4.8S190.4,104.3,187.6,104.3z
			 M187.6,103.1c1.8,0,2.7-1.3,2.7-3.6s-0.9-3.7-2.7-3.7c-1.8,0-2.7,1.4-2.7,3.7S185.8,103.1,187.6,103.1z"/>
		<path class="st15" d="M197.1,104.3c-2.4,0-4.1-1.1-4.2-3.2c0-0.1,0.1-0.2,0.2-0.2h1.2c0.1,0,0.2,0.1,0.2,0.2
			c0.1,1.5,1,2.1,2.6,2.1c1.4,0,2.3-0.6,2.3-1.6c0-2.4-6.3-0.5-6.3-4.2c0-1.8,1.5-2.7,3.7-2.7c2.1,0,3.7,0.9,3.9,2.8
			c0,0.1-0.1,0.2-0.2,0.2h-1.2c-0.1,0-0.2-0.1-0.2-0.2c-0.1-1.2-1-1.7-2.3-1.7c-1.3,0-2.1,0.5-2.1,1.5c0,2.3,6.3,0.3,6.3,4.2
			C201,103.3,199.3,104.3,197.1,104.3z"/>
		<path class="st15" d="M202.5,104.1c-0.1,0-0.2-0.1-0.2-0.2l0.1-4.1l-0.1-4.9c0-0.1,0.1-0.2,0.2-0.2h1.2c0.1,0,0.2,0.1,0.2,0.2
			l0,1.4c0.6-0.9,1.6-1.8,3.1-1.8c1.9,0,3.1,1.3,3.1,3.7v1.9l0.1,3.8c0,0.1-0.1,0.2-0.2,0.2h-1.3c-0.1,0-0.2-0.1-0.2-0.2l0-3.8v-1.8
			c0-1.7-0.8-2.4-2-2.4c-1.2,0-2.2,1-2.6,2.8v1.4l0,3.8c0,0.1-0.1,0.2-0.2,0.2H202.5z"/>
		<path class="st15" d="M219.8,100.9c0.1,0,0.2,0.1,0.2,0.2c-0.3,1.9-1.7,3.3-4.1,3.3c-2.9,0-4.4-2-4.4-4.8c0-2.9,1.7-4.9,4.3-4.9
			c2.7,0,4.3,1.8,4.3,4.9c0,0.1-0.1,0.2-0.2,0.2h-6.8c0.1,2.2,1,3.4,2.8,3.4c1.4,0,2.2-0.7,2.5-2.1c0-0.1,0.1-0.2,0.2-0.2H219.8z
			 M215.8,95.8c-1.5,0-2.4,1-2.6,2.7h5.2C218.3,97.1,217.4,95.8,215.8,95.8z"/>
		<path class="st15" d="M224.9,104.1c-0.1,0-0.2-0.1-0.2-0.2l0.1-4.6l-0.1-4.3c0-0.1,0.1-0.2,0.2-0.2h1.3c0.1,0,0.2,0.1,0.2,0.2
			l-0.1,4.3l0.1,4.6c0,0.1-0.1,0.2-0.2,0.2H224.9z M224.9,93.7c-0.1,0-0.2-0.1-0.2-0.2v-1.4c0-0.1,0.1-0.2,0.2-0.2h1.3
			c0.1,0,0.2,0.1,0.2,0.2v1.4c0,0.1-0.1,0.2-0.2,0.2H224.9z"/>
		<path class="st15" d="M232.1,107.6c-2.1,0-3.8-0.9-4-2.8c0-0.1,0.1-0.2,0.2-0.2h1.3c0.1,0,0.2,0.1,0.2,0.2
			c0.2,1.1,1.1,1.7,2.4,1.7c1.6,0,2.6-0.9,2.6-3v-1c-0.6,1-1.6,1.6-2.9,1.6c-2.6,0-4-2-4-4.6c0-2.6,1.4-4.8,3.9-4.8
			c1.3,0,2.3,0.6,2.9,1.6l-0.1-1.3c0-0.1,0.1-0.2,0.2-0.2h1.3c0.1,0,0.2,0.1,0.2,0.2l0,3.5l0,4.9
			C236.3,106.1,234.8,107.6,232.1,107.6z M232.2,102.9c1.5,0,2.5-1.1,2.5-3.4c0-2.2-0.8-3.5-2.3-3.6c-0.1,0-0.3,0-0.4,0
			c-1.6,0.1-2.4,1.4-2.4,3.5C229.5,101.6,230.4,102.9,232.2,102.9z"/>
		<path class="st15" d="M238.2,104.1c-0.1,0-0.2-0.1-0.2-0.2l0.1-6.2l-0.1-6c0-0.1,0.1-0.2,0.2-0.2h1.3c0.1,0,0.2,0.1,0.2,0.2
			l-0.1,6l0.1,6.2c0,0.1-0.1,0.2-0.2,0.2H238.2z"/>
		<path class="st15" d="M249.5,100.9c0.1,0,0.2,0.1,0.2,0.2c-0.3,1.9-1.7,3.3-4.1,3.3c-2.9,0-4.4-2-4.4-4.8c0-2.9,1.7-4.9,4.3-4.9
			c2.7,0,4.3,1.8,4.3,4.9c0,0.1-0.1,0.2-0.2,0.2h-6.8c0.1,2.2,1,3.4,2.8,3.4c1.4,0,2.2-0.7,2.5-2.1c0-0.1,0.1-0.2,0.2-0.2H249.5z
			 M245.5,95.8c-1.5,0-2.4,1-2.6,2.7h5.2C248,97.1,247.2,95.8,245.5,95.8z"/>
		<path class="st15" d="M250.6,105.9c-0.1,0-0.2-0.1-0.1-0.2l0.4-1.6v-1.7c0-0.1,0.1-0.2,0.2-0.2h1.3c0.1,0,0.2,0.1,0.2,0.2v1.5
			c0,0.1,0,0.2-0.1,0.3l-1,1.5c-0.1,0.1-0.2,0.1-0.3,0.1H250.6z"/>
		<path class="st15" d="M90.6,125.4c0,0.1-0.1,0.2-0.2,0.2c-0.4,0.1-0.8,0.2-1.2,0.2c-1.4,0-2.5-0.7-2.5-2.7v-5.4h-1
			c-0.1,0-0.2-0.1-0.2-0.2v-0.9c0-0.1,0.1-0.2,0.2-0.2h1l0-2.1c0-0.1,0.1-0.2,0.2-0.2h1.3c0.1,0,0.2,0.1,0.2,0.2l0,2.1h2.1
			c0.1,0,0.2,0.1,0.2,0.2v0.9c0,0.1-0.1,0.2-0.2,0.2h-2.1v5.4c0,1.1,0.4,1.5,1.2,1.5c0.3,0,0.7-0.1,0.9-0.1c0.1,0,0.2,0,0.2,0.1
			V125.4z"/>
		<path class="st15" d="M95.4,125.9c-2.8,0-4.4-1.9-4.4-4.8c0-2.9,1.6-4.9,4.4-4.9c2.8,0,4.4,1.9,4.4,4.8S98.3,125.9,95.4,125.9z
			 M95.4,124.7c1.8,0,2.7-1.3,2.7-3.6s-0.9-3.7-2.7-3.7c-1.8,0-2.7,1.4-2.7,3.7S93.6,124.7,95.4,124.7z"/>
		<path class="st15" d="M105.7,125.9c-1.3,0-2.3-0.5-2.9-1.5l0,4.2c0,0.1-0.1,0.2-0.2,0.2h-1.3c-0.1,0-0.2-0.1-0.2-0.2l0.1-6.9
			l-0.1-5.1c0-0.1,0.1-0.2,0.2-0.2h1.3c0.1,0,0.2,0.1,0.2,0.2l0,1.3c0.6-1,1.6-1.7,3-1.7c2.5,0,3.8,2.1,3.8,4.8
			C109.6,123.7,108.2,125.9,105.7,125.9z M105.3,124.7c1.8,0,2.6-1.4,2.6-3.5c0-2.2-0.8-3.7-2.6-3.7c-1.6,0-2.6,1.2-2.6,3.5
			C102.8,123.3,103.7,124.7,105.3,124.7z"/>
		<path class="st15" d="M111.3,125.7c-0.1,0-0.2-0.1-0.2-0.2l0.1-6.2l-0.1-6c0-0.1,0.1-0.2,0.2-0.2h1.3c0.1,0,0.2,0.1,0.2,0.2
			l-0.1,6l0.1,6.2c0,0.1-0.1,0.2-0.2,0.2H111.3z"/>
		<path class="st15" d="M118.6,125.9c-2.8,0-4.4-1.9-4.4-4.8c0-2.9,1.6-4.9,4.4-4.9c2.8,0,4.4,1.9,4.4,4.8S121.4,125.9,118.6,125.9z
			 M118.6,124.7c1.8,0,2.7-1.3,2.7-3.6s-0.9-3.7-2.7-3.7c-1.8,0-2.7,1.4-2.7,3.7S116.8,124.7,118.6,124.7z"/>
		<path class="st15" d="M126,122.1l0.1,3.4c0,0.1-0.1,0.2-0.2,0.2h-1.4c-0.1,0-0.2-0.1-0.2-0.2l0.1-3.4l-0.1-5.5
			c0-0.1,0.1-0.2,0.2-0.2h1.3c0.1,0,0.2,0.1,0.2,0.2l0,1.4c0.6-1,1.5-1.8,2.9-1.8c1.3,0,2.3,0.6,2.7,1.9c0.6-1.3,1.6-1.9,2.9-1.9
			c1.8,0,2.9,1.2,2.9,3.7v2.2l0,3.4c0,0.1-0.1,0.2-0.2,0.2h-1.3c-0.1,0-0.2-0.1-0.2-0.2l0.1-3.4V120c0-1.7-0.7-2.4-1.8-2.4
			c-1,0-1.8,0.9-2.2,2.4v2.1l0.1,3.4c0,0.1-0.1,0.2-0.2,0.2h-1.3c-0.1,0-0.2-0.1-0.2-0.2l0.1-3.4V120c0-1.7-0.7-2.4-1.8-2.4
			c-1.1,0-2,1-2.3,2.8V122.1z"/>
		<path class="st15" d="M139.2,128.8c-0.1,0-0.2-0.1-0.2-0.2l0.1-5.9l-0.1-6.1c0-0.1,0.1-0.2,0.2-0.2h1.3c0.1,0,0.2,0.1,0.2,0.2
			l-0.1,6.1l0.1,5.9c0,0.1-0.1,0.2-0.2,0.2H139.2z M139.3,115.3c-0.1,0-0.2-0.1-0.2-0.2v-1.4c0-0.1,0.1-0.2,0.2-0.2h1.3
			c0.1,0,0.2,0.1,0.2,0.2v1.4c0,0.1-0.1,0.2-0.2,0.2H139.3z"/>
		<path class="st15" d="M150.5,122.5c0.1,0,0.2,0.1,0.2,0.2c-0.3,1.9-1.7,3.3-4.1,3.3c-2.9,0-4.4-2-4.4-4.8c0-2.9,1.7-4.9,4.3-4.9
			c2.7,0,4.3,1.8,4.3,4.9c0,0.1-0.1,0.2-0.2,0.2h-6.8c0.1,2.2,1,3.4,2.8,3.4c1.4,0,2.2-0.7,2.5-2.1c0-0.1,0.1-0.2,0.2-0.2H150.5z
			 M146.6,117.4c-1.5,0-2.4,1-2.6,2.7h5.2C149.1,118.7,148.2,117.4,146.6,117.4z"/>
		<path class="st15" d="M152.4,125.7c-0.1,0-0.2-0.1-0.2-0.2l0.1-4.6l-0.1-4.4c0-0.1,0.1-0.2,0.2-0.2h1.3c0.1,0,0.2,0.1,0.2,0.2
			l-0.1,1.6c0.6-1.2,1.9-1.8,3.2-1.8c0.2,0,0.4,0,0.5,0.1c0.1,0,0.2,0.1,0.2,0.2v1c0,0.1-0.1,0.2-0.2,0.2c-0.1,0-0.3,0-0.5,0
			c-1.5,0-2.9,0.9-3.1,3l0,4.9c0,0.1-0.1,0.2-0.2,0.2H152.4z"/>
		<path class="st15" d="M157,127.5c-0.1,0-0.2-0.1-0.1-0.2l0.4-1.6V124c0-0.1,0.1-0.2,0.2-0.2h1.3c0.1,0,0.2,0.1,0.2,0.2v1.5
			c0,0.1,0,0.2-0.1,0.3l-1,1.5c-0.1,0.1-0.2,0.1-0.3,0.1H157z"/>
		<path class="st15" d="M163.6,125.7c-0.1,0-0.2-0.1-0.2-0.2l0.1-4.6l-0.1-4.4c0-0.1,0.1-0.2,0.2-0.2h1.3c0.1,0,0.2,0.1,0.2,0.2
			l-0.1,1.6c0.6-1.2,1.9-1.8,3.2-1.8c0.2,0,0.4,0,0.5,0.1c0.1,0,0.2,0.1,0.2,0.2v1c0,0.1-0.1,0.2-0.2,0.2c-0.1,0-0.3,0-0.5,0
			c-1.5,0-2.9,0.9-3.1,3l0,4.9c0,0.1-0.1,0.2-0.2,0.2H163.6z"/>
		<path class="st15" d="M173,125.9c-1.9,0-3.1-1.3-3.1-3.7v-1.8l0-3.8c0-0.1,0.1-0.2,0.2-0.2h1.3c0.1,0,0.2,0.1,0.2,0.2l0,3.8v1.8
			c0,1.7,0.8,2.4,2,2.4c1.2,0,2.2-1,2.6-2.8v-1.4l0-3.8c0-0.1,0.1-0.2,0.2-0.2h1.3c0.1,0,0.2,0.1,0.2,0.2l-0.1,4.1l0,4.9
			c0,0.1-0.1,0.2-0.2,0.2h-1.2c-0.1,0-0.2-0.1-0.2-0.2l0.1-1.4C175.5,125.1,174.5,125.9,173,125.9z"/>
		<path class="st15" d="M184.1,124.2l-2-3.2l-1.2,1.3l0,3.2c0,0.1-0.1,0.2-0.2,0.2h-1.3c-0.1,0-0.2-0.1-0.2-0.2l0.1-6.1l-0.1-6.2
			c0-0.1,0.1-0.2,0.2-0.2h1.3c0.1,0,0.2,0.1,0.2,0.2l-0.1,6.1v1l3.5-3.9c0.1-0.1,0.2-0.1,0.3-0.1h1.5c0.1,0,0.1,0.1,0.1,0.1l-3,3.3
			l3.4,5.7c0,0.1,0,0.2-0.1,0.2h-1.5c-0.1,0-0.2-0.1-0.3-0.2L184.1,124.2z"/>
		<path class="st15" d="M193.7,125.7c-0.1,0-0.2-0.1-0.2-0.2l0-1.3c-0.6,1-1.6,1.7-3,1.7c-2.5,0-3.8-2.1-3.8-4.8s1.4-4.8,3.9-4.8
			c1.3,0,2.3,0.6,2.9,1.6l0-1.2c0-0.1,0.1-0.2,0.2-0.2h1.3c0.1,0,0.2,0.1,0.2,0.2l-0.1,4.4l0.1,4.5c0,0.1-0.1,0.2-0.2,0.2H193.7z
			 M191,124.7c1.6,0,2.6-1.2,2.6-3.5c0-2.2-0.8-3.5-2.3-3.7c-0.1,0-0.3,0-0.4,0c-1.7,0.1-2.4,1.5-2.4,3.5
			C188.5,123.2,189.3,124.7,191,124.7z"/>
		<path class="st15" d="M201.5,125.6c0,0.1-0.1,0.2-0.2,0.2h-1.6c-0.1,0-0.2-0.1-0.2-0.2l-3.3-9c0-0.1,0-0.2,0.1-0.2h1.4
			c0.1,0,0.2,0.1,0.2,0.2l2.6,7.8l2.7-7.8c0-0.1,0.1-0.2,0.2-0.2h1.2c0.1,0,0.1,0.1,0.1,0.2L201.5,125.6z"/>
		<path class="st15" d="M206,125.7c-0.1,0-0.2-0.1-0.2-0.2l0.1-4.6l-0.1-4.3c0-0.1,0.1-0.2,0.2-0.2h1.3c0.1,0,0.2,0.1,0.2,0.2
			l-0.1,4.3l0.1,4.6c0,0.1-0.1,0.2-0.2,0.2H206z M206,115.3c-0.1,0-0.2-0.1-0.2-0.2v-1.4c0-0.1,0.1-0.2,0.2-0.2h1.3
			c0.1,0,0.2,0.1,0.2,0.2v1.4c0,0.1-0.1,0.2-0.2,0.2H206z"/>
		<path class="st15" d="M213.3,125.9c-2.8,0-4.3-1.9-4.3-4.8s1.6-4.9,4.4-4.9c2.3,0,3.7,1.3,3.9,3.2c0,0.1-0.1,0.2-0.2,0.2h-1.2
			c-0.1,0-0.2-0.1-0.2-0.2c-0.2-1.4-1.2-2-2.4-2c-1.8,0-2.7,1.3-2.7,3.6c0,2.4,0.9,3.6,2.7,3.6c1.4,0,2.3-0.8,2.5-2.3
			c0-0.1,0.1-0.2,0.2-0.2h1.2c0.1,0,0.2,0.1,0.2,0.2C217.1,124.5,215.7,125.9,213.3,125.9z"/>
		<path class="st15" d="M226.6,122.5c0.1,0,0.2,0.1,0.2,0.2c-0.3,1.9-1.7,3.3-4.1,3.3c-2.9,0-4.4-2-4.4-4.8c0-2.9,1.7-4.9,4.3-4.9
			c2.7,0,4.3,1.8,4.3,4.9c0,0.1-0.1,0.2-0.2,0.2H220c0.1,2.2,1,3.4,2.8,3.4c1.4,0,2.2-0.7,2.5-2.1c0-0.1,0.1-0.2,0.2-0.2H226.6z
			 M222.7,117.4c-1.5,0-2.4,1-2.6,2.7h5.2C225.1,118.7,224.3,117.4,222.7,117.4z"/>
		<path class="st15" d="M238.5,125.5c0,0.1-0.1,0.2-0.2,0.2h-6.9c-0.1,0-0.2-0.1-0.2-0.2v-0.9c0-0.1,0-0.2,0.1-0.3l5-6.6h-4.5
			c-0.1,0-0.2-0.1-0.2-0.2v-0.9c0-0.1,0.1-0.2,0.2-0.2h6.3c0.1,0,0.2,0.1,0.2,0.2v0.9c0,0.1,0,0.2-0.1,0.3l-5,6.6h5.2
			c0.1,0,0.2,0.1,0.2,0.2V125.5z"/>
		<path class="st15" d="M246,125.7c-0.1,0-0.2-0.1-0.2-0.2l0-1.3c-0.6,1-1.6,1.7-3,1.7c-2.5,0-3.8-2.1-3.8-4.8s1.4-4.8,3.9-4.8
			c1.3,0,2.3,0.6,2.9,1.6l0-1.2c0-0.1,0.1-0.2,0.2-0.2h1.3c0.1,0,0.2,0.1,0.2,0.2l-0.1,4.4l0.1,4.5c0,0.1-0.1,0.2-0.2,0.2H246z
			 M243.3,124.7c1.6,0,2.6-1.2,2.6-3.5c0-2.2-0.8-3.5-2.3-3.7c-0.1,0-0.3,0-0.4,0c-1.7,0.1-2.4,1.5-2.4,3.5
			C240.7,123.2,241.6,124.7,243.3,124.7z"/>
		<path class="st15" d="M86.2,150.4c-0.1,0-0.2-0.1-0.2-0.2l0.1-5.9l-0.1-6.1c0-0.1,0.1-0.2,0.2-0.2h1.3c0.1,0,0.2,0.1,0.2,0.2
			l-0.1,6.1l0.1,5.9c0,0.1-0.1,0.2-0.2,0.2H86.2z M86.2,136.9c-0.1,0-0.2-0.1-0.2-0.2v-1.4c0-0.1,0.1-0.2,0.2-0.2h1.3
			c0.1,0,0.2,0.1,0.2,0.2v1.4c0,0.1-0.1,0.2-0.2,0.2H86.2z"/>
		<path class="st15" d="M97.5,144.1c0.1,0,0.2,0.1,0.2,0.2c-0.3,1.9-1.7,3.3-4.1,3.3c-2.9,0-4.4-2-4.4-4.8c0-2.9,1.7-4.9,4.3-4.9
			c2.7,0,4.3,1.8,4.3,4.9c0,0.1-0.1,0.2-0.2,0.2h-6.8c0.1,2.2,1,3.4,2.8,3.4c1.4,0,2.2-0.7,2.5-2.1c0-0.1,0.1-0.2,0.2-0.2H97.5z
			 M93.5,139c-1.5,0-2.4,1-2.6,2.7H96C96,140.3,95.1,139,93.5,139z"/>
		<path class="st15" d="M105.8,147.3c-0.1,0-0.2-0.1-0.2-0.2l0-1.3c-0.6,1-1.6,1.7-3,1.7c-2.5,0-3.8-2.1-3.8-4.8
			c0-2.7,1.4-4.8,3.9-4.8c1.3,0,2.3,0.5,2.9,1.6l0-4.5c0-0.1,0.1-0.2,0.2-0.2h1.3c0.1,0,0.2,0.1,0.2,0.2l-0.1,5.4l0.1,6.8
			c0,0.1-0.1,0.2-0.2,0.2H105.8z M103.1,146.3c1.6,0,2.6-1.2,2.6-3.5c0-2.3-0.9-3.7-2.6-3.7c-1.8,0-2.6,1.5-2.6,3.5
			C100.5,144.8,101.3,146.3,103.1,146.3z"/>
		<path class="st15" d="M109.1,147.3c-0.1,0-0.2-0.1-0.2-0.2l0.1-4.1l-0.1-4.9c0-0.1,0.1-0.2,0.2-0.2h1.2c0.1,0,0.2,0.1,0.2,0.2
			l0,1.4c0.6-0.9,1.6-1.8,3.1-1.8c1.9,0,3.1,1.3,3.1,3.7v1.9l0.1,3.8c0,0.1-0.1,0.2-0.2,0.2h-1.3c-0.1,0-0.2-0.1-0.2-0.2l0-3.8v-1.8
			c0-1.7-0.8-2.4-2-2.4c-1.2,0-2.2,1-2.6,2.8v1.4l0,3.8c0,0.1-0.1,0.2-0.2,0.2H109.1z"/>
		<path class="st15" d="M122.5,147.5c-2.8,0-4.4-1.9-4.4-4.8c0-2.9,1.6-4.9,4.4-4.9c2.8,0,4.4,1.9,4.4,4.8S125.3,147.5,122.5,147.5z
			 M122.5,146.3c1.8,0,2.7-1.3,2.7-3.6s-0.9-3.7-2.7-3.7c-1.8,0-2.7,1.4-2.7,3.7S120.7,146.3,122.5,146.3z"/>
		<path class="st15" d="M133,145.8l-2-3.2l-1.2,1.3l0,3.2c0,0.1-0.1,0.2-0.2,0.2h-1.3c-0.1,0-0.2-0.1-0.2-0.2l0.1-6.1l-0.1-6.2
			c0-0.1,0.1-0.2,0.2-0.2h1.3c0.1,0,0.2,0.1,0.2,0.2l-0.1,6.1v1l3.5-3.9c0.1-0.1,0.2-0.1,0.3-0.1h1.5c0.1,0,0.1,0.1,0.1,0.1l-3,3.3
			l3.4,5.7c0,0.1,0,0.2-0.1,0.2H134c-0.1,0-0.2-0.1-0.3-0.2L133,145.8z"/>
		<path class="st15" d="M136.8,147.3c-0.1,0-0.2-0.1-0.2-0.2l0.1-4.6l-0.1-4.4c0-0.1,0.1-0.2,0.2-0.2h1.3c0.1,0,0.2,0.1,0.2,0.2
			l-0.1,1.6c0.6-1.2,1.9-1.8,3.2-1.8c0.2,0,0.4,0,0.5,0.1c0.1,0,0.2,0.1,0.2,0.2v1c0,0.1-0.1,0.2-0.2,0.2c-0.1,0-0.3,0-0.5,0
			c-1.5,0-2.9,0.9-3.1,3l0,4.9c0,0.1-0.1,0.2-0.2,0.2H136.8z"/>
		<path class="st15" d="M149.1,147.3c-0.1,0-0.2-0.1-0.2-0.2l0-1.3c-0.6,1-1.6,1.7-3,1.7c-2.5,0-3.8-2.1-3.8-4.8s1.4-4.8,3.9-4.8
			c1.3,0,2.3,0.6,2.9,1.6l0-1.2c0-0.1,0.1-0.2,0.2-0.2h1.3c0.1,0,0.2,0.1,0.2,0.2l-0.1,4.4l0.1,4.5c0,0.1-0.1,0.2-0.2,0.2H149.1z
			 M146.4,146.3c1.6,0,2.6-1.2,2.6-3.5c0-2.2-0.8-3.5-2.3-3.7c-0.1,0-0.3,0-0.4,0c-1.7,0.1-2.4,1.5-2.4,3.5
			C143.8,144.8,144.6,146.3,146.4,146.3z"/>
		<path class="st15" d="M156.9,147c0,0.1-0.1,0.2-0.2,0.2c-0.4,0.1-0.8,0.2-1.2,0.2c-1.4,0-2.5-0.7-2.5-2.7v-5.4h-1
			c-0.1,0-0.2-0.1-0.2-0.2v-0.9c0-0.1,0.1-0.2,0.2-0.2h1l0-2.1c0-0.1,0.1-0.2,0.2-0.2h1.3c0.1,0,0.2,0.1,0.2,0.2l0,2.1h2.1
			c0.1,0,0.2,0.1,0.2,0.2v0.9c0,0.1-0.1,0.2-0.2,0.2h-2.1v5.4c0,1.1,0.4,1.5,1.2,1.5c0.3,0,0.7-0.1,0.9-0.1c0.1,0,0.2,0,0.2,0.1V147
			z"/>
		<path class="st15" d="M158.3,147.3c-0.1,0-0.2-0.1-0.2-0.2l0.1-4.1l-0.1-4.9c0-0.1,0.1-0.2,0.2-0.2h1.2c0.1,0,0.2,0.1,0.2,0.2
			l0,1.4c0.6-0.9,1.6-1.8,3.1-1.8c1.9,0,3.1,1.3,3.1,3.7v1.9l0.1,3.8c0,0.1-0.1,0.2-0.2,0.2h-1.3c-0.1,0-0.2-0.1-0.2-0.2l0-3.8v-1.8
			c0-1.7-0.8-2.4-2-2.4c-1.2,0-2.2,1-2.6,2.8v1.4l0,3.8c0,0.1-0.1,0.2-0.2,0.2H158.3z"/>
		<path class="st15" d="M170.6,147.5c-1.9,0-3.1-1.3-3.1-3.7V142l0-3.8c0-0.1,0.1-0.2,0.2-0.2h1.3c0.1,0,0.2,0.1,0.2,0.2l0,3.8v1.8
			c0,1.7,0.8,2.4,2,2.4c1.2,0,2.2-1,2.6-2.8V142l0-3.8c0-0.1,0.1-0.2,0.2-0.2h1.3c0.1,0,0.2,0.1,0.2,0.2l-0.1,4.1l0,4.9
			c0,0.1-0.1,0.2-0.2,0.2h-1.2c-0.1,0-0.2-0.1-0.2-0.2l0.1-1.4C173.1,146.7,172.1,147.5,170.6,147.5z"/>
		<path class="st15" d="M183.4,147.5c-1.9,0-3.1-1.3-3.1-3.7V142l0-3.8c0-0.1,0.1-0.2,0.2-0.2h1.3c0.1,0,0.2,0.1,0.2,0.2l0,3.8v1.8
			c0,1.7,0.8,2.4,2,2.4c1.2,0,2.2-1,2.6-2.8V142l0-3.8c0-0.1,0.1-0.2,0.2-0.2h1.3c0.1,0,0.2,0.1,0.2,0.2l-0.1,4.1l0,4.9
			c0,0.1-0.1,0.2-0.2,0.2h-1.2c-0.1,0-0.2-0.1-0.2-0.2l0.1-1.4C185.9,146.7,184.9,147.5,183.4,147.5z"/>
		<path class="st15" d="M194.3,147.5c-1.3,0-2.3-0.5-2.9-1.5l0,4.2c0,0.1-0.1,0.2-0.2,0.2h-1.3c-0.1,0-0.2-0.1-0.2-0.2l0.1-6.9
			l-0.1-5.1c0-0.1,0.1-0.2,0.2-0.2h1.3c0.1,0,0.2,0.1,0.2,0.2l0,1.3c0.6-1,1.6-1.7,3-1.7c2.5,0,3.8,2.1,3.8,4.8
			C198.2,145.3,196.8,147.5,194.3,147.5z M193.9,146.3c1.8,0,2.6-1.4,2.6-3.5c0-2.2-0.8-3.7-2.6-3.7c-1.6,0-2.6,1.2-2.6,3.5
			C191.3,144.9,192.3,146.3,193.9,146.3z"/>
		<path class="st15" d="M203.6,147.5c-2.8,0-4.4-1.9-4.4-4.8c0-2.9,1.6-4.9,4.4-4.9c2.8,0,4.4,1.9,4.4,4.8S206.5,147.5,203.6,147.5z
			 M203.6,146.3c1.8,0,2.7-1.3,2.7-3.6s-0.9-3.7-2.7-3.7c-1.8,0-2.7,1.4-2.7,3.7S201.8,146.3,203.6,146.3z"/>
		<path class="st15" d="M209.6,147.3c-0.1,0-0.2-0.1-0.2-0.2l0.1-4.6l-0.1-4.4c0-0.1,0.1-0.2,0.2-0.2h1.3c0.1,0,0.2,0.1,0.2,0.2
			l-0.1,1.6c0.6-1.2,1.9-1.8,3.2-1.8c0.2,0,0.4,0,0.5,0.1c0.1,0,0.2,0.1,0.2,0.2v1c0,0.1-0.1,0.2-0.2,0.2c-0.1,0-0.3,0-0.5,0
			c-1.5,0-2.9,0.9-3.1,3l0,4.9c0,0.1-0.1,0.2-0.2,0.2H209.6z"/>
		<path class="st15" d="M221.8,147.3c-0.1,0-0.2-0.1-0.2-0.2l0-1.3c-0.6,1-1.6,1.7-3,1.7c-2.5,0-3.8-2.1-3.8-4.8s1.4-4.8,3.9-4.8
			c1.3,0,2.3,0.6,2.9,1.6l0-1.2c0-0.1,0.1-0.2,0.2-0.2h1.3c0.1,0,0.2,0.1,0.2,0.2l-0.1,4.4l0.1,4.5c0,0.1-0.1,0.2-0.2,0.2H221.8z
			 M219.1,146.3c1.6,0,2.6-1.2,2.6-3.5c0-2.2-0.8-3.5-2.3-3.7c-0.1,0-0.3,0-0.4,0c-1.7,0.1-2.4,1.5-2.4,3.5
			C216.5,144.8,217.4,146.3,219.1,146.3z"/>
		<path class="st15" d="M229.5,147.5c-1.3,0-2.3-0.6-2.9-1.6l0,1.2c0,0.1-0.1,0.2-0.2,0.2h-1.3c-0.1,0-0.2-0.1-0.2-0.2l0.1-6.7
			l-0.1-5.5c0-0.1,0.1-0.2,0.2-0.2h1.3c0.1,0,0.2,0.1,0.2,0.2l0,4.6c0.6-1,1.6-1.6,3-1.6c2.5,0,3.8,2.1,3.8,4.8
			C233.4,145.3,232,147.5,229.5,147.5z M229.1,146.3c1.8,0,2.6-1.4,2.6-3.5c0-2.2-0.8-3.7-2.6-3.7c-1.6,0-2.6,1.2-2.6,3.5
			C226.5,144.9,227.5,146.3,229.1,146.3z"/>
		<path class="st15" d="M237.8,147.5c-1.9,0-3.1-1.3-3.1-3.7V142l0-3.8c0-0.1,0.1-0.2,0.2-0.2h1.3c0.1,0,0.2,0.1,0.2,0.2l0,3.8v1.8
			c0,1.7,0.8,2.4,2,2.4c1.2,0,2.2-1,2.6-2.8V142l0-3.8c0-0.1,0.1-0.2,0.2-0.2h1.3c0.1,0,0.2,0.1,0.2,0.2l-0.1,4.1l0,4.9
			c0,0.1-0.1,0.2-0.2,0.2h-1.2c-0.1,0-0.2-0.1-0.2-0.2l0.1-1.4C240.4,146.7,239.3,147.5,237.8,147.5z"/>
		<path class="st15" d="M243.9,149.1c-0.1,0-0.2-0.1-0.1-0.2l0.4-1.6v-1.7c0-0.1,0.1-0.2,0.2-0.2h1.3c0.1,0,0.2,0.1,0.2,0.2v1.5
			c0,0.1,0,0.2-0.1,0.3l-1,1.5c-0.1,0.1-0.2,0.1-0.3,0.1H243.9z"/>
		<path class="st15" d="M90.5,169.1c-1.3,0-2.3-0.6-2.9-1.6l0,1.2c0,0.1-0.1,0.2-0.2,0.2h-1.3c-0.1,0-0.2-0.1-0.2-0.2L86,162
			l-0.1-5.5c0-0.1,0.1-0.2,0.2-0.2h1.3c0.1,0,0.2,0.1,0.2,0.2l0,4.6c0.6-1,1.6-1.6,3-1.6c2.5,0,3.8,2.1,3.8,4.8
			C94.3,166.9,92.9,169.1,90.5,169.1z M90,167.9c1.8,0,2.6-1.4,2.6-3.5c0-2.2-0.8-3.7-2.6-3.7c-1.6,0-2.6,1.2-2.6,3.5
			C87.5,166.5,88.4,167.9,90,167.9z"/>
		<path class="st15" d="M102.3,168.9c-0.1,0-0.2-0.1-0.2-0.2l0-1.3c-0.6,1-1.6,1.7-3,1.7c-2.5,0-3.8-2.1-3.8-4.8s1.4-4.8,3.9-4.8
			c1.3,0,2.3,0.6,2.9,1.6l0-1.2c0-0.1,0.1-0.2,0.2-0.2h1.3c0.1,0,0.2,0.1,0.2,0.2l-0.1,4.4l0.1,4.5c0,0.1-0.1,0.2-0.2,0.2H102.3z
			 M99.6,167.9c1.6,0,2.6-1.2,2.6-3.5c0-2.2-0.8-3.5-2.3-3.7c-0.1,0-0.3,0-0.4,0c-1.7,0.1-2.4,1.5-2.4,3.5
			C97.1,166.4,97.9,167.9,99.6,167.9z"/>
		<path class="st15" d="M110.1,168.6c0,0.1-0.1,0.2-0.2,0.2c-0.4,0.1-0.8,0.2-1.2,0.2c-1.4,0-2.5-0.7-2.5-2.7v-5.4h-1
			c-0.1,0-0.2-0.1-0.2-0.2v-0.9c0-0.1,0.1-0.2,0.2-0.2h1l0-2.1c0-0.1,0.1-0.2,0.2-0.2h1.3c0.1,0,0.2,0.1,0.2,0.2l0,2.1h2.1
			c0.1,0,0.2,0.1,0.2,0.2v0.9c0,0.1-0.1,0.2-0.2,0.2h-2.1v5.4c0,1.1,0.4,1.5,1.2,1.5c0.3,0,0.7-0.1,0.9-0.1c0.1,0,0.2,0,0.2,0.1
			V168.6z"/>
		<path class="st15" d="M118.9,165.7c0.1,0,0.2,0.1,0.2,0.2c-0.3,1.9-1.7,3.3-4.1,3.3c-2.9,0-4.4-2-4.4-4.8c0-2.9,1.7-4.9,4.3-4.9
			c2.7,0,4.3,1.8,4.3,4.9c0,0.1-0.1,0.2-0.2,0.2h-6.8c0.1,2.2,1,3.4,2.8,3.4c1.4,0,2.2-0.7,2.5-2.1c0-0.1,0.1-0.2,0.2-0.2H118.9z
			 M115,160.6c-1.5,0-2.4,1-2.6,2.7h5.2C117.4,161.9,116.6,160.6,115,160.6z"/>
		<path class="st15" d="M120.8,168.9c-0.1,0-0.2-0.1-0.2-0.2l0.1-4.6l-0.1-4.4c0-0.1,0.1-0.2,0.2-0.2h1.3c0.1,0,0.2,0.1,0.2,0.2
			l-0.1,1.6c0.6-1.2,1.9-1.8,3.2-1.8c0.2,0,0.4,0,0.5,0.1c0.1,0,0.2,0.1,0.2,0.2v1c0,0.1-0.1,0.2-0.2,0.2c-0.1,0-0.3,0-0.5,0
			c-1.5,0-2.9,0.9-3.1,3l0,4.9c0,0.1-0.1,0.2-0.2,0.2H120.8z"/>
		<path class="st15" d="M127.4,168.9c-0.1,0-0.2-0.1-0.2-0.2l0.1-4.6l-0.1-4.3c0-0.1,0.1-0.2,0.2-0.2h1.3c0.1,0,0.2,0.1,0.2,0.2
			l-0.1,4.3l0.1,4.6c0,0.1-0.1,0.2-0.2,0.2H127.4z M127.4,158.5c-0.1,0-0.2-0.1-0.2-0.2v-1.4c0-0.1,0.1-0.2,0.2-0.2h1.3
			c0.1,0,0.2,0.1,0.2,0.2v1.4c0,0.1-0.1,0.2-0.2,0.2H127.4z"/>
		<path class="st15" d="M130.9,172c-0.1,0-0.2-0.1-0.2-0.2l0.1-5.9l-0.1-6.1c0-0.1,0.1-0.2,0.2-0.2h1.3c0.1,0,0.2,0.1,0.2,0.2
			l-0.1,6.1l0.1,5.9c0,0.1-0.1,0.2-0.2,0.2H130.9z M131,158.5c-0.1,0-0.2-0.1-0.2-0.2v-1.4c0-0.1,0.1-0.2,0.2-0.2h1.3
			c0.1,0,0.2,0.1,0.2,0.2v1.4c0,0.1-0.1,0.2-0.2,0.2H131z"/>
		<path class="st15" d="M138.1,169.1c-2.4,0-4.1-1.1-4.2-3.2c0-0.1,0.1-0.2,0.2-0.2h1.2c0.1,0,0.2,0.1,0.2,0.2
			c0.1,1.5,1,2.1,2.6,2.1c1.4,0,2.3-0.6,2.3-1.6c0-2.4-6.3-0.5-6.3-4.2c0-1.8,1.5-2.7,3.7-2.7c2.1,0,3.7,0.9,3.9,2.8
			c0,0.1-0.1,0.2-0.2,0.2h-1.2c-0.1,0-0.2-0.1-0.2-0.2c-0.1-1.2-1-1.7-2.3-1.7c-1.3,0-2.1,0.5-2.1,1.5c0,2.3,6.3,0.3,6.3,4.2
			C141.9,168.1,140.2,169.1,138.1,169.1z"/>
		<path class="st15" d="M148,167.4l-2-3.2l-1.2,1.3l0,3.2c0,0.1-0.1,0.2-0.2,0.2h-1.3c-0.1,0-0.2-0.1-0.2-0.2l0.1-6.1l-0.1-6.2
			c0-0.1,0.1-0.2,0.2-0.2h1.3c0.1,0,0.2,0.1,0.2,0.2l-0.1,6.1v1l3.5-3.9c0.1-0.1,0.2-0.1,0.3-0.1h1.5c0.1,0,0.1,0.1,0.1,0.1l-3,3.3
			l3.4,5.7c0,0.1,0,0.2-0.1,0.2H149c-0.1,0-0.2-0.1-0.3-0.2L148,167.4z"/>
		<path class="st15" d="M154.4,169.1c-1.9,0-3.1-1.3-3.1-3.7v-1.8l0-3.8c0-0.1,0.1-0.2,0.2-0.2h1.3c0.1,0,0.2,0.1,0.2,0.2l0,3.8v1.8
			c0,1.7,0.8,2.4,2,2.4c1.2,0,2.2-1,2.6-2.8v-1.4l0-3.8c0-0.1,0.1-0.2,0.2-0.2h1.3c0.1,0,0.2,0.1,0.2,0.2l-0.1,4.1l0,4.9
			c0,0.1-0.1,0.2-0.2,0.2h-1.2c-0.1,0-0.2-0.1-0.2-0.2l0.1-1.4C156.9,168.3,155.9,169.1,154.4,169.1z"/>
		<path class="st15" d="M168,169.1c-2.4,0-4.1-1.1-4.2-3.2c0-0.1,0.1-0.2,0.2-0.2h1.2c0.1,0,0.2,0.1,0.2,0.2c0.1,1.5,1,2.1,2.6,2.1
			c1.4,0,2.3-0.6,2.3-1.6c0-2.4-6.3-0.5-6.3-4.2c0-1.8,1.5-2.7,3.7-2.7c2.1,0,3.7,0.9,3.9,2.8c0,0.1-0.1,0.2-0.2,0.2h-1.2
			c-0.1,0-0.2-0.1-0.2-0.2c-0.1-1.2-1-1.7-2.3-1.7c-1.3,0-2.1,0.5-2.1,1.5c0,2.3,6.3,0.3,6.3,4.2C171.8,168.1,170.1,169.1,168,169.1
			z"/>
		<path class="st15" d="M177.4,168.8c0,0.1-0.1,0.2-0.2,0.2h-1.6c-0.1,0-0.2-0.1-0.2-0.2l-3.3-9c0-0.1,0-0.2,0.1-0.2h1.4
			c0.1,0,0.2,0.1,0.2,0.2l2.6,7.8l2.7-7.8c0-0.1,0.1-0.2,0.2-0.2h1.2c0.1,0,0.1,0.1,0.1,0.2L177.4,168.8z"/>
		<path class="st15" d="M181.8,172c-0.1,0-0.2-0.1-0.2-0.2l0.1-5.9l-0.1-6.1c0-0.1,0.1-0.2,0.2-0.2h1.3c0.1,0,0.2,0.1,0.2,0.2
			l-0.1,6.1l0.1,5.9c0,0.1-0.1,0.2-0.2,0.2H181.8z M181.8,158.5c-0.1,0-0.2-0.1-0.2-0.2v-1.4c0-0.1,0.1-0.2,0.2-0.2h1.3
			c0.1,0,0.2,0.1,0.2,0.2v1.4c0,0.1-0.1,0.2-0.2,0.2H181.8z"/>
		<path class="st15" d="M193.1,165.7c0.1,0,0.2,0.1,0.2,0.2c-0.3,1.9-1.7,3.3-4.1,3.3c-2.9,0-4.4-2-4.4-4.8c0-2.9,1.7-4.9,4.3-4.9
			c2.7,0,4.3,1.8,4.3,4.9c0,0.1-0.1,0.2-0.2,0.2h-6.8c0.1,2.2,1,3.4,2.8,3.4c1.4,0,2.2-0.7,2.5-2.1c0-0.1,0.1-0.2,0.2-0.2H193.1z
			 M189.2,160.6c-1.5,0-2.4,1-2.6,2.7h5.2C191.6,161.9,190.8,160.6,189.2,160.6z"/>
		<path class="st15" d="M199.2,168.6c0,0.1-0.1,0.2-0.2,0.2c-0.4,0.1-0.8,0.2-1.2,0.2c-1.4,0-2.5-0.7-2.5-2.7v-5.4h-1
			c-0.1,0-0.2-0.1-0.2-0.2v-0.9c0-0.1,0.1-0.2,0.2-0.2h1l0-2.1c0-0.1,0.1-0.2,0.2-0.2h1.3c0.1,0,0.2,0.1,0.2,0.2l0,2.1h2.1
			c0.1,0,0.2,0.1,0.2,0.2v0.9c0,0.1-0.1,0.2-0.2,0.2h-2.1v5.4c0,1.1,0.4,1.5,1.2,1.5c0.3,0,0.7-0.1,0.9-0.1c0.1,0,0.2,0,0.2,0.1
			V168.6z"/>
		<path class="st15" d="M200.7,168.9c-0.1,0-0.2-0.1-0.2-0.2l0.1-4.6l-0.1-4.3c0-0.1,0.1-0.2,0.2-0.2h1.3c0.1,0,0.2,0.1,0.2,0.2
			l-0.1,4.3l0.1,4.6c0,0.1-0.1,0.2-0.2,0.2H200.7z M200.7,158.5c-0.1,0-0.2-0.1-0.2-0.2v-1.4c0-0.1,0.1-0.2,0.2-0.2h1.3
			c0.1,0,0.2,0.1,0.2,0.2v1.4c0,0.1-0.1,0.2-0.2,0.2H200.7z"/>
		<path class="st15" d="M204.2,168.9c-0.1,0-0.2-0.1-0.2-0.2l0.1-6.2l-0.1-6c0-0.1,0.1-0.2,0.2-0.2h1.3c0.1,0,0.2,0.1,0.2,0.2
			l-0.1,6l0.1,6.2c0,0.1-0.1,0.2-0.2,0.2H204.2z"/>
		<path class="st15" d="M207.8,172c-0.1,0-0.2-0.1-0.2-0.2l0.1-5.9l-0.1-6.1c0-0.1,0.1-0.2,0.2-0.2h1.3c0.1,0,0.2,0.1,0.2,0.2
			l-0.1,6.1l0.1,5.9c0,0.1-0.1,0.2-0.2,0.2H207.8z M207.8,158.5c-0.1,0-0.2-0.1-0.2-0.2v-1.4c0-0.1,0.1-0.2,0.2-0.2h1.3
			c0.1,0,0.2,0.1,0.2,0.2v1.4c0,0.1-0.1,0.2-0.2,0.2H207.8z"/>
		<path class="st15" d="M215.8,167.4l-2-3.2l-1.2,1.3l0,3.2c0,0.1-0.1,0.2-0.2,0.2h-1.3c-0.1,0-0.2-0.1-0.2-0.2l0.1-6.1l-0.1-6.2
			c0-0.1,0.1-0.2,0.2-0.2h1.3c0.1,0,0.2,0.1,0.2,0.2l-0.1,6.1v1l3.5-3.9c0.1-0.1,0.2-0.1,0.3-0.1h1.5c0.1,0,0.1,0.1,0.1,0.1l-3,3.3
			l3.4,5.7c0,0.1,0,0.2-0.1,0.2h-1.5c-0.1,0-0.2-0.1-0.3-0.2L215.8,167.4z"/>
		<path class="st15" d="M222.2,169.1c-1.9,0-3.1-1.3-3.1-3.7v-1.8l0-3.8c0-0.1,0.1-0.2,0.2-0.2h1.3c0.1,0,0.2,0.1,0.2,0.2l0,3.8v1.8
			c0,1.7,0.8,2.4,2,2.4c1.2,0,2.2-1,2.6-2.8v-1.4l0-3.8c0-0.1,0.1-0.2,0.2-0.2h1.3c0.1,0,0.2,0.1,0.2,0.2l-0.1,4.1l0,4.9
			c0,0.1-0.1,0.2-0.2,0.2h-1.2c-0.1,0-0.2-0.1-0.2-0.2l0.1-1.4C224.7,168.3,223.7,169.1,222.2,169.1z"/>
		<path class="st15" d="M228.5,168.9c-0.1,0-0.2-0.1-0.2-0.2v-1.5c0-0.1,0.1-0.2,0.2-0.2h1.5c0.1,0,0.2,0.1,0.2,0.2v1.5
			c0,0.1-0.1,0.2-0.2,0.2H228.5z"/>
	</g>
</g>
<g>
	<g>
		<path class="st4" d="M465.8,9.8V5.5l-8.4,0.1c-0.2,0-0.3-0.1-0.3-0.3v-5c0-0.2,0.1-0.3,0.3-0.3l12.3,0.2L481.9,0
			c0.2,0,0.3,0.1,0.3,0.3v9.5c0,6.1-2.7,9.6-8.1,9.6C468.9,19.4,465.8,15.8,465.8,9.8z M478.3,10V5.6l-8.5-0.1v4.7
			c0,2.1,1.2,3.9,4.2,3.9C476.9,14.1,478.3,12.6,478.3,10z"/>
		<path class="st4" d="M457.1,20.8c0-0.2,0.1-0.3,0.3-0.3l9,0.1l8.9-0.1c0.2,0,0.3,0.1,0.3,0.3v4.8c0,0.2-0.1,0.3-0.3,0.3l-2.8-0.1
			c2.2,1.4,3.3,3.9,3.3,6.6c0,0.3,0,0.6-0.1,0.8c0,0.2-0.2,0.3-0.4,0.3h-3.3c-0.2,0-0.3-0.1-0.3-0.3c0-0.2,0-0.5,0-0.7
			c0-3.8-2.1-6.7-6.4-6.6h-7.9c-0.2,0-0.3-0.1-0.3-0.3V20.8z"/>
		<path class="st4" d="M477.4,35c0-0.2,0.1-0.3,0.3-0.3h4.2c0.2,0,0.3,0.1,0.3,0.3v4.8c0,0.2-0.1,0.3-0.3,0.3h-4.2
			c-0.2,0-0.3-0.1-0.3-0.3V35z M457.1,35c0-0.2,0.1-0.3,0.3-0.3l8.9,0.1l9-0.1c0.2,0,0.3,0.1,0.3,0.3v4.9c0,0.2-0.1,0.3-0.3,0.3
			l-9-0.1l-8.9,0.1c-0.2,0-0.3-0.1-0.3-0.3V35z"/>
		<path class="st4" d="M456.7,52.6c0-2.3,0.8-4.1,2.3-5.4l-1.7,0.1c-0.2,0-0.3-0.1-0.3-0.3v-4.8c0-0.2,0.1-0.3,0.3-0.3l12.3,0.1
			l12.3-0.1c0.2,0,0.3,0.1,0.3,0.3V47c0,0.2-0.1,0.3-0.3,0.3l-8.5,0c1.6,1.3,2.5,3.1,2.5,5.4c0,5.3-4.2,8-9.6,8
			C461,60.8,456.7,57.7,456.7,52.6z M460.4,51.1c-0.1,2.7,2.1,4.1,5.8,4.1c4.1,0,6.2-1.4,6.1-4c0-2.6-1.9-4-5.8-4.1
			C462.6,47.1,460.4,48.5,460.4,51.1z"/>
		<path class="st4" d="M456.6,71.2c0-6,3.8-9.5,9.7-9.5s9.8,3.5,9.8,9.5s-3.8,9.5-9.7,9.5S456.6,77.2,456.6,71.2z M460.2,71.2
			c0,2.7,1.8,3.9,6.1,3.9c4.2,0,6.2-1.3,6.2-4c0-2.7-2.1-4-6.2-4S460.2,68.5,460.2,71.2z"/>
		<path class="st4" d="M457.1,82.3c0-0.2,0.1-0.3,0.3-0.3l9,0.1l8.9-0.1c0.2,0,0.3,0.1,0.3,0.3V87c0,0.2-0.1,0.3-0.3,0.3l-2.8-0.1
			c2.2,1.4,3.3,3.9,3.3,6.6c0,0.3,0,0.6-0.1,0.8c0,0.2-0.2,0.3-0.4,0.3h-3.3c-0.2,0-0.3-0.1-0.3-0.3c0-0.2,0-0.5,0-0.7
			c0-3.8-2.1-6.7-6.4-6.6h-7.9c-0.2,0-0.3-0.1-0.3-0.3V82.3z"/>
	</g>
</g>
<g>
	<g>
		<g>
			<g>
				<g>
					<path class="st1" d="M394.8,63.2c-1.2,0-2.3-1-2.3-2.3s1-2.3,2.3-2.3c1.2,0,2.3,1,2.3,2.3S396.1,63.2,394.8,63.2z M394.8,59.3
						c-1,0-1.7,0.8-1.7,1.7s0.8,1.7,1.7,1.7c1,0,1.7-0.8,1.7-1.7S395.8,59.3,394.8,59.3z"/>
				</g>
			</g>
			<g>
				<g>
					<path class="st1" d="M403.9,64.2c0,0-0.1,0-0.1,0c-1.4,0-3.6-0.1-5.5-0.3c-1.7-0.2-3.8-0.4-4.4-0.8c-1.2-0.6-1.2-1.9-1.2-2
						c0-0.1,0-1.4,1.2-2c0.7-0.3,2.8-0.6,4.4-0.8c1.9-0.2,4.1-0.3,5.5-0.3c2.6,0,11.7,0.6,11.8,0.6l0,0.5c-0.1,0-8.9-0.6-11.7-0.6
						c0,0-0.1,0-0.1,0c-2.6,0-8.6,0.5-9.7,1c-1,0.5-0.9,1.5-0.9,1.5l0,0l0,0c0,0,0,1,0.9,1.5c0.5,0.2,2,0.5,4.3,0.7
						c1.9,0.2,4.1,0.3,5.4,0.3c0,0,0.1,0,0.1,0c2.7,0,11.6-0.6,11.7-0.6l0,0.5C415.5,63.5,406.6,64.2,403.9,64.2z"/>
				</g>
			</g>
			<g>
				<g>
					<path class="st1" d="M414.5,63.9h4c1.3,0,2.3-1,2.3-2.3v-1.1c0-1.3-1-2.3-2.3-2.3h-4c0,0,0.6,1.9,2,1.9h1.5
						c0,0,2.2,0.1,1.1,1.4c-0.9,1.1-1.3,1.1-1.7,0.5c-0.4-0.6-0.6-2-1.5-0.9C415,62.1,414.5,63.9,414.5,63.9z"/>
				</g>
			</g>
		</g>
		<g>
			<g>
				<g>
					<path class="st1" d="M394.8,73.6c-1.2,0-2.3-1-2.3-2.3s1-2.3,2.3-2.3c1.2,0,2.3,1,2.3,2.3S396.1,73.6,394.8,73.6z M394.8,69.6
						c-1,0-1.7,0.8-1.7,1.7c0,1,0.8,1.7,1.7,1.7c1,0,1.7-0.8,1.7-1.7C396.6,70.4,395.8,69.6,394.8,69.6z"/>
				</g>
			</g>
			<g>
				<g>
					<path class="st1" d="M403.9,74.5c0,0-0.1,0-0.1,0c-1.4,0-3.6-0.1-5.5-0.3c-1.7-0.2-3.8-0.4-4.4-0.8c-1.2-0.6-1.2-1.9-1.2-2
						c0-0.1,0-1.4,1.2-2c0.7-0.3,2.8-0.6,4.4-0.8c1.9-0.2,4.1-0.3,5.5-0.3c2.6,0,11.7,0.6,11.8,0.6l0,0.5c-0.1,0-8.9-0.6-11.7-0.6
						c0,0-0.1,0-0.1,0c-2.6,0-8.6,0.5-9.7,1c-1,0.5-0.9,1.5-0.9,1.5l0,0l0,0c0,0,0,1,0.9,1.5c0.5,0.2,2,0.5,4.3,0.7
						c1.9,0.2,4.1,0.3,5.4,0.3c0,0,0.1,0,0.1,0c2.7,0,11.6-0.6,11.7-0.6l0,0.5C415.5,73.9,406.6,74.5,403.9,74.5z"/>
				</g>
			</g>
			<g>
				<g>
					<path class="st1" d="M414.5,74.2h4c1.3,0,2.3-1,2.3-2.3v-1.1c0-1.3-1-2.3-2.3-2.3h-4c0,0,0.6,1.9,2,1.9h1.5
						c0,0,2.2,0.1,1.1,1.4c-0.9,1.1-1.3,1.1-1.7,0.5c-0.4-0.6-0.6-2-1.5-0.9C415,72.4,414.5,74.2,414.5,74.2z"/>
				</g>
			</g>
		</g>
		<g>
			<g>
				<g>
					<path class="st1" d="M418.5,79.9c1.2,0,2.3,1,2.3,2.3c0,1.2-1,2.3-2.3,2.3c-1.2,0-2.3-1-2.3-2.3
						C416.3,80.9,417.3,79.9,418.5,79.9z M418.5,83.8c1,0,1.7-0.8,1.7-1.7c0-1-0.8-1.7-1.7-1.7s-1.7,0.8-1.7,1.7
						C416.8,83.1,417.6,83.8,418.5,83.8z"/>
				</g>
			</g>
			<g>
				<g>
					<path class="st1" d="M409.5,78.9c0,0,0.1,0,0.1,0c1.4,0,3.6,0.1,5.5,0.3c1.7,0.2,3.8,0.4,4.4,0.8c1.2,0.6,1.2,1.9,1.2,2
						c0,0.1,0,1.4-1.2,2c-0.7,0.3-2.8,0.6-4.4,0.8c-1.9,0.2-4.1,0.3-5.5,0.3c-2.6,0-11.7-0.6-11.8-0.6l0-0.5c0.1,0,8.9,0.6,11.7,0.6
						c0,0,0.1,0,0.1,0c2.6,0,8.6-0.5,9.7-1c1-0.5,0.9-1.5,0.9-1.5l0,0l0,0c0,0,0-1-0.9-1.5c-0.5-0.2-2-0.5-4.3-0.7
						c-1.9-0.2-4.1-0.3-5.4-0.3c0,0-0.1,0-0.1,0c-2.7,0-11.6,0.6-11.7,0.6l0-0.5C397.9,79.5,406.7,78.9,409.5,78.9z"/>
				</g>
			</g>
			<g>
				<g>
					<path class="st1" d="M398.9,79.2h-4c-1.3,0-2.3,1-2.3,2.3v1.1c0,1.3,1,2.3,2.3,2.3h4c0,0-0.6-1.9-2-1.9h-1.5
						c0,0-2.2-0.1-1.1-1.4c0.9-1.1,1.3-1.1,1.7-0.5c0.4,0.6,0.6,2,1.5,0.9C398.4,81,398.9,79.2,398.9,79.2z"/>
				</g>
			</g>
		</g>
	</g>
	<path class="st0" d="M403.9,64.2h-0.1c-1.4,0-3.6-0.1-5.5-0.3c-1.7-0.2-3.8-0.4-4.5-0.8c-1-0.5-1.2-1.5-1.2-1.8c0-0.1,0-0.1,0-0.1
		v0c0,0,0-0.1,0-0.1c0-0.1,0-0.3,0.1-0.5c0.1,0.3,0.2,0.6,0.4,0.8c0,0,0,0,0,0c0.1,0.8,0.9,1.4,1.7,1.4c0.4,0,0.8-0.1,1.1-0.4
		c0.2,0,0.4,0.1,0.6,0.1c-0.2,0.2-0.5,0.5-0.7,0.6c0.7,0.1,1.5,0.2,2.5,0.3c1.9,0.2,4.1,0.3,5.4,0.3h0.1c2.2,0,8.7-0.4,10.9-0.6
		c0-0.1,0.1-0.3,0.2-0.4h3.5c1.3,0,2.3-1,2.3-2.3v1.2c0,1.3-1,2.3-2.3,2.3h-4c0,0,0-0.1,0.1-0.3C412.1,63.8,406.1,64.2,403.9,64.2z"
		/>
	<path class="st0" d="M403.9,74.5h-0.1c-1.4,0-3.6-0.1-5.5-0.3c-1.7-0.2-3.8-0.4-4.5-0.8c-1-0.5-1.2-1.5-1.2-1.8c0-0.1,0-0.1,0-0.1
		v0c0,0,0-0.1,0-0.1c0-0.1,0-0.3,0.1-0.5c0.1,0.3,0.2,0.6,0.4,0.8c0,0,0,0,0,0c0.2,0.8,0.9,1.4,1.7,1.4c0.4,0,0.8-0.1,1.1-0.4
		c0.2,0,0.4,0.1,0.6,0.1c-0.2,0.3-0.5,0.5-0.7,0.6c0.7,0.1,1.5,0.2,2.5,0.3c1.9,0.2,4.1,0.3,5.4,0.3h0.1c2.2,0,8.6-0.4,10.9-0.6
		c0-0.1,0.1-0.3,0.2-0.4h3.5c1.3,0,2.3-1,2.3-2.3v1.2c0,1.3-1,2.3-2.3,2.3h-4c0,0,0-0.1,0.1-0.3C412.1,74.1,406.1,74.5,403.9,74.5z"
		/>
	<path class="st0" d="M398.7,84.6c0.1,0.2,0.2,0.4,0.2,0.4h-4c-1.3,0-2.3-1-2.3-2.3v-1.2c0,1.3,1.1,2.3,2.3,2.3h3.3
		c0.1,0.1,0.1,0.2,0.2,0.2c2,0.1,8.8,0.6,11.1,0.6h0.1c1.8,0,5.4-0.3,7.7-0.6c-0.2-0.2-0.5-0.4-0.6-0.6c0.2,0,0.4-0.1,0.6-0.1
		c0.3,0.3,0.6,0.5,1,0.5c0.5-0.1,0.8-0.2,1-0.3c0.6-0.3,0.8-0.8,0.9-1.2c0,0,0,0,0,0c0.2-0.2,0.4-0.5,0.5-0.8c0,0.1,0,0.2,0.1,0.3
		c0,0,0,0.1,0,0.1c0,0.1,0,0.1,0,0.2c0,0,0,0.1,0,0.1c0,0,0,0,0,0.1c-0.1,1.2-1,2.1-2.2,2.1c-0.1,0-0.2,0-0.2,0
		c-0.9,0.2-2.1,0.3-3.2,0.4c-1.9,0.2-4.1,0.3-5.5,0.3C407.5,85.1,401.1,84.7,398.7,84.6z"/>
</g>
<g>
	<g>
		<g>
			<g>
				<path class="st4" d="M384.1,157l-14.3,9.2c0,0-1,0.7-1.9,2c1.3-0.5,2.6-0.9,3.9-1.4c0.2-0.1,0.4-0.2,0.6-0.3c0,0,0.1,0,0.1,0
					l47.8-17.8c2.3-0.9,4.9,0.3,5.7,2.6c0.8,2.3-0.3,4.8-2.5,5.7l-38.2,14.9c-0.3,0.3-0.7,0.8-0.4,1.5c0.1,0.3,0.3,0.8,1,0.9
					l43.1-15.7c2.3-0.8,4.9,0.4,5.7,2.7c0.8,2.3-0.3,4.8-2.5,5.6l-41.7,16.7l0,0c0,0-1.3,0.4-1.1,1.3c0.2,0.7,0.6,0.9,1,1l40.3-14.6
					c2.3-0.8,4.9,0.4,5.7,2.7c0.8,2.3-0.3,4.7-2.5,5.6l-41.8,16.8c-0.3,0.3-0.6,0.7-0.5,1.2c0,0.2,0.3,0.3,0.6,0.3l37-12.4
					c2.1-0.8,4.5,0.3,5.3,2.4c0.8,2.1-0.3,4.5-2.4,5.3l-39.3,15.3l0,0.1c0,0-9.5,3.6-13.6,5.2c-16.5,6.3-35.3,5.2-36.8,5.1
					c-3.8,1.9-10.7,5.1-19.6,9.1l-12.8-33.6c10.7-3.5,18.5-5.9,20.5-6.6c0.6-0.8,9.1-13,12.7-16.5c5-4.9,22.5-16.4,22.5-16.4
					l23-11.8C388.5,143.1,393.8,149.1,384.1,157z"/>
			</g>
		</g>
		<g>
			<g>
				<path class="st3" d="M404.5,180.7c3.6,1.9,7.1,4,10.3,6.5l18.9-7.6c2.2-0.9,3.3-3.4,2.5-5.6c-0.8-2.3-3.4-3.5-5.7-2.7
					L404.5,180.7z"/>
			</g>
		</g>
		<g>
			<g>
				<path class="st3" d="M417.5,189.4c2.4,2.1,4.5,4.4,6.4,7l8-3.1c2.1-0.8,3.2-3.2,2.4-5.3c-0.8-2.1-3.2-3.2-5.3-2.4L417.5,189.4z"
					/>
			</g>
		</g>
		<g>
			<g>
				<path class="st3" d="M387.6,173.7c4.6,1.6,9.3,3.4,13.8,5.5l30.6-12.2c2.2-0.9,3.3-3.4,2.5-5.6c-0.8-2.3-3.4-3.5-5.7-2.7
					L387.6,173.7z"/>
			</g>
		</g>
		<g>
			<g>
				<path class="st3" d="M368.4,167.6c0.8-0.9,1.4-1.4,1.4-1.4l14.3-9.2c9.8-7.9,4.4-13.9,4.4-13.9l-23,11.8c0,0-6.8,4.5-13.1,9
					C357.8,164.7,363.1,166.1,368.4,167.6z"/>
			</g>
		</g>
		<g>
			<g>
				<path class="st3" d="M372.5,166.5C372.4,166.5,372.4,166.6,372.5,166.5c-0.3,0.1-0.5,0.2-0.7,0.3c-0.9,0.3-1.8,0.6-2.6,0.9
					c4.2,1.2,8.3,2.6,12.4,3.9c1.1,0.4,2.2,0.7,3.3,1.1c0.1-0.3,0.3-0.6,0.5-0.8l38.2-14.9c2.3-0.9,3.4-3.4,2.5-5.7
					c-0.9-2.3-3.4-3.5-5.7-2.6L372.5,166.5z"/>
			</g>
		</g>
		<g>
			<g>
				<path class="st3" d="M308,194.2l13.1,34.4c0.2,0.5,0.8,0.8,1.3,0.6l0.6-0.2c0.5-0.2,0.8-0.8,0.6-1.3l-13.1-34.4
					c-0.2-0.5-0.8-0.8-1.3-0.6l-0.6,0.2C308.1,193.1,307.8,193.7,308,194.2z"/>
			</g>
		</g>
	</g>
	<g>
		<g>
			<g>
				<path class="st16" d="M375.8,229.8l-14.1-9.4c0,0-1-0.7-1.9-2.1c1.3,0.5,2.5,0.9,3.9,1.4c0.2,0.1,0.4,0.2,0.6,0.3
					c0,0,0.1,0,0.1,0l47.5,18.5c2.3,0.9,4.9-0.2,5.7-2.5c0.9-2.3-0.2-4.8-2.5-5.7l-38-15.5c-0.3-0.3-0.7-0.9-0.4-1.5
					c0.1-0.3,0.3-0.8,1-0.9l42.8,16.3c2.3,0.9,4.9-0.3,5.7-2.6c0.9-2.2-0.2-4.8-2.4-5.7l-41.5-17.3l0,0c0,0-1.3-0.4-1.1-1.3
					c0.2-0.7,0.6-0.9,1-1l40.1,15.2c2.3,0.9,4.9-0.3,5.7-2.6c0.9-2.2-0.2-4.7-2.4-5.7l-41.5-17.4c-0.3-0.3-0.6-0.7-0.5-1.3
					c0.1-0.2,0.3-0.3,0.6-0.3l36.8,13c2.1,0.8,4.5-0.2,5.4-2.3c0.8-2.1-0.2-4.5-2.3-5.3l-39.1-15.9l0-0.1c0,0-9.5-3.8-13.5-5.4
					c-16.4-6.5-35.2-5.7-36.7-5.6c-3.7-1.9-10.6-5.3-19.4-9.4l-13.3,33.4c10.7,3.6,18.4,6.2,20.4,6.9c0.6,0.8,8.9,13.1,12.5,16.7
					c4.9,4.9,22.2,16.7,22.2,16.7l22.8,12.1C380,243.7,385.4,237.8,375.8,229.8z"/>
			</g>
		</g>
		<g class="st17">
			<g>
				<path class="st5" d="M322.9,198.7c7.6-1.7,15.5-2.5,23.3-2.7c18.1-0.4,36.3,2.3,53.9,6.5c7.7,1.9,15.4,4.1,23,6.6
					c1.6,0.1,3.1,0.3,4.7,0.5c-0.5-0.8-1.2-1.4-2.1-1.8l-41.5-17.4c-0.3-0.3-0.6-0.7-0.5-1.3c0.1-0.2,0.3-0.3,0.6-0.3l36.8,13
					c2.1,0.8,4.5-0.2,5.4-2.3c0.8-2.1-0.2-4.5-2.3-5.3l-39.1-15.9l0-0.1c0,0-9.5-3.8-13.5-5.4c-16.4-6.5-35.2-5.7-36.7-5.6
					c-3.7-1.9-10.6-5.3-19.4-9.4l-13.3,33.4c10.7,3.6,18.4,6.2,20.4,6.9C322.5,198.3,322.7,198.5,322.9,198.7z"/>
			</g>
		</g>
		<g>
			<path class="st16" d="M300.3,191.4l13.6-34.2c0.2-0.5,0.8-0.7,1.3-0.5l0.6,0.2c0.5,0.2,0.7,0.8,0.5,1.3l-13.6,34.2
				c-0.2,0.5-0.8,0.7-1.3,0.5l-0.6-0.2C300.3,192.5,300.1,191.9,300.3,191.4z"/>
		</g>
	</g>
</g>
<g>
	<g>
		<path class="st1" d="M47,116.1c0,1.6-10,2.9-22.3,2.9c-12.3,0-22.3-1.3-22.3-2.9c0-1.6,10-2.9,22.3-2.9
			C37,113.2,47,114.5,47,116.1z"/>
	</g>
	<g>
		<path class="st18" d="M39.3,155.2l-1.4,70c0,4.7-3.9,8.6-8.6,8.6h-8c-4.7,0-8.6-3.9-8.6-8.6l-1.4-70H39.3z"/>
	</g>
	<g>
		<path class="st3" d="M12.3,207.5l0.4,17.7c0,4.7,3.9,8.6,8.6,8.6h8c4.7,0,8.6-3.9,8.6-8.6l0.4-17.7
			C29.6,207.5,20.9,207.5,12.3,207.5z"/>
	</g>
	<g>
		<polygon class="st18" points="49.3,137.2 39.4,155.9 11.1,155.9 1.2,137.2 		"/>
	</g>
	<g>
		<path class="st3" d="M49.3,139.6h-48c-0.7,0-1.2-0.6-1.2-1.2v-20.9c0-0.7,0.6-1.2,1.2-1.2h48c0.7,0,1.2,0.6,1.2,1.2v20.9
			C50.5,139.1,50,139.6,49.3,139.6z"/>
	</g>
	<g>
		<path class="st19" d="M37.9,128.1c-12.4,3.4-24.9,7.4-37.9,8v1.9c0,0.8,0.7,1.5,1.5,1.5H49c0.8,0,1.5-0.7,1.5-1.5v-14.9
			C46.6,125.2,42.4,126.9,37.9,128.1z"/>
	</g>
	<g class="st20">
		<g>
			<g>
				<path d="M3.5,139.6c-0.4,0-0.7-0.3-0.7-0.7v-22.2c0-0.4,0.3-0.7,0.7-0.7c0.4,0,0.7,0.3,0.7,0.7V139
					C4.2,139.3,3.9,139.6,3.5,139.6z"/>
			</g>
			<g>
				<path d="M15.9,139.6c-0.4,0-0.7-0.3-0.7-0.7v-22.2c0-0.4,0.3-0.7,0.7-0.7c0.4,0,0.7,0.3,0.7,0.7V139
					C16.5,139.3,16.2,139.6,15.9,139.6z"/>
			</g>
			<g>
				<path d="M9.8,139.6c-0.4,0-0.7-0.3-0.7-0.7v-22.2c0-0.4,0.3-0.7,0.7-0.7c0.4,0,0.7,0.3,0.7,0.7V139
					C10.5,139.3,10.2,139.6,9.8,139.6z"/>
			</g>
			<g>
				<path d="M21,139.6c-0.4,0-0.7-0.3-0.7-0.7v-22.2c0-0.4,0.3-0.7,0.7-0.7c0.4,0,0.7,0.3,0.7,0.7V139
					C21.7,139.3,21.4,139.6,21,139.6z"/>
			</g>
			<g>
				<path d="M25.3,139.6c-0.4,0-0.7-0.3-0.7-0.7v-22.2c0-0.4,0.3-0.7,0.7-0.7c0.4,0,0.7,0.3,0.7,0.7V139
					C26,139.3,25.6,139.6,25.3,139.6z"/>
			</g>
		</g>
	</g>
	<g class="st20">
		<g>
			<g>
				<path d="M47,139.6c-0.4,0-0.7-0.3-0.7-0.7v-22.2c0-0.4,0.3-0.7,0.7-0.7c0.4,0,0.7,0.3,0.7,0.7V139
					C47.7,139.3,47.4,139.6,47,139.6z"/>
			</g>
			<g>
				<path d="M34.7,139.6c-0.4,0-0.7-0.3-0.7-0.7v-22.2c0-0.4,0.3-0.7,0.7-0.7c0.4,0,0.7,0.3,0.7,0.7V139
					C35.4,139.3,35.1,139.6,34.7,139.6z"/>
			</g>
			<g>
				<path d="M40.8,139.6c-0.4,0-0.7-0.3-0.7-0.7v-22.2c0-0.4,0.3-0.7,0.7-0.7c0.4,0,0.7,0.3,0.7,0.7V139
					C41.4,139.3,41.1,139.6,40.8,139.6z"/>
			</g>
			<g>
				<path d="M29.5,139.6c-0.4,0-0.7-0.3-0.7-0.7v-22.2c0-0.4,0.3-0.7,0.7-0.7c0.4,0,0.7,0.3,0.7,0.7V139
					C30.2,139.3,29.9,139.6,29.5,139.6z"/>
			</g>
		</g>
	</g>
	<g>
		<path class="st1" d="M30,190.4h-9.5c-0.8,0-1.5-0.7-1.5-1.5v-25c0-0.8,0.7-1.5,1.5-1.5H30c0.8,0,1.5,0.7,1.5,1.5v25
			C31.5,189.8,30.9,190.4,30,190.4z M20.7,188.8h9.2v-24.7h-9.2V188.8z"/>
	</g>
	<g>
		<path class="st3" d="M30.2,189.6h-9.8c-0.3,0-0.5-0.2-0.5-0.5v-25.3c0-0.3,0.2-0.5,0.5-0.5h9.8c0.3,0,0.5,0.2,0.5,0.5v25.3
			C30.7,189.4,30.4,189.6,30.2,189.6z"/>
	</g>
	<g class="st20">
		<g>
			<path d="M21,176.8v10.8c0,0.4,0.3,0.7,0.7,0.7h7.3c0.4,0,0.7-0.3,0.7-0.7v-10.8H21z"/>
		</g>
	</g>
	<g>
		<g>
			<path class="st1" d="M28.5,179.2H22c-0.2,0-0.3-0.1-0.3-0.3s0.1-0.3,0.3-0.3h6.5c0.2,0,0.3,0.1,0.3,0.3S28.6,179.2,28.5,179.2z"
				/>
		</g>
		<g>
			<path class="st1" d="M28.5,181.2H22c-0.2,0-0.3-0.1-0.3-0.3c0-0.2,0.1-0.3,0.3-0.3h6.5c0.2,0,0.3,0.1,0.3,0.3
				C28.8,181.1,28.6,181.2,28.5,181.2z"/>
		</g>
		<g>
			<path class="st1" d="M28.5,183.2H22c-0.2,0-0.3-0.1-0.3-0.3c0-0.2,0.1-0.3,0.3-0.3h6.5c0.2,0,0.3,0.1,0.3,0.3
				C28.8,183.1,28.6,183.2,28.5,183.2z"/>
		</g>
		<g>
			<path class="st1" d="M28.5,185.2H22c-0.2,0-0.3-0.1-0.3-0.3c0-0.2,0.1-0.3,0.3-0.3h6.5c0.2,0,0.3,0.1,0.3,0.3
				C28.8,185.1,28.6,185.2,28.5,185.2z"/>
		</g>
		<g>
			<path class="st1" d="M28.5,187.3H22c-0.2,0-0.3-0.1-0.3-0.3c0-0.2,0.1-0.3,0.3-0.3h6.5c0.2,0,0.3,0.1,0.3,0.3
				C28.8,187.1,28.6,187.3,28.5,187.3z"/>
		</g>
	</g>
	<g class="st21">
		<path class="st5" d="M33.5,155.9H11.2l1.4,69.3c0,3.9,2.7,7.2,6.3,8.3C17.5,206.6,22,180.4,33.5,155.9z"/>
	</g>
</g>
<g>
</g>
<g>
</g>
<g>
</g>
<g>
</g>
<g>
</g>
<g>
</g>
</svg>
