<?xml version="1.0" standalone="no"?>
<!DOCTYPE svg PUBLIC "-//W3C//DTD SVG 1.1//EN" "http://www.w3.org/Graphics/SVG/1.1/DTD/svg11.dtd" >
<svg>
<metadata>
Created by FontForge 20120731 at Thu Sep  5 21:24:21 2019
 By www
Copyright 1999-2009 Ron Carpenter and Dalton Maag Ltd. All rights reserved. The use of this font without a valid license is illegal and will be prosecuted.
</metadata>
<defs>
<font id="Lexia-Light" horiz-adv-x="358" >
  <font-face 
    font-family="Lexia-Light"
    font-weight="400"
    font-stretch="normal"
    units-per-em="1000"
    panose-1="2 6 5 3 4 2 2 2 2 3"
    ascent="810"
    descent="-190"
    x-height="507"
    cap-height="729"
    bbox="-215 -214 1001 993"
    underline-thickness="50"
    underline-position="-50"
    unicode-range="U+0008-FB04"
  />
<missing-glyph horiz-adv-x="560" 
d="M50 700h460v-700h-460v700zM115 54h330v592h-330v-592z" />
    <glyph glyph-name="f_f" unicode="ff" horiz-adv-x="605" 
d="M112 48v409h-83q-3 13 -3 25q0 11 3 25h83v74q0 47 14 82t39.5 58.5t61.5 35t79 11.5t80 -9.5t68 -25.5q20 19 45 27t51 8q24 0 41 -3.5t31 -8.5v-55q-7 3 -23 8.5t-42 5.5q-35 0 -59 -23.5t-24 -80.5v-104h114q3 -14 3 -25q0 -12 -3 -25h-114v-409h102q4 -11 4 -24
t-4 -24h-241q-4 11 -4 24t4 24h75v409h-234v-409h86q4 -11 4 -24t-4 -24h-225q-4 11 -4 24t4 24h75zM410 507v101q0 47 14 80q-20 10 -50 18t-68 8q-63 0 -96.5 -32.5t-33.5 -107.5v-67h234z" />
    <glyph glyph-name="f_i" unicode="fi" horiz-adv-x="578" 
d="M112 48v409h-83q-3 13 -3 25q0 11 3 25h83v70q0 54 18.5 91t47.5 59t66 31.5t75 9.5q45 0 79 -7.5t57 -16.5v-54q-21 8 -55 16.5t-80 8.5q-29 0 -55.5 -6t-46 -22t-31 -43t-11.5 -69v-68h298v-459h71q4 -11 4 -24t-4 -24h-206q-4 11 -4 24t4 24h71v409h-234v-409h86
q4 -11 4 -24t-4 -24h-225q-4 11 -4 24t4 24h75z" />
    <glyph glyph-name="f_l" unicode="fl" horiz-adv-x="576" 
d="M112 48v409h-83q-3 13 -3 25q0 11 3 25h83v74q0 84 47.5 135.5t139.5 51.5q38 0 69 -8t53.5 -18.5t36 -20t16.5 -12.5v-661h71q4 -11 4 -24t-4 -24h-206q-4 11 -4 24t4 24h71v636q-3 2 -11.5 7t-23 10t-33.5 9t-43 4q-67 0 -95 -34.5t-28 -107.5v-65h114q3 -14 3 -25
q0 -12 -3 -25h-114v-409h86q4 -11 4 -24t-4 -24h-225q-4 11 -4 24t4 24h75z" />
    <glyph glyph-name="f_f_i" unicode="ffi" horiz-adv-x="876" 
d="M112 48v409h-83q-3 13 -3 25q0 11 3 25h83v74q0 47 14 82t39.5 58.5t61.5 35t79 11.5q50 0 91.5 -12.5t74.5 -31.5q29 24 67.5 34t77.5 10q45 0 79 -7.5t57 -16.5v-54q-21 8 -55 16.5t-80 8.5q-29 0 -55.5 -6t-46 -22t-31 -43t-11.5 -69v-68h298v-459h71q4 -11 4 -24
t-4 -24h-206q-4 11 -4 24t4 24h71v409h-234v-409h86q4 -11 4 -24t-4 -24h-225q-4 11 -4 24t4 24h75v409h-234v-409h86q4 -11 4 -24t-4 -24h-225q-4 11 -4 24t4 24h75zM410 507v70q0 32 7 58.5t19 46.5q-20 11 -52.5 21.5t-77.5 10.5q-63 0 -96.5 -32.5t-33.5 -107.5v-67h234
z" />
    <glyph glyph-name="f_f_l" unicode="ffl" horiz-adv-x="874" 
d="M112 48v409h-82q-2 5 -3 12t-1 13t1 13t3 12h82v74q0 47 15 82t41.5 58.5t63 35t79.5 11.5q50 0 90.5 -11.5t69.5 -26.5q23 18 53 28t70 10q39 0 70.5 -8t54 -18t36.5 -20t17 -13v-661h70q2 -5 3 -11.5t1 -12.5t-1 -12.5t-3 -11.5h-205q-2 5 -3 11.5t-1 12.5t1 12.5
t3 11.5h71v636q-10 7 -38 18.5t-76 11.5q-35 0 -58 -10t-37 -28.5t-19.5 -45t-5.5 -59.5v-64h112q2 -5 3 -12t1 -13t-1 -13t-3 -12h-112v-409h86q2 -5 3 -11.5t1 -12.5t-1 -12.5t-3 -11.5h-228q-2 5 -3 11.5t-1 12.5t1 12.5t3 11.5h78v409h-234v-409h86q2 -5 3 -11.5
t1 -12.5t-1 -12.5t-3 -11.5h-225q-2 5 -3 11.5t-1 12.5t1 12.5t3 11.5h75zM410 507v71q0 67 26 109q-19 8 -49.5 17.5t-75.5 9.5q-63 0 -99 -32.5t-36 -107.5v-67h234z" />
    <glyph glyph-name=".notdef" horiz-adv-x="560" 
d="M50 700h460v-700h-460v700zM115 54h330v592h-330v-592z" />
    <glyph glyph-name=".null" horiz-adv-x="0" 
 />
    <glyph glyph-name=".null" horiz-adv-x="0" 
 />
    <glyph glyph-name=".null" horiz-adv-x="0" 
 />
    <glyph glyph-name="nonmarkingreturn" unicode="&#x9;" horiz-adv-x="262" 
 />
    <glyph glyph-name="nonmarkingreturn" unicode="&#xd;" horiz-adv-x="262" 
 />
    <glyph glyph-name="space" unicode=" " horiz-adv-x="262" 
 />
    <glyph glyph-name="exclam" unicode="!" horiz-adv-x="254" 
d="M87 729h81l-13 -534h-55zM127 -14q-22 0 -36.5 17t-14.5 41q0 25 14.5 42.5t36.5 17.5t36.5 -17.5t14.5 -42.5q0 -24 -14.5 -41t-36.5 -17z" />
    <glyph glyph-name="quotedbl" unicode="&#x22;" horiz-adv-x="446" 
d="M96 729h78l-16 -261h-46zM272 729h78l-16 -261h-46z" />
    <glyph glyph-name="numbersign" unicode="#" horiz-adv-x="556" 
d="M123 225h-111l12 46h111l49 185h-110l11 47h110l60 226h56l-60 -226h125l60 226h57l-60 -226h110l-11 -46h-111l-49 -185h110l-12 -47h-109l-59 -225h-56l59 225h-126l-58 -225h-57zM316 271l48 186h-124l-49 -186h125z" />
    <glyph glyph-name="dollar" unicode="$" horiz-adv-x="542" 
d="M248 383l1 246q-62 -2 -98 -33t-36 -88q0 -28 9 -48t25.5 -34t38 -23.5t47.5 -15.5zM291 39q71 2 106 38t35 89q0 95 -107 130l-34 11v-268zM43 204q11 4 25 4t25 -4v-38q0 -22 10 -43t29.5 -38.5t48.5 -29.5t68 -15v278l-58 17q-28 8 -53 21.5t-43.5 34t-29.5 48
t-11 63.5q0 42 14.5 75t40 55.5t61.5 35t78 13.5v71h43v-73q25 -3 45.5 -11t36 -18t26 -21t15.5 -21v60q11 4 25 4q13 0 24 -4v-188q-11 -4 -25 -4t-25 4v26q0 20 -7.5 39.5t-22.5 36t-38 28.5t-54 17v-257l35 -10q85 -23 127.5 -67t42.5 -125q0 -38 -13.5 -70.5t-39 -57
t-64 -39t-87.5 -15.5v-98h-43v99q-55 5 -95.5 25.5t-60.5 52.5v-65q-6 -2 -13 -3t-13 -1q-13 0 -24 4v204z" />
    <glyph glyph-name="percent" unicode="%" horiz-adv-x="919" 
d="M522 163q0 37 14 69.5t38.5 56.5t57 37.5t69.5 13.5q36 0 68.5 -14t57 -38t38.5 -56t14 -69t-14 -69.5t-38 -57t-56 -38.5t-69 -14t-70 14t-57.5 38t-38.5 56.5t-14 70.5zM632 683h60l-402 -699h-60zM40 506q0 37 14 69.5t38.5 56.5t57 37.5t69.5 13.5q36 0 68.5 -14
t57 -38t38.5 -56t14 -69t-14 -69.5t-38 -57t-56 -38.5t-69 -14t-70 14t-57.5 38t-38.5 56.5t-14 70.5zM700 34q27 0 50.5 10.5t40.5 28t26.5 41t9.5 49.5t-10 49t-27 40.5t-40 27.5t-48 10q-27 0 -50.5 -10.5t-40.5 -27.5t-27 -40.5t-10 -48.5q0 -29 10.5 -53t27.5 -41
t40 -26t48 -9zM218 377q27 0 50.5 10.5t40.5 28t26.5 41t9.5 49.5t-10 49t-27 40.5t-40 27.5t-48 10q-27 0 -50.5 -10.5t-40.5 -27.5t-27 -40.5t-10 -48.5q0 -29 10.5 -53t27.5 -41t40 -26t48 -9z" />
    <glyph glyph-name="ampersand" unicode="&#x26;" horiz-adv-x="672" 
d="M254 346q-71 -35 -102.5 -76t-31.5 -93q0 -31 10.5 -56.5t29 -43.5t44 -28t55.5 -10q54 0 93.5 25.5t69.5 67.5zM459 89q-38 -47 -88 -76t-119 -29q-58 0 -96 19.5t-60.5 47.5t-31.5 57t-9 49q0 36 7.5 67t26 59t50.5 53.5t81 50.5q-27 37 -42.5 63.5t-22.5 45t-8.5 30.5
t-1.5 22q0 66 43 107t120 41q45 0 79 -12.5t63 -26.5v-62q-33 20 -63.5 33.5t-72.5 13.5q-29 0 -49 -7.5t-33 -19.5t-18.5 -28t-5.5 -34q0 -32 23.5 -69t61.5 -85l162 -206q17 40 26.5 79.5t12.5 68.5h122q4 -11 4 -24t-4 -24h-70q-4 -20 -15 -60t-36 -88l76 -97h95
q4 -11 4 -24t-4 -24h-138z" />
    <glyph glyph-name="quotesingle" unicode="'" horiz-adv-x="254" 
d="M88 729h78l-16 -261h-46z" />
    <glyph glyph-name="parenleft" unicode="(" horiz-adv-x="301" 
d="M219 -180q-36 59 -64.5 116t-47.5 115t-29 118t-10 125t10 125t29 117.5t47.5 115t64.5 116.5h55q-27 -53 -50.5 -104t-41.5 -107t-28 -120t-10 -143t10 -143t28 -120t41.5 -107t50.5 -104h-55z" />
    <glyph glyph-name="parenright" unicode=")" horiz-adv-x="301" 
d="M27 -180q27 53 50.5 104t41.5 107t28 120t10 143t-10 143t-28 120t-41.5 107t-50.5 104h55q36 -59 64.5 -116.5t47.5 -115t29 -117.5t10 -125t-10 -125t-29 -118t-47.5 -115t-64.5 -116h-55z" />
    <glyph glyph-name="asterisk" unicode="*" horiz-adv-x="371" 
d="M149 601l-109 32l17 49l106 -39l-4 115h53l-5 -115l106 40l18 -49l-109 -32l74 -97l-43 -28l-67 101l-67 -101l-44 28z" />
    <glyph glyph-name="plus" unicode="+" horiz-adv-x="542" 
d="M33 363h210v211h56v-211h209v-55h-209v-211h-56v210h-210v56z" />
    <glyph glyph-name="comma" unicode="," horiz-adv-x="254" 
d="M76 -116q35 17 47.5 46.5t12.5 61.5q-8 -3 -17 -3q-25 0 -37.5 16t-12.5 39t14 41.5t40 18.5q29 0 45.5 -26t16.5 -67q0 -47 -13 -78.5t-31 -51t-36.5 -29t-28.5 -11.5v43z" />
    <glyph glyph-name="hyphen" unicode="-" horiz-adv-x="308" 
d="M258 301q3 -9 4 -17t1 -16t-1 -15.5t-4 -16.5h-208q-3 9 -4 16.5t-1 15.5t1 16t4 17h208z" />
    <glyph glyph-name="period" unicode="." horiz-adv-x="254" 
d="M127 -14q-22 0 -36.5 17t-14.5 41q0 25 14.5 42.5t36.5 17.5t36.5 -17t14.5 -42t-14.5 -42t-36.5 -17z" />
    <glyph glyph-name="slash" unicode="/" horiz-adv-x="306" 
d="M247 758h57l-244 -776h-58z" />
    <glyph glyph-name="zero" unicode="0" horiz-adv-x="542" 
d="M270 -16q-70 0 -114.5 34t-69.5 86t-34 113.5t-9 117.5q0 55 9 116.5t34 113t69 85t115 33.5q70 0 114.5 -33.5t69.5 -85t34 -113t9 -116.5q0 -56 -9 -117.5t-34 -113.5t-69.5 -86t-114.5 -34zM270 40q42 0 72 21.5t49.5 60.5t28.5 93.5t9 119.5t-9 119t-28.5 92.5
t-49.5 59.5t-72 21t-72 -21t-49.5 -59.5t-28.5 -92.5t-9 -119t9 -119.5t28.5 -93.5t49.5 -60.5t72 -21.5z" />
    <glyph glyph-name="one" unicode="1" horiz-adv-x="542" 
d="M243 50v567h-136q-4 12 -4 25t4 25h201v-617h128q4 -12 4 -25t-4 -25h-329q-4 12 -4 25t4 25h136z" />
    <glyph glyph-name="two" unicode="2" horiz-adv-x="542" 
d="M413 57v116q13 4 29 4t29 -4v-173h-445q2 44 15.5 81t38 71.5t60.5 67.5t83 68l38 29q27 20 51.5 39.5t42.5 41.5t28.5 47t10.5 56q0 60 -37 93t-100 33q-33 0 -62.5 -10t-54.5 -25t-44 -31t-31 -28v72q12 10 31.5 23.5t45 25.5t57.5 20.5t70 8.5t73 -11t61.5 -33.5
t42.5 -56t16 -77.5q0 -43 -14.5 -76.5t-39.5 -62t-58.5 -55t-72.5 -54.5l-34 -25q-57 -42 -96 -87.5t-50 -87.5h316z" />
    <glyph glyph-name="three" unicode="3" horiz-adv-x="542" 
d="M32 115q40 -31 88.5 -53t109.5 -22q34 0 63.5 10t51 29t34 46t12.5 60q0 48 -19 76t-46 42t-56.5 17.5t-50.5 3.5h-29q-4 12 -4 27t4 27h35q26 0 51.5 7t45.5 22.5t32.5 40.5t12.5 61q0 18 -6.5 38.5t-22 38t-41.5 29.5t-66 12q-32 0 -59.5 -8t-50 -20.5t-40 -27
t-29.5 -26.5v67q28 29 79 50t107 21q45 0 81 -13t61 -36t38.5 -54t13.5 -67q0 -64 -28.5 -101t-73.5 -57q63 -18 95.5 -57.5t32.5 -108.5q0 -38 -13 -74.5t-41.5 -65.5t-72.5 -47t-107 -18q-61 0 -111.5 18t-80.5 38v75z" />
    <glyph glyph-name="four" unicode="4" horiz-adv-x="542" 
d="M334 225v374l-248 -374h248zM31 231l304 450h60v-456h104q4 -12 4 -26q0 -6 -1 -13t-3 -14h-104v-124h75q4 -11 4 -24t-4 -24h-222q-4 11 -4 24t4 24h86v124h-303v59z" />
    <glyph glyph-name="five" unicode="5" horiz-adv-x="542" 
d="M58 103q31 -24 74.5 -44.5t108.5 -20.5q75 0 119 47.5t44 125.5q0 84 -41.5 124.5t-104.5 40.5q-48 0 -78.5 -17t-51.5 -49h-53l34 357h329q2 -8 3 -15.5t1 -14.5t-1 -14.5t-3 -15.5h-281l-22 -223q20 20 52 34t83 14q36 0 72 -12.5t64.5 -39t46.5 -67t18 -96.5
q0 -34 -10.5 -75t-36.5 -76.5t-70.5 -59.5t-112.5 -24q-71 0 -116 18t-67 33v70z" />
    <glyph glyph-name="six" unicode="6" horiz-adv-x="542" 
d="M465 581q-32 20 -66.5 33t-80.5 13q-41 0 -71.5 -15.5t-52 -41t-35.5 -57.5t-22.5 -65.5t-12 -65t-3.5 -55.5q20 43 64.5 72.5t104.5 29.5q35 0 71.5 -11t66.5 -36t49 -66t19 -101q0 -107 -58 -169t-162 -62q-42 0 -75 13.5t-56 33.5q-29 25 -46.5 59.5t-27 72.5t-13 77
t-3.5 74q0 58 12.5 122.5t42.5 119.5t79 91t123 36q53 0 88 -11t65 -25v-66zM285 37q34 0 60.5 13t45.5 36.5t29 55t10 68.5q0 27 -7 56.5t-24 53.5t-45.5 39.5t-71.5 15.5q-38 0 -66.5 -14t-47 -38t-27.5 -54.5t-9 -63.5q0 -29 8.5 -59t27.5 -54t47.5 -39.5t69.5 -15.5z
" />
    <glyph glyph-name="seven" unicode="7" horiz-adv-x="542" 
d="M426 606h-309v-120q-13 -4 -29 -4t-29 4v181h426v-59l-283 -608h-69z" />
    <glyph glyph-name="eight" unicode="8" horiz-adv-x="542" 
d="M169 362q-18 9 -35 22t-30.5 31t-22 42t-8.5 55q0 32 10.5 63t33.5 55t61 38.5t92 14.5q55 0 92.5 -14.5t61 -38.5t34 -54.5t10.5 -62.5t-8.5 -56t-22 -42t-30.5 -31t-35 -22q35 -13 58 -34t36.5 -45t19 -48.5t5.5 -43.5q0 -42 -12.5 -79.5t-39.5 -66t-68.5 -45
t-99.5 -16.5t-100 16.5t-69 45t-39.5 66t-12.5 79.5q0 19 5.5 43.5t19 48t36.5 44.5t58 35zM403 509q0 19 -6 40.5t-21 39.5t-40.5 30t-64.5 12q-40 0 -65.5 -11.5t-40.5 -29.5t-21 -39.5t-6 -41.5q0 -26 9.5 -49t26.5 -40t41.5 -26.5t54.5 -9.5t54.5 9.5t42 26.5t27 40
t9.5 49zM117 185q0 -45 15 -73t37.5 -44.5t49.5 -22.5t51 -6t51 6t50 22t38 44.5t15 73.5q0 38 -12.5 65.5t-33.5 45.5t-49 26.5t-58 8.5t-58 -8.5t-49.5 -26t-34 -45t-12.5 -66.5z" />
    <glyph glyph-name="nine" unicode="9" horiz-adv-x="542" 
d="M73 88q34 -20 69 -33.5t86 -13.5q92 0 142 75.5t52 224.5q-9 -20 -25.5 -39t-38.5 -33t-50 -22.5t-60 -8.5q-33 0 -69 11t-65.5 35.5t-48.5 65.5t-19 101q0 52 14.5 95t43 73.5t69 47t93.5 16.5q69 0 112 -30.5t67.5 -77.5t33 -104.5t8.5 -112.5q0 -69 -12.5 -136
t-42 -120t-79 -85.5t-122.5 -32.5q-53 0 -89.5 10.5t-68.5 26.5v67zM260 292q38 0 66 14.5t47 38t28 54.5t9 64q0 31 -9 61t-27.5 54t-47 38.5t-67.5 14.5q-35 0 -62 -13.5t-46.5 -36.5t-29.5 -55t-10 -69q0 -27 7 -56.5t24.5 -53.5t46 -39.5t71.5 -15.5z" />
    <glyph glyph-name="colon" unicode=":" horiz-adv-x="254" 
d="M127 -14q-22 0 -36.5 17t-14.5 41q0 25 14.5 42.5t36.5 17.5t36.5 -17t14.5 -42t-14.5 -42t-36.5 -17zM127 389q-22 0 -36.5 17t-14.5 41q0 25 14.5 42.5t36.5 17.5t36.5 -17t14.5 -42t-14.5 -42t-36.5 -17z" />
    <glyph glyph-name="semicolon" unicode=";" horiz-adv-x="254" 
d="M129 389q-22 0 -36.5 17t-14.5 41q0 25 14.5 42.5t36.5 17.5t36.5 -17t14.5 -42t-14.5 -42t-36.5 -17zM76 -116q35 17 47.5 46.5t12.5 61.5q-8 -3 -17 -3q-25 0 -37.5 16t-12.5 39t14 41.5t40 18.5q29 0 45.5 -26t16.5 -67q0 -47 -13 -78.5t-31 -51t-36.5 -29
t-28.5 -11.5v43z" />
    <glyph glyph-name="less" unicode="&#x3c;" horiz-adv-x="542" 
d="M41 363l459 203v-62l-391 -169l391 -169v-61l-459 201v57z" />
    <glyph glyph-name="equal" unicode="=" horiz-adv-x="542" 
d="M33 459h475v-55l-475 -1v56zM33 266h475v-56h-475v56z" />
    <glyph glyph-name="greater" unicode="&#x3e;" horiz-adv-x="542" 
d="M41 165l391 170l-391 169v62l459 -202v-57l-459 -202v60z" />
    <glyph glyph-name="question" unicode="?" horiz-adv-x="524" 
d="M213 195q0 36 5 63t15.5 50t27 44.5t39.5 47.5q16 18 31.5 34.5t28.5 34.5q14 20 24 43t10 52q0 23 -7.5 45.5t-24.5 40.5t-44 29t-66 11q-27 0 -53.5 -8t-50 -20.5t-43.5 -28t-35 -30.5v67q15 13 35.5 26.5t45.5 25t53.5 18.5t60.5 7q44 0 80.5 -13.5t62.5 -36.5t40 -55
t14 -69q0 -53 -24 -96t-73 -95q-23 -24 -39.5 -43.5t-28 -40.5t-17 -45.5t-6.5 -57.5h-61zM245 -14q-22 0 -36.5 17t-14.5 41q0 25 14.5 42.5t36.5 17.5t36.5 -17.5t14.5 -42.5q0 -24 -14.5 -41t-36.5 -17z" />
    <glyph glyph-name="at" unicode="@" horiz-adv-x="832" 
d="M509 94q-17 -22 -49 -40t-83 -18q-62 0 -97 33t-35 86q0 60 39 95t124 44l110 11v1q0 6 0.5 14.5t0.5 19.5q0 38 -20 57.5t-68 19.5q-45 0 -79 -16.5t-60 -33.5l4 58q18 12 54 27t90 15q19 0 42.5 -3.5t44.5 -17t35.5 -39t14.5 -68.5q0 -5 -0.5 -24.5t-1.5 -33.5l-9 -176
q36 9 64 28.5t47.5 47t29.5 61.5t10 72q0 62 -22.5 112t-61.5 85t-90.5 54t-109.5 19q-68 0 -125.5 -25.5t-99 -70t-65 -105.5t-23.5 -133q0 -74 24 -134t67 -102t101.5 -65t126.5 -23q86 0 149 23.5t112 53.5l28 -48q-57 -35 -128 -59.5t-162 -24.5q-82 0 -152 28
t-121 78.5t-79.5 121.5t-28.5 157q0 82 30 151.5t81 120.5t119.5 79.5t145.5 28.5q70 0 132 -23.5t108.5 -65t74 -99t27.5 -126.5q0 -66 -21 -117t-57.5 -85.5t-85.5 -53t-104 -19.5zM515 257l-103 -11q-51 -5 -79 -25t-28 -65q0 -31 21 -50.5t59 -19.5q22 0 44.5 6.5
t40.5 19.5t29.5 32t12.5 44z" />
    <glyph glyph-name="A" unicode="A" horiz-adv-x="716" 
d="M483 295l-124 378l-132 -378h256zM81 52l245 686h76l231 -686h68q4 -12 4 -26t-4 -26h-230q-4 12 -4 26t4 26h92l-61 187h-295l-65 -187h90q4 -12 4 -26t-4 -26h-218q-4 12 -4 26t4 26h67z" />
    <glyph glyph-name="B" unicode="B" horiz-adv-x="674" 
d="M346 408q72 0 114 32.5t42 105.5q0 28 -8 51.5t-26.5 40t-48 26t-72.5 9.5h-166v-265h165zM374 56q87 0 127.5 42t40.5 108q0 43 -15 71.5t-39.5 45.5t-55.5 23.5t-62 6.5h-189v-297h193zM114 52v625h-78q-4 12 -4 26t4 26h338q52 0 90 -15t62 -40t35.5 -58t11.5 -68
q0 -51 -24.5 -93t-72.5 -65q25 -7 50 -21t44.5 -36t31.5 -53.5t12 -73.5q0 -40 -14 -77.5t-42 -66t-71 -45.5t-100 -17h-351q-4 12 -4 26t4 26h78z" />
    <glyph glyph-name="C" unicode="C" horiz-adv-x="704" 
d="M631 71q-14 -13 -37 -28.5t-53.5 -29t-67.5 -22.5t-80 -9q-85 0 -148 29.5t-105 80t-62.5 119t-20.5 146.5q0 75 20.5 145.5t60.5 125t99.5 87t138.5 32.5q57 0 109 -21t89 -69v72q13 4 28 4q16 0 29 -4v-268q-13 -4 -30 -4t-30 4v41q0 39 -12.5 73t-37 59.5t-61 40
t-84.5 14.5q-67 0 -113.5 -31.5t-76 -79.5t-43 -106t-13.5 -112q0 -83 22 -143t58.5 -98.5t84.5 -57t99 -18.5q44 0 81 11t66.5 27.5t52 35.5t37.5 34v-80z" />
    <glyph glyph-name="D" unicode="D" horiz-adv-x="722" 
d="M348 57q54 0 86.5 11t57.5 32q48 39 74 108t26 160q0 100 -33.5 171.5t-95.5 105.5q-24 13 -55 20t-83 7h-143v-615h166zM114 52v625h-78q-4 12 -4 26t4 26h309q57 0 94 -8.5t66 -23.5q78 -42 119 -126.5t41 -195.5q0 -43 -7 -89.5t-22.5 -90.5t-41 -82.5t-62.5 -65.5
q-30 -22 -72 -34.5t-112 -12.5h-312q-4 12 -4 26t4 26h78z" />
    <glyph glyph-name="E" unicode="E" horiz-adv-x="628" 
d="M114 52v625h-78q-4 12 -4 26t4 26h529v-199q-13 -4 -30 -4q-16 0 -29 4v142h-324v-268h306q4 -13 4 -28q0 -16 -4 -29h-306v-290h330v143q13 4 29 4q17 0 30 -4v-200h-535q-4 12 -4 26t4 26h78z" />
    <glyph glyph-name="F" unicode="F" horiz-adv-x="593" 
d="M114 52v625h-78q-4 12 -4 26t4 26h519v-205q-13 -4 -30 -4q-16 0 -29 4v147h-314v-267h284q4 -13 4 -28q0 -16 -4 -29h-284v-295h95q4 -12 4 -26t-4 -26h-241q-4 12 -4 26t4 26h78z" />
    <glyph glyph-name="G" unicode="G" horiz-adv-x="748" 
d="M577 289h-108q-4 12 -4 26t4 26h244q4 -12 4 -26t-4 -26h-68v-237q0 -6 -12 -13q-14 -8 -38 -18t-54.5 -18.5t-66 -14.5t-73.5 -6q-92 0 -157 31.5t-106.5 84.5t-61 122t-19.5 144t20.5 144t60.5 122t98.5 85t134.5 32q68 0 118.5 -24t85.5 -66v72q13 4 28 4q16 0 29 -4
v-245q-13 -4 -30 -4q-16 0 -29 4v30q0 35 -13 67t-38 56t-62 38t-84 14q-66 0 -112.5 -29.5t-76.5 -77t-43.5 -105.5t-13.5 -115q0 -75 20 -134t56 -100t85.5 -63t108.5 -22q62 0 101.5 11t75.5 29v206z" />
    <glyph glyph-name="H" unicode="H" horiz-adv-x="753" 
d="M114 52v625h-78q-4 12 -4 26t4 26h224q4 -12 4 -26t-4 -26h-78v-264h389v264h-78q-4 12 -4 26t4 26h224q4 -12 4 -26t-4 -26h-78v-625h78q4 -12 4 -26t-4 -26h-224q-4 12 -4 26t4 26h78v304h-389v-304h78q4 -12 4 -26t-4 -26h-224q-4 12 -4 26t4 26h78z" />
    <glyph glyph-name="I" unicode="I" horiz-adv-x="313" 
d="M122 52v625h-78q-4 12 -4 26t4 26h224q4 -12 4 -26t-4 -26h-78v-625h78q4 -12 4 -26t-4 -26h-224q-4 12 -4 26t4 26h78z" />
    <glyph glyph-name="J" unicode="J" horiz-adv-x="500" 
d="M23 99q11 -8 27.5 -17.5t37.5 -17.5t46 -14t54 -6q73 0 102.5 42.5t29.5 127.5v463h-94q-4 12 -4 26t4 26h240q4 -12 4 -26t-4 -26h-78v-464q0 -64 -15.5 -107.5t-42.5 -70t-64 -38t-80 -11.5q-29 0 -56 5.5t-48.5 13t-37 14.5t-21.5 11v69z" />
    <glyph glyph-name="K" unicode="K" horiz-adv-x="683" 
d="M114 52v625h-78q-4 12 -4 26t4 26h224q4 -12 4 -26t-4 -26h-78v-326l315 326h-103q-4 12 -4 26t4 26h245q4 -12 4 -26t-4 -26h-65l-225 -230l254 -395h70q4 -12 4 -26t-4 -26h-245q-4 12 -4 26t4 26h94l-221 347l-119 -123v-224h78q4 -12 4 -26t-4 -26h-224q-4 12 -4 26
t4 26h78z" />
    <glyph glyph-name="L" unicode="L" horiz-adv-x="575" 
d="M114 52v625h-78q-4 12 -4 26t4 26h235q4 -12 4 -26t-4 -26h-89v-620h296v174q13 4 29 4q17 0 30 -4v-231h-501q-4 12 -4 26t4 26h78z" />
    <glyph glyph-name="M" unicode="M" horiz-adv-x="891" 
d="M114 52v625h-78q-4 12 -4 26t4 26h187l219 -644l224 644h188q4 -12 4 -26t-4 -26h-78v-625h78q4 -12 4 -26t-4 -26h-223q-4 12 -4 26t4 26h78v633l-233 -666h-73l-228 664v-631h78q4 -12 4 -26t-4 -26h-217q-4 12 -4 26t4 26h78z" />
    <glyph glyph-name="N" unicode="N" horiz-adv-x="739" 
d="M114 52v625h-78q-4 12 -4 26t4 26h171l360 -644v592h-81q-4 12 -4 26t4 26h221q4 -12 4 -26t-4 -26h-78v-686h-78l-376 676v-615h80q4 -12 4 -26t-4 -26h-219q-4 12 -4 26t4 26h78z" />
    <glyph glyph-name="O" unicode="O" horiz-adv-x="780" 
d="M390 -18q-95 0 -159 36t-102.5 91.5t-55 123.5t-16.5 131t16.5 131t55 124t102.5 92t159 36t159 -36t102.5 -92t55 -124t16.5 -131t-16.5 -131t-55 -123.5t-102.5 -91.5t-159 -36zM390 38q57 0 105 23t82.5 65t53.5 102.5t19 135.5t-19 135.5t-53.5 103t-82.5 65.5
t-105 23t-105 -23t-82.5 -65.5t-53.5 -103t-19 -135.5t19 -135.5t53.5 -102.5t82.5 -65t105 -23z" />
    <glyph glyph-name="P" unicode="P" horiz-adv-x="621" 
d="M114 52v625h-78q-4 12 -4 26t4 26h346q51 0 89.5 -15.5t64.5 -42.5t39 -63.5t13 -78.5q0 -36 -10.5 -72.5t-35.5 -66.5t-65.5 -48.5t-100.5 -18.5h-195v-271h88q4 -12 4 -26t-4 -26h-233q-4 12 -4 26t4 26h78zM362 379q69 0 111.5 35t42.5 113q0 75 -41 110.5t-109 35.5
h-185v-294h181z" />
    <glyph glyph-name="Q" unicode="Q" horiz-adv-x="780" 
d="M723 -96q-25 -11 -65.5 -21.5t-93.5 -10.5q-69 0 -125 31t-93 82q-82 9 -137.5 46.5t-89 91.5t-48 117.5t-14.5 123.5q0 63 16.5 131t55 124t102.5 92t159 36t159 -36t102.5 -92t55 -124t16.5 -131q0 -59 -14 -122.5t-47.5 -117.5t-88.5 -92t-136 -47q28 -33 62 -45
t69 -12q30 0 67 5t88 31v-60zM390 38q57 0 105 23t82.5 65t53.5 102.5t19 135.5t-19 135.5t-53.5 103t-82.5 65.5t-105 23t-105 -23t-82.5 -65.5t-53.5 -103t-19 -135.5t19 -135.5t53.5 -102.5t82.5 -65t105 -23z" />
    <glyph glyph-name="R" unicode="R" horiz-adv-x="684" 
d="M114 52v625h-78q-4 12 -4 26t4 26h341q43 0 69.5 -5t46.5 -14q51 -23 78 -70.5t27 -107.5q0 -29 -7.5 -59.5t-25 -58.5t-47.5 -49.5t-75 -31.5l147 -281h73q2 -6 3 -12t1 -14q0 -14 -4 -26h-130l-164 329h-188v-277h93q4 -12 4 -26t-4 -26h-238q-4 12 -4 26t4 26h78z
M372 385q34 0 62 8t48.5 25.5t32 45.5t11.5 67q0 48 -18 79.5t-50 46.5q-33 16 -91 16h-186v-288h191z" />
    <glyph glyph-name="S" unicode="S" horiz-adv-x="632" 
d="M50 250q13 4 29 4q17 0 30 -4v-34q0 -35 17 -67t47.5 -56t73.5 -38.5t95 -14.5q91 0 136 36.5t45 102.5q0 33 -10.5 56.5t-28 40t-41.5 27.5t-51 19l-180 51q-30 8 -56.5 22t-46.5 35t-31.5 50t-11.5 67q0 48 18 85t49 62.5t72.5 39t87.5 13.5q75 0 124 -23.5t83 -68.5
v74q13 4 28 4q16 0 29 -4v-233q-13 -4 -29 -4t-29 4v25q0 34 -13 64.5t-38 53.5t-63 37t-87 14q-34 0 -64 -8.5t-52 -25.5t-35 -42t-13 -59q0 -49 28.5 -77t84.5 -44l173 -49q40 -12 72.5 -29t54.5 -41.5t34 -57.5t12 -77q0 -47 -17.5 -83.5t-49.5 -61.5t-76.5 -38.5
t-98.5 -13.5q-87 0 -144.5 25.5t-98.5 75.5v-84q-13 -4 -29 -4t-29 4v250z" />
    <glyph glyph-name="T" unicode="T" horiz-adv-x="676" 
d="M304 52v623h-208v-158q-13 -4 -30 -4q-16 0 -29 4v212h602v-212q-13 -4 -30 -4q-16 0 -29 4v158h-208v-623h82q4 -12 4 -26t-4 -26h-232q-4 12 -4 26t4 26h82z" />
    <glyph glyph-name="U" unicode="U" horiz-adv-x="742" 
d="M108 677h-78q-4 12 -4 26t4 26h224q4 -12 4 -26t-4 -26h-78v-424q0 -61 17 -101.5t44.5 -65t62.5 -34.5t71 -10q39 0 74.5 10t62.5 33.5t43.5 62.5t16.5 98v431h-78q-4 12 -4 26t4 26h221q4 -12 4 -26t-4 -26h-78v-436q0 -53 -15 -100t-46.5 -82.5t-80.5 -56t-118 -20.5
t-119 20t-82.5 56t-48 86.5t-15.5 110.5v422z" />
    <glyph glyph-name="V" unicode="V" horiz-adv-x="709" 
d="M82 677h-68q-4 12 -4 26t4 26h230q4 -12 4 -26t-4 -26h-92l200 -619l214 619h-89q-4 12 -4 26t4 26h217q4 -12 4 -26t-4 -26h-66l-244 -686h-72z" />
    <glyph glyph-name="W" unicode="W" horiz-adv-x="1011" 
d="M83 677h-69q-4 12 -4 26t4 26h229q4 -12 4 -26t-4 -26h-91l147 -603l173 655h73l164 -655l159 603h-88q-4 12 -4 26t4 26h217q4 -12 4 -26t-4 -26h-68l-189 -686h-73l-162 645l-173 -645h-73z" />
    <glyph glyph-name="X" unicode="X" horiz-adv-x="714" 
d="M87 52l234 317l-222 308h-63q-4 12 -4 26t4 26h246q4 -12 4 -26t-4 -26h-106l184 -256l189 256h-103q-4 12 -4 26t4 26h233q4 -12 4 -26t-4 -26h-61l-223 -302l232 -323h64q4 -12 4 -26t-4 -26h-247q-4 12 -4 26t4 26h106l-194 270l-200 -270h103q4 -12 4 -26t-4 -26
h-235q-4 12 -4 26t4 26h63z" />
    <glyph glyph-name="Y" unicode="Y" horiz-adv-x="711" 
d="M317 52v242l-246 383h-57q-4 12 -4 26t4 26h231q4 -12 4 -26t-4 -26h-100l211 -329l215 329h-97q-4 12 -4 26t4 26h222q4 -12 4 -26t-4 -26h-57l-255 -384v-241h83q4 -12 4 -26t-4 -26h-233q-4 12 -4 26t4 26h83z" />
    <glyph glyph-name="Z" unicode="Z" horiz-adv-x="615" 
d="M32 57l454 615h-375v-146q-13 -4 -29 -4q-17 0 -30 4v203h512v-57l-454 -615h414v149q13 4 29 4q17 0 30 -4v-206h-551v57z" />
    <glyph glyph-name="bracketleft" unicode="[" horiz-adv-x="251" 
d="M61 758h161v-50h-97v-825h97v-51h-161v926z" />
    <glyph glyph-name="backslash" unicode="\" horiz-adv-x="306" 
d="M2 758h57l245 -776h-57z" />
    <glyph glyph-name="bracketright" unicode="]" horiz-adv-x="251" 
d="M29 -118h97v825h-97v51h161v-926h-161v50z" />
    <glyph glyph-name="asciicircum" unicode="^" horiz-adv-x="524" 
d="M233 667h58l196 -411h-66l-160 344l-160 -344h-64z" />
    <glyph glyph-name="underscore" unicode="_" horiz-adv-x="500" 
d="M0 -88h500v-49h-500v49z" />
    <glyph glyph-name="grave" unicode="`" horiz-adv-x="334" 
d="M74 711h89l96 -136h-58z" />
    <glyph glyph-name="a" unicode="a" horiz-adv-x="525" 
d="M369 266l-134 -14q-66 -8 -100.5 -33.5t-34.5 -86.5q0 -45 30 -70t81 -25q28 0 56 8.5t50.5 26t37 43t14.5 58.5v93zM372 70q-23 -34 -63 -59t-113 -25q-72 0 -116 38.5t-44 107.5q0 33 9 61t30 50t55 37t84 20l155 16v24q0 31 -6 54.5t-20.5 40t-39.5 25t-63 8.5
q-26 0 -49 -6t-43 -14.5t-37 -19t-29 -19.5v61q10 7 26 16t37.5 16.5t49.5 13t62 5.5q24 0 54.5 -5t57.5 -22t45.5 -50t18.5 -90v-306h67q4 -11 4 -24t-4 -24h-128v70z" />
    <glyph glyph-name="b" unicode="b" horiz-adv-x="569" 
d="M308 39q39 0 68 17t47.5 46.5t28 69.5t9.5 86q0 27 -5 62.5t-21.5 68t-47 55t-80.5 22.5q-49 0 -79 -22.5t-46 -55.5t-21 -70t-5 -66q0 -64 15 -105t38 -65t49.5 -33.5t49.5 -9.5zM96 48v662h-71q-4 11 -4 24t4 24h135v-328q23 39 61 65t101 26q49 0 87 -19.5t64 -53
t40 -79.5t14 -99q0 -49 -10.5 -99.5t-35 -92t-66 -67.5t-104.5 -26q-48 0 -91 24t-64 75v-84h-131q-4 11 -4 24t4 24h71z" />
    <glyph glyph-name="c" unicode="c" horiz-adv-x="489" 
d="M439 39q-11 -8 -27 -17t-36.5 -17t-46.5 -13.5t-57 -5.5q-56 0 -99.5 20.5t-72.5 55.5t-44 81.5t-15 99.5q0 57 13.5 107t40.5 87t68 58.5t97 21.5q43 0 78.5 -17.5t52.5 -46.5v53q6 2 13 3t13 1q14 0 25 -4v-198q-12 -4 -27 -4t-27 4v20q0 63 -31.5 99.5t-91.5 36.5
q-48 0 -78.5 -20.5t-48 -52.5t-24 -70.5t-6.5 -74.5q0 -50 13 -87.5t36 -63t54.5 -38.5t68.5 -13q27 0 50.5 6t43.5 15.5t36.5 21t28.5 21.5v-69z" />
    <glyph glyph-name="d" unicode="d" horiz-adv-x="568" 
d="M260 39q23 0 49.5 9t49 33t37.5 65.5t15 105.5q0 29 -5 66t-21 70t-45.5 55.5t-77.5 22.5q-50 0 -80.5 -22.5t-47 -54.5t-21.5 -67.5t-5 -62.5q0 -46 9 -86t28 -70t47.5 -47t67.5 -17zM412 85q-19 -51 -62.5 -75.5t-91.5 -24.5q-63 0 -104.5 25t-66.5 65.5t-35.5 90
t-10.5 99.5q0 55 13.5 101.5t40 81t64.5 54t87 19.5q63 0 101.5 -26.5t60.5 -64.5v280h-70q-4 11 -4 24t4 24h134v-710h71q4 -11 4 -24t-4 -24h-131v85z" />
    <glyph glyph-name="e" unicode="e" horiz-adv-x="498" 
d="M436 26q-26 -14 -65.5 -27t-83.5 -13q-66 0 -112.5 22t-76 59.5t-43.5 85.5t-14 101t12.5 101.5t38.5 85t66 58.5t95 22q58 0 97.5 -21.5t64 -58t35 -84.5t10.5 -100v-20h-351q2 -39 14 -74.5t33.5 -62t54 -42t74.5 -15.5q53 0 87.5 15.5t63.5 33.5v-66zM390 286
q0 29 -5.5 61t-20.5 59t-42 44.5t-70 17.5q-40 0 -67 -18.5t-44 -46t-24.5 -59.5t-7.5 -58h281z" />
    <glyph glyph-name="f" unicode="f" horiz-adv-x="307" 
d="M112 48v409h-83q-3 13 -3 25q0 11 3 25h83v101q0 44 12 74.5t31.5 49.5t44.5 27.5t52 8.5q24 0 41 -3.5t31 -8.5v-55q-7 3 -23 8.5t-42 5.5q-35 0 -59 -23.5t-24 -80.5v-104h114q3 -14 3 -25q0 -12 -3 -25h-114v-409h102q4 -11 4 -24t-4 -24h-241q-4 11 -4 24t4 24h75z
" />
    <glyph glyph-name="g" unicode="g" horiz-adv-x="568" 
d="M73 -77q13 -8 29.5 -16.5t37 -16t45.5 -12.5t56 -5q84 0 125.5 41t41.5 134v37q-22 -48 -63 -70.5t-89 -22.5q-62 0 -103.5 25t-66.5 64.5t-35 89t-10 99.5q0 55 14 101t40 79.5t64.5 52t87.5 18.5q33 0 58.5 -7.5t46 -21t35 -31.5t25.5 -38v84h131q4 -11 4 -24t-4 -24
h-70v-392q0 -70 -16 -117.5t-46 -76t-71.5 -41t-92.5 -12.5q-58 0 -104.5 13.5t-69.5 26.5v63zM260 46q23 0 49.5 9t49.5 32t38 64t15 105q0 29 -5 65.5t-21 68.5t-45.5 54t-78.5 22q-50 0 -80.5 -22t-47 -53.5t-21.5 -66.5t-5 -62q0 -46 9.5 -85.5t28 -68.5t47 -45.5
t67.5 -16.5z" />
    <glyph glyph-name="h" unicode="h" horiz-adv-x="577" 
d="M96 48v662h-71q-4 11 -4 24t4 24h135v-324q23 41 62.5 64t96.5 23q78 0 120 -44t42 -132v-297h71q4 -11 4 -24t-4 -24h-201q-4 11 -4 24t4 24h66v269q0 33 -4.5 60.5t-16.5 47t-34 30.5t-57 11q-28 0 -54 -9.5t-46.5 -31.5t-32.5 -58.5t-12 -89.5v-229h66q4 -11 4 -24
t-4 -24h-201q-4 11 -4 24t4 24h71z" />
    <glyph glyph-name="i" unicode="i" horiz-adv-x="277" 
d="M127 623q-18 0 -32.5 14.5t-14.5 37.5t14.5 37.5t32.5 14.5t32.5 -14.5t14.5 -37.5t-14.5 -37.5t-32.5 -14.5zM109 48v411h-71q-4 11 -4 24t4 24h135v-459h71q4 -11 4 -24t-4 -24h-206q-4 11 -4 24t4 24h71z" />
    <glyph glyph-name="j" unicode="j" horiz-adv-x="263" 
d="M123 623q-18 0 -33 14.5t-15 37.5t14.5 37.5t32.5 14.5t33 -14.5t15 -37.5t-14.5 -37.5t-32.5 -14.5zM-26 -116q10 -4 27 -9t36 -5q34 0 50.5 17.5t16.5 56.5v515h-70q-4 11 -4 24t4 24h134v-556q0 -40 -10.5 -65.5t-28 -40t-40 -20t-45.5 -5.5q-21 0 -38.5 4t-31.5 10
v50z" />
    <glyph glyph-name="k" unicode="k" horiz-adv-x="541" 
d="M96 48v662h-71q-4 11 -4 24t4 24h135v-497l221 198h-81q-4 11 -4 24t4 24h212q4 -11 4 -24t-4 -24h-60l-149 -131l173 -280h55q4 -11 4 -24t-4 -24h-195q-4 11 -4 24t4 24h64l-144 238l-96 -85v-153h64q4 -11 4 -24t-4 -24h-199q-4 11 -4 24t4 24h71z" />
    <glyph glyph-name="l" unicode="l" horiz-adv-x="268" 
d="M102 48v662h-71q-4 11 -4 24t4 24h135v-710h71q4 -11 4 -24t-4 -24h-206q-4 11 -4 24t4 24h71z" />
    <glyph glyph-name="m" unicode="m" horiz-adv-x="857" 
d="M101 48v411h-71q-4 11 -4 24t4 24h127v-83q21 42 59 69.5t96 27.5q109 0 140 -94q23 42 62.5 68t95.5 26q78 0 114.5 -41t36.5 -112v-320h71q4 -11 4 -24t-4 -24h-201q-4 11 -4 24t4 24h66v283q0 27 -2.5 51.5t-13 43t-30.5 29.5t-55 11q-23 0 -46.5 -9.5t-43 -31.5
t-31.5 -58.5t-12 -89.5v-229h66q4 -11 4 -24t-4 -24h-196q-4 11 -4 24t4 24h66v269q0 30 -2.5 57t-13 47.5t-30.5 32.5t-55 12q-23 0 -46.5 -9.5t-43 -31.5t-31.5 -58.5t-12 -89.5v-229h66q4 -11 4 -24t-4 -24h-201q-4 11 -4 24t4 24h71z" />
    <glyph glyph-name="n" unicode="n" horiz-adv-x="582" 
d="M101 48v411h-71q-4 11 -4 24t4 24h127v-80q21 38 61 66t106 28q78 0 120 -44t42 -132v-297h71q4 -11 4 -24t-4 -24h-201q-4 11 -4 24t4 24h66v269q0 33 -4.5 60.5t-16.5 47t-34 30.5t-57 11q-28 0 -54 -9.5t-46.5 -31.5t-32.5 -58.5t-12 -89.5v-229h66q4 -11 4 -24
t-4 -24h-201q-4 11 -4 24t4 24h71z" />
    <glyph glyph-name="o" unicode="o" horiz-adv-x="540" 
d="M270 -14q-59 0 -102 23t-71.5 60.5t-42 86t-13.5 98.5t13.5 98t41.5 85.5t71 60.5t102 23t102 -23t71.5 -60.5t42.5 -85.5t14 -98t-13.5 -98t-42 -86t-71.5 -61t-102 -23zM269 40q51 0 83 23.5t49.5 57t24 70.5t6.5 63t-6.5 62.5t-24 70t-49 57t-82.5 23.5t-82.5 -23.5
t-49.5 -57t-24 -70t-6 -62.5t6 -63t23.5 -70.5t49 -57t82.5 -23.5z" />
    <glyph glyph-name="p" unicode="p" horiz-adv-x="569" 
d="M96 -120v579h-71q-4 11 -4 24t4 24h132v-83q18 39 58.5 68t100.5 29q55 0 95 -22t66 -58.5t38 -85t12 -101.5q0 -50 -11.5 -98t-37 -86t-65 -61.5t-95.5 -23.5q-51 0 -93 22.5t-65 70.5v-198h76q4 -11 4 -24t-4 -24h-211q-4 11 -4 24t4 24h71zM308 39q44 0 73.5 19.5
t47 50t24.5 68.5t7 75q0 36 -7 73.5t-24 69t-46.5 51.5t-74.5 20q-36 0 -64.5 -15.5t-48 -43.5t-29.5 -68t-10 -88q0 -45 10 -83.5t29.5 -67t48 -45t64.5 -16.5z" />
    <glyph glyph-name="q" unicode="q" horiz-adv-x="568" 
d="M260 39q36 0 64.5 16t48 44.5t29.5 67t10 83.5q0 48 -10 88t-29.5 68.5t-47.5 44t-64 15.5q-45 0 -74.5 -20t-47 -51.5t-24.5 -70t-7 -75.5q0 -36 7 -73t24.5 -67.5t47 -50t73.5 -19.5zM408 -120v198q-21 -45 -61.5 -69t-93.5 -24q-56 0 -96.5 22.5t-66 60t-37.5 85.5
t-12 98q0 54 12 103t38 86t65.5 59t95.5 22q60 0 101 -29t59 -71v86h131q4 -11 4 -24t-4 -24h-71v-579h71q4 -11 4 -24t-4 -24h-210q-4 11 -4 24t4 24h75z" />
    <glyph glyph-name="r" unicode="r" horiz-adv-x="369" 
d="M101 48v411h-71q-4 11 -4 24t4 24h127v-103q7 18 21 36.5t32.5 33.5t41 24.5t48.5 9.5q19 0 32 -2.5t23 -5.5l-6 -62q-8 4 -20 7.5t-35 3.5q-21 0 -43.5 -10t-41.5 -33.5t-31.5 -61.5t-12.5 -93v-203h76q4 -11 4 -24t-4 -24h-211q-4 11 -4 24t4 24h71z" />
    <glyph glyph-name="s" unicode="s" horiz-adv-x="487" 
d="M48 181q6 2 13 3t13 1t13 -1t13 -3v-17q0 -31 13 -54.5t35 -39t50.5 -23.5t60.5 -8q25 0 46.5 4.5t38 15t26 26.5t9.5 40q0 22 -8 37.5t-22.5 27t-34.5 19t-45 14.5l-93 25q-60 16 -90 46t-30 79q0 39 14.5 67t38 45.5t53.5 25.5t61 8q51 0 87 -16t55 -45v49q6 2 13 3
t13 1q14 0 25 -4v-163q-12 -4 -26 -4t-26 4v23q0 16 -8 34t-24.5 33.5t-42.5 26t-62 10.5q-22 0 -42 -4.5t-35 -15t-24 -27t-9 -39.5q0 -20 6.5 -33t19 -22.5t31 -16t42.5 -12.5l83 -22q39 -10 67 -23t45 -31t25 -41.5t8 -55.5q0 -34 -13.5 -60t-37 -43.5t-56.5 -26.5
t-72 -9q-52 0 -95.5 15.5t-69.5 48.5v-52q-12 -4 -26 -4t-26 4v180z" />
    <glyph glyph-name="t" unicode="t" horiz-adv-x="311" 
d="M91 459h-80q-4 11 -4 24t4 24h80v139l64 36v-175h124q4 -11 4 -24t-4 -24h-124v-324q0 -29 6.5 -46t17.5 -27q19 -16 49 -16q24 0 40 5t26 10v-53q-14 -8 -35 -11.5t-39 -3.5q-63 0 -96 35t-33 100v331z" />
    <glyph glyph-name="u" unicode="u" horiz-adv-x="577" 
d="M96 459h-71q-4 11 -4 24t4 24h134v-317q0 -33 4.5 -60.5t17 -47t34.5 -30.5t57 -11q27 0 53.5 9.5t46.5 31.5t32.5 58.5t12.5 89.5v229h-71q-4 11 -4 24t4 24h135v-459h70q4 -11 4 -24t-4 -24h-126v80q-11 -19 -26.5 -36.5t-35.5 -30.5t-46 -20.5t-59 -7.5q-78 0 -120 44
t-42 133v297z" />
    <glyph glyph-name="v" unicode="v" horiz-adv-x="528" 
d="M64 459h-53q-4 11 -4 24t4 24h189q4 -11 4 -24t-4 -24h-70l137 -405l138 405h-66q-4 11 -4 24t4 24h178q4 -11 4 -24t-4 -24h-53l-163 -462h-73z" />
    <glyph glyph-name="w" unicode="w" horiz-adv-x="784" 
d="M64 459h-53q-4 11 -4 24t4 24h190q4 -11 4 -24t-4 -24h-69l66 -236q2 -7 8.5 -32.5t13.5 -54.5t13 -55.5t8 -35.5q1 9 7 34t12.5 52.5t12 51.5t7.5 31l78 293h74l78 -292q2 -7 8 -31t12.5 -52t12 -53t7.5 -34q1 9 7.5 35t14 55t14 54t8.5 32l65 238h-65q-4 11 -4 24t4 24
h179q4 -11 4 -24t-4 -24h-53l-134 -462h-74l-77 281q-2 7 -8 30.5t-13.5 51.5t-13.5 53t-8 35q-1 -9 -7 -34.5t-13 -53t-13.5 -51.5t-8.5 -31l-76 -281h-74z" />
    <glyph glyph-name="x" unicode="x" horiz-adv-x="521" 
d="M65 48l162 207l-153 204h-49q-4 11 -4 24t4 24h186q4 -11 4 -24t-4 -24h-65l117 -160l122 160h-59q-4 11 -4 24t4 24h170q4 -11 4 -24t-4 -24h-48l-153 -198l160 -213h49q4 -11 4 -24t-4 -24h-187q-4 11 -4 24t4 24h64l-123 169l-129 -169h59q4 -11 4 -24t-4 -24h-172
q-4 11 -4 24t4 24h49z" />
    <glyph glyph-name="y" unicode="y" horiz-adv-x="528" 
d="M49 -113q16 -6 33.5 -10t35.5 -4t32.5 3.5t27.5 14t25 31t23 53.5l6 18l-168 466h-53q-4 11 -4 24t4 24h190q4 -11 4 -24t-4 -24h-69l136 -391l135 391h-64q-4 11 -4 24t4 24h178q4 -11 4 -24t-4 -24h-53l-183 -510q-23 -64 -54 -93q-23 -22 -49.5 -29t-55.5 -7
q-26 0 -42 4.5t-31 9.5v53z" />
    <glyph glyph-name="z" unicode="z" horiz-adv-x="431" 
d="M21 55l314 403h-247v-105q-12 -4 -27 -4t-27 4v154h367v-55l-314 -403h269v104q12 4 27 4t27 -4v-153h-389v55z" />
    <glyph glyph-name="braceleft" unicode="{" horiz-adv-x="315" 
d="M119 141q0 55 -20.5 91t-58.5 39v49q38 3 58 38.5t20 89.5v192q0 24 7 45.5t19.5 37.5t30.5 25.5t41 9.5h58v-50h-38q-33 0 -43.5 -24t-10.5 -56v-197q0 -32 -8.5 -56t-21 -40.5t-27.5 -26t-28 -12.5v-1q13 -3 28 -12.5t27.5 -26t20.5 -40.5t8 -57v-197q0 -32 11 -55.5
t44 -23.5h38v-51h-58q-45 0 -71 34.5t-26 82.5v192z" />
    <glyph glyph-name="bar" unicode="|" horiz-adv-x="241" 
d="M93 758h55v-776h-55v776z" />
    <glyph glyph-name="braceright" unicode="}" horiz-adv-x="315" 
d="M40 -118h38q33 0 44 24t11 56v196q0 33 8.5 57.5t21 41t27.5 26t28 12.5l-1 1q-13 3 -27.5 12.5t-27 26t-21 40.5t-8.5 56v197q0 32 -10.5 55.5t-43.5 23.5h-39v51h58q45 0 71.5 -34.5t26.5 -82.5v-192q0 -55 20 -90.5t58 -38.5v-49q-38 -3 -58 -38.5t-20 -91.5v-191
q0 -24 -6.5 -45.5t-19.5 -37.5t-31 -25.5t-40 -9.5h-59v50z" />
    <glyph glyph-name="asciitilde" unicode="~" horiz-adv-x="628" 
d="M37 156q11 75 45 115t92 40q31 0 53 -5.5t52 -17.5l105 -41q16 -6 33.5 -10.5t38.5 -4.5q36 0 57 23.5t30 71.5h47q-10 -75 -44 -115t-94 -40q-28 0 -49.5 6t-42.5 14l-116 44q-17 6 -34 10.5t-38 4.5q-38 0 -57.5 -23.5t-29.5 -71.5h-48z" />
    <glyph glyph-name="uni00A0" unicode="&#xa0;" horiz-adv-x="262" 
 />
    <glyph glyph-name="exclamdown" unicode="&#xa1;" horiz-adv-x="254" 
d="M100 312h55l13 -480h-81zM127 403q-22 0 -36.5 17.5t-14.5 42.5q0 24 14.5 41t36.5 17t36.5 -17t14.5 -41q0 -25 -14.5 -42.5t-36.5 -17.5z" />
    <glyph glyph-name="cent" unicode="&#xa2;" horiz-adv-x="542" 
d="M262 70q-48 6 -84.5 28.5t-61.5 56.5t-37.5 77.5t-12.5 92.5q0 54 12 102t36 84.5t61 59t87 27.5v85h47v-86q35 -5 63.5 -21t43.5 -41v53q6 2 13 3t13 1q14 0 25 -4v-198q-12 -4 -27 -4t-27 4v20q0 58 -26.5 94t-77.5 42v-421q26 0 49 6.5t42.5 16t35.5 21t28 21.5v-69
q-11 -7 -25.5 -16t-34 -16.5t-43 -13.5t-52.5 -7v-86h-47v88zM262 545q-39 -6 -64.5 -28.5t-40 -53.5t-20 -66.5t-5.5 -68.5q0 -85 36 -135t94 -64v416z" />
    <glyph glyph-name="sterling" unicode="&#xa3;" horiz-adv-x="542" 
d="M29 54q25 22 45.5 42.5t35.5 44.5t23.5 53.5t8.5 69.5q0 14 -2.5 29.5t-6.5 32.5h-103q-4 12 -4 26t4 26h88q-8 29 -14.5 61t-6.5 73q0 29 12 59.5t36.5 55t61 40.5t86.5 16q55 0 89.5 -13t62.5 -30v-66q-32 23 -68 37.5t-81 14.5q-63 0 -99 -32.5t-36 -92.5q0 -36 7 -66
t15 -57h190q4 -12 4 -26t-4 -26h-174q3 -14 5.5 -28.5t2.5 -29.5q0 -36 -7 -65.5t-19.5 -55t-31 -48t-42.5 -45.5h321v119q13 4 29 4t29 -4v-173h-457v54z" />
    <glyph glyph-name="currency" unicode="&#xa4;" horiz-adv-x="560" 
d="M87 178q-27 32 -41 71.5t-14 84.5q0 43 14 83.5t41 71.5l-58 56l39 39l58 -58q30 26 69.5 41t82.5 15q84 0 153 -55l58 57l39 -38l-58 -57q27 -31 41 -70.5t14 -84.5q0 -43 -14 -83t-40 -72l56 -58l-37 -37l-57 59q-31 -28 -70.5 -43t-83.5 -15q-43 0 -83 14.5t-72 43.5
l-57 -59l-37 37zM278 140q39 0 73.5 15.5t60 42t40.5 61.5t15 75q0 39 -15 74t-40.5 61.5t-59.5 42t-73 15.5t-73.5 -15.5t-60 -41.5t-40.5 -61.5t-15 -74.5t14.5 -74.5t40 -62t60 -42t73.5 -15.5z" />
    <glyph glyph-name="yen" unicode="&#xa5;" horiz-adv-x="542" 
d="M234 50v127h-175v43h175v71l-10 17h-165v43h142l-145 266h-44q-4 12 -4 25t4 25h193q4 -12 4 -25t-4 -25h-79l144 -272l153 272h-80q-4 12 -4 25t4 25h186q4 -12 4 -25t-4 -25h-43l-154 -266h145v-43h-170l-10 -17v-71h180v-43h-180v-127h79q4 -12 4 -25t-4 -25h-221
q-4 12 -4 25t4 25h79z" />
    <glyph glyph-name="brokenbar" unicode="&#xa6;" horiz-adv-x="241" 
d="M93 758h55v-259h-55v259zM93 240h55v-258h-55v258z" />
    <glyph glyph-name="section" unicode="&#xa7;" horiz-adv-x="541" 
d="M77 -43q10 -10 28.5 -24t42 -26.5t51 -21.5t56.5 -9q21 0 43 4t39 14t28 27.5t11 44.5q0 35 -19.5 57t-61.5 50l-155 105q-51 35 -73 69.5t-22 72.5q0 61 28 97.5t78 66.5q-29 29 -41 56t-12 56q0 34 14 62t38.5 48t57.5 30.5t72 10.5q29 0 55 -6t48 -14.5t39 -18.5
t28 -17v-72q-12 11 -29 24t-38.5 24t-46.5 18t-53 7q-24 0 -45 -4.5t-37.5 -15.5t-26 -29t-9.5 -45q0 -33 21 -55t58 -45l146 -93q22 -14 41.5 -29t33.5 -32.5t22 -39.5t8 -51q0 -60 -31 -97.5t-78 -66.5q29 -28 43.5 -55.5t14.5 -65.5q0 -35 -13.5 -62.5t-37 -46.5t-55 -29
t-68.5 -10q-68 0 -116.5 21t-76.5 44v72zM348 118q13 9 27.5 21t26.5 26t20 31.5t8 38.5q0 38 -20 65t-55 49l-164 107q-15 -9 -29.5 -20.5t-26 -26t-18.5 -32t-7 -37.5q0 -42 21 -67t54 -47z" />
    <glyph glyph-name="dieresis" unicode="&#xa8;" horiz-adv-x="331" 
d="M252 589q-17 0 -30.5 14t-13.5 35t13.5 35t30.5 14t31 -14t14 -35t-14 -35t-31 -14zM79 589q-17 0 -31 14t-14 35t14 35t31 14t30.5 -14t13.5 -35t-13.5 -35t-30.5 -14z" />
    <glyph glyph-name="copyright" unicode="&#xa9;" horiz-adv-x="884" 
d="M585 192q-5 -6 -18 -15.5t-31.5 -18.5t-42.5 -15t-52 -6q-51 0 -88.5 17.5t-62.5 48t-37.5 71t-12.5 87.5q0 44 12 85.5t36 74t59.5 52.5t83.5 20q30 0 57.5 -10t49.5 -33v31q9 4 23 4q6 0 12.5 -1t11.5 -3v-165q-5 -2 -11.5 -3t-12.5 -1t-12.5 1t-11.5 3v28
q0 43 -26.5 72.5t-79.5 29.5q-36 0 -61.5 -17t-42 -43t-24 -59t-7.5 -64q0 -47 12.5 -80.5t32.5 -54.5t46.5 -31t54.5 -10q25 0 47.5 6.5t40.5 17t32 22t23 22.5v-63zM442 35q67 0 127 25t104.5 69.5t70.5 104.5t26 130t-26 130.5t-70.5 104.5t-104.5 69.5t-127 25.5
q-68 0 -127.5 -25.5t-104 -69.5t-70.5 -104.5t-26 -130.5t26 -130t70.5 -104.5t104 -69.5t127.5 -25zM55 364q0 81 31 151t83.5 121.5t123 81t149.5 29.5t149.5 -29.5t123 -81t83.5 -121.5t31 -151t-31 -151t-83.5 -121t-123 -80.5t-149.5 -29.5t-149.5 29.5t-123 80.5
t-83.5 121t-31 151z" />
    <glyph glyph-name="ordfeminine" unicode="&#xaa;" horiz-adv-x="377" 
d="M45 355h282v-45h-282v45zM251 582l-84 -8q-40 -4 -60 -19t-20 -49q0 -23 17.5 -37.5t46.5 -14.5q16 0 34 5t32.5 14.5t24 23.5t9.5 33v52zM253 458q-22 -24 -46.5 -35t-63.5 -11q-46 0 -76 25t-30 69q0 42 26.5 72t90.5 35l97 9v11q0 35 -17.5 53.5t-60.5 18.5
q-29 0 -55.5 -11.5t-51.5 -30.5v50q17 11 45 22.5t71 11.5q15 0 35 -3t38.5 -14t31.5 -32t13 -57v-180h40q4 -9 4 -21q0 -11 -4 -19h-87v37z" />
    <glyph glyph-name="guillemotleft" unicode="&#xab;" horiz-adv-x="469" 
d="M28 253l141 225h69l-142 -225l142 -225h-69zM231 253l141 225h69l-142 -225l142 -225h-69z" />
    <glyph glyph-name="logicalnot" unicode="&#xac;" horiz-adv-x="542" 
d="M33 459h475v-248l-56 -1v193h-419v56z" />
    <glyph glyph-name="uni00AD" unicode="&#xad;" horiz-adv-x="308" 
d="M258 301q3 -9 4 -17t1 -16t-1 -15.5t-4 -16.5h-208q-3 9 -4 16.5t-1 15.5t1 16t4 17h208z" />
    <glyph glyph-name="registered" unicode="&#xae;" horiz-adv-x="884" 
d="M442 35q67 0 127 25t104.5 69.5t70.5 104.5t26 130t-26 130.5t-70.5 104.5t-104.5 69.5t-127 25.5q-68 0 -127.5 -25.5t-104 -69.5t-70.5 -104.5t-26 -130.5t26 -130t70.5 -104.5t104 -69.5t127.5 -25zM55 364q0 81 31 151t83.5 121.5t123 81t149.5 29.5t149.5 -29.5
t123 -81t83.5 -121.5t31 -151t-31 -151t-83.5 -121t-123 -80.5t-149.5 -29.5t-149.5 29.5t-123 80.5t-83.5 121t-31 151zM463 384q38 0 60.5 18t22.5 61q0 26 -10 42.5t-27 24.5q-17 9 -45 9h-104v-155h103zM309 191v350h-44q-4 9 -4 22q0 12 4 21h213q35 0 59 -12
q32 -14 48.5 -43t16.5 -65q0 -17 -4.5 -35t-14.5 -34.5t-26.5 -30t-41.5 -20.5l80 -153h42q4 -9 4 -22q0 -12 -4 -21h-84l-95 191h-98v-148h52q4 -9 4 -22q0 -12 -4 -21h-147q-4 9 -4 21q0 13 4 22h44z" />
    <glyph glyph-name="macron" unicode="&#xaf;" horiz-adv-x="337" 
d="M19 656h298v-53h-298v53z" />
    <glyph glyph-name="degree" unicode="&#xb0;" horiz-adv-x="405" 
d="M56 583q0 31 11 58t30.5 46.5t46.5 30.5t58 11t58 -11t46.5 -30.5t31 -46.5t11.5 -58t-11 -58t-30.5 -46.5t-46.5 -30.5t-58 -11t-58 11t-46.5 30.5t-31 46.5t-11.5 58zM202 484q40 0 67.5 28.5t27.5 70.5q0 21 -7 39t-20 31.5t-30 21t-37 7.5q-40 0 -67.5 -28.5
t-27.5 -70.5q0 -21 7 -39t20 -31.5t30 -21t37 -7.5z" />
    <glyph glyph-name="plusminus" unicode="&#xb1;" horiz-adv-x="542" 
d="M33 422h210v206h56v-206h210v-55h-209v-206h-56v206h-211v55zM34 96h475v-56h-475v56z" />
    <glyph glyph-name="twosuperior" unicode="&#xb2;" 
d="M255 378v52q12 3 24 3t24 -3v-96h-280q1 25 10.5 45.5t24 38t32.5 32.5t38 27q21 13 41.5 24.5t36 23.5t25.5 26t10 32q0 29 -19.5 43t-52.5 14q-39 0 -68 -16t-55 -40v55q7 5 18.5 12.5t28 14.5t37 12t44.5 5q55 0 89.5 -25.5t34.5 -71.5q0 -24 -9.5 -42t-25 -33
t-36.5 -28t-44 -26q-67 -39 -93 -79h165z" />
    <glyph glyph-name="threesuperior" unicode="&#xb3;" horiz-adv-x="395" 
d="M49 406q29 -16 57.5 -25.5t70.5 -9.5q38 0 64 16t26 46q0 19 -8.5 30.5t-22 17.5t-30.5 8t-35 2h-24q-3 12 -3 22t3 22h28q14 0 28 3t25.5 9.5t18.5 17.5t7 26q0 9 -3.5 17.5t-12 16t-23.5 12t-37 4.5q-37 0 -64.5 -13t-53.5 -30v48q14 12 47.5 24.5t75.5 12.5
q62 0 94 -26t32 -63q0 -32 -19 -50.5t-39 -26.5q37 -8 55 -29.5t18 -53.5q0 -20 -8.5 -39t-26.5 -34t-46.5 -24.5t-68.5 -9.5q-42 0 -73.5 9.5t-51.5 18.5v51z" />
    <glyph glyph-name="acute" unicode="&#xb4;" horiz-adv-x="334" 
d="M170 711h90l-126 -136h-59z" />
    <glyph glyph-name="mu" unicode="&#xb5;" horiz-adv-x="577" 
d="M96 -120v579h-71q-4 11 -4 24t4 24h134v-317q0 -33 4.5 -60.5t17 -47t34.5 -30.5t57 -11q27 0 53.5 9.5t46.5 31.5t32.5 58.5t12.5 89.5v229h-71q-4 11 -4 24t4 24h135v-459h70q4 -11 4 -24t-4 -24h-126v80q-21 -38 -59 -66.5t-98 -28.5q-41 0 -67 13t-42 33v-151h76
q4 -11 4 -24t-4 -24h-210q-4 11 -4 24t4 24h71z" />
    <glyph glyph-name="paragraph" unicode="&#xb6;" horiz-adv-x="664" 
d="M271 355q-50 0 -90 14.5t-68 39t-42.5 58t-14.5 72.5q0 98 59 144t162 46h244v-909h-61v860h-128v-860h-61v535z" />
    <glyph glyph-name="periodcentered" unicode="&#xb7;" horiz-adv-x="254" 
d="M128 371q-17 0 -31 14t-14 35t14 35t31 14t30.5 -14t13.5 -35t-13.5 -35t-30.5 -14z" />
    <glyph glyph-name="cedilla" unicode="&#xb8;" horiz-adv-x="327" 
d="M83 -159q14 -5 28 -9.5t32 -4.5q9 0 19 1.5t18.5 6t13.5 12.5t5 21q0 23 -16 30.5t-31 7.5q-7 0 -17 -1.5t-21 -6.5l-17 19l62 83h46l-48 -62q4 2 9.5 2h13.5q40 0 58.5 -22t18.5 -47q0 -36 -26.5 -60.5t-76.5 -24.5q-26 0 -48.5 7.5t-35.5 12.5z" />
    <glyph glyph-name="onesuperior" unicode="&#xb9;" 
d="M158 375v260h-78q-3 10 -3 20t3 21h132v-301h73q3 -11 3 -21t-3 -20h-205q-3 10 -3 20t3 21h78z" />
    <glyph glyph-name="ordmasculine" unicode="&#xba;" horiz-adv-x="372" 
d="M185 412q-39 0 -67.5 14.5t-46.5 38.5t-26.5 54t-8.5 61q0 30 8.5 60t26.5 54t46.5 38.5t67.5 14.5q40 0 68.5 -14.5t47 -38t27 -53.5t8.5 -61t-8.5 -61t-27 -54t-47 -38.5t-68.5 -14.5zM44 356h282v-46h-282v46zM185 456q31 0 50 13t30 32.5t15 40.5t4 38q0 16 -4 37.5
t-14.5 40.5t-30 32t-50.5 13q-30 0 -49.5 -13t-30 -32t-14.5 -40.5t-4 -37.5t4 -37.5t14.5 -40.5t29.5 -32.5t50 -13.5z" />
    <glyph glyph-name="guillemotright" unicode="&#xbb;" horiz-adv-x="469" 
d="M170 253l-142 225h69l141 -225l-141 -225h-69zM373 253l-142 225h69l141 -225l-141 -225h-69z" />
    <glyph glyph-name="onequarter" unicode="&#xbc;" horiz-adv-x="904" 
d="M190 375v260h-78q-3 10 -3 20t3 21h132v-301h73q3 -11 3 -21t-3 -20h-205q-3 10 -3 20t3 21h78zM685 118v157l-132 -157h132zM503 123l185 215h50v-220h55q3 -11 3 -20q0 -10 -3 -20h-55v-85h-53v85h-182v45zM626 683h60l-402 -699h-60z" />
    <glyph glyph-name="onehalf" unicode="&#xbd;" horiz-adv-x="904" 
d="M158 375v260h-78q-3 10 -3 20t3 21h132v-301h73q3 -11 3 -21t-3 -20h-205q-3 10 -3 20t3 21h78zM586 683h60l-402 -699h-60zM750 37v52q12 3 24 3t24 -3v-96h-280q1 25 10.5 45.5t24 38t32.5 32.5t38 27q21 13 41.5 24.5t36 23.5t25.5 26t10 32q0 29 -19.5 43t-52.5 14
q-39 0 -68 -16t-55 -40v55q7 5 18.5 12.5t28 14.5t37 12t44.5 5q55 0 89.5 -25.5t34.5 -71.5q0 -24 -9.5 -42t-25 -33t-36.5 -28t-44 -26q-67 -39 -93 -79h165z" />
    <glyph glyph-name="threequarters" unicode="&#xbe;" horiz-adv-x="904" 
d="M102 406q29 -16 57.5 -25.5t70.5 -9.5q38 0 64 16t26 46q0 19 -8.5 30.5t-22 17.5t-30.5 8t-35 2h-24q-3 12 -3 22t3 22h28q14 0 28 3t25.5 9.5t18.5 17.5t7 26q0 9 -3.5 17.5t-12 16t-23.5 12t-37 4.5q-37 0 -64.5 -13t-53.5 -30v48q14 12 47.5 24.5t75.5 12.5
q62 0 94 -26t32 -63q0 -32 -19 -50.5t-39 -26.5q37 -8 55 -29.5t18 -53.5q0 -20 -8.5 -39t-26.5 -34t-46.5 -24.5t-68.5 -9.5q-42 0 -73.5 9.5t-51.5 18.5v51zM632 683h60l-402 -699h-60zM691 118v157l-132 -157h132zM509 123l185 215h50v-220h55q3 -11 3 -20q0 -10 -3 -20
h-55v-85h-53v85h-182v45z" />
    <glyph glyph-name="questiondown" unicode="&#xbf;" horiz-adv-x="524" 
d="M288 403q-22 0 -36.5 17.5t-14.5 42.5q0 24 14.5 41t36.5 17t36.5 -17t14.5 -41q0 -25 -14.5 -42.5t-36.5 -17.5zM463 -107q-15 -12 -34.5 -25t-44.5 -23.5t-55.5 -17.5t-65.5 -7q-42 0 -77.5 12.5t-61 35t-39.5 53t-14 66.5q0 54 25 97t72 89q25 25 42.5 44.5t28 38
t15 40t5.5 51.5h61q0 -32 -4.5 -56.5t-14.5 -46.5t-26.5 -43t-41.5 -47l-31.5 -31.5t-28.5 -32.5q-14 -19 -23.5 -40.5t-9.5 -50.5q0 -24 8 -46.5t25 -39t43 -26.5t62 -10q28 0 55 7.5t51 19.5t44 26.5t35 28.5v-66z" />
    <glyph glyph-name="Agrave" unicode="&#xc0;" horiz-adv-x="716" 
d="M483 295l-124 378l-132 -378h256zM81 52l245 686h76l231 -686h68q4 -12 4 -26t-4 -26h-230q-4 12 -4 26t4 26h92l-61 187h-295l-65 -187h90q4 -12 4 -26t-4 -26h-218q-4 12 -4 26t4 26h67zM219 923h89l96 -136h-58z" />
    <glyph glyph-name="Aacute" unicode="&#xc1;" horiz-adv-x="716" 
d="M483 295l-124 378l-132 -378h256zM81 52l245 686h76l231 -686h68q4 -12 4 -26t-4 -26h-230q-4 12 -4 26t4 26h92l-61 187h-295l-65 -187h90q4 -12 4 -26t-4 -26h-218q-4 12 -4 26t4 26h67zM425 923h90l-126 -136h-59z" />
    <glyph glyph-name="Acircumflex" unicode="&#xc2;" horiz-adv-x="716" 
d="M483 295l-124 378l-132 -378h256zM81 52l245 686h76l231 -686h68q4 -12 4 -26t-4 -26h-230q-4 12 -4 26t4 26h92l-61 187h-295l-65 -187h90q4 -12 4 -26t-4 -26h-218q-4 12 -4 26t4 26h67zM330 923h67l102 -136h-62l-73 94l-73 -94h-62z" />
    <glyph glyph-name="Atilde" unicode="&#xc3;" horiz-adv-x="716" 
d="M483 295l-124 378l-132 -378h256zM81 52l245 686h76l231 -686h68q4 -12 4 -26t-4 -26h-230q-4 12 -4 26t4 26h92l-61 187h-295l-65 -187h90q4 -12 4 -26t-4 -26h-218q-4 12 -4 26t4 26h67zM186 807q8 44 31.5 72.5t68.5 28.5q29 0 48 -9t38 -17q22 -9 35 -14.5t27 -5.5
q23 0 32.5 17t14.5 32h47q-8 -45 -31 -73t-68 -28q-23 0 -43.5 8.5t-43.5 19.5q-13 5 -21 8.5t-14.5 5.5t-12.5 3t-14 1q-11 0 -19 -5.5t-13.5 -13t-9 -16t-5.5 -14.5h-47z" />
    <glyph glyph-name="Adieresis" unicode="&#xc4;" horiz-adv-x="716" 
d="M483 295l-124 378l-132 -378h256zM81 52l245 686h76l231 -686h68q4 -12 4 -26t-4 -26h-230q-4 12 -4 26t4 26h92l-61 187h-295l-65 -187h90q4 -12 4 -26t-4 -26h-218q-4 12 -4 26t4 26h67zM449 801q-17 0 -30.5 14t-13.5 35t13.5 35t30.5 14t31 -14t14 -35t-14 -35
t-31 -14zM276 801q-17 0 -31 14t-14 35t14 35t31 14t30.5 -14t13.5 -35t-13.5 -35t-30.5 -14z" />
    <glyph glyph-name="Aring" unicode="&#xc5;" horiz-adv-x="716" 
d="M81 52l236 662q-25 13 -40.5 37.5t-15.5 54.5q0 21 8 40t22.5 33.5t33.5 22.5t40 8t40.5 -8t33.5 -22.5t22.5 -33.5t8.5 -40q0 -31 -17 -56t-43 -38l223 -660h68q4 -12 4 -26t-4 -26h-230q-4 12 -4 26t4 26h92l-61 187h-295l-65 -187h90q4 -12 4 -26t-4 -26h-218
q-4 12 -4 26t4 26h67zM483 295l-124 378l-132 -378h256zM432 806q0 26 -20 46.5t-46 20.5q-27 0 -47 -20t-20 -47q0 -26 20 -46.5t46 -20.5q27 0 47 20t20 47z" />
    <glyph glyph-name="AE" unicode="&#xc6;" horiz-adv-x="991" 
d="M503 305v368h-61l-182 -368h243zM72 52l311 625h-85q-4 12 -4 26t4 26h629v-199q-13 -4 -30 -4q-16 0 -29 4v142h-298v-268h280q4 -13 4 -28q0 -16 -4 -29h-280v-290h304v143q13 4 29 4q17 0 30 -4v-200h-508q-2 6 -3 12t-1 14q0 14 4 26h78v199h-269l-99 -199h89
q4 -12 4 -26t-4 -26h-218q-4 12 -4 26t4 26h66z" />
    <glyph glyph-name="Ccedilla" unicode="&#xc7;" horiz-adv-x="704" 
d="M283 -159q14 -5 28 -9.5t32 -4.5q9 0 19 1.5t18.5 6t13.5 12.5t5 21q0 23 -16 30.5t-31 7.5q-7 0 -17 -1.5t-21 -6.5l-17 19l50 68q-73 7 -127.5 39t-90.5 81.5t-54 114t-18 137.5q0 75 20.5 145.5t60.5 125t99.5 87t138.5 32.5q57 0 109 -21t89 -69v72q13 4 28 4
q16 0 29 -4v-268q-13 -4 -30 -4t-30 4v41q0 39 -12.5 73t-37 59.5t-61 40t-84.5 14.5q-67 0 -113.5 -31.5t-76 -79.5t-43 -106t-13.5 -112q0 -83 22 -143t58.5 -98.5t84.5 -57t99 -18.5q44 0 81 11t66.5 27.5t52 35.5t37.5 34v-80q-14 -13 -37 -28.5t-53.5 -29t-67.5 -22.5
t-80 -9h-2l-34 -43q4 1 9.5 1h13.5q40 0 58.5 -22t18.5 -47q0 -36 -26.5 -60.5t-76.5 -24.5q-26 0 -48.5 7.5t-35.5 12.5z" />
    <glyph glyph-name="Egrave" unicode="&#xc8;" horiz-adv-x="628" 
d="M114 52v625h-78q-4 12 -4 26t4 26h529v-199q-13 -4 -30 -4q-16 0 -29 4v142h-324v-268h306q4 -13 4 -28q0 -16 -4 -29h-306v-290h330v143q13 4 29 4q17 0 30 -4v-200h-535q-4 12 -4 26t4 26h78zM194 923h89l96 -136h-58z" />
    <glyph glyph-name="Eacute" unicode="&#xc9;" horiz-adv-x="628" 
d="M114 52v625h-78q-4 12 -4 26t4 26h529v-199q-13 -4 -30 -4q-16 0 -29 4v142h-324v-268h306q4 -13 4 -28q0 -16 -4 -29h-306v-290h330v143q13 4 29 4q17 0 30 -4v-200h-535q-4 12 -4 26t4 26h78zM364 923h90l-126 -136h-59z" />
    <glyph glyph-name="Ecircumflex" unicode="&#xca;" horiz-adv-x="628" 
d="M114 52v625h-78q-4 12 -4 26t4 26h529v-199q-13 -4 -30 -4q-16 0 -29 4v142h-324v-268h306q4 -13 4 -28q0 -16 -4 -29h-306v-290h330v143q13 4 29 4q17 0 30 -4v-200h-535q-4 12 -4 26t4 26h78zM289 923h67l102 -136h-62l-73 94l-73 -94h-62z" />
    <glyph glyph-name="Edieresis" unicode="&#xcb;" horiz-adv-x="628" 
d="M114 52v625h-78q-4 12 -4 26t4 26h529v-199q-13 -4 -30 -4q-16 0 -29 4v142h-324v-268h306q4 -13 4 -28q0 -16 -4 -29h-306v-290h330v143q13 4 29 4q17 0 30 -4v-200h-535q-4 12 -4 26t4 26h78zM407 801q-17 0 -30.5 14t-13.5 35t13.5 35t30.5 14t31 -14t14 -35t-14 -35
t-31 -14zM234 801q-17 0 -31 14t-14 35t14 35t31 14t30.5 -14t13.5 -35t-13.5 -35t-30.5 -14z" />
    <glyph glyph-name="Igrave" unicode="&#xcc;" horiz-adv-x="313" 
d="M122 52v625h-78q-4 12 -4 26t4 26h224q4 -12 4 -26t-4 -26h-78v-625h78q4 -12 4 -26t-4 -26h-224q-4 12 -4 26t4 26h78zM20 923h89l96 -136h-58z" />
    <glyph glyph-name="Iacute" unicode="&#xcd;" horiz-adv-x="313" 
d="M122 52v625h-78q-4 12 -4 26t4 26h224q4 -12 4 -26t-4 -26h-78v-625h78q4 -12 4 -26t-4 -26h-224q-4 12 -4 26t4 26h78zM205 923h90l-126 -136h-59z" />
    <glyph glyph-name="Icircumflex" unicode="&#xce;" horiz-adv-x="313" 
d="M122 52v625h-78q-4 12 -4 26t4 26h224q4 -12 4 -26t-4 -26h-78v-625h78q4 -12 4 -26t-4 -26h-224q-4 12 -4 26t4 26h78zM125 923h67l102 -136h-62l-73 94l-73 -94h-62z" />
    <glyph glyph-name="Idieresis" unicode="&#xcf;" horiz-adv-x="313" 
d="M122 52v625h-78q-4 12 -4 26t4 26h224q4 -12 4 -26t-4 -26h-78v-625h78q4 -12 4 -26t-4 -26h-224q-4 12 -4 26t4 26h78zM245 801q-17 0 -30.5 14t-13.5 35t13.5 35t30.5 14t31 -14t14 -35t-14 -35t-31 -14zM72 801q-17 0 -31 14t-14 35t14 35t31 14t30.5 -14t13.5 -35
t-13.5 -35t-30.5 -14z" />
    <glyph glyph-name="Eth" unicode="&#xd0;" horiz-adv-x="722" 
d="M114 52v297h-82v53h82v275h-78q-4 12 -4 26t4 26h309q57 0 94 -8.5t66 -23.5q78 -42 119 -126.5t41 -195.5q0 -43 -7 -89.5t-22.5 -90.5t-41 -82.5t-62.5 -65.5q-30 -22 -72 -34.5t-112 -12.5h-312q-4 12 -4 26t4 26h78zM348 57q54 0 86.5 11t57.5 32q48 39 74 108
t26 160q0 100 -33.5 171.5t-95.5 105.5q-24 13 -55 20t-83 7h-143v-270h171v-53h-171v-292h166z" />
    <glyph glyph-name="Ntilde" unicode="&#xd1;" horiz-adv-x="739" 
d="M114 52v625h-78q-4 12 -4 26t4 26h171l360 -644v592h-81q-4 12 -4 26t4 26h221q4 -12 4 -26t-4 -26h-78v-686h-78l-376 676v-615h80q4 -12 4 -26t-4 -26h-219q-4 12 -4 26t4 26h78zM205 807q8 44 31.5 72.5t68.5 28.5q29 0 48 -9t38 -17q22 -9 35 -14.5t27 -5.5
q23 0 32.5 17t14.5 32h47q-8 -45 -31 -73t-68 -28q-23 0 -43.5 8.5t-43.5 19.5q-13 5 -21 8.5t-14.5 5.5t-12.5 3t-14 1q-11 0 -19 -5.5t-13.5 -13t-9 -16t-5.5 -14.5h-47z" />
    <glyph glyph-name="Ograve" unicode="&#xd2;" horiz-adv-x="780" 
d="M390 -18q-95 0 -159 36t-102.5 91.5t-55 123.5t-16.5 131t16.5 131t55 124t102.5 92t159 36t159 -36t102.5 -92t55 -124t16.5 -131t-16.5 -131t-55 -123.5t-102.5 -91.5t-159 -36zM390 38q57 0 105 23t82.5 65t53.5 102.5t19 135.5t-19 135.5t-53.5 103t-82.5 65.5
t-105 23t-105 -23t-82.5 -65.5t-53.5 -103t-19 -135.5t19 -135.5t53.5 -102.5t82.5 -65t105 -23zM266 923h89l96 -136h-58z" />
    <glyph glyph-name="Oacute" unicode="&#xd3;" horiz-adv-x="780" 
d="M390 -18q-95 0 -159 36t-102.5 91.5t-55 123.5t-16.5 131t16.5 131t55 124t102.5 92t159 36t159 -36t102.5 -92t55 -124t16.5 -131t-16.5 -131t-55 -123.5t-102.5 -91.5t-159 -36zM390 38q57 0 105 23t82.5 65t53.5 102.5t19 135.5t-19 135.5t-53.5 103t-82.5 65.5
t-105 23t-105 -23t-82.5 -65.5t-53.5 -103t-19 -135.5t19 -135.5t53.5 -102.5t82.5 -65t105 -23zM430 923h90l-126 -136h-59z" />
    <glyph glyph-name="Ocircumflex" unicode="&#xd4;" horiz-adv-x="780" 
d="M390 -18q-95 0 -159 36t-102.5 91.5t-55 123.5t-16.5 131t16.5 131t55 124t102.5 92t159 36t159 -36t102.5 -92t55 -124t16.5 -131t-16.5 -131t-55 -123.5t-102.5 -91.5t-159 -36zM390 38q57 0 105 23t82.5 65t53.5 102.5t19 135.5t-19 135.5t-53.5 103t-82.5 65.5
t-105 23t-105 -23t-82.5 -65.5t-53.5 -103t-19 -135.5t19 -135.5t53.5 -102.5t82.5 -65t105 -23zM354 923h67l102 -136h-62l-73 94l-73 -94h-62z" />
    <glyph glyph-name="Otilde" unicode="&#xd5;" horiz-adv-x="780" 
d="M390 -18q-95 0 -159 36t-102.5 91.5t-55 123.5t-16.5 131t16.5 131t55 124t102.5 92t159 36t159 -36t102.5 -92t55 -124t16.5 -131t-16.5 -131t-55 -123.5t-102.5 -91.5t-159 -36zM390 38q57 0 105 23t82.5 65t53.5 102.5t19 135.5t-19 135.5t-53.5 103t-82.5 65.5
t-105 23t-105 -23t-82.5 -65.5t-53.5 -103t-19 -135.5t19 -135.5t53.5 -102.5t82.5 -65t105 -23zM222 807q8 44 31.5 72.5t68.5 28.5q29 0 48 -9t38 -17q22 -9 35 -14.5t27 -5.5q23 0 32.5 17t14.5 32h47q-8 -45 -31 -73t-68 -28q-23 0 -43.5 8.5t-43.5 19.5q-13 5 -21 8.5
t-14.5 5.5t-12.5 3t-14 1q-11 0 -19 -5.5t-13.5 -13t-9 -16t-5.5 -14.5h-47z" />
    <glyph glyph-name="Odieresis" unicode="&#xd6;" horiz-adv-x="780" 
d="M390 -18q-95 0 -159 36t-102.5 91.5t-55 123.5t-16.5 131t16.5 131t55 124t102.5 92t159 36t159 -36t102.5 -92t55 -124t16.5 -131t-16.5 -131t-55 -123.5t-102.5 -91.5t-159 -36zM390 38q57 0 105 23t82.5 65t53.5 102.5t19 135.5t-19 135.5t-53.5 103t-82.5 65.5
t-105 23t-105 -23t-82.5 -65.5t-53.5 -103t-19 -135.5t19 -135.5t53.5 -102.5t82.5 -65t105 -23zM486 801q-17 0 -30.5 14t-13.5 35t13.5 35t30.5 14t31 -14t14 -35t-14 -35t-31 -14zM313 801q-17 0 -31 14t-14 35t14 35t31 14t30.5 -14t13.5 -35t-13.5 -35t-30.5 -14z" />
    <glyph glyph-name="multiply" unicode="&#xd7;" horiz-adv-x="542" 
d="M232 335l-152 151l40 40l151 -151l151 151l39 -38l-151 -151l151 -151l-40 -40l-151 151l-151 -151l-39 38z" />
    <glyph glyph-name="Oslash" unicode="&#xd8;" horiz-adv-x="780" 
d="M127 112q-38 56 -54 122.5t-16 129.5t16.5 131t55 124t102.5 92t159 36q77 0 132.5 -24t94.5 -63l80 90l42 -40l-85 -95q38 -56 53.5 -122t15.5 -129t-16.5 -131t-55 -123.5t-102.5 -91.5t-159 -36q-76 0 -131.5 23.5t-94.5 61.5l-79 -89l-42 40zM571 609q-34 40 -80 61
t-101 21q-57 0 -105 -23t-82.5 -65.5t-53.5 -103t-19 -135.5q0 -59 11.5 -108.5t33.5 -89.5zM209 117q35 -38 80.5 -58.5t100.5 -20.5q57 0 105 23t82.5 65t53.5 102.5t19 135.5q0 58 -11.5 107.5t-33.5 88.5z" />
    <glyph glyph-name="Ugrave" unicode="&#xd9;" horiz-adv-x="742" 
d="M108 677h-78q-4 12 -4 26t4 26h224q4 -12 4 -26t-4 -26h-78v-424q0 -61 17 -101.5t44.5 -65t62.5 -34.5t71 -10q39 0 74.5 10t62.5 33.5t43.5 62.5t16.5 98v431h-78q-4 12 -4 26t4 26h221q4 -12 4 -26t-4 -26h-78v-436q0 -53 -15 -100t-46.5 -82.5t-80.5 -56t-118 -20.5
t-119 20t-82.5 56t-48 86.5t-15.5 110.5v422zM240 923h89l96 -136h-58z" />
    <glyph glyph-name="Uacute" unicode="&#xda;" horiz-adv-x="742" 
d="M108 677h-78q-4 12 -4 26t4 26h224q4 -12 4 -26t-4 -26h-78v-424q0 -61 17 -101.5t44.5 -65t62.5 -34.5t71 -10q39 0 74.5 10t62.5 33.5t43.5 62.5t16.5 98v431h-78q-4 12 -4 26t4 26h221q4 -12 4 -26t-4 -26h-78v-436q0 -53 -15 -100t-46.5 -82.5t-80.5 -56t-118 -20.5
t-119 20t-82.5 56t-48 86.5t-15.5 110.5v422zM430 923h90l-126 -136h-59z" />
    <glyph glyph-name="Ucircumflex" unicode="&#xdb;" horiz-adv-x="742" 
d="M108 677h-78q-4 12 -4 26t4 26h224q4 -12 4 -26t-4 -26h-78v-424q0 -61 17 -101.5t44.5 -65t62.5 -34.5t71 -10q39 0 74.5 10t62.5 33.5t43.5 62.5t16.5 98v431h-78q-4 12 -4 26t4 26h221q4 -12 4 -26t-4 -26h-78v-436q0 -53 -15 -100t-46.5 -82.5t-80.5 -56t-118 -20.5
t-119 20t-82.5 56t-48 86.5t-15.5 110.5v422zM333 923h67l102 -136h-62l-73 94l-73 -94h-62z" />
    <glyph glyph-name="Udieresis" unicode="&#xdc;" horiz-adv-x="742" 
d="M108 677h-78q-4 12 -4 26t4 26h224q4 -12 4 -26t-4 -26h-78v-424q0 -61 17 -101.5t44.5 -65t62.5 -34.5t71 -10q39 0 74.5 10t62.5 33.5t43.5 62.5t16.5 98v431h-78q-4 12 -4 26t4 26h221q4 -12 4 -26t-4 -26h-78v-436q0 -53 -15 -100t-46.5 -82.5t-80.5 -56t-118 -20.5
t-119 20t-82.5 56t-48 86.5t-15.5 110.5v422zM453 801q-17 0 -30.5 14t-13.5 35t13.5 35t30.5 14t31 -14t14 -35t-14 -35t-31 -14zM280 801q-17 0 -31 14t-14 35t14 35t31 14t30.5 -14t13.5 -35t-13.5 -35t-30.5 -14z" />
    <glyph glyph-name="Yacute" unicode="&#xdd;" horiz-adv-x="711" 
d="M317 52v242l-246 383h-57q-4 12 -4 26t4 26h231q4 -12 4 -26t-4 -26h-100l211 -329l215 329h-97q-4 12 -4 26t4 26h222q4 -12 4 -26t-4 -26h-57l-255 -384v-241h83q4 -12 4 -26t-4 -26h-233q-4 12 -4 26t4 26h83zM408 923h90l-126 -136h-59z" />
    <glyph glyph-name="Thorn" unicode="&#xde;" horiz-adv-x="621" 
d="M362 221q69 0 111.5 35.5t42.5 113.5q0 75 -41 110.5t-109 35.5h-185v-295h181zM114 52v625h-78q-4 12 -4 26t4 26h233q4 -12 4 -26t-4 -26h-88v-105h210q47 0 84 -16t62 -43t38 -63.5t13 -77.5q0 -36 -10.5 -73t-33.5 -66.5t-61 -48t-92 -18.5h-210v-114h88q4 -12 4 -26
t-4 -26h-233q-4 12 -4 26t4 26h78z" />
    <glyph glyph-name="germandbls" unicode="&#xdf;" horiz-adv-x="607" 
d="M101 48v488q0 49 13.5 91.5t41 73.5t69.5 49t99 18q50 0 88.5 -14.5t64 -39.5t38.5 -58t13 -70q0 -36 -8.5 -64t-23 -49t-34 -35t-41.5 -22q69 -20 107 -71.5t38 -141.5q0 -54 -16.5 -95t-44 -68.5t-63 -41t-72.5 -13.5q-38 0 -66 5.5t-47 11.5v62q26 -11 53 -16.5
t52 -5.5q60 0 98.5 42.5t38.5 124.5q0 44 -13 77t-36.5 55t-56 33t-71.5 11h-33q-4 12 -4 26t4 26h18q44 0 74 11t48 30.5t26 46.5t8 59q0 27 -8 50.5t-25.5 41.5t-44.5 28.5t-65 10.5q-48 0 -78 -18t-46.5 -47.5t-22.5 -67.5t-6 -79v-503h-142q-4 11 -4 24t4 24h76z" />
    <glyph glyph-name="agrave" unicode="&#xe0;" horiz-adv-x="525" 
d="M369 266l-134 -14q-66 -8 -100.5 -33.5t-34.5 -86.5q0 -45 30 -70t81 -25q28 0 56 8.5t50.5 26t37 43t14.5 58.5v93zM372 70q-23 -34 -63 -59t-113 -25q-72 0 -116 38.5t-44 107.5q0 33 9 61t30 50t55 37t84 20l155 16v24q0 31 -6 54.5t-20.5 40t-39.5 25t-63 8.5
q-26 0 -49 -6t-43 -14.5t-37 -19t-29 -19.5v61q10 7 26 16t37.5 16.5t49.5 13t62 5.5q24 0 54.5 -5t57.5 -22t45.5 -50t18.5 -90v-306h67q4 -11 4 -24t-4 -24h-128v70zM137 711h89l96 -136h-58z" />
    <glyph glyph-name="aacute" unicode="&#xe1;" horiz-adv-x="525" 
d="M369 266l-134 -14q-66 -8 -100.5 -33.5t-34.5 -86.5q0 -45 30 -70t81 -25q28 0 56 8.5t50.5 26t37 43t14.5 58.5v93zM372 70q-23 -34 -63 -59t-113 -25q-72 0 -116 38.5t-44 107.5q0 33 9 61t30 50t55 37t84 20l155 16v24q0 31 -6 54.5t-20.5 40t-39.5 25t-63 8.5
q-26 0 -49 -6t-43 -14.5t-37 -19t-29 -19.5v61q10 7 26 16t37.5 16.5t49.5 13t62 5.5q24 0 54.5 -5t57.5 -22t45.5 -50t18.5 -90v-306h67q4 -11 4 -24t-4 -24h-128v70zM290 711h90l-126 -136h-59z" />
    <glyph glyph-name="acircumflex" unicode="&#xe2;" horiz-adv-x="525" 
d="M369 266l-134 -14q-66 -8 -100.5 -33.5t-34.5 -86.5q0 -45 30 -70t81 -25q28 0 56 8.5t50.5 26t37 43t14.5 58.5v93zM372 70q-23 -34 -63 -59t-113 -25q-72 0 -116 38.5t-44 107.5q0 33 9 61t30 50t55 37t84 20l155 16v24q0 31 -6 54.5t-20.5 40t-39.5 25t-63 8.5
q-26 0 -49 -6t-43 -14.5t-37 -19t-29 -19.5v61q10 7 26 16t37.5 16.5t49.5 13t62 5.5q24 0 54.5 -5t57.5 -22t45.5 -50t18.5 -90v-306h67q4 -11 4 -24t-4 -24h-128v70zM217 711h67l102 -136h-62l-73 94l-73 -94h-62z" />
    <glyph glyph-name="atilde" unicode="&#xe3;" horiz-adv-x="525" 
d="M369 266l-134 -14q-66 -8 -100.5 -33.5t-34.5 -86.5q0 -45 30 -70t81 -25q28 0 56 8.5t50.5 26t37 43t14.5 58.5v93zM372 70q-23 -34 -63 -59t-113 -25q-72 0 -116 38.5t-44 107.5q0 33 9 61t30 50t55 37t84 20l155 16v24q0 31 -6 54.5t-20.5 40t-39.5 25t-63 8.5
q-26 0 -49 -6t-43 -14.5t-37 -19t-29 -19.5v61q10 7 26 16t37.5 16.5t49.5 13t62 5.5q24 0 54.5 -5t57.5 -22t45.5 -50t18.5 -90v-306h67q4 -11 4 -24t-4 -24h-128v70zM81 595q8 44 31.5 72.5t68.5 28.5q29 0 48 -9t38 -17q22 -9 35 -14.5t27 -5.5q23 0 32.5 17t14.5 32h47
q-8 -45 -31 -73t-68 -28q-23 0 -43.5 8.5t-43.5 19.5q-13 5 -21 8.5t-14.5 5.5t-12.5 3t-14 1q-11 0 -19 -5.5t-13.5 -13t-9 -16t-5.5 -14.5h-47z" />
    <glyph glyph-name="adieresis" unicode="&#xe4;" horiz-adv-x="525" 
d="M369 266l-134 -14q-66 -8 -100.5 -33.5t-34.5 -86.5q0 -45 30 -70t81 -25q28 0 56 8.5t50.5 26t37 43t14.5 58.5v93zM372 70q-23 -34 -63 -59t-113 -25q-72 0 -116 38.5t-44 107.5q0 33 9 61t30 50t55 37t84 20l155 16v24q0 31 -6 54.5t-20.5 40t-39.5 25t-63 8.5
q-26 0 -49 -6t-43 -14.5t-37 -19t-29 -19.5v61q10 7 26 16t37.5 16.5t49.5 13t62 5.5q24 0 54.5 -5t57.5 -22t45.5 -50t18.5 -90v-306h67q4 -11 4 -24t-4 -24h-128v70zM341 589q-17 0 -30.5 14t-13.5 35t13.5 35t30.5 14t31 -14t14 -35t-14 -35t-31 -14zM168 589
q-17 0 -31 14t-14 35t14 35t31 14t30.5 -14t13.5 -35t-13.5 -35t-30.5 -14z" />
    <glyph glyph-name="aring" unicode="&#xe5;" horiz-adv-x="525" 
d="M369 266l-134 -14q-66 -8 -100.5 -33.5t-34.5 -86.5q0 -45 30 -70t81 -25q28 0 56 8.5t50.5 26t37 43t14.5 58.5v93zM372 70q-23 -34 -63 -59t-113 -25q-72 0 -116 38.5t-44 107.5q0 33 9 61t30 50t55 37t84 20l155 16v24q0 31 -6 54.5t-20.5 40t-39.5 25t-63 8.5
q-26 0 -49 -6t-43 -14.5t-37 -19t-29 -19.5v61q10 7 26 16t37.5 16.5t49.5 13t62 5.5q24 0 54.5 -5t57.5 -22t45.5 -50t18.5 -90v-306h67q4 -11 4 -24t-4 -24h-128v70zM155 677q0 21 8 40t22.5 33.5t33.5 22.5t40 8t40.5 -8t33.5 -22.5t22.5 -33.5t8.5 -40t-8 -40
t-22.5 -33.5t-33.5 -22.5t-40 -8t-40.5 8t-33.5 22.5t-22.5 33.5t-8.5 40zM326 677q0 26 -20 46.5t-46 20.5q-27 0 -47 -20t-20 -47q0 -26 20 -46.5t46 -20.5q27 0 46.5 20t19.5 47h1z" />
    <glyph glyph-name="ae" unicode="&#xe6;" horiz-adv-x="821" 
d="M82 470q10 7 26 16t37.5 16.5t49.5 13t62 5.5q18 0 40.5 -3t44.5 -12.5t41.5 -27t31.5 -45.5q26 40 65.5 64t96.5 24q58 0 97.5 -22.5t63.5 -60t34.5 -86t10.5 -101.5v-7h-351q1 -42 13 -78.5t34 -64t54.5 -43t75.5 -15.5q52 0 87 15.5t63 33.5v-66q-26 -14 -65.5 -27
t-83.5 -13q-78 0 -127 31t-77 81q-25 -48 -74.5 -80t-129.5 -32q-77 0 -121.5 37.5t-44.5 106.5q0 32 9.5 61t31.5 51t57 36.5t85 18.5l150 11v32q0 30 -6 53.5t-20.5 40t-39.5 25.5t-63 9q-26 0 -49 -6t-43 -14.5t-37 -19t-29 -19.5v61zM714 293q0 27 -6 57.5t-21 56.5
t-42 43.5t-70 17.5q-39 0 -66.5 -18.5t-44 -45.5t-24 -57t-7.5 -54h281zM369 259l-125 -9q-75 -6 -109.5 -32.5t-34.5 -83.5q0 -48 31.5 -72.5t82.5 -24.5q28 0 56 8.5t50 26t35.5 43t13.5 58.5v86z" />
    <glyph glyph-name="ccedilla" unicode="&#xe7;" horiz-adv-x="489" 
d="M168 -159q14 -5 28 -9.5t32 -4.5q9 0 19 1.5t18.5 6t13.5 12.5t5 21q0 23 -16 30.5t-31 7.5q-7 0 -17 -1.5t-21 -6.5l-17 19l53 72q-47 6 -83.5 28.5t-61 56.5t-37 77.5t-12.5 91.5q0 57 13.5 107t40.5 87t68 58.5t97 21.5q43 0 78.5 -17.5t52.5 -46.5v53q6 2 13 3t13 1
q14 0 25 -4v-198q-12 -4 -27 -4t-27 4v20q0 63 -31.5 99.5t-91.5 36.5q-48 0 -78.5 -20.5t-48 -52.5t-24 -70.5t-6.5 -74.5q0 -50 13 -87.5t36 -63t54.5 -38.5t68.5 -13q27 0 50.5 6t43.5 15.5t36.5 21t28.5 21.5v-69q-11 -8 -26 -16.5t-35 -16.5t-44.5 -13.5t-54.5 -6.5
l-37 -47q4 1 9.5 1h13.5q40 0 58.5 -22t18.5 -47q0 -36 -26.5 -60.5t-76.5 -24.5q-26 0 -48.5 7.5t-35.5 12.5z" />
    <glyph glyph-name="egrave" unicode="&#xe8;" horiz-adv-x="498" 
d="M436 26q-26 -14 -65.5 -27t-83.5 -13q-66 0 -112.5 22t-76 59.5t-43.5 85.5t-14 101t12.5 101.5t38.5 85t66 58.5t95 22q58 0 97.5 -21.5t64 -58t35 -84.5t10.5 -100v-20h-351q2 -39 14 -74.5t33.5 -62t54 -42t74.5 -15.5q53 0 87.5 15.5t63.5 33.5v-66zM390 286
q0 29 -5.5 61t-20.5 59t-42 44.5t-70 17.5q-40 0 -67 -18.5t-44 -46t-24.5 -59.5t-7.5 -58h281zM144 711h89l96 -136h-58z" />
    <glyph glyph-name="eacute" unicode="&#xe9;" horiz-adv-x="498" 
d="M436 26q-26 -14 -65.5 -27t-83.5 -13q-66 0 -112.5 22t-76 59.5t-43.5 85.5t-14 101t12.5 101.5t38.5 85t66 58.5t95 22q58 0 97.5 -21.5t64 -58t35 -84.5t10.5 -100v-20h-351q2 -39 14 -74.5t33.5 -62t54 -42t74.5 -15.5q53 0 87.5 15.5t63.5 33.5v-66zM390 286
q0 29 -5.5 61t-20.5 59t-42 44.5t-70 17.5q-40 0 -67 -18.5t-44 -46t-24.5 -59.5t-7.5 -58h281zM320 711h90l-126 -136h-59z" />
    <glyph glyph-name="ecircumflex" unicode="&#xea;" horiz-adv-x="498" 
d="M436 26q-26 -14 -65.5 -27t-83.5 -13q-66 0 -112.5 22t-76 59.5t-43.5 85.5t-14 101t12.5 101.5t38.5 85t66 58.5t95 22q58 0 97.5 -21.5t64 -58t35 -84.5t10.5 -100v-20h-351q2 -39 14 -74.5t33.5 -62t54 -42t74.5 -15.5q53 0 87.5 15.5t63.5 33.5v-66zM390 286
q0 29 -5.5 61t-20.5 59t-42 44.5t-70 17.5q-40 0 -67 -18.5t-44 -46t-24.5 -59.5t-7.5 -58h281zM231 711h67l102 -136h-62l-73 94l-73 -94h-62z" />
    <glyph glyph-name="edieresis" unicode="&#xeb;" horiz-adv-x="498" 
d="M436 26q-26 -14 -65.5 -27t-83.5 -13q-66 0 -112.5 22t-76 59.5t-43.5 85.5t-14 101t12.5 101.5t38.5 85t66 58.5t95 22q58 0 97.5 -21.5t64 -58t35 -84.5t10.5 -100v-20h-351q2 -39 14 -74.5t33.5 -62t54 -42t74.5 -15.5q53 0 87.5 15.5t63.5 33.5v-66zM390 286
q0 29 -5.5 61t-20.5 59t-42 44.5t-70 17.5q-40 0 -67 -18.5t-44 -46t-24.5 -59.5t-7.5 -58h281zM347 589q-17 0 -30.5 14t-13.5 35t13.5 35t30.5 14t31 -14t14 -35t-14 -35t-31 -14zM174 589q-17 0 -31 14t-14 35t14 35t31 14t30.5 -14t13.5 -35t-13.5 -35t-30.5 -14z" />
    <glyph glyph-name="igrave" unicode="&#xec;" horiz-adv-x="277" 
d="M109 48v411h-71q-4 11 -4 24t4 24h135v-459h71q4 -11 4 -24t-4 -24h-206q-4 11 -4 24t4 24h71zM-19 711h89l96 -136h-58z" />
    <glyph glyph-name="iacute" unicode="&#xed;" horiz-adv-x="277" 
d="M109 48v411h-71q-4 11 -4 24t4 24h135v-459h71q4 -11 4 -24t-4 -24h-206q-4 11 -4 24t4 24h71zM177 711h90l-126 -136h-59z" />
    <glyph glyph-name="icircumflex" unicode="&#xee;" horiz-adv-x="277" 
d="M109 48v411h-71q-4 11 -4 24t4 24h135v-459h71q4 -11 4 -24t-4 -24h-206q-4 11 -4 24t4 24h71zM86 711h67l102 -136h-62l-73 94l-73 -94h-62z" />
    <glyph glyph-name="idieresis" unicode="&#xef;" horiz-adv-x="277" 
d="M109 48v411h-71q-4 11 -4 24t4 24h135v-459h71q4 -11 4 -24t-4 -24h-206q-4 11 -4 24t4 24h71zM205 589q-17 0 -30.5 14t-13.5 35t13.5 35t30.5 14t31 -14t14 -35t-14 -35t-31 -14zM32 589q-17 0 -31 14t-14 35t14 35t31 14t30.5 -14t13.5 -35t-13.5 -35t-30.5 -14z" />
    <glyph glyph-name="eth" unicode="&#xf0;" horiz-adv-x="540" 
d="M146 592l87 75q-24 17 -50 31t-55 25l21 45q69 -26 126 -65l76 65l28 -32l-69 -59q53 -42 89 -92t58.5 -102.5t32 -105t9.5 -100.5q0 -59 -13.5 -112t-42 -92.5t-71.5 -63t-102 -23.5t-102 23t-71.5 60.5t-42 84t-13.5 93.5q0 49 13.5 96t41 83.5t69.5 58.5t99 22
q41 0 78.5 -16.5t57.5 -43.5q-44 116 -132 193l-94 -80zM269 40q51 0 83 23.5t49.5 56.5t24 68.5t6.5 58.5q0 26 -6.5 61.5t-24 67.5t-49 54.5t-82.5 22.5t-82.5 -22.5t-49.5 -54.5t-24 -67.5t-6 -61.5q0 -23 6 -58.5t23.5 -68.5t49 -56.5t82.5 -23.5z" />
    <glyph glyph-name="ntilde" unicode="&#xf1;" horiz-adv-x="582" 
d="M101 48v411h-71q-4 11 -4 24t4 24h127v-80q21 38 61 66t106 28q78 0 120 -44t42 -132v-297h71q4 -11 4 -24t-4 -24h-201q-4 11 -4 24t4 24h66v269q0 33 -4.5 60.5t-16.5 47t-34 30.5t-57 11q-28 0 -54 -9.5t-46.5 -31.5t-32.5 -58.5t-12 -89.5v-229h66q4 -11 4 -24
t-4 -24h-201q-4 11 -4 24t4 24h71zM119 595q8 44 31.5 72.5t68.5 28.5q29 0 48 -9t38 -17q22 -9 35 -14.5t27 -5.5q23 0 32.5 17t14.5 32h47q-8 -45 -31 -73t-68 -28q-23 0 -43.5 8.5t-43.5 19.5q-13 5 -21 8.5t-14.5 5.5t-12.5 3t-14 1q-11 0 -19 -5.5t-13.5 -13t-9 -16
t-5.5 -14.5h-47z" />
    <glyph glyph-name="ograve" unicode="&#xf2;" horiz-adv-x="540" 
d="M270 -14q-59 0 -102 23t-71.5 60.5t-42 86t-13.5 98.5t13.5 98t41.5 85.5t71 60.5t102 23t102 -23t71.5 -60.5t42.5 -85.5t14 -98t-13.5 -98t-42 -86t-71.5 -61t-102 -23zM269 40q51 0 83 23.5t49.5 57t24 70.5t6.5 63t-6.5 62.5t-24 70t-49 57t-82.5 23.5t-82.5 -23.5
t-49.5 -57t-24 -70t-6 -62.5t6 -63t23.5 -70.5t49 -57t82.5 -23.5zM144 711h89l96 -136h-58z" />
    <glyph glyph-name="oacute" unicode="&#xf3;" horiz-adv-x="540" 
d="M270 -14q-59 0 -102 23t-71.5 60.5t-42 86t-13.5 98.5t13.5 98t41.5 85.5t71 60.5t102 23t102 -23t71.5 -60.5t42.5 -85.5t14 -98t-13.5 -98t-42 -86t-71.5 -61t-102 -23zM269 40q51 0 83 23.5t49.5 57t24 70.5t6.5 63t-6.5 62.5t-24 70t-49 57t-82.5 23.5t-82.5 -23.5
t-49.5 -57t-24 -70t-6 -62.5t6 -63t23.5 -70.5t49 -57t82.5 -23.5zM323 711h90l-126 -136h-59z" />
    <glyph glyph-name="ocircumflex" unicode="&#xf4;" horiz-adv-x="540" 
d="M270 -14q-59 0 -102 23t-71.5 60.5t-42 86t-13.5 98.5t13.5 98t41.5 85.5t71 60.5t102 23t102 -23t71.5 -60.5t42.5 -85.5t14 -98t-13.5 -98t-42 -86t-71.5 -61t-102 -23zM269 40q51 0 83 23.5t49.5 57t24 70.5t6.5 63t-6.5 62.5t-24 70t-49 57t-82.5 23.5t-82.5 -23.5
t-49.5 -57t-24 -70t-6 -62.5t6 -63t23.5 -70.5t49 -57t82.5 -23.5zM236 711h67l102 -136h-62l-73 94l-73 -94h-62z" />
    <glyph glyph-name="otilde" unicode="&#xf5;" horiz-adv-x="540" 
d="M270 -14q-59 0 -102 23t-71.5 60.5t-42 86t-13.5 98.5t13.5 98t41.5 85.5t71 60.5t102 23t102 -23t71.5 -60.5t42.5 -85.5t14 -98t-13.5 -98t-42 -86t-71.5 -61t-102 -23zM269 40q51 0 83 23.5t49.5 57t24 70.5t6.5 63t-6.5 62.5t-24 70t-49 57t-82.5 23.5t-82.5 -23.5
t-49.5 -57t-24 -70t-6 -62.5t6 -63t23.5 -70.5t49 -57t82.5 -23.5zM99 595q8 44 31.5 72.5t68.5 28.5q29 0 48 -9t38 -17q22 -9 35 -14.5t27 -5.5q23 0 32.5 17t14.5 32h47q-8 -45 -31 -73t-68 -28q-23 0 -43.5 8.5t-43.5 19.5q-13 5 -21 8.5t-14.5 5.5t-12.5 3t-14 1
q-11 0 -19 -5.5t-13.5 -13t-9 -16t-5.5 -14.5h-47z" />
    <glyph glyph-name="odieresis" unicode="&#xf6;" horiz-adv-x="540" 
d="M270 -14q-59 0 -102 23t-71.5 60.5t-42 86t-13.5 98.5t13.5 98t41.5 85.5t71 60.5t102 23t102 -23t71.5 -60.5t42.5 -85.5t14 -98t-13.5 -98t-42 -86t-71.5 -61t-102 -23zM269 40q51 0 83 23.5t49.5 57t24 70.5t6.5 63t-6.5 62.5t-24 70t-49 57t-82.5 23.5t-82.5 -23.5
t-49.5 -57t-24 -70t-6 -62.5t6 -63t23.5 -70.5t49 -57t82.5 -23.5zM355 589q-17 0 -30.5 14t-13.5 35t13.5 35t30.5 14t31 -14t14 -35t-14 -35t-31 -14zM182 589q-17 0 -31 14t-14 35t14 35t31 14t30.5 -14t13.5 -35t-13.5 -35t-30.5 -14z" />
    <glyph glyph-name="divide" unicode="&#xf7;" horiz-adv-x="542" 
d="M277 480q-23 0 -38.5 17t-15.5 42t15.5 42.5t38.5 17.5t39 -17.5t16 -42.5q0 -23 -16 -41t-39 -18zM33 363h475v-56h-475v56zM277 73q-23 0 -38.5 17t-15.5 42t15.5 42.5t38.5 17.5t39 -17.5t16 -42.5q0 -23 -16 -41t-39 -18z" />
    <glyph glyph-name="oslash" unicode="&#xf8;" horiz-adv-x="533" 
d="M89 75q-26 37 -38.5 83.5t-12.5 95.5q0 50 13.5 98t41.5 85.5t71 60.5t102 23q47 0 83.5 -14.5t63.5 -40.5l56 67l35 -30l-60 -72q26 -37 38.5 -83t12.5 -94q0 -50 -13.5 -98t-42 -86t-71.5 -61t-102 -23q-46 0 -82.5 14.5t-64.5 40.5l-56 -68l-35 30zM375 420
q-18 20 -44.5 33.5t-64.5 13.5q-51 0 -82.5 -23.5t-49 -57t-24 -70t-6.5 -62.5q0 -25 5.5 -59.5t22.5 -68.5zM158 87q18 -20 44.5 -33.5t63.5 -13.5q51 0 82.5 23.5t49.5 57t24.5 70.5t6.5 63q0 25 -6 59.5t-22 66.5z" />
    <glyph glyph-name="ugrave" unicode="&#xf9;" horiz-adv-x="577" 
d="M96 459h-71q-4 11 -4 24t4 24h134v-317q0 -33 4.5 -60.5t17 -47t34.5 -30.5t57 -11q27 0 53.5 9.5t46.5 31.5t32.5 58.5t12.5 89.5v229h-71q-4 11 -4 24t4 24h135v-459h70q4 -11 4 -24t-4 -24h-126v80q-11 -19 -26.5 -36.5t-35.5 -30.5t-46 -20.5t-59 -7.5q-78 0 -120 44
t-42 133v297zM139 711h89l96 -136h-58z" />
    <glyph glyph-name="uacute" unicode="&#xfa;" horiz-adv-x="577" 
d="M96 459h-71q-4 11 -4 24t4 24h134v-317q0 -33 4.5 -60.5t17 -47t34.5 -30.5t57 -11q27 0 53.5 9.5t46.5 31.5t32.5 58.5t12.5 89.5v229h-71q-4 11 -4 24t4 24h135v-459h70q4 -11 4 -24t-4 -24h-126v80q-11 -19 -26.5 -36.5t-35.5 -30.5t-46 -20.5t-59 -7.5q-78 0 -120 44
t-42 133v297zM322 711h90l-126 -136h-59z" />
    <glyph glyph-name="ucircumflex" unicode="&#xfb;" horiz-adv-x="577" 
d="M96 459h-71q-4 11 -4 24t4 24h134v-317q0 -33 4.5 -60.5t17 -47t34.5 -30.5t57 -11q27 0 53.5 9.5t46.5 31.5t32.5 58.5t12.5 89.5v229h-71q-4 11 -4 24t4 24h135v-459h70q4 -11 4 -24t-4 -24h-126v80q-11 -19 -26.5 -36.5t-35.5 -30.5t-46 -20.5t-59 -7.5q-78 0 -120 44
t-42 133v297zM235 711h67l102 -136h-62l-73 94l-73 -94h-62z" />
    <glyph glyph-name="udieresis" unicode="&#xfc;" horiz-adv-x="577" 
d="M96 459h-71q-4 11 -4 24t4 24h134v-317q0 -33 4.5 -60.5t17 -47t34.5 -30.5t57 -11q27 0 53.5 9.5t46.5 31.5t32.5 58.5t12.5 89.5v229h-71q-4 11 -4 24t4 24h135v-459h70q4 -11 4 -24t-4 -24h-126v80q-11 -19 -26.5 -36.5t-35.5 -30.5t-46 -20.5t-59 -7.5q-78 0 -120 44
t-42 133v297zM359 589q-17 0 -30.5 14t-13.5 35t13.5 35t30.5 14t31 -14t14 -35t-14 -35t-31 -14zM186 589q-17 0 -31 14t-14 35t14 35t31 14t30.5 -14t13.5 -35t-13.5 -35t-30.5 -14z" />
    <glyph glyph-name="yacute" unicode="&#xfd;" horiz-adv-x="528" 
d="M49 -113q16 -6 33.5 -10t35.5 -4t32.5 3.5t27.5 14t25 31t23 53.5l6 18l-168 466h-53q-4 11 -4 24t4 24h190q4 -11 4 -24t-4 -24h-69l136 -391l135 391h-64q-4 11 -4 24t4 24h178q4 -11 4 -24t-4 -24h-53l-183 -510q-23 -64 -54 -93q-23 -22 -49.5 -29t-55.5 -7
q-26 0 -42 4.5t-31 9.5v53zM323 711h90l-126 -136h-59z" />
    <glyph glyph-name="thorn" unicode="&#xfe;" horiz-adv-x="555" 
d="M82 -120v830h-71q-4 11 -4 24t4 24h135v-329q17 36 56.5 64t99.5 28q55 0 95 -22t66 -58.5t38 -85t12 -101.5q0 -50 -11.5 -98t-37 -86t-65 -61.5t-95.5 -23.5q-51 0 -93 22.5t-65 70.5v-198h76q4 -11 4 -24t-4 -24h-211q-4 11 -4 24t4 24h71zM294 39q44 0 73.5 19.5
t47 50t24.5 68.5t7 75q0 36 -7 73.5t-24 69t-46.5 51.5t-74.5 20q-36 0 -64.5 -15.5t-48 -43.5t-29.5 -68t-10 -88q0 -45 10 -83.5t29.5 -67t48 -45t64.5 -16.5z" />
    <glyph glyph-name="ydieresis" unicode="&#xff;" horiz-adv-x="528" 
d="M49 -113q16 -6 33.5 -10t35.5 -4t32.5 3.5t27.5 14t25 31t23 53.5l6 18l-168 466h-53q-4 11 -4 24t4 24h190q4 -11 4 -24t-4 -24h-69l136 -391l135 391h-64q-4 11 -4 24t4 24h178q4 -11 4 -24t-4 -24h-53l-183 -510q-23 -64 -54 -93q-23 -22 -49.5 -29t-55.5 -7
q-26 0 -42 4.5t-31 9.5v53zM345 589q-17 0 -30.5 14t-13.5 35t13.5 35t30.5 14t31 -14t14 -35t-14 -35t-31 -14zM172 589q-17 0 -31 14t-14 35t14 35t31 14t30.5 -14t13.5 -35t-13.5 -35t-30.5 -14z" />
    <glyph glyph-name="Amacron" unicode="&#x100;" horiz-adv-x="716" 
d="M483 295l-124 378l-132 -378h256zM81 52l245 686h76l231 -686h68q4 -12 4 -26t-4 -26h-230q-4 12 -4 26t4 26h92l-61 187h-295l-65 -187h90q4 -12 4 -26t-4 -26h-218q-4 12 -4 26t4 26h67zM209 868h298v-53h-298v53z" />
    <glyph glyph-name="amacron" unicode="&#x101;" horiz-adv-x="525" 
d="M369 266l-134 -14q-66 -8 -100.5 -33.5t-34.5 -86.5q0 -45 30 -70t81 -25q28 0 56 8.5t50.5 26t37 43t14.5 58.5v93zM372 70q-23 -34 -63 -59t-113 -25q-72 0 -116 38.5t-44 107.5q0 33 9 61t30 50t55 37t84 20l155 16v24q0 31 -6 54.5t-20.5 40t-39.5 25t-63 8.5
q-26 0 -49 -6t-43 -14.5t-37 -19t-29 -19.5v61q10 7 26 16t37.5 16.5t49.5 13t62 5.5q24 0 54.5 -5t57.5 -22t45.5 -50t18.5 -90v-306h67q4 -11 4 -24t-4 -24h-128v70zM113 656h298v-53h-298v53z" />
    <glyph glyph-name="Abreve" unicode="&#x102;" horiz-adv-x="716" 
d="M483 295l-124 378l-132 -378h256zM81 52l245 686h76l231 -686h68q4 -12 4 -26t-4 -26h-230q-4 12 -4 26t4 26h92l-61 187h-295l-65 -187h90q4 -12 4 -26t-4 -26h-218q-4 12 -4 26t4 26h67zM269 921q3 -13 8.5 -27.5t16.5 -27t28 -20.5t44 -8t44 8t28 20.5t17 27t9 27.5
h49q-3 -22 -11 -45.5t-24.5 -42.5t-43.5 -31.5t-68 -12.5q-42 0 -68.5 12t-42.5 31t-24 42.5t-11 46.5h49z" />
    <glyph glyph-name="abreve" unicode="&#x103;" horiz-adv-x="525" 
d="M369 266l-134 -14q-66 -8 -100.5 -33.5t-34.5 -86.5q0 -45 30 -70t81 -25q28 0 56 8.5t50.5 26t37 43t14.5 58.5v93zM372 70q-23 -34 -63 -59t-113 -25q-72 0 -116 38.5t-44 107.5q0 33 9 61t30 50t55 37t84 20l155 16v24q0 31 -6 54.5t-20.5 40t-39.5 25t-63 8.5
q-26 0 -49 -6t-43 -14.5t-37 -19t-29 -19.5v61q10 7 26 16t37.5 16.5t49.5 13t62 5.5q24 0 54.5 -5t57.5 -22t45.5 -50t18.5 -90v-306h67q4 -11 4 -24t-4 -24h-128v70zM165 709q3 -13 8.5 -27.5t16.5 -27t28 -20.5t44 -8t44 8t28 20.5t17 27t9 27.5h49q-3 -22 -11 -45.5
t-24.5 -42.5t-43.5 -31.5t-68 -12.5q-42 0 -68.5 12t-42.5 31t-24 42.5t-11 46.5h49z" />
    <glyph glyph-name="Aogonek" unicode="&#x104;" horiz-adv-x="716" 
d="M672 -193q-11 -5 -34 -12.5t-51 -7.5q-44 0 -75.5 23t-31.5 67q0 19 7 38t20.5 35.5t33 29.5t43.5 20h-113q-4 12 -4 26t4 26h92l-61 187h-295l-65 -187h90q4 -12 4 -26t-4 -26h-218q-4 12 -4 26t4 26h67l245 686h76l231 -686h68q4 -12 4 -26t-4 -26h-59q-54 -26 -78 -55
t-24 -64q0 -26 17.5 -39t37.5 -13q34 0 63 13zM483 295l-124 378l-132 -378h256z" />
    <glyph glyph-name="aogonek" unicode="&#x105;" horiz-adv-x="525" 
d="M498 -193q-11 -5 -34 -12.5t-51 -7.5q-44 0 -75.5 23t-31.5 67q0 19 7 38t20.5 35.5t33 29.5t43.5 20h-38v70q-23 -34 -63 -59t-113 -25q-72 0 -116 38.5t-44 107.5q0 33 9 61t30 50t55 37t84 20l155 16v24q0 31 -6 54.5t-20.5 40t-39.5 25t-63 8.5q-26 0 -49 -6
t-43 -14.5t-37 -19t-29 -19.5v61q10 7 26 16t37.5 16.5t49.5 13t62 5.5q24 0 54.5 -5t57.5 -22t45.5 -50t18.5 -90v-306h67q4 -11 4 -24t-4 -24h-32q-54 -26 -78 -55t-24 -64q0 -26 17.5 -39t37.5 -13q34 0 63 13zM369 266l-134 -14q-66 -8 -100.5 -33.5t-34.5 -86.5
q0 -45 30 -70t81 -25q28 0 56 8.5t50.5 26t37 43t14.5 58.5v93z" />
    <glyph glyph-name="Cacute" unicode="&#x106;" horiz-adv-x="704" 
d="M631 71q-14 -13 -37 -28.5t-53.5 -29t-67.5 -22.5t-80 -9q-85 0 -148 29.5t-105 80t-62.5 119t-20.5 146.5q0 75 20.5 145.5t60.5 125t99.5 87t138.5 32.5q57 0 109 -21t89 -69v72q13 4 28 4q16 0 29 -4v-268q-13 -4 -30 -4t-30 4v41q0 39 -12.5 73t-37 59.5t-61 40
t-84.5 14.5q-67 0 -113.5 -31.5t-76 -79.5t-43 -106t-13.5 -112q0 -83 22 -143t58.5 -98.5t84.5 -57t99 -18.5q44 0 81 11t66.5 27.5t52 35.5t37.5 34v-80zM447 923h90l-126 -136h-59z" />
    <glyph glyph-name="cacute" unicode="&#x107;" horiz-adv-x="489" 
d="M439 39q-11 -8 -27 -17t-36.5 -17t-46.5 -13.5t-57 -5.5q-56 0 -99.5 20.5t-72.5 55.5t-44 81.5t-15 99.5q0 57 13.5 107t40.5 87t68 58.5t97 21.5q43 0 78.5 -17.5t52.5 -46.5v53q6 2 13 3t13 1q14 0 25 -4v-198q-12 -4 -27 -4t-27 4v20q0 63 -31.5 99.5t-91.5 36.5
q-48 0 -78.5 -20.5t-48 -52.5t-24 -70.5t-6.5 -74.5q0 -50 13 -87.5t36 -63t54.5 -38.5t68.5 -13q27 0 50.5 6t43.5 15.5t36.5 21t28.5 21.5v-69zM332 711h90l-126 -136h-59z" />
    <glyph glyph-name="Ccircumflex" unicode="&#x108;" horiz-adv-x="704" 
d="M631 71q-14 -13 -37 -28.5t-53.5 -29t-67.5 -22.5t-80 -9q-85 0 -148 29.5t-105 80t-62.5 119t-20.5 146.5q0 75 20.5 145.5t60.5 125t99.5 87t138.5 32.5q57 0 109 -21t89 -69v72q13 4 28 4q16 0 29 -4v-268q-13 -4 -30 -4t-30 4v41q0 39 -12.5 73t-37 59.5t-61 40
t-84.5 14.5q-67 0 -113.5 -31.5t-76 -79.5t-43 -106t-13.5 -112q0 -83 22 -143t58.5 -98.5t84.5 -57t99 -18.5q44 0 81 11t66.5 27.5t52 35.5t37.5 34v-80zM344 923h67l102 -136h-62l-73 94l-73 -94h-62z" />
    <glyph glyph-name="ccircumflex" unicode="&#x109;" horiz-adv-x="489" 
d="M439 39q-11 -8 -27 -17t-36.5 -17t-46.5 -13.5t-57 -5.5q-56 0 -99.5 20.5t-72.5 55.5t-44 81.5t-15 99.5q0 57 13.5 107t40.5 87t68 58.5t97 21.5q43 0 78.5 -17.5t52.5 -46.5v53q6 2 13 3t13 1q14 0 25 -4v-198q-12 -4 -27 -4t-27 4v20q0 63 -31.5 99.5t-91.5 36.5
q-48 0 -78.5 -20.5t-48 -52.5t-24 -70.5t-6.5 -74.5q0 -50 13 -87.5t36 -63t54.5 -38.5t68.5 -13q27 0 50.5 6t43.5 15.5t36.5 21t28.5 21.5v-69zM233 711h67l102 -136h-62l-73 94l-73 -94h-62z" />
    <glyph glyph-name="Cdotaccent" unicode="&#x10a;" horiz-adv-x="704" 
d="M631 71q-14 -13 -37 -28.5t-53.5 -29t-67.5 -22.5t-80 -9q-85 0 -148 29.5t-105 80t-62.5 119t-20.5 146.5q0 75 20.5 145.5t60.5 125t99.5 87t138.5 32.5q57 0 109 -21t89 -69v72q13 4 28 4q16 0 29 -4v-268q-13 -4 -30 -4t-30 4v41q0 39 -12.5 73t-37 59.5t-61 40
t-84.5 14.5q-67 0 -113.5 -31.5t-76 -79.5t-43 -106t-13.5 -112q0 -83 22 -143t58.5 -98.5t84.5 -57t99 -18.5q44 0 81 11t66.5 27.5t52 35.5t37.5 34v-80zM371 801q-17 0 -31 14t-14 35t14 35t31 14t30.5 -14t13.5 -35t-13.5 -35t-30.5 -14z" />
    <glyph glyph-name="cdotaccent" unicode="&#x10b;" horiz-adv-x="489" 
d="M439 39q-11 -8 -27 -17t-36.5 -17t-46.5 -13.5t-57 -5.5q-56 0 -99.5 20.5t-72.5 55.5t-44 81.5t-15 99.5q0 57 13.5 107t40.5 87t68 58.5t97 21.5q43 0 78.5 -17.5t52.5 -46.5v53q6 2 13 3t13 1q14 0 25 -4v-198q-12 -4 -27 -4t-27 4v20q0 63 -31.5 99.5t-91.5 36.5
q-48 0 -78.5 -20.5t-48 -52.5t-24 -70.5t-6.5 -74.5q0 -50 13 -87.5t36 -63t54.5 -38.5t68.5 -13q27 0 50.5 6t43.5 15.5t36.5 21t28.5 21.5v-69zM271 589q-17 0 -31 14t-14 35t14 35t31 14t30.5 -14t13.5 -35t-13.5 -35t-30.5 -14z" />
    <glyph glyph-name="Ccaron" unicode="&#x10c;" horiz-adv-x="704" 
d="M631 71q-14 -13 -37 -28.5t-53.5 -29t-67.5 -22.5t-80 -9q-85 0 -148 29.5t-105 80t-62.5 119t-20.5 146.5q0 75 20.5 145.5t60.5 125t99.5 87t138.5 32.5q57 0 109 -21t89 -69v72q13 4 28 4q16 0 29 -4v-268q-13 -4 -30 -4t-30 4v41q0 39 -12.5 73t-37 59.5t-61 40
t-84.5 14.5q-67 0 -113.5 -31.5t-76 -79.5t-43 -106t-13.5 -112q0 -83 22 -143t58.5 -98.5t84.5 -57t99 -18.5q44 0 81 11t66.5 27.5t52 35.5t37.5 34v-80zM246 923h62l73 -94l73 94h62l-101 -136h-67z" />
    <glyph glyph-name="ccaron" unicode="&#x10d;" horiz-adv-x="489" 
d="M439 39q-11 -8 -27 -17t-36.5 -17t-46.5 -13.5t-57 -5.5q-56 0 -99.5 20.5t-72.5 55.5t-44 81.5t-15 99.5q0 57 13.5 107t40.5 87t68 58.5t97 21.5q43 0 78.5 -17.5t52.5 -46.5v53q6 2 13 3t13 1q14 0 25 -4v-198q-12 -4 -27 -4t-27 4v20q0 63 -31.5 99.5t-91.5 36.5
q-48 0 -78.5 -20.5t-48 -52.5t-24 -70.5t-6.5 -74.5q0 -50 13 -87.5t36 -63t54.5 -38.5t68.5 -13q27 0 50.5 6t43.5 15.5t36.5 21t28.5 21.5v-69zM147 711h62l73 -94l73 94h62l-101 -136h-67z" />
    <glyph glyph-name="Dcaron" unicode="&#x10e;" horiz-adv-x="722" 
d="M348 57q54 0 86.5 11t57.5 32q48 39 74 108t26 160q0 100 -33.5 171.5t-95.5 105.5q-24 13 -55 20t-83 7h-143v-615h166zM114 52v625h-78q-4 12 -4 26t4 26h309q57 0 94 -8.5t66 -23.5q78 -42 119 -126.5t41 -195.5q0 -43 -7 -89.5t-22.5 -90.5t-41 -82.5t-62.5 -65.5
q-30 -22 -72 -34.5t-112 -12.5h-312q-4 12 -4 26t4 26h78zM200 923h62l73 -94l73 94h62l-101 -136h-67z" />
    <glyph glyph-name="dcaron" unicode="&#x10f;" horiz-adv-x="568" 
d="M260 39q23 0 49.5 9t49 33t37.5 65.5t15 105.5q0 29 -5 66t-21 70t-45.5 55.5t-77.5 22.5q-50 0 -80.5 -22.5t-47 -54.5t-21.5 -67.5t-5 -62.5q0 -46 9 -86t28 -70t47.5 -47t67.5 -17zM412 85q-19 -51 -62.5 -75.5t-91.5 -24.5q-63 0 -104.5 25t-66.5 65.5t-35.5 90
t-10.5 99.5q0 55 13.5 101.5t40 81t64.5 54t87 19.5q63 0 101.5 -26.5t60.5 -64.5v280h-70q-4 11 -4 24t4 24h134v-710h71q4 -11 4 -24t-4 -24h-131v85zM534 758h66l-26 -198h-40v198z" />
    <glyph glyph-name="Dcroat" unicode="&#x110;" horiz-adv-x="722" 
d="M114 52v297h-82v53h82v275h-78q-4 12 -4 26t4 26h309q57 0 94 -8.5t66 -23.5q78 -42 119 -126.5t41 -195.5q0 -43 -7 -89.5t-22.5 -90.5t-41 -82.5t-62.5 -65.5q-30 -22 -72 -34.5t-112 -12.5h-312q-4 12 -4 26t4 26h78zM348 57q54 0 86.5 11t57.5 32q48 39 74 108
t26 160q0 100 -33.5 171.5t-95.5 105.5q-24 13 -55 20t-83 7h-143v-270h171v-53h-171v-292h166z" />
    <glyph glyph-name="dcroat" unicode="&#x111;" horiz-adv-x="568" 
d="M412 85q-19 -51 -62.5 -75.5t-91.5 -24.5q-63 0 -104.5 25t-66.5 65.5t-35.5 90t-10.5 99.5q0 55 13.5 101.5t40 81t64.5 54t87 19.5q63 0 101.5 -26.5t60.5 -64.5v154h-164v49h164v77h-70q-4 11 -4 24t4 24h134v-125h75v-49h-75v-536h71q4 -11 4 -24t-4 -24h-131v85z
M260 39q23 0 49.5 9t49 33t37.5 65.5t15 105.5q0 29 -5 66t-21 70t-45.5 55.5t-77.5 22.5q-50 0 -80.5 -22.5t-47 -54.5t-21.5 -67.5t-5 -62.5q0 -46 9 -86t28 -70t47.5 -47t67.5 -17z" />
    <glyph glyph-name="Emacron" unicode="&#x112;" horiz-adv-x="628" 
d="M114 52v625h-78q-4 12 -4 26t4 26h529v-199q-13 -4 -30 -4q-16 0 -29 4v142h-324v-268h306q4 -13 4 -28q0 -16 -4 -29h-306v-290h330v143q13 4 29 4q17 0 30 -4v-200h-535q-4 12 -4 26t4 26h78zM165 868h298v-53h-298v53z" />
    <glyph glyph-name="emacron" unicode="&#x113;" horiz-adv-x="498" 
d="M436 26q-26 -14 -65.5 -27t-83.5 -13q-66 0 -112.5 22t-76 59.5t-43.5 85.5t-14 101t12.5 101.5t38.5 85t66 58.5t95 22q58 0 97.5 -21.5t64 -58t35 -84.5t10.5 -100v-20h-351q2 -39 14 -74.5t33.5 -62t54 -42t74.5 -15.5q53 0 87.5 15.5t63.5 33.5v-66zM390 286
q0 29 -5.5 61t-20.5 59t-42 44.5t-70 17.5q-40 0 -67 -18.5t-44 -46t-24.5 -59.5t-7.5 -58h281zM100 656h298v-53h-298v53z" />
    <glyph glyph-name="Ebreve" unicode="&#x114;" horiz-adv-x="628" 
d="M114 52v625h-78q-4 12 -4 26t4 26h529v-199q-13 -4 -30 -4q-16 0 -29 4v142h-324v-268h306q4 -13 4 -28q0 -16 -4 -29h-306v-290h330v143q13 4 29 4q17 0 30 -4v-200h-535q-4 12 -4 26t4 26h78zM223 921q3 -13 8.5 -27.5t16.5 -27t28 -20.5t44 -8t44 8t28 20.5t17 27
t9 27.5h49q-3 -22 -11 -45.5t-24.5 -42.5t-43.5 -31.5t-68 -12.5q-42 0 -68.5 12t-42.5 31t-24 42.5t-11 46.5h49z" />
    <glyph glyph-name="ebreve" unicode="&#x115;" horiz-adv-x="498" 
d="M436 26q-26 -14 -65.5 -27t-83.5 -13q-66 0 -112.5 22t-76 59.5t-43.5 85.5t-14 101t12.5 101.5t38.5 85t66 58.5t95 22q58 0 97.5 -21.5t64 -58t35 -84.5t10.5 -100v-20h-351q2 -39 14 -74.5t33.5 -62t54 -42t74.5 -15.5q53 0 87.5 15.5t63.5 33.5v-66zM390 286
q0 29 -5.5 61t-20.5 59t-42 44.5t-70 17.5q-40 0 -67 -18.5t-44 -46t-24.5 -59.5t-7.5 -58h281zM173 709q3 -13 8.5 -27.5t16.5 -27t28 -20.5t44 -8t44 8t28 20.5t17 27t9 27.5h49q-3 -22 -11 -45.5t-24.5 -42.5t-43.5 -31.5t-68 -12.5q-42 0 -68.5 12t-42.5 31t-24 42.5
t-11 46.5h49z" />
    <glyph glyph-name="Edotaccent" unicode="&#x116;" horiz-adv-x="628" 
d="M114 52v625h-78q-4 12 -4 26t4 26h529v-199q-13 -4 -30 -4q-16 0 -29 4v142h-324v-268h306q4 -13 4 -28q0 -16 -4 -29h-306v-290h330v143q13 4 29 4q17 0 30 -4v-200h-535q-4 12 -4 26t4 26h78zM338 801q-17 0 -31 14t-14 35t14 35t31 14t30.5 -14t13.5 -35t-13.5 -35
t-30.5 -14z" />
    <glyph glyph-name="edotaccent" unicode="&#x117;" horiz-adv-x="498" 
d="M436 26q-26 -14 -65.5 -27t-83.5 -13q-66 0 -112.5 22t-76 59.5t-43.5 85.5t-14 101t12.5 101.5t38.5 85t66 58.5t95 22q58 0 97.5 -21.5t64 -58t35 -84.5t10.5 -100v-20h-351q2 -39 14 -74.5t33.5 -62t54 -42t74.5 -15.5q53 0 87.5 15.5t63.5 33.5v-66zM390 286
q0 29 -5.5 61t-20.5 59t-42 44.5t-70 17.5q-40 0 -67 -18.5t-44 -46t-24.5 -59.5t-7.5 -58h281zM271 589q-17 0 -31 14t-14 35t14 35t31 14t30.5 -14t13.5 -35t-13.5 -35t-30.5 -14z" />
    <glyph glyph-name="Eogonek" unicode="&#x118;" horiz-adv-x="628" 
d="M561 -193q-11 -5 -34 -12.5t-51 -7.5q-44 0 -75.5 23t-31.5 67q0 19 7 38t20.5 35.5t33 29.5t43.5 20h-437q-4 12 -4 26t4 26h78v625h-78q-4 12 -4 26t4 26h529v-199q-13 -4 -30 -4q-16 0 -29 4v142h-324v-268h306q4 -13 4 -28q0 -16 -4 -29h-306v-290h330v143q13 4 29 4
q17 0 30 -4v-200h-40q-54 -26 -78 -55t-24 -64q0 -26 17.5 -39t37.5 -13q34 0 63 13z" />
    <glyph glyph-name="eogonek" unicode="&#x119;" horiz-adv-x="498" 
d="M351 -193q-11 -5 -34 -12.5t-51 -7.5q-44 0 -75.5 23t-31.5 67q0 33 20 64.5t57 48.5q-52 8 -89 32.5t-60.5 60.5t-34.5 80t-11 91q0 53 12.5 101.5t38.5 85t66 58.5t95 22q58 0 97.5 -21.5t64 -58t35 -84.5t10.5 -100v-20h-351q2 -39 14 -74.5t33.5 -62t54 -42
t74.5 -15.5q53 0 87.5 15.5t63.5 33.5v-66q-25 -14 -62.5 -26t-79.5 -14q-39 -23 -57 -49t-18 -56q0 -26 17.5 -39t37.5 -13q34 0 63 13zM390 286q0 29 -5.5 61t-20.5 59t-42 44.5t-70 17.5q-40 0 -67 -18.5t-44 -46t-24.5 -59.5t-7.5 -58h281z" />
    <glyph glyph-name="Ecaron" unicode="&#x11a;" horiz-adv-x="628" 
d="M114 52v625h-78q-4 12 -4 26t4 26h529v-199q-13 -4 -30 -4q-16 0 -29 4v142h-324v-268h306q4 -13 4 -28q0 -16 -4 -29h-306v-290h330v143q13 4 29 4q17 0 30 -4v-200h-535q-4 12 -4 26t4 26h78zM199 923h62l73 -94l73 94h62l-101 -136h-67z" />
    <glyph glyph-name="ecaron" unicode="&#x11b;" horiz-adv-x="498" 
d="M436 26q-26 -14 -65.5 -27t-83.5 -13q-66 0 -112.5 22t-76 59.5t-43.5 85.5t-14 101t12.5 101.5t38.5 85t66 58.5t95 22q58 0 97.5 -21.5t64 -58t35 -84.5t10.5 -100v-20h-351q2 -39 14 -74.5t33.5 -62t54 -42t74.5 -15.5q53 0 87.5 15.5t63.5 33.5v-66zM390 286
q0 29 -5.5 61t-20.5 59t-42 44.5t-70 17.5q-40 0 -67 -18.5t-44 -46t-24.5 -59.5t-7.5 -58h281zM125 711h62l73 -94l73 94h62l-101 -136h-67z" />
    <glyph glyph-name="Gcircumflex" unicode="&#x11c;" horiz-adv-x="748" 
d="M577 289h-108q-4 12 -4 26t4 26h244q4 -12 4 -26t-4 -26h-68v-237q0 -6 -12 -13q-14 -8 -38 -18t-54.5 -18.5t-66 -14.5t-73.5 -6q-92 0 -157 31.5t-106.5 84.5t-61 122t-19.5 144t20.5 144t60.5 122t98.5 85t134.5 32q68 0 118.5 -24t85.5 -66v72q13 4 28 4q16 0 29 -4
v-245q-13 -4 -30 -4q-16 0 -29 4v30q0 35 -13 67t-38 56t-62 38t-84 14q-66 0 -112.5 -29.5t-76.5 -77t-43.5 -105.5t-13.5 -115q0 -75 20 -134t56 -100t85.5 -63t108.5 -22q62 0 101.5 11t75.5 29v206zM353 923h67l102 -136h-62l-73 94l-73 -94h-62z" />
    <glyph glyph-name="gcircumflex" unicode="&#x11d;" horiz-adv-x="568" 
d="M73 -77q13 -8 29.5 -16.5t37 -16t45.5 -12.5t56 -5q84 0 125.5 41t41.5 134v37q-22 -48 -63 -70.5t-89 -22.5q-62 0 -103.5 25t-66.5 64.5t-35 89t-10 99.5q0 55 14 101t40 79.5t64.5 52t87.5 18.5q33 0 58.5 -7.5t46 -21t35 -31.5t25.5 -38v84h131q4 -11 4 -24t-4 -24
h-70v-392q0 -70 -16 -117.5t-46 -76t-71.5 -41t-92.5 -12.5q-58 0 -104.5 13.5t-69.5 26.5v63zM260 46q23 0 49.5 9t49.5 32t38 64t15 105q0 29 -5 65.5t-21 68.5t-45.5 54t-78.5 22q-50 0 -80.5 -22t-47 -53.5t-21.5 -66.5t-5 -62q0 -46 9.5 -85.5t28 -68.5t47 -45.5
t67.5 -16.5zM257 711h67l102 -136h-62l-73 94l-73 -94h-62z" />
    <glyph glyph-name="Gbreve" unicode="&#x11e;" horiz-adv-x="748" 
d="M577 289h-108q-4 12 -4 26t4 26h244q4 -12 4 -26t-4 -26h-68v-237q0 -6 -12 -13q-14 -8 -38 -18t-54.5 -18.5t-66 -14.5t-73.5 -6q-92 0 -157 31.5t-106.5 84.5t-61 122t-19.5 144t20.5 144t60.5 122t98.5 85t134.5 32q68 0 118.5 -24t85.5 -66v72q13 4 28 4q16 0 29 -4
v-245q-13 -4 -30 -4q-16 0 -29 4v30q0 35 -13 67t-38 56t-62 38t-84 14q-66 0 -112.5 -29.5t-76.5 -77t-43.5 -105.5t-13.5 -115q0 -75 20 -134t56 -100t85.5 -63t108.5 -22q62 0 101.5 11t75.5 29v206zM292 921q3 -13 8.5 -27.5t16.5 -27t28 -20.5t44 -8t44 8t28 20.5
t17 27t9 27.5h49q-3 -22 -11 -45.5t-24.5 -42.5t-43.5 -31.5t-68 -12.5q-42 0 -68.5 12t-42.5 31t-24 42.5t-11 46.5h49z" />
    <glyph glyph-name="gbreve" unicode="&#x11f;" horiz-adv-x="568" 
d="M73 -77q13 -8 29.5 -16.5t37 -16t45.5 -12.5t56 -5q84 0 125.5 41t41.5 134v37q-22 -48 -63 -70.5t-89 -22.5q-62 0 -103.5 25t-66.5 64.5t-35 89t-10 99.5q0 55 14 101t40 79.5t64.5 52t87.5 18.5q33 0 58.5 -7.5t46 -21t35 -31.5t25.5 -38v84h131q4 -11 4 -24t-4 -24
h-70v-392q0 -70 -16 -117.5t-46 -76t-71.5 -41t-92.5 -12.5q-58 0 -104.5 13.5t-69.5 26.5v63zM260 46q23 0 49.5 9t49.5 32t38 64t15 105q0 29 -5 65.5t-21 68.5t-45.5 54t-78.5 22q-50 0 -80.5 -22t-47 -53.5t-21.5 -66.5t-5 -62q0 -46 9.5 -85.5t28 -68.5t47 -45.5
t67.5 -16.5zM184 709q3 -13 8.5 -27.5t16.5 -27t28 -20.5t44 -8t44 8t28 20.5t17 27t9 27.5h49q-3 -22 -11 -45.5t-24.5 -42.5t-43.5 -31.5t-68 -12.5q-42 0 -68.5 12t-42.5 31t-24 42.5t-11 46.5h49z" />
    <glyph glyph-name="Gdotaccent" unicode="&#x120;" horiz-adv-x="748" 
d="M577 289h-108q-4 12 -4 26t4 26h244q4 -12 4 -26t-4 -26h-68v-237q0 -6 -12 -13q-14 -8 -38 -18t-54.5 -18.5t-66 -14.5t-73.5 -6q-92 0 -157 31.5t-106.5 84.5t-61 122t-19.5 144t20.5 144t60.5 122t98.5 85t134.5 32q68 0 118.5 -24t85.5 -66v72q13 4 28 4q16 0 29 -4
v-245q-13 -4 -30 -4q-16 0 -29 4v30q0 35 -13 67t-38 56t-62 38t-84 14q-66 0 -112.5 -29.5t-76.5 -77t-43.5 -105.5t-13.5 -115q0 -75 20 -134t56 -100t85.5 -63t108.5 -22q62 0 101.5 11t75.5 29v206zM386 801q-17 0 -31 14t-14 35t14 35t31 14t30.5 -14t13.5 -35
t-13.5 -35t-30.5 -14z" />
    <glyph glyph-name="gdotaccent" unicode="&#x121;" horiz-adv-x="568" 
d="M73 -77q13 -8 29.5 -16.5t37 -16t45.5 -12.5t56 -5q84 0 125.5 41t41.5 134v37q-22 -48 -63 -70.5t-89 -22.5q-62 0 -103.5 25t-66.5 64.5t-35 89t-10 99.5q0 55 14 101t40 79.5t64.5 52t87.5 18.5q33 0 58.5 -7.5t46 -21t35 -31.5t25.5 -38v84h131q4 -11 4 -24t-4 -24
h-70v-392q0 -70 -16 -117.5t-46 -76t-71.5 -41t-92.5 -12.5q-58 0 -104.5 13.5t-69.5 26.5v63zM260 46q23 0 49.5 9t49.5 32t38 64t15 105q0 29 -5 65.5t-21 68.5t-45.5 54t-78.5 22q-50 0 -80.5 -22t-47 -53.5t-21.5 -66.5t-5 -62q0 -46 9.5 -85.5t28 -68.5t47 -45.5
t67.5 -16.5zM286 589q-17 0 -31 14t-14 35t14 35t31 14t30.5 -14t13.5 -35t-13.5 -35t-30.5 -14z" />
    <glyph glyph-name="Gcommaaccent" unicode="&#x122;" horiz-adv-x="748" 
d="M577 289h-108q-4 12 -4 26t4 26h244q4 -12 4 -26t-4 -26h-68v-237q0 -6 -12 -13q-14 -8 -38 -18t-54.5 -18.5t-66 -14.5t-73.5 -6q-92 0 -157 31.5t-106.5 84.5t-61 122t-19.5 144t20.5 144t60.5 122t98.5 85t134.5 32q68 0 118.5 -24t85.5 -66v72q13 4 28 4q16 0 29 -4
v-245q-13 -4 -30 -4q-16 0 -29 4v30q0 35 -13 67t-38 56t-62 38t-84 14q-66 0 -112.5 -29.5t-76.5 -77t-43.5 -105.5t-13.5 -115q0 -75 20 -134t56 -100t85.5 -63t108.5 -22q62 0 101.5 11t75.5 29v206zM337 -179q20 7 36 21t18 31q-4 -1 -18 -1q-17 0 -29 9t-12 28
q0 17 12 29.5t35 12.5q20 0 36.5 -14t16.5 -46q0 -25 -10 -43.5t-24 -31.5t-31 -20t-30 -10v35z" />
    <glyph glyph-name="gcommaaccent" unicode="&#x123;" horiz-adv-x="568" 
d="M73 -77q13 -8 29.5 -16.5t37 -16t45.5 -12.5t56 -5q84 0 125.5 41t41.5 134v37q-22 -48 -63 -70.5t-89 -22.5q-62 0 -103.5 25t-66.5 64.5t-35 89t-10 99.5q0 55 14 101t40 79.5t64.5 52t87.5 18.5q33 0 58.5 -7.5t46 -21t35 -31.5t25.5 -38v84h131q4 -11 4 -24t-4 -24
h-70v-392q0 -70 -16 -117.5t-46 -76t-71.5 -41t-92.5 -12.5q-58 0 -104.5 13.5t-69.5 26.5v63zM260 46q23 0 49.5 9t49.5 32t38 64t15 105q0 29 -5 65.5t-21 68.5t-45.5 54t-78.5 22q-50 0 -80.5 -22t-47 -53.5t-21.5 -66.5t-5 -62q0 -46 9.5 -85.5t28 -68.5t47 -45.5
t67.5 -16.5zM326 732q-13 -4 -22 -12t-15 -17t-8.5 -18.5t-2.5 -17.5q6 3 17 3q20 0 31 -13t11 -33t-12 -36t-34 -16q-27 0 -41 21.5t-14 53.5q0 27 8.5 48.5t21.5 37t29 25t31 11.5v-37z" />
    <glyph glyph-name="Hcircumflex" unicode="&#x124;" horiz-adv-x="753" 
d="M114 52v625h-78q-4 12 -4 26t4 26h224q4 -12 4 -26t-4 -26h-78v-264h389v264h-78q-4 12 -4 26t4 26h224q4 -12 4 -26t-4 -26h-78v-625h78q4 -12 4 -26t-4 -26h-224q-4 12 -4 26t4 26h78v304h-389v-304h78q4 -12 4 -26t-4 -26h-224q-4 12 -4 26t4 26h78zM341 923h67
l102 -136h-62l-73 94l-73 -94h-62z" />
    <glyph glyph-name="hcircumflex" unicode="&#x125;" horiz-adv-x="577" 
d="M96 48v662h-71q-4 11 -4 24t4 24h135v-324q23 41 62.5 64t96.5 23q78 0 120 -44t42 -132v-297h71q4 -11 4 -24t-4 -24h-201q-4 11 -4 24t4 24h66v269q0 33 -4.5 60.5t-16.5 47t-34 30.5t-57 11q-28 0 -54 -9.5t-46.5 -31.5t-32.5 -58.5t-12 -89.5v-229h66q4 -11 4 -24
t-4 -24h-201q-4 11 -4 24t4 24h71zM75 923h67l102 -136h-62l-73 94l-73 -94h-62z" />
    <glyph glyph-name="Hbar" unicode="&#x126;" horiz-adv-x="753" 
d="M114 52v464h-82v53h82v108h-78q-4 12 -4 26t4 26h224q4 -12 4 -26t-4 -26h-78v-108h389v108h-78q-4 12 -4 26t4 26h224q4 -12 4 -26t-4 -26h-78v-108h82v-53h-82v-464h78q4 -12 4 -26t-4 -26h-224q-4 12 -4 26t4 26h78v304h-389v-304h78q4 -12 4 -26t-4 -26h-224
q-4 12 -4 26t4 26h78zM571 413v103h-389v-103h389z" />
    <glyph glyph-name="hbar" unicode="&#x127;" horiz-adv-x="577" 
d="M96 48v536h-75v49h75v77h-71q-4 11 -4 24t4 24h135v-125h164v-49h-164v-150q23 41 62.5 64t96.5 23q78 0 120 -44t42 -132v-297h71q4 -11 4 -24t-4 -24h-201q-4 11 -4 24t4 24h66v269q0 33 -4.5 60.5t-16.5 47t-34 30.5t-57 11q-28 0 -54 -9.5t-46.5 -31.5t-32.5 -58.5
t-12 -89.5v-229h66q4 -11 4 -24t-4 -24h-201q-4 11 -4 24t4 24h71z" />
    <glyph glyph-name="Itilde" unicode="&#x128;" horiz-adv-x="313" 
d="M122 52v625h-78q-4 12 -4 26t4 26h224q4 -12 4 -26t-4 -26h-78v-625h78q4 -12 4 -26t-4 -26h-224q-4 12 -4 26t4 26h78zM-13 807q8 44 31.5 72.5t68.5 28.5q29 0 48 -9t38 -17q22 -9 35 -14.5t27 -5.5q23 0 32.5 17t14.5 32h47q-8 -45 -31 -73t-68 -28q-23 0 -43.5 8.5
t-43.5 19.5q-13 5 -21 8.5t-14.5 5.5t-12.5 3t-14 1q-11 0 -19 -5.5t-13.5 -13t-9 -16t-5.5 -14.5h-47z" />
    <glyph glyph-name="itilde" unicode="&#x129;" horiz-adv-x="277" 
d="M109 48v411h-71q-4 11 -4 24t4 24h135v-459h71q4 -11 4 -24t-4 -24h-206q-4 11 -4 24t4 24h71zM-61 595q8 44 31.5 72.5t68.5 28.5q29 0 48 -9t38 -17q22 -9 35 -14.5t27 -5.5q23 0 32.5 17t14.5 32h47q-8 -45 -31 -73t-68 -28q-23 0 -43.5 8.5t-43.5 19.5q-13 5 -21 8.5
t-14.5 5.5t-12.5 3t-14 1q-11 0 -19 -5.5t-13.5 -13t-9 -16t-5.5 -14.5h-47z" />
    <glyph glyph-name="Imacron" unicode="&#x12a;" horiz-adv-x="313" 
d="M122 52v625h-78q-4 12 -4 26t4 26h224q4 -12 4 -26t-4 -26h-78v-625h78q4 -12 4 -26t-4 -26h-224q-4 12 -4 26t4 26h78zM9 868h298v-53h-298v53z" />
    <glyph glyph-name="imacron" unicode="&#x12b;" horiz-adv-x="277" 
d="M109 48v411h-71q-4 11 -4 24t4 24h135v-459h71q4 -11 4 -24t-4 -24h-206q-4 11 -4 24t4 24h71zM-9 656h298v-53h-298v53z" />
    <glyph glyph-name="Ibreve" unicode="&#x12c;" horiz-adv-x="313" 
d="M122 52v625h-78q-4 12 -4 26t4 26h224q4 -12 4 -26t-4 -26h-78v-625h78q4 -12 4 -26t-4 -26h-224q-4 12 -4 26t4 26h78zM61 921q3 -13 8.5 -27.5t16.5 -27t28 -20.5t44 -8t44 8t28 20.5t17 27t9 27.5h49q-3 -22 -11 -45.5t-24.5 -42.5t-43.5 -31.5t-68 -12.5
q-42 0 -68.5 12t-42.5 31t-24 42.5t-11 46.5h49z" />
    <glyph glyph-name="ibreve" unicode="&#x12d;" horiz-adv-x="277" 
d="M109 48v411h-71q-4 11 -4 24t4 24h135v-459h71q4 -11 4 -24t-4 -24h-206q-4 11 -4 24t4 24h71zM17 709q3 -13 8.5 -27.5t16.5 -27t28 -20.5t44 -8t44 8t28 20.5t17 27t9 27.5h49q-3 -22 -11 -45.5t-24.5 -42.5t-43.5 -31.5t-68 -12.5q-42 0 -68.5 12t-42.5 31t-24 42.5
t-11 46.5h49z" />
    <glyph glyph-name="Iogonek" unicode="&#x12e;" horiz-adv-x="313" 
d="M249 -193q-11 -5 -34 -12.5t-51 -7.5q-44 0 -75.5 23t-31.5 67q0 19 7 38t20.5 35.5t33 29.5t43.5 20h-117q-4 12 -4 26t4 26h78v625h-78q-4 12 -4 26t4 26h224q4 -12 4 -26t-4 -26h-78v-625h78q4 -12 4 -26t-4 -26h-49q-54 -26 -78 -55t-24 -64q0 -26 17.5 -39t37.5 -13
q34 0 63 13z" />
    <glyph glyph-name="iogonek" unicode="&#x12f;" horiz-adv-x="277" 
d="M237 -193q-11 -5 -34 -12.5t-51 -7.5q-44 0 -75.5 23t-31.5 67q0 19 7 38t20.5 35.5t33 29.5t43.5 20h-111q-4 11 -4 24t4 24h71v411h-71q-4 11 -4 24t4 24h135v-459h71q4 -11 4 -24t-4 -24h-37q-54 -26 -78 -55t-24 -64q0 -26 17.5 -39t37.5 -13q34 0 63 13zM127 623
q-18 0 -32.5 14.5t-14.5 37.5t14.5 37.5t32.5 14.5t32.5 -14.5t14.5 -37.5t-14.5 -37.5t-32.5 -14.5z" />
    <glyph glyph-name="Idotaccent" unicode="&#x130;" horiz-adv-x="313" 
d="M122 52v625h-78q-4 12 -4 26t4 26h224q4 -12 4 -26t-4 -26h-78v-625h78q4 -12 4 -26t-4 -26h-224q-4 12 -4 26t4 26h78zM161 801q-17 0 -31 14t-14 35t14 35t31 14t30.5 -14t13.5 -35t-13.5 -35t-30.5 -14z" />
    <glyph glyph-name="dotlessi" unicode="&#x131;" horiz-adv-x="277" 
d="M109 48v411h-71q-4 11 -4 24t4 24h135v-459h71q4 -11 4 -24t-4 -24h-206q-4 11 -4 24t4 24h71z" />
    <glyph glyph-name="IJ" unicode="&#x132;" horiz-adv-x="813" 
d="M122 52v625h-78q-4 12 -4 26t4 26h224q4 -12 4 -26t-4 -26h-78v-625h78q4 -12 4 -26t-4 -26h-224q-4 12 -4 26t4 26h78zM336 99q11 -8 27.5 -17.5t37.5 -17.5t46 -14t54 -6q73 0 102.5 42.5t29.5 127.5v463h-94q-4 12 -4 26t4 26h240q4 -12 4 -26t-4 -26h-78v-464
q0 -64 -15.5 -107.5t-42.5 -70t-64 -38t-80 -11.5q-29 0 -56 5.5t-48.5 13t-37 14.5t-21.5 11v69z" />
    <glyph glyph-name="ij" unicode="&#x133;" horiz-adv-x="540" 
d="M127 623q-18 0 -32.5 14.5t-14.5 37.5t14.5 37.5t32.5 14.5t32.5 -14.5t14.5 -37.5t-14.5 -37.5t-32.5 -14.5zM109 48v411h-71q-4 11 -4 24t4 24h135v-459h71q4 -11 4 -24t-4 -24h-206q-4 11 -4 24t4 24h71zM400 623q-18 0 -33 14.5t-15 37.5t14.5 37.5t32.5 14.5
t33 -14.5t15 -37.5t-14.5 -37.5t-32.5 -14.5zM251 -116q10 -4 27 -9t36 -5q34 0 50.5 17.5t16.5 56.5v515h-70q-4 11 -4 24t4 24h134v-556q0 -40 -10.5 -65.5t-28 -40t-40 -20t-45.5 -5.5q-21 0 -38.5 4t-31.5 10v50z" />
    <glyph glyph-name="Jcircumflex" unicode="&#x134;" horiz-adv-x="500" 
d="M23 99q11 -8 27.5 -17.5t37.5 -17.5t46 -14t54 -6q73 0 102.5 42.5t29.5 127.5v463h-94q-4 12 -4 26t4 26h240q4 -12 4 -26t-4 -26h-78v-464q0 -64 -15.5 -107.5t-42.5 -70t-64 -38t-80 -11.5q-29 0 -56 5.5t-48.5 13t-37 14.5t-21.5 11v69zM313 923h67l102 -136h-62
l-73 94l-73 -94h-62z" />
    <glyph glyph-name="jcircumflex" unicode="&#x135;" horiz-adv-x="263" 
d="M-26 -116q10 -4 27 -9t36 -5q34 0 50.5 17.5t16.5 56.5v515h-70q-4 11 -4 24t4 24h134v-556q0 -40 -10.5 -65.5t-28 -40t-40 -20t-45.5 -5.5q-21 0 -38.5 4t-31.5 10v50zM78 711h67l102 -136h-62l-73 94l-73 -94h-62z" />
    <glyph glyph-name="Kcommaaccent" unicode="&#x136;" horiz-adv-x="683" 
d="M114 52v625h-78q-4 12 -4 26t4 26h224q4 -12 4 -26t-4 -26h-78v-326l315 326h-103q-4 12 -4 26t4 26h245q4 -12 4 -26t-4 -26h-65l-225 -230l254 -395h70q4 -12 4 -26t-4 -26h-245q-4 12 -4 26t4 26h94l-221 347l-119 -123v-224h78q4 -12 4 -26t-4 -26h-224q-4 12 -4 26
t4 26h78zM322 -179q20 7 36 21t18 31q-4 -1 -18 -1q-17 0 -29 9t-12 28q0 17 12 29.5t35 12.5q20 0 36.5 -14t16.5 -46q0 -25 -10 -43.5t-24 -31.5t-31 -20t-30 -10v35z" />
    <glyph glyph-name="kcommaaccent" unicode="&#x137;" horiz-adv-x="541" 
d="M96 48v662h-71q-4 11 -4 24t4 24h135v-497l221 198h-81q-4 11 -4 24t4 24h212q4 -11 4 -24t-4 -24h-60l-149 -131l173 -280h55q4 -11 4 -24t-4 -24h-195q-4 11 -4 24t4 24h64l-144 238l-96 -85v-153h64q4 -11 4 -24t-4 -24h-199q-4 11 -4 24t4 24h71zM260 -179
q20 7 36 21t18 31q-4 -1 -18 -1q-17 0 -29 9t-12 28q0 17 12 29.5t35 12.5q20 0 36.5 -14t16.5 -46q0 -25 -10 -43.5t-24 -31.5t-31 -20t-30 -10v35z" />
    <glyph glyph-name="kgreenlandic" unicode="&#x138;" horiz-adv-x="541" 
d="M96 48v411h-71q-4 11 -4 24t4 24h135v-246l221 198h-81q-4 11 -4 24t4 24h212q4 -11 4 -24t-4 -24h-60l-149 -131l173 -280h55q4 -11 4 -24t-4 -24h-195q-4 11 -4 24t4 24h64l-144 238l-96 -85v-153h64q4 -11 4 -24t-4 -24h-199q-4 11 -4 24t4 24h71z" />
    <glyph glyph-name="Lacute" unicode="&#x139;" horiz-adv-x="575" 
d="M114 52v625h-78q-4 12 -4 26t4 26h235q4 -12 4 -26t-4 -26h-89v-620h296v174q13 4 29 4q17 0 30 -4v-231h-501q-4 12 -4 26t4 26h78zM235 923h90l-126 -136h-59z" />
    <glyph glyph-name="lacute" unicode="&#x13a;" horiz-adv-x="268" 
d="M102 48v662h-71q-4 11 -4 24t4 24h135v-710h71q4 -11 4 -24t-4 -24h-206q-4 11 -4 24t4 24h71zM176 923h90l-126 -136h-59z" />
    <glyph glyph-name="Lcommaaccent" unicode="&#x13b;" horiz-adv-x="575" 
d="M114 52v625h-78q-4 12 -4 26t4 26h235q4 -12 4 -26t-4 -26h-89v-620h296v174q13 4 29 4q17 0 30 -4v-231h-501q-4 12 -4 26t4 26h78zM273 -179q20 7 36 21t18 31q-4 -1 -18 -1q-17 0 -29 9t-12 28q0 17 12 29.5t35 12.5q20 0 36.5 -14t16.5 -46q0 -25 -10 -43.5
t-24 -31.5t-31 -20t-30 -10v35z" />
    <glyph glyph-name="lcommaaccent" unicode="&#x13c;" horiz-adv-x="268" 
d="M102 48v662h-71q-4 11 -4 24t4 24h135v-710h71q4 -11 4 -24t-4 -24h-206q-4 11 -4 24t4 24h71zM90 -179q20 7 36 21t18 31q-4 -1 -18 -1q-17 0 -29 9t-12 28q0 17 12 29.5t35 12.5q20 0 36.5 -14t16.5 -46q0 -25 -10 -43.5t-24 -31.5t-31 -20t-30 -10v35z" />
    <glyph glyph-name="Lcaron" unicode="&#x13d;" horiz-adv-x="575" 
d="M114 52v625h-78q-4 12 -4 26t4 26h235q4 -12 4 -26t-4 -26h-89v-620h296v174q13 4 29 4q17 0 30 -4v-231h-501q-4 12 -4 26t4 26h78zM358 758h66l-26 -198h-40v198z" />
    <glyph glyph-name="lcaron" unicode="&#x13e;" horiz-adv-x="268" 
d="M102 48v662h-71q-4 11 -4 24t4 24h135v-710h71q4 -11 4 -24t-4 -24h-206q-4 11 -4 24t4 24h71zM228 758h66l-26 -198h-40v198z" />
    <glyph glyph-name="Ldot" unicode="&#x13f;" horiz-adv-x="575" 
d="M114 52v625h-78q-4 12 -4 26t4 26h235q4 -12 4 -26t-4 -26h-89v-620h296v174q13 4 29 4q17 0 30 -4v-231h-501q-4 12 -4 26t4 26h78zM344 373q-17 0 -31 14t-14 35t14 35t31 14t30.5 -14t13.5 -35t-13.5 -35t-30.5 -14z" />
    <glyph glyph-name="ldot" unicode="&#x140;" horiz-adv-x="289" 
d="M102 48v662h-71q-4 11 -4 24t4 24h135v-710h71q4 -11 4 -24t-4 -24h-206q-4 11 -4 24t4 24h71zM279 373q-17 0 -31 14t-14 35t14 35t31 14t30.5 -14t13.5 -35t-13.5 -35t-30.5 -14z" />
    <glyph glyph-name="Lslash" unicode="&#x141;" horiz-adv-x="575" 
d="M114 52v239l-82 -70v68l82 70v318h-78q-4 12 -4 26t4 26h235q4 -12 4 -26t-4 -26h-89v-259l130 112v-68l-130 -112v-293h296v174q13 4 29 4q17 0 30 -4v-231h-501q-4 12 -4 26t4 26h78z" />
    <glyph glyph-name="lslash" unicode="&#x142;" horiz-adv-x="268" 
d="M102 48v285l-75 -64v60l75 65v316h-71q-4 11 -4 24t4 24h135v-309l75 65v-61l-75 -65v-340h71q4 -11 4 -24t-4 -24h-206q-4 11 -4 24t4 24h71z" />
    <glyph glyph-name="Nacute" unicode="&#x143;" horiz-adv-x="739" 
d="M114 52v625h-78q-4 12 -4 26t4 26h171l360 -644v592h-81q-4 12 -4 26t4 26h221q4 -12 4 -26t-4 -26h-78v-686h-78l-376 676v-615h80q4 -12 4 -26t-4 -26h-219q-4 12 -4 26t4 26h78zM440 923h90l-126 -136h-59z" />
    <glyph glyph-name="nacute" unicode="&#x144;" horiz-adv-x="582" 
d="M101 48v411h-71q-4 11 -4 24t4 24h127v-80q21 38 61 66t106 28q78 0 120 -44t42 -132v-297h71q4 -11 4 -24t-4 -24h-201q-4 11 -4 24t4 24h66v269q0 33 -4.5 60.5t-16.5 47t-34 30.5t-57 11q-28 0 -54 -9.5t-46.5 -31.5t-32.5 -58.5t-12 -89.5v-229h66q4 -11 4 -24
t-4 -24h-201q-4 11 -4 24t4 24h71zM361 711h90l-126 -136h-59z" />
    <glyph glyph-name="Ncommaaccent" unicode="&#x145;" horiz-adv-x="739" 
d="M114 52v625h-78q-4 12 -4 26t4 26h171l360 -644v592h-81q-4 12 -4 26t4 26h221q4 -12 4 -26t-4 -26h-78v-686h-78l-376 676v-615h80q4 -12 4 -26t-4 -26h-219q-4 12 -4 26t4 26h78zM316 -179q20 7 36 21t18 31q-4 -1 -18 -1q-17 0 -29 9t-12 28q0 17 12 29.5t35 12.5
q20 0 36.5 -14t16.5 -46q0 -25 -10 -43.5t-24 -31.5t-31 -20t-30 -10v35z" />
    <glyph glyph-name="ncommaaccent" unicode="&#x146;" horiz-adv-x="582" 
d="M101 48v411h-71q-4 11 -4 24t4 24h127v-80q21 38 61 66t106 28q78 0 120 -44t42 -132v-297h71q4 -11 4 -24t-4 -24h-201q-4 11 -4 24t4 24h66v269q0 33 -4.5 60.5t-16.5 47t-34 30.5t-57 11q-28 0 -54 -9.5t-46.5 -31.5t-32.5 -58.5t-12 -89.5v-229h66q4 -11 4 -24
t-4 -24h-201q-4 11 -4 24t4 24h71zM254 -179q20 7 36 21t18 31q-4 -1 -18 -1q-17 0 -29 9t-12 28q0 17 12 29.5t35 12.5q20 0 36.5 -14t16.5 -46q0 -25 -10 -43.5t-24 -31.5t-31 -20t-30 -10v35z" />
    <glyph glyph-name="Ncaron" unicode="&#x147;" horiz-adv-x="739" 
d="M114 52v625h-78q-4 12 -4 26t4 26h171l360 -644v592h-81q-4 12 -4 26t4 26h221q4 -12 4 -26t-4 -26h-78v-686h-78l-376 676v-615h80q4 -12 4 -26t-4 -26h-219q-4 12 -4 26t4 26h78zM246 923h62l73 -94l73 94h62l-101 -136h-67z" />
    <glyph glyph-name="ncaron" unicode="&#x148;" horiz-adv-x="582" 
d="M101 48v411h-71q-4 11 -4 24t4 24h127v-80q21 38 61 66t106 28q78 0 120 -44t42 -132v-297h71q4 -11 4 -24t-4 -24h-201q-4 11 -4 24t4 24h66v269q0 33 -4.5 60.5t-16.5 47t-34 30.5t-57 11q-28 0 -54 -9.5t-46.5 -31.5t-32.5 -58.5t-12 -89.5v-229h66q4 -11 4 -24
t-4 -24h-201q-4 11 -4 24t4 24h71zM159 711h62l73 -94l73 94h62l-101 -136h-67z" />
    <glyph glyph-name="napostrophe" unicode="&#x149;" horiz-adv-x="582" 
d="M101 48v411h-71q-4 11 -4 24t4 24h127v-80q21 38 61 66t106 28q78 0 120 -44t42 -132v-297h71q4 -11 4 -24t-4 -24h-201q-4 11 -4 24t4 24h66v269q0 33 -4.5 60.5t-16.5 47t-34 30.5t-57 11q-28 0 -54 -9.5t-46.5 -31.5t-32.5 -58.5t-12 -89.5v-229h66q4 -11 4 -24
t-4 -24h-201q-4 11 -4 24t4 24h71zM-45 561q29 14 40 39t11 52q-10 -2 -15 -2q-21 0 -31.5 14t-10.5 33q0 20 11.5 35t34.5 15q25 0 38.5 -21.5t13.5 -56.5q0 -39 -11 -66t-26 -43.5t-30.5 -24.5t-24.5 -10v36z" />
    <glyph glyph-name="Eng" unicode="&#x14a;" horiz-adv-x="739" 
d="M114 52v625h-78q-4 12 -4 26t4 26h171l360 -644v592h-81q-4 12 -4 26t4 26h221q4 -12 4 -26t-4 -26h-78v-648q0 -57 -13.5 -97t-39 -64.5t-61 -36t-78.5 -11.5q-26 0 -49 4.5t-41.5 10.5t-32.5 12.5t-20 10.5v68q23 -15 61.5 -31.5t89.5 -16.5q40 0 64 13.5t37 32.5
t17 37.5t4 29.5l-392 676v-615h80q4 -12 4 -26t-4 -26h-219q-4 12 -4 26t4 26h78z" />
    <glyph glyph-name="eng" unicode="&#x14b;" horiz-adv-x="572" 
d="M101 48v411h-71q-4 11 -4 24t4 24h127v-80q21 38 61 66t106 28q78 0 120 -44t42 -132v-394q0 -40 -10.5 -65.5t-28 -40t-40 -20t-45.5 -5.5q-21 0 -38.5 4t-31.5 10v50q10 -4 27 -9t36 -5q34 0 50.5 17.5t16.5 56.5v373q0 33 -4.5 60.5t-16.5 47t-34 30.5t-57 11
q-28 0 -54 -9.5t-46.5 -31.5t-32.5 -58.5t-12 -89.5v-229h66q4 -11 4 -24t-4 -24h-201q-4 11 -4 24t4 24h71z" />
    <glyph glyph-name="Omacron" unicode="&#x14c;" horiz-adv-x="780" 
d="M390 -18q-95 0 -159 36t-102.5 91.5t-55 123.5t-16.5 131t16.5 131t55 124t102.5 92t159 36t159 -36t102.5 -92t55 -124t16.5 -131t-16.5 -131t-55 -123.5t-102.5 -91.5t-159 -36zM390 38q57 0 105 23t82.5 65t53.5 102.5t19 135.5t-19 135.5t-53.5 103t-82.5 65.5
t-105 23t-105 -23t-82.5 -65.5t-53.5 -103t-19 -135.5t19 -135.5t53.5 -102.5t82.5 -65t105 -23zM241 868h298v-53h-298v53z" />
    <glyph glyph-name="omacron" unicode="&#x14d;" horiz-adv-x="540" 
d="M270 -14q-59 0 -102 23t-71.5 60.5t-42 86t-13.5 98.5t13.5 98t41.5 85.5t71 60.5t102 23t102 -23t71.5 -60.5t42.5 -85.5t14 -98t-13.5 -98t-42 -86t-71.5 -61t-102 -23zM269 40q51 0 83 23.5t49.5 57t24 70.5t6.5 63t-6.5 62.5t-24 70t-49 57t-82.5 23.5t-82.5 -23.5
t-49.5 -57t-24 -70t-6 -62.5t6 -63t23.5 -70.5t49 -57t82.5 -23.5zM121 656h298v-53h-298v53z" />
    <glyph glyph-name="Obreve" unicode="&#x14e;" horiz-adv-x="780" 
d="M390 -18q-95 0 -159 36t-102.5 91.5t-55 123.5t-16.5 131t16.5 131t55 124t102.5 92t159 36t159 -36t102.5 -92t55 -124t16.5 -131t-16.5 -131t-55 -123.5t-102.5 -91.5t-159 -36zM390 38q57 0 105 23t82.5 65t53.5 102.5t19 135.5t-19 135.5t-53.5 103t-82.5 65.5
t-105 23t-105 -23t-82.5 -65.5t-53.5 -103t-19 -135.5t19 -135.5t53.5 -102.5t82.5 -65t105 -23zM293 921q3 -13 8.5 -27.5t16.5 -27t28 -20.5t44 -8t44 8t28 20.5t17 27t9 27.5h49q-3 -22 -11 -45.5t-24.5 -42.5t-43.5 -31.5t-68 -12.5q-42 0 -68.5 12t-42.5 31t-24 42.5
t-11 46.5h49z" />
    <glyph glyph-name="obreve" unicode="&#x14f;" horiz-adv-x="540" 
d="M270 -14q-59 0 -102 23t-71.5 60.5t-42 86t-13.5 98.5t13.5 98t41.5 85.5t71 60.5t102 23t102 -23t71.5 -60.5t42.5 -85.5t14 -98t-13.5 -98t-42 -86t-71.5 -61t-102 -23zM269 40q51 0 83 23.5t49.5 57t24 70.5t6.5 63t-6.5 62.5t-24 70t-49 57t-82.5 23.5t-82.5 -23.5
t-49.5 -57t-24 -70t-6 -62.5t6 -63t23.5 -70.5t49 -57t82.5 -23.5zM172 709q3 -13 8.5 -27.5t16.5 -27t28 -20.5t44 -8t44 8t28 20.5t17 27t9 27.5h49q-3 -22 -11 -45.5t-24.5 -42.5t-43.5 -31.5t-68 -12.5q-42 0 -68.5 12t-42.5 31t-24 42.5t-11 46.5h49z" />
    <glyph glyph-name="Ohungarumlaut" unicode="&#x150;" horiz-adv-x="780" 
d="M390 -18q-95 0 -159 36t-102.5 91.5t-55 123.5t-16.5 131t16.5 131t55 124t102.5 92t159 36t159 -36t102.5 -92t55 -124t16.5 -131t-16.5 -131t-55 -123.5t-102.5 -91.5t-159 -36zM390 38q57 0 105 23t82.5 65t53.5 102.5t19 135.5t-19 135.5t-53.5 103t-82.5 65.5
t-105 23t-105 -23t-82.5 -65.5t-53.5 -103t-19 -135.5t19 -135.5t53.5 -102.5t82.5 -65t105 -23zM512 923h81l-110 -136h-51zM377 923h80l-109 -136h-51z" />
    <glyph glyph-name="ohungarumlaut" unicode="&#x151;" horiz-adv-x="540" 
d="M270 -14q-59 0 -102 23t-71.5 60.5t-42 86t-13.5 98.5t13.5 98t41.5 85.5t71 60.5t102 23t102 -23t71.5 -60.5t42.5 -85.5t14 -98t-13.5 -98t-42 -86t-71.5 -61t-102 -23zM269 40q51 0 83 23.5t49.5 57t24 70.5t6.5 63t-6.5 62.5t-24 70t-49 57t-82.5 23.5t-82.5 -23.5
t-49.5 -57t-24 -70t-6 -62.5t6 -63t23.5 -70.5t49 -57t82.5 -23.5zM392 711h81l-110 -136h-51zM257 711h80l-109 -136h-51z" />
    <glyph glyph-name="OE" unicode="&#x152;" horiz-adv-x="1052" 
d="M936 57v143q13 4 29 4q17 0 30 -4v-200h-410q-29 0 -54 -1t-50.5 -2.5t-53.5 -2.5t-62 -1q-80 0 -138.5 31.5t-96 83t-55.5 118.5t-18 138q0 68 18 135t57.5 119.5t102.5 85t153 32.5q63 0 113.5 -3.5t97.5 -3.5h390v-199q-13 -4 -30 -4q-16 0 -29 4v142h-327v-268h309
q4 -13 4 -28q0 -16 -4 -29h-309v-290h333zM536 671q-27 4 -63.5 6.5t-79.5 2.5q-61 0 -110 -21.5t-83 -62.5t-52 -99.5t-18 -132.5q0 -76 19 -135t51.5 -99t77 -60.5t95.5 -20.5q21 0 43.5 0.5t44 2t41 3t34.5 4.5v612z" />
    <glyph glyph-name="oe" unicode="&#x153;" horiz-adv-x="885" 
d="M823 26q-26 -14 -65.5 -27t-83.5 -13q-81 0 -132.5 34t-78.5 93q-26 -57 -74 -92t-119 -35q-59 0 -102 23t-71.5 60.5t-42 86t-13.5 98.5t13.5 98t41.5 85.5t71 60.5t102 23q70 0 117.5 -33t73.5 -89q25 56 69 89t111 33q58 0 97.5 -21.5t64 -58t35 -84.5t10.5 -100v-20
h-351q2 -39 14 -74.5t33.5 -62t54 -42t74.5 -15.5q53 0 87.5 15.5t63.5 33.5v-66zM777 286q0 29 -5.5 61t-20.5 59t-42 44.5t-70 17.5q-40 0 -67 -18.5t-44 -46t-24.5 -59.5t-7.5 -58h281zM269 40q51 0 83 23.5t49.5 57t24 70.5t6.5 63t-6.5 62.5t-24 70t-49 57t-82.5 23.5
t-82.5 -23.5t-49.5 -57t-24 -70t-6 -62.5t6 -63t23.5 -70.5t49 -57t82.5 -23.5z" />
    <glyph glyph-name="Racute" unicode="&#x154;" horiz-adv-x="684" 
d="M114 52v625h-78q-4 12 -4 26t4 26h341q43 0 69.5 -5t46.5 -14q51 -23 78 -70.5t27 -107.5q0 -29 -7.5 -59.5t-25 -58.5t-47.5 -49.5t-75 -31.5l147 -281h73q2 -6 3 -12t1 -14q0 -14 -4 -26h-130l-164 329h-188v-277h93q4 -12 4 -26t-4 -26h-238q-4 12 -4 26t4 26h78z
M372 385q34 0 62 8t48.5 25.5t32 45.5t11.5 67q0 48 -18 79.5t-50 46.5q-33 16 -91 16h-186v-288h191zM365 923h90l-126 -136h-59z" />
    <glyph glyph-name="racute" unicode="&#x155;" horiz-adv-x="369" 
d="M101 48v411h-71q-4 11 -4 24t4 24h127v-103q7 18 21 36.5t32.5 33.5t41 24.5t48.5 9.5q19 0 32 -2.5t23 -5.5l-6 -62q-8 4 -20 7.5t-35 3.5q-21 0 -43.5 -10t-41.5 -33.5t-31.5 -61.5t-12.5 -93v-203h76q4 -11 4 -24t-4 -24h-211q-4 11 -4 24t4 24h71zM266 711h90
l-126 -136h-59z" />
    <glyph glyph-name="Rcommaaccent" unicode="&#x156;" horiz-adv-x="684" 
d="M114 52v625h-78q-4 12 -4 26t4 26h341q43 0 69.5 -5t46.5 -14q51 -23 78 -70.5t27 -107.5q0 -29 -7.5 -59.5t-25 -58.5t-47.5 -49.5t-75 -31.5l147 -281h73q2 -6 3 -12t1 -14q0 -14 -4 -26h-130l-164 329h-188v-277h93q4 -12 4 -26t-4 -26h-238q-4 12 -4 26t4 26h78z
M372 385q34 0 62 8t48.5 25.5t32 45.5t11.5 67q0 48 -18 79.5t-50 46.5q-33 16 -91 16h-186v-288h191zM306 -179q20 7 36 21t18 31q-4 -1 -18 -1q-17 0 -29 9t-12 28q0 17 12 29.5t35 12.5q20 0 36.5 -14t16.5 -46q0 -25 -10 -43.5t-24 -31.5t-31 -20t-30 -10v35z" />
    <glyph glyph-name="rcommaaccent" unicode="&#x157;" horiz-adv-x="369" 
d="M101 48v411h-71q-4 11 -4 24t4 24h127v-103q7 18 21 36.5t32.5 33.5t41 24.5t48.5 9.5q19 0 32 -2.5t23 -5.5l-6 -62q-8 4 -20 7.5t-35 3.5q-21 0 -43.5 -10t-41.5 -33.5t-31.5 -61.5t-12.5 -93v-203h76q4 -11 4 -24t-4 -24h-211q-4 11 -4 24t4 24h71zM93 -179
q20 7 36 21t18 31q-4 -1 -18 -1q-17 0 -29 9t-12 28q0 17 12 29.5t35 12.5q20 0 36.5 -14t16.5 -46q0 -25 -10 -43.5t-24 -31.5t-31 -20t-30 -10v35z" />
    <glyph glyph-name="Rcaron" unicode="&#x158;" horiz-adv-x="684" 
d="M114 52v625h-78q-4 12 -4 26t4 26h341q43 0 69.5 -5t46.5 -14q51 -23 78 -70.5t27 -107.5q0 -29 -7.5 -59.5t-25 -58.5t-47.5 -49.5t-75 -31.5l147 -281h73q2 -6 3 -12t1 -14q0 -14 -4 -26h-130l-164 329h-188v-277h93q4 -12 4 -26t-4 -26h-238q-4 12 -4 26t4 26h78z
M372 385q34 0 62 8t48.5 25.5t32 45.5t11.5 67q0 48 -18 79.5t-50 46.5q-33 16 -91 16h-186v-288h191zM192 923h62l73 -94l73 94h62l-101 -136h-67z" />
    <glyph glyph-name="rcaron" unicode="&#x159;" horiz-adv-x="369" 
d="M101 48v411h-71q-4 11 -4 24t4 24h127v-103q7 18 21 36.5t32.5 33.5t41 24.5t48.5 9.5q19 0 32 -2.5t23 -5.5l-6 -62q-8 4 -20 7.5t-35 3.5q-21 0 -43.5 -10t-41.5 -33.5t-31.5 -61.5t-12.5 -93v-203h76q4 -11 4 -24t-4 -24h-211q-4 11 -4 24t4 24h71zM67 711h62l73 -94
l73 94h62l-101 -136h-67z" />
    <glyph glyph-name="Sacute" unicode="&#x15a;" horiz-adv-x="632" 
d="M50 250q13 4 29 4q17 0 30 -4v-34q0 -35 17 -67t47.5 -56t73.5 -38.5t95 -14.5q91 0 136 36.5t45 102.5q0 33 -10.5 56.5t-28 40t-41.5 27.5t-51 19l-180 51q-30 8 -56.5 22t-46.5 35t-31.5 50t-11.5 67q0 48 18 85t49 62.5t72.5 39t87.5 13.5q75 0 124 -23.5t83 -68.5
v74q13 4 28 4q16 0 29 -4v-233q-13 -4 -29 -4t-29 4v25q0 34 -13 64.5t-38 53.5t-63 37t-87 14q-34 0 -64 -8.5t-52 -25.5t-35 -42t-13 -59q0 -49 28.5 -77t84.5 -44l173 -49q40 -12 72.5 -29t54.5 -41.5t34 -57.5t12 -77q0 -47 -17.5 -83.5t-49.5 -61.5t-76.5 -38.5
t-98.5 -13.5q-87 0 -144.5 25.5t-98.5 75.5v-84q-13 -4 -29 -4t-29 4v250zM375 923h90l-126 -136h-59z" />
    <glyph glyph-name="sacute" unicode="&#x15b;" horiz-adv-x="487" 
d="M48 181q6 2 13 3t13 1t13 -1t13 -3v-17q0 -31 13 -54.5t35 -39t50.5 -23.5t60.5 -8q25 0 46.5 4.5t38 15t26 26.5t9.5 40q0 22 -8 37.5t-22.5 27t-34.5 19t-45 14.5l-93 25q-60 16 -90 46t-30 79q0 39 14.5 67t38 45.5t53.5 25.5t61 8q51 0 87 -16t55 -45v49q6 2 13 3
t13 1q14 0 25 -4v-163q-12 -4 -26 -4t-26 4v23q0 16 -8 34t-24.5 33.5t-42.5 26t-62 10.5q-22 0 -42 -4.5t-35 -15t-24 -27t-9 -39.5q0 -20 6.5 -33t19 -22.5t31 -16t42.5 -12.5l83 -22q39 -10 67 -23t45 -31t25 -41.5t8 -55.5q0 -34 -13.5 -60t-37 -43.5t-56.5 -26.5
t-72 -9q-52 0 -95.5 15.5t-69.5 48.5v-52q-12 -4 -26 -4t-26 4v180zM306 711h90l-126 -136h-59z" />
    <glyph glyph-name="Scircumflex" unicode="&#x15c;" horiz-adv-x="632" 
d="M50 250q13 4 29 4q17 0 30 -4v-34q0 -35 17 -67t47.5 -56t73.5 -38.5t95 -14.5q91 0 136 36.5t45 102.5q0 33 -10.5 56.5t-28 40t-41.5 27.5t-51 19l-180 51q-30 8 -56.5 22t-46.5 35t-31.5 50t-11.5 67q0 48 18 85t49 62.5t72.5 39t87.5 13.5q75 0 124 -23.5t83 -68.5
v74q13 4 28 4q16 0 29 -4v-233q-13 -4 -29 -4t-29 4v25q0 34 -13 64.5t-38 53.5t-63 37t-87 14q-34 0 -64 -8.5t-52 -25.5t-35 -42t-13 -59q0 -49 28.5 -77t84.5 -44l173 -49q40 -12 72.5 -29t54.5 -41.5t34 -57.5t12 -77q0 -47 -17.5 -83.5t-49.5 -61.5t-76.5 -38.5
t-98.5 -13.5q-87 0 -144.5 25.5t-98.5 75.5v-84q-13 -4 -29 -4t-29 4v250zM306 923h67l102 -136h-62l-73 94l-73 -94h-62z" />
    <glyph glyph-name="scircumflex" unicode="&#x15d;" horiz-adv-x="487" 
d="M48 181q6 2 13 3t13 1t13 -1t13 -3v-17q0 -31 13 -54.5t35 -39t50.5 -23.5t60.5 -8q25 0 46.5 4.5t38 15t26 26.5t9.5 40q0 22 -8 37.5t-22.5 27t-34.5 19t-45 14.5l-93 25q-60 16 -90 46t-30 79q0 39 14.5 67t38 45.5t53.5 25.5t61 8q51 0 87 -16t55 -45v49q6 2 13 3
t13 1q14 0 25 -4v-163q-12 -4 -26 -4t-26 4v23q0 16 -8 34t-24.5 33.5t-42.5 26t-62 10.5q-22 0 -42 -4.5t-35 -15t-24 -27t-9 -39.5q0 -20 6.5 -33t19 -22.5t31 -16t42.5 -12.5l83 -22q39 -10 67 -23t45 -31t25 -41.5t8 -55.5q0 -34 -13.5 -60t-37 -43.5t-56.5 -26.5
t-72 -9q-52 0 -95.5 15.5t-69.5 48.5v-52q-12 -4 -26 -4t-26 4v180zM216 711h67l102 -136h-62l-73 94l-73 -94h-62z" />
    <glyph glyph-name="Scedilla" unicode="&#x15e;" horiz-adv-x="632" 
d="M239 -159q14 -5 28 -9.5t32 -4.5q9 0 19 1.5t18.5 6t13.5 12.5t5 21q0 23 -16 30.5t-31 7.5q-7 0 -17 -1.5t-21 -6.5l-17 19l51 68q-67 7 -114 31.5t-82 67.5v-84q-13 -4 -29 -4t-29 4v250q13 4 29 4q17 0 30 -4v-34q0 -35 17 -67t47.5 -56t73.5 -38.5t95 -14.5
q91 0 136 36.5t45 102.5q0 33 -10.5 56.5t-28 40t-41.5 27.5t-51 19l-180 51q-30 8 -56.5 22t-46.5 35t-31.5 50t-11.5 67q0 48 18 85t49 62.5t72.5 39t87.5 13.5q75 0 124 -23.5t83 -68.5v74q13 4 28 4q16 0 29 -4v-233q-13 -4 -29 -4t-29 4v25q0 34 -13 64.5t-38 53.5
t-63 37t-87 14q-34 0 -64 -8.5t-52 -25.5t-35 -42t-13 -59q0 -49 28.5 -77t84.5 -44l173 -49q40 -12 72.5 -29t54.5 -41.5t34 -57.5t12 -77q0 -47 -17.5 -83.5t-49.5 -61.5t-76.5 -38.5t-98.5 -13.5h-3l-35 -44q4 1 9.5 1h13.5q40 0 58.5 -22t18.5 -47q0 -36 -26.5 -60.5
t-76.5 -24.5q-26 0 -48.5 7.5t-35.5 12.5z" />
    <glyph glyph-name="scedilla" unicode="&#x15f;" horiz-adv-x="487" 
d="M153 -159q14 -5 28 -9.5t32 -4.5q9 0 19 1.5t18.5 6t13.5 12.5t5 21q0 23 -16 30.5t-31 7.5q-7 0 -17 -1.5t-21 -6.5l-17 19l56 75q-39 5 -71 20t-52 41v-52q-12 -4 -26 -4t-26 4v180q6 2 13 3t13 1t13 -1t13 -3v-17q0 -31 13 -54.5t35 -39t50.5 -23.5t60.5 -8
q25 0 46.5 4.5t38 15t26 26.5t9.5 40q0 22 -8 37.5t-22.5 27t-34.5 19t-45 14.5l-93 25q-60 16 -90 46t-30 79q0 39 14.5 67t38 45.5t53.5 25.5t61 8q51 0 87 -16t55 -45v49q6 2 13 3t13 1q14 0 25 -4v-163q-12 -4 -26 -4t-26 4v23q0 16 -8 34t-24.5 33.5t-42.5 26t-62 10.5
q-22 0 -42 -4.5t-35 -15t-24 -27t-9 -39.5q0 -20 6.5 -33t19 -22.5t31 -16t42.5 -12.5l83 -22q39 -10 67 -23t45 -31t25 -41.5t8 -55.5q0 -34 -13.5 -59.5t-37 -43t-56 -27t-71.5 -9.5l-39 -50q4 1 9.5 1h13.5q40 0 58.5 -22t18.5 -47q0 -36 -26.5 -60.5t-76.5 -24.5
q-26 0 -48.5 7.5t-35.5 12.5z" />
    <glyph glyph-name="Scaron" unicode="&#x160;" horiz-adv-x="632" 
d="M50 250q13 4 29 4q17 0 30 -4v-34q0 -35 17 -67t47.5 -56t73.5 -38.5t95 -14.5q91 0 136 36.5t45 102.5q0 33 -10.5 56.5t-28 40t-41.5 27.5t-51 19l-180 51q-30 8 -56.5 22t-46.5 35t-31.5 50t-11.5 67q0 48 18 85t49 62.5t72.5 39t87.5 13.5q75 0 124 -23.5t83 -68.5
v74q13 4 28 4q16 0 29 -4v-233q-13 -4 -29 -4t-29 4v25q0 34 -13 64.5t-38 53.5t-63 37t-87 14q-34 0 -64 -8.5t-52 -25.5t-35 -42t-13 -59q0 -49 28.5 -77t84.5 -44l173 -49q40 -12 72.5 -29t54.5 -41.5t34 -57.5t12 -77q0 -47 -17.5 -83.5t-49.5 -61.5t-76.5 -38.5
t-98.5 -13.5q-87 0 -144.5 25.5t-98.5 75.5v-84q-13 -4 -29 -4t-29 4v250zM194 923h62l73 -94l73 94h62l-101 -136h-67z" />
    <glyph glyph-name="scaron" unicode="&#x161;" horiz-adv-x="487" 
d="M48 181q6 2 13 3t13 1t13 -1t13 -3v-17q0 -31 13 -54.5t35 -39t50.5 -23.5t60.5 -8q25 0 46.5 4.5t38 15t26 26.5t9.5 40q0 22 -8 37.5t-22.5 27t-34.5 19t-45 14.5l-93 25q-60 16 -90 46t-30 79q0 39 14.5 67t38 45.5t53.5 25.5t61 8q51 0 87 -16t55 -45v49q6 2 13 3
t13 1q14 0 25 -4v-163q-12 -4 -26 -4t-26 4v23q0 16 -8 34t-24.5 33.5t-42.5 26t-62 10.5q-22 0 -42 -4.5t-35 -15t-24 -27t-9 -39.5q0 -20 6.5 -33t19 -22.5t31 -16t42.5 -12.5l83 -22q39 -10 67 -23t45 -31t25 -41.5t8 -55.5q0 -34 -13.5 -60t-37 -43.5t-56.5 -26.5
t-72 -9q-52 0 -95.5 15.5t-69.5 48.5v-52q-12 -4 -26 -4t-26 4v180zM114 711h62l73 -94l73 94h62l-101 -136h-67z" />
    <glyph glyph-name="Tcommaaccent" unicode="&#x162;" horiz-adv-x="676" 
d="M304 52v623h-208v-158q-13 -4 -30 -4q-16 0 -29 4v212h602v-212q-13 -4 -30 -4q-16 0 -29 4v158h-208v-623h82q4 -12 4 -26t-4 -26h-232q-4 12 -4 26t4 26h82zM294 -179q20 7 36 21t18 31q-4 -1 -18 -1q-17 0 -29 9t-12 28q0 17 12 29.5t35 12.5q20 0 36.5 -14t16.5 -46
q0 -25 -10 -43.5t-24 -31.5t-31 -20t-30 -10v35z" />
    <glyph glyph-name="tcommaaccent" unicode="&#x163;" horiz-adv-x="311" 
d="M91 459h-80q-4 11 -4 24t4 24h80v139l64 36v-175h124q4 -11 4 -24t-4 -24h-124v-324q0 -29 6.5 -46t17.5 -27q19 -16 49 -16q24 0 40 5t26 10v-53q-14 -8 -35 -11.5t-39 -3.5q-63 0 -96 35t-33 100v331zM143 -179q20 7 36 21t18 31q-4 -1 -18 -1q-17 0 -29 9t-12 28
q0 17 12 29.5t35 12.5q20 0 36.5 -14t16.5 -46q0 -25 -10 -43.5t-24 -31.5t-31 -20t-30 -10v35z" />
    <glyph glyph-name="Tcaron" unicode="&#x164;" horiz-adv-x="676" 
d="M304 52v623h-208v-158q-13 -4 -30 -4q-16 0 -29 4v212h602v-212q-13 -4 -30 -4q-16 0 -29 4v158h-208v-623h82q4 -12 4 -26t-4 -26h-232q-4 12 -4 26t4 26h82zM206 923h62l73 -94l73 94h62l-101 -136h-67z" />
    <glyph glyph-name="tcaron" unicode="&#x165;" horiz-adv-x="311" 
d="M91 459h-80q-4 11 -4 24t4 24h80v139l64 36v-175h124q4 -11 4 -24t-4 -24h-124v-324q0 -29 6.5 -46t17.5 -27q19 -16 49 -16q24 0 40 5t26 10v-53q-14 -8 -35 -11.5t-39 -3.5q-63 0 -96 35t-33 100v331zM212 758h66l-26 -198h-40v198z" />
    <glyph glyph-name="Tbar" unicode="&#x166;" horiz-adv-x="676" 
d="M304 52v292h-171v53h171v278h-208v-158q-13 -4 -30 -4q-16 0 -29 4v212h602v-212q-13 -4 -30 -4q-16 0 -29 4v158h-208v-278h171v-53h-171v-292h82q4 -12 4 -26t-4 -26h-232q-4 12 -4 26t4 26h82z" />
    <glyph glyph-name="tbar" unicode="&#x167;" horiz-adv-x="311" 
d="M91 254h-84v53h84v152h-80q-4 11 -4 24t4 24h80v139l64 36v-175h124q4 -11 4 -24t-4 -24h-124v-152h139v-53h-139v-119q0 -29 6.5 -46t17.5 -27q19 -16 49 -16q24 0 40 5t26 10v-53q-14 -8 -35 -11.5t-39 -3.5q-63 0 -96 35t-33 100v126z" />
    <glyph glyph-name="Utilde" unicode="&#x168;" horiz-adv-x="742" 
d="M108 677h-78q-4 12 -4 26t4 26h224q4 -12 4 -26t-4 -26h-78v-424q0 -61 17 -101.5t44.5 -65t62.5 -34.5t71 -10q39 0 74.5 10t62.5 33.5t43.5 62.5t16.5 98v431h-78q-4 12 -4 26t4 26h221q4 -12 4 -26t-4 -26h-78v-436q0 -53 -15 -100t-46.5 -82.5t-80.5 -56t-118 -20.5
t-119 20t-82.5 56t-48 86.5t-15.5 110.5v422zM207 807q8 44 31.5 72.5t68.5 28.5q29 0 48 -9t38 -17q22 -9 35 -14.5t27 -5.5q23 0 32.5 17t14.5 32h47q-8 -45 -31 -73t-68 -28q-23 0 -43.5 8.5t-43.5 19.5q-13 5 -21 8.5t-14.5 5.5t-12.5 3t-14 1q-11 0 -19 -5.5t-13.5 -13
t-9 -16t-5.5 -14.5h-47z" />
    <glyph glyph-name="utilde" unicode="&#x169;" horiz-adv-x="577" 
d="M96 459h-71q-4 11 -4 24t4 24h134v-317q0 -33 4.5 -60.5t17 -47t34.5 -30.5t57 -11q27 0 53.5 9.5t46.5 31.5t32.5 58.5t12.5 89.5v229h-71q-4 11 -4 24t4 24h135v-459h70q4 -11 4 -24t-4 -24h-126v80q-11 -19 -26.5 -36.5t-35.5 -30.5t-46 -20.5t-59 -7.5q-78 0 -120 44
t-42 133v297zM109 595q8 44 31.5 72.5t68.5 28.5q29 0 48 -9t38 -17q22 -9 35 -14.5t27 -5.5q23 0 32.5 17t14.5 32h47q-8 -45 -31 -73t-68 -28q-23 0 -43.5 8.5t-43.5 19.5q-13 5 -21 8.5t-14.5 5.5t-12.5 3t-14 1q-11 0 -19 -5.5t-13.5 -13t-9 -16t-5.5 -14.5h-47z" />
    <glyph glyph-name="Umacron" unicode="&#x16a;" horiz-adv-x="742" 
d="M108 677h-78q-4 12 -4 26t4 26h224q4 -12 4 -26t-4 -26h-78v-424q0 -61 17 -101.5t44.5 -65t62.5 -34.5t71 -10q39 0 74.5 10t62.5 33.5t43.5 62.5t16.5 98v431h-78q-4 12 -4 26t4 26h221q4 -12 4 -26t-4 -26h-78v-436q0 -53 -15 -100t-46.5 -82.5t-80.5 -56t-118 -20.5
t-119 20t-82.5 56t-48 86.5t-15.5 110.5v422zM222 868h298v-53h-298v53z" />
    <glyph glyph-name="umacron" unicode="&#x16b;" horiz-adv-x="577" 
d="M96 459h-71q-4 11 -4 24t4 24h134v-317q0 -33 4.5 -60.5t17 -47t34.5 -30.5t57 -11q27 0 53.5 9.5t46.5 31.5t32.5 58.5t12.5 89.5v229h-71q-4 11 -4 24t4 24h135v-459h70q4 -11 4 -24t-4 -24h-126v80q-11 -19 -26.5 -36.5t-35.5 -30.5t-46 -20.5t-59 -7.5q-78 0 -120 44
t-42 133v297zM139 656h298v-53h-298v53z" />
    <glyph glyph-name="Ubreve" unicode="&#x16c;" horiz-adv-x="742" 
d="M108 677h-78q-4 12 -4 26t4 26h224q4 -12 4 -26t-4 -26h-78v-424q0 -61 17 -101.5t44.5 -65t62.5 -34.5t71 -10q39 0 74.5 10t62.5 33.5t43.5 62.5t16.5 98v431h-78q-4 12 -4 26t4 26h221q4 -12 4 -26t-4 -26h-78v-436q0 -53 -15 -100t-46.5 -82.5t-80.5 -56t-118 -20.5
t-119 20t-82.5 56t-48 86.5t-15.5 110.5v422zM273 921q3 -13 8.5 -27.5t16.5 -27t28 -20.5t44 -8t44 8t28 20.5t17 27t9 27.5h49q-3 -22 -11 -45.5t-24.5 -42.5t-43.5 -31.5t-68 -12.5q-42 0 -68.5 12t-42.5 31t-24 42.5t-11 46.5h49z" />
    <glyph glyph-name="ubreve" unicode="&#x16d;" horiz-adv-x="577" 
d="M96 459h-71q-4 11 -4 24t4 24h134v-317q0 -33 4.5 -60.5t17 -47t34.5 -30.5t57 -11q27 0 53.5 9.5t46.5 31.5t32.5 58.5t12.5 89.5v229h-71q-4 11 -4 24t4 24h135v-459h70q4 -11 4 -24t-4 -24h-126v80q-11 -19 -26.5 -36.5t-35.5 -30.5t-46 -20.5t-59 -7.5q-78 0 -120 44
t-42 133v297zM182 709q3 -13 8.5 -27.5t16.5 -27t28 -20.5t44 -8t44 8t28 20.5t17 27t9 27.5h49q-3 -22 -11 -45.5t-24.5 -42.5t-43.5 -31.5t-68 -12.5q-42 0 -68.5 12t-42.5 31t-24 42.5t-11 46.5h49z" />
    <glyph glyph-name="Uring" unicode="&#x16e;" horiz-adv-x="742" 
d="M108 677h-78q-4 12 -4 26t4 26h224q4 -12 4 -26t-4 -26h-78v-424q0 -61 17 -101.5t44.5 -65t62.5 -34.5t71 -10q39 0 74.5 10t62.5 33.5t43.5 62.5t16.5 98v431h-78q-4 12 -4 26t4 26h221q4 -12 4 -26t-4 -26h-78v-436q0 -53 -15 -100t-46.5 -82.5t-80.5 -56t-118 -20.5
t-119 20t-82.5 56t-48 86.5t-15.5 110.5v422zM265 889q0 21 8 40t22.5 33.5t33.5 22.5t40 8t40.5 -8t33.5 -22.5t22.5 -33.5t8.5 -40t-8 -40t-22.5 -33.5t-33.5 -22.5t-40 -8t-40.5 8t-33.5 22.5t-22.5 33.5t-8.5 40zM436 889q0 26 -20 46.5t-46 20.5q-27 0 -47 -20t-20 -47
q0 -26 20 -46.5t46 -20.5q27 0 46.5 20t19.5 47h1z" />
    <glyph glyph-name="uring" unicode="&#x16f;" horiz-adv-x="577" 
d="M96 459h-71q-4 11 -4 24t4 24h134v-317q0 -33 4.5 -60.5t17 -47t34.5 -30.5t57 -11q27 0 53.5 9.5t46.5 31.5t32.5 58.5t12.5 89.5v229h-71q-4 11 -4 24t4 24h135v-459h70q4 -11 4 -24t-4 -24h-126v80q-11 -19 -26.5 -36.5t-35.5 -30.5t-46 -20.5t-59 -7.5q-78 0 -120 44
t-42 133v297zM182 677q0 21 8 40t22.5 33.5t33.5 22.5t40 8t40.5 -8t33.5 -22.5t22.5 -33.5t8.5 -40t-8 -40t-22.5 -33.5t-33.5 -22.5t-40 -8t-40.5 8t-33.5 22.5t-22.5 33.5t-8.5 40zM353 677q0 26 -20 46.5t-46 20.5q-27 0 -47 -20t-20 -47q0 -26 20 -46.5t46 -20.5
q27 0 46.5 20t19.5 47h1z" />
    <glyph glyph-name="Uhungarumlaut" unicode="&#x170;" horiz-adv-x="742" 
d="M108 677h-78q-4 12 -4 26t4 26h224q4 -12 4 -26t-4 -26h-78v-424q0 -61 17 -101.5t44.5 -65t62.5 -34.5t71 -10q39 0 74.5 10t62.5 33.5t43.5 62.5t16.5 98v431h-78q-4 12 -4 26t4 26h221q4 -12 4 -26t-4 -26h-78v-436q0 -53 -15 -100t-46.5 -82.5t-80.5 -56t-118 -20.5
t-119 20t-82.5 56t-48 86.5t-15.5 110.5v422zM501 923h81l-110 -136h-51zM366 923h80l-109 -136h-51z" />
    <glyph glyph-name="uhungarumlaut" unicode="&#x171;" horiz-adv-x="577" 
d="M96 459h-71q-4 11 -4 24t4 24h134v-317q0 -33 4.5 -60.5t17 -47t34.5 -30.5t57 -11q27 0 53.5 9.5t46.5 31.5t32.5 58.5t12.5 89.5v229h-71q-4 11 -4 24t4 24h135v-459h70q4 -11 4 -24t-4 -24h-126v80q-11 -19 -26.5 -36.5t-35.5 -30.5t-46 -20.5t-59 -7.5q-78 0 -120 44
t-42 133v297zM396 711h81l-110 -136h-51zM261 711h80l-109 -136h-51z" />
    <glyph glyph-name="Uogonek" unicode="&#x172;" horiz-adv-x="742" 
d="M460 -193q-11 -5 -34 -12.5t-51 -7.5q-44 0 -75.5 23t-31.5 67q0 30 17 59t49 48q-59 6 -101.5 28t-70 57.5t-41 82.5t-13.5 103v422h-78q-4 12 -4 26t4 26h224q4 -12 4 -26t-4 -26h-78v-424q0 -61 17 -101.5t44.5 -65t62.5 -34.5t71 -10q39 0 74.5 10t62.5 33.5
t43.5 62.5t16.5 98v431h-78q-4 12 -4 26t4 26h221q4 -12 4 -26t-4 -26h-78v-436q0 -51 -13.5 -96t-42 -79.5t-73 -56.5t-106.5 -26q-37 -23 -53.5 -48t-16.5 -54q0 -26 17.5 -39t37.5 -13q34 0 63 13z" />
    <glyph glyph-name="uogonek" unicode="&#x173;" horiz-adv-x="577" 
d="M96 459h-71q-4 11 -4 24t4 24h134v-317q0 -33 4.5 -60.5t17 -47t34.5 -30.5t57 -11q27 0 53.5 9.5t46.5 31.5t32.5 58.5t12.5 89.5v229h-71q-4 11 -4 24t4 24h135v-459h70q4 -11 4 -24t-4 -24h-21q-54 -26 -78 -55t-24 -64q0 -26 17.5 -39t37.5 -13q34 0 63 13l14 -35
q-11 -5 -34 -12.5t-51 -7.5q-44 0 -75.5 23t-31.5 67q0 19 7 38t20.5 35.5t33 29.5t43.5 20h-47v80q-11 -19 -26.5 -36.5t-35.5 -30.5t-46 -20.5t-59 -7.5q-78 0 -120 44t-42 133v297z" />
    <glyph glyph-name="Wcircumflex" unicode="&#x174;" horiz-adv-x="1011" 
d="M83 677h-69q-4 12 -4 26t4 26h229q4 -12 4 -26t-4 -26h-91l147 -603l173 655h73l164 -655l159 603h-88q-4 12 -4 26t4 26h217q4 -12 4 -26t-4 -26h-68l-189 -686h-73l-162 645l-173 -645h-73zM471 923h67l102 -136h-62l-73 94l-73 -94h-62z" />
    <glyph glyph-name="wcircumflex" unicode="&#x175;" horiz-adv-x="784" 
d="M64 459h-53q-4 11 -4 24t4 24h190q4 -11 4 -24t-4 -24h-69l66 -236q2 -7 8.5 -32.5t13.5 -54.5t13 -55.5t8 -35.5q1 9 7 34t12.5 52.5t12 51.5t7.5 31l78 293h74l78 -292q2 -7 8 -31t12.5 -52t12 -53t7.5 -34q1 9 7.5 35t14 55t14 54t8.5 32l65 238h-65q-4 11 -4 24t4 24
h179q4 -11 4 -24t-4 -24h-53l-134 -462h-74l-77 281q-2 7 -8 30.5t-13.5 51.5t-13.5 53t-8 35q-1 -9 -7 -34.5t-13 -53t-13.5 -51.5t-8.5 -31l-76 -281h-74zM358 711h67l102 -136h-62l-73 94l-73 -94h-62z" />
    <glyph glyph-name="Ycircumflex" unicode="&#x176;" horiz-adv-x="711" 
d="M317 52v242l-246 383h-57q-4 12 -4 26t4 26h231q4 -12 4 -26t-4 -26h-100l211 -329l215 329h-97q-4 12 -4 26t4 26h222q4 -12 4 -26t-4 -26h-57l-255 -384v-241h83q4 -12 4 -26t-4 -26h-233q-4 12 -4 26t4 26h83zM319 923h67l102 -136h-62l-73 94l-73 -94h-62z" />
    <glyph glyph-name="ycircumflex" unicode="&#x177;" horiz-adv-x="528" 
d="M49 -113q16 -6 33.5 -10t35.5 -4t32.5 3.5t27.5 14t25 31t23 53.5l6 18l-168 466h-53q-4 11 -4 24t4 24h190q4 -11 4 -24t-4 -24h-69l136 -391l135 391h-64q-4 11 -4 24t4 24h178q4 -11 4 -24t-4 -24h-53l-183 -510q-23 -64 -54 -93q-23 -22 -49.5 -29t-55.5 -7
q-26 0 -42 4.5t-31 9.5v53zM226 711h67l102 -136h-62l-73 94l-73 -94h-62z" />
    <glyph glyph-name="Ydieresis" unicode="&#x178;" horiz-adv-x="711" 
d="M317 52v242l-246 383h-57q-4 12 -4 26t4 26h231q4 -12 4 -26t-4 -26h-100l211 -329l215 329h-97q-4 12 -4 26t4 26h222q4 -12 4 -26t-4 -26h-57l-255 -384v-241h83q4 -12 4 -26t-4 -26h-233q-4 12 -4 26t4 26h83zM444 801q-17 0 -30.5 14t-13.5 35t13.5 35t30.5 14
t31 -14t14 -35t-14 -35t-31 -14zM271 801q-17 0 -31 14t-14 35t14 35t31 14t30.5 -14t13.5 -35t-13.5 -35t-30.5 -14z" />
    <glyph glyph-name="Zacute" unicode="&#x179;" horiz-adv-x="615" 
d="M32 57l454 615h-375v-146q-13 -4 -29 -4q-17 0 -30 4v203h512v-57l-454 -615h414v149q13 4 29 4q17 0 30 -4v-206h-551v57zM386 923h90l-126 -136h-59z" />
    <glyph glyph-name="zacute" unicode="&#x17a;" horiz-adv-x="431" 
d="M21 55l314 403h-247v-105q-12 -4 -27 -4t-27 4v154h367v-55l-314 -403h269v104q12 4 27 4t27 -4v-153h-389v55zM291 711h90l-126 -136h-59z" />
    <glyph glyph-name="Zdotaccent" unicode="&#x17b;" horiz-adv-x="615" 
d="M32 57l454 615h-375v-146q-13 -4 -29 -4q-17 0 -30 4v203h512v-57l-454 -615h414v149q13 4 29 4q17 0 30 -4v-206h-551v57zM318 801q-17 0 -31 14t-14 35t14 35t31 14t30.5 -14t13.5 -35t-13.5 -35t-30.5 -14z" />
    <glyph glyph-name="zdotaccent" unicode="&#x17c;" horiz-adv-x="431" 
d="M21 55l314 403h-247v-105q-12 -4 -27 -4t-27 4v154h367v-55l-314 -403h269v104q12 4 27 4t27 -4v-153h-389v55zM227 589q-17 0 -31 14t-14 35t14 35t31 14t30.5 -14t13.5 -35t-13.5 -35t-30.5 -14z" />
    <glyph glyph-name="Zcaron" unicode="&#x17d;" horiz-adv-x="615" 
d="M32 57l454 615h-375v-146q-13 -4 -29 -4q-17 0 -30 4v203h512v-57l-454 -615h414v149q13 4 29 4q17 0 30 -4v-206h-551v57zM185 923h62l73 -94l73 94h62l-101 -136h-67z" />
    <glyph glyph-name="zcaron" unicode="&#x17e;" horiz-adv-x="431" 
d="M21 55l314 403h-247v-105q-12 -4 -27 -4t-27 4v154h367v-55l-314 -403h269v104q12 4 27 4t27 -4v-153h-389v55zM87 711h62l73 -94l73 94h62l-101 -136h-67z" />
    <glyph glyph-name="longs" unicode="&#x17f;" horiz-adv-x="264" 
d="M100 48v560q0 44 12 74.5t31.5 49.5t44.5 27.5t52 8.5q24 0 41 -3.5t31 -8.5v-55q-7 3 -23 8.5t-42 5.5q-35 0 -59 -23.5t-24 -80.5v-563h102q4 -11 4 -24t-4 -24h-241q-4 11 -4 24t4 24h75z" />
    <glyph glyph-name="florin" unicode="&#x192;" horiz-adv-x="542" 
d="M28 -118q9 -4 23.5 -8t31.5 -4q35 0 56 22.5t31 81.5l82 483h-132q-1 5 -1 7.5v5.5q0 12 3 22t6 15h133l14 89q8 51 26 84t41.5 52.5t50 27.5t51.5 8q26 0 42.5 -4.5t30.5 -9.5l-13 -52q-11 5 -24 9t-36 4q-37 0 -65.5 -25t-39.5 -89l-16 -94h155q1 -5 1 -7.5v-5.5
q0 -12 -3 -22t-6 -15h-156l-80 -482q-8 -48 -23.5 -78.5t-36 -47.5t-44.5 -23t-49 -6q-23 0 -39.5 4.5t-26.5 8.5z" />
    <glyph glyph-name="Scommaaccent" unicode="&#x218;" horiz-adv-x="632" 
d="M50 250q13 4 29 4q17 0 30 -4v-34q0 -35 17 -67t47.5 -56t73.5 -38.5t95 -14.5q91 0 136 36.5t45 102.5q0 33 -10.5 56.5t-28 40t-41.5 27.5t-51 19l-180 51q-30 8 -56.5 22t-46.5 35t-31.5 50t-11.5 67q0 48 18 85t49 62.5t72.5 39t87.5 13.5q75 0 124 -23.5t83 -68.5
v74q13 4 28 4q16 0 29 -4v-233q-13 -4 -29 -4t-29 4v25q0 34 -13 64.5t-38 53.5t-63 37t-87 14q-34 0 -64 -8.5t-52 -25.5t-35 -42t-13 -59q0 -49 28.5 -77t84.5 -44l173 -49q40 -12 72.5 -29t54.5 -41.5t34 -57.5t12 -77q0 -47 -17.5 -83.5t-49.5 -61.5t-76.5 -38.5
t-98.5 -13.5q-87 0 -144.5 25.5t-98.5 75.5v-84q-13 -4 -29 -4t-29 4v250zM276 -179q20 7 36 21t18 31q-4 -1 -18 -1q-17 0 -29 9t-12 28q0 17 12 29.5t35 12.5q20 0 36.5 -14t16.5 -46q0 -25 -10 -43.5t-24 -31.5t-31 -20t-30 -10v35z" />
    <glyph glyph-name="scommaaccent" unicode="&#x219;" horiz-adv-x="487" 
d="M48 181q6 2 13 3t13 1t13 -1t13 -3v-17q0 -31 13 -54.5t35 -39t50.5 -23.5t60.5 -8q25 0 46.5 4.5t38 15t26 26.5t9.5 40q0 22 -8 37.5t-22.5 27t-34.5 19t-45 14.5l-93 25q-60 16 -90 46t-30 79q0 39 14.5 67t38 45.5t53.5 25.5t61 8q51 0 87 -16t55 -45v49q6 2 13 3
t13 1q14 0 25 -4v-163q-12 -4 -26 -4t-26 4v23q0 16 -8 34t-24.5 33.5t-42.5 26t-62 10.5q-22 0 -42 -4.5t-35 -15t-24 -27t-9 -39.5q0 -20 6.5 -33t19 -22.5t31 -16t42.5 -12.5l83 -22q39 -10 67 -23t45 -31t25 -41.5t8 -55.5q0 -34 -13.5 -60t-37 -43.5t-56.5 -26.5
t-72 -9q-52 0 -95.5 15.5t-69.5 48.5v-52q-12 -4 -26 -4t-26 4v180zM203 -179q20 7 36 21t18 31q-4 -1 -18 -1q-17 0 -29 9t-12 28q0 17 12 29.5t35 12.5q20 0 36.5 -14t16.5 -46q0 -25 -10 -43.5t-24 -31.5t-31 -20t-30 -10v35z" />
    <glyph glyph-name="uni021A" unicode="&#x21a;" horiz-adv-x="676" 
d="M304 52v623h-208v-158q-13 -4 -30 -4q-16 0 -29 4v212h602v-212q-13 -4 -30 -4q-16 0 -29 4v158h-208v-623h82q4 -12 4 -26t-4 -26h-232q-4 12 -4 26t4 26h82zM294 -179q20 7 36 21t18 31q-4 -1 -18 -1q-17 0 -29 9t-12 28q0 17 12 29.5t35 12.5q20 0 36.5 -14t16.5 -46
q0 -25 -10 -43.5t-24 -31.5t-31 -20t-30 -10v35z" />
    <glyph glyph-name="uni021B" unicode="&#x21b;" horiz-adv-x="311" 
d="M91 459h-80q-4 11 -4 24t4 24h80v139l64 36v-175h124q4 -11 4 -24t-4 -24h-124v-324q0 -29 6.5 -46t17.5 -27q19 -16 49 -16q24 0 40 5t26 10v-53q-14 -8 -35 -11.5t-39 -3.5q-63 0 -96 35t-33 100v331zM143 -179q20 7 36 21t18 31q-4 -1 -18 -1q-17 0 -29 9t-12 28
q0 17 12 29.5t35 12.5q20 0 36.5 -14t16.5 -46q0 -25 -10 -43.5t-24 -31.5t-31 -20t-30 -10v35z" />
    <glyph glyph-name="dotlessj" unicode="&#x237;" horiz-adv-x="263" 
d="M-26 -116q10 -4 27 -9t36 -5q34 0 50.5 17.5t16.5 56.5v515h-70q-4 11 -4 24t4 24h134v-556q0 -40 -10.5 -65.5t-28 -40t-40 -20t-45.5 -5.5q-21 0 -38.5 4t-31.5 10v50z" />
    <glyph glyph-name="apostrophe" unicode="&#x2bc;" horiz-adv-x="254" 
d="M93 561q29 14 40 39t11 52q-10 -2 -15 -2q-21 0 -31.5 14t-10.5 33q0 20 11.5 35t34.5 15q25 0 38.5 -21.5t13.5 -56.5q0 -39 -11 -66t-26 -43.5t-30.5 -24.5t-24.5 -10v36z" />
    <glyph glyph-name="circumflex" unicode="&#x2c6;" horiz-adv-x="334" 
d="M133 711h67l102 -136h-62l-73 94l-73 -94h-62z" />
    <glyph glyph-name="caron" unicode="&#x2c7;" horiz-adv-x="334" 
d="M32 711h62l73 -94l73 94h62l-101 -136h-67z" />
    <glyph glyph-name="uni02C9" unicode="&#x2c9;" horiz-adv-x="337" 
d="M19 656h298v-53h-298v53z" />
    <glyph glyph-name="breve" unicode="&#x2d8;" horiz-adv-x="342" 
d="M73 709q3 -13 8.5 -27.5t16.5 -27t28 -20.5t44 -8t44 8t28 20.5t17 27t9 27.5h49q-3 -22 -11 -45.5t-24.5 -42.5t-43.5 -31.5t-68 -12.5q-42 0 -68.5 12t-42.5 31t-24 42.5t-11 46.5h49z" />
    <glyph glyph-name="dotaccent" unicode="&#x2d9;" horiz-adv-x="331" 
d="M166 589q-17 0 -31 14t-14 35t14 35t31 14t30.5 -14t13.5 -35t-13.5 -35t-30.5 -14z" />
    <glyph glyph-name="ring" unicode="&#x2da;" horiz-adv-x="347" 
d="M69 677q0 21 8 40t22.5 33.5t33.5 22.5t40 8t40.5 -8t33.5 -22.5t22.5 -33.5t8.5 -40t-8 -40t-22.5 -33.5t-33.5 -22.5t-40 -8t-40.5 8t-33.5 22.5t-22.5 33.5t-8.5 40zM240 677q0 26 -20 46.5t-46 20.5q-27 0 -47 -20t-20 -47q0 -26 20 -46.5t46 -20.5q27 0 46.5 20
t19.5 47h1z" />
    <glyph glyph-name="ogonek" unicode="&#x2db;" horiz-adv-x="332" 
d="M262 -193q-11 -5 -34 -12.5t-52 -7.5q-44 0 -75.5 23t-31.5 67q0 19 7 38t20.5 35.5t33 29.5t43.5 20h58q-54 -26 -78 -55t-24 -64q0 -26 17.5 -39t37.5 -13q34 0 63 13z" />
    <glyph glyph-name="tilde" unicode="&#x2dc;" horiz-adv-x="346" 
d="M2 595q8 44 31.5 72.5t68.5 28.5q29 0 48 -9t38 -17q22 -9 35 -14.5t27 -5.5q23 0 32.5 17t14.5 32h47q-8 -45 -31 -73t-68 -28q-23 0 -43.5 8.5t-43.5 19.5q-13 5 -21 8.5t-14.5 5.5t-12.5 3t-14 1q-11 0 -19 -5.5t-13.5 -13t-9 -16t-5.5 -14.5h-47z" />
    <glyph glyph-name="hungarumlaut" unicode="&#x2dd;" horiz-adv-x="319" 
d="M226 711h81l-110 -136h-51zM91 711h80l-109 -136h-51z" />
    <glyph glyph-name="Omega" unicode="&#x3a9;" horiz-adv-x="813" 
d="M60 119q6 2 13.5 3t14.5 1q8 0 15.5 -1t14.5 -3v-68h142q-50 31 -83 72t-52.5 87t-27 93.5t-7.5 91.5q0 62 16.5 125t53.5 113.5t97.5 82t148.5 31.5t148.5 -31.5t97.5 -82t53.5 -113.5t16.5 -125q0 -44 -7.5 -91.5t-27 -93.5t-52.5 -87t-83 -72h142v68q7 2 14.5 3
t15.5 1q7 0 14.5 -1t13.5 -3v-119h-298v56q97 38 145.5 122.5t48.5 208.5q0 76 -18.5 133.5t-51 95t-77 56.5t-95.5 19t-95.5 -19t-77 -56.5t-51 -95t-18.5 -133.5q0 -124 48.5 -208.5t145.5 -122.5v-56h-298v119z" />
    <glyph glyph-name="pi" unicode="&#x3c0;" horiz-adv-x="572" 
d="M101 48v411h-71q-4 11 -4 24t4 24h512q4 -11 4 -24t-4 -24h-71v-411h71q4 -11 4 -24t-4 -24h-201q-4 11 -4 24t4 24h66v410h-242v-410h66q4 -11 4 -24t-4 -24h-201q-4 11 -4 24t4 24h71z" />
    <glyph glyph-name="Wgrave" unicode="&#x1e80;" horiz-adv-x="1011" 
d="M83 677h-69q-4 12 -4 26t4 26h229q4 -12 4 -26t-4 -26h-91l147 -603l173 655h73l164 -655l159 603h-88q-4 12 -4 26t4 26h217q4 -12 4 -26t-4 -26h-68l-189 -686h-73l-162 645l-173 -645h-73zM359 923h89l96 -136h-58z" />
    <glyph glyph-name="wgrave" unicode="&#x1e81;" horiz-adv-x="784" 
d="M64 459h-53q-4 11 -4 24t4 24h190q4 -11 4 -24t-4 -24h-69l66 -236q2 -7 8.5 -32.5t13.5 -54.5t13 -55.5t8 -35.5q1 9 7 34t12.5 52.5t12 51.5t7.5 31l78 293h74l78 -292q2 -7 8 -31t12.5 -52t12 -53t7.5 -34q1 9 7.5 35t14 55t14 54t8.5 32l65 238h-65q-4 11 -4 24t4 24
h179q4 -11 4 -24t-4 -24h-53l-134 -462h-74l-77 281q-2 7 -8 30.5t-13.5 51.5t-13.5 53t-8 35q-1 -9 -7 -34.5t-13 -53t-13.5 -51.5t-8.5 -31l-76 -281h-74zM243 711h89l96 -136h-58z" />
    <glyph glyph-name="Wacute" unicode="&#x1e82;" horiz-adv-x="1011" 
d="M83 677h-69q-4 12 -4 26t4 26h229q4 -12 4 -26t-4 -26h-91l147 -603l173 655h73l164 -655l159 603h-88q-4 12 -4 26t4 26h217q4 -12 4 -26t-4 -26h-68l-189 -686h-73l-162 645l-173 -645h-73zM579 923h90l-126 -136h-59z" />
    <glyph glyph-name="wacute" unicode="&#x1e83;" horiz-adv-x="784" 
d="M64 459h-53q-4 11 -4 24t4 24h190q4 -11 4 -24t-4 -24h-69l66 -236q2 -7 8.5 -32.5t13.5 -54.5t13 -55.5t8 -35.5q1 9 7 34t12.5 52.5t12 51.5t7.5 31l78 293h74l78 -292q2 -7 8 -31t12.5 -52t12 -53t7.5 -34q1 9 7.5 35t14 55t14 54t8.5 32l65 238h-65q-4 11 -4 24t4 24
h179q4 -11 4 -24t-4 -24h-53l-134 -462h-74l-77 281q-2 7 -8 30.5t-13.5 51.5t-13.5 53t-8 35q-1 -9 -7 -34.5t-13 -53t-13.5 -51.5t-8.5 -31l-76 -281h-74zM462 711h90l-126 -136h-59z" />
    <glyph glyph-name="Wdieresis" unicode="&#x1e84;" horiz-adv-x="1011" 
d="M83 677h-69q-4 12 -4 26t4 26h229q4 -12 4 -26t-4 -26h-91l147 -603l173 655h73l164 -655l159 603h-88q-4 12 -4 26t4 26h217q4 -12 4 -26t-4 -26h-68l-189 -686h-73l-162 645l-173 -645h-73zM591 801q-17 0 -30.5 14t-13.5 35t13.5 35t30.5 14t31 -14t14 -35t-14 -35
t-31 -14zM418 801q-17 0 -31 14t-14 35t14 35t31 14t30.5 -14t13.5 -35t-13.5 -35t-30.5 -14z" />
    <glyph glyph-name="wdieresis" unicode="&#x1e85;" horiz-adv-x="784" 
d="M64 459h-53q-4 11 -4 24t4 24h190q4 -11 4 -24t-4 -24h-69l66 -236q2 -7 8.5 -32.5t13.5 -54.5t13 -55.5t8 -35.5q1 9 7 34t12.5 52.5t12 51.5t7.5 31l78 293h74l78 -292q2 -7 8 -31t12.5 -52t12 -53t7.5 -34q1 9 7.5 35t14 55t14 54t8.5 32l65 238h-65q-4 11 -4 24t4 24
h179q4 -11 4 -24t-4 -24h-53l-134 -462h-74l-77 281q-2 7 -8 30.5t-13.5 51.5t-13.5 53t-8 35q-1 -9 -7 -34.5t-13 -53t-13.5 -51.5t-8.5 -31l-76 -281h-74zM478 589q-17 0 -30.5 14t-13.5 35t13.5 35t30.5 14t31 -14t14 -35t-14 -35t-31 -14zM305 589q-17 0 -31 14t-14 35
t14 35t31 14t30.5 -14t13.5 -35t-13.5 -35t-30.5 -14z" />
    <glyph glyph-name="Ygrave" unicode="&#x1ef2;" horiz-adv-x="711" 
d="M317 52v242l-246 383h-57q-4 12 -4 26t4 26h231q4 -12 4 -26t-4 -26h-100l211 -329l215 329h-97q-4 12 -4 26t4 26h222q4 -12 4 -26t-4 -26h-57l-255 -384v-241h83q4 -12 4 -26t-4 -26h-233q-4 12 -4 26t4 26h83zM229 923h89l96 -136h-58z" />
    <glyph glyph-name="ygrave" unicode="&#x1ef3;" horiz-adv-x="528" 
d="M49 -113q16 -6 33.5 -10t35.5 -4t32.5 3.5t27.5 14t25 31t23 53.5l6 18l-168 466h-53q-4 11 -4 24t4 24h190q4 -11 4 -24t-4 -24h-69l136 -391l135 391h-64q-4 11 -4 24t4 24h178q4 -11 4 -24t-4 -24h-53l-183 -510q-23 -64 -54 -93q-23 -22 -49.5 -29t-55.5 -7
q-26 0 -42 4.5t-31 9.5v53zM134 711h89l96 -136h-58z" />
    <glyph glyph-name="endash" unicode="&#x2013;" horiz-adv-x="500" 
d="M0 304h500v-55h-500v55z" />
    <glyph glyph-name="emdash" unicode="&#x2014;" horiz-adv-x="1000" 
d="M0 304h1000v-55h-1000v55z" />
    <glyph glyph-name="emdash" unicode="&#x2015;" horiz-adv-x="1000" 
d="M0 304h1000v-55h-1000v55z" />
    <glyph glyph-name="quoteleft" unicode="&#x2018;" horiz-adv-x="254" 
d="M178 704q-35 -17 -47.5 -46t-12.5 -61q4 1 8.5 2t8.5 1q25 0 37.5 -16.5t12.5 -39.5t-14 -41t-40 -18q-29 0 -45.5 25.5t-16.5 66.5q0 46 13 78t31 51.5t36.5 29t28.5 11.5v-43z" />
    <glyph glyph-name="quoteright" unicode="&#x2019;" horiz-adv-x="254" 
d="M76 528q35 17 47.5 46t12.5 61q-4 -1 -8.5 -2t-8.5 -1q-25 0 -37.5 16.5t-12.5 39.5t14 41t40 18q29 0 45.5 -25.5t16.5 -66.5q0 -47 -13 -78.5t-31 -51t-36.5 -29t-28.5 -11.5v43z" />
    <glyph glyph-name="quotesinglbase" unicode="&#x201a;" horiz-adv-x="254" 
d="M76 -116q35 17 47.5 46.5t12.5 61.5q-8 -3 -17 -3q-25 0 -37.5 16t-12.5 39t14 41.5t40 18.5q29 0 45.5 -26t16.5 -67q0 -47 -13 -78.5t-31 -51t-36.5 -29t-28.5 -11.5v43z" />
    <glyph glyph-name="quotedblleft" unicode="&#x201c;" horiz-adv-x="436" 
d="M178 704q-35 -17 -47.5 -46t-12.5 -61q4 1 8.5 2t8.5 1q25 0 37.5 -16.5t12.5 -39.5t-14 -41t-40 -18q-29 0 -45.5 25.5t-16.5 66.5q0 46 13 78t31 51.5t36.5 29t28.5 11.5v-43zM360 704q-35 -17 -47.5 -46t-12.5 -61q4 1 8.5 2t8.5 1q25 0 37.5 -16.5t12.5 -39.5
t-14 -41t-40 -18q-29 0 -45.5 25.5t-16.5 66.5q0 46 13 78t31 51.5t36.5 29t28.5 11.5v-43z" />
    <glyph glyph-name="quotedblright" unicode="&#x201d;" horiz-adv-x="436" 
d="M76 528q35 17 47.5 46t12.5 61q-4 -1 -8.5 -2t-8.5 -1q-25 0 -37.5 16.5t-12.5 39.5t14 41t40 18q29 0 45.5 -25.5t16.5 -66.5q0 -47 -13 -78.5t-31 -51t-36.5 -29t-28.5 -11.5v43zM258 528q35 17 47.5 46t12.5 61q-4 -1 -8.5 -2t-8.5 -1q-25 0 -37.5 16.5t-12.5 39.5
t14 41t40 18q29 0 45.5 -25.5t16.5 -66.5q0 -47 -13 -78.5t-31 -51t-36.5 -29t-28.5 -11.5v43z" />
    <glyph glyph-name="quotedblbase" unicode="&#x201e;" horiz-adv-x="436" 
d="M76 -116q35 17 47.5 46.5t12.5 61.5q-8 -3 -17 -3q-25 0 -37.5 16t-12.5 39t14 41.5t40 18.5q29 0 45.5 -26t16.5 -67q0 -47 -13 -78.5t-31 -51t-36.5 -29t-28.5 -11.5v43zM258 -116q35 17 47.5 46.5t12.5 61.5q-8 -3 -17 -3q-25 0 -37.5 16t-12.5 39t14 41.5t40 18.5
q29 0 45.5 -26t16.5 -67q0 -47 -13 -78.5t-31 -51t-36.5 -29t-28.5 -11.5v43z" />
    <glyph glyph-name="dagger" unicode="&#x2020;" horiz-adv-x="541" 
d="M239 443h-189v58h188v228h65v-227h188v-58h-187v-612h-65v611z" />
    <glyph glyph-name="daggerdbl" unicode="&#x2021;" horiz-adv-x="541" 
d="M239 39h-189v58h189v367h-189v58h188v207h65v-207h188v-58h-187v-367h187v-58h-187v-207h-65v207z" />
    <glyph glyph-name="bullet" unicode="&#x2022;" horiz-adv-x="414" 
d="M56 359q0 31 12 58.5t32 48t47.5 32.5t58.5 12t58.5 -12t48 -32t32.5 -47.5t12 -58.5t-12 -58.5t-32 -48t-47.5 -32.5t-58.5 -12t-58.5 12t-48 32t-32.5 47.5t-12 58.5z" />
    <glyph glyph-name="ellipsis" unicode="&#x2026;" horiz-adv-x="1000" 
d="M167 -14q-22 0 -36.5 17t-14.5 41q0 25 14.5 42.5t36.5 17.5t36.5 -17t14.5 -42t-14.5 -42t-36.5 -17zM500 -14q-22 0 -36.5 17t-14.5 41q0 25 14.5 42.5t36.5 17.5t36.5 -17t14.5 -42t-14.5 -42t-36.5 -17zM833 -14q-22 0 -36.5 17t-14.5 41q0 25 14.5 42.5t36.5 17.5
t36.5 -17t14.5 -42t-14.5 -42t-36.5 -17z" />
    <glyph glyph-name="perthousand" unicode="&#x2030;" horiz-adv-x="1005" 
d="M689 150q0 31 12 58t32 47t47.5 31.5t58.5 11.5q30 0 57.5 -11.5t47.5 -31.5t32 -47t12 -58t-11.5 -58t-31.5 -47.5t-47 -32.5t-58 -12t-58.5 11.5t-48 32t-32.5 47.5t-12 59zM316 520q0 -31 -11.5 -58t-31.5 -47.5t-47 -32.5t-58 -12t-58.5 11.5t-48 32t-32.5 47.5
t-12 59q0 31 12 58t32 47t47.5 31.5t58.5 11.5q30 0 57 -11.5t47.5 -31.5t32 -47t11.5 -58h1zM496 683h58l-401 -699h-58zM334 150q0 31 12 58t32 47t47.5 31.5t58.5 11.5q30 0 57.5 -11.5t47.5 -31.5t32 -47t12 -58t-11.5 -58t-31.5 -47.5t-47 -32.5t-58 -12t-58.5 11.5
t-48 32t-32.5 47.5t-12 59zM839 46q21 0 39.5 8.5t32 22.5t21.5 33t8 40t-8 39.5t-21.5 32.5t-31.5 22t-39 8q-22 0 -40.5 -8t-32.5 -22t-22 -32.5t-8 -39.5q0 -22 8 -41t22 -33t32.5 -22t39.5 -8zM268 520q0 21 -8 39.5t-21.5 32.5t-31.5 22t-39 8q-22 0 -40.5 -8
t-32.5 -22t-22 -32.5t-8 -39.5q0 -22 8 -41t22 -33t32.5 -22t39.5 -8t39 8.5t31.5 22.5t21.5 33t8 40h1zM484 46q21 0 39.5 8.5t32 22.5t21.5 33t8 40t-8 39.5t-21.5 32.5t-31.5 22t-39 8q-22 0 -40.5 -8t-32.5 -22t-22 -32.5t-8 -39.5q0 -22 8 -41t22 -33t32.5 -22t39.5 -8
z" />
    <glyph glyph-name="guilsinglleft" unicode="&#x2039;" horiz-adv-x="266" 
d="M28 253l141 225h69l-142 -225l142 -225h-69z" />
    <glyph glyph-name="guilsinglright" unicode="&#x203a;" horiz-adv-x="266" 
d="M170 253l-142 225h69l141 -225l-141 -225h-69z" />
    <glyph glyph-name="fraction" unicode="&#x2044;" horiz-adv-x="32" 
d="M187 683h60l-402 -699h-60z" />
    <glyph glyph-name="zerosuperior" unicode="&#x2070;" 
d="M179 327q-45 0 -73.5 17t-44.5 43t-22 58t-6 61q0 28 6 59t22 57.5t44.5 43.5t73.5 17t73.5 -17t44.5 -43.5t22 -57.5t6 -59q0 -29 -6 -61t-22 -58t-44.5 -43t-73.5 -17zM179 371q46 0 67.5 36t21.5 99q0 60 -21.5 97t-67.5 37t-67.5 -37t-21.5 -97q0 -63 21.5 -99
t67.5 -36z" />
    <glyph glyph-name="foursuperior" unicode="&#x2074;" 
d="M217 459v157l-132 -157h132zM35 464l185 215h50v-220h55q3 -11 3 -20q0 -10 -3 -20h-55v-85h-53v85h-182v45z" />
    <glyph glyph-name="fivesuperior" unicode="&#x2075;" 
d="M41 408q28 -17 55 -27t65 -10t63.5 20t25.5 58q0 29 -19 49.5t-59 20.5q-27 0 -47 -9t-32 -25h-43l24 191h211q3 -7 4 -12.5t1 -10.5q0 -4 -1 -10.5t-4 -12.5h-172l-11 -91q9 6 29 14t51 8q24 0 46.5 -6.5t40 -20t28 -34.5t10.5 -51q0 -18 -6.5 -39t-23.5 -39.5
t-45.5 -31t-71.5 -12.5q-45 0 -74.5 10t-44.5 19v52z" />
    <glyph glyph-name="sixsuperior" unicode="&#x2076;" 
d="M304 615q-25 12 -48.5 18.5t-49.5 6.5q-28 0 -48 -11t-32.5 -28t-19.5 -38t-8 -41q10 14 35 27.5t64 13.5q21 0 43 -6t40.5 -19.5t30.5 -35t12 -53.5q0 -57 -37 -89.5t-101 -32.5q-65 0 -105 40.5t-40 127.5q0 30 8 63t27 61t50 46t78 18q33 0 57 -5.5t44 -14.5v-48z
M103 444q0 -14 5 -27.5t15.5 -24.5t26 -17.5t37.5 -6.5q36 0 58 22.5t22 56.5q0 12 -4 25.5t-13.5 24t-25 17.5t-38.5 7q-42 0 -62.5 -24t-20.5 -53z" />
    <glyph glyph-name="sevensuperior" unicode="&#x2077;" 
d="M262 629h-170v-55q-5 -2 -12.5 -3t-12.5 -1t-12 1t-14 4v101h272v-47l-173 -295h-58z" />
    <glyph glyph-name="eightsuperior" unicode="&#x2078;" 
d="M99 519q-19 9 -34.5 26t-15.5 46q0 18 7 34.5t22 29t40 20.5t61 8t61 -8t40 -20.5t22 -29t7 -34.5q0 -29 -15.5 -46t-34.5 -26q39 -17 51.5 -42.5t12.5 -44.5q0 -45 -33.5 -75t-110.5 -30t-110.5 30t-33.5 75q0 19 12.5 44.5t51.5 42.5zM92 432q0 -20 8.5 -32t21.5 -19
t28 -9.5t29 -2.5q13 0 28.5 2.5t28.5 9.5t21.5 19t8.5 32q0 34 -27 48.5t-60 14.5t-60 -14.5t-27 -48.5zM103 589q0 -23 20 -38t56 -15t56 15t20 38q0 19 -16.5 36t-59.5 17q-22 0 -36.5 -5t-23.5 -12.5t-12.5 -17t-3.5 -18.5z" />
    <glyph glyph-name="ninesuperior" unicode="&#x2079;" 
d="M53 394q25 -12 48.5 -18t49.5 -6q29 0 49 10.5t32.5 27t18.5 38t8 42.5q-9 -14 -34 -27.5t-64 -13.5q-21 0 -43 5.5t-40.5 19t-30.5 35t-12 53.5q0 57 37 90t100 33q32 0 59 -10t46 -30.5t29.5 -52.5t10.5 -75q0 -30 -7.5 -63.5t-26 -61t-50 -45.5t-78.5 -18q-33 0 -57 5
t-45 14v48zM90 563q0 -12 4 -25.5t13.5 -24t25 -17.5t38.5 -7q42 0 63 24t21 53q0 28 -20.5 52t-63.5 24q-37 0 -59 -22.5t-22 -56.5z" />
    <glyph glyph-name="zeroinferior" unicode="&#x2080;" 
d="M179 -14q-45 0 -73.5 17t-44.5 43t-22 58t-6 61q0 28 6 59t22 57.5t44.5 43.5t73.5 17t73.5 -17t44.5 -43.5t22 -57.5t6 -59q0 -29 -6 -61t-22 -58t-44.5 -43t-73.5 -17zM179 30q46 0 67.5 36t21.5 99q0 60 -21.5 97t-67.5 37t-67.5 -37t-21.5 -97q0 -63 21.5 -99
t67.5 -36z" />
    <glyph glyph-name="oneinferior" unicode="&#x2081;" 
d="M158 34v260h-78q-3 10 -3 20t3 21h132v-301h73q3 -11 3 -21t-3 -20h-205q-3 10 -3 20t3 21h78z" />
    <glyph glyph-name="twoinferior" unicode="&#x2082;" 
d="M255 37v52q12 3 24 3t24 -3v-96h-280q1 25 10.5 45.5t24 38t32.5 32.5t38 27q21 13 41.5 24.5t36 23.5t25.5 26t10 32q0 29 -19.5 43t-52.5 14q-39 0 -68 -16t-55 -40v55q7 5 18.5 12.5t28 14.5t37 12t44.5 5q55 0 89.5 -25.5t34.5 -71.5q0 -24 -9.5 -42t-25 -33
t-36.5 -28t-44 -26q-67 -39 -93 -79h165z" />
    <glyph glyph-name="threeinferior" unicode="&#x2083;" horiz-adv-x="395" 
d="M49 65q29 -16 57.5 -25.5t70.5 -9.5q38 0 64 16t26 46q0 19 -8.5 30.5t-22 17.5t-30.5 8t-35 2h-24q-3 12 -3 22t3 22h28q14 0 28 3t25.5 9.5t18.5 17.5t7 26q0 9 -3.5 17.5t-12 16t-23.5 12t-37 4.5q-37 0 -64.5 -13t-53.5 -30v48q14 12 47.5 24.5t75.5 12.5
q62 0 94 -26t32 -63q0 -32 -19 -50.5t-39 -26.5q37 -8 55 -29.5t18 -53.5q0 -20 -8.5 -39t-26.5 -34t-46.5 -24.5t-68.5 -9.5q-42 0 -73.5 9.5t-51.5 18.5v51z" />
    <glyph glyph-name="fourinferior" unicode="&#x2084;" 
d="M217 118v157l-132 -157h132zM35 123l185 215h50v-220h55q3 -11 3 -20q0 -10 -3 -20h-55v-85h-53v85h-182v45z" />
    <glyph glyph-name="fiveinferior" unicode="&#x2085;" 
d="M41 67q28 -17 55 -27t65 -10t63.5 20t25.5 58q0 29 -19 49.5t-59 20.5q-27 0 -47 -9t-32 -25h-43l24 191h211q3 -7 4 -12.5t1 -10.5q0 -4 -1 -10.5t-4 -12.5h-172l-11 -91q9 6 29 14t51 8q24 0 46.5 -6.5t40 -20t28 -34.5t10.5 -51q0 -18 -6.5 -39t-23.5 -39.5t-45.5 -31
t-71.5 -12.5q-45 0 -74.5 10t-44.5 19v52z" />
    <glyph glyph-name="sixinferior" unicode="&#x2086;" 
d="M304 274q-25 12 -48.5 18.5t-49.5 6.5q-28 0 -48 -11t-32.5 -28t-19.5 -38t-8 -41q10 14 35 27.5t64 13.5q21 0 43 -6t40.5 -19.5t30.5 -35t12 -53.5q0 -57 -37 -89.5t-101 -32.5q-65 0 -105 40.5t-40 127.5q0 30 8 63t27 61t50 46t78 18q33 0 57 -5.5t44 -14.5v-48z
M103 103q0 -14 5 -27.5t15.5 -24.5t26 -17.5t37.5 -6.5q36 0 58 22.5t22 56.5q0 12 -4 25.5t-13.5 24t-25 17.5t-38.5 7q-42 0 -62.5 -24t-20.5 -53z" />
    <glyph glyph-name="seveninferior" unicode="&#x2087;" 
d="M262 288h-170v-55q-5 -2 -12.5 -3t-12.5 -1t-12 1t-14 4v101h272v-47l-173 -295h-58z" />
    <glyph glyph-name="eightinferior" unicode="&#x2088;" 
d="M99 178q-19 9 -34.5 26t-15.5 46q0 18 7 34.5t22 29t40 20.5t61 8t61 -8t40 -20.5t22 -29t7 -34.5q0 -29 -15.5 -46t-34.5 -26q39 -17 51.5 -42.5t12.5 -44.5q0 -45 -33.5 -75t-110.5 -30t-110.5 30t-33.5 75q0 19 12.5 44.5t51.5 42.5zM92 91q0 -20 8.5 -32t21.5 -19
t28 -9.5t29 -2.5q13 0 28.5 2.5t28.5 9.5t21.5 19t8.5 32q0 34 -27 48.5t-60 14.5t-60 -14.5t-27 -48.5zM103 248q0 -23 20 -38t56 -15t56 15t20 38q0 19 -16.5 36t-59.5 17q-22 0 -36.5 -5t-23.5 -12.5t-12.5 -17t-3.5 -18.5z" />
    <glyph glyph-name="nineinferior" unicode="&#x2089;" 
d="M53 53q25 -12 48.5 -18t49.5 -6q29 0 49 10.5t32.5 27t18.5 38t8 42.5q-9 -14 -34 -27.5t-64 -13.5q-21 0 -43 5.5t-40.5 19t-30.5 35t-12 53.5q0 57 37 90t100 33q32 0 59 -10t46 -30.5t29.5 -52.5t10.5 -75q0 -30 -7.5 -63.5t-26 -61t-50 -45.5t-78.5 -18q-33 0 -57 5
t-45 14v48zM90 222q0 -12 4 -25.5t13.5 -24t25 -17.5t38.5 -7q42 0 63 24t21 53q0 28 -20.5 52t-63.5 24q-37 0 -59 -22.5t-22 -56.5z" />
    <glyph glyph-name="Euro" unicode="&#x20ac;" horiz-adv-x="542" 
d="M25 286h50q0 2 -0.5 15.5t-0.5 24.5v25t2 23h-58l7 43h54q7 61 27.5 110.5t51.5 84t71 53t86 18.5q54 0 87.5 -16t51.5 -43v44q5 2 13 3t13 1t11.5 -1t11.5 -3v-189q-11 -4 -25 -4q-6 0 -13.5 1t-13.5 3v40q0 48 -35.5 78t-95.5 30q-64 0 -112 -52.5t-60 -156.5h247
l-9 -43h-241q0 -5 -0.5 -20t-0.5 -29q0 -8 0.5 -22t0.5 -17h222l-9 -43h-209q5 -50 22.5 -87.5t42 -63.5t55 -39t61.5 -13q49 0 93.5 17t78.5 51v-67q-31 -27 -75.5 -42.5t-98.5 -15.5q-47 0 -89 17t-75.5 50t-55.5 81t-28 111h-62z" />
    <glyph glyph-name="afii61289" unicode="&#x2113;" horiz-adv-x="460" 
d="M32 163l85 59v261q0 78 8 131t24.5 85.5t41.5 46.5t60 14q28 0 49.5 -7.5t35.5 -24.5q7 -9 13.5 -20t10.5 -27.5t6.5 -39.5t2.5 -55q0 -89 -43 -193q-42 -105 -145 -202q0 -20 2.5 -43.5t10.5 -44t23.5 -34.5t42.5 -14q20 0 40.5 12.5t37.5 28.5q10 9 19 19.5t18 21.5
l41 -41q-23 -30 -50 -53q-23 -20 -53 -36t-63 -16t-57 12t-40 33.5t-24 51t-10 64.5l-61 -41zM181 271q65 71 93 161q30 91 30 157q0 62 -14 84t-42 22q-20 0 -32.5 -12t-20.5 -39.5t-11 -72t-3 -110.5v-190z" />
    <glyph glyph-name="trademark" unicode="&#x2122;" horiz-adv-x="1006" 
d="M497 362v324h-41q-4 9 -4 22q0 12 4 21h118l114 -344l118 344h117q4 -9 4 -21q0 -13 -4 -22h-42v-324h42q4 -9 4 -22q0 -12 -4 -21h-132q-4 9 -4 21q0 13 4 22h42v322l-122 -355h-51l-118 355v-322h42q4 -9 4 -22q0 -12 -4 -21h-128q-4 9 -4 21q0 13 4 22h41zM209 362
v324h-102v-86q-5 -2 -11.5 -3t-12.5 -1t-12.5 1t-11.5 3v129h351v-129q-5 -2 -11.5 -3t-12.5 -1t-12.5 1t-11.5 3v86h-102v-324h44q4 -9 4 -22q0 -12 -4 -21h-139q-4 9 -4 21q0 13 4 22h44z" />
    <glyph glyph-name="uni2126" unicode="&#x2126;" horiz-adv-x="813" 
d="M60 119q6 2 13.5 3t14.5 1q8 0 15.5 -1t14.5 -3v-68h142q-50 31 -83 72t-52.5 87t-27 93.5t-7.5 91.5q0 62 16.5 125t53.5 113.5t97.5 82t148.5 31.5t148.5 -31.5t97.5 -82t53.5 -113.5t16.5 -125q0 -44 -7.5 -91.5t-27 -93.5t-52.5 -87t-83 -72h142v68q7 2 14.5 3
t15.5 1q7 0 14.5 -1t13.5 -3v-119h-298v56q97 38 145.5 122.5t48.5 208.5q0 76 -18.5 133.5t-51 95t-77 56.5t-95.5 19t-95.5 -19t-77 -56.5t-51 -95t-18.5 -133.5q0 -124 48.5 -208.5t145.5 -122.5v-56h-298v119z" />
    <glyph glyph-name="estimated" unicode="&#x212e;" horiz-adv-x="600" 
d="M157 78q59 -59 145 -59q124 0 193 120l35 -21q-25 -37 -50 -62.5t-52.5 -41.5t-58.5 -23.5t-67 -7.5q-58 0 -105.5 20.5t-81.5 57.5t-52.5 87.5t-18.5 110.5t19 111t53 87.5t81.5 57t104.5 20.5q58 0 104.5 -19.5t80 -55.5t52.5 -87t22 -114h-404v-181zM448 295v145
q-63 60 -147 60t-144 -60v-145h291z" />
    <glyph glyph-name="onethird" unicode="&#x2153;" horiz-adv-x="904" 
d="M155 375v260h-78q-3 10 -3 20t3 21h132v-301h73q3 -11 3 -21t-3 -20h-205q-3 10 -3 20t3 21h78zM589 683h60l-402 -699h-60zM540 65q29 -16 57.5 -25.5t70.5 -9.5q38 0 64 16t26 46q0 19 -8.5 30.5t-22 17.5t-30.5 8t-35 2h-24q-3 12 -3 22t3 22h28q14 0 28 3t25.5 9.5
t18.5 17.5t7 26q0 9 -3.5 17.5t-12 16t-23.5 12t-37 4.5q-37 0 -64.5 -13t-53.5 -30v48q14 12 47.5 24.5t75.5 12.5q62 0 94 -26t32 -63q0 -32 -19 -50.5t-39 -26.5q37 -8 55 -29.5t18 -53.5q0 -20 -8.5 -39t-26.5 -34t-46.5 -24.5t-68.5 -9.5q-42 0 -73.5 9.5t-51.5 18.5
v51z" />
    <glyph glyph-name="twothirds" unicode="&#x2154;" horiz-adv-x="904" 
d="M285 378v52q12 3 24 3t24 -3v-96h-280q1 25 10.5 45.5t24 38t32.5 32.5t38 27q21 13 41.5 24.5t36 23.5t25.5 26t10 32q0 29 -19.5 43t-52.5 14q-39 0 -68 -16t-55 -40v55q7 5 18.5 12.5t28 14.5t37 12t44.5 5q55 0 89.5 -25.5t34.5 -71.5q0 -24 -9.5 -42t-25 -33
t-36.5 -28t-44 -26q-67 -39 -93 -79h165zM629 683h60l-402 -699h-60zM570 65q29 -16 57.5 -25.5t70.5 -9.5q38 0 64 16t26 46q0 19 -8.5 30.5t-22 17.5t-30.5 8t-35 2h-24q-3 12 -3 22t3 22h28q14 0 28 3t25.5 9.5t18.5 17.5t7 26q0 9 -3.5 17.5t-12 16t-23.5 12t-37 4.5
q-37 0 -64.5 -13t-53.5 -30v48q14 12 47.5 24.5t75.5 12.5q62 0 94 -26t32 -63q0 -32 -19 -50.5t-39 -26.5q37 -8 55 -29.5t18 -53.5q0 -20 -8.5 -39t-26.5 -34t-46.5 -24.5t-68.5 -9.5q-42 0 -73.5 9.5t-51.5 18.5v51z" />
    <glyph glyph-name="onefifth" unicode="&#x2155;" horiz-adv-x="904" 
d="M168 375v260h-78q-3 10 -3 20t3 21h132v-301h73q3 -11 3 -21t-3 -20h-205q-3 10 -3 20t3 21h78zM594 683h60l-402 -699h-60zM542 67q28 -17 55 -27t65 -10t63.5 20t25.5 58q0 29 -19 49.5t-59 20.5q-27 0 -47 -9t-32 -25h-43l24 191h211q3 -7 4 -12.5t1 -10.5
q0 -4 -1 -10.5t-4 -12.5h-172l-11 -91q9 6 29 14t51 8q24 0 46.5 -6.5t40 -20t28 -34.5t10.5 -51q0 -18 -6.5 -39t-23.5 -39.5t-45.5 -31t-71.5 -12.5q-45 0 -74.5 10t-44.5 19v52z" />
    <glyph glyph-name="twofifths" unicode="&#x2156;" horiz-adv-x="904" 
d="M290 378v52q12 3 24 3t24 -3v-96h-280q1 25 10.5 45.5t24 38t32.5 32.5t38 27q21 13 41.5 24.5t36 23.5t25.5 26t10 32q0 29 -19.5 43t-52.5 14q-39 0 -68 -16t-55 -40v55q7 5 18.5 12.5t28 14.5t37 12t44.5 5q55 0 89.5 -25.5t34.5 -71.5q0 -24 -9.5 -42t-25 -33
t-36.5 -28t-44 -26q-67 -39 -93 -79h165zM624 683h60l-402 -699h-60zM562 67q28 -17 55 -27t65 -10t63.5 20t25.5 58q0 29 -19 49.5t-59 20.5q-27 0 -47 -9t-32 -25h-43l24 191h211q3 -7 4 -12.5t1 -10.5q0 -4 -1 -10.5t-4 -12.5h-172l-11 -91q9 6 29 14t51 8
q24 0 46.5 -6.5t40 -20t28 -34.5t10.5 -51q0 -18 -6.5 -39t-23.5 -39.5t-45.5 -31t-71.5 -12.5q-45 0 -74.5 10t-44.5 19v52z" />
    <glyph glyph-name="threefifths" unicode="&#x2157;" horiz-adv-x="904" 
d="M91 406q29 -16 57.5 -25.5t70.5 -9.5q38 0 64 16t26 46q0 19 -8.5 30.5t-22 17.5t-30.5 8t-35 2h-24q-3 12 -3 22t3 22h28q14 0 28 3t25.5 9.5t18.5 17.5t7 26q0 9 -3.5 17.5t-12 16t-23.5 12t-37 4.5q-37 0 -64.5 -13t-53.5 -30v48q14 12 47.5 24.5t75.5 12.5
q62 0 94 -26t32 -63q0 -32 -19 -50.5t-39 -26.5q37 -8 55 -29.5t18 -53.5q0 -20 -8.5 -39t-26.5 -34t-46.5 -24.5t-68.5 -9.5q-42 0 -73.5 9.5t-51.5 18.5v51zM616 683h60l-402 -699h-60zM559 67q28 -17 55 -27t65 -10t63.5 20t25.5 58q0 29 -19 49.5t-59 20.5q-27 0 -47 -9
t-32 -25h-43l24 191h211q3 -7 4 -12.5t1 -10.5q0 -4 -1 -10.5t-4 -12.5h-172l-11 -91q9 6 29 14t51 8q24 0 46.5 -6.5t40 -20t28 -34.5t10.5 -51q0 -18 -6.5 -39t-23.5 -39.5t-45.5 -31t-71.5 -12.5q-45 0 -74.5 10t-44.5 19v52z" />
    <glyph glyph-name="fourfifths" unicode="&#x2158;" horiz-adv-x="904" 
d="M249 459v157l-132 -157h132zM67 464l185 215h50v-220h55q3 -11 3 -20q0 -10 -3 -20h-55v-85h-53v85h-182v45zM622 683h60l-402 -699h-60zM559 67q28 -17 55 -27t65 -10t63.5 20t25.5 58q0 29 -19 49.5t-59 20.5q-27 0 -47 -9t-32 -25h-43l24 191h211q3 -7 4 -12.5
t1 -10.5q0 -4 -1 -10.5t-4 -12.5h-172l-11 -91q9 6 29 14t51 8q24 0 46.5 -6.5t40 -20t28 -34.5t10.5 -51q0 -18 -6.5 -39t-23.5 -39.5t-45.5 -31t-71.5 -12.5q-45 0 -74.5 10t-44.5 19v52z" />
    <glyph glyph-name="onesixth" unicode="&#x2159;" horiz-adv-x="904" 
d="M160 375v260h-78q-3 10 -3 20t3 21h132v-301h73q3 -11 3 -21t-3 -20h-205q-3 10 -3 20t3 21h78zM586 683h60l-402 -699h-60zM784 274q-25 12 -48.5 18.5t-49.5 6.5q-28 0 -48 -11t-32.5 -28t-19.5 -38t-8 -41q10 14 35 27.5t64 13.5q21 0 43 -6t40.5 -19.5t30.5 -35
t12 -53.5q0 -57 -37 -89.5t-101 -32.5q-65 0 -105 40.5t-40 127.5q0 30 8 63t27 61t50 46t78 18q33 0 57 -5.5t44 -14.5v-48zM583 103q0 -14 5 -27.5t15.5 -24.5t26 -17.5t37.5 -6.5q36 0 58 22.5t22 56.5q0 12 -4 25.5t-13.5 24t-25 17.5t-38.5 7q-42 0 -62.5 -24
t-20.5 -53z" />
    <glyph glyph-name="fivesixths" unicode="&#x215a;" horiz-adv-x="904" 
d="M66 408q28 -17 55 -27t65 -10t63.5 20t25.5 58q0 29 -19 49.5t-59 20.5q-27 0 -47 -9t-32 -25h-43l24 191h211q3 -7 4 -12.5t1 -10.5q0 -4 -1 -10.5t-4 -12.5h-172l-11 -91q9 6 29 14t51 8q24 0 46.5 -6.5t40 -20t28 -34.5t10.5 -51q0 -18 -6.5 -39t-23.5 -39.5
t-45.5 -31t-71.5 -12.5q-45 0 -74.5 10t-44.5 19v52zM601 683h60l-402 -699h-60zM797 274q-25 12 -48.5 18.5t-49.5 6.5q-28 0 -48 -11t-32.5 -28t-19.5 -38t-8 -41q10 14 35 27.5t64 13.5q21 0 43 -6t40.5 -19.5t30.5 -35t12 -53.5q0 -57 -37 -89.5t-101 -32.5
q-65 0 -105 40.5t-40 127.5q0 30 8 63t27 61t50 46t78 18q33 0 57 -5.5t44 -14.5v-48zM596 103q0 -14 5 -27.5t15.5 -24.5t26 -17.5t37.5 -6.5q36 0 58 22.5t22 56.5q0 12 -4 25.5t-13.5 24t-25 17.5t-38.5 7q-42 0 -62.5 -24t-20.5 -53z" />
    <glyph glyph-name="oneeighth" unicode="&#x215b;" horiz-adv-x="904" 
d="M158 375v260h-78q-3 10 -3 20t3 21h132v-301h73q3 -11 3 -21t-3 -20h-205q-3 10 -3 20t3 21h78zM584 683h60l-402 -699h-60zM585 178q-19 9 -34.5 26t-15.5 46q0 18 7 34.5t22 29t40 20.5t61 8t61 -8t40 -20.5t22 -29t7 -34.5q0 -29 -15.5 -46t-34.5 -26
q39 -17 51.5 -42.5t12.5 -44.5q0 -45 -33.5 -75t-110.5 -30t-110.5 30t-33.5 75q0 19 12.5 44.5t51.5 42.5zM578 91q0 -20 8.5 -32t21.5 -19t28 -9.5t29 -2.5q13 0 28.5 2.5t28.5 9.5t21.5 19t8.5 32q0 34 -27 48.5t-60 14.5t-60 -14.5t-27 -48.5zM589 248q0 -23 20 -38
t56 -15t56 15t20 38q0 19 -16.5 36t-59.5 17q-22 0 -36.5 -5t-23.5 -12.5t-12.5 -17t-3.5 -18.5z" />
    <glyph glyph-name="threeeighths" unicode="&#x215c;" horiz-adv-x="904" 
d="M76 406q29 -16 57.5 -25.5t70.5 -9.5q38 0 64 16t26 46q0 19 -8.5 30.5t-22 17.5t-30.5 8t-35 2h-24q-3 12 -3 22t3 22h28q14 0 28 3t25.5 9.5t18.5 17.5t7 26q0 9 -3.5 17.5t-12 16t-23.5 12t-37 4.5q-37 0 -64.5 -13t-53.5 -30v48q14 12 47.5 24.5t75.5 12.5
q62 0 94 -26t32 -63q0 -32 -19 -50.5t-39 -26.5q37 -8 55 -29.5t18 -53.5q0 -20 -8.5 -39t-26.5 -34t-46.5 -24.5t-68.5 -9.5q-42 0 -73.5 9.5t-51.5 18.5v51zM609 683h60l-402 -699h-60zM602 178q-19 9 -34.5 26t-15.5 46q0 18 7 34.5t22 29t40 20.5t61 8t61 -8t40 -20.5
t22 -29t7 -34.5q0 -29 -15.5 -46t-34.5 -26q39 -17 51.5 -42.5t12.5 -44.5q0 -45 -33.5 -75t-110.5 -30t-110.5 30t-33.5 75q0 19 12.5 44.5t51.5 42.5zM595 91q0 -20 8.5 -32t21.5 -19t28 -9.5t29 -2.5q13 0 28.5 2.5t28.5 9.5t21.5 19t8.5 32q0 34 -27 48.5t-60 14.5
t-60 -14.5t-27 -48.5zM606 248q0 -23 20 -38t56 -15t56 15t20 38q0 19 -16.5 36t-59.5 17q-22 0 -36.5 -5t-23.5 -12.5t-12.5 -17t-3.5 -18.5z" />
    <glyph glyph-name="fiveeighths" unicode="&#x215d;" horiz-adv-x="904" 
d="M76 408q28 -17 55 -27t65 -10t63.5 20t25.5 58q0 29 -19 49.5t-59 20.5q-27 0 -47 -9t-32 -25h-43l24 191h211q3 -7 4 -12.5t1 -10.5q0 -4 -1 -10.5t-4 -12.5h-172l-11 -91q9 6 29 14t51 8q24 0 46.5 -6.5t40 -20t28 -34.5t10.5 -51q0 -18 -6.5 -39t-23.5 -39.5
t-45.5 -31t-71.5 -12.5q-45 0 -74.5 10t-44.5 19v52zM615 683h60l-402 -699h-60zM615 178q-19 9 -34.5 26t-15.5 46q0 18 7 34.5t22 29t40 20.5t61 8t61 -8t40 -20.5t22 -29t7 -34.5q0 -29 -15.5 -46t-34.5 -26q39 -17 51.5 -42.5t12.5 -44.5q0 -45 -33.5 -75t-110.5 -30
t-110.5 30t-33.5 75q0 19 12.5 44.5t51.5 42.5zM608 91q0 -20 8.5 -32t21.5 -19t28 -9.5t29 -2.5q13 0 28.5 2.5t28.5 9.5t21.5 19t8.5 32q0 34 -27 48.5t-60 14.5t-60 -14.5t-27 -48.5zM619 248q0 -23 20 -38t56 -15t56 15t20 38q0 19 -16.5 36t-59.5 17q-22 0 -36.5 -5
t-23.5 -12.5t-12.5 -17t-3.5 -18.5z" />
    <glyph glyph-name="seveneighths" unicode="&#x215e;" horiz-adv-x="904" 
d="M297 629h-170v-55q-5 -2 -12.5 -3t-12.5 -1t-12 1t-14 4v101h272v-47l-173 -295h-58zM544 683h60l-402 -699h-60zM555 178q-19 9 -34.5 26t-15.5 46q0 18 7 34.5t22 29t40 20.5t61 8t61 -8t40 -20.5t22 -29t7 -34.5q0 -29 -15.5 -46t-34.5 -26q39 -17 51.5 -42.5
t12.5 -44.5q0 -45 -33.5 -75t-110.5 -30t-110.5 30t-33.5 75q0 19 12.5 44.5t51.5 42.5zM548 91q0 -20 8.5 -32t21.5 -19t28 -9.5t29 -2.5q13 0 28.5 2.5t28.5 9.5t21.5 19t8.5 32q0 34 -27 48.5t-60 14.5t-60 -14.5t-27 -48.5zM559 248q0 -23 20 -38t56 -15t56 15t20 38
q0 19 -16.5 36t-59.5 17q-22 0 -36.5 -5t-23.5 -12.5t-12.5 -17t-3.5 -18.5z" />
    <glyph glyph-name="partialdiff" unicode="&#x2202;" horiz-adv-x="540" 
d="M102 712q5 6 16 15.5t28.5 18.5t42 15.5t57.5 6.5q52 0 91 -21.5t67.5 -57t46.5 -83t29 -99t15 -104.5t4 -100q0 -72 -14 -130.5t-42.5 -100t-71.5 -64t-102 -22.5t-102 21.5t-71 57.5t-41.5 83.5t-13.5 98.5q0 52 13.5 99t41 83t69 57t97.5 21q22 0 44 -4t43 -13.5
t40 -25t34 -39.5q-10 138 -55.5 215t-125.5 77q-25 0 -44 -5.5t-32 -13t-20.5 -15l-10.5 -10.5zM269 40q50 0 82 22t50 54t24.5 67.5t6.5 63.5t-6.5 63.5t-24.5 67t-49.5 53.5t-81.5 22t-81.5 -21.5t-49.5 -53t-24.5 -67.5t-6.5 -64t6.5 -63.5t24 -67.5t49 -54t81.5 -22z
" />
    <glyph glyph-name="Delta" unicode="&#x2206;" horiz-adv-x="628" 
d="M295 747h38l288 -747h-614zM530 55l-217 583l-222 -583h439z" />
    <glyph glyph-name="product" unicode="&#x220f;" horiz-adv-x="753" 
d="M114 -32v709h-78q-4 12 -4 26t4 26h681q4 -12 4 -26t-4 -26h-78v-709h78q4 -12 4 -26t-4 -26h-224q-4 12 -4 26t4 26h78v704h-389v-704h78q4 -12 4 -26t-4 -26h-224q-4 12 -4 26t4 26h78z" />
    <glyph glyph-name="summation" unicode="&#x2211;" horiz-adv-x="643" 
d="M20 -27l286 351l-277 347v58h541v-203q-13 -4 -30 -4q-16 0 -29 4v146h-403l278 -346l-288 -353h443v149q13 4 29 4q17 0 30 -4v-206h-580v57z" />
    <glyph glyph-name="minus" unicode="&#x2212;" horiz-adv-x="542" 
d="M33 363h475v-55l-475 -1v56z" />
    <glyph glyph-name="uni2215" unicode="&#x2215;" horiz-adv-x="32" 
d="M187 683h60l-402 -699h-60z" />
    <glyph glyph-name="uni2219" unicode="&#x2219;" horiz-adv-x="254" 
d="M127 276q-22 0 -36.5 17t-14.5 41q0 25 14.5 42.5t36.5 17.5t36.5 -17t14.5 -42t-14.5 -42t-36.5 -17z" />
    <glyph glyph-name="radical" unicode="&#x221a;" horiz-adv-x="584" 
d="M138 470l-90 -45l-21 46l145 73l201 -441l128 825l56 -8l-147 -936h-46z" />
    <glyph glyph-name="infinity" unicode="&#x221e;" horiz-adv-x="708" 
d="M354 368q31 36 56 58.5t46 35t41 17t42 4.5q30 0 56 -11t45 -30.5t30 -47t11 -60.5t-11 -61t-30 -48t-45 -31t-56 -11q-22 0 -41.5 4.5t-40.5 17t-46 34.5t-57 58q-32 -36 -57 -58t-46 -34.5t-40.5 -17t-41.5 -4.5q-30 0 -56 11t-45 30.5t-30 47.5t-11 61t11 60.5
t30 47.5t45 31t56 11q22 0 41.5 -4.5t40.5 -17t45.5 -35t57.5 -58.5zM413 310q14 -14 28.5 -28t30 -25t32 -17.5t35.5 -6.5q21 0 38 9t28 23.5t17 32.5t6 36t-5.5 35.5t-16.5 32t-28 23.5t-39 9q-23 0 -43 -8.5t-38.5 -22t-35.5 -32t-33 -37.5zM319 333q-19 22 -36.5 40
t-35 31.5t-37 21t-42.5 7.5q-21 0 -38 -9t-28.5 -23.5t-17.5 -32t-6 -35.5q0 -19 6 -37t17.5 -32t28 -22.5t38.5 -8.5q45 0 81 29.5t70 70.5z" />
    <glyph glyph-name="integral" unicode="&#x222b;" horiz-adv-x="364" 
d="M22 -108q5 -4 25 -12t47 -8q33 0 54 21t21 63q0 14 -1 27t-2 30l-32 553q-2 20 -3 36.5t-1 28.5q0 38 11 64t29 42.5t40.5 23.5t45.5 7q34 0 55.5 -7t29.5 -12v-53q-5 4 -25 12t-47 8q-34 0 -54.5 -22t-20.5 -64q0 -16 1 -27t2 -28l32 -553q3 -41 3 -65q0 -38 -11 -64
t-29 -42.5t-41 -23.5t-46 -7q-33 0 -54 7t-29 12v53z" />
    <glyph glyph-name="approxequal" unicode="&#x2248;" horiz-adv-x="628" 
d="M37 352q11 75 45 115.5t92 40.5q31 0 53 -6t52 -17l105 -41q16 -7 33.5 -11.5t38.5 -4.5q36 0 57 24t30 72h47q-10 -76 -44 -116t-94 -40q-28 0 -49.5 6t-42.5 14l-116 44q-17 6 -34 11t-38 5q-38 0 -57.5 -23.5t-29.5 -72.5h-48zM37 145q11 75 45 115.5t92 40.5
q31 0 53 -6t52 -17l105 -41q16 -7 33.5 -11.5t38.5 -4.5q36 0 57 23.5t30 71.5l47 1q-10 -76 -44 -116t-94 -40q-28 0 -49.5 6t-42.5 14l-116 44q-17 6 -34 11t-38 5q-38 0 -57.5 -23.5t-29.5 -72.5h-48z" />
    <glyph glyph-name="notequal" unicode="&#x2260;" horiz-adv-x="542" 
d="M181 210h-148v56h176l65 137h-241v56h268l57 121h57l-57 -121h150v-55h-177l-65 -138h242v-55h-270l-57 -121h-57z" />
    <glyph glyph-name="lessequal" unicode="&#x2264;" horiz-adv-x="542" 
d="M37 425l467 203v-62l-399 -169l399 -169v-61l-467 201v57zM37 96h467v-56h-467v56z" />
    <glyph glyph-name="greaterequal" unicode="&#x2265;" horiz-adv-x="542" 
d="M37 227l399 170l-399 169v62l467 -202v-57l-467 -202v60zM37 96h467v-56h-467v56z" />
    <glyph glyph-name="lozenge" unicode="&#x25ca;" horiz-adv-x="526" 
d="M26 365l237 382l237 -382l-237 -383zM431 365l-168 278l-169 -278l168 -279z" />
    <glyph glyph-name="fi" unicode="&#xf001;" horiz-adv-x="578" 
d="M112 48v409h-83q-3 13 -3 25q0 11 3 25h83v70q0 54 18.5 91t47.5 59t66 31.5t75 9.5q45 0 79 -7.5t57 -16.5v-54q-21 8 -55 16.5t-80 8.5q-29 0 -55.5 -6t-46 -22t-31 -43t-11.5 -69v-68h298v-459h71q4 -11 4 -24t-4 -24h-206q-4 11 -4 24t4 24h71v409h-234v-409h86
q4 -11 4 -24t-4 -24h-225q-4 11 -4 24t4 24h75z" />
    <glyph glyph-name="fl" unicode="&#xf002;" horiz-adv-x="576" 
d="M112 48v409h-83q-3 13 -3 25q0 11 3 25h83v74q0 84 47.5 135.5t139.5 51.5q38 0 69 -8t53.5 -18.5t36 -20t16.5 -12.5v-661h71q4 -11 4 -24t-4 -24h-206q-4 11 -4 24t4 24h71v636q-3 2 -11.5 7t-23 10t-33.5 9t-43 4q-67 0 -95 -34.5t-28 -107.5v-65h114q3 -14 3 -25
q0 -12 -3 -25h-114v-409h86q4 -11 4 -24t-4 -24h-225q-4 11 -4 24t4 24h75z" />
    <glyph glyph-name="oneseventh" unicode="&#xf506;" horiz-adv-x="904" 
d="M162 375v260h-78q-3 10 -3 20t3 21h132v-301h73q3 -11 3 -21t-3 -20h-205q-3 10 -3 20t3 21h78zM588 683h60l-402 -699h-60zM747 288h-170v-55q-5 -2 -12.5 -3t-12.5 -1t-12 1t-14 4v101h272v-47l-173 -295h-58z" />
    <glyph glyph-name="twosevenths" unicode="&#xf507;" horiz-adv-x="904" 
d="M301 378v52q12 3 24 3t24 -3v-96h-280q1 25 10.5 45.5t24 38t32.5 32.5t38 27q21 13 41.5 24.5t36 23.5t25.5 26t10 32q0 29 -19.5 43t-52.5 14q-39 0 -68 -16t-55 -40v55q7 5 18.5 12.5t28 14.5t37 12t44.5 5q55 0 89.5 -25.5t34.5 -71.5q0 -24 -9.5 -42t-25 -33
t-36.5 -28t-44 -26q-67 -39 -93 -79h165zM635 683h60l-402 -699h-60zM784 288h-170v-55q-5 -2 -12.5 -3t-12.5 -1t-12 1t-14 4v101h272v-47l-173 -295h-58z" />
    <glyph glyph-name="threesevenths" unicode="&#xf508;" horiz-adv-x="904" 
d="M94 406q29 -16 57.5 -25.5t70.5 -9.5q38 0 64 16t26 46q0 19 -8.5 30.5t-22 17.5t-30.5 8t-35 2h-24q-3 12 -3 22t3 22h28q14 0 28 3t25.5 9.5t18.5 17.5t7 26q0 9 -3.5 17.5t-12 16t-23.5 12t-37 4.5q-37 0 -64.5 -13t-53.5 -30v48q14 12 47.5 24.5t75.5 12.5
q62 0 94 -26t32 -63q0 -32 -19 -50.5t-39 -26.5q37 -8 55 -29.5t18 -53.5q0 -20 -8.5 -39t-26.5 -34t-46.5 -24.5t-68.5 -9.5q-42 0 -73.5 9.5t-51.5 18.5v51zM619 683h60l-402 -699h-60zM773 288h-170v-55q-5 -2 -12.5 -3t-12.5 -1t-12 1t-14 4v101h272v-47l-173 -295h-58z
" />
    <glyph glyph-name="foursevenths" unicode="&#xf509;" horiz-adv-x="904" 
d="M252 459v157l-132 -157h132zM70 464l185 215h50v-220h55q3 -11 3 -20q0 -10 -3 -20h-55v-85h-53v85h-182v45zM614 683h60l-402 -699h-60zM773 288h-170v-55q-5 -2 -12.5 -3t-12.5 -1t-12 1t-14 4v101h272v-47l-173 -295h-58z" />
    <glyph glyph-name="fivesevenths" unicode="&#xf50a;" horiz-adv-x="904" 
d="M81 408q28 -17 55 -27t65 -10t63.5 20t25.5 58q0 29 -19 49.5t-59 20.5q-27 0 -47 -9t-32 -25h-43l24 191h211q3 -7 4 -12.5t1 -10.5q0 -4 -1 -10.5t-4 -12.5h-172l-11 -91q9 6 29 14t51 8q24 0 46.5 -6.5t40 -20t28 -34.5t10.5 -51q0 -18 -6.5 -39t-23.5 -39.5
t-45.5 -31t-71.5 -12.5q-45 0 -74.5 10t-44.5 19v52zM604 683h60l-402 -699h-60zM773 288h-170v-55q-5 -2 -12.5 -3t-12.5 -1t-12 1t-14 4v101h272v-47l-173 -295h-58z" />
    <glyph glyph-name="sixsevenths" unicode="&#xf50b;" horiz-adv-x="904" 
d="M335 615q-25 12 -48.5 18.5t-49.5 6.5q-28 0 -48 -11t-32.5 -28t-19.5 -38t-8 -41q10 14 35 27.5t64 13.5q21 0 43 -6t40.5 -19.5t30.5 -35t12 -53.5q0 -57 -37 -89.5t-101 -32.5q-65 0 -105 40.5t-40 127.5q0 30 8 63t27 61t50 46t78 18q33 0 57 -5.5t44 -14.5v-48z
M134 444q0 -14 5 -27.5t15.5 -24.5t26 -17.5t37.5 -6.5q36 0 58 22.5t22 56.5q0 12 -4 25.5t-13.5 24t-25 17.5t-38.5 7q-42 0 -62.5 -24t-20.5 -53zM603 683h60l-402 -699h-60zM772 288h-170v-55q-5 -2 -12.5 -3t-12.5 -1t-12 1t-14 4v101h272v-47l-173 -295h-58z" />
    <glyph glyph-name="oneninth" unicode="&#xf50c;" horiz-adv-x="904" 
d="M158 375v260h-78q-3 10 -3 20t3 21h132v-301h73q3 -11 3 -21t-3 -20h-205q-3 10 -3 20t3 21h78zM584 683h60l-402 -699h-60zM538 53q25 -12 48.5 -18t49.5 -6q29 0 49 10.5t32.5 27t18.5 38t8 42.5q-9 -14 -34 -27.5t-64 -13.5q-21 0 -43 5.5t-40.5 19t-30.5 35t-12 53.5
q0 57 37 90t100 33q32 0 59 -10t46 -30.5t29.5 -52.5t10.5 -75q0 -30 -7.5 -63.5t-26 -61t-50 -45.5t-78.5 -18q-33 0 -57 5t-45 14v48zM575 222q0 -12 4 -25.5t13.5 -24t25 -17.5t38.5 -7q42 0 63 24t21 53q0 28 -20.5 52t-63.5 24q-37 0 -59 -22.5t-22 -56.5z" />
    <glyph glyph-name="twoninths" unicode="&#xf50d;" horiz-adv-x="904" 
d="M294 378v52q12 3 24 3t24 -3v-96h-280q1 25 10.5 45.5t24 38t32.5 32.5t38 27q21 13 41.5 24.5t36 23.5t25.5 26t10 32q0 29 -19.5 43t-52.5 14q-39 0 -68 -16t-55 -40v55q7 5 18.5 12.5t28 14.5t37 12t44.5 5q55 0 89.5 -25.5t34.5 -71.5q0 -24 -9.5 -42t-25 -33
t-36.5 -28t-44 -26q-67 -39 -93 -79h165zM629 683h60l-402 -699h-60zM573 53q25 -12 48.5 -18t49.5 -6q29 0 49 10.5t32.5 27t18.5 38t8 42.5q-9 -14 -34 -27.5t-64 -13.5q-21 0 -43 5.5t-40.5 19t-30.5 35t-12 53.5q0 57 37 90t100 33q32 0 59 -10t46 -30.5t29.5 -52.5
t10.5 -75q0 -30 -7.5 -63.5t-26 -61t-50 -45.5t-78.5 -18q-33 0 -57 5t-45 14v48zM610 222q0 -12 4 -25.5t13.5 -24t25 -17.5t38.5 -7q42 0 63 24t21 53q0 28 -20.5 52t-63.5 24q-37 0 -59 -22.5t-22 -56.5z" />
    <glyph glyph-name="fourninths" unicode="&#xf50e;" horiz-adv-x="904" 
d="M253 459v157l-132 -157h132zM71 464l185 215h50v-220h55q3 -11 3 -20q0 -10 -3 -20h-55v-85h-53v85h-182v45zM620 683h60l-402 -699h-60zM570 53q25 -12 48.5 -18t49.5 -6q29 0 49 10.5t32.5 27t18.5 38t8 42.5q-9 -14 -34 -27.5t-64 -13.5q-21 0 -43 5.5t-40.5 19
t-30.5 35t-12 53.5q0 57 37 90t100 33q32 0 59 -10t46 -30.5t29.5 -52.5t10.5 -75q0 -30 -7.5 -63.5t-26 -61t-50 -45.5t-78.5 -18q-33 0 -57 5t-45 14v48zM607 222q0 -12 4 -25.5t13.5 -24t25 -17.5t38.5 -7q42 0 63 24t21 53q0 28 -20.5 52t-63.5 24q-37 0 -59 -22.5
t-22 -56.5z" />
    <glyph glyph-name="fiveninths" unicode="&#xf50f;" horiz-adv-x="904" 
d="M81 408q28 -17 55 -27t65 -10t63.5 20t25.5 58q0 29 -19 49.5t-59 20.5q-27 0 -47 -9t-32 -25h-43l24 191h211q3 -7 4 -12.5t1 -10.5q0 -4 -1 -10.5t-4 -12.5h-172l-11 -91q9 6 29 14t51 8q24 0 46.5 -6.5t40 -20t28 -34.5t10.5 -51q0 -18 -6.5 -39t-23.5 -39.5
t-45.5 -31t-71.5 -12.5q-45 0 -74.5 10t-44.5 19v52zM614 683h60l-402 -699h-60zM569 53q25 -12 48.5 -18t49.5 -6q29 0 49 10.5t32.5 27t18.5 38t8 42.5q-9 -14 -34 -27.5t-64 -13.5q-21 0 -43 5.5t-40.5 19t-30.5 35t-12 53.5q0 57 37 90t100 33q32 0 59 -10t46 -30.5
t29.5 -52.5t10.5 -75q0 -30 -7.5 -63.5t-26 -61t-50 -45.5t-78.5 -18q-33 0 -57 5t-45 14v48zM606 222q0 -12 4 -25.5t13.5 -24t25 -17.5t38.5 -7q42 0 63 24t21 53q0 28 -20.5 52t-63.5 24q-37 0 -59 -22.5t-22 -56.5z" />
    <glyph glyph-name="sevenninths" unicode="&#xf510;" horiz-adv-x="904" 
d="M315 629h-170v-55q-5 -2 -12.5 -3t-12.5 -1t-12 1t-14 4v101h272v-47l-173 -295h-58zM565 683h60l-402 -699h-60zM522 53q25 -12 48.5 -18t49.5 -6q29 0 49 10.5t32.5 27t18.5 38t8 42.5q-9 -14 -34 -27.5t-64 -13.5q-21 0 -43 5.5t-40.5 19t-30.5 35t-12 53.5
q0 57 37 90t100 33q32 0 59 -10t46 -30.5t29.5 -52.5t10.5 -75q0 -30 -7.5 -63.5t-26 -61t-50 -45.5t-78.5 -18q-33 0 -57 5t-45 14v48zM559 222q0 -12 4 -25.5t13.5 -24t25 -17.5t38.5 -7q42 0 63 24t21 53q0 28 -20.5 52t-63.5 24q-37 0 -59 -22.5t-22 -56.5z" />
    <glyph glyph-name="eightninths" unicode="&#xf511;" horiz-adv-x="904" 
d="M133 519q-19 9 -34.5 26t-15.5 46q0 18 7 34.5t22 29t40 20.5t61 8t61 -8t40 -20.5t22 -29t7 -34.5q0 -29 -15.5 -46t-34.5 -26q39 -17 51.5 -42.5t12.5 -44.5q0 -45 -33.5 -75t-110.5 -30t-110.5 30t-33.5 75q0 19 12.5 44.5t51.5 42.5zM126 432q0 -20 8.5 -32t21.5 -19
t28 -9.5t29 -2.5q13 0 28.5 2.5t28.5 9.5t21.5 19t8.5 32q0 34 -27 48.5t-60 14.5t-60 -14.5t-27 -48.5zM137 589q0 -23 20 -38t56 -15t56 15t20 38q0 19 -16.5 36t-59.5 17q-22 0 -36.5 -5t-23.5 -12.5t-12.5 -17t-3.5 -18.5zM619 683h60l-402 -699h-60zM568 53
q25 -12 48.5 -18t49.5 -6q29 0 49 10.5t32.5 27t18.5 38t8 42.5q-9 -14 -34 -27.5t-64 -13.5q-21 0 -43 5.5t-40.5 19t-30.5 35t-12 53.5q0 57 37 90t100 33q32 0 59 -10t46 -30.5t29.5 -52.5t10.5 -75q0 -30 -7.5 -63.5t-26 -61t-50 -45.5t-78.5 -18q-33 0 -57 5t-45 14v48
zM605 222q0 -12 4 -25.5t13.5 -24t25 -17.5t38.5 -7q42 0 63 24t21 53q0 28 -20.5 52t-63.5 24q-37 0 -59 -22.5t-22 -56.5z" />
    <glyph glyph-name="zero.alt" unicode="&#xf800;" horiz-adv-x="549" 
d="M274 -16q-70 0 -114.5 34t-69.5 86t-34 113.5t-9 117.5q0 55 9 116.5t34 113t69 85t115 33.5q70 0 114.5 -33.5t69.5 -85t34 -113t9 -116.5q0 -56 -9 -117.5t-34 -113.5t-69.5 -86t-114.5 -34zM274 40q42 0 72 21.5t49.5 60.5t28.5 93.5t9 119.5t-9 119t-28.5 92.5
t-49.5 59.5t-72 21t-72 -21t-49.5 -59.5t-28.5 -92.5t-9 -119t9 -119.5t28.5 -93.5t49.5 -60.5t72 -21.5z" />
    <glyph glyph-name="one.alt" unicode="&#xf801;" horiz-adv-x="411" 
d="M171 50v567h-136q-4 12 -4 25t4 25h201v-617h128q4 -12 4 -25t-4 -25h-329q-4 12 -4 25t4 25h136z" />
    <glyph glyph-name="two.alt" unicode="&#xf802;" horiz-adv-x="529" 
d="M402 57v116q13 4 29 4t29 -4v-173h-445q2 44 15.5 81t38 71.5t60.5 67.5t83 68l38 29q27 20 51.5 39.5t42.5 41.5t28.5 47t10.5 56q0 60 -37 93t-100 33q-33 0 -62.5 -10t-54.5 -25t-44 -31t-31 -28v72q12 10 31.5 23.5t45 25.5t57.5 20.5t70 8.5t73 -11t61.5 -33.5
t42.5 -56t16 -77.5q0 -43 -14.5 -76.5t-39.5 -62t-58.5 -55t-72.5 -54.5l-34 -25q-57 -42 -96 -87.5t-50 -87.5h316z" />
    <glyph glyph-name="three.alt" unicode="&#xf803;" horiz-adv-x="507" 
d="M19 115q40 -31 88.5 -53t109.5 -22q34 0 63.5 10t51 29t34 46t12.5 60q0 48 -19 76t-46 42t-56.5 17.5t-50.5 3.5h-29q-4 12 -4 27t4 27h35q26 0 51.5 7t45.5 22.5t32.5 40.5t12.5 61q0 18 -6.5 38.5t-22 38t-41.5 29.5t-66 12q-32 0 -59.5 -8t-50 -20.5t-40 -27
t-29.5 -26.5v67q28 29 79 50t107 21q45 0 81 -13t61 -36t38.5 -54t13.5 -67q0 -64 -28.5 -101t-73.5 -57q63 -18 95.5 -57.5t32.5 -108.5q0 -38 -13 -74.5t-41.5 -65.5t-72.5 -47t-107 -18q-61 0 -111.5 18t-80.5 38v75z" />
    <glyph glyph-name="four.alt" unicode="&#xf804;" horiz-adv-x="539" 
d="M334 225v374l-248 -374h248zM31 231l304 450h60v-456h104q4 -12 4 -26q0 -6 -1 -13t-3 -14h-104v-124h75q4 -11 4 -24t-4 -24h-222q-4 11 -4 24t4 24h86v124h-303v59z" />
    <glyph glyph-name="five.alt" unicode="&#xf805;" horiz-adv-x="488" 
d="M30 103q31 -24 74.5 -44.5t108.5 -20.5q75 0 119 47.5t44 125.5q0 84 -41.5 124.5t-104.5 40.5q-48 0 -78.5 -17t-51.5 -49h-53l34 357h329q2 -8 3 -15.5t1 -14.5t-1 -14.5t-3 -15.5h-281l-22 -223q20 20 52 34t83 14q36 0 72 -12.5t64.5 -39t46.5 -67t18 -96.5
q0 -34 -10.5 -75t-36.5 -76.5t-70.5 -59.5t-112.5 -24q-71 0 -116 18t-67 33v70z" />
    <glyph glyph-name="six.alt" unicode="&#xf806;" horiz-adv-x="536" 
d="M465 581q-32 20 -66.5 33t-80.5 13q-41 0 -71.5 -15.5t-52 -41t-35.5 -57.5t-22.5 -65.5t-12 -65t-3.5 -55.5q20 43 64.5 72.5t104.5 29.5q35 0 71.5 -11t66.5 -36t49 -66t19 -101q0 -107 -58 -169t-162 -62q-42 0 -75 13.5t-56 33.5q-29 25 -46.5 59.5t-27 72.5t-13 77
t-3.5 74q0 58 12.5 122.5t42.5 119.5t79 91t123 36q53 0 88 -11t65 -25v-66zM285 37q34 0 60.5 13t45.5 36.5t29 55t10 68.5q0 27 -7 56.5t-24 53.5t-45.5 39.5t-71.5 15.5q-38 0 -66.5 -14t-47 -38t-27.5 -54.5t-9 -63.5q0 -29 8.5 -59t27.5 -54t47.5 -39.5t69.5 -15.5z
" />
    <glyph glyph-name="seven.alt" unicode="&#xf807;" horiz-adv-x="498" 
d="M407 606h-309v-120q-13 -4 -29 -4t-29 4v181h426v-59l-283 -608h-69z" />
    <glyph glyph-name="eight.alt" unicode="&#xf808;" horiz-adv-x="547" 
d="M172 362q-18 9 -35 22t-30.5 31t-22 42t-8.5 55q0 32 10.5 63t33.5 55t61 38.5t92 14.5q55 0 92.5 -14.5t61 -38.5t34 -54.5t10.5 -62.5t-8.5 -56t-22 -42t-30.5 -31t-35 -22q35 -13 58 -34t36.5 -45t19 -48.5t5.5 -43.5q0 -42 -12.5 -79.5t-39.5 -66t-68.5 -45
t-99.5 -16.5t-100 16.5t-69 45t-39.5 66t-12.5 79.5q0 19 5.5 43.5t19 48t36.5 44.5t58 35zM406 509q0 19 -6 40.5t-21 39.5t-40.5 30t-64.5 12q-40 0 -65.5 -11.5t-40.5 -29.5t-21 -39.5t-6 -41.5q0 -26 9.5 -49t26.5 -40t41.5 -26.5t54.5 -9.5t54.5 9.5t42 26.5t27 40
t9.5 49zM120 185q0 -45 15 -73t37.5 -44.5t49.5 -22.5t51 -6t51 6t50 22t38 44.5t15 73.5q0 38 -12.5 65.5t-33.5 45.5t-49 26.5t-58 8.5t-58 -8.5t-49.5 -26t-34 -45t-12.5 -66.5z" />
    <glyph glyph-name="nine.alt" unicode="&#xf809;" horiz-adv-x="536" 
d="M69 88q34 -20 69 -33.5t86 -13.5q92 0 142 75.5t52 224.5q-9 -20 -25.5 -39t-38.5 -33t-50 -22.5t-60 -8.5q-33 0 -69 11t-65.5 35.5t-48.5 65.5t-19 101q0 52 14.5 95t43 73.5t69 47t93.5 16.5q69 0 112 -30.5t67.5 -77.5t33 -104.5t8.5 -112.5q0 -69 -12.5 -136
t-42 -120t-79 -85.5t-122.5 -32.5q-53 0 -89.5 10.5t-68.5 26.5v67zM256 292q38 0 66 14.5t47 38t28 54.5t9 64q0 31 -9 61t-27.5 54t-47 38.5t-67.5 14.5q-35 0 -62 -13.5t-46.5 -36.5t-29.5 -55t-10 -69q0 -27 7 -56.5t24.5 -53.5t46 -39.5t71.5 -15.5z" />
    <glyph glyph-name="zero.sups" unicode="&#xf80a;" 
d="M179 417q-45 0 -73.5 17t-44.5 43t-22 58t-6 61q0 28 6 59t22 57.5t44.5 43.5t73.5 17t73.5 -17t44.5 -43.5t22 -57.5t6 -59q0 -29 -6 -61t-22 -58t-44.5 -43t-73.5 -17zM179 461q46 0 67.5 36t21.5 99q0 60 -21.5 97t-67.5 37t-67.5 -37t-21.5 -97q0 -63 21.5 -99
t67.5 -36z" />
    <glyph glyph-name="one.sups" unicode="&#xf80b;" 
d="M158 465v260h-78q-3 10 -3 20t3 21h132v-301h73q3 -11 3 -21t-3 -20h-205q-3 10 -3 20t3 21h78z" />
    <glyph glyph-name="two.sups" unicode="&#xf80c;" 
d="M255 468v52q12 3 24 3t24 -3v-96h-280q1 25 10.5 45.5t24 38t32.5 32.5t38 27q21 13 41.5 24.5t36 23.5t25.5 26t10 32q0 29 -19.5 43t-52.5 14q-39 0 -68 -16t-55 -40v55q7 5 18.5 12.5t28 14.5t37 12t44.5 5q55 0 89.5 -25.5t34.5 -71.5q0 -24 -9.5 -42t-25 -33
t-36.5 -28t-44 -26q-67 -39 -93 -79h165z" />
    <glyph glyph-name="three.sups" unicode="&#xf80d;" horiz-adv-x="395" 
d="M49 496q29 -16 57.5 -25.5t70.5 -9.5q38 0 64 16t26 46q0 19 -8.5 30.5t-22 17.5t-30.5 8t-35 2h-24q-3 12 -3 22t3 22h28q14 0 28 3t25.5 9.5t18.5 17.5t7 26q0 9 -3.5 17.5t-12 16t-23.5 12t-37 4.5q-37 0 -64.5 -13t-53.5 -30v48q14 12 47.5 24.5t75.5 12.5
q62 0 94 -26t32 -63q0 -32 -19 -50.5t-39 -26.5q37 -8 55 -29.5t18 -53.5q0 -20 -8.5 -39t-26.5 -34t-46.5 -24.5t-68.5 -9.5q-42 0 -73.5 9.5t-51.5 18.5v51z" />
    <glyph glyph-name="four.sups" unicode="&#xf80e;" 
d="M217 549v157l-132 -157h132zM35 554l185 215h50v-220h55q3 -11 3 -20q0 -10 -3 -20h-55v-85h-53v85h-182v45z" />
    <glyph glyph-name="five.sups" unicode="&#xf80f;" 
d="M41 498q28 -17 55 -27t65 -10t63.5 20t25.5 58q0 29 -19 49.5t-59 20.5q-27 0 -47 -9t-32 -25h-43l24 191h211q3 -7 4 -12.5t1 -10.5q0 -4 -1 -10.5t-4 -12.5h-172l-11 -91q9 6 29 14t51 8q24 0 46.5 -6.5t40 -20t28 -34.5t10.5 -51q0 -18 -6.5 -39t-23.5 -39.5
t-45.5 -31t-71.5 -12.5q-45 0 -74.5 10t-44.5 19v52z" />
    <glyph glyph-name="six.sups" unicode="&#xf810;" 
d="M304 705q-25 12 -48.5 18.5t-49.5 6.5q-28 0 -48 -11t-32.5 -28t-19.5 -38t-8 -41q10 14 35 27.5t64 13.5q21 0 43 -6t40.5 -19.5t30.5 -35t12 -53.5q0 -57 -37 -89.5t-101 -32.5q-65 0 -105 40.5t-40 127.5q0 30 8 63t27 61t50 46t78 18q33 0 57 -5.5t44 -14.5v-48z
M103 534q0 -14 5 -27.5t15.5 -24.5t26 -17.5t37.5 -6.5q36 0 58 22.5t22 56.5q0 12 -4 25.5t-13.5 24t-25 17.5t-38.5 7q-42 0 -62.5 -24t-20.5 -53z" />
    <glyph glyph-name="seven.sups" unicode="&#xf811;" 
d="M262 719h-170v-55q-5 -2 -12.5 -3t-12.5 -1t-12 1t-14 4v101h272v-47l-173 -295h-58z" />
    <glyph glyph-name="eight.sups" unicode="&#xf812;" 
d="M99 609q-19 9 -34.5 26t-15.5 46q0 18 7 34.5t22 29t40 20.5t61 8t61 -8t40 -20.5t22 -29t7 -34.5q0 -29 -15.5 -46t-34.5 -26q39 -17 51.5 -42.5t12.5 -44.5q0 -45 -33.5 -75t-110.5 -30t-110.5 30t-33.5 75q0 19 12.5 44.5t51.5 42.5zM92 522q0 -20 8.5 -32t21.5 -19
t28 -9.5t29 -2.5q13 0 28.5 2.5t28.5 9.5t21.5 19t8.5 32q0 34 -27 48.5t-60 14.5t-60 -14.5t-27 -48.5zM103 679q0 -23 20 -38t56 -15t56 15t20 38q0 19 -16.5 36t-59.5 17q-22 0 -36.5 -5t-23.5 -12.5t-12.5 -17t-3.5 -18.5z" />
    <glyph glyph-name="nine.sups" unicode="&#xf813;" 
d="M53 484q25 -12 48.5 -18t49.5 -6q29 0 49 10.5t32.5 27t18.5 38t8 42.5q-9 -14 -34 -27.5t-64 -13.5q-21 0 -43 5.5t-40.5 19t-30.5 35t-12 53.5q0 57 37 90t100 33q32 0 59 -10t46 -30.5t29.5 -52.5t10.5 -75q0 -30 -7.5 -63.5t-26 -61t-50 -45.5t-78.5 -18q-33 0 -57 5
t-45 14v48zM90 653q0 -12 4 -25.5t13.5 -24t25 -17.5t38.5 -7q42 0 63 24t21 53q0 28 -20.5 52t-63.5 24q-37 0 -59 -22.5t-22 -56.5z" />
    <glyph glyph-name="zero.sinf" unicode="&#xf814;" 
d="M179 -95q-45 0 -73.5 17t-44.5 43t-22 58t-6 61q0 28 6 59t22 57.5t44.5 43.5t73.5 17t73.5 -17t44.5 -43.5t22 -57.5t6 -59q0 -29 -6 -61t-22 -58t-44.5 -43t-73.5 -17zM179 -51q46 0 67.5 36t21.5 99q0 60 -21.5 97t-67.5 37t-67.5 -37t-21.5 -97q0 -63 21.5 -99
t67.5 -36z" />
    <glyph glyph-name="one.sinf" unicode="&#xf815;" 
d="M158 -47v260h-78q-3 10 -3 20t3 21h132v-301h73q3 -11 3 -21t-3 -20h-205q-3 10 -3 20t3 21h78z" />
    <glyph glyph-name="two.sinf" unicode="&#xf816;" 
d="M255 -44v52q12 3 24 3t24 -3v-96h-280q1 25 10.5 45.5t24 38t32.5 32.5t38 27q21 13 41.5 24.5t36 23.5t25.5 26t10 32q0 29 -19.5 43t-52.5 14q-39 0 -68 -16t-55 -40v55q7 5 18.5 12.5t28 14.5t37 12t44.5 5q55 0 89.5 -25.5t34.5 -71.5q0 -24 -9.5 -42t-25 -33
t-36.5 -28t-44 -26q-67 -39 -93 -79h165z" />
    <glyph glyph-name="three.sinf" unicode="&#xf817;" horiz-adv-x="395" 
d="M49 -16q29 -16 57.5 -25.5t70.5 -9.5q38 0 64 16t26 46q0 19 -8.5 30.5t-22 17.5t-30.5 8t-35 2h-24q-3 12 -3 22t3 22h28q14 0 28 3t25.5 9.5t18.5 17.5t7 26q0 9 -3.5 17.5t-12 16t-23.5 12t-37 4.5q-37 0 -64.5 -13t-53.5 -30v48q14 12 47.5 24.5t75.5 12.5
q62 0 94 -26t32 -63q0 -32 -19 -50.5t-39 -26.5q37 -8 55 -29.5t18 -53.5q0 -20 -8.5 -39t-26.5 -34t-46.5 -24.5t-68.5 -9.5q-42 0 -73.5 9.5t-51.5 18.5v51z" />
    <glyph glyph-name="four.sinf" unicode="&#xf818;" 
d="M217 37v157l-132 -157h132zM35 42l185 215h50v-220h55q3 -11 3 -20q0 -10 -3 -20h-55v-85h-53v85h-182v45z" />
    <glyph glyph-name="five.sinf" unicode="&#xf819;" 
d="M41 -14q28 -17 55 -27t65 -10t63.5 20t25.5 58q0 29 -19 49.5t-59 20.5q-27 0 -47 -9t-32 -25h-43l24 191h211q3 -7 4 -12.5t1 -10.5q0 -4 -1 -10.5t-4 -12.5h-172l-11 -91q9 6 29 14t51 8q24 0 46.5 -6.5t40 -20t28 -34.5t10.5 -51q0 -18 -6.5 -39t-23.5 -39.5
t-45.5 -31t-71.5 -12.5q-45 0 -74.5 10t-44.5 19v52z" />
    <glyph glyph-name="six.sinf" unicode="&#xf81a;" 
d="M304 193q-25 12 -48.5 18.5t-49.5 6.5q-28 0 -48 -11t-32.5 -28t-19.5 -38t-8 -41q10 14 35 27.5t64 13.5q21 0 43 -6t40.5 -19.5t30.5 -35t12 -53.5q0 -57 -37 -89.5t-101 -32.5q-65 0 -105 40.5t-40 127.5q0 30 8 63t27 61t50 46t78 18q33 0 57 -5.5t44 -14.5v-48z
M103 22q0 -14 5 -27.5t15.5 -24.5t26 -17.5t37.5 -6.5q36 0 58 22.5t22 56.5q0 12 -4 25.5t-13.5 24t-25 17.5t-38.5 7q-42 0 -62.5 -24t-20.5 -53z" />
    <glyph glyph-name="seven.sinf" unicode="&#xf81b;" 
d="M262 207h-170v-55q-5 -2 -12.5 -3t-12.5 -1t-12 1t-14 4v101h272v-47l-173 -295h-58z" />
    <glyph glyph-name="eight.sinf" unicode="&#xf81c;" 
d="M99 97q-19 9 -34.5 26t-15.5 46q0 18 7 34.5t22 29t40 20.5t61 8t61 -8t40 -20.5t22 -29t7 -34.5q0 -29 -15.5 -46t-34.5 -26q39 -17 51.5 -42.5t12.5 -44.5q0 -45 -33.5 -75t-110.5 -30t-110.5 30t-33.5 75q0 19 12.5 44.5t51.5 42.5zM92 10q0 -20 8.5 -32t21.5 -19
t28 -9.5t29 -2.5q13 0 28.5 2.5t28.5 9.5t21.5 19t8.5 32q0 34 -27 48.5t-60 14.5t-60 -14.5t-27 -48.5zM103 167q0 -23 20 -38t56 -15t56 15t20 38q0 19 -16.5 36t-59.5 17q-22 0 -36.5 -5t-23.5 -12.5t-12.5 -17t-3.5 -18.5z" />
    <glyph glyph-name="nine.sinf" unicode="&#xf81d;" 
d="M53 -28q25 -12 48.5 -18t49.5 -6q29 0 49 10.5t32.5 27t18.5 38t8 42.5q-9 -14 -34 -27.5t-64 -13.5q-21 0 -43 5.5t-40.5 19t-30.5 35t-12 53.5q0 57 37 90t100 33q32 0 59 -10t46 -30.5t29.5 -52.5t10.5 -75q0 -30 -7.5 -63.5t-26 -61t-50 -45.5t-78.5 -18q-33 0 -57 5
t-45 14v48zM90 141q0 -12 4 -25.5t13.5 -24t25 -17.5t38.5 -7q42 0 63 24t21 53q0 28 -20.5 52t-63.5 24q-37 0 -59 -22.5t-22 -56.5z" />
    <glyph glyph-name="i.locl" horiz-adv-x="277" 
d="M127 623q-18 0 -32.5 14.5t-14.5 37.5t14.5 37.5t32.5 14.5t32.5 -14.5t14.5 -37.5t-14.5 -37.5t-32.5 -14.5zM109 48v411h-71q-4 11 -4 24t4 24h135v-459h71q4 -11 4 -24t-4 -24h-206q-4 11 -4 24t4 24h71z" />
    <glyph glyph-name="kgreenlandic.case" horiz-adv-x="755" 
d="M114 52v625h-78q-4 12 -4 26t4 26h224q4 -12 4 -26t-4 -26h-78v-326l315 326h-103q-4 12 -4 26t4 26h245q4 -12 4 -26t-4 -26h-65l-225 -230l254 -395h70q4 -12 4 -26t-4 -26h-245q-4 12 -4 26t4 26h94l-221 347l-119 -123v-224h78q4 -12 4 -26t-4 -26h-224q-4 12 -4 26
t4 26h78zM759 704q-35 -17 -47.5 -46t-12.5 -61q4 1 8.5 2t8.5 1q25 0 37.5 -16.5t12.5 -39.5t-14 -41t-40 -18q-29 0 -45.5 25.5t-16.5 66.5q0 46 13 78t31 51.5t36.5 29t28.5 11.5v-43z" />
    <glyph glyph-name="napostrophe.case" horiz-adv-x="840" 
d="M215 52v625h-78q-4 12 -4 26t4 26h171l360 -644v592h-81q-4 12 -4 26t4 26h221q4 -12 4 -26t-4 -26h-78v-686h-78l-376 676v-615h80q4 -12 4 -26t-4 -26h-219q-4 12 -4 26t4 26h78zM8 561q29 14 40 39t11 52q-10 -2 -15 -2q-21 0 -31.5 14t-10.5 33q0 20 11.5 35t34.5 15
q25 0 38.5 -21.5t13.5 -56.5q0 -39 -11 -66t-26 -43.5t-30.5 -24.5t-24.5 -10v36z" />
    <glyph glyph-name="caron.alt" horiz-adv-x="254" 
d="M102 758h66l-26 -198h-40v198z" />
    <glyph glyph-name="commaaccent" horiz-adv-x="500" 
d="M250 -179q20 7 36 21t18 31q-4 -1 -18 -1q-17 0 -29 9t-12 28q0 17 12 29.5t35 12.5q20 0 36.5 -14t16.5 -46q0 -25 -10 -43.5t-24 -31.5t-31 -20t-30 -10v35z" />
    <glyph glyph-name="revcommaaccent" horiz-adv-x="254" 
d="M181 732q-13 -4 -22 -12t-15 -17t-8.5 -18.5t-2.5 -17.5q6 3 17 3q20 0 31 -13t11 -33t-12 -36t-34 -16q-27 0 -41 21.5t-14 53.5q0 27 8.5 48.5t21.5 37t29 25t31 11.5v-37z" />
    </font>
</defs>
</svg>
