<svg width="145" height="217" viewBox="0 0 145 217" fill="none" xmlns="http://www.w3.org/2000/svg">
<path d="M3.59744 58.2975C7.41989 55.199 128.515 49.9584 132.529 55.8111C136.542 61.6638 148.086 205.457 142.964 210.009C137.842 214.561 15.2559 216.779 11.0894 209.703C6.88473 202.588 -2.17446 62.9261 3.59744 58.2975Z" fill="#064A42"/>
<path d="M134.287 128.415C98.6999 133.35 7.38164 130.29 3.21517 130.137C1.95377 130.098 0.959913 129.027 0.998137 127.765C1.03636 126.503 2.10663 125.508 3.36804 125.546C4.47655 125.584 111.849 129.18 139.982 122.754C141.167 122.448 142.467 123.251 142.734 124.475C143.002 125.699 142.238 126.923 141.014 127.229C139.103 127.65 136.848 128.033 134.287 128.415Z" fill="white"/>
<path d="M56.8822 216.435C55.7355 216.588 54.627 215.861 54.3212 214.714C48.3964 190.194 46.2558 71.6095 46.0265 56.0023C39.8341 53.3246 16.7466 42.1547 18.352 24.3289C18.8871 18.5527 21.7157 17.6346 23.3594 17.5964C27.1436 17.5198 32.3804 23.0665 37.2349 29.6843C35.4383 20.7713 35.2472 11.1699 39.5283 4.24608C41.4013 1.22409 43.5419 -0.191264 45.8736 0.0382535C48.7786 0.344277 51.1486 3.09849 53.098 8.4539C56.3089 17.2521 58.029 32.209 56.1942 42.8816C62.1954 37.9852 69.5727 33.2418 74.7713 33.5861C79.1671 33.8539 80.7725 36.4168 80.7343 38.7502C80.7343 44.9855 68.7318 54.9312 50.537 56.6144C50.8427 73.9812 53.0598 190.27 58.717 213.643C59.0228 214.867 58.2583 216.129 57.0351 216.435C57.0733 216.397 56.9586 216.435 56.8822 216.435ZM73.4716 38.1764C67.9291 38.9415 58.5641 46.7834 53.442 51.6032C65.4827 49.7288 73.2805 44.0291 75.574 40.4334C76.3002 39.2858 76.3002 38.6737 76.262 38.5972C76.2238 38.5207 75.8033 38.2147 74.6183 38.1764C74.2361 38.1382 73.8156 38.1382 73.4716 38.1764ZM23.5123 22.225C23.5505 22.2632 23.13 22.837 22.9389 24.7879C21.8304 36.9906 36.2028 46.0183 44.1153 50.0349C43.4655 48.696 42.7009 47.0511 41.9365 45.1385C36.5086 36.0725 26.8378 22.072 23.5123 22.225ZM46.294 43.7614C47.5172 45.9418 48.5493 47.8162 49.2373 49.1933C49.3138 49.1168 49.3902 49.0403 49.4667 48.9638C53.8243 42.3843 52.9833 21.3451 48.8551 10.0223C47.2879 5.69969 45.8354 4.62861 45.4531 4.59035C45.3002 4.59035 44.5739 4.89638 43.4654 6.65601C37.3113 16.64 42.3569 34.1216 46.294 43.7614Z" fill="white"/>
<path d="M35.6677 62.4671C30.8132 63.1556 25.8058 62.7731 21.7923 61.5873C17.6258 60.3632 15.1794 58.4505 14.6825 56.0788C14.4532 55.0843 14.4531 53.1716 16.5555 51.3355C24.2768 44.6029 44.9945 50.7999 47.3262 51.5267C47.7084 51.6415 48.0525 51.871 48.32 52.1388C48.8934 52.1388 49.505 52.3683 49.9637 52.8273C50.8428 53.7454 50.8428 55.199 49.9637 56.0788C46.2559 59.7129 41.0191 61.7403 35.6677 62.4671ZM24.2386 53.0568C22.251 53.3246 20.6073 53.8984 19.537 54.8165C19.193 55.1225 19.1165 55.2755 19.1165 55.2755C19.3077 55.5433 20.9513 56.8056 24.6973 57.609C30.3163 58.7948 37.923 58.4123 43.4655 55.2373C37.5789 53.6306 29.6283 52.2918 24.2386 53.0568Z" fill="white"/>
<path d="M113.646 188.205L99.732 189.658C99.5026 189.658 91.743 189.505 86.2769 188.511C86.2769 186.904 86.3533 186.292 86.4298 185.068L94.8774 183.767C95.3361 178.603 96.0242 170.838 96.4829 168.466L96.6357 157.028L88.341 157.87L87.4236 153.318L96.7886 149.569C98.6234 148.804 101.49 147.809 105.007 147.274C106.383 148.039 106.918 149.34 108.141 150.717L106.383 169.231L106.154 183.767C108.294 183.997 110.702 183.997 113.607 184.456C113.799 185.909 113.799 186.598 113.646 188.205Z" fill="white"/>
</svg>
