<svg width="347" height="179" viewBox="0 0 347 179" fill="none" xmlns="http://www.w3.org/2000/svg">
<path d="M343.32 115.451C343.052 107.303 342.67 99.1548 342.059 91.0069C340.835 74.0991 339.345 57.1913 338.045 40.2835C337.854 37.6058 336.554 36.2287 334.07 35.9991C291.793 32.0591 249.097 35.8844 206.706 34.928C142.756 33.4744 78.1952 31.2558 14.2839 34.0483C6.71549 34.3925 4.42203 36.6877 3.96333 44.1853C3.38997 54.0163 3.04594 63.8855 3.12239 73.7166C3.23706 93.1108 3.54287 112.467 4.11624 131.861C4.46026 143.796 5.4541 155.693 6.21858 167.589C6.90662 178.95 26.4011 176.12 34.3136 176.617C107.208 181.054 180.216 177.879 253.149 176.808C266.412 176.617 279.715 176.502 292.978 176.541C307.886 176.579 322.832 177.765 337.701 177.267C343.549 177.191 344.046 176.349 344.008 170.535C343.893 152.135 343.932 133.812 343.32 115.451Z" fill="#A82F13"/>
<path d="M131.595 100.341C132.971 97.6246 136.832 96.8596 139.316 98.3132C142.107 99.9581 142.718 103.324 141.342 106.04C140.578 107.609 139.775 109.177 139.01 110.745C137.634 113.461 133.774 114.226 131.289 112.773C128.499 111.128 127.887 107.762 129.263 105.046C130.028 103.477 130.83 101.909 131.595 100.341Z" fill="white"/>
<path d="M229.067 88.1762C231.59 86.6843 235.413 87.4876 236.789 90.2035C238.241 92.996 239.885 95.6737 241.72 98.2366C243.516 100.723 242.14 104.548 239.694 105.964C236.827 107.647 233.769 106.423 231.972 103.936C230.138 101.373 228.494 98.7339 227.041 95.9032C225.627 93.2255 226.315 89.7828 229.067 88.1762Z" fill="white"/>
<path d="M178.764 69.7382C180.713 66.8309 182.969 64.1532 185.644 61.8581C187.976 59.8689 191.34 59.5629 193.633 61.8581C195.659 63.8855 195.965 67.8638 193.633 69.853C191.531 71.6508 189.849 73.4487 188.511 75.4379C186.829 77.9626 183.542 79.0719 180.79 77.4653C178.267 76.0117 177.044 72.3011 178.764 69.7382Z" fill="white"/>
<path d="M138.17 143.719C139.775 141.118 143.215 140.124 145.891 141.692C148.49 143.222 149.522 146.818 147.917 149.419C145.623 153.206 142.986 156.764 140.195 160.168C138.246 162.54 134.232 162.196 132.207 160.168C129.875 157.835 130.257 154.545 132.207 152.173C134.347 149.572 136.373 146.703 138.17 143.719Z" fill="white"/>
<path d="M172.801 120.576C173.871 117.707 176.623 115.757 179.758 116.636C182.472 117.401 184.803 120.729 183.695 123.598C183.122 125.09 182.548 126.582 182.013 128.074C180.943 130.943 178.191 132.894 175.056 132.014C172.342 131.249 170.01 127.921 171.119 125.052L172.801 120.576Z" fill="white"/>
<path d="M214.771 59.2952C213.166 57.5738 211.752 55.6612 210.796 53.519C209.535 50.7266 209.993 47.4368 212.822 45.7919C215.23 44.3766 219.282 45.0269 220.543 47.8193C221.269 49.426 221.843 50.344 222.76 51.3386C224.863 53.5573 224.977 57.1148 222.76 59.3335C220.658 61.3991 216.874 61.5522 214.771 59.2952Z" fill="white"/>
<path d="M212.363 146.474L220.428 150.069C223.219 151.332 223.869 155.387 222.454 157.797C220.772 160.665 217.523 161.086 214.733 159.824L206.668 156.228C203.877 154.966 203.227 150.911 204.642 148.501C206.285 145.632 209.534 145.211 212.363 146.474Z" fill="white"/>
<path d="M31.9437 130.905C34.6576 132.664 36.9893 135.036 38.3654 138.02C39.6268 140.812 39.1681 144.102 36.3395 145.747C33.9314 147.162 29.8796 146.512 28.6181 143.719C28.427 143.299 28.2359 142.878 27.9683 142.457C27.8919 142.342 27.5479 141.883 27.5479 141.807C27.3567 141.577 27.1274 141.386 26.9363 141.156C26.8216 141.042 26.7451 140.965 26.7069 140.927C26.6305 140.889 26.5158 140.85 26.2865 140.697C23.7254 139.053 22.6551 135.686 24.2606 132.97C25.7131 130.407 29.3444 129.26 31.9437 130.905Z" fill="white"/>
<path d="M36.3777 94.4496C38.2507 92.2309 40.1237 90.0505 41.9967 87.8318C43.9844 85.4983 47.9597 85.8044 49.9857 87.8318C52.2791 90.127 51.9733 93.4933 49.9857 95.8267C48.1126 98.0454 46.2396 100.226 44.3666 102.445C42.379 104.778 38.4036 104.472 36.3777 102.445C34.046 100.149 34.39 96.7831 36.3777 94.4496Z" fill="white"/>
<path d="M81.2916 122.68C78.6158 121.112 77.7749 117.631 79.2656 114.953C79.8772 113.844 79.9155 113.806 80.2595 112.467C80.2977 112.39 80.4124 111.74 80.4506 111.625C80.5271 111.051 80.5271 110.439 80.4888 109.866C80.4506 106.92 83.1263 104.089 86.1461 104.204C89.2423 104.357 91.7651 106.691 91.8033 109.866C91.8798 113.691 90.886 117.363 89.0512 120.691C87.5604 123.292 83.8908 124.172 81.2916 122.68Z" fill="white"/>
<path d="M51.2089 52.1419C53.77 50.65 57.516 51.4533 58.9303 54.1693C59.9241 56.0437 60.8798 57.918 61.8736 59.7542C63.2879 62.4701 62.5616 65.9129 59.8477 67.4813C57.2866 68.9731 53.5406 68.1698 52.1263 65.4538C51.1325 63.5795 50.1769 61.7051 49.183 59.8689C47.7687 57.1912 48.495 53.7485 51.2089 52.1419Z" fill="white"/>
<path d="M75.8636 150.949C77.9278 148.692 81.7502 148.845 83.8526 150.949C86.0696 153.168 85.9167 156.687 83.8526 158.944C81.5591 161.431 79.7625 163.726 77.9278 166.48C76.2459 169.043 72.9203 170.114 70.2064 168.507C67.6836 167.016 66.4986 163.343 68.1805 160.78C70.474 157.299 73.035 154.01 75.8636 150.949Z" fill="white"/>
<path d="M261.329 166.862C263.469 164.72 267.215 164.644 269.318 166.862C271.84 169.502 273.599 172.486 274.784 175.967C274.86 176.158 274.86 176.387 274.898 176.579C270.847 176.617 266.757 176.655 262.705 176.693C262.246 176.005 261.749 175.316 261.329 174.857C259.226 172.639 259.15 169.043 261.329 166.862Z" fill="white"/>
<path d="M25.7132 167.666C28.1213 166.25 32.2114 166.901 33.4345 169.693C34.3902 171.835 35.5369 173.825 36.8748 175.737C37.1041 176.043 37.257 176.387 37.4099 176.732C36.3778 176.655 35.3458 176.655 34.2755 176.579C31.7909 176.426 28.1213 176.617 24.2607 176.54C24.0696 176.158 23.8402 175.775 23.6491 175.355C22.4259 172.639 22.8464 169.349 25.7132 167.666Z" fill="white"/>
<path d="M180.408 169.425C183.389 170.267 185.109 173.404 184.345 176.388C184.192 177 183.962 177.535 183.771 178.147C179.758 178.224 175.782 178.3 171.769 178.377C172.38 176.808 172.954 175.163 173.412 173.365C174.215 170.42 177.502 168.622 180.408 169.425Z" fill="white"/>
<path d="M312.893 174.781C314.537 170.037 316.907 165.906 320.118 162.043C322.067 159.671 326.081 160.015 328.107 162.043C330.439 164.376 330.056 167.666 328.107 170.037C326.425 172.065 324.934 174.781 324.017 177.305C320.233 177.229 316.487 177.152 312.702 176.999C312.588 176.273 312.664 175.508 312.893 174.781Z" fill="white"/>
<path d="M252.193 40.8572C251.696 42.9611 250.894 44.9885 249.9 46.9011C248.485 49.6171 244.701 50.4204 242.178 48.9286C239.426 47.3219 238.738 43.9174 240.153 41.2015C240.726 40.0922 240.955 39.4801 241.299 37.8735C241.605 36.6112 242.37 35.6166 243.363 34.8898C245.58 34.8516 247.759 34.8133 249.976 34.7751C251.849 36.0757 252.728 38.5238 252.193 40.8572Z" fill="white"/>
<path d="M326.081 51.568C326.196 48.6607 328.566 45.7153 331.738 45.9065C333.688 46.0213 335.752 46.0213 337.548 45.677C337.854 45.6388 338.16 45.6005 338.466 45.5623C338.772 49.2728 339.077 53.0216 339.383 56.7322C336.86 57.1529 334.338 57.3825 331.738 57.1912C328.795 57.0382 325.928 54.7812 326.081 51.568Z" fill="white"/>
<path d="M10.3087 42.3109C12.8315 43.2289 15.3543 44.1088 17.8771 45.0268C20.7439 46.0597 22.6934 48.8904 21.8142 51.9889C21.0497 54.7814 17.7624 56.9618 14.8574 55.9289C12.3345 55.0109 9.81173 54.1311 7.28892 53.213C5.64527 52.6009 4.30742 51.4151 3.61938 49.9232C3.69583 48.3166 3.73405 46.71 3.84872 45.1034C5.11013 42.8847 7.8623 41.4311 10.3087 42.3109Z" fill="white"/>
<path d="M265.228 127.653C267.445 125.549 271.038 125.435 273.216 127.653C275.319 129.757 275.433 133.544 273.216 135.648C272.376 136.451 271.649 137.216 271.229 137.829C270.885 138.364 270.541 138.9 270.235 139.435C270.159 139.55 269.509 141.004 269.776 140.392C268.668 143.222 265.992 145.211 262.82 144.332C260.106 143.605 257.736 140.238 258.882 137.37C260.373 133.659 262.323 130.407 265.228 127.653Z" fill="white"/>
<path d="M263.584 82.4001C266.03 84.1597 268.018 86.1871 269.47 88.8265C270.923 91.5042 270.12 94.9852 267.445 96.5536C264.845 98.0837 261.176 97.2039 259.723 94.5262C259.609 94.2967 258.538 92.7666 258.959 93.2256C258.806 93.0343 257.392 91.772 257.888 92.1545C255.442 90.3567 254.219 87.2199 255.863 84.4275C257.277 81.9793 261.099 80.6022 263.584 82.4001Z" fill="white"/>
<path d="M321.341 81.9793C323.443 79.7606 327.228 79.8754 329.33 81.9793C331.547 84.1979 331.432 87.7554 329.33 89.9741C327.763 91.6572 326.157 93.2638 324.514 94.8322C322.297 96.9361 318.704 97.0508 316.525 94.8322C314.422 92.7283 314.308 88.9413 316.525 86.8374C318.168 85.269 319.774 83.6624 321.341 81.9793Z" fill="white"/>
<path d="M286.251 64.6505C290.303 62.8526 294.393 61.2459 298.636 59.9453C305.593 57.8032 308.574 68.7053 301.656 70.8475C298.368 71.8803 295.119 73.0279 291.985 74.405C289.195 75.6291 285.907 75.2083 284.264 72.3776C282.811 69.9677 283.461 65.9128 286.251 64.6505Z" fill="white"/>
<path d="M309.186 124.363C310.524 126.085 311.862 127.768 313.238 129.489C315.111 131.899 315.569 135.151 313.238 137.484C311.288 139.435 307.16 139.894 305.249 137.484C303.911 135.763 302.573 134.08 301.197 132.358C299.324 129.948 298.865 126.697 301.197 124.363C303.185 122.413 307.313 121.954 309.186 124.363Z" fill="white"/>
<path d="M0.943588 111.319C0.867139 112.543 2.81658 114.035 4.11621 115.144C4.68958 115.642 5.87454 115.489 6.79193 115.489C46.2778 115.527 85.7636 115.489 125.25 115.68C146.617 115.795 167.984 116.254 189.314 116.636C210.911 117.019 232.469 117.44 254.066 117.899C264.004 118.09 273.904 118.396 283.843 118.511C286.48 118.549 287.13 119.62 287.13 122.068C287.13 136.757 287.283 151.408 287.359 166.097C287.359 167.13 287.321 168.163 287.398 169.196C287.627 171.874 289.08 173.595 291.794 173.557C294.393 173.518 295.731 171.797 295.922 169.311C296.113 167.13 296.151 164.912 296.113 162.731C295.998 149.457 295.998 136.145 295.692 122.872C295.616 119.658 296.572 118.664 299.744 118.817C313.352 119.467 326.96 119.888 340.568 120.462C343.167 120.576 345.308 120.003 345.919 117.248C346.569 114.341 344.887 112.505 342.25 111.893C339.803 111.319 337.242 111.166 334.72 111.09C322.602 110.669 310.485 110.325 298.368 110.057C296.113 110.019 295.731 108.948 295.654 107.073C294.928 88.3674 294.125 69.6617 293.399 50.9943C293.246 46.863 293.208 42.7317 293.093 37.6058C297.642 45.4094 302.152 52.1802 303.184 60.6723C303.376 62.1642 305.096 64.1151 306.548 64.6506C308.88 65.4539 311.097 63.9238 311.479 61.5521C311.861 59.1422 311.708 56.4262 310.944 54.1311C308.154 45.5242 304.331 37.338 298.253 30.4907C296.572 28.5781 297.107 27.8131 298.827 26.5507C301.044 24.9441 303.299 23.1844 305.019 21.0805C308.918 16.2989 309.109 10.867 306.51 5.4733C303.796 -0.149886 296.839 -1.52696 292.252 2.68086C289.997 4.74652 287.971 7.27121 286.442 9.94892C284.99 12.4736 284.607 11.632 283.117 10.0254C280.403 7.11818 277.459 4.2492 274.172 2.03053C270.158 -0.685427 265.572 -0.302879 261.176 1.38025C256.207 3.2929 254.219 7.73024 257.124 12.2823C259.341 15.7634 262.552 18.8236 265.839 21.3866C269.088 23.9112 272.911 25.7091 276.618 27.6218C278.53 28.6163 278.568 29.4197 277.727 31.3323C274.21 39.3272 270.923 47.4368 267.559 55.5082C267.368 55.9289 267.292 56.388 267.215 56.847C266.412 60.8636 267.445 63.35 270.197 63.9238C272.872 64.4976 274.631 62.6615 275.892 58.7214C277.994 52.2949 280.288 45.9449 282.543 39.5567C283.002 39.6332 283.422 39.7479 283.881 39.8245C284.11 43.076 284.378 46.2892 284.531 49.5407C285.334 68.3612 286.022 87.1816 286.939 105.964C287.13 109.445 286.136 110.019 282.734 109.866C273.522 109.368 264.272 109.483 255.06 109.292C231.284 108.756 207.547 108.068 183.771 107.685C162.404 107.341 141.074 107.264 119.707 107.15C96.6194 106.997 73.5318 106.882 50.4443 106.805C36.1101 106.767 21.8141 106.882 7.47996 106.92C6.33323 106.92 4.84248 106.729 4.11621 107.341C2.74013 108.221 1.02004 109.827 0.943588 111.319ZM265.228 6.00885C266.451 4.89951 267.827 4.7465 269.241 5.05252C270.388 5.43505 271.42 5.93237 272.375 6.46791C273.675 7.30947 274.86 8.34229 275.701 9.2221C275.892 9.41337 276.083 9.60464 276.274 9.75765C276.733 10.2932 277.23 10.9052 277.689 11.5555C279.676 14.4245 283.002 18.0968 282.658 21.6543C282.161 22.4959 280.976 22.9932 280.02 22.4576C276.007 20.2007 271.687 18.5941 268.018 15.8016C265.113 13.6212 261.634 9.2986 265.228 6.00885ZM290.341 19.2061C291.335 16.5284 292.596 13.889 294.011 11.4408C295.31 9.48989 297.986 6.04711 300.165 6.73566C301.12 7.04169 301.999 8.26576 302.573 9.48985C302.229 11.8998 300.662 14.7688 299.668 15.9929C298.101 17.8672 296.228 19.6651 294.163 20.9657C291.641 22.5341 289.424 22.4959 290.341 19.2061Z" fill="#064A42"/>
<path d="M111.527 87.8702L97.6132 89.3238C97.3839 89.3238 89.6243 89.1708 84.1582 88.1762C84.1582 86.5696 84.2347 85.9575 84.3111 84.7334L92.7587 83.4328C93.2174 78.2687 93.9054 70.5033 94.3641 68.1317L94.517 56.694L86.2223 57.5356L85.3049 52.9835L94.6699 49.2347C96.5047 48.4696 99.3715 47.4751 102.888 46.9395C104.264 47.7046 104.799 49.0052 106.023 50.3823L104.264 68.8967L104.035 83.4328C106.175 83.6623 108.584 83.6624 111.489 84.1214C111.68 85.575 111.68 86.2635 111.527 87.8702Z" fill="white"/>
<path d="M117.452 82.7443C115.617 78.5747 115.388 73.7549 115.54 69.2028C115.77 61.2845 118.14 54.5137 120.777 50.9179C122.841 48.6227 128.307 46.2893 132.55 46.2893C141.915 46.2893 146.388 52.2185 146.999 54.5137C148.299 59.1423 148.222 67.4432 147.993 69.2793C147.458 76.3561 145.47 81.2142 143.139 84.2744C140.463 87.2581 134.538 89.2856 130.142 89.2856C124.141 89.2856 119.592 85.8045 117.452 82.7443ZM137.252 68.9733C137.787 61.2079 137.328 54.2077 136.335 51.989C134.806 51.0709 130.868 50.9179 129.492 51.5299C127.963 55.5465 126.97 61.4374 126.587 68.1317C126.282 74.2139 126.664 80.2961 127.352 83.5094C128.575 84.5804 132.665 84.81 134.194 83.8919C134.959 83.0503 136.793 76.5091 137.252 68.9733Z" fill="white"/>
</svg>
