<svg width="164" height="207" viewBox="0 0 164 207" fill="none" xmlns="http://www.w3.org/2000/svg">
<path d="M7.32141 6.10236C7.16851 5.9876 7.0156 5.87282 6.82447 5.75806C6.0982 6.94396 5.37192 8.16813 4.60742 9.35403C4.76032 9.46879 4.9132 9.54529 5.0661 9.6218C5.83059 8.47415 6.59514 7.28826 7.32141 6.10236Z" fill="white"/>
<path d="M146.306 202.608L146.114 202.455L145.885 202.34C145.426 202.99 144.968 203.641 144.509 204.253C144.662 204.368 144.853 204.482 145.006 204.597C145.465 203.947 145.885 203.296 146.306 202.608Z" fill="white"/>
<path d="M3.26979 74.2311C3.00222 81.1931 2.73461 88.1551 2.46704 95.1554C5.525 95.1172 8.62121 95.1554 11.6792 95.0407C14.8518 94.9259 17.9862 94.6582 21.1206 94.4669C21.8086 93.7401 22.4967 93.0133 23.1848 92.2864C37.6336 77.253 52.0441 62.2196 66.493 47.1862C66.6841 45.8091 66.99 44.4702 67.0282 43.0931C67.2575 33.4533 67.4486 23.7754 67.5633 14.1356C67.5633 12.9115 67.2193 11.6874 66.9899 10.4633C58.2748 19.2615 49.5978 28.098 40.8444 36.8579C28.3833 49.3284 15.8074 61.7606 3.26979 74.2311Z" fill="#FAAD18"/>
<path d="M147.529 112.216C150.816 106.517 149.937 100.855 147.452 95.1554C146.841 95.3849 146.229 95.8439 145.617 95.8439C142.521 95.8057 139.463 95.6144 136.367 95.4614C135.679 95.5379 134.991 95.6527 134.303 95.6144C127.537 95.4614 120.733 95.3084 113.968 95.1171C113.241 95.0789 112.515 94.6581 111.789 94.4286C111.521 94.5051 111.254 94.5816 110.948 94.6581C110.719 94.6964 110.413 94.7729 110.107 94.8494C107.125 95.6527 104.144 96.3795 101.201 97.221C96.5755 98.5216 91.9886 99.8222 87.4017 101.161C86.7519 106.249 83.9996 109.5 78.9158 111.03C78.5335 111.91 78.0366 112.866 77.6926 113.899C75.7049 119.561 74.7111 125.452 73.9466 131.419C71.9971 145.879 71.1181 160.415 71.5385 175.028C71.615 177.629 71.7678 180.23 71.5767 182.793C71.5002 184.055 70.6975 185.279 70.1241 186.81C68.7481 185.968 67.8307 185.394 66.9133 184.82C66.9516 188.454 67.028 192.088 67.028 195.722C67.028 197.1 66.9516 198.438 66.9133 199.816C67.2191 201.575 67.5631 203.335 67.8689 205.094C71.8825 207.657 78.3806 207.581 82.1649 204.903C82.3178 203.526 82.6236 202.149 82.6236 200.772C82.6236 196.564 82.5089 192.394 82.5471 188.187C82.5471 187.154 82.9293 186.083 83.1205 185.05C82.9293 182.793 82.5854 180.574 82.6236 178.317C82.7765 168.104 82.9676 157.89 83.2352 147.715C83.2734 146.185 83.7703 144.655 84.0379 143.086C83.7703 142.092 83.3116 141.097 83.3116 140.103C83.2734 131.61 83.3116 123.157 83.3499 114.664C83.3499 113.517 83.4646 112.369 83.5792 111.03C85.07 111.03 86.2549 110.992 87.4399 111.03C93.5175 111.183 99.5952 111.298 105.673 111.451C109.839 111.566 114.006 111.681 118.172 111.795C119.663 111.681 121.116 111.451 122.606 111.451C130.022 111.375 137.437 111.336 144.853 111.375C145.732 111.375 146.611 111.91 147.529 112.216Z" fill="#A82F13"/>
<path d="M83.1207 184.973C82.9295 186.006 82.5473 187.077 82.5473 188.11C82.5091 192.318 82.662 196.487 82.6238 200.695C82.6238 202.072 82.3179 203.449 82.165 204.827C84.9172 204.941 87.6311 205.094 90.3833 205.133C92.3327 205.133 94.2822 204.941 96.2317 204.827C100.283 201.269 104.297 197.712 108.349 194.192C121.039 183.175 133.73 172.159 146.42 161.103C146.573 157.24 146.841 153.376 146.917 149.513C147.07 143.239 147.147 136.966 147.223 130.692C147.223 130.31 147.108 129.889 147.032 129.506C146.115 130.08 145.121 130.578 144.28 131.266C129.525 144.081 114.771 156.934 100.016 169.787C94.3587 174.836 88.7396 179.924 83.1207 184.973Z" fill="white" fill-opacity="0.8"/>
<path d="M1.70239 189.64C1.81707 193.695 1.85533 197.712 2.1229 201.766C2.23757 203.526 3.80474 204.176 5.33372 204.444C7.28317 204.75 9.27084 204.903 11.2585 204.98C14.8134 205.094 18.3683 205.094 21.9232 205.133C28.1156 198.783 34.3079 192.394 40.5003 186.044C46.6162 179.771 52.7704 173.459 58.8863 167.186C60.0712 153.682 61.906 140.256 65.4609 127.135C65.5756 126.752 65.3845 126.293 65.308 125.413C63.8555 127.479 62.4794 129.086 61.4091 130.884C55.2168 141.212 48.107 150.852 40.0034 159.726C34.996 165.197 29.3388 169.404 21.541 169.672C21.0823 169.672 20.5854 169.94 20.1267 170.093C19.6298 170.705 19.2092 171.394 18.6359 171.967C13.0169 177.858 7.35962 183.749 1.70239 189.64Z" fill="white" fill-opacity="0.8"/>
<path d="M3.26978 74.231C15.8074 61.7605 28.3832 49.3283 40.8826 36.8196C49.636 28.0596 58.313 19.2232 67.0282 10.425C67.2957 7.97682 67.5251 5.49041 67.7927 3.04222C66.3401 2.8892 64.8494 2.58319 63.3969 2.62144C57.625 2.6597 51.8913 2.77445 46.1194 2.85095C45.3549 3.76902 44.7051 4.76359 43.8641 5.5669C33.1613 15.9717 22.4585 26.3765 11.7174 36.7431C9.11815 39.2678 6.40416 41.716 3.72845 44.1642C3.57555 51.2027 3.46093 58.2795 3.30804 65.3181C3.26981 68.3018 3.308 71.2473 3.26978 74.231Z" fill="white" fill-opacity="0.8"/>
<path d="M146.42 161.142C133.73 172.158 121.039 183.175 108.349 194.23C104.297 197.75 100.283 201.307 96.2314 204.865C103.647 204.75 111.024 204.597 118.44 204.597C125.626 204.559 132.851 204.673 140.037 204.673C141.527 204.673 143.018 204.444 144.509 204.329C144.968 203.679 145.426 203.029 145.885 202.417C146.153 189.258 146.42 176.099 146.688 162.94C146.688 162.289 146.535 161.715 146.42 161.142Z" fill="#FAAD18"/>
<path d="M21.1587 94.4285C18.0243 94.6198 14.8517 94.8876 11.7173 95.0023C8.65936 95.1171 5.56314 95.0788 2.50518 95.1171C0.249943 98.7128 0.479327 102.729 0.632224 106.708C0.670449 107.664 1.54959 108.582 2.04651 109.538C3.07857 109.921 4.07237 110.303 5.0662 110.648C6.74808 110.648 8.4682 110.648 10.1501 110.609C18.6359 110.533 27.1217 110.456 35.5693 110.38C38.0157 110.342 40.5003 110.227 42.9467 110.265C45.2019 110.303 47.4189 110.456 49.6741 110.571C54.2228 107.626 58.848 104.719 63.3203 101.658C63.9701 101.199 64.467 99.9369 64.3523 99.1336C64.1994 97.527 64.6581 96.2264 65.5372 94.964C64.4287 94.7345 63.2821 94.3138 62.1736 94.2755C58.7334 94.1607 55.2549 94.2372 51.8147 94.199C51.2031 94.2372 50.6298 94.3137 50.0182 94.352C40.959 94.505 31.8998 94.658 22.8024 94.7728C22.2673 94.811 21.6939 94.5815 21.1587 94.4285Z" fill="#A82F13"/>
<path d="M58.8864 167.147C52.7323 173.421 46.6163 179.733 40.5004 186.006C34.308 192.356 28.1157 198.744 21.9233 205.094C28.1922 205.132 34.461 205.209 40.768 205.247C46.4635 205.286 52.1207 205.286 57.8161 205.247C59.1157 205.247 60.3772 205.018 61.6386 204.903C63.3969 203.182 65.1552 201.46 66.9136 199.739C66.9518 198.362 67.0283 197.023 67.0283 195.646C66.99 192.012 66.9518 188.378 66.9136 184.744C66.8371 184.476 66.7607 184.17 66.7224 183.902C66.1491 182.448 65.5374 180.957 64.773 179.006C63.3969 181.224 62.4796 182.869 61.4093 184.399C61.1035 184.858 60.1096 185.241 59.6509 185.05C59.0393 184.82 58.5042 184.055 58.1602 183.443C57.9691 183.061 58.1601 182.487 58.1984 181.989C58.4277 177.017 58.6571 172.082 58.8864 167.147Z" fill="#FAAD18"/>
<path d="M3.72827 44.1641C6.40398 41.6777 9.11798 39.2677 11.7172 36.743C22.4583 26.3765 33.1611 15.9717 43.864 5.5669C44.7049 4.76359 45.393 3.76902 46.1193 2.85095C36.5249 3.30999 26.9306 3.69253 17.3362 4.34283C13.9725 4.57234 10.6852 5.52864 7.32143 6.17894C6.55694 7.36478 5.83062 8.5124 5.06613 9.69824C4.64566 21.1359 4.18697 32.65 3.72827 44.1641Z" fill="#FAAD18"/>
<path d="M49.6743 110.609C47.419 110.495 45.202 110.342 42.9468 110.303C40.5004 110.265 38.0158 110.38 35.5695 110.418C35.2254 110.915 34.9961 111.489 34.5756 111.91C26.816 120.058 19.0182 128.168 11.2587 136.277C8.12427 139.567 4.95171 142.818 1.77908 146.108C1.62618 147.6 1.32031 149.054 1.32031 150.546C1.35854 161.103 1.39682 171.661 1.47327 182.257C1.47327 184.744 1.62611 187.192 1.70256 189.678C7.35978 183.787 13.0171 177.896 18.6743 172.005C19.2094 171.432 19.6681 170.781 20.165 170.131C19.2094 169.863 18.292 169.557 17.3364 169.366C12.1379 168.18 10.0738 166.497 9.6151 160.491C8.96528 151.731 12.3672 144.387 17.5657 137.922C22.9936 131.228 29.4918 125.49 36.5251 120.441C40.9591 117.151 45.3167 113.861 49.6743 110.609Z" fill="#FAAD18"/>
<path d="M1.7789 146.108C4.95153 142.819 8.12409 139.567 11.2585 136.277C19.0563 128.168 26.8158 120.02 34.5754 111.91C34.9959 111.489 35.2253 110.916 35.5693 110.418C27.0834 110.495 18.5976 110.571 10.15 110.648C8.46814 110.648 6.74803 110.648 5.06615 110.686C4.18699 111.719 3.30786 112.79 2.4287 113.823C2.16113 115.85 1.70244 117.916 1.66421 119.943C1.47309 128.206 1.43485 136.469 1.3584 144.731C1.3584 145.19 1.62601 145.649 1.7789 146.108Z" fill="white" fill-opacity="0.8"/>
<path d="M66.9135 199.739C65.1551 201.46 63.3968 203.182 61.6384 204.903C63.7408 204.941 65.805 205.018 67.9073 205.056C67.5633 203.258 67.2575 201.499 66.9135 199.739Z" fill="white" fill-opacity="0.8"/>
<path d="M2.42863 113.784C3.3078 112.752 4.18693 111.681 5.0661 110.648C4.07226 110.265 3.04023 109.883 2.04639 109.538C2.16106 110.954 2.27573 112.369 2.42863 113.784Z" fill="#FAAD18"/>
<path d="M63.3205 101.697C63.9703 101.238 64.4672 99.9752 64.3525 99.1719C64.1996 97.5653 64.6583 96.2647 65.5374 95.0024C65.8814 94.4668 66.1873 93.9313 66.5313 93.3957C68.5954 91.024 70.8889 89.0349 73.9086 88.8436C75.8963 83.5647 77.731 78.4771 79.7187 73.466C80.5597 71.362 81.8211 69.4112 82.5856 67.269C83.2354 65.4711 83.4647 63.5584 83.847 61.684C84.2292 61.2632 84.5732 60.8425 84.9555 60.46C86.9813 60.5747 86.9049 58.7003 87.6694 57.6292C89.122 55.1428 90.6127 52.6563 92.027 50.1699C96.3846 42.5576 101.889 35.9781 109.304 31.1582C110.948 30.0871 112.821 29.3603 114.579 28.4423C116.338 28.71 118.058 29.016 119.816 29.2838C122.148 29.6281 123.409 31.0817 124.136 33.2621C126.391 40.0329 125.741 46.6124 123.103 53.1154C121.116 58.05 118.134 62.3343 115 66.6187C110.489 72.7391 104.832 77.712 99.6719 83.2205C99.4425 83.4882 99.3661 83.8707 98.9074 84.7888C104.641 82.7614 109.878 80.9253 115.076 79.0891C115.344 78.9361 115.65 78.7831 115.841 78.6683C118.134 78.0563 120.428 77.406 122.683 76.7939C130.939 74.537 139.234 72.3184 147.491 70.0614C150.816 69.4111 154.142 68.6843 157.467 68.1488C159.149 67.881 160.984 67.0777 162.551 68.8374C162.054 71.8211 158.958 72.5096 157.123 74.6518C158.27 75.1108 159.187 75.4168 160.066 75.7994C161.519 76.4114 163.392 76.794 163.43 78.7449C163.468 80.6193 161.634 80.9636 160.258 81.4226C155.976 82.7997 151.695 84.062 147.376 85.3626C147.185 85.2861 147.07 85.3244 146.917 85.4774C135.794 88.2316 124.709 90.9858 113.586 93.74C112.936 93.893 112.324 94.2373 111.713 94.4668C111.407 94.5433 111.139 94.6198 110.91 94.6581C110.604 94.7346 110.298 94.7729 109.992 94.8494C107.011 95.6527 104.029 96.3795 101.086 97.221C96.461 98.5216 91.8741 99.8222 87.2872 101.161C86.6374 106.249 83.8852 109.5 78.8014 111.03C78.4191 111.91 77.9221 112.866 77.5781 113.899C75.5904 119.561 74.5967 125.452 73.8322 131.419C71.8827 145.879 71.0036 160.415 71.424 175.028C71.5005 177.629 71.6533 180.23 71.4622 182.793C71.3858 184.055 70.5831 185.279 70.0098 186.809C68.6337 185.968 67.7162 185.394 66.7988 184.859C66.7224 184.552 66.6842 184.246 66.6077 183.979C66.0344 182.525 65.4228 181.033 64.6583 179.082C63.2822 181.301 62.3648 182.946 61.2946 184.476C60.9888 184.935 59.9949 185.318 59.5362 185.126C58.9246 184.897 58.3895 184.132 58.0455 183.52C57.8544 183.137 58.0454 182.563 58.0836 182.066C58.313 177.131 58.5424 172.159 58.7717 167.224C59.9567 153.721 61.7914 140.294 65.3463 127.173C65.461 126.791 65.2699 126.332 65.1934 125.452C63.7409 127.517 62.3648 129.124 61.2946 130.922C55.1022 141.25 47.9925 150.89 39.8889 159.765C34.8815 165.235 29.2242 169.443 21.4264 169.71C20.9678 169.71 20.4709 169.978 20.0122 170.131C19.0566 169.863 18.1391 169.557 17.1835 169.366C11.985 168.18 9.92087 166.497 9.46218 160.491C8.81236 151.731 12.2144 144.387 17.4129 137.922C22.8408 131.228 29.3389 125.49 36.3722 120.441C40.8063 117.227 45.1639 113.938 49.5597 110.724C54.2613 107.664 58.8482 104.757 63.3205 101.697ZM34.1552 134.212C29.9123 138.496 25.3254 142.551 22.4968 148.021C21.5411 149.857 20.8913 151.846 20.3561 153.835C19.8592 155.748 21.0824 158.158 22.6879 158.923C24.4844 159.803 26.0134 159.076 27.2365 157.737C30.6003 154.141 34.0405 150.584 37.2513 146.797C41.2649 142.015 45.3167 137.272 48.6422 131.916C52.7322 125.413 57.1281 119.102 61.371 112.752C61.1799 112.599 60.9887 112.446 60.7976 112.331C51.7384 119.408 42.297 126.026 34.1552 134.212ZM103.953 48.9458C99.5954 55.1428 95.4672 61.531 91.4919 67.9958C88.7397 72.3949 86.3316 76.9852 83.847 81.5373C83.4265 82.3024 83.2736 83.1822 83.4265 84.3298C86.5227 81.2313 89.8099 78.3241 92.6768 75.0343C96.8815 70.1762 100.857 65.0886 104.832 60.0009C107.011 57.1702 109.037 54.1865 110.948 51.1645C111.904 49.6726 112.554 47.9513 113.089 46.2681C113.624 44.6232 112.859 43.3609 110.604 42.2898C108.349 44.5085 105.75 46.4211 103.953 48.9458Z" fill="#A82F13"/>
<path d="M83.1205 184.973C88.7778 179.924 94.3586 174.836 100.092 169.863C114.809 157.01 129.563 144.157 144.356 131.343C145.159 130.654 146.191 130.157 147.108 129.583C147.3 125.107 147.491 120.594 147.644 116.118C147.682 114.817 147.605 113.517 147.605 112.216C146.688 111.91 145.771 111.375 144.891 111.375C137.476 111.336 130.06 111.375 122.645 111.451C121.154 111.451 119.701 111.681 118.211 111.795C112.668 116.807 107.126 121.779 101.621 126.791C95.7729 132.184 89.9628 137.616 84.1144 143.01C83.8468 144.54 83.3499 146.07 83.3117 147.638C83.0441 157.852 82.8148 168.065 82.7001 178.241C82.5855 180.498 82.9294 182.755 83.1205 184.973Z" fill="#FAAD18"/>
<path d="M114.656 28.4421C116.414 28.7099 118.134 29.0159 119.893 29.2836C122.224 29.6279 123.486 31.0816 124.212 33.262C126.467 40.0328 125.817 46.6123 123.18 53.1153C121.192 58.0499 118.211 62.3342 115.076 66.6186C110.566 72.7391 104.908 77.712 99.7481 83.2204C99.5188 83.4882 99.4423 83.8707 98.9836 84.7888C104.717 82.7614 109.954 80.9252 115.153 79.0891C115.42 78.936 115.726 78.783 115.994 78.63C116.643 77.865 117.331 76.9851 118.134 76.2201C120.81 73.6954 123.562 71.2472 126.238 68.7225C133.003 62.296 139.731 55.793 146.497 49.3282C146.42 45.5412 146.42 41.7541 146.267 37.9671C145.847 27.9065 145.35 17.8077 144.853 7.74718C144.7 4.99297 143.821 4.03664 141.031 3.73062C139.54 3.57761 138.049 3.69238 136.558 3.65413C134.647 5.91106 132.736 8.24451 130.786 10.4632C125.397 16.4689 120.007 22.4364 114.656 28.4421Z" fill="#FAAD18"/>
<path d="M66.5695 93.3957C68.6336 91.024 70.927 89.0349 73.9467 88.8436C75.9344 83.5647 77.7693 78.4771 79.7569 73.4659C80.5979 71.362 81.8593 69.4111 82.6238 67.269C83.2736 65.4711 83.5029 63.5584 83.8851 61.684C83.7704 61.1867 83.5794 60.7277 83.5794 60.2304C83.6558 50.5142 83.7322 40.7979 83.8851 31.0816C83.8851 30.1636 84.4203 29.2455 84.6879 28.2892C82.9678 26.7973 83.7323 24.8082 83.6558 23.0103C83.35 16.2013 83.1971 9.43051 82.9678 2.62148C79.3747 -0.362251 75.0935 0.0967749 70.9653 0.55581C69.8185 0.670569 68.8629 2.16244 67.7926 3.00401C67.5251 5.4522 67.2957 7.93861 67.0281 10.3868C67.2193 11.6109 67.6015 12.835 67.6015 14.0591C67.4868 23.6988 67.2957 33.3769 67.0663 43.0166C67.0281 44.3937 66.7223 45.7708 66.5312 47.1096C66.7223 47.4922 67.0281 47.8747 67.0281 48.2572C66.9517 54.4542 66.8752 60.6512 66.6841 66.8482C66.5694 71.1325 66.2254 75.4169 65.9961 79.7012C66.1108 81.1548 66.2636 82.6084 66.3018 84.0237C66.4165 87.1605 66.493 90.2972 66.5695 93.3957Z" fill="#A82F13"/>
<path d="M84.6878 28.2892C84.4202 29.2073 83.9233 30.1254 83.8851 31.0817C83.7322 40.7979 83.6558 50.5142 83.5793 60.2305C83.5793 60.7278 83.7704 61.1868 83.8851 61.6841C84.2673 61.2633 84.6114 60.8425 84.9936 60.46C85.911 59.5037 86.7901 58.5856 87.7075 57.6292C89.16 55.1428 90.6508 52.6564 92.0652 50.1699C96.4227 42.5576 101.927 35.9781 109.343 31.1582C110.986 30.0871 112.859 29.3603 114.618 28.4423C119.969 22.4748 125.359 16.5073 130.71 10.5016C132.698 8.28294 134.571 5.98774 136.482 3.69257C133.806 3.57781 131.131 3.34829 128.455 3.31004C122.301 3.27178 116.147 3.31003 109.954 3.34828C101.583 11.6492 93.1354 19.9501 84.6878 28.2892Z" fill="white" fill-opacity="0.8"/>
<path d="M84.6879 28.2891C93.1355 19.9882 101.583 11.6491 110.031 3.34822C102.195 3.11871 94.3587 2.88922 86.5227 2.6597C85.3377 2.62145 84.1527 2.6597 82.9678 2.6597C83.1971 9.4687 83.35 16.2394 83.6558 23.0484C83.7323 24.8081 82.9295 26.7972 84.6879 28.2891Z" fill="#FAAD18"/>
<path d="M146.459 49.3282C139.731 55.793 132.965 62.296 126.2 68.7225C123.524 71.2472 120.772 73.6954 118.096 76.2201C117.293 76.9469 116.644 77.8268 115.917 78.6301C118.211 78.018 120.504 77.3677 122.759 76.7557C131.016 74.4987 139.311 72.2801 147.567 70.0231C147.376 68.8755 146.994 67.7662 146.956 66.6186C146.764 60.8806 146.612 55.1045 146.459 49.3282Z" fill="white" fill-opacity="0.8"/>
<path d="M147.491 85.3626C147.299 85.2861 147.185 85.3244 147.032 85.4774C146.191 86.3189 145.388 87.1987 144.509 88.0403C141.795 90.565 139.081 93.0131 136.367 95.4996C139.425 95.6143 142.521 95.8056 145.617 95.8821C146.229 95.8821 146.841 95.4613 147.452 95.1936C147.491 91.9038 147.491 88.6141 147.491 85.3626Z" fill="#FAAD18"/>
<path d="M65.996 79.7394C66.2254 75.4551 66.5693 71.1708 66.684 66.8865C66.8751 60.6895 66.9516 54.4925 67.0281 48.2955C67.0281 47.913 66.684 47.5305 66.5311 47.1479C52.0823 62.1813 37.6716 77.2147 23.2228 92.2481C22.5347 92.9749 21.8467 93.7017 21.1587 94.4285C21.7321 94.5433 22.3054 94.811 22.8788 94.811C31.938 94.6963 40.9972 94.5432 50.0946 94.3902C50.7062 94.3902 51.2796 94.3137 51.8911 94.2372C56.5545 89.4174 61.2562 84.5593 65.996 79.7394Z" fill="white" fill-opacity="0.8"/>
<path d="M84.0381 143.01C89.8865 137.578 95.6584 132.146 101.545 126.791C107.049 121.741 112.592 116.768 118.134 111.795C113.968 111.681 109.801 111.566 105.635 111.451C99.5572 111.298 93.4796 111.145 87.4019 111.03C86.217 110.992 85.032 111.03 83.5412 111.03C83.4648 112.369 83.35 113.517 83.3118 114.664C83.2736 123.156 83.2354 131.61 83.2737 140.103C83.3119 141.059 83.8088 142.054 84.0381 143.01Z" fill="white" fill-opacity="0.8"/>
<path d="M136.406 95.4613C139.119 92.9748 141.833 90.4884 144.547 88.002C145.427 87.1987 146.229 86.3189 147.07 85.4391C135.947 88.1933 124.862 90.9475 113.738 93.7017C113.089 93.8547 112.477 94.1989 111.827 94.4285C112.553 94.658 113.28 95.0787 114.006 95.117C120.772 95.3465 127.576 95.4613 134.341 95.6143C135.029 95.6525 135.717 95.5378 136.406 95.4613Z" fill="white" fill-opacity="0.8"/>
<path d="M111.024 94.6581C110.718 94.7346 110.413 94.7729 110.107 94.8494C110.413 94.7729 110.718 94.6963 111.024 94.6581Z" fill="white"/>
<path d="M111.865 94.4286C111.56 94.5051 111.292 94.5816 110.986 94.6581C111.254 94.5816 111.56 94.5051 111.865 94.4286Z" fill="white"/>
<path d="M65.996 79.7394C61.2561 84.5593 56.5545 89.4174 51.8147 94.2373C55.2549 94.2373 58.7333 94.199 62.1735 94.3137C63.3203 94.352 64.4287 94.7728 65.5372 95.0023C65.8812 94.4668 66.187 93.9312 66.5311 93.3957C66.4546 90.2972 66.3782 87.1987 66.2635 84.1002C66.2635 82.6466 66.1106 81.193 65.996 79.7394Z" fill="#FAAD18"/>
<path d="M66.9133 184.782C66.8368 184.476 66.7986 184.17 66.7222 183.902C66.7986 184.17 66.8368 184.476 66.9133 184.782Z" fill="#FDC25B"/>
<path d="M60.7976 112.331C51.7384 119.408 42.2969 126.026 34.1933 134.212C29.9504 138.496 25.3634 142.551 22.5348 148.021C21.5792 149.857 20.9295 151.846 20.3943 153.835C19.8974 155.748 21.1205 158.158 22.7259 158.923C24.5225 159.803 26.0515 159.076 27.2747 157.737C30.6385 154.141 34.0787 150.584 37.2895 146.797C41.3031 142.015 45.3549 137.272 48.6804 131.916C52.7704 125.413 57.1663 119.102 61.4092 112.752C61.1798 112.637 60.9887 112.484 60.7976 112.331Z" fill="#FAAD18"/>
<path d="M110.566 42.2898C108.349 44.4702 105.749 46.4211 103.953 48.9458C99.5953 55.1428 95.4671 61.531 91.4918 67.9957C88.7396 72.3948 86.3315 76.9852 83.8469 81.5373C83.4264 82.3023 83.2735 83.1822 83.4264 84.3298C86.5225 81.2313 89.8098 78.324 92.6767 75.0343C96.8814 70.1762 100.857 65.0886 104.832 60.0009C107.011 57.1702 109.037 54.1864 110.948 51.1645C111.904 49.6726 112.554 47.9512 113.089 46.2681C113.547 44.6232 112.821 43.3609 110.566 42.2898Z" fill="#FAAD18"/>
<path d="M87.7075 57.5909C86.7901 58.5473 85.911 59.4654 84.9937 60.4218C87.0195 60.5365 86.943 58.6621 87.7075 57.5909Z" fill="#FDC25B"/>
<path d="M115.955 78.6301C115.688 78.7831 115.382 78.9361 115.115 79.0891C115.42 78.9361 115.688 78.7831 115.955 78.6301Z" fill="white"/>
<path d="M112.745 171.164L98.831 172.618C98.6016 172.618 90.8421 172.465 85.376 171.47C85.376 169.863 85.4524 169.251 85.5288 168.027L93.9765 166.727C94.4352 161.563 95.1232 153.797 95.5819 151.426L95.7348 139.988L87.4401 140.829L86.5227 136.277L95.8877 132.529C97.7225 131.763 100.589 130.769 104.106 130.233C105.482 130.998 106.017 132.299 107.24 133.676L105.482 152.191L105.253 166.727C107.393 166.956 109.801 166.956 112.706 167.415C112.898 168.869 112.898 169.557 112.745 171.164Z" fill="#A52B23"/>
<path d="M143.783 171.164L129.869 172.618C129.64 172.618 121.88 172.465 116.414 171.47C116.414 169.863 116.491 169.251 116.567 168.027L125.015 166.727C125.474 161.563 126.162 153.797 126.62 151.426L126.773 139.988L118.478 140.829L117.561 136.277L126.926 132.529C128.761 131.763 131.628 130.769 135.144 130.233C136.52 130.998 137.056 132.299 138.279 133.676L136.521 152.191L136.291 166.727C138.432 166.956 140.84 166.956 143.745 167.415C143.936 168.869 143.936 169.557 143.783 171.164Z" fill="#A52B23"/>
</svg>
