<svg width="185" height="147" viewBox="0 0 185 147" fill="none" xmlns="http://www.w3.org/2000/svg">
<path d="M4.05189 8.47772C3.93722 8.32471 3.86077 8.20996 3.74609 8.05695C4.81638 7.3684 5.84844 6.71809 6.91872 6.02954C6.99517 6.1443 7.07162 6.29731 7.14807 6.41207C6.11601 7.10062 5.08395 7.78917 4.05189 8.47772Z" fill="white"/>
<path d="M181.948 129.357L181.834 129.204L181.757 129.013C182.331 128.592 182.904 128.171 183.439 127.75C183.554 127.903 183.669 128.056 183.783 128.209C183.172 128.554 182.56 128.936 181.948 129.357Z" fill="white"/>
<path d="M64.8286 3.65789C71.0592 3.31362 77.2516 2.93107 83.4822 2.58679C83.5204 5.34101 83.5969 8.09522 83.5586 10.8112C83.5204 13.6419 83.3293 16.4726 83.1764 19.2651C82.5266 19.8771 81.915 20.5274 81.2652 21.1395C68.0777 34.2985 54.8903 47.4958 41.7411 60.6548C40.5179 60.8461 39.2947 61.1521 38.0715 61.1904C29.471 61.5729 20.8323 61.8789 12.1936 62.185C11.1233 62.2232 10.0148 61.9172 8.90625 61.7642C16.6276 53.8076 24.3489 45.8892 32.0321 37.9326C43.0407 26.5332 53.9347 15.0955 64.8286 3.65789Z" fill="#156055"/>
<path d="M101.256 132.035C96.2109 135.057 91.127 134.368 86.0431 132.264C86.2343 131.729 86.6165 131.155 86.6165 130.62C86.5018 127.865 86.3107 125.111 86.1196 122.357C86.1578 121.745 86.2725 121.133 86.2343 120.482C86.0049 114.4 85.7373 108.356 85.4316 102.274C85.3933 101.624 85.0111 100.973 84.7817 100.323C84.82 100.094 84.8964 99.8259 84.9729 99.5581C85.0111 99.3286 85.0875 99.0608 85.1258 98.793C85.7756 96.1153 86.3872 93.4376 87.0752 90.7981C88.1455 86.6668 89.254 82.4972 90.3243 78.4042C94.8348 77.7156 97.7016 75.2292 98.963 70.6388C99.7275 70.2945 100.607 69.8355 101.524 69.4912C106.57 67.6168 111.806 66.6222 117.081 65.8189C129.963 63.8298 142.921 62.797 155.994 62.9117C158.287 62.95 160.619 63.0265 162.913 62.7969C164.021 62.6822 165.091 61.9554 166.467 61.4198C165.665 60.1957 165.168 59.3924 164.633 58.5891C167.882 58.5508 171.131 58.5509 174.38 58.5126C175.603 58.5126 176.788 58.3979 178.011 58.3214C179.578 58.5891 181.184 58.8569 182.751 59.0864C185.121 62.6439 185.159 68.4584 182.828 71.8629C181.604 72.0159 180.381 72.3219 179.12 72.3219C175.374 72.3984 171.628 72.3602 167.882 72.475C166.926 72.5132 166.009 72.8575 165.091 73.0488C163.104 72.934 161.078 72.6662 159.09 72.7427C149.993 73.0487 140.857 73.4313 131.76 73.8521C130.384 73.9286 129.007 74.3876 127.67 74.6554C126.79 74.4258 125.873 74.0433 124.994 74.0433C117.425 74.1581 109.857 74.3493 102.289 74.5023C101.256 74.5406 100.224 74.6554 99.0777 74.7701C99.1159 76.109 99.0777 77.1801 99.1541 78.2129C99.3835 83.6448 99.6128 89.0767 99.8422 94.5086C99.9951 98.2192 100.186 101.968 100.377 105.679C100.301 106.979 100.11 108.318 100.148 109.619C100.224 116.236 100.301 122.892 100.492 129.51C100.492 130.428 100.989 131.232 101.256 132.035Z" fill="#064A42"/>
<path d="M165.13 73.1252C166.047 72.934 167.003 72.5897 167.92 72.5514C171.666 72.4749 175.412 72.5132 179.158 72.3984C180.381 72.3602 181.604 72.0924 182.866 71.9394C183.019 74.3876 183.21 76.8358 183.286 79.284C183.324 81.0054 183.172 82.765 183.133 84.5246C180.037 88.1969 176.941 91.8692 173.845 95.5415C164.212 107.094 154.58 118.646 144.947 130.16C141.507 130.39 138.067 130.658 134.626 130.811C129.046 131.078 123.427 131.231 117.846 131.423C117.502 131.423 117.158 131.308 116.776 131.27C117.273 130.428 117.693 129.51 118.305 128.783C129.504 115.356 140.704 101.93 151.942 88.5412C156.262 83.377 160.734 78.2894 165.13 73.1252Z" fill="white" fill-opacity="0.8"/>
<path d="M167.882 0.253357C171.475 0.29161 175.106 0.253357 178.699 0.444622C180.266 0.521128 180.878 1.9365 181.146 3.27535C181.451 4.99673 181.642 6.79459 181.719 8.55423C181.872 11.7292 181.948 14.9042 182.025 18.0792C176.444 23.7407 170.863 29.3639 165.282 35.0253C159.778 40.6102 154.274 46.2334 148.769 51.8183C136.729 53.1189 124.764 54.9551 113.144 58.3978C112.8 58.5126 112.38 58.3596 111.615 58.2831C113.412 56.9442 114.864 55.7201 116.432 54.7256C125.529 49.0259 134.015 42.4846 141.813 35.1018C146.629 30.5497 150.26 25.4238 150.375 18.4235C150.375 18.0027 150.604 17.5819 150.757 17.1611C151.292 16.7021 151.904 16.3196 152.401 15.8223C157.561 10.5816 162.721 5.4175 167.882 0.253357Z" fill="white" fill-opacity="0.8"/>
<path d="M64.8288 3.6579C53.9348 15.0955 43.0408 26.5332 32.0704 37.9325C24.3873 45.9274 16.6659 53.8458 8.94461 61.7641C6.76581 62.0319 4.54879 62.2997 2.37 62.5674C2.2171 61.2668 1.9113 59.928 1.9113 58.6274C1.83486 53.4632 1.83486 48.3373 1.79663 43.1732C2.59934 42.4846 3.47851 41.8726 4.16655 41.1075C13.264 31.353 22.3996 21.5985 31.4588 11.8057C33.6758 9.43407 35.7782 6.94762 37.957 4.53769C44.264 4.30817 50.5328 4.04044 56.8399 3.81092C59.5156 3.73441 62.1913 3.7344 64.8288 3.6579Z" fill="white" fill-opacity="0.8"/>
<path d="M144.947 130.199C154.58 118.646 164.212 107.094 173.845 95.5797C176.903 91.9074 180.037 88.2351 183.133 84.5628C183.171 91.1806 183.171 97.7984 183.286 104.416C183.401 110.843 183.63 117.307 183.745 123.734C183.783 125.073 183.592 126.412 183.516 127.712C182.942 128.133 182.369 128.554 181.834 128.974C170.099 129.434 158.326 129.931 146.591 130.39C145.979 130.428 145.444 130.275 144.947 130.199Z" fill="#156055"/>
<path d="M83.1763 19.265C83.2909 16.4343 83.4821 13.6036 83.5585 10.8112C83.5967 8.05695 83.5203 5.30275 83.4821 2.58679C86.6547 0.521132 90.2478 0.635881 93.8027 0.712387C94.6436 0.712387 95.5228 1.51573 96.3637 1.93651C96.7077 2.85458 97.0517 3.73439 97.434 4.65246C97.4722 6.18257 97.4722 7.67444 97.5104 9.20456C97.5869 16.7786 97.6633 24.3527 97.7398 31.965C97.7398 34.1837 97.7016 36.3641 97.778 38.5828C97.8545 40.6102 98.0456 42.5993 98.1602 44.5885C95.5992 48.7198 93.0764 52.8894 90.4389 56.9442C90.0567 57.518 88.9482 57.977 88.1837 57.9388C86.7311 57.824 85.5844 58.2831 84.4759 59.0864C84.2466 58.0918 83.8643 57.0972 83.7879 56.0644C83.635 52.9659 83.635 49.9056 83.5585 46.8071C83.5967 46.2716 83.6732 45.7361 83.635 45.2005C83.5967 37.0909 83.5967 28.9813 83.5585 20.8717C83.5585 20.2979 83.3292 19.8006 83.1763 19.265Z" fill="#064A42"/>
<path d="M148.77 51.7801C154.274 46.1952 159.778 40.572 165.282 34.9871C170.863 29.3257 176.444 23.7025 182.025 18.0411C182.178 23.6642 182.369 29.2492 182.484 34.8723C182.598 39.96 182.713 45.0476 182.751 50.1352C182.751 51.2828 182.598 52.4304 182.522 53.578C181.031 55.1846 179.502 56.7912 178.011 58.3978C176.788 58.4743 175.603 58.5508 174.38 58.5891C171.131 58.6274 167.882 58.6273 164.633 58.6656C164.403 58.5891 164.136 58.5509 163.868 58.5126C162.53 58.0153 161.231 57.518 159.472 56.8677C161.422 55.6054 162.874 54.7638 164.25 53.7693C164.633 53.4632 164.977 52.5834 164.824 52.2009C164.594 51.6654 163.945 51.2063 163.371 50.9003C163.027 50.709 162.492 50.9003 162.072 50.9385C157.599 51.2063 153.204 51.5123 148.77 51.7801Z" fill="#156055"/>
<path d="M37.9951 4.57599C35.8163 6.98592 33.7139 9.47235 31.4969 11.844C22.3995 21.6368 13.3021 31.3912 4.20463 41.1457C3.47837 41.9108 2.59921 42.5228 1.83472 43.2114C2.10229 34.6045 2.25519 26.0358 2.63743 17.4289C2.79033 14.407 3.59304 11.4615 4.08996 8.43952C5.12202 7.75097 6.15408 7.06241 7.18614 6.37385C17.4303 5.80006 27.7127 5.18803 37.9951 4.57599Z" fill="#156055"/>
<path d="M98.1605 44.5503C98.0076 42.5611 97.8165 40.5337 97.7783 38.5446C97.7018 36.3259 97.74 34.1455 97.74 31.9268C98.1605 31.6208 98.6574 31.3913 99.0397 31.0087C106.188 23.9319 113.297 16.8169 120.407 9.70182C123.274 6.83285 126.141 3.92563 129.046 1.05666C130.346 0.903648 131.683 0.597653 132.983 0.5594C142.424 0.406388 151.866 0.253376 161.307 0.17687C163.524 0.138617 165.703 0.215104 167.92 0.253357C162.76 5.41751 157.6 10.5817 152.439 15.7458C151.942 16.2431 151.331 16.6639 150.796 17.0847C150.528 16.2431 150.26 15.4015 150.031 14.56C148.884 9.93136 147.355 8.09519 141.966 7.78917C134.13 7.33013 127.632 10.5434 121.936 15.325C116.05 20.2979 111.042 26.2271 106.646 32.5771C103.818 36.5937 100.951 40.572 98.1605 44.5503Z" fill="#156055"/>
<path d="M129.008 1.05663C126.141 3.9256 123.274 6.83282 120.369 9.70179C113.259 16.8169 106.149 23.8937 99.0014 31.0087C98.6192 31.3913 98.1223 31.6208 97.7018 31.9268C97.6253 24.3527 97.5489 16.7404 97.4724 9.16629C97.4724 7.63617 97.4342 6.14429 97.396 4.61417C98.3134 3.81086 99.2308 3.00753 100.148 2.20422C101.983 1.93645 103.779 1.47742 105.614 1.40091C112.992 1.09489 120.369 0.903606 127.746 0.712341C128.167 0.712341 128.587 0.941869 129.008 1.05663Z" fill="white" fill-opacity="0.8"/>
<path d="M178.05 58.3979C179.54 56.7913 181.069 55.1847 182.56 53.5781C182.637 55.4524 182.713 57.3268 182.789 59.1629C181.184 58.9334 179.617 58.6656 178.05 58.3979Z" fill="white" fill-opacity="0.8"/>
<path d="M100.148 2.20425C99.2307 3.00756 98.3134 3.81089 97.396 4.6142C97.0519 3.69613 96.7079 2.81632 96.3257 1.89825C97.6253 2.01301 98.8867 2.12774 100.148 2.20425Z" fill="#156055"/>
<path d="M98.1603 44.5502C100.989 40.5719 103.856 36.5936 106.608 32.6153C111.004 26.2271 116.011 20.2979 121.898 15.3632C127.555 10.5816 134.091 7.40666 141.927 7.82744C147.317 8.13346 148.846 9.96958 149.993 14.5982C150.222 15.4398 150.49 16.2813 150.757 17.1229C150.642 17.5437 150.413 17.9645 150.375 18.3852C150.26 25.3473 146.629 30.5114 141.813 35.0635C134.015 42.4846 125.529 48.9876 116.432 54.6873C114.864 55.6819 113.412 56.9059 111.615 58.2448C112.38 58.3213 112.8 58.4743 113.144 58.3595C124.803 54.955 136.729 53.0806 148.769 51.78C153.165 51.474 157.599 51.2062 161.995 50.9002C162.454 50.862 162.951 50.6707 163.295 50.862C163.868 51.168 164.556 51.5887 164.747 52.1625C164.9 52.5451 164.556 53.4249 164.174 53.7309C162.836 54.7255 161.384 55.6053 159.396 56.8294C161.154 57.4797 162.492 57.977 163.792 58.4743C164.059 58.5125 164.327 58.589 164.594 58.6273C165.091 59.4306 165.588 60.2339 166.391 61.458C165.015 61.9936 163.983 62.7204 162.836 62.8351C160.543 63.0646 158.211 62.9499 155.917 62.9499C142.883 62.8351 129.925 63.868 117.005 65.8571C111.692 66.6604 106.493 67.655 101.448 69.5294C100.53 69.8737 99.6892 70.3327 98.8865 70.677C97.6251 75.2291 94.7583 77.7537 90.2478 78.4423C89.1775 82.5736 88.069 86.705 86.9987 90.8363C86.3107 93.514 85.6991 96.1917 85.0493 98.8311C85.0111 99.0989 84.9346 99.3667 84.8964 99.6345C84.8582 99.8257 84.7817 100.093 84.7053 100.361C84.5141 100.897 84.2083 101.471 84.0937 102.044C81.8002 112.028 79.545 122.012 77.2897 131.996C77.175 132.111 77.1368 132.226 77.2133 132.417C76.1048 136.281 75.0727 140.144 73.926 144.008C73.5437 145.232 73.2761 146.877 71.5943 146.877C69.8742 146.877 69.4919 145.194 68.9186 143.931C68.5745 143.128 68.2687 142.325 67.8483 141.33C65.9753 143.013 65.4019 145.806 62.7262 146.303C61.1208 144.888 61.8088 143.243 62.0382 141.751C62.4586 138.767 63.0702 135.783 63.5671 132.8C65.4401 125.379 67.2749 117.919 69.1479 110.498C69.6448 108.433 70.18 106.405 70.7151 104.34C70.8298 104.148 70.9445 103.881 71.0974 103.651C72.6646 98.9459 74.1935 94.279 75.9136 89.0766C75.1109 89.4974 74.7669 89.574 74.5376 89.8035C69.7213 94.5086 65.4019 99.6727 59.974 103.804C56.1898 106.673 52.4056 109.427 48.048 111.302C42.2761 113.788 36.4278 114.438 30.3119 112.564C28.3242 111.952 27.0246 110.843 26.6805 108.777C26.413 107.209 26.1072 105.678 25.8396 104.11C26.6041 102.503 27.2157 100.82 28.1713 99.3284C32.3378 92.5959 38.1097 87.5465 44.8372 83.5299C47.0542 82.1911 49.233 80.8522 51.45 79.5134C52.4056 78.8248 54.0875 78.8249 53.9346 77.0652C54.2786 76.721 54.6608 76.3766 55.0049 76.0706C56.6867 75.6881 58.4068 75.4586 59.974 74.8465C61.847 74.1197 63.5671 72.9339 65.4401 72.1688C69.9124 70.2944 74.4229 68.573 79.0863 66.6987C79.2009 63.9827 80.921 61.9171 83.0234 60.0427C83.4821 59.7367 83.979 59.4306 84.4377 59.1246C85.5462 58.3213 86.6929 57.9005 88.1455 57.977C88.8717 58.0153 90.0185 57.5945 90.4007 56.9824C93.0764 52.8129 95.5992 48.6816 98.1603 44.5502ZM99.8804 54.4195C99.995 54.5725 100.148 54.7638 100.263 54.9168C105.882 51.015 111.462 46.9602 117.158 43.2114C121.859 40.1129 126.064 36.4406 130.231 32.7683C133.556 29.8611 136.652 26.7244 139.825 23.6259C140.972 22.5165 141.621 21.1394 140.781 19.5328C140.054 18.1175 137.875 17.0464 136.194 17.5436C134.435 18.0409 132.639 18.6913 131.033 19.5711C126.217 22.2105 122.662 26.3801 118.916 30.2436C111.768 37.6265 106.035 46.1951 99.8804 54.4195ZM38.1861 100.17C39.1799 102.159 40.3267 102.809 41.7792 102.312C43.27 101.815 44.7989 101.165 46.0986 100.285C48.7743 98.5251 51.4118 96.689 53.8964 94.6616C58.3686 91.0275 62.8409 87.3935 67.122 83.5299C70.0271 80.9287 72.5499 77.9068 75.2638 75.1143C74.2318 74.9995 73.4673 75.1526 72.7792 75.5351C68.7657 77.8685 64.7139 80.0872 60.815 82.6119C55.1195 86.3224 49.5005 90.0712 44.0344 94.0878C41.7792 95.7709 40.0973 98.1426 38.1861 100.17Z" fill="#064A42"/>
<path d="M165.13 73.1252C160.734 78.2511 156.261 83.377 151.942 88.5412C140.704 101.93 129.504 115.356 118.305 128.783C117.693 129.51 117.273 130.428 116.776 131.27C112.762 131.499 108.748 131.767 104.773 131.996C103.626 132.073 102.441 131.997 101.295 132.035C101.027 131.231 100.53 130.428 100.492 129.625C100.339 123.007 100.224 116.351 100.148 109.733C100.148 108.433 100.301 107.094 100.377 105.793C104.735 100.744 109.092 95.6944 113.488 90.6833C118.19 85.3279 122.93 80.049 127.67 74.7318C129.046 74.4641 130.384 74.005 131.76 73.9285C140.857 73.5078 149.993 73.1252 159.09 72.8192C161.116 72.7427 163.142 73.0105 165.13 73.1252Z" fill="#156055"/>
<path d="M25.8779 104.072C26.1454 105.64 26.4512 107.17 26.7188 108.739C27.0628 110.843 28.4007 111.914 30.3501 112.526C36.4278 114.4 42.3144 113.712 48.0863 111.263C52.4439 109.389 56.2281 106.635 60.0123 103.766C65.402 99.6346 69.7596 94.4704 74.5758 89.7653C74.8052 89.5358 75.1492 89.4593 75.9519 89.0385C74.2318 94.2027 72.7028 98.9077 71.1356 103.613C71.021 103.881 70.8681 104.11 70.7534 104.378C70.0654 104.99 69.3009 105.602 68.651 106.329C66.434 108.777 64.3317 111.302 62.1147 113.712C56.4574 119.87 50.8002 126.029 45.143 132.15C41.7792 132.15 38.3773 132.226 35.0135 132.15C25.9925 131.92 17.0098 131.69 7.98881 131.423C5.50422 131.346 4.66328 130.581 4.35749 128.056C4.20459 126.756 4.24281 125.417 4.20459 124.078C6.19226 122.318 8.21816 120.597 10.1676 118.799C15.3661 113.903 20.6029 108.968 25.8779 104.072Z" fill="#156055"/>
<path d="M83.0235 59.9281C80.9211 61.8025 79.201 63.9064 79.0864 66.584C74.423 68.4584 69.9125 70.1798 65.4402 72.0541C63.5672 72.8192 61.8471 74.005 59.9741 74.7318C58.4069 75.3439 56.6486 75.5734 55.005 75.9559C54.5845 75.8794 54.1258 75.6882 53.7053 75.7264C45.0284 75.9559 36.3514 76.1855 27.6745 76.4915C26.8335 76.5297 26.0308 76.9888 25.1899 77.2565C23.852 75.7264 22.0555 76.4532 20.4883 76.415C14.4106 76.262 8.3329 76.2237 2.25521 76.1472C-0.458729 72.9722 -0.114709 69.147 0.229311 65.4747C0.30576 64.4419 1.64362 63.5621 2.36988 62.6058C4.54867 62.338 6.76569 62.0702 8.94449 61.8025C10.053 61.9555 11.1233 62.2615 12.2318 62.2232C20.8705 61.9172 29.471 61.6112 38.1097 61.2287C39.3329 61.1904 40.5561 60.8844 41.7793 60.6931C42.1233 60.8462 42.4673 61.1522 42.8114 61.1139C48.3539 60.9226 53.8582 60.7696 59.4008 60.5019C63.2232 60.3106 67.0457 59.9281 70.8681 59.6603C72.1677 59.7368 73.4674 59.8516 74.767 59.8898C77.4809 59.9281 80.2713 59.9281 83.0235 59.9281Z" fill="#064A42"/>
<path d="M25.1899 77.2566C26.0309 76.9888 26.8336 76.5298 27.6745 76.4915C36.3515 76.1855 45.0284 75.956 53.7054 75.7264C54.1259 75.7264 54.5845 75.8794 55.005 75.9559C54.661 76.3002 54.2788 76.6445 53.9347 76.9505C53.0938 77.7538 52.2911 78.5954 51.4501 79.3987C49.2714 80.7375 47.0543 82.1146 44.8373 83.4152C38.1098 87.4318 32.3379 92.4812 28.1714 99.2137C27.2541 100.706 26.6042 102.389 25.8398 103.995C20.603 108.892 15.3663 113.826 10.0913 118.723C8.14183 120.521 6.11593 122.242 4.12826 124.002C3.97536 121.63 3.70779 119.22 3.66957 116.848C3.51667 111.34 3.47844 105.832 3.36377 100.323C10.6646 92.6725 17.9273 84.9837 25.1899 77.2566Z" fill="white" fill-opacity="0.8"/>
<path d="M25.1898 77.2565C17.9272 84.9454 10.6263 92.6725 3.36364 100.361C3.01962 93.361 2.6756 86.3608 2.33158 79.3605C2.29335 78.2894 2.29335 77.2182 2.25513 76.1472C8.33282 76.2237 14.4105 76.262 20.4882 76.415C22.0936 76.4533 23.8519 75.7264 25.1898 77.2565Z" fill="#156055"/>
<path d="M45.0667 132.15C50.7239 125.991 56.4193 119.87 62.0383 113.712C64.2553 111.302 66.3959 108.777 68.5747 106.329C69.2245 105.602 69.989 104.99 70.7153 104.34C70.1801 106.405 69.6832 108.433 69.1481 110.498C67.2751 117.919 65.4403 125.379 63.5673 132.8C62.5352 132.647 61.5414 132.341 60.5093 132.302C55.3873 132.226 50.227 132.188 45.0667 132.15Z" fill="white" fill-opacity="0.8"/>
<path d="M77.2517 132.456C77.1752 132.303 77.2135 132.15 77.3281 132.035C78.0544 131.27 78.8571 130.543 79.5452 129.74C81.7239 127.291 83.9027 124.805 86.0815 122.319C86.2727 125.073 86.4638 127.827 86.5785 130.581C86.6167 131.117 86.1962 131.691 86.0051 132.226C83.1 132.341 80.195 132.417 77.2517 132.456Z" fill="#156055"/>
<path d="M70.8298 59.6602C67.0073 59.928 63.1849 60.3105 59.3624 60.5017C53.8199 60.7695 48.3156 60.9608 42.773 61.1138C42.429 61.1138 42.085 60.846 41.741 60.693C54.9284 47.534 68.1158 34.3368 81.2651 21.1778C81.8767 20.5658 82.5265 19.9155 83.1763 19.3035C83.291 19.8008 83.5203 20.3363 83.5203 20.8336C83.5585 28.9432 83.5968 37.0528 83.5968 45.1624C83.5968 45.6979 83.5203 46.2334 83.5203 46.769C79.3156 51.0533 75.0727 55.3376 70.8298 59.6602Z" fill="white" fill-opacity="0.8"/>
<path d="M127.67 74.6936C122.93 80.0108 118.19 85.2897 113.488 90.6451C109.093 95.6563 104.735 100.706 100.378 105.755C100.186 102.045 99.9953 98.2957 99.8424 94.5852C99.613 89.1533 99.3837 83.7213 99.1543 78.2894C99.1161 77.2183 99.1161 76.1855 99.0779 74.8466C100.263 74.7319 101.295 74.6171 102.289 74.5789C109.857 74.3876 117.426 74.1963 124.994 74.1198C125.911 74.0816 126.791 74.5023 127.67 74.6936Z" fill="white" fill-opacity="0.8"/>
<path d="M86.1196 122.357C83.9408 124.843 81.762 127.291 79.5832 129.778C78.857 130.581 78.0925 131.308 77.3662 132.073C79.6214 122.089 81.8767 112.105 84.1702 102.121C84.3231 101.547 84.5906 100.973 84.7817 100.4C85.0111 101.05 85.3933 101.7 85.4316 102.35C85.7374 108.394 86.0049 114.477 86.2343 120.559C86.2725 121.133 86.1578 121.745 86.1196 122.357Z" fill="white" fill-opacity="0.8"/>
<path d="M84.9348 99.6727C84.973 99.405 85.0495 99.1373 85.0877 98.8695C85.0495 99.1373 84.973 99.405 84.9348 99.6727Z" fill="white"/>
<path d="M84.7817 100.4C84.8582 100.132 84.8964 99.864 84.9729 99.5963C84.8964 99.9023 84.82 100.17 84.7817 100.4Z" fill="white"/>
<path d="M70.8298 59.6602C75.0727 55.3376 79.3157 51.0533 83.5204 46.7307C83.5968 49.8292 83.5968 52.9277 83.7497 55.9879C83.7879 56.9825 84.2084 58.0153 84.4377 59.0099C83.979 59.3159 83.4821 59.622 83.0234 59.928C80.233 59.928 77.4809 59.928 74.6905 59.8515C73.4291 59.8515 72.1295 59.7367 70.8298 59.6602Z" fill="#156055"/>
<path d="M164.671 58.6656C164.403 58.6273 164.136 58.5508 163.868 58.5125C164.136 58.5508 164.403 58.589 164.671 58.6656Z" fill="#53BD91"/>
<path d="M99.8804 54.4195C106.035 46.1951 111.768 37.6265 118.954 30.2437C122.7 26.3802 126.255 22.2106 131.072 19.5711C132.677 18.6913 134.474 18.041 136.232 17.5437C137.914 17.0847 140.093 18.1175 140.819 19.5329C141.621 21.1395 141.01 22.4783 139.863 23.6259C136.691 26.6862 133.594 29.8612 130.269 32.7684C126.064 36.4407 121.898 40.1512 117.196 43.2114C111.462 46.9602 105.92 51.015 100.301 54.9168C100.148 54.7638 99.995 54.6108 99.8804 54.4195Z" fill="#156055"/>
<path d="M38.1863 100.17C40.0975 98.1428 41.7794 95.7711 44.0346 94.1262C49.5007 90.1096 55.1197 86.3225 60.8152 82.6502C64.7141 80.1255 68.7658 77.9069 72.7794 75.5734C73.4292 75.1909 74.2319 74.9997 75.264 75.1527C72.5501 77.9834 70.0273 80.9672 67.1222 83.5684C62.8411 87.4319 58.3688 91.0659 53.8965 94.7C51.4119 96.6891 48.7745 98.5636 46.0987 100.323C44.7991 101.203 43.2701 101.815 41.7794 102.351C40.2886 102.81 39.1419 102.159 38.1863 100.17Z" fill="#156055"/>
<path d="M51.4502 79.4752C52.2911 78.6719 53.0938 77.8303 53.9348 77.027C54.0495 78.7866 52.3676 78.7484 51.4502 79.4752Z" fill="#53BD91"/>
<path d="M70.7151 104.378C70.8298 104.11 70.9827 103.881 71.0973 103.613C70.9827 103.881 70.8298 104.11 70.7151 104.378Z" fill="white"/>
<path d="M37.5364 54.1518L23.6227 55.6053C23.3934 55.6053 15.6338 55.4523 10.1677 54.4578C10.1677 52.8511 10.2442 52.2391 10.3206 51.015L18.7682 49.7144C19.2269 44.5503 19.915 36.7849 20.3737 34.4132L20.5266 22.9756L12.2318 23.7789L11.3145 19.2268L20.6795 15.478C22.5142 14.713 25.3811 13.7184 28.8977 13.1829C30.2738 13.9479 30.8089 15.2485 32.0321 16.6256L30.2738 35.14L30.0444 49.6761C32.185 49.9057 34.5932 49.9057 37.4982 50.3647C37.6893 51.8566 37.6893 52.5451 37.5364 54.1518Z" fill="#064A42"/>
<path d="M73.4674 51.3976C72.3971 53.0808 70.4094 54.7639 68.2306 55.2612C61.312 53.7311 52.8644 53.7311 46.0987 53.272L42.582 54.0371C41.9704 52.8895 40.9766 49.5615 40.9001 48.2609C48.5068 41.7961 55.6548 33.6482 60.7386 24.4292C61.0444 23.8937 61.1973 23.2052 61.1973 22.4401C61.1973 20.6805 60.4328 18.2705 58.8274 17.429C56.6104 17.0464 53.6671 17.6585 52.1381 18.5C51.9088 20.2597 51.2208 26.0359 50.5327 27.6425C49.5389 28.025 46.5956 28.4841 45.4489 28.4841C44.1492 24.6588 43.4612 21.1777 43.2318 17.1229C48.2392 14.3687 56.8397 12.5708 60.6622 12.5708C65.9754 12.5708 69.7978 15.8606 71.5562 18.5C72.0149 19.2651 72.2442 20.9482 72.2442 22.8226C72.1678 25.2708 71.6326 28.1398 70.7917 29.5934C66.4723 36.0582 59.439 43.135 53.5907 47.8784C58.0629 47.7254 62.8028 47.4194 65.7461 47.4194L66.9692 40.6485C68.4982 40.4955 71.5944 40.4955 72.8176 40.878C73.0852 44.7799 73.6203 47.9931 73.4674 51.3976Z" fill="#064A42"/>
</svg>
