<?xml version="1.0" encoding="utf-8"?>
<!-- Generator: Adobe Illustrator 25.0.1, SVG Export Plug-In . SVG Version: 6.00 Build 0)  -->
<svg version="1.1" id="Layer_1" xmlns="http://www.w3.org/2000/svg" xmlns:xlink="http://www.w3.org/1999/xlink" x="0px" y="0px"
	 viewBox="0 0 230 220" style="enable-background:new 0 0 230 220;" xml:space="preserve">
<style type="text/css">
	.st0{fill:#064A42;}
	.st1{fill:#FFFFFF;}
	.st2{fill:#FAAD18;}
	.st3{fill:#412218;}
</style>
<path class="st0" d="M117.3,2.4c9.1,0.4,18.2,0.8,27.3,1.3c13.3,0.7,26.6,1.4,39.9,2.1c-0.2,0.4-0.3,0.8-0.5,1.1
	c-2.2,4.9-1.1,10.3,2.9,13.7c3.7,3.3,9.5,3.7,13.8,1c4.2-2.7,6.2-7.8,4.9-13c-0.2-0.5-0.2-1.1-0.3-1.7c4,0.2,8.1,0.4,12.1,0.7
	c1.5,0.1,3,0.2,4.3,0.8c2.2,1.1,3.4,3,3.6,5.5c0.2,3.1,0.5,6.2,0.6,9.4c0.3,10.1,0.5,20.3,0.8,30.4c-0.7-0.3-1.5-0.8-2.2-1.1
	c-4.6-2.1-8.9-1.5-12.6,1.8c-3.7,3.2-4.8,7.4-3.4,12.1c1.5,4.7,4.8,7.3,9.6,8.1c3.4,0.5,6.3-0.8,9-2.5c0,11.2,0,22.4,0,33.6
	c-5.2-0.3-10.5-0.7-15.7-1.1c-2.2-0.2-4.4-0.3-6.7-0.5c-7-0.6-13.9-1.3-20.9-1.8c-6.8-0.5-13.6-0.7-20.5-1.1
	c-2.8-0.2-5.6-0.3-8.4-0.5c-8.6-0.6-17.2-1.3-25.8-1.9c-3.2-0.2-6.3-0.4-10-0.7c0.8-0.4,1.2-0.6,1.6-0.8c2.8-0.8,5.5-1.7,8.3-2.5
	c9.4-2.8,18.5-6.5,27.1-11.1c2.4-1.3,4.7-2.8,6.3-5c2.7-3.9,1.1-8.7-3.6-10c-1.3-0.3-2.6-0.5-3.9-0.6c-5.4-0.1-10.6,1.1-15.6,3.3
	c-8.4,3.6-15.8,8.8-22.7,14.8c-2.5,2.1-4.8,4.4-7.4,6.8c0-1.3-0.1-2.3,0-3.3c0.3-3.5,0.7-7,1-10.6c0.7-7.5,1.3-15.1,2-22.6
	c0.3-4.1,0.7-8.2,1.1-12.3c0.6-7,1.3-14.1,1.9-21.2c0.3-2.8,0.5-5.6,0.8-8.3C116.6,10.6,116.9,6.5,117.3,2.4z M144,40.3
	c0,6.4,5.2,11.7,11.6,11.6c6.4-0.1,11.6-5.4,11.5-11.7c-0.1-6.3-5.3-11.5-11.5-11.5C149.3,28.7,144,33.9,144,40.3z"/>
<path class="st0" d="M106.8,1.9c1.7,0.1,3.4,0.2,5.1,0.3c-0.1,1.4-0.1,2.8-0.2,4.2c-0.6,5.5-1.2,11.1-1.8,16.7c-0.5,5-0.7,10-1.1,15
	c-0.7,8-1.6,16-2.3,24.1c-0.6,6.7-1.1,13.5-1.6,20.2c-0.2,2.8-0.6,5.5-1,8.5c-0.4-0.3-0.6-0.3-0.7-0.4c-0.2-0.2-0.5-0.5-0.6-0.7
	c-5.9-7-13.3-12-21.8-15.3c-5-1.9-10-3.7-15.5-3.4c-3.1,0.2-5.8,1.3-8,3.5c-2.7,2.6-2.5,5.6,0.4,8.1c3.7,3.1,8,5.5,12.5,7.3
	c5.3,2.1,10.7,3.8,16,5.6c0,0.2,0,0.4,0,0.5c-2.6-0.1-5.3-0.2-7.9-0.3c-5.8-0.4-11.6-1-17.4-1.4c-2.9-0.2-5.7-0.4-8.6-0.6
	c-8.6-0.6-17.2-1.3-25.8-1.8c-4.9-0.3-9.7-0.3-14.5-0.7c-1.9-0.1-3.9-0.8-5.8,0.1c0.2-6.5,0.5-13,0.7-19.5C7,67.6,7.2,63.3,7.4,59
	c0.4-6.4,0.9-12.8,1.3-19.2c0.2-3.4,0.4-6.7,0.6-10.1C9.5,25.9,9.8,22,10,18.1c0.6,0.3,1.2,0.5,1.7,0.9c4.8,3.3,10.9,2.7,14.9-1.3
	c3.9-3.8,4.4-10,1.4-14.7c-0.5-0.7-0.7-1.5-1.1-2.3C46,0.9,65.1,1,84.3,1.2c-0.1,0.5-0.1,1-0.2,1.5c-0.9,4.9,0.6,8.8,4.5,11.7
	c3.8,2.8,8,3.1,12.1,0.9c4.3-2.3,6.5-6,6.3-10.9C106.9,3.5,106.8,2.7,106.8,1.9z M58,46.9c0-6.5-5.1-11.6-11.5-11.7
	c-6.4,0-11.7,5.2-11.7,11.6c0,6.3,5.4,11.7,11.7,11.6C52.9,58.4,58,53.2,58,46.9z"/>
<path class="st1" d="M5.4,103.3c2.6-0.9,5.3-1.8,8.2-1.1c4.7,1.1,7.8,3.9,8.9,8.6c1.1,4.7-0.2,8.9-4.1,11.9c-3.8,3-8,3.3-12.3,1.3
	c-0.6-0.3-1.1-0.6-1.8-0.9c0.2-4.6,0.3-9.2,0.6-13.8C5.1,107.2,5.3,105.2,5.4,103.3z"/>
<path class="st1" d="M55.1,185.1c-0.2,6.5-5.4,11.5-11.9,11.3c-6.2-0.2-11.4-5.5-11.3-11.7c0.1-6.3,5.5-11.6,11.8-11.4
	C50.2,173.3,55.2,178.6,55.1,185.1z"/>
<path class="st1" d="M135.7,169.3c0,6.5-5.1,11.7-11.5,11.7c-6.4,0-11.7-5.2-11.7-11.6c0-6.3,5.2-11.5,11.5-11.6
	C130.4,157.7,135.7,162.9,135.7,169.3z"/>
<path class="st2" d="M6,91.4c1.9-0.8,3.9-0.2,5.8-0.1c4.9,0.3,9.7,0.3,14.5,0.7c8.6,0.5,17.2,1.2,25.8,1.8c2.9,0.2,5.7,0.3,8.6,0.6
	c5.8,0.5,11.6,1,17.4,1.4c2.6,0.2,5.3,0.2,7.9,0.3c0.8,0.1,1.7,0.2,2.6,0.3c0-0.1,0-0.2,0.1-0.3c-0.9-0.2-1.7-0.3-2.6-0.5
	c-5.4-1.9-10.8-3.6-16-5.6c-4.5-1.8-8.8-4.2-12.5-7.3c-2.9-2.4-3.1-5.5-0.4-8.1c2.2-2.1,4.9-3.3,8-3.5c5.5-0.4,10.6,1.5,15.5,3.4
	c8.5,3.3,15.9,8.2,21.8,15.3c0.2,0.3,0.4,0.5,0.7,0.7c0.1,0.1,0.3,0.2,0.7,0.4c0.3-2.9,0.7-5.7,1-8.5c0.6-6.7,1-13.5,1.6-20.2
	c0.7-8,1.6-16,2.3-24.1c0.5-5,0.7-10,1.1-15c0.5-5.5,1.2-11.1,1.8-16.7c0.2-1.4,0.2-2.8,0.2-4.2c2.2-2.6,3.5-2.6,5.4,0.2
	c-0.4,4.1-0.8,8.2-1.1,12.3c-0.3,2.8-0.5,5.6-0.8,8.3c-0.6,7-1.3,14.1-1.9,21.2c-0.4,4.1-0.7,8.2-1.1,12.3
	c-0.7,7.5-1.3,15.1-1.9,22.6c-0.3,3.5-0.7,7-1,10.6c-0.1,1,0,1.9,0,3.3c2.6-2.4,5-4.7,7.4-6.8c6.9-6,14.3-11.2,22.7-14.8
	c5-2.1,10.2-3.4,15.6-3.3c1.3,0,2.6,0.2,3.9,0.6c4.6,1.3,6.2,6.1,3.6,10c-1.6,2.3-3.9,3.8-6.3,5c-8.7,4.6-17.7,8.3-27.1,11.1
	c-2.8,0.8-5.5,1.7-8.3,2.5c-0.4,0.2-0.8,0.4-1.6,0.8c3.6,0.2,6.8,0.4,10,0.7c8.6,0.6,17.2,1.3,25.8,1.9c2.8,0.2,5.6,0.4,8.4,0.5
	c6.8,0.4,13.6,0.6,20.5,1.1c7,0.5,13.9,1.2,20.9,1.8c2.2,0.2,4.4,0.4,6.7,0.5c5.2,0.3,10.5,0.7,15.7,1.1c0.6,0.3,1.2,0.7,1.9,1.1
	c0.7,1.9-0.3,3.1-1.8,3.9c-4-0.3-8-0.6-12.1-0.9c-9.9-0.7-19.7-1.3-29.6-2c-10.8-0.7-21.5-1.3-32.3-2c-6.1-0.4-12.2-0.7-18.2-1.1
	c-3.4-0.2-6.9-0.6-10.3-0.8c-2.4-0.1-4.8,0-7.5,0c0.7,0.9,1.1,1.5,1.6,2c2.7,3.5,5.7,6.8,8,10.6c5.1,8.4,9.8,17,14.8,25.4
	c3.7,6.2,7.3,12.5,12.5,17.8c1.8,1.8,3.7,3.6,5.5,5.4c1.1,1.1,1.3,2.8,0.5,3.8c-0.8,1-2.2,1.2-3.6,0.4c-0.9-0.5-1.8-1.2-2.6-2
	c-3.9-3.6-7.3-7.6-10.3-12c-6.7-10.1-12.8-20.6-18.4-31.3c-3.1-5.9-6.8-11.5-11.6-16.3c-1.5-1.4-3-2.7-5.1-3.5
	c-0.2,1.8-0.5,3.5-0.5,5.1c-0.3,6.8-0.5,13.7-0.6,20.5c0,0.5,0,1,0,1.5c-0.6,8.8-1.2,17.6-1.8,26.4c-0.4,7-0.8,14-1.1,21
	c-0.2,3.6-0.5,7.1-0.5,10.6c-0.3,9.2-0.5,18.5-0.8,27.7c-0.1,0.5,0,1.1-0.2,1.4c-0.6,0.6-1.4,1.5-2.2,1.5c-0.7,0-1.5-0.8-2-1.4
	c-0.4-0.5-0.4-1.2-0.6-1.8c0.2-6.4,0.5-12.7,0.4-19.1c-0.1-11.4,0.5-22.7,1.5-34.1c0.2-3.1,0.3-6.2,0.5-9.4c0.5-7.5,1-15,1.4-22.5
	c0-0.7,0-1.5,0-2.2c0.3-7.5,0.7-15,1-22.5c0-0.9,0-1.8,0-3c-1.1,0.2-1.9,0.3-2.7,0.5c-8.8,2.4-17.2,5.7-25.5,9.3
	c-8.7,3.7-17.6,6.9-26.9,8.9c-3.2,0.7-6.7,0.6-10.1,0.8c-0.8,0-1.8-0.2-2.3-0.7c-0.6-0.6-1-1.7-1-2.5c0-1,0.9-1.8,2.1-1.7
	c11.1,0.7,20.9-3.9,30.9-7.5c6.7-2.4,13.3-5.4,19.9-8.1c0.4-0.2,0.8-0.4,1.7-0.9c-2.3-0.3-4.1-0.5-5.8-0.6
	c-7.8-0.6-15.6-1.1-23.4-1.6c-9.4-0.7-18.7-1.4-28.1-2c-6.4-0.4-12.8-0.5-19.2-1c-2.2-0.2-4.4-0.7-6.5-1C4.8,94.3,5,92.8,6,91.4z
	 M98.1,92.3c0.1,0.1,0.1,0.2,0.2,0.3c0,0,0-0.2,0-0.2C98.2,92.4,98.1,92.4,98.1,92.3c-2.2-2.1-4.2-4.4-6.6-6.2
	c-7.2-5.4-15.4-8.6-24.2-9.8c-2.1-0.3-4.3,0.2-6.2,2.2c1.9,1.2,3.5,2.3,5.2,3.3c7.5,4.2,15.6,7,24,9C92.7,91.4,95.4,91.8,98.1,92.3z
	 M117.9,92c0.1,0.1,0.2,0.2,0.2,0.3c0.5,0,1,0,1.4-0.2c7.2-2.4,14.6-4.7,21.6-7.4c5-2,9.7-4.7,14.6-7.2c1.2-0.6,2.4-1.5,2.8-3.4
	c-1.1-0.2-2.2-0.6-3.3-0.7c-4.2-0.2-8.2,0.8-12,2.2c-8,3.1-15,7.8-21.6,13.1C120.3,89.9,119.1,91,117.9,92z"/>
<path class="st1" d="M1.4,206.8l-0.2,0l-0.2,0c0-5.8,0-11.6,0-17.3c0.2,0,0.3,0,0.5,0C1.4,195.2,1.4,201,1.4,206.8z"/>
<path class="st0" d="M1.4,206.8c0-5.8,0-11.6,0-17.3c0.2-5.4,0.3-10.9,0.5-16.3c0.5-11.2,0.9-22.5,1.4-33.8
	c0.2-4.1,0.4-8.2,0.6-12.3c0.1-1.4,0.3-2.8,0.5-4.2c0.6,0.3,1.1,0.7,1.8,0.9c4.4,2,8.5,1.7,12.3-1.3c3.9-3.1,5.2-7.2,4.1-11.9
	c-1.1-4.6-4.2-7.5-8.9-8.6c-2.9-0.6-5.5,0.2-8.2,1.1c0.2-2.5,0.3-5,0.5-7.5c2.2,0.3,4.4,0.9,6.5,1c6.4,0.4,12.8,0.5,19.2,1
	c9.4,0.6,18.7,1.3,28.1,2c7.8,0.5,15.6,1.1,23.4,1.6c1.8,0.1,3.5,0.4,5.8,0.6c-0.9,0.5-1.3,0.8-1.7,0.9c-6.6,2.7-13.1,5.7-19.9,8.1
	c-10,3.6-19.8,8.3-30.9,7.5c-1.1-0.1-2,0.7-2.1,1.7c0,0.8,0.4,1.9,1,2.5c0.5,0.5,1.5,0.7,2.3,0.7c3.4-0.2,6.8-0.1,10.1-0.8
	c9.3-2,18.2-5.2,26.9-8.9c8.3-3.6,16.7-6.9,25.5-9.3c0.8-0.2,1.5-0.3,2.7-0.5c0,1.3,0,2.1,0,3c-0.3,7.5-0.7,15-1,22.5
	c0,0.7,0,1.5,0,2.2c-0.5,7.5-1,15-1.4,22.5c-0.2,3.1-0.3,6.3-0.5,9.4c-0.9,11.4-1.5,22.7-1.5,34.1c0,6.4-0.3,12.7-0.4,19.1
	c-11.9-0.5-23.9-1-35.8-1.5c-4.7-0.2-9.4-0.5-14.1-0.5c-11.6-0.1-23.2-1.1-34.7-2.9c-2.2-0.3-4.4-0.8-6.6-1
	C4.1,210.7,2.3,209.4,1.4,206.8z M55.1,185.1c0.2-6.5-4.9-11.8-11.3-11.9c-6.3-0.1-11.7,5.1-11.8,11.4c-0.1,6.2,5,11.6,11.3,11.7
	C49.7,196.6,54.9,191.5,55.1,185.1z"/>
<path class="st1" d="M227.2,72.1c-2.8,1.7-5.6,3.1-9,2.5c-4.8-0.8-8.2-3.4-9.6-8.1c-1.4-4.7-0.3-8.9,3.4-12.1
	c3.7-3.3,8.1-3.8,12.6-1.8c0.7,0.3,1.5,0.7,2.2,1.1C226.9,59.9,227.1,66,227.2,72.1z"/>
<path class="st1" d="M205.4,6.9c0.1,0.6,0.2,1.1,0.3,1.7c1.3,5.1-0.6,10.3-4.9,13c-4.4,2.7-10.1,2.3-13.8-1c-4-3.5-5.1-8.8-2.9-13.7
	c0.2-0.4,0.3-0.8,0.5-1.1c3.5,0.3,7,0.7,10.5,0.9c2.6,0.2,5.1,0,7.7,0.1C203.6,6.7,204.5,6.8,205.4,6.9z"/>
<path class="st1" d="M26.8,0.7c0.3,0.8,0.6,1.6,1.1,2.3c3.1,4.7,2.5,10.9-1.4,14.7c-4,4-10.1,4.5-14.9,1.3c-0.5-0.3-1.1-0.6-1.7-0.9
	c0.5-3.4,0.8-6.9,1.5-10.3c0.3-1.4,0.9-2.8,1.7-4c1.3-2.1,3.7-1.8,5.7-2.1C21.5,1.3,24.2,1,26.8,0.7z"/>
<path class="st1" d="M106.8,1.9c0,0.8,0.1,1.6,0.1,2.4c0.2,4.9-2,8.7-6.3,10.9c-4.1,2.2-8.3,1.9-12.1-0.9c-3.9-2.9-5.4-6.9-4.5-11.7
	c0.1-0.5,0.1-1,0.2-1.5c7.3,0.2,14.6,0.3,21.9,0.5C106.4,1.7,106.6,1.8,106.8,1.9z"/>
<path class="st0" d="M215.2,109.8c-9.9-0.7-19.7-1.3-29.6-2c-10.8-0.7-21.5-1.3-32.3-2c-6.1-0.4-12.2-0.7-18.2-1.1
	c-3.4-0.2-6.9-0.6-10.3-0.8c-2.4-0.1-4.8,0-7.5,0c0.7,0.9,1.1,1.5,1.6,2c2.7,3.5,5.7,6.8,8,10.6c5.1,8.4,9.7,17,14.8,25.4
	c3.7,6.2,7.3,12.5,12.4,17.8c1.8,1.8,3.7,3.6,5.5,5.4c1.1,1.1,1.3,2.8,0.5,3.8c-0.8,1-2.2,1.2-3.6,0.4c-0.9-0.5-1.8-1.2-2.6-2
	c-3.9-3.6-7.3-7.6-10.3-12c-6.7-10.1-12.8-20.6-18.4-31.3c-3.1-5.9-6.8-11.5-11.6-16.3c-1.5-1.4-3-2.7-5.1-3.5
	c-0.2,1.8-0.5,3.5-0.5,5.1c-0.3,6.8-0.5,13.7-0.7,20.5c0,0.5,0,1,0,1.5c-0.6,8.8-1.2,17.6-1.8,26.4c-0.4,7-0.8,14-1.1,21
	c-0.2,3.5-0.5,7.1-0.5,10.6c-0.3,9.2-0.5,18.5-0.8,27.7c6.4,0.2,12.8,0.5,19.3,0.6c13.5,0.2,27.1,0.3,40.6,0.5
	c-0.1-1.9-0.5-3.8-0.2-5.6c1-6.7,7.2-10.9,13.7-9.6c6.3,1.2,10.4,7.6,9,14c-0.1,0.4-0.2,0.8-0.3,1.2c0.5,0,1,0.1,1.5,0.1
	c10.9-0.2,21.8-0.3,32.6-0.5c2.3,0,3.5-0.8,4.1-3.1c0.7-2.4,1.2-5,1.3-7.5c0.5-9.5,0.8-18.9,1.1-28.4c0.3-9.1,0.6-18.1,0.8-27.2
	c0.3-13.6,0.5-27.2,0.6-40.8C223.2,110.4,219.2,110,215.2,109.8z M124.2,181c-6.4,0-11.7-5.2-11.7-11.6c0-6.3,5.2-11.5,11.5-11.6
	c6.5-0.1,11.7,5.1,11.7,11.5C135.7,175.8,130.6,181,124.2,181z"/>
<path class="st1" d="M162.9,218.2c-0.1-1.9-0.5-3.8-0.2-5.6c1-6.7,7.2-10.9,13.7-9.6c6.3,1.2,10.4,7.6,9,14
	c-0.1,0.4-0.2,0.8-0.3,1.2C177.8,218.2,170.3,218.2,162.9,218.2z"/>
<path class="st1" d="M144,40.3c0-6.4,5.2-11.6,11.6-11.6c6.2,0,11.4,5.2,11.5,11.5c0.1,6.3-5.2,11.7-11.5,11.7
	C149.3,52,144,46.8,144,40.3z"/>
<path class="st1" d="M58,46.9c0,6.3-5.2,11.5-11.5,11.6c-6.3,0.1-11.7-5.2-11.7-11.6c0-6.3,5.2-11.6,11.7-11.6
	C52.9,35.2,58,40.4,58,46.9z"/>
<path class="st3" d="M86.1,95.4c0.9,0.2,1.7,0.3,2.6,0.5c0,0.1,0,0.2-0.1,0.3c-0.8-0.1-1.7-0.2-2.6-0.3
	C86.1,95.8,86.1,95.6,86.1,95.4z"/>
<path class="st0" d="M117.9,92c1.2-1,2.4-2.1,3.7-3.1c6.6-5.4,13.6-10.1,21.6-13.1c3.9-1.5,7.9-2.4,12-2.2c1.1,0,2.1,0.4,3.3,0.7
	c-0.4,2-1.5,2.8-2.8,3.4c-4.8,2.4-9.6,5.2-14.6,7.2c-7.1,2.8-14.4,5-21.6,7.4c-0.5,0.2-1,0.1-1.4,0.2C118,92.2,117.9,92.1,117.9,92z
	"/>
<path class="st0" d="M98.1,92.3c-2.6-0.5-5.3-0.9-7.9-1.5c-8.3-2-16.4-4.7-24-9c-1.7-1-3.3-2.1-5.2-3.3c1.9-2,4.1-2.5,6.2-2.2
	c8.9,1.3,17,4.5,24.2,9.8C93.8,87.9,95.8,90.2,98.1,92.3z"/>
<path class="st1" d="M180.6,177.8l-13.9,1.5c-0.2,0-8-0.2-13.5-1.1c0-1.6,0.1-2.2,0.2-3.4l8.4-1.3c0.5-5.2,1.1-12.9,1.6-15.3
	l0.2-11.4l-8.3,0.8l-0.9-4.6l9.4-3.7c1.8-0.8,4.7-1.8,8.2-2.3c1.4,0.8,1.9,2.1,3.1,3.4l-1.8,18.5l-0.2,14.5c2.1,0.2,4.5,0.2,7.5,0.7
	C180.7,175.5,180.7,176.2,180.6,177.8z"/>
<path class="st1" d="M207.4,185.6c-2.1,1.7-4.2,2.8-7.5,2.9c-7.2,0.1-14.2-2.8-17-6.5c1.5-3.6,2.2-6.3,4.2-9.9
	c1.8,0,4.9,0.4,6.5,1.1c-0.3,3.9-0.4,6.7-0.8,9.2c2,1.3,6.8,1.6,8.1,1.4c2-2.8,3.1-6.5,3.3-11.4c0.2-3.5-0.8-7.5-2.4-8.5
	c-3.2-0.1-7,1.6-8.8,2.4l-0.5-5.9c2.2-1.1,4.6-1.8,6.8-3c1.5-1.5,2.8-4.9,2.8-7.3c0-3.4-0.1-5.8-1.3-8.1c-1.4-1.1-4.1-0.9-6.6-0.3
	c-0.2,3.1-0.5,5.6-0.9,9.4c-1.5,0.5-3.4,0.9-5.1,0.9c-1.5-3.3-2.2-6.7-2.8-11.4c6.1-3.3,11.5-4.4,14.4-4.4c4.2,0,7.2,0.1,9.8,2.4
	c2.3,2.1,3.8,4.5,3.8,8.1c0,3.1-1.7,6.8-5,9.8c-0.8,0.8-1.8,1.5-2.9,2.1c2.3-0.2,4.1,0.1,4.8,0.5c3.6,2.2,5.2,6.5,5.3,9
	C215.8,173.8,213.1,181.1,207.4,185.6z"/>
</svg>
