<svg width="260" height="219" viewBox="0 0 260 219" fill="none" xmlns="http://www.w3.org/2000/svg">
<path d="M9.76398 211.906C9.61107 212.135 9.49641 212.327 9.34351 212.556C10.8725 213.512 12.3633 214.469 13.8923 215.425C14.007 215.234 14.1217 215.042 14.1981 214.813C12.7456 213.857 11.2548 212.862 9.76398 211.906Z" fill="white"/>
<path d="M252.069 20.182L251.878 20.4498L251.763 20.7558C252.566 21.3678 253.407 21.9416 254.21 22.5536C254.362 22.3241 254.515 22.0946 254.668 21.8651C253.789 21.2913 252.948 20.7558 252.069 20.182Z" fill="white"/>
<path d="M95.0043 215.616C103.72 215.808 112.435 215.999 121.15 216.152C121.035 212.021 121.035 207.889 120.806 203.796C120.577 199.55 120.156 195.342 119.85 191.096C118.933 190.178 118.016 189.298 117.098 188.38C97.9477 169.369 78.8354 150.357 59.6849 131.307C57.9648 131.077 56.2447 130.695 54.5246 130.695C42.4457 130.618 30.3668 130.618 18.3261 130.695C16.7971 130.695 15.3063 131.23 13.7773 131.536C24.9771 143.012 36.2533 154.45 47.3767 166.002C63.278 182.489 79.1412 199.053 95.0043 215.616Z" fill="#BF3B27"/>
<path d="M139.077 20.7941C131.891 16.5098 124.82 17.8487 117.786 21.2914C118.092 22.0947 118.665 22.898 118.665 23.7396C118.665 27.8709 118.513 32.0022 118.436 36.1718C118.513 37.0899 118.704 38.0079 118.704 38.9643C118.665 48.0685 118.665 57.2109 118.551 66.3151C118.551 67.3097 118.016 68.3043 117.748 69.2606C117.824 69.6049 117.939 69.9874 118.054 70.3699C118.13 70.7142 118.207 71.0967 118.321 71.5175C119.392 75.4958 120.386 79.4742 121.494 83.4525C123.214 89.6112 124.972 95.7699 126.731 101.89C133.076 102.655 137.243 106.251 139.268 113.022C140.377 113.519 141.6 114.131 142.9 114.59C150.048 117.077 157.425 118.263 164.879 119.219C183.035 121.476 201.192 122.279 219.425 121.323C222.674 121.17 225.923 120.902 229.134 121.093C230.701 121.17 232.23 122.203 234.18 122.929C233.148 124.804 232.46 126.066 231.772 127.29C236.32 127.137 240.869 126.946 245.418 126.831C247.1 126.793 248.82 126.869 250.502 126.908C252.719 126.41 254.897 125.952 257.114 125.454C260.249 119.984 259.981 111.262 256.541 106.251C254.821 106.06 253.101 105.716 251.343 105.754C246.106 105.83 240.869 106.136 235.632 106.213C234.333 106.251 232.995 105.754 231.695 105.524C228.905 105.83 226.114 106.328 223.324 106.366C210.557 106.442 197.79 106.404 185.023 106.289C183.074 106.289 181.162 105.677 179.251 105.333C178.028 105.716 176.805 106.366 175.543 106.404C164.955 106.672 154.367 106.825 143.741 106.978C142.288 107.016 140.874 106.863 139.192 106.787C139.154 104.759 139.077 103.191 139.077 101.584C139.116 93.3982 139.154 85.2503 139.192 77.0642C139.23 71.4793 139.307 65.8561 139.345 60.2711C139.154 58.282 138.848 56.3311 138.81 54.3419C138.542 44.3962 138.313 34.4122 138.198 24.4664C138.083 23.2806 138.733 22.0182 139.077 20.7941Z" fill="#A52B23"/>
<path d="M231.542 105.524C232.842 105.754 234.18 106.213 235.48 106.213C240.716 106.136 245.953 105.869 251.19 105.754C252.91 105.716 254.63 106.06 256.388 106.251C256.465 102.579 256.618 98.8684 256.579 95.1961C256.541 92.5949 256.235 89.9937 256.083 87.3542C251.572 82.0371 247.023 76.7199 242.513 71.3645C228.408 54.6097 214.341 37.8166 200.275 21.0236C195.459 20.9088 190.604 20.6793 185.788 20.641C177.952 20.6028 170.116 20.641 162.28 20.6793C161.783 20.6793 161.286 20.8706 160.827 20.9853C161.592 22.2094 162.203 23.5483 163.121 24.6193C179.481 44.1284 195.879 63.6374 212.316 83.1082C218.623 90.6822 225.121 98.0651 231.542 105.524Z" fill="white" fill-opacity="0.8"/>
<path d="M239.264 214.813C244.309 214.545 249.355 214.392 254.4 213.933C256.618 213.742 257.382 211.6 257.65 209.572C257.994 206.933 258.146 204.293 258.185 201.616C258.223 196.834 258.146 192.052 258.108 187.271C250.005 179.123 241.901 170.975 233.798 162.789C225.77 154.718 217.782 146.608 209.793 138.537C192.897 137.274 176.079 135.17 159.604 130.733C159.107 130.618 158.534 130.848 157.463 131.001C160.063 132.914 162.127 134.673 164.382 136.088C177.417 144.122 189.648 153.455 200.963 164.128C207.92 170.707 213.309 178.205 213.806 188.648C213.844 189.298 214.188 189.91 214.38 190.561C215.182 191.211 216.023 191.785 216.749 192.512C224.318 199.894 231.772 207.354 239.264 214.813Z" fill="white" fill-opacity="0.8"/>
<path d="M95.0043 215.616C79.1412 199.091 63.2781 182.489 47.3767 166.002C36.2151 154.45 24.9772 143.012 13.7774 131.536C10.6812 131.269 7.62327 130.963 4.52709 130.695C4.3742 132.684 4.03015 134.673 4.06837 136.624C4.22127 144.351 4.52708 152.116 4.75643 159.843C5.90316 160.838 7.16457 161.718 8.19663 162.827C21.4605 176.943 34.7244 191.058 47.9501 205.212C51.1609 208.654 54.2571 212.25 57.4297 215.769C66.2595 215.769 75.0512 215.808 83.881 215.769C87.5506 215.769 91.2966 215.655 95.0043 215.616Z" fill="white" fill-opacity="0.8"/>
<path d="M200.237 21.0618C214.303 37.8549 228.37 54.6097 242.475 71.4027C246.985 76.7581 251.496 82.0752 256.044 87.3924C255.738 77.4466 255.394 67.5009 255.165 57.5551C254.974 47.8771 254.936 38.1991 254.783 28.5211C254.745 26.532 254.439 24.5428 254.248 22.5537C253.445 21.9417 252.604 21.3679 251.801 20.7558C235.327 20.7176 218.89 20.6793 202.415 20.6793C201.689 20.641 200.963 20.9088 200.237 21.0618Z" fill="#BF3B27"/>
<path d="M119.851 191.096C120.195 195.342 120.577 199.55 120.806 203.796C121.036 207.927 121.036 212.059 121.15 216.152C125.699 219.059 130.706 218.677 135.675 218.409C136.86 218.332 138.007 217.108 139.192 216.42C139.651 215.042 140.071 213.665 140.53 212.326C140.492 210.07 140.454 207.774 140.377 205.479C140.071 194.08 139.804 182.719 139.498 171.319C139.383 168.03 139.192 164.702 139.192 161.412C139.192 158.39 139.345 155.368 139.421 152.346C135.637 146.302 131.891 140.182 127.954 134.252C127.381 133.373 125.775 132.799 124.743 132.913C122.717 133.181 121.074 132.569 119.507 131.422C119.239 132.952 118.742 134.444 118.704 135.974C118.666 140.602 118.819 145.269 118.857 149.898C118.933 150.701 119.048 151.504 119.086 152.269C119.507 164.434 119.889 176.637 120.271 188.801C120.271 189.566 119.965 190.331 119.851 191.096Z" fill="#A52B23"/>
<path d="M209.831 138.537C217.82 146.608 225.847 154.718 233.836 162.789C241.939 170.937 250.043 179.085 258.147 187.271C258.07 178.855 257.994 170.401 257.917 161.986C257.802 154.335 257.688 146.723 257.497 139.072C257.458 137.351 257.153 135.629 256.962 133.908C254.783 131.575 252.604 129.241 250.387 126.946C248.705 126.908 246.985 126.831 245.303 126.869C240.754 126.984 236.206 127.176 231.657 127.329C231.313 127.443 230.969 127.52 230.587 127.635C228.752 128.476 226.955 129.279 224.509 130.389C227.299 132.148 229.402 133.334 231.313 134.788C231.886 135.209 232.383 136.509 232.192 137.121C231.925 137.963 231.007 138.651 230.204 139.149C229.746 139.416 228.981 139.187 228.37 139.149C222.177 138.881 216.023 138.728 209.831 138.537Z" fill="#BF3B27"/>
<path d="M57.3917 215.769C54.219 212.25 51.1229 208.693 47.912 205.212C34.6864 191.058 21.4226 176.943 8.1587 162.827C7.12664 161.718 5.86524 160.838 4.71851 159.844C5.52122 172.735 6.20925 185.626 7.24131 198.479C7.62355 202.993 8.88494 207.392 9.7641 211.868C11.2549 212.824 12.7074 213.819 14.1981 214.775C28.6087 215.119 43.0193 215.463 57.3917 215.769Z" fill="#BF3B27"/>
<path d="M139.383 152.308C139.307 155.33 139.154 158.352 139.154 161.374C139.154 164.663 139.345 167.991 139.46 171.281C140.071 171.702 140.797 172.046 141.333 172.582C151.691 182.795 162.012 193.047 172.333 203.299C176.499 207.469 180.666 211.638 184.832 215.808C186.667 215.999 188.54 216.343 190.375 216.305C203.562 215.999 216.788 215.655 229.975 215.272C233.071 215.196 236.129 214.966 239.225 214.775C231.733 207.316 224.241 199.856 216.749 192.397C216.023 191.67 215.182 191.096 214.38 190.446C214.074 191.708 213.73 193.009 213.462 194.271C212.086 201.272 210.06 204.102 202.53 204.867C191.598 205.977 182.309 201.578 174.129 194.73C165.605 187.615 158.304 179.008 151.806 169.713C147.754 163.898 143.55 158.122 139.383 152.308Z" fill="#BF3B27"/>
<path d="M184.87 215.808C180.704 211.638 176.537 207.469 172.371 203.299C162.05 193.047 151.691 182.795 141.371 172.582C140.836 172.046 140.109 171.702 139.498 171.281C139.804 182.68 140.071 194.042 140.377 205.441C140.453 207.698 140.492 209.993 140.53 212.288C141.868 213.436 143.167 214.584 144.505 215.731C147.066 216.037 149.627 216.611 152.188 216.611C162.509 216.649 172.83 216.496 183.15 216.381C183.724 216.42 184.297 216.037 184.87 215.808Z" fill="white" fill-opacity="0.8"/>
<path d="M250.387 126.908C252.566 129.241 254.744 131.575 256.961 133.87C256.961 131.077 257 128.247 257 125.454C254.783 125.951 252.566 126.41 250.387 126.908Z" fill="white"/>
<path d="M144.467 215.731C143.129 214.583 141.83 213.436 140.492 212.288C140.033 213.665 139.612 215.043 139.154 216.381C140.95 216.19 142.709 215.961 144.467 215.731Z" fill="#BF3B27"/>
<path d="M127.916 134.214C127.343 133.334 125.737 132.76 124.705 132.875C122.679 133.143 121.036 132.531 119.468 131.383C118.78 130.963 118.092 130.503 117.442 130.083C114.423 127.405 111.9 124.345 111.594 120.29C104.943 117.765 98.5595 115.394 92.2143 112.869C89.5385 111.798 87.0922 110.153 84.4165 109.158C82.1613 108.317 79.7531 108.087 77.3832 107.59C76.848 107.093 76.3129 106.634 75.816 106.136C75.8924 103.42 73.5607 103.573 72.2229 102.579C69.0885 100.704 65.954 98.7535 62.7814 96.9174C53.1488 91.256 44.8159 84.0262 38.6236 74.1569C37.2475 71.9765 36.2919 69.49 35.1069 67.1183C35.4127 64.7849 35.7567 62.4132 36.0243 60.0798C36.4065 56.9048 38.1649 55.1834 40.917 54.1506C49.3264 50.9756 57.5829 51.6642 65.7629 55.0304C71.9935 57.5934 77.4214 61.4952 82.8493 65.5882C90.6088 71.4792 96.9541 78.9768 103.949 85.7476C104.255 86.0536 104.752 86.1683 105.899 86.7421C103.223 79.0915 100.815 72.1295 98.3684 65.1674C98.1773 64.7849 97.9862 64.4024 97.8333 64.1346C96.9923 61.0744 96.1514 58.0142 95.3105 54.9539C92.329 43.8988 89.3092 32.8437 86.3277 21.7886C85.4486 17.3513 84.4547 12.9139 83.6902 8.40007C83.308 6.1814 82.2377 3.7332 84.4165 1.55278C88.1625 2.16483 89.1181 6.29617 91.832 8.70611C92.3672 7.13774 92.7494 5.91363 93.2081 4.72779C93.9344 2.77689 94.3548 0.252198 96.8012 0.137439C99.1329 0.0226803 99.6298 2.50913 100.203 4.30702C102.038 10.0067 103.72 15.7829 105.44 21.5208C105.364 21.7504 105.402 21.9416 105.593 22.1329C109.301 37.0133 112.97 51.8554 116.716 66.6976C116.946 67.5774 117.366 68.419 117.672 69.184C117.786 69.5665 117.863 69.9491 117.939 70.2934C118.016 70.7141 118.13 71.0966 118.207 71.5174C119.277 75.4957 120.271 79.4741 121.38 83.4524C123.1 89.6111 124.858 95.7698 126.616 101.89C132.962 102.655 137.128 106.251 139.154 113.022C140.262 113.519 141.486 114.131 142.785 114.59C149.933 117.077 157.311 118.263 164.764 119.219C182.921 121.476 201.078 122.279 219.311 121.323C222.56 121.17 225.809 120.902 229.02 121.093C230.587 121.17 232.116 122.203 234.065 122.929C233.033 124.804 232.345 126.066 231.695 127.29C231.313 127.367 230.969 127.482 230.587 127.558C228.752 128.4 226.956 129.203 224.509 130.312C227.3 132.072 229.402 133.258 231.313 134.711C231.886 135.132 232.383 136.433 232.192 137.045C231.925 137.886 231.007 138.575 230.205 139.072C229.746 139.34 228.981 139.11 228.37 139.072C222.177 138.881 215.985 138.69 209.831 138.537C192.936 137.274 176.117 135.17 159.642 130.733C159.145 130.618 158.572 130.848 157.502 131.001C160.101 132.913 162.165 134.673 164.42 136.088C177.455 144.121 189.687 153.455 201.001 164.128C207.958 170.707 213.348 178.205 213.845 188.648C213.883 189.298 214.227 189.91 214.418 190.561C214.112 191.823 213.768 193.124 213.501 194.386C212.124 201.386 210.099 204.217 202.568 204.982C191.636 206.091 182.348 201.692 174.168 194.845C165.643 187.73 158.343 179.123 151.844 169.828C147.754 163.975 143.55 158.199 139.383 152.384C135.599 146.264 131.853 140.143 127.916 134.214ZM169.237 172.582C174.703 178.167 179.863 184.249 186.743 187.921C189.037 189.145 191.56 189.987 194.082 190.637C196.452 191.249 199.472 189.528 200.39 187.347C201.46 184.899 200.504 182.91 198.822 181.265C194.235 176.828 189.687 172.276 184.909 168.106C178.869 162.827 172.791 157.51 166.064 153.149C157.846 147.832 149.857 142.094 141.791 136.547C141.6 136.815 141.447 137.083 141.256 137.313C150.354 149.362 158.84 161.871 169.237 172.582ZM61.0231 80.9659C68.8591 86.6656 76.9627 92.021 85.1045 97.2617C90.6853 100.819 96.4954 103.956 102.191 107.207C103.146 107.743 104.255 107.972 105.669 107.705C101.732 103.612 98.0244 99.2508 93.8197 95.5021C87.6273 89.9554 81.2056 84.7529 74.7457 79.5888C71.1526 76.7198 67.3684 74.1187 63.5459 71.594C61.6729 70.3699 59.5323 69.49 57.3918 68.8015C55.3277 68.1512 53.7605 69.184 52.4991 72.2442C55.3659 75.1897 57.8505 78.6325 61.0231 80.9659Z" fill="#A52B23"/>
<path d="M231.542 105.524C225.121 98.0651 218.623 90.644 212.239 83.1082C195.803 63.6374 179.404 44.1283 163.044 24.6193C162.127 23.5482 161.515 22.2093 160.751 20.9852C155.132 20.8705 149.513 20.7175 143.894 20.6027C142.288 20.5645 140.645 20.7175 139.039 20.7557C138.695 21.9798 138.045 23.2039 138.045 24.4663C138.16 34.412 138.389 44.3961 138.657 54.3419C138.695 56.331 139.001 58.2819 139.192 60.2711C145.576 67.5774 151.921 74.922 158.343 82.1901C165.185 89.9172 172.142 97.606 179.06 105.295C180.971 105.639 182.921 106.251 184.832 106.251C197.599 106.366 210.366 106.404 223.133 106.328C225.962 106.328 228.752 105.83 231.542 105.524Z" fill="#BF3B27"/>
<path d="M35.145 67.1184C35.4508 64.7849 35.7948 62.4132 36.0624 60.0798C36.4446 56.9048 38.2029 55.1834 40.9551 54.1506C49.3644 50.9756 57.6209 51.6642 65.8009 55.0304C72.0315 57.5934 77.4594 61.4952 82.8873 65.5882C90.6468 71.4792 96.9921 78.9768 103.987 85.7476C104.293 86.0536 104.79 86.1683 105.937 86.7421C103.261 79.0915 100.853 72.1295 98.4064 65.1675C98.2153 64.7849 98.0242 64.4024 97.7948 64.0581C96.801 63.1783 95.6925 62.2985 94.7369 61.2657C91.526 57.7082 88.4298 54.0741 85.1808 50.5549C76.9625 41.6419 68.706 32.729 60.4495 23.8543C55.7097 24.0456 50.9699 24.1603 46.2683 24.4663C33.6924 25.3079 21.1166 26.1877 8.54078 27.1441C5.10058 27.4118 3.9156 28.6359 3.64803 32.3847C3.49513 34.3739 3.64803 36.363 3.64803 38.3904C6.51486 40.9151 9.45814 43.4016 12.2867 46.0028C19.9316 52.9648 27.5383 60.0416 35.145 67.1184Z" fill="#BF3B27"/>
<path d="M117.442 130.083C114.423 127.405 111.9 124.345 111.594 120.29C104.943 117.765 98.5594 115.394 92.2141 112.869C89.5384 111.798 87.0921 110.153 84.4164 109.158C82.1611 108.317 79.753 108.087 77.383 107.59C76.7715 107.743 76.1981 108.011 75.5865 108.011C63.4311 108.164 51.2757 108.317 39.1204 108.355C37.9736 108.355 36.7886 107.705 35.6419 107.36C33.8453 109.732 31.3225 108.738 29.1055 108.891C20.6197 109.464 12.1339 109.885 3.64804 110.344C0.0167149 115.241 0.704755 120.978 1.35457 126.525C1.54569 128.055 3.41867 129.318 4.48896 130.733C7.58514 131.001 10.6431 131.307 13.7393 131.575C15.2683 131.269 16.7591 130.733 18.288 130.733C30.367 130.656 42.4459 130.695 54.4866 130.733C56.2067 130.733 57.9268 131.154 59.6469 131.345C60.1438 131.116 60.6025 130.656 61.0994 130.656C68.859 130.618 76.5803 130.542 84.3399 130.618C89.6913 130.695 95.0427 131.001 100.394 131.23C102.191 131.039 103.987 130.81 105.822 130.695C109.683 130.427 113.582 130.274 117.442 130.083Z" fill="#A52B23"/>
<path d="M35.6419 107.399C36.7887 107.743 37.9736 108.393 39.1204 108.393C51.2758 108.355 63.4311 108.202 75.5865 108.049C76.1981 108.049 76.7715 107.781 77.3831 107.628C76.848 107.131 76.3128 106.672 75.8159 106.175C74.631 104.989 73.4078 103.803 72.2228 102.617C69.0884 100.743 65.954 98.7918 62.7813 96.9556C53.1487 91.2942 44.8158 84.0644 38.6234 74.1951C37.2474 72.0147 36.2918 69.5283 35.1068 67.1566C27.5001 60.0798 19.9316 53.003 12.2867 45.9645C9.45813 43.3633 6.55308 40.8769 3.64801 38.3522C3.53334 41.9479 3.34224 45.5437 3.38046 49.1395C3.45691 57.4021 3.68624 65.703 3.83914 73.9656C14.4656 85.0972 25.0537 96.2288 35.6419 107.399Z" fill="white" fill-opacity="0.8"/>
<path d="M35.642 107.399C25.0539 96.267 14.4657 85.0972 3.87754 73.9656C3.76287 84.4852 3.64823 95.043 3.57178 105.563C3.57178 107.169 3.60998 108.776 3.64821 110.382C12.134 109.923 20.6198 109.503 29.1057 108.929C31.3227 108.737 33.8455 109.77 35.642 107.399Z" fill="#BF3B27"/>
<path d="M60.4878 23.8542C68.7443 32.7672 77.0008 41.6419 85.219 50.5548C88.4681 54.0741 91.5643 57.7081 94.7752 61.2657C95.7308 62.2985 96.8393 63.1783 97.8713 64.1346C97.0304 61.0744 96.1895 58.0142 95.3485 54.9539C92.367 43.8988 89.3473 32.8437 86.3658 21.7886C84.9515 22.0946 83.5372 22.5919 82.1229 22.6684C74.9367 23.1274 67.7122 23.4717 60.4878 23.8542Z" fill="white" fill-opacity="0.8"/>
<path d="M105.478 21.5208C105.402 21.7503 105.44 21.9416 105.631 22.1329C106.701 23.2422 107.848 24.275 108.88 25.4226C112.091 28.9801 115.225 32.5759 118.398 36.1717C118.474 32.0404 118.627 27.909 118.627 23.7395C118.627 22.9362 118.054 22.1329 117.748 21.2913C113.658 21.4061 109.568 21.4443 105.478 21.5208Z" fill="#BF3B27"/>
<path d="M100.394 131.192C95.0428 130.963 89.6914 130.657 84.34 130.58C76.5804 130.465 68.8591 130.542 61.0995 130.618C60.6026 130.618 60.1439 131.077 59.647 131.307C78.7974 150.319 97.9096 169.33 117.06 188.38C117.977 189.298 118.895 190.178 119.812 191.096C119.965 190.331 120.233 189.566 120.233 188.801C119.85 176.637 119.468 164.434 119.048 152.269C119.01 151.466 118.895 150.663 118.818 149.898C112.703 143.624 106.548 137.427 100.394 131.192Z" fill="white" fill-opacity="0.8"/>
<path d="M179.098 105.333C172.18 97.6442 165.261 89.9553 158.381 82.2282C151.959 74.9601 145.614 67.6156 139.23 60.3093C139.192 65.8942 139.116 71.5174 139.077 77.1023C139.039 85.2884 139.001 93.4364 138.963 101.623C138.963 103.191 139.039 104.797 139.077 106.825C140.721 106.901 142.173 107.054 143.626 107.016C154.214 106.863 164.802 106.71 175.429 106.442C176.614 106.366 177.837 105.716 179.098 105.333Z" fill="white" fill-opacity="0.8"/>
<path d="M118.398 36.1717C115.225 32.5759 112.053 28.9801 108.88 25.4226C107.848 24.275 106.74 23.204 105.631 22.1329C109.339 37.0133 113.008 51.8554 116.754 66.6976C116.984 67.5774 117.404 68.4189 117.71 69.2605C117.978 68.2659 118.513 67.3096 118.513 66.315C118.627 57.2108 118.627 48.0684 118.666 38.9642C118.666 38.0078 118.513 37.0898 118.398 36.1717Z" fill="white" fill-opacity="0.8"/>
<path d="M117.978 70.2934C118.054 70.7141 118.169 71.0966 118.245 71.5173C118.169 71.0966 118.054 70.7141 117.978 70.2934Z" fill="white"/>
<path d="M117.71 69.184C117.825 69.5666 117.901 69.9491 118.016 70.3699C117.901 69.9873 117.786 69.6048 117.71 69.184Z" fill="white"/>
<path d="M100.394 131.192C106.548 137.427 112.702 143.624 118.856 149.859C118.78 145.231 118.665 140.564 118.704 135.935C118.704 134.405 119.2 132.913 119.506 131.383C118.818 130.963 118.13 130.503 117.48 130.083C113.62 130.274 109.721 130.427 105.86 130.656C104.025 130.771 102.191 131.001 100.394 131.192Z" fill="#BF3B27"/>
<path d="M231.695 127.29C231.313 127.367 230.969 127.482 230.587 127.558C230.931 127.482 231.313 127.405 231.695 127.29Z" fill="#DD4527"/>
<path d="M141.294 137.389C150.353 149.362 158.839 161.909 169.275 172.62C174.741 178.205 179.901 184.287 186.781 187.959C189.075 189.183 191.598 190.025 194.12 190.675C196.49 191.287 199.51 189.566 200.428 187.386C201.498 184.937 200.542 182.948 198.86 181.303C194.273 176.866 189.725 172.314 184.947 168.144C178.907 162.865 172.829 157.548 166.102 153.187C157.884 147.87 149.895 142.132 141.829 136.586C141.638 136.853 141.447 137.121 141.294 137.389Z" fill="#BF3B27"/>
<path d="M52.5371 72.2443C55.3275 75.1898 57.8121 78.6325 61.0229 80.966C68.8589 86.6657 76.9625 92.0211 85.1043 97.2617C90.6851 100.819 96.4953 103.956 102.191 107.207C103.146 107.743 104.255 107.973 105.669 107.705C101.732 103.612 98.0242 99.2509 93.8195 95.5021C87.6272 89.9554 81.2055 84.753 74.7455 79.5888C71.1524 76.7199 67.3682 74.1187 63.5457 71.594C61.6727 70.3699 59.5322 69.4901 57.3916 68.8015C55.4039 68.1512 53.8367 69.184 52.5371 72.2443Z" fill="#BF3B27"/>
<path d="M72.2227 102.579C73.4076 103.765 74.6308 104.951 75.8158 106.136C75.8922 103.42 73.5605 103.573 72.2227 102.579Z" fill="#BF3B27"/>
<path d="M97.833 64.0581C98.0242 64.4406 98.2153 64.8232 98.4447 65.1675C98.2153 64.8232 98.0242 64.4406 97.833 64.0581Z" fill="white"/>
<path d="M53.378 185.97L39.4643 187.424C39.2349 187.424 31.4754 187.271 26.0093 186.276C26.0093 184.67 26.0857 184.058 26.1622 182.834L34.6098 181.533C35.0685 176.369 35.7565 168.603 36.2152 166.232L36.3681 154.794L28.0734 155.636L27.156 151.084L36.521 147.335C38.3558 146.57 41.2226 145.575 44.7393 145.04C46.1153 145.805 46.6505 147.105 47.8737 148.482L46.1153 166.997L45.886 181.533C48.0266 181.762 50.4347 181.762 53.3398 182.221C53.5309 183.675 53.5309 184.364 53.378 185.97Z" fill="#064A42"/>
<path d="M95.2335 185.894C93.4752 185.894 91.7169 185.817 89.9204 185.817L90.6084 195.113C90.2262 195.725 84.6072 196.872 82.2373 196.949C81.0905 197.025 78.95 196.413 78.5677 195.725C79.1029 192.588 79.638 189.03 80.2496 185.588C73.331 185.511 66.1066 185.511 58.7293 185.741C57.5825 184.21 56.971 181.915 56.8945 180.347C63.8896 169.674 69.8908 156.439 72.2607 144.81C74.4013 144.351 76.9623 144.198 78.8735 144.657C80.1732 145.193 82.2373 146.723 83.04 147.947C81.9697 156.095 73.1399 171.319 65.5332 181.303C69.6997 180.768 75.204 180.079 80.6701 179.62L79.8292 166.002C80.823 165.696 83.4987 164.166 85.6775 163.477C86.6713 163.783 90.6084 164.625 91.6022 165.543L90.0733 178.932C92.2138 178.855 94.2397 178.779 95.998 178.855C96.6479 180.423 95.8834 183.981 95.2335 185.894Z" fill="#064A42"/>
</svg>
