<svg width="140" height="118" viewBox="0 0 140 118" fill="none" xmlns="http://www.w3.org/2000/svg">
<path d="M28.2809 2.38614C23.8468 2.5774 19.4128 2.69216 14.9787 2.95993C13.1822 3.07469 11.3856 3.49544 9.62731 3.87797C5.76664 4.64303 3.74081 7.16773 3.39679 10.9165C2.74698 17.7638 2.21176 24.6493 1.79129 31.5349C1.29437 39.8357 0.950409 48.1366 0.606388 56.4757C0.415266 61.1426 0.262349 65.8477 0.300574 70.5146C0.453472 82.373 0.835754 94.2314 0.912203 106.09C0.950427 113.167 3.89366 114.926 9.742 115.844C15.4757 116.762 21.4005 116.801 27.2488 116.877C35.3142 116.992 43.3796 116.762 51.445 116.724C57.1786 116.686 62.874 116.724 68.6077 116.762C78.8901 116.839 89.1725 117.068 99.4167 117.03C109.699 116.992 119.981 116.801 130.264 116.495C135.768 116.342 138.1 113.473 138.176 108.002C138.253 101.882 138.635 95.7998 138.826 89.6793C138.979 85.395 139.055 81.1107 139.17 76.7881C139.361 69.2523 139.552 61.7165 139.705 54.1424C139.705 53.4921 139.705 52.8417 139.705 52.1914C139.514 40.8686 139.285 29.5074 139.094 18.1846C139.094 17.2665 139.094 16.3484 139.247 15.4686C140.279 8.35358 136.227 4.9108 130.761 4.45176C122.619 3.72496 114.439 2.88343 106.297 2.38614C100.869 2.04186 95.3648 2.00361 89.8987 2.19488C81.1836 2.53915 72.4684 2.50087 63.7532 1.73581C63.371 1.69756 62.9887 1.73581 62.5682 1.73581C51.1009 1.88882 39.6336 2.08011 28.2045 2.23312C28.2809 2.27137 28.2809 2.34789 28.2809 2.38614Z" fill="white" fill-opacity="0.8"/>
<path d="M86.535 81.914L72.6212 83.3676C72.3919 83.3676 64.6324 83.2146 59.1663 82.22C59.1663 80.6134 59.2427 80.0014 59.3191 78.7773L67.7668 77.4767C68.2254 72.3126 68.9135 64.5472 69.3722 62.1755L69.5251 50.7378L61.2303 51.5794L60.313 47.0273L69.678 43.2785C71.5127 42.5135 74.3796 41.5189 77.8962 40.9833C79.2723 41.7484 79.8074 43.049 81.0306 44.4261L79.2723 62.9406L79.043 77.4767C81.1835 77.7062 83.5917 77.7061 86.4967 78.1652C86.6878 79.5805 86.6879 80.2691 86.535 81.914Z" fill="#064A42"/>
<path d="M121.548 69.0611C121.548 76.2909 119.408 81.761 116.847 85.4333C114.286 89.1056 110.005 92.5101 105.876 92.5101C97.8875 92.5101 91.4276 88.4936 89.9751 85.9689C90.816 83.3677 92.1921 79.5806 94.0651 76.3673C95.5941 76.2908 98.996 76.5968 100.601 77.2089C100.601 80.1926 100.143 84.1327 99.9135 86.5044C100.907 87.4224 105.227 88.0345 106.603 87.805C108.82 85.2038 110.272 80.8047 110.272 74.493C110.196 69.4818 108.896 66.4981 107.214 66.4216C103.468 67.3396 97.7728 69.6348 95.3647 71.2797C94.8296 71.2797 93.9886 69.8261 93.7593 69.5201L94.9824 45.8414C95.8234 43.5463 97.0466 41.9014 98.996 40.6008C101.289 40.4478 104.386 40.4478 106.908 40.4478C111.381 40.4478 112.986 40.6008 116.962 40.6008H120.172C120.325 43.7375 119.637 47.9836 118.72 51.5029C113.865 51.6559 106.565 50.3553 100.754 49.0547L99.3018 64.8914C103.392 62.2902 109.431 58.8092 110.922 58.8092C112.222 58.8092 113.598 58.9623 114.783 59.5743C118.643 61.5252 121.548 66.1538 121.548 69.0611Z" fill="#064A42"/>
<path d="M79.6162 24.1904C77.2463 22.469 74.2266 22.5455 71.6655 23.54C67.8431 25.0701 64.2883 26.9446 60.6952 28.7807C58.5928 29.8518 56.7198 31.1141 54.694 32.3C53.8148 32.7973 53.0885 33.1798 52.4005 33.4093C53.2032 23.1575 53.5854 12.9057 53.509 2.61566C53.4707 -0.329815 48.9221 -0.329815 48.9603 2.61566C49.0367 12.5614 48.6927 22.5455 47.9283 32.453C47.5842 32.1852 47.2402 31.8409 46.858 31.4967C42.2328 27.0211 37.0343 22.928 29.6187 20.6328C27.8604 20.0973 25.911 19.6382 24.038 19.5617C17.6546 19.2939 14.5966 22.622 17.6163 26.6003C19.9862 29.737 23.4264 32.2617 27.9369 33.9066C31.7211 35.3219 35.62 36.6225 39.5189 37.8849C41.6212 38.5735 42.3857 39.3002 41.7358 41.0599C39.6335 46.53 37.7223 52.0385 36.0022 57.5469C33.4029 65.9626 30.6891 74.34 25.1848 82.1053C24.382 83.2147 23.8087 84.477 25.7581 85.2421C27.8605 86.0836 29.3512 85.0891 30.1539 83.865C31.9122 81.3021 33.8234 78.7773 34.8937 76.0613C37.4547 69.7496 39.6335 63.3231 41.927 56.9349C42.5768 55.0987 43.1884 53.2626 43.8 51.4265C44.2205 51.4647 44.641 51.503 45.0614 51.5412C45.1761 53.1479 45.3672 54.7927 45.329 56.3993C44.9467 74.4165 44.5645 92.4336 44.1823 110.413C44.144 112.057 44.1058 113.702 44.144 115.347C44.1822 116.571 44.4498 117.91 46.6668 117.987C48.9221 118.063 49.4572 116.763 49.5337 115.538C49.8012 111.445 49.9923 107.314 50.0688 103.221C50.4128 86.5044 50.6804 69.7496 50.9862 53.0331C51.0244 52.0002 51.2537 50.9675 51.4066 49.9346C51.7124 49.9346 52.0564 49.8963 52.3622 49.8963C52.7827 50.8144 53.3561 51.7325 53.6237 52.6505C56.5669 63.5909 64.5941 73.1541 70.6718 83.2529C71.5891 84.783 73.0034 87.0017 75.9849 85.9306C79.2722 84.783 76.7112 82.947 75.7174 81.4933C66.8875 68.5256 58.6693 55.4047 56.1847 40.8686C55.8406 38.8412 56.6816 37.9614 59.3573 37.6171C61.6508 37.3111 63.9442 36.9286 66.1994 36.5078C71.8184 35.3985 76.2907 33.1415 79.4634 29.6987C81.4128 27.6331 81.451 25.5292 79.6162 24.1904ZM24.4584 26.715C23.694 26.0265 23.6175 24.9554 23.197 24.0756C24.5349 24.0756 25.9874 23.846 27.1341 24.1521C32.8678 25.7587 36.7667 28.9337 40.5509 32.1852C40.8185 32.4147 40.7421 32.8355 41.0479 33.8301C34.3968 32.1087 28.5102 30.4638 24.4584 26.715ZM64.0971 31.8792C67.4608 30.1961 70.2513 28.819 73.0417 27.4419C73.271 27.6714 73.5003 27.9009 73.6915 28.1304C71.7038 31.0376 68.5311 32.453 64.0971 31.8792Z" fill="#A82E12"/>
</svg>
