<svg width="175" height="145" viewBox="0 0 175 145" fill="none" xmlns="http://www.w3.org/2000/svg">
<g clip-path="url(#clip0)">
<path d="M139.6 0.8C145.1 1 150.7 1.2 156.2 1.5C158.5 1.7 160.7 2.2 162.9 2.6C167.7 3.6 170.3 6.7 170.7 11.4C171.5 20 172.2 28.6 172.7 37.2C173.3 47.6 173.7 58 174.2 68.4C174.4 74.3 174.7 80.1 174.6 86C174.4 100.8 173.9 115.7 173.8 130.5C173.8 139.4 170.1 141.6 162.8 142.7C155.6 143.8 148.2 143.9 140.9 144C130.8 144.2 120.7 143.8 110.6 143.8C103.5 143.8 96.3 143.8 89.1 143.8C76.3 143.9 63.4 144.2 50.5 144.1C37.6 144.1 24.7 143.8 11.9 143.4C5 143.4 2 139.8 2 132.9C1.9 125.2 1.4 117.6 1.2 110C1 104.6 0.9 99.3 0.8 93.9C0.5 84.5 0.2 75.1 0 65.6C0 64.8 0 64 0 63.2C0.3 49 0.6 34.8 0.8 20.6C0.8 19.5 0.8 18.3 0.6 17.2C-0.7 8.3 4.3 4 11.2 3.4C21.4 2.5 31.6 1.4 41.8 0.8C48.6 0.4 55.5 0.3 62.3 0.6C73.3 1 84.1 1 95 0C95.5 0 96 0 96.5 0C110.8 0.2 125.2 0.4 139.5 0.7C139.6 0.7 139.6 0.8 139.6 0.8Z" fill="#FAAD18"/>
<path d="M90 23.9C87.6 24 85.2 24.5 83 25.1C73.8 27.8 67.4 32.8 61.7 38.2C61.6 38.3 61.6 38.3 61.5 38.4C61.8 26.4 62.1 14.3 62.4 2.29997C62.4 0.299973 60.4 -0.300028 59 0.299972C57.7 -0.400028 55.6 0.299973 55.5 2.29997C54.7 14.9 54.3 27.5 54.2 40.2C53.5 39.9 52.7 39.5 51.8 39C49.2 37.5 46.8 35.9 44.2 34.6C39.7 32.3 35.2 29.9 30.4 28C27.2 26.7 23.4 26.6 20.5 28.7C18.3 30.3 18.3 32.9 20.8 35.6C24.8 39.9 30.5 42.8 37.5 44.2C40.3 44.8 43.2 45.3 46.1 45.7C49.5 46.2 50.5 47.3 50.1 49.8C47.3 67.6 37.4 83.7 26.6 99.5C25.4 101.3 22.2 103.5 26.3 105C30 106.3 31.8 103.6 32.9 101.8C40.2 89.5 50.1 77.9 53.5 64.4C53.8 63.3 54.5 62.1 55 61C55.4 61 55.8 61 56.2 61.1C56.4 62.4 56.8 63.6 56.8 64.9C57.6 85.5 58.3 106.1 59.1 126.8C59.3 131.8 59.6 136.9 60.1 142C60.2 143.5 60.9 145.1 63.8 145.1C66.6 145 66.9 143.4 66.9 141.9C66.9 139.9 66.8 137.8 66.7 135.8C66 113.4 65.1 91.2 64.2 69C64.1 67 64.4 65 64.4 63C64.9 63 65.5 62.9 66 62.9C66.8 65.2 67.6 67.5 68.5 69.7C71.5 77.6 74.4 85.5 77.8 93.3C79.3 96.6 81.7 99.8 83.9 103C85 104.5 86.8 105.8 89.4 104.8C91.8 103.9 91 102.3 90 100.9C83 91.3 79.4 80.9 76 70.6C73.7 63.8 71.2 56.9 68.5 50.2C67.6 48 68.5 47.1 71.2 46.3C76.1 44.8 80.9 43.2 85.6 41.6C91.2 39.6 95.4 36.6 98.3 32.8C101.9 27.8 98 23.7 90 23.9ZM28.1 33.6C28.4 33.3 28.6 33.1 28.9 32.8C32.4 34.6 35.9 36.3 40.2 38.4C34.6 39 30.6 37.2 28.1 33.6ZM89.7 32.7C84.7 37.3 77.4 39.2 69.1 41.2C69.4 40 69.3 39.5 69.7 39.2C74.3 35.3 79.2 31.4 86.3 29.5C87.7 29.1 89.6 29.5 91.2 29.5C90.6 30.5 90.6 31.8 89.7 32.7Z" fill="white"/>
<path d="M121.1 121.3L107.3 122.7C107.1 122.7 99.4 122.5 94 121.6C94 120 94.1 119.4 94.2 118.2L102.6 116.9C103.1 111.8 103.7 104.1 104.2 101.8L104.4 90.5L96.2 91.3L95.3 86.8L104.6 83.1C106.4 82.3 109.2 81.4 112.7 80.8C114.1 81.6 114.6 82.9 115.8 84.2L114.1 102.5L113.9 116.9C116 117.1 118.4 117.1 121.3 117.6C121.2 119 121.2 119.7 121.1 121.3Z" fill="white"/>
<path d="M152.7 117.2C151 119.4 146 122.7 142 122.7C134.5 122.5 130.6 119.6 127.8 115.6C126.6 113.9 125.1 106.9 125.1 101.1C125.1 96 125.8 92.8 127.4 88.7C128.8 85 131 80.9 135.7 77.1C139.6 73.9 146.1 71.2 152.3 71C153.1 72.1 153.6 73.4 153.7 74.6C149.3 75.8 144.7 78.1 141.8 81.8C140.1 84 137.2 89.2 136.5 95.2C140.7 92.3 145.7 90 147.1 89.8C148.4 89.8 150.1 90.5 151.4 91.2C153.3 92.2 157.3 96.1 157.3 99.7C157.4 107.3 155.9 113.1 152.7 117.2ZM146.6 106.3C146.6 102.7 145.7 97.7 143.6 97C141.9 97.1 139 98.5 136.2 100C136.1 108 137 113.5 138.6 117.4C139.4 118.1 143.2 118.5 144.2 117.9C146.3 114.2 146.6 109.2 146.6 106.3Z" fill="white"/>
</g>
<defs>
<clipPath id="clip0">
<rect width="174.6" height="144.8" fill="white"/>
</clipPath>
</defs>
</svg>
