<svg width="168" height="391" viewBox="0 0 168 391" fill="none" xmlns="http://www.w3.org/2000/svg">
<g clip-path="url(#clip0)">
<path d="M58 383.5C58.2 380.7 58.3 377.9 58.5 375C58.5 373.6 58.5 372.2 58.6 370.8C58.9 366.3 59.5 361.8 59.6 357.2C59.8 350.2 59.8 343.3 59.9 336.4C60.2 328.1 60.9 319.7 60.8 311.4C60.6 299.8 60.8 288.4 61.5 276.9C62.2 265.7 62.2 254.5 62.4 243.3C62.5 235.6 62.5 227.8 62.6 220.1C62.7 213.9 62.9 207.8 62.9 201.6C62.9 190.9 63.1 180.1 62.9 169.3C62.6 152.9 62 136.6 61.7 120.2C61.6 116.6 62 113 62.1 109.4C62.1 108.4 61.7 107.4 61.3 106C59.6 106 58.1 106.1 56.6 106.1C41 106.5 25.4 106.9 9.79998 107.3C6.19998 107.4 5.19998 106.9 3.89998 103.8C3.39998 115.9 2.99998 128.1 3.09998 140.2C3.29998 153.5 2.99998 166.7 2.29998 180C1.69998 190.7 2.09998 201.5 1.99998 212.3C1.99998 213 1.99998 213.6 1.99998 214.2C1.69998 223.3 0.999984 232.5 0.899984 241.6C0.999984 256.8 1.19998 272 1.29998 287.3C1.29998 288 1.29998 288.6 1.29998 289.2C0.899984 295.3 -1.59303e-05 301.4 0.0999841 307.6C0.599984 332.5 1.29998 357.4 1.99998 382.4C2.09998 384.8 2.39998 386.6 2.99998 387.8C21.8 388.5 41.6 386.2 58.2 385.1C58 384.5 58 384 58 383.5ZM12.4 147C14.3 144.2 15.8 141.8 17.6 139.2C16 138.9 14.7 138.5 13.2 138.2C15.8 134.2 17.9 130.3 21.7 127.5C24.7 130.4 28.4 132.6 30.9 136.8C29.1 137 27.8 137.1 26.1 137.3C28.5 139.7 30.7 141.9 32.9 144.1C32.9 146.2 31 145.5 29.8 146.1C31.5 149.6 35.4 151 37.4 154.4C35.3 155.8 33.2 154.2 30.9 155.4C32.9 158 34.8 160.5 37.1 163.4C33.4 163.9 30.1 164.3 26.8 164.7C26.8 166.4 26.8 167.8 26.8 169.3C25.3 170 23.9 170.8 22.1 169.8C21.8 168.3 21.5 166.9 21.3 165.4C17.7 164.7 14.2 166.1 10.4 164.9C12 161.9 13.6 159.1 15.2 156.1C13.7 156.1 12.3 156.1 10.1 156.1C12.5 152.9 14.5 150.3 16.6 147.6C15.2 147.4 14 147.3 12.4 147ZM37.1 348.4C33.4 348.9 30.1 349.3 26.8 349.7C26.8 351.4 26.8 352.8 26.8 354.3C25.3 355 23.9 355.8 22.1 354.8C21.8 353.3 21.5 351.9 21.3 350.4C17.7 349.7 14.2 351.1 10.4 349.9C12 346.9 13.6 344.1 15.2 341.1C13.7 341.1 12.3 341.1 10.1 341.1C12.5 337.9 14.5 335.3 16.6 332.6C15.2 332.4 14 332.3 12.4 332C14.3 329.2 15.8 326.8 17.6 324.2C16 323.9 14.7 323.5 13.2 323.2C15.8 319.2 17.9 315.3 21.7 312.5C24.7 315.4 28.4 317.6 30.9 321.8C29.1 322 27.8 322.1 26.1 322.3C28.5 324.7 30.7 326.9 32.9 329.1C32.9 331.2 31 330.5 29.8 331.1C31.5 334.6 35.4 336 37.4 339.4C35.3 340.8 33.2 339.2 30.9 340.4C32.9 343 34.8 345.5 37.1 348.4ZM42 251.4C38.3 251.9 35 252.3 31.7 252.7C31.7 254.4 31.7 255.8 31.7 257.3C30.2 258 28.8 258.8 27 257.8C26.7 256.3 26.4 254.9 26.2 253.4C22.6 252.7 19.1 254.1 15.3 252.9C16.9 249.9 18.5 247.1 20.1 244.1C18.6 244.1 17.2 244.1 15 244.1C17.4 240.9 19.4 238.3 21.5 235.6C20.1 235.4 18.9 235.3 17.3 235C19.2 232.2 20.7 229.8 22.5 227.2C20.9 226.9 19.6 226.5 18.1 226.2C20.7 222.2 22.8 218.3 26.6 215.5C29.6 218.4 33.3 220.6 35.8 224.8C34 225 32.7 225.1 31 225.3C33.4 227.7 35.6 229.9 37.8 232.1C37.8 234.2 35.9 233.5 34.7 234.1C36.4 237.6 40.3 239 42.3 242.4C40.2 243.8 38.1 242.2 35.8 243.4C37.8 246 39.7 248.5 42 251.4Z" fill="#A82F13"/>
<path d="M11.6 96.7C26.8 96.3 42 95.9 57.2 95.5C58.7 95.5 60.1 95.4 62 95.4C61.9 90.7 61.7 86.6 61.7 82.5C61.7 79.9 62.0999 77.4 62.0999 74.8C58.9999 74.6 55.8999 75.5 52.5999 74.5C54.1999 71.5 55.8 68.7 57.4 65.7C55.9 65.7 54.4999 65.7 52.2999 65.7C54.6999 62.5 56.6999 59.9 58.7999 57.2C57.3999 57 56.1999 56.8999 54.5999 56.5999C56.4999 53.7999 57.9999 51.3999 59.7999 48.7999C58.1999 48.4999 56.9 48.0999 55.4 47.7999C57.3 44.8999 58.9 41.9999 61.2 39.5999C61.2 34.9999 61.1 30.3999 61 25.7999C60.8 19.3999 60.1 12.9 59.7 6.39995C59.5 3.39995 60.6999 1.19995 62.5999 0.399951C56.7999 0.399951 51 0.299951 45.2 0.199951C36.9 0.399951 28.7 0.599951 20.5 0.899951C18 0.999951 15.5 1.59995 13 1.99995C10.6 2.19995 9.29995 3.59995 9.09995 5.99995C8.89995 9.59995 8.59995 13.1999 8.39995 16.7999C7.89995 23.6999 7.19995 30.6999 6.79995 37.5999C8.99995 39.4999 11.3 41.3999 13.1 44.2999C11.3 44.4999 9.99995 44.5999 8.29995 44.7999C10.7 47.1999 12.9 49.3999 15.1 51.5999C15.1 53.6999 13.2 52.9999 12 53.5999C13.7 57.0999 17.6 58.5 19.6 61.9C17.5 63.3 15.4 61.7 13.1 62.9C15.1 65.5 17 68 19.3 70.9C15.6 71.4 12.3 71.8 8.99995 72.2C8.99995 73.9 8.99995 75.3 8.99995 76.8C7.89995 77.3 6.79995 77.9 5.59995 77.7C5.09995 85.3 4.49995 92.8 4.19995 100.4C5.69995 97.4 8.49995 96.8 11.6 96.7Z" fill="#A82F13"/>
<path d="M68.7 5.40005C69.2 10.4 69.8 15.4 69.9 20.5C70 27.9 70.1 35.3001 70.2 42.7001C71.3 43.8001 72.3 45.0001 73.1 46.4001C72 46.5001 71.1 46.6001 70.2 46.7001C70.2 47.4001 70.2 48.1 70.2 48.8C71.9 50.5 73.5 52.1001 75.1 53.7001C75.1 55.8001 73.2 55.1001 72 55.7001C73.7 59.2001 77.6 60.6 79.6 64C77.5 65.4 75.4 63.8 73.1 65C75.1 67.6 77 70.1 79.3 73C76.3 73.4 73.6 73.7 70.9 74.1C70.9 74.4 71 74.7 71 75.1C71.1 80.8 71 86.5 71.1 92.2C71.1 93.3 71.9 94.3 72.1 94.9C75.3 94.6 77.9 94.2 80.5 94.2C88.8 94.2 97 94.4 105.2 94.5C113.3 94.6 121.4 94.7 129.5 94.8C139.9 94.9 150.4 94.9 160.9 94.9C160.8 92.5 160.8 90.1 160.7 87.7C160.6 84.9 161 77.7 161.2 68.4C160.9 68.3 160.5 68.2 160.2 68C159.9 66.5 159.6 65.1 159.4 63.6C155.8 62.9 152.3 64.3 148.5 63.1C150.1 60.1 151.7 57.3 153.3 54.3C151.8 54.3 150.4 54.3 148.2 54.3C150.6 51.1 152.6 48.5 154.7 45.8C153.3 45.6 152.1 45.5001 150.5 45.2001C152.4 42.4001 153.9 40.0001 155.7 37.4001C154.1 37.1001 152.8 36.7001 151.3 36.4001C153.9 32.4001 156 28.5001 159.8 25.7001C160 25.9001 160.3 26.2 160.6 26.4C159.8 17.7 158.6 10 156.4 4.80005C156.3 4.80005 156.2 4.70005 156.1 4.70005C153.9 3.90005 151.8 2.70005 149.5 2.50005C141.2 1.70005 132.9 1.00005 124.7 0.300049C105.1 0.600049 85.4 0.700049 65.7 0.600049C67.2 1.10005 68.4 3.00005 68.7 5.40005ZM100.3 36.8C102.2 34 103.7 31.6 105.5 29C103.9 28.7 102.6 28.3 101.1 28C103.7 24 105.8 20.1 109.6 17.3C112.6 20.2 116.3 22.4001 118.8 26.6C117 26.8 115.7 26.9 114 27.1C116.4 29.5001 118.6 31.7001 120.8 33.9001C120.8 36.0001 118.9 35.3001 117.7 35.9001C119.4 39.4001 123.3 40.8001 125.3 44.2001C123.2 45.6001 121.1 44.0001 118.8 45.2001C120.8 47.8001 122.7 50.3001 125 53.2001C121.3 53.7001 118 54.1 114.7 54.5C114.7 56.2 114.7 57.6 114.7 59.1C113.2 59.8 111.8 60.6 110 59.6C109.7 58.1 109.4 56.7001 109.2 55.2001C105.6 54.5001 102.1 55.9001 98.3 54.7001C99.9 51.7001 101.5 48.9001 103.1 45.9001C101.6 45.9001 100.2 45.9001 98 45.9001C100.4 42.7001 102.4 40.1001 104.5 37.4001C103.1 37.2001 101.9 37.1 100.3 36.8Z" fill="#A82F13"/>
<path d="M162 105.1C165.2 105.1 167.3 102.9 167.3 100C167.3 96.8 165.1 94.8 161.6 94.8C161.3 94.8 161.1 94.8 160.8 94.8C160.9 98.2 161 101.7 161.1 105.1C161.4 105 161.7 105.1 162 105.1Z" fill="white"/>
<path d="M4.2 100.5C3.9 101.1 3.7 101.7 3.5 102.4C3.7 102.9 3.9 103.4 4 103.8C4 103.2 4 102.5 4.1 101.9C4.2 101.4 4.2 100.9 4.2 100.5Z" fill="white"/>
<path d="M61.3001 390C63.6001 390.8 65.7001 389.4 66.6001 386.1C66.7001 385.6 66.9001 385.1 67.0001 384.5C64.2001 384.6 61.2001 384.7 58.1001 384.9C58.5001 387.2 59.8001 389.5 61.3001 390Z" fill="white"/>
<path d="M63.8 0C63.3 0 62.9 0.2 62.5 0.3C63.5 0.3 64.6 0.3 65.6 0.3C65.1 0.1 64.5 0 63.8 0Z" fill="white"/>
<path d="M95.5 150C95.7 151.5 96 152.9 96.3 154.4C98.1 155.4 99.5 154.6 101 153.9C101 152.4 101 151 101 149.3C104.3 148.9 107.6 148.5 111.3 148C109 145.1 107.1 142.6 105.1 140C107.4 138.8 109.5 140.4 111.6 139C109.6 135.6 105.7 134.2 104 130.7C105.2 130.1 107.1 130.8 107.1 128.7C104.9 126.5 102.7 124.3 100.3 121.9C102 121.7 103.3 121.6 105.1 121.4C102.6 117.2 98.9 115 95.9 112.1C92.1 114.9 90 118.8 87.4 122.8C88.9 123.1 90.2 123.5 91.8 123.8C90 126.4 88.5 128.8 86.6 131.6C88.2 131.9 89.4 132 90.8 132.2C88.7 134.9 86.7 137.5 84.3 140.7C86.5 140.7 87.9 140.7 89.4 140.7C87.8 143.7 86.2 146.5 84.6 149.5C88.4 150.7 91.9 149.3 95.5 150Z" fill="white"/>
<path d="M114.6 307.1C112.6 303.7 108.7 302.3 107 298.8C108.2 298.2 110.1 298.9 110.1 296.8C107.9 294.6 105.7 292.4 103.3 290C105 289.8 106.3 289.7 108.1 289.5C105.6 285.3 101.9 283.1 98.9 280.2C95.1 283 93 286.9 90.4 290.9C91.9 291.2 93.2 291.6 94.8 291.9C93 294.5 91.5 296.9 89.6 299.7C91.2 300 92.4 300.1 93.8 300.3C91.7 303 89.7 305.6 87.3 308.8C89.5 308.8 90.9 308.8 92.4 308.8C90.8 311.8 89.2 314.6 87.6 317.6C91.4 318.8 94.9 317.4 98.5 318.1C98.7 319.6 99 321 99.3 322.5C101.1 323.5 102.5 322.7 104 322C104 320.5 104 319.1 104 317.4C107.3 317 110.6 316.6 114.3 316.1C112 313.2 110.1 310.7 108.1 308.1C110.4 306.9 112.5 308.5 114.6 307.1Z" fill="white"/>
<path d="M144 378.7C145.2 378.1 147.1 378.8 147.1 376.7C144.9 374.5 142.7 372.3 140.3 369.9C142 369.7 143.3 369.6 145.1 369.4C142.6 365.2 138.9 363 135.9 360.1C132.1 362.9 130 366.8 127.4 370.8C128.9 371.1 130.2 371.5 131.8 371.8C130 374.4 128.5 376.8 126.6 379.6C128.2 379.9 129.4 380 130.8 380.2C130 381.2 129.3 382.1 128.5 383.1C134.5 383.3 141.3 383.5 147.6 382.8C146.2 381.6 144.8 380.4 144 378.7Z" fill="white"/>
<path d="M164.6 286.5C163.6 285.7 162.7 284.9 161.8 284.1C158 286.9 155.9 290.8 153.3 294.8C154.8 295.1 156.1 295.5 157.7 295.8C155.9 298.4 154.4 300.8 152.5 303.6C154.1 303.9 155.3 304 156.7 304.2C154.6 306.9 152.6 309.5 150.2 312.7C152.4 312.7 153.8 312.7 155.3 312.7C153.7 315.7 152.1 318.5 150.5 321.5C154.3 322.7 157.8 321.3 161.4 322C161.6 323.5 161.9 324.9 162.2 326.4C162.6 326.6 163 326.7 163.3 326.8C163.8 315.9 164.4 305.1 164.5 294.1C164.6 291.6 164.6 289 164.6 286.5Z" fill="white"/>
<path d="M152.2 159.3C153.7 159.6 155 160 156.6 160.3C154.8 162.9 153.3 165.3 151.4 168.1C153 168.4 154.2 168.5 155.6 168.7C153.5 171.4 151.5 174 149.1 177.2C151.3 177.2 152.7 177.2 154.2 177.2C152.6 180.2 151 183 149.4 186C153.2 187.2 156.7 185.8 160.3 186.5C160.5 188 160.8 189.4 161.1 190.9C162.3 191.6 163.4 191.4 164.4 191C164.4 189.8 164.3 188.6 164.3 187.5C163.9 175.2 163.4 162.9 162.9 150.5C162.2 149.9 161.4 149.2 160.7 148.6C156.9 151.4 154.8 155.3 152.2 159.3Z" fill="white"/>
<path d="M151.2 36.2C152.7 36.5 154 36.9 155.6 37.2C153.8 39.8 152.3 42.2 150.4 45C152 45.3 153.2 45.4 154.6 45.6C152.5 48.3 150.5 50.9 148.1 54.1C150.3 54.1 151.7 54.1 153.2 54.1C151.6 57.1 150 59.9 148.4 62.9C152.2 64.1 155.7 62.7 159.3 63.4C159.5 64.9 159.8 66.3 160.1 67.8C160.5 68 160.8 68.1 161.1 68.2C161.4 55.8 161.6 39.8 160.4 26.2C160.1 26 159.9 25.7 159.6 25.5C155.9 28.3 153.8 32.2 151.2 36.2Z" fill="white"/>
<path d="M103.1 45.9001C101.5 48.9001 99.9 51.7001 98.3 54.7001C102.1 55.9001 105.6 54.5001 109.2 55.2001C109.4 56.7001 109.7 58.1 110 59.6C111.8 60.6 113.2 59.8 114.7 59.1C114.7 57.6 114.7 56.2 114.7 54.5C118 54.1 121.3 53.7001 125 53.2001C122.7 50.3001 120.8 47.8001 118.8 45.2001C121.1 44.0001 123.2 45.6001 125.3 44.2001C123.3 40.8001 119.4 39.4001 117.7 35.9001C118.9 35.3001 120.8 36.0001 120.8 33.9001C118.6 31.7001 116.4 29.5001 114 27.1C115.7 26.9 117 26.8 118.8 26.6C116.3 22.4001 112.6 20.2 109.6 17.3C105.8 20.1 103.7 24 101.1 28C102.6 28.3 103.9 28.7 105.5 29C103.7 31.6 102.2 34 100.3 36.8C101.9 37.1 103.1 37.2001 104.5 37.4001C102.4 40.1001 100.4 42.7001 98 45.9001C100.2 45.9001 101.6 45.9001 103.1 45.9001Z" fill="white"/>
<path d="M9.0001 76.9C9.0001 75.4 9.0001 74 9.0001 72.3C12.3001 71.9 15.6001 71.5 19.3001 71C17.0001 68.1 15.1001 65.6 13.1001 63C15.4001 61.8 17.5001 63.4 19.6001 62C17.6001 58.6 13.7001 57.2 12.0001 53.7C13.2001 53.1 15.1001 53.8 15.1001 51.7C12.9001 49.5 10.7001 47.3 8.3001 44.9C10.0001 44.7 11.3001 44.6 13.1001 44.4C11.4001 41.5 9.1001 39.6 6.8001 37.7C6.7001 39.9 6.5001 42 6.4001 44.2C6.0001 52.5 6.2001 60.8999 6.0001 69.1999C6.0001 69.8999 6.0001 70.4999 6.0001 71.0999C5.9001 73.2999 5.7001 75.5 5.6001 77.8C6.8001 78 7.9001 77.4 9.0001 76.9Z" fill="white"/>
<path d="M160.9 94.7C150.4 94.7 139.9 94.7 129.5 94.6C121.4 94.5 113.3 94.4 105.2 94.3C96.9 94.2 88.7 94 80.4 94C77.8 94 75.2 94.4 72 94.7C71.8 94.1 71 93.1 71 92C70.9 86.3 71 80.6 71 75C71 74.7 71 74.4 70.9 74C73.6 73.7 76.3 73.3 79.3 72.9C77 70 75.1 67.5 73.1 64.9C75.4 63.7 77.5 65.3001 79.6 63.9001C77.6 60.5001 73.7 59.1 72 55.6C73.2 55 75.1 55.7 75.1 53.6C73.5 52 71.9 50.4001 70.2 48.7001C70.2 48.0001 70.2 47.3 70.2 46.6C71.1 46.5 72 46.4 73.1 46.3C72.2 44.9 71.2 43.7 70.2 42.6C70.1 35.2 70.1 27.8 69.9 20.4C69.8 15.4 69.2 10.3 68.7 5.30005C68.4 2.90005 67.2 1.00005 65.7 0.300049C64.7 0.300049 63.6 0.300049 62.6 0.300049C60.8 1.10005 59.6 3.30005 59.7 6.30005C60 12.8 60.8 19.2001 61 25.7001C61.1 30.3001 61.1 34.9 61.2 39.5C59 41.9 57.3 44.8001 55.4 47.7001C56.9 48.0001 58.2 48.4001 59.8 48.7001C58 51.3001 56.5 53.7 54.6 56.5C56.2 56.8 57.4 56.9 58.8 57.1C56.7 59.8 54.7 62.4 52.3 65.6C54.5 65.6 55.9 65.6 57.4 65.6C55.8 68.6 54.2 71.4 52.6 74.4C55.9 75.4 59 74.5 62.1 74.7C62.1 77.3 61.7 79.8 61.7 82.4C61.7 86.5 61.9 90.6 62 95.3C60.1 95.3 58.7 95.4 57.2 95.4C42 95.8 26.8 96.2 11.6 96.6C8.5 96.7 5.7 97.3 4.2 100.4C4.2 100.8 4.2 101.3 4.1 101.7C4.1 102.3 4.1 103 4 103.6C5.3 106.7 6.3 107.2 9.9 107.1C25.5 106.7 41.1 106.3 56.7 105.9C58.2 105.9 59.7 105.8 61.4 105.8C61.7 107.2 62.2 108.2 62.2 109.2C62.1 112.8 61.7 116.4 61.8 120C62.1 136.4 62.7 152.7 63 169.1C63.2 179.8 63.1 190.6 63 201.4C63 207.6 62.8 213.7 62.7 219.9C62.6 227.6 62.6 235.4 62.5 243.1C62.3 254.3 62.3 265.5 61.6 276.7C60.8 288.2 60.7 299.7 60.9 311.2C61 319.5 60.3 327.9 60 336.2C59.8 343.1 59.9 350.1 59.7 357C59.5 361.6 59 366.1 58.7 370.6C58.6 372 58.6 373.4 58.6 374.8C58.4 377.6 58.3 380.4 58.1 383.3C58.1 383.8 58.1 384.4 58.2 384.9C61.3 384.7 64.3 384.5 67.1 384.5C67.5 383.1 67.7 381.6 67.8 380.1C67.9 367.2 69.3 354.3 68.6 341.3C68.3 334.9 69.4 328.4 69.6 322C69.8 313.5 69.6 304.9 69.9 296.4C70.1 289.6 70.5 282.9 70.9 276.2C70.9 275.4 70.9 274.6 70.9 273.8C70.9 265.1 71 256.4 71.1 247.7C71.2 239.8 71 231.9 71.4 224C72.1 209.8 71.7 195.5 72 181.4C72.6 158.8 71 136.4 70.9 113.8C70.8 110.9 71.2 108.1 71.5 105.1C72.8 104.7 73.3 104.4 73.8 104.4C83.9 104.1 93.9 103.8 104 103.6C111 103.5 118 103.9 125 103.9C133.8 104 142.6 104 151.4 104.2C154.7 104.3 157.9 104.7 161.2 104.7C161 101.6 160.9 98.1 160.9 94.7Z" fill="white"/>
<path d="M15.2001 156.1C13.6001 159.1 12.0001 161.9 10.4001 164.9C14.2001 166.1 17.7001 164.7 21.3001 165.4C21.5001 166.9 21.8001 168.3 22.1001 169.8C23.9001 170.8 25.3001 170 26.8001 169.3C26.8001 167.8 26.8001 166.4 26.8001 164.7C30.1001 164.3 33.4001 163.9 37.1001 163.4C34.8001 160.5 32.9001 158 30.9001 155.4C33.2001 154.2 35.3001 155.8 37.4001 154.4C35.4001 151 31.5001 149.6 29.8001 146.1C31.0001 145.5 32.9001 146.2 32.9001 144.1C30.7001 141.9 28.5001 139.7 26.1001 137.3C27.8001 137.1 29.1001 137 30.9001 136.8C28.4001 132.6 24.7001 130.4 21.7001 127.5C17.9001 130.3 15.8001 134.2 13.2001 138.2C14.7001 138.5 16.0001 138.9 17.6001 139.2C15.8001 141.8 14.3001 144.2 12.4001 147C14.0001 147.3 15.2001 147.4 16.6001 147.6C14.5001 150.3 12.5001 152.9 10.1001 156.1C12.3001 156.1 13.7001 156.1 15.2001 156.1Z" fill="white"/>
<path d="M42.3 242.4C40.3 239 36.4 237.6 34.7 234.1C35.9 233.5 37.8 234.2 37.8 232.1C35.6 229.9 33.4 227.7 31 225.3C32.7 225.1 34 225 35.8 224.8C33.3 220.6 29.6 218.4 26.6 215.5C22.8 218.3 20.7 222.2 18.1 226.2C19.6 226.5 20.9 226.9 22.5 227.2C20.7 229.8 19.2 232.2 17.3 235C18.9 235.3 20.1 235.4 21.5 235.6C19.4 238.3 17.4 240.9 15 244.1C17.2 244.1 18.6 244.1 20.1 244.1C18.5 247.1 16.9 249.9 15.3 252.9C19.1 254.1 22.6 252.7 26.2 253.4C26.4 254.9 26.7 256.3 27 257.8C28.8 258.8 30.2 258 31.7 257.3C31.7 255.8 31.7 254.4 31.7 252.7C35 252.3 38.3 251.9 42 251.4C39.7 248.5 37.8 246 35.8 243.4C38.1 242.2 40.2 243.8 42.3 242.4Z" fill="white"/>
<path d="M37.4001 339.4C35.4001 336 31.5001 334.6 29.8001 331.1C31.0001 330.5 32.9001 331.2 32.9001 329.1C30.7001 326.9 28.5001 324.7 26.1001 322.3C27.8001 322.1 29.1001 322 30.9001 321.8C28.4001 317.6 24.7001 315.4 21.7001 312.5C17.9001 315.3 15.8001 319.2 13.2001 323.2C14.7001 323.5 16.0001 323.9 17.6001 324.2C15.8001 326.8 14.3001 329.2 12.4001 332C14.0001 332.3 15.2001 332.4 16.6001 332.6C14.5001 335.3 12.5001 337.9 10.1001 341.1C12.3001 341.1 13.7001 341.1 15.2001 341.1C13.6001 344.1 12.0001 346.9 10.4001 349.9C14.2001 351.1 17.7001 349.7 21.3001 350.4C21.5001 351.9 21.8001 353.3 22.1001 354.8C23.9001 355.8 25.3001 355 26.8001 354.3C26.8001 352.8 26.8001 351.4 26.8001 349.7C30.1001 349.3 33.4001 348.9 37.1001 348.4C34.8001 345.5 32.9001 343 30.9001 340.4C33.2001 339.2 35.3001 340.8 37.4001 339.4Z" fill="white"/>
<path d="M161.9 284.1C162.8 285 163.7 285.7 164.7 286.5C165 254.6 165.5 222.9 164.4 191C163.4 191.4 162.3 191.6 161.1 190.9C160.8 189.4 160.5 188 160.3 186.5C156.7 185.8 153.2 187.2 149.4 186C151 183 152.6 180.2 154.2 177.2C152.7 177.2 151.3 177.2 149.1 177.2C151.5 174 153.5 171.4 155.6 168.7C154.2 168.5 153 168.4 151.4 168.1C153.3 165.3 154.8 162.9 156.6 160.3C155 160 153.7 159.6 152.2 159.3C154.8 155.3 156.9 151.4 160.7 148.6C161.4 149.3 162.1 149.9 162.9 150.5C162.3 135.3 161.7 120.2 161.2 105C157.9 104.9 154.7 104.5 151.4 104.5C142.6 104.3 133.8 104.3 125 104.2C118 104.1 111 103.8 104 103.9C93.9001 104 83.9001 104.4 73.8001 104.7C73.3001 104.7 72.8001 105 71.5001 105.4C71.3001 108.3 70.8001 111.1 70.9001 114.1C70.9001 136.6 72.5001 159.1 72.0001 181.7C71.6001 195.9 72.0001 210.1 71.4001 224.3C71.0001 232.1 71.2001 240.1 71.1001 248C71.1001 256.7 71.0001 265.4 70.9001 274.1C70.9001 274.9 70.9001 275.7 70.9001 276.5C70.6001 283.2 70.1001 290 69.9001 296.7C69.7001 305.2 69.9001 313.8 69.6001 322.3C69.4001 328.7 68.3001 335.2 68.6001 341.6C69.2001 354.6 67.8001 367.5 67.8001 380.4C67.8001 381.9 67.5001 383.4 67.1001 384.8H67.2001C85.5001 384.2 103.7 383.4 122 383.2C124 383.2 126.2 383.2 128.6 383.3C129.4 382.3 130.1 381.3 130.9 380.4C129.5 380.2 128.3 380.1 126.7 379.8C128.6 377 130.1 374.6 131.9 372C130.3 371.7 129 371.3 127.5 371C130.1 367 132.2 363.1 136 360.3C139 363.2 142.7 365.4 145.2 369.6C143.4 369.8 142.1 369.9 140.4 370.1C142.8 372.5 145 374.7 147.2 376.9C147.2 379 145.3 378.3 144.1 378.9C144.9 380.6 146.3 381.8 147.7 383C153.3 382.4 158.6 381 162.8 378.1C162.9 377.7 163 377.3 163.1 376.9C163.2 376.5 163.5 376.1 163.8 375.8C164 373.6 164.1 371.3 164.1 369C164.1 369 164.1 368.9 164.1 368.8C164.1 358.6 162.6 347.7 162.8 342C163 337 163.2 332 163.4 327C163 326.9 162.7 326.8 162.3 326.6C162 325.1 161.7 323.7 161.5 322.2C157.9 321.5 154.4 322.9 150.6 321.7C152.2 318.7 153.8 315.9 155.4 312.9C153.9 312.9 152.5 312.9 150.3 312.9C152.7 309.7 154.7 307.1 156.8 304.4C155.4 304.2 154.2 304.1 152.6 303.8C154.5 301 156 298.6 157.8 296C156.2 295.7 154.9 295.3 153.4 295C156 290.8 158.1 286.9 161.9 284.1ZM84.3001 140.7C86.7001 137.5 88.7001 134.9 90.8001 132.2C89.4001 132 88.2001 131.9 86.6001 131.6C88.5001 128.8 90.0001 126.4 91.8001 123.8C90.2001 123.5 88.9001 123.1 87.4001 122.8C90.0001 118.8 92.1001 114.9 95.9001 112.1C98.9001 115 102.6 117.2 105.1 121.4C103.3 121.6 102 121.7 100.3 121.9C102.7 124.3 104.9 126.5 107.1 128.7C107.1 130.8 105.2 130.1 104 130.7C105.7 134.2 109.6 135.6 111.6 139C109.5 140.4 107.4 138.8 105.1 140C107.1 142.6 109 145.1 111.3 148C107.6 148.5 104.3 148.9 101 149.3C101 151 101 152.4 101 153.9C99.5001 154.6 98.1001 155.4 96.3001 154.4C96.0001 152.9 95.7001 151.5 95.5001 150C91.9001 149.3 88.4001 150.7 84.6001 149.5C86.2001 146.5 87.8001 143.7 89.4001 140.7C87.9001 140.7 86.5001 140.7 84.3001 140.7ZM114.3 316.1C110.6 316.6 107.3 317 104 317.4C104 319.1 104 320.5 104 322C102.5 322.7 101.1 323.5 99.3001 322.5C99.0001 321 98.7001 319.6 98.5001 318.1C94.9001 317.4 91.4001 318.8 87.6001 317.6C89.2001 314.6 90.8001 311.8 92.4001 308.8C90.9001 308.8 89.5001 308.8 87.3001 308.8C89.7001 305.6 91.7001 303 93.8001 300.3C92.4001 300.1 91.2001 300 89.6001 299.7C91.5001 296.9 93.0001 294.5 94.8001 291.9C93.2001 291.6 91.9001 291.2 90.4001 290.9C93.0001 286.9 95.1001 283 98.9001 280.2C101.9 283.1 105.6 285.3 108.1 289.5C106.3 289.7 105 289.8 103.3 290C105.7 292.4 107.9 294.6 110.1 296.8C110.1 298.9 108.2 298.2 107 298.8C108.7 302.3 112.6 303.7 114.6 307.1C112.5 308.5 110.4 306.9 108.1 308.1C110.1 310.7 112 313.2 114.3 316.1Z" fill="#A82F13"/>
<path d="M104.9 237.6L105.1 223.2L106.8 204.9C105.6 203.5 105.1 202.2 103.7 201.5C100.2 202 97.4 203 95.6 203.8L86.3 207.5L87.2 212L95.4 211.2L95.2 222.5C94.7 224.9 94.1 232.5 93.6 237.6L85.2 238.9C85.1 240.1 85 240.7 85 242.3C90.4 243.3 98.1 243.4 98.3 243.4L112.1 242C112.3 240.4 112.3 239.7 112.1 238.3C109.3 237.8 107 237.8 104.9 237.6Z" fill="white"/>
<path d="M116.1 202.1C115.6 206 116.1 209.3 117 212.7C121.9 212.5 128.9 212.1 137.2 210.9C131.2 222.7 125.2 236.2 120.1 248.7C120.9 250.3 122.1 251.7 123 252.3C124.9 252.5 127.7 252.5 129.6 252.1C134.9 234.5 137.8 221.9 145.1 206.6C144.8 205.1 144.1 203.3 143.3 201.9C131.5 202 127.4 202.1 116.1 202.1Z" fill="white"/>
</g>
<defs>
<clipPath id="clip0">
<rect width="167.3" height="390.3" fill="white"/>
</clipPath>
</defs>
</svg>
