<svg width="347" height="177" viewBox="0 0 347 177" fill="none" xmlns="http://www.w3.org/2000/svg">
<g clip-path="url(#clip0)">
<path d="M345.4 113.4C345.1 105.3 344.8 97.1 344.1 89C342.9 72.1 341.4 55.2 340.1 38.3C339.9 35.6 338.6 34.2 336.1 34C293.8 30.1 251.1 33.9 208.7 32.9C144.8 31.4 80.3001 29.2 16.3001 32C8.8001 32.3 6.5001 34.6 6.0001 42.1C5.4001 52 5.1001 61.8 5.2001 71.7C5.3001 91.1 5.6001 110.5 6.2001 129.8C6.5001 141.7 7.5001 153.6 8.3001 165.5C9.0001 176.9 28.5001 174 36.4001 174.5C109.3 178.9 182.3 175.8 255.2 174.7C268.5 174.5 281.8 174.4 295 174.4C309.9 174.4 324.9 175.6 339.7 175.1C345.5 175 346 174.2 346 168.4C346 150.1 346 131.8 345.4 113.4Z" fill="#064A42"/>
<path d="M-5.19585e-05 111.3C-0.100052 112.5 1.89995 114 3.19995 115.1C3.79995 115.6 4.99995 115.4 5.89995 115.4C45.3999 115.4 84.8999 115.4 124.4 115.6C145.8 115.7 167.1 116.2 188.5 116.6C210.1 117 231.7 117.4 253.3 117.9C263.2 118.1 273.1 118.4 283.1 118.5C285.7 118.5 286.4 119.6 286.4 122.1C286.4 136.8 286.6 151.4 286.6 166.1C286.6 167.1 286.6 168.2 286.6 169.2C286.8 171.9 288.3 173.6 291 173.6C293.6 173.6 294.9 171.8 295.1 169.4C295.3 167.2 295.3 165 295.3 162.8C295.2 149.5 295.2 136.2 294.9 122.9C294.8 119.7 295.8 118.7 299 118.8C312.6 119.5 326.2 119.9 339.8 120.4C342.4 120.5 344.5 119.9 345.2 117.2C345.8 114.3 344.2 112.5 341.5 111.8C339.1 111.2 336.5 111.1 334 111C321.9 110.6 309.8 110.2 297.6 110C295.3 110 295 108.9 294.9 107C294.2 88.3 293.4 69.6 292.6 50.9C292.4 46.8 292.4 42.6 292.3 37.5C296.8 45.3 301.4 52.1 302.4 60.6C302.6 62.1 304.3 64 305.8 64.6C308.1 65.4 310.3 63.9 310.7 61.5C311.1 59.1 310.9 56.4 310.2 54.1C307.4 45.5 303.6 37.3 297.5 30.5C295.8 28.6 296.4 27.8 298.1 26.6C300.3 25 302.6 23.2 304.3 21.1C308.2 16.3 308.4 10.9 305.8 5.49997C303.1 -0.100029 296.1 -1.50003 291.5 2.69997C289.2 4.79997 287.2 7.29997 285.7 9.99997C284.2 12.5 283.9 11.7 282.4 10.1C279.7 7.19997 276.7 4.29997 273.5 2.09997C269.5 -0.60003 264.9 -0.200029 260.5 1.39997C255.5 3.29997 253.5 7.69997 256.4 12.3C258.6 15.8 261.8 18.8 265.1 21.4C268.3 23.9 272.2 25.7 275.9 27.6C277.8 28.6 277.8 29.4 277 31.3C273.5 39.3 270.2 47.4 266.8 55.5C266.6 55.9 266.5 56.4 266.5 56.8C265.7 60.8 266.7 63.3 269.5 63.9C272.2 64.5 273.9 62.6 275.2 58.7C277.3 52.3 279.6 45.9 281.9 39.5C282.4 39.6 282.8 39.7 283.2 39.8C283.4 43.1 283.7 46.3 283.8 49.5C284.6 68.3 285.3 87.1 286.2 105.9C286.4 109.4 285.4 110 282 109.8C272.8 109.3 263.5 109.4 254.3 109.2C230.5 108.7 206.8 108 183 107.6C161.6 107.3 140.3 107.2 118.9 107.1C95.7999 106.9 72.6999 106.8 49.5999 106.8C35.2999 106.8 20.9999 106.9 6.59995 106.9C5.49995 106.9 3.99995 106.7 3.19995 107.3C1.79995 108.2 0.099948 109.8 -5.19585e-05 111.3ZM264.3 5.99997C265.5 4.89997 266.9 4.69997 268.3 4.99997C269.4 5.39997 270.5 5.89997 271.4 6.39997C272.7 7.19997 273.9 8.29997 274.7 9.19997C274.9 9.39997 275.1 9.59997 275.3 9.69997C275.8 10.2 276.3 10.8 276.7 11.5C278.7 14.4 282 18 281.7 21.6C281.2 22.4 280 22.9 279.1 22.4C275.1 20.1 270.8 18.5 267.1 15.7C264.2 13.6 260.7 9.19997 264.3 5.99997ZM289.4 19.2C290.4 16.5 291.7 13.9 293.1 11.4C294.4 9.39997 297.1 5.99997 299.3 6.69997C300.3 6.99997 301.1 8.19997 301.7 9.49997C301.4 11.9 299.8 14.8 298.8 16C297.2 17.9 295.4 19.7 293.3 21C290.7 22.5 288.5 22.4 289.4 19.2Z" fill="#FAAD18"/>
<path d="M60.6 95.5L46.8 96.9C46.6 96.9 38.9 96.7 33.5 95.8C33.5 94.2 33.6 93.6 33.7 92.4L42.1 91.1C42.6 86 43.2 78.3 43.7 76L43.9 64.7L35.7 65.5L34.6 61L43.9 57.3C45.7 56.5 48.5 55.6 52 55C53.4 55.8 53.9 57.1 55.1 58.4L53.4 76.7L53.2 91.1C55.3 91.3 57.7 91.3 60.6 91.8C60.7 93.2 60.7 93.9 60.6 95.5Z" fill="white"/>
<path d="M95.3 80.4C95.3 85.7 93.2 89.1999 89.7 92.5999C86.9 95.1999 83.4 96.9 79.4 96.9C73.6 96.9 68.9 94.4999 66.7 91.5999C65.1 89.4999 64 86.9 64 83.8C64 80.2 68 74.7999 73.5 71.0999C68.1 65.9999 65.8 61.8999 65.8 58.7999C65.8 56.0999 67 52.9999 69.8 50.0999C72.5 47.1999 76 45.2 80.2 45.2C84 45.2 88.1 46.2999 90.6 48.7999C93.6 51.7999 94.3 55.2999 94.1 58.2999C93.9 62.2999 91.1 66.1 87 68.9C91.2 72.8 95.3 77 95.3 80.4ZM85.2 84.8C85.2 82.1 82.2 78.4999 77 74.0999C74.5 77.3999 73.9 80.3999 73.9 83.0999C73.9 86.3999 75.3 90 77 91.8C78.7 92.3 80.7 92.6 82.1 91.8C83.9 90.3 85.1 88 85.2 84.8ZM74.4 53.4C74.4 56.7 76.3 59 83.2 65.4C84.4 63.2 85 60.5 85 58.2C85 53.7 82.9 50.6999 79.8 49.7999C77.7 49.7999 75.2 51.4 74.4 53.4Z" fill="white"/>
</g>
<defs>
<clipPath id="clip0">
<rect width="346.1" height="176.9" fill="white"/>
</clipPath>
</defs>
</svg>
