<svg width="144" height="217" viewBox="0 0 144 217" fill="none" xmlns="http://www.w3.org/2000/svg">
<path d="M2.60037 58.2833C6.42282 55.1848 127.518 49.9441 131.531 55.7968C135.545 61.6495 147.089 205.442 141.967 209.994C136.845 214.547 14.2588 216.765 10.0924 209.688C5.88766 202.573 -3.17153 62.9119 2.60037 58.2833Z" fill="#FAAD18"/>
<path d="M133.29 128.401C97.7028 133.336 6.38457 130.275 2.2181 130.122C0.956697 130.084 -0.0371578 129.013 0.00106668 127.751C0.0392911 126.488 1.10956 125.494 2.37097 125.532C3.47947 125.57 110.852 129.166 138.985 122.74C140.17 122.434 141.47 123.237 141.737 124.461C142.005 125.685 141.24 126.909 140.017 127.215C138.106 127.636 135.851 128.018 133.29 128.401Z" fill="#A82F13"/>
<path d="M55.8851 216.421C54.7384 216.574 53.6299 215.847 53.3241 214.7C47.3993 190.179 45.2588 71.5953 45.0294 55.9881C38.8371 53.3104 15.7495 42.1405 17.3549 24.3147C17.8901 18.5385 20.7187 17.6204 22.3623 17.5821C26.1465 17.5056 31.3833 23.0523 36.2378 29.6701C34.4413 20.7571 34.2501 11.1556 38.5313 4.23186C40.4043 1.20987 42.5448 -0.205485 44.8765 0.0240323C47.7816 0.330056 50.1515 3.08427 52.1009 8.43968C55.3118 17.2379 57.0319 32.1948 55.1971 42.8673C61.1984 37.971 68.5757 33.2276 73.7742 33.5719C78.17 33.8396 79.7754 36.4026 79.7372 38.736C79.7372 44.9712 67.7347 54.917 49.5399 56.6001C49.8457 73.967 52.0627 190.256 57.7199 213.628C58.0257 214.853 57.2612 216.115 56.038 216.421C56.0763 216.383 55.9616 216.421 55.8851 216.421ZM72.4745 38.1622C66.932 38.9273 57.567 46.7691 52.4449 51.589C64.4856 49.7146 72.2834 44.0149 74.5769 40.4191C75.3032 39.2716 75.3032 38.6595 75.2649 38.583C75.2267 38.5065 74.8062 38.2005 73.6213 38.1622C73.239 38.124 72.8186 38.124 72.4745 38.1622ZM22.5152 22.2107C22.5534 22.249 22.133 22.8228 21.9419 24.7737C20.8333 36.9764 35.2057 46.0041 43.1182 50.0206C42.4684 48.6818 41.7039 47.0369 40.9394 45.1243C35.5115 36.0583 25.8407 22.0577 22.5152 22.2107ZM45.297 43.7471C46.5202 45.9276 47.5522 47.802 48.2402 49.1791C48.3167 49.1026 48.3932 49.0261 48.4696 48.9496C52.8272 42.37 51.9862 21.3309 47.858 10.0081C46.2908 5.68547 44.8383 4.61439 44.4561 4.57613C44.3032 4.57613 43.5769 4.88216 42.4684 6.64179C36.3142 16.6258 41.3599 34.1074 45.297 43.7471Z" fill="#A82F13"/>
<path d="M34.6706 62.4529C29.8161 63.1414 24.8088 62.7589 20.7952 61.5731C16.6287 60.349 14.1824 58.4363 13.6854 56.0646C13.4561 55.0701 13.4561 53.1574 15.5584 51.3213C23.2798 44.5887 43.9974 50.7857 46.3291 51.5125C46.7114 51.6273 47.0554 51.8568 47.323 52.1246C47.8963 52.1246 48.5079 52.3541 48.9666 52.8131C49.8458 53.7312 49.8458 55.1848 48.9666 56.0646C45.2588 59.6987 40.0221 61.7261 34.6706 62.4529ZM23.2416 53.0427C21.2539 53.3104 19.6102 53.8842 18.5399 54.8023C18.1959 55.1083 18.1195 55.2613 18.1195 55.2613C18.3106 55.5291 19.9542 56.7914 23.7002 57.5948C29.3192 58.7806 36.9259 58.3981 42.4684 55.2231C36.5819 53.6164 28.6312 52.2776 23.2416 53.0427Z" fill="#A82F13"/>
<path d="M96.6486 184.19L82.7349 185.644C82.5055 185.644 74.7459 185.491 69.2798 184.496C69.2798 182.89 69.3562 182.278 69.4327 181.054L77.8803 179.753C78.339 174.589 79.0271 166.823 79.4858 164.452L79.6387 153.014L71.3439 153.856L70.4265 149.304L79.7916 145.555C81.6263 144.79 84.4932 143.795 88.0099 143.26C89.3859 144.025 89.9211 145.325 91.1443 146.702L89.3859 165.217L89.1566 179.753C91.2972 179.982 93.7053 179.983 96.6104 180.442C96.8015 181.895 96.8015 182.584 96.6486 184.19Z" fill="#A82F13"/>
<path d="M129.539 163.92C129.539 169.084 128.775 172.298 127.246 176.467C125.793 180.216 123.729 184.386 118.874 188.249C114.937 191.386 108.286 194.102 102.056 194.331C101.215 193.26 100.68 192.113 100.527 190.888C104.999 189.664 109.815 187.293 112.758 183.582C114.517 181.364 117.46 176.123 118.072 169.811C113.829 172.718 108.783 175.128 107.331 175.358C106.031 175.358 104.273 174.669 103.011 173.904C101.1 172.91 97.01 168.893 97.01 165.221C96.8571 157.608 98.4625 151.679 101.635 147.548C103.317 145.329 108.401 141.925 112.453 142.001C120.059 142.154 123.996 145.138 126.825 149.231C128.01 150.952 129.539 157.991 129.539 163.92ZM110.733 168.013C112.491 168.013 115.358 166.56 118.186 165.03C118.263 156.882 117.422 151.258 115.816 147.28C114.975 146.668 111.115 146.286 110.121 146.821C108.057 150.57 107.751 155.581 107.751 158.603C107.751 162.161 108.668 167.248 110.733 168.013Z" fill="#A82F13"/>
</svg>
