<svg width="175" height="162" viewBox="0 0 175 162" fill="none" xmlns="http://www.w3.org/2000/svg">
<path d="M0.330078 84.0657C0.330078 83.3772 0.330078 82.6886 0.330078 81.9618C0.444752 81.2733 0.635883 80.623 0.674108 79.9344C0.979903 70.3329 1.05636 60.7314 1.5915 51.1682C1.97375 44.2444 2.8147 37.3206 3.65563 30.4351C4.0761 27.0306 5.60508 25.9978 9.00706 25.8448C12.5237 25.6535 16.0403 25.3475 19.5952 25.0797C25.7494 25.0797 31.8653 25.0797 38.0194 25.0797C38.9751 25.1945 39.9307 25.424 40.8863 25.424C51.9331 25.4622 63.0182 25.4622 74.0651 25.5005C95.5855 25.6152 117.068 25.7682 138.588 25.8448C147.494 25.883 156.401 25.883 165.345 25.8065C166.836 25.8065 168.327 25.3092 169.856 25.0797C170.008 25.0797 170.123 25.0797 170.276 25.0797C171.69 26.189 173.372 27.0306 173.563 29.1345C173.793 31.6975 174.404 34.2604 174.404 36.8233C174.404 49.3703 174.366 61.9173 174.099 74.4643C173.793 89.3829 173.258 104.302 172.837 119.182C172.646 126.718 172.531 134.254 172.34 141.751C172.264 144.276 172.111 146.762 171.805 149.249C171.041 155.675 170.926 156.134 164.504 156.938C157.203 157.856 149.788 158.276 142.449 158.506C131.516 158.85 120.584 159.003 109.614 158.927C88.5522 158.812 67.5287 158.391 46.467 158.2C36.3758 158.085 26.2463 158.162 16.155 158.2C13.1735 158.2 10.192 158.468 7.17227 158.582C5.41394 158.659 4.57301 157.894 4.45834 155.981C4.11432 150.435 3.46448 144.888 3.19691 139.303C2.43242 124.614 1.82087 109.925 1.13283 95.2356C0.903482 91.5251 0.597649 87.7763 0.330078 84.0657Z" fill="#A82F13"/>
<path d="M56.5967 33.8779C51.6657 39.1185 49.678 45.5833 48.4166 52.3158C48.0344 54.4197 48.0344 56.6384 47.9197 58.7805C47.8433 60.2724 47.3846 61.42 45.7409 61.6495C44.1737 61.879 42.9123 61.0757 42.7977 59.6221C42.6065 57.0591 42.6065 54.458 43.027 51.9333C44.2884 44.1679 46.773 36.8233 51.7039 30.5116C52.8889 29.0197 52.8507 28.1399 51.1688 26.8776C48.4166 24.8502 45.8556 22.5167 43.4857 20.0303C39.3574 15.7842 38.5547 8.17187 41.4216 2.96947C43.1034 -0.090769 46.2379 -0.817572 49.2958 1.20984C53.1947 3.81104 55.4117 7.71283 57.3612 11.7676C58.2403 13.6038 59.0048 15.4782 59.6928 17.3908C60.1898 18.6914 60.4573 18.6914 61.3747 17.6203C63.9358 14.6366 66.4585 11.6146 69.3254 8.97518C73.1478 5.45591 77.8112 4.53784 82.8568 5.91494C86.9469 7.02428 88.3994 10.161 85.953 13.5655C84.1947 16.0137 81.7866 18.1176 79.302 19.8008C75.1738 22.555 70.7397 24.8884 66.4203 27.3366C65.3883 27.9104 65.1207 28.3694 65.6941 29.5935C69.7459 38.0092 71.9247 46.9986 73.2625 56.1793C73.4919 57.8625 73.3008 59.3926 71.3131 59.7751C69.2872 60.1576 68.408 58.8188 68.0258 57.0592C66.9173 51.9333 65.8852 46.7691 64.6238 41.6815C64.0887 39.5775 63.133 37.5501 61.8716 35.5992C61.604 40.6869 61.2601 45.7363 61.0307 50.8239C60.6485 60.0046 60.3809 69.1853 59.9222 78.366C59.8457 80.1639 60.3427 80.5082 61.9481 80.5465C78.4993 80.7377 95.0122 81.0055 111.563 81.2733C129.796 81.5793 147.991 81.8853 166.224 82.2296C167.983 82.2678 169.741 82.3826 171.461 82.6121C173.143 82.8416 174.519 83.6067 174.328 85.5576C174.137 87.5468 172.646 87.9675 170.964 87.9293C150.514 87.5085 130.064 87.0495 109.576 86.7052C101.396 86.5522 93.1774 86.8199 84.9974 86.7052C77.2761 86.5904 69.593 86.2844 61.8716 85.9401C59.8457 85.8254 59.1959 86.4374 59.1577 88.4266C58.9666 98.4488 58.7372 108.471 58.3932 118.493C57.9345 131.958 57.3994 145.385 56.8642 158.85C56.7878 160.533 56.0998 161.719 54.265 161.757C52.6596 161.796 51.5511 160.495 51.6275 158.391C51.9333 150.32 52.3537 142.287 52.6595 134.215C52.8507 129.242 52.9271 124.27 53.0418 119.297C53.3094 108.93 53.5005 98.5636 53.8445 88.1588C53.9209 86.3609 53.6152 85.7106 51.6657 85.6724C36.1084 85.5958 20.551 85.4046 4.99371 85.2516C4.15277 85.2516 3.15893 85.4428 2.50912 85.0603C1.66818 84.563 0.559644 83.6067 0.521419 82.7651C0.483195 81.9618 1.40059 80.8142 2.2033 80.2787C2.85312 79.8196 3.96164 79.9344 4.8408 79.9344C20.551 80.0492 36.223 80.1639 51.9333 80.3935C53.8827 80.4317 54.5708 79.9727 54.6472 77.907C55.1059 64.8245 55.7175 51.7037 56.2909 38.6212C56.3673 37.0911 56.5202 35.4845 56.5967 33.8779ZM55.9086 22.6315C54.5325 19.227 53.6152 16.2432 52.2009 13.5273C50.9012 11.0791 49.1047 8.89868 47.461 6.64175C46.8877 5.91495 45.9703 5.49416 45.7027 6.90952C45.1676 9.66374 44.4031 12.6857 46.3907 15.0191C48.7989 17.8116 51.7039 20.1833 54.4179 22.6697C54.609 22.861 55.1441 22.6697 55.9086 22.6315ZM65.1207 21.0249C65.35 21.2926 65.5794 21.5604 65.8088 21.8664C70.3192 19.074 74.8297 16.2815 79.3402 13.489C79.7989 13.183 80.1429 12.724 80.5252 12.3032C81.175 11.5764 81.1368 11.1939 80.0665 10.9643C77.6201 10.4671 75.3267 11.1173 73.5683 12.6475C70.5868 15.2487 67.9111 18.1941 65.1207 21.0249Z" fill="#064A42"/>
<path d="M85.3412 66.8901C80.6014 66.8901 80.6014 74.273 85.3412 74.273C90.0811 74.273 90.1193 66.8901 85.3412 66.8901Z" fill="white"/>
<path d="M34.6173 133.986C29.8776 133.986 29.8776 141.369 34.6173 141.369C39.3571 141.369 39.3953 133.986 34.6173 133.986Z" fill="white"/>
<path d="M75.2116 122.892C70.4718 122.892 70.4718 130.275 75.2116 130.275C79.9514 130.275 79.9514 122.892 75.2116 122.892Z" fill="white"/>
<path d="M37.7135 96.7274C32.9737 96.7274 32.9737 104.11 37.7135 104.11C42.4533 104.11 42.4533 96.7274 37.7135 96.7274Z" fill="white"/>
<path d="M98.5671 37.9709C93.8273 37.9709 93.8273 45.3537 98.5671 45.3537C103.307 45.3537 103.307 37.9709 98.5671 37.9709Z" fill="white"/>
<path d="M168.365 132.111C163.625 132.111 163.625 139.494 168.365 139.494C173.105 139.494 173.105 132.111 168.365 132.111Z" fill="white"/>
<path d="M154.528 53.3868C149.788 53.3868 149.788 60.7697 154.528 60.7697C159.267 60.7697 159.267 53.3868 154.528 53.3868Z" fill="white"/>
<path d="M121.616 61.9937C116.876 61.9937 116.876 69.3765 121.616 69.3765C126.356 69.3765 126.394 61.9937 121.616 61.9937Z" fill="white"/>
<path d="M172.646 109.963C172.799 109.963 172.913 109.925 173.066 109.925C173.143 107.515 173.219 105.067 173.295 102.657C173.104 102.618 172.875 102.58 172.646 102.58C167.906 102.58 167.906 109.963 172.646 109.963Z" fill="white"/>
<path d="M2.20299 43.2498C1.97365 45.698 1.74431 48.1462 1.62964 50.5561C6.33115 50.5944 6.48405 43.7471 2.20299 43.2498Z" fill="white"/>
<path d="M144.666 32.1565C148.335 32.1565 149.138 27.7956 147.188 25.7682C145.507 25.7682 143.825 25.7682 142.143 25.7682C140.193 27.7956 141.034 32.1565 144.666 32.1565Z" fill="white"/>
<path d="M174.328 44.5504C174.328 42.1022 174.366 39.6158 174.366 37.1676C169.626 37.1676 169.626 44.5122 174.328 44.5504Z" fill="white"/>
<path d="M6.33131 142.899C5.03168 142.899 4.11428 143.473 3.50269 144.238C3.65558 145.921 3.73203 147.642 3.88493 149.325C4.4583 149.899 5.26102 150.243 6.33131 150.243C11.1094 150.282 11.1094 142.899 6.33131 142.899Z" fill="white"/>
<path d="M140.079 155.828C138.053 155.828 136.906 157.167 136.6 158.697C138.55 158.659 140.461 158.621 142.41 158.582C142.792 158.582 143.136 158.544 143.519 158.544C143.136 157.052 141.99 155.828 140.079 155.828Z" fill="white"/>
<path d="M21.0859 61.9937C16.3461 61.9937 16.3461 69.3765 21.0859 69.3765C25.8639 69.3765 25.8639 61.9937 21.0859 61.9937Z" fill="white"/>
<path d="M73.3771 154.872C71.0072 154.872 69.8223 156.708 69.8223 158.506C72.1922 158.544 74.562 158.544 76.9319 158.582C76.9319 156.785 75.747 154.872 73.3771 154.872Z" fill="white"/>
<path d="M18.028 113.674C13.2882 113.674 13.2882 121.056 18.028 121.056C22.7678 121.056 22.7678 113.674 18.028 113.674Z" fill="white"/>
<path d="M32.4767 29.976C27.7369 29.976 27.7369 37.3589 32.4767 37.3589C37.2166 37.3589 37.2166 29.976 32.4767 29.976Z" fill="white"/>
<path d="M131.172 136.013C130.102 137.696 128.114 139.38 125.935 139.877C119.017 138.347 110.569 138.347 103.803 137.888L100.287 138.653C99.6752 137.505 98.6814 134.177 98.605 132.877C106.212 126.412 113.36 118.264 118.443 109.045C118.749 108.509 118.902 107.821 118.902 107.056C118.902 105.296 118.138 102.886 116.532 102.045C114.315 101.662 111.372 102.274 109.843 103.116C109.614 104.875 108.926 110.652 108.238 112.258C107.244 112.641 104.3 113.1 103.154 113.1C101.854 109.236 101.166 105.793 100.937 101.739C105.944 98.9844 114.545 97.1865 118.367 97.1865C123.68 97.1865 127.503 100.476 129.261 103.116C129.72 103.881 129.949 105.564 129.949 107.438C129.873 109.886 129.337 112.755 128.496 114.209C124.177 120.674 117.144 127.751 111.295 132.494C115.768 132.341 120.508 132.035 123.451 132.035L124.674 125.264C126.203 125.111 129.299 125.111 130.522 125.494C130.79 129.396 131.325 132.647 131.172 136.013Z" fill="white"/>
</svg>
