<svg width="175" height="163" viewBox="0 0 175 163" fill="none" xmlns="http://www.w3.org/2000/svg">
<path d="M0.724121 84.609C0.724121 83.9205 0.724121 83.2319 0.724121 82.5051C0.838794 81.8166 1.0299 81.1663 1.06813 80.4777C1.37392 70.8762 1.45038 61.2747 1.98552 51.7115C2.36777 44.7877 3.20872 37.8639 4.04965 30.9784C4.47012 27.5739 5.9991 26.5411 9.40108 26.3881C12.9177 26.1968 16.4344 25.8908 19.9892 25.623C26.1434 25.623 32.2593 25.623 38.4134 25.623C39.369 25.7378 40.3247 25.9673 41.2803 25.9673C52.3271 26.0055 63.4122 26.0055 74.4591 26.0438C95.9795 26.1585 117.462 26.3116 138.982 26.3881C147.888 26.4263 156.795 26.4263 165.739 26.3498C167.23 26.3498 168.721 25.8525 170.25 25.623C170.403 25.623 170.517 25.623 170.67 25.623C172.084 26.7323 173.766 27.5739 173.957 29.6778C174.187 32.2408 174.798 34.8037 174.798 37.3667C174.798 49.9136 174.76 62.4606 174.493 75.0076C174.187 89.9262 173.652 104.845 173.231 119.725C173.04 127.261 172.925 134.797 172.734 142.295C172.658 144.819 172.505 147.306 172.199 149.792C171.435 156.219 171.32 156.678 164.898 157.481C157.597 158.399 150.182 158.82 142.843 159.049C131.91 159.394 120.978 159.547 110.008 159.47C88.9462 159.355 67.9227 158.935 46.861 158.743C36.7698 158.629 26.6403 158.705 16.549 158.743C13.5675 158.743 10.586 159.011 7.56629 159.126C5.80796 159.202 4.96703 158.437 4.85236 156.525C4.50834 150.978 3.85853 145.431 3.59096 139.846C2.82647 125.157 2.21487 110.468 1.52683 95.7789C1.3357 92.1066 0.991692 88.3578 0.724121 84.609Z" fill="#FAAD18"/>
<path d="M57.0288 34.4594C52.0979 39.7001 50.1102 46.1648 48.8488 52.8974C48.4665 55.0013 48.4665 57.2199 48.3519 59.3621C48.2754 60.854 47.8167 62.0016 46.1731 62.2311C44.6059 62.4606 43.3445 61.6573 43.2298 60.2037C43.0387 57.6407 43.0387 55.0395 43.4591 52.5148C44.7206 44.7495 47.2051 37.4049 52.1361 31.0932C53.3211 29.6013 53.2828 28.7215 51.601 27.4591C48.8488 25.4317 46.2878 23.0983 43.9178 20.6119C39.7896 16.3658 38.9869 8.75345 41.8537 3.55104C43.5356 0.490808 46.67 -0.236 49.728 1.79141C53.6269 4.39261 55.8439 8.29441 57.7933 12.3492C58.6725 14.1854 59.437 16.0598 60.125 17.9724C60.6219 19.273 60.8895 19.273 61.8069 18.2019C64.3679 15.2182 66.8907 12.1962 69.7576 9.55676C73.58 6.03749 78.2434 5.11942 83.289 6.49653C87.3791 7.60586 88.8316 10.7426 86.3852 14.1471C84.6269 16.5953 82.2188 18.6992 79.7342 20.3823C75.6059 23.1366 71.1719 25.47 66.8525 27.9182C65.8205 28.492 65.5529 28.951 66.1262 30.1751C70.178 38.5908 72.3568 47.5802 73.6947 56.7609C73.924 58.444 73.7329 59.9742 71.7452 60.3567C69.7193 60.7392 68.8402 59.4004 68.4579 57.6407C67.3494 52.5148 66.3174 47.3507 65.056 42.263C64.5208 40.1591 63.5652 38.1317 62.3038 36.1808C62.0362 41.2685 61.6922 46.3179 61.4629 51.4055C61.0806 60.5862 60.8131 69.7669 60.3544 78.9476C60.2779 80.7455 60.7748 81.0898 62.3803 81.128C78.9314 81.3193 95.4444 81.5871 111.996 81.8549C130.229 82.1609 148.423 82.4669 166.657 82.8112C168.415 82.8494 170.173 82.9642 171.893 83.1937C173.575 83.4232 174.951 84.1883 174.76 86.1392C174.569 88.1283 173.078 88.5491 171.396 88.5109C150.946 88.0901 130.496 87.631 110.008 87.2868C101.828 87.1338 93.6096 87.4015 85.4296 87.2868C77.7083 87.172 70.0251 86.866 62.3038 86.5217C60.2779 86.4069 59.6281 87.019 59.5899 89.0082C59.3988 99.0304 59.1694 109.053 58.8254 119.075C58.3667 132.54 57.8315 145.967 57.2964 159.432C57.22 161.115 56.5319 162.301 54.6971 162.339C53.0917 162.377 51.9832 161.077 52.0597 158.973C52.3654 150.901 52.7859 142.868 53.0917 134.797C53.2828 129.824 53.3593 124.851 53.474 119.878C53.7415 109.512 53.9326 99.1452 54.2767 88.7404C54.3531 86.9425 54.0473 86.2922 52.0979 86.2539C36.5405 86.1774 20.9832 85.9862 5.42581 85.8332C4.58488 85.8332 3.59104 86.0244 2.94122 85.6419C2.10029 85.1446 0.991772 84.1883 0.953548 83.3467C0.915324 82.5434 1.83272 81.3958 2.63543 80.8603C3.28525 80.4012 4.39374 80.516 5.27291 80.516C20.9832 80.6308 36.6552 80.7455 52.3654 80.975C54.3149 81.0133 55.0029 80.5542 55.0794 78.4886C55.5381 65.4061 56.1497 52.2853 56.723 39.2028C56.7995 37.6344 56.9142 36.0278 57.0288 34.4594ZM56.3026 23.1748C54.9265 19.7703 54.0091 16.7866 52.5948 14.0706C51.2952 11.6224 49.4986 9.442 47.855 7.18508C47.2816 6.45827 46.3642 6.03749 46.0966 7.45285C45.5615 10.2071 44.797 13.229 46.7847 15.5625C49.1928 18.3549 52.0979 20.7266 54.8118 23.2131C55.0412 23.4043 55.5381 23.2131 56.3026 23.1748ZM65.5147 21.5682C65.744 21.836 65.9734 22.1037 66.2027 22.4097C70.7132 19.6173 75.2237 16.8248 79.7342 14.0324C80.1929 13.7263 80.5369 13.2673 80.9191 12.8465C81.5689 12.1197 81.5307 11.7372 80.4604 11.5077C78.0141 11.0104 75.7206 11.6607 73.9623 13.1908C70.9808 15.792 68.305 18.7375 65.5147 21.5682Z" fill="#064A42"/>
<path d="M85.7736 67.4717C81.0338 67.4717 81.0338 74.8546 85.7736 74.8546C90.5135 74.8546 90.5135 67.4717 85.7736 67.4717Z" fill="white"/>
<path d="M35.0497 134.529C30.3099 134.529 30.3099 141.912 35.0497 141.912C39.7895 141.912 39.7895 134.529 35.0497 134.529Z" fill="white"/>
<path d="M75.6059 123.436C70.8661 123.436 70.8661 130.819 75.6059 130.819C80.3458 130.819 80.384 123.436 75.6059 123.436Z" fill="white"/>
<path d="M38.1076 97.309C33.3678 97.309 33.3678 104.692 38.1076 104.692C42.8474 104.692 42.8474 97.309 38.1076 97.309Z" fill="white"/>
<path d="M98.9611 38.5525C94.2213 38.5525 94.2213 45.9353 98.9611 45.9353C103.739 45.9353 103.739 38.5525 98.9611 38.5525Z" fill="white"/>
<path d="M168.759 132.693C164.019 132.693 164.019 140.076 168.759 140.076C173.499 140.076 173.499 132.693 168.759 132.693Z" fill="white"/>
<path d="M154.922 53.9302C150.182 53.9302 150.182 61.313 154.922 61.313C159.661 61.313 159.661 53.9302 154.922 53.9302Z" fill="white"/>
<path d="M122.049 62.5371C117.309 62.5371 117.309 69.92 122.049 69.92C126.789 69.92 126.789 62.5371 122.049 62.5371Z" fill="white"/>
<path d="M173.078 110.545C173.231 110.545 173.346 110.506 173.499 110.506C173.575 108.096 173.652 105.648 173.728 103.238C173.537 103.2 173.308 103.162 173.078 103.162C168.3 103.162 168.3 110.545 173.078 110.545Z" fill="white"/>
<path d="M2.63538 43.8314C2.40603 46.2796 2.17669 48.7278 2.06201 51.1377C6.72541 51.1377 6.87831 44.3287 2.63538 43.8314Z" fill="white"/>
<path d="M145.098 32.6998C148.768 32.6998 149.57 28.3389 147.621 26.3115C145.939 26.3115 144.257 26.3115 142.575 26.3115C140.587 28.3389 141.428 32.6998 145.098 32.6998Z" fill="white"/>
<path d="M174.76 45.0938C174.76 42.6456 174.798 40.1591 174.798 37.7109C170.02 37.7492 170.02 45.0938 174.76 45.0938Z" fill="white"/>
<path d="M6.76369 143.442C5.46405 143.442 4.54665 144.016 3.93506 144.781C4.08796 146.464 4.16441 148.185 4.3173 149.869C4.89067 150.442 5.6934 150.787 6.76369 150.787C11.5035 150.825 11.5035 143.442 6.76369 143.442Z" fill="white"/>
<path d="M140.473 156.372C138.447 156.372 137.3 157.71 136.994 159.241C138.944 159.202 140.855 159.164 142.804 159.126C143.187 159.126 143.531 159.088 143.913 159.088C143.531 157.596 142.422 156.372 140.473 156.372Z" fill="white"/>
<path d="M21.5182 62.5371C16.7784 62.5371 16.7784 69.92 21.5182 69.92C26.2581 69.92 26.2581 62.5371 21.5182 62.5371Z" fill="white"/>
<path d="M73.7712 155.454C71.4013 155.454 70.2163 157.29 70.2163 159.088C72.5862 159.126 74.9561 159.126 77.326 159.164C77.3643 157.328 76.1793 155.454 73.7712 155.454Z" fill="white"/>
<path d="M18.4221 114.217C13.6822 114.217 13.6822 121.6 18.4221 121.6C23.2001 121.6 23.2001 114.217 18.4221 114.217Z" fill="white"/>
<path d="M32.8708 30.5576C28.131 30.5576 28.131 37.9404 32.8708 37.9404C37.6489 37.9404 37.6489 30.5576 32.8708 30.5576Z" fill="white"/>
<path d="M119.143 145.929C117.003 147.612 114.977 148.759 111.69 148.836C104.465 148.912 97.4702 146.005 94.6416 142.295C96.0941 138.699 96.8586 135.983 98.8845 132.387C100.643 132.387 103.815 132.77 105.344 133.458C105.039 137.398 104.962 140.152 104.58 142.677C106.568 143.978 111.422 144.284 112.645 144.054C114.633 141.223 115.703 137.589 115.933 132.693C116.162 129.174 115.092 125.234 113.486 124.163C110.275 124.086 106.491 125.769 104.656 126.611L104.121 120.758C106.338 119.611 108.746 118.922 110.963 117.774C112.416 116.321 113.716 112.84 113.716 110.468C113.716 107.025 113.639 104.692 112.416 102.32C111.04 101.249 108.326 101.402 105.803 102.014C105.574 105.074 105.344 107.637 104.886 111.386C103.433 111.845 101.446 112.304 99.8019 112.304C98.2729 109.014 97.5849 105.61 97.0497 100.867C103.127 97.5768 108.479 96.4675 111.499 96.4675C115.665 96.4675 118.723 96.544 121.322 98.8391C123.616 100.905 125.183 103.315 125.183 106.911C125.183 110.047 123.501 113.681 120.176 116.665C119.335 117.43 118.341 118.119 117.27 118.731C119.564 118.578 121.36 118.807 122.049 119.19C125.642 121.408 127.285 125.654 127.362 128.179C127.515 134.185 124.915 141.415 119.143 145.929Z" fill="#064A42"/>
</svg>
