<svg width="142" height="137" viewBox="0 0 142 137" fill="none" xmlns="http://www.w3.org/2000/svg">
<path d="M0.887821 128.772H0.773151H0.658478C0.620254 125.215 0.582031 121.619 0.582031 118.062C0.658479 118.062 0.77315 118.062 0.849598 118.062C0.811374 121.619 0.849597 125.177 0.887821 128.772Z" fill="white"/>
<path d="M0.887727 128.772C0.849503 125.215 0.849504 121.619 0.811279 118.062C0.887728 114.695 0.887728 111.367 1.0024 108.001C1.23175 101.039 1.4611 94.077 1.69044 87.115C1.76689 84.5903 1.88156 82.0274 2.03446 79.5027C2.07269 78.6229 2.18736 77.7813 2.30203 76.9397C2.64605 77.131 3.0283 77.3223 3.37232 77.5135C6.08625 78.6994 8.64729 78.5464 10.979 76.672C13.3489 74.7593 14.1898 72.1964 13.4253 69.2891C12.6991 66.4584 10.7879 64.6988 7.84458 64.0485C6.04803 63.666 4.4426 64.2398 2.79895 64.8136C2.8754 63.2834 2.95185 61.7151 3.0283 60.1849C4.36615 60.3762 5.74223 60.7205 7.08009 60.7587C11.0554 60.95 15.0308 61.0265 18.9679 61.256C24.7398 61.562 30.5499 61.9828 36.3218 62.3271C41.1381 62.6331 45.9544 62.9009 50.8089 63.2069C51.8792 63.2834 52.9877 63.4364 54.402 63.5512C53.8668 63.8572 53.6375 64.0485 53.3699 64.125C49.2799 65.8464 45.2663 67.7208 41.1381 69.2509C34.9839 71.5461 28.9445 74.4915 22.0641 74.0708C21.3378 74.0325 20.8027 74.4916 20.8027 75.1419C20.8027 75.6774 21.0702 76.3277 21.4525 76.7102C21.7583 77.0162 22.3699 77.1692 22.8668 77.131C24.9309 77.0162 27.0715 77.0545 29.0974 76.5955C34.831 75.3331 40.2971 73.3057 45.6868 70.9723C50.8089 68.7153 56.0074 66.6114 61.397 65.0813C61.8557 64.9666 62.3526 64.9283 63.0407 64.7753C63.0407 65.5403 63.0789 66.0759 63.0407 66.6497C62.8878 71.2783 62.7349 75.9069 62.582 80.5355C62.582 80.9945 62.582 81.4536 62.5438 81.9126C62.2762 86.5412 62.0469 91.1698 61.7793 95.7984C61.6646 97.7493 61.6264 99.662 61.5117 101.613C61.0148 108.613 60.6708 115.652 60.7854 122.69C60.8619 126.592 60.709 130.532 60.6325 134.472C53.2552 134.243 45.8779 134.013 38.5006 133.784C35.5955 133.707 32.6905 133.554 29.7854 133.554C22.5992 133.554 15.4512 133.019 8.3415 131.947C7.00364 131.756 5.62756 131.488 4.25148 131.374C2.5696 131.182 1.42287 130.379 0.887727 128.772ZM33.9137 115.04C33.9519 111.023 30.8557 107.81 26.8421 107.772C22.905 107.733 19.6177 110.947 19.5795 114.887C19.5413 118.712 22.7521 122.002 26.6128 122.078C30.6264 122.155 33.8754 119.018 33.9137 115.04Z" fill="#FAAD18"/>
<path d="M71.412 1.81094C77.031 2.00221 82.6882 2.19346 88.3072 2.42298C96.5254 2.76726 104.744 3.11154 112.962 3.45582C112.847 3.68533 112.771 3.91485 112.656 4.14436C111.318 7.2046 112.045 10.4944 114.491 12.6365C116.823 14.6639 120.378 14.8935 123.053 13.1721C125.652 11.4889 126.837 8.2757 125.997 5.13895C125.92 4.79468 125.882 4.4504 125.805 4.10612C128.29 4.22088 130.775 4.33564 133.259 4.48865C134.177 4.56516 135.132 4.6034 135.935 4.98593C137.273 5.63623 138.075 6.82208 138.19 8.39046C138.305 10.3031 138.572 12.254 138.649 14.1666C138.916 20.4401 139.107 26.6753 139.299 32.9488C138.84 32.7193 138.381 32.4898 137.923 32.2985C135.094 31.0362 132.418 31.4187 130.125 33.4461C127.869 35.4735 127.181 38.0747 128.099 40.9437C129.016 43.8509 131.119 45.4193 134.1 45.8783C136.202 46.1844 137.961 45.3428 139.681 44.2717C139.757 51.1955 139.796 58.1193 139.872 65.0431C136.623 64.8518 133.374 64.6605 130.125 64.4693C128.749 64.3928 127.373 64.278 126.035 64.2015C121.715 63.8572 117.434 63.4747 113.115 63.2069C108.91 62.9392 104.667 62.8244 100.463 62.6331C98.7425 62.5566 97.0224 62.4419 95.264 62.3271C89.9508 61.9828 84.5994 61.6386 79.2862 61.2943C77.3368 61.1795 75.3491 61.0647 73.0938 60.95C73.5908 60.7205 73.8201 60.5675 74.0877 60.491C75.7696 59.9554 77.4897 59.4199 79.1715 58.8843C84.9816 57.0865 90.5624 54.753 95.8756 51.8458C97.3664 51.0425 98.7807 50.1244 99.7363 48.6708C101.38 46.2226 100.348 43.2771 97.481 42.4738C96.7166 42.2443 95.8756 42.1295 95.0729 42.1295C91.7092 42.1295 88.5365 42.8946 85.4403 44.2334C80.2418 46.4904 75.7313 49.7801 71.5266 53.4907C69.9977 54.8295 68.5834 56.2449 66.9779 57.7368C66.9779 56.9334 66.9397 56.3214 66.9779 55.7476C67.169 53.5672 67.3602 51.3867 67.5513 49.2063C67.9335 44.5395 68.2776 39.8726 68.6216 35.2058C68.8127 32.6811 69.0038 30.1181 69.2332 27.5934C69.5772 23.2326 69.9212 18.8718 70.3034 14.5109C70.4563 12.7895 70.6092 11.0682 70.7239 9.34678C70.9915 6.86034 71.1826 4.33564 71.412 1.81094ZM88.0778 25.107C88.1161 29.0853 91.4034 32.2985 95.3023 32.222C99.2394 32.1455 102.45 28.8175 102.374 24.9157C102.297 21.0139 99.0482 17.8389 95.1876 17.8772C91.2887 17.8772 88.0778 21.1669 88.0778 25.107Z" fill="#FAAD18"/>
<path d="M64.9139 1.54314C65.9459 1.58139 67.0162 1.61965 68.0483 1.69616C68.0101 2.57598 68.0101 3.41754 67.9336 4.29736C67.6278 7.74012 67.2456 11.1829 66.9398 14.6257C66.6722 17.7241 66.5575 20.8226 66.2899 23.9211C65.8695 28.894 65.4108 33.8287 64.9903 38.8015C64.6463 42.9711 64.417 47.1024 64.0729 51.272C63.92 52.9934 63.6907 54.7148 63.4996 56.5127C63.232 56.3596 63.1173 56.3214 63.0791 56.2449C62.9262 56.0919 62.8115 55.9389 62.6586 55.7858C58.9891 51.4633 54.4021 48.4413 49.0889 46.4521C45.9928 45.3045 42.8584 44.1952 39.4564 44.463C37.5452 44.616 35.9015 45.3045 34.5254 46.6434C32.8435 48.25 32.9964 50.1244 34.793 51.6163C37.1247 53.5289 39.7622 55.0208 42.5908 56.0919C45.8399 57.3542 49.2036 58.3488 52.5291 59.4964C52.5291 59.6111 52.5291 59.7259 52.5291 59.8407C50.8855 59.8024 49.2801 59.8024 47.6364 59.6876C44.0433 59.4581 40.4502 59.1521 36.8571 58.9226C35.0988 58.8078 33.3022 58.7313 31.5439 58.6166C26.2307 58.3105 20.9175 57.928 15.5661 57.6602C12.5846 57.5072 9.56484 57.5072 6.58333 57.3542C5.36015 57.2777 4.17519 56.8952 2.99023 57.4307C3.10491 53.4142 3.21958 49.3976 3.33426 45.381C3.4107 42.7416 3.52538 40.1021 3.64005 37.4627C3.8694 33.4844 4.09874 29.5443 4.32809 25.566C4.44276 23.5003 4.51921 21.3964 4.63389 19.3308C4.74856 16.9591 4.90146 14.5491 5.01613 12.1775C5.36015 12.3687 5.7424 12.4835 6.04819 12.713C9.0297 14.7022 12.7757 14.3579 15.2221 11.8714C17.592 9.49975 17.8978 5.67446 15.9866 2.76724C15.719 2.34645 15.5279 1.84916 15.2985 1.35187C27.1099 1.35187 38.9595 1.31363 50.7708 1.31363C50.7326 1.61965 50.7326 1.92566 50.6561 2.23169C50.121 5.21542 51.0766 7.70187 53.523 9.46151C55.8929 11.1829 58.4922 11.3359 61.015 9.95879C63.6525 8.54343 64.9521 6.21 64.8374 3.14977C64.9521 2.57597 64.9521 2.07868 64.9139 1.54314ZM34.9841 29.6208C34.9841 25.6425 31.7733 22.4675 27.7979 22.4675C23.8226 22.5058 20.6117 25.7955 20.6499 29.6973C20.7264 33.5991 24.0901 36.8506 27.9508 36.8124C31.8497 36.7359 34.9841 33.5226 34.9841 29.6208Z" fill="#FAAD18"/>
<path d="M139.681 44.2717C137.961 45.3428 136.241 46.1843 134.1 45.8783C131.119 45.4193 129.016 43.8509 128.099 40.9437C127.182 38.0747 127.87 35.4735 130.125 33.4461C132.418 31.4187 135.094 31.0362 137.923 32.2985C138.381 32.4898 138.84 32.7193 139.299 32.9488C139.452 36.7359 139.566 40.5229 139.681 44.2717Z" fill="#A82E12"/>
<path d="M2.79916 64.737C4.44282 64.1632 6.04824 63.5894 7.84479 63.972C10.7881 64.6223 12.6993 66.3819 13.4256 69.2126C14.1518 72.1199 13.3491 74.6828 10.9792 76.5955C8.64751 78.4699 6.04824 78.6229 3.37253 77.437C2.99028 77.284 2.64627 77.0545 2.30225 76.8633C2.3787 74.0325 2.45514 71.1635 2.56982 68.3328C2.56982 67.1852 2.72271 65.9611 2.79916 64.737Z" fill="#A82E12"/>
<path d="M125.844 4.10611C125.92 4.45039 125.958 4.79467 126.035 5.13894C126.876 8.31393 125.691 11.5272 123.091 13.172C120.416 14.8934 116.861 14.6639 114.529 12.6365C112.044 10.4943 111.356 7.20458 112.694 4.14436C112.809 3.91484 112.885 3.68533 113 3.45581C115.179 3.60882 117.319 3.83834 119.498 3.91485C121.065 3.99135 122.671 3.91484 124.238 3.95309C124.735 3.99135 125.308 4.06786 125.844 4.10611Z" fill="#A82E12"/>
<path d="M15.4513 1.27539C15.6807 1.73443 15.8336 2.23172 16.1394 2.69075C18.0506 5.59797 17.7448 9.42325 15.3749 11.7949C12.9285 14.2814 9.14429 14.6256 6.201 12.6365C5.89521 12.407 5.51297 12.2922 5.16895 12.101C5.43652 9.95879 5.62764 7.81665 6.00988 5.71274C6.16278 4.83292 6.54503 3.95311 7.04194 3.2263C7.84466 1.96396 9.33541 2.11697 10.5968 1.88745C12.164 1.61968 13.8077 1.46666 15.4513 1.27539Z" fill="#A82E12"/>
<path d="M64.9139 1.54317C64.9521 2.04046 64.9521 2.53774 64.9903 3.07328C65.1432 6.13351 63.8054 8.42868 61.1679 9.88229C58.6451 11.2594 56.0458 11.1064 53.6759 9.38501C51.2295 7.58712 50.3121 5.13893 50.809 2.15521C50.8473 1.84918 50.8855 1.54318 50.9237 1.23715C55.4342 1.31366 59.9447 1.35191 64.4934 1.42842C64.6463 1.42842 64.761 1.50492 64.9139 1.54317Z" fill="#A82E12"/>
<path d="M132.457 67.6443C126.379 67.3 120.263 66.9175 114.185 66.5732C107.534 66.1906 100.883 65.8846 94.2321 65.5021C90.4861 65.3108 86.7018 65.1196 82.9558 64.89C80.8153 64.7753 78.7129 64.5458 76.5724 64.431C75.0816 64.3545 73.5909 64.431 71.9472 64.4693C72.3677 65.0048 72.6735 65.3491 72.941 65.6934C74.6229 67.8738 76.5341 69.9012 77.9867 72.2346C81.1975 77.3605 84.1026 82.6777 87.237 87.8801C89.5305 91.7054 91.8621 95.5689 95.0348 98.8204C96.1433 99.9298 97.3282 101.001 98.4368 102.11C99.163 102.837 99.2777 103.793 98.7808 104.444C98.2839 105.056 97.4047 105.209 96.5638 104.711C95.9904 104.367 95.4552 103.985 94.9583 103.526C92.5502 101.307 90.3714 98.8969 88.5366 96.181C84.3702 89.9457 80.5095 83.5192 76.9928 76.9015C75.0434 73.2674 72.7117 69.8247 69.7302 66.9175C68.851 66.0376 67.8572 65.2726 66.5958 64.8136C66.4811 65.9611 66.3282 66.9557 66.29 67.9503C66.1753 72.1964 66.0989 76.4042 65.9842 80.6503C65.9842 80.9563 65.9842 81.2623 65.9842 81.5683C65.6784 87.0002 65.3344 92.4322 65.0286 97.9024C64.7992 102.225 64.6463 106.548 64.4552 110.87C64.3788 113.051 64.2259 115.231 64.1876 117.45C64.073 123.149 63.9583 128.849 63.8818 134.587C67.8572 134.663 71.8325 134.816 75.8079 134.855C84.179 134.931 92.512 134.931 100.883 134.969C100.845 133.822 100.577 132.636 100.768 131.488C101.38 127.319 105.126 124.679 109.178 125.444C113.039 126.171 115.6 130.073 114.797 134.09C114.759 134.319 114.682 134.587 114.644 134.816C114.95 134.816 115.256 134.855 115.561 134.855C122.289 134.702 129.016 134.549 135.706 134.357C137.12 134.319 137.884 133.822 138.228 132.407C138.611 130.876 138.955 129.308 138.993 127.778C139.222 121.925 139.375 116.072 139.49 110.22C139.643 104.597 139.757 99.0117 139.834 93.3885C139.91 84.9728 139.949 76.5572 140.025 68.1798C137.426 67.9503 134.941 67.7973 132.457 67.6443ZM76.6106 112.132C72.6352 112.171 69.3479 108.957 69.3479 105.017C69.3479 101.116 72.4823 97.9023 76.3812 97.8258C80.3566 97.7493 83.6057 100.886 83.6821 104.864C83.7203 108.843 80.5477 112.094 76.6106 112.132ZM126.57 100.542C122.709 100.542 119.46 97.3286 119.384 93.465C119.307 89.5632 122.595 86.1969 126.494 86.1587C130.431 86.1587 133.68 89.3719 133.718 93.312C133.756 97.2521 130.507 100.542 126.57 100.542Z" fill="#FAAD18"/>
<path d="M133.718 93.312C133.756 97.252 130.507 100.504 126.57 100.542C122.709 100.542 119.46 97.3286 119.384 93.465C119.307 89.5632 122.594 86.1969 126.493 86.1587C130.469 86.1587 133.718 89.3719 133.718 93.312Z" fill="#FAAD18"/>
<path d="M83.6437 104.864C83.682 108.843 80.5475 112.094 76.5722 112.171C72.5969 112.209 69.3096 108.996 69.3096 105.056C69.3096 101.154 72.444 97.9406 76.3429 97.8641C80.3564 97.7111 83.6055 100.886 83.6437 104.864Z" fill="#FAAD18"/>
<path d="M100.768 134.931C100.73 133.784 100.462 132.598 100.654 131.45C101.265 127.281 105.011 124.641 109.063 125.406C112.962 126.133 115.485 130.035 114.682 134.051C114.644 134.281 114.567 134.549 114.529 134.778C109.904 134.855 105.317 134.893 100.768 134.931Z" fill="#A82E12"/>
<path d="M33.9138 115.04C33.8756 119.018 30.6265 122.155 26.613 122.078C22.7523 122.002 19.5415 118.712 19.5797 114.887C19.6179 110.947 22.9052 107.733 26.8423 107.772C30.8559 107.772 33.9903 111.023 33.9138 115.04Z" fill="#A82E12"/>
<path d="M88.078 25.107C88.0398 21.167 91.2506 17.8772 95.1877 17.8772C99.0484 17.839 102.297 21.0522 102.374 24.9157C102.45 28.8558 99.2395 32.1838 95.3024 32.2221C91.4035 32.2986 88.1162 29.0853 88.078 25.107Z" fill="#A82E12"/>
<path d="M34.9842 29.6208C34.9842 33.5226 31.8498 36.7359 27.9509 36.8124C24.052 36.8889 20.6882 33.6374 20.65 29.6973C20.5736 25.7573 23.8226 22.5058 27.798 22.4675C31.7733 22.4675 34.9842 25.6425 34.9842 29.6208Z" fill="#A82E12"/>
<path d="M52.6437 59.4964C53.1788 59.6111 53.714 59.6876 54.2491 59.8024C54.2491 59.8789 54.2109 59.9554 54.2109 60.032C53.6757 59.9554 53.1406 59.9172 52.6055 59.8407C52.6055 59.7259 52.6055 59.6111 52.6437 59.4964Z" fill="#572D21"/>
<path d="M72.2146 57.2012C72.9791 56.5509 73.7054 55.8623 74.4699 55.2503C78.5216 51.9223 82.841 48.9386 87.772 47.0259C90.1419 46.1079 92.6265 45.4958 95.1875 45.5723C95.8373 45.6106 96.4871 45.8401 97.2134 45.9548C96.9841 47.1789 96.296 47.7145 95.5315 48.097C92.55 49.6271 89.645 51.3485 86.5488 52.5726C82.1912 54.3322 77.6807 55.7476 73.2084 57.2777C72.9409 57.3542 72.6351 57.3542 72.3293 57.3925C72.3293 57.316 72.2528 57.2394 72.2146 57.2012Z" fill="#FAAD18"/>
<path d="M59.9828 57.5072C58.3391 57.2012 56.6955 56.9717 55.09 56.5891C49.9297 55.3651 44.9223 53.7584 40.2589 51.1572C39.1887 50.5834 38.2331 49.8949 37.0481 49.1298C38.2331 47.9057 39.5709 47.5615 40.8705 47.7145C46.3366 48.4413 51.4205 50.3922 55.8927 53.6437C57.3453 54.7913 58.6067 56.2449 59.9828 57.5072Z" fill="#FAAD18"/>
<path d="M59.9446 57.5072C59.9828 57.5072 60.0593 57.5454 60.0975 57.5454C60.0975 57.5454 60.0975 57.622 60.0975 57.6602C60.0593 57.622 60.021 57.5454 59.9446 57.5072Z" fill="#572D21"/>
<path d="M3.06666 57.3925C4.25162 56.8569 5.4748 57.2777 6.65976 57.316C9.64127 57.469 12.661 57.469 15.6425 57.622C20.9557 57.8897 26.2689 58.2723 31.6203 58.5783C33.3787 58.6931 35.1752 58.7696 36.9335 58.8843C40.5266 59.1139 44.1197 59.4199 47.7128 59.6494C49.3183 59.7642 50.9619 59.7641 52.6056 59.8024C53.1407 59.8789 53.6758 59.9172 54.211 59.9937C54.211 59.9172 54.2492 59.8407 54.2492 59.7641C53.7141 59.6494 53.1789 59.5729 52.6438 59.4581C49.3183 58.3488 45.9545 57.316 42.7054 56.0536C39.9151 54.9825 37.2776 53.5289 34.9076 51.578C33.1111 50.0861 32.9582 48.2117 34.6401 46.6051C35.9779 45.2663 37.6598 44.5777 39.571 44.4247C42.973 44.1569 46.0692 45.2663 49.2036 46.4139C54.5168 48.403 59.0655 51.425 62.7733 55.7476C62.888 55.9006 63.0409 56.0536 63.1937 56.2066C63.2702 56.2831 63.3466 56.3214 63.6142 56.4744C63.8053 54.6765 64.0347 52.9551 64.1876 51.2337C64.4934 47.0642 64.761 42.8946 65.105 38.7633C65.5254 33.7904 65.9841 28.8558 66.4046 23.8829C66.6722 20.7844 66.7868 17.6859 67.0544 14.5874C67.3602 11.1446 67.7425 7.70186 68.0482 4.25909C68.1247 3.41752 68.1247 2.53771 68.1629 1.65789C69.5008 0.0130157 70.3035 0.0512641 71.4884 1.77265C71.2591 4.29734 71.068 6.82205 70.8386 9.385C70.6857 11.1064 70.5328 12.8278 70.4182 14.5491C70.0742 18.91 69.7301 23.2708 69.3479 27.6317C69.1568 30.1564 68.9274 32.7193 68.7363 35.244C68.3923 39.9108 68.01 44.5777 67.666 49.2446C67.4749 51.425 67.2838 53.6054 67.0926 55.7858C67.0544 56.3979 67.0926 56.9717 67.0926 57.775C68.6981 56.2831 70.1124 54.8678 71.6413 53.5289C75.846 49.8184 80.3948 46.5286 85.5551 44.2717C88.613 42.9328 91.8239 42.1295 95.1876 42.1678C95.9903 42.1678 96.8313 42.2825 97.5958 42.512C100.463 43.3154 101.495 46.2226 99.851 48.709C98.8954 50.1626 97.4811 51.0807 95.9903 51.884C90.6389 54.7913 85.0964 57.1247 79.2862 58.9226C77.6044 59.4581 75.8843 59.9937 74.2024 60.5292C73.9348 60.6057 73.7055 60.7587 73.2085 60.9883C75.4638 61.103 77.4132 61.2178 79.4009 61.3325C84.7141 61.6768 90.0655 62.0211 95.3787 62.3653C97.0988 62.4801 98.8189 62.5566 100.577 62.6714C104.782 62.8626 109.025 62.9774 113.23 63.2452C117.549 63.5129 121.83 63.8955 126.149 64.2397C127.526 64.3545 128.902 64.431 130.239 64.5075C133.489 64.6988 136.738 64.89 139.987 65.0813C140.369 65.3108 140.751 65.5403 141.133 65.7316C141.554 66.8792 140.981 67.606 140.025 68.1415C137.54 67.9885 135.056 67.7973 132.571 67.6442C126.493 67.3 120.378 66.9174 114.3 66.5732C107.649 66.1906 100.998 65.8846 94.3467 65.5021C90.6007 65.3108 86.8165 65.1196 83.0705 64.89C80.9299 64.7753 78.8276 64.5458 76.687 64.431C75.1962 64.3545 73.7055 64.431 72.0618 64.4693C72.4823 65.0048 72.7881 65.3491 73.0557 65.7316C74.7375 67.912 76.6488 69.9394 78.1013 72.2346C81.3121 77.3605 84.2172 82.6777 87.3516 87.8801C89.6451 91.7053 91.9768 95.5689 95.1494 98.8204C96.2579 99.9298 97.4429 101.001 98.5514 102.11C99.2776 102.837 99.3923 103.793 98.8954 104.444C98.3985 105.056 97.5193 105.209 96.6784 104.711C96.105 104.367 95.5699 103.985 95.073 103.526C92.6648 101.307 90.486 98.8969 88.6512 96.1427C84.4848 89.9075 80.6241 83.481 77.1075 76.9015C75.158 73.2292 72.8263 69.8247 69.8448 66.9175C68.9656 66.0376 67.9718 65.2726 66.6722 64.8135C66.5575 65.9611 66.4046 66.9557 66.3664 67.9885C66.2517 72.2346 66.1753 76.4424 66.0606 80.6885C66.0606 80.9945 66.0606 81.3006 66.0606 81.6066C65.7548 87.0385 65.4108 92.4704 65.105 97.9024C64.8756 102.225 64.7227 106.548 64.5316 110.87C64.4169 113.051 64.3023 115.231 64.264 117.45C64.1494 123.149 64.0347 128.849 63.92 134.587C63.8818 134.893 63.9582 135.275 63.7671 135.467C63.3849 135.849 62.9262 136.385 62.4293 136.423C62.047 136.461 61.5119 135.964 61.2061 135.582C60.9767 135.314 60.9385 134.855 60.8238 134.472C60.8621 130.532 61.0532 126.63 60.9767 122.69C60.862 115.652 61.2061 108.651 61.703 101.613C61.8559 99.7002 61.8941 97.7493 61.9706 95.7984C62.2381 91.1698 62.4675 86.5412 62.7351 81.9126C62.7733 81.4536 62.7351 80.9945 62.7733 80.5355C62.9262 75.9069 63.0791 71.2783 63.232 66.6497C63.232 66.1141 63.232 65.5786 63.232 64.7753C62.5439 64.89 62.047 64.9283 61.5883 65.0813C56.1987 66.5732 51.0001 68.7153 45.8781 70.9723C40.5266 73.3057 35.0223 75.3331 29.2886 76.5955C27.2627 77.0545 25.1604 77.0162 23.0581 77.131C22.5994 77.1692 21.9495 77.0162 21.6438 76.7102C21.2615 76.3277 20.9939 75.6774 20.9939 75.1418C20.9939 74.4915 21.5291 74.0325 22.2553 74.0707C29.1357 74.4533 35.1752 71.5461 41.3294 69.2509C45.4576 67.6825 49.5094 65.8464 53.5612 64.125C53.8288 64.0102 54.0581 63.8572 54.5932 63.5512C53.1789 63.3982 52.0704 63.2834 51.0001 63.2069C46.1839 62.9009 41.3676 62.6331 36.5131 62.3271C30.7412 61.9828 24.9311 61.562 19.1592 61.256C15.1838 61.0265 11.2085 60.9882 7.27135 60.7587C5.89527 60.6822 4.55741 60.3762 3.21956 60.1849C2.3404 59.1903 2.45507 58.3105 3.06666 57.3925ZM59.9829 57.5072C60.0211 57.5455 60.0593 57.622 60.0976 57.6602C60.0976 57.622 60.0976 57.5837 60.0976 57.5455C60.0593 57.5455 59.9829 57.5455 59.9829 57.5072C58.6068 56.2449 57.3836 54.7913 55.8546 53.7202C51.3824 50.4687 46.3368 48.5178 40.8324 47.791C39.5328 47.5997 38.1567 47.9822 37.01 49.2063C38.1567 49.9331 39.1506 50.6217 40.2208 51.2337C44.8842 53.8349 49.8916 55.4416 55.0519 56.6656C56.6574 56.9717 58.3392 57.2012 59.9829 57.5072ZM72.2147 57.2012C72.2529 57.2777 72.2912 57.3542 72.3294 57.3925C72.6352 57.3542 72.941 57.3542 73.2085 57.2777C77.6808 55.7476 82.1913 54.3322 86.5489 52.5726C89.6451 51.3102 92.5501 49.6271 95.5316 48.097C96.2579 47.7145 96.9842 47.1789 97.2135 45.9548C96.4873 45.8018 95.8374 45.5723 95.1876 45.5723C92.5884 45.4575 90.142 46.0696 87.7721 47.0259C82.8411 48.9768 78.56 51.9223 74.47 55.2503C73.7055 55.8624 72.9792 56.5509 72.2147 57.2012Z" fill="white" fill-opacity="0.8"/>
<path d="M119.384 111.597C117.625 111.597 115.867 111.52 114.07 111.52L114.758 120.816C114.376 121.428 108.757 122.575 106.387 122.652C105.241 122.728 103.1 122.116 102.718 121.428C103.253 118.291 103.788 114.734 104.4 111.291C97.481 111.214 90.2565 111.214 82.8792 111.444C81.7325 109.914 81.1209 107.58 81.0444 106.05C88.0395 95.3776 94.0408 82.1421 96.4107 70.5132C98.5512 70.0542 101.112 69.9012 103.023 70.3602C104.323 70.8958 106.387 72.4259 107.19 73.65C106.12 81.7979 97.2898 97.0225 89.6832 107.007C93.8496 106.471 99.354 105.782 104.82 105.323L103.979 91.7054C104.973 91.3993 107.649 89.8692 109.827 89.1807C110.821 89.4867 114.758 90.3283 115.752 91.2463L114.223 104.635C116.364 104.558 118.39 104.482 120.148 104.558C120.76 106.127 119.995 109.684 119.384 111.597Z" fill="#A82E12"/>
</svg>
