<svg width="141" height="142" viewBox="0 0 141 142" fill="none" xmlns="http://www.w3.org/2000/svg">
<path d="M139.891 71.5184C139.929 90.3006 139.776 109.083 139.776 127.865C139.776 130.045 139.776 132.302 138.897 134.291C136.871 138.997 130.679 138.767 126.398 139.111C120.091 139.647 113.784 139.991 107.476 140.259C94.8624 140.794 82.2101 140.909 69.596 141.024C50.2545 141.253 30.9129 142.363 11.5713 141.713C5.87586 141.521 3.84995 139.991 3.23835 134.406C1.25068 116.886 0.600876 99.2517 0.71555 81.6171C0.830223 65.0919 0.67733 47.9163 3.27659 31.5823C3.69706 28.9811 5.7994 28.063 8.28399 28.0248C48.7637 27.4892 89.7403 27.0302 130.411 26.3034C136.909 26.1886 139.241 28.4073 139.394 34.9103C139.738 47.1512 139.853 59.3157 139.891 71.5184Z" fill="white" fill-opacity="0.8"/>
<path d="M52.0891 55.7199C48.8018 56.791 45.9732 59.3922 44.1002 62.2229C42.1126 65.2831 46.5084 68.9554 48.5342 65.8569C49.7574 64.0208 51.3629 62.1081 53.5034 61.2666C55.3382 60.5398 57.1348 62.1846 58.702 63.0645C61.9128 64.8241 64.2445 59.5834 61.0336 57.8238C58.0904 56.2554 55.4911 54.6106 52.0891 55.7199Z" fill="#A82E12"/>
<path d="M65.7356 108.624C63.0599 111.148 67.1117 115.203 69.7874 112.678C73.3041 109.35 74.145 103.804 71.7368 99.5577C69.0994 94.9291 63.7862 93.2842 58.7788 94.011C55.1474 94.5466 56.6764 100.055 60.3077 99.5195C65.3916 98.8309 70.0167 104.569 65.7356 108.624Z" fill="#A82E12"/>
<path d="M90.9255 51.5121C90.3139 52.4301 89.9698 53.6925 89.32 54.534C88.3262 55.7964 87.1795 55.6051 85.7269 54.9931C82.8219 53.7307 82.7072 50.6705 81.0253 48.3753C78.8847 45.4298 73.9156 48.2606 76.0944 51.2825C77.5469 53.2717 77.9674 55.7199 79.6492 57.5943C81.2547 59.3539 83.4717 60.578 85.8034 60.9988C87.9822 61.4196 90.3139 61.3048 92.1869 59.966C94.0981 58.5889 94.6714 56.2937 95.9328 54.4193C97.8823 51.2825 92.9513 48.4136 90.9255 51.5121Z" fill="#A82E12"/>
<path d="M22.0449 94.3171C21.3186 96.574 19.675 97.9894 17.6108 98.9839C16.3112 99.596 14.1324 100.705 12.6034 100.629C8.97209 100.399 7.82537 106.022 11.4949 106.252C18.4518 106.711 25.5615 102.006 27.6639 95.4265C28.7724 91.9072 23.1534 90.8361 22.0449 94.3171Z" fill="#A82E12"/>
<path d="M123.034 42.7139C122.614 45.8506 122.117 50.2497 118.715 51.5886C115.313 52.9657 116.995 58.4359 120.435 57.0588C126.016 54.8019 127.889 49.4847 128.653 43.8997C129.112 40.304 123.531 39.0416 123.034 42.7139Z" fill="#A82E12"/>
<path d="M104.686 35.4076C106.559 38.5826 111.49 35.7136 109.617 32.5004C108.509 30.626 108.203 28.6751 108.47 26.6859C106.521 26.7242 104.61 26.7624 102.66 26.7624C102.469 29.7844 103.157 32.7681 104.686 35.4076Z" fill="#A82E12"/>
<path d="M68.6789 38.7738C70.8577 35.2545 71.3546 31.2763 71.4311 27.2597C69.5199 27.298 67.6469 27.298 65.7357 27.3362C65.6974 30.3199 65.3534 33.2654 63.748 35.9048C61.7986 39.0416 66.7295 41.9105 68.6789 38.7738Z" fill="#A82E12"/>
<path d="M123.263 127.712C121.314 124.575 116.383 127.444 118.332 130.619C119.823 133.029 119.594 135.975 117.644 138.04C117.109 138.614 116.918 139.226 116.88 139.838C119.135 139.685 121.39 139.532 123.607 139.379C125.48 135.745 125.48 131.308 123.263 127.712Z" fill="#A82E12"/>
<path d="M128.118 102.924C127.315 106.52 132.819 108.05 133.622 104.454C134.004 102.694 137.33 100.858 139.088 101.241C139.356 101.317 139.585 101.241 139.814 101.241C139.814 99.3665 139.814 97.4921 139.814 95.6177C135.189 95.0439 129.188 98.2189 128.118 102.924Z" fill="#A82E12"/>
<path d="M31.7923 33.8392C31.6394 30.9703 33.436 28.5603 36.4175 28.4455C37.1819 28.4073 37.7553 28.1013 38.214 27.6805C34.6591 27.7187 31.1425 27.757 27.5876 27.8335C26.5173 29.5549 25.944 31.6206 26.0586 33.8392C26.2498 37.5116 31.9834 37.5116 31.7923 33.8392Z" fill="#A82E12"/>
<path d="M26.7467 139.647C23.8034 136.242 24.1092 131.652 27.2054 128.515C29.8046 125.876 25.7529 121.821 23.1536 124.46C18.2991 129.395 17.8022 136.395 21.3953 141.942C23.4212 141.942 25.4088 141.98 27.4347 141.942C27.5494 141.177 27.3965 140.374 26.7467 139.647Z" fill="#A82E12"/>
<path d="M18.3754 55.1461C21.548 53.2717 18.6812 48.2988 15.4703 50.2115C13.3297 51.4738 10.9981 52.8892 8.43703 52.8509C6.64049 52.8127 2.51223 51.8946 1.32728 50.2497C1.2126 52.4302 1.09793 54.6106 1.02148 56.791C2.77981 57.5943 4.72926 58.0916 6.44936 58.3594C10.8452 59.0862 14.7441 57.3265 18.3754 55.1461Z" fill="#A82E12"/>
<path d="M47.0807 38.6208C47.0807 41.9871 47.1572 45.3534 47.0807 48.6814C46.9278 55.4904 46.7367 62.2994 46.4691 69.1084C46.3927 71.0976 46.8131 71.9009 49.1066 71.8244C77.5838 71.1741 106.099 70.6003 134.577 70.0265C134.768 70.0265 134.921 70.0265 135.112 70.0265C138.59 70.0648 140.501 71.3271 140.578 73.5458C140.654 75.841 138.934 76.912 135.226 76.9503C112.98 77.2181 90.7713 77.4476 68.5247 77.7919C61.7972 77.9066 55.1079 78.4804 48.3804 78.7099C46.7367 78.7864 46.2015 79.475 46.2398 81.0051C46.3162 85.7485 46.4309 90.5301 46.3545 95.2735C46.2016 108.279 45.9722 121.285 45.7811 134.291C45.7811 134.904 45.7046 135.554 45.6282 136.166C45.3988 138.308 44.4432 139.8 42.0733 139.723C39.6652 139.609 38.9007 137.849 38.9007 135.822C38.8625 131.231 38.9389 126.679 38.9771 122.089C39.0918 108.471 39.2065 94.8144 39.3976 81.1964C39.4358 78.7099 37.7922 79.322 36.4543 79.3985C26.4395 80.087 16.4247 80.8139 6.40989 81.5024C5.7983 81.5407 5.14847 81.5789 4.53688 81.5789C2.35809 81.5789 0.790885 80.5843 0.714436 78.3274C0.599762 76.0322 2.09053 74.9994 4.30755 74.8081C14.3224 74.1196 24.3372 73.3545 34.352 72.7042C40.7355 72.2834 39.4741 72.7807 39.6652 67.387C39.971 57.9003 40.2003 48.3753 40.4679 38.8886C40.4679 38.3913 40.3914 37.8558 40.3532 37.3585C40.0856 37.2437 39.8563 37.1672 39.5887 37.0525C37.5628 41.1455 35.4987 45.2386 33.4728 49.3317C33.0906 50.135 32.8994 51.0531 32.479 51.8181C31.5998 53.5395 29.9944 54.6488 28.3125 53.616C27.2422 52.9657 26.2866 51.0913 26.2866 49.7907C26.2866 48.1076 27.0893 46.2714 27.892 44.7413C30.3002 40.151 32.823 35.5988 35.4987 31.1232C36.5308 29.4401 36.3779 28.9046 34.6195 27.757C29.5739 24.3907 24.643 20.8332 20.0178 16.9314C18.0301 15.2865 16.7305 12.6853 15.4309 10.3901C14.093 8.05671 13.9401 5.57027 15.7749 3.31334C17.495 1.17118 19.8649 0.8269 22.3495 1.40069C31.1029 3.31334 37.9833 8.01847 42.7614 15.5926C44.0228 17.5817 44.3668 17.2374 45.7429 15.6691C49.5653 11.423 53.5789 7.32992 57.7454 3.42812C60.7651 0.597401 64.5493 0.406136 68.3717 1.51547C72.844 2.81607 74.8699 6.87089 72.3471 10.6962C70.1301 14.0624 67.1103 17.0462 64.0142 19.6856C60.5357 22.6311 56.6368 25.0793 52.8526 27.604C51.7441 28.3308 51.6677 28.8281 52.1264 30.1287C53.9994 35.4458 55.7194 40.8012 57.1337 46.2332C57.4013 47.266 56.2546 49.5229 55.3372 49.7907C54.1905 50.135 52.0117 49.4464 51.2854 48.4518C50.1387 46.8835 49.7182 44.7031 49.1066 42.7522C48.6479 41.3368 48.3039 39.8832 47.9217 38.4678C47.6541 38.5826 47.3483 38.6208 47.0807 38.6208ZM22.1966 8.59227C26.3248 15.057 31.9056 18.4615 37.8304 21.4835C34.6578 15.0953 29.8797 10.6962 22.1966 8.59227ZM50.7885 19.4561C51.0178 19.7239 51.2472 19.9917 51.4765 20.2594C54.3816 18.1938 57.3631 16.2429 60.1535 14.0624C61.9118 12.7236 63.479 11.0787 65.0462 9.51033C65.352 9.2043 65.3138 8.59226 65.4667 8.13323C65.0462 8.05672 64.5875 7.82719 64.2053 7.9037C63.5172 8.05671 62.7528 8.24799 62.2558 8.70702C58.3952 12.2263 54.6109 15.8603 50.7885 19.4561Z" fill="#A82E12"/>
<path d="M112.063 112.373C112.063 119.602 109.923 125.072 107.362 128.745C104.839 132.417 100.52 135.822 96.3914 135.822C88.4024 135.822 81.9425 131.805 80.49 129.28C81.3309 126.679 82.707 122.892 84.58 119.679C86.109 119.602 89.511 119.908 91.1164 120.52C91.1164 123.504 90.6577 127.444 90.4283 129.816C91.4222 130.734 95.7415 131.346 97.1176 131.116C99.3346 128.515 100.787 124.116 100.787 117.804C100.711 112.793 99.4111 109.81 97.7292 109.733C93.9832 110.651 88.2878 112.946 85.8796 114.591C85.3445 114.591 84.5035 113.138 84.2742 112.832L85.4974 89.153C86.3383 86.8578 87.5615 85.2129 89.511 83.9123C91.8044 83.7593 94.9006 83.7593 97.4234 83.7593C101.896 83.7593 103.501 83.9123 107.476 83.9123H110.687C110.84 87.0491 110.152 91.2952 109.235 94.8144C104.38 94.9675 97.0794 93.6668 91.2693 92.3662L89.8167 108.203C93.9068 105.602 99.9462 102.121 101.437 102.121C102.737 102.121 104.113 102.274 105.298 102.886C109.158 104.837 112.063 109.427 112.063 112.373Z" fill="#A82E12"/>
</svg>
