<?xml version="1.0" encoding="utf-8"?>
<!-- Generator: Adobe Illustrator 25.0.1, SVG Export Plug-In . SVG Version: 6.00 Build 0)  -->
<svg version="1.1" id="Layer_1" xmlns="http://www.w3.org/2000/svg" xmlns:xlink="http://www.w3.org/1999/xlink" x="0px" y="0px"
	 viewBox="0 0 146 199" style="enable-background:new 0 0 146 199;" xml:space="preserve">
<style type="text/css">
	.st0{fill:#FFFFFF;}
	.st1{fill:#A82F13;}
	.st2{fill:#FFFFFF;fill-opacity:0.8;}
</style>
<path class="st0" d="M3.5,10.3c-0.1-0.1-0.3-0.2-0.4-0.3c0.5-0.7,1-1.5,1.5-2.2C4.7,7.9,4.8,8,5,8.1C4.5,8.9,4,9.6,3.5,10.3z"/>
<path class="st0" d="M141.2,193.5c-0.2-0.1-0.3-0.2-0.5-0.3c0.4-0.6,0.8-1.1,1.2-1.7c0.2,0.1,0.3,0.2,0.5,0.3
	C142,192.3,141.6,192.9,141.2,193.5z"/>
<path class="st0" d="M8.5,196.8c-0.1,0.2-0.2,0.3-0.3,0.4c-0.6-0.4-1.2-0.8-1.8-1.2c0.1-0.2,0.2-0.3,0.3-0.5
	C7.4,195.9,7.9,196.3,8.5,196.8z"/>
<path class="st1" d="M145.6,120.1c-0.9-0.2-1.9-0.3-3.2-0.5c-0.1-1.6-0.2-3.1-0.3-4.5c-4.1-0.8-7.6,0.7-11.4-0.6
	c1.6-3,3.2-5.8,4.8-8.8c-1.5,0-3,0-5.1-0.1c2.4-3.1,4.4-5.7,6.5-8.4c-1.4-0.2-2.6-0.4-4.3-0.7c1.9-2.8,3.4-5.1,5.2-7.7
	c-1.6-0.3-2.9-0.6-4.4-1c2.6-4.1,4.7-8,8.4-10.6c0.9,0.7,1.6,1.2,2.4,1.8c-0.3-9-0.6-18-1-27c-0.5-10.4-1.2-20.8-1.8-31.3
	c-1.1-0.4-1.7,0-1.7,1.2c0,1.1,0.1,2.1,0.1,3.1c-3.9,2.3-4.4,2-5.6-3.7c-3.4-0.7-7.1,0.8-10.8-0.5c1.6-3,3.2-5.8,4.8-8.7
	c-1.6,0-3,0-5.1-0.1c2.4-3.1,4.4-5.7,6.5-8.4c-1.4-0.2-2.6-0.4-4.1-0.7c0.6-1,1-1.6,1.3-2.2c-1-0.1-2.1-0.4-3.1-0.4
	c-7.1,0.1-14.2,0.2-21.3,0.4c-1.6,0-3.3,0.3-5,0.4C98,2,98.7,2.8,99.4,3.6c-0.7,1.5-0.7,1.5-3.1,2c1.6,3.6,5.6,4.9,7.5,8.2
	c-1.9,1.4-4-0.2-6,0.8c1,3.1,4.1,4.9,5.6,8.2c-3.4,0.4-6.7,0.8-10.1,1.3v4.6c-1.5,0.7-2.9,1.5-4.8,0.4c-0.2-1.4-0.4-2.9-0.6-4.2
	c-3.7-0.7-7.3,0.7-11-0.5c1.6-3,3.2-5.8,4.8-8.8c-1.5,0-2.9,0-5,0c2.4-3.2,4.4-5.8,6.5-8.5c-1.4-0.2-2.6-0.4-4.2-0.6
	c1.3-2,2.3-3.4,3.3-4.9c-0.3-0.1-0.7-0.2-1-0.2c-5.5,0.1-11.1,0.2-16.6,0.4c-7.5,0.4-15,1-22.4,1.5c1.8,1.8,3.5,3.6,5.2,5.5
	c0.7,0.7,1.3,1.5,2,2.3c-0.1,0.2-0.2,0.4-0.3,0.6c-1.8,0-3.6,0-5.8,0c1.1,3.4,4.1,5.2,5.7,8.5c-3.4,0.4-6.7,0.8-10.1,1.3V26
	c-1.5,0.8-2.9,1.5-4.7,0.5c-0.2-1.4-0.5-2.9-0.8-4.4c-3.6-0.7-7.2,0.8-10.9-0.5c1.7-3.1,3.2-5.8,4.8-8.8c-1.5,0-2.9,0-5,0
	c2.3-3.1,4.3-5.7,6.2-8.3c-0.3,0-0.5-0.2-0.8-0.2C21.6,5,15.3,5.5,9,6.3C7.5,6.5,6.2,7.5,4.9,8c-0.5,0.7-1,1.5-1.5,2.3
	C2.8,15.7,2.2,21,1.7,26.4c-0.1,0.6,0.2,1.1,0.2,1.8C3,27.1,4.2,26,5.4,24.7c3.1,3.1,6.8,5.2,9.3,9.4c-1.8,0.2-3.1,0.3-4.8,0.5
	c2.4,2.4,4.6,4.6,6.8,6.8c-0.1,2-1.8,1.5-3.2,1.8c1.7,3.7,5.8,5.1,7.9,9c-2.4,0-4.2,0-6.4,0c1.1,3.4,4.1,5.2,5.7,8.5
	c-3.4,0.4-6.7,0.8-10.1,1.3c0,1.6,0,3,0,4.5C9.2,67.3,7.9,68,6,67.1c-0.3-1.4-0.5-2.9-0.8-4.6c-1.3,0-2.6,0.1-3.9,0.1
	c-0.1,1.3-0.2,2.7-0.2,4C1.2,82.8,1.4,99,1.6,115.2c0,1.3,0.2,2.6,0.3,3.9c1.2-1.8,2.6-3.4,4.5-4.4c2.9,2.9,6.6,5.1,9.1,9.2
	c-1.8,0.2-3.1,0.3-4.8,0.5c2.4,2.4,4.6,4.6,6.9,6.8c-0.1,1.9-1.7,1.5-3.2,1.8c1.6,3.8,5.8,5,7.8,8.9c-2.3,0-4.1,0.1-6.1,0.2
	c-0.1,2.1,1.6,2.9,2.4,4.2c0.8,1.3,2,2.5,3.2,3.9c-3.3,1.5-6.8,0.7-10.1,1.8c0,1.5,0,3-0.1,4.6c-1.6,0.5-2.9,1.5-4.7,0.3
	c-0.3-1.3-0.5-2.7-0.8-4.4c-0.8,0.1-1.8,0.2-2.7,0.2c-0.1,12.9,1.1,25.7,2.2,38.6c0.1,1.5,0.8,2.9,1.1,4.4c0.6,0.4,1.2,0.8,1.8,1.2
	c5.5,0.5,11,0.9,16.6,1.3c1-2,2.1-3.9,3.2-6.2H24c-0.1-0.2-0.2-0.4-0.3-0.6c2-2.6,4-5.3,6.1-8c-1.4-0.2-2.5-0.3-4.2-0.5
	c1.9-2.8,3.4-5.1,5.2-7.7c-1.6-0.4-2.9-0.7-4.5-1c2.4-4.1,4.7-8,8.5-10.8c2.9,2.7,5.6,5.2,8.3,7.7c0.3,0.3,0.2,0.8,0.5,1.6
	c-1.4,0.2-2.7,0.3-4.4,0.5c2.4,2.4,4.6,4.6,6.8,6.8c0,2.1-1.8,1.5-3.1,1.9c1.6,3.7,5.8,4.9,7.7,8.8c-2.3,0-4.1,0-6.3,0
	c0.5,0.9,0.7,1.6,1.1,2.2c1.2,1.7,2.4,3.4,3.7,5.1c0.5,0.1,1,0.4,1.5,0.3c10.5-0.1,21-0.2,31.5-0.3c1.3-2.3,2.5-4.7,3.9-7.2
	c-1.6,0-3,0-5-0.1c2.4-3.1,4.4-5.7,6.5-8.5c-1.4-0.2-2.6-0.3-4.2-0.5c1.8-2.8,3.4-5.1,5.2-7.7c-1.6-0.4-2.9-0.7-4.5-1
	c2.4-4.1,4.7-8,8.4-10.8c3,3.1,6.7,5.2,9.1,9.3c-1.8,0.2-3.1,0.3-4.8,0.5c2.4,2.4,4.6,4.6,6.8,6.8c0,2.1-1.8,1.5-3.1,1.9
	c1.6,3.6,5.6,5,7.6,8.3c-1.9,1.5-4-0.2-6,0.9c0.2,0.5,0.4,1.2,0.8,1.7c1.3,1.8,2.6,3.5,3.9,5.3c0.5,0,0.9,0.2,1.3,0.1
	c9.3-0.7,18.5-1.3,27.8-2.1c1.7-0.2,3.3-1.2,4.9-1.8c0.4-0.6,0.8-1.1,1.2-1.8c0.6-2.8,1.6-5.5,1.8-8.3c0.7-9.8,1.5-19.6,1.7-29.5
	C145.7,142.4,145.5,131.2,145.6,120.1z M101.2,61.7c-0.1-0.2-0.2-0.4-0.3-0.6c2-2.6,4-5.2,6.1-8c-1.4-0.2-2.6-0.3-4.2-0.5
	c1.9-2.8,3.4-5.2,5.2-7.8c-1.6-0.3-2.9-0.7-4.5-1c2.5-4.1,4.7-8,8.5-10.8c3,3.1,6.7,5.2,9.2,9.3c-1.8,0.2-3.1,0.3-4.8,0.5
	c2.4,2.4,4.6,4.6,6.9,6.8c-0.2,1.8-1.7,1.6-3.2,1.7c1.7,3.8,5.7,5.2,7.9,9c-2.4,0-4.2,0-6.4,0c1,3.4,4.1,5.2,5.7,8.5
	c-3.4,0.4-6.7,0.8-10.1,1.3v4.6c-1.5,0.8-2.9,1.5-4.7,0.6c-0.2-1.4-0.5-2.9-0.8-4.4c-3.5-0.7-7.2,0.9-10.8-0.5
	c1.7-3,3.2-5.7,4.8-8.7C104,61.7,102.6,61.7,101.2,61.7z M48.9,47c1.9-2.8,3.4-5.2,5.2-7.7c-1.6-0.3-2.9-0.7-4.4-1
	c2.6-4,4.7-7.9,8.5-10.7c3,2.9,6.7,5.1,9.2,9.3c-1.8,0.2-3.1,0.3-4.8,0.5c2.4,2.4,4.6,4.6,6.8,6.7c0,2.1-1.9,1.4-3.1,2
	c1.7,3.5,5.6,4.9,7.6,8.3c-1.9,1.4-4-0.2-6.3,1c2,2.6,3.9,5.1,6.2,8c-3.7,0.5-7,0.9-10.3,1.3c0,1.7,0,3.1,0,4.6
	c-1.5,0.7-2.9,1.5-4.7,0.5c-0.3-1.5-0.5-2.9-0.8-4.4c-3.6-0.7-7.2,0.7-10.9-0.5c1.6-3,3.2-5.8,4.8-8.8c-1.5,0-2.9,0-5.1,0
	c2.4-3.2,4.4-5.8,6.5-8.5C51.7,47.4,50.5,47.3,48.9,47z M40,96.9c1,3.1,4,4.9,5.6,8.1c-3.4,0.4-6.7,0.8-10.1,1.3v4.6
	c-1.5,0.8-2.9,1.4-4.7,0.6c-0.3-1.5-0.5-3-0.8-4.5c-3.6-0.6-7.1,0.7-10.9-0.5c1.6-3,3.2-5.8,4.8-8.8c-1.5,0-2.9,0-5.1,0
	c2.4-3.2,4.4-5.8,6.5-8.5c-1.4-0.2-2.6-0.3-4.2-0.5c1.9-2.8,3.4-5.2,5.2-7.8c-1.6-0.3-2.9-0.7-4.4-1c2.6-4.1,4.7-8.1,8.5-10.7
	c3,3.1,6.7,5.2,9.1,9.3c-1.8,0.2-3.1,0.3-4.8,0.5c2.4,2.4,4.6,4.6,6.9,6.8c-0.1,2-1.8,1.5-3.2,1.8C40,91.3,44,92.7,46,96
	C44.1,97.4,42,95.8,40,96.9z M131.4,152.7c-3.4,0.4-6.7,0.8-10.1,1.3c0,1.7,0,3.1,0,4.6c-1.6,0.7-2.9,1.4-4.8,0.5
	c-0.2-1.5-0.4-3-0.6-4.4c-3.7-0.6-7.3,0.7-11-0.3c1.7-3.1,3.2-5.9,4.9-8.9c-1.5,0-2.9,0-5.1-0.1c2.4-3.1,4.4-5.7,6.5-8.4
	c-1.4-0.2-2.6-0.4-4.2-0.6c1.9-2.8,3.4-5.1,5.2-7.7c-1.6-0.3-2.9-0.6-4.4-1c2.6-4,4.7-8,8.5-10.7c3,3,6.7,5.1,9.2,9.3
	c-1.8,0.2-3.1,0.3-4.8,0.5c2.4,2.4,4.6,4.6,6.8,6.7c0,2.2-1.9,1.4-3.1,2c1.6,3.6,5.7,4.9,7.6,8.3c-1.9,1.3-4-0.2-6,0.8
	C126.8,147.6,129.9,149.4,131.4,152.7z"/>
<path class="st2" d="M97.4,1.3c0.7,0.8,1.4,1.6,2.1,2.3c-0.7,1.5-0.7,1.5-3.1,2c1.6,3.6,5.6,4.9,7.5,8.2c-1.9,1.4-4-0.2-6,0.8
	c1,3.1,4.1,4.9,5.6,8.2c-3.4,0.4-6.7,0.8-10.1,1.3c0,1.7,0,3.1,0,4.6c-1.5,0.7-2.9,1.5-4.8,0.4c-0.2-1.4-0.4-2.9-0.5-4.3
	c-3.7-0.7-7.3,0.7-11-0.5c1.6-3,3.2-5.8,4.8-8.8c-1.5,0-2.9,0-5.1,0c2.4-3.2,4.4-5.8,6.5-8.5c-1.4-0.2-2.6-0.4-4.2-0.6
	c1.3-2,2.3-3.4,3.2-4.9c0.7-0.3,1.4-0.8,2.1-0.9c3.6-0.1,7.1,0,10.6,0.1C95.9,0.8,96.6,1.1,97.4,1.3z"/>
<path class="st2" d="M145.6,120.1c-0.9-0.2-1.9-0.3-3.2-0.5c-0.1-1.6-0.2-3.2-0.3-4.5c-4.1-0.8-7.6,0.7-11.4-0.6
	c1.6-3,3.2-5.8,4.8-8.8c-1.5,0-3,0-5.1-0.1c2.4-3.1,4.4-5.7,6.5-8.4c-1.4-0.2-2.6-0.4-4.3-0.7c1.9-2.8,3.4-5.2,5.2-7.7
	c-1.6-0.3-2.9-0.6-4.4-1c2.6-4.1,4.7-8,8.4-10.6c0.9,0.7,1.6,1.2,2.4,1.8c0.3,2.6,0.9,5.2,1,7.8c0.3,10.7,0.5,21.5,0.6,32.2
	C145.9,119.4,145.7,119.7,145.6,120.1z"/>
<path class="st2" d="M42.3,3.3c1.8,1.8,3.5,3.6,5.2,5.5c0.7,0.7,1.3,1.5,2,2.3c-0.1,0.2-0.2,0.4-0.3,0.6c-1.8,0-3.6,0-5.8,0
	c1.1,3.4,4.1,5.2,5.7,8.5c-3.4,0.4-6.7,0.8-10.1,1.3c0,1.7,0,3.1,0,4.6c-1.5,0.8-2.9,1.5-4.7,0.5c-0.2-1.4-0.5-2.9-0.8-4.4
	c-3.6-0.7-7.2,0.8-10.9-0.5c1.7-3.1,3.2-5.8,4.8-8.8c-1.5,0-2.9,0-5,0c2.3-3.1,4.3-5.7,6.2-8.3c1.3-0.3,2.6-0.8,3.9-0.9
	C35.9,3.4,39.1,3.4,42.3,3.3z"/>
<path class="st2" d="M141.4,20.7c-1.1-0.4-1.7,0-1.7,1.2c0,1.1,0.1,2.1,0.1,3.1c-3.9,2.3-4.4,2-5.5-3.7c-3.4-0.7-7.1,0.8-10.8-0.5
	c1.6-3,3.2-5.8,4.8-8.8c-1.6,0-3,0-5.1-0.1c2.4-3.1,4.4-5.7,6.5-8.4c-1.4-0.2-2.6-0.4-4.1-0.7c0.6-1,0.9-1.6,1.3-2.2
	c3.6-0.9,7-0.1,10.5,0.5c0.5,0.1,1,0.3,1.9,0.5C140.8,8,141.3,14.4,141.4,20.7z"/>
<path class="st2" d="M2,28.2c1.1-1.1,2.3-2.2,3.5-3.4c3.1,3.1,6.8,5.2,9.3,9.4c-1.8,0.2-3.1,0.3-4.8,0.5c2.4,2.4,4.6,4.6,6.8,6.8
	c-0.1,2-1.8,1.5-3.2,1.8c1.7,3.7,5.8,5.1,7.9,9c-2.4,0-4.2,0-6.4,0c1.1,3.4,4.1,5.2,5.7,8.5c-3.4,0.4-6.7,0.8-10.1,1.3
	c0,1.6,0,3,0,4.5C9.3,67.4,8,68,6.1,67.1c-0.2-1.4-0.5-2.9-0.8-4.6c-1.3,0-2.6,0.1-3.9,0.1c-0.2-1.3-0.5-2.6-0.5-3.9
	C1,49.5,1,40.2,1.2,30.8C1.2,30,1.7,29.1,2,28.2z"/>
<path class="st2" d="M2,119.1c1.2-1.8,2.6-3.4,4.5-4.4c2.9,2.9,6.6,5.1,9.1,9.2c-1.8,0.2-3.1,0.3-4.8,0.5c2.4,2.4,4.6,4.6,6.9,6.8
	c-0.1,1.9-1.7,1.5-3.2,1.8c1.6,3.8,5.8,5,7.8,8.9c-2.3,0-4.1,0.1-6.1,0.2c-0.1,2.1,1.6,2.9,2.4,4.2c0.8,1.3,2,2.5,3.2,3.9
	c-3.3,1.5-6.8,0.7-10.1,1.8c0,1.5,0,3-0.1,4.6c-1.6,0.5-2.9,1.5-4.7,0.3c-0.3-1.3-0.5-2.7-0.8-4.4c-0.8,0.1-1.8,0.2-2.7,0.2
	c-0.2-3.1-0.4-6.1-0.5-9.2c-0.4-6.9-0.8-13.8-1.1-20.7C1.7,121.6,1.9,120.4,2,119.1z"/>
<path class="st2" d="M82.1,198c1.3-2.3,2.5-4.7,3.8-7.2c-1.6,0-3,0-5-0.1c2.4-3.1,4.4-5.7,6.5-8.4c-1.4-0.2-2.5-0.3-4.2-0.5
	c1.8-2.8,3.4-5.1,5.2-7.7c-1.6-0.4-2.9-0.7-4.5-1c2.4-4.1,4.7-8,8.4-10.8c3,3.1,6.7,5.2,9.1,9.3c-1.8,0.2-3.1,0.3-4.8,0.5
	c2.4,2.4,4.6,4.6,6.8,6.8c0,2.1-1.8,1.5-3.1,1.9c1.6,3.6,5.6,5,7.6,8.3c-1.9,1.5-4-0.2-6,0.9c0.2,0.5,0.4,1.2,0.8,1.7
	c1.3,1.8,2.6,3.5,3.9,5.3c-0.6,0.3-1.3,0.8-1.9,0.8c-6.8,0.3-13.6,0.5-20.4,0.7C83.6,198.5,82.8,198.2,82.1,198z"/>
<path class="st2" d="M25.1,198.1c1-2,2.1-3.9,3.2-6.2c-1.5,0-2.9,0-4.2,0c-0.1-0.2-0.2-0.4-0.3-0.6c2-2.6,4-5.3,6.1-8
	c-1.4-0.2-2.5-0.3-4.2-0.5c1.9-2.8,3.4-5.1,5.2-7.8c-1.6-0.4-2.9-0.7-4.5-1c2.4-4.1,4.7-8,8.5-10.8c2.9,2.7,5.6,5.2,8.3,7.7
	c0.3,0.3,0.2,0.8,0.5,1.6c-1.4,0.2-2.7,0.3-4.4,0.5c2.4,2.4,4.6,4.6,6.8,6.8c0,2.1-1.8,1.5-3.1,1.9c1.6,3.7,5.8,4.9,7.7,8.8
	c-2.3,0-4.1,0-6.3,0c0.5,0.9,0.7,1.6,1.1,2.2c1.2,1.7,2.4,3.4,3.7,5.1c-1.5,1.5-3.4,0.7-5,0.7c-5.5,0.1-10.9,0-16.4-0.2
	C26.8,198.5,25.9,198.2,25.1,198.1z"/>
<path class="st2" d="M106.9,53.1c-1.4-0.2-2.6-0.3-4.2-0.5c1.9-2.8,3.4-5.2,5.2-7.8c-1.6-0.3-2.9-0.7-4.5-1c2.5-4.1,4.7-8,8.5-10.8
	c3,3.1,6.7,5.2,9.2,9.3c-1.8,0.2-3.1,0.3-4.9,0.5c2.4,2.4,4.6,4.6,6.9,6.8c-0.2,1.8-1.7,1.6-3.2,1.7c1.7,3.8,5.8,5.2,7.9,9
	c-2.4,0-4.2,0-6.4,0.1c1,3.4,4.1,5.2,5.7,8.5c-3.4,0.4-6.7,0.8-10.1,1.3c0,1.6,0,3.1,0,4.5c-1.5,0.8-2.9,1.5-4.7,0.6
	c-0.2-1.4-0.5-2.9-0.8-4.4c-3.6-0.8-7.2,0.8-10.9-0.6c1.7-3,3.2-5.7,4.8-8.7c-1.5,0-2.9,0-4.3,0c-0.1-0.2-0.2-0.4-0.3-0.6
	C102.8,58.5,104.9,55.9,106.9,53.1z"/>
<path class="st2" d="M67.4,55.4c2,2.6,3.9,5.1,6.2,8c-3.7,0.5-7,0.9-10.3,1.3c0,1.7,0,3.1,0,4.6c-1.5,0.7-2.9,1.5-4.7,0.5
	c-0.3-1.5-0.6-2.9-0.8-4.4c-3.6-0.7-7.1,0.7-10.9-0.5c1.6-3,3.2-5.8,4.8-8.8c-1.5,0-2.9,0-5.1,0c2.4-3.2,4.4-5.8,6.5-8.5
	c-1.4-0.2-2.6-0.3-4.2-0.6c1.9-2.8,3.4-5.2,5.2-7.8c-1.6-0.3-2.9-0.7-4.4-1c2.6-4,4.7-7.9,8.5-10.7c3,2.9,6.7,5.1,9.2,9.3
	c-1.8,0.2-3.1,0.3-4.8,0.5c2.4,2.4,4.6,4.6,6.8,6.8c0,2.1-1.9,1.4-3.1,2c1.7,3.5,5.6,4.9,7.6,8.3C71.8,55.8,69.7,54.2,67.4,55.4z"/>
<path class="st2" d="M121.3,158.5c-1.6,0.7-2.9,1.4-4.8,0.5c-0.2-1.5-0.4-3-0.6-4.4c-3.7-0.6-7.3,0.6-11-0.3
	c1.7-3.1,3.2-5.9,4.9-8.9c-1.5,0-2.9,0-5.1,0c2.4-3.1,4.4-5.7,6.5-8.4c-1.4-0.2-2.6-0.4-4.2-0.6c1.9-2.8,3.4-5.1,5.2-7.7
	c-1.6-0.3-2.9-0.7-4.4-1c2.6-4,4.7-8,8.5-10.7c3,3,6.7,5.1,9.2,9.3c-1.8,0.2-3.1,0.3-4.8,0.5c2.4,2.4,4.6,4.6,6.8,6.7
	c0,2.1-1.9,1.4-3.1,2c1.6,3.6,5.7,4.9,7.6,8.3c-1.9,1.3-4-0.2-6,0.8c1,3.1,4.1,4.9,5.6,8.2c-3.4,0.4-6.7,0.8-10.1,1.3
	C121.3,155.7,121.3,157.1,121.3,158.5z"/>
<path class="st2" d="M30.8,111.5c-0.3-1.5-0.5-3-0.8-4.5c-3.6-0.6-7.1,0.7-10.9-0.5c1.6-3,3.2-5.8,4.8-8.8c-1.5,0-2.9,0-5.1,0
	c2.4-3.2,4.4-5.8,6.5-8.5c-1.4-0.2-2.6-0.3-4.2-0.5c1.9-2.8,3.4-5.2,5.2-7.8c-1.6-0.3-2.9-0.7-4.4-1c2.6-4.1,4.7-8.1,8.5-10.7
	c3,3.1,6.7,5.2,9.1,9.3c-1.8,0.2-3.1,0.3-4.8,0.5c2.4,2.4,4.6,4.6,6.9,6.8c-0.1,2-1.8,1.5-3.2,1.8C40,91.4,44,92.7,46,96
	c-1.8,1.5-3.9-0.2-6,0.9c1,3.1,4,4.9,5.6,8.2c-3.4,0.4-6.7,0.8-10.1,1.3c0,1.7,0,3.1,0,4.6C34,111.7,32.6,112.3,30.8,111.5z"/>
<path class="st0" d="M87.8,135.3c-1.7,2.2-6.8,5.6-10.8,5.5c-7.6-0.2-11.5-3.1-14.4-7.2c-1.2-1.8-2.7-8.8-2.7-14.7
	c0-5.2,0.7-8.4,2.3-12.5c1.5-3.7,3.6-7.8,8.4-11.7c3.9-3.2,10.5-5.9,16.7-6.2c0.8,1.1,1.3,2.4,1.5,3.6c-4.5,1.2-9.1,3.5-12.1,7.3
	c-1.8,2.2-4.7,7.5-5.4,13.5c4.2-2.9,9.3-5.2,10.7-5.5c1.3,0,3.1,0.7,4.3,1.5c1.9,1,6,5,6,8.6C92.6,125.3,91.1,131.1,87.8,135.3z
	 M81.7,124.2c0-3.6-0.9-8.7-3-9.4c-1.8,0.1-4.6,1.5-7.5,3.1c-0.1,8.1,0.8,13.7,2.4,17.6c0.8,0.7,4.7,1.1,5.7,0.5
	C81.4,132.2,81.7,127.2,81.7,124.2z"/>
</svg>
