<svg width="168" height="392" viewBox="0 0 168 392" fill="none" xmlns="http://www.w3.org/2000/svg">
<path d="M164.299 369.523C164.299 371.856 164.185 374.151 163.955 376.37C163.611 376.714 163.306 377.097 163.229 377.479C163.153 377.938 163.038 378.321 162.962 378.703C152.182 386.163 134.217 383.714 122.176 383.829C103.905 384.059 85.6335 384.862 67.3622 385.436C49.282 385.971 25.5064 389.452 3.14511 388.573C2.49529 387.348 2.18952 385.589 2.11307 383.141C1.46325 358.2 0.698754 333.297 0.240061 308.356C0.125387 302.236 1.04276 296.115 1.46322 289.995C1.50145 289.344 1.50149 288.732 1.50149 288.082C1.42504 272.857 1.19568 257.671 1.34858 242.446C1.42503 233.304 2.07482 224.161 2.41884 215.019C2.45706 214.369 2.38061 213.757 2.41884 213.106C2.45706 202.357 2.07484 191.57 2.68643 180.821C3.4127 167.547 3.68025 154.311 3.52735 140.999C3.41268 128.223 3.8714 115.408 4.36832 102.632C4.78879 92.4182 5.62973 82.2047 6.27954 71.9911C6.31777 71.3408 6.27954 70.7288 6.27954 70.0785C6.39422 61.7011 6.27954 53.3237 6.66179 44.9463C7.08226 35.8421 7.9614 26.7379 8.64944 17.6337C8.91701 14.0379 9.14637 10.4039 9.37571 6.80812C9.52861 4.39818 10.8665 3.05935 13.1982 2.71507C15.6827 2.33254 18.1673 1.68223 20.6519 1.60572C28.9084 1.37621 37.1266 1.14668 45.3831 0.955419C71.7962 1.45271 98.4769 1.26145 124.852 0.917175C133.108 1.64398 141.403 2.25603 149.659 3.0976C151.915 3.32712 154.055 4.51295 156.234 5.31626C156.31 5.35452 156.387 5.39277 156.502 5.43102C164.529 24.6723 160.668 79.374 160.897 88.2869C161.662 121.605 163.306 154.962 164.49 188.28C165.79 223.97 165.14 259.239 164.796 294.929C164.643 310.919 163.535 326.641 163 342.592C162.809 348.292 164.338 359.194 164.299 369.37C164.299 369.446 164.299 369.484 164.299 369.523Z" fill="#064A42"/>
<path d="M71.6052 106.114C72.8666 105.731 73.3636 105.463 73.8987 105.425C83.99 105.119 94.043 104.775 104.134 104.66C111.129 104.583 118.124 104.928 125.158 105.004C133.949 105.119 142.741 105.119 151.571 105.31C155.126 105.387 158.681 105.884 162.235 105.884C165.446 105.922 167.51 103.704 167.51 100.758C167.51 97.5832 165.293 95.5175 161.853 95.5175C151.112 95.4793 140.371 95.4793 129.668 95.4028C121.565 95.3263 113.461 95.2115 105.357 95.0967C97.101 94.982 88.8827 94.829 80.6262 94.829C78.0652 94.829 75.4659 95.2497 72.2551 95.5558C72.0257 94.982 71.2995 93.9491 71.2612 92.8781C71.1466 87.1784 71.2612 81.4787 71.1848 75.8172C71.1465 73.4838 70.6114 71.1504 70.6114 68.817C70.4203 52.9802 70.3821 37.1435 70.1145 21.3068C70.0381 16.2574 69.4264 11.2462 68.8913 6.23511C68.5473 2.86885 66.4067 0.650187 64.075 0.841452C61.514 1.03272 59.7556 3.55742 59.9468 7.2297C60.2908 13.6944 61.0553 20.1592 61.2082 26.5857C61.4758 39.7064 61.3611 52.8655 61.514 66.0245C61.5522 68.817 62.3167 71.6477 62.3549 74.4401C62.4314 77.4239 61.9345 80.3693 61.9345 83.3531C61.9345 87.4461 62.1256 91.5392 62.2402 96.2443C60.3672 96.2826 58.9147 96.3208 57.424 96.3591C42.2489 96.7416 27.0738 97.1624 11.8604 97.5449C8.1909 97.6214 4.94179 98.4247 3.75684 103.206C5.36226 107.491 6.16499 108.141 10.2168 108.064C25.8124 107.682 41.4079 107.261 57.0035 106.84C58.4943 106.802 59.985 106.764 61.7051 106.726C62.0492 108.103 62.5078 109.136 62.4696 110.13C62.3932 113.726 61.9727 117.36 62.0491 120.956C62.3931 137.328 62.9665 153.662 63.2723 170.034C63.4635 180.783 63.3488 191.571 63.3105 202.32C63.2723 208.478 63.0812 214.637 63.0047 220.796C62.8901 228.523 62.8901 236.288 62.7754 244.015C62.5843 255.224 62.6225 266.432 61.8963 277.602C61.1318 289.116 61.0171 300.592 61.17 312.144C61.2464 320.483 60.5202 328.822 60.2526 337.161C60.0615 344.085 60.1379 351.047 59.9086 358.009C59.7557 362.561 59.2205 367.075 58.8765 371.589C58.7618 373.004 58.8 374.42 58.7618 375.835C58.6089 378.666 58.4943 381.458 58.2649 384.289C58.0738 386.814 59.6792 390.218 61.5522 390.869C63.8457 391.672 65.9098 390.257 66.8654 387.005C67.4006 385.092 67.8975 383.027 67.9357 381.038C68.0121 368.108 69.4265 355.217 68.7767 342.211C68.4326 335.823 69.5794 329.358 69.7323 322.931C69.9616 314.401 69.7705 305.871 69.9998 297.34C70.1527 290.569 70.6496 283.837 70.9936 277.104C71.0319 276.301 70.9936 275.498 71.0319 274.733C71.0701 266.049 71.1465 257.328 71.1848 248.644C71.2612 240.726 71.0701 232.807 71.4524 224.966C72.1404 210.774 71.7199 196.505 72.1022 182.352C72.6755 159.782 71.0701 137.328 71.0319 114.797C70.9172 111.852 71.3759 109.059 71.6052 106.114Z" fill="white"/>
<path d="M129.859 217.162C122.482 232.616 119.577 245.393 114.187 263.142C112.276 263.448 109.409 263.524 107.498 263.295C106.581 262.683 105.357 261.306 104.593 259.699C109.753 247.076 115.793 233.419 121.87 221.485C113.423 222.709 106.428 223.091 101.42 223.321C100.503 219.878 100.044 216.473 100.503 212.572C111.932 212.572 116.022 212.419 128.024 212.419C128.827 213.872 129.515 215.632 129.859 217.162Z" fill="white"/>
</svg>
