<svg width="175" height="146" viewBox="0 0 175 146" fill="none" xmlns="http://www.w3.org/2000/svg">
<path d="M139.986 1.02413C145.529 1.25365 151.071 1.40667 156.614 1.75095C158.869 1.90396 161.086 2.43951 163.341 2.86029C168.158 3.81661 170.719 6.9916 171.139 11.6967C171.942 20.2654 172.63 28.8723 173.127 37.4792C173.739 47.884 174.159 58.2888 174.579 68.6936C174.809 74.5463 175.038 80.399 174.962 86.29C174.771 101.132 174.274 115.974 174.197 130.816C174.159 139.691 170.489 141.871 163.15 143.019C155.964 144.167 148.549 144.205 141.248 144.281C131.156 144.434 121.065 144.128 110.936 144.09C103.788 144.052 96.6016 144.09 89.4536 144.128C76.6102 144.243 63.7286 144.511 50.8852 144.473C38.0036 144.434 25.1219 144.167 12.2785 143.784C5.39811 143.593 2.45477 139.997 2.37832 133.15C2.30187 125.499 1.80497 117.849 1.5374 110.236C1.34628 104.881 1.23166 99.4872 1.11699 94.1318C0.887643 84.6833 0.658277 75.2731 0.428931 65.8246C0.390706 65.0213 0.428875 64.1797 0.467099 63.3764C0.73467 49.1846 0.964073 34.9927 1.19342 20.8009C1.23164 19.6533 1.19342 18.5057 1.0023 17.3964C-0.297334 8.48347 4.74831 4.19913 11.6287 3.58708C21.8346 2.66901 32.0405 1.63618 42.2464 1.02413C49.0504 0.603348 55.9308 0.526852 62.7348 0.794622C73.667 1.2154 84.5609 1.17715 95.4167 0.220828C95.9136 0.182575 96.4105 0.220828 96.8692 0.220828C111.203 0.412093 125.538 0.641615 139.872 0.871133C139.986 0.909386 139.986 0.985878 139.986 1.02413Z" fill="white" fill-opacity="0.8"/>
<path d="M90.4093 24.0907C88.0393 24.1672 85.6312 24.6645 83.4142 25.3148C74.2021 28.0307 67.7804 32.9654 62.085 38.3973C62.0085 38.4738 61.9703 38.5121 61.8939 38.5886C62.1996 26.5771 62.5054 14.5274 62.8112 2.51601C62.8494 0.565113 60.8235 -0.0851778 59.4474 0.565123C58.1478 -0.0851778 56.0837 0.565113 55.9691 2.51601C55.2046 15.1395 54.784 27.763 54.6694 40.4247C53.9813 40.1187 53.2169 39.7362 52.2995 39.2006C49.7384 37.747 47.3303 36.1404 44.6928 34.8015C40.1823 32.5064 35.6718 30.1346 30.8555 28.1837C27.6064 26.8831 23.8222 26.7684 20.9171 28.8341C18.7001 30.4407 18.7384 33.0419 21.2612 35.7196C25.2748 40.0422 30.932 42.8729 38.0036 44.3265C40.8322 44.9003 43.699 45.3976 46.6041 45.8184C49.9678 46.3157 50.9999 47.425 50.6176 49.9114C47.8655 67.7373 37.8888 83.7653 27.1477 99.6021C25.9246 101.4 22.7519 103.58 26.8802 105.072C30.6262 106.411 32.3463 103.695 33.4548 101.859C40.7939 89.5415 50.6176 77.9126 54.0578 64.4476C54.3636 63.3 55.0516 62.1906 55.5486 61.0813C55.969 61.1195 56.3512 61.1196 56.7717 61.1578C57.0011 62.4202 57.3451 63.6825 57.3833 64.9449C58.1861 85.5632 58.9123 106.182 59.715 126.8C59.9061 131.849 60.2502 136.937 60.7089 141.986C60.8235 143.516 61.5498 145.085 64.3784 145.047C67.1688 144.97 67.4746 143.363 67.4746 141.872C67.5128 139.844 67.3982 137.817 67.3217 135.789C66.4043 113.603 65.4869 91.4159 64.6077 69.2292C64.5313 67.24 64.7607 65.2509 64.8371 63.2617C65.3723 63.2235 65.9074 63.1852 66.4425 63.147C67.2835 65.4039 68.048 67.6991 68.9271 69.956C71.9469 77.8361 74.8137 85.7927 78.1774 93.5963C79.63 96.9243 82.0763 100.099 84.2933 103.274C85.3636 104.766 87.1984 106.029 89.8359 105.034C92.244 104.116 91.4795 102.548 90.4857 101.17C83.4142 91.4924 79.8593 81.1259 76.3809 70.7593C74.0874 63.912 71.5646 57.103 68.8507 50.3322C67.9715 48.1518 68.8889 47.272 71.5264 46.4687C76.3809 44.9768 81.1972 43.4084 85.937 41.7635C91.5178 39.7744 95.7607 36.7524 98.6658 32.9271C102.297 28.0307 98.3982 23.8994 90.4093 24.0907ZM28.4856 33.8069C28.7532 33.5392 29.0208 33.2714 29.2884 32.9654C32.805 34.725 36.3216 36.4464 40.6027 38.5886C35.022 39.2006 31.0466 37.4027 28.4856 33.8069ZM90.0653 32.8889C85.0579 37.441 77.7187 39.3536 69.4622 41.381C69.768 40.1569 69.6916 39.6597 70.0356 39.3919C74.6608 35.4518 79.5153 31.6265 86.6251 29.7139C88.0394 29.3313 89.9123 29.6756 91.556 29.6756C91.0591 30.7467 90.9827 32.0473 90.0653 32.8889Z" fill="#064A42"/>
<path d="M141.21 85.7927C141.21 91.1864 139.145 94.7057 135.514 98.1102C132.686 100.711 129.131 102.433 125.155 102.433C119.307 102.433 114.567 99.9846 112.312 97.0391C110.707 94.9734 109.56 92.2575 109.56 89.1208C109.56 85.4485 113.65 80.0548 119.154 76.2678C113.688 71.1036 111.395 66.9723 111.395 63.7973C111.395 61.0431 112.618 57.9446 115.408 55.0374C118.084 52.1302 121.639 50.1028 125.92 50.1028C129.781 50.1028 133.909 51.2504 136.432 53.6985C139.49 56.6823 140.178 60.2398 139.948 63.3C139.719 67.3166 136.89 71.2184 132.724 73.9726C137.081 78.1039 141.21 82.3117 141.21 85.7927ZM131.004 90.2301C131.004 87.5524 128.022 83.8418 122.709 79.4045C120.186 82.7708 119.575 85.7927 119.575 88.4704C119.575 91.8367 121.027 95.4707 122.709 97.2304C124.391 97.7659 126.455 97.9954 127.869 97.2304C129.704 95.7767 130.927 93.4816 131.004 90.2301ZM120.072 58.4036C120.072 61.6934 121.983 64.1033 128.978 70.5681C130.201 68.3494 130.813 65.6335 130.813 63.2618C130.813 58.7097 128.672 55.6495 125.576 54.8079C123.473 54.8079 120.836 56.4145 120.072 58.4036Z" fill="#064A42"/>
</svg>
