<svg width="179" height="164" viewBox="0 0 179 164" fill="none" xmlns="http://www.w3.org/2000/svg">
<path d="M178.555 76.5099C177.141 51.2247 176.071 31.1801 174.924 11.1356C174.656 6.43049 172.516 4.32656 167.891 3.94403C140.025 1.49584 112.159 1.91664 84.2937 3.29375C64.5699 4.28832 44.846 5.58892 25.1604 6.92778C18.8534 7.34856 12.5846 8.22836 6.31577 9.10818C1.84351 9.75848 0.543875 11.2886 0.734998 15.7642C1.76706 38.2187 2.87557 60.6731 3.94585 83.1276C4.40455 93.0734 4.82501 103.019 5.28371 113.003C5.81885 124.9 6.35399 136.835 6.88914 148.731C6.92736 149.649 6.96559 150.529 7.04203 151.447C7.9212 159.098 11.285 162.541 18.9298 163.115C24.4724 163.535 30.0914 163.612 35.6339 163.612C54.9373 163.612 74.2406 163.497 93.544 163.421C111.051 163.382 128.519 163.344 146.026 163.268C153.709 163.229 161.392 163.115 169.076 163C175.077 162.923 177.638 160.59 177.829 154.546C178.249 142.802 178.746 131.02 178.785 119.277C178.899 103.249 178.632 87.259 178.555 76.5099Z" fill="#A82F13"/>
<path d="M155.773 44.6069C153.327 42.4265 149.658 41.9675 145.72 42.2735C139.757 42.7326 134.941 44.7599 131.004 47.3994C127.449 49.8093 124.391 52.4871 121.219 55.1265C120.951 55.356 120.683 55.5473 120.454 55.7385C119.269 38.3335 117.74 20.8519 118.81 3.44677C119.04 -0.149005 113.421 -0.149005 113.191 3.44677C112.121 20.4693 113.574 37.5684 114.759 54.591C111.624 51.0334 108.108 47.5524 104.438 44.1862C102.145 42.0823 98.475 41.0876 94.4232 40.7051C89.607 40.2843 86.4726 41.9292 86.5108 44.9512C86.5108 45.9458 86.8166 47.0551 87.5046 47.9349C92.2827 53.7876 96.9461 59.7551 106.54 63.3126C108.605 64.0777 108.528 64.881 107.42 66.1051C102.336 71.7665 97.4812 77.4662 92.4356 83.1277C90.8301 84.9255 88.9572 86.6469 87.1224 88.3683C85.8227 89.5542 85.02 90.8165 87.0459 91.8876C89.0336 92.9587 91.2124 92.4614 92.6267 91.352C94.7673 89.6689 96.7932 87.9093 98.4368 86.0349C102.221 81.6358 105.699 77.1602 109.369 72.7611C110.172 71.8048 111.357 70.9632 112.351 70.0834C112.771 70.1599 113.191 70.2364 113.612 70.3129C113.803 71.1162 114.071 71.8813 114.147 72.6846C115.217 88.0623 116.632 103.44 117.167 118.856C117.625 132.283 117.09 145.71 116.976 159.136C116.937 162.311 117.893 163.727 120.492 163.535C124.697 163.229 124.468 160.972 124.468 159.175C124.353 140.01 124.277 120.883 123.818 101.719C123.627 93.4559 122.518 85.1933 121.868 76.9689C121.792 75.8979 121.983 74.7885 122.021 73.7174C122.404 73.6409 122.748 73.5262 123.13 73.4497C123.933 74.253 124.773 75.018 125.538 75.8214C128.481 78.9963 131.195 82.2479 134.368 85.3081C135.629 86.5322 137.617 87.5267 139.643 88.2536C140.598 88.5978 143.007 88.3683 143.58 87.871C144.306 87.2207 144.574 85.6141 143.847 85.1551C135.323 79.9527 132.839 72.4551 125.729 66.7171C123.741 65.1105 125.041 64.6132 127.335 63.8482C133.718 61.7442 140.216 59.7168 146.064 57.1156C149.734 55.509 152.754 53.0991 155.353 50.7657C157.494 48.9295 158.067 46.6343 155.773 44.6069ZM94.6144 46.4431C95.1113 46.2518 95.6082 46.0223 96.1051 45.831C102.412 48.7 105.929 52.7931 107.725 57.5747C101.074 54.8205 97.8634 50.6509 94.6144 46.4431ZM148.358 49.1591C147.479 50.1154 146.447 51.1482 145.032 51.7602C140.446 53.8641 135.667 55.7768 130.928 57.7277C130.278 57.9954 129.322 57.9954 128.367 58.1102C129.284 55.5855 134.33 51.2247 138.878 49.1973C140.904 48.2792 143.274 47.6289 145.606 47.0169C146.37 46.8256 147.937 46.9786 148.396 47.3611C148.931 47.7437 148.817 48.7 148.358 49.1591Z" fill="white"/>
<path d="M66.8249 88.3301C66.8249 93.4942 66.0604 96.7075 64.5314 100.877C63.0789 104.626 61.0148 108.795 56.1603 112.659C52.2232 115.796 45.5721 118.512 39.3415 118.741C38.5006 117.67 37.9654 116.522 37.8125 115.298C42.2848 114.074 47.1011 111.703 50.0444 107.992C51.8027 105.773 54.746 100.533 55.3576 94.221C51.1146 97.1283 46.069 99.5382 44.6165 99.7677C43.3169 99.7677 41.5585 99.0792 40.2971 98.3141C38.3859 97.3195 34.2959 93.303 34.2959 89.6307C34.143 82.0184 35.7484 76.0892 38.921 71.9579C40.6029 69.7392 45.6868 66.3347 49.7386 66.4112C57.3452 66.5642 61.2824 69.5479 64.111 73.641C65.2959 75.3624 66.8249 82.4009 66.8249 88.3301ZM48.0185 92.4232C49.7768 92.4232 52.6436 90.9695 55.4722 89.4394C55.5487 81.2915 54.7077 75.6684 53.1023 71.6901C52.2614 71.078 48.4007 70.6955 47.4069 71.231C45.3427 74.9798 45.037 79.991 45.037 83.013C45.037 86.5705 45.9543 91.6581 48.0185 92.4232Z" fill="white"/>
</svg>
