<?xml version="1.0" encoding="UTF-8"?>
<svg id="Layer_1" data-name="Layer 1" xmlns="http://www.w3.org/2000/svg" version="1.1" viewBox="0 0 334 149.8">
  <defs>
    <style>
      .cls-1 {
        fill: #000;
        stroke-width: 0px;
      }
    </style>
  </defs>
  <path class="cls-1" d="M44.7,61.3c.5-2.9.3-5.1-.7-6.7-.9-1.6-2.4-2.4-4.5-2.4s-.2-.2-.2-.5c0-.3.1-.5.2-.5,1.2,0,2.5,0,3.8.1,1.3,0,2.7.1,4.2.1s2.7,0,3.9-.1c1.3,0,2.4-.1,3.4-.1s.3.2.2.5c0,.3-.1.5-.2.5-2,0-3.6.9-5,2.7s-2.3,4.1-2.8,7l-4.3,24.6c-.6,3.5-1.9,6.5-3.9,8.9-2,2.5-4.4,4.4-7.4,5.8-2.9,1.4-6.2,2-9.8,2s-6.7-.7-9.3-2.1c-2.6-1.4-4.4-3.4-5.6-6.1-1.1-2.6-1.4-5.7-.8-9.3l5-28.1c.4-2.4.4-3.9-.2-4.5-.5-.6-1.9-.9-4-.9s-.3-.2-.2-.5c0-.3.1-.5.2-.5,1.3,0,2.7,0,4.3.1,1.6,0,3.2.1,4.9.1s3.6,0,5.2-.1c1.6,0,3-.1,4.2-.1s.2.2.2.5,0,.5-.2.5c-1.5,0-2.7.2-3.5.6-.8.4-1.5,1-1.9,1.9-.4.9-.7,2.1-1,3.7l-4.5,25.1c-1,5.9-.6,10.2,1.3,12.8,1.9,2.6,4.8,3.9,8.8,3.9s7.6-1.3,10.4-3.8c2.8-2.5,4.5-6,5.2-10.5l4.4-24.7Z"/>
  <path class="cls-1" d="M54.6,102.8c-1,0-1.7,0-2.1-.2-.4-.1-.6-.3-.6-.4s.1-.9.4-2.1c.3-1.2.6-2.5.8-3.9l7.6-41.9c.4-2.6.3-4.2-.4-4.7-.7-.5-2.1-.3-4.4.8-.2,0-.4,0-.5-.4-.1-.3,0-.5.2-.6l12.6-6.2c.2-.1.4,0,.7,0,.2.2.3.4.3.6l-7.4,41.7-2.8,15.7c-.3,1.1-1.8,1.6-4.6,1.6ZM59.7,88v-1.5c3.1-.7,5.7-1.4,7.8-2.3,2-.9,3.6-2,4.6-3.2,1-1.2,1.6-2.6,1.7-4.3.1-1.1,0-2-.4-2.7-.4-.7-1-1-1.9-1-2.2,0-4.1,1.1-5.9,3.4-1.7,2.3-3,5.2-3.7,8.9l-3.7-3.1c1.3-2.4,2.9-4.5,4.9-6.4,2-1.9,4.1-3.4,6.5-4.6,2.4-1.1,4.7-1.7,7-1.7s3,.3,3.8.8c.8.5,1.3,1.2,1.5,2,.2.8.3,1.5.2,2.1-.3,1.7-1.3,3.5-3.2,5.2-1.8,1.8-4.4,3.4-7.6,4.8-3.2,1.4-7.1,2.6-11.6,3.5ZM75.5,102.8c-1.4,0-2.6-.4-3.7-1.2-1.1-.8-2.2-2.2-3.5-4.3l-4.7-7.8c-.5-1-1-1.6-1.5-1.7-.5-.2-1.2-.1-2.3.2l8.5-3.3,5.7,9.1c1.1,1.8,2.1,3,2.8,3.5.8.5,1.5.8,2.2.8s1.2-.2,2-.5c.8-.4,1.6-.9,2.4-1.6.2-.2.4-.2.7,0,.2.2.2.4,0,.6-3.6,4.1-6.4,6.2-8.5,6.2Z"/>
  <path class="cls-1" d="M90.9,102.8c-1.8,0-3-.7-3.5-2-.5-1.4-.5-3.3,0-5.9l7.5-40.7c.4-2.6.3-4.2-.4-4.7-.7-.5-2.1-.3-4.4.8-.2,0-.4,0-.5-.4-.1-.3,0-.5.2-.6l12.6-6.2c.3-.1.5,0,.7.2.2.2.3.4.2.5l-9.1,51.1c-.3,1.5-.4,2.5,0,3.1.3.5.6.8,1.1.8s1.2-.3,2-.8c.7-.5,1.5-1.2,2.4-2,.2-.2.4-.2.7,0,.2.2.2.4,0,.7-1.7,2-3.3,3.6-4.7,4.7-1.5,1.1-3,1.7-4.6,1.7Z"/>
  <path class="cls-1" d="M101.6,124.5c-2.4,0-4.3-.5-5.6-1.4-1.3-.9-1.8-2-1.6-3.3.2-1.1.6-1.9,1.3-2.4.7-.5,1.5-.8,2.4-.8,1.3,0,2.2.3,2.6.9.5.6.7,1.4.9,2.2.1.8.3,1.6.4,2.2.2.6.6.9,1.3.9s1-.4,1.3-1.3c.4-.9.8-2.5,1.2-5,.5-2.4,1.1-6,1.9-10.7l5-28c.5-2.7,0-4-1.2-4s-2.7,1.1-4.7,3.3c-.2.2-.4.2-.6,0-.2-.2-.2-.5,0-.7,2-2.3,3.7-4,5.3-5,1.6-1,3.1-1.5,4.6-1.5s2.9.6,3.4,1.8c.5,1.2.6,2.9.2,5.2l-4.6,26.8c-.9,5.1-1.9,9.2-3.1,12.2-1.2,3-2.6,5.2-4.2,6.5-1.7,1.3-3.7,2-6.2,2ZM118.7,61.5c-1.4,0-2.5-.4-3.4-1.2-.8-.8-1.3-2-1.3-3.5s.4-2.4,1.3-3.2c.8-.8,2-1.2,3.4-1.2s2.5.4,3.3,1.2c.8.8,1.2,1.9,1.2,3.2,0,3.1-1.5,4.7-4.5,4.7Z"/>
  <path class="cls-1" d="M133.9,103.2c-2.3,0-3.9-.9-4.8-2.6-.9-1.8-1.1-4.5-.4-8.1l2.8-14.5c.3-1.6.3-2.6,0-3.1-.2-.5-.6-.7-1.1-.7s-1.2.3-1.9.8c-.7.5-1.5,1.2-2.4,2-.2.2-.4.2-.7,0-.2-.2-.2-.4,0-.7,1.7-2.1,3.3-3.6,4.7-4.7,1.4-1.1,2.9-1.6,4.5-1.6s2.8.6,3.5,1.9c.7,1.2.7,3.3.1,6.1l-2.5,12.9c-.5,2.6-.6,4.5-.2,5.8.4,1.2,1.2,1.9,2.4,1.9s3.2-1,4.8-3.1c1.7-2.1,3.2-5.1,4.7-9.1,1.5-4,2.7-8.9,3.7-14.7h1.5c-1,6.5-2.5,12-4.4,16.8-1.9,4.7-4.1,8.4-6.5,10.9-2.4,2.6-5.1,3.8-7.9,3.8ZM150.6,102.8c-1.7,0-2.9-.6-3.4-1.8-.5-1.2-.6-2.9-.2-5.2l4.2-24.2c.3-1.1,1.8-1.6,4.6-1.6s1.8,0,2.2.2c.4.2.5.3.5.4,0,.2-.1.9-.4,2.1-.3,1.2-.5,2.5-.8,3.9l-3.3,18.1c-.5,2.7,0,4,1.2,4s1.2-.3,2-.8c.8-.5,1.7-1.4,2.7-2.4.2-.2.4-.2.6,0,.2.2.2.5,0,.7-2,2.3-3.7,4-5.2,5-1.5,1-3.1,1.5-4.7,1.5Z"/>
  <path class="cls-1" d="M175.3,103.2c-2.4,0-4.4-.5-6-1.5-1.5-1-2.7-2.4-3.5-4.1s-1.3-3.6-1.5-5.6c-.2-2.1,0-4.1.3-6.3.6-3.3,1.9-6.1,3.8-8.5,1.9-2.4,4.2-4.2,6.8-5.6,2.6-1.3,5.2-2,7.6-2s2.5.2,3.7.5c1.2.4,2.2.9,3,1.7.8.8,1.1,1.9,1,3.2,0,1.1-.4,2-1.2,2.6-.7.7-1.7,1-3,1s-2.5-.4-3-1.2c-.5-.8-.9-1.6-1.1-2.5-.2-.8-.5-1.5-.9-2.2-.4-.7-1.1-1-2.1-1s-2.1.5-3.1,1.4c-1,.9-1.7,2.2-2.4,3.8s-1.2,3.5-1.5,5.7c-.5,3-.6,5.7-.2,8.2.4,2.5,1.2,4.5,2.5,5.9,1.3,1.5,3.2,2.2,5.7,2.2s2.4-.3,3.8-.8c1.4-.5,2.5-1.1,3.4-1.7.1-.1.3,0,.5.2.2.2.3.4.2.6-2,2-4.1,3.5-6.4,4.4-2.3.9-4.4,1.4-6.4,1.4ZM181.5,63.3l-2.6-20.3c0-.2.1-.3.4-.3.3,0,.5,0,.5.2l4.3,8.7,7.6-8.9c.1-.1.3-.1.6,0,.3,0,.4.2.3.4l-9.7,20.3c-.2.3-.5.4-.9.4s-.7-.1-.7-.4Z"/>
  <path class="cls-1" d="M199.2,102.8c-1.8,0-3-.7-3.5-2-.5-1.4-.5-3.3,0-5.9l3.3-16.9c.5-2.7.1-4-1.2-4s-1.2.3-2,.8c-.8.5-1.7,1.4-2.6,2.4-.2.2-.4.2-.7,0-.2-.2-.2-.5,0-.7,2-2.3,3.7-4,5.3-5,1.6-1,3.1-1.5,4.6-1.5s2.9.6,3.4,1.8c.5,1.2.6,2.9.2,5.2l-3.4,17.9c-.3,1.5-.3,2.5,0,3.1.3.5.6.8,1.1.8s1.2-.3,2-.8c.7-.5,1.5-1.2,2.4-2,.2-.2.4-.2.7,0,.2.2.2.4,0,.7-1.7,2-3.3,3.6-4.7,4.7-1.5,1.1-3,1.7-4.6,1.7ZM204.6,61.5c-1.4,0-2.5-.4-3.4-1.2-.8-.8-1.3-2-1.3-3.5s.4-2.4,1.3-3.2c.8-.8,2-1.2,3.4-1.2s2.5.4,3.3,1.2c.8.8,1.2,1.9,1.2,3.2,0,3.1-1.5,4.7-4.5,4.7Z"/>
  <path class="cls-1" d="M238.4,103c-2.4,0-4.5-.6-6.2-1.7-1.7-1.1-2.4-2.5-2.2-4.1.2-1.1.6-1.9,1.3-2.5.7-.6,1.5-.9,2.4-.9s1.9.3,2.5,1c.6.7,1.1,1.4,1.6,2.2.5.8,1.1,1.6,1.7,2.2s1.6,1,2.8,1,1.7-.3,2.1-.8c.4-.5.7-1.4.9-2.4.2-1.7,0-3.2-.9-4.4-.8-1.2-1.8-2.3-3.1-3.3-1.3-1-2.5-2-3.8-3.1-1.2-1-2.2-2.2-2.9-3.5-.7-1.3-.9-2.8-.6-4.6.3-1.3.9-2.6,2-3.9,1.1-1.3,2.5-2.3,4.2-3.1,1.7-.8,3.7-1.2,5.9-1.2s4.6.4,6,1.3c1.5.9,2.1,2.1,2,3.6-.2,1.1-.6,1.9-1.4,2.5-.8.6-1.5.9-2.3.9-1.3,0-2.2-.3-2.8-.9-.5-.6-1-1.3-1.3-2.1-.3-.8-.7-1.5-1.2-2.1-.5-.6-1.4-.9-2.6-.9s-1.7.3-2.1.8c-.4.5-.7,1.1-.8,1.7-.3,1.5,0,2.9.8,4.1.8,1.2,1.8,2.3,3.1,3.3,1.3,1,2.6,2,3.8,3.1,1.2,1.1,2.3,2.3,3,3.6.8,1.3,1,2.8.7,4.6-.2,1.4-.9,2.8-2,4.3-1.1,1.5-2.6,2.8-4.4,3.8-1.8,1-3.9,1.5-6.3,1.5Z"/>
  <path class="cls-1" d="M270.7,103.2c-1.7,0-3.2-.4-4.5-1.3-1.3-.9-2.3-2.1-3-3.5-.7-1.5-1-3.1-1-4.8.2-2.2.9-4.5,2.2-6.9,1.3-2.4,2.6-4.8,3.8-7.4.4-.8.6-1.3.6-1.7,0-.4-.3-.6-.9-.6h-3.9c-1.3,0-2.3.1-3.1.4-.8.2-1.4.6-1.9,1.1-.5.5-.8,1.2-1.1,2-.1.2-.3.3-.7.2-.3,0-.4-.2-.3-.5.8-2.3,1.6-4.2,2.2-5.6.7-1.4,1.5-2.4,2.5-3,1-.6,2.3-.9,3.8-.9h7.6c.4,0,.7,0,.8.2.1.1,0,.4-.2.8-1,2.4-2,5.1-3.1,7.9-1,2.8-1.6,5.2-1.9,7.2-.5,3.1-.1,5.6,1,7.4,1.2,1.8,2.8,2.7,4.9,2.7s3-.4,4.4-1.3c1.4-.9,2.7-2.2,3.8-3.8,1.1-1.7,1.8-3.6,2-5.8.2-1.3.1-2.4,0-3.3-.2-.9-.5-1.7-.9-2.4-.4-.7-1-1.5-1.7-2.2-.5-.6-1-1.2-1.5-1.9-.4-.7-.7-1.4-.7-2.3,0-1.4.4-2.4,1.3-3.1.9-.6,1.9-.9,3.1-.9s2.1.3,2.8.9c.7.6,1.2,1.6,1.5,3.1.3,1.5.3,3.6,0,6.3-.3,3.1-1.1,6-2.2,8.8-1.2,2.8-2.6,5.2-4.4,7.4-1.8,2.1-3.6,3.8-5.7,5-2,1.2-4,1.8-5.9,1.8Z"/>
  <path class="cls-1" d="M298.6,103.2c-1.8,0-3.3-.7-4.4-2s-1.4-3.5-.9-6.5c.4-2.8,1.3-5.6,2.8-8.5,1.5-2.9,3.3-5.6,5.5-8.1,2.2-2.5,4.5-4.6,7-6.1,2.5-1.5,4.8-2.3,7.1-2.3s2.2.2,3.3.6,2.1,1.1,3,2c.8.9,1.3,2.1,1.4,3.5l-4.9-2.7c.9-.1,1.9-.5,2.9-1.3,1-.8,1.9-1.7,2.6-2.8.1-.2.3-.2.6,0,.3.1.4.2.4.3l-4.7,25.6c-.5,2.6-.2,3.8.9,3.8s1.2-.3,2-.8c.8-.5,1.6-1.2,2.4-2.1s.4-.1.6,0c.2.2.2.4,0,.6-1.7,2-3.3,3.6-4.8,4.7-1.5,1.1-2.9,1.7-4.4,1.7s-2.9-.6-3.5-1.9c-.6-1.3-.7-3.3-.3-6.1l2-11.4,1.7-1.4c-1.3,4.4-3,8.2-5,11.4-2.1,3.1-4.3,5.5-6.6,7.2-2.3,1.7-4.6,2.5-6.8,2.5ZM303.8,97.2c1.3,0,2.6-.5,3.9-1.5,1.3-1,2.5-2.4,3.6-4,1.1-1.6,2.1-3.3,2.8-5.2.8-1.8,1.3-3.5,1.6-5,.4-2.4.3-4.4-.5-5.8-.8-1.4-2-2.1-3.6-2.1s-3,.6-4.5,1.9c-1.5,1.2-2.8,3-3.9,5.1-1.1,2.2-2,4.7-2.4,7.5-.5,3.4-.5,5.8.2,7.1.7,1.3,1.6,2,2.8,2Z"/>
  <path class="cls-1" d="M127.3,128.5h2.1c.2,2.1,2,3.3,4.6,3.3s4.4-1.1,4.4-3-2.3-2.7-4.7-3.1c-2.9-.5-6-1.1-6-4.7s2.5-4.7,6.2-4.7,6.1,1.9,6.2,5h-2c-.1-2-1.7-3.1-4.2-3.1s-4.1,1.1-4.1,2.8,2.1,2.3,4.5,2.7c2.9.5,6.3,1,6.3,5s-2.6,5-6.5,5-6.4-2-6.6-5.3Z"/>
  <path class="cls-1" d="M158.3,116.8l-7.2,16.7h-1.9l-7.3-16.7h2.2l6.1,13.9,6-13.9h2.2Z"/>
  <path class="cls-1" d="M159.8,125.1c0-5,3.8-8.7,8.8-8.7s8.8,3.7,8.8,8.7-3.8,8.7-8.8,8.7-8.8-3.7-8.8-8.7ZM175.3,125.1c0-3.8-2.8-6.7-6.6-6.7s-6.6,2.8-6.6,6.7,2.8,6.7,6.6,6.7,6.6-2.8,6.6-6.7Z"/>
  <path class="cls-1" d="M177.5,137.5h.9c2.3,0,3.6-1.3,3.6-3.6v-17.1h2.1v17.3c0,3.2-2.1,5.4-5.4,5.4h-1.1v-1.9ZM181.8,111h2.4v2.6h-2.4v-2.6Z"/>
  <path class="cls-1" d="M205.7,116.8v16.7h-1.8l-.2-3c-1.5,2.1-4,3.3-6.9,3.3-4.9,0-8.6-3.7-8.6-8.7s3.7-8.7,8.6-8.7,5.4,1.3,6.9,3.4l.3-3h1.7ZM203.5,125.1c0-3.8-2.8-6.7-6.6-6.7s-6.6,2.9-6.6,6.7,2.8,6.7,6.6,6.7,6.6-2.8,6.6-6.7Z"/>
  <path class="cls-1" d="M218.1,125.1c0-5,3.8-8.7,8.8-8.7s8.8,3.7,8.8,8.7-3.8,8.7-8.8,8.7-8.8-3.7-8.8-8.7ZM233.5,125.1c0-3.8-2.8-6.7-6.6-6.7s-6.6,2.8-6.6,6.7,2.8,6.7,6.6,6.7,6.6-2.8,6.6-6.7Z"/>
  <path class="cls-1" d="M238.4,128.5h2.1c.2,2.1,2,3.3,4.6,3.3s4.4-1.1,4.4-3-2.3-2.7-4.7-3.1c-2.9-.5-6-1.1-6-4.7s2.5-4.7,6.2-4.7,6.1,1.9,6.2,5h-2c-.1-2-1.7-3.1-4.2-3.1s-4.1,1.1-4.1,2.8,2.1,2.3,4.5,2.7c2.9.5,6.3,1,6.3,5s-2.6,5-6.5,5-6.4-2-6.6-5.3Z"/>
  <path class="cls-1" d="M251.6,137.5h.9c2.3,0,3.6-1.3,3.6-3.6v-17.1h2.1v17.3c0,3.2-2.1,5.4-5.4,5.4h-1.1v-1.9ZM255.9,111h2.4v2.6h-2.4v-2.6Z"/>
  <path class="cls-1" d="M279,125.9h-14.7c.3,3.5,2.9,5.8,6.4,5.8s4.5-1.2,5.7-3.3h2.2c-1.5,3.4-4.3,5.3-7.9,5.3s-8.5-3.7-8.5-8.7,3.6-8.7,8.5-8.7,8.3,3.8,8.3,8.7,0,.5,0,.8ZM270.7,118.4c-3.4,0-5.9,2.2-6.3,5.5h12.6c-.5-3.4-3-5.5-6.3-5.5h0Z"/>
  <path class="cls-1" d="M291.4,131.5v1.9h-2.1c-3.4,0-5.5-2.1-5.5-5.6v-9.2h-2.9v-.4l4.6-4.8h.4v3.3h5.4v1.9h-5.4v9.1c0,2.4,1.3,3.7,3.7,3.7h1.8Z"/>
  <path class="cls-1" d="M294.8,111h2.4v2.6h-2.4v-2.6ZM295,116.8h2.1v16.7h-2.1v-16.7Z"/>
  <path class="cls-1" d="M302.6,110.9h2.1v22.6h-2.1v-22.6Z"/>
  <path class="cls-1" d="M326.3,116.8v16.7h-1.8l-.2-3c-1.5,2.1-4,3.3-6.9,3.3-4.9,0-8.6-3.7-8.6-8.7s3.7-8.7,8.6-8.7,5.4,1.3,6.9,3.4l.3-3h1.7ZM324.2,125.1c0-3.8-2.8-6.7-6.6-6.7s-6.6,2.9-6.6,6.7,2.8,6.7,6.6,6.7,6.6-2.8,6.6-6.7Z"/>
  <g>
    <path class="cls-1" d="M7.4,21.9c0-7.3,5.4-12.8,12.9-12.8s12.9,5.5,12.9,12.8-5.4,12.8-12.9,12.8-12.9-5.5-12.9-12.8ZM30.6,21.9c0-5.9-4.4-10.3-10.4-10.3s-10.4,4.5-10.4,10.3,4.4,10.3,10.4,10.3,10.4-4.4,10.4-10.3Z"/>
    <path class="cls-1" d="M54.2,15.2l-8.2,19.1h-2.2l-8.4-19.1h2.5l6.9,15.9,6.8-15.9h2.5Z"/>
    <path class="cls-1" d="M75.2,24.8c0,.3,0,.6,0,.9h-16.8c.4,4,3.3,6.7,7.3,6.7s5.2-1.4,6.5-3.7h2.5c-1.7,3.9-4.9,6.1-9,6.1s-9.7-4.3-9.7-9.9,4.2-9.9,9.7-9.9,9.5,4.4,9.5,9.9h0ZM65.7,17.1c-3.8,0-6.7,2.6-7.2,6.3h14.4c-.5-3.9-3.4-6.3-7.2-6.3h0Z"/>
    <path class="cls-1" d="M87.7,28.7h2.4c.2,2.5,2.3,3.8,5.2,3.8s5-1.3,5-3.4-2.6-3.1-5.4-3.5c-3.3-.6-6.8-1.2-6.8-5.3s2.8-5.4,7-5.4,6.9,2.2,7.1,5.7h-2.3c-.1-2.3-1.9-3.6-4.8-3.6s-4.7,1.3-4.7,3.2,2.4,2.7,5.1,3.1c3.3.5,7.1,1.2,7.1,5.7s-3,5.7-7.4,5.7-7.3-2.3-7.5-6Z"/>
    <path class="cls-1" d="M125.1,24.8c0,.3,0,.6,0,.9h-16.8c.4,4,3.3,6.7,7.3,6.7s5.2-1.4,6.5-3.7h2.5c-1.7,3.9-4.9,6.1-9,6.1s-9.7-4.3-9.7-9.9,4.2-9.9,9.7-9.9,9.5,4.4,9.5,9.9h0ZM115.5,17.1c-3.8,0-6.7,2.6-7.2,6.3h14.4c-.5-3.9-3.4-6.3-7.2-6.3h0Z"/>
    <path class="cls-1" d="M141.9,32v2.3h-14.7v-.4l10.8-16.4h-10.1v-2.2h14v.4l-10.7,16.4h10.9Z"/>
    <path class="cls-1" d="M144.2,24.8c0-5.7,4.3-9.9,10.1-9.9s10.1,4.2,10.1,9.9-4.3,9.9-10.1,9.9-10.1-4.2-10.1-9.9ZM161.8,24.8c0-4.4-3.2-7.6-7.6-7.6s-7.6,3.2-7.6,7.6,3.2,7.6,7.6,7.6,7.6-3.2,7.6-7.6Z"/>
    <path class="cls-1" d="M185.7,22.9v11.4h-2.4v-10.8c0-4.1-2-6.4-5.6-6.4s-6.2,2.9-6.2,6.6v10.6h-2.4V15.2h1.7l.5,3.4c1.4-2.3,4-3.8,7-3.8,4.6,0,7.4,3.4,7.4,8.1Z"/>
    <path class="cls-1" d="M209.3,25.7h-16.8c.4,4,3.3,6.7,7.3,6.7s5.2-1.4,6.5-3.7h2.5c-1.7,3.9-4.9,6.1-9,6.1s-9.7-4.3-9.7-9.9,4.2-9.9,9.7-9.9,9.5,4.4,9.5,9.9,0,.6,0,.9ZM199.8,17.1c-3.8,0-6.7,2.6-7.2,6.3h14.4c-.5-3.9-3.4-6.3-7.2-6.3h0Z"/>
  </g>
</svg>