<?xml version="1.0" encoding="utf-8"?>
<!-- Generator: Adobe Illustrator 25.2.0, SVG Export Plug-In . SVG Version: 6.00 Build 0)  -->
<svg version="1.2" baseProfile="tiny" id="Layer_1" xmlns="http://www.w3.org/2000/svg" xmlns:xlink="http://www.w3.org/1999/xlink"
	 x="0px" y="0px" viewBox="0 0 495.1 237.3" overflow="visible" xml:space="preserve">
<g>
	<g>
		<path fill="#FFFFFF" d="M197.8,4.6C189,1.6,180,0,171.7,0c-5,0-18.2,0.7-33.1,7.2c-13.1-4.2-26.9-6.4-41-6.4H83
			C36.4,0.8,0.7,36,0,82.8c0,0,0,64,0,64c0,52.6,34,87.9,84.6,87.9h26.9c13.5,0,27.4-2.7,40.4-7.8c14.6,6.8,30.5,10.5,46,10.5
			c12.9,0,26.7-2.8,39.9-8.1c9.6,3.6,19.4,5.5,28.5,5.5H316c7.3,0,15.1-1,23-3c7.4,2,14.4,3,20.9,3h49.7c58.7,0,85.5-42.3,85.5-81.7
			c0-12.5-3.3-25.3-9.6-37.1c5.1-10.8,7.6-21.8,7.6-33.7c0-40.5-29.8-81.5-86.7-81.5h-45.1c-7.6,0-15.5,1.2-23.5,3.4
			c-8.4-2.3-16.8-3.4-25-3.4h-45.1c-6.2,0-13.1,1-20.6,2.8C239.1,1.2,231.1,0,223.9,0C215.7,0,206.6,1.6,197.8,4.6z M198.1,6
			c8.7-3,17.7-4.6,25.8-4.6c7.2,0,15.1,1.2,22.9,3.6l0.2,0.1l0.2-0.1c7.5-1.9,14.4-2.8,20.5-2.8h45.1c8.1,0,16.5,1.2,24.8,3.4
			l0.2,0.1l0.2-0.1c7.9-2.3,15.8-3.4,23.3-3.4h45.1c56,0,85.2,40.3,85.2,80.1c0,11.8-2.5,22.7-7.6,33.4l-0.2,0.3l0.2,0.3
			c6.3,11.7,9.6,24.4,9.6,36.8c0,38.6-26.3,80.2-84,80.2h-49.7c-6.4,0-13.3-1-20.7-3l-0.2-0.1l-0.2,0c-7.9,2-15.6,3-22.8,3h-49.7
			c-9,0-18.7-1.9-28.2-5.5l-0.3-0.1l-0.3,0.1c-13.1,5.3-26.8,8.1-39.6,8.1c-15.4,0-31.2-3.6-45.7-10.4l-0.3-0.1l-0.3,0.1
			c-12.9,5.1-26.8,7.8-40.2,7.8H84.6c-49.7,0-83.1-34.8-83.1-86.5l0-64C2.2,36.9,37.2,2.2,83,2.2h14.5c14.1,0,27.8,2.2,40.9,6.4
			l0.3,0.1l0.3-0.1c14.8-6.4,27.9-7.1,32.8-7.1c8.2,0,17.1,1.6,25.9,4.6l0.2,0.1L198.1,6z"/>
	</g>
	<g>
		<path fill="#FFFFFF" d="M197.8,12.9c-8.6-3.3-17.6-5-26.1-5c-5,0-18.2,0.8-32.7,7.6c-12.9-4.6-26.9-6.9-41.5-6.9H83
			C40.8,8.7,8.5,40.6,7.9,82.9c0,0,0,63.9,0,63.9c0,48.6,30.1,80,76.7,80h26.9c13.9,0,27.9-2.9,40.7-8.4c14.2,7.2,30,11,45.8,11
			c13.1,0,26.9-3,39.8-8.6c9.4,3.9,19.3,6,28.5,6H316c7.6,0,15.4-1.1,23.1-3.2c7.1,2.1,14.1,3.2,20.8,3.2h49.7
			c53.3,0,77.6-38.2,77.6-73.8c0-12.8-3.6-25.6-10.4-37c5.7-10.5,8.5-21.6,8.5-33.8c0-36.6-27.1-73.6-78.8-73.6h-45.1
			c-7.7,0-15.5,1.3-23.4,3.7c-8.3-2.4-16.7-3.7-25.1-3.7h-45.1c-6.5,0-13.6,1-20.9,3.1c-7.7-2.5-15.6-3.8-22.8-3.8
			C215.5,7.9,206.5,9.6,197.8,12.9z M198.2,14.8c8.5-3.3,17.4-5,25.7-5c7.1,0,14.9,1.3,22.5,3.8l0.3,0.1l0.3-0.1
			c7.3-2,14.2-3,20.7-3h45.1c8.2,0,16.6,1.2,24.8,3.7l0.3,0.1l0.3-0.1c7.8-2.4,15.6-3.7,23.1-3.7h45.1c50.5,0,76.9,36.1,76.9,71.7
			c0,12.1-2.8,23-8.4,33.4l-0.3,0.5l0.3,0.5c6.8,11.2,10.4,23.8,10.4,36.5c0,34.6-23.7,71.8-75.7,71.8h-49.7
			c-6.6,0-13.5-1.1-20.5-3.2l-0.3-0.1l-0.3,0.1c-7.6,2.1-15.3,3.2-22.8,3.2h-49.7c-9.1,0-18.9-2.1-28.2-6l-0.4-0.2l-0.4,0.2
			c-12.8,5.6-26.5,8.6-39.4,8.6c-15.6,0-31.3-3.8-45.3-11l-0.4-0.2l-0.4,0.2c-12.6,5.5-26.5,8.4-40.3,8.4H84.6
			c-45.4,0-74.8-30.7-74.8-78.1l0-63.9C10.5,41.7,41.9,10.6,83,10.6h14.5c14.6,0,28.4,2.3,41.3,6.9l0.4,0.1l0.4-0.2
			c14.2-6.9,27.2-7.6,32.2-7.6c8.3,0,17.2,1.7,25.7,5l0.3,0.1L198.2,14.8z"/>
	</g>
	<g>
		<path fill="#FFFFFF" d="M197.8,21.3c-8.4-3.6-17.4-5.5-26.1-5.5c-5.1,0-18.3,0.8-32.1,8.2c-12.7-5-26.9-7.5-42.1-7.5H83
			c-37.8,0-66.7,28.6-67.3,66.5v63.8c0,44.5,26.4,72.2,68.8,72.2h26.9c14.4,0,28.5-3.2,40.9-9.2c13.7,7.7,29.4,11.8,45.5,11.8
			c13.4,0,27.2-3.2,39.8-9.3c9.2,4.3,19.1,6.7,28.6,6.7H316c7.8,0,15.6-1.2,23.2-3.5c7,2.3,14,3.5,20.7,3.5h49.7
			c47.9,0,69.7-34.2,69.7-65.9c0-13.2-4.1-26-11.7-36.9c4.6-7.5,9.7-18.1,9.7-33.9c0-32.7-24.4-65.7-70.9-65.7h-45.1
			c-7.8,0-15.6,1.4-23.3,4c-8.2-2.7-16.6-4-25.1-4h-45.1c-7,0-14.1,1.1-21.2,3.3c-7.5-2.7-15.2-4.1-22.5-4.1
			C215.2,15.8,206.3,17.7,197.8,21.3z M198.3,23.7c8.2-3.6,17.1-5.5,25.6-5.5c7.1,0,14.7,1.4,22,4l0.4,0.1l0.4-0.1
			c7-2.2,14-3.3,20.9-3.3h45.1c8.4,0,16.7,1.4,24.8,4l0.4,0.1l0.4-0.1c7.6-2.7,15.3-4,22.9-4h45.1c45,0,68.5,31.9,68.5,63.3
			c0,15.7-5.2,26-9.7,33.3l-0.4,0.7l0.5,0.7c7.6,10.7,11.6,23.2,11.6,36.2c0,30.6-21.1,63.5-67.3,63.5h-49.7
			c-6.6,0-13.4-1.2-20.3-3.5l-0.4-0.1l-0.4,0.1c-7.4,2.3-15.1,3.5-22.8,3.5h-49.7c-9.3,0-19-2.3-28-6.7l-0.5-0.3l-0.5,0.3
			c-12.5,6-26.1,9.2-39.3,9.2c-15.9,0-31.5-4.1-44.9-11.7l-0.6-0.3l-0.6,0.3c-12.2,6-26.1,9.2-40.4,9.2H84.6
			c-40.9,0-66.4-26.7-66.4-69.7V83.1C18.8,46.5,46.6,19,83,19h14.5c15.1,0,29.2,2.5,41.7,7.5l0.5,0.2l0.5-0.3
			c13.5-7.4,26.5-8.2,31.4-8.2c8.5,0,17.4,1.9,25.6,5.5l0.5,0.2L198.3,23.7z"/>
	</g>
	<g>
		<path fill="#FFFFFF" d="M197.8,29.8c-8.2-4-17.1-6.2-26.1-6.2c-5.1,0-18.4,0.9-31.4,9c-12.4-5.5-26.7-8.3-42.7-8.3H83
			c-33.3,0-58.9,25.3-59.4,58.7v63.7c0,40.2,22.8,64.3,60.9,64.3h26.9c15.1,0,29.4-3.6,41.3-10.2c13.3,8.3,28.8,12.8,45.1,12.8
			c13.8,0,27.5-3.5,39.9-10.1c8.9,4.9,18.7,7.5,28.5,7.5H316c8.1,0,15.9-1.3,23.3-3.9c6.8,2.6,13.7,3.9,20.6,3.9h49.7
			c42.5,0,61.8-30.1,61.8-58c0-13.4-4.8-26.2-13.4-36.5c6-8.7,11.4-19,11.4-34.3c0-28.7-21.7-57.8-63-57.8h-45.1
			c-7.9,0-15.8,1.5-23.3,4.4c-7.9-2.9-16.4-4.4-25.2-4.4h-45.1c-7.2,0-14.4,1.3-21.4,3.7c-7.2-2.9-14.9-4.5-22.3-4.5
			C215,23.7,206,25.8,197.8,29.8z M198.5,32.7c7.9-4,16.7-6.2,25.4-6.2c7.2,0,14.7,1.5,21.7,4.5l0.5,0.2l0.5-0.2
			c6.8-2.5,13.9-3.7,21-3.7h45.1c8.6,0,17,1.5,24.7,4.4l0.5,0.2l0.5-0.2c7.3-2.9,15-4.4,22.7-4.4h45.1c39.5,0,60.1,27.6,60.1,54.9
			c0,14.2-4.6,23.7-11.5,33.5l-0.7,0.9l0.7,0.9c8.6,9.9,13.4,22.5,13.4,35.5c0,26.5-18.4,55.1-58.9,55.1h-49.7
			c-6.7,0-13.4-1.3-20.1-3.8l-0.5-0.2l-0.5,0.2c-7.2,2.6-14.9,3.9-22.8,3.9h-49.7c-9.5,0-19.1-2.6-27.8-7.4l-0.7-0.4l-0.7,0.4
			c-12.1,6.6-25.6,10-39.2,10c-16,0-31.4-4.4-44.3-12.7l-0.7-0.5l-0.8,0.4c-11.6,6.7-25.7,10.2-40.6,10.2H84.6
			c-36.3,0-58-22.9-58-61.4V83.2C27,51.4,51.3,27.3,83,27.3h14.5c15.9,0,30.1,2.8,42.3,8.3l0.7,0.3l0.7-0.4
			c12.6-8.1,25.6-8.9,30.5-8.9c8.9,0,17.4,2.1,25.4,6.2l0.7,0.3L198.5,32.7z"/>
	</g>
	<g>
		<path fill="#FFFFFF" d="M197.8,38.7c-7.9-4.7-16.6-7.2-26.1-7.2c-4.1,0-18.1,0.8-30.6,10.1c-11.9-6.1-26.5-9.3-43.6-9.3H83
			c-28.9,0-51,21.9-51.5,51c0,0,0,63.5,0,63.5c0,35.8,19.3,56.4,53,56.4h26.9c15.7,0,29.9-4.1,41.5-11.7c12.8,9.3,28.3,14.3,45,14.3
			c14.4,0,28.1-3.9,40-11.1c8.4,5.5,18.2,8.5,28.4,8.5H316c8.4,0,16.3-1.5,23.4-4.4c6.6,2.9,13.5,4.4,20.5,4.4h49.7
			c37.3,0,53.9-25.2,53.9-50.1c0-13.6-5.7-26.6-15.6-35.8c0.9-1.3,2.5-3.6,2.5-3.6c6.9-9.6,11.1-18.3,11.1-31.4
			c0-24.1-17.3-50-55.2-50h-45.1c-8.1,0-15.9,1.7-23.2,5c-7.7-3.3-16.2-5-25.3-5h-45.1c-7.5,0-14.8,1.5-21.6,4.3
			c-7-3.3-14.5-5-22.1-5C214.5,31.5,205.7,34,197.8,38.7z M198.7,42c7.5-4.7,16-7.1,25.2-7.1c7.4,0,14.6,1.7,21.3,5l0.7,0.3l0.7-0.3
			c6.6-2.8,13.7-4.3,21-4.3h45.1c9,0,17.2,1.7,24.6,4.9l0.7,0.3l0.7-0.3c7-3.3,14.5-4.9,22.4-4.9h45.1c35.6,0,51.8,24.1,51.8,46.6
			c0,12.3-4,20.4-10.5,29.5c0,0-4.2,6-4.2,6l1.1,1c10,8.8,15.6,21,15.6,34.3c0,23.3-15.6,46.7-50.6,46.7h-49.7
			c-6.7,0-13.4-1.5-19.8-4.3l-0.7-0.3l-0.7,0.3c-6.9,2.9-14.6,4.3-22.8,4.3h-49.7c-9.8,0-19.3-2.9-27.4-8.5l-0.9-0.6l-0.9,0.6
			c-11.5,7.3-25.1,11.1-39.1,11.1c-16.3,0-31.5-4.9-43.9-14.2l-1-0.7l-1,0.7c-11.1,7.6-25.2,11.7-40.6,11.7H84.6
			c-31.5,0-49.6-19.3-49.6-53l0-63.5C35.3,56.2,56,35.7,83,35.7h14.5c16.9,0,31.4,3.1,42.9,9.3l1,0.5l0.9-0.7
			c11.8-9.2,25.5-10,29.4-10c9.2,0,17.7,2.4,25.2,7.1l0.9,0.6L198.7,42z"/>
	</g>
	<g>
		<path fill="#FFFFFF" d="M197.9,48.1c-7.3-5.6-16.2-8.7-26.1-8.7c-4.2,0-18.5,1-29.7,11.8c-11.4-7.3-26.3-11-44.5-11H83
			c-24.5,0-43.2,18.6-43.6,43.2v63.4c0,40.1,24.5,48.5,45.1,48.5h26.9c16.5,0,30.8-4.7,41.7-13.6c12.3,10.6,27.7,16.2,44.7,16.2
			c14.8,0,28.6-4.5,40.1-12.8c7.7,6.6,17.6,10.2,28.2,10.2H316c8.8,0,16.7-1.7,23.6-5.1c6.4,3.3,13.2,5.1,20.3,5.1h49.7
			c34,0,46-22.7,46-42.2c0-14-6.9-26.7-18.4-34.3c1.7-2.4,6.7-9.6,6.7-9.6c6.1-8.6,9.7-15.8,9.7-26.9c0-20.9-14.6-42.1-47.3-42.1
			h-45.1c-8.4,0-16.1,2-23.1,5.7c-7.2-3.8-15.8-5.7-25.4-5.7h-45.1c-7.9,0-15.2,1.7-21.8,5.1c-6.6-3.8-13.9-5.8-21.9-5.8
			C214.1,39.4,205.1,42.5,197.9,48.1z M199.1,51.9c6.8-5.6,15.3-8.6,24.8-8.6c7.6,0,14.6,1.9,20.8,5.8c0.6,0.4,1.3,0.4,1.9,0.1
			c6.3-3.4,13.4-5.1,21-5.1h45.1c9.4,0,17.6,1.9,24.5,5.7c0.6,0.3,1.3,0.3,1.9,0c6.6-3.8,14-5.7,22.1-5.7h45.1
			c30,0,43.4,19.2,43.4,38.2c0,10.1-3.3,16.7-9,24.7c0,0-7.9,11.2-7.9,11.2c-0.3,0.4-0.4,1-0.3,1.5c0.1,0.5,0.4,1,0.9,1.3
			c11.6,6.9,18.2,18.6,18.2,32.2c0,17.7-11,38.4-42.2,38.4h-49.7c-6.8,0-13.3-1.7-19.4-5c-0.6-0.3-1.2-0.3-1.8,0
			c-6.5,3.3-14.1,5-22.7,5h-49.7c-10.2,0-19.7-3.6-26.8-10.1c-0.7-0.6-1.7-0.7-2.5-0.1c-11.1,8.4-24.6,12.9-39,12.9
			c-16.6,0-31.6-5.6-43.4-16.3c-0.7-0.7-1.8-0.7-2.6,0c-10.3,9-24.3,13.7-40.5,13.7H84.6c-18.8,0-41.3-7.7-41.3-44.6V83.4
			C43.6,61,60.7,44.1,83,44.1h14.5c18.1,0,32.8,3.7,43.6,11.1c0.8,0.5,1.8,0.4,2.5-0.3c10.2-10.8,24.1-11.6,28.1-11.6
			c9.5,0,18.1,3,24.9,8.6C197.3,52.5,198.4,52.5,199.1,51.9z"/>
	</g>
	<g>
		<path fill="#FFFFFF" d="M197.9,58.9c-6.4-7.4-15.6-11.5-26.1-11.5c-4.6,0-19.5,1.2-28.4,14.6c-10.4-9.1-25.7-13.8-45.7-13.8H83
			c-20.1,0-35.4,15.2-35.7,35.4v63.3c0,26.9,12.5,40.6,37.2,40.6h26.9c17.5,0,32.2-5.9,41.8-16.6c11.3,12.4,27,19.2,44.7,19.2
			c15.7,0,29.7-5.4,40.7-15.5c6.6,8.2,16.5,12.9,27.6,12.9H316c9.5,0,17.4-2.2,23.7-6.2c6,4,12.9,6.2,20.2,6.2h49.7
			c28.1,0,38.2-17.7,38.2-34.3c0-11.6-6-25.6-22.1-31.5c2.5-3.6,11.9-17,11.9-17c5.3-7.5,8.2-13.3,8.2-22.4
			c0-15.8-10.3-34.2-39.4-34.2h-45.1c-8.8,0-16.6,2.5-23,7c-6.6-4.6-15.2-7-25.5-7h-45.1c-8.3,0-15.9,2.3-22.1,6.4
			c-6-4.7-13.4-7.2-21.6-7.2C213.4,47.3,204.2,51.4,197.9,58.9z M197.9,64.5c0.7,0,1.4-0.3,1.8-0.9c5.6-7.7,14.2-11.9,24.3-11.9
			c7.8,0,14.7,2.5,20.1,7.1c0.8,0.7,1.9,0.7,2.7,0.1c5.7-4.2,12.9-6.4,20.9-6.4h45.1c10,0,18.2,2.3,24.2,7c0.8,0.6,1.9,0.6,2.7,0
			c5.8-4.5,13.3-6.9,21.6-6.9h45.1c25.9,0,35,16.1,35,29.8c0,8-2.4,12.8-7.4,19.9c0,0-13.5,19.3-13.5,19.3c-0.4,0.6-0.5,1.3-0.3,2
			c0.2,0.7,0.8,1.2,1.5,1.4c16,4.6,21.8,17.6,21.8,28.4c0,14.5-8.9,30-33.8,30h-49.7c-6.9,0-13.4-2.1-18.9-6.2
			c-0.8-0.6-1.8-0.6-2.6,0c-5.7,4.1-13.3,6.2-22.4,6.2h-49.7c-10.6,0-19.9-4.7-25.6-12.9c-0.4-0.5-0.9-0.9-1.6-0.9
			c-0.6-0.1-1.3,0.2-1.7,0.6c-10.4,10.3-24,15.8-39.5,15.8c-17.2,0-32.4-6.9-43-19.5c-0.4-0.5-1-0.8-1.7-0.8c-0.6,0-1.3,0.3-1.7,0.8
			c-8.6,10.8-22.9,16.8-40.1,16.8H84.6c-29.5,0-32.9-20.7-32.9-36.3V83.6C51.9,65.8,65.4,52.4,83,52.4h14.5
			c20.1,0,35.1,4.8,44.6,14.2c0.5,0.5,1.2,0.7,1.8,0.6c0.7-0.1,1.3-0.5,1.6-1.1c7.3-13.1,20.7-14.5,26.1-14.5
			c10.1,0,18.8,4.2,24.4,11.9C196.5,64.1,197.2,64.5,197.9,64.5z"/>
		<path fill="#FFFFFF" d="M338.9,105.4c-0.6,0.1-1.1,0.4-1.4,0.9l-10.6,15.1c-0.4,0.6-0.5,1.3-0.3,2c0.2,0.7,0.8,1.2,1.5,1.4
			c3.3,0.9,6.3,2.2,8.8,3.9c1,0.6,2.3,0.4,3-0.6l10.2-14.6c0.4-0.6,0.5-1.3,0.3-1.9c-0.2-0.7-0.7-1.2-1.4-1.4
			c-3.2-1.1-6-2.5-8.4-4.3C340,105.5,339.4,105.3,338.9,105.4z M339.8,110.5c1.6,1,3.3,1.9,5.1,2.7c-1.7,2.4-6.3,9-7.6,10.8
			c-1.7-0.9-3.4-1.7-5.3-2.4C332.9,120.3,338.2,112.8,339.8,110.5z"/>
	</g>
	<g>
		<path fill="#FFFFFF" d="M197.9,75.5c-3.3-12.6-12.8-20.3-26.1-20.3c-7,0-22.1,2.3-26.4,21.7C137.9,63.1,121.9,56,97.6,56H83
			c-15.6,0-27.6,11.9-27.8,27.7v63.2c0,15.2,3.3,32.7,29.4,32.7h26.9c19.9,0,34.6-8,41.4-22.2c9.5,15.7,25.6,24.7,45,24.7
			c17.4,0,32.4-7.6,42.3-21c3.4,11,13.5,18.4,26.1,18.4H316c10.6,0,18.4-3,23.6-8.7c5.1,5.4,12.2,8.7,20.3,8.7h49.7
			c28.1,0,30.3-20.3,30.3-26.5c0-11.6-7.4-24.9-27.6-26.2c3.9-5.5,18.8-26.8,18.8-26.8c4.7-6.6,6.8-10.8,6.8-17.8
			c0-12.7-8.3-26.3-31.5-26.3h-45.1c-9.6,0-17.8,3.4-23,9.5c-4.2-4.8-11.7-9.5-25.5-9.5h-45.1c-9.4,0-17.2,3.4-22.4,9.2
			c-6.4-8.5-15.9-10-21.3-10C210.6,55.2,201.2,63,197.9,75.5z M198.3,132.1c0.8,0,1.6-0.4,2-1c0.6-0.9,1-2.6,1-4.6V85.6
			c0-15.8,8.6-25.6,22.5-25.6c4.9,0,13.9,1.3,19,10.2c0.4,0.7,1.2,1.2,2,1.2c0.8,0,1.6-0.4,2.1-1.1c4.1-6.2,11.5-9.6,20.7-9.6h45.1
			c11.4,0,19.3,3.4,23.5,10c0.4,0.7,1.2,1.1,2,1.1c0.8,0,1.6-0.4,2-1.1c4-6.3,11.6-10,20.9-10h45.1c24.1,0,26.7,15,26.7,21.5
			c0,5.7-1.5,8.9-5.9,15.1c0,0-21.3,30.3-21.3,30.3c-0.5,0.7-0.6,1.7-0.2,2.5c0.4,0.8,1.2,1.3,2.1,1.3h1.3c24,0,25.9,16.5,25.9,21.6
			c0,8.1-3.3,21.6-25.4,21.6h-49.7c-7.5,0-14.2-3.2-18.3-8.7c-0.5-0.6-1.2-1-2-1c-0.8,0-1.5,0.4-1.9,1c-4.1,5.8-11.4,8.7-21.7,8.7
			h-49.7c-12.2,0-21.6-8.4-22.4-20c-0.1-1.1-0.8-1.9-1.9-2.2c-1-0.2-2.1,0.2-2.6,1.1c-8.7,15-23.8,23.6-41.4,23.6
			c-19.3,0-35-9.6-43.2-26.4c-0.4-0.9-1.4-1.4-2.3-1.4c-1,0.1-1.8,0.7-2.1,1.7c-4.9,14.9-19,23.5-38.8,23.5H84.6
			C63,174.7,60,161.3,60,146.8V83.7c0.2-13,10.1-22.9,23-22.9h14.5c26.7,0,42.5,8.8,46.8,26.3c0.3,1.2,1.4,2,2.6,1.8
			c1.2-0.1,2.1-1.1,2.2-2.3c0.6-21.9,12.7-26.5,22.7-26.5c14,0,22.7,9.9,22.7,25.7V126c0,2.1,0.3,3.7,0.9,4.8
			c0.4,0.7,0.7,1.1,1.4,1.2l1.1,0.1L198.3,132.1z"/>
		<path fill="#FFFFFF" d="M248.2,97.9c-0.9,0.4-1.4,1.3-1.4,2.2v24.4c0,3.6-0.3,7.1-0.8,10.5c-0.2,1.1,0.4,2.2,1.5,2.6
			c1,0.4,2.2,0.1,2.9-0.9l20.6-29.4c0.5-0.7,0.6-1.7,0.2-2.5c-0.4-0.8-1.2-1.3-2.1-1.3h-2.7c-6,0-11.3-1.8-15.4-5.3
			C250,97.7,249,97.5,248.2,97.9z M251.6,124.5c0,0,0-13.7,0-19.8c3.8,2.1,8.1,3.3,12.8,3.5c-2.8,4-8,11.4-12.8,18.3
			C251.5,125.9,251.6,125.2,251.6,124.5z"/>
		<path fill="#FFFFFF" d="M336.1,93.5l-2.6,3.9c0,0-21.3,30.3-21.3,30.3c-0.5,0.7-0.6,1.7-0.2,2.5c0.4,0.8,1.2,1.3,2.1,1.3h1.3
			c10,0,17.6,3.1,21.9,8.9c0.5,0.6,1.2,1,2,1c0.8,0,1.5-0.5,2-1.1l0.1-0.2c0,0,0,0,0,0l0,0l0,0c0,0,22.9-32.6,22.9-32.6
			c0.3-0.4,0.4-0.9,0.4-1.4c0-0.4-0.1-0.8-0.3-1.1c-0.4-0.8-1.2-1.3-2.1-1.3h-2.7c-8.5,0-15.6-3.7-19.5-10.1c-0.4-0.7-1.2-1.1-2-1.1
			C337.4,92.3,336.6,92.8,336.1,93.5z M338.4,98.8c4.7,5.7,11.5,9,19.6,9.5c-3.7,5.3-16.4,23.4-18.8,26.8
			c-3.8-3.9-10.1-7.6-20.5-8.2c4-5.6,18.7-26.7,18.7-26.7C337.5,100.1,337.9,99.5,338.4,98.8z M337.6,137.3 M341.6,140 M341.6,140
			L341.6,140L341.6,140z"/>
	</g>
	<g>
		<path fill="#FFFFFF" d="M223.9,65.7c-10.7,0-16.8,7.3-16.8,19.9v40.8c0,7.2-3.4,11.3-9.2,11.3c-5.8,0-9.2-4.1-9.2-11.8V85.8
			c0-12.5-6.4-20-17-20c-11.5,0-17,7.3-17,22.6v36.1c0,27.8,17.6,47.1,43.1,47.1c25.3,0,43.1-19.6,43.1-47.1V88.1
			C241,73.2,235.4,65.7,223.9,65.7z M239.1,124.5c0,26.6-16.9,45.2-41.2,45.2c-24.3,0-41.2-18.6-41.2-45.2V88.4
			c0-18.6,8.6-20.7,15.1-20.7c9.6,0,15.1,6.6,15.1,18.1V126c0,8.6,4.1,13.7,11.1,13.7s11.1-4.9,11.1-13.2V85.6
			c0-11.6,5.3-18,14.9-18c10.2,0,15.2,6.7,15.2,20.4V124.5z"/>
		<path fill="#FFFFFF" d="M315.5,137.2h-17l30.3-43.1c4.1-5.8,4.9-7.8,4.9-11.8c0-10.4-7.2-15.8-21-15.8h-45.1
			c-11.3,0-18.3,6.1-18.3,15.8c0,9.2,6.9,15.6,16.8,15.6h18.4l-31.8,45.4c-2.1,2.9-3.2,6.4-3.2,9.8c0,9.3,7,15.9,16.8,15.9H316
			c13.3,0,19.7-5.2,19.7-15.9C335.7,142.8,328.5,137.2,315.5,137.2z M316,167.1h-49.7c-8.8,0-14.9-5.8-14.9-14c0-3.1,1-6.2,2.8-8.7
			c0,0,34-48.5,34-48.5h-22c-8.9,0-14.9-5.5-14.9-13.7c0-8.7,6.1-13.9,16.4-13.9h45.1c12.8,0,19,4.5,19,13.9c0,3.4-0.5,5-4.5,10.7
			c0,0-32.4,46.2-32.4,46.2h20.7c8.3,0,18.3,2.4,18.3,14C333.8,162.8,328.3,167.1,316,167.1z"/>
		<path fill="#FFFFFF" d="M135.2,114.2c3.8-6.7,4.7-9.8,4.7-15.9c0-21.9-13.1-31.8-42.4-31.8H83c-9.9,0-17.1,7.2-17.3,17.3v5v58
			c0,16.8,4.6,22.2,18.8,22.2h26.9c22.2,0,35-11.2,35-30.4C146.5,128.8,143.3,122,135.2,114.2z M111.5,167.1H84.6
			c-13.1,0-16.9-4.5-16.9-20.3v-63c0.1-9,6.5-15.4,15.4-15.4h14.5c28,0,40.5,9.2,40.5,29.9c0,5.7-0.8,8.5-4.5,15l-0.7,1.3l1.1,1
			c7.8,7.5,10.7,13.7,10.7,22.9C144.6,156.7,132.5,167.1,111.5,167.1z"/>
		<path fill="#FFFFFF" d="M409.2,137.2h-17l30.3-43.1c4.1-5.8,4.9-7.8,4.9-11.8c0-10.4-7.2-15.8-21-15.8h-45.1
			c-11.3,0-18.4,6.1-18.4,15.8c0,9.2,6.9,15.6,16.8,15.6h18.4l-31.8,45.4c-2.2,2.9-3.2,6.4-3.2,9.8c0,9.3,7,15.9,16.8,15.9h49.7
			c13.3,0,19.7-5.2,19.7-15.9C429.3,142.8,422.2,137.2,409.2,137.2z M409.6,166.6h-49.7c-8.5,0-14.4-5.6-14.4-13.5c0-3,1-6,2.7-8.3
			c0-0.1,34.5-49.3,34.5-49.3h-23c-8.6,0-14.4-5.3-14.4-13.2c0-8.4,6-13.3,15.9-13.3h45.1c18.5,0,18.5,10,18.5,13.3
			c0,3.3-0.5,4.8-4.4,10.4c0,0-33,47-33,47h21.6c8.1,0,17.8,2.3,17.8,13.5C426.9,159.4,425,166.6,409.6,166.6z"/>
	</g>
</g>
<g>
</g>
<g>
</g>
<g>
</g>
<g>
</g>
<g>
</g>
<g>
</g>
</svg>
