<svg width="314" height="63" viewBox="0 0 314 63" fill="none" xmlns="http://www.w3.org/2000/svg">
<g clip-path="url(#clip0)">
<path d="M101.2 0.1C101.2 0.1 101.4 17.7 101.2 25.8V36.5C101.5 44.8 98.3 59.4 78.2 59.4C63.4 59.4 55.2 48.3 55.2 36.5V2.8H63.5V36.5C63.5 42.2 66.3 51.2 78.3 51.2C90.3 51.2 93.1 45.6 93.1 36.5V2.8H95.9C95.9 4.9 96.1 27.7 95.9 36.5C95.9 41.6 95.9 53.9 78.4 53.9C66.4 53.9 60.9 45.6 60.9 36.5C60.9 15.5 61 14.6 60.9 11V5.5H58.1V36.4C58.1 45.5 63.6 56.6 78.4 56.6C95.9 56.6 99 44.5 98.8 36.4C99 27.6 98.8 19.6 98.8 10.1V0H90.5V36.4C90.5 41.1 90.5 48.3 78.5 48.3C74.7 48.3 66.5 45.5 66.5 36.4V0L52.4 0.1V5.4C52.5 12.3 52.4 19.4 52.4 26.2V36.5C52.4 48.4 60.7 62.2 78.2 62.2C97.7 62.2 104.1 49.7 104.1 36.5V24.9C104.2 16.9 104.1 0 104.1 0H101.2V0.1Z" fill="#BC1F3C"/>
<path d="M139.6 0.0999756H122V27.7H139.6C150.6 27.7 152 11.1 139.6 11.1H127.4V22.2H130.2V13.8H139.6C147.9 13.8 147.9 24.9 139.6 24.9H124.7V2.79998C128.4 2.69998 135.9 2.79998 139.6 2.79998C162.4 2.79998 162.5 36 139.6 36H127.5V59.4H119.3V0.0999756H116.5V62.2H130.2V38.9H139.6C166 38.9 166.2 0.0999756 139.6 0.0999756Z" fill="#BC1F3C"/>
<path d="M210.1 48.4H184.1V41.6H181.3V51.2H207.3V53.5C207.3 53.6 207.4 56.5 207.3 59.5H173V0.200012H170.2V62.3H210V60.8C210.1 58.5 210 51.4 210 50.9V48.4H210.1Z" fill="#BC1F3C"/>
<path d="M263.3 38.3L260.8 39.5C260.8 39.5 268.7 55 270.9 59.5H262.1L250.1 36.1H238.4V59.5H230.1V0.200012H227.3V62.3H241.1V38.9H248.3L260.6 62.2H275.2L273.8 59.4C273.6 58.8 263.3 38.3 263.3 38.3Z" fill="#BC1F3C"/>
<path d="M204.6 38.9V25H184.1V8.39998H204.6V5.59998H181.3V27.7H201.8V36H175.8V56.6H204.6V53.8H178.6V38.7H204.6V38.9Z" fill="#BC1F3C"/>
<path d="M235.7 2.89998H250.1C267 2.79998 271.1 22.5 263 30.7C261.694 32.1124 260.133 33.2659 258.4 34.1C256.74 34.8928 255.037 35.5939 253.3 36.2L263.8 56.8H266.8L257.2 37.7C276.6 32.9 275.3 0.199976 250.3 0.299976L233 0.0999756V56.7H235.8L235.7 2.89998Z" fill="#BC1F3C"/>
<path d="M175.8 29.2V33.3H199.1V30.5H178.6V2.89998H207.4V11.1H186.9V13.9H210.2V0.0999756H175.9L176 2.59998V5.69998C175.7 14.1 175.7 21.8 175.8 29.2Z" fill="#BC1F3C"/>
<path d="M250.1 8.3C265 8.3 265.6 30.4 250.1 30.4H238.4V33.2H250.1C269.4 33.2 268.6 5.6 250.1 5.6C247.3 5.4 241.6 5.6 241.2 5.6H238.4V13.8H250.1C258.3 13.8 258.3 24.9 250.1 24.9H241.2V19.3H238.4V27.7H250.1C262 27.7 261.8 11.1 250.1 11.1H241.2V8.3H250.1Z" fill="#BC1F3C"/>
<path d="M139.6 33.2C158.9 33.2 158.9 5.59998 139.6 5.59998H127.5V8.29998C127.5 8.29998 137.6 8.19998 139.6 8.29998C155.2 8.29998 155 30.4 139.6 30.4H122V56.6H124.7V33.1C124.7 33.2 138.5 33.2 139.6 33.2Z" fill="#BC1F3C"/>
<path d="M13.7 4.8C17.8688 3.10423 22.4937 2.8924 26.8 4.20001C31.5066 5.62246 36.0886 7.42851 40.5 9.60001L41.9 6.90001C41.9 6.90001 33.9 2.80001 27.7 1.20001C22.7378 -0.325012 17.3998 -0.0775552 12.6 1.90001C6.9 4.10001 3.1 8.50001 1.4 14.9C-0.6 22.3 3.5 29.4 8.1 32.9C11.2849 35.2078 14.8341 36.9655 18.6 38.1C20.6443 38.6941 22.5963 39.5691 24.4 40.7C25.8 41.6 26.3 42.9 26 45C25.9 45.8 24.2 47.1 22.4 47.1C19.2 47.1 6.8 42.6 6.5 42.5L5 41.9L0 55.5L1.4 56.1C1.7 56.2 9.6 59.7 13.3 60.7C15.7212 61.5047 18.2492 61.9428 20.8 62H20.9C30.1 61.9 36.4 58 39.8 50.2C41.9 45.3 41.9 37.4 36.7 31.8C33.978 28.9305 30.6217 26.7387 26.9 25.4C25.8 25 24.8 24.6 23.7 24.3C22.1625 23.8381 20.6589 23.27 19.2 22.6C18.0664 22.1162 17.0948 21.3181 16.4 20.3C16.1075 19.882 15.9265 19.3963 15.874 18.8889C15.8215 18.3815 15.8993 17.869 16.1 17.4C16.3052 16.877 16.6442 16.4171 17.0829 16.0661C17.5216 15.7151 18.0447 15.4854 18.6 15.4C21.9 14.8 25.1 15.6 28.8 17C30.3 17.6 34.5 19.2 34.5 19.2L35.8 19.7L39.5 11.8L38 11.2C37.7 11.1 25.5 4.50001 16.8 6.50001C11.3 7.30001 9.53674e-07 17.4 11.7 28.3C14.4 30.1685 17.3668 31.6182 20.5 32.6C21.2 32.8 21.9 33.1 22.6 33.3C24.6861 34.002 26.67 34.9771 28.5 36.2C29.7239 37.0122 30.7109 38.134 31.3608 39.4513C32.0107 40.7687 32.3002 42.2345 32.2 43.7C32.1511 45.294 31.6931 46.8487 30.87 48.2146C30.047 49.5806 28.8865 50.7119 27.5 51.5C24.9 53.1 21.6 53.9 16.4 52.3C14.9 51.9 8.3 49.7 8.3 49.7L7.3 52.5C7.3 52.5 13.6 54.8 15.7 55.3C20.5 56.5 24.1 56.8 29 54.3C30.8478 53.2453 32.3962 51.7367 33.4985 49.9169C34.6009 48.0971 35.221 46.0262 35.3 43.9C35.4382 41.9102 35.0486 39.9191 34.1707 38.1281C33.2927 36.3371 31.9575 34.8096 30.3 33.7C28.2693 32.377 26.087 31.3026 23.8 30.5C23.1 30.2 22.4 30 21.7 29.7C18.8726 28.8844 16.2021 27.5999 13.8 25.9C4.1 17.3 14.1 10.1 17.7 9.60001C21.8 8.8 25.6 9.8 28.6 10.8C30.2 11.3 33.6 12.7 35.5 13.5L34.4 15.9C33 15.4 31 14.6 30 14.2C26.4 12.8 22.4 11.7 18.2 12.4C17.1212 12.5857 16.1067 13.0404 15.2502 13.7221C14.3938 14.4038 13.723 15.2904 13.3 16.3C12.8973 17.2549 12.7412 18.2957 12.8461 19.3267C12.9509 20.3577 13.3133 21.3457 13.9 22.2C14.9493 23.6049 16.3213 24.7368 17.9 25.5C19.448 26.2305 21.0534 26.8326 22.7 27.3C23.7 27.7 24.7 28 25.7 28.4C28.9942 29.5685 31.9723 31.4854 34.4 34C36.1552 36.049 37.3161 38.5394 37.7568 41.2012C38.1975 43.863 37.9012 46.5946 36.9 49.1C34 55.8 28.8 59 20.8 59.1C14.9 58.8 6.3 55 3.9 54L6.8 46.1C8.6 46.8 17.8 50.6 22.3 50.4C25.5 50.3 28.6 48.1 29 45.6C29.5 42.3 28.5 39.8 26 38.3C23.9523 37.0862 21.7711 36.1131 19.5 35.4C16.0577 34.3864 12.8118 32.7973 9.9 30.7C6.2 27.5 2.8 21.7 4.4 15.7C5.9 10.2 8.9 6.70001 13.7 4.8Z" fill="#BC1F3C"/>
<path d="M300.9 62.3H298.3V18.9H301.4V59.2H310.7V3.49998H304.4C302.3 4.89998 294.4 10.2 291.7 11.9V16.1C293.5 14.9 296.7 12.7 302.1 8.89998L302.5 8.59998H307.8V56.8H304.6V11.7H303.5C292.2 19.5 291 20.2 290.9 20.3L288.5 21.8V9.89998L289.3 9.39998C290.2 8.89998 298 3.69998 303 0.399976L303.4 0.0999756H313.9V4.39998C313.8 21.6 313.9 56.4 313.9 56.7V62.2H312.3C312.4 62.3 304.1 62.3 300.9 62.3Z" fill="#BC1F3C"/>
<path d="M294.6 21.6H300.7V19H298.4L294.6 21.6Z" fill="#BC1F3C"/>
</g>
<defs>
<clipPath id="clip0">
<rect width="313.9" height="62.3" fill="white"/>
</clipPath>
</defs>
</svg>
