<?xml version="1.0" encoding="utf-8"?>
<!-- Generator: Adobe Illustrator 25.0.1, SVG Export Plug-In . SVG Version: 6.00 Build 0)  -->
<svg version="1.1" id="Layer_1" xmlns="http://www.w3.org/2000/svg" xmlns:xlink="http://www.w3.org/1999/xlink" x="0px" y="0px"
	 viewBox="0 0 145 217" style="enable-background:new 0 0 145 217;" xml:space="preserve">
<style type="text/css">
	.st0{fill:#FFFFFF;}
	.st1{fill:#064A42;}
	.st2{clip-path:url(#SVGID_2_);}
</style>
<g>
	<path class="st0" d="M69,212.7c-41.8,0-55.3-2.4-56.7-3.9c-1.5-2.6-4.7-31.9-7.2-74.7C2.4,86.8,2.9,62.4,4.6,59.5
		c4.7-1.9,57.4-4.8,94.5-4.8c27.3,0,31.6,1.6,32.3,2.1c1.5,2.9,5.1,32.5,8.3,75.8c3.6,48.5,3.7,73.5,2.3,76.4
		C138.8,210.7,107.2,212.7,69,212.7z"/>
	<path class="st1" d="M99.1,56.2c23.3,0,29.5,1.2,31.1,1.7c1.6,5.1,4.9,34,8,74.6c3.4,45.4,3.7,70.3,2.6,75.3
		c-5.6,1.7-36.2,3.5-71.7,3.5c-38.3,0-52.7-2-55.5-3.4c-1.6-4.7-4.6-34.5-6.9-73.4c-2.6-44.4-2.3-68.8-1-73.8
		C13.2,59,60.9,56.2,99.1,56.2L99.1,56.2 M99.1,53.2c-37.4,0-92.9,3-95.5,5.1c-5.8,4.6,3.3,144.3,7.5,151.4
		C13,213,40,214.2,69,214.2c34.1,0,71.2-1.8,73.9-4.2c5.1-4.6-6.4-148.3-10.4-154.2C131.2,53.9,117.3,53.2,99.1,53.2L99.1,53.2z"/>
</g>
<path class="st1" d="M0.6,60.5c0.7-3,23.9-8.2,24.6-2.4c0.8,5.7,3,146.6,2,151.1c-1,4.5-24.4,6.6-25.2-0.3
	C1.2,201.8-0.5,65,0.6,60.5z"/>
<path class="st1" d="M120.5,57.7c0.8-7.1,24.5-4.9,25.5-0.3c1,4.6-1.2,149.2-2,155.1c-0.8,5.9-24.2,0.6-24.9-2.5
	C117.9,205.3,119.7,64.8,120.5,57.7z"/>
<path class="st1" d="M85.6,119.3l-13.2,1.4c-0.2,0-7.6-0.1-12.7-1.1c0-1.5,0.1-2.1,0.1-3.3l8-1.2c0.4-4.9,1.1-12.3,1.5-14.5
	l0.1-10.8l-7.9,0.8l-0.9-4.3l8.9-3.6c1.7-0.7,4.5-1.7,7.8-2.2c1.3,0.7,1.8,2,3,3.3l-1.7,17.5l-0.2,13.8c2,0.2,4.3,0.2,7.1,0.7
	C85.8,117.1,85.8,117.8,85.6,119.3z"/>
<path d="M52.6,157.6c-1.2,0-2.3,0.4-3.2,0.9c0.3,0.2,0.6,0.5,0.8,0.8c0.7-0.4,1.5-0.6,2.4-0.6c2.9,0,4.9,2.1,4.9,5.1
	c0,2.9-2,5-4.9,5c-2.8,0-4.9-2.1-4.9-5c0-0.9,0.2-1.7,0.5-2.4c-0.2-0.3-0.5-0.6-0.8-0.8c-0.6,1-0.9,2.1-0.9,3.3
	c0,3.6,2.6,6.2,6.1,6.2c3.5,0,6.1-2.7,6.1-6.2C58.7,160.2,56.1,157.6,52.6,157.6z M67.7,165.1c0,0.5-0.1,1-0.2,1.5
	c-0.4,1.4-1.6,2.2-3.2,2.2c-1.6,0-2.7-0.8-3.2-2.2c-0.1-0.4-0.2-0.9-0.2-1.5v-7.3h-1.2v7.4c0,0.6,0.1,1.4,0.3,1.8
	c0.6,1.8,2.1,2.9,4.3,2.9c2.2,0,3.7-1.1,4.3-2.9c0.2-0.5,0.2-1.2,0.2-1.8v-7.4h-1.2L67.7,165.1L67.7,165.1z M47.1,168.1
	c-0.3,0.1-0.6,0.2-1,0.3c-0.6,0.1-1.2,0.2-1.9,0.2h-3.6v-9.7h3.6c0.7,0,1.3,0,1.9,0.2c2.3,0.5,3.5,2.1,3.5,4.7
	c0,0.9-0.2,1.8-0.5,2.4c0.2,0.4,0.5,0.6,0.8,0.9c0.6-0.9,0.9-2.1,0.9-3.3c0-3.1-1.6-5.1-4.4-5.8c-0.6-0.1-1.3-0.2-2-0.2h-5v11.9h5
	c0.7,0,1.4,0,2-0.2c0.5-0.1,1-0.3,1.5-0.5C47.6,168.7,47.3,168.4,47.1,168.1z M103.5,163.3l-1.2-0.6c-1.1-0.5-1.7-1.2-1.7-2.2
	c0-1.1,0.8-1.9,2-1.9c1.2,0,1.9,0.9,2.1,2.2h1.1c-0.2-2.3-1.5-3.3-3.2-3.3c-1.9,0-3.1,1.3-3.1,3c0,1.5,0.9,2.5,2.4,3.2l1.3,0.6
	c0.9,0.4,1.7,1.1,1.7,2.3c0,1.2-0.9,2-2.2,2c-1.4,0-2.4-0.8-2.6-2.7h-1.2c0.2,2.6,1.7,3.8,3.8,3.8c2,0,3.4-1.4,3.4-3.2
	C106,164.8,104.7,163.9,103.5,163.3z M93.1,157.8l-4.6,11.9h1.3l1.4-3.8h4.9l1.4,3.8h1.4l-4.6-11.9H93.1z M95.8,164.8h-4.1l1.4-3.6
	c0.2-0.6,0.4-1.3,0.7-1.9c0.2,0.6,0.4,1.3,0.7,1.9L95.8,164.8z M84.1,157.8h-1.2v11.9h4.8l0.5-1.1h-4L84.1,157.8L84.1,157.8z
	 M74.9,164.2v1.1h5.6c-0.4,2.1-2.2,3.4-4.4,3.4c-2.9,0-4.9-2.1-4.9-5c0-2.9,2-5,4.9-5c1.9,0,3.5,1,4.2,2.7h1.3
	c-0.7-2.3-2.8-3.8-5.4-3.8c-3.5,0-6.1,2.7-6.1,6.2c0,3.6,2.5,6.2,6.1,6.2c3.4,0,5.8-2.4,5.7-5.7H74.9z"/>
<g>
	<path class="st1" d="M50.6,145.9c0,1-0.7,1.6-1.5,1.7c-0.3,0-0.5,0-0.8,0h-0.8v2.1h-1.1v-5.5h1.9c0.3,0,0.5,0,0.8,0
		C50,144.3,50.6,144.9,50.6,145.9z M49.4,145.9c0-0.5-0.3-0.8-0.7-0.8c-0.1,0-0.3,0-0.5,0h-0.8v1.7h0.8c0.2,0,0.4,0,0.5,0
		C49.2,146.7,49.4,146.4,49.4,145.9z"/>
	<path class="st1" d="M56.5,146.9c0,1.7-1,2.9-2.7,2.9c-1.7,0-2.7-1.1-2.7-2.9c0-1.7,1-2.9,2.7-2.9
		C55.5,144.1,56.5,145.2,56.5,146.9z M55.4,146.9c0-1.3-0.6-2-1.6-2c-1,0-1.6,0.8-1.6,2c0,1.3,0.6,2,1.6,2
		C54.8,149,55.4,148.2,55.4,146.9z"/>
	<path class="st1" d="M63.2,149.7h-1.5l-0.9-4.6l-1,4.6h-1.5l-1.4-5.5h1.2l0.9,4.7l1-4.6h1.6l0.9,4.6l1-4.7h1.1L63.2,149.7z"/>
	<path class="st1" d="M69.3,149.7h-4v-5.5h3.9v0.9h-2.8v1.5H69v0.9h-2.6v1.5h2.9V149.7z"/>
	<path class="st1" d="M74.6,149.7h-1.2c-0.1-0.4-0.2-0.7-0.3-1.2c-0.1-0.6-0.3-1-0.7-1c-0.2,0-0.3,0-0.4,0h-0.6v2.2h-1.1v-5.5h2
		c0.3,0,0.5,0,0.8,0c0.8,0.1,1.4,0.5,1.4,1.5c0,0.7-0.4,1.2-1.1,1.3c0.5,0.2,0.8,0.7,0.8,1.3C74.3,149,74.4,149.4,74.6,149.7z
		 M72.1,146.6c0.2,0,0.3,0,0.4,0c0.4,0,0.8-0.3,0.8-0.8c0-0.5-0.3-0.7-0.7-0.8c-0.1,0-0.3,0-0.5,0h-0.8v1.6H72.1z"/>
	<path class="st1" d="M79.5,149.7h-4v-5.5h3.9v0.9h-2.8v1.5h2.6v0.9h-2.6v1.5h2.9V149.7z"/>
	<path class="st1" d="M85.3,146.9c0,1.7-1,2.6-2.3,2.8c-0.3,0-0.4,0-0.7,0h-1.9v-5.5h1.9c0.3,0,0.4,0,0.7,0
		C84.3,144.4,85.3,145.2,85.3,146.9z M84.1,146.9c0-1.1-0.5-1.7-1.3-1.8c-0.2,0-0.3,0-0.6,0h-0.7v3.8h0.7c0.2,0,0.4,0,0.6,0
		C83.6,148.7,84.1,148,84.1,146.9z"/>
	<path class="st1" d="M92.1,148c0,1-0.8,1.5-1.5,1.6c-0.3,0-0.5,0-0.8,0h-2v-5.5h2c0.3,0,0.4,0,0.7,0c0.9,0.1,1.4,0.6,1.4,1.4
		c0,0.6-0.3,0.9-0.9,1.1C91.7,146.9,92.1,147.3,92.1,148z M88.9,146.4h0.8c0.1,0,0.3,0,0.4,0c0.4-0.1,0.6-0.3,0.6-0.7
		c0-0.4-0.3-0.6-0.6-0.7c-0.1,0-0.3,0-0.4,0h-0.8V146.4z M90.9,148c0-0.5-0.3-0.7-0.7-0.8c-0.1,0-0.3,0-0.4,0h-0.9v1.6h1
		c0.1,0,0.3,0,0.4,0C90.6,148.8,90.9,148.5,90.9,148z"/>
	<path class="st1" d="M95.5,149.7h-1.1v-2.1l-2-3.4h1.2l1.3,2.4l1.2-2.4h1.2l-2,3.4V149.7z"/>
	<path class="st1" d="M99,146c0,0.4-0.3,0.7-0.7,0.7c-0.4,0-0.7-0.3-0.7-0.7c0-0.4,0.3-0.7,0.7-0.7C98.7,145.3,99,145.6,99,146z
		 M99,149.1c0,0.4-0.3,0.7-0.7,0.7c-0.4,0-0.7-0.3-0.7-0.7s0.3-0.7,0.7-0.7C98.7,148.5,99,148.7,99,149.1z"/>
</g>
<path class="st1" d="M88.1,200.1H59.2c-4.8,0-8.6-3.9-8.6-8.6v0c0-4.8,3.9-8.6,8.6-8.6h28.9c4.8,0,8.6,3.9,8.6,8.6v0
	C96.7,196.3,92.8,200.1,88.1,200.1z"/>
<g>
	<defs>
		<rect id="SVGID_1_" x="64.3" y="187" width="18" height="9"/>
	</defs>
	<clipPath id="SVGID_2_">
		<use xlink:href="#SVGID_1_"  style="overflow:visible;"/>
	</clipPath>
	<g class="st2">
		<path class="st0" d="M82.1,191l-3.7-3.8c-0.3-0.3-0.7-0.3-1,0c-0.3,0.3-0.3,0.7,0,1l2.5,2.5H65c-0.4,0-0.7,0.3-0.7,0.7
			c0,0.4,0.3,0.7,0.7,0.7h14.9l-2.5,2.5c-0.3,0.3-0.3,0.7,0,1c0.3,0.3,0.7,0.3,1,0l3.7-3.8C82.4,191.7,82.4,191.3,82.1,191z"/>
	</g>
</g>
</svg>
