<?xml version="1.0" encoding="utf-8"?>
<!-- Generator: Adobe Illustrator 25.0.1, SVG Export Plug-In . SVG Version: 6.00 Build 0)  -->
<svg version="1.1" id="Layer_1" xmlns="http://www.w3.org/2000/svg" xmlns:xlink="http://www.w3.org/1999/xlink" x="0px" y="0px"
	 viewBox="0 0 230 220" style="enable-background:new 0 0 230 220;" xml:space="preserve">
<style type="text/css">
	.st0{fill:#FFFFFF;}
	.st1{opacity:0.8;fill:#FFFFFF;enable-background:new    ;}
	.st2{fill:#064A42;}
	.st3{clip-path:url(#SVGID_2_);}
	.st4{fill-rule:evenodd;clip-rule:evenodd;fill:#FFFFFF;}
	.st5{fill-rule:evenodd;clip-rule:evenodd;fill:#E53212;}
	.st6{fill-rule:evenodd;clip-rule:evenodd;fill:none;stroke:#1D1D1B;stroke-width:5.507949e-03;stroke-miterlimit:3.8637;}
</style>
<path class="st0" d="M9.4,213.7c-0.1,0.1-0.2,0.4-0.4,0.6c-0.9-0.7-1.7-1.5-2.6-2.2c0.1-0.1,0.2-0.3,0.4-0.6
	C7.7,212.3,8.5,213,9.4,213.7z"/>
<path class="st0" d="M231.5,184.6c0.2,0.1,0.4,0.2,0.5,0.4c-0.5,0.7-1,1.5-1.5,2.2c-0.2-0.1-0.4-0.2-0.6-0.4
	C230.4,186,230.9,185.3,231.5,184.6z"/>
<g>
	<path class="st1" d="M189.2,20.6c7.4,0,14.2,0.1,20.5,0.1c8.3,0.3,10.2,1.9,11.1,8.9c3,24,4.3,49.9,4.3,79v6.8
		c-0.1,22.5-0.1,45.9-3.8,68.3c-0.1,0.7-0.6,3.3-5.7,3.4c-15.3,0.3-30.4,0.4-45.7,0.9c-49.2,0.9-100.3,1.8-150.1,3h-0.6
		c-8.5,0-11.1-2.4-11.3-10.7c-0.7-16-1.1-32.9-1.1-55c0-15.6-0.1-31.6,0-47.1c0-12.6,0.1-25,0-37.8c0-3,0-6.2,1.4-8.7
		c2.2-5,9.2-5.5,15.4-5.8c1,0,1.7-0.1,2.6-0.1c8.9-0.7,18.5-1.3,30.3-1.8c20-0.9,40.6-1.2,60.5-1.5h0.1c10.5-0.1,20.8-0.6,31.1-0.7
		C161.5,21.2,175.6,20.6,189.2,20.6z"/>
	<path class="st2" d="M19,188.5c-6.8,0-8.8-1-8.9-8.6c-0.6-16-1-32.7-1-54.8c0-15.6-0.1-31.6,0-47.1c0-12.3,0.1-25,0-37.8
		c0-3,0-5.8,1-7.9c1.6-3.4,6.5-4,13.3-4.4c1,0,1.7-0.1,2.6-0.1c8.9-0.7,18.5-1.3,30.1-1.8c20.2-0.9,40.7-1.2,60.7-1.5
		c10.5-0.1,20.8-0.6,31.1-0.7c13.4-0.4,27.6-0.9,41.2-1c7.4,0,13.9,0.1,20.3,0.1c7.4,0.3,8,1.3,8.9,6.8c3,24,4.3,49.8,4.3,78.7
		c0,2.2,0,4.4,0,6.8c-0.1,22.5-0.1,45.8-3.8,67.9c-0.1,0.6-0.4,1.5-3.3,1.5c-15.3,0.3-30.4,0.4-45.7,0.9
		c-49.2,0.9-100.3,1.8-150.3,3C19.5,188.5,19.2,188.5,19,188.5L19,188.5 M19,193c0.4,0,0.5,0,0.9,0c65.3-1.3,131-2.5,196-3.6
		c4.1,0,7.4-1.5,8-5.5c4.1-24.5,3.7-50.4,3.9-75.1c0.1-26.5-1-53.1-4.3-79.3c-1-8.4-4.2-10.7-13.3-11c-6.9-0.1-13.8-0.3-20.5-0.1
		c-24.2,0.1-48.2,1.3-72.5,1.8c-20.2,0.3-40.6,0.4-60.8,1.5c-10.1,0.4-20.2,1-30.3,1.8c-7.1,0.4-17,0.3-20.2,7.3
		c-1.5,3-1.5,6.4-1.5,9.6c0,28.3-0.2,56.6,0,84.6c0,18.4,0.5,36.8,1,55.1C5.7,189.9,9.3,193.1,19,193L19,193z"/>
</g>
<path class="st2" d="M8.2,214.5c-9.7-1.2-6.9-36.2-0.6-37.6c6.2-1.5,206.1,0.7,214.1,1.9c8.3,1,1.1,35.6-3.2,36.8
	C212.1,217.1,18,215.7,8.2,214.5z"/>
<path class="st2" d="M216.1,4.3c4.2,1,11.6,35.3,3.5,36.3c-8,1.2-203.6,5.5-209.9,4.1c-6.3-1.3-9.4-36,0.2-37.3
	C19.6,6.3,210,2.7,216.1,4.3z"/>
<g>
	<path class="st2" d="M124.1,69.8c0,1.2-0.9,2-1.8,2.1c-0.4,0-0.6,0-1,0h-1v2.6h-1.4v-6.8h2.3c0.4,0,0.6,0,1,0
		C123.3,67.8,124.1,68.5,124.1,69.8z M122.6,69.8c0-0.6-0.4-1-0.9-1c-0.1,0-0.4,0-0.6,0h-1v2.1h1c0.2,0,0.5,0,0.6,0
		C122.3,70.6,122.6,70.4,122.6,69.8z"/>
	<path class="st2" d="M131.4,71c0,2.1-1.2,3.6-3.3,3.6c-2.1,0-3.3-1.4-3.3-3.6c0-2.1,1.2-3.6,3.3-3.6
		C130.2,67.4,131.4,68.9,131.4,71z M129.9,71c0-1.6-0.7-2.5-2-2.5c-1.2,0-2,1-2,2.5c0,1.6,0.7,2.5,2,2.5
		C129.2,73.6,129.9,72.6,129.9,71z"/>
	<path class="st2" d="M139.5,74.5h-1.8l-1.1-5.7l-1.2,5.7h-1.8l-1.6-6.8h1.5l1.1,5.8l1.2-5.7h2l1.1,5.7l1.2-5.8h1.4L139.5,74.5z"/>
	<path class="st2" d="M147,74.5h-4.9v-6.8h4.8v1.1h-3.3v1.8h3.2v1.1h-3.2v1.8h3.6L147,74.5L147,74.5z"/>
	<path class="st2" d="M153.7,74.5h-1.5c-0.1-0.5-0.2-0.9-0.4-1.5c-0.1-0.7-0.4-1.2-0.9-1.2c-0.2,0-0.4,0-0.5,0h-0.7v2.7h-1.4v-6.8
		h2.5c0.4,0,0.6,0,1,0c1,0.1,1.7,0.6,1.7,1.8c0,0.9-0.5,1.5-1.4,1.6c0.6,0.2,1,0.9,1,1.6C153.3,73.6,153.5,74.1,153.7,74.5z
		 M150.6,70.6c0.2,0,0.4,0,0.5,0c0.5,0,1-0.4,1-1s-0.4-0.9-0.9-1c-0.1,0-0.4,0-0.6,0h-1v2H150.6z"/>
	<path class="st2" d="M159.6,74.5h-4.9v-6.8h4.8v1.1H156v1.8h3.2v1.1H156v1.8h3.6L159.6,74.5L159.6,74.5z"/>
	<path class="st2" d="M166.8,70.9c0,2.1-1.2,3.2-2.8,3.5c-0.4,0-0.5,0-0.9,0h-2.2v-6.7h2.3c0.4,0,0.5,0,0.9,0
		C165.5,67.8,166.8,68.9,166.8,70.9z M165.4,71c0-1.4-0.6-2.1-1.6-2.2c-0.2,0-0.4,0-0.7,0h-0.9v4.7h0.9c0.2,0,0.5,0,0.7,0
		C164.7,73.2,165.4,72.4,165.4,71z"/>
	<path class="st2" d="M175.1,72.4c0,1.2-1,1.8-1.8,2c-0.4,0-0.6,0-1,0h-2.5v-6.7h2.5c0.4,0,0.5,0,0.9,0c1.1,0.1,1.7,0.7,1.7,1.7
		c0,0.7-0.4,1.1-1.1,1.4C174.8,71,175.1,71.5,175.1,72.4z M171.3,70.4h1c0.1,0,0.4,0,0.5,0c0.5-0.1,0.7-0.4,0.7-0.9
		c0-0.5-0.4-0.7-0.7-0.9c-0.1,0-0.4,0-0.5,0h-1V70.4z M173.8,72.4c0-0.6-0.4-0.9-0.9-1c-0.1,0-0.4,0-0.5,0h-1.1v2h1.2
		c0.1,0,0.4,0,0.5,0C173.4,73.4,173.8,73,173.8,72.4z"/>
	<path class="st2" d="M179.5,74.5h-1.4v-2.6l-2.5-4.2h1.5l1.6,3l1.5-3h1.5l-2.5,4.2v2.6H179.5z"/>
	<path class="st2" d="M183.7,69.9c0,0.5-0.4,0.9-0.9,0.9s-0.9-0.4-0.9-0.9s0.4-0.9,0.9-0.9C183.4,69,183.7,69.4,183.7,69.9z
		 M183.7,73.7c0,0.5-0.4,0.9-0.9,0.9s-0.9-0.4-0.9-0.9c0-0.5,0.4-0.9,0.9-0.9C183.4,72.9,183.7,73.2,183.7,73.7z"/>
</g>
<g>
	<path class="st2" d="M169.1,157.9h-35.6c-5.9,0-10.6-4.8-10.6-10.6l0,0c0-5.9,4.8-10.6,10.6-10.6h35.6c5.9,0,10.6,4.8,10.6,10.6
		l0,0C179.7,153.2,175,157.9,169.1,157.9z"/>
	<g>
		<g>
			<g>
				<g>
					<defs>
						<rect id="SVGID_1_" x="140.3" y="141.7" width="22.2" height="11.1"/>
					</defs>
					<clipPath id="SVGID_2_">
						<use xlink:href="#SVGID_1_"  style="overflow:visible;"/>
					</clipPath>
					<g class="st3">
						<path class="st0" d="M162.1,146.7l-4.4-4.7c-0.4-0.4-0.9-0.4-1.2,0s-0.4,0.9,0,1.2l3.1,3.1h-18.4c-0.5,0-0.9,0.4-0.9,0.9
							s0.4,0.9,0.9,0.9h18.4l-3.1,3.1c-0.4,0.4-0.4,0.9,0,1.2s0.9,0.4,1.2,0l4.6-4.7C162.5,147.5,162.5,147,162.1,146.7z"/>
					</g>
				</g>
			</g>
		</g>
	</g>
</g>
<path class="st2" d="M53,121.2l-13.9,1.5c-0.2,0-8-0.2-13.5-1.1c0-1.6,0.1-2.2,0.2-3.4l8.4-1.3c0.5-5.2,1.1-12.9,1.6-15.3L36,90.2
	L27.7,91l-0.9-4.6l9.4-3.7c1.8-0.8,4.7-1.8,8.2-2.3c1.4,0.8,1.9,2.1,3.1,3.4l-1.8,18.5l-0.2,14.5c2.1,0.2,4.5,0.2,7.5,0.7
	C53.1,118.9,53.1,119.6,53,121.2z"/>
<path class="st2" d="M79.8,129c-2.1,1.7-4.2,2.8-7.5,2.9c-7.2,0.1-14.2-2.8-17-6.5c1.5-3.6,2.2-6.3,4.2-9.9c1.8,0,4.9,0.4,6.5,1.1
	c-0.3,3.9-0.4,6.7-0.8,9.2c2,1.3,6.8,1.6,8.1,1.4c2-2.8,3.1-6.5,3.3-11.4c0.2-3.5-0.8-7.5-2.4-8.5c-3.2-0.1-7,1.6-8.8,2.4l-0.5-5.9
	c2.2-1.1,4.6-1.8,6.8-3c1.5-1.5,2.8-4.9,2.8-7.3c0-3.4-0.1-5.8-1.3-8.1c-1.4-1.1-4.1-0.9-6.6-0.3c-0.2,3.1-0.5,5.6-0.9,9.4
	c-1.5,0.5-3.4,0.9-5.1,0.9c-1.5-3.3-2.2-6.7-2.8-11.4c6.1-3.3,11.5-4.4,14.4-4.4c4.2,0,7.2,0.1,9.8,2.4c2.3,2.1,3.8,4.5,3.8,8.1
	c0,3.1-1.7,6.8-5,9.8c-0.8,0.8-1.8,1.5-2.9,2.1c2.3-0.2,4.1,0.1,4.8,0.5c3.6,2.2,5.2,6.5,5.3,9C88.2,117.2,85.5,124.5,79.8,129z"/>
<g>
	<g>
		<g>
			<path class="st4" d="M151.2,121.7c-3.6,2.7-7.3,3.9-8.4,4.2c-1.5,0.4-5.7,0.3-5.7,0.3c-0.2,0-12.5-2.2-18.7-3.4
				c-1.4-0.3-7.6-1.2-9.3-1.6c-2.6-0.6-3.7-3.2-3.9-4.4l-0.1-6.1c0.8,0,2.4-0.4,2.4-1.7c0-0.7-0.6-1.6-2.5-1.6v-5.6
				c0.2-1.5,0.6-2.7,1.8-3.7c0.8-0.8,2-1.2,2.6-1.3c1.9-0.5,27.9-4.8,27.9-4.8s2.5-0.2,4,0c1,0.2,1.8,0.5,2.6,0.7l0,1
				c-1-0.2,15.5-0.2,14.5,0l0-1c0.7-0.2,1.5-0.5,2.6-0.7c1.5-0.2,4,0,4,0s26,4.3,27.9,4.8c0.6,0.1,1.8,0.5,2.6,1.3
				c1.2,1.1,1.7,2.2,1.8,3.7v5.6c-1.9,0.1-2.5,1-2.5,1.6c0,1.3,1.7,1.7,2.4,1.7l-0.1,6.1c-0.1,1.1-1.3,3.7-3.9,4.4
				c-1.7,0.4-7.9,1.4-9.3,1.6c-6.2,1.1-18.5,3.4-18.7,3.4c0,0-4.2,0.2-5.7-0.3C158.7,125.6,154.8,124.4,151.2,121.7z"/>
			<g>
				<path class="st4" d="M151.2,102.6c-1.6,0-7.1-1-7.3-7.3c-0.1-2.2-0.2-9-0.2-9s5.2,0.2,7.6,0.2c2.4,0,7.6-0.2,7.6-0.2
					s-0.1,6.7-0.2,9c-0.2,6.3-5.7,7.3-7.3,7.3C149.7,102.6,152.8,102.6,151.2,102.6z"/>
			</g>
			<g>
				<path class="st5" d="M151.5,87.5c2.7,0,6.8-0.2,6.8-0.2s-0.2,3.5-0.2,6.1c0,1,0,2.2-0.3,3.8c-0.1,0.9-0.6,2-2.2,3.2
					c-1.4,1.1-3,1.4-4.4,1.4h0.3c-1.4,0-3-0.3-4.4-1.4c-0.8-0.6-1.2-1.2-1.5-1.6c-0.3-0.5-0.5-0.9-0.5-1.2c-0.4-1.6-0.4-3.1-0.4-4.2
					c-0.1-2.6-0.2-6.1-0.2-6.1s4.1,0.2,6.8,0.2H151.5z"/>
			</g>
			<g>
				<path class="st5" d="M143.9,96.2c-0.5-0.2-2.4-0.9-3.6-1c-1-0.1-2.5,0.1-2.5,0.1c-0.2,0-12,1.9-19.6,3.2c-3.1,0.5-5.3,0.8-8,1.3
					c-0.6,0.1-1.8,0.8-1.8,1.8c0,1.6,0,4,0,4c0.9,0,2.4,1.2,2.4,3.5c0,3-2.1,3.7-2.5,3.7v3.5c0,0.5,0.3,1.2,0.8,1.6
					c0.5,0.4,1.6,0.5,2.1,0.6c1.9,0.3,3.3,0.6,5.2,0.9c0.4,0.1,13.1,2.1,13.1,2.1s5,1,8.3,1.4c1.1,0.1,1.8,0.1,2.9,0
					c3.6-0.4,6.1-2.4,7.4-3.2c0.8-0.5,1.4-1,2.2-1.7h1h1.1c0.7,0.7,1.4,1.2,2.2,1.7c1.3,0.8,3.8,2.8,7.4,3.2c1.1,0.1,1.8,0.2,2.9,0
					c3.2-0.4,8.3-1.4,8.3-1.4s12.7-2,13.1-2.1c1.9-0.3,3.3-0.5,5.2-0.9c0.4-0.1,1.5-0.2,2.1-0.6c0.5-0.4,0.8-1.1,0.8-1.6v-3.5
					c-0.4,0-2.5-0.7-2.5-3.7c0-2.3,1.5-3.5,2.4-3.5c0,0,0-2.3,0-4c0-1-1.2-1.6-1.8-1.8c-2.7-0.5-4.9-0.8-8-1.3
					c-7.6-1.3-19.4-3.2-19.6-3.2c0,0-1.6-0.2-2.6-0.1c-1.2,0.1-3,0.8-3.6,1c-0.7,5.5-5.7,6.4-7.2,6.4h-0.2
					C149.7,102.6,144.6,101.7,143.9,96.2z"/>
			</g>
			<path class="st6" d="M166.4,114.4"/>
			<g>
				<path class="st4" d="M133.9,103.8h3.5c0.2,0,0.8,0.2,1.1,0.3c0.3,0.1,0.6,0.4,0.8,0.7c0.2,0.3,0.4,1,0.4,1.2v6.3
					c0,0.2-0.1,0.8-0.3,1.1c-0.2,0.3-0.5,0.6-0.9,0.7c-0.3,0.1-0.9,0.3-1.1,0.3h-3.5V103.8z M136,105.6h0.7c0.4,0,0.7,0.6,0.7,0.9
					v5.4c0,0.4-0.4,0.8-0.7,0.8H136V105.6z"/>
				<path class="st4" d="M156.2,109.6l0-3.4c0-0.3,0.3-0.7,0.7-0.7h0.1c0.5,0,0.7,0.5,0.7,0.7v3.4H156.2z M157,103.6
					c0.8,0,1.6,0.3,2,0.6c0.6,0.5,1,1.3,1,2.1c0,2.7,0,8.1,0,8.1h-2.2v-3h-0.8h-0.8v3h-2.2c0,0,0-5.4,0-8.1c0-0.9,0.4-1.7,1-2.1
					C155.3,103.9,156.1,103.6,157,103.6L157,103.6z"/>
				<path class="st4" d="M184.9,109.6v-3.4c0-0.3,0.3-0.7,0.7-0.7h0.1c0.5,0,0.7,0.5,0.7,0.7v3.4H184.9z M185.8,103.6
					c0.8,0,1.6,0.3,2,0.6c0.6,0.5,1,1.3,1,2.1c0,2.7,0,8.1,0,8.1h-2.3v-3h-0.8H185v3h-2.2c0,0,0-5.4,0-8.1c0-0.9,0.4-1.7,1-2.1
					C184.1,103.9,184.9,103.6,185.8,103.6L185.8,103.6z"/>
				<path class="st4" d="M165,114.4c-0.1-0.8-1.5-10.6-1.5-10.6h2.2c0.1,0.8,0.4,5.2,0.6,6.9h0.1c0.2-1.7,0.6-6.1,0.6-6.9h2.2
					c0,0-1.4,9.9-1.5,10.6H165z"/>
				<path class="st4" d="M172.9,103.8h2.1l0,4.3c0.1,0.1,0.2,0.1,0.4,0.1c0.2,0,0.6-0.1,0.9-0.4c0.1-0.2,0.2-0.7,0.3-0.8l0-3.2h2.1
					l0,3.9c0,0.2,0,0.6-0.3,0.8c-0.2,0.2-0.5,0.4-0.7,0.4c0.2,0.2,0.5,0.3,0.6,0.6c0.2,0.3,0.3,0.8,0.3,1v4h-2.1v-3.3
					c0-0.2,0-0.6-0.2-1c-0.1-0.2-0.4-0.3-0.5-0.3h-0.7v4.5h-2.1L172.9,103.8z"/>
				<path class="st4" d="M146.1,105.5h0.7c0.2,0,0.6,0,0.7,0.5c0,0,0.1,0.5,0.1,0.9c0,0.3-0.1,0.8-0.1,0.8c0,0.2-0.1,0.4-0.7,0.5
					h-0.7V105.5z M144,103.8c0,0,1.8,0,3.2,0c1.8,0,2.4,0.7,2.5,2.4c0,0.1,0,0.4,0,0.5c0,1.4-0.4,2-1.1,2.2c0.3,0.1,0.4,0.2,0.6,0.4
					c0.4,0.4,0.5,1.1,0.5,1.8v3.3h-2.1v-3.8c0-0.2-0.2-0.8-0.8-0.8h-0.6v4.6l-2.1,0V103.8z"/>
				<path class="st4" d="M117.4,111h-1.3v3.4H114v-10.7h3.4c1.7,0,2.2,1.3,2.3,1.7c0.1,0.6,0.1,1.3,0.1,2.1c0,0,0,1.3-0.1,1.9
					C119.6,109.7,119.2,111,117.4,111z M116.1,105.4h0.5c0.4,0,0.6,0.1,0.8,0.4c0.1,0.2,0.2,0.7,0.2,1.2c0,0.6,0,1.2-0.1,1.5
					c-0.1,0.5-0.4,0.6-0.5,0.6h-0.8V105.4z"/>
				<path class="st4" d="M126.4,112.7c-0.6,0-0.8-0.4-0.8-0.8v-5.6c0-0.4,0.2-0.8,0.8-0.8s0.8,0.4,0.8,0.8v5.6
					C127.2,112.3,127,112.7,126.4,112.7z M123.4,108.9c0-0.2,0-1.8,0-2.8c0-0.6,0.6-2.4,2.8-2.4h0.2c2.2,0,2.8,1.8,2.8,2.4
					c0,1,0,2.6,0,2.8v0.4c0,0.2,0,1.8,0,2.8c0,0.6-0.6,2.4-2.8,2.4h-0.2c-2.2,0-2.8-1.8-2.8-2.4c0-1,0-2.6,0-2.8V108.9z"/>
			</g>
			<path class="st5" d="M151.2,121.7c-3.6,2.7-7.3,3.9-8.4,4.2c-1.5,0.4-5.7,0.3-5.7,0.3c-0.2,0-12.5-2.2-18.7-3.4
				c-1.4-0.3-7.6-1.2-9.3-1.6c-2.6-0.6-3.7-3.2-3.9-4.4l-0.1-6.1c0.8,0,2.4-0.4,2.4-1.7c0-0.7-0.6-1.6-2.5-1.6v-5.6
				c0.2-1.5,0.6-2.7,1.8-3.7c0.8-0.8,2-1.2,2.6-1.3c1.9-0.5,27.9-4.8,27.9-4.8s2.5-0.2,4,0c0.9,0.1,1.6,0.2,2.3,0.4l0,1.2
				c-1-0.2-1.7-0.3-2.8-0.4c-1.6-0.1-2.5,0-4.2,0.2c-1.7,0.2-25,4.4-25.8,4.5c-0.1,0-2,0.3-2.9,1c-1,0.8-1.5,2.1-1.5,2.8
				c0,1.8,0.1,4.6,0.1,4.6c2,0.3,2.3,2,2.3,2.8c0,1.9-1.4,2.6-2.4,2.7l0,4.1c0,2,1.6,3.6,2.9,3.9c0.7,0.1,21.5,3.9,26.7,4.9
				c1.8,0.3,3.4,0.4,5.5,0.1c4.1-0.6,9.5-4.7,9.7-4.7c0,0,0.1,0,0.1,0c0,0,0,0,0,0c0.1,0,5.5,4.1,9.7,4.7c2.1,0.3,3.7,0.2,5.5-0.1
				c5.1-0.9,25.9-4.8,26.7-4.9c1.3-0.2,2.9-1.9,2.9-3.9l0-4.1c-0.9-0.1-2.4-0.8-2.4-2.7c0-0.8,0.3-2.5,2.3-2.8c0,0,0.1-2.7,0.1-4.6
				c0-0.8-0.6-2-1.5-2.8c-0.9-0.8-2.9-1-2.9-1c-0.8-0.1-24.1-4.3-25.8-4.5c-1.7-0.2-2.5-0.3-4.2-0.2c-1.1,0.1-1.8,0.2-2.8,0.4l0-1.2
				c0.7-0.2,1.4-0.3,2.3-0.4c1.6-0.2,4,0,4,0s26,4.3,27.9,4.8c0.6,0.1,1.8,0.5,2.6,1.3c1.2,1.1,1.7,2.2,1.8,3.7v5.6
				c-1.9,0.1-2.5,1-2.5,1.6c0,1.3,1.7,1.7,2.4,1.7l-0.1,6.1c-0.1,1.1-1.3,3.7-3.9,4.4c-1.7,0.4-7.9,1.4-9.3,1.6
				c-6.2,1.1-18.5,3.4-18.7,3.4c0,0-4.2,0.2-5.7-0.3C158.7,125.6,154.8,124.4,151.2,121.7z"/>
			<g>
				<path class="st4" d="M151.3,99.8v1.7c-1.6-0.1-3.3-0.4-4.7-1.8c-0.7-0.7-1.2-1.3-1.4-2.1c-0.2-0.8-0.3-1.6-0.4-2.7
					c-0.1-3-0.2-7.4-0.2-7.4l6.7,0.2v2.7c-0.2-0.2-1-1.1-2.6-1.1c-0.8,0-1.3,0.4-1.5,0.5c-0.4,0.3-1,1-1.3,1.7
					c-0.2,0.7-0.3,1.7,0,2.7c0.3,1.4,1.3,2.6,2.1,3.3C149.1,98.6,150.8,99.4,151.3,99.8z"/>
			</g>
			<g>
				<path class="st4" d="M151.4,99.7v-9.3c0.2-0.1,1-1.1,2.6-1.1c0.8,0,1.3,0.4,1.5,0.5c0.4,0.3,1,1,1.3,1.7c0.2,0.7,0.3,1.7,0,2.7
					c-0.3,1.4-1.3,2.6-2.1,3.3C153.5,98.6,151.9,99.4,151.4,99.7z"/>
			</g>
		</g>
	</g>
</g>
</svg>
