<?xml version="1.0" encoding="utf-8"?>
<!-- Generator: Adobe Illustrator 25.0.1, SVG Export Plug-In . SVG Version: 6.00 Build 0)  -->
<svg version="1.1" id="Layer_1" xmlns="http://www.w3.org/2000/svg" xmlns:xlink="http://www.w3.org/1999/xlink" x="0px" y="0px"
	 viewBox="0 0 140 118" style="enable-background:new 0 0 140 118;" xml:space="preserve">
<style type="text/css">
	.st0{fill:#FFFFFF;}
	.st1{opacity:0.8;fill:#FFFFFF;enable-background:new    ;}
	.st2{fill:#A52B23;}
	.st3{clip-path:url(#SVGID_2_);}
	.st4{fill:url(#SVGID_3_);}
</style>
<path class="st0" d="M6.1,115.3c-0.1,0.1-0.2,0.2-0.2,0.3c-0.5-0.4-1.1-0.8-1.6-1.2c0.1-0.1,0.2-0.2,0.2-0.3
	C5,114.5,5.6,114.9,6.1,115.3z"/>
<path class="st0" d="M141.8,111.3c0.2,0.1,0.2,0.2,0.3,0.2c-0.3,0.5-0.6,1-0.9,1.5c-0.2-0.1-0.2-0.2-0.4-0.2
	C141.1,112.1,141.4,111.7,141.8,111.3z"/>
<g>
	<path class="st1" d="M116,10c4.5,0,8.7,0.1,12.5,0.1c5,0.2,6.3,1.1,6.8,4.8c1.8,13.1,2.6,27.2,2.6,43.1v3.7
		c-0.1,12.3-0.1,25-2.3,37.2c-0.1,0.4-0.4,1.8-3.5,1.9c-9.3,0.2-18.6,0.2-27.9,0.5c-30.1,0.5-61.3,1-91.7,1.6H12
		c-5.2,0-6.8-1.3-6.9-5.8c-0.5-8.7-0.7-17.9-0.7-30c0-8.5-0.1-17.2,0-25.7c0-6.9,0.1-13.7,0-20.6c0-1.6,0-3.4,0.8-4.8
		c1.4-2.7,5.6-3,9.4-3.2c0.6,0,1.1-0.1,1.6-0.1c5.4-0.4,11.3-0.7,18.5-1c12.2-0.5,24.8-0.6,37-0.8h0.1c6.4-0.1,12.7-0.3,19-0.4
		C99,10.4,107.6,10,116,10z"/>
	<path class="st2" d="M12,101.6c-4.1,0-5.3-0.6-5.4-4.7C6.2,88.1,5.9,79,5.9,67c0-8.5-0.1-17.2,0-25.7c0-6.7,0.1-13.7,0-20.6
		c0-1.6,0-3.2,0.6-4.3c1-1.9,4-2.2,8.1-2.4c0.6,0,1.1-0.1,1.6-0.1c5.4-0.4,11.3-0.7,18.4-1c12.4-0.5,24.9-0.6,37.1-0.8
		c6.4-0.1,12.7-0.3,19-0.4c8.2-0.2,16.9-0.5,25.2-0.6c4.5,0,8.5,0.1,12.4,0.1c4.5,0.2,4.9,0.7,5.4,3.7c1.8,13.1,2.6,27.1,2.6,42.9
		c0,1.2,0,2.4,0,3.7c-0.1,12.3-0.1,25-2.3,37c-0.1,0.3-0.2,0.8-2,0.8c-9.3,0.2-18.6,0.2-27.9,0.5c-30.1,0.5-61.3,1-91.8,1.6
		C12.3,101.6,12.1,101.6,12,101.6L12,101.6 M12,104c0.2,0,0.3,0,0.5,0c39.9-0.7,80.1-1.4,119.8-1.9c2.5,0,4.5-0.8,4.9-3
		c2.5-13.3,2.3-27.5,2.4-41c0.1-14.5-0.6-28.9-2.6-43.2c-0.6-4.6-2.6-5.8-8.1-6c-4.2-0.1-8.4-0.2-12.5-0.1
		c-14.8,0.1-29.5,0.7-44.3,1C59.6,10,47.2,10,34.9,10.6c-6.2,0.2-12.4,0.6-18.5,1C12,11.8,5.9,11.7,4,15.5c-0.9,1.6-0.9,3.5-0.9,5.3
		c0,15.4-0.2,30.9,0,46.1c0,10,0.3,20,0.6,30C3.8,102.3,6,104.1,12,104L12,104z"/>
</g>
<path class="st2" d="M5.3,115.7C-0.6,115,1.1,96,5,95.2c3.8-0.8,125.9,0.4,130.8,1.1c5,0.6,0.7,19.4-2,20
	C129.9,117.1,11.4,116.3,5.3,115.7z"/>
<path class="st2" d="M132.4,1.2c2.6,0.6,7.1,19.2,2.1,19.8c-4.9,0.6-124.4,3-128.3,2.3C2.4,22.5,0.5,3.6,6.4,2.8
	C12.3,2.2,128.6,0.3,132.4,1.2z"/>
<g>
	<path class="st2" d="M75.3,32.6c0,1-0.7,1.6-1.5,1.7c-0.3,0-0.5,0-0.8,0h-0.8v2.1h-1.1v-5.5H73c0.3,0,0.5,0,0.8,0
		C74.6,31,75.3,31.6,75.3,32.6z M74.1,32.6c0-0.5-0.3-0.8-0.7-0.8c-0.1,0-0.3,0-0.5,0h-0.8v1.7h0.8c0.2,0,0.4,0,0.5,0
		C73.8,33.3,74.1,33.1,74.1,32.6z"/>
	<path class="st2" d="M81.2,33.6c0,1.7-1,2.9-2.7,2.9s-2.7-1.1-2.7-2.9c0-1.7,1-2.9,2.7-2.9S81.2,31.9,81.2,33.6z M80,33.6
		c0-1.3-0.6-2-1.6-2s-1.6,0.8-1.6,2c0,1.3,0.6,2,1.6,2C79.4,35.7,80,34.9,80,33.6z"/>
	<path class="st2" d="M87.8,36.4h-1.5l-0.9-4.6l-1,4.6h-1.5l-1.3-5.5h1.2l0.9,4.7l1-4.6h1.6l0.9,4.6l1-4.7h1.1L87.8,36.4z"/>
	<path class="st2" d="M93.9,36.4h-4v-5.5h3.9v0.9h-2.7v1.5h2.6v0.9h-2.6v1.5H94L93.9,36.4L93.9,36.4z"/>
	<path class="st2" d="M99.3,36.4h-1.2c-0.1-0.4-0.2-0.7-0.3-1.2c-0.1-0.6-0.3-1-0.7-1c-0.2,0-0.3,0-0.4,0h-0.6v2.2H95v-5.5h2
		c0.3,0,0.5,0,0.8,0c0.8,0.1,1.4,0.5,1.4,1.5c0,0.7-0.4,1.2-1.1,1.3c0.5,0.2,0.8,0.7,0.8,1.3C99,35.7,99.1,36.1,99.3,36.4z
		 M96.8,33.3c0.2,0,0.3,0,0.4,0c0.4,0,0.8-0.3,0.8-0.8s-0.3-0.7-0.7-0.8c-0.1,0-0.3,0-0.5,0H96v1.6H96.8z"/>
	<path class="st2" d="M104.1,36.4h-4v-5.5h3.9v0.9h-2.8v1.5h2.6v0.9h-2.6v1.5h2.9L104.1,36.4L104.1,36.4z"/>
	<path class="st2" d="M109.9,33.5c0,1.7-1,2.6-2.3,2.8c-0.3,0-0.4,0-0.7,0h-1.8v-5.4h1.9c0.3,0,0.4,0,0.7,0
		C108.9,31,109.9,31.9,109.9,33.5z M108.8,33.6c0-1.1-0.5-1.7-1.3-1.8c-0.2,0-0.3,0-0.6,0h-0.7v3.8h0.7c0.2,0,0.4,0,0.6,0
		C108.2,35.4,108.8,34.7,108.8,33.6z"/>
	<path class="st2" d="M116.7,34.7c0,1-0.8,1.5-1.5,1.6c-0.3,0-0.5,0-0.8,0h-2v-5.4h2c0.3,0,0.4,0,0.7,0c0.9,0.1,1.4,0.6,1.4,1.4
		c0,0.6-0.3,0.9-0.9,1.1C116.4,33.6,116.7,34,116.7,34.7z M113.6,33.1h0.8c0.1,0,0.3,0,0.4,0c0.4-0.1,0.6-0.3,0.6-0.7
		s-0.3-0.6-0.6-0.7c-0.1,0-0.3,0-0.4,0h-0.8V33.1z M115.6,34.7c0-0.5-0.3-0.7-0.7-0.8c-0.1,0-0.3,0-0.4,0h-0.9v1.6h1
		c0.1,0,0.3,0,0.4,0C115.3,35.5,115.6,35.2,115.6,34.7z"/>
	<path class="st2" d="M120.2,36.4h-1.1v-2.1l-2-3.4h1.2l1.3,2.4l1.2-2.4h1.2l-2,3.4v2.1H120.2z"/>
	<path class="st2" d="M123.6,32.7c0,0.4-0.3,0.7-0.7,0.7s-0.7-0.3-0.7-0.7s0.3-0.7,0.7-0.7C123.4,32,123.6,32.3,123.6,32.7z
		 M123.6,35.8c0,0.4-0.3,0.7-0.7,0.7s-0.7-0.3-0.7-0.7s0.3-0.7,0.7-0.7C123.4,35.1,123.6,35.4,123.6,35.8z"/>
</g>
<g>
	<path class="st2" d="M42.7,87.6h-22c-3.7,0-6.5-3-6.5-6.5l0,0c0-3.7,3-6.5,6.5-6.5h22c3.7,0,6.5,3,6.5,6.5l0,0
		C49.3,84.7,46.4,87.6,42.7,87.6z"/>
	<g>
		<g>
			<g>
				<g>
					<defs>
						<rect id="SVGID_1_" x="24.9" y="77.6" width="13.7" height="6.8"/>
					</defs>
					<clipPath id="SVGID_2_">
						<use xlink:href="#SVGID_1_"  style="overflow:visible;"/>
					</clipPath>
					<g class="st3">
						<path class="st0" d="M38.4,80.6l-2.7-2.9c-0.2-0.2-0.5-0.2-0.8,0s-0.2,0.5,0,0.8l1.9,1.9H25.4c-0.3,0-0.5,0.2-0.5,0.5
							c0,0.3,0.2,0.5,0.5,0.5h11.3l-1.9,1.9c-0.2,0.2-0.2,0.5,0,0.8s0.5,0.2,0.8,0l2.8-2.9C38.6,81.2,38.6,80.9,38.4,80.6z"/>
					</g>
				</g>
			</g>
		</g>
	</g>
</g>
<g>
	<path class="st2" d="M31.5,59.1L22,60c-0.2,0-5.5-0.1-9.2-0.8c0-1.1,0.1-1.5,0.1-2.4l5.8-0.9c0.3-3.5,0.8-8.8,1.1-10.4l0.1-7.8
		l-5.7,0.6l-0.6-3.1l6.4-2.6c1.3-0.5,3.2-1.2,5.6-1.6c0.9,0.5,1.3,1.4,2.1,2.4l-1.2,12.6L26.4,56c1.5,0.2,3.1,0.2,5.1,0.5
		C31.6,57.5,31.6,57.9,31.5,59.1z"/>
	<path class="st2" d="M55.4,50.3c0,4.9-1.5,8.7-3.2,11.2c-1.7,2.5-4.7,4.8-7.5,4.8c-5.5,0-9.9-2.7-10.9-4.5c0.6-1.8,1.5-4.4,2.8-6.6
		c1-0.1,3.4,0.2,4.5,0.6c0,2-0.3,4.7-0.5,6.3c0.7,0.6,3.6,1,4.6,0.9c1.5-1.8,2.5-4.8,2.5-9.1c-0.1-3.4-0.9-5.5-2.1-5.5
		c-2.6,0.6-6.4,2.2-8.1,3.3c-0.4,0-0.9-1-1.1-1.2l0.8-16.2c0.6-1.6,1.4-2.7,2.7-3.6c1.6-0.1,3.7-0.1,5.4-0.1c3.1,0,4.2,0.1,6.9,0.1
		h2.2c0.1,2.1-0.4,5-1,7.4c-3.3,0.1-8.3-0.8-12.3-1.7l-1,10.8c2.8-1.8,6.9-4.2,7.9-4.2c0.9,0,1.8,0.1,2.6,0.5
		C53.4,45.1,55.4,48.3,55.4,50.3z"/>
</g>
<linearGradient id="SVGID_3_" gradientUnits="userSpaceOnUse" x1="77.7905" y1="66.1486" x2="116.845" y2="66.1486">
	<stop  offset="0" style="stop-color:#AE7A2B"/>
	<stop  offset="7.975112e-02" style="stop-color:#C0933F"/>
	<stop  offset="0.2229" style="stop-color:#DCB95D"/>
	<stop  offset="0.3374" style="stop-color:#EDD170"/>
	<stop  offset="0.4082" style="stop-color:#F3DA77"/>
	<stop  offset="0.5359" style="stop-color:#E7C96A"/>
	<stop  offset="0.7862" style="stop-color:#C89E48"/>
	<stop  offset="0.9732" style="stop-color:#AE7A2B"/>
</linearGradient>
<path class="st4" d="M106.3,50.5v-3.8H103C105.2,47.3,106.2,49.8,106.3,50.5z M78.5,49v1.8h0.5v-0.6h1.7v-0.6h-1.7V49H78.5z
	 M79.9,51.7h-1.3v0.6h1.3c0.3,0,0.4,0.2,0.4,0.4c0,0.2-0.1,0.4-0.4,0.4h-1.3v0.6h1.3c0.6,0,0.9-0.5,0.9-0.9
	C80.8,52.1,80.5,51.7,79.9,51.7z M80.7,46.6h-0.5v1h-0.3v-1h-0.5v1H79v-1h-0.5v1.6h2.2V46.6z M110.7,51.8c0.2-1.4,0.8-2.9,0.9-3.6
	c0.1-0.5,0-0.7,0-0.7c-0.1-0.5-0.5-0.9-0.9-0.9h0c-0.5,0-0.9,0.4-0.9,0.9c0,0,0,0.2,0,0.7C109.8,48.9,110.5,50.4,110.7,51.8z
	 M79.6,83.4c-0.6,0-1.1,0.5-1.1,1.2c0,0.7,0.5,1.2,1.1,1.2c0.6,0,1.1-0.5,1.1-1.2C80.8,83.9,80.3,83.4,79.6,83.4z M79.6,85.2
	c-0.3,0-0.6-0.3-0.6-0.6c0-0.3,0.2-0.6,0.6-0.6c0.3,0,0.6,0.3,0.6,0.6C80.2,84.9,80,85.2,79.6,85.2z M77.8,47.4l0.6,0.2v-0.5
	l-0.6-0.3V47.4z M78.5,63.9v1.6l2.2,0v-1.6h-0.5v1l-0.3,0v-1h-0.5v1H79v-1H78.5z M87.7,57.8h2.9V46.7h-2.9l0.3,0.2v10.6L87.7,57.8z
	 M78.5,57.2v1.6h2.2v-1.6h-0.5v1h-0.3v-1h-0.5v1H79v-1H78.5z M98.9,57.8h2.9V46.7h-2.9l0.3,0.2v10.6L98.9,57.8z M80.7,54.9v-0.6
	l-2.2,0.8v0.5l2.2,0.8v-0.6l-0.4-0.1V55L80.7,54.9z M79.8,55.5l-0.6-0.2l0.6-0.2V55.5z M80.7,61.5l0-1.1c0-0.4-0.3-0.7-0.6-0.7
	c-0.3,0-0.5,0.1-0.6,0.4c-0.1-0.2-0.3-0.3-0.4-0.3c-0.3,0-0.5,0.2-0.5,0.7l0,1H80.7z M79.8,60.5c0-0.2,0.1-0.2,0.2-0.2
	c0.1,0,0.2,0.1,0.2,0.3l0,0.4h-0.4V60.5z M79,60.6c0-0.1,0.1-0.2,0.2-0.2c0.1,0,0.2,0.1,0.2,0.2V61H79V60.6z M104.6,54.5V50
	c0,0-0.6,1.7-2.1,2.2C104,52.7,104.6,54.4,104.6,54.5z M80.7,68.4v-0.9c0-0.7-0.4-1.1-1.1-1.1c-0.7,0-1.1,0.4-1.1,1.1l0,0.9
	L80.7,68.4z M79.1,67.5c0-0.3,0.3-0.5,0.6-0.5c0.3,0,0.6,0.2,0.6,0.5v0.4l-1.1,0V67.5z M80.7,81.4c0-0.4-0.3-0.7-0.6-0.7
	c-0.3,0-0.5,0.1-0.6,0.4c-0.1-0.2-0.3-0.3-0.4-0.3c-0.3,0-0.5,0.2-0.5,0.7v1l2.2,0V81.4z M79.4,82H79v-0.4c0-0.1,0.1-0.2,0.2-0.2
	c0.1,0,0.2,0.1,0.2,0.2V82z M80.2,82l-0.4,0v-0.4c0-0.2,0.1-0.2,0.2-0.2c0.1,0,0.2,0.1,0.2,0.3V82z M104.2,82.4V78
	c0,0-0.6,1.7-2.1,2.2C103.7,80.6,104.2,82.3,104.2,82.4z M105.9,78.4v-3.8h-3.3C104.8,75.2,105.8,77.7,105.9,78.4z M105.2,67.9
	c-0.5,2.4-2.7,3.8-3.5,3.9h3.5V67.9z M98.9,74.8v10.6l-0.3,0.2h2.9V74.6h-2.9L98.9,74.8z M102.7,85.7h4v-3.6
	C105.9,84.7,103.8,85.4,102.7,85.7z M116.5,71.5V60.7h-2.9l0.3,0.2v9.4c0,0.8,0.6,1.4,1.4,1.4h1.5L116.5,71.5z M110.5,68.9v-8.2
	h-2.9l0.3,0.2v7.6c0,2.6,1.2,3.4,2.7,3.4c1.4,0,2.2-0.8,2.2-0.8C111.9,71.4,110.5,71.5,110.5,68.9z M97.6,71.8h2.9V60.9l0.3-0.2
	h-3.2l0.3,0.2v10.6L97.6,71.8z M103,57.8h4v-3.6C106.3,56.8,104.2,57.5,103,57.8z M92.1,46.7c0.5,0.2,1.7,0.8,1.8,3.3
	c0,0,0.1,1.3,0.1,2.4c0,1.1-0.1,2.3-0.1,2.3c-0.1,2.5-1.3,3-1.8,3.1c2-0.1,4.9-1.7,4.9-5.5C97.1,48.7,94.1,46.9,92.1,46.7z
	 M79.8,78.4h-1.3v0.6h1.3c0.3,0,0.4,0.1,0.4,0.4c0,0.1-0.1,0.3-0.2,0.4l0.4,0.2c0.2-0.2,0.3-0.5,0.3-0.7
	C80.8,78.8,80.5,78.4,79.8,78.4z M80.1,70.7c-0.3,0-0.5,0.2-0.6,0.4c-0.1,0.2-0.1,0.3-0.2,0.5c0,0.1-0.1,0.2-0.2,0.2
	c-0.1,0-0.1-0.1-0.1-0.2c0-0.2,0.1-0.4,0.2-0.5l-0.4-0.3c-0.2,0.2-0.3,0.5-0.3,0.8c0,0.5,0.3,0.8,0.7,0.8c0.3,0,0.5-0.2,0.6-0.4
	c0.1-0.2,0.1-0.4,0.2-0.5c0-0.1,0.1-0.2,0.2-0.2c0.1,0,0.2,0.1,0.2,0.3c0,0.2-0.1,0.5-0.3,0.6l0.4,0.3c0.2-0.2,0.4-0.5,0.4-0.9
	C80.8,71,80.5,70.7,80.1,70.7z M83.9,89.5h0.5l0-46.8h-0.5L83.9,89.5z M78.5,73.1l0,1.8h0.5v-0.6l1.7,0v-0.6l-1.7,0v-0.6H78.5z
	 M78.5,75.8v1.6l2.2,0v-1.6h-0.5v1l-0.3,0v-1h-0.5l0,1H79v-1H78.5z M96.4,85.4c-0.2-0.3-0.2-0.8-0.2-2.3c0-1.9-1.5-2.9-3.7-3.1
	c2.2-0.2,3.4-1.2,3.4-2.7c0-1.3-1.2-2.8-3.8-2.8c0.3,0,1.1,0.4,1.1,1.6c0,0,0,0.6,0,1.1c0,0.5,0,1.1,0,1.1c-0.1,1.4-1,1.6-1.4,1.6
	c0.8,0.3,1.6,1.2,1.6,2.4c0,0.3,0,0.6,0,0.9c0.1,1.9,1.2,2.5,3.4,2.3C96.8,85.7,96.6,85.7,96.4,85.4z M95.3,67.9
	c-0.5,2.4-2.7,3.8-3.5,3.9h3.5V67.9z M88,60.9v10.6l-0.3,0.2h2.9V60.9l0.3-0.2h-3.2L88,60.9z M90.7,74.6h-2.9l0.3,0.2v10.7l-0.3,0.2
	h3.2l-0.3-0.2V74.6z"/>
</svg>
