<?xml version="1.0" encoding="utf-8"?>
<!-- Generator: Adobe Illustrator 25.0.1, SVG Export Plug-In . SVG Version: 6.00 Build 0)  -->
<svg version="1.1" id="Layer_1" xmlns="http://www.w3.org/2000/svg" xmlns:xlink="http://www.w3.org/1999/xlink" x="0px" y="0px"
	 viewBox="0 0 168 391" style="enable-background:new 0 0 168 391;" xml:space="preserve">
<style type="text/css">
	.st0{enable-background:new    ;}
	.st1{fill:#FFFFFF;}
	.st2{fill:#A82F13;}
	.st3{clip-path:url(#SVGID_2_);}
	.st4{fill:#131313;}
</style>
<g class="st0">
	<path class="st1" d="M10.8,388.7c-2.2,0-4.4,0-6.5-0.1c-0.3-1-0.5-2.3-0.5-4C3.6,377.8,3.4,371,3.2,364c-0.5-17.8-1-36.2-1.3-54.3
		c-0.1-4,0.3-8.2,0.7-12.2c0.2-2,0.4-4,0.5-6c0-0.7,0-1.3,0-2c0-4.4-0.1-8.7-0.1-13c-0.1-10.7-0.2-21.7-0.1-32.6
		c0-5.9,0.3-12,0.6-17.8c0.2-3.2,0.3-6.4,0.4-9.5c0-0.3,0-0.7,0-1.1c0-0.3,0-0.5,0-0.8c0-3.3,0-6.5,0-9.7
		c-0.1-7.4-0.1-15.1,0.3-22.6c0.7-13.1,1-26.5,0.8-39.9c-0.1-12.5,0.3-25.3,0.8-38.3c0.3-7,0.8-14.1,1.3-21c0.2-3.2,0.4-6.4,0.6-9.6
		c0-0.5,0-0.9,0-1.4c0-0.2,0-0.4,0-0.6c0-2.6,0-5.3,0.1-7.9c0-5.6,0.1-11.4,0.3-17.1C8.7,40,9.2,33.5,9.7,27.2
		c0.2-2.7,0.4-5.4,0.6-8c0.3-3.4,0.5-6.9,0.7-10.3V8.4c0.1-1.6,0.9-2.5,2.5-2.7c0.8-0.1,1.6-0.3,2.4-0.4c1.7-0.3,3.3-0.6,4.9-0.7
		h0.4C29.3,4.4,37.4,4.1,45.5,4c10.7,0.2,22,0.3,34.5,0.3c13,0,26.9-0.1,44.9-0.3c2.8,0.2,5.5,0.5,8.3,0.7c5.4,0.4,11,0.9,16.4,1.5
		c1.4,0.1,2.8,0.7,4.3,1.4c0.5,0.2,1,0.4,1.6,0.6c6.1,15.5,4.9,53.4,4.3,71.7c-0.2,4.8-0.3,8.2-0.2,10c0.5,21.9,1.4,44.2,2.3,65.8
		c0.5,11.2,0.9,22.8,1.3,34.3c1.1,30.8,0.8,61.8,0.5,91.9c-0.1,4.9-0.1,9.8-0.2,14.7c-0.1,9.9-0.6,20-1,29.7
		c-0.3,5.9-0.6,11.9-0.8,18c-0.1,2.7,0.2,6.6,0.5,11c0.4,4.9,0.8,10.5,0.8,15.9v0.2c0,2.1-0.1,4.2-0.3,6.2c-0.3,0.4-0.6,0.9-0.8,1.5
		c0,0.2-0.1,0.4-0.1,0.6c-6.6,4.3-16,4.8-23.6,4.8c-2.8,0-5.5-0.1-8.1-0.2c-2.4-0.1-4.7-0.1-6.9-0.1h-0.9
		c-13.1,0.2-26.3,0.6-39.2,1.1c-5.2,0.2-10.5,0.4-15.7,0.5c-6.7,0.2-14.2,0.8-22.1,1.4C34.2,387.8,22.5,388.7,10.8,388.7z"/>
	<path class="st2" d="M124.9,5.3c2.7,0.2,5.5,0.5,8.2,0.7c5.4,0.4,11,0.9,16.4,1.5c1.2,0.1,2.5,0.7,3.9,1.3c0.3,0.1,0.6,0.3,1,0.4
		c5.7,15.6,4.5,52.6,3.9,70.5c-0.2,4.8-0.3,8.3-0.2,10.1c0.5,21.9,1.4,44.2,2.3,65.7c0.5,11.2,0.9,22.9,1.3,34.3
		c1.1,30.7,0.8,61.8,0.5,91.8c-0.1,4.9-0.1,9.8-0.2,14.7c-0.1,9.9-0.6,19.9-1,29.6c-0.3,5.9-0.6,12-0.8,18
		c-0.1,2.8,0.2,6.7,0.5,11.1c0.4,4.9,0.8,10.4,0.8,15.8v0.2c0,1.9-0.1,3.8-0.2,5.6c-0.4,0.6-0.6,1.1-0.8,1.7
		c-6.2,3.8-15.1,4.3-22.2,4.3c-2.7,0-5.5-0.1-8.1-0.2c-2.5-0.1-4.8-0.1-7-0.1c-0.3,0-0.6,0-0.9,0c-13.1,0.2-26.4,0.6-39.2,1.1
		c-5.2,0.2-10.4,0.4-15.6,0.5c-6.8,0.2-14.2,0.8-22.2,1.4c-11.2,0.9-22.9,1.8-34.5,1.8c-1.8,0-3.6,0-5.3-0.1
		c-0.1-0.7-0.2-1.6-0.2-2.6c-0.2-6.8-0.4-13.7-0.6-20.5c-0.5-17.8-1-36.2-1.3-54.3c-0.1-4,0.3-7.9,0.7-12.1c0.2-2,0.4-4,0.5-6.1
		c0-0.7,0-1.4,0-2.1c0-4.4-0.1-8.7-0.1-13.1c-0.1-10.7-0.2-21.7-0.1-32.5c0-5.9,0.3-11.9,0.6-17.8c0.2-3.1,0.3-6.4,0.4-9.5
		c0-0.4,0-0.8,0-1.2c0-0.3,0-0.5,0-0.7v-0.1v-0.1c0-3.2,0-6.5,0-9.6c-0.1-7.4-0.1-15,0.3-22.5c0.7-13.1,1-26.5,0.8-40
		C6.4,129.7,6.8,117,7.3,104c0.3-7,0.8-14.1,1.3-21c0.2-3.2,0.4-6.4,0.6-9.6c0-0.6,0-1.1,0-1.5c0-0.2,0-0.4,0-0.5
		c0-2.7,0.1-5.4,0.1-8c0-5.6,0.1-11.4,0.3-17.1c0.3-6.4,0.8-12.9,1.3-19.2c0.2-2.7,0.4-5.4,0.6-8.1c0.3-3.4,0.5-6.9,0.7-10.2V8.2
		c0.1-0.9,0.2-1.2,1.3-1.3c0.8-0.1,1.7-0.3,2.5-0.4c1.6-0.3,3.2-0.6,4.6-0.6h0.7c7.9-0.2,16-0.4,24-0.6c10.8,0.2,22.1,0.3,34.5,0.3
		C93.1,5.7,107,5.6,124.9,5.3 M125.1,2.3c-14.9,0.2-29.9,0.3-44.9,0.3c-11.6,0.1-23.1,0-34.6-0.2c-8.3,0.2-16.5,0.4-24.7,0.7
		c-2.5,0.1-5,0.7-7.5,1.1c-2.3,0.3-3.7,1.7-3.8,4.1C9.3,11.8,9.1,15.4,8.8,19c-0.7,9.1-1.6,18.2-2,27.3c-0.4,8.4-0.3,16.8-0.4,25.1
		c0,0.7,0,1.3,0,1.9c-0.6,10.2-1.5,20.4-1.9,30.6c-0.5,12.8-1,25.6-0.8,38.4c0.2,13.3-0.1,26.5-0.8,39.8
		c-0.6,10.7-0.2,21.5-0.3,32.3c0,0.7,0,1.3,0,1.9c-0.3,9.1-1,18.3-1.1,27.4c-0.2,15.2,0.1,30.4,0.2,45.6c0,0.6,0,1.3,0,1.9
		c-0.4,6.1-1.3,12.2-1.2,18.4c0.5,24.9,1.2,49.8,1.9,74.8c0.1,2.4,0.4,4.2,1,5.4c2.5,0.1,5,0.1,7.5,0.1c20.1,0,40.6-2.8,56.7-3.3
		c18.3-0.6,36.5-1.4,54.8-1.6c0.3,0,0.6,0,0.9,0c4.5,0,9.7,0.3,15,0.3c9,0,18.3-0.9,24.9-5.4c0.1-0.4,0.2-0.8,0.3-1.2
		s0.4-0.8,0.7-1.1c0.2-2.2,0.3-4.5,0.3-6.8c0,0,0-0.1,0-0.2c0-10.2-1.5-21.1-1.3-26.8c0.5-16,1.6-31.7,1.8-47.7
		c0.3-35.7,1-71-0.3-106.6c-1.2-33.3-2.8-66.7-3.6-100c-0.2-8.9,3.6-63.6-4.4-82.9c-0.1,0-0.2-0.1-0.3-0.1c-2.2-0.8-4.3-2-6.6-2.2
		C141.6,3.7,133.3,3,125.1,2.3L125.1,2.3z"/>
</g>
<path class="st2" d="M31.4,378.5c-0.9,7.5-27.8,20-28.5,5.7C2,370,0.9,22.4,2.1,11.5c1.1-10.9,28.3-16.1,29.2,1
	C32.2,29.8,32.7,367.5,31.4,378.5z"/>
<path class="st2" d="M166.3,373.3c-0.8,7.2-27.4,19.9-28.2,6c-1-13.9-4.9-353.8-3.9-364.7s28-16,29,0.7
	C164.2,32,167.6,362.5,166.3,373.3z"/>
<g>
	<path class="st2" d="M61,200.2c0,1-0.7,1.6-1.5,1.7c-0.3,0-0.5,0-0.8,0h-0.8v2.1h-1.1v-5.5h1.9c0.3,0,0.5,0,0.8,0
		C60.3,198.6,61,199.2,61,200.2z M59.8,200.2c0-0.5-0.3-0.8-0.7-0.8c-0.1,0-0.3,0-0.5,0h-0.8v1.7h0.8c0.2,0,0.4,0,0.5,0
		C59.5,200.9,59.8,200.8,59.8,200.2z"/>
	<path class="st2" d="M66.9,201.2c0,1.7-1,2.9-2.7,2.9c-1.7,0-2.7-1.1-2.7-2.9c0-1.7,1-2.9,2.7-2.9
		C65.9,198.4,66.9,199.6,66.9,201.2z M65.7,201.2c0-1.3-0.6-2-1.6-2s-1.6,0.8-1.6,2c0,1.3,0.6,2,1.6,2
		C65.1,203.3,65.7,202.6,65.7,201.2z"/>
	<path class="st2" d="M73.5,204.1H72l-0.9-4.6l-1,4.6h-1.5l-1.3-5.5h1.2l0.9,4.7l1-4.6H72l0.9,4.6l1-4.7H75L73.5,204.1z"/>
	<path class="st2" d="M79.6,204.1h-4v-5.5h3.9v0.9h-2.7v1.5h2.6v0.9h-2.6v1.5h2.9L79.6,204.1L79.6,204.1z"/>
	<path class="st2" d="M85,204.1h-1.2c-0.1-0.4-0.2-0.7-0.3-1.2c-0.1-0.6-0.3-1-0.7-1c-0.2,0-0.3,0-0.4,0h-0.6v2.2h-1.1v-5.5h2
		c0.3,0,0.5,0,0.8,0c0.8,0.1,1.4,0.5,1.4,1.5c0,0.7-0.4,1.2-1.1,1.3c0.5,0.2,0.8,0.7,0.8,1.3C84.7,203.3,84.8,203.8,85,204.1z
		 M82.5,200.9c0.2,0,0.3,0,0.4,0c0.4,0,0.8-0.3,0.8-0.8s-0.3-0.7-0.7-0.8c-0.1,0-0.3,0-0.5,0h-0.8v1.6H82.5z"/>
	<path class="st2" d="M89.8,204.1h-4v-5.5h3.9v0.9h-2.8v1.5h2.6v0.9h-2.6v1.5h2.9V204.1z"/>
	<path class="st2" d="M95.6,201.1c0,1.7-1,2.6-2.3,2.8c-0.3,0-0.4,0-0.7,0h-1.8v-5.4h1.9c0.3,0,0.4,0,0.7,0
		C94.6,198.6,95.6,199.6,95.6,201.1z M94.5,201.2c0-1.1-0.5-1.7-1.3-1.8c-0.2,0-0.3,0-0.6,0h-0.7v3.8h0.7c0.2,0,0.4,0,0.6,0
		C93.9,203.1,94.5,202.3,94.5,201.2z"/>
	<path class="st2" d="M102.4,202.3c0,1-0.8,1.5-1.5,1.6c-0.3,0-0.5,0-0.8,0h-2v-5.4h2c0.3,0,0.4,0,0.7,0c0.9,0.1,1.4,0.6,1.4,1.4
		c0,0.6-0.3,0.9-0.9,1.1C102.1,201.2,102.4,201.6,102.4,202.3z M99.3,200.8h0.8c0.1,0,0.3,0,0.4,0c0.4-0.1,0.6-0.3,0.6-0.7
		s-0.3-0.6-0.6-0.7c-0.1,0-0.3,0-0.4,0h-0.8V200.8z M101.3,202.3c0-0.5-0.3-0.7-0.7-0.8c-0.1,0-0.3,0-0.4,0h-0.9v1.6h1
		c0.1,0,0.3,0,0.4,0C101,203.1,101.3,202.8,101.3,202.3z"/>
	<path class="st2" d="M105.9,204.1h-1.1v-2.1l-2-3.4h1.2l1.3,2.4l1.2-2.4h1.2l-2,3.4v2.1H105.9z"/>
	<path class="st2" d="M109.3,200.3c0,0.4-0.3,0.7-0.7,0.7c-0.4,0-0.7-0.3-0.7-0.7s0.3-0.7,0.7-0.7
		C109.1,199.6,109.3,199.9,109.3,200.3z M109.3,203.4c0,0.4-0.3,0.7-0.7,0.7c-0.4,0-0.7-0.3-0.7-0.7s0.3-0.7,0.7-0.7
		C109.1,202.8,109.3,203.1,109.3,203.4z"/>
</g>
<g>
	<path class="st2" d="M97.5,268.5H68.6c-4.8,0-8.6-3.9-8.6-8.6l0,0c0-4.8,3.9-8.6,8.6-8.6h28.9c4.8,0,8.6,3.9,8.6,8.6l0,0
		C106.1,264.7,102.3,268.5,97.5,268.5z"/>
	<g>
		<g>
			<g>
				<defs>
					<rect id="SVGID_1_" x="74.1" y="255.3" width="18" height="9"/>
				</defs>
				<clipPath id="SVGID_2_">
					<use xlink:href="#SVGID_1_"  style="overflow:visible;"/>
				</clipPath>
				<g class="st3">
					<path class="st1" d="M91.8,259.3l-3.6-3.8c-0.3-0.3-0.7-0.3-1,0s-0.3,0.7,0,1l2.5,2.5H74.8c-0.4,0-0.7,0.3-0.7,0.7
						c0,0.4,0.3,0.7,0.7,0.7h14.9l-2.5,2.5c-0.3,0.3-0.3,0.7,0,1s0.7,0.3,1,0l3.7-3.8C92.1,260,92.1,259.7,91.8,259.3z"/>
				</g>
			</g>
		</g>
	</g>
</g>
<path class="st2" d="M72.7,126.7l0.2-14.4L74.6,94c-1.2-1.4-1.7-2.7-3.1-3.4c-3.5,0.5-6.3,1.5-8.1,2.3l-9.3,3.7l0.9,4.5l8.2-0.8
	L63,111.6c-0.5,2.4-1.1,10-1.6,15.1L53,128c-0.1,1.2-0.2,1.8-0.2,3.4c5.4,1,13.1,1.1,13.3,1.1l13.8-1.4c0.2-1.6,0.2-2.3,0-3.7
	C77.1,126.9,74.8,126.9,72.7,126.7z"/>
<path class="st2" d="M83.9,91.2c-0.5,3.9,0,7.2,0.9,10.6c4.9-0.2,11.9-0.6,20.2-1.8c-6,11.8-12,25.3-17.1,37.8c0.8,1.6,2,3,2.9,3.6
	c1.9,0.2,4.7,0.2,6.6-0.2c5.3-17.6,8.2-30.2,15.5-45.5c-0.3-1.5-1-3.3-1.8-4.7C99.3,91.1,95.2,91.2,83.9,91.2z"/>
<g id="Calque_2">
	<g id="Calque_1-2">
		<path class="st4" d="M73.3,239h0.6v-1.2h1.1c0.5,0,1.4,0,1.4-0.9s-0.9-1-1.4-1h-1.8L73.3,239z M73.9,237.2v-0.9h1.3
			c0.4,0,0.7,0,0.7,0.4c0,0.4-0.3,0.4-0.7,0.4H73.9z M77.2,239h0.7l0.3-0.7h1.8l0.3,0.7H81l-1.5-3.1h-0.7L77.2,239z M78.5,237.8
			l0.7-1.4l0.7,1.4H78.5z M82.6,239h0.6v-1.2h1l0.9,1.2h0.8l-1-1.3c0.5,0,0.9-0.4,0.9-0.9c0,0,0,0,0,0c0-0.8-0.5-0.9-1.3-0.9h-1.9
			L82.6,239z M83.2,237.3v-0.9h1.2c0.5,0,0.8,0.1,0.8,0.4c0,0.4-0.3,0.4-0.8,0.4L83.2,237.3z M87.7,235.9h0.6v3.1h-0.6V235.9z
			 M92.7,236.8c-0.1-0.3-0.4-0.5-1.1-0.5c-0.4,0-0.8,0.1-0.8,0.4c0,0.1,0.1,0.3,0.7,0.3l0.7,0.1c0.7,0.1,1.1,0.4,1.1,0.9
			c0,0.7-0.7,1-1.6,1c-1.4,0-1.7-0.7-1.8-0.9l0.6-0.2c0.1,0.2,0.4,0.6,1.2,0.6c0.5,0,0.9-0.2,0.9-0.4c0-0.2-0.2-0.3-0.7-0.4
			l-0.8-0.1c-0.7-0.1-1.1-0.4-1.1-0.9c0-0.9,1.2-0.9,1.5-0.9c1.4,0,1.6,0.6,1.7,0.8L92.7,236.8z M116.4,230.9c0.3,2.2,1.4,1.8,1.5,2
			c0,0-4.4,0-4.4,0c0-0.1,1.3,0,1-1.9l-1.1-8.5c0-0.2,0-0.5-0.2-0.4c-0.1,0-3.9,9.2-3.9,9.2c-0.1,0.1-0.1,0.2-0.3,0
			c-0.1-0.2-3.5-7.7-3.5-7.7c-0.2-0.4-0.5-1-0.5-1.1c-0.1-0.2-0.2-0.2-0.2,0.4l-0.9,8.6c-0.2,1.5,1.2,1.4,1.2,1.5h-3.1
			c0-0.1,1,0.1,1.3-1.5l1-9.5c-0.1-1.8-1.4-1.7-1.4-1.9h3.3l0,0.1l3.5,7.5c0,0.1,0.1,0.1,0.1,0.2c0.1,0.2,0.1,0.4,0.2,0.1l3.4-7.9
			h3.2c0,0.1-1.3,0.1-1.3,1.6L116.4,230.9z M44.5,232.5c3,0,2.9-2.3,3.1-2.3l-0.5,2.8h-9.4c0-0.1,1.8-0.1,1.8-1.4V222
			c0-1.6-1.7-1.6-1.6-1.7h5.3c-0.1,0.1-1.8,0.1-1.8,1.7v10c0,0.7,0.7,0.6,1.4,0.6H44.5 M64.5,231.7c0.2,1.6,1.4,1.2,1.4,1.3h-3.4
			c0-0.2,1.4,0,1.3-1.4v-9.7c0-1.7-1.4-1.7-1.5-1.8h3.4l7.1,8.7l0-7.1c0-1.7-1.4-1.6-1.4-1.7H75c0,0.1-1.4,0.1-1.5,1.7l0,10.9
			c0,0,0.1,0.8-0.4,0.2c-0.2-0.3-8.5-10.7-8.5-10.7c-0.1-0.1-0.1,0-0.1,0.3v9.1L64.5,231.7z M53,226.7c-0.3,0-0.3-0.2-0.2-0.5
			c0,0,1.2-2.9,1.3-3.2c0.2-0.4,0.4-0.4,0.5,0l1.2,3.2c0.1,0.4,0.3,0.5-0.1,0.5L53,226.7 M59.9,231.4l-4.7-11.2
			c-0.3-0.4-0.5,0.1-0.5,0.1c-0.5,1.1-4.8,11.5-4.8,11.5c-0.6,1.4-1.4,1.2-1.4,1.3h3.1c0-0.2-1.7,0.1-1.1-1.3l1.6-4
			c0.2-0.3,0.2-0.3,0.6-0.3h3.1c0.4,0,0.4,0,0.6,0.4l1.6,3.8c0.5,1.5-0.9,1.4-0.9,1.5h4.4C61.4,232.9,60.7,233.3,59.9,231.4
			 M94.9,217.9l-5.2,1.6l5.2-2.6l5.2,2.6L94.9,217.9z M94.9,232.5L94.9,232.5c-2.5,0-4.2-2.3-4.2-6c0-4.2,1.7-6.2,4.2-6.2l0,0
			c2.5,0,4.2,2,4.2,6.2C99.1,230.2,97.3,232.5,94.9,232.5 M94.9,219.9c-3.6-0.1-6.6,2.8-6.7,6.5c0,0.1,0,0.1,0,0.2
			c0,3.4,2.6,6.5,6.7,6.5s6.7-3,6.7-6.5c0-3.6-2.9-6.6-6.5-6.6C95,219.9,95,219.9,94.9,219.9 M82.5,232.5c2.9,0,4.3-2.1,4.5-2.2
			c0.1,0-1.4,2.7-4.6,2.7c-7,0-6.9-6.3-6.9-6.3c0.2-4.4,3.8-7.1,7.3-6.7c0.7,0.1,1.4,0.2,2,0.5c0.3,0.1,1.2,0.6,1.5,0.4
			c0.2-0.1,0.4-0.6,0.5-0.6l0,3.5c-0.2,0-1-3.3-4.4-3.3c-2.7,0-4.8,3.1-4.8,6.2C77.9,231.6,81.4,232.5,82.5,232.5 M122.5,226.6v3.2
			v1.7c0,1-0.1,1.1,0.6,1.1h3.5c0.8-0.1,1.4-0.3,1.7-0.5c0.8-0.6,0.6-1.6,0.8-1.6l-0.1,2.6h-9.7c0-0.1,1.5,0.2,1.5-2v-8.9
			c0-2.1-1.4-1.8-1.4-2h9.7l0.1,2.5c-0.2,0,0.3-2-2.6-2.2h-3.2c-0.6,0-0.8,0-0.8,1.1v2.7l0,0.6c0,0.5,0,0.5,0.7,0.5h3.1
			c1.6,0,1.4-1.4,1.5-1.4v3.3c-0.1,0,0.1-1.5-1.4-1.5h-3.1C122.5,225.9,122.5,226.1,122.5,226.6L122.5,226.6z"/>
	</g>
</g>
</svg>
