<?xml version="1.0" encoding="utf-8"?>
<!-- Generator: Adobe Illustrator 25.0.1, SVG Export Plug-In . SVG Version: 6.00 Build 0)  -->
<svg version="1.1" id="Layer_1" xmlns="http://www.w3.org/2000/svg" xmlns:xlink="http://www.w3.org/1999/xlink" x="0px" y="0px"
	 viewBox="0 0 175 162" style="enable-background:new 0 0 175 162;" xml:space="preserve">
<style type="text/css">
	.st0{fill:#FFFFFF;}
	.st1{fill:#A82F13;}
	.st2{clip-path:url(#SVGID_2_);}
	.st3{fill-rule:evenodd;clip-rule:evenodd;fill:#40464E;}
</style>
<g>
	<path class="st0" d="M112.8,139.6c-1.8,0-3.6,0-5.4,0c-11.8-0.1-23.8-0.2-35.4-0.4c-8.9-0.1-17.8-0.2-26.7-0.3
		c-3.5,0-7.3-0.1-11.7-0.1c-4.4,0-8.7,0-13.1,0l-5.1,0c-1.9,0-3.8,0.1-5.6,0.2c-1.1,0.1-2.2,0.1-3.2,0.2l-0.2,0
		c-0.6,0-0.9,0-0.9-1.2c-0.2-2.4-0.4-4.9-0.6-7.3c-0.3-3-0.5-6.1-0.7-9.1c-0.5-9.6-0.9-19.4-1.4-28.9C2.7,88,2.5,83.2,2.3,78.4
		c-0.2-2.5-0.3-5-0.5-7.5c-0.1-1.2-0.2-2.3-0.3-3.5v-1.9c0-0.2,0.1-0.3,0.1-0.5c0.1-0.5,0.2-1,0.2-1.5c0.1-3.2,0.2-6.3,0.3-9.5
		c0.1-6.2,0.3-12.6,0.6-18.8c0.4-6.8,1.2-13.7,2-20.3c0.3-2.4,1.1-3.1,3.8-3.2c2.6-0.1,5.2-0.3,7.7-0.5L19,11h18
		c0.3,0,0.5,0.1,0.8,0.1c0.7,0.1,1.4,0.2,2.1,0.2c5.4,0,10.9,0,16.3,0c5.4,0,10.9,0,16.3,0c7.1,0,14.1,0.1,21.2,0.1
		c14.1,0.1,28.2,0.2,42.2,0.2c3.6,0,7.3,0,10.9,0c5.1,0,10.3,0,15.4-0.1c0,0,0,0,0,0c1.1,0,2.1-0.2,3.1-0.4c0.4-0.1,0.8-0.2,1.2-0.2
		c0.1,0.1,0.2,0.1,0.3,0.2c1.2,0.9,1.8,1.4,1.9,2.4c0.1,1,0.2,2,0.4,3c0.2,1.5,0.4,3,0.4,4.4c0,13.7-0.1,25.3-0.3,37
		c-0.2,9.8-0.5,19.8-0.8,29.5c-0.1,4.8-0.3,9.6-0.4,14.5c-0.1,3.7-0.2,7.4-0.2,11.1c-0.1,3.7-0.2,7.4-0.2,11.1
		c-0.1,2.7-0.2,5-0.5,7.2c-0.3,2.6-0.5,4.4-1.1,5c-0.6,0.6-2,0.9-4.8,1.2c-6.2,0.8-13,1.3-21.5,1.5
		C130.5,139.5,121.5,139.6,112.8,139.6z"/>
	<path class="st1" d="M36.9,12.5c0.2,0,0.4,0.1,0.7,0.1c0.7,0.1,1.5,0.2,2.3,0.2c0,0,0,0,0,0c5.4,0,10.9,0,16.3,0
		c5.4,0,10.9,0,16.3,0c7.1,0,14.1,0.1,21.2,0.1c13.8,0.1,28.1,0.2,42.2,0.2c3.6,0,7.3,0,10.9,0c5.5,0,10.5,0,15.4-0.1
		c1.3,0,2.4-0.3,3.5-0.5c0.2,0,0.4-0.1,0.6-0.1c0.8,0.6,1,0.8,1.1,1.1c0.1,1.1,0.2,2.1,0.4,3.1c0.2,1.5,0.4,2.9,0.4,4.2
		c0,13.7-0.1,25.3-0.3,36.9c-0.2,9.8-0.5,19.8-0.8,29.4c-0.1,4.8-0.3,9.7-0.4,14.5c-0.1,3.7-0.2,7.4-0.2,11.1
		c-0.1,3.7-0.2,7.4-0.2,11.1c-0.1,2.7-0.2,5-0.5,7.1c-0.2,1.7-0.4,3.8-0.7,4.2c-0.5,0.3-2.9,0.7-3.8,0.8c-6.1,0.8-12.9,1.3-21.4,1.5
		c-9.1,0.3-18.1,0.4-26.7,0.4c-1.8,0-3.6,0-5.4,0c-11.8-0.1-23.8-0.2-35.4-0.4c-8.7-0.1-17.8-0.2-26.7-0.3c-3.5,0-7.4-0.1-11.7-0.1
		c-4.4,0-8.7,0-13.1,0l-5,0c-1.9,0-3.9,0.1-5.7,0.2c-0.9,0.1-1.8,0.1-2.8,0.1c-0.2-2.4-0.4-4.7-0.6-7c-0.3-3-0.5-6-0.7-9.1
		c-0.5-9.6-0.9-19.4-1.4-28.9C4.2,88,4,83.2,3.8,78.3c-0.2-2.5-0.3-5-0.5-7.5c-0.1-1.2-0.2-2.3-0.3-3.4v-1.7c0-0.1,0-0.2,0.1-0.3
		c0.1-0.5,0.2-1.1,0.3-1.8l0,0l0,0c0.1-3.2,0.2-6.4,0.3-9.4c0.1-6.2,0.3-12.5,0.6-18.8c0.4-6.8,1.2-13.6,2-20.2
		c0.2-1.6,0.2-1.8,2.4-1.9c2.6-0.1,5.2-0.3,7.7-0.5c0.9-0.1,1.8-0.1,2.6-0.2H36.9 M167,9.5c-0.2,0-0.3,0-0.4,0
		c-1.5,0.2-3,0.7-4.4,0.7c-5.2,0-10.3,0.1-15.4,0.1c-3.6,0-7.3,0-10.9,0c-21.2-0.1-42.3-0.2-63.4-0.3c-10.9,0-21.8,0-32.6-0.1
		c-0.9,0-1.9-0.2-2.8-0.3c-6,0-12.1,0-18.1,0c-3.5,0.3-7,0.6-10.4,0.8c-3.3,0.2-4.8,1.2-5.3,4.5c-0.8,6.8-1.7,13.6-2,20.4
		C0.7,44.6,0.6,54,0.3,63.5c0,0.7-0.2,1.3-0.3,2c0,0.7,0,1.4,0,2.1c0.3,3.6,0.6,7.3,0.8,11c0.7,14.4,1.3,28.9,2,43.3
		c0.3,5.5,0.9,10.9,1.2,16.4c0.1,1.8,0.9,2.6,2.4,2.6c0.1,0,0.2,0,0.2,0c3-0.1,5.9-0.4,8.8-0.4c6,0,12.1-0.1,18.1-0.1
		c3.9,0,7.8,0,11.7,0.1c20.7,0.2,41.4,0.6,62.1,0.7c1.8,0,3.6,0,5.4,0c9,0,17.9-0.2,26.8-0.4c7.2-0.2,14.5-0.6,21.7-1.5
		c6.3-0.8,6.4-1.2,7.2-7.6c0.3-2.4,0.5-4.9,0.5-7.4c0.2-7.4,0.3-14.8,0.5-22.2c0.4-14.6,0.9-29.3,1.2-44c0.3-12.3,0.3-24.7,0.3-37
		c0-2.5-0.6-5-0.8-7.6C170.1,11.5,168.4,10.6,167,9.5L167,9.5z"/>
</g>
<path class="st1" d="M55.9,92.1c-1.1,1.7-3.1,3.4-5.2,3.9c-6.9-1.5-15.4-1.5-22.1-2L25,94.7c-0.6-1.1-1.6-4.5-1.7-5.8
	c7.6-6.5,14.8-14.6,19.8-23.8c0.3-0.5,0.5-1.2,0.5-2c0-1.8-0.8-4.2-2.4-5c-2.2-0.4-5.2,0.2-6.7,1.1c-0.2,1.8-0.9,7.5-1.6,9.1
	c-1,0.4-3.9,0.8-5.1,0.8c-1.3-3.9-2-7.3-2.2-11.4c5-2.8,13.6-4.6,17.4-4.6c5.3,0,9.1,3.3,10.9,5.9c0.5,0.8,0.7,2.4,0.7,4.3
	c-0.1,2.4-0.6,5.3-1.5,6.8C48.9,76.7,41.9,83.8,36,88.5c4.5-0.2,9.2-0.5,12.2-0.5l1.2-6.8c1.5-0.2,4.6-0.2,5.8,0.2
	C55.5,85.4,56.1,88.7,55.9,92.1z"/>
<g>
	<path class="st1" d="M95.7,51.3c0,1-0.7,1.6-1.5,1.7c-0.3,0-0.5,0-0.8,0h-0.8v2.1h-1.1v-5.5h1.9c0.3,0,0.5,0,0.8,0
		C95.1,49.7,95.7,50.3,95.7,51.3z M94.6,51.3c0-0.5-0.3-0.8-0.7-0.8c-0.1,0-0.3,0-0.5,0h-0.8v1.7h0.8c0.2,0,0.4,0,0.5,0
		C94.3,52,94.6,51.8,94.6,51.3z"/>
	<path class="st1" d="M101.6,52.3c0,1.7-1,2.9-2.7,2.9c-1.7,0-2.7-1.1-2.7-2.9c0-1.7,1-2.9,2.7-2.9
		C100.6,49.4,101.6,50.6,101.6,52.3z M100.5,52.3c0-1.3-0.6-2-1.6-2c-1,0-1.6,0.8-1.6,2c0,1.3,0.6,2,1.6,2
		C99.9,54.4,100.5,53.6,100.5,52.3z"/>
	<path class="st1" d="M108.3,55.1h-1.5l-0.9-4.6l-1,4.6h-1.5l-1.4-5.5h1.2l0.9,4.7l1-4.6h1.6l0.9,4.6l1-4.7h1.1L108.3,55.1z"/>
	<path class="st1" d="M114.4,55.1h-4v-5.5h3.9v0.9h-2.8v1.5h2.6v0.9h-2.6v1.5h2.9V55.1z"/>
	<path class="st1" d="M119.7,55.1h-1.2c-0.1-0.4-0.2-0.7-0.3-1.2c-0.1-0.6-0.3-1-0.7-1c-0.2,0-0.3,0-0.4,0h-0.6v2.2h-1.1v-5.5h2
		c0.3,0,0.5,0,0.8,0c0.8,0.1,1.4,0.5,1.4,1.5c0,0.7-0.4,1.2-1.1,1.3c0.5,0.2,0.8,0.7,0.8,1.3C119.4,54.4,119.5,54.8,119.7,55.1z
		 M117.2,52c0.2,0,0.3,0,0.4,0c0.4,0,0.8-0.3,0.8-0.8c0-0.5-0.3-0.7-0.7-0.8c-0.1,0-0.3,0-0.5,0h-0.8V52H117.2z"/>
	<path class="st1" d="M124.6,55.1h-4v-5.5h3.9v0.9h-2.8v1.5h2.6v0.9h-2.6v1.5h2.9V55.1z"/>
	<path class="st1" d="M130.4,52.2c0,1.7-1,2.6-2.3,2.8c-0.3,0-0.4,0-0.7,0h-1.9v-5.5h1.9c0.3,0,0.4,0,0.7,0
		C129.4,49.7,130.4,50.6,130.4,52.2z M129.2,52.3c0-1.1-0.5-1.7-1.3-1.8c-0.2,0-0.3,0-0.6,0h-0.7v3.8h0.7c0.2,0,0.4,0,0.6,0
		C128.7,54.1,129.2,53.4,129.2,52.3z"/>
	<path class="st1" d="M137.2,53.4c0,1-0.8,1.5-1.5,1.6c-0.3,0-0.5,0-0.8,0h-2v-5.5h2c0.3,0,0.4,0,0.7,0c0.9,0.1,1.4,0.6,1.4,1.4
		c0,0.6-0.3,0.9-0.9,1.1C136.8,52.3,137.2,52.7,137.2,53.4z M134,51.8h0.8c0.1,0,0.3,0,0.4,0c0.4-0.1,0.6-0.3,0.6-0.7
		c0-0.4-0.3-0.6-0.6-0.7c-0.1,0-0.3,0-0.4,0H134V51.8z M136,53.4c0-0.5-0.3-0.7-0.7-0.8c-0.1,0-0.3,0-0.4,0H134v1.6h1
		c0.1,0,0.3,0,0.4,0C135.7,54.2,136,53.9,136,53.4z"/>
	<path class="st1" d="M140.6,55.1h-1.1v-2.1l-2-3.4h1.2l1.3,2.4l1.2-2.4h1.2l-2,3.4V55.1z"/>
	<path class="st1" d="M144.1,51.4c0,0.4-0.3,0.7-0.7,0.7c-0.4,0-0.7-0.3-0.7-0.7c0-0.4,0.3-0.7,0.7-0.7
		C143.8,50.7,144.1,51,144.1,51.4z M144.1,54.5c0,0.4-0.3,0.7-0.7,0.7c-0.4,0-0.7-0.3-0.7-0.7s0.3-0.7,0.7-0.7
		C143.8,53.8,144.1,54.1,144.1,54.5z"/>
</g>
<path class="st1" d="M132.3,105.5h-28.9c-4.8,0-8.6-3.9-8.6-8.6v0c0-4.8,3.9-8.6,8.6-8.6h28.9c4.8,0,8.6,3.9,8.6,8.6v0
	C140.9,101.7,137,105.5,132.3,105.5z"/>
<g>
	<defs>
		<rect id="SVGID_1_" x="108.8" y="92.4" width="18" height="9"/>
	</defs>
	<clipPath id="SVGID_2_">
		<use xlink:href="#SVGID_1_"  style="overflow:visible;"/>
	</clipPath>
	<g class="st2">
		<path class="st0" d="M126.6,96.4l-3.7-3.8c-0.3-0.3-0.7-0.3-1,0c-0.3,0.3-0.3,0.7,0,1l2.5,2.5h-14.9c-0.4,0-0.7,0.3-0.7,0.7
			s0.3,0.7,0.7,0.7h14.9l-2.5,2.5c-0.3,0.3-0.3,0.7,0,1c0.3,0.3,0.7,0.3,1,0l3.7-3.8C126.9,97.1,126.9,96.7,126.6,96.4z"/>
	</g>
</g>
<path class="st1" d="M7.2,156.5C4,155.8-1.6,133,4.6,132.3c6.2-0.8,159-2.9,163.9-2c4.8,1,7.2,24-0.3,24.8
	C160.6,155.9,12.2,157.6,7.2,156.5z"/>
<path class="st1" d="M170.5,4.6c7.7,0.8,5.3,24.1,0.3,25c-4.9,1-160.7-1.2-167-2C-2.6,26.8,3.1,3.9,6.4,3.1
	C11.5,2,162.8,3.8,170.5,4.6z"/>
<g id="Martina">
	<g id="PoÄetna-v2" transform="translate(-855.000000, -64.000000)">
		<g id="Header">
			<g id="Logo" transform="translate(855.000000, 64.000000)">
				<path id="Fill-2" class="st3" d="M105,72.3h2.4v1.4c-1.1,0.8-2.2,0.9-2.7,0.9c-1.9,0-3.3-1.3-3.3-3.1c0-1.7,1.3-3,3.2-3.1
					c1.8-0.1,3,0.6,3.8,1.1l0.3,0.3v-1.5l-0.1-0.1c-0.3-0.2-1.8-1.2-4.1-1.2c-2.7,0-4.7,1.9-4.7,4.5c0,2.5,2,4.5,4.7,4.5
					c1.5,0,2.9-0.5,4.1-1.6l0.1-0.1v-2.1h0v-1.4h-4V72.3z"/>
				<path id="Fill-4" class="st3" d="M88,72.1c-1,0.7-1.9,0.7-2.8,0l1.4-2.6L88,72.1z M86.1,67.4l-4.6,8.4h1.7l1.3-2.4
					c1.3,0.7,2.7,0.7,4.1,0l1.3,2.4h1.7L87,67.4H86.1z"/>
				<polygon id="Fill-6" class="st3" points="112.3,72.3 115.3,72.3 115.4,70.9 112.3,70.9 112.3,68.8 116.9,68.8 116.9,67.4 
					110.8,67.4 110.8,75.8 117,75.8 117,74.4 112.3,74.4 				"/>
				<polygon id="Fill-8" class="st3" points="124.8,73.3 119.6,67.4 118.5,67.4 118.5,75.8 120,75.8 120,70 125.3,75.8 126.4,75.8 
					126.4,67.4 124.8,67.4 				"/>
				<polygon id="Fill-10" class="st3" points="127.6,68.8 130.5,68.8 130.5,75.8 132,75.8 132,68.8 134.9,68.8 134.9,67.4 
					127.6,67.4 				"/>
				<polygon id="Fill-12" class="st3" points="153.2,67.4 149.7,70.9 146.2,67.4 145.2,67.4 145.2,75.8 146.8,75.8 146.8,70 
					149.7,72.8 152.6,70 152.6,75.8 154.1,75.8 154.1,67.4 				"/>
				<path id="Fill-14" class="st3" d="M97.2,69.9c0,0.2-0.1,0.5-0.3,0.7c-0.3,0.3-0.7,0.4-1.3,0.4h-1.5l0-2.2l1.6,0
					C96.8,68.8,97.2,69.3,97.2,69.9 M98.6,69.9c0-0.7-0.2-1.3-0.7-1.7c-0.5-0.5-1.3-0.8-2.3-0.8l-3.1,0l0,8.4l1.5,0l0-3.5h1.1
					l2.8,3.5l1.8,0l-2.9-3.6C98,71.9,98.6,71,98.6,69.9"/>
				<path id="Fill-16" class="st3" d="M141.9,71.8c0,1.9-0.6,2.7-2.2,2.7c-1.6,0-2.2-0.8-2.2-2.7v-4.3H136v4.3
					c0,2.7,1.2,4.1,3.7,4.1c2.5,0,3.7-1.4,3.7-4.1v-4.3h-1.5V71.8z"/>
			</g>
		</g>
	</g>
</g>
</svg>
