<?xml version="1.0" encoding="utf-8"?>
<!-- Generator: Adobe Illustrator 25.0.1, SVG Export Plug-In . SVG Version: 6.00 Build 0)  -->
<svg version="1.1" id="Layer_1" xmlns="http://www.w3.org/2000/svg" xmlns:xlink="http://www.w3.org/1999/xlink" x="0px" y="0px"
	 viewBox="0 0 175 163" style="enable-background:new 0 0 175 163;" xml:space="preserve">
<style type="text/css">
	.st0{fill:#FFFFFF;}
	.st1{fill:#FAAD18;}
	.st2{clip-path:url(#SVGID_2_);}
	.st3{fill:#231F20;}
</style>
<g>
	<path class="st0" d="M115.6,150c-1.9,0-3.7,0-5.6,0c-12-0.1-24.3-0.2-36.1-0.4c-9-0.1-18-0.2-27-0.3c-3.6,0-7.5-0.1-11.9-0.1
		c-4.5,0-8.9,0-13.4,0l-5,0c-1.9,0-3.9,0.1-5.8,0.2c-1.1,0.1-2.2,0.1-3.3,0.2l-0.2,0c-0.6,0-0.9,0-1-1.2c-0.2-2.5-0.4-5-0.6-7.4
		c-0.3-3-0.5-6.2-0.7-9.3c-0.5-9.8-1-19.7-1.4-29.4C3.5,97.5,3.3,92.6,3,87.7c-0.1-2.4-0.3-4.9-0.5-7.4c-0.1-1.3-0.2-2.5-0.3-3.8
		v-1.9c0-0.2,0.1-0.4,0.1-0.5c0.1-0.5,0.2-1,0.2-1.5c0.1-3.2,0.2-6.4,0.3-9.6C3,56.6,3.1,50.2,3.5,43.8c0.4-7,1.2-13.9,2.1-20.6
		c0.3-2.5,1.1-3.1,3.9-3.3c2.6-0.1,5.3-0.3,7.8-0.5l2.8-0.2h18.3c0.3,0,0.5,0.1,0.8,0.1c0.7,0.1,1.4,0.2,2.1,0.2c5.5,0,11,0,16.5,0
		c5.6,0,11.1,0,16.7,0c7.2,0,14.4,0.1,21.5,0.1c14.3,0.1,28.6,0.2,43,0.2c3.7,0,7.4,0,11.1,0c5.6,0,10.7,0,15.7-0.1c0,0,0,0,0,0
		c1.1,0,2.2-0.2,3.2-0.4c0.4-0.1,0.8-0.2,1.3-0.3c0.1,0.1,0.2,0.1,0.3,0.2c1.2,0.9,1.9,1.4,2,2.4c0.1,1,0.2,2,0.4,3
		c0.2,1.6,0.4,3,0.4,4.5c0,14-0.1,25.7-0.3,37.6c-0.2,10-0.5,20.1-0.8,30c-0.2,4.9-0.3,9.8-0.4,14.7c-0.1,3.8-0.2,7.6-0.2,11.3
		c-0.1,3.8-0.2,7.5-0.2,11.2c-0.1,2.8-0.2,5.1-0.5,7.4c-0.3,2.7-0.5,4.4-1.1,5.1c-0.6,0.6-2,0.9-4.8,1.3c-6.3,0.8-13.3,1.3-21.9,1.6
		C133.5,149.8,124.4,150,115.6,150z"/>
	<path class="st1" d="M38.2,20.6c0.2,0,0.4,0.1,0.7,0.1c0.7,0.1,1.5,0.2,2.4,0.2c0,0,0,0,0,0c5.5,0,11,0,16.6,0c5.5,0,11.1,0,16.6,0
		c7.2,0,14.4,0.1,21.6,0.1c14.1,0.1,28.6,0.2,42.9,0.2c3.7,0,7.4,0,11.1,0c5.6,0,10.7,0,15.7-0.1c1.3,0,2.5-0.3,3.5-0.5
		c0.2,0,0.4-0.1,0.6-0.1c0.9,0.7,1.1,0.9,1.1,1.2c0.1,1.1,0.2,2.1,0.4,3.1c0.2,1.5,0.4,2.9,0.4,4.3c0,14-0.1,25.7-0.3,37.6
		c-0.2,10-0.5,20.1-0.8,29.9c-0.2,4.9-0.3,9.8-0.4,14.8c-0.1,3.8-0.2,7.5-0.2,11.3c-0.1,3.8-0.2,7.5-0.2,11.3
		c-0.1,2.8-0.2,5-0.5,7.2c-0.2,1.7-0.5,3.9-0.8,4.3c-0.4,0.4-3,0.7-3.9,0.8c-6.3,0.8-13.2,1.3-21.8,1.5c-9.2,0.3-18.4,0.4-27.2,0.4
		c-1.9,0-3.7,0-5.6,0c-12-0.1-24.3-0.2-36.1-0.4c-8.9-0.1-18-0.2-27-0.3c-3.6,0-7.5-0.1-11.9-0.1c-4.5,0-8.9,0-13.4,0l-5,0
		c-2,0-3.9,0.1-5.8,0.2c-1,0.1-1.9,0.1-2.9,0.1c-0.2-2.4-0.4-4.9-0.6-7.2c-0.3-3-0.5-6.1-0.7-9.2c-0.5-9.8-1-19.7-1.4-29.4
		C5,97.4,4.8,92.5,4.5,87.6c-0.1-2.5-0.3-5-0.5-7.4c-0.1-1.2-0.2-2.5-0.3-3.7v-1.7c0-0.1,0-0.2,0.1-0.4c0.1-0.5,0.2-1.1,0.3-1.8l0,0
		l0,0c0.1-3.2,0.2-6.5,0.3-9.6C4.5,56.7,4.6,50.2,5,43.9C5.4,37,6.2,30,7,23.3c0.2-1.6,0.2-1.9,2.5-2c2.6-0.1,5.3-0.4,7.9-0.6
		c0.9-0.1,1.8-0.1,2.7-0.2H38.2 M170.7,17.6c-0.2,0-0.3,0-0.4,0c-1.5,0.2-3,0.7-4.5,0.7c-5.2,0-10.5,0.1-15.7,0.1
		c-3.7,0-7.4,0-11.1,0c-21.5-0.1-43-0.2-64.5-0.3c-11,0-22.1,0-33.2-0.1c-1,0-1.9-0.2-2.9-0.3c-6.2,0-12.3,0-18.4,0
		c-3.6,0.3-7.1,0.6-10.6,0.8C6,18.5,4.5,19.6,4,23C3.2,29.9,2.4,36.8,2,43.7c-0.5,9.6-0.6,19.2-0.9,28.8c0,0.7-0.2,1.3-0.3,2
		c0,0.7,0,1.4,0,2.1c0.3,3.7,0.6,7.5,0.8,11.2c0.7,14.7,1.3,29.4,2.1,44.1c0.3,5.6,0.9,11.1,1.3,16.7c0.1,1.8,0.9,2.6,2.5,2.6
		c0.1,0,0.2,0,0.2,0c3-0.1,6-0.4,9-0.4c6.1,0,12.3-0.1,18.4-0.1c4,0,7.9,0,11.9,0.1c21.1,0.2,42.1,0.6,63.1,0.7c1.9,0,3.7,0,5.6,0
		c9.1,0,18.2-0.2,27.3-0.4c7.3-0.2,14.8-0.6,22.1-1.6c6.4-0.8,6.5-1.3,7.3-7.7c0.3-2.5,0.5-5,0.5-7.5c0.2-7.5,0.3-15,0.5-22.6
		c0.4-14.9,1-29.8,1.3-44.7c0.3-12.5,0.3-25.1,0.3-37.6c0-2.6-0.6-5.1-0.8-7.7C173.8,19.6,172.1,18.7,170.7,17.6L170.7,17.6z"/>
</g>
<g>
	<path class="st1" d="M46.5,98.7c-2.1,1.7-4.2,2.8-7.5,2.9c-7.2,0.1-14.2-2.8-17-6.5c1.5-3.6,2.2-6.3,4.2-9.9c1.8,0,4.9,0.4,6.5,1.1
		c-0.3,3.9-0.4,6.7-0.8,9.2c2,1.3,6.8,1.6,8.1,1.4c2-2.8,3.1-6.5,3.3-11.4c0.2-3.5-0.8-7.5-2.4-8.5c-3.2-0.1-7,1.6-8.8,2.4l-0.5-5.9
		c2.2-1.1,4.6-1.8,6.8-3c1.5-1.5,2.8-4.9,2.8-7.3c0-3.4-0.1-5.8-1.3-8.1c-1.4-1.1-4.1-0.9-6.6-0.3c-0.2,3.1-0.5,5.6-0.9,9.4
		c-1.5,0.5-3.4,0.9-5.1,0.9c-1.5-3.3-2.2-6.7-2.8-11.4c6.1-3.3,11.4-4.4,14.4-4.4c4.2,0,7.2,0.1,9.8,2.4c2.3,2.1,3.9,4.5,3.9,8.1
		c0,3.1-1.7,6.8-5,9.8c-0.8,0.8-1.8,1.5-2.9,2.1c2.3-0.2,4.1,0.1,4.8,0.5c3.6,2.2,5.2,6.5,5.3,9C54.9,87,52.3,94.2,46.5,98.7z"/>
</g>
<g>
	<g>
		<path class="st1" d="M89.8,51c0,1-0.7,1.6-1.5,1.7c-0.3,0-0.5,0-0.8,0h-0.8v2.1h-1.1v-5.5h1.9c0.3,0,0.5,0,0.8,0
			C89.1,49.4,89.8,50,89.8,51z M88.6,51c0-0.5-0.3-0.8-0.7-0.8c-0.1,0-0.3,0-0.5,0h-0.8v1.7h0.8c0.2,0,0.4,0,0.5,0
			C88.4,51.8,88.6,51.5,88.6,51z"/>
	</g>
	<g>
		<path class="st1" d="M95.7,52c0,1.7-1,2.9-2.7,2.9c-1.7,0-2.7-1.1-2.7-2.9c0-1.7,1-2.9,2.7-2.9C94.7,49.2,95.7,50.3,95.7,52z
			 M94.6,52c0-1.3-0.6-2-1.6-2c-1,0-1.6,0.8-1.6,2c0,1.3,0.6,2,1.6,2C94,54.1,94.6,53.3,94.6,52z"/>
	</g>
	<g>
		<path class="st1" d="M102.3,54.8h-1.5l-0.9-4.6l-1,4.6h-1.5l-1.4-5.5h1.2l0.9,4.7l1-4.6h1.6l0.9,4.6l1-4.7h1.1L102.3,54.8z"/>
	</g>
	<g>
		<path class="st1" d="M108.5,54.8h-4v-5.5h3.9v0.9h-2.8v1.5h2.6v0.9h-2.6v1.5h2.9V54.8z"/>
	</g>
	<g>
		<path class="st1" d="M113.8,54.8h-1.2c-0.1-0.4-0.2-0.7-0.3-1.2c-0.1-0.6-0.3-1-0.7-1c-0.2,0-0.3,0-0.4,0h-0.6v2.2h-1.1v-5.5h2
			c0.3,0,0.5,0,0.8,0c0.8,0.1,1.4,0.5,1.4,1.5c0,0.7-0.4,1.2-1.1,1.3c0.5,0.2,0.8,0.7,0.8,1.3C113.5,54.1,113.6,54.5,113.8,54.8z
			 M111.3,51.8c0.2,0,0.3,0,0.4,0c0.4,0,0.8-0.3,0.8-0.8c0-0.5-0.3-0.7-0.7-0.8c-0.1,0-0.3,0-0.5,0h-0.8v1.6H111.3z"/>
	</g>
	<g>
		<path class="st1" d="M118.6,54.8h-4v-5.5h3.9v0.9h-2.8v1.5h2.6v0.9h-2.6v1.5h2.9V54.8z"/>
	</g>
	<g>
		<path class="st1" d="M124.5,52c0,1.7-1,2.6-2.3,2.8c-0.3,0-0.4,0-0.7,0h-1.9v-5.5h1.9c0.3,0,0.4,0,0.7,0
			C123.5,49.5,124.5,50.3,124.5,52z M123.3,52c0-1.1-0.5-1.7-1.3-1.8c-0.2,0-0.3,0-0.6,0h-0.7v3.8h0.7c0.2,0,0.4,0,0.6,0
			C122.7,53.8,123.3,53.1,123.3,52z"/>
	</g>
	<g>
		<path class="st1" d="M131.3,53.2c0,1-0.8,1.5-1.5,1.6c-0.3,0-0.5,0-0.8,0h-2v-5.5h2c0.3,0,0.4,0,0.7,0c0.9,0.1,1.4,0.6,1.4,1.4
			c0,0.6-0.3,0.9-0.9,1.1C130.9,52,131.3,52.4,131.3,53.2z M128.1,51.5h0.8c0.1,0,0.3,0,0.4,0c0.4-0.1,0.6-0.3,0.6-0.7
			c0-0.4-0.3-0.6-0.6-0.7c-0.1,0-0.3,0-0.4,0h-0.8V51.5z M130.1,53.2c0-0.5-0.3-0.7-0.7-0.8c-0.1,0-0.3,0-0.4,0h-0.9v1.6h1
			c0.1,0,0.3,0,0.4,0C129.8,53.9,130.1,53.6,130.1,53.2z"/>
	</g>
	<g>
		<path class="st1" d="M134.7,54.8h-1.1v-2.1l-2-3.4h1.2l1.3,2.4l1.2-2.4h1.2l-2,3.4V54.8z"/>
	</g>
	<g>
		<path class="st1" d="M138.2,51.1c0,0.4-0.3,0.7-0.7,0.7c-0.4,0-0.7-0.3-0.7-0.7c0-0.4,0.3-0.7,0.7-0.7
			C137.9,50.4,138.2,50.7,138.2,51.1z M138.2,54.2c0,0.4-0.3,0.7-0.7,0.7c-0.4,0-0.7-0.3-0.7-0.7s0.3-0.7,0.7-0.7
			C137.9,53.6,138.2,53.9,138.2,54.2z"/>
	</g>
</g>
<g>
	<path class="st1" d="M126.3,105.2H97.4c-4.8,0-8.6-3.9-8.6-8.6v0c0-4.8,3.9-8.6,8.6-8.6h28.9c4.8,0,8.6,3.9,8.6,8.6v0
		C135,101.4,131.1,105.2,126.3,105.2z"/>
</g>
<g>
	<defs>
		<rect id="SVGID_1_" x="102.9" y="92.1" width="18" height="9"/>
	</defs>
	<clipPath id="SVGID_2_">
		<use xlink:href="#SVGID_1_"  style="overflow:visible;"/>
	</clipPath>
	<g class="st2">
		<path class="st0" d="M120.7,96.1l-3.7-3.8c-0.3-0.3-0.7-0.3-1,0c-0.3,0.3-0.3,0.7,0,1l2.5,2.5h-14.9c-0.4,0-0.7,0.3-0.7,0.7
			c0,0.4,0.3,0.7,0.7,0.7h14.9l-2.5,2.5c-0.3,0.3-0.3,0.7,0,1c0.3,0.3,0.7,0.3,1,0l3.7-3.8C121,96.9,121,96.4,120.7,96.1z"/>
	</g>
</g>
<g>
	<path class="st1" d="M9.5,161.9c-3.3-0.7-8.8-23.5-2.6-24.2c6.2-0.8,157.3-2.9,162.1-2c4.8,1,7.1,24-0.3,24.8
		C161.1,161.3,14.3,163,9.5,161.9z"/>
</g>
<g>
	<path class="st1" d="M170.5,3.4c7.6,0.8,5.2,24.1,0.3,25c-4.9,1-159-1.2-165.3-2C-0.7,25.7,4.9,2.7,8.3,2
		C13.2,0.9,162.9,2.6,170.5,3.4z"/>
</g>
<g>
	<polygon class="st3" points="126.8,74.9 126.5,74.9 122,65.9 124,65.9 126.7,71.6 126.7,71.6 129.4,65.9 131.3,65.9 	"/>
	<polygon class="st3" points="86.5,65.9 86.5,67.4 82.2,67.4 82.2,69.6 86.2,69.6 86.2,71 82.2,71 82.2,73.2 86.9,73.2 86.9,74.7 
		80.5,74.7 80.5,65.9 	"/>
	<polygon class="st3" points="107.8,65.9 107.8,67.4 103.5,67.4 103.5,69.6 107.5,69.6 107.5,71.1 103.5,71.1 103.5,73.2 
		108.2,73.2 108.2,74.7 101.7,74.7 101.7,65.9 	"/>
	<polygon class="st3" points="140.3,65.9 140.3,67.4 136,67.4 136,69.7 140.1,69.7 140.1,71.1 136,71.1 136,73.2 140.7,73.2 
		140.7,74.7 134.3,74.7 134.3,65.9 	"/>
	<path class="st3" d="M147.5,73.3c2,0,2.8-1,2.8-3c0-2-0.9-3-2.8-3h-1.3v5.9H147.5z M144.5,74.7v-8.8h3c3,0,4.5,1.8,4.5,4.4
		c0,2.6-1.5,4.4-4.5,4.4H144.5z"/>
	<path class="st3" d="M97.4,66.8L96.6,68c-0.7-0.5-1.5-0.7-2.4-0.7c-1.3,0-1.7,0.5-1.7,1c0,1.6,5.1,0.7,5.1,3.8
		c0,1.7-1.5,2.9-3.6,2.9c-1.4,0-2.7-0.4-3.7-1.6l0.9-1.1c0.9,0.8,1.7,1.2,2.8,1.2c1.3,0,1.9-0.6,1.9-1.3c0-1.9-5.3-0.6-5.3-3.8
		c0-1.4,1.4-2.5,3.4-2.5C95.5,65.8,96.7,66.2,97.4,66.8z"/>
	<path class="st3" d="M76.9,74.7l-0.1-1.3c-0.1,0-0.3,0-0.5,0c-0.7,0-1.1-0.2-1.5-0.9c-0.2-0.3-0.3-0.6-0.5-0.8
		c-0.2-0.3-0.3-0.4-0.4-0.5c1.3-0.3,2.2-1.2,2.2-2.6c0-1.6-1.1-2.7-3.3-2.7h-3.6v8.8h1.7v-3.2c0,0,0.6,0,0.8,0
		c0.4,0,0.6,0.2,0.8,0.4c0.2,0.3,0.8,1.3,0.8,1.3c0.8,1.2,1.6,1.6,2.8,1.6C76.4,74.8,76.7,74.7,76.9,74.7z M72.7,70.1h-1.9v-2.8h1.9
		c1.1,0,1.6,0.5,1.6,1.4C74.3,69.7,73.6,70.1,72.7,70.1"/>
	<path class="st3" d="M120.2,74.7l-0.1-1.3c-0.1,0-0.3,0-0.5,0c-0.7,0-1.1-0.2-1.5-0.9c-0.2-0.3-0.3-0.6-0.5-0.8
		c-0.2-0.3-0.3-0.4-0.4-0.5c1.3-0.3,2.2-1.2,2.2-2.6c0-1.6-1.1-2.7-3.3-2.7h-3.6v8.8h1.7v-3.2c0,0,0.6,0,0.8,0
		c0.4,0,0.6,0.2,0.8,0.4c0.2,0.3,0.8,1.3,0.8,1.3c0.8,1.2,1.6,1.6,2.8,1.6C119.7,74.8,120,74.7,120.2,74.7z M116,70.1h-1.9v-2.8h1.9
		c1.1,0,1.6,0.5,1.6,1.4C117.6,69.7,116.9,70.1,116,70.1"/>
</g>
</svg>
