<?xml version="1.0" encoding="utf-8"?>
<!-- Generator: Adobe Illustrator 25.0.1, SVG Export Plug-In . SVG Version: 6.00 Build 0)  -->
<svg version="1.1" id="Layer_1" xmlns="http://www.w3.org/2000/svg" xmlns:xlink="http://www.w3.org/1999/xlink" x="0px" y="0px"
	 viewBox="0 0 142 137" style="enable-background:new 0 0 142 137;" xml:space="preserve">
<style type="text/css">
	.st0{fill:#FFFFFF;}
	.st1{fill:#FAAD18;}
	.st2{fill:#A82E12;}
	.st3{clip-path:url(#SVGID_2_);}
	.st4{fill:#231F20;}
	.st5{fill:none;stroke:#231F20;stroke-width:1.3017;stroke-miterlimit:10;}
</style>
<g>
	<path class="st0" d="M92.2,119.8c-1.5,0-2.9,0-4.4,0c-9.6-0.1-19.3-0.2-28.8-0.3c-7.2-0.1-14.4-0.2-21.6-0.3c-3.2,0-6.3,0-9.5,0
		c-3.6,0-7.2,0-10.7,0l-3.9,0c-1.5,0-3.1,0.1-4.6,0.2c-0.9,0.1-1.7,0.1-2.6,0.1l-0.1,0c-0.2,0-0.3,0-0.4,0c0,0-0.1-0.2-0.1-0.7
		c-0.1-2-0.3-4.1-0.5-6c-0.2-2.5-0.4-5-0.5-7.5c-0.4-8-0.8-16.1-1.1-23.9c-0.2-4-0.4-8-0.5-12c-0.1-2-0.3-4-0.4-6
		c-0.1-1-0.2-2-0.2-3.1v-1.5c0-0.1,0.1-0.3,0.1-0.4c0.1-0.4,0.2-0.8,0.2-1.3c0.1-2.6,0.1-5.2,0.2-7.8c0.1-5.1,0.2-10.4,0.5-15.6
		c0.3-5.7,1-11.3,1.6-16.8C5,15,5.5,14.6,7.6,14.5c2.1-0.1,4.2-0.3,6.2-0.4l2.2-0.2h14.5c0.2,0,0.4,0.1,0.6,0.1
		c0.6,0.1,1.1,0.2,1.8,0.2c4.4,0,8.8,0,13.2,0c4.4,0,8.8,0,13.2,0c5.8,0,11.5,0.1,17.3,0.1c11.4,0.1,22.8,0.1,34.2,0.2
		c2.9,0,5.9,0,8.8,0c4.2,0,8.3,0,12.5-0.1h0c0.9,0,1.8-0.2,2.6-0.4c0.3-0.1,0.6-0.1,0.9-0.2c0,0,0.1,0.1,0.1,0.1
		c1,0.8,1.4,1.1,1.5,1.8c0.1,0.8,0.2,1.7,0.3,2.5c0.2,1.3,0.4,2.5,0.4,3.6c0,11.4,0,20.9-0.2,30.6c-0.2,8.1-0.4,16.4-0.7,24.4
		c-0.1,4-0.2,8-0.4,11.9c-0.1,3.1-0.1,6.1-0.2,9.2c-0.1,3.1-0.1,6.1-0.2,9.2c-0.1,2.3-0.2,4.2-0.4,6c-0.2,2.1-0.4,3.5-0.8,4
		c-0.4,0.4-1.6,0.7-3.7,0.9c-5,0.6-10.6,1-17.4,1.3C106.5,119.7,99.2,119.8,92.2,119.8z"/>
	<path class="st1" d="M30.5,15.4c0.2,0,0.3,0,0.5,0.1c0.6,0.1,1.3,0.2,2,0.2c0,0,0,0,0,0c4.4,0,8.8,0,13.2,0c4.4,0,8.8,0,13.2,0
		c5.7,0,11.5,0.1,17.2,0.1c11.2,0.1,22.8,0.1,34.2,0.2c2.9,0,5.9,0,8.8,0c4.4,0,8.5,0,12.5-0.1c1.1,0,2.1-0.2,2.9-0.4
		c0.1,0,0.1,0,0.2,0c0.2,0.2,0.4,0.3,0.4,0.4c0.1,0.9,0.2,1.7,0.3,2.6c0.2,1.2,0.3,2.4,0.3,3.4c0,11.4,0,20.9-0.2,30.6
		c-0.2,8.1-0.4,16.4-0.7,24.4c-0.1,4-0.2,8-0.4,12c-0.1,3.1-0.1,6.1-0.2,9.2c-0.1,3.1-0.1,6.1-0.2,9.2c-0.1,2.2-0.2,4.1-0.4,5.8
		c-0.1,1.2-0.3,2.6-0.5,3.1c-0.6,0.2-2.1,0.4-2.7,0.5c-5,0.6-10.5,1-17.3,1.3c-7.4,0.2-14.6,0.4-21.6,0.4c-1.5,0-3,0-4.4,0
		c-9.6-0.1-19.3-0.2-28.8-0.3c-7.1-0.1-14.4-0.2-21.5-0.3c-2.9,0-6,0-9.5,0c-3.6,0-7.1,0-10.7,0l-4,0c-1.6,0-3.2,0.1-4.7,0.2
		c-0.6,0-1.1,0.1-1.7,0.1c-0.1-1.8-0.3-3.6-0.4-5.3c-0.2-2.5-0.4-5-0.5-7.5c-0.4-8-0.8-16.1-1.1-23.9c-0.2-4-0.4-8-0.5-12
		c-0.1-2-0.3-4.1-0.4-6c-0.1-1-0.2-2-0.2-3v-1.3c0-0.1,0-0.2,0-0.2c0.1-0.4,0.2-0.9,0.2-1.5l0,0l0,0c0.1-2.6,0.1-5.2,0.2-7.8
		c0.1-5.1,0.2-10.4,0.5-15.5c0.3-5.6,1-11.2,1.6-16.7c0.1-0.6,0.2-0.8,0.2-0.9c0.1,0,0.5-0.1,1.2-0.2c2.1-0.1,4.2-0.3,6.3-0.5
		c0.7-0.1,1.4-0.1,2.1-0.2H30.5 M136.1,12.4c-0.1,0-0.2,0-0.3,0c-1.2,0.2-2.4,0.6-3.6,0.6c-4.2,0-8.3,0.1-12.5,0.1
		c-2.9,0-5.9,0-8.8,0c-17.2-0.1-34.3-0.2-51.4-0.3c-8.8,0-17.6,0-26.4-0.1c-0.8,0-1.5-0.2-2.3-0.3c-4.9,0-9.8,0-14.7,0
		c-2.8,0.2-5.6,0.5-8.4,0.6c-2.7,0.1-3.9,1-4.3,3.7C2.6,22.3,2,28,1.7,33.6C1.2,41.4,1.2,49.2,0.9,57c0,0.6-0.2,1.1-0.3,1.6
		c0,0.6,0,1.2,0,1.7c0.2,3.1,0.5,6.1,0.6,9.1c0.5,12,1,23.9,1.6,35.9c0.2,4.5,0.7,9.1,1,13.6c0.1,1.5,0.7,2.1,2,2.1
		c0.1,0,0.1,0,0.2,0c2.4-0.1,4.8-0.3,7.2-0.3c4.9,0,9.8,0,14.7,0c3.2,0,6.3,0,9.5,0c16.8,0.2,33.5,0.5,50.3,0.6c1.5,0,3,0,4.5,0
		c7.3,0,14.5-0.1,21.7-0.4c5.8-0.2,11.8-0.5,17.6-1.3c5.1-0.7,5.2-1,5.8-6.3c0.2-2,0.4-4,0.4-6.1c0.2-6.1,0.2-12.2,0.4-18.4
		c0.3-12.1,0.8-24.2,1-36.4c0.2-10.2,0.2-20.4,0.2-30.6c0-2.1-0.5-4.2-0.7-6.3C138.6,14,137.2,13.3,136.1,12.4L136.1,12.4z"/>
</g>
<g>
	<path class="st1" d="M136.7,4.4c6.1,0.8,4.2,24.1,0.3,25S8.6,28.3,3.5,27.5C-1.6,26.7,3,3.7,5.7,3C9.7,1.9,130.5,3.6,136.7,4.4z"/>
</g>
<g>
	<path class="st1" d="M6.9,134.8c-2.6-0.7-7.1-23.5-2.1-24.2c5-0.8,127-2.9,130.9-2s5.7,24-0.3,24.8
		C129.4,134.2,10.9,135.9,6.9,134.8z"/>
</g>
<path class="st2" d="M46.1,82.4c-1.8,0-3.5-0.1-5.3-0.1l0.7,9.3c-0.4,0.6-6,1.8-8.4,1.8c-1.1,0.1-3.3-0.5-3.7-1.2
	c0.5-3.1,1.1-6.7,1.7-10.1c-6.9-0.1-14.1-0.1-21.5,0.2c-1.1-1.5-1.8-3.9-1.8-5.4c7-10.7,13-23.9,15.4-35.5c2.1-0.5,4.7-0.6,6.6-0.2
	c1.3,0.5,3.4,2.1,4.2,3.3c-1.1,8.1-9.9,23.4-17.5,33.4c4.2-0.5,9.7-1.2,15.1-1.7l-0.8-13.6c1-0.3,3.7-1.8,5.8-2.5
	c1,0.3,4.9,1.1,5.9,2.1l-1.5,13.4c2.1-0.1,4.2-0.2,5.9-0.1C47.5,77,46.7,80.5,46.1,82.4z"/>
<g>
	<path class="st2" d="M67.2,40.5c0,1-0.7,1.6-1.5,1.7c-0.3,0-0.5,0-0.8,0h-0.8v2.1H63v-5.5h1.9c0.3,0,0.5,0,0.8,0
		C66.5,38.9,67.2,39.5,67.2,40.5z M66,40.5c0-0.5-0.3-0.8-0.7-0.8c-0.1,0-0.3,0-0.5,0h-0.8v1.7h0.8c0.2,0,0.4,0,0.5,0
		C65.7,41.3,66,41,66,40.5z"/>
	<path class="st2" d="M73.1,41.6c0,1.7-1,2.9-2.7,2.9c-1.7,0-2.7-1.1-2.7-2.9c0-1.7,1-2.9,2.7-2.9C72.1,38.7,73.1,39.8,73.1,41.6z
		 M71.9,41.6c0-1.3-0.6-2-1.6-2c-1,0-1.6,0.8-1.6,2c0,1.3,0.6,2,1.6,2C71.4,43.6,71.9,42.8,71.9,41.6z"/>
	<path class="st2" d="M79.7,44.3h-1.5l-0.9-4.6l-1,4.6h-1.5l-1.4-5.5h1.2l0.9,4.7l1-4.6h1.6l0.9,4.6l1-4.7h1.1L79.7,44.3z"/>
	<path class="st2" d="M85.9,44.3h-4v-5.5h3.9v0.9H83v1.5h2.6V42H83v1.5h2.9V44.3z"/>
	<path class="st2" d="M91.2,44.3H90c-0.1-0.4-0.2-0.7-0.3-1.2c-0.1-0.6-0.3-1-0.7-1c-0.2,0-0.3,0-0.4,0h-0.6v2.2h-1.1v-5.5h2
		c0.3,0,0.5,0,0.8,0c0.8,0.1,1.4,0.5,1.4,1.5c0,0.7-0.4,1.2-1.1,1.3c0.5,0.2,0.8,0.7,0.8,1.3C90.9,43.6,91,44,91.2,44.3z M88.7,41.3
		c0.2,0,0.3,0,0.4,0c0.4,0,0.8-0.3,0.8-0.8c0-0.5-0.3-0.7-0.7-0.8c-0.1,0-0.3,0-0.5,0h-0.8v1.6H88.7z"/>
	<path class="st2" d="M96,44.3h-4v-5.5h3.9v0.9h-2.8v1.5h2.6V42h-2.6v1.5H96V44.3z"/>
	<path class="st2" d="M101.8,41.5c0,1.7-1,2.6-2.3,2.8c-0.3,0-0.4,0-0.7,0H97v-5.5h1.9c0.3,0,0.4,0,0.7,0
		C100.9,39,101.8,39.8,101.8,41.5z M100.7,41.5c0-1.1-0.5-1.7-1.3-1.8c-0.2,0-0.3,0-0.6,0h-0.7v3.8h0.7c0.2,0,0.4,0,0.6,0
		C100.1,43.3,100.7,42.6,100.7,41.5z"/>
	<path class="st2" d="M108.6,42.7c0,1-0.8,1.5-1.5,1.6c-0.3,0-0.5,0-0.8,0h-2v-5.5h2c0.3,0,0.4,0,0.7,0c0.9,0.1,1.4,0.6,1.4,1.4
		c0,0.6-0.3,0.9-0.9,1.1C108.3,41.5,108.6,42,108.6,42.7z M105.5,41.1h0.8c0.1,0,0.3,0,0.4,0c0.4-0.1,0.6-0.3,0.6-0.7
		c0-0.4-0.3-0.6-0.6-0.7c-0.1,0-0.3,0-0.4,0h-0.8V41.1z M107.5,42.7c0-0.5-0.3-0.7-0.7-0.8c-0.1,0-0.3,0-0.4,0h-0.9v1.6h1
		c0.1,0,0.3,0,0.4,0C107.2,43.4,107.5,43.1,107.5,42.7z"/>
	<path class="st2" d="M112.1,44.3H111v-2.1l-2-3.4h1.2l1.3,2.4l1.2-2.4h1.2l-2,3.4V44.3z"/>
	<path class="st2" d="M115.6,40.6c0,0.4-0.3,0.7-0.7,0.7c-0.4,0-0.7-0.3-0.7-0.7c0-0.4,0.3-0.7,0.7-0.7
		C115.3,40,115.6,40.2,115.6,40.6z M115.6,43.8c0,0.4-0.3,0.7-0.7,0.7c-0.4,0-0.7-0.3-0.7-0.7s0.3-0.7,0.7-0.7
		C115.3,43.1,115.6,43.4,115.6,43.8z"/>
</g>
<g>
	<path class="st2" d="M103.7,98.8H74.8c-4.8,0-8.6-3.9-8.6-8.6v0c0-4.8,3.9-8.6,8.6-8.6h28.9c4.8,0,8.6,3.9,8.6,8.6v0
		C112.3,94.9,108.5,98.8,103.7,98.8z"/>
	<g>
		<defs>
			<rect id="SVGID_1_" x="80.3" y="85.6" width="18" height="9"/>
		</defs>
		<clipPath id="SVGID_2_">
			<use xlink:href="#SVGID_1_"  style="overflow:visible;"/>
		</clipPath>
		<g class="st3">
			<path class="st0" d="M98.1,89.6l-3.7-3.8c-0.3-0.3-0.7-0.3-1,0c-0.3,0.3-0.3,0.7,0,1l2.5,2.5H81c-0.4,0-0.7,0.3-0.7,0.7
				c0,0.4,0.3,0.7,0.7,0.7h14.9l-2.5,2.5c-0.3,0.3-0.3,0.7,0,1c0.3,0.3,0.7,0.3,1,0l3.7-3.8C98.3,90.4,98.3,89.9,98.1,89.6z"/>
		</g>
	</g>
</g>
<g>
	<g id="ANZOTICA">
		<g>
			<path class="st4" d="M65.7,53h2L70,66.8h-1.5l-0.4-2.6h-2.5l-0.4,2.6h-1.5L65.7,53z M65.7,62.9h2.1l-1.1-7.3h0L65.7,62.9z"/>
			<path class="st4" d="M75.9,53h1.4v13.8h-1.2L73,57.3l0.1,3.5v6h-1.5V53h1.2l3.2,9.4l-0.2-4V53z"/>
			<path class="st4" d="M79.6,53h4.3v1.2L81,65.5h2.8v1.3h-4.5v-1.4l2.8-11h-2.6V53z"/>
			<path class="st4" d="M85.4,56.8c0-1.6,0.3-2.6,0.8-3.2c0.4-0.5,1.1-0.7,1.9-0.7c1.2,0,2,0.5,2.4,1.5c0.2,0.6,0.3,1.4,0.3,2.4v6.1
				c0,1.4-0.2,2.5-0.6,3.1c-0.4,0.7-1.1,1-2.1,1c-1,0-1.7-0.3-2.1-1c-0.4-0.7-0.6-1.7-0.6-3.1V56.8z M89.2,56.7
				c0-0.9-0.1-1.5-0.2-1.9c-0.1-0.4-0.4-0.6-0.9-0.6c-0.4,0-0.7,0.2-0.9,0.6c-0.2,0.4-0.3,1-0.3,1.9v6.2c0,1.1,0.1,1.8,0.2,2.1
				c0.1,0.4,0.4,0.6,0.9,0.6c0.4,0,0.7-0.2,0.9-0.6c0.1-0.4,0.2-1.1,0.2-2.1V56.7z"/>
			<path class="st4" d="M92,53h4.6v1.3h-1.4v12.4h-1.6V54.4H92V53z"/>
			<path class="st4" d="M98.1,53h1.6v13.8h-1.6V53z"/>
			<path class="st4" d="M101.9,57c0-1,0.1-1.8,0.3-2.3c0.2-0.5,0.4-0.9,0.6-1.1c0.4-0.5,1.1-0.8,1.9-0.8c1.2,0,2,0.5,2.3,1.6
				c0.2,0.6,0.3,1.4,0.3,2.4v1.5h-1.6v-1.5c0-0.9,0-1.5-0.1-1.8c-0.1-0.3-0.2-0.5-0.3-0.6c-0.1-0.1-0.3-0.2-0.5-0.2
				c-0.4,0-0.7,0.2-0.9,0.6c-0.2,0.4-0.2,1.1-0.2,1.9v6c0,1,0.1,1.8,0.2,2.2c0.1,0.4,0.4,0.6,0.9,0.6c0.4,0,0.7-0.2,0.9-0.6
				c0.1-0.4,0.2-1.1,0.2-2.2v-1.5h1.6v1.5c0,1.4-0.2,2.5-0.6,3.2c-0.4,0.7-1.1,1-2.1,1c-1,0-1.7-0.4-2.1-1.1
				c-0.4-0.7-0.6-1.8-0.6-3.2V57z"/>
			<path class="st4" d="M110.7,53h2l2.3,13.8h-1.5l-0.4-2.6h-2.5l-0.4,2.6h-1.5L110.7,53z M110.7,62.9h2.1l-1.1-7.3h0L110.7,62.9z"
				/>
		</g>
		<line class="st5" x1="114" y1="66.1" x2="115.4" y2="66.1"/>
		<line class="st5" x1="63.2" y1="66.1" x2="63.9" y2="66.1"/>
	</g>
	<g>
		<path class="st4" d="M76,71.3c0-0.5,0-0.8,0.1-1c0.1-0.2,0.2-0.4,0.3-0.5c0.2-0.2,0.5-0.3,0.9-0.3c0.5,0,0.9,0.2,1,0.7
			c0.1,0.3,0.1,0.6,0.1,1.1v0.7h-0.7v-0.7c0-0.4,0-0.7-0.1-0.8c0-0.1-0.1-0.2-0.2-0.3c-0.1,0-0.1-0.1-0.2-0.1
			c-0.2,0-0.3,0.1-0.4,0.3c-0.1,0.2-0.1,0.5-0.1,0.9v2.7c0,0.5,0,0.8,0.1,1c0.1,0.2,0.2,0.3,0.4,0.3c0.2,0,0.3-0.1,0.4-0.3
			c0.1-0.2,0.1-0.5,0.1-1v-0.7h0.7v0.7c0,0.7-0.1,1.1-0.3,1.4c-0.2,0.3-0.5,0.5-0.9,0.5c-0.4,0-0.8-0.2-0.9-0.5
			C76.1,75,76,74.5,76,73.9V71.3z"/>
		<path class="st4" d="M79.3,71.2c0-0.7,0.1-1.2,0.4-1.5c0.2-0.2,0.5-0.3,0.9-0.3c0.6,0,0.9,0.2,1.1,0.7c0.1,0.3,0.1,0.6,0.1,1.1
			v2.7c0,0.6-0.1,1.1-0.3,1.4c-0.2,0.3-0.5,0.4-0.9,0.4s-0.8-0.1-1-0.4c-0.2-0.3-0.3-0.8-0.3-1.4V71.2z M81,71.2
			c0-0.4,0-0.7-0.1-0.8c-0.1-0.2-0.2-0.2-0.4-0.2c-0.2,0-0.3,0.1-0.4,0.3C80,70.5,80,70.8,80,71.1v2.8c0,0.5,0,0.8,0.1,1
			c0.1,0.2,0.2,0.3,0.4,0.3c0.2,0,0.3-0.1,0.4-0.3c0.1-0.2,0.1-0.5,0.1-1V71.2z"/>
		<path class="st4" d="M82.6,71.4c0-0.1-0.1-0.3-0.1-0.5c0-0.4,0.1-0.8,0.2-1.1c0.2-0.3,0.5-0.4,0.9-0.4c0.6,0,1,0.3,1.1,0.9
			c0,0.2,0.1,0.6,0.1,0.9v0.4h-0.7v-0.4c0-0.4,0-0.7-0.1-0.8c0-0.1-0.1-0.2-0.1-0.3c-0.1,0-0.1-0.1-0.2-0.1c-0.2,0-0.3,0.1-0.4,0.2
			c-0.1,0.1-0.1,0.3-0.1,0.6c0,0.3,0,0.4,0.1,0.6c0.1,0.1,0.2,0.2,0.3,0.3c0.1,0.1,0.2,0.2,0.2,0.2l0.4,0.4c0.5,0.5,0.8,1.1,0.8,1.8
			c0,0.5-0.1,0.9-0.2,1.2c-0.2,0.3-0.5,0.4-0.9,0.4c-0.6,0-0.9-0.2-1.1-0.7c-0.1-0.3-0.1-0.6-0.1-1.1c0,0,0,0,0,0v-0.6h0.7v0.6
			c0,0.5,0,0.8,0.1,0.9c0.1,0.2,0.2,0.3,0.4,0.3c0.2,0,0.3,0,0.4-0.1c0.1-0.1,0.1-0.2,0.1-0.4c0-0.2,0-0.4,0-0.6
			c0-0.4-0.2-0.8-0.6-1.2l-0.4-0.4C82.9,72.1,82.7,71.7,82.6,71.4z"/>
		<path class="st4" d="M88.4,69.5h0.9v6.2h-0.6v-2.5l0.1-2.3l-0.8,4.8h-0.7l-0.9-4.8l0.1,2.3v2.5h-0.6v-6.2h0.9l0.9,5.1L88.4,69.5z"
			/>
		<path class="st4" d="M90.3,69.5h1.9v0.6h-1.1v2.1h1.1v0.6h-1.1v2.3h1.1v0.6h-1.9V69.5z"/>
		<path class="st4" d="M92.6,69.5h2v0.6H94v5.6h-0.7v-5.6h-0.7V69.5z"/>
		<path class="st4" d="M95.3,69.5h0.7v6.2h-0.7V69.5z"/>
		<path class="st4" d="M97.1,71.3c0-0.5,0-0.8,0.1-1c0.1-0.2,0.2-0.4,0.3-0.5c0.2-0.2,0.5-0.3,0.9-0.3c0.5,0,0.9,0.2,1,0.7
			c0.1,0.3,0.1,0.6,0.1,1.1v0.7h-0.7v-0.7c0-0.4,0-0.7-0.1-0.8c0-0.1-0.1-0.2-0.2-0.3c-0.1,0-0.1-0.1-0.2-0.1
			c-0.2,0-0.3,0.1-0.4,0.3c-0.1,0.2-0.1,0.5-0.1,0.9v2.7c0,0.5,0,0.8,0.1,1c0.1,0.2,0.2,0.3,0.4,0.3c0.2,0,0.3-0.1,0.4-0.3
			c0.1-0.2,0.1-0.5,0.1-1v-0.7h0.7v0.7c0,0.7-0.1,1.1-0.3,1.4c-0.2,0.3-0.5,0.5-0.9,0.5s-0.8-0.2-0.9-0.5c-0.2-0.3-0.3-0.8-0.3-1.4
			V71.3z"/>
		<path class="st4" d="M100.3,71.4c0-0.1-0.1-0.3-0.1-0.5c0-0.4,0.1-0.8,0.2-1.1c0.2-0.3,0.5-0.4,0.9-0.4c0.6,0,1,0.3,1.1,0.9
			c0,0.2,0.1,0.6,0.1,0.9v0.4h-0.7v-0.4c0-0.4,0-0.7-0.1-0.8c0-0.1-0.1-0.2-0.1-0.3c-0.1,0-0.1-0.1-0.2-0.1c-0.2,0-0.3,0.1-0.4,0.2
			c-0.1,0.1-0.1,0.3-0.1,0.6c0,0.3,0,0.4,0.1,0.6c0.1,0.1,0.2,0.2,0.3,0.3c0.1,0.1,0.2,0.2,0.2,0.2l0.4,0.4c0.5,0.5,0.8,1.1,0.8,1.8
			c0,0.5-0.1,0.9-0.2,1.2c-0.2,0.3-0.5,0.4-0.9,0.4c-0.6,0-0.9-0.2-1.1-0.7c-0.1-0.3-0.1-0.6-0.1-1.1c0,0,0,0,0,0v-0.6h0.7v0.6
			c0,0.5,0,0.8,0.1,0.9c0.1,0.2,0.2,0.3,0.4,0.3c0.2,0,0.3,0,0.4-0.1c0.1-0.1,0.1-0.2,0.1-0.4c0-0.2,0-0.4,0-0.6
			c0-0.4-0.2-0.8-0.6-1.2l-0.4-0.4C100.6,72.1,100.4,71.7,100.3,71.4z"/>
	</g>
</g>
</svg>
