<?xml version="1.0" encoding="utf-8"?>
<!-- Generator: Adobe Illustrator 25.0.1, SVG Export Plug-In . SVG Version: 6.00 Build 0)  -->
<svg version="1.1" id="Layer_1" xmlns="http://www.w3.org/2000/svg" xmlns:xlink="http://www.w3.org/1999/xlink" x="0px" y="0px"
	 viewBox="0 0 146 199" style="enable-background:new 0 0 146 199;" xml:space="preserve">
<style type="text/css">
	.st0{fill:#FFFFFF;}
	.st1{opacity:0.8;fill:#FFFFFF;enable-background:new    ;}
	.st2{fill:#A82E12;}
	.st3{clip-path:url(#SVGID_2_);}
	.st4{fill:#005BA1;}
	.st5{fill:none;stroke:#FFFFFF;stroke-width:0.3686;stroke-miterlimit:10;}
	.st6{fill:#EC1C24;}
	.st7{fill:#FFF100;}
</style>
<path class="st0" d="M3.5,10.3c-0.1-0.1-0.3-0.2-0.4-0.3c0.5-0.7,1-1.5,1.5-2.2C4.7,7.9,4.8,8,5,8.1C4.5,8.9,4,9.6,3.5,10.3z"/>
<path class="st0" d="M8.5,196.8c-0.1,0.2-0.2,0.3-0.3,0.4c-0.6-0.4-1.2-0.8-1.8-1.2c0.1-0.2,0.2-0.3,0.3-0.5
	C7.4,195.9,7.9,196.3,8.5,196.8z"/>
<g>
	<path class="st1" d="M133.8,161.3c0,6.2-0.1,11.9-0.1,17.2c-0.2,6.9-1.3,8.6-6,9.3c-16.2,2.5-33.7,3.6-53.3,3.6l-4.6,0
		c-15.2-0.1-31-0.1-46.1-3.2c-0.5-0.1-2.2-0.5-2.3-4.8c-0.2-12.8-0.3-25.6-0.6-38.4c-0.6-41.3-1.2-84.2-2-126.1l0-0.5
		c0-7.1,1.6-9.3,7.2-9.5c10.8-0.5,22.2-0.8,37.1-0.8c10.5,0,21.3-0.1,31.8,0c8.5,0,16.9,0.1,25.5,0c2,0,4.2,0,5.9,1.1
		c3.4,1.9,3.7,7.8,3.9,12.9c0,0.8,0.1,1.5,0.1,2.2c0.5,7.4,0.9,15.5,1.2,25.5c0.6,16.8,0.8,34.1,1,50.8l0,0.1
		c0.1,8.8,0.4,17.5,0.5,26.1C133.4,138,133.8,149.8,133.8,161.3z"/>
	<path class="st2" d="M20.5,18.4c0-5.7,0.7-7.3,5.8-7.4c10.8-0.5,22.1-0.8,37-0.8c10.5,0,21.3-0.1,31.8,0c8.3,0,16.9,0.1,25.5,0
		c2,0,3.9,0,5.3,0.8c2.3,1.3,2.7,5.5,3,11.2c0,0.8,0.1,1.5,0.1,2.2c0.5,7.4,0.9,15.5,1.2,25.3c0.6,17,0.8,34.2,1,50.9
		c0.1,8.8,0.4,17.5,0.5,26.1c0.3,11.3,0.6,23.2,0.7,34.6c0,6.2-0.1,11.7-0.1,17.1c-0.2,6.2-0.9,6.7-4.6,7.4
		c-16.2,2.5-33.6,3.6-53.1,3.6c-1.5,0-3,0-4.6,0c-15.2-0.1-30.9-0.1-45.8-3.2c-0.4-0.1-1-0.3-1-2.8c-0.2-12.8-0.3-25.6-0.6-38.4
		c-0.6-41.3-1.2-84.2-2-126.2C20.5,18.8,20.5,18.6,20.5,18.4L20.5,18.4 M17.5,18.4c0,0.3,0,0.4,0,0.7c0.9,54.8,1.7,110,2.4,164.5
		c0,3.4,1,6.2,3.7,6.7c16.5,3.4,34,3.1,50.7,3.3c17.9,0.1,35.8-0.8,53.5-3.6c5.7-0.8,7.2-3.5,7.4-11.2c0.1-5.8,0.2-11.6,0.1-17.2
		c-0.1-20.3-0.9-40.5-1.2-60.9c-0.2-17-0.3-34.1-1-51c-0.3-8.5-0.7-17-1.2-25.5c-0.3-5.8-0.2-14.1-4.9-16.8c-2-1.2-4.3-1.2-6.5-1.2
		C101.4,6.2,82.3,6,63.4,6.2C51,6.2,38.6,6.6,26.2,7C19.6,7.2,17.4,10.2,17.5,18.4L17.5,18.4z"/>
</g>
<path class="st2" d="M3,9.3c0.8-8.2,24.4-5.8,25.4-0.5c1,5.2-0.5,173-1.3,179.8c-0.7,6.9-24,0.9-24.8-2.7C1.2,180.5,2.2,17.6,3,9.3z
	"/>
<path class="st2" d="M144.8,183.9c-0.7,3.5-23.8,9.7-24.5,2.9c-0.8-6.7-3.7-171-2.8-176.3s24.3-7.8,25.2,0.3
	C143.5,18.9,145.9,178.7,144.8,183.9z"/>
<g>
	<path class="st2" d="M50,90.2c0,1-0.7,1.6-1.5,1.7c-0.3,0-0.5,0-0.8,0h-0.8V94h-1.1v-5.5h1.9c0.3,0,0.5,0,0.8,0
		C49.3,88.6,50,89.2,50,90.2z M48.8,90.2c0-0.5-0.3-0.8-0.7-0.8c-0.1,0-0.3,0-0.5,0h-0.8v1.7h0.8c0.2,0,0.4,0,0.5,0
		C48.5,90.9,48.8,90.7,48.8,90.2z"/>
	<path class="st2" d="M55.9,91.2c0,1.7-1,2.9-2.7,2.9s-2.7-1.1-2.7-2.9c0-1.7,1-2.9,2.7-2.9S55.9,89.5,55.9,91.2z M54.7,91.2
		c0-1.3-0.6-2-1.6-2s-1.6,0.8-1.6,2c0,1.3,0.6,2,1.6,2C54.1,93.3,54.7,92.5,54.7,91.2z"/>
	<path class="st2" d="M62.5,94H61l-0.9-4.6l-1,4.6h-1.5l-1.3-5.5h1.2l0.9,4.7l1-4.6H61l0.9,4.6l1-4.7H64L62.5,94z"/>
	<path class="st2" d="M68.6,94h-4v-5.5h3.9v0.9h-2.7v1.5h2.6v0.9h-2.6v1.5h2.9L68.6,94L68.6,94z"/>
	<path class="st2" d="M74,94h-1.2c-0.1-0.4-0.2-0.7-0.3-1.2c-0.1-0.6-0.3-1-0.7-1c-0.2,0-0.3,0-0.4,0h-0.6V94h-1.1v-5.5h2
		c0.3,0,0.5,0,0.8,0c0.8,0.1,1.4,0.5,1.4,1.5c0,0.7-0.4,1.2-1.1,1.3c0.5,0.2,0.8,0.7,0.8,1.3C73.7,93.3,73.8,93.7,74,94z M71.5,90.9
		c0.2,0,0.3,0,0.4,0c0.4,0,0.8-0.3,0.8-0.8s-0.3-0.7-0.7-0.8c-0.1,0-0.3,0-0.5,0h-0.8v1.6H71.5z"/>
	<path class="st2" d="M78.8,94h-4v-5.5h3.9v0.9h-2.8v1.5h2.6v0.9h-2.6v1.5h2.9V94z"/>
	<path class="st2" d="M84.6,91.1c0,1.7-1,2.6-2.3,2.8c-0.3,0-0.4,0-0.7,0h-1.8v-5.4h1.9c0.3,0,0.4,0,0.7,0
		C83.6,88.6,84.6,89.5,84.6,91.1z M83.5,91.2c0-1.1-0.5-1.7-1.3-1.8c-0.2,0-0.3,0-0.6,0h-0.7v3.8h0.7c0.2,0,0.4,0,0.6,0
		C82.9,93,83.5,92.3,83.5,91.2z"/>
	<path class="st2" d="M91.4,92.3c0,1-0.8,1.5-1.5,1.6c-0.3,0-0.5,0-0.8,0h-2v-5.4h2c0.3,0,0.4,0,0.7,0c0.9,0.1,1.4,0.6,1.4,1.4
		c0,0.6-0.3,0.9-0.9,1.1C91.1,91.2,91.4,91.6,91.4,92.3z M88.3,90.7h0.8c0.1,0,0.3,0,0.4,0c0.4-0.1,0.6-0.3,0.6-0.7
		s-0.3-0.6-0.6-0.7c-0.1,0-0.3,0-0.4,0h-0.8V90.7z M90.3,92.3c0-0.5-0.3-0.7-0.7-0.8c-0.1,0-0.3,0-0.4,0h-0.9v1.6h1
		c0.1,0,0.3,0,0.4,0C90,93.1,90.3,92.8,90.3,92.3z"/>
	<path class="st2" d="M94.9,94h-1.1v-2.1l-2-3.4H93l1.3,2.4l1.2-2.4h1.2l-2,3.4V94H94.9z"/>
	<path class="st2" d="M98.3,90.3c0,0.4-0.3,0.7-0.7,0.7c-0.4,0-0.7-0.3-0.7-0.7s0.3-0.7,0.7-0.7C98.1,89.6,98.3,89.9,98.3,90.3z
		 M98.3,93.4c0,0.4-0.3,0.7-0.7,0.7c-0.4,0-0.7-0.3-0.7-0.7s0.3-0.7,0.7-0.7C98.1,92.7,98.3,93,98.3,93.4z"/>
</g>
<g>
	<path class="st2" d="M86.5,178.4H57.6c-4.8,0-8.6-3.9-8.6-8.6l0,0c0-4.8,3.9-8.6,8.6-8.6h28.9c4.8,0,8.6,3.9,8.6,8.6l0,0
		C95.1,174.6,91.3,178.4,86.5,178.4z"/>
	<g>
		<g>
			<defs>
				<rect id="SVGID_1_" x="63.1" y="165.3" width="18" height="9"/>
			</defs>
			<clipPath id="SVGID_2_">
				<use xlink:href="#SVGID_1_"  style="overflow:visible;"/>
			</clipPath>
			<g class="st3">
				<path class="st0" d="M80.8,169.3l-3.6-3.8c-0.3-0.3-0.7-0.3-1,0s-0.3,0.7,0,1l2.5,2.5H63.8c-0.4,0-0.7,0.3-0.7,0.7
					c0,0.4,0.3,0.7,0.7,0.7h14.9l-2.5,2.5c-0.3,0.3-0.3,0.7,0,1s0.7,0.3,1,0l3.7-3.8C81.1,170,81.1,169.6,80.8,169.3z"/>
			</g>
		</g>
	</g>
</g>
<path class="st2" d="M84.7,69.5c-1.7,2.2-6.8,5.6-10.8,5.5c-7.6-0.2-11.5-3.1-14.4-7.2c-1.2-1.8-2.7-8.8-2.7-14.7
	c0-5.2,0.7-8.4,2.3-12.5c1.5-3.7,3.6-7.8,8.4-11.7c3.9-3.2,10.5-5.9,16.7-6.2c0.8,1.1,1.3,2.4,1.5,3.6c-4.5,1.2-9.1,3.5-12.1,7.3
	c-1.8,2.2-4.7,7.5-5.4,13.5c4.2-2.9,9.3-5.2,10.7-5.5c1.3,0,3.1,0.7,4.3,1.5c1.9,1,6,5,6,8.6C89.5,59.5,88,65.3,84.7,69.5z
	 M78.6,58.4c0-3.6-0.9-8.7-3-9.4c-1.8,0.1-4.6,1.5-7.5,3.1c-0.1,8.1,0.8,13.7,2.4,17.6c0.8,0.7,4.7,1.1,5.7,0.5
	C78.3,66.4,78.6,61.4,78.6,58.4z"/>
<g>
	<rect x="51.6" y="100.9" class="st4" width="41.4" height="41.4"/>
	<rect x="51.6" y="100.9" class="st5" width="41.4" height="41.4"/>
	<path class="st6" d="M72.3,102c-10.8,0-19.6,8.8-19.6,19.6c0,10.8,8.8,19.6,19.6,19.6c10.8,0,19.6-8.8,19.6-19.6
		C91.9,110.8,83.2,102,72.3,102"/>
	<path class="st7" d="M72.3,103.3c-10.1,0-18.4,8.2-18.4,18.4c0,10.1,8.2,18.4,18.4,18.4c10.1,0,18.4-8.2,18.4-18.4
		C90.7,111.5,82.5,103.3,72.3,103.3"/>
	<polygon class="st4" points="80.4,118.2 80.4,119.5 81.4,119.5 81.4,123.8 80.4,123.8 80.4,125.1 88.6,125.1 88.6,121.6 
		85.2,123.5 85.2,119.5 86.2,119.5 86.2,118.2 	"/>
	<path class="st4" d="M76.4,122.9h-0.3v-2.6h0.2C77.6,120.3,77.6,122.9,76.4,122.9 M77.2,118.2h-5.5v1.2h1v4.3h-1v1.3h5.5
		C81.3,125.1,81.3,118.2,77.2,118.2"/>
	<polygon class="st6" points="71.2,122.2 67.9,118.9 64.2,122.7 64.2,123.9 65.1,123 67.8,125.6 66.8,126.5 67.4,127.2 72.6,121.9 
		72.6,120.7 	"/>
	<path class="st6" d="M67.5,114.3c1.1,0,2.1,0.9,2.1,2.1c0,1.1-0.9,2.1-2.1,2.1c-1.1,0-2.1-0.9-2.1-2.1
		C65.4,115.3,66.3,114.3,67.5,114.3"/>
	<polygon class="st4" points="56,118.2 61.8,118.2 61.8,119.5 60.9,119.5 60.9,123.5 64.2,121.6 64.2,125.1 56,125.1 56,123.8 
		57,123.8 57,119.5 56,119.5 	"/>
	<g>
		<path class="st4" d="M54.8,149.8c0,0,0.1,0,0.1,0h0.9c0,0,0.1,0,0.1,0c0,0,0,0.1,0,0.1c-0.2,1-0.4,1.9-0.7,2.8
			c-0.3,0.9-0.7,1.9-1.1,2.8c0,0,0,0.1-0.1,0.1c0,0-0.1,0-0.1,0h-1.1c0,0-0.1,0-0.1,0c0,0-0.1,0-0.1-0.1c-0.4-0.9-0.8-1.8-1.1-2.7
			c-0.3-0.9-0.5-1.9-0.7-2.8c0,0,0-0.1,0-0.1c0,0,0.1,0,0.1,0h0.9c0,0,0.1,0,0.1,0c0,0,0,0.1,0.1,0.1c0.1,0.8,0.3,1.6,0.5,2.4
			c0.2,0.7,0.5,1.5,0.8,2.2h0c0.3-0.8,0.6-1.5,0.8-2.2C54.4,151.5,54.6,150.7,54.8,149.8C54.8,149.8,54.8,149.8,54.8,149.8z"/>
		<path class="st4" d="M57.1,151.4c0.2,0,0.5,0,0.7,0c0,0,0.1,0,0.1,0c0,0,0,0.1,0,0.1v3.9c0,0,0,0.1,0,0.1c0,0-0.1,0-0.1,0h-0.8
			c0,0-0.1,0-0.1,0c0,0,0-0.1,0-0.1v-3.2h-0.3c0,0-0.1,0-0.1,0c0,0,0-0.1,0-0.1v-0.5c0,0,0-0.1,0-0.1c0,0,0.1,0,0.1,0
			C56.6,151.4,56.8,151.4,57.1,151.4z M57.9,149.7c0.1,0.1,0.2,0.3,0.2,0.5c0,0.2-0.1,0.4-0.2,0.5c-0.1,0.1-0.3,0.2-0.5,0.2
			c-0.2,0-0.4-0.1-0.5-0.2s-0.2-0.3-0.2-0.5c0-0.2,0.1-0.4,0.2-0.5c0.1-0.1,0.3-0.2,0.5-0.2C57.6,149.5,57.7,149.5,57.9,149.7z"/>
		<path class="st4" d="M59.3,151.7c0.3-0.2,0.6-0.3,1.1-0.3c0.4,0,0.7,0.1,1,0.3c0.3,0.2,0.4,0.4,0.5,0.8c0,0,0,0.1,0,0.1
			c0,0,0,0-0.1,0.1l-0.6,0.1c-0.1,0-0.1,0-0.1,0s-0.1-0.1-0.1-0.1c0-0.1-0.1-0.2-0.2-0.3c-0.1-0.1-0.2-0.1-0.3-0.1
			c-0.2,0-0.3,0-0.4,0.1c-0.1,0.1-0.1,0.1-0.1,0.3c0,0.1,0,0.2,0.1,0.3c0.1,0.1,0.3,0.2,0.6,0.3c0.3,0.1,0.5,0.2,0.6,0.3
			c0.1,0.1,0.3,0.2,0.4,0.3c0.1,0.1,0.2,0.2,0.2,0.4c0.1,0.1,0.1,0.3,0.1,0.4c0,0.4-0.1,0.7-0.4,0.9c-0.3,0.2-0.7,0.3-1.2,0.3
			c-0.3,0-0.5,0-0.8-0.1c-0.2-0.1-0.4-0.2-0.6-0.3c0,0-0.1-0.1-0.1-0.1c0,0,0-0.1,0-0.1l0.3-0.5c0,0,0.1-0.1,0.1-0.1
			c0,0,0.1,0,0.1,0c0.1,0.1,0.3,0.2,0.4,0.2c0.1,0.1,0.3,0.1,0.4,0.1c0.2,0,0.4,0,0.5-0.1c0.1-0.1,0.2-0.1,0.2-0.3
			c0-0.1,0-0.2-0.1-0.3c-0.1-0.1-0.3-0.2-0.5-0.3c-0.3-0.1-0.5-0.2-0.6-0.3c-0.1-0.1-0.3-0.2-0.4-0.3c-0.1-0.1-0.2-0.2-0.3-0.4
			c-0.1-0.1-0.1-0.3-0.1-0.5C58.9,152.2,59,151.9,59.3,151.7z M61.5,149.7c0.1,0,0.1,0,0.1,0.1c0,0,0,0.1,0,0.1l-0.6,0.9
			c0,0,0,0.1-0.1,0.1c0,0-0.1,0-0.1,0h-1c0,0-0.1,0-0.1,0c0,0-0.1,0-0.1-0.1l-0.6-0.9c0,0,0-0.1,0-0.1c0,0,0.1-0.1,0.1-0.1h0.5
			c0,0,0.1,0,0.1,0c0,0,0.1,0,0.1,0.1l0.5,0.6h0l0.5-0.6c0,0,0,0,0.1-0.1c0,0,0.1,0,0.1,0H61.5z"/>
		<path class="st4" d="M65.9,154.5C66,154.5,66,154.5,65.9,154.5l0.3,0.5c0,0,0,0.1,0,0.1c0,0,0,0.1-0.1,0.1
			c-0.2,0.2-0.4,0.3-0.7,0.4c-0.3,0.1-0.5,0.1-0.8,0.1c-0.7,0-1.2-0.2-1.6-0.6c-0.4-0.4-0.6-0.9-0.6-1.7c0-0.6,0.2-1.1,0.6-1.5
			c0.4-0.4,0.8-0.6,1.4-0.6c0.6,0,1,0.2,1.3,0.5c0.3,0.3,0.5,0.8,0.5,1.5c0,0,0,0.1,0,0.1c0,0.1,0,0.1,0,0.2c0,0,0,0.1,0,0.1
			c0,0-0.1,0-0.1,0h-2.5c0,0.3,0.2,0.5,0.4,0.7c0.2,0.2,0.5,0.3,0.8,0.3c0.2,0,0.3,0,0.5-0.1c0.2,0,0.3-0.1,0.4-0.2
			C65.8,154.5,65.9,154.5,65.9,154.5z M65.3,153.1c0-0.3-0.1-0.5-0.2-0.7c-0.1-0.2-0.3-0.2-0.6-0.2c-0.2,0-0.4,0.1-0.6,0.2
			c-0.2,0.2-0.3,0.4-0.3,0.7H65.3z"/>
		<path class="st4" d="M72.1,151.4c0,0,0.1,0,0.1,0c0,0,0,0.1,0,0.1v0.6c0,0,0,0.1,0,0.1c0,0,0,0.1,0,0.1l-1.7,2.3v0h1.7
			c0,0,0.1,0,0.1,0c0,0,0,0.1,0,0.1v0.6c0,0,0,0.1,0,0.1c0,0-0.1,0-0.1,0h-3c0,0-0.1,0-0.1,0c0,0,0-0.1,0-0.1v-0.6c0,0,0-0.1,0-0.1
			c0,0,0-0.1,0-0.1l1.8-2.4v0h-1.6c0,0-0.1,0-0.1,0c0,0,0-0.1,0-0.1v-0.6c0,0,0-0.1,0-0.1c0,0,0.1,0,0.1,0H72.1z"/>
		<path class="st4" d="M73.8,151.5c0.3-0.1,0.5-0.1,0.9-0.1c0.5,0,0.9,0.2,1.2,0.5c0.3,0.3,0.4,0.7,0.4,1.3v1.7h0.4c0,0,0.1,0,0.1,0
			c0,0,0,0.1,0,0.1v0.5c0,0,0,0.1,0,0.1c0,0,0,0-0.1,0.1c-0.1,0-0.2,0.1-0.4,0.1c-0.1,0-0.2,0-0.3,0c-0.2,0-0.4,0-0.5-0.1
			c-0.1-0.1-0.2-0.2-0.2-0.4h0c-0.1,0.2-0.2,0.3-0.4,0.4c-0.2,0.1-0.4,0.1-0.7,0.1c-0.4,0-0.7-0.1-0.9-0.3s-0.3-0.5-0.3-0.9
			c0-0.4,0.1-0.7,0.4-0.9c0.3-0.2,0.6-0.3,1.1-0.3c0.2,0,0.3,0,0.5,0.1c0.2,0,0.3,0.1,0.3,0.1V153c0-0.3-0.1-0.5-0.2-0.6
			c-0.1-0.1-0.3-0.2-0.6-0.2c-0.2,0-0.3,0-0.5,0.1c-0.1,0.1-0.3,0.1-0.4,0.2c0,0-0.1,0.1-0.1,0.1c0,0-0.1,0-0.1-0.1l-0.3-0.4
			c0,0,0-0.1,0-0.1c0,0,0-0.1,0-0.1C73.3,151.7,73.6,151.6,73.8,151.5z M74.2,154c-0.1,0.1-0.2,0.2-0.2,0.4c0,0.2,0.1,0.3,0.2,0.4
			c0.1,0.1,0.2,0.1,0.4,0.1c0.2,0,0.3,0,0.4-0.1c0.1-0.1,0.2-0.1,0.3-0.2v-0.5c-0.1-0.1-0.2-0.1-0.3-0.1c-0.1,0-0.2,0-0.4,0
			C74.4,153.9,74.3,153.9,74.2,154z"/>
		<path class="st4" d="M82.1,151.4c0,0,0.1,0,0.1,0h0.8c0.1,0,0.1,0,0.1,0c0,0,0,0.1,0,0.1c-0.2,0.7-0.4,1.3-0.6,2
			c-0.3,0.7-0.6,1.3-0.9,1.9c0,0,0,0.1-0.1,0.1c0,0-0.1,0-0.1,0h-0.6c0,0-0.1,0-0.1,0c0,0-0.1,0-0.1-0.1c-0.4-0.7-0.7-1.3-0.9-2
			c-0.2-0.7-0.4-1.3-0.6-1.9c0-0.1,0-0.1,0-0.1c0,0,0.1,0,0.1,0h0.8c0,0,0.1,0,0.1,0c0,0,0,0.1,0.1,0.1c0.1,0.6,0.2,1.1,0.4,1.5
			c0.1,0.5,0.3,0.9,0.5,1.3h0c0.2-0.4,0.4-0.9,0.5-1.4C81.9,152.5,82,152.1,82.1,151.4C82.1,151.5,82.1,151.5,82.1,151.4z"/>
		<path class="st4" d="M84.5,151.5c0.3-0.1,0.5-0.1,0.9-0.1c0.5,0,0.9,0.2,1.2,0.5c0.3,0.3,0.4,0.7,0.4,1.3v1.7h0.4c0,0,0.1,0,0.1,0
			c0,0,0,0.1,0,0.1v0.5c0,0,0,0.1,0,0.1c0,0,0,0-0.1,0.1c-0.1,0-0.2,0.1-0.4,0.1c-0.1,0-0.2,0-0.3,0c-0.2,0-0.4,0-0.5-0.1
			c-0.1-0.1-0.2-0.2-0.2-0.4h0c-0.1,0.2-0.2,0.3-0.4,0.4c-0.2,0.1-0.4,0.1-0.7,0.1c-0.4,0-0.7-0.1-0.9-0.3c-0.2-0.2-0.3-0.5-0.3-0.9
			c0-0.4,0.1-0.7,0.4-0.9c0.3-0.2,0.6-0.3,1.1-0.3c0.2,0,0.3,0,0.5,0.1c0.2,0,0.3,0.1,0.3,0.1V153c0-0.3-0.1-0.5-0.2-0.6
			c-0.1-0.1-0.3-0.2-0.6-0.2c-0.2,0-0.3,0-0.5,0.1c-0.1,0.1-0.3,0.1-0.4,0.2c0,0-0.1,0.1-0.1,0.1c0,0-0.1,0-0.1-0.1l-0.3-0.4
			c0,0,0-0.1,0-0.1c0,0,0-0.1,0-0.1C84.1,151.7,84.3,151.6,84.5,151.5z M84.9,154c-0.1,0.1-0.2,0.2-0.2,0.4c0,0.2,0.1,0.3,0.2,0.4
			c0.1,0.1,0.2,0.1,0.4,0.1c0.2,0,0.3,0,0.4-0.1c0.1-0.1,0.2-0.1,0.3-0.2v-0.5c-0.1-0.1-0.2-0.1-0.3-0.1c-0.1,0-0.2,0-0.4,0
			C85.2,153.9,85,153.9,84.9,154z"/>
		<path class="st4" d="M88.7,151.7c0.3-0.2,0.6-0.3,1.1-0.3c0.4,0,0.7,0.1,1,0.3c0.3,0.2,0.4,0.4,0.5,0.8c0,0,0,0.1,0,0.1
			c0,0,0,0-0.1,0.1l-0.6,0.1c-0.1,0-0.1,0-0.1,0c0,0-0.1-0.1-0.1-0.1c0-0.1-0.1-0.2-0.2-0.3c-0.1-0.1-0.2-0.1-0.3-0.1
			c-0.2,0-0.3,0-0.4,0.1c-0.1,0.1-0.1,0.1-0.1,0.3c0,0.1,0,0.2,0.1,0.3c0.1,0.1,0.3,0.2,0.6,0.3c0.3,0.1,0.5,0.2,0.6,0.3
			c0.1,0.1,0.3,0.2,0.4,0.3c0.1,0.1,0.2,0.2,0.2,0.4c0.1,0.1,0.1,0.3,0.1,0.4c0,0.4-0.1,0.7-0.4,0.9c-0.3,0.2-0.7,0.3-1.2,0.3
			c-0.3,0-0.5,0-0.8-0.1c-0.2-0.1-0.4-0.2-0.6-0.3c0,0-0.1-0.1-0.1-0.1c0,0,0-0.1,0-0.1l0.3-0.5c0,0,0.1-0.1,0.1-0.1
			c0,0,0.1,0,0.1,0c0.1,0.1,0.3,0.2,0.4,0.2c0.1,0.1,0.3,0.1,0.4,0.1c0.2,0,0.4,0,0.5-0.1c0.1-0.1,0.2-0.1,0.2-0.3
			c0-0.1,0-0.2-0.1-0.3c-0.1-0.1-0.3-0.2-0.5-0.3c-0.3-0.1-0.5-0.2-0.6-0.3c-0.1-0.1-0.3-0.2-0.4-0.3c-0.1-0.1-0.2-0.2-0.3-0.4
			c-0.1-0.1-0.1-0.3-0.1-0.5C88.2,152.2,88.4,151.9,88.7,151.7z"/>
		<path class="st4" d="M92.3,155.5c-0.1-0.1-0.2-0.3-0.2-0.5c0-0.2,0.1-0.4,0.2-0.5c0.1-0.1,0.3-0.2,0.5-0.2c0.2,0,0.4,0.1,0.5,0.2
			c0.1,0.1,0.2,0.3,0.2,0.5c0,0.2-0.1,0.4-0.2,0.5c-0.1,0.1-0.3,0.2-0.5,0.2C92.6,155.7,92.5,155.6,92.3,155.5z M92.2,149.8
			c0,0,0.1,0,0.1,0h1c0,0,0.1,0,0.1,0c0,0,0,0.1,0,0.1c0,0,0,0.3,0,1s0,1.5-0.1,2.8c0,0,0,0.1,0,0.1c0,0-0.1,0-0.1,0h-0.7
			c0,0-0.1,0-0.1,0c0,0,0-0.1,0-0.1c0-1.2-0.1-2.2-0.1-2.8c0-0.6,0-0.9,0-1C92.2,149.8,92.2,149.8,92.2,149.8z"/>
	</g>
</g>
</svg>
