<?xml version="1.0" encoding="utf-8"?>
<!-- Generator: Adobe Illustrator 25.0.1, SVG Export Plug-In . SVG Version: 6.00 Build 0)  -->
<svg version="1.1" id="Layer_1" xmlns="http://www.w3.org/2000/svg" xmlns:xlink="http://www.w3.org/1999/xlink" x="0px" y="0px"
	 viewBox="0 0 168 392" style="enable-background:new 0 0 168 392;" xml:space="preserve">
<style type="text/css">
	.st0{enable-background:new    ;}
	.st1{fill:#FFFFFF;}
	.st2{fill:#064A42;}
	.st3{clip-path:url(#SVGID_2_);}
	.st4{fill-rule:evenodd;clip-rule:evenodd;fill:#F78D1E;}
	.st5{fill-rule:evenodd;clip-rule:evenodd;fill:#62AC46;}
	.st6{fill:#6C7175;}
</style>
<g class="st0">
	<path class="st1" d="M10.6,387.2c-2.2,0-4.4,0-6.5-0.1c-0.3-1-0.5-2.3-0.5-4c-0.2-6.8-0.4-13.6-0.6-20.5c-0.5-17.8-1-36.2-1.3-54.3
		c-0.1-4,0.3-8.2,0.7-12.2c0.2-2,0.4-4,0.5-6c0-0.7,0-1.3,0-2c0-4.4-0.1-8.7-0.1-13c-0.1-10.7-0.2-21.7-0.1-32.6
		c0-5.9,0.3-12,0.6-17.8c0.2-3.2,0.3-6.4,0.4-9.5c0-0.3,0-0.7,0-1.1c0-0.3,0-0.5,0-0.8c0-3.3,0-6.5,0-9.7
		c-0.1-7.4-0.1-15.1,0.3-22.6c0.7-13.1,1-26.5,0.8-39.9c-0.1-12.5,0.3-25.3,0.8-38.3c0.3-7,0.8-14.1,1.3-21c0.2-3.2,0.4-6.4,0.6-9.6
		c0-0.5,0-0.9,0-1.4c0-0.2,0-0.4,0-0.6c0-2.6,0-5.3,0.1-7.9c0-5.6,0.1-11.4,0.3-17.1C8.5,38.6,9,32.1,9.5,25.8
		c0.2-2.7,0.4-5.4,0.6-8c0.3-3.4,0.5-6.9,0.7-10.3l0-0.5c0.1-1.6,0.9-2.5,2.5-2.7c0.8-0.1,1.6-0.3,2.4-0.4c1.7-0.3,3.3-0.6,4.9-0.7
		l0.4,0c8.1-0.2,16.2-0.5,24.3-0.6c10.7,0.2,22,0.3,34.5,0.3c13,0,26.9-0.1,44.9-0.3c2.8,0.2,5.5,0.5,8.3,0.7
		c5.4,0.4,11,0.9,16.4,1.5c1.4,0.1,2.8,0.7,4.3,1.4c0.5,0.2,1,0.4,1.6,0.6c6.1,15.5,4.9,53.4,4.3,71.7c-0.2,4.8-0.3,8.2-0.2,10
		c0.5,21.9,1.4,44.2,2.3,65.8c0.5,11.2,0.9,22.8,1.3,34.3c1.1,30.8,0.8,61.8,0.5,91.9c-0.1,4.9-0.1,9.8-0.2,14.7
		c-0.1,9.9-0.6,20-1,29.7c-0.3,5.9-0.6,11.9-0.8,18c-0.1,2.7,0.2,6.6,0.5,11c0.4,4.9,0.8,10.5,0.8,15.9v0.2c0,2.1-0.1,4.2-0.3,6.2
		c-0.3,0.4-0.6,0.9-0.8,1.5c0,0.2-0.1,0.4-0.1,0.6c-6.6,4.3-16,4.8-23.6,4.8c-2.8,0-5.5-0.1-8.1-0.2c-2.4-0.1-4.7-0.1-6.9-0.1
		l-0.9,0c-13.1,0.2-26.3,0.6-39.2,1.1c-5.2,0.2-10.5,0.4-15.7,0.5c-6.7,0.2-14.2,0.8-22.1,1.4C34,386.3,22.3,387.2,10.6,387.2z"/>
	<path class="st2" d="M124.7,3.9c2.7,0.2,5.5,0.5,8.2,0.7c5.4,0.4,11,0.9,16.4,1.5c1.2,0.1,2.5,0.7,3.9,1.3c0.3,0.1,0.6,0.3,1,0.4
		c5.7,15.6,4.5,52.6,3.9,70.5c-0.2,4.8-0.3,8.3-0.2,10.1c0.5,21.9,1.4,44.2,2.3,65.7c0.5,11.2,0.9,22.9,1.3,34.3
		c1.1,30.7,0.8,61.8,0.5,91.8c-0.1,4.9-0.1,9.8-0.2,14.7c-0.1,9.9-0.6,19.9-1,29.6c-0.3,5.9-0.6,12-0.8,18
		c-0.1,2.8,0.2,6.7,0.5,11.1c0.4,4.9,0.8,10.4,0.8,15.8v0.2c0,1.9-0.1,3.8-0.2,5.6c-0.4,0.6-0.6,1.1-0.8,1.7
		c-6.2,3.8-15.1,4.3-22.2,4.3c-2.7,0-5.5-0.1-8.1-0.2c-2.5-0.1-4.8-0.1-7-0.1c-0.3,0-0.6,0-0.9,0c-13.1,0.2-26.4,0.6-39.2,1.1
		c-5.2,0.2-10.4,0.4-15.6,0.5c-6.8,0.2-14.2,0.8-22.2,1.4c-11.2,0.9-22.9,1.8-34.5,1.8c-1.8,0-3.6,0-5.3-0.1
		c-0.1-0.7-0.2-1.6-0.2-2.6c-0.2-6.8-0.4-13.7-0.6-20.5c-0.5-17.8-1-36.2-1.3-54.3c-0.1-4,0.3-7.9,0.7-12.1c0.2-2,0.4-4,0.5-6.1
		c0-0.7,0-1.4,0-2.1c0-4.4-0.1-8.7-0.1-13.1c-0.1-10.7-0.2-21.7-0.1-32.5c0-5.9,0.3-11.9,0.6-17.8c0.2-3.1,0.3-6.4,0.4-9.5
		c0-0.4,0-0.8,0-1.2c0-0.3,0-0.5,0-0.7l0-0.1l0-0.1c0-3.2,0-6.5,0-9.6c-0.1-7.4-0.1-15,0.3-22.5c0.7-13.1,1-26.5,0.8-40
		c-0.1-12.5,0.3-25.2,0.8-38.2c0.3-7,0.8-14.1,1.3-21c0.2-3.2,0.4-6.4,0.6-9.6c0-0.6,0-1.1,0-1.5c0-0.2,0-0.4,0-0.5
		c0-2.7,0.1-5.4,0.1-8c0-5.6,0.1-11.4,0.3-17.1c0.3-6.4,0.8-12.9,1.3-19.2c0.2-2.7,0.4-5.4,0.6-8.1c0.3-3.4,0.5-6.9,0.7-10.2l0-0.6
		c0.1-0.9,0.2-1.2,1.3-1.3c0.8-0.1,1.7-0.3,2.5-0.4c1.6-0.3,3.2-0.6,4.6-0.6l0.7,0c7.9-0.2,16-0.4,24-0.6
		c10.8,0.2,22.1,0.3,34.5,0.3C92.9,4.3,106.8,4.2,124.7,3.9 M124.9,0.9c-14.9,0.2-29.9,0.3-44.9,0.3C68.4,1.3,56.9,1.2,45.4,1
		c-8.3,0.2-16.5,0.4-24.7,0.7c-2.5,0.1-5,0.7-7.5,1.1c-2.3,0.3-3.7,1.7-3.8,4.1C9.1,10.4,8.9,14,8.6,17.6c-0.7,9.1-1.6,18.2-2,27.3
		c-0.4,8.4-0.3,16.8-0.4,25.1c0,0.7,0,1.3,0,1.9c-0.6,10.2-1.5,20.4-1.9,30.6c-0.5,12.8-1,25.6-0.8,38.4c0.2,13.3-0.1,26.5-0.8,39.8
		c-0.6,10.7-0.2,21.5-0.3,32.3c0,0.7,0,1.3,0,1.9c-0.3,9.1-1,18.3-1.1,27.4c-0.2,15.2,0.1,30.4,0.2,45.6c0,0.6,0,1.3,0,1.9
		c-0.4,6.1-1.3,12.2-1.2,18.4c0.5,24.9,1.2,49.8,1.9,74.8c0.1,2.4,0.4,4.2,1,5.4c2.5,0.1,5,0.1,7.5,0.1c20.1,0,40.6-2.8,56.7-3.3
		c18.3-0.6,36.5-1.4,54.8-1.6c0.3,0,0.6,0,0.9,0c4.5,0,9.7,0.3,15,0.3c9,0,18.3-0.9,24.9-5.4c0.1-0.4,0.2-0.8,0.3-1.2
		c0.1-0.4,0.4-0.8,0.7-1.1c0.2-2.2,0.3-4.5,0.3-6.8c0,0,0-0.1,0-0.2c0-10.2-1.5-21.1-1.3-26.8c0.5-16,1.6-31.7,1.8-47.7
		c0.3-35.7,1-71-0.3-106.6c-1.2-33.3-2.8-66.7-3.6-100c-0.2-8.9,3.6-63.6-4.4-82.9c-0.1,0-0.2-0.1-0.3-0.1c-2.2-0.8-4.3-2-6.6-2.2
		C141.4,2.3,133.1,1.6,124.9,0.9L124.9,0.9z"/>
</g>
<path class="st2" d="M98,105.8c-7.4,15.5-10.3,28.2-15.7,46c-1.9,0.3-4.8,0.4-6.7,0.2c-0.9-0.6-2.1-2-2.9-3.6
	c5.2-12.6,11.2-26.3,17.3-38.2c-8.4,1.2-15.4,1.6-20.5,1.8c-0.9-3.4-1.4-6.8-0.9-10.7c11.4,0,15.5-0.2,27.5-0.2
	C96.9,102.5,97.6,104.3,98,105.8z"/>
<path class="st2" d="M31.2,377.1c-0.9,7.5-27.8,20-28.5,5.7C1.8,368.6,0.7,21,1.9,10.1C3-0.8,30.2-6,31.1,11.1
	C32,28.4,32.5,366,31.2,377.1z"/>
<path class="st2" d="M166.1,371.9c-0.8,7.2-27.4,19.9-28.2,6c-1-13.9-4.9-353.8-3.9-364.7s28-16,29,0.7
	C164,30.6,167.4,361,166.1,371.9z"/>
<g>
	<path class="st2" d="M60.8,198.8c0,1-0.7,1.6-1.5,1.7c-0.3,0-0.5,0-0.8,0h-0.8v2.1h-1.1v-5.5h1.9c0.3,0,0.5,0,0.8,0
		C60.1,197.2,60.8,197.8,60.8,198.8z M59.6,198.8c0-0.5-0.3-0.8-0.7-0.8c-0.1,0-0.3,0-0.5,0h-0.8v1.7h0.8c0.2,0,0.4,0,0.5,0
		C59.3,199.5,59.6,199.3,59.6,198.8z"/>
	<path class="st2" d="M66.7,199.8c0,1.7-1,2.9-2.7,2.9s-2.7-1.1-2.7-2.9c0-1.7,1-2.9,2.7-2.9S66.7,198.1,66.7,199.8z M65.5,199.8
		c0-1.3-0.6-2-1.6-2s-1.6,0.8-1.6,2c0,1.3,0.6,2,1.6,2C64.9,201.9,65.5,201.1,65.5,199.8z"/>
	<path class="st2" d="M73.3,202.6h-1.5l-0.9-4.6l-1,4.6h-1.5l-1.3-5.5h1.2l0.9,4.7l1-4.6h1.6l0.9,4.6l1-4.7h1.1L73.3,202.6z"/>
	<path class="st2" d="M79.4,202.6h-4v-5.5h3.9v0.9h-2.7v1.5h2.6v0.9h-2.6v1.5h2.9L79.4,202.6L79.4,202.6z"/>
	<path class="st2" d="M84.8,202.6h-1.2c-0.1-0.4-0.2-0.7-0.3-1.2c-0.1-0.6-0.3-1-0.7-1c-0.2,0-0.3,0-0.4,0h-0.6v2.2h-1.1v-5.5h2
		c0.3,0,0.5,0,0.8,0c0.8,0.1,1.4,0.5,1.4,1.5c0,0.7-0.4,1.2-1.1,1.3c0.5,0.2,0.8,0.7,0.8,1.3C84.5,201.9,84.6,202.3,84.8,202.6z
		 M82.3,199.5c0.2,0,0.3,0,0.4,0c0.4,0,0.8-0.3,0.8-0.8s-0.3-0.7-0.7-0.8c-0.1,0-0.3,0-0.5,0h-0.8v1.6H82.3z"/>
	<path class="st2" d="M89.6,202.6h-4v-5.5h3.9v0.9h-2.8v1.5h2.6v0.9h-2.6v1.5h2.9V202.6z"/>
	<path class="st2" d="M95.4,199.7c0,1.7-1,2.6-2.3,2.8c-0.3,0-0.4,0-0.7,0h-1.8v-5.4h1.9c0.3,0,0.4,0,0.7,0
		C94.4,197.2,95.4,198.1,95.4,199.7z M94.3,199.8c0-1.1-0.5-1.7-1.3-1.8c-0.2,0-0.3,0-0.6,0h-0.7v3.8h0.7c0.2,0,0.4,0,0.6,0
		C93.7,201.6,94.3,200.9,94.3,199.8z"/>
	<path class="st2" d="M102.2,200.9c0,1-0.8,1.5-1.5,1.6c-0.3,0-0.5,0-0.8,0h-2v-5.4h2c0.3,0,0.4,0,0.7,0c0.9,0.1,1.4,0.6,1.4,1.4
		c0,0.6-0.3,0.9-0.9,1.1C101.9,199.8,102.2,200.2,102.2,200.9z M99.1,199.3h0.8c0.1,0,0.3,0,0.4,0c0.4-0.1,0.6-0.3,0.6-0.7
		c0-0.4-0.3-0.6-0.6-0.7c-0.1,0-0.3,0-0.4,0h-0.8V199.3z M101.1,200.9c0-0.5-0.3-0.7-0.7-0.8c-0.1,0-0.3,0-0.4,0h-0.9v1.6h1
		c0.1,0,0.3,0,0.4,0C100.8,201.7,101.1,201.4,101.1,200.9z"/>
	<path class="st2" d="M105.7,202.6h-1.1v-2.1l-2-3.4h1.2l1.3,2.4l1.2-2.4h1.2l-2,3.4v2.1H105.7z"/>
	<path class="st2" d="M109.1,198.9c0,0.4-0.3,0.7-0.7,0.7c-0.4,0-0.7-0.3-0.7-0.7c0-0.4,0.3-0.7,0.7-0.7
		C108.9,198.2,109.1,198.5,109.1,198.9z M109.1,202c0,0.4-0.3,0.7-0.7,0.7c-0.4,0-0.7-0.3-0.7-0.7c0-0.4,0.3-0.7,0.7-0.7
		C108.9,201.3,109.1,201.6,109.1,202z"/>
</g>
<g>
	<path class="st2" d="M97.3,267H68.4c-4.8,0-8.6-3.9-8.6-8.6l0,0c0-4.8,3.9-8.6,8.6-8.6h28.9c4.8,0,8.6,3.9,8.6,8.6l0,0
		C105.9,263.2,102.1,267,97.3,267z"/>
	<g>
		<g>
			<defs>
				<rect id="SVGID_1_" x="73.9" y="253.9" width="18" height="9"/>
			</defs>
			<clipPath id="SVGID_2_">
				<use xlink:href="#SVGID_1_"  style="overflow:visible;"/>
			</clipPath>
			<g class="st3">
				<path class="st1" d="M91.6,257.9l-3.6-3.8c-0.3-0.3-0.7-0.3-1,0s-0.3,0.7,0,1l2.5,2.5H74.6c-0.4,0-0.7,0.3-0.7,0.7
					c0,0.4,0.3,0.7,0.7,0.7h14.9l-2.5,2.5c-0.3,0.3-0.3,0.7,0,1c0.3,0.3,0.7,0.3,1,0l3.7-3.8C91.9,258.6,91.9,258.2,91.6,257.9z"/>
			</g>
		</g>
	</g>
</g>
<g id="Koncept">
	<g id="biobio-napust">
		<path id="Shape" class="st4" d="M94.1,225.5c0-2.1,1.5-4.1,3.9-4.1c2.3,0,3.9,2,3.9,4.1c0,2.3-1.9,4.1-3.9,4.1
			C96.2,229.7,94.1,228.2,94.1,225.5z M94.2,231.4v-1.6l0,0c1.2,1.6,3,2,4.1,2c3.4,0,5.9-2.8,5.9-6c0-3.6-2.9-6-6-6
			c-1.5,0-3,0.6-3.9,2l0,0v-5.4H92v15.2H94.2z"/>
		<path id="Shape_1_" class="st4" d="M107.9,216h-2.1v2.5h2.2V216H107.9z M107.9,219.8h-2.1v11.6h2.2v-11.6H107.9z"/>
		<path id="Shape_2_" class="st4" d="M119.8,225.5c0,2.2-1.7,4.2-4.1,4.2c-2.4,0-4.1-2-4.1-4.1s1.6-4.1,4.1-4.1
			C118.2,221.4,119.8,223.5,119.8,225.5z M121.9,225.5c0-3.2-2.8-6-6.3-6c-3.6,0-6.3,2.9-6.3,6c0,2.9,2.3,6.1,6.3,6.1
			S121.9,228.4,121.9,225.5z"/>
		<path id="Shape_3_" class="st5" d="M48.9,225.5c0-2.1,1.5-4.1,3.9-4.1c2.3,0,3.9,2,3.9,4.1c0,2.3-1.9,4.1-3.9,4.1
			C50.9,229.7,48.9,228.2,48.9,225.5z M48.9,231.4v-1.6l0,0c1.2,1.6,3,2,4.1,2c3.4,0,5.9-2.8,5.9-6c0-3.6-2.9-6-6-6
			c-1.5,0-3,0.6-3.9,2l0,0v-5.4h-2.2v15.2H48.9z"/>
		<path id="Shape_4_" class="st5" d="M62.7,216h-2.2v2.5h2.2V216z M62.7,219.8h-2.2v11.6h2.2V219.8z"/>
		<path id="Shape_5_" class="st5" d="M74.5,225.5c0,2.2-1.7,4.2-4.1,4.2c-2.4,0-4.1-2-4.1-4.1s1.6-4.1,4.1-4.1
			S74.5,223.5,74.5,225.5z M76.7,225.5c0-3.2-2.8-6-6.3-6c-3.6,0-6.3,2.9-6.3,6c0,2.9,2.3,6.1,6.3,6.1
			C74.4,231.6,76.7,228.4,76.7,225.5z"/>
		<path id="Shape_6_" class="st6" d="M82.9,231.8c-1.4,0-2.7-0.6-3.6-1.5c-0.8-0.9-1.3-2.1-1.3-3.2c0-1.9,1-3.2,3-4.3l0.1-0.1
			l-0.1-0.1c-0.6-0.7-1.3-1.5-1.3-2.8c0-2,1.7-3.6,3.8-3.6s3.8,1.7,3.8,3.8c0,1.4-0.9,2.5-2.4,3.4l-0.2,0.1l2.1,2.1l1.6-2.4h2v0.6
			l-2,3.1l2,2v2.7h-0.3l-2.7-2.7l-0.1,0.2C86.2,230.8,84.7,231.8,82.9,231.8L82.9,231.8z M82.5,224.1c-0.3,0.1-0.8,0.3-1,0.6
			c-1.3,0.9-1.4,1.7-1.4,2.3c0,0.7,0.3,1.4,0.8,1.9c0.5,0.5,1.2,0.7,1.9,0.7c1.6,0,2.4-1.3,3-2.3v-0.1L82.5,224.1L82.5,224.1z
			 M83.6,218.1c-1,0-1.7,0.8-1.7,1.5s0.6,1.3,1.3,2l0.1,0.1h0.1c0.9-0.3,2-0.9,2-2l0,0c0-0.3-0.1-0.7-0.3-1
			C84.5,218.3,84,218.1,83.6,218.1L83.6,218.1L83.6,218.1z"/>
	</g>
</g>
</svg>
