<?xml version="1.0" encoding="UTF-8"?>
<svg id="Layer_1" xmlns="http://www.w3.org/2000/svg" version="1.1" viewBox="0 0 535 364">
  <!-- Generator: Adobe Illustrator 29.5.1, SVG Export Plug-In . SVG Version: 2.1.0 Build 141)  -->
  <defs>
    <style>
      .st0 {
        fill: #9c6018;
      }
    </style>
  </defs>
  <path d="M67.7,169.2c-1.4-1.8-3.2-3.3-5.3-4.3-2.3-1.1-4.9-1.7-7.5-1.6-7.6,0-16.5,5.1-16.5,19.6v31.9h3.5v-19.4c1,2.1,2.6,3.9,4.7,5.1,2.6,1.4,5.4,2.1,8.3,2.1,2.6,0,5.1-.4,7.5-1.5,2.1-.9,3.9-2.3,5.3-4.1,1.4-1.8,2.5-3.9,3.1-6.2.7-2.6,1-5.2,1-7.8,0-2.5-.3-5-1-7.5-.6-2.3-1.7-4.4-3.1-6.3h0ZM68.3,183c0,2.1-.2,4.3-.8,6.3-.5,1.9-1.3,3.6-2.5,5.1-1.1,1.5-2.5,2.7-4.1,3.5-1.9.9-3.9,1.4-6,1.3-2.2,0-4.3-.4-6.3-1.3-1.6-.8-3-2.1-4-3.6-1-1.6-1.7-3.3-2.1-5.2-.4-2-.6-4.1-.6-6.2,0-2.1.2-4.2.7-6.2.4-1.9,1.2-3.6,2.3-5.2,1-1.5,2.4-2.8,4-3.6,1.8-1,3.9-1.4,6-1.4,2.1,0,4.2.4,6.1,1.4,1.6.9,3,2.2,4.1,3.7,1.1,1.6,1.9,3.4,2.3,5.3.5,2,.8,4,.8,6.1Z"/>
  <path d="M180.8,188.9c0,.3,0,.5-.2.8-.1.6-.3,1.1-.5,1.6-.4,1.1-.9,2.1-1.6,3-1.3,1.8-3.2,3.2-5.3,4-2.2.8-4.6,1-6.9.6-2.3-.3-4.4-1.3-6.2-2.8-3.2-2.7-4.7-7-5-11.4h14.4c1.3,0,2.6,0,4.1,0,1.5-.1,3-.6,4.3-1.2,1.4-.7,2.7-1.7,3.6-3,1-1.3,1.6-2.8,1.8-4.3.2-1.6,0-3.2-.4-4.7-.5-1.5-1.3-2.9-2.5-4-2.1-2.1-4.8-3.6-7.8-4.1-2.8-.5-5.7-.4-8.5.2-2.9.7-5.5,2.2-7.5,4.3-2,2.1-3.5,4.6-4.2,7.4-.8,2.7-1.2,5.5-1,8.3,0,2.8.6,5.5,1.6,8.2,1,2.7,2.7,5.1,5,7,2.2,1.9,4.9,3,7.8,3.4,2.8.4,5.7.1,8.5-.7,2.8-1,5.2-2.7,7-5.1.9-1.2,1.6-2.4,2.1-3.8.3-.7.5-1.4.7-2,.1-.3.2-.7.3-1.1,0-.4.2-.9.2-1.3h-3.7c0,0,0,.3,0,.6h0ZM159.2,170.5c1.6-1.7,3.6-2.9,5.9-3.5,2.3-.6,4.8-.6,7.1-.2,2.2.4,4.3,1.5,5.9,3.2.7.8,1.3,1.7,1.6,2.7.3,1,.4,2,.3,3.1-.2,1-.5,2-1.2,2.8-.6.8-1.4,1.5-2.3,2-1,.5-2,.8-3.1,1-1.2.1-2.5.2-3.7.1h-14.6c0-1.7.4-3.5.8-5.1.6-2.2,1.7-4.3,3.3-6h0Z"/>
  <path d="M105.6,188.9c0,.3,0,.5-.2.8-.1.6-.3,1.1-.5,1.6-.4,1.1-.9,2.1-1.6,3-1.3,1.8-3.2,3.2-5.3,4-2.2.8-4.6,1-6.9.6-2.3-.3-4.4-1.3-6.2-2.8-3.2-2.7-4.7-7-5-11.4h14.4c1.3,0,2.6,0,4.1,0,1.5-.1,3-.6,4.3-1.2,1.4-.7,2.7-1.7,3.6-3,1-1.3,1.6-2.8,1.8-4.3.2-1.6,0-3.2-.4-4.7-.5-1.5-1.3-2.9-2.5-4-2.1-2.1-4.8-3.6-7.8-4.1-2.8-.5-5.7-.4-8.5.2-2.8.7-5.4,2.2-7.5,4.3-2,2.1-3.5,4.6-4.3,7.4-.8,2.7-1.2,5.5-1,8.3,0,2.8.6,5.5,1.6,8.2,1,2.7,2.7,5.1,4.9,7,2.2,1.9,5,3,7.9,3.4,2.8.4,5.7.1,8.5-.7,2.8-1,5.2-2.7,7-5.1.9-1.2,1.6-2.4,2.1-3.8.3-.7.5-1.4.7-2,0-.3.2-.7.3-1.1,0-.4.2-.9.2-1.3h-3.7c0,0,0,.3,0,.6h0ZM84,170.5c1.6-1.7,3.6-2.9,5.9-3.5,2.3-.6,4.8-.6,7.1-.2,2.2.4,4.3,1.5,5.9,3.2.7.8,1.3,1.7,1.6,2.7.3,1,.4,2,.3,3.1-.2,1-.6,2-1.2,2.8-.6.8-1.4,1.5-2.3,2-1,.5-2,.8-3.1,1-1.2.1-2.5.2-3.7.1h-14.5c0-1.7.3-3.5.8-5.1.6-2.2,1.7-4.3,3.3-6h0Z"/>
  <path d="M114.2,179.2v22.4h3.6v-20.5c0-1.2.1-2.3.3-3.5.2-.9.4-1.8.8-2.6.3-.8.7-1.5,1.2-2.1.5-.7,1.1-1.3,1.7-2,1.4-1.4,3.1-2.5,5-3,1.5-.4,3.1-.6,4.7-.6h.5v-3.4h-.4c-9.7,0-17.4,6.7-17.4,15.3Z"/>
  <path d="M140.7,163c.2-.9.4-1.8.8-2.6.3-.8.7-1.5,1.2-2.1.5-.7,1.1-1.4,1.7-2,1.4-1.4,3.1-2.5,5-3,1.5-.4,3.2-.6,4.8-.6h.4v-3.4h-.4c-9.7,0-17.4,6.7-17.4,15.3v37.1h3.6v-34.3h9.2v-3.2h-9c0-.4.1-.8.2-1.1"/>
  <path d="M217.7,188.2c-.2,1.6-.7,3.1-1.4,4.5-.7,1.3-1.5,2.5-2.6,3.5-2.3,2-5.2,3.1-8.3,3.1-2.1,0-4.1-.4-6-1.2-1.7-.8-3.1-2-4.3-3.5-1.2-1.6-2.1-3.4-2.6-5.3-.6-2.2-.9-4.5-.8-6.7,0-2,.3-4,.9-6,.6-1.9,1.5-3.6,2.6-5.1,1.1-1.5,2.6-2.7,4.2-3.6,1.8-.9,3.8-1.4,5.9-1.3,1.5,0,3.1.2,4.5.6,1.3.4,2.6,1,3.7,1.8,1,.8,1.9,1.8,2.6,2.9.7,1.3,1.1,2.7,1.2,4.1v.4h3.6v-.5c-.2-1.9-.7-3.8-1.6-5.6-.8-1.5-2-2.9-3.4-3.9-1.4-1-3.1-1.8-4.8-2.3-1.9-.5-3.8-.8-5.7-.8-2.5,0-5.1.5-7.4,1.6-2.1,1-3.9,2.4-5.4,4.2-1.5,1.8-2.6,3.9-3.3,6.1-.8,2.4-1.1,4.9-1.1,7.4,0,2.5.3,5.1,1,7.5.6,2.3,1.6,4.5,3.1,6.4,1.4,1.9,3.2,3.4,5.3,4.4,4.3,1.9,9.1,2.2,13.5.7,1.8-.6,3.4-1.6,4.9-2.8,1.4-1.2,2.6-2.8,3.5-4.4,1-1.9,1.6-3.9,1.8-6v-.5c0,0-3.5,0-3.5,0v.4Z"/>
  <path d="M231.5,152.7h-3.6v36.7c.3,7.1,5,11.7,12.5,12.2h.5v-3.2h-.4c-5.6,0-8.8-4.7-9-9v-22.1h9.5v-3.2h-9.5v-11.4Z"/>
  <path d="M260.2,163.3c-2.6,0-5.2.5-7.5,1.6-2.1,1-3.9,2.5-5.3,4.3-1.4,1.9-2.5,4-3.1,6.3-.7,2.4-1,4.9-1,7.5,0,2.6.3,5.3,1,7.8.6,2.2,1.7,4.3,3.1,6.2,1.4,1.8,3.2,3.2,5.3,4.1,2.4,1,4.9,1.5,7.5,1.5,2.7,0,5.4-.6,7.7-1.9,2.4-1.4,4.3-3.6,5.3-6.2v7.2h3.5v-18.8c0-14.5-8.9-19.6-16.5-19.6h0ZM260.2,166.5c2.1,0,4.1.4,6,1.4,1.6.9,3,2.1,4,3.6,1.1,1.6,1.8,3.4,2.3,5.2.5,2,.7,4.1.7,6.2,0,9.6-5,13.7-6.6,14.7-1.9,1.1-4.1,1.7-6.4,1.6-2.1,0-4.1-.4-6-1.3-1.6-.8-3-2-4.1-3.5-1.1-1.6-1.9-3.3-2.4-5.2-.5-2.1-.8-4.2-.8-6.3,0-2,.3-4.1.8-6.1.5-1.9,1.3-3.7,2.3-5.3,1.1-1.5,2.5-2.8,4.1-3.7,1.9-1,4-1.5,6.1-1.4h0Z"/>
  <path class="st0" d="M338.2,163.9h-.4c-9.7,0-17.4,6.7-17.4,15.3v22.4h3.6v-20.5c0-1.2.1-2.3.4-3.5.2-.9.4-1.8.8-2.6.3-.8.7-1.5,1.2-2.1.5-.7,1.1-1.4,1.7-2,1.4-1.4,3.1-2.5,5-3,1.5-.4,3.1-.6,4.7-.6h.4v-3.4Z"/>
  <path class="st0" d="M311.3,170.9c-.4-.8-.9-1.6-1.4-2.3-.9-1.1-2-2.1-3.3-2.9-1.3-.8-2.6-1.4-4.1-1.8-1.5-.4-3-.6-4.5-.6-2.5,0-5.1.5-7.4,1.6-2,1-3.8,2.4-5.2,4.2-1.5,1.9-2.5,4-3.1,6.3-1.3,4.9-1.4,10.1,0,15.1.6,2.3,1.6,4.4,2.9,6.3,1.4,1.8,3.1,3.2,5.1,4.2,2.3,1.1,4.8,1.7,7.3,1.6,10.7,0,17.3-7.5,17.3-19.6v-33h-3.6v21ZM310.4,176.8c.5,2,.8,4.1.8,6.1,0,2-.3,4.1-.8,6.1-.5,1.9-1.3,3.7-2.4,5.2-1.1,1.5-2.4,2.7-4.1,3.6-1.8,1-3.8,1.4-5.8,1.4-2,0-4.1-.4-5.9-1.3-1.6-.9-3-2.1-4.1-3.6-1.1-1.6-1.9-3.4-2.4-5.2-.5-2-.8-4.1-.8-6.1,0-2.1.2-4.2.7-6.3.4-1.9,1.2-3.7,2.3-5.3,1.1-1.5,2.5-2.7,4.1-3.6,1.9-.9,4-1.4,6-1.3,2,0,4.1.4,5.9,1.4,1.6.9,3,2.1,4.1,3.7,1.1,1.6,1.9,3.4,2.4,5.3h0Z"/>
  <path class="st0" d="M367.7,188.9c0,.3,0,.5-.2.8-.1.6-.3,1.1-.5,1.6-.4,1.1-.9,2.1-1.6,3-1.3,1.8-3.2,3.2-5.3,4-2.2.8-4.6,1-6.9.6-2.3-.3-4.4-1.3-6.2-2.8-3.2-2.7-4.7-7-5-11.4h14.4c1.3,0,2.6,0,4.1,0,1.5-.1,3-.6,4.3-1.2,1.4-.7,2.7-1.7,3.6-3,1-1.3,1.6-2.8,1.8-4.3.2-1.6,0-3.2-.4-4.7-.5-1.5-1.3-2.9-2.5-4-2.1-2.1-4.8-3.6-7.8-4.1-2.8-.5-5.7-.4-8.5.2-2.8.7-5.4,2.2-7.5,4.3-2,2.1-3.5,4.6-4.3,7.4-.8,2.7-1.2,5.5-1,8.3,0,2.8.6,5.5,1.6,8.2,1,2.7,2.7,5.1,4.9,7,2.2,1.9,5,3,7.9,3.4,2.8.4,5.7.1,8.5-.7,2.8-1,5.2-2.7,7-5.1.9-1.2,1.6-2.4,2.1-3.8.3-.7.5-1.4.7-2,0-.3.2-.7.3-1.1,0-.4.1-.9.2-1.3h-3.7c0,0,0,.3,0,.6h0ZM346.1,170.5c1.6-1.7,3.6-2.9,5.9-3.5,2.3-.6,4.8-.6,7.1-.2,2.2.4,4.3,1.5,5.9,3.2.7.8,1.3,1.7,1.6,2.7.3,1,.4,2,.3,3.1-.2,1-.5,2-1.2,2.8-.6.8-1.4,1.5-2.3,2-1,.5-2,.8-3.1,1-1.2.1-2.5.2-3.7.1h-14.6c0-1.7.4-3.5.8-5.1.6-2.2,1.7-4.3,3.3-6Z"/>
  <path class="st0" d="M391.9,163.3c-2.6,0-5.2.5-7.5,1.6-2.1,1-3.9,2.5-5.3,4.3-1.4,1.9-2.5,4-3.1,6.3-.7,2.4-1,5-1,7.5,0,2.6.3,5.3,1,7.8.6,2.3,1.7,4.4,3.1,6.2,1.4,1.8,3.2,3.2,5.3,4.1,2.4,1,4.9,1.5,7.5,1.5,2.7,0,5.4-.6,7.7-1.9,2.4-1.4,4.3-3.6,5.3-6.2v7.2h3.5v-18.8c0-14.5-8.9-19.6-16.5-19.6h0ZM404.9,183c0,9.6-5.1,13.7-6.6,14.7-1.9,1.1-4.1,1.7-6.4,1.6-2.1,0-4.1-.4-6-1.3-1.6-.8-3-2.1-4.1-3.5-1.1-1.6-2-3.3-2.4-5.2-1-4.1-1-8.3,0-12.4.5-1.9,1.3-3.7,2.3-5.3,1.1-1.5,2.5-2.8,4.1-3.7,1.9-.9,3.9-1.4,6-1.4s4.2.5,6,1.4c1.6.9,3,2.1,4,3.6,1.1,1.6,1.8,3.4,2.3,5.2.5,2,.7,4.1.7,6.2Z"/>
  <path class="st0" d="M461.6,170.5c-.5-1.5-1.4-2.9-2.5-4-1.1-1.1-2.4-1.9-3.8-2.4-1.5-.5-3.1-.8-4.7-.8-2.6-.1-5.3.6-7.5,2-1.6,1.1-3.7,2.8-4.7,5.1-.3-.7-.7-1.4-1.1-2-.7-1-1.5-1.9-2.5-2.6-1.1-.8-2.3-1.4-3.6-1.8-1.5-.5-3.2-.7-4.8-.7-2.2,0-13.3.8-13.3,17.1v21.3h3.6v-22.1c0-2,.2-4,.7-6,.4-1.5,1.2-2.9,2.2-4,.9-1,2.1-1.8,3.3-2.3,1.2-.5,2.4-.8,3.7-.8.8,0,1.5.1,2.3.3,1,.2,2,.6,2.8,1.2,1.1.8,2,1.8,2.7,2.9,1,1.6,1.6,3.4,1.6,5.2v25.6h3.6v-22.1c0-1.9.3-3.8.8-5.7.5-1.5,1.3-2.9,2.3-4.1,1-1.1,2.1-1.9,3.5-2.5,1.4-.5,2.9-.8,4.4-.8.7,0,1.5.1,2.2.2,1,.2,1.9.6,2.7,1.2,1,.8,1.8,1.7,2.4,2.9.8,1.7,1.1,3.5,1,5.3v25.5h3.6v-25.5c0-1.9-.2-3.9-.9-5.7h0Z"/>
  <path class="st0" d="M495.5,187c-.7-1.3-1.7-2.4-2.9-3.2-1.3-.9-2.7-1.5-4.2-1.9-1.6-.4-3.3-.8-5.1-1.2l-4.4-1c-1.3-.3-2.6-.7-3.8-1.3-1-.5-1.9-1.2-2.7-2-.7-1-1-2.1-1-3.3,0-1.1.3-2.1.9-3,.6-.9,1.4-1.6,2.3-2.1,1-.6,2.1-1,3.2-1.2,2.6-.5,5.3-.5,7.8.2,1.2.3,2.3.8,3.3,1.6.9.7,1.7,1.7,2.1,2.7.6,1.3.8,2.7.8,4.1v.4h3.6v-.4c0-1.9-.3-3.8-1.1-5.5-.7-1.5-1.7-2.8-3-3.8-1.3-1-2.8-1.8-4.5-2.1-3.4-.8-6.8-.9-10.2-.2-1.5.3-3,.8-4.4,1.6-1.3.7-2.4,1.8-3.2,3-.9,1.4-1.3,3.1-1.3,4.8,0,2.6.7,4.7,2,6,1.3,1.4,3,2.5,4.8,3.1,2,.7,4,1.3,6.1,1.6,2,.3,4,.8,5.9,1.4,1.6.5,3.2,1.3,4.5,2.4.6.5,1,1.2,1.3,2,.3.7.4,1.5.4,2.3,0,1.3-.3,2.5-1,3.5-.7,1-1.6,1.7-2.7,2.3-1.2.6-2.4.9-3.6,1.1-2.7.5-5.6.4-8.2-.4-1.3-.4-2.5-1.1-3.6-2-1-.9-1.9-2-2.5-3.2-.7-1.3-1-2.8-1.1-4.3v-.4h-3.6v.4c0,2,.4,4,1.3,5.8.8,1.6,1.9,3.1,3.2,4.2,1.4,1.2,3,2.1,4.8,2.6,1.9.6,3.9.9,5.9.8,1.7,0,3.4-.2,5-.5,1.6-.3,3.2-.9,4.7-1.7,1.4-.8,2.6-1.9,3.6-3.2,1-1.5,1.5-3.3,1.4-5.2,0-1.7-.3-3.4-1-4.9"/>
</svg>