<?xml version="1.0" encoding="UTF-8"?>
<svg id="Layer_1" xmlns="http://www.w3.org/2000/svg" version="1.1" viewBox="0 0 535 364">
  <!-- Generator: Adobe Illustrator 29.1.0, SVG Export Plug-In . SVG Version: 2.1.0 Build 142)  -->
  <defs>
    <style>
      .st0 {
        fill: #fff;
      }
    </style>
  </defs>
  <g id="Layer_11" data-name="Layer_1">
    <g id="Layer_1-2">
      <g id="Layer_1-21" data-name="Layer_1-2">
        <g>
          <path class="st0" d="M68.2,178.3v-11.2l17.8-23.2h-17.8v-12.3h36.5v11.1l-17.9,23.2h18.3v12.3h-37Z"/>
          <path class="st0" d="M130.7,178.3v-3.2c-1.9,2.4-6,4.1-10.2,4.1s-11.6-3.4-11.6-11.1,6.6-10.8,11.6-10.8,8.4,1.4,10.2,3.7v-3.5c0-2.4-2.2-4.2-6.3-4.2s-6.7,1.3-9.4,3.3l-4.3-7.8c4.6-3.6,10.9-5.1,16-5.1,8.4,0,16.6,2.9,16.6,14.2v20.4h-12.6ZM130.7,169.1v-1.9c-.8-1.2-3-1.8-5-1.8s-4.4.7-4.4,2.8,2.3,2.7,4.4,2.7,4.1-.6,5-1.8Z"/>
          <path class="st0" d="M149.5,134.9c0-3.9,3.2-7.1,7.1-7.1s7.1,3.2,7.1,7.1-3.1,7.1-7.1,7.1-7.1-3.2-7.1-7.1ZM150.3,178.3v-33.8h12.6v33.8h-12.6Z"/>
          <path class="st0" d="M168.7,187l5.3-9c2.6,2.6,6.4,3.7,10.1,3.7s7.8-1.1,7.8-7.1v-1.8c-2.9,3.3-6,4.6-9.5,4.6-8.1,0-14.8-5.3-14.8-16.9s6.5-16.9,14.8-16.9,6.8,1.2,9.5,4.4v-3.6h12.6v30.2c0,14.6-12,17.4-20.4,17.4s-11-1.5-15.4-5ZM192,164.1v-7.1c-1.2-1.4-3.6-2.2-5.2-2.2-3.4,0-6.3,1.6-6.3,5.7s2.9,5.7,6.3,5.7,4-.8,5.2-2.2Z"/>
          <path class="st0" d="M211.6,178.3v-33.8h12.6v3.7c2.1-2.5,6.5-4.7,10.4-4.7v12c-.6-.2-1.7-.4-2.9-.4-2.7,0-6.1.7-7.5,2.4v20.7h-12.6Z"/>
          <path class="st0" d="M258.4,178.3v-3.2c-1.9,2.4-6,4.1-10.2,4.1s-11.6-3.4-11.6-11.1,6.6-10.8,11.6-10.8,8.4,1.4,10.2,3.7v-3.5c0-2.4-2.2-4.2-6.3-4.2s-6.7,1.3-9.4,3.3l-4.3-7.8c4.6-3.6,10.9-5.1,16-5.1,8.4,0,16.6,2.9,16.6,14.2v20.4h-12.6ZM258.4,169.1v-1.9c-.8-1.2-3-1.8-5-1.8s-4.4.7-4.4,2.8,2.3,2.7,4.4,2.7,4.1-.6,5-1.8Z"/>
          <path class="st0" d="M267.1,189.7l3-9.3c1.4,1,2.2,1.3,4.2,1.3s3.7-1.7,3.7-4.9v-32.3h12.6v32.3c0,8.7-4.3,15.2-14.1,15.2s-6.7-.6-9.5-2.3ZM277.2,134.9c0-3.9,3.1-7.1,7.1-7.1s7.1,3.2,7.1,7.1-3.2,7.1-7.1,7.1-7.1-3.2-7.1-7.1Z"/>
          <path class="st0" d="M338.3,178.3v-18.7c0-3.5-1.9-4.8-4.9-4.8s-4.3,1.5-5.4,2.7v20.9h-12.6v-33.8h12.6v3.9c2-2.2,5.7-4.7,11.6-4.7s11.3,4.8,11.3,10.6v24h-12.6Z"/>
          <path class="st0" d="M377.5,178.3v-3.2c-1.9,2.4-6,4.1-10.2,4.1s-11.6-3.4-11.6-11.1,6.6-10.8,11.6-10.8,8.4,1.4,10.2,3.7v-3.5c0-2.4-2.2-4.2-6.3-4.2s-6.7,1.3-9.4,3.3l-4.3-7.8c4.6-3.6,10.9-5.1,16-5.1,8.4,0,16.6,2.9,16.6,14.2v20.4h-12.6ZM377.5,169.1v-1.9c-.8-1.2-3-1.8-5-1.8s-4.4.7-4.4,2.8,2.3,2.7,4.4,2.7,4.1-.6,5-1.8Z"/>
          <path class="st0" d="M394.2,173.9l5-8.5c2.7,2.1,8.4,4.3,12.2,4.3s3.4-.6,3.4-1.5c0-3.2-19.2.9-19.2-13.2s5.3-11.4,15.1-11.4,10.7,1.8,14.6,4.3l-4.6,8.2c-2.1-1.8-6-3.5-9.9-3.5s-3.2.6-3.2,1.5c0,2.8,19.2-.7,19.2,13.4s-6,11.6-16,11.6-13-2.2-16.6-5.2ZM405.4,139.4l-6.4-10.1h7.4l4.5,5.1,4.3-5.1h7.4l-6.2,10.1h-10.9Z"/>
          <path class="st0" d="M454.2,178.3v-3.8c-2,2.2-5.7,4.6-11.6,4.6s-11.2-4.7-11.2-10.5v-24.2h12.6v18.8c0,3.4,1.8,4.8,4.9,4.8s4.3-1.5,5.3-2.7v-20.9h12.6v33.8h-12.6Z"/>
          <path class="st0" d="M127.2,253.3v-3.6c-2.9,3.2-6.1,4.4-9.5,4.4-8.2,0-14.9-6.2-14.9-17.8s6.6-17.7,14.9-17.7,6.9,1.2,9.5,4.4v-16.5h12.6v46.7h-12.6ZM127.2,240.7v-8.7c-1.2-1.5-3.6-2.2-5.3-2.2-3.4,0-6.3,2.4-6.3,6.6s2.9,6.7,6.3,6.7,4.1-.8,5.3-2.3Z"/>
          <path class="st0" d="M146.8,253.3v-33.8h12.6v3.7c2.1-2.5,6.5-4.7,10.4-4.7v12c-.6-.2-1.7-.4-2.9-.4-2.7,0-6.1.7-7.5,2.4v20.7h-12.6Z"/>
          <path class="st0" d="M196.9,253.3v-3.8c-2,2.2-5.7,4.6-11.6,4.6s-11.2-4.7-11.2-10.5v-24.2h12.6v18.8c0,3.4,1.8,4.8,4.9,4.8s4.3-1.5,5.3-2.7v-20.9h12.6v33.8h-12.6Z"/>
          <path class="st0" d="M213.6,248.9l5-8.5c2.7,2.1,8.4,4.3,12.2,4.3s3.4-.6,3.4-1.5c0-3.2-19.2.9-19.2-13.2s5.3-11.4,15.1-11.4,10.7,1.8,14.6,4.3l-4.6,8.2c-2.1-1.8-6-3.5-9.9-3.5s-3.2.6-3.2,1.5c0,2.8,19.2-.7,19.2,13.4s-6,11.6-16,11.6-13-2.2-16.6-5.2ZM224.8,214.4l-6.4-10.1h7.4l4.5,5.1,4.3-5.1h7.4l-6.2,10.1h-10.9Z"/>
          <path class="st0" d="M253.4,243.5v-13.1h-5.6v-10.9h5.6v-9.2h12.6v9.2h6.9v10.9h-6.9v9.5c0,1.8,1.1,3.2,2.8,3.2s2.2-.3,2.5-.6l2.2,9.5c-1.3,1.2-4.3,2.2-8.5,2.2-7.5,0-11.6-3.6-11.6-10.6Z"/>
          <path class="st0" d="M286.1,253.3l-13.1-33.8h13.3l6.4,19.3,6.5-19.3h13.3l-13.1,33.8h-13.4Z"/>
          <path class="st0" d="M312.7,236.3c0-9.8,7.5-17.7,18.4-17.7s17.6,7.1,17.6,19v2.6h-23c.7,2.2,3.2,4.3,7.3,4.3s6.1-.9,7.8-2.4l5.2,7.8c-3.4,2.9-9.4,4.2-14.4,4.2-10.6,0-18.8-6.7-18.8-17.8ZM331.1,228.2c-3.9,0-5.1,2.5-5.5,4.1h11.1c-.4-1.5-1.5-4.1-5.6-4.1Z"/>
          <path class="st0" d="M375.9,253.3v-18.7c0-3.5-1.9-4.8-4.9-4.8s-4.3,1.5-5.4,2.7v20.9h-12.6v-33.8h12.6v3.9c2-2.2,5.7-4.7,11.6-4.7s11.3,4.8,11.3,10.6v24h-12.6Z"/>
          <path class="st0" d="M418.3,253.3v-3.8c-2,2.2-5.7,4.6-11.6,4.6s-11.2-4.7-11.2-10.5v-24.2h12.6v18.8c0,3.4,1.8,4.8,4.9,4.8s4.3-1.5,5.3-2.7v-20.9h12.6v33.8h-12.6Z"/>
          <path class="st0" d="M186.4,284.9c0-3.9,3.2-7.1,7.1-7.1s7.1,3.2,7.1,7.1-3.1,7.1-7.1,7.1-7.1-3.2-7.1-7.1ZM187.2,328.3v-33.8h12.6v33.8h-12.6Z"/>
          <path class="st0" d="M205.6,337l5.3-9c2.6,2.6,6.4,3.7,10.1,3.7s7.8-1.1,7.8-7.1v-1.8c-2.9,3.3-6,4.6-9.5,4.6-8.1,0-14.8-5.3-14.8-16.9s6.5-16.9,14.8-16.9,6.8,1.2,9.5,4.4v-3.6h12.6v30.2c0,14.6-12,17.4-20.4,17.4s-11-1.5-15.4-5ZM228.8,314.1v-7.1c-1.2-1.4-3.6-2.2-5.2-2.2-3.4,0-6.3,1.6-6.3,5.7s2.9,5.7,6.3,5.7,4-.8,5.2-2.2Z"/>
          <path class="st0" d="M248.4,328.3v-33.8h12.6v3.7c2.1-2.5,6.5-4.7,10.4-4.7v12c-.6-.2-1.7-.4-2.9-.4-2.7,0-6.1.7-7.5,2.4v20.7h-12.6Z"/>
          <path class="st0" d="M298.5,328.3v-3.8c-2,2.2-5.7,4.6-11.6,4.6s-11.2-4.7-11.2-10.5v-24.2h12.6v18.8c0,3.4,1.8,4.8,4.9,4.8s4.3-1.5,5.3-2.7v-20.9h12.6v33.8h-12.6Z"/>
          <path class="st0" d="M317,321.6c0-4.1,3.4-7.5,7.5-7.5s7.5,3.4,7.5,7.5-3.4,7.5-7.5,7.5-7.5-3.4-7.5-7.5Z"/>
        </g>
      </g>
    </g>
  </g>
  <g>
    <path class="st0" d="M245.5,60.8l-6.8-8h.6l6.6,7.6,6.6-7.6h.6l-6.8,8,7.1,8.3h-.6l-6.8-8-6.8,8h-.6l7.1-8.3h-.2Z"/>
    <path class="st0" d="M276.3,56.2c-.6-.8-1.8-1.2-2.8-1.2s-2.6.5-2.6,1.8c0,3.3,8.2,1.1,8.2,7.3s-3.3,5.9-6.8,5.9-4.3-.7-5.9-2.1l2.8-3c.8.9,2,1.7,3.4,1.7s2.6-.6,2.6-1.8c0-3.3-8.3-1.4-8.3-7.3s3.3-5.8,6.7-5.8,4,.5,5.5,1.8l-2.6,2.9h-.2Z"/>
    <path class="st0" d="M301.7,62.8c0,4.2-2.5,7.3-7.4,7.3s-7.4-3-7.4-7.3v-10.9h4v10.8c0,2.1,1.4,3.8,3.7,3.8s3.6-1.7,3.6-3.8v-10.8h4v10.9h-.5,0Z"/>
    <path class="st0" d="M310.4,52h6.6c3.7,0,6.7,1.2,6.7,5.4s-2.8,5.5-6.6,5.5h-2.8v7h-4v-17.7h0ZM314.3,59.6h2.5c1.3,0,2.8-.5,2.8-2s-1.8-2-3.4-2h-2v4.2h0Z"/>
    <path class="st0" d="M331.3,52h12v3.7h-8.2v3.3h7.6v3.7h-7.6v3.7h8.5v3.7h-12.5v-17.7h0v-.5h.2,0Z"/>
    <path class="st0" d="M351.9,52h6.8c3.7,0,6.7,1.2,6.7,5.4s-1.3,4.5-3.8,4.9l4.6,7.4h-4.6l-3.7-7.1h-2v7.1h-4v-17.7h0s.2,0,.2,0ZM355.8,59.4h2.2c1.4,0,3.3,0,3.3-2s-1.6-2-3-2h-2.5v4.1h0,0Z"/>
    <path class="st0" d="M378.6,56.2l-3.6,3.3-2-2.4,5.8-4.9h3.6v17.7h-3.7v-13.6h0Z"/>
    <path class="st0" d="M201.3,43.8h0c-.6,0-1.3.6-1.7,1.1-1.1,1.3-1.8,2.9-2.3,4.4-.4,1.1-.6,2-.7,3.1-.2,1.5-.4,2.7-.6,4.2,0,.9-.4,1.8-.6,2.5s-.6,1.5-1.1,2c-.4.2-.7.4-1.1.2-.4,0-.6-.6-.7-.9v-.7c0-1.7.4-3.3.9-4.7.6-1.3,1.1-2.5,1.5-4,.4-.9.6-1.8.4-2.7,0-.6-.6-1.1-1.1-1.5-.7,0-1.5,0-2,.6-.4.6-.7,1.1-1.1,1.5-1.3,2.3-1.8,5-2,7.6v5c0,1.1-.4,2-.9,3.1-.4.6-.6,1.1-1.3,1.3-.4-.4-.4-.9-.4-1.3,0-1.1.6-2.1.9-3.3,0-.7,0-1.7-.6-2.1-.4-.4-.9-.4-1.3-.2-.6,0-1.1.6-1.5,1.1-.6.7-.9,1.8-1.1,2.7-.4,1.5-.6,3.1-.9,4.6v2.9c0,.9.2,1.7.9,2.3s1.1.6,1.7.4c.6,0,1.1-.6,1.5-1.1.9-1.1,1.7-2.1,2.3-3.3,0-.2.6-.6.7-.2.4.4.4.9.7,1.3.6.4,1.3.4,1.8,0,1.1-.6,1.8-1.5,2.5-2.5.4-.6.6-1.3,1.1-2,.6.6.4,1.5,1.1,1.8h.9c.6-.4.7-.9.9-1.5.4-.9.6-1.7.9-2.5,0-.4,0-.9.4-1.3,0,0,.4,0,.6-.2.2.2.4.6.4.9,0,.6,0,1.3.4,1.8.2.6.7.9,1.3,1.1h2c1.1-.2,2-1.1,2.5-2.1,0,0,.2-.4.4-.6.4.2.7.6,1.1.7.7.2,1.5,0,2.1,0,1.3-.4,2.1-1.5,3.1-2.3s.6-.7.9-.9c0,.4.4.6.6.9.2.2.6.4,1.1.4,1.1,0,2-.6,2.9-1.1.7-.6,1.5-1.3,2.1-2,1.1-1.1,2-2.1,2.5-3.6.2-.4.4-.9.4-1.5s-.4-.9-.9-.7-1.1.7-1.5,1.1c-.6.6-.9,1.1-1.3,1.5-.4.6-1.1,1.1-1.8,1.1s-.6,0-.6-.4c-.2-.2-.4-.6-.2-1.1.4-1.1,1.1-2.3,1.1-3.6,0,0-.2-.4-.4-.6-.4-.4-1.1-.2-1.5-.2s-.7.6-1.1.9c-.6.9-1.1,2-1.5,3.1-.4.7-.6,1.5-1.1,2-.4.6-.9.9-1.5,1.1-.7,0-1.5-.6-1.5-1.1,0-.9.4-1.8.9-2.5,1.1-1.3,2.5-2,4-3.1.7-.6,1.5-1.1,1.8-2,0-.4,0-.9-.2-1.3-.4-.6-1.1-.9-1.7-.9-1.1,0-1.8.6-2.5,1.1-.9.7-1.8,1.5-2.5,2.3-1.1,1.1-1.8,2.3-2.5,3.6-.4.6-.6,1.5-.6,2,0,1.1-.4,2-.7,3.1-.2.6-.6,1.3-.9,1.8h-.4c-.4-.2-.7-.6-1.1-1.1-.2-.2-.6-.4-.7-.6.9-.7,1.8-1.5,2.5-2.5.9-1.1,1.5-2.3,1.7-3.6,0-.7,0-1.5-.7-2-.6-.4-1.3-.6-1.8-.4-.9,0-1.7.6-2.3,1.1-.7.6-1.3,1.1-1.8,1.7v-.4c0-.7.6-1.5.9-2.1.6-.9.9-1.7,1.3-2.5.4-1.1.9-2,.9-3.1s-.9-1.7-1.7-1.7h0l-.2-.4-.9,1.1h.3ZM182,50.6h-.4c-1.7,0-3.1,1.1-4.2,2.3-1.1,1.1-2,2.3-2.7,3.6-.2.6-.6.9-.6,1.5h-.2c-.4-.2-.6-.9-1.1-1.3-.7-.6-1.7-.6-2.5,0-.7.4-1.5.9-1.5,1.7h-.4c-.4-.6,0-1.5-.2-2.1,0-1.1-.2-2.1-.7-3.1-.4-.6-.7-1.3-1.5-1.7-1.1-.6-2.5-.6-3.6,0-1.3.6-2.5,1.7-3.3,2.7-1.1,1.3-2,2.7-2.7,4.2-1.5,2.5-2.5,5.4-3.3,8.2-.6,1.7-1.1,3.4-.7,5.2,0,.6,0,1.1.6,1.7l.6.6h1.1c.6-.4,1.1-.9,1.3-1.5v-1.1c0-1.1.6-2.3.7-3.4.6-2,1.1-4.2,2-6.1.6-1.1,1.3-2.1,2.3-2.7.4,0,.7-.4,1.1-.2.6,0,1.1.7,1.1,1.3.4,1.1.4,2.1.4,3.3v1.5c-.2,3.1-.9,5.8-1.7,8.6s-.9,2.9-1.1,4.4v1.7c0,.6.2,1.1.6,1.5.7.6,2,.6,2.9,0,.7-.6,1.1-1.7,1.5-2.5.2-1.1.6-2,.6-2.9.4-2.9.6-5.8,1.1-8.5.2-.9.6-2,1.3-2.5.2-.2.6-.6,1.1-.4s.7.6.9,1.1v1.3c0,.6-.2,1.3-.4,1.8s-.2,1.3-.4,1.8c0,1.1-.4,2-.6,2.9v.6c0,.9-.2,1.8-.4,2.7,0,.7.2,1.7.9,2.1.4.4,1.1.6,1.5.4s1.1-.6,1.3-1.1c.6-1.1.9-2.5,1.1-3.8,0-1.3,0-2.5.2-4,.2-1.8.6-3.6.9-5.2.2-1.1.6-2.1,1.1-3.1.4-.6.7-1.1,1.5-1.1s.6.2.7.6c.2.6,0,1.1,0,1.7-.2,1.5-.9,3.1-1.3,4.6-.6,1.7-.9,3.4-.9,5v1.5c0,1.3.4,2.5.7,4,0,.6.2.9.4,1.5.4.6.7,1.1,1.3,1.3.6.4,1.1.4,1.7.4.9,0,1.8-.4,2.1-1.3.4-.6,0-1.5,0-2-.9-2.1-1.1-4.7-1.3-7.1v-4c0-1.7.4-3.3.9-4.9,1.1-2.5,2-5.2,2.3-8.2v-1.7c0-.6-.7-1.1-1.3-1.1s-.2,0-.4,0h0l-.6-.2-.2-.2ZM187.1,52.8h-.6c-1.1.6-1.8,1.7-1.8,2.9s.2.7.4,1.1c.2,0,.6.2.9.2,1.1,0,2-.6,2.5-1.5,0-.6.4-1.1.2-1.5,0-.4-.2-.9-.6-1.1-.2,0-.6-.2-.9-.2h-.2,0ZM201.7,55.7h.4l.4.4h0c-.2.7-.7,1.3-1.3,1.7h-1.8v-.4h0c0-.2,0-.4.2-.6h0s.2-.4.4-.6l.2-.2s.2-.2.4-.4h1.1v-.4l.2.4h0Z"/>
  </g>
</svg>