<?xml version="1.0" encoding="utf-8"?>
<!-- Generator: Adobe Illustrator 27.0.0, SVG Export Plug-In . SVG Version: 6.00 Build 0)  -->
<svg version="1.1" id="Layer_1" xmlns="http://www.w3.org/2000/svg" xmlns:xlink="http://www.w3.org/1999/xlink" x="0px" y="0px"
	 viewBox="0 0 484.7 1358.7" style="enable-background:new 0 0 484.7 1358.7;" xml:space="preserve">
<style type="text/css">
	.st0{fill:#51020B;}
	.st1{fill:#EA450F;}
	.st2{fill:#FFFFFF;}
	.st3{fill:none;}
</style>
<path class="st0" d="M339.7,1302.8c22.2-11.9,28.4-18.4,38-26.8c21-18.3,54.1-38.7,43.7-72.1c-4.1-13.1-23.9-23.1-35.4,4.6
	c-6.1,14.7-7.3,30.9-11,46.3c-7.4,31.5-28.1,38.1-46.8,47.6c6.9-12.4,9.2-31.3,10.7-44.5c2.5-20.9,14.7-42.1,10.6-63.6
	c-7.1-37.8-60.6-16.9-29.2,34.6c6.5,10.7,15.1,24.7,11.6,43.7c-4.8,25.9-18.6,49.1-38.7,66.9c2.7-13.1-0.8-15.2,5.2-31.2
	c9.2-24.9,2.4-46.6-7-54.5c-10-8.3-22.1-2.7-23.8,9.8c-1.7,11.9,6.2,26.2,12.2,35.9c5,8.1,9.5,15,10.3,24.9
	c1.1,14.3-5.2,24.5-15.7,28.9c-4,1.7-9.9,2.2-13.3,5.1c-4.1,3.5,6.6,9.3,29.6-8.9c15.4-12.2,14.1-19.9,51.9-25.6
	c27.8-4.2,48.5,17.5,65.3,19.1c25.2,2.4,29.5-31.9-6.3-35.8c-24.7-2.7-42.7,7.8-74.8,14.8c-1.3,0.3-10,2.5-13.8,3.8
	C319.9,1316.6,320.5,1313.2,339.7,1302.8z M402.1,1220.3c9.6,1.6,6.8,27.3-22,43.8C384.9,1252.9,390,1218.3,402.1,1220.3z
	 M330.1,1201.3c8.8-3.1,15.3,15.5,5.6,37.9C323,1219.4,322.4,1204,330.1,1201.3z M279.8,1276.7c2.2-15.5,22.3-6.8,12.4,29.4
	C286.9,1297.9,278.3,1287.4,279.8,1276.7z M406.5,1319.6c2.5,2.8,1.8,6.6-1.5,8.7c-8.4,5.6-27-3.8-33.3-10.3
	C388.9,1311.2,401.7,1314.1,406.5,1319.6z"/>
<g>
	<path class="st0" d="M-123,392.3c2.5,0.7,5.2,0,7.6-0.8c0.5-0.2,31.3-6.5,33.4-6.9c6.3-1.4,10.9-2.8,17-0.3
		c17.4,7.2,29.5,43.5,72.5,49.1c4.4,0.6,25,0.8,25.8,0.9c5,1,9.9,3.2,15,3c-3-4.7-6-9.4-9.8-13.6c-2.1-2.3-4.8-4.1-6.7-6.5
		c-11.3-13.6-32.4-39.1-85.9-39.8c7.8,0.1,16.9-3.9,24.3-5.9c37.6-10.5,38-13.4,46.1-11C35,366,45,385,75.1,393.6
		c2.6,0.7,5.2,0.9,7.8,1.7c3.2,1,5.9,2.7,8.9,3.9c2.9,1.1,6.1,1.4,9.1,2.1c-2.2-3.3-4-6.7-6.5-9.7c-2.8-3.3-5.8-6.5-8.9-9.5
		C72,369.2,63.1,356.4,19,355.8c44.5-11.7,67.3-34.2,87.1-23.8c25.1,13.2,38.8,35.5,66.6,37.5c8.3,0.6,16.8-1.2,25.2-1.2
		c6.1,0,11.3,3.3,17.5,1.7c-4.9-4.6-9.9-8.8-15.2-13c-3.5-2.8-6.8-6-9.8-9.3c-11.9-13.2-29.6-21.6-47.1-25.1
		c-14-2.8-28.3-1-42.4,0.1c9.8-5.7,20-10.7,29.9-16.1c6.6-3.6,14.4-10.2,21.7-11.7c16.9-3.4,33,11.5,55.3,12.4
		c5.6,0.2,12-1.7,17.6-2.6c5.4-0.8,11-1.1,16.1-3.3c-7.2-4.1-14.4-8.1-21.6-12.2c-11.1-6.2-40.2-8.5-59.1-0.1
		c5.8-2.9,11.4-7.5,16.8-11.1c30.1-20.2,30.6-24.1,40.8-25.3c25.2-2.9,47.5,15.2,70.4,22.4c11.5,3.6,22.8,0.1,34.5,0.5
		c8.5,0.3,18.4,3.6,26.7-0.3c-38.4-38-67.3-50.2-125.6-31.1c18-16.5,36.5-32.7,53.5-50.3c12-12.4,34.2-3.1,49.4-3.3
		c19.4-0.2,22.4-8.4,35.3-10.7c3.1-0.6,6-2.4,8.9-3.8c-0.4,0.2-3.6-1.4-4.2-1.5c-4.7-1.3-10.2-1.4-15-2.7
		c-24.1-6.5-35.7-5.1-65.6,12.5c4.1-4.9,8.2-9.8,12.3-14.8c23.3-28.6,36.2-51.4,52.8-48.2c6.2,1.2,11.5,4.5,17.4,6.6
		c15.2,5.5,34.7,2.2,39.4,2.2c3.4,0.1,7.3-0.3,10.2-1c-3.4-2.6-6.9-4-10.6-5.7c-1.2-0.5-15.5-10.5-21.4-13.2
		c-18.6-8.3-29.7-0.3-43.9,5.3c5.3-4.9,10.3-9.8,16.8-13.3c46.4-25.1,54.5-67.2,63.6-98.9c-5.2,1.5-9.5,5-13.2,8.8
		s-7.1,8.1-11.2,11.6c-8.4,7.1-31.5,14.7-47.3,54.1c-4.3,10.8-8.7,21.7-13.4,32.4c-1.6-20.3,5.5-42.2-18.6-65.2
		c-28.5-27.2-2.3-4.1-29-29.1c-1.6,6.1-0.3,12.6,1.3,18.8c5.4,20.4,2.5,15.7,4.3,25.5c1.8,10.4,7.3,19.8,14.2,27.6
		c11.8,13.3,19.3,13,21.1,26.1c1,7.5-3.9,16-33.2,51.6c7.7-21.6,11.3-39.9-2.2-63.8c-3.6-6.3-4-11.8-13.7-24.2
		c-2.4,8.4-1.7,33.7-1.3,38.1c2.7,32.3,25.4,38.9,4.7,65.3c-2.7,3.5-23,23.9-38.8,38.3c13.2-21.5,22.2-52,14.8-79.3
		c-1.3-4.6-11.4-29-21.1-46.5c-6.8,26.7-13.5,54.7-6.8,81.3c4.6,18.3,15.7,35.6,1.9,53.1c-3.7,4.7-18.3,16.3-23.6,20.5
		c-4.8,3.9-17.5,12.5-19.4,15.6c3.7-5.9,6.9-12,9.7-18.3c4.9-11.1,9.1-16,5.2-39.3c-1.1-6.9-2.3-13.7-3.9-20.5
		c-2.6,3.4-4.7,7.4-5.9,11.5c-2.1,6.9-4.9,13.3-8.3,19.6c-8.7,16.6,5.6,46.5-9.4,55.1c-12.3,7-17.4,12.8-51.5,31.5
		c-1.3,0.7-24.6,12.9-25.6,13.8c14.5-13.4,40.8-30.2,48.8-75.6c1.8-10.2,3.4-20.8,4.1-31.1c-7.5,3.7-10.8,12.5-16.8,18.5
		c-3.4,3.3-7.5,5.9-11,9.1c-7.7,7-13,10.3-23,33.7c-7.1,16.5-1.6,30.8-13.5,47.8c-4.5,6.5-11.7,8.3-18.8,11.4
		c-21.7,9.5-45.6,18.6-71.8,27.1c-37.3,12-66.7,18.2-66.7,18.2c14.5-12.2,26.9-32.1,25.2-51c-0.3-3.9-1.8-7.8-2.5-11.7
		c-0.6-3.2-1-6.4-1.2-9.6c-0.2-2.9-1-5.8-1.7-8.3c-3.6,6-7.2,12.1-10.9,18.1c-12.5,20.9-7,25-8.5,48.8c-1.1,17.6-20,18.8-33.8,21.5
		c-9.4,1.9-19,2.4-28.5,1.6C-127.6,389.1-125.5,391.6-123,392.3z"/>
	<path class="st0" d="M14.9,358.9l3.2-0.8c-2.7-7.9,2.4-13.6,7.2-15.9c19.5-9.6,22.6-10.9,36-30.3c-3.5,0.4-7.2,1.4-10.7,1.3
		c-8.2-0.2-17.6,3.9-23.2,9.7c-9.2,9.4-9.9,18.5-11.8,24.9c0,0-2.3-17.2-0.6-36c0.8-9,3.7-16.9,10.5-23.2
		C39,276.2,38.6,288,41,291.2c3.8,5.2,10.7,8.1,17,6.9c12.9-2.5,18.8-20.9,10-30.5c-8-8.9-23.2-6.6-28.7,5.3
		c-3.8,8.2-5.9,3.2-15.5,12.4c-2.4,2.3-4.4,5-6.1,7.9c6.1-30.9,10.2-42.6,35.3-46.9c8.3-1.4,17.4-1.7,25.2-4.7
		c24.3-10.1,19.8-14.7,30.1-22.1c4.9-3.5,9.6-6.7,13.5-11.5c0,0.1-4.2-0.6-4.7-0.6c-1.7,0-3.3,0.4-5,0.8c-12,2.8-43.1-2.9-76.9,36.6
		c-0.5,0.6-5.4,6.5-5.2,6.8c-0.6-0.9,2.2-5.8,2.6-6.8c13.1-27.4,14.9-29.7,29.8-42.4c7.9-6.7,16.4-13.1,23.2-21
		c5.9-6.6,8.9-15,11.2-23.4c2.3-8.7,5.2-17.1,6.8-25.9c-5.2,3.4-9.2,8.1-14.2,11.6c-8.4,5.9-31.6,12.7-37.4,44.8
		c-1.5,8.4-4.8,16.3-6.8,24.5c-2,8-7.6,14.4-10.6,22c0.5-3.6,0.6-7.2,0.2-10.7c-0.3-2.7-1.5-4.7-1.2-7.4c0.7-6.7,5-8.7,4.9-15.9
		c-0.1-6.5-4.7-12.5-10.8-14.5c-13.2-4.3-26.1,9.3-20.5,23.2c7.9,19.5,22.3,2.2,24.7,13.4c3.2,15.1-9.3,30.3-16.9,67.3
		c3.4-61.1-5.4-63.6-37.4-97.3c-1.1,3.9-1.3,8.1-0.6,12.1c5.2,32.6,2.7,34.3,20.8,62.2C10.6,287,14,286.7,11.7,313.3
		c-0.6,7.3-1.7,15.8-0.4,23c-2.9-15.4-4.8-22-16.1-31.9c-2.5-2.2-5.2-3.4-7.8-5.4c-5.5-4.2-11.5-8.2-18.4-9.5c0.8,2.1,1.7,4.4,2,5
		c0.8,1.9,1.6,3.8,2.5,5.7C-6.1,343.4,4.3,318.1,14.9,358.9z M62.4,273.4c6.8,0.5,6.8,14.1-0.4,13.8
		C54.5,286.8,56.1,272.9,62.4,273.4z M12.2,196.6c2.4-4.2,8.7-6.9,11-0.8c1.1,2.8-0.4,6.2-2.8,7.9C15.6,207.1,8.7,202.7,12.2,196.6z
		"/>
</g>
<g>
	<path class="st0" d="M-135,869.2c2.3-1.2,5-1.1,7.6-0.8c0.5,0.1,32-0.3,34.1-0.3c6.4,0,11.2,0.5,16.6-3.3
		c15.4-10.8,19.6-48.9,60.4-63.4c4.2-1.5,24.3-6.1,25.1-6.4c4.7-2,9-5.2,14-6.1c-1.9,5.2-3.9,10.5-6.7,15.3c-1.6,2.7-3.8,5-5.2,7.7
		c-8.2,15.7-23.5,45-75.5,57c7.6-1.7,17.3,0.2,25,0.7c38.9,2.3,40,5,47.4,1c17.1-9.3,22.9-30,50.5-44.8c2.4-1.3,4.9-2,7.3-3.3
		c2.9-1.7,5.2-3.9,7.9-5.7c2.6-1.7,5.7-2.6,8.5-4c-1.4,3.6-2.5,7.4-4.3,10.9c-2,3.8-4.3,7.6-6.7,11.1
		c-10.5,15.5-16.5,29.9-59.4,39.8c45.9,2,73,19.1,90.1,4.8c21.8-18.2,30.5-42.9,57.2-50.7c8-2.4,16.7-2.4,24.9-4.2
		c5.9-1.3,10.3-5.6,16.8-5.4c-3.9,5.5-7.9,10.7-12.1,15.9c-2.8,3.5-5.4,7.3-7.6,11.2c-8.8,15.5-24.4,27.4-40.7,34.5
		c-13.1,5.7-27.5,6.9-41.4,8.8c10.8,3.5,21.8,6.2,32.7,9.4c7.2,2.2,16.2,7,23.7,6.9c17.2-0.2,29.8-18.2,51.4-23.8
		c5.5-1.4,12.1-0.9,17.8-1.2c5.4-0.3,11-1.2,16.4-0.2c-6.2,5.5-12.4,11-18.6,16.5c-9.5,8.4-37.5,16.8-57.7,12.6
		c6.3,1.6,12.7,4.9,18.8,7.3c33.7,13.4,35,17.1,45.2,16.1c25.2-2.5,43.2-24.9,64-36.8c10.5-6,22.3-4.9,33.6-7.8
		c8.3-2.1,17.2-7.4,26.2-5.4c-29.4,45.2-55.2,63.3-116.2,56.9c21.1,12.3,42.5,24.2,63,37.8c14.4,9.6,34.1-4.2,48.9-7.2
		c19-3.9,23.7,3.5,36.7,2.9c3.2-0.1,6.4,1,9.5,1.8c-0.4-0.1-3.2,2.1-3.8,2.4c-4.4,2.2-9.7,3.5-14.1,5.8
		c-22.2,11.5-33.8,12.5-66.8,1.7c5.1,3.9,10.1,7.9,15.1,11.9c28.9,22.9,46.4,42.4,61.9,35.8c5.8-2.5,10.3-6.8,15.6-10.1
		c13.7-8.6,33.5-9.5,38-10.5c3.3-0.8,7.2-1.3,10.2-1.1c-2.7,3.3-5.9,5.3-9.2,7.8c-1,0.8-12.9,13.5-18.1,17.4
		c-16.5,12.1-28.9,6.6-44,4.1c6.3,3.6,12.2,7.4,19.2,9.5c50.7,14.7,67.5,54.2,83,83.2c-5.4-0.3-10.3-2.9-14.8-5.8
		c-4.5-3-8.7-6.4-13.4-8.9c-9.7-5.2-33.9-7.7-57.7-42.9c-6.5-9.7-13.1-19.3-19.9-28.8c2.7,20.2,14.3,40.1-4.3,67.7
		c-22.1,32.7-1.4,4.5-22.2,34.6c-2.8-5.7-3-12.3-2.7-18.6c1-21.1-0.8-15.9-1.2-25.9c-0.4-10.5,2.9-20.9,8.1-30
		c8.7-15.5,16.1-16.8,15.1-30c-0.6-7.6-7.2-14.9-43.3-43.4c12.1,19.5,19.5,36.6,11.4,62.8c-2.2,6.9-1.4,12.4-8.3,26.6
		c-4.1-7.7-8.7-32.6-9.3-37c-4.2-32.1,16.6-43.4-9.3-64.8c-3.4-2.8-27.5-18.5-46-29.2c17.5,18.2,32.7,46.1,31.2,74.4
		c-0.3,4.8-5,30.8-10.8,49.9c-12.2-24.6-24.8-50.5-23.8-78c0.6-18.8,7.8-38.1-9.4-52.3c-4.6-3.8-21.3-12-27.4-15.1
		c-5.5-2.8-19.7-8.5-22.3-11.1c4.8,5,9.3,10.3,13.3,15.9c7.1,9.8,12.3,13.8,13.4,37.3c0.3,7,0.6,13.9,0.5,20.9
		c-3.3-2.8-6.1-6.2-8.2-10c-3.5-6.3-7.6-12-12.2-17.4c-12-14.3-4.3-46.7-20.8-51.9c-13.5-4.3-19.7-8.8-57-19.9
		c-1.4-0.4-26.7-7.4-28-8.1c17,10,46.3,20.9,63.7,63.6c3.9,9.6,7.7,19.6,10.6,29.5c-8.1-2-13.2-10-20.3-14.5
		c-4-2.6-8.5-4.2-12.6-6.6c-9-5.2-14.9-7.3-29.6-28c-10.4-14.6-8.1-29.7-23.3-43.9c-5.8-5.4-13.2-5.6-20.8-7.1
		c-23.2-4.7-48.5-8.6-75.9-11.3c-39-3.9-69-3.7-69-3.7c16.8,8.9,33.1,25.7,35.4,44.5c0.5,3.9-0.1,8,0,12c0.1,3.2,0.4,6.4,0.9,9.6
		c0.4,2.9,0.3,5.8,0.1,8.5c-4.8-5.1-9.6-10.3-14.4-15.4c-16.6-17.7-12.1-23-18.6-45.9c-4.8-17-23.5-14.2-37.6-13.9
		c-9.5,0.2-19,1.7-28.2,4.4C-138.9,873.3-137.3,870.4-135,869.2z"/>
	<path class="st0" d="M-21.2,939c-0.5,2-0.9,4.1-1.3,6.1c-0.1,0.6-0.5,3.1-0.9,5.3c6.5-2.7,11.5-7.9,15.9-13.2
		c2.1-2.5,4.5-4.3,6.5-6.9c8.9-12,9.4-18.9,9-34.6c0.2,7.3,3.1,15.5,5.2,22.4c7.9,25.6,4.4,25.9-3.9,47.9
		c-11.8,31.1-9,32.2-7.2,65.2c0.2,4.1,1.3,8.1,3.2,11.7c24.2-39.7,32.3-44,16-103c15.3,34.6,30.7,46.8,30.7,62.2
		c0,11.4-17.8-2.4-21.3,18.3c-2.5,14.8,13,25.3,24.9,18.3c5.6-3.3,8.8-10.2,7.5-16.5c-1.4-7.1-6-8.1-8.1-14.5
		c-0.9-2.6-0.1-4.8-0.4-7.5c-0.4-3.6-1.2-7.1-2.5-10.5c4.5,6.8,11.4,11.9,15,19.3c3.7,7.6,8.6,14.6,11.9,22.5
		c12.4,30.1,36.5,31.8,46,35.8c5.6,2.4,10.5,6.2,16.4,8.4c-3.4-8.2-8-15.9-12.1-23.9c-4-7.7-8.7-15.3-15.9-20.5
		c-8.3-6.3-18-10.7-27.1-15.6c-17.2-9.3-19.5-11.1-38.1-35.2c-0.6-0.8-4.4-5-4-6c-0.2,0.4,5.9,5.1,6.5,5.6
		c41.5,31.4,70.6,19.3,82.9,19.5c1.7,0,3.3,0.1,5-0.3c0.5-0.1,4.3-1.7,4.4-1.6c-4.8-3.9-10-6-15.6-8.4c-11.6-5-8.2-10.5-34.1-15.2
		c-8.3-1.2-17.2,0.4-25.6,0.8c-25.5,1.1-32-9.5-44.4-38.4c2.2,2.5,4.8,4.7,7.6,6.4c11.3,7,12.3,1.6,17.7,8.8
		c7.8,10.4,23.2,9.4,29.2-0.9c6.5-11.3-3.1-28-16.3-27.7c-6.4,0.2-12.6,4.4-15.2,10.3c-1.6,3.7,1.3,15.1-14.6,5.8
		c-8-4.7-12.4-11.9-15.2-20.5c-5.7-18-7.1-35.3-7.1-35.3c3.2,5.9,5.9,14.6,16.8,21.9c6.8,4.5,16.8,6.5,24.8,4.6
		c3.4-0.8,7.3-0.7,10.7-1c-17.2-16.2-20.5-16.8-41.6-22c-5.2-1.3-11.4-5.8-10.4-14.1l-3.3-0.1C5.1,914.8-10.5,892.3-21.2,939z
		 M68.1,932.8c7-1.9,9.8,11.4,3.3,13.4C65.3,948,60.7,934.8,68.1,932.8z M45,1023.1c2.7,1.1,4.9,4.1,4.4,7.1
		c-1,6.5-7.7,5.2-10.9,1.6C33.8,1026.6,39.6,1020.9,45,1023.1z"/>
</g>
<path class="st0" d="M240.7,350.4c-3.2,0.7-5.9,2.4-8.8,3.9c5.1,0.6,10.3,0.9,15.3,2.1c11.4,2.7,14,0.2,27.5-4.2
	c-10.5,13.2-9.2,12.6-17.8,38.8c14.1-15,18-23.9,21-36.8c0.1,10.4-0.4,24.2,13.9,38c0,0,0-12.8-4.6-24.5c-0.3-0.9-2.6-8.6-6.1-14.9
	c5.8,1.7,9.6,2.8,15,2.1c11.2-1.4,24-6.9,24-6.9c-9.9-1.9-20.3-2-30.7,0c-3.2,0.6-5.8,1.7-9.1,1.8c9.9-12.4,14.7-28.6,13.3-44.4
	c-7.3,13.5-14.8,27.5-16,42.8c-1.1-2.3-2.3-4.7-3.8-6.7c-12-16-18.2-18.2-22.4-20.9c-1.5-1-4.5-3.9-8.2-5.9
	c2.2,12.7,20.8,27.6,32,35C260.1,351.6,252.6,347.7,240.7,350.4z"/>
<path class="st0" d="M257,488.6c15.5-0.9,30.5-4.5,43.9-12.5c21-12.7,19.2-28,32.7-34c6.7-2.9,15.8-3.7,20.2-14.6
	c6.5-15.8-8.4-22.7-7.3-32c1-8.4,12.9-2.9,17.1-17c-4.1,1.1-6.5,0.8-10.9,3.8c-3.6,2.5-5.7,6.7-10,9c-0.3-5.5,3.2-8.5,5.6-13
	c2.7-4.9,3-12.1,1.5-16.9c-13,13-5.2,18.4-12.4,28.3c-5-6.5,1.2-14.8-11.2-24.3c-0.6,14.7,2.8,14.9,5.7,21
	c5.1,10.7-16.6,14.3-20.1,31.3c-1.4,6.6,2,13.8,5.5,19.2c8.9,14-12.8,49.2-72.8,48.7c7.2-2.8,14.5-5,21.1-9.2
	c28.7-18.7,21.3-43.2,25.3-57.8c-10,10.2-19.8,17.5-26.5,28c-5,7.9-6.3,15.3-9.5,23s-10.8,15.3-19.8,14.8
	c-6.8-0.4-23.3-7.7-28.5,2.8c17,8.9,39.4-13.7,93.2,35c25.9,23.5,36.8,16.3,64.3,24.4c11.8,3.5,22.2,6.2,33,5.5
	c-10.5-11-15.2-9.5-25.5-18c-8.6-7-16.1-15.4-25.8-21c-32-18.1-48.7-12.1-70.9-18.8c18.9,0.3,44.1,0.9,74.2-9.2
	c5.7-1.9,12.3-5.4,18.4-5.6c5.2-0.1,9.9,2.3,14.9,3.2c17.2,3.2,31.2-10.8,30.2-26.8c-0.2-3.6-1.2-7.5,1.1-10.4
	c2.8-3.6,7.4-0.9,10.5,0.8c4.6,2.4,10.4,2.8,15.1,1.9c-2.6-2.8-6.9-6.6-10.9-7.3c-4.4-0.8-9.8,1.4-15-1.8c5.1-2.6,12-1.1,17.5-1.9
	c9.4-1.3,15.8-5.8,15.8-5.8c-13.7-4-20.4-1-24.8,0.7c-3.1,1-7.3,3.2-10.6,2.6c3.5-5.7,13.4-5.3,20-12.8c2.7-3.1,3.9-7.2,3.9-7.2
	c-6.5,0.9-11.5,1-18.3,8.6c-2,2.3-6.7,6.8-8.6,7.8c1.7-10.9,13.3-15.2,6.6-34.1c-5.1,7.8-9.3,11.9-9,24c0.5,20.7-14.7,4-32.8,18.5
	c-7.7,6.2-10.3,14.6-10.3,24.2C362.6,486.4,299.8,494.9,257,488.6z"/>
<path class="st0" d="M25.1,759.4c4.6-5.1,10.4-10.2,13.7-16.3c2.6-4.9,0.9-9.7-0.4-14.7c-4-14.9-8-36.8,6.9-41.2
	c-5.2,15.3-5,32.3,0.3,47.6c4.4-5.3,9.9-9.6,8.9-17c-1-7.2-12.2-26.3-1.3-32.7c2.2,11.1,4.4,22.2,6.5,33.3v0.2
	c3.2-3.4,6.7-5.6,7.7-10.4c1.4-6.7-5.6-17-5.6-27.6c0-5.1,2.4-10.4,7-12.5c-0.1,12.1,1.9,24.2,5.8,35.7c3.4-3.2,6.5-6.1,8.9-10.1
	c2.6-4.2,2.9-9.3,3.9-14c4.1-19.7,10.5-42,25.8-47.1c-9.9,16.8-16.5,35.5-19.6,54.7c4.7-3.8,9.8-6.4,11.3-12.6
	c1.2-5.2,0.3-10.6,1.1-15.9c1.6-11.8,8-35.2,20.4-36.7c-9.6,15.7-14.9,33.9-15.2,52.2c5.2-3.6,10.1-6.2,11.9-12.6
	c1.4-5.3,1-10.9,1.7-16.2c2.6-18.6,10.6-48.7,29.4-48.2c-16.8,16.4-25.5,40.8-22.9,64.1c4.1-2.4,8.6-4.5,11-8.8
	c2.3-4.1,1.8-9.2,2-13.7c0.2-7,1-14,3.1-20.8c3.9-12.8,13.1-24.8,26-28.2c-15.3,16.4-23.9,38.9-23.6,61.3
	c5.3-2.7,10.9-3.5,15.2-13.9c2.7-6.4,3.5-13.3,6-19.7c4.9-13,21-42.9,33-36c-17.4,14.8-28.8,36.4-31.3,59.1
	c5.9-2.4,11.4-3.1,15.1-8.8c3.8-5.9,4.7-13,6.6-19.6c2.8-10,10.6-32.7,18.2-39.7c3.4-3.2,9.9-6.3,14.5-5.2
	c-16.6,17.9-27.7,40.8-31.6,64.9c4.5-1.5,9-2.3,12.9-5.2c4.4-3.2,5.4-7.7,7.5-12.5c11.5-27,44.2-53.1,55-40.1
	c-23.8,8.1-43.5,27.5-52.1,51.2c3.9-0.9,8.8-1.2,12.3-3.1c9.9-5.3,14.5-15.4,21.4-23.7c8.4-10.2,31.7-35.6,41.5-26.6
	c-19,12.5-35.4,29-47.8,48.1c4.7-0.7,9.7-0.6,13.9-3.1c3.8-2.4,6.6-6,9.6-9.2c17.3-19.1,51.9-40.9,66.9-33.5
	c-16.7,8.5-48.1,22.5-64.7,43.2c5-0.3,10.7,0.3,15.2-2.4c6-3.5,28.8-39.4,61.5-45c-1.8,5.1-6.4,8.5-11.2,11
	c-15.9,8.3-28.9,20.9-37.8,35.7c5.3,0.1,9.2,0.6,13.5-3c3.5-2.9,31-37.4,65.1-32.2c-19.2,14.3-36.4,12.6-56.7,35.7
	c27.2,2.3,23.7-0.7,42.1-7.7c8.3-3.1,27.6-11.6,37.8-2.2c-0.5-0.4-5.5,1.5-6.3,1.7c-18.9,5.3-28.6,9.6-48.4,12.9
	c16.9,2.4,50.6,6.8,64.2,16.4c-11.5,3.1-17.6,0.8-56.7-8.6c24.9,11.8,27.8,12.6,38.7,21c-6.3,0.3-8,3.4-38.3-13
	c-7.4-4-16-10.2-24.7-11c-4.8-0.5-9.5-0.9-14.3-1.3c29.5,16.5,42.4,14.8,61.7,22.9c-19.4,10.4-45.1-5.6-63.9-17.5
	c-6.6-4.2-8-6.5-16.8-6.5c0,0,23.8,23.9,61.3,37.7c-5.1,4.7-13.3,3.2-19.7,0.5c-33.1-13.6-40-36.4-56.3-38.4
	c-1.5-0.2-7.2,0.1-10.6,0.4c20,27.5,43.6,34.1,60.3,41.9c-6.3,2.8-12.4,3.3-18.8,0.7c-9.9-3.9-26.9-17.9-34.9-25.6
	c-4.9-4.8-9.9-11.9-16.4-14.6c-5.8-2.4-13.8-0.4-19.8,0.2c9.6,5.8,26.6,26.9,64.9,39.8c-6.9,6.7-17,2.7-25.2-2.3
	c-44.7-27.1-33.8-39-60.4-32.8c17.7,16.1,38.3,29.1,60.5,38c-3.4,3.5-8.8,4.3-13.5,3.3c-9.1-2-28.9-17.9-36-23.8
	c-6.2-5.2-13.3-13.6-21.8-14.1c-3.8-0.2-8.2,1.8-11.8,3c12.6,15.8,31.5,26.5,51.7,28.7c-12.4,15-35.1-3.5-48.8-17
	c-11.7-11.5-11.8-9.1-25.9-3.3c16.4,18.8,38.4,32.8,62.4,39.6c-25.4,10.3-61-30.3-69.9-32.6c-5.8-1.5-10.6,1.1-15.6,3.7
	c17.5,15.1,41.7,22.6,64.6,26c-16.7,17.8-62.3-17.1-67.1-19.1c-2.4-1-5.9-1.8-8.5-1c-2.9,0.9-5.8,3.4-8.4,5
	c19,17.7,44,28.9,69.9,31.2c-21.8,8.2-44.7-2.3-62.9-16.5c-3.6-2.8-6.9-6.6-11.4-7.8c-5.7-1.6-9.7,2.2-14,5.3
	c17.3,15.1,39,25.1,61.8,28.2c-13.2,7.2-33.9,7-57.9-12.6c-3.3-2.7-6.9-6.2-11.4-6.4c-5.1-0.3-8,2.6-11.6,5.7
	c12.1,13,26.1,24.1,41.5,33c-9.7,7.7-22.9-4.6-37.2-18.8c-2.8-2.8-5.8-6.9-10-7.4c-4.1-0.5-7.2,4.6-9.9,7.2
	c12.8,11.8,31.7,16.5,48.7,20c-12.8,15.3-43.9-9.2-50.8-11.2c-5.2-1.5-9.3,2.8-12.5,6.3c14.9,10,31.5,17.7,48.8,22.6
	c-14.4,12.2-42.6-17.3-52.9-16.1c-3.9,0.5-6.7,6.4-9,9.3c13.4,9.5,29.1,15.5,45.4,17.7c-9,10.6-25.4-0.4-40.3-8.2
	c-3-1.6-7.2-3.2-10.6-1.5c-4.1,2-6.6,8.6-8.9,12.2C30.5,772.1,12.1,773.6,25.1,759.4z"/>
<path class="st0" d="M433.3,236.3c2-2.6,3-5.6,4.3-8.6c-4.3,2.7-8.6,5.9-13.1,8.1c-10.5,5.1-11,8.7-18.6,20.7
	c-0.2-16.9-0.8-15.6-10.8-41.3c-1.4,20.5,1.2,29.9,7,41.7c-6.7-8-15-19-34.9-20.6c0,0,8.1,9.9,19.1,16c0.8,0.5,7.5,5,14.1,7.7
	c-5.6,2.4-9.2,3.9-12.9,7.8c-7.8,8.2-14.2,20.6-14.2,20.6c8.8-4.7,17-11.3,23.8-19.4c2.1-2.5,3.4-5,5.9-7.1
	c0.2,15.8,6.7,31.5,17.8,42.8c-2.9-15.1-5.9-30.7-14.7-43.3c2.4,1.1,4.7,2.2,7.2,2.8c19.4,4.8,25.6,2.5,30.6,2
	c1.8-0.2,6,0.2,10.1-0.6c-9.8-8.4-33.6-8.1-46.9-6.8C417.5,247.7,425.8,246,433.3,236.3z"/>
<path class="st0" d="M190.5,1088c0.4,3.2,1.8,6.1,3,9.1c1.1-5,1.9-10.2,3.6-15c3.8-11.1,1.6-13.9-1.5-27.8
	c12.1,11.8,11.6,10.4,36.8,21.5c-13.6-15.5-22-20.3-34.5-24.5c10.4,0.9,24,2.8,39.2-10.1c0,0-12.7-1.2-24.8,2.2
	c-0.9,0.3-8.8,1.8-15.4,4.5c2.3-5.6,3.7-9.3,3.6-14.7c-0.3-11.3-4.5-24.6-4.5-24.6c-2.9,9.6-4,20-3.1,30.5c0.3,3.3,1.1,5.9,0.9,9.2
	c-11.3-11-27-17.5-42.8-17.7c12.7,8.6,25.9,17.5,41,20.2c-2.4,0.9-4.9,1.8-7.1,3.1c-17.1,10.4-19.9,16.3-23,20.2
	c-1.1,1.4-4.4,4.1-6.7,7.6c12.9-0.9,29.5-18,38-28.4C193.6,1068.8,189,1075.8,190.5,1088z"/>
<g>
	<path class="st1" d="M290.3,787.8c1.9-2.9,2.7-6.5,2.3-9.9c-0.8-7.8-7.8-14.5-15.7-14.9c-7.9-0.3-15.5,5.7-16.9,13.4
		C256.4,794.9,280.3,803.3,290.3,787.8z M277,768.3c2.9,0.2,7.5,2.4,8,5.6c0.7,5-7.2,5.4-10.3,4.5c-2.3-0.7-4.4-2.2-5-4.6
		C268.8,769.8,273.7,768,277,768.3z M357,759.2c8.4,1,16.3-5.2,16.9-13.2c0.3-3.8-1-7.8-3.5-11c-4.2-5.4-12-8.1-18.3-6.2
		C336.3,733.3,339.9,757.1,357,759.2z M356.5,732.7c1.8-1.4,4.9-1.6,7.6,0c2,1.2,4.8,4.4,4.8,6.9c-0.1,4.5-5.2,4.4-8.3,3.1
		C357.5,741.5,352.8,735.7,356.5,732.7z"/>
	<path class="st0" d="M188.7,837.2c-2.8,0.2-5.6,0.4-8.1,1.7s-4.5,2.9-4.2,5.7c8.4,1.7,20.6-0.2,30.6-1.9c6.8-1.1,13.6-2.6,20.6-2.3
		c3.5,0.1,7.4,2.6,10.7,3.8c4.5,1.7,9.1,3.2,13.7,4.6c8.9,2.7,17.8,5.1,26.9,6.9c17,3.5,35.5,2.6,50.6-5.8c3.9-2.2,8-5.6,8.1-10.1
		c0.4-14.9-31.5-14.8-41.2-15.4c-12.2-0.7-29.8,1.9-43.3,4.5c15.1-6.7,29.4-15,42.5-25.1c5.8-4.5,12.6-8.7,20.4-8.4
		c6.2,0.3,13.4,2.2,19.5,3c9.2,1.1,17,1.4,26.2-0.1c5-0.8,10.1-2,14.2-5s6.9-8.3,5.6-13.2c-1.1-4-4.6-7-8.5-8.4s-8.2-1.4-12.3-1.1
		c-12.5,0.8-31.6,6.3-44.2,13.3c7.8-14.4,13.7-36.1,13.8-53.5c0-4.6-0.7-10-4.6-12.4c-3.3-1.9-7.8-0.8-10.6,1.8
		c-2.9,2.6-4.5,6.2-5.8,9.8c-3.8,10.6-5.8,21.9-6,33.2c-0.1,5.7,0.3,11.5,1.2,17.1c1.2,7.7-2.5,14.2-8.7,18.8
		c-5.7,4.3-11.6,8.4-17.6,12.2c-14.5,9.1-28.9,15.3-47.1,21.3c10-15.1,22.3-49.6,16.5-71.1c-1.2-4.5-3.8-9.8-8.5-10.2
		c-3.8-0.3-7,2.8-9.2,5.9c-8,11.2-11.1,25.3-11.1,39.1c0,7.5,0.8,15,1.9,22.5c0.9,5.5,3.8,15-3.8,16.9
		C207.8,837.5,197.9,836.5,188.7,837.2z"/>
</g>
<g>
	<path class="st0" d="M60.3,1329c6-21,10.5-10.5,35.1-24.6c11.2-6.4,21.2-15.2,28.5-25.8c2.5-3.6,5.2-10.7,1.5-14.3
		c-9-8.6-41.4,11.9-55.2,35.7c9-22.4,21.2-44.3,36.8-61.1c5.4-5.8,12.3,1.5,16.6,4.9c34,26.7,63.9,25.8,67.9,16.9
		c1.9-4.3-1.4-9.1-4.7-12.3c-15.9-15.6-52-21.7-70.1-20.3c14.2-13,26.6-22.5,41.6-30.7c6.3-3.4,12.7-6.6,19.3-9.4
		c7.1-3.1,14.5-3.1,20.7,1.6c21.9,17,64.8,30.6,64.4,11.7c-0.1-4.6-4.4-8-8.5-10.1c-13.6-6.8-37.9-13.5-53.4-14.1
		c12.3-7.6,26.4-21.6,33.2-32.1c13-20.2-1-29.5-12.4-24.4c-18.2,8.2-28.6,46.2-31.1,51.2c-3.5,6.9-10.6,10.8-17.3,13.7
		c-15.1,6.5-29.4,15-42.6,24.9c10.4-11.3,19.3-23.8,26.3-35.4c4.9-8.2,18.7-36.7,5.5-43.6c-4-2.1-8.9-0.2-12.8,2.2
		c-26.2,16.1-34.5,51-39.6,82.4c-0.5,3.4-0.3,8.1-1.9,11.2c-3.2,6.2-7.8,11.5-12.1,16.9c-12.5,15.6-22.6,32.8-30.8,51
		c3.1-17.4,1.2-35.6-5.4-52c-1.3-3.3-2.9-6.6-5.6-8.9c-2.6-2.4-6.6-3.6-9.8-2.2c-4.4,1.9-5.8,7.5-6.1,12.4
		c-3,39.3,14.2,61,16.5,66.2c2.3,5.2-0.3,11.9-1.9,16.9c-2.1,6.6-4,13.3-5.7,20.1C55,1345.8,58.1,1336.7,60.3,1329z"/>
	<path class="st1" d="M179.7,1230c7.4,2.5,16.5-1.2,20-8.2s1.1-16.5-5.3-21c-2.8-2-6.4-3-9.8-2.8C166.1,1199,161.8,1224,179.7,1230z
		 M194.1,1209.4c2.6,2,2.2,7.1,1,9.7c-1.4,3.1-5.3,6.4-8.3,3.7c-1.9-1.7-2.1-4.2-1.6-6.6C185.9,1213,190.1,1206.3,194.1,1209.4z
		 M269.7,1153.7c-1.6-3.7-4.5-6.8-7.9-8.4c-7.2-3.4-16.6,0.5-19.7,8.3c-6.5,15.9,12.4,30.7,24.2,19.1
		C270.9,1168.1,272.4,1160,269.7,1153.7z M258.1,1158.6c0.4-3.3,2.8-7.9,6.8-5.8c2.2,1.2,3.6,5.2,3.7,7.5c0.1,3.2-1.6,5.8-3.7,6.7
		C260.5,1168.8,257.7,1161.8,258.1,1158.6z M89.8,1232.1c9.6-6.2,8-22.9-1.5-28.2c-16.1-9-36.8,14.6-19.8,27
		C74.6,1235.4,83.2,1236.4,89.8,1232.1z M69.5,1217.3c-2.1-3.9,2.8-9.9,6.8-10.7c10.3-2.2,7.9,11.6-0.5,13.3
		C73.4,1220.3,70.7,1219.4,69.5,1217.3z"/>
</g>
<g>
	<path class="st1" d="M131.7,482.4c4.7-6.9,4.5-16.3-1.6-22.3c-10.6-10.4-29.5-3.6-30.8,12.5C97.7,492,122.2,496.2,131.7,482.4z
		 M114.6,473.4c-6.2,0.9-10.7-6.6-4.5-10.8C121.6,455,125.6,471.8,114.6,473.4z M129.4,555.2c-2.1-7.6-9.7-12.7-17.5-13
		c-11.7-0.5-21.5,12.5-19.8,22.9c1.1,6.8,6.4,12.9,13.1,14.7C118.7,583.5,133.2,568.7,129.4,555.2z M114.3,571.3
		c-7.1-4,1.1-16.6,6.9-13.1C127.5,562,121.1,575.1,114.3,571.3z"/>
	<path class="st0" d="M210.5,464.7c-6.2,7-13.1,13.6-22,17.1c-10.3,4.4-21.6,6.4-32.4,9.1c-20.4,5.1-23.2,6.4-49,26.6
		c-0.9,0.7-5.9,4.1-5.7,5.2c-0.1-0.5,7.5-3.7,8.3-4.1c51.5-21.8,78.6-1.4,91.5,1.6c1.8,0.4,3.5,0.8,5.2,1.6c0.5,0.2,4.1,2.9,4.2,2.8
		c-6.1,2.8-12,3.6-18.5,4.7c-13.4,2.1-11.3,8.8-39.5,6.8c-9-0.9-17.8-5-26.5-7.6c-7.9-2.4-16.5-3.9-24.5-1.4
		c-7.6,2.4-13.7,8-19,13.8c-8.5,9.3-15.8,19.8-22.7,30.3c-3.8,5.9-7.4,12-10.6,18.3c-1.6,3.2-3.1,6.4-4.4,9.6
		c-0.7,1.7-1.4,3.4-2,5.1c-0.4,1-0.8,3.3-1.4,4c4.9-5.3,10-13.6,23.3-18.3c8.3-2.9,19.2-2.3,27,1.8c3.3,1.7,7.4,2.6,10.9,3.9
		c-22.2,12.4-25.8,12.1-49.1,12c-5.7,0-13.4,3-14.5,11.9l-3.5-0.7c9.3-44.3-12.9-25-11.7-76.4c0.1-2.2,0.2-4.5,0.3-6.7
		c0-0.7,0.3-3.4,0.5-5.8c6,4.6,9.8,11.3,13.1,17.9c1.5,3.1,3.6,5.6,4.9,8.9c6.1,14.9,4.8,22.2,0.2,38.4c2.2-7.6,7.3-15.3,11.4-22
		c15-24.6,11.5-25.9,8.6-50.9c-4.1-35.5-0.8-35.9,9.8-69.8c1.3-4.2,3.5-8.1,6.4-11.3c14.7,47.7,22,54.3-10.5,111.5
		c8.2-10.3,16.9-20.6,26.9-29.6c9.5-8.7,20.4-15.7,30.9-23c2.9-2,5.7-4.3,8.1-7c5.9-7,12.8-13,18.3-20.3
		c20.9-28,46.4-23.5,57.4-25.2c6.5-1,12.6-3.7,19.2-4.4C223.7,450.8,216.9,457.5,210.5,464.7z"/>
</g>
<path class="st2" d="M467.4,377.1c4.1,0,4.1-6.2,0-6.2C463.3,370.9,463.3,377.1,467.4,377.1z"/>
<path class="st2" d="M72.6,1081.2c0,4.1,6.2,4.1,6.2,0S72.6,1077.1,72.6,1081.2z M432.3,956.2c0,3.4,2.8,6.2,6.2,6.2
	c3.4,0,6.2-2.8,6.2-6.2c0-3.4-2.8-6.2-6.2-6.2C435.2,950,432.3,952.8,432.3,956.2z M418.3,901c0,4.1,6.2,4.1,6.2,0
	C424.5,897,418.3,897,418.3,901z M128.5,781.9c0,5.5,4.6,10,10,10c5.5,0,10-4.6,10-10c0-5.5-4.6-10-10-10
	C133,771.9,128.5,776.5,128.5,781.9z M80.9,1139.3c0,5.8,4.8,10.6,10.6,10.6c5.8,0,10.6-4.8,10.6-10.6c0-5.8-4.8-10.6-10.6-10.6
	C85.7,1128.7,80.9,1133.5,80.9,1139.3z M449.2,1267.1c0,4.8,7.2,4.8,7.2,0C456.4,1262.3,449.2,1262.3,449.2,1267.1z M407,1150.9
	c0,5.7,8.7,5.7,8.7,0C415.7,1145.2,407,1145.1,407,1150.9z M296.7,1130.9c4.1,0,4.1-6.2,0-6.2
	C292.6,1124.7,292.6,1130.9,296.7,1130.9z M189.2,744.6c4.1,0,4.1-6.2,0-6.2C185.1,738.4,185.1,744.6,189.2,744.6z M210.6,1284.5
	c0,2.9,2.4,5.3,5.3,5.3c2.9,0,5.3-2.4,5.3-5.3c0-2.9-2.4-5.3-5.3-5.3S210.6,1281.6,210.6,1284.5z M409.6,703.5c0,4.1,6.2,4.1,6.2,0
	C415.8,699.4,409.6,699.4,409.6,703.5z M343.1,219.4c4.1,0,4.1-6.2,0-6.2C339,213.2,339,219.4,343.1,219.4z M147.8,155.3
	c0,4.8,4,8.8,8.8,8.8s8.8-4,8.8-8.8s-4-8.8-8.8-8.8S147.8,150.5,147.8,155.3z M427.4,181.4c8.2,0,8.2-12.4,0-12.4
	C419.2,169,419.2,181.4,427.4,181.4z M366.4,328.8c0,3.2,2.7,5.8,5.8,5.8c3.2,0,5.8-2.7,5.8-5.8c0-3.2-2.7-5.8-5.8-5.8
	C369,322.9,366.4,325.6,366.4,328.8z M447.7,584.4c0,5.7,8.7,5.7,8.7,0C456.4,578.7,447.7,578.7,447.7,584.4z M252.3,535
	c0,4.4,6.6,4.4,6.6,0C258.9,530.6,252.3,530.6,252.3,535z M209.4,407.2c0,4,3.3,7.3,7.3,7.3s7.3-3.3,7.3-7.3s-3.3-7.3-7.3-7.3
	S209.4,403.2,209.4,407.2z M130.7,398.5c0,4.1,6.2,4.1,6.2,0S130.7,394.4,130.7,398.5z"/>
<rect x="42.6" y="101.5" class="st3" width="448.9" height="1232.9"/>
</svg>
