<?xml version="1.0" encoding="utf-8"?>
<!-- Generator: Adobe Illustrator 27.0.0, SVG Export Plug-In . SVG Version: 6.00 Build 0)  -->
<svg version="1.1" id="Layer_1" xmlns="http://www.w3.org/2000/svg" xmlns:xlink="http://www.w3.org/1999/xlink" x="0px" y="0px"
	 viewBox="0 0 1366 485" style="enable-background:new 0 0 1366 485;" xml:space="preserve">
<style type="text/css">
	.st0{fill:#51020B;}
	.st1{fill:#EA450F;}
	.st2{fill:#FFFFFF;}
	.st3{fill:none;}
</style>
<path class="st0" d="M63.2,298.2c11.9,22.2,18.4,28.4,26.8,38c18.3,21,38.7,54.1,72.1,43.7c13.1-4.1,23.1-23.9-4.6-35.4
	c-14.7-6.1-30.9-7.3-46.3-11c-31.5-7.4-38.1-28.1-47.6-46.8c12.4,6.9,31.3,9.2,44.5,10.7c20.9,2.5,42.1,14.7,63.6,10.6
	c37.8-7.1,16.9-60.6-34.6-29.2c-10.7,6.5-24.7,15.1-43.7,11.6c-25.9-4.8-49.1-18.6-66.9-38.7c13.1,2.7,15.2-0.8,31.2,5.2
	c24.9,9.2,46.6,2.4,54.5-7c8.3-10,2.7-22.1-9.8-23.8c-11.9-1.7-26.2,6.2-35.9,12.2c-8.1,5-15,9.5-24.9,10.3
	c-14.3,1.1-24.5-5.2-28.9-15.7c-1.7-4-2.2-9.9-5.1-13.3c-3.5-4.1-9.3,6.6,8.9,29.6c12.2,15.4,19.9,14.1,25.6,51.9
	c4.2,27.8-17.5,48.5-19.1,65.3c-2.4,25.2,31.9,29.5,35.8-6.3c2.7-24.7-7.8-42.7-14.8-74.8c-0.3-1.3-2.5-10-3.8-13.8
	C49.4,278.4,52.8,279,63.2,298.2z M145.7,360.6c-1.6,9.6-27.3,6.8-43.8-22C113.1,343.4,147.7,348.5,145.7,360.6z M164.7,288.6
	c3.1,8.8-15.5,15.3-37.9,5.6C146.6,281.5,162,280.9,164.7,288.6z M89.3,238.3c15.5,2.2,6.8,22.3-29.4,12.4
	C68.1,245.4,78.6,236.8,89.3,238.3z M46.4,365c-2.8,2.5-6.6,1.8-8.7-1.5c-5.6-8.4,3.8-27,10.3-33.3C54.8,347.4,51.9,360.2,46.4,365z
	"/>
<g>
	<path class="st0" d="M973.7-164.5c-0.7,2.5,0,5.2,0.8,7.6c0.2,0.5,6.5,31.3,6.9,33.4c1.4,6.3,2.8,10.9,0.3,17
		C974.5-89.1,938.2-77,932.6-34c-0.6,4.4-0.8,25-0.9,25.8c-1,5-3.2,9.9-3,15c4.7-3,9.4-6,13.6-9.8c2.3-2.1,4.1-4.8,6.5-6.7
		c13.6-11.3,39.1-32.4,39.8-85.9c-0.1,7.8,3.9,16.9,5.9,24.3c10.5,37.6,13.4,38,11,46.1c-5.5,18.7-24.5,28.7-33.1,58.8
		c-0.7,2.6-0.9,5.2-1.7,7.8c-1,3.2-2.7,5.9-3.9,8.9c-1.1,2.9-1.4,6.1-2.1,9.1c3.3-2.2,6.7-4,9.7-6.5c3.3-2.8,6.5-5.8,9.5-8.9
		c12.9-13.5,25.7-22.4,26.3-66.5c11.7,44.5,34.2,67.3,23.8,87.1c-13.2,25.1-35.5,38.8-37.5,66.6c-0.6,8.3,1.2,16.8,1.2,25.2
		c0,6.1-3.3,11.3-1.7,17.5c4.6-4.9,8.8-9.9,13-15.2c2.8-3.5,6-6.8,9.3-9.8c13.2-11.9,21.6-29.6,25.1-47.1c2.8-14,1-28.3-0.1-42.4
		c5.7,9.8,10.7,20,16.1,29.9c3.6,6.6,10.2,14.4,11.7,21.7c3.4,16.9-11.5,33-12.4,55.3c-0.2,5.6,1.7,12,2.6,17.6
		c0.8,5.4,1.1,11,3.3,16.1c4.1-7.2,8.1-14.4,12.2-21.6c6.2-11.1,8.5-40.2,0.1-59.1c2.9,5.8,7.5,11.4,11.1,16.8
		c20.2,30.1,24.1,30.6,25.3,40.8c2.9,25.2-15.2,47.5-22.4,70.4c-3.6,11.5-0.1,22.8-0.5,34.5c-0.3,8.5-3.6,18.4,0.3,26.7
		c38-38.4,50.2-67.3,31.1-125.6c16.5,18,32.7,36.5,50.3,53.5c12.4,12,3.1,34.2,3.3,49.4c0.2,19.4,8.4,22.4,10.7,35.3
		c0.6,3.1,2.4,6,3.8,8.9c-0.2-0.4,1.4-3.6,1.5-4.2c1.3-4.7,1.4-10.2,2.7-15c6.5-24.1,5.1-35.7-12.5-65.6c4.9,4.1,9.8,8.2,14.8,12.3
		c28.6,23.3,51.4,36.2,48.2,52.8c-1.2,6.2-4.5,11.5-6.6,17.4c-5.5,15.2-2.2,34.7-2.2,39.4c-0.1,3.4,0.3,7.3,1,10.2
		c2.6-3.4,4-6.9,5.7-10.6c0.5-1.2,10.5-15.5,13.2-21.4c8.3-18.6,0.3-29.7-5.3-43.9c4.9,5.3,9.8,10.3,13.3,16.8
		c25.1,46.4,67.2,54.5,98.9,63.6c-1.5-5.2-5-9.5-8.8-13.2s-8.1-7.1-11.6-11.2c-7.1-8.4-14.7-31.5-54.1-47.3
		c-10.8-4.3-21.7-8.7-32.4-13.4c20.3-1.6,42.2,5.5,65.2-18.6c27.2-28.5,4.1-2.3,29.1-29c-6.1-1.6-12.6-0.3-18.8,1.3
		c-20.4,5.4-15.7,2.5-25.5,4.3c-10.4,1.8-19.8,7.3-27.6,14.2c-13.3,11.8-13,19.3-26.1,21.1c-7.5,1-16-3.9-51.6-33.2
		c21.6,7.7,39.9,11.3,63.8-2.2c6.3-3.6,11.8-4,24.2-13.7c-8.4-2.4-33.7-1.7-38.1-1.3c-32.3,2.7-38.9,25.4-65.3,4.7
		c-3.5-2.7-23.9-23-38.3-38.8c21.5,13.2,52,22.2,79.3,14.8c4.6-1.3,29-11.4,46.5-21.1c-26.7-6.8-54.7-13.5-81.3-6.8
		c-18.3,4.6-35.6,15.7-53.1,1.9c-4.7-3.7-16.3-18.3-20.5-23.6c-3.9-4.8-12.5-17.5-15.6-19.4c5.9,3.7,12,6.9,18.3,9.7
		c11.1,4.9,16,9.1,39.3,5.2c6.9-1.1,13.7-2.3,20.5-3.9c-3.4-2.6-7.4-4.7-11.5-5.9c-6.9-2.1-13.3-4.9-19.6-8.3
		c-16.6-8.7-46.5,5.6-55.1-9.4c-7-12.3-12.8-17.4-31.5-51.5c-0.7-1.3-12.9-24.6-13.8-25.6c13.4,14.5,30.2,40.8,75.6,48.8
		c10.2,1.8,20.8,3.4,31.1,4.1c-3.7-7.5-12.5-10.8-18.5-16.8c-3.3-3.4-5.9-7.5-9.1-11c-7-7.7-10.3-13-33.7-23
		c-16.5-7.1-30.8-1.6-47.8-13.5c-6.5-4.5-8.3-11.7-11.4-18.8c-9.5-21.7-18.6-45.6-27.1-71.8c-12-37.3-18.2-66.7-18.2-66.7
		c12.2,14.5,32.1,26.9,51,25.2c3.9-0.3,7.8-1.8,11.7-2.5c3.2-0.6,6.4-1,9.6-1.2c2.9-0.2,5.8-1,8.3-1.7c-6-3.6-12.1-7.2-18.1-10.9
		c-20.9-12.5-25-7-48.8-8.5c-17.6-1.1-18.8-20-21.5-33.8c-1.9-9.4-2.4-19-1.6-28.5C976.9-169.1,974.4-167,973.7-164.5z"/>
	<path class="st0" d="M1007.1-26.6l0.8,3.2c7.9-2.7,13.6,2.4,15.9,7.2c9.6,19.5,10.9,22.6,30.3,36c-0.4-3.5-1.4-7.2-1.3-10.7
		c0.2-8.2-3.9-17.6-9.7-23.2c-9.4-9.2-18.5-9.9-24.9-11.8c0,0,17.2-2.3,36-0.6c9,0.8,16.9,3.7,23.2,10.5
		c12.4,13.5,0.6,13.1-2.6,15.5c-5.2,3.8-8.1,10.7-6.9,17c2.5,12.9,20.9,18.8,30.5,10c8.9-8,6.6-23.2-5.3-28.7
		c-8.2-3.8-3.2-5.9-12.4-15.5c-2.3-2.4-5-4.4-7.9-6.1c30.9,6.1,42.6,10.2,46.9,35.3c1.4,8.3,1.7,17.4,4.7,25.2
		c10.1,24.3,14.7,19.8,22.1,30.1c3.5,4.9,6.7,9.6,11.5,13.5c-0.1,0,0.6-4.2,0.6-4.7c0-1.7-0.4-3.3-0.8-5c-2.8-12,2.9-43.1-36.6-76.9
		c-0.6-0.5-6.5-5.4-6.8-5.2c0.9-0.6,5.8,2.2,6.8,2.6c27.4,13.1,29.7,14.9,42.4,29.8c6.7,7.9,13.1,16.4,21,23.2
		c6.6,5.9,15,8.9,23.4,11.2c8.7,2.3,17.1,5.2,25.9,6.8c-3.4-5.2-8.1-9.2-11.6-14.2c-5.9-8.4-12.7-31.6-44.8-37.4
		c-8.4-1.5-16.3-4.8-24.5-6.8c-8-2-14.4-7.6-22-10.6c3.6,0.5,7.2,0.6,10.7,0.2c2.7-0.3,4.7-1.5,7.4-1.2c6.7,0.7,8.7,5,15.9,4.9
		c6.5-0.1,12.5-4.7,14.5-10.8c4.3-13.2-9.3-26.1-23.2-20.5c-19.5,7.9-2.2,22.3-13.4,24.7c-15.1,3.2-30.3-9.3-67.3-16.9
		c61.1,3.4,63.6-5.4,97.3-37.4c-3.9-1.1-8.1-1.3-12.1-0.6c-32.6,5.2-34.3,2.7-62.2,20.8c-19.6,12.8-19.3,16.2-45.9,13.9
		c-7.3-0.6-15.8-1.7-23-0.4c15.4-2.9,22-4.8,31.9-16.1c2.2-2.5,3.4-5.2,5.4-7.8c4.2-5.5,8.2-11.5,9.5-18.4c-2.1,0.8-4.4,1.7-5,2
		c-1.9,0.8-3.8,1.6-5.7,2.5C1022.6-47.6,1047.9-37.2,1007.1-26.6z M1092.6,20.9c-0.5,6.8-14.1,6.8-13.8-0.4
		C1079.2,13,1093.1,14.6,1092.6,20.9z M1169.4-29.3c4.2,2.4,6.9,8.7,0.8,11c-2.8,1.1-6.2-0.4-7.9-2.8
		C1158.9-25.9,1163.3-32.8,1169.4-29.3z"/>
</g>
<g>
	<path class="st0" d="M496.8-176.5c1.2,2.3,1.1,5,0.8,7.6c-0.1,0.5,0.3,32,0.3,34.1c0,6.4-0.5,11.2,3.3,16.6
		c10.8,15.4,48.9,19.6,63.4,60.4c1.5,4.2,6.1,24.3,6.4,25.1c2,4.7,5.2,9,6.1,14c-5.2-1.9-10.5-3.9-15.3-6.7c-2.7-1.6-5-3.8-7.7-5.2
		c-15.7-8.2-45-23.5-57-75.5c1.7,7.6-0.2,17.3-0.7,25c-2.3,38.9-5,40-1,47.4c9.3,17.1,30,22.9,44.8,50.5c1.3,2.4,2,4.9,3.3,7.3
		c1.7,2.9,3.9,5.2,5.7,7.9c1.7,2.6,2.6,5.7,4,8.5c-3.6-1.4-7.4-2.5-10.9-4.3c-3.8-2-7.6-4.3-11.1-6.7C515.7,19,501.3,13,491.4-29.9
		c-2,45.9-19.1,73-4.8,90.1c18.2,21.8,42.9,30.5,50.7,57.2c2.4,8,2.4,16.7,4.2,24.9c1.3,5.9,5.6,10.3,5.4,16.8
		c-5.5-3.9-10.7-7.9-15.9-12.1c-3.5-2.8-7.3-5.4-11.2-7.6c-15.5-8.8-27.4-24.4-34.5-40.7c-5.7-13.1-6.9-27.5-8.8-41.4
		c-3.5,10.8-6.2,21.8-9.4,32.7c-2.2,7.2-7,16.2-6.9,23.7c0.2,17.2,18.2,29.8,23.8,51.4c1.4,5.5,0.9,12.1,1.2,17.8
		c0.3,5.4,1.2,11,0.2,16.4c-5.5-6.2-11-12.4-16.5-18.6c-8.4-9.5-16.8-37.5-12.6-57.7c-1.6,6.3-4.9,12.7-7.3,18.8
		c-13.4,33.7-17.1,35-16.1,45.2c2.5,25.2,24.9,43.2,36.8,64c6,10.5,4.9,22.3,7.8,33.6c2.1,8.3,7.4,17.2,5.4,26.2
		c-45.2-29.4-63.3-55.2-56.9-116.2c-12.3,21.1-24.2,42.5-37.8,63c-9.6,14.4,4.2,34.1,7.2,48.9c3.9,19-3.5,23.7-2.9,36.7
		c0.1,3.2-1,6.4-1.8,9.5c0.1-0.4-2.1-3.2-2.4-3.8c-2.2-4.4-3.5-9.7-5.8-14.1c-11.5-22.2-12.5-33.8-1.7-66.8
		c-3.9,5.1-7.9,10.1-11.9,15.1C346,312,326.5,329.5,333.1,345c2.5,5.8,6.8,10.3,10.1,15.6c8.6,13.7,9.5,33.5,10.5,38
		c0.8,3.3,1.3,7.2,1.1,10.2c-3.3-2.7-5.3-5.9-7.8-9.2c-0.8-1-13.5-12.9-17.4-18.1c-12.1-16.5-6.6-28.9-4.1-44
		c-3.6,6.3-7.4,12.2-9.5,19.2c-14.7,50.7-54.2,67.5-83.2,83c0.3-5.4,2.9-10.3,5.8-14.8c3-4.5,6.4-8.7,8.9-13.4
		c5.2-9.7,7.7-33.9,42.9-57.7c9.7-6.5,19.3-13.1,28.8-19.9c-20.2,2.7-40.1,14.3-67.7-4.3c-32.7-22.1-4.5-1.4-34.6-22.2
		c5.7-2.8,12.3-3,18.6-2.7c21.1,1,15.9-0.8,25.9-1.2c10.5-0.4,20.9,2.9,30,8.1c15.5,8.7,16.8,16.1,30,15.1
		c7.6-0.6,14.9-7.2,43.4-43.3c-19.5,12.1-36.6,19.5-62.8,11.4c-6.9-2.2-12.4-1.4-26.6-8.3c7.7-4.1,32.6-8.7,37-9.3
		c32.1-4.2,43.4,16.6,64.8-9.3c2.8-3.4,18.5-27.5,29.2-46c-18.2,17.5-46.1,32.7-74.4,31.2c-4.8-0.3-30.8-5-49.9-10.8
		c24.6-12.2,50.5-24.8,78-23.8c18.8,0.6,38.1,7.8,52.3-9.4c3.8-4.6,12-21.3,15.1-27.4c2.8-5.5,8.5-19.7,11.1-22.3
		c-5,4.8-10.3,9.3-15.9,13.3c-9.8,7.1-13.8,12.3-37.3,13.4c-7,0.3-13.9,0.6-20.9,0.5c2.8-3.3,6.2-6.1,10-8.2
		c6.3-3.5,12-7.6,17.4-12.2c14.3-12,46.7-4.3,51.9-20.8c4.3-13.5,8.8-19.7,19.9-57c0.4-1.4,7.4-26.7,8.1-28
		c-10,17-20.9,46.3-63.6,63.7c-9.6,3.9-19.6,7.7-29.5,10.6c2-8.1,10-13.2,14.5-20.3c2.6-4,4.2-8.5,6.6-12.6c5.2-9,7.3-14.9,28-29.6
		c14.6-10.4,29.7-8.1,43.9-23.3c5.4-5.8,5.6-13.2,7.1-20.8c4.7-23.2,8.6-48.5,11.3-75.9c3.9-39,3.7-69,3.7-69
		c-8.9,16.8-25.7,33.1-44.5,35.4c-3.9,0.5-8-0.1-12,0c-3.2,0.1-6.4,0.4-9.6,0.9c-2.9,0.4-5.8,0.3-8.5,0.1
		c5.1-4.8,10.3-9.6,15.4-14.4c17.7-16.6,23-12.1,45.9-18.6c17-4.8,14.2-23.5,13.9-37.6c-0.2-9.5-1.7-19-4.4-28.2
		C492.7-180.4,495.6-178.8,496.8-176.5z"/>
	<path class="st0" d="M427-62.7c-2-0.5-4.1-0.9-6.1-1.3c-0.6-0.1-3.1-0.5-5.3-0.9c2.7,6.5,7.9,11.5,13.2,15.9
		c2.5,2.1,4.3,4.5,6.9,6.5c12,8.9,18.9,9.4,34.6,9c-7.3,0.2-15.5,3.1-22.4,5.2c-25.6,7.9-25.9,4.4-47.9-3.9
		c-31.1-11.8-32.2-9-65.2-7.2c-4.1,0.2-8.1,1.3-11.7,3.2c39.7,24.2,44,32.3,103,16c-34.6,15.3-46.8,30.7-62.2,30.7
		c-11.4,0,2.4-17.8-18.3-21.3c-14.8-2.5-25.3,13-18.3,24.9c3.3,5.6,10.2,8.8,16.5,7.5c7.1-1.4,8.1-6,14.5-8.1
		c2.6-0.9,4.8-0.1,7.5-0.4c3.6-0.4,7.1-1.2,10.5-2.5c-6.8,4.5-11.9,11.4-19.3,15c-7.6,3.7-14.6,8.6-22.5,11.9
		c-30.1,12.4-31.8,36.5-35.8,46c-2.4,5.6-6.2,10.5-8.4,16.4c8.2-3.4,15.9-8,23.9-12.1c7.7-4,15.3-8.7,20.5-15.9
		c6.3-8.3,10.7-18,15.6-27.1c9.3-17.2,11.1-19.5,35.2-38.1c0.8-0.6,5-4.4,6-4c-0.4-0.2-5.1,5.9-5.6,6.5
		c-31.4,41.5-19.3,70.6-19.5,82.9c0,1.7-0.1,3.3,0.3,5c0.1,0.5,1.7,4.3,1.6,4.4c3.9-4.8,6-10,8.4-15.6c5-11.6,10.5-8.2,15.2-34.1
		c1.2-8.3-0.4-17.2-0.8-25.6c-1.1-25.5,9.5-32,38.4-44.4c-2.5,2.2-4.7,4.8-6.4,7.6c-7,11.3-1.6,12.3-8.8,17.7
		c-10.4,7.8-9.4,23.2,0.9,29.2c11.3,6.5,28-3.1,27.7-16.3c-0.2-6.4-4.4-12.6-10.3-15.2c-3.7-1.6-15.1,1.3-5.8-14.6
		c4.7-8,11.9-12.4,20.5-15.2c18-5.7,35.3-7.1,35.3-7.1c-5.9,3.2-14.6,5.9-21.9,16.8c-4.5,6.8-6.5,16.8-4.6,24.8
		c0.8,3.4,0.7,7.3,1,10.7c16.2-17.2,16.8-20.5,22-41.6c1.3-5.2,5.8-11.4,14.1-10.4l0.1-3.3C451.2-36.4,473.7-52,427-62.7z
		 M433.2,26.6c1.9,7-11.4,9.8-13.4,3.3C418,23.8,431.2,19.2,433.2,26.6z M342.9,3.5c-1.1,2.7-4.1,4.9-7.1,4.4
		c-6.5-1-5.2-7.7-1.6-10.9C339.4-7.7,345.1-1.9,342.9,3.5z"/>
</g>
<path class="st0" d="M1015.6,199.2c-0.7-3.2-2.4-5.9-3.9-8.8c-0.6,5.1-0.9,10.3-2.1,15.3c-2.7,11.4-0.2,14,4.2,27.5
	c-13.2-10.5-12.6-9.2-38.8-17.8c15,14.1,23.9,18,36.8,21c-10.4,0.1-24.2-0.4-38,13.9c0,0,12.8,0,24.5-4.6c0.9-0.3,8.6-2.6,14.9-6.1
	c-1.7,5.8-2.8,9.6-2.1,15c1.4,11.2,6.9,24,6.9,24c1.9-9.9,2-20.3,0-30.7c-0.6-3.2-1.7-5.8-1.8-9.1c12.4,9.9,28.6,14.7,44.4,13.3
	c-13.5-7.3-27.5-14.8-42.8-16c2.3-1.1,4.7-2.3,6.7-3.8c16-12,18.2-18.2,20.9-22.4c1-1.5,3.9-4.5,5.9-8.2c-12.7,2.2-27.6,20.8-35,32
	C1014.4,218.6,1018.3,211.1,1015.6,199.2z"/>
<path class="st0" d="M877.4,215.5c0.9,15.5,4.5,30.5,12.5,43.9c12.7,21,28,19.2,34,32.7c2.9,6.7,3.7,15.8,14.6,20.2
	c15.8,6.5,22.7-8.4,32-7.3c8.4,1,2.9,12.9,17,17.1c-1.1-4.1-0.8-6.5-3.8-10.9c-2.5-3.6-6.7-5.7-9-10c5.5-0.3,8.5,3.2,13,5.6
	c4.9,2.7,12.1,3,16.9,1.5c-13-13-18.4-5.2-28.3-12.4c6.5-5,14.8,1.2,24.3-11.2c-14.7-0.6-14.9,2.8-21,5.7
	c-10.7,5.1-14.3-16.6-31.3-20.1c-6.6-1.4-13.8,2-19.2,5.5c-14,8.9-49.2-12.8-48.7-72.8c2.8,7.2,5,14.5,9.2,21.1
	c18.7,28.7,43.2,21.3,57.8,25.3c-10.2-10-17.5-19.8-28-26.5c-7.9-5-15.3-6.3-23-9.5c-7.7-3.2-15.3-10.8-14.8-19.8
	c0.4-6.8,7.7-23.3-2.8-28.5c-8.9,17,13.7,39.4-35,93.2c-23.5,25.9-16.3,36.8-24.4,64.3c-3.5,11.8-6.2,22.2-5.5,33
	c11-10.5,9.5-15.2,18-25.5c7-8.6,15.4-16.1,21-25.8c18.1-32,12.1-48.7,18.8-70.9c-0.3,18.9-0.9,44.1,9.2,74.2
	c1.9,5.7,5.4,12.3,5.6,18.4c0.1,5.2-2.3,9.9-3.2,14.9c-3.2,17.2,10.8,31.2,26.8,30.2c3.6-0.2,7.5-1.2,10.4,1.1
	c3.6,2.8,0.9,7.4-0.8,10.5c-2.4,4.6-2.8,10.4-1.9,15.1c2.8-2.6,6.6-6.9,7.3-10.9c0.8-4.4-1.4-9.8,1.8-15c2.6,5.1,1.1,12,1.9,17.5
	c1.3,9.4,5.8,15.8,5.8,15.8c4-13.7,1-20.4-0.7-24.8c-1-3.1-3.2-7.3-2.6-10.6c5.7,3.5,5.3,13.4,12.8,20c3.1,2.7,7.2,3.9,7.2,3.9
	c-0.9-6.5-1-11.5-8.6-18.3c-2.3-2-6.8-6.7-7.8-8.6c10.9,1.7,15.2,13.3,34.1,6.6c-7.8-5.1-11.9-9.3-24-9c-20.7,0.5-4-14.7-18.5-32.8
	c-6.2-7.7-14.6-10.3-24.2-10.3C879.6,321.1,871.1,258.3,877.4,215.5z"/>
<path class="st0" d="M606.6-16.4c5.1,4.6,10.2,10.4,16.3,13.7c4.9,2.6,9.7,0.9,14.7-0.4c14.9-4,36.8-8,41.2,6.9
	c-15.3-5.2-32.3-5-47.6,0.3c5.3,4.4,9.6,9.9,17,8.9c7.2-1,26.3-12.2,32.7-1.3c-11.1,2.2-22.2,4.4-33.3,6.5l-0.2,0
	c3.4,3.2,5.6,6.7,10.4,7.7c6.7,1.4,17-5.6,27.6-5.6c5.1,0,10.4,2.4,12.5,7c-12.1-0.1-24.2,1.9-35.7,5.8c3.2,3.4,6.1,6.5,10.1,8.9
	c4.2,2.6,9.3,2.9,14,3.9c19.7,4.1,42,10.5,47.1,25.8c-16.8-9.9-35.5-16.5-54.7-19.6c3.8,4.7,6.4,9.8,12.6,11.3
	c5.2,1.2,10.6,0.3,15.9,1.1c11.8,1.6,35.2,8,36.7,20.4c-15.7-9.6-33.9-14.9-52.2-15.2c3.6,5.2,6.2,10.1,12.6,11.9
	c5.3,1.4,10.9,1,16.2,1.7c18.6,2.6,48.7,10.6,48.2,29.4c-16.4-16.8-40.8-25.5-64.1-22.9c2.4,4.1,4.5,8.6,8.8,11
	c4.1,2.3,9.2,1.8,13.7,2c7,0.2,14,1,20.8,3.1c12.8,3.9,24.8,13.1,28.2,26c-16.4-15.3-38.9-23.9-61.3-23.6
	c2.7,5.3,3.5,10.9,13.9,15.2c6.4,2.7,13.3,3.5,19.7,6c13,4.9,42.9,21,36,33c-14.8-17.4-36.4-28.8-59.1-31.3
	c2.4,5.9,3.1,11.4,8.8,15.1c5.9,3.8,13,4.7,19.6,6.6c10,2.8,32.7,10.6,39.7,18.2c3.2,3.4,6.3,9.9,5.2,14.5
	c-17.9-16.6-40.8-27.7-64.9-31.6c1.5,4.5,2.3,9,5.2,12.9c3.2,4.4,7.7,5.4,12.5,7.5c27,11.5,53.1,44.2,40.1,55
	c-8.1-23.8-27.5-43.5-51.2-52.1c0.9,3.9,1.2,8.8,3.1,12.3c5.3,9.9,15.4,14.5,23.7,21.4c10.2,8.4,35.6,31.7,26.6,41.5
	c-12.5-19-29-35.4-48.1-47.8c0.7,4.7,0.6,9.7,3.1,13.9c2.4,3.8,6,6.6,9.2,9.6c19.1,17.3,40.9,51.9,33.5,66.9
	c-8.5-16.7-22.5-48.1-43.2-64.7c0.3,5-0.3,10.7,2.4,15.2c3.5,6,39.4,28.8,45,61.5c-5.1-1.8-8.5-6.4-11-11.2
	c-8.3-15.9-20.9-28.9-35.7-37.8c-0.1,5.3-0.6,9.2,3,13.5c2.9,3.5,37.4,31,32.2,65.1c-14.3-19.2-12.6-36.4-35.7-56.7
	c-2.3,27.2,0.7,23.7,7.7,42.1c3.1,8.3,11.6,27.6,2.2,37.8c0.4-0.5-1.5-5.5-1.7-6.3c-5.3-18.9-9.6-28.6-12.9-48.4
	c-2.4,16.9-6.8,50.6-16.4,64.2c-3.1-11.5-0.8-17.6,8.6-56.7c-11.8,24.9-12.6,27.8-21,38.7c-0.3-6.3-3.4-8,13-38.3
	c4-7.4,10.2-16,11-24.7c0.5-4.8,0.9-9.5,1.3-14.3c-16.5,29.5-14.8,42.4-22.9,61.7c-10.4-19.4,5.6-45.1,17.5-63.9
	c4.2-6.6,6.5-8,6.5-16.8c0,0-23.9,23.8-37.7,61.3c-4.7-5.1-3.2-13.3-0.5-19.7c13.6-33.1,36.4-40,38.4-56.3c0.2-1.5-0.1-7.2-0.4-10.6
	c-27.5,20-34.1,43.6-41.9,60.3c-2.8-6.3-3.3-12.4-0.7-18.8c3.9-9.9,17.9-26.9,25.6-34.9c4.8-4.9,11.9-9.9,14.6-16.4
	c2.4-5.8,0.4-13.8-0.2-19.8c-5.8,9.6-26.9,26.6-39.8,64.9c-6.7-6.9-2.7-17,2.3-25.2c27.1-44.7,39-33.8,32.8-60.4
	c-16.1,17.7-29.1,38.3-38,60.5c-3.5-3.4-4.3-8.8-3.3-13.5c2-9.1,17.9-28.9,23.8-36c5.2-6.2,13.6-13.3,14.1-21.8
	c0.2-3.8-1.8-8.2-3-11.8c-15.8,12.6-26.5,31.5-28.7,51.7c-15-12.4,3.5-35.1,17-48.8c11.5-11.7,9.1-11.8,3.3-25.9
	c-18.8,16.4-32.8,38.4-39.6,62.4c-10.3-25.4,30.3-61,32.6-69.9c1.5-5.8-1.1-10.6-3.7-15.6c-15.1,17.5-22.6,41.7-26,64.6
	c-17.8-16.7,17.1-62.3,19.1-67.1c1-2.4,1.8-5.9,1-8.5c-0.9-2.9-3.4-5.8-5-8.4c-17.7,19-28.9,44-31.2,69.9
	c-8.2-21.8,2.3-44.7,16.5-62.9c2.8-3.6,6.6-6.9,7.8-11.4c1.6-5.7-2.2-9.7-5.3-14c-15.1,17.3-25.1,39-28.2,61.8
	c-7.2-13.2-7-33.9,12.6-57.9c2.7-3.3,6.2-6.9,6.4-11.4c0.3-5.1-2.6-8-5.7-11.6c-13,12.1-24.1,26.1-33,41.5
	c-7.7-9.7,4.6-22.9,18.8-37.2c2.8-2.8,6.9-5.8,7.4-10c0.5-4.1-4.6-7.2-7.2-9.9c-11.8,12.8-16.5,31.7-20,48.7
	c-15.3-12.8,9.2-43.9,11.2-50.8c1.5-5.2-2.8-9.3-6.3-12.5c-10,14.9-17.7,31.5-22.6,48.8c-12.2-14.4,17.3-42.6,16.1-52.9
	c-0.5-3.9-6.4-6.7-9.3-9C615.9,24,609.9,39.7,607.7,56c-10.6-9,0.4-25.4,8.2-40.3c1.6-3,3.2-7.2,1.5-10.6c-2-4.1-8.6-6.6-12.2-8.9
	C593.9-11,592.4-29.4,606.6-16.4z"/>
<path class="st0" d="M1129.7,391.8c2.6,2,5.6,3,8.6,4.3c-2.7-4.3-5.9-8.6-8.1-13.1c-5.1-10.5-8.7-11-20.7-18.6
	c16.9-0.2,15.6-0.8,41.3-10.8c-20.5-1.4-29.9,1.2-41.7,7c8-6.7,19-15,20.6-34.9c0,0-9.9,8.1-16,19.1c-0.5,0.8-5,7.5-7.7,14.1
	c-2.4-5.6-3.9-9.2-7.8-12.9c-8.2-7.8-20.6-14.2-20.6-14.2c4.7,8.8,11.3,17,19.4,23.8c2.5,2.1,5,3.4,7.1,5.9
	c-15.8,0.2-31.5,6.7-42.8,17.8c15.1-2.9,30.7-5.9,43.3-14.7c-1.1,2.4-2.2,4.7-2.8,7.2c-4.8,19.4-2.5,25.6-2,30.6
	c0.2,1.8-0.2,6,0.6,10.1c8.4-9.8,8.1-33.6,6.8-46.9C1118.3,376,1120,384.3,1129.7,391.8z"/>
<path class="st0" d="M278,149c-3.2,0.4-6.1,1.8-9.1,3c5,1.1,10.2,1.9,15,3.6c11.1,3.8,13.9,1.6,27.8-1.5
	c-11.8,12.1-10.4,11.6-21.5,36.8c15.5-13.6,20.3-22,24.5-34.5c-0.9,10.4-2.8,24,10.1,39.2c0,0,1.2-12.7-2.2-24.8
	c-0.3-0.9-1.8-8.8-4.5-15.4c5.6,2.3,9.3,3.7,14.7,3.6c11.3-0.3,24.6-4.5,24.6-4.5c-9.6-2.9-20-4-30.5-3.1c-3.3,0.3-5.9,1.1-9.2,0.9
	c11-11.3,17.5-27,17.7-42.8c-8.6,12.7-17.5,25.9-20.2,41c-0.9-2.4-1.8-4.9-3.1-7.1c-10.4-17.1-16.3-19.9-20.2-23
	c-1.4-1.1-4.1-4.4-7.6-6.7c0.9,12.9,18,29.5,28.4,38C297.2,152.1,290.2,147.5,278,149z"/>
<g>
	<path class="st1" d="M578.2,248.8c2.9,1.9,6.5,2.7,9.9,2.3c7.8-0.8,14.5-7.8,14.9-15.7c0.3-7.9-5.7-15.5-13.4-16.9
		C571.1,214.9,562.7,238.8,578.2,248.8z M597.7,235.5c-0.2,2.9-2.4,7.5-5.6,8c-5,0.7-5.4-7.2-4.5-10.3c0.7-2.3,2.2-4.4,4.6-5
		C596.2,227.3,598,232.2,597.7,235.5z M606.8,315.5c-1,8.4,5.2,16.3,13.2,16.9c3.8,0.3,7.8-1,11-3.5c5.4-4.2,8.1-12,6.2-18.3
		C632.7,294.8,608.9,298.4,606.8,315.5z M633.3,315c1.4,1.8,1.6,4.9,0,7.6c-1.2,2-4.4,4.8-6.9,4.8c-4.5-0.1-4.4-5.2-3.1-8.3
		C624.5,316,630.3,311.3,633.3,315z"/>
	<path class="st0" d="M528.8,147.2c-0.2-2.8-0.4-5.6-1.7-8.1c-1.3-2.5-2.9-4.5-5.7-4.2c-1.7,8.4,0.2,20.6,1.9,30.6
		c1.1,6.8,2.6,13.6,2.3,20.6c-0.1,3.5-2.6,7.4-3.8,10.7c-1.7,4.5-3.2,9.1-4.6,13.7c-2.7,8.9-5.1,17.8-6.9,26.9
		c-3.5,17-2.6,35.5,5.8,50.6c2.2,3.9,5.6,8,10.1,8.1c14.9,0.4,14.8-31.5,15.4-41.2c0.7-12.2-1.9-29.8-4.5-43.3
		c6.7,15.1,15,29.4,25.1,42.5c4.5,5.8,8.7,12.6,8.4,20.4c-0.3,6.2-2.2,13.4-3,19.5c-1.1,9.2-1.4,17,0.1,26.2c0.8,5,2,10.1,5,14.2
		c3,4.1,8.3,6.9,13.2,5.6c4-1.1,7-4.6,8.4-8.5c1.4-3.9,1.4-8.2,1.1-12.3c-0.8-12.5-6.3-31.6-13.3-44.2c14.4,7.8,36.1,13.7,53.5,13.8
		c4.6,0,10-0.7,12.4-4.6c1.9-3.3,0.8-7.8-1.8-10.6c-2.6-2.9-6.2-4.5-9.8-5.8c-10.6-3.8-21.9-5.8-33.2-6c-5.7-0.1-11.5,0.3-17.1,1.2
		c-7.7,1.2-14.2-2.5-18.8-8.7c-4.3-5.7-8.4-11.6-12.2-17.6c-9.1-14.5-15.3-28.9-21.3-47.1c15.1,10,49.6,22.3,71.1,16.5
		c4.5-1.2,9.8-3.8,10.2-8.5c0.3-3.8-2.8-7-5.9-9.2c-11.2-8-25.3-11.1-39.1-11.1c-7.5,0-15,0.8-22.5,1.9c-5.5,0.9-15,3.8-16.9-3.8
		C528.5,166.3,529.5,156.4,528.8,147.2z"/>
</g>
<g>
	<path class="st0" d="M37,18.8c21,6,10.5,10.5,24.6,35.1c6.4,11.2,15.2,21.2,25.8,28.5c3.6,2.5,10.7,5.2,14.3,1.5
		c8.6-9-11.9-41.4-35.7-55.2c22.4,9,44.3,21.2,61.1,36.8c5.8,5.4-1.5,12.3-4.9,16.6C95.5,116.1,96.4,146,105.3,150
		c4.3,1.9,9.1-1.4,12.3-4.7c15.6-15.9,21.7-52,20.3-70.1c13,14.2,22.5,26.6,30.7,41.6c3.4,6.3,6.6,12.7,9.4,19.3
		c3.1,7.1,3.1,14.5-1.6,20.7c-17,21.9-30.6,64.8-11.7,64.4c4.6-0.1,8-4.4,10.1-8.5c6.8-13.6,13.5-37.9,14.1-53.4
		c7.6,12.3,21.6,26.4,32.1,33.2c20.2,13,29.5-1,24.4-12.4c-8.2-18.2-46.2-28.6-51.2-31.1c-6.9-3.5-10.8-10.6-13.7-17.3
		c-6.5-15.1-15-29.4-24.9-42.6c11.3,10.4,23.8,19.3,35.4,26.3c8.2,4.9,36.7,18.7,43.6,5.5c2.1-4,0.2-8.9-2.2-12.8
		c-16.1-26.2-51-34.5-82.4-39.6c-3.4-0.5-8.1-0.3-11.2-1.9c-6.2-3.2-11.5-7.8-16.9-12.1c-15.6-12.5-32.8-22.6-51-30.8
		c17.4,3.1,35.6,1.2,52-5.4c3.3-1.3,6.6-2.9,8.9-5.6c2.4-2.6,3.6-6.6,2.2-9.8c-1.9-4.4-7.5-5.8-12.4-6.1C82.3-6.2,60.6,11,55.4,13.3
		c-5.2,2.3-11.9-0.3-16.9-1.9c-6.6-2.1-13.3-4-20.1-5.7C20.2,13.5,29.3,16.6,37,18.8z"/>
	<path class="st1" d="M136,138.2c-2.5,7.4,1.2,16.5,8.2,20c7,3.5,16.5,1.1,21-5.3c2-2.8,3-6.4,2.8-9.8
		C167,124.6,142,120.3,136,138.2z M156.6,152.6c-2,2.6-7.1,2.2-9.7,1c-3.1-1.4-6.4-5.3-3.7-8.3c1.7-1.9,4.2-2.1,6.6-1.6
		C153,144.4,159.7,148.6,156.6,152.6z M212.3,228.2c3.7-1.6,6.8-4.5,8.4-7.9c3.4-7.2-0.5-16.6-8.3-19.7
		c-15.9-6.5-30.7,12.4-19.1,24.2C197.9,229.4,206,230.9,212.3,228.2z M207.4,216.6c3.3,0.4,7.9,2.8,5.8,6.8
		c-1.2,2.2-5.2,3.6-7.5,3.7c-3.2,0.1-5.8-1.6-6.7-3.7C197.2,219,204.2,216.2,207.4,216.6z M133.9,48.3c6.2,9.6,22.9,8,28.2-1.5
		c9-16.1-14.6-36.8-27-19.8C130.6,33.1,129.6,41.7,133.9,48.3z M148.7,28c3.9-2.1,9.9,2.8,10.7,6.8c2.2,10.3-11.6,7.9-13.3-0.5
		C145.7,31.9,146.6,29.2,148.7,28z"/>
</g>
<g>
	<path class="st1" d="M883.6,90.2c6.9,4.7,16.3,4.5,22.3-1.6c10.4-10.6,3.6-29.5-12.5-30.8C874,56.2,869.8,80.7,883.6,90.2z
		 M892.6,73.1c-0.9-6.2,6.6-10.7,10.8-4.5C911,80.1,894.2,84.1,892.6,73.1z M810.8,87.9c7.6-2.1,12.7-9.7,13-17.5
		c0.5-11.7-12.5-21.5-22.9-19.8c-6.8,1.1-12.9,6.4-14.7,13.1C782.5,77.2,797.3,91.7,810.8,87.9z M794.7,72.8
		c4-7.1,16.6,1.1,13.1,6.9C804,86,790.9,79.6,794.7,72.8z"/>
	<path class="st0" d="M901.3,169c-7-6.2-13.6-13.1-17.1-22c-4.4-10.3-6.4-21.6-9.1-32.4c-5.1-20.4-6.4-23.2-26.6-49
		c-0.7-0.9-4.1-5.9-5.2-5.7c0.5-0.1,3.7,7.5,4.1,8.3c21.8,51.5,1.4,78.6-1.6,91.5c-0.4,1.8-0.8,3.5-1.6,5.2
		c-0.2,0.5-2.9,4.1-2.8,4.2c-2.8-6.1-3.6-12-4.7-18.5c-2.1-13.4-8.8-11.3-6.8-39.5c0.9-9,5-17.8,7.6-26.5c2.4-7.9,3.9-16.5,1.4-24.5
		c-2.4-7.6-8-13.7-13.8-19c-9.3-8.5-19.8-15.8-30.3-22.7c-5.9-3.8-12-7.4-18.3-10.6c-3.2-1.6-6.4-3.1-9.6-4.4
		c-1.7-0.7-3.4-1.4-5.1-2c-1-0.4-3.3-0.8-4-1.4c5.3,4.9,13.6,10,18.3,23.3c2.9,8.3,2.3,19.2-1.8,27c-1.7,3.3-2.6,7.4-3.9,10.9
		c-12.4-22.2-12.1-25.8-12-49.1c0-5.7-3-13.4-11.9-14.5l0.7-3.5c44.3,9.3,25-12.9,76.4-11.7c2.2,0.1,4.5,0.2,6.7,0.3
		c0.7,0,3.4,0.3,5.8,0.5c-4.6,6-11.3,9.8-17.9,13.1c-3.1,1.5-5.6,3.6-8.9,4.9c-14.9,6.1-22.2,4.8-38.4,0.2c7.6,2.2,15.3,7.3,22,11.4
		c24.6,15,25.9,11.5,50.9,8.6c35.5-4.1,35.9-0.8,69.8,9.8c4.2,1.3,8.1,3.5,11.3,6.4c-47.7,14.7-54.3,22-111.5-10.5
		C823.7,35.3,834,44,843,54c8.7,9.5,15.7,20.4,23,30.9c2,2.9,4.3,5.7,7,8.1c7,5.9,13,12.8,20.3,18.3c28,20.9,23.5,46.4,25.2,57.4
		c1,6.5,3.7,12.6,4.4,19.2C915.2,182.2,908.5,175.4,901.3,169z"/>
</g>
<path class="st2" d="M988.9,425.9c0,4.1,6.2,4.1,6.2,0C995.1,421.8,988.9,421.8,988.9,425.9z"/>
<path class="st2" d="M284.8,31.1c-4.1,0-4.1,6.2,0,6.2C288.9,37.3,288.9,31.1,284.8,31.1z M409.8,390.8c-3.4,0-6.2,2.8-6.2,6.2
	c0,3.4,2.8,6.2,6.2,6.2c3.4,0,6.2-2.8,6.2-6.2C416,393.7,413.2,390.8,409.8,390.8z M465,376.8c-4.1,0-4.1,6.2,0,6.2
	C469,383,469,376.8,465,376.8z M584.1,87c-5.5,0-10,4.6-10,10c0,5.5,4.6,10,10,10c5.5,0,10-4.6,10-10C594.1,91.5,589.5,87,584.1,87z
	 M226.7,39.4c-5.8,0-10.6,4.8-10.6,10.6c0,5.8,4.8,10.6,10.6,10.6c5.8,0,10.6-4.8,10.6-10.6C237.3,44.2,232.5,39.4,226.7,39.4z
	 M98.9,407.7c-4.8,0-4.8,7.2,0,7.2C103.7,414.9,103.7,407.7,98.9,407.7z M215.1,365.5c-5.7,0-5.7,8.7,0,8.7
	C220.8,374.2,220.9,365.5,215.1,365.5z M235.1,255.2c0,4.1,6.2,4.1,6.2,0C241.3,251.1,235.1,251.1,235.1,255.2z M621.4,147.7
	c0,4.1,6.2,4.1,6.2,0C627.6,143.6,621.4,143.6,621.4,147.7z M81.5,169.1c-2.9,0-5.3,2.4-5.3,5.3c0,2.9,2.4,5.3,5.3,5.3
	s5.3-2.4,5.3-5.3C86.8,171.5,84.4,169.1,81.5,169.1z M662.5,368.1c-4.1,0-4.1,6.2,0,6.2C666.6,374.3,666.6,368.1,662.5,368.1z
	 M1146.6,301.6c0,4.1,6.2,4.1,6.2,0C1152.8,297.5,1146.6,297.5,1146.6,301.6z M1210.7,106.3c-4.8,0-8.8,4-8.8,8.8
	c0,4.8,4,8.8,8.8,8.8c4.8,0,8.8-4,8.8-8.8C1219.5,110.3,1215.5,106.3,1210.7,106.3z M1184.6,385.9c0,8.2,12.4,8.2,12.4,0
	C1197,377.7,1184.6,377.7,1184.6,385.9z M1037.2,324.9c-3.2,0-5.8,2.7-5.8,5.8c0,3.2,2.7,5.8,5.8,5.8c3.2,0,5.8-2.7,5.8-5.8
	C1043.1,327.5,1040.4,324.9,1037.2,324.9z M781.6,406.2c-5.7,0-5.7,8.7,0,8.7C787.3,414.9,787.3,406.2,781.6,406.2z M831,210.8
	c-4.4,0-4.4,6.6,0,6.6C835.4,217.4,835.4,210.8,831,210.8z M958.8,167.9c-4,0-7.3,3.3-7.3,7.3c0,4,3.3,7.3,7.3,7.3
	c4,0,7.3-3.3,7.3-7.3C966.1,171.2,962.8,167.9,958.8,167.9z M967.5,89.2c-4.1,0-4.1,6.2,0,6.2C971.6,95.4,971.6,89.2,967.5,89.2z"/>
<rect x="31.6" y="1.1" class="st3" width="1232.9" height="448.9"/>
<g>
</g>
<g>
</g>
<g>
</g>
<g>
</g>
<g>
</g>
<g>
</g>
<g>
</g>
<g>
</g>
<g>
</g>
<g>
</g>
<g>
</g>
<g>
</g>
<g>
</g>
<g>
</g>
<g>
</g>
</svg>
