<?xml version="1.0" encoding="utf-8"?>
<!-- Generator: Adobe Illustrator 27.0.0, SVG Export Plug-In . SVG Version: 6.00 Build 0)  -->
<svg version="1.1" id="Layer_1" xmlns="http://www.w3.org/2000/svg" xmlns:xlink="http://www.w3.org/1999/xlink" x="0px" y="0px"
	 viewBox="0 0 737.7 207.2" style="enable-background:new 0 0 737.7 207.2;" xml:space="preserve">
<style type="text/css">
	.st0{clip-path:url(#SVGID_00000179635572375236114940000010945511351778262426_);fill:#124433;}
	.st1{clip-path:url(#SVGID_00000179635572375236114940000010945511351778262426_);}
	.st2{fill:#124433;}
	.st3{fill:#D5522E;}
	.st4{clip-path:url(#SVGID_00000179635572375236114940000010945511351778262426_);fill:#FFFFFF;}
</style>
<g>
	<defs>
		<rect id="SVGID_1_" x="-2.8" y="-0.7" width="743.2" height="207.9"/>
	</defs>
	<clipPath id="SVGID_00000019674514177182652880000017448733050490328755_">
		<use xlink:href="#SVGID_1_"  style="overflow:visible;"/>
	</clipPath>
	<path style="clip-path:url(#SVGID_00000019674514177182652880000017448733050490328755_);fill:#124433;" d="M422.8-25
		c0.2,1.8,0.8,5.8,0.9,6.4c2.8,14.6,1.7,24,7.2,33.8c8.1,14.2,21.6,6.3,16.1-3.8c-3.7-6.7-16.4-11.4-19.7-23.8
		c-4.4-16.8-1-17.6,1.3-26.2c3.5-12.9-0.9-16.3-1.6-13.9c-0.6,1.9,0.2,4.4,0.3,6.4c0,5.2-3,9.6-9.2,11.7c-4.2,1.4-8,0.8-12.2,0.2
		c-5.1-0.8-12.5-1.5-17.1,1.3c-4.9,3-5.1,9,0.2,11.7c5,2.5,15.3,1.5,24-6.8c5.6-5.3,7.1-4.3,12.1-7.8c-3.8,11.6-11,21.5-20.9,28.1
		c-7.3,4.8-14.6,3.8-20.3,3c-27.1-3.8-26.2,22.2-9.2,18.4c9.7-2.2,16.3-11.1,24.6-15.8c5.2-3,12.7-7.4,16.6-12.5
		c-0.6,9.5,0.3,19.3-11.5,28c-5.8,4.3-12.3,7.7-17.3,12.9c-9.5,9.7-1.8,16.2,4.4,15.6c15.8-1.6,18.4-19.1,22.2-31.2
		c1.8-5.5,3.4-9.3,4.4-20.6C418.9-19.7,420.2-20.5,422.8-25z M409.1,13.9c-1.7,15-11.9,20.8-14.3,17
		C391.8,26.3,405.3,17.9,409.1,13.9z M390.8-0.1C383.2,8,374.3,8.6,374,4.4C373.7,0.7,380.3-1.8,390.8-0.1z M410.9-30.2
		c-13.3,10.6-20.5,3.8-14.5,0.1C400.6-32.7,406.5-31,410.9-30.2z M430.1,0.8c3.8,1.4,11.1,7.5,10.2,12c-0.3,1.7-1.8,2.7-3.4,2.2
		C433.9,14,430.4,9.1,430.1,0.8z"/>
	<path style="clip-path:url(#SVGID_00000019674514177182652880000017448733050490328755_);fill:#124433;" d="M204-83.3
		c1.3,2.8,3.1,5.8,3.7,8.9c0.5,2.5-0.9,4.3-2.2,6.3c-3.8,5.9-8.5,14.8-2.7,18.7c-0.1-7.3,2.3-14.7,6.6-20.6c1.1,2.9,3,5.5,1.5,8.6
		c-1.4,3-8.9,9.7-5,14c2.5-4.5,4.9-9,7.4-13.5l0-0.1c0.9,1.9,2.1,3.3,1.9,5.5c-0.3,3.1-4.8,6.6-6.2,11.2c-0.7,2.2-0.4,4.8,1.3,6.4
		c1.6-5.3,4.1-10.2,7.4-14.6c1,1.8,2,3.5,2.5,5.6c0.5,2.2,0,4.4-0.2,6.6c-0.9,9.1-1.2,19.6,4.7,23.9c-2-8.6-2.3-17.6-1-26.3
		c1.5,2.3,3.4,4.1,3.1,7c-0.2,2.4-1.3,4.6-1.7,7c-0.9,5.3-1.4,16.3,3.8,18.6c-2-8.1-1.8-16.7,0.6-24.7c1.7,2.3,3.5,4.1,3.4,7.1
		c-0.1,2.5-1.1,4.8-1.5,7.3c-1.4,8.4-2.1,22.5,6.1,24.9c-5-9.4-5.4-21.1-1.1-30.9c1.4,1.6,3.1,3.1,3.6,5.3c0.4,2.1-0.5,4.2-1,6.2
		c-0.9,3.1-1.5,6.2-1.5,9.4c-0.1,6.1,2.3,12.5,7.4,15.8c-4.4-9.2-5-20.1-1.8-29.7c1.9,1.9,4.2,3,4.7,8.1c0.3,3.1-0.3,6.2-0.1,9.4
		c0.4,6.3,3.2,21.4,9.4,20.1c-5.5-8.8-7.5-19.7-5.4-29.8c2.2,1.9,4.5,2.9,5.3,5.9c0.8,3.1,0.3,6.3,0.2,9.4
		c-0.1,4.7,0.1,15.6,2.4,19.7c1,1.8,3.4,4.1,5.5,4.2c-4.7-10-6.4-21.5-4.8-32.4c1.8,1.2,3.6,2.2,4.9,4c1.5,2,1.3,4.1,1.5,6.4
		c1.3,13.2,11.8,29,18.3,24.9c-9.2-6.8-15-17.9-15.5-29.3c1.6,0.9,3.6,1.7,4.9,3c3.6,3.6,4.2,8.6,6,13.2c2.2,5.5,8.8,19.8,14.3,17.2
		c-6.5-8-11.3-17.4-14.1-27.3c2,0.9,4.1,1.6,5.6,3.3c1.3,1.5,2,3.5,2.9,5.3c4.8,10.6,16.9,24.8,24.3,23.6c-6-6-17.7-16.3-22.1-27.5
		c2.1,0.8,4.7,1.4,6.3,3.1c2.1,2.4,7,21,20.4,27.9c-0.1-2.4-1.6-4.6-3.3-6.3c-5.8-5.8-9.6-13-11.4-20.6c2.3,0.7,4.1,1,5.5,3.1
		c1.1,1.8,8.3,20.4,23.8,22.9c-6.4-8.8-14-10.4-19.6-23.2c12.1,2.7,10.1,3.5,17.1,9.1c3.1,2.5,10.3,8.8,16,6.1
		c-0.3,0.1-2.2-1.4-2.5-1.6c-7.5-4.9-11.1-8.1-19.2-12.2c7.6,1.3,22.8,4,30,1.7c-4.6-2.9-7.5-2.8-25.7-4.1
		c12.4-1.7,13.7-1.6,19.6-3.8c-2.7-1-3-2.5-18.3,0.4c-3.7,0.7-8.3,2.2-12.2,1.4c-2.1-0.5-4.3-0.9-6.4-1.4c15-3.1,20.3-0.6,29.8-1.5
		c-6.9-7.2-20.3-3.8-30-1.2c-3.4,0.9-4.3,1.7-8.2,0.5c0,0,13.5-7.1,31.7-7.9c-1.6-2.7-5.3-3.2-8.4-2.9C310,2.5,303.9,11.4,296.6,10
		c-0.7-0.1-3.1-1-4.5-1.6c12.4-9.1,23.5-8.8,31.8-9.9c-2.4-2.1-4.9-3.1-8-2.9C311-4,301.7-0.3,297.2,1.9c-2.8,1.4-5.9,3.8-9.1,4.1
		c-2.9,0.3-6-1.7-8.5-2.8c4.9-1.2,15.2-8,33.5-8.3c-2.1-3.8-7-3.5-11.2-2.5C278.9-2,282,4.7,271.3-1.7c9.9-4.5,20.5-7.3,31.4-8.1
		c-1-2-3.2-3.1-5.4-3.3c-4.2-0.4-15,3.8-18.8,5.4c-3.4,1.4-7.6,4.1-11.4,3.1c-1.7-0.4-3.3-1.9-4.7-2.9c7.6-5.1,17.3-7.1,26.3-5.3
		c-3.3-8.2-15.7-3.3-23.4,0.7c-6.6,3.4-6.3,2.3-11.7-2.1c9.7-5.9,21.1-8.9,32.4-8.6c-9.6-7.9-30.5,4.8-34.7,4.5
		c-2.7-0.1-4.4-1.9-6.2-3.7c9.7-4.1,21.1-4.1,31.5-2.4c-4.8-10-29.3-1.1-31.6-1c-1.2,0.1-2.8,0-3.8-0.7c-1.1-0.8-2.1-2.3-3-3.3
		c10.7-5,23-6.5,34.5-3.9c-8.3-6.5-19.6-5.1-29.5-1.5c-1.9,0.7-3.9,1.9-6,1.8c-2.7-0.1-3.9-2.3-5.4-4.2c9.6-4.2,20.3-5.5,30.6-3.7
		c-4.7-4.9-13.7-7.7-26.7-2.5c-1.8,0.7-3.8,1.7-5.8,1.2c-2.2-0.6-3.1-2.2-4.3-4c7-3.9,14.6-6.9,22.5-8.6c-3.2-4.6-10.5-1.1-18.7,3
		c-1.6,0.8-3.4,2.2-5.3,1.8c-1.9-0.4-2.5-3-3.3-4.5c7.2-3.3,16-2.8,23.8-2c-3.4-8.4-20.3-2-23.5-2.1c-2.5-0.1-3.6-2.5-4.5-4.5
		c7.8-2.3,16-3.3,24.2-3.1c-4.6-7.2-20.8,1.6-25.1-0.3c-1.6-0.7-2-3.7-2.6-5.3c7.2-2.1,14.8-2.5,22.1-1.3c-2.4-5.8-11-3.3-18.5-2
		c-1.5,0.3-3.6,0.4-4.8-0.8c-1.5-1.4-1.7-4.6-2.2-6.5C208.1-88,200.4-91.2,204-83.3z"/>
	<g style="clip-path:url(#SVGID_00000019674514177182652880000017448733050490328755_);">
		<path class="st2" d="M508.3,34.4c-1.2-1.3-2.9-2.5-4.8-2.9c-1.3-0.2-3.2-0.5-3.2-2.1c0-1.4,1.1-2.2,2-3.2c3.9-4.4,3-11.5-2.6-14.5
			c-1.7-0.9-3.5-1.2-5-2.4C492.2,7,491,3.4,489,0.7c-2.4-3.3-4.8-6.5-7.8-9.4c-3.2-3.1-6.7-5.3-10.9-8.1c5.4,1.1,10.3,4.1,15.5,5.8
			c3.9,1.3,8.4,1.1,12.5,0.2c5.8-1.4,11.6-3.3,17.5-4.1c-2.4-0.9-4.7-1.8-7.3-2.2c-2.8-0.5-5.7-1.5-8.3-2.6
			c-3.4-1.4-7.3-2.2-11.1-1.8c-4.3,0.4-8.6,1-13,1.6c-2.4,0.3-4.8,0.4-7.3,0.4c-2.4-0.1-4.7-0.9-7-1.8c-9.2-3.5-18.7-6.2-28.4-8
			c-0.3,1.5,0.7,2.9,2,3.6c1.3,0.7,2.9,0.8,4.4,0.9c5.8,0.5,11.6,1.8,17.1,3.7c1.2,1.1,2.2,2.4,2.5,3.9c0.7,3.1-0.1,6.4-0.2,9.5
			c-0.1,2.1,0.1,4.3,0.4,6.4c0.3,1.8,0.8,3.6,1.4,5.4c1.4,4,1.1,8.1,2.8,12.1c1.1-1.9,2.3-4.9,2.6-5.8c0.6-1.7,1-3.3,1.2-5.1
			c0.4-3.9,1.5-7.4,0.8-11.4c-0.5-3-2.6-6.5-4.2-9c-1.1-1.8-2.3-3.3-3.6-4.6c2.4,1,4.8,2.2,7.1,3.5c8,4.5,15,10.7,20,18.5
			c1.8,2.8,4.3,7.3,1.9,10.4c-2.1,2.7-3.3,5.7-2.5,9.3c1.9,8.2,10,6.9,5.2,12.7c-2.8,3.4-2.5,5.5-2.8,8.9c6.2-3.9,3.8-7.8,5.8-11.3
			c0.3,0.7,0.7,3,0.7,4.2c0.2,3.7,1.7,4.8,3.3,6.6c0,0,0.6-1.4,0.5-2.9c-0.2-3.6-3.2-5.8-2.9-8.2c1,0.6,1.8,2.1,2.4,3.1
			c0.9,1.5,2.1,3.8,7,5.8c0,0-0.8-2.7-3.2-5.2c-1.4-1.5-3.7-2.6-4.6-4.5c2.2,0.3,3.3,2.1,4.7,2.9C504.9,34.7,507,34.6,508.3,34.4z"
			/>
		<path class="st2" d="M466.9-28c2.3-2,4.3-4.8,6.4-6.9c1.2-1.2,2.5-2.3,3.6-3.6c0.5-0.6,1.8-3,2.4-3.2c-2.5,0.5-5.3,1-7.6,2.2
			c-2.4,1.2-4.8,1.6-7.3,2.5c-2.8,1.1-5.4,2.5-7.5,4.7c-1.8,2-3.2,4.2-5.1,6c-3.1,2.8-7.4,2.9-11.4,3.1c1.1-0.1,2.7,0.7,3.9,0.8
			c1.5,0.2,3,0.3,4.6,0.2c2.9-0.1,5.7-0.8,8.5-1.5c2.9-0.7,6-1.8,8.4-3.6C466.2-27.5,466.6-27.7,466.9-28z"/>
	</g>
	<g style="clip-path:url(#SVGID_00000019674514177182652880000017448733050490328755_);">
		<path class="st3" d="M678.1,23.9c-3.7-1-7.7,1.3-8.4,4.8c-0.4,1.7-0.1,3.6,0.9,5.2c1.5,2.7,4.9,4.4,7.8,4
			C685.7,36.9,685.6,26,678.1,23.9z M676.6,35.8c-0.9,0.5-2.3,0.4-3.4-0.5c-0.8-0.7-1.9-2.3-1.7-3.4c0.3-2,2.6-1.6,3.9-0.9
			C676.7,31.8,678.5,34.7,676.6,35.8z M709.9,15.4c-1,1.2-1.6,2.7-1.7,4.3c-0.2,3.6,2.6,7,6.1,7.7c3.5,0.7,7.3-1.6,8.5-4.9
			C725.5,14.3,715.4,9,709.9,15.4z M714.6,25c-1.3-0.3-3.2-1.5-3.2-3c0-2.3,3.6-2,4.9-1.3c1,0.5,1.8,1.3,1.9,2.4
			C718.4,24.8,716.1,25.3,714.6,25z"/>
		<path class="st2" d="M764.7-2.8c-3.6-1.3-9.3-1.2-13.9-1.1c-3.1,0.1-6.3,0.3-9.4-0.3c-1.5-0.3-3.2-1.7-4.5-2.4
			c-1.9-1-3.9-2-5.9-2.9c-3.8-1.8-7.7-3.4-11.6-4.8c-7.4-2.6-15.8-3.5-23.1-0.6c-1.9,0.7-3.9,2-4.3,4c-1.1,6.7,13.2,8.7,17.5,9.6
			c5.4,1.1,13.5,1.1,19.7,0.7c-7.2,2-14.2,4.9-20.7,8.5c-2.9,1.6-6.2,3.1-9.7,2.5c-2.8-0.5-5.9-1.9-8.6-2.6c-4-1.1-7.6-1.7-11.8-1.6
			c-2.3,0-4.7,0.2-6.7,1.3c-2,1.1-3.6,3.3-3.4,5.6c0.2,1.9,1.6,3.4,3.3,4.3c1.7,0.9,3.6,1.1,5.5,1.3c5.7,0.4,14.6-0.8,20.7-3.1
			c-4.4,6-8.5,15.3-9.6,23.1c-0.3,2.1-0.3,4.5,1.3,5.8c1.4,1.1,3.4,0.9,4.9-0.1c1.5-1,2.4-2.5,3.2-4.1c2.4-4.5,4-9.5,4.8-14.5
			c0.4-2.6,0.6-5.2,0.6-7.8c0-3.5,2-6.2,5.1-7.9c2.8-1.6,5.7-3,8.7-4.3c7.1-3.2,14-5,22.5-6.6c-5.5,6.1-13.2,20.9-12,30.9
			c0.3,2.1,1.1,4.6,3.1,5.1c1.7,0.4,3.3-0.8,4.5-2.1c4.3-4.5,6.6-10.7,7.5-16.8c0.5-3.4,0.6-6.8,0.6-10.2c0-2.5-0.8-7,2.8-7.3
			c4.2-0.4,8.5,0.7,12.7,1c1.3,0.1,2.6,0.2,3.8-0.2C763.6-1,764.6-1.6,764.7-2.8z"/>
	</g>
	<g style="clip-path:url(#SVGID_00000019674514177182652880000017448733050490328755_);">
		<path class="st2" d="M492.7-14.7c1.2-0.2,2.3,0.2,3.4,0.7c0.2,0.1,13.9,4.3,14.8,4.6c2.8,0.9,4.8,1.8,7.6,0.9
			c8.2-2.5,15.2-18.4,34.9-19.1c2-0.1,11.3,0.7,11.7,0.7c2.3-0.2,4.6-1,6.9-0.7c-1.6,2-3.1,4-5,5.7c-1,1-2.3,1.6-3.3,2.6
			c-5.7,5.6-16.4,16.2-40.5,14.2c3.5,0.3,7.5,2.5,10.7,3.7c16.5,6.4,16.6,7.7,20.3,7c8.7-1.7,14-9.8,28-12.4
			c1.2-0.2,2.4-0.2,3.6-0.4c1.5-0.3,2.8-1,4.2-1.4c1.3-0.4,2.8-0.4,4.2-0.5c-1.1,1.4-2.1,2.9-3.4,4.1c-1.4,1.4-2.9,2.7-4.4,3.9
			c-6.7,5.2-11.2,10.6-31.1,9c19.6,7.2,28.9,18.4,38.3,14.5c11.9-4.9,19.1-14.3,31.7-14c3.8,0.1,7.5,1.3,11.3,1.6c2.7,0.3,5.2-1,8,0
			c-2.4,1.8-4.9,3.5-7.4,5.2c-1.7,1.1-3.3,2.4-4.8,3.8c-5.9,5.5-14.3,8.5-22.3,9.3c-6.4,0.7-12.8-0.8-19.1-1.9
			c4.2,3,8.6,5.7,12.8,8.6c2.8,1.9,6,5.2,9.3,6.2c7.5,2.3,15.4-3.8,25.5-3.2c2.6,0.1,5.4,1.3,7.9,1.9c2.4,0.6,4.9,1,7.1,2.2
			c-3.4,1.5-6.9,3-10.3,4.5c-5.3,2.3-18.5,2.1-26.7-2.6c2.5,1.6,4.8,3.9,7.1,5.7C636.3,60.3,636.4,62,640.9,63
			c11.2,2.4,22.1-4.8,32.7-7c5.3-1.1,10.3,1,15.6,1.3c3.9,0.2,8.5-0.8,12,1.3c-19,15.5-32.6,19.7-58.1,8.6c7.4,8.3,15,16.3,22,25
			c4.9,6.1,15.3,2.9,22.1,3.6c8.8,0.9,9.8,4.8,15.5,6.3c1.4,0.4,2.6,1.3,3.9,2.1c-0.2-0.1-1.7,0.5-2,0.5c-2.2,0.4-4.7,0.2-6.9,0.5
			c-11.2,1.9-16.3,0.7-29.1-8.5c1.7,2.4,3.3,4.8,4.9,7.2c9.3,13.9,14.1,24.8,21.7,24.1c2.9-0.3,5.4-1.5,8.1-2.2
			c7.1-1.8,15.8,0.5,17.9,0.7c1.5,0.1,3.3,0.4,4.6,0.9c-1.6,1-3.3,1.5-5.1,2.1c-0.6,0.2-7.4,4.1-10.2,5c-8.8,2.9-13.4-1.2-19.6-4.3
			c2.2,2.4,4.2,4.9,7,6.7c19.9,13.4,21.7,32.7,24.4,47.4c-2.3-0.9-4.1-2.7-5.6-4.6c-1.5-1.9-2.9-4-4.6-5.7c-3.5-3.6-13.6-8-19-26.5
			c-1.5-5.1-3-10.2-4.6-15.2c-1.6,9.1,0.6,19.3-11.2,28.6c-14.1,11.1-1.2,1.8-14.4,11.9c-0.4-2.8,0.4-5.7,1.4-8.4
			c3.3-9,1.8-7,3-11.3c1.3-4.6,4.2-8.6,7.6-11.8c5.9-5.5,9.3-5.1,10.7-10.9c0.8-3.4-1.1-7.4-12.7-24.7c2.5,10.1,3.4,18.5-3.8,28.7
			c-1.9,2.7-2.3,5.1-7.2,10.3c-0.7-3.9,0.7-15.3,1.1-17.3c2.6-14.5,13.2-16.5,5-29.3c-1.1-1.7-9.3-11.8-15.8-19
			c5,10.3,7.8,24.5,3.2,36.5c-0.8,2-6.4,12.6-11.5,20.1c-1.9-12.3-3.7-25.3,0.5-37c2.9-8.1,8.6-15.4,3.2-23.9
			c-1.4-2.3-7.6-8.2-9.7-10.3c-2-2-7.3-6.4-8.1-7.9c1.4,2.8,2.6,5.7,3.6,8.7c1.7,5.2,3.4,7.6,0.6,18c-0.8,3.1-1.6,6.1-2.7,9.1
			c-1-1.7-1.8-3.5-2.2-5.5c-0.6-3.2-1.6-6.2-2.9-9.2c-3.2-7.9,4.6-20.8-1.8-25.3c-5.2-3.7-7.3-6.5-21.9-16.5
			c-0.5-0.4-10.5-6.9-11-7.4c6,6.7,17.1,15.4,18.7,36.3c0.4,4.7,0.6,9.5,0.5,14.2c-3.2-2-4.3-6.1-6.8-9.1c-1.4-1.7-3.1-3-4.6-4.6
			c-3.2-3.5-5.4-5.2-8.9-16.2c-2.5-7.8,0.6-14-4-22.2c-1.7-3.1-4.9-4.2-8-5.9c-9.4-5.2-19.8-10.4-31.2-15.4
			c-16.3-7.1-29.3-11.1-29.3-11.1c6,6.2,10.7,15.7,9.1,24.1c-0.3,1.7-1.2,3.4-1.6,5.2c-0.4,1.4-0.7,2.8-1,4.3
			c-0.2,1.3-0.7,2.6-1.1,3.7c-1.4-2.9-2.7-5.8-4.1-8.6c-4.7-10-2.1-11.6-1.7-22.4c0.3-8-8.2-9.4-14.3-11.2c-4.1-1.2-8.5-1.9-12.8-2
			C490.5-13.5,491.6-14.5,492.7-14.7z"/>
		<g>
			<path class="st3" d="M569,34.7c-8-2.4-12.9,7.8-7.9,13.4c2.8,3.1,7.8,3.8,11.1,0.8C576.5,44.9,574.7,36.3,569,34.7z M569.9,46
				c-2.9-0.1-3-6.4,0.4-6.2C573.6,39.9,573,46,569.9,46z M543.7,74.4c-2.9,6.1,2.6,12.6,8.7,11c2.8-0.7,5.1-3.4,5.3-6.3
				C558.2,71.5,547.6,66.1,543.7,74.4z M550.5,81c-1.2,2.7-4,1.3-5-0.6c-1.4-2.8,1.8-4.6,3.9-3C550.5,78.2,551.1,79.7,550.5,81z"/>
			<path class="st2" d="M565.8,59c-3-0.8-6.2-2-8.5-4.3c-2.4-2.4-3.5-5.7-4.2-8.9c-4.1-20.2,0.3-33.6,0.1-34.3
				c0.6,3,0.5,7.1,4.3,11.8c2.3,2.9,6.4,5.1,10.1,5.4c1.6,0.1,3.2,0.7,4.8,1.1c-5.2-9.4-6.5-10.1-14.9-15.3
				c-2.1-1.3-4.1-4.1-2.5-7.5l-1.4-0.5c-6.6,17.9-10.2,6.1-21.3,24.8c-0.5,0.8-0.9,1.6-1.4,2.5c-0.1,0.3-0.7,1.3-1.1,2.2
				c3.2-0.3,6-1.8,8.7-3.5c1.2-0.8,2.5-1.2,3.7-2.1c5.5-4,6.7-6.9,8.7-13.7c-0.9,3.2-0.8,7.1-0.8,10.4c-0.1,12.1-1.7,11.8-8.3,20.1
				c-9.4,11.8-8.3,12.7-12.1,27.2c-0.5,1.8-0.5,3.7-0.2,5.5c15.9-13.8,20-14.6,21.1-42.3c2.8,26.1,10.6,28,12.3,47.6
				c1.2,14.7,11.4,18.8,14.9,21.8c2.1,1.8,3.7,4.1,5.9,5.9c-0.3-4-1.3-8-1.9-12c-0.7-3.9-1.6-7.8-4-11c-2.7-3.9-6.3-7.1-9.6-10.5
				c-6.2-6.4-6.9-7.5-11.6-20.5c-0.2-0.4-1.2-2.8-0.9-3.2c-0.1,0.1,1.8,3,2,3.3c13.6,19.3,27.8,18.1,33.1,19.9
				c0.7,0.2,1.4,0.5,2.2,0.6c0.2,0,2.1-0.1,2.1-0.1c-1.5-2.4-3.5-4-5.6-5.8c-4.3-3.8-2.1-5.7-12.6-11.3
				C573.6,60.5,569.5,60,565.8,59z"/>
		</g>
	</g>
	<g style="clip-path:url(#SVGID_00000019674514177182652880000017448733050490328755_);">
		<path class="st3" d="M59.4,37.9c3,0.4,6.3-1.3,7.8-4c0.9-1.6,1.2-3.5,0.9-5.2c-0.8-3.5-4.8-5.8-8.4-4.8C52,26,51.9,36.9,59.4,37.9
			z M62.2,31.1c1.3-0.8,3.6-1.1,3.9,0.9c0.2,1.1-0.9,2.7-1.7,3.4c-1.1,0.9-2.5,1-3.4,0.5C59.2,34.7,60.9,31.8,62.2,31.1z M14.9,22.4
			c1.1,3.4,5,5.6,8.5,4.9c3.5-0.7,6.3-4.1,6.1-7.7c-0.1-1.6-0.7-3.1-1.7-4.3C22.3,9,12.1,14.3,14.9,22.4z M19.5,23
			c0.1-1.1,0.9-1.9,1.9-2.4c1.3-0.6,4.9-0.9,4.9,1.3c0,1.5-1.9,2.7-3.2,3C21.6,25.3,19.3,24.8,19.5,23z"/>
		<path class="st2" d="M-27-2.8c3.6-1.3,9.3-1.2,13.9-1.1c3.1,0.1,6.3,0.3,9.4-0.3c1.5-0.3,3.2-1.7,4.5-2.4c1.9-1,3.9-2,5.9-2.9
			c3.8-1.8,7.7-3.4,11.6-4.8c7.4-2.6,15.8-3.5,23.1-0.6c1.9,0.7,3.9,2,4.3,4c1.1,6.7-13.2,8.7-17.5,9.6C22.8-0.3,14.8-0.4,8.5-0.7
			c7.2,2,14.2,4.9,20.7,8.5c2.9,1.6,6.2,3.1,9.7,2.5c2.8-0.5,5.9-1.9,8.6-2.6c4-1.1,7.6-1.7,11.8-1.6c2.3,0,4.7,0.2,6.7,1.3
			c2,1.1,3.6,3.3,3.4,5.6c-0.2,1.9-1.6,3.4-3.3,4.3c-1.7,0.9-3.6,1.1-5.5,1.3c-5.7,0.4-14.6-0.8-20.7-3.1c4.4,6,8.5,15.3,9.6,23.1
			c0.3,2.1,0.3,4.5-1.3,5.8c-1.4,1.1-3.4,0.9-4.9-0.1c-1.5-1-2.4-2.5-3.2-4.1c-2.4-4.5-4-9.5-4.8-14.5c-0.4-2.6-0.6-5.2-0.6-7.8
			c0-3.5-2-6.2-5.1-7.9c-2.8-1.6-5.7-3-8.7-4.3c-7.1-3.2-14-5-22.5-6.6c5.5,6.1,13.2,20.9,12,30.9c-0.3,2.1-1.1,4.6-3.1,5.1
			c-1.7,0.4-3.3-0.8-4.5-2.1C-1.7,28.6-4,22.4-4.9,16.3c-0.5-3.4-0.6-6.8-0.6-10.2c0-2.5,0.8-7-2.8-7.3c-4.2-0.4-8.5,0.7-12.7,1
			c-1.3,0.1-2.6,0.2-3.8-0.2C-25.9-1-26.9-1.6-27-2.8z"/>
	</g>
	<g style="clip-path:url(#SVGID_00000019674514177182652880000017448733050490328755_);">
		<path class="st2" d="M244.9-14.7c-1.2-0.2-2.3,0.2-3.4,0.7c-0.2,0.1-13.9,4.3-14.8,4.6c-2.8,0.9-4.8,1.8-7.6,0.9
			c-8.2-2.5-15.2-18.4-34.9-19.1c-2-0.1-11.3,0.7-11.7,0.7c-2.3-0.2-4.6-1-6.9-0.7c1.6,2,3.1,4,5,5.7c1,1,2.3,1.6,3.3,2.6
			c5.7,5.6,16.4,16.2,40.5,14.2c-3.5,0.3-7.5,2.5-10.7,3.7c-16.5,6.4-16.6,7.7-20.3,7c-8.7-1.7-14-9.8-28-12.4
			c-1.2-0.2-2.4-0.2-3.6-0.4c-1.5-0.3-2.8-1-4.2-1.4c-1.3-0.4-2.8-0.4-4.2-0.5c1.1,1.4,2.1,2.9,3.4,4.1c1.4,1.4,2.9,2.7,4.4,3.9
			c6.7,5.2,11.2,10.6,31.1,9c-19.6,7.2-28.9,18.4-38.3,14.5C132.2,17.5,125,8,112.4,8.4c-3.8,0.1-7.5,1.3-11.3,1.6
			c-2.7,0.3-5.2-1-8,0c2.4,1.8,4.9,3.5,7.4,5.2c1.7,1.1,3.3,2.4,4.8,3.8c5.9,5.5,14.3,8.5,22.3,9.3c6.4,0.7,12.8-0.8,19.1-1.9
			c-4.2,3-8.6,5.7-12.8,8.6c-2.8,1.9-6,5.2-9.3,6.2c-7.5,2.3-15.4-3.8-25.5-3.2c-2.6,0.1-5.4,1.3-7.9,1.9c-2.4,0.6-4.9,1-7.1,2.2
			c3.4,1.5,6.9,3,10.3,4.5c5.3,2.3,18.5,2.1,26.7-2.6c-2.5,1.6-4.8,3.9-7.1,5.7C101.4,60.3,101.3,62,96.7,63
			c-11.2,2.4-22.1-4.8-32.7-7c-5.3-1.1-10.3,1-15.6,1.3c-3.9,0.2-8.5-0.8-12,1.3c19,15.5,32.6,19.7,58.1,8.6c-7.4,8.3-15,16.3-22,25
			c-4.9,6.1-15.3,2.9-22.1,3.6c-8.8,0.9-9.8,4.8-15.5,6.3c-1.4,0.4-2.6,1.3-3.9,2.1c0.2-0.1,1.7,0.5,2,0.5c2.2,0.4,4.7,0.2,6.9,0.5
			c11.2,1.9,16.3,0.7,29.1-8.5c-1.7,2.4-3.3,4.8-4.9,7.2c-9.3,13.9-14.1,24.8-21.7,24.1c-2.9-0.3-5.4-1.5-8.1-2.2
			c-7.1-1.8-15.8,0.5-17.9,0.7c-1.5,0.1-3.3,0.4-4.6,0.9c1.6,1,3.3,1.5,5.1,2.1c0.6,0.2,7.4,4.1,10.2,5c8.8,2.9,13.4-1.2,19.6-4.3
			c-2.2,2.4-4.2,4.9-7,6.7c-19.9,13.4-21.7,32.7-24.4,47.4c2.3-0.9,4.1-2.7,5.6-4.6c1.5-1.9,2.9-4,4.6-5.7c3.5-3.6,13.6-8,19-26.5
			c1.5-5.1,3-10.2,4.6-15.2c1.6,9.1-0.6,19.3,11.2,28.6c14.1,11.1,1.2,1.8,14.4,11.9c0.4-2.8-0.4-5.7-1.4-8.4c-3.3-9-1.8-7-3-11.3
			c-1.3-4.6-4.2-8.6-7.6-11.8c-5.9-5.5-9.3-5.1-10.7-10.9c-0.8-3.4,1.1-7.4,12.7-24.7c-2.5,10.1-3.4,18.5,3.8,28.7
			c1.9,2.7,2.3,5.1,7.2,10.3c0.7-3.9-0.7-15.3-1.1-17.3c-2.6-14.5-13.2-16.5-5-29.3c1.1-1.7,9.3-11.8,15.8-19
			c-5,10.3-7.8,24.5-3.2,36.5c0.8,2,6.4,12.6,11.5,20.1c1.9-12.3,3.7-25.3-0.5-37c-2.9-8.1-8.6-15.4-3.2-23.9
			c1.4-2.3,7.6-8.2,9.7-10.3c2-2,7.3-6.4,8.1-7.9c-1.4,2.8-2.6,5.7-3.6,8.7c-1.7,5.2-3.4,7.6-0.6,18c0.8,3.1,1.6,6.1,2.7,9.1
			c1-1.7,1.8-3.5,2.2-5.5c0.6-3.2,1.6-6.2,2.9-9.2c3.2-7.9-4.6-20.8,1.8-25.3c5.2-3.7,7.3-6.5,21.9-16.5c0.5-0.4,10.5-6.9,11-7.4
			c-6,6.7-17.1,15.4-18.7,36.3c-0.4,4.7-0.6,9.5-0.5,14.2c3.2-2,4.3-6.1,6.8-9.1c1.4-1.7,3.1-3,4.6-4.6c3.2-3.5,5.4-5.2,8.9-16.2
			c2.5-7.8-0.6-14,4-22.2c1.7-3.1,4.9-4.2,8-5.9c9.4-5.2,19.8-10.4,31.2-15.4c16.3-7.1,29.3-11.1,29.3-11.1
			c-6,6.2-10.7,15.7-9.1,24.1c0.3,1.7,1.2,3.4,1.6,5.2c0.4,1.4,0.7,2.8,1,4.3c0.2,1.3,0.7,2.6,1.1,3.7c1.4-2.9,2.7-5.8,4.1-8.6
			c4.7-10,2.1-11.6,1.7-22.4c-0.3-8,8.2-9.4,14.3-11.2c4.1-1.2,8.5-1.9,12.8-2C247.2-13.5,246.1-14.5,244.9-14.7z"/>
		<g>
			<path class="st3" d="M165.5,48.9c3.3,3,8.3,2.3,11.1-0.8c5-5.6,0.2-15.8-7.9-13.4C163,36.3,161.1,44.9,165.5,48.9z M167.3,39.7
				c3.4-0.2,3.3,6.2,0.4,6.2C164.7,46,164,39.9,167.3,39.7z M180,79.2c0.2,2.9,2.5,5.6,5.3,6.3c6.1,1.6,11.6-4.9,8.7-11
				C190.1,66.1,179.5,71.5,180,79.2z M188.2,77.3c2.1-1.6,5.3,0.2,3.9,3c-1,2-3.7,3.4-5,0.6C186.6,79.7,187.1,78.2,188.2,77.3z"/>
			<path class="st2" d="M171.8,59c3-0.8,6.2-2,8.5-4.3c2.4-2.4,3.5-5.7,4.2-8.9c4.1-20.2-0.3-33.6-0.1-34.3c-0.6,3-0.5,7.1-4.3,11.8
				c-2.3,2.9-6.4,5.1-10.1,5.4c-1.6,0.1-3.2,0.7-4.8,1.1c5.2-9.4,6.5-10.1,14.9-15.3c2.1-1.3,4.1-4.1,2.5-7.5l1.4-0.5
				c6.6,17.9,10.2,6.1,21.3,24.8c0.5,0.8,0.9,1.6,1.4,2.5c0.1,0.3,0.7,1.3,1.1,2.2c-3.2-0.3-6-1.8-8.7-3.5c-1.2-0.8-2.5-1.2-3.7-2.1
				c-5.5-4-6.7-6.9-8.7-13.7c0.9,3.2,0.8,7.1,0.8,10.4c0.1,12.1,1.7,11.8,8.3,20.1c9.4,11.8,8.3,12.7,12.1,27.2
				c0.5,1.8,0.5,3.7,0.2,5.5c-15.9-13.8-20-14.6-21.1-42.3c-2.8,26.1-10.6,28-12.3,47.6c-1.2,14.7-11.4,18.8-14.9,21.8
				c-2.1,1.8-3.7,4.1-5.9,5.9c0.3-4,1.3-8,1.9-12c0.7-3.9,1.6-7.8,4-11c2.7-3.9,6.3-7.1,9.6-10.5c6.2-6.4,6.9-7.5,11.6-20.5
				c0.2-0.4,1.2-2.8,0.9-3.2c0.1,0.1-1.8,3-2,3.3c-13.6,19.3-27.8,18.1-33.1,19.9c-0.7,0.2-1.4,0.5-2.2,0.6c-0.2,0-2.1-0.1-2.1-0.1
				c1.5-2.4,3.5-4,5.6-5.8c4.3-3.8,2.1-5.7,12.6-11.3C164.1,60.5,168.1,60,171.8,59z"/>
		</g>
	</g>
	<path style="clip-path:url(#SVGID_00000019674514177182652880000017448733050490328755_);fill:#FFFFFF;" d="M245,42.4
		c-2.2,0-4,1.8-4,4c0,2.2,1.8,4,4,4s4-1.8,4-4C249,44.2,247.2,42.4,245,42.4z M232.1,28.3c0,1.9,2.8,1.9,2.8,0
		C234.9,26.5,232.1,26.5,232.1,28.3z M32,82.6c0,2.1,3.1,2.1,3.1,0S32,80.6,32,82.6z M134.2,136.8c-2,0-2,3,0,3
		C136.2,139.8,136.2,136.8,134.2,136.8z M368.7,25.5c-1.9,0-1.9,2.8,0,2.8S370.5,25.5,368.7,25.5z M129.1,99c-2.6,0-2.6,3.9,0,3.9
		C131.7,102.9,131.7,99,129.1,99z M11.2,66.9c0,3.8,5.8,3.8,5.8,0C17,63.1,11.2,63.1,11.2,66.9z M706.8,79.5c-1.5,0-2.7,1.2-2.7,2.7
		c0,1.5,1.2,2.7,2.7,2.7c1.5,0,2.7-1.2,2.7-2.7C709.4,80.7,708.2,79.5,706.8,79.5z M721.8,54.8c-1.9,0-1.9,2.8,0,2.8
		C723.6,57.6,723.6,54.8,721.8,54.8z M615.1,104.8c-1.9,0-1.9,2.8,0,2.8C617,107.6,617,104.8,615.1,104.8z M509.5,59.1
		c0,3.7,5.6,3.7,5.6,0C515.1,55.3,509.5,55.4,509.5,59.1z M471.5,35c-2.6,0-2.6,3.9,0,3.9C474.1,38.9,474.1,35,471.5,35z
		 M604.6,142.7c0,1.9,2.8,1.9,2.8,0C607.4,140.8,604.6,140.8,604.6,142.7z"/>
</g>
<g>
</g>
<g>
</g>
<g>
</g>
<g>
</g>
<g>
</g>
<g>
</g>
<g>
</g>
<g>
</g>
<g>
</g>
<g>
</g>
<g>
</g>
<g>
</g>
<g>
</g>
<g>
</g>
<g>
</g>
</svg>
