<?xml version="1.0" encoding="UTF-8"?>
<svg id="Layer_1" xmlns="http://www.w3.org/2000/svg" version="1.1" viewBox="0 0 535 364">
  <!-- Generator: Adobe Illustrator 29.1.0, SVG Export Plug-In . SVG Version: 2.1.0 Build 142)  -->
  <defs>
    <style>
      .st0 {
        fill: #f4e182;
      }

      .st1 {
        fill: #fff;
      }
    </style>
  </defs>
  <g>
    <path class="st0" d="M130,149.4v-1.6c1.3,0,2.3-.2,3.2-.3s1.4-.5,1.9-1,.7-1.1.9-2,.2-2,.2-3.4v-38.7c0-1.4,0-2.5-.2-3.4s-.5-1.5-.9-2-1.1-.8-1.9-1-1.9-.3-3.2-.3v-1.6c.9,0,2,.2,3.2.2h8.7c1.6,0,3,0,4.2-.2l16.9,42.1,15.2-41.9h10.2c2,0,3.6,0,4.9-.2v1.6c-1.3,0-2.4.2-3.2.3s-1.4.5-1.9,1c-.4.5-.8,1.1-.9,2s-.2,2-.2,3.4v38.7c0,1.4,0,2.5.2,3.4s.5,1.5.9,2c.5.5,1.1.8,1.9,1s1.9.3,3.2.3v1.6c-1.3-.1-2.9-.2-4.9-.2h-12.1c-2,0-3.5,0-4.7.2v-1.6c1.3,0,2.4-.2,3.2-.3s1.5-.5,2-1,.8-1.1.9-2c.2-.9.2-2,.2-3.4v-41.2l-18.2,49.7h-1.3l-20.7-50.5v42c0,1.4,0,2.5.2,3.4s.5,1.5.9,2,1.1.8,1.9,1,1.9.3,3.3.3v1.6c-.9-.1-2-.2-3.3-.2h-7.7c-1.2,0-2.3,0-3.2.2h.2Z"/>
    <path class="st0" d="M195.7,149.4v-1.6c.8,0,1.7-.4,2.7-1s1.9-2,2.6-3.9l19-49h2.8l19,49c.8,2,1.7,3.3,2.6,3.9s1.8,1,2.6,1v1.6c-1.2-.1-2.7-.2-4.4-.2h-11.3c-1.9,0-3.4,0-4.5.2v-1.6c1.3,0,2.4-.2,3.2-.4s1.4-.5,1.8-1,.5-1.1.4-1.9-.4-1.9-.9-3.2l-4.9-12.8h-18l-4.9,12.8c-.5,1.3-.8,2.4-.9,3.2s0,1.5.4,1.9.9.8,1.8,1,1.9.3,3.2.4v1.6c-.8-.1-1.8-.2-3.1-.2h-6.8c-1,0-1.8,0-2.5.2h0ZM209,126.9h16.8l-8.3-21.9-8.5,21.9Z"/>
    <path class="st0" d="M249.3,122.6c0-4.5.7-8.6,2-12.2s3.1-6.8,5.5-9.3c2.3-2.6,5.1-4.6,8.3-5.9,3.2-1.4,6.7-2.1,10.6-2.1s3.3,0,4.6.4,2.6.7,3.7,1.1c1.1.5,2.2,1,3.1,1.6s1.9,1.2,2.8,1.9c.6.5,1.2.8,1.6.8,1,0,1.7-1.6,2-4.7h1.7c-.1,2-.2,4.4-.2,7.1v11.1h-1.7c-.4-2.5-.8-4.8-1.5-6.9-.6-2.1-1.7-4-3.2-5.5-1.4-1.7-3.2-3-5.4-3.9-2.2-.9-4.5-1.4-6.9-1.4s-5.1.7-7.2,2.1-3.8,3.3-5.3,5.7c-1.4,2.4-2.5,5.3-3.2,8.6s-1.1,6.9-1.1,10.8c0,9.4,1.4,16.2,4.3,20.6,2.8,4.3,7.2,6.5,13,6.5s3.1-.2,4.3-.7c1.2-.4,2.2-.9,2.9-1.5.9-.6,1.5-1.2,1.7-1.8.3-.6.4-1.4.4-2.4v-7.6c0-1.6-.1-2.9-.3-3.9s-.6-1.8-1.2-2.3-1.4-.9-2.4-1.1-2.4-.3-4-.4v-1.6c.7,0,1.6,0,2.6,0h14.4c1.5,0,2.8,0,3.9-.2v1.6c-.9,0-1.5.2-2,.3-.5.2-.9.5-1.2,1s-.5,1.1-.5,2-.1,2-.1,3.4v15.5h-1.5c0-.5,0-.9-.2-1.5s-.3-1-.4-1.4c-.2-.4-.4-.8-.7-1.1s-.6-.4-1-.4-.7,0-1.1.2-1.1.6-2.1,1.2c-1.8,1.2-3.7,2.2-5.6,3s-4.2,1.1-6.7,1.1c-4.2,0-8-.6-11.3-1.9-3.3-1.3-6.1-3.1-8.3-5.5-2.2-2.4-3.9-5.3-5.1-8.7-1.2-3.5-1.8-7.4-1.8-11.7h-.2Z"/>
    <path class="st0" d="M304.1,149.4v-1.6c1.3,0,2.3-.2,3.1-.3.8-.2,1.4-.5,1.9-1,.4-.5.7-1.1.9-2s.2-2,.2-3.4v-38.7c0-1.4,0-2.5-.2-3.4s-.5-1.5-.9-2-1-.8-1.9-1c-.8-.2-1.9-.3-3.1-.3v-1.6c1.2,0,2.7.2,4.6.2h12c2,0,3.5,0,4.8-.2v1.6c-1.3,0-2.3.2-3.1.3s-1.4.5-1.9,1-.7,1.1-.9,2c-.2.9-.2,2-.2,3.4v38.7c0,1.4,0,2.5.2,3.4s.5,1.5.9,2,1,.8,1.9,1,1.9.3,3.1.3v1.6c-1.3-.1-2.9-.2-4.8-.2h-11.9c-1.9,0-3.4,0-4.6.2h0Z"/>
    <path class="st0" d="M316.6,157c0-1.3.4-2.4,1.3-3.3.9-.8,2.1-1.3,3.6-1.3s2.5.4,3.4,1.2,1.4,1.9,1.4,3.4-.3,2.1-.9,2.8-1.5,1.3-2.6,1.5c.4.4,1.1.7,2,.8s1.6.2,2.2.2c2.2,0,4-.6,5.6-1.7,1.5-1.1,2.6-2.7,3.3-4.6.3-.9.5-1.8.7-2.8s.3-2.2.4-3.5c.1-1.4.2-3,.2-4.9v-42.5c0-1.4,0-2.5-.2-3.4s-.5-1.5-.9-2-1.1-.8-1.9-1-1.8-.3-3.1-.3v-1.6c1.1,0,2.7.2,4.6.2h12c2,0,3.6,0,4.9-.2v1.6c-1.3,0-2.3.2-3.2.3s-1.4.5-1.9,1c-.4.5-.7,1.1-.9,2s-.2,2-.2,3.4v33.7c0,1.9,0,3.7-.2,5.5s-.2,3.5-.4,5.2c-.2,1.7-.4,3.2-.8,4.5-.5,1.8-1.2,3.5-2.2,5.1-1,1.5-2.3,2.9-3.8,4s-3.2,2-5.2,2.7-4.1,1-6.5,1-2.7-.1-3.9-.4c-1.2-.3-2.2-.6-3.1-1.1-1.3-.7-2.3-1.5-2.9-2.4s-.9-2-.9-3.1h.1Z"/>
    <path class="st0" d="M353.6,149.4v-1.6c.8,0,1.7-.4,2.7-1s1.9-2,2.6-3.9l19-49h2.8l19,49c.8,2,1.7,3.3,2.6,3.9s1.8,1,2.6,1v1.6c-1.2-.1-2.7-.2-4.4-.2h-11.3c-1.9,0-3.4,0-4.5.2v-1.6c1.3,0,2.4-.2,3.2-.4s1.4-.5,1.8-1,.5-1.1.4-1.9-.4-1.9-.9-3.2l-4.9-12.8h-18l-4.9,12.8c-.5,1.3-.8,2.4-.9,3.2s0,1.5.4,1.9.9.8,1.8,1,1.9.3,3.2.4v1.6c-.8-.1-1.8-.2-3.1-.2h-6.8c-1,0-1.8,0-2.5.2h0ZM366.9,126.9h16.8l-8.3-21.9-8.5,21.9Z"/>
    <path class="st0" d="M15.2,219.6v-1.6c1.3,0,2.3-.2,3.2-.3s1.4-.5,1.9-1,.7-1.1.9-2,.2-2,.2-3.4v-38.7c0-1.4,0-2.5-.2-3.4s-.5-1.5-.9-2-1.1-.8-1.9-1-1.9-.3-3.2-.3v-1.6c.9.1,2,.2,3.2.2h8.7c1.6,0,3,0,4.2-.2l16.9,42.1,15.2-41.9h10.2c2,0,3.6,0,4.9-.2v1.6c-1.3,0-2.4.2-3.2.3s-1.4.5-1.9,1c-.4.5-.8,1.1-.9,2s-.2,2-.2,3.4v38.7c0,1.4,0,2.5.2,3.4s.5,1.5.9,2c.5.5,1.1.8,1.9,1s1.9.3,3.2.3v1.6c-1.3-.1-2.9-.2-4.9-.2h-12.1c-2,0-3.5,0-4.7.2v-1.6c1.3,0,2.4-.2,3.2-.3s1.5-.5,2-1,.8-1.1.9-2c.2-.9.2-2,.2-3.4v-41.2l-18.2,49.7h-1.3l-20.7-50.5v42c0,1.4,0,2.5.2,3.4s.5,1.5.9,2,1.1.8,1.9,1,1.9.3,3.3.3v1.6c-.9-.1-2-.2-3.3-.2h-7.7c-1.2,0-2.3,0-3.2.2h.2Z"/>
    <path class="st0" d="M84.7,219.6v-1.6c1.3,0,2.3-.2,3.1-.3.8-.2,1.4-.5,1.9-1,.4-.5.7-1.1.9-2s.2-2,.2-3.4v-38.7c0-1.4,0-2.5-.2-3.4s-.5-1.5-.9-2-1-.8-1.9-1c-.8-.2-1.9-.3-3.1-.3v-1.6c2,0,4.1,0,6.3.1h29.6c1.4,0,2.7,0,3.9-.1-.2,2-.3,3.9-.4,5.6s0,3.1,0,4.1v2.7c0,.8,0,1.6.2,2.2h-1.8c-.3-2.4-.6-4.5-1-6.1s-.9-3-1.6-4-1.5-1.7-2.6-2.2c-1-.4-2.4-.7-4-.7h-7.1c-1.3,0-2.4,0-3.2.2s-1.4.4-1.9.9-.8,1.1-.9,2c-.2.9-.2,2-.2,3.4v18.4h8.1c1.2,0,2.2-.4,2.9-1,.7-.6,1.2-1.4,1.6-2.3.4-.9.6-1.8.7-2.8s.3-1.9.4-2.7h1.8c0,1.3-.2,2.4-.2,3.4v10c0,.7,0,1.6.2,2.5s0,2.1.2,3.4h-1.8l-.5-3.1c-.2-1-.4-2-.8-2.8s-1-1.5-1.7-2.1c-.7-.5-1.7-.8-3-.9h-8.1v18.7c0,1.4,0,2.5.2,3.4s.5,1.5.9,2c.5.5,1.1.8,1.9.9s1.9.2,3.2.2h8c1.8,0,3.2-.2,4.4-.7,1.1-.5,2.1-1.3,2.8-2.5s1.2-2.6,1.6-4.5.7-4.1,1-6.8h1.8c-.2,1.5-.2,3.6-.2,6v4.3c0,1.9.2,3.9.5,6-1.3,0-2.8,0-4.3-.1h-30.7c-2.3,0-4.4,0-6.3.1l.2.2Z"/>
    <path class="st0" d="M132.8,219.6v-1.7c1.3,0,2.3-.2,3.1-.3.8-.2,1.4-.5,1.9-1,.4-.5.7-1.1.9-2s.2-2,.2-3.4v-38.5c0-1.4,0-2.5-.2-3.4s-.5-1.5-.9-2-1-.8-1.9-1c-.8-.2-1.9-.3-3.1-.3v-1.7c1.2.1,2.7.2,4.6.3h17.6c9.7,0,16.8,2.3,21.5,7,4.7,4.6,7,11.3,7,20.1s-.6,8.1-1.9,11.6-3.2,6.4-5.7,8.9-5.6,4.4-9.2,5.7c-3.6,1.3-7.8,2-12.4,2s-1.4,0-2.3,0h-14.7c-1.9,0-3.4,0-4.6.2v-.5ZM148.1,211.3c0,1.3,0,2.4.2,3.3.2.9.4,1.6.9,2.1.4.5,1,.8,1.8,1s1.8.3,3,.3c3.9,0,7.1-.6,9.7-1.7s4.6-2.9,6.1-5.1c1.5-2.2,2.6-5,3.2-8.3s.9-7,.9-11.2-.3-8.1-1-11.4-1.8-5.9-3.4-8-3.7-3.7-6.2-4.8-5.7-1.6-9.4-1.6-2.2,0-2.9.3-1.3.5-1.7,1-.7,1.2-.9,2.1c-.2.9-.2,2-.2,3.3v38.8h-.1Z"/>
    <path class="st0" d="M190,219.6v-1.6c1.3,0,2.3-.2,3.1-.3.8-.2,1.4-.5,1.9-1,.4-.5.7-1.1.9-2s.2-2,.2-3.4v-38.7c0-1.4,0-2.5-.2-3.4s-.5-1.5-.9-2-1-.8-1.9-1c-.8-.2-1.9-.3-3.1-.3v-1.6c1.2.1,2.7.2,4.6.2h12c2,0,3.5,0,4.8-.2v1.6c-1.3,0-2.3.2-3.1.3s-1.4.5-1.9,1-.7,1.1-.9,2-.2,2-.2,3.4v38.7c0,1.4,0,2.5.2,3.4s.5,1.5.9,2,1,.8,1.9,1,1.9.3,3.1.3v1.6c-1.3-.1-2.9-.2-4.8-.2h-11.9c-1.9,0-3.4,0-4.6.2h-.1Z"/>
    <path class="st0" d="M216.3,164.3c1.7,0,3.6,0,5.5.1s4,0,6,0h29c2,0,3.8,0,5.6-.1-.2,2.2-.3,4.3-.4,6.3s-.1,3.5-.1,4.6v3.4c0,1.1,0,2,.2,2.8h-1.8c-.3-2.9-.7-5.3-1.2-7.2-.5-2-1.2-3.5-2-4.7s-1.7-2-2.8-2.6-2.3-.8-3.7-.8h-6.6v44.4c0,1.5.1,2.8.3,3.8s.6,1.7,1.2,2.3c.6.5,1.4.9,2.5,1,1.1.2,2.4.3,4.1.3v1.6c-1.5,0-3.4-.2-5.7-.2h-14.3c-2.2,0-4,0-5.4.2v-1.6c1.7,0,3-.2,4.1-.3,1-.2,1.8-.5,2.4-1,.6-.5,1-1.3,1.2-2.2.2-1,.3-2.2.3-3.8v-44.4h-6.6c-1.4,0-2.6.3-3.7.8s-2,1.4-2.8,2.6c-.8,1.2-1.4,2.8-2,4.7s-1,4.4-1.3,7.2h-1.8c.1-.8.2-1.7.2-2.8v-3.4c0-1.2,0-2.6-.1-4.6s-.2-4.1-.4-6.3h.1Z"/>
    <path class="st0" d="M267.4,219.6v-1.6c1.3,0,2.3-.2,3.1-.3.8-.2,1.4-.5,1.9-1,.4-.5.7-1.1.9-2s.2-2,.2-3.4v-38.7c0-1.4,0-2.5-.2-3.4s-.5-1.5-.9-2-1-.8-1.9-1c-.8-.2-1.9-.3-3.1-.3v-1.6c2,0,4.1,0,6.3.1h29.6c1.4,0,2.7,0,3.9-.1-.2,2-.3,3.9-.4,5.6s-.1,3.1-.1,4.1v2.7c0,.8,0,1.6.2,2.2h-1.8c-.3-2.4-.6-4.5-1-6.1s-.9-3-1.6-4-1.5-1.7-2.6-2.2c-1-.4-2.4-.7-4-.7h-7.1c-1.3,0-2.4,0-3.2.2s-1.4.4-1.9.9-.8,1.1-.9,2c-.2.9-.2,2-.2,3.4v18.4h8.1c1.2,0,2.2-.4,2.9-1,.7-.6,1.2-1.4,1.6-2.3.4-.9.6-1.8.7-2.8s.3-1.9.4-2.7h1.8c-.1,1.3-.2,2.4-.2,3.4v10c0,.7.1,1.6.2,2.5s.1,2.1.2,3.4h-1.8l-.5-3.1c-.2-1-.4-2-.8-2.8s-1-1.5-1.7-2.1c-.7-.5-1.7-.8-3-.9h-8.1v18.7c0,1.4,0,2.5.2,3.4s.5,1.5.9,2c.5.5,1.1.8,1.9.9s1.9.2,3.2.2h8c1.8,0,3.2-.2,4.4-.7,1.1-.5,2.1-1.3,2.8-2.5s1.2-2.6,1.6-4.5.7-4.1,1-6.8h1.8c-.2,1.5-.2,3.6-.2,6v4.3c0,1.9.2,3.9.5,6-1.3,0-2.8,0-4.3-.1h-30.7c-2.3,0-4.4,0-6.3.1l.2.2Z"/>
    <path class="st0" d="M315.6,219.6v-1.6c1.3,0,2.3-.2,3.1-.3.8-.2,1.4-.5,1.9-1,.4-.5.7-1.1.9-2s.2-2,.2-3.4v-38.7c0-1.4,0-2.5-.2-3.4s-.5-1.5-.9-2-1-.8-1.9-1c-.8-.2-1.9-.3-3.1-.3v-1.6c1.2.1,2.7.2,4.6.2h17.7c3.3,0,6.2.3,8.7,1s4.5,1.6,6.1,2.8,2.9,2.7,3.7,4.3,1.3,3.5,1.3,5.5-.2,2.9-.7,4.5-1.4,3.1-2.6,4.5-2.9,2.7-4.9,3.8c-2.1,1.1-4.6,1.9-7.8,2.3h.6c1.9.3,3.6.7,5,1.2s2.6,1.1,3.6,1.9,1.8,1.8,2.5,3c.6,1.2,1.1,2.6,1.5,4.2l1.7,8c.5,2.2,1,3.8,1.5,4.8.5.9,1.2,1.3,2.2,1.3h.2c.8,0,1.4-.3,2-.7s1.1-1,1.8-1.8l1.1.9c-1.2,1.6-2.4,2.8-3.7,3.6s-3,1.2-5.2,1.2-4.2-.6-5.8-1.8c-1.6-1.2-2.7-3.4-3.4-6.7l-1.6-7.8c-.3-1.6-.6-3.1-1-4.5s-.8-2.6-1.4-3.5-1.3-1.7-2.2-2.3c-.9-.5-2.1-.8-3.5-.8h-6.5v17.9c0,1.4,0,2.5.2,3.4s.5,1.5.9,2,1,.8,1.9,1,1.9.3,3.1.3v1.6c-1.3-.1-2.9-.2-4.8-.2h-11.9c-1.9,0-3.4,0-4.6.2h-.3ZM330.9,191.8h4.5c2.6,0,4.7-.3,6.3-1s2.9-1.6,3.9-2.8c.9-1.2,1.6-2.5,1.9-4.1s.5-3.3.5-5.1c0-4.1-.9-7.3-2.6-9.6-1.8-2.3-4.8-3.4-9.1-3.4s-2,0-2.7.3c-.7.2-1.3.5-1.6,1s-.7,1.2-.8,2.1c-.2.9-.2,2-.2,3.3v19.2h0Z"/>
    <path class="st0" d="M363.6,219.6v-1.6c.8,0,1.7-.4,2.7-1s1.9-2,2.6-3.9l19-49h2.8l19,49c.8,2,1.7,3.3,2.6,3.9s1.8,1,2.6,1v1.6c-1.2-.1-2.7-.2-4.4-.2h-11.3c-1.9,0-3.4,0-4.5.2v-1.6c1.3,0,2.4-.2,3.2-.4s1.4-.5,1.8-1,.5-1.1.4-1.9-.4-1.9-.9-3.2l-4.9-12.8h-18l-4.9,12.8c-.5,1.3-.8,2.4-.9,3.2s0,1.5.4,1.9.9.8,1.8,1,1.9.3,3.2.4v1.6c-.8-.1-1.8-.2-3.1-.2h-6.8c-1,0-1.8,0-2.5.2h0ZM376.9,197.1h16.8l-8.3-21.9-8.5,21.9Z"/>
    <path class="st0" d="M417.3,219.6v-1.6c1.3,0,2.3-.2,3.2-.3s1.4-.5,1.9-1,.7-1.1.9-2,.2-2,.2-3.4v-38.7c0-1.4,0-2.5-.2-3.4s-.5-1.5-.9-2-1.1-.8-1.9-1-1.9-.3-3.2-.3v-1.6c.9.1,2,.2,3.2.2h7.6c1.2,0,2.4,0,3.4-.2l27.6,39.3v-31c0-1.4,0-2.5-.2-3.4s-.5-1.5-1-2-1.1-.8-1.9-1-1.9-.3-3.2-.3v-1.6c.9.1,2,.2,3.3.2h7.8c1.3,0,2.4,0,3.2-.2v1.6c-1.3,0-2.3.2-3.1.3s-1.4.5-1.9,1-.7,1.1-.9,2-.2,2-.2,3.4v47.3h-2.6l-33.1-47.8v39.2c0,1.4,0,2.5.2,3.4s.5,1.5.9,2,1.1.8,1.9,1,1.9.3,3.3.3v1.6c-.9-.1-2-.2-3.3-.2h-7.7c-1.2,0-2.3,0-3.2.2h0Z"/>
    <path class="st0" d="M468.5,219.6v-1.6c.8,0,1.7-.4,2.7-1s1.9-2,2.6-3.9l19-49h2.8l19,49c.8,2,1.7,3.3,2.6,3.9s1.8,1,2.6,1v1.6c-1.2-.1-2.7-.2-4.4-.2h-11.3c-1.9,0-3.4,0-4.5.2v-1.6c1.3,0,2.4-.2,3.2-.4s1.4-.5,1.8-1,.5-1.1.4-1.9-.4-1.9-.9-3.2l-4.9-12.8h-18l-4.9,12.8c-.5,1.3-.8,2.4-.9,3.2s0,1.5.4,1.9.9.8,1.8,1,1.9.3,3.2.4v1.6c-.8-.1-1.8-.2-3.1-.2h-6.8c-1,0-1.8,0-2.5.2h.1ZM481.8,197.1h16.8l-8.3-21.9-8.5,21.9Z"/>
  </g>
  <g>
    <path class="st1" d="M217.9,46.7c0,.1-.5,3.5-2.8,3.5h-3.6v-4.5h4.7v-3.8h-4.7v-3.4h4.6c.5,0,.9.3,1.2.6.5.5.6,1.1.6,1.5v.8c0,0,3.4,0,3.4,0v-6.9h-16.9v4.1h1.9v11.7h-1.9v4.1h16.9v-8.3h-3.3v.7Z"/>
    <path class="st1" d="M255.4,46.7c0,.1-.5,3.5-2.8,3.5h-3.6v-4.5h4.7v-3.8h-4.7v-3.4h4.6c.5,0,.9.3,1.2.6.5.5.6,1.1.6,1.5v.8c0,0,3.4,0,3.4,0v-6.9h-16.9v4.1h1.9v11.7h-1.9v4.1h16.9v-8.4h-3.3v.7Z"/>
    <path class="st1" d="M235.9,45.5c0,.2-.4,4.6-2.3,4.8h-3v-11.7h1.8v-4.1h-9.4v4.1h2.1v11.7h-1.5v4.1h16v-9.7h-3.7v.8Z"/>
    <path class="st1" d="M271.2,46.9h2.9v.4c-.1,2-2.5,2.2-3.5,2.2h0c-1,0-2.4-.5-3.4-1.5-.9-.9-1.4-2.1-1.4-3.5,0-2.7,1.6-5.3,4.7-5.3h.1c1,0,2.3.4,3,1.1.1.1.3.3.3.5l.2.5h4.3v-6.4h-4.7v.2c-1-.4-2-.6-3-.6h-.4c-2.6,0-4.9,1-6.6,2.9-1.7,1.8-2.6,4.4-2.6,7.1s1.1,5.5,3,7.4c1.6,1.6,3.7,2.6,5.7,2.6,1.8,0,3.1-.1,4.3-.5v.5h4.8v-7.5h1.7v-3.7h-9.3v3.8Z"/>
    <path class="st1" d="M182.4,43.3h4.2v-.9c0-1.7.3-2.9.9-3.5.3-.4.7-.4.7-.4h.9v11.7h-3v4.1h13.2v-4.1h-3.8v-11.7h.7c.5,0,.9.1,1.2.5.6.6.9,1.7,1,3.4v.8h4v-8.8h-20.1v8.8Z"/>
    <path class="st1" d="M298.6,46.4c2.6-1.1,3.9-3,4-5.8,0-1.6-.5-3-1.4-4-2.1-2.1-5.8-2.2-10.2-2.2h-9.9v4.1h2.6v11.7h-2.6v4.1h10.6v-4.1s-2.1,0-2.1,0v-2.7h4l3.4,6.8h5.8v-4.1h-2.1s-2.1-3.7-2.1-3.7ZM289.6,38.5h4.4c1,0,2.3.2,3,.9s.5.9.5,1.4c0,1.5-.6,2.5-3.3,2.5h-4.6v-4.8Z"/>
    <path class="st1" d="M319.6,38.5h2.1v-4.1h-12.8v4.1h2.4s-5.1,11.7-5.1,11.7h-1.5v4.1h9.8v-4.1h-2.6l.6-1.3h5.9l.6,1.3h-2.4v4.1h9.8v-4.1h-1.7l-5.1-11.7ZM317.2,46h-3.4l1.7-4.3,1.7,4.3Z"/>
    <polygon class="st1" points="352.6 38.1 352.6 34.4 343.6 34.4 339.8 42.2 336.8 34.4 327.4 34.4 327.4 38.2 329.6 38.2 329.6 50.3 327.9 50.3 327.9 54.3 337.1 54.3 337.1 50.3 335.5 50.3 335.4 44.8 339.6 54.2 344.7 44.2 344.7 50.3 343.1 50.3 343.1 54.3 352.3 54.3 352.3 50.3 350.5 50.3 350.5 38.1 352.6 38.1"/>
  </g>
  <g>
    <path class="st1" d="M105.1,284.2c-.6,0-1.1-.2-1.6-.5-.5-.3-.9-.8-1.2-1.5s-.5-1.5-.5-2.6.1-1.8.3-2.9c.2-1.1.5-2.2.8-3.3s.7-2.1,1.1-3c-1.2.8-2.3,1.9-3.2,3.3-.9,1.4-1.7,3-2.3,4.9.1.6.3,1.1.3,1.6,0,.5.1.9.1,1.3,0,.8-.2,1.4-.5,1.8s-1,.7-1.9.7-1.4-.2-1.8-.5-.6-.9-.6-1.5,0-.9.2-1.4c.1-.5.4-1.1.6-1.7-.3-.9-.7-2-1.1-3.1-.5-1.2-1.1-2.4-1.9-3.8-.2,1-.5,2-.7,3.1-.3,1-.5,2-.6,2.8s-.2,1.6-.2,2.2c0,1,.3,1.4.8,1.4h0c0,.6-.1,1.1-.4,1.5-.3.4-.7.7-1.1.9-.4.2-.9.3-1.4.3s-.9-.1-1.4-.3c-.4-.2-.8-.6-1.1-1.1-.3-.5-.4-1.1-.4-1.8s.1-1.5.4-2.3c.3-.8.6-1.7,1-2.6.4-.9.8-1.7,1.2-2.6.4-.8.8-1.6,1.1-2.4.3-.7.5-1.4.6-1.9-.3-.2-.7-.4-1.1-.4s-.7.1-1,.3c-.3.2-.7.6-1,1.1h-.2c0-1,.2-1.8.6-2.5.4-.7.8-1.3,1.4-1.8s1.3-.7,2-.7,1.7.4,2.5,1.1c.9.7,1.7,1.9,2.4,3.5.7,1.6,1.3,3.8,1.8,6.6.7-2.1,1.4-3.9,2.1-5.4.8-1.4,1.6-2.6,2.4-3.4s1.6-1.5,2.4-1.8c.8-.4,1.5-.6,2.3-.6s1.7.2,2.4.7,1.3,1,1.7,1.6.6,1.3.6,2c-.4-.1-.9-.2-1.3-.3-.4,0-.8,0-1.2,0s-.8,0-1.1,0c-.2.8-.3,1.7-.5,2.7s-.3,2-.5,3c-.1,1-.2,1.9-.2,2.7s0,1.5.3,2.1c.2.5.5.8.9.8s.6-.1.8-.4c.3-.2.5-.6.6-1.1h.2c0,1.2-.2,2.2-.6,2.9-.4.8-.9,1.3-1.5,1.7-.6.4-1.2.6-1.8.6Z"/>
    <path class="st1" d="M120,284.3c-.6,0-1.1-.2-1.6-.6-.5-.4-.7-1.1-.7-2v-.3c0,0,0-.2,0-.3-.5,1-1.1,1.8-1.8,2.3-.7.5-1.3.7-2,.7s-1.2-.2-1.7-.6c-.5-.4-1-1.1-1.3-1.9-.3-.8-.5-1.8-.5-3s.2-2.3.5-3.3c.3-1,.8-1.8,1.3-2.4.6-.7,1.2-1.2,1.8-1.5.7-.3,1.3-.5,1.9-.5s1.3.2,1.9.6c.6.4.9,1.1,1.1,2,0-.3,0-.6.1-.8,0-.2,0-.4,0-.5,0-.5.3-.8.7-1,.5-.2,1-.3,1.5-.3s.9,0,1.4.3c.4.2.7.5.9,1v.2c-.2.5-.4,1-.6,1.7-.2.7-.4,1.4-.6,2.1-.2.7-.3,1.4-.4,2.1-.1.7-.2,1.3-.2,1.8s0,1,.2,1.2c.1.2.3.3.4.3.3,0,.6-.2.8-.6h.2c0,.7-.2,1.2-.6,1.7s-.9.9-1.4,1.2-1.1.4-1.7.4ZM115.7,281c.5,0,1-.4,1.5-1.2.5-.8,1-2,1.4-3.5,0-.2,0-.3.1-.5,0-.1,0-.3,0-.4-.3-.6-.6-1.1-.9-1.4-.3-.3-.6-.4-.9-.4-.4,0-.8.2-1.2.7-.4.5-.7,1-.9,1.7-.2.7-.4,1.4-.4,2.1s.1,1.7.3,2.1c.2.5.5.7.8.7Z"/>
    <path class="st1" d="M128.2,284.3c-.5,0-.9-.1-1.4-.4-.4-.2-.8-.6-1.1-1.1-.3-.5-.4-1.2-.4-2s.1-1.6.3-2.6c.2-1,.4-2,.7-3.1.3-1.1.5-2.1.7-3.1.2-1,.3-1.9.3-2.7,0-.7,0-1.3-.3-1.6h0c.2-.6.5-1.1,1-1.4.5-.3,1-.5,1.5-.5s1.2.2,1.6.7.7,1.2.7,2.3,0,1.3-.2,2c-.1.8-.3,1.6-.5,2.5-.2.9-.4,1.8-.6,2.6s-.4,1.7-.5,2.4-.2,1.3-.2,1.8,0,.8.2,1,.3.3.5.3.4,0,.5-.2c.2-.1.3-.3.3-.4h.2c0,.7-.2,1.2-.5,1.7-.3.5-.8.9-1.3,1.1-.5.3-1,.4-1.6.4Z"/>
    <path class="st1" d="M136.9,284.3c-.6,0-1.1-.1-1.6-.4-.5-.3-.9-.6-1.2-1.2-.3-.5-.5-1.2-.5-2.1s0-1,.1-1.8c0-.7.2-1.5.4-2.4.1-.9.3-1.7.5-2.6-.3,0-.7,0-1,.1-.3,0-.6.1-1,.2v-.2c.3-.4.7-.8,1-1.1.4-.3.8-.5,1.2-.7.2-1.1.4-2.1.6-3,.2-.8.2-1.3.2-1.5,0-.3.2-.5.7-.7s1-.3,1.6-.3,1,0,1.4.3c.4.2.7.5.9,1-.1.1-.3.5-.4,1.2-.2.7-.4,1.5-.6,2.4.3,0,.7,0,1,0,.3,0,.7,0,1.1,0,0,.1,0,.2,0,.3,0,.1,0,.3,0,.4,0,.3,0,.5-.1.8,0,.3-.2.6-.3.8-.4,0-.8,0-1.2-.1-.4,0-.7,0-1.1,0-.1.7-.3,1.5-.4,2.2-.1.7-.2,1.4-.3,2,0,.6,0,1.1,0,1.4,0,.7.1,1.2.4,1.5.3.2.6.4,1,.4s.7,0,.9-.2c.3-.1.5-.3.6-.5h.3c-.1.8-.4,1.4-.8,1.9-.5.5-1,.9-1.6,1.2-.6.3-1.3.4-1.9.4Z"/>
    <path class="st1" d="M151.7,284.3c-.6,0-1.1-.2-1.6-.6-.5-.4-.7-1.1-.7-2v-.3c0,0,0-.2,0-.3-.5,1-1.1,1.8-1.8,2.3-.7.5-1.3.7-2,.7s-1.2-.2-1.7-.6c-.5-.4-1-1.1-1.3-1.9-.3-.8-.5-1.8-.5-3s.2-2.3.5-3.3c.3-1,.8-1.8,1.3-2.4.6-.7,1.2-1.2,1.8-1.5.7-.3,1.3-.5,1.9-.5s1.3.2,1.9.6c.6.4.9,1.1,1.1,2,0-.3,0-.6.1-.8,0-.2,0-.4,0-.5,0-.5.3-.8.7-1,.5-.2,1-.3,1.5-.3s.9,0,1.4.3c.4.2.7.5.9,1v.2c-.2.5-.4,1-.6,1.7-.2.7-.4,1.4-.6,2.1-.2.7-.3,1.4-.4,2.1-.1.7-.2,1.3-.2,1.8s0,1,.2,1.2c.1.2.3.3.4.3.3,0,.6-.2.8-.6h.2c0,.7-.2,1.2-.6,1.7s-.9.9-1.4,1.2-1.1.4-1.7.4ZM147.5,281c.5,0,1-.4,1.5-1.2.5-.8,1-2,1.4-3.5,0-.2,0-.3.1-.5,0-.1,0-.3,0-.4-.3-.6-.6-1.1-.9-1.4-.3-.3-.6-.4-.9-.4-.4,0-.8.2-1.2.7-.4.5-.7,1-.9,1.7-.2.7-.4,1.4-.4,2.1s.1,1.7.3,2.1c.2.5.5.7.8.7Z"/>
    <path class="st1" d="M159.2,284.4c-.7,0-1.3-.2-1.8-.7s-.7-1-.7-1.7.3-1.4.8-1.9c.5-.5,1.2-.8,2-.8s1.3.2,1.8.7c.5.5.7,1,.7,1.7s-.3,1.4-.8,1.9c-.6.5-1.2.8-2,.8ZM160,276.2c-.7,0-1.3-.2-1.8-.7s-.7-1-.7-1.7.3-1.4.8-1.9c.5-.5,1.2-.8,2-.8s1.3.2,1.8.7c.5.5.7,1,.7,1.7s-.3,1.4-.8,1.9c-.6.5-1.2.8-2,.8Z"/>
    <path class="st1" d="M173.4,284.4c-1.1,0-2-.1-2.7-.4-.7-.3-1.2-.7-1.6-1.1-.3-.5-.5-.9-.5-1.4s.3-1.2.9-1.8c.6-.5,1.4-.8,2.4-.8,0,.9.1,1.6.3,2.1.2.5.5.9.9,1.1.4.2.7.3,1,.3s.7-.1,1-.4c.3-.2.4-.5.4-.9s-.3-.9-.8-1.3c-.5-.4-1.2-.8-2-1.2-.4-.2-.8-.5-1.3-.8-.5-.3-.9-.7-1.2-1.2s-.5-1-.5-1.7.2-1.3.6-1.8c.4-.5.9-1,1.6-1.3s1.3-.6,2.1-.8c.7-.2,1.5-.3,2.2-.3,1.3,0,2.3.3,3,.8.7.5,1,1.1,1,1.7s-.3,1-.8,1.4c-.5.4-1.3.6-2.4.6,0-.9-.2-1.5-.5-1.9-.4-.4-.8-.6-1.2-.6s-.6,0-.8.3c-.2.2-.3.5-.3.8s.1.8.4,1.1c.3.3.6.6,1,.8.4.2.8.5,1.3.7.6.3,1.1.6,1.7.9.5.3.9.7,1.3,1.1.3.4.5.9.5,1.5s-.3,1.5-1,2.2-1.5,1.2-2.5,1.6c-1.1.4-2.2.6-3.5.6Z"/>
    <path class="st1" d="M185.4,284.3c-.8,0-1.4-.3-2-1s-.8-1.5-.8-2.6,0-1.2.2-1.9c.1-.7.3-1.3.4-1.9.1-.5.2-.9.3-1.3,0-.4.1-.7.1-1s0-.5-.2-.7c-.1-.1-.3-.2-.5-.2s-.3,0-.5.2c-.2.1-.3.3-.4.5h-.2c0-.8.2-1.4.5-1.9s.8-.9,1.3-1.1c.5-.3,1.1-.4,1.6-.4s.9,0,1.3.3.8.5,1,.8c.3.4.4.9.4,1.4s0,.8-.1,1.3-.2,1-.3,1.5c-.1.5-.2,1.1-.4,1.6-.1.5-.2,1-.2,1.4s0,.7.2.9c.1.2.3.4.5.4.5,0,1-.4,1.5-1.3s1-2,1.4-3.4c0-.3.1-.6.2-.9,0-.3,0-.6,0-1s0-.5,0-.8c0-.3,0-.5-.2-.8v-.2c.3-.5.6-.8,1.1-1.1.4-.2.9-.4,1.3-.4s1.2.2,1.6.6c.5.4.7,1,.7,1.8s0,1-.3,1.6c-.2.6-.4,1.3-.6,1.9-.2.6-.4,1.3-.6,1.9-.2.6-.3,1.2-.3,1.7,0,.7.3,1.1.8,1.1s.3,0,.5-.1c.2,0,.4-.2.6-.5h.2c0,.7-.2,1.2-.5,1.7-.3.5-.8.8-1.3,1.1s-1.1.4-1.6.4-1.4-.3-1.9-.8c-.6-.5-.8-1.4-.8-2.6h0c-.7,1.2-1.5,2-2.2,2.6-.8.5-1.5.8-2.1.8Z"/>
    <path class="st1" d="M201.7,284.4c-1.1,0-2-.1-2.7-.4-.7-.3-1.2-.7-1.6-1.1-.3-.5-.5-.9-.5-1.4s.3-1.2.9-1.8c.6-.5,1.4-.8,2.4-.8,0,.9.1,1.6.3,2.1.2.5.5.9.9,1.1.4.2.7.3,1,.3s.7-.1,1-.4c.3-.2.4-.5.4-.9s-.3-.9-.8-1.3c-.5-.4-1.2-.8-2-1.2-.4-.2-.8-.5-1.3-.8-.5-.3-.9-.7-1.2-1.2s-.5-1-.5-1.7.2-1.3.6-1.8c.4-.5.9-1,1.6-1.3s1.3-.6,2.1-.8c.7-.2,1.5-.3,2.2-.3,1.3,0,2.3.3,3,.8.7.5,1,1.1,1,1.7s-.3,1-.8,1.4c-.5.4-1.3.6-2.4.6,0-.9-.2-1.5-.5-1.9-.4-.4-.8-.6-1.2-.6s-.6,0-.8.3c-.2.2-.3.5-.3.8s.1.8.4,1.1c.3.3.6.6,1,.8.4.2.8.5,1.3.7.6.3,1.1.6,1.7.9.5.3.9.7,1.3,1.1.3.4.5.9.5,1.5s-.3,1.5-1,2.2-1.5,1.2-2.5,1.6c-1.1.4-2.2.6-3.5.6Z"/>
    <path class="st1" d="M213.2,284.3c-.6,0-1.2-.3-1.7-.8-.5-.5-.7-1.2-.7-2.2s0-1,.2-1.5.2-1.2.4-1.8.3-1.2.4-1.7c.1-.5.2-1,.2-1.3s0-.7-.2-.9c-.1-.2-.3-.3-.5-.3-.3,0-.7.2-1,.7h-.2c0-.4,0-.7.2-1.1s.4-.8.7-1.1c.3-.4.7-.7,1.1-.9.5-.2,1-.4,1.6-.4.9,0,1.6.3,2,.8.4.5.6,1.2.6,1.9s0,.2,0,.4c0,.1,0,.3,0,.4.6-1.1,1.3-2,2-2.6.7-.6,1.3-.9,1.9-.9s1,.2,1.2.7c.3.4.4,1,.4,1.6s-.1,1.1-.3,1.7c-.2.6-.5,1-1,1.4s-.9.6-1.6.5h-.1c0-.5-.2-.9-.4-1.1s-.6-.4-.9-.4-.9.2-1.3.7-.6,1.1-.6,2,0,1.1.2,1.7c.1.6.2,1.2.2,1.6s-.1,1-.4,1.4-.6.8-.9,1c-.4.3-.8.4-1.3.4Z"/>
    <path class="st1" d="M227.5,284.4c-1.3,0-2.3-.3-3.2-.8s-1.5-1.2-1.9-2c-.4-.8-.6-1.8-.6-2.7s.2-1.8.5-2.8c.4-.9.9-1.8,1.6-2.5.7-.8,1.5-1.4,2.5-1.9s2.1-.7,3.3-.7,2.6.3,3.4,1,1.1,1.5,1.1,2.5-.2,1.6-.7,2.3c-.4.7-1,1.3-1.8,1.7-.7.4-1.5.6-2.4.6s-.9,0-1.4-.2c-.5-.1-.9-.4-1.4-.7,0,1.1.4,1.9.9,2.3.5.5,1.2.7,1.9.7s1,0,1.6-.3c.5-.2,1-.5,1.4-.8.4-.3.8-.7,1-1h.2c0,1-.2,1.8-.6,2.4-.4.6-.9,1.2-1.5,1.6-.6.4-1.3.7-2,.9-.7.2-1.4.3-2.2.3ZM228.1,277.3c.6,0,1-.2,1.4-.5.3-.3.6-.7.8-1.1.2-.4.3-.8.3-1.1s-.1-.7-.3-1c-.2-.3-.5-.4-.9-.4s-.7.1-1,.3c-.4.2-.7.6-1,1.2s-.5,1.3-.6,2.3c.6.3,1.1.4,1.5.4Z"/>
    <path class="st1" d="M239.3,284.3c-.6,0-1.1-.1-1.6-.4-.5-.3-.9-.6-1.2-1.2-.3-.5-.5-1.2-.5-2.1s0-1,.1-1.8c0-.7.2-1.5.4-2.4.1-.9.3-1.7.5-2.6-.3,0-.7,0-1,.1-.3,0-.6.1-1,.2v-.2c.3-.4.7-.8,1-1.1.4-.3.8-.5,1.2-.7.2-1.1.4-2.1.6-3,.2-.8.2-1.3.2-1.5,0-.3.2-.5.7-.7s1-.3,1.6-.3,1,0,1.4.3c.4.2.7.5.9,1-.1.1-.3.5-.4,1.2-.2.7-.4,1.5-.6,2.4.3,0,.7,0,1,0,.3,0,.7,0,1.1,0,0,.1,0,.2,0,.3,0,.1,0,.3,0,.4,0,.3,0,.5-.1.8,0,.3-.2.6-.3.8-.4,0-.8,0-1.2-.1-.4,0-.7,0-1.1,0-.1.7-.3,1.5-.4,2.2-.1.7-.2,1.4-.3,2,0,.6,0,1.1,0,1.4,0,.7.1,1.2.4,1.5.3.2.6.4,1,.4s.7,0,.9-.2c.3-.1.5-.3.6-.5h.3c-.1.8-.4,1.4-.8,1.9-.5.5-1,.9-1.6,1.2-.6.3-1.3.4-1.9.4Z"/>
    <path class="st1" d="M251.9,289.4c-.4,0-.8-.1-1.2-.3-.4-.2-.7-.6-1-1.1s-.4-1.2-.4-2,.1-1.7.3-2.7c.2-1,.5-1.9.7-2.9s.5-1.9.7-2.8c.2-.9.3-1.6.3-2.3s0-.8-.2-1c-.1-.2-.3-.3-.5-.3s-.3,0-.5.2c-.2.1-.3.2-.4.4h-.2c0-.7.2-1.3.5-1.8.4-.5.8-.9,1.4-1.2.6-.3,1.1-.5,1.7-.5s1,.1,1.4.4c.3.3.6.7.8,1.1s.3.9.3,1.5c.7-1,1.4-1.8,2.2-2.3.8-.5,1.5-.8,2.2-.8s1.7.4,2.4,1.3c.7.9,1,2.3,1,4.1s-.3,3.2-.8,4.4c-.6,1.2-1.3,2.1-2.1,2.6-.8.6-1.7.9-2.6.9s-1.4-.2-2.1-.7c-.6-.4-1.1-1.1-1.5-1.9-.2.7-.3,1.4-.4,2.1-.1.7-.2,1.4-.2,2s0,.7,0,1.1c0,.3.1.7.2,1v.2c-.2.4-.5.8-1,1-.4.2-.8.3-1.3.3ZM256.7,281.8c.4,0,.8-.2,1.1-.5.3-.3.6-.8.8-1.3.2-.5.4-1.1.5-1.7.1-.6.2-1.2.2-1.8s0-1.4-.3-1.9c-.2-.5-.5-.8-.9-.8s-1.1.5-1.7,1.5c-.6,1-1.1,2.6-1.5,4.6.2.5.4,1,.7,1.3s.7.5,1,.5Z"/>
    <path class="st1" d="M270.8,284.4c-1.3,0-2.4-.3-3.2-.8-.9-.5-1.5-1.2-1.9-2.1s-.6-1.8-.6-2.8.2-1.8.5-2.8c.3-.9.8-1.8,1.5-2.5s1.4-1.4,2.4-1.8,2-.7,3.2-.7,2.4.3,3.2.8c.8.5,1.5,1.2,1.9,2.1.4.9.6,1.8.6,2.8s-.2,1.8-.5,2.7-.8,1.7-1.5,2.5-1.4,1.4-2.4,1.8c-.9.5-2,.7-3.2.7ZM271.5,282.2c.5,0,.9-.2,1.2-.7.3-.5.5-1.1.7-1.9.2-.8.2-1.5.2-2.3s0-1.4-.2-2c-.1-.6-.3-1.1-.6-1.5-.3-.4-.6-.6-1-.6s-.8.2-1.2.7c-.3.5-.6,1.1-.7,1.9s-.2,1.5-.2,2.3,0,1.4.2,2c.1.6.3,1.1.6,1.5.3.4.6.6,1,.6Z"/>
    <path class="st1" d="M283.7,284.3c-1,0-1.8-.3-2.4-.8-.6-.5-.9-1.4-.9-2.5s0-1.3.2-2.1c.2-.7.3-1.4.5-2,.2-.6.3-1,.4-1.5,0-.4.1-.7.1-1s0-.5-.2-.6-.3-.2-.4-.2c-.4,0-.8.2-1,.6h-.1c0-.7.2-1.2.6-1.7.4-.5.8-.9,1.4-1.2s1.2-.4,1.7-.4,1.2.2,1.7.6c.5.4.7,1,.7,1.8,0,.4,0,.8-.2,1.4s-.3,1.2-.5,2c-.1.5-.2,1-.4,1.7-.1.6-.2,1.2-.2,1.7s0,.7.2.9c.1.2.3.3.6.3s.8-.2,1.2-.6c.4-.4.8-1.1,1.2-2s.5-2.2.6-3.7c0-1.2,0-2-.2-2.6h0c.2-.4.4-.6.7-.8.3-.2.7-.4,1.1-.6.4-.1.8-.2,1.1-.2.6,0,1,.3,1.4.8.4.5.6,1.5.5,2.8,0,1.3-.3,2.5-.7,3.5-.4,1-1,2-1.7,2.7-.7.8-1.4,1.4-2.2,2-.8.5-1.6.9-2.5,1.2s-1.6.4-2.3.4Z"/>
    <path class="st1" d="M297.3,284.3c-.7,0-1.3-.2-1.8-.7s-.8-1.2-.8-2.3,0-1.2.2-1.7c.2-.5.4-1,.6-1.6.2-.5.4-1,.6-1.5.2-.5.2-1,.2-1.4s0-.7-.2-.9c-.1-.2-.3-.3-.5-.3-.3,0-.6.2-.9.6h-.2c0-.8.3-1.4.7-1.9s.8-.9,1.4-1.2,1.1-.4,1.6-.4,1.2.2,1.7.6c.5.4.7,1.1.7,2.1s0,1.2-.2,1.8c-.2.6-.4,1.3-.6,1.9-.2.6-.4,1.2-.6,1.7-.2.5-.2,1-.2,1.4s0,.6.2.7c.1.1.3.2.4.2s.3,0,.5-.1.3-.2.3-.3h.2c0,.7-.2,1.3-.5,1.7s-.8.9-1.3,1.1-1,.4-1.6.4ZM299.2,270.2c-.7,0-1.3-.2-1.7-.6-.4-.4-.7-1-.7-1.6s.3-1.3.8-1.8c.5-.5,1.2-.8,1.9-.8s1.3.2,1.7.7c.4.4.7,1,.7,1.6s-.3,1.3-.8,1.8c-.5.5-1.2.7-1.9.7Z"/>
    <path class="st1" d="M302.2,289.4c-.8,0-1.4-.1-2-.4s-.9-.6-1.2-1.1c-.3-.4-.4-.9-.4-1.4,0-.7.3-1.3.9-1.9.6-.6,1.5-.8,2.8-.8-.2.4-.4.8-.5,1.2-.1.3-.2.7-.2,1,0,.4,0,.8.3,1,.2.2.4.3.6.3.4,0,.6-.3.7-1s.1-1.5.1-2.6v-1.4c0-1.8,0-3.7.2-5.4.1-1.8.5-3.5,1-5.2.6-.4,1.3-.6,2.1-.6s1,0,1.4.3c.5.2.8.5.9.8-.5,1.5-.9,3-1.1,4.5-.3,1.5-.5,3.2-.8,5.1-.1,1-.3,1.9-.5,2.8s-.4,1.7-.8,2.4c-.3.7-.8,1.3-1.3,1.7s-1.3.6-2.3.6ZM307.2,270.2c-.7,0-1.3-.2-1.7-.6-.4-.4-.7-1-.7-1.6s.3-1.3.8-1.8c.5-.5,1.2-.8,1.9-.8s1.3.2,1.7.7c.4.4.7,1,.7,1.6s-.3,1.3-.8,1.8c-.5.5-1.2.7-1.9.7Z"/>
    <path class="st1" d="M315.3,284.4c-1.3,0-2.3-.3-3.2-.8-.8-.5-1.5-1.2-1.9-2-.4-.8-.6-1.8-.6-2.7s.2-1.8.5-2.8.9-1.8,1.6-2.5,1.5-1.4,2.5-1.9c1-.5,2.1-.7,3.3-.7s2.6.3,3.4,1c.7.7,1.1,1.5,1.1,2.5s-.2,1.6-.7,2.3c-.4.7-1,1.3-1.8,1.7-.7.4-1.5.6-2.4.6s-.9,0-1.4-.2c-.5-.1-.9-.4-1.4-.7,0,1.1.4,1.9.9,2.3.5.5,1.2.7,1.9.7s1,0,1.6-.3c.5-.2,1-.5,1.4-.8.4-.3.8-.7,1-1h.2c0,1-.2,1.8-.6,2.4-.4.6-.9,1.2-1.5,1.6-.6.4-1.3.7-2,.9-.7.2-1.4.3-2.2.3ZM315.9,277.3c.6,0,1-.2,1.4-.5.3-.3.6-.7.8-1.1.2-.4.3-.8.3-1.1s-.1-.7-.3-1c-.2-.3-.5-.4-.9-.4s-.7.1-1,.3c-.4.2-.7.6-1,1.2s-.5,1.3-.6,2.3c.6.3,1.1.4,1.5.4Z"/>
    <path class="st1" d="M327.7,284.4c-1.1,0-2-.1-2.7-.4-.7-.3-1.2-.7-1.6-1.1-.3-.5-.5-.9-.5-1.4s.3-1.2.9-1.8c.6-.5,1.4-.8,2.4-.8,0,.9.1,1.6.3,2.1.2.5.5.9.9,1.1.4.2.7.3,1,.3s.7-.1,1-.4c.3-.2.4-.5.4-.9s-.3-.9-.8-1.3c-.5-.4-1.2-.8-2-1.2-.4-.2-.8-.5-1.3-.8-.5-.3-.9-.7-1.2-1.2s-.5-1-.5-1.7.2-1.3.6-1.8c.4-.5.9-1,1.6-1.3.6-.4,1.3-.6,2.1-.8s1.5-.3,2.2-.3c1.3,0,2.3.3,3,.8.7.5,1,1.1,1,1.7s-.3,1-.8,1.4c-.5.4-1.3.6-2.4.6,0-.9-.2-1.5-.5-1.9-.4-.4-.8-.6-1.2-.6s-.6,0-.8.3-.3.5-.3.8.1.8.4,1.1c.3.3.6.6,1,.8.4.2.8.5,1.3.7.6.3,1.1.6,1.7.9.5.3.9.7,1.3,1.1.3.4.5.9.5,1.5s-.3,1.5-1,2.2c-.6.7-1.5,1.2-2.5,1.6-1.1.4-2.2.6-3.5.6Z"/>
    <path class="st1" d="M339.2,284.3c-.6,0-1.2-.3-1.7-.8-.5-.5-.8-1.2-.8-2.2s0-1,.2-1.5.3-1.2.4-1.7c.1-.6.3-1.1.4-1.7.1-.5.2-.9.2-1.3s0-.6-.2-.8c-.1-.2-.3-.3-.5-.3s-.6.2-1,.5h-.2c0-.4,0-.7.2-1.1.1-.4.4-.8.6-1.1.3-.4.7-.7,1.1-.9.5-.2,1-.4,1.6-.4.9,0,1.6.3,2,.8.4.5.7,1.2.7,1.9s0,.5,0,.8c.4-.5.8-1.1,1.4-1.6s1.1-1,1.8-1.4c.7-.4,1.3-.5,2-.5s1.4.3,1.7.8c.3.5.4,1.2.4,2s0,1.5-.2,2.3c-.2.8-.3,1.6-.5,2.4-.2.8-.2,1.4-.2,1.9s.2,1,.6,1,.4,0,.5-.2c.2-.1.3-.3.3-.4h.2c0,.7-.2,1.3-.5,1.8-.4.5-.8.9-1.3,1.1s-1.1.4-1.6.4-1.3-.2-1.8-.7c-.5-.5-.8-1.2-.8-2.3s0-1.3.2-2c.2-.7.3-1.4.5-2.1.2-.7.2-1.2.2-1.7s0-.5-.1-.6c0-.1-.3-.2-.5-.2-.4,0-.8.2-1.3.5s-.9.9-1.2,1.5-.5,1.3-.5,2,0,.9.2,1.4c.1.4.2.9.2,1.4,0,.9-.2,1.7-.7,2.1s-1.1.7-1.7.7Z"/>
    <path class="st1" d="M357.1,284.4c-1.3,0-2.3-.3-3.2-.8-.8-.5-1.5-1.2-1.9-2-.4-.8-.6-1.8-.6-2.7s.2-1.8.5-2.8.9-1.8,1.6-2.5,1.5-1.4,2.5-1.9c1-.5,2.1-.7,3.3-.7s2.6.3,3.4,1c.7.7,1.1,1.5,1.1,2.5s-.2,1.6-.7,2.3c-.4.7-1,1.3-1.8,1.7-.7.4-1.5.6-2.4.6s-.9,0-1.4-.2c-.5-.1-.9-.4-1.4-.7,0,1.1.4,1.9.9,2.3.5.5,1.2.7,1.9.7s1,0,1.6-.3c.5-.2,1-.5,1.4-.8.4-.3.8-.7,1-1h.2c0,1-.2,1.8-.6,2.4-.4.6-.9,1.2-1.5,1.6-.6.4-1.3.7-2,.9-.7.2-1.4.3-2.2.3ZM357.7,277.3c.6,0,1-.2,1.4-.5.3-.3.6-.7.8-1.1.2-.4.3-.8.3-1.1s-.1-.7-.3-1c-.2-.3-.5-.4-.9-.4s-.7.1-1,.3c-.4.2-.7.6-1,1.2s-.5,1.3-.6,2.3c.6.3,1.1.4,1.5.4Z"/>
    <path class="st1" d="M372.7,284.3c-.5,0-.9-.1-1.4-.4-.4-.2-.8-.6-1.1-1.1-.3-.5-.4-1.2-.4-2s0-1.6.3-2.6c.2-1,.4-2,.7-3.1.3-1.1.5-2.1.7-3.1.2-1,.3-1.9.3-2.7,0-.7,0-1.3-.3-1.6h0c.2-.6.5-1.1,1-1.4.5-.3,1-.5,1.5-.5s1.2.2,1.6.7.7,1.2.7,2.3,0,1.3-.2,2c-.1.8-.3,1.6-.5,2.5-.2.9-.4,1.8-.6,2.6s-.4,1.7-.5,2.4-.2,1.3-.2,1.8,0,.8.2,1,.3.3.5.3.4,0,.5-.2c.2-.1.3-.3.3-.4h.2c0,.7-.2,1.2-.5,1.7-.3.5-.8.9-1.3,1.1-.5.3-1,.4-1.6.4Z"/>
    <path class="st1" d="M377.2,289.4c-.8,0-1.4-.1-2-.4s-.9-.6-1.2-1.1c-.3-.4-.4-.9-.4-1.4,0-.7.3-1.3.9-1.9.6-.6,1.5-.8,2.8-.8-.2.4-.4.8-.5,1.2-.1.3-.2.7-.2,1,0,.4,0,.8.3,1,.2.2.4.3.6.3.4,0,.6-.3.7-1s.1-1.5.1-2.6v-1.4c0-1.8,0-3.7.2-5.4.1-1.8.5-3.5,1-5.2.6-.4,1.3-.6,2.1-.6s1,0,1.4.3c.5.2.8.5.9.8-.5,1.5-.9,3-1.1,4.5-.3,1.5-.5,3.2-.8,5.1-.1,1-.3,1.9-.5,2.8s-.4,1.7-.8,2.4c-.3.7-.8,1.3-1.3,1.7s-1.3.6-2.3.6ZM382.2,270.2c-.7,0-1.3-.2-1.7-.6-.4-.4-.7-1-.7-1.6s.3-1.3.8-1.8c.5-.5,1.2-.8,1.9-.8s1.3.2,1.7.7c.4.4.7,1,.7,1.6s-.3,1.3-.8,1.8c-.5.5-1.2.7-1.9.7Z"/>
    <path class="st1" d="M390.3,284.4c-1.3,0-2.3-.3-3.2-.8-.8-.5-1.5-1.2-1.9-2-.4-.8-.6-1.8-.6-2.7s.2-1.8.5-2.8.9-1.8,1.6-2.5,1.5-1.4,2.5-1.9c1-.5,2.1-.7,3.3-.7s2.6.3,3.4,1c.7.7,1.1,1.5,1.1,2.5s-.2,1.6-.7,2.3c-.4.7-1,1.3-1.8,1.7-.7.4-1.5.6-2.4.6s-.9,0-1.4-.2c-.5-.1-.9-.4-1.4-.7,0,1.1.4,1.9.9,2.3.5.5,1.2.7,1.9.7s1,0,1.6-.3c.5-.2,1-.5,1.4-.8.4-.3.8-.7,1-1h.2c0,1-.2,1.8-.6,2.4-.4.6-.9,1.2-1.5,1.6-.6.4-1.3.7-2,.9-.7.2-1.4.3-2.2.3ZM390.9,277.3c.6,0,1-.2,1.4-.5.3-.3.6-.7.8-1.1.2-.4.3-.8.3-1.1s-.1-.7-.3-1c-.2-.3-.5-.4-.9-.4s-.7.1-1,.3c-.4.2-.7.6-1,1.2s-.5,1.3-.6,2.3c.6.3,1.1.4,1.5.4Z"/>
    <path class="st1" d="M400.8,289.4c-.4,0-.8-.1-1.2-.3-.4-.2-.7-.6-1-1.1-.3-.5-.4-1.2-.4-2s.1-1.7.3-2.7c.2-1,.5-1.9.7-2.9s.5-1.9.7-2.8c.2-.9.3-1.6.3-2.3s0-.8-.2-1c-.1-.2-.3-.3-.5-.3s-.3,0-.5.2-.3.2-.4.4h-.2c0-.7.2-1.3.5-1.8.4-.5.8-.9,1.4-1.2.6-.3,1.1-.5,1.7-.5s1,.1,1.4.4.6.7.8,1.1.3.9.3,1.5c.7-1,1.4-1.8,2.2-2.3.8-.5,1.5-.8,2.2-.8s1.7.4,2.4,1.3c.7.9,1,2.3,1,4.1s-.3,3.2-.8,4.4c-.6,1.2-1.3,2.1-2.1,2.6s-1.7.9-2.6.9-1.4-.2-2.1-.7c-.6-.4-1.1-1.1-1.5-1.9-.2.7-.3,1.4-.4,2.1s-.2,1.4-.2,2,0,.7,0,1.1c0,.3.1.7.2,1v.2c-.2.4-.5.8-1,1-.4.2-.8.3-1.3.3ZM405.6,281.8c.4,0,.8-.2,1.1-.5.3-.3.6-.8.8-1.3.2-.5.4-1.1.5-1.7.1-.6.2-1.2.2-1.8s0-1.4-.3-1.9c-.2-.5-.5-.8-.9-.8s-1.1.5-1.7,1.5c-.6,1-1.1,2.6-1.5,4.6.2.5.4,1,.7,1.3s.7.5,1,.5Z"/>
    <path class="st1" d="M419.7,284.4c-1.3,0-2.4-.3-3.2-.8-.9-.5-1.5-1.2-1.9-2.1s-.6-1.8-.6-2.8.2-1.8.5-2.8c.3-.9.8-1.8,1.5-2.5s1.4-1.4,2.4-1.8,2-.7,3.2-.7,2.4.3,3.2.8c.8.5,1.5,1.2,1.9,2.1.4.9.6,1.8.6,2.8s-.2,1.8-.5,2.7-.8,1.7-1.5,2.5c-.7.8-1.4,1.4-2.4,1.8-.9.5-2,.7-3.2.7ZM420.4,282.2c.5,0,.9-.2,1.2-.7.3-.5.5-1.1.7-1.9.2-.8.2-1.5.2-2.3s0-1.4-.2-2c-.1-.6-.3-1.1-.6-1.5s-.6-.6-1-.6-.8.2-1.2.7c-.3.5-.6,1.1-.7,1.9s-.2,1.5-.2,2.3,0,1.4.2,2c.1.6.3,1.1.6,1.5.3.4.6.6,1,.6Z"/>
    <path class="st1" d="M432.5,284.3c-.6,0-1.1-.1-1.6-.4-.5-.3-.9-.6-1.2-1.2s-.5-1.2-.5-2.1,0-1,.1-1.8c0-.7.2-1.5.4-2.4.1-.9.3-1.7.5-2.6-.3,0-.7,0-1,.1-.3,0-.6.1-1,.2v-.2c.3-.4.7-.8,1-1.1.4-.3.8-.5,1.2-.7.2-1.1.4-2.1.6-3,.2-.8.2-1.3.2-1.5,0-.3.2-.5.7-.7s1-.3,1.6-.3,1,0,1.4.3c.4.2.7.5.9,1-.1.1-.3.5-.4,1.2s-.4,1.5-.6,2.4c.3,0,.7,0,1,0,.3,0,.7,0,1.1,0,0,.1,0,.2,0,.3,0,.1,0,.3,0,.4,0,.3,0,.5-.1.8,0,.3-.2.6-.3.8-.4,0-.8,0-1.2-.1-.4,0-.7,0-1.1,0-.1.7-.3,1.5-.4,2.2-.1.7-.2,1.4-.3,2,0,.6,0,1.1,0,1.4,0,.7.1,1.2.4,1.5.3.2.6.4,1,.4s.7,0,.9-.2c.3-.1.5-.3.6-.5h.3c-.1.8-.4,1.4-.8,1.9-.5.5-1,.9-1.6,1.2s-1.3.4-1.9.4Z"/>
    <path class="st1" d="M443.3,284.4c-1.3,0-2.3-.3-3.2-.8-.8-.5-1.5-1.2-1.9-2-.4-.8-.6-1.8-.6-2.7s.2-1.8.5-2.8.9-1.8,1.6-2.5,1.5-1.4,2.5-1.9c1-.5,2.1-.7,3.3-.7s2.6.3,3.4,1c.7.7,1.1,1.5,1.1,2.5s-.2,1.6-.7,2.3c-.4.7-1,1.3-1.8,1.7-.7.4-1.5.6-2.4.6s-.9,0-1.4-.2c-.5-.1-.9-.4-1.4-.7,0,1.1.4,1.9.9,2.3.5.5,1.2.7,1.9.7s1,0,1.6-.3c.5-.2,1-.5,1.4-.8.4-.3.8-.7,1-1h.2c0,1-.2,1.8-.6,2.4-.4.6-.9,1.2-1.5,1.6-.6.4-1.3.7-2,.9-.7.2-1.4.3-2.2.3ZM443.9,277.3c.6,0,1-.2,1.4-.5.3-.3.6-.7.8-1.1.2-.4.3-.8.3-1.1s-.1-.7-.3-1c-.2-.3-.5-.4-.9-.4s-.7.1-1,.3c-.4.2-.7.6-1,1.2s-.5,1.3-.6,2.3c.6.3,1.1.4,1.5.4Z"/>
    <path class="st1" d="M148.7,315.6c-.7,0-1.3-.2-1.8-.7-.5-.5-.8-1.2-.8-2.3s0-1.2.2-1.7c.2-.5.4-1,.6-1.6.2-.5.4-1,.6-1.5.2-.5.2-1,.2-1.4s0-.7-.2-.9-.3-.3-.5-.3c-.3,0-.6.2-.9.6h-.2c0-.8.3-1.4.7-1.9.4-.5.8-.9,1.4-1.2.5-.3,1.1-.4,1.6-.4s1.2.2,1.7.6c.5.4.7,1.1.7,2.1s0,1.2-.2,1.8c-.2.6-.4,1.3-.6,1.9-.2.6-.4,1.2-.6,1.7-.2.5-.2,1-.2,1.4s0,.6.2.7c.1.1.3.2.4.2s.3,0,.5-.1c.1,0,.3-.2.3-.3h.2c0,.7-.2,1.3-.5,1.7s-.8.9-1.3,1.1c-.5.3-1,.4-1.6.4ZM150.5,301.6c-.7,0-1.3-.2-1.7-.6-.4-.4-.7-1-.7-1.6s.3-1.3.8-1.8c.5-.5,1.2-.8,1.9-.8s1.3.2,1.7.7c.4.4.7,1,.7,1.6s-.3,1.3-.8,1.8c-.5.5-1.2.7-1.9.7Z"/>
    <path class="st1" d="M161.6,315.6c-.6,0-1.2-.3-1.7-.8-.5-.5-.7-1.2-.7-2.1s0-1,.2-1.6c.1-.6.3-1.2.4-1.8.1-.6.3-1.2.4-1.7.1-.5.2-1,.2-1.4s0-.5-.2-.7-.3-.3-.5-.3-.6.2-1,.5h-.2c0-.4,0-.7.2-1.1.1-.4.4-.8.7-1.1.3-.4.7-.7,1.2-.9.5-.2,1.1-.4,1.8-.4s1.4.3,1.8.8c.4.5.6,1.2.6,2v.3c0,0,0,.2,0,.3.3-.5.7-1.1,1.2-1.6.4-.5.9-.9,1.5-1.3.6-.3,1.2-.5,1.8-.5s1.4.3,1.8.8.5,1.2.5,1.9,0,.3,0,.4c0,.1,0,.3,0,.4.4-.5.8-1.1,1.2-1.6.4-.5,1-1,1.5-1.3.6-.4,1.2-.5,2-.5s1.6.3,1.9.8.5,1.2.5,1.9,0,1.4-.2,2.2c-.2.8-.3,1.6-.5,2.4s-.2,1.5-.2,2,0,.6.1.8c0,.2.3.3.5.3s.4,0,.5-.2c.2-.1.3-.2.4-.4h.2c0,.7-.2,1.3-.5,1.8-.4.5-.8.9-1.4,1.1s-1.1.4-1.7.4-1.3-.2-1.8-.7c-.5-.5-.8-1.2-.8-2.2s0-1.3.2-2.1c.2-.7.3-1.5.5-2.2.2-.7.2-1.3.2-1.7,0-.6-.2-1-.7-1s-.7.1-1,.4c-.3.3-.6.6-.9,1.1-.3.4-.5.9-.6,1.4-.2.5-.2,1-.2,1.4s0,.9.1,1.4c0,.5.1,1,.1,1.4,0,.9-.3,1.6-.8,2.1-.5.5-1.1.7-1.8.7s-1.2-.2-1.7-.6c-.5-.4-.7-1-.7-1.9s0-.8.2-1.4c.1-.5.2-1.1.4-1.7.1-.6.2-1.2.4-1.7.1-.6.2-1,.2-1.5s0-.6-.1-.8c0-.2-.3-.3-.6-.3-.4,0-.8.2-1.1.6-.4.4-.7.9-.9,1.4-.3.6-.4,1.1-.5,1.6,0,.1,0,.3,0,.4,0,.5,0,1,.2,1.5.1.4.2.9.2,1.4,0,.9-.3,1.6-.8,2.1-.5.6-1.1.8-1.8.8Z"/>
    <path class="st1" d="M186.3,315.7c-1.3,0-2.4-.3-3.2-.8-.9-.5-1.5-1.2-1.9-2.1s-.6-1.8-.6-2.8.2-1.8.5-2.8c.3-.9.8-1.8,1.5-2.5s1.4-1.4,2.4-1.8,2-.7,3.2-.7,2.4.3,3.2.8c.8.5,1.5,1.2,1.9,2.1.4.9.6,1.8.6,2.8s-.2,1.8-.5,2.7c-.3.9-.8,1.7-1.5,2.5s-1.4,1.4-2.4,1.8c-.9.5-2,.7-3.2.7ZM187,313.5c.5,0,.9-.2,1.2-.7.3-.5.5-1.1.7-1.9.2-.8.2-1.5.2-2.3s0-1.4-.2-2c-.1-.6-.3-1.1-.6-1.5-.3-.4-.6-.6-1-.6s-.8.2-1.2.7c-.3.5-.6,1.1-.7,1.9-.2.7-.2,1.5-.2,2.3s0,1.4.2,2c.1.6.3,1.1.6,1.5.3.4.6.6,1,.6Z"/>
    <path class="st1" d="M199.1,315.6c-.6,0-1.2-.2-1.8-.7-.5-.4-1-1.1-1.3-1.9-.3-.8-.5-1.8-.5-3s.2-2.3.5-3.3c.3-1,.8-1.8,1.4-2.4s1.2-1.2,1.9-1.5c.7-.3,1.3-.5,2-.5s1.3.2,1.9.7c.6.4.9,1.1,1.1,2.1.2-.9.3-1.7.4-2.5.1-.8.2-1.5.2-2.1s-.1-1.4-.3-1.7v-.2c.4-.5.8-.8,1.3-1,.5-.2.9-.3,1.4-.3s1.1.2,1.5.5c.4.4.6.9.6,1.5s0,.9-.2,1.6c-.1.7-.3,1.5-.4,2.4-.2.9-.4,1.9-.5,2.8-.2,1-.3,1.9-.5,2.8-.1.9-.2,1.6-.2,2.3s0,1,.2,1.3.3.5.6.5.4,0,.6-.2c.2-.1.3-.3.4-.5h.2c0,.7-.2,1.2-.5,1.7s-.8.9-1.4,1.2c-.6.3-1.1.4-1.7.4s-1.2-.2-1.5-.5c-.4-.4-.6-.8-.8-1.4-.2-.6-.2-1.1-.3-1.7-.5,1.3-1.2,2.2-1.9,2.8-.7.6-1.4.9-2.2.9ZM200.8,312.3c.5,0,1-.4,1.5-1.2.6-.8,1-2,1.5-3.6l.2-.8c-.3-.6-.6-1.1-.9-1.4-.3-.3-.6-.4-.9-.4-.4,0-.8.2-1.2.7-.4.5-.7,1.1-.9,1.8-.2.7-.4,1.5-.4,2.3s.1,1.4.3,1.8c.2.4.5.7.9.7Z"/>
    <path class="st1" d="M216,315.7c-1.3,0-2.3-.3-3.2-.8s-1.5-1.2-1.9-2c-.4-.8-.6-1.8-.6-2.7s.2-1.8.5-2.8c.4-.9.9-1.8,1.6-2.5.7-.8,1.5-1.4,2.5-1.9s2.1-.7,3.3-.7,2.6.3,3.4,1,1.1,1.5,1.1,2.5-.2,1.6-.7,2.3c-.4.7-1,1.3-1.8,1.7-.7.4-1.5.6-2.4.6s-.9,0-1.4-.2c-.5-.1-.9-.4-1.4-.7,0,1.1.4,1.9.9,2.3.5.5,1.2.7,1.9.7s1,0,1.6-.3c.5-.2,1-.5,1.4-.8.4-.3.8-.7,1-1h.2c0,1-.2,1.8-.6,2.4-.4.6-.9,1.2-1.5,1.6-.6.4-1.3.7-2,.9-.7.2-1.4.3-2.2.3ZM216.6,308.7c.6,0,1-.2,1.4-.5.3-.3.6-.7.8-1.1.2-.4.3-.8.3-1.1s-.1-.7-.3-1c-.2-.3-.5-.4-.9-.4s-.7.1-1,.3c-.4.2-.7.6-1,1.2s-.5,1.3-.6,2.3c.6.3,1.1.4,1.5.4Z"/>
    <path class="st1" d="M227.1,315.6c-.6,0-1.2-.3-1.7-.8-.5-.5-.7-1.2-.7-2.2s0-1,.2-1.5.2-1.2.4-1.8.3-1.2.4-1.7c.1-.5.2-1,.2-1.3s0-.7-.2-.9c-.1-.2-.3-.3-.5-.3-.3,0-.7.2-1,.7h-.2c0-.4,0-.7.2-1.1s.4-.8.7-1.1c.3-.4.7-.7,1.1-.9.5-.2,1-.4,1.6-.4.9,0,1.6.3,2,.8.4.5.6,1.2.6,1.9s0,.2,0,.4c0,.1,0,.3,0,.4.6-1.1,1.3-2,2-2.6.7-.6,1.3-.9,1.9-.9s1,.2,1.2.7c.3.4.4,1,.4,1.6s-.1,1.1-.3,1.7c-.2.6-.5,1-1,1.4s-.9.6-1.6.5h-.1c0-.5-.2-.9-.4-1.1s-.6-.4-.9-.4-.9.2-1.3.7-.6,1.1-.6,2,0,1.1.2,1.7c.1.6.2,1.2.2,1.6s-.1,1-.4,1.4-.6.8-.9,1c-.4.3-.8.4-1.3.4Z"/>
    <path class="st1" d="M239.3,315.6c-.6,0-1.2-.3-1.7-.8-.5-.5-.8-1.2-.8-2.2s0-1,.2-1.5.3-1.2.4-1.7c.1-.6.3-1.1.4-1.7.1-.5.2-.9.2-1.3s0-.6-.2-.8c-.1-.2-.3-.3-.5-.3s-.6.2-1,.5h-.2c0-.4,0-.7.2-1.1s.4-.8.6-1.1c.3-.4.7-.7,1.1-.9.5-.2,1-.4,1.6-.4.9,0,1.6.3,2,.8.4.5.7,1.2.7,1.9s0,.5,0,.8c.4-.5.8-1.1,1.4-1.6s1.1-1,1.8-1.4c.7-.4,1.3-.5,2-.5s1.4.3,1.7.8.4,1.2.4,2,0,1.5-.2,2.3-.3,1.6-.5,2.4-.2,1.4-.2,1.9.2,1,.6,1,.4,0,.5-.2c.2-.1.3-.3.3-.4h.2c0,.7-.2,1.3-.5,1.8s-.8.9-1.3,1.1c-.5.3-1.1.4-1.6.4s-1.3-.2-1.8-.7c-.5-.5-.8-1.2-.8-2.3s0-1.3.2-2c.2-.7.3-1.4.5-2.1.2-.7.2-1.2.2-1.7s0-.5-.1-.6c0-.1-.3-.2-.5-.2-.4,0-.8.2-1.3.5-.5.4-.9.9-1.2,1.5s-.5,1.3-.5,2,0,.9.2,1.4c.1.4.2.9.2,1.4,0,.9-.2,1.7-.7,2.1-.5.5-1.1.7-1.7.7Z"/>
    <path class="st1" d="M257.2,315.7c-1.3,0-2.3-.3-3.2-.8s-1.5-1.2-1.9-2c-.4-.8-.6-1.8-.6-2.7s.2-1.8.5-2.8c.4-.9.9-1.8,1.6-2.5.7-.8,1.5-1.4,2.5-1.9s2.1-.7,3.3-.7,2.6.3,3.4,1,1.1,1.5,1.1,2.5-.2,1.6-.7,2.3c-.4.7-1,1.3-1.8,1.7-.7.4-1.5.6-2.4.6s-.9,0-1.4-.2c-.5-.1-.9-.4-1.4-.7,0,1.1.4,1.9.9,2.3.5.5,1.2.7,1.9.7s1,0,1.6-.3c.5-.2,1-.5,1.4-.8.4-.3.8-.7,1-1h.2c0,1-.2,1.8-.6,2.4-.4.6-.9,1.2-1.5,1.6-.6.4-1.3.7-2,.9-.7.2-1.4.3-2.2.3ZM257.8,308.7c.6,0,1-.2,1.4-.5.3-.3.6-.7.8-1.1.2-.4.3-.8.3-1.1s-.1-.7-.3-1c-.2-.3-.5-.4-.9-.4s-.7.1-1,.3c-.4.2-.7.6-1,1.2s-.5,1.3-.6,2.3c.6.3,1.1.4,1.5.4Z"/>
    <path class="st1" d="M275.5,315.7c-1.3,0-2.3-.3-3.2-.8s-1.5-1.2-1.9-2c-.4-.8-.6-1.8-.6-2.7s.2-1.8.5-2.8c.4-.9.9-1.8,1.6-2.5.7-.8,1.5-1.4,2.5-1.9s2.1-.7,3.3-.7,2.6.3,3.4,1,1.1,1.5,1.1,2.5-.2,1.6-.7,2.3c-.4.7-1,1.3-1.8,1.7-.7.4-1.5.6-2.4.6s-.9,0-1.4-.2c-.5-.1-.9-.4-1.4-.7,0,1.1.4,1.9.9,2.3.5.5,1.2.7,1.9.7s1,0,1.6-.3,1-.5,1.4-.8c.4-.3.8-.7,1-1h.2c0,1-.2,1.8-.6,2.4-.4.6-.9,1.2-1.5,1.6-.6.4-1.3.7-2,.9-.7.2-1.4.3-2.2.3ZM276.1,308.7c.6,0,1-.2,1.4-.5s.6-.7.8-1.1c.2-.4.3-.8.3-1.1s-.1-.7-.3-1c-.2-.3-.5-.4-.9-.4s-.7.1-1,.3c-.4.2-.7.6-1,1.2-.3.5-.5,1.3-.6,2.3.6.3,1.1.4,1.5.4Z"/>
    <path class="st1" d="M286.3,315.6c-.5,0-.9-.1-1.4-.4-.4-.2-.8-.6-1.1-1.1-.3-.5-.4-1.2-.4-2s.1-1.6.3-2.6c.2-1,.4-2,.7-3.1.3-1.1.5-2.1.7-3.1.2-1,.3-1.9.3-2.7,0-.7,0-1.3-.3-1.6h0c.2-.6.5-1.1,1-1.4.5-.3,1-.5,1.5-.5s1.2.2,1.6.7.7,1.2.7,2.3,0,1.3-.2,2c-.1.8-.3,1.6-.5,2.5-.2.9-.4,1.8-.6,2.6-.2.9-.4,1.7-.5,2.4-.1.7-.2,1.3-.2,1.8s0,.8.2,1c.1.2.3.3.5.3s.4,0,.5-.2c.2-.1.3-.3.3-.4h.2c0,.7-.2,1.2-.5,1.7s-.8.9-1.3,1.1c-.5.3-1,.4-1.6.4Z"/>
    <path class="st1" d="M296.7,315.7c-1.3,0-2.3-.3-3.2-.8-.8-.5-1.5-1.2-1.9-2-.4-.8-.6-1.8-.6-2.7s.2-1.8.5-2.8c.4-.9.9-1.8,1.6-2.5.7-.8,1.5-1.4,2.5-1.9s2.1-.7,3.3-.7,2.6.3,3.4,1c.7.7,1.1,1.5,1.1,2.5s-.2,1.6-.7,2.3c-.4.7-1,1.3-1.8,1.7-.7.4-1.5.6-2.4.6s-.9,0-1.4-.2c-.5-.1-.9-.4-1.4-.7,0,1.1.4,1.9.9,2.3.5.5,1.2.7,1.9.7s1,0,1.6-.3,1-.5,1.4-.8c.4-.3.8-.7,1-1h.2c0,1-.2,1.8-.6,2.4-.4.6-.9,1.2-1.5,1.6-.6.4-1.3.7-2,.9-.7.2-1.4.3-2.2.3ZM297.3,308.7c.6,0,1-.2,1.4-.5s.6-.7.8-1.1c.2-.4.3-.8.3-1.1s-.1-.7-.3-1-.5-.4-.9-.4-.7.1-1,.3c-.4.2-.7.6-1,1.2-.3.5-.5,1.3-.6,2.3.6.3,1.1.4,1.5.4Z"/>
    <path class="st1" d="M311.1,320.7c-.9,0-1.6-.3-2.1-.8-.6-.5-.8-1.2-.8-2.1s.3-2.2,1-3.5c-.1,0-.2,0-.4,0s-.2,0-.4,0c-1,0-1.9-.4-2.5-1.3-.7-.9-1-2.1-1-3.7s.3-2.7.8-3.7c.5-1.1,1.2-1.9,2.1-2.5.9-.6,1.7-.9,2.7-.9s1.2.2,1.7.5c.5.3.9.8,1.3,1.6,0-.2,0-.3,0-.5v-.4c0-.3.2-.5.7-.7.5-.2,1-.3,1.5-.3s1,0,1.4.3c.4.2.7.5.9,1v.2c-.1.1-.2.6-.4,1.4-.1.8-.2,1.8-.4,3.2-.1.9-.2,1.8-.4,2.9-.2,1.1-.4,2.2-.6,3.3s-.6,2.1-1.1,3.1c-.4.9-1,1.7-1.6,2.2s-1.5.8-2.4.8ZM310.2,311.5c.5,0,1.1-.4,1.7-1.2.6-.8,1.1-2,1.5-3.6-.3-.7-.6-1.2-1-1.4s-.6-.4-1-.4-.8.2-1.2.7-.7,1-.9,1.7c-.2.7-.4,1.4-.4,2.1s.1,1.3.4,1.7c.2.4.5.6.9.6ZM309.9,317.7c.6,0,1.2-.6,1.8-1.7.6-1.2,1-2.8,1.3-4.9-1.3,1.8-2.2,3.2-2.8,4.1-.5,1-.8,1.6-.8,2s.1.4.4.4Z"/>
    <path class="st1" d="M328.6,315.7c-.6,0-1.1-.2-1.6-.6s-.7-1.1-.7-2v-.3c0,0,0-.2,0-.3-.5,1-1.1,1.8-1.8,2.3-.7.5-1.3.7-2,.7s-1.2-.2-1.7-.6c-.5-.4-1-1.1-1.3-1.9-.3-.8-.5-1.8-.5-3s.2-2.3.5-3.3c.3-1,.8-1.8,1.3-2.4s1.2-1.2,1.8-1.5c.7-.3,1.3-.5,1.9-.5s1.3.2,1.9.6c.6.4.9,1.1,1.1,2,0-.3,0-.6.1-.8,0-.2,0-.4,0-.5,0-.5.3-.8.7-1,.5-.2,1-.3,1.5-.3s.9,0,1.4.3.7.5.9,1v.2c-.2.5-.4,1-.6,1.7-.2.7-.4,1.4-.6,2.1s-.3,1.4-.4,2.1c-.1.7-.2,1.3-.2,1.8s0,1,.2,1.2c.1.2.3.3.4.3.3,0,.6-.2.8-.6h.2c0,.7-.2,1.2-.6,1.7-.4.5-.9.9-1.4,1.2s-1.1.4-1.7.4ZM324.3,312.3c.5,0,1-.4,1.5-1.2.5-.8,1-2,1.4-3.5,0-.2,0-.3.1-.5,0-.1,0-.3,0-.4-.3-.6-.6-1.1-.9-1.4-.3-.3-.6-.4-.9-.4-.4,0-.8.2-1.2.7s-.7,1-.9,1.7c-.2.7-.4,1.4-.4,2.1s.1,1.7.3,2.1.5.7.8.7Z"/>
    <path class="st1" d="M336.9,315.6c-.6,0-1.2-.3-1.7-.8-.5-.5-.8-1.2-.8-2.2s0-1,.2-1.5.3-1.2.4-1.7c.1-.6.3-1.1.4-1.7.1-.5.2-.9.2-1.3s0-.6-.2-.8c-.1-.2-.3-.3-.5-.3s-.6.2-1,.5h-.2c0-.4,0-.7.2-1.1.1-.4.4-.8.6-1.1.3-.4.7-.7,1.1-.9.5-.2,1-.4,1.6-.4.9,0,1.6.3,2,.8.4.5.7,1.2.7,1.9s0,.5,0,.8c.4-.5.8-1.1,1.4-1.6s1.1-1,1.8-1.4c.7-.4,1.3-.5,2-.5s1.4.3,1.7.8c.3.5.4,1.2.4,2s0,1.5-.2,2.3c-.2.8-.3,1.6-.5,2.4-.2.8-.2,1.4-.2,1.9s.2,1,.6,1,.4,0,.5-.2c.2-.1.3-.3.3-.4h.2c0,.7-.2,1.3-.5,1.8-.4.5-.8.9-1.3,1.1s-1.1.4-1.6.4-1.3-.2-1.8-.7c-.5-.5-.8-1.2-.8-2.3s0-1.3.2-2c.2-.7.3-1.4.5-2.1.2-.7.2-1.2.2-1.7s0-.5-.1-.6c0-.1-.3-.2-.5-.2-.4,0-.8.2-1.3.5s-.9.9-1.2,1.5-.5,1.3-.5,2,0,.9.2,1.4c.1.4.2.9.2,1.4,0,.9-.2,1.7-.7,2.1s-1.1.7-1.7.7Z"/>
    <path class="st1" d="M354.2,315.7c-1.1,0-2.1-.3-2.9-.8-.8-.5-1.4-1.2-1.8-2s-.6-1.8-.6-2.7.2-1.8.5-2.8.9-1.8,1.6-2.5c.7-.8,1.5-1.4,2.5-1.9s2.2-.7,3.5-.7,2.2.3,2.9.8c.6.5.9,1.1.9,1.7s-.3,1.2-1,1.8c-.6.5-1.6.8-2.8.8,0-.3.1-.5.2-.8,0-.3,0-.5,0-.8,0-.4,0-.7-.2-.9-.2-.3-.4-.4-.8-.4s-.8.2-1.2.5c-.4.3-.8.8-1,1.5-.3.6-.4,1.4-.4,2.4s.2,1.7.5,2.2.7,1,1.2,1.2c.5.3,1,.4,1.5.4s1.4-.2,2.1-.6c.7-.4,1.1-.9,1.4-1.6h.3c0,1-.2,1.8-.6,2.4-.4.6-.9,1.2-1.6,1.6-.6.4-1.3.7-2.1.9s-1.4.3-2.1.3Z"/>
    <path class="st1" d="M365,315.6c-.7,0-1.3-.2-1.8-.7s-.8-1.2-.8-2.3,0-1.2.2-1.7c.2-.5.4-1,.6-1.6.2-.5.4-1,.6-1.5.2-.5.2-1,.2-1.4s0-.7-.2-.9c-.1-.2-.3-.3-.5-.3-.3,0-.6.2-.9.6h-.2c0-.8.3-1.4.7-1.9s.8-.9,1.4-1.2,1.1-.4,1.6-.4,1.2.2,1.7.6c.5.4.7,1.1.7,2.1s0,1.2-.2,1.8c-.2.6-.4,1.3-.6,1.9-.2.6-.4,1.2-.6,1.7-.2.5-.2,1-.2,1.4s0,.6.2.7c.1.1.3.2.4.2s.3,0,.5-.1.3-.2.3-.3h.2c0,.7-.2,1.3-.5,1.7s-.8.9-1.3,1.1-1,.4-1.6.4ZM366.8,301.6c-.7,0-1.3-.2-1.7-.6-.4-.4-.7-1-.7-1.6s.3-1.3.8-1.8c.5-.5,1.2-.8,1.9-.8s1.3.2,1.7.7c.4.4.7,1,.7,1.6s-.3,1.3-.8,1.8c-.5.5-1.2.7-1.9.7Z"/>
    <path class="st1" d="M369.8,320.7c-.8,0-1.4-.1-2-.4s-.9-.6-1.2-1.1c-.3-.4-.4-.9-.4-1.4,0-.7.3-1.3.9-1.9.6-.6,1.5-.8,2.8-.8-.2.4-.4.8-.5,1.2-.1.3-.2.7-.2,1,0,.4,0,.8.3,1,.2.2.4.3.6.3.4,0,.6-.3.7-1s.1-1.5.1-2.6v-1.4c0-1.8,0-3.7.2-5.4.1-1.8.5-3.5,1-5.2.6-.4,1.3-.6,2.1-.6s1,0,1.4.3c.5.2.8.5.9.8-.5,1.5-.9,3-1.1,4.5-.3,1.5-.5,3.2-.8,5.1-.1,1-.3,1.9-.5,2.8s-.4,1.7-.8,2.4c-.3.7-.8,1.3-1.3,1.7s-1.3.6-2.3.6ZM374.9,301.6c-.7,0-1.3-.2-1.7-.6-.4-.4-.7-1-.7-1.6s.3-1.3.8-1.8c.5-.5,1.2-.8,1.9-.8s1.3.2,1.7.7c.4.4.7,1,.7,1.6s-.3,1.3-.8,1.8c-.5.5-1.2.7-1.9.7Z"/>
    <path class="st1" d="M382.9,315.7c-1.3,0-2.3-.3-3.2-.8-.8-.5-1.5-1.2-1.9-2-.4-.8-.6-1.8-.6-2.7s.2-1.8.5-2.8.9-1.8,1.6-2.5,1.5-1.4,2.5-1.9c1-.5,2.1-.7,3.3-.7s2.6.3,3.4,1c.7.7,1.1,1.5,1.1,2.5s-.2,1.6-.7,2.3c-.4.7-1,1.3-1.8,1.7-.7.4-1.5.6-2.4.6s-.9,0-1.4-.2c-.5-.1-.9-.4-1.4-.7,0,1.1.4,1.9.9,2.3.5.5,1.2.7,1.9.7s1,0,1.6-.3c.5-.2,1-.5,1.4-.8.4-.3.8-.7,1-1h.2c0,1-.2,1.8-.6,2.4-.4.6-.9,1.2-1.5,1.6-.6.4-1.3.7-2,.9-.7.2-1.4.3-2.2.3ZM383.5,308.7c.6,0,1-.2,1.4-.5.3-.3.6-.7.8-1.1.2-.4.3-.8.3-1.1s-.1-.7-.3-1c-.2-.3-.5-.4-.9-.4s-.7.1-1,.3c-.4.2-.7.6-1,1.2s-.5,1.3-.6,2.3c.6.3,1.1.4,1.5.4Z"/>
  </g>
</svg>