<?xml version="1.0" encoding="utf-8"?>
<!-- Generator: Adobe Illustrator 24.1.2, SVG Export Plug-In . SVG Version: 6.00 Build 0)  -->
<svg version="1.1" id="Layer_1" xmlns="http://www.w3.org/2000/svg" xmlns:xlink="http://www.w3.org/1999/xlink" x="0px" y="0px"
	 viewBox="0 0 477.4 775.8" style="enable-background:new 0 0 477.4 775.8;" xml:space="preserve">
<style type="text/css">
	.st0{fill:#C4E0F6;}
	.st1{fill:#2A4B78;}
	.st2{fill:#C2131D;}
	.st3{fill:#FFFFFF;}
</style>
<rect y="629.4" class="st0" width="477.4" height="146.4"/>
<g>
	<path class="st1" d="M215.1,673.5c0-2.6,1.2-3.9,3.7-3.9h23.8v5.4c0,2.6-1.3,3.8-3.9,3.8H226v7.8h14.3v8.8H226v8.5h17v5.4
		c0,2.6-1.3,3.8-3.9,3.8h-20.2c-2.6,0-3.7-1.3-3.7-3.9V673.5z"/>
	<path class="st1" d="M258.2,678.8v7.8h6.2c3.1,0,5.6-0.4,5.6-3.9c0-3.4-2.4-3.9-5.6-3.9H258.2z M247.4,673.5c0-2.6,1.2-3.9,3.7-3.9
		h14.1c9.9,0,15.6,4.5,15.6,13.1c0,5.9-2.2,9.7-7.6,11.9l8.5,16.6c0.3,0.6,0.6,1.2,0.6,1.9H273c-2,0-2.8,0-3.7-2l-7.6-15.7h-3.4
		v17.7h-10.9V673.5z"/>
	<path class="st1" d="M298.6,669.3c9,0,13.7,1,13.7,5.2v4.3H300c-3.3,0-4.3,0.9-4.3,2.6c0,5.2,18.9,4.1,18.9,18.8
		c0,7-4,13.2-16.2,13.2c-8,0-14.3-1.3-14.3-5.2v-4.3h14.6c3,0,4.4-1,4.4-3.1c0-5.7-18.8-4.6-18.8-19.7
		C284.2,674.5,288.6,669.3,298.6,669.3"/>
	<path class="st1" d="M344.5,669.6v5.5c0,2.5-1.3,3.7-3.8,3.7h-5.4v34.3h-10.9v-34.3h-9.2v-5.5c0-2.5,1.3-3.7,3.8-3.7H344.5z"/>
	<path class="st1" d="M347.9,673.5c0-2.6,1.2-3.9,3.7-3.9h23.8v5.4c0,2.6-1.3,3.8-3.9,3.8h-12.8v7.8H373v8.8h-14.3v8.5h17v5.4
		c0,2.6-1.3,3.8-3.9,3.8h-20.2c-2.6,0-3.7-1.3-3.7-3.9V673.5z"/>
	<path class="st1" d="M222.9,741.5c2.4,0,4.1-0.8,4.1-3.5c0-2.6-1.7-3.5-4.1-3.5h-4.4v6.9H222.9z M222.4,731.8
		c2.3,0,3.8-0.7,3.8-3.2c0-2.5-1.7-3.2-4.1-3.2h-3.7v6.4H222.4z M215.3,724.2c0-1.1,0.4-1.6,1.4-1.6h5.7c4.7,0,7.1,1.9,7.1,5.7
		c0,2.3-1.1,4-3.3,4.8c2.7,0.7,4,2.5,4,5.3c0,3.9-2.5,5.9-7.1,5.9h-6.5c-1,0-1.4-0.6-1.4-1.6V724.2z"/>
	<path class="st1" d="M242,736.1c-4.7,0.1-6.5,1.1-6.5,3.3c0,1.9,1.3,2.5,3.1,2.5c1.3,0,2.6-0.6,3.5-1.4V736.1z M243.5,744.3
		c-1.1,0-1.5-0.6-1.5-1.4v-0.5c-1.4,1.6-3.3,2.1-4.8,2.1c-3.1,0-5-1.9-5-4.7c0-4.3,4.5-5.4,9.7-5.6v-1.6c0-2.3-1.6-3-3.6-3h-4.9
		v-0.9c0-1.5,1.8-1.6,5.3-1.6c3.9,0,6.2,1.7,6.2,5.3v11.9H243.5z"/>
	<path class="st1" d="M248.8,744.3v-17h1.5c1.1,0,1.5,0.6,1.5,1.4v0.6c1.4-1.6,3.2-2.1,4.8-2.1c3.3,0,4.9,2,4.9,5.2v12h-3v-11.8
		c0-2-1.2-2.9-3.1-2.9c-1.3,0-2.6,0.6-3.6,1.4v13.2H248.8z"/>
	<path class="st1" d="M268.3,734.8l6.3-6.8c0.4-0.5,0.6-0.7,1.3-0.7h2.6c0,0.2-0.1,0.5-0.3,0.7l-6.9,7.2l6.9,8.4
		c0.2,0.2,0.2,0.4,0.2,0.7h-2.8c-0.8,0-1-0.3-1.5-1l-5.9-7.2v8.2h-3.1v-20.8c0-1,0.4-1.6,1.4-1.6h1.7V734.8z"/>
	<path class="st2" d="M440.6,682.9v-5c0-4.7-3.8-8.5-8.5-8.5h-36.3c-4.7,0-8.5,3.8-8.5,8.5v18.8h40.5v2.8h-40.5v5
		c0,4.7,3.8,8.5,8.5,8.5H432c4.7,0,8.5-3.8,8.5-8.5v-18.8h-40.5v-2.8H440.6z M408.2,664.4c-1.6-1.6-2.4-3.5-2.4-5.8
		c0-2.2,0.8-4.1,2.3-5.7c1.6-1.6,3.5-2.4,5.7-2.4c2.2,0,4.1,0.8,5.6,2.4c1.6,1.6,2.4,3.6,2.4,5.8c0,2.3-0.8,4.2-2.4,5.8
		c-1.6,1.6-3.5,2.4-5.7,2.4C411.7,666.9,409.8,666,408.2,664.4"/>
	<path class="st1" d="M48.8,712.9h-3.4v-26.7c0-1.3,0.4-2,1.8-2h1.6V712.9z"/>
	<path class="st1" d="M54.7,712.9v-22.4h1.4c1.3,0,1.8,0.6,1.8,1.7v0.9c2.1-2.2,4.7-2.9,6.8-2.9c4.5,0,7,2.5,7,6.7v15.9h-3.2v-15.8
		c0-2.8-1.8-4.1-4.9-4.1c-2.1,0-4.2,0.9-5.7,2.2v17.7H54.7z"/>
	<path class="st1" d="M76.3,701.7c0-6.3,2.1-11.4,9.4-11.4c7.3,0,9.4,5.2,9.4,11.4c0,6.3-2.1,11.4-9.4,11.4
		C78.4,713.1,76.3,708,76.3,701.7 M91.6,701.7c0-5.9-1.5-8.8-6-8.8c-4.5,0-6,3-6,8.8c0,5.9,1.5,8.9,6,8.9
		C90.1,710.6,91.6,707.6,91.6,701.7"/>
	<path class="st1" d="M105.6,713c-0.8,0-1.1,0-1.4-0.9l-7.3-20.8c-0.1-0.4-0.1-0.6-0.1-0.9H99c0.8,0,1.1,0,1.3,0.9l6.5,18.4h0.2
		l6.5-18.4c0.3-0.9,0.6-0.9,1.3-0.9h2.3c0,0.2,0,0.5-0.1,0.9l-7.5,20.8c-0.3,0.9-0.7,0.9-1.4,0.9H105.6z"/>
	<path class="st1" d="M133.2,712.9c-1.3,0-1.8-0.7-1.8-1.7v-0.9c-2,2.2-4.8,2.9-6.8,2.9c-4.3,0-7-2.5-7-6.1c0-5.7,6.5-7.1,13.8-7.4
		v-2.4c0-3.3-2.3-4.3-5.5-4.3h-6.7v-0.9c0-1.8,2.1-1.8,7.1-1.8c5.2,0,8.3,2.2,8.3,6.9v15.7H133.2z M131.3,701.8
		c-7.4,0.2-10.3,1.7-10.3,4.8c0,2.7,2.1,3.7,4.8,3.7c2.1,0,4.1-0.9,5.5-2.2V701.8z"/>
	<path class="st1" d="M148.6,690.3c4.4,0,6.5,0.3,6.5,1.9v0.8h-6.2c-4.5,0-6.2,2.5-6.2,8.7c0,6.2,1.7,8.7,6.2,8.7h6.2v0.9
		c0,1.6-2,1.8-6.5,1.8c-7.3,0-9.4-5.2-9.4-11.4C139.2,695.4,141.2,690.3,148.6,690.3"/>
	<path class="st1" d="M161.8,687.7h-3.2v-2.4c0-1.3,0.4-2,1.7-2h1.5V687.7z M158.6,690.5h1.5c1.3,0,1.7,0.7,1.7,2v20.4h-3.2V690.5z"
		/>
	<path class="st1" d="M170.9,714.3c0,3.3-0.5,5.6-4.6,5.6c-2,0-3.2-0.3-3.2-1.8v-0.9h2.5c1.8,0,2-0.8,2-2.9v-23.8h1.5
		c1.3,0,1.7,0.7,1.7,2V714.3z M170.9,687.7h-3.2v-2.4c0-1.3,0.4-2,1.7-2h1.5V687.7z"/>
	<path class="st1" d="M191.2,712.9c-1.3,0-1.8-0.7-1.8-1.7v-0.9c-2,2.2-4.8,2.9-6.8,2.9c-4.3,0-7-2.5-7-6.1c0-5.7,6.5-7.1,13.8-7.4
		v-2.4c0-3.3-2.3-4.3-5.5-4.3h-6.7v-0.9c0-1.8,2.1-1.8,7.1-1.8c5.2,0,8.3,2.2,8.3,6.9v15.7H191.2z M189.3,701.8
		c-7.4,0.2-10.3,1.7-10.3,4.8c0,2.7,2.1,3.7,4.8,3.7c2.1,0,4.1-0.9,5.5-2.2V701.8z"/>
	<path class="st3" d="M235.1,396.5c51.4,0,93.1-41.8,93.1-93.1h43c0,75.1-61.1,136.1-136.1,136.1V396.5z"/>
	<path class="st3" d="M234.9,272.2c-75.1,0-136.1-61.1-136.1-136.1C98.8,61.1,159.9,0,234.9,0C310,0,371,61.1,371,136.1
		C371,211.2,310,272.2,234.9,272.2 M234.9,43c-51.4,0-93.1,41.8-93.1,93.1c0,51.4,41.8,93.1,93.1,93.1c51.4,0,93.1-41.8,93.1-93.1
		C328.1,84.8,286.3,43,234.9,43"/>
	<path class="st3" d="M127.3,568.1c0,5.8-7.3,8.1-22.2,8.1c-20.3,0-30.8-10.9-30.8-36.1c0-25.2,10.5-36.1,30.8-36.1
		c14.9,0,21.1,2.3,21.1,8.1v5.9h-20.8c-11.1,0-14.6,4.8-14.6,22.1c0,17.3,3.4,22.1,14.6,22.1h5.8v-16c0-4,1.8-6.1,6-6.1h10.1V568.1z
		"/>
	<path class="st3" d="M182.2,565.1v4c0,5.3-6,7.1-21.5,7.1c-19.3,0-25.7-12.8-25.7-28.4c0-15.6,6.4-28.4,25.9-28.4
		c15.1,0,23.8,8.1,23.8,21.8c0,3,0,4.9-0.7,10.9h-33.2c0,9.9,4.2,12.9,12,12.9H182.2z M169.5,542.5c0.1-1,0.1-2.4,0.1-3.4
		c0-4.6-1.8-9.1-8.5-9.1c-6.6,0-9.8,3.4-10.2,12.6H169.5z"/>
	<path class="st3" d="M191.3,547.9c0-15.6,6.2-28.4,25.8-28.4c19.6,0,25.7,12.8,25.7,28.4c0,15.6-6.1,28.4-25.7,28.4
		C197.5,576.3,191.3,563.5,191.3,547.9 M226.9,547.9c0-11.3-1.9-18-9.9-18c-8.1,0-10,6.7-10,18c0,11.3,1.9,18.1,10,18.1
		C225.1,566,226.9,559.2,226.9,547.9"/>
	<path class="st3" d="M251.6,575.7v-55.6h8.7c4.3,0,6.1,3,6.6,7.1c4.1-6,9.1-7.7,13.5-7.7c2.1,0,3.9,0.8,3.9,2.8v12.1h-2.7
		c-8.5,0-11.8,1.3-14.7,2.9v38.4H251.6z"/>
	<path class="st3" d="M336.5,570.9c0,10.5-5.2,22-24.8,22c-15.8,0-20.8-1.9-20.8-7.1v-4h18.7c7.7,0,11.7-2.4,11.7-12.8v-1.6
		c-3.1,3.6-8.2,6.9-14.6,6.9c-14.2,0-20-10.3-20-27.5c0-16.9,5.8-27.4,20-27.4c6.3,0,11.5,3.3,14.6,6.8v-0.9c0-2.7,1.6-5.3,6.6-5.3
		h8.7V570.9z M312.6,562.2c3.6,0,6.4-1.1,8.7-2.7v-25.7c-2.2-1.6-5.1-2.8-8.7-2.8c-7.7,0-10.1,5.4-10.1,15.8
		C302.4,557.4,304.9,562.2,312.6,562.2"/>
	<path class="st3" d="M393.6,565.1v4c0,5.3-6,7.1-21.5,7.1c-19.3,0-25.7-12.8-25.7-28.4c0-15.6,6.4-28.4,25.9-28.4
		c15.1,0,23.8,8.1,23.8,21.8c0,3,0,4.9-0.7,10.9h-33.2c0,9.9,4.2,12.9,12,12.9H393.6z M380.8,542.5c0.1-1,0.1-2.4,0.1-3.4
		c0-4.6-1.8-9.1-8.5-9.1c-6.6,0-9.8,3.4-10.2,12.6H380.8z"/>
</g>
</svg>
