<?xml version="1.0" encoding="utf-8"?>
<!-- Generator: Adobe Illustrator 24.1.2, SVG Export Plug-In . SVG Version: 6.00 Build 0)  -->
<svg version="1.1" id="Layer_1" xmlns="http://www.w3.org/2000/svg" xmlns:xlink="http://www.w3.org/1999/xlink" x="0px" y="0px"
	 viewBox="0 0 1026.4 439.5" style="enable-background:new 0 0 1026.4 439.5;" xml:space="preserve">
<style type="text/css">
	.st0{fill:#FFFFFF;}
</style>
<g>
	<path class="st0" d="M136.3,396.5c51.4,0,93.1-41.8,93.1-93.1h43c0,75.1-61.1,136.1-136.1,136.1V396.5z"/>
	<path class="st0" d="M136.1,272.2C61.1,272.2,0,211.2,0,136.1C0,61.1,61.1,0,136.1,0c75.1,0,136.1,61.1,136.1,136.1
		C272.2,211.2,211.2,272.2,136.1,272.2 M136.1,43C84.8,43,43,84.8,43,136.1c0,51.4,41.8,93.1,93.1,93.1c51.4,0,93.1-41.8,93.1-93.1
		C229.3,84.8,187.5,43,136.1,43"/>
</g>
<g>
	<path class="st0" d="M447.7,262.1c0,12.4-15.8,17.5-47.9,17.5c-43.8,0-66.3-23.5-66.3-77.8c0-54.3,22.5-77.8,66.3-77.8
		c32.1,0,45.5,5,45.5,17.5v12.7h-44.8c-23.9,0-31.4,10.3-31.4,47.6c0,37.3,7.4,47.6,31.4,47.6H413V215c0-8.6,3.8-13.2,12.9-13.2
		h21.8V262.1z"/>
	<path class="st0" d="M565.9,255.6v8.6c0,11.5-12.9,15.3-46.2,15.3c-41.7,0-55.3-27.5-55.3-61c0-33.5,13.9-61,55.8-61
		c32.6,0,51.2,17.5,51.2,46.9c0,6.5,0,10.5-1.4,23.5h-71.6c0,21.3,9.1,27.8,25.8,27.8H565.9z M538.4,206.8c0.2-2.2,0.2-5.3,0.2-7.4
		c0-9.8-3.8-19.6-18.2-19.6c-14.1,0-21.1,7.4-22,27H538.4z"/>
	<path class="st0" d="M585.3,218.5c0-33.5,13.4-61,55.5-61c42.1,0,55.3,27.5,55.3,61c0,33.5-13.2,61-55.3,61
		C598.7,279.6,585.3,252.1,585.3,218.5 M662.1,218.5c0-24.4-4.1-38.8-21.3-38.8c-17.5,0-21.5,14.4-21.5,38.8c0,24.4,4.1,39,21.5,39
		C658.1,257.6,662.1,243,662.1,218.5"/>
	<path class="st0" d="M715.3,278.4V158.7h18.7c9.3,0,13.2,6.5,14.1,15.3c8.9-12.9,19.6-16.5,29-16.5c4.5,0,8.4,1.7,8.4,6v26.1h-5.7
		c-18.2,0-25.4,2.9-31.6,6.2v82.6H715.3z"/>
	<path class="st0" d="M897.9,268.1c0,22.5-11.2,47.4-53.4,47.4c-34,0-44.8-4.1-44.8-15.3v-8.6H840c16.5,0,25.1-5.3,25.1-27.5v-3.3
		c-6.7,7.7-17.7,14.8-31.4,14.8c-30.6,0-43.1-22.3-43.1-59.1c0-36.4,12.4-58.9,43.1-58.9c13.6,0,24.7,7.2,31.4,14.6v-1.9
		c0-5.7,3.3-11.5,14.1-11.5h18.7V268.1z M846.4,249.4c7.7,0,13.9-2.4,18.7-5.7v-55.3c-4.8-3.3-11-6-18.7-6
		c-16.5,0-21.8,11.7-21.8,34C824.7,238.9,829.9,249.4,846.4,249.4"/>
	<path class="st0" d="M1020.9,255.6v8.6c0,11.5-12.9,15.3-46.2,15.3c-41.6,0-55.3-27.5-55.3-61c0-33.5,13.9-61,55.8-61
		c32.6,0,51.2,17.5,51.2,46.9c0,6.5,0,10.5-1.4,23.5h-71.6c0,21.3,9.1,27.8,25.8,27.8H1020.9z M993.4,206.8c0.2-2.2,0.2-5.3,0.2-7.4
		c0-9.8-3.8-19.6-18.2-19.6c-14.1,0-21.1,7.4-22,27H993.4z"/>
</g>
</svg>
