<?xml version="1.0" encoding="utf-8"?>
<!-- Generator: Adobe Illustrator 24.1.2, SVG Export Plug-In . SVG Version: 6.00 Build 0)  -->
<svg version="1.1" id="Layer_1" xmlns="http://www.w3.org/2000/svg" xmlns:xlink="http://www.w3.org/1999/xlink" x="0px" y="0px"
	 viewBox="0 0 145.92 145.92" style="enable-background:new 0 0 145.92 145.92;" xml:space="preserve">
<style type="text/css">
	.st0{clip-path:url(#SVGID_2_);fill:#3FA09B;}
	.st1{clip-path:url(#SVGID_2_);fill:#D5ADB8;}
	.st2{clip-path:url(#SVGID_2_);fill:#95D5D5;}
	.st3{clip-path:url(#SVGID_2_);fill:#ADDFE6;}
	.st4{clip-path:url(#SVGID_2_);}
	.st5{fill:#6BC1BF;}
	.st6{fill:#49A5A0;}
	.st7{fill:#3FA09B;}
	.st8{opacity:0.55;}
	.st9{fill:none;stroke:#FFFFFF;stroke-width:0.1159;stroke-miterlimit:10;}
	.st10{opacity:0.48;fill:#49A5A0;}
	.st11{opacity:0.19;}
	.st12{fill:#FFFFFF;}
	.st13{fill:#F9D682;}
	.st14{clip-path:url(#SVGID_2_);fill:#FBD7E3;}
	.st15{fill:#6B95C7;}
	.st16{fill:#95D5D5;}
	.st17{fill:#E64737;}
	.st18{fill:#D5ADB8;}
	.st19{fill:#FBD7E3;}
	.st20{opacity:0.51;fill:#FFFFFF;}
</style>
<g>
	<g>
		<defs>
			<rect id="SVGID_1_" width="145.92" height="145.92"/>
		</defs>
		<use xlink:href="#SVGID_1_"  style="overflow:visible;fill:#025196;"/>
		<clipPath id="SVGID_2_">
			<use xlink:href="#SVGID_1_"  style="overflow:visible;"/>
		</clipPath>
		<path class="st0" d="M23.43,30.03c-5.77,0.22-11.72,0.13-17.07,2.3c-5.35,2.17-10,7.36-9.44,13.1c-5.64-3.04-8.77-9.5-9.47-15.87
			s0.67-12.77,2.03-19.03C-8.95,3.23-7.04-4.63-1.29-9.4c4.12-3.43,9.71-4.7,15.07-4.52c5.36,0.18,10.57,1.7,15.68,3.33
			c9.23,2.94,21.32,9.37,19.74,20.96C47.36,23.83,35.51,29.56,23.43,30.03z"/>
		<path class="st1" d="M12.9,73.05c4.15,7.1,4.68,15.64,6,23.75c1.32,8.11,3.96,16.76,10.69,21.47c11.73,8.22,27.98,0.14,42.1,2.57
			c18.12,3.12,29.26,22.71,46.86,28.06c2.85,0.87,6.27,1.72,7.31,4.51c0.84,2.24-0.42,4.84-2.34,6.27
			c-1.92,1.43-4.35,1.94-6.71,2.36c-12.49,2.19-25.22,2.57-37.9,2.93c-25.19,0.73-50.39,1.46-75.58,2.18
			c-3.32,0.1-7.13-0.01-9.28-2.54c-1.48-1.74-1.75-4.16-1.96-6.43c-2.51-27.45-5.02-54.91-7.53-82.36
			C-17.15,57.36,6.04,61.3,12.9,73.05z"/>
		<path class="st2" d="M135.34,35.1c-4.99-0.53-10.18-0.34-14.82,1.57c-4.64,1.91-8.67,5.76-9.87,10.63
			c-1.68,6.8,2.25,13.6,6.07,19.48c5.08,7.83,10.35,15.85,12.22,24.99c1.87,9.14-0.46,19.81-8.11,25.16
			c-6.27,4.38-14.47,4.34-22.05,5.33c-7.58,0.99-16.06,4.13-18.54,11.36c-1.94,5.65,0.66,12.07,4.91,16.26
			c4.25,4.19,9.9,6.61,15.43,8.86c16.95,6.9,36.47,13.07,53.01,5.22c14.63-6.95,22.6-23.18,25.88-39.04
			c4.11-19.88,1.4-40.4-2.52-60.03C173.56,47.87,151.02,36.75,135.34,35.1z"/>
		<path class="st3" d="M33.47,28.53c8.88,10.91,22.24,18.06,36.25,19.39c13.38,1.27,27.71-2.39,39.81,3.47
			c8.5,4.11,14.22,12.19,20.93,18.83s16.16,12.29,25.2,9.55c5.59-1.69,9.89-6.41,12.25-11.75c2.37-5.34,3.02-11.27,3.23-17.1
			c0.44-12.13-0.93-24.33-4.04-36.06c-2.39-9.01-6.35-18.4-14.39-23.1c-5.85-3.41-12.92-3.78-19.69-4.02
			c-28.19-1.01-56.4-1.31-84.6-0.91c-9.48,0.13-26.16-4.22-26.88,8.26C20.86,6.78,26.21,19.6,33.47,28.53z"/>
		<g class="st4">
			<g>
				<g>
					<path class="st5" d="M156.39-1.13c2.03,2.4,4.88,6.14,6.09,11.75c0.04,0.14,0.07,0.27,0.09,0.42c0.19,1.02,0.34,2.09,0.4,3.21
						c0.02,0.14,0.03,0.27,0.03,0.4c0.04,0.99,0.03,2.04-0.06,3.12c-0.01,0.12-0.02,0.24-0.03,0.37c-0.1,0.97-0.24,2-0.41,2.98
						c-0.02,0.1-0.04,0.22-0.06,0.34c-0.17,0.92-0.4,1.85-0.68,2.8c-0.03,0.1-0.07,0.21-0.1,0.31c-0.27,0.88-0.59,1.79-0.97,2.69
						c-0.03,0.1-0.07,0.2-0.12,0.31c-0.35,0.85-0.76,1.71-1.22,2.58c-0.05,0.11-0.1,0.2-0.17,0.3c-0.43,0.82-0.9,1.61-1.44,2.43
						c-0.07,0.1-0.13,0.18-0.19,0.29c-0.5,0.76-1.07,1.51-1.67,2.27c-0.07,0.1-0.13,0.19-0.22,0.27c-0.58,0.72-1.18,1.44-1.87,2.13
						c-0.08,0.09-0.15,0.18-0.24,0.26c-0.62,0.68-1.33,1.32-2.04,1.98c-0.09,0.08-0.18,0.17-0.29,0.24
						c-0.59,0.51-1.18,1.03-1.84,1.52c-0.11,0.09-0.24,0.18-0.38,0.27c-0.08,0.08-0.19,0.14-0.29,0.22
						c-0.64,0.48-1.47,0.99-2.4,1.56c-0.1,0.05-0.22,0.12-0.31,0.18c-0.77,0.43-1.61,0.9-2.54,1.35c-0.1,0.06-0.23,0.12-0.35,0.17
						c-0.42,0.2-0.86,0.41-1.31,0.62c-0.38,0.16-0.77,0.32-1.16,0.48l-0.35,0.14c-0.65,0.27-1.3,0.51-1.98,0.77l-0.34,0.12
						c-0.65,0.24-1.3,0.47-1.98,0.72c-0.09,0.03-0.18,0.06-0.28,0.09c-0.65,0.24-1.3,0.46-1.94,0.67c-0.1,0.03-0.18,0.06-0.26,0.09
						l-0.01,0c-0.63,0.2-1.26,0.4-1.89,0.6c-0.09,0.03-0.17,0.06-0.27,0.1c-0.62,0.2-1.24,0.4-1.85,0.6
						c-0.09,0.03-0.19,0.06-0.28,0.09c-0.61,0.2-1.2,0.4-1.79,0.59c-0.1,0.03-0.19,0.06-0.27,0.1c-0.61,0.2-1.21,0.4-1.77,0.59
						c-0.08,0.04-0.17,0.07-0.25,0.09c-0.6,0.22-1.17,0.43-1.7,0.63c-0.09,0.04-0.18,0.08-0.27,0.11c-0.62,0.25-1.19,0.49-1.65,0.7
						l-0.22,0.12c-0.4,0.19-0.73,0.37-0.96,0.52c-0.2,0.14-0.4,0.25-0.61,0.38l-0.22,0.13c-0.43,0.24-0.82,0.48-1.24,0.71
						c-0.25-1.11-0.4-2.24-0.39-3.32c0-1.7,0.35-3.33,1.05-4.71c-0.59,0.51-1.14,1.07-1.64,1.66c-0.09,0.1-0.18,0.2-0.26,0.32
						c-0.62,0.72-1.14,1.53-1.61,2.36c-0.08,0.13-0.16,0.29-0.23,0.44c-0.31,0.63-0.59,1.25-0.85,1.94c-0.16,0.4-0.3,0.81-0.41,1.23
						l-0.01,0.01c-0.05,0.17-0.1,0.35-0.14,0.53c0,0.02,0,0.02,0,0.02c-0.18,0.59-0.31,1.23-0.41,1.87
						c-0.28,0.11-0.57,0.22-0.85,0.34c-0.07,0.02-0.15,0.05-0.23,0.08c-0.55,0.2-1.1,0.4-1.67,0.59c-0.07,0.03-0.15,0.06-0.24,0.07
						c-0.57,0.18-1.12,0.37-1.72,0.53c-0.07,0.03-0.16,0.05-0.24,0.07c-0.58,0.16-1.16,0.33-1.74,0.49
						c-0.08,0.02-0.17,0.04-0.24,0.06c-0.15,0.05-0.31,0.08-0.46,0.12c-0.34,0.08-0.8,0.19-1.32,0.31
						c-0.09,0.01-0.17,0.03-0.25,0.06c-0.53,0.12-1.14,0.26-1.8,0.41c-0.09,0.01-0.18,0.03-0.26,0.06
						c-0.58,0.14-1.19,0.28-1.81,0.42c-0.08,0.03-0.17,0.06-0.26,0.08c-0.59,0.15-1.19,0.31-1.78,0.46
						c-0.09,0.03-0.18,0.05-0.28,0.07c-0.59,0.15-1.18,0.31-1.74,0.47c-0.11,0.02-0.21,0.05-0.31,0.07
						c-0.58,0.16-1.14,0.3-1.69,0.43L94.19,63c-1.87,0.45-3.42,0.66-4.14,0.08c-0.89-0.75-1.14-1.92-1.21-3
						c-0.21-2.75,1.05-7.45,4.12-12.55c1.52-2.55,3.47-5.17,5.74-7.71c1.14-1.26,2.36-2.51,3.64-3.71c1.33-1.23,2.79-2.46,4.25-3.57
						c3.73-1.64,7.44-2.57,11.03-3.03c3.59-0.45,7.06-0.44,10.52-0.18c-3.19-1.98-6.46-3.42-9.89-4.11c1.49-0.78,2.9-1.49,4.26-2.15
						c0.9-0.44,2.07-0.95,3.37-1.51c0.64-0.27,1.32-0.56,2.05-0.87c0.52-0.21,1.09-0.43,1.7-0.71c2.45-1.1,5.62-2.95,8.93-5.36
						c1.66-1.2,3.36-2.52,5.04-3.89c0.84-0.7,1.67-1.39,2.49-2.08c0.78-0.64,1.55-1.29,2.29-1.95C151.36,4.07,154,1.32,156.39-1.13z
						"/>
				</g>
				<g>
					<path class="st6" d="M151.65,16.15c-1.8,2.63-3.87,5.09-6.14,7.32c-2.35,2.33-4.9,4.47-7.7,6.13c-1.5,0.91-3.03,1.6-4.65,2.25
						c-1.64,0.65-3.31,1.24-5.01,1.8c-3.38,1.13-6.86,2.16-10.34,3.45c-3.45,1.27-6.92,2.82-10.18,4.9
						c-3.21,2.04-6.18,4.47-8.74,7.36c-3.58,4.01-6.47,8.84-7.47,14.05c0.77,0,1.69-0.18,2.76-0.43l0.3-0.07
						c0.55-0.13,1.11-0.28,1.69-0.43c0.1-0.02,0.2-0.05,0.31-0.07c0.57-0.16,1.15-0.32,1.74-0.47c0.1-0.02,0.19-0.04,0.28-0.07
						c0.59-0.15,1.19-0.3,1.78-0.46c0.09-0.03,0.18-0.05,0.26-0.08c0.62-0.15,1.23-0.29,1.81-0.42c0.08-0.03,0.17-0.05,0.26-0.06
						c0.66-0.15,1.27-0.29,1.8-0.41c0.08-0.02,0.16-0.05,0.25-0.06c0.52-0.12,0.98-0.23,1.32-0.31c0.16-0.04,0.32-0.07,0.46-0.12
						c0.07-0.02,0.16-0.04,0.24-0.06c0.58-0.16,1.16-0.33,1.74-0.49c0.08-0.02,0.17-0.04,0.24-0.07c0.59-0.16,1.15-0.35,1.72-0.53
						c0.08-0.01,0.16-0.05,0.24-0.07c0.57-0.19,1.12-0.39,1.67-0.59c0.08-0.03,0.16-0.05,0.23-0.08c0.28-0.12,0.57-0.23,0.85-0.34
						c0.1-0.64,0.22-1.27,0.41-1.87c0,0,0,0,0-0.02c0.04-0.18,0.09-0.36,0.14-0.53l0.01-0.01c0.12-0.42,0.25-0.82,0.41-1.23
						c0.25-0.69,0.53-1.32,0.85-1.94c0.07-0.15,0.15-0.3,0.23-0.44c0.47-0.83,0.99-1.63,1.61-2.36c0.08-0.11,0.17-0.21,0.26-0.32
						c0.5-0.59,1.04-1.15,1.64-1.66c-0.7,1.38-1.04,3.01-1.05,4.71c-0.01,1.08,0.14,2.2,0.39,3.32c0.42-0.23,0.81-0.47,1.24-0.71
						l0.22-0.13c0.21-0.12,0.41-0.24,0.61-0.38c0.24-0.15,0.56-0.33,0.96-0.52l0.22-0.12c0.46-0.21,1.03-0.44,1.65-0.7
						c0.09-0.03,0.18-0.06,0.27-0.11c0.52-0.19,1.1-0.41,1.7-0.63c0.09-0.03,0.17-0.05,0.25-0.09c0.57-0.19,1.16-0.39,1.77-0.59
						c0.08-0.04,0.17-0.07,0.27-0.1c0.58-0.19,1.17-0.39,1.79-0.59c0.09-0.03,0.19-0.06,0.28-0.09c0.61-0.2,1.23-0.4,1.85-0.6
						c0.09-0.03,0.17-0.06,0.27-0.1c0.63-0.2,1.26-0.4,1.89-0.6l0.01,0c0.08-0.04,0.17-0.06,0.26-0.09
						c0.63-0.21,1.29-0.44,1.94-0.67c0.1-0.03,0.19-0.06,0.28-0.09c0.67-0.24,1.33-0.48,1.98-0.72l0.34-0.12
						c0.68-0.26,1.33-0.5,1.98-0.77l0.35-0.14c0.39-0.16,0.78-0.33,1.16-0.48c0.45-0.21,0.89-0.42,1.31-0.62
						c0.12-0.06,0.25-0.11,0.35-0.17c0.93-0.45,1.76-0.92,2.54-1.35c0.09-0.07,0.21-0.13,0.31-0.18c0.93-0.57,1.76-1.08,2.4-1.56
						c0.1-0.08,0.21-0.14,0.29-0.22c0.14-0.09,0.27-0.19,0.38-0.27c0.66-0.5,1.25-1.01,1.84-1.52c0.1-0.07,0.2-0.16,0.29-0.24
						c0.71-0.66,1.42-1.3,2.04-1.98c0.09-0.08,0.16-0.17,0.24-0.26c0.69-0.7,1.29-1.41,1.87-2.13c0.09-0.08,0.15-0.17,0.22-0.27
						c0.6-0.76,1.17-1.51,1.67-2.27c0.06-0.11,0.12-0.19,0.19-0.29c0.53-0.82,1.01-1.62,1.44-2.43c0.07-0.1,0.11-0.19,0.17-0.3
						c0.46-0.87,0.87-1.73,1.22-2.58c0.05-0.11,0.09-0.2,0.12-0.31c0.38-0.9,0.7-1.81,0.97-2.69c0.03-0.1,0.07-0.21,0.1-0.31
						c0.28-0.95,0.5-1.88,0.68-2.8c0.02-0.12,0.04-0.24,0.06-0.34c0.17-0.98,0.32-2.01,0.41-2.98c0.01-0.13,0.02-0.26,0.03-0.37
						c0.08-1.08,0.1-2.14,0.06-3.12c-0.01-0.13-0.01-0.26-0.03-0.4c-0.06-1.12-0.21-2.2-0.4-3.21c-0.02-0.14-0.05-0.28-0.09-0.42
						c-1.13-5.21-3.65-8.81-5.63-11.21c0.3,2.84-0.11,5.83-1.06,8.67C154.86,10.94,153.38,13.62,151.65,16.15z"/>
				</g>
				<g>
					<path class="st7" d="M90.76,62.27c1.25-4.44,3.66-8.58,6.69-12.1c3.04-3.54,6.63-6.46,10.54-8.91
						c3.97-2.46,8.14-4.21,12.23-5.7c4.09-1.48,8.11-2.73,11.97-4.24c7.45-2.81,13.82-8.67,18.23-15.58
						c1.09-1.75,2.07-3.55,2.83-5.38c0.76-1.84,1.34-3.73,1.69-5.63c0.72-3.79,0.46-7.64-0.86-10.82c-0.08-0.19,0.12-0.37,0.43-0.42
						c0.3-0.04,0.61,0.07,0.7,0.25c1.63,3.32,2.05,7.43,1.33,11.44c-0.7,4.04-2.47,7.92-4.84,11.43
						c-4.68,7.01-11.4,12.87-19.13,15.56c-3.93,1.45-7.97,2.67-12.05,4.11c-4.08,1.45-8.22,3.16-12.16,5.55
						c-3.88,2.37-7.45,5.24-10.46,8.72c-3,3.46-5.37,7.54-6.58,11.91c-0.03,0.13-0.18,0.19-0.34,0.13
						C90.82,62.55,90.73,62.4,90.76,62.27L90.76,62.27z"/>
				</g>
			</g>
			<g>
				<g>
					<g>
						<path class="st7" d="M94.73,54.08c-0.78,2.67-1.21,5.93-0.77,8.76l0.3-0.07c-0.46-3.11,0.15-6.73,1.08-9.48
							C95.14,53.57,94.93,53.82,94.73,54.08z"/>
					</g>
					<g>
						<path class="st7" d="M96.95,51.33c-1.06,3.05-1.8,7.4-0.97,11.02c0.1-0.02,0.2-0.05,0.31-0.07c-0.84-3.85,0.12-8.7,1.34-11.79
							C97.41,50.78,97.18,51.06,96.95,51.33z"/>
					</g>
					<g>
						<path class="st7" d="M99.2,48.8c-0.64,1.65-1.26,3.83-1.53,6.14c-0.28,2.31-0.2,4.74,0.38,6.87c0.11-0.02,0.19-0.04,0.29-0.07
							c-0.59-2.27-0.61-4.9-0.24-7.34c0.35-2.44,1.08-4.67,1.73-6.18C99.63,48.43,99.42,48.62,99.2,48.8z"/>
					</g>
					<g>
						<path class="st7" d="M101.36,46.77c-0.72,1.67-1.46,4.12-1.77,6.74c-0.32,2.63-0.18,5.42,0.54,7.78
							c0.09-0.02,0.19-0.05,0.27-0.08c-0.73-2.46-0.83-5.37-0.45-8.07c0.37-2.69,1.18-5.14,1.91-6.7
							C101.7,46.56,101.53,46.67,101.36,46.77z"/>
					</g>
					<g>
						<path class="st7" d="M103.41,45.13c-0.78,1.68-1.59,4.32-1.91,7.18c-0.33,2.87-0.13,5.94,0.73,8.48
							c0.08-0.03,0.17-0.05,0.26-0.06c-0.93-2.79-1.04-6.2-0.57-9.25c0.46-3.05,1.45-5.73,2.24-7.08L103.41,45.13z"/>
					</g>
					<g>
						<path class="st7" d="M105.86,42.94c-0.81,1.33-1.86,4.17-2.32,7.45c-0.48,3.28-0.3,6.95,0.78,9.95
							c0.08-0.02,0.17-0.05,0.25-0.06c-1.09-3.08-1.21-6.88-0.67-10.2c0.52-3.32,1.63-6.12,2.42-7.22l-0.17-0.15L105.86,42.94z"/>
					</g>
					<g>
						<path class="st7" d="M108.27,41.72c-0.83,1.09-1.93,3.96-2.45,7.42c-0.53,3.46-0.36,7.43,0.8,10.66
							c-0.08,0.02-0.17,0.04-0.24,0.06c-1.23-3.3-1.41-7.32-0.88-10.82c0.52-3.5,1.64-6.4,2.53-7.54L108.27,41.72z"/>
					</g>
					<g>
						<path class="st7" d="M110.25,40.67c-0.85,1.06-2.03,4-2.52,7.53c-0.53,3.53-0.33,7.64,0.88,11.05
							c-0.07,0.03-0.16,0.05-0.24,0.07c-1.19-3.28-1.46-7.36-0.98-10.96c0.44-3.58,1.61-6.68,2.61-7.93L110.25,40.67z"/>
					</g>
					<g>
						<path class="st7" d="M112.26,39.68c-0.87,1.08-2.09,4.07-2.57,7.68c-0.51,3.61-0.3,7.8,0.89,11.28
							c-0.07,0.03-0.16,0.06-0.24,0.07c-1.22-3.46-1.48-7.65-1-11.31c0.44-3.66,1.68-6.76,2.68-7.98L112.26,39.68z"/>
					</g>
					<g>
						<path class="st7" d="M114.27,38.77c-0.99,1.19-2.2,4.24-2.66,7.88c-0.47,3.63-0.23,7.84,0.89,11.34
							c-0.07,0.02-0.15,0.05-0.23,0.08c-1.15-3.53-1.41-7.81-0.94-11.51c0.47-3.71,1.69-6.83,2.71-8.04L114.27,38.77z"/>
					</g>
					<g>
						<path class="st7" d="M116.27,37.91c-0.9,1.05-1.96,3.63-2.53,6.84c-0.6,3.21-0.55,6.97,0.15,10.46l-0.01,0.01
							c-0.05,0.18-0.1,0.35-0.13,0.54c-0.81-3.57-0.91-7.51-0.33-10.89c0.57-3.38,1.68-6.11,2.63-7.22L116.27,37.91z"/>
					</g>
					<g>
						<path class="st7" d="M118.26,37.07c-1.14,1.32-2.49,5.19-2.89,9.51c-0.12,1.26-0.18,3.02-0.02,4.97
							c-0.08,0.14-0.16,0.29-0.23,0.44c-0.36-3.25-0.09-6.6,0.55-9.34c0.63-2.74,1.56-4.9,2.37-5.84L118.26,37.07z"/>
					</g>
					<g>
						<path class="st7" d="M120.26,36.29c-1.34,1.55-3.03,6.86-3.04,12.57c-0.09,0.1-0.18,0.2-0.26,0.32
							c-0.1-5.94,1.68-11.54,3.08-13.14L120.26,36.29z"/>
					</g>
					<g>
						<path class="st7" d="M122.24,35.53c-0.92,1.06-1.95,3.83-2.57,7.35c-0.62,3.51-0.73,7.73,0.04,11.62l-0.22,0.13
							c-0.82-3.95-0.73-8.25-0.1-11.84c0.62-3.59,1.69-6.44,2.62-7.52L122.24,35.53z"/>
					</g>
					<g>
						<path class="st7" d="M124.2,34.79c-1.76,2.05-3.94,10.78-2.69,18.68l-0.22,0.12c-1.35-8.02,0.89-16.97,2.68-19.07L124.2,34.79
							z"/>
					</g>
					<g>
						<path class="st7" d="M126.15,34.05c-1.64,1.99-3.7,10.62-2.72,18.62c-0.09,0.04-0.18,0.08-0.27,0.11
							c-1.07-8.17,1.04-16.9,2.76-19L126.15,34.05z"/>
					</g>
					<g>
						<path class="st7" d="M128.08,33.3c-0.81,1.02-1.65,3.63-2.23,7.03c-0.58,3.4-0.87,7.56-0.47,11.63
							c-0.08,0.04-0.17,0.07-0.25,0.09c-0.87-8.06,0.89-16.68,2.73-19L128.08,33.3z"/>
					</g>
					<g>
						<path class="st7" d="M130,32.54c-0.88,1.13-1.64,3.78-2.16,7.18c-0.52,3.4-0.74,7.52-0.41,11.55c-0.1,0.03-0.19,0.06-0.27,0.1
							c-0.22-2.37-0.23-4.87-0.08-7.41c0.39-5.51,1.48-10.1,2.68-11.66L130,32.54z"/>
					</g>
					<g>
						<path class="st7" d="M131.88,31.77c-0.85,1.14-1.53,3.79-2.01,7.19c-0.47,3.4-0.68,7.55-0.38,11.63
							c-0.09,0.03-0.19,0.06-0.28,0.09c-0.17-2.29-0.2-4.67-0.06-7.09c0.33-5.72,1.31-10.44,2.49-12.08L131.88,31.77z"/>
					</g>
					<g>
						<path class="st7" d="M133.74,30.96c-0.79,1.15-1.41,3.81-1.82,7.22c-0.4,3.41-0.6,7.58-0.3,11.73
							c-0.09,0.03-0.17,0.06-0.27,0.1c-0.31-4.22-0.12-8.47,0.3-11.94c0.42-3.47,1.04-6.18,1.86-7.36L133.74,30.96z"/>
					</g>
					<g>
						<path class="st7" d="M135.5,30.11c-0.35,0.61-0.63,1.53-0.88,2.79c-0.27,1.23-0.49,2.77-0.66,4.47
							c-0.33,3.43-0.47,7.63-0.18,11.83c-0.1,0.03-0.18,0.06-0.26,0.09c-0.61-8.55,0.45-17.06,1.72-19.43L135.5,30.11z"/>
					</g>
					<g>
						<path class="st7" d="M137.21,29.16c-0.64,1.25-0.92,3.87-1.23,7.36c-0.24,3.45-0.3,7.66,0.02,11.93
							c-0.09,0.03-0.18,0.06-0.28,0.09c-0.34-4.33-0.27-8.62-0.02-12.13c0.31-3.54,0.61-6.2,1.25-7.47L137.21,29.16z"/>
					</g>
					<g>
						<path class="st7" d="M138.91,28.12c-0.59,1.24-0.67,3.88-0.78,7.4c-0.19,3.54-0.18,7.79,0.19,12.1l-0.34,0.12
							c-0.37-4.4-0.43-8.67-0.2-12.27c0.14-3.57,0.25-6.25,0.86-7.55L138.91,28.12z"/>
					</g>
					<g>
						<path class="st7" d="M140.57,27c-0.55,1.27-0.5,3.93-0.41,7.42c0.05,1.81,0.1,3.77,0.16,5.81c0.02,1.06,0.03,2.15,0.05,3.24
							c0.07,1.07,0.16,2.15,0.27,3.24l-0.35,0.14c-0.11-1.11-0.21-2.21-0.29-3.29c-0.1-1.06-0.05-2.21-0.08-3.26
							c-0.01-2.12-0.08-4.13-0.11-5.9c-0.07-3.55-0.11-6.27,0.46-7.59L140.57,27z"/>
					</g>
				</g>
				<g>
					<g>
						<path class="st7" d="M155.53,4.72c1.9,2.28,4.29,4.54,7.03,6.32c-0.02-0.14-0.05-0.28-0.09-0.42
							c-2.62-1.73-4.9-3.88-6.72-6.06l-0.22,0.09L155.53,4.72z"/>
					</g>
					<g>
						<path class="st7" d="M155.09,6.82c2.05,2.84,4.72,5.68,7.91,7.83c-0.01-0.13-0.01-0.26-0.03-0.4
							c-3.14-2.15-5.78-4.95-7.78-7.75L155.09,6.82z"/>
					</g>
					<g>
						<path class="st7" d="M154.41,8.55l-0.06,0.13c2.11,3.39,4.98,6.86,8.56,9.46c0.01-0.13,0.02-0.26,0.03-0.37
							c-3.54-2.6-6.4-6.04-8.45-9.39L154.41,8.55z"/>
					</g>
					<g>
						<path class="st7" d="M153.52,10.5c2.05,3.89,5.02,7.96,8.91,10.96c0.02-0.12,0.04-0.24,0.06-0.34
							c-3.87-3-6.82-7.08-8.83-10.94L153.52,10.5z"/>
					</g>
					<g>
						<path class="st7" d="M152.6,12.31c1.9,4.34,5,8.87,9.06,12.27c0.03-0.1,0.07-0.21,0.1-0.31c-4.06-3.42-7.13-7.95-8.98-12.28
							L152.6,12.31z"/>
					</g>
					<g>
						<path class="st7" d="M151.63,14.08l-0.02,0.03c1.77,4.71,4.81,9.64,8.96,13.47c0.05-0.11,0.09-0.2,0.12-0.31
							c-4.15-3.82-7.19-8.78-8.9-13.48L151.63,14.08z"/>
					</g>
					<g>
						<path class="st7" d="M150.52,15.83c1.59,4.99,4.54,10.37,8.67,14.63c0.06-0.1,0.11-0.19,0.17-0.3
							c-4.15-4.26-7.08-9.64-8.63-14.64L150.52,15.83z"/>
					</g>
					<g>
						<path class="st7" d="M149.36,17.47c1.4,5.25,4.14,10.99,8.2,15.7c0.06-0.11,0.12-0.19,0.19-0.29
							c-4.05-4.7-6.83-10.47-8.17-15.7L149.36,17.47z"/>
					</g>
					<g>
						<path class="st7" d="M148.15,19.03c0.59,2.75,1.51,5.61,2.77,8.46c1.24,2.84,2.83,5.67,4.74,8.22
							c0.09-0.08,0.15-0.17,0.22-0.27c-1.95-2.56-3.52-5.4-4.77-8.24c-1.25-2.86-2.17-5.72-2.72-8.46L148.15,19.03z"/>
					</g>
					<g>
						<path class="st7" d="M146.91,20.53c0.45,2.82,1.24,5.8,2.35,8.8c1.11,2.99,2.52,6,4.31,8.78c0.09-0.08,0.16-0.17,0.24-0.26
							c-1.78-2.75-3.2-5.75-4.3-8.73c-1.11-2.99-1.89-5.95-2.34-8.76l-0.09-0.01L146.91,20.53z"/>
					</g>
					<g>
						<path class="st7" d="M145.62,22c0.31,2.88,0.97,5.96,1.89,9.07c0.94,3.12,2.14,6.28,3.73,9.26c0.1-0.07,0.2-0.16,0.29-0.24
							c-1.6-2.95-2.79-6.06-3.73-9.15c-0.92-3.08-1.57-6.12-1.88-8.97l-0.23-0.04L145.62,22z"/>
					</g>
					<g>
						<path class="st7" d="M144.61,23.55c0.17,2.86,0.66,5.95,1.38,9.09c0.73,3.15,1.71,6.39,3.03,9.48
							c-0.08,0.08-0.19,0.14-0.29,0.22c-1.32-3.14-2.31-6.44-3.03-9.63c-0.73-3.2-1.21-6.32-1.38-9.22L144.61,23.55z"/>
					</g>
					<g>
						<path class="st7" d="M143.25,25.09c0.03,2.86,0.32,5.92,0.83,9.12c0.24,1.59,0.55,3.21,0.93,4.84
							c0.36,1.62,0.79,3.25,1.31,4.86c-0.1,0.05-0.22,0.12-0.31,0.18c-1.03-3.27-1.72-6.62-2.22-9.85c-0.51-3.24-0.8-6.34-0.84-9.24
							L143.25,25.09z"/>
					</g>
					<g>
						<path class="st7" d="M141.83,26.56c-0.09,2.84,0.02,5.87,0.29,9.07c0.27,3.19,0.68,6.51,1.35,9.8
							c-0.1,0.06-0.23,0.12-0.35,0.17c-0.32-1.67-0.59-3.35-0.81-5.02c-0.21-1.66-0.38-3.32-0.51-4.93
							c-0.25-3.23-0.36-6.31-0.26-9.18L141.83,26.56z"/>
					</g>
				</g>
			</g>
		</g>
		<g class="st4">
			<path class="st7" d="M96.92,24.88c0,0,0.52-1.32,1.7-3.53c1.18-2.2,3.02-5.29,6.06-8.6c1.53-1.64,3.39-3.33,5.69-4.86
				c0.57-0.38,1.19-0.74,1.82-1.1c0.63-0.32,1.35-0.71,1.94-0.97c1.25-0.59,2.5-1.1,3.75-1.6c2.46-0.96,4.87-1.77,6.88-2.62
				c2.05-0.84,3.64-1.7,4.98-2.64c0.28-0.23,0.6-0.41,0.86-0.65L131.02-2l0.49-0.44c0.68-0.58,1.33-1.19,1.97-1.79
				c1.29-1.21,2.47-2.48,3.6-3.75c2.27-2.54,4.12-5.19,5.62-7.63c1.47-2.44,2.54-4.69,3.21-6.32c0.37-0.81,0.58-1.47,0.77-1.92
				c0.18-0.45,0.28-0.69,0.28-0.69s0.13,0.2,0.36,0.56c0.22,0.37,0.58,0.94,0.94,1.72c0.74,1.55,1.63,3.98,1.99,7.32
				c0.36,3.33,0.1,7.58-1.54,12.26c-0.83,2.33-2.02,4.74-3.64,7.1c-0.4,0.6-0.83,1.18-1.3,1.76c-0.46,0.58-0.94,1.16-1.47,1.71
				c-0.26,0.28-0.53,0.56-0.79,0.84c-0.25,0.27-0.63,0.59-0.95,0.89c-0.65,0.61-1.38,1.16-2.12,1.7c-3.04,2.15-6.43,3.42-9.43,4.11
				c-3.03,0.72-5.72,0.96-8.14,1.19c-1.15,0.11-2.29,0.21-3.41,0.32c-0.49,0.05-0.98,0.1-1.47,0.15c-0.47,0.08-0.95,0.14-1.43,0.24
				c-1.9,0.37-3.8,0.95-5.57,1.62c-3.55,1.34-6.59,2.93-8.71,4.08C98.18,24.18,96.92,24.88,96.92,24.88z"/>
			<g class="st8">
				<path class="st9" d="M146.98-24.31c1.91,2.29,3.3,6.2,3.3,10.86c0.06,4.65-1.35,9.94-4.05,14.61c-1.34,2.34-3.04,4.53-4.99,6.49
					c-0.45,0.48-1.05,1.01-1.64,1.52c-0.58,0.52-1.23,0.95-1.85,1.41c-1.29,0.85-2.63,1.6-3.98,2.18c-2.71,1.18-5.37,1.81-7.8,2.2
					c-2.43,0.4-4.69,0.6-6.75,0.82c-1.01,0.11-2.08,0.22-2.96,0.34c-0.89,0.1-1.8,0.3-2.72,0.51c-1.83,0.45-3.7,1.09-5.53,1.88
					c-3.68,1.58-7.29,3.67-10.74,6"/>
				<path class="st9" d="M146.98-24.31c1.59,2.36,2.7,6.22,2.52,10.74c-0.13,4.52-1.63,9.61-4.33,14.11
					c-1.32,2.23-2.98,4.32-4.86,6.2c-0.44,0.47-1.01,0.96-1.56,1.44c-0.55,0.49-1.16,0.89-1.74,1.33c-1.21,0.8-2.47,1.52-3.75,2.07
					c-2.6,1.15-5.2,1.8-7.6,2.23c-2.41,0.44-4.68,0.69-6.78,0.98c-2.14,0.29-3.9,0.56-5.77,1.13c-1.86,0.55-3.71,1.3-5.52,2.19
					c-3.62,1.77-7.08,4.01-10.35,6.46"/>
				<path class="st9" d="M146.98-24.31c1.27,2.42,2.11,6.23,1.73,10.63c-0.31,4.4-1.92,9.28-4.6,13.61
					c-1.32,2.15-2.94,4.15-4.78,5.95c-0.42,0.45-0.99,0.91-1.5,1.36c-0.52,0.45-1.1,0.84-1.66,1.25c-1.15,0.75-2.34,1.43-3.56,1.95
					c-2.48,1.1-4.98,1.75-7.34,2.21c-2.37,0.47-4.62,0.77-6.75,1.13c-2.14,0.36-3.98,0.73-5.87,1.4c-1.88,0.65-3.72,1.52-5.5,2.49
					c-3.56,1.96-6.87,4.36-9.96,6.91"/>
				<path class="st9" d="M146.98-24.31c0.95,2.49,1.52,6.25,0.95,10.51c-0.5,4.27-2.2,8.96-4.88,13.11c-1.32,2.06-2.9,3.98-4.69,5.7
					c-0.89,0.88-1.95,1.73-3.01,2.46c-1.09,0.7-2.21,1.34-3.37,1.84c-2.35,1.06-4.76,1.7-7.08,2.19c-2.32,0.5-4.58,0.85-6.72,1.29
					c-2.14,0.42-4.07,0.9-5.98,1.68c-1.9,0.76-3.73,1.72-5.48,2.79c-3.5,2.14-6.67,4.7-9.57,7.37"/>
				<path class="st9" d="M146.98-24.31c0.63,2.55,0.92,6.26,0.17,10.39c-0.69,4.14-2.47,8.63-5.15,12.6
					c-1.32,1.97-2.87,3.81-4.61,5.46c-1.74,1.71-3.86,3.07-6.03,4.03c-4.48,2.02-9.2,2.59-13.52,3.62
					c-2.15,0.49-4.16,1.08-6.08,1.96c-1.92,0.87-3.74,1.93-5.45,3.09c-3.43,2.33-6.46,5.04-9.18,7.82"/>
				<path class="st9" d="M146.98-24.31c0.31,2.62,0.33,6.27-0.61,10.27c-0.88,4-2.74,8.3-5.41,12.09c-2.63,3.71-6.02,7.2-10.2,8.98
					c-4.23,1.93-8.88,2.6-13.26,3.77c-2.15,0.55-4.25,1.25-6.19,2.24c-1.94,0.97-3.74,2.13-5.43,3.39
					c-3.36,2.51-6.25,5.38-8.79,8.27"/>
				<path class="st9" d="M146.98-24.31c-0.01,2.68-0.26,6.28-1.4,10.14c-1.07,3.87-3.01,7.97-5.68,11.58
					c-1.31,1.78-2.79,3.47-4.43,4.96c-1.57,1.49-3.41,2.62-5.34,3.51c-3.98,1.84-8.56,2.61-13,3.92c-2.16,0.62-4.36,1.43-6.3,2.53
					c-1.96,1.08-3.75,2.33-5.4,3.68c-3.3,2.7-6.03,5.72-8.39,8.72"/>
				<path class="st9" d="M146.98-24.31c-0.33,2.75-0.86,6.29-2.18,10.02c-1.26,3.74-3.29,7.63-5.94,11.07
					c-1.31,1.69-2.76,3.29-4.34,4.72c-1.49,1.36-3.17,2.4-4.99,3.25c-3.73,1.76-8.26,2.62-12.75,4.08
					c-2.16,0.68-4.47,1.61-6.41,2.81c-1.98,1.18-3.76,2.54-5.37,3.98c-3.23,2.88-5.81,6.07-7.99,9.17"/>
				<path class="st9" d="M146.98-24.31c-0.65,2.81-1.45,6.29-2.96,9.88c-1.44,3.6-3.55,7.3-6.2,10.56c-1.3,1.61-2.72,3.11-4.24,4.47
					c-1.39,1.22-2.93,2.18-4.63,2.99c-3.49,1.68-7.96,2.64-12.51,4.24c-1.1,0.38-2.21,0.82-3.36,1.34
					c-1.11,0.53-2.17,1.11-3.17,1.76c-1.99,1.28-3.76,2.74-5.34,4.27c-3.16,3.07-5.6,6.4-7.59,9.62"/>
				<path class="st9" d="M146.98-24.31c-0.97,2.88-2.05,6.3-3.74,9.75c-1.63,3.47-3.82,6.97-6.46,10.04
					c-1.29,1.52-2.69,2.94-4.15,4.22c-1.29,1.09-2.69,1.97-4.28,2.74c-3.26,1.6-7.66,2.66-12.29,4.4c-0.55,0.2-1.12,0.45-1.68,0.67
					c-0.56,0.24-1.17,0.53-1.74,0.8c-1.13,0.59-2.21,1.22-3.21,1.91c-2.01,1.38-3.76,2.94-5.3,4.56c-3.08,3.25-5.37,6.74-7.18,10.07
					"/>
				<path class="st9" d="M146.98-24.31c-0.93,2.19-1.96,4.62-3.18,7.09c-1.23,2.47-2.68,4.98-4.34,7.38
					c-1.68,2.39-3.57,4.67-5.63,6.68c-2.25,2.18-3.75,3.35-6.06,4.45c-2.23,1.11-5.14,2.06-8.42,3.19
					c-1.63,0.57-3.35,1.21-5.07,1.98c-1.8,0.79-3.6,1.81-5.13,2.92c-3.11,2.23-5.52,4.87-7.5,7.52c-1.98,2.67-3.51,5.38-4.74,7.99"
					/>
			</g>
		</g>
		<g class="st4">
			<path class="st5" d="M134.32,57.56c-2.19,3.2-3.09,6.89-3.12,10.39c-0.03,3.52,0.76,6.83,1.81,9.76c1.08,3.05,2.45,6,3.61,8.91
				c2.68-2.85,4.63-6.75,5.99-10.4c1.88-5.1,2.77-10.04,4.88-14.83c1.05-2.38,2.37-4.89,4.24-7.04c0.94-1.06,2-2.03,3.19-2.81
				c1.19-0.76,2.5-1.34,3.85-1.65c-1.9,0.04-3.82-0.04-5.88-0.03c-2.04,0.01-4.21,0.11-6.42,0.49
				C142.08,51.11,137.38,53.14,134.32,57.56z"/>
			<path class="st10" d="M141.32,52.7c-2.2,1.29-3.96,2.66-5.41,4.35c-1.45,1.7-2.58,3.73-3.28,6.33c-1.04,3.9-0.66,8.14,0.35,11.92
				c1.01,3.82,2.58,7.23,3.78,10.28c0.64-1.52,0.53-3.31,0.31-5.22c-0.22-1.9-0.56-3.92-0.48-5.69c0.07-1.97,0.1-3.62,0.18-5.3
				c0.08-1.68,0.25-3.38,0.76-5.38c0.94-3.76,3.66-7.24,6.98-9.56c3.33-2.37,7.2-3.58,10.48-4.04c-2.04-0.31-4.33-0.41-6.69-0.08
				C145.95,50.65,143.53,51.42,141.32,52.7z"/>
			<g class="st11">
				<g>
					<path class="st12" d="M158.77,50.05c-3.36,0.35-6.22,0.02-9.9,0.34c-0.63,0.08-1.32,0.14-1.99,0.28
						c-2.63,0.48-5.5,1.48-8.02,3.18c-2.51,1.67-4.64,4.1-5.71,6.87c-1.1,2.85-1.41,5.58-1.32,8.06c0.1,2.49,0.6,4.76,1.22,6.87
						c1.15,3.83,2.59,7.08,3.56,10.96l-0.1,0.04c-0.96-3.86-2.4-7.11-3.55-10.93c-0.63-2.13-1.13-4.4-1.23-6.91
						c-0.1-2.5,0.21-5.24,1.33-8.12c1.08-2.81,3.23-5.26,5.76-6.95c2.54-1.71,5.43-2.72,8.08-3.19c0.67-0.14,1.37-0.2,2-0.28
						c3.67-0.31,6.53,0.01,9.88-0.33L158.77,50.05z"/>
				</g>
				<g>
					<path class="st12" d="M158.69,50.06c-3.17,0.33-5.98,0.17-9.52,0.66c-0.66,0.11-1.39,0.22-2.09,0.41
						c-2.32,0.56-4.72,1.5-6.86,2.89c-2.14,1.38-4.01,3.2-5.26,5.35c-0.37,0.61-0.66,1.26-0.92,1.91c-1.01,2.65-1.35,5.19-1.32,7.54
						c0.02,2.35,0.4,4.52,0.9,6.56c0.98,3.92,2.27,7.27,3.03,11.2l-0.1,0.03c-0.76-3.92-2.05-7.26-3.03-11.17
						c-0.5-2.05-0.88-4.22-0.9-6.59c-0.02-2.36,0.31-4.92,1.33-7.59c0.26-0.66,0.55-1.32,0.93-1.94c1.27-2.17,3.16-4.01,5.31-5.4
						c2.15-1.4,4.57-2.34,6.91-2.9c0.71-0.19,1.44-0.29,2.1-0.41c3.54-0.49,6.34-0.32,9.51-0.65L158.69,50.06z"/>
				</g>
				<g>
					<path class="st12" d="M158.61,50.07c-2.98,0.32-5.72,0.3-9.11,0.95c-0.71,0.16-1.48,0.32-2.23,0.56
						c-1.78,0.53-4.03,1.44-6.16,2.87c-2.12,1.42-4.1,3.36-5.33,5.52c-0.35,0.58-0.62,1.22-0.87,1.86c-1.8,4.89-1.46,9.3-0.74,13.15
						c0.79,4.05,1.95,7.54,2.49,11.55l-0.11,0.02c-0.53-4-1.7-7.48-2.49-11.53c-0.73-3.87-1.08-8.29,0.74-13.22
						c0.26-0.65,0.53-1.29,0.88-1.89c1.24-2.18,3.23-4.14,5.37-5.57c2.14-1.44,4.4-2.35,6.2-2.89c0.76-0.25,1.53-0.4,2.24-0.57
						c3.39-0.64,6.13-0.62,9.1-0.94L158.61,50.07z"/>
				</g>
				<g>
					<path class="st12" d="M158.53,50.08c-2.77,0.3-5.42,0.43-8.63,1.2c-0.77,0.22-1.61,0.44-2.43,0.76c-1.84,0.67-4,1.72-5.98,3.2
						c-1.98,1.46-3.76,3.35-4.86,5.35c-0.33,0.55-0.57,1.17-0.82,1.81c-1.6,4.41-1.48,8.45-1.02,12.07
						c0.58,4.24,1.63,7.91,1.91,12.05l-0.11,0.01c-0.28-4.13-1.33-7.79-1.91-12.03c-0.47-3.63-0.59-7.69,1.02-12.13
						c0.26-0.65,0.5-1.27,0.84-1.83c1.11-2.02,2.9-3.92,4.9-5.39c1.99-1.49,4.17-2.54,6.02-3.21c0.82-0.32,1.66-0.54,2.44-0.76
						c3.21-0.77,5.86-0.89,8.63-1.2L158.53,50.08z"/>
				</g>
				<g>
					<path class="st12" d="M158.45,50.08c-1.27,0.12-2.55,0.3-3.9,0.48c-1.33,0.23-2.73,0.48-4.15,0.92c-0.88,0.27-1.81,0.58-2.73,1
						c-2.12,0.92-4.21,2.19-5.98,3.71c-1.78,1.51-3.25,3.25-4.22,4.99c-0.33,0.56-0.55,1.18-0.78,1.75
						c-1.37,3.88-1.49,7.51-1.24,10.83c0.35,4.49,1.28,8.4,1.27,12.72l-0.11,0c0.01-4.3-0.93-8.2-1.28-12.69
						c-0.25-3.33-0.14-6.98,1.24-10.88c0.23-0.57,0.45-1.19,0.79-1.78c0.97-1.75,2.45-3.51,4.25-5.02c1.79-1.52,3.89-2.8,6.02-3.73
						c0.93-0.42,1.85-0.73,2.74-1c1.42-0.44,2.83-0.68,4.15-0.92c1.35-0.18,2.63-0.35,3.9-0.48L158.45,50.08z"/>
				</g>
				<g>
					<path class="st12" d="M158.37,50.09c-2.23,0.27-4.7,0.6-7.28,1.49c-0.53,0.17-1.06,0.37-1.59,0.6
						c-0.54,0.21-1.08,0.47-1.62,0.75c-1.92,0.98-3.89,2.31-5.57,3.86c-1.69,1.55-3.09,3.31-3.99,4.98
						c-0.29,0.54-0.51,1.11-0.73,1.7c-1.15,3.3-1.42,6.46-1.39,9.4c0.09,4.82,0.9,9.04,0.56,13.57l-0.11-0.02
						c0.34-4.51-0.47-8.73-0.56-13.54c-0.03-2.96,0.23-6.12,1.39-9.45c0.22-0.59,0.44-1.18,0.74-1.72c0.91-1.68,2.31-3.46,4.01-5.01
						c1.69-1.56,3.67-2.9,5.6-3.88c0.55-0.28,1.08-0.54,1.63-0.75c0.53-0.23,1.07-0.43,1.6-0.6c2.59-0.89,5.06-1.22,7.29-1.49
						L158.37,50.09z"/>
				</g>
				<g>
					<path class="st12" d="M158.29,50.1c-1.85,0.23-3.94,0.61-6.12,1.38c-1.33,0.49-2.72,1.07-4.08,1.89
						c-1.85,1.08-3.73,2.49-5.3,4.09c-1.57,1.59-2.84,3.33-3.62,4.89c-0.22,0.47-0.45,0.99-0.68,1.65c-0.91,2.68-1.3,5.28-1.42,7.77
						c-0.25,5.45,0.46,9.84-0.28,14.64l-0.1-0.03c0.74-4.79,0.03-9.17,0.27-14.61c0.12-2.49,0.51-5.11,1.42-7.8
						c0.24-0.66,0.46-1.19,0.69-1.67c0.06-0.11,0.11-0.21,0.17-0.32c0.81-1.55,2.08-3.23,3.63-4.76c1.54-1.53,3.36-2.89,5.16-3.94
						c1.37-0.83,2.76-1.41,4.1-1.9c2.19-0.77,4.28-1.15,6.14-1.38L158.29,50.1z"/>
				</g>
				<g>
					<path class="st12" d="M158.21,50.11c-1.17,0.13-2.47,0.42-3.84,0.82c-1.9,0.58-4.02,1.52-6.06,2.88
						c-1.78,1.18-3.54,2.7-4.98,4.33c-1.45,1.62-2.59,3.34-3.29,4.79c-0.25,0.56-0.48,1.12-0.64,1.6c-0.68,2-1.07,3.98-1.3,5.9
						c-0.35,2.96-0.35,5.7-0.43,8.29c-0.09,2.6-0.24,5.08-0.84,7.66l-0.1-0.04c0.59-2.57,0.75-5.04,0.84-7.64
						c0.08-2.59,0.07-5.33,0.43-8.28c0.23-1.92,0.62-3.91,1.3-5.92c0.16-0.49,0.39-1.05,0.64-1.62c0.7-1.45,1.84-3.19,3.3-4.81
						c1.45-1.64,3.22-3.16,5.01-4.35c2.05-1.37,4.18-2.32,6.09-2.89c1.38-0.4,2.68-0.69,3.86-0.82L158.21,50.11z"/>
				</g>
				<g>
					<path class="st12" d="M138.32,77.66c-0.23,2.99-0.57,5.79-1.47,8.68l-0.1-0.05c0.87-2.77,1.2-5.47,1.44-8.34
						c0.24-2.86,0.39-5.9,1.01-9.16c0.25-1.24,0.56-2.52,0.99-3.78c0.15-0.49,0.38-1.03,0.6-1.57c1.14-2.56,3.83-6.41,7.66-9.29
						c3.63-2.77,7.37-3.87,9.66-4.15l0.01,0.1c-2.28,0.28-5.99,1.38-9.61,4.13c-3.81,2.87-6.49,6.71-7.62,9.25
						c-0.22,0.53-0.45,1.07-0.6,1.55c-0.43,1.26-0.73,2.54-0.98,3.77C138.71,71.95,138.56,74.89,138.32,77.66z"/>
				</g>
				<g>
					<path class="st12" d="M139.23,75.72c-0.47,3.7-0.96,7.17-2.34,10.6l-0.09-0.06c1.22-3.01,1.73-6.06,2.17-9.29
						c0.43-3.22,0.78-6.64,1.74-10.07c0.11-0.46,0.27-0.9,0.41-1.36c0.15-0.51,0.36-1.01,0.56-1.52c0.88-1.96,2.65-5.57,7-9.42
						c3.38-2.9,7.01-4.28,9.37-4.58l0.01,0.1c-2.34,0.29-5.95,1.67-9.31,4.56c-4.34,3.83-6.1,7.43-6.97,9.38
						c-0.2,0.5-0.41,1-0.56,1.5c-0.14,0.45-0.3,0.89-0.41,1.35C139.97,69.9,139.59,72.88,139.23,75.72z"/>
				</g>
				<g>
					<path class="st12" d="M140.3,74.02c-0.76,4.4-1.44,8.39-3.38,12.26l-0.09-0.07c1.53-3.04,2.26-6.16,2.89-9.51
						c0.62-3.34,1.12-6.94,2.3-10.66l0.08-0.25c0.12-0.41,0.29-0.81,0.44-1.21c0.4-0.98,1-2.35,1.89-3.85
						c1.11-1.92,2.68-3.94,4.45-5.68c3.57-3.42,7.07-4.72,9.07-5.02l0.01,0.1c-1.98,0.29-5.45,1.59-9.01,4.99
						c-1.77,1.74-3.33,3.75-4.44,5.66c-0.89,1.49-1.48,2.86-1.89,3.84c-0.15,0.4-0.32,0.8-0.44,1.21l-0.08,0.25
						C141.24,68.79,140.75,71.48,140.3,74.02z"/>
				</g>
				<g>
					<path class="st12" d="M141.48,72.6c-0.33,1.48-0.61,2.83-0.93,4.12c-0.88,3.66-1.91,6.75-3.61,9.53l-0.08-0.08
						c1.86-3.08,2.84-6.37,3.63-9.72c0.8-3.34,1.44-6.75,2.44-9.9l0.17-0.55c0.1-0.29,0.21-0.58,0.31-0.86
						c0.52-1.39,1.44-3.77,3.11-6.31c0.76-1.14,1.62-2.29,2.59-3.34c1.79-1.94,3.57-3.22,5.09-4.06c1.52-0.83,2.77-1.24,3.68-1.39
						l0.01,0.1c-0.9,0.14-2.14,0.55-3.65,1.38c-1.5,0.83-3.27,2.11-5.05,4.03c-0.96,1.04-1.82,2.19-2.58,3.32
						c-1.66,2.53-2.58,4.91-3.1,6.29l-0.31,0.86l-0.17,0.55C142.32,68.84,141.87,70.81,141.48,72.6z"/>
				</g>
				<g>
					<path class="st12" d="M142.69,71.57c-1.5,5.94-2.86,10.69-5.72,14.64l-0.08-0.09c1.75-2.43,2.97-5.18,3.96-8.33
						c1.02-3.15,1.75-6.7,2.99-10.75c0.12-0.4,0.24-0.79,0.37-1.17l0.07-0.19c0.44-1.3,1.21-3.8,2.8-6.52
						c0.66-1.09,1.39-2.21,2.24-3.23c1.17-1.44,2.69-2.9,4.26-3.96c1.56-1.08,3.15-1.73,4.2-1.92l0.02,0.1
						c-1.04,0.19-2.62,0.84-4.17,1.9c-1.56,1.05-3.06,2.5-4.23,3.93c-0.85,1.02-1.58,2.14-2.24,3.22c-1.58,2.72-2.35,5.21-2.79,6.51
						l-0.07,0.19c-0.14,0.37-0.26,0.77-0.37,1.17C143.46,68.65,143.07,70.14,142.69,71.57z"/>
				</g>
				<g>
					<path class="st12" d="M143.86,70.98c-0.67,2.27-1.41,4.83-2.43,7.44c-1.04,2.61-2.37,5.28-4.43,7.75l-0.07-0.09
						c2.84-3.42,4.33-7.23,5.49-10.75c1.14-3.52,1.99-6.78,2.74-9.11c0.36-1.15,0.9-3.62,2.28-6.36c1.14-2.36,2.93-4.86,4.94-6.67
						c1.98-1.84,4.14-2.91,5.33-3.14l0.02,0.1c-0.11,0.02-0.23,0.04-0.35,0.08c-1.28,0.36-3.34,1.49-5.2,3.3
						c-1.89,1.76-3.55,4.14-4.64,6.38c-1.38,2.73-1.91,5.19-2.27,6.34C144.85,67.57,144.38,69.19,143.86,70.98z"/>
				</g>
			</g>
		</g>
		<g class="st4">
			<path class="st13" d="M74.72-4.36c-0.78,0.25-1.26,0.88-1.44,1.65c-0.11,0.48,0.34,1,0.8,1.04c0.53,0.05,0.9-0.28,1.03-0.77
				c0,0,0,0,0,0c-0.02,0.08-0.02,0.09,0.01,0c0.01-0.02,0.01-0.03,0.02-0.04c0.01-0.01,0.02-0.03,0.03-0.04c0,0,0,0,0,0
				c0.02-0.02,0.04-0.03,0.06-0.05c0.03-0.02,0.04-0.03,0.05-0.03c0.06-0.02,0.14-0.04,0.17-0.05c0.46-0.15,0.7-0.79,0.5-1.22
				C75.7-4.35,75.21-4.52,74.72-4.36z"/>
			<g>
				<polygon class="st13" points="79.13,-2.51 79.13,-2.51 79.13,-2.51 				"/>
				<path class="st13" d="M79.37-4.37c-0.45-0.31-0.95-0.2-1.3,0.19c-0.33,0.35-0.58,0.77-0.78,1.21c-0.2,0.44,0.05,1.05,0.51,1.21
					c0.49,0.18,1-0.04,1.21-0.51c0.01-0.02,0.1-0.19,0.12-0.23c-0.02,0.04-0.08,0.13-0.01,0.02c0.01-0.01,0.01-0.02,0.02-0.02
					c0,0,0-0.01,0-0.01c0,0,0,0,0,0.01c0.02-0.04,0.05-0.08,0.07-0.11c0.11-0.16,0.23-0.3,0.35-0.44
					C79.89-3.42,79.76-4.11,79.37-4.37z"/>
			</g>
			<path class="st13" d="M74.48,1.52c-0.32,0.12-0.62,0.34-0.83,0.62c-0.25,0.34-0.31,0.73-0.31,1.14c0,0.22,0.19,0.5,0.36,0.63
				c0.18,0.13,0.45,0.22,0.68,0.18c0.24-0.04,0.48-0.16,0.62-0.36c0.11-0.15,0.15-0.31,0.17-0.47c0.01,0,0.01-0.01,0.02-0.01
				c0.46-0.17,0.71-0.78,0.5-1.22C75.47,1.55,74.97,1.33,74.48,1.52z"/>
			<path class="st13" d="M82.73-1.09c-0.45-0.31-0.95-0.2-1.3,0.19c-0.32,0.36-0.58,0.77-0.78,1.21c-0.2,0.44,0.05,1.05,0.51,1.21
				c0.49,0.18,1-0.04,1.21-0.51c0.03-0.07,0.07-0.15,0.11-0.22c0.03-0.05,0.07-0.1,0.08-0.12c0.11-0.16,0.23-0.31,0.35-0.45
				C83.25-0.15,83.12-0.82,82.73-1.09z"/>
			<path class="st13" d="M88.91-7.24c-0.31-0.36-0.92-0.5-1.31-0.16c-0.18,0.16-0.33,0.34-0.42,0.57c-0.1,0.25-0.1,0.46-0.1,0.72
				c0,0.22,0.19,0.5,0.36,0.63c0.18,0.13,0.45,0.22,0.68,0.18c0.24-0.04,0.48-0.16,0.62-0.36c0.04-0.07,0.08-0.14,0.12-0.21
				c0.03-0.08,0.05-0.16,0.06-0.25c0.09-0.12,0.16-0.26,0.18-0.42C89.13-6.77,89.07-7.06,88.91-7.24z"/>
			<path class="st13" d="M88.09,1.35c-0.44-0.3-0.96-0.2-1.3,0.19c-0.41,0.46-0.64,1-0.78,1.59c-0.11,0.48,0.33,1,0.8,1.04
				c0.54,0.05,0.92-0.29,1.04-0.79c0.01-0.04,0.03-0.08,0.04-0.12c0.03-0.09,0.07-0.17,0.11-0.26c0.02-0.04,0.05-0.07,0.07-0.11
				c0.06-0.09,0.13-0.17,0.2-0.25C88.6,2.29,88.48,1.62,88.09,1.35z"/>
			<path class="st13" d="M80.25,5.01c-0.41-0.28-1-0.24-1.3,0.19c-0.34,0.48-0.63,1.01-0.8,1.58C78,7.24,78.14,7.8,78.65,7.98
				c0.44,0.16,1.06-0.01,1.21-0.51c0.07-0.23,0.16-0.45,0.26-0.67c0.02-0.05,0.05-0.1,0.07-0.15c0,0,0-0.01,0.01-0.01
				c0.07-0.12,0.15-0.23,0.23-0.34C80.72,5.92,80.67,5.29,80.25,5.01z"/>
			<path class="st13" d="M75.41,10.62c-0.43-0.16-1.07,0.01-1.21,0.51c-0.1,0.34-0.19,0.68-0.29,1.02c-0.07,0.25-0.1,0.47,0,0.71
				c0.09,0.21,0.29,0.42,0.51,0.5c0.43,0.15,1.07-0.01,1.21-0.51c0.1-0.34,0.19-0.68,0.29-1.02c0.07-0.25,0.1-0.47,0-0.71
				C75.83,10.91,75.63,10.7,75.41,10.62z"/>
			<path class="st13" d="M84.56,9.69c-0.42-0.29-0.98-0.22-1.3,0.19c-0.27,0.34-0.49,0.73-0.63,1.14c-0.16,0.46,0.02,1.04,0.51,1.21
				c0.45,0.16,1.05-0.02,1.21-0.51c0.05-0.15,0.14-0.3,0.19-0.45c0.01-0.02,0.02-0.03,0.03-0.05c0.05-0.08,0.11-0.15,0.17-0.23
				C85.05,10.61,84.97,9.97,84.56,9.69z"/>
			<path class="st13" d="M87.3,7.13c-0.46,0.22-0.7,0.74-0.5,1.22l0.13,0.31c0.19,0.45,0.76,0.71,1.22,0.5
				c0.46-0.22,0.7-0.74,0.5-1.22l-0.13-0.31C88.33,7.18,87.76,6.92,87.3,7.13z"/>
			<path class="st13" d="M93.45-3.35c-0.83,0.07-1.24,0.86-1.38,1.58c-0.09,0.48,0.32,1,0.8,1.04c0.53,0.05,0.95-0.29,1.04-0.8
				c0-0.02,0.01-0.03,0.01-0.05c0.37-0.16,0.63-0.58,0.56-0.98C94.4-3.07,93.97-3.4,93.45-3.35z"/>
			<path class="st13" d="M94.85,2.34c-0.75,0.31-1.16,0.96-1.66,1.56c-0.32,0.38-0.2,1.01,0.19,1.3c0.42,0.32,0.98,0.2,1.3-0.19
				c0.18-0.21,0.34-0.43,0.51-0.65c0.12-0.15,0.25-0.26,0.38-0.31c0.46-0.19,0.69-0.76,0.5-1.22C95.87,2.37,95.32,2.14,94.85,2.34z"
				/>
			<path class="st13" d="M85.49,14.23c-0.14-0.18-0.38-0.33-0.61-0.35c-0.24-0.02-0.51,0.03-0.7,0.19
				c-0.19,0.17-0.29,0.36-0.35,0.61c-0.04,0.2-0.08,0.39-0.11,0.59c-0.08,0.48,0.31,1,0.8,1.04c0.52,0.05,0.96-0.29,1.04-0.8
				c0.03-0.2,0.07-0.39,0.11-0.59C85.73,14.7,85.63,14.4,85.49,14.23z"/>
			<path class="st13" d="M78.94,14.1c-0.15-0.18-0.37-0.33-0.61-0.35c-0.27-0.02-0.47,0.06-0.7,0.19c-0.33,0.2-0.58,0.51-0.74,0.86
				c-0.18,0.37-0.21,0.75-0.2,1.15c0,0.23,0.19,0.5,0.36,0.62c0.18,0.13,0.45,0.22,0.68,0.18c0.55-0.1,0.81-0.52,0.8-1.04
				c0,0.25,0.01,0.01,0.02-0.08c0,0,0,0,0,0c0-0.01,0.01-0.02,0.02-0.03c0.02-0.03,0.05-0.07,0.07-0.09c0,0,0,0,0.01,0
				c0.04-0.03,0.09-0.06,0.14-0.09c0.19-0.11,0.32-0.41,0.35-0.61C79.16,14.57,79.09,14.28,78.94,14.1z"/>
			<path class="st13" d="M74.51,19.69c-0.53-0.05-0.95,0.29-1.04,0.8c-0.04,0.2-0.08,0.39-0.11,0.59c-0.09,0.48,0.32,1,0.8,1.04
				c0.53,0.05,0.95-0.29,1.04-0.8l0.11-0.59C75.4,20.25,74.99,19.73,74.51,19.69z"/>
		</g>
		<path class="st14" d="M40.41,12.49c-1.84,4.29-1.25,9.41,1.08,13.46c2.33,4.04,6.26,7.03,10.6,8.72c4.64,1.81,9.95,2.19,14.6,0.4
			c1.98-0.76,4.02-2.21,4.19-4.32c0.17-2.11-1.59-3.87-3.41-4.95c-1.82-1.08-3.91-1.87-5.22-3.54c-2.73-3.48-0.69-8.7-2.09-12.9
			C56.66-1.15,43.41,5.47,40.41,12.49z"/>
		<g class="st4">
			<path class="st12" d="M45.61,22.94c-4.25-2.72-7.69-5.37-10.68-7.97c-2.99-2.61-5.56-5.15-7.96-7.85
				c-2.38-2.71-4.67-5.52-6.81-8.89c-1.05-1.69-2.07-3.52-2.91-5.58c-0.84-2.06-1.5-4.36-1.71-6.9c-0.04-0.36-0.63-0.33-0.59,0.05
				c0.22,2.62,0.9,4.98,1.75,7.07c0.85,2.11,1.88,3.96,2.95,5.67c2.17,3.4,4.47,6.23,6.87,8.96c2.41,2.72,5,5.28,8.01,7.91
				c3.01,2.62,6.47,5.29,10.75,8.03C45.6,23.64,45.92,23.14,45.61,22.94z"/>
			<path class="st12" d="M19.29-2.57c-0.31,2.7-0.96,5.48-2.01,8.1c-0.44,1.09-1.49,1.28-2.35,0.88c-0.86-0.4-1.5-1.4-1.04-2.5
				C15.01,1.2,16.92-1.01,19.29-2.57z"/>
			<path class="st12" d="M22.41,1.16c0,0-0.29,1.84-0.67,4.17c-0.39,2.34-0.83,5.22-1.46,7.17c-0.64,2.05-3.84,1-3.26-1.11
				c0.51-1.89,1.83-4.5,3.04-6.57C21.29,2.74,22.41,1.16,22.41,1.16z"/>
			<g>
				<path class="st12" d="M22.55,16.14C23,12.8,24.4,9.6,26.2,6.35c-0.04,3.71-0.04,7.05-0.49,10.34
					C25.47,18.73,22.29,18.21,22.55,16.14z"/>
			</g>
			<g>
				<path class="st12" d="M27.13,21.6c0.05-3.74,1.2-7.4,2.82-11.16c0.38,4.06,0.77,7.72,0.67,11.39c-0.02,1.1-0.88,1.62-1.75,1.57
					C28,23.34,27.13,22.71,27.13,21.6z"/>
			</g>
			<g>
				<path class="st12" d="M33.12,23.76c-0.25-2.83,0.34-5.75,1.22-9.01c0.8,3.3,1.46,6.02,1.67,8.83
					C36.19,25.43,33.3,25.65,33.12,23.76z"/>
			</g>
			<path class="st12" d="M49.36,26.96c-2.07-1.14-3.9-2.66-5.21-4.51c2.22,0.62,4.31,1.54,6.26,2.7C51.5,25.8,50.5,27.6,49.36,26.96
				z"/>
			<path class="st12" d="M37.86,17.68c0.65,2.36,1.66,4.55,2.23,6.86c0.39,1.56-1.95,2.17-2.42,0.61c-0.39-1.38-0.37-3.26-0.22-4.78
				C37.6,18.85,37.86,17.68,37.86,17.68z"/>
			<path class="st12" d="M42.17,20.64c0.56,1.66,1.36,3.18,1.82,4.81c0.32,1.09-1.34,1.63-1.7,0.53c-0.31-0.97-0.36-2.3-0.31-3.39
				C42.04,21.49,42.17,20.64,42.17,20.64z"/>
			<path class="st12" d="M20.03-3c2.49,1.03,5.21,1.23,7.88,0.84c1.11-0.17,1.65-1.06,1.66-1.83C29.58-4.78,29.1-5.45,28-5.31
				C25.34-4.97,22.56-4.28,20.03-3z"/>
			<path class="st12" d="M22.15,1.35c0,0,1.84,0.34,4.13,0.48c2.3,0.15,5.05,0.07,6.94-0.43c1.96-0.54,1.83-3.28-0.11-2.94
				c-1.81,0.32-4.5,1.08-6.8,1.72C24.01,0.82,22.15,1.35,22.15,1.35z"/>
			<g>
				<path class="st12" d="M36.06,3.44c-3.07,0.54-6.3,1.65-9.8,2.87c3.65,0.6,6.87,0.63,9.92-0.03C38.04,5.85,37.91,3.09,36.06,3.44
					z"/>
			</g>
			<g>
				<path class="st12" d="M40.54,6.92c-3.3,0.71-6.81,2.08-10.61,3.54C33.97,11,37.49,10.88,40.79,10c1-0.28,1.41-1.17,1.34-1.92
					C42.07,7.31,41.54,6.69,40.54,6.92z"/>
			</g>
			<g>
				<path class="st12" d="M42.74,11.76c-2.56,0.57-5.22,1.72-8.36,2.95c3.35,0.45,6.06,0.38,8.63-0.29
					C44.69,13.95,44.41,11.38,42.74,11.76z"/>
			</g>
			<path class="st12" d="M37.84,17.71c2.43,0.14,4.76,0.4,6.98,0.04c1.47-0.24,1.4-2.56-0.07-2.38c-1.3,0.14-3.01,0.75-4.42,1.29
				C38.94,17.21,37.84,17.71,37.84,17.71z"/>
			<path class="st12" d="M41.89,21.05c1.75,0,3.44,0.1,5.04-0.21c1.07-0.22,0.91-1.87-0.15-1.71c-0.94,0.13-2.16,0.63-3.15,1.08
				C42.64,20.64,41.89,21.05,41.89,21.05z"/>
		</g>
		<g class="st4">
			<path class="st15" d="M43.27,95.39c-0.91,0.08-2.1,0.27-2.25,1.18c-0.05,0.29,0.04,0.59,0.02,0.88
				c-0.06,0.92-1.06,1.41-1.89,1.81c-3.4,1.61-8.85,5.68-9.36,12.02c1.45-6.59,6.69-9.5,9.83-11.38c1.87-1.12,3.87-1.99,5.73-3.12
				c1.86-1.13,3.61-2.56,4.64-4.47C48.19,94.05,45.77,95.16,43.27,95.39z"/>
			<path class="st16" d="M32.15,97.67c0.84-3.05,2.51-5.99,5.15-7.73c2.99-1.97,7.2-2.5,8.96-5.62c-0.06,3.19-1.46,6.34-3.79,8.51
				c-2.33,2.17-4.73,3.58-7.06,5.75c-1.88,1.75-4.08,6.82-4.57,9.33C31.32,105.49,31.48,100.08,32.15,97.67z"/>
			<path class="st17" d="M30.96,106.93c0.32-1.67-0.05-3.43-0.79-4.97c-0.74-1.54-1.82-2.88-2.95-4.15
				c-4.64-5.19-10.4-9.37-16.76-12.17c0,4.01,2.09,7.81,4.95,10.62c2.86,2.81,6.44,4.77,10.04,6.53c2.19,1.07,4.57,2.23,5.7,4.39
				c-0.05-0.41-0.1-0.81-0.15-1.22"/>
			<path class="st15" d="M30.5,94.14c0.99-3.1,2.98-6,2.87-9.25c1.13,2,2.3,4.2,1.95,6.48c-0.26,1.71-1.35,3.15-2.17,4.68
				c-0.97,1.79-1.35,3.47-1.45,5.5c-0.08,1.68,0.18,3.36,0.51,4.95c-1.01-0.4-2.15-4.67-2.28-5.59
				C29.63,98.64,29.81,96.31,30.5,94.14z"/>
			<path class="st13" d="M21.3,90.14c-1.59-1.21-3.1-2.63-3.92-4.45c-0.72,2.07-0.11,4.42,1.12,6.23c1.23,1.81,2.99,3.18,4.78,4.46
				c1.78,1.27,3.63,2.5,5.1,4.12c0.93,1.02,1.68,2.19,2.25,3.45c-0.14-3.81-1.79-7.56-4.56-10.18C24.61,92.4,22.89,91.35,21.3,90.14
				z"/>
			<path class="st13" d="M17.23,97.49c-3.88,0.05-7.74,1.91-11.52,1.03c0.82,3.33,3.92,5.98,7.34,6.27c2.5,0.22,4.95-0.7,7.46-0.82
				c3.74-0.18,7.55,1.67,9.58,4.84c-0.37-0.58,0.28-0.3-0.08-1.08c-0.29-0.63-1.17-3.04-1.58-3.6c-1.02-1.4-2.07-2.81-3.44-3.89
				C22.8,98.51,20.04,97.45,17.23,97.49z"/>
			<path class="st18" d="M29.15,95.73c-1.9-3.08-4.93-5.59-5.8-9.1c-0.28,1.69-0.56,3.39-0.47,5.1c0.09,1.71,0.59,3.44,1.69,4.74
				c1.07,1.26,2.62,2.02,3.78,3.19c1.79,1.81,2.47,4.38,2.79,6.94C31.84,102.89,31.12,98.94,29.15,95.73z"/>
			<path class="st5" d="M63.88,98.97c-0.48,0.41-0.97,0.81-1.46,1.2c-3.83,2.99-8.14,5.37-12.72,7.02
				c-4.99,1.8-10.48,3.04-14.98,5.99c-6.56,4.29-10.18,11.82-12.86,19.18c-2.18,5.99-4,12.23-7.18,17.69
				c0.01,0.01-0.01,0.01-0.01,0.01c-0.73,1.26-1.53,2.48-2.42,3.64c-1.22-0.22-1.95-1.6-1.89-2.84c0.06-1.24,0.69-2.37,1.29-3.46
				c3.63-6.63,6.41-13.72,8.28-21.04c1.14-4.51,2.01-9.18,4.08-13.38c1.85-3.76,5.02-7.77,9.44-8.2c1.84-0.17,3.75-0.08,5.47-0.77
				c1.04-0.42,1.94-1.11,2.95-1.61c0.19-0.1,0.37-0.19,0.57-0.26c1.54-0.61,3.26-0.58,4.92-0.71
				C50.19,101.2,62.84,99.56,63.88,98.97z"/>
			<path class="st7" d="M62.41,100.17c-3.83,2.99-8.14,5.37-12.72,7.02c-4.99,1.8-10.48,3.04-14.98,5.99
				c-6.56,4.29-10.18,11.82-12.86,19.18c-2.18,5.99-4,12.23-7.18,17.69c0.9-2.22,1.68-4.5,2.39-6.77
				c2.07-6.61,3.71-13.39,6.62-19.67c2.91-6.29,7.29-12.17,13.43-15.35c4.45-2.3,9.51-3.05,14.4-4.1
				C55.48,103.29,58.81,101.89,62.41,100.17z"/>
		</g>
		<g class="st4">
			<path class="st7" d="M14.86,177.04l-0.93-0.27c2.84-9.5,8.21-18.05,14.67-25.45c6.5-7.43,14.11-13.76,21.94-19.69l0,0.34
				c-7.73,6-15.21,12.4-21.54,19.83c-3.15,3.72-6.02,7.68-8.44,11.9C18.15,167.91,16.19,172.39,14.86,177.04z"/>
			<path class="st7" d="M52.38,129.36c-0.91,0.8-2.31,2.32-2.93,3.31c0.96-0.4,1.9-0.86,2.81-1.41c0.78-0.47,1.53-1,2.16-1.64
				c0.85-0.87,1.44-1.91,2.01-2.93C54.83,127.69,53.79,128.11,52.38,129.36z"/>
			<g>
				<g>
					<path class="st7" d="M23.38,163.91c-1.32,0.1-2.69,0.44-3.98,1.1c1.02,0.4,2.09,0.7,3.19,0.88c0.94,0.15,1.91,0.21,2.9,0.05
						c1.32-0.22,2.6-0.84,3.85-1.4C27.43,164.13,25.44,163.75,23.38,163.91z"/>
					<path class="st7" d="M25.87,160.46c-1.6,0.15-3.26,0.6-4.81,1.43c1.26,0.43,2.57,0.75,3.91,0.92c1.15,0.15,2.33,0.21,3.52,0
						c1.59-0.28,3.12-1.02,4.63-1.69C30.78,160.63,28.38,160.23,25.87,160.46z"/>
					<path class="st7" d="M28.95,156.9c-1.89,0.17-3.85,0.68-5.69,1.65c1.48,0.48,3.05,0.85,4.62,1.05
						c1.35,0.17,2.76,0.26,4.14,0.02c1.89-0.3,3.66-1.14,5.46-1.89C34.73,157.14,31.91,156.64,28.95,156.9z"/>
					<path class="st7" d="M33.02,152.63c-2.19,0.14-4.48,0.66-6.62,1.72c1.72,0.59,3.49,1.03,5.32,1.32
						c1.56,0.24,3.18,0.38,4.78,0.16c2.17-0.28,4.28-1.17,6.37-1.98C39.71,153.09,36.44,152.42,33.02,152.63z"/>
					<path class="st7" d="M37.5,148.49c-2.5,0.09-5.11,0.6-7.58,1.71c1.95,0.72,3.94,1.27,6.01,1.66c1.77,0.32,3.59,0.53,5.43,0.34
						c2.48-0.26,4.91-1.2,7.33-2.08C45.09,149.19,41.41,148.36,37.5,148.49z"/>
				</g>
				<g>
					<path class="st7" d="M50.4,133.38c-1.12,0.19-2.26,0.54-3.33,1.08c0.88,0.21,1.79,0.35,2.73,0.39c0.81,0.03,1.64,0,2.48-0.21
						c1.13-0.29,2.2-0.89,3.26-1.48C53.85,133.11,52.14,133.08,50.4,133.38z"/>
					<path class="st7" d="M48.17,135.91c-1.4,0.14-2.84,0.47-4.21,1.06c1.07,0.36,2.18,0.62,3.34,0.76c1,0.12,2.02,0.16,3.07-0.02
						c1.41-0.25,2.79-0.91,4.15-1.55C52.46,135.92,50.36,135.7,48.17,135.91z"/>
					<path class="st7" d="M45.93,138.51c-1.68,0.08-3.42,0.42-5.08,1.09c1.26,0.49,2.58,0.86,3.96,1.1c1.18,0.2,2.41,0.31,3.67,0.15
						c1.7-0.22,3.37-0.94,5.02-1.63C51.04,138.79,48.55,138.37,45.93,138.51z"/>
					<path class="st7" d="M43.25,141.43c-1.96,0.05-3.99,0.42-5.94,1.19c1.48,0.6,3.01,1.06,4.62,1.38c1.37,0.27,2.8,0.43,4.26,0.27
						c1.97-0.21,3.92-0.99,5.85-1.73C49.19,141.92,46.31,141.34,43.25,141.43z"/>
					<path class="st7" d="M40.38,144.92c-2.23,0.05-4.56,0.47-6.77,1.4c1.69,0.67,3.47,1.21,5.29,1.56c1.58,0.31,3.19,0.5,4.85,0.34
						c2.23-0.22,4.43-1.08,6.62-1.88C47.14,145.55,43.86,144.84,40.38,144.92z"/>
				</g>
			</g>
			<g>
				<g>
					<path class="st7" d="M18.05,160.66c0.48,1.28,0.82,2.67,0.95,4.13c-0.89-0.65-1.7-1.4-2.4-2.29c-0.6-0.77-1.13-1.64-1.38-2.67
						c-0.36-1.41-0.22-3.06-0.02-4.69C16.24,156.91,17.3,158.66,18.05,160.66z"/>
					<path class="st7" d="M20.41,156.66c0.36,1.63,0.57,3.37,0.5,5.13c-0.95-0.93-1.78-1.99-2.46-3.19
						c-0.59-1.04-1.06-2.18-1.2-3.49c-0.2-1.78,0.24-3.75,0.74-5.68C18.88,151.79,19.84,154.12,20.41,156.66z"/>
					<path class="st7" d="M23.17,152.35c0.21,1.97,0.22,4.04-0.06,6.1c-0.98-1.23-1.8-2.59-2.43-4.12c-0.54-1.31-0.92-2.72-0.91-4.3
						c0.03-2.11,0.77-4.4,1.62-6.58C22.07,146.37,22.85,149.27,23.17,152.35z"/>
					<path class="st7" d="M27.04,147.22c0,2.31-0.25,4.68-0.79,7.01c-0.96-1.54-1.74-3.23-2.25-5.06c-0.45-1.58-0.7-3.27-0.49-5.09
						c0.29-2.45,1.43-4.94,2.63-7.34C26.55,140.2,27.05,143.62,27.04,147.22z"/>
					<path class="st7" d="M31.36,142.22c-0.23,2.61-0.74,5.27-1.6,7.84c-0.9-1.84-1.61-3.85-1.98-5.99
						c-0.33-1.84-0.44-3.79-0.03-5.81c0.56-2.74,2.07-5.43,3.61-8C31.5,134.22,31.74,138.17,31.36,142.22z"/>
				</g>
				<g>
					<path class="st7" d="M48.85,131.38c-0.48,1.04-1.1,2.06-1.87,2.97c0-0.9,0.09-1.83,0.29-2.76c0.18-0.79,0.43-1.61,0.87-2.37
						c0.59-1.03,1.49-1.92,2.37-2.78C50.05,128.1,49.61,129.76,48.85,131.38z"/>
					<path class="st7" d="M45.83,132.94c-0.47,1.34-1.12,2.68-1.97,3.9c-0.14-1.11-0.17-2.27-0.04-3.44
						c0.11-1.01,0.32-2.05,0.78-3.04c0.62-1.35,1.65-2.56,2.67-3.73C46.91,128.73,46.57,130.85,45.83,132.94z"/>
					<path class="st7" d="M42.75,134.61c-0.45,1.65-1.11,3.31-2.01,4.85c-0.29-1.32-0.45-2.7-0.41-4.12
						c0.03-1.22,0.19-2.48,0.66-3.72c0.64-1.67,1.81-3.22,2.96-4.7C43.69,129.47,43.45,132.04,42.75,134.61z"/>
					<path class="st7" d="M39.3,136.8c-0.41,1.96-1.05,3.95-1.99,5.82c-0.46-1.51-0.77-3.12-0.84-4.78
						c-0.06-1.43,0.03-2.92,0.5-4.41c0.64-2.01,1.93-3.91,3.23-5.73C40.04,130.71,39.93,133.75,39.3,136.8z"/>
					<path class="st7" d="M35.32,139.36c-0.34,2.28-0.93,4.61-1.85,6.82c-0.68-1.7-1.15-3.5-1.37-5.41
						c-0.18-1.63-0.18-3.36,0.28-5.11c0.62-2.36,2.03-4.65,3.45-6.83C35.8,132.31,35.85,135.8,35.32,139.36z"/>
				</g>
			</g>
		</g>
	</g>
	<path class="st19" d="M93.91,113.87c-0.79,0.91-1.3,2.25-0.76,3.33c0.42,0.85,1.35,1.32,2.27,1.55c1.61,0.42,3.36,0.3,4.9-0.34
		c1.21-0.5,2.39-1.5,2.4-2.81c0.01-2.01-2.45-2.97-4.06-3.39C96.82,111.75,95.17,112.42,93.91,113.87z"/>
	<path class="st13" d="M114.16,108.85c-0.59-2.59-5.67-2.13-6.3,0.21c-0.31,1.14,0.34,2.43,1.38,2.99c1.04,0.57,2.38,0.45,3.39-0.16
		C113.68,111.27,114.42,110.03,114.16,108.85z"/>
	<path class="st20" d="M108.86,115.71c-0.26,0.31-0.39,0.8-0.11,1.09c0.19,0.2,0.49,0.22,0.77,0.23c0.39,0.01,0.79,0.02,1.15-0.12
		c0.36-0.15,0.67-0.49,0.65-0.88C111.23,114.75,109.43,115.03,108.86,115.71z"/>
	<g>
		<g>
			<g>
				<path class="st18" d="M80.72,40.85c0.42-0.91,1.02-1.73,1.58-2.57c0.56-0.84,1.11-1.81,0.95-2.82
					c-0.21-1.24-1.45-2.06-2.67-2.36c-0.98-0.24-2.1-0.23-2.92,0.36c-0.87,0.62-1.22,1.77-1.14,2.84c0.08,1.06,0.55,2.06,1.05,3
					c0.69,1.3,1.56,2.59,2.64,3.56C80.23,42.17,80.43,41.48,80.72,40.85z"/>
			</g>
			<path class="st12" d="M80.16,41.44c0.06-0.4,0.25-0.77,0.41-1.14c0.17-0.37,0.33-0.75,0.35-1.16c0.02-0.41-0.12-0.84-0.45-1.08
				c-0.34-0.24-0.82-0.21-1.17,0.01c-0.35,0.22-0.57,0.61-0.65,1.02c-0.08,0.41-0.03,0.83,0.06,1.23c0.21,0.87,0.72,2.02,1.49,2.54
				C80.21,42.53,80.09,41.83,80.16,41.44z"/>
			<path class="st13" d="M80.1,41.28c0.1-0.35,0.27-0.7,0.21-1.06c-0.03-0.2-0.15-0.39-0.31-0.52c-0.05-0.04-0.1-0.07-0.15-0.07
				c-0.09-0.01-0.18,0.04-0.25,0.1c-0.25,0.22-0.31,0.58-0.32,0.92c-0.01,0.63,0.14,1.28,0.53,1.76c0.09,0.11,0.24,0.27,0.35,0.37
				C80.02,42.32,79.97,41.75,80.1,41.28z"/>
		</g>
		<g>
			<g>
				<path class="st18" d="M78.51,41.65c-0.74-0.68-1.33-1.51-1.95-2.29c-0.63-0.8-1.38-1.62-2.39-1.77
					c-1.24-0.19-2.4,0.74-3.07,1.81c-0.54,0.86-0.87,1.93-0.56,2.89c0.32,1.01,1.31,1.71,2.35,1.96c1.04,0.25,2.12,0.12,3.17-0.07
					c1.45-0.26,2.94-0.68,4.2-1.41C79.61,42.53,79.02,42.13,78.51,41.65z"/>
			</g>
			<path class="st12" d="M78.89,42.37c-0.36-0.19-0.66-0.47-0.96-0.75c-0.3-0.28-0.61-0.55-0.99-0.69c-0.38-0.15-0.84-0.15-1.16,0.1
				c-0.33,0.25-0.45,0.72-0.35,1.12c0.1,0.4,0.41,0.73,0.77,0.93c0.36,0.2,0.78,0.29,1.19,0.32c0.89,0.07,2.15-0.06,2.88-0.63
				C79.95,42.66,79.25,42.55,78.89,42.37z"/>
			<path class="st13" d="M78.73,42.38c-0.3-0.2-0.58-0.47-0.94-0.53c-0.2-0.03-0.42,0.02-0.59,0.13c-0.05,0.03-0.09,0.07-0.12,0.12
				c-0.04,0.08-0.02,0.18,0.01,0.26c0.13,0.31,0.46,0.48,0.77,0.59c0.59,0.2,1.26,0.26,1.84,0.04c0.14-0.05,0.33-0.14,0.46-0.22
				C79.69,42.77,79.13,42.64,78.73,42.38z"/>
		</g>
		<g>
			<g>
				<path class="st18" d="M78.59,44.01c-0.88,0.49-1.84,0.8-2.79,1.15c-0.95,0.35-1.97,0.81-2.42,1.72
					c-0.56,1.13-0.04,2.51,0.77,3.48c0.65,0.78,1.56,1.42,2.58,1.43c1.07,0.01,2.03-0.72,2.59-1.63s0.77-1.98,0.91-3.04
					c0.2-1.45,0.26-3.01-0.04-4.43C79.76,43.22,79.2,43.67,78.59,44.01z"/>
			</g>
			<path class="st12" d="M79.39,43.86c-0.29,0.29-0.65,0.48-1.01,0.68c-0.35,0.2-0.71,0.41-0.97,0.73c-0.26,0.32-0.4,0.75-0.27,1.14
				c0.14,0.39,0.54,0.65,0.96,0.68c0.41,0.02,0.82-0.16,1.12-0.44c0.3-0.28,0.51-0.65,0.67-1.03c0.34-0.83,0.61-2.06,0.29-2.93
				C79.99,42.95,79.67,43.58,79.39,43.86z"/>
			<path class="st13" d="M79.35,44.02c-0.28,0.23-0.63,0.41-0.79,0.73c-0.09,0.18-0.11,0.4-0.06,0.6c0.02,0.06,0.04,0.11,0.08,0.15
				c0.07,0.06,0.16,0.08,0.26,0.07c0.33-0.03,0.6-0.29,0.8-0.55c0.38-0.5,0.64-1.11,0.6-1.74c-0.01-0.15-0.03-0.36-0.07-0.5
				C80.02,43.23,79.72,43.72,79.35,44.02z"/>
		</g>
		<g>
			<g>
				<path class="st18" d="M80.85,44.66c0.19,0.99,0.19,2,0.23,3c0.04,1.01,0.17,2.12,0.89,2.83c0.9,0.88,2.38,0.81,3.55,0.34
					c0.94-0.38,1.84-1.05,2.15-2.01c0.33-1.01-0.05-2.15-0.75-2.96c-0.69-0.81-1.65-1.34-2.61-1.81c-1.32-0.64-2.78-1.18-4.23-1.33
					C80.47,43.3,80.72,43.97,80.85,44.66z"/>
			</g>
			<path class="st12" d="M80.96,43.85c0.18,0.36,0.26,0.77,0.34,1.17c0.08,0.4,0.17,0.8,0.4,1.15c0.22,0.34,0.59,0.61,1,0.6
				c0.41-0.01,0.79-0.31,0.94-0.7c0.15-0.39,0.1-0.83-0.07-1.21c-0.17-0.38-0.46-0.69-0.77-0.96c-0.68-0.58-1.77-1.22-2.7-1.18
				C80.28,43,80.78,43.49,80.96,43.85z"/>
			<path class="st13" d="M81.1,43.94c0.13,0.34,0.19,0.72,0.45,0.98c0.15,0.14,0.35,0.23,0.56,0.24c0.06,0,0.12,0,0.17-0.03
				c0.08-0.04,0.12-0.13,0.14-0.22c0.07-0.32-0.09-0.66-0.28-0.93c-0.36-0.51-0.86-0.95-1.47-1.11c-0.14-0.04-0.35-0.08-0.5-0.09
				C80.55,43.06,80.93,43.49,81.1,43.94z"/>
		</g>
		<g>
			<g>
				<path class="st18" d="M82.17,42.7c1,0.12,1.96,0.44,2.93,0.71c0.98,0.28,2.07,0.5,2.97,0.03c1.12-0.58,1.51-2.01,1.42-3.27
					c-0.07-1.01-0.43-2.07-1.24-2.67c-0.86-0.63-2.07-0.62-3.05-0.21c-0.98,0.41-1.79,1.15-2.53,1.92
					c-1.02,1.06-1.98,2.28-2.57,3.61C80.76,42.65,81.48,42.62,82.17,42.7z"/>
			</g>
			<path class="st12" d="M81.44,42.35c0.4-0.06,0.81-0.01,1.21,0.04c0.4,0.05,0.82,0.08,1.21-0.02c0.39-0.1,0.76-0.37,0.88-0.76
				c0.12-0.4-0.06-0.85-0.38-1.11c-0.32-0.26-0.76-0.35-1.17-0.3c-0.41,0.05-0.8,0.22-1.15,0.44c-0.76,0.47-1.7,1.31-1.96,2.2
				C80.41,42.74,81.04,42.41,81.44,42.35z"/>
			<path class="st13" d="M81.56,42.25c0.36-0.02,0.75,0.04,1.07-0.13c0.18-0.1,0.33-0.26,0.4-0.45c0.02-0.05,0.03-0.11,0.02-0.17
				c-0.02-0.09-0.09-0.16-0.17-0.2c-0.29-0.17-0.65-0.12-0.97-0.02c-0.6,0.18-1.17,0.53-1.51,1.05c-0.08,0.12-0.18,0.31-0.24,0.45
				C80.56,42.49,81.08,42.27,81.56,42.25z"/>
		</g>
	</g>
	<path class="st5" d="M43.36,34.1c-0.74,1.57-0.2,3.54,1.01,4.77c1.22,1.23,2.98,1.79,4.71,1.86c1.55,0.06,3.29-0.36,4.11-1.68
		c0.89-1.43,0.31-3.39-0.86-4.59C50.31,32.38,45.04,30.54,43.36,34.1z"/>
	<path class="st12" d="M33.44,33.02c-0.64,0.12-1.26,0.55-1.4,1.19c-0.16,0.77,0.42,1.49,1.04,1.97c0.93,0.7,2.05,1.15,3.21,1.27
		c0.76,0.08,1.64-0.03,2.09-0.65c0.47-0.66,0.23-1.61-0.25-2.26C37.13,33.2,35.03,32.73,33.44,33.02z"/>
</g>
<g>
</g>
<g>
</g>
<g>
</g>
<g>
</g>
<g>
</g>
<g>
</g>
<g>
</g>
<g>
</g>
<g>
</g>
<g>
</g>
<g>
</g>
<g>
</g>
<g>
</g>
<g>
</g>
<g>
</g>
</svg>
