<?xml version="1.0" encoding="utf-8"?>
<!-- Generator: Adobe Illustrator 24.1.2, SVG Export Plug-In . SVG Version: 6.00 Build 0)  -->
<svg version="1.1" id="Layer_1" xmlns="http://www.w3.org/2000/svg" xmlns:xlink="http://www.w3.org/1999/xlink" x="0px" y="0px"
	 viewBox="0 0 145.92 145.92" style="enable-background:new 0 0 145.92 145.92;" xml:space="preserve">
<style type="text/css">
	.st0{clip-path:url(#SVGID_2_);fill:#6B95C7;}
	.st1{clip-path:url(#SVGID_2_);fill:#FBD7E3;}
	.st2{clip-path:url(#SVGID_2_);fill:#F9D682;}
	.st3{clip-path:url(#SVGID_2_);fill:#025196;}
	.st4{clip-path:url(#SVGID_2_);}
	.st5{fill:#025196;}
	.st6{fill:#6BC1BF;}
	.st7{opacity:0.48;fill:#49A5A0;}
	.st8{opacity:0.19;}
	.st9{fill:#FFFFFF;}
	.st10{fill:#055FA3;}
	.st11{fill:#6B95C7;}
	.st12{opacity:0.61;}
	.st13{fill:#3FA09B;}
	.st14{fill:none;}
	.st15{fill:#D5ADB8;}
	.st16{fill:#014170;}
	.st17{fill:#F9D682;}
	.st18{fill:#FBD7E3;}
</style>
<g>
	<g>
		<defs>
			<rect id="SVGID_1_" width="145.92" height="145.92"/>
		</defs>
		<use xlink:href="#SVGID_1_"  style="overflow:visible;fill:#95D5D5;"/>
		<clipPath id="SVGID_2_">
			<use xlink:href="#SVGID_1_"  style="overflow:visible;"/>
		</clipPath>
		<path class="st0" d="M6.99,68.7c9.44,0.9,18.8-3.36,25.98-9.56c8.64-7.46,13.54-16.62,24.43-21.59c10-4.57,21.69-5.68,32.23-2.34
			c6.05,1.92,12.83,5.08,18.33,1.92c2.94-1.69,4.7-4.86,5.93-8.02c3.1-7.97,3.53-16.88,1.51-25.17
			c-1.95-8.02-5.51-17.71-14.73-18.24c-25.4-1.48-50.83,1.51-76.09,4.49C16.39-8.85,7.87-7.77,0.98-3.25
			C-7.38,2.23-12.04,12.1-13.51,21.99C-16.06,39.28-15.57,66.56,6.99,68.7z"/>
		<path class="st1" d="M17.33,25.37c19.06,1.09,39.58-6.59,57.62,0.29c7.93,3.02,14.56,8.61,21.08,14.04
			c6.52,5.43,13.29,10.9,21.32,13.62c14.45,4.9,32.17-3.15,38.47-16.92c3.35-7.33,4.02-15.66,3.32-23.69
			c-0.48-5.47-1.79-11.3-5.91-14.93c-3.3-2.92-7.84-3.91-12.18-4.67c-39.18-6.91-79.35-3.88-119.02-0.82
			C16.81-7.32,11.52-6.9,6.6-5.13C-1.66-2.17-11.39,9.3-3.93,17.84c2.07,2.37,4.96,3.86,7.91,4.94
			C8.31,24.35,12.78,25.11,17.33,25.37z"/>
		<path class="st2" d="M141.54,15.1c-9.2,9.15-12.64,23.67-8.52,35.98c2.21,6.61,6.34,12.4,9.07,18.81
			c2.74,6.41,3.95,14.16,0.33,20.11c-2.9,4.78-8.24,7.38-13.07,10.19c-4.84,2.81-9.8,6.59-10.86,12.08
			c-0.93,4.81,1.4,9.57,3.2,14.13c1.8,4.56,3.02,10.07,0.22,14.09c-2.72,3.91-8.01,4.75-12.65,5.84c-4.66,1.09-9.26,2.8-13.01,5.77
			c-3.75,2.97-6.58,7.32-6.94,12.09c-0.4,5.36,2.33,10.54,5.93,14.52c11.57,12.78,32.06,14.92,47.7,7.68
			c15.65-7.24,26.67-22.24,32.58-38.44c5.91-16.2,7.28-33.66,8.02-50.89c0.82-18.88,0.93-37.87-1.36-56.66
			c-1.1-9.03-2.84-17.95-5.05-26.78c-1.67-6.7-3.95-8.76-11.21-8.65C156.93,5.14,147.93,8.74,141.54,15.1z"/>
		<path class="st3" d="M24.79,123.19c4.07,3.7,6.44,7.95,9.94,12c6.92,8,23.46,14.42,34.06,13.86c-0.79,0.04-8.84,0.96-9.52,1.52
			c-1.36,1.11-2.75,2.17-4.18,3.18c-2.98,2.11-6.11,4.01-9.35,5.68c-6.36,3.28-13.16,5.7-20.17,7.17
			c-6.31,1.32-12.85,2.81-18.58-0.45c-6.16-3.5-11.58-7.15-14.93-13.65c-4.8-9.33-3.85-20.2-5.36-30.29
			c-0.99-6.59-0.48-6.91,6.4-7.02C-1.26,115.12,14.81,114.13,24.79,123.19z"/>
		<g class="st4">
			<g>
				<path class="st5" d="M3.16-0.42c0,0,0.66-0.14,1.8-0.43C6.1-1.14,7.71-1.61,9.58-2.26c1.85-0.64,3.94-1.48,6.16-2.4
					c2.23-0.92,4.58-1.93,7.08-2.81s4.97-1.52,7.37-1.9c2.39-0.38,4.72-0.48,6.8-0.4c4.11,0.16,7.1,1.13,7.1,1.13L3.16-0.42z"/>
				<path class="st6" d="M44.1-8.63c0,0-0.4,0.47-1.21,1.16c-0.84,0.7-2.12,1.61-3.86,2.49c-1.74,0.88-3.9,1.7-6.46,2.31
					C30-2.07,27.09-1.68,24.02-1.5c-3.07,0.18-6,0.18-8.58,0.22c-2.58,0.03-4.88,0.1-6.71,0.22C6.88-0.94,5.5-0.78,4.58-0.65
					C3.64-0.51,3.16-0.42,3.16-0.42L44.1-8.63z"/>
			</g>
			<g>
				<path class="st5" d="M1.79-0.19c0,0,0.14,0.01,0.41,0.04C2.33-0.13,2.5-0.12,2.69-0.1c0.1,0.01,0.2,0.02,0.32,0.03
					c0.06,0,0.11,0.01,0.18,0.01l0.09,0.01c0,0,0.03,0,0.01,0L3.1-0.07L2.72-0.1c1.82,0.14,4.9,0.24,8.63,0.06
					c0.92-0.05,1.89-0.11,2.91-0.17c0.98-0.07,2-0.15,3.05-0.22c2.11-0.16,4.38-0.33,6.74-0.4c4.76-0.15,9.19,0.24,13.12,1.21
					c3.91,0.94,7.29,2.39,9.33,3.4l0.04,0.03l0.02,0.01l0,0l-0.67-0.06l0,0l0,0l0.01,0l0.01,0.01L46,3.83
					c0.07,0.04,0.13,0.08,0.2,0.11c0.13,0.08,0.24,0.15,0.35,0.21c0.22,0.14,0.41,0.25,0.56,0.34c0.3,0.2,0.46,0.3,0.46,0.3
					L1.79-0.19z"/>
				<path class="st6" d="M47.57,4.8c0,0-0.6,0.35-1.74,0.78c-1.13,0.43-2.8,0.93-4.94,1.23c-0.53,0.07-1.1,0.14-1.69,0.18
					c-0.59,0.05-1.27,0.07-1.94,0.09C35.93,7.1,34.5,7.05,33,6.92c-2.99-0.26-6.25-0.85-9.61-1.7c-2.98-0.75-5.79-1.63-8.34-2.39
					c-2.56-0.77-4.84-1.4-6.83-1.87C6.24,0.49,4.63,0.2,3.52,0.04C2.4-0.13,1.79-0.19,1.79-0.19L47.57,4.8z"/>
			</g>
			<g>
				<path class="st5" d="M1.79-0.19c0,0,0.57,0.26,1.64,0.67c1.04,0.41,2.56,0.95,4.5,1.52c1.93,0.58,4.28,1.17,6.89,1.79
					c2.61,0.62,5.45,1.24,8.42,2.08c1.68,0.47,3.31,0.99,4.87,1.55c1.56,0.56,3.08,1.17,4.46,1.81c2.79,1.28,5.22,2.75,7.22,4.2
					c1.99,1.45,3.55,2.88,4.61,3.95c0.99,1.05,1.5,1.74,1.5,1.74L1.79-0.19z"/>
				<path class="st6" d="M45.89,19.1c0,0-0.82,0.1-2.23,0.11c-1.41,0-3.4-0.11-5.76-0.56c-1.15-0.21-2.53-0.57-3.89-0.99
					c-1.37-0.42-2.8-0.94-4.26-1.55c-2.91-1.21-5.93-2.81-8.97-4.68c-2.62-1.61-5.03-3.29-7.25-4.78c-1.11-0.75-2.16-1.45-3.16-2.09
					c-1-0.64-1.92-1.22-2.8-1.74c-1.75-1.04-3.2-1.8-4.22-2.29C2.36,0.05,1.79-0.19,1.79-0.19L45.89,19.1z"/>
			</g>
			<g>
				<path class="st5" d="M1.79-0.2c0,0,0.47,0.42,1.35,1.13c0.9,0.72,2.18,1.69,3.85,2.81c1.67,1.13,3.72,2.4,6.03,3.76
					c2.31,1.38,4.86,2.83,7.43,4.51c2.99,1.95,5.71,3.98,8.02,6.08c2.32,2.09,4.24,4.24,5.73,6.25c0.75,1,1.39,1.96,1.93,2.84
					c0.56,0.89,0.95,1.66,1.27,2.31c0.64,1.31,0.92,2.12,0.92,2.12L1.79-0.2z"/>
				<path class="st6" d="M38.33,31.62c0,0-0.82-0.15-2.18-0.58c-0.68-0.21-1.49-0.5-2.4-0.88c-0.91-0.38-1.9-0.83-3.01-1.44
					c-2.19-1.19-4.61-2.81-7.03-4.86c-2.43-2.04-4.87-4.52-7.26-7.27c-2.02-2.32-3.82-4.65-5.49-6.74c-1.67-2.09-3.2-3.95-4.54-5.44
					C5.08,2.93,3.9,1.75,3.09,0.98C2.26,0.2,1.79-0.2,1.79-0.2L38.33,31.62z"/>
			</g>
			<g>
				<path class="st5" d="M1.8-0.21c0,0,0.32,0.53,0.95,1.48c0.63,0.94,1.6,2.3,2.84,3.85c1.25,1.57,2.83,3.39,4.62,5.38
					c1.78,2,3.78,4.16,5.74,6.53c2.32,2.82,4.36,5.63,5.97,8.37c1.62,2.73,2.81,5.37,3.62,7.73c0.41,1.17,0.73,2.29,0.94,3.23
					c0.22,0.96,0.37,1.8,0.47,2.51c0.2,1.41,0.21,2.24,0.21,2.24L1.8-0.21z"/>
				<path class="st6" d="M27.14,41.12c0,0-0.75-0.42-1.95-1.27c-0.59-0.43-1.3-0.96-2.06-1.61c-0.78-0.68-1.62-1.48-2.49-2.38
					c-1.74-1.81-3.55-4.07-5.23-6.71c-1.69-2.64-3.24-5.66-4.67-8.92c-1.23-2.82-2.25-5.58-3.22-8.08c-0.96-2.5-1.87-4.73-2.71-6.56
					C4,3.76,3.24,2.31,2.68,1.31C2.13,0.32,1.8-0.21,1.8-0.21L27.14,41.12z"/>
			</g>
			<g>
				<path class="st5" d="M1.8-0.21c0,0,0.14,0.6,0.46,1.69c0.32,1.08,0.83,2.65,1.56,4.54c0.72,1.87,1.68,4.07,2.79,6.5
					c1.1,2.43,2.36,5.09,3.51,7.95c1.34,3.31,2.41,6.55,3.12,9.61c0.72,3.06,1.07,5.96,1.16,8.49c0.03,1.22-0.01,2.3-0.09,3.27
					c-0.08,0.97-0.19,1.81-0.31,2.5c-0.24,1.39-0.48,2.17-0.48,2.17L1.8-0.21z"/>
				<path class="st6" d="M13.54,46.51c0,0-0.59-0.62-1.47-1.77c-0.44-0.56-0.94-1.31-1.48-2.19c-0.54-0.88-1.1-1.88-1.65-2.98
					c-1.1-2.22-2.15-4.87-2.95-7.84c-0.81-2.96-1.38-6.28-1.76-9.76C3.9,18.9,3.76,15.98,3.58,13.3C3.4,10.62,3.2,8.21,2.96,6.21
					C2.71,4.2,2.43,2.64,2.2,1.51C1.96,0.4,1.8-0.21,1.8-0.21L13.54,46.51z"/>
			</g>
			<g>
				<path class="st5" d="M1.81-0.21c0,0-0.04,0.62-0.06,1.74c-0.02,1.13,0,2.77,0.13,4.8c0.07,1.02,0.16,2.1,0.28,3.28
					c0.12,1.18,0.27,2.43,0.43,3.76c0.32,2.65,0.73,5.56,0.97,8.63c0.28,3.47,0.33,6.78,0.09,9.77c-0.12,1.5-0.31,2.92-0.55,4.24
					c-0.24,1.31-0.55,2.58-0.88,3.64c-0.65,2.15-1.43,3.84-2.05,4.99c-0.62,1.15-1.07,1.76-1.07,1.76L1.81-0.21z"/>
				<path class="st6" d="M-0.9,46.41c0,0-0.37-0.75-0.85-2.07c-0.24-0.64-0.49-1.51-0.73-2.47c-0.24-0.96-0.47-2.04-0.66-3.21
					c-0.38-2.34-0.59-5.02-0.5-7.89l0-0.13c0-0.06-0.01-0.02,0.03-0.3l0.02-0.14l0-0.03l0-0.07l0.01-0.13l0.03-0.53
					c0.02-0.36,0.05-0.72,0.07-1.08c0.06-0.72,0.13-1.46,0.22-2.19c0.18-1.48,0.43-2.99,0.73-4.52c0.6-3.03,1.34-5.86,1.97-8.43
					c0.64-2.61,1.17-4.96,1.53-6.95c0.37-1.99,0.57-3.58,0.68-4.71c0.11-1.13,0.14-1.76,0.14-1.76L-0.9,46.41z"/>
			</g>
			<g>
				<path class="st5" d="M1.38,1.04c0,0-0.18,0.47-0.46,1.36c-0.28,0.88-0.68,2.24-1.1,4.04c-0.43,1.8-0.88,4.05-1.34,6.6
					c-0.47,2.55-0.96,5.45-1.65,8.46c-0.69,3.01-1.55,5.82-2.58,8.25c-1.02,2.45-2.2,4.45-3.35,6.02c-1.15,1.57-2.28,2.7-3.1,3.41
					c-0.41,0.36-0.75,0.61-0.99,0.77c-0.24,0.16-0.36,0.24-0.36,0.24L1.38,1.04z"/>
				<path class="st6" d="M-13.55,40.2c0,0-0.45-3.14,0.06-7.21c0.26-2.06,0.76-4.36,1.53-6.66c0.77-2.31,1.82-4.65,3.11-6.98
					c1.29-2.34,2.67-4.49,3.95-6.54c1.28-2.05,2.45-3.97,3.4-5.7c1.93-3.49,2.88-6.04,2.88-6.04L-13.55,40.2z"/>
			</g>
		</g>
		<g class="st4">
			<path class="st6" d="M133.94,111.45c3.02,4.32,6.51,7.21,9.68,9.7c0.77,0.6,1.54,1.2,2.31,1.8c0.37,0.29,0.76,0.59,1.09,0.87
				l0.54,0.44l0.57,0.59c1.54,1.59,3.06,3.33,4.52,5.11c3.03,3.7,5.91,8.05,8,12.79c3.68-4.87,5.62-12.59,4.29-20.94
				c-0.11-0.73-0.26-1.46-0.43-2.2c-0.08-0.37-0.18-0.74-0.28-1.11c-0.09-0.36-0.19-0.73-0.35-1.19c-0.29-0.88-0.61-1.76-0.97-2.55
				c-0.35-0.83-0.73-1.59-1.13-2.34c-1.59-3-3.45-5.47-5.35-7.67c-1.91-2.19-3.87-4.1-5.77-5.84l-2.78-2.48l-1.31-1.15l-0.64-0.56
				l-0.7-0.66c-3.71-3.44-7.33-6.28-9.81-9.82c-1.22-1.73-2.14-3.71-2.54-5.75c-0.41-2.03-0.26-4.13,0.54-5.9
				c-0.78,1.07-1.53,2.25-2.22,3.57c-0.67,1.32-1.27,2.77-1.77,4.33c-1.02,3.1-1.55,6.68-1.52,10.32c0.02,3.65,0.58,7.34,1.52,10.77
				c0.23,0.85,0.49,1.7,0.76,2.51c0.29,0.84,0.52,1.56,0.96,2.48C131.96,108.34,132.89,109.96,133.94,111.45z"/>
			<path class="st7" d="M130.07,99.55c0.6,1.85,1.19,3.48,1.77,4.98c0.29,0.74,0.7,1.6,1.06,2.34c0.38,0.75,0.77,1.48,1.18,2.17
				c1.63,2.78,3.56,5.13,6.05,7.52c1.84,1.77,3.82,3.31,5.69,4.83c0.94,0.76,1.85,1.51,2.72,2.29c0.91,0.91,1.86,1.99,2.77,3.07
				c3.68,4.36,7.13,9.35,9.4,14.3c0.71-2.61,0.1-5.7-1.01-8.77c-1.11-3.08-2.72-6.12-3.96-8.79c-0.68-1.49-1.42-2.83-2.27-3.98
				c-0.82-1.17-1.74-2.16-2.66-3.12c-1.88-1.9-3.91-3.59-6.27-5.72c-2.21-1.99-4.29-4.26-6.17-6.86c-0.47-0.65-0.92-1.32-1.35-2.02
				c-0.44-0.69-0.82-1.37-1.22-2.07c-0.79-1.4-1.53-2.85-2.19-4.34c-1.33-2.98-2.34-6.13-2.74-9.19c-0.4-3.05-0.21-5.99,0.47-8.45
				c-1.66,2.66-2.81,6.27-2.96,10.17C128.17,91.79,128.87,95.87,130.07,99.55z"/>
			<g class="st8">
				<g>
					<path class="st9" d="M133.62,72.73c-1.25,1.98-2.25,4.06-3.12,6.4c-0.85,2.34-1.57,4.92-1.86,7.9
						c-0.1,1.04-0.16,2.14-0.14,3.26c0.03,4.36,0.99,9.1,2.35,13.21c0.18,0.51,0.35,1.01,0.52,1.51c0.17,0.49,0.44,1.06,0.67,1.59
						c0.48,1.05,1.01,2.06,1.56,2.99c1.11,1.87,2.33,3.5,3.69,4.88c2.8,2.84,5.41,4.84,7.76,6.65c1.16,0.9,2.31,1.75,3.32,2.62
						c1.09,1.02,2.19,2.23,3.24,3.43c3.79,4.4,7.08,9.24,9.02,15.59l-0.15,0.07c-1.93-6.31-5.2-11.13-8.97-15.52
						c-1.05-1.2-2.15-2.41-3.24-3.45c-1.01-0.86-2.15-1.71-3.31-2.61c-2.35-1.8-4.96-3.8-7.77-6.66c-1.37-1.39-2.61-3.04-3.73-4.92
						c-0.56-0.94-1.08-1.95-1.57-3.01c-0.53-1.12-0.86-2.08-1.2-3.12c-1.37-4.13-2.34-8.91-2.36-13.31
						c-0.01-1.14,0.04-2.23,0.15-3.28c0.3-2.98,1.02-5.55,1.88-7.89c0.87-2.34,1.88-4.42,3.14-6.41L133.62,72.73z"/>
				</g>
				<g>
					<path class="st9" d="M133.56,72.82c-1.16,1.88-2.09,3.9-2.86,6.18c-0.76,2.28-1.33,4.8-1.49,7.69
						c-0.06,1.11-0.06,2.27,0.02,3.47c0.24,3.89,1.18,7.89,2.39,11.46c0.3,0.89,0.62,1.76,0.95,2.6c0.36,0.86,0.8,1.81,1.23,2.63
						c0.88,1.69,1.86,3.22,2.9,4.57c0.61,0.78,1.24,1.51,1.9,2.19c2.67,2.72,5.19,4.75,7.44,6.65c1.13,0.95,2.21,1.85,3.18,2.79
						c0.49,0.43,1.01,1.07,1.51,1.63c0.5,0.58,0.99,1.18,1.48,1.78c3.7,4.67,6.84,9.78,8.47,16.24l-0.15,0.05
						c-1.62-6.42-4.75-11.5-8.42-16.16c-0.49-0.6-0.98-1.2-1.48-1.78l-0.76-0.86l-0.38-0.42l-0.37-0.35
						c-0.96-0.93-2.04-1.84-3.17-2.78c-2.25-1.89-4.76-3.92-7.45-6.66c-0.67-0.68-1.31-1.41-1.93-2.21
						c-1.05-1.36-2.03-2.89-2.92-4.6c-0.43-0.82-0.89-1.79-1.24-2.65c-0.33-0.84-0.65-1.72-0.95-2.62
						c-1.21-3.59-2.16-7.62-2.4-11.54c-0.08-1.2-0.08-2.37-0.01-3.48c0.17-2.89,0.74-5.42,1.51-7.7c0.77-2.28,1.71-4.3,2.88-6.19
						L133.56,72.82z"/>
				</g>
				<g>
					<path class="st9" d="M133.51,72.92c-1.07,1.78-1.93,3.72-2.6,5.93c-0.65,2.21-1.1,4.67-1.14,7.45
						c-0.01,1.19,0.05,2.45,0.2,3.74c0.33,3.01,1.26,6.81,2.62,10.44c0.33,0.91,0.69,1.81,1.06,2.68c0.37,0.86,0.85,1.86,1.31,2.71
						c0.94,1.76,1.98,3.35,3.06,4.72c0.59,0.75,1.24,1.48,1.9,2.16c2.52,2.57,4.91,4.61,7.06,6.55c1.1,0.97,2.08,1.92,3.03,2.9
						l0.69,0.74c0.23,0.26,0.46,0.57,0.69,0.85c0.46,0.58,0.91,1.16,1.35,1.76c3.66,5,6.68,10.44,7.99,17.07l-0.16,0.04
						c-1.29-6.59-4.3-12-7.94-16.98c-0.44-0.6-0.89-1.19-1.35-1.77l-0.69-0.85l-0.69-0.74c-0.94-0.98-1.93-1.92-3.02-2.89
						c-2.14-1.94-4.53-3.98-7.06-6.56c-0.68-0.69-1.33-1.43-1.93-2.19c-1.09-1.38-2.13-2.99-3.08-4.76
						c-0.46-0.85-0.96-1.86-1.32-2.72c-0.37-0.88-0.73-1.78-1.06-2.69c-1.36-3.65-2.3-7.48-2.63-10.51c-0.15-1.3-0.22-2.55-0.2-3.76
						c0.04-2.79,0.5-5.25,1.16-7.46c0.67-2.21,1.53-4.16,2.62-5.95L133.51,72.92z"/>
				</g>
				<g>
					<path class="st9" d="M133.45,73.01c-1.92,3.31-3.25,7.45-3.17,12.77c0.03,1.31,0.17,2.69,0.42,4.11
						c0.53,3.14,1.68,6.85,3.15,10.32c0.36,0.87,0.74,1.72,1.13,2.56c0.43,0.88,0.88,1.75,1.36,2.56c0.94,1.63,1.95,3.13,2.98,4.41
						c0.57,0.72,1.22,1.44,1.91,2.14c2.35,2.39,4.56,4.39,6.6,6.34c0.99,0.98,1.99,1.94,2.86,2.94c0.46,0.5,0.85,1,1.28,1.53
						c0.41,0.56,0.83,1.13,1.23,1.71c3.69,5.41,6.62,11.28,7.57,18.15l-0.16,0.02c-0.94-6.83-3.86-12.66-7.53-18.05
						c-0.4-0.58-0.81-1.15-1.23-1.71c-0.43-0.54-0.82-1.03-1.27-1.53c-0.87-0.99-1.85-1.95-2.85-2.93c-2.04-1.95-4.25-3.95-6.6-6.35
						c-0.69-0.71-1.35-1.44-1.93-2.17c-1.04-1.29-2.05-2.8-3-4.44c-0.48-0.82-0.93-1.7-1.37-2.58c-0.39-0.84-0.77-1.7-1.14-2.57
						c-1.48-3.49-2.63-7.22-3.16-10.38c-0.25-1.43-0.38-2.81-0.42-4.13c-0.06-2.66,0.29-5.04,0.85-7.16
						c0.56-2.13,1.36-3.98,2.35-5.66L133.45,73.01z"/>
				</g>
				<g>
					<path class="st9" d="M133.39,73.11c-1.76,3.03-2.9,7.2-2.64,11.98c0.08,1.48,0.31,3.05,0.68,4.65
						c0.84,3.67,2.35,7.3,3.91,10.55c0.75,1.6,1.64,3.24,2.55,4.69c0.9,1.45,1.83,2.77,2.75,3.94c0.6,0.76,1.28,1.48,1.91,2.12
						c2.13,2.18,4.16,4.09,6.04,5.99c1.9,1.9,3.56,3.76,4.98,5.96c3.82,5.92,6.69,12.34,7.25,19.53l-0.16,0
						c-0.56-7.14-3.41-13.52-7.21-19.42c-2.79-4.33-6.76-7.55-11-11.94c-0.63-0.65-1.32-1.36-1.93-2.15
						c-0.92-1.17-1.85-2.49-2.76-3.95c-0.91-1.46-1.8-3.11-2.56-4.71c-1.57-3.26-3.08-6.91-3.93-10.61
						c-0.38-1.61-0.6-3.18-0.68-4.67c-0.26-4.8,0.89-8.99,2.67-12.04L133.39,73.11z"/>
				</g>
				<g>
					<path class="st9" d="M133.33,73.2c-1.54,2.71-2.5,6.53-2.19,10.88c0.12,1.75,0.46,3.61,1.02,5.51c0.97,3.37,2.6,6.86,4.3,10.05
						c0.83,1.58,1.76,3.17,2.7,4.59c0.94,1.43,1.88,2.71,2.79,3.86c0.59,0.74,1.25,1.42,1.92,2.11c3.73,3.85,7.29,7.03,9.93,10.99
						c2.1,3.25,3.79,6.71,5.03,10.25c1.23,3.55,1.98,7.22,2.03,11.02l-0.16-0.02c-0.04-3.78-0.79-7.42-2.02-10.95
						c-1.24-3.52-2.92-6.97-5-10.19c-2.63-3.94-6.18-7.13-9.92-10.98c-0.68-0.7-1.34-1.39-1.94-2.13c-0.92-1.15-1.86-2.44-2.8-3.87
						c-0.94-1.42-1.88-3.02-2.71-4.61c-1.7-3.2-3.34-6.7-4.31-10.09c-0.56-1.91-0.9-3.77-1.02-5.54c-0.31-4.36,0.66-8.21,2.22-10.94
						L133.33,73.2z"/>
				</g>
				<g>
					<path class="st9" d="M133.27,73.3c-1.23,2.27-2.05,5.46-1.85,9.1c0.11,2.23,0.6,4.58,1.46,7.02c1.15,3.29,2.93,6.69,4.75,9.79
						c1.79,3.14,3.83,5.92,5.62,8.03c0.54,0.63,1.15,1.3,1.93,2.1c3.13,3.24,6.15,6.15,8.59,9.56c1.34,1.88,2.36,3.86,3.27,5.78
						c0.91,1.94,1.66,3.88,2.27,5.83c1.2,3.9,1.8,7.82,1.58,11.88l-0.16-0.04c0.22-4.03-0.37-7.92-1.57-11.8
						c-0.6-1.94-1.35-3.87-2.26-5.8c-0.91-1.91-1.92-3.88-3.25-5.74c-2.43-3.4-5.45-6.31-8.58-9.56c-0.78-0.8-1.4-1.48-1.94-2.11
						c-0.12-0.15-0.25-0.3-0.37-0.45c-1.77-2.12-3.73-4.89-5.46-7.93c-1.76-3.02-3.46-6.32-4.58-9.51
						c-0.87-2.45-1.36-4.82-1.47-7.07c-0.2-3.66,0.63-6.88,1.88-9.17L133.27,73.3z"/>
				</g>
				<g>
					<path class="st9" d="M133.21,73.4c-0.75,1.46-1.34,3.34-1.51,5.51c-0.26,3.03,0.33,6.68,1.89,10.34
						c1.33,3.19,3.28,6.48,5.23,9.5c1.91,3.02,4,5.65,5.73,7.65c0.67,0.76,1.36,1.48,1.94,2.09c2.42,2.52,4.8,4.93,6.87,7.59
						c0.8,1.02,1.54,2.1,2.22,3.2c0.32,0.56,0.65,1.15,0.94,1.71c0.28,0.55,0.55,1.1,0.8,1.66c1.02,2.21,1.83,4.41,2.45,6.61
						c1.24,4.39,1.7,8.73,1.15,13.09l-0.16-0.06c0.54-4.33,0.08-8.64-1.15-13c-0.61-2.18-1.43-4.37-2.44-6.57
						c-0.25-0.55-0.52-1.1-0.8-1.65c-0.29-0.56-0.62-1.13-0.93-1.69c-0.68-1.1-1.41-2.16-2.21-3.18c-2.07-2.66-4.44-5.07-6.86-7.58
						c-0.59-0.61-1.28-1.33-1.95-2.1c-1.74-2-3.83-4.64-5.75-7.67c-1.95-3.03-3.91-6.32-5.25-9.53c-1.57-3.68-2.16-7.36-1.9-10.42
						c0.17-2.19,0.77-4.09,1.53-5.57L133.21,73.4z"/>
				</g>
				<g>
					<path class="st9" d="M160.13,127.15c1.44,5.2,1.82,10.24,0.84,15.14l-0.15-0.08c0.94-4.69,0.62-9.52-0.7-14.49
						c-0.66-2.49-1.57-4.99-2.8-7.56c-1.32-2.72-3.07-5.12-4.98-7.36c-1.46-1.72-3.04-3.38-4.63-5.03c-0.6-0.62-1.3-1.35-1.96-2.08
						c-1.59-1.79-3.61-4.16-5.61-6.97c-2.04-2.89-4.28-6.1-5.97-9.57c-1.63-3.3-2.41-6.52-2.46-9.29c-0.08-2.77,0.57-4.97,1.31-6.43
						l0.14,0.07c-0.73,1.44-1.37,3.61-1.29,6.36c0.05,2.75,0.82,5.94,2.44,9.22c1.68,3.46,3.91,6.66,5.96,9.55
						c2,2.8,4.01,5.16,5.6,6.95c0.65,0.73,1.35,1.45,1.95,2.07c1.59,1.65,3.17,3.31,4.63,5.04c1.86,2.17,3.55,4.49,4.87,7.11
						C158.57,122.33,159.43,124.72,160.13,127.15z"/>
				</g>
				<g>
					<path class="st9" d="M160.03,123.28c2.17,6.67,2.59,13.12,0.98,18.96l-0.15-0.1c1.42-5.13,1.23-10.73-0.3-16.55
						c-0.39-1.45-0.87-2.92-1.44-4.39l-0.45-1.11c-0.16-0.38-0.36-0.79-0.55-1.19c-0.36-0.81-0.81-1.53-1.23-2.29
						c-1.78-2.92-3.91-5.45-6.1-7.82c-0.58-0.62-1.16-1.24-1.75-1.86c-0.65-0.68-1.33-1.38-1.97-2.07c-1.29-1.43-3.1-3.38-5.16-5.92
						c-1.01-1.26-2.21-2.82-3.41-4.45c-1.21-1.65-2.46-3.46-3.6-5.5c-1.76-3.13-2.75-6.21-2.95-8.95c-0.23-2.74,0.28-5,1.02-6.5
						l0.14,0.07c-0.73,1.48-1.24,3.71-1.01,6.42c0.2,2.72,1.18,5.76,2.93,8.88c1.13,2.03,2.39,3.84,3.59,5.48
						c0.6,0.82,1.2,1.61,1.77,2.36c0.57,0.75,1.13,1.47,1.63,2.09c2.06,2.54,3.86,4.49,5.15,5.91c0.64,0.69,1.31,1.39,1.96,2.07
						c0.59,0.62,1.17,1.24,1.75,1.86c1.91,2.08,3.79,4.25,5.42,6.73c0.81,1.24,1.58,2.54,2.21,3.97
						C159.14,120.75,159.6,121.98,160.03,123.28z"/>
				</g>
				<g>
					<path class="st9" d="M159.97,119.52c1.6,4.17,2.41,8.18,2.59,11.97c0.17,3.79-0.31,7.37-1.51,10.69l-0.14-0.11
						c1.87-5.21,2.01-11.07,0.51-17.4c-0.38-1.58-0.87-3.19-1.49-4.83c-0.68-1.76-1.59-3.59-2.6-5.16
						c-2.03-3.21-4.46-5.97-6.96-8.59l-0.34-0.35c-0.54-0.56-1.1-1.14-1.65-1.71c-1.33-1.42-3.21-3.35-5.19-5.55
						c-0.31-0.35-0.62-0.71-0.94-1.07c-0.33-0.39-0.66-0.78-1-1.18c-0.65-0.79-1.32-1.6-2-2.41c-1.31-1.63-2.57-3.3-3.64-5
						c-2.15-3.36-3.2-6.48-3.49-9.15c-0.28-2.66,0.17-4.72,0.79-6.02l0.14,0.07c-0.61,1.28-1.06,3.31-0.77,5.94
						c0.29,2.64,1.32,5.74,3.46,9.07c1.07,1.69,2.32,3.36,3.63,4.98c0.67,0.82,1.34,1.62,1.99,2.41c0.34,0.4,0.67,0.79,1,1.18
						c0.32,0.36,0.63,0.72,0.93,1.07c1.98,2.2,3.86,4.13,5.19,5.55c0.54,0.57,1.1,1.15,1.64,1.71l0.34,0.35
						c1.85,1.94,3.65,3.95,5.3,6.16C157.39,114.34,158.9,116.77,159.97,119.52z"/>
				</g>
				<g>
					<path class="st9" d="M159.63,115.58c0.39,0.79,0.78,1.54,1.1,2.37c0.16,0.4,0.33,0.82,0.46,1.18c0.12,0.35,0.23,0.7,0.35,1.04
						c0.43,1.38,0.78,2.7,1.04,3.99c1.44,7.29,0.65,13.15-1.48,17.95l-0.14-0.13c2.37-5.3,2.77-11.63,1.35-18.27
						c-0.37-1.68-0.81-3.3-1.48-5.08c-0.72-1.95-1.66-3.65-2.65-5.26c-2-3.18-4.28-5.79-6.49-8.11l-0.77-0.8
						c-0.41-0.42-0.82-0.84-1.22-1.26c-0.99-1.02-2.34-2.33-3.86-3.84c-0.77-0.75-1.56-1.55-2.36-2.39
						c-0.83-0.88-1.74-1.88-2.63-2.85c-1.62-1.79-3.18-3.61-4.52-5.49c-1.24-1.73-2.17-3.39-2.81-4.91
						c-0.64-1.54-1.03-2.99-1.21-4.28c-0.36-2.59,0.02-4.51,0.56-5.7L133,73.8c-0.53,1.16-0.9,3.06-0.54,5.61
						c0.18,1.28,0.57,2.71,1.2,4.24c0.64,1.51,1.56,3.15,2.79,4.87c1.33,1.87,2.89,3.69,4.51,5.47c0.91,0.99,1.79,1.94,2.63,2.85
						c0.8,0.84,1.59,1.63,2.35,2.39c1.52,1.51,2.87,2.82,3.86,3.84c0.41,0.42,0.81,0.83,1.22,1.25l0.77,0.8
						C154.98,108.49,157.68,111.86,159.63,115.58z"/>
				</g>
				<g>
					<path class="st9" d="M159.38,112.31c0.47,0.74,0.9,1.58,1.32,2.35c0.4,0.85,0.8,1.63,1.12,2.52c0.16,0.44,0.32,0.87,0.48,1.3
						c0.12,0.38,0.23,0.75,0.34,1.12c0.22,0.74,0.4,1.46,0.56,2.17c0.64,2.84,0.89,5.46,0.88,7.89c-0.03,4.86-1.11,8.97-2.96,12.39
						l-0.13-0.14c2.27-4.22,3.4-9.48,2.75-15.93c-0.17-1.62-0.46-3.31-0.91-5.08c-0.11-0.44-0.23-0.89-0.37-1.35
						c-0.14-0.47-0.25-0.87-0.46-1.44c-0.2-0.53-0.4-1.07-0.62-1.6c-0.23-0.5-0.47-1.01-0.71-1.53c-2-4-4.7-7.43-7.67-10.56
						c-0.58-0.62-1.16-1.2-1.72-1.77l-0.28-0.28c-0.96-0.97-2.4-2.27-4.04-3.76c-0.83-0.75-1.69-1.54-2.56-2.36
						c-0.91-0.88-1.92-1.9-2.89-2.88c-1.59-1.61-3.13-3.24-4.48-4.93c-1.88-2.35-3.54-5.09-4.27-7.87
						c-0.78-2.76-0.58-5.33,0.03-6.73l0.14,0.06c-0.6,1.37-0.8,3.9-0.02,6.63c0.73,2.75,2.36,5.46,4.23,7.8
						c1.34,1.68,2.88,3.31,4.46,4.92c1,1,1.97,1.96,2.89,2.88c0.87,0.82,1.72,1.61,2.55,2.36c1.64,1.49,3.08,2.79,4.05,3.77
						l0.28,0.28c0.57,0.58,1.15,1.15,1.73,1.77C155.44,106.75,157.59,109.37,159.38,112.31z"/>
				</g>
				<g>
					<path class="st9" d="M159.49,109.78c0.78,1.17,1.55,2.49,2.27,3.92c0.36,0.71,0.69,1.5,1.02,2.26l0.45,1.23
						c0.14,0.4,0.31,0.87,0.39,1.19c0.81,2.86,1.25,5.71,1.33,8.49c0.17,5.56-1.03,10.81-3.78,15.12l-0.12-0.15
						c3.79-5.97,4.66-13.76,2.88-21.66c-0.37-1.82-1.27-4.37-2.25-6.33c-0.98-2-2.08-3.71-3.17-5.25c-2.2-3.03-4.39-5.32-6.18-7.06
						c-0.89-0.87-2.33-2.1-4.01-3.48c-0.81-0.68-1.69-1.41-2.62-2.2c-0.23-0.19-0.45-0.39-0.69-0.59c-0.25-0.23-0.5-0.46-0.76-0.69
						c-0.5-0.46-1.01-0.92-1.53-1.4c-3.52-3.2-6.96-6.69-8.74-10.33c-0.91-1.82-1.44-3.67-1.59-5.24c-0.17-1.58,0.03-2.87,0.35-3.67
						l0.14,0.06c-0.05,0.15-0.1,0.31-0.15,0.48c-0.25,0.91-0.36,2.23-0.1,3.78c0.23,1.54,0.83,3.3,1.75,5.02
						c1.83,3.43,5.09,6.71,8.43,9.77c0.52,0.47,1.03,0.94,1.52,1.4c0.25,0.23,0.51,0.46,0.76,0.69c0.23,0.2,0.46,0.4,0.69,0.59
						c0.93,0.78,1.82,1.52,2.62,2.2c1.68,1.39,3.12,2.62,4.01,3.49C154.45,103.43,157.01,106.05,159.49,109.78z"/>
				</g>
			</g>
		</g>
		<g class="st4">
			<g>
				<g>
					<path class="st5" d="M123.84,147.8c-1.28,0.78-2.8,1.73-4.58,2.71c-1.78,0.98-3.83,1.95-6.09,2.66
						c-0.11,0.05-0.22,0.08-0.34,0.11c-0.82,0.25-1.69,0.48-2.57,0.66c-0.11,0.03-0.22,0.06-0.32,0.08
						c-0.79,0.16-1.61,0.28-2.44,0.35c-0.09,0.01-0.19,0.01-0.28,0.02c-0.76,0.06-1.54,0.09-2.34,0.09c-0.08,0-0.18,0-0.27,0
						c-0.74-0.01-1.5-0.05-2.26-0.13c-0.08-0.01-0.17-0.02-0.25-0.03c-0.7-0.1-1.42-0.23-2.14-0.39c-0.08-0.01-0.16-0.02-0.25-0.05
						c-0.68-0.15-1.37-0.33-2.07-0.55c-0.09-0.02-0.16-0.04-0.24-0.08c-0.66-0.18-1.29-0.44-1.95-0.71
						c-0.08-0.04-0.14-0.07-0.23-0.1c-0.6-0.27-1.21-0.56-1.82-0.89c-0.08-0.03-0.15-0.06-0.22-0.11c-0.59-0.29-1.17-0.62-1.74-0.97
						c-0.07-0.04-0.14-0.08-0.21-0.13c-0.54-0.34-1.07-0.71-1.61-1.11c-0.07-0.05-0.14-0.09-0.2-0.16
						c-0.43-0.31-0.85-0.63-1.28-0.97c-0.07-0.06-0.15-0.12-0.23-0.21c-0.07-0.04-0.12-0.1-0.19-0.15c-0.41-0.34-0.86-0.78-1.36-1.3
						c-0.05-0.06-0.1-0.13-0.16-0.18c-0.39-0.41-0.81-0.87-1.24-1.36c-0.06-0.05-0.11-0.12-0.16-0.18c-0.39-0.44-0.81-0.92-1.24-1.4
						l-0.18-0.22c-0.35-0.4-0.69-0.84-1.04-1.28l-0.17-0.22c-0.34-0.44-0.69-0.87-1.04-1.32c-0.04-0.06-0.09-0.12-0.14-0.19
						l-1.04-1.32c-0.05-0.07-0.09-0.13-0.15-0.18l-0.01-0.01c-0.33-0.46-0.65-0.91-0.97-1.38c-0.05-0.07-0.1-0.13-0.15-0.19
						c-0.33-0.47-0.66-0.92-0.98-1.38c-0.05-0.07-0.1-0.15-0.15-0.22c-0.34-0.47-0.66-0.92-0.99-1.37c-0.05-0.08-0.1-0.14-0.16-0.21
						c-0.33-0.5-0.64-0.98-0.95-1.44c-0.06-0.06-0.1-0.13-0.14-0.2c-0.34-0.5-0.67-0.98-0.97-1.41c-0.06-0.07-0.11-0.15-0.16-0.22
						c-0.38-0.53-0.73-1.01-1.02-1.42l-0.16-0.19c-0.26-0.36-0.49-0.65-0.68-0.86c-0.17-0.18-0.32-0.37-0.47-0.56l-0.16-0.2
						c-0.31-0.39-0.61-0.77-0.9-1.18c1.1-0.37,2.19-0.64,3.24-0.81c1.66-0.28,3.22-0.29,4.61-0.04c-0.57-0.38-1.13-0.76-1.74-1.08
						c-0.1-0.06-0.21-0.12-0.32-0.18c-0.75-0.42-1.56-0.77-2.41-1.09c-0.14-0.06-0.29-0.12-0.44-0.17
						c-0.64-0.22-1.27-0.45-1.93-0.65c-0.39-0.13-0.79-0.23-1.2-0.33l-0.01-0.01c-0.17-0.04-0.34-0.08-0.52-0.12
						c-0.02,0-0.02,0-0.02,0c-0.59-0.16-1.21-0.28-1.85-0.4c-0.11-0.28-0.21-0.57-0.32-0.86c-0.02-0.07-0.04-0.15-0.07-0.23
						c-0.19-0.55-0.33-1.13-0.46-1.71c-0.02-0.08-0.04-0.16-0.05-0.24c-0.12-0.58-0.23-1.16-0.31-1.75
						c-0.02-0.08-0.03-0.17-0.03-0.25c-0.08-0.59-0.14-1.17-0.18-1.76c0-0.08-0.01-0.16-0.01-0.24c-0.02-0.15-0.02-0.3-0.02-0.46
						c0.01-0.34,0.02-0.8,0.03-1.33c0.01-0.08,0.01-0.17,0.01-0.25c0.04-0.52,0.09-1.12,0.14-1.77c0.02-0.08,0.03-0.17,0.03-0.25
						c0.07-0.55,0.14-1.14,0.23-1.73c0-0.08,0.01-0.17,0.02-0.26c0.08-0.55,0.18-1.11,0.31-1.67c0.01-0.09,0.03-0.17,0.06-0.26
						c0.13-0.55,0.26-1.08,0.4-1.6c0.03-0.09,0.06-0.19,0.09-0.27c0.14-0.52,0.31-1.01,0.5-1.49l0.1-0.25
						c0.62-1.6,1.4-2.78,2.25-3.1c1.09-0.41,2.09-0.27,2.93-0.07c1.08,0.25,2.31,0.79,3.63,1.54c1.35,0.74,2.84,1.66,4.34,2.75
						c3.11,2.11,6.43,4.79,9.82,7.49c2.19,4.21,3.61,9.16,4.53,14.87c1.1-3.36,1.72-6.48,1.95-9.31c0.81,0.77,1.62,1.53,2.41,2.27
						c2.06,2.06,6.12,6.83,10.68,12.17C115.7,136.6,120.89,142.39,123.84,147.8z"/>
				</g>
				<g>
					<path class="st10" d="M109.68,143.66c-1.08-0.63-2.11-1.33-3.14-2.03c-1.04-0.69-2.03-1.45-3-2.23
						c-2.07-1.57-4.01-3.3-5.85-5.12c-3.84-4-6.93-8.64-9.91-13.16c-0.72-1.14-1.51-2.21-2.23-3.33c-0.73-1.11-1.49-2.2-2.28-3.25
						c-0.75-1.09-1.54-2.15-2.38-3.17c-0.85-1.01-1.65-2.07-2.57-3.05c-2.55-2.77-5.16-5.52-8.48-7.92
						c-0.44,0.56-0.84,1.32-1.19,2.22l-0.1,0.25c-0.18,0.47-0.35,0.97-0.5,1.49c-0.03,0.09-0.06,0.18-0.09,0.27
						c-0.14,0.52-0.27,1.05-0.4,1.6c-0.03,0.09-0.05,0.18-0.06,0.26c-0.13,0.56-0.23,1.12-0.31,1.67c-0.01,0.09-0.02,0.18-0.02,0.26
						c-0.09,0.59-0.16,1.17-0.23,1.73c0,0.08-0.01,0.17-0.03,0.25c-0.05,0.65-0.1,1.24-0.14,1.77c0,0.08,0,0.17-0.01,0.25
						c-0.01,0.53-0.02,0.99-0.03,1.33c0,0.16,0.01,0.31,0.02,0.46c0,0.07,0.01,0.16,0.01,0.24c0.04,0.59,0.1,1.17,0.18,1.76
						c0.01,0.08,0.02,0.17,0.03,0.25c0.08,0.6,0.19,1.18,0.31,1.75c0.01,0.08,0.03,0.17,0.05,0.24c0.13,0.58,0.27,1.16,0.46,1.71
						c0.02,0.08,0.05,0.16,0.07,0.23c0.11,0.29,0.22,0.57,0.32,0.86c0.64,0.11,1.26,0.24,1.85,0.4c0,0,0,0,0.02,0
						c0.18,0.03,0.35,0.08,0.52,0.12l0.01,0.01c0.4,0.1,0.81,0.2,1.2,0.33c0.66,0.19,1.3,0.42,1.93,0.65
						c0.15,0.05,0.3,0.11,0.44,0.17c0.85,0.32,1.66,0.68,2.41,1.09c0.11,0.05,0.22,0.12,0.32,0.18c0.61,0.32,1.18,0.7,1.74,1.08
						c-1.39-0.24-2.94-0.24-4.61,0.04c-1.06,0.18-2.14,0.44-3.24,0.81c0.29,0.4,0.59,0.79,0.9,1.18l0.16,0.2
						c0.16,0.19,0.31,0.38,0.47,0.56c0.19,0.21,0.42,0.5,0.68,0.86l0.16,0.19c0.3,0.41,0.64,0.89,1.02,1.42
						c0.05,0.08,0.1,0.16,0.16,0.22c0.3,0.44,0.63,0.92,0.97,1.41c0.04,0.07,0.09,0.14,0.14,0.2c0.3,0.46,0.62,0.94,0.95,1.44
						c0.06,0.06,0.1,0.13,0.16,0.21c0.32,0.45,0.65,0.9,0.99,1.37c0.05,0.07,0.1,0.15,0.15,0.22c0.33,0.46,0.65,0.92,0.98,1.38
						c0.05,0.07,0.1,0.13,0.15,0.19c0.33,0.46,0.65,0.91,0.97,1.38l0.01,0.01c0.05,0.05,0.1,0.11,0.15,0.18l1.04,1.32
						c0.05,0.07,0.09,0.13,0.14,0.19c0.36,0.45,0.7,0.89,1.04,1.32l0.17,0.22c0.35,0.44,0.69,0.88,1.04,1.28l0.18,0.22
						c0.43,0.49,0.85,0.96,1.24,1.4c0.05,0.07,0.11,0.13,0.16,0.18c0.43,0.49,0.85,0.95,1.24,1.36c0.06,0.05,0.11,0.12,0.16,0.18
						c0.49,0.52,0.95,0.96,1.36,1.3c0.07,0.05,0.12,0.12,0.19,0.15c0.08,0.08,0.16,0.15,0.23,0.21c0.42,0.34,0.85,0.67,1.28,0.97
						c0.06,0.06,0.13,0.11,0.2,0.16c0.54,0.4,1.07,0.77,1.61,1.11c0.07,0.05,0.13,0.09,0.21,0.13c0.58,0.36,1.16,0.68,1.74,0.97
						c0.07,0.05,0.14,0.08,0.22,0.11c0.61,0.33,1.22,0.62,1.82,0.89c0.08,0.03,0.15,0.06,0.23,0.1c0.65,0.27,1.28,0.53,1.95,0.71
						c0.08,0.04,0.15,0.05,0.24,0.08c0.7,0.22,1.39,0.4,2.07,0.55c0.08,0.02,0.16,0.04,0.25,0.05c0.72,0.17,1.44,0.29,2.14,0.39
						c0.08,0.01,0.17,0.02,0.25,0.03c0.77,0.08,1.52,0.12,2.26,0.13c0.09,0.01,0.19,0,0.27,0c0.81,0,1.59-0.03,2.34-0.09
						c0.1-0.01,0.2-0.02,0.28-0.02c0.83-0.07,1.65-0.18,2.44-0.35c0.1-0.02,0.21-0.04,0.32-0.08c0.89-0.18,1.75-0.41,2.57-0.66
						c0.12-0.03,0.23-0.07,0.34-0.11c1.06-0.34,2.05-0.71,3-1.12c0.96-0.43,1.85-0.87,2.7-1.32c1.69-0.9,3.15-1.81,4.4-2.56
						C118.38,147.85,113.81,146.06,109.68,143.66z"/>
				</g>
				<g>
					<path class="st11" d="M71.09,100.26c5.16,4.4,9.09,9.27,12.82,14.38c3.71,5.09,7.18,10.5,11.29,15.52
						c4.16,4.95,9.15,9.27,14.88,12.28c5.74,2.96,12.15,4.7,18.74,4.34c0.19-0.01,0.29,0.24,0.21,0.54
						c-0.07,0.3-0.28,0.55-0.47,0.57c-6.87,0.9-13.56-0.88-19.28-4.14c-5.77-3.22-10.7-7.8-14.74-12.95
						c-4.05-5.17-7.51-10.6-11.17-15.77c-3.66-5.18-7.56-10.07-12.74-14.45c-0.08-0.06-0.04-0.19,0.09-0.28
						C70.84,100.22,71.01,100.2,71.09,100.26L71.09,100.26z"/>
				</g>
			</g>
			<g class="st12">
				<g>
					<g>
						<path class="st11" d="M75.69,104.85c-1.95-0.83-4.33-1.79-6.81-2.36l-0.1,0.26c1.36,0.32,2.7,0.76,3.93,1.23
							c1.26,0.46,2.43,0.95,3.41,1.41C75.96,105.22,75.83,105.03,75.69,104.85z"/>
					</g>
					<g>
						<path class="st11" d="M77.2,106.77c-2.22-0.93-5.6-2.03-8.94-2.53c-0.03,0.09-0.06,0.18-0.09,0.27
							c0.89,0.13,1.79,0.32,2.66,0.54c0.89,0.21,1.77,0.45,2.6,0.7c1.67,0.5,3.12,1.08,4.28,1.56
							C77.52,107.15,77.34,106.97,77.2,106.77z"/>
					</g>
					<g>
						<path class="st11" d="M78.72,108.55c-1.28-0.45-3-0.96-4.87-1.44c-1.88-0.47-4.05-0.83-6.1-0.99
							c-0.03,0.1-0.05,0.18-0.06,0.26c4.47,0.33,9.03,1.78,11.39,2.63C78.94,108.88,78.83,108.72,78.72,108.55z"/>
					</g>
					<g>
						<path class="st11" d="M79.98,110.17c-1.31-0.45-3.27-0.95-5.53-1.34c-2.2-0.43-4.69-0.77-7.1-0.76
							c-0.01,0.09-0.03,0.18-0.03,0.26c2.5,0,5.08,0.38,7.35,0.82c2.31,0.43,4.26,0.95,5.47,1.41
							C80.08,110.43,80.03,110.3,79.98,110.17z"/>
					</g>
					<g>
						<path class="st11" d="M81.04,111.65c-1.4-0.39-3.51-0.87-6.02-1.19c-2.53-0.3-5.29-0.56-7.93-0.39c0,0.08-0.01,0.17-0.03,0.25
							c1.44-0.09,2.93-0.05,4.38,0.06c1.46,0.1,2.91,0.25,4.23,0.45c1.32,0.19,2.52,0.42,3.52,0.66c1.02,0.22,1.85,0.45,2.4,0.67
							L81.04,111.65z"/>
					</g>
					<g>
						<path class="st11" d="M82.64,113.28c-1.07-0.44-3.5-0.81-6.35-1.12c-2.85-0.3-6.32-0.41-9.4-0.08c0,0.08,0,0.17-0.01,0.25
							c3.17-0.33,6.75-0.2,9.62,0.12c2.91,0.31,5.28,0.73,6.16,1.17l0.15-0.16L82.64,113.28z"/>
					</g>
					<g>
						<path class="st11" d="M83.48,114.97c-0.92-0.39-3.33-0.77-6.45-0.93c-3.09-0.16-6.77-0.22-10.17,0.34
							c0-0.08-0.01-0.17-0.01-0.24c3.49-0.59,7.22-0.55,10.32-0.38c3.14,0.16,5.57,0.56,6.52,0.97L83.48,114.97z"/>
					</g>
					<g>
						<path class="st11" d="M84.32,116.28c-0.46-0.19-1.33-0.35-2.49-0.46c-1.14-0.12-2.56-0.21-4.16-0.24
							c-1.59-0.03-3.39,0.03-5.19,0.14c-1.8,0.11-3.65,0.32-5.42,0.68c-0.02-0.08-0.03-0.17-0.03-0.25
							c3.43-0.69,7.25-0.84,10.53-0.84c1.63,0.01,3.1,0.09,4.29,0.21c1.22,0.11,2.16,0.27,2.7,0.5L84.32,116.28z"/>
					</g>
					<g>
						<path class="st11" d="M85.17,117.59c-0.95-0.4-3.62-0.51-6.91-0.44c-3.26,0.07-7.32,0.43-10.86,1.24
							c-0.02-0.08-0.04-0.16-0.05-0.24c3.53-0.82,7.58-1.2,10.89-1.3c3.31-0.08,6.08,0.02,7.15,0.47L85.17,117.59z"/>
					</g>
					<g>
						<path class="st11" d="M86.03,118.91c-1.11-0.41-3.8-0.47-7.19-0.21c-3.36,0.24-7.34,0.7-10.92,1.66
							c-0.02-0.07-0.04-0.15-0.07-0.23c3.62-0.97,7.68-1.44,11.08-1.68c3.45-0.26,6.2-0.21,7.31,0.21L86.03,118.91z"/>
					</g>
					<g>
						<path class="st11" d="M86.93,120.18c-0.51-0.18-1.35-0.26-2.44-0.25c-1.08-0.01-2.39,0.05-3.87,0.18
							c-1.48,0.13-3.12,0.33-4.82,0.61c-1.7,0.27-3.43,0.58-5.14,0.99l-0.01-0.01c-0.17-0.04-0.34-0.08-0.53-0.11
							c1.76-0.45,3.58-0.8,5.33-1.07c1.78-0.29,3.5-0.51,5.06-0.66c1.56-0.14,2.94-0.21,4.07-0.2c1.15-0.01,2.04,0.07,2.57,0.25
							L86.93,120.18z"/>
					</g>
					<g>
						<path class="st11" d="M87.85,121.46c-1.27-0.44-4.85-0.1-8.86,0.48c-1.18,0.19-2.83,0.47-4.74,0.89
							c-0.14-0.06-0.29-0.12-0.45-0.17c3.17-0.73,6.28-1.21,8.8-1.45c2.56-0.28,4.54-0.31,5.45-0.01L87.85,121.46z"/>
					</g>
					<g>
						<path class="st11" d="M88.77,122.74c-0.78-0.23-2.35-0.21-4.42,0.05c-2.08,0.25-4.66,0.71-7.34,1.29
							c-0.1-0.06-0.21-0.12-0.32-0.17c1.4-0.32,2.77-0.59,4.06-0.81c1.3-0.24,2.52-0.43,3.61-0.56c2.18-0.27,3.82-0.3,4.62-0.05
							L88.77,122.74z"/>
					</g>
					<g>
						<path class="st11" d="M89.74,123.99c-0.54-0.15-1.45-0.15-2.65-0.04c-1.17,0.1-2.62,0.31-4.26,0.62
							c-1.63,0.31-3.44,0.72-5.32,1.21c-1.86,0.48-3.78,1.03-5.65,1.68l-0.16-0.2c1.9-0.67,3.86-1.24,5.75-1.72
							c1.91-0.5,3.76-0.92,5.43-1.23c1.67-0.32,3.15-0.54,4.35-0.64c1.21-0.12,2.16-0.12,2.7,0.03L89.74,123.99z"/>
					</g>
					<g>
						<path class="st11" d="M90.7,125.23c-1.04-0.29-3.56,0.06-6.73,0.73c-3.15,0.67-7.04,1.73-10.8,3.11l-0.16-0.19
							c3.81-1.4,7.79-2.49,11.01-3.18c3.23-0.69,5.81-1.06,6.87-0.76L90.7,125.23z"/>
					</g>
					<g>
						<path class="st11" d="M91.67,126.49c-1.02-0.26-3.45,0.11-6.61,0.89c-3.17,0.8-6.96,1.89-10.72,3.35
							c-0.06-0.07-0.11-0.15-0.16-0.23c3.84-1.51,7.7-2.62,10.92-3.42c3.21-0.79,5.69-1.16,6.76-0.88L91.67,126.49z"/>
					</g>
					<g>
						<path class="st11" d="M92.71,127.69c-0.52-0.11-1.39-0.06-2.52,0.14c-1.11,0.18-2.49,0.49-4.04,0.91
							c-3.11,0.85-6.96,2.11-10.68,3.61c-0.05-0.06-0.1-0.13-0.14-0.21c1.86-0.77,3.72-1.45,5.54-2.08
							c1.83-0.63,3.57-1.17,5.16-1.61c1.58-0.43,3-0.76,4.16-0.94c1.17-0.19,2.11-0.25,2.71-0.12L92.71,127.69z"/>
					</g>
					<g>
						<path class="st11" d="M93.73,128.9c-1.13-0.25-3.6,0.29-6.68,1.21c-3.07,0.92-6.81,2.28-10.49,3.89
							c-0.05-0.08-0.1-0.15-0.16-0.21c2.17-0.96,4.45-1.85,6.75-2.67c4.98-1.72,9.15-2.85,10.74-2.51L93.73,128.9z"/>
					</g>
					<g>
						<path class="st11" d="M94.76,130.11c-1.14-0.23-3.54,0.32-6.62,1.34c-3.09,1.04-6.76,2.43-10.44,4.14
							c-0.05-0.07-0.1-0.15-0.15-0.22c2.06-0.95,4.2-1.85,6.37-2.67c5.13-1.94,9.41-3.22,11.02-2.89L94.76,130.11z"/>
					</g>
					<g>
						<path class="st11" d="M95.83,131.28c-0.58-0.1-1.48,0.02-2.61,0.28c-1.12,0.25-2.47,0.67-3.99,1.2
							c-3.04,1.07-6.77,2.64-10.41,4.4c-0.05-0.07-0.1-0.13-0.15-0.19c3.71-1.79,7.51-3.37,10.61-4.48c3.1-1.09,5.52-1.69,6.73-1.51
							L95.83,131.28z"/>
					</g>
					<g>
						<path class="st11" d="M96.91,132.45c-1.16-0.19-3.57,0.5-6.59,1.63c-3.01,1.13-6.69,2.75-10.38,4.65
							c-0.05-0.07-0.09-0.13-0.15-0.18c3.75-1.94,7.5-3.59,10.57-4.74c3.07-1.14,5.54-1.86,6.72-1.66L96.91,132.45z"/>
					</g>
					<g>
						<path class="st11" d="M98,133.61c-1.17-0.17-3.53,0.52-6.55,1.74c-3.04,1.25-6.64,2.9-10.33,4.89
							c-0.04-0.06-0.09-0.12-0.14-0.19c3.75-2.03,7.43-3.71,10.51-4.97c3.08-1.24,5.48-1.95,6.67-1.77L98,133.61z"/>
					</g>
					<g>
						<path class="st11" d="M99.13,134.75c-1.17-0.11-3.5,0.63-6.49,1.91c-2.98,1.28-6.67,3.12-10.31,5.15l-0.17-0.22
							c3.71-2.08,7.43-3.92,10.48-5.22c3.04-1.29,5.42-2.02,6.64-1.9L99.13,134.75z"/>
					</g>
					<g>
						<path class="st11" d="M100.27,135.88c-1.15-0.13-3.51,0.71-6.47,2.04c-2.95,1.33-6.57,3.22-10.24,5.38l-0.18-0.22
							c3.73-2.22,7.41-4.12,10.42-5.47c3.01-1.33,5.42-2.19,6.63-2.05L100.27,135.88z"/>
					</g>
				</g>
				<g>
					<g>
						<path class="st11" d="M119.05,146.44c-2.23,1.77-4.4,4.14-6.22,6.83c0.12-0.03,0.23-0.07,0.34-0.11
							c1.77-2.57,3.83-4.81,5.98-6.51l-0.04-0.21L119.05,146.44z"/>
					</g>
					<g>
						<path class="st11" d="M117.34,145.99c-2.68,2.02-5.3,4.82-7.4,8.02c0.1-0.02,0.21-0.04,0.32-0.08
							c2.11-3.15,4.7-5.91,7.34-7.85L117.34,145.99z"/>
					</g>
					<g>
						<path class="st11" d="M115.95,145.4l-0.1-0.05c-3.13,2.23-6.2,5.36-8.64,9.03c0.1-0.01,0.2-0.02,0.28-0.02
							c2.43-3.63,5.49-6.75,8.6-8.9L115.95,145.4z"/>
					</g>
					<g>
						<path class="st11" d="M114.36,144.71c-3.47,2.25-7.01,5.71-9.77,9.76c0.09,0.01,0.19,0,0.27,0c2.77-4.04,6.29-7.45,9.75-9.65
							L114.36,144.71z"/>
					</g>
					<g>
						<path class="st11" d="M112.9,144c-3.8,2.31-7.76,5.99-10.81,10.3c0.08,0.01,0.17,0.02,0.25,0.03
							c3.07-4.32,7.03-7.97,10.83-10.21L112.9,144z"/>
					</g>
					<g>
						<path class="st11" d="M111.45,143.32l-0.02-0.01c-4.12,2.36-8.35,6.03-11.73,10.56c0.08,0.02,0.16,0.04,0.25,0.05
							c3.37-4.52,7.64-8.2,11.74-10.48L111.45,143.32z"/>
					</g>
					<g>
						<path class="st11" d="M110.01,142.56c-4.31,2.23-8.93,6.03-12.62,10.68c0.08,0.04,0.15,0.05,0.24,0.08
							c3.69-4.66,8.32-8.43,12.63-10.62L110.01,142.56z"/>
					</g>
					<g>
						<path class="st11" d="M108.66,141.74c-2.27,1.08-4.63,2.58-6.93,4.4c-2.29,1.81-4.51,3.91-6.51,6.28
							c0.08,0.03,0.15,0.06,0.23,0.1c3.98-4.7,8.93-8.52,13.45-10.62L108.66,141.74z"/>
					</g>
					<g>
						<path class="st11" d="M107.35,140.9c-1.19,0.52-2.4,1.15-3.62,1.88c-1.21,0.71-2.42,1.51-3.63,2.4
							c-2.41,1.78-4.78,3.88-6.93,6.24c0.07,0.05,0.14,0.08,0.22,0.11c4.33-4.76,9.46-8.41,14.2-10.47L107.35,140.9z"/>
					</g>
					<g>
						<path class="st11" d="M106.07,140.07c-4.83,1.9-10.25,5.58-14.84,10.26c0.07,0.05,0.13,0.09,0.21,0.13
							c4.58-4.68,9.96-8.3,14.79-10.19l0.01-0.09L106.07,140.07z"/>
					</g>
					<g>
						<path class="st11" d="M104.81,139.18c-2.49,0.89-5.13,2.23-7.76,3.92c-2.61,1.65-5.22,3.66-7.64,5.95
							c0.06,0.06,0.13,0.11,0.2,0.16c2.39-2.27,4.97-4.25,7.55-5.9c2.6-1.67,5.21-3,7.67-3.86l0.04-0.22L104.81,139.18z"/>
					</g>
					<g>
						<path class="st11" d="M103.45,138.6c-1.25,0.41-2.53,0.93-3.84,1.54c-1.3,0.61-2.61,1.29-3.93,2.07
							c-2.63,1.56-5.29,3.47-7.78,5.65c-0.07-0.04-0.12-0.1-0.19-0.15c2.53-2.22,5.23-4.15,7.91-5.74c1.34-0.79,2.67-1.5,3.98-2.1
							c1.33-0.63,2.63-1.15,3.89-1.57L103.45,138.6z"/>
					</g>
					<g>
						<path class="st11" d="M102.08,137.76c-2.5,0.75-5.11,1.85-7.79,3.33c-2.67,1.47-5.38,3.28-7.93,5.33
							c-0.05-0.06-0.1-0.13-0.16-0.18c2.59-2.08,5.32-3.9,8.04-5.4c2.72-1.5,5.37-2.63,7.89-3.39L102.08,137.76z"/>
					</g>
					<g>
						<path class="st11" d="M100.72,136.87c-2.46,0.66-5.1,1.72-7.79,3.09c-2.65,1.34-5.36,2.99-7.97,4.92
							c-0.06-0.05-0.11-0.12-0.16-0.18c2.66-1.96,5.41-3.64,8.1-5c2.72-1.38,5.4-2.46,7.89-3.12L100.72,136.87z"/>
					</g>
				</g>
			</g>
		</g>
		<g class="st4">
			<path class="st13" d="M79.29,149.41c1.25,0.77,2.42,1.46,3.72,1.98c1.2,0.61,2.57,1.02,3.84,1.55c1.37,0.45,2.64,1.01,4.06,1.54
				c0.68,0.29,1.33,0.62,2.03,0.93l1.04,0.49c0.34,0.17,0.65,0.37,0.98,0.56c0.68,0.4,1.37,0.83,2.08,1.29
				c0.65,0.49,1.3,1.03,1.96,1.59c0.33,0.29,0.66,0.58,0.98,0.87c0.29,0.32,0.58,0.64,0.86,0.97c0.57,0.67,1.13,1.37,1.67,2.1
				c0.51-0.94,0.91-2.01,1.19-3.2c0.13-0.59,0.27-1.22,0.32-1.86c0.04-0.63,0.04-1.29,0.01-1.96c-0.03-0.67-0.09-1.37-0.18-2.07
				c-0.11-0.7-0.31-1.38-0.51-2.09c-0.21-0.7-0.44-1.41-0.71-2.12c-0.31-0.68-0.66-1.35-1.03-2.03c-2.09-3.73-5.32-6.96-8.98-9.14
				c-3.65-2.23-7.6-3.6-11.4-4.41c-3.81-0.77-7.67-0.94-11.37-1.07c-3.71-0.1-7.27-0.16-10.65-0.76c4.41,1.61,7.85,4.82,10.94,8.08
				C73.24,143.95,75.94,147.22,79.29,149.41z"/>
			<path class="st7" d="M74.34,144.02c0.88,0.75,1.68,1.44,2.43,2.09c0.73,0.67,1.46,1.24,2.19,1.77c0.7,0.57,1.44,1.06,2.26,1.5
				c0.76,0.5,1.64,0.92,2.62,1.35c2.88,1.29,6.18,2.32,9.57,4.06l1.29,0.66l1.21,0.77c0.41,0.27,0.82,0.54,1.23,0.81l0.61,0.42
				l0.56,0.47c0.74,0.63,1.48,1.29,2.19,1.97c0.65,0.71,1.25,1.46,1.82,2.22c0.08-0.93-0.06-1.93-0.41-2.92
				c-0.41-0.96-0.98-1.93-1.62-2.87c-0.68-0.92-1.51-1.76-2.26-2.59c-0.77-0.82-1.64-1.51-2.33-2.24c-0.38-0.42-0.79-0.76-1.21-1.07
				c-0.41-0.32-0.81-0.62-1.2-0.91c-0.76-0.6-1.6-1.01-2.39-1.45c-0.4-0.21-0.8-0.42-1.2-0.64c-0.42-0.19-0.85-0.37-1.28-0.56
				c-0.87-0.37-1.73-0.8-2.74-1.16c-3.64-1.49-7.19-3.54-10.94-5.66c-3.73-2.12-7.59-4.28-11.2-5.91
				C67.24,137.28,70.8,141.03,74.34,144.02z"/>
			<g class="st8">
				<g>
					<path class="st9" d="M59.26,132.42c4.06,1.22,6.66,3.51,9.43,6.19c0.48,0.48,0.97,0.98,1.47,1.48
						c1.94,1.92,3.86,4.03,5.78,5.82c0.95,0.91,1.88,1.76,2.86,2.47c0.47,0.38,0.94,0.72,1.44,1.01c0.25,0.15,0.51,0.28,0.76,0.41
						c0.24,0.14,0.49,0.28,0.75,0.4c0.53,0.25,1.06,0.47,1.59,0.67c0.51,0.22,1,0.44,1.51,0.63c1,0.36,2,0.73,3,1.09
						c1.04,0.31,1.95,0.73,2.96,1.1c1.03,0.34,1.92,0.83,2.91,1.29c3.42,1.73,6.68,4.21,8.79,8.31l-0.1,0.06
						c-2.1-4.07-5.33-6.54-8.73-8.26c-1.91-0.97-3.89-1.69-5.87-2.39c-1-0.34-1.95-0.74-3-1.09c-0.51-0.19-1-0.41-1.51-0.63
						c-0.53-0.2-1.06-0.42-1.59-0.67c-0.26-0.12-0.51-0.25-0.75-0.4c-0.26-0.13-0.52-0.27-0.77-0.42c-0.5-0.3-0.98-0.64-1.45-1.02
						c-0.98-0.7-1.92-1.57-2.87-2.47c-1.92-1.8-3.85-3.92-5.8-5.84c-0.5-0.51-0.99-1-1.47-1.49c-2.75-2.66-5.34-4.94-9.36-6.15
						L59.26,132.42z"/>
				</g>
				<g>
					<path class="st9" d="M59.35,132.45c3.83,1.15,6.51,3.22,9.39,5.67c0.54,0.48,1.11,0.98,1.68,1.49c0.93,0.8,1.83,1.66,2.73,2.48
						c0.91,0.82,1.79,1.63,2.64,2.41c1.74,1.53,3.39,2.93,5.1,3.95c0.51,0.27,1.01,0.56,1.51,0.81c4.12,1.92,7.88,3.06,11.54,5.1
						c3.45,1.93,6.67,4.64,8.56,8.87l-0.11,0.05c-1.88-4.19-5.08-6.89-8.5-8.81c-3.66-2.04-7.41-3.18-11.54-5.1
						c-0.51-0.25-1-0.54-1.53-0.82c-1.72-1.03-3.38-2.43-5.13-3.96c-0.85-0.78-1.74-1.59-2.65-2.41c-0.9-0.83-1.81-1.68-2.74-2.49
						c-0.57-0.51-1.13-1.01-1.68-1.49c-2.87-2.44-5.53-4.5-9.33-5.64L59.35,132.45z"/>
				</g>
				<g>
					<path class="st9" d="M59.45,132.49c3.59,1.07,6.32,2.92,9.29,5.15c0.63,0.49,1.28,1,1.94,1.51c0.78,0.58,1.62,1.29,2.52,2.02
						c0.45,0.36,0.91,0.73,1.37,1.1c0.46,0.39,0.92,0.78,1.39,1.16c1.9,1.5,3.75,3.03,5.58,4.09c0.52,0.26,1.01,0.57,1.55,0.82
						c3.99,1.88,7.59,3.22,11.03,5.31c3.52,2.15,6.75,5.14,8.41,9.54l-0.11,0.04c-1.65-4.36-4.86-7.33-8.35-9.47
						c-3.44-2.1-7.03-3.43-11.03-5.32c-0.54-0.25-1.04-0.56-1.56-0.83c-1.83-1.06-3.69-2.59-5.6-4.1c-0.47-0.38-0.94-0.77-1.4-1.16
						c-0.47-0.37-0.93-0.74-1.38-1.1c-0.89-0.74-1.74-1.44-2.52-2.03c-0.66-0.52-1.31-1.02-1.94-1.51
						c-2.96-2.22-5.68-4.06-9.24-5.12L59.45,132.49z"/>
				</g>
				<g>
					<path class="st9" d="M59.54,132.52c3.33,0.99,6.08,2.61,9.12,4.6c0.74,0.5,1.51,1.03,2.29,1.56c0.87,0.57,1.79,1.26,2.74,1.94
						c0.96,0.66,1.92,1.42,2.9,2.12c1.95,1.41,3.83,2.83,5.61,3.84c0.52,0.25,1.02,0.58,1.58,0.84c3.8,1.81,7.21,3.29,10.42,5.38
						c3.66,2.41,6.94,5.73,8.36,10.35l-0.11,0.03c-1.41-4.58-4.67-7.88-8.31-10.27c-3.2-2.09-6.61-3.56-10.41-5.38
						c-0.57-0.26-1.07-0.59-1.6-0.85c-1.79-1.01-3.67-2.43-5.62-3.85c-0.98-0.71-1.94-1.46-2.9-2.13c-0.95-0.69-1.87-1.38-2.74-1.95
						c-0.78-0.52-1.54-1.07-2.29-1.56c-3.02-1.98-5.76-3.59-9.07-4.58L59.54,132.52z"/>
				</g>
				<g>
					<path class="st9" d="M59.64,132.55c3.04,0.9,5.9,2.35,8.8,4.02c0.91,0.5,1.82,1.09,2.77,1.64c4.35,2.58,8.42,5.5,11.63,7.44
						c0.55,0.29,1.08,0.61,1.62,0.86c3.53,1.71,6.72,3.23,9.67,5.26c3.91,2.69,7.29,6.45,8.44,11.35l-0.12,0.02
						c-1.15-4.86-4.51-8.58-8.38-11.26c-2.96-2.02-6.14-3.54-9.67-5.26c-0.54-0.25-1.07-0.56-1.63-0.86
						c-3.22-1.94-7.29-4.87-11.65-7.45c-0.95-0.55-1.86-1.14-2.77-1.64c-2.9-1.66-5.74-3.11-8.77-4L59.64,132.55z"/>
				</g>
				<g>
					<path class="st9" d="M59.74,132.58c2.69,0.8,5.43,1.96,8.24,3.36c1.15,0.54,2.31,1.17,3.51,1.78c4.29,2.2,8.77,5.03,12.02,6.98
						c0.54,0.3,1.08,0.6,1.65,0.87c3.16,1.56,6.1,3.02,8.71,4.96c2.17,1.51,4.06,3.34,5.64,5.42c0.77,1.05,1.37,2.2,1.96,3.36
						c0.5,1.2,0.85,2.46,1.13,3.74l-0.12,0.01c-0.28-1.27-0.63-2.52-1.12-3.71c-0.58-1.15-1.18-2.29-1.95-3.34
						c-1.57-2.06-3.45-3.88-5.6-5.38c-2.6-1.93-5.54-3.39-8.7-4.95c-0.58-0.27-1.12-0.58-1.67-0.88c-3.25-1.96-7.74-4.78-12.03-6.99
						c-1.21-0.61-2.37-1.25-3.51-1.78c-2.8-1.4-5.53-2.56-8.21-3.35L59.74,132.58z"/>
				</g>
				<g>
					<path class="st9" d="M59.83,132.61c2.23,0.64,4.64,1.53,7.15,2.58c0.77,0.32,1.55,0.65,2.35,0.99c0.79,0.35,1.6,0.72,2.43,1.08
						c1.12,0.48,2.24,1.07,3.38,1.6c1.13,0.56,2.23,1.18,3.31,1.72c1.06,0.6,2.08,1.19,3.06,1.7c0.94,0.58,1.84,1.08,2.67,1.5
						c0.49,0.27,1.01,0.56,1.69,0.89c1.39,0.62,2.64,1.39,3.93,2.06c0.64,0.35,1.22,0.76,1.83,1.13c0.6,0.39,1.23,0.74,1.77,1.18
						c0.62,0.47,1.22,0.93,1.82,1.39c0.61,0.46,1.1,1.01,1.64,1.51c0.51,0.53,1.09,1.01,1.51,1.59c0.45,0.57,0.88,1.14,1.3,1.72
						c0.2,0.29,0.42,0.58,0.6,0.88l0.49,0.93c0.32,0.63,0.62,1.26,0.89,1.9c0.51,1.3,0.77,2.68,0.98,4.06l-0.12-0.01
						c-0.21-1.37-0.46-2.74-0.97-4.03c-0.27-0.64-0.57-1.26-0.88-1.88l-0.49-0.93c-0.18-0.3-0.4-0.58-0.6-0.87
						c-0.41-0.57-0.84-1.14-1.29-1.7c-0.42-0.58-0.99-1.05-1.5-1.58c-0.54-0.5-1.03-1.04-1.63-1.5c-0.59-0.45-1.19-0.91-1.8-1.38
						c-0.54-0.45-1.17-0.8-1.77-1.18c-0.61-0.37-1.2-0.78-1.83-1.13c-1.3-0.66-2.54-1.43-3.93-2.06c-0.68-0.33-1.21-0.63-1.7-0.9
						c-0.11-0.06-0.23-0.12-0.35-0.18c-3.2-1.82-7.75-4.43-12.07-6.35c-0.83-0.37-1.63-0.73-2.43-1.09
						c-0.8-0.33-1.58-0.66-2.35-0.98c-2.5-1.04-4.91-1.93-7.13-2.57L59.83,132.61z"/>
				</g>
				<g>
					<path class="st9" d="M59.93,132.64c1.4,0.41,2.96,0.88,4.6,1.44c2.28,0.75,4.84,1.69,7.5,2.71c1.16,0.43,2.34,0.97,3.52,1.45
						c1.16,0.54,2.33,1.07,3.45,1.59c1.1,0.56,2.17,1.1,3.15,1.61c0.97,0.54,1.87,1.03,2.69,1.42c0.6,0.35,1.21,0.65,1.73,0.91
						c1.09,0.5,2.1,1.1,3.12,1.67c1.04,0.54,1.97,1.21,2.92,1.84c2.87,2.01,5.4,4.31,7.12,7.02c1.82,2.64,2.78,5.65,2.92,8.68
						l-0.12-0.02c-0.14-3.01-1.09-5.99-2.9-8.61c-1.7-2.69-4.23-4.97-7.07-6.97c-0.95-0.63-1.87-1.3-2.91-1.84
						c-1.01-0.57-2.02-1.17-3.11-1.67c-0.52-0.26-1.13-0.56-1.73-0.91c-0.82-0.4-1.72-0.88-2.69-1.42c-0.99-0.5-2.05-1.05-3.15-1.61
						c-1.12-0.52-2.28-1.05-3.45-1.59c-1.18-0.48-2.36-1.01-3.52-1.45c-2.66-1.02-5.22-1.96-7.5-2.71
						c-1.64-0.56-3.19-1.03-4.59-1.43L59.93,132.64z"/>
				</g>
				<g>
					<path class="st9" d="M99.54,152.78c0.51,0.8,0.99,1.61,1.43,2.42c0.42,0.82,0.7,1.69,0.99,2.54c0.14,0.43,0.26,0.85,0.38,1.28
						c0.1,0.43,0.15,0.87,0.2,1.31c0.1,0.88,0.15,1.75,0.13,2.61l-0.12-0.03c0.01-0.82-0.03-1.66-0.12-2.49
						c-0.05-0.42-0.1-0.84-0.18-1.26c-0.11-0.41-0.22-0.81-0.35-1.22c-0.26-0.81-0.55-1.63-0.91-2.44
						c-0.41-0.78-0.86-1.55-1.34-2.32c-2.01-3.02-4.89-5.71-8.29-7.9c-0.67-0.39-1.34-0.79-2.03-1.19c-0.34-0.2-0.68-0.4-1.03-0.6
						l-1.07-0.53c-0.54-0.27-1.17-0.58-1.77-0.92c-2.96-1.53-7.81-3.9-13.2-5.62c-5.11-1.66-9.51-2.87-12.28-3.64l0.04-0.11
						c2.76,0.77,7.16,1.98,12.28,3.64c5.4,1.71,10.25,4.09,13.21,5.62c0.6,0.33,1.22,0.65,1.77,0.92l1.07,0.53
						c0.35,0.19,0.69,0.4,1.03,0.6c0.69,0.4,1.36,0.8,2.03,1.19C94.7,147.3,97.51,149.88,99.54,152.78z"/>
				</g>
				<g>
					<path class="st9" d="M98.57,150.22c3.07,3.86,4.67,8.46,4.12,12.67l-0.12-0.04c0.45-3.69-0.71-7.67-3.08-11.22
						c-2.37-3.57-6.02-6.5-9.95-8.72c-0.5-0.32-1.05-0.57-1.58-0.85c-0.6-0.3-1.21-0.61-1.81-0.93c-2.46-1.2-6.83-3.31-13.6-5.17
						c-5.19-1.4-9.63-2.37-12.46-3.14l0.04-0.11c2.83,0.78,7.26,1.74,12.46,3.14c6.77,1.86,11.15,3.97,13.62,5.18
						c0.6,0.32,1.21,0.63,1.81,0.93c0.54,0.27,1.08,0.52,1.59,0.85C93.07,144.7,96.21,147.26,98.57,150.22z"/>
				</g>
				<g>
					<path class="st9" d="M97.65,147.75c4.22,4.56,6.11,10.25,5.06,15.1l-0.12-0.06c0.78-3.81-0.22-8.09-2.74-12
						c-2.51-3.92-6.57-7.26-11.18-9.63L88.37,141c-0.5-0.26-1.03-0.52-1.53-0.78c-0.62-0.34-1.42-0.64-2.28-1.03
						c-0.44-0.19-0.9-0.39-1.38-0.6c-0.49-0.18-1-0.36-1.53-0.55c-2.69-1.02-5.79-1.83-8.8-2.55c-5.97-1.3-10.21-1.97-12.65-2.65
						l0.04-0.11c2.43,0.67,6.67,1.35,12.64,2.64c3.01,0.72,6.12,1.53,8.81,2.55c0.53,0.19,1.05,0.38,1.54,0.56
						c0.48,0.21,0.95,0.41,1.38,0.6c0.87,0.39,1.66,0.7,2.29,1.03c0.51,0.26,1.03,0.52,1.53,0.78l0.31,0.16
						c0.87,0.41,1.68,0.92,2.49,1.42c0.81,0.51,1.62,0.99,2.35,1.59c0.74,0.58,1.48,1.14,2.17,1.74
						C96.39,146.45,97.03,147.1,97.65,147.75z"/>
				</g>
				<g>
					<path class="st9" d="M96.75,145.39c0.77,0.8,1.48,1.58,2.13,2.34c0.6,0.82,1.14,1.63,1.65,2.43c0.17,0.28,0.35,0.56,0.52,0.84
						c0.14,0.29,0.28,0.58,0.41,0.87c0.26,0.58,0.5,1.15,0.72,1.71c0.47,1.1,0.68,2.24,0.85,3.31c0.41,2.11,0.13,4.15-0.3,5.91
						l-0.12-0.07c1.14-3.93,0.2-8.65-2.38-12.8c-2.56-4.18-6.71-7.52-10.83-9.67l-0.73-0.37c-0.39-0.19-0.77-0.39-1.16-0.58
						c-0.93-0.48-2.26-0.96-3.79-1.57c-1.56-0.5-3.34-1.12-5.28-1.56c-1.74-0.48-3.56-0.8-5.34-1.16c-3.3-0.56-5.96-0.95-8.07-1.26
						c-2.11-0.32-3.67-0.59-4.77-0.89l0.03-0.11c1.09,0.29,2.65,0.56,4.76,0.88c2.11,0.31,4.76,0.7,8.06,1.26
						c1.78,0.36,3.6,0.68,5.34,1.16c1.94,0.44,3.72,1.07,5.29,1.56c1.54,0.61,2.87,1.09,3.8,1.57c0.38,0.19,0.77,0.39,1.16,0.58
						l0.73,0.37c0.76,0.36,1.46,0.8,2.13,1.23c0.67,0.43,1.32,0.84,1.94,1.27C94.69,143.59,95.82,144.44,96.75,145.39z"/>
				</g>
				<g>
					<path class="st9" d="M96.05,143.34c0.91,0.75,1.68,1.61,2.41,2.46c0.36,0.42,0.72,0.84,1.05,1.26c0.32,0.43,0.6,0.89,0.88,1.32
						c0.54,0.89,1.09,1.73,1.47,2.62c0.38,0.89,0.71,1.76,0.98,2.61c0.3,0.83,0.42,1.7,0.53,2.52c0.11,0.82,0.17,1.61,0.18,2.37
						c-0.07,1.55-0.36,2.98-0.8,4.26l-0.11-0.08c0.27-0.79,0.48-1.64,0.62-2.53c0.07-0.45,0.12-0.91,0.16-1.38
						c0.01-0.46-0.01-0.93-0.05-1.42c-0.08-0.97-0.2-2-0.45-3.04c-0.3-1.02-0.68-2.09-1.15-3.18c-1.97-4.28-5.96-8.8-11.65-11.74
						c-0.55-0.27-1.11-0.55-1.64-0.82l-0.27-0.13c-0.92-0.48-2.32-0.93-3.97-1.52c-1.67-0.48-3.61-1.05-5.7-1.44
						c-1.69-0.39-3.44-0.61-5.15-0.89c-4.79-0.69-10.49-1.01-13.03-1.65l0.03-0.11c2.53,0.64,8.22,0.96,13,1.65
						c1.72,0.29,3.47,0.51,5.16,0.89c2.09,0.39,4.03,0.96,5.71,1.45c1.65,0.59,3.06,1.04,3.98,1.52l0.27,0.13
						c0.54,0.27,1.1,0.55,1.65,0.82C92.38,140.45,94.36,141.8,96.05,143.34z"/>
				</g>
				<g>
					<path class="st9" d="M95.7,141.62c3.01,2.4,5.71,6,7.12,9.84c0.33,0.98,0.65,1.93,0.83,2.91c0.15,0.99,0.23,1.97,0.25,2.92
						c0,0.48,0.01,0.94-0.05,1.41c-0.06,0.47-0.14,0.94-0.24,1.39c-0.2,0.91-0.47,1.78-0.83,2.61l-0.11-0.09
						c0.49-1.14,0.83-2.38,1.03-3.68c0.16-1.29,0.07-2.61-0.08-3.98c-0.06-0.69-0.24-1.35-0.44-2.02c-0.2-0.67-0.42-1.34-0.67-2.01
						c-0.23-0.69-0.57-1.31-0.91-1.94c-0.34-0.63-0.71-1.26-1.09-1.87c-0.78-1.21-1.74-2.29-2.66-3.35c-0.98-1-2.02-1.89-3.02-2.73
						c-1.05-0.77-2.09-1.45-3.07-2.06c-1-0.58-1.96-1.03-2.83-1.45c-0.86-0.45-2.25-0.85-3.92-1.39c-0.83-0.27-1.76-0.44-2.73-0.68
						c-0.48-0.11-0.98-0.22-1.49-0.34c-0.51-0.09-1.03-0.17-1.56-0.26c-7.29-1.34-15.88-1.17-18.76-1.91l0.03-0.11
						c0.13,0.03,0.28,0.07,0.43,0.1c3.21,0.63,11.35,0.54,18.3,1.81c0.53,0.09,1.05,0.18,1.56,0.26c0.51,0.11,1.01,0.23,1.49,0.34
						c0.97,0.24,1.9,0.41,2.74,0.68c1.67,0.53,3.07,0.94,3.94,1.39C90.95,138.31,93.37,139.65,95.7,141.62z"/>
				</g>
			</g>
		</g>
		<g class="st4">
			<path class="st14" d="M132.86,6.85c-0.01,0.02-0.01,0.04-0.01,0.05c-0.12,0.24-0.35,0.39-0.6,0.51c-0.21,0.2-0.47,0.31-0.76,0.24
				c-0.39-0.09-0.72-0.55-0.63-0.97c0-0.06-0.01-0.11,0.01-0.17c0.01-0.02,0.03-0.04,0.03-0.06c-0.01-0.2,0.03-0.41,0.17-0.6
				c0.48-0.61,1.56-0.38,1.84,0.16C133.07,6.33,133.02,6.61,132.86,6.85z"/>
			<path class="st14" d="M136.9,12.93c-0.49-0.52-0.93-1.53,0.16-1.78c0.92-0.22,2.1,0.48,2.64,1.38c0.05,0.03,0.1,0.06,0.13,0.13
				c0.21,0.37,0.54,0.92,0.38,1.39c-0.12,0.33-0.41,0.43-0.71,0.42c-0.35,0.2-0.82,0.16-1.2-0.08c-0.38-0.25-0.78-0.66-1.05-1.11
				C137.12,13.16,137,13.04,136.9,12.93z"/>
			<path class="st14" d="M134.71,14.92c0-0.2,0.18-0.38,0.37-0.39c0.02,0,0.04,0.01,0.06,0.01c0.04-0.04,0.09-0.08,0.14-0.11
				c0.14-0.09,0.32-0.07,0.43,0.03c0.19,0.16,0.36,0.36,0.49,0.58c0.1,0.05,0.19,0.14,0.2,0.29c0,0.04,0,0.08,0,0.12
				c0.12,0.31,0.16,0.64,0.09,0.98c-0.06,0.28-0.34,0.33-0.53,0.23l-0.03,0c-0.11,0.06-0.25,0.07-0.35,0.01
				c-0.05-0.03-0.09-0.08-0.14-0.12c-0.39-0.19-0.65-0.63-0.68-1.09C134.73,15.29,134.71,15.11,134.71,14.92z"/>
			<path class="st14" d="M138.7,7.24c0.28-0.32,0.74-0.3,1.09-0.22c0.7,0.16,1.44,0.67,1.74,1.32c0.19,0.41,0.05,0.83-0.24,1.07
				l-0.03,0.03c-0.21,0.16-0.49,0.24-0.79,0.17c-0.37-0.09-0.7-0.31-0.98-0.59c-0.31-0.18-0.57-0.41-0.75-0.67
				C138.54,8.05,138.41,7.58,138.7,7.24z"/>
			<path class="st15" d="M153.88,0.15c-0.86-0.84-1.86-1.7-3.09-2.23c-1.16-0.51-2.51-0.71-4.02-0.25
				c-1.56,0.52-3.02,1.83-4.33,3.02c-1.38,1.18-2.65,2.26-4.31,2.32c-0.18-1.61,0.78-3.11,1.37-4.74c0.41-1.15,0.58-2.36,0.56-3.52
				c0.01-2.14-0.63-4.64-3.07-4.97c-2.5-0.35-5.41,1.49-7.57,2.82c-1.15,0.68-2.59,1.43-3.91,2.33c-1.34,0.9-2.46,1.96-2.96,3.2
				c-0.11,0.27,0.1,0.44,0.33,0.45c0.79,0.02,1.49-0.3,2.28-0.4c0.63-0.07,1.24,0.04,1.76,0.31c0.41,0.21,1.08,0.72,1.35,1.25
				c-4.85-0.49-9.73,1.07-13.75,5.07c-2.03,2.02-3.6,4.38-4.64,7.02c-0.64,1.56-1.58,3.85-0.93,5.32c0.11,0.24,0.43,0.31,0.64,0.03
				c3.05-4.05,7.61-6.26,11.96-7.39c0.66-0.17,1.33-0.35,1.99-0.4c0.47-0.04,1.61-0.13,1.85,0.32c0.25,0.46-0.65,2.13-1.11,2.34
				c-0.84,0.39-1.99,0.45-2.86,0.69c-1.12,0.3-2.25,0.63-3.38,1.01c-2.17,0.74-4.2,1.75-6.28,2.92c-1.22,0.71-2.65,1.33-3.65,2.48
				c-0.87,1.02-0.93,2.03-0.69,3.12c0.35,1.59,0.64,3.62,1.5,4.92c0.13,0.2,0.44,0.12,0.6-0.09c3.09-4.16,7.3-7.56,11.57-9.57
				c0.71-0.32,1.46-0.62,2.21-0.7c1.77-0.17,2.66,1.37,1.2,2.8c-1.32,1.32-4.11,1.96-5.77,2.64c-3.04,1.24-7.56,2.96-9.32,6.61
				c-0.58,1.12-0.43,2.57,0.06,3.76c0.49,1.21,1.33,2.23,2.1,2.78c0.14,0.1,0.42,0.02,0.52-0.17c0.43-0.84,0.86-1.69,1.29-2.54
				c0.45-0.81,0.93-1.6,1.45-2.37c0.62-0.93,1.34-1.77,2.18-2.47c0.49-0.42,1.02-0.77,1.58-1.06c0.68-0.35,1.03-0.18,1.05,0.45
				c-0.98,0.45-1.99,1.41-2.87,2.41c-0.87,1.01-1.55,2.1-1.93,2.72c-0.79,1.27-1.67,2.89-1.43,4.35c0.31,1.71,2.49,2.9,2.11,4.73
				c-0.06,0.3,0.16,0.48,0.43,0.42c1.31-0.28,2.51-0.45,3.78-0.33c0.72,0.07,1.48,0.22,2.2,0c1.35-0.41,1.69-1.87,1.86-3.12
				c0.09-0.78,0-1.43-0.16-2.2c-0.06-0.27-0.33-0.93-0.21-1.17l1.43-0.71c0.18,0.28,0.32,0.59,0.42,0.91
				c0.36,1.08,0.54,2.4,0.43,3.65c-0.13,1.25-0.47,2.43-1.17,3.31c-0.16,0.19,0.05,0.53,0.29,0.52c3.09-0.12,5.07-1.08,4.98-4.43
				c-0.07-3.09-1.5-5.98-1.64-9.16c-0.03-0.51-0.09-1.95,0.35-2.37c1.09-1.03,1.76,1.3,1.99,1.92c0.53,1.49,1.04,3.1,1.35,4.66
				c0.2,1.05,0.28,2.09,0.23,3.12c-0.03,1.03-0.17,2.04-0.47,3.04c-0.37,1.19-0.69,2.33-0.56,3.55c0.02,0.16,0.24,0.32,0.41,0.28
				c1.55-0.4,3.15-0.82,4.52-1.59c1.32-0.77,2.38-1.87,2.73-3.68c0.6-2.89-0.79-5.93-1.89-8.62c-0.6-1.47-1.27-2.95-1.61-4.54
				c-0.1-0.47-0.19-0.94-0.18-1.42c-0.18-0.73,0.14-1.1,0.93-1.1c0.64-0.54,1.07-0.44,1.3,0.3c0.51,0.87,0.72,1.93,0.95,2.9
				c0.6,2.48,1.19,4.92,1.78,7.38c0.64,2.44,1.34,4.83,2.21,7.15c0.09,0.22,0.35,0.27,0.52,0.17c1.17-0.66,2.26-1.54,3.06-2.6
				c0.82-1.06,1.31-2.32,1.26-3.78c-0.12-3.75-2.17-7.26-3.93-10.54c-0.46-0.85-0.93-1.7-1.33-2.59c-0.22-0.48-1.15-2.31,0.16-2.17
				c1.12,0.13,2.62,2.97,3.26,3.82c1.48,2,2.78,4.17,3.52,6.53c0.65,2.06,0.81,4.25,1.57,6.27c0.09,0.23,0.42,0.35,0.58,0.14
				c1.63-2.13,4.05-4.09,4.39-6.93c0.4-3.31-2.23-6.68-4.4-9.07c-1.15-1.26-2.41-2.39-3.67-3.54c-0.26-0.24-1.38-1.12-1.31-1.5
				c0.22-1.12,2.05,0.16,2.53,0.44c1.92,1.11,3.48,2.61,4.69,4.46c1.34,2.03,1.94,4.43,2.84,6.63c0.09,0.21,0.39,0.4,0.57,0.19
				c0.4-0.48,0.77-1,1.1-1.54c0.33-0.51,0.61-1.05,0.83-1.63c0.45-1.18,0.62-2.36,0.39-3.7c-0.52-3.16-2.92-5.98-5.43-7.94
				c-1.06-0.82-2.18-1.36-3.33-2.03c-0.57-0.33-1.9-0.95-1-1.81c0.21-0.2,0.7-0.31,1.2-0.35c0.5-0.03,1.01,0,1.27,0.03
				c1.88,0.21,3.12,1.56,4.23,3.11c1.1,1.56,2.07,3.31,3.2,4.49c0.17,0.18,0.39,0.07,0.45-0.09c0.2-0.52,0.27-1.05,0.3-1.64
				c0.01-0.29,0.01-0.6-0.01-0.91c-0.03-0.3-0.13-0.54-0.2-0.84c-0.33-1.14-0.76-2.49-1.29-3.84
				C157.24,4.59,155.67,1.87,153.88,0.15z M138.74,8.35c-0.2-0.3-0.34-0.77-0.04-1.11c0.28-0.32,0.74-0.3,1.09-0.22
				c0.7,0.16,1.44,0.67,1.74,1.32c0.19,0.41,0.05,0.83-0.24,1.07l-0.03,0.03c-0.21,0.16-0.49,0.24-0.79,0.17
				c-0.37-0.09-0.7-0.31-0.98-0.59C139.18,8.84,138.92,8.62,138.74,8.35z M137.24,13.27c-0.12-0.11-0.24-0.22-0.34-0.34
				c-0.49-0.52-0.93-1.53,0.16-1.78c0.92-0.22,2.1,0.48,2.64,1.38c0.05,0.03,0.1,0.06,0.13,0.13c0.21,0.37,0.54,0.92,0.38,1.39
				c-0.12,0.33-0.41,0.43-0.71,0.42c-0.35,0.2-0.82,0.16-1.2-0.08C137.91,14.13,137.5,13.73,137.24,13.27z M134.76,15.47
				c-0.04-0.17-0.06-0.36-0.06-0.55c0-0.2,0.18-0.38,0.37-0.39c0.02,0,0.04,0.01,0.06,0.01c0.04-0.04,0.09-0.08,0.14-0.11
				c0.14-0.09,0.32-0.07,0.43,0.03c0.19,0.16,0.36,0.36,0.49,0.58c0.1,0.05,0.19,0.14,0.2,0.29c0,0.04,0,0.08,0,0.12
				c0.12,0.31,0.16,0.64,0.09,0.98c-0.06,0.28-0.34,0.33-0.53,0.23l-0.03,0c-0.11,0.06-0.25,0.07-0.35,0.01
				c-0.05-0.03-0.09-0.08-0.14-0.12C135.05,16.36,134.79,15.92,134.76,15.47z M132.91,6.02c0.16,0.31,0.11,0.59-0.05,0.83
				c-0.01,0.02-0.01,0.04-0.01,0.05c-0.12,0.24-0.35,0.39-0.6,0.51c-0.21,0.2-0.47,0.31-0.76,0.24c-0.39-0.09-0.72-0.55-0.63-0.97
				c0-0.06-0.01-0.11,0.01-0.17c0.01-0.02,0.03-0.04,0.03-0.06c-0.01-0.2,0.03-0.41,0.17-0.6C131.55,5.25,132.63,5.48,132.91,6.02z
				 M133.28,12.92c-2.1,4.05-4.43,8.21-6.8,12.06c-0.72,1.14-1.49,2.15-2.23,3.18c-0.75,1.02-1.48,2.06-2.05,3.28
				c-0.21,0.43-0.66,0.7-0.46,0.26c0.97-2.08,2.22-3.99,3.42-5.94c0.77-1.18,1.44-2.4,2.09-3.62c0.67-1.21,1.29-2.45,1.94-3.71
				c2.19-4.19,4.48-8.44,5.79-13.05c0.32-1.08,0.62-2.29,0.84-3.52c0.23-1.22,0.39-2.47,0.36-3.66c-0.08-2.37-0.79-4.49-3.17-5.47
				c-0.33-0.14-0.17-0.62,0.15-0.82c2.56-1.62,5.08-0.26,5.69,1.86c0.4,1.38,0.22,2.84-0.15,4.29c-0.36,1.45-0.83,2.92-1.16,4.3
				C136.71,6.24,135.04,9.48,133.28,12.92z"/>
		</g>
		<g class="st4">
			<path class="st16" d="M-7.75,11.33l1.24-0.02C-6.32,23.46-4,35.57,0.18,46.99c4.22,11.42,10.35,22.12,18.07,31.54l-0.44,0.03
				C10,69.22,3.75,58.56-0.62,47.15C-4.94,35.73-7.41,23.58-7.75,11.33z"/>
			<path class="st16" d="M21.19,80.59c-1.04-1.05-3.08-2.59-4.29-3.37c0.47,1.22,1.16,2.33,1.9,3.43c0.65,0.93,1.35,1.86,2.27,2.53
				c1.22,0.93,2.6,1.48,3.94,2C23.55,83.35,22.87,82.19,21.19,80.59z"/>
			<g>
				<g>
					<path class="st16" d="M-8.55,31.8c1.16-1.3,2.19-2.79,2.93-4.44c-1.35,0.4-2.65,0.96-3.87,1.72c-1.05,0.65-2.05,1.45-2.83,2.55
						c-0.52,0.74-0.96,1.62-1.28,2.54c-0.32,0.92-0.58,1.9-0.83,2.88C-12.38,35.41-10.37,33.83-8.55,31.8z"/>
					<path class="st16" d="M-7.51,37.42c1.2-1.76,2.22-3.7,2.9-5.78c-1.56,0.71-3.02,1.59-4.36,2.72c-1.15,0.96-2.23,2.1-3.01,3.57
						c-1.08,1.99-1.37,4.44-1.72,6.92C-11.52,42.46-9.34,40.15-7.51,37.42z"/>
					<path class="st16" d="M-6.19,43.62c1.17-2.22,2.15-4.64,2.71-7.15c-1.74,1.04-3.32,2.27-4.76,3.78
						c-1.23,1.3-2.35,2.79-3.08,4.64c-0.46,1.24-0.72,2.6-0.88,4.03c-0.08,0.71-0.13,1.44-0.18,2.18c-0.02,0.73-0.01,1.46-0.01,2.2
						C-10.28,50.16-7.92,47.06-6.19,43.62z"/>
					<path class="st16" d="M-3.9,51.26c0.53-1.36,0.96-2.74,1.36-4.17c0.41-1.44,0.72-2.9,0.91-4.37c-1.84,1.39-3.54,3.03-5.01,4.97
						c-1.29,1.67-2.33,3.53-2.91,5.76c-0.82,3.03-0.51,6.47-0.15,9.9c1.02-1.99,2.04-3.99,3.05-5.97c0.49-1,0.97-2,1.42-3.01
						C-4.76,53.36-4.31,52.32-3.9,51.26z"/>
					<path class="st16" d="M-1.01,58.99c0.43-1.59,0.84-3.25,1.1-4.9c0.25-1.64,0.48-3.34,0.57-5.02c-1.92,1.78-3.74,3.86-5.12,6.22
						c-1.19,2.02-2.24,4.31-2.62,6.92c-0.23,1.75-0.19,3.61,0,5.53c0.24,1.89,0.66,3.82,1.08,5.76c0.88-2.4,1.75-4.81,2.63-7.2
						C-2.5,63.9-1.65,61.47-1.01,58.99z"/>
				</g>
				<g>
					<path class="st16" d="M16.01,78.45c-0.25-1.43-0.67-2.86-1.32-4.19c-0.31,1.09-0.5,2.24-0.55,3.45c-0.04,1.03,0,2.13,0.33,3.2
						c0.46,1.43,1.34,2.8,2.22,4.13C16.55,82.82,16.43,80.66,16.01,78.45z"/>
					<path class="st16" d="M12.79,75.63c-0.12-1.79-0.38-3.66-0.98-5.39c-0.58,1.29-1.04,2.68-1.3,4.17
						c-0.23,1.27-0.36,2.64-0.08,4.01c0.17,0.93,0.49,1.86,0.87,2.78c0.19,0.46,0.4,0.92,0.62,1.38c0.24,0.44,0.49,0.89,0.73,1.33
						l0.08-2.05c0.04-0.69,0.07-1.39,0.11-2.08C12.9,78.39,12.91,77.01,12.79,75.63z"/>
					<path class="st16" d="M9.63,72.55c0.01-0.54,0.01-1.08-0.01-1.62c0-0.55-0.02-1.11-0.06-1.66c-0.08-1.11-0.23-2.21-0.48-3.29
						c-0.88,1.47-1.61,3.07-2.12,4.82c-0.22,0.75-0.41,1.53-0.52,2.33c-0.09,0.79-0.12,1.61-0.04,2.46c0.1,1.14,0.38,2.31,0.75,3.48
						c0.4,1.15,0.91,2.28,1.41,3.42c0.22-1.65,0.43-3.3,0.65-4.93C9.43,75.9,9.6,74.23,9.63,72.55z"/>
					<path class="st16" d="M6.27,68.65c0.07-0.63,0.12-1.26,0.15-1.9c0.05-0.64,0.08-1.3,0.09-1.95c0.02-1.3-0.05-2.6-0.22-3.88
						c-1.2,1.61-2.23,3.39-3.01,5.38c-0.34,0.85-0.63,1.74-0.85,2.67c-0.2,0.92-0.3,1.88-0.3,2.88c0.01,1.35,0.21,2.76,0.57,4.16
						c0.38,1.38,0.87,2.79,1.37,4.18c0.41-1.93,0.85-3.83,1.23-5.73C5.68,72.56,6.07,70.6,6.27,68.65z"/>
					<path class="st16" d="M2.51,64.03c0.24-1.42,0.51-2.91,0.64-4.39c0.15-1.49,0.14-2.95,0.14-4.47c-1.6,1.74-2.95,3.66-4.03,5.85
						c-0.91,1.87-1.72,3.98-1.85,6.27c-0.1,1.55,0.03,3.19,0.32,4.85c0.33,1.63,0.79,3.3,1.26,4.96c0.63-2.19,1.3-4.34,1.89-6.49
						C1.49,68.46,2.1,66.25,2.51,64.03z"/>
				</g>
			</g>
			<g>
				<g>
					<path class="st16" d="M-0.71,30.17c-1.53-0.67-3.03-1.63-4.33-2.92c1.41-0.07,2.83,0.01,4.25,0.25
						c1.21,0.21,2.42,0.53,3.53,1.13c0.75,0.41,1.41,0.93,2.09,1.5c0.68,0.57,1.32,1.18,1.95,1.78C4.28,31.59,1.68,31.21-0.71,30.17
						z"/>
					<path class="st16" d="M0.75,35.27c-1.82-0.86-3.62-2.07-5.15-3.67c1.69,0.01,3.43,0.18,5.13,0.54
						c1.46,0.31,2.91,0.74,4.22,1.48c1.74,1.02,3.33,2.51,4.77,3.96C6.73,37.13,3.65,36.6,0.75,35.27z"/>
					<path class="st16" d="M2.8,40.74c-2.17-1-4.26-2.43-6.05-4.32c1.99,0.06,4.04,0.28,6.03,0.71C4.5,37.49,6.19,38,7.73,38.86
						c1.07,0.57,2.05,1.29,2.96,2.06c0.46,0.39,0.9,0.79,1.33,1.2c0.45,0.4,0.9,0.81,1.35,1.21C9.78,42.91,6.28,42.27,2.8,40.74z"/>
					<path class="st16" d="M5.71,47.43c-1.26-0.54-2.56-1.18-3.75-1.98c-1.18-0.8-2.31-1.74-3.36-2.8c2.33,0.03,4.67,0.26,6.95,0.7
						c1.94,0.39,3.96,0.89,5.78,1.79c2.41,1.24,4.55,3.07,6.59,4.8c-2.06-0.15-4.07-0.38-6.14-0.76c-1.03-0.19-2.06-0.42-3.09-0.7
						C7.7,48.2,6.7,47.85,5.71,47.43z"/>
					<path class="st16" d="M9.12,54.09c-1.47-0.54-2.89-1.25-4.29-2.09C3.4,51.17,2.1,50.15,0.9,48.98c2.65-0.03,5.23,0.18,7.9,0.56
						c2.28,0.33,4.5,0.83,6.59,1.74c1.43,0.61,2.74,1.4,3.97,2.27c1.28,0.85,2.51,1.76,3.69,2.66c-2.28-0.05-4.62-0.16-6.98-0.45
						C13.75,55.45,11.44,54.92,9.12,54.09z"/>
				</g>
				<g>
					<path class="st16" d="M18.53,76.41c-1.28-0.55-2.56-1.3-3.69-2.26c1.15,0,2.32,0.09,3.47,0.3c0.99,0.18,1.97,0.45,2.91,0.91
						c1.29,0.6,2.4,1.57,3.48,2.51C22.69,77.57,20.56,77.24,18.53,76.41z"/>
					<path class="st16" d="M16.69,72.73c-1.64-0.57-3.24-1.46-4.7-2.61c1.44-0.08,2.89-0.04,4.33,0.14
						c1.24,0.16,2.46,0.43,3.68,0.91c0.81,0.33,1.57,0.78,2.29,1.29c0.36,0.25,0.72,0.52,1.06,0.79l1.08,0.78
						c-0.64-0.04-1.3-0.07-1.94-0.13c-0.64-0.07-1.28-0.15-1.92-0.25C19.29,73.45,17.99,73.16,16.69,72.73z"/>
					<path class="st16" d="M14.96,68.9c-0.5-0.16-1-0.34-1.5-0.53c-0.48-0.21-0.96-0.44-1.44-0.7c-0.95-0.51-1.87-1.11-2.75-1.8
						c1.73-0.13,3.48-0.12,5.21,0.06c0.75,0.08,1.49,0.19,2.22,0.35c0.75,0.15,1.5,0.35,2.22,0.63c0.97,0.38,1.87,0.9,2.74,1.48
						c0.89,0.56,1.76,1.17,2.61,1.77c-1.53-0.03-3.1-0.08-4.66-0.26C18.07,69.7,16.52,69.39,14.96,68.9z"/>
					<path class="st16" d="M12.92,64.52c-0.58-0.18-1.17-0.39-1.75-0.63c-0.57-0.25-1.12-0.52-1.67-0.83
						c-1.1-0.6-2.18-1.32-3.2-2.14c2.04-0.14,4.09-0.12,6.13,0.09c0.87,0.09,1.75,0.22,2.6,0.4c0.87,0.18,1.75,0.41,2.58,0.73
						c1.13,0.44,2.16,1.05,3.18,1.7c1.04,0.64,2.03,1.35,3.01,2.04c-1.78-0.01-3.59-0.06-5.43-0.25
						C16.53,65.46,14.74,65.09,12.92,64.52z"/>
					<path class="st16" d="M10.96,59.38c-1.35-0.43-2.61-1.03-3.87-1.75c-1.24-0.72-2.51-1.54-3.59-2.56
						c2.3-0.08,4.67-0.01,7.02,0.27c2.02,0.24,3.96,0.65,5.89,1.4c1.29,0.51,2.45,1.21,3.58,1.97c1.17,0.73,2.28,1.54,3.37,2.34
						c-2.03-0.02-4.1-0.09-6.2-0.31C15.08,60.5,13.04,60.06,10.96,59.38z"/>
				</g>
			</g>
		</g>
		<g class="st4">
			<path class="st9" d="M143.94,163.94l-0.99,0.75c-3.52-4.77-6.63-9.81-9.64-14.9c-2.99-5.1-5.87-10.26-8.69-15.45
				c-5.64-10.38-11.04-20.89-16.58-31.32l0.43,0.05c5.64,10.33,11.16,20.73,16.91,31c2.88,5.13,5.8,10.23,8.84,15.26
				C137.26,154.34,140.42,159.3,143.94,163.94z"/>
			<path class="st9" d="M105.65,100.47c0.8,1.21,2.37,3.13,3.44,4.05c-0.26-1.23-0.62-2.45-1.1-3.62c-0.41-1.01-0.91-2.01-1.58-2.86
				c-0.91-1.15-2.1-2-3.25-2.81C104.09,97.28,104.41,98.57,105.65,100.47z"/>
			<g>
				<g>
					<path class="st9" d="M136.22,146.34c-0.71,1.53-1.2,3.22-1.34,4.99c1.11-0.87,2.13-1.85,3.03-2.96
						c0.77-0.95,1.46-1.99,1.88-3.2c0.57-1.63,0.62-3.48,0.66-5.27C138.9,141.92,137.33,143.95,136.22,146.34z"/>
					<path class="st9" d="M133.8,141.64c-0.74,1.91-1.2,3.98-1.25,6.14c1.26-1.15,2.4-2.43,3.39-3.84c0.85-1.22,1.59-2.53,2.02-4.02
						c0.57-2.02,0.49-4.23,0.43-6.4C136.66,136.08,134.94,138.66,133.8,141.64z"/>
					<path class="st9" d="M131.33,136.33c-0.77,2.29-1.21,4.75-1.18,7.28c1.41-1.43,2.68-3,3.77-4.73c0.93-1.48,1.74-3.07,2.16-4.85
						c0.57-2.4,0.37-4.99,0.2-7.55C134.39,129.61,132.52,132.77,131.33,136.33z"/>
					<path class="st9" d="M128.18,129.68c-0.8,2.66-1.25,5.54-1.12,8.43c1.56-1.71,2.97-3.57,4.16-5.6c1.02-1.74,1.9-3.63,2.32-5.69
						c0.56-2.78,0.27-5.79-0.03-8.72C131.47,121.79,129.42,125.54,128.18,129.68z"/>
					<path class="st9" d="M124.98,122.8c-0.82,3.04-1.27,6.31-1.07,9.59c1.72-1.99,3.26-4.14,4.55-6.49
						c1.11-2.02,2.05-4.17,2.47-6.53c0.57-3.19,0.15-6.57-0.27-9.91C128.48,113.74,126.28,118.04,124.98,122.8z"/>
				</g>
				<g>
					<path class="st9" d="M110.19,103.49c-0.02,1.39,0.13,2.83,0.51,4.21c0.49-1.02,0.9-2.1,1.17-3.23c0.24-0.98,0.4-2,0.32-3.06
						c-0.1-1.43-0.62-2.85-1.14-4.24C110.65,99.25,110.24,101.32,110.19,103.49z"/>
					<path class="st9" d="M112.78,106.64c-0.19,1.72-0.16,3.53,0.18,5.29c0.74-1.21,1.38-2.5,1.86-3.88
						c0.42-1.18,0.74-2.43,0.76-3.76c0.04-1.78-0.47-3.61-0.96-5.39C113.85,101.43,113.08,103.95,112.78,106.64z"/>
					<path class="st9" d="M115.41,109.89c-0.35,2.05-0.45,4.22-0.16,6.37c0.99-1.39,1.86-2.9,2.55-4.52
						c0.59-1.39,1.07-2.87,1.2-4.45c0.17-2.14-0.3-4.35-0.79-6.54C117.1,103.72,115.96,106.69,115.41,109.89z"/>
					<path class="st9" d="M118.26,113.81c-0.52,2.38-0.73,4.92-0.48,7.44c1.24-1.59,2.34-3.31,3.23-5.17
						c0.77-1.6,1.41-3.3,1.63-5.14c0.3-2.49-0.15-5.1-0.61-7.67C120.56,106.67,119.06,110.09,118.26,113.81z"/>
					<path class="st9" d="M121.63,118.22c-0.67,2.71-1.01,5.62-0.78,8.51c1.48-1.78,2.8-3.72,3.9-5.82
						c0.94-1.81,1.73-3.74,2.06-5.83c0.44-2.84,0-5.84-0.44-8.8C124.54,110.12,122.69,113.98,121.63,118.22z"/>
				</g>
			</g>
			<g>
				<g>
					<path class="st9" d="M129.32,150.41c1.68,0.15,3.42,0.53,5.06,1.23c-1.28,0.58-2.63,1.03-4.04,1.29
						c-1.21,0.22-2.48,0.32-3.75,0.08c-1.72-0.33-3.38-1.26-5.02-2.19C124.12,150.51,126.69,150.18,129.32,150.41z"/>
					<path class="st9" d="M126.39,145.88c2.01,0.36,4.08,1,5.97,2.01c-1.61,0.53-3.29,0.9-5.02,1.05c-1.48,0.12-3.03,0.1-4.54-0.34
						c-2.04-0.58-3.96-1.86-5.82-3.12C120.09,145.4,123.24,145.32,126.39,145.88z"/>
					<path class="st9" d="M123.08,140.93c2.34,0.58,4.72,1.48,6.86,2.8c-1.94,0.48-3.95,0.77-6,0.79c-1.76,0.02-3.57-0.14-5.32-0.76
						c-2.36-0.83-4.52-2.45-6.6-4.05C115.7,139.88,119.41,140.03,123.08,140.93z"/>
					<path class="st9" d="M119.1,134.63c2.68,0.8,5.34,1.98,7.75,3.61c-2.27,0.43-4.6,0.63-6.98,0.52
						c-2.03-0.09-4.09-0.38-6.08-1.19c-2.68-1.09-5.04-3.04-7.36-4.97C110.66,133,114.9,133.39,119.1,134.63z"/>
					<path class="st9" d="M115.06,128.11c3.01,1.01,5.97,2.46,8.63,4.4c-2.6,0.37-5.26,0.48-7.94,0.25
						c-2.3-0.19-4.63-0.62-6.85-1.61c-2.98-1.33-5.59-3.63-8.12-5.87C105.56,125.91,110.38,126.53,115.06,128.11z"/>
				</g>
				<g>
					<path class="st9" d="M107.33,105.02c1.17,0.75,2.28,1.67,3.21,2.77c-1.12-0.16-2.24-0.43-3.34-0.83
						c-0.94-0.34-1.88-0.78-2.71-1.42c-1.12-0.87-2.02-2.06-2.88-3.23C103.55,103.07,105.51,103.85,107.33,105.02z"/>
					<path class="st9" d="M108.5,108.92c1.53,0.81,3.01,1.84,4.28,3.11c-1.41-0.06-2.84-0.26-4.25-0.63
						c-1.21-0.32-2.43-0.75-3.53-1.46c-1.49-0.96-2.72-2.37-3.91-3.75C103.58,106.92,106.11,107.66,108.5,108.92z"/>
					<path class="st9" d="M109.71,112.91c1.9,0.86,3.75,2,5.35,3.45c-1.71,0.04-3.45-0.09-5.17-0.43c-1.48-0.29-2.97-0.73-4.35-1.51
						c-1.86-1.05-3.42-2.68-4.95-4.27C103.65,110.85,106.75,111.57,109.71,112.91z"/>
					<path class="st9" d="M111.35,117.47c2.27,0.91,4.48,2.16,6.43,3.78c-2.01,0.14-4.05,0.09-6.09-0.22
						c-1.75-0.26-3.53-0.7-5.18-1.55c-2.23-1.14-4.14-3-5.99-4.8C104.15,115.35,107.81,116.04,111.35,117.47z"/>
					<path class="st9" d="M113.11,122.75c2.64,0.96,5.22,2.32,7.52,4.1c-2.3,0.25-4.66,0.28-7.02,0.01
						c-2.02-0.23-4.08-0.66-6.01-1.58c-2.6-1.24-4.86-3.31-7.05-5.33C104.76,120.58,109,121.24,113.11,122.75z"/>
				</g>
			</g>
		</g>
		<g class="st4">
			<g>
				<g>
					<path class="st9" d="M113.75,2.35c0.22-0.92,1.72-3.12,3.29-5.13c1.6-1.9,3.23-3.6,3.23-3.6s0.18,2.16,0.34,4.53
						c0.15,2.38,0.28,4.96,0.02,5.88c-0.57,1.78-2.32,2.94-4.19,2.47c-0.94-0.24-1.7-0.79-2.19-1.52
						C113.75,4.23,113.54,3.31,113.75,2.35z"/>
					<path class="st9" d="M114.08-16.52c0.86,0.58,2.28,2.78,3.45,4.86c1.18,2.07,2.11,4.01,2.11,4.01s-2.33-0.57-4.84-1.18
						c-2.53-0.54-5.41-1.16-6.3-1.69c-1.75-1-2.06-3.27-0.48-4.95C109.59-17.18,112.36-17.72,114.08-16.52z"/>
				</g>
				<g>
					<path class="st9" d="M103.55,6.22c0.05-0.44,0.32-1.25,0.77-2.15c0.46-0.89,1.06-1.92,1.68-2.91c0.61-1,1.24-1.94,1.74-2.58
						c0.5-0.66,0.83-1.08,0.83-1.08s0.31,1.88,0.68,4.09c0.17,1.07,0.34,2.19,0.45,3.15c0.12,0.97,0.18,1.78,0.11,2.22
						c-0.27,1.78-1.82,2.87-3.48,2.71C104.68,9.51,103.36,8.01,103.55,6.22z"/>
					<path class="st9" d="M102.04-9.98c0.87,0.37,2.52,2.2,3.9,3.91c1.39,1.71,2.53,3.34,2.53,3.34s-0.54-0.06-1.38-0.15
						c-0.85-0.11-1.98-0.2-3.17-0.27c-2.4-0.18-5.12-0.38-5.98-0.66c-1.76-0.65-2.39-2.58-1.26-4.39
						C97.85-9.93,100.32-10.74,102.04-9.98z"/>
				</g>
				<g>
					<path class="st9" d="M96.11,10.37c-0.03-0.84,0.84-2.8,1.73-4.7c0.43-0.96,0.93-1.81,1.31-2.43c0.38-0.63,0.63-1.04,0.63-1.04
						s0.39,1.65,0.86,3.58c0.22,0.94,0.44,1.91,0.61,2.75c0.17,0.84,0.3,1.57,0.27,1.96c-0.09,1.6-1.29,2.74-2.76,2.7
						C97.36,13.21,96.1,12,96.11,10.37z"/>
					<path class="st9" d="M92.95-3.25C93.78-3.04,95.52-1.7,97-0.42c1.49,1.29,2.73,2.53,2.73,2.53s-0.48,0.02-1.23,0.04
						c-0.75,0.02-1.79,0.05-2.84,0.16c-2.11,0.18-4.55,0.35-5.38,0.2c-1.63-0.3-2.53-1.89-1.78-3.54
						C89.27-2.63,91.31-3.67,92.95-3.25z"/>
				</g>
				<g>
					<path class="st9" d="M89.39,15.04c-0.03-0.67,0.49-2.47,1.06-4.16c0.29-0.84,0.66-1.57,0.92-2.15
						c0.27-0.57,0.44-0.94,0.44-0.94s0.42,1.38,0.91,2.99c0.47,1.57,0.98,3.24,1.03,3.93c0.05,1.37-0.82,2.46-2.02,2.54
						C90.53,17.34,89.44,16.4,89.39,15.04z"/>
					<path class="st9" d="M85.16,4.53c0.75,0.06,2.45,0.85,3.91,1.65c1.47,0.8,2.73,1.61,2.73,1.61s-1.63,0.35-3.39,0.73
						c-1.73,0.47-3.71,1-4.45,0.98c-1.47-0.03-2.45-1.12-2.11-2.52C82.19,5.6,83.71,4.45,85.16,4.53z"/>
				</g>
				<g>
					<path class="st9" d="M84.51,19.92c-0.04-0.29-0.01-0.84,0.06-1.51c0.1-0.65,0.3-1.39,0.48-2.11c0.38-1.44,0.81-2.78,0.81-2.78
						s0.47,1.16,1.01,2.51c0.53,1.31,1.1,2.72,1.16,3.28c0.07,0.57-0.1,1.08-0.35,1.5c-0.24,0.43-0.62,0.74-1.1,0.83
						C85.65,21.82,84.69,21.1,84.51,19.92z"/>
					<path class="st9" d="M79.82,11.76c0.63-0.06,2.16,0.32,3.51,0.75c1.35,0.43,2.51,0.9,2.51,0.9s-1.29,0.53-2.69,1.11
						c-0.72,0.29-1.49,0.6-2.16,0.84c-0.64,0.27-1.17,0.48-1.47,0.53c-1.21,0.19-2.2-0.56-2.15-1.74
						C77.37,12.93,78.56,11.88,79.82,11.76z"/>
				</g>
				<g>
					<path class="st9" d="M81.11,23.67c-0.08-0.45-0.03-1.78,0.24-2.9c0.23-1.15,0.5-2.2,0.5-2.2s0.4,0.9,0.86,1.94
						c0.44,1.02,0.93,2.11,1,2.55c0.13,0.9-0.24,1.78-0.97,1.94C82.03,25.17,81.28,24.61,81.11,23.67z"/>
					<path class="st9" d="M76.89,18.04c0.49-0.12,1.74-0.01,2.86,0.15c1.11,0.16,2.09,0.37,2.09,0.37s-0.96,0.54-2.01,1.12
						c-1.11,0.56-2.2,1.29-2.66,1.43c-0.93,0.27-1.78-0.17-1.87-1.04C75.19,19.2,75.88,18.24,76.89,18.04z"/>
				</g>
			</g>
			<g>
				<path class="st9" d="M131.31-8.57c-1,0.21-2.7,0.55-4.9,1.01c-1.09,0.25-2.3,0.57-3.62,0.9c-1.32,0.3-2.72,0.73-4.19,1.18
					c-5.89,1.78-12.84,4.57-19.01,8.3c-1.58,0.87-3.02,1.93-4.46,2.91c-1.48,0.94-2.74,2.1-4.03,3.11
					c-1.32,0.99-2.39,2.16-3.48,3.17c-0.53,0.53-1.09,1-1.54,1.53c-0.46,0.53-0.9,1.03-1.33,1.52c-1.77,1.89-2.94,3.68-3.82,4.88
					c-0.43,0.61-0.79,1.07-0.99,1.41c-0.2,0.34-0.31,0.52-0.31,0.52s0.1-0.19,0.28-0.54c0.18-0.35,0.53-0.83,0.93-1.46
					c0.82-1.24,1.92-3.09,3.61-5.08c0.41-0.51,0.83-1.04,1.27-1.59c0.44-0.56,0.97-1.05,1.48-1.61c1.05-1.07,2.09-2.31,3.37-3.37
					c1.26-1.09,2.49-2.32,3.94-3.34c1.41-1.07,2.83-2.21,4.4-3.16c6.1-4.07,13.08-7.23,19.02-9.28c1.49-0.52,2.89-1.01,4.23-1.37
					c1.33-0.38,2.56-0.75,3.67-1.04c2.23-0.52,3.96-0.93,4.98-1.14c2.06-0.34,4.03-0.69,5.83-0.86c1.81-0.15,3.43-0.3,4.81-0.31
					c2.75,0,4.45,0.18,4.47,0.54c0.02,0.35-1.63,0.82-4.29,1.27c-1.33,0.23-2.9,0.57-4.66,0.84C135.23-9.32,133.32-8.89,131.31-8.57
					z"/>
			</g>
			<path class="st9" d="M77.39,23.22c0.3-0.51,1.29-1.71,2.29-2.68c1.05-0.94,2.01-1.73,2.01-1.73s-0.41,1.16-0.87,2.45
				c-0.41,1.31-0.78,2.76-1.06,3.25c-0.55,0.99-1.54,1.53-2.21,1.2C76.88,25.38,76.8,24.28,77.39,23.22z"/>
		</g>
		<g class="st4">
			<path class="st17" d="M22.73,105.69c-3.91,1.53-7.68,3.42-11.24,5.64c-3.54,2.25-6.88,4.8-9.99,7.62
				c-3.11,2.8-5.95,5.9-8.49,9.22c-2.54,3.31-4.83,6.83-6.77,10.53c-0.15,0.26,0.38,0.53,0.53,0.28c1.92-3.67,4.19-7.15,6.71-10.44
				c2.52-3.29,5.33-6.36,8.42-9.14c3.07-2.79,6.39-5.32,9.9-7.55c3.53-2.2,7.27-4.08,11.15-5.6
				C23.22,106.14,23.01,105.58,22.73,105.69z"/>
			<path class="st17" d="M-11.48,135.68c-0.18-2.52-0.9-5.25-1.92-7.92c-0.53-1.35-1.16-2.7-1.9-4.01c-0.71-1.3-1.53-2.57-2.45-3.78
				c-0.32,1.41-0.36,2.91-0.21,4.37c0.16,1.47,0.48,2.86,1.07,4.25C-15.76,131.33-13.88,133.76-11.48,135.68z"/>
			<path class="st17" d="M-7.02,128.46c1.16-2.41,1.2-5.59,0.82-8.74c-0.35-3.09-1.2-6.19-2.03-7.88c-0.96,2.57-1.36,5.46-1.08,8.39
				C-9.09,123.1-8.23,125.98-7.02,128.46z"/>
			<g>
				<path class="st17" d="M-13.72,114.82c-0.4,1.34-0.6,2.77-0.59,4.23c0.03,1.49,0.25,3,0.63,4.48c0.74,2.94,2.26,5.84,3.99,8.21
					c-0.21-1.32-0.46-2.68-0.76-4.08c-0.27-1.38-0.56-2.76-0.9-4.19C-12.05,120.61-12.77,117.76-13.72,114.82z"/>
			</g>
			<g>
				<path class="st17" d="M-3.75,108.41c-0.34,0.58-0.62,1.17-0.85,1.77c-0.21,0.61-0.37,1.23-0.48,1.85
					c-0.22,1.24-0.26,2.49-0.14,3.76c0.28,2.58,1.16,5.2,2.3,7.87c0.25-2.59,0.38-5.08,0.34-7.51c-0.03-1.23-0.14-2.47-0.33-3.76
					C-3.1,111.1-3.36,109.8-3.75,108.41z"/>
			</g>
			<g>
				<path class="st17" d="M0.73,104.8c-0.72,1.16-1.22,2.33-1.51,3.55c-0.27,1.24-0.36,2.51-0.29,3.79c0.11,2.54,0.89,5.26,1.91,8
					C1.5,114.86,2.02,110.45,0.73,104.8z"/>
			</g>
			<g>
				<path class="st17" d="M5.79,102.81c-1.71,2.07-2.29,4-2.26,6.22c0.03,2.2,0.54,4.52,1.17,7.39c0.75-2.5,1.21-4.46,1.34-6.54
					C6.21,107.83,6.06,105.69,5.79,102.81z"/>
			</g>
			<path class="st17" d="M25.17,102.41c-0.9,0.33-2.04,0.98-3.05,1.73c-1.02,0.75-1.84,1.74-2.1,2.81c0.54,0.04,1.09,0,1.64-0.1
				c0.56-0.08,1.12-0.21,1.67-0.38c1.1-0.34,2.16-0.84,3.1-1.2c1.03-0.41,2.01-0.99,3-1.53c0.48-0.28,2.19-1.96,2.69-1.84
				c-1.15-0.28-2.35-0.37-3.53-0.31C27.41,101.66,26.27,101.99,25.17,102.41z"/>
			<path class="st17" d="M22.41,98.31c-3.35,2.86-6.29,6.76-6.81,11.27C18.58,106.83,20.98,103.01,22.41,98.31z"/>
			<path class="st17" d="M13.48,110.83c0.13-0.83,0.21-1.77,0.26-2.77c0.06-0.99,0.09-2.01,0.09-3.07c0-2.11-0.1-4.28-0.35-6.14
				c-0.73,1.65-1.08,3.76-1.07,5.88C12.44,106.88,12.85,109.07,13.48,110.83z"/>
			<path class="st17" d="M9.15,113.17c0.98-3.83,2.42-8.14,0.68-12.72c-1.17,1.87-1.79,4.16-1.84,6.46
				C7.94,109.22,8.4,111.45,9.15,113.17z"/>
			<path class="st17" d="M-11.88,135.37c2.58-0.73,5.31-0.8,8.13-0.19c2.8,0.59,5.54,1.76,8.12,3.35c-2.2,0.34-4.95,0.18-7.72-0.29
				C-6.16,137.74-9.15,136.83-11.88,135.37z"/>
			<path class="st17" d="M-6.8,128.29c1.81-1.13,4.84-1.47,7.65-1.19c2.89,0.33,5.56,1.24,7.11,2.3c-2.04,0.4-4.42,0.35-6.89,0.16
				c-1.24-0.11-2.56-0.3-3.87-0.51C-4.1,128.85-5.44,128.59-6.8,128.29z"/>
			<g>
				<path class="st17" d="M7.19,134.5c-0.98,0.23-2.18,0.23-3.45,0.16c-1.26-0.07-2.65-0.27-4.12-0.54
					c-2.93-0.55-6.03-1.31-8.93-2.12c1.33-0.26,2.65-0.44,3.97-0.53c1.34-0.07,2.71-0.02,4.07,0.15
					C1.43,131.94,4.27,132.88,7.19,134.5z"/>
			</g>
			<g>
				<path class="st17" d="M11.21,126.55c-0.5,0.1-1.02,0.16-1.54,0.18c-0.51,0.04-1.03,0.04-1.57,0.01
					c-1.07-0.07-2.19-0.27-3.37-0.57c-2.31-0.54-4.84-1.48-7.62-2.49c2.66-0.33,4.95-0.41,7.27,0.06c1.15,0.22,2.27,0.54,3.39,0.99
					C8.9,125.19,10.05,125.8,11.21,126.55z"/>
			</g>
			<g>
				<path class="st17" d="M15.24,125.32c-1.06-0.06-2.15-0.28-3.24-0.62c-1.08-0.31-2.18-0.76-3.31-1.3
					c-1.13-0.54-2.29-1.19-3.49-1.9c-1.19-0.69-2.41-1.45-3.68-2.24c0.68,0.07,1.33,0.15,1.97,0.25c0.65,0.11,1.28,0.25,1.89,0.39
					c1.22,0.3,2.37,0.67,3.47,1.14C11.08,122,13.16,123.39,15.24,125.32z"/>
			</g>
			<g>
				<path class="st17" d="M17.1,121.01c-1.99,0.36-3.94-0.03-6.01-0.73c-1.04-0.36-2.13-0.84-3.29-1.38
					c-1.15-0.53-2.37-1.1-3.67-1.71c2.56-0.22,4.77,0.01,6.79,0.54C12.99,118.34,14.96,119.37,17.1,121.01z"/>
			</g>
			<path class="st17" d="M27.46,112.5c-3.62-0.37-7.85-0.94-11.89-3C19.5,108.46,24,109.65,27.46,112.5z"/>
			<path class="st17" d="M13.38,110.66c0.78,0.3,1.54,0.55,2.27,0.81c0.74,0.27,1.47,0.57,2.18,0.94c1.42,0.74,2.77,1.79,4.12,3.69
				c-1.42-0.55-2.95-1.21-4.44-2.09C16.03,113.14,14.6,112.1,13.38,110.66z"/>
			<path class="st17" d="M9.37,113.51c1.96,0.27,3.78,0.34,5.57,0.92c1.77,0.55,3.43,1.46,5.04,3.38c-1.77-0.24-3.71-0.63-5.62-1.35
				C12.5,115.8,10.7,114.86,9.37,113.51z"/>
		</g>
		<g class="st4">
			<path class="st5" d="M49.98,9.63c-0.78,0.23-1.28,0.84-1.49,1.61c-0.13,0.47,0.31,1.01,0.77,1.07c0.53,0.06,0.91-0.26,1.05-0.74
				c0,0,0,0,0,0c-0.03,0.08-0.02,0.09,0.01,0c0.01-0.02,0.01-0.03,0.02-0.04c0.01-0.01,0.02-0.03,0.03-0.04c0,0,0,0,0,0
				c0.02-0.02,0.04-0.03,0.06-0.05c0.03-0.02,0.04-0.03,0.05-0.03c0.06-0.02,0.14-0.04,0.17-0.05c0.47-0.14,0.72-0.77,0.53-1.21
				C50.97,9.67,50.48,9.48,49.98,9.63z"/>
			<g>
				<polygon class="st5" points="54.34,11.6 54.34,11.59 54.34,11.59 				"/>
				<path class="st5" d="M54.63,9.74c-0.44-0.32-0.94-0.22-1.31,0.15c-0.34,0.34-0.6,0.75-0.81,1.19c-0.21,0.44,0.02,1.05,0.48,1.23
					c0.49,0.19,1-0.01,1.23-0.48c0.01-0.02,0.1-0.18,0.12-0.23c-0.02,0.04-0.09,0.13-0.01,0.02c0.01-0.01,0.01-0.02,0.02-0.02
					c0,0,0-0.01,0-0.01c0,0,0,0,0,0.01c0.03-0.04,0.05-0.07,0.08-0.11c0.11-0.15,0.23-0.3,0.37-0.43
					C55.13,10.7,55.01,10.02,54.63,9.74z"/>
			</g>
			<path class="st5" d="M49.58,15.5c-0.33,0.11-0.63,0.32-0.84,0.6c-0.26,0.34-0.33,0.72-0.34,1.13c0,0.22,0.18,0.5,0.35,0.63
				c0.18,0.14,0.45,0.23,0.67,0.2c0.24-0.04,0.49-0.14,0.63-0.35c0.11-0.15,0.16-0.3,0.18-0.47c0.01,0,0.01-0.01,0.02-0.01
				c0.46-0.16,0.73-0.76,0.53-1.21C50.58,15.55,50.08,15.32,49.58,15.5z"/>
			<path class="st5" d="M57.91,13.11c-0.44-0.32-0.95-0.23-1.31,0.15c-0.33,0.35-0.6,0.76-0.81,1.19c-0.22,0.44,0.02,1.05,0.48,1.23
				c0.49,0.19,1-0.01,1.23-0.48c0.04-0.07,0.07-0.15,0.12-0.22c0.03-0.04,0.07-0.1,0.08-0.12c0.11-0.16,0.23-0.3,0.37-0.44
				C58.39,14.06,58.29,13.38,57.91,13.11z"/>
			<path class="st5" d="M64.25,7.13c-0.3-0.37-0.91-0.53-1.3-0.19C62.76,7.1,62.6,7.27,62.51,7.5c-0.11,0.24-0.11,0.46-0.12,0.71
				c-0.01,0.22,0.18,0.5,0.35,0.63c0.18,0.14,0.45,0.23,0.67,0.2c0.24-0.04,0.49-0.14,0.63-0.35c0.04-0.07,0.08-0.14,0.12-0.2
				c0.03-0.08,0.06-0.16,0.07-0.24c0.09-0.12,0.16-0.26,0.19-0.42C64.46,7.6,64.4,7.31,64.25,7.13z"/>
			<path class="st5" d="M63.2,15.69c-0.44-0.32-0.95-0.23-1.31,0.15c-0.42,0.44-0.67,0.98-0.82,1.57c-0.12,0.47,0.31,1.01,0.77,1.07
				c0.53,0.06,0.93-0.26,1.06-0.76c0.02-0.04,0.03-0.08,0.04-0.12c0.04-0.09,0.08-0.17,0.12-0.26c0.03-0.04,0.05-0.07,0.08-0.11
				c0.06-0.08,0.13-0.16,0.2-0.24C63.68,16.64,63.58,15.97,63.2,15.69z"/>
			<path class="st5" d="M55.26,19.14c-0.4-0.29-0.99-0.26-1.31,0.15c-0.36,0.47-0.66,1-0.85,1.56c-0.15,0.46-0.02,1.03,0.48,1.23
				c0.43,0.17,1.06,0.02,1.23-0.48c0.07-0.23,0.17-0.45,0.28-0.66c0.03-0.05,0.05-0.09,0.08-0.14c0,0,0-0.01,0.01-0.01
				c0.07-0.11,0.15-0.23,0.24-0.34C55.7,20.06,55.67,19.44,55.26,19.14z"/>
			<path class="st5" d="M50.28,24.62c-0.43-0.17-1.07-0.02-1.23,0.48c-0.11,0.34-0.21,0.68-0.32,1.02
				c-0.08,0.24-0.11,0.46-0.02,0.71c0.08,0.21,0.28,0.43,0.49,0.51c0.43,0.17,1.07,0.02,1.23-0.48c0.11-0.34,0.21-0.68,0.32-1.02
				c0.08-0.24,0.11-0.46,0.02-0.71C50.69,24.92,50.49,24.71,50.28,24.62z"/>
			<path class="st5" d="M59.44,23.93c-0.42-0.3-0.97-0.25-1.31,0.15c-0.28,0.33-0.5,0.72-0.66,1.13c-0.17,0.46-0.01,1.04,0.48,1.23
				c0.45,0.17,1.05,0.01,1.23-0.48c0.06-0.15,0.15-0.29,0.2-0.44c0.01-0.02,0.02-0.03,0.03-0.05c0.05-0.08,0.11-0.15,0.17-0.22
				C59.91,24.87,59.84,24.22,59.44,23.93z"/>
			<path class="st5" d="M62.26,21.45c-0.46,0.2-0.72,0.72-0.53,1.21l0.12,0.31c0.18,0.45,0.74,0.73,1.21,0.53
				c0.46-0.2,0.72-0.72,0.53-1.21l-0.12-0.31C63.28,21.53,62.72,21.25,62.26,21.45z"/>
			<path class="st5" d="M68.68,11.13c-0.83,0.05-1.26,0.83-1.42,1.55c-0.1,0.48,0.29,1.01,0.77,1.07c0.53,0.06,0.95-0.26,1.07-0.77
				c0-0.02,0.01-0.03,0.01-0.05c0.37-0.15,0.65-0.56,0.59-0.96C69.62,11.44,69.2,11.1,68.68,11.13z"/>
			<path class="st5" d="M69.93,16.86c-0.76,0.29-1.18,0.93-1.7,1.51c-0.33,0.38-0.23,1.01,0.15,1.31c0.41,0.33,0.97,0.23,1.31-0.15
				c0.18-0.2,0.35-0.42,0.53-0.63c0.12-0.14,0.26-0.25,0.39-0.3c0.47-0.18,0.71-0.74,0.53-1.21C70.95,16.91,70.4,16.68,69.93,16.86z
				"/>
			<path class="st5" d="M60.25,28.5c-0.13-0.18-0.37-0.34-0.6-0.36c-0.24-0.03-0.51,0.01-0.7,0.17c-0.2,0.16-0.3,0.35-0.36,0.6
				c-0.05,0.19-0.09,0.39-0.13,0.59c-0.09,0.48,0.29,1.01,0.77,1.07c0.52,0.06,0.97-0.26,1.07-0.77c0.04-0.2,0.08-0.39,0.13-0.59
				C60.48,28.98,60.38,28.68,60.25,28.5z"/>
			<path class="st5" d="M53.71,28.19c-0.15-0.18-0.36-0.34-0.6-0.36c-0.27-0.03-0.47,0.04-0.7,0.17c-0.33,0.19-0.59,0.5-0.77,0.84
				c-0.19,0.36-0.23,0.74-0.23,1.14c0,0.23,0.18,0.5,0.35,0.63c0.18,0.14,0.45,0.23,0.67,0.2c0.55-0.08,0.82-0.5,0.83-1.02
				c0,0.25,0.01,0.01,0.03-0.08c0,0,0,0,0,0c0-0.01,0.01-0.02,0.02-0.03c0.02-0.03,0.05-0.07,0.07-0.09c0,0,0,0,0.01,0
				c0.05-0.03,0.09-0.06,0.14-0.09c0.19-0.11,0.33-0.4,0.36-0.6C53.92,28.66,53.85,28.37,53.71,28.19z"/>
			<path class="st5" d="M49.13,33.66c-0.53-0.06-0.95,0.26-1.07,0.77c-0.04,0.2-0.09,0.39-0.13,0.59c-0.1,0.48,0.29,1.01,0.77,1.07
				c0.53,0.06,0.95-0.26,1.07-0.77l0.13-0.59C50.01,34.25,49.61,33.71,49.13,33.66z"/>
		</g>
		<g class="st4">
			<path class="st18" d="M31.42,123.51c-0.45,1.35-0.13,2.91,0.7,4.07c0.83,1.17,2.11,1.96,3.48,2.37c1.52,0.45,3.4,0.34,4.4-0.89
				c0.6-0.73,0.77-1.73,0.7-2.67c-0.12-1.49-0.84-2.92-1.96-3.91C36.57,120.57,32.51,120.27,31.42,123.51z"/>
			<path class="st13" d="M33.89,133.87c-0.89,0.92-1.02,2.44-0.42,3.57s1.82,1.86,3.09,2.03c0.56,0.08,1.17,0.04,1.66-0.24
				c0.9-0.52,1.18-1.76,0.91-2.76C38.57,134.38,35.97,131.74,33.89,133.87z"/>
			<path class="st9" d="M42.28,133.22c-0.33,0.61-0.27,1.39,0.1,1.97c0.37,0.58,1.02,0.96,1.7,1.06c0.62,0.09,1.33-0.06,1.71-0.56
				c0.42-0.54,0.35-1.35-0.02-1.92C45.03,132.62,43.14,131.62,42.28,133.22z"/>
		</g>
	</g>
</g>
<g>
</g>
<g>
</g>
<g>
</g>
<g>
</g>
<g>
</g>
<g>
</g>
<g>
</g>
<g>
</g>
<g>
</g>
<g>
</g>
<g>
</g>
<g>
</g>
<g>
</g>
<g>
</g>
<g>
</g>
</svg>
