<?xml version="1.0" encoding="utf-8"?>
<!-- Generator: Adobe Illustrator 24.1.2, SVG Export Plug-In . SVG Version: 6.00 Build 0)  -->
<svg version="1.1" id="Layer_1" xmlns="http://www.w3.org/2000/svg" xmlns:xlink="http://www.w3.org/1999/xlink" x="0px" y="0px"
	 viewBox="0 0 145.92 145.92" style="enable-background:new 0 0 145.92 145.92;" xml:space="preserve">
<style type="text/css">
	.st0{fill:#F9D682;}
	.st1{fill:#025196;}
	.st2{clip-path:url(#SVGID_2_);}
	.st3{fill:#3FA09B;}
	.st4{fill:#6BC1BF;}
	.st5{fill:#49A5A0;}
	.st6{fill:#95D5D5;}
	.st7{opacity:0.61;}
	.st8{opacity:0.49;}
	.st9{fill:#FFFFFF;}
	.st10{opacity:0.55;}
	.st11{fill:none;stroke:#FFFFFF;stroke-width:0.1421;stroke-miterlimit:10;}
	.st12{fill:#D5ADB8;}
	.st13{clip-path:url(#SVGID_2_);fill:#D5ADB8;}
	.st14{fill:#96B6DF;}
</style>
<g>
	<rect class="st0" width="145.92" height="145.92"/>
	<path class="st1" d="M33.58,30.33c-5.38,6.42-7.51,15.82-4.11,23.48c1.93,4.34,5.57,8.46,4.76,13.14c-0.82,4.75-5.77,7.41-8.99,11
		c-7.34,8.17-5.02,21.97,2.73,29.75c6.32,6.35,14.85,9.88,23.53,8.67c9.15-1.28,18.11-0.69,26.65,3.13
		c4.22,1.89,8.25,4.46,12.83,5.08c5.32,0.72,10.75-1.37,14.92-4.75c4.17-3.38,7.2-7.96,9.7-12.71c7.28-13.86,10.43-30.07,7.68-45.48
		s-11.62-29.87-24.77-38.37C80.18,11.44,48.39,12.66,33.58,30.33z"/>
	<g>
		<defs>
			
				<rect id="SVGID_1_" x="0" y="0" transform="matrix(-1.836970e-16 1 -1 -1.836970e-16 145.9216 -4.815685e-05)" width="145.92" height="145.92"/>
		</defs>
		<clipPath id="SVGID_2_">
			<use xlink:href="#SVGID_1_"  style="overflow:visible;"/>
		</clipPath>
		<g class="st2">
			<path class="st3" d="M111.97,56.78c-0.73-1.56-1.43-3.13-2.11-4.74c0,0,2.58,2.11,4.36,3.56c1.05-0.6,2.21-1.14,3.32-1.76
				c-0.23-1.02-0.45-2.05-0.66-3.09c1.04,0.55,2.09,1.13,3.14,1.72c4.49-2.51,9.17-5.17,13.7-8.17c1.53-1.06,3.06-2,4.5-3
				l-4.15-7.51c0,0,0.98,0.96,2.24,2.2c1.25,1.25,2.78,2.83,3.87,3.98c0.79-0.53,1.56-1.06,2.3-1.6l-2.31-5.75
				c0,0,2.29,2.61,3.96,4.6c0.94-0.65,1.83-1.33,2.69-2c0.88-0.63,1.72-1.26,2.52-1.91c0.4-0.33,0.79-0.66,1.18-0.98
				c0.39-0.3,0.77-0.61,1.14-0.92c0.74-0.62,1.44-1.25,2.11-1.89c-0.19-1.51-0.36-3.05-0.52-4.55c0,0,0.99,1.53,2.01,3.11
				c1.06-1.05,1.98-2.12,2.77-3.19c0.8-1.02,1.47-2.05,1.97-3.09c1.01-2.06,1.39-4.12,0.94-6.06c-27.46,6.37-52.2,23.63-67.67,47.19
				c1.23,0.81,3.81,0.41,7.02-0.81c1.63-0.6,3.5-1.35,5.42-2.29c0.98-0.46,2.03-0.92,3.06-1.44
				C109.8,57.89,110.85,57.32,111.97,56.78z"/>
			<path class="st4" d="M140.15,8.61c-6.57,0.94-14.33,3.61-22.09,8.48c1.24,2.85,2.5,5.69,3.8,8.5c-2.55-1.97-5.16-3.9-7.84-5.78
				c-6.15,4.46-11.36,9.83-15.22,15.24l6.24,7.04l-0.74,0.72c-2.56-1.53-5.14-3.01-7.73-4.43c-0.56,0.94-1.1,1.87-1.59,2.78
				c-0.51,0.9-0.97,1.8-1.36,2.71l5.13,4.92l-0.5,0.58c-1.91-0.95-3.83-1.87-5.78-2.77c-0.8,1.96-1.26,3.91-1.61,5.63
				c-0.35,1.72-0.45,3.34-0.36,4.75c0.18,2.83,1.1,4.85,2.76,5.94c15.47-23.56,40.21-40.82,67.67-47.19
				c-0.54-2.36-2.24-4.28-5.09-5.66c-0.71-0.34-1.49-0.66-2.34-0.92c-0.84-0.24-1.75-0.44-2.72-0.6c-0.97-0.16-2.02-0.28-3.12-0.36
				c-1.1-0.07-2.24-0.03-3.45,0.02c-0.6,2.74-1.14,5.43-1.54,8.19L140.15,8.61z"/>
		</g>
		<g class="st2">
			<g>
				<g>
					<path class="st5" d="M-6.04-4.24c1.74,1.14,3.95,2.16,6.39,3.02c2.43,0.86,5.09,1.56,7.76,2.26c0.15,0.03,0.28,0.06,0.41,0.1
						c0.95,0.26,1.94,0.51,2.89,0.8c0.13,0.03,0.24,0.06,0.36,0.09c0.83,0.25,1.7,0.53,2.55,0.84c0.09,0.03,0.19,0.07,0.29,0.11
						c0.76,0.27,1.56,0.61,2.33,0.95c0.08,0.04,0.18,0.08,0.26,0.12c0.7,0.33,1.39,0.67,2.06,1.04c0.07,0.04,0.15,0.08,0.22,0.12
						c0.6,0.36,1.25,0.71,1.84,1.11c0.08,0.03,0.14,0.08,0.21,0.13c0.56,0.36,1.11,0.75,1.63,1.17c0.07,0.05,0.13,0.09,0.18,0.15
						c0.5,0.38,1,0.77,1.48,1.19c0.05,0.05,0.1,0.1,0.17,0.15c0.43,0.4,0.86,0.82,1.26,1.27c0.07,0.05,0.11,0.09,0.15,0.16
						c0.4,0.41,0.8,0.83,1.16,1.29c0.05,0.05,0.1,0.1,0.14,0.16c0.36,0.42,0.7,0.87,1.02,1.33c0.04,0.06,0.09,0.11,0.11,0.19
						c0.25,0.37,0.54,0.73,0.79,1.13c0.04,0.07,0.09,0.14,0.13,0.23c0.05,0.04,0.07,0.11,0.11,0.17c0.24,0.39,0.47,0.88,0.74,1.44
						c0.02,0.06,0.04,0.14,0.08,0.19c0.2,0.45,0.43,0.94,0.66,1.45c0.04,0.05,0.06,0.12,0.09,0.19c0.21,0.47,0.44,0.98,0.67,1.5
						l0.09,0.23c0.19,0.44,0.39,0.87,0.6,1.32l0.1,0.23c0.22,0.44,0.42,0.89,0.63,1.35c0.03,0.06,0.05,0.13,0.08,0.2l0.65,1.36
						c0.03,0.07,0.06,0.13,0.1,0.18l0.01,0.01c0.21,0.46,0.43,0.9,0.66,1.36c0.04,0.07,0.07,0.12,0.11,0.19
						c0.23,0.46,0.46,0.91,0.68,1.37c0.03,0.07,0.07,0.15,0.1,0.22c0.26,0.46,0.5,0.9,0.75,1.33c0.04,0.07,0.08,0.14,0.13,0.2
						c0.26,0.48,0.52,0.94,0.76,1.37c0.05,0.06,0.08,0.12,0.12,0.19c0.28,0.47,0.58,0.91,0.84,1.32c0.06,0.06,0.1,0.13,0.14,0.21
						c0.34,0.49,0.65,0.93,0.92,1.3l0.15,0.16c0.25,0.32,0.47,0.56,0.67,0.73c0.17,0.15,0.33,0.3,0.49,0.46l0.17,0.16
						c0.32,0.32,0.62,0.64,0.92,0.98c-1.27,0.78-2.54,1.43-3.78,1.95c-1.96,0.82-3.83,1.25-5.46,1.24c0.63,0.34,1.29,0.63,2,0.85
						c0.12,0.04,0.24,0.09,0.38,0.11c0.88,0.27,1.82,0.45,2.8,0.55c0.16,0.03,0.34,0.05,0.51,0.06c0.72,0.07,1.46,0.09,2.25,0.05
						c0.46-0.01,0.93-0.05,1.39-0.1l0.01,0.01c0.2-0.02,0.39-0.04,0.6-0.08c0.02-0.01,0.02-0.01,0.02-0.01
						c0.67-0.06,1.38-0.19,2.1-0.34c0.13,0.26,0.24,0.54,0.38,0.8c0.03,0.07,0.06,0.14,0.09,0.22c0.23,0.52,0.45,1.05,0.66,1.61
						c0.03,0.07,0.06,0.15,0.08,0.24c0.2,0.56,0.38,1.13,0.55,1.74c0.03,0.07,0.05,0.17,0.07,0.25c0.17,0.59,0.33,1.19,0.48,1.81
						c0.02,0.09,0.04,0.18,0.05,0.25c0.04,0.15,0.08,0.32,0.11,0.49c0.06,0.37,0.15,0.87,0.25,1.43c0,0.1,0.02,0.18,0.04,0.27
						c0.08,0.59,0.18,1.26,0.28,1.98c0.01,0.1,0.02,0.2,0.04,0.28c0.08,0.64,0.16,1.32,0.25,2.01c0.02,0.09,0.04,0.19,0.05,0.29
						c0.07,0.67,0.15,1.34,0.22,2.01c0.02,0.1,0.02,0.2,0.03,0.32c0.07,0.67,0.13,1.33,0.19,1.97c0.01,0.12,0.01,0.24,0.02,0.35
						c0.06,0.65,0.09,1.3,0.1,1.93l0.01,0.34c0.04,2.16-0.2,4.02-0.97,4.96c-0.99,1.19-2.19,1.67-3.27,1.96
						c-2.77,0.78-7.06,0.47-12.01-1.03c-4.96-1.47-10.56-4.14-15.78-7.8c-3.93-5.8-6.02-12.98-5.79-20.6
						c-1.11,2.06-2,4.14-2.66,6.21c-0.63,2.05-1.03,4.09-1.21,6.08c-1.13-1.26-2.27-2.49-3.26-3.8c-0.67-0.88-1.47-2.05-2.37-3.45
						c-0.86-1.43-1.8-3.11-2.75-4.97c-1.84-3.77-3.75-8.3-5.07-13.2c-0.36-1.21-0.64-2.46-0.92-3.71c-0.26-1.25-0.55-2.49-0.72-3.76
						c-0.38-2.53-0.66-4.96-0.75-7.62C-8.9,7.77-8.8,5.11-8.35,2.58C-7.91,0.06-7.13-2.31-6.04-4.24z"/>
				</g>
				<g>
					<path class="st5" d="M3.48,12.1l3.99,7.8c0.67,1.37,1.42,2.69,2.13,4.05c0.69,1.36,1.44,2.69,2.12,4.07
						c2.93,5.84,5.69,11.99,9.36,17.67c3.61,5.61,8.17,10.66,13.97,14.07c4.07,2.37,8.51,4.18,13.43,4.6
						c0.2-0.91,0.27-2.03,0.25-3.25l-0.01-0.34c-0.01-0.64-0.04-1.29-0.1-1.93c-0.01-0.11-0.01-0.23-0.02-0.35
						c-0.06-0.64-0.13-1.3-0.19-1.97c0-0.12-0.01-0.22-0.03-0.32c-0.07-0.66-0.14-1.34-0.22-2.01c-0.01-0.1-0.03-0.21-0.05-0.29
						c-0.09-0.69-0.17-1.36-0.25-2.01c-0.02-0.09-0.04-0.19-0.04-0.28c-0.1-0.72-0.2-1.39-0.29-1.98c-0.02-0.09-0.04-0.18-0.04-0.27
						c-0.1-0.57-0.19-1.07-0.25-1.43c-0.03-0.17-0.07-0.34-0.11-0.49c-0.02-0.08-0.03-0.17-0.05-0.25
						c-0.15-0.62-0.31-1.21-0.48-1.81c-0.02-0.09-0.04-0.18-0.07-0.25c-0.17-0.61-0.35-1.18-0.55-1.74
						c-0.02-0.09-0.05-0.16-0.08-0.24c-0.2-0.56-0.42-1.1-0.66-1.61c-0.03-0.08-0.06-0.15-0.09-0.22c-0.14-0.26-0.26-0.54-0.38-0.8
						c-0.71,0.15-1.42,0.27-2.1,0.34c0,0,0,0-0.02,0.01c-0.21,0.04-0.4,0.06-0.6,0.08l-0.01-0.01c-0.47,0.05-0.94,0.1-1.39,0.1
						c-0.78,0.05-1.53,0.02-2.25-0.05c-0.17-0.01-0.35-0.03-0.51-0.06c-0.98-0.11-1.92-0.28-2.8-0.55
						c-0.14-0.03-0.26-0.07-0.38-0.11c-0.71-0.22-1.38-0.51-2-0.85c1.63,0.01,3.49-0.42,5.46-1.24c1.24-0.52,2.51-1.17,3.78-1.95
						c-0.29-0.34-0.6-0.67-0.92-0.98l-0.17-0.16c-0.16-0.16-0.31-0.31-0.49-0.46c-0.2-0.17-0.42-0.42-0.67-0.73l-0.15-0.16
						c-0.27-0.37-0.59-0.81-0.92-1.31c-0.04-0.07-0.09-0.15-0.14-0.21c-0.26-0.41-0.56-0.84-0.84-1.32
						c-0.04-0.07-0.07-0.14-0.12-0.19c-0.24-0.44-0.5-0.9-0.76-1.37c-0.05-0.06-0.08-0.12-0.13-0.2c-0.24-0.43-0.49-0.87-0.75-1.33
						c-0.03-0.07-0.07-0.15-0.1-0.22c-0.23-0.45-0.45-0.91-0.68-1.37c-0.04-0.07-0.07-0.12-0.11-0.19c-0.23-0.45-0.45-0.9-0.66-1.36
						l-0.01-0.01c-0.04-0.05-0.07-0.11-0.1-0.18l-0.65-1.36c-0.03-0.07-0.05-0.13-0.08-0.2c-0.21-0.46-0.41-0.91-0.63-1.35
						l-0.1-0.23c-0.21-0.45-0.41-0.89-0.6-1.32L32.1,19.8c-0.23-0.52-0.46-1.02-0.67-1.5c-0.03-0.07-0.05-0.14-0.09-0.19
						c-0.23-0.51-0.46-1-0.66-1.45c-0.04-0.05-0.06-0.13-0.08-0.19c-0.27-0.55-0.5-1.05-0.74-1.44c-0.04-0.06-0.06-0.13-0.11-0.17
						c-0.04-0.09-0.09-0.16-0.13-0.23c-0.25-0.39-0.53-0.75-0.79-1.13c-0.02-0.07-0.07-0.12-0.11-0.19
						c-0.32-0.47-0.66-0.91-1.02-1.33c-0.04-0.06-0.09-0.11-0.14-0.16c-0.36-0.46-0.76-0.88-1.16-1.29
						c-0.04-0.06-0.08-0.11-0.15-0.16c-0.4-0.45-0.82-0.87-1.26-1.27c-0.07-0.05-0.12-0.09-0.17-0.15
						c-0.48-0.42-0.98-0.81-1.48-1.19c-0.05-0.06-0.11-0.1-0.18-0.15c-0.52-0.42-1.07-0.8-1.63-1.17c-0.07-0.05-0.13-0.09-0.21-0.13
						c-0.59-0.39-1.24-0.75-1.84-1.11c-0.07-0.04-0.15-0.08-0.22-0.12c-0.66-0.37-1.35-0.72-2.06-1.04
						c-0.08-0.05-0.18-0.08-0.26-0.12c-0.77-0.35-1.58-0.68-2.33-0.95c-0.1-0.04-0.2-0.07-0.29-0.11c-0.86-0.3-1.72-0.59-2.55-0.83
						C11.65,2,11.54,1.97,11.41,1.94c-0.95-0.29-1.94-0.54-2.89-0.8C8.39,1.1,8.26,1.07,8.12,1.04c-2.49-0.65-4.95-1.3-7.24-2.08
						C-1.41-1.81-3.5-2.73-5.25-3.75c1.52,3.17,3.09,5.82,4.56,8.38C0.78,7.19,2.19,9.62,3.48,12.1z"/>
				</g>
				<g>
					<path class="st6" d="M47.14,65.35c-8.17-1.51-15.22-6.02-20.74-11.81c-5.56-5.81-9.67-12.84-13.17-19.89
						c-3.6-7.01-7.11-13.83-11.08-20.49C0.15,9.84-2.1,6.62-4.28,2.8c-1.09-1.91-2.16-3.97-3.11-6.32
						c-0.94-2.33-1.69-5.06-2.12-7.89c-0.05-0.34,0.25-0.62,0.68-0.61c0.41,0,0.79,0.26,0.86,0.56c0.62,2.73,1.51,5.29,2.52,7.5
						c1.01,2.22,2.14,4.15,3.23,5.97c2.2,3.63,4.36,6.83,6.2,10.21c3.75,6.71,6.96,13.62,10.28,20.75
						c3.3,7.12,7.36,14.09,12.78,19.93c5.37,5.82,12.34,10.33,20.45,11.76c0.12,0.02,0.14,0.19,0.04,0.38
						C47.44,65.24,47.26,65.37,47.14,65.35L47.14,65.35z"/>
				</g>
			</g>
			<g class="st7">
				<g>
					<g>
						<path class="st6" d="M39.57,62.76c1.34,0.01,2.83-0.07,4.34-0.26c1.51-0.2,3.1-0.57,4.6-1.07l0-0.35
							c-3.32,1.13-6.88,1.35-9.68,1.26C39.08,62.46,39.32,62.61,39.57,62.76z"/>
					</g>
					<g>
						<path class="st6" d="M36.96,61.18c1.56,0.04,3.43-0.04,5.43-0.37c1.99-0.32,4.04-0.83,6.03-1.7c0-0.11-0.01-0.23-0.01-0.35
							c-4.18,1.74-9.08,2.18-12.27,1.98C36.42,60.86,36.7,61.02,36.96,61.18z"/>
					</g>
					<g>
						<path class="st6" d="M34.46,59.64c1.73,0.06,4.02-0.08,6.42-0.51c2.43-0.45,5.01-1.23,7.35-2.37c0-0.12-0.01-0.22-0.03-0.33
							c-2.5,1.19-5.31,2-7.85,2.39c-2.53,0.39-4.91,0.49-6.49,0.36C34.08,59.32,34.28,59.47,34.46,59.64z"/>
					</g>
					<g>
						<path class="st6" d="M32.39,58.11c1.8,0.08,4.37-0.06,7.18-0.67c1.4-0.29,2.83-0.67,4.26-1.17c1.44-0.51,2.85-1.13,4.17-1.86
							c-0.01-0.1-0.03-0.21-0.05-0.3c-1.38,0.75-2.85,1.38-4.34,1.9c-1.47,0.5-2.97,0.88-4.4,1.16c-2.89,0.59-5.46,0.65-7.14,0.53
							C32.18,57.82,32.29,57.96,32.39,58.11z"/>
					</g>
					<g>
						<path class="st6" d="M30.67,56.6c1.83,0.1,4.69-0.14,7.76-0.84c3.12-0.76,6.4-1.94,9.29-3.68c-0.02-0.09-0.03-0.19-0.04-0.29
							c-3.15,1.87-6.82,3.13-10.12,3.81c-3.27,0.65-6.21,0.78-7.67,0.51L30.67,56.6z"/>
					</g>
					<g>
						<path class="st6" d="M28.28,54.97c1.5,0.24,4.59,0.13,8.18-0.72c3.55-0.79,7.58-2.33,10.96-4.47
							c-0.02-0.09-0.04-0.18-0.04-0.28c-3.48,2.19-7.63,3.72-11.24,4.48c-3.65,0.82-6.68,0.84-7.94,0.54l-0.17,0.24L28.28,54.97z"/>
					</g>
					<g>
						<path class="st6" d="M26.91,53.03c1.2,0.34,4.48,0.15,8.24-0.72c3.84-0.94,8.15-2.57,11.82-5c0.02,0.09,0.03,0.18,0.05,0.26
							c-3.76,2.52-8.13,4.2-12,5.14c-3.81,0.88-7.1,1.05-8.36,0.69L26.91,53.03z"/>
					</g>
					<g>
						<path class="st6" d="M25.69,51.5c1.23,0.33,4.52,0.17,8.45-0.85c3.9-0.96,8.48-2.86,12.3-5.42c0.03,0.07,0.05,0.17,0.07,0.26
							c-1.85,1.24-3.89,2.35-5.99,3.27c-2.1,0.93-4.23,1.67-6.21,2.19c-1.99,0.53-3.86,0.87-5.41,1.02c-1.53,0.14-2.76,0.1-3.48-0.1
							L25.69,51.5z"/>
					</g>
					<g>
						<path class="st6" d="M24.46,49.97c1.3,0.33,4.7,0.09,8.74-1.02c2.03-0.56,4.21-1.32,6.35-2.27c2.15-0.95,4.31-2.14,6.27-3.45
							c0.03,0.07,0.06,0.15,0.08,0.24c-1.95,1.33-4.09,2.51-6.26,3.5c-2.15,0.97-4.34,1.75-6.39,2.33c-4.1,1.16-7.59,1.41-9.07,1.04
							L24.46,49.97z"/>
					</g>
					<g>
						<path class="st6" d="M23.29,48.4c1.42,0.43,4.97,0.06,9.07-1.13c4.11-1.18,8.81-3.27,12.73-5.88
							c0.03,0.07,0.05,0.14,0.09,0.22c-3.97,2.67-8.72,4.79-12.92,6.01c-4.17,1.21-7.8,1.59-9.24,1.15L23.29,48.4z"/>
					</g>
					<g>
						<path class="st6" d="M22.14,46.84c1.32,0.36,4.31,0.13,7.99-0.86c3.68-0.98,7.92-2.66,11.84-4.95l0.01,0.01
							c0.2-0.02,0.4-0.05,0.6-0.09c-2,1.2-4.12,2.28-6.22,3.17c-2.09,0.88-4.16,1.59-6.09,2.12c-3.87,1.08-7.03,1.32-8.42,0.95
							L22.14,46.84z"/>
					</g>
					<g>
						<path class="st6" d="M20.99,45.26c0.81,0.25,2.37,0.21,4.34-0.11c1.97-0.32,4.31-0.89,6.78-1.74
							c1.45-0.51,3.44-1.27,5.67-2.34c0.16,0.03,0.34,0.04,0.51,0.05c-3.67,1.82-7.51,3.21-10.66,3.92
							c-3.16,0.73-5.76,0.93-6.91,0.56L20.99,45.26z"/>
					</g>
					<g>
						<path class="st6" d="M19.88,43.66c0.99,0.28,3.02,0.2,5.64-0.34c2.63-0.55,5.8-1.52,9.04-2.9c0.12,0.04,0.25,0.08,0.38,0.11
							c-3.38,1.49-6.68,2.51-9.44,3.1c-2.75,0.59-4.88,0.67-5.9,0.37L19.88,43.66z"/>
					</g>
					<g>
						<path class="st6" d="M18.79,42.05c1.33,0.42,4.7,0.06,8.75-1.09c4.12-1.2,8.88-3.18,13.29-5.83L41,35.29
							c-4.49,2.73-9.33,4.75-13.54,5.98c-4.15,1.19-7.58,1.55-8.97,1.13L18.79,42.05z"/>
					</g>
					<g>
						<path class="st6" d="M17.75,40.42c0.65,0.21,1.79,0.24,3.25,0.08c1.48-0.18,3.3-0.54,5.3-1.1c3.99-1.1,8.77-3.07,13.22-5.62
							l0.15,0.16c-4.51,2.61-9.4,4.65-13.47,5.78c-2.04,0.58-3.9,0.95-5.42,1.13c-1.5,0.17-2.66,0.13-3.33-0.08L17.75,40.42z"/>
					</g>
					<g>
						<path class="st6" d="M16.71,38.79c1.28,0.4,4.46,0.11,8.46-1c4.03-1.13,8.75-2.99,13.29-5.53c0.06,0.06,0.1,0.13,0.14,0.21
							c-4.64,2.62-9.44,4.54-13.54,5.68c-4.08,1.13-7.31,1.41-8.66,0.99L16.71,38.79z"/>
					</g>
					<g>
						<path class="st6" d="M15.69,37.14c1.23,0.44,4.44,0.12,8.42-0.96c3.96-1.05,8.81-2.98,13.39-5.44
							c0.05,0.06,0.08,0.13,0.12,0.19c-4.53,2.48-9.37,4.46-13.41,5.57c-4.04,1.12-7.39,1.48-8.82,0.96L15.69,37.14z"/>
					</g>
					<g>
						<path class="st6" d="M14.71,35.48c1.4,0.47,4.57,0.2,8.59-0.92c4.01-1.1,8.74-2.95,13.32-5.39c0.04,0.07,0.08,0.14,0.12,0.2
							c-2.68,1.43-5.58,2.77-8.49,3.86c-3.18,1.19-6.16,2.02-8.6,2.46c-2.41,0.42-4.27,0.46-5.24,0.12L14.71,35.48z"/>
					</g>
					<g>
						<path class="st6" d="M13.76,33.81c1.37,0.5,4.61,0.18,8.59-0.88c4.01-1.07,8.82-2.94,13.44-5.32c0.03,0.07,0.07,0.15,0.1,0.22
							c-2.59,1.34-5.32,2.57-8.12,3.62c-1.66,0.62-3.26,1.16-4.77,1.59c-1.49,0.42-2.88,0.74-4.13,0.96
							c-2.5,0.44-4.45,0.5-5.43,0.14L13.76,33.81z"/>
					</g>
					<g>
						<path class="st6" d="M12.84,32.12c1.37,0.51,4.55,0.25,8.59-0.82c2.01-0.52,4.22-1.23,6.51-2.11c2.31-0.89,4.7-1.95,7.06-3.14
							c0.04,0.07,0.07,0.12,0.11,0.19c-2.4,1.22-4.83,2.3-7.18,3.21c-2.34,0.91-4.58,1.62-6.63,2.16c-2.05,0.53-3.9,0.88-5.41,1.02
							c-1.49,0.13-2.66,0.07-3.36-0.19L12.84,32.12z"/>
					</g>
					<g>
						<path class="st6" d="M11.92,30.43c1.39,0.51,4.58,0.26,8.61-0.75c4.06-1.03,8.92-2.82,13.71-5.17
							c0.03,0.07,0.06,0.13,0.1,0.18c-4.88,2.42-9.81,4.25-13.95,5.31c-4.11,1.04-7.36,1.29-8.79,0.77L11.92,30.43z"/>
					</g>
					<g>
						<path class="st6" d="M11.05,28.73c1.35,0.55,4.58,0.3,8.63-0.69c4.03-0.97,8.97-2.77,13.84-5.1c0.03,0.06,0.05,0.13,0.08,0.2
							c-4.94,2.39-9.97,4.22-14.08,5.21c-4.12,1.01-7.41,1.26-8.79,0.69L11.05,28.73z"/>
					</g>
					<g>
						<path class="st6" d="M10.2,27.01c1.35,0.52,4.5,0.33,8.6-0.65c4.11-0.99,9.02-2.69,13.99-5l0.1,0.23
							c-5.06,2.39-10.04,4.12-14.22,5.12c-4.18,1-7.38,1.17-8.8,0.62L10.2,27.01z"/>
					</g>
					<g>
						<path class="st6" d="M9.37,25.29c1.31,0.57,4.55,0.35,8.62-0.58c4.07-0.92,9.12-2.66,14.11-4.91l0.09,0.23
							c-5.08,2.32-10.18,4.08-14.34,5.02c-4.14,0.94-7.44,1.14-8.83,0.55L9.37,25.29z"/>
					</g>
				</g>
				<g>
					<g>
						<path class="st6" d="M-3.65,2.35c3.78,0.55,8-0.05,12.17-1.21C8.39,1.1,8.26,1.07,8.12,1.04C4.11,2.09,0.08,2.62-3.53,2.06
							L-3.7,2.28L-3.65,2.35z"/>
					</g>
					<g>
						<path class="st6" d="M-2.44,4.33c4.45,0.4,9.4-0.62,14.21-2.3C11.65,2,11.54,1.97,11.41,1.94C6.63,3.55,1.73,4.51-2.61,4.02
							L-2.44,4.33z"/>
					</g>
					<g>
						<path class="st6" d="M-1.61,6.06l0.06,0.13C3.48,6.5,9.15,5.12,14.61,2.97c-0.1-0.04-0.2-0.07-0.29-0.11
							C8.88,4.97,3.24,6.29-1.69,5.89L-1.61,6.06z"/>
					</g>
					<g>
						<path class="st6" d="M-0.62,7.99C4.85,8.21,11.2,6.59,17.2,4.05c-0.08-0.05-0.18-0.08-0.26-0.12
							C10.93,6.43,4.61,8.01-0.79,7.68L-0.62,7.99z"/>
					</g>
					<g>
						<path class="st6" d="M0.35,9.72C6.23,9.89,13.04,8.1,19.48,5.22c-0.07-0.04-0.15-0.08-0.22-0.12
							C12.81,7.94,5.99,9.69,0.17,9.42L0.35,9.72z"/>
					</g>
					<g>
						<path class="st6" d="M1.36,11.37l0.02,0.03C7.5,11.6,14.73,9.62,21.53,6.45c-0.07-0.05-0.13-0.09-0.21-0.13
							c-3.41,1.56-6.91,2.84-10.35,3.68c-3.41,0.84-6.73,1.23-9.78,1.1L1.36,11.37z"/>
					</g>
					<g>
						<path class="st6" d="M2.31,13.08c6.39,0.21,13.94-1.92,21.04-5.32c-0.05-0.06-0.11-0.1-0.18-0.15
							C16.05,11,8.46,13.09,2.14,12.78L2.31,13.08z"/>
					</g>
					<g>
						<path class="st6" d="M3.22,14.73c3.29,0.11,6.87-0.38,10.56-1.36c3.71-0.99,7.5-2.47,11.21-4.27
							c-0.07-0.05-0.12-0.09-0.17-0.15c-3.7,1.79-7.52,3.26-11.22,4.22c-3.69,0.96-7.27,1.41-10.54,1.25L3.22,14.73z"/>
					</g>
					<g>
						<path class="st6" d="M4.1,16.37c3.32,0.14,7.04-0.38,10.83-1.4c3.79-1.02,7.67-2.56,11.46-4.44
							c-0.04-0.06-0.08-0.11-0.15-0.16c-3.81,1.88-7.71,3.4-11.51,4.4c-1.9,0.5-3.77,0.87-5.59,1.09c-1.81,0.22-3.55,0.28-5.21,0.19
							L4.1,16.37z"/>
					</g>
					<g>
						<path class="st6" d="M4.95,17.99c3.41,0.14,7.15-0.36,11-1.41c3.86-1.05,7.85-2.65,11.74-4.6c-0.04-0.06-0.09-0.11-0.14-0.16
							c-7.77,3.89-15.86,6.22-22.64,5.87l-0.07,0.09L4.95,17.99z"/>
					</g>
					<g>
						<path class="st6" d="M5.86,19.58c3.42,0.16,7.19-0.33,11.11-1.41c3.91-1.07,7.92-2.68,11.85-4.67
							c-0.02-0.07-0.07-0.12-0.11-0.19c-7.77,3.93-15.98,6.33-22.72,5.96L5.82,19.5L5.86,19.58z"/>
					</g>
					<g>
						<path class="st6" d="M7.09,20.85c6.76,0.33,14.83-2.01,22.66-6c0.05,0.04,0.07,0.11,0.11,0.17c-7.93,4.07-16.15,6.47-23,6.13
							L7.09,20.85z"/>
					</g>
					<g>
						<path class="st6" d="M8.2,22.41c6.67,0.32,14.68-2.01,22.4-5.94c0.02,0.06,0.04,0.14,0.08,0.19
							c-7.82,4.01-15.95,6.38-22.72,6.07L8.2,22.41z"/>
					</g>
					<g>
						<path class="st6" d="M9.33,23.96c3.26,0.14,6.9-0.37,10.62-1.38c3.72-1,7.56-2.54,11.39-4.47c0.04,0.05,0.06,0.12,0.09,0.19
							c-3.88,1.97-7.8,3.55-11.56,4.57c-3.77,1.03-7.47,1.55-10.77,1.4L9.33,23.96z"/>
					</g>
				</g>
			</g>
		</g>
		<g class="st2">
			<path class="st4" d="M30.46,10.4c0.79,1.29,1.75,2.62,2.87,4.07l0.9,1.14c0.32,0.41,0.66,0.81,1.01,1.22
				c0.7,0.82,1.44,1.65,2.25,2.47c3.19,3.3,7.31,6.48,11.78,8.16c2.28,0.86,4.69,1.37,7.02,1.49c2.33,0.11,4.58-0.24,6.47-0.98
				c-1.85-1.79-3.17-3.72-4.2-5.64c-0.52-0.96-1-1.91-1.45-2.88c-0.22-0.48-0.45-0.95-0.66-1.43l-0.31-0.7l-0.35-0.75
				c-1.35-2.77-3-6.17-5.51-10.23c-1.31-2.12-2.95-4.37-4.89-6.45c-1.96-2.09-4.29-4.01-6.75-5.46c-2.46-1.48-5.06-2.46-7.56-3.17
				c-2.24-0.55-4.49-1.11-6.71-1.66c-4.57-1.16-9.28-2.17-13.81-3c2.98,1.07,5.43,2.84,7.42,4.91c2,2.06,3.59,4.4,5.21,6.74
				c0.81,1.17,1.63,2.35,2.51,3.52c0.69,1.08,1.32,2.12,1.87,3.12C28.64,6.92,29.36,8.62,30.46,10.4z"/>
			<g class="st8">
				<g>
					<path class="st9" d="M10.62-13.57c2.75,0.83,4.88,2.16,6.62,3.73c1.75,1.56,3.13,3.37,4.55,5.32c0.49,0.69,1,1.4,1.52,2.13
						c0.51,0.7,1.03,1.42,1.56,2.13c0.52,0.71,1.16,1.46,1.56,2.11c0.9,1.33,1.66,2.64,2.3,3.87c1.28,2.45,2.11,4.5,3.85,6.68
						c1.73,2.14,3.85,4.82,6.27,7.11c2.4,2.31,5.14,4.37,8.03,5.88c2.64,1.4,5.33,2.28,8,2.74c2.67,0.45,5.33,0.47,7.85-0.13
						l0.05,0.14c-2.54,0.61-5.21,0.6-7.89,0.15c-2.68-0.46-5.37-1.32-8.03-2.73c-2.92-1.52-5.67-3.59-8.09-5.92
						c-2.43-2.3-4.57-5-6.3-7.15c-1.76-2.2-2.58-4.24-3.86-6.69c-0.64-1.22-1.41-2.53-2.31-3.87c-0.4-0.65-1.06-1.41-1.57-2.12
						c-0.53-0.72-1.05-1.44-1.56-2.14c-0.52-0.73-1.03-1.44-1.52-2.13c-1.4-1.94-2.78-3.73-4.52-5.28
						c-1.73-1.55-3.84-2.87-6.56-3.69L10.62-13.57z"/>
				</g>
				<g>
					<path class="st9" d="M10.75-13.53c2.59,0.78,4.68,2.01,6.45,3.47c1.78,1.46,3.25,3.15,4.76,4.98c0.58,0.71,1.17,1.44,1.78,2.19
						c1,1.21,2.01,2.43,3,3.63c0.89,1.14,1.68,2.26,2.35,3.35c1.36,2.18,2.26,4.11,3.52,6.02c0.36,0.54,0.76,1.1,1.19,1.66
						c1.7,2.15,3.68,4.72,5.91,6.96c2.22,2.25,4.7,4.27,7.35,5.83c2.55,1.52,5.21,2.53,7.83,3.12c2.63,0.58,5.25,0.72,7.8,0.27
						l0.03,0.14c-2.57,0.46-5.2,0.31-7.84-0.26c-2.64-0.58-5.3-1.59-7.86-3.11c-2.67-1.56-5.17-3.6-7.4-5.86
						c-2.24-2.24-4.23-4.83-5.93-6.99c-0.43-0.56-0.83-1.12-1.2-1.67c-1.26-1.91-2.16-3.83-3.52-6.01
						c-0.67-1.09-1.46-2.21-2.35-3.35c-1-1.21-2.02-2.44-3.02-3.65c-0.61-0.75-1.2-1.48-1.78-2.19c-1.5-1.83-2.97-3.5-4.73-4.95
						c-1.76-1.45-3.83-2.67-6.39-3.44L10.75-13.53z"/>
				</g>
				<g>
					<path class="st9" d="M10.88-13.49c2.43,0.73,4.46,1.86,6.25,3.21c1.8,1.35,3.35,2.91,4.94,4.63c0.68,0.74,1.38,1.5,2.1,2.29
						c0.85,0.91,1.8,1.95,2.81,3.03c0.94,1.03,1.83,2.15,2.64,3.26c1.64,2.24,2.79,4.45,4.16,6.51c0.38,0.56,0.79,1.14,1.24,1.72
						c1.66,2.13,3.48,4.57,5.5,6.72c2.02,2.17,4.24,4.13,6.62,5.72c2.48,1.67,5.11,2.85,7.71,3.58c2.62,0.73,5.22,1.01,7.81,0.72
						l0.02,0.14c-2.61,0.29-5.23,0-7.85-0.72c-2.61-0.73-5.25-1.91-7.73-3.58c-2.4-1.59-4.63-3.57-6.66-5.75
						c-2.03-2.16-3.86-4.61-5.52-6.75c-0.46-0.59-0.87-1.17-1.25-1.73c-1.37-2.06-2.52-4.27-4.16-6.51
						c-0.81-1.11-1.71-2.23-2.64-3.26c-1.01-1.09-1.97-2.13-2.83-3.05c-0.72-0.78-1.42-1.55-2.1-2.28c-1.58-1.71-3.13-3.26-4.92-4.6
						c-1.78-1.34-3.8-2.45-6.2-3.18L10.88-13.49z"/>
				</g>
				<g>
					<path class="st9" d="M11.01-13.45c4.52,1.38,7.79,4.03,11.07,7.16c0.81,0.79,1.65,1.6,2.51,2.43c0.95,0.92,1.99,1.93,3.07,2.98
						c1.01,1.01,1.99,2.09,2.86,3.19c1.76,2.19,3.05,4.42,4.42,6.46c0.39,0.57,0.82,1.16,1.29,1.78c1.58,2.07,3.23,4.34,5.04,6.39
						c1.8,2.05,3.75,3.95,5.84,5.53c2.41,1.86,5.03,3.24,7.62,4.14c2.61,0.91,5.21,1.37,7.87,1.25L62.61,28
						c-2.69,0.12-5.3-0.34-7.91-1.25c-2.6-0.9-5.23-2.27-7.64-4.13c-2.1-1.6-4.06-3.5-5.87-5.56c-1.81-2.05-3.47-4.33-5.05-6.41
						c-0.48-0.62-0.91-1.23-1.3-1.8c-1.38-2.04-2.66-4.27-4.42-6.46c-0.87-1.09-1.85-2.17-2.86-3.18c-1.08-1.05-2.13-2.06-3.08-2.98
						c-0.86-0.83-1.7-1.65-2.51-2.43c-3.27-3.12-6.52-5.75-11-7.11L11.01-13.45z"/>
				</g>
				<g>
					<path class="st9" d="M11.14-13.4c4.13,1.24,7.58,3.69,10.8,6.41c1,0.86,2.03,1.74,3.09,2.66c1.19,1.04,2.48,2.1,3.6,3.11
						c1.13,1.03,2.16,2.09,3.07,3.16c1.83,2.13,3.16,4.26,4.44,6.19c0.42,0.64,0.89,1.25,1.34,1.84c1.47,1.96,2.94,4.03,4.52,5.94
						c1.57,1.91,3.24,3.69,5.02,5.24c2.37,2.1,4.96,3.72,7.57,4.83c2.63,1.1,5.23,1.77,7.99,1.85l-0.01,0.14
						c-2.78-0.07-5.39-0.75-8.03-1.85c-2.62-1.11-5.21-2.73-7.59-4.83c-1.79-1.56-3.47-3.35-5.04-5.27
						c-1.58-1.91-3.06-3.99-4.53-5.95c-0.45-0.59-0.92-1.21-1.35-1.86c-1.28-1.93-2.6-4.06-4.43-6.18
						c-0.91-1.06-1.94-2.12-3.07-3.15c-1.12-1.01-2.42-2.07-3.61-3.12c-1.06-0.91-2.09-1.8-3.09-2.66
						c-3.21-2.71-6.64-5.14-10.74-6.37L11.14-13.4z"/>
				</g>
				<g>
					<path class="st9" d="M11.26-13.36c3.64,1.1,7.03,3.14,10.22,5.51c1.3,0.96,2.61,1.98,3.97,3.03c1.19,0.93,2.47,1.88,3.67,2.84
						c1.2,0.98,2.33,2.02,3.34,3.08c2.03,2.13,3.54,4.41,4.86,6.37c0.42,0.64,0.9,1.25,1.38,1.9c1.32,1.79,2.6,3.63,3.94,5.35
						c1.33,1.73,2.72,3.35,4.17,4.82c2.37,2.4,4.92,4.33,7.56,5.67c1.32,0.68,2.65,1.25,3.99,1.67c1.35,0.44,2.71,0.74,4.16,0.89
						l-0.03,0.14c-1.46-0.15-2.83-0.45-4.18-0.89c-1.35-0.43-2.69-0.99-4.01-1.68c-2.65-1.35-5.21-3.28-7.58-5.68
						c-1.46-1.48-2.85-3.11-4.19-4.84c-1.34-1.73-2.62-3.57-3.94-5.36c-0.49-0.65-0.96-1.27-1.39-1.91
						c-1.32-1.97-2.82-4.23-4.85-6.36c-1.01-1.07-2.13-2.1-3.33-3.08c-1.2-0.96-2.49-1.91-3.68-2.84c-1.36-1.05-2.66-2.07-3.97-3.03
						c-3.18-2.36-6.55-4.39-10.17-5.48L11.26-13.36z"/>
				</g>
				<g>
					<path class="st9" d="M11.39-13.32c3,0.91,6.06,2.45,9,4.32c1.81,1.14,3.6,2.39,5.48,3.69c1.26,0.88,2.58,1.76,3.88,2.71
						c1.29,0.95,2.5,1.98,3.59,3.06c2.2,2.14,3.82,4.48,5.17,6.38c0.4,0.57,0.86,1.19,1.42,1.95c2.25,3.11,4.32,6.19,6.61,8.83
						c2.48,2.89,5.04,5.16,7.68,6.76c2.67,1.61,5.23,2.78,8.26,3.35l-0.04,0.13c-3.05-0.58-5.63-1.76-8.3-3.38
						c-2.65-1.61-5.22-3.88-7.69-6.77c-2.29-2.64-4.38-5.73-6.62-8.84c-0.56-0.77-1.01-1.39-1.43-1.96
						c-0.09-0.13-0.19-0.26-0.28-0.4c-1.34-1.9-2.97-4.12-5.11-6.18c-1.06-1.03-2.24-2.02-3.48-2.93C28.27-3.5,27-4.35,25.78-5.2
						c-1.88-1.3-3.67-2.55-5.48-3.69c-2.93-1.86-5.98-3.4-8.96-4.3L11.39-13.32z"/>
				</g>
				<g>
					<path class="st9" d="M11.52-13.28c1.88,0.57,3.91,1.38,5.94,2.39c2.83,1.38,5.79,3.22,8.84,5.1c1.32,0.82,2.7,1.63,4.09,2.57
						c1.37,0.93,2.68,1.95,3.85,3.03c2.37,2.16,4.13,4.54,5.47,6.41c0.52,0.71,1.03,1.41,1.46,2.01c1.78,2.48,3.36,4.89,5.02,7.07
						c2.54,3.38,5.12,6.11,7.77,8.05c1.33,0.99,2.68,1.84,4.06,2.56c1.38,0.72,2.8,1.34,4.42,1.78l-0.06,0.13
						c-1.63-0.44-3.06-1.07-4.44-1.79c-1.39-0.73-2.74-1.58-4.07-2.58c-2.66-1.95-5.25-4.69-7.78-8.06
						c-1.66-2.19-3.25-4.61-5.02-7.08c-0.43-0.59-0.94-1.29-1.47-2.01c-1.34-1.87-3.09-4.24-5.45-6.39
						c-1.17-1.08-2.47-2.1-3.84-3.02c-1.39-0.93-2.76-1.74-4.09-2.57c-3.05-1.88-6.01-3.71-8.83-5.09c-2.02-1-4.04-1.81-5.92-2.38
						L11.52-13.28z"/>
				</g>
				<g>
					<path class="st9" d="M53.41,21.87c1.39,1.26,2.8,2.36,4.25,3.32c1.46,0.94,2.95,1.82,4.75,2.46l-0.07,0.13
						c-1.74-0.63-3.2-1.48-4.61-2.38c-1.4-0.93-2.78-1.96-4.12-3.17c-2.67-2.36-5.29-5.68-8-9.67c-1.04-1.52-2.11-3.15-3.29-4.8
						c-0.46-0.62-0.98-1.35-1.5-2.06c-1.26-1.73-3-4.01-5.45-6.17c-1.22-1.08-2.6-2.11-4.1-3.06c-0.75-0.47-1.53-0.92-2.31-1.35
						c-0.76-0.42-1.52-0.84-2.29-1.26c-2.95-1.62-5.73-3.16-8.31-4.34c-2.57-1.19-4.9-2.06-6.75-2.61l0.05-0.13
						c1.85,0.56,4.19,1.42,6.77,2.62c2.58,1.19,5.37,2.72,8.31,4.34c0.77,0.42,1.54,0.84,2.29,1.26c0.79,0.43,1.57,0.89,2.32,1.36
						c1.5,0.95,2.89,1.99,4.11,3.07c2.45,2.17,4.21,4.46,5.46,6.19c0.52,0.71,1.05,1.43,1.5,2.05c1.19,1.66,2.25,3.29,3.29,4.81
						C48.32,16.32,50.86,19.54,53.41,21.87z"/>
				</g>
				<g>
					<path class="st9" d="M52.3,19.4c1.51,1.82,3.06,3.3,4.68,4.66c1.63,1.34,3.26,2.55,5.38,3.55l-0.08,0.12
						c-1.88-0.89-3.38-1.94-4.84-3.11c-1.45-1.17-2.86-2.46-4.2-3.93c-2.73-2.95-5.4-7.05-8.41-11.64
						c-0.42-0.61-0.83-1.24-1.28-1.86c-0.48-0.69-1.01-1.4-1.54-2.1c-1.06-1.42-2.59-3.43-5.03-5.61c-1.22-1.09-2.68-2.19-4.37-3.22
						c-0.84-0.52-1.74-1.02-2.69-1.49c-0.9-0.44-1.85-0.91-2.83-1.39c-3-1.47-5.86-2.87-8.49-3.96c-2.62-1.1-4.99-1.9-6.88-2.47
						l0.05-0.13c1.89,0.57,4.27,1.37,6.89,2.48c2.63,1.09,5.49,2.49,8.49,3.96c0.99,0.48,1.93,0.95,2.83,1.39
						c0.96,0.47,1.86,0.98,2.7,1.5c1.69,1.03,3.16,2.14,4.38,3.23c2.46,2.19,3.99,4.21,5.05,5.63c0.52,0.7,1.05,1.41,1.54,2.1
						c0.45,0.62,0.86,1.25,1.28,1.86C47.59,12.96,49.92,16.61,52.3,19.4z"/>
				</g>
				<g>
					<path class="st9" d="M51.68,16.86c1.72,2.46,3.24,4.3,4.93,6.03c1.7,1.71,3.34,3.29,5.71,4.68l-0.09,0.11
						c-1.88-1.11-3.29-2.33-4.66-3.64c-1.35-1.31-2.67-2.73-3.92-4.3c-1.29-1.62-2.62-3.52-4.04-5.72c-0.73-1.14-1.47-2.31-2.23-3.5
						C46.59,9.3,45.77,8,44.81,6.64l-0.26-0.36c-0.42-0.59-0.87-1.19-1.31-1.78c-1.11-1.47-2.79-3.54-5.16-5.56
						c-1.5-1.29-3.25-2.48-5.08-3.49c-0.91-0.52-1.86-0.97-2.8-1.4c-0.95-0.43-1.77-0.76-2.66-1.16c-3.46-1.51-6.55-2.84-9.21-3.8
						c-2.66-0.97-4.85-1.62-6.47-2.11l0.05-0.13c1.62,0.49,3.82,1.14,6.47,2.11c2.66,0.96,5.75,2.29,9.2,3.8
						c0.88,0.38,1.77,0.77,2.66,1.16c0.95,0.43,1.9,0.88,2.81,1.4c1.84,1.02,3.59,2.21,5.1,3.5c2.38,2.03,4.08,4.11,5.19,5.58
						C43.8,5,44.24,5.6,44.66,6.19l0.26,0.36c1.42,2.03,2.54,3.86,3.65,5.6C49.67,13.87,50.69,15.46,51.68,16.86z"/>
				</g>
				<g>
					<path class="st9" d="M51.43,14.37c1.12,1.81,2.06,3.26,2.96,4.57c1.21,1.75,2.44,3.29,3.67,4.69c1.24,1.4,2.53,2.73,4.23,3.91
						l-0.11,0.11c-1.88-1.34-3.23-2.76-4.5-4.22c-1.27-1.47-2.45-2.99-3.57-4.64c-1.17-1.71-2.38-3.63-3.68-5.78
						c-0.68-1.12-1.37-2.23-2.04-3.35c-0.37-0.58-0.73-1.16-1.1-1.74c-0.38-0.59-0.79-1.22-1.21-1.82l-0.59-0.84
						c-0.33-0.45-0.67-0.89-1-1.34c-0.83-1.09-2.05-2.55-3.71-4.11c-1.67-1.56-3.8-3.2-6.22-4.51c-2.17-1.23-4.59-2.14-6.56-2.87
						c-3.84-1.48-7.12-2.71-9.79-3.56c-2.68-0.85-4.74-1.39-6.2-1.83l0.05-0.13c1.46,0.44,3.51,0.98,6.19,1.83
						c2.67,0.85,5.95,2.08,9.78,3.56c1.97,0.74,4.4,1.64,6.58,2.87c2.43,1.32,4.58,2.96,6.25,4.53c1.68,1.57,2.9,3.04,3.73,4.13
						c0.33,0.44,0.67,0.89,1,1.34l0.6,0.84c1.23,1.79,2.14,3.28,3,4.67C49.98,11.99,50.72,13.21,51.43,14.37z"/>
				</g>
				<g>
					<path class="st9" d="M51.53,12.15c1.04,1.81,2.02,3.5,2.94,5.1c0.21,0.35,0.42,0.7,0.62,1.05c0.19,0.32,0.38,0.63,0.57,0.94
						c0.39,0.62,0.78,1.22,1.16,1.81c0.78,1.16,1.55,2.27,2.41,3.34c0.86,1.08,1.82,2.12,3.01,3.11l-0.11,0.1
						c-1.47-1.23-2.59-2.56-3.61-3.91c-1.01-1.36-1.97-2.77-2.93-4.31c-0.91-1.5-2-3.34-3.27-5.58c-0.69-1.2-1.41-2.44-2.16-3.74
						c-0.82-1.38-1.67-2.81-2.83-4.5c-0.44-0.64-0.91-1.28-1.38-1.9l-0.24-0.31c-0.84-1.06-2.14-2.57-3.97-4.22
						c-1.84-1.64-4.23-3.35-6.91-4.67c-2.14-1.1-4.53-1.91-6.42-2.51c-2.78-0.93-5.97-2.03-8.94-2.9c-2.96-0.88-5.67-1.47-7.37-1.97
						l0.05-0.13c1.69,0.5,4.39,1.09,7.36,1.97c2.96,0.87,6.15,1.96,8.93,2.89c1.88,0.61,4.27,1.41,6.43,2.51
						c2.68,1.32,5.09,3.04,6.94,4.69c1.84,1.65,3.15,3.17,3.99,4.24l0.24,0.31c0.48,0.62,0.95,1.26,1.39,1.91
						c0.9,1.31,1.63,2.49,2.29,3.58C50.38,10.16,50.98,11.19,51.53,12.15z"/>
				</g>
				<g>
					<path class="st9" d="M51.97,10.34c1.83,3.32,3.35,6.33,4.62,8.84c0.7,1.31,1.42,2.65,2.27,4.02c0.43,0.69,0.9,1.4,1.44,2.1
						c0.54,0.72,1.17,1.44,1.9,2.15l-0.12,0.09c-2.03-2.03-3.2-4-4.29-5.88c-0.54-0.94-1.04-1.87-1.51-2.78
						c-0.49-0.96-0.97-1.91-1.44-2.84c-2.07-3.95-4.62-9.09-7.89-13.26c-0.79-0.98-2.1-2.45-3.98-4.09
						c-1.86-1.63-4.36-3.37-7.1-4.68c-1.18-0.59-2.41-1.06-3.63-1.51c-0.6-0.2-1.26-0.43-1.81-0.59l-1.64-0.47
						c-2.19-0.64-4.43-1.31-6.56-1.9c-4.27-1.21-8.07-1.88-9.98-2.42l0.05-0.13c0.17,0.05,0.37,0.1,0.57,0.16
						c2.13,0.51,5.88,1.24,9.98,2.43c2,0.58,4.13,1.2,6.27,1.82l1.55,0.44c0.57,0.19,1.17,0.37,1.75,0.58
						c1.17,0.43,2.34,0.89,3.47,1.45c2.76,1.32,5.27,3.06,7.15,4.7c1.89,1.64,3.21,3.12,4,4.11c0.89,1.12,1.79,2.41,2.64,3.76
						C50.48,7.72,51.25,9.04,51.97,10.34z"/>
				</g>
			</g>
		</g>
		<g class="st2">
			<path class="st4" d="M133.62,72c0,0-0.1-1.2-0.12-3.33c0.01-2.11,0.2-5.14,0.92-8.69c0.75-3.52,1.99-7.63,4.08-11.63
				c2.06-4.01,4.88-7.99,8.39-11.26c3.14-2.85,6.62-4.97,10.05-6.3c1.68-0.71,3.41-1.15,4.99-1.56c1.61-0.35,3.15-0.56,4.54-0.72
				c2.84-0.21,5.15-0.11,6.78,0.13c1.62,0.21,2.51,0.43,2.51,0.43s-0.35,0.8-1.07,2.09c-0.36,0.65-0.82,1.4-1.34,2.27
				c-0.52,0.89-1.12,1.86-1.82,2.87c-0.69,1.02-1.42,2.17-2.27,3.28c-0.83,1.15-1.73,2.36-2.73,3.55c-1.97,2.45-4.25,4.98-7.02,7.52
				c-2.79,2.6-5.76,5.03-8.72,7.36c-2.97,2.31-5.8,4.6-8.37,6.64c-2.53,2.05-4.73,3.89-6.29,5.22C134.59,71.22,133.62,72,133.62,72z
				"/>
			<g class="st10">
				<path class="st11" d="M175.59,29.15c-0.49,1.37-1.16,2.72-1.99,4.02c-0.79,1.36-1.74,2.66-2.75,3.96
					c-2.02,2.61-4.35,5.15-6.72,7.52c-4.72,4.76-10.01,9.01-15.19,13.32c-1.34,1.04-2.56,2.16-3.9,3.21l-1.91,1.65
					c-0.65,0.54-1.3,1.09-1.91,1.67l-1.91,1.7l-1.85,1.76c-1.28,1.17-2.42,2.42-3.65,3.68"/>
				<path class="st11" d="M175.59,29.15c-0.58,1.2-1.34,2.39-2.25,3.55c-0.87,1.23-1.91,2.4-3,3.61c-2.18,2.41-4.66,4.85-7.16,7.18
					c-2.44,2.36-5.04,4.57-7.57,6.85c-2.57,2.31-5.24,4.57-7.74,6.91c-1.3,1.11-2.46,2.31-3.74,3.43l-1.8,1.76l-0.92,0.87l-0.87,0.9
					l-1.77,1.8l-1.7,1.85c-1.17,1.22-2.19,2.53-3.3,3.81"/>
				<path class="st11" d="M175.59,29.15c-0.67,1.02-1.52,2.06-2.51,3.08c-0.96,1.09-2.08,2.14-3.25,3.26
					c-2.35,2.22-4.97,4.54-7.6,6.84c-2.56,2.32-5.23,4.58-7.78,6.92c-2.59,2.39-5.22,4.77-7.64,7.26l-0.92,0.9l-0.88,0.93
					c-0.59,0.61-1.18,1.22-1.77,1.83c-1.1,1.27-2.31,2.46-3.36,3.75c-0.55,0.63-1.09,1.27-1.63,1.9c-0.52,0.65-1.03,1.3-1.54,1.94
					c-1.06,1.28-1.96,2.63-2.95,3.95"/>
				<path class="st11" d="M175.59,29.15c-0.76,0.85-1.7,1.72-2.78,2.61c-1.04,0.96-2.25,1.89-3.5,2.91
					c-2.51,2.02-5.28,4.24-8.03,6.5c-2.68,2.29-5.43,4.58-7.99,7c-2.6,2.47-5.21,4.98-7.55,7.62c-0.6,0.63-1.17,1.27-1.73,1.93
					c-0.56,0.65-1.12,1.3-1.68,1.94c-1.04,1.34-2.17,2.61-3.13,3.97c-0.5,0.67-1,1.34-1.49,2c-0.46,0.68-0.93,1.36-1.38,2.03
					c-0.96,1.33-1.73,2.74-2.6,4.09"/>
				<path class="st11" d="M175.59,29.15c-3.48,2.54-9.54,6.37-15.27,10.86c-2.79,2.26-5.62,4.59-8.19,7.08
					c-2.61,2.55-5.19,5.19-7.45,7.97c-4.54,5.38-8.17,11.11-10.95,16.72"/>
				<path class="st11" d="M175.59,29.15c-3.83,1.84-10.25,5.28-16.22,9.71c-2.91,2.22-5.82,4.6-8.4,7.15
					c-2.63,2.63-5.18,5.39-7.35,8.33c-4.37,5.67-7.62,11.73-9.91,17.48"/>
				<path class="st11" d="M175.59,29.15c-4.19,1.13-10.95,4.19-17.18,8.55c-3.03,2.19-6.01,4.61-8.61,7.23
					c-2.64,2.71-5.16,5.6-7.25,8.68c-4.2,5.95-7.08,12.36-8.86,18.24"/>
				<path class="st11" d="M175.59,29.15c-1.12,0.15-2.42,0.39-3.84,0.74c-1.38,0.42-2.94,0.86-4.5,1.51
					c-3.17,1.23-6.54,3.04-9.79,5.16c-3.15,2.15-6.21,4.62-8.82,7.3c-2.66,2.78-5.14,5.8-7.15,9.04c-4.03,6.23-6.53,12.98-7.8,19"/>
				<path class="st11" d="M175.59,29.15c-1.22-0.03-2.6,0.06-4.11,0.27c-1.47,0.28-3.11,0.6-4.76,1.16
					c-3.34,1.04-6.86,2.74-10.23,4.82c-3.27,2.12-6.4,4.63-9.03,7.38c-2.67,2.86-5.12,6.01-7.05,9.39
					c-3.86,6.51-5.99,13.61-6.75,19.76"/>
				<path class="st11" d="M175.59,29.15c-1.31-0.2-2.78-0.28-4.38-0.2c-1.56,0.14-3.28,0.35-5.01,0.81
					c-3.51,0.84-7.18,2.44-10.68,4.49c-3.4,2.08-6.6,4.64-9.24,7.45c-2.69,2.93-5.1,6.22-6.95,9.75c-3.69,6.8-5.44,14.23-5.7,20.51"
					/>
				<path class="st11" d="M175.59,29.15c-4.19-1.19-9.8-0.77-15.39,1.33c-5.59,2.06-11.08,5.77-15.09,10.16
					c-4.03,4.36-7.13,9.79-9.03,15.33c-1.92,5.54-2.65,11.16-2.46,16.04"/>
			</g>
		</g>
		<g class="st2">
			<path class="st12" d="M134.26-17.35l0.37,0.95c-11.55,4.56-22.22,11.28-31.45,19.59c-9.21,8.34-16.93,18.33-22.69,29.35
				l-0.14-0.37c5.68-11.06,13.33-21.11,22.48-29.56C112.03-5.8,122.68-12.64,134.26-17.35z"/>
			<path class="st12" d="M79.58,36.05c0.6-1.39,1.31-3.89,1.65-5.28c-0.9,0.96-1.61,2.07-2.32,3.22c-0.58,0.99-1.18,2.02-1.46,3.14
				c-0.42,1.49-0.5,2.97-0.56,4.39C77.98,39.39,78.72,38.25,79.58,36.05z"/>
			<g>
				<g>
					<path class="st12" d="M114.81-10.11c1.51,0.39,3.17,0.6,4.9,0.51c-0.74-0.89-1.6-1.68-2.63-2.33
						c-0.88-0.56-1.89-1.02-3.11-1.19c-0.82-0.11-1.75-0.11-2.67,0.01c-0.93,0.12-1.89,0.32-2.85,0.52
						C110.48-11.64,112.45-10.72,114.81-10.11z"/>
					<path class="st12" d="M109.91-7c1.93,0.23,3.98,0.23,6.08-0.09c-1.06-0.94-2.26-1.72-3.65-2.32c-1.19-0.51-2.51-0.9-4.06-0.92
						c-2.11-0.05-4.38,0.75-6.71,1.48C104.29-8.08,106.94-7.31,109.91-7z"/>
					<path class="st12" d="M104.61-3.36c2.31,0,4.77-0.24,7.21-0.84c-1.41-0.95-2.94-1.68-4.69-2.19c-1.49-0.43-3.14-0.71-5-0.52
						c-1.23,0.16-2.51,0.52-3.83,0.99c-0.66,0.23-1.32,0.5-1.99,0.77c-0.65,0.29-1.3,0.61-1.95,0.92
						C97.67-3.88,101.06-3.28,104.61-3.36z"/>
					<path class="st12" d="M98.34,1.74c1.35-0.15,2.69-0.41,4.07-0.71c1.4-0.28,2.8-0.66,4.18-1.14c-1.73-0.88-3.64-1.54-5.76-1.9
						c-1.84-0.33-3.75-0.37-5.88,0.12c-2.9,0.62-5.82,2.36-8.72,4.13c2-0.03,4-0.06,5.99-0.09c1-0.03,2-0.08,3.01-0.15
						C96.25,1.95,97.29,1.87,98.34,1.74z"/>
					<path class="st12" d="M92.23,7.46c1.5-0.35,3.07-0.74,4.59-1.25c1.51-0.53,3.08-1.07,4.61-1.73c-2.07-0.77-4.4-1.36-6.82-1.45
						c-2.08-0.09-4.36,0.04-6.73,0.87c-1.58,0.57-3.18,1.42-4.79,2.41c-1.56,1.03-3.1,2.22-4.64,3.41c2.3-0.34,4.57-0.63,6.83-0.99
						C87.59,8.4,89.92,8.03,92.23,7.46z"/>
				</g>
				<g>
					<path class="st12" d="M79.98,30.56c1.12-0.87,2.2-1.89,3.14-3.05c-0.99,0.24-1.99,0.6-3.01,1.11
						c-0.87,0.44-1.77,0.97-2.57,1.74c-1.05,1.05-1.93,2.44-2.79,3.8C76.54,33.03,78.27,31.93,79.98,30.56z"/>
					<path class="st12" d="M81.5,26.5c1.47-0.92,2.97-1.99,4.29-3.29c-1.24,0.09-2.52,0.34-3.84,0.79
						c-1.13,0.38-2.31,0.89-3.37,1.75c-0.73,0.57-1.41,1.26-2.08,2.01c-0.33,0.37-0.66,0.76-0.98,1.16l-0.9,1.23l1.7-0.86l1.75-0.85
						C79.23,27.86,80.37,27.24,81.5,26.5z"/>
					<path class="st12" d="M83.27,22.41c0.46-0.24,0.91-0.49,1.36-0.75c0.47-0.25,0.94-0.52,1.4-0.8c0.92-0.57,1.83-1.2,2.69-1.89
						c-1.48-0.07-3.03,0.04-4.64,0.4c-0.69,0.15-1.4,0.35-2.11,0.61c-0.69,0.28-1.39,0.63-2.08,1.07c-0.93,0.6-1.84,1.36-2.72,2.2
						c-0.85,0.86-1.65,1.81-2.46,2.75c1.42-0.56,2.84-1.12,4.25-1.68C80.41,23.76,81.85,23.15,83.27,22.41z"/>
					<path class="st12" d="M85.73,17.81c0.55-0.23,1.1-0.47,1.65-0.73c0.57-0.25,1.14-0.51,1.7-0.8c1.13-0.57,2.23-1.21,3.29-1.93
						c-1.69-0.27-3.49-0.33-5.4-0.09c-0.82,0.1-1.66,0.25-2.51,0.48c-0.84,0.25-1.67,0.59-2.52,1.04c-1.14,0.62-2.29,1.41-3.37,2.33
						c-1.06,0.94-2.11,1.98-3.14,3.02c1.72-0.51,3.42-0.99,5.11-1.53C82.25,19.07,84.02,18.53,85.73,17.81z"/>
					<path class="st12" d="M88.74,12.6c1.28-0.44,2.65-0.87,3.97-1.42c1.34-0.53,2.61-1.21,3.95-1.87c-1.94-0.55-3.96-0.8-6.14-0.72
						c-1.85,0.08-3.9,0.32-5.89,1.24c-1.36,0.6-2.73,1.43-4.07,2.4c-1.3,1-2.59,2.12-3.87,3.25c2.01-0.44,4-0.84,5.98-1.3
						C84.67,13.72,86.73,13.26,88.74,12.6z"/>
				</g>
			</g>
			<g>
				<g>
					<path class="st12" d="M118.38-4.62c0.22-1.47,0.72-3.03,1.58-4.56c0.44,1.07,0.75,2.22,0.89,3.42
						c0.12,1.03,0.14,2.11-0.14,3.23c-0.18,0.76-0.51,1.48-0.87,2.25c-0.35,0.77-0.77,1.54-1.17,2.29
						C118.36-0.1,118.03-2.32,118.38-4.62z"/>
					<path class="st12" d="M114.02-1.36c0.33-1.8,0.98-3.72,2.07-5.57c0.43,1.33,0.73,2.77,0.84,4.25c0.09,1.28,0.07,2.6-0.29,3.95
						c-0.51,1.8-1.48,3.73-2.47,5.49C113.83,4.19,113.54,1.5,114.02-1.36z"/>
					<path class="st12" d="M109.51,2.6c0.37-2.16,1.15-4.43,2.42-6.64c0.45,1.59,0.79,3.32,0.9,5.08c0.1,1.52,0.06,3.09-0.35,4.69
						c-0.25,1.11-0.67,2.21-1.15,3.29c-0.24,0.54-0.51,1.08-0.78,1.61c-0.26,0.55-0.51,1.1-0.76,1.64
						C109.27,9.14,109,6.05,109.51,2.6z"/>
					<path class="st12" d="M104.18,7.86c0.17-1.26,0.42-2.6,0.85-3.9c0.44-1.29,1-2.6,1.69-3.9c0.56,1.88,0.95,3.85,1.12,5.89
						c0.12,1.73,0.18,3.59-0.19,5.48c-0.54,2.51-1.66,5.12-2.72,7.6c-0.37-1.78-0.64-3.54-0.82-5.41c-0.08-0.93-0.14-1.88-0.14-2.85
						C103.98,9.81,104.05,8.85,104.18,7.86z"/>
					<path class="st12" d="M99.07,13.61c0.11-1.46,0.4-2.93,0.79-4.46c0.38-1.54,0.97-3.04,1.72-4.52c0.7,2.14,1.14,4.31,1.47,6.67
						c0.27,2.02,0.36,4.06,0.06,6.22c-0.19,1.47-0.57,2.93-1.06,4.36c-0.43,1.47-0.94,2.94-1.44,4.37c-0.51-1.96-0.98-3.98-1.3-6.1
						C99.02,18.07,98.92,15.92,99.07,13.61z"/>
				</g>
				<g>
					<path class="st12" d="M82.33,31.81c0.13-1.36,0.42-2.81,0.93-4.22c0.3,0.99,0.52,2.04,0.64,3.13c0.11,0.94,0.12,1.91-0.01,2.94
						c-0.16,1.41-0.66,2.83-1.16,4.21C82.46,35.96,82.16,33.95,82.33,31.81z"/>
					<path class="st12" d="M84.92,28.52c0.06-1.68,0.41-3.44,1.01-5.21c0.43,1.19,0.77,2.44,0.98,3.76c0.18,1.13,0.25,2.3,0.17,3.59
						c-0.07,0.86-0.25,1.72-0.49,2.58c-0.12,0.43-0.25,0.86-0.39,1.29c-0.12,0.44-0.24,0.88-0.36,1.31
						c-0.14-0.58-0.28-1.17-0.4-1.76c-0.11-0.58-0.2-1.18-0.28-1.78C84.99,31.09,84.89,29.84,84.92,28.52z"/>
					<path class="st12" d="M87.7,25.27c0.01-0.5,0.03-1.01,0.07-1.53c0.06-0.51,0.14-1.02,0.24-1.53c0.2-1.03,0.48-2.09,0.85-3.14
						c0.55,1.4,0.98,2.88,1.25,4.44c0.12,0.67,0.21,1.35,0.26,2.05c0.07,0.71,0.08,1.44,0.03,2.19c-0.08,1.01-0.29,2.03-0.57,3.04
						c-0.25,1.03-0.53,2.08-0.82,3.1c-0.36-1.34-0.72-2.73-0.97-4.16C87.82,28.31,87.68,26.83,87.7,25.27z"/>
					<path class="st12" d="M90.93,21.53c0.01-0.58,0.05-1.17,0.1-1.77c0.07-0.59,0.18-1.18,0.3-1.78c0.25-1.2,0.6-2.42,1.05-3.64
						c0.63,1.63,1.13,3.36,1.45,5.16c0.14,0.77,0.24,1.56,0.29,2.37c0.07,0.82,0.09,1.67,0.01,2.53c-0.09,1.17-0.37,2.32-0.68,3.5
						c-0.28,1.19-0.64,2.38-0.99,3.55c-0.43-1.54-0.84-3.13-1.15-4.79C91.01,25.02,90.9,23.34,90.93,21.53z"/>
					<path class="st12" d="M94.89,17.54c0.03-1.33,0.26-2.64,0.57-4c0.33-1.35,0.72-2.78,1.36-4.1c0.64,1.84,1.18,3.84,1.51,5.91
						c0.3,1.79,0.39,3.58,0.22,5.56c-0.13,1.32-0.46,2.63-0.85,3.94c-0.34,1.34-0.77,2.67-1.19,3.97c-0.48-1.75-0.93-3.54-1.25-5.43
						C94.93,21.5,94.82,19.59,94.89,17.54z"/>
				</g>
			</g>
		</g>
		<path class="st13" d="M5.39,107.87c3.47-0.66,7.48,0.22,9.59,3.06c2.41,3.26,1.68,7.91,3.44,11.56c2.57,5.32,9.55,6.86,15.41,6.12
			c5.86-0.75,11.53-3.11,17.43-3c4.03,0.08,8.14,1.41,11,4.25c2.86,2.83,4.24,7.28,2.88,11.07c-2.3,6.4-10.38,8.12-17.14,8.82
			c-11.26,1.18-22.52,2.28-33.79,3.3c-4.76,0.43-9.89,0.76-13.98-1.72c-5.5-3.35-7.1-10.55-7.47-16.98
			C-7.92,122.35-8.6,110.54,5.39,107.87z"/>
		<g class="st2">
			<path class="st12" d="M109.32,102.51c1.87,0.23,3.21,1.1,4.69,2.15c0.84,0.63,1.63,1.34,2.34,2.12c0.36,0.38,0.69,0.8,1.01,1.23
				c0.18,0.25,0.75,0.81,0.76,1.14c-0.17-3.35-1.96-6.39-4.6-8.2c1.58-0.6,3.16-1.21,4.77-1.76c1.61-0.57,3.24-1.1,4.91-1.5
				c0.14-0.03,0.3-0.06,0.44-0.09c3.96,2.32,7.05,6.04,8.5,10.38c0.05-4.19-1.92-8.28-5.12-10.99c4.08-0.58,8.27-0.43,12.43,0.33
				c0.46,0.49,0.91,0.99,1.31,1.53c0.96,1.27,1.72,2.72,2.18,4.24c0.46,1.52,0.64,3.08,0.44,4.66c-0.13,1.02-0.34,2.23,0.39,2.91
				c0.64,0.58,1.73,0.4,2.4-0.2c0.66-0.6,0.97-1.51,1.13-2.4c0.57-3.08-0.29-6.36-1.89-9.14c4.7,1.72,9.14,4.56,11.83,8.73
				c3.13,4.85,3.5,11.91-0.37,16.13c-2.29,2.54-5.59,3.96-8.75,4.81c-1.64,0.43-3.33,0.69-4.96,0.67
				c5.51,5.36,11.13,10.23,15.68,16.35c-3.4-2.98-6.87-5.34-10.35-7.76c-3.46-2.4-7.02-4.9-10.37-7.69c0.25,0.9,0.48,1.79,0.76,2.67
				c0.64,1.97,0.86,4.15,0.34,6.33c-0.79,3.3-3.46,6.58-6.43,7.77c-2.08,0.83-4.13,0.52-5.93,0.05c-3.48-0.9-6.61-2.37-9.39-4.38
				c3.17-0.37,6.72-2.11,9.52-5c1.01-1.05,1.97-2.33,2.21-3.73c0.24-1.38-0.53-2.81-1.79-2.75c-1.17,0.07-2.18,1.27-3.03,2.33
				c-2.28,2.87-4.79,5.7-7.69,7.31c-0.31,0.17-0.63,0.32-0.95,0.45c-2.24-1.9-4.23-4.17-5.99-6.81c1.65,0.07,3.39-0.21,5.14-0.91
				c1.74-0.67,3.48-1.72,5.03-3.14c0.65-0.59,1.32-1.37,1.33-2.2c0.01-0.98-0.98-1.48-1.87-1.29c-0.89,0.19-1.71,0.86-2.5,1.48
				c-2.36,1.81-4.9,3.24-7.4,3.81c-0.36,0.08-0.72,0.09-1.08,0.13c-0.59-1.01-1.15-2.07-1.66-3.2c-0.86-1.82-1.59-3.82-2.33-5.82
				c3.22,1.06,6.79,1.21,10.47,0.35c0.75-0.18,1.53-0.42,2.18-0.97c0.65-0.54,1.13-1.5,0.92-2.28c-0.27-1-1.45-1.19-2.43-1.14
				c-3.7,0.21-7.37,1.73-10.8,1.43c-0.46-0.04-0.9-0.14-1.34-0.25c-2.26-2.15-3.97-5.41-5.32-8.67c-1.33-3.3-2.28-6.58-2.69-8.93
				c1.31,0,2.64-0.05,3.98-0.11c1.34-0.05,2.68-0.1,4.02-0.15C105.34,102.51,107.37,102.24,109.32,102.51z M123.66,122.3
				c0.02-0.31-0.14-0.56-0.32-0.76c-0.24-0.27-0.53-0.49-0.86-0.64c-0.23-0.11-0.49-0.19-0.76-0.15c-0.27,0.04-0.56,0.22-0.7,0.49
				c-0.12,0.23-0.13,0.5-0.11,0.74c0.01,0.16,0.04,0.31,0.1,0.45c0.15,0.31,0.77,0.6,1.06,0.73c0.29,0.12,0.63,0.15,0.96,0.01
				C123.35,123.01,123.64,122.67,123.66,122.3z M135.52,116.14c-0.38,0.43-0.41,1.06-0.39,1.61c0.04,0.97,0.11,1.94,0.24,2.9
				c0.4,2.93,3.25,2.24,3.73-0.62c0.2-1.27-0.31-2.49-1.08-3.41c-0.31-0.36-0.67-0.71-1.13-0.84
				C136.43,115.65,135.87,115.75,135.52,116.14z M125.22,124.06c-0.32,1.23,0.71,1.65,1.39,2.14c0.42,0.31,0.92,0.55,1.48,0.54
				c0.69-0.01,1.53-0.57,1.64-1.33c0.1-0.71-0.42-1.22-0.91-1.62c-0.53-0.45-1.11-0.88-1.82-0.94
				C126.28,122.8,125.42,123.28,125.22,124.06z M128.27,115.78c0.67,0.26,1.55,0.17,2.07-0.46c0.43-0.52,0.49-1.27,0.3-1.88
				c-0.18-0.62-0.58-1.11-0.97-1.59c-0.43-0.53-0.87-1.06-1.46-1.39c-0.58-0.33-1.36-0.39-1.96,0.01c-1.26,0.85-1.09,2.04-0.44,3.07
				C126.45,114.6,127.56,115.51,128.27,115.78z M119.8,116.01c-0.09,0.35-0.04,0.72,0.13,1c0.34,0.59,1.34,0.74,1.33-0.29
				c-0.01-0.34-0.09-0.67-0.24-0.96c-0.12-0.24-0.33-0.46-0.59-0.43C120.12,115.36,119.88,115.69,119.8,116.01z"/>
		</g>
		<g class="st2">
			<path class="st14" d="M17.14,68.19c-1.7-0.22-2.16,0.38-4.69-0.79c-0.62-0.38-1.25-0.76-1.87-1.12c1.13,0.38,2.35,0.45,3.53-0.02
				c1.28-0.52,2.21-1.94,0.91-2.71c-1.88-1.11-4.8,0.88-7.27,0.85c-1.43-1.06-2.72-2.28-3.96-3.56c0.92,0.61,2.28,1.32,3.58,1.53
				c1.3,0.22,2.53-0.08,3.21-1.24c0.44-0.75,0.32-1.25-0.13-1.58c-0.44-0.35-1.21-0.53-2.09-0.66c-1.74-0.25-3.93-0.34-4.55-0.39
				c-0.68-0.07-1.36-0.18-2.05-0.32l-0.4-0.09c-0.65-0.8-1.85-2.24-3.07-3.95c-0.63-0.84-1.26-1.76-1.87-2.63
				c-0.58-0.87-1.05-1.82-0.97-2.78c0,0-0.08,0.23-0.09,0.7c-0.01,0.47,0.13,1.19,0.55,2.05c0.89,1.69,2.37,4.18,4.82,7.2l0.04,0.38
				c0.08,0.7,0.17,1.41,0.22,2.14c0.05,0.63,0.24,2.97,0.94,4.9c0.35,0.96,0.81,1.8,1.34,2.27c0.54,0.45,1.14,0.51,1.77-0.09
				c0.85-0.81,0.86-1.91,0.52-3.01c-0.32-1.12-1.01-2.26-1.62-3.21c1.15,1.1,2.37,2.14,3.65,3.09c0.43,2.33-0.02,5.63,2.19,7.02
				c1.61,1,2.28-0.64,2.03-2.02c-0.22-1.28-0.82-2.3-1.56-3.2c0.56,0.33,1.12,0.66,1.71,0.95c0.44,0.33,0.86,0.69,1.26,1.09
				c0.98,1.02,1.79,2.27,3.11,2.96c1.28,0.69,3.75,0.78,4.3-1.09c0.34-1.1-0.23-1.72-1.04-2.08C18.8,68.4,17.74,68.28,17.14,68.19z"
				/>
		</g>
		<g class="st2">
			<path class="st9" d="M19.97,126.93c-2.6,2.72-6.28,4.4-11.43,4.46c-2.44,0.02-5.08-0.3-7.9-1.01c-1.34-0.34-2.71-0.74-4.01-0.93
				c-0.65-0.1-1.29-0.14-1.88-0.09c-0.66,0.06-1.07,0.4-1.47,0.78c-0.26,0.24-0.5,0.51-0.71,0.81c-0.07,0.09-0.13,0.19-0.24,0.24
				c-0.11,0.05-0.27,0.04-0.42-0.06c-0.21-0.13-0.34-0.39-0.34-0.58c0-0.18,0.09-0.31,0.18-0.43l0.52-0.7
				c0.08-0.1,0.15-0.2,0.18-0.35c0.04-0.25-0.17-0.49-0.28-0.77c-0.14-0.38-0.27-0.75-0.41-1.12c-0.26-0.75-0.52-1.49-0.75-2.23
				c-0.47-1.48-0.87-2.95-1.13-4.4c-0.53-2.8-0.36-5.31,0.29-7.64c1.39-5.05,5.23-8.79,10.48-10.29c0.11-0.03,0.3,0.11,0.3,0.26
				c-0.04,2.72-0.41,5.16-0.89,7.49c-0.48,2.29-0.91,4.58-1.44,6.73c-0.57,2.35-1.54,4.36-2.37,6.45c-0.27,0.68-0.48,1.41-0.72,2.13
				c1.03-1.53,2-3.12,2.99-4.7c1.2-1.91,2.45-3.81,3.9-5.54c0.49-0.59,1.02-1.16,1.56-1.7l-0.01-0.01c-0.93-2.1-1.05-4.15-0.92-6
				c0.13-2.02,0.6-3.93,1.36-5.65c0.96-2.15,2.39-4.07,4.18-5.56c1.96-1.62,4.48-2.35,6.69-3.64c0.12-0.07,0.33,0.12,0.3,0.29
				c-1.75,8.28-4.85,14.34-9.27,18.56c1.35-1.28,3.05-2.21,4.65-3.17c1.34-0.81,2.71-1.41,3.7-2.72c0.32-0.44,0.51-1.04,0.79-1.54
				c0.28-0.5,0.59-0.98,0.9-1.46c0.44-0.68,0.86-1.4,1.17-2.23c0.24-0.64,0.41-1.33,0.76-1.89c1.59-2.65,4.72-3.13,6.79-5.4
				c0.15-0.16,0.38,0.21,0.25,0.38c-0.93,1.26-1.2,3.12-1.88,4.5c-0.68,1.33-1.39,2.58-2.24,3.6c-0.95,1.13-2.01,2.09-3.13,2.95
				c1.84-0.91,3.66-1.82,5.48-2.76c0-0.06,0.01-0.1,0.06-0.13c1.41-0.74,2.68-1.69,3.71-3.19c1.04-1.51,1.69-3.58,2.92-5.11
				c2.35-2.94,5.98-3.98,9.54-4.24c0.15-0.01,0.24,0.21,0.17,0.37c-1.34,3.14-3.14,5.6-5.07,7.22c-1.02,0.87-2.1,1.36-3.3,1.66
				c-0.82,0.22-1.68,0.39-2.46,0.71c-0.18,0.12-0.36,0.24-0.54,0.35c1.72-0.12,3.53,0.57,5.26,1.55c1.19,0.68,2.32,1.34,3.42,2
				c0.89,0.52,1.81,0.76,2.59,1.77c0.08,0.1,0.11,0.35,0.03,0.39c-2.14,1.13-4.5,0.99-7.26,0.36c-2.73-0.64-5.83-1.77-8.92-2.83
				c-0.05-0.02-0.09-0.06-0.12-0.1c-0.93,0.48-1.86,0.96-2.8,1.44c-1.42,0.74-2.94,1.32-4.33,2.14l-0.2,0.12
				c0.15,0.03,0.31,0.07,0.46,0.12c1.96-0.11,4,0.14,6.08,0.84c3.85,1.33,7.48,3.05,10.69,4.89c0.14,0.08,0.21,0.37,0.11,0.42
				c-1.34,0.75-2.61,1.7-4.2,2.01c-1.17,0.22-2.6-0.62-4.17-1.89c-2.45-2.02-5.51-4.97-8.3-5.85c-0.63,0.02-1.25,0.09-1.85,0.19
				c-0.74,0.48-1.47,0.98-2.21,1.44c-1.21,0.76-2.5,1.41-3.71,2.17c-1.88,1.19-3.76,2.48-5.28,4.11c0.24-0.04,0.48-0.08,0.73-0.11
				c1.01-0.12,2.01-0.23,3.04-0.26c2.35-0.08,4.79,0.12,7.2,0.56c4.39,0.81,8.88,3.54,12.94,6.38c0.12,0.08,0.2,0.26,0.17,0.35
				c-0.57,1.58-2.26,1.71-3.95,1.7c-1.78-0.03-3.79-0.33-6.05-1.08c-2.56-0.85-5.38-2.06-8.19-3.35c-1.31-0.61-2.65-1.29-3.95-1.68
				c-0.62-0.19-1.28-0.53-1.88-0.58c-0.61-0.06-1.14,0.09-1.55,0.36c-0.71,0.48-1.11,1.29-1.51,2.05c-0.77,1.46-1.7,2.78-2.5,4.18
				c-0.62,1.08-1.43,1.96-2.17,2.93c-0.28,0.36-0.55,0.73-0.84,1.07c0.82-0.55,1.74-1,2.67-1.41c2.13-0.94,4.53-1.6,7.2-1.58
				c2.64,0.01,5.51,0.66,8.16,1.04c2.15,0.3,4.12,0.04,6.41,1.09C19.93,126.65,20.04,126.86,19.97,126.93z"/>
		</g>
		<g class="st2">
			<path class="st12" d="M96.83,131.93c-0.25-0.78-0.88-1.26-1.65-1.44c-0.48-0.11-1,0.34-1.04,0.8c-0.05,0.53,0.28,0.9,0.77,1.03
				c0,0,0,0,0,0c-0.08-0.02-0.09-0.02,0,0.01c0.02,0.01,0.03,0.01,0.04,0.02c0.01,0.01,0.03,0.02,0.04,0.03c0,0,0,0,0,0
				c0.02,0.02,0.03,0.04,0.05,0.06c0.02,0.03,0.03,0.04,0.03,0.05c0.02,0.06,0.04,0.14,0.05,0.17c0.15,0.46,0.79,0.7,1.22,0.5
				C96.83,132.91,97,132.42,96.83,131.93z"/>
			<g>
				<polygon class="st12" points="94.99,136.34 94.99,136.34 94.99,136.34 				"/>
				<path class="st12" d="M96.85,136.58c0.31-0.45,0.2-0.95-0.19-1.3c-0.35-0.33-0.77-0.58-1.21-0.78c-0.44-0.2-1.05,0.05-1.21,0.51
					c-0.18,0.49,0.04,1,0.51,1.21c0.02,0.01,0.19,0.1,0.23,0.12c-0.04-0.02-0.13-0.08-0.02-0.01c0.01,0.01,0.02,0.01,0.02,0.02
					c0,0,0.01,0,0.01,0c0,0,0,0-0.01,0c0.04,0.02,0.08,0.05,0.11,0.07c0.16,0.11,0.3,0.23,0.44,0.35
					C95.9,137.1,96.59,136.97,96.85,136.58z"/>
			</g>
			<path class="st12" d="M90.96,131.69c-0.12-0.32-0.34-0.62-0.62-0.83c-0.34-0.25-0.73-0.31-1.14-0.31c-0.22,0-0.5,0.19-0.63,0.36
				c-0.13,0.18-0.22,0.45-0.18,0.68c0.04,0.24,0.16,0.48,0.36,0.62c0.15,0.11,0.31,0.15,0.47,0.17c0,0.01,0.01,0.01,0.01,0.02
				c0.17,0.46,0.78,0.71,1.22,0.5C90.93,132.68,91.15,132.18,90.96,131.69z"/>
			<path class="st12" d="M93.57,139.94c0.31-0.45,0.2-0.95-0.19-1.3c-0.36-0.32-0.77-0.58-1.21-0.78c-0.44-0.2-1.05,0.05-1.21,0.51
				c-0.18,0.49,0.04,1,0.51,1.21c0.07,0.03,0.15,0.07,0.22,0.11c0.05,0.03,0.1,0.07,0.12,0.08c0.16,0.11,0.31,0.23,0.45,0.35
				C92.63,140.46,93.3,140.33,93.57,139.94z"/>
			<path class="st12" d="M99.72,146.12c0.36-0.31,0.5-0.92,0.16-1.31c-0.16-0.18-0.34-0.33-0.57-0.42c-0.25-0.1-0.46-0.1-0.72-0.1
				c-0.22,0-0.5,0.19-0.62,0.36c-0.13,0.18-0.22,0.45-0.18,0.68c0.04,0.24,0.16,0.48,0.36,0.63c0.07,0.04,0.14,0.08,0.21,0.12
				c0.08,0.03,0.16,0.05,0.25,0.06c0.12,0.09,0.26,0.16,0.42,0.18C99.25,146.34,99.54,146.28,99.72,146.12z"/>
			<path class="st12" d="M91.13,145.3c0.3-0.44,0.2-0.96-0.19-1.3c-0.46-0.41-1-0.64-1.59-0.78c-0.48-0.11-1,0.33-1.04,0.8
				c-0.05,0.54,0.29,0.92,0.79,1.04c0.04,0.01,0.08,0.03,0.12,0.04c0.09,0.03,0.17,0.07,0.26,0.11c0.04,0.02,0.07,0.05,0.11,0.07
				c0.09,0.06,0.17,0.13,0.25,0.2C90.19,145.81,90.86,145.69,91.13,145.3z"/>
			<path class="st12" d="M87.47,137.46c0.28-0.41,0.24-1-0.19-1.3c-0.48-0.34-1.01-0.63-1.58-0.8c-0.47-0.14-1.03,0.01-1.21,0.51
				c-0.16,0.44,0.01,1.06,0.51,1.21c0.23,0.07,0.45,0.16,0.67,0.26c0.05,0.02,0.1,0.05,0.15,0.07c0,0,0.01,0,0.01,0.01
				c0.12,0.07,0.23,0.15,0.34,0.23C86.56,137.93,87.19,137.88,87.47,137.46z"/>
			<path class="st12" d="M81.86,132.62c0.15-0.43-0.01-1.07-0.51-1.21c-0.34-0.1-0.68-0.19-1.02-0.29c-0.25-0.07-0.47-0.1-0.71,0
				c-0.21,0.09-0.42,0.29-0.5,0.51c-0.15,0.43,0.01,1.07,0.51,1.21c0.34,0.1,0.68,0.19,1.02,0.29c0.25,0.07,0.47,0.1,0.71,0
				C81.57,133.04,81.78,132.84,81.86,132.62z"/>
			<path class="st12" d="M82.79,141.77c0.29-0.42,0.22-0.98-0.19-1.3c-0.34-0.27-0.73-0.49-1.14-0.63
				c-0.46-0.16-1.04,0.02-1.21,0.51c-0.16,0.45,0.02,1.05,0.51,1.21c0.15,0.05,0.3,0.14,0.45,0.19c0.02,0.01,0.03,0.02,0.05,0.03
				c0.08,0.05,0.15,0.11,0.23,0.17C81.87,142.26,82.51,142.18,82.79,141.77z"/>
			<path class="st12" d="M85.35,144.51c-0.22-0.46-0.74-0.7-1.22-0.5l-0.31,0.13c-0.45,0.19-0.71,0.76-0.5,1.22
				c0.22,0.46,0.74,0.7,1.22,0.5l0.31-0.13C85.3,145.54,85.56,144.97,85.35,144.51z"/>
			<path class="st12" d="M95.83,150.66c-0.07-0.83-0.86-1.24-1.58-1.38c-0.48-0.09-1,0.32-1.04,0.8c-0.05,0.53,0.29,0.95,0.8,1.04
				c0.02,0,0.03,0.01,0.05,0.01c0.16,0.37,0.58,0.63,0.98,0.56C95.55,151.61,95.88,151.18,95.83,150.66z"/>
			<path class="st12" d="M90.14,152.06c-0.31-0.75-0.96-1.16-1.56-1.66c-0.38-0.32-1.01-0.2-1.3,0.19c-0.32,0.42-0.2,0.98,0.19,1.3
				c0.21,0.18,0.43,0.34,0.65,0.51c0.15,0.12,0.26,0.25,0.31,0.38c0.19,0.46,0.76,0.69,1.22,0.5
				C90.11,153.08,90.34,152.53,90.14,152.06z"/>
			<path class="st12" d="M78.25,142.7c0.18-0.14,0.33-0.38,0.35-0.61c0.02-0.24-0.03-0.51-0.19-0.7c-0.17-0.19-0.36-0.29-0.61-0.35
				c-0.2-0.04-0.39-0.08-0.59-0.11c-0.48-0.08-1,0.31-1.04,0.8c-0.05,0.52,0.29,0.96,0.8,1.04c0.2,0.03,0.39,0.07,0.59,0.11
				C77.78,142.94,78.07,142.84,78.25,142.7z"/>
			<path class="st12" d="M78.38,136.15c0.18-0.15,0.33-0.37,0.35-0.61c0.02-0.27-0.06-0.47-0.19-0.7c-0.2-0.33-0.51-0.58-0.86-0.74
				c-0.37-0.18-0.75-0.21-1.15-0.2c-0.23,0-0.5,0.19-0.63,0.36c-0.13,0.18-0.22,0.45-0.18,0.68c0.1,0.55,0.52,0.81,1.04,0.8
				c-0.25,0-0.01,0.01,0.08,0.02c0,0,0,0,0,0c0.01,0,0.02,0.01,0.03,0.02c0.03,0.02,0.07,0.05,0.09,0.07c0,0,0,0,0,0.01
				c0.03,0.04,0.06,0.09,0.09,0.14c0.11,0.19,0.41,0.32,0.61,0.35C77.91,136.37,78.2,136.3,78.38,136.15z"/>
			<path class="st12" d="M72.79,131.72c0.05-0.53-0.29-0.95-0.8-1.04c-0.2-0.04-0.39-0.08-0.59-0.11c-0.48-0.09-1,0.32-1.04,0.8
				c-0.05,0.53,0.29,0.95,0.8,1.04l0.59,0.11C72.23,132.61,72.75,132.2,72.79,131.72z"/>
		</g>
	</g>
</g>
<g>
</g>
<g>
</g>
<g>
</g>
<g>
</g>
<g>
</g>
<g>
</g>
<g>
</g>
<g>
</g>
<g>
</g>
<g>
</g>
<g>
</g>
<g>
</g>
<g>
</g>
<g>
</g>
<g>
</g>
</svg>
