<?xml version="1.0" encoding="utf-8"?>
<!-- Generator: Adobe Illustrator 24.1.2, SVG Export Plug-In . SVG Version: 6.00 Build 0)  -->
<svg version="1.1" id="Layer_1" xmlns="http://www.w3.org/2000/svg" xmlns:xlink="http://www.w3.org/1999/xlink" x="0px" y="0px"
	 viewBox="0 0 145.92 145.92" style="enable-background:new 0 0 145.92 145.92;" xml:space="preserve">
<style type="text/css">
	.st0{clip-path:url(#SVGID_2_);fill:#FBD7E3;}
	.st1{clip-path:url(#SVGID_2_);fill:#F9D682;}
	.st2{clip-path:url(#SVGID_2_);fill:#ADDFE6;}
	.st3{clip-path:url(#SVGID_2_);fill:#6B95C7;}
	.st4{clip-path:url(#SVGID_2_);}
	.st5{fill:#95D5D5;}
	.st6{fill:#6B95C7;}
	.st7{fill:#FFBA05;}
	.st8{opacity:0.53;}
	.st9{fill:#FFFFFF;}
	.st10{clip-path:url(#SVGID_2_);fill:#6BC1BF;}
	.st11{fill:#6BC1BF;}
	.st12{opacity:0.48;fill:#49A5A0;}
	.st13{opacity:0.19;}
	.st14{fill:#025196;}
	.st15{fill:#03477A;}
	.st16{opacity:0.61;}
	.st17{clip-path:url(#SVGID_2_);fill:#D5ADB8;}
	.st18{clip-path:url(#SVGID_2_);fill:#3FA09B;}
	.st19{clip-path:url(#SVGID_2_);fill:#014170;}
</style>
<g>
	<g>
		<defs>
			<rect id="SVGID_1_" width="145.92" height="145.92"/>
		</defs>
		<use xlink:href="#SVGID_1_"  style="overflow:visible;fill:#D5ADB8;"/>
		<clipPath id="SVGID_2_">
			<use xlink:href="#SVGID_1_"  style="overflow:visible;"/>
		</clipPath>
		<path class="st0" d="M55.91,133.17c7.53,1.06,14.92,3.66,22.51,3.27c11.82-0.61,21.9-8.24,31.8-14.74
			c9.89-6.5,21.85-12.33,33.17-8.88c12.62,3.84,19.55,18.93,16.93,31.86c-2.62,12.93-12.85,23.31-24.62,29.25
			c-11.78,5.94-25.05,8.1-38.13,9.88c-25.83,3.5-52.81,5.73-78.39-0.68C8.97,180.56-7.73,178.2-2.3,165.23
			c4.14-9.88,12.9-18.38,21.88-23.91C30.35,134.69,43.3,131.4,55.91,133.17z"/>
		<path class="st1" d="M91,12.73c-1.5,9.13-7.35,17.88-16.03,21.11c-8.1,3.02-17.26,0.99-25.65,3.05
			c-8.87,2.18-16.01,8.67-22.03,15.53c-6.03,6.86-11.46,14.4-18.79,19.85c-7.33,5.45-17.26,8.52-25.7,5.03
			c-12.12-5-15.64-20.16-17.54-33.13c-1.3-8.9-2.61-17.92-1.63-26.87c0.98-8.95,4.51-17.96,11.4-23.75
			c8.11-6.82,19.38-8.17,29.96-8.88c20.11-1.34,40.3-1.37,60.41-0.11c5.56,0.35,16.36-0.91,20.95,3.03
			C91.99-7.56,92.08,6.18,91,12.73z"/>
		<path class="st1" d="M-20.19,58.82c19.97,4.48,38.81,22.28,38.63,43.72c-0.03,3.2-0.4,6.65,1.28,9.38
			c1.71,2.78,5.2,4.03,8.47,4.01s6.42-1.08,9.57-1.96c9.2-2.56,20.8,2.03,23.87,11.88c1.03,3.3,0.93,7.15,3.21,9.75
			c3.03,3.46,8.77,3.05,12.19,6.12c3.78,3.39,3.08,9.86-0.12,13.81c-2.97,3.66-7.12,4.65-10.75,7.28c-3.37,2.43-5.82,4.74-9.87,6.31
			c-9.26,3.6-19.43,4.34-29.28,4.01c-13.07-0.43-26.51-2.7-37.48-9.82c-15.31-9.93-23.53-27.66-29.31-44.96
			c-2.59-7.75-4.84-15.61-7.55-23.31c-2.81-7.97-8.29-15.61-10.71-23.46C-62.52,57.03-30.12,56.59-20.19,58.82z"/>
		<path class="st2" d="M70.55,30.4c9.51,6.62,22.04,7.22,33.45,5.28c5.18-0.88,10.35-2.24,15.6-2.02c5.25,0.22,10.78,2.37,13.45,6.9
			c4.3,7.31-0.48,16.3-3.62,24.18c-3.77,9.46-4.9,20.8,0.57,29.39c5.47,8.59,19.16,11.89,26.08,4.43
			c4.59-4.95,4.82-12.41,4.79-19.17c-0.11-22.37,9.07-68.99-6.07-85.46c-9.81-10.67-34.43,5.91-48.84,4.33
			c-9.14-1-37.93-3.65-44.5,3.33C53.95,9.57,63.85,25.74,70.55,30.4z"/>
		<path class="st3" d="M38.14,16.82c0.04,0,0.08-0.01,0.12-0.01c10.6-1.04,21.22-5.22,28.28-13.19c2.43-2.74,4.47-6.08,4.57-9.74
			c0.27-9.87-12.88-8.66-19.67-9.64c-10.86-1.56-21.79-2.58-32.75-3.06c-9.64-0.43-39.41-5.02-45.78,3.73
			C-35.22-3.93-17.17,4.83-9.3,8.28C5.12,14.6,22.33,18.34,38.14,16.82z"/>
		<g class="st4">
			<g>
				<path class="st5" d="M28.94,42.78c-0.46-0.79-0.99-1.52-1.57-2.21c-3.33-3.92-8.5-6.18-13.54-7.62
					c-0.35-0.1-0.69-0.19-1.04-0.29c-0.27-0.07-0.54-0.15-0.81-0.21c-1.3-0.34-2.6-0.66-3.91-0.99C7.23,28.64,5.77,26,3.81,23.79
					c0.6,2.18,0.81,4.47,0.64,6.72c-2.54-0.72-5.02-1.56-7.36-2.77c-0.21-0.11-0.42-0.22-0.62-0.33c-0.06-0.03-0.12-0.07-0.18-0.1
					c-0.88-0.49-1.72-1.04-2.52-1.65c-0.27-0.2-0.53-0.4-0.78-0.61C-11.96,21-15.23,14.99-16.2,8.69c-0.33-2.11-0.89-5.17,0.06-7.04
					c0.13-0.26,0.29-0.49,0.48-0.7c0.44-0.47,1.05-0.8,1.89-0.92c1.74-0.24,4.09,0.72,5.85,0.88c2.38,0.21,4.78,0.13,7.15,0.43
					c8.39,1.08,15.52,6.92,20.15,14.06c0.15,0.23,0.29,0.46,0.43,0.69c0.19,0.31,0.38,0.62,0.56,0.92c1.48,2.55,2.69,5.23,3.73,7.98
					c-1.71-0.03-3.42,0.27-5.01,0.89c2.14,0.14,4.22,0.86,6.03,2.01c1.41,4.3,2.46,8.74,3.45,13.17
					C28.69,41.64,28.81,42.21,28.94,42.78z"/>
				<path class="st6" d="M18.73,28.13c-2.72-3.25-5.51-6.56-8.6-9.5c2.15,4.28,3.04,9.23,2.66,14.03c-0.27-0.07-0.54-0.15-0.81-0.21
					c0.4-5.43-0.86-11.04-3.81-15.58c-0.24-0.21-0.49-0.43-0.74-0.63C3.1,12.67-1.57,9.1-6.58,6.17c2.04,3.11,3.17,6.91,3.71,10.53
					c0.39,2.63,0.32,5.3,0.26,7.95c-0.03,1.13-0.12,2.11-0.29,3.09c-0.21-0.11-0.42-0.22-0.62-0.33c0.13-1.13,0.09-2.32,0.11-3.46
					c0.05-2.14,0.07-4.3-0.17-6.44c-0.5-4.28-1.95-8.93-4.7-12.31c0,0,0,0,0-0.01c-0.95-0.52-1.91-1.01-2.87-1.48
					C-6.55,9.96-5.89,18-6.23,25.66c-0.27-0.2-0.53-0.4-0.78-0.61c0.3-7.78-0.51-16.03-5.78-22.07c-1.1-0.48-2.22-0.93-3.36-1.32
					c0.13-0.26,0.29-0.49,0.48-0.7c0.82,0.29,1.63,0.61,2.43,0.94c0.13-0.16,0.35-0.23,0.53-0.03c0.14,0.14,0.26,0.28,0.39,0.43
					c7.31,3.23,14,8.17,20.06,13.14c0.08-0.11,0.21-0.18,0.39-0.12c2.52,0.78,4.79,1.06,7.42,0.63c1.13-0.19,2.53-0.26,3.82-0.53
					c0.15,0.23,0.29,0.46,0.43,0.69c-1.1,0.25-2.26,0.36-3.29,0.51c-2.79,0.42-5.06,0.44-7.7-0.26c3.89,3.37,7.3,7.39,10.58,11.32
					c3.47,4.16,6.61,8.61,9.16,13.39c0.13,0.57,0.26,1.14,0.38,1.72c-0.46-0.79-0.99-1.52-1.57-2.21
					C24.94,36.14,21.97,32.02,18.73,28.13z"/>
			</g>
		</g>
		<g class="st4">
			<path class="st7" d="M146.37-12.94c-0.04-0.1-0.08-0.19-0.13-0.28c-0.11-0.21-0.29-0.38-0.51-0.54
				c-0.87-0.66-2.46-0.96-4.12-1.09c-1.65-0.12-3.35-0.02-4.43-0.02c-0.94,0-1.86,0.07-2.81,0.14c-0.94,0.08-1.91,0.15-2.86,0.3
				c-1.9,0.27-3.85,0.59-5.78,1.03c-0.73,0.16-1.47,0.34-2.2,0.58c-0.72,0.26-1.44,0.58-2.12,1c-1.37,0.83-2.55,2.23-2.66,3.48
				c-0.08,0.89,0.34,1.61,0.13,2.51c-0.31,1.33-1.87,2.53-3.31,2.97c-1.4,0.46-2.75,0.37-4.13,0.45c-1.19,0.06-2.43,0.32-3.68,0.79
				c-1.25,0.46-2.45,1.19-3.5,2.19c-1.06,0.99-1.82,2.34-2.12,3.57c-0.3,1.23-0.15,2.35,0.61,2.95c0.96,0.76,2.7,0.77,2.93,2.11
				c0.11,0.72-0.23,1.52-0.78,2.28c-0.54,0.77-1.32,1.5-1.95,2.19c-0.79,0.83-1.56,1.72-2.21,2.67c-0.63,0.96-1.16,1.98-1.52,3.01
				c-0.69,2.1-0.59,4.3,0.53,5.52c0.22,0.24,0.48,0.44,0.76,0.6c0.02,0.02,0.05,0.03,0.08,0.04c1.3,0.67,3.1,0.52,4.68-0.23
				c0.98-0.48,1.94-1.13,2.79-1.92c0.84-0.8,1.65-1.69,2.34-2.64c0.85-1.22,1.67-2.48,2.74-3.51c1.09-1.02,2.65-1.66,3.71-1.17
				c0.71,0.33,1.1,1.09,1.73,1.53c0.44,0.31,0.96,0.45,1.52,0.44c0.56,0,1.16-0.13,1.74-0.37c0.58-0.24,1.15-0.58,1.67-1
				c0.53-0.4,1.01-0.88,1.39-1.4c0.75-1.06,1.27-2.18,1.69-3.37c0.21-0.59,0.38-1.2,0.56-1.8c0.18-0.6,0.37-1.2,0.55-1.79
				c0.47-1.57,1.68-3.5,3.26-3.47c1.19,0.03,1.74,1.25,2.76,1.67c0.56,0.23,1.22,0.21,1.86,0.02c0.64-0.19,1.28-0.56,1.81-0.99
				c1.06-0.88,1.73-2.09,2.42-3.22c0.56-0.95,1.11-1.87,1.68-2.74c0.56-0.88,1.09-1.79,1.56-2.82c0.56-1.19,1.09-2.39,1.59-3.62
				c0.49-1.23,0.98-2.42,1.41-3.66C146.34-11.35,146.61-12.22,146.37-12.94z"/>
			<g class="st8">
				<path class="st9" d="M146.24-13.22c-0.11-0.21-0.29-0.38-0.51-0.54c-5.65,2.74-11.07,5.93-16.21,9.53
					c-11.36,8.06-21.25,18.17-29,29.72l-0.01,0.01l0.07,0.05c0.01-0.01,0.01-0.01,0.01-0.02l1.58-2.07l0.78-1.04l0.81-1.02
					c0.54-0.67,1.07-1.36,1.62-2.03l1.69-1.97c0.54-0.67,1.13-1.31,1.7-1.96c0.58-0.64,1.14-1.3,1.74-1.93
					c1.2-1.25,2.37-2.52,3.62-3.71c4.9-4.88,10.21-9.35,15.87-13.31C135.15-7.18,140.6-10.39,146.24-13.22z"/>
			</g>
		</g>
		<g class="st4">
			<path class="st9" d="M122.43,58.12c0.57-7.95,1.94-14.67,3.63-20.69c1.73-6.01,3.7-11.37,6.15-16.51
				c2.47-5.13,5.28-10.11,8.88-15.25c3.62-5.12,8.07-10.39,13.99-15.77c0.42-0.39,0.02-0.84-0.4-0.44
				c-5.96,5.41-10.43,10.71-14.08,15.86c-3.62,5.17-6.45,10.17-8.93,15.33c-2.46,5.17-4.45,10.56-6.18,16.61
				c-1.7,6.05-3.09,12.81-3.66,20.81C121.81,58.65,122.4,58.69,122.43,58.12z"/>
			<path class="st9" d="M141.9,4.04c-0.84,0.44-1.7,0.83-2.54,1.21c-0.82,0.39-1.65,0.74-2.48,1.06c-1.65,0.64-3.38,1.09-4.97,1.46
				c-1.33,0.3-1.79-0.83-1.53-2.14c0.3-1.28,1.3-2.72,2.66-2.98c1.66-0.32,3.25-0.35,4.77-0.1C139.32,2.8,140.69,3.3,141.9,4.04z"/>
			<path class="st9" d="M138.04,10.62c0,0-2.16,1.09-4.97,2.41c-1.43,0.65-2.88,1.43-4.36,2.1c-1.45,0.68-2.9,1.26-4.03,1.62
				c-1.17,0.38-1.73-0.6-1.61-1.8c0.13-1.19,0.88-2.6,2.11-3.05c2.19-0.83,5.51-1.19,8.15-1.3
				C135.99,10.5,138.04,10.62,138.04,10.62z"/>
			<g>
				<path class="st9" d="M121.32,22.41c1.8-1.03,3.76-1.68,5.67-2.17c1.94-0.47,3.85-0.76,5.9-0.89c-2.09,1.43-3.96,2.84-5.88,4.08
					c-1.84,1.27-3.61,2.44-5.42,3.42C119.35,28.1,119.08,23.69,121.32,22.41z"/>
			</g>
			<g>
				<path class="st9" d="M116.93,32.48c1.93-1.41,3.93-2.47,5.97-3.3c2.04-0.83,4.25-1.38,6.44-1.84c-1.04,0.93-2.11,1.82-3.09,2.71
					c-0.97,0.89-1.93,1.76-2.88,2.58c-1.96,1.64-3.67,3.2-5.55,4.56c-1.12,0.83-1.91,0.12-2.13-1.05
					C115.48,34.97,115.82,33.34,116.93,32.48z"/>
			</g>
			<g>
				<path class="st9" d="M116.78,41.98c2.62-2.56,5.78-4.05,9.32-5.51c-3.09,3.69-5.49,6.72-8.12,9.19
					c-0.84,0.83-1.59,0.35-1.92-0.57C115.72,44.17,115.91,42.83,116.78,41.98z"/>
			</g>
			<path class="st9" d="M120.66,66.38c-0.05-3.72,0.46-7.4,1.59-10.63c0.38,3.51,0.53,7.1,0.5,10.68
				C122.71,68.42,120.65,68.43,120.66,66.38z"/>
			<path class="st9" d="M124.34,43.48c-0.52,0.69-1.02,1.39-1.52,2.1c-0.49,0.71-0.92,1.44-1.39,2.16
				c-0.89,1.44-1.89,2.84-2.79,4.14c-0.62,0.87-1.33,0.65-1.72-0.04c-0.2-0.34-0.32-0.8-0.31-1.29c0.03-0.48,0.19-0.99,0.51-1.45
				c1.17-1.6,2.91-3.06,4.45-4.05C123.11,44.06,124.34,43.48,124.34,43.48z"/>
			<path class="st9" d="M123.08,51.62c-0.63,1.04-1.22,2.13-1.81,3.2c-0.6,1.06-1.22,2.1-1.81,3.05c-0.81,1.29-2.09-0.55-1.23-1.89
				c0.77-1.18,1.98-2.28,3-3.08C122.26,52.11,123.08,51.62,123.08,51.62z"/>
			<path class="st9" d="M142.59,4.55c-0.18,0.92-0.33,1.82-0.39,2.71c-0.05,0.91-0.05,1.79,0,2.64c0.11,1.72,0.34,3.29,0.85,4.81
				c0.42,1.25,1.56,1.19,2.49,0.56c0.98-0.61,1.75-1.81,1.4-3.07C146.05,9.13,144.73,6.47,142.59,4.55z"/>
			<path class="st9" d="M137.78,10.45c0,0,0,2.51,0.27,5.44c0.1,1.45,0.42,3.08,0.74,4.54c0.34,1.47,0.72,2.8,1.21,3.81
				c0.53,1.06,1.53,0.93,2.34,0.32c0.82-0.61,1.4-1.73,1-2.85c-0.77-2.05-2.14-4.77-3.35-7.09
				C138.75,12.29,137.78,10.45,137.78,10.45z"/>
			<g>
				<path class="st9" d="M138.42,29.57c-0.71-1.79-1.46-3.45-2.41-5.14c-0.92-1.67-2.02-3.36-3.06-5.05
					c0.06,2.51,0.36,4.84,0.71,6.92c0.42,2.11,1.01,4.03,1.73,5.75C136.3,34.14,139.28,31.72,138.42,29.57z"/>
			</g>
			<g>
				<path class="st9" d="M135.92,38.34c-0.81-1.91-1.83-3.74-2.98-5.56c-1.16-1.82-2.32-3.59-3.62-5.46
					c0.14,1.41,0.25,2.73,0.47,4.01c0.23,1.28,0.49,2.5,0.78,3.65c0.53,2.29,1.41,4.39,2.34,6.24c0.58,1.12,1.61,0.94,2.36,0.23
					C136.01,40.74,136.46,39.5,135.92,38.34z"/>
			</g>
			<g>
				<path class="st9" d="M131.8,45.29c-1.48-3.03-3.4-5.63-5.65-8.8c0.59,4.77,1.61,8.35,3.15,11.3c0.54,0.97,1.4,0.81,1.98,0.19
					C131.87,47.35,132.28,46.28,131.8,45.29z"/>
			</g>
			<path class="st9" d="M124.31,43.48c0.17,0.84,0.33,1.67,0.5,2.5c0.17,0.83,0.39,1.65,0.58,2.46c0.43,1.61,0.8,3.12,1.46,4.51
				c0.43,0.93,1.16,0.88,1.69,0.38c0.26-0.25,0.47-0.61,0.57-1.02c0.12-0.41,0.13-0.88-0.05-1.35c-0.6-1.66-1.88-3.51-2.89-4.96
				C125.17,44.54,124.31,43.48,124.31,43.48z"/>
			<path class="st9" d="M122.59,51.56c0.36,1.18,0.72,2.36,1.08,3.51c0.35,1.13,0.71,2.22,1.25,3.19c0.7,1.3,2.06-0.23,1.48-1.55
				c-0.51-1.18-1.46-2.45-2.28-3.45C123.28,52.26,122.59,51.56,122.59,51.56z"/>
		</g>
		<path class="st10" d="M133.9,83.23c-1.75-1.53-3.73-2.93-6-3.45c-2.27-0.52-4.9,0.01-6.4,1.79c-1.46,1.74-1.58,4.23-1.29,6.48
			c0.49,3.85,1.95,7.56,4.22,10.71c1.75,2.42,4.07,5.48,2.49,8.01c-1.18,1.88-3.81,2.08-5.66,3.3c-2.94,1.94-3.38,6.33-1.81,9.48
			s4.61,5.28,7.67,7.02c3.06,1.75,6.31,3.29,8.78,5.79c3,3.04,4.58,7.21,7.3,10.5c2.72,3.29,7.6,5.64,11.22,3.38
			c3.67-2.3,3.65-7.61,2.84-11.87c-0.6-3.18-1.62-6.24-2.32-9.38c-0.68-3.04-0.94-6.27-1.4-9.37c-0.97-6.63-1.95-13.27-2.92-19.9
			c-0.29-2-0.61-4.06-1.67-5.77c-1.06-1.72-3.08-3.01-5.05-2.6c-1.07,0.22-1.99,0.9-3.06,1.11
			C137.87,89.03,135.84,84.93,133.9,83.23z"/>
		<g class="st4">
			<g>
				<path class="st9" d="M133.16,118.85c-0.92-0.74-1.83-1.47-2.79-2.12c-0.97-0.64-1.94-1.25-2.92-1.81l-0.32-0.19
					c-0.48-0.29-1-0.53-1.5-0.77c-0.94-0.45-1.89-0.87-2.82-1.25c-0.26-0.12-0.54-0.22-0.85-0.32l-0.8-0.26
					c-1.33-0.42-2.67-0.83-4.04-1.09l-1.12-0.2l-0.07,0.47c-0.09,0.64-0.18,1.27-0.27,1.9c-0.2,1.6-0.33,3.04-0.37,4.35
					c-0.34-0.47-0.67-0.99-1.01-1.52c-0.86-1.37-1.59-2.99-2.26-4.76c-0.54-1.37-1.6-1.48-2.7-1.59c-0.27-0.03-0.55-0.05-0.83-0.1
					c-1.22-0.16-2.67-0.3-4.17-0.27c-1.82,0.07-3.77,0.42-5.51,1.81c-0.28,0.22-0.48,0.63-0.53,1.04l-0.04,0.06
					c-0.1,0.17-0.13,0.38-0.09,0.56l0.11,0.46c1.24,4.97,2.74,9.31,4.46,13.15l0.11,0.24l0.04,0.1c0.27,0.58,0.55,1.16,0.84,1.71
					c0.09,0.18,0.18,0.35,0.27,0.53c0.38,0.75,0.77,1.47,1.18,2.16c0.43,0.68,0.85,1.35,1.27,2.03c0.44,0.66,0.89,1.3,1.37,1.9
					c0.47,0.63,0.94,1.25,1.45,1.82c0.84,0.91,1.67,1.89,2.59,2.73c0.15,0.14,0.3,0.31,0.44,0.47c0.41,0.5,0.81,1.03,1.56,1.12
					c0.9,0.1,2.05-0.17,3.13-0.36c0.22-0.04,0.43-0.08,0.65-0.11c1.49-0.24,2.78-0.42,4.02-0.42c0.81,0.01,1.47,0.08,2.02,0.22
					c-0.39,0.1-0.81,0.24-1.28,0.43c-0.97,0.39-2.03,0.92-3.35,1.69l-0.06,0.04c-0.62,0.37-1.08,0.64-1.3,1.03
					c-0.2,0.35-0.08,0.58,0.07,0.75c0.33,0.4,0.85,0.61,1.35,0.82c0.24,0.1,0.49,0.2,0.71,0.32l0.06,0.03l0.38,0.2l0.28,0.16
					l0.05,0.03c0.49,0.28,1.01,0.55,1.54,0.8l0.36,0.17l0.4,0.18c0.49,0.2,1.02,0.42,1.56,0.64l0.4,0.16
					c0.69,0.26,1.38,0.51,2.07,0.77c0.21,0.08,0.43,0.16,0.63,0.25c1.2,0.52,2.59,1.04,4.23,1.36c1.31,0.27,2.95,0.48,4.9-0.28
					c0.06-0.03,0.13-0.05,0.2-0.08c0.21-0.09,0.41-0.19,0.6-0.29c1.39-0.76,2.55-2,3.39-3.78c1.04-2.16,1.28-4.27,1.36-6.26
					l0.03-1.07l0-0.59c-0.09-4.8-1.21-9.18-3.2-12.55c-1.24-2.24-3.02-4-4.79-5.61C133.93,119.48,133.55,119.16,133.16,118.85z
					 M118.31,143.93c-0.14-0.17-0.13-0.27-0.14-0.27c0.09-0.1,0.48-0.33,0.79-0.51l0.06-0.04c1.28-0.74,2.31-1.26,3.25-1.63
					c1.03-0.41,1.83-0.59,2.47-0.56l0.23-0.02l0.34-0.49l-0.14-0.07c-0.98-0.53-2.27-0.62-3.14-0.63c-1.27,0.01-2.57,0.18-4.08,0.41
					c-0.22,0.04-0.43,0.07-0.65,0.11c-1.05,0.17-2.19,0.45-3.03,0.34c-0.68-0.08-1.07-0.59-1.46-1.07c-0.15-0.17-0.3-0.34-0.46-0.48
					c-0.93-0.84-1.75-1.82-2.6-2.74c-0.51-0.58-0.99-1.19-1.46-1.83c-0.48-0.6-0.94-1.23-1.38-1.89c-0.86-1.36-1.73-2.66-2.47-4.17
					c-0.09-0.17-0.18-0.35-0.26-0.53c-0.29-0.54-0.58-1.11-0.85-1.69l-0.05-0.1c-0.03-0.08-0.07-0.15-0.11-0.23
					c-1.72-3.82-3.22-8.12-4.45-13.02l-0.01-0.05l0.07,0.02l-0.03-0.57l0-0.08l0,0c0.01-0.15,0.07-0.28,0.17-0.36
					c1.64-1.31,3.51-1.66,5.25-1.72c1.47-0.04,2.9,0.09,4.09,0.26c0.28,0.05,0.57,0.07,0.85,0.1c1.04,0.1,1.95,0.19,2.41,1.36
					c0.69,1.77,1.42,3.44,2.28,4.82c0.5,0.77,0.98,1.52,1.48,2.11l0.1,0.16l0.43-0.34l0-0.25c-0.01-1.52,0.14-3.26,0.39-5.23
					c0.06-0.46,0.13-0.93,0.2-1.39l0.44,0.08c1.35,0.26,2.67,0.66,3.98,1.07l0.82,0.27c0.28,0.09,0.54,0.2,0.8,0.31
					c0.92,0.37,1.86,0.79,2.78,1.23c0.5,0.24,1.01,0.48,1.48,0.76c0.11,0.06,0.21,0.12,0.34,0.2c0.95,0.55,1.91,1.15,2.86,1.78
					c0.94,0.64,1.84,1.36,2.75,2.09c1.1,0.86,2.16,1.84,3.17,2.91c0.5,0.53,1,1.08,1.45,1.67c0.44,0.6,0.85,1.23,1.23,1.88
					c1.95,3.31,3.03,7.63,3.13,12.35l0,0.59c-0.01,0.35-0.02,0.7-0.03,1.06c-0.09,1.95-0.31,3.98-1.32,6.08
					c-0.52,1.1-1.46,2.54-2.93,3.35c-0.15,0.09-0.31,0.16-0.48,0.24c-0.05,0.02-0.11,0.05-0.16,0.07c-1.71,0.68-3.21,0.47-4.44,0.21
					c-1.63-0.31-2.98-0.83-4.18-1.35c-0.2-0.09-0.43-0.17-0.64-0.25c-0.7-0.26-1.39-0.53-2.08-0.79l-0.4-0.16
					c-0.54-0.22-1.07-0.44-1.56-0.64c-0.13-0.06-0.27-0.12-0.42-0.19l-0.34-0.16c-0.53-0.25-1.04-0.52-1.53-0.8l-0.05-0.03
					c-0.09-0.05-0.19-0.1-0.28-0.16l-0.38-0.2l-0.06-0.03c-0.23-0.13-0.48-0.23-0.74-0.34c-0.45-0.19-0.91-0.38-1.23-0.7
					L118.31,143.93z"/>
			</g>
			<g>
				<path class="st9" d="M98.35,111.93c3.83,3.56,7.4,6.76,10.92,9.78c3.5,3.02,6.96,5.85,10.35,8.74c3.39,2.89,6.74,5.81,9.97,8.91
					c3.22,3.1,6.35,6.38,9.1,9.96c0.98,1.23,1.84,2.37,2.8,3.42c0.91,1.09,1.82,2.14,2.84,3.26l-0.64,0.37
					c-1.02-1.11-1.93-2.16-2.83-3.24c-0.96-1.05-1.82-2.18-2.79-3.4c-2.73-3.55-5.84-6.8-9.03-9.87c-3.21-3.08-6.53-5.97-9.89-8.84
					c-3.36-2.88-6.79-5.68-10.26-8.69c-3.48-3-7.03-6.19-10.84-9.75L98.35,111.93z"/>
			</g>
			<g>
				<path class="st9" d="M123.7,134.2l-0.19,0.59c-5.18,1.49-9.86,2.53-13.64,2.71l0.31-0.64
					C113.94,136.69,118.57,135.69,123.7,134.2z"/>
			</g>
			<g>
				<path class="st9" d="M117.31,128.92l-0.1,0.6c-1.87,0.85-3.72,1.67-5.43,2.33c-0.86,0.33-1.69,0.62-2.5,0.89
					c-0.82,0.29-1.62,0.54-2.39,0.75l0.22-0.66c1.53-0.42,3.16-1,4.84-1.62C113.63,130.58,115.46,129.76,117.31,128.92z"/>
			</g>
			<g>
				<path class="st9" d="M134.98,120.39c-2.75,7.2-4.33,14.02-4.7,19.51l-0.62,0.3c0.2-2.8,0.67-5.87,1.49-9.25
					c0.8-3.35,1.86-6.9,3.27-10.57L134.98,120.39z"/>
			</g>
			<g>
				<path class="st9" d="M138.82,125.51c-0.7,1.83-1.31,3.54-1.86,5.18c-0.56,1.66-1.05,3.23-1.45,4.73
					c-0.78,2.97-1.38,5.78-1.6,8.37l-0.65,0.26c0.24-2.63,0.84-5.46,1.63-8.48c0.41-1.52,0.91-3.12,1.47-4.79
					c0.54-1.66,1.17-3.4,1.87-5.26L138.82,125.51z"/>
			</g>
		</g>
		<g class="st4">
			<path class="st11" d="M-0.48,90.07c-3.27,3.29-5.53,7.4-7.43,11.99c-1.9,4.58-3.43,9.62-5.02,14.52
				c-1.64,5.08-3.61,10.38-6.29,15.12c7.18,1.47,15.41-0.18,22.36-4.43c9.67-5.89,17.11-16.26,21.58-27.42
				c2.25-5.56,3.64-11.6,4.68-17.47c0.51-2.95,0.94-5.85,1.38-8.68c0.42-2.84,0.85-5.6,1.41-8.3c-1.47,3.5-3.85,6.38-6.61,8.73
				c-2.76,2.36-5.9,4.2-9.04,5.82C10.23,83.22,4.03,85.49-0.48,90.07z"/>
			<path class="st12" d="M9.85,84.76c-2.97,1.99-5.48,3.55-7.65,5.4c-2.18,1.84-4.03,3.97-5.9,7.05
				c-2.76,4.57-4.74,10.41-6.86,16.45c-2.11,6.03-4.28,12.21-7.06,17.23c5.77-1.12,9.4-8.69,13.18-13.43
				c4.23-5.33,5.94-9.68,9.16-15.47c2.98-5.41,7.32-9.99,11.85-14.76c4.52-4.73,9.17-9.75,12.52-15.11
				c-3.02,2.55-6.38,4.75-9.69,6.77C16.1,80.92,12.82,82.77,9.85,84.76z"/>
			<g class="st13">
				<g>
					<path class="st9" d="M32.48,65.52c-1.12,3.25-2.89,5.75-4.96,7.82c-2.06,2.08-4.52,3.71-7.14,5.27
						c-0.94,0.54-1.86,1.09-2.86,1.62c-3.76,2.08-7.76,3.98-11.27,6.06c-3.52,2.1-6.59,4.38-8.62,7.53
						c-4.21,6.49-6.19,13.45-8.42,20.34c-2.02,6.19-4.18,12.08-8.43,17.5l-0.17-0.13c4.23-5.39,6.38-11.26,8.39-17.43
						c2.23-6.91,4.22-13.88,8.45-20.4c2.05-3.18,5.13-5.48,8.66-7.58c3.53-2.09,7.54-3.99,11.31-6.08c0.99-0.53,1.92-1.08,2.86-1.62
						c5.19-3.09,9.72-6.55,12-12.98L32.48,65.52z"/>
				</g>
				<g>
					<path class="st9" d="M32.42,65.68c-2.16,6.13-6.34,9.8-11.2,13.21c-0.96,0.65-1.91,1.31-2.92,1.95
						c-6.49,4.24-13.28,7.48-17.49,12.25c-0.6,0.69-1.18,1.43-1.68,2.21c-4.1,6.28-6.35,12.82-8.8,19.26
						c-2.36,6.16-4.86,11.99-9.44,17.14l-0.16-0.14c4.56-5.11,7.05-10.93,9.4-17.06c2.46-6.46,4.72-13.02,8.83-19.31
						c0.51-0.79,1.09-1.53,1.7-2.24c4.24-4.79,11.04-8.04,17.54-12.29c1.02-0.64,1.96-1.3,2.92-1.95c4.83-3.39,8.98-7.04,11.12-13.1
						L32.42,65.68z"/>
				</g>
				<g>
					<path class="st9" d="M32.36,65.83c-2.01,5.74-5.79,9.58-10.27,13.25c-0.99,0.78-1.97,1.58-3.02,2.35
						c-2.42,1.84-5.52,3.94-8.56,6.1c-3.04,2.18-6.03,4.44-8.21,6.97c-0.58,0.69-1.17,1.44-1.69,2.25
						c-3.94,5.99-6.4,12.08-9.04,18.05c-2.74,6.19-5.62,12.04-10.61,16.91l-0.15-0.15c4.96-4.84,7.82-10.67,10.56-16.83
						c2.64-5.98,5.11-12.08,9.06-18.08c0.52-0.81,1.11-1.57,1.71-2.27c2.2-2.54,5.19-4.82,8.24-7c3.05-2.17,6.16-4.27,8.57-6.11
						c1.05-0.78,2.03-1.57,3.02-2.35c4.45-3.65,8.21-7.47,10.2-13.15L32.36,65.83z"/>
				</g>
				<g>
					<path class="st9" d="M32.31,65.98c-1.85,5.32-5.21,9.27-9.28,13.17c-1.04,0.95-2.07,1.93-3.19,2.88
						c-2.43,2.14-5.4,4.46-8.29,6.77c-2.89,2.33-5.69,4.67-7.77,7.13c-0.56,0.69-1.16,1.45-1.7,2.29
						c-3.73,5.62-6.33,11.21-9.07,16.66c-3.18,6.31-6.5,12.23-11.97,16.84l-0.14-0.16c5.44-4.58,8.74-10.48,11.91-16.77
						c2.74-5.45,5.35-11.05,9.09-16.69c0.54-0.84,1.14-1.61,1.71-2.31c2.09-2.47,4.9-4.82,7.79-7.15c2.89-2.32,5.87-4.64,8.3-6.78
						c1.11-0.96,2.15-1.93,3.18-2.88c4.06-3.88,7.39-7.81,9.22-13.08L32.31,65.98z"/>
				</g>
				<g>
					<path class="st9" d="M32.25,66.13c-0.82,2.43-2.04,4.68-3.42,6.82c-1.43,2.12-3.03,4.14-4.79,6.07
						c-1.09,1.2-2.23,2.41-3.44,3.62c-5.46,5.55-11.48,10.3-15.34,14.74c-0.63,0.74-1.2,1.55-1.7,2.32
						c-3.45,5.15-6.09,10.2-8.85,15.08c-3.7,6.53-7.53,12.63-13.58,16.97l-0.12-0.17c6.02-4.32,9.83-10.39,13.52-16.89
						c2.76-4.88,5.4-9.94,8.86-15.1c0.5-0.78,1.07-1.59,1.72-2.34c3.87-4.45,9.9-9.2,15.36-14.75c1.2-1.2,2.34-2.41,3.43-3.61
						c1.76-1.92,3.34-3.93,4.76-6.04c1.38-2.13,2.58-4.37,3.4-6.77L32.25,66.13z"/>
				</g>
				<g>
					<path class="st9" d="M32.19,66.29c-1.49,4.29-3.98,8.37-6.96,12.23c-0.6,0.79-1.22,1.58-1.87,2.36
						c-0.63,0.79-1.31,1.58-1.99,2.37C16.56,88.9,10.58,94.36,6.74,98.82c-0.62,0.73-1.16,1.52-1.71,2.36
						c-3.08,4.57-5.65,9.01-8.3,13.26c-4.3,6.89-8.76,13.27-15.52,17.32l-0.1-0.19c6.72-4.02,11.15-10.38,15.44-17.24
						c2.65-4.26,5.23-8.7,8.31-13.27c0.55-0.84,1.1-1.64,1.72-2.38c3.85-4.47,9.83-9.92,14.64-15.58c0.68-0.79,1.35-1.57,1.99-2.37
						c0.65-0.78,1.27-1.57,1.87-2.36c2.97-3.85,5.45-7.91,6.93-12.17L32.19,66.29z"/>
				</g>
				<g>
					<path class="st9" d="M32.13,66.44c-1.21,3.54-3.11,7.2-5.38,10.79c-1.41,2.2-2.93,4.41-4.62,6.64
						c-2.26,3.02-4.83,6.04-7.32,8.82c-2.48,2.78-4.84,5.34-6.6,7.59c-0.53,0.67-1.07,1.43-1.71,2.39
						c-2.62,3.86-4.97,7.61-7.37,11.17c-5.23,7.76-10.22,14.23-17.83,17.95l-0.09-0.19c7.56-3.7,12.53-10.15,17.74-17.87
						c2.4-3.56,4.75-7.31,7.37-11.17c0.65-0.96,1.19-1.73,1.73-2.4c0.12-0.15,0.24-0.31,0.37-0.47c3.58-4.39,9.21-10.07,13.55-15.93
						c1.69-2.23,3.2-4.43,4.61-6.63c2.27-3.58,4.16-7.22,5.36-10.74L32.13,66.44z"/>
				</g>
				<g>
					<path class="st9" d="M32.07,66.59c-0.74,2.23-1.78,4.63-2.96,7.09c-1.67,3.42-3.81,7.1-6.22,10.8
						c-4.16,6.49-9.86,12.88-13.21,17.24c-0.65,0.83-1.22,1.7-1.72,2.42c-2.05,3.01-4.01,5.93-5.98,8.72
						c-6.1,8.58-11.97,15.61-20.6,18.93l-0.07-0.2c8.58-3.3,14.42-10.3,20.5-18.85c1.97-2.79,3.93-5.71,5.98-8.72
						c0.5-0.72,1.07-1.6,1.73-2.43c3.35-4.37,9.04-10.75,13.2-17.23c2.41-3.69,4.55-7.37,6.21-10.78c1.18-2.45,2.22-4.84,2.95-7.07
						L32.07,66.59z"/>
				</g>
				<g>
					<path class="st9" d="M-5.13,123.82c-3.98,3.72-8.27,6.52-13.42,7.99l-0.05-0.21c9.81-2.81,16.71-10.58,23.78-20.29
						c1.34-1.87,2.7-3.81,4.05-5.79c0.52-0.74,1.1-1.64,1.73-2.46c3.01-4.05,8.15-10.43,12.49-18.05
						c4.14-7.23,6.91-13.93,8.36-18.32l0.2,0.07c-1.45,4.4-4.23,11.11-8.37,18.36c-4.34,7.64-9.5,14.02-12.5,18.07
						c-0.63,0.82-1.2,1.71-1.72,2.46c-1.35,1.99-2.71,3.93-4.06,5.8C1.96,116.12-1.44,120.36-5.13,123.82z"/>
				</g>
				<g>
					<path class="st9" d="M-1.47,122.24c-5.03,4.82-10.52,8.33-16.99,9.58l-0.03-0.21c5.69-1.1,10.61-3.96,15.14-7.93
						c4.53-3.97,8.64-9.03,12.52-14.49c0.52-0.71,1.02-1.45,1.53-2.19c0.57-0.81,1.13-1.68,1.73-2.49
						c2.36-3.37,6.84-9.15,11.78-18.88c3.73-7.5,6.09-14.32,7.55-18.81l0.2,0.07c-1.46,4.49-3.83,11.32-7.56,18.83
						c-4.95,9.75-9.44,15.54-11.8,18.91c-0.6,0.81-1.16,1.68-1.73,2.49c-0.51,0.73-1.01,1.47-1.53,2.19
						C5.96,114.07,2.39,118.54-1.47,122.24z"/>
				</g>
				<g>
					<path class="st9" d="M2.15,120.97c-6.16,6.04-12.77,10.04-20.53,10.86l-0.01-0.21c6.1-0.65,11.47-3.27,16.5-7.31
						c5.02-4.05,9.68-9.51,14.04-15.81l0.29-0.42c0.47-0.69,0.96-1.4,1.44-2.1c1.2-1.73,2.86-4.18,4.6-7.13
						c2.25-3.74,4.54-8.15,6.47-12.57c3.77-8.79,5.48-15.45,6.75-19.29l0.2,0.07c-1.27,3.84-2.98,10.5-6.76,19.3
						c-1.93,4.44-4.23,8.85-6.48,12.6c-1.75,2.96-3.41,5.41-4.61,7.15c-0.48,0.69-0.96,1.41-1.43,2.09l-0.29,0.42
						C9.11,113.26,5.71,117.46,2.15,120.97z"/>
				</g>
				<g>
					<path class="st9" d="M5.68,119.95c-2.15,2.17-4.23,3.94-6.32,5.46c-5.93,4.29-11.72,6.28-17.66,6.42l0.01-0.21
						c6.56-0.15,12.52-2.7,17.9-6.67c5.37-3.97,10.11-9.37,13.99-14.96l0.67-0.97c0.35-0.53,0.71-1.05,1.06-1.58
						c1.73-2.56,4.46-7.13,7.06-12.69c1.17-2.53,2.31-5.18,3.3-7.84c1.85-4.94,3.02-9.04,3.91-12.31c0.88-3.28,1.49-5.73,2.05-7.47
						l0.2,0.07c-0.56,1.73-1.17,4.19-2.05,7.46c-0.89,3.27-2.06,7.38-3.91,12.32c-1,2.67-2.14,5.32-3.31,7.86
						c-2.61,5.57-5.34,10.16-7.07,12.72c-0.35,0.52-0.7,1.05-1.05,1.57l-0.68,0.98C10.96,114.14,8.27,117.34,5.68,119.95z"/>
				</g>
				<g>
					<path class="st9" d="M8.86,119.37c-4.51,4.66-9.1,7.89-13.61,9.91c-4.52,2.01-8.99,2.83-13.47,2.58l0.03-0.21
						c5.51,0.31,11.03-1.01,16.63-4.23c5.57-3.23,11.32-8.38,16.6-15.91c0.51-0.73,1.01-1.47,1.49-2.2l0.24-0.37
						c1.64-2.52,4.36-7.57,6.85-13.68c1-2.49,1.97-5.08,2.81-7.69c1.18-3.62,2.27-7.69,3.09-11.35c0.84-3.66,1.42-6.92,2.07-8.93
						l0.2,0.07c-0.65,2-1.23,5.26-2.07,8.92c-0.82,3.66-1.91,7.72-3.09,11.35c-0.84,2.62-1.81,5.21-2.81,7.71
						c-2.49,6.12-5.22,11.19-6.87,13.71l-0.24,0.37c-0.47,0.74-0.98,1.48-1.49,2.21C13.16,114.54,11.02,117.12,8.86,119.37z"/>
				</g>
				<g>
					<path class="st9" d="M11.57,119.33c-3.61,3.82-8.1,7.4-13.14,9.77c-5.04,2.37-10.62,3.54-16.57,2.76l0.04-0.21
						c8.23,1.08,15.78-1.63,22.11-6.04c6.33-4.38,11.27-10.48,14.19-15.21c1.47-2.36,4.03-7.57,6.28-13.83
						c1.97-5.38,3.65-11.55,4.72-16.93c1.1-5.38,1.6-9.94,2.33-12.22l0.2,0.07c-0.06,0.21-0.12,0.44-0.19,0.68
						c-0.65,2.54-1.18,7.06-2.29,12.26c-1.05,5.2-2.69,11.06-4.56,16.19c-2.26,6.28-4.82,11.5-6.3,13.88
						C16.71,113.19,14.42,116.33,11.57,119.33z"/>
				</g>
			</g>
		</g>
		<g class="st4">
			<g>
				<g>
					<path class="st14" d="M2.31,166.65c-2.22-3.04-5.24-7.71-6.96-13.53c-0.06-0.15-0.1-0.29-0.14-0.43
						c-0.29-1.04-0.58-2.13-0.78-3.21c-0.04-0.14-0.06-0.27-0.09-0.39c-0.17-0.96-0.31-1.97-0.41-3c-0.01-0.11-0.02-0.23-0.03-0.35
						c-0.08-0.93-0.13-1.88-0.12-2.85c0-0.1,0-0.22,0.01-0.33c0.03-0.88,0.08-1.78,0.19-2.68c0.01-0.1,0.02-0.2,0.04-0.3
						c0.11-0.84,0.25-1.7,0.45-2.55c0.01-0.1,0.03-0.19,0.06-0.29c0.19-0.79,0.41-1.6,0.69-2.4c0.03-0.1,0.05-0.19,0.1-0.28
						c0.24-0.76,0.53-1.5,0.84-2.27c0.05-0.09,0.09-0.16,0.12-0.26c0.32-0.69,0.68-1.39,1.07-2.08c0.03-0.1,0.07-0.18,0.13-0.25
						c0.36-0.67,0.75-1.32,1.18-1.97c0.05-0.09,0.09-0.17,0.15-0.24c0.41-0.62,0.85-1.22,1.32-1.82c0.06-0.07,0.11-0.16,0.19-0.22
						c0.37-0.48,0.76-0.96,1.17-1.43c0.07-0.08,0.15-0.17,0.25-0.26c0.04-0.08,0.12-0.14,0.18-0.21c0.42-0.45,0.97-0.93,1.57-1.49
						c0.07-0.05,0.15-0.11,0.21-0.17c0.49-0.43,1.04-0.89,1.62-1.37c0.06-0.06,0.14-0.12,0.22-0.18c0.52-0.44,1.1-0.89,1.7-1.34
						l0.26-0.19c0.49-0.37,1-0.76,1.52-1.15l0.26-0.19c0.51-0.39,1.02-0.78,1.56-1.16c0.07-0.05,0.15-0.1,0.23-0.15
						c0.52-0.39,1.06-0.76,1.59-1.13c0.08-0.05,0.16-0.1,0.22-0.16l0.01-0.01c0.54-0.37,1.07-0.72,1.61-1.09
						c0.08-0.06,0.15-0.11,0.22-0.17c0.54-0.38,1.09-0.72,1.63-1.08c0.08-0.05,0.17-0.11,0.26-0.16c0.56-0.37,1.09-0.73,1.62-1.08
						c0.09-0.06,0.17-0.11,0.24-0.18c0.58-0.37,1.13-0.75,1.68-1.08c0.07-0.06,0.16-0.11,0.24-0.16c0.58-0.38,1.14-0.76,1.65-1.09
						c0.08-0.07,0.17-0.13,0.26-0.18c0.62-0.43,1.18-0.83,1.65-1.16l0.22-0.18c0.41-0.3,0.74-0.57,0.98-0.8
						c0.21-0.2,0.42-0.37,0.64-0.56l0.23-0.19c0.44-0.37,0.88-0.71,1.34-1.05c0.57,1.41,1.02,2.8,1.35,4.15
						c0.52,2.12,0.69,4.09,0.53,5.82c0.42-0.68,0.82-1.38,1.15-2.13c0.07-0.13,0.13-0.25,0.18-0.4c0.43-0.92,0.78-1.92,1.09-2.97
						c0.06-0.17,0.11-0.36,0.16-0.54c0.22-0.77,0.42-1.57,0.58-2.4c0.11-0.49,0.18-1,0.26-1.51l0.01-0.01
						c0.03-0.21,0.06-0.43,0.08-0.66c0-0.02,0-0.02,0-0.02c0.13-0.74,0.19-1.53,0.26-2.33c0.34-0.12,0.67-0.23,1.02-0.35
						c0.09-0.02,0.18-0.04,0.28-0.07c0.66-0.19,1.32-0.37,2.01-0.51c0.09-0.02,0.19-0.05,0.29-0.05c0.68-0.14,1.36-0.27,2.08-0.34
						c0.09-0.02,0.2-0.03,0.3-0.03c0.71-0.07,1.41-0.12,2.13-0.15c0.1,0,0.2,0,0.29,0c0.18-0.01,0.37-0.01,0.56-0.01
						c0.41,0.01,0.96,0.03,1.59,0.05c0.1,0.02,0.2,0.02,0.3,0.02c0.63,0.05,1.36,0.12,2.15,0.21c0.1,0.02,0.21,0.04,0.31,0.04
						c0.68,0.1,1.4,0.2,2.13,0.34c0.1,0,0.21,0.02,0.31,0.04c0.68,0.12,1.38,0.26,2.06,0.41c0.11,0.02,0.21,0.04,0.32,0.07
						c0.67,0.16,1.34,0.33,1.99,0.52c0.12,0.04,0.23,0.07,0.34,0.11c0.65,0.18,1.27,0.4,1.87,0.64l0.32,0.13
						c2.03,0.8,3.57,1.8,4.1,2.89c0.66,1.4,0.63,2.69,0.52,3.77c-0.31,2.78-1.91,6.36-4.15,10.29c-2.27,3.9-5.14,8.19-8.26,12.31
						c-5.07,2.56-11.14,4.03-18.31,4.57c4.29,1.71,8.3,2.81,11.84,3.29c-0.92,0.97-1.79,1.96-2.72,2.86
						c-2.46,2.45-8.36,7.05-15.15,11.98c-3.39,2.47-7.04,5-10.7,7.26C9.11,163.68,5.65,165.35,2.31,166.65z"/>
				</g>
				<g>
					<path class="st15" d="M58.88,105.31c-4.55,6.72-10.04,11.67-16,16.12c-5.93,4.46-12.39,8.39-18.5,12.97
						c-6.02,4.64-11.35,10.22-15.21,16.75c-0.97,1.63-1.82,3.33-2.59,5.07c-0.79,1.73-1.45,3.52-1.94,5.31
						c-1,3.57-1.27,7.25-0.34,10.43c0.06,0.19-0.23,0.26-0.64,0.17c-0.4-0.09-0.76-0.3-0.83-0.49c-1.29-3.44-1.13-7.41-0.14-11.13
						c0.49-1.87,1.17-3.71,2.01-5.46c0.81-1.76,1.74-3.47,2.8-5.08c4.14-6.53,9.77-11.99,16.05-16.46
						c6.29-4.47,12.78-8.41,18.79-12.79c6.04-4.36,11.56-9.27,16.08-16.02c0.07-0.1,0.23-0.05,0.36,0.12
						C58.89,105,58.94,105.21,58.88,105.31L58.88,105.31z"/>
				</g>
			</g>
			<g class="st16">
				<g>
					<g>
						<path class="st15" d="M53.95,111.23c0.4-1.22,0.79-2.62,1.12-4.11c0.34-1.48,0.63-3.05,0.78-4.65l-0.32-0.13
							c-0.38,3.48-1.31,6.92-2.18,9.42C53.54,111.57,53.75,111.41,53.95,111.23z"/>
					</g>
					<g>
						<path class="st15" d="M51.81,113.16c0.4-1.46,0.84-3.24,1.19-5.2c0.35-1.97,0.59-4.13,0.64-6.29
							c-0.11-0.04-0.23-0.08-0.34-0.12c-0.12,4.61-1.21,9.3-2.09,12.24C51.39,113.57,51.6,113.36,51.81,113.16z"/>
					</g>
					<g>
						<path class="st15" d="M49.8,115.05c0.42-1.6,0.85-3.77,1.14-6.22c0.32-2.42,0.5-5.13,0.35-7.81
							c-0.12-0.03-0.22-0.06-0.32-0.08c0.14,2.87-0.11,5.75-0.47,8.3c-0.34,2.57-0.83,4.76-1.24,6.25
							C49.43,115.32,49.6,115.17,49.8,115.05z"/>
					</g>
					<g>
						<path class="st15" d="M47.98,116.63c0.19-0.84,0.38-1.89,0.54-3.09c0.18-1.18,0.33-2.51,0.44-3.94
							c0.2-2.86,0.28-6.03-0.06-9.1c-0.11-0.02-0.22-0.04-0.32-0.04c0.34,3.18,0.24,6.49,0.01,9.41c-0.26,2.89-0.66,5.4-1.06,6.96
							C47.67,116.76,47.82,116.69,47.98,116.63z"/>
					</g>
					<g>
						<path class="st15" d="M46.27,117.91c0.38-1.7,0.65-4.49,0.75-7.66c0.1-3.15-0.03-6.8-0.58-10.15c-0.1,0-0.21-0.02-0.31-0.04
							c0.59,3.67,0.68,7.67,0.51,10.99c-0.13,3.38-0.52,6.14-0.94,7.51C45.88,118.34,46.07,118.12,46.27,117.91z"/>
					</g>
					<g>
						<path class="st15" d="M44.43,119.89c0.2-0.69,0.36-1.79,0.47-3.18c0.12-1.37,0.19-3.04,0.19-4.87
							c-0.03-3.7-0.24-7.98-1.13-12.01c-0.1,0-0.2,0-0.3-0.02c0.89,4.13,1.09,8.56,1.09,12.3c-0.04,3.7-0.32,6.66-0.76,7.8l0.21,0.2
							L44.43,119.89z"/>
					</g>
					<g>
						<path class="st15" d="M42.44,120.88c0.42-1.12,0.58-4.25,0.45-8.16c-0.14-3.91-0.59-8.67-1.68-12.97c0.1,0,0.2,0,0.29,0
							c0.58,2.22,0.97,4.51,1.25,6.76c0.28,2.26,0.44,4.44,0.51,6.42c0.13,3.95-0.04,7.1-0.49,8.26L42.44,120.88z"/>
					</g>
					<g>
						<path class="st15" d="M40.9,121.86c0.38-1.17,0.46-4.34,0.16-8.42c-0.31-4.07-0.95-8.99-2.29-13.54
							c0.09-0.02,0.2-0.03,0.3-0.03c1.29,4.38,1.98,9.32,2.31,13.45c0.35,4.16,0.29,7.49-0.14,8.86L40.9,121.86z"/>
					</g>
					<g>
						<path class="st15" d="M39.35,122.87c0.39-1.19,0.29-4.56-0.15-8.74c-0.49-4.21-1.32-9.27-2.81-13.86
							c0.09-0.02,0.19-0.05,0.29-0.05c1.5,4.57,2.37,9.64,2.88,13.91c0.47,4.23,0.58,7.69,0.14,9.04L39.35,122.87z"/>
					</g>
					<g>
						<path class="st15" d="M37.8,123.88c0.41-1.37,0.21-4.81-0.44-9.11c-0.62-4.24-1.71-9.4-3.27-13.94
							c0.09-0.02,0.18-0.04,0.28-0.07c1.58,4.59,2.69,9.83,3.33,14.15c0.67,4.37,0.88,7.87,0.46,9.26L37.8,123.88z"/>
					</g>
					<g>
						<path class="st15" d="M36.29,124.92c0.35-1.25,0.12-4.23-0.5-7.98c-0.64-3.78-1.64-8.33-3.04-12.72l0.01-0.01
							c0.03-0.22,0.06-0.43,0.07-0.66c1.51,4.53,2.56,9.28,3.25,13.26c0.34,1.98,0.56,3.75,0.65,5.18c0.11,1.45,0.08,2.56-0.1,3.22
							L36.29,124.92z"/>
					</g>
					<g>
						<path class="st15" d="M34.77,125.99c0.44-1.58-0.26-6.09-1.4-11.22c-0.35-1.51-0.87-3.62-1.59-6.05
							c0.06-0.17,0.11-0.37,0.16-0.55c1.23,4.04,2.14,8.01,2.69,11.22c0.58,3.25,0.78,5.74,0.48,6.87L34.77,125.99z"/>
					</g>
					<g>
						<path class="st15" d="M33.27,127.07c0.22-0.97,0.04-2.97-0.44-5.6c-0.49-2.63-1.29-5.92-2.29-9.35
							c0.06-0.13,0.13-0.26,0.18-0.4c1.06,3.58,1.91,7.01,2.43,9.77c0.52,2.76,0.7,4.85,0.47,5.85L33.27,127.07z"/>
					</g>
					<g>
						<path class="st15" d="M31.77,128.16c0.32-1.3-0.25-4.6-1.29-8.73c-0.53-2.08-1.19-4.38-1.98-6.78
							c-0.78-2.39-1.66-4.85-2.66-7.25l0.23-0.19c1.03,2.45,1.93,4.96,2.72,7.39c0.8,2.44,1.48,4.8,2.02,6.92
							c1.06,4.23,1.64,7.59,1.33,8.93L31.77,128.16z"/>
					</g>
					<g>
						<path class="st15" d="M30.27,129.25c0.28-1.3-0.29-4.44-1.42-8.51c-1.12-4.04-2.76-8.99-4.84-13.82l0.22-0.18
							c2.11,4.9,3.81,9.97,4.95,14.09c1.16,4.16,1.75,7.37,1.47,8.7L30.27,129.25z"/>
					</g>
					<g>
						<path class="st15" d="M28.8,130.39c0.24-1.28-0.41-4.38-1.61-8.38c-1.22-4.02-2.97-8.93-5.1-13.73
							c0.08-0.07,0.17-0.13,0.26-0.18c2.21,4.91,3.97,9.9,5.21,14c0.61,2.04,1.07,3.85,1.35,5.31c0.29,1.47,0.39,2.6,0.26,3.27
							L28.8,130.39z"/>
					</g>
					<g>
						<path class="st15" d="M27.34,131.54c0.24-1.26-0.48-4.34-1.76-8.32c-1.27-3.95-3.15-8.88-5.38-13.7
							c0.07-0.06,0.16-0.11,0.24-0.16c2.23,4.77,4.16,9.71,5.47,13.73c1.31,4.04,2.07,7.25,1.79,8.71L27.34,131.54z"/>
					</g>
					<g>
						<path class="st15" d="M25.88,132.7c0.22-1.43-0.54-4.49-1.94-8.46c-1.41-3.97-3.35-8.73-5.67-13.47
							c0.09-0.06,0.17-0.11,0.24-0.18c1.37,2.79,2.66,5.72,3.85,8.67c2.58,6.44,4.19,11.72,3.88,13.68L25.88,132.7z"/>
					</g>
					<g>
						<path class="st15" d="M24.44,133.87c0.22-1.4-0.65-4.51-2.09-8.42c-1.46-3.91-3.56-8.73-5.95-13.44
							c0.08-0.05,0.17-0.11,0.26-0.16c1.35,2.66,2.62,5.4,3.83,8.21c1.42,3.31,2.57,6.32,3.33,8.75c0.77,2.44,1.16,4.31,1.01,5.32
							L24.44,133.87z"/>
					</g>
					<g>
						<path class="st15" d="M22.99,135.06c0.2-1.41-0.68-4.46-2.23-8.38c-1.54-3.9-3.7-8.65-6.23-13.42
							c0.08-0.06,0.15-0.11,0.22-0.17c2.57,4.85,4.78,9.7,6.34,13.67c1.58,4,2.49,7.11,2.28,8.55L22.99,135.06z"/>
					</g>
					<g>
						<path class="st15" d="M21.57,136.28c0.16-1.44-0.78-4.48-2.38-8.36c-0.8-1.94-1.78-4.11-2.88-6.38
							c-1.09-2.26-2.3-4.64-3.61-7.02c0.08-0.05,0.16-0.1,0.22-0.16c2.66,4.84,4.97,9.67,6.62,13.64c1.63,3.96,2.59,7.05,2.43,8.53
							L21.57,136.28z"/>
					</g>
					<g>
						<path class="st15" d="M20.17,137.51c0.17-1.43-0.85-4.47-2.53-8.34c-1.67-3.86-4.05-8.6-6.78-13.38
							c0.07-0.05,0.15-0.09,0.23-0.15c2.77,4.85,5.19,9.68,6.89,13.61c1.7,3.94,2.73,7.03,2.56,8.49L20.17,137.51z"/>
					</g>
					<g>
						<path class="st15" d="M18.76,138.75c0.11-1.43-0.91-4.39-2.69-8.27c-1.79-3.88-4.22-8.57-7.04-13.35l0.26-0.19
							c2.89,4.87,5.35,9.63,7.15,13.58c1.79,3.94,2.82,6.97,2.69,8.46L18.76,138.75z"/>
					</g>
					<g>
						<path class="st15" d="M17.37,140.01c0.12-1.42-1.01-4.42-2.82-8.24c-1.82-3.82-4.41-8.55-7.31-13.3l0.26-0.19
							c2.96,4.83,5.57,9.63,7.42,13.53c1.83,3.89,2.96,6.95,2.84,8.44L17.37,140.01z"/>
					</g>
				</g>
				<g>
					<g>
						<path class="st15" d="M3.9,161.34c-2.27-2.95-5.27-6-8.69-8.66c0.04,0.15,0.08,0.28,0.14,0.43c3.26,2.57,6.1,5.47,8.28,8.31
							l0.27-0.01L3.9,161.34z"/>
					</g>
					<g>
						<path class="st15" d="M4.47,159.37c-2.55-3.58-6.06-7.21-10.13-10.29c0.02,0.13,0.05,0.26,0.09,0.39
							c4,3.07,7.46,6.68,9.92,10.19L4.47,159.37z"/>
					</g>
					<g>
						<path class="st15" d="M5.26,157.8l0.06-0.12c-2.73-4.14-6.74-8.39-11.42-11.95c0.01,0.12,0.02,0.24,0.03,0.35
							c4.64,3.55,8.6,7.78,11.24,11.88L5.26,157.8z"/>
					</g>
					<g>
						<path class="st15" d="M6.22,156.01c-2.86-4.61-7.28-9.47-12.43-13.46c-0.01,0.11-0.01,0.23-0.01,0.33
							c5.13,3.99,9.52,8.85,12.28,13.42L6.22,156.01z"/>
					</g>
					<g>
						<path class="st15" d="M7.13,154.33c-2.94-5.03-7.56-10.35-13.1-14.76c-0.01,0.1-0.02,0.2-0.04,0.3
							c5.53,4.42,10.12,9.74,12.98,14.76L7.13,154.33z"/>
					</g>
					<g>
						<path class="st15" d="M8.02,152.67l0.02-0.03c-2.91-5.33-7.74-11.14-13.5-15.92c-0.03,0.1-0.05,0.19-0.06,0.29
							c5.76,4.79,10.58,10.61,13.4,15.92L8.02,152.67z"/>
					</g>
					<g>
						<path class="st15" d="M9.03,151.06c-2.91-5.66-7.75-11.82-13.71-17.01c-0.04,0.09-0.07,0.18-0.1,0.28
							c5.97,5.2,10.81,11.38,13.63,17.02L9.03,151.06z"/>
					</g>
					<g>
						<path class="st15" d="M10.04,149.51c-2.77-5.87-7.69-12.42-13.76-17.99c-0.03,0.1-0.07,0.18-0.12,0.26
							c6.09,5.58,10.99,12.14,13.69,18L10.04,149.51z"/>
					</g>
					<g>
						<path class="st15" d="M11.11,148.04c-2.69-6.1-7.54-12.94-13.63-18.85c-0.06,0.08-0.1,0.15-0.13,0.25
							c3.06,2.97,5.8,6.17,8.09,9.39c2.3,3.22,4.18,6.46,5.46,9.5L11.11,148.04z"/>
					</g>
					<g>
						<path class="st15" d="M12.19,146.6c-2.53-6.25-7.28-13.35-13.37-19.63c-0.06,0.07-0.1,0.15-0.15,0.24
							c6.07,6.26,10.77,13.32,13.27,19.55l0.11,0.03L12.19,146.6z"/>
					</g>
					<g>
						<path class="st15" d="M13.28,145.17c-1.17-3.18-2.93-6.6-5.13-10.05c-2.19-3.44-4.82-6.91-7.81-10.19
							c-0.08,0.06-0.13,0.15-0.19,0.22c2.96,3.24,5.56,6.67,7.74,10.08c2.18,3.42,3.92,6.79,5.06,9.93l0.28,0.08L13.28,145.17z"/>
					</g>
					<g>
						<path class="st15" d="M13.99,143.58c-2.2-6.35-6.51-13.63-12.25-20.34c0.04-0.08,0.12-0.14,0.18-0.21
							c5.82,6.82,10.2,14.22,12.43,20.66L13.99,143.58z"/>
					</g>
					<g>
						<path class="st15" d="M15.04,142.01c-1.99-6.31-6.11-13.65-11.54-20.47c0.07-0.05,0.15-0.11,0.21-0.17
							c5.5,6.93,9.67,14.37,11.71,20.77L15.04,142.01z"/>
					</g>
					<g>
						<path class="st15" d="M16.13,140.45c-1.87-6.28-5.67-13.54-10.79-20.46c0.06-0.06,0.14-0.12,0.22-0.18
							c5.22,7.05,9.06,14.4,10.94,20.76L16.13,140.45z"/>
					</g>
				</g>
			</g>
		</g>
		<path class="st3" d="M74.67,18.1c2.38,0.09,4.77-0.27,7.02-1.03c1.48-0.5,2.99-1.26,3.76-2.62c3.65-6.44-7.79-8.88-11.94-7.24
			C67.59,9.55,67.54,17.85,74.67,18.1z"/>
		<path class="st17" d="M90.15,15.71c-0.85,0.63-1.3,1.88-0.79,2.81c0.28,0.51,0.79,0.86,1.35,1.01c1.14,0.32,2.48-0.19,3.09-1.21
			c0.71-1.19,0.58-2.47-0.78-3C92.1,14.96,90.94,15.13,90.15,15.71z"/>
		<path class="st2" d="M78.42,121.34c-1.58,0.04-3.25-0.05-4.65,0.69c-2.11,1.12-2.91,3.99-2.07,6.23c0.84,2.24,3.01,3.79,5.33,4.37
			s4.77,0.27,7.09-0.33c3.47-0.9,6.92-2.62,8.88-5.63c1.47-2.25,2.47-7.86-1.43-8.21c-2-0.18-4.21,1.05-6.08,1.65
			C83.21,120.86,80.82,121.27,78.42,121.34z"/>
		<path class="st18" d="M114.07,100.79c-0.28,1.11-0.23,2.38,0.46,3.3c0.77,1.02,2.18,1.4,3.44,1.19c2.08-0.34,3.79-2.23,3.94-4.33
			c0.13-1.76-1.26-4.74-3.33-4.76C116.52,96.18,114.51,99.06,114.07,100.79z"/>
		<path class="st19" d="M93.29,9.68c0.82,0.14,1.72,0.11,2.42-0.34c0.91-0.59,1.28-1.79,1.1-2.86c-0.44-2.69-4.23-4.21-6.27-2.19
			C88.4,6.41,91.03,9.28,93.29,9.68z"/>
	</g>
</g>
<g>
</g>
<g>
</g>
<g>
</g>
<g>
</g>
<g>
</g>
<g>
</g>
<g>
</g>
<g>
</g>
<g>
</g>
<g>
</g>
<g>
</g>
<g>
</g>
<g>
</g>
<g>
</g>
<g>
</g>
</svg>
