<?xml version="1.0" encoding="utf-8"?>
<!-- Generator: Adobe Illustrator 24.1.2, SVG Export Plug-In . SVG Version: 6.00 Build 0)  -->
<svg version="1.1" id="Layer_1" xmlns="http://www.w3.org/2000/svg" xmlns:xlink="http://www.w3.org/1999/xlink" x="0px" y="0px"
	 viewBox="0 0 145.92 145.92" style="enable-background:new 0 0 145.92 145.92;" xml:space="preserve">
<style type="text/css">
	.st0{fill:#025196;}
	.st1{clip-path:url(#SVGID_2_);fill:#95D5D5;}
	.st2{clip-path:url(#SVGID_2_);fill:#FBD7E3;}
	.st3{clip-path:url(#SVGID_2_);fill:#F9D682;}
	.st4{clip-path:url(#SVGID_2_);}
	.st5{fill:#FFFFFF;}
	.st6{fill:#6BC1BF;}
	.st7{fill:#3FA09B;}
	.st8{fill:#FBD7E3;}
	.st9{fill:#D5ADB8;}
	.st10{fill:#F9D682;}
	.st11{fill:#6D6E71;}
	.st12{fill:#808285;}
	.st13{fill:#A7A9AC;}
	.st14{opacity:0.48;fill:#49A5A0;}
	.st15{opacity:0.19;}
	.st16{fill:#95D5D5;}
</style>
<g>
	<rect class="st0" width="145.92" height="145.92"/>
	<g>
		<defs>
			
				<rect id="SVGID_1_" transform="matrix(-1.836970e-16 1 -1 -1.836970e-16 145.9216 1.421085e-14)" width="145.92" height="145.92"/>
		</defs>
		<clipPath id="SVGID_2_">
			<use xlink:href="#SVGID_1_"  style="overflow:visible;"/>
		</clipPath>
		<path class="st1" d="M16.12-11.08c-2.8-0.22-5.59-0.49-8.39-0.84C1.37-12.7-5.08-9-7.49-2.99c-2.75,6.86-0.44,15,4.28,20.68
			c4.72,5.69,11.5,9.28,18.39,11.97c18.54,7.22,39.25,8.56,58.63,4.2c8.5-1.91,16.43-6.45,24.97-7.37
			c9.87-1.06,19.39-2.93,28.99,0.89c-1.06-0.42-2.99-5.52-3.72-6.65c-1.51-2.35-3.18-4.6-4.98-6.74
			c-3.77-4.47-8.14-8.43-12.95-11.76C96.91-4.15,84.88-8.74,73.85-10.52c-6.86-1.11-14.41,0.7-21.44,0.57
			c-6.71-0.13-13.41-0.25-20.12-0.38C26.81-10.44,21.45-10.66,16.12-11.08z"/>
		<path class="st2" d="M116.3,24.63c-3.73-3.78-7.63-7.34-12.23-9.89c-8.9-4.94-20.06-6.87-29.32-2.63
			c2.82-1.29,5.86-5.86,8.38-7.91c3.41-2.77,7.06-5.25,10.88-7.41c6.47-3.65,14.93-8.53,22.34-9.34c6.37-0.7,12.77,0.67,19.03,2.03
			c7.3,1.58,15.16,3.49,19.93,9.24c3.43,4.12,4.7,9.71,4.52,15.07c-0.21,6.22-2.82,11.89-3.53,17.92c-0.54,4.61,2.25,8.3-3.61,11.44
			c-3.77,2.02-8.41,1.57-12.49,0.29C130.29,40.31,123.62,32.04,116.3,24.63z"/>
		<path class="st1" d="M109.55,135.48c-0.01-0.15-0.02-0.29-0.04-0.44c-0.59-6.22-3.87-11.45-9.36-14.41
			c-5.81-3.14-12.64-3.95-19.23-3.44c-7.51,0.58-15.01,2.44-21.89,5.38c-4.77,2.04-9.78,3.68-14.86,4.74
			c-9.89,2.07-21.93,1.94-28.36-7.17c-3.04-4.3-4.4-9.67-7.69-13.79c-3.04-3.8-7.81-6.31-12.67-6.14
			c-11.16,0.4-13.35,12.89-15.36,21.6c-2.42,10.51-2.86,21.82,1.86,31.78c6.95,14.63,23.18,22.6,39.04,25.88
			c19.88,4.11,40.4,1.4,60.03-2.52c9.09-1.81,16.01-8.77,20.78-16.35C106.15,153.69,110.18,143.85,109.55,135.48z"/>
		<path class="st3" d="M117.79,108.27c-1.95,0.17-3.88,0.53-5.71,1.22c-3.17,1.19-7.12,4.08-8.18,7.5
			c-1.04,3.36,1.13,6.96-1.24,10.12c-2.61,3.5-7.99,2.59-12.18,1.36c-14.77-4.37-28.66,12.91-24.34,27.18
			c1.69,5.59,6.41,9.89,11.75,12.25c5.34,2.37,11.27,3.02,17.1,3.23c12.13,0.44,24.33-0.93,36.06-4.04
			c9.01-2.39,18.4-6.35,23.1-14.39c6.53-11.18,3.07-28.17-6.87-36.26c-6.66-5.42-15.4-7.72-23.98-8.2
			C121.48,108.14,119.63,108.12,117.79,108.27z"/>
		<g class="st4">
			<path class="st5" d="M-32.88,3.97l0.36-1.22c6.21,1.86,12.14,4.56,17.71,7.83c5.57,3.29,10.77,7.16,15.64,11.4
				c9.73,8.51,18.03,18.49,25.81,28.76l-0.45,0c-7.87-10.13-16.25-19.93-26-28.23c-4.87-4.13-10.06-7.89-15.59-11.06
				C-20.92,8.29-26.79,5.72-32.88,3.97z"/>
			<path class="st5" d="M29.6,53.14c-1.05-1.19-3.05-3.02-4.34-3.83c0.53,1.26,1.13,2.5,1.85,3.68c0.61,1.02,1.31,2,2.15,2.83
				c1.14,1.12,2.5,1.88,3.84,2.63C31.79,56.35,31.25,55,29.6,53.14z"/>
			<g>
				<g>
					<path class="st5" d="M-15.68,15.14c-0.13-1.73-0.57-3.53-1.44-5.22c-0.53,1.34-0.92,2.74-1.15,4.18
						c-0.19,1.24-0.28,2.51-0.07,3.81c0.29,1.73,1.09,3.41,1.84,5.05C-15.97,20.44-15.47,17.84-15.68,15.14z"/>
					<path class="st5" d="M-11.15,18.4c-0.1-1.04-0.29-2.12-0.6-3.18c-0.31-1.05-0.73-2.1-1.27-3.13c-0.56,1.65-0.98,3.37-1.21,5.13
						c-0.19,1.5-0.27,3.06,0,4.61c0.37,2.08,1.34,4.09,2.22,6.07C-11.38,24.83-10.85,21.69-11.15,18.4z"/>
					<path class="st5" d="M-6.49,22.44c-0.22-2.48-0.89-5.05-2.16-7.45c-0.63,1.95-1.12,3.99-1.38,6.06
						c-0.22,1.77-0.34,3.62-0.03,5.43c0.39,2.48,1.5,4.8,2.47,7.15C-6.81,30.02-6.15,26.31-6.49,22.44z"/>
					<path class="st5" d="M-0.89,27.77c-0.18-2.86-0.86-5.88-2.25-8.67c-0.77,2.25-1.35,4.57-1.73,6.97
						c-0.31,2.04-0.49,4.16-0.21,6.27c0.36,2.85,1.53,5.61,2.6,8.34C-1.49,36.54-0.62,32.25-0.89,27.77z"/>
					<path class="st5" d="M4.54,33.64c-0.11-3.27-0.79-6.7-2.24-9.94c-0.94,2.55-1.67,5.16-2.17,7.88
						c-0.42,2.32-0.69,4.71-0.45,7.12c0.33,3.25,1.57,6.43,2.72,9.6C3.61,43.59,4.7,38.77,4.54,33.64z"/>
				</g>
				<g>
					<path class="st5" d="M24.33,50.55c-0.25-1.47-0.71-2.96-1.42-4.36c-0.28,1.15-0.46,2.34-0.51,3.58c-0.05,1.06,0,2.15,0.28,3.25
						c0.38,1.48,1.17,2.89,1.95,4.27C24.69,55.07,24.73,52.83,24.33,50.55z"/>
					<path class="st5" d="M21.02,47.63c-0.18-1.83-0.62-3.72-1.39-5.51c-0.47,1.4-0.81,2.85-1,4.38c-0.16,1.3-0.22,2.65,0.03,4.03
						c0.33,1.85,1.19,3.66,2.03,5.44C21,53.25,21.3,50.5,21.02,47.63z"/>
					<path class="st5" d="M17.61,44.69c-0.11-2.2-0.55-4.48-1.43-6.66c-0.64,1.66-1.13,3.38-1.45,5.2c-0.26,1.55-0.41,3.16-0.2,4.81
						c0.29,2.22,1.23,4.42,2.13,6.58C17.25,51.39,17.79,48.12,17.61,44.69z"/>
					<path class="st5" d="M13.78,41.18c-0.07-2.57-0.55-5.23-1.56-7.79c-0.79,1.94-1.39,3.94-1.81,6.05
						c-0.35,1.8-0.56,3.67-0.36,5.58c0.27,2.59,1.3,5.13,2.27,7.67C13.14,48.97,13.9,45.19,13.78,41.18z"/>
					<path class="st5" d="M9.21,37.41c-0.07-2.92-0.62-5.98-1.83-8.88c-0.87,2.22-1.58,4.54-2.05,6.94
						c-0.41,2.07-0.66,4.18-0.45,6.36c0.29,2.93,1.41,5.8,2.47,8.67C8.38,46.28,9.32,41.98,9.21,37.41z"/>
				</g>
			</g>
			<g>
				<g>
					<path class="st5" d="M-11.42,8.15c-1.68,0.63-3.51,1.08-5.41,1.24c0.85-1.16,1.84-2.23,3.01-3.14c1-0.78,2.14-1.48,3.5-1.81
						c1.85-0.48,4.01-0.28,6.15-0.03C-6.5,5.77-8.8,7.16-11.42,8.15z"/>
					<path class="st5" d="M-6.18,11.25c-1.07,0.25-2.18,0.43-3.3,0.54c-1.13,0.13-2.27,0.17-3.42,0.12c1.22-1.24,2.6-2.34,4.19-3.23
						c1.36-0.77,2.86-1.39,4.58-1.57c2.33-0.26,4.91,0.31,7.44,0.96C0.21,9.24-2.85,10.5-6.18,11.25z"/>
					<path class="st5" d="M-0.52,14.86c-2.59,0.27-5.3,0.29-7.99-0.08c1.62-1.28,3.39-2.36,5.39-3.19c1.72-0.71,3.56-1.2,5.64-1.2
						c2.77,0.04,5.76,1.02,8.62,2.12C7.31,13.42,3.51,14.44-0.52,14.86z"/>
					<path class="st5" d="M6.2,19.94c-3.02,0-6.13-0.32-9.18-1.03c2.02-1.25,4.23-2.28,6.64-2.95c2.07-0.59,4.28-0.92,6.66-0.65
						c3.21,0.38,6.48,1.87,9.63,3.44C15.4,19.29,10.91,19.95,6.2,19.94z"/>
					<path class="st5" d="M12.74,25.6c-3.41-0.31-6.91-0.97-10.27-2.09c2.41-1.18,5.05-2.11,7.84-2.6c2.41-0.43,4.96-0.58,7.61-0.04
						c3.59,0.73,7.12,2.71,10.49,4.74C23.24,25.78,18.06,26.09,12.74,25.6z"/>
				</g>
				<g>
					<path class="st5" d="M26.96,48.52c-1.36-0.63-2.7-1.45-3.89-2.46c1.18,0,2.39,0.11,3.61,0.38c1.04,0.23,2.1,0.56,3.1,1.14
						c1.35,0.78,2.51,1.95,3.64,3.11C31.26,50.1,29.08,49.51,26.96,48.52z"/>
					<path class="st5" d="M24.91,44.56c-1.76-0.62-3.51-1.47-5.12-2.58c1.46-0.18,2.98-0.22,4.51-0.05
						c1.32,0.14,2.68,0.42,3.98,1.02c1.77,0.81,3.35,2.17,4.89,3.5C30.43,45.98,27.65,45.53,24.91,44.56z"/>
					<path class="st5" d="M22.72,40.52c-2.16-0.59-4.34-1.45-6.36-2.64c1.73-0.38,3.54-0.58,5.4-0.53c1.6,0.04,3.25,0.25,4.88,0.87
						c2.19,0.83,4.21,2.37,6.17,3.88C29.46,41.76,26.1,41.44,22.72,40.52z"/>
					<path class="st5" d="M19.85,36c-2.56-0.54-5.18-1.37-7.63-2.6c1.98-0.61,4.09-1.01,6.26-1.1c1.87-0.08,3.83,0.04,5.78,0.66
						c2.63,0.84,5.12,2.53,7.51,4.23C27.83,36.98,23.86,36.83,19.85,36z"/>
					<path class="st5" d="M16.5,30.78c-2.98-0.45-6.04-1.23-8.94-2.42c2.23-0.89,4.59-1.51,7.09-1.79c2.14-0.23,4.4-0.24,6.69,0.36
						c3.1,0.81,6.09,2.65,8.95,4.52C25.74,31.42,21.16,31.48,16.5,30.78z"/>
				</g>
			</g>
		</g>
		<g class="st4">
			<g>
				<g>
					<path class="st6" d="M146.43-14.99c-0.12,1.88-0.12,4.21-0.12,6.68c-0.02,2.36-0.03,4.98-0.05,7.84c0.01,0.15,0.01,0.28,0,0.41
						c-0.03,0.96-0.05,1.94-0.12,2.87c0,0.13,0,0.24-0.01,0.35c-0.06,0.8-0.12,1.64-0.19,2.5c-0.01,0.09-0.02,0.19-0.02,0.28
						c-0.06,0.75-0.14,1.5-0.24,2.23c-0.01,0.07-0.02,0.17-0.04,0.25c-0.1,0.66-0.2,1.31-0.34,1.93l-0.05,0.21
						c-0.11,0.6-0.24,1.18-0.39,1.74c-0.01,0.07-0.02,0.13-0.04,0.2c-0.14,0.52-0.3,1.04-0.48,1.52c-0.02,0.06-0.04,0.12-0.07,0.17
						c-0.17,0.46-0.36,0.89-0.53,1.35c-0.03,0.05-0.05,0.09-0.07,0.16c-0.18,0.41-0.39,0.8-0.62,1.17
						c-0.02,0.06-0.04,0.11-0.08,0.14c-0.2,0.37-0.44,0.71-0.7,1.03c-0.03,0.05-0.05,0.09-0.08,0.13c-0.21,0.34-0.45,0.66-0.71,0.96
						c-0.04,0.04-0.06,0.08-0.11,0.11c-0.2,0.25-0.42,0.48-0.66,0.71c-0.04,0.04-0.09,0.08-0.15,0.12c-0.02,0.04-0.07,0.07-0.11,0.1
						c-0.25,0.2-0.58,0.42-0.91,0.69c-0.04,0.02-0.09,0.05-0.12,0.08c-0.28,0.2-0.6,0.42-0.95,0.63c-0.03,0.03-0.08,0.06-0.13,0.08
						c-0.32,0.2-0.66,0.41-1.01,0.63l-0.16,0.09c-0.28,0.19-0.56,0.39-0.85,0.6l-0.15,0.1c-0.28,0.21-0.58,0.41-0.89,0.61
						c-0.04,0.03-0.09,0.05-0.13,0.08c-0.29,0.22-0.6,0.42-0.91,0.63c-0.05,0.03-0.09,0.06-0.12,0.1l0,0
						c-0.3,0.21-0.59,0.43-0.88,0.66c-0.04,0.04-0.08,0.07-0.12,0.1c-0.3,0.23-0.59,0.46-0.89,0.69c-0.05,0.03-0.1,0.07-0.14,0.11
						c-0.3,0.24-0.59,0.48-0.88,0.71c-0.05,0.04-0.09,0.08-0.12,0.12c-0.31,0.26-0.58,0.53-0.85,0.78
						c-0.03,0.05-0.07,0.08-0.12,0.12c-0.29,0.29-0.57,0.57-0.82,0.82c-0.03,0.05-0.08,0.09-0.13,0.14
						c-0.31,0.32-0.58,0.62-0.77,0.9l-0.08,0.15c-0.17,0.24-0.28,0.46-0.35,0.64c-0.06,0.16-0.13,0.3-0.21,0.44l-0.08,0.15
						c-0.15,0.29-0.32,0.57-0.51,0.85c-1.18-0.88-2.25-1.78-3.18-2.69c-1.46-1.43-2.57-2.9-3.21-4.27c-0.05,0.58-0.03,1.2,0.05,1.81
						c0.01,0.11,0.02,0.21,0.04,0.33c0.09,0.76,0.29,1.55,0.56,2.35c0.04,0.13,0.09,0.28,0.14,0.41c0.23,0.59,0.53,1.21,0.87,1.81
						c0.19,0.36,0.42,0.72,0.65,1.08l0,0.01c0.1,0.15,0.19,0.3,0.31,0.46c0.01,0.01,0.01,0.01,0.01,0.01
						c0.32,0.52,0.72,1.05,1.14,1.57c-0.18,0.14-0.37,0.29-0.56,0.43c-0.05,0.03-0.11,0.06-0.17,0.1c-0.36,0.28-0.73,0.55-1.15,0.82
						c-0.05,0.04-0.11,0.08-0.18,0.11c-0.41,0.26-0.84,0.52-1.31,0.77c-0.05,0.04-0.13,0.07-0.2,0.1c-0.47,0.25-0.95,0.49-1.46,0.73
						c-0.07,0.03-0.15,0.06-0.21,0.09c-0.12,0.07-0.25,0.13-0.39,0.19c-0.3,0.13-0.7,0.31-1.16,0.52c-0.08,0.02-0.15,0.06-0.22,0.1
						c-0.49,0.2-1.05,0.43-1.66,0.68c-0.09,0.03-0.17,0.06-0.24,0.1c-0.55,0.21-1.14,0.44-1.74,0.67c-0.07,0.04-0.16,0.08-0.25,0.11
						c-0.57,0.23-1.15,0.45-1.71,0.68c-0.09,0.04-0.17,0.07-0.27,0.11c-0.58,0.23-1.15,0.45-1.7,0.66
						c-0.11,0.04-0.21,0.07-0.31,0.11c-0.57,0.22-1.15,0.42-1.73,0.6l-0.31,0.1c-1.96,0.62-3.76,0.96-4.93,0.62
						c-1.48-0.45-2.4-1.27-3.1-2.05c-0.9-1-1.71-2.4-2.4-4.13c-0.67-1.72-1.09-3.76-1.42-6.06c-0.18-1.16-0.19-2.34-0.22-3.6
						c-0.01-1.25-0.01-2.56,0.11-3.89c0.29-2.64,0.67-5.47,1.51-8.22c1.95-2.49,4.54-4.56,7.36-6.21c1.47-0.79,3-1.47,4.59-2.04
						c1.57-0.58,3.33-0.93,5.05-1.21c-2.2-0.68-4.37-1.12-6.48-1.34c-2.09-0.2-4.07-0.14-5.97,0.13c0.82-1.31,1.59-2.64,2.55-3.8
						c0.62-0.79,1.48-1.77,2.54-2.87c1.05-1.11,2.42-2.23,3.88-3.45c2.97-2.41,6.79-4.81,10.92-6.72c2.09-0.92,4.27-1.72,6.44-2.38
						c1.11-0.29,2.21-0.56,3.3-0.78c1.09-0.23,2.16-0.44,3.26-0.52c1.09-0.11,2.15-0.18,3.19-0.21c1.04-0.04,2.05-0.02,3.05,0.1
						C142.89-15.91,144.74-15.57,146.43-14.99z"/>
				</g>
				<g>
					<path class="st7" d="M103.14,42.46c-1.98-6.93-0.57-14.06,2.66-20.12c3.23-6.11,8.31-11.09,13.54-15.25
						c5.17-4.27,10.28-8.14,15.19-12.43c4.89-4.35,9.69-9.03,14.56-15.02c0.14-0.18,0.42-0.03,0.62,0.34
						c0.19,0.36,0.24,0.79,0.12,0.98c-4.48,6.68-9.1,11.38-14.09,15.37c-4.94,4.04-10.16,7.59-15.49,11.59
						c-5.32,3.96-10.34,8.84-13.64,14.81c-3.31,5.91-4.74,12.95-2.71,19.8c0.03,0.1-0.12,0.16-0.33,0.14
						C103.37,42.66,103.17,42.57,103.14,42.46L103.14,42.46z"/>
				</g>
			</g>
			<g>
				<g>
					<g>
						<path class="st7" d="M102.49,35.65c0.97,2.18,2.66,4.72,4.8,6.8l0.32-0.1c-1.16-1.14-2.18-2.42-3.05-3.71
							c-0.84-1.28-1.47-2.56-1.97-3.71C102.58,35.18,102.53,35.42,102.49,35.65z"/>
					</g>
					<g>
						<path class="st7" d="M102.87,33.09c1.21,2.62,3.3,6.03,6.5,8.67c0.1-0.03,0.21-0.07,0.32-0.1c-3.36-2.82-5.59-6.65-6.74-9.37
							C102.93,32.56,102.91,32.83,102.87,33.09z"/>
					</g>
					<g>
						<path class="st7" d="M103.32,30.63c0.31,0.73,0.69,1.54,1.18,2.41c0.52,0.88,1.12,1.8,1.81,2.73c1.39,1.86,3.04,3.67,5.1,5.23
							c0.11-0.03,0.19-0.07,0.28-0.11c-2.18-1.66-3.9-3.65-5.32-5.63c-1.44-1.98-2.34-3.88-2.86-5.24
							C103.47,30.23,103.41,30.43,103.32,30.63z"/>
					</g>
					<g>
						<path class="st7" d="M103.91,28.51c0.64,1.54,1.76,3.64,3.38,5.75c1.67,2.14,3.77,4.26,6.14,5.95
							c0.09-0.04,0.18-0.07,0.25-0.11c-2.45-1.76-4.62-4-6.3-6.21c-1.59-2.18-2.7-4.32-3.24-5.76
							C104.08,28.26,104,28.39,103.91,28.51z"/>
					</g>
					<g>
						<path class="st7" d="M104.63,26.7c0.56,1.56,1.94,3.91,3.77,6.23c0.46,0.58,0.96,1.17,1.48,1.74
							c0.54,0.58,1.12,1.15,1.72,1.71c1.2,1.11,2.5,2.15,3.86,3.06c0.07-0.04,0.16-0.07,0.25-0.1c-2.96-1.99-5.65-4.64-7.5-7.16
							c-1.9-2.53-3.13-4.96-3.42-6.26L104.63,26.7z"/>
					</g>
					<g>
						<path class="st7" d="M105.22,24.29c0.35,1.34,1.55,3.91,3.75,6.67c2.14,2.75,5.04,5.56,8.41,7.71
							c0.07-0.04,0.14-0.07,0.23-0.1c-3.46-2.21-6.38-5.13-8.53-7.95c-1.09-1.41-1.91-2.75-2.48-3.88
							c-0.58-1.14-0.93-2.07-1.01-2.64l-0.28-0.09C105.27,24.1,105.25,24.2,105.22,24.29z"/>
					</g>
					<g>
						<path class="st7" d="M106.45,22.66c0.18,1.13,1.53,3.87,3.77,6.77c2.3,2.95,5.58,6.05,9.18,8.33
							c-0.07,0.03-0.15,0.06-0.21,0.09c-3.73-2.33-7.03-5.46-9.38-8.44c-2.26-2.94-3.6-5.7-3.78-6.88L106.45,22.66z"/>
					</g>
					<g>
						<path class="st7" d="M107.42,21.29c0.08,0.57,0.42,1.53,1.09,2.75c0.68,1.23,1.64,2.68,2.84,4.2c2.34,3.02,5.88,6.27,9.74,8.7
							c-0.05,0.04-0.13,0.07-0.2,0.1c-3.72-2.33-7.33-5.55-9.75-8.6c-1.24-1.53-2.25-3.02-2.97-4.31c-0.74-1.29-1.09-2.33-1.19-3
							L107.42,21.29z"/>
					</g>
					<g>
						<path class="st7" d="M108.39,19.91c0.07,0.59,0.47,1.61,1.16,2.86c0.34,0.63,0.76,1.31,1.25,2.04
							c0.51,0.73,1.08,1.5,1.72,2.29c2.54,3.15,6.07,6.43,10.08,8.96c-0.05,0.04-0.11,0.08-0.18,0.11
							c-1.97-1.25-3.93-2.71-5.64-4.23c-1.71-1.52-3.26-3.14-4.56-4.73c-2.66-3.18-4.09-6.11-4.27-7.46L108.39,19.91z"/>
					</g>
					<g>
						<path class="st7" d="M109.35,18.55c0.17,1.35,1.75,4.34,4.33,7.49c2.66,3.22,6.34,6.57,10.25,9.11
							c-0.05,0.03-0.11,0.06-0.17,0.1c-3.97-2.56-7.7-5.95-10.43-9.23c-2.63-3.21-4.25-6.26-4.41-7.64L109.35,18.55z"/>
					</g>
					<g>
						<path class="st7" d="M110.39,17.25c0.06,0.6,0.37,1.53,1,2.7c0.63,1.17,1.53,2.54,2.64,3.98c1.12,1.45,2.44,2.95,3.95,4.44
							c1.54,1.5,3.23,2.96,5.01,4.29l0,0.01c0.1,0.15,0.2,0.3,0.32,0.46c-1.87-1.35-3.65-2.85-5.27-4.4c-1.63-1.55-3-3.11-4.19-4.63
							c-1.18-1.51-2.13-2.95-2.8-4.18c-0.68-1.23-1.01-2.21-1.07-2.85L110.39,17.25z"/>
					</g>
					<g>
						<path class="st7" d="M111.43,15.94c0.13,1.55,2.24,5.36,5.65,9.16c0.99,1.11,2.42,2.61,4.22,4.21
							c0.04,0.13,0.09,0.28,0.15,0.42c-3.04-2.63-5.65-5.53-7.5-8.12c-1.83-2.57-2.81-4.75-2.92-5.86L111.43,15.94z"/>
					</g>
					<g>
						<path class="st7" d="M112.47,14.65c0.08,0.93,0.89,2.72,2.29,4.87c0.7,1.07,1.55,2.23,2.52,3.43
							c1.01,1.21,2.14,2.45,3.37,3.67c0.01,0.11,0.02,0.22,0.04,0.33c-1.3-1.26-2.49-2.54-3.56-3.8c-1.06-1.26-1.93-2.46-2.68-3.58
							c-1.48-2.24-2.32-4.13-2.4-5.09L112.47,14.65z"/>
					</g>
					<g>
						<path class="st7" d="M113.59,13.42c0.04,0.63,0.36,1.64,1.06,2.94c0.69,1.3,1.69,2.84,2.94,4.48
							c1.26,1.64,2.74,3.35,4.47,5.06c1.73,1.72,3.65,3.39,5.67,4.94l-0.08,0.15c-4.12-3.13-7.85-6.85-10.37-10.17
							c-2.57-3.34-4.08-6.33-4.1-7.59L113.59,13.42z"/>
					</g>
					<g>
						<path class="st7" d="M114.7,12.21c0.03,0.62,0.38,1.63,1.01,2.89c0.63,1.26,1.56,2.76,2.79,4.4c2.44,3.28,5.85,6.89,9.85,10.1
							l-0.08,0.15c-4.1-3.27-7.58-6.93-10.09-10.28c-0.62-0.83-1.18-1.64-1.67-2.4c-0.47-0.75-0.87-1.46-1.19-2.1
							c-0.65-1.29-1.01-2.33-1.04-2.96L114.7,12.21z"/>
					</g>
					<g>
						<path class="st7" d="M115.82,11c0.05,1.21,1.38,4.02,3.72,7.27c2.34,3.26,5.83,7.02,9.71,10.3c-0.03,0.05-0.08,0.09-0.13,0.14
							c-4-3.34-7.55-7.14-9.94-10.47c-2.38-3.3-3.72-6.18-3.77-7.45L115.82,11z"/>
					</g>
					<g>
						<path class="st7" d="M116.99,9.84c0.01,0.6,0.3,1.57,0.92,2.84c0.62,1.27,1.54,2.8,2.69,4.45c1.16,1.65,2.57,3.42,4.17,5.19
							c1.63,1.79,3.47,3.6,5.42,5.31c-0.03,0.05-0.07,0.08-0.12,0.12c-1.95-1.69-3.8-3.48-5.46-5.27c-1.64-1.78-3.07-3.54-4.27-5.22
							c-2.39-3.34-3.78-6.28-3.75-7.63L116.99,9.84z"/>
					</g>
					<g>
						<path class="st7" d="M118.18,8.71c0.01,1.33,1.23,4.12,3.57,7.47c2.33,3.35,5.64,7.11,9.42,10.55
							c-0.05,0.04-0.09,0.08-0.12,0.12c-2.27-2.04-4.41-4.23-6.42-6.58c-2.16-2.55-3.92-5.05-5.09-7.12
							c-1.15-2.06-1.76-3.73-1.76-4.65L118.18,8.71z"/>
					</g>
					<g>
						<path class="st7" d="M119.36,7.59c-0.01,1.33,1.25,4.19,3.5,7.53c2.23,3.35,5.59,7.25,9.35,10.78
							c-0.05,0.03-0.1,0.07-0.14,0.1c-2.11-1.99-4.17-4.13-6.07-6.4c-2.27-2.7-4.01-5.25-5.2-7.41c-1.19-2.15-1.82-3.9-1.82-4.86
							L119.36,7.59z"/>
					</g>
					<g>
						<path class="st7" d="M120.61,6.54c-0.02,0.66,0.23,1.68,0.82,2.99c0.59,1.32,1.45,2.89,2.56,4.59
							c1.11,1.7,2.46,3.53,4.01,5.39c1.55,1.86,3.34,3.78,5.21,5.61c-0.04,0.04-0.08,0.07-0.12,0.1c-1.92-1.87-3.73-3.81-5.33-5.71
							c-1.58-1.89-2.96-3.75-4.09-5.48c-2.27-3.47-3.54-6.43-3.45-7.75L120.61,6.54z"/>
					</g>
					<g>
						<path class="st7" d="M121.86,5.5c-0.04,1.34,1.06,4.16,3.27,7.63c2.2,3.47,5.39,7.47,9.1,11.23
							c-0.05,0.03-0.09,0.06-0.12,0.09c-3.8-3.82-7.06-7.88-9.3-11.42c-2.27-3.55-3.38-6.42-3.33-7.8L121.86,5.5z"/>
					</g>
					<g>
						<path class="st7" d="M123.09,4.46c-0.07,1.35,1.06,4.25,3.18,7.72c2.09,3.47,5.32,7.61,9.01,11.48
							c-0.04,0.03-0.09,0.05-0.14,0.08c-3.77-3.93-7.05-8.13-9.19-11.67c-2.15-3.53-3.3-6.49-3.23-7.87L123.09,4.46z"/>
					</g>
					<g>
						<path class="st7" d="M124.39,3.49c-0.05,0.64,0.16,1.67,0.7,3.01c0.53,1.34,1.34,2.96,2.39,4.73
							c2.09,3.55,5.15,7.68,8.85,11.72l-0.15,0.1c-1.87-2.03-3.64-4.13-5.15-6.13c-1.51-2-2.82-3.96-3.88-5.76
							c-2.13-3.6-3.26-6.61-3.11-7.93L124.39,3.49z"/>
					</g>
					<g>
						<path class="st7" d="M125.69,2.55c-0.11,1.31,0.88,4.18,2.95,7.78c2.06,3.61,5.1,7.85,8.71,11.94l-0.16,0.09
							c-3.69-4.15-6.79-8.44-8.88-12.11c-2.11-3.68-3.09-6.6-2.98-7.98L125.69,2.55z"/>
					</g>
				</g>
				<g>
					<g>
						<path class="st7" d="M142.36-11.67c0.55,3.66,2,7.7,3.9,11.61c0.01-0.13,0.01-0.26,0-0.41c-1.78-3.75-3.13-7.63-3.64-11.12
							l-0.23-0.14L142.36-11.67z"/>
					</g>
					<g>
						<path class="st7" d="M141.08-10.32c0.73,4.3,2.6,8.97,5.05,13.48c0.01-0.11,0.01-0.22,0.01-0.35
							c-2.39-4.47-4.19-9.1-4.84-13.31L141.08-10.32z"/>
					</g>
					<g>
						<path class="st7" d="M139.84-9.38l-0.09,0.07c0.42,2.41,1.2,4.95,2.26,7.52c1.07,2.59,2.41,5.2,3.9,7.74
							c0.01-0.1,0.02-0.19,0.02-0.28c-2.96-5.09-5.22-10.39-5.96-15.13L139.84-9.38z"/>
					</g>
					<g>
						<path class="st7" d="M138.43-8.33c0.95,5.3,3.71,11.21,7.21,16.75c0.02-0.08,0.02-0.17,0.04-0.25
							c-3.46-5.54-6.17-11.47-7.01-16.68L138.43-8.33z"/>
					</g>
					<g>
						<path class="st7" d="M137.15-7.27c1.05,5.64,4.15,11.93,8.09,17.83l0.05-0.21c-3.91-5.91-6.96-12.21-7.92-17.81L137.15-7.27z"
							/>
					</g>
					<g>
						<path class="st7" d="M135.93-6.2l-0.02,0.02c1.1,5.84,4.58,12.53,8.91,18.68c0.02-0.06,0.04-0.12,0.04-0.2
							c-4.31-6.17-7.73-12.88-8.73-18.67L135.93-6.2z"/>
					</g>
					<g>
						<path class="st7" d="M134.64-5.2c1.22,6.13,4.94,13,9.63,19.37c0.03-0.05,0.05-0.1,0.07-0.17
							c-4.67-6.39-8.35-13.32-9.46-19.39L134.64-5.2z"/>
					</g>
					<g>
						<path class="st7" d="M133.41-4.19c0.65,3.13,1.93,6.46,3.7,9.81c1.76,3.35,4.05,6.78,6.56,10.06
							c0.02-0.06,0.04-0.11,0.07-0.16c-5.04-6.61-8.92-13.65-10.09-19.89L133.41-4.19z"/>
					</g>
					<g>
						<path class="st7" d="M132.19-3.22c0.33,1.58,0.83,3.22,1.47,4.89c0.65,1.68,1.48,3.4,2.41,5.12
							c1.88,3.44,4.25,6.88,6.89,10.22c0.04-0.03,0.06-0.08,0.08-0.14c-2.64-3.36-5.01-6.83-6.86-10.28
							c-1.87-3.47-3.16-6.84-3.76-9.99L132.19-3.22z"/>
					</g>
					<g>
						<path class="st7" d="M130.98-2.29c0.66,3.19,2.1,6.68,4.03,10.13c1.94,3.46,4.4,6.93,7.18,10.31
							c0.04-0.04,0.05-0.08,0.08-0.13c-2.74-3.37-5.18-6.83-7.09-10.29c-1.9-3.43-3.32-6.93-3.94-10.08l-0.1-0.06L130.98-2.29z"/>
					</g>
					<g>
						<path class="st7" d="M129.8-1.3c0.71,3.25,2.14,6.69,4.12,10.14c2.02,3.5,4.58,6.99,7.45,10.38c0.05-0.02,0.07-0.07,0.11-0.11
							c-2.82-3.36-5.36-6.84-7.33-10.28C132.19,5.41,130.79,2,130.1-1.2l-0.25-0.14L129.8-1.3z"/>
					</g>
					<g>
						<path class="st7" d="M129-0.02c0.35,1.58,0.88,3.21,1.57,4.86c0.69,1.66,1.57,3.38,2.57,5.08c2,3.41,4.55,6.82,7.42,10.13
							c-0.02,0.04-0.07,0.07-0.11,0.1c-2.93-3.35-5.52-6.81-7.57-10.27c-1.02-1.73-1.91-3.46-2.63-5.16
							c-0.7-1.68-1.23-3.33-1.59-4.93L129-0.02z"/>
					</g>
					<g>
						<path class="st7" d="M127.91,1.15c0.71,3.08,2.21,6.46,4.19,9.77c1.99,3.32,4.53,6.65,7.45,9.92
							c-0.04,0.02-0.09,0.05-0.12,0.08c-1.48-1.65-2.87-3.32-4.16-5.01c-1.27-1.67-2.42-3.36-3.44-5.04
							c-2.02-3.35-3.54-6.77-4.27-9.91L127.91,1.15z"/>
					</g>
					<g>
						<path class="st7" d="M126.84,2.35c0.79,3.08,2.23,6.3,4.2,9.52c2.02,3.27,4.56,6.52,7.43,9.68c-0.03,0.03-0.08,0.06-0.13,0.08
							c-2.94-3.2-5.52-6.49-7.58-9.81c-2.02-3.28-3.47-6.54-4.26-9.65L126.84,2.35z"/>
					</g>
				</g>
			</g>
		</g>
		<g class="st4">
			<g>
				<path class="st8" d="M10.05,179.29c0.54,2.26,0.19,19.87,0.17,22.54c0,0.15,0,0.31,0,0.46c-0.01,2.34-0.01,4.69-0.02,7.03
					c-0.01,1.5-0.58,4.55,0.72,5.59c0.4,0.32,0.9,0.48,1.38,0.63c3.02,0.92,6.16,1.43,9.32,1.52c0.24,0.01,0.5,0,0.68-0.15
					c0.24-0.2,0.23-0.57,0.15-0.87c-0.5-1.93-2.94-2.21-4.63-2.36c-1.35-0.12-2.75-0.18-3.97-0.78c-1.8-0.88-1.99-2.35-1.98-4.14
					c0.01-1.48,0.02-2.95,0.03-4.43c0.04-4.54,0.07-9.09,0.11-13.63c0.02-2.24,0.04-4.49,0.05-6.73c0.01-0.83,0.01-1.65,0.02-2.48
					c0.01-1.68,1.02-3.16,1.02-4.84c0-0.49-0.04-1.08-0.3-1.5c-0.25-0.4-0.43-0.75-0.52-1.23c-0.33-1.87-0.11-3.93-0.09-5.83
					c0.02-2.42,0.04-4.84,0.06-7.26c0.02-2.54,0.04-5.08,0.06-7.62c0.02-2.01,0.03-4.01,0.05-6.02c0.01-0.82,0.01-1.63,0.02-2.45
					c0-0.47-0.38-0.86-0.86-0.86c-0.48,0-0.86,0.38-0.86,0.85c-0.01,0.82-0.01,1.65-0.02,2.47c-0.02,2.03-0.03,4.05-0.05,6.08
					c-0.02,2.56-0.04,5.12-0.06,7.68c-0.02,2.42-0.04,4.85-0.06,7.27c-0.01,0.95-0.01,1.9-0.02,2.86c-0.01,1.27-0.16,2.42-0.61,3.64
					c-0.23,0.64-0.42,1.23-0.42,1.92c0,0.86,0.34,1.6,0.56,2.42C10.01,179.14,10.03,179.22,10.05,179.29z"/>
			</g>
			<g>
				<path class="st9" d="M9.85,174.73c0.45-1.22,0.6-2.37,0.61-3.64c0.01-0.95,0.01-1.9,0.02-2.86c0.02-2.42,0.04-4.85,0.06-7.27
					c0.02-2.56,0.04-5.12,0.06-7.68c0.02-2.03,0.03-4.05,0.05-6.08c0.01-0.82,0.01-1.65,0.02-2.47c0-0.43,0.33-0.79,0.75-0.84
					c-0.05,6.42-0.25,28.87-0.51,29.72c-0.3,0.99-0.5,5.62,0,9.05c0.5,3.43,0.11,15.36,0.11,15.36s-0.78,14.19,0,15.31
					c1.78,2.53,7.92,2.93,11.45,2.78c0.06,0.28,0.05,0.61-0.16,0.79c-0.18,0.15-0.44,0.16-0.68,0.15c-3.16-0.08-6.3-0.59-9.32-1.52
					c-0.49-0.15-0.99-0.31-1.38-0.63c-1.31-1.04-0.73-4.09-0.72-5.59c0.01-2.34,0-4.69,0.02-7.03c0-0.15,0-0.31,0-0.46
					c0.02-2.67,0.37-20.28-0.17-22.54c-0.02-0.07-0.04-0.15-0.06-0.22c-0.22-0.82-0.56-1.56-0.56-2.42
					C9.43,175.97,9.62,175.37,9.85,174.73z"/>
			</g>
			<g>
				<path class="st8" d="M-5.22,167.02c0,0.14,0.02,0.29,0.04,0.42c0.02,0.11,0.06,0.23,0.1,0.33c0.36,0.95,1.4,1.12,2.12,1.69
					c0.19,0.16,0.39,0.31,0.58,0.47c1.07,0.85,2.14,1.7,3.2,2.56c1.43,1.14,2.86,2.28,4.28,3.42c1.54,1.23,3.08,2.46,4.62,3.69
					c1.41,1.12,2.81,2.25,4.22,3.37c1.03,0.82,2.05,1.64,3.07,2.45c0.33,0.27,1.04,0.64,1.2,1.02c0.12,0.29,0.04,0.98,0.01,1.28
					c-0.09,0.97-1.28,4.73-1.46,5.76c0.66,0.26,1.46,0.13,2.01-0.31c0.84-0.67,0.91-2.04,1-3.03c0.17-2.01,0.17-4.57-1.52-5.92
					c-1.2-0.96-2.41-1.92-3.61-2.88c-1.54-1.23-3.07-2.45-4.61-3.68c-1.6-1.28-3.2-2.55-4.8-3.83c-1.39-1.11-2.78-2.22-4.17-3.33
					c-0.53-0.43-1.07-0.85-1.6-1.28c-0.45-0.36-0.88-0.64-1.21-1.12c-0.29-0.43-0.49-0.92-0.58-1.43c-0.16-0.9,0.33-1.6,0.74-2.36
					c0.31-0.6,0.63-1.19,0.94-1.78c0.83-1.58,1.67-3.15,2.5-4.73c0.93-1.75,1.86-3.51,2.78-5.26c0.81-1.52,1.61-3.05,2.42-4.57
					c0.47-0.88,0.93-1.77,1.4-2.65c0.04-0.08,0.09-0.17,0.13-0.25c0.22-0.42,0.06-0.94-0.36-1.16c-0.42-0.22-0.94-0.06-1.16,0.35
					c-0.28,0.52-0.55,1.05-0.83,1.57c-0.69,1.31-1.38,2.61-2.07,3.92c-0.9,1.7-1.79,3.39-2.69,5.09c-0.89,1.69-1.79,3.38-2.68,5.07
					c-0.68,1.29-1.36,2.58-2.05,3.87c-0.11,0.21-0.23,0.43-0.34,0.64C-4.09,165.39-5.22,165.76-5.22,167.02z"/>
				<g>
					<path class="st9" d="M18.66,187.89c-0.03,1.66-0.3,3.98-1.32,5.71c-0.19-0.02-0.38-0.05-0.55-0.12
						c0.18-1.02,1.36-4.78,1.46-5.76c0.03-0.3,0.11-0.99-0.01-1.28c-0.17-0.38-0.87-0.76-1.2-1.02c-1.02-0.82-2.05-1.64-3.07-2.45
						c-1.41-1.12-2.81-2.25-4.22-3.37c-1.54-1.23-3.08-2.46-4.62-3.69c-1.43-1.14-2.86-2.28-4.28-3.42c-1.07-0.85-2.14-1.7-3.2-2.56
						c1.06,0.84,14.8,11.21,19.44,14.71C18.09,185.41,18.68,186.61,18.66,187.89z"/>
					<path class="st9" d="M-3.57,164.41c0.11-0.21,0.23-0.43,0.34-0.64c0.68-1.29,1.36-2.58,2.05-3.87
						c0.89-1.69,1.79-3.38,2.68-5.07c0.9-1.7,1.79-3.39,2.69-5.09c0.69-1.31,1.38-2.61,2.07-3.92c0.28-0.52,0.55-1.05,0.83-1.57
						c0.22-0.42,0.74-0.58,1.16-0.35c0.03,0.02,0.06,0.04,0.09,0.06c-2.74,4.89-12.01,21.47-12.16,22.07
						c-0.18,0.71,0.18,2.88,1.45,3.89c-0.19-0.16-0.39-0.31-0.58-0.47c-0.72-0.58-1.76-0.75-2.12-1.69c-0.05-0.1-0.08-0.22-0.1-0.33
						c-0.02-0.14-0.04-0.28-0.04-0.42C-5.22,165.76-4.09,165.39-3.57,164.41z"/>
				</g>
			</g>
			<g>
				<path class="st9" d="M-22.08,142.84c1.39-2.8,4.34-4.86,7.46-4.8c2.17,0.04,6.07,1.85,6.24,4.44c0.12,1.92-2.33,0.44-3.21,0.18
					c-1.59-0.47-3.25-0.7-4.91-0.71C-18.39,141.94-20.28,142.24-22.08,142.84z"/>
				<path class="st8" d="M-1.66,114.67c4.07-2.02,8.44-3.22,12.97-3.27c5.19-0.06,11.03,1.83,13.16,6.57
					c0.99,2.19,1.75,5.74,4.88,5.58c3.02-0.15,3.4-3.79,2.84-6.08c-0.13-0.51-1.12-4.84-4.53-7.78c-0.88-0.76-1.83-1.47-2.83-2.21
					c-2.1-1.57-4.27-3.2-6-5.44c-2.66-3.44-3.83-7.89-3.21-12.19c0.46-3.26,1.98-6.43,4.16-8.69c2.53-2.63,5.82-3.93,9.26-3.65
					c1.14,0,2.39,0.34,3.68,1.06c2.99,1.67,4.22,5.1,2.8,7.56c-1.42,2.46-4.98,3.07-7.95,1.35c-0.96-0.55-1.74-1.28-2.3-2.1
					c-2.88,0.41-4.55,2.41-4.85,5.16c-0.33,2.99,0.42,6.17,2.25,8.54c1.32,1.71,3.14,3.08,5.06,4.52c1.02,0.76,2.07,1.55,3.08,2.41
					c4.2,3.61,7.12,8.25,8.22,13.06c1.01,4.42-0.81,12.22-5.74,17.37c-0.6,0.62-1.22,1.22-1.87,1.79
					c-5.27,4.69-12.12,7.83-19.09,8.78c-6.9,0.95-14.16-0.28-20.39-3.37c-2.82-1.4-4.65-3.64-7.93-4.33
					c-1.36-0.29-7.59-0.83-8.3,0.97C-20.32,130.13-11.97,119.78-1.66,114.67z"/>
				<path class="st8" d="M-2.3,116.04c-0.71,11.8,6.47,23.68,19.41,24.96c4.49,0.42,9.2-0.17,13.29-1.96
					c-5.21,4.58-11.98,7.64-18.87,8.57c-5.58,0.75-11.34,0.1-16.63-1.8c-3.36-1.21-6.15-3.66-9.7-4.57
					c-3.47-0.89-7.24-0.73-10.56,0.61c1.45-2.21,2.37-4.71,3.69-7c1.37-2.38,2.94-4.65,4.68-6.78c3.49-4.29,7.69-8.09,12.53-10.87
					C-4.24,117.06-2.3,116.19-2.3,116.04z"/>
				<g>
					<path class="st10" d="M30.35,83.2c0,0.47,0.38,0.86,0.86,0.86s0.86-0.38,0.86-0.86c0-0.47-0.38-0.86-0.86-0.86
						S30.35,82.73,30.35,83.2z"/>
					<path class="st0" d="M30.7,83.2c0,0.28,0.23,0.51,0.51,0.51c0.28,0,0.51-0.23,0.51-0.51c0-0.28-0.23-0.51-0.51-0.51
						C30.93,82.69,30.7,82.92,30.7,83.2z"/>
					<circle class="st5" cx="30.87" cy="82.8" r="0.17"/>
				</g>
				<g>
					<path class="st9" d="M21.99,100.21c-2.36-2.74-3.68-6.52-2.97-10.07c0.71-3.55,3.66-6.69,7.26-7.11
						c0.21,2.27,1.71,4.36,3.76,5.33c-0.83-0.13-1.67-0.42-2.47-0.88c-0.96-0.55-1.74-1.28-2.3-2.1c-2.88,0.41-4.55,2.41-4.85,5.16
						c-0.33,2.99,0.42,6.17,2.25,8.54c1.32,1.71,3.14,3.08,5.06,4.52c1.02,0.76,2.07,1.55,3.08,2.41c0.4,0.35,0.79,0.7,1.16,1.07
						C28.4,105.12,24.64,103.29,21.99,100.21z"/>
					<path class="st8" d="M1.1,134.33c0.03-0.11,0.08-0.22,0.14-0.32C1.19,134.12,1.14,134.23,1.1,134.33z"/>
				</g>
				<g>
					<g>
						<path class="st11" d="M32.57,87.46c0.94-0.77,2.12-1.24,3.33-1.37c-0.02,0.78,0.06,1.56,0.33,2.15
							c0.46,0.99,0.76,1.73,1.19,2.74c0.73,1.67,0.65,3.67-0.22,5.26c-0.87,1.6-2.5,2.76-4.29,3.05c0.97-3.28,0.12-7-2.05-9.62
							C31.26,88.82,31.84,88.05,32.57,87.46z"/>
						<path class="st5" d="M30.86,89.67c-0.46-0.55-1.14-1.07-1.71-1.51c1.19-0.19,2.6-1.07,2.57-2.42
							c-0.01-0.39-0.31-1.76,0.06-1.9c0.32-0.12,0.76,0.17,1.06,0.33c0.86,0.46,1.85,0.46,3.18,0.65c-0.07,0.4-0.11,0.83-0.12,1.26
							c-1.21,0.13-2.38,0.6-3.33,1.37C31.84,88.05,31.26,88.82,30.86,89.67z"/>
					</g>
					<g>
						<path class="st12" d="M37.42,90.98c0.43,0.97,0.58,1.78,0.49,2.66c-0.33,0-1.6-0.52-1.99-1.33c-0.4-0.82-0.89-1.59-1.46-2.3
							c-0.2-0.3-0.41-0.6-0.62-0.9c0.75-0.39,1.59-0.62,2.48-0.65C36.73,89.34,37.02,90.05,37.42,90.98z"/>
						<path class="st13" d="M33.84,89.11c0.21,0.29,0.42,0.59,0.62,0.9c-0.09-0.11-0.14-0.23-0.23-0.33
							c0.17,0.99,0.53,1.95,0.73,2.94c0.21,0.99,0.19,1.73-0.36,2.57c-0.31,0.48-0.79,0.83-1.32,1.04c0.01-1.99-0.6-3.56-1.57-5.33
							C32.3,90.14,33.02,89.53,33.84,89.11z"/>
						<path class="st5" d="M32.5,87.52c0.02-0.02,0.05-0.04,0.07-0.06c0.94-0.77,2.12-1.24,3.33-1.37
							c-0.02,0.78,0.06,1.56,0.33,2.15c0.03,0.07,0.07,0.14,0.1,0.22c-0.89,0.03-1.73,0.26-2.48,0.65
							c-0.82,0.42-1.55,1.03-2.13,1.78c-0.26-0.42-0.54-0.83-0.85-1.22C31.25,88.85,31.8,88.11,32.5,87.52z"/>
					</g>
				</g>
				<g>
					<path class="st9" d="M-21.14,136.48c1.1-1.94,2.07-3.93,3.18-5.85c1.13-1.95,2.43-3.78,3.88-5.48
						c2.78-3.26,6.12-6.02,9.84-8.07c2.89-1.59,6-2.81,9.22-3.49c2.41-0.51,4.61-1.4,7.09-1.21c0.65,0.05,1.34,0.12,2.04,0.22
						c3.98,0.56,8.5,2.05,9.99,6.1c0.98,2.65,0.64,5.7-0.53,8.27c-1.17,2.57-3.12,4.68-5.31,6.39c-0.58,0.45-1.26,0.9-1.98,0.79
						c-0.55-0.09-0.96-0.6-1.04-1.16c0.06,0.45-1.93,2.87-3.16,2.76c-0.36-0.03-0.67-0.47-0.5-0.8c-0.37,0.68-0.82,1.43-1.56,1.63
						c-0.34,0.09-0.68-0.07-0.74-0.46c-0.51,0.66-1.27,1.4-2.09,1.58c-0.46,0.1-1.02-0.12-1.14-0.59c-0.4,0.41-0.83,0.83-1.37,0.98
						c-0.54,0.15-1.23-0.08-1.4-0.64c-0.41,0.31-0.82,0.63-1.3,0.8s-1.04,0.18-1.47-0.12c-0.42-0.29-0.63-0.93-0.37-1.38
						c-0.12,0.2-0.51,0.44-0.69,0.6c-0.27,0.25-0.57,0.48-0.93,0.54c-0.5,0.09-1.1-0.29-1.04-0.81c-0.35,0.33-0.7,0.66-1.12,0.88
						c-0.42,0.22-0.91,0.33-1.36,0.19c-0.45-0.14-0.82-0.58-0.81-1.07c-0.38,0.39-0.76,0.78-1.24,1.02
						c-0.48,0.24-1.06,0.31-1.53,0.04c-0.43-0.25-0.68-0.86-0.47-1.32c-0.03-0.14-0.03,0.35-0.06,0.22
						c-0.54,0.61-1.22,1.09-1.97,1.38c-0.27,0.1-0.57,0.18-0.83,0.07c-0.27-0.11-0.44-0.48-0.27-0.71c-0.45,0.54-1.1,0.86-1.74,1.14
						c-0.3,0.13-0.61,0.26-0.94,0.29c-0.33,0.03-0.68-0.05-0.91-0.29c-0.23-0.24-0.31-0.66-0.11-0.93c-0.6,0.55-1.31,0.97-2.07,1.23
						c-0.26,0.09-0.54,0.16-0.79,0.05c-0.35-0.15-0.49-0.67-0.27-0.98c-0.56,0.49-1.26,0.81-1.99,0.9
						c-0.22,0.03-0.46,0.03-0.63-0.11c-0.23-0.18-0.25-0.52-0.22-0.82C-21.78,137.53-21.51,137.13-21.14,136.48z"/>
					<path class="st8" d="M-20.38,134.6c1.09-1.86,2.06-3.77,3.16-5.61c1.12-1.87,2.41-3.63,3.85-5.26c2.77-3.13,6.31-6.18,10-8.15
						c2.88-1.53,9.7-5.53,18.5-4.16c3.95,0.62,7.96,2.24,9.44,6.13c0.97,2.54,0.64,5.47-0.53,7.93c-1.16,2.46-3.1,4.49-5.28,6.13
						c-0.58,0.43-1.25,0.86-1.97,0.75c-0.55-0.08-0.96-0.58-1.04-1.11c0.06,0.43-1.92,2.76-3.14,2.65c-0.36-0.03-0.67-0.45-0.5-0.77
						c-0.37,0.66-0.82,1.37-1.55,1.56c-0.34,0.09-0.68-0.07-0.73-0.45c-0.5,0.63-1.26,1.35-2.08,1.52
						c-0.45,0.09-1.01-0.12-1.13-0.56c-0.4,0.39-0.82,0.8-1.36,0.94c-0.54,0.15-1.22-0.08-1.39-0.61c-0.41,0.3-0.82,0.61-1.3,0.77
						c-0.48,0.16-1.04,0.17-1.46-0.11c-0.42-0.28-0.63-0.89-0.37-1.32c-0.12,0.2-0.51,0.42-0.69,0.58
						c-0.27,0.24-0.56,0.46-0.92,0.52c-0.49,0.09-1.09-0.28-1.04-0.77c-0.35,0.31-0.7,0.63-1.11,0.84
						c-0.42,0.21-0.91,0.32-1.35,0.18c-0.45-0.14-0.82-0.56-0.81-1.03c-0.37,0.37-0.76,0.75-1.23,0.98
						c-0.47,0.23-1.06,0.3-1.52,0.04c-0.43-0.24-0.67-0.83-0.47-1.27c-0.03-0.13-0.03,0.34-0.06,0.21
						c-0.53,0.59-1.21,1.05-1.96,1.32c-0.27,0.1-0.56,0.17-0.83,0.07c-0.26-0.1-0.44-0.46-0.27-0.68c-0.45,0.52-1.1,0.83-1.73,1.09
						c-0.3,0.13-0.61,0.25-0.93,0.28c-0.33,0.03-0.67-0.05-0.91-0.28s-0.3-0.63-0.11-0.89c-0.6,0.53-1.3,0.93-2.06,1.18
						c-0.26,0.08-0.54,0.15-0.79,0.05c-0.35-0.14-0.49-0.64-0.27-0.94c-0.56,0.47-1.25,0.78-1.98,0.87
						c-0.22,0.03-0.46,0.03-0.63-0.1c-0.22-0.17-0.25-0.5-0.22-0.78C-21.01,135.61-20.75,135.23-20.38,134.6z"/>
					<path class="st5" d="M20.65,124.6c-0.73,1.15-1.36,2.4-2.47,3.12c-0.53,0.38-1.16,0.6-1.8,0.58c-0.64-0.02-1.3-0.27-1.75-0.8
						c0.31,0.63,1.01,1.03,1.72,1.11c0.73,0.1,1.46-0.17,2.05-0.55C19.6,127.21,20.22,125.88,20.65,124.6z"/>
					<path class="st5" d="M13.84,128.84c-0.57,0.67-1.02,1.41-1.73,1.8c-0.33,0.22-0.72,0.34-1.11,0.33
						c-0.39-0.01-0.8-0.15-1.11-0.46c0.17,0.42,0.62,0.69,1.08,0.77c0.47,0.08,0.95-0.07,1.35-0.29
						C13.12,130.48,13.57,129.66,13.84,128.84z"/>
					<path class="st5" d="M8.56,130.29c-0.68,0.46-1.26,1.03-1.99,1.24c-0.35,0.13-0.72,0.16-1.08,0.08
						c-0.36-0.08-0.71-0.27-0.95-0.6c0.09,0.41,0.45,0.74,0.86,0.9c0.42,0.17,0.89,0.13,1.3,0C7.53,131.61,8.12,130.98,8.56,130.29z
						"/>
					<path class="st5" d="M3.11,131.29c-0.51,0.61-1.17,1.11-1.9,1.35c-0.36,0.12-0.75,0.12-1.07-0.02
						c-0.32-0.12-0.56-0.43-0.61-0.76c-0.02-0.1-0.11-0.17-0.21-0.16c-0.05,0.01-0.09,0.03-0.12,0.07c-0.39,0.47-0.79,0.9-1.31,1.08
						c-0.25,0.09-0.53,0.1-0.76,0c-0.23-0.1-0.43-0.3-0.47-0.53l-0.34,0.06c0.01-0.1-0.03,0.04-0.06,0.07l-0.13,0.17
						c-0.1,0.11-0.18,0.23-0.3,0.31c-0.23,0.17-0.45,0.36-0.7,0.51c-0.51,0.28-1.09,0.44-1.69,0.46c0.6,0.08,1.23-0.02,1.79-0.26
						c0.27-0.14,0.53-0.33,0.79-0.49c0.14-0.08,0.24-0.2,0.35-0.31l0.16-0.18c0.05-0.09,0.12-0.08,0.14-0.33
						c0.01-0.1-0.06-0.18-0.16-0.19c-0.1-0.01-0.18,0.06-0.19,0.16l0,0.04l0.01,0.04c0.06,0.38,0.34,0.67,0.66,0.81
						c0.33,0.15,0.71,0.14,1.03,0.04c0.67-0.2,1.1-0.75,1.47-1.22l-0.33-0.09c0.08,0.46,0.42,0.86,0.85,1.02
						c0.43,0.16,0.89,0.1,1.28-0.05C2.08,132.58,2.7,131.98,3.11,131.29z"/>
					<path class="st5" d="M14.73,124.14c-0.48,0.8-1.11,1.46-1.9,1.84c-0.38,0.21-0.81,0.35-1.23,0.36
						c-0.42,0.01-0.86-0.14-1.17-0.5c0.16,0.46,0.65,0.76,1.15,0.81c0.51,0.05,0.99-0.11,1.43-0.31
						C13.87,125.89,14.56,125.08,14.73,124.14z"/>
					<path class="st5" d="M8.78,126.24c-0.4,0.32-0.72,0.68-1.13,0.82c-0.19,0.09-0.41,0.12-0.62,0.11
						c-0.22-0.01-0.44-0.07-0.64-0.23c0.07,0.26,0.32,0.45,0.59,0.53c0.27,0.08,0.56,0.05,0.83-0.04
						C8.32,127.19,8.66,126.74,8.78,126.24z"/>
					<path class="st5" d="M-8.78,133.2c-0.33,0.36-0.75,0.61-1.19,0.75c-0.22,0.06-0.45,0.09-0.64,0.02
						c-0.19-0.06-0.31-0.22-0.39-0.41l-0.09-0.21l-0.18,0.14c-0.48,0.38-0.89,0.82-1.4,0.95c-0.24,0.06-0.52,0.06-0.74-0.05
						c-0.23-0.1-0.42-0.3-0.47-0.52l-0.06-0.25l-0.21,0.14c-0.45,0.3-0.88,0.62-1.39,0.73c-0.48,0.1-1.08,0.01-1.4-0.46
						c0.22,0.52,0.88,0.77,1.44,0.69c0.58-0.08,1.09-0.37,1.54-0.66l-0.27-0.11c0.17,0.74,1.01,1.07,1.66,0.88
						c0.67-0.2,1.07-0.71,1.51-1.07l-0.27-0.07c0.11,0.25,0.34,0.49,0.63,0.55c0.28,0.06,0.55,0,0.79-0.09
						C-9.43,133.96-9.03,133.62-8.78,133.2z"/>
				</g>
			</g>
		</g>
		<g class="st4">
			<path class="st7" d="M81.97,20.61c2.18-1.34,4.03-3.07,5.71-4.9c0.82-0.94,1.56-1.94,2.27-2.94c0.35-0.51,0.7-1.01,1.02-1.53
				c0.31-0.53,0.61-1.07,0.9-1.61c2.38-4.28,3.74-9,4.73-13.4c1-4.61,1.65-9.36,2.62-13.83c-2.89,0.57-5.64,1.73-8.37,3.09
				c-1.31,0.72-2.67,1.46-3.94,2.29c-1.24,0.85-2.51,1.7-3.67,2.64c-3.29,2.57-6.14,5.5-9.03,8.5c-2.88,3-5.66,6.21-8.59,9.29
				c-2.93,3.05-5.98,6.33-9.44,9.19c-3.47,2.8-7.33,5.18-11.46,6.44c5.85-0.57,11.78,0.53,18.16,0.83
				C69.2,24.97,75.97,24.44,81.97,20.61z"/>
			<path class="st14" d="M70.66,23.37c3.43-0.77,6.3-1.69,8.99-3.04c1.32-0.71,2.61-1.51,3.87-2.47c1.23-1.02,2.46-2.17,3.69-3.56
				c3.61-4.18,6-9.66,7.58-15.13c1.61-5.48,2.43-10.94,3.4-15.66c-1.04,0.65-1.82,1.58-2.59,2.61c-0.77,1.03-1.39,2.25-2.01,3.51
				c-0.65,1.24-1.24,2.57-1.85,3.87c-0.66,1.26-1.31,2.5-2,3.6c-0.81,1.2-1.53,2.31-2.18,3.41c-0.65,1.11-1.32,2.1-1.95,3.16
				c-0.32,0.52-0.63,1.06-0.97,1.58c-0.35,0.52-0.7,1.04-1.06,1.57c-0.74,1.06-1.51,2.2-2.48,3.32c-3.53,4.3-8.76,7.4-14.26,9.37
				c-5.52,2-11.3,2.84-16.32,3.39C56.64,24.07,63.78,24.94,70.66,23.37z"/>
			<g class="st15">
				<g>
					<path class="st5" d="M44.71,23.59c5.23-0.88,9.5-0.17,14.81,0.32c0.92,0.06,1.88,0.12,2.87,0.16c3.83,0.16,7.99-0.1,12.02-1.09
						c1.98-0.53,3.95-1.22,5.76-2.15c1.77-0.98,3.5-2.06,4.88-3.52c5.88-5.85,8.3-12.46,9.92-18.62c1.45-5.61,2.32-10.76,4.27-16.28
						l0.16,0.04C97.44-12.05,96.58-6.9,95.14-1.3c-1.62,6.19-4.05,12.83-9.97,18.72c-1.4,1.47-3.15,2.57-4.93,3.56
						c-1.83,0.94-3.8,1.64-5.8,2.17c-4.06,1-8.25,1.26-12.09,1.09c-1-0.04-1.96-0.1-2.88-0.16c-5.29-0.49-9.54-1.21-14.74-0.33
						L44.71,23.59z"/>
				</g>
				<g>
					<path class="st5" d="M44.83,23.57c4.94-0.84,9.15-0.39,14.32-0.21c0.98,0.01,2,0.01,3.06-0.01c3.42-0.07,6.99-0.43,10.41-1.29
						c3.42-0.85,6.66-2.21,9.37-4.18c0.79-0.54,1.52-1.2,2.19-1.88c5.5-5.5,8.05-11.63,9.87-17.42c1.74-5.59,2.85-10.75,5.11-16.16
						l0.15,0.06c-2.25,5.38-3.36,10.54-5.09,16.12c-1.83,5.81-4.39,11.97-9.92,17.5c-0.68,0.69-1.41,1.35-2.22,1.91
						c-2.73,1.99-6,3.36-9.43,4.21c-1.73,0.41-3.45,0.77-5.23,0.94c-1.77,0.19-3.49,0.35-5.23,0.35c-1.06,0.02-2.09,0.02-3.07,0.01
						c-5.16-0.18-9.36-0.64-14.27,0.2L44.83,23.57z"/>
				</g>
				<g>
					<path class="st5" d="M44.95,23.55c4.63-0.8,8.75-0.6,13.78-0.71c1.06-0.06,2.17-0.12,3.32-0.21c1.36-0.08,2.84-0.29,4.46-0.53
						c1.63-0.22,3.32-0.61,5.04-1.08c3.45-0.93,6.91-2.44,9.63-4.46c0.76-0.52,1.45-1.19,2.13-1.86c5.07-5.1,7.72-10.72,9.72-16.08
						C95.1-7,96.49-12.23,99.09-17.56l0.15,0.07c-2.6,5.3-3.98,10.52-6.04,16.14c-2,5.38-4.66,11.03-9.76,16.16
						c-0.69,0.68-1.39,1.35-2.16,1.89c-2.75,2.03-6.23,3.55-9.7,4.49c-1.73,0.48-3.43,0.86-5.07,1.09
						c-1.63,0.25-3.12,0.46-4.48,0.53c-1.15,0.09-2.26,0.15-3.33,0.21c-5.01,0.11-9.13-0.1-13.73,0.7L44.95,23.55z"/>
				</g>
				<g>
					<path class="st5" d="M45.08,23.53c4.29-0.76,8.3-0.79,13.13-1.17c1.18-0.12,2.4-0.27,3.68-0.44c2.8-0.41,6.16-1.06,9.46-2.15
						c1.68-0.5,3.26-1.23,4.82-1.95c1.55-0.74,2.94-1.66,4.22-2.58c0.72-0.51,1.38-1.17,2.07-1.84c4.61-4.65,7.29-9.72,9.42-14.59
						c2.47-5.72,4.13-11.08,7.16-16.35l0.14,0.08c-3.02,5.25-4.68,10.6-7.14,16.31c-2.14,4.89-4.83,9.98-9.46,14.66
						c-0.69,0.68-1.36,1.35-2.09,1.87c-1.29,0.93-2.69,1.86-4.25,2.6c-0.78,0.37-1.58,0.72-2.38,1.06c-0.8,0.34-1.62,0.65-2.46,0.9
						c-3.32,1.1-6.68,1.75-9.5,2.16c-1.28,0.17-2.5,0.33-3.69,0.44c-4.81,0.38-8.82,0.4-13.09,1.16L45.08,23.53z"/>
				</g>
				<g>
					<path class="st5" d="M45.2,23.51c1.95-0.39,3.95-0.55,5.98-0.82c2.06-0.19,4.14-0.47,6.33-0.74c1.36-0.18,2.74-0.47,4.2-0.74
						c6.59-1.34,13.41-3.88,17.86-7.28c0.74-0.54,1.39-1.22,2-1.82c4.07-4.16,6.77-8.58,8.92-12.95c2.92-5.88,4.94-11.44,8.48-16.68
						l0.13,0.09c-3.52,5.22-5.53,10.76-8.45,16.64c-2.16,4.39-4.86,8.82-8.95,13c-0.62,0.61-1.27,1.29-2.03,1.85
						c-4.47,3.42-11.32,5.97-17.94,7.31c-1.46,0.27-2.84,0.56-4.21,0.74c-2.19,0.28-4.26,0.55-6.32,0.74
						c-2.03,0.27-4.03,0.43-5.97,0.82L45.2,23.51z"/>
				</g>
				<g>
					<path class="st5" d="M45.33,23.49c1.72-0.36,3.54-0.54,5.39-0.87c0.94-0.14,1.89-0.28,2.86-0.43c0.96-0.18,1.94-0.36,2.94-0.54
						c1.64-0.26,3.27-0.73,5.02-1.15c1.54-0.39,3.08-0.94,4.67-1.45c1.57-0.55,3.1-1.2,4.63-1.84c1.49-0.7,2.93-1.44,4.28-2.18
						c1.31-0.8,2.54-1.61,3.63-2.41c0.7-0.53,1.31-1.17,1.94-1.81c1.78-1.75,3.24-3.66,4.61-5.49c1.3-1.91,2.52-3.74,3.55-5.64
						c3.48-6.13,5.92-11.96,10.04-17.19l0.12,0.11C94.91-12.21,92.48-6.38,89-0.26c-1.04,1.91-2.26,3.75-3.57,5.66
						c-1.38,1.83-2.84,3.75-4.63,5.51c-0.64,0.64-1.26,1.29-1.96,1.83c-1.09,0.8-2.33,1.62-3.65,2.42c-1.36,0.74-2.81,1.49-4.3,2.19
						c-1.53,0.64-3.08,1.3-4.65,1.85c-1.6,0.51-3.14,1.06-4.69,1.45c-1.75,0.43-3.39,0.89-5.03,1.16c-0.99,0.18-1.97,0.37-2.93,0.55
						c-0.97,0.14-1.92,0.29-2.86,0.42c-1.85,0.34-3.67,0.51-5.39,0.87L45.33,23.49z"/>
				</g>
				<g>
					<path class="st5" d="M45.45,23.47c2.85-0.55,6.06-1.05,9.44-1.87c1.03-0.26,2.11-0.49,3.18-0.8c1.07-0.33,2.16-0.67,3.29-1.02
						c1.51-0.5,3.03-1.12,4.59-1.7c1.52-0.65,3.04-1.34,4.51-2.05c1.43-0.77,2.83-1.52,4.1-2.31c1.24-0.82,2.39-1.63,3.38-2.41
						c0.58-0.49,1.17-1.06,1.88-1.79c1.46-1.44,2.7-3,3.9-4.5c1.17-1.53,2.22-3.08,3.23-4.59c1.04-1.71,2.1-3.29,2.99-4.91
						c0.47-0.8,0.93-1.58,1.41-2.34c0.44-0.78,0.88-1.55,1.35-2.29c1.86-2.97,3.69-5.76,6.15-8.38l0.11,0.12
						c-2.44,2.61-4.27,5.39-6.13,8.35c-0.46,0.74-0.9,1.51-1.34,2.29c-0.47,0.76-0.94,1.53-1.4,2.33c-0.89,1.63-1.95,3.2-2.99,4.91
						c-1.01,1.52-2.07,3.08-3.24,4.61c-1.21,1.5-2.44,3.07-3.91,4.51c-0.72,0.73-1.32,1.31-1.9,1.81c-0.14,0.11-0.28,0.22-0.42,0.33
						c-1,0.76-2.14,1.57-3.37,2.35c-1.27,0.74-2.62,1.5-4.02,2.22c-1.44,0.67-2.9,1.36-4.38,1.97c-1.51,0.57-2.98,1.17-4.44,1.65
						c-1.12,0.35-2.22,0.69-3.29,1.02c-1.08,0.31-2.15,0.54-3.19,0.8c-3.38,0.82-6.59,1.32-9.44,1.86L45.45,23.47z"/>
				</g>
				<g>
					<path class="st5" d="M45.58,23.44c0.9-0.18,1.85-0.37,2.85-0.56c1-0.19,2.02-0.48,3.08-0.72c2.96-0.69,6.26-1.75,9.67-3.09
						c5.94-2.33,12.32-6,15.92-9.07c0.68-0.61,1.3-1.23,1.82-1.77c1.1-1.09,2.09-2.25,3.03-3.4c0.97-1.12,1.83-2.3,2.67-3.46
						c1.34-1.74,2.44-3.56,3.62-5.22c1.06-1.75,2.23-3.33,3.26-4.95c0.54-0.8,1.1-1.56,1.67-2.31c0.54-0.77,1.1-1.51,1.7-2.23
						c0.3-0.36,0.61-0.71,0.92-1.06c0.3-0.36,0.6-0.71,0.92-1.06c0.63-0.7,1.31-1.37,2.04-2.03l0.09,0.13
						c-1.47,1.29-2.64,2.72-3.87,4.13c-0.6,0.72-1.16,1.46-1.69,2.23c-0.57,0.74-1.13,1.51-1.66,2.3c-1.03,1.62-2.19,3.19-3.26,4.94
						c-1.18,1.65-2.28,3.47-3.62,5.21c-0.84,1.16-1.71,2.34-2.68,3.47c-0.95,1.15-1.93,2.32-3.04,3.41
						c-0.53,0.54-1.16,1.17-1.84,1.78c-3.6,3.1-10.01,6.77-15.97,9.1c-3.42,1.35-6.73,2.41-9.7,3.1c-1.07,0.24-2.08,0.53-3.09,0.72
						c-1,0.2-1.95,0.39-2.85,0.56L45.58,23.44z"/>
				</g>
				<g>
					<path class="st5" d="M89.86-8.01c2.64-3.58,5.34-6.71,8.85-9.46l0.08,0.14c-3.37,2.64-5.97,5.65-8.53,9.05
						c-2.6,3.36-5.12,7.12-8.23,10.96c-1.24,1.41-2.45,2.97-3.87,4.36C77.62,7.59,77,8.21,76.37,8.8c-3.16,2.77-8.82,6.64-15.3,9.7
						c-6.18,2.91-11.78,4.42-15.34,5.08l-0.02-0.16c3.55-0.65,9.13-2.16,15.3-5.06c6.47-3.05,12.12-6.92,15.26-9.68
						c0.63-0.58,1.25-1.21,1.77-1.75c1.42-1.39,2.63-2.94,3.86-4.35C84.88-1.12,87.35-4.75,89.86-8.01z"/>
				</g>
				<g>
					<path class="st5" d="M87.17-6.28c3.5-4.33,6.96-8.16,11.47-11.18l0.07,0.15c-3.98,2.65-7.14,5.93-10.22,9.67
						c-3.08,3.72-6.15,7.87-9.77,11.84c-0.46,0.55-0.97,1.04-1.46,1.56c-0.56,0.57-1.13,1.17-1.72,1.73
						c-2.48,2.19-6.98,6.02-14.63,10.3c-5.92,3.2-11.41,5.09-15.04,5.77l-0.03-0.16c3.62-0.67,9.09-2.55,14.99-5.75
						c7.64-4.27,12.13-8.09,14.6-10.27c0.59-0.56,1.16-1.15,1.71-1.72c0.49-0.52,1.01-1.01,1.46-1.55
						C81.76,0.65,84.45-2.98,87.17-6.28z"/>
				</g>
				<g>
					<path class="st5" d="M84.47-4.95c4.42-5.09,8.53-9.4,14.1-12.5l0.05,0.16c-4.38,2.43-7.88,5.6-11.31,9.37
						c-3.43,3.75-6.85,8.07-10.97,12.4l-0.28,0.29c-0.46,0.47-0.93,0.95-1.39,1.42c-0.57,0.59-1.33,1.21-2.16,1.97
						c-0.42,0.37-0.85,0.77-1.31,1.18c-0.47,0.4-0.98,0.8-1.49,1.23c-0.66,0.54-1.35,1.1-2.05,1.67c-0.73,0.54-1.47,1.08-2.23,1.64
						c-0.38,0.28-0.76,0.56-1.14,0.84l-1.19,0.78c-0.8,0.53-1.6,1.05-2.4,1.58c-1.63,0.94-3.13,1.87-4.58,2.58
						c-1.46,0.7-2.78,1.41-4.04,1.88c-1.26,0.5-2.39,0.95-3.41,1.28c-1.03,0.3-1.94,0.54-2.71,0.71l-0.03-0.15
						c0.77-0.17,1.67-0.41,2.7-0.71c1.02-0.33,2.14-0.78,3.39-1.27c1.26-0.47,2.57-1.18,4.03-1.88c1.45-0.71,2.94-1.64,4.56-2.57
						c0.79-0.52,1.59-1.05,2.39-1.57l1.19-0.78c0.38-0.28,0.76-0.56,1.14-0.84c0.75-0.55,1.5-1.1,2.22-1.63
						c0.7-0.57,1.38-1.12,2.05-1.66c0.52-0.42,1.01-0.83,1.49-1.22c0.46-0.41,0.9-0.81,1.31-1.18c0.82-0.76,1.58-1.38,2.15-1.97
						c0.46-0.47,0.93-0.95,1.38-1.41l0.28-0.29C79.24,1.18,81.95-1.96,84.47-4.95z"/>
				</g>
				<g>
					<path class="st5" d="M81.85-3.97c0.76-0.87,1.51-1.68,2.26-2.43c0.76-0.74,1.43-1.51,2.15-2.2c4.02-3.97,7.86-6.84,12.25-8.82
						l0.04,0.17c-4.82,2.2-8.76,5.39-12.43,9.03C82.45-4.6,78.98-0.53,75.45,3.21l-0.62,0.65l-0.99,1.03
						c-0.81,0.85-1.97,1.91-3.3,3.25c-0.68,0.65-1.44,1.31-2.24,2.04c-0.4,0.36-0.81,0.73-1.23,1.11c-0.44,0.36-0.88,0.72-1.33,1.09
						c-1.63,1.39-3.42,2.68-5.2,3.99c-3.37,2.29-6.28,3.96-8.71,5.08c-1.22,0.54-2.29,1.03-3.24,1.36
						c-0.96,0.32-1.79,0.56-2.48,0.71l-0.03-0.15c0.69-0.16,1.51-0.39,2.47-0.71c0.95-0.33,2.01-0.82,3.23-1.36
						c2.41-1.11,5.32-2.77,8.67-5.06c1.78-1.3,3.57-2.59,5.19-3.98c0.45-0.37,0.9-0.73,1.33-1.09c0.42-0.38,0.83-0.75,1.23-1.11
						c0.79-0.73,1.56-1.38,2.23-2.03c1.33-1.34,2.49-2.4,3.3-3.24l0.99-1.03l0.62-0.65c0.65-0.65,1.25-1.32,1.82-1.96
						c0.58-0.64,1.14-1.24,1.69-1.82C79.89-1.87,80.88-2.96,81.85-3.97z"/>
				</g>
				<g>
					<path class="st5" d="M79.46-3.51c3.3-3.45,6.38-6.27,9.41-8.61c1.59-1.12,3.04-2.2,4.68-3.05c1.59-0.88,3.18-1.65,4.9-2.24
						l0.02,0.17c-4.18,1.5-7.95,3.83-11.72,7.03c-3.81,3.18-7.62,7.26-12.22,12.15c-0.45,0.47-0.9,0.95-1.33,1.42l-0.22,0.24
						c-0.73,0.83-1.86,1.93-3.16,3.38c-0.66,0.71-1.42,1.43-2.21,2.23c-0.4,0.39-0.8,0.81-1.23,1.22c-0.44,0.4-0.88,0.8-1.34,1.22
						c-1.46,1.39-3.08,2.68-4.71,4c-1.14,0.89-2.4,1.76-3.65,2.66c-1.28,0.84-2.6,1.64-3.86,2.39c-1.29,0.68-2.53,1.3-3.65,1.81
						c-1.13,0.48-2.15,0.8-2.95,0.99l-0.03-0.15c0.8-0.19,1.81-0.51,2.93-0.99c1.11-0.51,2.35-1.12,3.63-1.8
						c1.26-0.75,2.57-1.55,3.85-2.38c1.25-0.9,2.5-1.77,3.64-2.65c1.62-1.32,3.24-2.61,4.7-3.99c0.45-0.41,0.9-0.82,1.33-1.21
						c0.43-0.4,0.83-0.83,1.23-1.22c0.78-0.8,1.54-1.52,2.2-2.23c1.3-1.45,2.43-2.55,3.16-3.38l0.22-0.24
						c0.44-0.46,0.89-0.94,1.33-1.42c0.93-0.91,1.73-1.9,2.59-2.77C77.88-1.79,78.66-2.69,79.46-3.51z"/>
				</g>
				<g>
					<path class="st5" d="M77.46-3.54c2.68-2.63,5.63-5.49,9.08-7.94c0.84-0.63,1.72-1.23,2.66-1.78c0.92-0.56,1.83-1.13,2.82-1.62
						c2.01-0.98,4.03-1.89,6.37-2.51l0.01,0.17c-6.31,1.8-11.29,5.24-15.61,8.93C78.5-4.6,74.83-0.59,72.13,2.3
						c-1.31,1.47-3.84,4.69-7.24,8.17C61.99,13.5,58.36,16.6,54.9,19c-0.87,0.58-1.7,1.18-2.53,1.67c-0.83,0.48-1.62,0.92-2.35,1.31
						c-1.46,0.82-2.76,1.25-3.67,1.49l-0.03-0.15c0.17-0.04,0.34-0.09,0.53-0.15c0.49-0.15,1.06-0.37,1.69-0.63
						c0.63-0.27,1.3-0.65,2.03-1.04c0.72-0.4,1.5-0.83,2.29-1.32c0.77-0.52,1.59-1.07,2.43-1.64c3.29-2.36,6.73-5.28,9.47-8.17
						c3.4-3.47,5.92-6.69,7.24-8.16c0.73-0.85,1.61-1.72,2.51-2.7C75.4-1.5,76.44-2.47,77.46-3.54z"/>
				</g>
			</g>
		</g>
		<g class="st4">
			<path class="st16" d="M131.37,76.83c-0.8-1.01-1.59-2.04-2.37-3.08c0,0,2.26,1.08,3.81,1.83c0.69-0.62,1.39-1.25,2.1-1.9
				l-1.06-2.12l2.61,0.64c2.79-2.72,5.62-5.7,8.18-8.94c0.86-1.12,1.72-2.19,2.51-3.27l-4.81-4.28c0,0,0.93,0.44,2.13,1.01
				c1.2,0.58,2.66,1.3,3.74,1.82c0.43-0.58,0.84-1.16,1.23-1.74l-3.13-3.43c0,0,2.28,1.24,3.99,2.17c1.91-2.91,3.49-5.6,4.58-8.13
				l-1.71-2.97c0,0,1.14,0.75,2.31,1.53c0.4-1.04,0.71-2.06,0.92-3.02c0.22-0.95,0.34-1.86,0.35-2.71c0.01-1.71-0.41-3.21-1.34-4.37
				c-15.93,12.74-28.67,29.42-36.78,48.14C120.71,84.87,125.72,81.6,131.37,76.83z"/>
			<path class="st6" d="M139.5,36.8c-4.05,2.3-8.43,5.91-12.48,10.83l4.76,5.09c-2.26-0.84-4.53-1.64-6.84-2.42
				c-3.11,4.26-5.54,8.85-7.16,13.22l5.85,3.94l-0.38,0.63c-2.12-0.67-4.25-1.3-6.38-1.91c-0.43,1.48-0.82,2.88-1.06,4.25l4.57,2.74
				l-0.26,0.48l-4.65-1.16c-0.76,6.01,0.43,10.33,3.15,11.49c8.11-18.72,20.85-35.4,36.78-48.14c-2.22-2.82-7.13-3.19-13.36-0.35
				c0.44,2.02,0.9,4,1.44,5.99L139.5,36.8z"/>
		</g>
		<g class="st4">
			<path class="st6" d="M153.48,133.46c-1.9,1.41-4.2,2.98-6.69,2.3c-2.73-0.74-4.7-4.38-7.7-4.05c-0.15,1.54,0.79,2.78,1.25,4.22
				c0.32,1.01,0.43,2.1,0.34,3.16c-0.16,1.96-1.05,4.23-3.07,4.88c-2.11,0.67-4.41-0.5-6.29-1.31c-1.9-0.82-5.13-1.62-6.09-3.66
				c-0.1-0.22,0.07-0.42,0.27-0.47c0.7-0.18,1.34-0.04,2.05-0.11c0.56-0.06,1.11-0.28,1.56-0.63c0.35-0.27,0.94-0.86,1.17-1.4
				c-4.36,1.38-8.68,0.99-12.59-1.56c-1.98-1.29-3.59-2.96-4.82-4.97c-0.74-1.21-1.86-2.9-1.49-4.38c0.06-0.24,0.33-0.41,0.55-0.23
				c3.23,2.58,7.53,3.36,11.57,3.38c0.61,0,1.24,0.01,1.84-0.09c0.43-0.07,1.48-0.25,1.66-0.71c0.18-0.47-0.81-1.8-1.26-1.89
				c-0.81-0.16-1.85,0.03-2.68,0.03c-1.06,0-2.12-0.01-3.17-0.07c-2.03-0.11-3.99-0.44-5.98-0.87c-1.18-0.25-2.51-0.36-3.55-1.03
				c-0.9-0.58-1.11-1.42-1.08-2.44c0.05-1.51-0.04-3.29,0.45-4.72c0.08-0.22,0.36-0.26,0.53-0.14c3.45,2.43,7.72,4.25,11.88,4.98
				c0.69,0.12,1.41,0.21,2.1,0.1c1.64-0.27,2.25-1.9,0.7-2.87c-1.41-0.89-4.07-0.75-5.67-0.89c-2.97-0.26-7.24-0.41-9.46-2.79
				c-1.43-1.53-0.63-4.78,0.42-6.34c0.1-0.14,0.35-0.18,0.48-0.06c1.16,1.09,2.27,2.24,3.53,3.21c0.76,0.58,1.56,1.12,2.46,1.47
				c0.52,0.22,1.07,0.37,1.63,0.45c0.68,0.11,0.97-0.13,0.87-0.72c-1.96-0.22-4.45-2.17-5.4-3.01c-0.98-0.87-2.15-1.83-2.33-3.22
				c-0.19-1.55,1.33-3.46,0.38-4.89c-0.15-0.23-0.03-0.48,0.23-0.55c1.23-0.32,2.35-0.66,3.46-1.26c0.62-0.34,1.29-0.78,2.02-0.83
				c1.37-0.09,2.25,1.14,2.75,2.27c0.31,0.7,0.42,1.33,0.48,2.08c0.02,0.27-0.05,0.96,0.13,1.14c0.5,0.08,1,0.16,1.5,0.24
				c0.1-0.32,0.15-0.64,0.16-0.97c0.14-2.25-0.86-5.08-2.85-6.27c-0.22-0.13-0.15-0.52,0.08-0.59c2.96-0.93,5.32-0.52,6.21,2.71
				c0.82,2.97,0.14,6.08,0.67,9.08c0.09,0.48,0.29,1.86,0.78,2.14c1.22,0.7,1.41-1.65,1.49-2.29c0.2-1.54,0.36-3.19,0.27-4.74
				c-0.11-2.1-0.71-4.07-1.85-5.83c-0.68-1.06-1.43-2.06-1.72-3.3c-0.04-0.17,0.12-0.38,0.3-0.39c3.3-0.09,7.07-0.02,8.74,3.35
				c1.33,2.71,0.67,5.94,0.13,8.76c-0.3,1.54-0.66,3.1-0.71,4.67c-0.02,0.47-0.01,0.93,0.07,1.39c-0.05,0.73,0.3,1.02,1.05,0.87
				c0.69,0.38,1.09,0.21,1.19-0.54c0.35-0.93,0.38-1.98,0.44-2.96c0.31-4.98,0.25-9.98,0.73-14.96c0.02-0.24,0.27-0.34,0.47-0.28
				c2.65,0.85,5.31,2.61,5.83,5.51c0.67,3.75-0.74,7.51-1.96,11c-0.31,0.9-0.65,1.8-0.91,2.72c-0.14,0.5-0.8,2.4,0.44,2.06
				c1.06-0.29,2.15-3.28,2.64-4.2c1.15-2.17,2.09-4.48,2.41-6.93c0.28-2.15,0.01-4.33,0.33-6.49c0.04-0.25,0.35-0.41,0.55-0.23
				c2.11,1.86,4.95,3.58,5.8,6.43c0.99,3.33-1.24,6.97-3.12,9.54c-1,1.36-2.12,2.6-3.23,3.87c-0.23,0.26-1.23,1.25-1.13,1.61
				c0.31,1.06,1.98-0.39,2.42-0.71c1.77-1.27,3.2-2.87,4.21-4.82c1.11-2.16,1.4-4.58,1.98-6.91c0.06-0.22,0.34-0.43,0.55-0.23
				c1.96,1.87,3.6,4.24,3.48,7.07c-0.15,3.31-2.54,6.11-4.99,8.1c-1.03,0.84-2.13,1.42-3.23,2.14c-0.54,0.36-1.81,1.05-0.91,1.83
				c0.42,0.37,1.92,0.29,2.42,0.23c3.71-0.44,5.13-5.17,7.44-7.44c0.17-0.17,0.44-0.03,0.53,0.14
				C162.39,124.57,157.41,130.54,153.48,133.46z M139.41,126.6c-0.17,0.32-0.26,0.78,0.03,1.06c0.28,0.26,0.71,0.17,1.03,0.05
				c0.65-0.25,1.31-0.83,1.56-1.49c0.16-0.41,0-0.79-0.3-0.99c-0.01-0.01-0.02-0.01-0.03-0.02c-0.21-0.13-0.48-0.16-0.76-0.05
				c-0.34,0.14-0.63,0.4-0.88,0.7C139.79,126.07,139.56,126.32,139.41,126.6z M137.6,122.19c-0.1,0.13-0.2,0.25-0.29,0.38
				c-0.4,0.58-0.73,1.6,0.32,1.66c0.88,0.05,1.93-0.79,2.36-1.73c0.04-0.03,0.08-0.08,0.11-0.14c0.16-0.39,0.42-0.96,0.22-1.38
				c-0.14-0.3-0.44-0.35-0.72-0.29c-0.35-0.13-0.79-0.02-1.13,0.27C138.14,121.25,137.8,121.71,137.6,122.19z M135.03,120.55
				c-0.01,0.17-0.01,0.35,0.01,0.53c0.02,0.18,0.21,0.32,0.39,0.3c0.02,0,0.03-0.01,0.05-0.02c0.05,0.03,0.09,0.06,0.15,0.08
				c0.14,0.06,0.31,0.01,0.4-0.11c0.16-0.19,0.29-0.41,0.4-0.64c0.09-0.06,0.16-0.17,0.15-0.31c0-0.04-0.01-0.07-0.01-0.11
				c0.08-0.31,0.08-0.64-0.03-0.95c-0.09-0.25-0.36-0.25-0.53-0.12c-0.01,0-0.02,0-0.03,0c-0.11-0.04-0.25-0.02-0.33,0.05
				c-0.05,0.04-0.07,0.09-0.11,0.13C135.2,119.65,135.01,120.12,135.03,120.55z M134.17,129.74c0.13-0.31,0.06-0.57-0.1-0.76
				c-0.01-0.02-0.01-0.03-0.02-0.05c-0.12-0.2-0.35-0.3-0.59-0.36c-0.21-0.15-0.46-0.2-0.72-0.09c-0.35,0.16-0.62,0.64-0.51,1.02
				c0.01,0.05,0,0.1,0.02,0.15c0.01,0.02,0.03,0.03,0.04,0.05c0,0.19,0.05,0.38,0.2,0.52C132.97,130.7,133.94,130.29,134.17,129.74z
				 M133.93,123.22c-2.36-3.41-5.13-6.8-8.02-9.78c-1.72-1.78-3.63-2.91-5.26-4.79c-0.29-0.34-0.77-0.44-0.48-0.11
				c1.37,1.59,2.89,3.02,4.37,4.5c1.83,1.82,3.36,3.8,4.92,5.85c2.61,3.42,5.18,6.99,6.65,11.08c1.39,3.85,2.52,9.42-1.65,11.94
				c-0.29,0.18-0.17,0.58,0.09,0.71c2.04,1.04,4.34-0.51,5.02-2.51c0.88-2.6-0.37-5.23-0.99-7.73
				C137.71,128.9,135.93,126.11,133.93,123.22z"/>
		</g>
		<g class="st4">
			<g>
				<g>
					<path class="st9" d="M31,2.54c0.56-1.21,1.36-2.3,2.1-3.4c0.75-1.12,1.48-2.41,1.26-3.74c-0.27-1.65-1.92-2.73-3.54-3.13
						c-1.31-0.32-2.79-0.31-3.88,0.48c-1.15,0.83-1.62,2.36-1.51,3.76c0.11,1.41,0.72,2.73,1.39,3.98c0.92,1.72,2.07,3.43,3.5,4.73
						C30.36,4.3,30.62,3.38,31,2.54z"/>
				</g>
				<path class="st5" d="M30.26,3.32c0.09-0.53,0.33-1.03,0.55-1.52c0.22-0.49,0.44-1,0.47-1.54s-0.16-1.12-0.6-1.43
					c-0.45-0.31-1.09-0.28-1.55,0.02c-0.46,0.3-0.75,0.81-0.86,1.35s-0.05,1.1,0.08,1.63c0.28,1.16,0.95,2.69,1.97,3.37
					C30.33,4.77,30.17,3.85,30.26,3.32z"/>
				<path class="st10" d="M30.18,3.12c0.13-0.46,0.36-0.93,0.28-1.4c-0.05-0.27-0.19-0.52-0.41-0.69c-0.06-0.05-0.13-0.09-0.2-0.1
					c-0.12-0.02-0.24,0.05-0.33,0.13c-0.33,0.29-0.42,0.77-0.42,1.21c-0.01,0.83,0.18,1.69,0.71,2.34c0.12,0.15,0.32,0.36,0.47,0.49
					C30.08,4.49,30.01,3.74,30.18,3.12z"/>
			</g>
			<g>
				<g>
					<path class="st9" d="M28.07,3.61c-0.98-0.91-1.76-2-2.59-3.05c-0.83-1.06-1.83-2.15-3.17-2.35c-1.65-0.25-3.19,0.98-4.07,2.4
						c-0.71,1.14-1.16,2.56-0.75,3.84c0.43,1.35,1.74,2.27,3.11,2.6c1.38,0.33,2.82,0.15,4.21-0.09c1.92-0.34,3.9-0.9,5.58-1.87
						C29.54,4.77,28.75,4.24,28.07,3.61z"/>
				</g>
				<path class="st5" d="M28.58,4.56c-0.48-0.25-0.88-0.63-1.27-0.99c-0.4-0.37-0.81-0.73-1.32-0.92c-0.5-0.19-1.11-0.19-1.54,0.13
					c-0.44,0.33-0.6,0.95-0.46,1.48C24.12,4.79,24.52,5.23,25,5.5c0.48,0.27,1.03,0.38,1.58,0.43c1.18,0.09,2.85-0.08,3.82-0.83
					C29.98,4.95,29.05,4.8,28.58,4.56z"/>
				<path class="st10" d="M28.36,4.57c-0.4-0.26-0.77-0.63-1.25-0.7c-0.27-0.04-0.56,0.02-0.78,0.18c-0.06,0.04-0.12,0.09-0.16,0.16
					c-0.05,0.11-0.03,0.24,0.02,0.35c0.17,0.41,0.61,0.64,1.02,0.78c0.79,0.27,1.67,0.35,2.44,0.05c0.18-0.07,0.44-0.19,0.61-0.29
					C29.63,5.1,28.9,4.92,28.36,4.57z"/>
			</g>
			<g>
				<g>
					<path class="st9" d="M28.18,6.73c-1.17,0.65-2.45,1.06-3.7,1.52c-1.26,0.47-2.61,1.08-3.21,2.29
						c-0.75,1.49-0.05,3.34,1.03,4.61c0.87,1.03,2.07,1.89,3.42,1.9c1.41,0.01,2.7-0.95,3.44-2.16c0.74-1.21,1.02-2.63,1.21-4.03
						c0.27-1.93,0.35-3.99-0.05-5.88C29.73,5.7,28.98,6.28,28.18,6.73z"/>
				</g>
				<path class="st5" d="M29.24,6.54c-0.38,0.38-0.87,0.64-1.34,0.9C27.43,7.71,26.96,8,26.62,8.42c-0.34,0.42-0.53,1-0.35,1.51
					c0.18,0.52,0.72,0.87,1.27,0.9c0.55,0.03,1.09-0.21,1.49-0.59c0.4-0.37,0.68-0.86,0.89-1.37c0.46-1.1,0.81-2.73,0.39-3.89
					C30.03,5.33,29.61,6.17,29.24,6.54z"/>
				<path class="st10" d="M29.18,6.75c-0.38,0.3-0.84,0.54-1.05,0.97c-0.12,0.24-0.15,0.54-0.07,0.8c0.02,0.07,0.05,0.15,0.11,0.2
					c0.09,0.08,0.22,0.1,0.34,0.09c0.44-0.04,0.79-0.38,1.06-0.73c0.5-0.66,0.85-1.48,0.8-2.31c-0.01-0.19-0.05-0.48-0.09-0.67
					C30.07,5.7,29.68,6.35,29.18,6.75z"/>
			</g>
			<g>
				<g>
					<path class="st9" d="M31.18,7.6c0.26,1.31,0.25,2.65,0.31,3.99c0.05,1.35,0.22,2.82,1.18,3.76c1.19,1.17,3.16,1.08,4.71,0.45
						c1.25-0.51,2.44-1.39,2.86-2.67c0.44-1.34-0.07-2.86-0.99-3.93c-0.92-1.07-2.19-1.78-3.46-2.4c-1.75-0.85-3.69-1.56-5.61-1.77
						C30.67,5.8,31,6.69,31.18,7.6z"/>
				</g>
				<path class="st5" d="M31.33,6.53c0.24,0.48,0.34,1.02,0.45,1.55C31.88,8.61,32,9.14,32.3,9.6c0.29,0.45,0.79,0.81,1.33,0.8
					c0.55-0.01,1.05-0.42,1.25-0.93c0.2-0.51,0.13-1.1-0.1-1.6c-0.23-0.5-0.61-0.92-1.03-1.27c-0.9-0.77-2.35-1.61-3.58-1.57
					C30.42,5.39,31.09,6.06,31.33,6.53z"/>
				<path class="st10" d="M31.5,6.65c0.17,0.45,0.25,0.96,0.6,1.3c0.2,0.19,0.46,0.31,0.74,0.32c0.08,0,0.16,0,0.22-0.04
					c0.11-0.06,0.16-0.18,0.19-0.29c0.1-0.43-0.12-0.87-0.37-1.23c-0.48-0.68-1.14-1.26-1.95-1.48c-0.19-0.05-0.47-0.1-0.66-0.12
					C30.78,5.47,31.28,6.05,31.5,6.65z"/>
			</g>
			<g>
				<g>
					<path class="st9" d="M32.93,5.01c1.32,0.16,2.6,0.58,3.89,0.94c1.3,0.37,2.75,0.66,3.94,0.04c1.48-0.77,2-2.67,1.88-4.34
						c-0.1-1.34-0.57-2.75-1.65-3.54c-1.14-0.84-2.74-0.82-4.05-0.27c-1.31,0.54-2.37,1.53-3.35,2.55c-1.35,1.4-2.63,3.03-3.41,4.79
						C31.06,4.93,32.01,4.9,32.93,5.01z"/>
				</g>
				<path class="st5" d="M31.96,4.54c0.53-0.08,1.08-0.01,1.61,0.05c0.54,0.06,1.09,0.11,1.61-0.03c0.52-0.14,1.02-0.5,1.17-1.01
					c0.16-0.53-0.07-1.12-0.5-1.47c-0.42-0.35-1.01-0.47-1.55-0.4c-0.55,0.06-1.06,0.3-1.53,0.58c-1.01,0.62-2.26,1.74-2.6,2.92
					C30.6,5.05,31.43,4.62,31.96,4.54z"/>
				<path class="st10" d="M32.12,4.4c0.48-0.02,0.99,0.06,1.42-0.17c0.24-0.13,0.44-0.35,0.53-0.6c0.03-0.07,0.04-0.15,0.03-0.23
					c-0.02-0.12-0.12-0.21-0.22-0.27c-0.38-0.23-0.86-0.16-1.29-0.03c-0.8,0.24-1.55,0.7-2.01,1.4c-0.11,0.16-0.24,0.41-0.32,0.59
					C30.79,4.73,31.49,4.43,32.12,4.4z"/>
			</g>
		</g>
		<g class="st4">
			<path class="st6" d="M33.99,128.16c-1.93,0.67-3.66,1.69-5.27,2.84c-1.57,1.22-3.04,2.54-4.28,4.07
				c-2.56,2.97-4.42,6.47-5.94,9.79c-1.57,3.48-2.92,7.11-4.52,10.43c4.86,0.41,9.97-0.74,14.35-2.66c3.08-1.34,5.85-3.09,8.63-4.95
				c2.77-1.86,5.47-3.94,8.24-5.93c2.77-1.97,5.66-4.14,8.79-5.93c3.13-1.75,6.5-3.12,9.93-3.54c-4.7-0.43-9.23-2.37-14.22-3.79
				C44.74,127.09,39.32,126.24,33.99,128.16z"/>
			<path class="st14" d="M43.36,128.13c-2.82-0.01-5.24,0.17-7.57,0.75c-1.15,0.32-2.29,0.71-3.44,1.25
				c-1.13,0.58-2.28,1.27-3.47,2.15c-3.51,2.66-6.28,6.59-8.44,10.64c-2.19,4.06-3.78,8.24-5.42,11.75
				c0.96-0.27,1.77-0.81,2.57-1.46c0.8-0.64,1.52-1.47,2.24-2.34c0.74-0.85,1.44-1.78,2.15-2.68c0.74-0.87,1.47-1.72,2.2-2.45
				c3.38-3.16,5.27-5.74,8.97-8.76c3.47-2.79,8.07-4.3,12.71-4.9c4.65-0.62,9.33-0.3,13.37,0.06
				C54.55,130.15,49.03,128.15,43.36,128.13z"/>
			<g class="st15">
				<g>
					<path class="st5" d="M63.91,132.5c-4.25-0.07-7.52-1.4-11.65-2.75c-0.72-0.22-1.47-0.44-2.25-0.65c-3-0.83-6.33-1.41-9.67-1.37
						c-1.65,0.05-3.31,0.23-4.88,0.63c-1.55,0.44-3.08,0.99-4.4,1.89c-5.55,3.58-8.53,8.4-10.84,13.01
						c-2.09,4.19-3.66,8.12-6.25,12.03l-0.12-0.07c2.58-3.89,4.15-7.81,6.23-12c2.32-4.63,5.3-9.47,10.89-13.08
						c1.34-0.91,2.88-1.47,4.45-1.91c1.59-0.4,3.26-0.6,4.92-0.64c3.36-0.04,6.71,0.54,9.73,1.38c0.78,0.21,1.53,0.44,2.25,0.65
						c4.11,1.35,7.37,2.68,11.59,2.75L63.91,132.5z"/>
				</g>
				<g>
					<path class="st5" d="M63.81,132.5c-4.01-0.06-7.27-1.16-11.34-2.22c-0.77-0.18-1.58-0.37-2.42-0.55
						c-5.41-1.13-11.56-1.47-16.46,0.69c-0.71,0.29-1.39,0.68-2.02,1.09c-5.2,3.37-8.2,7.79-10.61,12.04
						c-2.31,4.12-4.09,8-6.91,11.74l-0.11-0.08c2.81-3.73,4.58-7.6,6.89-11.71c2.42-4.28,5.43-8.71,10.67-12.1
						c0.65-0.42,1.33-0.81,2.05-1.11c4.95-2.18,11.13-1.83,16.57-0.7c0.84,0.18,1.65,0.36,2.43,0.55c4.05,1.07,7.31,2.17,11.29,2.22
						L63.81,132.5z"/>
				</g>
				<g>
					<path class="st5" d="M63.7,132.5c-3.76-0.04-6.99-0.91-10.97-1.71c-0.85-0.14-1.73-0.29-2.65-0.43
						c-1.08-0.18-2.29-0.28-3.6-0.38c-1.32-0.12-2.71-0.12-4.15-0.06c-2.87,0.11-5.83,0.66-8.3,1.76c-0.68,0.28-1.33,0.68-1.97,1.09
						c-4.81,3.13-7.8,7.12-10.28,11c-2.58,4.07-4.59,7.94-7.68,11.53l-0.11-0.09c3.07-3.58,5.08-7.44,7.66-11.51
						c2.49-3.89,5.5-7.9,10.33-11.05c0.65-0.42,1.31-0.82,2-1.1c2.49-1.11,5.47-1.67,8.35-1.77c1.44-0.06,2.84-0.05,4.17,0.06
						c1.32,0.1,2.54,0.21,3.62,0.38c0.92,0.13,1.81,0.28,2.66,0.43c3.97,0.79,7.2,1.66,10.94,1.71L63.7,132.5z"/>
				</g>
				<g>
					<path class="st5" d="M63.6,132.5c-3.49-0.03-6.66-0.68-10.52-1.21c-0.95-0.11-1.94-0.2-2.97-0.29
						c-2.27-0.17-5.02-0.26-7.79,0.01c-2.77,0.25-5.56,0.88-7.84,1.93c-0.65,0.27-1.28,0.67-1.92,1.09
						c-4.37,2.86-7.31,6.39-9.81,9.86c-2.91,4.07-5.17,7.98-8.59,11.42l-0.1-0.1c3.41-3.43,5.66-7.33,8.57-11.39
						c2.51-3.48,5.46-7.02,9.85-9.9c0.65-0.42,1.29-0.82,1.94-1.1c2.3-1.06,5.11-1.69,7.89-1.95c2.79-0.27,5.54-0.18,7.83-0.01
						c1.03,0.09,2.02,0.18,2.98,0.29c3.85,0.53,7.02,1.18,10.49,1.2L63.6,132.5z"/>
				</g>
				<g>
					<path class="st5" d="M63.5,132.5c-3.18-0.01-6.4-0.48-9.93-0.73c-1.1-0.09-2.23-0.1-3.42-0.14c-5.4-0.08-11.17,0.69-15.22,2.57
						c-0.67,0.29-1.29,0.71-1.87,1.08c-3.87,2.57-6.71,5.58-9.15,8.64c-3.3,4.11-5.88,8.09-9.7,11.39l-0.09-0.11
						c3.81-3.29,6.38-7.26,9.68-11.36c2.45-3.07,5.3-6.1,9.19-8.67c0.58-0.38,1.2-0.8,1.89-1.1c4.07-1.89,9.87-2.66,15.29-2.58
						c1.19,0.03,2.33,0.05,3.43,0.14c3.53,0.25,6.75,0.72,9.92,0.73L63.5,132.5z"/>
				</g>
				<g>
					<path class="st5" d="M63.4,132.49c-1.41,0.03-2.87-0.1-4.38-0.13c-0.76-0.04-1.53-0.08-2.31-0.12
						c-0.79-0.02-1.58-0.03-2.39-0.05c-1.33-0.06-2.69,0.03-4.13,0.07c-5.06,0.25-10.9,1.32-14.8,3.19
						c-0.63,0.29-1.22,0.69-1.82,1.08c-3.34,2.2-5.95,4.75-8.26,7.33c-3.78,4.19-6.74,8.3-11.05,11.45l-0.08-0.11
						c4.28-3.13,7.24-7.24,11.01-11.43c2.31-2.59,4.94-5.14,8.29-7.35c0.61-0.4,1.2-0.8,1.84-1.09c3.92-1.88,9.78-2.96,14.86-3.2
						c1.44-0.05,2.81-0.13,4.14-0.07c0.81,0.02,1.61,0.03,2.39,0.05c0.78,0.04,1.56,0.08,2.31,0.12c1.51,0.03,2.97,0.16,4.37,0.13
						L63.4,132.49z"/>
				</g>
				<g>
					<path class="st5" d="M63.3,132.49c-2.33,0.01-4.93-0.08-7.71,0.02c-0.85,0.04-1.73,0.05-2.62,0.12
						c-0.89,0.09-1.81,0.17-2.74,0.26c-5.05,0.56-10.8,1.94-14.38,3.81c-0.53,0.28-1.09,0.63-1.77,1.08
						c-2.74,1.8-5.02,3.87-7.11,5.9c-4.54,4.54-7.76,8.66-12.65,11.64l-0.06-0.12c4.87-2.96,8.09-7.08,12.62-11.61
						c2.1-2.04,4.38-4.11,7.14-5.92c0.68-0.45,1.25-0.8,1.79-1.09c0.12-0.06,0.25-0.12,0.38-0.18c3.61-1.82,9.17-3.09,14.05-3.64
						c0.94-0.09,1.85-0.18,2.75-0.26c0.89-0.07,1.77-0.08,2.63-0.12c2.78-0.1,5.38,0,7.71-0.02L63.3,132.49z"/>
				</g>
				<g>
					<path class="st5" d="M63.2,132.49c-1.47,0.02-3.11,0.01-4.85,0.12c-2.43,0.1-5.19,0.4-8.07,0.91
						c-5.02,0.87-10.63,2.64-13.95,4.43c-0.63,0.36-1.23,0.74-1.72,1.07c-1.04,0.67-2.01,1.41-2.94,2.15
						c-0.95,0.71-1.82,1.49-2.68,2.24c-1.34,1.13-2.53,2.36-3.74,3.44c-1.15,1.17-2.34,2.19-3.46,3.24c-0.57,0.51-1.15,1-1.74,1.47
						c-0.57,0.49-1.16,0.95-1.77,1.38c-1.25,0.84-2.46,1.69-3.9,2.37l-0.05-0.13c1.42-0.67,2.64-1.52,3.88-2.36
						c0.61-0.43,1.19-0.89,1.76-1.38c0.59-0.46,1.17-0.95,1.74-1.46c1.11-1.05,2.3-2.07,3.45-3.24c1.21-1.08,2.4-2.3,3.74-3.43
						c0.86-0.76,1.74-1.53,2.69-2.25c0.94-0.74,1.9-1.48,2.95-2.15c0.5-0.33,1.1-0.72,1.74-1.08c3.34-1.8,8.96-3.57,14-4.45
						c2.89-0.51,5.65-0.82,8.09-0.91c1.74-0.11,3.39-0.1,4.86-0.12L63.2,132.49z"/>
				</g>
				<g>
					<path class="st5" d="M23.25,149.85c-2.73,2.27-5.48,4.14-8.82,5.47l-0.04-0.13c3.22-1.28,5.86-3.07,8.5-5.22
						c2.66-2.11,5.3-4.59,8.39-7.06c1.21-0.9,2.42-1.9,3.76-2.75c0.5-0.34,1.09-0.72,1.69-1.07c2.93-1.63,8-3.7,13.56-5.07
						c5.3-1.31,9.92-1.66,12.81-1.67l0,0.14c-2.89,0-7.5,0.35-12.78,1.66c-5.54,1.38-10.6,3.44-13.52,5.06
						c-0.59,0.35-1.18,0.73-1.68,1.07c-1.34,0.85-2.55,1.85-3.76,2.75C28.39,145.4,25.82,147.8,23.25,149.85z"/>
				</g>
				<g>
					<path class="st5" d="M25.71,149.07c-3.54,2.71-7.01,4.96-11.23,6.26l-0.03-0.14c3.72-1.14,6.85-3.02,9.96-5.33
						c3.1-2.3,6.23-4.99,9.74-7.48c0.45-0.35,0.93-0.65,1.41-0.97c0.53-0.35,1.08-0.72,1.64-1.06c2.3-1.3,6.46-3.53,13.12-5.7
						c5.13-1.6,9.71-2.29,12.67-2.3l0,0.14c-2.95,0.01-7.51,0.69-12.63,2.29c-6.65,2.17-10.8,4.39-13.09,5.68
						c-0.56,0.34-1.1,0.7-1.63,1.06c-0.47,0.32-0.96,0.62-1.4,0.97C31.18,144.66,28.44,147.01,25.71,149.07z"/>
				</g>
				<g>
					<path class="st5" d="M28.1,148.6c-4.38,3.14-8.47,5.63-13.56,6.73l-0.01-0.14c4.01-0.87,7.4-2.58,10.8-4.83
						c3.39-2.24,6.83-5.01,10.78-7.71l0.27-0.18c0.44-0.29,0.89-0.59,1.32-0.88c0.55-0.36,1.25-0.73,2.01-1.19
						c0.77-0.46,1.63-0.95,2.59-1.43c2.4-1.32,5.25-2.56,8.08-3.7c5.64-2.12,9.99-2.89,12.53-2.93l0,0.14
						c-2.52,0.04-6.86,0.81-12.48,2.92c-2.83,1.14-5.67,2.37-8.06,3.69c-0.95,0.48-1.82,0.97-2.59,1.43
						c-0.77,0.46-1.46,0.82-2.01,1.18c-0.44,0.29-0.88,0.58-1.32,0.87l-0.27,0.18C33.28,144.76,30.62,146.75,28.1,148.6z"/>
				</g>
				<g>
					<path class="st5" d="M30.37,148.4c-1.51,1.07-2.95,1.93-4.32,2.76c-3.91,2.29-7.53,3.67-11.46,4.18l0-0.14
						c4.33-0.57,8.07-2.2,11.64-4.31c3.56-2.1,7-4.65,10.39-6.99l0.59-0.4l0.95-0.64c0.77-0.53,1.86-1.17,3.12-2.01
						c0.64-0.4,1.34-0.8,2.08-1.24c0.73-0.45,1.52-0.9,2.35-1.33c1.49-0.84,3.09-1.59,4.69-2.35c2.99-1.31,5.52-2.21,7.59-2.74
						c1.04-0.26,1.94-0.49,2.74-0.62c0.8-0.12,1.48-0.19,2.06-0.21l0,0.14c-0.57,0.02-1.25,0.09-2.04,0.21
						c-0.79,0.13-1.7,0.36-2.73,0.61c-2.06,0.53-4.58,1.43-7.56,2.73c-1.59,0.76-3.19,1.51-4.68,2.35
						c-0.83,0.44-1.62,0.87-2.35,1.33c-0.74,0.44-1.44,0.84-2.07,1.24c-1.26,0.83-2.34,1.48-3.11,2.01l-0.95,0.64L36.7,144
						c-1.24,0.81-2.32,1.66-3.39,2.35C32.28,147.11,31.31,147.78,30.37,148.4z"/>
				</g>
				<g>
					<path class="st5" d="M32.37,148.54c-3.2,2.09-6.15,3.68-9.01,4.85c-2.89,1.13-5.72,1.81-8.71,1.95l0.01-0.14
						c7.41-0.33,13.71-3.92,22.5-10.06c0.43-0.3,0.86-0.6,1.28-0.89l0.21-0.15c0.71-0.53,1.77-1.22,3.03-2.15
						c0.63-0.46,1.34-0.9,2.08-1.41c0.74-0.52,1.54-1.02,2.39-1.53c1.36-0.87,2.83-1.65,4.3-2.45c1.03-0.53,2.14-1.04,3.26-1.57
						c1.13-0.48,2.28-0.93,3.38-1.34c1.11-0.36,2.18-0.68,3.13-0.92c0.95-0.22,1.8-0.33,2.46-0.37l0,0.13
						c-0.66,0.04-1.5,0.15-2.45,0.37c-0.95,0.24-2,0.56-3.11,0.92c-1.1,0.41-2.24,0.86-3.37,1.34c-1.11,0.53-2.22,1.04-3.25,1.57
						c-1.47,0.8-2.94,1.58-4.29,2.45c-0.84,0.51-1.65,1.01-2.39,1.53c-0.74,0.51-1.45,0.96-2.08,1.41
						c-1.25,0.93-2.31,1.62-3.03,2.15l-0.21,0.15c-0.42,0.29-0.85,0.59-1.28,0.89C35.53,146.45,33.9,147.53,32.37,148.54z"/>
				</g>
				<g>
					<path class="st5" d="M33.97,149.01c-2.57,1.57-5.41,3.23-8.61,4.41c-3.2,1.19-6.67,2.03-10.66,1.92l0.02-0.14
						c5.47,0.11,10.11-1.48,14.2-3.5c4.07-2.02,7.63-4.52,10.23-6.35c1.27-0.94,3.77-3.08,6.97-5.32c2.74-1.96,6.05-3.9,9.11-5.31
						c3.06-1.44,5.86-2.28,7.36-2.36l0,0.13c-0.14,0.01-0.28,0.02-0.44,0.04c-0.82,0.1-1.91,0.36-3.16,0.81
						c-0.63,0.22-1.3,0.45-1.99,0.73c-0.68,0.31-1.4,0.63-2.14,0.96c-2.93,1.4-6.06,3.23-8.66,5.1c-3.2,2.24-5.7,4.38-6.97,5.32
						C37.77,146.5,35.98,147.75,33.97,149.01z"/>
				</g>
			</g>
		</g>
	</g>
</g>
<g>
</g>
<g>
</g>
<g>
</g>
<g>
</g>
<g>
</g>
<g>
</g>
<g>
</g>
<g>
</g>
<g>
</g>
<g>
</g>
<g>
</g>
<g>
</g>
<g>
</g>
<g>
</g>
<g>
</g>
</svg>
