<?xml version="1.0" standalone="no"?>
<!DOCTYPE svg PUBLIC "-//W3C//DTD SVG 1.1//EN" "http://www.w3.org/Graphics/SVG/1.1/DTD/svg11.dtd" >
<svg xmlns="http://www.w3.org/2000/svg" xmlns:xlink="http://www.w3.org/1999/xlink" version="1.1">
<metadata></metadata>
<defs>
<font id="lorimer_no_2_condensedMdIt" horiz-adv-x="698" >
<font-face units-per-em="2048" ascent="1638" descent="-410" />
<missing-glyph horiz-adv-x="323" />
<glyph horiz-adv-x="0" />
<glyph horiz-adv-x="682" />
<glyph unicode=" "  horiz-adv-x="323" />
<glyph unicode="&#x09;" horiz-adv-x="323" />
<glyph unicode="&#xa0;" horiz-adv-x="323" />
<glyph unicode="!" horiz-adv-x="395" d="M-43 0l39 182h176l-39 -182h-176zM70 367l186 1067h186l-270 -1067h-102z" />
<glyph unicode="&#x22;" horiz-adv-x="608" d="M133 780l115 654h166l-164 -654h-117zM383 780l115 654h166l-166 -654h-115z" />
<glyph unicode="#" horiz-adv-x="1155" d="M23 424l26 123h225l76 360h-223l25 123h225l86 404h137l-86 -404h254l86 404h137l-86 -404h228l-27 -123h-227l-76 -360h225l-24 -123h-226l-90 -424h-137l90 424h-256l-90 -424h-137l90 424h-225zM412 547h254l75 360h-254z" />
<glyph unicode="$" horiz-adv-x="747" d="M6 266q0 72 17 166l161 31q-24 -134 -24 -191q0 -65 25 -95t83 -30q168 0 168 230q0 39 -6 72.5t-24.5 73t-29.5 60.5t-44.5 74.5t-46.5 75.5q-30 45 -46 72t-36 70t-28.5 88.5t-8.5 99.5q0 145 72.5 245.5t216.5 114.5l47 215h143l-49 -225q149 -45 149 -235 q0 -53 -14 -160l-162 -33q21 133 21 182q0 58 -24.5 88.5t-82.5 30.5q-83 0 -121 -60.5t-38 -156.5q0 -38 6 -70.5t23 -69.5t27.5 -55.5t41 -67t41.5 -65.5q53 -86 75 -125t41 -99.5t19 -123.5q0 -165 -74.5 -269t-226.5 -116l-45 -213h-143l47 225q-150 45 -150 246z" />
<glyph unicode="%" horiz-adv-x="1234" d="M109 895q0 72 24 186q28 142 67 223t90.5 113.5t129.5 32.5q89 0 134.5 -46.5t45.5 -150.5q0 -67 -22 -186q-42 -210 -107 -290.5t-182 -80.5q-89 0 -134.5 47.5t-45.5 151.5zM176 0l785 1434h114l-792 -1434h-107zM229 895q0 -49 18 -68.5t56 -19.5q56 0 88.5 54 t65.5 212q24 126 24 180q0 49 -17 68.5t-54 19.5q-57 0 -89 -53.5t-65 -212.5q-27 -126 -27 -180zM635 180q0 68 22 187q42 210 106.5 290t180.5 80q90 0 135 -46.5t45 -149.5q0 -70 -22 -189q-27 -142 -66.5 -222.5t-91.5 -113t-131 -32.5q-89 0 -133.5 46.5t-44.5 149.5z M754 180q0 -49 17.5 -68.5t55.5 -19.5t63 21t47.5 79t43.5 166q25 131 25 181q0 49 -17 68.5t-55 19.5q-57 0 -89 -54t-65 -213q-26 -121 -26 -180z" />
<glyph unicode="&#x26;" horiz-adv-x="845" d="M-39 268q0 374 356 584q-26 121 -26 225q0 71 14.5 135t45 120t85 89t127.5 33q97 0 143 -55t46 -170q0 -86 -22.5 -156.5t-64 -121.5t-85 -85.5t-101.5 -66.5l72 -301q88 166 192 229l78 -115q-116 -72 -231 -284l78 -328h-158l-41 174q-57 -99 -123 -149t-164 -50 q-221 0 -221 293zM125 285q0 -89 23.5 -128.5t74.5 -39.5q60 0 106.5 51.5t104.5 163.5l-90 395q-219 -159 -219 -442zM436 1073q0 -84 19 -164q172 91 172 301q0 63 -15.5 89t-52.5 26q-123 0 -123 -252z" />
<glyph unicode="'" horiz-adv-x="358" d="M133 780l115 654h166l-164 -654h-117z" />
<glyph unicode="(" horiz-adv-x="485" d="M33 211q0 334 117.5 656.5t334.5 590.5h138q-451 -616 -451 -1251q0 -244 70 -500l-125 -24q-84 251 -84 528z" />
<glyph unicode=")" horiz-adv-x="485" d="M-176 -293q432 608 432 1231q0 257 -76 520h133q84 -260 84 -532q0 -328 -118 -652.5t-336 -590.5z" />
<glyph unicode="*" horiz-adv-x="739" d="M111 1147l41 127l247 -96l-14 266h131l-14 -266l252 96l39 -127l-261 -68l170 -209l-106 -75l-145 223l-146 -223l-104 77l166 207z" />
<glyph unicode="+" horiz-adv-x="800" d="M94 657l29 136h225l51 241h136l-52 -241h224l-29 -136h-223l-52 -241h-135l51 241h-225z" />
<glyph unicode="," horiz-adv-x="380" d="M-90 -219l117 219h-74l37 182h176l-31 -153l-164 -269z" />
<glyph unicode="-" horiz-adv-x="579" d="M78 588l28 129h367l-27 -129h-368z" />
<glyph unicode="." horiz-adv-x="380" d="M-49 0l39 182h176l-39 -182h-176z" />
<glyph unicode="/" horiz-adv-x="663" d="M-152 -154l785 1639h133l-784 -1639h-134z" />
<glyph unicode="0" horiz-adv-x="794" d="M12 213q0 161 90 565q49 232 91.5 366t91.5 202q83 112 247 112q248 0 248 -237q0 -162 -90 -566q-49 -233 -91 -366t-91 -201q-83 -113 -248 -113q-248 0 -248 238zM170 223q0 -58 24.5 -82t79.5 -24q58 0 91.5 28.5t60.5 104.5q35 91 111 438q86 402 86 522 q0 58 -25 82.5t-80 24.5q-57 0 -89 -28.5t-60 -104.5q-40 -111 -111 -439q-28 -122 -58 -287t-30 -235z" />
<glyph unicode="1" horiz-adv-x="458" d="M14 0l265 1255l-129 -28v127l212 88h117l-307 -1442h-158z" />
<glyph unicode="2" horiz-adv-x="704" d="M-119 0l23 104q177 206 287 343t194 264q188 288 188 481q0 68 -24 96.5t-84 28.5q-80 0 -124.5 -61.5t-84.5 -239.5l-152 33q56 222 145 315.5t236 93.5q133 0 187.5 -66.5t54.5 -183.5q0 -233 -195 -532q-179 -269 -423 -529h417l-30 -147h-615z" />
<glyph unicode="3" horiz-adv-x="714" d="M-31 219q0 82 17 184l161 33q-26 -157 -26 -211q0 -59 23 -82.5t75 -23.5q57 0 89 29.5t59 101.5q33 89 61.5 220.5t28.5 197.5q0 71 -46 94.5t-155 25.5v119l322 385h-404l31 142h590l-27 -117l-330 -408q180 -24 180 -229q0 -124 -49.5 -310t-115.5 -280 q-81 -115 -244 -115q-240 0 -240 244z" />
<glyph unicode="4" horiz-adv-x="749" d="M-14 465v135l569 834h193l-179 -834h117l-29 -135h-116l-99 -465h-151l98 465h-403zM141 600h277l131 604h-2l-406 -602v-2z" />
<glyph unicode="5" horiz-adv-x="724" d="M-25 219q0 82 17 184l162 37q-27 -153 -27 -215q0 -59 24 -82.5t78 -23.5q58 0 90.5 30t59.5 103q32 89 62 229.5t30 202.5q0 109 -106 109q-93 0 -140 -91l-147 33l184 699h526l-61 -144h-356l-109 -420q65 62 166 62q100 0 151.5 -59t51.5 -173q0 -127 -50.5 -323 t-117.5 -287q-81 -115 -244 -115q-244 0 -244 244z" />
<glyph unicode="6" horiz-adv-x="768" d="M12 217q0 157 90 561q52 237 90 360.5t82 190.5q84 129 256 129q120 0 182 -57t62 -180q0 -66 -10 -140l-162 -32q19 111 19 163q0 56 -25 80.5t-78 24.5q-59 0 -94 -31t-62 -112q-38 -127 -88 -345q34 26 90.5 45t116.5 19q193 0 193 -211q0 -121 -47 -306.5 t-107 -273.5q-84 -127 -260 -127q-123 0 -185.5 58.5t-62.5 183.5zM168 223q0 -57 26 -81.5t80 -24.5q56 0 92 29t64 106q27 78 56.5 204t29.5 191q0 58 -25 82.5t-77 24.5q-84 0 -168 -52q-78 -365 -78 -479z" />
<glyph unicode="7" horiz-adv-x="610" d="M-2 0q165 691 545 1290h-422l33 144h575l-24 -117q-89 -156 -135.5 -240t-110 -214.5t-105.5 -242t-91 -269.5t-97 -351h-168z" />
<glyph unicode="8" horiz-adv-x="739" d="M-41 281q0 160 82 284.5t233 198.5q-59 80 -90.5 157t-31.5 181q0 169 95 262.5t245 93.5q134 0 204 -75.5t70 -211.5q0 -278 -285 -430q63 -83 98 -162.5t35 -183.5q0 -78 -20 -149.5t-61.5 -133.5t-115 -99.5t-169.5 -37.5q-130 0 -209.5 75t-79.5 231zM115 299 q0 -95 35 -138.5t106 -43.5q97 0 148 71t51 189q0 89 -29.5 157.5t-85.5 145.5q-101 -61 -163 -159t-62 -222zM305 1100q0 -77 28.5 -139.5t82.5 -135.5q205 111 205 328q0 170 -136 170q-88 0 -134 -61.5t-46 -161.5z" />
<glyph unicode="9" horiz-adv-x="768" d="M-8 213q0 65 10 139l162 33q-19 -111 -19 -164q0 -56 25 -79t80 -23q57 0 91.5 30t61.5 111q40 127 89 344q-34 -26 -89.5 -44.5t-115.5 -18.5q-195 0 -195 211q0 120 47.5 305t106.5 274q84 127 262 127q121 0 183.5 -58t62.5 -183q0 -147 -88 -562 q-51 -234 -90.5 -358.5t-83.5 -192.5q-84 -129 -254 -129q-121 0 -183 57t-63 181zM250 786q0 -58 25.5 -82t78.5 -24q83 0 166 51q78 370 78 479q0 57 -26 82t-80 25q-55 0 -90.5 -29t-63.5 -106q-27 -74 -57.5 -202t-30.5 -194z" />
<glyph unicode=":" horiz-adv-x="385" d="M-49 0l39 182h176l-39 -182h-176zM80 602l39 182h176l-39 -182h-176z" />
<glyph unicode=";" horiz-adv-x="385" d="M-90 -219l117 219h-74l37 182h176l-31 -153l-164 -269zM80 602l39 182h176l-39 -182h-176z" />
<glyph unicode="&#x3c;" horiz-adv-x="843" d="M72 657l30 146l717 338l-37 -170l-544 -252l440 -250l-35 -154z" />
<glyph unicode="=" horiz-adv-x="800" d="M61 504l29 135h584l-29 -135h-584zM127 811l29 135h583l-28 -135h-584z" />
<glyph unicode="&#x3e;" horiz-adv-x="843" d="M25 315l36 170l545 252l-440 250l35 154l571 -342l-31 -146z" />
<glyph unicode="?" horiz-adv-x="716" d="M96 0l39 182h176l-39 -182h-176zM127 1110q28 102 67.5 172.5t88 107.5t99 52.5t110.5 15.5q256 0 256 -264q0 -55 -13 -108t-29 -90.5t-47.5 -84.5t-51 -71t-58.5 -70q-89 -104 -138 -185t-77 -196h-133q32 147 79 232t150 215q94 114 128 179.5t34 164.5 q0 73 -25.5 104t-93.5 31q-49 0 -81 -16.5t-62 -68.5t-54 -147z" />
<glyph unicode="@" horiz-adv-x="1232" d="M37 520q0 313 64 503.5t191.5 274.5t332.5 84q113 0 200.5 -36.5t145.5 -102t95.5 -162t54 -210.5t16.5 -253q0 -272 -61.5 -393t-186.5 -121q-175 0 -199 172q-34 -88 -87.5 -124.5t-135.5 -36.5q-178 0 -178 172q0 99 33 248q29 135 60 221t67 127.5t69 55t80 13.5 q124 0 143 -80l29 68h127l-102 -481q-15 -77 -15 -131q0 -142 113 -142q50 0 82 37.5t50.5 133t18.5 253.5q0 156 -21.5 275.5t-69 214t-132 144.5t-203.5 50q-259 0 -373 -182t-114 -590q0 -160 21.5 -280.5t59.5 -198t95.5 -126t123.5 -68t149 -19.5q192 0 307 66l39 -80 q-132 -74 -342 -74q-97 0 -175.5 22t-149 76.5t-118.5 141.5t-76 223.5t-28 314.5zM430 315q0 -42 17.5 -59.5t56.5 -17.5q51 0 80 34t57 125q19 70 31 138q30 153 30 202q0 52 -18.5 73t-60.5 21q-52 0 -75.5 -32t-47.5 -117q-12 -43 -33 -145q-37 -178 -37 -222z" />
<glyph unicode="A" horiz-adv-x="696" d="M-133 0l549 1434h176l-53 -1434h-150l14 260h-280l-94 -260h-162zM170 389h240l36 651l11 136h-4l-43 -134z" />
<glyph unicode="B" horiz-adv-x="790" d="M-45 0l305 1434h223q161 0 233 -59t72 -181q0 -77 -23 -170.5t-58 -149.5q-49 -74 -117 -98v-2q92 -43 92 -184q0 -95 -31.5 -226.5t-77.5 -216.5q-48 -85 -121 -116t-202 -31h-295zM141 143h142q52 0 89.5 17.5t63.5 64.5q31 58 55.5 164t24.5 172q0 69 -37.5 96 t-136.5 27h-86zM283 819h94q76 0 122 20t74 72q22 42 41 122.5t19 133.5q0 67 -37 95t-121 28h-92z" />
<glyph unicode="C" horiz-adv-x="759" d="M10 213q0 150 88 565q53 240 94 370.5t91 197.5q82 112 245 112q248 0 248 -235q0 -68 -16 -172l-164 -35q25 128 25 194q0 56 -25.5 81.5t-79.5 25.5q-59 0 -91.5 -29.5t-59.5 -103.5q-37 -99 -109 -439q-29 -128 -58.5 -290t-29.5 -232q0 -58 24.5 -82t79.5 -24 q57 0 89.5 29.5t60.5 103.5q24 67 49 178l154 -31q-51 -216 -119 -309q-83 -113 -248 -113q-248 0 -248 238z" />
<glyph unicode="D" horiz-adv-x="796" d="M-45 0l305 1434h242q145 0 211.5 -57t66.5 -177q0 -135 -78 -502q-50 -244 -87.5 -376t-88.5 -205q-44 -64 -113 -90.5t-190 -26.5h-268zM141 143h105q76 0 117.5 26.5t70.5 106.5q40 105 109 435q82 375 82 475q0 58 -30.5 81t-111.5 23h-96z" />
<glyph unicode="E" horiz-adv-x="694" d="M-45 0l305 1434h535l-31 -144h-381l-92 -432h262l-33 -143h-260l-119 -568h379l-31 -147h-534z" />
<glyph unicode="F" horiz-adv-x="675" d="M-45 0l305 1434h526l-30 -144h-371l-92 -434h268l-31 -145h-268l-151 -711h-156z" />
<glyph unicode="G" horiz-adv-x="784" d="M10 209q0 146 88 569q52 241 94.5 371t90.5 197q82 112 247 112q248 0 248 -235q0 -68 -16 -172l-164 -35q23 135 23 194q0 56 -25.5 81.5t-79.5 25.5q-59 0 -92 -30.5t-59 -102.5q-36 -98 -109 -439q-88 -407 -88 -520q0 -59 24 -83.5t78 -24.5q81 0 122.5 59.5 t74.5 214.5l53 248h-143l29 139h303l-164 -778h-84l-6 96q-64 -121 -219 -121q-108 0 -167 59t-59 175z" />
<glyph unicode="H" horiz-adv-x="806" d="M-45 0l305 1434h158l-123 -576h276l123 576h158l-305 -1434h-158l152 711h-277l-151 -711h-158z" />
<glyph unicode="I" horiz-adv-x="374" d="M-45 0l305 1434h158l-305 -1434h-158z" />
<glyph unicode="J" horiz-adv-x="493" d="M-115 2l33 150q45 -9 90 -9q63 0 87 23t42 108l246 1160h158l-252 -1190q-20 -93 -48 -143.5t-85 -77.5t-152 -27q-70 0 -119 6z" />
<glyph unicode="K" horiz-adv-x="724" d="M-45 0l305 1434h156l-146 -684l400 684h176l-334 -566l41 -868h-158l-24 676l-183 -309l-77 -367h-156z" />
<glyph unicode="L" horiz-adv-x="634" d="M-45 0l305 1434h158l-273 -1282h349l-33 -152h-506z" />
<glyph unicode="M" horiz-adv-x="1056" d="M-41 0l305 1434h248l-59 -1063l391 1063h254l-307 -1434h-152l246 1153l26 113h-4l-45 -129l-424 -1141h-129l66 1145l10 125h-4l-23 -107l-245 -1159h-154z" />
<glyph unicode="N" horiz-adv-x="825" d="M-45 0l305 1434h162l76 -1033h2l14 82l203 951h153l-305 -1434h-164l-73 1032h-2l-15 -82l-202 -950h-154z" />
<glyph unicode="O" horiz-adv-x="792" d="M10 211q0 152 88 567q53 241 94.5 370.5t90.5 197.5q82 112 247 112q248 0 248 -235q0 -143 -90 -568q-52 -241 -92.5 -370t-89.5 -197q-83 -113 -248 -113q-248 0 -248 236zM168 223q0 -58 24.5 -82t79.5 -24t89 29t61 104q33 91 108 438q91 394 91 522q0 57 -25.5 82 t-79.5 25q-58 0 -90.5 -29t-60.5 -104q-38 -107 -109 -439q-28 -122 -58 -287t-30 -235z" />
<glyph unicode="P" horiz-adv-x="761" d="M-45 0l305 1434h248q164 0 230.5 -64.5t66.5 -183.5q0 -84 -25 -190t-67 -177q-50 -84 -135 -118.5t-228 -34.5h-96l-143 -666h-156zM283 805h108q79 0 124.5 23.5t70.5 74.5q23 48 42 128.5t19 135.5q0 63 -33 93t-122 30h-105z" />
<glyph unicode="Q" horiz-adv-x="792" d="M10 211q0 152 88 567q53 241 94.5 370.5t90.5 197.5q82 112 247 112q248 0 248 -235q0 -143 -90 -568q-52 -241 -92.5 -370t-89.5 -197l-10 -14q40 -28 122 -31l-47 -149q-65 3 -119.5 28t-86.5 68q-62 -15 -107 -15q-248 0 -248 236zM168 223q0 -58 24.5 -82t79.5 -24 t89 29t61 104q33 91 108 438q91 394 91 522q0 57 -25.5 82t-79.5 25q-58 0 -90.5 -29t-60.5 -104q-38 -107 -109 -439q-28 -122 -58 -287t-30 -235z" />
<glyph unicode="R" horiz-adv-x="804" d="M-45 0l305 1434h238q172 0 240.5 -61.5t68.5 -182.5q0 -85 -24 -176t-58 -144q-46 -75 -129 -112v-2q84 -41 84 -152q0 -38 -29 -180q-44 -204 -78 -414l-2 -10h-159q18 104 84 426q20 102 20 137q0 55 -28.5 80t-108.5 25h-125l-143 -668h-156zM283 805h108q82 0 127 24 t72 80q22 50 39.5 129t17.5 131q0 62 -33.5 91.5t-121.5 29.5h-105z" />
<glyph unicode="S" horiz-adv-x="708" d="M-31 236q0 68 17 157l159 29q-20 -111 -20 -182q0 -66 25 -94.5t83 -28.5q92 0 133.5 59t41.5 180q0 49 -5 86.5t-23 79.5t-26.5 59.5t-43.5 74t-46 75.5q-44 72 -64 109.5t-38.5 102.5t-18.5 138q0 172 85.5 274.5t246.5 102.5q123 0 187.5 -64t64.5 -188 q0 -50 -14 -153l-160 -29q20 117 20 172q0 57 -24 89t-84 32q-166 0 -166 -232q0 -43 5 -75t25.5 -76t36 -71t60.5 -101q84 -139 111.5 -211.5t27.5 -188.5q0 -187 -85.5 -287t-250.5 -100q-260 0 -260 261z" />
<glyph unicode="T" horiz-adv-x="673" d="M104 0l275 1286h-223l30 148h602l-30 -148h-221l-275 -1286h-158z" />
<glyph unicode="U" horiz-adv-x="802" d="M27 229q0 131 39 303l192 902h158l-187 -879q-51 -229 -51 -322q0 -63 26 -87.5t83 -24.5t90 30.5t57 108.5q26 88 58 244l198 930h158l-209 -983q-27 -126 -53.5 -206t-68 -145.5t-101 -95t-142.5 -29.5q-120 0 -183.5 64t-63.5 190z" />
<glyph unicode="V" horiz-adv-x="696" d="M113 -4l53 1438h158l-56 -990l-10 -127h4l47 140l357 977h165l-552 -1438h-166z" />
<glyph unicode="W" horiz-adv-x="1144" d="M98 0l103 1434h153l-82 -965l-10 -94h2l23 71l368 988h140l-52 -957l-8 -110h2l33 104l320 963h159l-497 -1434h-162l59 993l8 97h-2l-32 -95l-367 -995h-158z" />
<glyph unicode="X" horiz-adv-x="720" d="M-133 0l407 770l-92 664h154l63 -525l265 525h167l-382 -719l102 -715h-160l-65 567l-287 -567h-172z" />
<glyph unicode="Y" horiz-adv-x="708" d="M123 0l141 662l-96 772h158l49 -598l297 598h172l-424 -783l-139 -651h-158z" />
<glyph unicode="Z" horiz-adv-x="663" d="M-119 0l27 125l651 1161h-395l31 148h573l-27 -123l-653 -1164h414l-33 -147h-588z" />
<glyph unicode="[" horiz-adv-x="512" d="M-94 -348l387 1806h328l-27 -123h-188l-330 -1560h188l-26 -123h-332z" />
<glyph unicode="\" horiz-adv-x="786" d="M154 1485h125l383 -1639h-125z" />
<glyph unicode="]" horiz-adv-x="512" d="M-176 -348l26 123h189l330 1560h-189l27 123h332l-387 -1806h-328z" />
<glyph unicode="^" horiz-adv-x="727" d="M74 950l348 488h135l145 -488h-137l-106 297l-232 -297h-153z" />
<glyph unicode="_" horiz-adv-x="1038" d="M-127 -154l29 129h1032l-29 -129h-1032z" />
<glyph unicode="`" horiz-adv-x="1021" d="M584 1323h168l53 -279h-121z" />
<glyph unicode="a" horiz-adv-x="669" d="M-72 186q0 158 123.5 261.5t345.5 103.5l15 72q14 69 14 100q0 53 -22 73.5t-66 20.5q-50 0 -84.5 -35t-60.5 -133l-134 29q44 146 118 206t175 60t158 -51.5t57 -157.5q0 -62 -20 -160l-84 -397q-4 -24 -4 -33q0 -19 12 -26.5t43 -7.5l-22 -107q-19 -8 -58 -8 q-111 0 -119 86q-59 -90 -190 -90q-87 0 -142 46.5t-55 147.5zM76 205q0 -52 22.5 -74t75.5 -22q129 0 164 157l37 178q-139 -1 -219 -66.5t-80 -172.5z" />
<glyph unicode="b" d="M-63 0l305 1434h149l-119 -562q68 72 166 72q170 0 170 -207q0 -91 -43 -307q-30 -149 -61.5 -234.5t-77.5 -136.5q-68 -73 -176 -73q-71 0 -107 30t-43 78l-37 -94h-126zM139 217q0 -102 94 -102q52 0 82 29.5t50 91.5q14 45 49 206q47 213 47 287q0 86 -82 86 q-80 0 -123 -82q-32 -58 -70 -246q-47 -217 -47 -270z" />
<glyph unicode="c" horiz-adv-x="657" d="M-23 203q0 94 46 315q31 140 63 222.5t84 131.5q74 74 203 74q219 0 219 -211q0 -47 -4 -82l-152 -30l-2 2q12 70 12 108q0 43 -19 63.5t-67 20.5q-58 0 -88 -30t-49 -91q-22 -64 -51 -207q-47 -227 -47 -292q0 -42 20 -63t70 -21q49 0 80.5 25t54.5 95l21 82l143 -28 q-42 -165 -113 -230q-79 -73 -198 -73q-226 0 -226 219z" />
<glyph unicode="d" d="M-20 184q0 117 49 336q31 145 61 222t76 128q66 74 172 74q123 0 147 -96l125 586h150l-305 -1434h-119v82q-65 -96 -182 -96q-75 0 -124.5 46.5t-49.5 151.5zM129 199q0 -84 80 -84q84 0 125 80q33 66 69 245q46 224 46 273q0 102 -95 102q-50 0 -80 -30t-49 -93 q-22 -69 -51 -213q-45 -208 -45 -280z" />
<glyph unicode="e" horiz-adv-x="673" d="M-23 203q0 90 46 315q30 137 63 221t84 133q79 74 203 74q221 0 221 -217q0 -87 -39 -289h-395q-37 -181 -37 -241q0 -44 21 -65t69 -21q65 0 97.5 39t62.5 159l141 -30q-43 -154 -115 -226q-71 -71 -196 -71q-226 0 -226 219zM184 559h242q23 142 23 172q0 90 -89 90 q-60 0 -89 -29.5t-50 -93.5q-24 -78 -37 -139z" />
<glyph unicode="f" horiz-adv-x="411" d="M-37 0l168 801h-94l29 129h94l51 246q31 143 97.5 206.5t191.5 63.5q13 0 49 -4l-29 -133q-6 2 -22 2q-64 0 -94 -35t-52 -137l-45 -209h129l-28 -129h-127l-170 -801h-148z" />
<glyph unicode="g" d="M-102 -285l30 140q94 -52 195 -52q93 0 127.5 42.5t64.5 183.5l15 67q-61 -80 -170 -80q-79 0 -128.5 45t-49.5 150q0 99 47 315q29 133 59 213t78 131q66 74 174 74q126 0 147 -104l37 90h129l-188 -885q-46 -218 -117 -296.5t-227 -78.5q-126 0 -223 45zM131 223 q0 -42 19.5 -62t62.5 -20q83 0 123 72q35 61 70 233q43 191 43 271q0 98 -95 98q-51 0 -80.5 -31t-48.5 -92q-14 -47 -47 -192q-47 -224 -47 -277z" />
<glyph unicode="h" d="M-63 0l305 1434h149l-115 -537l-10 -49h2q62 96 176 96q74 0 117 -41t43 -143q0 -76 -24 -193l-121 -567h-150l127 594q19 97 19 137q0 49 -17.5 67.5t-54.5 18.5q-57 0 -99.5 -46.5t-68.5 -166.5l-129 -604h-149z" />
<glyph unicode="i" horiz-adv-x="329" d="M-63 0l198 930h150l-199 -930h-149zM164 1106l39 180h166l-39 -180h-166z" />
<glyph unicode="j" horiz-adv-x="333" d="M-223 -150q14 -2 39 -2q60 0 84 33t39 101l202 948h150l-201 -936q-22 -108 -54.5 -165.5t-93 -85.5t-165.5 -30v137zM170 1106l39 180h166l-39 -180h-166z" />
<glyph unicode="k" horiz-adv-x="636" d="M-63 0l305 1434h147l-192 -904l290 400h175l-263 -350l72 -580h-145l-50 444l-139 -194l-53 -250h-147z" />
<glyph unicode="l" horiz-adv-x="329" d="M-63 0l305 1434h149l-305 -1434h-149z" />
<glyph unicode="m" horiz-adv-x="1050" d="M-63 0l198 930h121v-94q65 108 184 108q137 0 148 -131q82 131 205 131q79 0 121 -41.5t42 -142.5q0 -66 -26 -193l-121 -567h-147l122 575q25 125 25 158q0 46 -17.5 65t-52.5 19q-119 0 -164 -213l-129 -604h-147l123 575q24 120 24 158q0 46 -17 65t-52 19 q-119 0 -164 -213l-129 -604h-147z" />
<glyph unicode="n" d="M-63 0l198 930h123v-92q63 106 186 106q74 0 117 -41t43 -143q0 -76 -24 -193l-121 -567h-150l127 594q19 97 19 137q0 49 -17.5 67.5t-54.5 18.5q-57 0 -99.5 -46.5t-68.5 -166.5l-129 -604h-149z" />
<glyph unicode="o" horiz-adv-x="681" d="M-23 203q0 94 46 315q31 140 63.5 223.5t83.5 130.5q77 74 203 74q103 0 162 -49.5t59 -169.5q0 -101 -45 -313q-29 -136 -62 -222t-84 -135q-79 -73 -202 -73q-224 0 -224 219zM125 199q0 -43 20 -64.5t68 -21.5q58 0 87 29t50 91q14 44 49 209q47 223 47 289 q0 43 -19.5 64.5t-66.5 21.5q-58 0 -87 -29t-50 -92q-17 -52 -51 -207q-47 -223 -47 -290z" />
<glyph unicode="p" d="M-133 -332l268 1262h148l-15 -62q69 76 170 76q170 0 170 -207q0 -91 -43 -307q-30 -149 -61.5 -234.5t-77.5 -136.5q-68 -73 -176 -73q-122 0 -148 94l-86 -412h-149zM139 217q0 -102 94 -102q52 0 82 29.5t50 91.5q14 45 49 206q47 213 47 287q0 86 -82 86 q-80 0 -123 -82q-32 -58 -70 -246q-47 -217 -47 -270z" />
<glyph unicode="q" horiz-adv-x="696" d="M-20 184q0 117 49 336q31 145 61 222t76 128q66 74 172 74q128 0 149 -102l35 88h129l-268 -1262h-150l80 375l6 23h-2q-53 -80 -163 -80q-75 0 -124.5 46.5t-49.5 151.5zM129 199q0 -84 80 -84q84 0 125 80q33 66 69 245q46 224 46 273q0 102 -95 102q-50 0 -80 -30 t-49 -93q-22 -69 -51 -213q-45 -208 -45 -280z" />
<glyph unicode="r" horiz-adv-x="473" d="M-63 0l198 930h123l-2 -111q36 68 96 95.5t150 29.5l-35 -160q-20 4 -53 4q-90 0 -136 -49.5t-73 -181.5l-119 -557h-149z" />
<glyph unicode="s" horiz-adv-x="606" d="M-57 203q0 7 4 69l143 27q-8 -54 -8 -78q0 -59 26.5 -84.5t79.5 -25.5q125 0 125 129q0 40 -14.5 71.5t-36.5 54.5t-69 62q-51 42 -79 71t-49.5 77.5t-21.5 107.5q0 118 73 190t203 72q112 0 170 -57t58 -154q0 -40 -2 -71l-142 -29q7 54 7 76q0 56 -25 83t-78 27 q-61 0 -92 -35t-31 -94q0 -49 26.5 -84t98.5 -96q42 -36 65.5 -59.5t44.5 -54.5t29.5 -64.5t8.5 -77.5q0 -54 -15.5 -101t-47 -85.5t-86 -61t-126.5 -22.5q-110 0 -174.5 54t-64.5 163z" />
<glyph unicode="t" horiz-adv-x="464" d="M12 168q0 38 17 113l110 520h-106l28 129h107l47 221l156 31l-54 -252h175l-29 -129h-174l-107 -508q-12 -52 -12 -94q0 -44 20.5 -60t73.5 -16q30 0 55 2l-28 -131q-37 -4 -82 -4q-197 0 -197 178z" />
<glyph unicode="u" horiz-adv-x="692" d="M-16 170q0 65 26 195l121 565h150l-127 -598q-19 -93 -19 -135q0 -46 17.5 -65t52.5 -19q56 0 96.5 45t65.5 159l129 613h149l-196 -930h-119v102q-67 -116 -189 -116q-157 0 -157 184z" />
<glyph unicode="v" horiz-adv-x="606" d="M61 930h152l-23 -694h3l24 73l246 621h162l-402 -936h-155z" />
<glyph unicode="w" horiz-adv-x="944" d="M51 0l23 930h143l-22 -568l-5 -81l29 77l227 572h123l-8 -568l-4 -81h2l27 77l211 572h153l-362 -930h-148l13 588l4 61h-4l-29 -76l-229 -573h-144z" />
<glyph unicode="x" horiz-adv-x="585" d="M-137 0l297 489l-103 441h154l55 -312l187 312h157l-291 -469l103 -461h-156l-57 326l-184 -326h-162z" />
<glyph unicode="y" horiz-adv-x="612" d="M-147 -197q20 -4 47 -4q56 0 86 23t57 94q19 52 25 102t6 142l-6 770h151l-20 -694l24 73l246 621h164l-404 -938q-37 -87 -62.5 -135.5t-56 -91t-65.5 -61t-80.5 -28.5t-111.5 -10v137z" />
<glyph unicode="z" horiz-adv-x="573" d="M-121 0l25 115l471 684h-324l29 131h493l-24 -111l-471 -686h330l-29 -133h-500z" />
<glyph unicode="{" horiz-adv-x="550" d="M-23 -225q0 21 15 94l100 475q12 54 12 78q0 37 -20.5 51t-79.5 14l29 138q74 0 102.5 26t42.5 94l111 517q25 116 72 156t157 40h144l-27 -123h-113q-48 0 -66 -14t-28 -61l-119 -560q-13 -64 -42 -100t-87 -43q72 -18 72 -96q0 -40 -10 -76l-107 -510q-8 -41 -8 -55 q0 -24 12.5 -34.5t46.5 -10.5h117l-27 -123h-137q-162 0 -162 123z" />
<glyph unicode="|" horiz-adv-x="845" d="M356 -334v1870h131v-1870h-131z" />
<glyph unicode="}" horiz-adv-x="550" d="M-180 -348l26 123h113q48 0 66.5 14.5t27.5 60.5l119 562q13 64 43 100t88 45q-72 18 -72 94q0 33 9 76l106 508q8 41 8 55q0 24 -12.5 34.5t-46.5 10.5h-117l27 123h137q162 0 162 -123q0 -33 -12 -94l-103 -471q-10 -45 -10 -80q0 -37 20 -51t78 -14l-26 -138 q-76 0 -104 -25.5t-42 -94.5l-112 -519q-25 -115 -72.5 -155.5t-157.5 -40.5h-143z" />
<glyph unicode="~" horiz-adv-x="804" d="M51 653q37 92 93.5 135t138.5 43q67 0 146 -35.5t120 -35.5q73 0 123 78l82 -39q-37 -92 -93.5 -135t-138.5 -43q-67 0 -146 35.5t-120 35.5q-75 0 -123 -76z" />
<glyph unicode="&#xa1;" horiz-adv-x="395" d="M-47 0l270 1067h103l-187 -1067h-186zM223 1251l39 183h176l-39 -183h-176z" />
<glyph unicode="&#xa2;" horiz-adv-x="669" d="M45 465q0 97 45 313q31 140 62.5 221.5t83.5 130.5q56 56 141 70l35 160h137l-35 -164q141 -37 141 -199q0 -35 -6 -84l-147 -32l-2 2q12 98 12 110q0 42 -20 63t-68 21q-58 0 -88 -30t-49 -91q-23 -80 -49 -208q-50 -218 -50 -291q0 -42 21.5 -63t71.5 -21q49 0 79 25.5 t54 95.5q10 29 22 84l142 -31q-39 -157 -111 -225q-65 -65 -154 -74l-34 -158h-140l37 166q-131 38 -131 209z" />
<glyph unicode="&#xa3;" horiz-adv-x="829" d="M-119 100q0 63 45.5 102.5t128.5 39.5q77 0 154 -43q57 127 57 305q0 30 -4 88h-178l29 129h129q-6 27 -19 80t-20 83.5t-13 78.5t-6 94q0 183 93.5 292t269.5 109q274 0 274 -282q0 -60 -6 -125l-164 -35q15 103 15 143q0 158 -138 158q-186 0 -186 -262q0 -67 21 -187 t24 -147h260l-26 -129h-224v-2q0 -257 -114 -434q68 -35 133 -35q57 0 81 22.5t27 69.5q2 12 2 47h148q0 -9 -1 -26t-1 -21q-17 -236 -248 -236q-78 0 -128.5 22t-94.5 60q-67 -77 -172 -77q-64 0 -106 29t-42 89zM-23 98q0 -43 68 -43q64 0 102 47q-49 39 -102 39 q-68 0 -68 -43z" />
<glyph unicode="&#xa5;" horiz-adv-x="778" d="M-6 336l26 123h228l37 172h-228l27 123h203l-92 680h161l52 -580l294 580h168l-372 -680h196l-24 -123h-228l-36 -172h227l-25 -123h-229l-72 -336h-155l71 336h-229z" />
<glyph unicode="&#xa8;" horiz-adv-x="1024" d="M543 1044l39 179h159l-39 -179h-159zM786 1044l39 179h160l-39 -179h-160z" />
<glyph unicode="&#xa9;" horiz-adv-x="1480" d="M117 717q0 195 45 339.5t129.5 231.5t196.5 128.5t255 41.5q113 0 207 -25.5t172.5 -82t132 -142.5t83.5 -210t30 -281q0 -195 -45 -339.5t-129.5 -231.5t-196.5 -129t-254 -42q-143 0 -255 42t-196.5 129t-129.5 231.5t-45 339.5zM211 717q0 -651 532 -651 q531 0 531 651t-531 651q-532 0 -532 -651zM487 717q0 171 21.5 251t75.5 122q65 51 164 51q65 0 111 -17.5t74 -53.5t43.5 -82t22.5 -111l-135 -25q-2 82 -25 124t-87 42q-81 0 -104 -62.5t-23 -238.5q0 -177 23 -239t104 -62q66 0 87 43.5t25 136.5l135 -27 q-6 -63 -19.5 -109t-41 -86t-76 -60.5t-117.5 -20.5q-95 0 -161 51q-54 46 -75.5 124.5t-21.5 248.5z" />
<glyph unicode="&#xab;" horiz-adv-x="681" d="M2 467l223 373h148l-223 -387l53 -363h-135zM274 467l226 373h145l-223 -387l55 -363h-137z" />
<glyph unicode="&#xad;" horiz-adv-x="579" d="M78 588l28 129h367l-27 -129h-368z" />
<glyph unicode="&#xae;" horiz-adv-x="911" d="M131 1024q0 222 106 330t281 108t282 -108t107 -330t-107 -330t-282 -108t-281 108t-106 330zM201 1024q0 -193 83.5 -283t233.5 -90t234 90t84 283t-84 282t-234 89q-317 0 -317 -371zM377 786v482h137q92 0 128 -30t36 -95q0 -45 -15 -69t-49 -36v-2q34 -7 47 -26 t13 -56q0 -113 2 -168h-88q-2 45 -2 140q0 38 -10.5 49.5t-43.5 11.5h-67v-201h-88zM465 1057h37q53 0 68.5 13.5t15.5 55.5t-15.5 56t-68.5 14h-37v-139z" />
<glyph unicode="&#xb4;" horiz-adv-x="1024" d="M684 1044l147 279h179l-199 -279h-127z" />
<glyph unicode="&#xb8;" horiz-adv-x="1024" d="M342 -307l14 67q52 -12 109 -12q50 0 70 15.5t20 46.5q0 25 -21.5 34t-78.5 9h-27l94 192h70l-64 -129q79 -3 114.5 -22t35.5 -70q0 -77 -53.5 -111.5t-165.5 -34.5q-48 0 -117 15z" />
<glyph unicode="&#xbb;" horiz-adv-x="681" d="M-72 90l224 387l-56 363h137l66 -377l-225 -373h-146zM201 90l223 387l-53 363h135l65 -377l-223 -373h-147z" />
<glyph unicode="&#xbf;" horiz-adv-x="720" d="M-31 240q0 55 13 108t29 90.5t47.5 84.5t51 71t58.5 70q90 104 138.5 184.5t76.5 195.5h133q-17 -78 -37 -136t-52 -113t-59 -92t-81 -105q-94 -114 -128 -179.5t-34 -164.5q0 -73 25.5 -104t93.5 -31q49 0 81 16.5t61.5 68t53.5 146.5l150 -26q-28 -102 -67.5 -172.5 t-88 -108t-99 -53t-110.5 -15.5q-256 0 -256 265zM406 1251l38 183h177l-39 -183h-176z" />
<glyph unicode="&#xc0;" horiz-adv-x="696" d="M-133 0l549 1434h176l-53 -1434h-150l14 260h-280l-94 -260h-162zM170 389h240l36 651l11 136h-4l-43 -134zM367 1821h172l47 -275h-121z" />
<glyph unicode="&#xc1;" horiz-adv-x="696" d="M-133 0l549 1434h176l-53 -1434h-150l14 260h-280l-94 -260h-162zM170 389h240l36 651l11 136h-4l-43 -134zM461 1546l137 275h186l-196 -275h-127z" />
<glyph unicode="&#xc2;" horiz-adv-x="696" d="M-133 0l549 1434h176l-53 -1434h-150l14 260h-280l-94 -260h-162zM170 389h240l36 651l11 136h-4l-43 -134zM301 1546l197 275h153l90 -275h-106l-80 152l-137 -152h-117z" />
<glyph unicode="&#xc4;" horiz-adv-x="696" d="M-133 0l549 1434h176l-53 -1434h-150l14 260h-280l-94 -260h-162zM170 389h240l36 651l11 136h-4l-43 -134zM307 1546l39 180h170l-37 -180h-172zM569 1546l39 180h170l-39 -180h-170z" />
<glyph unicode="&#xc6;" horiz-adv-x="1032" d="M-154 0l658 1434h626l-32 -146h-377l-86 -430h258l-31 -143h-254l-110 -568h362l-33 -147h-505l53 268h-250l-119 -268h-160zM184 399h215l168 846h-4z" />
<glyph unicode="&#xc7;" horiz-adv-x="759" d="M10 213q0 150 88 565q53 240 94 370.5t91 197.5q82 112 245 112q248 0 248 -235q0 -68 -16 -172l-164 -35q25 128 25 194q0 56 -25.5 81.5t-79.5 25.5q-59 0 -91.5 -29.5t-59.5 -103.5q-37 -99 -109 -439q-29 -128 -58.5 -290t-29.5 -232q0 -58 24.5 -82t79.5 -24 q57 0 89.5 29.5t60.5 103.5q24 67 49 178l154 -31q-51 -216 -119 -309q-80 -107 -234 -113l-30 -61q80 -2 118.5 -26.5t38.5 -80.5q0 -78 -57.5 -114.5t-179.5 -36.5q-70 0 -127 14l16 78q60 -14 119 -14q56 0 76 14.5t20 48.5q0 26 -21 34.5t-83 10.5h-27l68 138 q-193 24 -193 233z" />
<glyph unicode="&#xc8;" horiz-adv-x="694" d="M-45 0l305 1434h535l-31 -144h-381l-92 -432h262l-33 -143h-260l-119 -568h379l-31 -147h-534zM393 1821h172l47 -275h-120z" />
<glyph unicode="&#xc9;" horiz-adv-x="694" d="M-45 0l305 1434h535l-31 -144h-381l-92 -432h262l-33 -143h-260l-119 -568h379l-31 -147h-534zM487 1546l138 275h186l-197 -275h-127z" />
<glyph unicode="&#xca;" horiz-adv-x="694" d="M-45 0l305 1434h535l-31 -144h-381l-92 -432h262l-33 -143h-260l-119 -568h379l-31 -147h-534zM328 1546l196 275h154l90 -275h-106l-80 152l-138 -152h-116z" />
<glyph unicode="&#xcb;" horiz-adv-x="694" d="M-45 0l305 1434h535l-31 -144h-381l-92 -432h262l-33 -143h-260l-119 -568h379l-31 -147h-534zM334 1546l39 180h170l-37 -180h-172zM596 1546l39 180h170l-39 -180h-170z" />
<glyph unicode="&#xcd;" horiz-adv-x="374" d="M-45 0l305 1434h158l-305 -1434h-158zM299 1546l137 275h187l-197 -275h-127z" />
<glyph unicode="&#xce;" horiz-adv-x="374" d="M-45 0l305 1434h158l-305 -1434h-158zM139 1546l197 275h153l91 -275h-107l-80 152l-137 -152h-117z" />
<glyph unicode="&#xcf;" horiz-adv-x="374" d="M-45 0l305 1434h158l-305 -1434h-158zM145 1546l39 180h170l-37 -180h-172zM408 1546l38 180h170l-38 -180h-170z" />
<glyph unicode="&#xd1;" horiz-adv-x="825" d="M-45 0l305 1434h162l76 -1033h2l14 82l203 951h153l-305 -1434h-164l-73 1032h-2l-15 -82l-202 -950h-154zM350 1546q20 114 63.5 164.5t118.5 50.5q40 0 67.5 -16t39.5 -35t30 -35t40 -16q28 0 40 18.5t23 69.5h92q-21 -113 -64 -162t-116 -49q-40 0 -67.5 15.5 t-40 34.5t-30.5 34.5t-40 15.5q-27 0 -40 -20t-24 -70h-92z" />
<glyph unicode="&#xd3;" horiz-adv-x="792" d="M10 211q0 152 88 567q53 241 94.5 370.5t90.5 197.5q82 112 247 112q248 0 248 -235q0 -143 -90 -568q-52 -241 -92.5 -370t-89.5 -197q-83 -113 -248 -113q-248 0 -248 236zM168 223q0 -58 24.5 -82t79.5 -24t89 29t61 104q33 91 108 438q91 394 91 522q0 57 -25.5 82 t-79.5 25q-58 0 -90.5 -29t-60.5 -104q-38 -107 -109 -439q-28 -122 -58 -287t-30 -235zM504 1546l137 275h186l-196 -275h-127z" />
<glyph unicode="&#xd4;" horiz-adv-x="792" d="M10 211q0 152 88 567q53 241 94.5 370.5t90.5 197.5q82 112 247 112q248 0 248 -235q0 -143 -90 -568q-52 -241 -92.5 -370t-89.5 -197q-83 -113 -248 -113q-248 0 -248 236zM168 223q0 -58 24.5 -82t79.5 -24t89 29t61 104q33 91 108 438q91 394 91 522q0 57 -25.5 82 t-79.5 25q-58 0 -90.5 -29t-60.5 -104q-38 -107 -109 -439q-28 -122 -58 -287t-30 -235zM344 1546l197 275h153l90 -275h-106l-80 152l-137 -152h-117z" />
<glyph unicode="&#xd6;" horiz-adv-x="792" d="M10 211q0 152 88 567q53 241 94.5 370.5t90.5 197.5q82 112 247 112q248 0 248 -235q0 -143 -90 -568q-52 -241 -92.5 -370t-89.5 -197q-83 -113 -248 -113q-248 0 -248 236zM168 223q0 -58 24.5 -82t79.5 -24t89 29t61 104q33 91 108 438q91 394 91 522q0 57 -25.5 82 t-79.5 25q-58 0 -90.5 -29t-60.5 -104q-38 -107 -109 -439q-28 -122 -58 -287t-30 -235zM350 1546l39 180h170l-37 -180h-172zM612 1546l39 180h170l-39 -180h-170z" />
<glyph unicode="&#xd9;" horiz-adv-x="802" d="M27 229q0 131 39 303l192 902h158l-187 -879q-51 -229 -51 -322q0 -63 26 -87.5t83 -24.5t90 30.5t57 108.5q26 88 58 244l198 930h158l-209 -983q-27 -126 -53.5 -206t-68 -145.5t-101 -95t-142.5 -29.5q-120 0 -183.5 64t-63.5 190zM418 1821h172l47 -275h-121z" />
<glyph unicode="&#xda;" horiz-adv-x="802" d="M27 229q0 131 39 303l192 902h158l-187 -879q-51 -229 -51 -322q0 -63 26 -87.5t83 -24.5t90 30.5t57 108.5q26 88 58 244l198 930h158l-209 -983q-27 -126 -53.5 -206t-68 -145.5t-101 -95t-142.5 -29.5q-120 0 -183.5 64t-63.5 190zM512 1546l137 275h187l-197 -275 h-127z" />
<glyph unicode="&#xdb;" horiz-adv-x="802" d="M27 229q0 131 39 303l192 902h158l-187 -879q-51 -229 -51 -322q0 -63 26 -87.5t83 -24.5t90 30.5t57 108.5q26 88 58 244l198 930h158l-209 -983q-27 -126 -53.5 -206t-68 -145.5t-101 -95t-142.5 -29.5q-120 0 -183.5 64t-63.5 190zM352 1546l197 275h153l91 -275h-107 l-80 152l-137 -152h-117z" />
<glyph unicode="&#xdc;" horiz-adv-x="802" d="M27 229q0 131 39 303l192 902h158l-187 -879q-51 -229 -51 -322q0 -63 26 -87.5t83 -24.5t90 30.5t57 108.5q26 88 58 244l198 930h158l-209 -983q-27 -126 -53.5 -206t-68 -145.5t-101 -95t-142.5 -29.5q-120 0 -183.5 64t-63.5 190zM358 1546l39 180h170l-37 -180h-172 zM621 1546l38 180h170l-38 -180h-170z" />
<glyph unicode="&#xdf;" horiz-adv-x="688" d="M-63 0l243 1143q36 168 100.5 235.5t172.5 67.5q188 0 188 -193q0 -106 -48 -207.5t-138 -148.5q75 -10 106 -57.5t31 -143.5q0 -115 -35 -282q-22 -109 -45 -178.5t-52 -119t-72 -74.5t-95.5 -35.5t-132.5 -10.5l26 125q37 0 57.5 2.5t43 13.5t35.5 30t28.5 56.5 t28.5 88.5t29 130q36 161 36 256q0 66 -23.5 83.5t-88.5 17.5l24 116q79 34 123.5 128t44.5 188q0 44 -15.5 64t-55.5 20q-53 0 -78 -36.5t-47 -139.5l-242 -1139h-149z" />
<glyph unicode="&#xe0;" horiz-adv-x="669" d="M-72 186q0 158 123.5 261.5t345.5 103.5l15 72q14 69 14 100q0 53 -22 73.5t-66 20.5q-50 0 -84.5 -35t-60.5 -133l-134 29q44 146 118 206t175 60t158 -51.5t57 -157.5q0 -62 -20 -160l-84 -397q-4 -24 -4 -33q0 -19 12 -26.5t43 -7.5l-22 -107q-19 -8 -58 -8 q-111 0 -119 86q-59 -90 -190 -90q-87 0 -142 46.5t-55 147.5zM76 205q0 -52 22.5 -74t75.5 -22q129 0 164 157l37 178q-139 -1 -219 -66.5t-80 -172.5zM219 1323h168l53 -279h-121z" />
<glyph unicode="&#xe1;" horiz-adv-x="669" d="M-72 186q0 158 123.5 261.5t345.5 103.5l15 72q14 69 14 100q0 53 -22 73.5t-66 20.5q-50 0 -84.5 -35t-60.5 -133l-134 29q44 146 118 206t175 60t158 -51.5t57 -157.5q0 -62 -20 -160l-84 -397q-4 -24 -4 -33q0 -19 12 -26.5t43 -7.5l-22 -107q-19 -8 -58 -8 q-111 0 -119 86q-59 -90 -190 -90q-87 0 -142 46.5t-55 147.5zM76 205q0 -52 22.5 -74t75.5 -22q129 0 164 157l37 178q-139 -1 -219 -66.5t-80 -172.5zM319 1044l148 279h178l-199 -279h-127z" />
<glyph unicode="&#xe2;" horiz-adv-x="669" d="M-72 186q0 158 123.5 261.5t345.5 103.5l15 72q14 69 14 100q0 53 -22 73.5t-66 20.5q-50 0 -84.5 -35t-60.5 -133l-134 29q44 146 118 206t175 60t158 -51.5t57 -157.5q0 -62 -20 -160l-84 -397q-4 -24 -4 -33q0 -19 12 -26.5t43 -7.5l-22 -107q-19 -8 -58 -8 q-111 0 -119 86q-59 -90 -190 -90q-87 0 -142 46.5t-55 147.5zM76 205q0 -52 22.5 -74t75.5 -22q129 0 164 157l37 178q-139 -1 -219 -66.5t-80 -172.5zM170 1044l201 279h137l82 -279h-107l-65 154l-129 -154h-119z" />
<glyph unicode="&#xe4;" horiz-adv-x="669" d="M-72 186q0 158 123.5 261.5t345.5 103.5l15 72q14 69 14 100q0 53 -22 73.5t-66 20.5q-50 0 -84.5 -35t-60.5 -133l-134 29q44 146 118 206t175 60t158 -51.5t57 -157.5q0 -62 -20 -160l-84 -397q-4 -24 -4 -33q0 -19 12 -26.5t43 -7.5l-22 -107q-19 -8 -58 -8 q-111 0 -119 86q-59 -90 -190 -90q-87 0 -142 46.5t-55 147.5zM76 205q0 -52 22.5 -74t75.5 -22q129 0 164 157l37 178q-139 -1 -219 -66.5t-80 -172.5zM178 1044l39 179h160l-39 -179h-160zM422 1044l39 179h160l-39 -179h-160z" />
<glyph unicode="&#xe6;" horiz-adv-x="1026" d="M-72 188q0 166 127.5 263.5t339.5 99.5l17 72q12 59 12 106q0 49 -22 69.5t-64 20.5q-50 0 -85.5 -36t-62.5 -134l-131 29q45 147 117 206.5t178 59.5q124 0 174 -82q78 84 201 84q217 0 217 -217q0 -90 -39 -285h-395q-37 -181 -37 -245q0 -44 20.5 -65t69.5 -21 q64 0 98 39.5t64 158.5l137 -30q-40 -154 -112 -226q-74 -71 -197 -71q-76 0 -126 26.5t-75 95.5q-65 -116 -221 -116q-31 0 -59 5.5t-55.5 19t-47 35.5t-31.5 57t-12 81zM74 201q0 -47 21 -71t75 -24q130 0 166 160l39 180q-143 -3 -222 -69t-79 -176zM535 551h239 q27 138 27 180q0 90 -90 90q-58 0 -87.5 -30t-52.5 -93q-15 -44 -36 -147z" />
<glyph unicode="&#xe7;" horiz-adv-x="657" d="M-23 203q0 94 46 315q31 140 63 222.5t84 131.5q74 74 203 74q219 0 219 -211q0 -47 -4 -82l-152 -30l-2 2q12 70 12 108q0 43 -19 63.5t-67 20.5q-58 0 -88 -30t-49 -91q-22 -64 -51 -207q-47 -227 -47 -292q0 -42 20 -63t70 -21q49 0 80.5 25t54.5 95l21 82l143 -28 q-42 -165 -113 -230q-72 -67 -182 -73l-33 -68q79 -3 114.5 -22t35.5 -70q0 -77 -53.5 -111.5t-165.5 -34.5q-48 0 -117 15l14 67q52 -12 109 -12q50 0 70 15.5t20 46.5q0 25 -21.5 34t-78.5 9h-27l66 135q-175 21 -175 215z" />
<glyph unicode="&#xe8;" horiz-adv-x="673" d="M-23 203q0 90 46 315q30 137 63 221t84 133q79 74 203 74q221 0 221 -217q0 -87 -39 -289h-395q-37 -181 -37 -241q0 -44 21 -65t69 -21q65 0 97.5 39t62.5 159l141 -30q-43 -154 -115 -226q-71 -71 -196 -71q-226 0 -226 219zM184 559h242q23 142 23 172q0 90 -89 90 q-60 0 -89 -29.5t-50 -93.5q-24 -78 -37 -139zM246 1323h168l53 -279h-121z" />
<glyph unicode="&#xe9;" horiz-adv-x="673" d="M-23 203q0 90 46 315q30 137 63 221t84 133q79 74 203 74q221 0 221 -217q0 -87 -39 -289h-395q-37 -181 -37 -241q0 -44 21 -65t69 -21q65 0 97.5 39t62.5 159l141 -30q-43 -154 -115 -226q-71 -71 -196 -71q-226 0 -226 219zM184 559h242q23 142 23 172q0 90 -89 90 q-60 0 -89 -29.5t-50 -93.5q-24 -78 -37 -139zM346 1044l148 279h178l-199 -279h-127z" />
<glyph unicode="&#xea;" horiz-adv-x="673" d="M-23 203q0 90 46 315q30 137 63 221t84 133q79 74 203 74q221 0 221 -217q0 -87 -39 -289h-395q-37 -181 -37 -241q0 -44 21 -65t69 -21q65 0 97.5 39t62.5 159l141 -30q-43 -154 -115 -226q-71 -71 -196 -71q-226 0 -226 219zM184 559h242q23 142 23 172q0 90 -89 90 q-60 0 -89 -29.5t-50 -93.5q-24 -78 -37 -139zM197 1044l200 279h138l81 -279h-106l-66 154l-129 -154h-118z" />
<glyph unicode="&#xeb;" horiz-adv-x="673" d="M-23 203q0 90 46 315q30 137 63 221t84 133q79 74 203 74q221 0 221 -217q0 -87 -39 -289h-395q-37 -181 -37 -241q0 -44 21 -65t69 -21q65 0 97.5 39t62.5 159l141 -30q-43 -154 -115 -226q-71 -71 -196 -71q-226 0 -226 219zM184 559h242q23 142 23 172q0 90 -89 90 q-60 0 -89 -29.5t-50 -93.5q-24 -78 -37 -139zM205 1044l39 179h159l-38 -179h-160zM449 1044l38 179h160l-39 -179h-159z" />
<glyph unicode="&#xed;" horiz-adv-x="329" d="M-63 0l198 930h150l-199 -930h-149zM174 1044l148 279h178l-199 -279h-127z" />
<glyph unicode="&#xee;" horiz-adv-x="329" d="M-63 0l198 930h150l-199 -930h-149zM25 1044l200 279h137l82 -279h-106l-66 154l-129 -154h-118z" />
<glyph unicode="&#xef;" horiz-adv-x="329" d="M-63 0l198 930h150l-199 -930h-149zM33 1044l39 179h159l-38 -179h-160zM276 1044l39 179h160l-39 -179h-160z" />
<glyph unicode="&#xf1;" d="M-63 0l198 930h123v-92q63 106 186 106q74 0 117 -41t43 -143q0 -76 -24 -193l-121 -567h-150l127 594q19 97 19 137q0 49 -17.5 67.5t-54.5 18.5q-57 0 -99.5 -46.5t-68.5 -166.5l-129 -604h-149zM199 1051q22 113 59.5 158.5t110.5 45.5q37 0 62.5 -15.5t37 -33.5 t29.5 -33.5t41 -15.5q25 0 36.5 18t22.5 66h86q-23 -113 -61 -158t-111 -45q-29 0 -51 10t-35.5 24t-24.5 28.5t-25.5 24.5t-33.5 10q-26 0 -37.5 -18.5t-21.5 -65.5h-84z" />
<glyph unicode="&#xf3;" horiz-adv-x="681" d="M-23 203q0 94 46 315q31 140 63.5 223.5t83.5 130.5q77 74 203 74q103 0 162 -49.5t59 -169.5q0 -101 -45 -313q-29 -136 -62 -222t-84 -135q-79 -73 -202 -73q-224 0 -224 219zM125 199q0 -43 20 -64.5t68 -21.5q58 0 87 29t50 91q14 44 49 209q47 223 47 289 q0 43 -19.5 64.5t-66.5 21.5q-58 0 -87 -29t-50 -92q-17 -52 -51 -207q-47 -223 -47 -290zM350 1044l148 279h178l-199 -279h-127z" />
<glyph unicode="&#xf4;" horiz-adv-x="681" d="M-23 203q0 94 46 315q31 140 63.5 223.5t83.5 130.5q77 74 203 74q103 0 162 -49.5t59 -169.5q0 -101 -45 -313q-29 -136 -62 -222t-84 -135q-79 -73 -202 -73q-224 0 -224 219zM125 199q0 -43 20 -64.5t68 -21.5q58 0 87 29t50 91q14 44 49 209q47 223 47 289 q0 43 -19.5 64.5t-66.5 21.5q-58 0 -87 -29t-50 -92q-17 -52 -51 -207q-47 -223 -47 -290zM201 1044l200 279h138l82 -279h-107l-65 154l-130 -154h-118z" />
<glyph unicode="&#xf6;" horiz-adv-x="681" d="M-23 203q0 94 46 315q31 140 63.5 223.5t83.5 130.5q77 74 203 74q103 0 162 -49.5t59 -169.5q0 -101 -45 -313q-29 -136 -62 -222t-84 -135q-79 -73 -202 -73q-224 0 -224 219zM125 199q0 -43 20 -64.5t68 -21.5q58 0 87 29t50 91q14 44 49 209q47 223 47 289 q0 43 -19.5 64.5t-66.5 21.5q-58 0 -87 -29t-50 -92q-17 -52 -51 -207q-47 -223 -47 -290zM209 1044l39 179h160l-39 -179h-160zM453 1044l39 179h159l-39 -179h-159z" />
<glyph unicode="&#xf9;" horiz-adv-x="692" d="M-16 170q0 65 26 195l121 565h150l-127 -598q-19 -93 -19 -135q0 -46 17.5 -65t52.5 -19q56 0 96.5 45t65.5 159l129 613h149l-196 -930h-119v102q-67 -116 -189 -116q-157 0 -157 184zM250 1323h168l53 -279h-121z" />
<glyph unicode="&#xfa;" horiz-adv-x="692" d="M-16 170q0 65 26 195l121 565h150l-127 -598q-19 -93 -19 -135q0 -46 17.5 -65t52.5 -19q56 0 96.5 45t65.5 159l129 613h149l-196 -930h-119v102q-67 -116 -189 -116q-157 0 -157 184zM350 1044l148 279h178l-199 -279h-127z" />
<glyph unicode="&#xfb;" horiz-adv-x="692" d="M-16 170q0 65 26 195l121 565h150l-127 -598q-19 -93 -19 -135q0 -46 17.5 -65t52.5 -19q56 0 96.5 45t65.5 159l129 613h149l-196 -930h-119v102q-67 -116 -189 -116q-157 0 -157 184zM201 1044l200 279h138l82 -279h-107l-65 154l-130 -154h-118z" />
<glyph unicode="&#xfc;" horiz-adv-x="692" d="M-16 170q0 65 26 195l121 565h150l-127 -598q-19 -93 -19 -135q0 -46 17.5 -65t52.5 -19q56 0 96.5 45t65.5 159l129 613h149l-196 -930h-119v102q-67 -116 -189 -116q-157 0 -157 184zM209 1044l39 179h160l-39 -179h-160zM453 1044l39 179h159l-39 -179h-159z" />
<glyph unicode="&#xff;" horiz-adv-x="612" d="M-147 -197q20 -4 47 -4q56 0 86 23t57 94q19 52 25 102t6 142l-6 770h151l-20 -694l24 73l246 621h164l-404 -938q-37 -87 -62.5 -135.5t-56 -91t-65.5 -61t-80.5 -28.5t-111.5 -10v137zM166 1044l39 179h160l-39 -179h-160zM410 1044l39 179h159l-39 -179h-159z" />
<glyph unicode="&#x106;" horiz-adv-x="759" d="M10 213q0 150 88 565q53 240 94 370.5t91 197.5q82 112 245 112q248 0 248 -235q0 -68 -16 -172l-164 -35q25 128 25 194q0 56 -25.5 81.5t-79.5 25.5q-59 0 -91.5 -29.5t-59.5 -103.5q-37 -99 -109 -439q-29 -128 -58.5 -290t-29.5 -232q0 -58 24.5 -82t79.5 -24 q57 0 89.5 29.5t60.5 103.5q24 67 49 178l154 -31q-51 -216 -119 -309q-83 -113 -248 -113q-248 0 -248 238zM506 1546l137 275h186l-196 -275h-127z" />
<glyph unicode="&#x107;" horiz-adv-x="657" d="M-23 203q0 94 46 315q31 140 63 222.5t84 131.5q74 74 203 74q219 0 219 -211q0 -47 -4 -82l-152 -30l-2 2q12 70 12 108q0 43 -19 63.5t-67 20.5q-58 0 -88 -30t-49 -91q-22 -64 -51 -207q-47 -227 -47 -292q0 -42 20 -63t70 -21q49 0 80.5 25t54.5 95l21 82l143 -28 q-42 -165 -113 -230q-79 -73 -198 -73q-226 0 -226 219zM348 1044l148 279h178l-199 -279h-127z" />
<glyph unicode="&#x10c;" horiz-adv-x="759" d="M10 213q0 150 88 565q53 240 94 370.5t91 197.5q82 112 245 112q248 0 248 -235q0 -68 -16 -172l-164 -35q25 128 25 194q0 56 -25.5 81.5t-79.5 25.5q-59 0 -91.5 -29.5t-59.5 -103.5q-37 -99 -109 -439q-29 -128 -58.5 -290t-29.5 -232q0 -58 24.5 -82t79.5 -24 q57 0 89.5 29.5t60.5 103.5q24 67 49 178l154 -31q-51 -216 -119 -309q-83 -113 -248 -113q-248 0 -248 238zM403 1821h103l80 -156l139 156h117l-195 -275h-155z" />
<glyph unicode="&#x10d;" horiz-adv-x="657" d="M-23 203q0 94 46 315q31 140 63 222.5t84 131.5q74 74 203 74q219 0 219 -211q0 -47 -4 -82l-152 -30l-2 2q12 70 12 108q0 43 -19 63.5t-67 20.5q-58 0 -88 -30t-49 -91q-22 -64 -51 -207q-47 -227 -47 -292q0 -42 20 -63t70 -21q49 0 80.5 25t54.5 95l21 82l143 -28 q-42 -165 -113 -230q-79 -73 -198 -73q-226 0 -226 219zM250 1323h104l70 -158l129 158h119l-199 -279h-137z" />
<glyph unicode="&#x110;" horiz-adv-x="796" d="M-45 0l151 711h-102l33 147h100l123 576h242q145 0 211.5 -57t66.5 -177q0 -135 -78 -502q-50 -244 -87.5 -376t-88.5 -205q-44 -64 -113 -90.5t-190 -26.5h-268zM141 143h105q76 0 117.5 26.5t70.5 106.5q40 105 109 435q82 375 82 475q0 58 -30.5 81t-111.5 23h-96 l-92 -432h139l-31 -147h-141z" />
<glyph unicode="&#x111;" d="M-20 184q0 117 49 336q31 145 61 222t76 128q66 74 172 74q123 0 147 -96l60 280h-256l22 109h256l43 197h150l-43 -197h98l-22 -109h-99l-239 -1128h-119v82q-65 -96 -182 -96q-75 0 -124.5 46.5t-49.5 151.5zM129 199q0 -84 80 -84q84 0 125 80q33 66 69 245 q46 224 46 273q0 102 -95 102q-50 0 -80 -30t-49 -93q-22 -69 -51 -213q-45 -208 -45 -280z" />
<glyph unicode="&#x152;" horiz-adv-x="1019" d="M14 238q0 146 82 528q89 426 174 551q47 68 118 92.5t183 24.5h549l-30 -144h-349l-92 -432h258l-30 -145h-259l-120 -566h350l-33 -147h-518q-144 0 -213.5 56t-69.5 182zM170 246q0 -59 32.5 -81t106.5 -22h35l244 1147h-37q-78 0 -121 -26.5t-70 -108.5 q-33 -95 -104 -418q-86 -404 -86 -491z" />
<glyph unicode="&#x153;" horiz-adv-x="1050" d="M-23 205q0 92 46 313q32 147 64 226.5t83 127.5q74 74 203 74q69 0 110.5 -21t67.5 -69q81 90 203 90q98 0 157.5 -51t59.5 -166q0 -91 -39 -289h-395q-37 -178 -37 -239q0 -46 20.5 -67t67.5 -21q64 0 99 39.5t63 158.5l139 -30q-43 -154 -115 -226q-71 -71 -194 -71 q-71 0 -115 20.5t-68 69.5q-72 -90 -204 -90q-46 0 -83 11t-68 35.5t-48 69t-17 105.5zM125 199q0 -43 20 -64.5t68 -21.5q59 0 88.5 29.5t48.5 90.5q11 34 49 209q47 217 47 289q0 44 -18.5 65t-67.5 21q-58 0 -87 -29t-50 -92q-22 -67 -51 -207q-47 -223 -47 -290z M561 559h240q22 119 22 172q0 44 -20 67t-68 23q-58 0 -87 -30t-50 -93q-24 -78 -37 -139z" />
<glyph unicode="&#x160;" horiz-adv-x="708" d="M-31 236q0 68 17 157l159 29q-20 -111 -20 -182q0 -66 25 -94.5t83 -28.5q92 0 133.5 59t41.5 180q0 49 -5 86.5t-23 79.5t-26.5 59.5t-43.5 74t-46 75.5q-44 72 -64 109.5t-38.5 102.5t-18.5 138q0 172 85.5 274.5t246.5 102.5q123 0 187.5 -64t64.5 -188 q0 -50 -14 -153l-160 -29q20 117 20 172q0 57 -24 89t-84 32q-166 0 -166 -232q0 -43 5 -75t25.5 -76t36 -71t60.5 -101q84 -139 111.5 -211.5t27.5 -188.5q0 -187 -85.5 -287t-250.5 -100q-260 0 -260 261zM350 1821h103l79 -156l140 156h116l-194 -275h-156z" />
<glyph unicode="&#x161;" horiz-adv-x="606" d="M-57 203q0 7 4 69l143 27q-8 -54 -8 -78q0 -59 26.5 -84.5t79.5 -25.5q125 0 125 129q0 40 -14.5 71.5t-36.5 54.5t-69 62q-51 42 -79 71t-49.5 77.5t-21.5 107.5q0 118 73 190t203 72q112 0 170 -57t58 -154q0 -40 -2 -71l-142 -29q7 54 7 76q0 56 -25 83t-78 27 q-61 0 -92 -35t-31 -94q0 -49 26.5 -84t98.5 -96q42 -36 65.5 -59.5t44.5 -54.5t29.5 -64.5t8.5 -77.5q0 -54 -15.5 -101t-47 -85.5t-86 -61t-126.5 -22.5q-110 0 -174.5 54t-64.5 163zM205 1323h104l70 -158l129 158h119l-199 -279h-137z" />
<glyph unicode="&#x178;" horiz-adv-x="708" d="M123 0l141 662l-96 772h158l49 -598l297 598h172l-424 -783l-139 -651h-158zM309 1546l39 180h170l-37 -180h-172zM571 1546l39 180h170l-39 -180h-170z" />
<glyph unicode="&#x17d;" horiz-adv-x="663" d="M-119 0l27 125l651 1161h-395l31 148h573l-27 -123l-653 -1164h414l-33 -147h-588zM336 1821h102l80 -156l139 156h117l-194 -275h-156z" />
<glyph unicode="&#x17e;" horiz-adv-x="573" d="M-121 0l25 115l471 684h-324l29 131h493l-24 -111l-471 -686h330l-29 -133h-500zM190 1323h105l70 -158l129 158h118l-198 -279h-138z" />
<glyph unicode="&#x2c6;" horiz-adv-x="1024" d="M535 1044l200 279h137l82 -279h-106l-66 154l-129 -154h-118z" />
<glyph unicode="&#x2da;" horiz-adv-x="1024" d="M602 1190q0 71 49 115.5t123 44.5t122 -44.5t48 -115.5t-48 -115.5t-122 -44.5t-123 44.5t-49 115.5zM698 1190q0 -37 20.5 -57.5t55.5 -20.5t54.5 20.5t19.5 57.5q0 38 -19.5 59t-54.5 21q-36 0 -56 -21t-20 -59z" />
<glyph unicode="&#x2dc;" horiz-adv-x="1024" d="M524 1051q22 113 59.5 158.5t110.5 45.5q37 0 62.5 -15.5t37 -33.5t29.5 -33.5t41 -15.5q25 0 37 18.5t23 65.5h86q-23 -113 -61 -158t-111 -45q-29 0 -51 10t-35.5 24t-24.5 28.5t-25.5 24.5t-33.5 10q-26 0 -38 -19t-22 -65h-84z" />
<glyph unicode="&#x2000;" horiz-adv-x="910" />
<glyph unicode="&#x2001;" horiz-adv-x="1821" />
<glyph unicode="&#x2002;" horiz-adv-x="910" />
<glyph unicode="&#x2003;" horiz-adv-x="1821" />
<glyph unicode="&#x2004;" horiz-adv-x="607" />
<glyph unicode="&#x2005;" horiz-adv-x="455" />
<glyph unicode="&#x2006;" horiz-adv-x="303" />
<glyph unicode="&#x2007;" horiz-adv-x="303" />
<glyph unicode="&#x2008;" horiz-adv-x="227" />
<glyph unicode="&#x2009;" horiz-adv-x="364" />
<glyph unicode="&#x200a;" horiz-adv-x="101" />
<glyph unicode="&#x2010;" horiz-adv-x="579" d="M78 588l28 129h367l-27 -129h-368z" />
<glyph unicode="&#x2011;" horiz-adv-x="579" d="M78 588l28 129h367l-27 -129h-368z" />
<glyph unicode="&#x2012;" horiz-adv-x="579" d="M78 588l28 129h367l-27 -129h-368z" />
<glyph unicode="&#x2013;" horiz-adv-x="702" d="M76 582l28 135h494l-31 -135h-491z" />
<glyph unicode="&#x2014;" horiz-adv-x="1073" d="M86 580l29 137h841l-28 -137h-842z" />
<glyph unicode="&#x2018;" horiz-adv-x="380" d="M166 1032l33 154l163 268l62 -18l-119 -222h76l-37 -182h-178z" />
<glyph unicode="&#x2019;" horiz-adv-x="380" d="M172 1030l119 221h-76l37 183h178l-33 -154l-164 -268z" />
<glyph unicode="&#x201a;" horiz-adv-x="380" d="M-90 -219l117 219h-74l37 182h176l-31 -153l-164 -269z" />
<glyph unicode="&#x201c;" horiz-adv-x="626" d="M166 1032l33 154l163 268l62 -18l-119 -222h76l-39 -182h-176zM410 1032l32 154l164 268l62 -18l-119 -222h76l-39 -182h-176z" />
<glyph unicode="&#x201d;" horiz-adv-x="626" d="M174 1030l119 221h-76l39 183h176l-33 -154l-163 -268zM418 1030l119 221h-76l39 183h176l-33 -154l-164 -268z" />
<glyph unicode="&#x201e;" horiz-adv-x="624" d="M-92 -221l119 221h-76l39 182h176l-33 -153l-164 -269zM152 -221l118 221h-75l38 182h177l-33 -153l-164 -269z" />
<glyph unicode="&#x2022;" horiz-adv-x="747" d="M162 727q0 92 61 151.5t150 59.5t150 -59.5t61 -151.5q0 -93 -61 -153t-150 -60t-150 60t-61 153z" />
<glyph unicode="&#x2026;" horiz-adv-x="1206" d="M-23 0l39 182h177l-39 -182h-177zM367 0l39 182h176l-39 -182h-176zM756 0l39 182h176l-39 -182h-176z" />
<glyph unicode="&#x202f;" horiz-adv-x="364" />
<glyph unicode="&#x2039;" horiz-adv-x="413" d="M2 469l223 371h152l-223 -385l55 -365h-141z" />
<glyph unicode="&#x203a;" horiz-adv-x="413" d="M-72 90l224 385l-56 365h142l65 -379l-223 -371h-152z" />
<glyph unicode="&#x205f;" horiz-adv-x="455" />
<glyph unicode="&#x20ac;" horiz-adv-x="788" d="M-16 514l26 123h103l30 141l4 27h-102l27 125h104q37 161 71 259.5t77 156.5q81 112 241 112q248 0 248 -235q0 -44 -8 -93l-156 -34q8 63 8 114q0 55 -24 81t-80 26q-53 0 -88.5 -29t-61.5 -106q-19 -56 -69 -252h328l-52 -125h-305q-3 -12 -7 -33.5t-5 -26.5l-23 -108 h273l-49 -123h-248q-39 -228 -39 -293q0 -55 25 -79.5t79 -24.5q68 0 105.5 47.5t72.5 177.5l148 -33q-50 -158 -98 -221q-81 -113 -240 -113q-250 0 -250 236q0 101 39 303h-104z" />
<glyph unicode="&#x2122;" horiz-adv-x="993" d="M150 1339l20 95h334l-21 -95h-116l-113 -520h-100l112 520h-116zM438 819l131 615h152l-6 -435h2l172 435h162l-129 -615h-93l107 492h-6l-207 -492h-82l-2 492h-6l-101 -492h-94z" />
<glyph unicode="&#x25fc;" horiz-adv-x="931" d="M0 0v932h932v-932h-932z" />
</font>
</defs>
</svg>
