<?xml version="1.0" standalone="no"?>
<!DOCTYPE svg PUBLIC "-//W3C//DTD SVG 1.1//EN" "http://www.w3.org/Graphics/SVG/1.1/DTD/svg11.dtd" >
<svg>
<metadata>
Created by FontForge 20120731 at Tue Jan 10 17:01:48 2023
 By ffonts
Factory738
</metadata>
<defs>
<font id="BeckmanFree" horiz-adv-x="680" >
  <font-face 
    font-family="Beckman Free"
    font-weight="400"
    font-stretch="normal"
    units-per-em="1000"
    panose-1="0 0 0 0 0 0 0 0 0 0"
    ascent="800"
    descent="-200"
    x-height="687.828"
    cap-height="687.693"
    bbox="49.9971 -210.823 968.372 884.098"
    underline-thickness="0"
    underline-position="0"
    unicode-range="U+000A-2122"
  />
<missing-glyph horiz-adv-x="527" 
d="M50 700h427v-700h-427v700zM78 680l185 -309l186 309h-371zM251 350l-180 300v-601zM264 329l-185 -308h370zM276 350l181 -303v605z" />
    <glyph glyph-name=".notdef" horiz-adv-x="527" 
d="M50 700h427v-700h-427v700zM78 680l185 -309l186 309h-371zM251 350l-180 300v-601zM264 329l-185 -308h370zM276 350l181 -303v605z" />
    <glyph glyph-name=".null" horiz-adv-x="0" 
 />
    <glyph glyph-name=".null" horiz-adv-x="0" 
 />
    <glyph glyph-name="LF" unicode="&#xa;" horiz-adv-x="0" 
 />
    <glyph glyph-name="controlCR" unicode="&#xd;" horiz-adv-x="0" 
 />
    <glyph glyph-name="space" unicode=" " horiz-adv-x="270" 
 />
    <glyph glyph-name="exclam" unicode="!" horiz-adv-x="232" 
d="M116.091 0.984375c-36.501 0 -66.0908 29.5938 -66.0908 66.0986s29.5898 66.0986 66.0908 66.0986s66.0908 -29.5938 66.0908 -66.0986s-29.5898 -66.0986 -66.0908 -66.0986zM173.42 169.408h-114.658v519.968h114.658v-519.968z" />
    <glyph glyph-name="quotedbl" unicode="&#x22;" horiz-adv-x="368" 
d="M97.793 517.77l-47.793 172.007h114.658v-172.007h-66.8652zM202.973 689.776h114.658l-47.8125 -172.007h-66.8457v172.007z" />
    <glyph glyph-name="quotedbl" unicode="&#x201d;" horiz-adv-x="368" 
d="M97.793 517.77l-47.793 172.007h114.658v-172.007h-66.8652zM202.973 689.776h114.658l-47.8125 -172.007h-66.8457v172.007z" />
    <glyph glyph-name="quotedbl" unicode="&#x201c;" horiz-adv-x="368" 
d="M97.793 517.77l-47.793 172.007h114.658v-172.007h-66.8652zM202.973 689.776h114.658l-47.8125 -172.007h-66.8457v172.007z" />
    <glyph glyph-name="numbersign" unicode="#" horiz-adv-x="449" 
d="M398.78 374.43h-38.3057v-62.1133h38.2764v-114.671h-38.2764v-111.489h-114.658v111.489h-40.5986v-111.489h-114.658v111.489h-40.5605v114.671h40.5605v62.1133h-40.5605v114.671h40.5605v111.479h114.658v-111.479h40.5986v111.479h114.658v-111.479h38.3057
v-114.671zM245.845 312.316v62.1133h-40.5986v-62.1133h40.5986z" />
    <glyph glyph-name="dollar" unicode="$" horiz-adv-x="534" 
d="M349.362 376.628c79.4609 -25.6387 133.771 -99.0439 135.05 -182.537v-1.25195c-0.0898438 -50.3984 -20.3984 -98.6533 -56.373 -133.945c-33.0098 -32.3477 -75.835 -52.8027 -121.739 -58.1484v-84.2354h-76.4385v84.0928
c-101.033 11.2852 -179.852 93.3896 -179.852 192.408h114.658c0 -43.4131 39.6904 -78.9229 88.4775 -79.1426l27.2598 -0.124023c24.8594 -0.285156 48.833 9.22266 66.7402 26.4697c14.2949 13.8174 22.4521 32.791 22.6445 52.6729v1.25195
c-1.35645 34.3643 -24.3887 64.0723 -57.3281 73.9443l-127.376 43.2881c-79.4688 25.623 -133.793 99.0215 -135.086 182.518c0 99.2197 78.751 181.143 179.851 192.381v87.915h76.4385v-88.1914c100.269 -11.9736 178.15 -93.4766 178.15 -192.132h-114.658
c0 43.6416 -39.8916 79.1416 -88.9268 79.1416h-27.2695c-49.0352 0 -88.9268 -35.5098 -88.9268 -79.1426c1.35645 -34.3643 24.3887 -64.0723 57.3281 -73.9443z" />
    <glyph glyph-name="percent" unicode="%" horiz-adv-x="616" 
d="M269.762 559.204c0 -60.6924 -49.1953 -109.894 -109.881 -109.894s-109.881 49.2012 -109.881 109.894v19.1123c0 60.6924 49.1953 109.894 109.881 109.894s109.881 -49.2012 109.881 -109.894v-19.1123zM126.439 559.204
c0 -18.4717 14.9727 -33.4463 33.4424 -33.4463s33.4424 14.9746 33.4424 33.4463v19.1123c0 18.4717 -14.9727 33.4463 -33.4424 33.4463s-33.4424 -14.9746 -33.4424 -33.4463v-19.1123zM456.282 238.746c60.6592 -0.0634766 109.817 -49.2275 109.881 -109.894v-19.1123
c0 -60.6924 -49.1953 -109.894 -109.881 -109.894s-109.881 49.2012 -109.881 109.894v19.1123c0.0634766 60.666 49.2217 109.83 109.881 109.894zM489.725 109.798v19.1123c0 18.4717 -14.9727 33.4463 -33.4424 33.4463s-33.4424 -14.9746 -33.4424 -33.4463v-19.1123
c0 -18.4717 14.9727 -33.4463 33.4424 -33.4463s33.4424 14.9746 33.4424 33.4463zM347.969 687.693h119.731l-206.767 -687.789h-119.731z" />
    <glyph glyph-name="ampersand" unicode="&#x26;" horiz-adv-x="596" 
d="M545.876 481.514l-0.0107422 -114.663h-49.0732c69.4453 -112.408 35.6377 -259.766 -75.8604 -330.651s-259.259 -38.9619 -331.557 71.6338s-42.2695 258.771 67.3789 332.485c-37.3506 57.54 -34.0479 132.451 8.22168 186.479s114.179 75.252 179.007 52.833
s108.27 -83.5332 108.142 -152.135h-114.658c0 25.3955 -20.585 45.9824 -45.9775 45.9824s-45.9775 -20.5869 -45.9775 -45.9824s20.585 -45.9824 45.9775 -45.9824h254.388zM291.486 113.427c69.9326 0.0898438 126.608 56.7725 126.688 126.713
c-0.00488281 69.9746 -56.7275 126.696 -126.694 126.692s-126.684 -56.7314 -126.682 -126.706s56.7217 -126.699 126.688 -126.699z" />
    <glyph glyph-name="quotesingle" unicode="'" horiz-adv-x="215" 
d="M50 689.776h114.658l-47.8027 -172.007h-66.8555v172.007z" />
    <glyph glyph-name="quotesingle" unicode="&#x2018;" horiz-adv-x="215" 
d="M50 689.776h114.658l-47.8027 -172.007h-66.8555v172.007z" />
    <glyph glyph-name="parenleft" unicode="(" horiz-adv-x="241" 
d="M189.806 687.693c-33.8018 -228.044 -33.4756 -459.85 0.96582 -687.798h-116.072c-32.6279 228.084 -32.9307 459.63 -0.898438 687.798h116.005z" />
    <glyph glyph-name="parenright" unicode=")" horiz-adv-x="241" 
d="M166.937 687.693c32.04 -228.167 31.7451 -459.714 -0.878906 -687.799h-116.053c34.4365 227.949 34.7588 459.755 0.955078 687.799h115.977z" />
    <glyph glyph-name="asterisk" unicode="*" horiz-adv-x="355" 
d="M227.386 558.602l77.2227 -53.9238l-32.8213 -47.0059l-65.8135 45.9639v-74.584h-57.3291v74.6035l-65.6611 -45.8203l-32.8115 47.0244l77.0498 53.7617l-77.2227 53.9336l32.8115 47.0059l65.833 -45.9639v74.584h57.3291v-74.6035l65.6611 45.8203l32.8018 -47.0244z
" />
    <glyph glyph-name="plus" unicode="+" horiz-adv-x="444" 
d="M279.316 401.607h114.658v-114.671h-114.658v-114.776h-114.658v114.776h-114.658v114.671h114.658v111.384h114.658v-111.384z" />
    <glyph glyph-name="comma" unicode="," horiz-adv-x="215" 
d="M50 135.188h114.658l-47.8027 -219.825h-66.8555v219.825z" />
    <glyph glyph-name="hyphen" unicode="-" horiz-adv-x="444" 
d="M393.975 286.936h-343.975v114.671h343.975v-114.671z" />
    <glyph glyph-name="period" unicode="." horiz-adv-x="232" 
d="M116.091 0.984375c-36.501 0 -66.0908 29.5938 -66.0908 66.0986s29.5898 66.0986 66.0908 66.0986s66.0908 -29.5938 66.0908 -66.0986s-29.5898 -66.0986 -66.0908 -66.0986z" />
    <glyph glyph-name="slash" unicode="/" horiz-adv-x="426" 
d="M256.767 687.693h119.731l-206.767 -687.789h-119.731z" />
    <glyph glyph-name="zero" unicode="0" horiz-adv-x="607" 
d="M548.911 472.607c11.2344 -85.5537 11.2334 -172.218 -0.000976562 -257.771c-16.3408 -123.343 -121.681 -215.392 -246.086 -215.038s-229.22 93 -244.859 216.434c-10.6191 84.665 -10.6191 170.325 0 254.99c15.6426 123.433 120.459 216.076 244.864 216.428
s229.743 -91.6992 246.082 -215.042zM435.208 229.782c9.92871 75.6416 9.92871 152.275 0 227.917c-8.81641 66.1572 -65.332 115.51 -132.066 115.328s-122.98 -49.8408 -131.438 -116.045c-9.42676 -75.1973 -9.42676 -151.278 0 -226.476
c8.4541 -66.2041 64.6982 -115.865 131.433 -116.049s123.252 49.167 132.071 115.324z" />
    <glyph glyph-name="one" unicode="1" horiz-adv-x="325" 
d="M158.811 687.654l116.359 -0.000976562v-688.161h-114.658v506.513l-20.9062 -26.2021l-89.6055 71.5547z" />
    <glyph glyph-name="two" unicode="2" horiz-adv-x="534" 
d="M438.558 349.365l-230.597 -235.756h273.269v-114.671h-426.806l0.907227 122.564l299.362 306.163c9.17773 11.7715 14.168 26.2686 14.1797 41.1953c-0.299805 57.7188 -47.2471 104.309 -104.959 104.16h-4.07031
c-47.2373 -0.0712891 -87.9346 -33.2998 -97.459 -79.5723l-112.384 22.7334c20.4658 99.6826 108.093 171.303 209.843 171.511h4.07031c121.034 0.0849609 219.291 -97.8408 219.628 -218.888c-0.0341797 -42.3447 -14.8301 -83.3525 -41.8408 -115.962z" />
    <glyph glyph-name="three" unicode="3" horiz-adv-x="510" 
d="M459.674 486.799c0.0205078 -54.0322 -21.7939 -105.778 -60.4844 -143.49c58.4043 -57.0527 76.4434 -143.797 45.6279 -219.407s-104.347 -125.025 -185.987 -124.988h-9.07715c-102.91 -0.265625 -189.272 77.5127 -199.754 179.899l114.047 11.8682
c4.52637 -43.9053 41.584 -77.2363 85.7168 -77.0967h9.07715c47.5986 0 86.1846 38.5908 86.1846 86.1943s-38.5859 86.1943 -86.1846 86.1943h-35.917v114.671h35.917c47.2422 0.49707 85.2773 38.9395 85.2773 86.1895s-38.0352 85.6924 -85.2773 86.1895h-9.07715
c-43.2695 -0.0263672 -79.8281 -32.1016 -85.4873 -75.0049l-113.702 14.6396c13.1309 100.037 98.3057 174.884 199.189 175.036h9.07715c110.88 -0.125977 200.729 -90.002 200.834 -200.895z" />
    <glyph glyph-name="four" unicode="4" horiz-adv-x="643" 
d="M515.244 227.412l78.0635 -0.000976562v-114.671h-78.0635v-112.846h-114.658v112.885h-350.586l351.093 574.914h114.151v-460.281zM400.587 227.411v239.424l-146.189 -239.424h146.189z" />
    <glyph glyph-name="five" unicode="5" horiz-adv-x="569" 
d="M277.864 481.733c122.775 -0.00488281 225.885 -92.3945 239.326 -214.445s-67.0908 -234.67 -186.922 -261.398s-240.579 40.9951 -280.267 157.192l108.495 37.0869c19.7939 -57.8799 78.2598 -93.2129 138.7 -83.8213s105.431 60.8008 106.731 121.959
s-41.4629 114.435 -101.449 126.389s-119.902 -20.8604 -142.141 -77.8467l-53.3447 20.8418l-56.374 10.5117l68.8525 369.49h332.633v-114.671h-237.371l-19.7207 -105.918c26.5527 9.6709 54.5918 14.6221 82.8506 14.6299z" />
    <glyph glyph-name="six" unicode="6" horiz-adv-x="596" 
d="M297.919 496.059c108.956 0.0195312 205.137 -71.0957 237.068 -175.279s-7.88965 -217.007 -98.1406 -278.057s-209.777 -56.0166 -294.577 12.4043s-114.997 184.192 -74.4219 285.323l0.31543 0.726562c1.95898 4.81641 4.01367 9.59473 6.25879 14.2578
l145.95 332.26h125.226l-85.4395 -194.502c12.4961 1.91309 25.1191 2.87109 37.7607 2.86621zM297.92 114.776c66.2412 -0.0332031 122.451 48.6035 131.944 114.169s-30.6113 128.15 -94.1416 146.911s-131.194 -11.999 -158.834 -72.2061l-2.58984 -5.89648
c-16.583 -41.0645 -11.6611 -87.6885 13.1309 -124.385s66.208 -58.6592 110.49 -58.5928z" />
    <glyph glyph-name="seven" unicode="7" horiz-adv-x="504" 
d="M55.7041 687.654l398.112 0.000976562v-103.663l-276.928 -584.088h-126.889l271.711 573.079h-266.007v114.671z" />
    <glyph glyph-name="eight" unicode="8" horiz-adv-x="546" 
d="M411.357 396.963c74.2529 -58.9326 103.098 -158.396 71.8955 -247.918s-115.619 -149.501 -210.412 -149.501s-179.21 59.9795 -210.412 149.501s-2.3584 188.985 71.8945 247.918c-59.0986 72.8037 -51.7666 178.936 16.7822 242.919s174.921 63.9834 243.47 0
s75.8809 -170.115 16.7822 -242.919zM272.842 573.021c-35.1963 -0.0419922 -63.7168 -28.5674 -63.7588 -63.7676c0 -35.2178 28.5459 -63.7676 63.7588 -63.7676s63.7588 28.5498 63.7588 63.7676s-28.5459 63.7676 -63.7588 63.7676zM272.843 114.46
c59.7256 0.0634766 108.122 48.4404 108.17 108.173c0 59.7412 -48.4229 108.172 -108.157 108.174s-108.16 -48.4258 -108.164 -108.167s48.417 -108.175 108.151 -108.18z" />
    <glyph glyph-name="nine" unicode="9" horiz-adv-x="595" 
d="M544.883 439.401c0.0185547 -31.6035 -6.0459 -62.9111 -17.8662 -92.2207l-0.295898 -0.678711c-1.96875 -4.85449 -4.03223 -9.65137 -6.28711 -14.334l-145.95 -332.26h-125.235l85.5635 194.778c-102.285 -15.6113 -203.479 34.0879 -253.666 124.581
s-38.7627 202.663 28.6367 281.178s176.535 106.787 273.572 70.8711s161.476 -128.434 161.528 -231.915zM420.558 389.896c26.915 65.6172 -3.93652 140.683 -69.2119 168.402s-140.703 -2.21191 -169.217 -67.1504s0.489258 -140.736 65.0664 -170.047
s140.716 -1.23535 170.812 62.9854z" />
    <glyph glyph-name="colon" unicode=":" horiz-adv-x="232" 
d="M116.091 383.461c-36.501 0 -66.0908 29.5938 -66.0908 66.0986s29.5898 66.0986 66.0908 66.0986s66.0908 -29.5938 66.0908 -66.0986s-29.5898 -66.0986 -66.0908 -66.0986zM116.091 173.097c-36.501 0 -66.0908 29.5938 -66.0908 66.0986
s29.5898 66.0986 66.0908 66.0986s66.0908 -29.5938 66.0908 -66.0986s-29.5898 -66.0986 -66.0908 -66.0986z" />
    <glyph glyph-name="semicolon" unicode=";" horiz-adv-x="232" 
d="M116.091 383.461c-36.501 0 -66.0908 29.5938 -66.0908 66.0986s29.5898 66.0986 66.0908 66.0986s66.0908 -29.5938 66.0908 -66.0986s-29.5898 -66.0986 -66.0908 -66.0986zM58.7617 86.1562v221.01h114.658l-47.8027 -221.01h-66.8555z" />
    <glyph glyph-name="less" unicode="&#x3c;" horiz-adv-x="394" 
d="M211.42 344.635l132.66 -132.686l-81.0732 -81.0723l-213.006 213.03l210.206 214.044l81.7988 -80.3555z" />
    <glyph glyph-name="equal" unicode="=" horiz-adv-x="447" 
d="M397.156 395.147h-347.156v114.671h347.156v-114.671zM397.156 180.11h-347.156v114.671h347.156v-114.671z" />
    <glyph glyph-name="greater" unicode="&#x3e;" horiz-adv-x="394" 
d="M131.073 558.315l213.015 -213.04l-210.216 -214.034l-81.7988 80.3467l130.586 132.961l-132.659 132.675z" />
    <glyph glyph-name="question" unicode="?" horiz-adv-x="573" 
d="M522.965 462.574c3.70215 -64.9414 -19.7012 -128.508 -64.6289 -175.542c-31.0361 -32.6055 -70.6914 -55.7266 -114.353 -66.6729v-50.9521h-114.658v158.514h57.3291c33.5098 0 65.5439 13.7852 88.584 38.1201s35.0566 57.0771 33.2305 90.541
c-3 57.2686 -57.8926 112.177 -115.164 115.178c-33.4609 1.82422 -66.1992 -10.1963 -90.5312 -33.2402s-38.1152 -55.083 -38.1152 -88.5977v-29.2988h-114.658v29.2891c0.12207 64.9062 26.7754 126.939 73.7725 171.701
c47.0137 44.9697 110.595 68.3848 175.542 64.6455c115.193 -6.04883 217.611 -108.479 223.65 -223.685zM290.524 0.985352c-36.501 0 -66.0908 29.5938 -66.0908 66.0986s29.5898 66.0986 66.0908 66.0986s66.0908 -29.5938 66.0908 -66.0986
s-29.5898 -66.0986 -66.0908 -66.0986z" />
    <glyph glyph-name="at" unicode="@" horiz-adv-x="529" 
d="M384.84 211.1h-57.3281v206.026h-84.3506v57.3359h226.02v-57.3359h-84.3408v-206.026zM478.746 497.062h-428.745v19.1123h428.745v-19.1123zM68.0117 211.1l99.5713 262.272l99.5615 -262.272h-61.3232l-38.2383 100.738l-38.248 -100.738h-61.3232zM50.001 191.07
h428.745v-19.1123h-428.745v19.1123z" />
    <glyph glyph-name="A" unicode="A" horiz-adv-x="679" 
d="M340.381 693.025l288.586 -693.131h-124.213l-47.5166 114.098h-235.154l-47.7744 -114.098h-124.309zM270.154 228.673h139.367l-69.4736 166.837z" />
    <glyph glyph-name="B" unicode="B" horiz-adv-x="599" 
d="M451.007 373.389c77.6182 -45.9932 114.907 -138.179 91.0566 -225.197s-102.941 -147.34 -193.16 -147.32h-298.904v686.823h236.311c74.4941 0.0078125 142.837 -41.335 177.416 -107.325s29.6797 -145.722 -12.7188 -206.98zM164.657 573.022v-171.558
l121.652 0.15332c47.3271 0 85.6934 38.3701 85.6934 85.7021s-38.3662 85.7021 -85.6934 85.7021h-121.652zM348.903 115.503c47.2871 0 85.6211 38.3379 85.6211 85.6309s-38.334 85.6309 -85.6211 85.6309h-184.246v-171.262h184.246z" />
    <glyph glyph-name="C" unicode="C" horiz-adv-x="681" 
d="M551.886 177.664l79.0449 -83.0693c-135.839 -129.262 -350.179 -125.859 -481.849 7.64746s-132.125 347.898 -1.02344 481.964s345.426 138.378 481.813 9.69531l-78.6934 -83.4043c-90.9131 85.7705 -233.771 82.8916 -321.155 -6.47168
s-87.0811 -232.266 0.682617 -321.256s230.632 -91.2617 321.18 -5.10547z" />
    <glyph glyph-name="D" unicode="D" horiz-adv-x="645" 
d="M250.862 687.693c189.935 0 343.907 -154.028 343.907 -343.985s-153.973 -343.947 -343.907 -343.947h-200.862v687.933h200.862zM250.862 114.471c126.611 0 229.25 102.651 229.25 229.276s-102.639 229.275 -229.25 229.275h-86.2041v-458.552h86.2041z" />
    <glyph glyph-name="E" unicode="E" horiz-adv-x="528" 
d="M478.4 572.983l-313.743 -0.000976562v-172.026h265.931v-114.671h-265.931v-171.711h313.743v-114.671h-428.4v687.751h428.4v-114.671z" />
    <glyph glyph-name="F" unicode="F" horiz-adv-x="528" 
d="M478.392 572.983l-313.733 -0.000976562v-172.026h265.931v-114.671h-265.931v-286.42h-114.658v687.789h428.392v-114.671z" />
    <glyph glyph-name="G" unicode="G" horiz-adv-x="699" 
d="M394.379 400.843l254.733 0.000976562v-289.707l-17.8105 -16.9521c-135.936 -129.35 -350.426 -125.941 -482.185 7.66113s-132.21 348.144 -1.01465 482.3s345.669 138.467 482.147 9.69043l-78.6934 -83.3945c-88.8047 83.7754 -227.649 83.3428 -315.931 -0.984375
s-95.0879 -223.021 -15.4883 -315.59s217.734 -106.598 314.315 -31.9229v124.228h-140.074v114.671z" />
    <glyph glyph-name="H" unicode="H" horiz-adv-x="645" 
d="M479.91 687.693h114.658v-687.827h-114.658v286.535h-315.252v-286.535h-114.658v687.827h114.658v-286.621h315.252v286.621z" />
    <glyph glyph-name="I" unicode="I" horiz-adv-x="215" 
d="M164.658 -0.133789h-114.658v687.827h114.658v-687.827z" />
    <glyph glyph-name="J" unicode="J" horiz-adv-x="491" 
d="M326.813 687.693l114.659 0.000976562v-458.446c-0.000976562 -92.7617 -55.873 -176.389 -141.564 -211.886s-184.325 -15.873 -249.908 49.7207l81.082 81.0723c32.792 -32.7939 82.1064 -42.6035 124.95 -24.8555s70.7793 59.5586 70.7812 105.938v458.456z" />
    <glyph glyph-name="K" unicode="K" horiz-adv-x="651" 
d="M272.456 343.966l328.696 -344.062h-158.572l-277.922 290.893v-290.893h-114.658v687.789h114.658v-290.873l274.797 290.873h157.741z" />
    <glyph glyph-name="L" unicode="L" horiz-adv-x="501" 
d="M164.658 114.575l286.646 -0.000976562v-114.671h-401.304v687.789h114.658v-573.117z" />
    <glyph glyph-name="M" unicode="M" horiz-adv-x="731" 
d="M365.31 208.94l315.31 478.819v-687.894h-114.658v305.283l-200.651 -304.71l-200.651 304.71v-305.283h-114.658v687.894z" />
    <glyph glyph-name="N" unicode="N" horiz-adv-x="645" 
d="M480.025 687.693l114.658 -0.000976562v-690.445l-430.025 420.414v-417.795h-114.658v690.245l430.025 -420.404v417.986z" />
    <glyph glyph-name="O" unicode="O" horiz-adv-x="788" 
d="M393.975 687.693c189.887 -0.205078 343.77 -154.105 343.975 -344.014c0 -189.993 -154.003 -344.014 -343.975 -344.014s-343.975 154.021 -343.975 344.014s154.003 344.014 343.975 344.014zM393.976 114.337c126.594 0.131836 229.184 102.735 229.315 229.343
c0 126.662 -102.668 229.342 -229.315 229.342s-229.315 -102.68 -229.315 -229.342s102.668 -229.343 229.315 -229.343z" />
    <glyph glyph-name="P" unicode="P" horiz-adv-x="592" 
d="M346.2 687.693c109.085 -2.38086 196.273 -91.543 196.273 -200.666s-87.1885 -198.246 -196.273 -200.627h-181.542v-286.506h-114.658v687.799h296.2zM346.2 401.109c46.3516 1.5459 83.1279 39.5723 83.1279 85.9551s-36.7764 84.4102 -83.1279 85.9561h-181.542
v-171.911h181.542z" />
    <glyph glyph-name="Q" unicode="Q" horiz-adv-x="789" 
d="M738.942 343.135c0.0742188 -84.874 -31.3135 -166.763 -88.0957 -229.839h63.0615v-114.671h-319.447c-190.245 0.00488281 -344.465 154.25 -344.461 344.517s154.229 344.506 344.475 344.504s344.468 -154.244 344.468 -344.511zM394.472 113.295
c126.865 0.136719 229.671 102.959 229.823 229.839c0 126.936 -102.889 229.838 -229.81 229.84s-229.812 -102.897 -229.816 -229.833s102.882 -229.841 229.803 -229.846z" />
    <glyph glyph-name="R" unicode="R" horiz-adv-x="636" 
d="M386.168 290.424l199.934 -290.521h-139.186l-197.154 286.497h-85.1045v-286.468h-114.658v687.761h296.2c102.928 -0.147461 189.051 -78.1611 199.355 -180.584s-58.5518 -196.032 -159.387 -216.685zM164.638 401.07l181.542 0.0380859
c31.3887 -1.04688 60.8516 15.1035 76.8564 42.1289s16.0049 60.6279 0 87.6533s-45.4678 43.1758 -76.8564 42.1289h-181.542v-171.949z" />
    <glyph glyph-name="S" unicode="S" horiz-adv-x="514" 
d="M339.384 376.991c74.6523 -28.2783 124.127 -99.6826 124.385 -179.52v-3.28711c-0.121094 -105.838 -85.8828 -191.604 -191.709 -191.721h-30.3271c-93.2207 -0.196289 -173.004 66.8525 -188.87 158.725l112.967 19.6377
c6.40234 -36.8916 38.4639 -63.7949 75.9033 -63.6904h30.3271c42.5303 0.0478516 76.9971 34.5146 77.0498 77.0498v3.28711c-0.100586 32.0879 -19.9863 60.7861 -49.9922 72.1475l-124.72 46.8242c-86.7793 32.5527 -137.846 122.532 -121.304 213.737
s95.9551 157.515 188.638 157.512h30.3271c73.1592 0.275391 140.021 -41.3545 172.063 -107.132l-102.867 -50.6465c-12.8809 26.4609 -39.7695 43.2119 -69.1953 43.1074h-30.3271c-37.2617 0.0214844 -69.1982 -26.6309 -75.8477 -63.2988
s13.8936 -72.8398 48.7891 -85.9082z" />
    <glyph glyph-name="T" unicode="T" horiz-adv-x="520" 
d="M50 687.654h420.471v-114.671h-152.906v-573.117h-114.658v573.117h-152.906v114.671z" />
    <glyph glyph-name="U" unicode="U" horiz-adv-x="609" 
d="M444.166 687.693h114.658v-434.021c0 -140.524 -113.904 -254.441 -254.412 -254.441s-254.412 113.917 -254.412 254.441v434.021h114.658v-434.021c0 -77.1924 62.5703 -139.77 139.754 -139.77s139.754 62.5771 139.754 139.77v434.021z" />
    <glyph glyph-name="V" unicode="V" horiz-adv-x="678" 
d="M503.482 687.693h124.328l-289.798 -691.697l-288.012 691.697h124.193l164.143 -394.202z" />
    <glyph glyph-name="W" unicode="W" horiz-adv-x="1018" 
d="M844.218 687.693h124.154l-287.82 -692.997l-170.793 404.054l-175.093 -402.859l-284.667 691.803h123.993l163.569 -397.489l172.752 397.489h1.78711l167.516 -396.295z" />
    <glyph glyph-name="X" unicode="X" horiz-adv-x="694" 
d="M644.254 687.693l-228.324 -343.985l228.208 -343.804h-137.618l-159.394 240.141l-159.394 -240.141h-137.618l228.208 343.804l-228.322 343.985h137.618l159.509 -240.312l159.509 240.312h137.618z" />
    <glyph glyph-name="Y" unicode="Y" horiz-adv-x="647" 
d="M463.333 687.693h134.083l-216.273 -356.848v-331.353h-114.658v328.801l-216.484 359.399h133.854l139.31 -231.282z" />
    <glyph glyph-name="Y" unicode="&#x178;" horiz-adv-x="647" 
d="M463.333 687.693h134.083l-216.273 -356.848v-331.353h-114.658v328.801l-216.484 359.399h133.854l139.31 -231.282z" />
    <glyph glyph-name="Z" unicode="Z" horiz-adv-x="628" 
d="M246.782 114.575h331.573v-114.671h-528.354l324.798 573.079h-312.453v114.671h509.234z" />
    <glyph glyph-name="bracketleft" unicode="[" horiz-adv-x="328" 
d="M277.721 573.48l-113.062 -0.000976562v-458.628h113.062v-114.671h-227.721v687.971h227.721v-114.671z" />
    <glyph glyph-name="backslash" unicode="\" horiz-adv-x="426" 
d="M169.731 687.693l206.767 -687.789h-119.731l-206.767 687.789h119.731z" />
    <glyph glyph-name="bracketright" unicode="]" horiz-adv-x="329" 
d="M50 688.151l229.316 0.000976562v-687.761h-229.316v114.671h114.658v458.418h-114.658v114.671z" />
    <glyph glyph-name="asciicircum" unicode="^" horiz-adv-x="527" 
d="M263.006 693.417l214.01 -210.23l-80.3369 -81.8086l-132.946 130.592l-132.659 -132.665l-81.0732 81.082z" />
    <glyph glyph-name="underscore" unicode="_" horiz-adv-x="616" 
d="M565.962 0.391602h-515.962v114.671h515.962v-114.671z" />
    <glyph glyph-name="grave" unicode="`" horiz-adv-x="321" 
d="M131.073 727.131l139.729 -197.12l-23.7051 -23.708l-197.098 139.746z" />
    <glyph glyph-name="a" unicode="a" horiz-adv-x="679" 
d="M340.381 693.198l288.586 -693.131h-124.213l-47.5166 114.098h-235.154l-47.7744 -114.098h-124.309zM270.154 228.846h139.367l-69.4736 166.837z" />
    <glyph glyph-name="b" unicode="b" horiz-adv-x="599" 
d="M451.007 373.562c77.6182 -45.9932 114.907 -138.18 91.0566 -225.198s-102.941 -147.34 -193.16 -147.32h-298.904v686.824h236.311c74.4941 0.0078125 142.837 -41.335 177.416 -107.325s29.6797 -145.722 -12.7188 -206.98zM164.657 573.194v-171.558l121.652 0.15332
c47.3271 0 85.6934 38.3701 85.6934 85.7021s-38.3662 85.7021 -85.6934 85.7021h-121.652zM348.903 115.675c47.2871 0 85.6211 38.3379 85.6211 85.6309s-38.334 85.6309 -85.6211 85.6309h-184.246v-171.262h184.246z" />
    <glyph glyph-name="c" unicode="c" horiz-adv-x="681" 
d="M551.886 177.837l79.0449 -83.0693c-135.839 -129.262 -350.179 -125.859 -481.849 7.64746s-132.125 347.898 -1.02344 481.964s345.426 138.378 481.813 9.69531l-78.6934 -83.4043c-90.9131 85.7705 -233.771 82.8916 -321.155 -6.47168
s-87.0811 -232.266 0.682617 -321.256s230.632 -91.2617 321.18 -5.10547z" />
    <glyph glyph-name="d" unicode="d" horiz-adv-x="645" 
d="M250.862 687.866c189.935 0 343.907 -154.028 343.907 -343.985s-153.973 -343.947 -343.907 -343.947h-200.862v687.933h200.862zM250.862 114.644c126.611 0 229.25 102.651 229.25 229.276s-102.639 229.275 -229.25 229.275h-86.2041v-458.552h86.2041z" />
    <glyph glyph-name="e" unicode="e" horiz-adv-x="528" 
d="M478.4 573.156l-313.743 -0.000976562v-172.026h265.931v-114.671h-265.931v-171.711h313.743v-114.671h-428.4v687.751h428.4v-114.671z" />
    <glyph glyph-name="f" unicode="f" horiz-adv-x="528" 
d="M478.392 573.156l-313.733 -0.000976562v-172.026h265.931v-114.671h-265.931v-286.42h-114.658v687.789h428.392v-114.671z" />
    <glyph glyph-name="g" unicode="g" horiz-adv-x="699" 
d="M394.379 401.016l254.733 0.000976562v-289.707l-17.8105 -16.9521c-135.936 -129.35 -350.426 -125.941 -482.185 7.66113s-132.21 348.144 -1.01465 482.3s345.669 138.467 482.147 9.69043l-78.6934 -83.3945c-88.8047 83.7754 -227.649 83.3428 -315.931 -0.984375
s-95.0879 -223.021 -15.4883 -315.59s217.734 -106.598 314.315 -31.9229v124.228h-140.074v114.671z" />
    <glyph glyph-name="h" unicode="h" horiz-adv-x="645" 
d="M479.91 687.866h114.658v-687.827h-114.658v286.535h-315.252v-286.535h-114.658v687.827h114.658v-286.621h315.252v286.621z" />
    <glyph glyph-name="i" unicode="i" horiz-adv-x="215" 
d="M164.658 0.0390625h-114.658v687.827h114.658v-687.827z" />
    <glyph glyph-name="j" unicode="j" horiz-adv-x="491" 
d="M326.813 687.866l114.659 0.000976562v-458.446c-0.000976562 -92.7617 -55.873 -176.389 -141.564 -211.886s-184.325 -15.873 -249.908 49.7207l81.082 81.0723c32.792 -32.7939 82.1064 -42.6035 124.95 -24.8555s70.7793 59.5586 70.7812 105.938v458.456z" />
    <glyph glyph-name="k" unicode="k" horiz-adv-x="651" 
d="M272.456 344.139l328.696 -344.062h-158.572l-277.922 290.893v-290.893h-114.658v687.789h114.658v-290.873l274.797 290.873h157.741z" />
    <glyph glyph-name="l" unicode="l" horiz-adv-x="501" 
d="M164.658 114.749l286.646 -0.000976562v-114.671h-401.304v687.789h114.658v-573.117z" />
    <glyph glyph-name="m" unicode="m" horiz-adv-x="731" 
d="M365.31 209.113l315.31 478.819v-687.894h-114.658v305.283l-200.651 -304.71l-200.651 304.71v-305.283h-114.658v687.894z" />
    <glyph glyph-name="n" unicode="n" horiz-adv-x="645" 
d="M480.025 687.866l114.658 -0.000976562v-690.445l-430.025 420.414v-417.795h-114.658v690.245l430.025 -420.404v417.986z" />
    <glyph glyph-name="o" unicode="o" horiz-adv-x="788" 
d="M393.975 687.866c189.887 -0.205078 343.77 -154.105 343.975 -344.014c0 -189.993 -154.003 -344.014 -343.975 -344.014s-343.975 154.021 -343.975 344.014s154.003 344.014 343.975 344.014zM393.976 114.51c126.594 0.131836 229.184 102.734 229.315 229.342
c0 126.662 -102.668 229.342 -229.315 229.342s-229.315 -102.68 -229.315 -229.342s102.668 -229.342 229.315 -229.342z" />
    <glyph glyph-name="p" unicode="p" horiz-adv-x="592" 
d="M346.2 687.866c109.085 -2.38086 196.273 -91.543 196.273 -200.666s-87.1885 -198.246 -196.273 -200.627h-181.542v-286.506h-114.658v687.799h296.2zM346.2 401.282c46.3516 1.5459 83.1279 39.5723 83.1279 85.9551s-36.7764 84.4102 -83.1279 85.9561h-181.542
v-171.911h181.542z" />
    <glyph glyph-name="q" unicode="q" horiz-adv-x="789" 
d="M738.942 343.308c0.0742188 -84.874 -31.3135 -166.763 -88.0957 -229.839h63.0615v-114.671h-319.447c-190.245 0.00488281 -344.465 154.25 -344.461 344.517s154.229 344.506 344.475 344.504s344.468 -154.244 344.468 -344.511zM394.472 113.468
c126.865 0.136719 229.671 102.959 229.823 229.839c0 126.936 -102.889 229.838 -229.81 229.84s-229.812 -102.897 -229.816 -229.833s102.882 -229.841 229.803 -229.846z" />
    <glyph glyph-name="r" unicode="r" horiz-adv-x="636" 
d="M386.168 290.597l199.934 -290.521h-139.186l-197.154 286.497h-85.1045v-286.468h-114.658v687.76h296.2c102.928 -0.147461 189.051 -78.1611 199.355 -180.584s-58.5518 -196.032 -159.387 -216.685zM164.638 401.244l181.542 0.0380859
c31.3887 -1.04688 60.8516 15.1035 76.8564 42.1289s16.0049 60.6279 0 87.6533s-45.4678 43.1758 -76.8564 42.1289h-181.542v-171.949z" />
    <glyph glyph-name="s" unicode="s" horiz-adv-x="514" 
d="M339.384 377.164c74.6523 -28.2783 124.127 -99.6826 124.385 -179.52v-3.28711c-0.121094 -105.838 -85.8828 -191.604 -191.709 -191.721h-30.3271c-93.2207 -0.196289 -173.004 66.8525 -188.87 158.725l112.967 19.6377
c6.40234 -36.8916 38.4639 -63.7949 75.9033 -63.6904h30.3271c42.5303 0.0478516 76.9971 34.5146 77.0498 77.0498v3.28711c-0.100586 32.0879 -19.9863 60.7861 -49.9922 72.1475l-124.72 46.8242c-86.7793 32.5527 -137.846 122.532 -121.304 213.737
s95.9551 157.515 188.638 157.512h30.3271c73.1592 0.275391 140.021 -41.3545 172.063 -107.132l-102.867 -50.6465c-12.8809 26.4609 -39.7695 43.2119 -69.1953 43.1074h-30.3271c-37.2617 0.0214844 -69.1982 -26.6309 -75.8477 -63.2988
s13.8936 -72.8398 48.7891 -85.9082z" />
    <glyph glyph-name="t" unicode="t" horiz-adv-x="520" 
d="M50 687.828h420.471v-114.671h-152.906v-573.117h-114.658v573.117h-152.906v114.671z" />
    <glyph glyph-name="u" unicode="u" horiz-adv-x="609" 
d="M444.166 687.866h114.658v-434.021c0 -140.524 -113.904 -254.441 -254.412 -254.441s-254.412 113.917 -254.412 254.441v434.021h114.658v-434.021c0 -77.1924 62.5703 -139.77 139.754 -139.77s139.754 62.5771 139.754 139.77v434.021z" />
    <glyph glyph-name="v" unicode="v" horiz-adv-x="678" 
d="M503.482 687.866h124.328l-289.798 -691.697l-288.012 691.697h124.193l164.143 -394.202z" />
    <glyph glyph-name="w" unicode="w" horiz-adv-x="1018" 
d="M844.218 687.866l124.154 0.000976562l-287.82 -692.997l-170.793 404.054l-175.093 -402.859l-284.667 691.803h123.993l163.569 -397.489l172.752 397.489h1.78711l167.516 -396.295z" />
    <glyph glyph-name="x" unicode="x" horiz-adv-x="694" 
d="M644.254 687.866l-228.324 -343.985l228.208 -343.804h-137.618l-159.394 240.141l-159.394 -240.141h-137.618l228.208 343.804l-228.322 343.985h137.618l159.509 -240.312l159.509 240.312h137.618z" />
    <glyph glyph-name="y" unicode="y" horiz-adv-x="647" 
d="M463.333 687.866h134.083l-216.273 -356.848v-331.353h-114.658v328.801l-216.484 359.399h133.854l139.31 -231.282z" />
    <glyph glyph-name="y" unicode="&#xff;" horiz-adv-x="647" 
d="M463.333 687.866h134.083l-216.273 -356.848v-331.353h-114.658v328.801l-216.484 359.399h133.854l139.31 -231.282z" />
    <glyph glyph-name="z" unicode="z" horiz-adv-x="628" 
d="M246.782 114.749h331.573v-114.671h-528.354l324.798 573.079h-312.453v114.671h509.234z" />
    <glyph glyph-name="braceleft" unicode="{" horiz-adv-x="405" 
d="M354.57 573.48l-113.062 -0.000976562v-458.628h113.062v-114.671h-227.721v286.755h-76.8496v114.671h76.8496v286.545h227.721v-114.671z" />
    <glyph glyph-name="verticalbar" unicode="|" horiz-adv-x="215" 
d="M164.658 -3.0293h-114.658v689.003h114.658v-689.003z" />
    <glyph glyph-name="braceright" unicode="}" horiz-adv-x="404" 
d="M279.316 401.607l74.3848 0.000976562v-114.671h-74.3848v-286.545h-229.316v114.671h114.658v458.418h-114.658v114.671h229.316v-286.545z" />
    <glyph glyph-name="asciitilde" unicode="~" horiz-adv-x="542" 
d="M376.805 401.512h114.729v-36.2549c-0.0683594 -78.0801 -63.3408 -141.359 -141.412 -141.428h-6.04785c-38.1221 0.0878906 -74.6123 15.4814 -101.281 42.7256l-32.2666 33.1396c-7.59766 7.75488 -19.127 10.1494 -29.1836 6.06152
s-16.6465 -13.8486 -16.6797 -24.7051v-33.2734h-114.658v33.2734c-0.00195312 57.5215 34.8418 109.31 88.1211 130.974s114.371 8.88477 154.503 -32.3193l32.2666 -33.1309c5.0332 -5.13965 11.916 -8.04785 19.1094 -8.07422h6.04785
c14.7754 0 26.7529 11.9795 26.7529 26.7568v36.2549z" />
    <glyph glyph-name="nonbreakingspace" unicode="&#xa0;" horiz-adv-x="271" 
 />
    <glyph glyph-name="exclamdown" unicode="&#xa1;" horiz-adv-x="232" 
d="M116.091 557.188c-36.501 0 -66.0908 29.5938 -66.0908 66.0986s29.5898 66.0986 66.0908 66.0986s66.0908 -29.5938 66.0908 -66.0986s-29.5898 -66.0986 -66.0908 -66.0986zM173.42 0.984375h-114.658v519.977h114.658v-519.977z" />
    <glyph glyph-name="cent" unicode="&#xa2;" horiz-adv-x="683" 
d="M553.888 175.724l79.0283 -83.0771c-58.9072 -56.2246 -135.88 -89.6777 -217.172 -94.3848v-81.7324h-76.4385v85.6406c-166.817 27.2617 -289.305 171.405 -289.305 340.454s122.487 313.192 289.305 340.454v91.1064h76.4385v-87.2168
c80.792 -4.68652 157.333 -37.7578 216.121 -93.3809l-78.6934 -83.4043c-91.3594 86.1953 -234.923 83.3037 -322.738 -6.50098s-87.5078 -233.413 0.691406 -322.841s231.773 -91.7041 322.763 -5.11719z" />
    <glyph glyph-name="sterling" unicode="&#xa3;" horiz-adv-x="578" 
d="M262.634 114.222l264.993 -0.0107422v-114.671h-477.627v114.671h51.7393c29.0371 0 54.5195 23.4697 54.5195 50.2266v144.629h-106.26v76.4473h106.26v87.6758c-0.0195312 86.7236 52.21 164.915 132.324 198.101s172.328 14.8262 233.627 -46.5137l-81.0732 -81.082
c-28.5088 28.5176 -71.3877 37.0508 -108.641 21.6191s-61.542 -51.7881 -61.54 -92.1143v-87.6758h107.119v-76.4473h-107.081v-144.629c-0.00976562 -17.0879 -2.83398 -34.0566 -8.36035 -50.2256z" />
    <glyph glyph-name="currency" unicode="&#xa4;" horiz-adv-x="381" 
d="M309.061 346.345c-0.0175781 -21.084 -5.69629 -41.7764 -16.4434 -59.915l38.3057 -38.3096l-40.541 -40.5361l-37.8848 37.8984c-37.9854 -23.6074 -86.0752 -23.6074 -124.061 0l-37.8945 -37.8984l-40.5312 40.5361l38.2959 38.2715
c-21.9141 36.9609 -21.9141 82.9365 0 119.897l-38.3057 38.3096l40.541 40.5361l37.8848 -37.8896c37.9873 23.6113 86.082 23.6113 124.069 0l37.8848 37.8896l40.541 -40.5361l-38.2959 -38.3096c10.749 -18.1484 16.4248 -38.8516 16.4346 -59.9443zM190.456 285.072
c33.8213 0.0371094 61.2383 27.4463 61.2754 61.2705c0.00390625 24.7871 -14.9229 47.1357 -37.8193 56.624s-49.2539 4.24805 -66.7803 -13.2773s-22.7705 -43.8848 -13.2871 -66.7852s31.8271 -37.832 56.6113 -37.832z" />
    <glyph glyph-name="yen" unicode="&#xa5;" horiz-adv-x="646" 
d="M595.83 687.693l-181.304 -302.168h81.9619v-76.4473h-116.244v-42.9639h116.244v-76.4473h-116.244v-189.303h-114.658v189.303h-116.254v76.4473h116.254v42.9639h-116.254v76.4473h81.9619l-181.294 302.168h133.72l139.195 -231.989l139.186 231.989h133.729z" />
    <glyph glyph-name="section" unicode="&#xa7;" horiz-adv-x="447" 
d="M397.208 343.363c0 -47.1826 -19.2725 -92.3174 -53.3525 -124.944c32.9326 -51.2812 29.7246 -117.808 -7.99023 -165.682s-101.637 -66.5605 -159.195 -46.5381s-96.0879 74.3477 -95.9561 135.295h114.658c0 -15.6006 12.6455 -28.2471 28.2441 -28.2471
s28.2441 12.6465 28.2441 28.2471s-12.6455 28.2471 -28.2441 28.2471c-70.8271 -0.0888672 -134.588 42.9141 -161.052 108.619s-10.3096 140.902 40.8037 189.938c-32.9326 51.2812 -29.7246 117.808 7.99023 165.682s101.637 66.5605 159.195 46.5381
s96.0879 -74.3477 95.9561 -135.295h-114.658c0 11.4258 -6.88281 21.7266 -17.4385 26.0986s-22.7051 1.95312 -30.7822 -6.12793s-10.4912 -20.2324 -6.11621 -30.7871s14.6768 -17.4346 26.1016 -17.4307c95.8262 -0.110352 173.481 -77.7744 173.592 -173.612z
M223.616 284.422c32.5293 0.0371094 58.8926 26.4082 58.9346 58.9414c0 32.5527 -26.3857 58.9414 -58.9346 58.9414s-58.9346 -26.3887 -58.9346 -58.9414s26.3857 -58.9414 58.9346 -58.9414z" />
    <glyph glyph-name="copyright" unicode="&#xa9;" horiz-adv-x="463" 
d="M229.182 281.565c21.4043 -0.0371094 41.3418 10.875 52.8486 28.9258l48.252 -30.9609c-28.3477 -44.2686 -82.1973 -64.9424 -132.883 -51.0166s-86.416 59.2119 -88.1719 111.752s30.8721 100.111 80.5146 117.391s104.752 0.24707 135.992 -42.0303l-46.083 -34.0957
c-17.5488 23.7734 -49.3096 32.0703 -76.2412 19.917s-41.7275 -41.459 -35.5166 -70.3486s31.7422 -49.5244 61.2881 -49.5332zM231.543 525.729c100.215 -0.116211 181.426 -81.3359 181.542 -181.562c0 -100.274 -81.2793 -181.562 -181.542 -181.562
s-181.542 81.2881 -181.542 181.562s81.2793 181.562 181.542 181.562zM231.543 181.717c89.667 0.0996094 162.333 72.7725 162.433 162.45c0 89.7188 -72.7236 162.45 -162.433 162.45s-162.433 -72.7314 -162.433 -162.45s72.7236 -162.45 162.433 -162.45z" />
    <glyph glyph-name="guillemotleft" unicode="&#xab;" horiz-adv-x="472" 
d="M249.429 524.334l-75.1494 -179.737l75.1582 -179.757l-105.781 -44.2246l-93.6562 223.981l93.6562 223.981zM346.371 344.597l75.1582 -179.757l-105.781 -44.2246l-93.6475 223.981l93.6475 223.981l105.781 -44.2441z" />
    <glyph glyph-name="softhyphen" unicode="&#xad;" horiz-adv-x="0" 
 />
    <glyph glyph-name="registered" unicode="&#xae;" horiz-adv-x="463" 
d="M231.542 525.729c100.215 -0.116211 181.426 -81.3359 181.542 -181.562c0 -100.274 -81.2793 -181.562 -181.542 -181.562s-181.542 81.2881 -181.542 181.562s81.2793 181.562 181.542 181.562zM345.541 228.617c59.915 59.0596 64.8281 154.099 11.3223 219.022
s-147.723 78.248 -217.13 30.7061s-91.0352 -140.216 -49.8428 -213.574s131.572 -103.124 208.287 -68.5967l-52.4365 68.9365h-28.5781v-46.1172h-57.3291v238.717h97.8125c43.252 0.0371094 81.21 -28.8027 92.7705 -70.4863s-6.11914 -85.958 -43.21 -108.209z
M296.602 361.445c-0.0107422 21.5166 -17.4404 38.9326 -38.9551 38.959h-40.4834v-77.9287h40.4834c21.5068 0.0263672 38.9336 17.46 38.9551 38.9697z" />
    <glyph glyph-name="plusminus" unicode="&#xb1;" horiz-adv-x="444" 
d="M393.975 19.1973h-343.975v114.671h343.975v-114.671zM279.316 401.607h114.658v-114.671h-114.658v-114.776h-114.658v114.776h-114.658v114.671h114.658v111.384h114.658v-111.384z" />
    <glyph glyph-name="mu" unicode="&#xb5;" horiz-adv-x="472" 
d="M306.91 514.95h114.656v-218.917c0.000976562 -62.0625 -30.9805 -120.027 -82.5801 -154.503s-117.003 -40.9102 -174.33 -17.1504v-128.222h-114.658v518.792h114.658v-218.927c0 -39.2861 31.8447 -71.1338 71.127 -71.1338s71.127 31.8477 71.127 71.1338v218.927z
" />
    <glyph glyph-name="paragraph" unicode="&#xb6;" horiz-adv-x="709" 
d="M343.475 688.171l314.947 0.000976562v-114.671h-59.7178v-570.165h-114.658v570.165h-30.5088v-570.165h-114.658v97.7568c-161.138 2.59961 -290.043 134.646 -288.781 295.818s132.219 291.184 293.377 291.26zM338.879 215.889v357.393
c-97.0703 -2.24512 -174.592 -81.5889 -174.592 -178.696s77.5215 -176.451 174.592 -178.696z" />
    <glyph glyph-name="guillemotright" unicode="&#xbb;" horiz-adv-x="472" 
d="M327.884 568.578l93.6475 -223.981l-93.6475 -223.981l-105.781 44.2246l75.1484 179.757l-75.1484 179.737zM155.792 568.578l93.6475 -223.981l-93.6475 -223.981l-105.791 44.2246l75.1582 179.757l-75.1484 179.737z" />
    <glyph glyph-name="questiondown" unicode="&#xbf;" horiz-adv-x="578" 
d="M413.145 266.61l114.613 -0.0117188v-29.5752c-0.125977 -65.5117 -27.0273 -128.124 -74.4609 -173.306c-44.2051 -42.2568 -103.05 -65.7598 -164.2 -65.582c-4.30566 0 -8.63086 0.111328 -12.9756 0.333984c-116.264 6.10645 -219.638 109.492 -225.733 225.769
c-3.73926 65.5527 19.8818 129.719 65.2305 177.196c31.457 33.043 71.6816 56.4326 115.957 67.4268v52.0898h114.658v-159.708h-57.3291c-34.1133 -0.00488281 -66.7227 -14.04 -90.1777 -38.8135s-35.6904 -58.1035 -33.835 -92.1699
c3.05762 -58.3203 58.9629 -114.213 117.247 -117.262c34.0703 -1.86621 67.4082 10.3672 92.1875 33.8281s38.8174 56.083 38.8184 90.209v29.5752zM289.441 557.186c-36.501 0 -66.0908 29.5938 -66.0908 66.0986s29.5898 66.0986 66.0908 66.0986
s66.0908 -29.5938 66.0908 -66.0986s-29.5898 -66.0986 -66.0908 -66.0986z" />
    <glyph glyph-name="Agrave" unicode="&#xc0;" 
d="M340.726 704.54l288.957 -704.636h-123.917l-46.8184 114.098h-237.829l-47.0771 -114.098h-124.041zM268.424 228.654h143.494l-71.5273 174.443zM408.803 763.434l-11.8096 -17.2959l-140.112 101.369l30.9287 36.418z" />
    <glyph glyph-name="Aacute" unicode="&#xc1;" 
d="M340.716 704.54l288.977 -704.636h-123.927l-46.8184 114.098h-237.839l-47.0771 -114.098h-124.031zM268.414 228.654h143.494l-71.5273 174.443zM424.769 847.507l-140.112 -101.369l-11.8096 17.2959l120.993 120.491z" />
    <glyph glyph-name="Acircumflex" unicode="&#xc2;" 
d="M340.696 704.54l288.986 -704.646h-123.917l-46.8184 114.098h-237.829l-47.0771 -114.098h-124.041zM268.395 228.654h143.494l-71.5273 174.443zM338.746 811.901l-91.3066 -53.9424l-5.30273 4.89258l95.8926 116.314l100.097 -115.952l-4.57715 -5.60938z" />
    <glyph glyph-name="Atilde" unicode="&#xc3;" 
d="M340.726 704.54l288.957 -704.636h-123.917l-46.8184 114.098h-237.829l-47.0771 -114.098h-124.041zM268.424 228.654h143.494l-71.5273 174.443zM273.392 782.297l-45.9482 -3.60156c-10.3838 36.3359 10.6494 74.2109 46.9805 84.5986l1.60547 0.458984
c36.3271 10.3467 74.1729 -10.6689 84.5986 -46.9766c3.14648 -10.9521 14.5625 -17.291 25.5215 -14.1719l1.61523 0.458984c5.27246 1.49316 9.72754 5.03418 12.373 9.83301c2.69336 8.14062 3.31055 16.8252 1.7959 25.2656l45.9395 3.56445
c10.3838 -36.3359 -10.6494 -74.2109 -46.9805 -84.5986l-1.60547 -0.458984c-6.15039 -1.76953 -12.5186 -2.66992 -18.9189 -2.67578c-30.5137 0.0917969 -57.29 20.3496 -65.6797 49.6904c-3.15137 10.9482 -14.5635 17.2852 -25.5215 14.1709l-1.60547 -0.458984
c-5.27246 -1.49316 -9.72852 -5.03418 -12.374 -9.83301c-2.69336 -8.14062 -3.31055 -16.8252 -1.7959 -25.2656z" />
    <glyph glyph-name="Adieresis" unicode="&#xc4;" 
d="M340.696 704.54l288.986 -704.646h-123.917l-46.8184 114.098h-237.829l-47.0771 -114.098h-124.041zM268.395 228.654h143.494l-71.5273 174.443zM290.676 762.679c-16.749 0 -30.3271 13.5791 -30.3271 30.3301s13.5781 30.3301 30.3271 30.3301
s30.3271 -13.5791 30.3271 -30.3301s-13.5781 -30.3301 -30.3271 -30.3301zM386.521 762.679c-16.749 0 -30.3271 13.5791 -30.3271 30.3301s13.5781 30.3301 30.3271 30.3301s30.3271 -13.5791 30.3271 -30.3301s-13.5781 -30.3301 -30.3271 -30.3301z" />
    <glyph glyph-name="Aring" unicode="&#xc5;" 
d="M354.914 669.843l274.77 -669.946h-123.917l-46.8184 114.098h-237.839l-47.0771 -114.098h-124.031l276.25 669.709c-51.3428 7.08496 -88.5059 52.6123 -85.1709 104.34s46.0361 92.1045 97.8633 92.5361s95.1953 -39.2285 99.3916 -90.8936
s-32.2031 -97.8057 -83.4209 -105.745zM279.098 767.506c0.0419922 -33.5098 27.1963 -60.6621 60.7021 -60.6992c24.5527 0 46.6875 14.792 56.082 37.4785s4.19922 48.7988 -13.1631 66.1611s-43.4727 22.5537 -66.1553 13.1543s-37.4697 -31.5391 -37.4658 -56.0947z
M268.387 228.676h143.504l-71.5371 174.443z" />
    <glyph glyph-name="AE" unicode="&#xc6;" horiz-adv-x="916" 
d="M866.185 573.021l-313.733 -0.000976562v-172.064h265.931v-114.671h-265.931v-171.721h313.733v-114.671h-428.392v114.098h-219.475l-45.0605 -114.098h-123.258l271.559 687.799h544.626v-114.671zM437.793 228.71l0.0195312 344.311h-38.2197l-135.994 -344.311
h174.194z" />
    <glyph glyph-name="Ccedilla" unicode="&#xc7;" horiz-adv-x="682" 
d="M430.779 -38.7783c43.5986 -9.00586 73.3389 -49.5479 68.8799 -93.8477s-41.6748 -78.0635 -86.1934 -78.1973h-53.918v76.4473h53.918c5.77051 0 10.4482 4.67871 10.4482 10.4502s-4.67773 10.4502 -10.4482 10.4502h-70.123l15.5459 113.065
c-149.455 15.5215 -271.604 126.146 -301.827 273.35s38.4531 297.016 169.699 370.183s294.771 52.8027 404.067 -50.3193l-78.6934 -83.4043c-91.1396 85.9854 -234.354 83.1006 -321.958 -6.48535s-87.2998 -232.846 0.682617 -322.06s231.208 -91.4912 321.982 -5.12012
l79.0469 -83.0508c-53.5547 -51.1201 -122.226 -83.5166 -195.73 -92.3389z" />
    <glyph glyph-name="Egrave" unicode="&#xc8;" horiz-adv-x="528" 
d="M478.392 572.983l-313.733 -0.000976562v-172.026h265.931v-114.671h-265.931v-171.711h313.733v-114.671h-428.392v687.751h428.392v-114.671zM344.137 763.433l-11.8193 -17.2959l-140.112 101.369l30.9482 36.418z" />
    <glyph glyph-name="Eacute" unicode="&#xc9;" horiz-adv-x="528" 
d="M478.392 572.983l-313.733 -0.000976562v-172.026h265.931v-114.671h-265.931v-171.711h313.733v-114.671h-428.392v687.751h428.392v-114.671zM360.103 847.506l-140.112 -101.369l-11.8193 17.2959l120.983 120.491z" />
    <glyph glyph-name="Ecircumflex" unicode="&#xca;" horiz-adv-x="528" 
d="M478.392 572.983l-313.733 -0.000976562v-172.026h265.931v-114.671h-265.931v-171.711h313.733v-114.671h-428.392v687.751h428.392v-114.671zM262.815 811.9l-91.3066 -53.9424l-5.30273 4.89258l95.8828 116.314l100.106 -115.952l-4.58594 -5.60938z" />
    <glyph glyph-name="Edieresis" unicode="&#xcb;" horiz-adv-x="528" 
d="M478.4 572.983l-313.743 -0.000976562v-172.026h265.931v-114.671h-265.931v-171.711h313.743v-114.671h-428.4v687.751h428.4v-114.671zM235.583 762.678c-16.749 0 -30.3271 13.5791 -30.3271 30.3301s13.5781 30.3301 30.3271 30.3301
s30.3271 -13.5791 30.3271 -30.3301s-13.5781 -30.3301 -30.3271 -30.3301zM331.428 762.678c-16.749 0 -30.3271 13.5791 -30.3271 30.3301s13.5781 30.3301 30.3271 30.3301s30.3271 -13.5791 30.3271 -30.3301s-13.5781 -30.3301 -30.3271 -30.3301z" />
    <glyph glyph-name="Igrave" unicode="&#xcc;" horiz-adv-x="252" 
d="M183.3 -0.334961h-114.658v688.027h114.658v-688.027zM80.9385 883.924l121.003 -120.491l-11.8193 -17.2959l-140.122 101.369z" />
    <glyph glyph-name="Iacute" unicode="&#xcd;" horiz-adv-x="252" 
d="M183.29 -0.334961h-114.658v688.027h114.658v-688.027zM170.983 883.924l30.9385 -36.418l-140.103 -101.369l-11.8193 17.2959z" />
    <glyph glyph-name="Icircumflex" unicode="&#xce;" horiz-adv-x="296" 
d="M205.323 -0.334961h-114.658v688.027h114.658v-688.027zM145.883 879.165l100.105 -115.951l-4.58594 -5.60938l-94.7939 54.2969l-91.3057 -53.9434l-5.30273 4.89258z" />
    <glyph glyph-name="Idieresis" unicode="&#xcf;" horiz-adv-x="256" 
d="M181.561 -0.334961h-114.658v688.027h114.658v-688.027zM80.3271 762.679c-16.749 0 -30.3271 13.5791 -30.3271 30.3301s13.5781 30.3301 30.3271 30.3301s30.3271 -13.5791 30.3271 -30.3301s-13.5781 -30.3301 -30.3271 -30.3301zM176.172 762.679
c-16.749 0 -30.3271 13.5791 -30.3271 30.3301s13.5781 30.3301 30.3271 30.3301s30.3271 -13.5791 30.3271 -30.3301s-13.5781 -30.3301 -30.3271 -30.3301z" />
    <glyph glyph-name="Eth" unicode="&#xd0;" horiz-adv-x="731" 
d="M337.391 687.693c189.756 0 343.583 -153.845 343.583 -343.622s-153.827 -343.622 -343.583 -343.622h-200.651v306.277h-86.7393v76.4473h86.7393v304.52h200.651zM337.391 115.12c126.432 0 228.925 102.504 228.925 228.95s-102.493 228.951 -228.925 228.951
h-85.9932v-189.886h85.21v-76.4473h-85.21v-191.568h85.9932z" />
    <glyph glyph-name="Ntilde" unicode="&#xd1;" horiz-adv-x="645" 
d="M480.025 687.693l114.658 -0.000976562v-690.445l-430.025 420.414v-417.795h-114.658v690.245l430.025 -420.404v417.986zM245.75 782.296l-45.9492 -3.60156c-10.3838 36.3359 10.6494 74.2109 46.9805 84.5986l1.60547 0.458984
c36.3271 10.3467 74.1729 -10.6689 84.5986 -46.9766c3.14648 -10.9521 14.5625 -17.291 25.5215 -14.1719l1.61523 0.458984c5.27246 1.49316 9.72754 5.03418 12.373 9.83301c2.69336 8.14062 3.31055 16.8252 1.7959 25.2656l45.9395 3.56445
c10.3838 -36.3359 -10.6494 -74.2109 -46.9805 -84.5986l-1.60547 -0.458984c-6.15039 -1.76953 -12.5186 -2.66992 -18.9189 -2.67578c-30.5137 0.0917969 -57.29 20.3496 -65.6797 49.6904c-3.15137 10.9482 -14.5635 17.2852 -25.5215 14.1709l-1.60547 -0.458984
c-5.27246 -1.49316 -9.72754 -5.03418 -12.373 -9.83301c-2.69336 -8.14062 -3.31055 -16.8252 -1.7959 -25.2656z" />
    <glyph glyph-name="Ograve" unicode="&#xd2;" horiz-adv-x="789" 
d="M394.376 688.496c190.104 -0.21582 344.16 -154.289 344.376 -344.415c0 -190.215 -154.183 -344.415 -344.376 -344.415s-344.376 154.2 -344.376 344.415s154.183 344.415 344.376 344.415zM394.377 114.337c126.809 0.147461 229.569 102.921 229.717 229.744
c0 126.884 -102.848 229.743 -229.717 229.743s-229.717 -102.859 -229.717 -229.743s102.848 -229.744 229.717 -229.744zM449.259 763.434l-11.8193 -17.2959l-140.112 101.369l30.9385 36.418z" />
    <glyph glyph-name="Oacute" unicode="&#xd3;" horiz-adv-x="789" 
d="M394.376 688.496c190.104 -0.21582 344.16 -154.289 344.376 -344.415c0 -190.215 -154.183 -344.415 -344.376 -344.415s-344.376 154.2 -344.376 344.415s154.183 344.415 344.376 344.415zM394.377 114.337c126.811 0.142578 229.574 102.919 229.717 229.744
c0 126.884 -102.848 229.743 -229.717 229.743s-229.717 -102.859 -229.717 -229.743s102.848 -229.744 229.717 -229.744zM487.898 847.507l-140.112 -101.369l-11.8291 17.2959l121.003 120.491z" />
    <glyph glyph-name="Ocircumflex" unicode="&#xd4;" horiz-adv-x="789" 
d="M394.376 688.496c190.104 -0.21582 344.16 -154.289 344.376 -344.415c0 -190.215 -154.183 -344.415 -344.376 -344.415s-344.376 154.2 -344.376 344.415s154.183 344.415 344.376 344.415zM394.377 114.337c126.809 0.147461 229.569 102.921 229.717 229.744
c0 126.884 -102.848 229.743 -229.717 229.743s-229.717 -102.859 -229.717 -229.743s102.848 -229.744 229.717 -229.744zM400.807 811.901l-91.3066 -53.9424l-5.30273 4.89258l95.8926 116.314l100.097 -115.952l-4.58594 -5.60938z" />
    <glyph glyph-name="Otilde" unicode="&#xd5;" horiz-adv-x="788" 
d="M393.859 688.496c189.819 -0.21582 343.644 -154.059 343.859 -343.899c0 -189.931 -153.951 -343.899 -343.859 -343.899s-343.859 153.969 -343.859 343.899s153.951 343.899 343.859 343.899zM393.858 115.369c126.521 0.142578 229.053 102.682 229.2 229.218
c0.00390625 92.7148 -55.8369 176.303 -141.483 211.786s-184.231 15.874 -249.784 -49.6836s-85.1641 -164.153 -49.6885 -249.812s119.052 -141.509 211.756 -141.509zM333.633 782.297l-45.9492 -3.60156c-10.3838 36.3359 10.6494 74.2109 46.9805 84.5986
l1.60547 0.458984c36.3271 10.3467 74.1729 -10.6689 84.5986 -46.9766c3.14648 -10.9521 14.5625 -17.291 25.5215 -14.1719l1.61523 0.458984c5.27246 1.49316 9.72754 5.03418 12.373 9.83301c2.69336 8.14062 3.31055 16.8252 1.7959 25.2656l45.9395 3.56445
c10.3838 -36.3359 -10.6494 -74.2109 -46.9805 -84.5986l-1.60547 -0.458984c-6.15039 -1.76953 -12.5186 -2.66992 -18.9189 -2.67578c-30.5137 0.0917969 -57.29 20.3496 -65.6797 49.6904c-3.15137 10.9482 -14.5635 17.2852 -25.5215 14.1709l-1.60547 -0.458984
c-5.27246 -1.49316 -9.72754 -5.03418 -12.373 -9.83301c-2.69336 -8.14062 -3.31055 -16.8252 -1.7959 -25.2656z" />
    <glyph glyph-name="Odieresis" unicode="&#xd6;" horiz-adv-x="789" 
d="M394.376 688.496c190.104 -0.21582 344.16 -154.289 344.376 -344.415c0 -190.215 -154.183 -344.415 -344.376 -344.415s-344.376 154.2 -344.376 344.415s154.183 344.415 344.376 344.415zM394.377 114.337c126.811 0.142578 229.574 102.919 229.717 229.744
c0 126.884 -102.848 229.743 -229.717 229.743s-229.717 -102.859 -229.717 -229.743s102.848 -229.744 229.717 -229.744zM345.397 762.679c-16.749 0 -30.3271 13.5791 -30.3271 30.3301s13.5781 30.3301 30.3271 30.3301s30.3271 -13.5791 30.3271 -30.3301
s-13.5781 -30.3301 -30.3271 -30.3301zM441.242 762.679c-16.749 0 -30.3271 13.5791 -30.3271 30.3301s13.5781 30.3301 30.3271 30.3301s30.3271 -13.5791 30.3271 -30.3301s-13.5781 -30.3301 -30.3271 -30.3301z" />
    <glyph glyph-name="multiply" unicode="&#xd7;" horiz-adv-x="424" 
d="M293.285 343.774l81.082 -81.0908l-81.0732 -81.082l-81.082 81.0918l-81.1396 -81.1494l-81.0732 81.0723l81.1494 81.1582l-81.082 81.082l81.082 81.082l81.0635 -81.082l78.7607 78.7695l81.0732 -81.0918z" />
    <glyph glyph-name="Oslash" unicode="&#xd8;" horiz-adv-x="789" 
d="M656.108 567.775c110.635 -129.104 110.369 -319.671 -0.558594 -448.522s-299.316 -157.375 -443.408 -67.1357l-66.043 -76.7148l-57.9307 49.8916l64.0176 74.3545c-128.634 127.209 -136.853 332.297 -18.8115 469.395s322.054 159.411 466.934 51.0703
l80.1553 93.1035l57.9219 -49.8818zM164.845 344.08c-0.0273438 -58.4619 22.3174 -114.719 62.4502 -157.225l297.92 346.05c-70.2139 48.6982 -161.661 54.3643 -237.348 14.7061s-123.086 -118.076 -123.022 -203.531zM394.572 114.335
c86.458 -0.0478516 165.609 48.4912 204.776 125.578s31.7041 169.645 -19.3076 239.459l-291.767 -338.863c32.7852 -17.2197 69.2666 -26.2031 106.298 -26.1738z" />
    <glyph glyph-name="Ugrave" unicode="&#xd9;" horiz-adv-x="616" 
d="M451.304 688.181h114.656v-429.769c0 -142.495 -115.502 -258.011 -257.98 -258.011s-257.98 115.516 -257.98 258.011v429.769h114.658v-429.769c0 -79.1641 64.168 -143.339 143.323 -143.339s143.323 64.1748 143.323 143.339v429.769zM385.287 763.434
l-11.8193 -17.2959l-140.122 101.369l30.9385 36.418z" />
    <glyph glyph-name="Uacute" unicode="&#xda;" horiz-adv-x="616" 
d="M451.304 688.181h114.656v-429.769c0 -142.495 -115.502 -258.011 -257.98 -258.011s-257.98 115.516 -257.98 258.011v429.769h114.658v-429.769c0 -79.1641 64.168 -143.339 143.323 -143.339s143.323 64.1748 143.323 143.339v429.769zM361.458 847.507
l-140.122 -101.369l-11.8193 17.2959l120.993 120.491z" />
    <glyph glyph-name="Ucircumflex" unicode="&#xdb;" horiz-adv-x="616" 
d="M451.304 688.181h114.656v-429.769c0 -142.495 -115.502 -258.011 -257.98 -258.011s-257.98 115.516 -257.98 258.011v429.769h114.658v-429.769c0 -79.1641 64.168 -143.339 143.323 -143.339s143.323 64.1748 143.323 143.339v429.769zM313.693 811.901
l-91.3076 -53.9424l-5.29297 4.89258l95.8828 116.314l100.106 -115.952l-4.58594 -5.60938z" />
    <glyph glyph-name="Udieresis" unicode="&#xdc;" horiz-adv-x="616" 
d="M451.304 688.181h114.656v-429.769c0 -142.495 -115.502 -258.011 -257.98 -258.011s-257.98 115.516 -257.98 258.011v429.769h114.658v-429.769c0 -79.1641 64.168 -143.339 143.323 -143.339s143.323 64.1748 143.323 143.339v429.769zM256.059 762.679
c-16.749 0 -30.3271 13.5791 -30.3271 30.3301s13.5781 30.3301 30.3271 30.3301s30.3271 -13.5791 30.3271 -30.3301s-13.5781 -30.3301 -30.3271 -30.3301zM351.903 762.679c-16.749 0 -30.3271 13.5791 -30.3271 30.3301s13.5781 30.3301 30.3271 30.3301
s30.3271 -13.5791 30.3271 -30.3301s-13.5781 -30.3301 -30.3271 -30.3301z" />
    <glyph glyph-name="Yacute" unicode="&#xdd;" horiz-adv-x="647" 
d="M462.846 687.693h134.073l-216.016 -356.437v-331.353h-114.658v328.791l-216.245 358.998h133.863l139.062 -230.871zM420.059 847.507l-140.122 -101.369l-11.8193 17.2959l121.003 120.491z" />
    <glyph glyph-name="Thorn" unicode="&#xde;" horiz-adv-x="444" 
d="M164.658 576.748c126.677 0 229.369 -102.704 229.369 -229.396s-102.692 -229.396 -229.369 -229.396v-117.604h-114.658v687.827h114.658v-111.432zM164.659 462.067v-229.438c63.3506 0 114.706 51.3613 114.706 114.719s-51.3555 114.719 -114.706 114.719z" />
    <glyph glyph-name="agrave" unicode="&#xe0;" 
d="M340.726 704.713l288.957 -704.636h-123.917l-46.8184 114.098h-237.829l-47.0771 -114.098h-124.041zM268.424 228.827h143.494l-71.5273 174.443zM408.803 763.606l-11.8096 -17.2959l-140.112 101.369l30.9287 36.418z" />
    <glyph glyph-name="aacute" unicode="&#xe1;" 
d="M340.716 704.713l288.977 -704.636h-123.927l-46.8184 114.098h-237.839l-47.0771 -114.098h-124.031zM268.414 228.827h143.494l-71.5273 174.443zM424.769 847.68l-140.112 -101.369l-11.8096 17.2959l120.993 120.491z" />
    <glyph glyph-name="acircumflex" unicode="&#xe2;" 
d="M340.696 704.713l288.986 -704.646h-123.917l-46.8184 114.098h-237.829l-47.0771 -114.098h-124.041zM268.395 228.827h143.494l-71.5273 174.443zM338.746 812.074l-91.3066 -53.9424l-5.30273 4.89258l95.8926 116.314l100.097 -115.952l-4.57715 -5.60938z" />
    <glyph glyph-name="atilde" unicode="&#xe3;" 
d="M340.726 704.713l288.957 -704.636h-123.917l-46.8184 114.098h-237.829l-47.0771 -114.098h-124.041zM268.424 228.827h143.494l-71.5273 174.443zM273.392 782.47l-45.9482 -3.60156c-10.3838 36.3359 10.6494 74.2109 46.9805 84.5986l1.60547 0.458984
c36.3271 10.3467 74.1729 -10.6689 84.5986 -46.9766c3.14648 -10.9521 14.5625 -17.291 25.5215 -14.1719l1.61523 0.458984c5.27246 1.49316 9.72754 5.03418 12.373 9.83301c2.69336 8.14062 3.31055 16.8252 1.7959 25.2656l45.9395 3.56445
c10.3838 -36.3359 -10.6494 -74.2109 -46.9805 -84.5986l-1.60547 -0.458984c-6.15039 -1.76953 -12.5186 -2.66992 -18.9189 -2.67578c-30.5137 0.0917969 -57.29 20.3496 -65.6797 49.6904c-3.15137 10.9482 -14.5635 17.2852 -25.5215 14.1709l-1.60547 -0.458984
c-5.27246 -1.49316 -9.72852 -5.03418 -12.374 -9.83301c-2.69336 -8.14062 -3.31055 -16.8252 -1.7959 -25.2656z" />
    <glyph glyph-name="adieresis" unicode="&#xe4;" 
d="M340.696 704.713l288.986 -704.646h-123.917l-46.8184 114.098h-237.829l-47.0771 -114.098h-124.041zM268.395 228.827h143.494l-71.5273 174.443zM290.676 762.852c-16.749 0 -30.3271 13.5791 -30.3271 30.3301s13.5781 30.3301 30.3271 30.3301
s30.3271 -13.5791 30.3271 -30.3301s-13.5781 -30.3301 -30.3271 -30.3301zM386.521 762.852c-16.749 0 -30.3271 13.5791 -30.3271 30.3301s13.5781 30.3301 30.3271 30.3301s30.3271 -13.5791 30.3271 -30.3301s-13.5781 -30.3301 -30.3271 -30.3301z" />
    <glyph glyph-name="aring" unicode="&#xe5;" 
d="M354.914 670.016l274.77 -669.946h-123.917l-46.8184 114.098h-237.839l-47.0771 -114.098h-124.031l276.25 669.709c-51.3428 7.08496 -88.5059 52.6123 -85.1709 104.34s46.0361 92.1045 97.8633 92.5361s95.1953 -39.2285 99.3916 -90.8936
s-32.2031 -97.8057 -83.4209 -105.745zM279.098 767.679c0.0419922 -33.5098 27.1963 -60.6621 60.7021 -60.6992c24.5527 0 46.6875 14.792 56.082 37.4785s4.19922 48.7988 -13.1631 66.1611s-43.4727 22.5537 -66.1553 13.1543s-37.4697 -31.5391 -37.4658 -56.0947z
M268.387 228.849h143.504l-71.5371 174.443z" />
    <glyph glyph-name="ae" unicode="&#xe6;" horiz-adv-x="916" 
d="M866.185 573.195l-313.733 -0.000976562v-172.064h265.931v-114.671h-265.931v-171.721h313.733v-114.671h-428.392v114.098h-219.475l-45.0605 -114.098h-123.258l271.559 687.799h544.626v-114.671zM437.793 228.884l0.0195312 344.311h-38.2197l-135.994 -344.311
h174.194z" />
    <glyph glyph-name="ccedilla" unicode="&#xe7;" horiz-adv-x="682" 
d="M430.779 -38.6055c43.5986 -9.00586 73.3389 -49.5479 68.8799 -93.8477s-41.6748 -78.0635 -86.1934 -78.1973h-53.918v76.4473h53.918c5.77051 0 10.4482 4.67871 10.4482 10.4502s-4.67773 10.4502 -10.4482 10.4502h-70.123l15.5459 113.065
c-149.455 15.5215 -271.604 126.146 -301.827 273.35s38.4531 297.016 169.699 370.183s294.771 52.8027 404.067 -50.3193l-78.6934 -83.4043c-91.1396 85.9854 -234.354 83.1006 -321.958 -6.48535s-87.2998 -232.846 0.682617 -322.06s231.208 -91.4912 321.982 -5.12012
l79.0469 -83.0508c-53.5547 -51.1201 -122.226 -83.5166 -195.73 -92.3389z" />
    <glyph glyph-name="egrave" unicode="&#xe8;" horiz-adv-x="528" 
d="M478.392 573.156l-313.733 -0.000976562v-172.026h265.931v-114.671h-265.931v-171.711h313.733v-114.671h-428.392v687.751h428.392v-114.671zM344.137 763.605l-11.8193 -17.2959l-140.112 101.369l30.9482 36.418z" />
    <glyph glyph-name="eacute" unicode="&#xe9;" horiz-adv-x="528" 
d="M478.392 573.156l-313.733 -0.000976562v-172.026h265.931v-114.671h-265.931v-171.711h313.733v-114.671h-428.392v687.751h428.392v-114.671zM360.103 847.679l-140.112 -101.369l-11.8193 17.2959l120.983 120.491z" />
    <glyph glyph-name="ecircumflex" unicode="&#xea;" horiz-adv-x="528" 
d="M478.392 573.156l-313.733 -0.000976562v-172.026h265.931v-114.671h-265.931v-171.711h313.733v-114.671h-428.392v687.751h428.392v-114.671zM262.815 812.073l-91.3066 -53.9424l-5.30273 4.89258l95.8828 116.314l100.106 -115.952l-4.58594 -5.60938z" />
    <glyph glyph-name="edieresis" unicode="&#xeb;" horiz-adv-x="528" 
d="M478.4 573.156l-313.743 -0.000976562v-172.026h265.931v-114.671h-265.931v-171.711h313.743v-114.671h-428.4v687.751h428.4v-114.671zM235.583 762.851c-16.749 0 -30.3271 13.5791 -30.3271 30.3301s13.5781 30.3301 30.3271 30.3301
s30.3271 -13.5791 30.3271 -30.3301s-13.5781 -30.3301 -30.3271 -30.3301zM331.428 762.851c-16.749 0 -30.3271 13.5791 -30.3271 30.3301s13.5781 30.3301 30.3271 30.3301s30.3271 -13.5791 30.3271 -30.3301s-13.5781 -30.3301 -30.3271 -30.3301z" />
    <glyph glyph-name="igrave" unicode="&#xec;" horiz-adv-x="252" 
d="M183.3 -0.162109h-114.658v688.027h114.658v-688.027zM80.9385 884.097l121.003 -120.491l-11.8193 -17.2959l-140.122 101.369z" />
    <glyph glyph-name="iacute" unicode="&#xed;" horiz-adv-x="252" 
d="M183.29 -0.162109h-114.658v688.027h114.658v-688.027zM170.983 884.097l30.9385 -36.418l-140.103 -101.369l-11.8193 17.2959z" />
    <glyph glyph-name="icircumflex" unicode="&#xee;" horiz-adv-x="296" 
d="M205.323 -0.162109h-114.658v688.027h114.658v-688.027zM145.883 879.338l100.105 -115.951l-4.58594 -5.60938l-94.7939 54.2969l-91.3057 -53.9434l-5.30273 4.89258z" />
    <glyph glyph-name="idieresis" unicode="&#xef;" horiz-adv-x="256" 
d="M181.561 -0.162109h-114.658v688.027h114.658v-688.027zM80.3271 762.852c-16.749 0 -30.3271 13.5791 -30.3271 30.3301s13.5781 30.3301 30.3271 30.3301s30.3271 -13.5791 30.3271 -30.3301s-13.5781 -30.3301 -30.3271 -30.3301zM176.172 762.852
c-16.749 0 -30.3271 13.5791 -30.3271 30.3301s13.5781 30.3301 30.3271 30.3301s30.3271 -13.5791 30.3271 -30.3301s-13.5781 -30.3301 -30.3271 -30.3301z" />
    <glyph glyph-name="eth" unicode="&#xf0;" horiz-adv-x="731" 
d="M337.391 687.866c189.756 0 343.583 -153.845 343.583 -343.622s-153.827 -343.622 -343.583 -343.622h-200.651v306.277h-86.7393v76.4473h86.7393v304.52h200.651zM337.391 115.293c126.432 0 228.925 102.504 228.925 228.95s-102.493 228.951 -228.925 228.951
h-85.9932v-189.886h85.21v-76.4473h-85.21v-191.568h85.9932z" />
    <glyph glyph-name="ntilde" unicode="&#xf1;" horiz-adv-x="645" 
d="M480.025 687.866l114.658 -0.000976562v-690.445l-430.025 420.414v-417.795h-114.658v690.245l430.025 -420.404v417.986zM245.75 782.469l-45.9492 -3.60156c-10.3838 36.3359 10.6494 74.2109 46.9805 84.5986l1.60547 0.458984
c36.3271 10.3467 74.1729 -10.6689 84.5986 -46.9766c3.14648 -10.9521 14.5625 -17.291 25.5215 -14.1719l1.61523 0.458984c5.27246 1.49316 9.72754 5.03418 12.373 9.83301c2.69336 8.14062 3.31055 16.8252 1.7959 25.2656l45.9395 3.56445
c10.3838 -36.3359 -10.6494 -74.2109 -46.9805 -84.5986l-1.60547 -0.458984c-6.15039 -1.76953 -12.5186 -2.66992 -18.9189 -2.67578c-30.5137 0.0917969 -57.29 20.3496 -65.6797 49.6904c-3.15137 10.9482 -14.5635 17.2852 -25.5215 14.1709l-1.60547 -0.458984
c-5.27246 -1.49316 -9.72754 -5.03418 -12.373 -9.83301c-2.69336 -8.14062 -3.31055 -16.8252 -1.7959 -25.2656z" />
    <glyph glyph-name="ograve" unicode="&#xf2;" horiz-adv-x="789" 
d="M394.376 688.669c190.104 -0.21582 344.16 -154.289 344.376 -344.415c0 -190.215 -154.183 -344.415 -344.376 -344.415s-344.376 154.2 -344.376 344.415s154.183 344.415 344.376 344.415zM394.377 114.51c126.809 0.147461 229.569 102.92 229.717 229.743
c0 126.884 -102.848 229.743 -229.717 229.743s-229.717 -102.859 -229.717 -229.743s102.848 -229.743 229.717 -229.743zM449.259 763.605l-11.8193 -17.2959l-140.112 101.369l30.9385 36.418z" />
    <glyph glyph-name="oacute" unicode="&#xf3;" horiz-adv-x="789" 
d="M394.376 688.669c190.104 -0.21582 344.16 -154.289 344.376 -344.415c0 -190.215 -154.183 -344.415 -344.376 -344.415s-344.376 154.2 -344.376 344.415s154.183 344.415 344.376 344.415zM394.377 114.51c126.811 0.142578 229.574 102.918 229.717 229.743
c0 126.884 -102.848 229.743 -229.717 229.743s-229.717 -102.859 -229.717 -229.743s102.848 -229.743 229.717 -229.743zM487.898 847.679l-140.112 -101.369l-11.8291 17.2959l121.003 120.491z" />
    <glyph glyph-name="ocircumflex" unicode="&#xf4;" horiz-adv-x="789" 
d="M394.376 688.669c190.104 -0.21582 344.16 -154.289 344.376 -344.415c0 -190.215 -154.183 -344.415 -344.376 -344.415s-344.376 154.2 -344.376 344.415s154.183 344.415 344.376 344.415zM394.377 114.51c126.809 0.147461 229.569 102.92 229.717 229.743
c0 126.884 -102.848 229.743 -229.717 229.743s-229.717 -102.859 -229.717 -229.743s102.848 -229.743 229.717 -229.743zM400.807 812.073l-91.3066 -53.9424l-5.30273 4.89258l95.8926 116.314l100.097 -115.952l-4.58594 -5.60938z" />
    <glyph glyph-name="otilde" unicode="&#xf5;" horiz-adv-x="788" 
d="M393.859 688.669c189.819 -0.21582 343.644 -154.059 343.859 -343.899c0 -189.931 -153.951 -343.899 -343.859 -343.899s-343.859 153.969 -343.859 343.899s153.951 343.899 343.859 343.899zM393.858 115.542c126.521 0.142578 229.053 102.682 229.2 229.218
c0.00390625 92.7148 -55.8369 176.303 -141.483 211.786s-184.231 15.874 -249.784 -49.6836s-85.1641 -164.153 -49.6885 -249.812s119.052 -141.509 211.756 -141.509zM333.633 782.469l-45.9492 -3.60156c-10.3838 36.3359 10.6494 74.2109 46.9805 84.5986
l1.60547 0.458984c36.3271 10.3467 74.1729 -10.6689 84.5986 -46.9766c3.14648 -10.9521 14.5625 -17.291 25.5215 -14.1719l1.61523 0.458984c5.27246 1.49316 9.72754 5.03418 12.373 9.83301c2.69336 8.14062 3.31055 16.8252 1.7959 25.2656l45.9395 3.56445
c10.3838 -36.3359 -10.6494 -74.2109 -46.9805 -84.5986l-1.60547 -0.458984c-6.15039 -1.76953 -12.5186 -2.66992 -18.9189 -2.67578c-30.5137 0.0917969 -57.29 20.3496 -65.6797 49.6904c-3.15137 10.9482 -14.5635 17.2852 -25.5215 14.1709l-1.60547 -0.458984
c-5.27246 -1.49316 -9.72754 -5.03418 -12.373 -9.83301c-2.69336 -8.14062 -3.31055 -16.8252 -1.7959 -25.2656z" />
    <glyph glyph-name="odieresis" unicode="&#xf6;" horiz-adv-x="789" 
d="M394.376 688.669c190.104 -0.21582 344.16 -154.289 344.376 -344.415c0 -190.215 -154.183 -344.415 -344.376 -344.415s-344.376 154.2 -344.376 344.415s154.183 344.415 344.376 344.415zM394.377 114.51c126.811 0.142578 229.574 102.918 229.717 229.743
c0 126.884 -102.848 229.743 -229.717 229.743s-229.717 -102.859 -229.717 -229.743s102.848 -229.743 229.717 -229.743zM345.397 762.851c-16.749 0 -30.3271 13.5791 -30.3271 30.3301s13.5781 30.3301 30.3271 30.3301s30.3271 -13.5791 30.3271 -30.3301
s-13.5781 -30.3301 -30.3271 -30.3301zM441.242 762.851c-16.749 0 -30.3271 13.5791 -30.3271 30.3301s13.5781 30.3301 30.3271 30.3301s30.3271 -13.5791 30.3271 -30.3301s-13.5781 -30.3301 -30.3271 -30.3301z" />
    <glyph glyph-name="divide" unicode="&#xf7;" horiz-adv-x="444" 
d="M221.987 126.893c-36.501 0 -66.0908 29.5938 -66.0908 66.0986s29.5898 66.0986 66.0908 66.0986s66.0908 -29.5938 66.0908 -66.0986s-29.5898 -66.0986 -66.0908 -66.0986zM221.987 423.318c-36.501 0 -66.0908 29.5938 -66.0908 66.0986
s29.5898 66.0986 66.0908 66.0986s66.0908 -29.5938 66.0908 -66.0986s-29.5898 -66.0986 -66.0908 -66.0986zM393.975 286.936h-343.975v114.671h343.975v-114.671z" />
    <glyph glyph-name="oslash" unicode="&#xf8;" horiz-adv-x="789" 
d="M656.108 567.948c110.635 -129.104 110.369 -319.671 -0.558594 -448.522s-299.316 -157.375 -443.408 -67.1357l-66.043 -76.7148l-57.9307 49.8916l64.0176 74.3545c-128.634 127.209 -136.853 332.297 -18.8115 469.395s322.054 159.411 466.934 51.0703
l80.1553 93.1035l57.9219 -49.8818zM164.845 344.253c-0.0273438 -58.4619 22.3174 -114.718 62.4502 -157.224l297.92 346.049c-70.2139 48.6982 -161.661 54.3643 -237.348 14.7061s-123.086 -118.076 -123.022 -203.531zM394.572 114.509
c86.458 -0.0478516 165.609 48.4912 204.776 125.578s31.7041 169.645 -19.3076 239.459l-291.767 -338.863c32.7852 -17.2197 69.2666 -26.2031 106.298 -26.1738z" />
    <glyph glyph-name="ugrave" unicode="&#xf9;" horiz-adv-x="616" 
d="M451.304 688.354h114.656v-429.769c0 -142.495 -115.502 -258.011 -257.98 -258.011s-257.98 115.516 -257.98 258.011v429.769h114.658v-429.769c0 -79.1641 64.168 -143.339 143.323 -143.339s143.323 64.1748 143.323 143.339v429.769zM385.287 763.606
l-11.8193 -17.2959l-140.122 101.369l30.9385 36.418z" />
    <glyph glyph-name="uacute" unicode="&#xfa;" horiz-adv-x="616" 
d="M451.304 688.354h114.656v-429.769c0 -142.495 -115.502 -258.011 -257.98 -258.011s-257.98 115.516 -257.98 258.011v429.769h114.658v-429.769c0 -79.1641 64.168 -143.339 143.323 -143.339s143.323 64.1748 143.323 143.339v429.769zM361.458 847.68
l-140.122 -101.369l-11.8193 17.2959l120.993 120.491z" />
    <glyph glyph-name="ucircumflex" unicode="&#xfb;" horiz-adv-x="616" 
d="M451.304 688.354h114.656v-429.769c0 -142.495 -115.502 -258.011 -257.98 -258.011s-257.98 115.516 -257.98 258.011v429.769h114.658v-429.769c0 -79.1641 64.168 -143.339 143.323 -143.339s143.323 64.1748 143.323 143.339v429.769zM313.693 812.074
l-91.3076 -53.9424l-5.29297 4.89258l95.8828 116.314l100.106 -115.952l-4.58594 -5.60938z" />
    <glyph glyph-name="udieresis" unicode="&#xfc;" horiz-adv-x="616" 
d="M451.304 688.354h114.656v-429.769c0 -142.495 -115.502 -258.011 -257.98 -258.011s-257.98 115.516 -257.98 258.011v429.769h114.658v-429.769c0 -79.1641 64.168 -143.339 143.323 -143.339s143.323 64.1748 143.323 143.339v429.769zM256.059 762.852
c-16.749 0 -30.3271 13.5791 -30.3271 30.3301s13.5781 30.3301 30.3271 30.3301s30.3271 -13.5791 30.3271 -30.3301s-13.5781 -30.3301 -30.3271 -30.3301zM351.903 762.852c-16.749 0 -30.3271 13.5791 -30.3271 30.3301s13.5781 30.3301 30.3271 30.3301
s30.3271 -13.5791 30.3271 -30.3301s-13.5781 -30.3301 -30.3271 -30.3301z" />
    <glyph glyph-name="yacute" unicode="&#xfd;" horiz-adv-x="647" 
d="M462.846 687.866h134.073l-216.016 -356.437v-331.353h-114.658v328.791l-216.245 358.998h133.863l139.062 -230.871zM420.059 847.68l-140.122 -101.369l-11.8193 17.2959l121.003 120.491z" />
    <glyph glyph-name="thorn" unicode="&#xfe;" horiz-adv-x="444" 
d="M164.658 576.922c126.677 0 229.369 -102.704 229.369 -229.396s-102.692 -229.396 -229.369 -229.396v-117.604h-114.658v687.827h114.658v-111.432zM164.659 462.241v-229.438c63.3506 0 114.706 51.3613 114.706 114.719s-51.3555 114.719 -114.706 114.719z" />
    <glyph glyph-name="Ldot" unicode="&#x13f;" horiz-adv-x="501" 
d="M164.658 114.575l286.646 -0.000976562v-114.671h-401.304v687.789h114.658v-573.117zM296.602 280.303c-36.501 0 -66.0908 29.5938 -66.0908 66.0986s29.5898 66.0986 66.0908 66.0986s66.0908 -29.5938 66.0908 -66.0986s-29.5898 -66.0986 -66.0908 -66.0986z" />
    <glyph glyph-name="ldot" unicode="&#x140;" horiz-adv-x="501" 
d="M164.658 114.749l286.646 -0.000976562v-114.671h-401.304v687.789h114.658v-573.117zM296.602 280.477c-36.501 0 -66.0908 29.5938 -66.0908 66.0986s29.5898 66.0986 66.0908 66.0986s66.0908 -29.5938 66.0908 -66.0986s-29.5898 -66.0986 -66.0908 -66.0986z" />
    <glyph glyph-name="Nacute" unicode="&#x143;" horiz-adv-x="645" 
d="M480.025 687.693l114.658 -0.000976562v-690.445l-430.025 420.414v-417.795h-114.658v690.245l430.025 -420.404v417.986zM421.043 847.506l-140.122 -101.369l-11.8193 17.2959l121.003 120.491z" />
    <glyph glyph-name="nacute" unicode="&#x144;" horiz-adv-x="645" 
d="M480.025 687.866l114.658 -0.000976562v-690.445l-430.025 420.414v-417.795h-114.658v690.245l430.025 -420.404v417.986zM421.043 847.679l-140.122 -101.369l-11.8193 17.2959l121.003 120.491z" />
    <glyph glyph-name="Ncaron" unicode="&#x147;" horiz-adv-x="645" 
d="M480.025 687.693l114.658 -0.000976562v-690.445l-430.025 420.414v-417.795h-114.658v690.245l430.025 -420.404v417.986zM420.26 873.919l-95.8916 -116.315l-100.097 115.952l4.58594 5.60938l94.7939 -54.2969l91.3057 53.9434z" />
    <glyph glyph-name="ncaron" unicode="&#x148;" horiz-adv-x="645" 
d="M480.025 687.866l114.658 -0.000976562v-690.445l-430.025 420.414v-417.795h-114.658v690.245l430.025 -420.404v417.986zM420.26 874.092l-95.8916 -116.315l-100.097 115.952l4.58594 5.60938l94.7939 -54.2969l91.3057 53.9434z" />
    <glyph glyph-name="OE" unicode="&#x152;" horiz-adv-x="896" 
d="M846.023 574.121l-316.266 -0.00195312v-172.532h229.976v-114.671h-229.976v-172.58h316.266v-114.671h-373.595v-0.544922h-77.7764c-190.347 0 -344.653 154.324 -344.653 344.692s154.307 344.692 344.653 344.692h20.4473v0.287109h430.924v-114.671zM415.1 113.79
v460.043h-20.4473c-127.022 0 -229.994 -102.984 -229.994 -230.021s102.972 -230.021 229.994 -230.021h20.4473z" />
    <glyph glyph-name="oe" unicode="&#x153;" horiz-adv-x="896" 
d="M846.023 574.294l-316.266 -0.00195312v-172.532h229.976v-114.671h-229.976v-172.58h316.266v-114.671h-373.595v-0.544922h-77.7764c-190.347 0 -344.653 154.324 -344.653 344.692s154.307 344.692 344.653 344.692h20.4473v0.287109h430.924v-114.671zM415.1 113.963
v460.043h-20.4473c-127.022 0 -229.994 -102.984 -229.994 -230.021s102.972 -230.021 229.994 -230.021h20.4473z" />
    <glyph glyph-name="Racute" unicode="&#x154;" horiz-adv-x="623" 
d="M379.671 280.381l193.009 -280.478h-139.186l-188.68 274.179h-80.1553v-274.179h-114.658v685.782h280.071c103.965 0.0654297 191.626 -77.4805 204.256 -180.687s-53.7451 -199.606 -154.657 -224.618zM164.688 388.754l165.413 -0.000976562
c50.3242 0 91.1201 40.8008 91.1201 91.1309s-40.7959 91.1309 -91.1201 91.1309h-165.413v-182.261zM364.612 847.505l-140.112 -101.369l-11.8193 17.2959l120.993 120.491z" />
    <glyph glyph-name="racute" unicode="&#x155;" horiz-adv-x="623" 
d="M379.671 280.554l193.009 -280.478h-139.186l-188.68 274.179h-80.1553v-274.179h-114.658v685.782h280.071c103.965 0.0654297 191.626 -77.4805 204.256 -180.687s-53.7451 -199.606 -154.657 -224.618zM164.688 388.927l165.413 -0.000976562
c50.3242 0 91.1201 40.8008 91.1201 91.1309s-40.7959 91.1309 -91.1201 91.1309h-165.413v-182.261zM364.612 847.678l-140.112 -101.369l-11.8193 17.2959l120.993 120.491z" />
    <glyph glyph-name="Tcaron" unicode="&#x164;" horiz-adv-x="520" 
d="M50 687.951h420.461v-114.671h-152.906v-573.127h-114.658v573.127h-152.896v114.671zM359.959 873.919l-95.8818 -116.315l-100.097 115.952l4.57715 5.60938l94.8027 -54.2969l91.3057 53.9434z" />
    <glyph glyph-name="tcaron" unicode="&#x165;" horiz-adv-x="520" 
d="M50 688.124h420.461v-114.671h-152.906v-573.127h-114.658v573.127h-152.896v114.671zM359.959 874.092l-95.8818 -116.315l-100.097 115.952l4.57715 5.60938l94.8027 -54.2969l91.3057 53.9434z" />
    <glyph glyph-name="Tbar" unicode="&#x166;" horiz-adv-x="520" 
d="M470.461 573.279h-152.896v-190.145h87.6562v-76.4473h-87.6562v-306.535h-114.658v306.535h-84.293v76.4473h84.293v190.145h-152.906v114.671h420.461v-114.671z" />
    <glyph glyph-name="tbar" unicode="&#x167;" horiz-adv-x="520" 
d="M470.461 573.453h-152.896v-190.145h87.6562v-76.4473h-87.6562v-306.535h-114.658v306.535h-84.293v76.4473h84.293v190.145h-152.906v114.671h420.461v-114.671z" />
    <glyph glyph-name="Omegagreek" unicode="&#x3a9;" horiz-adv-x="658" 
d="M536.17 232.83h71.6553v-114.671h-215.185l-21.0205 110.687c53.2305 20.9326 84.0518 76.7676 73.4004 132.972s-59.7637 96.8877 -116.961 96.8877s-106.31 -40.6836 -116.961 -96.8877s20.1699 -112.039 73.4004 -132.972l-21.0205 -110.687h-213.475v114.671h69.8838
c-50.1982 98.3301 -24.7529 218.379 61.0186 287.883s208.474 69.5039 294.245 0s111.217 -189.553 61.0186 -287.883z" />
    <glyph glyph-name="quoteright" unicode="&#x2019;" horiz-adv-x="215" 
d="M50 689.776h114.658l-47.8027 -172.007h-66.8555v172.007z" />
    <glyph glyph-name="ellipsis" unicode="&#x2026;" horiz-adv-x="576" 
d="M116.091 2.58887c-36.501 0 -66.0908 29.5938 -66.0908 66.0986s29.5898 66.0986 66.0908 66.0986s66.0908 -29.5938 66.0908 -66.0986s-29.5898 -66.0986 -66.0908 -66.0986zM288.183 2.58887c-36.501 0 -66.0908 29.5938 -66.0908 66.0986
s29.5898 66.0986 66.0908 66.0986s66.0908 -29.5938 66.0908 -66.0986s-29.5898 -66.0986 -66.0908 -66.0986zM460.284 2.58887c-36.501 0 -66.0908 29.5938 -66.0908 66.0986s29.5898 66.0986 66.0908 66.0986s66.0908 -29.5938 66.0908 -66.0986
s-29.5898 -66.0986 -66.0908 -66.0986z" />
    <glyph glyph-name="perthousand" unicode="&#x2030;" horiz-adv-x="874" 
d="M269.762 559.204c0 -60.6924 -49.1953 -109.894 -109.881 -109.894s-109.881 49.2012 -109.881 109.894v19.1123c0 60.6924 49.1953 109.894 109.881 109.894s109.881 -49.2012 109.881 -109.894v-19.1123zM126.439 559.204
c0 -18.4717 14.9727 -33.4463 33.4424 -33.4463s33.4424 14.9746 33.4424 33.4463v19.1123c0 18.4717 -14.9727 33.4463 -33.4424 33.4463s-33.4424 -14.9746 -33.4424 -33.4463v-19.1123zM456.282 238.746c60.6592 -0.0634766 109.817 -49.2275 109.881 -109.894v-19.1123
c0 -60.6924 -49.1953 -109.894 -109.881 -109.894s-109.881 49.2012 -109.881 109.894v19.1123c0.0634766 60.666 49.2217 109.83 109.881 109.894zM489.725 109.798v19.1123c0 18.4717 -14.9727 33.4463 -33.4424 33.4463s-33.4424 -14.9746 -33.4424 -33.4463v-19.1123
c0 -18.4717 14.9727 -33.4463 33.4424 -33.4463s33.4424 14.9746 33.4424 33.4463zM714.426 238.746c60.6592 -0.0634766 109.817 -49.2275 109.881 -109.894v-19.1123c0 -60.6924 -49.1953 -109.894 -109.881 -109.894s-109.881 49.2012 -109.881 109.894v19.1123
c0.0634766 60.666 49.2217 109.83 109.881 109.894zM747.868 109.798v19.1123c0 18.4717 -14.9727 33.4463 -33.4424 33.4463s-33.4424 -14.9746 -33.4424 -33.4463v-19.1123c0 -18.4717 14.9727 -33.4463 33.4424 -33.4463s33.4424 14.9746 33.4424 33.4463z
M347.97 687.693h119.732l-206.776 -687.789h-119.723z" />
    <glyph glyph-name="lira" unicode="&#x20a4;" horiz-adv-x="579" 
d="M262.91 112.54l266.111 -0.0117188v-114.671h-479.022v114.671h51.8828c29.2188 0 54.8545 23.6221 54.8545 50.541v83.8916h-106.737v76.4473h106.737v43.002h-106.737v76.4473h106.737v29.8428c-0.00976562 86.8975 52.3232 165.244 132.595 198.504
s172.672 14.8818 234.111 -46.5635l-81.0732 -81.082c-28.6436 28.6484 -71.7227 37.2188 -109.148 21.7148s-61.8271 -52.0283 -61.8262 -92.542v-29.7959h106.642v-76.4473h-106.642v-43.002h106.613v-76.4473h-106.642v-83.958
c-0.0107422 -17.1982 -2.86816 -34.2764 -8.45605 -50.541z" />
    <glyph glyph-name="Euro" unicode="&#x20ac;" horiz-adv-x="788" 
d="M658.796 176.24l78.9531 -83.0469c-87.2031 -82.999 -211.389 -114.478 -327.593 -83.0381s-207.584 121.24 -241.055 236.888h-119.102v76.4473h106.059c-0.363281 6.43066 -0.583008 12.9004 -0.583008 19.4268c0 7.92188 0.373047 15.748 0.898438 23.5361h-106.326
v76.4473h120.267c34.6064 114.275 125.875 202.504 241.247 233.211s238.417 -0.481445 325.239 -82.4385l-78.7031 -83.3945c-53.3398 50.3213 -127.474 72.1924 -199.582 58.8809s-133.55 -60.21 -165.412 -126.26h104.147v-76.4473h-125.866
c-0.795898 -7.82031 -1.19434 -15.6758 -1.19336 -23.5361c0 -6.5459 0.34375 -13.0156 0.878906 -19.4277h126.182v-76.4473h-106.059c30.9482 -67.5518 92.6221 -115.988 165.578 -130.04s148.205 8.01367 202.024 59.2393z" />
    <glyph glyph-name="trademark" unicode="&#x2122;" horiz-adv-x="595" 
d="M50 627.49l0.000976562 57.3359h226.02v-57.3359h-84.3408v-199.451h-57.3291v199.451h-84.3506zM432.242 533.212l113.206 168.462v-273.635h-57.3291v85.5254l-55.4561 -82.5254l-57.3867 83.9014v-86.9014h-57.3291v272.259z" />
    </font>
</defs>
</svg>
