<?xml version="1.0" encoding="UTF-8"?>
<svg id="Layer_1" data-name="Layer 1" xmlns="http://www.w3.org/2000/svg" version="1.1" viewBox="0 0 519 196.4">
  <defs>
    <style>
      .cls-1 {
        fill: #fff;
        stroke-width: 0px;
      }
    </style>
  </defs>
  <g>
    <path class="cls-1" d="M6.2,180.3c-.7-.6-1-1.3-.9-2,0-.7.4-1.3.9-1.8.5-.5,1.1-.8,1.9-.9.8-.1,1.5.1,2.2.8,1.9,1.7,4.2,3,6.8,4,2.6,1,5.2,1.4,7.8,1.2,1,0,1.9-.3,2.8-.7.9-.4,1.7-1,2.2-1.8.7-1,1.1-2,1.3-3.1.2-1.1.3-2.2.4-3.4,0-3.2-.3-6.4-1.1-9.5-.8-3.1-1.5-6.3-2.3-9.4-.8-3.4-1.5-6.8-2-10.3-.5-3.5-.6-6.9-.2-10.4,0-.8.4-1.5.9-2.1.5-.6,1.2-.8,2-.8s1.4.3,2.1.8c.6.6.9,1.2.8,2.1-.4,3.9-.2,7.7.5,11.5.7,3.8,1.5,7.6,2.4,11.4.4,1.7.9,3.4,1.3,5.2.4,1.8.7,3.6,1,5.4.3,1.8.4,3.6.4,5.4,0,1.8-.2,3.6-.5,5.3-.3,1.5-.9,3-1.6,4.3-.7,1.3-1.7,2.5-3,3.4-1.2.9-2.6,1.6-4.1,2-1.5.4-3,.6-4.5.6-3.2,0-6.3-.7-9.4-1.9-3-1.2-5.7-2.9-8.1-5ZM27.6,121.7c-.5-.3-.9-.8-1.2-1.3-.2-.5-.3-1.1-.2-1.7,0-1.2.2-2.1.8-2.6.6-.6,1.3-.8,2.1-.8h.7c.2,0,.4,0,.7.1.1,0,.3,0,.4.1.1,0,.3,0,.4.1.9.3,1.4.7,1.7,1.4.2.3.3.6.4,1,0,.4,0,.8-.1,1.1-.1.4-.3.8-.4,1.1-.2.6-.7,1.1-1.3,1.4-.6.3-1.3.4-1.9.3-.8,0-1.4,0-1.9-.4Z"/>
    <path class="cls-1" d="M43.6,131.7c.9-1.2,2-2.4,3.3-3.3,1.3-1,2.6-1.7,4.1-2.3,1.4-.6,2.9-.8,4.5-.9,1.5,0,3.1.3,4.6.9,1.5.6,2.8,1.4,4,2.3,1.2,1,2.1,2.2,2.8,3.8.5,1.2.8,2.4.9,3.7,0,1.3-.3,2.6-1.1,3.7-.7,1-1.6,1.8-2.6,2.3-1,.5-2.1.9-3.3,1.2-1.2.2-2.4.4-3.6.4s-2.4,0-3.5,0c-1.2,0-2.5-.1-3.7-.3-1.2-.1-2.5-.3-3.7-.4.4,2.2,1.2,4.1,2.3,5.8,1.2,1.7,2.7,3,4.7,3.8.5.2.9.3,1.2.4.1,0,.3,0,.4.1.1,0,.3,0,.4,0,.4,0,.7,0,1,.1.3,0,.5,0,.8,0,.3,0,.6,0,.7-.1.1,0,.3,0,.4-.1.5-.1,1-.3,1.4-.5.4-.2.9-.5,1.5-.9.3-.2.7-.6,1.2-1.1.5-.5.9-.9,1.2-1.3.5-.7,1.1-1.1,1.8-1.4.7-.2,1.4-.1,2.1.3.6.4,1.1,1,1.3,1.8.3.8.2,1.5-.3,2.2-1.4,1.9-3,3.5-4.9,4.8-1.9,1.3-4.1,2-6.5,2.1-2,0-3.9-.3-5.7-1-1.8-.8-3.4-1.9-4.8-3.2-1.7-1.7-3.1-3.6-4.1-5.8-1-2.2-1.6-4.5-1.7-6.8-.4-.3-.8-.8-1-1.3-.2-.5-.3-1-.2-1.5,0-.5.3-1,.5-1.5.3-.5.7-.8,1.3-.9.5-1.8,1.3-3.4,2.5-5ZM60.9,133.4c-.5-.7-1.3-1.3-2.5-1.8-.9-.4-2-.6-3.2-.6s-2.3.2-3.1.6c-1.1.5-2.1,1.3-3,2.2-.9.9-1.6,2-2.1,3.1,1.2.1,2.3.3,3.5.4,1.2.1,2.3.2,3.5.3h1.9c.6,0,1.2,0,1.9,0,.2,0,.4,0,.5,0,.2,0,.3,0,.5,0,.4,0,.8-.2,1-.2.2,0,.4,0,.7-.2.2,0,.4-.1.7-.2.2,0,.4-.2.4-.2,0,0,.1,0,.2-.1l.2-.9c0-.2-.2-.4-.2-.5,0-.2,0-.3-.2-.5,0-.1-.2-.4-.3-.6-.2-.3-.3-.5-.5-.7Z"/>
    <path class="cls-1" d="M81.5,133.4c1.7-1.1,3.6-2,5.6-2.7,2-.8,4-1.1,6.1-1.1-.2-4.1-.3-8.1-.5-12.2-.1-4-.2-8.1-.3-12.2,0-.9.3-1.6.9-2.1.6-.5,1.2-.7,1.9-.7s1.4.2,2,.7c.6.5.9,1.1.9,2.1,0,4.8.2,9.5.4,14.3.2,4.8.4,9.5.6,14.3.2,4.8.3,9.5.4,14.3,0,4.8,0,9.5,0,14.3,0,.9-.4,1.6-1,2.1-.6.5-1.3.7-2,.7s-1.4-.2-1.9-.7c-.6-.5-.8-1.2-.8-2.1v-1c0-.3,0-.7,0-1-.5,0-.9,0-1.4-.1-.5,0-.9,0-1.3,0h-1.7c-.6,0-1.1,0-1.7,0-1.2,0-2.5-.2-3.7-.4-1.2-.1-2.5-.4-3.7-.9-1.2-.5-2.3-1.1-3.4-1.8-1.1-.7-1.9-1.6-2.6-2.8-.8-1.2-1.4-2.5-1.9-3.9-.5-1.4-.7-2.8-.6-4.3,0-1.5.4-2.9,1-4.1.6-1.2,1.3-2.4,2.2-3.5.9-1.1,1.9-2,3-2.9,1.1-.9,2.3-1.7,3.6-2.4ZM93.8,154.7c0-6.4-.1-12.9-.4-19.4-1.6,0-3.2.2-4.7.8-1.6.6-3,1.4-4.3,2.2-.7.4-1.5.9-2.3,1.5-.8.6-1.6,1.2-2.3,1.9-.7.7-1.3,1.5-1.7,2.3-.4.8-.6,1.7-.6,2.7,0,.9.2,1.8.6,2.8.3,1,.8,1.8,1.4,2.4.6.6,1.2,1.1,1.9,1.4.7.3,1.5.6,2.3.8,1,.2,1.9.3,2.8.4.9,0,1.8,0,2.8.1.8,0,1.5,0,2.3.1.8,0,1.6.1,2.4.1Z"/>
    <path class="cls-1" d="M107.3,152.8c0-2.1.1-4.2.4-6.3.3-2.5.7-5.1,1-7.6.3-2.5.5-5.1.4-7.7,0-.9.3-1.6.9-2.1.6-.5,1.2-.7,1.9-.7s1.4.2,2,.7c.6.5.9,1.2.9,2.1,1.9-.1,3.7-.2,5.3-.2,1.9,0,3.6.6,4.9,1.7,1.3,1.1,2.4,2.5,3,4.3.6,1.6.9,3.3,1,5,0,1.7.2,3.5.2,5.2,0,2.5.1,4.9.2,7.3,0,2.4.1,4.9.1,7.3s-.3,1.7-.9,2.1c-.6.5-1.3.7-1.9.7s-1.3-.2-1.9-.7c-.6-.5-.9-1.2-.9-2.1,0-2.3,0-4.6-.1-6.8,0-2.2-.2-4.5-.3-6.8,0-1.2-.1-2.5-.1-3.9,0-1.3,0-2.5-.3-3.6-.1-.7-.3-1.3-.4-1.8-.1-.5-.4-1-.8-1.5,0-.2-.3-.4-.6-.5-.3-.1-.6-.2-.8-.2-.7,0-1.4,0-2,.1-.6,0-1.3.2-1.9.4-.3,0-.6.2-.9.3-.3,0-.6.2-.8.4-.5,1.7-.8,3.4-1,4.9-.2,1.6-.4,3.1-.6,4.7-.1,1.2-.2,2.3-.3,3.5,0,1.2,0,2.3-.1,3.5s-.2,2.3-.4,3.5-.6,2.3-1.1,3.3c-.4.8-1,1.3-1.7,1.4s-1.4,0-2-.4c-.6-.4-1.1-.9-1.4-1.6-.3-.7-.3-1.5.1-2.3.4-.9.7-1.8.7-2.8,0-1,0-2,.1-3Z"/>
    <path class="cls-1" d="M154.4,126.4c1.5-.2,3.1-.3,4.8-.2,1.7,0,3.3.4,4.8.9,1.5.5,2.9,1.3,4.2,2.3,1.2,1,2.2,2.3,2.9,4,.5,1.2.7,2.3.8,3.5,0,1.2-.1,2.3-.5,3.4s-.9,2.1-1.6,3.1c-.7,1-1.5,1.9-2.4,2.7-2,1.8-4.1,3.3-6.5,4.5-2.4,1.2-4.8,2.2-7.4,2.9-1.1.3-2.2.5-3.4.8-1.2.2-2.4.3-3.6.3s-2.4-.1-3.5-.4c-1.2-.3-2.2-.7-3.2-1.3-.7-.4-1.2-1-1.3-1.7-.3-.8-.6-1.6-.9-2.3-.3-.7-.7-1.5-1-2.2-.3-.8-.6-1.5-.8-2.3-.2-.8-.3-1.6-.3-2.4,0-1.6.3-3.2,1-4.6.7-1.5,1.6-2.8,2.8-3.9,2-1.9,4.3-3.5,7-4.6,2.6-1.2,5.3-1.9,8.1-2.3ZM162.6,132.6c-1.3-.5-2.7-.7-4.2-.7-1.6,0-3.2.1-4.8.5-1.6.4-3.1.9-4.5,1.5-1.3.5-2.7,1.3-4.1,2.2-1.4.9-2.5,2.1-3.1,3.4-.4.7-.6,1.5-.5,2.2,0,.7.1,1.5.4,2.2.2.7.5,1.5.9,2.2s.7,1.5,1,2.2c.8.2,1.2.3,1.4.3,0,0,.2,0,.4,0h.4c1,0,1.8,0,2.6,0,.5,0,1.2,0,2-.3,1.2-.2,2.5-.6,3.6-1,1.2-.4,2.2-.9,3.2-1.3,1.1-.5,2.2-1.1,3.2-1.7,1.1-.6,1.9-1.3,2.7-1.9.5-.4.9-.9,1.4-1.4.2-.2.4-.4.5-.6.2-.3.4-.6.6-.8.1-.2.3-.4.4-.6.2-.3.3-.6.3-.8,0,0,0-.2.1-.4,0-.1,0-.3.1-.4v-.8c0-.2,0-.3,0-.4s0-.2,0-.3c-.1-.3-.3-.6-.4-.8-.1-.2-.3-.3-.4-.5,0,0,0,0-.2-.2-.2-.2-.3-.3-.3-.4l-.6-.6c-.2-.1-.5-.3-.8-.5-.3-.2-.6-.3-.9-.4Z"/>
    <path class="cls-1" d="M179,143.7c-1.3-.9-2.1-2.1-2.7-3.4-.5-1.4-.6-2.8,0-4.4.5-1.4,1.2-2.6,2.2-3.7,1-1.1,2.2-2,3.5-2.7,1.4-.8,3-1.4,4.6-1.8,1.6-.4,3.3-.7,5-.7,1.7,0,3.4.1,5,.5,1.7.4,3.2.9,4.7,1.7.8.4,1.3,1,1.4,1.7,0,.7,0,1.4-.4,2-.4.6-.9,1.1-1.6,1.4s-1.5.2-2.3-.2c-1.2-.6-2.5-1-3.9-1.2-1.4-.2-2.9-.2-4.4,0-1.5.2-2.8.5-4.1,1.1s-2.4,1.3-3.2,2.2c-.2.2-.4.4-.5.5,0,0-.2.3-.3.6v.8c0,.4.1.7.2.8,1,.6,2,1,3,1.2,1,.2,2.1.3,3.1.3,1.5,0,3,.2,4.6.3,1.6,0,3.1.3,4.5.6,1.5.3,2.8.9,4.1,1.7,1.2.8,2.3,1.9,3.2,3.4,1,1.7,1.4,3.4,1.3,5.2,0,1.8-.8,3.4-2.1,4.9-1.3,1.4-2.9,2.4-4.7,3-1.8.6-3.6.9-5.4,1.2-1.6.2-3.3.2-5.1.1-1.8,0-3.4-.4-5-.8-1.6-.5-3.1-1.2-4.5-2.1-1.4-.9-2.5-2.2-3.5-3.7-.4-.8-.5-1.5-.2-2.2.3-.7.7-1.2,1.3-1.6.6-.4,1.3-.5,2-.4.7,0,1.4.5,1.8,1.3.7,1.1,1.6,1.9,2.8,2.5,1.2.6,2.5,1,3.9,1.2,1.4.2,2.8.3,4.3.1s2.7-.3,3.9-.5c.6-.1,1.3-.3,1.9-.6.6-.3,1.2-.6,1.7-1,.5-.4.8-.8,1-1.3.2-.5.2-1.1,0-1.7-.5-1.2-1.3-2.1-2.4-2.6-1.1-.5-2.3-.8-3.6-.9-1.2,0-2.5-.1-3.8-.1s-2.6,0-3.9-.2c-1.3-.1-2.6-.3-3.8-.7-1.2-.3-2.4-.9-3.5-1.7Z"/>
    <path class="cls-1" d="M233.3,134.5c.9,0,1.6.3,2.1.9.5.6.7,1.2.7,1.9s-.2,1.4-.7,2c-.5.6-1.1.9-2.1.9-1.2,0-2.3,0-3.4,0-1.1,0-2.2-.2-3.4-.3,0,3.8,0,7.6-.2,11.4-.2,3.8-.6,7.6-1.2,11.3,0,.8-.5,1.4-1.3,1.8-.8.4-1.5.5-2.2.2-.8-.2-1.4-.7-1.7-1.3-.3-.6-.4-1.4-.3-2.2.6-3.7.9-7.3,1-11,0-3.7,0-7.3,0-11-1.8-.3-3.7-.6-5.5-.9-1.9-.3-3.7-.6-5.5-.8-.8,0-1.4-.5-1.8-1.3s-.4-1.5-.3-2.2c.2-.8.7-1.4,1.4-1.7.7-.3,1.4-.4,2.2-.3,1.6.2,3.2.5,4.8.8,1.6.3,3.2.5,4.8.8,0-.2,0-.6,0-1.1,0-4.3,0-8.6,0-12.8,0-4.2.2-8.5.6-12.8,0-.8.4-1.4.9-2,.5-.6,1.2-.9,2-.9s1.4.3,2.1.9c.6.6.9,1.2.8,2-.5,4.6-.7,9.2-.7,13.7,0,4.5,0,9.1.2,13.8,1.2,0,2.3.2,3.5.3,1.2,0,2.3.1,3.5.1Z"/>
    <path class="cls-1" d="M245.2,157.7c-1.6-.7-2.9-1.7-3.9-3-.9-1.3-1.6-2.7-1.9-4.2-.4-1.5-.5-3.1-.3-4.8.1-1.7.5-3.3,1-4.8.4-1.2.9-2.5,1.5-3.7.6-1.3,1.2-2.5,2-3.6.8-1.1,1.7-2.1,2.7-2.8,1.1-.8,2.3-1.3,3.7-1.5,1.5-.2,3-.3,4.5-.3,1.5,0,3,.2,4.5.5.7,0,1.3.3,1.9.5.6.2,1.2.4,1.9.7,0-.7.4-1.3,1-1.8.6-.5,1.2-.7,1.9-.7s1.5.3,2,.8c.5.6.8,1.2.9,2,.2,2.2.3,4.4.3,6.6,0,2.2,0,4.4-.2,6.6-.1,2.2-.2,4.4-.3,6.6,0,2.2,0,4.4,0,6.6,0,.9-.2,1.6-.8,2.1-.6.5-1.3.7-2,.7s-1.4-.2-2-.7-.9-1.1-1-2.1c-2.7,1.2-5.6,1.8-8.7,2-3.1.2-6-.4-8.8-1.6ZM245.7,142.1c-.3.9-.6,1.8-.8,3-.2,1.1-.3,2.2-.2,3.2,0,1,.4,1.9.9,2.8.5.8,1.4,1.4,2.6,1.8,2.5.8,4.9,1,7.4.6,2.5-.3,4.8-1.2,7-2.6.2-2.4.3-4.6.5-6.8.1-2.2.2-4.4.1-6.7-.8-.5-1.6-1-2.5-1.4-.8-.4-1.8-.7-2.8-.8-1-.1-2.1-.3-3.2-.3-1.1,0-2.2,0-3.3,0,0,0-.3,0-.8.2-.4.1-.6.2-.7.3-.5.2-.9.6-1.3,1.2-.6.9-1.2,1.8-1.7,2.8-.5,1-.9,2-1.3,3Z"/>
    <path class="cls-1" d="M280.6,149.2c-.4-1.2-.7-2.5-1-3.8-.3-1.3-.7-2.6-1-3.8-.5-2.1-1.3-4.1-2.4-6.2-.5-1.1-1.1-2.1-1.6-3.2-.5-1.1-.9-2.2-1.2-3.4-.2-.9,0-1.7.5-2.3.5-.6,1.1-1,1.8-1.2.7-.2,1.3-.1,2,.1.7.3,1.1.9,1.3,1.8.2,1.2.6,2.2,1.2,3.2.6,1,1.1,2,1.6,3.1.5,1.1,1,2.2,1.4,3.4.4,1.2.7,2.3,1.1,3.5.4,1.2.7,2.5,1,3.9.3,1.3.7,2.6,1.1,3.9.1.5.3.9.5,1.4.2.5.3.9.5,1.4.5-1.4.9-2.6,1.2-3.6.3-1,.6-2,1-3,.5-1.4,1-2.9,1.5-4.3.5-1.4.9-2.9,1.3-4.4.4-1.4.7-2.8.9-4.2.2-1.4.5-2.8.9-4.2.2-.9.7-1.4,1.4-1.7.7-.3,1.4-.3,2.1-.1.7.2,1.2.6,1.7,1.2.5.6.6,1.3.3,2.2-.5,1.6-.8,3.2-1,4.8-.2,1.6-.5,3.2-1,4.7-.4,1.5-.9,3.1-1.5,4.6-.6,1.5-1.1,3-1.6,4.6-.3,1.1-.7,2.2-1,3.3-.3,1.1-.7,2.2-1.2,3.3-.5,1.1-1,2-1.7,3-.7.9-1.5,1.7-2.5,2.3-.9.5-1.8.6-2.5.1-.8-.4-1.3-1.1-1.7-1.9-.6-1.4-1.1-2.8-1.7-4.2-.6-1.4-1.1-2.8-1.5-4.2Z"/>
    <path class="cls-1" d="M305,152.8c0-2.1.1-4.2.4-6.3.3-2.5.7-5.1,1-7.6.3-2.5.5-5.1.4-7.7,0-.9.3-1.6.9-2.1.6-.5,1.2-.7,1.9-.7s1.4.2,2,.7c.6.5.9,1.2.9,2.1,1.9-.1,3.7-.2,5.3-.2,1.9,0,3.6.6,4.9,1.7,1.3,1.1,2.4,2.5,3,4.3.6,1.6.9,3.3,1,5,0,1.7.2,3.5.2,5.2,0,2.5.1,4.9.2,7.3,0,2.4.1,4.9.1,7.3s-.3,1.7-.9,2.1c-.6.5-1.2.7-1.9.7s-1.3-.2-1.9-.7c-.6-.5-.9-1.2-.9-2.1,0-2.3,0-4.6-.1-6.8,0-2.2-.2-4.5-.3-6.8,0-1.2-.1-2.5-.1-3.9,0-1.3,0-2.5-.3-3.6-.1-.7-.3-1.3-.4-1.8-.1-.5-.4-1-.8-1.5,0-.2-.3-.4-.6-.5-.3-.1-.6-.2-.8-.2-.7,0-1.4,0-2,.1-.6,0-1.3.2-1.9.4-.3,0-.6.2-.9.3-.3,0-.6.2-.8.4-.5,1.7-.8,3.4-1,4.9-.2,1.6-.4,3.1-.6,4.7-.1,1.2-.2,2.3-.3,3.5,0,1.2,0,2.3-.1,3.5,0,1.2-.2,2.3-.4,3.5-.2,1.2-.6,2.3-1.1,3.3-.4.8-1,1.3-1.7,1.4s-1.4,0-2-.4c-.6-.4-1.1-.9-1.4-1.6s-.3-1.5.1-2.3c.4-.9.7-1.8.7-2.8,0-1,0-2,.1-3Z"/>
    <path class="cls-1" d="M352,126.4c1.5-.2,3.1-.3,4.8-.2,1.7,0,3.3.4,4.8.9,1.5.5,2.9,1.3,4.2,2.3,1.2,1,2.2,2.3,2.9,4,.5,1.2.7,2.3.8,3.5,0,1.2-.1,2.3-.5,3.4s-.9,2.1-1.6,3.1c-.7,1-1.5,1.9-2.4,2.7-2,1.8-4.1,3.3-6.5,4.5-2.4,1.2-4.8,2.2-7.4,2.9-1.1.3-2.2.5-3.4.8-1.2.2-2.4.3-3.6.3s-2.4-.1-3.5-.4c-1.2-.3-2.2-.7-3.2-1.3-.7-.4-1.2-1-1.3-1.7-.3-.8-.6-1.6-.9-2.3-.3-.7-.7-1.5-1-2.2-.3-.8-.6-1.5-.8-2.3-.2-.8-.3-1.6-.3-2.4,0-1.6.3-3.2,1-4.6.7-1.5,1.6-2.8,2.8-3.9,2-1.9,4.3-3.5,7-4.6s5.3-1.9,8.1-2.3ZM360.2,132.6c-1.3-.5-2.7-.7-4.2-.7-1.6,0-3.2.1-4.8.5-1.6.4-3.1.9-4.5,1.5-1.3.5-2.7,1.3-4.1,2.2-1.4.9-2.5,2.1-3.1,3.4-.4.7-.6,1.5-.5,2.2,0,.7.1,1.5.4,2.2.2.7.5,1.5.9,2.2s.7,1.5,1,2.2c.8.2,1.2.3,1.4.3,0,0,.2,0,.4,0h.4c1,0,1.8,0,2.6,0,.5,0,1.2,0,2-.3,1.2-.2,2.5-.6,3.6-1,1.2-.4,2.2-.9,3.2-1.3,1.1-.5,2.2-1.1,3.2-1.7,1.1-.6,1.9-1.3,2.7-1.9.5-.4.9-.9,1.4-1.4.2-.2.4-.4.5-.6.2-.3.4-.6.6-.8.1-.2.3-.4.4-.6.2-.3.3-.6.3-.8,0,0,0-.2.1-.4,0-.1,0-.3.1-.4v-.8c0-.2,0-.3,0-.4s0-.2,0-.3c-.1-.3-.3-.6-.4-.8-.1-.2-.3-.3-.4-.5,0,0,0,0-.2-.2-.2-.2-.3-.3-.3-.4l-.6-.6c-.2-.1-.5-.3-.8-.5-.3-.2-.6-.3-.9-.4Z"/>
    <path class="cls-1" d="M376.6,143.7c-1.2-.9-2.1-2.1-2.7-3.4-.5-1.4-.6-2.8,0-4.4.5-1.4,1.2-2.6,2.2-3.7s2.2-2,3.5-2.7c1.4-.8,3-1.4,4.6-1.8,1.6-.4,3.3-.7,5-.7,1.7,0,3.4.1,5,.5,1.7.4,3.2.9,4.7,1.7.8.4,1.3,1,1.4,1.7,0,.7,0,1.4-.4,2-.4.6-.9,1.1-1.6,1.4s-1.5.2-2.3-.2c-1.2-.6-2.5-1-3.9-1.2-1.4-.2-2.9-.2-4.4,0-1.5.2-2.8.5-4.1,1.1s-2.4,1.3-3.2,2.2c-.2.2-.4.4-.5.5,0,0-.2.3-.3.6v.8c0,.4.1.7.2.8,1,.6,2,1,3,1.2,1,.2,2.1.3,3.1.3,1.5,0,3,.2,4.6.3s3.1.3,4.5.6c1.5.3,2.8.9,4.1,1.7,1.2.8,2.3,1.9,3.2,3.4,1,1.7,1.4,3.4,1.3,5.2s-.8,3.4-2.1,4.9c-1.3,1.4-2.9,2.4-4.7,3-1.8.6-3.6.9-5.4,1.2-1.6.2-3.3.2-5.1.1-1.8,0-3.4-.4-5-.8-1.6-.5-3.1-1.2-4.5-2.1-1.4-.9-2.5-2.2-3.5-3.7-.4-.8-.5-1.5-.2-2.2.3-.7.7-1.2,1.3-1.6.6-.4,1.3-.5,2-.4.7,0,1.4.5,1.8,1.3.7,1.1,1.6,1.9,2.8,2.5,1.2.6,2.5,1,3.9,1.2,1.4.2,2.8.3,4.3.1,1.4-.1,2.7-.3,3.9-.5.6-.1,1.3-.3,1.9-.6.6-.3,1.2-.6,1.7-1,.5-.4.8-.8,1-1.3.2-.5.2-1.1,0-1.7-.5-1.2-1.3-2.1-2.4-2.6-1.1-.5-2.3-.8-3.6-.9-1.2,0-2.5-.1-3.8-.1s-2.6,0-3.9-.2c-1.3-.1-2.6-.3-3.8-.7-1.2-.3-2.4-.9-3.5-1.7Z"/>
    <path class="cls-1" d="M430.9,134.5c.9,0,1.6.3,2.1.9.5.6.7,1.2.7,1.9s-.2,1.4-.7,2c-.5.6-1.1.9-2.1.9-1.2,0-2.3,0-3.4,0-1.1,0-2.2-.2-3.4-.3,0,3.8,0,7.6-.2,11.4-.2,3.8-.6,7.6-1.2,11.3,0,.8-.5,1.4-1.3,1.8-.8.4-1.5.5-2.2.2-.8-.2-1.4-.7-1.7-1.3-.3-.6-.4-1.4-.3-2.2.6-3.7.9-7.3,1-11,0-3.7,0-7.3,0-11-1.8-.3-3.7-.6-5.5-.9-1.9-.3-3.7-.6-5.5-.8-.8,0-1.4-.5-1.8-1.3s-.4-1.5-.3-2.2c.2-.8.7-1.4,1.4-1.7.7-.3,1.4-.4,2.2-.3,1.6.2,3.2.5,4.8.8,1.6.3,3.2.5,4.8.8,0-.2,0-.6,0-1.1,0-4.3,0-8.6,0-12.8,0-4.2.2-8.5.6-12.8,0-.8.4-1.4.9-2,.5-.6,1.2-.9,2-.9s1.4.3,2.1.9c.6.6.9,1.2.8,2-.5,4.6-.7,9.2-.7,13.7,0,4.5,0,9.1.2,13.8,1.2,0,2.3.2,3.5.3,1.2,0,2.3.1,3.5.1Z"/>
    <path class="cls-1" d="M437.8,159c.4-2.3.8-4.6,1.3-6.8.5-2.2.9-4.5,1.1-6.8.2-2.3.2-4.5.1-6.7-.1-2.2,0-4.4.4-6.7,0-.8.5-1.3,1.3-1.7.8-.4,1.5-.5,2.2-.3.8.2,1.4.7,1.7,1.4.3.7.4,1.4.3,2.2-.2,1.1-.3,2.2-.3,3.4s0,2.3.1,3.5c0,2.2-.1,4.4-.4,6.6-.3,2.3-.7,4.6-1.1,6.8-.5,2.2-.9,4.4-1.3,6.7-.1.8-.6,1.3-1.4,1.7-.8.4-1.5.5-2.2.3-.8-.2-1.4-.7-1.7-1.4-.3-.7-.4-1.4-.3-2.2ZM441.3,125.8c-.3,0-.7-.3-1-.5-.3-.2-.6-.5-.7-.8-.1-.4-.3-.7-.4-1,0-.3-.1-.6-.1-1s0-.9.2-1.3c.2-.9.6-1.5,1.2-1.9.2-.3.5-.5.8-.6.5-.3,1.1-.5,1.8-.5.7,0,1.3.2,1.8.5.2.2.5.4.7.6.2.2.4.5.6.8,0,.2.2.5.3.8s.2.6.1.9c0,.3,0,.6-.1.9,0,.3-.2.6-.4.8-.2.3-.4.6-.6.7-.1.1-.4.3-.7.6-.2.2-.5.3-.9.4-1,.6-1.9.8-2.6.6Z"/>
  </g>
  <g>
    <path class="cls-1" d="M23.8,30.1h14.9l17.3,49.4c.6,1.8,1.3,3.9,2,6.3.7,2.4,1.1,3.9,1.3,4.6h.4c.2-.8.6-2.4,1.3-4.9.7-2.5,1.3-4.5,1.8-6l17.4-49.4h14.8v72.4h-10v-47.8l.2-13.5h-.7c0,.5-.3,1.5-.6,3-.4,1.5-.7,2.8-1.2,4l-19.6,54.3h-8.3l-19.3-54.3c-.4-1-.7-2.3-1.1-3.9-.4-1.6-.6-2.6-.7-3.1h-.6l.2,13.5v47.8h-9.4V30.1Z"/>
    <path class="cls-1" d="M117.8,94.3c-6.3-6.3-9.4-15.6-9.4-28s3.1-21.7,9.4-28,15.2-9.4,26.6-9.4,20.5,3.1,26.7,9.4c6.3,6.3,9.4,15.6,9.4,28s-3.1,21.6-9.4,28c-6.3,6.3-15.2,9.5-26.7,9.5s-20.3-3.1-26.6-9.4ZM163.6,88.4c4.4-4.5,6.6-11.8,6.6-21.7v-.4c0-10.1-2.3-17.4-6.8-22-4.4-4.6-10.8-6.9-19.1-6.9s-14.6,2.3-19,6.9c-4.4,4.6-6.7,11.9-6.8,22v.4c0,9.9,2.2,17.1,6.6,21.7,4.4,4.5,10.8,6.8,19.1,6.8s14.8-2.3,19.2-6.8Z"/>
    <path class="cls-1" d="M199.3,94.4c-5.9-6.2-8.9-15.6-8.9-28.1s3-21.9,8.9-28.1c5.9-6.2,14.7-9.3,26.4-9.3s17,2.3,22.6,7c5.7,4.7,8.5,11.5,8.5,20.4h-10.2c0-6.2-1.8-10.9-5.5-14.1-3.7-3.2-8.8-4.8-15.4-4.8s-14.8,2.3-18.8,6.8c-4,4.5-6.1,11.8-6.1,21.9v.2c0,10.2,2,17.6,6,22.1,4,4.5,10.3,6.8,18.9,6.8s11.9-1.6,15.7-4.7c3.8-3.2,5.6-7.8,5.6-13.9h9.8c0,9-2.8,15.8-8.4,20.4-5.6,4.6-13.2,6.9-22.7,6.9s-20.5-3.1-26.4-9.3ZM228.6,10.9h10.1v.3c.1,0-11.3,13.6-11.3,13.6h-7.9l9.1-13.9Z"/>
  </g>
</svg>