<?xml version="1.0" encoding="UTF-8"?>
<svg id="Layer_1" data-name="Layer 1" xmlns="http://www.w3.org/2000/svg" version="1.1" viewBox="0 0 535 364">
  <defs>
    <style>
      .cls-1 {
        fill: #fff;
        stroke-width: 0px;
      }
    </style>
  </defs>
  <g>
    <g>
      <path class="cls-1" d="M98.7,71.1c.6.4.9.6.7,1.4,0,.6-.2,1.1-.5,1.7-2.2,5.8-4.5,11.5-6.7,17.2,0,0,0,.2,0,.4.9,0,1.6,0,2.4-.2h1.6c1.1,0,1.5.9,1.1,1.9,0,.4-.4.7-.7,1-1.1.7-2,1.6-2.6,2.7-1.1,1.7-2.7,2.7-4.7,3.2-.2,0-.4.2-.5.5-3.1,8.2-6.1,16.4-8.8,24.7,0,.2,0,.4-.2.6-.4.7-1.5.7-1.9.2-.7-1-1.7-1.9-2.7-2.6-.4-.2-.6-.6-.9-1-.4-.4-.4-.9-.2-1.5,1.2-4.6,2.7-9.1,4.3-13.5.6-1.7,1.2-3.5,1.9-5.2h-.6c-3.1.7-6.3,1.4-9.5,2.1-.2,0-.4.2-.5.4-2.1,5.6-4.1,11.3-6.2,16.9-.2.6-.5,1.4-1,1.9s-.7.6-1.1.6c-.7,0-1.5-.4-1.5-1.2s0-1.1.2-1.6c1.9-5.3,3.7-10.5,5.7-15.9,0,0,0-.2,0-.5-1.5,0-2.5-1-3.2-2l-.4-.4c-.5-.6-1.1-1.2-2-1.4-.6,0-1-.7-1.2-1.4v-.6l.7-.7c.2,0,.6-.2.9-.4,2.7-.7,5.6-1.5,8.3-2.2.4,0,.5-.2.6-.6,2.9-7.1,5.7-14.3,8.6-21.3.2-.6.6-1.1,1-1.6s.9-.7,1.5-.9c.7,0,1.4.4,1.4,1.1s0,1.1-.4,1.6c-2.6,6.7-5.3,13.4-8.1,20.1,0,0,0,.2,0,.5h.4c3.1-.6,6.3-1.2,9.4-1.9.2,0,.4,0,.5-.5,1.2-3.2,2.6-6.4,3.8-9.5s2.6-6.1,3.8-9.1c.2-.6.7-1.1,1.4-1.2,1.7-.6,3.6-1.1,5.3-1.7h.9-.2Z"/>
      <path class="cls-1" d="M119.3,108.8c.6-1.5,1.1-3,1.7-4.5,3.7-9.4,8.1-18.6,12.5-27.8.5-.9,1-1.7,1.5-2.6.4-.6,1.1-1,1.9-1.2,1-.2,2-.7,2.9-1,.7-.2,1.5-.5,2.4-.5s1.2.4,1.2,1.2-.2,1.9-.5,2.9c-1.2,5.6-2.4,11-3.6,16.6-1.2,6.1-2.5,12.2-3.7,18.4-1,5.2-2.1,10.3-3.1,15.5-.2,1.1-.9,1.2-1.9.9-.2,0-.5-.2-.6-.5-.7-1-1.6-1.7-2.6-2.5-.4-.2-.6-.5-.9-.7-.4-.4-.5-.7-.4-1.4.7-4.2,1.4-8.4,2.1-12.5.7-4.3,1.6-8.6,2.5-12.9.7-3.6,1.4-7.1,2.1-10.7v-.2.2c-3.1,6.4-6.1,13.1-8.8,19.7-2.1,5.1-4,10.2-6,15.1,0,.4-.4.7-.5,1-.4.5-1,.5-1.5,0,0,0-.2-.2-.4-.5-.6-1-1.4-1.9-2.2-2.6-.7-.7-1.4-1.7-1.5-2.9,0-.9-.2-1.7-.2-2.7,0-3.2,0-6.4.4-9.7.2-3.3.6-6.7,1-9.9,0-2,.2-3.8.4-5.8v-.2.4c-2.5,7.8-5,15.6-7.4,23.4-1.1,3.7-2.2,7.4-3.3,11.2-.2.6-.5,1.4-1,1.9-.4.2-.7.5-1.1.5-.6,0-1.1-.5-1.2-1.1s0-1.1,0-1.6c2.4-8.9,5.1-17.9,7.9-26.7,2.1-6.4,4.2-12.9,6.6-19.2.2-.9.7-1.5,1.6-1.7,1.7-.7,3.5-1.4,5.2-2,.4,0,.9,0,1.2,0,.7,0,1.1.4,1.1,1.1v3.2c-.2,2.4-.5,4.8-.9,7.2-.2,2.2-.6,4.6-1,6.8-.4,2.7-.7,5.3-1,8.1-.4,3.3-.6,6.7-.7,10.2v.4h0v-.2Z"/>
      <path class="cls-1" d="M94.5,117.1c-.4.2-.9.6-1.2.9-1,.5-2,.7-3,.4-1.5-.5-2.4-2.1-2.2-3.7,0-1.1.6-2.2,1.4-3.1.6-.7,1.4-1.6,2.1-2.4,0,0,.2-.4,0-.6-.2-.9-.6-1.7-.6-2.7s.6-2.1,1.6-2.6c1-.6,2.1-.5,3.1,0,1.1.6,1.6,1.9,1,3.1-.4.9-1,1.6-1.5,2.4-.2.4-.5.6-.7,1v.2c.2.7.5,1.5.7,2.2l.6-.6c.2-.2.6-.4.9-.5.6,0,1.1.2,1.1.9s-.2,1.1-.5,1.7c-.4.5-.7,1-1,1.5v.4c0,.4.2.7.4,1.2v.9c0,.7-.7,1.1-1.4.7-.2,0-.5-.5-.6-.7,0,0,0-.4-.2-.5h0,0-.1ZM92.6,111.9c-.2.4-.5.6-.6.9-.2.4-.5.7-.6,1.1v.6h.6c.4,0,.7-.4,1-.6v-.2c-.2-.6-.4-1.1-.6-1.9h.2ZM93.3,107h0c.2-.4.6-.7.9-1.2.2-.4,0-.9-.4-1-.4,0-.7,0-.9.6v1.6h.4Z"/>
    </g>
    <path class="cls-1" d="M180,102.3l-14.8-17.4h1.2l14.3,16.6,14.3-16.6h1.2l-14.8,17.4,15.4,18.1h-1.2l-14.8-17.5-14.8,17.5h-1.2l15.4-18.1h-.2,0Z"/>
    <g>
      <path class="cls-1" d="M246.7,91.8c-1.4-1.7-4.1-2.6-6.1-2.6s-5.7,1.1-5.7,4c0,6.9,17.6,2.5,17.6,16s-6.9,12.6-14.8,12.6-9.3-1.5-12.9-4.8l6-6.6c1.7,2.2,4.6,3.6,7.4,3.6s5.8-1.2,5.8-4c0-7.1-18-3.2-18-16s7.1-12.4,14.6-12.4,8.6,1.1,11.8,4l-5.8,6.3h0Z"/>
      <path class="cls-1" d="M302,106c0,9.1-5.6,15.7-16.1,15.7s-16.2-6.7-16.2-15.7v-23.6h8.4v23.3c0,4.7,3.2,8.3,7.8,8.3s7.7-3.6,7.7-8.3v-23.3h8.4v23.6h0Z"/>
      <path class="cls-1" d="M320.6,82.5h14.3c7.9,0,14.6,2.6,14.6,11.7s-6.1,11.8-14.3,11.8h-6.2v15h-8.4v-38.3h0v-.2ZM329.2,98.7h5.6c3,0,6-1,6-4.6s-4-4.5-7.3-4.5h-4.3v9.1h.1-.1Z"/>
      <path class="cls-1" d="M366,82.5h26v7.8h-17.6v7.2h16.6v7.8h-16.6v7.8h18.6v7.8h-27v-38.3h0Z"/>
      <path class="cls-1" d="M410.7,82.5h14.9c7.8,0,14.5,2.7,14.5,11.7s-2.9,9.5-8.3,10.5l9.8,16.2h-10.2l-8.1-15.4h-4.2v15.4h-8.4v-38.4h0ZM419.1,98.3h5c3.1,0,7.1,0,7.1-4.2s-3.5-4.5-6.6-4.5h-5.5v8.7h0Z"/>
      <path class="cls-1" d="M468.3,91.5l-7.7,6.8-4.6-5.3,12.5-10.5h7.6v38.3h-7.8v-29.3Z"/>
    </g>
  </g>
  <g>
    <path class="cls-1" d="M109.7,289c-4.1-2.6-6.2-6.7-6.2-12.3v-1.6h7.5v1.7c0,3.2,1.3,5.6,4,7.3,2.6,1.7,6.2,2.5,10.6,2.5s8.7-.8,11.3-2.3,3.9-3.8,3.9-6.7-.7-3.6-2-4.8c-1.4-1.3-3.1-2.3-5.2-3-2.1-.7-4.9-1.5-8.4-2.4-4.4-1.1-7.9-2.2-10.5-3.2-2.7-1-5-2.5-6.8-4.6-1.9-2-2.8-4.7-2.8-8,0-4.7,2-8.3,5.9-10.8s9-3.7,15.1-3.7,11.1,1.2,15,3.7c3.8,2.5,5.7,6.3,5.7,11.5v.9h-7.3v-1.2c0-2.7-1.2-4.8-3.7-6.3-2.4-1.5-5.6-2.3-9.5-2.3s-7.5.6-10,1.9c-2.5,1.3-3.7,3.1-3.7,5.7s.7,3.3,2,4.5,3,2.1,5,2.8,4.7,1.5,8.2,2.4c4.4,1.1,7.9,2.2,10.7,3.2,2.8,1.1,5.1,2.6,7,4.6s2.9,4.7,2.9,7.9c0,5.8-2,10-6,12.6s-9.5,3.9-16.3,3.9-11.9-1.3-16.1-3.9h-.3Z"/>
    <path class="cls-1" d="M162.4,286c-4.4-4.6-6.6-11.6-6.6-21s2.2-16.3,6.6-21c4.4-4.6,11-7,19.7-7s12.7,1.7,16.9,5.2c4.2,3.5,6.3,8.6,6.3,15.2h-7.6c0-4.6-1.4-8.1-4.1-10.5-2.8-2.4-6.6-3.6-11.5-3.6s-11,1.7-14,5c-3,3.4-4.5,8.8-4.6,16.4v.2c0,7.6,1.5,13.1,4.5,16.5s7.7,5.1,14.1,5.1,8.9-1.2,11.7-3.5c2.8-2.4,4.2-5.8,4.2-10.4h7.3c0,6.7-2.1,11.8-6.3,15.2-4.2,3.4-9.8,5.1-16.9,5.1s-15.3-2.3-19.7-7h0Z"/>
    <path class="cls-1" d="M215.2,238h7.5v23.1h29.4v-23.1h7.5v54h-7.5v-24.3h-29.4v24.3h-7.5v-54Z"/>
    <path class="cls-1" d="M276.5,285.9c-4.7-4.7-7-11.7-7-20.9s2.3-16.2,7-20.9,11.3-7,19.9-7,15.3,2.3,20,7,7,11.7,7,20.9-2.4,16.1-7,20.9c-4.7,4.7-11.3,7.1-20,7.1s-15.2-2.3-19.9-7h0ZM310.7,281.5c3.3-3.4,5-8.8,5-16.2v-.3c0-7.5-1.7-13-5-16.4s-8.1-5.2-14.2-5.2-10.9,1.7-14.2,5.2c-3.3,3.4-5,8.9-5,16.4v.3c0,7.4,1.7,12.8,5,16.2,3.3,3.4,8.1,5.1,14.2,5.1s11-1.7,14.3-5.1h0Z"/>
    <path class="cls-1" d="M337.8,285.9c-4.7-4.7-7-11.7-7-20.9s2.3-16.2,7-20.9,11.3-7,19.9-7,15.3,2.3,20,7,7,11.7,7,20.9-2.4,16.1-7,20.9c-4.7,4.7-11.3,7.1-20,7.1s-15.2-2.3-19.9-7h0ZM372,281.5c3.3-3.4,5-8.8,5-16.2v-.3c0-7.5-1.7-13-5-16.4s-8.1-5.2-14.2-5.2-10.9,1.7-14.2,5.2c-3.3,3.4-5,8.9-5,16.4v.3c0,7.4,1.7,12.8,5,16.2,3.3,3.4,8.1,5.1,14.2,5.1s11-1.7,14.3-5.1h0Z"/>
    <path class="cls-1" d="M394.5,238h7.5v47.5h27.7v6.5h-35.2v-54Z"/>
  </g>
  <g>
    <path class="cls-1" d="M125.5,191.9c-1,.1-1.9-.2-2.6-1.1s-1.1-1.7-1.1-2.7.4-2,1.1-2.7,1.6-1,2.7-1.2c.6-4.1.9-8.3,1.1-12.4.2-4.1.3-8.2.4-12.4-.8-.3-1.5-.7-2.1-1.3-.5-.6-.8-1.4-.8-2.3s.4-1.9,1.1-2.7c.7-.9,1.6-1.2,2.7-1.1,2.4.3,4.7.5,7.1.8s4.8.7,7.2,1.1c2.4.4,4.8,1,7.1,1.7s4.6,1.6,6.7,2.7c1.5.7,2.9,1.6,4.2,2.7s2.4,2.4,3.3,3.7c.9,1.4,1.4,2.9,1.6,4.5.2,1.6,0,3.3-.7,5-1.3,3.1-3,5.8-5.2,7.9-2.2,2.1-4.8,3.8-7.9,5.1-.6.3-1.3.6-1.9.8-.6.2-1.3.4-1.9.7,1,.5,1.9,1.2,3,2,2.2,1.9,4.2,3.9,5.8,6.3,1.7,2.3,3.1,4.8,4.4,7.4.7,1.5,1.4,3,2.2,4.5.7,1.5,1.1,3.1,1.2,4.8,0,2-.6,3.8-1.9,5.2-1.3,1.4-2.8,2.5-4.6,3.3-4.6,2-9.3,3.1-14,3.5-4.8.4-9.6.3-14.5-.1-.8.4-1.7.6-2.7.5-1,0-1.7-.6-2.2-1.4-.6-.3-1.1-.7-1.4-1.3-.4-.5-.6-1.2-.6-2s0-.9.2-1.3c.2-.4.4-.8.6-1.1,0-2,0-3.9.4-5.9.3-1.9.6-3.9,1-5.9.4-2.6.7-5.1.8-7.7,0-2.6.2-5.2.3-7.7h-.1ZM132.2,207.3c-.3,1.8-.7,3.6-1,5.4-.4,1.8-.5,3.7-.5,5.5,3.9.3,7.8.4,11.6.1,3.9-.2,7.6-1.1,11.3-2.5.8-.3,1.5-.6,2.3-1.1.3-.6.4-1.1.3-1.3-.3-1-.7-2-1.1-2.9-.4-.9-.9-1.9-1.5-3-.5-1.1-1.1-2.1-1.6-3.1-.6-1-1.2-2-1.9-2.9l-1-1.2-1.2-1.4c-.4-.4-.9-.9-1.5-1.4-.5-.5-1-.8-1.3-1-1.9-1.3-3.8-2.4-5.7-3.1-2-.7-4.1-1.1-6.2-1.3-.1,2.6-.2,5.1-.3,7.7,0,2.6-.3,5.1-.7,7.7v-.2ZM134.7,160.6c-.1,3.8-.3,7.7-.4,11.5s-.3,7.7-.5,11.5c2.4-.3,4.9-.6,7.3-1.1,2.5-.5,4.8-1.2,7-2.1.9-.3,1.9-.8,3-1.4,1.1-.6,2-1.2,2.5-1.7.9-.9,1.6-1.7,2.1-2.3s1-1.6,1.6-2.9c-.1.2-.1.1,0-.2,0-.3.2-.6.2-.9v-1c-.2-.6-.3-1.1-.4-1.2s-.2-.4-.3-.5c0,0-.1-.2-.3-.5s-.4-.4-.5-.5c-.3-.3-.7-.6-1.1-.9-.5-.3-1.1-.7-1.7-1-.6-.4-1.2-.6-1.7-.8-2.7-1.1-5.4-1.9-8.3-2.6-2.8-.6-5.7-1.1-8.6-1.5h0Z"/>
    <path class="cls-1" d="M178.5,223.1c-2.2-1-3.9-2.3-5.1-4-1.2-1.7-2.1-3.6-2.6-5.6s-.6-4.2-.4-6.4c.2-2.2.6-4.3,1.3-6.4.6-1.6,1.2-3.3,2-5,.7-1.7,1.6-3.3,2.6-4.8s2.2-2.7,3.6-3.8c1.4-1.1,3.1-1.7,5-2.1,2-.3,4-.4,6-.3,2,0,4,.3,6,.6.9.1,1.8.3,2.6.6s1.7.6,2.5.9c0-1,.5-1.8,1.3-2.4.8-.6,1.6-1,2.5-1s2,.4,2.6,1.1c.7.7,1.1,1.6,1.2,2.6.3,2.9.5,5.9.4,8.8,0,2.9-.1,5.9-.3,8.8-.2,2.9-.3,5.9-.4,8.8v8.8c0,1.2-.3,2.1-1.1,2.7-.8.6-1.7.9-2.6.9s-1.8-.3-2.6-.9c-.8-.6-1.2-1.5-1.3-2.7-3.6,1.5-7.5,2.4-11.6,2.6-4.1.2-8-.5-11.7-2.2v.4ZM179.2,202.3c-.4,1.1-.7,2.5-1.1,3.9-.3,1.5-.4,2.9-.3,4.2.1,1.3.5,2.6,1.2,3.7.7,1.1,1.9,1.9,3.4,2.3,3.3,1,6.5,1.3,9.8.9,3.3-.4,6.4-1.6,9.2-3.4.3-3.1.5-6.2.6-9.1.2-2.9.2-5.9.1-8.9-1.1-.7-2.2-1.3-3.3-1.9s-2.3-.9-3.7-1.1-2.8-.3-4.3-.4h-4.4c-.1,0-.5,0-1,.2s-.8.3-.9.3c-.6.3-1.2.8-1.7,1.5-.8,1.2-1.6,2.4-2.2,3.7-.6,1.3-1.2,2.6-1.7,4h.3Z"/>
    <path class="cls-1" d="M246.7,218.2c.3.9.1,1.9-.4,2.9s-1.3,1.6-2.3,1.8c-3.4.6-6.9.5-10.2-.1s-6.5-2.1-9.4-4.4c-2.8-2.2-4.8-5.1-6-8.6s-1.4-7-.6-10.5c.7-3.1,2.2-5.8,4.4-8.1s4.8-4.1,7.7-5.4c2.6-1.2,5.2-2.2,8-2.9s5.6-.9,8.4-.7c1.1.1,2,.5,2.7,1.2s1.1,1.5,1.1,2.6-.4,1.9-1.1,2.7c-.7.8-1.6,1.2-2.7,1.1-2-.2-4.1,0-6,.3-2,.4-3.9,1-5.7,1.8-1.1.5-2.2,1.1-3.2,1.6-1.1.6-2,1.2-2.7,1.9s-1.5,1.5-2.1,2.3c-.5.8-.9,1.7-1.2,2.7s-.4,2.1-.3,3.3c0,1.1.3,2.3.6,3.4.4,1.1.8,2.1,1.5,3.1.6.9,1.4,1.7,2.3,2.3,1.9,1.3,3.9,2.3,6.1,2.7,2.2.5,4.4.5,6.5.1,1-.2,2,0,2.9.4s1.5,1.2,1.8,2.3v.2Z"/>
    <path class="cls-1" d="M257.3,205c-.3-.8-.3-1.6,0-2.4-.4-7.7-.9-15.4-1.4-23s-.5-15.3,0-23c.1-1.1.5-2,1.2-2.7s1.5-1.1,2.6-1.1,1.9.4,2.8,1.1c.8.7,1.2,1.6,1.1,2.7-.5,7-.6,13.8-.2,20.6s.8,13.7,1.2,20.6c3.6-2.2,7.2-4.4,10.8-6.5,3.6-2.1,7.1-4.3,10.6-6.7,1-.7,2-.9,2.9-.5s1.6.9,2.1,1.8.7,1.8.5,2.8c-.1,1-.7,1.9-1.7,2.6-3.4,2.4-6.9,4.6-10.5,6.7-3.5,2.1-7.1,4.2-10.7,6.4,4.3,2.9,8.5,5.8,12.7,8.7s8.3,6,12.4,9.3c.8.7,1.2,1.6,1.1,2.7,0,1.1-.4,2-1.1,2.7-.8.8-1.7,1.1-2.7,1.1s-1.9-.4-2.7-1.1c-3.7-3-7.5-5.8-11.3-8.5s-7.7-5.4-11.7-8v7.4c0,2.5-.1,4.9-.2,7.4,0,1.3-.5,2.2-1.3,2.8s-1.7.9-2.6.9-1.8-.3-2.6-.9c-.8-.6-1.1-1.5-1.1-2.8.1-3.4.2-6.9.1-10.4,0-3.5-.1-7-.3-10.5v-.2Z"/>
    <path class="cls-1" d="M357.6,192.3c1.2,0,2.1.4,2.7,1.1.6.8.9,1.6.9,2.6s-.3,1.8-.9,2.6-1.5,1.2-2.7,1.2h-4.5c-1.5,0-3-.2-4.5-.3,0,5,0,10.1-.2,15.1s-.8,10.1-1.6,15c-.1,1.1-.7,1.9-1.7,2.4s-2,.6-3,.3c-1.1-.3-1.8-.9-2.3-1.8-.4-.9-.5-1.8-.3-2.9.8-4.9,1.2-9.7,1.3-14.6v-14.7c-2.4-.4-4.9-.8-7.4-1.2s-4.9-.8-7.4-1.1c-1.1-.1-1.9-.7-2.3-1.8s-.6-2-.3-2.9c.3-1.1.9-1.8,1.8-2.3.9-.4,1.9-.6,2.9-.4,2.1.3,4.2.7,6.3,1,2.1.4,4.2.7,6.4,1v-18.4c0-5.6.2-11.3.8-17,.1-1,.5-1.9,1.2-2.7s1.5-1.2,2.6-1.2,1.9.4,2.7,1.2c.9.8,1.2,1.7,1.1,2.7-.6,6.1-.9,12.2-.9,18.2s.1,12.1.2,18.3c1.5.1,3.1.2,4.6.3,1.5,0,3.1.1,4.6.1v.2Z"/>
    <path class="cls-1" d="M390,181.6c2-.3,4.2-.3,6.4-.2,2.2,0,4.4.5,6.4,1.2s3.9,1.7,5.6,3,2.9,3.1,3.8,5.3c.6,1.5,1,3.1,1,4.6s-.2,3.1-.7,4.5-1.2,2.8-2.1,4.1-2,2.5-3.2,3.6c-2.6,2.4-5.5,4.4-8.6,6-3.1,1.7-6.4,2.9-9.9,3.8-1.5.4-3,.7-4.5,1-1.6.3-3.1.4-4.7.4s-3.2-.2-4.7-.5c-1.5-.4-3-.9-4.3-1.8-1-.6-1.5-1.3-1.7-2.3-.4-1.1-.8-2.1-1.2-3.1-.4-1-.9-1.9-1.3-3-.4-1-.8-2-1-3.1-.3-1-.4-2.1-.4-3.2,0-2.2.5-4.2,1.4-6.2.9-1.9,2.2-3.7,3.8-5.1,2.7-2.6,5.8-4.6,9.3-6.1s7.1-2.6,10.7-3.1v.2ZM400.8,189.8c-1.7-.6-3.6-1-5.6-1s-4.2.1-6.3.6c-2.1.5-4.1,1.1-6,2-1.8.7-3.6,1.7-5.5,2.9s-3.3,2.8-4.2,4.5c-.5,1-.8,1.9-.7,2.9,0,1,.2,2,.5,3s.7,2,1.2,3,.9,2,1.3,2.9c1,.3,1.7.4,1.9.4h1c1.3.1,2.4,0,3.4,0s1.6-.1,2.7-.4c1.7-.3,3.3-.7,4.8-1.3s2.9-1.1,4.2-1.8c1.5-.7,2.9-1.5,4.3-2.3s2.6-1.7,3.5-2.6c.6-.6,1.2-1.2,1.8-1.8s.5-.6.7-.8c.3-.4.6-.8.8-1,.2-.2.4-.5.5-.8.3-.4.4-.8.4-1.1s.1-.3.1-.5,0-.4.1-.5v-2.1c-.2-.4-.4-.8-.5-1-.2-.2-.3-.5-.5-.7l-.2-.3c-.2-.3-.4-.4-.4-.5l-.8-.8c-.3-.2-.7-.4-1.1-.7s-.8-.4-1.1-.6l-.3.4Z"/>
  </g>
</svg>