<?xml version="1.0" encoding="UTF-8"?>
<svg id="Layer_1" data-name="Layer 1" xmlns="http://www.w3.org/2000/svg" version="1.1" viewBox="0 0 200 200">
  <defs>
    <style>
      .cls-1 {
        fill: none;
      }

      .cls-1, .cls-2 {
        stroke-width: 0px;
      }

      .cls-2 {
        fill: #fff;
      }
    </style>
  </defs>
  <g>
    <path class="cls-1" d="M140.6,33.5c.4.8,12.3,5.3,10.8,7l-65.4,120.5c-40,20,55.9-125.9,54.6-127.5ZM140.5,35.6c2.2,3.4-78.4,127.1-60.4,125.6,7.3,4.6,65.2-119.5,69.1-120.9,0,0-8.7-4.7-8.7-4.7Z"/>
    <g>
      <path class="cls-2" d="M142.7,37.1c-1-1.7,1.6.6,0,.5.8.6.1-.4,1,.3-.7.2.7,1.2.8.9-.6-.8,3.1,1.7,4.5,2.1-.4-1.5,0,.7-.9.5.1.1,0,.3-.3.5.1.5.9-.5.5.3-.5-.2-.6,1-.8,1,.4-1.8-.4,0-.6.7-1.1,1.1,1.2-.9,1.3-1.4.3,2.6-.6,0-.9,2.6.8.4,3.2-4.7,2.2-5.1-1.9-1.3-2.9-1-4.1-2.4-.8.3.3.3.2.8-1.3-1.3-1.1,1.1-1.6-1,3,1.5-3.4-2.2-1.3,0Z"/>
      <path class="cls-2" d="M145.5,49.8c-1.3.2-1.3.6-1.7,1.9,1.3-1.9,1.2-.2,0,1.7,0-.7-.2,0-.5,0-.2.5.6.3-.2,1.3.2-1.1-.4-.5-1-.1.6.9.2-.2-1,2.2,1.3-.4.6-.1.1,1.1-.6.8,0-.6.3-.9-.4,0-.7.8-1.1.5.5-2.9-.5.4-.5-.6-.2.8-.3.7-.8,1.6,1-1,2.2,0,1.2-.4-1.9,3.1.7,1-.6,2.7-.6-1-1.2,1.4-1.3,2.1-2.2,2.7-2.6,5.1-4.1,7.2-7,14-18.2,32.9-27,49.4-1.9,3.3-5.7,10.5-6.5,11.7-3.3,6.6-6.1,10-9,16.6.4-1.7-1.5,1.9-.8,1-3.8,8.3-9.5,19-16.1,8.5,2.5-8.1,6.2-12.2,10.5-20.4,3.3-6.8,10.3-17.7,13.4-25.4,14-23.8,27.2-52,41.4-76.8-9.3,18.9-20.1,39.8-29,56.2-3.1,5.4-6.3,12.3-9.3,18.2,0-.2,0-.5.2-1-.4.4-.6,1.3-1.2,1.7-.6,2.3-2.5,5.6-4.1,7.5.2,1.4-1.6,4.7-2,4.1-1.8,3.9-3.6,7.9-4.8,9.9.4-2-3.2,4.6-1.8,3.5-4.3,8.3-7.5,11.2-11.6,20.9-.4,1.6.6,2.9,2.2,3.6-.3.4,1.7,2.1.5.3,4.6,5,5.8-5.6,8.8-7-1.1-.2,1.5-2.6.2-2.3.6-.5,1-.8,1,.1.4-2.4,4.4-11,3.5-6.1,0-2.9,2.5-4,3.4-7.9,0,.9,1.7-2.4.9-.5.4,0,.5-1,.4-1.1.5-.7,0,.5.3.5.2-.5.4-.9.3-1.2.5-.7.2.8.8-.3-.7-.1.8-.8.4-1.5-1.8,2.1-.2-.3.4-1.1-.2,0-.4.1-.6.4.2-1.1,2-3.8,2.8-4.1-.1-.6-.3,0-.7.3-.6-.8,1-2.6,1.3-1.8.4-1.5-.6.5-1.1-.2,1.2-1,.9-1.3,1.4-1,.8-1.3-.6-.4.3-1.2.6-.1-.2.9,1-.6-1,.2.9-4.3,1.6-3.6,2.5-6.5,7.1-10.2,9.3-17.8.7,1.3,2.6-2.7.5,0,.2-1,2.3-4.5,1.1-2.5.5,0,.4,0,.7.3,2.2-6.3,4.7-8.8,7.3-14.7,1,.6,2-3.8,2.7-5.5.3.3.5.1.8-.6-.3,1.9.7,0,.3-.5.7-1.1,2.3-3.5,1.5-2,3-7.8,6-11.2,9.6-17.7-.5.5-.9.9-1.2,1.4,0-1.7,1.5-4.9,4.4-8,0-.7-.4,0-.8.6.4-1.7,1.1-.7,1.3-2.4.5,0,0,.7.3.8.2-.5.5-2.1,0-1,.2-1.1.9-2,2.1-2.4.2-.7-.7.6-1-.1.6-.7,1.5-2.6,2.1-3,2.3.9-2.2,3.9-1.3,5.4ZM107.6,116.7c-.6.6-.5.6-1.4,1.7.9-.1.6.5,1-.6.6-.5-.5.4-.3-.1.2.2,1-.8.7-1ZM128.3,80c-1.4,2.5,1.5.2,0,1-.4,0,.3-.8,0-1ZM132.4,71.9c-.7.3-.5.6-.8,1.3.2.6,1.1-1.2.8-1.3ZM135.2,66.1c.3.5.5-.4.5.9.8-1.2,0-1.5-.5-.9Z"/>
      <path class="cls-2" d="M137.5,62.2c.1-.9.5-1.5,1-2.2-.8,0-1.6,2.6-1,2.2Z"/>
      <path class="cls-2" d="M138.4,59.9h0s0,0,0,0Z"/>
      <path class="cls-2" d="M140.7,36.2c1.8,1.2-.9-.3,1.2,1.2,0-.2-.2-.6.1-.5,1.4.9-.7-.7-1.1-.9,2.9,1.6-.3-1.5-.2.2Z"/>
    </g>
    <g>
      <path class="cls-2" d="M81.6,163.8c-.9-1.3,2-.2,0,.4.9,0,1.4-1.2,1.1,0,1.3,0,2.2-1.3,3.7-2.4,0-1.7,1.5-3.8,2.2-4.7-.1-.5-.9.5-.5-.3.5.2.6-1.1.9-1-.5,2,.7-.8,1-1.3-1,.5-1.2,1.4-1.7,2-.2-2.6.6-.2.9-2.7-1.1-.2-2.9,4.9-3.1,5.9-1.1.8-.7,2-2,2.1-.2.9.3-.1.6.3-1.6.3,0,2.3-1.6.8,2.9-.9-3.6.2-1.4.9Z"/>
      <path class="cls-2" d="M91.2,148.9c1.4-.2,1.3-.6,1.7-2-1.3,1.9-1.2.3,0-1.7,0,.7.2,0,.6,0,.2-.6-.6-.3.2-1.3-.2,1.2.4.5,1,0,.5-1-.8.4-.3-.5,1.4-1,.5-1.4,1.2-2.9.6-.8,0,.6-.3.9.4,0,.8-.9,1.1-.5,0,.4-.5,1.2,0,1.4.3.1.3-1.8.6-.8.2-.8.3-.7.9-1.7-1,1.1-2.3,0-1.3.5,2-3.3-.8-1,.6-2.8.6,1,1.3-1.4,1.3-2.2,2.2-2.8,2.7-5.4,4.3-7.5,7.4-14.6,19-34.4,28.2-51.6,2-3.4,6-11,6.8-12.3,3.5-6.9,6.3-10.5,9.4-17.3-.5,1.7,1.6-2,.9-1,6.2-7.7-1.9-8.2-8.3-11.8-5.3,8.4-7.9,15.2-13.9,25-3.4,7-10.7,18.5-14,26.4-9.2,21.3-39.8,60.8-34.7,76.4-9.6-10.6,18.5-43,21.5-54.5,2.8-4,8-17.1,9.6-17.9.4-.5.6-1.4,1.3-1.8.6-2.4,2.6-5.7,4.3-7.8-.3-1.3,1.6-4.7,2.1-4.3,1.9-4.1,3.8-8.2,5-10.3-.4,2,3.5-5,1.9-3.7,3.5-6.5,4.3-7.5,7.6-12.6,2.9-3.6,5.1-16.5,10.4-15.6-2.5-2.2,1.6.8,3,1.5,2.4,1.7,11.2,3.8,7.1,7.1,1.1.2-1.6,2.7-.2,2.3-.6.5-1.1.8-1,0-.5,2.4-4.6,11.5-3.7,6.3,0,3-2.6,4.2-3.6,8.2,0-.9-1.7,2.6-.9.5-.4,0-.5,1.1-.5,1.2-.5.8,0-.5-.3-.5-.3.5-.4,1-.3,1.3-.5.7-.2-.8-.8.3.7.1-.8.8-.5,1.5,1.8-2.2.2.4-.5,1.2.2,0,.4-.1.6-.4-.3,1.2-2.1,4-2.9,4.3.1,0,0,.2,0,.3,2-2.2,0,2.4-.6,1.1-.5,1.4.6-.4,1.1.2-1.2,1.1-1,1.4-1.4,1.1-.8,1.4.6.4-.3,1.3-.7.2.3-1-1,.6,1-.2-1,4.5-1.6,3.8-2.6,6.8-7.4,10.7-9.7,18.6-.7-1.3-2.6,2.8-.6,0-.2,1.1-2.4,4.7-1.2,2.6-.5,0-.4,0-.7-.3-2.3,6.6-5,9.2-7.7,15.3-1.1-.4-2,3.9-2.8,5.7-.3-.3-.5-.1-.9.7.2-1.7-.7,0-.3.6-.7,1.1-2.3,3.7-1.6,2.1-3.2,8.1-6.3,11.7-10,18.4.5-.5.9-1,1.3-1.4.5-.2-.5,3.2-2.2,5,.5-1.4-.4.3,0,0,0,.9-3.7,5.2-1.5,2.7.1.7-.9,1.6-1.1,1.2.2.7-.3,2-.4.5-.2.6-.6,2.2,0,1-.2,1.1-.9,2.1-2.2,2.5-.2.7.7-.6,1,0-.6.8-1.6,2.7-2.2,3.2-2.3-.9,2.3-4.1,1.4-5.6ZM130.6,79.1c.6-.7.5-.6,1.4-1.8-.9.1-.6-.5-1,.6-.6.5.5-.4.3.1-.2-.2-1,.8-.7,1.1ZM109,117.4c1.5-2.6-1.5-.1,0-1,.4,0-.3.9,0,1ZM104.8,125.9c.7-.3.6-.6.9-1.3-.2-.6-1.1,1.3-.9,1.3ZM101.8,131.8c-.3-.7-.6.9-.5-.9-.8,1.3,0,1.6.5.9Z"/>
      <path class="cls-2" d="M99.5,136c-.2.9-.5,1.6-1,2.3.8,0,1.7-2.8,1-2.3Z"/>
      <path class="cls-2" d="M98.4,138.3h0s0,0,0,0Z"/>
      <path class="cls-2" d="M78.9,163.5c1.9,1,0,0-.2.4.6.3,1.1.5,1.4.7-.2-1,2.5,0,.3-.8-2.3-.7.2,0,.5-.1-.9-.2.3-.3,0-.6-.7.2-1.8-.4-2.1.4Z"/>
    </g>
  </g>
  <g>
    <path class="cls-1" d="M152.1,24.6c1,.4-.4,15.9-1.1,16.3-18.7-6.9-10.8-8.2,1.1-16.3ZM141.9,34.2c10.6,7,7.5,2.1,8.7-6.6,0,0-8.7,6.6-8.7,6.6Z"/>
    <g>
      <path class="cls-2" d="M142.4,34c-.4,0-.6,0-.6,0,1,0,.8,0,1.2,0,.6-.1-.8,0,.4-.2-1,0,.3-.2-.5-.2.3,0,.3,0,.5,0-.2,0,0,0,0,0-.9,0-.4-.1,0,0,0-.2.3-.1.2-.1-.2,0-.5,0-.8.1-.6-.1-.5,0,.1-.1-.8-.1-1.1-.1-1,.2,0,0-.3,0,.1,0-.6,0-.2,0,0,.1-.7.1.1.1-.7.2.6,0,.1,0,.6,0-.5.1.4,0,.5,0-.4,0-.3,0-.8,0,.3-.2-.8.2.5,0Z"/>
      <path class="cls-2" d="M142.3,33h.5c-.2,0,.1-.1-.5-.2.6,0,.3,0,1.1,0-.6-.2-1.7-.3-.5-.3-1-.3.1,0,.6,0-.6-.2-.4,0,0-.2-.8,0-.5-.4-.4,0,.7,0,1.1.3,1.5.2-.1,0,0,0,.1-.1-.4,0-.9,0-1.4-.2.1,0,.3,0,.5,0-.2,0,0-.1.3,0-.8-.2-1.3-.4-.2-.1-.2-.1,0,0,.1-.1-.8-.2.3,0-.4-.2,0,0,.7,0,.1-.1.6,0,.2-.3.8-.1,0-.2-1-.4,0-.3-.8-.2.6,0-.2-.2.9-.6,1.7,0,.7-.4.3,0,.5-.1,0-.5.2,0,.4,0,.3-.1.5.4-.2-.4.5.1,0-.1-.4-.4.1-.1-.3-.2.1-.3.8-.2-.4-.2-.3-.3-.5-.5.6.4.7-.7,1.6-.4,0-.1-.9-.7,0-.1-.1-.3.2-.2,0-.6,1.3.7.5-1.1,1.3,0,0-.2,0-.3-.4-.7.4.3.3.3.2,0,1,.6,1.5-1,2.4-1.7.4,1.5.4,4-.2,3.8,0,0,.2,0,.5,0-.6.2-.5.6-.2.8-.4-.2-.5.2-.3.1-.2.3,0,2.6-1.2,2.4.3,0,1.6.5.2.7,1.2.2-.4.5.3.4.7.2-.4.2.3.3-.7.3,0,.8-.5,1.1.5,0-.5.9,0,1.4-.8.7-.3,1,0,1.6,0,0-.7,0,0,0-.3.3-.8.5-.8-.2-1.7-.8-6.6-2.4-8.2-4,1.3.4,3.1,1.3,4.6,1.2.6,1.1,1.6.4,1.7,1.2.6-.4.2.3.9-.1,0,0-.1.2-.3.3.2-.2.7,0,1,.5.2-.1.5-.5.3,0,.7-.8.4.3.8,0-.3.4-.2,0-.2.6.9-.7-.9.6-1.1.6,0,0,.1,0,.2,0-.7,0,.2-.2-.5-.2-.4-.2.6-.1.6-.2-.3,0-1-.8-.2-.7,0-.8-1.4-.8,0-1,0,0-.5,0-.4,0-.4,0,.4,0,.1-.2.4.2,0,0,.6,0,0-.1-.8-.2,0-.2-.5-.2-.2-.1.1-.1-1.2,0-.8-1.1,0-1-.8,0-.6-.3,0-.2-.4-.2-.3-.7,0-1.2-.9,0-.8-1,0-.9-.3,0,0,0,.1-.1-.5,0-.1,0-.6,0,.8-.1.4-1.2.2-1,.7,0-.1-.5.9-.4-.2,0-1-.2-.3-.2-.2,0-.1-.1-.6-.1.3,0,.5,0,.9,0-.7-.2-1-.6-.2-.7-.3,0-.3-.2-.5-.1-.5,0,.4,0-.2-.1.7,0,1.4.4.4,0-.8,0,1.1-.4,0-.7,0,0,.7,0,.3-.1.5.1.5,0,.1,0,.1,0,.8.2.1,0,.8,0,.6-.3-.2-.1.2,0,0-.2.3-.2-.6.2-.5-.4.3-.4-.9,0-1.4-.3-.2-.2-.4-.2-.4,0-1,0,.5,0,.2-.4,1.4.2,0-.1-.5-.4-.7-.5.1,0,.4,0,.5.2,0,0,0,0-.2,0,.8.9-.1.3.4.9-.2-.2,0,.3-.5-.3.5.7-.3,0,0,.6-.5-.4-.2.2-.7-.4.2.3-.1.2-.6-.2.3.6-.3.7-.1,1.4-.5-.5-.7-.5-.9-.6,1,.5.3.7.5.6-.4-.3-.2-.2-.6-.5.3.2,0,.2.4.5-.4,0-.2,0-.7-.2.7.6-.4,0,.3.5,0,0-.2,0,0,0-.4-.2-1-.3-.2.2-.3,0-1.2-.6-.1.1-.8,0-.6.2-1.2,0,0,0,0,.1.3.3-.5-.2,0,.1-.4,0,1.3.9-1.3-.4-.1.3,0,0-.8-.1-.1.1-.2,0-.3,0-.6-.2.4,0-.6-.2.4.2-.2,0-.6,0,0,.2-.4,0,.2.4-.5.1.3.2,0,0-.3,0,.3,0,.6.4-.2.2.5.2,0,0-.1.1.6,0,.2.1,0,0,1.1.4,0,0-.8.1.2.3.9.2.6.3.4,0,.2,0,.7,0-.3,0,0,.3-.5.3-.3-.1.4.2-.8.2.7,0,.9.1,0,0,0,0,.6,0,.4.1-.4,0-.3,0-.6-.1-.2,0,.5,0,.2.1.4,0,.2,0,.2.1-.9,0-1.3,0,0,0-.3,0-.8,0,0,0,.2.1-.9,0-.6.1-.7,0-.9,0-1-.3ZM150.4,28.4c-.4-.5-.7-.7-.3-.2-.6-.4,0,.2.3.2ZM145.9,30.5c.4-.1-1.3-.6-.3-.3.3.1,0,.1.3.3ZM145.7,31.3c0,0-.1-.1,0-.1-.6-.2-.3,0,0,.1ZM144.7,31.6c0,0-.2-.1-.4-.2-.2.2,1.4.3.4.2Z"/>
      <path class="cls-2" d="M144.7,32c.2.1.2.2,0,.2.7.1.4-.2,0-.2Z"/>
      <path class="cls-2" d="M144.7,32.2s0,0,0,0h0Z"/>
      <path class="cls-2" d="M142.5,34.1c.4-.2,0,0,.7-.1-.3,0-.8,0-.4,0-1.1.2-.3,0-1.2,0,.1,0,.2.1.9,0Z"/>
    </g>
    <g>
      <path class="cls-2" d="M150.4,41.2c0-1.2.3,0,0,.4.3,0,.3-.8.3.1.8.5,0-.5.4-.3.5.2,1-.9.5-1.1.2,0,.3,0,.5,0,0-.3-.4,0-.6-.2.6,0,0-.2.3-.2.3.2.6-.4-.2-.2,0,.4-.4.2-.7,0,.7-.2.5,0,.1-.3-.9,0-.1.7-.1.6-.4-.1-.1,0,0,.2-.5-.4,0,.4-.4-.2.2.6,0,0,.3.5-.3-.3.1.5,0,.7-.1-.3,0-.3-.2-.7.3,0-.3-.6-.2.6Z"/>
      <path class="cls-2" d="M150.6,39.1h.4c-.2,0,0-.3-.6-.4.6,0,.2-.2,1,0-.5-.3-2-.3-.8-.6,0,0-.7,0-.5-.2.3.3,1.4,0,.4,0,.8-.4-.5-.1-.3-.5.4.2.8,0,1.5.3.3,0-.6-.3.1-.1.3-.5-2-.1-.9-.2-.2,0-.1-.2.1-.2-.8-.1-1.4-.3-.3-.2-.3-.1,0-.1,0-.2-.8-.1.2-.1-.5-.2,0,0,.5-.3,0-.3,1.1-.9-.7-.6.3-1-.7,0,.5-.2-.3-.3.7-.4-.9-.7,1-.9-.8,0-.7-.5-.9-1.1.6.2-.4-.4.4-.1-.5-.4.1-.2-.3-.5.6,0,0-.5.7-.6-.5,0-.4-.1-.8-.3.2,0,1-2.1.4-1.8-.2.1-.1-.1.3,0-.3-.3,0-2.2.4-1.9-.2-.1-.2-.3-.8-.4.6,0,.8-1.1.6-1.1.2-.5.1-.5,0-.9-.8.9-1.1.3-1.9,1.5,0-.5-.6-.1-.3-.1-.7.2-2.7,2.6-3.6,1.5.2.3.4,1.6-.7.8.4.7-.2.7-.5.4.7.6-.8,1-1.6,1.5-.4.9-2.9,1.4-3.4,3,0,0-.6-.5,0,0-2.9,1.5,14,6.5,9.8,5.9-3.7-.3-6.7-1.7-8.4-3.1-1.3,0-4.8-2-2.4-3.1-.3,0-.2-.7.3-.4,0-1,0-.7.7-.4,0,0-.5-.9.2-.2-.4-.5.1-1.2.4-.6.2-.7.9-.3.3-1.1.1-.3.4-.1.8.1-.2-.6-.5-.2,0-.4.1.5,0,0,.4.4.1-.1-.3-.8.2-.2-.1-.5,0-.3.2,0-.7-1.2.4-1,.8-1.4.7.6,0,.3.2-.2.3.5,0-.3.5.4,0-.5.6-1,1.4-1.1-.5-.7.5-1.6,1.1-.8-.1-.3.1,0,.2,0-.3-.4-.2,0-.4-.4.8.4,1.6-.6,1.3-.8.6.5.4-.5,1.1.2-.7-.9.5-.2-.3-.9.3.2.5.3.6.7-.2-.7,0-1.4.7-.9-.2-.2,0-.4-.2-.5-.3-.4.3.2,0-.2.4.6.5,1.3.3.3-.4-.6,1.2.4.8-.7,0,.1.6.4.4,0,.2.5.3.5.2,0,.4.6.1-.2.6.5.2-.2-.6-1.1.3-.5-.4-.9,1.1-.1.5.5.4-1,1.4-.6.3,0,.5,0,.3-.4.8-.7-.2.7,0,.5-.4.7.9.3,0,0-.2.4,1-.2.3.5.9.4-.3,0,.2.4-.6.3.8.2-.1.4.5.6-.6,0,0,.4-.7.4.3.1,0,.4-.6.4.8.4.2,1.1.9,1.8-.7-.2-.9,0-1,.2,1.1-.3.7.6.8.3-.5,0-.3,0-.7,0,.5.1.8.4,0,.6.9.2-.3.3.6.4,0,0-.2,0,0,0-.4.1-.9.4,0,.5-.3.2-1.3.1,0,.2-.6.5-.2.8-.9.8,0,.1.1.2.5.2-.5,0,0,.3-.3.4,1.6.5-1.2.3.2.6,0,.1-.7.3,0,.3-.4.2-1.2,0-.1.2-.2.4-.1.2.3.9,0,0-.8,0-.1.2-1.2,0,.8.5-.4.7.5,0,0,0,0,.2.6-.3.2.1,0,.2,1.2.3,0-.1-.6.5.5.5,1-.1.8.3.5-.3.9.3.4.7-.5-.3.7.4-.5.6,1.2,0-.3,0,.5.3-.8-.1-.5-.2-.3.1,1.2.2-2,.5.3.4-.3,0-.7,0,0,.1.3.3-.8.3-.4.4-.7,0-1.1-.1-1.2-.6ZM153.2,26.3c-.6,0-1,.1-.3.1-.7.2.1.2.3-.1ZM151.5,33.2c.2-.4-1.4,0-.5-.2.3,0,.2.2.5.2ZM151.7,34.7c.1,0,.4,0,.1-.2-.5-.1-.4.2-.1.2ZM151.9,35.7c-.5,0-.4,0-.9-.2-.1.2.7.3.9.2Z"/>
      <path class="cls-2" d="M151.7,36.5c.3.2.3.3.2.4.7,0,.2-.5-.2-.4Z"/>
      <path class="cls-2" d="M151.9,36.9s0,0,0,0h0Z"/>
      <path class="cls-2" d="M149.8,41.4c.5.5,0,0-.2.4.6.6.3-.6.7-.1-.4-1,0-.1.1-1.2-.1.2-.3.3-.6.9Z"/>
    </g>
  </g>
  <g>
    <path class="cls-2" d="M79.5,161c-1.4.2.6-1.8.4.2.6-.8-.3-.4.3-1.2,0,1,1.1-.3.8-.6-1,.6,2.8-4.5,2.1-5.3,1.4-1.3,1.1-.9.6-1.4.9,0,.8-2,.7,0,1.4-2.7.6-2-.5-.3.4-.7-.4-.5-.1-1,.6-.9.4.4,1-.5-.3-3.3-2.7,3.6-2.9,4.5-1.2.9-.6,1.8-1.8,2.4.2,1,.2-.3.7,0-1.2,1.3.2.6-.1,1.6-.5.2-.2-.2-.8,0,1.4-2.8-2.1,2.9-.1,1.6Z"/>
    <path class="cls-2" d="M86.4,145.3c1.3-.2,1.3-.5,1.6-1.9-1.3,1.8-1.2.2,0-1.6,0,.7.2,0,.5,0,.2-.5-.6-.3.1-1.2-.2,1.1.4.5,1,.1-.6-.9-.2.2,1-2.2-1.3.4-.6.1-.1-1,.6-.8,0,.5-.3.9.4,0,.7-.8,1.1-.5,0,.4-.4,1.2,0,1.3.3.1.3-1.7.5-.7.2-.8.3-.7.8-1.6-.9,1-2.2,0-1.2.4,1.9-3.1-.7-1,.6-2.7.6,1,1.2-1.3,1.2-2,2.1-2.6,2.5-5,4-7,6.8-13.6,17.8-32.1,26.4-48.2,1.9-3.2,5.6-10.3,6.3-11.4,3.3-6.5,5.9-9.8,8.8-16.2-.4,1.6,1.5-1.8.8-.9,15-28.6-4.7,5.5-9.4,14.5-3.1,6.5-10,17.2-13.1,24.7-13.3,22.4-25.7,49.2-39.2,73.5,6.5-15.7,18.7-37.9,26.8-53.1,2.6-3.7,7.5-16,8.9-16.8.4-.4.6-1.3,1.2-1.7.5-2.2,2.4-5.4,4-7.3-.3-1.2,1.5-4.4,1.9-4,1.7-3.9,3.5-7.7,4.7-9.6-.3,1.9,3.3-4.7,1.8-3.4,5.6-9.3,8.5-14.8,14.6-26.3,7.6-9.6,5.2,2,.4,5.9,1.1.3-1.5,2.5-.1,2.2-.6.4-1,.7-1-.1.3,2.3-3.2,5.9-2.9,6.8.5.1-.7.6-.3.9-.7.5.1-1.5-.3-1.8.1,2.9-2.5,3.9-3.3,7.7,0-.9-1.7,2.4-.9.5-.4,0-.5,1-.4,1.1-.5.7,0-.5-.3-.5-.2.5-.4.9-.3,1.2-.5.7-.2-.7-.8.3.6.1-.8.8-.4,1.4,1.8-2,.2.3-.4,1.1.2,0,.4-.1.5-.4-.2,1.1-2,3.7-2.7,4,.1,0,0,.2,0,.3,2-2.1,0,2.4-.6,1.1-.4,1.4.6-.4,1.1.2-1.1,1-.9,1.3-1.4,1-.8,1.3.6.4-.3,1.2-.6.1.1-.9-1,.5,1-.1-.9,4.3-1.5,3.5-2.4,6.4-7,9.9-9.1,17.4-.7-1.2-2.6,2.6-.5,0-.2,1-2.2,4.4-1.1,2.4-.5,0-.4,0-.7-.3-2.1,6.2-4.6,8.5-7.1,14.3-1-.6-1.9,3.7-2.6,5.3-.4-.8-1.3,1.8-.7-.3-.3,0-.8,1.5-.4,1.4-.6,1-2.2,3.4-1.5,1.9-2.9,7.6-5.9,10.9-9.3,17.2.5-.5.9-.9,1.2-1.3,0,1.8-1.4,4.8-4.2,7.8,0,.6.4,0,.8-.6-.4,1.7-1.1.7-1.2,2.4-.5,0,0-.7-.3-.8-.2.5-.5,2.1,0,1-.2,1-.9,2-2.1,2.3-.2.7.7-.6,1,.1-.6.7-1.5,2.5-2.1,3-2.3-.9,2.1-3.9,1.2-5.3ZM123.7,79.6c-.2.6.5-.9,1-1.2-.9,0-.6-.5-1,.5-.6.5.5-.4.3.1-.5,0-1.1,1.6-.3.5ZM103.1,115.8c1.4-2.5-1.5-.2,0-1,.4,0-.2.8,0,1ZM99.6,123.6c.3-.5.1-.7.4-1.1-.3-.5-1.4,1.8-.4,1.1ZM96.4,129.3c-.3-.5-.5.4-.5-.9-.8,1.2,0,1.5.5.9Z"/>
    <path class="cls-2" d="M94.2,133.2c-.1.8-.5,1.5-.9,2.2.8,0,1.6-2.6.9-2.2Z"/>
    <path class="cls-2" d="M93.2,135.4h0s0,0,0,0Z"/>
    <path class="cls-2" d="M77.3,162.6c2.2.5.9.2-.2.4,1,.5,1.9,0,2.4-.3-.7-.4.7-2.1-.5-.7-2.5,1.4.9-.4-.5-.8,0,.9-1.1.7-1.3,1.4Z"/>
  </g>
  <g>
    <path class="cls-1" d="M146.7,28c6.1-6,7.1-2.7,5,3.8-1,.2-6.8-2.2-5-3.8ZM149.1,28.7c1.6,1.1,1.3.3,1.5-1.1,0,0-1.5,1.1-1.5,1.1Z"/>
    <g>
      <path class="cls-2" d="M149.4,28.6c-1.2,0,0,0,.4,0-.3,0-.4,0,.1,0,.5,0-.8,0,.1,0-1,0,0,0-.8,0,.2,0,.2,0,.4,0-.2,0,0,0,0,0-.3,0-.6,0-.6,0,.8,0,.8,0,0,0,0,0-.6,0-.6,0,.1,0,.5,0,.6,0-.3,0-.5,0-.5,0-1,0-.2,0-.3,0,0,0-.3,0,.2,0-.5,0-.1,0,.2,0-.3,0,0,0-.4,0,0,0,.4,0,.5,0-.2,0-.3,0-.4,0,.6,0,0,0,.6,0-.4,0,.5,0,.6,0-.3,0-.3,0-.7,0,.4,0-.3,0-.3,0,.5,0,0,0,.9,0Z"/>
      <path class="cls-2" d="M148.3,28.4h.4c-.2,0,0,0-.6,0,.6,0,.2,0,1,0-.6,0-1.9-.3-.7-.2-1.5-.2,1.4.2,0,0,.8,0-.4,0-.3-.1.1,0,.2,0,.1,0,.7,0,1.3.2,1.5.3-.2,0,0,0,0,0-.3,0-.8-.1-1.3-.2,0,0,.2,0,.4,0-.2,0-.1,0,.1,0-.1,0-.8-.2-.7-.1-.7-.2.4,0,.4,0-.3,0,0,0,0,0-.8-.2.2,0-.4-.1,0,0,.5,0,0,0,.6,0,.7.1-.1-.2,0,0,.3,0,.4,0-.7-.2.5.1-.3-.1.2,0,.2,0,.4.1,0,0-.2,0-.4-.2.2-.1.6.2,1,.3-.1,0-.4-.2-.7-.3.2,0,.3,0-.2-.3.2,0,.3.1.1,0,.1,0,.1,0,.3.1-.4-.3,0,0,.1,0,0,0-.5-.3,0,0,0,0-.4-.2-.3-.2.6.3,0-.1.7.3-.4-.2-.3-.2-.6-.4.5.3-.1-.2.4.2-.1-.2,0-.2.4,0,0,0-.8-.7-.1-.1-.2-.2,0,0-.3-.4.7.5.5.3.3,0,0,0,.2.2.4.4-.1-.2-.1-.2-.5-.6.3.3.3.3.1,0,.7.8.2,0,.5.3,0,0,.1-.2.1-.6,0,.1,2,1.4,1.1,1.3.4,0,.2,0-.2.1.6,0,.6,0,0,0,0,0,.2,0,.5,0-.6,0-.5,0-.2.1-.4,0-.4,0-.3,0-.3,0,.7.2-.3.1.6.2-.5.3-.7.2,0,0,.6,0,.8,0-.4,0,.6.1-.5,0,.8,0,.4,0,0,0,0,0,.3,0,.3,0,.7,0-.4,0,.3,0-.6,0,0,.1-.4.2.3,0,0,0-.1,0,.7,0,0,0,0,0,.6.2.2,0-.1.2,0,0,.7.2.6.2,0,0-.7,0,0,0-.2,0-.8.6-.4,0-.3.4-.2.1,0-.1-.2.3-3.1-.3-2.1-.5,1.3-.1.2,0,.2,0,0,.1,1.2,0,1.1,0,.9-.3.2,0,.4,0,0,0,.1,0,.4-.2.1,0-.4.3-.2.2.3-.2.5-.3.1,0-.1.1.6-.4,0,0,.5-.5,0,.1.4-.4,0,0-.2.2-.3.3.3-.3.2-.2.1,0,.1-.2.4-.6.1-.1.6-.9,0,0,.3-.3-.2.4,0,.1-.3.5.7-.8-1,.6-1.2.5,0,0,.1,0,.2,0-.7,0,.2,0-.5,0-.4,0,.6,0,.6,0,0,0-1-.1,0,0,0,0-.5,0-.6,0,.3,0,0,0,0,0,.6,0-.2,0,.4,0-.4,0,0,0,0,0-.8,0-.1,0-.8,0-.2,0,.2,0,.6,0,0,0-.5,0-.4,0-.4,0,.4,0,.1,0,.4,0,0,0,.6,0,0,0-.8,0,0,0-.5,0-.2,0,.1,0-1.1,0-1-.3,0-.2-.3,0-.9,0,0,0-.4,0-.6,0,0,0-.3,0-.3-.1,0-.1-.7,0-.1,0-.8-.1,0,0,.6,0,.8,0-.3,0,0,0,.1,0-.5,0,0,0-.6,0,.8,0,.4,0,.2-.1.3,0,.6,0,0,0,.7,0-.2,0,.8,0-.2,0-1,0-.3,0-.2,0-.1,0-.6,0,.3,0,.5,0,.9,0-.7,0-1.1-.2-.2-.1-.3,0-.4,0-.5,0-.5,0,.4,0-.2,0,.4,0,.6,0,1.1.1-.1,0-.7,0-.5,0-.5,0-.5,0,.1,0-.4,0,0,0,0,0,0,0-.5,0-.5,0,0,0,.7,0,.3,0,.5,0,.5,0,.1,0,0,0,.2,0,.5,0,0,0-.1,0-.3,0,.8,0,.5,0-.2,0,.1,0,0,0,.3,0-.6,0-.6-.1.2,0-.4,0-.7,0-1.1,0,.1,0,.6,0,.9,0-.5,0-.4,0-1,0,.6,0,.4,0,1.4.5,0-.2-.6-.4-.7-.5.1,0,.4.1.5.2,0,0,0,0,0,0,.3.3.6.9.3.4,0,0,.2.2.3.4-.2-.2,0,.2-.4-.4.5.6,0,0,.3.4-.4-.5,0,0-.5-.5.2.3,0,.1-.4-.4.7.7-.2-.1.5.7,0,0-.3-.1.1.2-.5-.4-.7-.5-.8-.6.5.4.4.3.7.6-.1-.1-.4-.3-.1-.1-.4-.3-.2-.2-.6-.5.3.2.1.1.5.4-.3-.2,0,0-.5-.3.7.5-.2-.1.5.4,0,0-.1,0,0,0-.4-.2-.8-.5,0,0-.1,0-.2-.1-.6-.4,0,0,.3.2.6.4-.2-.1-.5-.2-.3,0-.7-.4,0,0-.5-.3,0,0,.1,0,.4.2-.5-.2,0,0-.3,0,.5.3.3.1.5.3-.4-.2-.5-.2-.4-.2-.4-.2-.6-.3,0,0,0,0-.6-.2,0,0-.1,0-.2,0-.6-.2.3,0,0,0-.1,0,0,0,.2.1.6.2-.3-.1.3.1-.3,0,0,0,.2,0,.4.2-.1,0-.1,0,.1,0,0,0-.8-.3-.1,0-1-.3.7.2-.4,0,.5.1,0,0,0,0,.6.1.2,0,0,0,1.1.3.2,0-.6,0,.5.1.8.2.7.2.4,0,.1,0,.6.1-.2,0,.2,0-.1,0-.6-.1.7,0-.6,0,.6,0,.9.1,0,0,.8,0,.2,0-.1,0-.1,0,.5,0,.3,0,.4,0,.2,0,.3,0-.5,0-.6,0-.9,0,.1,0,.4,0,.9,0-.3,0-.7,0,0,0,.3,0-.8,0-.4,0-.4,0-1.1,0-1.2-.1ZM150.7,28c-.2-.2,0,0,0,0-.2-.2-.3-.3-.5-.6,0,.1,0,0,.3.4-.4-.4-.1,0,0,.1ZM149.4,27.8c.3,0-1.3-.6-.4-.2.3.1.1,0,.4.2ZM149.8,28.2s-.2,0-.1,0c-.6-.2-.2,0,.1,0ZM149.6,28.2c-.4-.1-.4-.1-.9-.3-.1,0,.7.2.9.3Z"/>
      <path class="cls-2" d="M149.5,28.3c.3,0,.3,0,.2,0,.7.2.2,0-.2,0Z"/>
      <path class="cls-2" d="M149.6,28.3s0,0,0,0h0Z"/>
      <path class="cls-2" d="M149.7,28.6c.4,0,0,0,.6,0-.2,0-.5,0-.6,0,0,0,.1,0,.1,0-1,0-.3,0-1.2,0,.2,0,.3,0,1,0Z"/>
    </g>
    <g>
      <path class="cls-2" d="M150.9,32.1c.5-1.5-.4,1.1,0,.2,0,0-.2,1,0,.4,0-.5.2,0,.3.1,0-.9.5,0,.2-.8.1.2.1.2.2.4,0-.2,0-.1,0,0-.4-.8,0-.5,0,0,.2-.4.4.1,0-.5-.2.1-.7-1.2,0-.1-.5-.9-.5-.9-.4-.4-.1-.4,0-.1,0,.2,0-.3,0,0,0-.4,0,.5,0,.5,0,0,0,.6,0,0,0,.6,0-.4,0,.5-.2.6,0-.3,0-.3.1-.7,0,.4.1-.3,0-.3,0,.5-.2,0-.3.9Z"/>
      <path class="cls-2" d="M151.2,30.9l.3.3c-.2-.2,0,0-.5-.4.5.3.2.1.9.5-.5-.5-1.6-.6-.7-.4-1.6-.3,1.4.2,0,0,.7,0,0-.2-.2-.1-.4,0,0-.2,0,0,.7,0,1.3.2,1.5,0-.1-.2-.7,0-1.4-.1,0,0,.2,0,.4,0-.2,0-.1-.1.1-.1-.1,0-.9-.2-.7,0-.7-.1.4,0,.4,0-.3,0,0,0,0-.1-.8,0,.2,0-.5-.1,0,0,.5-.1,0-.1.5,0,0-.3.6-.2,0-.1-1.2-.2-.3-.2-.7,0,.5,0-.3-.1.4-.1.5-.1,0-.2,0-.4.6-.1,1-.2-.1,0-.5,0-.7,0,.2,0,.3-.2-.3-.3.2,0,.3,0,.1-.1.1,0,.2,0,.3,0-.5-.2-.2-.1.1,0,0,0-.6-.2,0-.1,0,0-.4,0-.3-.1.6,0,0-.2.7-.2-.5,0-.4,0-.8-.2.6,0,0-.5.8-.8-.1,0-1.1,0-.2,0-.3-.1,0-.2-.5-.3.8,0,.6-.4.2-.6.1,0,.3,0,.6,0-.2,0-.2-.2-.8-.2.5,0,.4,0,.1,0,1,0,.1-.4.5-.4-.3,0,.1-.2-.1-.2,0,0,0,0,.1-.2-.3.3,0,.1-.1-.2,0,.6,0,.6,0,0,0,0,0,.2,0,.5,0-.6-.3-.4,0-.1,0-.3-.4-.4-.2-.2-.3-.2,0,.8-.7.1,0,.6-1.1.8-1.3.2.1.2.8,1.4-.2.5.4.6,0,.5-.2.2,0,0,.2.2.2.2.4.6-.4-.2,0,.4-.6-.4-.4.4-.9.2.2.2,0,.1-.2,0,.4.8-.6-.4-.4.7-.9-.2-.7.3-.8.7,0,0-.5-.5,0,0-.4-.2,0,.2-.5,0-.4,2,4.1,1.2,4.8,2.7-.9,1.1.5-.5-1.9,0-.6.7-.4-.1-.7,0-.6.8-.3-.2-.8-.4-.3,0-.7.4-.3,0,0-.2-.7.4-.4-.3-.4.5-.2-.3-.6.3,0,0,0-.3.2-.4-.2.6-1.3-1.5-1-1.3-1-.2.1-.7-.1-1.1.4.4,0,.1.6.2-.2,0-.4-.5.1-.2-.5-.5.3,0-.1-.5-.2-.4.5.4.5.3,0,0-.6-.9.1-.1-.2-.3-.3-.4-.2-.7.4.5,0-.2.3.3-.2-.4.2-.2.3-.2-.5-.6,0-.1-.4-.6,0-.2.7.4.2,0-.2-.3.3.3.2,0,.2.4,0,0,.4.5,0,0-.4-.7,0,0-.2-.5,0-.2.2,0-.7-.9,0-1.2.6-.4,0-.1-.4-.3-.3-.5.3.5,0-.2.4.4,0-.4-.3-.6.2-.2-.1-.3.2-.5.5-.4-.6-.8,0-1.1.5-.4-.2-.3,0,0,.2,0-.3-.4-.1,0-.4-.4.6.5.6,0,.5-.2.2.2.5.4.1-.1.5.5.2-.3.8.4-.2-.2-.5-.8-.1-.3,0-.2,0-.2-.3-.5.2.2.4.4.6.7-.4-.5-.2-1.3.4-.5-.1-.2,0-.4,0-.5-.1-.4.2.3,0-.2.2.3,0,.6.1,1.1,0-1.1,0-.9.5-.3.4-.9,0,.3.3,0-.3.5-.2.5,0,.2,0,.1-.4.7,0,.2,0,.1-.3.5-.3.5.4-.5-.2.3.3-.2.3-.4-.2,0,.2-.4,0,.2,0,.2,0,.3.3-.6.7,0,0,.4.7-.6,1.4-.4.2,0,.5,0,.3-.2,1-.4-.4.4-.1.3-.6.4,0,.2.7-.2.3,0-.3,0-.4,0-.6.2.9-.2.4.2.9.2-.3,0,.2.2-.6.1.8.1-.1.2.5.3-.6,0,0,.2-.7.1.3,0,0,.2-.6.2.8.3.1.3,1,.9-.7,0-.9,0-1,0,1,0,.7.3.8.2-.5,0-.3,0-.7,0,.3,0,.2.1.6.1-.3.1,0,.1-.6.2.9.1-.3.1.6.2,0,0-.2,0,0,0-.4,0-.9.1,0,.2-.4,0-1.2,0,0,.1-.3.1-.5.1-.3.3-.8-.2,0,.1-.6,0,0,0,.1,0,.5.1-.5,0,0,.1-.3.2.5,0,.3.1.5.1.5.1-.6,0-.3.1-.5-.1-.6,0,0,0,.1,0-.7.1,0,.2-.4,0-1.3,0-.1,0-.3,0,.3.1-.3,0,0,0,.2,0,.5,0-.3.2.6.3-.3.2.5.1,0,0-.1.1.3,0,.8.3,0,.2.5,0,0,0,0,.1.5,0,.2,0,0,0,1.2.2.1,0-.6.2.5.3.8,0,.8.2.4,0,.1,0,.6,0-.2,0,.3.3-.1.4-.5-.2.7.3-.6.3.6,0,.9.3,0,0,.7.4.2.3-.1,0-.1,0,.5.3.2.3.4.1.1,0,.2.3-.4-.3-.5-.3-.7-.5,0,.1.3.2.7.6-.3-.1-.6-.4,0,0,0,.4-.7-.4-.5-.1-.3-.3-.5-.9-.7-1ZM153.2,25.8c-.6,0-1,0-.3,0-.7,0,.2,0,.3,0ZM151.8,28.9c.2-.2-1.4,0-.5-.1.3,0,.2,0,.5.1ZM152.4,29.6s-.2,0-.2-.1c-.7,0-.2.1.2.1ZM151.9,30.1c0,0-.2,0-.5-.1,0,.2,1.4,0,.5.1Z"/>
      <path class="cls-2" d="M152.2,30.4c.3,0,.3.1.2.2.7,0,.2-.2-.2-.2Z"/>
      <path class="cls-2" d="M152.4,30.6s0,0,0,0h0Z"/>
      <path class="cls-2" d="M150.5,32.3c.3.3-.4,0,0,.6.6-1,.1-.5.7-1.5-.1.2-.2.3-.6.9Z"/>
    </g>
  </g>
</svg>