<?xml version="1.0" encoding="UTF-8"?>
<svg id="Layer_1" data-name="Layer 1" xmlns="http://www.w3.org/2000/svg" version="1.1" viewBox="0 0 200 200">
  <defs>
    <style>
      .cls-1 {
        fill: none;
      }

      .cls-1, .cls-2 {
        stroke-width: 0px;
      }

      .cls-2 {
        fill: #fff;
      }
    </style>
  </defs>
  <g>
    <path class="cls-1" d="M177.2,22.7c4.3,187.4,4,112-165.9,125-3.2-1.8,164.2-131.5,165.9-125ZM12.3,146.9h0,0ZM175.1,23.2L13.8,145.7l160.2,1.4,1.1-123.9ZM159.4,54.5c1.2,2.4,2.6,76.9-1.5,78l-96.4-.9c-8.3-3.2,96.7-76.5,97.9-77.1ZM158.4,56.6l-96.1,72.9,95.4.8.7-73.8ZM157.9,131.5h0s0,0,0,0Z"/>
    <g>
      <path class="cls-2" d="M157.8,131.8c.2-.5.3-.7.3-.8-.2.6-.3.8-.5,1.3,0-.2,0-.2.1-.4,0,.2-.1.4-.2.5,0,.1,0,0,0,.1.4-1.1,0,0,.4-1,0,.3,0,.3-.2.5.2-.4.3-.7.3-.8-.2.6,0,.2-.3.7,0-.1,0-.2,0-.2,0,0,0,0,0,.2,0-.3.4-1.1.5-1.5,0,.1-.2.6-.3.7.2-.5.3-.8.3-.9,0,0-.2.4-.2.4.2-.4,0,0,.2-.5,0,0-.2.5-.2.6,0-.2.2-.4.2-.6-.2.7-.4,1-.6,1.5.2-.4.3-.7.5-1.3-.2.7,0,0-.4,1.2Z"/>
      <path class="cls-2" d="M158.4,130.3s0,0,0,0l-.2.6c.1-.3,0,0,.3-.8-.3.7-.1.3-.5,1.3.2-.5.6-1.7.6-1.6-.2.4,0,.2-.2.6,0,0,.1-.4.2-.6,0,.2-.3.8-.4,1.1,0,0,.2-.5.2-.6,0,0,0,.2-.1.3.1-.4.2-.6.3-.8-.3.8-.4,1.2-.8,2.1.2-.4.4-1,.6-1.7,0,0-.2.5-.3.7.1-.4.7-2,.1-.4,0,0,0,0,0,0,.3-.7,0,0,.2-.6,0,0,0,0,0,0-.2.6,0,0-.3.7,0,0,.2-.5.4-1,0,0-.1.4-.2.5.1-.4,0,0,.1-.4,0,.3,0,.2-.2.5,0,0,.2-.4.2-.6-.3.7-.3.7-.5,1.3.2-.4.3-.8.5-1.4,0,.2-.1.3-.2.5,0,0,.1-.4.1-.4-.2.5-.3.8,0,.1-.3.8,0-.1-.3.9.2-.6.2-.5.4-1-.2.5-.1.3-.3.9,0,0,.1-.3.2-.6,0,.1,0,0-.1.4.1-.4,0,0,.2-.6-.1.4-.2.5-.4,1,0-.3.1-.3.4-1-.2.6-.3.7-.3.8,0,0,0-.2,0-.2,0,.2,0,0-.1.3,0-.2,0-.1,0-.2,0,.2,0,.2-.1.4,0-.2.2-.5.2-.6,0,.2-.1.3-.2.6,0,0,0-.3.2-.6-.2.5-.6,1.5-.6,1.8.2-.4.2-.6.4-1.1,0,0-.3.7-.4,1,.1-.3-.1.3.2-.6-.2.4-.2.5-.3.9.2-.7,0,0,.2-.5.2-.5,0,.2,0,.3,0,0,.2-.6.2-.6,0,0-.2.5-.3.7,0,0,0,0,0,0,.1-.3,0,0,.2-.6-.2.5-1,2.6-.4,1,.2-.5.5-1.3.7-2,0,.1-.1.4-.2.5,0,0,.2-.4.2-.5,0,0-.1.4-.2.4.3-.7,0,0,.2-.7,0,.1-.1.3-.2.6,0,0,0,0,0-.2,0,0,0-.1,0,.2,0,0,0,0,0-.2.3-.7,0-.2.2-.5-.2.6,0,.1-.3.7.2-.6,0,0,.2-.6-.5,1.2-.1.4,0-.2-.2.6,0,0-.2.6.4-1,0-.1.4-1,0,.2-.1.3-.3.7,0,0,.2-.5.2-.6-.2.5-.4,1.2-.2.5,0,.3-.1.3-.2.6.1-.3.2-.6.4-1,0,.2,0,.2-.1.3,0,0,.1-.3.1-.4-.2.4-.1.3-.1.3-.1.3-.1.4-.3.7,0-.1.2-.4.3-.8-.3.7,0-.2-.3.7,0,0,0,0,0,0,0,0,0,0,0,0,.3-.8,0-.2.4-1,0,.2-.3.9-.4,1.2.2-.6,0-.1.3-.7-1,2.7-.6,1.7-1,2.6.3-.9,0,.2.4-1-.1.4-.2.5-.4,1.2.1-.4.2-.7.4-1.1-.1.4-.3.8-.4,1.1.2-.5.3-.8.5-1.3,0,.1-.2.6-.3.8,0-.2,0-.1.1-.3,0,.1,0,.2,0,.2,0,0,.1-.3.1-.3,0,0-.2.6-.2.6,0,0,.3-.8.3-.7,0,.2,0,.1,0,.2,0,0,.1-.3.2-.6,0,0,0,.1-.1.4,0-.2.3-.7.3-.7-.2.6-.1.3-.3.9,0-.2,0,0,.1-.3,0,.2-.1.3-.1.4,0-.3,0-.2.2-.7-.2.5-.3.9-.5,1.3,0-.2.3-.7.4-1.1-.2.6-.2.5-.5,1.3.2-.7,0-.2.3-.9,0,0,0,.1-.1.4.1-.4.2-.5.3-.7-.1.4-.2.6-.4,1.2.1-.4,0,.2.3-.7-.3.8,0,0-.2.6.3-.7.2-.6.6-1.6-.4,1.1,0-.1-.4,1.1,0,0,0,0-.1.3.3-.9.4-1.1.5-1.3-.3.9-.2.6-.4,1.2.2-.6.2-.6.4-1.1-.2.4,0,.2-.3.8.1-.4,0-.1.3-.7-.3.8,0,0-.3.9,0-.2.1-.3.3-.9,0,0-.2.5-.4,1,.3-.7.2-.5.4-1,0,0,0,.2-.2.6.2-.4,0,0,.1-.3-.3.7-.1.4-.3.8.2-.5.3-.7.3-.9,0,.2,0,.2-.2.4,0-.2,0-.3.3-.7,0,0,0,.2,0,.2,0-.2,0-.2.1-.4,0,0-.1.3-.3.8,0-.2,0,.1.1-.3,0,.1-.2.5-.3.8,0,0,.1-.3.2-.6,0,0,0,.2-.1.4,0,0,.2-.5.2-.5,0,0,0,0,0,0,0,.2,0,.1,0,.2,0-.1,0-.1,0-.1,0,0-.2.5-.3.8.2-.5.3-.7.5-1.5-.4,1-.3.8-.6,1.7,0,0,0,0,0-.1h0c0-.1,0-.1.3-.6,0,.2-.2.5-.2.5.1-.3,0-.2.2-.5,0,0-.2.5-.2.6.2-.5.1-.4.3-.8,0,.2-.3.7-.3.8.2-.6.3-.7.4-1.1,0,.2-.2.5-.4,1.1,0-.3,0-.3.2-.5.2-.6.3-.7.6-1.5ZM157.9,131.7s-.2.5-.2.5c.1-.4.2-.5.3-.9,0,.3-.1.3-.2.6,0,0,0,0,0-.2ZM158.2,130.8c0-.3,0-.3.3-.8,0,0,0,0,0,.2-.2.4,0,.2-.2.6ZM158,131.2s0,.1-.1.4c0,0,0-.2,0-.2,0-.1,0,0,0-.2ZM157.9,131.5c.2-.6.2-.5.4-1.1,0,.1-.3.8-.4,1.1Z"/>
      <path class="cls-2" d="M158,131.4c0,.2,0,.2,0,.3,0-.2,0-.2,0-.3Z"/>
      <path class="cls-2" d="M157.9,131.6s0,0,0,0h0Z"/>
      <path class="cls-2" d="M157.7,132.3c0,.2-.1.3-.3.7.1-.3.3-.7.3-.8,0,0,0,.1,0,.2.4-1,.2-.5.6-1.5,0,.3-.2.4-.5,1.4Z"/>
    </g>
    <g>
      <path class="cls-2" d="M158.2,59.4c.6-2,.3,1.2-.3.6-.2,2.4.1,1-.3,4.7.7-1.1-.1,3.5.5,2.3-.2.9-.2,1-.3,1.4.1-.1,0,.2,0,.6.3,0,.4-1.4.5-.7-.5.8.2,2-.5,1,0,4.1.3.8.5-.7,0,.9.4-.4.5.2,0,1.2-.4.4-.5,1.6,1.9,0-.3-5.9.6-8.1,0-.6-.3.9-.3,0,.4-.9.3-1.7-.1-.1.3-2.2-.3,0-.4-.7.2-.8.2-.3.5-1.2-.2,1.7.4,0,.2-.7-.4,1.2,0-3-.6,0Z"/>
      <path class="cls-2" d="M159,70.5c.3,2.2-1,4,.2,4.6-2.4,5.6,1.5-1.9-.2,4.5,0,.5.7-.7.5.8-.2,0-.2-.5-.5-.2-.4,1.2-.4,4.2.2,2.5.3-.4,0,1,.2,1.4-.1,1.1-.2-.4-.2-.8-.4.4-.3,1.3-.8,1.6-.9-1.8-.6.8-.8,2.1.4-.9.8-1.7,1.4-2.4,0,.7-.2.8-.5.7.3.2.1,1.1-.1,1.6.7.9,1.2-2,1,.4-.9.2-.6,2.1-.1,2.5,0,.5-.6,2.5,0,1.8-1,3.7.4,4.2-.2,6.6.4-.9.3,2.6-.1,3.4,1.3.2.4,2.9-.7,4.5,1.8,0,1.3,10.9.2,14.1,1.2.5,1.3,12.8-1,11.5-6.5,0-17-.4-23.8-.4-3.7-.2-11.8-.1-13.1-.2-7.6.2-11.2-.9-18.5-.2,1.6-.6-2.3-.6-1.2-.4-46.2-3.7-51,9.5-10.6-23,21.8-15.1,45.7-35.9,68.4-52-16.5,13.3-34.9,28.2-49.1,38.9-5.1,3.6-10.5,8.6-15.5,12.6,0-.3.2-.6.6-.9-.5.1-1.1,1-1.8.9.3,1-2.7,1.7-2.6,2.8-.8,1.3-1.7.4-2.4.9-.5,1-4.8,5.5-5,4.3-3.3,3-6.1,5.7-8.1,7,.6-1.2-.3.1-.7-.5-.7.6-.5,1.8-1.2.9-.5.6-.2,1.3-1,.6,0,.4-1.1,1.6-.1,1.4-3,2-4.5,4.4-7.2,4.2-.6.7.5.2.5.6-.6.3-1.6,1.3-2.1.7-4.9-2.5,15.5-1.8,18.5-1.7.9,1.8,10.7-.8,15,1.4-.2-1.4,2.9.2,2-1.2.7.4,1.1.7.3,1.2,1.9-1.8,6.8,0,7.4-.9-.1-.6.9.5.9-.2.7.5-1.4.8-1.4,1.4,2.5-2,4.6.4,8.4-.9-.7.5,2.7.6.8.8,0,.5,1.1,0,1.2-.2.9.1-.4.3-.3.6.6,0,1-.1,1.2-.4.8.2-.6.7.6.8-.2-.9,1.1.5,1.5-.4-2.6-.8,0-.5,1.2-.2-.1-.2-.3-.4-.6-.4,1.1-.4,4.3,0,4.8.7-1.3-1.3,1.5-2,1.5-.2,1.5-.5-.7-.5-.4-1.4,1.4.7,1.6.3,1.5,1,1.5,0,0-.9,1.2-.4.4.7-1,.4.9.8-.9-1,4.5-1.6,3.9-.4,6.8-1.2,11.8,2,19.7-.2-.9,1.6,3.7,1.5.3.6,1.1-.4,5-.2,2.7-.2.2.6.2.4,0,1,.3-.4,2.3-1.2,1.4-.4.5-2.1.5-3.5-.2-5.1.6-1,1.2-2.7,0-3,.2-.9,1.9-1.7,0-1.5,0-2.1,1.6-5.9.5-6.3,1-2.5-1-3.1.1-5.4,1.5,1.8-1-3.4.7-3.9-.5,1.7.8-.9-.6,0,.2-2.1,0-2.9-.4-5.1,1.5-1.9-.8-2.7.7-5.7-.4-.7-.3-1.1,0-2.7,0-.8-.9.9-.7-.4,1.9-.2.7-3.7.9-5.2-.2,1.1-.8,3.2-.5,1-.9,3.4-.7-2.5-.4-3.5.2.6-.4-2.3.5-4.3-.1.2-.1,0-.1-.1-.9,2.8.1-.2-.3-1.2.4-.6.3.3.6,0,0-1-.5.2-.3-1.2-.6,1.8,0-2.2.5-3-.1-.6-.3,1.2-.8,1.3.1-1.2.2-3,.4-4,.4-1.6.5.4,1-.8ZM136,129.8c.6,0-2.4-1-1.2.4-.7.2.8,0,.9,0-.3,0-.7-.3-.3-.4,0,.6,2.2.4.6,0ZM158.6,110.2c0,2.9,1.7-1,.6.7-.4.2-.2-.8-.6-.7ZM158.2,101.3c-.4.6-.3.8-.2,1.6.6.2.5-1.8.2-1.6ZM158,95.2c.6.1.1-.9,1.1,0,.1-1.7-.9-.6-1.1,0Z"/>
      <path class="cls-2" d="M158.1,90.6c-.3-.6-.3-1.3-.2-2.2-.8,1-.2,3.1.2,2.2Z"/>
      <polygon class="cls-2" points="157.9 88.4 157.9 88.4 157.9 88.4 157.9 88.4"/>
      <path class="cls-2" d="M158,57.4c0,.4,0,.8,0,1.1-.1-1.7-.2.3-.3.9.5-1,.4-.2.3.3.5-1.3.1-3.3.4-1,.4-.5.4-2.5-.3-1.2Z"/>
    </g>
    <g>
      <path class="cls-2" d="M63.4,132c-.9-1.5,1.9-.4,0,.6,2.4-1.2-.2,1,2.2.2-1-.8,5.6.5,5.9-.9,3.4,1.5-.1-.6,2.8.2-2,.6,1.1.3,1.6.4-.8-.8-1.8-.6-2.5-.8,2.5-2,0,.7,2.8-.6-.3-1.4-5.7-.3-6.6,0-1.5-.9-2.1.4-3.2-.6-.8.8.4.1.3.8-1.6-.7-1.2,2-1.9-.2,3.3-.1-3.8-.7-1.5.8Z"/>
      <path class="cls-2" d="M81.5,130.2c.8,1.3,1,1.3,2.5.8-2.3-.4-.7-1.2,1.5-1-.6.5,0,.2.3.6.6,0,0-.9,1.2-.6-1.1.4-.3.8.4,1.2.6-1.2-.3-.2,2.5-.2-.8-1.1-.6-.7.9-.8,1,.2-.5.3-.9.2,1.7,1.1.4.8-.2,1.8,1.3,0,1,0,2.8.2-1.4-.4-1-2.7-1-1.2,4.2.2.2-1.5,2.8-1-.7,1.3,1.9.6,2.5.2,3.5.9,6-.2,8.5.3-.6-.4,2.7-.3,3.5.2.3-.9,1.1-.5,2.8-.6.3.9,2.7,2.2,1.6.4,5.6,0,6.7,0,10.6-.1,1.8,1.5,6.1-.7,6.9.5,7.2-1.4,30.8,3.6,27.8-2.7.2-3.9.1-12.4.2-13.8-.2-7.9.9-11.8.2-19.4.6,1.7.6-2.4.4-1.3-.4-44.4,10.4-49.5-30.6-16.6-21.5,15.4-47.2,35.9-68.3,53.7,12.3-14.5,33.6-28.4,47.4-39.7,4.3-2.4,14-12.4,15.8-12.3.6-.2,1.1-1,2-1.1-.4,0,.6-1.5,1.5-1.2.6-1.7,2.3-2.5,3.8-2.8.3-.8,5.1-5.7,5.3-4.4,3.4-3.2,6.5-5.9,8.6-7.3-.6,1.2.3-.1.8.4.8-.6.4-1.8,1.2-1,.5-.7.2-1.3,1.1-.6,0-.3,1.1-1.7,0-1.4,3.1-2.1,4.8-4.6,7.6-4.5.5-.8-1.5,0,.5-1.4,1.3,0,5.7-1.8,5.2,2.3,0,5.8,1.1,10.6.4,17.3-1.8,1,.8,11.3-1.4,15.7,1.4-.3-.2,3.1,1.2,2.1-.4.7-.7,1.2-1.2.4,1.8,2,0,7.1.9,7.8.6-.1-.5.9.2.9-.5.8-.8-1.5-1.4-1.5,2,2.7-.4,4.8.9,8.8-.5-.7-.6,2.9-.8.9-.5.1,0,1.2.2,1.2-.1.9-.3-.5-.6-.3,0,.6.1,1,.4,1.2-.2.9-.7-.6-.8.7.9-.2-.5,1.1.4,1.5.8-2.7.5.1.2,1.2.2-.1.4-.3.4-.6.4,1.1,0,4.5-.7,5,.6.5.5-1.4,1.4.3-.2.8-.8,1.8-1.2,1.3.5,1.6.4-.7,1.4-.4-.7,1.5-.3,1.7-1,1.6,0,1.6.9,0,.4,1.2-.7.4-.4-1-.8,1,1-.9,1.6,4.7.4,4.1,3.5,10-10.8,2.9-17,5.8,1-1.6-3.9-1.5-.3-.6-1.1.4-5.2.2-2.8.2-.2-.6-.2-.4,0-1-2.4,1.6-5.1-.5-7.2.9-4.6-1.2-4.4,0-9.7-.3.7-1.4-4.8,0-6.3.3.6-.9-2.2-.5,0-1,0-.3-1.8,0-1.5.4-1.3-.1-4.3-.5-2.5-.6-.6-.7-5.9,1.9-6.9.3-1.4-.2-3.4,1.2-5.3-.1-1.1.4-.9.5-2.8,0-.8,0,.3,1.1-.9.8,1.4-1.9-2-.6-2.6-1.6-1.7,1-2.8.1-.3,1-1.8.5-.7-.3-.2.8-4.8-.3-4.8.7-9.1-.9-.5.5.2.5,1,.6-.5.6-1.8,0-1.6-.6-.6.7-1.8.9-.6-.2-1.6.4-2,1.9-4.1-.4-.7.2.9.5.4,1.2-.4-.4-.8-.9-.9,0-1.7.4-2.2-1-2.8-.6-.4-3.2,4.7,0,5.6-1.9ZM160.2,130.3c0,.7,1-2.6-.4-1.2-.2-.7,0,.8,0,.9,0-.3.3-.8.4-.3-.6,0-.4,2.4,0,.6ZM117.2,131.4c3,.1-.6-1.9.9-.6.1.5-.9.2-.9.6ZM107.9,131.7c.6.6.8.3,1.6.2.5-.6-1.6-.5-1.6-.2ZM101.3,132c.3-.7-.8-.3.6-1.2-1.5-.2-1.4.9-.6,1.2Z"/>
      <path class="cls-2" d="M96.6,131.9c-.9.4-1.6.4-2.5.3.4,1,3.2.2,2.5-.3Z"/>
      <path class="cls-2" d="M94.1,132.1h0s0,0,0,0Z"/>
      <path class="cls-2" d="M60.7,132.3c2.1.6.4,0-.1.6,1.5.7,3.8-1.2,1.1-.7-1.3-.3.9-.1,1.1-.3-.9-.1.3-.4,0-.8-.8.3-1.9.3-2.1,1.3Z"/>
    </g>
    <g>
      <path class="cls-2" d="M174.9,27.5c.6-2.6.3,2.4-.3.6-.2,3.9.2,2-.3,7.8.7-1.1-.1,5.9.5,4.5-.2,1.4-.2,1.5-.4,2,.1-.1,0,.4,0,1,.3.3.4-1.9.5-.7-.6,1,.2,3.6-.5,1.2,0,1.6.1,1.6.1,2.8-.4,3,.6-3.1.4-3.5,1,1.9.2.7,0,3,2,1.7-.3-10.1.7-13,0-1-.3,1.2-.3-.4.4-1.1.3-2.6-.1-.3.3-3.4-.3-.2-.4-1.7.2-1.1.2-.3.5-1.4-.2,2.7.4.3.2-.9-.4,1.6,0-5.1-.6-.8Z"/>
      <path class="cls-2" d="M175.7,47.1c.3,3.6-1,6.1.2,7.8-.9,2-.9,2.6-.5,4.6.1-3.3.9-2.7.7,1.7-.3-.6-.2.3-.4,1,0,.9.7-.7.5,1.5-.2-.2-.2-1-.4-.5-.4,1-.4,7.2.2,4.4.5.1,0,5.7,0,1-.8,2.5-.3,2.4-1.4.8,0,2.3,0,1.9-.2,4.6.4-1.3.8-2.4,1.4-3.3,0,1.1-.2,1.3-.5.9.3.5.1,1.9-.1,2.6.8,1.7,1.2-2.7,1,1.2-1,.1-.6,3.1-.1,4.2,0,.8-.6,3.9,0,3-1.1,5.6.4,7-.2,10.8,0,2.5,1.3,8.2-.8,13,2.2,5.7,1.1,14.5.1,23.6,1.8,4.6,0,13.4.3,18.3-1.8.3-5.5-1.3-6.1,0,1.5.3-1.1.2-.5-.4-11.2.7-25.4-.7-34.6-.3-6.3-.2-19.7-.2-22.1-.3-12,.2-19.5-.9-31.1-.3,2.8-.6-3.9-.6-2-.4-18-.5-38.2-.2-55.7-1.4-13,2-11.4.3.6-7.6,9.6-7.9,27.3-19.8,37.4-28.9,37.2-26.8,76.3-59.1,114.4-86.9-27.4,21.5-57.4,45.3-82.1,64-8.2,6-17.7,14.1-26.3,20.8,0-.4.4-.8,1-1.3-.8.4-1.8,1.5-2.9,1.8-2.6,3-7.6,6.6-11.1,8.4-.7,2-5.7,5.7-5.8,4.8-5.2,4.5-10.8,9.2-13.9,11.4,1.3-1.7-.4.2-.8-.3-2,2.4-1.6,1.1-3.3,3.1.7-1.8-2.6,2.2-.9,1.2-5,3.4-7.1,6.5-11.7,7.6-1.1,1,.7,0,.5.6-1.3,1.2-2.5,1.4-3.7,2-1.3-4.2,13.2-1.1,17.8-1.5,4.2-1.5,10.5-1.1,16.1.3.6-.5,18-.7,23.1.7-.5-1.4,4.9.2,3.4-1.2,1.1.4,1.9.7.6,1.2,3.1-1.8,11.2.1,12.5-.8,3-.1.7.2-.9,1.2,4.2-2,7.9.5,14.1-.9-1.4.5,4.9.4,1.4.8.2.5,1.9,0,2-.2,1.5.1-.7.3-.5.6.9,0,1.7-.1,2-.4,1.4.2-.9.7,1.1.8-.3-.9,1.8.5,2.5-.4-4.4-.8.4-.5,2-.2-.2-.2-.5-.4-1-.4,1.8-.4,7.1,0,8.1.8-.1-.2.2-.2.5-.2-4.6-1,3.4-1.6,2,0,2.1-.3-.8-.5-.6-1.4,4.1,1.1,2.2,1.1,4.5.6.9.7-1.7.3,1.6.8-1.2-1.1,7.3-1.6,6.5-.4,11.4-1.1,20.5,2.1,33.1-.1-1.3,1.6,5.8,1.4.5.6,1.6-.4,8.4-.1,4.5-.2.4.6.4.4,0,1,.6-.3,3.6-1.2,2.5-.3.2-3,.9-5.3-.2-7.6,1-7.5.1-8.5.3-16.5,1.1.8.5-6.8,0-8-.6-.5.8-5.6.8-2.3-.1-1.5,0-5.4-.4-5.8.7-3.2.4-.2.9-1.4-1.3-3.6-1.2-8.9-.4-13.3-1.2-4.4,0-6.5,0-10,0-1.4-.9,1.2-.7-1,2.2-.4.6-6,1-8.2-.2,1.3-.4,2.3-.5,3.3-.4-2.6.3-1.4-.6.1.2-2.6-.3-6.2.2-8.2.3,2.1.3-.9,0,0-.2-1.7,0-4.2.6-6.9-.1.2-.1,0-.1-.3-.4,4.1-.9.7.1-.7-.1,0-1-2.8.1-1.2.1-1.6-.5,0-.3-2.2-.1.2-.1.7-.1,1.2.1-6-.2-4.9.3-10.7.4-2.4.5,1,1-.4ZM138.6,146.5c-.4,0-1,0-1-.2,1,0-3.8-1-2,.4-1,.2,1.1,0,1.5,0-.5,0-1.2-.3-.5-.4-.2.3,1.9.7,2,.2ZM175,113.1c0,4.9,1.8-1.6.6,1.3-.4.3-.2-1.4-.6-1.3ZM174.8,98.2c-.5,1.1-.3,1.4-.2,2.6.6.5.5-2.8.2-2.6ZM174.6,87.8c.8.9-.1-1.8,1.1.3,0-2.7-.9-1.4-1.1-.3Z"/>
      <path class="cls-2" d="M174.7,80.2c-.3-1.1-.3-2.4-.2-3.8-.8,1.3-.2,5.2.2,3.8Z"/>
      <polygon class="cls-2" points="174.5 76.4 174.5 76.3 174.5 76.5 174.5 76.4"/>
      <path class="cls-2" d="M174.8,24c0,.6,0,1.4-.1,1.7-.1-2.8-.2.2-.3,1.1.6-1.2.3.4.3.9.5-.9.1-2.6.3-3.5,0,5.4.9-1.7-.2-.1Z"/>
    </g>
    <g>
      <path class="cls-2" d="M15.1,148.1c-1.6-1.5,3.2-.5,0,.6,1.7.2.3-.6,2-.4-1.5.8,1.4,1.1,1.6.6-1.8-.9,9.2.6,9.8-.8,2,.5,1.1.4,2.6.6.7-.5-1.4-.7,0-.8.8,1,3.7-.3.6.8,1.9,0,2.6-.1,4.1,0-1.6-.9-3.1-.5-4.2-.8,4.1-2,.2.7,4.6-.6-2.3-2.1-10.7,1-14-.6-.5.6-.6.9-2.1,0-1.3.8.6.1.6.8-3.1-1-1.2,2.7-3.1-.2,5.4,0-6.1-.7-2.5.8Z"/>
      <path class="cls-2" d="M45,146.4c1.4,1.6,2.1,1.1,4.2.8-3.8-.3-1.3-1.2,2.5-1-1,.5.1.2.6.6,1,0,0-.9,2-.6-1.9.5-.4.8.6,1.2,1.8,0-1.1-.7.5-.6,0,0,1,.6,3.7.4-1.9-1.4-.4-.5,1.5-.8,1.7.2-.9.3-1.5.2,3.1,1.3.4.7-.4,1.8,0,.5,2.9-.8,1.6.2,1.4-.2,1.3-.1,3.1,0-2.4-.5-1.7-2.7-1.6-1.2,1-.1,5.5,0,2.5-.8.4-.6.8-.2,2.1-.2-1,1.4,3,.6,4.2.2,5.7.9,9.8-.1,14,.4,1.9-.5,6.5,0,10.3-.4.3.6,4.4,2.4,2.6.4,11.6.1,18.5,0,29,.5,8.8-.2,16,.2,18.1.3,8.4-.8,18.5.9,25.9-.3,4.4,2.5,5.3-1,4.6-3.1.3-6.5.2-20.3.3-22.8-.5-7.1,1-10.7,0-17.6.8-1.1.6-10.9.4-14.5.6,2.9.6-4,.4-2.1.5-18.6.2-39.4,1.4-57.5-1.1-12.9-1.4-8.4-12.3-1.3-9.8,8.1-28.2,20.4-38.5,29.7-37.4,26.8-76.2,59.3-115.2,88.4,22.7-20.1,56.8-45.9,81.2-64.5,6.6-4.1,23.5-19.6,26.3-20.2.9-.4,1.8-1.6,3.1-1.9,2.6-3,7.7-6.7,11.6-8.8.5-1.9,5.9-5.8,6-4.9,5.4-4.6,11.3-9.5,14.4-11.7-1.3,1.7.5-.3.9.3,2-2.4,1.7-1.1,3.4-3.2-.6,1.8,2.7-2.2,1-1.3,5.2-3.6,7.3-6.8,12.2-8,1.1-1-.7,0-.5-.6,1.9-1.8,6-3.3,7.6.2-.6,20.8.8,37.4-1.6,57.5,1.4-.5-.2,5.1,1.2,3.5-.4,1.2-.7,2-1.2.6,1.8,3.2-.1,11.6.8,12.9.6-.2-.5,1.5.2,1.5-.5,1.3-.8-2.4-1.4-2.5,1.9,4.3-.5,8.2.9,14.6-.5-1.4-.5,5-.8,1.5-.5.2,0,1.9.2,2.1-.1,1.5-.3-.8-.6-.5,0,1,.1,1.7.4,2-.2,1.4-.7-1-.8,1.1.9-.3-.5,1.9.4,2.6.8-4.5.5.4.2,2.1.2-.2.4-.5.4-1.1.4,1.9,0,7.4-.8,8.3.2-.1.2.2.2.5.9-4.6,1.6,3.4,0,2.1.3,2.2.5-.9,1.4-.6-1.1,4.2-1.1,2.3-.6,4.7-.7.9-.3-1.7-.8,1.6,1.1-1.3,1.6,7.5.4,6.7,3.4,8.1-6.4,7.9-10.9,5.5-4.5,1.2-12.4.2-18.5,1.3,1-1.7-5.5-1.2-.6-.6-1.7.4-8.7.1-4.6.2-.4-.6-.4-.4,0-1-11.1,1.4-17.2-.1-27.9.5,2.2-1-2.6,0-1.1-.8-2.6.4-12.2,1.3-9.3,0-1.6.1-5.4,0-6.2.4-3.1-.7,0-.4-1.1-1-5.7,1.4-12.9,1.3-19.6.5-2,.4-1.3.5-4.7,0-1.4,0,.6,1.1-1.5.8,1.5-2.3-6.3-.8-7.8-1.2,1.1.3,2.1.5,3.1.6-1.2.7-3.5,1.2-8.8.6,2.4-.4-.7-.3,0,0-7.3.2-4.7-.8-9.7-.1-.4-.5,1-.4,1-.8-1,.1-3.6.7-1.5.6-1.6.4-3.6.3-5.2-1-1.2.2,1.5.5.6,1.2-1.8-.2-5.2-.2-6.3-.6-.3-3.4,7.7.2,9.2-1.8ZM176.4,147.9c0,.3,0,.8.2,0-.6-.3,1.2-4-.6-2.2,0-.3-.2-.6-.2,0,.4.1,0,1.2.2,1.5.3-1.4.5-.8,0,.4-.8,1.8,0,.8.4.2ZM104.1,147.8c3,.5,2.3-1.7.5-.8.4,0,1,0,1,.2.2.5-1.5.2-1.5.6ZM89.1,148.5c1,0,1.1-.2,2.1-.2.5-.7-3.9-.6-2.1.2ZM77.8,148.3c1-.5-.1-.2-.6-.6.7-.1,1.2-.3,1.5-.6-2.5-.1-2.3.9-.9,1.2Z"/>
      <path class="cls-2" d="M70,148.1c-1.4.4-2.7.4-4.1.2.7,1,5.2.2,4.1-.2Z"/>
      <path class="cls-2" d="M65.8,148.3h0s.2,0,0,0Z"/>
      <path class="cls-2" d="M10.8,148.4c.8.3,1.3,0,1.8.3-.4.3-2.7-.2-1.5.4,3.7-.1,4.7-1,.4-1,1.2-.3,2.2,0,2.6-.2-1.6-.1.5-.4,0-.8-1.1.3-2.9.1-3.2,1.3Z"/>
    </g>
  </g>
  <g>
    <g>
      <path class="cls-2" d="M40.3,148.3c0-1.6.2,0,0,.6.3-.2.2-.8.2.2,0,0,.3.5.3,0-.4-.6.3-.2.6,0-.5-1.1.7-.4,0-1.2.3.1.3.1.5.3-.2-.2,0-.1,0,0-1-.6-.3-.6,0,0,.2,0,0-.3,0-.4.2,0,.5,0,.2,0-.2,0-.6-.1-.8,0-1.3-1,.6.2-.5-.5-.6-.2-.7-.3-.6-.3.7.4-.2-.3.4.3-.4-.5,0-.1,0,.2-.2-.4,0,.1-.3-.5,0,0,.2.5.2.6,0-.2-.1-.4-.2-.6.2.8,0,.1.2.8-.2-.5,0,.6,0,.8,0-.5,0-.4-.1-1,.1.5,0-.4,0-.4,0,.7-.2,0-.1,1.2Z"/>
      <path class="cls-2" d="M40.2,146.9h.6c-.3,0,0-.2-.8-.2.8,0,.3-.1,1.4,0-.7-.2-2.6-.2-1.1-.4-1.4-.2,0,0,.6-.2,0-.1-.7,0-.6,0,1.1-.3-.6,0-.5-.3.8,0,2.1.1,2.2,0-.2-.3-.9,0-1.8,0,0,0,.3,0,.6,0-.3,0-.2-.1.2-.2-1.1,0-1.9-.2-.4-.1-.4,0,0,0,0-.2-1.1,0,.3,0-.6-.1,0,0,.7-.2,0-.2.7-.1-.1-.4.7-.4.1-.2-1.8,0-.5-.3-1,0,.6-.1-.4-.2,1-.3,0,0,0-.5,1.1,0,1.8-.3.4-.2.3-.2.3-.4-.5-.5.2,0,.4-.1.2-.2.2,0,.2,0,.4,0-.7-.2-.2-.2.2-.1,0-.1-.8-.2,0-.2,0,0-.6,0-.4-.1.8,0-.1-.3.9-.4-.6,0-.6,0-1-.2.9,0,0-.8,1-1.2-.1,0-1.5,0-.2,0-.4-.1,0-.3-.7-.4,1.1-.2.8-.7.2-.9.2,0,.4,0,.8,0-.3,0-.3-.2-1-.2.6,0,.5,0,.2-.1,1.6-.1-.2-1.2.8-2.1-.6,0-.1-.6.2-.9-.7,0-.8-.2,0-.1,0,0-.3,0-.6,0,.8-.3.6-.6.2-.9.6.2.6-.3.4-.1.3-.6-.8,0,.3-.7-1,.2-2.1-1.8-1-.1-.4,0,.4.4-.9,0,1.4.4-.5.6.4.5.9.1-.5.2.4.3-.9.4,0,.8-.6,1.2.4,0,.1.2-.1.3,1.2.2-.9.5.4,1.1-1,.8-.3,1,.1,1.7,0,0-1,0,0,0-.6.2.3.4-.5.5.8,1.3-.3,5.9,1.6,7.4-.2-1.3-1.1,1.4-1,.7.9-.8-.9-.5-.8-1.7-1.5-.4.6-1.2-1-1.1.2-.8,1-1.1,0-1.7,1.3.2-.7-.5.5-.7-.9-.2.2-.4-.7-.6.1,0,.4,0,.6,0-.4,0-.4-.6,0-1.3-.3,0-.9-.1-.2-.2-1.4-.1.1-.6-.5-.8.7,0,.2.1.8-.1-.2,0-.8-.2,0-.2-.9,0,.3-.2-.6-.2-.5-.1.8-.2.7-.3-.5-.1-1.4-.8-.3-.7-.2-.9-1.9-.7-.2-1,0,0-.7,0-.6,0-.5,0,.5,0,.2-.2.6.1,0,0,.8,0,0-.1-1.1-.2,0-.2-.7-.2-.3,0,.2-.1-.4,0-1.8-.2-.7-.6,0,0-.6,0-.4-.1.8-.3.2-.3,1.1-.3,0-.2-.8.2-.8-.1.8,0-.3-.1.8,0-.5,0-.5-1.2.2-1.6-1.4-.9,1-2.6,1.3-1,0-.4.1,0,.3.1,0-.7-.2-.1-.2-.8.8.8,1.6,1.1,2.1,1.1-.6.7.6.9-.6,1.3.2-.1,1.4,0,.4.2.3,0,.2.1.8,0-.4,0-.7.1-1.2,0,.9.2,1.5.6.3.7.3,0,.5.2.6.1.6,0-.5,0,.2,0-.7.1-1.8-.5-.8,0,1.1-.2-.1.2-.3.5,1.3.2-.3.1.3.3-.7,0-.7,0-.2,0-.1,0-1.1-.1-.2,0-1.1,0-.7.4.2,0-.2,0,0,.2-.4.3.8-.2.7.4-.3.5,1.2-.2,1.9.2.2.2.6.2.5,0,1.4,0-.7.2-.3.2-1,.2,0,.2,1,0,.4.1-.4,0-.5,0-.8,0,1.5,0,.3.3,1.2.2-.4,0,.2.3-.8.2,1.1.1-.2.3.7.4-.8,0,0,.3-.9.3.4,0,.1.3-.7.3,1,.3.4.6,1.4,1.2-.9,0-1.2,0-1.4.2,1.3-.2,1,.3,1,.2-.6,0-.4,0-1,0,.5,0,.2.1.8.1-.4.2-.1.2-.7.3,1.2,0-.4.2.8.3-.1,0-.2,0,0,0-.6.1-1.2.3,0,.3-.5.1-1.6.1,0,.2-.3.2-.7.3-.3.5-.4-.1-1,.2-.2.2-.7,0,0,.2-.4.3.7,0,.3.2.6.1.7.2-.8.1-.4.2-.6-.2-.9,0,0,0,.1,0-.9.2,0,.2-.5.1-1.7,0-.2.1-.4,0,.4.2-.4.2,0,0,.3,0,.6,0-.4.3.8.4-.3.4.6.2.1,0-.2.2.5,0,1.1.3,0,.4.7,0,0,0,0,.2.8-.2.3,0,0,.1,1.6.2.1-.1-.7.4.7.4,1.1-.1,1,.2.4-.2,1.3,0,.6.4-.8-.2,1,.2-.7.4.8,0,1.2,0,0,0,1,.1.4.2-.2,0-.1.1.7,0,.4.2.5-.1.2,0,.4.2-.6,0-.8,0-1.2,0,.2,0,.5,0,1.2,0-.4,0-.9,0,0,.2.4.4-1,.2-.6.3-.6-.1-1.2-.6-1.6-.5ZM42.4,138.2c-.8,0-1.3.1-.4,0-.9.1.2.1.4,0ZM40.8,143c.3-.3-1.9,0-.6-.1.5,0,.2,0,.6.1ZM41.6,143.9c0,0-.2,0-.2-.1-.9,0-.2.2.2.1ZM40.9,144.7c-.1,0-.3,0-.6-.1,0,.3,1.9,0,.6.1Z"/>
      <path class="cls-2" d="M41.4,145.1c.4,0,.4.2.3.3,1,0,.2-.3-.3-.3Z"/>
      <path class="cls-2" d="M41.7,145.4s0,0,0,0h0Z"/>
      <path class="cls-2" d="M39.8,148.7c.5.4-.6.2,0,.8,0-.3.2-1.1.3-.6-.2-1.4,0-.1.2-1.6,0,.3-.3.4-.6,1.3Z"/>
    </g>
    <g>
      <path class="cls-2" d="M51.7,148.4c.3-1.6.2,0-.1.6.2-.3.2-.7,0,.2.3.7,0-1.2.5.1-.2-1.2.5,0,.2-1.1.1.2.2.3.3.5,0-.2,0-.1,0,0-.5-1,0-.6,0,0,.2,0,0-.3,0-.3.1.2.3.4.2.1-.1,0-.4-.5-.6-.6,0,0-.3-.7-.3-.8,0,0,.3.6.4.7-.2-.4-.3-.6-.3-.5-.4-.6-.4-.6-.3-.5.4.7,0-.4.2.5-.2-.6,0-.2,0,.2,0-.4,0,0,0-.6,0,0,0,.5,0,.6,0-.2,0-.4,0-.6,0,.8,0,.1,0,.8,0-.5,0,.6-.1.8,0-.5,0-.4,0-1,0,.5,0-.4,0-.4,0,.7-.1,0-.3,1.2Z"/>
      <path class="cls-2" d="M51.7,146.8l.4.4c-.2-.2,0,0-.6-.5.6.5.2.2,1.1.8-.7-.7-2-1.1-.9-.6-1.3-.4,0,0,.5.2,0,0-.6-.2-.6-.2.8.2-.5-.1-.5,0,.1,0,.3,0,.2,0,.9,0,1.7.2,2,.2-.2-.3-.9,0-1.8-.1,0,0,.3,0,.6,0-.3,0-.2,0,.2,0-.1,0-1.2,0-1,0-1,0,.6,0,.6,0-.4,0,0,0,0,0-1.1,0,.3,0-.6,0,0,0,.7-.1,0-.1.8-.3.9-.3-.3-.3.1,0,.4,0,.6,0-1,0,.6,0-.4-.1.3,0,.2,0,.6-.1-.1,0-.3,0-.6,0,0-.3.8-.1,1.3-.2-.2,0-.6,0-1,0,.3,0,.3-.2-.5-.3.2,0,.4,0,.2-.1.2,0,.2,0,.4,0-.7-.1-.2-.1.2,0,0,0-.8-.1,0-.1,0,0-.6,0-.4,0,.8,0-.1-.2.9-.3-.6,0-.6,0-1-.1.8,0,0-.5,1-.7-.1,0-1.5,0-.2,0-.4,0,0-.2-.7-.2,1.1-.1.8-.4.2-.5.2,0,.4,0,.8,0-.3,0-.3-.1-1-.1.6,0,.5,0,.2,0,1.4,0,.2-.4.7-.4,0,0-.5-.7.1-.9-.6,0-.2-.3.2-.5-.8,0-.8-.1,0,0,0,0-.3,0-.6,0,.8-.2.6-.4.2-.3.6,0,.6-.2.4,0,.1-.2-.6.4.2-.4-.8.6-1-2.4-.7,0-.3-.2.2.5-.6-.5.5.9.2.5-.2.3,0,0,.3.2.3.2.7.6-.5-.2.3.3-.8-.3,0,.1-.6.3.4,0,.1.1-.1.2,1.3.1-1,.3.4.7-1.1.6-.2.5.1,1,0,0-1,0,0,0-.6,0,.3.2-.5.3.6-.2-.1,4.8,1.5,3.7-.2-.8-1,1.7-.9,1,.3-.8.5-.4-.4-.4-.8-.3-1.1-.7-.9-1-1.7-.2,1-.4-.5-1.1,0,0,.4,0,.4,0,.3,0-.9-.3,0-.5-.9-.1.2-.3-.7-.4.1,0,.4,0,.6,0-.5,0-.3-.3,0-.8-.3,0-.9,0-.2-.1-1.4,0,0-.4-.5-.5.7,0,.2,0,.8,0-.2,0-.8,0,0-.1-.9,0,.3-.1-.6-.1-.5,0,.8-.1.7-.2,0,0-1.4,0,0-.1,0,0-.7,0-.8,0,.4-.1,0-.1,0-.2.8,0-.2,0,.6,0-.5,0,0-.2,0-.3-1,0-.1,0-1,0-.2-.1.2-.2.7-.2,0,0-.7,0-.6,0-.5,0,.5,0,.2-.1.6,0,0,0,.8,0,0,0-1.1,0,0,0-.7,0-.3,0,.2,0-.3,0-1.8,0-.7-.4-.9-.1.3,0,0-.5,1.4,0,.2.3,0-.3.8.3-.2-.3.8,0-.5-.2.1-1.3.8-1.1-.7-1.3,1.1-1.6,1-.2,0-.4,0,0,.1.2.1-.6-.1-.1,0-.8.2.9.4.8,1,.6-.1.4-.3.8.3.2-.5.8.6.4-.4,1.1.2-.2,1.2-.6.4,0,.3,0,.2,0,.8-.3-.3.3-.6.4-1.1.5.9-.3,1.6.4.4.5.3,0,.5.1.6,0,.6,0-.5,0,.2,0-.5,0-.8,0-1.4-.1.1,0,.9,0,.7.2.7-.1.7,0-.2,0,.5.2,0,.1-.1.2,0,0,.6,0,.6.1,0,0-.9,0-.4,0-.7,0-.7,0-.2,0-.1,0-1.1,0-.2,0-1.1,0-.7.2.2,0-.2,0,0,.1-.4.2.8-.1.8.2-.3.3.5,0,1,0,1.4,0-.2,0-.8.1-1.2,0,.6.1.5,0,1.4,0-.7,0-.3.1-1,0,0,.1,1,0,.4,0-.4,0-.5,0-.8,0,.5,0,1.4.1.6.1,0,0,.4,0,.6,0-.4,0,.2.2-.8.1,1.1,0-.2.2.7.2-.8,0,0,.2-.9.2.4,0,.2.2-.7.2,1.3.1-.3.2,1.1.4-.1,0-.4.2.3.3-.9,0-1.2,0-1.4,0,.9,0,.6-.1,1.2.1-.2,0-.6,0-.2,0-.6,0-.4,0-1,0,.5,0,.2,0,.8,0-.4.1-.1.1-.7.2,1.2,0-.4.1.9.2-.1,0-.2,0,0,0-.6,0-1.2.2,0,.2-.5,0-1.6,0,0,0-.3.1-.7.2-.3.3-.4,0-1,.1-.2,0-.7,0,0,.1-.4.2.8.1.5,0,.8.1-.5,0-.7,0-.6,0-.6-.1-.8,0,0,0,.1,0-.9.1,0,.1-.2,0-.3,0-.8,0,.3,0,0,0-.2,0,0,0,.4,0,.8,0-.4,0,.4,0-.4,0,0,0,.3,0,.6,0-.3.2.8.2-.3.2.6.1.1,0-.2.1.5,0,1.1.2,0,.2.7,0,0,0,0,0,.8-.1.3,0,0,0,1.5.1.2,0-.7.2.7.2,1.1,0,1,.1.5,0,.1,0,.8,0-.2.1.4.5-.2.5-.7-.4.9.6-.7.1.8.2,1.1.6,0,0,.8.6.3.3-.2,0-.1,0,.6.4.3.3.5.2.2.1.2.4-.5-.4-.6-.5-.9-.7,0,.2.4.3.9.8-.3-.2-.7-.6,0,0,.1.5-.8-.6-.6-.2-.4-.5-.7-1.2-1-1.4ZM53.8,142.6c-.8,0-1.4,0-.4,0-1,0,.3,0,.4,0ZM52.3,145.4c.3-.2-1.9,0-.6,0,.5,0,.2,0,.6,0ZM53.1,146s-.2,0-.2,0c-.9,0-.2.1.2,0ZM53,146.5c-.6,0-.6,0-1.2,0-.2,0,1,0,1.2,0Z"/>
      <path class="cls-2" d="M52.9,146.7c.4,0,.4.1.3.2,1,0,.2-.2-.3-.2Z"/>
      <path class="cls-2" d="M53.1,146.9s0,0,0,0h0Z"/>
      <path class="cls-2" d="M51.3,148.8c.3.4-.4.1,0,.8.5-1.4.1-.7.6-2.1,0,.3-.2.4-.5,1.4Z"/>
    </g>
    <g>
      <path class="cls-2" d="M63.3,148.5c0-1.6.2,0,0,.6.3-.2.2-.8.2.2,0,0,.3.5.3,0-.4-.6.3-.2.6,0-.5-1.1.7-.4,0-1.2.3.1.3.1.5.3-.2-.2,0-.1,0,0-1.4-1.1.4.3,0-.4.8.1-.9-.1-1.3-.6,1.4.7-1.1-.6-.1,0,0,0-.3-.3.1.2-.4-.5,0-.1,0,.2-.2-.4,0,.1-.3-.5,0,0,.2.5.2.6,0-.2-.1-.4-.2-.6.2.8,0,.1.2.8-.2-.5,0,.6,0,.8,0-.5,0-.4-.1-1,.1.5,0-.4,0-.4,0,.7-.2,0-.1,1.2Z"/>
      <path class="cls-2" d="M63.1,147.1h.6c-.3,0,0-.2-.8-.2.8,0,.3-.1,1.4,0-.7-.2-2.6-.2-1.1-.4-1.4-.2,0,0,.6-.2,0-.1-.7,0-.6,0,1.1-.3-.6,0-.5-.3.8,0,2.1.1,2.2,0-.2-.3-.9,0-1.8,0,0,0,.3,0,.6,0-.3,0-.2-.1.2-.2-1.1,0-1.9-.2-.4-.1-.4,0,0,0,0-.2-1.1,0,.3,0-.6-.1,0,0,.7-.2,0-.2.7-.1-.1-.4.7-.4.1-.2-1.8,0-.5-.3-1,0,.6-.1-.4-.2,1-.3,0,0,0-.5,1.1,0,1.8-.3.4-.2.3-.2.3-.4-.5-.5.2,0,.4-.1.2-.2.2,0,.2,0,.4,0-.7-.2-.2-.2.2-.1,0-.1-.8-.2,0-.2,0,0-.6,0-.4-.1.8,0-.1-.3.9-.4-.6,0-.6,0-1-.2.9,0,0-.8,1-1.2-.1,0-1.5,0-.2,0-.4-.1,0-.3-.7-.4,1.1-.2.8-.7.2-.9.2,0,.4,0,.8,0-.3,0-.3-.2-1-.2.6,0,.5,0,.2-.1,1.6-.1-.2-1.2.8-2.1-.6,0-.1-.6.2-.9-.7,0-.8-.2,0-.1,0,0-.3,0-.6,0,.8-.3.6-.6.2-.9.6.2.6-.3.4-.1.3-.6-.8,0,.3-.7-1,.2-2.1-1.8-1-.1-.4,0,.4.4-.9,0,1.4.4-.5.6.4.5.9.1-.5.2.4.3-.9.4,0,.8-.6,1.2.4,0,.1.2-.1.3,1.2.2-.9.5.4,1.1-1,.8-.3,1,.1,1.7,0,0-1,0,0,0-.6.2.3.4-.5.5.8,1.3-.3,5.9,1.6,7.4-.2-1.3-1.1,1.4-1,.7.9-.8-.9-.5-.8-1.7-1.5-.4.6-1.2-1-1.1.2-.8,1-1.1,0-1.7,1.3.2-.7-.5.5-.7-.9-.2.2-.4-.7-.6.1,0,.4,0,.6,0-.4,0-.4-.6,0-1.3-.3,0-.9-.1-.2-.2-1.4-.1.1-.6-.5-.8.7,0,.2.1.8-.1-.2,0-.8-.2,0-.2-.9,0,.3-.2-.6-.2-.5-.1.8-.2.7-.3-.5-.1-1.4-.8-.3-.7-.2-.9-1.9-.7-.2-1,0,0-.7,0-.6,0-.5,0,.5,0,.2-.2.6.1,0,0,.8,0,0-.1-1.1-.2,0-.2-.7-.2-.3,0,.2-.1-.4,0-1.8-.2-.7-.6,0,0-.6,0-.4-.1.8-.3.2-.3,1.1-.3,0-.2-.8.2-.8-.1.8,0-.3-.1.8,0-.5,0-.5-1.2.2-1.6-1.4-.9,1-2.6,1.3-1,0-.4.1,0,.3.1,0-.7-.2-.1-.2-.8.8.8,1.6,1.1,2.1,1.1-.6.7.6.9-.6,1.2.2-.1,1.4,0,.4.2.3,0,.2.1.8,0-.4,0-.7.1-1.2,0,.9.2,1.5.6.3.7.3,0,.5.2.6.1.6,0-.5,0,.2,0-.7.1-1.8-.5-.8,0,1.1-.2-.1.2-.3.5,1.3.2-.3.1.3.3-.7,0-.7,0-.2,0-.1,0-1.1-.1-.2,0-1.1,0-.7.4.2,0-.2,0,0,.2-.4.3.8-.2.7.4-.3.5,1.2-.2,1.9.2.2.2.6.2.5,0,1.4,0-.7.2-.3.2-1,.2,0,.2,1,0,.4.1-.4,0-.5,0-.8,0,1.5,0,.3.3,1.2.2-.4,0,.2.3-.8.2,1.1.1-.2.3.7.4-.8,0,0,.3-.9.3.4,0,.1.3-.7.3,1,.3.4.6,1.4,1.2-.9,0-1.2,0-1.4.2,1.3-.2,1,.3,1,.2-.6,0-.4,0-1,0,.5,0,.2.1.8.1-.4.2-.1.2-.7.3,1.2,0-.4.2.8.3-.1,0-.2,0,0,0-.6.1-1.2.3,0,.3-.5.1-1.6.1,0,.2-.3.2-.7.3-.3.5-.4-.1-1,.2-.2.2-.7,0,0,.2-.4.3.7,0,.3.2.6.1.7.2-.8.1-.4.2-.6-.2-.9,0,0,0,.1,0-.9.2,0,.2-.5.1-1.7,0-.2.1-.4,0,.4.2-.4.2,0,0,.3,0,.6,0-.4.3.8.4-.3.4.6.2.1,0-.2.2.5,0,1.1.3,0,.4.7,0,0,0,0,.2.8-.2.3,0,0,.1,1.6.2.1-.1-.7.4.7.4,1.1-.1,1,.2.4-.2,1.3,0,.6.4-.8-.2,1,.2-.7.4.8,0,1.2,0,0,0,1,.1.4.2-.2,0-.1.1.7,0,.4.2.5-.1.2,0,.4.2-.6,0-.8,0-1.2,0,.2,0,.5,0,1.2,0-.4,0-.9,0,0,.2.4.4-1,.2-.6.3-.6-.1-1.2-.6-1.6-.5ZM65.3,138.4c-.8,0-1.3.1-.4,0-.9.1.2.1.4,0ZM63.8,143.2c.3-.3-1.9,0-.6-.1.5,0,.2,0,.6.1ZM64.6,144.1c0,0-.2,0-.2-.1-.9,0-.2.2.2.1ZM64.5,144.9c-.6,0-.6,0-1.2,0-.2.2.9.2,1.2,0Z"/>
      <path class="cls-2" d="M64.4,145.3c.4,0,.4.2.3.3,1,0,.2-.3-.3-.3Z"/>
      <path class="cls-2" d="M64.6,145.6s0,0,0,0h0Z"/>
      <path class="cls-2" d="M62.8,148.9c.5.4-.6.2,0,.8,0-.3.2-1.1.3-.6-.2-1.4,0-.1.2-1.6,0,.3-.3.4-.6,1.3Z"/>
    </g>
    <g>
      <path class="cls-2" d="M74.7,148.6c.5-2.1-.3,1.5,0,.2,0,0-.1,1.3,0,.6-.1-.7.2-.1.3.2-.2-1.2.5,0,.2-1.1.1.2.2.3.3.5,0-.2,0-.1,0,0-.5-1,0-.6,0,0,.2,0,0-.3,0-.3.1.2.3.4.2.1-.1,0-.4-.5-.6-.6,0,0-.3-.7-.3-.8,0,0,.3.6.4.7-.2-.4-.3-.6-.3-.5-.4-.5-.4-.6-.3-.5.4.7,0-.4.2.5-.2-.6,0-.2,0,.2,0-.4,0,0,0-.6,0,0,0,.5,0,.6,0-.2,0-.4,0-.6,0,.8,0,.1,0,.8,0-.5,0,.6-.1.8,0-.5,0-.4,0-1,0,.5,0-.4,0-.4,0,.7-.1,0-.3,1.2Z"/>
      <path class="cls-2" d="M74.7,147l.4.4c-.2-.2,0,0-.6-.5.6.5.2.2,1.1.8-.7-.7-2-1.1-.9-.6-1.3-.4,0,0,.5.2,0,0-.6-.2-.6-.2.8.2-.5-.1-.5,0,.1,0,.3,0,.2,0,.9,0,1.7.2,2,.2-.2-.3-.9,0-1.8-.1,0,0,.3,0,.6,0-.3,0-.2,0,.2,0-.1,0-1.2,0-1,0-1,0,.6,0,.6,0-.4,0,0,0,0,0-1.1,0,.3,0-.6,0,0,0,.7-.1,0-.1.8-.3.9-.3-.3-.3.1,0,.4,0,.6,0-1,0,.6,0-.4-.1.3,0,.2,0,.6-.1-.1,0-.3,0-.6,0,0-.3.8-.1,1.3-.2-.2,0-.6,0-1,0,.3,0,.3-.2-.5-.3.2,0,.4,0,.2-.1.2,0,.2,0,.4,0-.7-.1-.2-.1.2,0,0,0-.8-.1,0-.1,0,0-.6,0-.4,0,.8,0-.1-.2.9-.3-.6,0-.6,0-1-.1.8,0,0-.5,1-.7-.1,0-1.5,0-.2,0-.4,0,0-.2-.7-.2,1.1-.1.8-.4.2-.5.2,0,.4,0,.8,0-.3,0-.3-.1-1-.1.6,0,.5,0,.2,0,1.4,0,.2-.4.7-.4,0,0-.5-.7.1-.9-.6,0-.2-.3.2-.5-.8,0-.8-.1,0,0,0,0-.3,0-.6,0,.8-.2.6-.4.2-.3.6,0,.6-.2.4,0,.1-.2-.6.4.2-.4-.8.6-1-2.4-.7,0-.3-.2.2.5-.6-.5.5.9.2.5-.2.3,0,0,.3.2.3.2.7.6-.5-.2.3.3-.8-.3,0,.1-.6.3.4,0,.1.1-.1.2,1.3.1-1,.3.4.7-1.1.6-.2.5.1,1,0,0-1,0,0,0-.6,0,.3.2-.5.3.6-.2-.1,4.8,1.5,3.7-.2-.8-1,1.7-.9,1,.3-.8.5-.4-.4-.4-.8-.3-1.1-.7-.9-1-1.7-.2,1-.4-.5-1.1,1.1.1-.6-.3.5-.4-.9-.1.2-.3-.7-.4.1,0,.4,0,.6,0-.5,0-.3-.3,0-.8-.3,0-.9,0-.2-.1-1.4,0,0-.4-.5-.5.7,0,.2,0,.8,0-.2,0-.8,0,0-.1-.9,0,.3-.1-.6-.1-.5,0,.8-.1.7-.2,0,0-1.4,0,0-.1,0,0-.7,0-.8,0,.4-.1,0-.1,0-.2.8,0-.2,0,.6,0-.5,0,0-.2,0-.3-1,0-.1,0-1,0-.2-.2,1.1-.3.1-.2-.5,0,.5,0,.2-.1.6,0,0,0,.8,0,0,0-1.1,0,0,0-.7,0-.3,0,.2,0-.3,0-1.8,0-.7-.4-.9-.1.3,0,0-.5,1.4,0,.2.3,0-.3.8.3-.2-.3.8,0-.5-.2.1-1.3.8-1.1-.7-1.3,1.1-1.6,1-.2,0-.4,0,0,.1.2.1-.7-.1-.1,0-.8.2.9.4.8,1,.6-.1.4-.3.8.3.2-.5.8.6.4-.4,1.1.2-.2,1.2-.6.4,0,.3,0,.2,0,.8-.3-.3.3-.6.4-1.1.5.9-.3,1.6.4.4.5.3,0,.5.1.6,0,.6,0-.5,0,.2,0-.5,0-.8,0-1.4-.1.1,0,.9,0,.7.2.7-.1.7,0-.2,0,.5.2,0,.1-.1.2,0,0,.6,0,.6.1,0,0-.9,0-.4,0-.7,0-.7,0-.2,0-.1,0-1.1,0-.2,0-1.1,0-.7.2.2,0-.2,0,0,.1-.4.2.8-.1.8.2-.3.3.5,0,1,0,1.4,0-.2,0-.8.1-1.2,0,.6.1.5,0,1.4,0-.7,0-.3.1-1,0,0,.1,1,0,.4,0-.4,0-.5,0-.8,0,.5,0,1.4.1.6.1,0,0,.4,0,.6,0-.4,0,.2.2-.8.1,1.1,0-.2.2.7.2-.8,0,0,.2-.9.2.4,0,.2.2-.7.2,1.3.1-.3.2,1.1.4-.1,0-.4.2.3.3-.9,0-1.2,0-1.4,0,.9,0,.6-.1,1.2.1-.2,0-.6,0-.2,0-.6,0-.4,0-1,0,.5,0,.2,0,.8,0-.4.1-.1.1-.7.2,1.2,0-.4.1.9.2-.1,0-.2,0,0,0-.6,0-1.2.2,0,.2-.5,0-1.6,0,0,0-.3.1-.7.2-.3.3-.4,0-1,.1-.2,0-.7,0,0,.1-.4.2.8.1.5,0,.8.1-.5,0-.7,0-.6,0-.6-.1-.8,0,0,0,.1,0-.9.1,0,.1-.2,0-.3,0-.8,0,.3,0,0,0-.2,0,0,0,.4,0,.8,0-.4,0,.4,0-.4,0,0,0,.3,0,.6,0-.3.2.8.2-.3.2.6.1.1,0-.2.1.5,0,1.1.2,0,.2.7,0,0,0,0,0,.8-.1.3,0,0,0,1.5.1.2,0-.7.2.7.2,1.1,0,1,.1.5,0,.1,0,.8,0-.2.1.4.5-.2.5-.7-.4.9.6-.7.1.8.2,1.1.6,0,0,.8.6.3.3-.2,0-.1,0,.6.4.3.3.5.2.2.1.2.4-.5-.4-.6-.5-.9-.7,0,.2.4.3.9.8-.3-.2-.7-.6,0,0,.1.5-.8-.6-.6-.2-.4-.5-.7-1.2-1-1.4ZM76.8,142.8c-.8,0-1.4,0-.4,0-1,0,.3,0,.4,0ZM75.3,145.6c.3-.2-1.9,0-.6,0,.5,0,.2,0,.6,0ZM76,146.2s-.2,0-.2,0c-.9,0-.2.1.2,0ZM76,146.7c-.6,0-.6,0-1.2,0-.2,0,1,0,1.2,0Z"/>
      <path class="cls-2" d="M75.9,147c.4,0,.4.1.3.2,1,0,.2-.2-.3-.2Z"/>
      <path class="cls-2" d="M76.1,147.1s0,0,0,0h0Z"/>
      <path class="cls-2" d="M74.3,149c.3.4-.4.1,0,.8.5-1.4.1-.7.6-2.1,0,.3-.2.4-.5,1.4Z"/>
    </g>
    <g>
      <path class="cls-2" d="M86.3,148.7c0-1.6.2,0,0,.6.3-.2.2-.8.2.2,0,0,.3.5.3,0-.4-.6.3-.2.6,0-.5-1.1.7-.4,0-1.2.3.1.3.1.5.3-.2-.2,0-.1,0,0-1.4-1.1.4.3,0-.4.8.1-.9-.1-1.3-.6,1.4.7-1.1-.6-.1,0,0,0-.3-.3.1.2-.4-.5,0-.1,0,.2-.2-.4,0,.1-.3-.5,0,0,.2.5.2.6,0-.2-.1-.4-.2-.6.2.8,0,.1.2.8-.2-.5,0,.6,0,.8,0-.5,0-.4-.1-1,.1.5,0-.4,0-.4,0,.7-.2,0-.1,1.2Z"/>
      <path class="cls-2" d="M86.1,147.3h.6c-.3,0,0-.2-.8-.2.8,0,.3-.1,1.4,0-.7-.2-2.6-.2-1.1-.4-1.4-.2,0,0,.6-.2,0-.1-.7,0-.6,0,1.1-.3-.6,0-.5-.3.8,0,2.1.1,2.2,0-.2-.3-.9,0-1.8,0,0,0,.3,0,.6,0-.3,0-.2-.1.2-.2-1.1,0-1.9-.2-.4-.1-.4,0,0,0,0-.2-1.1,0,.3,0-.6-.1,0,0,.7-.2,0-.2.7-.1-.1-.4.7-.4.1-.2-1.8,0-.5-.3-1,0,.6-.1-.4-.2.9-.3,0,0,0-.5,1.1,0,1.8-.3.4-.2.3-.2.3-.4-.5-.5.2,0,.4-.1.2-.2.2,0,.2,0,.4,0-.7-.2-.2-.2.2-.1,0-.1-.8-.2,0-.2,0,0-.6,0-.4-.1.8,0-.1-.3.9-.4-.6,0-.6,0-1-.2.9,0,0-.8,1-1.2-.1,0-1.5,0-.2,0-.4-.1,0-.3-.7-.4,1.1-.2.8-.7.2-.9.2,0,.4,0,.8,0-.3,0-.3-.2-1-.2.6,0,.5,0,.2-.1,1.6-.1-.2-1.2.8-2.1-.6,0-.1-.6.2-.9-.7,0-.8-.2,0-.1,0,0-.3,0-.6,0,.8-.3.6-.6.2-.9.6.2.6-.3.4-.1.3-.6-.8,0,.3-.7-1,.2-2.1-1.8-1-.1-.4,0,.4.4-.9,0,1.4.4-.5.6.4.5.9.1-.5.2.4.3-.9.4,0,.8-.6,1.2.4,0,.1.2-.1.3,1.2.2-.9.5.4,1.1-1,.8-.3,1,.1,1.7,0,0-1,0,0,0-.6.2.3.4-.5.5.8,1.3-.3,5.9,1.6,7.4-.2-1.3-1.1,1.4-1,.7.9-.8-.9-.5-.8-1.7-1.5-.4.6-1.2-1-1.1.2-.8,1-1.1,0-1.7,1.3.2-.7-.5.5-.7-.9-.2.2-.4-.7-.6.1,0,.4,0,.6,0-.4,0-.4-.6,0-1.3-.3,0-.9-.1-.2-.2-1.4-.1.1-.6-.5-.8.7,0,.2.1.8-.1-.2,0-.8-.2,0-.2-.9,0,.3-.2-.6-.2-.5-.1.8-.2.7-.3-.5-.1-1.4-.8-.3-.7-.2-.9-1.9-.7-.2-1,0,0-.7,0-.6,0-.5,0,.5,0,.2-.2.6.1,0,0,.8,0,0-.1-1.1-.2,0-.2-.7-.2-.3,0,.2-.1-.4,0-1.8-.2-.7-.6,0,0-.6,0-.4-.1.8-.3.2-.3,1.1-.3,0-.2-.8.2-.8-.1.8,0-.3-.1.8,0-.5,0-.5-1.2.2-1.6-1.4-.9,1-2.6,1.3-1,0-.4.1,0,.3.1,0-.7-.2-.1-.2-.8.8.8,1.6,1.1,2.1,1.1-.6.7.6.9-.6,1.3.2-.1,1.4,0,.4.2.3,0,.2.1.8,0-.4,0-.7.1-1.2,0,.9.2,1.5.6.3.7.3,0,.5.2.6.1.6,0-.5,0,.2,0-.7.1-1.8-.5-.8,0,1.1-.2-.1.2-.3.5,1.3.2-.3.1.3.3-.7,0-.7,0-.2,0-.1,0-1.1-.1-.2,0-1.1,0-.7.4.2,0-.2,0,0,.2-.4.3.8-.2.7.4-.3.5,1.2-.2,1.9.2.2.2.6.2.5,0,1.4,0-.7.2-.3.2-1,.2,0,.2,1,0,.4.1-.4,0-.5,0-.8,0,1.5,0,.3.3,1.2.2-.4,0,.2.3-.8.2,1.1.1-.2.3.7.4-.8,0,0,.3-.9.3.4,0,.1.3-.7.3,1,.3.4.6,1.4,1.2-.9,0-1.2,0-1.4.2,1.3-.2,1,.3,1,.2-.6,0-.4,0-1,0,.5,0,.2.1.8.1-.4.2-.1.2-.7.3,1.2,0-.4.2.9.3-.1,0-.2,0,0,0-.6.1-1.2.3,0,.3-.5.1-1.6.1,0,.2-.3.2-.7.3-.3.5-.4-.1-1,.2-.2.2-.7,0,0,.2-.4.3.7,0,.3.2.6.1.7.2-.8.1-.4.2-.6-.2-.9,0,0,0,.1,0-.9.2,0,.2-.5.1-1.7,0-.2.1-.4,0,.4.2-.4.2,0,0,.3,0,.6,0-.4.3.8.4-.3.4.6.2.1,0-.2.2.5,0,1.1.3,0,.4.7,0,0,0,0,.2.8-.2.3,0,0,.1,1.6.2.1-.1-.7.4.7.4,1.1-.1,1,.2.4-.2,1.3,0,.6.4-.8-.2,1,.2-.7.4.8,0,1.2,0,0,0,1,.1.4.2-.2,0-.1.1.7,0,.4.2.5-.1.2,0,.4.2-.6,0-.8,0-1.2,0,.2,0,.5,0,1.2,0-.4,0-.9,0,0,.2.4.4-1,.2-.6.3-.6-.1-1.2-.6-1.6-.5ZM88.3,138.6c-.8,0-1.3.1-.4,0-.9.1.2.1.4,0ZM86.8,143.4c.3-.3-1.9,0-.6-.1.5,0,.2,0,.6.1ZM87.5,144.3c0,0-.2,0-.2-.1-.9,0-.2.2.2.1ZM86.9,145.1c-.1,0-.3,0-.6-.1,0,.3,1.9,0,.6.1Z"/>
      <path class="cls-2" d="M87.4,145.6c.4,0,.4.2.3.3,1,0,.2-.3-.3-.3Z"/>
      <path class="cls-2" d="M87.6,145.8s0,0,0,0h0Z"/>
      <path class="cls-2" d="M85.8,149.1c.5.4-.6.2,0,.8,0-.3.2-1.1.3-.6-.2-1.4,0-.1.2-1.6,0,.3-.3.4-.6,1.3Z"/>
    </g>
    <g>
      <path class="cls-2" d="M97.6,148.8c.5-2.1-.3,1.5,0,.2,0,0-.1,1.3,0,.6-.1-.7.2-.1.3.2-.2-1.2.5,0,.2-1.1.1.2.2.3.3.5,0-.2,0-.1,0,0-.4-.8-.3-.5,0-.4,0,.2.2.7.2.1.1.2.3.4.2.1-.1,0-.4-.5-.6-.6,0,0-.3-.7-.3-.8,0,0,.3.6.4.7-.2-.4-.3-.6-.3-.5-.4-.5-.4-.6-.3-.5.4.7,0-.4.2.5-.2-.6,0-.2,0,.2,0-.4,0,0,0-.6,0,0,0,.5,0,.6,0-.2,0-.4,0-.6,0,.8,0,.1,0,.8,0-.5,0,.6-.1.8,0-.5,0-.4,0-1,0,.5,0-.4,0-.4,0,.7-.1,0-.3,1.2Z"/>
      <path class="cls-2" d="M97.7,147.2l.4.4c-.2-.2,0,0-.6-.5.6.5.2.2,1.1.8-.7-.7-2-1.1-.9-.6-1.3-.4,0,0,.5.2,0,0-.6-.2-.6-.2.8.2-.5-.1-.5,0,.1,0,.3,0,.2,0,.9,0,1.7.2,2,.2-.2-.3-.9,0-1.8-.1,0,0,.3,0,.6,0-.3,0-.2,0,.2,0-.1,0-1.2,0-1,0-1,0,.6,0,.6,0-.4,0,0,0,0,0-1.1,0,.3,0-.6,0,0,0,.7-.1,0-.1.8-.3.9-.3-.3-.3.1,0,.4,0,.6,0-1,0,.6,0-.4-.1.3,0,.2,0,.6-.1-.1,0-.3,0-.6,0,0-.3.8-.1,1.3-.2-.2,0-.6,0-1,0,.3,0,.3-.2-.5-.3.2,0,.4,0,.2-.1.2,0,.2,0,.4,0-.7-.1-.2-.1.2,0,0,0-.8-.1,0-.1,0,0-.6,0-.4,0,.8,0-.1-.2.9-.3-.6,0-.6,0-1-.1.8,0,0-.5,1-.7-.1,0-1.5,0-.2,0-.4,0,0-.2-.7-.2,1.1-.1.8-.4.2-.5.2,0,.4,0,.8,0-.3,0-.3-.1-1-.1.6,0,.5,0,.2,0,1.4,0,.2-.4.7-.4,0,0-.5-.7.1-.9-.6,0-.2-.3.2-.5-.8,0-.8-.1,0,0,0,0-.3,0-.6,0,.8-.2.6-.4.2-.3.6,0,.6-.2.4,0,.1-.2-.6.4.2-.4-.8.6-1-2.4-.7,0-.3-.2.2.5-.6-.5.5.9.2.5-.2.3,0,0,.3.2.3.2.7.6-.5-.2.3.3-.8-.3,0,.1-.6.3.4,0,.1.1-.1.2,1.3.1-1,.3.4.7-1.1.6-.2.5.1,1,0,0-1,0,0,0-.6,0,.3.2-.5.3.6-.2-.1,4.8,1.5,3.7-.2-.8-1,1.7-.9,1,.3-.8.5-.4-.4-.4-.8-.3-1.1-.7-.9-1-1.7-.2,1-.4-.5-1.1,1.1.1-.6-.3.5-.4-.9-.1.2-.3-.7-.4.1,0,.4,0,.6,0-.5,0-.3-.3,0-.8-.3,0-.9,0-.2-.1-1.4,0,0-.4-.5-.5.7,0,.2,0,.8,0-.2,0-.8,0,0-.1-.9,0,.3-.1-.6-.1-.5,0,.8-.1.7-.2,0,0-1.4,0,0-.1,0,0-.7,0-.8,0,.4-.1,0-.1,0-.2.8,0-.2,0,.6,0-.5,0,0-.2,0-.3-1,0-.1,0-1,0-.2-.2,1.1-.3.1-.2-.5,0,.5,0,.2-.1.6,0,0,0,.8,0,0,0-1.1,0,0,0-.7,0-.3,0,.2,0-.3,0-1.8,0-.7-.4-.9-.1.3,0,0-.5,1.4,0,.2.3,0-.3.8.3-.2-.3.8,0-.5-.2.1-1.3.8-1.1-.7-1.3,1.1-1.6,1-.2,0-.4,0,0,.1.2.1-.7-.1-.1,0-.8.2.9.4.8,1,.6-.1.4-.3.8.3.2-.5.8.6.4-.4,1.1.2-.2,1.2-.6.4,0,.3,0,.2,0,.8-.3-.3.3-.6.4-1.1.5.9-.3,1.6.4.4.5.3,0,.5.1.6,0,.6,0-.5,0,.2,0-.5,0-.8,0-1.4-.1.1,0,.9,0,.7.2.7-.1.7,0-.2,0,.5.2,0,.1-.1.2,0,0,.6,0,.6.1,0,0-.9,0-.4,0-.7,0-.7,0-.2,0-.1,0-1.1,0-.2,0-1.1,0-.7.2.2,0-.2,0,0,.1-.4.2.8-.1.8.2-.3.3.5,0,1,0,1.4,0-.2,0-.8.1-1.2,0,.6.1.5,0,1.4,0-.7,0-.3.1-1,0,0,.1,1,0,.4,0-.4,0-.5,0-.8,0,.5,0,1.4.1.6.1,0,0,.4,0,.6,0-.4,0,.2.2-.8.1,1.1,0-.2.2.7.2-.8,0,0,.2-.9.2.4,0,.2.2-.7.2,1.3.1-.3.2,1.1.4-.1,0-.4.2.3.3-.9,0-1.2,0-1.4,0,.9,0,.6-.1,1.2.1-.2,0-.6,0-.2,0-.6,0-.4,0-1,0,.5,0,.2,0,.8,0-.4.1-.1.1-.7.2,1.2,0-.4.1.9.2-.1,0-.2,0,0,0-.6,0-1.2.2,0,.2-.5,0-1.6,0,0,0-.3.1-.7.2-.3.3-.4,0-1,.1-.2,0-.7,0,0,.1-.4.2.8.1.5,0,.8.1-.5,0-.7,0-.6,0-.6-.1-.8,0,0,0,.1,0-.9.1,0,.1-.2,0-.3,0-.8,0,.3,0,0,0-.2,0,0,0,.4,0,.8,0-.4,0,.4,0-.4,0,0,0,.3,0,.6,0-.3.2.8.2-.3.2.6.1.1,0-.2.1.5,0,1.1.2,0,.2.7,0,0,0,0,0,.2,0,.2,0,.2,0,.7,0-.1.1-.2.1,1.5.1.2,0-.7.2.7.2,1.1,0,1,.1.5,0,.1,0,.8,0-.2.1.4.5-.2.5-.7-.4.9.6-.7.1.8.2,1.1.6,0,0,.8.6.3.3-.2,0-.1,0,.6.4.3.3.5.2.2.1.2.4-.5-.4-.6-.5-.9-.7,0,.2.4.3.9.8-.3-.2-.7-.6,0,0,.1.5-.8-.6-.6-.2-.4-.5-.7-1.2-1-1.4ZM99.7,143c-.8,0-1.4,0-.4,0-1,0,.3,0,.4,0ZM98.2,145.8c.3-.2-1.9,0-.6,0,.5,0,.2,0,.6,0ZM99,146.4s-.2,0-.2,0c-.9,0-.2.1.2,0ZM98.9,146.9c-.6,0-.6,0-1.2,0-.2,0,1,0,1.2,0Z"/>
      <path class="cls-2" d="M98.8,147.2c.4,0,.4.1.3.2,1,0,.2-.2-.3-.2Z"/>
      <path class="cls-2" d="M99.1,147.3s0,0,0,0h0Z"/>
      <path class="cls-2" d="M97.3,149.2c.3.4-.4.1,0,.8.5-1.4.1-.7.6-2.1,0,.3-.2.4-.5,1.4Z"/>
    </g>
    <g>
      <path class="cls-2" d="M109.3,148.9c0-1.6.2,0,0,.6.3-.2.2-.8.2.2,0,0,.3.5.3,0-.4-.6.3-.2.6,0-.5-1.1.7-.4,0-1.2.3.1.3.1.5.3-.2-.2,0-.1,0,0-1-.6-.3-.6,0,0,.2,0,0-.3,0-.4.2,0,.5,0,.2,0-.2,0-.6-.1-.8,0-.4-.5-1-.5,0-.2-.4-.2-.6-.3-.5-.3-1-.3-.5-.3-.3,0,0,0-.3-.3.1.2-.4-.5,0-.1,0,.2-.2-.4,0,.1-.3-.5,0,0,.2.5.2.6,0-.2-.1-.4-.2-.6.2.8,0,.1.2.8-.2-.5,0,.6,0,.8,0-.5,0-.4-.1-1,.1.5,0-.4,0-.4,0,.7-.2,0-.1,1.2Z"/>
      <path class="cls-2" d="M109.1,147.5h.6c-.3,0,0-.2-.8-.2.8,0,.3-.1,1.4,0-.7-.2-2.6-.2-1.1-.4-1.4-.2,0,0,.6-.2,0-.1-.7,0-.6,0,1.1-.3-.6,0-.5-.3.8,0,2.1.1,2.2,0-.2-.3-.9,0-1.8,0,0,0,.3,0,.6,0-.3,0-.2-.1.2-.2-1.1,0-1.9-.2-.4-.1-.4,0,0,0,0-.2-1.1,0,.3,0-.6-.1,0,0,.7-.2,0-.2.7-.1-.1-.4.7-.4.1-.2-1.8,0-.5-.3-1,0,.6-.1-.4-.2,1-.3,0,0,0-.5,1.1,0,1.8-.3.4-.2.3-.2.3-.4-.5-.5.2,0,.4-.1.2-.2.2,0,.2,0,.4,0-.7-.2-.2-.2.2-.1,0-.1-.8-.2,0-.2,0,0-.6,0-.4-.1.8,0-.1-.3.9-.4-.6,0-.6,0-1-.2.9,0,0-.8,1-1.2-.1,0-1.5,0-.2,0-.4-.1,0-.3-.7-.4,1.1-.2.8-.7.2-.9.2,0,.4,0,.8,0-.3,0-.3-.2-1-.2.6,0,.5,0,.2-.1,1.6-.1-.2-1.2.8-2.1-.6,0-.1-.6.2-.9-.7,0-.8-.2,0-.1,0,0-.3,0-.6,0,.8-.3.6-.6.2-.9.6.2.6-.3.4-.1.3-.6-.8,0,.3-.7-1,.2-2.1-1.8-1-.1-.4,0,.4.4-.9,0,1.4.4-.5.6.4.5.9.1-.5.2.4.3-.9.4,0,.8-.6,1.2.4,0,.1.2-.1.3,1.2.2-.9.5.4,1.1-1,.8-.3,1,.1,1.7,0,0-1,0,0,0-.6.2.3.4-.5.5.8,1.3-.3,5.9,1.6,7.4-.2-1.3-1.1,1.4-1,.7.9-.8-.9-.5-.8-1.7-1.5-.4.6-1.2-1-1.1.2-.8,1-1.1,0-1.7,1.3.2-.7-.5.5-.7-.9-.2.2-.4-.7-.6.1,0,.4,0,.6,0-.4,0-.4-.6,0-1.3-.3,0-.9-.1-.2-.2-1.4-.1.1-.6-.5-.8.7,0,.2.1.8-.1-.2,0-.8-.2,0-.2-.9,0,.3-.2-.6-.2-.5-.1.8-.2.7-.3-.5-.1-1.4-.8-.3-.7-.2-.9-1.9-.7-.2-1,0,0-.7,0-.6,0-.5,0,.5,0,.2-.2.6.1,0,0,.8,0,0-.1-1.1-.2,0-.2-.7-.2-.3,0,.2-.1-.4,0-1.8-.2-.7-.6,0,0-.6,0-.4-.1.8-.3.2-.3,1.1-.3,0-.2-.8.2-.8-.1.8,0-.3-.1.8,0-.5,0-.5-1.2.2-1.6-1.4-.9,1-2.6,1.3-1,0-.4.1,0,.3.1,0-.7-.2-.1-.2-.8.8.8,1.6,1.1,2.1,1.1-.6.7.6.9-.6,1.2.2-.1,1.4,0,.4.2.3,0,.2.1.8,0-.4,0-.7.1-1.2,0,.9.2,1.5.6.3.7.3,0,.5.2.6.1.6,0-.5,0,.2,0-.7.1-1.8-.5-.8,0,1.1-.2-.1.2-.3.5,1.3.2-.3.1.3.3-.7,0-.7,0-.2,0-.1,0-1.1-.1-.2,0-1.1,0-.7.4.2,0-.2,0,0,.2-.4.3.8-.2.7.4-.3.5,1.2-.2,1.9.2.2.2.6.2.5,0,1.4,0-.7.2-.3.2-1,.2,0,.2,1,0,.4.1-.4,0-.5,0-.8,0,1.5,0,.3.3,1.2.2-.4,0,.2.3-.8.2,1.1.1-.2.3.7.4-.8,0,0,.3-.9.3.4,0,.1.3-.7.3,1,.3.4.6,1.4,1.2-.9,0-1.2,0-1.4.2,1.3-.2,1,.3,1,.2-.6,0-.4,0-1,0,.5,0,.2.1.8.1-.4.2-.1.2-.7.3,1.2,0-.4.2.9.3-.1,0-.2,0,0,0-.6.1-1.2.3,0,.3-.5.1-1.6.1,0,.2-.3.2-.7.3-.3.5-.4-.1-1,.2-.2.2-.7,0,0,.2-.4.3.7,0,.3.2.6.1.7.2-.8.1-.4.2-.6-.2-.9,0,0,0,.1,0-.9.2,0,.2-.5.1-1.7,0-.2.1-.4,0,.4.2-.4.2,0,0,.3,0,.6,0-.4.3.8.4-.3.4.6.2.1,0-.2.2.5,0,1.1.3,0,.4.7,0,0,0,0,.2.8-.2.3,0,0,.1,1.6.2.1-.1-.7.4.7.4,1.1-.1,1,.2.4-.2,1.3,0,.6.4-.8-.2,1,.2-.7.4.8,0,1.2,0,0,0,1,.1.4.2-.2,0-.1.1.7,0,.4.2.5-.1.2,0,.4.2-.6,0-.8,0-1.2,0,.2,0,.5,0,1.2,0-.4,0-.9,0,0,.2.4.4-1,.2-.6.3-.6-.1-1.2-.6-1.6-.5ZM111.3,138.8c-.8,0-1.3.1-.4,0-.9.1.2.1.4,0ZM109.7,143.6c.3-.3-1.9,0-.6-.1.5,0,.2,0,.6.1ZM110.5,144.5c0,0-.2,0-.2-.1-.9,0-.2.2.2.1ZM110.4,145.3c-.6,0-.6,0-1.2,0-.2.2.9.2,1.2,0Z"/>
      <path class="cls-2" d="M110.3,145.8c.4,0,.4.2.3.3,1,0,.2-.3-.3-.3Z"/>
      <path class="cls-2" d="M110.6,146s0,0,0,0h0Z"/>
      <path class="cls-2" d="M108.7,149.3c.5.4-.6.2,0,.8,0-.3.2-1.1.3-.6-.2-1.4,0-.1.2-1.6,0,.3-.3.4-.6,1.3Z"/>
    </g>
    <g>
      <path class="cls-2" d="M120.6,149c.5-2.1-.3,1.4,0,.2,0,0-.1,1.3,0,.6-.1-.7.2-.1.3.2-.2-1.2.5,0,.2-1.1.1.2.2.3.3.5,0-.2,0-.1,0,0-.5-1,0-.6,0,0,.2,0,0-.3,0-.3.1.2.3.4.2.1-.1,0-.4-.5-.6-.6,0,0-.3-.7-.3-.8,0,0,.3.6.4.7-.2-.4-.3-.6-.3-.5-.4-.5-.4-.6-.3-.5.4.7,0-.4.2.5-.2-.6,0-.2,0,.2,0-.4,0,0,0-.6,0,0,0,.5,0,.6,0-.2,0-.4,0-.6,0,.8,0,.1,0,.8,0-.5,0,.6-.1.8,0-.5,0-.4,0-1,0,.5,0-.4,0-.4,0,.7-.1,0-.3,1.2Z"/>
      <path class="cls-2" d="M120.6,147.4l.4.4c-.2-.2,0,0-.6-.5.6.5.2.2,1.1.8-.7-.7-2-1.1-.9-.6-1.3-.4,0,0,.5.2,0,0-.6-.2-.6-.2.8.2-.5-.1-.5,0,.1,0,.3,0,.2,0,.9,0,1.7.2,2,.2-.2-.3-.9,0-1.8-.1,0,0,.3,0,.6,0-.3,0-.2,0,.2,0-.2,0-1.2,0-1,0-1,0,.6,0,.6,0-.4,0,0,0,0,0-1.1,0,.3,0-.6,0,0,0,.7-.1,0-.1.8-.3.9-.3-.3-.3.1,0,.4,0,.6,0-1,0,.6,0-.4-.1.3,0,.2,0,.6-.1-.1,0-.3,0-.6,0,0-.3.8-.1,1.3-.2-.2,0-.6,0-1,0,.3,0,.3-.2-.5-.3.2,0,.4,0,.2-.1.2,0,.2,0,.4,0-.7-.1-.2-.1.2,0,0,0-.8-.1,0-.1,0,0-.6,0-.4,0,.8,0-.1-.2.9-.3-.6,0-.6,0-1-.1.8,0,0-.5,1-.7-.1,0-1.5,0-.2,0-.4,0,0-.2-.7-.2,1.1-.1.8-.4.2-.5.2,0,.4,0,.8,0-.3,0-.3-.1-1-.1.6,0,.5,0,.2,0,1.4,0,.2-.4.7-.4,0,0-.5-.7.1-.9-.6,0-.2-.3.2-.5-.8,0-.8-.1,0,0,0,0-.3,0-.6,0,.8-.2.6-.4.2-.3.6,0,.6-.2.4,0,.1-.2-.6.4.2-.4-.8.6-1-2.4-.7,0-.3-.2.2.5-.6-.5.5.9.2.5-.2.3,0,0,.3.2.3.2.7.6-.5-.2.3.3-.8-.3,0,.1-.6.3.4,0,.1.1-.1.2,1.3.1-1,.3.4.7-1.1.6-.2.5.1,1,0,0-1,0,0,0-.6,0,.3.2-.5.3.6-.2-.1,4.8,1.5,3.7-.2-.8-1,1.7-.9,1,.3-.8.5-.4-.4-.4-.8-.3-1.1-.7-.9-1,0,0-.2,0-.6,0,.2-.6,1-.6,0-1,1.1.1-.6-.3.5-.4-.9-.1.2-.3-.7-.4.1,0,.4,0,.6,0-.5,0-.3-.3,0-.8-.3,0-.9,0-.2-.1-1.4,0,0-.4-.5-.5.7,0,.2,0,.8,0-.2,0-.8,0,0-.1-.9,0,.3-.1-.6-.1-.5,0,.8-.1.7-.2,0,0-1.4,0,0-.1,0,0-.7,0-.8,0,.4-.1,0-.1,0-.2.8,0-.2,0,.6,0-.5,0,0-.2,0-.3-1,0-.1,0-1,0-.2-.2,1.1-.3.1-.2-.5,0,.5,0,.2-.1.6,0,0,0,.8,0,0,0-1.1,0,0,0-.7,0-.3,0,.2,0-.3,0-1.8,0-.7-.4-.9-.1.3,0,0-.5,1.4,0,.2.3,0-.3.8.3-.2-.3.8,0-.5-.2.1-1.3.8-1.1-.7-1.3,1.1-1.6,1-.2,0-.4,0,0,.1.2.1-.7-.1-.1,0-.8.2.9.4.8,1,.6-.1.4-.3.8.3.2-.5.8.6.4-.4,1.1.2-.2,1.2-.6.4,0,.3,0,.2,0,.8-.3-.3.3-.6.4-1.1.5.9-.3,1.6.4.4.5.3,0,.5.1.6,0,.6,0-.5,0,.2,0-.5,0-.8,0-1.4-.1.1,0,.9,0,.7.2.7-.1.7,0-.2,0,.5.2,0,.1-.1.2,0,0,.6,0,.6.1,0,0-.9,0-.4,0-.7,0-.7,0-.2,0-.1,0-1.1,0-.2,0-1.1,0-.7.2.2,0-.2,0,0,.1-.4.2.8-.1.8.2-.3.3.5,0,1,0,1.4,0-.2,0-.8.1-1.2,0,.6.1.5,0,1.4,0-.7,0-.3.1-1,0,0,.1,1,0,.4,0-.4,0-.5,0-.8,0,.5,0,1.4.1.6.1,0,0,.4,0,.6,0-.4,0,.2.2-.8.1,1.1,0-.2.2.7.2-.8,0,0,.2-.9.2.4,0,.2.2-.7.2,1.3.1-.3.2,1.1.4-.1,0-.4.2.3.3-.9,0-1.2,0-1.4,0,.9,0,.6-.1,1.2.1-.2,0-.6,0-.2,0-.6,0-.4,0-1,0,.5,0,.2,0,.8,0-.4.1-.1.1-.7.2,1.2,0-.4.1.9.2-.1,0-.2,0,0,0-.6,0-1.2.2,0,.2-.5,0-1.6,0,0,0-.3.1-.7.2-.3.3-1,0,0,.1-.8,0,0,0,.2,0,.6,0-.7,0,0,.1-.4.2.8.1.5,0,.8.1-.5,0-.7,0-.6,0-.6-.1-.8,0,0,0,.1,0-.9.1,0,.1-.2,0-.3,0-.8,0,.3,0,0,0-.2,0,0,0,.4,0,.8,0-.4,0,.4,0-.4,0,0,0,.3,0,.6,0-.3.2.8.2-.3.2.6.1.1,0-.2.1.5,0,1.1.2,0,.2.7,0,0,0,0,0,.8-.1.3,0,0,0,1.5.1.2,0-.7.2.7.2,1.1,0,1,.1.5,0,.1,0,.8,0-.2.1.4.5-.2.5-.7-.4.9.6-.7.1.8.2,1.1.6,0,0,.8.6.3.3-.2,0-.1,0,.6.4.3.3.5.2.2.1.2.4-.5-.4-.6-.5-.9-.7,0,.2.4.3.9.8-.3-.2-.7-.6,0,0,.1.5-.8-.6-.6-.2-.4-.5-.7-1.2-1-1.4ZM122.7,143.2c-.8,0-1.4,0-.4,0-1,0,.3,0,.4,0ZM121.2,146.1c.3-.2-1.9,0-.6,0,.5,0,.2,0,.6,0ZM122,146.6s-.2,0-.2,0c-.9,0-.2.1.2,0ZM121.9,147.1c-.6,0-.6,0-1.2,0-.2,0,1,0,1.2,0Z"/>
      <path class="cls-2" d="M121.8,147.4c.4,0,.4.1.3.2,1,0,.2-.2-.3-.2Z"/>
      <path class="cls-2" d="M122.1,147.5s0,0,0,0h0Z"/>
      <path class="cls-2" d="M120.2,149.4c.3.4-.4.1,0,.8.5-1.4.1-.7.6-2.1,0,.3-.2.4-.5,1.4Z"/>
    </g>
    <g>
      <path class="cls-2" d="M132.2,149.1c0-1.6.2,0,0,.6.3-.2.2-.8.2.2,0,0,.3.5.3,0-.4-.6.3-.2.6,0-.5-1.1.7-.4,0-1.2.3.1.3.1.5.3-.2-.2,0-.1,0,0-1.4-1.1.4.3,0-.4.8.1-.9-.1-1.3-.6,1.4.7-1.1-.6-.1,0,0,0-.3-.3.1.2-.4-.5,0-.1,0,.2-.2-.4,0,.1-.3-.5,0,0,.2.5.2.6,0-.2-.1-.4-.2-.6.2.8,0,.1.2.8-.2-.5,0,.6,0,.8,0-.5,0-.4-.1-1,.1.5,0-.4,0-.4,0,.7-.2,0-.1,1.2Z"/>
      <path class="cls-2" d="M132,147.7h.6c-.3,0,0-.2-.8-.2.8,0,.3-.1,1.4,0-.7-.2-2.6-.2-1.1-.4-1.4-.2,0,0,.6-.2,0-.1-.7,0-.6,0,1.1-.3-.6,0-.5-.3.8,0,2.1.1,2.2,0-.2-.3-.9,0-1.8,0,0,0,.3,0,.6,0-.3,0-.2-.1.2-.2-1.1,0-1.9-.2-.4-.1-.4,0,0,0,0-.2-1.1,0,.3,0-.6-.1,0,0,.7-.2,0-.2.7-.1-.1-.4.7-.4.1-.2-1.8,0-.5-.3-1,0,.6-.1-.4-.2,1-.3,0,0,0-.5,1.1,0,1.8-.3.4-.2.3-.2.3-.4-.5-.5.2,0,.4-.1.2-.2.2,0,.2,0,.4,0-.7-.2-.2-.2.2-.1,0-.1-.8-.2,0-.2,0,0-.6,0-.4-.1.8,0-.1-.3.9-.4-.6,0-.6,0-1-.2.9,0,0-.8,1-1.2-.1,0-1.5,0-.2,0-.4-.1,0-.3-.7-.4,1.1-.2.8-.7.2-.9.2,0,.4,0,.8,0-.3,0-.3-.2-1-.2.6,0,.5,0,.2-.1,1.6-.1-.2-1.2.8-2.1-.6,0-.1-.6.2-.9-.7,0-.8-.2,0-.1,0,0-.3,0-.6,0,.8-.3.6-.6.2-.9.6.2.6-.3.4-.1.3-.6-.8,0,.3-.7-1,.2-2.1-1.8-1-.1-.4,0,.4.4-.9,0,1.4.4-.5.6.4.5.9.1-.5.2.4.3-.9.4,0,.8-.6,1.2.4,0,.1.2-.1.3,1.2.2-.9.5.4,1.1-1,.8-.3,1,.1,1.7,0,0-1,0,0,0-.6.2.3.4-.5.5.8,1.3-.3,5.9,1.6,7.4-.2-1.3-1.1,1.4-1,.7.9-.8-.9-.5-.8-1.7-1.5-.4.6-1.2-1-1.1.2-.8,1-1.1,0-1.7,1.3.2-.7-.5.5-.7-.9-.2.2-.4-.7-.6.1,0,.4,0,.6,0-.4,0-.4-.6,0-1.3-.3,0-.9-.1-.2-.2-1.4-.1.1-.6-.5-.8.7,0,.2.1.8-.1-.2,0-.8-.2,0-.2-.9,0,.3-.2-.6-.2-.5-.1.8-.2.7-.3-.5-.1-1.4-.8-.3-.7-.2-.9-1.9-.7-.2-1,0,0-.7,0-.6,0-.5,0,.5,0,.2-.2.6.1,0,0,.8,0,0-.1-1.1-.2,0-.2-.7-.2-.3,0,.2-.1-.4,0-1.8-.2-.7-.6,0,0-.6,0-.4-.1.8-.3.2-.3,1.1-.3,0-.2-.8.2-.8-.1.8,0-.3-.1.8,0-.5,0-.5-1.2.2-1.6-1.4-.9,1-2.6,1.3-1,0-.4.1,0,.3.1,0-.7-.2-.1-.2-.8.8.8,1.6,1.1,2.1,1.1-.6.7.6.9-.6,1.2.2-.1,1.4,0,.4.2.3,0,.2.1.8,0-.4,0-.7.1-1.2,0,.9.2,1.5.6.3.7.3,0,.5.2.6.1.6,0-.5,0,.2,0-.7.1-1.8-.5-.8,0,1.1-.2-.1.2-.3.5,1.3.2-.3.1.3.3-.7,0-.7,0-.2,0-.1,0-1.1-.1-.2,0-1.1,0-.7.4.2,0-.2,0,0,.2-.4.3.8-.2.7.4-.3.5,1.2-.2,1.9.2.2.2.6.2.5,0,1.4,0-.7.2-.3.2-1,.2,0,.2,1,0,.4.1-.4,0-.5,0-.8,0,1.5,0,.3.3,1.2.2-.4,0,.2.3-.8.2,1.1.1-.2.3.7.4-.8,0,0,.3-.9.3.4,0,.1.3-.7.3,1,.3.4.6,1.4,1.2-.9,0-1.2,0-1.4.2,1.3-.2,1,.3,1,.2-.6,0-.4,0-1,0,.5,0,.2.1.8.1-.4.2-.1.2-.7.3,1.2,0-.4.2.8.3-.1,0-.2,0,0,0-.6.1-1.2.3,0,.3-.5.1-1.6.1,0,.2-.3.2-.7.3-.3.5-.4-.1-1,.2-.2.2-.7,0,0,.2-.4.3.7,0,.3.2.6.1.7.2-.8.1-.4.2-.6-.2-.9,0,0,0,.1,0-.9.2,0,.2-.5.1-1.7,0-.2.1-.4,0,.4.2-.4.2,0,0,.3,0,.6,0-.4.3.8.4-.3.4.6.2.1,0-.2.2.5,0,1.1.3,0,.4.7,0,0,0,0,.2.8-.2.3,0,0,.1,1.6.2.1-.1-.7.4.7.4,1.1-.1,1,.2.4-.2,1.3,0,.6.4-.8-.2,1,.2-.7.4.8,0,1.2,0,0,0,1,.1.4.2-.2,0-.1.1.7,0,.4.2.5-.1.2,0,.4.2-.6,0-.8,0-1.2,0,.2,0,.5,0,1.2,0-.4,0-.9,0,0,.2.4.4-1,.2-.6.3-.6-.1-1.2-.6-1.6-.5ZM134.2,139c-.8,0-1.3.1-.4,0-.9.1.2.1.4,0ZM132.7,143.8c.3-.3-1.9,0-.6-.1.5,0,.2,0,.6.1ZM133.5,144.7c0,0-.2,0-.2-.1-.9,0-.2.2.2.1ZM133.4,145.5c-.6,0-.6,0-1.2,0-.2.2.9.2,1.2,0Z"/>
      <path class="cls-2" d="M133.3,146c.4,0,.4.2.3.3,1,0,.2-.3-.3-.3Z"/>
      <path class="cls-2" d="M133.5,146.2s0,0,0,0h0Z"/>
      <path class="cls-2" d="M131.7,149.5c.5.4-.6.2,0,.8,0-.3.2-1.1.3-.6-.2-1.4,0-.1.2-1.6,0,.3-.3.4-.6,1.3Z"/>
    </g>
    <g>
      <path class="cls-2" d="M143.6,149.2c.3-1.6.2,0-.1.6.2-.3.2-.7,0,.2.3.7,0-1.2.5.1-.2-1.2.5,0,.2-1.1.1.2.2.3.3.5,0-.2,0-.1,0,0-.4-.8-.3-.5,0-.4,0,.2.2.7.2.1.1.2.3.4.2.1-.1,0-.4-.5-.6-.6,0,0-.3-.7-.3-.8,0,0,.3.6.4.7-.2-.4-.3-.6-.3-.5-.4-.5-.4-.6-.3-.5.4.7,0-.4.2.5-.2-.6,0-.2,0,.2,0-.4,0,0,0-.6,0,0,0,.5,0,.6,0-.2,0-.4,0-.6,0,.8,0,.1,0,.8,0-.5,0,.6-.1.8,0-.5,0-.4,0-1,0,.5,0-.4,0-.4,0,.7-.1,0-.3,1.2Z"/>
      <path class="cls-2" d="M143.6,147.6l.4.4c-.2-.2,0,0-.6-.5.6.5.2.2,1.1.8-.7-.7-2-1.1-.9-.6-1.3-.4,0,0,.5.2,0,0-.6-.2-.6-.2.8.2-.5-.1-.5,0,.1,0,.3,0,.2,0,.9,0,1.7.2,2,.2-.2-.3-.9,0-1.8-.1,0,0,.3,0,.6,0-.3,0-.2,0,.2,0-.2,0-1.2,0-1,0-1,0,.6,0,.6,0-.4,0,0,0,0,0-1.1,0,.3,0-.6,0,0,0,.7-.1,0-.1.8-.3.9-.3-.3-.3.1,0,.4,0,.6,0-1,0,.6,0-.4-.1.3,0,.2,0,.6-.1-.1,0-.3,0-.6,0,0-.3.8-.1,1.3-.2-.2,0-.6,0-1,0,.3,0,.3-.2-.5-.3.2,0,.4,0,.2-.1.2,0,.2,0,.4,0-.7-.1-.2-.1.2,0,0,0-.8-.1,0-.1,0,0-.6,0-.4,0,.8,0-.1-.2.9-.3-.6,0-.6,0-1-.1.8,0,0-.5,1-.7-.1,0-1.5,0-.2,0-.4,0,0-.2-.7-.2,1.1-.1.8-.4.2-.5.2,0,.4,0,.8,0-.3,0-.3-.1-1-.1.6,0,.5,0,.2,0,1.4,0,.2-.4.7-.4,0,0-.5-.7.1-.9-.6,0-.2-.3.2-.5-.8,0-.8-.1,0,0,0,0-.3,0-.6,0,.8-.2.6-.4.2-.3.6,0,.6-.2.4,0,.1-.2-.6.4.2-.4-.8.6-1-2.4-.7,0-.3-.2.2.5-.6-.5.5.9.2.5-.2.3,0,0,.3.2.3.2.7.6-.5-.2.3.3-.8-.3,0,.1-.6.3.4,0,.1.1-.1.2,1.3.1-1,.3.4.7-1.1.6-.2.5.1,1,0,0-1,0,0,0-.6,0,.3.2-.5.3.6-.2-.1,4.8,1.5,3.7-.2-.8-1,1.7-.9,1,.3-.8.5-.4-.4-.4-.8-.3-1.1-.7-.9-1,0,0-.2,0-.6,0,.2-.6,1-.6,0-1,0,0,.4,0,.4,0,.3,0-.9-.3,0-.5-.9-.1.2-.3-.7-.4.1,0,.4,0,.6,0-.5,0-.3-.3,0-.8-.3,0-.9,0-.2-.1-1.4,0,0-.4-.5-.5.7,0,.2,0,.8,0-.2,0-.8,0,0-.1-.9,0,.3-.1-.6-.1-.5,0,.8-.1.7-.2,0,0-1.4,0,0-.1,0,0-.7,0-.8,0,.4-.1,0-.1,0-.2.8,0-.2,0,.6,0-.5,0,0-.2,0-.3-1,0-.1,0-1,0-.2-.2,1.1-.3.1-.2-.5,0,.5,0,.2-.1.6,0,0,0,.8,0,0,0-1.1,0,0,0-.7,0-.3,0,.2,0-.3,0-1.8,0-.7-.4-.9-.1.3,0,0-.5,1.4,0,.2.3,0-.3.8.3-.2-.3.8,0-.5-.2.1-1.3.8-1.1-.7-1.3,1.1-1.6,1-.2,0-.4,0,0,.1.2.1-.6-.1-.1,0-.8.2.9.4.8,1,.6-.1.4-.3.8.3.2-.5.8.6.4-.4,1.1.2-.2,1.2-.6.4,0,.3,0,.2,0,.8-.3-.3.3-.6.4-1.1.5.9-.3,1.6.4.4.5.3,0,.5.1.6,0,.6,0-.5,0,.2,0-.5,0-.8,0-1.4-.1.1,0,.9,0,.7.2.7-.1.7,0-.2,0,.5.2,0,.1-.1.2,0,0,.6,0,.6.1,0,0-.9,0-.4,0-.7,0-.7,0-.2,0-.1,0-1.1,0-.2,0-1.1,0-.7.2.2,0-.2,0,0,.1-.4.2.8-.1.8.2-.3.3.5,0,1,0,1.4,0-.2,0-.8.1-1.2,0,.6.1.5,0,1.4,0-.7,0-.3.1-1,0,0,.1,1,0,.4,0-.4,0-.5,0-.8,0,.5,0,1.4.1.6.1,0,0,.4,0,.6,0-.4,0,.2.2-.8.1,1.1,0-.2.2.7.2-.8,0,0,.2-.9.2.4,0,.2.2-.7.2,1.3.1-.3.2,1.1.4-.1,0-.4.2.3.3-.9,0-1.2,0-1.4,0,.9,0,.6-.1,1.2.1-.2,0-.6,0-.2,0-.6,0-.4,0-1,0,.5,0,.2,0,.8,0-.4.1-.1.1-.7.2,1.2,0-.4.1.9.2-.1,0-.2,0,0,0-.6,0-1.2.2,0,.2-.5,0-1.6,0,0,0-.3.1-.7.2-.3.3-1,0,0,.1-.8,0,0,0,.2,0,.6,0-.7,0,0,.1-.4.2.8.1.5,0,.8.1-.5,0-.7,0-.6,0-.6-.1-.8,0,0,0,.1,0-.9.1,0,.1-.2,0-.3,0-.8,0,.3,0,0,0-.2,0,0,0,.4,0,.8,0-.4,0,.4,0-.4,0,0,0,.3,0,.6,0-.3.2.8.2-.3.2.6.1.1,0-.2.1.5,0,1.1.2,0,.2.7,0,0,0,0,0,.8-.1.3,0,0,0,1.5.1.2,0-.7.2.7.2,1.1,0,1,.1.5,0,.1,0,.8,0-.2.1.4.5-.2.5-.7-.4.9.6-.7.1.8.2,1.1.6,0,0,.8.6.3.3-.2,0-.1,0,.6.4.3.3.5.2.2.1.2.4-.5-.4-.6-.5-.9-.7,0,.2.4.3.9.8-.3-.2-.7-.6,0,0,.1.5-.8-.6-.6-.2-.4-.5-.7-1.2-1-1.4ZM145.7,143.4c-.8,0-1.4,0-.4,0-1,0,.3,0,.4,0ZM144.2,146.3c.3-.2-1.9,0-.6,0,.5,0,.2,0,.6,0ZM144.9,146.8s-.2,0-.2,0c-.9,0-.2.1.2,0ZM144.9,147.3c-.6,0-.6,0-1.2,0-.2,0,1,0,1.2,0Z"/>
      <path class="cls-2" d="M144.8,147.6c.4,0,.4.1.3.2,1,0,.2-.2-.3-.2Z"/>
      <path class="cls-2" d="M145,147.7s0,0,0,0h0Z"/>
      <path class="cls-2" d="M143.2,149.6c.3.4-.4.1,0,.8.5-1.4.1-.7.6-2.1,0,.3-.2.4-.5,1.4Z"/>
    </g>
    <g>
      <path class="cls-2" d="M155.2,149.3c0-1.6.2,0,0,.6.3-.2.2-.8.2.2,0,0,.3.5.3,0-.4-.6.3-.2.6,0-.5-1.1.7-.4,0-1.2.3.1.3.1.5.3-.2-.2,0-.1,0,0-1.4-1.1.4.3,0-.4.8.1-.9-.1-1.3-.6,1.4.7-1.1-.6-.1,0,0,0-.3-.3.1.2-.4-.5,0-.1,0,.2-.2-.4,0,.1-.3-.5,0,0,.2.5.2.6,0-.2-.1-.4-.2-.6.2.8,0,.1.2.8-.2-.5,0,.6,0,.8,0-.5,0-.4-.1-1,.1.5,0-.4,0-.4,0,.7-.2,0-.1,1.2Z"/>
      <path class="cls-2" d="M155,148h.6c-.3,0,0-.2-.8-.2.8,0,.3-.1,1.4,0-.7-.2-2.6-.2-1.1-.4-.7,0-1-.2,0,0,.9-.2.4,0,0-.1.8-.1,0-.3-.2-.2-.8-.3,1.2-.1,1.8,0,.5,0-.8-.2.2,0-.2-.3-.9,0-1.8,0,0,0,.3,0,.6,0-.3,0-.2-.1.2-.2-1.1,0-1.9-.2-.4-.1-.4,0,0,0,0-.2-1.1,0,.3,0-.6-.1,0,0,.7-.2,0-.2.7-.1-.1-.4.7-.4.1-.2-1.8,0-.5-.3-1,0,.6-.1-.4-.2,1-.3,0,0,0-.5,1.1,0,1.8-.3.4-.2.3-.2.3-.4-.5-.5.2,0,.4-.1.2-.2.2,0,.2,0,.4,0-.7-.2-.2-.2.2-.1,0-.1-.8-.2,0-.2,0,0-.6,0-.4-.1.8,0-.1-.3.9-.4-.6,0-.6,0-1-.2.9,0,0-.8,1-1.2-.1,0-1.5,0-.2,0-.4-.1,0-.3-.7-.4,1.1-.2.8-.7.2-.9.2,0,.4,0,.8,0-.3,0-.3-.2-1-.2.6,0,.5,0,.2-.1,1.6-.1-.2-1.2.8-2.1-.6,0-.1-.6.2-.9-.7,0-.8-.2,0-.1,0,0-.3,0-.6,0,.8-.3.6-.6.2-.9.6.2.6-.3.4-.1.3-.6-.8,0,.3-.7-1,.2-2.1-1.8-1-.1-.4,0,.4.4-.9,0,1.4.4-.5.6.4.5.9.1-.5.2.4.3-.9.4,0,.8-.6,1.2.4,0,.1.2-.1.3,1.2.2-.9.5.4,1.1-1,.8-.3,1,.1,1.7,0,0-1,0,0,0-.6.2.3.4-.5.5.8,1.3-.3,5.9,1.6,7.4-.2-1.3-1.1,1.4-1,.7.9-.8-.9-.5-.8-1.7-1.5-.4.6-1.2-1-1.1.2-.8,1-1.1,0-1.7,1.3.2-.7-.5.5-.7-.9-.2.2-.4-.7-.6.1,0,.4,0,.6,0-.4,0-.4-.6,0-1.3-.3,0-.9-.1-.2-.2-1.4-.1.1-.6-.5-.8.7,0,.2.1.8-.1-.2,0-.8-.2,0-.2-.9,0,.3-.2-.6-.2-.5-.1.8-.2.7-.3-.5-.1-1.4-.8-.3-.7-.2-.9-1.9-.7-.2-1,0,0-.7,0-.6,0-.5,0,.5,0,.2-.2.6.1,0,0,.8,0,0-.1-1.1-.2,0-.2-.7-.2-.3,0,.2-.1-1.7,0-1.1-1.1,0-1,0-.2-.8.2-.8-.1.8,0-.3-.1.8,0-.5,0-.5-1.2.2-1.6-1.4-.9,1-2.6,1.3-1,0-.4.1,0,.3.1,0-.7-.2-.1-.2-.8.8.8,1.6,1.1,2.1,1.1-.6.7.6.9-.6,1.2.2-.1,1.4,0,.4.2.3,0,.2.1.8,0-.4,0-.7.1-1.2,0,.9.2,1.5.6.3.7.3,0,.5.2.6.1.6,0-.5,0,.2,0-.7.1-1.8-.5-.8,0,1.1-.2-.1.2-.3.5,1.3.2-.3.1.3.3-.7,0-.7,0-.2,0-.1,0-1.1-.1-.2,0-1.1,0-.7.4.2,0-.2,0,0,.2-.4.3.8-.2.7.4-.3.5,1.2-.2,1.9.2.2.2.6.2.5,0,1.4,0-.7.2-.3.2-1,.2,0,.2,1,0,.4.1-.4,0-.5,0-.8,0,1.5,0,.3.3,1.2.2-.4,0,.2.3-.8.2,1.1.1-.2.3.7.4-.8,0,0,.3-.9.3.4,0,.1.3-.7.3,1,.3.4.6,1.4,1.2-.9,0-1.2,0-1.4.2,1.3-.2,1,.3,1,.2-.6,0-.4,0-1,0,.5,0,.2.1.8.1-.4.2-.1.2-.7.3,1.2,0-.4.2.8.3-.1,0-.2,0,0,0-.6.1-1.2.3,0,.3-.5.1-1.6.1,0,.2-.3.2-.7.3-.3.5-.4-.1-1,.2-.2.2-.7,0,0,.2-.4.3.7,0,.3.2.6.1.7.2-.8.1-.4.2-.6-.2-.9,0,0,0,.1,0-.9.2,0,.2-.5.1-1.7,0-.2.1-.4,0,.4.2-.4.2,0,0,.3,0,.6,0-.4.3.8.4-.3.4.6.2.1,0-.2.2.5,0,1.1.3,0,.4.7,0,0,0,0,.2.8-.2.3,0,0,.1,1.6.2.1-.1-.7.4.7.4,1.1-.1,1,.2.4-.2,1.3,0,.6.4-.8-.2,1,.2-.7.4.8,0,1.2,0,0,0,1,.1.4.2-.2,0-.1.1.7,0,.4.2.5-.1.2,0,.4.2-.6,0-.8,0-1.2,0,.2,0,.5,0,1.2,0-.4,0-.9,0,0,.2.4.4-1,.2-.6.3-.6-.1-1.2-.6-1.6-.5ZM157.2,139.2c-.8,0-1.3.1-.4,0-.9.1.2.1.4,0ZM155.7,144c.3-.3-1.9,0-.6-.1.5,0,.2,0,.6.1ZM156.4,144.9c0,0-.2,0-.2-.1-.9,0-.2.2.2.1ZM156.4,145.7c-.6,0-.6,0-1.2,0-.2.2.9.2,1.2,0Z"/>
      <path class="cls-2" d="M156.3,146.2c.4,0,.4.2.3.3,1,0,.2-.3-.3-.3Z"/>
      <path class="cls-2" d="M156.5,146.4s0,0,0,0h0Z"/>
      <path class="cls-2" d="M154.7,149.7c.5.4-.6.2,0,.8,0-.3.2-1.1.3-.6-.2-1.4,0-.1.2-1.6,0,.3-.3.4-.6,1.3Z"/>
    </g>
    <g>
      <path class="cls-2" d="M166.5,149.4c.3-1.6.2,0-.1.6.2-.3.2-.7,0,.2.3.7,0-1.2.5.1-.2-1.2.5,0,.2-1.1.1.2.2.3.3.5,0-.2,0-.1,0,0-.4-.8-.3-.5,0-.4,0,.2.2.7.2.1.1.2.3.4.2.1-.1,0-.4-.5-.6-.6,0,0-.3-.7-.3-.8,0,0,.3.6.4.7-.2-.4-.3-.6-.3-.5-.4-.5-.4-.6-.3-.5.4.7,0-.4.2.5-.2-.6,0-.2,0,.2,0-.4,0,0,0-.6,0,0,0,.5,0,.6,0-.2,0-.4,0-.6,0,.8,0,.1,0,.8,0-.5,0,.6-.1.8,0-.5,0-.4,0-1,0,.5,0-.4,0-.4,0,.7-.1,0-.3,1.2Z"/>
      <path class="cls-2" d="M166.6,147.8l.4.4c-.2-.2,0,0-.6-.5.6.5.2.2,1.1.8-.7-.7-2-1.1-.9-.6-1.3-.4,0,0,.5.2,0,0-.6-.2-.6-.2.8.2-.5-.1-.5,0,.1,0,.3,0,.2,0,.9,0,1.7.2,2,.2-.2-.3-.9,0-1.8-.1,0,0,.3,0,.6,0-.3,0-.2,0,.2,0-.1,0-1.2,0-1,0-1,0,.6,0,.6,0-.4,0,0,0,0,0-1.1,0,.3,0-.6,0,0,0,.7-.1,0-.1.8-.3.9-.3-.3-.3.1,0,.4,0,.6,0-1,0,.6,0-.4-.1.3,0,.2,0,.6-.1-.1,0-.3,0-.6,0,0-.3.8-.1,1.3-.2-.2,0-.6,0-1,0,.3,0,.3-.2-.5-.3.2,0,.4,0,.2-.1.2,0,.2,0,.4,0-.7-.1-.2-.1.2,0,0,0-.8-.1,0-.1,0,0-.6,0-.4,0,.8,0-.1-.2.9-.3-.6,0-.6,0-1-.1.8,0,0-.5,1-.7-.1,0-1.5,0-.2,0-.4,0,0-.2-.7-.2,1.1-.1.8-.4.2-.5.2,0,.4,0,.8,0-.3,0-.3-.1-1-.1.6,0,.5,0,.2,0,1.4,0,.2-.4.7-.4,0,0-.5-.7.1-.9-.6,0-.2-.3.2-.5-.8,0-.8-.1,0,0,0,0-.3,0-.6,0,.8-.2.6-.4.2-.3.6,0,.6-.2.4,0,.1-.2-.6.4.2-.4-.8.6-1-2.4-.7,0-.3-.2.2.5-.6-.5.5.9.2.5-.2.3,0,0,.3.2.3.2.7.6-.5-.2.3.3-.8-.3,0,.1-.6.3.4,0,.1.1-.1.2,1.3.1-1,.3.4.7-1.1.6-.2.5.1,1,0,0-1,0,0,0-.6,0,.3.2-.5.3.6-.2-.1,4.8,1.5,3.7-.2-.8-1,1.7-.9,1,.3-.8.5-.4-.4-.4-.8-.3-1.1-.7-.9-1-1.7-.2,1-.4-.5-1.1,1.2.1-.6-.3.5-.4-.9-.1.2-.3-.7-.4.1,0,.4,0,.6,0-.5,0-.3-.3,0-.8-.3,0-.9,0-.2-.1-1.4,0,0-.4-.5-.5.7,0,.2,0,.8,0-.2,0-.8,0,0-.1-.9,0,.3-.1-.6-.1-.5,0,.8-.1.7-.2,0,0-1.4,0,0-.1,0,0-.7,0-.8,0,.4-.1,0-.1,0-.2.8,0-.2,0,.6,0-.5,0,0-.2,0-.3-1,0-.1,0-1,0-.2-.2,1.1-.3.1-.2-.5,0,.5,0,.2-.1.6,0,0,0,.8,0,0,0-1.1,0,0,0-.7,0-.3,0,.2,0-.3,0-1.8,0-.7-.4-.9-.1.3,0,0-.5,1.4,0,.2.3,0-.3.8.3-.2-.3.8,0-.5-.2.1-1.3.8-1.1-.7-1.3,1.1-1.6,1-.2,0-.4,0,0,.1.2.1-.7-.1-.1,0-.8.2.9.4.8,1,.6-.1.4-.3.8.3.2-.5.8.6.4-.4,1.1.2-.2,1.2-.6.4,0,.3,0,.2,0,.8-.3-.3.3-.6.4-1.1.5.9-.3,1.6.4.4.5.3,0,.5.1.6,0,.6,0-.5,0,.2,0-.5,0-.8,0-1.4-.1.1,0,.9,0,.7.2.7-.1.7,0-.2,0,.5.2,0,.1-.1.2,0,0,.6,0,.6.1,0,0-.9,0-.4,0-.7,0-.7,0-.2,0-.1,0-1.1,0-.2,0-1.1,0-.7.2.2,0-.2,0,0,.1-.4.2.8-.1.8.2-.3.3.5,0,1,0,1.4,0-.2,0-.8.1-1.2,0,.6.1.5,0,1.4,0-.7,0-.3.1-1,0,0,.1,1,0,.4,0-.4,0-.5,0-.8,0,.5,0,1.4.1.6.1,0,0,.4,0,.6,0-.4,0,.2.2-.8.1,1.1,0-.2.2.7.2-.8,0,0,.2-.9.2.4,0,.2.2-.7.2,1.3.1-.3.2,1.1.4-.1,0-.4.2.3.3-.9,0-1.2,0-1.4,0,.9,0,.6-.1,1.2.1-.2,0-.6,0-.2,0-.6,0-.4,0-1,0,.5,0,.2,0,.8,0-.4.1-.1.1-.7.2,1.2,0-.4.1.9.2-.1,0-.2,0,0,0-.6,0-1.2.2,0,.2-.5,0-1.6,0,0,0-.3.1-.7.2-.3.3-.4,0-1,.1-.2,0-.7,0,0,.1-.4.2.8.1.5,0,.8.1-.5,0-.7,0-.6,0-.6-.1-.8,0,0,0,.1,0-.9.1,0,.1-.2,0-.3,0-.8,0,.3,0,0,0-.2,0,0,0,.4,0,.8,0-.4,0,.4,0-.4,0,0,0,.3,0,.6,0-.3.2.8.2-.3.2.6.1.1,0-.2.1.5,0,1.1.2,0,.2.7,0,0,0,0,0,.8-.1.3,0,0,0,1.5.1.2,0-.7.2.7.2,1.1,0,1,.1.5,0,.1,0,.8,0-.2.1.4.5-.2.5-.7-.4.9.6-.7.1.8.2,1.1.6,0,0,.8.6.3.3-.2,0-.1,0,.6.4.3.3.5.2.2.1.2.4-.5-.4-.6-.5-.9-.7,0,.2.4.3.9.8-.3-.2-.7-.6,0,0,.1.5-.8-.6-.6-.2-.4-.5-.7-1.2-1-1.4ZM168.7,143.6c-.8,0-1.4,0-.4,0-1,0,.3,0,.4,0ZM167.1,146.5c.3-.2-1.9,0-.6,0,.5,0,.2,0,.6,0ZM167.9,147s-.2,0-.2,0c-.9,0-.2.1.2,0ZM167.8,147.5c-.6,0-.6,0-1.2,0-.2,0,1,0,1.2,0Z"/>
      <path class="cls-2" d="M167.7,147.8c.4,0,.4.1.3.2,1,0,.2-.2-.3-.2Z"/>
      <path class="cls-2" d="M168,147.9s0,0,0,0h0Z"/>
      <path class="cls-2" d="M166.2,149.8c.3.4-.4.1,0,.8.5-1.4.1-.7.6-2.1,0,.3-.2.4-.5,1.4Z"/>
    </g>
  </g>
</svg>