<?xml version="1.0" encoding="UTF-8"?>
<svg id="Layer_1" data-name="Layer 1" xmlns="http://www.w3.org/2000/svg" version="1.1" viewBox="0 0 200 200">
  <defs>
    <style>
      .cls-1 {
        fill: none;
      }

      .cls-1, .cls-2 {
        stroke-width: 0px;
      }

      .cls-2 {
        fill: #fff;
      }
    </style>
  </defs>
  <g>
    <path class="cls-1" d="M132.2,30.6c-5.6,11.9,0,7.3-1.8,12.4-1.4,5.7-9.9-5.1-10.6,2.9-5.8,33.8-64.1,76.2-53.9,106.1.6,5.3,3.1,6.5,2.6,11-.4,2.6-.3,3.2,1.2,4,8.6-25.9,23.9-49.5,37.2-72.9,2.8-4.9,10.1-18.9,11.9-20.9,1.6,1.5,4.8,2.9,7.5,3.5-1.4,9.8-4.3,22.3-5.7,32.4-3.4,21.1-6.3,40-12.6,61.6.4,2.7-6.5,9.9-2.1,9.1.7-.2,1.1-.7,2.2-2.4,8-6.9,21.2-13.8,22.5-26.2,1-5.4,3.8,4.4,5.6.2-.1-2.7,3.5-14.8-4-10-2.1-22.1,4.2-47.5,5.1-70.5-.1-1.9,7-15,7.9-19.3-1.4-1.5-5.8-2.7-8.4-3.7.9-2.6,1.3-4.8,4-4.8,1.5-4.3,4.6-12.8,6.1-17.1-1.1-1.2-1.2-1.1-4.7-2.4-7.4-1.7-5-5.3-9.9,6.9ZM131.3,38.8c-.1,0,5.1-15.3,5.9-14.7.4-.4-5.9,15.7-5.9,14.7ZM133.7,39.7c-.3-.2,6.1-16.9,6-14.5,0,.3-5.7,14.5-6,14.5ZM136.3,40.4c0-1.5,6.6-16.8,5.9-14.1-.2,1.7-5,12.7-5.9,14.1ZM138.7,41.2c0-.4,5.1-13.6,5.5-14,1.7-2.1-6.3,17.6-5.5,14ZM128.7,57.2c-1.9-.7-2.1-2.4-.4-2.9,3.2-1.1,4.4,3.9.4,2.9ZM125.1,66.9c-2.4-1-1.2-3.5,1.1-3,2.3.7,1.7,3.8-1.1,3ZM108.3,86.6c-12.9,23.5-28,45.6-37,68.9-2.7,6-5.4-17.6-2.2-21.9,12.6-20.8,33.2-49.4,45.7-68.3,4.5,6.9-3.1,14.1-6.5,21.3ZM126.1,154.3c-.3,5.3-17.1,21.8-15.6,15.5,9-27.8,11.6-60,17.6-90.1-.6-3.9,4.7-3.8,6.6-5.9-4.3,24.4-4.4,55.6-8.6,80.5ZM131,148.5c.7-1.3-1.5-7.6,2.3-5.3.3,1.3.8,7.1-2.3,5.3Z"/>
    <g>
      <path class="cls-2" d="M133.7,145.6c-1.7-.2,1.2.1.1,0,0,0,1,0,.4,0-.5,0-.1-.1.1-.1-1,0,0-.2-.8-.2.2,0,.2,0,.4,0-.2,0,0,0,0,0-1.5,0,1-.1-.5-.1-.2,0,.1,0-.1,0,0,0-.6,0-.6,0,.6,0,.5,0,.1,0-1,0-.2.2-.2.2,0,0-.3,0,.2,0-.4,0-.1,0,.2,0-.3,0,0,0-.4,0,.5,0,.5,0,0,0,.6,0,0,0,.6,0-.4,0,.5,0,.6.1-.3,0-.3,0-.7,0,.4,0-.3-.1-.3,0,.5,0,0,.2.9.1Z"/>
      <path class="cls-2" d="M132.4,144.8h.4c-.3,0,0-.1-.6-.1.6,0,.2,0,1,0-.6,0-1.8,0-.8-.2-1.5,0,1.4,0,0,0,.6,0,0-.1-.2,0-.5,0,0-.1,0,0,.7-.1,1.3,0,1.5,0-.2-.2-.7,0-1.4,0,0,0,.2,0,.4,0-.2,0-.1,0,.1,0-.1,0-.9,0-.7,0-.7,0,.4,0,.4,0-.3,0,0,0,0,0-.8,0,.2,0-.5,0,0,0,.5-.1,0,0,.5-.2.6-.2-.2-.1,0,0,.3,0,.4-.1-.7.1.5-.1-.3,0,.2,0,.2,0,.4-.1,0,0-.2,0-.4.1,0,.5.8,0,1.2-.1,0,.1-.1.5-.2.7,0-.2-.1-.3-.3.3,0-.2,0-.3,0-.1,0-.1,0-.1,0-.3-.2.5-.1.1,0-.1,0,0-.2.6,0,0,0,0-.1.4-.1.3.1-.6-.2,0,0-.7-.1.4-.1.4-.2.7.2-.6-.3,0-.4-.8,0,0-.2,1.1,0,.2-.1.3-.1,0-.2.5.1-.6-.3-.7,0-.3,1,.2-.1-1.3,1.2-.8-.5,0-.4,0-.1,0-1,0-.1.3-.5.2,0,0,.3.5-.1.7.4,0,.1.3-.2.4.6,0,.6.1,0,0,0,0,.2,0,.5,0-.6.1-.5.3-.2.4-.4-.1-.4.1-.3,0-.3.1.7.3-.3.4,1,.9-1.8.8,0,.8-.4.1.6.2-.5.3.8,0,.4.2,0,.2,0,0,.3,0,.3,0,.7,0-.4,0,.3.1-.6.1,0,.4-.4.6.3,0,0,0-.1.2.7,0,0,.2,0,.3.8.4,0,.3,0,.7.3.3.5-.5.6-.4,0,0,0,.7,0,0,0,.4.2-.2.2.4.1-.2.6,0,1.2-.4,0,0-.1,0-.1.2.7-1-1.4-2.3-.2-2.7,1.3.1,0,.2,0,.3.9.7.8,1.4,1.4,1.7-.3.4-.7.4-.2.9-.6-.2,0,0-.1.3-.4.6-.8.1-1,.8,0-.1,0-.3,0-.4,0,.3-.3.3-.7,0,0,.2,0,.7-.1.2,0,1-.3,0-.4.4,0-.5,0-.1,0-.6,0,.2-.1.6-.1,0,0,.7,0-.2-.2.5-.2.4,0-.6-.1-.6,0,0-.4,1-.2,0-.1,1.3-2-1.1-.8-.8-.4,0,0-.2,0-.3-.8,0-.1,0-.8,0-.1-.1.8-.2.1-.2-.4,0,.4,0,.1,0,.4,0,0,0,.6,0,0,0-.8,0,0,0-.5,0-.2,0,.1,0-1.2,0-.9-.6,0-.5,0,0-.5,0-.6,0,.6,0-.2,0,.6,0-.4-.1-.6,0,0-.2-.3,0-.3-.3,0-.4-.7,0-.1,0-.8-.2,0-.2.5-.4.8-.3-.3,0,0,0,.1,0-.5,0-.1,0-.6,0,.8,0,.4-.3.2-.4.3,0,.6,0,0-.1.7,0-.2-.2.8-.2-.2,0-1-.1-.3,0-.2,0-.1,0-.6,0,.3,0,.5,0,.9,0-.7-.1-1.1-.3-.2-.4-.3,0-.4-.1-.5,0-.5,0,.4,0-.2,0,.4,0,.6.1,1.1.1-.1,0-.7,0-.5-.1-.5,0-.5,0,.1,0-.4-.2,0-.1.1-.2-1-.1.3,0-.2-.2.5,0,.5,0,.1,0,0,0,.8,0,.1,0,.8,0,.6-.2-.2,0,.1,0,0,0,.3-.1-.6,0-.6-.2.2-.2-.4,0-.7,0-1.1,0,.1,0,.6,0,.9,0-.4-.1-.4,0-1,0,.5,0,.2,0,.7,0,0,0-.7,0-.3,0,.3,0,.4,0,.6,0-.4,0-1.1-.2-.5-.1,0,0-.3,0-.5,0,.3,0-.2-.1.6,0-.8-.1.1-.1-.5-.2.6,0,0-.2.7,0-.3-.2.2-.2.6,0-.5-.3-.2.2,0-.6,0,0,.2.3.3-.2-.2.7-.1.9-.1,1,.1-.7,0-.5.3-.9,0,.2-.1.4,0,.1,0,.5,0,.3-.1.7,0-.3,0-.1.2-.6,0,.3,0,0,0,.6.2-.9,0,.3.3-.6,0,0,0,.2,0,0,0,.4,0,.9.2,0,0,.4-.2,1.2,0,0,0,.3,0,.5.2.3-.2.7,0,0-.1.6,0,0,0-.1.2-.4,0,.5,0,0,0,.3.1-.5.1-.2.2-.4.2-.5,0,.5,0,.3-.2.5-.1.6,0,0,0,0,0,.7.1,0,0,.5-.8.9,0,.2-.2.2.3,0-.2.2,0,0,.2,0,.4-.1-.2.2.6.1-.2.3.3,0,.1,0-.1.1.3,0,.9,0,0,.2.5,0,0,0,0,0,.6-.1.2,0,0,0,1.2,0,.2,0-.5.2.5.1.8,0,.8,0,.4,0,0,0,.6,0-.2,0,.3.2-.1.3-.6,0,.8,0-.5.2.6,0,.9,0,0,0,.8,0,.3,0-.1,0,0,0,.5,0,.3,0,.4,0,.1,0,.3,0-.5,0-.6,0-.9,0,.1,0,.4,0,.9,0-.3,0-.7,0,0,0,.3,0-.7,0-.4.1-.5,0-1.1,0-1.2-.2ZM130.6,143.2c.6,0,1,0,.3,0,.7,0-.2,0-.3,0ZM132.9,143.6c0-.3-.3,1.4-.2.4,0-.3,0-.2.2-.4ZM133.4,143.3s-.2,0-.2,0c-.6.2-.1.1.2,0ZM133.4,143.7c-.5,0-.4,0-.9,0-.1,0,.7,0,.9,0Z"/>
      <path class="cls-2" d="M133.3,143.9c.3,0,.3,0,.2.1.7,0,.1-.2-.2-.1Z"/>
      <path class="cls-2" d="M133.5,144.1s0,0,0,0h0Z"/>
      <path class="cls-2" d="M134,145.8c.3-.2,0,.2.6,0-.2,0-.8,0-.5,0-1,0-.2,0-1.2,0,.2,0,.3.1,1.1.2Z"/>
    </g>
    <g>
      <path class="cls-2" d="M135,74.5c-1.2.6-.2-1.4.5,0,0-.7-.3-.3-.5-1h0c-1.1-.3-.4-.7.3,0v-.2c.2.5.3.2,0-.1l.2.3c-1.9-1.7-2.3,1.3-4.2,1.9-1.4,1-2.2.1-1.9,1.2-.2-.5-.8.3-.9,0,1.1-1.2-1.1.4-.7,1.2.5-.5.6-1.3,1.4-1.1-.4.5-.6,1.2-.1.3-1,.4-.3.1-.2,1.1.8.2.9-1.9,0-.3,2.5-1,3.5-1.9,5.3-2.6,0-.8-.2.1-.6-.3,1.2-.5,0-.6.4-1.2.4.1.2.2.6.5-1.4.6,1.2.5-.2-.3h0c0-.3-.1,1.8.6.6Z"/>
      <path class="cls-2" d="M129,81.8c-1,.4-1.1.5-.9,1.7.5-1.6,1-.4.6,1.2-.3-.5-.2,0-.5.2,0,.4.7.1.3.9-.2-.8-.6-.3-.9,0,.8.5.2-.2-.1,1.7.9-.4.6-.3.5.7-.2.7-.1-.4,0-.7-1,1-.7.2-1.3-.4-.1.9-.1.7-.4,1.9.5-.9,2.1-.4,1-.5-.7,2.6,1,.5.4,2-.9-.6-.7,1.2-.4,1.7-1.1,2.3-.6,4.1-1.2,5.8.4-.4-.1,1.9-.5,2.4.8.6.1,2.1-1,2.9,1.3,1.9-.2,7-1.4,10,.4,8.2-3.3,16.5-3.9,24.1-.6,2.7-1.3,8.5-1.6,9.4-.9,5.5-2.3,7.8-3.2,13.1,0-1.3-.9,1.5-.5.8-1.6,3.2-2.1,9.7-4.1,11.3,1.6-1.4,4.4-2.2,4-3.1,10-6.1,15.5-18.1,14.3-31.5,2.1-18.8,1.8-41.5,5.8-61.4-1.4,18.9-3.5,42.1-4.3,57.9-.2.4,0,1-.4,1.5.5.9.4,3.4-.4,4.5.3.8.9,4.8,0,4.8.1,3.4,0,6.3-.8,8-.2-1-.1.2-.6,0-.2.7.5,1.2-.3,1.1,0,.6.4.9-.4.8.2.2,0,1.4.5.9-1.1,2.4-1.6,4.8-3.5,5.3-.3.6.4,0,.5.3-.4.5-.7,1.2-1.4,1-4.3,5.5-9.2,9.5-14,11.6,1.6-3.4.9-7.7,3.5-10.1-1.1-.2.8-2-.4-1.7.4-.4.8-.6.9,0-.9-1.7,1.4-4.7.8-5.3-.5,0,.5-.5,0-.7.5-.4.3,1.1.8,1.3-1-2.1,1.1-3.1.7-6.1.3.7.8-2,.7-.5.4,0,.1-.8,0-.9.2-.6.2.4.4.3,0-.4,0-.7-.1-.9.2-.6.5.5.7-.3-.7,0,.5-.7-.1-1.1-.9,1.7-.4-.1,0-.9-.1,0-.3.1-.4.4-.2-.8.5-3,1.2-3.3-.3-.3-.3,0-.5.4-.9-.4,0-1.9.5-1.5-.2-1.1-.4.4-1.1,0,.7-.9.4-1.1.9-1,.2-1.1-.7-.1-.2-.9.5-.2.3.5.7-.6-.9.4-.8-3.2,0-2.8,0-5,2.9-8.2,2.2-14.1,1.1.9,1.5-2.4.5-.2-.2-.8.5-3.6.2-1.9.5,0,.3-.1.7.1-.2-4.8,1-6.9,1.2-11.6.3.7,1-1.3.3-1.1.9-1.1,0-2.1.2-3.2.6.5.6-1.4.7,0,.4-.9-.5-3,.8-3.2.1.9-.8-3.9.3-4.3.4-1-.5-2.4.7-3.6-.2-.8-.2-.7.3-1.9.1-.6-.9.1-.5-.7,1.2,1.2.6-1.3,1.5-1.6,0-3-1,.7-.6-1.2-1.2,1.8-.3-2.5,0-2.9.1,1.1.3-.2,0,0,.4-3.2.8-1.9.7-4,1,.6.2.4.4-.6-.7.8,0-1.5.9-1.6,0-.5-.5.6-.9.1.3-.2.8-.5,0-.6-.2-1.2.9-1.4.7-1.9,2.4,0-.4,3.2.8,4ZM118.2,135.8c0-.4-.2.7-.5,1,.7-.3.8.2.7-.6.4-.5-.3.4-.3,0,.5,0,.6-1.5,0-.4ZM124.1,106c-.4,2.1,1.5-.2.4.7-.4,0,0-.6-.4-.7ZM124.9,99.6c-.5.3-.3.5-.3,1,.4.4.6-1.1.3-1ZM125.4,95.1c.5.2.4-.3.8.5.3-1-.5-1.1-.8-.5Z"/>
      <path class="cls-2" d="M126.1,91.9c-.2-.6-.1-1.2,0-1.7-.8.2-.5,2.1,0,1.7Z"/>
      <path class="cls-2" d="M126.2,90.2h0s0,0,0,0Z"/>
      <path class="cls-2" d="M135.3,76.3c.3-1.4,0,0,.4,0,.5-1.2-.7-.6-.2-1.5-.7,0-.2,1.1-.5,1.3-.1-1.2.1-.8-.7-1.1.2.7.3,1.4,1,1.3Z"/>
    </g>
    <g>
      <path class="cls-2" d="M114.4,65c1,1-1.3.5-.2-.4-.8,0-.3,1.6-.8.5-1,.5,0,1.1-1.8,2.1.5,1.6-2.3,3-1.1,3.5-.5-.3-.4.7-.7.6.2-1.3-.3,0-.5.5-1,.7,1-.4,1-.9.4,2.1-.5,0-.6,1.9,1.8-.1,1.6-4.3,3.4-4.8-.2-.4-.4-.6.5-.7-.2-.8-.2.2-.6-.2,1.1-.8-.2-.6.2-1.2.5,0,.2.2.7.3-1.3,1.5,1.8-1.1.4-1.2Z"/>
      <path class="cls-2" d="M108.5,76.3c-1.1,0-1.2,0-1.4,1.2,1.1-1.3,1,.1,0,1.4,0-.6-.2,0-.5,0-.2.4.6.4,0,1,.1-.8-.4-.6-.9-.3.5.8.2-.1-.7,1.6,1,0,.7,0,.2.8-.4.5,0-.4.2-.6-1.3.6-.7,0-1.1-.9-.4.8-.4.6-1.1,1.6.8-.7,2.1.4,1.1-.2-1.5,2.2.7.8-.3,2.1-.6-.9-1.1.9-1,1.5-1.8,1.8-2.1,3.7-3.3,4.9.5-.2-.9,1.7-1.4,2,.5.9-.7,2-2.2,2.3.3,2.3-3.2,6.4-5.7,8.5-3.8,7.4-10.1,13.5-14.2,20.2-1.8,2-4.9,7-5.2,7.9-1.8,4.9-3.5,7.6-2.7,12.7-.5-1.1-.3,1.7-.2.9.1,3.7,2.7,10.1,1.8,12.8,2.4-3,1.5-4.8,3.9-7.3,1.4-9.1,10.1-19.4,14.5-29.6,6.8-14.9,27.5-39.4,26-54,1.4.4,1.2,3.9,2.1,4.5-7.5,16.8-18,34.1-25.3,47-.4.3-.4.9-1,1.2,0,1.1-1.1,3.3-2.3,4,0,.9-1.3,4.8-2.2,4.3-1.5,2.9-2.6,5.5-3.5,7,0-1-.1.2-.6,0-.3.6.3,1.3-.5,1,0,.6.3.9-.5.7.2.2-.2,1.4.4.9-2.7,5.8-3.6,5.3-5.7,11.4-1.8,5.6-2.7,8.4-5.9,11.3.6-4.1-2.3-8.1-1.3-11.8-1,.4-.2-2.1-1.2-1.3.2-.5.4-.9.8-.4-1.4-1.4-1.6-8.7-.2-5-1.4-2,.6-3.2.4-6.2.2.7,1-1.9.8-.4.4,0,.2-.8.1-.9.3-.6.1.4.4.3.1-.4.1-.7,0-.9.3-.5.4.6.7-.2-.6-.1.6-.6,0-1.1-1.2,1.6-.3-.2.2-.9-.2,0-.3,0-.4.3,0-.9,1.4-2.9,2.1-2.9-.1-.4-.2-.1-.6.2-.7-.7.7-1.9,1.1-1.2.3-1.1-.6.2-1-.3,1-.6.8-.9,1.2-.5.7-.9-.6-.4.2-.9.5,0,0,.6.9-.2-1,0,.8-3.3,1.4-2.5,2.1-4.5,6.2-6.2,8.1-11.9.6,1.3,2.4-1.6.5,0,.2-.8,2-3.1,1-1.7.5.1.3,0,.6.4,1.9-4.6,4.1-5.6,6.5-9.9.8.8,1.8-2.5,2.3-3.7.3.3.5.2.7-.3-.2,1.5.6,0,.2-.4.6-.7,2-2.3,1.3-1.2.9-.5.8-3.6,2.4-4.1.7-.8.5-2.4,2.1-3.1.1-.8,0-.8,1-1.7-.2-.6-.8-1,.4-.3.8-.8,2.8-4.1.8-2.1.3-1.3.4-.3-.4-.4,2-3,2.9-5.4,4-5.5-.2-.7.1-1.4.3-.3.3-1.1-.4-2,1.7-2.3.2-.5-.6.3-.9-.2.4,0,.9-.1.3-.6.3-1.1,1.4-.9,1.4-1.5,2.3,1-1.6,2.8-.8,4.1ZM76.5,121.2c0,.1-2,1.1-.6,1.2,0,.4,0-.1.2-.4.5-.3-.5.2-.3-.2.2.2.9-.4.6-.6ZM94.6,97c-1.3,1.7,1.4.4,0,.8-.3-.1.2-.6,0-.8ZM98,91.4c-.6.1-.5.3-.7.8.2.5.9-.8.7-.8ZM100.3,87.4c.3.4.5-.1.6.8.6-.8,0-1.2-.6-.8Z"/>
      <path class="cls-2" d="M102.1,84.7c0-.7.3-1.1.7-1.6-.8-.1-1.3,1.8-.7,1.6Z"/>
      <path class="cls-2" d="M102.8,83.1h0s0,0,0,0Z"/>
      <path class="cls-2" d="M115.7,66.6c0-1.4,0,0,.4,0-.1-1-1.5-2.9-.9-.8.3,1.6-.2,0-.3-.3-.7.4-.4,1.2.7,1.2Z"/>
    </g>
    <g>
      <path class="cls-2" d="M127.5,64.5c-.9.8,0,0,.3-.3-.3.1-.4.3,0-.1.3-.4-.6.5,0-.2-.7.7,0-.2-.7.5.1-.2.1-.2.3-.4-.1.1,0,0,0,0-.2.3-.3.4-.4.5.4-.5.4-.8,0,0-.3.3-.5.6,0,0-.4.5-.8.9-.4.6,0,0-.2.2.1-.1-.3.4,0,.1.2,0-.2.3,0,0-.3.3,0,0,.3-.3.3-.3-.1.1-.2.2-.3.3.5-.4,0,0,.4-.4-.2.3.4-.3.5-.4-.2.3-.2.2-.5.5.3-.3-.3.2-.2.2.4-.4.1,0,.7-.6Z"/>
      <path class="cls-2" d="M126.2,65.1l.3-.4c-.2.2,0,0-.4.5.3-.5,0-.2.6-.9-.4.5-1,1.3-.6.6-.6.8,0,0,.2-.4-.3.2-.2.3-.5.6,0-.1.1-.2.1-.1.3-.6.7-1.1.7-1.3-.2,0-.4.6-.7,1.2,0,0,0-.2.2-.4-.1.2,0,0,0-.1,0,0-.4.8-.4.7-.4.7.2-.4.2-.4-.1.3,0,0,0,0-.4.7,0-.2-.2.4,0,0,.2-.5,0,0,.2-.5.1-.6,0,.2,0,0,0-.3,0-.4-.1.7,0-.5,0,.3,0-.2,0-.2,0-.4,0,0,0,.2,0,.5,0,0,0-.6,0-1,0,.1,0,.5,0,.7,0-.2,0-.3,0,.4,0-.2,0-.3,0-.1,0-.1,0-.2,0-.3,0,.5,0,.1,0-.1,0,0,0,.6,0,0,0,0,0,.4,0,.3-.1-.6,0,.1-.2-.7,0,.4,0,.4.1.8-.1-.5,0,.2-.1-.4,0,.3-.1.2-.3-.2,0,0,.4,1,0,.2,0,.3,0,0,.1.5-.4-.7-.4-.4-.2,0,0-.1-.2-.3-.3-.5,0,.2,0,.2.4.7-.3-.4-.2-.3,0,0-.6-.8-.1,0-.4-.3,0,0,.1.1.1.1-.3-.1.2.2-.2,0,.4.1.2,0-.2,0,.6,0,.6,0,0,0,0,0,.2,0,.5,0-.6.1-.4.2-.1.2-.4.1-.4.2-.2.1-.3.2.7-.2-.2.4,1.1,0-1,1.7.4.4-.2.3.5-.4-.2.5.5-.6.4-.2.2,0,0,0,.2-.2.2-.2.4-.5-.2.4.3-.2-.3.6.2,0,.1.5.1-.3,0,0,0,.1.2-.7.1,0,.2.1.4-.5.2-.1.5.2.1,0,.2-.7.3-.6,0,0,0,.7,0,0,0,.4,0-.2.2.4,2.3-1.9-.2-1,.4-1.7,1-.8.2,0,.2,0,1.3-.3,1,.5,1.7.8,0,.3-.7.3-.6.4.1.3.3.6,0,.2-.1-.1.3.7-.3.2.3.6-.2,0,0,.6,0,0-.2-.2-.3-.4.2.2-.1.4-.5.3,0,.2.1.7,0,.2.2,1-.3,0-.3.5,0-.5,0-.1-.1-.6,0,.2,0,.6,0,0,0,.7-.1-.2,0,.5,0,.4-.1-.6-.2-.6,0,0,0,1-.1,0,0,.4,0,.5-.3.7,0-.6,0,.2,0-.4-.1.4-.2,0-.2-.1-.1.8,0,0-.2.7-.2,0,0-.9-.2-.1,0,.3,0-.4,0-.1.2-.4,0,0,.1-.6,0,0-.3.8,0,0-.2.5-.1.2,0-.1-.3,1.1-1,.6-.4-.2-.1,0-.1.5-.4.5.3-.5-.2.1.2-.5-.3.2-.4.5-.2,0-.2.2-.5,0-.3-.3-.8.8-.9.1-.3-.3-.3.2,0,0,0-.1-.4.3,0,0-.4.4.5-.6.2-.5,0-.4.3-.2.5-.4-.1,0,.6-.4-.3-.1.6-.6-.2.1-.9.4-.3,0-.2,0-.2,0-.6.2.3-.2.5-.3.8-.4-.7.2-1.1.1-.3-.2-.6.1-.4,0-.6,0,.3-.1.6,0,1.1-.2-.1,0-.7.2-.5,0-.5.2-.5,0,.1,0-.5-.2.5,0-.4-.2,0,0,.7,0,.3,0,.5,0,.5,0,.1,0,0,0,.8,0,.1,0,.8,0,.5,0-.2,0,.1,0,0,0,.3,0-.6,0-.5-.4.3,0-.8-.3-1.2-.8-.1-.1-.3-.3-.4-.2-.9-.5.5.2.2,0,.7.3,0,0-.6-.4-.2-.2.3.2.3.2.5.3-.3-.2-.7-.8-.3-.4,0,0-.2-.2-.3-.3.2.2,0-.2.5.3-.5-.6.2,0-.2-.5.4.5,0-.1.5.5-.2-.3,0-.2.4.4-.4-.9.2.2-.2-.9,0,0,.3.2.1-.3.2.6.4.8.4.9-.3-.7-.3-.4-.3-.9,0,.2.1.4,0,.2.2.4.1.3.3.7-.1-.3,0-.2-.2-.6.2.3,0,0,.3.5-.2-.8.1.2,0-.6,0,0,0,.2,0,0,.2.4.3.8.1,0,0,.1.1.2.2.7,0,0,0-.4-.1-.7.1.2.2.5.2.2,0,.8,0,0,.1.6,0,0,0-.1,0-.5,0,.5,0,0,.1.2,0-.6,0-.3,0-.6,0,.4,0,.5,0,.4,0,.5,0,.6,0,0,0-.1,0,.7,0,0,0,.1,0,.2,0,.6,0-.3,0,0,0,.2,0,0,0-.3,0-.6,0,.3,0-.3,0,.3,0,0,0-.2,0-.5,0,.3.3-.5.1.3.1-.3,0-.1,0,.1,0-.3.4-.8.1,0,.2-.5,0,0,0,0,.1-.6.1-.2,0,0,.5-1,0-.2-.1.5.3-.4.4-.8.4-.7.2-.3,0-.1.2-.5,0,.2.3-.2.1.2-.4.5.5-.6-.1.5.3-.5.5-.8,0,0,.5-.6.2-.2,0,.1,0,0,.3-.4.2-.2.2-.3,0-.1.2-.2-.3.4-.3.5-.5.7.1,0,.2-.3.5-.7-.2.2-.4.6,0,0,.3-.2-.4.6-.2.4-.3.4-.7.8-.9.9ZM124.1,64.6c0-.1,0,0-.3-.4.7.6-.8-.8.3.4ZM125.6,64.4c0-.2,0,1.4,0,.5,0-.3,0-.2,0-.5ZM125.9,63.8s0,.2,0,.2c0,.7,0,.2,0-.2ZM126.1,63.9c-.1.4-.1.4-.3.9,0,.1.3-.7.3-.9Z"/>
      <path class="cls-2" d="M126.3,64.1c.1-.2.2-.3.2-.1.3-.7,0-.2-.2.1Z"/>
      <path class="cls-2" d="M126.4,63.9s0,0,0,0h0Z"/>
      <path class="cls-2" d="M127.8,64.4c.1-.3.2,0,.4-.4-.2.2-.6.6-.4.3-.8.7-.1.1-.9.8.2-.1.3-.2.9-.6Z"/>
    </g>
    <g>
      <path class="cls-2" d="M131.3,55c-1,.7,0,0,.4-.3.1-.1-.4.3-.3.1,0,0,.8-.6.3-.3-.4.4-.1,0,0-.2-.7.6,0-.2-.7.4.1-.2.1-.2.3-.3-.1.1,0,0,0,0-.9,1.1.5-1-.4.4-.4.3-.6.6,0,0-.5.5-.8.9-.4.6,0,0-.2.2.1-.1-.3.3,0,0,.2,0-.2.2,0,0-.3.3,0,0,.3-.3.4-.3-.1.1-.2.2-.3.3.5-.4,0,0,.4-.4-.3.3.4-.3.5-.3-.3.2-.2.2-.6.5.3-.3-.3.2-.2.2.4-.3.1,0,.8-.5Z"/>
      <path class="cls-2" d="M130,55.5l.3-.4c-.2.2,0,0-.4.5.3-.5.1-.2.6-.9-.4.5-.9,1.4-.5.6-.6.9,0,0,.2-.4-.2.2-.2.3-.4.7,0-.1.1-.2,0-.1.3-.6.6-1.1.7-1.3-.2,0-.3.6-.6,1.2,0,0,0-.2.2-.4-.1.2,0,.1,0-.1,0,0-.4.8-.3.7-.3.7.2-.4.2-.4-.1.3,0,0,0,0-.3.8,0-.2-.2.4,0,0,.1-.5,0,0,.1-.6,0-.6-.1.2,0,0,0-.3,0-.4-.2.7,0-.5-.1.3,0-.2,0-.2,0-.4,0,0,0,.2,0,.4,0,0,0-.6,0-1,0,.1,0,.5,0,.7,0-.2,0-.3-.1.4,0-.2,0-.3,0-.1,0-.1,0-.2,0-.3,0,.5,0,.1,0-.1,0,0,0,.6,0,0,0,0,0,.4,0,.3,0-.6,0,0-.1-.7,0,.5,0,.4,0,.8,0-.5,0,.2,0-.4,0,.2-.1.2-.3-.2,0,0,.3,1,0,.2,0,.3,0,0,0,.5-.3-.8-.4-.5-.2-.1,0-.1-.1-.3-.3-.5,0,.2,0,.2.3.7-.2-.4-.2-.3,0-.1-.5-.9-.1,0-.4-.4,0,0,0,.1,0,.1-.3-.2.2.3-.3,0,.4.2.2,0-.2,0,.1,0,.4,0,.5,0-.1,0-.2,0-.4,0,0,0,.2,0,.5,0-.6,0-.5,0-.2,0-.4,0-.4.1-.3,0-.1.2.6-.1-.2.3,1,0-1,1.7.4.4-.2.3.5-.4-.2.5.5-.6.3-.3.2,0,0,0,.1-.2.2-.3.4-.6-.2.4.3-.2-.2.6.2.1.1.6.1-.3,0,0,0,.1.3-.7.1,0,.2.1,0,0,.2-.3.3-.3.2,1,.3.2.5,0,0,0,0,.7,0,0,0,.4.1-.2.2.4,0,0,.6-.4.9-.7.6-.3,0-.9-.6-.7,0,0,0,0,.3-.3,1.1-.7.1,0,.1,0,1.3-.1.9.7,1.5,1,0,.3-.7.1-.7.3,0,.3.2.7-.1.2-.1-.1.2.7-.3.2.3.6-.2,0,0,.6,0,0-.1-.2-.2-.4.2.2-.2.4-.6.2,0,.2,0,.7,0,.2,0,1-.3,0-.4.5,0-.5,0-.1,0-.6,0,.2,0,.6,0,0,0,.7,0-.2-.1.5,0,.4,0-.6-.1-.6-.2.8,0-.4-.2.6,0-.3-.1,0-.2,0,.1-.6,0,.1,0-.4-.1.4-.2,0-.2-.1-.2.8,0,0-.3.7-.2,0,0-.9-.1-.2-.1.3,0-.4,0-.1.2-.4,0,0,.2-.6,0,0-.4.8,0,0-.2.5-.1.2,0-.1-.4,1.1-.9.6-.4-.2-.1,0-.1.5-.3.5.3-.5-.2.1.2-.5-.3.3-.4.5-.2,0-.2.2-.5,0-.3-.3-.7.9-.9.2-.3-.3-.3.2,0,0,0-.1-.4.3,0,.1-.4.4.5-.6.2-.5-.1-.5.3-.2.5-.4-.1-.1.6-.4-.3-.2.6-.6-.2.1-1,.3-.3,0-.2,0-.2,0-.6.2.3-.1.5-.2.9-.3-.7.2-1.2-.1-.3-.3-.3,0-.4,0-.5,0-.5,0,.4,0-.2,0,.4,0,.6,0,1.1,0-.1,0-.7,0-.5-.1-.5,0-.5-.1.1,0-.3-.2,0-.1.1-.2-.8-.3,0,0-.1-.2.5.2.5.2.1,0,0,0,.7.3.1,0,.8.3.5,0-.1-.1.1,0,0,0,.3,0-.6-.2-.4-.5.3,0-.8-.5-1-1-.1-.2-.3-.4-.3-.2-.8-.7.5.3.2,0,.6.4,0,0-.5-.5-.2-.3.2.2.2.3.4.4-.3-.2-.6-.9-.3-.4,0,0-.2-.2-.3-.4.2.2,0-.2.4.4-.5-.7.2,0-.1-.5.4.5.1-.1.5.5-.1-.3,0-.2.4.4-.4-.9.2.2-.1-.9,0,0,.2.2.1-.3.2.7.3.8.4,1-.2-.7-.2-.4-.2-.9,0,.2.1.4,0,.2.1.4,0,.3.2.7,0-.3,0-.2-.1-.6.1.3,0,0,.2.5-.2-.9.1.2,0-.6,0,0,0,.2,0,0,.1.4.2.9.1,0,0,.1,0,.3.1.7,0,0,0-.4,0-.8.1.2.1.5.2.2,0,.8,0,0,0,.6,0,0,0-.1,0-.5,0,.5,0,0,0,.3.1-.6,0-.3.1-.6,0,.4,0,.5,0,.4,0,.5,0,.6,0,0,0-.1,0,.7,0,0,0,.1,0,.2,0,.6,0-.3,0,0,0,.2,0,0,0-.3.1-.6,0,.3.1-.3,0,.3,0,0,0-.2,0-.4,0,.3.3-.5,0,.3.2-.4,0,0,0,.1,0-.3.4-.8.1,0,.1-.5,0,.2,0-.1.2-.5,0,.1,0,.1,0,0,.3-.8.3-.6-.2.4-.2.5-.4,1.1.3-.4.3-.8.4-.7.2-.4,0-.1.2-.6,0,.2.3-.2.2.2-.4.5.5-.6,0,.5.3-.6.5-.8,0,0,.5-.6.2-.2,0,.1,0,.1.3-.4.2-.2.2-.4,0-.1.2-.2-.3.4-.3.5-.5.7.1,0,.2-.3.5-.7-.2.2-.4.6,0,0,.3-.2-.4.6-.2.4-.3.4-.7.8-.9.9ZM127.4,54.3c-.1,0,0,.1.3.5,0-.2,0,0-.2-.4.4.5.1,0,0-.1ZM129.3,54.8c0-.2,0,1.4,0,.5,0-.3,0-.2,0-.5ZM129.6,54.2s0,.2,0,.2c-.1.7,0,.2,0-.2ZM129.9,54.3c-.1.4-.1.4-.3.9,0,.1.3-.7.3-.9Z"/>
      <path class="cls-2" d="M130,54.5c.1-.3.2-.3.2-.2.3-.7,0-.2-.2.2Z"/>
      <path class="cls-2" d="M130.2,54.3s0,0,0,0h0Z"/>
      <path class="cls-2" d="M131.6,54.9c.1-.3.2,0,.4-.4-.2.1-.7.5-.4.2-.8.7-.1.1-1,.7.2-.1.3-.2.9-.6Z"/>
    </g>
    <g>
      <path class="cls-2" d="M142.9,32.7c-1.2-.4,0-.2.4.2-.2-.2-.5-.3.2,0,.6,0-.9-.3.2-.3-.9-.3.2-.3-.6-.6.2,0,.2,0,.4,0-.2,0,0,0,0,0-1.3-.4,1,0-.4-.4,0,.3-.5,0-.7-.2.7,0,.4.2.2-.1-.9-.4-.4.5-.3.4-.5,0-.1,0,.1.2-.7,0,.3.3-.5.2.6.3,0,0,.6.2-.4,0,.4.2.5.4-.3,0-.3-.1-.7-.2.1-.4-.7,0,.5.4Z"/>
      <path class="cls-2" d="M142.3,30.8l.4.2c-.2-.2,0-.2-.5-.4.6.2.2,0,1,.3-.4-.3-1.8-.9-.6-.6,0,0-.6-.2-.4-.3.2.2,1.4.4.4,0,.8,0-.4-.2-.2-.4.4.3.7.2,1.4.6.3.1-.5-.4.2,0,.3-.3-1.9-.7-.8-.4-.2-.1,0-.2.2-.1-.7-.3-1.3-.6-.3-.2-.3-.2,0,0,0-.2-.8-.3.2,0-.4-.3,0,0,.6,0,0-.2,1.2-.2-.5-.6.4-.5-.7-.1.5,0-.3-.2.9-.1,0,0,0-.4,1.2.3,1.2.2,0-.5.2,0,.3,0,.1,0,.1,0,.2,0,.3,0-.8,0,.6,1,1.2,1.2.6.2.2-.6.6-.1-.4-.4.2-.1-.5-.4.4.2.3.2.6.5-.6-.3-.3.7-1.1.7,0,0,1,.4.1.1.2.2-.1.2.3.5-1.4-.2,0,1.1-1,.5.2.2.2.3.6.5-.5-.1-.3-.1-.2,0-1.3-.2-.2,1.1-1.3,1.7.6.4-.9.6,0,1.1-.1,0-.2-.1-.4-.2,0,0,.2.1.4.2-.7,0-.7.4-.5.7-.3-.3-.5,0-.3,0-.3.3-.7,2.5-1.8,1.9.3,0,1.4.9,0,.7,1.1.5-.6.4.2.5.6.3-.5,0,.2.4-.7,0-.3.7-.8,1,.1.1,0,.6-.5.8.4.6,0,.8-.5,1.1,0,.7.6.4,0,.3,0,0,.6.4,0,0,.4.1,0-.4.6-.2,1.1-1.8,1.2-6.1,2.5-8.1,1.2.5,0,.4-.1.6.1,1.8.9,3-.4,4.1,0,.3.4.8-.1.5-.2,0,.4.8-.3.7.6.4-.3.3.3.8-.1,0-.3,0-.4-.1.3,0,0,.8-.5,1.2.2.2.6.4,0,.3.9.5-.3.5,0,.9-.4-.4,0-.1-.6-.2.2,0,.4.5,0,.2.9,1.6-2.5,1.1-1.4-.3-.2-.2-.8-.6,0-.4-.6,0-.7-.9,0-.5-.3-.6.6-.4-.4-.8,0-.3,1-.2.2-.3-.3-.1.4,0,.2-.1.4.3,0,0,.6.2,0,0-.7-.4,0-.2-.4-.3-.2-.2.2,0-1.2-.5-.4-.7-.2-1.1.5.2.7.2,0,0,.4-.1,0-.2.6,0-.3-.3-.1-.7.4-1.1-.9-.3-.5-1.2.3-.8-.3-.2,0,0,.2,0-.4-.2-.1,0-.6-.1.8.1.7-1,.5-.9.7.2,0-.5,1-.2-.2,0-.9-.5-.2-.3-.1-.1,0-.1-.5-.3.3,0,.5,0,.8.3-.6-.4-.8-.9,0-.7-.2,0-.3-.3-.4-.3-.4-.2.4,0-.1-.1.7.3,1.1.6.4.1-.7-.3,1.2,0,.2-.7,0,0,.7.1.3,0,.5.3.5.2.2,0,.1,0,.7.4.2,0,.7.3.6-.2-.1-.1.2,0,.1-.2.3-.1-.7,0-.4-.5.4-.3-.9-.2-1.3-.7-.1-.2-.3-.3-.4,0-1-.4.6,0,.2,0,.7.1.1-.1-.7-.3-.2-.2.3.1.3.2.6.1-1.1-.4,0-.3-.8-.5.3,0,0-.3.6,0-.7-.4.2-.2-.3-.5.6.2,0-.3.8,0-.3-.2,0-.3.6,0-.6-.6,0-.7-.5-1.5.6.3.8.2,1,.2-1-.2-.5-.6-.7-.4.4.2.3,0,.7.3-.3-.1,0-.2-.5-.4.3,0,.1-.1.6,0-.8-.4.3,0-.5-.5,0,0,.2,0,0,0,.4,0,.9.1,0-.3.4,0,1.2.4,0-.2.6,0,.7-.6.9,0-.1,0,0-.2,0-.5,0,.3.2.3,0,.4,1.6.6-1.2,0,.1.4,0,.1-.7,0,0,.2-.5,0-1.2-.3-.2,0-.3,0,.3.2-.3,0,.2,0,.8.8,0,.5.4.4,0,0-.2.1.3,0,.7.6,0,.3.5.2,0,0,0,.2.6,0,.2.1,0,.1,1.1.5,0,0-.6.1.4.5.8.2.7.4.4,0,.8.4.3.6-.5-.3.6.4-.6.2.6.1.9.3,0,0,0,0,.5.2.4.3-.7-.3-.4-.3-.3,0,.4,0,.1,0,.2.3-.4-.2-.6-.1-.9-.2.1.1.4,0,.8.3-.3,0-.7-.2,0,0,.2.3-.8,0-.5.1-.6-.1-1-.4-1-.8ZM142.1,30.6c.6.2.9.3.3,0,.7.1-.1-.2-.3,0ZM144,27.4c.3-.2-1.4-.3-.4-.2.3,0,.2,0,.4.2ZM144.3,28.4s-.1-.1-.1-.2c-.6-.2-.2.1.1.2ZM144,29c-.4-.2-.4-.1-.8-.4-.2,0,.6.4.8.4Z"/>
      <path class="cls-2" d="M143.8,29.5c.2.2.2.3.1.3.7.2.2-.3-.1-.3Z"/>
      <path class="cls-2" d="M143.9,29.8s0,0,0,0h0Z"/>
      <path class="cls-2" d="M143.1,33.1c.3-.2,0,.3.6,0-1-.5-.5,0-1.5-.7.2.2.3.3.9.6Z"/>
    </g>
    <g>
      <path class="cls-2" d="M142,28c-1.5-.8,1.1.5.2,0,0,0,.9.4.4,0-.5,0,0-.2.2-.2-.9-.4.2-.4-.6-.6.2,0,.2,0,.4,0-.2,0,0,0,0,0-.9-.2-.4-.4,0,0-.1-.4.4-.2-.4-.3,0,.3-1.4-.4-.1,0-.8-.3-1.1-.4-.8,0,0,0-.3-.1.1.1-.5,0-.1,0,.1.2-.7,0,.3.3-.5.1.6.3,0,0,.6.2-.4,0,.4.2.5.4-.3,0-.3-.1-.7-.3.2-.3-.7,0,.5.4Z"/>
      <path class="cls-2" d="M141.3,26.5h.4c-.5.5,1,.6,1,.9-.2-.5,0-.3-.5-.9.3.5,1.4,1.1.5.7.8.6,0,0-.4-.1,0,.1.5.2.4.3-.6-.2-.1.3,0,.2.4.2-.2.2,0,0-.7-.2-1.1-.7-1.3-.6-.3.2,1.8.9.8.5.2.2,0,.2-.2,0,.7.4,1.2.7.2.2.2.2,0,0,0,.1.7.4-.2,0,.4.3,0,0-.6,0,0,.2-1.2,0,.4.6-.5.5.7.2-.5,0,.2.3-.9-.1,1,.8-1.1.2.6.3.6.5.6,1-.5-.3.3.4-.4,0,0,.1.5.4,0,.2,0,0,.4.2.2.2-.6-.2,0,.3-.8.1.4.2.4.2.7.4-.6-.2-.3.8-1.1.8,0,0,1,.4.1.1.2.2-.1.2.3.5-1.4-.2,0,1.1-1.1.5.2.2.2.3.6.5-.5-.1-.3-.1-.2,0-1.1-.2-1.2,2.8-1.8,2.5,0,0,.2.1.4.2-.7,0-.7.4-.5.7-.3-.3-.5,0-.3,0-.3.3-.6,2.5-1.8,2,.3.1,1.5.8,0,.7.9.2-.2.5.2.4.7-.1-.2-.6-.1-.2,0,0,.2,0-.1-.1.7.1.3-.6.9-.8-.4-.3.8-.6.4-1.3.9-.4.6-.9.5-1.5,0,0,.7.2,0,0,.4,0,0-.4.5-.3.9-1.8,1.1-6.3,2.5-8.2,1.2.6,0,.4-.2.6-.2.5.5,1.5.1,1.9.7.6-.2.6,0,1,.9.5-.3.6-.5,1.2,0,.3.4.8-.1.5-.2,0,.4.8-.3.7.6.4-.3.3.3.8-.1,0-.3,0-.4-.1.3,0,0,.7-.4,1.1.2.1.6.4,0,.2.9.5-.3.5,0,.9-.5-.3,0-.1-.6-.1.2,0,.5.4,0,.2.6.3-.3.1.4.4.3.3-.6,0-.6,0,.2.2.7,1.1,0,.7.3.3,0,.3-.3.5.7.3,0,.1.7.4,0,.3-1,0-.2.3.3.2-.4,0-.2.1-.3-.3,0,0-.6-.2,0,0,.7.5,0,.2.4.3.2.2-.2,0,1.1.5.3,1.4-.4.9,0,.2.6.1.5.4-.5-.3.1.2-.6-.2.6.7-1.6,1.7-1.8.3.4-.9-1-2,.6-1.8-.3-.2,0,0,.2,0-.5-.2-.1,0-.6-.1.8,0,.6-.4.4-.7.3,0,.7,0,0-.3.7.1,0-.5,1-.2-.2,0-.9-.5-.2-.3-.1-.1,0-.1-.5-.3.3,0,.5,0,.8.3-.6-.4-.8-.9,0-.7-.2,0-.3-.3-.4-.3-.4-.2.4,0-.1-.1.7.3,1.1.6.4.1-.7-.3,1.2,0,.2-.7,0,0,.7.1.3,0,.5.3.5.2.2,0,.1,0,.7.4.2,0,.7.3.6-.2-.1-.1.2,0,.1-.2.3-.1-.7,0-.4-.5.4-.3-.9-.2-1.3-.7-.1-.2-.3-.3-.4,0-1-.4.6,0,.2,0,.7.1.1-.1-.7-.3-.2-.2.3.1.3.2.6.1-1.1-.4,0-.3-.8-.6.3,0,0-.3.6,0-.7-.4.2-.2-.3-.5.6.2,0-.3.8,0-.3-.2,0-.3.6,0-.6-.6,0-.7-.5-1.5.6.3.8.2,1,.2-1-.2-.5-.6-.7-.4.4.2.3,0,.7.3-.3-.1,0-.2-.5-.4.3,0,.1-.1.6,0-.8-.4.3,0-.5-.5,0,0,.2,0,0,0,.4,0,.9,0,0-.3.4,0,1.2.3,0-.2.3,0,.6,0,.4-.4.7.4,0-.2.6.2,0,0,0-.1-.4-.3.5.1,0-.2.3-.1-1.4-.9,1.2.3,0-.4,0-.1.7,0,0-.2.5,0,1.2.5.2,0,.3,0-.2-.3.3,0-.2-.1-.7-.9,0-.5-.4-.4,0,0,.2-.1-.3-.1-.6-.6.1-.3-.4-.2,0,0,0-.2-.6,0-.2-.2,0-.1-1-.6,0,0,.6,0-.3-.5-.8-.3-.6-.5-.5,0-.8-.5-.2-.6.4.4-.5-.6.6-.1-.6-.2-.8-.5,0,0-.5-.6-.1-.4.2,0-1.1-1.2,1.8-.6,0,0,.3,0,.5-.2.9-.2-.3.2-.7.2,0,.2.3.4-.8.2-.5.3-.5,0-1-.4-1.2-.3ZM138.1,33.5c.6.2.9.3.3,0,.7.1,0-.2-.3,0ZM141,29.7c-.3.2,1.2.5.4.3-.3-.1-.1-.2-.4-.3ZM140.8,28.6s.1.1.1.2c.6.3.3-.1-.1-.2ZM141.1,28c.4.2.4.1.8.4.2,0-.6-.4-.8-.4Z"/>
      <path class="cls-2" d="M141.4,27.6c-.2-.2-.2-.3,0-.3-.7-.3-.3.2,0,.3Z"/>
      <path class="cls-2" d="M141.4,27.3s0,0,0,0h0Z"/>
      <path class="cls-2" d="M142.2,28.4c.3-.2,0,.3.6.1-1-.6-.5-.2-1.5-.7.2.2.2.3.9.6Z"/>
    </g>
    <g>
      <path class="cls-2" d="M140.1,25.5c-.4,0-.5-.2-.6-.2.6,0,1.3.6.7,0,.3,0,.6.3.6-.3-.3-.8-.3.5-.7-.3-.6-.8-1.5.1-1,.6-.2,0-.2,0-.4-.2.1.1,0,0,0,0,.8.4.2.4,0,0,0,.5-.4,0,.3.4.1-.3.4.1.7.3-.6-.2-.4-.3-.2,0,.9.5.3-.2.4-.2,0,0,.3.2-.1-.1.4.2.1,0,0-.2.3.2,0,.4,0,0-.2.5-.3.2,0-.2-.2.2.4-.5.5-.3-.3.2-.3.1-.7.3.4,0-.4.4-.3,0,.6,0,.1.1.9.2Z"/>
      <path class="cls-2" d="M139.8,26.5l-.4-.2c.2.2,0,.2.5.5-.5-.3-.2,0-1-.4.4.4,1.8,1,.6.7,0,0,.6.3.4.3-.2-.3-1.3-.5-.4-.1-.7-.1-.1.3,0,.2.5.5-.8-.2-1.2-.5-.3-.1.5.4-.2,0-.3.2,1.8.8.8.5.2.1,0,.2-.2,0,.7.4,1.2.7.2.2.2.2,0,0,0,.2.7.4-.2,0,.4.3,0,0-.6,0,0,.2-1.2.1.4.6-.4.5.7.2-.5,0,.2.3-.9,0,0,0-.1.5-1.7-.5-.1,0-.3.8-.5-.3.3.4-.4,0,0,.1.5.4,0,.2,0,0,.4.2.2.2-.6-.2,0,.4-.8.1.4.2.4.2.7.4-.6-.2-.3.8-1.1.9,0,0,1,.4.1.1.2.2-.1.2.3.5-1.4-.2.1,1.2-1.1.6.2.2.2.3.6.5-.5,0-.3-.1-.2,0-1.1,0-1.1,3-1.8,2.7,0,0,.2.1.4.2-.7,0-.7.4-.5.8-.3-.3-.5,0-.3,0-.2.2-.5,2-1.1,1.7-.1,0,.4,0,.6.2-.3-.2-1.3-1.1.1-.7-1-.6.6-.4-.2-.5-.6-.4.5,0-.2-.4.7,0,.3-.7.9-.9,0-.2,0-.6.5-.8-.3-.9.9-1.1.4-2.2,0,0,.7.2,0,0,.4,0,0-.4.5-.4.6-.8,1.6-10,3-8-1.5.2.4,2.5-.6,3.2.9.5-.3.6-.5,1.2,0,.3.4.8-.1.5-.2,0,.4.8-.3.7.6.4-.3.3.3.8-.1,0-.3,0-.4,0,.3,0,0,.8-.4,1.2.2.1.6.4,0,.2.9.5-.3.5,0,.9-.5-.3,0-.1-.6,0,.2,0,.5.4,0,.2.6.3-.3.1.4.4.3.3-.6,0-.6,0,.2.1.8,1.1,0,.8.3.3,0,.4-.3.5.9.3.9.7,0,.5,0,0,.5.2.4.1.3.2-.4,0-.2.1-.4-.3,0,0-.6-.2,0,.1.7.5,0,.2.4.3.2.2-.2,0,1.1.5.4,1.3-.4.9,0,.2.6,0,.5.4-.5-.3.1.2-.6-.1.5.6-1.2,4.7-2.7,1.7.4-.2.9-.5,0-.3.7-.3.7-.5.4-.9.3,0,.7,0,0-.3.7.1,0-.5,1-.3-.2,0-.9-.4-.3-.3-.2-.1-.1-.1-.6-.3.3,0,.6,0,.9.3-.6-.4-.8-.9,0-.8-.6-.3-.4-.2-.5-.4.6.2,1.2.7.4.1-.7-.3,1.2,0,.2-.7,0,0,.7.1.3,0,.5.3.5.2.2,0,.1,0,.7.4.2,0,.8.3.6-.2-.1-.1.2,0,.1-.2.3-.2-.7,0-.4-.5.4-.3-.9-.2-1.3-.7-.1-.2-.3-.3-.4,0-1-.3.6,0,.2,0,.7.1.1-.1-.7-.3-.3-.2.3,0,.3.2.6.1-1.1-.4,0-.4-.8-.5.3,0,0-.3.6,0-.7-.4.2-.2-.3-.5.6.1,0-.3.8,0-.3-.2,0-.3.6,0-.6-.5,0-.7-.6-1.5.6.3.8.2,1,.2-1-.1-.5-.6-.7-.4.4.1.3,0,.7.3-.3-.1-.1-.2-.5-.3.3,0,.1-.1.6,0-.8-.4.3-.1-.5-.5,0,0,.2,0,0,0,.4,0,.9,0,0-.3,1.1,0,.1.3.4-.6.7.4,0-.2.6.2,0,0,0-.1-.4-.3.5.1,0-.2.3-.1-1.4-.9,1.2.2,0-.4,0-.1.7,0,0-.2.5,0,1.2.4.2,0,.3,0-.2-.3.3,0-.5-.5-.5-.7.2-.6-.3,0-.6-.6,0-.4-.5-.2,0,0,0-.2-.6,0-.2-.2,0-.1-1-.6,0,0,.6-.1-.4-.5-.8-.2-.6-.5-.4,0-.8-.5-.3-.6.4.4-.6-.5.6-.2-1.3-.5.5.2-.3-.4.7.4.4.4.3,0-.4,0-.1,0-.2-.3.8.3,1.1.4,0,0,.3,0,.7.2,0,0-.2-.3.8.1.5,0,.5.2.9.5.9.9ZM135,33.9c.6.2,1,.2.3,0,.7.1-.1-.2-.3,0ZM137.8,29.9c-.3.2,1.3.5.4.3-.3-.1-.1-.2-.4-.3ZM137.6,28.8s.1.1.1.2c.6.2.3-.1-.1-.2ZM137.9,28.2c.4.2.4.1.8.4.2,0-.6-.4-.8-.4Z"/>
      <path class="cls-2" d="M138.2,27.7c-.2-.2-.2-.3,0-.3-.7-.2-.3.2,0,.3Z"/>
      <path class="cls-2" d="M138.1,27.4s0,0,0,0h0Z"/>
      <path class="cls-2" d="M140.2,26c1.2.5.2-.3-.8-.7.2.1.2.3.8.7Z"/>
    </g>
    <g>
      <path class="cls-2" d="M134.9,31.5c-1.5-.7,1.1.5.2,0,1.1.4-.3-.2.6-.1-.9-.3.2-.3-.6-.6.2,0,.2,0,.4,0-.2,0,0,0,0,0-1.3-.4,1,0-.4-.4,0,.3-.5,0-.7-.2.7,0,.4.2.2-.1-.9-.4-.4.5-.3.5-.5,0-.1,0,.1.2-.7,0,.3.3-.5.2.6.3,0,0,.6.2-.4,0,.4.2.5.4-.3,0-.3-.1-.7-.2.1-.4-.7.1.5.4Z"/>
      <path class="cls-2" d="M134.3,29.4l.4.2c-.2-.2,0-.2-.5-.4.6.2.2,0,1,.3-.4-.3-1.8-.8-.6-.7,0,0-.6-.2-.4-.3.2.3,1.4.4.4,0,.8,0-.4-.2-.2-.4.4.2,1.5.7,1.5.6.3-.2-1.9-.7-.8-.4-.2-.1,0-.2.2-.1-.7-.3-1.3-.6-.3-.2-.2-.2,0,0,0-.2-.8-.3.2,0-.4-.3,0,0,.6,0,0-.2,1.2-.2-.5-.6.4-.6-.7-.2.5,0-.2-.3.9-.1,0,0,.1-.5,1.7.5.1,0,.3-.8.5.3-.3-.4.4,0,0-.1-.5-.4,0-.2-.4-.2-.1-.4.5-.4-.4-.1-.4-.2-.7-.4.4,0,.4,0,.5-.4,0,.2,0,.8.3.9v-.2c.7,1,1-.4,1.5,0,.2,0,.1,0-.3-.1.2.2-.1.2.3.5-1.4-.3,0,1.1-1.1.5.2.2.1.3.6.5-.5-.1-.3-.1-.2,0-1.3-.2-.2,1.2-1.4,1.8.6.4-.9.6-.1,1.1-.1,0-.2-.1-.4-.2,0,0,.2.1.4.2-.7,0-.7.4-.5.8-.3-.3-.5,0-.3,0-.3.3-.7,2.6-1.8,2,.3.2,1.4.9,0,.7,1.1.5-.6.4.2.5.6.3-.5,0,.2.4-.7.1-.3.8-.8,1,.3,0,0,.2-.2.3.7.4-.7.3,0,1.1-.9.5-.6.9-.5,1.6,0,0-.7-.1,0,0-.4,0,0,.4-.5.4.6.4-.5.3-.1.8,0,0,0,0,0,0,1.4-2.3,1-5.6,2.4-7.4,1.2.5,0,.4-.2.6-.2.5.6,1.5.1,2,.7.6-.2.6-.1,1,.9.5-.3.7-.5,1.2,0,.3.4.8-.1.5-.2,0,.4.8-.3.7.2.3.2,1-.2.7.5.3-1.3,2.5-1.8.9.2-.3-.8-.5-.1-.5-1-.4.3-.6-.2-.9.5.3,0,.1.6,0-.2,0-.5-.3,0-.2-.6-.2.2-.1-.4-.3-.3-.3.6,0,.6-.1-.2-.1-.8-1.1,0-.8-.2-.6.5-.5-.4-.9,0-.3,1-.2.2-.3-.3-.1.4,0,.2-.1.4.3,0,0,.6.2,0-.1-.7-.4,0-.2-.4-.3-.2-.2.2,0-1.2-.4-.5-1.3.4-1,0-.2-.6,0-.5-.3.5.3-.1-.2.6.1-.3-.3-.1-.8.4-1.2-.9-.3-.5-1.2.3-.9-.3-.2,0,0,.2,0-.4-.2-.1,0-.6-.1.8,0,.6-.4.5-.7.3,0,.7,0,0-.3.7.1,0-.5,1-.2-.2,0-.9-.5-.2-.3-.1-.1,0-.1-.5-.3.3,0,.5,0,.8.3-.6-.4-.8-.9,0-.8-.2,0-.3-.3-.4-.3-.4-.2.4,0-.1-.2.6.2,1.2.8.4.1-.7-.3,1.2,0,.2-.7,0,0,.7.1.3,0,.5.3.5.2.2,0,.1,0,.7.4.2,0,.7.3.6-.2-.1-.2.2,0,.1-.2.3-.2-.7,0-.4-.6.4-.3-.9-.2-1.3-.7-.1-.2-.3-.3-.4,0-1-.4.6,0,.2,0,.7.1.1-.1-.7-.3-.2-.2.3.1.3.2.6.1-1.1-.4,0-.4-.8-.6.3,0,0-.3.6,0-.7-.4.2-.2-.3-.6.6.2,0-.3.8,0-.3-.2,0-.3.6,0-.6-.6,0-.7-.5-1.5.6.4.8.3,1,.3-1.6-.4.3-1.1-.5-.6.4.2.2.2.6.5-.6-.8.6-.3,0-.1.8.3-.3.1.5.4,0,0-.2,0,0,0-.4,0-.9,0,0,.3-1.1,0-.1-.3-.4.6-.7-.4,0,.2-.6-.1,0,0,0,.1.4.2-.5-.1,0,.2-.3.2,1.5.8-1.2-.2,0,.4,0,.1-.7,0,0,.2-.4,0-1.2-.4-.2,0-.3,0,.3.3-.3,0,.6.5.5.7-.1.7.3,0,.7.6,0,.4.5.2,0,0,0,.2.6,0,.2.1,0,.1,1.1.5,0,0-.6.1.4.5.8.2.7.4.4,0,.8.4.3.6-.5-.3.6.4-.6.2.6.1.9.3,0,0,0,0,.5.2.4.3-.7-.3-.4-.3-.3,0,.4,0,.1,0,.2.3-.9-.2-1.2-.3,0,0-.3,0-.7-.2,0,0,.2.3-.8,0-.5.1-.6-.1-1-.4-1-.8ZM135.4,26c.6.2,1,.3.3,0,.7.1,0-.2-.3,0ZM136.1,25.9c.3-.2-1.3-.4-.4-.2.3.1.1.1.4.2ZM136.4,27c0,0-.1-.1-.1-.2-.6-.2-.3.2.1.2ZM136.1,27.6c-.4-.2-.4-.1-.8-.4-.2.1.6.4.8.4Z"/>
      <path class="cls-2" d="M135.8,28.1c.2.2.2.3.1.3.7.2.3-.3-.1-.3Z"/>
      <path class="cls-2" d="M135.9,28.4s0,0,0,0h0Z"/>
      <path class="cls-2" d="M135.1,31.8c.3-.2,0,.3.6,0-1-.5-.5-.1-1.5-.7.2.2.3.3.9.6Z"/>
    </g>
    <g>
      <path class="cls-2" d="M142.1,23.9c-1.5-1.5,3.7.7,0,.4,1.6.6,2.5,0,1.7.7,1.5,1.1,1.7.2,2.6,1.3-1.9.7-2.9,10.1-4.8,12.5,0,.9,1.1-1.4.6.1-1.1.7-1.2,4.2-.8.5-.7,1.7-.6,2.1-1,3.4l.3-.3c-2.1,0-.5,0,0,.3h0c.8-1.8.7-2.4,1.3-3.3-.1,2.8.2,1.5-1.2,3.5,0,.6-1.1.8-1.8.9,3.9,2,5-9.3,5.9-11.3,1.8-3.5,2.1-5.9,2.3-6.7-.3-1.2-1.9.2-1.9-1.7,2.4,1.8,1.5,0-.5-.5,1,.9-6.1-2-2.5,0Z"/>
      <path class="cls-2" d="M136.9,47.1c.7.3,4.7,2.2,5.1,1.5-.1.6,2.1,1.2.9,1.5,1.6.6,3.4.8,2.3,2.7.9-.9.6-1.9-.6-2.5,2.3-1.2,1.7,3.1.3,5.6,0-1.3-.2.1-.7.5-.4,1.1.7.2-.5,2.4.4-4-2.7,5-3.3,6.8-.9,1.7.3-1,.7-1.7-.4,0-1.2,1.8-1.5,1.4,0-.7.9-2.4.5-2.4-.3,0-1,3.3-.9,1.6-.5,1.6-.6,1.4-1.5,3.4,1.7-2.7,2.6-.7,1.6-1.4-.5,1-2.3,5.9-.6,2.9.2.5,0,.9-.2,1.3,0-.4,0,0,0,.2,0,1.1-.5-.2-.6-.2.6,2.7-.2,7,0,9.4-1.6,6.4-.7,8.5-1.9,13-2,14.4-3.2,33.8-3.4,48.1,8.1-10.4,6.4,21.1-.6,9.8,0-1.7.5.5-.2-.2-.6-.7.2.4.3.2-.1,0-.9-.2-.6-.5-.5,10.9-12.9,20.9-22.4,26.4-.8,2-3.8,5.7-5.6,2.9-.2-.4,0,.6.5.8.3-6.5,7.8-23.8,7.5-26.7,1.7-8.3,3.3-12.1,3.9-20.5.9-1.9,2.6-12.4,3.2-17-.1,3.4,1.2-4.6.7-2.4,1.5-11.9,4.1-23.4,6.4-35.6,1.2-2.5-5.3-2.2-6.9-4.9-2.1,3-10.2,18.2-10.7,18.9-4.3,8.5-9.4,15.7-14,24.1-6.3,11.4-18,30.8-22.6,45-.2,1.9-.4,8.5-3.3,5-14.8-39,20.7-60.9,37.4-93.6,7.2-9,11.8-18.4,14.3-29.6,2.6-3.1,6.4.3,9.5.8-.2-.1-1,.4-.9.3.9-1,1.7-5.6,2.1-2.2-5.3-4,1.7-18.6,6.4-20.9-2,2.2-10.1,14-7.1,19.6,1.8.5,0,1.9-.8,4.2,0,0,0,0,.1,0-11.5-6.7-10.3,7.7-13.1,15.2-15.1,20.1-26.9,42.5-41.7,60.2-10,10.1-11.1,24.8-5.8,37.6-.3-.1-.6-.5-.9-1.5.2,1.4,1.3,2.7,1.4,4.2.8.9-.6,5,.4,6.2,0-.3,0,0,0-.1,0,0,0,0,0,0,0,0,0,0,0,0,0-4.9,4.2-15.3,6.3-17.6.9-3.4,8.5-18.9,7.5-17,0-.6,1.1-1.2,2-3.2-.9,2.4.4-.5.9-.3,1.4-3.4,1.3-2.1,2.5-4.9-.2,2,2-3.7.6-1.7,4.2-7.9,7.6-12.5,9.9-17.2,4.3-4.7,8.1-14.5,13.1-21.8,1.2-2.9,2.9-9.9,6.8-10.8,1.4,1.2,8.9,5.5,7.2,4,1.4.3-3.1,22-5.1,28.7,1.1-.5-1.1,5.9.2,4.3-.5,1.3-.9,2.3-1,.6-1,19.2-3.1,13.2-4.7,31.3-1.4,2.9-1.3,2.8-1.7,5.9-.5,1.6-.3-1.2-.9,1.2.7-.2-.8,2.1-.4,3,1.8-5.2.2.7-.4,2.4.2-.2.4-.5.6-1.2-.2,2.3-2.2,8.5-3.1,9.5.2,0,0,.3,0,.6.2-.4.5-1.1.8-1.7.7.9-1.1,5.5-1.4,4.1-.4,2.6.5-.8,1.2-.5-2.5,5.1-1.1,2.6-2.1,5.9.4-2.8-.3.4-.7,1.2,1.5,0-1.9,7.3-3,7.3,0,.3.2.7,0,.7,0,0,.1-.1,0,0,8.4-8.2,23.1-12.7,24.8-27.4.9,1.4.8-2.8,2-2-.8-1.1-1.5.5-1.5,1.5-.5-2.7,3.5-3,3.3-.3,1.6.8,1.3,1.5.1.2,0,.6.1.5-.5.6,4.7,3.7,5-15.7.6-10.6-5.2,2.2-1.1-8.3-2-13.1.7,2.6,0-3.2.6-1.3,0-5.3-.7-7.9.2-12.9.2.3.3.8.2,1.8.3-.2.3-3.5-.1-3.1,1.6-8.1.3-12.2,2.9-22.1-.7-2.1.8-6.2,1.2-9.8-.2.1-.2,1.1-.3,1.8-.1-2.8.9-3.7,0-6.1,2.1,1.2.2-7.3,2.1-9-.7,1.1-1.4,2.1-1.6,3.3-.6-.2.6-5,3.7-9.9-1,2.7.6-.7,0,0,.7-2.1,2.1-4.7,3.4-7.1-.2,0,0-.3,0-.6-.3.3-.7,1.2-1.1,2.3,0-2.3,2-2.7,1.5-4.1.8,1.5-2.1-.9.5.1-1.4-1-3.6-1.4-1.7-.6-4-1-5.2-3.1-6.9-2.5-1.9-4.8,6.5-6.2,1.9-4.4.3.1.4-.2.5.2,0,.6-1.5,5.5-2,2.9ZM108.2,176.6c-.3.4-.6,1-.8,1,.3-.9-.1.3-.8,1-.5.8-2,.7-.5,1-1,.8,1.2-.7,1.2-1.4-.4.6-1.1,1-.6.4,0,.4,1.7-1.7,1.5-2ZM133,116.3c-.5,3.5,1.2,2.7.6.6,0,.5,0,1.2-.2,1.2-.4.2-.1-1.8-.4-1.8ZM134.5,97.9c-.7,1.3-.4,1.7-.5,3.1.3.9.8-3.2.5-3.1ZM136.1,85.1c.2,1.2.2-.2.5-.6,0,.9,0,1.5.2,1.8.5-2.9-.4-2.8-.8-1.2Z"/>
      <path class="cls-2" d="M137.1,75.8c-.2-1.7,0-3.3,0-4.8-.3,0-.6,5.8,0,4.8Z"/>
      <path class="cls-2" d="M137,71h0c0-.1,0,.1,0,0Z"/>
      <path class="cls-2" d="M137.4,22.7c3.3,1.3.3,0,0,.5,2.1,1.1,2.4,0,4.1,1-1-1.3-5.8-2-.5-.8-1.7-.7.6-.1.1-.6-1.8-.4-3.9-.9-3.7,0Z"/>
    </g>
  </g>
  <g>
    <path class="cls-2" d="M112.9,68.9c-1.6-.5,1.1.4.1,0,0,0,1,.3.4.1-.5-.1,0,0,.1,0-.9-.4,0,0-.7-.4.2,0,.2,0,.4.2-.2,0,0,0,0,0-.3-.2-.5-.2-.5-.3.4.2.6.3.4.1.6.3-.3-.2-.4-.1-.4-.3-.7-.4,0,0-.6-.4-1.1-.7-.7-.2,0,0-.3-.1.1,0-.4-.1-.1,0,.1.1-.3-.1,0,0-.4,0,.4.2.5.2,0,0,.6.3,0,0,.6.2-.4,0,.4.2.6.3-.3-.1-.3,0-.7-.2.4.1-.3-.2-.3,0,.5.2,0,.1.9.3Z"/>
    <path class="cls-2" d="M112.1,67.7l.4.3c-.2-.2,0-.1-.4-.5.5.4.2,0,.8.7-.5-.5-1.2-1.6-.3-.8,0,0-.4-.6,0-.5-.2.4.6,1.3.3.4,0,0,.2.3.6.3,0-.7,0-.8.6-.4-.5.1-.3.4-.9,1.1,0,0,0,0,0,0-.2.2,1.4-1.4.5-.5.2-.1.3.1,0,.2.8-.4,1.4-.3.3,0,.3,0,0,0,0,.2.8-.1-.2.1.5,0,0,0-.5.2,0,.2-1.1.4.6.3-.2.4.7,0-.5,0,.3.1-.2,0-.2,0-.4,0,0,0,.2,0,.4,0,0,.3-.6,0-1,0,.1,0,.5.1.7.2-.2,0-.3,0,.3.3-.2,0-.3,0-.1,0-.1,0-.1,0-.3-.1.5.3.1.1-.1,0,.1,0,.5.4-.4.2.4.2.4.2.7.4-.5-.3,0,.3-.8.1,0,0,1,.4.1,0,.2.2,0,0,.4.3-.8-.3-.6,0-.3.2-.1,0-.3-.1-.5-.2.2.1.2.2.7.4-.4-.2-.3-.2-.1,0-.9-.5-.2.2-.6,0,0,0,.2.5-.3.4.4.2,0,.2-.3.2.5.3.5.3,0,0,0,0,.2.1.4.2-.6-.2-.5,0-.3.2-.3-.3-.4-.1-.3,0-.3,0,.5.6-.4.1.4,1.1-1.8-.5-.2.6-.3-.1.4.5-.5-.1.6.5.2.4,0,.1,0,0,.2.2.2.2.5.5-.4-.2.2.3-.3-.2-1.2.4-.7-.3-.3,0,0-.1.1,0-.8-.3.6,0-.2-.5,1,0,.2-.2.2-.6,0,0,.7.3,0,0,.4.1-.1-.2.4,0-.3-.3.7-1.4.2-2.4-.2-.3-.7-.7.2-.6,1.3.4,0,.2,0,.2.2.5,1.3,1.1.7,1.3,0,0,.1,0,.4.2-.3.3-.8,0-.3.6,0,0-.3-.1-.3-.1-.2,0,.5.5-.1.2.6.3-.2,0,.4.4-.1,0-.2,0-.4-.2.4.2.2.2-.2.4.2.1.6.4.1.1.9.5-.2.2.3.4-.4-.2,0,0-.5-.2.2,0,.5.3,0,0,.6.3-.2,0,.4.3.4.2-.6-.2-.5-.2,0,0,.9.5,0,0,0,0,.5.2.5.3-.3,0,0,0,0,.1-.6-.3.1,0-.4-.2.3.2,0,.1-.1.1.7.3,0,0,.7.3,0,.1-.7-.2-.1,0,.3.1-.4-.1-.1,0-.4-.2,0,0-.6-.2,0,0,.8.3,0,0,.5.2.2,0-.1,0,1.9.5-.9,0-.9-.5,0,0,0,0,0,0,.1.1-.2-.2,0,0-.2-.3-.4-.4,0,0-.2-.2-.2-.3.2-.2-.5-.4,0-.1-.6-.5.1,0,.6.1.8.3-.2-.2,0,0,.1,0-.4-.3-.1,0-.5-.3.7.4.5,0,.3-.1.3.2.6.3,0,0,.6.3,0-.2.8.3-.2-.1-.8-.5-.3-.2-.1-.1-.1-.1-.5-.3.3.1.5.2.8.4-.6-.4-.9-.7,0-.3-.2-.1-.3-.2-.4-.3-.4-.2.3.2-.1-.1.3.2.5.3.9.6,0,0-.6-.4-.4-.3-.5-.2-.4-.3.1,0-.3-.3,0,0,.1,0,0,0-.4-.2-.4-.3,0,0,.6.3.3,0,.4.3.5.3.1,0,0,0,.7.4.1,0,.7.4.5.1-.1-.1.1,0,0,0,.3,0-.5-.2-.5-.4.3,0-.4-.2-.6-.3-.9-.5.1,0,.5.2.8.4-.4-.3-.4-.2-.9-.5.5.2.2,0,.7.3,0,0-.6-.3-.3-.2.3.1.3.2.5.2-.4-.2-.9-.6-.4-.3,0,0-.2-.1-.4-.2.3.1-.1-.2.5.2-.7-.4.1,0-.4-.3.6.3,0-.1.7.2-.3-.2,0-.1.5.2-.9-.5.3,0-.7-.6,0,0,.3,0-.1-.2.6.3.8.3,1,.4-.6-.3-.5-.1-.8-.5.2,0,.4.2.1,0,.4.2.3.1.7.3-.3-.1-.1-.1-.5-.3.3,0,0,0,.6.1-.8-.4.3,0-.6-.3,0,0,.2,0,0,0,.4.1.9.2,0-.1.3,0,1.1.4,0,0,.3,0,.5.1.3,0,.7.3,0,0,.6.2,0,0-.1,0-.4-.2.5.2,0,0,.3,0-.6-.3-.3,0-.6-.3.4.1.5.2.4.1.4.2.6.2,0,0,0,0,.7.1,0,0,.1,0,.2,0,.6.1-.3,0,0,0,.1,0,0,0-.3,0-.6-.2.3,0-.3-.1.3,0,0,0-.2,0-.4-.1.3,0-.5-.2.3,0-.4-.1,0,0,.1,0-.3,0-.8-.1,0-.1-.5,0,0,0,0,0-.6,0-.2,0,0,0-1.2,0,0,.2.5-.3-.6,0-.7.3-.7.2-.4.2,0,0,0,0,0,0,0,0,0,0,0,.2.2.3,0,0,.1.2.2.3.1.2.2.2,0,0-.1-.2.5.6.2.2-.1,0,0,0,.4.4.2.3.3.3.1,0,.2.2-.4-.3-.5-.3-.7-.5,0,.1.3.2.7.5-.2-.2-.6-.4,0,0,.3.2-.6-.4-.4-.2-.5-.3-.9-.5-1-.8ZM112.2,70.3c.3.1-.1,0-.1,0,.3.1.4.2.7.3-.1-.1,0,0-.4-.2.5.2.1,0-.1,0ZM113.7,69.2c-.3,0,1.4.5.4.2-.3-.1-.2,0-.4-.2ZM113.2,68.8s.2,0,.2,0c.7.1.2,0-.2,0ZM113.3,68.5c.5,0,.4,0,.9,0,.1,0-.7,0-.9,0Z"/>
    <path class="cls-2" d="M113.4,68.3c-.3,0-.3,0-.2,0-.6.2,0,0,.2,0Z"/>
    <path class="cls-2" d="M113.2,68.3s0,0,0,0h0Z"/>
    <path class="cls-2" d="M113.2,69.1c.4,0,0,0,.6.1-.2,0-.8-.2-.4-.2-1-.3-.2,0-1.1-.4.2.1.3.2,1,.4Z"/>
  </g>
  <g>
    <path class="cls-2" d="M114.2,70.3c-.7-1,0,0,.2.4-.3-.5-.2-.1-.3-.6-.2.2-.8,0,0,.1-.2,0-.2,0-.4,0,.2,0,0,0,0,0,1.4.2-1.1,0,.6.1,1.2.3-.2,0,.4.2,1,.2.2-.1.3-.3,0,0,.3,0-.2,0,.5-.2-.2.1,0-.8-.4.2-.3.4-.6-.2,0,.8-.2.3,0,1.1-.1-.3,0-.2-.3-.6.2.3,0-.5-.2-.3.3.5-.2.2.4.8Z"/>
    <path class="cls-2" d="M115.1,70.8h-.4c.2,0,0,0,.6.2-.6-.2-.2,0-1-.3.5.3,1.8.7.7.4,1.4.6-1.3-.4,0,0-.7-.2,0,.2.1.1.4.2-.1.1,0,0-.7-.2-1.2-.5-1.4-.5,0,.2.7.3,1.3.5,0,0-.2,0-.4-.1.2.1,0,.1-.1,0,0,0,.8.4.7.3.6.3-.4,0-.4-.1.3.1,0,0,0,0,.8.3-.2,0,.4.2,0,0-.5-.1,0,0-.6,0-.7,0,.1.3,0,0-.3,0-.4-.1.7.3-.5-.1.3.2-.2,0-.2,0-.4,0,0,0,.2,0,.4.2-.1.2-.6-.2-1-.2.1,0,.4.2.7.3-.2,0-.3,0,.2.3-.2,0-.3,0-.2,0-.1,0-.1,0-.3-.1.4.3.1.1-.1,0,0,0,.5.3,0,0,0,0,.4.2.3.2-.6-.3,0,.2-.7-.1.4.2.4.2.7.4-.5-.3,0,.3-.9.2,0,0,1,.5.1,0,.2.2,0,0,.4.4-.8-.3-.6,0-.3.3-.1,0-.3-.1-.5-.3.2.1.2.2.7.4-.4-.2-.3-.2-.1,0-.9-.5-.2.2-.6,0,0,0,.1.6-.4.6.4.2,0,.3-.3.3.5.3.5.3,0,0,0,0,.2.1.4.2-.6-.2-.5,0-.3.3-.3-.3-.4-.1-.3,0-.3,0,.5.6-.5.2.6.7-1.4.6-.6.1,0,0,0,0,0,0,.1,0,.2-.2.4-.2,0,0-.4.2-.4.2.4.1-1.2-.5.2-.2-.7-.3-.3-.3,0-.2,0,0-.2,0-.3,0-.6-.3.4,0-.3-.2.7,0,.1-.3.6-.3-.3-.1,0-.1.2,0-.9-.5.8.2,0-.6,1,0,.3-.3.2-.7,0,0,.7.3,0,0,.4.1-.1-.2.4,0,0,0,.7-5.8,1.5-3.4-1.5-.4,1.2,2-.3,2.1.2.3.4.5,0,.2-.2,0,.5.5-.2.3.6.4-.2.1.4.5-.1,0-.2,0-.4-.2.3.1.1.3-.2.5.2.1.6.4.1.2.9.5-.2.2.2.5-.4-.2,0-.1-.6-.2.2,0,.5.3,0,0,.6.3-.2,0,.4.3.3.2-.6-.2-.6-.1.6.4-.2,0,.5.4-.3,0,0,.1,0,.2-.6-.3.1.1-.4-.2.3.2,0,.2-.2.2.7.3,0,0,.7.4,0,.2-.9-.2-.2,0,.3.2-.4-.1-.1,0-.4-.2,0,0-.5-.2,0,0,.7.4,0,0,.4.3.2.1-.1,0,1.1.5.7.8-.2.4,0,.1.5,0,.5.3-.5-.3.2.1-.6-.2.3.2.6.3,0,.2.2.1.2.4-.1.3,1.2.6-.2-.3-.7,0l.5-.3c-.2,0-.3.2-.4.4,0-.1-.3-.4-.5-.7.3.2.6.3,0,0,.6.4,0-.2.8.3-.2-.1-.8-.5-.2-.2-.1-.1-.1-.1-.5-.3.3.1.5.2.8.4-.6-.4-.8-.7,0-.4-.2-.1-.3-.2-.4-.3-.4-.2.3.1-.1-.1.3.1.5.3.9.6,0,0-.6-.4-.4-.3-.5-.2-.4-.3.1,0-.4-.5.6.3-.2-.4,0,0,.6.3.3,0,.4.3.5.3.1,0,0,0,.7.4.1,0,.7.4.6.1-.1-.1.1,0,0,0,.3,0-.6-.2-.4-.4.3,0-.4-.2-.7-.3-.9-.5.1,0,.5.2.8.4-.4-.3-.4-.1-.9-.5.5.2.2,0,.7.3,0,0-.6-.3-.3-.2.3.1.3.2.5.2-.4-.1-.9-.6-.4-.3,0,0-.2-.1-.4-.2.3.1-.1-.2.5.2-.7-.4.2,0-.4-.4.6.3,0-.1.7.2-.3-.2,0-.2.6.1-.8-.5.3,0-.6-.7,0,0,.3,0-.1-.3.6.3.8.4.9.4-.6-.3-.5-.1-.8-.5.2,0,.4.2.1,0,.4.2.3.1.7.3-.3-.2-.1-.1-.5-.3.3,0,.1,0,.6.1-.8-.4.3,0-.5-.4,0,0,.2,0,0,0,.4.1.8.3,0-.1.3.1,1.1.5,0,0,.3,0,.5.1.3-.1.3.2.7.2.1,0,.5.2,0,0,.3,0-.5-.3-.3,0-.5-.4.4.2.5.2.4.1.4.3.6.3,0,0,0,0,.6.2,0-.1.1,0,.2,0,.6.2-.3,0,0,0,.1,0,0,0-.2-.1-.5-.3.3,0-.3-.2.3,0,0,0-.2-.1-.4-.2.3,0-.5-.4.3,0-.3-.2,0,0,.1,0-.3-.1-.7-.5,0-.2-.5-.2,0,0,0,0-.6-.2-.2-.1,0,0-1-.5-.2,0,.6,0-.4-.3-.8-.3-.7-.4-.4-.2-.1,0-.6-.2.2,0-.2-.3.2-.2.5.3-.7-.3.5,0-.6-.2-.9-.3,0,0-.7-.3-.2-.1.1,0,.1,0-.5-.2-.3-.2-.4,0-.1,0-.3-.2.4.1.6.1.9.2-.1,0-.4,0-.9-.2.3,0,.7.2,0,0-.3-.1.7.1.4,0,.5,0,1,.2,1.2.5ZM112.1,73.7c.5.3.9.4.3,0,.7.3-.2-.1-.3,0ZM114,72.3c-.3,0,1.3.6.4.2-.3-.1-.1-.1-.4-.2ZM113.6,71.7s.2.1.1.1c.6.3.2,0-.1-.1ZM113.8,71.4c.4.2.4.2.8.4.1,0-.6-.3-.8-.4Z"/>
    <path class="cls-2" d="M114,71.2c-.2-.1-.3-.2-.2-.2-.7-.3-.2,0,.2.2Z"/>
    <path class="cls-2" d="M113.8,71.1s0,0,0,0h0Z"/>
    <path class="cls-2" d="M114.4,70.6s0,0,0,.1c.2.3-.2-.2.2.2.1.2-.5-.7-.2-.3-.6-.7-.1-.2-.7-1,0,.2.1.4.6.9Z"/>
  </g>
  <g>
    <path class="cls-2" d="M79.1,121.8c-.3-.2-.4-.4-.5-.4.7.6.7.6.9.8.3.3-.4-.4,0,0-.7-.7,0,0-.5-.6.1.1.2.2.3.3-.1-.1,0,0,0,0-.2-.3-.4-.4-.4-.5.4.4,0,0,.2.2.3.4,0,0,.2.3,0,0-.3-.4-.4-.5-.3-.4-.5-.7,0,0-.4-.5-.8-1-.5-.5,0,0-.2-.2,0,.1-.3-.3-.1,0,0,.2-.2-.2,0,0-.3-.3,0,0,.3.3.3.3-.1-.1-.3-.2-.3-.3.5.4,0,0,.4.4-.3-.2.3.3.4.4-.3-.2-.2-.2-.6-.5.3.3-.2-.2-.2-.2.4.4,0,0,.7.6Z"/>
    <path class="cls-2" d="M78.6,120.6l.2.4c-.1-.2,0,0-.2-.6.3.5.2.2.5.9-.3-.6-.4-1.9,0-.8,0,0,0-.7.2-.5-.2.3,0,1.4,0,.4,0,.5.4.2.3-.1.8-.4-.2.7-.4,1.2-.2.2,1.2-1.5.4-.5.2-.2.2,0,0,.2.6-.6,1.3-.7.3-.1.3-.1,0,0,0,.1.8-.3-.2.1.5,0,0,0-.4.3,0,.2-.5.4-.6.3.3.3,0,0-.3,0-.4,0,.7,0-.5,0,.3,0-.2,0-.2,0-.4,0,0,0,.2,0,.5,0,0,.2-.6,0-1,0,.1,0,.5,0,.7,0-.2,0-.3,0,.3.2-.2,0-.3,0-.1,0-.1,0-.2,0-.3,0,.5.1.1,0-.1,0,0,0,.6.2,0,0,0,0,.4.1.3.1-.6-.1,0,.1-.7,0,.4.1.4.1.7.2-.5-.1.2.1-.4,0,.2.2,0,.2-.3.1,0,0,1,.4.1,0,.3.1,0,0,.4.3-.8-.3-.6-.1-.2.1-.1,0-.3-.1-.5-.2.2.1.2.1.7.4-.4-.2-.3-.2-.1,0-.9-.5-.2,0-.5-.1,0,0,.1,0,.1,0-.3,0,.2.3-.3.1.4.2,0,.2-.2,0,.5.3.4.4,0,0,0,0,.2.1.4.3-.5-.3-.4-.2-.3,0-.3-.3-.4-.2-.2-.2-.3-.2.4.6-.3,0,.3.6-.6-.1-.5-.4,0,0,.2.5.3.7-.1-.1,0,.5-.2-.5.1.8,0,.4,0,0,0,0,0,.3,0,.3,0,.7,0-.4,0,.3,0-.6-.2,0-.2-.5-.1.3,0,0,0-.1-.6.6.5-.3-.4,0,.9-.3,0,0,0-.4,0,0,.7.3,0,0,.4.2-.1-.2.4,0-.4-.3-.1-.1.1,0-.6-.8.4-.4-.2-1.3-.2-.3-.5-.7.2-.2,1,.8,0,.1,0,.1,0,0,.7.8.5.7.7.6,0,.1.1.3.1.2.6.4,0,.2.2.3.4.4,0,0-.2-.1.5.5,0,0,.5.4-.1,0,.4.4,0,0-.2-.1-.4-.2.3.2.2.1,0,.1.2.1.6.4.1.1.9.5,0,0,.3.2-.4-.2-.1,0-.5-.3.2,0,.6.3,0,0,.5.2,0,0,.3.1-.2,0-.3-.1-.3-.1,0,0,0,0,.1,0,0,0-.3,0-.3,0,0,0,0,0,0,0,0,0-.2,0-.2,0,0,0,0,0,0,0,0,0,0,0,0,0,0,0,0,0,0,0,0,0,0,0,0,0,.1-.2.2-.3.2-.5,0,0,0,.1,0,.2,0,0,0-.2.1-.3-.1.2-.2.9-.3.3,0,0,0,0,0,0,0-.1,0,0,0,0,0,0,0,0-.2-.2.2.2.4.4,0,0,.5.5-.1-.1.6.6-.2-.2-.7-.7-.2-.2-.1-.1-.1-.1-.5-.4.2.2.4.3.7.6-.5-.5-.8-.7-.1-.2-.2-.2-.3-.2-.4-.3-.4-.3.3.2-.1-.1.3.2.5.4.8.7,0,0-.5-.4-.4-.3-.5-.3-.4-.3.1,0-.3-.3,0,0,.1,0,0,0-.4-.3-.4-.3,0,0,.6.4.2.1.4.3.5.3.1,0,0,0,.2.1.4.3,0,0,0,0-.3-.2.7.5.4.2-.1,0,.1,0,0,0,.2.1-.5-.3-.5-.4.2,0-.3-.2-.6-.4-.9-.5.1,0,.5.3.8.4-.4-.3-.4-.2-.9-.5.5.3.2,0,.6.3,0,0-.6-.4-.3-.2.3.2.3.2.5.3-.4-.2-.9-.5-.4-.3,0,0-.2-.1-.4-.2.3.1-.2-.1.5.2-.7-.4.1,0-.4-.3.6.3,0,0,.6.3-.3-.2,0,0,.5.2-.9-.4.2,0-.7-.4,0,0,.3,0-.2-.1.6.3.8.3,1,.3-.6-.2-.4-.1-.9-.4.2,0,.4.2.1,0,.4.2.3,0,.7.3-.3-.1-.1,0-.6-.2.3,0,0,0,.5.1-.8-.3.3,0-.6-.2,0,0,.2,0,0,0,.4.1.9.2,0,0,.1,0,.3,0,.7.2,0,0-.4-.1-.7-.2.2,0,.5,0,.2,0,.8.2,0,0,.6.1,0,0-.1,0-.4-.1.5,0,0,0,.3,0-.6-.1-.3,0-.6-.1.4,0,.5,0,.4,0,.5.1.6,0,0,0-.1,0,.7,0,0,0,.1,0,.2,0,.6,0-.3,0,0,0,.2,0,0,0-.3,0-.6,0,.3,0-.3,0,.3,0,0,0-.2,0-.5,0,.1,0,0,0-.2,0,0,0,.8,0,.1,0,0,0,.5,0,.4,0-.3,0-.8,0,0,0-.5,0,0,0,0,0-.6.2-.2,0,0,0-.5.1,0,.1.4-.4-.6.2-.3.2-.7.4,0,0,0,0,0,0,0,0,0,0,0,0,0,0,0,0,0,0,0,0,0,0,0,0,0,0,0,0,0,0,0,0,0,0,0,0,0,0,0,0,0,0h0c0,0,0,0,0,0,0-.3-.1-.3,0,0,0,0,0,0,0,0,0-.1-.2-.3-.3-.5,0,.2.2.3.3.6-.2-.3,0,0,0,0,0,0-.3-.4-.2-.2-.3-.4-.7-.8-.6-1.1ZM78.7,122.2c.3.1,0,0-.1,0,.3.1.4.2.7.3-.1,0,0,0-.4-.2.5.3.1,0-.1,0ZM79.8,121.9c-.3,0,1.4.2.5,0-.3,0-.2,0-.5,0ZM79.3,121.7s.2,0,.2,0c.7,0,.2,0-.2,0ZM79.3,121.6c.5,0,.4,0,.9-.1.1,0-.7,0-.9.1Z"/>
    <path class="cls-2" d="M79.4,121.5c-.1,0-.2,0-.2,0,0,0,0,0,0,0-.2,0,.1,0,.2,0Z"/>
    <path class="cls-2" d="M79.2,121.5s0,0,0,0h0Z"/>
    <path class="cls-2" d="M79.4,122s0,0,.1,0c.3.2-.2-.2.2.2,0,0,0,0,.1,0-.2-.1-.4-.4-.5-.4,0,0,0,0,.1,0-.7-.6-.2-.2-.9-.8.1.2.2.3.8.7Z"/>
  </g>
  <g>
    <path class="cls-2" d="M76.1,125.6c-1.2-1.1.8.7.2,0,1,.9-.3-.4.6.1-.4-.4-.2-.9-.3-.7.2-.2.2,0,0,0,0,0-.2,0,0,0,0,0-.1,0-.2,0-.6,0,.7,0,1,.4-1.4-.3.2.3,0,.6.8-.4-.3-2.5-.9-1.7-.6-.2-.3,0-.3.3-.7-.3,0,.5-.6,0,.4.5,0,0,.5.4-.5,0,.3.4.3.6-.3-.2-.2-.2-.6-.5.3-.4-.7,0,.4.6Z"/>
    <path class="cls-2" d="M77.2,126.1l-.4-.2c.2.2,0,.3.4.6-.5-.3-.3,0-.9-.5.3.4,1.6,1.2.5.8,1.3.9-1.3-.6,0,.2,0,0-.4-.1-.4.1.4.2.7.1.5.4-.3-.3-.7-.3-1.3-.9-.3-.2.4.5-.2,0-.4.3,1.8.9.7.5.2.2,0,.2-.2.1.7.4,1.1.8.2.3.2.2,0,0,0,.2.7.4-.3,0,.3.4,0,0-.6,0-.1.2-1.3.1.3.7-.6.6.7.3-.5,0,.2.3-.8,0,.5,1-1.2.2.6.4.5.7.4,1.2-.4-.4.2.5-.4-.1.3.5-.2,0,0,.5-.6-.3-.1.4-.9,0,.4.2.3.3.6.6-.6-.3-.5.9-1.4.8,0,.1,1,.5.1.1.2.3-.2.2.2.6-1.4-.3,0,1.2-1.1.6.2.2.1.3.6.5-.5,0-.3-.1-.2,0-1.1-.2-.6,1.7-1,2.1.2.7-.8.9,0,1.3-.3-.1-.7,0,0,0-.6.3-.5.7-.3,1-.4-.2-.5.3-.3.1.2.2-.7,4.3-1,2.4.1,1.3-1.5,0-.2-.2-1.2,0,.3-.7-.4-.4-.4-.2-.1-1.6.3-2.2-.7,0,0-.5.1-.7-.5-.9.6-1.7,0-2.6,0,0,.7,0,0,0,.4-.1-.1-.5.5-.6-.8-.8,6.1-12.2,4.3-8.8-.3,2.8-1,4.7-2.5,6,.2.4,0,1.1-.4.7.2.2-.2.7-.6,1.2.2.1.6.3.1.3,1,.4-.2.7.2,1-.5-.2-.1-.1-.6,0,.2,0,.6.3,0,.2.7.1-.2.2.4.3.4.2-.6.1-.6.2.2,0,1,1.1.1.9.4.6-.6.6.6.8.2.2-.2.3-.6.4.5.3.5-.2.3.2-.4-.2,0,0-.6,0,0,.1.8.3,0,.2.5.2.3.1-.1.1,1.2.1.8,1.3,0,1.2,0,.2.6-.2.6.2-.6,0,.2.2-.6,0,.4.2.4.7,0,1.4,1.1,0-.3,0-.4.4,0,0,.2-2.1.2-.9,0,1,0,.8-1,.5,0,0,.5,0,.5,0-.3-.1,0,0,.1-.1-.5-.1-.1,0-.6,0,.8,0,.5-1.3.3-1.2.7,0-.1-.6.9-.6-.2,0-1-.2-.3-.2-.2-.1-.1-.1-.6-.1.3,0,.5-.1.9,0-.7-.3-1-.8-.2-.9-.3,0-.3-.3-.5-.2-.5,0,.4,0-.2-.1.7,0,1.2.4.4,0-.7-.1,1.1-.5,0-.9,0,0,.7,0,.3-.2.5.2.5,0,.2,0,.1,0,.8.2.2-.1.9.1.5-.4-.1-.1.2,0,0-.2.3-.3-.7.2-.4-.6.3-.5-.9,0-1.4-.5-.1-.2-.4-.3-.4,0-1-.2.6,0,.2-.2.8,0,.1-.2-.7-.2-.3-.2.4,0,.3.2.6,0-1.2-.2,0-.4-.8-.5.3,0,0-.4.6,0-.8-.4.2-.3-.3-.6.6.1,0-.4.8-.1-.3-.2,0-.4.7-.1-.6-.6,0-.9-.3-1.7.6.4.8.3,1,.3-1.1-.2-.4-.7-.6-.5.4.2.3.1.7.4-.4-.3-.6-.7.2-.5-.7-.5.4,0-.4-.6,0,0,.2,0,0,0,.4.1.9.2.2-.4.4,0,1.1.5,0-.2.7,0,.5-.5,1.1-.2,0,0,0-.2-.3-.3.5.2,0-.2.4-.1-.9-.7.2-.5.2-.2.2.1.1-.2-.2-.3,0-.1.7.1.1-.3.4,0,1.1.6.2,0,.4-.2.1,0,0-.8,0,0,.7.4.2,0,1.1.5-.6-.7.6-.3-.4-.3,0,0,0-.2-.6,0-.2-.2,0-.1-1-.7,0,0,.7-.1-.3-.6-.8-.3-.6-.5-.5,0-.7-.6-.1-.7.4.4-.5-.6.7-.2-1.3-.6.4.2-.3-.5,1,.7,0,0,.1-.3.8.4,1.1.5,0,0,.3.1.6.3,0-.1-.2-.4.8.2.5,0,.1,0,.2.1.3.2.4.4.6.5.5.9ZM70.6,134.5c.6.2,1,.2.3,0,.7,0,0-.2-.3,0ZM74.3,129.9c-.3.2,1.2.7.3.3-.3-.2,0-.2-.3-.3ZM74.7,128.7c-.1,0-.4-.3-.2.1.4.3.4,0,.2-.1ZM74.9,127.9c.4.2.4.2.7.5.2,0-.5-.5-.7-.5Z"/>
    <path class="cls-2" d="M75.3,127.4c-.2-.2-.2-.3,0-.4-.7-.3-.3.3,0,.4Z"/>
    <path class="cls-2" d="M75.3,127.1s0,0,0,0h0Z"/>
    <path class="cls-2" d="M76.2,126c.4-.2,0,.3.5.2-.5-.6-1.8-1.3-.5-.2Z"/>
  </g>
  <g>
    <path class="cls-2" d="M131.8,78.8c-1.6-.3,1.2.2.1,0,0,0,1,.2.4,0-.5,0-.1,0,.1,0-.9-.2,0,0-.8-.2.2,0,.2,0,.4,0-.2,0,0,0,0,0-.3,0-.5,0-.6-.1.8.2.8,0,0,0,0,0-.5-.1-.6-.1,0,0,.5.1.6.1-.7-.2-1.1-.2-.7,0,0,0-.3,0,.2,0-.4,0-.1,0,.2,0-.3,0,0,0-.4,0,0,0,.4,0,.4.1-.2,0-.3,0-.4,0,.6.1,0,0,.6.1-.4,0,.5,0,.6.1-.3,0-.3,0-.7-.1.4,0-.3,0-.3,0,.5,0,0,0,.9.2Z"/>
    <path class="cls-2" d="M130.7,78.2h.4c-.2,0,0,0-.6,0,.6.1.2,0,1,.2-.7-.2-1.6-.5-.8-.3-1-.3,0,0,.4,0-.3-.2-.4,0-.7-.3.1,0,.2,0,.1,0,.7.2,1.2.4,1.4.4-.2,0,0,0,0,0-.3,0-.7-.2-1.3-.4,0,0,.2,0,.4.1-.2,0-.1,0,.1,0-.1,0-.8-.3-.7-.2-.7-.3.4.1.4.1-.3-.1,0,0,0,0-.8-.3.2,0-.4-.2,0,0,.5.1,0,0,.6,0,.6.1-.1-.3,0,0,.3,0,.4.1-.7-.3.4.2-.3-.2.2,0,.2,0,.4.1,0,0-.2,0-.4-.2.2-.3.6.2.9.4,0-.1-.4-.3-.6-.5.5,0,0-.7.8-.7-.2.6.7-.5.3.4.4-.4,1.4.3.7.9.4-.2.4,0,.8-.2-.6.2.1.4-.6.6.1,0,1.1,0,.2,0,.3,0,0,0,.5,0-.8,0-.6.2-.2.2-.1,0-.3,0-.6,0,.2,0,.3,0,.8,0-.5,0-.4,0-.1,0-1,0-.1.1-.5.1,0,0,.4.3-.1.3.4,0,.2.1-.2.2.6,0,.5.1,0,0,0,0,.2,0,.5,0-.6,0-.5,0-.2.2-.4-.1-.4,0-.3,0-.3,0,.7.3-.3.1.6.3-.5.3-.7.2,0,0,.6.1.7.2-.4,0,.6.2-.5,0,.7.2.4.2,0,0,0,0,.3,0,.3,0,.7.2-.4,0,.3.1-.6,0,0,.2-.5.1.3,0,0,0-.1,0,.7.2,0,0,0,0,.5.3.1.2-.2.1.3.1-.2.7-.3.4,0,0,.6-.4,0,0,.3-.3-.2,0,.3-.3-.5.1-.2,0,0-.1-1-.3,0-.8-.9-1.3-.3-.2-.8-.5,0-.4,1.3.2,0,0,0,.2,0,.1,1,.4.8.5.9.1,0,.1.3.2.2.1.7,0,0,.2.3,0,.5.1,0,0-.2,0,.7,0,0,.1.7,0-.1,0,.5,0-.1,0-.3,0-.4,0,.4,0,.3,0,0,.2.2,0,.7,0,.2,0,1-.2,0,0-.2,0,0,0,0,0,0,0,0,0-.2,0-.2,0,0,0-.2,0-.3.1,0,0-.2-.2-.4-.3,0,0-.1,0,0,0,0,0-.2-.1-.3-.2,0,0,.1,0,.2,0-.6-.3,0,0-.6-.3-.4-.2.3.1.4.2,0,0-.5-.2-.4-.2-.3-.1.4.1.1,0,.4.2,0,0,.6.2,0,0-.8-.3,0,0-.5-.2-.2,0,.1,0-.9-.3-1-.4,0-.2-.3,0-.9-.3,0,0-.3-.1-.6-.2,0,0-.3,0-.3-.2,0-.1-.6-.2-.1,0-.8-.2.1,0,.6,0,.8,0-.3,0,0,0,.1,0-.5-.1-.1,0-.6-.1.8.1.4,0,.2,0,.3,0,.6,0,0,0,.7.1-.1-.1.8,0-.2,0-1-.2-.3,0-.2,0-.1,0-.6-.1.3,0,.5,0,.9.1-.7-.1-1.1-.3-.2-.2-.3,0-.3,0-.5,0-.5,0,.4,0-.2,0,.4,0,.6.1,1.1.2-.1,0-.7-.1-.5-.1-.5,0-.5,0,.1,0-.4-.1,0,0,.1,0,0,0-.5,0-.5,0,0,0,.7,0,.3,0,.5,0,.5,0,.1,0,0,0,.2,0,.5,0,0,0-.1,0-.3,0,.8.1.5,0-.2,0,.1,0,0,0,.3,0-.6,0-.6-.1.2,0-.4,0-.7,0-1.1,0,.1,0,.6,0,.9,0-.5,0-.4,0-1,0,.5,0,.2,0,.7,0,0,0-.7,0-.3,0,.3,0,.3,0,.6,0-.4,0-1.1-.1-.5,0,0,0-.3,0-.5,0,.3,0-.2,0,.6,0-.8,0,.1,0-.5,0,.6,0,0,0,.7,0-.3,0-.1,0,.6,0-1,0,.2,0-.8-.1,0,0,.3,0-.2,0,.7,0,.9,0,1,0-.7,0-.5,0-.9,0,.2,0,.5,0,.2,0,.5,0,.3,0,.7,0-.3,0-.2,0-.6,0,.3,0,0,0,.5-.1-.9.1.3,0-.6,0,0,0,.2,0,0,0,.4,0,.8-.3,0,0,.1,0,.2,0,.7-.2-.1,0-.4.1-.6.2,0,0,.2,0,.2-.1,0,0,0,0,0,0,.1-.1.2-.7,0,0,0-.4,0,0,0-.2,0,.2,0,.2,0,.2,0,0,0,0,0,0,0,0-.1-.2,0,0-.2-.4-.4-.5,0,0,0,0-.5-.4,0,0,0,0-.2-.1-.5-.3.2.1,0,0-.1-.1,0,0,.2.2.5.4-.3-.2.3.2-.2-.1,0,0,.2.1.4.3-.1,0-.1,0,.2.1,0,0-.7-.4-.1,0,0,0-.4-.2-.4-.2.3.1.7.4,0,0,.5.2,0,0,0,0,.6.2.2,0,0,0,1.1.4.2,0-.5-.1.5.2.8.2.7.3.4.1.1,0,.6.2-.2,0,.3.2-.1,0-.6-.2.8.2-.5,0,.6.1.9.2,0,0,.7.2.2,0-.1,0,0,0,.5.1.3.1.4,0,.1,0,.3.1-.4-.1-.6-.1-.9-.2.1,0,.4,0,.9.2-.3,0-.7-.1,0,0,.3.1-.7-.1-.4,0-.5,0-1-.2-1.2-.4ZM131.7,78.5c.3,0-.1,0-.1,0,.3,0,.4,0,.7,0-.2,0,0,0-.5,0,.6,0,.1,0-.2,0ZM131.7,77.3c.4,0-.6-1.1-.1-.5.1.3,0,.2.1.5ZM131.9,77.9s-.1-.1-.1-.1c-.6-.3-.2,0,.1.1ZM131.8,78c-.4-.2-.4-.2-.8-.4-.1,0,.6.3.8.4Z"/>
    <path class="cls-2" d="M131.7,78.1c.3.1.3.1.2.1.7.2.2,0-.2-.1Z"/>
    <path class="cls-2" d="M131.8,78.2s0,0,0,0h0Z"/>
    <path class="cls-2" d="M132.2,78.9s0,0,.1,0c.3,0-.3,0,.3,0,0,0,0,0,.1,0-.2,0-.8-.1-.5,0-1-.1-.2,0-1.2-.2.2,0,.3.1,1.1.2Z"/>
  </g>
  <g>
    <path class="cls-2" d="M129.9,78.1c-.2-1.2,0-.1,0,.4,0-.3,0-.4,0-.1,0-.1,0-.3,0-.1,0,0,.1,0,.3-.2-.2.1-.2.1-.4.2.2,0,0,0,0,0,.8-.4.4,0,0,0,0,0,.2,0,.2,0-.2,0-.3,0-.1,0,.1,0,.4-.1.5-.3.5-.1.8-.2,0,.1.3,0,.5,0,.5,0,1.1-.1-.3-.9-.4-.6.1-.3-.4-.8-.4,0-.1-.4-.1.5-.2.6,0-.3,0-.3,0-.7.4,0-.4-.5,0,.6Z"/>
    <path class="cls-2" d="M131.5,78.4h-.4c.3,0,0,.2.6.2-.6,0-.2,0-1,0,.5.1,2,.2.8.3,1,.2,0,0-.4,0,.5.2.5-.1.2.2.3,0,.4,0,.4,0,.4,0,0,.2,0,0-.7,0-1.3-.2-1.5,0,.1.2.7,0,1.3.2,0,0-.2,0-.4,0,.2,0,.1,0-.1,0,.1,0,.9.2.7,0,.7.1-.4,0-.4,0,.3,0,0,0,0,.1.8.1-.2,0,.5.1,0,0-.5,0,0,.1-.7.2-.7.2.2.4,0,0-.3,0-.4,0,.7,0-.5,0,.3.1-.2,0-.2,0-.4,0,0,0,.2,0,.4,0,0,.3-.6,0-1,.1.1,0,.5,0,.7,0-.2,0-.3.2.3.3-.2,0-.3,0-.1.1-.1,0-.2,0-.3,0,.5.2.1.1-.1,0,0,0,.6.2,0,.1,0,0,.4,0,.3.1-.6,0,0,.2-.7.2.5,0,.4.1.8.2-.6,0,0,.5-.8.6,0,0,1.1.2.2,0,.3.1,0,.2.5.3-.8,0-.6.3-.3.5-.1,0-.3,0-.6,0,.2,0,.2.2.8.3-.5,0-.4,0-.1,0-1-.2-.2.4-.6.3,0,0,.2.7-.2.9.5,0,0,.4-.3.5.6.1.5.2,0,0,0,0,.2,0,.4.1-.6,0-.5.3-.3.5-.4-.2-.5,0-.3,0-.3,0,.6.6-.4.5.9,1.4-2.1.6-.2.3,0,0-.6,0-.8,0,.3-.2-.7-.3.5-.4-.8,0-.4-.3,0-.3,0,0-.3,0-.3,0-.7-.1.4-.1-.3-.2.7-.2,0-.5.5-.7-.3,0,0-.1.1-.2-.9-.3.8-.1-.2-.7.8-.5.3-.6,0-1,0,0,.7,0,0,0,.4,0-.2-.3.4-.3-.2-.9.1-4.3-.8-4.8.1-1.8,2-1.3.6.1,1.1.6,1.7,1.6,1,2.3.2.2.6.4,0,.3-.2,0,.6.4,0,.5.7.2-.2.2.5.5-.1,0-.3,0-.4,0,.3,0,.2.4,0,.8.2,0,.7.2.2.1,1,.2-.1.4.3.5-.5-.1,0-.1-.6,0,.2,0,.6.2,0,.1.7.1-.2,0,.5.2.4.1-.6,0-.6.1,0,0,1,.2,0,.1,0,0,.5,0,.6.1-.3,0,0,.1,0,.2-.6,0,.2,0-.4,0,.4.1,0,.2-.1.3.8,0,0,0,.8.2.1.2-.8.2-.1.2.4,0-.4,0-.1.1-.4-.1,0,0-.6,0,0,0,.8.2,0,.1.5.2.2,0-.1,0,1.1.1.8.8,0,.6,0,.1.5,0,.6.1-.6,0,.2,0-.6,0,.3.2.6.1,0,.2.3,0,.3.4,0,.5.7,0,.1,0,.8,0-.6,0-1.4.5-1.1,0v.4c-.4-.2-.7-.3-.9-.6.3,0,.6,0,0-.1.7,0,0-.3.9-.1-.2,0-.9-.3-.3-.2-.2,0-.1,0-.6-.2.3,0,.5,0,.9.2-.7-.2-1-.6-.2-.5-.3,0-.3-.2-.4-.1-.5,0,.4,0-.1,0,.4,0,.6.2,1,.3,0,0-.7-.2-.4-.2-.8,0,.1-.1.3-.3-1-.3.2,0-.2-.2.5.1.5.1.1,0,0,0,.8.2.1,0,.5,0,.7,0,.3,0-.5,0,.1.1-.4,0,.2,0,0-.1.3-.1-.6,0-.5-.3.3-.2-.4,0-.7,0-1-.2.1,0,.6,0,.9,0-.4-.2-.4,0-1-.2.5,0,.2,0,.7,0,0,0-.7-.1-.3-.1.3,0,.4.1.6,0-1.1-.2-.3-.2-.9-.3.3,0-.2-.2.6,0-.8-.2.1-.1-.5-.3.6,0,0-.2.7,0-.3,0,0-.2.6,0-1-.3.3-.2-.8-.6,0,0,.3-.2-.2-.3.7.1.9,0,1,0-1,0-.7-.3-.7-.2.5,0,.3,0,.7.1-.3,0-.1-.1-.6-.2.3,0,0-.1.6,0-.9-.2.3,0-.6-.3,0,0,.2,0,0,0,.4,0,.9,0,0-.2.4,0,1.2,0,0-.1.3,0,.5,0,.3-.3.3.1.8,0,.1,0,.5,0,0-.1.3-.1-.5,0-.2-.1-.5-.1-.5-.2.6,0,.3-.1.5.2.6,0,0,0-.1,0,.7,0,0-.1.1,0,.2,0,.6,0-.2,0,.5,0-.4,0,.3,0-.3-.1.3,0,0,0-.2,0-.4,0,.3-.2-.6-.3.3-.2-.3-.1-.1,0,.1-.1-.3,0-.8-.3,0-.2-.5,0,.1,0-.2,0-.5,0,0,0,.1-.1-1.2-.2-.1,0,.6-.2-.5-.3-.8,0-.8-.2-.4,0-.1,0-.6,0,.2,0-.3-.3.1-.3.6.1-.7-.1.5-.2-.6,0-.9,0,0,0-.8-.1-.3-.1.1,0,0,0-.5,0-.3-.1-.4,0-.1,0-.3,0,.5,0,.6,0,.9,0-.1,0-.4,0-.9,0,.3,0,.7,0,0,0-.3,0,.7-.2.4-.2.6-.2,1-.3,1.3.1ZM129.2,83.7c.6.1,1,0,.3,0,.7,0-.2,0-.3,0ZM130.7,80.9c-.2.1,1.4.2.5.1-.3,0-.2,0-.5-.1ZM130.2,80.3s.2,0,.2.1c.7,0,.2-.1-.2-.1ZM130.8,79.9c0,0,.2,0,.5.1,0-.2-1.3-.1-.5-.1Z"/>
    <path class="cls-2" d="M130.4,79.6c-.3,0-.3-.1-.2-.2-.7,0-.2.2.2.2Z"/>
    <path class="cls-2" d="M130.3,79.4s0,0,0,0h0Z"/>
    <path class="cls-2" d="M129.9,78.4s0,0,0,.1c0,.3-.1-.2,0,.3,0-.2,0-.7,0-.3-.2-1,0-.2-.2-1.2,0,.2,0,.4.1,1.1Z"/>
  </g>
  <g>
    <path class="cls-2" d="M125.5,147.9c-1.6-.3,1.1.2.2-.1.4.1.8.2.2,0-.4-.2-.5-.3-.8,0,0,0,.3-.2.3-.2-.2.2-.6.3.1.2-.2.1-.2.1-.4.2.2,0,0,0,0,0,.9-.2.5.2,0,0,.3.4-.3.2.5.2,0-.4.4-.2.7-.1-.7.2-.5,0-.1.3,1.1.1,0-.9,0-.8.3-.4-.3-.2-.6-1.1-.6.1,0,.7-1.1.6.5.5.1,0,.6.2-.5.2.4.2.5.4-.3,0-.3,0-.7-.1.1-.6-.7.4.6.3Z"/>
    <path class="cls-2" d="M126.7,148.8h-.4c.2,0,0,.3.6.3-.6,0-.2.1-1,0,.5.2,2,.4.7.6,1.5.3-1.3,0,0,.3-.8.3.5.2.3.5-.4-.2-.8,0-1.5-.4-.3,0,.6.3-.2,0-.3.4,2,.3.9.3.2,0,.1.2-.2.2.8.2,1.4.4.3.2.3.1,0,.1,0,.2.8.2-.2,0,.4.2,0,0-.6.2,0,.3-.5,0,0,.5-.6.3-.1.3,1.3.4.2.5.7,0-.5,0,.3.3-.7.2.8.8-1.1.6.7.2.6.6.7,1.1-.5-.3.3.4-.5,0,.4.5-.2,0,.2.5-.6-.2,0,.5-.8.3.4.2.4.2.6.5-.7-.2-.4,1.1-1.3,1.1,0,.1,1,.5.1.1.2.3-.2.3.2.6-1.4-.3-.2,1.4-1.2.7.1.2,0,.4.5.6-.5-.1-.3-.2-.2,0-1.1-.2-1.1,1.7-1.8,2-.4,1-1.4.8-.7,1.3-.7,0-.8.3-.9.8-.2-.5-.5,0-.3,0-.5.6-1.2,1.3-2.3,1.9h0c-.3.1-.7-.3-.2-.2.2.3-1-1.2.4-.6-.9-.8.7-.4,0-.6-.2-.3.9-1.4,1.5-1.6-.6-.4.3-.4.5-.5,0-1,1.3-1.2,1.1-2.4,0,0,.7.3,0,0,.5,0,0-.5.6-.4,1.6-2.7,1.9-7,2.7-10.1,1.3.2,0,.5,0,.8.1,1.2,1,2.6.3,3.5.9.5-.4.9-.5,1.6,0,.3.4,1-.1.6-.1.4-.1,1.9-.7,1.7.3.1-.2,1-.7,1.4.1.2.6.5,0,.3.8.6-.4.6-.1,1.1-.4-.4,0-.1-.6-.1.2,0,.4.5-.1.2.6.4-.3.1.3.5.3.4-.6,0-.7,0,0,0,.8.7-.1.3.5.3.4,1.1-.2.6-.5.8.7,1.6-.6,1.1.3.5.6,0,.1.4-.2-.4,0,0-.5-.3,0,.1.6.7-.1.2.3.4.2.3-.2,0,1,.8,0,1.6-.8,1,0,.2.6.2.4.5-.4-.4,0,.2-.5-.3.1.4-.2.9-.8,1.2.5.4,0,.2.6.6-.9-.4-1.4-.2-1.5-1.2l.3.8c-.2-.4-1.3-1.5-.3-.6-.2-.3,0,0,.2,0-.3-.4-.2,0-.5-.4.7.4,1.2-.7,1-.8.6.4.3-.5,1,0-.2-.1-.6-.8-.1-.4,0-.2,0-.2-.4-.5.3.1.5.2.7.6-.4-.6-.4-1.2.4-.8-.4-.5-.2-.4-.3-.6.5.4.8,1.1.4.2-.5-.5,1.2.2.4-.8,0,.1.6.3.3,0,.4.4.4.3.2,0,.1,0,.6.6.2,0,.7.5.7,0,0-.2.2,0,.2-.2.4-.1-.7-.2-.2-.7.5-.3-.8-.3-1.1-1,0-.3-.2-.4-.4-.1-.9-.5.6.1.3,0,.7.2.2-.1-.6-.4-.2-.3.3.2.3.3.6.2-1-.6,0-.4-.6-.7.3.1,0-.4.6,0-.7-.5.3-.2-.2-.7.6.2.1-.3.8,0-.2-.2,0-.3.7,0-.5-.7.1-.9-.3-1.8.6.4.8.3,1,.3-1.1-.2-.5-.7-.6-.5.4.2.3,0,.7.3-.4-.3-.6-.6.2-.5-.8-.4.3-.1-.5-.5,0,0,.2,0,0,0,.4,0,1,0,.1-.4.4,0,1.2.3,0-.2.3-.1.6-.1.4-.5.7.4,0-.2.6.1,0,0,0-.2-.4-.3.5,0,0-.2.4-.2-1.1-.4,0-.5.2-.2.3,0,.1-.2-.3-.3,0-.1.7,0,0-.3.4,0,1.2.3.2-.1.3-.3.2,0-.2-.8.7,0,0-.1.6-.1-.3,0-.7-.6,0-.4-.5-.1,0,0,0-.2-.6.1-.2-.1,0-.2-1.1-.4,0,.1.6-.3-.5-.5-.8,0-.7-.3-.5.2-.9-.3-.4-.6.5.3-.7-.3.6-.4-1.5,0,.6,0-.4-.3,1.2.2,0,0,0-.3.9,0,1.2,0,0,0,.3,0,.7,0,0-.1-.3-.2.8-.2.4-.3.6,0,1.1,0,1.2.5ZM121.8,158.5c.5.3.9.4.3,0,.7.2,0-.2-.3,0ZM125.2,153.7c-.3.3,1.3.4.4.3-.3,0-.1-.2-.4-.3ZM125.3,152.4c-.1,0-.4-.2-.2.2.4.2.4-.1.2-.2ZM125.2,151.5c.4.1.4,0,.9.3.2-.2-.6-.3-.9-.3Z"/>
    <path class="cls-2" d="M125.4,151c-.3-.2-.3-.3-.1-.3-.7,0-.2.4.1.3Z"/>
    <path class="cls-2" d="M125.3,150.6s0,0,0,0h0Z"/>
    <path class="cls-2" d="M125.8,148.2c.2-.4.2.3.6,0-1.1-.3-.5,0-1.6-.3.2.2.3.3,1,.4Z"/>
  </g>
  <g>
    <path class="cls-2" d="M114.9,166c-.3-.2-.5-.3-.5-.4.7.5.7.5,1,.7,0,0,.3.2,0,0-.4-.3,0,0,.1,0-.7-.6,0,0-.6-.5.2.1.2.1.3.3-.1-.1,0,0,0,0-.3-.2-.4-.4-.4-.4.6.5.7.5,0,0-.3-.3-.6-.6,0,0-.4-.5-.9-.9-.6-.4,0,0-.3-.2.1.1-.4-.3-.1,0,.1.1-.3-.2,0,0-.4-.2,0,0,.3.2.3.3-.1-.1-.3-.2-.4-.3.5.4,0,0,.5.4-.3-.2.4.3.5.4-.3-.2-.2-.2-.6-.4.3.2-.2-.2-.2-.2.4.3,0,0,.7.6Z"/>
    <path class="cls-2" d="M114.2,164.9l.3.3c-.2-.2,0,0-.4-.5.4.4.2.1.7.8-.4-.5-1.1-1.4-.4-.7-.6-.8,0,0,.3.3-.1-.3-.3-.3-.4-.7,0,0,.1.2,0,.2.4.5.7,1.1.9,1.2,0-.2,0,0,0,0-.2-.3-.4-.6-.8-1.1,0,0,.1.2.3.4-.1-.2,0-.1.1,0,0,0-.4-.8-.4-.6-.4-.6.3.4.3.3-.1-.3,0,0,0,0-.4-.7.1.2-.2-.4,0,0,.3.4,0,0,.4.4.4.5.1-.3,0,0,.2.3.2.4-.3-.7.2.4,0-.3,0,.2.1.1.2.4,0-.1,0-.2,0-.4.4,0,.2.6.4,1,0-.7.3-.9.9-.8-.5.4.6-.1-.1.5.1,0,.7-.2.2.2.4-.2.4.5-.1.6.5,0,.4,0,.8,0-.6,0,0,.6-.8.5,0,0,1,.4.1,0,.2.1,0,0,.4.3-.8-.3-.6,0-.3.2-.1,0-.3-.2-.5-.3.2.1.2.2.6.4-.4-.2-.3-.2-.1,0-.9-.5-.2,0-.5-.2,0,0,.2.4-.2.2.3.2,0,.2-.2,0,.4.4.4.4,0,0,0,0,.1.1.3.3-.5-.4-.4-.2-.2,0-.3-.3-.4-.3-.2-.2-.3-.2.4.6-.3-.1.4.6-.6,0-.7-.3,0,0,.4.4.5.6-.3-.2.4.5-.4-.3.5.6.2.4,0,0,0,0,.2.2.2.2.4.5-.3-.3.2.3-.4-.5-.1.1-.4-.2.2.3,0,0-.1,0,.4.6,0,0-.1,0,.2.9-.2,0-.1,0h0s-.5.4-.5.2c0,0,.6-.4,0,0,.3-.2-.3-.2.3-.3-.5,0-.2-.1,0,0-.2-.1-.2-.3-.2-.4.7-.2-.9-1.8.3-1.2,1.1.8,0,.1,0,.1,0,0,.8.8.5.7.7.6,0,.1.1.3.1.2.7.4-.1.2.2.3.4.4,0,.1-.2,0,.5.5-.1,0,.5.4-.1,0,.4.4,0,0-.2-.2-.4-.3.5.4-.1,0-.4,0,0,0,0,0,0,0,0,0,0,0,0,0,0,0,0,0,0-.1v.2s0,0,0-.1c0,0,0,0,0,0,0-.1,0-.2-.1-.4,0,0-.2-.5-.2-.3,0,0,0,0,0-.2.4.7-.2-.4.2.4-.3-.5,0-.2,0,.1-.1-.2-.7-1.1-.3-.5-.3-.4.1.1.4.4,0,0-.2-.3-.4-.5.4.5-.1-.2.4.5-.2-.3-.4-.5,0,0-.2-.2-.1-.3.1,0-.4-.5,0-.1-.5-.6.1,0,.5.4.6.5-.2-.2,0,0,.1,0-.3-.4,0,0-.4-.4.6.6.4.3.2,0,.2.2.5.4,0,0,.5.5,0-.2.6.5-.2-.2-.7-.7-.2-.2-.1-.1,0-.1-.4-.4.2.2.4.4.7.6-.5-.5-.8-.8-.1-.3-.2-.2-.2-.3-.3-.3-.4-.3.3.2-.1-.1.3.2.4.4.8.7,0,0-.5-.5-.3-.4-.4-.3-.4-.3.1,0-.3-.3,0,0,.1,0,0,0-.3-.3-.3-.3,0,0,.5.4.2.2.4.3.4.3.1,0,0,0,.2.2.3.3,0,0,0,0-.2-.2.7.5.4.3-.1-.1.1,0,0,0,.2.1-.5-.3-.4-.4.2,0-.3-.2-.6-.4-.8-.6.1,0,.5.3.7.5-.4-.3-.3-.2-.8-.6,1.1.7-.2-.2.8.5-.3-.2-.9-.6-.4-.3,0,0-.2-.2-.4-.3.3.2-.1-.1.5.3-.7-.5.1,0-.4-.3.5.3,0,0,.6.3-.3-.2,0,0,.5.2-.8-.5.2,0-.7-.5,0,0,.3,0-.2-.1.6.3.8.3,1,.4-.6-.2-.4-.2-.9-.4.2,0,.4.2.1,0,.4.2.3,0,.7.3-.3-.1-.1,0-.6-.2.3,0,0,0,.5.1-.9-.2.3,0-.6-.2,0,0,.2,0,0,0,.5,0,.6,0,.1,0,.4,0,.8,0,0,0,0,0,.1,0,.1,0h0c.3-.2.5-.5,0,0,.3-.4,0,0,.1-.2-.1.2-.1.2-.1.2,0,0,0,0,0,0,0,0,0-.2,0-.1.2-.5,0-.6,0,0,0,.1,0-.7,0,0,0-.1,0-.2,0-.6,0,.3,0,0,0-.2,0,0,0,.3,0,.6,0-.3,0,.3,0-.3,0,0,0,.2,0,.5,0-.1,0,0,0,.2,0,0-.3-.8,0-.1,0,0-.2-.5-.2-.4.1.3.3.8,0,0,.2.5,0-.1,0,.1.2.5,0,0,0,0,0,0,.4.7.3.5-.2-.4-.2-.5-.6-1,.2.5.5.7.4.7.2.3,0,0,.3.5-.1-.1.2.3,0,0-.4-.5.5.6-.3-.4.4.5.6.7,0,0,.5.6.2.2,0-.1,0,0,.3.4.2.3.3.3.1.1.2.3-.3-.3-.4-.4-.6-.6,0,.1.3.2.6.6-.2-.2-.5-.5,0,0,.2.2-.5-.5-.3-.3-.3-.3-.8-.7-.8-.9ZM115,165.8c.2.2,0,0-.1,0,.3.2.4.2.6.4-.1-.1,0,0-.4-.3.5.3.1,0-.1,0ZM115.6,164.9c.2.3.5-1.3.2-.4-.1.3-.2.1-.2.4ZM115.3,165.4s0-.2,0-.2c-.1-.7,0-.1,0,.2ZM115.2,165.4c-.2-.4-.2-.4-.4-.8-.1,0,.3.7.4.8Z"/>
    <path class="cls-2" d="M115.1,165.4c.1.3.1.3,0,.2.4.6.1.1,0-.2Z"/>
    <path class="cls-2" d="M115.1,165.6s0,0,0,0h0Z"/>
    <path class="cls-2" d="M115.1,166.2s0,0,.1,0c.3.2-.2-.2.2.2,0,0,0,0,.1,0-.2-.1-.7-.5-.4-.3-.8-.5-.2-.1-1-.7.2.1.3.2.9.7Z"/>
  </g>
</svg>