<?xml version="1.0" encoding="UTF-8"?>
<svg id="Layer_1" data-name="Layer 1" xmlns="http://www.w3.org/2000/svg" version="1.1" viewBox="0 0 519 286.9">
  <defs>
    <style>
      .cls-1 {
        fill: #fff;
        stroke-width: 0px;
      }
    </style>
  </defs>
  <g>
    <path class="cls-1" d="M7.1,8h8.9l38,50.2,2.5,3.4h.4V8h9.3v72h-8.5L19.6,29.2l-2.7-3.7h-.4v54.5H7.1V8Z"/>
    <path class="cls-1" d="M88.9,71.9c-6.3-6.3-9.4-15.5-9.4-27.9s3.1-21.6,9.4-27.9c6.3-6.3,15.1-9.4,26.5-9.4s20.3,3.1,26.6,9.4c6.3,6.3,9.4,15.5,9.4,27.9s-3.1,21.5-9.4,27.8c-6.3,6.3-15.1,9.4-26.6,9.4s-20.2-3.1-26.5-9.4ZM134.5,66c4.4-4.5,6.6-11.7,6.6-21.6v-.4c0-10-2.3-17.3-6.7-21.9-4.4-4.6-10.7-6.9-19-6.9s-14.5,2.3-18.9,6.9c-4.4,4.6-6.6,11.9-6.7,21.9v.4c0,9.9,2.2,17.1,6.6,21.6,4.4,4.5,10.7,6.8,19,6.8s14.7-2.3,19.1-6.8Z"/>
    <path class="cls-1" d="M157.9,8h10.8l19,52.4,3.6,9.7h.5l3.6-9.9,18.9-52.1h10.3l-26.8,72h-13.1l-26.8-72Z"/>
    <path class="cls-1" d="M235.9,8h10v72h-10V8Z"/>
    <path class="cls-1" d="M7.1,94.6h14.8l17.2,49.1c.6,1.8,1.3,3.9,1.9,6.2.7,2.3,1.1,3.9,1.3,4.6h.4c.2-.8.6-2.4,1.3-4.8.7-2.4,1.3-4.4,1.8-6l17.3-49.1h14.7v72h-10v-47.5l.2-13.4h-.7c0,.5-.3,1.5-.6,3-.4,1.5-.7,2.8-1.2,3.9l-19.5,54h-8.3l-19.2-54c-.4-1-.7-2.3-1.1-3.8-.4-1.6-.6-2.6-.7-3.1h-.6l.2,13.4v47.5H7.1v-72Z"/>
    <path class="cls-1" d="M100.6,158.4c-6.3-6.3-9.4-15.5-9.4-27.9s3.1-21.6,9.4-27.9,15.1-9.4,26.5-9.4,20.3,3.1,26.6,9.4c6.3,6.3,9.4,15.5,9.4,27.9s-3.1,21.5-9.4,27.8c-6.3,6.3-15.1,9.4-26.6,9.4s-20.2-3.1-26.5-9.4ZM146.1,152.6c4.4-4.5,6.6-11.7,6.6-21.6v-.4c0-10-2.3-17.3-6.7-21.9-4.4-4.6-10.7-6.9-19-6.9s-14.5,2.3-18.9,6.9c-4.4,4.6-6.6,11.9-6.7,21.9v.4c0,9.9,2.2,17.1,6.6,21.6,4.4,4.5,10.7,6.8,19,6.8s14.7-2.3,19.1-6.8Z"/>
    <path class="cls-1" d="M176.2,94.6h26.7c11.5,0,20.4,3,26.7,8.9,6.2,5.9,9.3,15,9.3,27.1s-3.1,21.2-9.3,27.1c-6.2,5.9-15.1,8.9-26.7,8.9h-26.7v-72ZM202.8,157.9c8.3,0,14.7-2.1,19-6.3,4.4-4.2,6.6-11.1,6.7-20.8v-.2c0-9.7-2.2-16.7-6.6-20.9-4.4-4.2-10.8-6.3-19.1-6.3h-16.7v54.6h16.7Z"/>
    <path class="cls-1" d="M251.9,94.6h8.9l38,50.2,2.5,3.4h.4v-53.5h9.3v72h-8.5l-38.2-50.8-2.7-3.7h-.4v54.5h-9.3v-72Z"/>
    <path class="cls-1" d="M329,94.6h10v72h-10v-72Z"/>
  </g>
  <g>
    <path class="cls-1" d="M37.9,281.3c0,1.6-.3,2.7-1.3,3.5-.9.8-2,1.2-3.3,1.2s-2.4-.4-3.4-1.2c-1.1-.8-1.6-1.9-1.7-3.5-.9-13.1-1.4-26.2-1.6-39.2-.2-13.1-.5-26.1-1.1-39.2-1.1-1.8-1.2-3.5-.2-5.2,0-.9-.1-1.7-.2-2.5,0-.8-.1-1.6-.2-2.5,0-1.5.3-2.6,1.2-3.4.9-.8,1.9-1.2,3.1-1.3,1.2,0,2.3.2,3.4.9,1.1.7,1.7,1.7,2,3.1,1.4-.7,2.7-1.3,4-1.8,1.3-.6,2.6-1.1,4-1.7,1.1-.5,2.4-1,3.8-1.4,1.4-.4,2.8-.8,4.3-1s2.9-.4,4.4-.4,2.8.2,4,.7c2.5,1,4.5,2.5,6.1,4.4,1.6,2,2.9,4.1,4,6.5,1,2.3,1.9,4.6,2.8,6.9.9,2.3,1.4,4.7,1.5,7.2,0,2.5-.3,4.9-1.1,7.1-.8,2.2-1.9,4.2-3.4,6-1.4,1.8-3.1,3.4-5.1,4.8-2,1.4-4.1,2.6-6.3,3.6-2.4,1.1-4.8,2-7.4,2.8-2.5.8-5.1,1.4-7.7,1.6-1.1.2-2.2.1-3.3-.1-1-.2-2-.6-2.9-1,.2,7.6.3,15.2.6,22.6.2,7.5.6,14.9,1,22.5ZM35.3,202.6c.2,3.8.3,7.5.4,11.2,0,3.7.2,7.5.4,11.2.5.3,1,.6,1.5.9.5.3,1,.6,1.6.9.7.4,1.2.6,1.6.7.4,0,1.1,0,2-.2,1.8-.4,3.6-.8,5.4-1.3,1.8-.4,3.5-1.1,5.2-1.9,1.6-.7,3-1.5,4.4-2.4,1.4-.9,2.7-2,3.8-3.4.7-.9,1.3-1.9,1.7-3.1.4-1.2.5-2.5.4-3.9,0-1.6-.5-3.3-1.2-5-.7-1.7-1.4-3.3-2-4.8-.4-.7-.8-1.5-1.2-2.3-.4-.8-.8-1.5-1.3-2.2-.7-.7-1.3-1.2-1.7-1.4-2.3-.2-4.3,0-6,.4-1.7.4-3.4,1-5.1,1.7-1.7.7-3.3,1.5-5,2.3-1.6.8-3.2,1.6-4.8,2.5Z"/>
    <path class="cls-1" d="M112.7,189.3c2.6-.3,5.4-.4,8.2-.3,2.9.1,5.6.6,8.2,1.5,2.6.9,5,2.2,7.1,3.9,2.1,1.7,3.8,4,4.9,6.8.8,2,1.2,4,1.3,6,0,2-.2,3.9-.9,5.8-.6,1.8-1.5,3.6-2.7,5.3-1.2,1.7-2.6,3.2-4.1,4.6-3.4,3-7,5.6-11.1,7.7-4,2.1-8.2,3.8-12.7,4.9-1.9.5-3.8.9-5.8,1.3-2,.4-4,.6-6.1.6s-4.1-.2-6-.7c-2-.4-3.8-1.2-5.5-2.3-1.2-.7-2-1.7-2.2-2.9-.5-1.4-1-2.7-1.6-3.9-.6-1.2-1.1-2.5-1.7-3.8-.5-1.3-1-2.6-1.3-3.9-.3-1.3-.5-2.7-.5-4.1,0-2.8.6-5.4,1.8-7.9,1.2-2.5,2.8-4.7,4.9-6.6,3.4-3.3,7.4-5.9,11.9-7.9,4.5-2,9.1-3.3,13.8-3.9ZM126.6,199.9c-2.2-.8-4.6-1.2-7.1-1.2-2.7,0-5.4.2-8.1.8s-5.3,1.5-7.7,2.5c-2.3.9-4.6,2.2-7.1,3.7-2.4,1.6-4.2,3.5-5.3,5.8-.7,1.2-1,2.5-.9,3.7,0,1.3.2,2.5.6,3.8.4,1.3.9,2.5,1.5,3.8.6,1.3,1.2,2.5,1.7,3.7,1.3.3,2.1.5,2.5.5.2,0,.4.1.6.1h.6c1.6.2,3.1.1,4.4-.1.9,0,2-.2,3.4-.5,2.1-.4,4.2-1,6.1-1.7,2-.7,3.8-1.5,5.4-2.3,1.9-.9,3.7-1.9,5.5-2.9,1.8-1.1,3.3-2.2,4.5-3.3.8-.7,1.6-1.5,2.3-2.3.4-.4.7-.7.9-1,.4-.6.7-1,1-1.3.2-.3.4-.6.6-1,.3-.6.5-1,.5-1.4,0-.2.1-.4.2-.6,0-.2.1-.4.2-.6v-1.4c0-.3-.1-.6-.1-.7s0-.3-.1-.5c-.2-.6-.5-1-.7-1.3-.2-.3-.4-.6-.7-.9,0,0,0,0-.3-.4-.3-.3-.5-.5-.6-.6l-1-1c-.4-.2-.9-.5-1.4-.9-.5-.3-1-.6-1.5-.7Z"/>
    <path class="cls-1" d="M185.2,236.4c.3,1.1.2,2.4-.5,3.7-.7,1.3-1.6,2.1-2.9,2.3-4.4.7-8.8.7-13.1-.2-4.3-.9-8.4-2.7-12-5.6-3.6-2.9-6.2-6.5-7.7-11-1.5-4.5-1.8-8.9-.8-13.5.9-4,2.8-7.5,5.7-10.4,2.9-2.9,6.1-5.2,9.8-6.9,3.3-1.6,6.7-2.8,10.3-3.7,3.6-.9,7.2-1.2,10.8-.9,1.4.2,2.6.7,3.5,1.5.9.9,1.4,2,1.4,3.4s-.5,2.4-1.4,3.4c-.9,1.1-2.1,1.6-3.5,1.5-2.6-.2-5.2-.1-7.7.4-2.5.5-5,1.3-7.4,2.3-1.4.7-2.8,1.4-4.1,2.1-1.4.7-2.5,1.6-3.5,2.5-1.1,1-1.9,2-2.6,2.9-.7,1-1.2,2.1-1.5,3.4-.3,1.3-.5,2.7-.4,4.2,0,1.5.3,2.9.8,4.4.4,1.4,1.1,2.7,1.9,3.9.8,1.2,1.8,2.2,2.9,3,2.4,1.7,5,2.9,7.8,3.5,2.8.6,5.6.7,8.3.2,1.3-.2,2.5,0,3.7.5,1.1.6,1.9,1.6,2.3,2.9Z"/>
    <path class="cls-1" d="M200.1,198.3c1.6-2.1,3.4-4,5.6-5.7,2.2-1.6,4.5-2.9,6.9-3.9s5-1.4,7.6-1.5c2.6,0,5.2.5,7.9,1.5,2.5,1,4.8,2.3,6.9,4,2,1.7,3.6,3.8,4.8,6.4.9,2,1.4,4.1,1.6,6.4.2,2.3-.5,4.4-1.8,6.3-1.2,1.7-2.7,3-4.5,3.9-1.8.9-3.6,1.6-5.7,2-2,.4-4.1.6-6.1.6s-4.1,0-6-.1c-2.1,0-4.2-.2-6.3-.5s-4.2-.5-6.3-.7c.7,3.7,2,7,3.9,9.8,2,2.9,4.6,5,8,6.5.9.3,1.6.6,2.1.7.2,0,.5.1.7.2.2,0,.4,0,.7,0,.7,0,1.2.1,1.7.2.4,0,.9,0,1.3,0,.6,0,1-.1,1.2-.2.2,0,.4-.1.7-.2.9-.2,1.7-.5,2.4-.9.7-.3,1.5-.9,2.5-1.6.5-.4,1.1-1,2-1.8.8-.8,1.5-1.6,2.1-2.2.8-1.1,1.8-1.9,3-2.3,1.2-.4,2.4-.2,3.6.5,1.1.7,1.8,1.7,2.3,3,.4,1.4.3,2.6-.6,3.7-2.4,3.2-5.2,5.9-8.4,8.2-3.2,2.3-6.9,3.5-11.1,3.6-3.4.2-6.6-.4-9.7-1.8-3.1-1.4-5.9-3.2-8.2-5.5-2.9-2.9-5.3-6.2-7-10-1.7-3.8-2.7-7.6-2.8-11.5-.7-.6-1.3-1.3-1.7-2.2-.4-.9-.5-1.7-.4-2.6.1-.9.4-1.7.9-2.5.5-.8,1.2-1.3,2.2-1.5.9-3,2.3-5.9,4.2-8.5ZM229.6,201.2c-.9-1.1-2.3-2.2-4.2-3.1-1.6-.7-3.4-1-5.5-1s-3.9.4-5.3,1.1c-1.9.9-3.6,2.2-5,3.7-1.5,1.6-2.7,3.4-3.6,5.3,2,.2,3.9.5,5.9.7,2,.2,3.9.4,5.9.5h3.2c1.1,0,2.1,0,3.2-.1.3,0,.6,0,.9,0,.3,0,.6,0,.9,0,.7-.2,1.3-.3,1.7-.3.4,0,.8-.1,1.2-.3.3,0,.7-.2,1.2-.4.4-.2.7-.3.7-.4,0,0,.2-.2.4-.2l.4-1.5c-.2-.3-.3-.6-.3-.9,0-.3-.1-.6-.3-.8,0-.2-.3-.6-.6-1.1-.3-.5-.6-.9-.8-1.2Z"/>
    <path class="cls-1" d="M288.9,203.1c1.6,0,2.7.5,3.5,1.5.8,1,1.2,2.1,1.2,3.3s-.4,2.4-1.2,3.4c-.8,1-1.9,1.5-3.5,1.5-2,0-3.9,0-5.8,0-1.9-.1-3.8-.3-5.7-.4,0,6.5,0,12.9-.3,19.4-.3,6.5-1,12.9-2,19.3-.2,1.4-.9,2.4-2.2,3.1-1.3.7-2.6.8-3.8.4-1.4-.4-2.4-1.2-2.9-2.3-.5-1.1-.7-2.4-.4-3.7,1-6.2,1.5-12.4,1.7-18.7.1-6.2.1-12.5,0-18.8-3.1-.5-6.3-1-9.5-1.5-3.2-.5-6.3-1-9.5-1.4-1.4-.2-2.4-.9-3-2.3-.6-1.4-.8-2.6-.4-3.7.4-1.4,1.2-2.4,2.3-2.9,1.1-.5,2.4-.7,3.7-.6,2.7.4,5.4.8,8.1,1.3,2.7.5,5.4.9,8.2,1.3,0-.4-.1-1-.1-1.8,0-7.4,0-14.7,0-21.9,0-7.2.3-14.5,1-21.9.2-1.3.7-2.5,1.5-3.4.9-1,2-1.5,3.4-1.5s2.4.5,3.5,1.5c1.1,1,1.6,2.1,1.4,3.4-.8,7.9-1.2,15.7-1.2,23.4,0,7.7.1,15.6.3,23.5,2,.2,3.9.3,5.9.4s3.9.2,5.9.2Z"/>
    <path class="cls-1" d="M309.3,242.6c-2.8-1.2-5-2.9-6.6-5.1-1.6-2.2-2.7-4.6-3.3-7.2s-.8-5.3-.6-8.2.8-5.5,1.7-8.2c.7-2,1.6-4.2,2.5-6.4.9-2.2,2.1-4.3,3.4-6.1,1.3-1.9,2.9-3.5,4.7-4.9,1.8-1.4,3.9-2.2,6.4-2.6,2.5-.4,5.1-.6,7.7-.4s5.1.4,7.7.8c1.1.2,2.3.4,3.3.8,1.1.4,2.1.8,3.2,1.2,0-1.2.6-2.3,1.7-3.1,1-.8,2.1-1.2,3.3-1.2s2.5.5,3.4,1.4c.9.9,1.4,2.1,1.5,3.4.4,3.8.6,7.5.6,11.3,0,3.8-.2,7.5-.4,11.3-.2,3.8-.4,7.5-.5,11.3-.1,3.8-.1,7.5,0,11.3,0,1.6-.4,2.7-1.4,3.5-1,.8-2.1,1.2-3.4,1.2s-2.4-.4-3.4-1.2c-1-.8-1.6-1.9-1.7-3.5-4.7,2-9.6,3.1-14.9,3.4-5.2.3-10.2-.6-15-2.8ZM310.1,216c-.5,1.5-.9,3.2-1.4,5-.4,1.9-.5,3.7-.4,5.4.2,1.7.7,3.3,1.6,4.7.9,1.4,2.4,2.4,4.4,3,4.2,1.3,8.4,1.7,12.6,1.1,4.2-.6,8.2-2,11.9-4.4.3-4,.6-7.9.8-11.7.2-3.8.3-7.6.2-11.4-1.4-.9-2.8-1.7-4.2-2.4-1.4-.7-3-1.2-4.7-1.4-1.7-.2-3.5-.4-5.5-.6-1.9-.1-3.8-.1-5.6,0-.2,0-.6.1-1.3.3-.7.2-1.1.3-1.2.4-.8.4-1.6,1.1-2.2,2-1.1,1.5-2,3.1-2.8,4.7-.8,1.7-1.6,3.4-2.2,5.1Z"/>
    <path class="cls-1" d="M364,219.4c-.3-1-.4-2-.1-3.1-.6-9.9-1.2-19.8-1.8-29.5-.7-9.8-.6-19.6.1-29.5.2-1.4.7-2.6,1.5-3.5.9-.9,2-1.4,3.4-1.4s2.5.5,3.6,1.4c1.1.9,1.5,2.1,1.4,3.5-.7,8.9-.7,17.8-.2,26.5.5,8.7,1,17.5,1.6,26.5,4.6-2.9,9.2-5.7,13.8-8.4,4.6-2.7,9.2-5.6,13.6-8.6,1.3-.9,2.6-1.1,3.7-.7,1.2.5,2.1,1.2,2.7,2.3.6,1.1.8,2.3.7,3.6-.2,1.3-.9,2.4-2.2,3.3-4.4,3-8.9,5.9-13.5,8.5-4.5,2.7-9.1,5.4-13.7,8.2,5.5,3.7,10.9,7.4,16.3,11.2,5.4,3.8,10.7,7.7,15.8,11.9,1.1.9,1.6,2.1,1.5,3.5,0,1.4-.6,2.6-1.5,3.5-1.1,1-2.2,1.4-3.5,1.4-1.3,0-2.4-.5-3.5-1.4-4.8-3.8-9.6-7.5-14.5-10.9-4.9-3.4-9.9-6.9-15-10.3,0,3.1.1,6.3,0,9.5s-.1,6.3-.3,9.5c0,1.6-.6,2.8-1.7,3.6-1,.8-2.2,1.2-3.4,1.2s-2.3-.4-3.3-1.2c-1-.8-1.4-2-1.4-3.6.2-4.4.2-8.9.2-13.3,0-4.5-.2-8.9-.4-13.5Z"/>
    <path class="cls-1" d="M157.3,186.1c-.4-.6-.7-1.3-1-2-.3-.7-.6-1.3-1-2-.5-1.1-1.3-2.1-2.3-3.2-.5-.5-1-1.1-1.5-1.7-.5-.6-.9-1.1-1.1-1.7-.2-.5,0-.9.5-1.2.5-.3,1.1-.5,1.7-.6.7,0,1.3,0,2,0,.7.1,1.1.5,1.3.9.2.6.6,1.2,1.2,1.7s1.1,1.1,1.6,1.6c.5.6,1,1.2,1.3,1.7.4.6.7,1.2,1.1,1.8.4.6.7,1.3,1,2,.3.7.7,1.3,1.1,2,.1.2.3.5.5.7.2.2.3.5.5.7.5-.7.8-1.3,1.1-1.9.3-.5.6-1,1-1.5.5-.7,1-1.5,1.5-2.2.5-.7.9-1.5,1.3-2.2.4-.7.7-1.4.8-2.2.2-.7.5-1.5.8-2.2.2-.4.7-.7,1.4-.9.7-.1,1.4-.2,2,0,.7,0,1.2.3,1.6.6.4.3.5.7.3,1.1-.5.8-.8,1.6-1,2.5-.2.8-.5,1.6-1,2.4-.4.8-.9,1.6-1.4,2.4-.5.8-1.1,1.6-1.6,2.4-.3.5-.7,1.1-1,1.7-.3.6-.7,1.1-1.2,1.7-.4.5-1,1.1-1.6,1.5-.7.5-1.5.9-2.5,1.2-.9.3-1.7.3-2.5,0-.7-.2-1.3-.5-1.7-1-.6-.7-1.1-1.4-1.6-2.2-.5-.7-1-1.4-1.5-2.2Z"/>
  </g>
</svg>