<?xml version="1.0" encoding="UTF-8"?>
<svg id="Layer_1" data-name="Layer 1" xmlns="http://www.w3.org/2000/svg" version="1.1" viewBox="0 0 443 187.9">
  <defs>
    <style>
      .cls-1 {
        fill: #fff;
        stroke-width: 0px;
      }
    </style>
  </defs>
  <g>
    <path class="cls-1" d="M46.5,121.6c-.6,1-1.5,1.7-2.7,2.1s-2.3.2-3.3-.5c-2-1.4-3.8-2.9-5.6-4.5s-3.8-2.9-5.9-4.2c-1.9-1.2-3.8-2.2-5.6-3.2-1.9-1-3.7-2.1-5.4-3.4-2.1-1.6-4.1-3.3-5.9-5.2,0,3.6,0,7.2.1,10.8.1,3.6.4,7.2.7,10.8.1,1.2-.3,2.3-1.2,3.1-.9.8-2,1.2-3,1.2s-2.3-.4-3-1.2-1.2-1.9-1.3-3.1c-.4-5.2-.7-10.3-.8-15.4,0-5,0-10.1.3-15.2-.6-.8-1.2-1.6-1.7-2.4-.6-.8-1.1-1.7-1.6-2.6C.2,87.8,0,87,.1,86.2c0-.8.4-1.5.9-2.1s1-1,1.7-1.4,1.4-.5,2.2-.4c0-1.7.3-3.3.5-5s.4-3.4.7-5c.2-1.2.4-2.3.6-3.4s.3-2.3.5-3.4c0-.6.2-1.1.3-1.6,0-.5,0-1,.3-1.6,0-.3,0-.7.2-1.1,0-.9.1-1.9.1-2.8s0-1.8.1-2.8c0-1.2.2-2.4.4-3.7s.5-2.6.9-3.9c.4-1.3,1-2.4,1.7-3.5s1.7-1.9,2.9-2.5c1.2-.5,2.3-.8,3.5-.9,1.2,0,2.4,0,3.6.2s2.4.5,3.5.9c1.2.4,2.3.8,3.4,1.2,2.5.9,5,2,7.5,3.2s4.7,2.7,6.7,4.6c1.9,1.9,3.5,4.1,4.9,6.7,1.4,2.6,2,5.2,1.8,8,0,1.7-.5,3.1-1,4.4s-1.3,2.6-2.2,3.9c-2.3,3.3-4.8,6.4-7.5,9.3-2.7,3-5.5,5.7-8.6,8.1-1.4,1.2-3,2.3-4.7,3.5-1.7,1.2-3.5,2.1-5.4,2.9.7.6,1.3,1.2,2,1.7.7.6,1.3,1.1,2.1,1.5,1.9,1.2,3.8,2.4,5.7,3.4,1.9,1,3.8,2.2,5.6,3.4,1.7,1.2,3.4,2.5,5.1,3.9,1.7,1.4,3.3,2.7,5,3.9,1,.7,1.7,1.5,2,2.6s.2,2.2-.4,3.3h-.2ZM17.2,89.3c1.7-.9,3.3-1.9,4.7-3,1.4-1,2.8-2.2,4.2-3.4,1.4-1.3,2.9-2.7,4.2-4.1,1.4-1.4,2.7-2.9,4-4.3.5-.7,1-1.2,1.4-1.7s.8-1,1.2-1.5.7-1,1.1-1.5c.4-.5.8-1.2,1.2-1.9,0-.2.3-.4.4-.7,0-.2.3-.4.4-.7,0-2-.4-3.9-1.3-5.6-1.2-2.1-2.8-3.8-4.6-5.1s-3.9-2.4-6.1-3.3c-1.3-.6-2.6-1.1-3.9-1.5s-2.7-.8-4.1-1.2c-.4,0-.9-.3-1.6-.4-.4,0-.7.4-.9.7-.3.9-.4,1.6-.4,2s-.2.6-.3,1.2c0,.7-.1,1.3-.2,1.7v1.2c-.2,5-.7,9.9-1.6,14.8-.8,4.8-1.5,9.8-2,14.8l-.3,2.4c0,.8,0,1.6-.2,2.4h1.1c.8,0,1.4-.3,1.9-.5s1-.4,1.6-.7h0Z"/>
    <path class="cls-1" d="M61.6,121.3c-2.5-1.1-4.4-2.6-5.8-4.5-1.4-1.9-2.4-4-2.9-6.3s-.7-4.7-.5-7.2.7-4.9,1.5-7.2c.7-1.8,1.4-3.7,2.2-5.6.8-2,1.8-3.8,3-5.4,1.2-1.7,2.5-3.1,4.1-4.3,1.6-1.2,3.5-2,5.6-2.3,2.2-.4,4.5-.5,6.8-.4s4.5.3,6.8.7c1,0,2,.4,2.9.7.9.3,1.9.7,2.8,1,0-1.1.6-2,1.5-2.7s1.9-1.1,2.9-1.1,2.2.4,3,1.2c.8.8,1.2,1.8,1.4,3,.4,3.3.5,6.7.5,10s0,6.7-.3,10c-.2,3.3-.3,6.7-.4,10s0,6.7,0,10-.3,2.4-1.2,3.1c-.9.7-1.9,1-3,1s-2.1-.3-3-1-1.4-1.7-1.5-3.1c-4.1,1.7-8.5,2.7-13.1,3s-9-.6-13.2-2.4v-.2ZM62.4,97.8c-.4,1.3-.8,2.8-1.2,4.4-.4,1.7-.5,3.3-.3,4.8,0,1.5.6,2.9,1.4,4.2.8,1.3,2.1,2.2,3.9,2.7,3.7,1.2,7.4,1.5,11.1,1s7.2-1.8,10.5-3.9c.3-3.5.5-7,.7-10.3s.2-6.7.2-10.1c-1.2-.8-2.5-1.5-3.7-2.1-1.3-.6-2.7-1-4.2-1.2s-3.1-.4-4.8-.5c-1.7,0-3.3,0-4.9,0s-.5,0-1.1.3c-.6.2-1,.3-1,.4-.7.4-1.4.9-2,1.7-.9,1.3-1.8,2.7-2.5,4.2-.7,1.5-1.4,3-2,4.5h0Z"/>
    <path class="cls-1" d="M146.7,111.6c1.4,0,2.4.4,3.1,1.3.7.9,1.1,1.8,1.1,2.9s-.4,2.1-1.1,3c-.7.9-1.8,1.4-3.1,1.4h-9.1c-3,0-6.1,0-9.1,0h-9c-2.9,0-5.9,0-9-.5-1.1,0-2-.5-2.7-1.1s-1.1-1.3-1.4-2.1c-.2-.8-.2-1.6,0-2.5.3-.9.9-1.6,1.7-2.3,3-2.3,5.9-4.8,8.5-7.6,2.6-2.7,5.4-5.3,8.4-7.7,1.6-1.3,3.2-2.5,4.8-3.7,1.6-1.2,3.2-2.5,4.6-3.9s.6-.5.9-.8c.3-.2.6-.5,1-.8-4.6-.4-9.1-.6-13.6-.8-4.5,0-9.1-.7-13.6-1.7-1.4-.3-2.3-.9-2.7-2-.4-1-.5-2-.2-3s.9-1.9,1.8-2.6,2.1-.9,3.5-.7c2.8.6,5.7,1,8.5,1.2,2.9.3,5.7.5,8.6.6,2.9,0,5.8.3,8.7.4s5.8.4,8.6.9c.5,0,1,.3,1.5.7.5.4.8.9,1.1,1.4s.5,1,.6,1.6,0,1.1-.2,1.6c-.8,2-1.9,3.6-3.2,5s-2.8,2.8-4.3,4.1c-1.6,1.4-3.2,2.8-4.8,4.1-1.6,1.3-3.2,2.6-4.9,3.9-1.9,1.4-3.7,3-5.4,4.6-1.7,1.6-3.4,3.3-5,4.9h25.2v.3Z"/>
    <path class="cls-1" d="M158.8,123.2c.6-3.5,1.2-6.9,2-10.3s1.3-6.8,1.7-10.3c.3-3.4.3-6.7.2-10-.2-3.3,0-6.6.6-10,.1-1.2.8-2,2-2.6s2.3-.7,3.3-.4c1.2.4,2.1,1,2.6,2.1.5,1,.6,2.1.5,3.3-.3,1.7-.4,3.4-.4,5.1s0,3.5.2,5.2c0,3.3-.2,6.7-.7,10-.4,3.5-1,6.9-1.7,10.2-.7,3.3-1.3,6.7-1.9,10.1-.2,1.2-.9,2-2.1,2.6-1.2.6-2.2.7-3.3.4-1.2-.4-2.1-1-2.6-2.1-.5-1-.7-2.1-.4-3.3h0ZM164.1,73.3c-.5,0-1-.4-1.5-.7-.5-.3-.9-.7-1.1-1.2-.2-.6-.4-1.1-.5-1.5s-.2-.9-.2-1.5.1-1.3.3-2c.3-1.3.9-2.2,1.7-2.8.3-.4.7-.8,1.2-1,.8-.5,1.7-.8,2.7-.8s1.9.2,2.7.8c.4.3.7.6,1.1.9.4.3.7.7.9,1.2.1.4.3.8.5,1.2.2.4.2.9.2,1.3s-.1,1-.2,1.4c0,.4-.3.8-.5,1.2-.4.5-.7.9-.9,1.1s-.6.5-1.1.9c-.3.3-.7.5-1.3.7-1.5.9-2.8,1.2-3.9.9h0Z"/>
    <path class="cls-1" d="M184.5,152c1.6,1.5,3.4,2.6,5.5,3.2,2.1.6,4.2.8,6.3.6s4.1-.8,6-1.8,3.4-2.4,4.7-4.2c2.6-3.7,4.3-7.8,5-12.2.8-4.4,1.1-8.9.9-13.4-3.5.6-7,.7-10.7.4-3.7-.3-7.1-1.1-10.4-2.3-1.7-.7-3.2-1.4-4.7-2.3s-2.7-2.2-3.5-3.9c-1.5-2.8-2.2-5.9-2-9.3.1-3.3.7-6.4,1.7-9.5s2.1-6.1,3.3-9.2c.7-1.4,1.4-3,2.1-4.6s1.8-3.1,3-4.4c1.2-1.4,2.6-2.4,4.2-3.1,1.6-.7,3.3-1.2,5.1-1.3-.3-1-.3-2,0-2.9s.9-1.6,1.8-2.2c.9-.6,2-.7,3.3-.4,1.3.3,2.2.9,2.7,2,.3.7.6,1.3.8,2,.3.7.5,1.3.7,2,1.4,3.9,2.8,7.9,4,11.8,1.2,4,2.3,8,3.4,12,1.3,4.8,2.3,9.6,2.9,14.5.7,4.9.9,9.9.8,15,0,2.8-.3,5.7-.7,8.7s-1.1,5.8-2,8.6c-.9,2.7-2.2,5.4-3.7,7.9s-3.5,4.6-5.9,6.5c-2.2,1.7-4.7,3-7.4,3.7-2.7.8-5.5,1.1-8.2.9-2.8-.1-5.5-.8-8.1-1.8-2.6-1.1-5-2.6-7-4.6-1-.9-1.4-2-1.3-3.1.1-1.1.6-2.1,1.4-2.8.8-.8,1.7-1.2,2.8-1.4,1.1-.1,2.2.3,3.2,1.2v-.3ZM196.5,114.6c2.5.7,5.2,1.1,7.9,1.4s5.3,0,7.9-.5c-.4-3.7-1.1-7.2-1.9-10.6-.8-3.4-1.8-6.8-2.8-10.3-.6-2-1.2-4-1.8-6s-1.2-3.9-1.9-5.9c-.2,0-.5.2-.8.3-.3,0-.6,0-1,.2-2.2,0-3.8,1-5,2.9-.8,1.2-1.4,2.5-2,3.9-.1.4-.3.7-.4,1-.1.3-.3.7-.4,1-1.1,2.6-2,5.1-2.8,7.5s-1.2,4.8-1.4,7.1v2c0,.5.1.9.2,1.2.1.7.2,1,.3,1.2,0,0,.2.5.6,1.1.4.4.8.7,1.2.9.4.2.6.4.7.4.6.2,1.1.4,1.7.7s1.1.4,1.7.5Z"/>
    <path class="cls-1" d="M230.7,80.1c0-1.4.6-2.4,1.5-3.1s2-1,3-1,2,.3,2.9,1c.8.7,1.2,1.7,1.1,3.1v2.8c2.3-1.2,4.8-2.2,7.3-3,2.6-.8,5.1-1.4,7.7-1.6s5.1,0,7.5.6c2.4.6,4.6,1.8,6.7,3.5,1,.9,1.5,2,1.4,3-.1,1.1-.5,2-1.3,2.8s-1.7,1.2-2.9,1.4c-1.2.2-2.3-.2-3.4-1-.8-.7-1.7-1.1-2.7-1.4s-2-.4-3.1-.4-2.2.2-3.4.4c-1.1.2-2.2.5-3.2.8-3.8,1.2-7.4,2.9-10.7,4.9.1,3.5.4,7.1.7,10.6.3,3,.5,6,.8,9.2.2,3.1.8,6.1,1.8,9,.4,1.3.3,2.4-.3,3.3s-1.4,1.5-2.5,1.8c-1,.3-2.1.2-3.3-.2-1.1-.4-1.9-1.3-2.3-2.6-.6-1.7-1-3.4-1.2-5.1s-.4-3.5-.7-5.2c-.1-1.7-.3-3.3-.5-5s-.3-3.4-.5-5c-.4-3.9-.6-7.8-.7-11.7-.1-3.9,0-7.8.3-11.7v-.2Z"/>
    <path class="cls-1" d="M282.4,121.3c-2.5-1.1-4.4-2.6-5.8-4.5s-2.4-4-2.9-6.3-.7-4.7-.5-7.2.7-4.9,1.5-7.2c.7-1.8,1.4-3.7,2.2-5.6.8-2,1.8-3.8,3-5.4,1.2-1.7,2.5-3.1,4.1-4.3,1.6-1.2,3.5-2,5.6-2.3,2.2-.4,4.5-.5,6.8-.4s4.5.3,6.8.7c1,0,2,.4,2.9.7.9.3,1.9.7,2.8,1,0-1.1.6-2,1.5-2.7s1.9-1.1,2.9-1.1,2.2.4,3,1.2c.8.8,1.2,1.8,1.4,3,.4,3.3.5,6.7.5,10s-.1,6.7-.3,10c-.2,3.3-.3,6.7-.4,10s0,6.7,0,10-.3,2.4-1.2,3.1c-.9.7-1.9,1-3,1s-2.1-.3-3-1-1.4-1.7-1.5-3.1c-4.1,1.7-8.5,2.7-13.1,3s-9-.6-13.2-2.4v-.2ZM283.2,97.8c-.4,1.3-.8,2.8-1.2,4.4-.4,1.7-.5,3.3-.3,4.8.1,1.5.6,2.9,1.4,4.2.8,1.3,2.1,2.2,3.9,2.7,3.7,1.2,7.4,1.5,11.1,1s7.2-1.8,10.5-3.9c.3-3.5.5-7,.7-10.3s.2-6.7.2-10.1c-1.2-.8-2.5-1.5-3.7-2.1-1.3-.6-2.7-1-4.2-1.2s-3.1-.4-4.8-.5c-1.7,0-3.3,0-4.9,0s-.5,0-1.1.3c-.6.2-1,.3-1,.4-.7.4-1.4.9-2,1.7-.9,1.3-1.8,2.7-2.5,4.2s-1.4,3-2,4.5h-.1Z"/>
    <path class="cls-1" d="M329.3,113.8c0-3.1.2-6.3.7-9.4.5-3.8,1-7.7,1.5-11.4.5-3.8.7-7.6.7-11.6s.4-2.4,1.3-3.1,1.8-1.1,2.9-1.1,2.1.4,3,1.1,1.4,1.8,1.4,3.1c2.8-.2,5.5-.3,8-.3s5.4.9,7.4,2.5,3.5,3.7,4.6,6.4c.9,2.5,1.4,5,1.5,7.6s.3,5.2.3,7.8c0,3.7.2,7.4.3,11,.1,3.7.2,7.3.2,11s-.5,2.5-1.4,3.2c-.9.7-1.9,1-2.9,1s-2-.3-2.9-1-1.4-1.8-1.4-3.2c0-3.5,0-6.9-.2-10.2-.1-3.3-.2-6.7-.4-10.2-.1-1.9-.2-3.8-.2-5.8s-.1-3.8-.5-5.5c-.2-1-.4-1.9-.7-2.7-.2-.8-.6-1.5-1.2-2.2-.1-.3-.5-.5-.9-.8-.5-.2-.9-.3-1.2-.3-1.1,0-2.1,0-3,.2-.9,0-1.9.4-2.9.7-.4,0-.9.3-1.3.4s-.8.3-1.2.5c-.7,2.6-1.2,5.1-1.6,7.4-.3,2.4-.6,4.7-.9,7.1-.2,1.7-.3,3.5-.4,5.3,0,1.8-.1,3.5-.2,5.3-.1,1.7-.3,3.5-.7,5.2-.3,1.7-.9,3.4-1.7,5-.7,1.2-1.5,1.9-2.6,2.1s-2.1,0-3-.5-1.6-1.4-2.1-2.4c-.5-1.1-.4-2.2.2-3.5.7-1.3,1-2.7,1.1-4.2s.1-3,.2-4.4h.2Z"/>
    <path class="cls-1" d="M373.9,123.2c.6-3.5,1.2-6.9,2-10.3s1.3-6.8,1.7-10.3c.3-3.4.3-6.7.2-10-.2-3.3,0-6.6.6-10,.1-1.2.8-2,2-2.6s2.3-.7,3.3-.4c1.2.4,2.1,1,2.5,2.1.5,1,.6,2.1.5,3.3-.3,1.7-.4,3.4-.4,5.1s0,3.5.2,5.2c0,3.3-.2,6.7-.7,10-.4,3.5-1,6.9-1.7,10.2-.7,3.3-1.3,6.7-1.9,10.1-.2,1.2-.9,2-2.1,2.6-1.2.6-2.2.7-3.3.4-1.2-.4-2.1-1-2.6-2.1-.5-1-.7-2.1-.4-3.3h0ZM379.1,73.3c-.5,0-1-.4-1.5-.7-.5-.3-.9-.7-1.1-1.2-.2-.6-.4-1.1-.5-1.5s-.2-.9-.2-1.5.1-1.3.3-2c.3-1.3.9-2.2,1.7-2.8.3-.4.7-.8,1.2-1,.8-.5,1.7-.8,2.7-.8s1.9.2,2.7.8c.4.3.7.6,1.1.9.4.3.7.7.9,1.2.1.4.3.8.5,1.2.2.4.2.9.2,1.3s-.1,1-.2,1.4-.3.8-.5,1.2c-.4.5-.7.9-.9,1.1s-.6.5-1.1.9c-.3.3-.7.5-1.3.7-1.5.9-2.8,1.2-3.9.9h-.1Z"/>
  </g>
  <g>
    <path class="cls-1" d="M232.3,140.4h3.5l4,11.5c.1.4.3.9.5,1.5.2.6.3.9.3,1.1h0c0-.2.2-.6.3-1.1.2-.6.3-1,.4-1.4l4.1-11.5h3.4v16.9h-2.3v-14.3s-.1,0-.1,0c0,.1,0,.3-.1.7,0,.4-.2.7-.3.9l-4.6,12.7h-1.9l-4.5-12.7c0-.2-.2-.5-.3-.9s-.1-.6-.2-.7h-.1v3.2s0,11.2,0,11.2h-2.2v-16.9Z"/>
    <path class="cls-1" d="M253.1,140.4h2.3v16.9h-2.3v-16.9Z"/>
    <path class="cls-1" d="M259.7,140.4h2.1l8.9,11.8.6.8h0v-12.6h2.2v16.9h-2l-9-11.9-.6-.9h0v12.8h-2.2v-16.9Z"/>
    <path class="cls-1" d="M277.8,140.4h2.3v16.9h-2.3v-16.9Z"/>
    <path class="cls-1" d="M284.3,140.4h3.5l4,11.5c.1.4.3.9.5,1.5.2.6.3.9.3,1.1h0c0-.2.2-.6.3-1.1.2-.6.3-1,.4-1.4l4.1-11.5h3.4v16.9h-2.3v-14.3s-.1,0-.1,0c0,.1,0,.3-.1.7,0,.4-.2.7-.3.9l-4.6,12.7h-1.9l-4.5-12.7c0-.2-.2-.5-.3-.9s-.1-.6-.2-.7h-.1v3.2s0,11.2,0,11.2h-2.2v-16.9Z"/>
    <path class="cls-1" d="M309.6,140.4h3l6.6,16.9h-2.5l-1.7-4.5h-7.8l-1.6,4.5h-2.4l6.5-16.9ZM314.2,150.7l-2-5.3-1.1-3.1h-.1l-1.1,3-2,5.3h6.3Z"/>
    <path class="cls-1" d="M321.2,140.4h2.3v14.8h8.7v2h-11v-16.9Z"/>
    <path class="cls-1" d="M335.2,140.4h2.3v16.9h-2.3v-16.9Z"/>
    <path class="cls-1" d="M340.4,156.1l10.1-13.6h-9.5v-2h13.1v1.2l-10.2,13.6h10.4v2h-13.9v-1.2Z"/>
    <path class="cls-1" d="M361.6,140.4h3l6.6,16.9h-2.5l-1.7-4.5h-7.8l-1.6,4.5h-2.4l6.5-16.9ZM366.2,150.7l-2-5.3-1.1-3.1h-.1l-1.1,3-2,5.3h6.3Z"/>
    <path class="cls-1" d="M373.2,140.4h3.5l4,11.5c.1.4.3.9.5,1.5.2.6.3.9.3,1.1h0c0-.2.2-.6.3-1.1.2-.6.3-1,.4-1.4l4.1-11.5h3.4v16.9h-2.3v-14.3s-.1,0-.1,0c0,.1,0,.3-.1.7,0,.4-.2.7-.3.9l-4.6,12.7h-1.9l-4.5-12.7c0-.2-.2-.5-.3-.9s-.1-.6-.2-.7h-.1v3.2s0,11.2,0,11.2h-2.2v-16.9Z"/>
  </g>
</svg>