<?xml version="1.0" encoding="utf-8"?>
<!-- Generator: Adobe Illustrator 20.1.0, SVG Export Plug-In . SVG Version: 6.00 Build 0)  -->
<svg version="1.1" id="Layer_1" xmlns="http://www.w3.org/2000/svg" xmlns:xlink="http://www.w3.org/1999/xlink" x="0px" y="0px"
	 viewBox="0 0 301 65" style="enable-background:new 0 0 301 65;" xml:space="preserve">
<style type="text/css">
	.st0{fill:#EC1F39;}
</style>
<g>
	<path class="st0" d="M78.5,36c0,0.1-0.8,5.6-4.6,5.6H68V34h7v-4.5h-6.9v-6h7.3c0.9,0.1,1.6,0.5,2.1,1c0.8,0.8,1,1.9,1.1,2.5
		l0.1,0.7h3.9v-9.2h-7.3H58.9v5h2.9v18.1h-2.9v5h23.7V35.3h-3.9L78.5,36z"/>
	<path class="st0" d="M133.3,36c0,0.1-0.8,5.6-4.6,5.6h-5.9V34h6.9v-4.5h-6.9v-6h7.3c0.9,0.1,1.6,0.5,2.1,1c0.8,0.8,1,1.9,1.1,2.5
		l0.1,0.7h3.9v-9.2H130h-16.4v5h2.9v18.1h-2.9v5h23.7V35.3h-3.9L133.3,36z"/>
	<path class="st0" d="M104.9,34.1c-0.1,0.7-0.7,7.2-3.9,7.4h-4.8V23.4h2.7v-5H86v5h3.1v18.1h-2.2v5h22.4V33.4h-4.4V34.1z"/>
	<path class="st0" d="M156.4,35.6h4.2v1.2c-0.2,3.3-4,3.7-5.6,3.7h-0.1c-1.5,0-3.7-0.7-5.4-2.4c-1.4-1.4-2.2-3.3-2.2-5.4
		c0.1-4.1,2.5-8.3,7.4-8.3h0.2c1.5,0,3.6,0.6,4.7,1.7c0.2,0.2,0.4,0.5,0.6,0.8l0.2,0.4h5.5l0.1-8.4h-5.8v0.5
		c-1.7-0.7-3.3-1.1-4.9-1.1c-0.2,0-0.3,0-0.5,0c-0.1,0-0.1,0-0.2,0c-3.6,0-6.9,1.4-9.3,4c-2.4,2.6-3.7,6.2-3.7,10
		c0,4,1.5,7.7,4.2,10.4c2.3,2.3,5.2,3.6,8,3.7c2.9,0.1,4.8-0.2,6.8-1v1h6v-11h2.5V31h-12.7V35.6z"/>
	<path class="st0" d="M26.5,30.4h5.1v-0.8c0-2.6,0.4-4.4,1.4-5.4c0.6-0.7,1.3-0.7,1.4-0.7h1.8v18.1h-4.3v5h18.4v-4.9h-5.5V23.5h0.4
		H46h0.2c0.9,0,1.6,0.3,2.1,0.8c1,1,1.5,2.7,1.6,5.3v0.7h4.8V18.4H26.5V30.4z"/>
	<path class="st0" d="M195.3,35.2c4-1.5,6-4.2,6-8.3c0-2.3-0.6-4.1-2-5.4c-2.9-2.9-8.3-3.1-14.5-3.1h-14v5h3.8v18.1h-3.8v5h14.6v-5
		h-3.2v-4.9h6.7l5,9.9h7.7v-5h-2.9L195.3,35.2z M182.3,23.4h1c0.6,0,1.4,0,2.2,0h0.6c2.3,0,2.8,0,2.8,0h0.3c1.6,0.1,3.6,0.3,4.7,1.4
		c0.6,0.6,0.9,1.4,0.9,2.5c0,2.9-1.6,4.1-5.4,4.1c-0.6,0-1.1,0-1.6,0h-0.2c-0.3,0-0.5,0-0.7,0c-2.5,0-3.9,0-4.7,0L182.3,23.4z"/>
	<path class="st0" d="M225.9,23.4h3.4v-5h-17.7v5h3.7l-8,18.2h-2v5h13.3v-5h-4l1.4-2.9h9.3l1.3,2.9h-3.8v5h13.3v-5h-2.4L225.9,23.4z
		 M223.9,35.3h-6.5l3.3-8.1L223.9,35.3z"/>
	<polygon class="st0" points="274.5,22.8 274.5,18.4 262.1,18.4 256.2,30.5 251.5,18.4 238.7,18.4 238.7,22.9 241.8,22.9 
		241.8,41.6 239.3,41.6 239.3,46.5 251.8,46.5 251.8,41.6 249.4,41.6 249.4,30.7 255.9,45.7 263.9,30.2 263.9,41.6 261.6,41.6 
		261.6,46.5 274.1,46.5 274.1,41.6 271.5,41.6 271.5,22.8 	"/>
</g>
</svg>
