<?xml version="1.0" encoding="utf-8"?>
<!-- Generator: Adobe Illustrator 21.0.2, SVG Export Plug-In . SVG Version: 6.00 Build 0)  -->
<svg version="1.1" id="Isolation_Mode" xmlns="http://www.w3.org/2000/svg" xmlns:xlink="http://www.w3.org/1999/xlink" x="0px"
	 y="0px" viewBox="0 0 518.7 81" style="enable-background:new 0 0 518.7 81;" xml:space="preserve">
<style type="text/css">
	.st0{fill:#120836;stroke:#120836;stroke-width:2;stroke-miterlimit:10;}
</style>
<g>
	<path class="st0" d="M114.6,49.4c0,0.1-1.5,11.2-9.3,11.2H93.6V45.3h13.9v-9.1H93.6v-12h14.6c1.8,0.3,3.2,0.9,4.3,2
		c1.6,1.6,2,3.8,2.1,4.9l0.1,1.4h7.8V14.1h-14.7H74.9v10.1h5.7v36.4h-5.7v10h47.6V48.1h-7.8L114.6,49.4z"/>
	<path class="st0" d="M224.4,49.4c0,0.1-1.5,11.2-9.3,11.2h-11.7V45.3h13.9v-9.1h-13.9v-12H218c1.8,0.3,3.2,0.9,4.3,2
		c1.6,1.6,2,3.8,2.1,4.9l0.1,1.4h7.8V14.1h-14.7h-32.9v10.1h5.7v36.4h-5.7v10h47.6V48h-7.8L224.4,49.4z"/>
	<path class="st0" d="M167.4,45.5c-0.1,1.5-1.4,14.5-7.8,14.9h-9.7V24.1h5.4V14h-25.7v10.1h6.2v36.4h-4.5v10.1h45V44.2h-8.8
		L167.4,45.5z"/>
	<path class="st0" d="M270.9,48.6h8.4V51c-0.5,6.7-8,7.4-11.2,7.4H268c-3,0-7.5-1.5-10.8-4.8c-2.8-2.8-4.3-6.6-4.4-10.9
		c0.2-8.2,4.9-16.6,14.9-16.6h0.4c3,0.1,7.2,1.2,9.5,3.4c0.5,0.5,0.9,1,1.2,1.6l0.4,0.8h11l0.2-16.8h-11.7v1
		c-3.3-1.5-6.6-2.2-9.8-2.2c-0.4,0-0.7,0-1,0c-0.2,0-0.3,0-0.3,0c-7.3,0-13.9,2.9-18.7,8.1s-7.4,12.3-7.4,20.1c0,8,3,15.5,8.5,20.9
		c4.5,4.5,10.4,7.2,16,7.4c5.9,0.2,9.6-0.4,13.5-1.9v2h12.1v-22h5v-9.1h-25.4L270.9,48.6z"/>
	<path class="st0" d="M10.2,38.1h10.2v-1.5c-0.1-5.3,0.9-8.9,2.8-10.9c1.3-1.3,2.6-1.4,2.9-1.4h3.7v36.3h-8.7v10.1h36.8v-9.9H46.8
		V24.4h0.9h1.7h0.4c1.7,0,3.1,0.5,4.3,1.7c2,2,3,5.5,3.2,10.7v1.5H67V14.4H10.2V38.1z"/>
	<path class="st0" d="M348.9,47.8c8-3.1,11.9-8.5,12-16.6c0-4.5-1.3-8.2-3.9-10.9c-5.8-5.8-16.6-6.3-29.2-6.3h-28v10.1h7.6v36.3
		h-7.5v10h29.2l0.1-10.1h-6.4v-9.9h13.4l10,19.9h15.5v-10l-5.8-0.1L348.9,47.8z M322.8,24.2h1.9c1.3,0,2.8,0,4.4,0h1.2
		c4.6,0,5.5,0,5.7,0h0.6c3.2,0.1,7.2,0.5,9.5,2.8c1.2,1.2,1.8,2.9,1.8,5c0,5.8-3.2,8.3-10.8,8.3c-1.2,0-2.3,0-3.2,0h-0.3
		c-0.5,0-1,0-1.4,0c-4.9,0-7.9,0-9.4,0L322.8,24.2z"/>
	<path class="st0" d="M410.3,24.2h6.8v-10h-35.5v10l7.5-0.1l-16,36.4h-4v10h26.7v-10h-8.1l2.8-5.8h18.6l2.7,5.9h-7.6v10.1h26.7V60.6
		h-4.8L410.3,24.2z M406.3,48.1h-13.1l6.5-16.2L406.3,48.1z"/>
	<polygon class="st0" points="507.9,23 507.9,14.2 483,14.2 471.1,38.4 461.6,14.2 436,14.2 436,23.1 442.2,23.1 442.2,60.6 
		437.3,60.6 437.3,70.6 462.2,70.6 462.2,60.6 457.5,60.6 457.5,38.8 470.6,68.9 486.5,37.8 486.5,60.6 482.1,60.6 482.1,70.5 
		507,70.5 507,60.6 501.8,60.6 501.8,23 	"/>
</g>
</svg>
