<?xml version="1.0" encoding="utf-8"?>
<!-- Generator: Adobe Illustrator 21.0.2, SVG Export Plug-In . SVG Version: 6.00 Build 0)  -->
<svg id="tg-logo" version="1.1"  xmlns="http://www.w3.org/2000/svg" xmlns:xlink="http://www.w3.org/1999/xlink" x="0px" y="0px"
	 viewBox="0 0 36.3 17.7" style="enable-background:new 0 0 36.3 17.7;" xml:space="preserve">
<style type="text/css">
	.st0{fill:#FFFFFF;}
</style>
<g id="XMLID_250_">
	<path id="XMLID_252_" class="st0" d="M0.1,7.6h3.1l0-0.5c0-1.6,0.3-2.7,0.9-3.4C4.5,3.4,4.9,3.4,5,3.4l0.5,0l0,11.2l-2.7,0v3.1
		h11.3v-3.1l-3.4,0l0-11.2l0.3,0l0.5,0l0.1,0c0.5,0,1,0.2,1.3,0.5c0.6,0.6,0.9,1.7,1,3.3l0,0.4l3,0l0-7.4H0.1L0.1,7.6z"/>
	<path id="XMLID_251_" class="st0" d="M28.3,10.8l2.6,0l0,0.7c-0.2,2-2.5,2.3-3.5,2.3l0,0c-0.9,0-2.3-0.5-3.3-1.5
		c-0.9-0.9-1.3-2-1.4-3.4c0.1-2.5,1.5-5.1,4.6-5.1l0.1,0c0.9,0,2.2,0.4,2.9,1.1c0.2,0.2,0.3,0.3,0.4,0.5l0.1,0.3l3.4,0l0.1-5.2
		l-3.6,0l0,0.3c-1-0.5-2-0.7-3-0.7c-0.1,0-0.2,0-0.3,0c-0.1,0-0.1,0-0.1,0c-2.2,0-4.3,0.9-5.8,2.5c-1.5,1.6-2.3,3.8-2.3,6.2
		c0,2.5,0.9,4.8,2.6,6.4c1.4,1.4,3.2,2.2,4.9,2.3c1.8,0.1,3-0.1,4.2-0.6v0.6l3.7,0l0-6.8h1.5V8l-7.8,0L28.3,10.8z"/>
</g>
</svg>
