<?xml version="1.0" encoding="utf-8"?>
<!-- Generator: Adobe Illustrator 21.0.2, SVG Export Plug-In . SVG Version: 6.00 Build 0)  -->
<svg version="1.1" id="tg-logo" xmlns="http://www.w3.org/2000/svg" xmlns:xlink="http://www.w3.org/1999/xlink" x="0px" y="0px"
	 viewBox="0 0 36.3 17.7" style="enable-background:new 0 0 36.3 17.7;" xml:space="preserve">
<style type="text/css">
	.st0{fill:#E31739;}
</style>
<g id="XMLID_250_">
	<path id="XMLID_252_" class="st0" d="M0.1,7.6h3.1V7.1c0-1.6,0.3-2.7,0.9-3.4C4.5,3.4,4.9,3.4,5,3.4h0.5v11.2H2.8v3.1h11.3v-3.1
		h-3.4V3.4H11h0.5h0.1c0.5,0,1,0.2,1.3,0.5c0.6,0.6,0.9,1.7,1,3.3v0.4h3V0.2H0.1V7.6z"/>
	<path id="XMLID_251_" class="st0" d="M28.3,10.8h2.6v0.7c-0.2,2-2.5,2.3-3.5,2.3l0,0c-0.9,0-2.3-0.5-3.3-1.5
		c-0.9-0.9-1.3-2-1.4-3.4c0.1-2.5,1.5-5.1,4.6-5.1h0.1c0.9,0,2.2,0.4,2.9,1.1c0.2,0.2,0.3,0.3,0.4,0.5l0.1,0.3h3.4l0.1-5.2h-3.6v0.3
		c-1-0.5-2-0.7-3-0.7c-0.1,0-0.2,0-0.3,0c-0.1,0-0.1,0-0.1,0c-2.2,0-4.3,0.9-5.8,2.5s-2.3,3.8-2.3,6.2c0,2.5,0.9,4.8,2.6,6.4
		c1.4,1.4,3.2,2.2,4.9,2.3c1.8,0.1,3-0.1,4.2-0.6v0.6h3.7v-6.8h1.5V8h-7.8L28.3,10.8z"/>
</g>
</svg>
