<?xml version="1.0" encoding="utf-8"?>
<!-- Generator: Adobe Illustrator 21.0.2, SVG Export Plug-In . SVG Version: 6.00 Build 0)  -->
<svg version="1.1" id="Layer_1" xmlns="http://www.w3.org/2000/svg" xmlns:xlink="http://www.w3.org/1999/xlink" x="0px" y="0px"
	 viewBox="0 0 243.9 64.5" style="enable-background:new 0 0 243.9 64.5;" xml:space="preserve">
<style type="text/css">
	.st0{fill:#FFFFFF;}
</style>
<g id="XMLID_204_">
	<g id="XMLID_249_">
		<path id="XMLID_255_" class="st0" d="M61,6.3V62H5.4V6.3H61 M64,3.3H2.4V65H64V3.3L64,3.3z"/>
		<g id="XMLID_250_">
			<path id="XMLID_252_" class="st0" d="M15.2,32.8h3.1l0-0.5c0-1.6,0.3-2.7,0.9-3.4c0.4-0.4,0.8-0.4,0.9-0.4l0.5,0l0,11.2l-2.7,0
				v3.1h11.3v-3.1l-3.4,0l0-11.2l0.3,0l0.5,0l0.1,0c0.5,0,1,0.2,1.3,0.5c0.6,0.6,0.9,1.7,1,3.3l0,0.4l3,0l0-7.4H15.2L15.2,32.8z"/>
			<path id="XMLID_251_" class="st0" d="M43.4,36.1l2.6,0l0,0.7c-0.2,2-2.5,2.3-3.5,2.3l0,0c-0.9,0-2.3-0.5-3.3-1.5
				c-0.9-0.9-1.3-2-1.4-3.4c0.1-2.5,1.5-5.1,4.6-5.1l0.1,0c0.9,0,2.2,0.4,2.9,1.1c0.2,0.2,0.3,0.3,0.4,0.5l0.1,0.3l3.4,0l0.1-5.2
				l-3.6,0l0,0.3c-1-0.5-2-0.7-3-0.7c-0.1,0-0.2,0-0.3,0c-0.1,0-0.1,0-0.1,0c-2.2,0-4.3,0.9-5.8,2.5c-1.5,1.6-2.3,3.8-2.3,6.2
				c0,2.5,0.9,4.8,2.6,6.4c1.4,1.4,3.2,2.2,4.9,2.3c1.8,0.1,3-0.1,4.2-0.6v0.6l3.7,0l0-6.8h1.5v-2.8l-7.8,0L43.4,36.1z"/>
		</g>
	</g>
	<g id="XMLID_205_">
		<path id="XMLID_247_" class="st0" d="M89.6,19.4h-4.9v13.1H80V19.4h-5v-4.1h14.6V19.4z"/>
		<path id="XMLID_245_" class="st0" d="M103.6,28.4v4.1H91.3V15.3h12v4.1h-7.3v2.4h6.2v3.8h-6.2v2.7H103.6z"/>
		<path id="XMLID_243_" class="st0" d="M105.8,32.5V15.3h4.7v13.1h7.8v4.1H105.8z"/>
		<path id="XMLID_241_" class="st0" d="M132.3,28.4v4.1H120V15.3h12v4.1h-7.3v2.4h6.2v3.8h-6.2v2.7H132.3z"/>
		<path id="XMLID_239_" class="st0" d="M144.9,31.1c-1.1,1-2.3,1.5-3.8,1.5c-1.1,0-2.1-0.2-3-0.7c-1-0.5-1.8-1.1-2.5-1.9
			c-0.7-0.8-1.3-1.7-1.7-2.8c-0.4-1.1-0.6-2.2-0.6-3.4c0-1.2,0.2-2.3,0.6-3.4c0.4-1,1-1.9,1.8-2.7c0.8-0.8,1.6-1.4,2.7-1.8
			c1-0.4,2.1-0.7,3.3-0.7c0.7,0,1.4,0.1,2.1,0.3c0.7,0.2,1.3,0.4,1.8,0.8c0.6,0.3,1.1,0.7,1.5,1.2c0.4,0.5,0.8,1,1.1,1.6l-3.5,2.7
			c-0.3-0.7-0.7-1.2-1.3-1.6c-0.6-0.4-1.2-0.6-1.9-0.6c-0.5,0-0.9,0.1-1.3,0.3c-0.4,0.2-0.8,0.5-1.1,0.9c-0.3,0.4-0.5,0.9-0.7,1.4
			c-0.2,0.6-0.3,1.2-0.3,1.8c0,0.7,0.1,1.3,0.3,1.8c0.2,0.5,0.4,1,0.7,1.4c0.3,0.4,0.7,0.7,1.1,0.9c0.4,0.2,0.9,0.3,1.4,0.3
			c0.6,0,1.1-0.1,1.7-0.4c0.5-0.3,1-0.7,1.5-1.3h-3v-3.4h7.1v9.1h-3.9V31.1z"/>
		<path id="XMLID_236_" class="st0" d="M151.1,32.5V15.3h7.9c0.8,0,1.6,0.2,2.3,0.5c0.7,0.3,1.3,0.8,1.8,1.4
			c0.5,0.6,0.9,1.2,1.2,1.9c0.3,0.7,0.4,1.4,0.4,2.2c0,1-0.2,1.9-0.7,2.8c-0.4,0.9-1,1.6-1.8,2.1l3.9,6.3h-5.3l-3.3-5.3h-1.8v5.3
			H151.1z M155.8,23.1h3c0.3,0,0.6-0.2,0.8-0.5c0.2-0.3,0.4-0.8,0.4-1.4c0-0.6-0.1-1.1-0.4-1.4c-0.3-0.3-0.6-0.5-0.9-0.5h-2.9V23.1z
			"/>
		<path id="XMLID_233_" class="st0" d="M166.1,32.5l6.4-17.2h3.8l6.4,17.2h-5l-1-3.4h-4.6l-1,3.4H166.1z M174.4,20.2l-1.6,5.8h3.1
			L174.4,20.2z"/>
		<path id="XMLID_231_" class="st0" d="M197,32.5v-9.1l-2.9,6.4h-2.5l-2.9-6.4v9.1H184V15.3h5.2l3.7,8.1l3.7-8.1h5.1v17.2H197z"/>
		<path id="XMLID_229_" class="st0" d="M89.2,54v-9.1l-2.9,6.4h-2.5L81,44.9V54h-4.7V36.8h5.2l3.7,8.1l3.7-8.1H94V54H89.2z"/>
		<path id="XMLID_227_" class="st0" d="M109.2,49.8V54H96.9V36.8h12v4.1h-7.3v2.4h6.2v3.8h-6.2v2.7H109.2z"/>
		<path id="XMLID_224_" class="st0" d="M111.4,54V36.8h6.6c1.4,0,2.7,0.2,3.8,0.7c1.1,0.5,2,1.1,2.7,1.8c0.7,0.8,1.3,1.7,1.6,2.7
			c0.4,1,0.6,2.2,0.6,3.3c0,1.3-0.2,2.5-0.6,3.5c-0.4,1.1-1,2-1.8,2.7c-0.8,0.8-1.7,1.3-2.7,1.7c-1.1,0.4-2.3,0.6-3.6,0.6H111.4z
			 M121.8,45.3c0-0.7-0.1-1.3-0.3-1.8c-0.2-0.5-0.4-1-0.8-1.4c-0.3-0.4-0.7-0.7-1.2-0.9s-1-0.3-1.6-0.3h-1.9v9h1.9
			c0.6,0,1.2-0.1,1.6-0.3s0.9-0.5,1.2-0.9c0.3-0.4,0.6-0.9,0.8-1.4C121.8,46.6,121.8,46,121.8,45.3z"/>
		<path id="XMLID_222_" class="st0" d="M128.7,54V36.8h4.7V54H128.7z"/>
		<path id="XMLID_219_" class="st0" d="M134.7,54l6.4-17.2h3.8l6.4,17.2h-5l-1-3.4h-4.6l-1,3.4H134.7z M143,41.7l-1.6,5.8h3.1
			L143,41.7z"/>
		<path id="XMLID_217_" class="st0" d="M168,52.5c-1.1,1-2.3,1.5-3.8,1.5c-1.1,0-2.1-0.2-3-0.7c-1-0.5-1.8-1.1-2.5-1.9
			c-0.7-0.8-1.3-1.7-1.7-2.8c-0.4-1.1-0.6-2.2-0.6-3.4c0-1.2,0.2-2.3,0.6-3.4c0.4-1,1-1.9,1.8-2.7c0.8-0.8,1.6-1.4,2.7-1.8
			c1-0.4,2.1-0.7,3.3-0.7c0.7,0,1.4,0.1,2.1,0.3c0.7,0.2,1.3,0.4,1.8,0.8c0.6,0.3,1.1,0.7,1.5,1.2c0.4,0.5,0.8,1,1.1,1.6l-3.5,2.7
			c-0.3-0.7-0.7-1.2-1.3-1.6c-0.6-0.4-1.2-0.6-1.9-0.6c-0.5,0-0.9,0.1-1.3,0.3c-0.4,0.2-0.8,0.5-1.1,0.9c-0.3,0.4-0.5,0.9-0.7,1.4
			c-0.2,0.6-0.3,1.2-0.3,1.8c0,0.7,0.1,1.3,0.3,1.8c0.2,0.5,0.4,1,0.7,1.4c0.3,0.4,0.7,0.7,1.1,0.9c0.4,0.2,0.9,0.3,1.4,0.3
			c0.6,0,1.1-0.1,1.7-0.4c0.5-0.3,1-0.7,1.5-1.3h-3v-3.4h7.1V54H168V52.5z"/>
		<path id="XMLID_214_" class="st0" d="M174.2,54V36.8h7.9c0.8,0,1.6,0.2,2.3,0.5c0.7,0.3,1.3,0.8,1.8,1.4c0.5,0.6,0.9,1.2,1.2,1.9
			c0.3,0.7,0.4,1.4,0.4,2.2c0,1-0.2,1.9-0.7,2.8c-0.4,0.9-1,1.6-1.8,2.1l3.9,6.3H184l-3.3-5.3H179V54H174.2z M179,44.6h3
			c0.3,0,0.6-0.2,0.8-0.5c0.2-0.3,0.4-0.8,0.4-1.4c0-0.6-0.1-1.1-0.4-1.4c-0.3-0.3-0.6-0.5-0.9-0.5H179V44.6z"/>
		<path id="XMLID_212_" class="st0" d="M198.1,49.9c0.5,0,1-0.1,1.4-0.4c0.4-0.2,0.7-0.6,0.9-1c0.2-0.4,0.4-0.9,0.5-1.4
			c0.1-0.5,0.2-1.1,0.2-1.6v-8.8h4.7v8.8c0,1.2-0.2,2.3-0.5,3.4c-0.3,1-0.8,1.9-1.4,2.7c-0.6,0.8-1.5,1.4-2.4,1.8
			c-1,0.4-2.1,0.7-3.4,0.7c-1.4,0-2.5-0.2-3.5-0.7c-1-0.5-1.8-1.1-2.4-1.9c-0.6-0.8-1.1-1.7-1.4-2.7c-0.3-1-0.4-2.1-0.4-3.3v-8.8
			h4.7v8.8c0,0.6,0.1,1.1,0.2,1.6c0.1,0.5,0.3,1,0.5,1.4c0.2,0.4,0.6,0.7,0.9,0.9C197.1,49.8,197.5,49.9,198.1,49.9z"/>
		<path id="XMLID_209_" class="st0" d="M208.5,54V36.8h7.4c0.8,0,1.6,0.2,2.3,0.5c0.7,0.3,1.3,0.8,1.8,1.4c0.5,0.6,0.9,1.2,1.2,1.9
			c0.3,0.7,0.4,1.4,0.4,2.2c0,0.8-0.1,1.5-0.4,2.2c-0.3,0.7-0.7,1.4-1.1,1.9c-0.5,0.6-1.1,1-1.8,1.3c-0.7,0.3-1.5,0.5-2.3,0.5h-2.8
			V54H208.5z M213.3,44.6h2.5c0.3,0,0.6-0.1,0.8-0.4c0.2-0.3,0.4-0.7,0.4-1.4c0-0.7-0.1-1.2-0.4-1.5c-0.3-0.3-0.6-0.4-0.9-0.4h-2.4
			V44.6z"/>
		<path id="XMLID_206_" class="st0" d="M220.5,54l6.4-17.2h3.8l6.4,17.2h-5l-1-3.4h-4.6l-1,3.4H220.5z M228.9,41.7l-1.6,5.8h3.1
			L228.9,41.7z"/>
	</g>
</g>
</svg>
