<?xml version="1.0" encoding="utf-8"?>
<!-- Generator: Adobe Illustrator 20.1.0, SVG Export Plug-In . SVG Version: 6.00 Build 0)  -->
<svg version="1.1" id="Layer_1" xmlns="http://www.w3.org/2000/svg" xmlns:xlink="http://www.w3.org/1999/xlink" x="0px" y="0px"
	 viewBox="0 0 23.5 17.2" style="enable-background:new 0 0 23.5 17.2;" xml:space="preserve">
<style type="text/css">
	.st0{fill:#ED2139;}
</style>
<path class="st0" d="M10.8,8.1c-1.1,2.3-1.9,3.9-3.4,6.8c-1.1-1.9-1.8-3.1-2.4-4.2c-1.4,0.6-2.4,1-3.5,1.4C1.2,12,1,11.7,0.7,11.5
	C1.8,10.1,2.8,8.6,4,7c1.2,1,2.2,1.8,3.2,2.7c1-2.2,1.9-4.1,3.3-7.1c1.6,2.9,2.8,5,4.2,7.5C16,6.6,17,3.7,18,0.7
	c0.4-0.1,0.7-0.2,1.1-0.3c1.2,2.3,2.4,4.6,3.5,6.9c-0.3,0.3-0.6,0.6-0.9,0.8c-1-0.7-1.9-1.4-3-2.2c-1.1,3.2-2.2,6.3-3.7,10.6
	C13.4,13.2,12.2,10.9,10.8,8.1z"/>
</svg>
