<?xml version="1.0" encoding="utf-8"?>
<!-- Generator: Adobe Illustrator 24.1.2, SVG Export Plug-In . SVG Version: 6.00 Build 0)  -->
<svg version="1.1" id="Calque_1" xmlns="http://www.w3.org/2000/svg" xmlns:xlink="http://www.w3.org/1999/xlink" x="0px" y="0px"
	 viewBox="0 0 640.5 164.3" style="enable-background:new 0 0 640.5 164.3;" xml:space="preserve">
<style type="text/css">
	.st0{fill:#00AEEF;}
</style>
<g>
	<g>
		<path d="M421.8,98.7h-20.9v24.1h-8.5V61.5h29.4c12.1,0,19.3,8.9,19.3,18.6C441.1,89.7,433.9,98.7,421.8,98.7z M421.1,68.5h-20.2
			v23.3h20.2c7,0,11.5-4.9,11.5-11.7S427.3,68.5,421.1,68.5z"/>
		<path d="M469.1,123.8c-17.3,0-29.7-14.3-29.7-31.6s12.4-31.7,29.7-31.7s29.7,14.4,29.7,31.7S486.4,123.8,469.1,123.8z M469.1,67.9
			c-12.9,0-21.3,10.4-21.3,24.3c0,13.9,8.5,24.2,21.3,24.2c12.9,0,21.3-10.3,21.3-24.2C490.4,78.3,482,67.9,469.1,67.9z"/>
		<path d="M522.8,123.8c-8.1,0-16.7-1.7-24.8-5l1.8-6.5c7.5,2.6,15.7,4.3,22.8,4.3c9.9,0,15.6-3.9,15.6-9.3c0-4.9-2.9-7.4-16.9-12.5
			c-16.1-6-21.3-10.1-21.3-19.6c0-10,8.2-14.6,23.3-14.6c6.3,0,15.6,1.2,21.5,3.1l-1.6,6.7c-6.2-1.6-13.4-2.6-19.8-2.6
			c-10.9,0-15.1,1.7-15.1,7.4c0,5.9,4,7.8,18.5,13.5c15.8,6.3,19.7,9.8,19.7,18.4C546.7,116.9,537.4,123.8,522.8,123.8z"/>
		<path d="M591,122.8l-6.1-15.6h-27.4l-6.2,15.6H543l24.7-61.3h7.1l24.7,61.3H591z M571.3,70.7l-11.4,30h22.7L571.3,70.7z"/>
		<path d="M617.1,98.1v24.7h-8.5V98.1l-23.5-36.6h8.7l19,29.1l18.9-29.1h8.7L617.1,98.1z"/>
	</g>
	<rect x="304.3" class="st0" width="88" height="122.9"/>
	<g>
		<path d="M0,122.8V61.5h8.5v54h31.3v7.3H0z"/>
		<path d="M85.9,122.8l-6.1-15.6H52.4l-6.2,15.6h-8.4l24.7-61.3h7.1l24.7,61.3H85.9z M66.1,70.7l-11.4,30h22.7L66.1,70.7z"/>
	</g>
	<g>
		<path d="M153.2,122.8l-18.3-24.9h-18.4v24.9H108V61.5h29.7c11.8,0,19.1,8.7,19.1,18.2c0,7.6-4.6,14.6-12.8,17l19.1,26H153.2z
			 M136.7,68.5h-20.2V91h20.2c7,0,11.6-4.5,11.6-11.3S143,68.5,136.7,68.5z"/>
		<path d="M188.5,123.8c-17.3,0-29.7-14.3-29.7-31.6s12.4-31.7,29.7-31.7s29.7,14.4,29.7,31.7S205.8,123.8,188.5,123.8z M188.5,67.9
			c-12.9,0-21.4,10.4-21.4,24.3c0,13.9,8.5,24.2,21.4,24.2c12.9,0,21.3-10.3,21.3-24.2C209.7,78.3,201.3,67.9,188.5,67.9z"/>
		<path d="M265.9,69.7c-4-1.1-9.1-1.7-13.5-1.7c-15.9,0-26,9.8-26,24.2c0,14.4,10.1,24.3,26,24.3c4,0,8.5-0.6,13.5-1.8l1.7,6.8
			c-4.9,1.5-10.3,2.4-15.7,2.4c-19.8,0-34-14.1-34-31.7c0-17.6,14.2-31.6,34-31.6c5.8,0,10.8,0.6,15.8,2.3L265.9,69.7z"/>
		<path d="M313.2,122.8V95.1h-31.9v27.7h-8.5V61.5h8.5v26.1h31.9V61.5h8.6v61.3H313.2z"/>
		<path d="M329.3,122.8V61.5h42.3v7.3h-33.8v18.7h31.7v7.3h-31.7v20.8h33.8v7.3H329.3z"/>
	</g>
	<g>
		<path d="M107.3,157.6v-24h2.2v22.1h12.6v1.9H107.3z"/>
		<path d="M141.2,157.6l-2.7-6.7h-11.8l-2.7,6.7h-2.2l9.9-24h1.6l10,24H141.2z M132.6,136.2l-5.1,12.9h10.3L132.6,136.2z"/>
		<path d="M155,157.6h-10.8v-24h9.6c5.2,0,7.7,2.4,7.7,6.1c0,2.2-1.3,4.4-3.8,5.3c3.1,1,4.5,3.2,4.5,5.9
			C162.3,154.4,159.7,157.6,155,157.6z M153.9,135.5h-7.6v8.8h7.4c3,0,5.6-1.3,5.6-4.4S157.1,135.5,153.9,135.5z M154.8,146.1h-8.5
			v9.6h8.5c3.1,0,5.3-1.7,5.3-4.8C160.1,148.1,158.4,146.1,154.8,146.1z"/>
		<path d="M173.9,158c-6.7,0-11.3-5.6-11.3-12.3c0-6.7,4.6-12.4,11.3-12.4c6.7,0,11.3,5.7,11.3,12.4
			C185.2,152.3,180.7,158,173.9,158z M173.9,135.1c-5.4,0-9.1,4.5-9.1,10.5c0,6,3.7,10.5,9.1,10.5s9.1-4.5,9.1-10.5
			C183.1,139.6,179.3,135.1,173.9,135.1z"/>
		<path d="M205.7,157.6l-7.7-10.4h-8.4v10.4h-2.2v-24h10.8c4.6,0,7.3,3.3,7.3,6.8c0,3-1.9,5.8-5.3,6.6l7.8,10.6H205.7z M198.4,135.5
			h-8.7v9.9h8.7c3.2,0,5.1-2,5.1-5S201.1,135.5,198.4,135.5z"/>
		<path d="M226.7,157.6l-2.7-6.7h-11.8l-2.7,6.7h-2.2l9.9-24h1.6l10,24H226.7z M218.1,136.2l-5.1,12.9h10.3L218.1,136.2z"/>
		<path d="M235.6,135.5v22.1h-2.2v-22.1h-8.2v-1.9h18.6v1.9H235.6z"/>
		<path d="M253.7,158c-6.7,0-11.3-5.6-11.3-12.3c0-6.7,4.6-12.4,11.3-12.4c6.7,0,11.3,5.7,11.3,12.4C265,152.3,260.4,158,253.7,158z
			 M253.7,135.1c-5.4,0-9.1,4.5-9.1,10.5c0,6,3.7,10.5,9.1,10.5s9.1-4.5,9.1-10.5C262.8,139.6,259.1,135.1,253.7,135.1z"/>
		<path d="M267.5,157.6v-24h2.2v24H267.5z"/>
		<path d="M291.9,157.6l-7.7-10.4h-8.4v10.4h-2.2v-24h10.8c4.6,0,7.3,3.3,7.3,6.8c0,3-1.9,5.8-5.3,6.6l7.8,10.6H291.9z M284.6,135.5
			h-8.7v9.9h8.7c3.2,0,5.1-2,5.1-5S287.3,135.5,284.6,135.5z"/>
		<path d="M295.6,157.6v-24h16v1.9h-13.8v8.7h12.9v1.9h-12.9v9.6h13.8v1.9H295.6z"/>
	</g>
	<g>
		<path d="M323.5,157.6h-4.8v-24h4.8c8.2,0,14.1,5.1,14.1,12S331.7,157.6,323.5,157.6z M323.8,135.5h-3v20.2h3
			c5.8,0,11.6-3.7,11.6-10.1S329.6,135.5,323.8,135.5z"/>
		<path d="M339.3,157.6v-24h16v1.9h-13.8v8.7h12.9v1.9h-12.9v9.6h13.8v1.9H339.3z"/>
		<path d="M376.4,157.6l-7.7-10.4h-8.4v10.4h-2.2v-24H369c4.6,0,7.3,3.3,7.3,6.8c0,3-1.9,5.8-5.3,6.6l7.8,10.6H376.4z M369,135.5
			h-8.7v9.9h8.7c3.2,0,5.1-2,5.1-5S371.7,135.5,369,135.5z"/>
		<path d="M400.1,157.6v-20l-8.3,16.8h-1.4l-8.3-16.8v20H380v-24h2.1l9,18l9-18h2.1v24H400.1z"/>
		<path d="M422.3,157.6l-2.7-6.7h-11.8l-2.7,6.7H403l9.9-24h1.6l10,24H422.3z M413.8,136.2l-5.1,12.9h10.3L413.8,136.2z"/>
		<path d="M431.3,135.5v22.1h-2.2v-22.1h-8.2v-1.9h18.6v1.9H431.3z"/>
		<path d="M449.3,158c-6.7,0-11.3-5.6-11.3-12.3c0-6.7,4.6-12.4,11.3-12.4s11.3,5.7,11.3,12.4C460.6,152.3,456.1,158,449.3,158z
			 M449.3,135.1c-5.4,0-9.1,4.5-9.1,10.5c0,6,3.7,10.5,9.1,10.5s9.1-4.5,9.1-10.5C458.5,139.6,454.7,135.1,449.3,135.1z"/>
		<path d="M462.9,157.6v-24h2.2v22.1h12.6v1.9H462.9z"/>
		<path d="M487.8,158c-6.7,0-11.3-5.6-11.3-12.3c0-6.7,4.6-12.4,11.3-12.4s11.3,5.7,11.3,12.4C499.1,152.3,494.6,158,487.8,158z
			 M487.8,135.1c-5.4,0-9.1,4.5-9.1,10.5c0,6,3.7,10.5,9.1,10.5s9.1-4.5,9.1-10.5C497,139.6,493.2,135.1,487.8,135.1z"/>
		<path d="M512.5,158c-7.6,0-13.2-5.5-13.2-12.4c0-7.2,5-12.3,13.2-12.3c1.9,0,4.4,0.3,6.2,0.8l-0.3,1.8c-2.1-0.5-4.1-0.6-6-0.6
			c-6.4,0-10.9,3.9-10.9,10.5c0,6.3,4.8,10.5,10.9,10.5c1.5,0,3.4-0.2,5.2-0.5V147h1.9v9.9C517.3,157.6,514.4,158,512.5,158z"/>
		<path d="M522.9,157.6v-24h2.2v24H522.9z"/>
	</g>
	<g>
		<path d="M539.7,157.9v6.4h-2.2v-6.4c-6.2-0.6-10.2-6-10.2-12.3c0-6.7,4.6-12.3,11.3-12.3s11.3,5.6,11.3,12.3
			C549.9,151.9,545.9,157.3,539.7,157.9z M538.6,135.1c-5.4,0-9.1,4.5-9.1,10.5c0,6,3.7,10.5,9.1,10.5s9.1-4.5,9.1-10.5
			C547.8,139.6,544,135.1,538.6,135.1z"/>
		<path d="M561.3,158c-6.1,0-9.5-4.2-9.5-8.8v-15.6h2.2v15.7c0,4.3,3.1,6.8,7.3,6.8c4.2,0,7.3-2.7,7.3-6.8v-15.7h2.2v15.6
			C570.8,153.7,567.4,158,561.3,158z"/>
	</g>
	<g>
		<path d="M574.3,157.6v-24h16v1.9h-13.8v8.7h12.9v1.9h-12.9v9.6h13.8v1.9H574.3z"/>
	</g>
</g>
</svg>
