<?xml version="1.0" encoding="utf-8"?>
<!-- Generator: Adobe Illustrator 22.0.1, SVG Export Plug-In . SVG Version: 6.00 Build 0)  -->
<svg version="1.1" id="Layer_1" xmlns="http://www.w3.org/2000/svg" xmlns:xlink="http://www.w3.org/1999/xlink" x="0px" y="0px"
	 width="400px" height="150px" viewBox="0 0 400 150" style="enable-background:new 0 0 400 150;" xml:space="preserve">
<style type="text/css">
	.st0{fill:#F8FCFD;}
</style>
<g id="clouds">
	<g>
		<path class="st0" d="M388.5,119.4c-0.2-0.2-0.6-0.3-0.9-0.3c1.2-2.2,1.4-5.2,0-7c-1.4-1.9-3.8-3.2-6-2.9c-0.3-0.6-0.9-1.1-1.6-1.3
			c-0.1-0.6-0.4-1.2-0.9-1.6c-1-0.9-2.4-1.4-3.4-0.5c2.5-3.2,0.4-8.2-3.3-9.7c-0.1-3.5-3.6-6.5-7-6c-2.6,0.4-4.7,2.7-5.3,5.2
			c-1.3-1.7-3.2-2.7-5.5-2.7c-2,0-3.9,0.9-5.1,2.3c-1.3-1.4-3.1-2.3-5-2.4c-3.4-0.1-6.5,2.1-8.2,5c-1.2,2.2-1.8,5.2-1.8,7.9
			c-1.3-0.4-2.7-0.7-4.2-0.7c-1.6,0-3.1,0.3-4.4,0.8c-1.4-2.1-4.1-3.4-6.7-3.3c-3.9,0.2-7.2,2.8-9.9,5.5c-0.7,0.7-1.2,1.4-1.8,2.2
			c-0.6-0.2-1.3-0.4-2-0.4c-3.3,0-5.9,2.6-5.9,5.9c0,1,0.3,1.9,0.7,2.7c-1.7,1.1-3.8,2.2-6.5,3c1.4,0.9,10.4,1.4,11.9,0.6
			c2.4,1.7,6,1.7,8.8,0.6c10.8,2.9,22.5,2.9,33.5,0.9c7.2,0.1,14.3,0.1,21.5,0.1c2.6,0,5.3-0.5,8-0.8c2.5,2.6,6.8,3.1,9.8,1.2
			c0.8-0.5,1.5-1.1,1.8-2C389.4,121,389.2,119.9,388.5,119.4z"/>
	</g>
	<g>
		<path id="XMLID_3412_" class="st0" d="M133.2,80c-1.8-0.3-7.7-1.6-11.3-3.5c-1-0.5-2.7-1.7-3.8-1.9c-0.2,0-0.3-0.1-0.5-0.1
			c0.5-1.2,0.7-2.5,0.6-3.8c-0.1-1.1-0.4-2.2-1.1-2.9s-2-0.8-2.7-0.1c0.5-2.7-1.1-5.6-3.6-6.6c-2.5-1-5.6,0.5-7,2.8
			c0.5-1.3,0.8-2.7,0.5-4c-0.4-1.3-1.7-2.4-3-2.1c-0.4-0.8-0.8-1.6-1.6-1.9c-0.8-0.4-2.1-0.1-2.1,0.7c0-0.9-0.7-1.7-1.5-1.9
			c-0.8-0.2-1.5,0.4-2,1.1c-0.5-1.6-1.3-3.2-2.6-4.4c-1.2-1.2-3-2-4.7-1.8c-1.7,0.2-3.4,1.4-3.7,3.1c-0.5-0.3-1.1-0.2-1.6,0.1
			c-0.5,0.3-0.4,0.8-0.3,1.4c-2.8-0.5-5.7,0.6-7.5,2.7s-2.3,5.3-1.4,7.9c-0.9-0.7-2.2-0.8-3.3-0.4c-1.1,0.4-1.9,1.4-2.2,2.5
			c-0.2-0.7-0.9-1.2-1.6-1.1c-0.7,0.1-1.1,0.2-1.1,0.9c-2.6-3.9-8-5.7-12.4-4.2c-4.4,1.5-7.3,6.3-6.9,11c-1.6-1-3.6-1.4-5.5-0.9
			c-1.9,0.4-3.5,1.6-4.5,3.3c-0.5,0.9-0.9,2-0.4,2.9c-1.1-0.8-2.9-0.5-3.9,0.5c-2.4-1-2.8-0.4-5.1,0.7c-3.5,1.6-6.9,1.6-9.4,1.6h7.6
			c8.3,0,12,2.2,17.2,0.8c7.1,2,14.6,1.8,21.7-0.2c2.4,1.2,5.1,1.2,7.6,0c5.8,1.4,11.9,1.3,17.6-0.4c1.3,0.6,2.8,0.5,4.1-0.1
			c4.1,1.5,8.6,1.5,12.8,0.4c2.3,1.2,5.1,1,7.4-0.1c3.9,1.1,8.1,1.1,12,0.1c1.8,0.5,3.8,0.5,5.6-0.1c0.9-0.3,1.8-0.4,2.8-0.5
			C132.3,81.6,140.5,80.8,133.2,80z"/>
	</g>
	<g>
		<path id="XMLID_1_" class="st0" d="M192.9,46.5c1.8-0.3,7.7-1.6,11.3-3.5c1-0.5,2.7-1.7,3.8-1.9c0.2,0,0.3-0.1,0.5-0.1
			c-0.5-1.2-0.7-2.5-0.6-3.8c0.1-1.1,0.4-2.2,1.1-2.9c0.8-0.7,2-0.8,2.7-0.1c-0.5-2.7,1.1-5.6,3.6-6.6c2.5-1,5.6,0.5,7,2.8
			c-0.5-1.3-0.8-2.7-0.5-4c0.4-1.3,1.7-2.4,3-2.1c0.4-0.8,0.8-1.6,1.6-1.9c0.8-0.4,2.1-0.1,2.1,0.7c0-0.9,0.7-1.7,1.5-1.9
			c0.8-0.2,1.5,0.4,2,1.1c0.5-1.6,1.3-3.2,2.6-4.4c1.2-1.2,3-2,4.7-1.8c1.7,0.2,3.4,1.4,3.7,3.1c0.5-0.3,1.1-0.2,1.6,0.1
			c0.5,0.3,0.4,0.8,0.3,1.4c2.8-0.5,5.7,0.6,7.5,2.7c1.8,2.1,2.3,5.3,1.4,7.9c0.9-0.7,2.2-0.8,3.3-0.4s1.9,1.4,2.2,2.5
			c0.2-0.7,0.9-1.2,1.6-1.1c0.7,0.1,1.1,0.2,1.1,0.9c2.6-3.9,8-5.7,12.4-4.2c4.4,1.5,7.3,6.3,6.9,11c1.6-1,3.6-1.4,5.5-0.9
			c1.9,0.4,3.5,1.6,4.5,3.3c0.5,0.9,0.9,2,0.4,2.9c1.1-0.8,2.9-0.5,3.9,0.5c2.4-1,2.8-0.4,5.1,0.7c3.5,1.6,6.9,1.6,9.4,1.6h-7.6
			c-8.3,0-12,2.2-17.2,0.8c-7.1,2-14.6,1.8-21.7-0.2c-2.4,1.2-5.1,1.2-7.6,0c-5.8,1.4-11.9,1.3-17.6-0.4c-1.3,0.6-2.8,0.5-4.1-0.1
			c-4.1,1.5-8.6,1.5-12.8,0.4c-2.3,1.2-5.1,1-7.4-0.1c-3.9,1.1-8.1,1.1-12,0.1c-1.8,0.5-3.8,0.5-5.6-0.1c-0.9-0.3-1.8-0.4-2.8-0.5
			h-22.8C178.4,47.9,185.7,47.3,192.9,46.5z"/>
	</g>
</g>
<g>
</g>
<g>
</g>
<g>
</g>
<g>
</g>
<g>
</g>
<g>
</g>
<g>
</g>
<g>
</g>
<g>
</g>
<g>
</g>
<g>
</g>
<g>
</g>
<g>
</g>
<g>
</g>
<g>
</g>
</svg>
