<?xml version="1.0" encoding="utf-8"?>
<!-- Generator: Adobe Illustrator 22.0.1, SVG Export Plug-In . SVG Version: 6.00 Build 0)  -->
<svg version="1.1" id="Layer_1" xmlns="http://www.w3.org/2000/svg" xmlns:xlink="http://www.w3.org/1999/xlink" x="0px" y="0px"
	 width="150px" height="150px" viewBox="0 0 150 150" style="enable-background:new 0 0 150 150;" xml:space="preserve">
<style type="text/css">
	.st0{fill:#FED953;}
	.st1{fill:#FEE382;}
</style>
<g id="sun">
	<path class="st0" d="M86.5,22.3L99.8,15l4.3,14.6c2.3,7.9,8.4,14,16.3,16.3l14.6,4.3l-7.3,13.3c-3.9,7.2-3.9,15.9,0,23.1l7.3,13.3
		l-14.6,4.3c-7.9,2.3-14,8.4-16.3,16.3L99.8,135l-13.3-7.3c-7.2-3.9-15.9-3.9-23.1,0L50.1,135l-4.3-14.6c-2.3-7.9-8.4-14-16.3-16.3
		L15,99.8l7.3-13.3c3.9-7.2,3.9-15.9,0-23.1L15,50.1l14.6-4.3c7.9-2.3,14-8.4,16.3-16.3L50.1,15l13.3,7.3
		C70.6,26.2,79.3,26.2,86.5,22.3z"/>
	<circle class="st1" cx="75" cy="75" r="44"/>
</g>
<g>
</g>
<g>
</g>
<g>
</g>
<g>
</g>
<g>
</g>
<g>
</g>
<g>
</g>
<g>
</g>
<g>
</g>
<g>
</g>
<g>
</g>
<g>
</g>
<g>
</g>
<g>
</g>
<g>
</g>
</svg>
