<?xml version="1.0" encoding="UTF-8"?>
<!-- Generator: Adobe Illustrator 24.1.2, SVG Export Plug-In . SVG Version: 6.00 Build 0)  -->
<svg version="1.1" id="Calque_1" xmlns="http://www.w3.org/2000/svg" xmlns:xlink="http://www.w3.org/1999/xlink" x="0px" y="0px" viewBox="0 0 1124.3 374.8" style="enable-background:new 0 0 1124.3 374.8;" xml:space="preserve">
<style type="text/css">
	.st0{fill:#4D4D4D;}
</style>
<g>
	<path class="st0" d="M133.3,212l91-206.1h41.8L133.3,299.2L0,5.9h41.8L133.3,212z"/>
	<path class="st0" d="M317.3,284.4h-38.2V5.9h38.2V284.4z"/>
	<path class="st0" d="M586.2,59.1c-21.9-17.7-52-27.3-80.8-27.3c-68.7,0-121.1,52.1-121.1,113.8c0,60.9,52,113,120.3,113   c30.1,0,58.9-10.3,81.7-28.8v41c-23.6,12.6-53.6,19.6-80.4,19.6c-87.3,0-159.7-63.2-159.7-143.7C346.1,64.3,418.9,0,509,0   c26.8,0,54,5.9,77.2,18.8V59.1z"/>
</g>
<g>
	<path class="st0" d="M829.1,118.2V5.9h43.4v278.5h-43.4V150.7H663.4v133.7H620V5.9h43.4v112.3H829.1z"/>
</g>
<g>
	<path class="st0" d="M886.2,5.9h43.9l75.2,118.9l75.2-118.9h43.9l-99.9,157.3v121.1h-38.2V163.3L886.2,5.9z"/>
</g>
<g>
	<path class="st0" d="M140.7,369.7h11.7v4.4H136v-42.2h4.7V369.7z"/>
	<path class="st0" d="M209.9,362.1l-5.1,12h-5.2l19.5-44.3l19,44.3h-5.2l-5-12H209.9z M219,340.8l-7.2,16.9h14.3L219,340.8z"/>
	<path class="st0" d="M289.3,331.8h6.9c7.7,0,14.1,2.8,14.1,11.4c0,3.4-1.3,6.3-4.1,8.2c5,1.2,8,5.8,8,10.8   c0,8.4-6.8,11.8-15.1,11.8h-9.8V331.8z M294,350.4h1.8c5.3,0,9.9-0.6,9.9-7.2c0-6.4-4-7.1-9.8-7.1H294V350.4z M294,369.7h4.7   c5.3,0,10.8-1.3,10.8-7.7c0-6.6-6.3-7.5-11.4-7.5H294V369.7z"/>
	<path class="st0" d="M409.7,353c0,12.2-10,21.8-22,21.8c-12,0-22-9.6-22-21.8c0-12.1,10-21.9,22-21.9   C399.7,331.1,409.7,340.9,409.7,353z M370.3,352.9c0,9.5,7.7,17.5,17.3,17.5c9.6,0,17.3-8,17.3-17.5c0-9.6-7.6-17.5-17.3-17.5   C378,335.4,370.3,343.3,370.3,352.9z"/>
	<path class="st0" d="M467.3,374.1h-4.7v-42.2h6.1c8,0,15.5,2.1,15.5,11.7c0,6.5-4.1,11.1-10.6,11.7l13.4,18.9h-5.8l-12.8-18.5h-1.2   V374.1z M467.3,351.4h1.5c5.3,0,10.7-1,10.7-7.6c0-6.9-5.1-7.6-10.8-7.6h-1.4V351.4z"/>
	<path class="st0" d="M545.9,362.1l-5.1,12h-5.2l19.5-44.3l19,44.3h-5.2l-5-12H545.9z M555.1,340.8l-7.2,16.9h14.3L555.1,340.8z"/>
</g>
<g>
	<path class="st0" d="M632,374.1h-4.7v-37.9h-10.2v-4.4h25.2v4.4H632V374.1z"/>
	<path class="st0" d="M735.6,353c0,12.2-10,21.8-22,21.8c-12,0-22-9.6-22-21.8c0-12.1,10-21.9,22-21.9   C725.6,331.1,735.6,340.9,735.6,353z M696.2,352.9c0,9.5,7.7,17.5,17.3,17.5c9.6,0,17.3-8,17.3-17.5c0-9.6-7.6-17.5-17.3-17.5   C703.9,335.4,696.2,343.3,696.2,352.9z"/>
	<path class="st0" d="M793.3,374.1h-4.7v-42.2h4.7V374.1z"/>
	<path class="st0" d="M853,374.1h-4.7v-42.2h6.1c8,0,15.5,2.1,15.5,11.7c0,6.5-4.1,11.1-10.6,11.7l13.4,18.9H867l-12.8-18.5H853   V374.1z M853,351.4h1.5c5.3,0,10.7-1,10.7-7.6c0-6.9-5.1-7.6-10.8-7.6H853V351.4z"/>
	<path class="st0" d="M925.3,331.8h21.9v4.4H930v12.6h16.7v4.4H930v16.6h17.2v4.4h-21.9V331.8z"/>
	<path class="st0" d="M1020.9,340c-1.7-2.9-3.7-4.6-7.3-4.6c-3.8,0-7,2.7-7,6.6c0,3.6,3.8,5.3,6.6,6.6l2.8,1.2   c5.5,2.4,10.1,5.2,10.1,11.9c0,7.4-5.9,13.1-13.3,13.1c-6.8,0-11.8-4.4-13.2-10.9l4.6-1.3c0.6,4.3,3.9,7.8,8.5,7.8   c4.5,0,8.7-3.5,8.7-8.2c0-4.9-3.9-6.6-7.8-8.4l-2.6-1.1c-4.9-2.2-9.2-4.8-9.2-10.8c0-6.6,5.5-10.8,11.8-10.8   c4.7,0,8.7,2.4,10.9,6.6L1020.9,340z"/>
</g>
</svg>