<?xml version="1.0" encoding="utf-8"?>
<!-- Generator: Adobe Illustrator 24.1.2, SVG Export Plug-In . SVG Version: 6.00 Build 0)  -->
<svg version="1.1" id="Layer_2_1_" xmlns="http://www.w3.org/2000/svg" xmlns:xlink="http://www.w3.org/1999/xlink" x="0px" y="0px"
	 viewBox="0 0 984 323" style="enable-background:new 0 0 984 323;" xml:space="preserve">
<style type="text/css">
	.st0{fill:none;}
	.st1{fill:#008FCD;}
	.st2{fill:#FFFFFF;}
</style>
<g>
	<rect y="92.4" class="st0" width="984" height="214"/>
	<path class="st1" d="M52.2,92.9c0.3-0.3,0.8-0.5,1.3-0.5h19c0.6,0,1,0.2,1.3,0.5c0.3,0.3,0.5,0.8,0.5,1.3v80.4c0,0.6-0.2,1-0.5,1.3
		c-0.3,0.3-0.8,0.5-1.3,0.5H54.4c-1,0-1.7-0.4-2.2-1.2l-24.5-40.8c-0.2-0.2-0.3-0.3-0.5-0.3c-0.2,0-0.2,0.2-0.2,0.5l0.2,40
		c0,0.6-0.2,1-0.5,1.3c-0.3,0.3-0.8,0.5-1.3,0.5h-19c-0.6,0-1-0.2-1.3-0.5c-0.3-0.3-0.5-0.8-0.5-1.3V94.2c0-0.6,0.2-1,0.5-1.3
		c0.3-0.3,0.8-0.5,1.3-0.5h18.1c1,0,1.7,0.4,2.2,1.2l24.4,40.8c0.2,0.2,0.3,0.3,0.5,0.3c0.2,0,0.2-0.2,0.2-0.5l-0.1-40
		C51.7,93.6,51.9,93.2,52.2,92.9z"/>
	<path class="st1" d="M137.8,174.8l-2.6-9.4c-0.2-0.3-0.4-0.5-0.6-0.5h-25.4c-0.2,0-0.4,0.2-0.6,0.5l-2.6,9.4c-0.2,1-0.9,1.6-2,1.6
		H83.3c-1.4,0-2-0.7-1.6-2L107,93.8c0.3-1,1-1.4,2-1.4h25.4c1,0,1.7,0.5,2,1.4l25.3,80.5c0.1,0.2,0.1,0.4,0.1,0.7
		c0,0.9-0.6,1.3-1.7,1.3h-20.5C138.7,176.4,138,175.9,137.8,174.8z M114.2,147.7h15c0.5,0,0.6-0.2,0.5-0.7l-7.7-26.9
		c-0.1-0.2-0.2-0.4-0.4-0.4c-0.2,0-0.3,0.1-0.4,0.4l-7.6,26.9C113.7,147.5,113.8,147.7,114.2,147.7z"/>
	<path class="st1" d="M180,173.7c-4.8-2.4-8.5-5.8-11.2-10.1c-2.6-4.3-4-9.4-4-15.1v-6.4c0-0.6,0.2-1,0.5-1.3
		c0.3-0.3,0.8-0.5,1.3-0.5h19c0.6,0,1,0.2,1.3,0.5c0.3,0.3,0.5,0.8,0.5,1.3v6.2c0,2.9,0.8,5.2,2.5,7c1.7,1.8,4,2.6,7,2.6
		c2.9,0,5.2-0.9,7.1-2.6c1.8-1.8,2.8-4.1,2.8-7V94.2c0-0.6,0.2-1,0.5-1.3c0.3-0.3,0.8-0.5,1.3-0.5h18.8c0.6,0,1,0.2,1.3,0.5
		c0.3,0.3,0.5,0.8,0.5,1.3v54.4c0,5.7-1.4,10.7-4.1,15.1c-2.7,4.4-6.5,7.7-11.4,10.1c-4.9,2.4-10.5,3.6-16.8,3.6
		C190.4,177.3,184.8,176.1,180,173.7z"/>
	<path class="st1" d="M293.3,133.4c3.6,2,6.2,4.6,7.9,7.7c1.7,3.1,2.5,6.9,2.5,11.3c0,8.2-2.9,14.3-8.6,18.2
		c-5.8,3.9-13.2,5.8-22.4,5.8h-32.3c-0.6,0-1-0.2-1.3-0.5c-0.3-0.3-0.5-0.8-0.5-1.3V94.2c0-0.6,0.2-1,0.5-1.3
		c0.3-0.3,0.8-0.5,1.3-0.5h31.2c10.2,0,17.9,1.8,23.1,5.5c5.2,3.6,7.7,9.7,7.7,18.3c0,7.6-3,13.1-9.1,16.6
		C293,132.9,293,133.2,293.3,133.4z M261.1,112.3v12c0,0.4,0.2,0.6,0.6,0.6h9.8c5.8,0,8.8-2.2,8.8-6.6c0-4.4-2.9-6.6-8.8-6.6h-9.8
		C261.3,111.7,261.1,111.9,261.1,112.3z M281.2,150c0-4.5-2.8-6.7-8.4-6.7h-11c-0.4,0-0.6,0.2-0.6,0.6v12.6c0,0.4,0.2,0.6,0.6,0.6
		h10.9C278.3,157.1,281.2,154.7,281.2,150z"/>
	<path class="st1" d="M327.3,173.8c-5.1-2.7-9-6.4-11.8-11.3c-2.8-4.8-4.2-10.5-4.2-16.9v-22.6c0-6.2,1.4-11.8,4.2-16.6
		c2.8-4.8,6.7-8.5,11.8-11.2c5.1-2.6,10.9-4,17.6-4c6.7,0,12.6,1.3,17.7,4c5.1,2.6,9,6.4,11.8,11.2c2.8,4.8,4.2,10.3,4.2,16.6v22.6
		c0,6.4-1.4,12-4.2,16.9c-2.8,4.8-6.7,8.6-11.8,11.3c-5.1,2.7-11,4-17.7,4C338.2,177.8,332.4,176.5,327.3,173.8z M353,155.2
		c2-2.2,3.1-5.1,3.1-8.8v-23.5c0-3.7-1-6.6-3.1-8.8c-2-2.2-4.7-3.3-8.1-3.3c-3.3,0-5.9,1.1-8,3.3c-2,2.2-3.1,5.1-3.1,8.8v23.5
		c0,3.7,1,6.6,3.1,8.8c2,2.2,4.7,3.3,8,3.3C348.2,158.5,350.9,157.4,353,155.2z"/>
	<path class="st1" d="M387.4,175.9c-0.3-0.3-0.5-0.8-0.5-1.3V94.2c0-0.6,0.2-1,0.5-1.3c0.3-0.3,0.8-0.5,1.3-0.5h19
		c0.6,0,1,0.2,1.3,0.5c0.3,0.3,0.5,0.8,0.5,1.3v62.3c0,0.4,0.2,0.6,0.6,0.6h37.1c0.6,0,1,0.2,1.3,0.5c0.3,0.3,0.5,0.8,0.5,1.3v15.7
		c0,0.6-0.2,1-0.5,1.3c-0.3,0.3-0.8,0.5-1.3,0.5h-58.4C388.1,176.4,387.7,176.2,387.4,175.9z"/>
	<path class="st1" d="M467.6,173.7c-4.8-2.4-8.5-5.8-11.2-10.1c-2.6-4.3-4-9.4-4-15.1v-6.4c0-0.6,0.2-1,0.5-1.3
		c0.3-0.3,0.8-0.5,1.3-0.5h19c0.6,0,1,0.2,1.3,0.5c0.3,0.3,0.5,0.8,0.5,1.3v6.2c0,2.9,0.8,5.2,2.5,7c1.7,1.8,4,2.6,7,2.6
		c2.9,0,5.2-0.9,7.1-2.6c1.8-1.8,2.8-4.1,2.8-7V94.2c0-0.6,0.2-1,0.5-1.3c0.3-0.3,0.8-0.5,1.3-0.5H515c0.6,0,1,0.2,1.3,0.5
		c0.3,0.3,0.5,0.8,0.5,1.3v54.4c0,5.7-1.4,10.7-4.1,15.1c-2.7,4.4-6.5,7.7-11.4,10.1c-4.9,2.4-10.5,3.6-16.8,3.6
		C478.1,177.3,472.4,176.1,467.6,173.7z"/>
	<path class="st1" d="M586.6,111.2c-0.3,0.3-0.8,0.5-1.3,0.5h-35.9c-0.4,0-0.6,0.2-0.6,0.6v11.3c0,0.4,0.2,0.6,0.6,0.6h22.2
		c0.6,0,1,0.2,1.3,0.5c0.3,0.3,0.5,0.8,0.5,1.3v15.6c0,0.6-0.2,1-0.5,1.3c-0.3,0.3-0.8,0.5-1.3,0.5h-22.2c-0.4,0-0.6,0.2-0.6,0.6
		v12.5c0,0.4,0.2,0.6,0.6,0.6h35.9c0.6,0,1,0.2,1.3,0.5c0.3,0.3,0.5,0.8,0.5,1.3v15.7c0,0.6-0.2,1-0.5,1.3c-0.3,0.3-0.8,0.5-1.3,0.5
		H528c-0.6,0-1-0.2-1.3-0.5c-0.3-0.3-0.5-0.8-0.5-1.3V94.2c0-0.6,0.2-1,0.5-1.3c0.3-0.3,0.8-0.5,1.3-0.5h57.2c0.6,0,1,0.2,1.3,0.5
		c0.3,0.3,0.5,0.8,0.5,1.3v15.7C587,110.5,586.9,110.9,586.6,111.2z"/>
	<path class="st1" d="M619.1,175.9c-0.3-0.3-0.5-0.8-0.5-1.3V94.2c0-0.6,0.2-1,0.5-1.3c0.3-0.3,0.8-0.5,1.3-0.5h19
		c0.6,0,1,0.2,1.3,0.5c0.3,0.3,0.5,0.8,0.5,1.3v62.3c0,0.4,0.2,0.6,0.6,0.6h37.1c0.6,0,1,0.2,1.3,0.5c0.3,0.3,0.5,0.8,0.5,1.3v15.7
		c0,0.6-0.2,1-0.5,1.3c-0.3,0.3-0.8,0.5-1.3,0.5h-58.4C619.8,176.4,619.4,176.2,619.1,175.9z"/>
	<path class="st1" d="M699.4,173.7c-4.8-2.4-8.5-5.8-11.2-10.1c-2.6-4.3-4-9.4-4-15.1v-6.4c0-0.6,0.2-1,0.5-1.3
		c0.3-0.3,0.8-0.5,1.3-0.5h19c0.6,0,1,0.2,1.3,0.5c0.3,0.3,0.5,0.8,0.5,1.3v6.2c0,2.9,0.8,5.2,2.5,7c1.7,1.8,4,2.6,7,2.6
		c2.9,0,5.2-0.9,7.1-2.6c1.8-1.8,2.8-4.1,2.8-7V94.2c0-0.6,0.2-1,0.5-1.3c0.3-0.3,0.8-0.5,1.3-0.5h18.8c0.6,0,1,0.2,1.3,0.5
		c0.3,0.3,0.5,0.8,0.5,1.3v54.4c0,5.7-1.4,10.7-4.1,15.1c-2.7,4.4-6.5,7.7-11.4,10.1c-4.9,2.4-10.5,3.6-16.8,3.6
		C709.8,177.3,704.2,176.1,699.4,173.7z"/>
	<path class="st1" d="M818.3,111.2c-0.3,0.3-0.8,0.5-1.3,0.5h-35.9c-0.4,0-0.6,0.2-0.6,0.6v11.3c0,0.4,0.2,0.6,0.6,0.6h22.2
		c0.6,0,1,0.2,1.3,0.5c0.3,0.3,0.5,0.8,0.5,1.3v15.6c0,0.6-0.2,1-0.5,1.3c-0.3,0.3-0.8,0.5-1.3,0.5h-22.2c-0.4,0-0.6,0.2-0.6,0.6
		v12.5c0,0.4,0.2,0.6,0.6,0.6h35.9c0.6,0,1,0.2,1.3,0.5c0.3,0.3,0.5,0.8,0.5,1.3v15.7c0,0.6-0.2,1-0.5,1.3c-0.3,0.3-0.8,0.5-1.3,0.5
		h-57.2c-0.6,0-1-0.2-1.3-0.5c-0.3-0.3-0.5-0.8-0.5-1.3V94.2c0-0.6,0.2-1,0.5-1.3c0.3-0.3,0.8-0.5,1.3-0.5h57.2c0.6,0,1,0.2,1.3,0.5
		c0.3,0.3,0.5,0.8,0.5,1.3v15.7C818.7,110.5,818.6,110.9,818.3,111.2z"/>
	<path class="st1" d="M890.4,92.9c0.3,0.3,0.5,0.8,0.5,1.3V110c0,0.6-0.2,1-0.5,1.3c-0.3,0.3-0.8,0.5-1.3,0.5h-20.2
		c-0.4,0-0.6,0.2-0.6,0.6v62.2c0,0.6-0.2,1-0.5,1.3c-0.3,0.3-0.8,0.5-1.3,0.5h-19c-0.6,0-1-0.2-1.3-0.5c-0.3-0.3-0.5-0.8-0.5-1.3
		v-62.2c0-0.4-0.2-0.6-0.6-0.6h-19.6c-0.6,0-1-0.2-1.3-0.5c-0.3-0.3-0.5-0.8-0.5-1.3V94.2c0-0.6,0.2-1,0.5-1.3
		c0.3-0.3,0.8-0.5,1.3-0.5h63.5C889.6,92.4,890.1,92.5,890.4,92.9z"/>
	<path class="st1" d="M911,173.8c-5.1-2.7-9-6.4-11.8-11.3c-2.8-4.8-4.2-10.5-4.2-16.9v-22.6c0-6.2,1.4-11.8,4.2-16.6
		c2.8-4.8,6.7-8.5,11.8-11.2c5.1-2.6,10.9-4,17.6-4c6.7,0,12.6,1.3,17.7,4c5.1,2.6,9,6.4,11.8,11.2c2.8,4.8,4.2,10.3,4.2,16.6v22.6
		c0,6.4-1.4,12-4.2,16.9c-2.8,4.8-6.7,8.6-11.8,11.3c-5.1,2.7-11,4-17.7,4C921.9,177.8,916,176.5,911,173.8z M936.6,155.2
		c2-2.2,3.1-5.1,3.1-8.8v-23.5c0-3.7-1-6.6-3.1-8.8c-2-2.2-4.7-3.3-8.1-3.3c-3.3,0-5.9,1.1-8,3.3c-2,2.2-3.1,5.1-3.1,8.8v23.5
		c0,3.7,1,6.6,3.1,8.8c2,2.2,4.7,3.3,8,3.3C931.9,158.5,934.6,157.4,936.6,155.2z"/>
</g>
<g>
	<path class="st2" d="M27.5,79.8c-1.3-4.2-1.8-8.4-1.8-12.6c0.7-20.8,2-36.6,5.2-59.4c0.2-2.6,1-4.7,2.3-7.3c0.2-0.4,0.6-0.5,1-0.5
		c2.3,0,2.4,3.5,2.5,5.5c0.2,1.4,0.2,3,0.2,4.4c0,8.4-0.2,18.4-0.7,27l2.6-5.6c1.9-3.4,4-6.8,6.5-9.8c1.6-1.9,3.1-3.1,5.5-3.1
		c4.1,0,5.2,2.4,6.8,6.2c0.6,1,0.8,2,1.1,3.1c1.8,9.7,0.7,18.8,2.3,27.4c0.2-0.2,0.4-0.6,0.5-0.8c4.4-9.1,7.6-19.3,12.7-27.1
		c1.7-2.6,3.8-4.9,6.1-7.1c1-0.8,1.9-1.3,3-1.3c8.4,0,8.6,15.4,9.2,24.1c0.2,6.4,0.8,12.4,4.1,18.8c0.4,0.6,0.7,1.2,0.7,1.8
		c0,1.4-1.4,2.2-3.5,2.4c-2.2,0-4.1-1.2-5.3-3.1c-3.8-6.4-4.6-13.9-4.8-21.2l-0.2-9.8c-0.2-3.2-0.1-6.4-0.4-9.4c0-0.1,0-0.4-0.1-0.6
		c-0.1,0.2-0.4,0.4-0.5,0.5c-1.1,1.1-1.8,2.4-2.5,3.7c-6.2,9.6-7.1,23-11.2,33.6c-1.1,2.9-2.8,5.6-4.6,8.2c-0.5,0.7-1.7,1-2.6,1
		c-2.9-0.2-4-0.6-5.5-3c-4-6.7-4.7-14.6-4.9-22.2c-0.4-5.4,0-10.9-0.8-16.2c-1.1,2.2-2.2,3.8-3.1,6.2c-6.6,14.9-9.1,31-11.2,46.9
		c-0.2,1.8-1.7,2.5-3.4,2.5C30.6,82.9,28.1,81.6,27.5,79.8z"/>
	<path class="st2" d="M118.1,66c-3,0-6.1-1.7-7.8-4.1c-1.4-2-2-4.3-2.6-6.8c-0.7-4.1-1.2-8.3-1.2-12.5c0.4-11.3,2.6-25.2,11.2-25.2
		c2.3,0,5.6,1.3,5.6,2.9c0,0.7-0.7,1.4-1.7,1.4l-0.6-0.1c-0.4,0.4-0.5,0.2-1,0.7c-0.6,0.5-1,1.4-1.2,2.3c-2.6,5.9-3.4,13.2-3.4,19.6
		c0,4.6,0.2,7.2,1.1,11.5c0.1,0.8,0.2,1.6,0.5,2.2c0-0.1,0.1-0.2,0.2-0.4c5.4-7,10.3-18.1,10.3-28.2c0-8.2-4-16.8-11.6-16.8
		c-2.8,0-5.5,1.3-7.2,3.8c-0.2,0.4-0.7,0.6-1.3,0.6c-1.2,0-2.9-1-2.9-1.9l0.1-0.5c2-3.6,5.8-5.2,9.7-5.2c5.3,0.1,9.6,1.8,13.1,6.1
		c4.6,5.8,5.8,14.8,5.8,22.1c0,9.1-2.5,17.3-8.3,24.7c-1.7,2.2-3.6,3.7-6.5,3.7L118.1,66L118.1,66z"/>
	<path class="st2" d="M127.3,112.1c-1.7-0.7-3.5-1.6-4.8-2.9c-0.4-0.2-0.7-0.7-0.7-1.1c0-0.6,0.7-1.3,1.6-1.3
		c4.1,0.7,7.2,3.1,11.3,3.1c3.2,0,5.9-2,7.7-4.7c2.9-4,3.2-9,3.2-13.9v-4.1l0.2-14.3c-0.4-16.4-0.5-18.6-1.6-35v-2.3
		c0-4.1,0.2-9.1,2.8-13c0.8-1.2,1.9-2.4,3.2-2.4c2.5,0.2,3,0.8,3.4,3c-0.6,4.9-0.6,5.3-0.6,10c0,3.4,0.2,6.7,0.5,10.1
		c1.1,14.4,1.2,19.2,1.3,33.4c0,5.5-0.2,11.2-0.8,16.6c-0.8,7.1-2.6,15.2-9.2,19.2c-2.3,1.4-5,2-7.7,2
		C133.6,114.5,130.3,113.5,127.3,112.1z"/>
	<path class="st2" d="M163.4,64.9c-1.1-2.8-1.4-5.6-1.4-8.5c0-11.6,5.3-25.3,14-32.3c3-2.3,6.1-4.4,10-4.4c2.5,0,4.4,0.8,6.4,2.4
		c1.6,1.2,3,3.1,3,5.2c-0.1,2.4-1.6,4.6-3,6.5c-4.3,5.9-11.6,10.9-19.1,11.6c-1.9,5.4-2,7.7-2.4,12.8c0,3.1,0.7,6.1,2.3,8.9
		c0,0.1,0.4,0.6,0.4,0.6l1.9,2.6c0.1,0,0.2,0.1,0.2,0.2l1.4,0.7c1.9,0.4,1.7,0.4,3,0.4c6.1,0,12.7-2.5,18.6-5.2
		c2.9-1.3,4.4-2.6,7.4-3.2c1.1,0,2.5,0.7,2.5,1.9c0,0.2,0,0.4-0.2,0.6c-2,2-4.8,3.5-7.3,4.7c-6,3.2-13.6,5.9-20,5.9
		C173.6,76.3,166.3,72.5,163.4,64.9z M189.5,30.7c0.6-1,1.7-2.6,1.7-4.1c0-0.5-0.2-1.6-0.8-1.6c-1.3,0.4-0.7,0.1-1.8,0.7
		c-6.6,3-11.6,9.6-14.3,16.9C180.4,40.3,186,37,189.5,30.7z"/>
</g>
<g>
	<path class="st2" d="M547.1,274.2c-1.4-11.8-1.6-14.9-2.2-28c-3.5,8.3-5.5,12.4-10,19.6c-1.6,2.4-3,5.3-6,6l-1.7,0.2
		c-4,0-7.2-2.8-7.4-6.7c-0.4-3.5-0.5-7-0.5-10.4c0-9.8,0.2-13.3,2.5-22.3c0.4-1.6,1.1-2.8,2-4.1c0.2-0.4,0.8-0.6,1.6-0.6
		c1.7,0.4,2.9,0.6,3.2,2.3c0.2,0.8,0.5,1.8,0.5,2.6c-0.6,16.3-0.8,11.3-0.8,26.9c5.9-9.1,8.9-14.3,13.3-22.8
		c1.2-2.3,2.5-4.6,3.2-7.1c0.2-0.7,1.1-1,1.9-1c1.7,0.2,3.1,0.5,3.5,2.3c0.2,2,1,4.1,1.2,6.1c2,15,1.8,13.3,3.2,29.6
		c0.6,4.6,0.4,4.8,0.5,9.4c0,1.8-0.8,3.8-2.8,3.8C549.2,280.1,547.4,277.1,547.1,274.2z"/>
	<path class="st2" d="M605.2,282.3c-0.6-2.2-0.6-4.3-0.6-6.5c0-8.6,0.2-10.4,0.2-18.8c0-7-0.2-14-0.6-21c-4.7,3.8-7.7,8.2-10.9,13.4
		l-0.2,0.1c-0.2,0-0.5-0.1-0.5-0.4c0-2.8,0.6-4.4,1.9-6.7c2.4-4.4,5.3-8,9.5-11.2c-0.6-9.8-1.2-20.9-1.2-30.8
		c0-9.6,0.2-18.5,1.9-27.2c0.5-1.8,1.1-3.5,2.9-4.4c0.2-0.2,0.7-0.4,1.1-0.4c2.3,0,3.7,2.5,4,4.6c0,12.5-1,12.1-1,25.1
		c0,9.4,0.5,18.7,1,28.1c7-3.2,15.8-5,23.3-5.5c0-13,1.9-28.7,4.6-42c0.7-2.9,1.3-5.9,2.6-8.5c0.1-0.2,0.4-0.4,0.6-0.4
		c0.6,0,1.1,0.4,1.1,0.7v1.1c0,5.9-1.1,12.8-1.8,19.3c-0.8,9.7-1.3,19.6-1.3,29.4c1-0.1,2-0.1,3-0.1l3.6-0.1c1.9,0,3.7,0.1,5.3,1
		c0.6,0.1,1.4,1.1,1.4,1.8c0,1.6-3.2,1.6-4.9,1.7c-1.4,0-2.8,0-4.2,0.1c-1.4,0-2.8,0-4.2,0.1c0,13.2,0.5,16.8,1.7,29
		c0.4,2.6,0.7,5.4,0.7,8c0,1.7-0.1,2.4-1.8,2.4c-1.2,0-2.9-0.8-3.1-1.8c-2-6.2-2.3-13.9-2.8-20.4c-0.4-5.6-0.5-11.3-0.6-16.9
		c-7.8,0.6-15.7,2-22.9,5.4c0.6,11.4,1,15.7,1,27.1v4c0,3.8,0,7.7-0.6,11.4c-0.6,3.5-0.7,7.7-2.9,10.6c-0.4,0.5-1,0.7-1.7,0.7
		C607.3,284.3,605.6,283.4,605.2,282.3z"/>
	<path class="st2" d="M662.2,269.6c0.4-9,0.8-19.3,1.6-29.9c0.2-3.1,0.4-3.8,0.7-7.1c0.2-1.9,1.1-3.8,2.9-3.8c2.2,0.4,4,0.7,4.2,2.8
		c0.2,1.1,0.6,1.9,0.6,3c0,4,0.1,2.9,0.1,7.2c-0.1,1.4-0.1,2.9-0.1,4.3c1.7-4,3.6-7.9,5.9-11.6c1-1.7,1.9-3.5,3.4-4.8
		c2.4-2,3.7-2.6,7-2.9c3,0,7.9,1.7,7.9,5c0,1.2-0.8,2.3-2.2,2.3s-3.4-1.4-3.4-1.4c-0.1-0.1-0.4-0.2-0.4-0.4c-0.2,0-0.2-0.2-0.6-0.2
		c-0.1,0.2-0.4,0.5-0.6,0.6c-2.3,2.9-4.4,8.2-6.1,11.8c-1.7,3.4-3.1,6.8-4.4,10.4c-2.5,6.7-2.9,14-8.8,18.1
		c-0.5,0.4-1.2,0.6-1.9,0.6C665.7,273.6,662.2,272.1,662.2,269.6z"/>
	<path class="st2" d="M709.5,271.2c-1.1-3.7-1.6-7.7-2.3-11.4c-2.2-11.9-3.4-14.6-4.2-26.6v-2.8c0-1.7,0.6-3,2.3-3
		c2,0,3.5,1.7,4.2,3.5c2.4,8,3.2,11.5,4.6,19.2c0.7,3.6,1.4,7.2,2,10.8v0.1c1.1-4.2,2-8.5,3.5-12.6c0.7-2.2,1.1-4.4,1.7-6.6
		c1-4.2,1.9-8.4,2.6-12.7c0.4-2.3,0.5-4.7,1.8-6.6c0.1-0.4,0.5-0.5,0.8-0.5c1.7,0,2.2,1.1,2.3,2.5c0,1.8-1,3.8-1.4,5.8
		c-3.1,11.2-4.4,22.7-6.8,33.6c-0.5,3.2-1.4,7.4-3.1,9.2c-0.6,0.7-1.6,1-2.4,1C713,274.1,710.1,273.1,709.5,271.2z"/>
	<path class="st2" d="M771.8,285.3c-2.3-8-3.1-17.4-3.1-25.9l0.1-4.3c-0.6,1.3-1.1,2.8-1.7,4.2c-1.9,4.9-4.1,9.8-6.2,14.8
		c-1.9,4.3-3.8,9.8-9.2,10.8c-0.6,0.1-1.2,0.1-1.8,0.1c-5.2,0-10.1-3.4-12.4-7.8c-1.1-2.2-1.4-4.4-1.4-6.7c0-3.2,0.7-6.5,1.4-9.5
		c1.2-5.4,2.8-10.7,4.6-15.8c2.3-6.1,6.5-14,13.1-15.1c1.2-0.1,2.3-0.2,3.5-0.2c1.4,0,3,0.2,3,0.4c2.3,0.7,4.1,1.4,5.9,3
		c1.3,1.1,2,3,2.2,4.7c0,0.4-0.2,0.5-0.6,0.5c-1.9,0-2.3-1.8-3.6-2.6l-1.4-0.8c-5.8,0-8.5,2.8-10.8,7.7c-2,3.8-3.4,8-4.6,12.2
		c-2.2,7.2-3.2,10.2-3.7,17.3c0,2.3,0.2,2.8,0.8,4.6c0.1,0.1,0.2,0.2,0.2,0.5c0.7,0.7,0.1,0.4,1.1,1.3c0.2,0,0.2,0,0.5,0.2h0.8
		l0.1-0.1c0.6,0,0.4-0.1,0.8-0.4c0.7-0.7,1.8-1.8,2.5-2.9c9.6-13.7,14.4-25.6,20-42.4c0.7-3.1,1.6-6.2,2.6-9.2c0.1-0.6,0.7-1,1.4-1
		c1.2,0,2.8,0.8,2.8,1.8c-0.7,8.8-1.8,17.3-1.8,27.1c0,11.8,1.2,22.1,2.6,34.2v0.1c0,1.6-1.7,2-3,2
		C774.9,288,772.3,287.1,771.8,285.3z"/>
	<path class="st2" d="M795.8,286.4c-0.4-2-0.5-4.1-0.6-6.2c-1-10.6-1.3-22-1.3-32.3c0-12.8,0.6-27.5,2.2-40.4
		c-5.2,0.5-8.2,1-13.1,1.9c-1.7,0.2-3.5,0.6-5.2,1.1c-1.3,0.2-2.6,0.7-3.8,0.7c-0.8,0-1.9-0.2-1.9-1c0.1-0.7,1.2-1.1,1.8-1.3
		c5.4-2.2,2.9-1.2,8.3-2.9c5.2-1.4,8.6-1.8,14.3-2.4c0.4-3.1,0.8-6.4,1.6-9.5c0.5-2.3,0.8-6,2.3-7.8c0.6-0.8,1.3-1.3,1.7-2.2
		c0.2-0.5,0.7-0.7,1.2-0.7c1,0,2,0.7,2,1.4c0.1,1.3,0.8,2.3,1.1,3.5c0.1,1,0.1,2,0.1,3c-0.5,8.2-0.2,3.7-0.8,11.9
		c2.3,0,4.3,0.1,6.7,0.4c1.6,0.1,4.9,0.5,4.9,2.5c-0.2,1.1-1,1.3-2,1.3c-3.5-0.2-6.6-0.4-10.1-0.4c-1.8,14.2-2.2,28.2-2.2,41.3
		c0.1,19.8,0.7,23.4,1.8,40.1v3.5c0,1.4-1.3,2.8-3,2.8C796.7,294.3,796.3,290.3,795.8,286.4z"/>
	<path class="st2" d="M821.9,283.9c0-2.4,1.8-3,4.3-4.7c4.4-3.1,9.2-7.1,9.2-10.7c-0.1-1.6,0.1-0.8-0.5-2.4c0-0.4-0.4-0.5-0.4-0.8
		c-0.5-0.8-1-1.2-1.7-2.2l-3.1-2.5c-4.7-3.7-8.6-7.2-8.9-13c0-2.8,1.2-5.5,2.4-7.9c3.4-6.4,7.6-12.5,13-16.2
		c1.1-0.7,1.4-1.1,2.6-1.2c1.7,0,3.4,1.2,3.4,2.4c0,0.4-0.1,0.6-0.2,1c-1.6,2.5-3.5,4.7-5,7.2c-2.8,4.6-7.2,10.9-7.2,16.6
		c0,1.7,0.2,2.2,2.4,4.6c0,0.4,0.6,0.6,1,1c5.6,4.8,11,8.2,11.3,15.1c0,5-4.3,9-8.6,12.4c-1.2,1-2.4,1.9-3.7,2.8
		c-0.6,0.4-1.1,0.8-1.7,1.1c-1,0.5-1.8,0.6-2.8,0.7l-1.1,0.1C824.2,287.1,821.9,285.7,821.9,283.9z"/>
	<path class="st2" d="M855.8,286.3c-2.8-18.5-4.1-39.1-4.1-57.4c0-13.3,0.2-19.9,1.7-33c0.2-3.5,1.1-6.5,2.2-10
		c0.1-0.8,1.1-1.1,1.9-1.1c1.9,0.2,3.7,0.5,4,2.5c0.2,1.9,0.5,3.7,0.5,5.6s-0.1,3.7-0.2,5.5c-0.7,12.8-1,16.6-1,29.6
		c0,8.2,0.2,16.3,0.6,24.5c2.5-7.2,5.6-14,9.6-20.5c2.3-4,4.1-8,8.8-8.5c1.7,0,3.5,0.7,4.6,2.2c0.6,0.8,0.8,1.9,0.8,3
		c-0.4,3.4-1.1,4.3-2.5,7.4c-2.6,5.3-6.6,11-11,15.5c-0.8,1-2.2,2.2-2.6,3.5c0,1-0.1,0.5-0.1,1.3c0.2,0.7,1.1,1.2,1.7,1.7
		c5.2,4,10.2,7,14.3,11.9c0.2,0.4,0.4,0.8,0.4,1.2c0,1.1-1,1.7-2.3,1.7c-0.7,0-1.6-0.2-2.2-0.6c-4.7-2.6-8.5-6.6-12.5-10.2
		c-0.2-0.1-0.5-0.4-0.7-0.6c0,0.6-0.1,1.1-0.2,1.6c-1.4,8-2.4,16.3-2.4,24.5c0,1.9-1.8,2.5-3.4,2.5
		C858.8,290,856.3,288.8,855.8,286.3z M879.5,231.6c0.5-1,1.2-2.4,1.2-3.6l-0.1-1c-2.4,1.7-3.1,3.6-4.2,6.2c-1.4,3.2-3,6.8-4.1,10.1
		C875.5,239.5,877.4,236,879.5,231.6z"/>
	<path class="st2" d="M905.8,274.5c-3,0-6.1-1.7-7.8-4.1c-1.4-2-2-4.3-2.6-6.8c-0.7-4.1-1.2-8.3-1.2-12.5
		c0.4-11.3,2.6-25.2,11.2-25.2c2.3,0,5.6,1.3,5.6,2.9c0,0.7-0.7,1.4-1.7,1.4l-0.6-0.1c-0.4,0.4-0.5,0.2-1,0.7
		c-0.6,0.5-1,1.4-1.2,2.3c-2.6,5.9-3.4,13.2-3.4,19.6c0,4.6,0.2,7.2,1.1,11.5c0.1,0.8,0.2,1.6,0.5,2.2c0-0.1,0.1-0.2,0.2-0.4
		c5.4-7,10.3-18.1,10.3-28.2c0-8.2-4-16.8-11.6-16.8c-2.8,0-5.5,1.3-7.2,3.8c-0.2,0.4-0.7,0.6-1.3,0.6c-1.2,0-2.9-1-2.9-1.9l0.1-0.5
		c2-3.6,5.8-5.2,9.7-5.2c5.3,0.1,9.6,1.8,13.1,6.1c4.6,5.8,5.8,14.8,5.8,22.1c0,9.1-2.5,17.3-8.3,24.7c-1.7,2.2-3.6,3.7-6.5,3.7
		L905.8,274.5L905.8,274.5z"/>
	<path class="st2" d="M915.1,320.6c-1.7-0.7-3.5-1.6-4.8-2.9c-0.4-0.2-0.7-0.7-0.7-1.1c0-0.6,0.7-1.3,1.6-1.3
		c4.1,0.7,7.2,3.1,11.3,3.1c3.2,0,5.9-2,7.7-4.7c2.9-4,3.2-9,3.2-13.9v-4.1l0.2-14.3c-0.4-16.4-0.5-18.6-1.6-35v-2.3
		c0-4.1,0.2-9.1,2.8-13c0.8-1.2,1.9-2.4,3.2-2.4c2.5,0.2,3,0.8,3.4,3c-0.6,4.9-0.6,5.3-0.6,10c0,3.4,0.2,6.7,0.5,10.1
		c1.1,14.4,1.2,19.2,1.3,33.4c0,5.5-0.2,11.2-0.8,16.6c-0.8,7.1-2.6,15.2-9.2,19.2c-2.3,1.4-5,2-7.7,2
		C921.3,323,918.1,322.1,915.1,320.6z"/>
</g>
</svg>
