<?xml version="1.0" encoding="utf-8"?>
<!-- Generator: Adobe Illustrator 24.1.2, SVG Export Plug-In . SVG Version: 6.00 Build 0)  -->
<svg version="1.1" id="Layer_1" xmlns="http://www.w3.org/2000/svg" xmlns:xlink="http://www.w3.org/1999/xlink" x="0px" y="0px"
	 viewBox="0 0 1350 750" style="enable-background:new 0 0 1350 750;" xml:space="preserve">
<style type="text/css">
	.st0{opacity:0.5;}
	.st1{clip-path:url(#SVGID_2_);}
	.st2{fill:#FFFFFF;}
	.st3{clip-path:url(#SVGID_4_);}
	.st4{clip-path:url(#SVGID_6_);}
	.st5{clip-path:url(#SVGID_8_);}
	.st6{clip-path:url(#SVGID_10_);}
	.st7{clip-path:url(#SVGID_12_);}
	.st8{clip-path:url(#SVGID_14_);}
	.st9{clip-path:url(#SVGID_16_);}
	.st10{clip-path:url(#SVGID_18_);}
	.st11{clip-path:url(#SVGID_20_);}
	.st12{clip-path:url(#SVGID_22_);}
	.st13{clip-path:url(#SVGID_24_);}
	.st14{clip-path:url(#SVGID_26_);}
	.st15{clip-path:url(#SVGID_28_);}
	.st16{clip-path:url(#SVGID_30_);}
	.st17{clip-path:url(#SVGID_32_);}
	.st18{clip-path:url(#SVGID_34_);}
	.st19{clip-path:url(#SVGID_36_);}
	.st20{clip-path:url(#SVGID_38_);}
	.st21{clip-path:url(#SVGID_40_);}
	.st22{clip-path:url(#SVGID_42_);}
	.st23{clip-path:url(#SVGID_44_);}
	.st24{clip-path:url(#SVGID_46_);}
	.st25{clip-path:url(#SVGID_48_);}
	.st26{clip-path:url(#SVGID_50_);}
	.st27{clip-path:url(#SVGID_52_);}
	.st28{clip-path:url(#SVGID_54_);}
	.st29{clip-path:url(#SVGID_56_);}
	.st30{clip-path:url(#SVGID_58_);}
	.st31{clip-path:url(#SVGID_60_);}
	.st32{clip-path:url(#SVGID_62_);}
	.st33{clip-path:url(#SVGID_64_);}
	.st34{clip-path:url(#SVGID_66_);}
	.st35{clip-path:url(#SVGID_68_);}
	.st36{clip-path:url(#SVGID_70_);}
	.st37{clip-path:url(#SVGID_72_);}
	.st38{clip-path:url(#SVGID_74_);}
	.st39{clip-path:url(#SVGID_76_);}
	.st40{clip-path:url(#SVGID_78_);}
	.st41{clip-path:url(#SVGID_80_);}
	.st42{clip-path:url(#SVGID_82_);}
	.st43{clip-path:url(#SVGID_84_);}
	.st44{clip-path:url(#SVGID_86_);}
	.st45{clip-path:url(#SVGID_88_);}
	.st46{clip-path:url(#SVGID_90_);}
	.st47{clip-path:url(#SVGID_92_);}
	.st48{clip-path:url(#SVGID_94_);}
	.st49{clip-path:url(#SVGID_96_);}
	.st50{clip-path:url(#SVGID_98_);}
	.st51{clip-path:url(#SVGID_100_);}
	.st52{clip-path:url(#SVGID_102_);}
	.st53{clip-path:url(#SVGID_104_);}
</style>
<g class="st0">
	<g>
		<defs>
			<rect id="SVGID_1_" width="1350" height="750"/>
		</defs>
		<clipPath id="SVGID_2_">
			<use xlink:href="#SVGID_1_"  style="overflow:visible;"/>
		</clipPath>
		<g class="st1">
			<g>
				<path class="st2" d="M487.44,63.8c-28.86,0-52.34-23.48-52.34-52.34s23.48-52.34,52.34-52.34s52.34,23.48,52.34,52.34
					S516.3,63.8,487.44,63.8z M487.44-36.88c-26.65,0-48.34,21.69-48.34,48.34s21.69,48.34,48.34,48.34
					c26.65,0,48.34-21.68,48.34-48.34S514.1-36.88,487.44-36.88z"/>
			</g>
			<g>
				<path class="st2" d="M487.44,48.07c-14,0-26.58-7.79-32.8-20.34c-0.49-0.99-0.09-2.19,0.9-2.68c0.99-0.5,2.19-0.09,2.68,0.9
					c5.55,11.18,16.75,18.12,29.22,18.12c1.01,0,2.01-0.04,2.96-0.13c1.11-0.11,2.07,0.71,2.18,1.81c0.1,1.1-0.71,2.07-1.81,2.18
					C489.69,48.01,488.57,48.07,487.44,48.07z"/>
			</g>
			<g>
				<path class="st2" d="M537.78,10.31c-1.1,0-2.05-0.9-2.05-2s0.85-2,1.95-2c16.34,0,29.55-13.22,29.55-29.46
					c0-16.25-13.22-29.46-29.46-29.46c-12.17,0-23.24,7.64-27.55,19c-0.39,1.03-1.55,1.55-2.58,1.16s-1.55-1.55-1.16-2.58
					c4.9-12.91,17.47-21.58,31.29-21.58c18.45,0,33.46,15.01,33.46,33.46C571.24-4.7,556.23,10.31,537.78,10.31z"/>
			</g>
			<g>
				<path class="st2" d="M553.51,98.4c-13.25,0-24.02-10.78-24.02-24.02s10.78-24.02,24.02-24.02c13.25,0,24.02,10.78,24.02,24.02
					S566.76,98.4,553.51,98.4z M553.51,54.36c-11.04,0-20.02,8.98-20.02,20.02s8.98,20.02,20.02,20.02
					c11.04,0,20.02-8.98,20.02-20.02C573.54,63.34,564.55,54.36,553.51,54.36z"/>
			</g>
			<g>
				<path class="st2" d="M553.51,85.82c-6.31,0-11.44-5.13-11.44-11.44c0-1.1,0.9-2,2-2s2,0.9,2,2c0,4.1,3.34,7.44,7.44,7.44
					c1.1,0,2,0.9,2,2S554.62,85.82,553.51,85.82z"/>
			</g>
			<g>
				<path class="st2" d="M427.66,92.11c-9.78,0-17.73-7.95-17.73-17.73s7.95-17.73,17.73-17.73s17.73,7.95,17.73,17.73
					S437.44,92.11,427.66,92.11z M427.66,60.65c-7.57,0-13.73,6.16-13.73,13.73c0,7.57,6.16,13.73,13.73,13.73
					s13.73-6.16,13.73-13.73C441.39,66.81,435.23,60.65,427.66,60.65z"/>
			</g>
			<g>
				<path class="st2" d="M427.66,82.67c-4.57,0-8.29-3.72-8.29-8.29c0-1.1,0.9-2,2-2s2,0.9,2,2c0,2.37,1.92,4.29,4.29,4.29
					c1.1,0,2,0.9,2,2S428.77,82.67,427.66,82.67z"/>
			</g>
			<g>
				<path class="st2" d="M427.66-27.44c-13.25,0-24.02-10.78-24.02-24.02s10.78-24.02,24.02-24.02c13.25,0,24.03,10.78,24.03,24.02
					S440.91-27.44,427.66-27.44z M427.66-71.49c-11.04,0-20.02,8.98-20.02,20.02s8.98,20.02,20.02,20.02
					c11.04,0,20.03-8.98,20.03-20.02S438.7-71.49,427.66-71.49z"/>
			</g>
			<g>
				<path class="st2" d="M427.66-40.03c-6.31,0-11.44-5.13-11.44-11.44c0-1.1,0.9-2,2-2s2,0.9,2,2c0,4.1,3.34,7.44,7.44,7.44
					c1.1,0,2,0.9,2,2S428.77-40.03,427.66-40.03z"/>
			</g>
		</g>
	</g>
	<g>
		<defs>
			<rect id="SVGID_3_" width="1350" height="750"/>
		</defs>
		<clipPath id="SVGID_4_">
			<use xlink:href="#SVGID_3_"  style="overflow:visible;"/>
		</clipPath>
		<g class="st3">
			<g>
				<path class="st2" d="M487.44,813.8c-28.86,0-52.34-23.48-52.34-52.34c0-28.86,23.48-52.34,52.34-52.34s52.34,23.48,52.34,52.34
					S516.3,813.8,487.44,813.8z M487.44,713.12c-26.65,0-48.34,21.68-48.34,48.34c0,26.65,21.69,48.34,48.34,48.34
					c26.65,0,48.34-21.69,48.34-48.34C535.78,734.8,514.1,713.12,487.44,713.12z"/>
			</g>
			<g>
				<path class="st2" d="M487.44,798.07c-14,0-26.58-7.79-32.8-20.34c-0.49-0.99-0.09-2.19,0.9-2.68s2.19-0.09,2.68,0.9
					c5.55,11.18,16.75,18.12,29.22,18.12c1.02,0,2.01-0.04,2.96-0.13c1.11-0.1,2.07,0.71,2.18,1.81c0.1,1.1-0.71,2.07-1.81,2.18
					C489.7,798.02,488.58,798.07,487.44,798.07z"/>
			</g>
			<g>
				<path class="st2" d="M537.78,760.31c-1.1,0-2.05-0.9-2.05-2s0.85-2,1.95-2c16.34,0,29.55-13.22,29.55-29.46
					c0-16.25-13.22-29.46-29.46-29.46c-12.17,0-23.24,7.64-27.55,19c-0.39,1.03-1.54,1.55-2.58,1.16c-1.03-0.39-1.55-1.55-1.16-2.58
					c4.9-12.91,17.47-21.58,31.29-21.58c18.45,0,33.46,15.01,33.46,33.46C571.24,745.3,556.23,760.31,537.78,760.31z"/>
			</g>
			<g>
				<path class="st2" d="M553.51,848.41c-13.25,0-24.02-10.78-24.02-24.02c0-13.25,10.78-24.02,24.02-24.02
					c13.25,0,24.02,10.78,24.02,24.02C577.54,837.63,566.76,848.41,553.51,848.41z M553.51,804.36c-11.04,0-20.02,8.98-20.02,20.02
					c0,11.04,8.98,20.02,20.02,20.02c11.04,0,20.02-8.98,20.02-20.02C573.54,813.34,564.55,804.36,553.51,804.36z"/>
			</g>
			<g>
				<path class="st2" d="M553.51,835.82c-6.31,0-11.44-5.13-11.44-11.44c0-1.1,0.9-2,2-2s2,0.9,2,2c0,4.1,3.34,7.44,7.44,7.44
					c1.1,0,2,0.9,2,2S554.62,835.82,553.51,835.82z"/>
			</g>
			<g>
				<path class="st2" d="M427.66,842.11c-9.78,0-17.73-7.95-17.73-17.73c0-9.78,7.95-17.73,17.73-17.73s17.73,7.95,17.73,17.73
					S437.44,842.11,427.66,842.11z M427.66,810.65c-7.57,0-13.73,6.16-13.73,13.73s6.16,13.73,13.73,13.73s13.73-6.16,13.73-13.73
					S435.23,810.65,427.66,810.65z"/>
			</g>
			<g>
				<path class="st2" d="M427.66,832.67c-4.57,0-8.29-3.72-8.29-8.29c0-1.1,0.9-2,2-2s2,0.9,2,2c0,2.37,1.92,4.29,4.29,4.29
					c1.1,0,2,0.9,2,2S428.77,832.67,427.66,832.67z"/>
			</g>
			<g>
				<path class="st2" d="M427.66,722.56c-13.25,0-24.02-10.78-24.02-24.02c0-13.25,10.78-24.02,24.02-24.02
					c13.25,0,24.03,10.78,24.03,24.02C451.69,711.78,440.91,722.56,427.66,722.56z M427.66,678.51c-11.04,0-20.02,8.98-20.02,20.02
					c0,11.04,8.98,20.02,20.02,20.02c11.04,0,20.03-8.98,20.03-20.02S438.7,678.51,427.66,678.51z"/>
			</g>
			<g>
				<path class="st2" d="M427.66,709.97c-6.31,0-11.44-5.13-11.44-11.44c0-1.1,0.9-2,2-2s2,0.9,2,2c0,4.1,3.34,7.44,7.44,7.44
					c1.1,0,2,0.9,2,2S428.77,709.97,427.66,709.97z"/>
			</g>
		</g>
	</g>
	<g>
		<defs>
			<rect id="SVGID_5_" width="1350" height="750"/>
		</defs>
		<clipPath id="SVGID_6_">
			<use xlink:href="#SVGID_5_"  style="overflow:visible;"/>
		</clipPath>
		<g class="st4">
			<g>
				<path class="st2" d="M783.75,102.04c-14.89,0-29.26-4.4-41.56-12.71c-16.9-11.34-28.52-29.29-31.87-49.26
					c-0.71-4.11-1.07-8.33-1.07-12.53c0-41.08,33.42-74.5,74.5-74.5c7.22,0,14.3,1.02,21.03,3.02c1.06,0.32,1.66,1.43,1.35,2.49
					c-0.32,1.06-1.44,1.66-2.49,1.35c-6.36-1.89-13.05-2.86-19.89-2.86c-38.88,0-70.5,31.63-70.5,70.5c0,3.98,0.34,7.97,1.02,11.86
					c3.17,18.9,14.16,35.88,30.16,46.61c11.64,7.87,25.24,12.03,39.33,12.03c38.88,0,70.5-31.63,70.5-70.5
					c0-6.84-0.96-13.54-2.86-19.89c-0.32-1.06,0.29-2.17,1.34-2.49c1.06-0.32,2.17,0.29,2.49,1.34c2.01,6.73,3.03,13.8,3.03,21.03
					C858.25,68.62,824.83,102.04,783.75,102.04z"/>
			</g>
			<g>
				<path class="st2" d="M728.77,16.98c-0.15,0-0.3-0.02-0.45-0.05c-1.08-0.25-1.75-1.32-1.51-2.39
					c3.55-15.61,13.54-29.24,27.41-37.38c0.95-0.56,2.18-0.24,2.74,0.71c0.56,0.95,0.24,2.18-0.71,2.74
					c-12.92,7.59-22.22,20.28-25.53,34.82C730.51,16.35,729.68,16.98,728.77,16.98z"/>
			</g>
			<g>
				<path class="st2" d="M703.18,84.47c-0.56,0-1.11-0.23-1.5-0.68c-2.91-3.31-4.51-7.55-4.51-11.95c0-4.55,1.67-8.89,4.71-12.23
					c0.74-0.82,2.01-0.88,2.83-0.13c0.82,0.74,0.88,2.01,0.13,2.83c-2.36,2.6-3.67,5.98-3.67,9.53c0,3.42,1.25,6.73,3.52,9.31
					c0.73,0.83,0.65,2.09-0.18,2.82C704.12,84.31,703.65,84.47,703.18,84.47z"/>
			</g>
			<g>
				<path class="st2" d="M715.28,106.07c-18.87,0-34.22-15.35-34.22-34.22c0-17.78,13.35-32.44,31.05-34.1
					c1.11-0.11,2.08,0.71,2.18,1.8c0.1,1.1-0.71,2.08-1.8,2.18c-15.64,1.46-27.43,14.41-27.43,30.11
					c0,16.66,13.56,30.22,30.22,30.22c10.91,0,20.98-5.89,26.29-15.37c0.54-0.96,1.76-1.31,2.72-0.77c0.96,0.54,1.31,1.76,0.77,2.72
					C739.04,99.39,727.63,106.07,715.28,106.07z"/>
			</g>
			<g>
				<path class="st2" d="M699.17-26.85c-14.43,0-26.17-11.74-26.17-26.17s11.74-26.17,26.17-26.17s26.17,11.74,26.17,26.17
					C725.33-38.59,713.59-26.85,699.17-26.85z M699.17-75.19c-12.22,0-22.17,9.94-22.17,22.17s9.94,22.17,22.17,22.17
					c12.22,0,22.17-9.95,22.17-22.17C721.33-65.25,711.39-75.19,699.17-75.19z"/>
			</g>
			<g>
				<path class="st2" d="M691.11-51.02c-1.1,0-2-0.9-2-2c0-5.54,4.51-10.06,10.05-10.06c1.1,0,2,0.9,2,2s-0.9,2-2,2
					c-3.34,0-6.05,2.72-6.05,6.06C693.11-51.92,692.22-51.02,691.11-51.02z"/>
			</g>
			<g>
				<path class="st2" d="M836.12,13.43c-21.09,0-38.25-17.16-38.25-38.25s17.16-38.25,38.25-38.25s38.25,17.16,38.25,38.25
					S857.21,13.43,836.12,13.43z M836.12-59.08c-18.89,0-34.25,15.36-34.25,34.25s15.37,34.25,34.25,34.25
					c18.89,0,34.25-15.37,34.25-34.25S855-59.08,836.12-59.08z"/>
			</g>
			<g>
				<path class="st2" d="M815.98-22.83c-1.1,0-2-0.9-2-2c0-12.21,9.93-22.14,22.14-22.14c1.1,0,2,0.9,2,2s-0.9,2-2,2
					c-10,0-18.14,8.14-18.14,18.14C817.98-23.72,817.08-22.83,815.98-22.83z"/>
			</g>
			<g>
				<path class="st2" d="M872.37,118.15c-12.21,0-22.14-9.93-22.14-22.14s9.93-22.14,22.14-22.14s22.14,9.93,22.14,22.14
					S884.58,118.15,872.37,118.15z M872.37,77.87c-10,0-18.14,8.14-18.14,18.14s8.14,18.14,18.14,18.14s18.14-8.14,18.14-18.14
					S882.37,77.87,872.37,77.87z"/>
			</g>
			<g>
				<path class="st2" d="M864.31,98.01c-1.1,0-2-0.9-2-2c0-5.54,4.51-10.06,10.06-10.06c1.1,0,2,0.9,2,2s-0.9,2-2,2
					c-3.34,0-6.06,2.72-6.06,6.06C866.31,97.12,865.42,98.01,864.31,98.01z"/>
			</g>
			<g>
				<path class="st2" d="M876.4-67.13c-9.99,0-18.11-8.13-18.11-18.12c0-9.98,8.13-18.11,18.11-18.11c9.99,0,18.11,8.12,18.11,18.11
					S886.38-67.13,876.4-67.13z M876.4-99.35c-7.78,0-14.11,6.33-14.11,14.11s6.33,14.12,14.11,14.12c7.78,0,14.11-6.33,14.11-14.12
					S884.18-99.35,876.4-99.35z"/>
			</g>
			<g>
				<path class="st2" d="M743.47-75.19c-7.77,0-14.08-6.32-14.08-14.09c0-7.76,6.32-14.08,14.08-14.08
					c7.77,0,14.08,6.32,14.08,14.08C757.56-81.51,751.24-75.19,743.47-75.19z M743.47-99.35c-5.56,0-10.08,4.52-10.08,10.08
					c0,5.56,4.52,10.09,10.08,10.09s10.08-4.53,10.08-10.09C753.56-94.83,749.03-99.35,743.47-99.35z"/>
			</g>
		</g>
	</g>
	<g>
		<defs>
			<rect id="SVGID_7_" width="1350" height="750"/>
		</defs>
		<clipPath id="SVGID_8_">
			<use xlink:href="#SVGID_7_"  style="overflow:visible;"/>
		</clipPath>
		<g class="st5">
			<g>
				<path class="st2" d="M783.75,852.04c-14.89,0-29.26-4.4-41.56-12.71c-16.9-11.34-28.52-29.29-31.87-49.26
					c-0.71-4.11-1.07-8.33-1.07-12.53c0-41.08,33.42-74.5,74.5-74.5c7.22,0,14.3,1.02,21.03,3.02c1.06,0.32,1.66,1.43,1.35,2.49
					c-0.32,1.06-1.44,1.66-2.49,1.35c-6.36-1.89-13.05-2.86-19.89-2.86c-38.88,0-70.5,31.63-70.5,70.5c0,3.98,0.34,7.97,1.02,11.86
					c3.17,18.9,14.16,35.88,30.16,46.61c11.64,7.87,25.24,12.03,39.33,12.03c38.88,0,70.5-31.63,70.5-70.5
					c0-6.84-0.96-13.54-2.86-19.89c-0.32-1.06,0.29-2.17,1.34-2.49c1.06-0.32,2.17,0.29,2.49,1.34c2.01,6.73,3.03,13.8,3.03,21.03
					C858.25,818.62,824.83,852.04,783.75,852.04z"/>
			</g>
			<g>
				<path class="st2" d="M728.77,766.98c-0.15,0-0.3-0.02-0.45-0.05c-1.08-0.25-1.75-1.32-1.51-2.39
					c3.55-15.61,13.54-29.24,27.41-37.38c0.95-0.56,2.18-0.24,2.74,0.71s0.24,2.18-0.71,2.74c-12.92,7.59-22.22,20.28-25.53,34.82
					C730.51,766.35,729.68,766.98,728.77,766.98z"/>
			</g>
			<g>
				<path class="st2" d="M703.18,834.48c-0.56,0-1.11-0.23-1.5-0.68c-2.91-3.31-4.51-7.56-4.51-11.95c0-4.55,1.67-8.89,4.71-12.23
					c0.74-0.81,2.01-0.88,2.83-0.13c0.82,0.74,0.88,2.01,0.13,2.83c-2.36,2.6-3.67,5.98-3.67,9.54c0,3.42,1.25,6.73,3.52,9.31
					c0.73,0.83,0.65,2.09-0.18,2.82C704.12,834.31,703.65,834.48,703.18,834.48z"/>
			</g>
			<g>
				<path class="st2" d="M715.28,856.07c-18.87,0-34.22-15.35-34.22-34.22c0-17.78,13.35-32.44,31.05-34.1
					c1.11-0.11,2.08,0.71,2.18,1.8c0.1,1.1-0.71,2.08-1.8,2.18c-15.64,1.46-27.43,14.41-27.43,30.11
					c0,16.67,13.56,30.22,30.22,30.22c10.91,0,20.98-5.89,26.29-15.37c0.54-0.96,1.76-1.3,2.72-0.77c0.96,0.54,1.31,1.76,0.77,2.72
					C739.04,849.4,727.63,856.07,715.28,856.07z"/>
			</g>
			<g>
				<path class="st2" d="M699.17,723.15c-14.43,0-26.17-11.74-26.17-26.17s11.74-26.17,26.17-26.17s26.17,11.74,26.17,26.17
					C725.33,711.41,713.59,723.15,699.17,723.15z M699.17,674.81c-12.22,0-22.17,9.94-22.17,22.17s9.94,22.17,22.17,22.17
					c12.22,0,22.17-9.95,22.17-22.17C721.33,684.75,711.39,674.81,699.17,674.81z"/>
			</g>
			<g>
				<path class="st2" d="M691.11,698.98c-1.1,0-2-0.9-2-2c0-5.54,4.51-10.06,10.05-10.06c1.1,0,2,0.9,2,2s-0.9,2-2,2
					c-3.34,0-6.05,2.72-6.05,6.06C693.11,698.09,692.22,698.98,691.11,698.98z"/>
			</g>
			<g>
				<path class="st2" d="M836.12,763.43c-21.09,0-38.25-17.16-38.25-38.25s17.16-38.25,38.25-38.25s38.25,17.16,38.25,38.25
					S857.21,763.43,836.12,763.43z M836.12,690.92c-18.89,0-34.25,15.36-34.25,34.25s15.37,34.25,34.25,34.25
					c18.89,0,34.25-15.37,34.25-34.25S855,690.92,836.12,690.92z"/>
			</g>
			<g>
				<path class="st2" d="M815.98,727.17c-1.1,0-2-0.9-2-2c0-12.21,9.93-22.14,22.14-22.14c1.1,0,2,0.9,2,2s-0.9,2-2,2
					c-10,0-18.14,8.14-18.14,18.14C817.98,726.28,817.08,727.17,815.98,727.17z"/>
			</g>
			<g>
				<path class="st2" d="M872.37,868.15c-12.21,0-22.14-9.93-22.14-22.14s9.93-22.14,22.14-22.14s22.14,9.93,22.14,22.14
					C894.51,858.22,884.58,868.15,872.37,868.15z M872.37,827.87c-10,0-18.14,8.14-18.14,18.14s8.14,18.14,18.14,18.14
					s18.14-8.14,18.14-18.14S882.37,827.87,872.37,827.87z"/>
			</g>
			<g>
				<path class="st2" d="M864.31,848.01c-1.1,0-2-0.9-2-2c0-5.54,4.51-10.06,10.06-10.06c1.1,0,2,0.9,2,2s-0.9,2-2,2
					c-3.34,0-6.06,2.72-6.06,6.06C866.31,847.12,865.42,848.01,864.31,848.01z"/>
			</g>
			<g>
				<path class="st2" d="M876.4,682.87c-9.99,0-18.11-8.13-18.11-18.12s8.13-18.11,18.11-18.11c9.99,0,18.11,8.12,18.11,18.11
					S886.38,682.87,876.4,682.87z M876.4,650.65c-7.78,0-14.11,6.33-14.11,14.11c0,7.78,6.33,14.12,14.11,14.12
					c7.78,0,14.11-6.33,14.11-14.12C890.51,656.97,884.18,650.65,876.4,650.65z"/>
			</g>
			<g>
				<path class="st2" d="M759.33,674.81c-8.81,0-15.97-7.17-15.97-15.98c0-8.8,7.16-15.97,15.97-15.97s15.97,7.16,15.97,15.97
					C775.3,667.65,768.14,674.81,759.33,674.81z M759.33,646.87c-6.6,0-11.97,5.37-11.97,11.97s5.37,11.98,11.97,11.98
					s11.97-5.37,11.97-11.98C771.3,652.24,765.93,646.87,759.33,646.87z"/>
			</g>
		</g>
	</g>
	<g>
		<defs>
			<rect id="SVGID_9_" width="1350" height="750"/>
		</defs>
		<clipPath id="SVGID_10_">
			<use xlink:href="#SVGID_9_"  style="overflow:visible;"/>
		</clipPath>
		<g class="st6">
			<g>
				<path class="st2" d="M540.52,212.86c-15.52,0-28.15-12.63-28.15-28.15s12.63-28.15,28.15-28.15s28.15,12.63,28.15,28.15
					c0,1.01-0.04,1.78-0.12,2.5c-0.13,1.1-1.13,1.86-2.22,1.75c-1.1-0.13-1.88-1.13-1.75-2.22c0.07-0.56,0.1-1.18,0.1-2.03
					c0-13.32-10.84-24.15-24.15-24.15c-13.32,0-24.15,10.83-24.15,24.15s10.83,24.15,24.15,24.15c0.85,0,1.48-0.03,2.03-0.1
					c1.1-0.13,2.09,0.65,2.23,1.74c0.13,1.1-0.65,2.09-1.74,2.23C542.1,212.85,541.2,212.86,540.52,212.86z"/>
			</g>
			<g>
				<path class="st2" d="M525.88,191.04c-0.86,0-1.66-0.56-1.92-1.44c-0.47-1.58-0.7-3.23-0.7-4.9c0-6.65,3.72-12.6,9.7-15.52
					c0.99-0.48,2.19-0.07,2.67,0.92s0.07,2.19-0.92,2.67c-4.6,2.24-7.45,6.81-7.45,11.93c0,1.28,0.18,2.55,0.54,3.77
					c0.31,1.06-0.29,2.17-1.35,2.48C526.26,191.02,526.07,191.04,525.88,191.04z"/>
			</g>
			<g>
				<path class="st2" d="M579.74,265.17c-22.73,0-41.23-18.5-41.23-41.23s18.5-41.23,41.23-41.23c22.74,0,41.23,18.5,41.23,41.23
					C620.98,246.67,602.48,265.17,579.74,265.17z M579.74,186.71c-20.53,0-37.23,16.7-37.23,37.23s16.7,37.23,37.23,37.23
					c20.53,0,37.23-16.7,37.23-37.23S600.27,186.71,579.74,186.71z"/>
			</g>
			<g>
				<path class="st2" d="M579.74,254.27c-13.73,0-25.79-9.26-29.31-22.52c-0.28-1.07,0.35-2.16,1.42-2.45
					c1.07-0.28,2.16,0.35,2.45,1.42c3.06,11.51,13.53,19.55,25.45,19.55c1.1,0,2,0.9,2,2C581.74,253.38,580.85,254.27,579.74,254.27
					z"/>
			</g>
			<g>
				<path class="st2" d="M554.6,212.86c-0.31,0-0.63-0.07-0.92-0.23c-0.98-0.51-1.36-1.72-0.85-2.7
					c2.89-5.55,7.36-10.02,12.91-12.91c0.98-0.51,2.19-0.13,2.7,0.85c0.51,0.98,0.13,2.19-0.85,2.7c-4.82,2.51-8.7,6.39-11.21,11.22
					C556.02,212.47,555.33,212.86,554.6,212.86z"/>
			</g>
		</g>
	</g>
	<g>
		<defs>
			<rect id="SVGID_11_" width="1350" height="750"/>
		</defs>
		<clipPath id="SVGID_12_">
			<use xlink:href="#SVGID_11_"  style="overflow:visible;"/>
		</clipPath>
		<g class="st7">
			<g>
				<path class="st2" d="M1047.5,179.35c-1.08,0-1.91-0.04-2.69-0.13c-1.1-0.13-1.88-1.12-1.75-2.22s1.14-1.88,2.22-1.75
					c0.61,0.07,1.29,0.1,2.22,0.1c14.5,0,26.3-11.8,26.3-26.3s-11.8-26.3-26.3-26.3s-26.3,11.8-26.3,26.3
					c0,0.63,0.01,1.44,0.11,2.21c0.13,1.1-0.65,2.09-1.74,2.23c-1.1,0.13-2.09-0.65-2.23-1.74c-0.12-0.98-0.13-1.96-0.13-2.69
					c0-16.71,13.59-30.3,30.3-30.3s30.3,13.59,30.3,30.3S1064.21,179.35,1047.5,179.35z"/>
			</g>
			<g>
				<path class="st2" d="M1062.35,143.82c-0.74,0-1.45-0.41-1.8-1.12c-2.45-5.03-7.45-8.16-13.05-8.16c-1.4,0-2.79,0.2-4.13,0.59
					c-1.06,0.31-2.17-0.29-2.48-1.35c-0.31-1.06,0.29-2.17,1.35-2.48c1.7-0.5,3.47-0.75,5.25-0.75c7.14,0,13.52,3.99,16.65,10.4
					c0.48,0.99,0.07,2.19-0.92,2.67C1062.94,143.75,1062.65,143.82,1062.35,143.82z"/>
			</g>
			<g>
				<path class="st2" d="M1005.05,235.96c-24.51,0-44.45-19.94-44.45-44.46c0-24.51,19.94-44.45,44.45-44.45
					c24.51,0,44.45,19.94,44.45,44.45S1029.56,235.96,1005.05,235.96z M1005.05,151.05c-22.31,0-40.45,18.15-40.45,40.45
					c0,22.31,18.15,40.46,40.45,40.46s40.45-18.15,40.45-40.46C1045.5,169.2,1027.35,151.05,1005.05,151.05z"/>
			</g>
			<g>
				<path class="st2" d="M974.39,193.5c-1.1,0-2-0.9-2-2c0-14.79,9.97-27.76,24.25-31.56c1.07-0.29,2.16,0.35,2.45,1.42
					c0.28,1.07-0.35,2.16-1.42,2.45c-12.53,3.33-21.27,14.72-21.27,27.7C976.39,192.6,975.49,193.5,974.39,193.5z"/>
			</g>
			<g>
				<path class="st2" d="M1032.25,179.35c-0.72,0-1.42-0.39-1.78-1.08c-2.74-5.25-6.96-9.47-12.2-12.2
					c-0.98-0.51-1.36-1.72-0.85-2.7s1.72-1.36,2.7-0.85c5.98,3.12,10.79,7.92,13.9,13.9c0.51,0.98,0.13,2.19-0.85,2.7
					C1032.88,179.27,1032.57,179.35,1032.25,179.35z"/>
			</g>
		</g>
	</g>
	<g>
		<defs>
			<rect id="SVGID_13_" width="1350" height="750"/>
		</defs>
		<clipPath id="SVGID_14_">
			<use xlink:href="#SVGID_13_"  style="overflow:visible;"/>
		</clipPath>
		<g class="st8">
			<g>
				<path class="st2" d="M302.64,265.64c-0.87,0-1.68-0.58-1.92-1.46c-1.2-4.28-1.81-8.8-1.81-13.45c0-18.15,9.77-35.13,25.49-44.32
					c0.96-0.56,2.18-0.24,2.74,0.72c0.56,0.95,0.24,2.18-0.72,2.74c-14.5,8.47-23.51,24.13-23.51,40.87c0,4.28,0.56,8.44,1.66,12.37
					c0.3,1.06-0.32,2.17-1.38,2.47C303,265.61,302.82,265.64,302.64,265.64z"/>
			</g>
			<g>
				<path class="st2" d="M350.21,319.63c-10.26,0-20.11-2.2-29.27-6.53c-18.32-8.62-31.87-24.72-37.17-44.18
					c-1.63-5.81-2.46-11.94-2.46-18.2c0-37.99,30.91-68.91,68.9-68.91c5.33,0,10.6,0.61,15.67,1.82c1.08,0.26,1.74,1.33,1.48,2.41
					c-0.26,1.08-1.34,1.73-2.41,1.48c-4.77-1.13-9.73-1.71-14.75-1.71c-35.79,0-64.9,29.12-64.9,64.91c0,5.89,0.78,11.66,2.32,17.13
					c4.99,18.34,17.75,33.51,35.02,41.63c8.63,4.08,17.9,6.14,27.57,6.14c8.02,0,15.86-1.46,23.29-4.34
					c18.47-7.09,32.95-22.6,38.74-41.51c1.91-6.13,2.87-12.54,2.87-19.06c0-7.94-1.42-15.69-4.23-23.02
					c-0.4-1.03,0.12-2.19,1.15-2.58c1.03-0.4,2.19,0.12,2.58,1.15c2.99,7.79,4.5,16.02,4.5,24.45c0,6.92-1.03,13.73-3.05,20.24
					c-6.15,20.06-21.52,36.54-41.12,44.06C367.04,318.08,358.72,319.63,350.21,319.63z"/>
			</g>
			<g>
				<path class="st2" d="M399.5,231.6c-20.52,0-37.21-16.69-37.21-37.21s16.69-37.21,37.21-37.21s37.21,16.69,37.21,37.21
					S420.02,231.6,399.5,231.6z M399.5,161.17c-18.31,0-33.21,14.9-33.21,33.21s14.9,33.21,33.21,33.21s33.21-14.9,33.21-33.21
					S417.82,161.17,399.5,161.17z"/>
			</g>
			<g>
				<path class="st2" d="M381.9,196.39c-1.1,0-2-0.9-2-2c0-10.81,8.79-19.61,19.61-19.61c1.1,0,2,0.9,2,2s-0.9,2-2,2
					c-8.6,0-15.61,7-15.61,15.61C383.9,195.49,383,196.39,381.9,196.39z"/>
			</g>
			<g>
				<path class="st2" d="M265.7,199.91c-12.75,0-23.13-10.38-23.13-23.13s10.38-23.13,23.13-23.13s23.13,10.38,23.13,23.13
					C288.82,189.53,278.45,199.91,265.7,199.91z M265.7,157.65c-10.55,0-19.13,8.58-19.13,19.13s8.58,19.13,19.13,19.13
					c10.55,0,19.13-8.58,19.13-19.13C284.82,166.23,276.24,157.65,265.7,157.65z"/>
			</g>
			<g>
				<path class="st2" d="M283.3,330.19c-12.75,0-23.13-10.38-23.13-23.13c0-2.68,0.46-5.3,1.36-7.8c0.37-1.04,1.52-1.58,2.56-1.21
					s1.58,1.52,1.21,2.56c-0.74,2.06-1.12,4.23-1.12,6.45c0,10.55,8.58,19.13,19.13,19.13c1.1,0,2,0.9,2,2
					C285.3,329.3,284.41,330.19,283.3,330.19z"/>
			</g>
			<g>
				<path class="st2" d="M283.3,347.8c-22.46,0-40.73-18.27-40.73-40.73c0-22.46,18.27-40.73,40.73-40.73
					c0.83,0,1.62,0.03,2.45,0.07c1.1,0.05,1.98,0.98,1.93,2.09c-0.05,1.1-0.97,1.97-2.07,1.91h-0.03c-0.77-0.03-1.5-0.07-2.27-0.07
					c-20.25,0-36.73,16.48-36.73,36.73s16.48,36.73,36.73,36.73c18.81,0,34.5-14.06,36.5-32.72c0.12-1.1,1.12-1.89,2.2-1.78
					c1.1,0.12,1.89,1.1,1.78,2.2C321.56,332.2,304.16,347.8,283.3,347.8z"/>
			</g>
			<g>
				<path class="st2" d="M403.02,333.71c-13.1,0-25.06-7.66-30.53-19.53c-0.18-0.3-0.29-0.65-0.29-1.02c0-1.1,0.88-2,1.98-2h0.03
					c0.79,0,1.5,0.46,1.82,1.17c4.79,10.56,15.38,17.38,26.98,17.38c16.37,0,29.69-13.32,29.69-29.69
					c0-12.32-7.74-23.49-19.26-27.78c-1.04-0.38-1.56-1.54-1.18-2.57c0.38-1.04,1.54-1.56,2.57-1.18
					c13.08,4.87,21.87,17.54,21.87,31.52C436.71,318.6,421.6,333.71,403.02,333.71z"/>
			</g>
		</g>
	</g>
	<g>
		<defs>
			<rect id="SVGID_15_" width="1350" height="750"/>
		</defs>
		<clipPath id="SVGID_16_">
			<use xlink:href="#SVGID_15_"  style="overflow:visible;"/>
		</clipPath>
		<g class="st9">
			<g>
				<path class="st2" d="M1304,589.58c-15.13,0-29.55-4.66-41.72-13.48c-11.96-8.59-20.83-20.4-25.65-34.16
					c-2.71-7.6-4.08-15.62-4.08-23.82c0-4.91,0.5-9.8,1.5-14.54c5.09-24.81,23.21-45.22,47.3-53.25c7.27-2.44,14.9-3.67,22.66-3.67
					c39.4,0,71.46,32.06,71.46,71.46c0,8.79-1.58,17.39-4.69,25.55c-0.39,1.03-1.55,1.55-2.58,1.16c-1.03-0.39-1.55-1.55-1.16-2.58
					c2.94-7.71,4.43-15.82,4.43-24.13c0-37.2-30.26-67.46-67.46-67.46c-7.33,0-14.53,1.17-21.39,3.47
					c-22.74,7.58-39.84,26.84-44.65,50.26c-0.94,4.47-1.42,9.09-1.42,13.73c0,7.74,1.3,15.3,3.85,22.48
					c4.55,12.99,12.93,24.14,24.22,32.25c11.49,8.33,25.11,12.73,39.38,12.73c5.02,0,10.03-0.56,14.91-1.67
					c1.08-0.24,2.15,0.43,2.39,1.51c0.25,1.08-0.43,2.15-1.51,2.39C1314.63,588.99,1309.31,589.58,1304,589.58z"/>
			</g>
			<g>
				<path class="st2" d="M1283.82,569.06c-0.26,0-0.52-0.05-0.77-0.15c-3.91-1.63-7.66-3.72-11.13-6.23
					c-9.19-6.6-16.01-15.7-19.72-26.29c-0.37-1.04,0.18-2.18,1.23-2.55c1.04-0.36,2.18,0.18,2.55,1.23
					c3.44,9.82,9.76,18.24,18.29,24.37c3.23,2.33,6.7,4.28,10.33,5.79c1.02,0.42,1.5,1.59,1.08,2.61
					C1285.35,568.6,1284.6,569.06,1283.82,569.06z"/>
			</g>
			<g>
				<path class="st2" d="M1253.57,504.04c-0.2,0-0.4-0.03-0.61-0.09c-1.05-0.33-1.64-1.46-1.3-2.51
					c2.16-6.81,5.59-13.06,10.21-18.57c0.71-0.85,1.97-0.96,2.82-0.25s0.96,1.97,0.25,2.82c-4.28,5.12-7.47,10.91-9.47,17.22
					C1255.2,503.5,1254.42,504.04,1253.57,504.04z"/>
			</g>
			<g>
				<path class="st2" d="M1347,602.81c-19.34,0-35.08-15.74-35.08-35.08s15.73-35.07,35.08-35.07s35.08,15.73,35.08,35.07
					C1382.07,587.08,1366.34,602.81,1347,602.81z M1347,536.66c-17.13,0-31.08,13.94-31.08,31.07c0,17.14,13.94,31.08,31.08,31.08
					s31.08-13.94,31.08-31.08C1378.07,550.6,1364.13,536.66,1347,536.66z"/>
			</g>
			<g>
				<path class="st2" d="M1347,586.28c-10.22,0-18.54-8.32-18.54-18.54c0-1.1,0.9-2,2-2s2,0.9,2,2c0,8.02,6.52,14.54,14.54,14.54
					c1.1,0,2,0.9,2,2S1348.1,586.28,1347,586.28z"/>
			</g>
			<g>
				<path class="st2" d="M1236,506c-0.14,0-0.29-0.01-0.43-0.05c-19-4.15-32.8-21.29-32.8-40.75c0-22.99,18.7-41.69,41.69-41.69
					c17.78,0,33.62,11.28,39.4,28.07c0.36,1.04-0.2,2.18-1.24,2.54c-1.05,0.36-2.18-0.19-2.54-1.24
					c-5.23-15.18-19.54-25.38-35.62-25.38c-20.78,0-37.69,16.91-37.69,37.69c0,17.59,12.47,33.09,29.65,36.84
					c1.08,0.24,1.76,1.3,1.53,2.38C1237.75,505.36,1236.92,506,1236,506z"/>
			</g>
			<g>
				<path class="st2" d="M1224.79,479.34c-0.67,0-1.32-0.34-1.7-0.95c-2.47-3.99-3.78-8.55-3.78-13.19c0-4.56,1.24-9.03,3.59-12.94
					c0.57-0.95,1.8-1.25,2.75-0.68s1.25,1.8,0.68,2.75c-1.97,3.28-3.02,7.04-3.02,10.87c0,3.9,1.1,7.73,3.18,11.08
					c0.58,0.94,0.29,2.17-0.65,2.75C1225.51,479.24,1225.15,479.34,1224.79,479.34z"/>
			</g>
			<g>
				<path class="st2" d="M1366.84,457.28c-10.22,0-18.54-8.32-18.54-18.54s8.32-18.54,18.54-18.54s18.54,8.32,18.54,18.54
					S1377.06,457.28,1366.84,457.28z M1366.84,424.2c-8.02,0-14.54,6.52-14.54,14.54s6.52,14.54,14.54,14.54s14.54-6.52,14.54-14.54
					S1374.86,424.2,1366.84,424.2z"/>
			</g>
			<g>
				<path class="st2" d="M1237.85,596.2c-15.69,0-28.46-12.77-28.46-28.46s12.77-28.46,28.46-28.46h0.66c1.1,0,2,0.9,2,2s-0.9,2-2,2
					h-0.66c-13.49,0-24.46,10.97-24.46,24.46c0,13.49,10.97,24.46,24.46,24.46c11.12,0,20.85-7.49,23.67-18.22
					c0.28-1.07,1.37-1.71,2.44-1.43s1.71,1.37,1.43,2.44C1262.11,587.48,1250.78,596.2,1237.85,596.2z"/>
			</g>
			<g>
				<path class="st2" d="M1237.85,579.66c-6.57,0-11.92-5.35-11.92-11.92c0-1.1,0.9-2,2-2s2,0.9,2,2c0,4.37,3.55,7.92,7.92,7.92
					c1.1,0,2,0.9,2,2C1239.85,578.76,1238.95,579.66,1237.85,579.66z"/>
			</g>
		</g>
	</g>
	<g>
		<defs>
			<rect id="SVGID_17_" width="1350" height="750"/>
		</defs>
		<clipPath id="SVGID_18_">
			<use xlink:href="#SVGID_17_"  style="overflow:visible;"/>
		</clipPath>
		<g class="st10">
			<g>
				<path class="st2" d="M-46,589.58c-15.13,0-29.55-4.66-41.72-13.48c-11.96-8.59-20.83-20.4-25.65-34.16
					c-2.71-7.6-4.08-15.62-4.08-23.82c0-4.91,0.5-9.8,1.5-14.54c5.09-24.81,23.21-45.22,47.3-53.25c7.27-2.44,14.9-3.67,22.66-3.67
					c39.4,0,71.46,32.06,71.46,71.46c0,8.79-1.58,17.39-4.69,25.55c-0.39,1.03-1.55,1.55-2.58,1.16s-1.55-1.55-1.16-2.58
					c2.94-7.71,4.43-15.82,4.43-24.13c0-37.2-30.26-67.46-67.46-67.46c-7.33,0-14.53,1.17-21.39,3.47
					c-22.74,7.58-39.84,26.84-44.65,50.26c-0.94,4.48-1.42,9.09-1.42,13.73c0,7.74,1.3,15.3,3.85,22.48
					c4.55,12.99,12.93,24.14,24.22,32.25c11.49,8.33,25.11,12.72,39.38,12.72c5.02,0,10.03-0.56,14.91-1.67
					c1.08-0.24,2.15,0.43,2.39,1.51c0.25,1.08-0.43,2.15-1.51,2.39C-35.37,588.99-40.68,589.58-46,589.58z"/>
			</g>
			<g>
				<path class="st2" d="M-66.18,569.06c-0.26,0-0.52-0.05-0.77-0.15c-3.91-1.62-7.65-3.72-11.13-6.23
					c-9.19-6.6-16.01-15.7-19.72-26.29c-0.37-1.04,0.18-2.18,1.23-2.55c1.04-0.36,2.18,0.18,2.55,1.23
					c3.44,9.82,9.76,18.24,18.29,24.37c3.23,2.33,6.7,4.28,10.33,5.79c1.02,0.42,1.5,1.59,1.08,2.61
					C-64.65,568.6-65.4,569.06-66.18,569.06z"/>
			</g>
			<g>
				<path class="st2" d="M-96.43,504.04c-0.2,0-0.4-0.03-0.61-0.09c-1.05-0.33-1.64-1.46-1.3-2.51c2.16-6.81,5.59-13.05,10.21-18.57
					c0.71-0.85,1.97-0.96,2.82-0.25s0.96,1.97,0.25,2.82c-4.28,5.12-7.47,10.91-9.47,17.22C-94.79,503.5-95.58,504.04-96.43,504.04z
					"/>
			</g>
			<g>
				<path class="st2" d="M-3,602.81c-19.34,0-35.08-15.74-35.08-35.08S-22.34,532.66-3,532.66s35.08,15.73,35.08,35.07
					C32.07,587.08,16.34,602.81-3,602.81z M-3,536.66c-17.14,0-31.08,13.94-31.08,31.07c0,17.14,13.94,31.08,31.08,31.08
					c17.13,0,31.08-13.94,31.08-31.08C28.07,550.6,14.13,536.66-3,536.66z"/>
			</g>
			<g>
				<path class="st2" d="M-3,586.28c-10.22,0-18.54-8.32-18.54-18.54c0-1.1,0.9-2,2-2s2,0.9,2,2c0,8.02,6.52,14.54,14.54,14.54
					c1.1,0,2,0.9,2,2S-1.9,586.28-3,586.28z"/>
			</g>
			<g>
				<path class="st2" d="M-114,506c-0.14,0-0.29-0.01-0.43-0.05c-19-4.15-32.8-21.29-32.8-40.75c0-22.99,18.7-41.69,41.69-41.69
					c17.78,0,33.62,11.28,39.4,28.07c0.36,1.04-0.2,2.18-1.24,2.54c-1.05,0.36-2.18-0.19-2.54-1.24
					c-5.23-15.18-19.54-25.38-35.62-25.38c-20.78,0-37.69,16.91-37.69,37.69c0,17.59,12.47,33.09,29.65,36.84
					c1.08,0.24,1.76,1.3,1.53,2.38C-112.25,505.36-113.08,506-114,506z"/>
			</g>
			<g>
				<path class="st2" d="M-125.21,479.34c-0.67,0-1.32-0.34-1.7-0.95c-2.47-3.99-3.78-8.55-3.78-13.19c0-4.56,1.24-9.04,3.59-12.94
					c0.57-0.95,1.8-1.25,2.75-0.68s1.25,1.8,0.68,2.75c-1.97,3.28-3.02,7.04-3.02,10.87c0,3.9,1.1,7.73,3.18,11.08
					c0.58,0.94,0.29,2.17-0.65,2.75C-124.49,479.24-124.85,479.34-125.21,479.34z"/>
			</g>
			<g>
				<path class="st2" d="M16.84,457.28c-10.22,0-18.54-8.32-18.54-18.54s8.32-18.54,18.54-18.54s18.54,8.32,18.54,18.54
					S27.06,457.28,16.84,457.28z M16.84,424.2c-8.02,0-14.54,6.52-14.54,14.54s6.52,14.54,14.54,14.54s14.54-6.52,14.54-14.54
					S24.86,424.2,16.84,424.2z"/>
			</g>
			<g>
				<path class="st2" d="M-112.15,596.2c-15.69,0-28.46-12.77-28.46-28.46s12.77-28.46,28.46-28.46h0.66c1.1,0,2,0.9,2,2s-0.9,2-2,2
					h-0.66c-13.49,0-24.46,10.97-24.46,24.46c0,13.49,10.97,24.46,24.46,24.46c11.12,0,20.85-7.49,23.67-18.22
					c0.28-1.07,1.37-1.71,2.44-1.43s1.71,1.37,1.43,2.44C-87.89,587.48-99.22,596.2-112.15,596.2z"/>
			</g>
			<g>
				<path class="st2" d="M-112.15,579.66c-6.57,0-11.92-5.35-11.92-11.92c0-1.1,0.9-2,2-2s2,0.9,2,2c0,4.37,3.55,7.92,7.92,7.92
					c1.1,0,2,0.9,2,2C-110.15,578.76-111.05,579.66-112.15,579.66z"/>
			</g>
		</g>
	</g>
	<g>
		<defs>
			<rect id="SVGID_19_" width="1350" height="750"/>
		</defs>
		<clipPath id="SVGID_20_">
			<use xlink:href="#SVGID_19_"  style="overflow:visible;"/>
		</clipPath>
		<g class="st11">
			<g>
				<path class="st2" d="M384.74,586.84c-35.34,0-64.09-28.75-64.09-64.09s28.75-64.09,64.09-64.09s64.09,28.75,64.09,64.09
					S420.08,586.84,384.74,586.84z M384.74,462.65c-33.14,0-60.09,26.96-60.09,60.09s26.96,60.09,60.09,60.09
					c33.14,0,60.09-26.96,60.09-60.09S417.88,462.65,384.74,462.65z"/>
			</g>
			<g>
				<path class="st2" d="M344.4,534.06c-0.91,0-1.73-0.63-1.95-1.55c-0.73-3.19-1.11-6.47-1.11-9.76c0-13.74,6.32-26.38,17.34-34.68
					c0.88-0.66,2.14-0.49,2.8,0.39c0.66,0.88,0.49,2.14-0.39,2.8c-10.01,7.54-15.75,19.01-15.75,31.49c0,2.99,0.34,5.97,1,8.87
					c0.25,1.08-0.42,2.15-1.5,2.4C344.7,534.04,344.54,534.06,344.4,534.06z"/>
			</g>
			<g>
				<path class="st2" d="M455.11,615.81c-10.23,0-18.56-8.33-18.56-18.56s8.32-18.56,18.56-18.56c10.23,0,18.56,8.33,18.56,18.56
					S465.34,615.81,455.11,615.81z M455.11,582.7c-8.03,0-14.56,6.53-14.56,14.56c0,8.03,6.53,14.56,14.56,14.56
					s14.56-6.53,14.56-14.56C469.67,589.23,463.14,582.7,455.11,582.7z"/>
			</g>
			<g>
				<path class="st2" d="M297.81,615.81c-14.8,0-26.84-12.04-26.84-26.84c0-14.8,12.04-26.84,26.84-26.84s26.84,12.04,26.84,26.84
					S312.61,615.81,297.81,615.81z M297.81,566.14c-12.59,0-22.84,10.25-22.84,22.84s10.24,22.84,22.84,22.84
					c12.59,0,22.84-10.25,22.84-22.84C320.65,576.38,310.4,566.14,297.81,566.14z"/>
			</g>
			<g>
				<path class="st2" d="M442.69,462.65c-12.52,0-22.7-10.18-22.7-22.7c0-12.52,10.18-22.7,22.7-22.7c12.52,0,22.7,10.18,22.7,22.7
					S455.21,462.65,442.69,462.65z M442.69,421.25c-10.31,0-18.7,8.39-18.7,18.7s8.39,18.7,18.7,18.7s18.7-8.39,18.7-18.7
					S453,421.25,442.69,421.25z"/>
			</g>
			<g>
				<path class="st2" d="M409.58,417.11c-7.95,0-14.42-6.47-14.42-14.42s6.47-14.42,14.42-14.42S424,394.74,424,402.69
					C424,410.65,417.53,417.11,409.58,417.11z M409.58,392.28c-5.75,0-10.42,4.67-10.42,10.42c0,5.74,4.67,10.42,10.42,10.42
					S420,408.45,420,402.7S415.32,392.28,409.58,392.28z"/>
			</g>
			<g>
				<path class="st2" d="M281.25,499.9c-19.36,0-35.12-15.75-35.12-35.12c0-19.36,15.75-35.12,35.12-35.12s35.12,15.75,35.12,35.12
					S300.61,499.9,281.25,499.9z M281.25,433.67c-17.16,0-31.12,13.96-31.12,31.12s13.96,31.12,31.12,31.12s31.12-13.96,31.12-31.12
					S298.41,433.67,281.25,433.67z"/>
			</g>
			<g>
				<path class="st2" d="M309.15,448.94c-0.59,0-1.17-0.26-1.57-0.75c-0.69-0.86-0.55-2.12,0.32-2.81c5.47-4.35,8.6-10.86,8.6-17.85
					c0-12.59-10.24-22.84-22.84-22.84c-12.59,0-22.84,10.24-22.84,22.84c0,1.94,0.26,3.86,0.76,5.73c0.29,1.07-0.34,2.17-1.41,2.45
					s-2.16-0.34-2.45-1.41c-0.6-2.21-0.9-4.48-0.9-6.77c0-14.8,12.04-26.84,26.84-26.84s26.84,12.04,26.84,26.84
					c0,8.21-3.68,15.86-10.11,20.98C310.03,448.8,309.59,448.94,309.15,448.94z"/>
			</g>
		</g>
	</g>
	<g>
		<defs>
			<rect id="SVGID_21_" width="1350" height="750"/>
		</defs>
		<clipPath id="SVGID_22_">
			<use xlink:href="#SVGID_21_"  style="overflow:visible;"/>
		</clipPath>
		<g class="st12">
			<g>
				<path class="st2" d="M147.87,469.45c-3.75,0-7.46-0.45-11.05-1.35c-1.07-0.27-1.72-1.35-1.46-2.42
					c0.27-1.07,1.37-1.72,2.42-1.46c3.27,0.82,6.66,1.23,10.08,1.23c23.04,0,41.78-18.74,41.78-41.77
					c0-23.04-18.74-41.78-41.78-41.78c-23.03,0-41.77,18.74-41.77,41.78c0,3.41,0.41,6.8,1.23,10.08c0.27,1.07-0.39,2.16-1.46,2.42
					s-2.16-0.39-2.42-1.46c-0.89-3.59-1.34-7.3-1.34-11.04c0-25.24,20.53-45.78,45.77-45.78s45.78,20.54,45.78,45.78
					C193.64,448.92,173.11,469.45,147.87,469.45z"/>
			</g>
			<g>
				<path class="st2" d="M118.58,409.74c-0.32,0-0.65-0.08-0.96-0.25c-0.97-0.53-1.33-1.75-0.79-2.71
					c3.23-5.92,8.06-10.77,13.95-14.03c0.97-0.54,2.18-0.19,2.72,0.78c0.54,0.97,0.19,2.18-0.78,2.72
					c-5.23,2.9-9.51,7.2-12.38,12.46C119.97,409.36,119.29,409.74,118.58,409.74z"/>
			</g>
			<g>
				<path class="st2" d="M152.19,458.75c-0.99,0-1.85-0.73-1.98-1.74c-0.14-1.09,0.63-2.1,1.73-2.24
					c11.17-1.45,20.74-8.86,24.99-19.33c0.42-1.02,1.58-1.52,2.61-1.1c1.02,0.42,1.52,1.58,1.1,2.61
					c-4.79,11.8-15.59,20.16-28.18,21.79C152.37,458.75,152.28,458.75,152.19,458.75z"/>
			</g>
			<g>
				<path class="st2" d="M108.27,494.47c-17.19,0-31.18-13.99-31.18-31.18s13.99-31.18,31.18-31.18s31.18,13.99,31.18,31.18
					C139.44,480.48,125.46,494.47,108.27,494.47z M108.27,436.1c-14.99,0-27.18,12.19-27.18,27.18s12.19,27.18,27.18,27.18
					s27.18-12.19,27.18-27.18C135.44,448.3,123.25,436.1,108.27,436.1z"/>
			</g>
			<g>
				<path class="st2" d="M97.78,480.84c-0.39,0-0.78-0.11-1.12-0.34c-5.74-3.88-9.16-10.31-9.16-17.21c0-3.23,0.72-6.33,2.15-9.21
					c0.49-0.99,1.69-1.4,2.68-0.9c0.99,0.49,1.39,1.69,0.9,2.68c-1.15,2.32-1.74,4.82-1.74,7.43c0,5.57,2.77,10.76,7.4,13.9
					c0.91,0.62,1.16,1.86,0.54,2.78C99.06,480.53,98.43,480.84,97.78,480.84z"/>
			</g>
		</g>
	</g>
	<g>
		<defs>
			<rect id="SVGID_23_" width="1350" height="750"/>
		</defs>
		<clipPath id="SVGID_24_">
			<use xlink:href="#SVGID_23_"  style="overflow:visible;"/>
		</clipPath>
		<g class="st13">
			<g>
				<path class="st2" d="M1237.12,38.47c-4.34,0-8.65-0.53-12.81-1.56c-1.07-0.27-1.72-1.35-1.46-2.42
					c0.27-1.07,1.36-1.72,2.42-1.46c3.84,0.96,7.83,1.45,11.84,1.45c27.05,0,49.06-22.01,49.06-49.06s-22.01-49.06-49.06-49.06
					s-49.06,22.01-49.06,49.06c0,4.01,0.48,7.99,1.44,11.84c0.27,1.07-0.39,2.16-1.46,2.42c-1.07,0.27-2.16-0.39-2.42-1.46
					c-1.03-4.16-1.56-8.47-1.56-12.8c0-29.26,23.8-53.06,53.06-53.06s53.06,23.8,53.06,53.06
					C1290.18,14.67,1266.38,38.47,1237.12,38.47z"/>
			</g>
			<g>
				<path class="st2" d="M1202.95-31.19c-0.32,0-0.65-0.08-0.96-0.25c-0.97-0.53-1.33-1.75-0.79-2.71
					c3.74-6.84,9.32-12.46,16.14-16.24c0.97-0.54,2.18-0.19,2.72,0.78c0.54,0.97,0.19,2.18-0.78,2.72
					c-6.15,3.41-11.19,8.48-14.57,14.66C1204.35-31.56,1203.66-31.19,1202.95-31.19z"/>
			</g>
			<g>
				<path class="st2" d="M1242.16,25.99c-0.99,0-1.85-0.73-1.98-1.74c-0.14-1.1,0.63-2.1,1.73-2.24
					c13.14-1.71,24.42-10.43,29.42-22.75c0.42-1.02,1.58-1.52,2.61-1.1c1.02,0.42,1.52,1.58,1.1,2.61
					c-5.54,13.66-18.04,23.32-32.61,25.22C1242.34,25.98,1242.25,25.99,1242.16,25.99z"/>
			</g>
			<g>
				<path class="st2" d="M1190.92,67.65c-19.87,0-36.04-16.17-36.04-36.04s16.17-36.04,36.04-36.04s36.03,16.17,36.03,36.04
					C1226.96,51.48,1210.79,67.65,1190.92,67.65z M1190.92-0.43c-17.67,0-32.04,14.37-32.04,32.04s14.37,32.04,32.04,32.04
					c17.66,0,32.03-14.37,32.03-32.04C1222.96,13.94,1208.59-0.43,1190.92-0.43z"/>
			</g>
			<g>
				<path class="st2" d="M1178.7,51.75c-0.39,0-0.78-0.11-1.12-0.34c-6.6-4.46-10.54-11.86-10.54-19.8c0-3.71,0.83-7.28,2.48-10.59
					c0.49-0.99,1.69-1.4,2.68-0.9c0.99,0.49,1.39,1.69,0.9,2.68c-1.37,2.75-2.06,5.72-2.06,8.81c0,6.6,3.28,12.77,8.78,16.49
					c0.92,0.62,1.16,1.86,0.54,2.78C1179.97,51.44,1179.34,51.75,1178.7,51.75z"/>
			</g>
		</g>
	</g>
	<g>
		<defs>
			<rect id="SVGID_25_" width="1350" height="750"/>
		</defs>
		<clipPath id="SVGID_26_">
			<use xlink:href="#SVGID_25_"  style="overflow:visible;"/>
		</clipPath>
		<g class="st14">
			<g>
				<path class="st2" d="M1237.12,788.47c-4.34,0-8.65-0.53-12.81-1.56c-1.07-0.27-1.72-1.35-1.46-2.42
					c0.27-1.07,1.36-1.72,2.42-1.46c3.84,0.96,7.82,1.45,11.84,1.45c27.05,0,49.06-22.01,49.06-49.06s-22.01-49.06-49.06-49.06
					s-49.06,22.01-49.06,49.06c0,4.01,0.48,7.99,1.44,11.83c0.27,1.07-0.39,2.16-1.46,2.42s-2.16-0.39-2.42-1.46
					c-1.03-4.16-1.56-8.47-1.56-12.8c0-29.26,23.8-53.06,53.06-53.06s53.06,23.8,53.06,53.06
					C1290.18,764.67,1266.38,788.47,1237.12,788.47z"/>
			</g>
			<g>
				<path class="st2" d="M1202.95,718.82c-0.32,0-0.65-0.08-0.96-0.25c-0.97-0.53-1.33-1.75-0.79-2.71
					c3.74-6.85,9.33-12.46,16.14-16.24c0.97-0.54,2.18-0.19,2.72,0.78c0.54,0.97,0.19,2.18-0.78,2.72
					c-6.15,3.41-11.19,8.48-14.57,14.66C1204.35,718.44,1203.66,718.82,1202.95,718.82z"/>
			</g>
			<g>
				<path class="st2" d="M1242.16,775.99c-0.99,0-1.85-0.73-1.98-1.74c-0.14-1.09,0.63-2.1,1.73-2.24
					c13.14-1.71,24.42-10.43,29.42-22.75c0.42-1.02,1.58-1.52,2.61-1.1c1.02,0.42,1.52,1.58,1.1,2.61
					c-5.54,13.66-18.04,23.32-32.61,25.22C1242.34,775.98,1242.25,775.99,1242.16,775.99z"/>
			</g>
			<g>
				<path class="st2" d="M1190.92,817.65c-19.87,0-36.04-16.17-36.04-36.04s16.17-36.04,36.04-36.04s36.03,16.17,36.03,36.04
					C1226.96,801.48,1210.79,817.65,1190.92,817.65z M1190.92,749.57c-17.67,0-32.04,14.37-32.04,32.04s14.37,32.04,32.04,32.04
					c17.66,0,32.03-14.37,32.03-32.04S1208.59,749.57,1190.92,749.57z"/>
			</g>
			<g>
				<path class="st2" d="M1178.7,801.75c-0.39,0-0.77-0.11-1.12-0.34c-6.6-4.46-10.54-11.86-10.54-19.8c0-3.71,0.83-7.28,2.48-10.59
					c0.49-0.99,1.69-1.4,2.68-0.9c0.99,0.49,1.39,1.69,0.9,2.68c-1.37,2.75-2.06,5.72-2.06,8.81c0,6.6,3.28,12.77,8.78,16.48
					c0.92,0.62,1.16,1.86,0.54,2.78C1179.97,801.44,1179.34,801.75,1178.7,801.75z"/>
			</g>
		</g>
	</g>
	<g>
		<defs>
			<rect id="SVGID_27_" width="1350" height="750"/>
		</defs>
		<clipPath id="SVGID_28_">
			<use xlink:href="#SVGID_27_"  style="overflow:visible;"/>
		</clipPath>
		<g class="st15">
			<g>
				<path class="st2" d="M1028.53,474.49c-39.72,0-72.03-32.31-72.03-72.03s32.31-72.03,72.03-72.03
					c39.72,0,72.03,32.31,72.03,72.03S1068.25,474.49,1028.53,474.49z M1028.53,334.44c-37.51,0-68.03,30.52-68.03,68.03
					s30.52,68.03,68.03,68.03s68.03-30.52,68.03-68.03C1096.56,364.95,1066.04,334.44,1028.53,334.44z"/>
			</g>
			<g>
				<path class="st2" d="M981.84,404.46c-1.1,0-2-0.9-2-2c0-26.85,21.84-48.69,48.69-48.69c1.1,0,2,0.9,2,2s-0.9,2-2,2
					c-24.64,0-44.69,20.05-44.69,44.69C983.84,403.57,982.95,404.46,981.84,404.46z"/>
			</g>
			<g>
				<path class="st2" d="M970.64,365.11c-0.23,0-0.46-0.04-0.68-0.12c-13.63-4.92-22.8-18-22.8-32.55
					c0-19.12,15.56-34.68,34.68-34.68s34.68,15.56,34.68,34.68c0,0.53,0,1.12-0.13,1.78c-0.21,1.08-1.26,1.8-2.35,1.57
					c-1.08-0.21-1.79-1.27-1.57-2.35c0.05-0.27,0.05-0.61,0.05-1.01c0-16.92-13.76-30.68-30.68-30.68s-30.68,13.76-30.68,30.68
					c0,12.87,8.1,24.44,20.15,28.79c1.04,0.38,1.58,1.52,1.2,2.56C972.22,364.6,971.46,365.11,970.64,365.11z"/>
			</g>
			<g>
				<path class="st2" d="M888.48,315.76c-13.98,0-25.35-11.37-25.35-25.34s11.37-25.34,25.35-25.34c13.97,0,25.34,11.37,25.34,25.34
					C913.81,304.39,902.45,315.76,888.48,315.76z M888.48,269.08c-11.77,0-21.35,9.57-21.35,21.34s9.58,21.34,21.35,21.34
					c11.77,0,21.34-9.57,21.34-21.34C909.81,278.65,900.24,269.08,888.48,269.08z"/>
			</g>
			<g>
				<path class="st2" d="M1005.19,516.51c-24.27,0-44.02-19.75-44.02-44.02c0-10.46,3.74-20.58,10.52-28.48
					c0.72-0.84,1.98-0.93,2.82-0.21s0.93,1.98,0.21,2.82c-6.16,7.17-9.56,16.36-9.56,25.87c0,22.07,17.95,40.02,40.02,40.02
					c22.07,0,40.02-17.95,40.02-40.02c0-0.78-0.04-1.56-0.09-2.39l3.99-0.24l-2,0.11l2-0.08c0.05,0.85,0.09,1.73,0.09,2.61
					C1049.21,496.76,1029.46,516.51,1005.19,516.51z"/>
			</g>
			<g>
				<path class="st2" d="M1131.24,528.01c-11.4,0-20.67-9.27-20.67-20.67s9.27-20.67,20.67-20.67s20.67,9.27,20.67,20.67
					C1151.91,518.74,1142.64,528.01,1131.24,528.01z M1131.24,490.66c-9.19,0-16.67,7.48-16.67,16.67s7.48,16.67,16.67,16.67
					s16.67-7.48,16.67-16.67C1147.91,498.14,1140.43,490.66,1131.24,490.66z"/>
			</g>
			<g>
				<path class="st2" d="M909.32,503.67c-16.55,0-30.01-13.46-30.01-30.01c0-16.55,13.46-30.01,30.01-30.01s30.01,13.46,30.01,30.01
					C939.33,490.2,925.86,503.67,909.32,503.67z M909.32,447.65c-14.34,0-26.01,11.67-26.01,26.01s11.67,26.01,26.01,26.01
					s26.01-11.67,26.01-26.01C935.33,459.31,923.66,447.65,909.32,447.65z"/>
			</g>
			<g>
				<path class="st2" d="M890.41,455.02c-0.57,0-1.14-0.24-1.53-0.71c-3.16-3.76-4.91-8.49-4.91-13.33
					c0-11.4,9.27-20.67,20.67-20.67s20.67,9.27,20.67,20.67c0,2.95-0.61,5.77-1.81,8.39c-0.46,1-1.65,1.44-2.65,0.98
					s-1.44-1.65-0.98-2.65c0.96-2.09,1.45-4.36,1.45-6.72c0-9.19-7.48-16.67-16.67-16.67s-16.67,7.48-16.67,16.67
					c0,3.9,1.41,7.72,3.97,10.76c0.71,0.84,0.6,2.11-0.24,2.82C891.32,454.87,890.87,455.02,890.41,455.02z"/>
			</g>
			<g>
				<path class="st2" d="M1079.88,311.09c-11.4,0-20.67-9.27-20.67-20.67s9.27-20.67,20.67-20.67s20.67,9.27,20.67,20.67
					S1091.28,311.09,1079.88,311.09z M1079.88,273.74c-9.19,0-16.67,7.48-16.67,16.67s7.48,16.67,16.67,16.67
					s16.67-7.48,16.67-16.67C1096.56,281.22,1089.08,273.74,1079.88,273.74z"/>
			</g>
			<g>
				<path class="st2" d="M1107.9,339.1c-16.55,0-30.01-13.46-30.01-30.01c0-1.1,0.9-2,2-2s2,0.9,2,2
					c0,14.34,11.67,26.01,26.01,26.01s26.01-11.67,26.01-26.01s-11.67-26.01-26.01-26.01c-3.54,0-6.93,0.67-10.06,1.99
					c-1.02,0.42-2.19-0.05-2.62-1.07c-0.43-1.02,0.05-2.19,1.07-2.62c3.62-1.52,7.53-2.3,11.61-2.3c16.55,0,30.01,13.46,30.01,30.01
					C1137.91,325.64,1124.44,339.1,1107.9,339.1z"/>
			</g>
		</g>
	</g>
	<g>
		<defs>
			<rect id="SVGID_29_" width="1350" height="750"/>
		</defs>
		<clipPath id="SVGID_30_">
			<use xlink:href="#SVGID_29_"  style="overflow:visible;"/>
		</clipPath>
		<g class="st16">
			<g>
				<path class="st2" d="M585.08,407.96c-19.05,0-34.55-15.5-34.55-34.55s15.5-34.55,34.55-34.55s34.55,15.5,34.55,34.55
					S604.13,407.96,585.08,407.96z M585.08,342.86c-16.84,0-30.55,13.7-30.55,30.55s13.7,30.55,30.55,30.55s30.55-13.71,30.55-30.55
					S601.93,342.86,585.08,342.86z"/>
			</g>
			<g>
				<path class="st2" d="M564.16,375.41c-1.1,0-2-0.9-2-2c0-12.64,10.28-22.92,22.92-22.92c1.1,0,2,0.9,2,2s-0.9,2-2,2
					c-10.43,0-18.92,8.49-18.92,18.92C566.16,374.52,565.26,375.41,564.16,375.41z"/>
			</g>
			<g>
				<path class="st2" d="M515.33,412.61c-11.36,0-20.6-9.24-20.6-20.6c0-11.36,9.24-20.6,20.6-20.6c11.36,0,20.6,9.24,20.6,20.6
					S526.69,412.61,515.33,412.61z M515.33,375.41c-9.15,0-16.6,7.45-16.6,16.6s7.45,16.6,16.6,16.6c9.15,0,16.6-7.45,16.6-16.6
					C531.93,382.86,524.48,375.41,515.33,375.41z"/>
			</g>
			<g>
				<path class="st2" d="M508.35,394.01c-1.1,0-2-0.9-2-2c0-4.95,4.03-8.98,8.98-8.98c1.1,0,2,0.9,2,2s-0.9,2-2,2
					c-2.74,0-4.98,2.23-4.98,4.98C510.35,393.12,509.46,394.01,508.35,394.01z"/>
			</g>
			<g>
				<path class="st2" d="M557.18,463.76c-12.64,0-22.92-10.28-22.92-22.93c0-12.64,10.28-22.92,22.92-22.92
					c12.64,0,22.93,10.28,22.93,22.92C580.11,453.48,569.82,463.76,557.18,463.76z M557.18,421.91c-10.44,0-18.92,8.49-18.92,18.92
					c0,10.44,8.49,18.93,18.92,18.93c10.44,0,18.93-8.49,18.93-18.93C576.11,430.4,567.62,421.91,557.18,421.91z"/>
			</g>
			<g>
				<path class="st2" d="M547.88,442.84c-1.1,0-2-0.9-2-2c0-6.23,5.07-11.3,11.3-11.3c1.1,0,2,0.9,2,2s-0.9,2-2,2
					c-4.02,0-7.3,3.27-7.3,7.3C549.88,441.94,548.99,442.84,547.88,442.84z"/>
			</g>
		</g>
	</g>
	<g>
		<defs>
			<rect id="SVGID_31_" width="1350" height="750"/>
		</defs>
		<clipPath id="SVGID_32_">
			<use xlink:href="#SVGID_31_"  style="overflow:visible;"/>
		</clipPath>
		<g class="st17">
			<g>
				<path class="st2" d="M992.3,708.26c-21.95,0-39.81-17.86-39.81-39.81s17.86-39.81,39.81-39.81s39.81,17.86,39.81,39.81
					S1014.25,708.26,992.3,708.26z M992.3,632.64c-19.75,0-35.81,16.07-35.81,35.81s16.07,35.81,35.81,35.81
					c19.75,0,35.81-16.07,35.81-35.81S1012.05,632.64,992.3,632.64z"/>
			</g>
			<g>
				<path class="st2" d="M992.3,694.76c-14.51,0-26.31-11.8-26.31-26.31c0-1.1,0.9-2,2-2s2,0.9,2,2c0,12.3,10.01,22.31,22.31,22.31
					c1.1,0,2,0.9,2,2S993.4,694.76,992.3,694.76z"/>
			</g>
			<g>
				<path class="st2" d="M1013.91,773.09c-13.02,0-23.61-10.59-23.61-23.61c0-13.02,10.59-23.61,23.61-23.61
					s23.61,10.59,23.61,23.61S1026.92,773.09,1013.91,773.09z M1013.91,729.87c-10.81,0-19.61,8.8-19.61,19.61
					s8.8,19.61,19.61,19.61s19.61-8.8,19.61-19.61C1033.51,738.67,1024.72,729.87,1013.91,729.87z"/>
			</g>
			<g>
				<path class="st2" d="M1013.91,759.58c-5.57,0-10.1-4.53-10.1-10.1c0-1.1,0.9-2,2-2s2,0.9,2,2c0,3.36,2.74,6.1,6.1,6.1
					c1.1,0,2,0.9,2,2C1015.91,758.69,1015.01,759.58,1013.91,759.58z"/>
			</g>
			<g>
				<path class="st2" d="M1070.63,727.17c-14.51,0-26.31-11.8-26.31-26.31s11.8-26.31,26.31-26.31s26.31,11.8,26.31,26.31
					S1085.13,727.17,1070.63,727.17z M1070.63,678.55c-12.3,0-22.31,10.01-22.31,22.31s10.01,22.31,22.31,22.31
					s22.31-10.01,22.31-22.31C1092.94,688.56,1082.93,678.55,1070.63,678.55z"/>
			</g>
			<g>
				<path class="st2" d="M1070.63,713.66c-7.06,0-12.8-5.74-12.8-12.8c0-1.1,0.9-2,2-2s2,0.9,2,2c0,4.85,3.95,8.8,8.8,8.8
					c1.1,0,2,0.9,2,2S1071.73,713.66,1070.63,713.66z"/>
			</g>
		</g>
	</g>
	<g>
		<defs>
			<rect id="SVGID_33_" width="1350" height="750"/>
		</defs>
		<clipPath id="SVGID_34_">
			<use xlink:href="#SVGID_33_"  style="overflow:visible;"/>
		</clipPath>
		<g class="st18">
			<g>
				<path class="st2" d="M77.09,226.23c-21.95,0-39.81-17.86-39.81-39.81s17.86-39.81,39.81-39.81s39.81,17.86,39.81,39.81
					C116.91,208.37,99.05,226.23,77.09,226.23z M77.09,150.6c-19.75,0-35.81,16.07-35.81,35.81c0,19.75,16.07,35.81,35.81,35.81
					c19.75,0,35.81-16.07,35.81-35.81C112.91,166.66,96.84,150.6,77.09,150.6z"/>
			</g>
			<g>
				<path class="st2" d="M77.09,212.72c-14.51,0-26.31-11.8-26.31-26.31c0-1.1,0.9-2,2-2s2,0.9,2,2c0,12.3,10.01,22.31,22.31,22.31
					c1.1,0,2,0.9,2,2C79.09,211.83,78.2,212.72,77.09,212.72z"/>
			</g>
			<g>
				<path class="st2" d="M98.7,291.05c-13.02,0-23.61-10.59-23.61-23.61c0-13.02,10.59-23.61,23.61-23.61s23.61,10.59,23.61,23.61
					c0,6.31-2.46,12.23-6.91,16.69C110.94,288.59,105.01,291.05,98.7,291.05z M98.7,247.83c-10.81,0-19.61,8.8-19.61,19.61
					s8.8,19.61,19.61,19.61c5.24,0,10.16-2.04,13.86-5.74c3.7-3.7,5.74-8.63,5.74-13.87C118.31,256.63,109.51,247.83,98.7,247.83z"
					/>
			</g>
			<g>
				<path class="st2" d="M98.7,277.54c-2.69,0-5.23-1.05-7.14-2.96c-1.91-1.91-2.96-4.45-2.96-7.14c0-1.1,0.9-2,2-2s2,0.9,2,2
					c0,1.63,0.64,3.16,1.79,4.31s2.69,1.79,4.31,1.79l0,0l0,0c1.1,0,2,0.9,2,2S99.81,277.54,98.7,277.54L98.7,277.54z"/>
			</g>
			<g>
				<path class="st2" d="M155.42,245.13L155.42,245.13c-14.51,0-26.31-11.8-26.31-26.31s11.8-26.31,26.31-26.31
					s26.31,11.8,26.31,26.31c0,7.03-2.74,13.63-7.71,18.6C169.05,242.39,162.45,245.13,155.42,245.13z M155.42,196.51
					c-12.3,0-22.31,10.01-22.31,22.31s10.01,22.31,22.31,22.31l0,0l0,0c5.96,0,11.56-2.32,15.77-6.53
					c4.21-4.21,6.54-9.82,6.54-15.77C177.73,206.52,167.72,196.51,155.42,196.51z"/>
			</g>
			<g>
				<path class="st2" d="M155.42,231.63c-7.06,0-12.8-5.74-12.8-12.8c0-1.1,0.9-2,2-2s2,0.9,2,2c0,4.85,3.95,8.8,8.8,8.8
					c1.1,0,2,0.9,2,2C157.42,230.73,156.53,231.63,155.42,231.63z"/>
			</g>
		</g>
	</g>
	<g>
		<defs>
			<rect id="SVGID_35_" width="1350" height="750"/>
		</defs>
		<clipPath id="SVGID_36_">
			<use xlink:href="#SVGID_35_"  style="overflow:visible;"/>
		</clipPath>
		<g class="st19">
			<g>
				<path class="st2" d="M992.3-41.74c-21.95,0-39.81-17.86-39.81-39.81s17.86-39.81,39.81-39.81s39.81,17.86,39.81,39.81
					S1014.25-41.74,992.3-41.74z M992.3-117.36c-19.75,0-35.81,16.07-35.81,35.81c0,19.75,16.07,35.81,35.81,35.81
					c19.75,0,35.81-16.07,35.81-35.81C1028.11-101.3,1012.05-117.36,992.3-117.36z"/>
			</g>
			<g>
				<path class="st2" d="M992.3-55.24c-14.51,0-26.31-11.8-26.31-26.31c0-1.1,0.9-2,2-2s2,0.9,2,2c0,12.3,10.01,22.31,22.31,22.31
					c1.1,0,2,0.9,2,2S993.4-55.24,992.3-55.24z"/>
			</g>
			<g>
				<path class="st2" d="M1013.91,23.09c-13.02,0-23.61-10.59-23.61-23.61s10.59-23.61,23.61-23.61s23.61,10.59,23.61,23.61
					S1026.92,23.09,1013.91,23.09z M1013.91-20.13c-10.81,0-19.61,8.8-19.61,19.61s8.8,19.61,19.61,19.61s19.61-8.8,19.61-19.61
					S1024.72-20.13,1013.91-20.13z"/>
			</g>
			<g>
				<path class="st2" d="M1013.91,9.58c-5.57,0-10.1-4.53-10.1-10.1c0-1.1,0.9-2,2-2s2,0.9,2,2c0,3.36,2.74,6.1,6.1,6.1
					c1.1,0,2,0.9,2,2S1015.01,9.58,1013.91,9.58z"/>
			</g>
			<g>
				<path class="st2" d="M1070.63-22.83c-14.51,0-26.31-11.8-26.31-26.31s11.8-26.31,26.31-26.31s26.31,11.8,26.31,26.31
					C1096.94-34.63,1085.13-22.83,1070.63-22.83z M1070.63-71.45c-12.3,0-22.31,10.01-22.31,22.31s10.01,22.31,22.31,22.31
					s22.31-10.01,22.31-22.31C1092.94-61.44,1082.93-71.45,1070.63-71.45z"/>
			</g>
			<g>
				<path class="st2" d="M1070.63-36.33c-7.06,0-12.8-5.74-12.8-12.8c0-1.1,0.9-2,2-2s2,0.9,2,2c0,4.85,3.95,8.8,8.8,8.8
					c1.1,0,2,0.9,2,2S1071.73-36.33,1070.63-36.33z"/>
			</g>
		</g>
	</g>
	<g>
		<defs>
			<rect id="SVGID_37_" width="1350" height="750"/>
		</defs>
		<clipPath id="SVGID_38_">
			<use xlink:href="#SVGID_37_"  style="overflow:visible;"/>
		</clipPath>
		<g class="st20">
			<g>
				<path class="st2" d="M789.52,271.13c-26.47,0-48.01-21.54-48.01-48.01s21.54-48.01,48.01-48.01c26.47,0,48.01,21.54,48.01,48.01
					S815.99,271.13,789.52,271.13z M789.52,179.11c-24.27,0-44.01,19.74-44.01,44.01s19.74,44.01,44.01,44.01
					s44.01-19.74,44.01-44.01S813.78,179.11,789.52,179.11z"/>
			</g>
			<g>
				<path class="st2" d="M761.91,225.12c-1.1,0-2-0.9-2-2c0-16.33,13.28-29.61,29.61-29.61c1.1,0,2,0.9,2,2s-0.9,2-2,2
					c-14.12,0-25.61,11.49-25.61,25.61C763.91,224.23,763.01,225.12,761.91,225.12z"/>
			</g>
			<g>
				<path class="st2" d="M688.29,289.53c-16.32,0-29.61-13.28-29.61-29.6s13.28-29.61,29.61-29.61c16.33,0,29.61,13.28,29.61,29.61
					S704.62,289.53,688.29,289.53z M688.29,234.32c-14.12,0-25.61,11.49-25.61,25.61c0,14.12,11.49,25.6,25.61,25.6
					s25.61-11.49,25.61-25.6C713.9,245.81,702.41,234.32,688.29,234.32z"/>
			</g>
			<g>
				<path class="st2" d="M679.09,261.93c-1.1,0-2-0.9-2-2c0-6.18,5.02-11.2,11.2-11.2c1.1,0,2,0.9,2,2s-0.9,2-2,2
					c-3.97,0-7.2,3.23-7.2,7.2C681.09,261.03,680.2,261.93,679.09,261.93z"/>
			</g>
			<g>
				<path class="st2" d="M748.11,349.34c-16.33,0-29.61-13.28-29.61-29.61c0-16.32,13.28-29.6,29.61-29.6s29.61,13.28,29.61,29.6
					C777.71,336.06,764.43,349.34,748.11,349.34z M748.11,294.13c-14.12,0-25.61,11.49-25.61,25.6c0,14.12,11.49,25.61,25.61,25.61
					s25.61-11.49,25.61-25.61C773.71,305.62,762.23,294.13,748.11,294.13z"/>
			</g>
			<g>
				<path class="st2" d="M775.71,367.75c-12.12,0-22.46-8.62-24.61-20.51c-0.2-1.09,0.53-2.13,1.61-2.32
					c1.09-0.2,2.13,0.53,2.32,1.61c1.8,9.98,10.49,17.22,20.67,17.22c11.58,0,21-9.42,21-21s-9.42-21.01-21-21.01c-1.1,0-2-0.9-2-2
					s0.9-2,2-2c13.79,0,25,11.22,25,25.01C800.72,356.53,789.5,367.75,775.71,367.75z"/>
			</g>
			<g>
				<path class="st2" d="M697.5,395.36c-11.25,0-20.4-9.15-20.4-20.4s9.15-20.4,20.4-20.4s20.4,9.15,20.4,20.4
					C717.9,386.2,708.75,395.36,697.5,395.36z M697.5,358.55c-9.04,0-16.4,7.36-16.4,16.4c0,9.05,7.36,16.4,16.4,16.4
					c9.04,0,16.4-7.36,16.4-16.4C713.9,365.91,706.54,358.55,697.5,358.55z"/>
			</g>
			<g>
				<path class="st2" d="M752.71,436.77c-8.71,0-15.8-7.09-15.8-15.8s7.09-15.8,15.8-15.8c8.71,0,15.8,7.09,15.8,15.8
					S761.42,436.77,752.71,436.77z M752.71,409.16c-6.51,0-11.8,5.29-11.8,11.8c0,6.51,5.29,11.8,11.8,11.8s11.8-5.3,11.8-11.8
					C764.51,414.45,759.22,409.16,752.71,409.16z"/>
			</g>
		</g>
	</g>
	<g>
		<defs>
			<rect id="SVGID_39_" width="1350" height="750"/>
		</defs>
		<clipPath id="SVGID_40_">
			<use xlink:href="#SVGID_39_"  style="overflow:visible;"/>
		</clipPath>
		<g class="st21">
			<g>
				<path class="st2" d="M158.37,667.23c-26.47,0-48.01-21.54-48.01-48.01c0-26.47,21.54-48.01,48.01-48.01s48.01,21.54,48.01,48.01
					C206.38,645.69,184.84,667.23,158.37,667.23z M158.37,575.21c-24.27,0-44.01,19.74-44.01,44.01s19.74,44.01,44.01,44.01
					s44.01-19.74,44.01-44.01C202.38,594.95,182.63,575.21,158.37,575.21z"/>
			</g>
			<g>
				<path class="st2" d="M130.76,621.22c-1.1,0-2-0.9-2-2c0-16.33,13.28-29.61,29.61-29.61c1.1,0,2,0.9,2,2s-0.9,2-2,2
					c-14.12,0-25.61,11.49-25.61,25.61C132.76,620.32,131.87,621.22,130.76,621.22z"/>
			</g>
			<g>
				<path class="st2" d="M57.15,685.63c-16.32,0-29.61-13.28-29.61-29.6c0-16.32,13.28-29.61,29.61-29.61s29.61,13.28,29.61,29.61
					C86.75,672.35,73.47,685.63,57.15,685.63z M57.15,630.42c-14.12,0-25.61,11.49-25.61,25.61s11.49,25.6,25.61,25.6
					s25.61-11.49,25.61-25.6C82.75,641.91,71.27,630.42,57.15,630.42z"/>
			</g>
			<g>
				<path class="st2" d="M47.95,658.03c-1.1,0-2-0.9-2-2c0-6.18,5.02-11.2,11.2-11.2c1.1,0,2,0.9,2,2s-0.9,2-2,2
					c-3.97,0-7.2,3.23-7.2,7.2C49.95,657.13,49.05,658.03,47.95,658.03z"/>
			</g>
			<g>
				<path class="st2" d="M116.96,745.44c-16.33,0-29.61-13.28-29.61-29.61c0-16.32,13.28-29.6,29.61-29.6s29.61,13.28,29.61,29.6
					C146.57,732.16,133.28,745.44,116.96,745.44z M116.96,690.23c-14.12,0-25.61,11.49-25.61,25.6c0,14.12,11.49,25.61,25.61,25.61
					s25.61-11.49,25.61-25.61C142.57,701.72,131.08,690.23,116.96,690.23z"/>
			</g>
			<g>
				<path class="st2" d="M144.57,763.85c-12.12,0-22.46-8.63-24.61-20.51c-0.2-1.09,0.53-2.13,1.61-2.32
					c1.08-0.2,2.13,0.53,2.32,1.61c1.8,9.98,10.49,17.22,20.67,17.22c11.58,0,21-9.42,21-21s-9.42-21.01-21-21.01c-1.1,0-2-0.9-2-2
					s0.9-2,2-2c13.79,0,25,11.22,25,25.01C169.57,752.63,158.35,763.85,144.57,763.85z"/>
			</g>
			<g>
				<path class="st2" d="M66.35,791.46c-11.25,0-20.4-9.15-20.4-20.4s9.15-20.4,20.4-20.4s20.4,9.15,20.4,20.4
					C86.75,782.3,77.6,791.46,66.35,791.46z M66.35,754.65c-9.04,0-16.4,7.36-16.4,16.4c0,9.04,7.36,16.4,16.4,16.4
					s16.4-7.36,16.4-16.4S75.39,754.65,66.35,754.65z"/>
			</g>
			<g>
				<path class="st2" d="M121.56,832.86c-8.71,0-15.8-7.09-15.8-15.8c0-8.71,7.09-15.8,15.8-15.8s15.8,7.09,15.8,15.8
					C137.36,825.77,130.27,832.86,121.56,832.86z M121.56,805.26c-6.51,0-11.8,5.29-11.8,11.8s5.3,11.8,11.8,11.8
					c6.51,0,11.8-5.3,11.8-11.8C133.36,810.55,128.07,805.26,121.56,805.26z"/>
			</g>
		</g>
	</g>
	<g>
		<defs>
			<rect id="SVGID_41_" width="1350" height="750"/>
		</defs>
		<clipPath id="SVGID_42_">
			<use xlink:href="#SVGID_41_"  style="overflow:visible;"/>
		</clipPath>
		<g class="st22">
			<g>
				<path class="st2" d="M158.37-82.77c-26.47,0-48.01-21.54-48.01-48.01s21.54-48.01,48.01-48.01s48.01,21.54,48.01,48.01
					C206.38-104.31,184.84-82.77,158.37-82.77z M158.37-174.79c-24.27,0-44.01,19.74-44.01,44.01s19.74,44.01,44.01,44.01
					s44.01-19.74,44.01-44.01C202.38-155.05,182.63-174.79,158.37-174.79z"/>
			</g>
			<g>
				<path class="st2" d="M130.76-128.78c-1.1,0-2-0.9-2-2c0-16.33,13.28-29.61,29.61-29.61c1.1,0,2,0.9,2,2s-0.9,2-2,2
					c-14.12,0-25.61,11.49-25.61,25.61C132.76-129.68,131.87-128.78,130.76-128.78z"/>
			</g>
			<g>
				<path class="st2" d="M57.15-64.37c-16.32,0-29.61-13.28-29.61-29.61c0-16.32,13.28-29.61,29.61-29.61s29.61,13.28,29.61,29.61
					C86.75-77.65,73.47-64.37,57.15-64.37z M57.15-119.58c-14.12,0-25.61,11.49-25.61,25.61s11.49,25.61,25.61,25.61
					s25.61-11.49,25.61-25.61C82.75-108.09,71.27-119.58,57.15-119.58z"/>
			</g>
			<g>
				<path class="st2" d="M47.95-91.97c-1.1,0-2-0.9-2-2c0-6.18,5.02-11.2,11.2-11.2c1.1,0,2,0.9,2,2s-0.9,2-2,2
					c-3.97,0-7.2,3.23-7.2,7.2C49.95-92.87,49.05-91.97,47.95-91.97z"/>
			</g>
			<g>
				<path class="st2" d="M116.96-4.56c-16.33,0-29.61-13.28-29.61-29.61s13.28-29.6,29.61-29.6s29.61,13.28,29.61,29.6
					S133.28-4.56,116.96-4.56z M116.96-59.77c-14.12,0-25.61,11.49-25.61,25.6c0,14.12,11.49,25.61,25.61,25.61
					s25.61-11.49,25.61-25.61C142.57-48.28,131.08-59.77,116.96-59.77z"/>
			</g>
			<g>
				<path class="st2" d="M144.57,13.85c-12.12,0-22.46-8.62-24.61-20.51c-0.2-1.09,0.53-2.13,1.61-2.32s2.13,0.53,2.32,1.61
					c1.8,9.98,10.49,17.22,20.67,17.22c11.58,0,21-9.42,21-21s-9.42-21.01-21-21.01c-1.1,0-2-0.9-2-2s0.9-2,2-2
					c13.79,0,25,11.22,25,25.01C169.57,2.63,158.35,13.85,144.57,13.85z"/>
			</g>
			<g>
				<path class="st2" d="M66.35,41.45c-11.25,0-20.4-9.15-20.4-20.4s9.15-20.4,20.4-20.4s20.4,9.15,20.4,20.4
					S77.6,41.45,66.35,41.45z M66.35,4.65c-9.04,0-16.4,7.36-16.4,16.4s7.36,16.4,16.4,16.4s16.4-7.36,16.4-16.4
					S75.39,4.65,66.35,4.65z"/>
			</g>
			<g>
				<path class="st2" d="M121.56,82.86c-8.71,0-15.8-7.09-15.8-15.8s7.09-15.8,15.8-15.8s15.8,7.09,15.8,15.8
					S130.27,82.86,121.56,82.86z M121.56,55.26c-6.51,0-11.8,5.29-11.8,11.8s5.3,11.8,11.8,11.8c6.51,0,11.8-5.29,11.8-11.8
					S128.07,55.26,121.56,55.26z"/>
			</g>
		</g>
	</g>
	<g>
		<defs>
			<rect id="SVGID_43_" width="1350" height="750"/>
		</defs>
		<clipPath id="SVGID_44_">
			<use xlink:href="#SVGID_43_"  style="overflow:visible;"/>
		</clipPath>
		<g class="st23">
			<g>
				<path class="st2" d="M1294.08,208.55c-26.47,0-48.01-21.54-48.01-48.01s21.54-48.01,48.01-48.01s48.01,21.54,48.01,48.01
					S1320.55,208.55,1294.08,208.55z M1294.08,116.53c-24.27,0-44.01,19.74-44.01,44.01s19.74,44.01,44.01,44.01
					s44.01-19.74,44.01-44.01S1318.34,116.53,1294.08,116.53z"/>
			</g>
			<g>
				<path class="st2" d="M1266.47,162.54c-1.1,0-2-0.9-2-2c0-16.32,13.28-29.61,29.61-29.61c1.1,0,2,0.9,2,2s-0.9,2-2,2
					c-14.12,0-25.61,11.49-25.61,25.61C1268.47,161.64,1267.57,162.54,1266.47,162.54z"/>
			</g>
			<g>
				<path class="st2" d="M1192.86,226.95c-16.33,0-29.61-13.28-29.61-29.6s13.28-29.61,29.61-29.61s29.61,13.28,29.61,29.61
					C1222.46,213.67,1209.18,226.95,1192.86,226.95z M1192.86,171.74c-14.12,0-25.61,11.49-25.61,25.61s11.49,25.6,25.61,25.6
					s25.61-11.49,25.61-25.6C1218.46,183.23,1206.97,171.74,1192.86,171.74z"/>
			</g>
			<g>
				<path class="st2" d="M1183.65,199.35c-1.1,0-2-0.9-2-2c0-6.18,5.03-11.2,11.2-11.2c1.1,0,2,0.9,2,2s-0.9,2-2,2
					c-3.97,0-7.2,3.23-7.2,7.2C1185.65,198.45,1184.76,199.35,1183.65,199.35z"/>
			</g>
			<g>
				<path class="st2" d="M1252.67,286.76c-16.33,0-29.61-13.28-29.61-29.61s13.28-29.61,29.61-29.61s29.61,13.28,29.61,29.61
					S1268.99,286.76,1252.67,286.76z M1252.67,231.55c-14.12,0-25.61,11.49-25.61,25.61s11.49,25.61,25.61,25.61
					s25.61-11.49,25.61-25.61C1278.27,243.04,1266.79,231.55,1252.67,231.55z"/>
			</g>
			<g>
				<path class="st2" d="M1280.27,305.17c-12.12,0-22.46-8.62-24.61-20.51c-0.2-1.09,0.53-2.13,1.61-2.32
					c1.1-0.2,2.13,0.53,2.32,1.61c1.8,9.98,10.49,17.22,20.67,17.22c11.58,0,21-9.42,21-21s-9.42-21.01-21-21.01c-1.1,0-2-0.9-2-2
					s0.9-2,2-2c13.79,0,25,11.22,25,25.01C1305.28,293.95,1294.06,305.17,1280.27,305.17z"/>
			</g>
			<g>
				<path class="st2" d="M1202.06,332.78c-11.25,0-20.4-9.15-20.4-20.4s9.15-20.4,20.4-20.4s20.41,9.15,20.41,20.4
					C1222.46,323.62,1213.31,332.78,1202.06,332.78z M1202.06,295.97c-9.04,0-16.4,7.36-16.4,16.4s7.36,16.4,16.4,16.4
					c9.05,0,16.41-7.36,16.41-16.4C1218.46,303.33,1211.1,295.97,1202.06,295.97z"/>
			</g>
			<g>
				<path class="st2" d="M1257.27,374.18c-8.71,0-15.8-7.09-15.8-15.8s7.09-15.8,15.8-15.8s15.8,7.09,15.8,15.8
					C1273.07,367.09,1265.98,374.18,1257.27,374.18z M1257.27,346.58c-6.51,0-11.8,5.29-11.8,11.8c0,6.51,5.29,11.8,11.8,11.8
					s11.8-5.3,11.8-11.8C1269.07,351.87,1263.78,346.58,1257.27,346.58z"/>
			</g>
		</g>
	</g>
	<g>
		<defs>
			<rect id="SVGID_45_" width="1350" height="750"/>
		</defs>
		<clipPath id="SVGID_46_">
			<use xlink:href="#SVGID_45_"  style="overflow:visible;"/>
		</clipPath>
		<g class="st24">
			<g>
				<path class="st2" d="M586.65,647.73c-24.34,0-44.14-19.8-44.14-44.14s19.8-44.14,44.14-44.14s44.13,19.8,44.13,44.14
					C630.79,627.93,610.99,647.73,586.65,647.73z M586.65,563.46c-22.13,0-40.14,18-40.14,40.14c0,22.13,18,40.14,40.14,40.14
					c22.13,0,40.13-18,40.13-40.14C626.79,581.46,608.78,563.46,586.65,563.46z"/>
			</g>
			<g>
				<path class="st2" d="M599.52,631.55c-0.74,0-1.44-0.41-1.79-1.11c-0.49-0.99-0.09-2.19,0.9-2.68
					c9.25-4.59,14.99-13.85,14.99-24.17c0-0.84-0.04-1.66-0.11-2.45c-0.1-1.1,0.71-2.07,1.81-2.17c1.1-0.12,2.07,0.71,2.17,1.81
					c0.08,0.91,0.13,1.86,0.13,2.82c0,11.85-6.59,22.48-17.21,27.75C600.12,631.49,599.82,631.55,599.52,631.55z"/>
			</g>
			<g>
				<path class="st2" d="M548.33,588.08c-0.24,0-0.48-0.04-0.71-0.13c-10.93-4.15-18.28-14.8-18.28-26.5
					c0-15.62,12.71-28.34,28.34-28.34c15.62,0,28.33,12.71,28.33,28.34c0,1.1-0.9,2.04-2,2.04s-2-0.86-2-1.96
					c0-13.5-10.92-24.41-24.33-24.41c-13.42,0-24.34,10.92-24.34,24.34c0,10.05,6.31,19.19,15.7,22.75
					c1.03,0.39,1.55,1.55,1.16,2.58C549.9,587.59,549.14,588.08,548.33,588.08z"/>
			</g>
		</g>
	</g>
	<g>
		<defs>
			<rect id="SVGID_47_" width="1350" height="750"/>
		</defs>
		<clipPath id="SVGID_48_">
			<use xlink:href="#SVGID_47_"  style="overflow:visible;"/>
		</clipPath>
		<g class="st25">
			<g>
				<path class="st2" d="M310.03,757.6c-21.85,0-39.62-17.77-39.62-39.62s17.77-39.62,39.62-39.62c21.84,0,39.62,17.77,39.62,39.62
					S331.88,757.6,310.03,757.6z M310.03,682.36c-19.64,0-35.62,15.98-35.62,35.62s15.98,35.62,35.62,35.62s35.62-15.98,35.62-35.62
					S329.67,682.36,310.03,682.36z"/>
			</g>
			<g>
				<path class="st2" d="M310.03,745.84c-10.66,0-20.23-5.93-24.97-15.48c-0.49-0.99-0.09-2.19,0.9-2.68
					c0.99-0.5,2.19-0.09,2.68,0.9c4.06,8.18,12.25,13.26,21.39,13.26c0.74,0,1.47-0.03,2.17-0.1c1.09-0.1,2.07,0.71,2.17,1.81
					s-0.71,2.07-1.81,2.17C311.75,745.81,310.89,745.84,310.03,745.84z"/>
			</g>
			<g>
				<path class="st2" d="M347.65,717.63c-1.1,0-2.03-0.9-2.03-2s0.86-2,1.97-2c11.93,0,21.58-9.65,21.58-21.51
					s-9.65-21.51-21.51-21.51c-8.88,0-16.96,5.58-20.11,13.88c-0.39,1.03-1.54,1.55-2.58,1.16c-1.03-0.39-1.55-1.55-1.16-2.58
					c3.74-9.84,13.32-16.46,23.85-16.46c14.07,0,25.51,11.45,25.51,25.51C373.16,706.19,361.72,717.63,347.65,717.63z"/>
			</g>
		</g>
	</g>
	<g>
		<defs>
			<rect id="SVGID_49_" width="1350" height="750"/>
		</defs>
		<clipPath id="SVGID_50_">
			<use xlink:href="#SVGID_49_"  style="overflow:visible;"/>
		</clipPath>
		<g class="st26">
			<g>
				<path class="st2" d="M310.03,7.6c-21.85,0-39.62-17.77-39.62-39.62s17.77-39.62,39.62-39.62c21.84,0,39.62,17.77,39.62,39.62
					S331.88,7.6,310.03,7.6z M310.03-67.64c-19.64,0-35.62,15.98-35.62,35.62S290.39,3.6,310.03,3.6s35.62-15.98,35.62-35.62
					S329.67-67.64,310.03-67.64z"/>
			</g>
			<g>
				<path class="st2" d="M310.03-4.16c-10.66,0-20.23-5.93-24.97-15.48c-0.49-0.99-0.09-2.19,0.9-2.68s2.19-0.09,2.68,0.9
					c4.06,8.18,12.26,13.26,21.39,13.26c0.74,0,1.47-0.03,2.17-0.1c1.09-0.1,2.07,0.71,2.17,1.81s-0.71,2.07-1.81,2.17
					C311.75-4.19,310.89-4.16,310.03-4.16z"/>
			</g>
			<g>
				<path class="st2" d="M347.65-32.37c-1.1,0-2.03-0.9-2.03-2s0.86-2,1.97-2c11.93,0,21.58-9.65,21.58-21.51
					s-9.65-21.51-21.51-21.51c-8.88,0-16.96,5.58-20.11,13.88c-0.39,1.03-1.54,1.55-2.58,1.16c-1.03-0.39-1.55-1.55-1.16-2.58
					c3.74-9.84,13.32-16.46,23.85-16.46c14.07,0,25.51,11.44,25.51,25.51C373.16-43.81,361.72-32.37,347.65-32.37z"/>
			</g>
		</g>
	</g>
	<g>
		<defs>
			<rect id="SVGID_51_" width="1350" height="750"/>
		</defs>
		<clipPath id="SVGID_52_">
			<use xlink:href="#SVGID_51_"  style="overflow:visible;"/>
		</clipPath>
		<g class="st27">
			<g>
				<path class="st2" d="M331.2,104.92c-15.25,0-27.65-12.4-27.65-27.65s12.4-27.65,27.65-27.65s27.65,12.4,27.65,27.65
					S346.44,104.92,331.2,104.92z M331.2,53.62c-13.04,0-23.65,10.61-23.65,23.65s10.61,23.65,23.65,23.65s23.65-10.61,23.65-23.65
					S344.24,53.62,331.2,53.62z"/>
			</g>
			<g>
				<path class="st2" d="M309.82,126.3c-12.89,0-23.37-10.49-23.37-23.37c0-11.33,8.06-21,19.17-23c1.08-0.2,2.13,0.53,2.32,1.61
					c0.2,1.09-0.53,2.13-1.61,2.32c-9.2,1.66-15.88,9.68-15.88,19.07c0,10.68,8.69,19.37,19.37,19.37s19.38-8.69,19.38-19.37
					c0-1.1,0.9-2,2-2s2,0.9,2,2C333.2,115.81,322.71,126.3,309.82,126.3z"/>
			</g>
		</g>
	</g>
	<g>
		<defs>
			<rect id="SVGID_53_" width="1350" height="750"/>
		</defs>
		<clipPath id="SVGID_54_">
			<use xlink:href="#SVGID_53_"  style="overflow:visible;"/>
		</clipPath>
		<g class="st28">
			<g>
				<path class="st2" d="M1139.38,645.33c-14.24,0-25.83-11.59-25.83-25.83s11.59-25.83,25.83-25.83s25.83,11.59,25.83,25.83
					C1165.2,633.74,1153.62,645.33,1139.38,645.33z M1139.38,597.68c-12.04,0-21.83,9.79-21.83,21.83
					c0,12.03,9.79,21.83,21.83,21.83s21.83-9.79,21.83-21.83C1161.2,607.47,1151.41,597.68,1139.38,597.68z"/>
			</g>
			<g>
				<path class="st2" d="M1115.55,621.5c-12.05,0-21.86-9.8-21.86-21.86c0-12.05,9.8-21.85,21.86-21.85
					c10.59,0,19.63,7.54,21.51,17.92c0.2,1.09-0.53,2.13-1.61,2.32c-1.1,0.19-2.13-0.53-2.32-1.61
					c-1.53-8.48-8.92-14.63-17.57-14.63c-9.85,0-17.86,8.01-17.86,17.85c0,9.85,8.01,17.86,17.86,17.86c1.1,0,2,0.9,2,2
					S1116.65,621.5,1115.55,621.5z"/>
			</g>
		</g>
	</g>
	<g>
		<defs>
			<rect id="SVGID_55_" width="1350" height="750"/>
		</defs>
		<clipPath id="SVGID_56_">
			<use xlink:href="#SVGID_55_"  style="overflow:visible;"/>
		</clipPath>
		<g class="st29">
			<g>
				<path class="st2" d="M791.23,602.79c-23.81,0-43.17-19.37-43.17-43.17c0-23.81,19.37-43.17,43.17-43.17s43.17,19.37,43.17,43.17
					C834.4,583.43,815.04,602.79,791.23,602.79z M791.23,520.45c-21.6,0-39.17,17.57-39.17,39.17s17.57,39.17,39.17,39.17
					s39.17-17.57,39.17-39.17S812.83,520.45,791.23,520.45z"/>
			</g>
			<g>
				<path class="st2" d="M763.78,561.62c-1.1,0-2-0.9-2-2c0-12.06,7.22-22.78,18.41-27.31c1.02-0.41,2.19,0.08,2.6,1.1
					c0.41,1.02-0.08,2.19-1.1,2.6c-9.66,3.91-15.91,13.17-15.91,23.6C765.78,560.73,764.89,561.62,763.78,561.62z"/>
			</g>
			<g>
				<path class="st2" d="M752.05,549c-0.25,0-0.51-0.05-0.75-0.15c-12.39-5.06-20.39-16.99-20.39-30.4
					c0-18.13,14.75-32.88,32.88-32.88s32.88,14.75,32.88,32.88v0.14c0,1.1-0.9,2-2,2s-2-0.9-2-2v-0.14
					c0-15.92-12.96-28.88-28.88-28.88s-28.88,12.96-28.88,28.88c0,11.78,7.03,22.25,17.9,26.7c1.02,0.42,1.51,1.59,1.1,2.61
					C753.59,548.53,752.84,549,752.05,549z"/>
			</g>
			<g>
				<path class="st2" d="M830.89,550.61c-0.88,0-1.69-0.59-1.93-1.49c-0.28-1.07,0.35-2.16,1.42-2.45
					c8.09-2.16,13.75-9.53,13.75-17.93c0-10.25-8.34-18.59-18.59-18.59c-7.62,0-14.58,4.78-17.31,11.89
					c-0.4,1.03-1.56,1.55-2.58,1.15c-1.03-0.4-1.55-1.55-1.15-2.58c3.32-8.65,11.78-14.46,21.05-14.46
					c12.45,0,22.59,10.13,22.59,22.59c0,10.21-6.88,19.17-16.72,21.8C831.24,550.59,831.06,550.61,830.89,550.61z"/>
			</g>
		</g>
	</g>
	<g>
		<defs>
			<rect id="SVGID_57_" width="1350" height="750"/>
		</defs>
		<clipPath id="SVGID_58_">
			<use xlink:href="#SVGID_57_"  style="overflow:visible;"/>
		</clipPath>
		<g class="st30">
			<path class="st2" d="M192.33,148.67c-9.47,0-17.17-7.7-17.17-17.17s7.7-17.17,17.17-17.17s17.17,7.7,17.17,17.17
				C209.5,140.96,201.8,148.67,192.33,148.67z M192.33,118.33c-7.26,0-13.17,5.91-13.17,13.17s5.91,13.17,13.17,13.17
				s13.17-5.91,13.17-13.17C205.5,124.24,199.59,118.33,192.33,118.33z"/>
		</g>
	</g>
	<g>
		<defs>
			<rect id="SVGID_59_" width="1350" height="750"/>
		</defs>
		<clipPath id="SVGID_60_">
			<use xlink:href="#SVGID_59_"  style="overflow:visible;"/>
		</clipPath>
		<g class="st31">
			<path class="st2" d="M675,603.71c-9.47,0-17.17-7.7-17.17-17.17s7.7-17.17,17.17-17.17s17.17,7.7,17.17,17.17
				S684.47,603.71,675,603.71z M675,573.38c-7.26,0-13.17,5.91-13.17,13.17s5.91,13.17,13.17,13.17s13.17-5.91,13.17-13.17
				S682.26,573.38,675,573.38z"/>
		</g>
	</g>
	<g>
		<defs>
			<rect id="SVGID_61_" width="1350" height="750"/>
		</defs>
		<clipPath id="SVGID_62_">
			<use xlink:href="#SVGID_61_"  style="overflow:visible;"/>
		</clipPath>
		<g class="st32">
			<path class="st2" d="M208.33,532.84c-9.47,0-17.17-7.7-17.17-17.17c0-9.47,7.7-17.17,17.17-17.17s17.17,7.7,17.17,17.17
				C225.5,525.14,217.8,532.84,208.33,532.84z M208.33,502.51c-7.26,0-13.17,5.91-13.17,13.17c0,7.26,5.91,13.17,13.17,13.17
				s13.17-5.91,13.17-13.17C221.5,508.42,215.59,502.51,208.33,502.51z"/>
		</g>
	</g>
	<g>
		<defs>
			<rect id="SVGID_63_" width="1350" height="750"/>
		</defs>
		<clipPath id="SVGID_64_">
			<use xlink:href="#SVGID_63_"  style="overflow:visible;"/>
		</clipPath>
		<g class="st33">
			<path class="st2" d="M170.49,334c-10.55,0-19.13-8.58-19.13-19.13c0-10.55,8.58-19.13,19.13-19.13s19.13,8.58,19.13,19.13
				C189.62,325.42,181.04,334,170.49,334z M170.49,299.74c-8.34,0-15.13,6.79-15.13,15.13S162.14,330,170.49,330
				s15.13-6.79,15.13-15.13S178.83,299.74,170.49,299.74z"/>
		</g>
	</g>
	<g>
		<defs>
			<rect id="SVGID_65_" width="1350" height="750"/>
		</defs>
		<clipPath id="SVGID_66_">
			<use xlink:href="#SVGID_65_"  style="overflow:visible;"/>
		</clipPath>
		<g class="st34">
			<path class="st2" d="M517.04,308.42c-9.57,0-17.35-7.79-17.35-17.35c0-9.57,7.79-17.35,17.35-17.35
				c9.57,0,17.36,7.79,17.36,17.35C534.4,300.63,526.62,308.42,517.04,308.42z M517.04,277.71c-7.36,0-13.35,5.99-13.35,13.35
				c0,7.36,5.99,13.35,13.35,13.35c7.36,0,13.36-5.99,13.36-13.35C530.4,283.7,524.41,277.71,517.04,277.71z"/>
		</g>
	</g>
	<g>
		<defs>
			<rect id="SVGID_67_" width="1350" height="750"/>
		</defs>
		<clipPath id="SVGID_68_">
			<use xlink:href="#SVGID_67_"  style="overflow:visible;"/>
		</clipPath>
		<g class="st35">
			<path class="st2" d="M659.24,490.03c-9.79,0-17.76-7.96-17.76-17.76c0-9.79,7.96-17.76,17.76-17.76
				c9.79,0,17.76,7.97,17.76,17.76C677,482.07,669.04,490.03,659.24,490.03z M659.24,458.52c-7.58,0-13.76,6.17-13.76,13.76
				s6.17,13.76,13.76,13.76S673,479.87,673,472.28S666.83,458.52,659.24,458.52z"/>
		</g>
	</g>
	<g>
		<defs>
			<rect id="SVGID_69_" width="1350" height="750"/>
		</defs>
		<clipPath id="SVGID_70_">
			<use xlink:href="#SVGID_69_"  style="overflow:visible;"/>
		</clipPath>
		<g class="st36">
			<path class="st2" d="M910.15,594.21c-9.42,0-17.08-7.66-17.08-17.08c0-9.42,7.66-17.08,17.08-17.08
				c9.41,0,17.08,7.66,17.08,17.08C927.22,586.55,919.56,594.21,910.15,594.21z M910.15,564.06c-7.21,0-13.08,5.87-13.08,13.08
				s5.87,13.08,13.08,13.08s13.08-5.87,13.08-13.08C923.22,569.93,917.36,564.06,910.15,564.06z"/>
		</g>
	</g>
	<g>
		<defs>
			<rect id="SVGID_71_" width="1350" height="750"/>
		</defs>
		<clipPath id="SVGID_72_">
			<use xlink:href="#SVGID_71_"  style="overflow:visible;"/>
		</clipPath>
		<g class="st37">
			<path class="st2" d="M859.25,399.1c-11.48,0-20.82-9.34-20.82-20.82s9.34-20.82,20.82-20.82s20.82,9.34,20.82,20.82
				C880.08,389.76,870.73,399.1,859.25,399.1z M859.25,361.46c-9.27,0-16.82,7.55-16.82,16.82c0,9.27,7.55,16.82,16.82,16.82
				c9.28,0,16.82-7.55,16.82-16.82C876.08,369,868.53,361.46,859.25,361.46z"/>
		</g>
	</g>
	<g>
		<defs>
			<rect id="SVGID_73_" width="1350" height="750"/>
		</defs>
		<clipPath id="SVGID_74_">
			<use xlink:href="#SVGID_73_"  style="overflow:visible;"/>
		</clipPath>
		<g class="st38">
			<path class="st2" d="M899.07,216.42c-8.59,0-15.58-6.99-15.58-15.58s6.99-15.59,15.58-15.59s15.59,6.99,15.59,15.59
				C914.66,209.42,907.66,216.42,899.07,216.42z M899.07,189.25c-6.39,0-11.58,5.2-11.58,11.59s5.2,11.58,11.58,11.58
				s11.59-5.2,11.59-11.58S905.46,189.25,899.07,189.25z"/>
		</g>
	</g>
	<g>
		<defs>
			<rect id="SVGID_75_" width="1350" height="750"/>
		</defs>
		<clipPath id="SVGID_76_">
			<use xlink:href="#SVGID_75_"  style="overflow:visible;"/>
		</clipPath>
		<g class="st39">
			<path class="st2" d="M680.14,182.49c-9.72,0-17.63-7.91-17.63-17.63s7.91-17.63,17.63-17.63c9.72,0,17.63,7.91,17.63,17.63
				S689.86,182.49,680.14,182.49z M680.14,151.23c-7.51,0-13.63,6.11-13.63,13.63c0,7.51,6.11,13.63,13.63,13.63
				c7.51,0,13.63-6.11,13.63-13.63S687.66,151.23,680.14,151.23z"/>
		</g>
	</g>
	<g>
		<defs>
			<rect id="SVGID_77_" width="1350" height="750"/>
		</defs>
		<clipPath id="SVGID_78_">
			<use xlink:href="#SVGID_77_"  style="overflow:visible;"/>
		</clipPath>
		<g class="st40">
			<path class="st2" d="M638.65,64.32c-10.66,0-19.33-8.67-19.33-19.33s8.67-19.33,19.33-19.33c10.66,0,19.33,8.67,19.33,19.33
				C657.98,55.65,649.31,64.32,638.65,64.32z M638.65,29.67c-8.45,0-15.33,6.88-15.33,15.33s6.88,15.33,15.33,15.33
				s15.33-6.88,15.33-15.33C653.98,36.54,647.1,29.67,638.65,29.67z"/>
		</g>
	</g>
	<g>
		<defs>
			<rect id="SVGID_79_" width="1350" height="750"/>
		</defs>
		<clipPath id="SVGID_80_">
			<use xlink:href="#SVGID_79_"  style="overflow:visible;"/>
		</clipPath>
		<g class="st41">
			<path class="st2" d="M1085.16,65.43c-8.92,0-16.17-7.25-16.17-16.17s7.25-16.17,16.17-16.17s16.17,7.25,16.17,16.17
				S1094.08,65.43,1085.16,65.43z M1085.16,37.09c-6.71,0-12.17,5.46-12.17,12.17s5.46,12.17,12.17,12.17s12.17-5.46,12.17-12.17
				C1097.33,42.55,1091.87,37.09,1085.16,37.09z"/>
		</g>
	</g>
	<g>
		<defs>
			<rect id="SVGID_81_" width="1350" height="750"/>
		</defs>
		<clipPath id="SVGID_82_">
			<use xlink:href="#SVGID_81_"  style="overflow:visible;"/>
		</clipPath>
		<g class="st42">
			<path class="st2" d="M1141.92,143.08c-8.59,0-15.58-6.99-15.58-15.58s6.99-15.58,15.58-15.58s15.58,6.99,15.58,15.58
				S1150.51,143.08,1141.92,143.08z M1141.92,115.91c-6.39,0-11.58,5.2-11.58,11.58s5.2,11.58,11.58,11.58s11.58-5.2,11.58-11.58
				S1148.3,115.91,1141.92,115.91z"/>
		</g>
	</g>
	<g>
		<defs>
			<rect id="SVGID_83_" width="1350" height="750"/>
		</defs>
		<clipPath id="SVGID_84_">
			<use xlink:href="#SVGID_83_"  style="overflow:visible;"/>
		</clipPath>
		<g class="st43">
			<path class="st2" d="M920.31,49c-9.72,0-17.63-7.91-17.63-17.63s7.91-17.63,17.63-17.63c9.72,0,17.63,7.91,17.63,17.63
				S930.03,49,920.31,49z M920.31,17.75c-7.51,0-13.63,6.11-13.63,13.63c0,7.51,6.11,13.63,13.63,13.63
				c7.51,0,13.63-6.11,13.63-13.63S927.82,17.75,920.31,17.75z"/>
		</g>
	</g>
	<g>
		<defs>
			<rect id="SVGID_85_" width="1350" height="750"/>
		</defs>
		<clipPath id="SVGID_86_">
			<use xlink:href="#SVGID_85_"  style="overflow:visible;"/>
		</clipPath>
		<g class="st44">
			<path class="st2" d="M1296.33,77.23c-9,0-16.33-7.32-16.33-16.33c0-9,7.32-16.33,16.33-16.33s16.33,7.32,16.33,16.33
				C1312.65,69.9,1305.33,77.23,1296.33,77.23z M1296.33,48.58c-6.8,0-12.33,5.53-12.33,12.33s5.53,12.33,12.33,12.33
				s12.33-5.53,12.33-12.33S1303.12,48.58,1296.33,48.58z"/>
		</g>
	</g>
	<g>
		<defs>
			<rect id="SVGID_87_" width="1350" height="750"/>
		</defs>
		<clipPath id="SVGID_88_">
			<use xlink:href="#SVGID_87_"  style="overflow:visible;"/>
		</clipPath>
		<g class="st45">
			<path class="st2" d="M1159.75,416.65c-9.83,0-17.83-8-17.83-17.83s8-17.83,17.83-17.83s17.83,8,17.83,17.83
				S1169.58,416.65,1159.75,416.65z M1159.75,385c-7.62,0-13.83,6.2-13.83,13.83c0,7.62,6.2,13.83,13.83,13.83
				c7.62,0,13.83-6.2,13.83-13.83C1173.58,391.21,1167.37,385,1159.75,385z"/>
		</g>
	</g>
	<g>
		<defs>
			<rect id="SVGID_89_" width="1350" height="750"/>
		</defs>
		<clipPath id="SVGID_90_">
			<use xlink:href="#SVGID_89_"  style="overflow:visible;"/>
		</clipPath>
		<g class="st46">
			<path class="st2" d="M1016.03,594.77c-9.42,0-17.08-7.66-17.08-17.08c0-9.42,7.66-17.08,17.08-17.08s17.08,7.66,17.08,17.08
				C1033.11,587.11,1025.45,594.77,1016.03,594.77z M1016.03,564.62c-7.21,0-13.08,5.87-13.08,13.08s5.87,13.08,13.08,13.08
				s13.08-5.87,13.08-13.08S1023.24,564.62,1016.03,564.62z"/>
		</g>
	</g>
	<g>
		<defs>
			<rect id="SVGID_91_" width="1350" height="750"/>
		</defs>
		<clipPath id="SVGID_92_">
			<use xlink:href="#SVGID_91_"  style="overflow:visible;"/>
		</clipPath>
		<g class="st47">
			<path class="st2" d="M1297.83,670.22c-9.83,0-17.83-8-17.83-17.83s8-17.83,17.83-17.83s17.83,8,17.83,17.83
				S1307.66,670.22,1297.83,670.22z M1297.83,638.57c-7.62,0-13.83,6.2-13.83,13.83c0,7.62,6.2,13.83,13.83,13.83
				c7.62,0,13.83-6.2,13.83-13.83C1311.65,644.77,1305.45,638.57,1297.83,638.57z"/>
		</g>
	</g>
	<g>
		<defs>
			<rect id="SVGID_93_" width="1350" height="750"/>
		</defs>
		<clipPath id="SVGID_94_">
			<use xlink:href="#SVGID_93_"  style="overflow:visible;"/>
		</clipPath>
		<g class="st48">
			<path class="st2" d="M219.98,710.5c-9.83,0-17.83-8-17.83-17.83s8-17.83,17.83-17.83s17.83,8,17.83,17.83
				S229.81,710.5,219.98,710.5z M219.98,678.85c-7.62,0-13.83,6.2-13.83,13.83c0,7.62,6.2,13.83,13.83,13.83
				c7.62,0,13.83-6.2,13.83-13.83C233.8,685.05,227.6,678.85,219.98,678.85z"/>
		</g>
	</g>
	<g>
		<defs>
			<rect id="SVGID_95_" width="1350" height="750"/>
		</defs>
		<clipPath id="SVGID_96_">
			<use xlink:href="#SVGID_95_"  style="overflow:visible;"/>
		</clipPath>
		<g class="st49">
			<path class="st2" d="M83.37,568.75c-10.25,0-18.59-8.34-18.59-18.59s8.34-18.59,18.59-18.59s18.59,8.34,18.59,18.59
				C101.96,560.41,93.62,568.75,83.37,568.75z M83.37,535.57c-8.04,0-14.59,6.55-14.59,14.59c0,8.04,6.55,14.59,14.59,14.59
				s14.59-6.54,14.59-14.59C97.96,542.12,91.42,535.57,83.37,535.57z"/>
		</g>
	</g>
	<g>
		<defs>
			<rect id="SVGID_97_" width="1350" height="750"/>
		</defs>
		<clipPath id="SVGID_98_">
			<use xlink:href="#SVGID_97_"  style="overflow:visible;"/>
		</clipPath>
		<g class="st50">
			<path class="st2" d="M29.47,361.29c-11.35,0-20.67-9.23-20.78-20.58c-0.06-5.55,2.05-10.79,5.94-14.76s9.08-6.18,14.64-6.24h0.21
				c11.35,0,20.67,9.23,20.78,20.58c0.12,11.46-9.12,20.88-20.58,21H29.47z M29.47,323.71H29.3c-4.49,0.05-8.68,1.83-11.82,5.04
				c-3.14,3.2-4.84,7.44-4.8,11.92c0.09,9.17,7.62,16.62,16.78,16.62h0.17c9.26-0.09,16.71-7.7,16.62-16.96
				C46.17,331.16,38.64,323.71,29.47,323.71z"/>
		</g>
	</g>
	<g>
		<defs>
			<rect id="SVGID_99_" width="1350" height="750"/>
		</defs>
		<clipPath id="SVGID_100_">
			<use xlink:href="#SVGID_99_"  style="overflow:visible;"/>
		</clipPath>
		<g class="st51">
			<path class="st2" d="M33.21,116.96c-9.7,0-17.68-7.9-17.78-17.6c-0.1-9.8,7.8-17.86,17.6-17.96h0.18c9.7,0,17.68,7.9,17.78,17.6
				c0.1,9.8-7.8,17.86-17.6,17.96H33.21z M33.21,85.4h-0.14c-7.6,0.08-13.72,6.32-13.64,13.92c0.08,7.52,6.25,13.64,13.78,13.64
				h0.14c7.6-0.08,13.72-6.32,13.64-13.92C46.91,91.52,40.73,85.4,33.21,85.4z"/>
		</g>
	</g>
	<g>
		<defs>
			<rect id="SVGID_101_" width="1350" height="750"/>
		</defs>
		<clipPath id="SVGID_102_">
			<use xlink:href="#SVGID_101_"  style="overflow:visible;"/>
		</clipPath>
		<g class="st52">
			<path class="st2" d="M241.74,58.26c-8.94,0-16.28-7.27-16.37-16.21c-0.04-4.37,1.62-8.5,4.68-11.62s7.15-4.87,11.53-4.91h0.17
				c8.93,0,16.28,7.27,16.37,16.21c0.09,9.03-7.18,16.44-16.2,16.54L241.74,58.26z M241.75,29.52h-0.13
				c-3.3,0.03-6.4,1.35-8.71,3.71c-2.31,2.36-3.57,5.48-3.53,8.78c0.07,6.75,5.62,12.25,12.37,12.25h0.13
				c6.82-0.07,12.31-5.67,12.25-12.49C254.05,35.02,248.5,29.52,241.75,29.52z"/>
		</g>
	</g>
	<g>
		<defs>
			<rect id="SVGID_103_" width="1350" height="750"/>
		</defs>
		<clipPath id="SVGID_104_">
			<use xlink:href="#SVGID_103_"  style="overflow:visible;"/>
		</clipPath>
		<g class="st53">
			<path class="st2" d="M978.5,111.13c-11.3,0-20.49-9.19-20.49-20.49s9.19-20.49,20.49-20.49s20.49,9.19,20.49,20.49
				S989.8,111.13,978.5,111.13z M978.5,74.16c-9.09,0-16.49,7.4-16.49,16.49s7.4,16.49,16.49,16.49c9.09,0,16.49-7.4,16.49-16.49
				S987.59,74.16,978.5,74.16z"/>
		</g>
	</g>
</g>
</svg>
