<?xml version="1.0" encoding="utf-8"?>
<!-- Generator: Adobe Illustrator 24.1.2, SVG Export Plug-In . SVG Version: 6.00 Build 0)  -->
<svg version="1.1" id="Layer_1" xmlns="http://www.w3.org/2000/svg" xmlns:xlink="http://www.w3.org/1999/xlink" x="0px" y="0px"
	 viewBox="0 0 287.74 87.9" style="enable-background:new 0 0 287.74 87.9;" xml:space="preserve">
<style type="text/css">
	.st0{fill:#D0D2D3;}
	.st1{opacity:0.6;fill:#9C9EA1;}
	.st2{fill:#F5D750;}
	.st3{clip-path:url(#SVGID_2_);}
	.st4{fill:#E31E25;}
	.st5{fill:#EE3B2D;}
	.st6{fill:#C1181E;}
	.st7{fill:#334883;}
	.st8{opacity:0.7;fill:#201A37;}
	.st9{opacity:0.4;fill:#1E173B;}
	.st10{fill:#35376D;}
	.st11{fill:#12659F;}
	.st12{fill:#085F8B;}
	.st13{fill:#9F0F13;}
	.st14{opacity:0.4;fill:#201A37;}
	.st15{fill:#C81A21;}
	.st16{fill:none;stroke:#E31E25;stroke-width:0.2786;stroke-miterlimit:10;}
	.st17{fill:#E39418;}
	.st18{fill:#B66B12;}
	.st19{fill:#D8A277;}
	.st20{fill:#D19160;}
	.st21{fill:#F4C405;}
	.st22{fill:#F2BD19;}
	.st23{fill:#FFDB2E;}
	.st24{fill:#FFD300;}
	.st25{opacity:0.5;fill:#FAAF4A;}
	.st26{fill:#D89F11;}
	.st27{opacity:0.8;fill:#FAAF4A;}
	.st28{opacity:0.5;clip-path:url(#SVGID_4_);fill:#FAAF4A;}
	.st29{opacity:0.4;clip-path:url(#SVGID_4_);fill:#D8D9DB;}
	.st30{clip-path:url(#SVGID_4_);fill:none;stroke:#9A9C9F;stroke-width:1.2;stroke-miterlimit:10;}
	.st31{clip-path:url(#SVGID_4_);}
	.st32{fill:#4373AD;}
	.st33{opacity:0.4;fill:#D8D9DB;}
	.st34{fill:#FFFFFF;}
	.st35{fill:#0062A1;}
	.st36{clip-path:url(#SVGID_4_);fill:#E6E7E8;}
	.st37{fill:#F3C206;}
	.st38{fill:#F5B90F;}
	.st39{clip-path:url(#SVGID_6_);fill:#9C9EA1;}
	.st40{clip-path:url(#SVGID_6_);}
	.st41{opacity:0.4;fill:#9C9EA1;}
	.st42{fill:none;stroke:#E31E25;stroke-width:0.0964;stroke-miterlimit:10;}
	
		.st43{clip-path:url(#SVGID_6_);fill:none;stroke:#137BBF;stroke-width:2;stroke-linecap:round;stroke-linejoin:round;stroke-miterlimit:10;}
	.st44{clip-path:url(#SVGID_6_);fill:#C1D7EF;}
	.st45{clip-path:url(#SVGID_6_);fill:#ACD2EF;}
	.st46{clip-path:url(#SVGID_6_);fill:#80C5ED;}
	
		.st47{clip-path:url(#SVGID_6_);fill:none;stroke:#84B4E0;stroke-width:0.8147;stroke-linecap:round;stroke-linejoin:round;stroke-miterlimit:10;}
	.st48{opacity:0.65;fill:#FFFFFF;}
	.st49{opacity:0.8;fill:#FCF8F5;}
	.st50{opacity:0.5;fill:#FCF8F5;}
	.st51{opacity:0.75;fill:#FCF8F5;}
	.st52{fill:none;stroke:#9A9C9F;stroke-width:1.2439;stroke-miterlimit:10;}
	.st53{clip-path:url(#SVGID_6_);fill:#FFFFFF;}
	.st54{fill:#223F99;stroke:#223F99;stroke-width:0.2334;stroke-miterlimit:10;}
	.st55{clip-path:url(#SVGID_8_);}
	.st56{fill:#CBDEF2;}
	.st57{fill:#B9D6F0;}
	.st58{fill:#C6DBF1;}
	.st59{fill:none;stroke:#137BBF;stroke-width:2;stroke-miterlimit:10;}
	.st60{fill:none;stroke:#84B4E0;stroke-width:0.4;stroke-linecap:round;stroke-linejoin:round;stroke-miterlimit:10;}
	.st61{fill:none;stroke:#137BBF;stroke-width:1.5997;stroke-linecap:round;stroke-linejoin:round;stroke-miterlimit:10;}
	.st62{fill:none;stroke:#223F99;stroke-width:1.5997;stroke-linecap:round;stroke-linejoin:round;stroke-miterlimit:10;}
	.st63{opacity:0.5;clip-path:url(#SVGID_8_);fill:#FFFFFF;}
	.st64{fill:#223F99;stroke:#9C9EA1;stroke-width:0.248;stroke-miterlimit:10;}
	
		.st65{clip-path:url(#SVGID_8_);fill:none;stroke:#223F99;stroke-width:1.5997;stroke-linecap:round;stroke-linejoin:round;stroke-miterlimit:10;}
	
		.st66{clip-path:url(#SVGID_8_);fill:none;stroke:#9C9EA1;stroke-width:1.1248;stroke-linecap:round;stroke-linejoin:round;stroke-miterlimit:10;}
	.st67{fill:none;stroke:#9C9EA1;stroke-width:1.166;stroke-linecap:round;stroke-linejoin:round;stroke-miterlimit:10;}
	.st68{fill:none;stroke:#9C9EA1;stroke-width:1.1248;stroke-linecap:round;stroke-linejoin:round;stroke-miterlimit:10;}
</style>
<g>
	<path class="st0" d="M282.35,70.69h-72.61c-2.97,0-5.38-2.41-5.38-5.38V5.38c0-2.97,2.41-5.38,5.38-5.38h72.61
		c2.97,0,5.38,2.41,5.38,5.38v59.93C287.74,68.29,285.33,70.69,282.35,70.69z"/>
	<path class="st1" d="M266.51,70.69c-0.39,4.77-10.82,8.32-23.78,8.22c-13.13-0.11-23.78-3.68-23.78-8.22s10.65-8.22,23.78-8.22
		C255.87,62.47,266.88,66.17,266.51,70.69z"/>
	<path class="st2" d="M42.24,87.9"/>
	<path class="st0" d="M78.08,70.69H5.47c-2.97,0-5.38-2.41-5.38-5.38V5.38C0.09,2.41,2.5,0,5.47,0h72.61c2.97,0,5.38,2.41,5.38,5.38
		v59.93C83.45,68.29,81.04,70.69,78.08,70.69z"/>
	<path class="st0" d="M180.17,70.69h-72.61c-2.97,0-5.38-2.41-5.38-5.38V5.38c0-2.97,2.41-5.38,5.38-5.38h72.61
		c2.97,0,5.38,2.41,5.38,5.38v59.93C185.55,68.29,183.14,70.69,180.17,70.69z"/>
	<g>
		<defs>
			<path id="SVGID_1_" d="M53.74,74.7l-6.08-5.08L5.38,70.69C2.41,70.69,0,68.28,0,65.31V5.38C0,2.41,2.41,0,5.38,0h72.61
				c2.97,0,5.38,2.41,5.38,5.38l0.09,54.03l1.59,3.48c7.99,4.8-11.78,14.99-15.13,11.94c-0.32-0.17-0.65-0.2-0.83-0.5
				C66.53,70.09,56.89,76.74,53.74,74.7z"/>
		</defs>
		<clipPath id="SVGID_2_">
			<use xlink:href="#SVGID_1_"  style="overflow:visible;"/>
		</clipPath>
		<g class="st3">
			
				<rect x="30.4" y="13.75" transform="matrix(-0.9346 0.3556 -0.3556 -0.9346 67.1092 20.2335)" class="st4" width="2.59" height="5.07"/>
			<polygon class="st5" points="31.88,18.93 32.6,18.66 30.82,13.77 30.09,14.11 			"/>
			<path class="st6" d="M30.95,16.8c0.27-0.13,0.53-0.26,0.78-0.42c0.38-0.23,0.74-0.49,1.09-0.77L32,13.45l-2.42,0.92l0.98,2.58
				C30.7,16.91,30.83,16.86,30.95,16.8z"/>
			<path class="st7" d="M-5.6,0.92l16.84-22.26c0,0,0.79-1.58,1.99-0.66l14.58,11.03c0,0,6.04,4.57,7.33,11.65
				c0.06,0.46,0.1,1.05-0.8,1.47c-0.13,0.06-0.28,0.12-0.44,0.17l-2.1,0.91c-0.59-2.33-1.97-4.5-4.05-6.08
				c-4.82-3.64-11.62-2.77-15.19,1.96C9.72,2.85,9.76,7.9,12.32,11.64l-1.59,0.69c0,0-1.9,0.72-3.65-0.73L-4.06,3.18
				C-4.06,3.18-6.23,1.94-5.6,0.92z"/>
			<path class="st7" d="M-58.71-42.27l14.45-19.11c0.95-1.25,2.74-1.5,3.99-0.55l52.81,39.95L-5.35,1.67l-52.81-39.94
				C-59.41-39.23-59.66-41.01-58.71-42.27z"/>
			<path class="st7" d="M-59.94-40.64c4.4-8.31,10.1-15.72,16.92-22.37c0.41-0.54,1.19-0.65,1.73-0.24l8.64,6.53
				c0.26,0.2,0.31,0.56,0.11,0.82c-6.83,7.36-12.79,15.13-17.71,23.41c-0.2,0.26-0.56,0.31-0.82,0.12l-8.64-6.54
				C-60.25-39.32-60.36-40.09-59.94-40.64z"/>
			<path class="st7" d="M-32.54-55.89c0.09-0.12,0.12-0.26,0.11-0.4c-0.4-0.03-0.81,0.14-1.08,0.49
				c-6.83,6.65-12.52,14.06-16.92,22.37c-0.26,0.35-0.31,0.79-0.17,1.17c0.14-0.03,0.26-0.1,0.35-0.22
				C-45.33-40.76-39.36-48.53-32.54-55.89z"/>
			
				<rect x="-11.49" y="-10.68" transform="matrix(0.603 -0.7978 0.7978 0.603 9.5835 -1.4489)" class="st8" width="29.65" height="0.65"/>
			<path class="st7" d="M10.04-18.67l2.5-3.31l-52.81-39.95c-1.25-0.95-3.04-0.7-3.99,0.55l-0.8,1.05
				C-26.68-46.45-8.17-32.76,10.04-18.67z"/>
			<path class="st7" d="M-3.62-0.61L-58.7-42.28l-0.01,0.01c-0.95,1.25-0.7,3.04,0.55,3.99L-5.35,1.67L-3.62-0.61z"/>
			<path class="st7" d="M34.6,3.04c0,0-0.3-0.56-0.25-0.89c0.05-0.34-14.4,5.88-14.4,5.88s0.4,0.35,0.5,0.63
				c0.1,0.28,0.46,0.81,1.28,0.41c0.82-0.41,12.69-5.38,12.69-5.38S34.75,3.4,34.6,3.04z"/>
			<path class="st9" d="M24.94-10.08c4.23,3.45,7.06,7.39,9.19,12.32c0.07-0.03,0.15-0.06,0.21-0.09c0.89-0.42,0.86-1.01,0.8-1.47
				c-1.29-7.08-7.33-11.65-7.33-11.65L13.23-22c-1.21-0.91-1.99,0.66-1.99,0.66l-0.36,0.48C15.59-17.3,20.37-13.82,24.94-10.08z"/>
			<path class="st9" d="M21.73,9.06c0.06-0.03,0.17-0.08,0.33-0.15c0.92-1.64,2.5-2.35,4.25-3.13c1.25-0.55,2.43-1.24,3.77-1.54
				c1.1-0.25,2.03,0.08,3.1-0.04c0.76-0.32,1.24-0.52,1.24-0.52s0.33-0.28,0.17-0.64c0,0-0.3-0.56-0.25-0.89
				c0.05-0.34-14.4,5.88-14.4,5.88s0.4,0.35,0.5,0.63C20.54,8.94,20.91,9.47,21.73,9.06z"/>
			<path class="st6" d="M34.53,6.89l1.2,3.05c0,0,0.2,0.57-0.54,0.87l-9.74,3.86c0,0-0.71,0.24-0.96-0.4l-1.24-2.84L34.53,6.89z"/>
			<path class="st5" d="M25.42,11.51c0.07,0.22,0.15,0.45,0.24,0.67c0.25,0.61,0.42,1.39,0.92,1.84c0.05,0.05,0.09,0.1,0.13,0.16
				l3.57-1.42c-0.95-0.94-1.56-2.19-1.53-3.54l-3.14,1.27C25.5,10.83,25.44,11.17,25.42,11.51z"/>
			<path class="st4" d="M34.45,3.44l0.41,1.14c0,0,0.16,0.38-0.59,0.63l-11.67,4.81c0,0-0.81,0.46-1.13,0.01
				c-0.33-0.45-0.42-0.94-0.42-0.94L34.45,3.44z"/>
			<path class="st9" d="M29.3-7.78c-3.37-3.09-15.55-11.76-15.55-11.76s-0.86-1.73,0.91-1.38l13.14,9.94c0,0,2.7,2.05,4.88,5.52
				C31.83-5.82,30.7-6.5,29.3-7.78z"/>
			<path class="st10" d="M12.32,11.64C9.76,7.9,9.72,2.85,12.55-0.89c3.57-4.73,10.38-5.6,15.19-1.96c2.09,1.58,3.46,3.75,4.05,6.08
				L12.32,11.64z"/>
			<path class="st11" d="M-48.91-31.28c4.69-8.86,10.65-16.75,17.89-23.65l41.6,31.47L-7.31,0.18L-48.91-31.28z"/>
			
				<rect x="-13.46" y="-63.67" transform="matrix(-0.6033 0.7975 -0.7975 -0.6033 -48.3193 -51.141)" class="st12" width="4.04" height="52.16"/>
			
				<rect x="-28.68" y="-42.77" transform="matrix(-0.6034 0.7974 -0.7974 -0.6034 -56.9991 -5.0325)" class="st12" width="2.86" height="52.16"/>
			<path class="st4" d="M34.66,10.99l0.03,0.08c0.68,1.72-0.16,3.68-1.87,4.37l-2.27,0.92c-1.74,0.7-3.72-0.14-4.41-1.88l-0.05-0.13
				L34.66,10.99z"/>
			<path class="st4" d="M34.66,10.99l0.03,0.08c0.68,1.72-0.16,3.68-1.87,4.37l-2.27,0.92c-1.74,0.7-3.72-0.14-4.41-1.88l-0.05-0.13
				L34.66,10.99z"/>
			<path class="st13" d="M31.38,19.12c-0.06-0.16,0.44-0.49,1.11-0.74c0.67-0.26,1.26-0.34,1.32-0.18c0.06,0.15-0.44,0.49-1.11,0.74
				C32.03,19.19,31.44,19.27,31.38,19.12z"/>
			<path class="st9" d="M-4.06,3.18L7.08,11.6c1.61,1.34,3.35,0.83,3.62,0.74c-2.84-1.09-5.41-3.38-7.66-5.12
				C0.69,5.42-1.72,3.63-3.95,1.68C-4.47,1.23-4.84,0.75-5.1,0.25L-5.6,0.92C-6.23,1.94-4.06,3.18-4.06,3.18z"/>
			<g>
				<path class="st14" d="M9.46-16.17L9.46-16.17c0.65-0.86,1.87-1.03,2.73-0.38l2.83,2.14c0.86,0.65,1.03,1.87,0.38,2.73l0,0
					c-0.65,0.86-1.87,1.03-2.73,0.38l-2.83-2.14C8.98-14.09,8.81-15.31,9.46-16.17z"/>
				<path class="st14" d="M-0.96-2.39L-0.96-2.39c0.65-0.86,1.87-1.03,2.73-0.38L4.6-0.63C5.46,0.02,5.63,1.24,4.98,2.1l0,0
					C4.33,2.96,3.11,3.13,2.25,2.48l-2.83-2.14C-1.44-0.31-1.61-1.53-0.96-2.39z"/>
				<path class="st14" d="M3.99-8.93L3.99-8.93c0.54-0.72,1.56-0.86,2.28-0.32l2.37,1.79C9.35-6.92,9.49-5.9,8.95-5.18l0,0
					C8.41-4.46,7.39-4.32,6.67-4.86L4.3-6.65C3.59-7.19,3.44-8.21,3.99-8.93z"/>
			</g>
			<path class="st5" d="M24.99,9.04l6.12-2.52c-0.16-0.49-0.33-0.97-0.51-1.45l-6.12,2.58C24.64,8.11,24.82,8.58,24.99,9.04z"/>
			<path class="st15" d="M34.6,4.85l1.37,3.48c0,0,0.23,0.64-0.62,0.99l-11.09,4.4c0,0-0.8,0.27-1.09-0.45l-1.41-3.24L34.6,4.85z"/>
			<g>
				<line class="st16" x1="35.76" y1="8.74" x2="34.43" y2="5.16"/>
				<line class="st16" x1="35.37" y1="8.9" x2="34.04" y2="5.32"/>
				<line class="st16" x1="34.98" y1="9.05" x2="33.65" y2="5.48"/>
				<line class="st16" x1="34.58" y1="9.21" x2="33.26" y2="5.64"/>
				<line class="st16" x1="34.19" y1="9.36" x2="32.87" y2="5.8"/>
				<line class="st16" x1="33.8" y1="9.51" x2="32.48" y2="5.96"/>
				<line class="st16" x1="33.41" y1="9.67" x2="32.09" y2="6.12"/>
				<line class="st16" x1="33.02" y1="9.82" x2="31.7" y2="6.29"/>
				<line class="st16" x1="32.62" y1="9.98" x2="31.31" y2="6.45"/>
				<line class="st16" x1="32.23" y1="10.13" x2="30.92" y2="6.61"/>
				<line class="st16" x1="31.84" y1="10.29" x2="30.53" y2="6.77"/>
				<line class="st16" x1="31.45" y1="10.44" x2="30.14" y2="6.93"/>
				<line class="st16" x1="31.05" y1="10.6" x2="29.75" y2="7.09"/>
				<line class="st16" x1="30.66" y1="10.75" x2="29.36" y2="7.25"/>
				<line class="st16" x1="30.27" y1="10.9" x2="28.97" y2="7.41"/>
				<line class="st16" x1="29.88" y1="11.06" x2="28.58" y2="7.57"/>
				<line class="st16" x1="29.48" y1="11.21" x2="28.19" y2="7.73"/>
				<line class="st16" x1="29.09" y1="11.37" x2="27.8" y2="7.89"/>
				<line class="st16" x1="28.7" y1="11.52" x2="27.41" y2="8.05"/>
				<line class="st16" x1="28.31" y1="11.68" x2="27.02" y2="8.21"/>
				<line class="st16" x1="27.92" y1="11.83" x2="26.63" y2="8.37"/>
				<line class="st16" x1="27.52" y1="11.98" x2="26.24" y2="8.53"/>
				<line class="st16" x1="27.13" y1="12.14" x2="25.85" y2="8.69"/>
				<line class="st16" x1="26.74" y1="12.29" x2="25.46" y2="8.85"/>
				<line class="st16" x1="26.35" y1="12.45" x2="25.07" y2="9.02"/>
				<line class="st16" x1="25.95" y1="12.6" x2="24.68" y2="9.18"/>
				<line class="st16" x1="25.56" y1="12.76" x2="24.29" y2="9.34"/>
				<line class="st16" x1="25.17" y1="12.91" x2="23.9" y2="9.5"/>
				<line class="st16" x1="24.78" y1="13.07" x2="23.51" y2="9.66"/>
				<line class="st16" x1="24.38" y1="13.22" x2="23.12" y2="9.82"/>
				<line class="st16" x1="23.99" y1="13.37" x2="22.73" y2="9.98"/>
				<line class="st16" x1="23.6" y1="13.53" x2="22.34" y2="10.14"/>
			</g>
			<path class="st15" d="M26.4,15c0,0,5.19-2.1,6.41-2.35c1.22-0.25-5.45,2.02-6.12,2.76L26.4,15z"/>
			<path class="st15" d="M34.93,12.49c0,0-4.94,1.6-7.01,3.08c3.02-1.64,6.93-2.64,6.93-2.64L34.93,12.49z"/>
		</g>
		<g class="st3">
			<path class="st17" d="M78.02,54.84c-0.21-0.1-0.63-0.28-1.18-0.52c-2.26-0.97-7.57-3.23-9.3-5.15c-1.78-1.98-3.68-4.71-5.36-7.12
				c-0.64-0.92-1.26-1.81-1.85-2.63c-1.17-1.62-2.37-2.85-3.77-3.88c-0.51-0.37-1.01-0.71-1.5-1.04c-1.16-0.78-2.17-1.46-3.1-2.47
				c-1.16-1.26-2.3-2.47-3.52-3.51c-0.79-0.67-1.71-1.02-2.52-1.33c-0.75-0.29-1.46-0.56-1.96-1.03c-0.38-0.36-0.72-0.92-1.06-1.46
				c-0.24-0.38-0.47-0.76-0.73-1.1c-0.62-0.82-1.74-1.7-3.05-1.7c-0.32,0-0.63,0.05-0.93,0.16c-1.39,0.49-2.16,2-1.96,3.84
				c0.28,2.63,1.5,5,3.73,7.23c0.61,0.61,2.15,1.64,2.72,2.02c0.16,0.25,0.34,0.5,0.53,0.76c-3.83-1.75-7.58-3.32-11.17-4.66
				c-3.65-1.83-5.63-2.79-7.24-2.79c-1.32,0-2.31,0.65-3.03,1.99c-0.38,0.71-0.45,1.46-0.21,2.16c0.61,1.8,3.05,3.01,6.98,4.82
				l0.17,0.08c-0.09,0.15-0.16,0.29-0.22,0.41c-0.21,0.41-0.88,1.83-0.74,3.04c0.02,0.74,0.5,1.43,0.96,1.99
				c-0.2,0.37-0.33,0.72-0.43,0.99c-0.04,0.12-0.08,0.23-0.12,0.31c-0.5,1.06-0.29,2.39,0.66,4.17c0,0.05-0.03,0.24-0.03,0.24
				l0,0.11c0.08,1.97,1.47,4.9,2.87,5.96c0.58,0.37,1.03,0.61,1.46,0.85c0.77,0.42,1.44,0.77,2.77,1.86
				c1.78,2.07,5.95,2.83,10.77,3.72c2.54,0.47,5.17,0.95,7.36,1.64c1.05,0.37,5.31,5.01,7.14,6.99c1.1,1.2,1.74,1.89,2.06,2.18
				l0.28,0.25c0.49,0.44,1.2,0.55,1.8,0.27l1.3-0.61c1.44-3.11,1.5-6.2,3.5-8.66c1.57-1.94,4.76-4.41,7.88-5.45
				C78.62,57.09,78.74,55.49,78.02,54.84z"/>
			<path class="st18" d="M63.74,70.64c0.9,5.73,18.19-16.93,13.25-14.62C76.99,56.01,61.58,56.88,63.74,70.64z"/>
			<path class="st19" d="M74.31,55.1l18.27,13.25L78.89,82.64L62.73,68.49C62.73,68.49,64.42,61.5,74.31,55.1z"/>
			<path class="st20" d="M70.53,64.35c1.57-2.93,3.55-5.54,6.18-7.5l-2.4-1.74c-9.9,6.39-11.58,13.39-11.58,13.39l4.49,3.93
				C67.95,69.61,69.14,66.94,70.53,64.35z"/>
			<path class="st21" d="M38.97,47.08c0.13,0.06,0.32,0.2,0.46,0.22c0.44,0.05,0.79-0.26,1.18-0.06c-0.26-0.01-0.53,0.04-0.74,0.17
				c-0.55,0.33-0.59,1.05-0.72,1.65c-0.14,0.65,0.39,2.38-0.06,2.91c-0.05,0.06-0.11,0.12-0.19,0.12c-0.07,0-1.15-1.28-1.2-1.32
				c-0.78-0.57-1.53-0.96-2.25-1.6c0.26-0.42,0.26-1.04,0.04-1.48c-0.22-0.44-0.49-0.91-0.4-1.39c0.12-0.61,0.96-1.07,1.55-0.73
				c0.36,0.21,0.67,0.62,1.01,0.88C38.06,46.73,38.53,46.86,38.97,47.08z"/>
			<path class="st22" d="M39.32,47.35c0.11-0.17,0.45,0.12,0.66,0.09c-0.37,0.01,0.48-1.41,0.7-1.68c0.37-0.44,1.39-2.5,1.59-3.08
				c-0.71,0.02-2.5-0.81-2.5-0.81c-0.98-0.69-1.65-1.01-2.77-1.48c-0.34-0.14-0.78-0.26-1.06-0.04c-0.15,0.12-0.21,0.29-0.27,0.46
				c-0.14,0.4-0.28,0.8-0.41,1.2c-0.15,0.44-0.31,0.9-0.29,1.36c0.03,0.93,0.14,2.12,0.93,2.66C36.14,46.21,39.34,47.32,39.32,47.35
				z"/>
			<path class="st23" d="M69.26,62.54c2.02-2.5,5.16-5.69,8.29-6.73c-1.15-0.56-8.51-3.36-10.81-5.92c-2.5-2.78-5.11-6.83-7.28-9.83
				c-1.01-1.4-2.11-2.6-3.53-3.64c-1.72-1.26-3.32-2.1-4.75-3.64c-1.06-1.15-2.22-2.4-3.42-3.42c-1.34-1.14-3.26-1.19-4.53-2.4
				c-0.76-0.73-1.27-1.86-1.9-2.69c-0.63-0.83-1.74-1.53-2.75-1.17c-1.06,0.38-1.36,1.65-1.25,2.71c0.27,2.57,1.53,4.69,3.42,6.58
				c0.66,0.66,2.74,2,2.74,2c0.91,1.48,2.35,3.04,3.57,4.12c-0.84-0.21-2.83-0.93-2.83-0.93c-1.58-0.74-6.63-3.09-12.6-5.32
				c-5.58-2.8-7.57-3.74-8.88-1.28c-1.06,2.01,1.75,3.41,6.26,5.5c0.22,0.1,0.45,0.21,0.67,0.31c5.39,2.49,10.76,5.71,11.93,5.98
				c-0.8,1.08-3.23,6.64-2.65,9.14c-0.67-0.88-1.66-1.53-2.59-2.03c0.73-0.94,1.39-2.43,0.2-3.02c-0.44-0.22-1.58-0.34-2.08-0.33
				c-0.67,0.01-1.63,0.22-2.29,0.27c-1.12,0.08-1.69,0.46-2.13,1c-0.19,0.24-0.16,0.67-0.2,0.96c0.06,1.64,1.31,4.29,2.38,5.09
				c1.62,1.04,2.19,1.03,4.41,2.84c2.33,2.88,11.52,3.15,17.7,5.1c1.76,0.55,8.51,8.43,9.59,9.4
				C65.36,68.09,67.12,65.18,69.26,62.54z"/>
			<path class="st24" d="M64.59,69.65c0.01-0.01,0.02-0.02,0.03-0.03c-0.51-3.13-0.35-6.56,0.31-9.69c-0.9-0.21-1.63-0.61-2.23-1.11
				c0,0-0.5,0.14-0.78,0.19c-2.2,0.36-2.88-0.58-4.6-1.96c-3.27-2.63-6.27-6.96-7.58-10.81c-0.88-2.59-1.01-5.43-0.44-5.43
				c0.22,0-2.76-2.35-2.92-2.51c-0.94-0.29-2.18-0.74-2.18-0.74c-1.58-0.74-6.63-3.09-12.6-5.32c-5.58-2.8-7.57-3.74-8.88-1.28
				c-1.06,2.01,1.75,3.41,6.26,5.5c0.22,0.1,0.45,0.21,0.67,0.31c5.39,2.49,10.76,5.71,11.93,5.98c-0.8,1.08-3.23,6.64-2.65,9.14
				c-0.67-0.88-1.66-1.53-2.59-2.03c0.73-0.94,1.39-2.43,0.2-3.02c-0.44-0.22-1.58-0.34-2.08-0.33c-0.67,0.01-1.63,0.22-2.29,0.27
				c-1.12,0.08-1.69,0.46-2.13,1c-0.19,0.24-0.16,0.67-0.2,0.96c0.06,1.64,1.31,4.29,2.38,5.09c1.62,1.04,1.62,1.04,4.91,3.05
				c2.33,2.88,10.36,2.57,16.53,4.52c1.76,0.55,9.36,9.05,10.43,10.01C64.11,70.82,64.32,70.13,64.59,69.65z"/>
			<path class="st25" d="M46.56,44.63c-0.44,1.5-0.54,3.11-0.08,4.6c0.07,0.23,0.16,0.46,0.32,0.65c0.15,0.18,0.35,0.31,0.55,0.43
				c3.7,2.34,7.59,4.51,10.77,7.45C48,49.05,49.13,41.08,48.74,40.82C47.92,41.8,46.91,43.44,46.56,44.63z"/>
			<path class="st26" d="M36.78,46.97c1.74,1.76-2.27,4.97-4.37,4.5c0,0,1.79,1.32,4.33-0.92C38.76,49,37.44,46.95,36.78,46.97z"/>
			<path class="st25" d="M43.36,34.15c0.3,0.04,0.59-0.09,0.82-0.28c0.22-0.18,0.39-0.42,0.55-0.66c0.18-0.27,0.36-0.53,0.54-0.8
				c-0.25,0.77-0.44,1.55-0.58,2.34c-0.07,0.4-0.11,0.87,0.17,1.18c-0.39-0.66-0.9-1.26-1.49-1.78"/>
			<path class="st25" d="M50.65,41.75c0.75,0.35,1.6,0.49,2.42,0.63c0.78,0.13,1.58,0.26,2.37,0.24c-0.85-0.37-1.74-0.65-2.65-0.82
				c-0.59-0.11-1.19-0.18-1.74-0.4c-0.39-0.16-0.75-0.39-1.09-0.62c-0.7-0.46-1.72-0.98-2.15-1.68
				C48.6,40.12,49.41,41.17,50.65,41.75z"/>
			<path class="st25" d="M35.72,51.33c-0.13,0.06-0.27,0.12-0.41,0.17c-0.02,0.01-0.03,0.01-0.05,0.02c-0.01,0-0.03,0.01-0.04,0.01
				c-0.22,0.35-0.45,0.69-0.72,1.01c-0.37,0.42-0.79,0.66-1.3,0.89c0.42,0.2,0.95-0.02,1.35-0.22c0.67-0.34,1.35-0.73,1.75-1.33
				c0.24-0.35,0.33-0.8,0.28-1.21c-0.03,0.03-0.05,0.06-0.08,0.09c-0.05,0.04-0.1,0.08-0.16,0.13"/>
			<path class="st25" d="M38.22,51.13c0.63,0.51-0.32,3.88,0.06,4.57c-0.3-0.38,0.94-3.55,1.09-4c0.15-0.45,0.54-0.83,1.01-0.98
				c-0.44-0.11-0.88,0.11-1.31,0.25c-0.43,0.14-0.99,0.17-1.25-0.17c0.14,0.26,0.43,0.44,0.74,0.47"/>
			<path class="st25" d="M36.95,36.51c0.21-0.38,0.4-0.79,0.75-1.06c0.17,0.11,0.25,0.32,0.25,0.52c0,0.2-0.08,0.39-0.15,0.57
				c-0.39,1-0.88,2.09-1.9,2.56c-0.23,0.1-0.53,0.16-0.73,0.01C34.82,38.83,36.7,36.97,36.95,36.51z"/>
			<path class="st27" d="M37.3,46.28l2.05,0.75c0.23,0.07,0.28,0.25,0.26,0.39c-0.03,0.2-0.33,0.23-0.36,0.43
				c-0.04,0.2-0.02,0.71,0.11,0.87c0.06-0.31,0.2-0.61,0.4-0.87c0.06-0.08,0.13-0.15,0.21-0.2c0.19-0.11,0.4-0.14,0.58-0.26
				c0.23-0.15,0.45-0.29,0.65-0.51c-0.37,0.24-0.65,0.24-1.08,0.24c-0.05,0-0.1,0-0.14-0.04c-0.05-0.04-0.05-0.13-0.04-0.2
				c0.06-0.42,0.23-0.83,0.41-1.24c0.25-0.59,0.51-1.18,0.76-1.77c0.17-0.39,0.13-0.45,0.3-0.83c-0.99,1.57-1.25,1.95-1.8,3.37
				c-0.02,0.04-0.05,0.08-0.08,0.09c-0.04,0.02-0.08,0.01-0.12,0C38.95,46.39,38.5,46.27,37.3,46.28z"/>
			<path class="st26" d="M29.48,44.98c0.26-0.55,0.45-1.75,1.58-2.32c0.42-0.28,1.84-0.41,2.35-0.4c1.89,0.03,2.89-0.15,3.12-0.13
				c1.41,0.12,1.83,1.1,1.94,1.31c0.42,0.88,0.19,2-0.54,2.68c-0.63,0.59-2.05,1.39-4.9,1.32c-0.39,0.05-1.58-0.09-1.92,0.1
				c-0.54,0.29-0.89,0.36-1.07,0.88C28.65,46.06,29.28,45.38,29.48,44.98z"/>
			<path class="st25" d="M37.1,46.82c-0.77,0.44-2.52,0.89-4.55,0.83c-0.39,0.05-1.33,0.05-1.68,0.25c-0.53,0.29-0.54,0.6-0.72,1.12
				c-0.01-0.01-0.03-0.04-0.03-0.05c-0.01-0.04-0.01-0.07-0.01-0.1c0.04-0.3,0-0.74,0.2-0.97c0.42-0.54,0.99-0.93,2.12-1.01
				c0.67-0.04,1.62-0.25,2.29-0.26C35.17,46.62,36.46,46.31,37.1,46.82z"/>
			<g>
				<defs>
					<path id="SVGID_3_" d="M39.97,33.14c-0.68-0.57-3.43-3.59-3.73-7.23c-0.19-1.14,0.13-3.25,1.96-3.84
						c1.22-0.55,2.89,0.15,3.98,1.54l1.18,1.8l0.45-8.03l-20.83,0.62l1.43,19.97l19.91-1.51C43.85,36.12,40.22,33.4,39.97,33.14z"/>
				</defs>
				<clipPath id="SVGID_4_">
					<use xlink:href="#SVGID_3_"  style="overflow:visible;"/>
				</clipPath>
				<path class="st28" d="M38.08,34.5c-0.06-0.04-0.26-0.13-0.32-0.17c-0.18-0.07-0.16-0.15-0.24-0.3C37.51,34,37.49,34,37.48,33.98
					c-0.03-0.07-0.06-0.15-0.09-0.22c-0.01-0.02-3.7-0.34-5.51-0.73c-2.13-0.46-3.98-1.47-5.61-2.9c-0.17-0.15-0.35-0.33-0.54-0.52
					c-0.48-0.04-1.1-0.07-1.45-0.01l0.45,2.26c0.3,2.01,1.92,3.33,3.62,3.56c0,0,0.33,0.04,0.59,0.04l1.91-0.02l5.23-0.06
					c0.85-0.02,1.89-0.29,2.53-0.65C38.54,34.69,38.16,34.55,38.08,34.5z"/>
				<polygon class="st29" points="40.14,21.66 36.42,21.68 36.42,21.68 40.14,21.66 				"/>
				<polygon class="st29" points="32.25,21.71 27.97,21.73 27.97,21.73 32.25,21.71 				"/>
				<polygon class="st29" points="31.35,34.65 31.35,34.65 29.29,34.67 				"/>
				<path class="st30" d="M40.14,21.66l-3.71,0.02l-4.18,0.02l-4.27,0.02l-3.09,0.02l1.46,9.55c0.27,2.01,1.22,3.09,2.72,3.32h0
					c0.21,0.03,0.42,0.05,0.65,0.05l1.82-0.02l4.26-0.05l0,0l0,0l0.37,0c1.75-0.04,3.14-0.97,3.55-2.89l1.28-10.03L40.14,21.66z"/>
				<g class="st31">
					<path class="st32" d="M29.71,34.67l1.82-0.02l4.63-0.06c1.75-0.04,3.14-0.97,3.55-2.89l0.48-3.76c0-0.04-0.01-0.08-0.01-0.11
						c-1.25-0.05-2.8-0.1-4.06-0.13c-1-0.03-1.51-0.77-1.6-1.25c-0.12-0.19-0.85-3.01-1.27-4.74l-1.23,0.05
						c0.05,0.15,0.18,2.79-0.13,4.69c0.03,0.88-1.01,1.35-1.23,1.38c-2.06,0.25-2.74,0.29-4.81,0.29l0.49,3.19
						C26.64,33.58,27.83,34.67,29.71,34.67z"/>
					<g>
						<polygon class="st33" points="40.14,21.66 36.42,21.68 36.42,21.68 40.14,21.66 						"/>
						<polygon class="st33" points="31.53,34.65 31.53,34.65 29.71,34.67 						"/>
					</g>
					<path class="st34" d="M27.08,23.4H30c0,0-0.44,7.49,0,8.29c0.44,0.8,0.44,0.8,0.44,0.8H29.7
						C29.33,32.51,27.52,32.93,27.08,23.4z"/>
					<path class="st35" d="M32.52,18.36c-0.38,0.17-0.77,0.25-0.97,0.57l0.48,2.82l1.23-0.05C32.82,19.7,32.52,18.36,32.52,18.36z"
						/>
				</g>
				<path class="st36" d="M29.96,21.72l-1.99,0.01l-3.09,0.02l1.46,9.55c0.27,2.01,1.22,3.09,2.72,3.32h0
					c0.21,0.03,0.42,0.05,0.65,0.05l0.42,0C30.15,30.35,30.18,26.03,29.96,21.72z"/>
				<path class="st36" d="M40.14,21.66l-3.71,0.02h-0.1c0.25,4.28,0.27,8.58,0.14,12.88c1.61-0.13,2.87-1.06,3.26-2.87l1.28-10.03
					L40.14,21.66z"/>
			</g>
			<path class="st25" d="M44.3,39.16c-0.23,0.61-0.71,1.1-1.18,1.58c0.8-0.25,1.38-0.91,2.15-1.22c0.81-0.33,1.74-0.24,2.62-0.32
				c-0.15-0.37-0.55-0.62-0.95-0.74c-0.41-0.12-0.84-0.15-1.26-0.24c-0.53-0.11-1.06-0.3-1.5-0.59
				C44.44,38.09,44.49,38.65,44.3,39.16z"/>
			<path class="st37" d="M29.13,44.73c0.26-0.55,0.45-1.75,1.58-2.32c0.42-0.28,1.83-0.41,2.35-0.4c1.89,0.03,2.12-0.12,3.33,0.08
				c0.87,0.15,1.25,0.79,1.35,1c0.42,0.88,0.19,2-0.54,2.68c-0.63,0.59-1.93,1.35-4.78,1.28c-0.39,0.05-1.33,0.05-1.67,0.24
				c-0.54,0.29-0.54,0.61-0.73,1.13C28.65,46.06,28.93,45.14,29.13,44.73z"/>
			<path class="st26" d="M30.7,42.06c-0.09-0.78-0.98-2.52-0.61-3.23c0.2-0.38,0.4-0.77,0.75-1.05c0.3-0.24,0.64-0.37,1.03-0.45
				c1.34-0.28,2.75-0.05,4.09,0.24c0.35,0.08,1.22,0.4,1.64,1.28c0.53,1.22,0.25,2.14,0.07,2.46c-0.24,0.42-0.98,1.8-2.69,1.92
				c-1.36,0.03-3.05-0.09-4.4-0.19c-0.4,0-0.7,0.09-0.79,0.19C30.42,42.02,30.72,42.69,30.7,42.06z"/>
			<path class="st38" d="M28.83,40.94c-0.09-0.78,0.25-1.8,0.62-2.51c0.2-0.38,0.4-0.78,0.75-1.05c0.3-0.24,0.64-0.37,1.03-0.45
				c1.34-0.28,2.75-0.05,4.09,0.24c0.35,0.08,1.22,0.4,1.64,1.28c0.53,1.22,0.25,2.14,0.07,2.46c-0.24,0.42-0.87,1.67-2.58,1.78
				c-1.36,0.03-2.61-0.07-3.96-0.17c-0.28,0.03-0.37,0.22-0.46,0.33C29.62,42.36,28.85,41.56,28.83,40.94z"/>
		</g>
	</g>
	<g>
		<defs>
			<path id="SVGID_5_" d="M180.17,70.69h-72.61c-2.97,0-5.38-2.41-5.38-5.38V5.38c0-2.97,2.41-5.38,5.38-5.38h72.61
				c2.97,0,5.38,2.41,5.38,5.38v59.93C185.55,68.29,183.14,70.69,180.17,70.69z"/>
		</defs>
		<clipPath id="SVGID_6_">
			<use xlink:href="#SVGID_5_"  style="overflow:visible;"/>
		</clipPath>
		<path class="st39" d="M179.02,44.76c0,0.48-2.59,0.88-5.79,0.88s-5.79-0.39-5.79-0.88s2.59-0.88,5.79-0.88
			S179.02,44.28,179.02,44.76z"/>
		<g class="st40">
			<path class="st41" d="M189.78,41.76c0.35-0.03,0.38-0.06,0.18-0.08c0,0,0,0-0.01,0c-0.03,0-0.07-0.01-0.11-0.01l-0.35-0.02
				l-0.88-0.05c-0.33-0.02-0.78-0.02-1.25,0.01l-2.28,0.14h0c-0.14,0-0.25,0.01-0.25,0.01l-1.02,0.08c-0.1,0-0.17,0-0.17,0
				l-0.31,0.02c-0.04,0-0.12,0-0.2,0.01c0,0-0.16,0.01-0.29,0.02c-0.24-0.01-0.45,0-0.6,0.01c-0.59,0.04-1.09,0.07-1.51,0.11
				c-0.14,0.01-0.26,0.03-0.39,0.04c0,0,0,0,0,0c-0.05,0-0.09,0.01-0.13,0.01c-0.04,0-0.08,0.01-0.11,0.01
				c-0.15,0.02-0.28,0.03-0.4,0.05c0,0-0.01,0-0.01,0c-0.12,0.01-0.21,0.03-0.3,0.04c-0.02,0-0.04,0.01-0.06,0.01
				c-0.08,0.01-0.15,0.02-0.21,0.03c0,0,0,0,0,0c-0.06,0.01-0.1,0.02-0.13,0.02c-0.01,0-0.02,0-0.02,0c-0.02,0-0.03,0.01-0.03,0.01
				l-2.07,0.43l-0.23,0.05c-0.06,0.01-0.03,0.02,0.04,0.02l-0.03,0.01l-0.23,0.05l-6.54,1.35l-0.23,0.05c-0.03,0-0.06,0-0.09,0h0
				c-0.06,0-0.1,0.01-0.13,0.01l-1.36,0.28c-0.09,0.02,0.19-0.14,0,0c-0.33,0.25,2.22,0.77,5.61,0.63c3.95-0.17,5.21-0.23,5.29-0.25
				l7.7-2.07l0.23-0.05l0.03-0.01c0.09,0,0.16-0.01,0.22-0.02c0.15-0.02,0.22-0.04,0.22-0.04l1.75-0.36
				c0.08-0.01,0.11-0.03,0.11-0.04c0,0-0.01-0.01-0.02-0.01c-0.01-0.01-0.02-0.01-0.04-0.02c-0.02,0-0.04-0.01-0.06-0.01
				c-0.02,0-0.04-0.01-0.06-0.01c-0.04,0-0.08-0.01-0.08-0.01l-0.41-0.02l-2.05-0.11c0.03,0,0.07-0.01,0.11-0.01
				c0.06,0,0.13-0.01,0.12-0.02c0.03,0,0.15-0.01,0.26-0.02c0.04,0,0.04-0.01,0.02-0.01l0.93-0.08c0.16-0.01,0.11-0.02,0.07-0.03h0
				L189.78,41.76z"/>
			
				<rect x="174.25" y="6.69" transform="matrix(0.8473 0.5311 -0.5311 0.8473 30.6905 -91.6232)" class="st4" width="0.9" height="1.75"/>
			<path class="st5" d="M175.39,6.96l-0.22-0.14c-0.27,0.52-0.56,1.03-0.86,1.53l0.09,0.06C174.78,7.97,175.14,7.49,175.39,6.96z"/>
			<path class="st6" d="M174.99,7.66c-0.09-0.05-0.18-0.09-0.28-0.13c-0.14-0.06-0.29-0.1-0.44-0.14l-0.42,0.68l0.76,0.48l0.51-0.81
				C175.08,7.71,175.04,7.68,174.99,7.66z"/>
			<path class="st7" d="M178.24,21.06h-9.66c0,0-0.6,0.11-0.6-0.41v-6.32c0,0,0-2.62,1.68-4.45c0.11-0.11,0.27-0.25,0.57-0.09
				c0.04,0.02,0.09,0.05,0.14,0.09l0.69,0.39c-0.52,0.65-0.83,1.48-0.83,2.39c0,2.09,1.66,3.78,3.71,3.78
				c1.63,0,3.01-1.07,3.51-2.55l0.52,0.3c0,0,0.6,0.37,0.56,1.16l0,4.83C178.54,20.16,178.65,21.02,178.24,21.06z"/>
			<path class="st7" d="M177.41,44.72h-8.29c-0.54,0-0.99-0.44-0.99-0.99v-22.9h10.26v22.9C178.39,44.28,177.95,44.72,177.41,44.72z
				"/>
			<path class="st7" d="M178.12,44.72c-3.21,0.52-6.44,0.5-9.7,0c-0.24,0-0.43-0.19-0.43-0.43v-3.75c0-0.11,0.09-0.2,0.2-0.2
				c3.45,0.35,6.84,0.37,10.15,0c0.11,0,0.2,0.09,0.2,0.2v3.75C178.54,44.53,178.35,44.72,178.12,44.72z"/>
			<path class="st7" d="M168.19,40.34c-0.05,0-0.1,0.02-0.13,0.05c0.08,0.12,0.21,0.2,0.36,0.2c3.26,0.5,6.49,0.52,9.7,0
				c0.15,0,0.28-0.08,0.36-0.2c-0.04-0.03-0.08-0.05-0.13-0.05C175.03,40.72,171.64,40.69,168.19,40.34z"/>
			<rect x="168.14" y="20.83" class="st8" width="10.26" height="0.22"/>
			<path class="st7" d="M169.57,20.83h-1.43v22.9c0,0.54,0.44,0.99,0.99,0.99h0.46C169.57,36.76,169.49,28.8,169.57,20.83z"/>
			<path class="st7" d="M177.41,20.83v23.89h0c0.54,0,0.98-0.44,0.98-0.99v-22.9H177.41z"/>
			<path class="st7" d="M170.44,9.53c0,0-0.09,0.2-0.19,0.25c-0.1,0.06,4.63,2.75,4.63,2.75s0.01-0.18,0.07-0.27
				c0.06-0.09,0.13-0.3-0.16-0.44c-0.28-0.14-4.13-2.38-4.13-2.38S170.5,9.41,170.44,9.53z"/>
			<path class="st9" d="M168.83,14.93c0.07-1.88,0.56-3.49,1.48-5.11c-0.02-0.01-0.05-0.03-0.07-0.04c-0.3-0.16-0.46-0.02-0.57,0.09
				c-1.68,1.83-1.68,4.45-1.68,4.45v6.32c0,0.52,0.6,0.41,0.6,0.41h0.21C168.79,19.02,168.76,16.97,168.83,14.93z"/>
			<path class="st9" d="M174.78,11.82c-0.02-0.01-0.06-0.03-0.11-0.06c-0.64,0.09-1.17-0.2-1.75-0.52
				c-0.41-0.23-0.85-0.41-1.21-0.72c-0.3-0.25-0.4-0.58-0.66-0.85c-0.25-0.14-0.4-0.23-0.4-0.23s-0.15-0.03-0.21,0.09
				c0,0-0.09,0.2-0.19,0.25c-0.1,0.06,4.63,2.75,4.63,2.75s0.01-0.18,0.07-0.27C175,12.17,175.07,11.96,174.78,11.82z"/>
			<path class="st6" d="M171.51,8.74l0.59-0.97c0,0,0.11-0.17,0.35-0.03l3.1,1.88c0,0,0.21,0.14,0.09,0.35l-0.53,0.93L171.51,8.74z"
				/>
			<path class="st5" d="M174.69,10.29c0.05-0.07,0.09-0.13,0.13-0.2c0.12-0.2,0.3-0.41,0.32-0.64c0-0.02,0.01-0.05,0.02-0.07
				l-1.14-0.69c-0.06,0.46-0.28,0.89-0.66,1.16l1.01,0.6C174.48,10.41,174.59,10.36,174.69,10.29z"/>
			<path class="st4" d="M170.58,9.49l0.23-0.35c0,0,0.07-0.13,0.3,0.03l3.76,2.21c0,0,0.3,0.13,0.24,0.31
				c-0.06,0.18-0.17,0.31-0.17,0.31L170.58,9.49z"/>
			<path class="st9" d="M168.56,13.25c-0.15,1.57,0,6.74,0,6.74s-0.3,0.6-0.57,0.04v-5.7c0,0,0-1.17,0.5-2.5
				C168.57,12.14,168.62,12.59,168.56,13.25z"/>
			<path class="st10" d="M177.46,13.88c-0.5,1.49-1.88,2.55-3.51,2.55c-2.05,0-3.71-1.69-3.71-3.78c0-0.9,0.31-1.74,0.83-2.39
				L177.46,13.88z"/>
			<path class="st11" d="M178.39,39.73c-3.42,0.56-6.84,0.56-10.26,0V21.69h10.26V39.73z"/>
			<rect x="168.14" y="21.69" class="st12" width="1.4" height="18.04"/>
			<rect x="177.41" y="21.69" class="st12" width="0.99" height="18.04"/>
			<path class="st4" d="M172.62,7.85l0.01-0.02c0.33-0.55,1.05-0.72,1.6-0.4l0.73,0.43c0.56,0.33,0.74,1.05,0.4,1.61l-0.02,0.04
				L172.62,7.85z"/>
			<path class="st4" d="M172.62,7.85l0.01-0.02c0.33-0.55,1.05-0.72,1.6-0.4l0.73,0.43c0.56,0.33,0.74,1.05,0.4,1.61l-0.02,0.04
				L172.62,7.85z"/>
			<path class="st13" d="M175.54,7.06c-0.03,0.05-0.23-0.02-0.44-0.15c-0.21-0.13-0.36-0.28-0.33-0.33
				c0.03-0.05,0.23,0.02,0.44,0.15C175.43,6.87,175.57,7.01,175.54,7.06z"/>
			<path class="st9" d="M178.54,20.16l0-4.83c0.03-0.72-0.47-1.1-0.55-1.15c0.29,1.01,0.2,2.2,0.19,3.18
				c-0.01,1.02,0,2.06-0.07,3.08c-0.02,0.24-0.07,0.44-0.15,0.62h0.29C178.65,21.02,178.54,20.16,178.54,20.16z"/>
			<g>
				<path class="st14" d="M170.38,20.47L170.38,20.47c-0.37,0-0.67-0.3-0.67-0.67v-1.23c0-0.37,0.3-0.67,0.67-0.67l0,0
					c0.37,0,0.67,0.3,0.67,0.67v1.23C171.06,20.17,170.76,20.47,170.38,20.47z"/>
				<path class="st14" d="M176.36,20.47L176.36,20.47c-0.37,0-0.67-0.3-0.67-0.67v-1.23c0-0.37,0.3-0.67,0.67-0.67l0,0
					c0.37,0,0.67,0.3,0.67,0.67v1.23C177.03,20.17,176.73,20.47,176.36,20.47z"/>
				<path class="st14" d="M173.52,20.47L173.52,20.47c-0.31,0-0.56-0.25-0.56-0.56v-1.03c0-0.31,0.25-0.56,0.56-0.56l0,0
					c0.31,0,0.56,0.25,0.56,0.56v1.03C174.09,20.22,173.83,20.47,173.52,20.47z"/>
			</g>
			<path class="st5" d="M174.1,10.93l-1.97-1.16c-0.1,0.14-0.2,0.29-0.29,0.44l1.99,1.15C173.91,11.22,174.01,11.07,174.1,10.93z"/>
			<path class="st15" d="M170.93,9.15l0.67-1.1c0,0,0.13-0.2,0.4-0.04l3.53,2.14c0,0,0.24,0.16,0.1,0.4l-0.6,1.06L170.93,9.15z"/>
			<g>
				<line class="st42" x1="171.77" y1="8.02" x2="171.06" y2="9.13"/>
				<line class="st42" x1="171.89" y1="8.09" x2="171.18" y2="9.2"/>
				<line class="st42" x1="172.02" y1="8.17" x2="171.31" y2="9.28"/>
				<line class="st42" x1="172.14" y1="8.24" x2="171.43" y2="9.35"/>
				<line class="st42" x1="172.27" y1="8.32" x2="171.56" y2="9.43"/>
				<line class="st42" x1="172.39" y1="8.4" x2="171.69" y2="9.5"/>
				<line class="st42" x1="172.51" y1="8.47" x2="171.81" y2="9.58"/>
				<line class="st42" x1="172.64" y1="8.55" x2="171.94" y2="9.65"/>
				<line class="st42" x1="172.76" y1="8.62" x2="172.06" y2="9.72"/>
				<line class="st42" x1="172.89" y1="8.7" x2="172.19" y2="9.8"/>
				<line class="st42" x1="173.01" y1="8.78" x2="172.31" y2="9.87"/>
				<line class="st42" x1="173.14" y1="8.85" x2="172.44" y2="9.95"/>
				<line class="st42" x1="173.26" y1="8.93" x2="172.56" y2="10.02"/>
				<line class="st42" x1="173.39" y1="9.01" x2="172.69" y2="10.09"/>
				<line class="st42" x1="173.51" y1="9.08" x2="172.82" y2="10.17"/>
				<line class="st42" x1="173.63" y1="9.16" x2="172.94" y2="10.24"/>
				<line class="st42" x1="173.76" y1="9.23" x2="173.07" y2="10.32"/>
				<line class="st42" x1="173.88" y1="9.31" x2="173.19" y2="10.39"/>
				<line class="st42" x1="174.01" y1="9.39" x2="173.32" y2="10.46"/>
				<line class="st42" x1="174.13" y1="9.46" x2="173.44" y2="10.54"/>
				<line class="st42" x1="174.26" y1="9.54" x2="173.57" y2="10.61"/>
				<line class="st42" x1="174.38" y1="9.61" x2="173.7" y2="10.69"/>
				<line class="st42" x1="174.51" y1="9.69" x2="173.82" y2="10.76"/>
				<line class="st42" x1="174.63" y1="9.77" x2="173.95" y2="10.83"/>
				<line class="st42" x1="174.75" y1="9.84" x2="174.07" y2="10.91"/>
				<line class="st42" x1="174.88" y1="9.92" x2="174.2" y2="10.98"/>
				<line class="st42" x1="175" y1="9.99" x2="174.32" y2="11.06"/>
				<line class="st42" x1="175.13" y1="10.07" x2="174.45" y2="11.13"/>
				<line class="st42" x1="175.25" y1="10.15" x2="174.58" y2="11.2"/>
				<line class="st42" x1="175.38" y1="10.22" x2="174.7" y2="11.28"/>
				<line class="st42" x1="175.5" y1="10.3" x2="174.83" y2="11.35"/>
				<line class="st42" x1="175.63" y1="10.37" x2="174.95" y2="11.43"/>
			</g>
			<path class="st15" d="M175.45,9.3c0,0-1.66-0.99-1.99-1.28c-0.32-0.28,1.7,1.08,2.04,1.11L175.45,9.3z"/>
			<path class="st15" d="M172.98,7.47c0,0,1.47,1.03,2.31,1.29c-1.08-0.49-2.18-1.36-2.18-1.36L172.98,7.47z"/>
		</g>
		<path class="st43" d="M140.22,29.85c2.61-0.19,7.42,0.07,8.94,0.17c12.04,0.77,21.09,4.12,21.09,8.13c0,4.58-11.83,8.3-26.41,8.3
			s-26.41-3.72-26.41-8.3c0,0-0.1-2,3.32-4.05"/>
		<path class="st44" d="M166.56,58.93c0.1,0.31,0.16,0.62,0.16,0.94c0,4.59-10.15,7.16-22.78,7.16c-12.64,0-22.97-2.58-22.97-7.16
			c0-0.32,0.06-0.63,0.16-0.94h-0.47l3.85,24.8c0,3.35,8.67,6.08,19.35,6.08c10.68,0,19.34-2.72,19.34-6.08l3.85-24.8H166.56z"/>
		<path class="st45" d="M166.71,59.87c0,4.38-10.24,7.93-22.87,7.93c-12.64,0-22.88-3.55-22.88-7.93c0-4.37,10.24-7.92,22.88-7.92
			C156.47,51.95,166.71,55.5,166.71,59.87z"/>
		<path class="st46" d="M163.18,84.39c0,2.99-8.66,5.41-19.35,5.41c-10.68,0-19.35-2.42-19.35-5.41c0-2.99,8.66-5.41,19.35-5.41
			C154.52,78.99,163.18,81.41,163.18,84.39z"/>
		<path class="st43" d="M117.42,38.16l7.07,45.57c0,3.36,8.66,6.08,19.35,6.08c10.68,0,19.35-2.72,19.35-6.08l7.07-45.57"/>
		<path class="st47" d="M130.26,56.14c-1.21,0.21-2.56,0.82-3.33,1.69c-0.21,0.24-0.41,0.52-0.42,0.83
			c0.34,3.16,10.97,4.88,17.42,4.75"/>
		<path class="st47" d="M135.13,56.04c-2.78,2.54,4.9,3.66,11.23,3.35"/>
		<path class="st47" d="M132.67,64.14c7.12,1.98,19.19,2,27.94-1.43"/>
		<path class="st47" d="M131.37,58.61c-0.06,1.29,3.97,2,6.3,2.47c10.56,2.13,29.26-2.06,22.71-4.63c-0.39-0.21-0.84-0.28-1.29-0.34
			"/>
		<g class="st40">
			<path class="st35" d="M159.04,18.6l-1.13-1.98l-2.87-5.02c-0.78-1.34-1.89-2.22-3.21-2.43c0.9,2.68,1.23,5.64,0.23,9.09
				c-2.83,11.99-12.85,9.75-14.57,38.76c0.04,0.04,0.08,0.07,0.12,0.1c0.02,0.01,0.01,0.01,0.04,0.03c0.12,0.08,0.24,0.16,0.37,0.23
				c0.05,0.03,0.19,0.09,0.22,0.11c0.3,0.12,0.61,0.2,0.92,0.27c0.15,0.03,0.3,0.06,0.46,0.08c0.02,0,0.03,0,0.05,0.01
				c0.1,0.01,0.21,0.02,0.31,0.03c0.34,0.03,0.67,0.05,1.01,0.07c0.45,0.03,0.89,0.06,1.34,0.08c0.56,0.02,1.12,0.03,1.67,0.01
				c0.27-0.01,0.54-0.06,0.81-0.06c0.04-0.01,0.09-0.01,0.13-0.02c0.12-0.02,0.23-0.04,0.35-0.07c0.13-0.03,0.26-0.07,0.39-0.11
				c0.04-0.01,0.1-0.04,0.15-0.07c-0.92-8.87-1.53-22.19,3.68-26.89c0.68-0.62,0.68-0.62,1.78-1.5c2.18-1.75,4.37-3.48,6.55-5.23
				C159.86,22.54,160.18,20.66,159.04,18.6z"/>
			<g>
				<path class="st48" d="M159.04,18.6c0.14,0.25,0.25,0.49,0.35,0.73c0.3,0.54-0.59,1.44-1.95,2.29c-1.11,0.7-2.21,1.45-3.34,2.12
					c-2.13,1.28-4.29,2.54-6.48,3.71l1.89,3.36l8.33-6.73C159.86,22.54,160.18,20.66,159.04,18.6z"/>
				<path class="st49" d="M159.04,18.6c0.14,0.25,0.25,0.49,0.35,0.73c0.3,0.54-0.59,1.44-1.95,2.29c-1.11,0.7-2.21,1.45-3.34,2.12
					c-2.13,1.28-4.29,2.54-6.48,3.71l1.89,3.36l8.33-6.73C159.86,22.54,160.18,20.66,159.04,18.6z"/>
				<polygon class="st33" points="140.15,14.22 142.43,18.26 142.43,18.26 140.15,14.22 				"/>
				<path class="st50" d="M155.27,12.01L155.27,12.01L155.27,12.01l-0.23-0.4c-1.1-1.89-2.85-2.91-4.95-2.32l-10.46,4l0.53,0.94
					l2.28,4.04l2.56,4.54c4.3-2.08,8.56-4.24,12.92-6.18L155.27,12.01z"/>
				<path class="st51" d="M141.52,16.64c0,0,7.56-3.9,11.12-3.85c3.24,0.05,3.49,1.37,5.2,3.86c0.02-0.01,0.05-0.02,0.07-0.03
					l-2.64-4.61h0l-0.23-0.4c-1.1-1.89-2.85-2.91-4.95-2.32l-10.46,4l0.53,0.94L141.52,16.64z"/>
				<polygon class="st33" points="144.99,22.81 147.62,27.46 147.62,27.46 144.99,22.81 				"/>
				<polygon class="st33" points="157.91,16.62 157.91,16.62 159.04,18.6 				"/>
				<path class="st51" d="M157.43,21.63c1.36-0.85,2.25-1.75,1.95-2.29c-0.09-0.24-0.21-0.49-0.35-0.73l-1.13-1.98
					c-4.36,1.95-8.62,4.1-12.92,6.18l2.62,4.65c2.19-1.17,4.35-2.43,6.48-3.71C155.22,23.07,156.32,22.32,157.43,21.63z"/>
			</g>
			<path class="st52" d="M159.39,19.34L159.39,19.34c-0.09-0.24-0.21-0.49-0.35-0.73l-1.13-1.98l0,0l-2.64-4.61h0l-0.23-0.4
				c-1.1-1.89-2.85-2.91-4.95-2.32l-10.46,4l0.53,0.94l1.37,2.42l0,0l0.91,1.62l2.56,4.54l2.62,4.65l1.89,3.36l8.33-6.73
				C159.61,22.73,160.08,21.11,159.39,19.34z"/>
		</g>
		<path class="st53" d="M149.48,27.85l-1.42-3.12c0,0,7.37-3.66,8.03-4.39c0.47-0.53,0.64-0.86,0.66-0.93l0.34,0.59
			C157.09,20,158.6,22.96,149.48,27.85z"/>
		<g class="st40">
			<g>
				<path class="st54" d="M119.98,19.82c0.87,0,1.47-0.1,1.8-0.31c0.33-0.21,0.5-0.69,0.5-1.44v-2.6c0-0.42-0.13-0.75-0.38-1.02
					c-0.25-0.26-0.6-0.4-1.03-0.4c-0.51,0-0.87,0.16-1.09,0.48c-0.22,0.32-0.33,0.63-0.33,0.93v1.64h-2.89v-1.67
					c0-0.58,0.11-1.14,0.34-1.67c0.23-0.53,0.54-0.98,0.93-1.36c0.4-0.38,0.86-0.68,1.39-0.9c0.53-0.23,1.09-0.34,1.7-0.34
					c0.79,0,1.45,0.16,1.97,0.47c0.52,0.31,0.91,0.63,1.17,0.95c0.19,0.23,0.35,0.45,0.5,0.68c0.14,0.23,0.26,0.5,0.35,0.82
					c0.17,0.62,0.25,1.55,0.25,2.77c0,0.7-0.01,1.26-0.04,1.7c-0.03,0.43-0.1,0.79-0.21,1.08c-0.13,0.3-0.32,0.56-0.55,0.76
					c-0.24,0.21-0.56,0.43-0.98,0.68c0.45,0.28,0.8,0.55,1.03,0.79c0.24,0.25,0.41,0.53,0.52,0.85c0.11,0.34,0.18,0.74,0.2,1.2
					c0.02,0.46,0.03,1.05,0.03,1.77c0,0.66-0.01,1.21-0.04,1.64c-0.03,0.43-0.07,0.79-0.13,1.08c-0.06,0.3-0.13,0.56-0.23,0.76
					c-0.09,0.21-0.22,0.42-0.37,0.65c-0.36,0.53-0.82,0.97-1.37,1.32c-0.56,0.35-1.29,0.52-2.19,0.52c-0.45,0-0.93-0.08-1.44-0.23
					c-0.51-0.15-0.97-0.4-1.39-0.74c-0.41-0.34-0.76-0.78-1.03-1.33c-0.27-0.55-0.41-1.22-0.41-2.01V25.7h2.89v1.5
					c0,0.45,0.13,0.83,0.38,1.12c0.25,0.29,0.6,0.44,1.03,0.44c0.43,0,0.78-0.15,1.03-0.44c0.25-0.29,0.38-0.68,0.38-1.17v-2.89
					c0-0.79-0.15-1.31-0.45-1.56c-0.17-0.15-0.4-0.25-0.69-0.28c-0.29-0.04-0.67-0.06-1.15-0.06V19.82z"/>
				<path class="st54" d="M126.06,31.47l4.07-10.55l-3.76-9.59h3.06l2.18,5.97l2.21-5.97h3.06l-3.85,9.59l4.16,10.55h-3.06
					l-2.52-6.79l-2.49,6.79H126.06z"/>
			</g>
		</g>
		<path class="st43" d="M170.25,38.16c0,4.58-11.83,8.3-26.41,8.3c-4.9,0-9.49-0.42-13.42-1.15"/>
	</g>
	<g>
		<defs>
			<path id="SVGID_7_" d="M282.35,80.98h-72.61c-2.97,0-5.38-2.41-5.38-5.38V5.38c0-2.97,2.41-5.38,5.38-5.38h72.61
				c2.97,0,5.38,2.41,5.38,5.38V75.6C287.74,78.58,285.33,80.98,282.35,80.98z"/>
		</defs>
		<clipPath id="SVGID_8_">
			<use xlink:href="#SVGID_7_"  style="overflow:visible;"/>
		</clipPath>
		<g class="st55">
			<path class="st56" d="M259.93,39.64c0.09,0.32,0.44,0.99,0.15,0.99c-3.16,0.01-10.5,1.53-22.3,1.53
				c-11.81,0-17.77-3.92-20.44-1.53c0-0.33,0.06-0.66,0.15-0.99h-0.44l3.59,29.71c0,3.52,8.09,6.38,18.07,6.38
				s18.06-2.86,18.06-6.38l3.59-29.71H259.93z"/>
			<path class="st57" d="M260.36,40.64c0,2.11-9.7,3.82-21.65,3.82c-11.97,0-21.67-1.71-21.67-3.82c0-2.1,9.7-3.81,21.67-3.81
				C250.67,36.82,260.36,38.53,260.36,40.64z"/>
			<path class="st58" d="M256.78,69.35c0,1.05-0.72,2.04-2,2.92c-3,2.06-9.07,3.46-16.07,3.46c-9.98,0-18.07-2.86-18.07-6.38
				c0-3.53,8.09-6.38,18.07-6.38C248.69,62.97,256.78,65.83,256.78,69.35z"/>
			<ellipse class="st59" cx="238.71" cy="21.5" rx="24.67" ry="5.17"/>
			<path class="st59" d="M214.03,21.5l6.6,47.85c0,3.52,8.09,6.38,18.07,6.38c7.24,0,13.49-1.51,16.37-3.68
				c1.09-0.82,1.7-1.74,1.7-2.7l6.6-47.85"/>
			<path class="st60" d="M223.78,39.47c-1.13,0.07-2.4,0.28-3.13,0.59c-0.2,0.08-0.38,0.18-0.39,0.29
				c0.32,1.1,13.16,1.56,17.51,1.52"/>
			<path class="st60" d="M234.16,39.36c1.56,0.47,3.6,0.44,5.48,0.38c0.82-0.02,1.63-0.04,2.45-0.07"/>
			<path class="st60" d="M228.49,42.39c8.08,0.37,16.52,0.72,24.08-0.6"/>
			<path class="st60" d="M226.92,40.46c15.65,1.65,34.18-0.58,26.97-1.59c-0.36-0.1-0.79-0.13-1.21-0.16"/>
			<g>
				<line class="st61" x1="256.89" y1="31.02" x2="251.68" y2="31.34"/>
				<line class="st61" x1="256.59" y1="35.04" x2="251.38" y2="35.37"/>
				<line class="st61" x1="256.28" y1="39.07" x2="251.08" y2="39.39"/>
				<line class="st62" x1="255.98" y1="43.09" x2="245.65" y2="43.74"/>
				<line class="st61" x1="255.68" y1="47.12" x2="250.47" y2="47.44"/>
				<line class="st61" x1="255.38" y1="51.14" x2="250.17" y2="51.46"/>
				<line class="st61" x1="255.08" y1="55.16" x2="249.87" y2="55.49"/>
				<line class="st61" x1="254.78" y1="59.19" x2="249.57" y2="59.51"/>
				<line class="st61" x1="254.47" y1="63.21" x2="249.27" y2="63.54"/>
				<line class="st61" x1="254.17" y1="67.24" x2="248.97" y2="67.56"/>
			</g>
		</g>
		<path class="st63" d="M222.9,43.39l2,26.49c1.34,0.85,4.35,1.43,7.39,1.19l0.75-26.45C229.61,44.47,226.2,44.05,222.9,43.39z"/>
		<g class="st55">
			<g>
				<path class="st64" d="M265.92,56.53v-7.1l-1.21,0.88v-1.27l1.21-0.88h1.21v8.37H265.92z"/>
				<path class="st64" d="M268.15,56.53v-1.2h1.21v1.2H268.15z"/>
				<path class="st64" d="M270.37,56.53V55.4l2.17-4.08c0.11-0.2,0.17-0.38,0.19-0.54c0.02-0.15,0.02-0.34,0.02-0.57
					c0-0.1,0-0.21-0.01-0.32c0-0.11-0.03-0.21-0.07-0.3c-0.04-0.09-0.1-0.16-0.18-0.22c-0.08-0.06-0.19-0.09-0.34-0.09
					c-0.18,0-0.33,0.05-0.43,0.15c-0.11,0.1-0.16,0.25-0.16,0.45v0.68h-1.21v-0.66c0-0.25,0.05-0.49,0.14-0.71
					c0.09-0.22,0.22-0.41,0.39-0.58c0.16-0.16,0.35-0.3,0.57-0.39c0.22-0.1,0.46-0.15,0.71-0.15c0.32,0,0.58,0.06,0.81,0.17
					c0.22,0.11,0.41,0.27,0.56,0.46c0.14,0.2,0.25,0.42,0.31,0.67c0.07,0.25,0.1,0.52,0.1,0.8c0,0.2,0,0.37-0.01,0.51
					c-0.01,0.14-0.02,0.27-0.05,0.39c-0.02,0.13-0.06,0.25-0.12,0.38c-0.06,0.13-0.13,0.28-0.22,0.46l-1.77,3.4h2.17v1.2H270.37z"/>
				<path class="st64" d="M278.48,48.15v1.13h-2.39v2.26c0.11-0.11,0.25-0.2,0.43-0.28c0.17-0.07,0.37-0.11,0.58-0.11
					c0.41,0,0.74,0.12,1,0.37c0.26,0.25,0.38,0.62,0.38,1.11v2.16c0,0.28-0.05,0.53-0.15,0.75c-0.1,0.22-0.23,0.41-0.4,0.56
					c-0.17,0.16-0.36,0.28-0.57,0.36c-0.22,0.08-0.44,0.12-0.68,0.12c-0.24,0-0.46-0.04-0.68-0.12c-0.22-0.08-0.41-0.2-0.57-0.36
					c-0.17-0.16-0.3-0.34-0.4-0.56c-0.1-0.22-0.15-0.47-0.15-0.75v-0.35h1.21v0.31c0,0.2,0.06,0.36,0.17,0.48
					c0.11,0.11,0.26,0.17,0.44,0.17c0.18,0,0.32-0.05,0.42-0.16c0.1-0.11,0.15-0.26,0.15-0.46v-1.96c0-0.16-0.05-0.31-0.16-0.42
					c-0.11-0.12-0.24-0.18-0.41-0.18c-0.1,0-0.19,0.02-0.26,0.05c-0.07,0.04-0.13,0.08-0.18,0.12c-0.05,0.05-0.08,0.1-0.11,0.15
					c-0.04,0.07-0.06,0.11-0.07,0.13h-1.06v-4.52H278.48z"/>
				<path class="st64" d="M279.8,56.53v-8.37h1.21v7.17h2.39v1.2H279.8z"/>
			</g>
		</g>
		<line class="st65" x1="263.84" y1="43.49" x2="283.94" y2="43.49"/>
		<path class="st66" d="M214.08,14.58c-1.9,0.79-3.96,1.71-4.9,3.57c-0.69,1.37-0.64,3-0.58,4.54l2.08,12.65"/>
	</g>
	<path class="st67" d="M114.64,43.51c-2.44-0.63-4.31-3.02-4.31-5.54c-0.01-2.61,1.72-4.81,3.81-6.49"/>
	<path class="st67" d="M174.99,56.03c-0.32,3.24-1.17,6.42-2.49,9.4"/>
	<path class="st68" d="M40.67,5.86c1.12,3.04,1.2,6.46,0.24,9.55"/>
	<path class="st68" d="M46.76,9.12c-0.82,4.46-0.08,9.19,2.07,13.17c2.15,3.99,5.7,7.2,9.88,8.96"/>
	<path class="st68" d="M24.29,48.99c-0.83,8.74,7.07,11.64,9.46,12.29"/>
</g>
<g>
</g>
<g>
</g>
<g>
</g>
<g>
</g>
<g>
</g>
<g>
</g>
<g>
</g>
<g>
</g>
<g>
</g>
<g>
</g>
<g>
</g>
<g>
</g>
<g>
</g>
<g>
</g>
<g>
</g>
</svg>
