<?xml version="1.0" encoding="utf-8"?>
<!-- Generator: Adobe Illustrator 24.1.2, SVG Export Plug-In . SVG Version: 6.00 Build 0)  -->
<svg version="1.1" id="Layer_1" xmlns="http://www.w3.org/2000/svg" xmlns:xlink="http://www.w3.org/1999/xlink" x="0px" y="0px"
	 viewBox="0 0 287.65 84.13" style="enable-background:new 0 0 287.65 84.13;" xml:space="preserve">
<style type="text/css">
	.st0{fill:#D0D2D3;}
	.st1{clip-path:url(#SVGID_2_);}
	.st2{fill:#EC1943;}
	.st3{fill:#CD5A61;}
	.st4{fill:#E15859;}
	.st5{fill:#D8A277;}
	.st6{fill:#D19160;}
	.st7{fill:#F6A9A7;}
	.st8{fill:#F06564;}
	.st9{fill:#EF4E56;}
	.st10{opacity:0.3;fill:#E15859;}
	.st11{fill:#DF9018;}
	.st12{fill:#FFDB2E;}
	.st13{opacity:0.5;fill:#FAAF4A;}
	.st14{opacity:0.7;fill:#FFDB2E;}
	.st15{opacity:0.3;fill:#E9EAF1;}
	.st16{opacity:0.8;fill:#FFFFFF;}
	.st17{clip-path:url(#SVGID_4_);}
	.st18{fill:#E19318;}
	.st19{fill:#FFFFFF;}
	.st20{fill:#F2BD19;}
	.st21{opacity:0.8;fill:#FAAF4A;}
	.st22{fill:#D78C17;}
	.st23{fill:#B66B12;}
	.st24{opacity:0.7;fill:#D09D2A;}
	.st25{fill:#D09D2A;}
	.st26{fill:#FFD300;}
	.st27{clip-path:url(#SVGID_6_);}
	.st28{fill:#E31E25;}
	.st29{fill:#EE3B2D;}
	.st30{fill:#C1181E;}
	.st31{fill:#334883;}
	.st32{opacity:0.7;fill:#201A37;}
	.st33{opacity:0.4;fill:#1E173B;}
	.st34{fill:#35376D;}
	.st35{fill:#12659F;}
	.st36{fill:#085F8B;}
	.st37{fill:#9F0F13;}
	.st38{opacity:0.4;fill:#201A37;}
	.st39{fill:#C81A21;}
	.st40{fill:none;stroke:#E31E25;stroke-width:0.2786;stroke-miterlimit:10;}
	.st41{fill:#E39418;}
	.st42{fill:#F4C405;}
	.st43{fill:#D89F11;}
	.st44{opacity:0.5;clip-path:url(#SVGID_8_);fill:#FAAF4A;}
	.st45{opacity:0.4;clip-path:url(#SVGID_8_);fill:#D8D9DB;}
	.st46{clip-path:url(#SVGID_8_);fill:none;stroke:#9A9C9F;stroke-width:1.2;stroke-miterlimit:10;}
	.st47{clip-path:url(#SVGID_8_);}
	.st48{fill:#4373AD;}
	.st49{opacity:0.4;fill:#D8D9DB;}
	.st50{fill:#0062A1;}
	.st51{clip-path:url(#SVGID_8_);fill:#E6E7E8;}
	.st52{fill:#F3C206;}
	.st53{fill:#F5B90F;}
	.st54{fill:none;stroke:#9C9EA1;stroke-width:1.1248;stroke-linecap:round;stroke-linejoin:round;stroke-miterlimit:10;}
	.st55{fill:#223F99;}
</style>
<g>
	<path class="st0" d="M282.27,79.34h-72.61c-2.97,0-5.38-2.41-5.38-5.38V14.03c0-2.97,2.41-5.38,5.38-5.38h72.61
		c2.97,0,5.38,2.41,5.38,5.38v59.93C287.65,76.94,285.24,79.34,282.27,79.34z"/>
	<g>
		<defs>
			<path id="SVGID_1_" d="M282.27,79.34h-72.61c-2.97,0-5.38-2.41-5.38-5.38V5.38c0-2.97,2.41-5.38,5.38-5.38h72.61
				c2.97,0,5.38,2.41,5.38,5.38v68.58C287.65,76.94,285.24,79.34,282.27,79.34z"/>
		</defs>
		<clipPath id="SVGID_2_">
			<use xlink:href="#SVGID_1_"  style="overflow:visible;"/>
		</clipPath>
		<g class="st1">
			<path class="st2" d="M277.73,50.77c0.06,0.17,0.12,0.35,0.08,0.53c-0.05,0.25-0.28,0.42-0.49,0.55
				c-0.74,0.45-1.59,0.69-2.42,0.96c-1.7,0.54-3.38,1.15-5.06,1.77c-2.04,0.75-4.07,1.5-6.11,2.24c-1.2,0.44-2.4,0.88-3.58,1.38
				c-3.3,1.4-6.62,4.11-10.14,4.82c-0.49-0.25-0.26-1.79-0.12-2.32c0.58-2.29,1.24-4.56,1.96-6.81c0.47-1.47,0.98-2.95,1.73-4.3
				c0.81-1.47,1.9-2.76,3.04-3.99c1.9-2.05,3.98-3.94,6.25-5.58c1.92-1.39,3.97-2.59,6.12-3.59c0.38-0.18,0.79-0.35,1.21-0.31
				c0.34,0.04,0.64,0.21,0.92,0.39c0.86,0.54,1.85,1.08,2.33,1.98c0.66,1.22,0.98,2.8,1.43,4.12
				C275.84,45.33,276.79,48.05,277.73,50.77z"/>
			<path class="st3" d="M273.31,49.71c-0.21-0.42-0.42-0.82-0.68-1.21c-0.02-0.02-0.04-0.06-0.05-0.09c0,0,0,0,0,0
				c-0.13-0.15-0.26-0.3-0.4-0.45c-0.29-0.3-0.6-0.57-0.92-0.83c-0.04-0.03-0.08-0.06-0.13-0.09c-0.2-0.14-0.4-0.28-0.6-0.42
				c-0.03-0.02-0.05-0.04-0.07-0.06c-0.05-0.01-0.1-0.03-0.15-0.04c-0.16-0.04-0.69-0.04-0.12-0.03c-0.19,0-0.38,0-0.57-0.01
				c-0.02,0-0.03,0-0.05,0c-0.03,0.01-0.04,0.01-0.08,0.02c-0.39,0.08-0.77,0.07-1.12,0c-2.89,1.3-5.89,2.31-8.8,3.57
				c0.54,0.73,1.07,1.45,1.59,2.19c1.03,1.47,2.05,2.93,3.01,4.42l5.66-2.08c1.68-0.62,3.35-1.23,5.06-1.77
				c0.19-0.06,0.37-0.12,0.56-0.18C274.61,51.76,273.86,50.79,273.31,49.71z"/>
			<path class="st4" d="M275.5,44.35c-0.2-0.58-0.4-1.15-0.6-1.73c-0.46-1.31-0.77-2.9-1.43-4.12c-0.49-0.9-1.47-1.44-2.33-1.98
				c-0.29-0.18-0.59-0.35-0.92-0.39c-0.42-0.05-0.83,0.13-1.21,0.31c-2.15,1-4.2,2.2-6.12,3.59c-2.27,1.64-4.34,3.53-6.25,5.58
				c-1.14,1.23-2.23,2.52-3.04,3.99c-0.75,1.35-1.25,2.83-1.73,4.3c-0.72,2.25-1.37,4.52-1.96,6.81c-0.13,0.53-0.37,2.08,0.12,2.32
				c1.83-0.37,3.62-1.28,5.37-2.27C262.22,55.42,269.54,50.68,275.5,44.35z"/>
			<path class="st4" d="M260.27,55.33c-0.68,0.37-1.37,0.74-2.03,1.16c-1.17,0.73-2.47,1.88-3.65,2.6c0.39,0.68,0.56,1.67,0.56,1.67
				s3.15-1.67,4.57-1.72c0.74-0.92,0.94-2.21,0.66-3.36C260.36,55.56,260.32,55.44,260.27,55.33z"/>
			<path class="st5" d="M278.51,55.84l16.82,16.33l-16.19,12.66l-14.53-16.94C264.62,67.88,267.39,60.94,278.51,55.84z"/>
			<path class="st6" d="M283.51,60.6l-2.31-2.19c-11.55,5.12-14.39,12.16-14.39,12.16l0.66,0.75
				C275.09,71.78,281.93,67.84,283.51,60.6z"/>
			<path class="st7" d="M224.57,20.14c1.16-0.46,4.01-1.16,5.11-1.75c0.91-0.49,2.43-2.41,4.57-1.34c1.21,0.73,2.44,2.85,3.42,3.87
				c0.14,0.14,0.28,0.3,0.32,0.49c0.05,0.21-0.01,0.43-0.09,0.64c-0.45,1.25-1.41,2.71-2.29,3.7c-0.43,0.48-0.91,0.93-1.5,1.2
				c-1.41,0.67-3.06,0.24-4.55-0.23c-0.6-0.19-0.37-0.75-0.5-1.23c-0.13-0.51-0.42-0.92-0.67-1.38
				C228.25,23.82,224.3,20.25,224.57,20.14z"/>
			<path class="st2" d="M254.47,2.12c0,0,4.28,13.66,5.29,14.64c2.13,3.44,4.87,9.88,6.14,12.13c-1.18,0.05-8.62-4.01-9.74-4.37
				c-1.28-0.41-2.33-1.3-3.35-2.16c-2.07-1.77-4.16-3.55-5.86-5.68c-0.88-1.11-2.96-1.36-3.65-2.57c-0.46-0.8,0.83-2,1.47-2.7
				C247.3,6.82,254.47,2.12,254.47,2.12z"/>
			<path class="st8" d="M232.44,21.67c-0.31,0.22-0.64,0.45-1.02,0.5c-0.38,0.05-0.61-0.09-1.13-0.11c-0.52-0.02-2.7,1.96-2.86,3.05
				c-0.39,0.21,16.27,28.19,22.04,37.11c0.22,0.34,0.38,1.03,0.7,0.71c10.02-9.27,20.23-12.85,27.98-24.09
				c-1.95,0.24-10.47-8.72-12.3-9.52c-2.3-1.01-3.71-3.46-5.99-4.5c-1.35-0.62-5.39-15.59-13.9-20.85
				C245.23,3.98,238.88,18.4,232.44,21.67z"/>
			<path class="st9" d="M230.47,22.07c0.83,0.11,2.84,1.74,3.54,2.18c5.76,3.63,9.99,9.33,15.77,12.92c2.89,1.79,6.21,3.09,8.4,5.69
				c-0.65,3.22-1.29,6.43-1.94,9.65c-0.03,0.13-0.06,0.26-0.16,0.34c-0.08,0.06-0.18,0.07-0.28,0.08c-2.9,0.26-5.52-1.64-7.77-3.49
				c-0.92-0.75-1.83-1.51-2.54-2.46c-1.12-1.5-1.63-3.35-2.3-5.1c-0.67-1.75-1.52-3.44-2.52-5.03c-2.26-3.57-5.28-6.59-8.27-9.58
				c-0.72-0.71-3.14-3.21-3.86-3.93l0.61-0.63C229.64,22.39,229.9,22,230.47,22.07z"/>
			<path class="st9" d="M238.61,22.36c-0.76-0.78-1.51-1.6-1.91-2.61c-0.04-0.11-0.56-0.86-0.69-0.93c0.28-0.31,0.8-0.85,1.38-1.6
				c0.74,0.1,1.19,2.28,1.9,2.51c0.68,0.22,1.32,0.55,1.95,0.88c3.01,1.58,5.97,3.24,8.89,4.99c0.74,0.44,1.49,0.9,2.06,1.54
				c0.57,0.65,0.95,1.52,0.79,2.37c-0.13,0.71-0.59,1.31-1.12,1.79c-0.23,0.21-0.49,0.42-0.79,0.53c-0.5,0.19-1.06,0.09-1.58-0.06
				c-1.64-0.48-3.34-1.52-4.32-2.95c-1.06-1.53-1.48-1.19-2.85-2.48C241.46,25.53,239.44,23.22,238.61,22.36z"/>
			<path class="st3" d="M246.98,35.15c0.66,0.57,1.32,1.15,1.98,1.72c0.68,0.59,1.39,1.22,1.75,2.04c0.38,0.87,0.33,1.86,0.28,2.81
				c-0.05,0.81-0.09,1.63-0.29,2.42c-0.02,0.09-0.05,0.19-0.12,0.25c-0.08,0.06-0.18,0.06-0.28,0.06c-0.56-0.04-1.07-0.33-1.54-0.65
				c-1.79-1.2-3.33-2.75-4.51-4.55c-1.4-2.13-2.27-4.54-3.6-6.7c-0.27-0.43-2.57-2.14-1.53-2.21c0.54-0.04,1.04-0.52,2.74,0.67
				c0.57,0.4,1.22,0.98,1.78,1.39C244.9,33.3,245.81,34.13,246.98,35.15z"/>
			<path class="st10" d="M255.89,58.28c0.46-0.26,0.89-0.55,1.32-0.86c0.76-0.61,1.46-1.28,2.07-2.04c0.01-0.01,0.02-0.03,0.03-0.04
				c0.11-0.19,0.24-0.35,0.39-0.5c-0.2-0.07-0.42-0.1-0.63-0.14c-1.44-0.28-2.64-1.26-3.76-2.2c-1.33-1.12-2.68-2.25-3.75-3.61
				c-0.95-1.21-1.67-2.57-2.42-3.91c-1.81-3.27-3.78-6.46-5.74-9.64c-0.55-0.89-1.1-1.78-1.67-2.64c-0.57-0.86-1.45-1.81-2.44-1.54
				l-1.66,0.09c-1,1.31,0.59,3.84,1.36,5.16c1.07,1.84,1.55,3.9,2.09,5.96c0.54,2.03,0.72,4.07,2.04,5.7
				c0.69,0.85,2.87,3.72,3.28,4.33c1.74,1.91,5.41,4.85,6.63,6.07c0.35,0.22,0.65,1.46,0.65,1.46s0.99-0.88,2.17-1.58
				C255.85,58.31,255.87,58.29,255.89,58.28z"/>
			<path class="st3" d="M240.07,23.96c1.71,1.86,5.83,7.06,7.38,9.07c0.03-0.21,1.94-0.83,1.97-1.05c0.88-0.02-3.08-1.64-2.22-1.45
				c-0.19-1.61-1.8-2.7-2.26-4.26c2.66,1.45,5.32,2.9,7.97,4.35c0.1,0.05,0.21,0.11,0.33,0.09c0.11-0.02,0.19-0.1,0.26-0.18
				c0.63-0.74,0.73-1.82,0.49-2.76c-0.23-0.94-0.75-1.78-1.27-2.61c-0.14-0.22-0.29-0.46-0.51-0.59c-0.21-0.13-0.48-0.16-0.73-0.19
				c-2.5-0.25-5.07-0.5-7.47,0.21c-0.74,0.22-1.53,0.6-1.8,1.33L240.07,23.96z"/>
			<path class="st11" d="M265.97,71.26c-0.73,0-1.33-0.1-1.83-0.31c-0.72-0.3-1.56-1.3-3.32-3.52c-0.56-0.71-1.09-1.38-1.46-1.79
				l-0.35-0.38c-0.89-0.98-2-2.19-2.62-3.3c-0.45-0.8-0.94-1.48-1.46-2.21l-0.48-0.66c-0.96-1.35-2.33-2.27-3.78-3.24
				c-0.42-0.28-0.84-0.57-1.27-0.86c-2.36-1.67-4.64-4.75-6.14-6.8c-0.22-0.3-0.43-0.58-0.62-0.83c-1.18-1.31-1.71-3.27-2.27-5.34
				c-0.59-2.18-1.2-4.44-2.58-6.34c-0.46-0.63-0.98-1.38-1.28-2.25c-0.41-1.2-0.22-2.44,0.5-3.24c0.54-0.6,1.36-0.93,2.29-0.93
				c0.36,0,0.73,0.05,1.09,0.14c2.82,0.74,4.5,3.84,5.65,6.45c0.51,1.16,1.03,2.34,1.72,3.31c-0.15-1.58-0.38-3.14-1.14-4.24
				c-0.59-0.86-0.84-1.63-0.76-2.4c-0.12-0.14-0.22-0.31-0.32-0.52c-0.12-0.19-0.25-0.4-0.4-0.64c-0.69-1.12-2.32-3.73-3.26-3.99
				l-0.32-0.09l-0.22-0.25c-0.6-0.69-2.92-3.28-3.99-4.4l-0.31-0.33l0.01-0.45c0.02-0.58,0.36-0.99,0.47-1.12
				c0.54-0.63,1.43-1.68,2.98-1.68c0.81,0,1.67,0.29,2.62,0.88c0.4,0.2,0.76,0.42,1.09,0.62c0.2,0.12,0.45,0.28,0.64,0.37
				c0.23-0.18,0.47-0.38,0.72-0.58c0.41-0.33,0.82-0.67,1.2-0.94c0.65-0.47,1.2-0.67,1.94-0.88l0.15-0.04l0.15,0
				c4.13,0.04,6.73,1.06,7.56,1.45c0.05,0,0.09,0,0.14,0c1.74,0,3.97,0.58,6.63,1.71c0.82,0.2,2.09,0.85,2.33,2.89
				c0.02,0,0.03,0.01,0.05,0.02c0.17,0.06,0.36,0.13,0.57,0.23c0.78,0.38,2.16,1.31,2.78,1.89c1.21,1.13,1.04,2.24,0.88,3.31
				l-0.03,0.2c-0.08,0.51-0.23,1.24-0.4,2.1c-0.21,1.03-0.47,2.29-0.67,3.54c0.14,1.06,0.17,2.55,0.19,3.66
				c0.01,0.5,0.02,1.06,0.04,1.21c0.04,0.34,0.16,0.71,0.28,1.11c0.05,0.17,0.11,0.34,0.16,0.51c0.52,1.81,0.38,2.83,0.17,4.38
				c-0.04,0.29-0.08,0.61-0.12,0.96c0.02,0.02,0.03,0.04,0.05,0.07c0.11-0.02,0.22-0.03,0.33-0.03c0.68,0,1.25,0.37,1.53,0.58
				c0.54,0.41,1.5,1.39,1.9,2.16c0.88,1.66,1.42,1.9,2.5,2.38c0.26,0.11,0.53,0.23,0.82,0.38c3.21,0.89,6.38,3.33,6.48,4.33
				l0.01,0.13l-0.02,0.13c-0.15,1.06-1.05,2.52-2.04,4.05l-0.32,0.5c-0.96,1.55-2.16,2.97-3.55,4.21c-2.76,2.46-6.2,4.09-9.69,4.58
				C266.97,71.21,266.45,71.26,265.97,71.26L265.97,71.26z"/>
			<path class="st12" d="M276.33,54.2c-1.64-0.83-2.58-0.8-3.89-3.26c-0.3-0.56-1.11-1.43-1.61-1.81c-0.5-0.39-1.18-0.56-1.43,0.02
				c-0.35-0.15-0.6-0.93-0.95-1.08c0.28-2.62,0.63-3.4,0.05-5.46c-0.17-0.59-0.4-1.17-0.47-1.79c-0.07-0.6-0.01-3.47-0.25-5.01
				c0.37-2.33,0.92-4.65,1.1-5.79c0.17-1.14,0.34-1.77-0.51-2.56c-0.55-0.51-1.84-1.38-2.51-1.71c-0.68-0.32-1.12-0.24-1.21-0.99
				c-0.04-0.34-0.11-1.78-1.61-2.09c-1.62-0.7-4.46-1.78-6.66-1.66c0,0-2.58-1.41-7.34-1.45c-0.62,0.17-1.07,0.34-1.59,0.71
				c-0.74,0.53-1.61,1.32-2.29,1.8c-0.56,0.08-1.39-0.65-2.51-1.21c-2.46-1.55-3.49-0.33-4.25,0.56c-0.11,0.13-0.21,0.28-0.22,0.45
				c1.07,1.13,3.4,3.73,4.02,4.44c1.58,0.43,3.44,3.77,4.33,5.15c0.22,0.51,0.34,0.45,0.63,0.5c-0.29,0.64-0.34,1.26,0.39,2.31
				c1.41,2.04,1.24,5.08,1.61,7.53c-2.08-1.09-3.08-3.29-4.08-5.55c-1-2.26-2.54-5.21-4.93-5.84c-0.8-0.21-1.75-0.14-2.3,0.47
				c-0.51,0.56-0.53,1.44-0.28,2.16c0.25,0.72,0.69,1.36,1.13,1.98c2.87,3.96,2.65,9.29,4.8,11.63c1.42,1.89,3.98,5.61,6.55,7.43
				c1.93,1.37,3.93,2.43,5.3,4.36c0.73,1.02,1.39,1.87,2,2.97c0.64,1.14,1.95,2.51,2.82,3.49c1.15,1.27,3.59,4.71,4.39,5.04
				c0.82,0.34,2.03,0.23,2.91,0.1c3.39-0.48,6.58-2.05,9.12-4.32c1.3-1.16,2.43-2.49,3.35-3.97c0.54-0.87,2.04-3.04,2.2-4.13
				C282.12,57.5,279.76,55.11,276.33,54.2z M248.86,24.54c0.22-0.07,0.34,0.05,0.54,0.21c0.19,0.16,0.36,0.34,0.57,0.46
				c0.48,0.27,1.07,0.18,1.61,0.07c0.12,0.61,0.45,1.18,0.92,1.59c0.08,0.07,0.16,0.13,0.2,0.23c0.02,0.06,0.02,0.13,0.01,0.2
				c-0.03,0.48-0.05,0.96-0.08,1.44C251.5,27.21,250.03,26,248.86,24.54z"/>
			<path class="st13" d="M250.8,31.79c-0.7,0.43-1.4,0.87-2.09,1.3c-0.44,0.28-0.85,0.81-1.18,1.21c-0.05,0.07-0.57-1.02-0.56-1.54
				c0.01-0.53,0-0.65,0.42-0.86C248.24,31.46,249.93,31.43,250.8,31.79z"/>
			<path class="st13" d="M258.29,23.52c0.43,0.92,0.86,1.84,1.29,2.76c0.46,0.99,0.97,2.03,1.89,2.61
				c-0.46-0.21-0.44-0.91-0.14-1.31c0.31-0.4,0.79-0.62,1.17-0.96c0.38-0.34,0.65-0.8,0.76-1.3c-0.85,0.88-1.79,1.82-3.01,1.99
				c0.91-0.77,1.89-1.7,1.86-2.89c-0.72,0.69-1.49,1.33-2.3,1.91c0.11-0.42,0.17-0.85,0.19-1.28c0.01-0.18,0.01-0.37-0.07-0.53
				c-0.11-0.23-0.36-0.35-0.58-0.48c-0.74-0.43-1.35-1.07-1.75-1.82c-0.19-0.35-0.38-0.75-0.73-0.93
				C257.22,22.07,257.92,22.72,258.29,23.52z"/>
			<path class="st13" d="M254.8,31.19c-0.74-0.94-1.53-1.99-1.48-3.19c0.06-1.31,1.09-2.34,1.54-3.57
				c-0.63,0.22-1.17,0.65-1.53,1.21c-0.18,0.28-0.45,0.64-0.75,0.51c-0.1-0.04-0.17-0.13-0.23-0.23c-0.53-0.84-0.29-1.93-0.03-2.89
				c-0.17,0.36-0.37,0.72-0.69,0.95c-0.32,0.23-0.8,0.28-1.1,0.02c-0.16-0.14-0.24-0.35-0.29-0.55c-0.12-0.47-0.09-0.96-0.16-1.44
				c-0.07-0.48-0.28-0.98-0.7-1.21c-0.12,0.84-0.23,1.67-0.34,2.51c-0.04,0.27,0.15,0.72-0.11,0.8c-0.27,0.09-0.54-0.15-0.72-0.37
				c-0.36-0.46-1.65-2.06-1.87-2.6c-0.48,0.36-1.26,1.21-1.59,0.9c0.3,0.16,4.02,2.24,4.35,2.78c0.12,0.21-0.23-0.05,0,0
				c0.63,0.14,0.84,0.52,1.49,0.57c0.16,0.01,0.65-0.04,1-0.1c0.06,0.26,0.14,0.59,0.3,0.83c0.37,0.53,0.47,0.56,0.82,0.99
				c0.03,0.43-0.06,0.52-0.06,1.63C252.92,29.77,254.19,30.43,254.8,31.19z"/>
			<path class="st13" d="M264.97,26.99c0.31,1.45,0.63,2.9,1.19,4.27c0.34-0.7,0.83-1.31,1.44-1.79c-0.46,0.33-0.93,0.65-1.39,0.98
				c0.04-0.59,0.23-1.17,0.54-1.67c-0.24,0.29-0.57,0.5-0.94,0.6c0.1-0.53,0.19-1.06,0.29-1.59c-0.21,0.22-0.59,0.14-0.8-0.08
				c-0.21-0.22-0.28-0.53-0.34-0.82c-0.08-0.38-0.16-0.76-0.26-1.13C264.79,26.17,264.88,26.58,264.97,26.99z"/>
			<path class="st13" d="M262.95,46.85c-1.93-0.37-3.92-0.24-5.84,0.17c-0.08,0.25,0.21,0.44,0.45,0.53
				c0.97,0.37,1.94,0.74,2.91,1.12c0.97,0.37,1.94,0.75,2.95,1c1.68,0.42,3.43,0.51,5.16,0.6c-1.28,0.72-2.89,0.36-4.31,0.72
				c-0.91,0.23-1.74,0.77-2.32,1.51c1.64,0.15,3.29,0.3,4.92,0.05c1.63-0.25,3.24-0.94,4.29-2.21c-0.38-0.5-1.14-0.42-1.75-0.58
				c-1.32-0.34-1.46-2.57-1.46-2.57s0.27-1.11,0-1.27c-0.16-0.1-1.84-0.29-2.02-0.34c-0.65-0.18-1.54-0.08-2.19-0.25
				c-0.52,0.23,0.38,0.68,0.74,0.87c1.36,0.71,2.4,1.76,3.28,3C266.61,47.89,264.61,47.16,262.95,46.85z"/>
			<path class="st13" d="M273,56.44c-0.54,0.64-1.2,1.16-1.86,1.67c0.79,0.25,1.65,0.17,2.43-0.09c0.78-0.26,1.51-0.67,2.22-1.08
				c0.39-0.22,0.83-0.56,0.76-1c-0.04-0.23-0.22-0.41-0.39-0.57c-0.73-0.67-1.5-1.3-2.31-1.88C274.31,54.49,273.64,55.68,273,56.44z
				"/>
			<path class="st13" d="M247.37,40.39c1.16,1.48,2.14,4.13,3.84,4.93c-0.66-1.52-1.09-3.75-1.27-5.4
				c-0.16-1.39-0.83-2.94-1.78-3.97c0.67,0.73,0.72,4.37,0.98,5.88C248.38,41.43,247.6,40.7,247.37,40.39z"/>
			<path class="st14" d="M276.33,54.2c-1.64-0.83-2.58-0.8-3.89-3.26c-0.29-0.55-1.11-1.43-1.61-1.81c-0.5-0.39-1.18-0.56-1.43,0.02
				c-0.35-0.15-0.6-0.93-0.96-1.08c0.28-2.62,0.64-3.4,0.05-5.45c-0.16-0.59-0.39-1.18-0.47-1.78c-0.08-0.6-0.02-3.48-0.25-5.01
				c0.04-0.26,0.09-0.52,0.13-0.78c-1.79-1.28-4.82-3.08-7.05-4.1c-0.11,0.1-0.24,0.19-0.37,0.25c-0.92,0.4-1.87,0.74-2.81,1.09
				c-0.95,0.35-1.49,0.64-2.27,1.22c-0.87,0.65-1.66,1.39-2.45,2.12c-0.16,0.5-0.43,0.99-0.95,1.42c-0.1,0.24-0.2,0.49-0.29,0.73
				c0.72,1.65-1.9,8.44,7.42,11.09c1.69,0.48,0.56,3.55,1.5,5.04c0.73,1.16,1.86,1.99,2.93,2.82c3.89,2.98,7.56,6.24,10.97,9.75
				c0.18,0.19,0.39,0.38,0.64,0.39c0.01,0,0.02,0,0.03,0c0.45-0.33,0.88-0.67,1.3-1.04c0.01-0.02,0.02-0.03,0.03-0.04
				c0.37-0.38,0.76-0.75,1.16-1.12c0.85-0.89,1.61-1.86,2.25-2.9c0.54-0.87,2.04-3.04,2.2-4.13
				C282.11,57.5,279.76,55.11,276.33,54.2z"/>
			<path class="st15" d="M240.31,26.19c1.43,1.68,2.86,3.36,4.29,5.04c0.34,0.4,0.7,0.91,0.52,1.4c-3.59-3.31-7.19-6.61-10.78-9.92
				c-0.25-0.23-0.93-0.72-0.99-1.06c0.48-0.22,1.34-0.95,1.92-1.45c0,0,0.9,1.12,1.38,1.69C237.88,23.33,239.1,24.76,240.31,26.19z"
				/>
			<path class="st16" d="M227.43,25.11c0,0-29.43,20.34-27.57,61.13v7.19h35.88c0,0-0.23-20.24,14.43-30.5L227.43,25.11z"/>
			<path class="st13" d="M244.63,36.63c-0.13,0.44-0.39,0.84-0.64,1.22c0.33-0.13,0.69-0.25,1.03-0.16c0.35,0.1,0.59,0.42,0.81,0.71
				c0.3,0.42,0.63,0.75,0.94,1.17c-0.57-0.87-0.9-1.53-1.17-2.1c-0.34-0.73-0.57-1.34-0.95-2.1
				C244.73,35.75,244.74,36.26,244.63,36.63z"/>
		</g>
	</g>
	<g>
		<path class="st0" d="M77.99,79.34H5.38C2.41,79.34,0,76.94,0,73.96V14.03c0-2.97,2.41-5.38,5.38-5.38h72.61
			c2.97,0,5.38,2.41,5.38,5.38v59.93C83.37,76.94,80.96,79.34,77.99,79.34z"/>
		<g>
			<defs>
				<path id="SVGID_3_" d="M86.45,79.34H5.38C2.41,79.34,0,76.94,0,73.96V14.03c0-2.97,2.41-5.38,5.38-5.38h81.07
					c2.97,0,5.38,2.41,5.38,5.38v59.93C91.83,76.94,89.42,79.34,86.45,79.34z"/>
			</defs>
			<clipPath id="SVGID_4_">
				<use xlink:href="#SVGID_3_"  style="overflow:visible;"/>
			</clipPath>
			<g class="st17">
				<g>
					<path class="st18" d="M38.3,56.68c-2.7-0.07-4.89-3.26-5.96-5.16c-2.45-4.35-3.88-10.58-1.89-14.05l0.08-0.15l0.13-0.12
						c0.36-0.33,1.3-0.8,3.86-1.96L35,35.02c1.19-0.56,2.36-1.6,3.49-2.62c0.43-0.38,0.85-0.76,1.26-1.1
						c0.4-0.33,0.83-0.66,1.26-0.99c0.65-0.49,1.26-0.96,1.79-1.46c0.03-0.03,1.75-1.53,2.62-2.34c4.44-4.17,6.43-8.1,7.75-10.7
						c1.11-2.2,1.92-3.79,3.57-3.79c0.52,0,1.06,0.18,1.64,0.55c1.64,1.13,2.17,3.25,1.46,5.71c-0.33,1.16-0.9,2.18-1.45,3.17
						c-0.29,0.52-0.57,1.04-0.82,1.57c-0.61,1.32-0.99,2.22-0.68,3.1c1.58-0.28,5.92-3.63,9.13-6.1c1.86-1.43,3.61-2.78,5.13-3.83
						c0.96-0.67,2.01-1.33,3.27-1.49c0.15-0.02,0.31-0.03,0.46-0.03c1.51,0,2.84,0.88,3.22,2.15c0.67,2.21-1.53,3.89-2.25,4.44
						l-4.38,3.35c0.5-0.23,0.99-0.46,1.48-0.68c3.29-1.52,6.7-3.1,9.69-4.26c0.54-0.21,1.17-0.32,1.82-0.32
						c1.82,0,3.25,0.82,3.72,2.13c0.68,1.89-1,4.18-2.5,4.99c-2.85,1.54-10.08,5.35-15.68,7.67c-0.07,0.03-0.13,0.06-0.19,0.08
						c0.07,0,0.15,0,0.22,0c3.12,0,5.47-0.44,7.97-0.9c2.45-0.45,4.98-0.92,8.22-0.92c0.44,0,0.89,0.01,1.36,0.03
						c1.26,0.15,2.59,1.04,3.25,2.12c0.46,0.76,0.57,1.58,0.3,2.29c-0.4,1.07-1.49,1.53-1.96,1.72c-3.92,1.64-8.16,2.17-12.26,2.69
						c-2.92,0.37-5.94,0.74-8.76,1.52c-0.31,0.08-0.74,0.2-1.03,0.32c0.14,0.05,0.36,0.11,0.72,0.17L81,45.19
						c1.03,0.15,2.32,0.34,3.36,1.17c0.69,0.55,1.15,1.39,1.24,2.26c0.08,0.72-0.12,1.41-0.55,1.94c-0.79,0.97-2.01,1.08-2.86,1.08
						c-0.16,0-0.32,0-0.48-0.01l-19.82-0.78c-1.33-0.05-2.7-0.11-4.05-0.11c-1.79,0-3.25,0.09-4.62,0.29
						c-5.1,0.75-9.83,3.17-14.4,5.51l-0.25,0.13L38.3,56.68z"/>
					<path class="st12" d="M38.33,55.6c4.7-2.41,9.51-4.86,14.74-5.62c2.93-0.43,5.91-0.31,8.87-0.2
						c6.61,0.26,13.21,0.52,19.82,0.78c0.88,0.03,1.91,0.01,2.47-0.67c0.64-0.78,0.26-2.04-0.53-2.67c-0.79-0.63-1.84-0.8-2.84-0.95
						c-4.39-0.65-8.77-1.3-13.16-1.95c-0.69-0.1-1.5-0.29-1.77-0.94c-0.43-1.03,0.87-1.36,1.95-1.66
						c6.85-1.89,14.34-1.42,20.89-4.16c0.56-0.23,1.15-0.54,1.36-1.1c0.46-1.24-1.27-2.8-2.58-2.96
						c-7.37-0.29-10.88,1.92-18.13,1.79c-2.59-0.38-1.29-1.54,0.19-2.16c4.78-1.98,11.02-5.17,15.58-7.62
						c1.15-0.62,2.44-2.44,1.99-3.67c-0.5-1.39-2.75-1.7-4.13-1.17c-5.92,2.29-13.33,6.16-19.26,8.46c3.8-2.91,7.61-5.82,11.41-8.73
						c1.07-0.81,2.26-1.99,1.87-3.27c-0.3-0.99-1.49-1.49-2.51-1.36c-1.03,0.13-1.93,0.72-2.79,1.3
						c-5.32,3.67-14.18,11.62-15.66,9.9c-0.83-1.48-0.22-2.87,0.49-4.41c0.71-1.55,1.74-2.96,2.21-4.59c0.47-1.63,0.4-3.53-1-4.49
						c-3.44-2.17-2.59,5.33-11.64,13.82c-0.88,0.82-2.61,2.34-2.61,2.34c-0.94,0.88-2.1,1.66-3.1,2.49
						c-1.52,1.27-3.17,3.02-4.99,3.87c-0.58,0.27-3.65,1.62-4.07,2C28.48,43.07,34.03,55.49,38.33,55.6z"/>
					<path class="st12" d="M38.33,55.6c4.7-2.41,9.51-4.86,14.74-5.62c2.93-0.43,5.91-0.31,8.87-0.2
						c6.61,0.26,13.21,0.52,19.82,0.78c0.88,0.03,1.91,0.01,2.47-0.67c0.64-0.78,0.26-2.04-0.53-2.67c-0.79-0.63-1.84-0.8-2.84-0.95
						c-4.39-0.65-8.77-1.3-13.16-1.95c-0.69-0.1-1.5-0.29-1.77-0.94c-0.43-1.03,0.87-1.36,1.95-1.66
						c6.85-1.89,14.34-1.42,20.89-4.16c0.56-0.23,1.15-0.54,1.36-1.1c0.46-1.24-1.27-2.8-2.58-2.96
						c-7.37-0.29-10.88,1.92-18.13,1.79c-2.59-0.38-1.29-1.54,0.19-2.16c4.78-1.98,11.02-5.17,15.58-7.62
						c1.15-0.62,2.44-2.44,1.99-3.67c-0.5-1.39-2.75-1.7-4.13-1.17c-5.92,2.29-13.33,6.16-19.26,8.46c3.8-2.91,7.61-5.82,11.41-8.73
						c1.07-0.81,2.26-1.99,1.87-3.27c-0.3-0.99-1.49-1.49-2.51-1.36c-1.03,0.13-1.93,0.72-2.79,1.3
						c-5.32,3.67-14.18,11.62-15.66,9.9c-0.83-1.48-0.22-2.87,0.49-4.41c0.71-1.55,1.74-2.96,2.21-4.59c0.47-1.63,0.4-3.53-1-4.49
						c-3.44-2.17-2.59,5.33-11.64,13.82c-0.88,0.82-2.61,2.34-2.61,2.34c-0.94,0.88-2.1,1.66-3.1,2.49
						c-1.52,1.27-3.17,3.02-4.99,3.87c-0.58,0.27-3.65,1.62-4.07,2C28.48,43.07,34.03,55.49,38.33,55.6z"/>
					<path class="st19" d="M64.19,31.66c-7.6,3.46-15.39,6.51-23.33,9.12c0.01,0.91-0.24,1.82-0.71,2.6
						c0.6,0.09,1.17,0.44,1.52,0.94c0.98-0.52,1.96-1.04,2.95-1.55c0.4,2.25,2.06,4.24,4.2,5.06c-0.92-1.28-1.43-2.84-1.45-4.41
						c0-0.31,0.04-0.66,0.29-0.83c0.11-0.07,0.23-0.11,0.36-0.13c9.03-2.12,18.15-4.26,27.45-4.46c-9.61-0.36-19.25,0.61-28.56,2.88
						c-0.31,0.07-0.66,0.49-0.36,0.61c6.64-2.56,13.27-5.12,19.91-7.68c-7.05,2.12-14.11,4.24-21.16,6.36
						c2.97-1.17,5.94-2.34,8.91-3.51c5.29-2.08,11.2-4.16,15.56-7.9c-0.85,0.11-1.7,0.95-2.44,1.36
						C66.31,30.69,65.25,31.18,64.19,31.66z"/>
					<path class="st13" d="M64.57,31.8c-7.56,3.55-15.31,6.69-23.21,9.4c0.01,0.91-0.24,1.83-0.7,2.61c0.6,0.09,1.16,0.43,1.51,0.92
						c0.98-0.53,1.95-1.06,2.93-1.59c0.4,2.24,2.04,4.21,4.18,5.01c-0.92-1.27-1.43-2.82-1.44-4.39c0-0.31,0.04-0.66,0.29-0.83
						c0.11-0.08,0.23-0.11,0.36-0.14c8.99-2.23,18.05-4.47,27.31-4.78c-9.56-0.25-19.15,0.84-28.41,3.21
						c-0.31,0.08-0.65,0.5-0.36,0.61c6.6-2.64,13.2-5.28,19.81-7.91c-7.02,2.2-14.03,4.4-21.05,6.61c2.95-1.21,5.91-2.41,8.86-3.61
						c5.26-2.15,11.14-4.29,15.48-8.08c-0.84,0.12-1.69,0.96-2.43,1.39C66.68,30.8,65.63,31.3,64.57,31.8z"/>
					<path class="st20" d="M40.68,42.06c2.4-4.72,4.8-9.44,7.19-14.16c-2.72,3.48-4.89,7.38-6.4,11.53c0.24-1.87,0.6-3.76,0.71-5.63
						c-0.79,0.53-0.89,2.88-1.02,3.78C40.94,39.06,40.81,40.56,40.68,42.06z"/>
					<path class="st21" d="M53.7,46.79c4.5,0.26,9,0.5,13.49,0.71c-2.11-0.7-4.11-0.87-6.34-0.91
						C58.48,46.54,56.05,46.91,53.7,46.79z"/>
					<path class="st5" d="M-0.01,64.06c13.35-2.48,30.6-7.56,38.11-10.22c-0.01-3.42-1.15-6.72-2.27-9.94
						c-0.51-1.45-1.1-3.21-2.35-4.21c-1.41-1.14-3.57,0.81-5.06,1.46C22.88,45,4.09,46.23,0,46.71l-0.01,1.91V64.06z"/>
					<path class="st6" d="M32.15,56.05c1.97-0.76,3.96-1.5,5.95-2.21c-0.01-3.42-1.15-6.72-2.27-9.94c-0.51-1.45-1.1-3.21-2.35-4.21
						c-1.41-1.14-3.57,0.81-5.06,1.46c-0.2,0.09-0.4,0.17-0.6,0.25c-0.79,0.66-2.67,1.3-2.67,1.3s-1.32,1.32-1.44,2.3
						c-0.83,5.21-3.18,12.54-4.17,14.47C23.6,58.29,28.1,57.24,32.15,56.05z"/>
					<path class="st19" d="M56.45,16.21c0.25,0.76,0.62,1.52,0.57,2.32c-0.02,0.28-0.09,0.56-0.03,0.83
						c0.06,0.27,0.3,0.54,0.57,0.49c0.12-0.02,0.22-0.1,0.31-0.19c0.5-0.47,0.7-1.17,0.87-1.84c0.21-0.85,0.39-1.72,0.25-2.59
						c-0.14-0.86-0.65-1.71-1.47-2.02c-0.37-0.14-0.86-0.12-1.06,0.22c-0.07,0.12-0.09,0.27-0.11,0.41
						c-0.04,0.35-0.07,0.71-0.08,1.07L56.45,16.21z"/>
					<path class="st12" d="M43.11,30.63c-0.39,0.87-0.38,1.62-0.23,2.69c0.04-0.07,0.08-0.14,0.12-0.21c0,0,0,0,0,0
						C42.76,32.3,42.85,31.43,43.11,30.63z"/>
					<path class="st12" d="M51.83,50.21c-0.42,0.01-0.74,0.03-0.89,0.05C50.47,50.35,50.72,50.43,51.83,50.21z"/>
					<path class="st21" d="M55.99,22.46c0,0-2.48,4.57-4.3,4.56c1.33,0.83,3.6,0.29,4.42-0.04c-0.83-1.48-0.22-2.87,0.49-4.41
						c0.49-1.07,1.13-2.07,1.63-3.13c-0.92,0.91-3.41,2.93-4.11,3.05C55.12,22.75,55.99,22.46,55.99,22.46z"/>
					<path class="st21" d="M47.29,46.32c-0.12-0.14-0.42-0.23-0.41-0.04c0,0.03,0.02,0.06,0.03,0.09c0.41,0.8,0.95,1.51,1.33,2.33
						c0.36,0.78,0.03,2.47-0.13,2.59c2.93-1.36,7.29-1.61,8.94-1.61c-2.57-0.4-5.87-0.6-6.45-0.87
						C49.34,48.24,48.2,47.39,47.29,46.32z"/>
					<path class="st21" d="M46.41,27.06c0.01-0.02,0.03-0.05,0.04-0.07c-1.33,1.17-2.9,2.65-2.9,2.65
						c-0.02,0.02-0.04,0.03-0.05,0.05c-0.1,0.2-0.2,0.4-0.28,0.61c-0.04,0.11-0.07,0.23-0.11,0.34c-0.26,0.8-0.35,1.67-0.12,2.48
						c0,0,0,0,0,0c0.99-1.1,1.58-2.49,2.29-3.79c0.75-1.36,1.73-2.52,2.62-3.77C47.44,26.04,46.94,26.55,46.41,27.06z"/>
					<g>
						<path class="st22" d="M28.78,83.48l-0.34-0.45c-2.41-3.23-11.26-9.13-13.16-9.13c0.02,0-2.31,1.79-2.2,1.69
							c-0.25-1.39,0.15-2.49,0.97-3.41c1.88-1.78,3.75-3.56,5.61-5.36c0.55-0.53,1.12-1.08,1.46-1.69c0.54-0.96,0.93-3,1.08-4.48
							c0.27-2.73,0.83-5.3,1.38-7.78c0.42-1.9,0.85-3.86,1.15-5.89c0.07-0.54,0.11-1,0.13-1.41c0.14-1.89,0.32-2.65,2.8-4.26
							c0.2-0.17,0.45-0.4,0.74-0.67c1.38-1.29,3.81-3.58,6.94-4.94c0.29-0.13,0.6-0.19,0.93-0.19c0.63,0,1.16,0.06,1.94,0.4
							c0.33,0.12,0.87,0.36,1.5,0.65c1.45,0.65,3.43,1.54,4.69,1.69l0.06,0.01l0.06,0.02c1.63,0.4,2.11,1.56,2.03,2.43
							c-0.05,0.55-0.32,1.05-0.72,1.44c0.13,0.18,0.23,0.35,0.29,0.52c1.69,0.76,2.59,1.31,3.13,3.62c1.01,0.84,1.79,2.2,1.42,3.4
							c-0.39,1.25-1.51,2.36-2.38,3.08l-0.36,0.29c-0.87,0.71-1.61,1.32-2.27,2.18l-0.06,0.08l-0.7,0.64
							c-0.07,0.27-0.14,0.57-0.22,0.9c-0.36,1.56-0.85,3.65-2.26,5.07c-0.32,2.13-3.07,5.82-3.41,6.13
							c-1.19,1.12-1.79,2.24-2.49,3.55c-0.43,0.81-0.88,1.65-1.5,2.55c-1.42,2.18-2.73,4.87-3.59,6.64
							c-1.13,2.32-1.3,2.68-2.09,2.68L28.78,83.48z"/>
						<path class="st23" d="M25.57,82.83c-2.25-0.47-4.5-1.03-6.52-2.11c-2.03-1.08-3.82-2.72-4.69-4.84
							c-0.39-0.95-0.46-2.28,0.44-2.78c0.29-0.16,0.63-0.2,0.96-0.2c1.57-0.01,3.05,0.65,4.46,1.35c2.49,1.23,4.94,2.58,7.13,4.28
							c0.63,0.5,1.26,1.03,1.68,1.72C30.71,83.03,27.52,83.23,25.57,82.83z"/>
						<path class="st5" d="M7.08,82.78c-0.26,0.3,0.06,2.05,0.01,2.44c-0.08,0.61,0.4,1.15,0.88,1.53c2.04,1.6,4.72,2.1,7.3,2.43
							c2.26,0.29,7.14-0.35,9.3-1.07c2.53-0.84,4.48-7.11,5.23-9.66c0.75-2.55-2.25-0.49-3.91-2.56c-2.74-3.41-6.55-6.12-9.65-3.46
							C12.85,75.33,10.03,79.44,7.08,82.78z"/>
						<path class="st6" d="M28.28,82.88c0.68-1.68,1.21-3.38,1.52-4.44c0.75-2.55-2.25-0.49-3.91-2.56
							c-2.74-3.41-6.55-6.12-9.65-3.46c-0.85,0.73-1.66,1.54-2.45,2.39C15.85,74.37,26.09,81.29,28.28,82.88z"/>
						<path class="st24" d="M47.73,51.51c0.09-0.07,0.19-0.16,0.29-0.22c0.05-0.03-2.16,1.9-2.11,1.88c0.21-0.1,3.53-2.4,3.73-2.44
							c0.38-0.46,0.67-0.92,0.8-1.35c0.26-0.83-0.57-1.94-1.36-2.46c-0.51-2.54-1.23-2.63-3.28-3.56c0.43-0.32-0.39-0.99-1.15-1.49
							c1.73-0.07,2.15-2.25,0.16-2.73c-1.99-0.25-4.74-1.67-6.03-2.15c-1.04-0.45-2.6-0.96-3.11-0.74c-1.87,0.81-3.99,2.5-4.87,3.34
							c-0.02,0.75,0,1.03,0.07,1.77c0.08,0.38,0.08,0.76-0.02,1.14c-0.08,0.19-0.16,0.38-0.24,0.57c-0.29,0.55-0.85,0.91-1.43,1.1
							c0,0,0,0,0,0c1.13,5.49,5.37,11.84,8.37,11.91c3.29-1.68,6.63-3.39,10.13-4.52C47.71,51.53,47.72,51.52,47.73,51.51z"/>
						<path class="st25" d="M48.54,47.03c-0.51-2.54-1.23-2.63-3.28-3.56c0.43-0.32-0.39-0.99-1.15-1.49
							c1.28-0.05,1.84-1.26,1.23-2.08c-0.82-0.04-1.63-0.16-2.44-0.28c-0.3,0.76-0.87,1.34-1.56,1.75
							c-0.89,0.53-1.69,0.91-2.38,1.51c-0.88,0.77-1.59,1.52-2.12,2.51c-0.38,0.71-0.52,1.41-0.23,2.08
							c0.58,1.37,1.57,2.7,2.34,3.98c0.58,0.97,1.08,2.03,1.86,2.85c2.07-1,4.17-1.93,6.34-2.63c0.01-0.01,0.03-0.02,0.04-0.03
							c0.09-0.07,0.19-0.16,0.29-0.22c0.05-0.03,0.09-0.06,0.15-0.08c0.21-0.1-0.06,0.52,0.14,0.48c0.38-0.46,2-1.88,2.13-2.32
							C50.16,48.66,49.33,47.55,48.54,47.03z"/>
						<path class="st25" d="M40.14,48.51c0.58,1.17,1.2,2.31,1.87,3.43c1.71-1.38,3.68-2.48,5.54-3.68
							c0.03-0.02,0.06-0.04,0.09-0.06c0-0.15-0.01-0.3-0.02-0.45c-0.1-0.13-0.19-0.24-0.26-0.33c-1.09-1.17-1.87-1.54-3.38-1
							C42.64,46.9,41.29,47.64,40.14,48.51z"/>
						<path class="st26" d="M48.27,46.92c-0.51-2.54-1.23-2.63-3.28-3.56c0.43-0.32-0.4-0.98-1.16-1.48
							c1.73-0.08,2.41-2.06,0.42-2.55c-1.99-0.25-5.2-1.94-6.49-2.42c-1.04-0.45-1.63-0.59-2.13-0.38c-3.68,1.59-6.2,4.39-7.34,5.34
							c-2.77,1.79-2.13,2.5-2.51,5.27c-0.69,4.72-2.06,8.87-2.53,13.62c-0.14,1.4-0.53,3.68-1.21,4.91
							c-0.42,0.75-1.04,1.35-1.66,1.94c-1.86,1.8-3.74,3.58-5.62,5.36c1.39-1.26,11.96,5.99,14.52,9.42
							c0.21,0.28,2.27-4.94,4.82-8.85c1.58-2.29,2.04-4.3,4.14-6.27c0.68-0.64,3.42-4.97,3.09-5.84c1.86-1.53,2.11-4.57,2.6-6.07
							l0.85-0.77c0.83-1.08,1.75-1.78,2.8-2.65c0.97-0.8,1.77-1.71,2.04-2.56C49.89,48.56,49.06,47.45,48.27,46.92z M42.57,49.86
							c-0.4,0.27-0.89,0.56-1.33,0.37c0.06-0.14,0.18-0.25,0.31-0.34c0.86-0.67,1.73-1.34,2.59-2c0.34-0.32,1-0.26,1.17,0.05
							C44.55,48.69,43.45,49.25,42.57,49.86z"/>
						<path class="st26" d="M48.27,46.92c-0.51-2.54-1.23-2.63-3.28-3.56c0.43-0.32-0.4-0.98-1.16-1.48
							c1.73-0.08,2.41-2.06,0.42-2.55c-1.99-0.25-5.2-1.94-6.49-2.42c-1.04-0.45-1.63-0.59-2.13-0.38c-3.68,1.59-6.2,4.39-7.34,5.34
							c-2.77,1.79-2.13,2.5-2.51,5.27c-0.69,4.72-2.06,8.87-2.53,13.62c-0.14,1.4-0.53,3.68-1.21,4.91
							c-0.42,0.75-1.04,1.35-1.66,1.94c-1.86,1.8-3.74,3.58-5.62,5.36c1.39-1.26,11.96,5.99,14.52,9.42
							c0.21,0.28,2.27-4.94,4.82-8.85c1.58-2.29,2.04-4.3,4.14-6.27c0.68-0.64,3.42-4.97,3.09-5.84c1.86-1.53,2.11-4.57,2.6-6.07
							l0.85-0.77c0.83-1.08,1.75-1.78,2.8-2.65c0.97-0.8,1.77-1.71,2.04-2.56C49.89,48.56,49.06,47.45,48.27,46.92z M42.57,49.86
							c-0.4,0.27-0.89,0.56-1.33,0.37c0.06-0.14,0.18-0.25,0.31-0.34c0.86-0.67,1.73-1.34,2.59-2c0.34-0.32,1-0.26,1.17,0.05
							C44.55,48.69,43.45,49.25,42.57,49.86z"/>
						<path class="st21" d="M43.87,41.94c0.1-0.04,0.21-0.07,0.33-0.09c-1.34-0.6-2.54-2.53-4.12-2.78c-0.8-0.06-0.78-0.01-1.57,0.2
							c-1.51,0.4-2.62,1.38-4.23,1.39c-0.18,0-0.35-0.02-0.51-0.05c0.16,0.35,0.55,0.53,0.99,0.48c-0.47,0.12-0.57,0.27-1.46,0.07
							c0.78,0.06,0.04,1.6-0.24,1.71c0.76-0.32,1.48-1.05,2.19-1.51c0.76-0.5,1.55-0.95,2.36-1.37c0.74-0.38,1.55-0.75,2.38-0.64
							c1.05,0.13,1.84,0.97,2.61,1.69C42.98,41.38,43.42,41.71,43.87,41.94z"/>
						<path class="st21" d="M29.38,46.59c-0.26,0.56-0.23,1.22-0.14,1.83c0.27-0.22,0.38-0.58,0.51-0.91
							c0.38-0.96,0.99-1.83,1.76-2.52c-0.2,0.18-0.83,0.23-1.12,0.44C29.99,45.73,29.59,46.14,29.38,46.59z"/>
						<path class="st21" d="M33.29,50.61c-0.18,0.51-0.13,1.09,0.13,1.56c0.13-0.57,0.34-1.13,0.61-1.65
							c0.18-0.35,0.45-0.73,0.46-1.13C33.97,49.55,33.46,50.11,33.29,50.61z"/>
						<path class="st21" d="M38.02,53.81c-0.66,0.43-1.03,1.26-0.92,2.04c0.51-0.75,1-1.52,1.45-2.31
							c-0.12,0.05-0.24,0.11-0.35,0.16L38.02,53.81z"/>
						<path class="st21" d="M39.02,45.08c0.92-0.67,1.85-1.34,2.88-1.82c0.3-0.14,0.62-0.27,0.95-0.32c0.74-0.1,1.46,0.12,2.14,0.42
							c-0.28-0.77-1.39-1.08-2.21-1.02c-0.82,0.06-1.03,0.25-1.72,0.7c-1.01,0.66-1.82,1.31-2.67,1.97
							c-0.22,0.17-1.56,1.23-1.56,1.23C37.14,46.33,38.74,45.28,39.02,45.08z"/>
						<path class="st21" d="M45.98,47.57c-0.21,0.08-0.67,0.37-0.67,0.37c-0.06-0.16-0.33-0.24-0.51-0.25
							c-0.6-0.02-0.96,0.44-1.36,0.74c-0.84,0.63-2.38,1.78-2.2,1.8c0.18,0.05,0.37,0.03,0.65,0.01c-0.45,0.42-1.68,1.54-1.99,2.07
							c0.14-0.22,0.59-0.97,0.54-1.22c-0.44,0.17-1.24,0.93-1.51,1.32c0.86-1.92,3.31-4.12,5.25-4.95c0.39-0.17,0.61-0.34,1.28-0.3
							c0.14,0.04,0.26,0.05,0.4,0.06c1.05-0.62,2.03-0.43,2.42-0.29C47.24,46.94,46.52,47.37,45.98,47.57z"/>
						<path class="st21" d="M23.86,56.75c-0.21,0.49-0.2,1.96-0.33,2.47c-0.19,1.04-0.38,2.08-0.56,3.11
							c-0.1,0.63-0.2,1.26-0.34,1.87c-0.02,0.08-0.05,0.15-0.1,0.22c-0.04,0.15-0.08,0.29-0.13,0.43c-0.24,0.65-0.66,1.21-1.15,1.71
							c1-0.81,2-1.95,3.26-2.22C23.7,62.26,23.85,59.14,23.86,56.75z"/>
						<path class="st14" d="M44.82,53.9c0,0.24-0.02,0.48-0.05,0.72l-0.83,0.75c-0.49,1.5-0.74,4.54-2.6,6.07
							c0.34,0.87-2.4,5.2-3.08,5.84c-2.1,1.97-2.55,3.98-4.14,6.27c-1.86,2.85-3.42,6.37-4.23,7.98c0,0.01-0.01,0.02-0.02,0.03
							c-0.07,0.13-0.12,0.24-0.17,0.33c-0.01,0.01-0.01,0.02-0.02,0.03c-0.06,0.1-0.11,0.18-0.15,0.25
							c-0.05,0.08-0.09,0.14-0.13,0.18c-0.04,0.03-0.07,0.05-0.09,0.05c-0.01,0-0.01,0-0.02,0c-2.33-2.89-12.01-10.3-14.51-9.42
							c1.88-1.78,3.75-3.57,5.62-5.37c0.61-0.59,1.24-1.19,1.65-1.94c0.69-1.22,1.08-3.51,1.22-4.9c0.46-4.75,1.83-8.9,2.52-13.62
							c0.38-2.77-0.26-3.48,2.51-5.27c0.1-0.08,0.21-0.18,0.33-0.29c0.91,0.1,1.69,0.76,2.66,1.24c1.5,0.74,3.61,0.5,4.83,1.76
							c0.48,0.5,0.73,1.18,1.25,1.64c0.85,0.75,2.3,0.79,2.9,1.74c0.61,0.98,0.04,2.52,1,3.19c0.57,0.4,1.36,0.23,2.03,0.43
							C44.27,51.88,44.8,52.93,44.82,53.9z"/>
						<path class="st21" d="M41.34,61.44c0.34,0.87-2.4,5.2-3.08,5.84c-0.44,0.41-0.81,0.83-1.13,1.25
							c-0.66,0.7-1.25,1.44-1.65,2.26c0.33-0.76,0.67-1.58,0.55-2.4c-0.11-0.82-0.87-1.62-1.68-1.45c1.65-0.18,3.24-0.82,4.56-1.83
							c0.68-0.52,1.33-1.21,1.4-2.07c0.02-0.14,0.01-0.28-0.06-0.4c-0.1-0.17-0.29-0.25-0.48-0.31c-0.66-0.23-1.33-0.46-1.99-0.7
							c2.25-0.06,4.66-2.29,5.65-4.27C43.08,58.8,42.55,60.44,41.34,61.44z"/>
					</g>
				</g>
			</g>
		</g>
	</g>
	<g>
		<path class="st0" d="M179.84,79.44h-72.61c-2.97,0-5.38-2.41-5.38-5.38V14.12c0-2.97,2.41-5.38,5.38-5.38h72.61
			c2.97,0,5.38,2.41,5.38,5.38v59.93C185.22,77.03,182.81,79.44,179.84,79.44z"/>
		<g>
			<defs>
				<path id="SVGID_5_" d="M155.51,83.44l-6.08-5.08l-42.29,1.08c-2.97,0-5.38-2.41-5.38-5.38V14.12c0-2.97,2.41-5.38,5.38-5.38
					h72.61c2.97,0,5.38,2.41,5.38,5.38l0.09,54.03l1.59,3.48c7.99,4.8-11.78,14.99-15.13,11.94c-0.33-0.17-0.65-0.2-0.83-0.5
					C168.3,78.83,158.66,85.48,155.51,83.44z"/>
			</defs>
			<clipPath id="SVGID_6_">
				<use xlink:href="#SVGID_5_"  style="overflow:visible;"/>
			</clipPath>
			<g class="st27">
				
					<rect x="132.17" y="22.49" transform="matrix(-0.9345 0.3559 -0.3559 -0.9345 267.0962 0.921)" class="st28" width="2.59" height="5.07"/>
				<polygon class="st29" points="133.65,27.67 134.36,27.4 132.59,22.51 131.86,22.86 				"/>
				<path class="st30" d="M132.72,25.54c0.27-0.13,0.53-0.27,0.78-0.42c0.38-0.23,0.74-0.49,1.09-0.77l-0.82-2.16l-2.42,0.92
					l0.98,2.58C132.47,25.66,132.6,25.6,132.72,25.54z"/>
				<path class="st31" d="M96.17,9.67l16.84-22.26c0,0,0.79-1.58,1.99-0.66l14.58,11.03c0,0,6.04,4.57,7.33,11.65
					c0.06,0.46,0.1,1.05-0.8,1.47c-0.13,0.06-0.28,0.12-0.44,0.17l-2.1,0.91c-0.59-2.33-1.97-4.5-4.05-6.08
					c-4.82-3.64-11.62-2.77-15.2,1.95c-2.83,3.75-2.79,8.8-0.23,12.54l-1.59,0.69c0,0-1.9,0.72-3.65-0.73l-11.13-8.42
					C97.71,11.93,95.53,10.68,96.17,9.67z"/>
				<path class="st31" d="M43.06-33.52l14.45-19.11c0.95-1.25,2.74-1.5,3.99-0.55l52.81,39.94L96.42,10.41L43.61-29.53
					C42.36-30.48,42.11-32.27,43.06-33.52z"/>
				<path class="st31" d="M41.82-31.89c4.4-8.31,10.1-15.72,16.92-22.37c0.41-0.54,1.19-0.65,1.73-0.24l8.64,6.53
					c0.26,0.2,0.31,0.56,0.11,0.82c-6.83,7.36-12.79,15.13-17.71,23.41c-0.2,0.26-0.56,0.31-0.82,0.11l-8.64-6.53
					C41.52-30.57,41.41-31.35,41.82-31.89z"/>
				<path class="st31" d="M69.23-47.15c0.09-0.12,0.12-0.26,0.11-0.4c-0.4-0.03-0.81,0.14-1.08,0.49
					C61.44-40.41,55.74-33,51.34-24.69c-0.26,0.35-0.31,0.79-0.17,1.17c0.14-0.03,0.26-0.1,0.35-0.22
					C56.44-32.02,62.4-39.79,69.23-47.15z"/>
				
					<rect x="90.28" y="-1.93" transform="matrix(0.6033 -0.7975 0.7975 0.6033 42.9733 83.1798)" class="st32" width="29.65" height="0.65"/>
				<path class="st31" d="M111.81-9.93l2.5-3.31L61.5-53.18c-1.25-0.95-3.04-0.7-3.99,0.55l-0.8,1.05
					C75.09-37.71,93.6-24.01,111.81-9.93z"/>
				<path class="st31" d="M98.14,8.13L43.07-33.53l-0.01,0.01c-0.95,1.25-0.7,3.04,0.55,3.99l52.81,39.95L98.14,8.13z"/>
				<path class="st31" d="M136.36,11.79c0,0-0.3-0.56-0.25-0.89c0.05-0.34-14.4,5.88-14.4,5.88s0.4,0.35,0.5,0.63
					c0.1,0.28,0.46,0.81,1.28,0.41c0.82-0.41,12.69-5.38,12.69-5.38S136.52,12.14,136.36,11.79z"/>
				<path class="st33" d="M126.71-1.34c4.22,3.45,7.06,7.38,9.19,12.32c0.08-0.03,0.14-0.06,0.21-0.09c0.89-0.42,0.86-1.01,0.8-1.47
					c-1.29-7.08-7.33-11.65-7.33-11.65L115-13.26c-1.21-0.91-1.99,0.66-1.99,0.66l-0.36,0.48C117.36-8.56,122.14-5.07,126.71-1.34z"
					/>
				<path class="st33" d="M123.5,17.81c0.06-0.03,0.17-0.08,0.33-0.15c0.92-1.64,2.5-2.35,4.25-3.13c1.25-0.55,2.43-1.24,3.77-1.54
					c1.1-0.25,2.03,0.08,3.1-0.04c0.76-0.32,1.24-0.52,1.24-0.52s0.33-0.28,0.17-0.64c0,0-0.3-0.56-0.25-0.89
					c0.05-0.34-14.4,5.88-14.4,5.88s0.4,0.35,0.5,0.63C122.31,17.68,122.68,18.21,123.5,17.81z"/>
				<path class="st30" d="M136.3,15.63l1.2,3.05c0,0,0.2,0.57-0.54,0.87l-9.74,3.86c0,0-0.7,0.24-0.96-0.4l-1.24-2.84L136.3,15.63z"
					/>
				<path class="st29" d="M127.19,20.26c0.07,0.22,0.15,0.45,0.24,0.67c0.25,0.61,0.42,1.39,0.92,1.84c0.05,0.05,0.09,0.1,0.13,0.16
					l3.57-1.42c-0.95-0.94-1.56-2.19-1.53-3.54l-3.14,1.27C127.27,19.57,127.21,19.91,127.19,20.26z"/>
				<path class="st28" d="M136.21,12.19l0.41,1.14c0,0,0.16,0.38-0.59,0.63l-11.67,4.81c0,0-0.81,0.46-1.13,0.01
					c-0.33-0.45-0.42-0.93-0.42-0.93L136.21,12.19z"/>
				<path class="st33" d="M131.07,0.97c-3.37-3.09-15.54-11.76-15.54-11.76s-0.86-1.73,0.91-1.38l13.14,9.94c0,0,2.7,2.04,4.88,5.52
					C133.6,2.92,132.47,2.24,131.07,0.97z"/>
				<path class="st34" d="M114.09,20.39c-2.55-3.74-2.6-8.79,0.23-12.54c3.57-4.73,10.38-5.6,15.2-1.95
					c2.09,1.58,3.46,3.75,4.05,6.08L114.09,20.39z"/>
				<path class="st35" d="M52.86-22.54c4.69-8.86,10.65-16.75,17.89-23.65l41.6,31.47L94.46,8.93L52.86-22.54z"/>
				
					<rect x="88.31" y="-54.92" transform="matrix(-0.6033 0.7975 -0.7975 -0.6033 121.8233 -118.2845)" class="st36" width="4.04" height="52.16"/>
				
					<rect x="73.09" y="-34.03" transform="matrix(-0.6033 0.7975 -0.7975 -0.6033 113.1377 -72.1744)" class="st36" width="2.86" height="52.16"/>
				<path class="st28" d="M136.43,19.73l0.03,0.08c0.68,1.73-0.16,3.68-1.87,4.37l-2.27,0.92c-1.74,0.7-3.72-0.14-4.41-1.88
					l-0.05-0.13L136.43,19.73z"/>
				<path class="st28" d="M136.43,19.73l0.03,0.08c0.68,1.73-0.16,3.68-1.87,4.37l-2.27,0.92c-1.74,0.7-3.72-0.14-4.41-1.88
					l-0.05-0.13L136.43,19.73z"/>
				<path class="st37" d="M133.15,27.86c-0.06-0.15,0.44-0.49,1.11-0.74c0.67-0.25,1.26-0.34,1.32-0.18
					c0.06,0.16-0.44,0.49-1.11,0.74C133.8,27.93,133.21,28.01,133.15,27.86z"/>
				<path class="st33" d="M97.71,11.93l11.13,8.42c1.61,1.34,3.35,0.83,3.62,0.74c-2.84-1.09-5.41-3.38-7.66-5.12
					c-2.34-1.81-4.76-3.59-6.98-5.54C97.3,9.97,96.93,9.5,96.67,9l-0.51,0.67C95.54,10.68,97.71,11.93,97.71,11.93z"/>
				<g>
					<path class="st38" d="M111.23-7.43L111.23-7.43c0.65-0.86,1.87-1.03,2.73-0.38l2.83,2.14c0.86,0.65,1.03,1.87,0.38,2.73l0,0
						c-0.65,0.86-1.87,1.03-2.73,0.38l-2.83-2.14C110.75-5.35,110.58-6.57,111.23-7.43z"/>
					<path class="st38" d="M100.81,6.35L100.81,6.35c0.65-0.86,1.87-1.03,2.73-0.38l2.83,2.14c0.86,0.65,1.03,1.87,0.38,2.73l0,0
						c-0.65,0.86-1.87,1.03-2.73,0.38l-2.83-2.14C100.33,8.43,100.16,7.21,100.81,6.35z"/>
					<path class="st38" d="M105.76-0.19L105.76-0.19c0.54-0.72,1.56-0.86,2.28-0.32l2.37,1.79c0.72,0.54,0.86,1.56,0.32,2.28l0,0
						c-0.54,0.72-1.56,0.86-2.28,0.32l-2.36-1.79C105.35,1.55,105.21,0.53,105.76-0.19z"/>
				</g>
				<path class="st29" d="M126.76,17.78l6.12-2.52c-0.16-0.49-0.33-0.97-0.51-1.45l-6.12,2.58
					C126.41,16.86,126.58,17.32,126.76,17.78z"/>
				<path class="st39" d="M136.37,13.59l1.37,3.48c0,0,0.22,0.65-0.62,0.99l-11.09,4.4c0,0-0.8,0.27-1.09-0.45l-1.41-3.24
					L136.37,13.59z"/>
				<g>
					<line class="st40" x1="137.53" y1="17.49" x2="136.2" y2="13.91"/>
					<line class="st40" x1="137.14" y1="17.64" x2="135.81" y2="14.07"/>
					<line class="st40" x1="136.74" y1="17.8" x2="135.42" y2="14.23"/>
					<line class="st40" x1="136.35" y1="17.95" x2="135.03" y2="14.39"/>
					<line class="st40" x1="135.96" y1="18.1" x2="134.64" y2="14.55"/>
					<line class="st40" x1="135.57" y1="18.26" x2="134.25" y2="14.71"/>
					<line class="st40" x1="135.18" y1="18.41" x2="133.86" y2="14.87"/>
					<line class="st40" x1="134.78" y1="18.57" x2="133.47" y2="15.03"/>
					<line class="st40" x1="134.39" y1="18.72" x2="133.08" y2="15.19"/>
					<line class="st40" x1="134" y1="18.88" x2="132.69" y2="15.35"/>
					<line class="st40" x1="133.61" y1="19.03" x2="132.3" y2="15.51"/>
					<line class="st40" x1="133.21" y1="19.18" x2="131.91" y2="15.67"/>
					<line class="st40" x1="132.82" y1="19.34" x2="131.52" y2="15.83"/>
					<line class="st40" x1="132.43" y1="19.49" x2="131.13" y2="15.99"/>
					<line class="st40" x1="132.04" y1="19.65" x2="130.74" y2="16.15"/>
					<line class="st40" x1="131.64" y1="19.8" x2="130.35" y2="16.31"/>
					<line class="st40" x1="131.25" y1="19.96" x2="129.96" y2="16.47"/>
					<line class="st40" x1="130.86" y1="20.11" x2="129.57" y2="16.64"/>
					<line class="st40" x1="130.47" y1="20.26" x2="129.18" y2="16.8"/>
					<line class="st40" x1="130.08" y1="20.42" x2="128.79" y2="16.96"/>
					<line class="st40" x1="129.68" y1="20.57" x2="128.4" y2="17.12"/>
					<line class="st40" x1="129.29" y1="20.73" x2="128.01" y2="17.28"/>
					<line class="st40" x1="128.9" y1="20.88" x2="127.62" y2="17.44"/>
					<line class="st40" x1="128.51" y1="21.04" x2="127.23" y2="17.6"/>
					<line class="st40" x1="128.11" y1="21.19" x2="126.84" y2="17.76"/>
					<line class="st40" x1="127.72" y1="21.35" x2="126.45" y2="17.92"/>
					<line class="st40" x1="127.33" y1="21.5" x2="126.06" y2="18.08"/>
					<line class="st40" x1="126.94" y1="21.65" x2="125.67" y2="18.24"/>
					<line class="st40" x1="126.55" y1="21.81" x2="125.28" y2="18.4"/>
					<line class="st40" x1="126.15" y1="21.96" x2="124.89" y2="18.56"/>
					<line class="st40" x1="125.76" y1="22.12" x2="124.5" y2="18.72"/>
					<line class="st40" x1="125.37" y1="22.27" x2="124.11" y2="18.88"/>
				</g>
				<path class="st39" d="M128.17,23.74c0,0,5.19-2.1,6.41-2.35c1.22-0.25-5.45,2.02-6.12,2.76L128.17,23.74z"/>
				<path class="st39" d="M136.69,21.23c0,0-4.94,1.6-7.01,3.08c3.02-1.64,6.93-2.64,6.93-2.64L136.69,21.23z"/>
			</g>
			<g class="st27">
				<path class="st41" d="M179.79,63.58c-0.21-0.1-0.63-0.28-1.18-0.52c-2.26-0.97-7.57-3.23-9.3-5.15
					c-1.78-1.98-3.68-4.71-5.36-7.12c-0.64-0.92-1.26-1.81-1.85-2.63c-1.17-1.62-2.37-2.85-3.77-3.88c-0.51-0.37-1.01-0.71-1.5-1.04
					c-1.16-0.78-2.17-1.46-3.1-2.47c-1.16-1.26-2.3-2.47-3.52-3.51c-0.79-0.67-1.71-1.02-2.52-1.33c-0.75-0.29-1.46-0.56-1.96-1.03
					c-0.38-0.36-0.72-0.92-1.06-1.46c-0.24-0.38-0.47-0.76-0.72-1.1c-0.62-0.82-1.74-1.7-3.05-1.7c-0.32,0-0.63,0.05-0.93,0.16
					c-1.39,0.49-2.16,2-1.96,3.84c0.28,2.63,1.5,5,3.73,7.23c0.61,0.61,2.15,1.64,2.72,2.02c0.16,0.25,0.34,0.5,0.53,0.76
					c-3.83-1.75-7.58-3.32-11.17-4.66c-3.65-1.83-5.63-2.79-7.24-2.79c-1.32,0-2.31,0.65-3.03,1.99c-0.38,0.71-0.45,1.45-0.21,2.15
					c0.61,1.8,3.05,3.01,6.98,4.82l0.17,0.08c-0.09,0.15-0.16,0.29-0.22,0.41c-0.21,0.41-0.88,1.83-0.74,3.04
					c0.03,0.74,0.5,1.43,0.96,1.99c-0.2,0.37-0.33,0.72-0.43,0.99c-0.04,0.12-0.08,0.23-0.12,0.31c-0.5,1.06-0.29,2.39,0.66,4.17
					c0,0.05-0.03,0.24-0.03,0.24l0,0.11c0.08,1.97,1.47,4.9,2.87,5.96c0.58,0.37,1.03,0.61,1.46,0.85c0.77,0.41,1.44,0.77,2.77,1.86
					c1.78,2.07,5.95,2.83,10.77,3.72c2.54,0.47,5.17,0.95,7.36,1.64c1.05,0.37,5.31,5.01,7.13,6.99c1.1,1.2,1.74,1.89,2.06,2.18
					l0.28,0.25c0.49,0.44,1.2,0.55,1.8,0.27l1.3-0.61c1.44-3.11,1.5-6.2,3.5-8.66c1.57-1.94,4.76-4.41,7.88-5.45
					C180.38,65.83,180.51,64.23,179.79,63.58z"/>
				<path class="st23" d="M165.5,79.38c0.9,5.73,18.19-16.93,13.25-14.62C178.76,64.76,163.35,65.63,165.5,79.38z"/>
				<path class="st5" d="M176.08,63.85l18.27,13.25l-13.69,14.29L164.5,77.24C164.5,77.24,166.18,70.24,176.08,63.85z"/>
				<path class="st6" d="M172.29,73.09c1.57-2.93,3.55-5.54,6.18-7.5l-2.4-1.74c-9.9,6.39-11.58,13.39-11.58,13.39l4.49,3.93
					C169.72,78.36,170.91,75.68,172.29,73.09z"/>
				<path class="st42" d="M140.74,55.82c0.13,0.06,0.32,0.21,0.46,0.22c0.44,0.05,0.79-0.26,1.18-0.06
					c-0.26-0.01-0.53,0.04-0.74,0.17c-0.55,0.33-0.59,1.05-0.72,1.65c-0.14,0.65,0.38,2.39-0.06,2.91
					c-0.05,0.06-0.11,0.12-0.19,0.12c-0.07,0.01-1.15-1.28-1.21-1.32c-0.78-0.57-1.53-0.96-2.25-1.6c0.26-0.42,0.26-1.04,0.04-1.48
					c-0.22-0.44-0.49-0.91-0.4-1.39c0.12-0.61,0.96-1.07,1.55-0.73c0.36,0.21,0.67,0.62,1.01,0.88
					C139.83,55.48,140.3,55.6,140.74,55.82z"/>
				<path class="st20" d="M141.09,56.1c0.11-0.17,0.46,0.12,0.66,0.09c-0.37,0.01,0.48-1.41,0.7-1.68c0.37-0.44,1.39-2.5,1.59-3.08
					c-0.71,0.02-2.5-0.82-2.5-0.82c-0.98-0.69-1.65-1.01-2.77-1.48c-0.34-0.14-0.78-0.26-1.06-0.04c-0.15,0.12-0.21,0.29-0.27,0.46
					c-0.14,0.4-0.28,0.8-0.42,1.2c-0.15,0.44-0.31,0.9-0.29,1.36c0.03,0.93,0.14,2.12,0.93,2.66
					C137.91,54.96,141.11,56.07,141.09,56.1z"/>
				<path class="st12" d="M171.02,71.28c2.02-2.5,5.16-5.69,8.29-6.73c-1.15-0.56-8.51-3.36-10.81-5.92
					c-2.5-2.78-5.11-6.83-7.28-9.83c-1.01-1.4-2.11-2.6-3.53-3.64c-1.72-1.26-3.32-2.1-4.75-3.64c-1.06-1.15-2.22-2.39-3.42-3.42
					c-1.34-1.14-3.26-1.19-4.53-2.4c-0.76-0.73-1.27-1.86-1.9-2.69c-0.63-0.83-1.74-1.53-2.75-1.17c-1.06,0.38-1.36,1.65-1.25,2.71
					c0.27,2.57,1.53,4.69,3.42,6.58c0.66,0.66,2.74,2,2.74,2c0.91,1.48,2.35,3.04,3.57,4.12c-0.84-0.21-2.83-0.93-2.83-0.93
					c-1.58-0.74-6.63-3.1-12.6-5.32c-5.58-2.8-7.57-3.74-8.88-1.28c-1.06,2.01,1.75,3.41,6.26,5.5c0.22,0.1,0.45,0.21,0.67,0.31
					c5.39,2.49,10.76,5.71,11.93,5.98c-0.8,1.08-3.23,6.64-2.65,9.14c-0.67-0.88-1.66-1.53-2.59-2.03c0.73-0.94,1.39-2.43,0.2-3.02
					c-0.44-0.22-1.59-0.34-2.08-0.33c-0.67,0.01-1.63,0.22-2.29,0.26c-1.12,0.08-1.69,0.46-2.13,1c-0.19,0.24-0.16,0.67-0.2,0.96
					c0.06,1.64,1.31,4.29,2.38,5.09c1.62,1.04,2.19,1.03,4.41,2.84c2.33,2.88,11.52,3.15,17.7,5.1c1.76,0.55,8.51,8.43,9.59,9.4
					C167.13,76.83,168.88,73.92,171.02,71.28z"/>
				<path class="st26" d="M166.36,78.39c0.01-0.01,0.02-0.02,0.03-0.03c-0.51-3.13-0.35-6.56,0.31-9.69
					c-0.9-0.21-1.63-0.6-2.23-1.11c0,0-0.5,0.14-0.78,0.19c-2.2,0.36-2.88-0.58-4.6-1.96c-3.27-2.63-6.27-6.96-7.58-10.81
					c-0.88-2.59-1.01-5.43-0.44-5.43c0.22,0-2.76-2.35-2.92-2.51c-0.94-0.29-2.18-0.74-2.18-0.74c-1.58-0.74-6.63-3.1-12.6-5.32
					c-5.58-2.8-7.57-3.74-8.88-1.28c-1.06,2.01,1.75,3.41,6.26,5.5c0.22,0.1,0.45,0.21,0.67,0.31c5.39,2.49,10.76,5.71,11.93,5.98
					c-0.8,1.08-3.23,6.64-2.65,9.14c-0.67-0.88-1.66-1.53-2.59-2.03c0.73-0.94,1.39-2.43,0.2-3.02c-0.44-0.22-1.59-0.34-2.08-0.33
					c-0.67,0.01-1.63,0.22-2.29,0.26c-1.12,0.08-1.69,0.46-2.13,1c-0.19,0.24-0.16,0.67-0.2,0.96c0.06,1.64,1.31,4.29,2.38,5.09
					c1.62,1.04,1.62,1.04,4.91,3.05c2.33,2.88,10.36,2.57,16.53,4.52c1.75,0.55,9.36,9.05,10.43,10.02
					C165.88,79.57,166.09,78.87,166.36,78.39z"/>
				<path class="st13" d="M148.33,53.37c-0.44,1.5-0.54,3.11-0.08,4.6c0.07,0.23,0.16,0.46,0.32,0.65c0.15,0.18,0.35,0.31,0.55,0.43
					c3.7,2.34,7.59,4.51,10.77,7.45c-10.13-8.71-8.99-16.68-9.38-16.94C149.69,50.54,148.68,52.19,148.33,53.37z"/>
				<path class="st43" d="M138.55,55.72c1.74,1.76-2.27,4.97-4.37,4.5c0,0,1.79,1.32,4.33-0.92
					C140.53,57.75,139.21,55.69,138.55,55.72z"/>
				<path class="st13" d="M145.12,42.89c0.3,0.04,0.59-0.09,0.82-0.28c0.22-0.18,0.39-0.42,0.55-0.66c0.18-0.27,0.36-0.53,0.54-0.8
					c-0.25,0.77-0.44,1.55-0.58,2.34c-0.07,0.4-0.11,0.87,0.17,1.18c-0.39-0.66-0.9-1.26-1.49-1.78"/>
				<path class="st13" d="M152.42,50.49c0.75,0.35,1.6,0.49,2.42,0.63c0.78,0.13,1.58,0.26,2.37,0.24
					c-0.84-0.37-1.74-0.65-2.66-0.82c-0.59-0.11-1.19-0.18-1.74-0.4c-0.39-0.16-0.75-0.39-1.09-0.62c-0.7-0.46-1.72-0.98-2.15-1.68
					C150.37,48.86,151.17,49.91,152.42,50.49z"/>
				<path class="st13" d="M137.49,60.07c-0.13,0.06-0.27,0.12-0.41,0.17c-0.02,0.01-0.03,0.01-0.05,0.02
					c-0.01,0-0.03,0.01-0.04,0.01c-0.22,0.35-0.45,0.69-0.72,1.01c-0.36,0.42-0.79,0.66-1.29,0.89c0.42,0.2,0.95-0.02,1.35-0.22
					c0.67-0.34,1.35-0.73,1.75-1.33c0.24-0.36,0.33-0.8,0.28-1.21c-0.03,0.03-0.05,0.06-0.08,0.09c-0.05,0.04-0.1,0.08-0.16,0.13"/>
				<path class="st13" d="M139.99,59.87c0.63,0.51-0.32,3.88,0.05,4.57c-0.3-0.38,0.94-3.55,1.09-4c0.15-0.45,0.54-0.83,1.01-0.98
					c-0.44-0.11-0.88,0.11-1.31,0.25c-0.43,0.14-0.99,0.18-1.25-0.17c0.14,0.26,0.43,0.44,0.74,0.47"/>
				<path class="st13" d="M138.71,45.26c0.21-0.38,0.4-0.79,0.75-1.07c0.17,0.11,0.25,0.32,0.25,0.52c0,0.2-0.08,0.39-0.15,0.57
					c-0.39,1-0.88,2.09-1.9,2.56c-0.23,0.1-0.53,0.16-0.73,0.01C136.59,47.57,138.46,45.71,138.71,45.26z"/>
				<path class="st21" d="M139.07,55.02l2.05,0.75c0.23,0.07,0.28,0.25,0.26,0.39c-0.03,0.2-0.33,0.23-0.36,0.43
					c-0.04,0.2-0.02,0.71,0.11,0.87c0.06-0.31,0.2-0.61,0.4-0.87c0.06-0.08,0.13-0.15,0.21-0.2c0.19-0.11,0.4-0.14,0.58-0.26
					c0.23-0.15,0.45-0.29,0.65-0.51c-0.37,0.24-0.65,0.24-1.08,0.23c-0.05,0-0.1,0-0.14-0.04c-0.05-0.04-0.05-0.13-0.04-0.2
					c0.06-0.42,0.23-0.83,0.41-1.24c0.25-0.59,0.51-1.18,0.76-1.77c0.17-0.39,0.13-0.45,0.3-0.83c-0.99,1.57-1.25,1.95-1.8,3.37
					c-0.02,0.04-0.04,0.08-0.08,0.09c-0.04,0.02-0.08,0.01-0.12,0C140.72,55.13,140.26,55.01,139.07,55.02z"/>
				<path class="st43" d="M131.25,53.72c0.26-0.55,0.45-1.75,1.58-2.32c0.42-0.28,1.84-0.41,2.35-0.4c1.89,0.03,2.89-0.15,3.12-0.13
					c1.41,0.12,1.83,1.1,1.94,1.31c0.42,0.88,0.19,2-0.54,2.68c-0.63,0.59-2.05,1.39-4.9,1.33c-0.39,0.05-1.58-0.09-1.92,0.1
					c-0.54,0.29-0.89,0.36-1.08,0.88C130.42,54.81,131.05,54.13,131.25,53.72z"/>
				<path class="st13" d="M138.87,55.56c-0.77,0.44-2.52,0.89-4.55,0.83c-0.39,0.05-1.33,0.05-1.68,0.25
					c-0.53,0.29-0.54,0.6-0.71,1.12c-0.02-0.01-0.03-0.04-0.03-0.05c-0.01-0.04-0.01-0.07-0.01-0.09c0.04-0.3,0-0.74,0.2-0.97
					c0.42-0.54,0.99-0.93,2.12-1.01c0.67-0.04,1.62-0.25,2.29-0.26C136.94,55.36,138.23,55.05,138.87,55.56z"/>
				<g>
					<defs>
						<path id="SVGID_7_" d="M141.74,41.88c-0.68-0.57-3.43-3.59-3.73-7.23c-0.19-1.14,0.13-3.25,1.96-3.84
							c1.22-0.55,2.88,0.15,3.98,1.54l1.18,1.8l0.45-8.03l-20.83,0.62l1.43,19.97l19.91-1.51
							C145.62,44.87,141.98,42.15,141.74,41.88z"/>
					</defs>
					<clipPath id="SVGID_8_">
						<use xlink:href="#SVGID_7_"  style="overflow:visible;"/>
					</clipPath>
					<path class="st44" d="M139.85,43.24c-0.06-0.04-0.26-0.13-0.32-0.17c-0.18-0.07-0.16-0.15-0.23-0.3
						c-0.01-0.02-0.04-0.03-0.05-0.05c-0.03-0.07-0.06-0.15-0.09-0.22c-0.01-0.02-3.7-0.34-5.51-0.73c-2.13-0.46-3.98-1.47-5.61-2.9
						c-0.17-0.15-0.35-0.33-0.54-0.52c-0.48-0.04-1.1-0.07-1.45-0.01l0.45,2.26c0.3,2.01,1.92,3.33,3.62,3.56
						c0,0,0.33,0.04,0.58,0.04l1.92-0.02l5.23-0.06c0.85-0.02,1.89-0.3,2.54-0.65C140.31,43.43,139.92,43.29,139.85,43.24z"/>
					<polygon class="st45" points="141.9,30.41 138.19,30.43 138.19,30.43 141.9,30.41 					"/>
					<polygon class="st45" points="134.01,30.45 129.74,30.47 129.74,30.47 134.01,30.45 					"/>
					<polygon class="st45" points="133.12,43.39 133.12,43.39 131.06,43.41 					"/>
					<path class="st46" d="M141.9,30.41l-3.71,0.02l-4.17,0.02l-4.27,0.02l-3.09,0.01l1.46,9.55c0.26,2.01,1.22,3.09,2.72,3.32l0,0
						c0.21,0.03,0.42,0.05,0.65,0.05l1.82-0.02l4.25-0.05l0,0h0l0.37,0c1.75-0.04,3.14-0.97,3.55-2.89l1.28-10.04L141.9,30.41z"/>
					<g class="st47">
						<path class="st48" d="M131.48,43.41l1.82-0.02l4.63-0.06c1.75-0.04,3.14-0.97,3.55-2.89l0.48-3.76c0-0.04,0-0.07-0.01-0.11
							c-1.25-0.05-2.8-0.1-4.05-0.13c-1-0.03-1.51-0.77-1.6-1.25c-0.12-0.19-0.85-3.01-1.27-4.74l-1.23,0.05
							c0.05,0.15,0.18,2.79-0.13,4.69c0.03,0.88-1.01,1.35-1.23,1.38c-2.06,0.25-2.74,0.29-4.81,0.29l0.49,3.19
							C128.41,42.32,129.6,43.41,131.48,43.41z"/>
						<g>
							<polygon class="st49" points="141.9,30.41 138.19,30.43 138.19,30.43 141.9,30.41 							"/>
							<polygon class="st49" points="133.3,43.39 133.3,43.39 131.48,43.41 							"/>
						</g>
						<path class="st19" d="M128.85,32.15h2.92c0,0-0.44,7.49,0,8.29c0.44,0.8,0.44,0.8,0.44,0.8h-0.73
							C131.1,41.26,129.29,41.67,128.85,32.15z"/>
						<path class="st50" d="M134.29,27.1c-0.38,0.17-0.77,0.25-0.97,0.57l0.48,2.82l1.23-0.05C134.58,28.44,134.29,27.1,134.29,27.1
							z"/>
					</g>
					<path class="st51" d="M131.73,30.46l-1.99,0.01l-3.09,0.01l1.46,9.55c0.26,2.01,1.22,3.09,2.72,3.32l0,0
						c0.21,0.03,0.42,0.05,0.65,0.05l0.42-0.01C131.92,39.09,131.95,34.77,131.73,30.46z"/>
					<path class="st51" d="M141.9,30.41l-3.71,0.02l-0.1,0c0.25,4.28,0.26,8.58,0.14,12.88c1.61-0.13,2.87-1.05,3.26-2.87
						l1.28-10.04L141.9,30.41z"/>
				</g>
				<path class="st13" d="M146.06,47.9c-0.23,0.61-0.71,1.1-1.18,1.58c0.8-0.25,1.38-0.91,2.16-1.22c0.81-0.33,1.74-0.24,2.62-0.32
					c-0.15-0.37-0.55-0.62-0.96-0.74c-0.41-0.13-0.84-0.15-1.26-0.24c-0.53-0.11-1.06-0.3-1.5-0.59
					C146.21,46.83,146.26,47.39,146.06,47.9z"/>
				<path class="st52" d="M130.9,53.47c0.26-0.55,0.45-1.75,1.58-2.32c0.42-0.28,1.83-0.41,2.35-0.4c1.89,0.03,2.12-0.12,3.33,0.08
					c0.87,0.15,1.25,0.79,1.35,1c0.42,0.88,0.19,2-0.54,2.68c-0.63,0.59-1.93,1.35-4.78,1.28c-0.39,0.05-1.33,0.05-1.67,0.24
					c-0.54,0.29-0.54,0.61-0.73,1.13C130.42,54.81,130.7,53.88,130.9,53.47z"/>
				<path class="st43" d="M132.46,50.81c-0.09-0.78-0.97-2.52-0.61-3.23c0.2-0.38,0.4-0.78,0.75-1.05c0.3-0.24,0.64-0.37,1.03-0.45
					c1.34-0.28,2.75-0.05,4.09,0.24c0.35,0.08,1.22,0.4,1.64,1.28c0.54,1.22,0.25,2.14,0.07,2.46c-0.24,0.42-0.98,1.8-2.69,1.92
					c-1.36,0.03-3.05-0.09-4.4-0.19c-0.4,0-0.7,0.09-0.79,0.19C132.18,50.76,132.48,51.43,132.46,50.81z"/>
				<path class="st53" d="M130.59,49.68c-0.09-0.78,0.25-1.8,0.62-2.51c0.2-0.38,0.4-0.78,0.75-1.05c0.3-0.24,0.64-0.37,1.03-0.45
					c1.34-0.28,2.75-0.05,4.09,0.24c0.35,0.08,1.22,0.4,1.64,1.28c0.54,1.22,0.25,2.14,0.07,2.46c-0.24,0.42-0.87,1.67-2.58,1.78
					c-1.36,0.03-2.61-0.07-3.96-0.17c-0.28,0.03-0.37,0.22-0.46,0.32C131.39,51.1,130.62,50.3,130.59,49.68z"/>
			</g>
		</g>
		<path class="st54" d="M142.44,14.61c1.12,3.04,1.2,6.46,0.24,9.55"/>
		<path class="st54" d="M148.53,17.86c-0.82,4.45-0.08,9.18,2.07,13.17c2.15,3.99,5.7,7.2,9.88,8.96"/>
		<path class="st54" d="M126.05,57.73c-0.83,8.74,7.07,11.64,9.46,12.29"/>
	</g>
	<path class="st54" d="M245.96,75.55c1.33-3.95,5.15-8.18,9.07-10.12"/>
	<path class="st55" d="M223.4,50.92c0-3.14-2.08-5.22-5.22-5.22c3.14,0,5.22-2.08,5.22-5.22c0,3.14,2.08,5.22,5.22,5.22
		C225.48,45.7,223.4,47.78,223.4,50.92z"/>
	<path class="st55" d="M230.16,68.28c0-6.42-3.52-10.68-8.83-10.68c5.31,0,8.83-4.26,8.83-10.68c0,6.42,3.52,10.68,8.83,10.68
		C233.68,57.6,230.16,61.85,230.16,68.28z"/>
	<path class="st54" d="M264.05,14.16c2.73,6.6,7.42,12.37,13.32,16.39c1.33,0.91,2.78,1.75,4.38,1.96"/>
	<path class="st54" d="M254.41,70.43c-1.5,1.16-2.75,2.66-3.61,4.35"/>
	<path class="st19" d="M68.87,20.61c-0.1,0.15-0.2,0.32-0.16,0.5c0.08,0.36,0.8,0.96,1.16,0.86c1.63-0.47,2.44-0.85,3.96-1.6
		c0.46-0.23,1.51-1.32,1.87-1.7c0.36-0.37,0.6-0.89,0.52-1.4c-0.03-0.2-0.11-0.39-0.26-0.53c-0.8-0.77-2.91,0.08-3.69,0.56
		C70.92,18.13,69.75,19.28,68.87,20.61z"/>
	<path class="st19" d="M84.73,21.38c0.46-0.05,1,0.02,1.25,0.4c0.1,0.14,0.14,0.31,0.16,0.48c0.1,0.81-0.3,1.64-0.93,2.17
		c-0.62,0.53-1.44,0.8-2.25,0.9c-0.18,0.02-0.37,0.04-0.54-0.02c-0.28-0.1-0.46-0.37-0.56-0.65C81.15,22.7,83.09,21.54,84.73,21.38z
		"/>
	<path class="st19" d="M81.55,47.42c0.39,0.08,0.81,0.17,1.08,0.46c0.07,0.08,0.14,0.18,0.13,0.28c-0.02,0.25-0.37,0.3-0.62,0.28
		c-3.04-0.3-6.07-0.76-9.06-1.36c-0.21-0.04-0.45-0.1-0.57-0.29c-0.41-0.67,3.59-0.19,4.06-0.14C78.24,46.84,79.9,47.1,81.55,47.42z
		"/>
	<path class="st19" d="M86,34.22c0.79-0.1,1.64-0.18,2.34,0.2c0.7,0.38,1.09,1.42,0.54,1.99c-0.35,0.37-0.93,0.41-1.42,0.28
		c-0.49-0.13-0.93-0.39-1.41-0.56c-0.75-0.27-1.56-0.29-2.35-0.3c-1.3-0.03-4.06,0.41-5.09-0.29c0.76-0.64,2.18-0.6,3.12-0.74
		C83.15,34.59,84.58,34.4,86,34.22z"/>
	<path class="st54" d="M44.87,18.55C38.45,27.8,28.08,34.2,16.93,35.8"/>
	<path class="st54" d="M52.16,54.38c-4.04,3.81-6.82,8.94-7.8,14.41"/>
	<path class="st54" d="M51.09,61.35c-3.07,3.61-4.53,8.53-3.94,13.23"/>
</g>
<g>
</g>
<g>
</g>
<g>
</g>
<g>
</g>
<g>
</g>
<g>
</g>
<g>
</g>
<g>
</g>
<g>
</g>
<g>
</g>
<g>
</g>
<g>
</g>
<g>
</g>
<g>
</g>
<g>
</g>
</svg>
