<?xml version="1.0" encoding="UTF-8"?>
<svg xmlns="http://www.w3.org/2000/svg" version="1.1" viewBox="0 0 535 314.3">
  <defs>
    <style>
      .cls-1 {
        fill-rule: evenodd;
      }

      .cls-1, .cls-2 {
        fill: #fff;
      }

      .cls-3 {
        fill: #ddca78;
      }
    </style>
  </defs>
  <!-- Generator: Adobe Illustrator 28.7.1, SVG Export Plug-In . SVG Version: 1.2.0 Build 142)  -->
  <g>
    <g id="Layer_1">
      <g id="Layer_1-2" data-name="Layer_1">
        <g id="Layer_1-2">
          <g id="Layer_1-2-2" data-name="Layer_1-2">
            <g id="Layer_1-2-2">
              <g id="Layer_1-2-2-2" data-name="Layer_1-2-2">
                <g>
                  <path class="cls-2" d="M88.2,271.5l-7.3-8.6h.6l7.1,8.2,7.1-8.2h.6l-7.3,8.6,7.6,8.9h-.6l-7.3-8.6-7.3,8.6h-.6l7.6-8.9h-.2Z"/>
                  <g>
                    <path class="cls-2" d="M121.3,266.6c-.6-.9-1.9-1.3-3-1.3s-2.8.5-2.8,1.9c0,3.5,8.8,1.2,8.8,7.9s-3.5,6.3-7.3,6.3-4.6-.8-6.4-2.3l3-3.2c.9,1,2.2,1.8,3.7,1.8s2.8-.6,2.8-1.9c0-3.6-8.9-1.5-8.9-7.9s3.6-6.2,7.2-6.2,4.3.5,5.9,1.9l-2.8,3.1h-.2Z"/>
                    <path class="cls-2" d="M148.7,273.7c0,4.5-2.7,7.9-8,7.9s-8-3.2-8-7.9v-11.7h4.3v11.6c0,2.3,1.5,4.1,4,4.1s3.9-1.8,3.9-4.1v-11.6h4.3v11.7h-.5,0Z"/>
                    <path class="cls-2" d="M158,262.1h7.1c4,0,7.2,1.3,7.2,5.8s-3,5.9-7.1,5.9h-3v7.5h-4.3v-19.1h0ZM162.2,270.2h2.7c1.4,0,3-.5,3-2.2s-1.9-2.2-3.7-2.2h-2.1v4.5h.1Z"/>
                    <path class="cls-2" d="M180.5,262.1h12.9v4h-8.8v3.6h8.2v4h-8.2v4h9.1v4h-13.4v-19.1h0v-.5h.2,0Z"/>
                    <path class="cls-2" d="M202.7,262.1h7.3c4,0,7.2,1.3,7.2,5.8s-1.4,4.8-4.1,5.3l4.9,8h-5l-4-7.6h-2.1v7.6h-4.3v-19.1h-.1s.2,0,.2,0ZM206.9,270h2.4c1.5,0,3.6,0,3.6-2.1s-1.7-2.2-3.2-2.2h-2.7v4.4h-.1,0Z"/>
                    <path class="cls-2" d="M231.4,266.6l-3.9,3.5-2.2-2.6,6.2-5.3h3.9v19.1h-4v-14.6h0Z"/>
                  </g>
                </g>
              </g>
            </g>
          </g>
        </g>
      </g>
      <g>
        <path class="cls-2" d="M46.4,42.8c0,6.4-1.9,11.4-5.7,14.8-3.8,3.5-8.7,5.2-14.8,5.2s-11-1.7-14.7-5.2c-3.7-3.4-5.6-8.4-5.6-14.8s1.9-11.5,5.6-15.3c3.7-3.7,8.7-5.6,14.9-5.6s11.1,1.9,14.8,5.6c3.7,3.7,5.5,8.8,5.5,15.2ZM32.7,28.5c-1.6-3.3-3.8-5-6.7-5s-5.1,1.7-6.7,5.1c-1.6,3.4-2.5,8.1-2.5,14.1s.8,10.7,2.4,14c1.6,3.3,3.8,4.9,6.8,4.9,6.1,0,9.1-6.3,9.1-19s-.8-10.7-2.4-14Z"/>
        <path class="cls-2" d="M84.9,34.8c0-4.2-.7-7-2.1-8.4-1.4-1.4-4-2.1-7.8-2.1h-2.1v36.5h4.9v1.4h-20.4v-1.4h4.9V24.3h-2.1c-3.7,0-6.3.7-7.7,2.1-1.4,1.4-2.1,4.2-2.1,8.4h-1.4v-11.9h37.1v11.9h-1.4Z"/>
        <path class="cls-2" d="M132,60.8v1.4h-18.2v-1.4h3.2l-9.3-17.1-2.9,3.7v13.3h3.5v1.4h-17.5v-1.4h3.5V24.3h-3.5v-1.4h17.5v1.4h-3.5v20.7l16.3-20.7h-6.5v-1.4h14.3v1.4h-6l-8.3,10.5,14.5,26h3Z"/>
        <path class="cls-2" d="M176.4,62.9h-3.1c-5.8,0-9.9-1.3-12.2-3.8-1.8-2-3.1-4.6-3.7-7.8-.3-1.4-.6-2.6-.9-3.7-.7-2.5-2.3-3.8-4.6-3.8h-3.1v17h3.5v1.4h-17.5v-1.4h3.5V24.3h-3.5v-1.4h18.5c11.9,0,17.9,3.5,17.9,10.5s-1,5-3,6.7c-2,1.7-4.6,2.6-7.7,2.6v.5c4.7,0,7.9,3.1,9.8,9.3.9,3.3,1.9,5.6,2.8,7,1,1.4,2.1,2.1,3.4,2.1v1.4ZM148.8,24.3v18.1c4.7,0,7.8-.7,9.4-2,1.6-1.4,2.4-3.6,2.4-6.8s-.8-5.5-2.5-7c-1.6-1.5-4.7-2.2-9.3-2.2Z"/>
        <path class="cls-2" d="M197.4,62.2h-17.5v-1.4h3.5V24.3h-3.5v-1.4h17.5v1.4h-3.5v36.5h3.5v1.4Z"/>
        <path class="cls-2" d="M213.2,62.2c-3.7,0-6.7-.8-8.9-2.5-2.2-1.7-3.3-4.1-3.3-7.3s.5-3.2,1.6-4.5c1.1-1.3,2.4-1.9,4-1.9s2.8.5,3.7,1.4c.9,1,1.4,2.2,1.4,3.6,0,2.3-1.2,3.8-3.6,4.6-.3,0-.7.2-1.2.3s-.9.2-1.1.3c-.6.1-.9.6-.9,1.3s.6,1.5,1.9,2.1c1.2.7,2.6,1,4.2,1,5.6,0,8.4-4.1,8.4-12.2v-24.1h-3.5v-1.4h17.5v1.4h-3.5v23.4c0,4.5-1.4,8.1-4.1,10.6-2.8,2.5-6.9,3.8-12.4,3.8Z"/>
        <path class="cls-2" d="M48.6,121.6v1.4h-18.5v-1.4h4.1l-4.7-9.8h-14.2l-4.1,9.8h5.5v1.4H4.9v-1.4h4.7l16.1-38.6h1.8l17.8,38.6h3.4ZM16,110.4h12.8l-6.9-14.3-6,14.3Z"/>
        <path class="cls-2" d="M87.5,105.9c0,12.1-5.1,18.2-15.3,18.2s-10.1-1.5-13.3-4.4c-3.2-2.9-4.8-7.3-4.8-13.1v-21.5h-3.5v-1.4h18.2v1.4h-3.5v22.2c0,9.8,3.3,14.7,9.8,14.7s5.1-1.3,7.3-4c2.2-2.6,3.3-6.2,3.3-10.8v-22.2h-5.5v-1.4h10.8v1.4h-3.5v20.8Z"/>
        <path class="cls-2" d="M128.9,95.6c0-4.2-.7-7-2.1-8.4-1.4-1.4-4-2.1-7.8-2.1h-2.1v36.5h4.9v1.4h-20.4v-1.4h4.9v-36.5h-2.1c-3.7,0-6.3.7-7.7,2.1-1.4,1.4-2.1,4.2-2.1,8.4h-1.4v-11.9h37.1v11.9h-1.4Z"/>
        <path class="cls-2" d="M155.5,121.6c7,0,10.5-4,10.5-11.9h1.4v13.3h-33v-1.4h3.5v-36.5h-3.5v-1.4h32.3v11.9h-1.4c0-4.2-.8-7-2.5-8.4-1.7-1.4-4.3-2.1-8-2.1h-6.3v16.8h2.8c3.4,0,5.5-.4,6.4-1.3.9-.8,1.3-2.5,1.3-5.1h1.4v14h-1.4c0-2.6-.4-4.3-1.3-5.1-.9-.8-3-1.2-6.4-1.2h-2.8v18.2h7Z"/>
        <path class="cls-2" d="M177,121.6h5.6v1.4h-11.2v-1.4h4.2v-33.4c-1.5-2.1-2.9-3.1-4.2-3.1v-1.4h13.1l19.7,23.4v-22h-5.6v-1.4h11.9v1.4h-4.9v38.6h-1.4l-27.2-33.8v31.7Z"/>
        <path class="cls-2" d="M249,95.6c0-4.2-.7-7-2.1-8.4-1.4-1.4-4-2.1-7.8-2.1h-2.1v36.5h4.9v1.4h-20.4v-1.4h4.9v-36.5h-2.1c-3.7,0-6.3.7-7.7,2.1-1.4,1.4-2.1,4.2-2.1,8.4h-1.4v-11.9h37.1v11.9h-1.4Z"/>
        <path class="cls-2" d="M272.2,123h-17.5v-1.4h3.5v-36.5h-3.5v-1.4h17.5v1.4h-3.5v36.5h3.5v1.4Z"/>
        <path class="cls-2" d="M311.8,99.4h-1.4c0-3.7-1.2-7.2-3.6-10.4-2.4-3.2-5.8-4.8-10.2-4.8s-4.5,1.5-6.1,4.4c-1.6,2.9-2.4,7.9-2.4,14.9s.8,12,2.4,14.9c1.6,2.9,4.1,4.4,7.6,4.4s6.3-1.1,8.7-3.2c2.4-2.2,3.8-5.2,4.4-9.1h1.4c-.7,4.6-2.3,8.1-4.9,10.4-2.6,2.3-5.7,3.4-9.3,3.4-7,0-12.3-1.7-16-5-3.7-3.3-5.6-8.6-5.6-15.7s1.8-12.3,5.4-15.6c3.6-3.3,8.4-4.9,14.4-4.9s6.4.9,9.4,2.6c1,.6,1.8.9,2.4.9s1.1-.3,1.5-.9c.4-.6.6-1.2.6-1.7h1.3v15.7ZM291.1,70.3l6.2,2.8,6.2-2.8.6.6-6.2,9h-1.3l-6.1-9,.6-.6Z"/>
        <path class="cls-2" d="M321.3,121.6h5.6v1.4h-11.2v-1.4h4.2v-33.4c-1.5-2.1-2.9-3.1-4.2-3.1v-1.4h13.1l19.7,23.4v-22h-5.6v-1.4h11.9v1.4h-4.9v38.6h-1.4l-27.2-33.8v31.7Z"/>
        <path class="cls-2" d="M398.5,103.7c0,6.4-1.9,11.4-5.7,14.8-3.8,3.5-8.7,5.2-14.8,5.2s-11-1.7-14.7-5.2c-3.7-3.4-5.6-8.4-5.6-14.8s1.9-11.5,5.6-15.3c3.7-3.7,8.7-5.6,14.9-5.6s11.1,1.9,14.8,5.6c3.7,3.7,5.5,8.8,5.5,15.2ZM384.8,89.3c-1.6-3.3-3.8-5-6.7-5s-5.1,1.7-6.7,5.1c-1.6,3.4-2.5,8.1-2.5,14.1s.8,10.7,2.4,14c1.6,3.3,3.8,4.9,6.8,4.9,6.1,0,9.1-6.3,9.1-19s-.8-10.7-2.4-14Z"/>
        <path class="cls-2" d="M410.7,122.7l-2.9.4c-1.4,0-2.6-.5-3.6-1.4s-1.6-2.3-1.6-4,.6-3.2,1.7-4.4c1.1-1.2,2.8-1.8,4.8-1.8s3.8.8,5.1,2.4c1.3,1.6,2,3.4,2,5.4,0,2.9-.9,5.6-2.8,8-1.9,2.5-4.6,4.5-8.2,6.1l-.5-1.3c4.9-2.9,7.3-5.6,7.3-8.3s-.4-1.2-1.3-1.2Z"/>
        <path class="cls-2" d="M24.5,183.8H7v-1.4h3.5v-36.5h-3.5v-1.4h17.5c3.5,0,6.6.6,9.4,1.7,2.8,1.1,5,2.7,6.8,4.5,3.5,3.9,5.3,8.3,5.3,13.2s-1.8,11.6-5.3,14.9c-3.5,3.3-8.9,4.9-16.1,4.9ZM21,182.4c5.1,0,8.7-1.4,10.9-4.1,2.2-2.7,3.4-7.2,3.4-13.4s-1.2-10.9-3.6-14.1c-2.4-3.2-6-4.8-10.7-4.8v36.5Z"/>
        <path class="cls-2" d="M89.6,164.5c0,6.4-1.9,11.4-5.7,14.8-3.8,3.5-8.7,5.2-14.8,5.2s-11-1.7-14.7-5.2c-3.7-3.4-5.6-8.4-5.6-14.8s1.9-11.5,5.6-15.3c3.7-3.7,8.7-5.6,14.9-5.6s11.1,1.9,14.8,5.6c3.7,3.7,5.5,8.8,5.5,15.2ZM75.9,150.1c-1.6-3.3-3.8-5-6.7-5s-5.1,1.7-6.7,5.1c-1.6,3.4-2.5,8.1-2.5,14.1s.8,10.7,2.4,14c1.6,3.3,3.8,4.9,6.8,4.9,6.1,0,9.1-6.3,9.1-19s-.8-10.7-2.4-14Z"/>
        <path class="cls-2" d="M123.9,169.1h1.4v14.7h-32.2v-1.4l19.9-36.5h-4.5c-4.4,0-7.4.8-9.2,2.3-1.8,1.5-2.7,4.7-2.7,9.6h-1.4v-13.3h29.6v1.4l-20.1,36.5h7.4c2.2,0,4-.2,5.3-.5,1.4-.3,2.6-.9,3.6-1.8,1.9-1.7,2.9-5.4,2.9-11.1ZM110.7,140.7h-1.3l-6.1-9,.6-.6,6.2,2.8,6.2-2.8.6.6-6.2,9Z"/>
        <path class="cls-2" d="M148.5,183.8h-17.5v-1.4h3.5v-36.5h-3.5v-1.4h17.5v1.4h-3.5v36.5h3.5v1.4Z"/>
        <path class="cls-2" d="M194.5,144.5v1.4h-4.8l-14.9,37.9h-1.8l-17.6-37.9h-3.4v-1.4h19.9v1.4h-3.4l10.2,23.5,9.3-23.5h-5.6v-1.4h12.2Z"/>
        <path class="cls-2" d="M215.6,183.8h-17.5v-1.4h3.5v-36.5h-3.5v-1.4h17.5v1.4h-3.5v36.5h3.5v1.4Z"/>
        <path class="cls-2" d="M275.7,164.5c0,6.4-1.9,11.4-5.7,14.8-3.8,3.5-8.7,5.2-14.8,5.2s-11-1.7-14.7-5.2c-3.7-3.4-5.6-8.4-5.6-14.8s1.9-11.5,5.6-15.3c3.7-3.7,8.7-5.6,14.9-5.6s11.1,1.9,14.8,5.6c3.7,3.7,5.5,8.8,5.5,15.2ZM262,150.1c-1.6-3.3-3.8-5-6.7-5s-5.1,1.7-6.7,5.1c-1.6,3.4-2.5,8.1-2.5,14.1s.8,10.7,2.4,14c1.6,3.3,3.8,4.9,6.8,4.9,6.1,0,9.1-6.3,9.1-19s-.8-10.7-2.4-14Z"/>
        <path class="cls-2" d="M297.5,183.8h-17.5v-1.4h3.5v-36.5h-3.5v-1.4h17.5c3.5,0,6.6.6,9.4,1.7,2.8,1.1,5,2.7,6.8,4.5,3.5,3.9,5.3,8.3,5.3,13.2s-1.8,11.6-5.3,14.9c-3.5,3.3-8.9,4.9-16.1,4.9ZM294,182.4c5.1,0,8.7-1.4,10.9-4.1s3.4-7.2,3.4-13.4-1.2-10.9-3.6-14.1-6-4.8-10.7-4.8v36.5Z"/>
        <path class="cls-2" d="M364,184.5h-3.1c-5.8,0-9.9-1.3-12.2-3.8-1.8-2-3.1-4.6-3.7-7.8-.3-1.4-.6-2.6-.9-3.7-.7-2.5-2.3-3.8-4.6-3.8h-3.1v17h3.5v1.4h-17.5v-1.4h3.5v-36.5h-3.5v-1.4h18.5c11.9,0,17.9,3.5,17.9,10.5s-1,5-3,6.7c-2,1.7-4.6,2.6-7.7,2.6v.5c4.7,0,7.9,3.1,9.8,9.3.9,3.3,1.9,5.6,2.8,7,1,1.4,2.1,2.1,3.4,2.1v1.4ZM336.4,145.9v18.1c4.7,0,7.8-.7,9.4-2,1.6-1.4,2.4-3.6,2.4-6.8s-.8-5.5-2.5-7c-1.6-1.5-4.7-2.2-9.3-2.2Z"/>
        <path class="cls-2" d="M397.6,169.1h1.4v14.7h-32.2v-1.4l19.9-36.5h-4.5c-4.4,0-7.4.8-9.2,2.3-1.8,1.5-2.7,4.7-2.7,9.6h-1.4v-13.3h29.6v1.4l-20.1,36.5h7.4c2.2,0,4-.2,5.3-.5,1.4-.3,2.6-.9,3.6-1.8,1.9-1.7,2.9-5.4,2.9-11.1ZM384.4,140.7h-1.3l-6.1-9,.6-.6,6.2,2.8,6.2-2.8.6.6-6.2,9Z"/>
        <path class="cls-2" d="M422.2,183.8h-17.5v-1.4h3.5v-36.5h-3.5v-1.4h17.5v1.4h-3.5v36.5h3.5v1.4Z"/>
        <path class="cls-2" d="M468.2,144.5v1.4h-4.8l-14.9,37.9h-1.8l-17.6-37.9h-3.4v-1.4h19.9v1.4h-3.4l10.2,23.5,9.3-23.5h-5.6v-1.4h12.2Z"/>
        <path class="cls-2" d="M511.2,164.5c0,6.4-1.9,11.4-5.7,14.8-3.8,3.5-8.7,5.2-14.8,5.2s-11-1.7-14.7-5.2c-3.7-3.4-5.6-8.4-5.6-14.8s1.9-11.5,5.6-15.3c3.7-3.7,8.7-5.6,14.9-5.6s11.1,1.9,14.8,5.6c3.7,3.7,5.5,8.8,5.5,15.2ZM497.4,150.1c-1.6-3.3-3.8-5-6.7-5s-5.1,1.7-6.7,5.1c-1.6,3.4-2.5,8.1-2.5,14.1s.8,10.7,2.4,14c1.6,3.3,3.8,4.9,6.8,4.9,6.1,0,9.1-6.3,9.1-19s-.8-10.7-2.4-14Z"/>
        <path class="cls-2" d="M521.6,185.3c-1.8,0-3.3-.6-4.6-1.9s-1.9-2.8-1.9-4.6.6-3.3,1.9-4.6,2.8-1.9,4.6-1.9,3.3.6,4.6,1.9,1.9,2.8,1.9,4.6-.6,3.3-1.9,4.6-2.8,1.9-4.6,1.9Z"/>
      </g>
      <g>
        <path class="cls-1" d="M46.7,265.8l4.5,4.5c.8-.5,1.5-1.1,2.2-1.7.8-.8,1.4-1.6,2-2.6-3.4,0-6.2,0-8.6-.2M45.8,272.1l-7-7c-4.2-.5-8-1.2-14.6-1.7h-1.7c-4.1-.3-8.1-1.9-11.2-5-2.5-2.5-4-5.5-4.7-8.6h5.2c.6,1.9,1.6,3.6,3.1,5.1,4.8,4.8,12.6,4.8,17.4,0h0c6.7-6.7,17.7-6.7,24.5,0,2.4,2.4,4,5.4,4.7,8.6h0c-.7,3.2-2.2,6.2-4.7,8.6-6.6,6.6-17.4,6.7-24.2.3l3.5-3.6c2.7,2.5,6.2,3.6,9.7,3.3M47,260.7l4.1-4.1c.8.5,1.6,1.1,2.3,1.8.8.8,1.4,1.6,1.9,2.5-3.4,0-6-.1-8.3-.2M45.7,254.9l-5.3,5.3c-1.8-.2-3.6-.4-5.6-.7.4-.3.8-.7,1.1-1h0c2.7-2.7,6.3-3.8,9.8-3.5"/>
        <path class="cls-1" d="M56.9,282.2c-6.7-6.7-17.7-6.7-24.5,0h0s0,0,0,0c-4.8,4.8-12.6,4.8-17.4,0s-2.5-3.2-3-5.1h0c.6-1.9,1.6-3.6,3-5.1,4.5-4.5,11.8-4.8,16.6-.7l3.5-3.6c-6.8-6-17.2-5.7-23.7.8-2.4,2.4-4,5.4-4.7,8.6.7,3.2,2.2,6.2,4.7,8.6,3.1,3.1,7.2,4.8,11.3,5h1.9c4.1-.2,8.2-1.9,11.3-5h0c4.8-4.8,12.6-4.8,17.4,0,1.5,1.5,2.5,3.2,3,5h5.2c-.7-3.1-2.2-6.1-4.7-8.6M16.7,274.4c-1.5,0-2.8,1.2-2.8,2.8s1.2,2.8,2.8,2.8,2.8-1.2,2.8-2.8-1.2-2.8-2.8-2.8"/>
      </g>
      <rect class="cls-3" x="7" y="218.3" width="208.9" height="1"/>
    </g>
  </g>
</svg>