<?xml version="1.0" encoding="UTF-8"?>
<svg xmlns="http://www.w3.org/2000/svg" version="1.1" viewBox="0 0 535 314.3">
  <defs>
    <style>
      .cls-1 {
        fill-rule: evenodd;
      }

      .cls-1, .cls-2 {
        fill: #fff;
      }

      .cls-3 {
        fill: #ddca78;
      }
    </style>
  </defs>
  <!-- Generator: Adobe Illustrator 28.7.1, SVG Export Plug-In . SVG Version: 1.2.0 Build 142)  -->
  <g>
    <g id="Layer_1">
      <g id="Layer_1-2" data-name="Layer_1">
        <g id="Layer_1-2">
          <g id="Layer_1-2-2" data-name="Layer_1-2">
            <g>
              <g>
                <path class="cls-2" d="M212.7,134h-11.1v-.9h2.2v-23h-2.2v-.9h11.1c2.2,0,4.2.4,5.9,1.1,1.8.7,3.2,1.7,4.3,2.8,2.2,2.4,3.3,5.2,3.3,8.3s-1.1,7.3-3.3,9.4-5.6,3.1-10.2,3.1h0v.2ZM210.5,133.2c3.3,0,5.5-.9,6.8-2.6s2.1-4.6,2.1-8.5-.7-6.8-2.3-8.9c-1.5-2-3.8-3-6.8-3v23h0Z"/>
                <path class="cls-2" d="M253.8,121.9c0,4.1-1.2,7.2-3.6,9.4s-5.5,3.3-9.4,3.3-6.9-1.1-9.3-3.3c-2.4-2.1-3.5-5.3-3.5-9.4s1.2-7.2,3.5-9.7c2.4-2.4,5.5-3.5,9.4-3.5s7,1.2,9.4,3.5,3.5,5.5,3.5,9.6h0ZM245.2,112.7c-1-2.1-2.4-3.2-4.2-3.2s-3.3,1.1-4.2,3.3c-1,2.1-1.5,5.1-1.5,8.9s.5,6.8,1.5,8.9,2.4,3.1,4.3,3.1c3.8,0,5.8-4,5.8-12s-.5-6.8-1.5-8.9h0Z"/>
                <path class="cls-2" d="M275.5,124.8h.9v9.3h-20.3v-.9l12.5-23h-2.8c-2.8,0-4.6.5-5.8,1.5s-1.7,2.9-1.7,6h-.9v-8.4h18.6v.9l-12.7,23h4.6c1.4,0,2.5-.2,3.3-.3.9-.2,1.6-.6,2.3-1.1,1.2-1.1,1.8-3.4,1.8-7h.2ZM267.1,106.8h-.8l-3.8-5.7.4-.4,3.9,1.8,3.9-1.8.4.4-3.9,5.7h0Z"/>
                <path class="cls-2" d="M290.9,134h-11.1v-.9h2.2v-23h-2.2v-.9h11.1v.9h-2.2v23h2.2v.9h0Z"/>
                <path class="cls-2" d="M320,109.3v.9h-3l-9.4,23.9h-1.1l-11.1-23.9h-2.1v-.9h12.5v.9h-2.1l6.4,14.8,5.9-14.8h-3.5v-.9h7.7-.2Z"/>
                <path class="cls-2" d="M333.3,134h-11.1v-.9h2.2v-23h-2.2v-.9h11.1v.9h-2.2v23h2.2v.9h0Z"/>
              </g>
              <g>
                <path class="cls-3" d="M200.8,161.1c0,4.1-1.2,7.2-3.6,9.4s-5.5,3.3-9.4,3.3-6.9-1.1-9.3-3.3c-2.4-2.1-3.5-5.3-3.5-9.4s1.2-7.2,3.5-9.7c2.4-2.4,5.5-3.5,9.4-3.5s7,1.2,9.4,3.5c2.4,2.4,3.5,5.5,3.5,9.6h0ZM192.2,152c-1-2.1-2.4-3.2-4.2-3.2s-3.3,1.1-4.2,3.3c-1,2.1-1.5,5.1-1.5,8.9s.5,6.8,1.5,8.9c1,2.1,2.4,3.1,4.3,3.1,3.8,0,5.8-4,5.8-12s-.5-6.8-1.5-8.9h0Z"/>
                <path class="cls-3" d="M214.5,173.3h-11.1v-.9h2.2v-23h-2.2v-.9h11.1c2.2,0,4.2.4,5.9,1.1,1.8.7,3.2,1.7,4.3,2.8,2.2,2.4,3.3,5.2,3.3,8.3s-1.1,7.3-3.3,9.4c-2.2,2.1-5.6,3.1-10.2,3.1h0v.2ZM212.3,172.4c3.3,0,5.5-.9,6.8-2.6s2.1-4.6,2.1-8.5-.7-6.8-2.3-8.9-3.8-3-6.8-3v23h0Z"/>
                <path class="cls-3" d="M256.4,173.7h-2c-3.7,0-6.3-.8-7.7-2.4-1.1-1.3-2-2.9-2.4-4.9-.2-.9-.4-1.6-.6-2.4-.4-1.5-1.5-2.4-2.9-2.4h-2v10.7h2.2v.9h-11.1v-.9h2.2v-23h-2.2v-.9h11.6c7.5,0,11.3,2.2,11.3,6.6s-.7,3.2-1.9,4.2-2.9,1.6-4.9,1.6v.3c2.9,0,5,2,6.2,5.9.6,2.1,1.2,3.5,1.8,4.4.7.9,1.3,1.3,2.1,1.3v.9h0ZM239,149.4v11.4c2.9,0,4.9-.4,5.9-1.3,1-.9,1.5-2.3,1.5-4.3s-.5-3.5-1.5-4.4c-1-1-2.9-1.4-5.9-1.4h0Z"/>
                <path class="cls-3" d="M277.7,164h.9v9.3h-20.3v-.9l12.5-23h-2.8c-2.8,0-4.6.5-5.8,1.5s-1.7,2.9-1.7,6h-.9v-8.4h18.6v.9l-12.7,23h4.6c1.4,0,2.5-.2,3.3-.3.9-.2,1.6-.6,2.3-1.1,1.2-1.1,1.8-3.4,1.8-7h.2ZM269.3,146h-.8l-3.8-5.7.4-.4,3.9,1.8,3.9-1.8.4.4-3.9,5.7h0Z"/>
                <path class="cls-3" d="M293.1,173.3h-11.1v-.9h2.2v-23h-2.2v-.9h11.1v.9h-2.2v23h2.2v.9Z"/>
                <path class="cls-3" d="M322.2,148.5v.9h-3l-9.4,23.9h-1.1l-11.1-23.9h-2.1v-.9h12.5v.9h-2.1l6.4,14.8,5.9-14.8h-3.5v-.9h7.7-.2Z"/>
                <path class="cls-3" d="M349.3,161.1c0,4.1-1.2,7.2-3.6,9.4s-5.5,3.3-9.4,3.3-6.9-1.1-9.3-3.3c-2.4-2.1-3.5-5.3-3.5-9.4s1.2-7.2,3.5-9.7c2.4-2.4,5.5-3.5,9.4-3.5s7,1.2,9.4,3.5c2.4,2.4,3.5,5.5,3.5,9.6h0ZM340.6,152c-1-2.1-2.4-3.2-4.2-3.2s-3.3,1.1-4.2,3.3c-1,2.1-1.5,5.1-1.5,8.9s.5,6.8,1.5,8.9,2.4,3.1,4.3,3.1c3.8,0,5.8-4,5.8-12s-.5-6.8-1.5-8.9h0Z"/>
                <path class="cls-3" d="M355.9,174.2c-1.1,0-2.1-.4-2.9-1.2s-1.2-1.8-1.2-2.9.4-2.1,1.2-2.9,1.8-1.2,2.9-1.2,2.1.4,2.9,1.2,1.2,1.8,1.2,2.9-.4,2.1-1.2,2.9-1.8,1.2-2.9,1.2Z"/>
              </g>
            </g>
            <g>
              <path class="cls-1" d="M274.7,197.8l2.8,2.8c.5-.3,1-.7,1.4-1.1.5-.5.9-1,1.3-1.6-2.1,0-3.9,0-5.5-.2M274.1,201.8l-4.4-4.4c-2.7-.3-5-.7-9.2-1.1h-1.1c-2.6-.2-5.1-1.2-7.1-3.2s-2.5-3.5-2.9-5.5h3.3c.4,1.2,1,2.3,2,3.3,3,3,8,3,11,0h0c4.2-4.2,11.1-4.2,15.5,0,1.5,1.5,2.5,3.4,2.9,5.5h0c-.4,2-1.4,3.9-2.9,5.5-4.2,4.2-11,4.2-15.3.2l2.2-2.3c1.7,1.5,3.9,2.3,6.1,2.1M274.9,194.5l2.6-2.6c.5.3,1,.7,1.5,1.1.5.5.9,1,1.2,1.5-2.1,0-3.8,0-5.2-.2M274.1,191l-3.3,3.3c-1.1-.2-2.3-.2-3.5-.4.2-.2.5-.4.7-.7h0c1.7-1.7,4-2.4,6.2-2.2"/>
              <path class="cls-1" d="M281.1,208.1c-4.2-4.2-11.1-4.2-15.5,0h0c-3,3-8,3-11,0s-1.5-2-1.9-3.3h0c.4-1.2,1-2.3,1.9-3.3,2.8-2.8,7.4-3,10.5-.4l2.2-2.3c-4.3-3.8-10.8-3.6-15,.5-4.2,4.1-2.5,3.4-2.9,5.5.4,2,1.4,3.9,2.9,5.5,2,2,4.6,3,7.2,3.2h1.2c2.6-.2,5.2-1.2,7.2-3.2h0c3-3,8-3,11,0,1,1,1.5,2,1.9,3.2h3.3c-.4-2-1.4-3.8-2.9-5.5M255.8,203.2c-1,0-1.8.7-1.8,1.8s.7,1.8,1.8,1.8,1.8-.7,1.8-1.8-.7-1.8-1.8-1.8"/>
            </g>
          </g>
        </g>
      </g>
    </g>
  </g>
</svg>