<?xml version="1.0" encoding="utf-8"?>
<!-- Generator: Adobe Illustrator 28.5.0, SVG Export Plug-In . SVG Version: 9.03 Build 54727)  -->
<svg version="1.1" id="Layer_1" xmlns="http://www.w3.org/2000/svg" xmlns:xlink="http://www.w3.org/1999/xlink" x="0px" y="0px"
	 viewBox="0 0 365 150" style="enable-background:new 0 0 365 150;" xml:space="preserve">
<style type="text/css">
	.st0{fill:#FFFFFF;}
</style>
<g>
	<path class="st0" d="M167.5,136.3c-5.4-0.3-10.8-0.3-16.1-0.9c-3-0.4-6-1.8-8.9-2.8c-1.9-0.7-3.9-1.5-5.6-2.5
		c-10.1-6.3-16.1-15.4-17.1-27.4c-0.4-5.3-0.1-10.7-0.2-16.1c-0.1-4.6-0.2-9.1-0.3-13.7c0-4.1,0.1-8.3,0.1-12.4
		c0-2.1-0.1-4.1-0.1-6.2c-0.1-7.9,1.3-15.6,5.4-22.5c2.2-3.7,5.3-6.8,8.9-9.5c4.4-3.4,9.2-5.5,14.4-6.9c2.9-0.8,6-0.9,9-1.4
		c1.8-0.2,3.6-0.8,5.4-0.6c4.5,0.3,9.1,1,13.6,1.5c6,0.6,11.4,3.1,16.1,6.7c2.9,2.2,5.4,5,7.6,7.9c2,2.6,3.7,5.5,4.8,8.5
		c1.2,3.4,1.9,7,2.2,10.6c0.5,5,0.6,10.1,0.7,15.1c0,2-0.5,4-0.5,5.9c0.1,8.3,0.5,16.6,0.5,24.9c0,7.2-0.7,14.4-4.1,20.8
		c-2.7,5.1-6,10.4-11.3,13.3C184.6,132.9,176.7,136.6,167.5,136.3z M165,117.6c3.2-0.9,6.5-1.7,9.7-2.7c6.2-2.1,10.2-6.6,11-12.9
		c0.9-6.8,0.8-13.7,0.9-20.6c0.1-5.4,0-10.7-0.1-16.1c-0.1-5.4-0.3-10.7-0.6-16.1c-0.6-9.2-7.7-14-15.1-15.6
		c-6.8-1.4-13.8-0.9-20.2,2c-4,1.7-7.5,4.6-8.7,9.1c-1.3,4.6-1.9,9.3-1.7,14.2c0.3,8.3-0.2,16.6-0.3,24.9c0,1.6,0.3,3.1,0.4,4.7
		c0.2,4.6-0.2,9.3,0.6,13.8c0.5,2.8,2.2,5.8,4.2,8C150.2,116,157.3,117.2,165,117.6z M128.5,103.7c-0.1,2.6,3.1,1.7,4.3,2.4
		c1.3-1.4,2.3-2.6,3.2-3.7c-0.4-1.3-0.8-2.9-1.3-4.7c-1.5,0.9-3.3,2.5-4.9-0.5c1.7-0.6,3.2-1.1,4.8-1.6c0-0.2-0.1-0.3-0.1-0.5
		c-0.7-0.1-1.4-0.2-2.2-0.3c0.4-0.7,0.6-1.2,1.1-2c-4.2,3-4.9,2.9-6.3-0.1c-0.4,1.1-0.4,2.3-0.4,3.4c0,0.7,0.4,1.8,0.1,2
		c-0.8,0.6-1.8,0.8-2.8,1c-0.3,0.1-0.8-0.3-1.1-0.5c-0.2,0.3-0.3,0.5-0.5,0.8C124.1,100.7,125.9,101.9,128.5,103.7z M134.7,68.6
		c-0.3,2.1-0.6,3.6-0.9,5.4c-0.9-0.6-1.5-1-1.8-1.2c-0.1,1.1-0.2,2.2-0.2,3.3c0,0.5-0.3,1.1-0.1,1.4c2.2,3.2-0.3,5.4-1.9,7.5
		c-1.3,1.7-1.1,3.3-1.1,5.1c0,0.4,0.8,1,1.3,1.1c1.4,0.1,4-2.7,4-4.1c-0.1-3.5,1.2-7.2-1.8-10.5c1.2,0.1,2,0.2,2.7,0.3
		c-0.2-0.2-0.4-0.4-0.6-0.6c0.3-1.2,0.7-2.4,1-3.6c0.1-0.4,0.3-0.9,0.2-1.3c-0.4-2.3-0.8-4.6-1.2-7.2c-2.6,1.4-4.8,2.7-7,3.9
		c1.4,0.7,2.2,1.1,2.9,1.4C131.6,69.2,133,69,134.7,68.6z M135.4,41.2c-0.7-0.6-1.2-1.1-1.8-1.4c-0.4-0.2-1.1-0.2-1.5,0
		c-0.4,0.3-0.8,0.9-0.8,1.4c0,1.5,2.3,3.8,3.7,3.6c0.6-0.1,1.4-0.6,1.5-1.1c0.5-1.2,0.6-2.5,1-4.3C136.7,40.1,136.2,40.6,135.4,41.2
		z M170.2,22.9c0.1,1.2,0.1,2.5,0.3,3.7c0.1,0.3,1.1,0.4,1.6,0.6c0.1-0.6,0.2-1.1,0.2-1.7c-0.1-0.7-0.3-1.5-0.6-2.2
		c-0.5-1.5-0.9-3.1-1.7-4.5c-0.2-0.3-1.9,0.3-3.6,0.6C168.1,20.9,169.2,22,170.2,22.9z M126.6,71.4c-0.2,0.4-1,1.3-0.8,1.8
		c0.8,2.1,1.9,4.1,2.8,6.2c1.7-0.8,2.3-3.4,0.9-4.8C128.6,73.8,127.8,72.8,126.6,71.4z M162.5,18.4c-0.1-0.2-0.1-0.3-0.2-0.5
		c-0.6,0.7-1.8,1.5-1.7,2c0.5,2.6-0.9,4-2.7,5.4c0.3,0.6,0.5,1.3,0.8,2c0.3,0.1,0.5,0.2,0.8,0.3c0.6-1,1.5-2,1.9-3.1
		C161.8,22.5,162.1,20.4,162.5,18.4z M127.1,59.1c0.4,0.3,0.7,0.5,1.1,0.8c1-1,2.1-2,3-3.2c0.1-0.2-0.7-1.1-1.2-1.8
		C128.9,56.5,128,57.8,127.1,59.1z M173.6,18.4c-0.9,4.5-0.3,5.2,2.8,4.7c0-0.8,0-1.5,0-2.7c-0.9,0.8-1.5,1.2-2.2,1.8
		C174,20.8,173.8,19.6,173.6,18.4z M125.5,61.2c-0.6,0.9-1.1,1.9-1.6,2.8c0,0,0.9,0.8,1.2,0.7C126.6,64.2,127.2,63.2,125.5,61.2z
		 M129.6,47.3c0.3,0.4,0.6,0.8,0.8,1.2c0.7-0.5,1.5-1,2.1-1.6c0,0-0.5-0.8-0.8-1.2C131.1,46.3,130.4,46.8,129.6,47.3z M128.6,111.5
		c-0.5,0.1-0.9,0.1-1.4,0.2c0.1,1.2,0.3,2.3,0.4,3.5c0.4,0,0.9-0.1,1.3-0.1C128.9,113.9,128.7,112.7,128.6,111.5z"/>
	<path class="st0" d="M42.6,59.9c7.1,0,13.8-0.1,20.5,0c10.5,0.2,20.2,2.7,28.3,9.7c4.1,3.6,6.5,8.4,8.6,13.4
		c2.1,4.9,1.7,9.9,2.2,14.9c0.6,5.8-1.6,11-3.5,16.3c-1.8,4.9-5.3,8.6-8.8,12.2c-1.6,1.6-3.6,2.9-5.6,4c-9.5,5.2-19.7,7-30.3,5.9
		c-6.4-0.7-12.7-2-18.6-5c-5.2-2.6-9.7-5.9-13.3-10.4c-2.9-3.6-4.9-7.6-6.3-12c-1.1-3.4-0.1-5.4,3.2-6.5c3.2-1.1,6.2-2.6,9.4-3.7
		c3.1-1.1,5.7-0.1,6.7,2.8c4,11.4,12.7,15.5,24,15.4c3.3,0,6.7-0.4,9.8-1.6c5.4-2,9-6,10.7-11.8c1.5-4.9,1.1-9.8-0.7-14.1
		c-2-5.1-6.3-8.9-12.2-9.4c-4.7-0.4-9.4-0.5-14.1-0.6c-6.4-0.2-12.9-0.3-19.4-0.4c-3.1-0.1-6.3,0-9.4-0.2c-2.7-0.2-4.3-2.7-4-5.4
		c0.6-5.4,1-10.7,1.5-16.1c0.2-2.1,0.6-4.3,0.9-6.4c0.9-7.4,1.7-14.8,2.6-22.2c0.2-2.1,0.4-4.1,0.6-6.2c0.2-2.5,1.8-4.7,4.2-5.3
		c2.1-0.5,4.3-1,6.4-1.1c5-0.1,10,0.2,15,0.3c3.2,0,6.5-0.2,9.7-0.2c4.1,0,8.1,0.2,12.2,0.2c5.1,0,10.3-0.1,15.4-0.1
		c0.1,0,0.2,0,0.2,0c9.4-0.2,9.1,1.1,9.4,9.8c0.1,1.8-0.4,3.6-0.4,5.4c0.1,2.1-0.9,3.1-2.8,3.5c-1.5,0.3-3.1,0.6-4.7,0.6
		c-8.2,0-16.4,0-24.5,0c-5.4,0-10.9,0.2-16.3,0.3c-0.1,0-0.2,0-0.2,0c-1.3,0.1-3.2-0.3-3.6,0.3c-0.9,1.3-1.1,3.1-1.3,4.7
		c-0.5,3.8-0.9,7.5-1.2,11.3C42.4,54.5,42.6,57,42.6,59.9z M61.7,124c0.6-1,1.2-2,1.8-3c-4.8,1-4.9,1.1-4.6,3.5
		C59.8,124.3,60.8,124.1,61.7,124c0,0.8,0,1.7-0.1,2.3c1.3,0.6,2.3,1,3.4,1.5c0.2-0.1,0.4-0.2,0.7-0.2c-0.4-1-0.5-2.2-1.2-2.9
		C63.9,124.1,62.7,124.2,61.7,124z M57.5,132.9c2.9-1.7,0.1-3.7,0.2-5.5c0-0.7-0.8-1.4-1.3-2.3c-2.1,2.9-2.1,2.9-4.4,2.7
		C53.8,129.5,55.6,131.2,57.5,132.9z M75.6,74.5c1.4,0.8,2.7,1.6,3.7,2.1c0-1.7,0-3.3,0-5c-0.7,0.2-1.7,0.6-2.7,0.9
		c-0.4-0.9-0.6-1.5-0.8-2.1c-0.2,0-0.4,0.1-0.7,0.1C75.3,71.9,75.4,73.2,75.6,74.5z M76.2,67.5c0.8,1.4,1.2,2.1,1.6,2.9
		c1.3-0.9,2.3-1.6,3.3-2.3c0-0.3-0.1-0.5-0.1-0.8C79.7,67.3,78.3,67.4,76.2,67.5z M91.5,105.3c1.7-0.7,2.9-1.1,4.3-1.7
		c-0.5-0.7-1.1-1.6-1.9-2.8C93,102.5,92.3,103.7,91.5,105.3z M49.3,68.3c-1.6,1.7-2.7,2.9-3.7,4c0.2,0.1,0.3,0.3,0.5,0.4
		c1.2-0.6,2.3-1.3,3.8-2.1C49.7,70.4,49.6,69.7,49.3,68.3z"/>
	<path class="st0" d="M246.2,133.9c-2.3-0.2-5-0.3-7.6-0.6c-2.3-0.2-3.2-1.5-2.1-3.6c1.4-2.6,3.2-5,4.9-7.5c2.9-4.1,6-8.2,8.9-12.2
		c3.6-4.9,7.3-9.8,10.9-14.8c4.8-6.5,9.6-13.1,14.4-19.7c4.2-5.6,8.5-11.1,12.7-16.6c1.2-1.7,2.2-3.5,3.4-5.2
		c5.8-8,11.7-16.1,17.6-24c2.8-3.8,5.4-7.9,8.7-11.2c1.6-1.6,4.7-2.2,7.2-2.4c3-0.4,6.1,0,9.2,0.2c2.8,0.1,3.9,2.1,2.4,4.4
		c-3.2,4.6-6.7,9-10,13.5c-1,1.3-1.8,2.8-2.8,4.1c-5.3,7.2-10.6,14.3-15.9,21.5c-2.9,3.9-5.5,8-8.5,11.9c-4,5.4-8.2,10.6-12.2,16
		c-3.3,4.4-6.5,8.9-9.8,13.4c-4.9,6.8-9.8,13.5-14.7,20.3c-2.2,3-4.4,6-6.6,9C253.9,134,250.2,133.8,246.2,133.9z M304.4,53.3
		c0.4-3.7,0.5-3.6,3.2-6.3c0.4-0.3,0.4-1.6,0.2-1.8c-1.3-1-2.8-1.7-4.8-2.9c0.6,2.1,1.5,3.7,1.2,4.8c-0.3,1.1-2,1.8-2.7,2.3
		C302.2,50.6,303.2,51.8,304.4,53.3z M315.4,38.4c0.2-0.1,0.6-0.3,0.7-0.5c0.1-0.3-0.2-0.9-0.4-1c-2.3-0.8-1.7-1.5,0-2.4
		c0.3-0.2,0.6-1,0.5-1.3c-0.1-0.5-0.7-1-1.1-1.1c-0.4-0.1-0.9,0.4-1.3,0.8c-0.4,0.4-0.5,1-0.8,1.5C312.1,35.9,313.4,38.2,315.4,38.4
		z M297,51.4c2.8,1.2,3.5,3,2.4,5.5c1-0.7,1.9-1.4,3.5-2.6C300.4,53.8,300.4,50.4,297,51.4z M269.9,98c-2.2-3.4-4.1,0.2-6-0.1
		C265.8,99.4,267.7,99.1,269.9,98z M308.1,42.5c2.6,4.8,2.6,4.8,4.5,3.9C309.9,46.3,311.6,42.1,308.1,42.5z M284.3,76.8
		c0,0.1,0.1,0.3,0.1,0.4c1.8,0.3,3.6,0.5,6.4,0.9c-0.7-1-1.2-2.1-1.6-2.1C287.6,76.1,285.9,76.5,284.3,76.8z M310.4,36.7
		c-1.4,1.5-2.7,2.8-4,4.1C310.6,39.7,311.8,38,310.4,36.7z M297.4,63c-1.3-1.3-4.2-1.4-3.1-4.5C292.3,61.4,293,62.4,297.4,63z
		 M270.1,89.8c-0.4,0.1-0.8,0.1-1.1,0.2c0.2,1.2,0.3,2.3,0.5,3.4c0.5-0.2,1.4-0.4,1.4-0.5C270.7,91.9,270.4,90.8,270.1,89.8z"/>
	<path class="st0" d="M251.5,74.3c-3.4-0.5-6.8-0.8-10.2-1.5c-9.5-1.8-17.1-10.8-17.3-20.4c-0.1-6.4-0.4-12.8,0.3-19.1
		c0.9-7.7,5-13.4,12.3-16.8c8.7-4.1,17.5-4,26.4-1.4c5.6,1.7,10.4,5,13.2,10.3c1.3,2.5,1.8,5.5,2.3,8.4c0.4,2.5,0.5,5,0.5,7.5
		c0,5,0.2,9.9-0.3,14.8c-0.4,3.7-2.5,6.9-5.2,9.7c-3.3,3.5-7,6.1-11.6,7.1C258.5,73.8,255.1,73.9,251.5,74.3z M239.6,42.4
		c0.3,3.4,0.4,6.7,1,9.8c0.8,4.5,4.4,6,8.4,7c6.7,1.6,13.7-3.3,13.8-10.1c0.1-3.6,0.1-7.1,0.1-10.7c-0.1-3.9-2.4-8-6.7-8.9
		c-1.9-0.4-4-0.6-5.9-0.4c-4,0.4-8,2-9.3,6C240.1,37.3,240,40,239.6,42.4z M229.3,36.7c1.7,1.8,0.8,2.9-1.1,4.1
		c1.3,0.4,2.4,0.5,3.6,0.4c0.2,0,0-1.3,0.2-2c0.2-0.6,0.5-1.5,1-1.7c2.4-1.1,1.4-2.2,0.5-3.2C231.9,35.1,230.7,35.9,229.3,36.7z
		 M233.6,57.9c0.2,0.1,0.5,0.1,0.7,0.2c1.5-2.1,3.4-4.1,1.7-7.6C235.1,53.3,234.3,55.6,233.6,57.9z M255.2,20.1
		c-0.9,2.1-1.6,3.6-2.3,5.2c2.1-0.1,3.3-1.4,3.7-3.2C256.7,21.6,255.7,20.8,255.2,20.1z M234.8,23.9c0.1,0.3,0.1,0.6,0.2,1
		c2-0.3,4-0.7,5.9-1c0-0.2-0.1-0.4-0.1-0.6C238.9,23.4,236.6,21.6,234.8,23.9z M245.7,22.6c0,0.2,0,0.5,0,0.7c0.6,0,1.3,0.3,1.7,0.1
		c1.1-0.8,0.7-3.3-1.1-4.8c0.3,1.1,0.7,2.2,1,3.3C246.7,22.1,246.2,22.4,245.7,22.6z"/>
	<path class="st0" d="M349.7,106.2c-0.7,5.1-1,10.3-2.2,15.4c-1,4.2-3.9,7.5-7.5,9.9c-6.2,4.2-13,5.6-20.4,4.4
		c-2.8-0.4-5.6-0.5-8.3-1.1c-9.5-2.1-14.8-8.3-16.8-17.5c-0.5-2.2-0.7-4.5-0.5-6.7c0.6-6.5-0.4-13.1,1.6-19.6
		c1.4-4.6,4.1-8,7.8-10.6c6.9-4.7,14.5-5.7,22.7-4.8c5.7,0.6,10.7,2.6,15.3,5.9c3.5,2.5,5.4,6,6.2,9.8
		C348.8,96.2,349.1,101.2,349.7,106.2z M333.5,106.7c-0.3-3.1-0.5-5.6-0.8-8.2c-0.5-3.2-2.2-6-5.3-6.6c-3.5-0.7-7.3-0.8-10.8-0.2
		c-3,0.5-6.3,3.6-6.4,7.4c-0.1,3.9,0,7.8,0,11.7c0,6.8,3.8,9.8,9.1,10.4c5.7,0.7,12-1,13.2-7.3C333.1,111.4,333.3,108.8,333.5,106.7
		z M300.8,101.4c1,0.6,1.6,1,2.2,1.3c0-1.3,0-2.5,0-3.7c-1.9,0.7-3.5,1.3-5,2c-0.3,0.2-0.7,1.1-0.5,1.4c0.3,0.6,1,0.9,1.6,1.3
		C299.8,102.9,300.3,102.1,300.8,101.4z M299.6,94.1c-0.4,2-0.8,3.7-1.1,5.4C301.8,98.7,302.1,97.6,299.6,94.1z M302.7,124.3
		c-0.5-1.4-0.9-2.4-1.3-3.5c-1,3.2,1.2,4,3.7,5.1c0.1-1,0.2-2,0.3-3.4C304.2,123.2,303.7,123.6,302.7,124.3z M314.4,125.7
		c0.2,0.1,0.3,0.2,0.5,0.3c0.4-0.7,1.3-1.5,1.2-2.2c-0.1-0.6-1.3-1.4-1.9-1.4c-0.7,0-1.4,0.9-2.1,1.4c0.2,0.2,0.3,0.4,0.5,0.6
		c0.8-0.3,1.5-0.6,2.8-1C314.9,124.6,314.7,125.2,314.4,125.7z M306,95.1c1.4-2.7,1.2-3.2-2.6-4.6C304.4,92.2,305.1,93.5,306,95.1z
		 M320.1,131.7c0.2-0.2,0.3-0.3,0.5-0.5c-0.8-0.7-1.4-1.8-2.3-2.2c-0.9-0.4-2.1-0.1-3.6-0.1C316.8,130.1,318.4,130.9,320.1,131.7z
		 M335.4,120.6c-2.5,1.4-2.6,2.4-0.6,4.1C335,123.4,335.1,122.2,335.4,120.6z"/>
</g>
</svg>
