<?xml version="1.0" encoding="utf-8"?>
<!-- Generator: Adobe Illustrator 28.5.0, SVG Export Plug-In . SVG Version: 9.03 Build 54727)  -->
<svg version="1.1" id="Layer_1" xmlns="http://www.w3.org/2000/svg" xmlns:xlink="http://www.w3.org/1999/xlink" x="0px" y="0px"
	 viewBox="0 0 365 150" style="enable-background:new 0 0 365 150;" xml:space="preserve">
<style type="text/css">
	.st0{fill:#FFFFFF;}
</style>
<g>
	<path class="st0" d="M33.4,75c-3-2.5-6.2-4.6-8.7-7.4c-6.3-7.3-8.3-15.9-7.2-25.5c0.5-4.3,1.9-8.4,3.9-11.9
		c1.9-3.5,5.2-6.3,8.4-8.8c2.7-2.1,6-3.7,9.2-4.7c4.2-1.3,8.7-1.8,13.1-2.7c5.8-1.1,11.6-0.4,17.4,0.2c8.5,0.8,16.2,3.6,22.3,9.6
		c4.6,4.6,7.2,10.2,7.8,17c1,10.3-2.1,18.8-9.3,25.9c-2,1.9-4.5,3.4-7.1,5.3c1,0.5,1.6,0.9,2.2,1.2c7,3.5,13.2,8.1,15.9,15.6
		c1.8,5,2.5,10.3,2.1,15.9c-0.5,5.5-1.8,10.5-4.7,15.2c-2.8,4.5-6.5,7.9-11.2,10.3c-8.4,4.4-17.4,5.8-26.7,5.7
		c-5.8-0.1-11.6-0.1-17.4-0.8c-7.2-0.9-14.2-3.2-19.9-7.7c-5.9-4.6-8.6-11.2-9.8-18.7c-0.7-4.9-0.5-9.6,1.2-13.9
		C16.5,91,18.7,87,21.5,84c3-3.3,7.2-5.5,10.9-8.1C32.9,75.5,33.3,75.1,33.4,75z M59,118.5c3.1-0.3,6.3-0.4,9.4-1.1
		c2.7-0.6,5.6-1.5,7.7-3.2c4.4-3.6,6.4-8.6,5.5-14.4c-0.8-5.3-3.5-9.3-8.5-11.2c-5.2-1.9-10.5-3.4-15.7-5.1c-3.9-1.3-7.3-1-11.2,0.7
		c-9.6,4.1-13.2,14.5-10.6,23.6c0.6,2.1,2.2,4.2,3.9,5.5C45.2,117.7,52,118.7,59,118.5z M79.2,47.4c0.2-7.7-4.4-13.8-11.2-14.8
		c-6.1-1-12.3-1.4-18.5,0.2c-7.8,2-13.2,9.9-11.1,17.6c1.1,4.2,3.4,7.6,7.8,9.7c4.5,2.1,9.3,3,13.8,4.5c4.6,1.6,8.1,0.3,11.5-2.2
		C76.7,58.5,80.2,53.7,79.2,47.4z M85.7,38c-0.1,0.2-0.2,0.4-0.3,0.6c-0.4,0.1-0.8,0-1.1,0.2c-0.6,0.4-1.1,0.9-1.5,1.4
		c-0.1,0.1,0.3,0.8,0.5,0.7c0.7-0.1,1.3-0.3,1.9-0.6c1.1-0.5,2.2-1,3-1.3c-0.3-1.5-0.7-3.1-1.1-4.7c-0.1-0.3-0.3-0.6-0.6-0.8
		c-1.2-0.7-0.9-1.9-1.2-2.8c-0.4-1.2-2.1-2.6-3.5-2.8c-1.9-0.3-1.2,1.2-0.9,2.4c0.2,0.6-0.2,1.3-0.3,1.9c-0.4,2.1,0.3,3.4,2.5,4.1
		C84.1,36.6,84.9,37.5,85.7,38z M80.1,76.7c0.3-0.3,0.6-0.5,0.9-0.8c-1.3-1.6-2.7-3.2-4.3-5.1c1.2-2.1,2.9-4.6,0.4-7.8
		c-0.2,1.2-0.3,2.3-0.5,3.4c-0.2,0.1-0.4,0.2-0.6,0.3c-0.6-1.1-1.2-2.3-1.9-3.4c-0.2,0.1-0.3,0.1-0.5,0.2c0.1,0.9,0.2,1.8,0.4,2.8
		c-0.3,0.1-0.7,0.2-1.4,0.3c0.6,0.4,1,0.6,1.3,0.8c0.4,0.2,0.9,0.4,1.3,0.5c-0.4,2.9-0.6,3-3,1.8c-0.5-0.2-1-0.3-1.4-0.6
		c-1.6-1.5-2.4-0.5-3.3,1.3c1.7,0.2,3.2,0.3,4.7,0.5c-0.5,4,0.2,6.7,2.1,7.2c-1.4-2.2-1.4-4.3,0.1-6.1
		C76.4,73.6,78.3,75.1,80.1,76.7z M89.1,59.2c-1-5-2.2-9.8-6.3-13.7c1.6,4.7,3.1,9.1,4.6,13.6C87.7,59.1,88.5,59.1,89.1,59.2z
		 M56.5,20.4c-3.9,0.8-5.1,3.8-3.8,7.6C54.1,25.3,55.3,22.9,56.5,20.4z M70.7,82.5c0.1,0.1,0.2,0.2,0.3,0.3c1.2,0,2.5,0.1,3.7,0
		c0.9-0.1,1.7-0.5,2.5-1c0.3-0.2,0.3-0.9,0.2-1.3c-0.1-0.2-0.7-0.6-0.9-0.5C74.6,80.7,72.6,81.6,70.7,82.5z M86.5,61.5
		c-2-1.6-3.5-1.1-4.6,1.1C84.3,64.3,84.6,64.2,86.5,61.5z M45.6,25.6c0.2,0.1,0.4,0.1,0.7,0.2c0.6-1.3,1.2-2.6,1.6-4
		c0.1-0.4-0.4-0.9-0.7-1.4c-0.4,0.3-1,0.6-1.1,1C45.9,22.8,45.8,24.2,45.6,25.6z"/>
	<path class="st0" d="M169.7,136.2c-5.3-0.3-10.6-0.3-15.8-0.9c-3-0.4-6-1.7-8.9-2.8c-1.9-0.7-4-1.3-5.6-2.6
		c-3.5-2.7-7.5-5.2-10.1-8.8c-3.8-5.3-7-11.1-7.1-18c-0.1-6.1-0.1-12.2-0.2-18.3c-0.1-6.9-0.3-13.8-0.4-20.6c-0.1-8-0.5-16,1.7-23.8
		c1.4-4.8,3.5-9.4,7.1-13.3c5.6-6,12.3-10,20.2-11.9c2.9-0.7,5.8-0.9,8.8-1.3c1.9-0.3,3.8-0.8,5.7-0.6c4.5,0.3,8.9,1,13.3,1.5
		c6.1,0.6,11.5,3.1,16.3,6.8c2.8,2.2,4.9,5.2,7.6,7.7c2.6,2.4,3.6,5.6,4.7,8.6c1.2,3.2,1.9,6.7,2.2,10.2c0.5,4.9,0.6,9.8,0.6,14.7
		c0,8.3-0.2,16.6-0.3,24.9c0,2.1,0.3,4.1,0.3,6.2c0.1,7.3-0.4,14.7-3.8,21.1c-3.2,5.9-6.9,11.4-13.5,14.7
		c-5.1,2.5-10.3,4.5-15.7,5.8c-2.2,0.5-4.6,0.3-6.9,0.5C169.7,136,169.7,136.1,169.7,136.2z M167.4,117.5c3.2-0.9,6.5-1.6,9.7-2.8
		c6.4-2.3,10.2-7,11-13.7c0.5-4,0.5-8.1,0.6-12.1c0.2-8.6,0.5-17.2,0.4-25.8c0-5.2-0.6-10.4-1.1-15.6c-0.4-4-2.6-7.1-5.6-9.6
		c-3.6-3-7.9-4.2-12.6-4.8c-6-0.7-11.7,0-17,2.4c-3.1,1.4-6.4,4.2-7.9,7.2c-1.9,3.7-2.4,8.3-2.7,12.6c-0.3,5.3,0.3,10.7,0.3,16.1
		c0,4.3-0.4,8.6-0.5,12.9c0,1.4,0.4,2.8,0.4,4.2c0.1,4.5-0.3,9.2,0.5,13.6c0.5,2.8,2.2,5.8,4.1,8
		C152.5,115.9,159.7,117.2,167.4,117.5z M125.1,98.4c0.2,2,3.4,4.3,5.8,4.3c-0.1,3.4,2.9,2.8,5.1,3.7c-0.4-2.5,0.9-3.5,3.5-4.1
		c-3.6-0.5-0.9-3.4-2.3-4.7c-3.4,1.7-3.4,1.7-4.9-0.7c0.8-0.2,1.6-0.5,2.4-0.7c0.7-0.2,1.4-0.5,2.8-1c-1.5-0.6-3.4,0.1-2.2-2.2
		c-3.4,2.5-4.5,2.3-5.2-0.7c-1.6,1-1.4,2.2-0.8,3.7c0.2,0.6,0.4,1.6,0.1,1.9c-0.7,0.6-1.7,1-2.6,1.2
		C126.2,99.2,125.7,98.7,125.1,98.4z M134.3,72.8c-0.1,1.1-0.1,2.2-0.2,3.3c0,0.5-0.3,1.1-0.1,1.4c2.2,3.2-0.7,5.1-1.7,7.6
		c-0.6,1.5-1.1,3-1.3,4.5c-0.1,0.4,1.3,1.6,1.4,1.5c1.4-1,3.5-1.9,3.7-3.2c0.6-2.7,0.3-5.6,0.1-8.4c-0.1-1-0.8-1.9-1.3-3
		c0.9,0.1,1.5,0.2,2,0.3c0-0.5-0.1-1-0.1-1.4c0.1-0.8,0.3-1.7,0.4-2.5c0.1-0.6,0.5-1.3,0.4-1.8c-0.3-2.3-0.7-4.5-1.1-6.9
		c-2.6,1.4-4.8,2.6-6.9,3.7c2.3,2.4,4.8,0.4,7.1,1.1c-0.3,1.7-0.5,3.3-0.8,5C135.1,73.4,134.5,73,134.3,72.8z M137.8,41.2
		c-0.6-0.6-1.1-1.1-1.7-1.4c-0.4-0.2-1.2-0.3-1.5-0.1c-0.4,0.3-1,1.2-0.8,1.5c0.6,1.1,1.2,2.4,2.2,3.1c1.7,1.2,2.8,0.5,3.2-1.6
		c0.2-1,0.5-1.9,1-3.7C139.1,40.1,138.6,40.5,137.8,41.2z M172.3,22.6c0.3,1.7,0.3,2.9,0.6,4c0.1,0.3,0.9,0.4,1.4,0.5
		c0.1-0.4,0.5-0.9,0.4-1.3c-0.3-1.3-0.6-2.5-1-3.7c-0.4-1.1-0.6-2.5-1.3-3.3c-0.4-0.4-1.9,0.2-3.8,0.4
		C170.3,20.8,171.5,21.9,172.3,22.6z M127.9,72.1c1,2.6,2,4.9,3,7.4c1.1-0.5,2.3-0.9,1.4-2.7c-0.9-1.8-1.8-3.6-2.8-5.7
		C128.8,71.5,128.2,71.9,127.9,72.1z M164.8,18.1c-1.1,0.3-2.3,0.2-2,2.3c0.2,1.2-0.6,2.8-1.4,3.7c-1.1,1.1-1.4,1.9-0.3,3.1
		c1.6-0.3,2.5-1.1,2.7-3C163.9,22.2,164.4,20.2,164.8,18.1z M129.4,59c0.3,0.3,0.7,0.6,1,0.9c1.1-1,2.2-2,3.2-3.1
		c0.2-0.2-0.7-1.2-1.1-1.9C131.3,56.4,130.3,57.7,129.4,59z M176.5,22c-0.2-1.4-0.4-2.6-0.6-3.7c-0.7,4.7-0.3,5.1,3,4.7
		c-0.1-0.7-0.2-1.5-0.4-2.5C177.7,21.1,177.2,21.5,176.5,22z M128.5,61.4c-1.5,0.2-2.7,0.7-2.3,2.5c0.1,0.3,0.9,0.9,1.2,0.7
		C129,64.1,129.3,63,128.5,61.4z M183.1,27c0.1-0.2,0.3-0.4,0.4-0.7c-0.6-1.2-1.2-2.4-1.9-3.6c-0.6,0.9-0.9,1.9-0.5,2.7
		C181.5,26.2,182.5,26.5,183.1,27z M201,46.2c0.8-2.4,0.2-3.3-2.3-3.8C199.6,43.8,200.3,45,201,46.2z"/>
	<path class="st0" d="M248.6,133.9c-2.5-0.2-5.2-0.3-7.9-0.6c-2.3-0.2-3.1-1.5-2-3.6c1.2-2.3,2.7-4.5,4.3-6.7
		c3.2-4.5,6.6-9,9.8-13.5c5.5-7.4,10.9-14.8,16.4-22.2c5.3-7,10.6-14,15.9-21.1c3.5-4.7,6.7-9.7,10.2-14.4c3.6-4.9,7.3-9.6,11-14.4
		c1-1.3,1.8-2.6,2.7-3.9c3.6-4.9,7.2-9.7,10.7-14.6c1.9-2.7,4.9-2.6,7.6-2.9c3.1-0.3,6.3,0.1,9.5,0.2c2.7,0.1,3.9,2.2,2.3,4.4
		c-3.3,4.6-6.7,9-10.1,13.5c-1,1.4-1.9,2.9-2.9,4.3c-5.2,7.1-10.4,14.1-15.6,21.2c-2.7,3.7-5.3,7.6-8.1,11.3
		c-4.2,5.6-8.6,11.2-12.8,16.8c-3.3,4.4-6.5,8.9-9.7,13.3c-4.9,6.8-9.8,13.6-14.7,20.3c-2.2,3.1-4.5,6.1-6.7,9.2
		C256,134,252.3,133.7,248.6,133.9z M305.7,45.7c-1.1,0-1.8,0-2.6,0c0,0.3,0,0.6,0,0.8c1-0.1,2-0.1,3.1-0.2c1.7,3.4-2.5,1.7-2.6,3.1
		c0.8,0.7,1.2,1.4,1.8,2.1c0.3,0.4,0.8,0.7,1.1,1.1c0.2-0.5,0.4-0.9,0.5-1.4c0.3-1.7,0.2-3.7,2.6-4.2c0.3-0.1,0.7-2,0.3-2.3
		c-1.1-0.9-2.6-1.5-4.1-2.3C305.7,43.8,305.7,44.6,305.7,45.7z M318.5,37.5c-2.4-1.9-2.4-1.9,0.7-4.1c-1-0.6-1.8-1-2.5-1.5
		c-0.5,1.5-1.6,3-1.5,4.4C315.4,38.1,317.3,38.5,318.5,37.5z M299.3,51.3c2.7,1.2,3.2,3.1,1.7,6.1c1.7-1.2,2.6-1.9,4-2.9
		C302.8,53.6,302.7,50.3,299.3,51.3z M265.8,97.1c1.5,2.3,3.9,2.2,6.2,0.6C270.2,94.4,268.2,98.1,265.8,97.1z M310.4,42.5
		c2.6,4.9,2.6,4.9,4.4,3.7C312.1,46.3,313.9,41.9,310.4,42.5z M308.7,40.6c0.3,0.3,0.6,0.6,1,0.9c1.3-1.4,2.7-2.7,4-4.1
		c0-0.1-0.6-0.7-0.7-0.8C311.3,38.1,310,39.3,308.7,40.6z M293,78c-0.5-1-0.9-2.1-1.2-2.1c-1.8,0.1-3.5,0.5-5.3,0.8
		c0,0.1,0.1,0.2,0.1,0.3C288.5,77.4,290.3,77.6,293,78z M296.9,58.5c-0.3,0-0.7-0.1-1-0.1c-0.1,0.9-0.7,2.3-0.3,2.7
		c1,1,2.4,1.6,3.6,2.3c0.2-0.2,0.4-0.5,0.6-0.7C298.7,61.4,295.2,61.7,296.9,58.5z M297.2,56c0.4,1.6,0.6,2.7,0.9,4
		C300.2,58.1,300.1,57.3,297.2,56z M272.6,89.9c-0.4,0-0.8,0.1-1.2,0.1c0.1,1.1,0.2,2.2,0.2,3.3c0.5-0.1,1.5-0.2,1.5-0.3
		C273,92,272.8,90.9,272.6,89.9z"/>
	<path class="st0" d="M325.8,136.7c-4.7-0.8-10.3-0.9-15.2-2.6c-6.7-2.3-11.8-7.5-13.1-14.6c-1.9-9.7-1.7-19.6,0.9-29.3
		c1.1-4.3,4-7.2,7.5-9.7c6.9-4.8,14.5-5.7,22.7-4.8c5.5,0.6,10.2,2.4,14.7,5.5c4,2.8,6,6.7,7.1,11.2c1.9,7.6,1.3,15.4,0.8,23
		c-0.7,9.6-6.1,16-14.9,19.3C333.2,135.8,329.8,136,325.8,136.7z M312.6,110.2c-0.1,0-0.2,0-0.2,0.1c0.4,1.8,0.5,3.8,1.3,5.5
		c1.4,3.4,4.4,5,7.9,5.4c5.8,0.7,12.5-0.9,13.6-7.9c0.9-5.4,0.9-10.8-0.6-16c-0.6-2.1-2.8-4.6-4.8-5.2c-3.4-0.9-7.3-0.9-10.8-0.3
		c-3.1,0.5-6.3,3.5-6.4,7.4C312.6,102.7,312.6,106.4,312.6,110.2z M303,101.2c0.9,0.6,1.5,1.1,2.2,1.5c0-1.3,0-2.5,0-3.6
		c-1.9,0.7-3.5,1.2-5.1,1.9c-0.3,0.1-0.4,1.2-0.2,1.5c0.3,0.6,1.1,0.9,1.6,1.4C302,103,302.5,102.1,303,101.2z M300.7,99.3
		c0.2,0.2,0.3,0.4,0.5,0.6c0.8-0.9,2.1-1.7,2.3-2.7c0.2-0.9-0.9-2-1.5-3.3C301.5,96,301.1,97.6,300.7,99.3z M305.1,124.2
		c-0.6-1.2-1.1-2.4-1.7-3.8c-0.6,2.8-0.3,3.2,4,5.3c0.1-1,0.2-1.9,0.4-3.4C306.6,123.1,306,123.6,305.1,124.2z M308.4,94.9
		c1.2-2,0.6-3.8-1.4-4.3c-0.3-0.1-0.8,0.1-0.8,0.2c-0.1,0.3-0.1,0.8,0.1,1C306.8,92.8,307.6,93.8,308.4,94.9z M316.6,125.6
		c0.2,0.1,0.4,0.3,0.6,0.4c0.5-0.7,1.4-1.5,1.3-2.2c-0.1-0.6-1.3-1.4-1.9-1.4c-0.8,0-1.5,0.9-2.3,1.3c0.1,0.2,0.3,0.4,0.4,0.7
		c0.8-0.3,1.7-0.5,3.1-1C317.2,124.5,316.9,125.1,316.6,125.6z M317.4,129.2c1.7,0.8,3.4,1.7,5.1,2.5
		C321.8,129,320.2,128.2,317.4,129.2z"/>
	<path class="st0" d="M253.7,74.3c-3.2-0.5-6.7-1-10.1-1.4c-7.7-0.8-17.8-10.5-17.4-21.2c0.2-6.6-0.3-13.2,0.6-19.6
		c1-7.1,5.3-12.3,12.1-15.5c8.7-4.1,17.5-3.9,26.4-1.3c5.6,1.7,10.4,5,13.2,10.3c1.3,2.4,1.9,5.2,2.2,8c0.5,3.7,0.9,7.6,0.6,11.3
		c-0.3,5.5,0.7,11.2-2.2,16.3c-3.7,6.5-9,10.9-16.6,12.2C259.8,73.7,256.9,73.9,253.7,74.3z M242,42.6c0.2,3,0.2,6.2,0.8,9.3
		c0.9,4.5,4.2,6.2,8.4,7.2c6.7,1.6,13.6-3.2,13.8-10c0.1-3.6,0.2-7.3,0.1-10.9c-0.2-4.1-2.4-7.9-6.8-8.8c-2-0.4-4.1-0.5-6.2-0.4
		c-4.1,0.1-8.1,2.8-9.3,6.7C242.2,37.8,242.3,40.2,242,42.6z M231.6,36.6c0.9,1.2,1.7,2.4-0.4,3.2c-0.2,0.1-0.2,0.8-0.3,1.2
		c1.1,0.1,2.1,0.2,3.1,0.1c0.2,0,0.2-1,0.4-1.6c0.3-0.8,0.4-1.9,0.9-2.2c2.3-1.1,1.3-2.2,0.5-3.2C234.4,35,233.1,35.7,231.6,36.6z
		 M255.3,25.2c1.9,0,3.2-1.3,3.6-3.1c0.1-0.5-0.9-1.3-1.4-2.1C256.6,22.1,255.9,23.6,255.3,25.2z M239.2,51.3
		c-0.4-0.1-0.9-0.2-1.3-0.3c0.2,2.5-2.4,4.3-1.6,6.9c0.3,0.1,0.6,0.2,0.9,0.2C237.9,55.9,238.5,53.6,239.2,51.3z M237.1,23.9
		c0.1,0.3,0.2,0.6,0.2,0.9c1.9-0.4,3.9-0.7,5.8-1.1C241.1,23.4,238.7,21.4,237.1,23.9z M261.7,22.2c0.3,1.8,0.4,2.9,0.6,4.6
		c0.7-0.7,1.8-1.6,1.7-1.8C263.6,24.1,262.8,23.4,261.7,22.2z M249.3,18.3c-0.3,0.1-0.5,0.1-0.8,0.2c0.3,1.1,0.7,2.2,1,3.4
		c-0.6,0.3-1.1,0.5-2.4,1.1c1.2,0.3,2.1,0.7,2.3,0.5C251.2,21.6,249.7,20,249.3,18.3z"/>
</g>
</svg>
