<?xml version="1.0" encoding="utf-8"?>
<!-- Generator: Adobe Illustrator 28.5.0, SVG Export Plug-In . SVG Version: 9.03 Build 54727)  -->
<svg version="1.1" id="Layer_1" xmlns="http://www.w3.org/2000/svg" xmlns:xlink="http://www.w3.org/1999/xlink" x="0px" y="0px"
	 viewBox="0 0 1920 163" style="enable-background:new 0 0 1920 163;" xml:space="preserve">
<style type="text/css">
	.st0{clip-path:url(#SVGID_00000076595768849708817880000008333813309982671241_);}
	.st1{fill:#46B2F0;}
</style>
<g>
	<g>
		<defs>
			<rect id="SVGID_1_" x="-7" width="1928" height="199"/>
		</defs>
		<clipPath id="SVGID_00000018230992793663791230000008961972041540774548_">
			<use xlink:href="#SVGID_1_"  style="overflow:visible;"/>
		</clipPath>
		<g style="clip-path:url(#SVGID_00000018230992793663791230000008961972041540774548_);">
			<path class="st1" d="M2008.4,106.4c-4.9-0.6-2.8-2.8-0.1-4.2c0.9-0.5,2.1-0.1,2.6-0.2s0.3-0.1,0.4,0c1.8,0.3,1.7,1.4,3.7,1.6
				c0.9-0.8,2.9-0.8,4.3-1c-0.1,0.2-0.2,0.5-0.4,0.7c-0.5,0.8-1,1.5,0,2.2c0.1,0.1,0.2,0.1,0.4,0.2c1.9,0.5,4,0.5,6.1,0.5
				c0.8,0,1.7-0.1,1.9-0.7l0,0c0,0,0,0,0-0.1c-0.1-0.3-1.3-0.6-2-0.6s-2.4,0.1-2.9-0.1c-0.5-0.3,0.1-0.6,0.4-1.1s0.9-1.5-0.2-1.9
				s-2,0.1-2.8-0.6c-0.1-0.1,0.3-0.1,0.2-0.2c-1.2-1.4-7-0.5-7.7-0.1c-0.1,0.1-0.2,0.1-0.2,0.1c-0.4,0.1-0.5,0-0.8,0
				c-1.4,0-2.8,0.1-4.2,0.3c0.1-0.1,0.1-0.1,0.2-0.2c-13.1-1.1-26.4-1.3-38.5,2.6C1972.3,112.7,1997.8,108,2008.4,106.4z"/>
			<path class="st1" d="M2036.5,103.9c0.3,0,0.6-0.1,0.9,0c1.9,0.5,4.2,0.5,3,2.1c4.2,0.1,6.9-1.5,11.3-1.2c-0.4-1,0-2.2-1.5-2.8
				c-5.1,1.1-8.5-1.5-12.8,1.2c-0.3,0-0.6,0-0.9,0s-1,0.1-1,0.4C2035.6,103.9,2036.2,103.9,2036.5,103.9z"/>
			<path class="st1" d="M1921.2,91.3c-6.3-4.6-14.7-4.9-23.8-4.2c0,1-0.5,1.7-1.7,2.2c3.4,0.2,4.9,1.5,7.9,2.1
				C1909.5,90.1,1915.2,92.6,1921.2,91.3z"/>
			<path class="st1" d="M1409.9,86.6c3.4,0,6.8-0.1,10.1-0.1C1416.7,86,1413.3,85.5,1409.9,86.6z"/>
			<path class="st1" d="M1216.4,86.3c0.7,0.1,1.3-0.1,1.4-0.6c0.1-0.6-0.4-1-1.3-1.2c-0.7,0-1.3,0.2-1.4,0.7
				C1214.9,85.8,1215.6,86.2,1216.4,86.3z"/>
			<path class="st1" d="M1213.1,77.9c-1.4,0-1.4,1.1-1.6,1.9c0.9,0,1.8,0,2.7,0C1213.9,79.1,1214.9,77.9,1213.1,77.9z"/>
			<path class="st1" d="M1403.6,86.8c0.3,0,0.6-0.3,0.8-0.4c-0.4-0.4-1.1-0.4-1.7-0.3c-0.4,0-1.1,0.3-1.1,0.3
				C1402,87,1402.9,86.8,1403.6,86.8z"/>
			<polygon class="st1" points="1214.7,80 1214.2,79.8 1214.5,80.1 			"/>
			<polygon class="st1" points="1213.4,82.6 1212.9,82.4 1213.2,82.7 			"/>
			<path class="st1" d="M1006.7,77.2c-0.9,0.3-1.8,0.6-2.7,0.9c0.6,0.7,1.6,0.8,2.7,0.8C1006.7,78.4,1006.7,77.8,1006.7,77.2z"/>
			<path class="st1" d="M1007,79.3c0.3,0.2,0.7,0.2,1.1,0.3c0.1,0,0.2-0.2,0.3-0.3c-0.4-0.1-0.7-0.2-1.1-0.3
				C1006.6,78.8,1006.5,79,1007,79.3z"/>
			<path class="st1" d="M996,79.9c0.4,0,0.9,0,1.3,0C996.9,79.3,996.5,79.3,996,79.9z"/>
			<polygon class="st1" points="997.9,80.1 997.4,79.9 997.7,80.3 			"/>
			<polygon class="st1" points="1007,81.1 1006.7,81.5 1007.3,81.3 			"/>
			<path class="st1" d="M2068.1,247.4c3.2,0.6,6.3,0.1,9.6,0.4C2078.3,245.8,2069.7,246.6,2068.1,247.4z"/>
			<path class="st1" d="M2021.1,81.8c0.1-0.4,0.2-0.8,1.4-0.7c-0.2-0.8-0.5-1.6-3-1.3C2019.9,80.6,2019.4,81.7,2021.1,81.8z"/>
			<path class="st1" d="M2026.9,79.7c-0.1,0.4-0.2,0.8-1.4,0.7c0,0.5,0,0.9,0.1,1.4C2029.2,82.8,2029.7,79.4,2026.9,79.7z"/>
			<path class="st1" d="M2071.4,90.9c-2.2,0.1-5.4-0.2-5.8,0.7C2067.5,92.5,2071,92.4,2071.4,90.9z"/>
			<path class="st1" d="M2052.4,92.4c-2.3,0.1-5.1-0.1-4.3,1.4C2050.6,93.8,2051.8,93.3,2052.4,92.4z"/>
			<path class="st1" d="M2085.3,108.4c0.1-2.3,2.8-3.6-1.7-4.8C2084.6,105.1,2082,108.2,2085.3,108.4z"/>
			<path class="st1" d="M2056.1,242.2c0.1-1.1,3.7-0.6,2.8-2.1C2055.9,239.5,2052.5,241.9,2056.1,242.2z"/>
			<path class="st1" d="M2003.8,350.2c5.4,1.4,6.4-3.5,1.3-2.7C2005.3,348.7,2004.9,349.6,2003.8,350.2z"/>
			<path class="st1" d="M1999.4,350.3c-0.1-0.9,0.6-1.5,1.4-2c-2.4,0-4.9,0-7.3,0.1C1993.1,350.1,1995.6,350.5,1999.4,350.3z"/>
			<path class="st1" d="M2065.7,359.2C2060.1,357.4,2059.4,361.8,2065.7,359.2L2065.7,359.2z"/>
			<path class="st1" d="M1814.4,405.8c0.5-2.1-7.2-2.7-7.3-0.6C1811.6,404.8,1811,407.5,1814.4,405.8z"/>
			<path class="st1" d="M1657.9,413.3c0,0.7,0.1,1.4,0.1,2C1662.3,416.3,1662.2,412.3,1657.9,413.3z"/>
			<path class="st1" d="M1663.9,414.6c-0.4,0.9-2,1.3-1.3,2.7c1.5,0,2.9,0,4.4,0C1667.3,415.8,1666.4,414.8,1663.9,414.6z"/>
			<path class="st1" d="M1740.2,417.3c-0.4,0.9,1,2.7,1.5,1.3C1742,417.8,1740.7,416,1740.2,417.3z"/>
			<path class="st1" d="M1810.6,420.8c4.6,0.3,5.9-0.9,7.2-2.1C1812.9,418.2,1813.1,420.1,1810.6,420.8z"/>
			<path class="st1" d="M1869.2,419.6c0.9,0,1.7,0.1,1.5,0.7c1,0,1.9,0,2.9,0C1875.8,418.5,1868.5,418.2,1869.2,419.6z"/>
			<path class="st1" d="M2067,419.8c2.4,0,4.9,0,7.3-0.1c0-0.4,0-0.9-0.1-1.4C2072.5,416.6,2068.6,419.3,2067,419.8z"/>
			<path class="st1" d="M1826.9,423.4C1817.4,422.7,1823.7,425.5,1826.9,423.4L1826.9,423.4z"/>
			<path class="st1" d="M2075.9,423.8c3.6-0.5,6.2,2.9,8.8,0.6c-3.5-0.2-3.4-2.1-6-2.7C2078.5,422.7,2076.4,422.9,2075.9,423.8z"/>
			<path class="st1" d="M2084.7,422.4c0.4,2.3,9.2,2.5,8.8-0.1C2088.4,421.8,2087.3,423.6,2084.7,422.4z"/>
			<path class="st1" d="M1988.2,426.6c-1.3,1.2,5.4-0.3,4.4-0.7C1991.3,425.4,1988.4,426.5,1988.2,426.6z"/>
			<path class="st1" d="M2002.9,428.6c3.6-0.9,6.2,1.9,7.3-0.1C2009.3,428.1,2003.2,427,2002.9,428.6z"/>
			<path class="st1" d="M2046.2,85c1.3-1.9-8.3-1.9-7.4-1.3C2040.8,84.4,2044.2,84.3,2046.2,85z"/>
			<path class="st1" d="M2052.2,351.9h-2.9l-0.1-1.4c-0.5,0-1,0-1.5,0l0.1,1.4l0.1,1.4C2050.2,353.1,2053,353.3,2052.2,351.9z"/>
			<path class="st1" d="M2052.4,355.9l-3.2,1.4l0.3-2c-1.9,0-1.4-1.2-3-1.3l-2.2,0.4l-2.2-0.3c1.1,1.8-6.9-0.4-5.8,1.4
				c4.9,1.2-1.6,2.8-2.8,3.4c3,2.2,7.3-0.3,8.9,2l2.2-0.4l-0.7,1c0.9,0.2,5.7,1.6,5.9-0.1c-3.8-0.9,5.2-1.6,4.2-3.4l-0.8-1l0.7-1
				C2053.4,355.9,2052.9,355.9,2052.4,355.9z"/>
			<path class="st1" d="M1894.1,420.7l-0.8-1l-2.2-0.3c-4.5,0.5-2.9-1.9-7.4-1.3l-2.2-0.3l-0.8-1c-3.9,3.8-14.1,4.8-21.7,7
				c6.5,0.5,8.5,1.7,17.6,0.5c-3.8,1.8,2.6,1.1,4.5,2c2.2-1.8,5-2.1,8.7-0.7c-0.3-1.5,1.1-2.2,4.3-2.1l-0.8-1
				c2.1,1.1,6.4,0.6,7.3-0.7l-5.2,0.5C1895.4,421.6,1894.8,421.1,1894.1,420.7z"/>
			<path class="st1" d="M1841,411c5.1-1.8,6.9-1.5,13.1-2.2l-0.8-1l-0.8-1c-3.2-0.8-9.5-2.2-6-4h-1.5v-0.7
				c-3.2-3.3-9.9,2.9-14.6,1.5c-0.3,1.3,1.7,1.5,1.6,2.7c-4.1-0.1-5,1.1-2.8,2.1l2.2,0.3l-0.7,1C1838.7,411.3,1840.5,407.4,1841,411
				z"/>
			<path class="st1" d="M1848.5,415.7c-0.2,1.5,1.3,2.2,4.5,2c1-2.9,10.5-2,13-4.2c-8.3-0.6,0.5-1.1-3.1-3.4
				c-8.8,0.9-22.2,4.2-32.2,0.3l-2.2,0.4l-0.8-1c-4.4,1.2-12.5,0.6-17.5,1.5l0.8,1c-7.8-0.8-16.8-0.4-20.4,3.6l18.2-3.2
				c1.7,1,4.3,1.6,5.9,2.6c5.1,0.5,6.2-0.8,8.7-1.4c3,0.8,3.8,2.8,7.5,3.3C1836.7,415.4,1843.2,417.9,1848.5,415.7z"/>
			<path class="st1" d="M1772.6,414.3c0.6,0.1,1,0.5-0.4,0.6l0.8,1.2l-2.2,0.8c-0.4,0.9-2,1.3-1.4,2.7c12.1-0.2,17.7,0.8,24.9-1.6
				c-0.3-0.8,0.2-1.9-1.6-2l-2.2-0.3l0.7-1C1785.1,414.9,1777.6,414.9,1772.6,414.3z"/>
			<path class="st1" d="M1754.5,411.1c-0.1,0.8-0.4,1.6-2.9,1.4l0.8,1.2l-2.2,0.8c0,0.2,0,0.5,0,0.7c0,0.7-1.2,0.8-1.4,1.4
				c5.4-0.3,7.6-0.7,16.1-0.8l1.7-1l2.7,0.3C1770,411,1759.6,412.3,1754.5,411.1z"/>
			<path class="st1" d="M1744.3,412.5c-9.2-4.2-20.1-0.8-35.2-1l-2.2,0.4l0.7-1c-2.1-0.2-2.5-0.8-4.4,0l0.8,1.3
				c-2-0.3-3.9-0.9-5.9-0.9l0.7-1c-4-3.2-11.7-0.9-17.6,0.2l0.8,1l-2.2,0.4c2.8,1.2-1.1,1.8,0.2,4.1c4.2-0.9,8.4-0.6,10.3,1.3
				c4.5,0.5,2.7-1.9,7.3-1.4l-0.8-1c2.5,0.4,4.9,0.3,7.3-0.1l-0.7,1c2,0.7,5.4,0.6,7.4,1.3c2-0.4,0.1-2.6,2.8-2.7
				c10.9,1.9,18.1,1.6,29.3-0.3l-0.8-1L1744.3,412.5z"/>
			<path class="st1" d="M1677.6,410.1l-4.4-0.6l2.2-0.4c-1.5-0.9-5-0.9-6-2c-8.5,0.7-18,0.1-27.9-0.4c1.2,2.3-5.9,0.9-4.2,3.4
				l2.2-0.4l0.8,1c1.7,0.1,4.1-0.2,4.4,0.6l2.2,0.3l-0.7,1c4.5-0.6,1.9,2.3,7.4,1.3c0.4-2.3,6.5-1.8,14.5-2.9l-0.8-1
				c1,0.7,1.5,1.2,2.3,1.5c2.8,0.1,6.8,0.7,8-1l2.2-0.4H1677.6z"/>
			<path class="st1" d="M1849.5,405.4c1.9-0.7,4.4-1.2,5.8-2.1l-2.2-0.8l0.7-1.2c-2.9-0.3-9.6-1.5-5.8,0.7l2.2,0.3l-2.2,0.4
				C1847.6,404,1849.6,404.2,1849.5,405.4z"/>
			<path class="st1" d="M1809,416.7c-0.7,0.3-1.7-0.1-1.4,0.7C1808.5,420.5,1815.8,413.4,1809,416.7z"/>
			<path class="st1" d="M1846.6,421.5l-2.2-0.3c-6.4-0.6-11.3-0.2-13.1,2.2c10.4,1.3,21.5,1.5,26.3-0.2c-2.1-1.5-7.2-1.6-10.4-2.6
				L1846.6,421.5z"/>
			<path class="st1" d="M2068.8,362.2l3.6-0.7C2070.4,361.7,2069.2,362,2068.8,362.2z"/>
			<path class="st1" d="M2005.5,372.3l6.6,0.3C2009.9,372.4,2007.9,372,2005.5,372.3z"/>
			<path class="st1" d="M2094.5,412.7l-5.1-0.3C2091.2,412.7,2092.9,412.7,2094.5,412.7z"/>
			<path class="st1" d="M1604.1,406.2l7.3-0.1C1609.2,406,1606.5,405.9,1604.1,406.2z"/>
			<path class="st1" d="M2086.1,355.6l3.6-1.7C2087.7,354.5,2087.1,355.1,2086.1,355.6z"/>
			<path class="st1" d="M2049.2,357.3l2.5-2.4C2050.7,355.6,2050,356.4,2049.2,357.3z"/>
			<path class="st1" d="M2053.2,356.9c2.1,0.2,3.8,0.3,5.2,0.3L2053.2,356.9z"/>
			<path class="st1" d="M2044.6,360.4l-2.9,0.7C2042.6,361,2043.6,360.7,2044.6,360.4z"/>
			<path class="st1" d="M2044.3,354.3l3.6-2.4C2046.7,352.5,2044.7,353.2,2044.3,354.3z"/>
			<path class="st1" d="M2047.8,351.9l-3.8-2.4C2045.1,350.5,2046,351.1,2047.8,351.9z"/>
			<path class="st1" d="M2032.4,350.7c1-0.2,1.7-0.7,2.1-1L2032.4,350.7z"/>
			<path class="st1" d="M2076.1,410.9c0.7,0.1,1.8,0.3,2.9,0.3L2076.1,410.9z"/>
			<path class="st1" d="M2061.9,422.2c-0.1-0.4-0.3-0.9-0.5-1.4L2061.9,422.2z"/>
			<path class="st1" d="M1906.5,419.6h2.9C1908.8,419.3,1907.7,419.4,1906.5,419.6z"/>
			<path class="st1" d="M1860.6,407.7l-7.3,0.1C1855.7,407.8,1858.2,407.9,1860.6,407.7z"/>
			<path class="st1" d="M1631.7,411.5c-0.1,0.1-0.1,0.2-0.2,0.3l6.6-0.7C1635.9,410.6,1633.5,410.9,1631.7,411.5z"/>
			<path class="st1" d="M1678.5,408.8l-0.9,1.3C1678.3,409.6,1678.5,409.2,1678.5,408.8z"/>
			<path class="st1" d="M1679.2,406.1c-0.6,0.3-1.4,0.7-2,0.9c0.3,0.4,1.1,1,1.3,1.7l1.9-2.8C1679.9,406,1679.6,406.1,1679.2,406.1z
				"/>
			<path class="st1" d="M1708.4,410.5l-1.4,1.4C1707.7,411.4,1708,410.9,1708.4,410.5z"/>
			<path class="st1" d="M1742.2,412.9c2.8,0.6,5.9,0.5,8.9,0.7L1742.2,412.9z"/>
			<path class="st1" d="M1773.1,416.2l-6.4-1.5C1768.5,415.7,1770.4,415.8,1773.1,416.2z"/>
			<path class="st1" d="M1828.5,410.7l2.8-2.1C1830.3,409.3,1829.2,409.9,1828.5,410.7z"/>
			<path class="st1" d="M1845,402.8l5.1-0.4C1848.6,402.4,1846.6,402.4,1845,402.8z"/>
			<path class="st1" d="M1866.4,402.8c3.8,0.1,7.6,0.3,11.6,0.2L1866.4,402.8z"/>
			<path class="st1" d="M1853,402.6l13.4,0.2C1862,402.6,1857.6,402.5,1853,402.6z"/>
			<path class="st1" d="M1950,392.3l-3.6,0.4C1947.4,392.8,1948.9,392.6,1950,392.3z"/>
			<path class="st1" d="M1956.6,386.8l-15.7-1.6C1945.7,386.5,1951.2,386.4,1956.6,386.8z"/>
			<path class="st1" d="M2071.4,413.9c0.3-0.6-0.4-1.3-1.2-2l-3.5,4.5C2068.2,415.5,2069.8,414.8,2071.4,413.9z"/>
			<path class="st1" d="M1893.4,419.7l0.4-1.4C1893.6,418.8,1893.4,419.2,1893.4,419.7z"/>
			<path class="st1" d="M1893.4,419.7c1.6,0.5,3.1,0.6,4.6,0.8L1893.4,419.7z"/>
			<path class="st1" d="M1638.5,411.8c2.2,1.2,5.8,0.2,8.3-0.1l-8.8-0.6C1638.2,411.3,1638.4,411.6,1638.5,411.8z"/>
			<path class="st1" d="M1845.4,396.3c14.6,0.3,28.8,0.6,43.2,0.6L1845.4,396.3z"/>
			<path class="st1" d="M1759.3,403.9l-3.3,1.6c0.8,0.1,1.9,0,2.6,0C1759.4,404.9,1759.7,404.3,1759.3,403.9z"/>
			<path class="st1" d="M1846.6,421.5l-0.9-2.7C1845.8,419.7,1845.9,420.6,1846.6,421.5z"/>
			<path class="st1" d="M2083.7,88.9C2082.2,93.3,2090.8,89.3,2083.7,88.9L2083.7,88.9z"/>
			<path class="st1" d="M2176.5,143.7c-1,0-2.1,0-3.1,0c0,0.5-0.1,1-0.1,1.5c1,0,2.1,0,3.1,0
				C2176.4,144.6,2176.4,144.2,2176.5,143.7z"/>
			<path class="st1" d="M2170.6,188.9c1.2-1.7,8.9-0.3,7.9-3C2175.1,183.2,2164.9,187.4,2170.6,188.9z"/>
			<path class="st1" d="M2179,202.9c-4.6,1-9,0.7-10.8-1.4c1.5-3,5.9-5.5,0.4-7.3c-0.4,3-7.8,2.8-12.6,3.7c0.8-4.4-11-2.9-10.4-7.2
				c9.2-3.5,5.4-10.1-2.3-13.1c4.5-0.1,5.9-1.7,7.9-3l-2.3-0.4l0.1-0.2l8.1-0.3c-2.7-0.1-5.5-0.2-8.1,0.3l0.7-0.9
				c-4.3-2.2-11-4.5-19-5.3c1.2-0.1,2.7-0.2,1.4-0.4c-1.7,0-3,0.2-4.5,0.2c-2-0.1-4-0.1-6.1,0c-3.6,0-3.9,0.1-3.4,0.4
				c-0.7,0.1-1.5,0.1-2.2,0.3c-0.2-0.5-0.8-0.9-1.5-1.2c3.4,0,6.6-0.1,8.2-0.5c0.6-0.1,1.4-0.3-0.2-0.4c-1.6-0.1-2.9,0-3.7,0.2
				c-1.5,0.3-3.3,0.3-5.2,0.3c-0.1-0.1-0.2-0.1-0.3-0.2c0.8-0.1,1.5-0.1,2.3-0.2l0,0c0.2,0,0.2-0.1,0.1-0.1l0,0
				c1-0.2,4.1-0.5,1.3-0.7c-0.4,0-0.8-0.1-1.3-0.1c0.1-0.2,0.2-0.3,0.4-0.5l0,0h0.4h0.4l0,0c4.3-0.1,8.6-0.1,13-0.2
				c1.7,0,3.9-0.1,3.9-0.3s-2.2-0.1-3.5-0.1c-2.2,0-4.8,0.1-5.9-0.2c2.3,0,4.4,0,6.5-0.1c1.6,0,3.9-0.1,2.1-0.3l0,0
				c-0.5-0.1-3-0.1-3.1-0.3c4.5-0.1,9-0.1,13.5-0.2l0,0c5.3,0.1,10.6-0.1,15.9-0.2c3.9,0,6.8-0.1,6.7-0.5c0,0,3.1-0.1,1.7-0.3
				c-0.7-0.1-2.2-0.1-3.4-0.1c-9.2,0.4-17.4,0-26.1,0l0,0c-1.3-0.1-3.1-0.1-4.4,0c3.2-3.4,18-1.2,20.2-5c-1.5-2.4-9.5-1.7-12.2-3.6
				c-2.9-6.3,18.1-3.7,22-4.5c-1.6-0.8-2.9-1.6-3.7-2.8c0.1,0,0.2,0,0.4,0c1.4,0,3.5,0,3.4-0.2s-2.1-0.3-4-0.3
				c-0.1-0.3-0.3-0.6-0.3-0.9c1.1,0,2.1,0,3,0c2.7,0.1,5.3,0.2,7.5-0.1c2.1-0.4,1.2-1.1-1.8-1.1c-2.9-0.1-5.8-0.2-8.8-0.2
				c0-0.1,0-0.1,0-0.2c10.4-1.3,23.8-1.2,28.2-5.3c-10.4-3.2-17.1-0.5-29.4-0.5c-1.2-0.8-1.9-1.9-1.3-3.6
				c-10.8,2.5-20.3-0.9-29.7,3.8c-0.9-1-2.6-1.5-4.7-1.9c0.9,0,1.4-0.1,1.5-0.2c0.3-0.2-1.7-0.2-3.6-0.2c-0.1,0-0.2,0-0.3,0
				c-3.2-0.4-6.8-0.6-9.7-1.2c0.2-0.6,0.6-1.4,1.1-2.3c0.8,0,1.6,0,2.4,0c5.1-0.2,10.1,0.3,15.8-0.1c-2.7-0.4-8.5-0.1-10.5-0.5
				c-0.4-0.1-1.1,0.2-1.4,0.3c-3.1,0-4.4-0.2-6-0.3c0.1-0.1,0.1-0.2,0.2-0.2c0.4-0.1,0.8-0.2,1.4-0.3c3.6-0.5,3.8-0.6-0.8-0.6
				c0.2-0.4,0.5-0.8,0.7-1.1c0.2,0,0.4,0,0.6,0c0.9,0,2.4,0,2,0.1c-0.3,0.1-1.6,0.3,0.9,0.3c1.7,0,3.2-0.1,3.8-0.2
				c3-0.6-2-0.5-5.3-0.5c-0.8,0-1.3-0.1-1.7-0.1c0-0.1,0.1-0.1,0.1-0.2c0.8-0.1,2.1-0.1,2.9-0.2c1-0.1,2-0.1,2.9-0.2l0,0
				c-0.1-0.4,0.6-0.9-5.1-0.9c0.3-0.5,0.5-1,0.7-1.5c1.7-0.1,3.3-0.2,4.9-0.2c-0.5-0.3-4.3-0.2-4.7-0.4l0,0c0,0,0-0.1,0.1-0.1
				c0.7-0.2,3.1-0.2,5-0.2c5.1,0.3,5.1,0.3,6.7-0.3l0,0c-0.3-0.2-0.7-0.5-1-0.7l0,0c3.2-0.3,3.9-0.5-0.3-0.7c0,0-0.1-0.1-0.2-0.1
				c-0.2,0-0.4,0-0.6-0.1c0-0.1,0-0.2,0-0.3c0.3,0,0.6,0,0.9,0c2.4,0,5.6-0.1,5.6-0.3c0-0.3-2.9-0.3-5.8-0.3
				c-1.8-0.1-3.5-0.1-5.3-0.2c-1-0.1-5.1-0.3,0.6-0.4c4.7-0.1,9.3-0.3,13.8-0.1c2.4,0.1,5.7-0.1,8.1,0.1c2.3,0.1,4.7,0.2,6.8-0.1
				c-1,0.5-1.7,1.2-3.1,1.6c4.8,0.3,6.4-1,7.9-2.2c-1.5-0.1-2.5-0.1-3.3,0.1c0.1-0.3-0.8-0.6-2.4-0.7c-6-0.1-11.4-0.4-17.9-0.4
				c-7.3-0.1-14-0.3-20.2-0.6c-0.1,0-0.2,0-0.4,0s-0.4-0.1-0.6-0.1c-0.1,0-0.1,0.1-0.2,0.1c-0.8,0-1.6-0.1-2.4,0
				c-4.6,0-7.6-0.2-10.5-0.4l0,0c-0.6-0.2-2.4-0.4-5-0.4l0,0c-1.4-0.3-3.4-0.5-5.5-0.6c0.2-0.2,0.3-0.4,0.6-0.6
				c-1.5,0-2.7,0.2-3.7,0.4c-4.2-0.2-9.1-0.3-13.9-0.5c-0.4,0-0.9,0-1.3-0.1c0.5-0.4,1-0.8,1.4-1.1c6.1,0,12.4,0.2,18,0.4
				c3.8,0.3,7.7,0.5,11.2,0.8c1.6,0.1,2.8,0.2,4.9,0.1c2.3-0.1,2.7-0.3,1-0.4c-1.8-0.2-0.3-0.2,1.6-0.3l0,0l0,0
				c1.7,0.1,3.3,0.1,5,0.2l0,0c1,0.2,1.9,0.4,2.9,0.6c0.6,0.1,1.6,0.3,3.3,0.1c2.4-0.2,6.6-0.1,7.3-0.5c0.4-0.2-1.6-0.3-3.6-0.3
				c-2.7,0-5.3-0.1-8-0.1c-0.5-0.1-1.1-0.1-1.6-0.2c1.9-0.2,5.2-0.2,6.6-0.4l0,0c3.6,0.1,6.8,0.3,12.3,0.2c-4-0.4-9.1-0.5-13.7-0.7
				c-7.3-0.3-14.8-0.5-22.2-0.7c-3-0.2-6.4-0.3-9.9-0.5c0.6-0.1,1.1-0.3,1.2-0.6c0-0.1,0-0.1,0-0.1s-0.1,0-0.1-0.1
				c-0.3-0.3-1.5-0.6-2.4-0.5s-2.2,0-3.2-0.1s-2.6-0.2-3.5-0.1c-0.9,0-1.9,0.2-2.1,0.7l0,0c0,0,0,0,0,0.1s0.3,0.3,0.6,0.4
				c-0.5,0-1,0-1.5-0.1l0,0c-0.6,0-1.3-0.1-2-0.1c1.9-2.3,2.9-5,2.2-8.5c-1.9,0.6-4.3,0.8-6.9,1.1c0.6-0.6,1.6-1.1-0.4-1.5
				c-0.1,0.6-1.5,1.2-1.1,1.6c-5.6,0.4-11.7,0.5-15.1,1.9l0,0c-7.2-0.2-15-0.7-19.5,3.6c0,0,0,0-0.1,0c-0.5,0-0.3-0.1-1.1,0
				s-2.5,0.1-3.4,0.1s-1.9,0-2.6,0c-0.3,0-0.7,0-1,0.1c-4.1-0.1-8.2-0.2-12.4-0.2c-1.5-2.1-9.4-2.9-13.1-0.3
				c-5.3-0.1-10.8-0.2-16.3-0.2l0,0c-11.4-0.3-23.7-0.3-35.6-0.4l0,0c-1.6,0-3.1-0.1-4.8-0.1c-16.2-0.1-32.4-0.1-48.6-0.1
				c-0.7-0.3-2.1-0.8-1.7-1.9c5.6,0,11-0.1,16.1-1.8c-1.6-0.2-3-0.5-3.1-1.6c4.8-0.2,10.8-0.1,14.5-2.4c-8.3-0.9-17.4-0.5-25.1-2.9
				c0.8-0.1,1.6-0.2,2.4-0.3c1.9-0.2,3.9-0.4,5.5-1c0.2-0.1,0.4-0.2,0.3-0.3c-0.1-0.2,0-0.3-0.5-0.4s-1.2-0.2-2,0.1
				c-0.9,0.3-2.7,0.6-3.9,0.7c-1.3,0.1-2.7,0.3-3.9,0.5c-4.9-0.1-14.8,2.1-19.1,0.8c-0.3,0.1-0.6,0.3-0.9,0.4
				c-1.5-0.1-3-0.2-4.3-0.2c-3.2,0-6.5,0.2-9.8,0.3c1-0.5,1.8-1.3,2.4-2.4l0,0c2.2-1.1,4.4-2.2,6.7-3.2c1.5-0.4,1.9-1.4,2-2.6l0,0
				l0,0l0,0c3.6-5.7,3.4-5.9-3.2-6c-7-0.2-13.9,1.6-20.8,0.5c-6.8,0.1-13.6,0.2-20.4,0.3c0-0.4,0-0.8,0-1.2c5.7-0.8,11.3-1.6,17-2.4
				c-1-1.2-1.8-1.7-2.6-1.7c-13.9,0.7-27.9,0.5-41.9,1c-20.5,0.8-41,0.6-61.5,0.9c-2.3,0-4.8-0.5-8.2,1.2
				c17.5,0.8,33.9-1.4,49.9,1.7c0.4,0.1,1.1-0.3,1.5-0.5c3.3-1.9,6.4-2.9,9.3,0.5c3.1-1.7,6.4-2.8,10.1-2.3c0.6,0.1,1.2-0.1,1.7,0.1
				c4.6,2.4,9,2.5,14,0.2c2-0.9,6.8-1,5.3,3.7l0,0c-2.3,0.1-4.5,0.1-6.8,0.2c-36.7,0.4-73.4,0.9-110.1,1.3c-2.2,0-4.6-0.3-6.3,1.5
				l0,0c-1.1,0-2.2,0-3.4,0.1l0,0c-1-0.4-1.9-1.2-2.9-1.2c-10.7,0-21.3,0.2-32,0.4c-1,0-1.9,0.8-2.9,1.3l0,0
				c-3.4,0.1-6.8,0.1-10.2,0.2l0,0c-7.4,0.1-14.9,0.2-22.3,0.3l0,0c-6.5,0.1-13,0.1-19.5,0.2c-11.2,0.1-22.4,0.3-33.6,0.4
				c-10.2,0.1-20.5,0.3-30.8,0.4l0,0c-1.2,0-2.3,0-3.5,0.1c-0.6,0-1.2,0-1.9,0c1-0.3,1.9-0.7,2.9-1c1.2-0.2,1.5-0.8,1.6-1.5l0,0l0,0
				l0,0c2.8-3.3,2.7-3.4-2.5-3.5c-5.4-0.1-10.8,1-16.3,0.3c-5.3,0.1-10.6,0.1-15.9,0.2c0-0.2,0-0.5,0-0.7c4.4-0.5,8.8-1,13.3-1.4
				c-0.8-0.7-1.4-1-2-1c-10.9,0.4-21.8,0.4-32.7,0.7c-13.7,0.4-27.3,0.5-41,0.6c0-0.2,0-0.4,0-0.6c5.7-0.8,11.3-1.6,17-2.4
				c-1-1.2-1.8-1.7-2.6-1.7c-13.9,0.7-27.9,0.5-41.9,1c-20.5,0.8-41,0.6-61.5,0.9c-2.3,0-4.8-0.5-8.2,1.2
				c17.5,0.8,33.9-1.4,49.9,1.7c0.4,0.1,1.1-0.3,1.5-0.5c3.3-1.9,6.4-2.9,9.3,0.5c3.1-1.7,6.4-2.8,10.1-2.3c0.6,0.1,1.2-0.1,1.7,0.1
				c4.6,2.4,9,2.5,14,0.2c1.7-0.8,5.2-0.9,5.5,1.7c-0.6,0-1.3,0-1.9,0c-1.8,0-3.8-0.3-6.4,0.7c2.8,0.1,5.6,0.1,8.3,0.1
				c0,0.4-0.1,0.7-0.2,1.1l0,0c-2.3,0.1-4.5,0.1-6.8,0.2c-36.7,0.4-73.4,0.9-110.1,1.3c-2.2,0-4.6-0.3-6.3,1.5l0,0
				c-1.1,0-2.2,0-3.4,0.1l0,0c-1-0.4-1.9-1.2-2.9-1.2c-10.7,0-21.3,0.2-32,0.4c-1,0-1.9,0.8-2.9,1.3l0,0c-3,0.1-6.1,0.1-9.1,0.2
				c1.5-0.5,3-0.9,4.5-1.3c-0.1,0.1-0.1,0.1-0.2,0.2c1.5,0.5,3.3,1.3,4.2,0.4c0.6-0.6,0.4-1.1-0.2-1.5c1.6-0.4,3.3-0.8,4.9-1.1
				c-2.3,0-4.7,0.1-7,0.1c-0.1-1,0.5-2.5-2.7-1.6c0.5,0.7,1.3,1.2,2.5,1.6c-11.9,0.2-23.7,0.4-35.5-0.2c-2.9,0-5.7,0.1-8.6,0.1
				c-1.1-1.4-2.3-1.4-3.4,0l0,0c-1.9,0.1-3.5-0.8-5.2-1.4c-1.8-3.4-2-3.4-5.1,0.1c-1.1,0.5-2.3,1-3.4,1.4c0.4-4.4-3.6-5.7-7.1-6.8
				c-3-0.9-3.5,2.2-5.5,3.2c1.9,1.8,4.6,1.9,5.8,3.7l0,0c-2.9,0-5.7,0.1-8.6,0.1c-0.4-0.2-0.8-0.4-1.2-0.5
				c-4.2-1.6-8.3-1.4-12.5,0.7l0,0c-14.6,0.5-29.1-0.3-43.7-0.8c-6.2-0.2-12.6,0.6-18.7-0.1c-11.5-1.3-22.9-2.2-34.4-2
				c-4.9-0.2-9.7-0.3-14.6-0.5c-6.2-0.4-13.9-0.5-20.8-0.8l0,0c-0.2,0-0.3,0-0.5,0c-0.1,0-0.3-0.1-0.4-0.1v0.1
				c-7.8-0.4-15.8-0.7-23.9-1c0-0.2,0-0.4-0.2-0.7c-0.1,0.2-0.4,0.4-0.7,0.6c-2.3-0.1-4.6-0.2-7-0.2c0.4-0.2,0.9-0.4,1.2-0.8
				c0.6-0.7,2.1-1.3,0.6-2.1c-1.2-0.7-2,0-2.6,0.6c-0.8,0.8-1.6,1.4-2.9,0.4c-2.3-0.2-4.5-0.9-7,0.1c-2.7,1.1-3.4-0.2-3.7-1.7
				c-0.7,0.4-1.6,0.7-1.9,1.1c-0.4,0.6-0.8,1.2-0.8,1.8c-0.6,0-1.1,0-1.7,0c0.1-0.2,0.1-0.3,0.2-0.5c-4.7-1.1-7.2-1.1-8.1,0.3
				c-2.2,0-4.4-0.1-6.6-0.1l0,0c-8.3-0.3-17.4-0.4-26.4-0.5l0,0c-11.4-0.3-23.7-0.3-35.6-0.4l0,0c-1.6,0-3.1-0.1-4.8-0.1
				c-1.5,0-2.9,0-4.4,0c1.1-0.6,1.9-1.4,2.4-2.5c-3.9-1.5-3.4,0.7-3.4,2.5c-19.8-0.1-39.6-0.1-59.6-0.1l0,0
				c-6.2-0.1-12.7-0.1-19.2-0.1c0.3-0.4,0.6-0.7,0.7-0.8c0.5-1.3,0.3-1.5-0.4-0.9c-0.6,0.4-1,1-1.5,1.5c0.1,0.1,0.2,0.1,0.3,0.2
				c-2,0-3.9,0-5.9,0c1.8-1.4,2.5-2.8,1.7-5c-0.6,1.5-3.6,2.2-2.7,5c-0.4,0-0.8,0-1.3,0c-0.3,0-0.6,0-0.9,0
				c-1.1-1.8-2.2-3.7-4.2-4.7c0.3-0.2,0.6-0.6,0.9-1c0.8-1.3,2.7-2.2,0.8-3.6c-1.5-1.1-2.5,0-3.3,1c-1,1.4-2,2.5-3.8,0.6
				c-3-0.4-5.8-1.6-9,0.1c-3.4,1.8-4.4-0.4-4.8-2.9c-0.8,0.6-2.1,1.1-2.5,1.9c-1.2,2.3-2.1,5.2,1.1,6.3c2.3,0.8,6.8,2.6,7.3-2.6
				c0.1-1.2,2.5-2.2,3.3,0.2c0.3,0.9,0.7,2.5,1.3,2c1.5-1.7,3.9-1.2,6-1.4c0.2,1.5,0.4,3-0.1,4.3c-1.4,0-2.9,0-4.2,0v-0.1
				c-0.2,0-0.5,0.1-0.7,0.1c-2.5,0.1-5.1,0.1-7.7,0.1c-0.4,0-0.9,0-1.3,0c-1.3-0.8-2.3-0.6-3.2,0c-0.8,0-1.7,0-2.5,0
				c-0.2-1.7-1.2-3-2.7-4.2c-0.1,0-0.1,0-0.2-0.1c0.2-0.8,0.4-1.5,0.7-2.4c-4.2-1.4-7.1-1.8-8.8-1c-1.1-0.4-2.4-0.7-3.7-0.8
				c-1.5,2.2,0,2.9,1.6,3.7c-0.2,0.9-0.2,1.9-0.1,3.1c-2.7-0.1-5.6-0.5-8.9,1.2c-0.1,0-0.2,0-0.3,0c4-5.1,3.9-5.2-1.9-8.1
				c-1.8,1.3,4.2,5.1-2.3,5.1c-1.1,0-0.9,1.4-0.1,2.3c0.2,0.2,0.4,0.5,0.6,0.7c-0.9,0-1.8,0-2.6,0s-1.6,0-2.5,0l0,0
				c-2.5-0.1-5.3,0-8.1,0c-1.7,0-3.4,0-5.1,0l0,0l0,0l0,0l0,0l0,0c-2.5-0.1-5.2-0.1-8.1,0l0,0c-1.4,0.1-1.9,0.3-4.1,0.3
				c-9.6,0.1-19.5,0.4-28.8,0.1l0,0l0,0c-1-0.1-2.6-0.1-4-0.1c-3.5,0-6.8,0.1-10,0.2c-0.6,0-1.2,0-1.6,0.1c-1.9,0.1-3.8,0.2-5.6,0.3
				l0,0l0,0c-5.5-0.3-11.6-0.4-18.3-0.3l0,0c-11.7-0.1-23.7,0.1-35.6,0.1c-1.4,0-3.5,0-3.5,0.2s1.7,0.2,3.4,0.2
				c0.4,0.1,0.9,0.2,1.3,0.2c-12.3,0.3-24.5,0.5-36.9,0.6c-1.4-0.1-3.3-0.2-5.2-0.2c-15.9,0.1-31.6,0.1-47.5,0.3
				c-0.8,0-1.6-0.1-2.3-0.1c-5.3,0.1-10.7,0.2-16,0.3c-0.5-0.7-1-1.4-1.6-2.2c-1.1,0.7-2.3,1.4-2.9,2.3c-6.5,0.1-12.9,0.3-19.4,0.4
				c-6.3,0.1-12.5,0.3-18.8,0.4c-1.4,0-2.9,0.1-2.7,0.2c0.2,0.1,1.8,0.1,3.1,0.1c4.6,0,9.1,0,13.7-0.1c6.9-0.1,13.7,0.2,20.6-0.2
				l0,0c1.1,0,2.1,0,3.2,0c0,0.2,0,0.4,0.1,0.6c-7.6,0.2-14.3,0.5-16.4,0.7c5.6-0.1,11.1-0.2,16.6-0.3c0.1,0.1,0.1,0.2,0.2,0.4
				l0.1,0.1c-6.6,0.1-13.3,0.2-19.9,0.3c-3.1,0.1-7.1,0.2-6.7,0.5c0.4,0.4,4.7,0.3,7.5,0.2c11.1-0.3,22.3-0.3,33.4-0.5
				c0.9,0,1.9,0,2.7,0c6.6,0,13.4-0.1,20.1-0.2c1.5,0,2.3-0.1,2.5-0.3c-0.4-0.1-1.4-0.1-2.5-0.1l0,0c0.6-0.2,2.9-0.4-1.4-0.5
				c-10.7,0.1-21.5,0.3-32.2,0.4c0.4-0.2,0.7-0.3,1.1-0.5c6.8-0.1,13.7-0.3,20.7-0.5c-3.7-0.2-11.9-0.1-20.1,0
				c-0.1-0.1-0.2-0.2-0.3-0.4c1.4,0,2.9,0,4.4,0c8.7,0.1,17.7-0.2,26.5-0.2c4.9,0,9-0.1,10.8,0.4c1,0.3,4.4,0.3,7,0.3
				c4.5-0.1,9-0.1,13.6-0.2c6-0.1,9.3-0.3,9.6-0.9l0,0c11.9-0.2,23.8-0.4,35.6-0.3c-3.2,0.3-6.8,0.2-10.2,0.3
				c-1.3,0-2.7,0.1-2.5,0.3c0.1,0.1,1.5,0.1,2.5,0.1c6.1,0,12.4,0.1,17.8-0.6c1.6,0.6,5.5,0.7,11.6,0.5c6.4-0.2,13.3-0.4,18.5,0.2
				c3.5,0.4,8.9,0,13.5-0.1c3.9-0.1,5.3-0.3,4.7-0.7c-0.4-0.2,2.5-0.2,4.1-0.2c12.1-0.3,24-0.1,36.1-0.3c1.8,0,3.5,0.2,5.3,0.1
				c11.1-0.1,22.2-0.1,33.3-0.2c0.2,0.2,0.4,0.4,0.5,0.7c-3,0-6.1,0.1-9.1,0.1c-9.9-0.2-19.9-0.5-30.8,0c-1.5,0.1-4.4-0.1-4.3,0.2
				c0.1,0.3,2.3,0.3,5.1,0.3c7.4-0.1,14.9-0.1,22.3-0.2c2.9,0.1,6.2,0,9.4,0l0,0l0,0c2.5,0.1,5.2,0.1,7.8,0c0.2,0.2,0.3,0.4,0.5,0.6
				c0.3-0.2,0.6-0.4,0.9-0.6c3.2,0,6.4-0.1,9.5,0c0.3,0,0.6,0,0.9,0c0.5,0.4,0.9,0.9,1.3,1.4c-1.9-0.1-2.9-0.6-6.5-0.1
				c-4.7,0.1-9.4,0.1-14,0.2c-2.1-0.1-4.5,0-6.9,0l0,0c-1.8,0-3.9-0.1-4.9,0.2c-0.6,0.1,0.9,0.1,2,0.1c3.9,0.1,8.1,0,12.2,0
				c0.9,0,1.7,0,2.6,0l0,0c3.5,0.1,6,0.5,10.7,0.1c1.8,0,3.5,0,5.3-0.1c0.4,0.5,0.9,0.8,1.5,0.9c-18.8-0.2-37.8-0.2-56.9-0.1
				c-15.7-1.6-31.4-2.3-47.2-0.1c0,0.1-0.1,0.1-0.1,0.2c0,0,0,0-0.1,0c0,0,0.2-0.2,0.1-0.2c-1.8-1.6-4.2-1.2-6.4-1.2
				c-7.1,0-14.1,0-21.2,0.1c-1.1,0-2.3,0-3.4,0c-16.6,0.3-33.2,0.6-49.8,0.9l0,0c-2.2-0.3-4.4-0.2-6.6,0.1c-0.2,0-0.5,0-0.7,0
				c-14.3-0.1-27.8,0.7-42,0.8c-0.7,0-1.6,0.1-2.4,0.2l0,0c-1.6,0-3.3,0-4.9,0.1c-13.7-0.5-28.2-0.4-42.4,0.2
				c-7.6,0.4-14.8,0.5-22.4,0.6c-6.6,0.1-13.1,0.1-19.7,0.1c-0.5,0-0.9-0.1-1.4-0.1c-1.5-0.2-3.9-0.2-6.3-0.2
				c-3.6,0-7.3,0.1-10.9,0.1c-0.7-0.2-1.4-0.2-2.1,0c-5.9,0.1-11.8,0.1-17.7,0.2c0,0-0.1,0-0.1-0.1c-0.3,0-0.6,0-0.9,0.1
				c-4.4,0.1-8.8,0.1-13.2,0.2c-5-0.1-10,0-15,0.1c-0.7-0.6-1.4-1.1-2.1-1.1c-7.4,0.6-15.1-0.3-22.3,1.4C349,89,335,89.3,320.9,89.5
				c-2.2,0-6,0.3-6.6-0.1l0,0c2.7-0.1,5.5-0.2,8-0.3c3.3-0.2,4.9-0.4,2.4-0.7l0,0c-0.9-0.1-1.9-0.1-2.8-0.2
				c-0.8-0.2-0.4-0.2,1.7-0.3c3.8-0.1,8-0.1,11.4-0.4l0,0l0,0c6.9-0.3,14.3-0.3,21.2-0.6l0,0c8.5-0.1,16.9-0.4,25.5-0.3
				c5.4,0,10.7,0,15.9-0.2c1.4,0.2,3,0.1,4.4,0.5c5.2,1.7,7.4,1.5,8.5-1.1c0.3,0,0.6,0,0.8,0c8.7,0.3,17.2-0.1,25.7-0.4
				c1.9,0,3.5-0.1,3.6-0.3l0,0c4.9-0.5,12.6-0.3,18.1-0.8c-1.4,0-2.1-0.1-2.9-0.1c-7.8-0.1-15.7-0.1-23.6,0c0.6-0.2,1.4-1.4,1-2
				c-2.1-3-3-7-8.3-7.4c0.3,3.3,1.7,6.9-3.3,8.8c3.2,1.5,6.8-2.4,10.1,0.5c0,0,0.1,0,0.1,0.1c-2.9,0-5.7,0-8.6,0
				c-3.8,0-8.3,0-12.5,0.2c0.2-1,0.4-2.1,0.5-3.6c-2.2-1.4-3.5-0.1-4.9,1.2l-0.8,0.1c0,0-0.1-0.6-0.2-0.6c0.2-2.1-1.1-3.6-2.8-5
				c-1.7-0.6-3.9,0.2-5.1-1.4c-1.8-1.9-4.2-2.6-6.9-2.8c-2.8,4.2,5.2,3.1,4.2,6.8c-3.6,0.5-7.5-1.3-12.2,1.6
				c4.3-5.4,4.3-5.4-1.7-8.4c-1.8,1.3,4.2,5.1-2.3,5.1c-1.1,0-0.9,1.4-0.1,2.3c1.2,1.3,2.2,2.7,3.6,4.4c4.8-3.5,9.1-3.7,12.8,1
				c0,0,0,0,0.1,0.1c-9.7,0.2-19.7,0.3-29.2,0.7c-1.1,0-2.8,0-3.8,0c-4.5-0.2-9.2-0.1-14,0c-5,0.1-9.9,0.3-14.9,0.4
				c-13.2,0.3-26.5,0.5-39.4,1l0,0c-10.1,0.1-20,0.4-29.9,0.6c-22.6,0.6-45,1.3-67.3,2c-2.2,0-4.4,0.1-6.5,0.1
				c-32.1,1.3-64.3,2.5-95,4.1c-14,0.7-28.3,1.4-41.1,2.4l0,0C41.3,97,30.1,97.7,20,98.7c-3.6,0.3-7,0.6-8,1c-1,0.1-2,0.2-3,0.4l0,0
				c-13.2-0.1-23.9,0.4-30.6,1.6l0,0c-4,0.3-5.7,0.8-8.8,1.2c-3,0.4-6.7,0.8-8.8,1.3c-2.8,0.6-7.9,1.1-5.8,1.8l0,0
				c-10.6,0.6-14.5,1.6-10,2.5c0.5,0.1,0.5,0.2,0.7,0.3l0,0c-2.6,0-4.8,0.2-7.5,0.2c0,0.1,0,0.2,0,0.4c1.9,0,2.4,0.1,3.7,0.2
				c0.6,0.1,1.4,0.3,1.6,0.4c0.6,0.4,4.5,0.7,3.3,1.1s-0.6,0.7,1.8,1c-1,0.2-3.8,0.4-0.1,0.6l0,0c8.8,0.6,9.1,0.8,1.6,1.4
				c-4.6,0.4-3.2,0.8-0.2,1.1l0,0c0.5,0.4-0.3,0.8,4.2,1l0,0c0.4,0,0.8,0.1,1.3,0.1l0,0c-0.1,0.1,0,0.2-0.4,0.2
				c-8.8,0.5-10.9,1.1-7.5,2l0,0c1,0.3,4.2,0.5,6.4,0.8l0,0c0.4,0.2,3.9,0.4-0.5,0.6c-5.7,0.4-6.2,0.9-1.8,1.4l0,0l0,0
				c0.4,0,0.6,0,0.8,0.1c-0.3,0-0.5-0.1-0.8-0.1c1.7,0.3-2.7,0.4-3.2,0.6c0.8,0.1,2.1,0.1,3.4,0.1c1.5,0,3.1-0.1,4.5,0
				c3.3,0.1,2.6,0.2-2.4,0.6l0,0c-1.5,0-3.1,0.1-4.6,0.1c-2.4,0-5.4,0-6.2,0.3c-0.8,0.2,2.3,0.3,4,0.4c3.9,0.2,3.6,0.4,0.5,0.7
				c-8,0.7-8,0.8-0.4,1.1c0.6,0,0.9,0.1,1.3,0.2c-1.7,0.5-4.9,1.1-2.2,1.6c0.4,0,0.6,0.1,0.6,0.1c-0.2,0-0.4-0.1-0.6-0.1
				c-0.6,0.2,0.6,0.4,1.7,0.6c2.3,0.4,4.9,0.8,2.1,1.3c-1.7,0-3.1,0.1-3.7,0.3c-2.2,0.4-4.6,0.9,0.4,1.2c4.9,0.3,4.1,0.6-0.2,1
				c-1.1,0-3.2,0-3,0.1c0.2,0.2,2.2,0.2,4.3,0.2l0,0l0,0c8.1,0.3,8.7,0.5,4.9,1l0,0c-1.3,0-2.8,0-3.8,0.1c-2.4,0.2-7.1-0.1-7.2,0.2
				c-0.2,0.3,4.8,0.1,7.3,0.2c0.3,0.1,2,0.2,0.4,0.3c-4.4,0.2-2.3,0.3-0.3,0.5c1.3,0.1,2.6,0.2,3.8,0.3c0,0.6,4.4,0.7,9.2,0.7h-0.1
				c2.6,0.1,2.2,0.5,4,0.7c0.9,0.2,1.7,0.4,1.2,0.6c-0.6,0.1-0.8,0.1-0.9,0.2c0-0.1,0-0.2,0.1-0.2c-4.4,1.2-1.7,2.5-1.6,4.7
				c2.3-0.2,1.7-1.8,1.4-3.2c0.1,0,0.5,0.1,1.2,0c0.5,0,0.9-0.1,1.4-0.1c-0.5,0-0.8-0.1-1.2-0.1c-0.4,0-1.2,0.1-1.3,0.1l0,0
				c-0.1-0.4-0.1-0.8,0.1-1.2c-0.1,0.2,1.4,0.2,2.9,0.3c6.7,0.2,5.7,0.6,3.6,1.1l0,0c-0.9,0.2-3.5,0.1-4.3,0.2l0,0
				c-2.6,0.3-2.5,0.6,0.1,0.9c1.5,0.3,0,0.8,3.9,1.1l0,0c0.8,0.1,1.6,0.1,2.5,0.2l0,0c0,0,0.1,0.1-0.1,0.1
				c-9.3,0.6-11.5,1.2-7.5,2.1l0,0c0.3,0,0.7,0.1,1,0.1l0,0c0.8,0.2,2.5,0.3,4.1,0.4l0,0c-0.4,0.2,5.3,0.4,0.9,0.7
				c-5,0.4-6.3,0.8-4.1,1.2c-0.6,0-1.3,0.1-1.8,0c-0.9-0.1-2.1,0.2-2.4,0.5c-0.1,0.1-0.1,0.1-0.1,0.1s0,0,0,0.1c0,0.3,1,0.6,1.7,0.6
				c1.4,0.1,3.7-0.1,4.9-0.2c1.2-0.1,1.7-0.2,2.6-0.2c0.4,0,0.8-0.1,1.2-0.2c1.2,0,2.1,0,2.2,0.2c0.3,0.3-4.1,0.4-6.8,0.5
				c-0.6,0-1.3,0-1.9,0c-2.3,0-5.3,0-6.2,0.3c-0.8,0.2,2,0.3,3.8,0.4c3.8,0.2,4.2,0.4,0.9,0.7c-0.8,0-1.7,0.1-2.2,0.1
				c-5.5,0.6-5.5,0.6,0.9,1c1.3,0.1,1.4,0.2,1.3,0.3c-1-0.2-2.2-0.4-3.7-0.3c0.5,0.5,0.9,1,1.2,1.5c0,0.1,0,0.2,0.1,0.2
				c0.4,0.8,0.5,1.6,0.3,2.3c-0.2,0-0.3,0.1-0.4,0.1c-1.8-0.1-3.7-0.2-3.3-0.1c-3.2,1.6,0.6,1.5,2.9,1.4c-0.2,0.3-0.6,0.5-0.9,0.7
				c-0.2,0-0.3,0-0.4,0.1c-0.1,0,0,0.1,0.1,0.1c-0.6,0.3-1.3,0.6-2.1,0.8c-11,0.5-15.4-2.3-20.6-4.6c-12.4,1.7-1.4,10.9-0.2,15
				c-5.7,1.2-14.3,1.2-16.7,3.9c-9.6-4.4-18.9-0.9-29.8-3c0.6,1.6,0,2.7-1.2,3.6c-12.3,0.4-19.1-2.2-29.4,1.2
				c4.6,3.9,17.9,3.5,28.4,4.5c0.7,2.8-1.5,4.4-4.2,5.8c3.9,0.7,24.8-2.4,22.1,3.9c-2.6,1.9-10.7,1.4-12.1,3.8
				c2.4,3.8,17.8,1,20.6,4.6c9-1.7,18.3-0.6,20.5,3.2c-0.5,0.9-2.6,1.2-2.9,2.2c-14.5-2-27,2-33.7,5.6l0.9,1.1l-2.3,0.4
				c2.1,1.2,3.4,2.7,8,2.7c-7.6,3.1-11.3,9.7-2,12.9c0.7,4.2-11.1,3.1-10.2,7.3c-4.9-0.8-12.2-0.4-12.7-3.3
				c-5.4,1.9-0.9,4.2,0.6,7.1c-1.8,2-6.1,2.5-10.7,1.6c0.5,2.3-2.5,3.1-1,5.7c7.7-0.9,7.8,2.1,14.1,1.9l1.5-0.4l1.6,0.3
				c-0.9,0.7,13.1-1.8,12.1-3.8c-0.6-1.2,5.9,0.7,2.8-2.9c3.2,0.7,5.6,3.7,6.2-0.1c2.9,1.4,5.5,1.1,3.4,3.5
				c8.9-2.4,14.7,1.8,21.7,1.2c0.5,0.8,1,1.8,1.6,2.9l0,0l0,0l0,0c0.2,1.9,0.7,3.6,2.9,4.2c3.2,1.7,6.4,3.3,9.6,5l0,0
				c1.6,3.1,3.9,4.9,7.6,4.4l0,0l0,0c3.2,0.7,6.3,1.4,9.4,2.1c-3.2,0.7-6.3,1.5-9.5,2.1l0,0l0,0c-2.6-0.3-4.2,0.9-5.3,2.8l0,0
				c-2.2,1.1-4.4,2.2-6.7,3.2c-1.5,0.4-1.9,1.4-2,2.6l0,0l0,0l0,0c-3.6,5.7-3.4,5.9,3.2,6c4.6,0.1,9.1-0.6,13.6-0.8
				c-0.4,0.1-0.8,0.2-1.2,0.4c-3,1.2-6.1,0.9-9.2,1c-0.1,0-0.2,0.2-0.3,0.7c-0.1,0.4,0.1,0.9,0.5,1.3c3.8,1.7,7.9,1.6,12,1.7
				c1.1-0.3,1.7-1,2.4-1.6c-0.3,1.1-1.8,1.3-2.2,2.3c-1.8,1.2-5.6,1.2-4.8,4.1c0.3,1,1.1,1.5,2.2,1.7c-8.2,0.1-16.3,0.2-24.5,0.3
				c-7.6,2.2-7.6,2.2-7.2,9.2c0.1,1.4,0.4,2.9,0.6,4.3c0.2,0.6,0.6,0.9,1.2,1.1c-2.1,3.8,2,2.9,4.3,3.1c1.4,0.1,2.8,0.2,4.2,0.2
				c-3.2,0-6.3,0.3-9.4,1.2c-2.2,2.3-1.1,3.9,1.4,5.2c11.4,0.1,22.8-0.2,34.3-0.7c1.1,0.5,3.2,0.3,4.4,0.3c0-0.2,0-0.3-0.1-0.5
				c0.8,0,1.6-0.1,2.4-0.1c16.2-0.8,32.4-1.5,48.5-1.9l0,0c0.3,0,0.7,0,0.9,0c0.2,0,0.2,0,0.2,0c0.1,0,0.2,0,0.3-0.1
				c1.2,0,2.5-0.1,3.7-0.1c-2.4,0.6-4.9,1.1-7.3,1.6l0,0l0,0c-2.6-0.3-4.2,0.9-5.3,2.8l0,0c-1.6,0.8-3.2,1.5-4.7,2.3
				c-0.4,0-0.7,0-1.1,0c-10.7-0.3-20.8-0.6-31.1-1.8c-1-0.1-1.9,0-2.3,0.3s-0.2,0-0.2,0.3s0.4,0.5,1.2,0.5c10.2,1.1,20.6,1.5,31,1.8
				c-1,0.5-1.3,1.4-1.4,2.4l0,0l0,0l0,0c-1.1,1.8-1.9,3-2.1,3.9c-1.3,0-2.6,0-4,0.1c0,0.4,0,0.9,0,1.3c1.3,0,2.7,0,4.1-0.1
				c0.6,0.6,2.2,0.7,5.3,0.8c7,0.2,13.9-1.6,20.8-0.5c3.2,0,6.5-0.1,9.7-0.1c-1.4,0.2-2.9,0.5-4.3,0.8c-2.9,0-5.7,0-8.6,0
				c-19.8-0.2-39.7,0.5-59.5,0.1c-1.1,0-2.2,0.7-3.6,2.4c8.1,0.9,16.1,1.8,24.2,2.7c0,0.6,0,1.1,0,1.7c-9.7,0.1-19.3,0.2-29,0.4
				c-9.9,1.8-19.7-0.4-29.6,0.1c-9.4,0.4-9.7,0.7-4.4,8.5l0,0l0,0l0,0c0.2,1.6,0.7,3.1,2.9,3.6c3.2,1.4,6.4,2.8,9.6,4.3l0,0
				c1.6,2.6,3.9,4.2,7.6,3.7l0,0l0,0c13.4,2.4,26.6,5.2,39.6,9l-0.1,0.1c0,0.3,0.8,0.3,1.5,0.3c0.2,0.1,0.5,0.1,0.7,0.2
				c0.4,0.3,0.7,0.6,1.1,0.8c-1.6,0.4-3.2,0.7-4.9,1.1l0,0l0,0c-2.6-0.3-4.2,0.9-5.3,2.8l0,0c-2.2,1.1-4.4,2.2-6.7,3.2
				c-1.5,0.4-1.9,1.4-2,2.6l0,0l0,0l0,0c-3.6,5.7-3.4,5.9,3.2,6c2.4,0.1,4.9-0.1,7.3-0.3c-2.1,0.5-4.1,0.9-6.2,1.4l0,0l0,0
				c-1.9-0.2-3.2,0.4-4.2,1.4c-0.2-0.1-0.3-0.1-0.5-0.2l0.5,0.2c-0.4,0.4-0.7,0.9-1,1.4l0,0c-2.2,1.1-4.4,2.2-6.7,3.2
				c-1.5,0.4-1.9,1.4-2,2.6l0,0l0,0l0,0c-3.6,5.7-3.4,5.9,3.2,6c7,0.2,13.9-1.6,20.8-0.5c6.8-0.1,13.6-0.2,20.4-0.3
				c0,0.4,0,0.8,0,1.2c-5.7,0.8-11.3,1.6-17,2.4c1,1.2,1.8,1.7,2.6,1.7c13.3-0.6,26.7-0.5,40-1c-3.2,0.7-6.3,1.5-9.5,2.1l0,0l0,0
				c-2.6-0.3-4.2,0.9-5.3,2.8l0,0c-2.2,1.1-4.4,2.2-6.7,3.2c-1.5,0.4-1.9,1.4-2,2.6l0,0l0,0l0,0c-3.6,5.7-3.4,5.9,3.2,6
				c7,0.2,13.9-1.6,20.8-0.5c6.8-0.1,13.6-0.2,20.4-0.3c0,0.4,0,0.8,0,1.2c-5.7,0.8-11.3,1.6-17,2.4c1,1.2,1.8,1.7,2.6,1.7
				c13.9-0.7,27.9-0.5,41.9-1c20.5-0.8,41-0.6,61.5-0.9c2.3,0,4.8,0.5,8.2-1.2c-17.5-0.8-33.9,1.4-49.9-1.7
				c-0.4-0.1-1.1,0.3-1.5,0.5c-3.3,1.9-6.4,2.9-9.3-0.5c-3.1,1.7-6.4,2.8-10.1,2.3c-0.6-0.1-1.3,0.1-1.7-0.1c-4.6-2.4-9-2.5-14-0.2
				c-2,0.9-6.8,1-5.3-3.7l0,0c2.3-0.1,4.5-0.1,6.8-0.2c36.7-0.4,73.4-0.9,110.1-1.3c2.2,0,4.6,0.3,6.3-1.5l0,0c1.1,0,2.2,0,3.4-0.1
				l0,0c1,0.4,1.9,1.2,2.9,1.2c0.7,0,1.3,0,2,0c0.1,0.8,0.2,1.6,0.4,2.5c0.2,0.6,0.6,0.9,1.2,1.1c-1,1.8-0.6,2.5,0.4,2.8l-18.9,0.7
				c6.4-0.2,12.8-0.4,19.2-0.7c1,0.2,2.5,0.1,3.5,0.2c1.4,0.1,2.8,0.2,4.2,0.2c-3.2,0-6.3,0.3-9.4,1.2c-1.8,1.9-1.4,3.3,0.2,4.5
				l-7,0.3c2.4,0,4.7-0.1,7-0.2c0.3,0.2,0.7,0.5,1.1,0.7c5.3,0,10.5,0,15.7-0.1c1.4,0.5,3.1,0.9,4.6,1.3c-0.1-0.7,0.5-1,1-1.5
				c1,0,2-0.1,3-0.1c-0.2,1.3-4.5,2.3-6.9,3l-0.7,1l-0.8,1c6.2,0.5,8,0.1,13.1,1.8c0.4-3.5,2.3,0.3,10.3-1.5l-0.7-1l2.2-0.4
				c2.1-1,1.2-2.1-2.9-2c-0.2-1.2,1.7-1.4,1.5-2.6c0.5,0,1,0,1.5-0.1c23-1.1,46.1-2,69.1-2.4c8.7-0.1,17.4-0.3,26-0.4
				c0,0.9,0,1.7-0.1,2.5c7.5,2.5,11.9,0.7,22-1.7c5.4,3.7,20,2.8,19.1-1.6c9.8-0.2,19.6-0.3,29.4-0.5c3,1.8,10.2,0.8,16.8-0.1
				c0.2,0.7,0.8,1.1,1.6,1.4c0.9,0,1.6-0.4,1.8-1.1c0-0.2,0-0.4,0-0.6c6-0.1,12-0.2,17.9-0.2c-0.1,0.2-0.2,0.4-0.1,0.6l2.2,0.7
				l-0.8,1.2c5,1,6.5-0.1,13.2,0.4l-0.7-1.5l2.2-1.2c0-0.2,0-0.4,0-0.5c2.6,0,5.2,0,7.8-0.1c-1,0.2-2.1,0.3-3.5,0.5l0.7,1.2
				l-2.2,0.8c-1.1,2.1,4,1.2,2.9,3.3c4.1-1.3,13.5-0.3,14.7-2.9c0.3,0.9,2,1.7,7.3,1.9c-3.9-2.8,3.7-2.3,4.5-4.7
				c-1.4,0.1-2.3,0-3-0.3c21-0.1,42-0.1,63,0.2c10.5,0.1,21,0.1,31.5,0c0.5,0.5,1.1,0.9,1.8,1.3c13.7,0.1,27.3-0.4,40.9-1
				c9.3-0.5,18.6-0.9,27.9-1.2c0.4,0,0.8,0,1.2,0c8.5-0.1,17-0.2,25.4-0.3c1.4,0.9,3.1,1.5,4.8,2c2.2,0.7,3.1-0.8,4.2-2.1
				c1.7,0,3.3,0,5,0c-0.1,0.2-0.2,0.4-0.3,0.7h-0.5c0.2,0,0.3,0,0.5,0c-0.2,0.3-0.3,0.7-0.5,1.1c1.4-0.2,2.8-0.4,4-1
				c6.2,0.2,12.8,0,18.6-1.1c4.4,0,8.9-0.1,13.3-0.1c-0.4,0.3-1,0.5-0.9,1c-0.5,0.8,3.5-0.8,6.9-1.1c0.5,0,0.9,0,1.4,0
				c1,0.1,1.9,0.3,2.5,0.9c0.6-0.3,1.2-0.6,1.8-0.9c24.3-0.2,48.5-0.5,72.8-1c0.4,0.2,0.9,0.3,1.5,0.3c3.6,0.2,8.4-0.1,11.7-0.4
				c0.9-0.1,1.7-0.2,2.4-0.2c2.2-0.1,4.3-0.1,6.5-0.2c0.7,0,1.3,0,1.8,0c2,0,3.9,0,5.9-0.3c1.9,0,3.8,0,5.7,0c1.1,0,2.3,0,3.4,0
				c16.6-0.3,33.2-0.6,49.8-0.9l0,0c2.2,0.3,4.3,0.2,6.5,0c9.6,0,19.2,0.1,28.7,0.2c13.5,0.2,27.1,0.1,40.6,0c-1,0.3-2,0.9-3,1.3
				c0.9,1.2,1.7,2.4,2.6,3.7c1.9-1.1,4.3-2.4,2.7-4.5c-0.2-0.3-0.5-0.4-0.8-0.5c20.4-0.2,40.9-0.6,61.3-0.9
				c16-0.2,32.1-0.4,48.1-0.5c-1.2,1-1.6,3-1.8,6.4c2.2,1.4,3.5,0.1,4.9-1.2l0.8-0.1c0,0,0.1,0.6,0.2,0.6c-0.2,2.1,1.1,3.6,2.8,5
				l0,0l0,0c1.7,0.6,3.9-0.3,5.1,1.4c1.8,1.9,4.2,2.6,6.9,2.8c2.8-4.2-5.2-3.1-4.2-6.8c3.6-0.5,7.5,1.3,12.2-1.6
				c-4.3,5.4-4.3,5.4,1.7,8.4c1.8-1.3-4.2-5.1,2.3-5.1c1.1,0,0.9-1.4,0.1-2.3c-1.2-1.3-2.2-2.7-3.6-4.4c-4.8,3.5-9.1,3.7-12.8-1
				c-1.6-2.1-4.6-1.1-6.9-1.8c-0.5-0.2-1-0.3-1.4-0.4c5.8-0.1,11.6-0.1,17.4-0.2c0.2,0.1,0.4,0.1,0.5,0.1c0.6-0.1,1.2-0.1,1.9-0.1
				c35.7-0.3,71.4-0.7,107.1-1.7c3.7-0.1,7.4,0.2,10.9-1.3c2.3-1.4,4.9-1,7.4-0.9c0,0.1,0,0.2,0.2,0.4c0.6,0.7,1.8,0.7,3.4,0.6
				c2.8-0.2,5.4-0.1,8.8,0.2c3.3,0.3,8.2,0.5,11.7,0.2c1-0.1,2-0.4,2-0.9c0-0.4,0.3,0.1-0.1-0.4c-0.1-0.1-0.4-0.2-0.6-0.3
				c4.6-0.1,9.1-0.3,13.6-0.9h0.1c1.2,0,2.4,0,3.6-0.1c0.7,0.1,1.3,0.2,2,0.3c0.9,0.2,2.2-0.1,3.2-0.4c10.2-0.2,20.4-0.4,30.6-0.5
				c6.2-0.1,12.4-0.1,18.7-0.2c-0.6,0.3-1.1,0.6-1.4,0.9c1.5,0.7,3,1.4,4.5,2.2c2.6-2.7,11.6,1.1,10.8-0.1c0.1-0.7-1.2-0.9-1.5-1.4
				c2.1,0,4.1,0,6.2,0l2.1-1l2.7-0.5c-0.2-0.1-0.5-0.2-0.7-0.2c2.6,0,5.2-0.1,7.8-0.1c1.4,0,2.8,0.1,4.2,0.1c0.7,0.3,1.4,0.3,2.2,0
				c1.7-0.1,3.4-0.1,5.2-0.2c8.5-0.2,16.9,3,25.4,1.4c13.5-2.5,27.2-1.3,40.8-1.8c2.4-0.1,4.8,0,7.1-0.4c18.1-0.2,36.2-0.4,54.3-0.6
				c11-0.1,22-0.4,33-0.6c3,0.3,5.9,0.5,8.7,0.5c0-0.3,0.2-0.4,0.4-0.6c6.5,0,13,0,19.5,0.2c5.1-0.2,10.3-0.5,15.4-0.7l0,0
				c2.6,0.1,5.1,0.2,7.7,0.1c0.1,0,0.1,0,0.2,0c-0.7,0.4-1.7,0.8-3.6,0.7c0.8,2.5,8.4,1.8,4.6,4.7c5.3-0.3,6.9-1.2,7.2-2.1
				c1.2,2.7,10.6,1.3,14.8,2.6c-1.2-2.1,4-1.3,2.8-3.4l-2.2-0.8l0.7-1.3c-1.9-0.2-3.4-0.5-4.7-0.6c3,0,6.1-0.1,9.1-0.1
				c0,0.2,0,0.5,0,0.7l2.2,1.2l-0.7,1.5c6.7-0.7,8.1,0.4,13.1-0.8l-0.8-1.2l2.2-0.8c0-0.3-0.1-0.5-0.2-0.8
				c6.4-0.1,12.9-0.2,19.3-0.2l-0.1,0.2c7.1,0.7,15.9,2,19-0.2c-0.2-0.1-0.4-0.2-0.6-0.2c10.7-0.1,21.4-0.3,32-0.4l-2.1,0.3
				c-1,4.6,13.7,5.2,19.1,1.2c10.2,2.2,14.5,3.9,22,1.2c0-0.9-0.1-1.8-0.1-2.7c-0.5,0-1.2-0.2-1.9-0.4c1.1,0,2.2,0,3.3,0
				c4,0,8,0.1,11.9,0.2c0.7,0.3,1.4,0.3,2.2,0c1.7-0.1,3.4-0.1,5.2-0.2c8.5-0.2,16.9,3,25.4,1.4c13.5-2.5,27.2-1.3,40.8-1.8
				c4.2-0.2,8.7,0.4,12-2.6c9.5-3.2,19.3-5.5,29.2-7.6l0,0l0,0c2.6,0.3,4.2-0.9,5.3-2.8l0,0c0.1-0.1,0.3-0.1,0.4-0.2
				c3.8,0.1,7.6,0.1,11.4,0.2c19.4,0.5,38.8,0.6,58.2,0c3.6-1.9,5.1-4.2,1.8-7.3c-4.4-1.1-8.9-1.4-13.4-1.3c2-0.1,4-0.3,5.9-0.5
				c3.2-0.3,9,0.7,5.9-4.4c0.3-0.1,0.4-0.2,0.7-0.4c29,0.7,56.9,1.2,64,3c0.7,0.2,1.2,2.5,3,0.7c-3.6-1,7-1.3,5.7-3.5
				c-5.7,0.9-3.9-1.8-6-2.7c-3.8,1.8-9.9-0.1-11.7,0.1c-0.8,0.1-1.2,1.4-2.9,1.4c-3.5,0-9.7-0.4-13.2-0.6c-7.7-0.4-25-1.1-34.6-2.2
				c2.3-0.5,4.7-1,7-1.5l0,0l0,0c3.7,0.4,6-1.3,7.5-4l0,0c3.1-1.5,6.3-3.1,9.4-4.6c2.2-0.5,2.7-2.1,2.8-3.7l0,0l0,0l0,0
				c1.5-2.3,2.5-4,3-5.2c1.3,0.2,2.5,0.4,3.9,0.2c0.1,1-6.1,2.2,0.1,2c3-0.4,3.1-1.1,1.4-2c3.5,0.2,3.1-1.3,7.3-0.8
				c0-1.8-2.5-1.3-0.1-2.7c-2.7-1.7-14.1,0.8-14.7-1.9c4.4-3.5,17.7-0.2,23.3-2.9c0.4,1.2-1.3,3.4,3,2.7c4.3-3.4,4.5-6.4,11.4-6.9
				c7.4-0.5,1.7,2.2,5.9-0.1c1.3-0.7,5.5-0.3,7.1-0.8c11.1-0.3,22.2,0.1,33.3-0.3c1.6-0.1,3.3,0,4.9-0.1c0,0,0,0.1,0.1,0.1l0.3-0.1
				c0.3,0,0.5,0,0.8,0l0.4,0.2c0-0.1,0.1-0.1,0.1-0.2c3.8-0.2,7.5-0.8,10.5-3.6c0.2-0.1,0.5-0.1,0.7-0.2c0.7,0,1.5,0,1.5-0.3
				c0,0,0-0.1-0.1-0.1c12.8-4.2,26-7.3,39.3-10.2l0,0l0,0c3.7,0.4,6-1.3,7.5-4l0,0c3.1-1.5,6.3-3.1,9.4-4.6c2.2-0.6,2.7-2.1,2.8-3.7
				l0,0l0,0l0,0c5.1-8.1,4.8-8.3-4.6-8.6c-9.8-0.2-19.6,2.2-29.4,0.7c0.9-0.1,1.6-0.2,0.6-0.4c-2.6,0-4.2,0.3-7,0.3
				c-6.2-0.1-7.4-0.1-7.1,0.2c-2.8,0-5.7,0.1-8.5,0.1c-1.2-0.1-2.1-0.3-2.8-0.4l0,0c0.5-0.4,3.6-0.4,6.8-0.4c3,0,6-0.1,7.9-0.3
				c0,0.2,0,0.5,0,0.7c4,0.4,2.8-1.4,4.3-2.1c-1.5,0-2.9,0-4.4,0c0,0.2,0,0.5,0,0.7c-1.1,0-2,0.1-2.5,0.2c-2.1,0.4-4.7,0.3-7.4,0.2
				c1.4-0.1,2.7-0.2,4.1-0.3l0,0c0.2,0,0.2-0.1,0.1-0.1l0,0c1-0.2,4.1-0.5,1.3-0.7c-0.4,0-0.8-0.1-1.3-0.1c0.1-0.2,0.2-0.3,0.4-0.5
				l0,0h0.5h0.4l0,0c4.3-0.1,8.6-0.1,13-0.2c1.7,0,3.9-0.1,3.9-0.3c0-0.2-2.2-0.1-3.5-0.1c-2.2,0-4.8,0.1-5.9-0.2
				c2.3,0,4.4,0,6.5-0.1c1.6,0,3.9-0.1,2.1-0.3l0,0c-0.5-0.1-3-0.1-3.1-0.3c4.5-0.1,9-0.1,13.5-0.2l0,0c5.3,0.1,10.6-0.1,15.9-0.2
				c3.9,0,6.8-0.1,6.7-0.5c0,0,3.1-0.1,1.7-0.3c-0.7-0.1-2.2-0.1-3.4-0.1c-9.2,0.4-17.4,0-26.1,0l0,0c-1.5-0.1-3.5-0.1-4.9,0
				c-2.6,0.1-5,0.2-7.3,0.2c-1.1-1.2-2.1-1.7-3-1.7c-9.8,0.5-19.6,0.6-29.4,0.8c-1.7-0.3-6-0.1-8.2-0.3c-2.1-0.2-5-0.2-7.7,0.1
				c-1.2,0.1-2.7,0.1-4.2,0.1c-1.7-0.2-3.3-0.3-5-0.5c8.2-0.1,16.4-0.2,24.6-0.2l0,0c4.3,0.2,8.9,0,13.4-0.1c3.6,0,7.2,0,10.8,0.1
				c4.7,0.1,9.5-0.1,14.2-0.1c1.5,0,3,0.1,4.6,0c0.7-0.1,0.3-0.1-0.5-0.2c-1.5-0.1-3.5-0.1-5.4,0l0,0l0,0c-4.2-0.1-8.5,0-12.8,0
				c-3-0.1-6.3,0-9.6,0c-0.4,0-0.8,0-1.2,0c0,0-0.2-0.1-0.4-0.1l0,0c-4.8-0.2-10.3-0.2-15.7-0.1c0-0.1,0-0.2,0-0.3
				c1.4,0,2.8,0,4.1-0.1c1.5,0,3,0,4.6,0c3.6,0,9.1,0,9.4-0.3c0.1,0,0.2,0,0.3,0c-0.1,0-0.2,0-0.3,0c-0.1-0.3-5.5-0.1-8.7-0.2
				c-3.1,0-6.2,0-9.4,0c0-0.1,0-0.2,0-0.2c-1.4,0-2.9,0-4.4,0c0,0.1,0,0.1,0,0.2c-3.3,0-6.6,0-9.7-0.1c5.8-0.4,12.1-0.2,18.1-0.3
				c3.5,0,6.1-0.1,7.1-0.5l0,0c1.2,0,2.9-0.1,3-0.2c0.1-0.2-1.7-0.2-3.1-0.2c-1.8-0.3-8.1-0.3-4-0.9l0,0c4.4,0.3,9.9,0.2,15.1,0.2
				c2.3,0,5.2,0,6.2-0.3s-2-0.3-3.8-0.4c-0.9,0-2-0.1-1.5-0.2c0.4-0.1,1.3-0.1,2.2-0.1c6.1,0.2,7.6-0.2,9.3-0.6c1.7,0,3.4,0,5.2-0.1
				c5.2-0.1,10.2,0,15.3,0c1.4,0,3.1,0,4-0.2c0.5-0.1-0.1-0.2-1-0.2c-3.4,0-6.9-0.1-10.3-0.1c-3.3,0.1-5.9,0-7.3-0.2
				c-1.4-0.3,1.7-0.4,3.2-0.6c4.2-0.3,4.5-0.4-0.9-0.5c-5.3-0.1-10.6-0.1-16.1,0c-0.3,0-0.6,0-1,0l0,0c-3.7-0.1-8.5,0.1-12-0.1
				c-0.5-0.2,0-0.3,2.4-0.3c5.4,0,9.6-0.2,13.1-0.6c4.7,0.2,9.6,0.1,14.6-0.1c0.9,0,2.4,0,1.9,0.2c-0.7,0.2-1,0.3,1.9,0.3
				c2.2-0.1,3.6-0.2,2.9-0.4c-0.7-0.2-2.6-0.3-5.4-0.3c-5-0.2-0.2-0.3,1.2-0.5l0,0c1.4-0.1,4-0.1,3.4-0.2c-1.6-0.4-0.7-0.9-7.9-0.8
				c-3.5,0-6.6-0.1-9.6-0.2c-0.5-0.1-0.8-0.1-0.9-0.2c0.2,0,0.5,0.1,0.9,0.2c-0.7-0.3,0.8-0.4,4-0.4c1.4,0,3.5,0.1,3.9-0.1
				c0.5-0.3-2.1-0.2-4-0.2l0,0c0,0,0,0-0.1,0c-1.1-0.1-0.7-0.2,1.2-0.3c1.8-0.1,4,0,5.4-0.2l0,0c2.4-0.1,4.8-0.3,7.2-0.4
				c-1.4-0.2-6.3-0.2-4.2-0.6c1.1-0.2,3.9-0.2,5.4-0.1c7,0.3,4.6-0.3,5.7-0.5c0.8-0.2-1.4-0.3-0.8-0.6c4.3-0.6,2.9-0.8-5.5-0.8
				c0-0.1,0-0.2,0-0.2c0.9,0,1.8-0.1,2.7-0.1c-0.1,0-0.3,0-0.4,0h0.1l0,0h0.3c2.3-0.1,4.8,0,6.8-0.2c3.2-0.4-0.1-0.4-2.5-0.5
				c-3.1-0.1-6.3-0.2-9.5-0.2l0,0c0-0.1-0.1-0.3,1.6-0.3c4.3,0,8.4-0.3,12.7-0.2c2.5,0.3,7.1,0,10.1,0.2c2.7,0.1,5.3,0.2,7.5-0.1
				c2.1-0.4,1.2-1.1-1.8-1.1c-5.6-0.1-11-0.3-17.1-0.4c-11.4-0.1-20.2-0.7-31.6-0.8l0,0c-2.5-0.2-3.6-0.6-7.9-0.7l0,0
				c-1.4-0.2-2.7-0.4-5.5-0.5c-0.7-0.5,3.3-0.2,5.1-0.3c0.1,0,0.3,0,0.4,0c0,0.3,0,0.6,0,0.8c1,0,2,0,2.9,0c0-0.3,0-0.6,0-1
				c0.1,0,0.2,0,0.2-0.1c0,0-0.1-0.1-0.2-0.1c0-0.1,0-0.2,0-0.2c-1,0-1.9,0-2.9,0v0.1c-0.1,0-0.2,0-0.2,0c-2.2,0-4.7,0-7.2-0.3
				c4.4,0,8.7-0.2,11.8,0v0.1c0.5,0,1,0,1.4,0c0.5,0.1,1,0.1,1.5,0.2c0.6,0.1,2.4,0.1,3.9,0.1c2-0.1,3.3-0.2,1.7-0.4l0,0
				c0.6-0.1,1.8-0.1,2.9-0.2c3.6,0.1,4.7,0.4,5.7,0.7c0.5,0.1,1.8,0.3,3.6,0.2c2.5-0.2,7.3-0.1,7.7-0.5c0.3-0.2-2.2-0.3-4.4-0.3
				c-3.8,0-7-0.1-9.7-0.3c0,0-0.1-0.1-0.3-0.1c0.6-0.1,1.6-0.1,2.6-0.1l0,0c5.6-0.1,11.1,0,16.3,0.1c0.2,0,0.5-0.1,0.7-0.1
				c-1.2-0.1-2.5-0.3-3.7-0.4l0,0c-0.3-0.1-0.9-0.2,1-0.3c1.9-0.1,2.6-0.2,0.3-0.3c-1.8,0-3.5,0-5.3,0.1c-6.4,0.2-12.3,0-18.4,0l0,0
				c-2.7-0.2-6.9-0.1-9.3-0.3c-5.3-0.4-12.2-0.5-18.6-0.7l0,0c0,0,0,0-0.1,0c0-0.2,0-0.4-0.2-0.6c5.7,0,11.5,0,17.3-0.1
				c1.2,0.1,2.6,0.1,3.8,0c0.6-0.1,0.1-0.1-0.8-0.2l0,0c-2.4-0.1-5.1-0.1-7.8,0c-3-0.1-6.4,0-9.6,0l0,0c-0.3,0-0.6,0-0.9,0
				c-0.8,0-1.6,0-2.3,0c-1.4-0.9-4.9-1.2-5.5,0c1-0.1,1.7-0.1,2.2,0c-0.9,0-1.7,0-2.6,0l0,0l0,0c-0.4,0-0.8,0-1.3,0l0,0
				c-1.3-0.3-4.8-0.1-6.9-0.2c-1.8-0.2-4.1-0.1-6.4-0.1c0,0,0,0,0.1,0c0.2,0,0.4-0.1,0.5-0.1c2.4,0,5-0.1,7.5-0.1l0,0l0,0
				c2.7,0,6,0,6.2-0.3s-3.4-0.2-5.5-0.2c-2.4,0-5,0-7.4,0c0-0.2,0-0.3-0.2-0.4c2.8-0.1,5-0.2,6.8-0.4c1.4,0,3.3,0,3.4-0.2
				c0.1-0.2-1.6-0.2-3.4-0.2l0,0c-1.3-0.1-2.6-0.1-3.9-0.2c-0.7-0.2-4.3-0.4-1.2-0.7l0,0c4.6,0.3,10.2,0.2,15.7,0.2
				c2.1,0,4.7,0,5.8-0.2c1.3-0.3-1.4-0.3-3.3-0.4c-1.1,0-2.6-0.1-1.7-0.2c0.6-0.1,1.8-0.1,2.9-0.1c3.3,0,6.1,0,7-0.4l0,0
				c2.5-0.4,6.6-0.4,10.4-0.4c5.1-0.2,10.1,0.3,15.8-0.1c-2.7-0.4-8.5-0.1-10.5-0.5c-0.4-0.1-1.1,0.2-1.4,0.3
				c-3.5,0-4.7-0.2-6.6-0.4l0,0c0.7-0.2,1.1-0.3,2.2-0.4c4-0.5,3.8-0.6-2.7-0.6c-1.9,0-3.8,0-5.7,0c-3-0.1-6.3,0-9.5,0l0,0l0,0l0,0
				l0,0c-2.9-0.1-6.2,0-9.2,0l0,0c-0.7,0-1.5-0.1-2.2-0.1l0,0c-1.5-0.3,1.3-0.3,3.7-0.4c3.2-0.1,7.6,0,9-0.5c0.9,0,1.7-0.1,2.6-0.1
				c4.7,0.1,9.6,0.1,14.6-0.1c0.9,0,2.4,0,2,0.1c-0.3,0.1-1.6,0.3,0.9,0.3c1.7,0,3.2-0.1,3.8-0.2c3-0.6-2-0.5-5.3-0.5
				c-5-0.2-0.4-0.3,1.3-0.4c1-0.1,2-0.1,2.9-0.2l0,0c-0.1-0.4,0.7-0.9-5.5-0.9c-4.2,0-7.7-0.1-11.4-0.2c-0.4-0.3,1-0.4,3.8-0.4
				c1.5,0,3.9,0.1,4.2-0.1s-2.5-0.2-4.4-0.2c-0.5-0.2,1.1-0.3,2.9-0.3c2,0,3.7-0.1,4.9-0.3c2.1-0.1,4.2-0.2,6.2-0.3
				c-0.6-0.3-5.5-0.2-4.6-0.6c0.7-0.2,3.1-0.2,5-0.2c5.1,0.3,5.1,0.3,6.7-0.3l0,0c-0.3-0.2-0.7-0.5-1-0.7l0,0
				c3.2-0.3,3.9-0.5-0.3-0.7c0,0-0.1-0.1-0.2-0.1c-0.9-0.1-1.8-0.2-2.7-0.3l0,0c1,0,2-0.1,3.1-0.1c2.4,0,5.6-0.1,5.6-0.3
				c0-0.3-2.9-0.3-5.8-0.3c-1.8-0.1-3.5-0.1-5.3-0.2c-1-0.1-5.2-0.3,0.6-0.4c4.7-0.1,9.3-0.3,13.8-0.1c2.4,0.1,5.7-0.1,8.1,0.1
				c2.4,0.1,4.9,0.2,7.1-0.1c2-0.3,1.4-1.1-1.2-1.2c-6-0.1-11.4-0.4-17.9-0.4c-7.3-0.1-14-0.3-20.2-0.6c-1-0.1-2.4-0.1-3.6-0.1
				c-4.6,0-7.6-0.2-10.5-0.4l0,0c-0.6-0.2-2.4-0.4-5-0.4l0,0c-1.9-0.3-4.5-0.6-7.6-0.7c0.3-0.5,0.8-1,1.2-1.4c0.7,0,1.3,0,2,0.1
				c3.8,0.3,7.7,0.5,11.2,0.8c1.6,0.1,2.8,0.2,4.9,0.1c2.3-0.1,2.7-0.3,1-0.4c-1.8-0.2-0.3-0.2,1.6-0.3l0,0l0,0
				c1.7,0.1,3.3,0.1,5,0.2l0,0c1,0.2,1.9,0.4,2.9,0.6c0.6,0.1,1.6,0.3,3.3,0.1c2.4-0.2,6.6-0.1,7.3-0.5c0.4-0.2-1.6-0.3-3.6-0.3
				c-2.7,0-5.3-0.1-8-0.1c-0.5-0.1-1.1-0.1-1.6-0.2c2-0.2,5.2-0.2,6.6-0.4l0,0c3.6,0.1,6.8,0.3,12.3,0.2c-4-0.4-9.1-0.5-13.7-0.7
				c-7.3-0.3-14.8-0.5-22.2-0.7c-4.3-0.3-9.4-0.4-14.4-0.6c4.8-1.5,9.2-3.4,7-6.4c-2.1,0-3.6-0.1-4.8-0.3c1.9-0.6,3.8-1.6,5.4-3.4
				c1.5-0.6,2.9-1.1,4.4-1.7c3.5,0.1,7.1-0.1,10.7-1.6l-2.2-0.3l0.1-0.2l3.2-1c-0.8,0.2-1.7,0.5-3.2,1l0.6-0.8
				c-0.2,0-0.3-0.1-0.5-0.1c9.3-3,18.8-5.5,28.3-7.9l0,0l0,0c3.7,0.4,6-1.5,7.5-4.7l0,0c3.1-1.8,6.3-3.6,9.4-5.4
				c2.2-0.6,2.6-2.4,2.8-4.3l0,0l0,0l0,0c0.6-1.1,1.1-2.1,1.6-3c7,0.4,12.7-4,21.7-1.8c-2.1-2.4,0.5-2.1,3.3-3.7
				c0.7,3.8,3,0.7,6.2,0c-3,3.8,3.5,1.7,2.9,2.9c-0.9,2.1,13.1,4.2,12.2,3.6l1.2-0.3l-2,1.2c1.7-0.1,2-0.6,2.3-1.3h0.1l1.5,0.4
				c6.4,0,6.4-3,14.1-2.3C2181.6,205.9,2178.5,205.2,2179,202.9z M2143.3,163.3c-2.3,0-4.7,0-7,0
				C2138.6,163.2,2141,163.2,2143.3,163.3z M2079.5,115.3C2079.4,115.3,2079.4,115.3,2079.5,115.3L2079.5,115.3
				C2079.4,115.3,2079.4,115.3,2079.5,115.3C2079.4,115.3,2079.4,115.3,2079.5,115.3C2079.4,115.3,2079.4,115.3,2079.5,115.3
				L2079.5,115.3L2079.5,115.3z M553.5,85.8L553.5,85.8L553.5,85.8L553.5,85.8z M593,84.2L593,84.2L593,84.2L593,84.2
				C593.1,84.2,593.1,84.2,593,84.2L593,84.2z M687.7,82.1C687.7,82.1,687.6,82.1,687.7,82.1C687.6,82.1,687.7,82.1,687.7,82.1
				L687.7,82.1z M693.2,82.7L693.2,82.7L693.2,82.7L693.2,82.7z M385.9,87.1L385.9,87.1L385.9,87.1L385.9,87.1
				C385.8,87.1,385.8,87.1,385.9,87.1z M335,87.3C334.9,87.3,334.9,87.3,335,87.3c-0.2,0-0.3,0-0.5,0
				C334.7,87.3,334.8,87.3,335,87.3z M315.7,88.7L315.7,88.7C315.7,88.7,315.6,88.7,315.7,88.7C315.6,88.7,315.7,88.7,315.7,88.7z
				 M-50.5,115.9h0.4c0,0,0,0,0.1,0C-50.2,115.9-50.4,115.9-50.5,115.9z M-50.1,126L-50.1,126L-50.1,126
				C-50.2,126-50.2,126-50.1,126C-50.2,126-50.1,126-50.1,126L-50.1,126z M-43.5,128.9c0.4,0,0.8,0,1.3,0c0,0,0.1,0,0.1,0.1
				C-42.6,128.9-43,128.9-43.5,128.9z M-39.6,133.2L-39.6,133.2L-39.6,133.2C-39.5,133.2-39.5,133.2-39.6,133.2z M-34.5,107.6
				L-34.5,107.6C-34.6,107.6-34.6,107.6-34.5,107.6C-34.6,107.6-34.5,107.6-34.5,107.6z M-38.2,134.5L-38.2,134.5
				C-38.1,134.5-38.1,134.5-38.2,134.5C-38.1,134.5-38.1,134.5-38.2,134.5z M-38.2,131.5L-38.2,131.5L-38.2,131.5L-38.2,131.5
				L-38.2,131.5z M-33,125.3L-33,125.3L-33,125.3L-33,125.3z M-48.5,306.2c-2.3,0.1-4.7,0.1-7,0c3.4,0,6.7,0,10.1-0.1
				C-46.5,306.1-47.5,306.1-48.5,306.2z M2110,299.5c-2.3,0-4.7,0-7,0C2105.3,299.4,2107.7,299.4,2110,299.5z M2073.9,295.7
				c0.1,0,0.3,0,0.4,0c-0.3,0-0.5,0-0.8,0C2073.6,295.8,2073.8,295.7,2073.9,295.7z M2052.7,296.1c0,0.1,0,0.1,0,0.2
				c-0.8,0-1.9,0-1.9-0.1C2051.4,296.1,2052,296.1,2052.7,296.1z M2077.2,291.8c-0.1,0,0.1,0,0.1,0
				C2077.2,291.8,2077.2,291.8,2077.2,291.8C2077.1,291.8,2077.2,291.8,2077.2,291.8z M2108.5,282.2
				C2108.5,282.2,2108.6,282.2,2108.5,282.2L2108.5,282.2L2108.5,282.2z M2092.7,286.3L2092.7,286.3c-0.2,0-0.5,0-0.6,0
				C2092.3,286.3,2092.5,286.3,2092.7,286.3z M2058.2,264.8c0,0-0.1,0-0.2,0h-0.1C2058,264.8,2058.1,264.8,2058.2,264.8z
				 M2025.6,271c-0.1,0-0.2,0-0.4,0l0,0C2024.9,271,2025.6,271,2025.6,271z M2035.7,275.2c0.1,0,0.1,0,0.2,0
				C2035.8,275.2,2035.7,275.2,2035.7,275.2L2035.7,275.2z M785.1,87.8c0.2,0,0.5,0,0.7,0.1c0.8,0.2,1.4,0.4,2,0.6c-1,0-2,0-3,0
				c-0.2-0.2-0.4-0.5-0.7-0.7C784.5,87.8,784.8,87.8,785.1,87.8z M774.5,82.7c-1.3,0-2.6,0-4,0C772,82.4,773.3,82.4,774.5,82.7z
				 M794.5,86.1c4.3,0,8.6,0,13,0c0.9,0,1.7,0,2.4,0c1.3,0.6,2.6,1.1,3.4,2.2c-2.9,0-5.7,0.1-8.6,0.1c-0.4-0.2-0.8-0.4-1.2-0.5
				c-3.1-1.2-6.1-1.3-9.1-0.6c-0.1,0-0.2,0-0.3,0C794.3,87,794.4,86.5,794.5,86.1z M897.5,83.2c1.5,0.1,3.3,0.1,5.1,0.1
				c-0.2,0.1-0.3,0.3-0.4,0.4c-3.3-0.1-6.4,0-9.7,0.4c-2.2,0.2-4.9,0.5-8.8,0.2c-1.7-0.1-3.5,0.1-4.5,0.2c-0.8,0-2.3,0-2.4,0
				c-1.7-0.6-7.2-0.5-11.9-0.5c-2.8,0-5.5,0-8.3,0c-8.2,0-16.4-0.1-24.7,0.1c-3.9,0.1-3.2,0.2-0.3,0.3l0,0c0.5,0,0.9,0.1,1.4,0.1
				c1.9,0.1,4.4,0,6.7,0h0.1c2.3,0.3,6,0.1,9.2,0.1l0,0c5.2,0.3,11.6,0,17.1,0.2l0,0c6.9,0.2,14.6,0,21.7,0.1
				c4.5,0.1,9.2,0.1,13.8,0.1c0,0.3,0.1,0.6,0.2,0.9c-2.9,0-5.9-0.1-8.9-0.1c-7.1,0-14.5,0.2-21.2,0c-2.7-0.4-6-0.3-9.5,0
				c-3.9-0.1-9.1-0.1-10-0.6c-0.1-0.1-2.7,0-4.2-0.1c-2.4,0-5,0-7.1,0c-4.2-0.1-8.6,0-12.9,0.1c-0.9-1.4-1.5-1.4-2.9,0.1
				c-1.8,0-3.5,0.1-5.3,0.1c-0.4-0.8-1.1-1.5-1.9-2c0.2,0,0.5,0,0.7,0c4.1,0,8.3,0,12.4-0.1c15.3-0.1,30,0.2,45.4,0
				c4.3,0.1,8.9,0,13.3,0l0,0h0.5h0.5l0,0l0,0C892.8,83.3,895.2,83.2,897.5,83.2z M799.6,88.5C799.6,88.5,799.5,88.5,799.6,88.5
				C799.5,88.5,799.6,88.5,799.6,88.5L799.6,88.5L799.6,88.5z M834.6,87.2c-0.8,0-1.7,0-2.5,0c-0.7,0-1.4,0-2.1,0
				c-0.3-0.1-0.7-0.3-1-0.4c2.3,0,4.5,0,6.4,0.1C835.2,86.9,834.9,87,834.6,87.2z M835.7,86.9L835.7,86.9L835.7,86.9
				c0.2,0,0.2,0.1,0.3,0.1C835.9,87,835.8,86.9,835.7,86.9z M833.9,87.9C833.9,87.9,833.9,88,833.9,87.9c-0.7,0.1-1.2,0.1-1.7,0
				C832.8,87.9,833.4,87.9,833.9,87.9z M820.1,86.8c0.3,0,0.7,0,1.1-0.1c0.7,0,1.4,0,2.1,0c-1.1,0.5-2.1,0.9-3.2,1.4
				C820.2,87.7,820.2,87.3,820.1,86.8z M837.2,88C837.2,87.9,837.2,87.9,837.2,88c0.1,0,0.3,0,0.5,0C837.5,87.9,837.4,88,837.2,88z
				 M780.8,88.5c-2.2,0-4.3,0-6.6,0.1c-0.5,0-1,0-1.4,0c-1,0-1.9,0-2.9,0c-0.2-0.1-0.5-0.1-0.7-0.1c-0.4,0-0.9,0-1.3,0.1
				c-5.9-0.2-11.8-0.4-17.6-0.6c10.4,0,20.8-0.1,31.1,0C781.1,88,780.9,88.2,780.8,88.5z M732.9,87.9c1.7,0,3.3,0,5,0
				C736.2,87.9,734.6,87.9,732.9,87.9z M946.3,87.1L946.3,87.1c0.1,0,0.2,0,0.2,0l0,0l0,0C946.4,87.1,946.4,87.1,946.3,87.1z
				 M1971.2,117.9C1971.2,117.9,1971.3,117.9,1971.2,117.9c0.2,0,0.3,0,0.4,0C1971.5,117.9,1971.4,117.9,1971.2,117.9z
				 M1976.5,120.7c0,0,0.1,0,0.2,0l0,0l0,0c0,0-0.2,0-0.3,0C1976.4,120.7,1976.5,120.7,1976.5,120.7z M1976.4,116.1L1976.4,116.1
				c0.1,0,0.2,0,0.2,0l0,0l0,0C1976.5,116.1,1976.5,116.1,1976.4,116.1z M2014.6,115.3L2014.6,115.3L2014.6,115.3L2014.6,115.3
				L2014.6,115.3c-0.3,0.2-1.2,0.3-2.4,0.4c-1.5-0.2-3.2-0.5-5-0.4l4.7,0.4c-1.2,0.1-2.6,0.1-4,0.1l-0.6-0.6l0.1-0.1
				c1.4,0.1,3.2,0.1,4.7,0.1C2012.8,115.3,2013.7,115.3,2014.6,115.3L2014.6,115.3L2014.6,115.3z M2086,120.5h0.1l0,0
				C2086.1,120.5,2086.1,120.5,2086,120.5L2086,120.5z M2022,264.9L2022,264.9c-0.3,0.1-0.6,0.1-0.8,0.1
				C2021.5,265,2021.8,264.9,2022,264.9z M2024.2,283.9L2024.2,283.9C2024.1,283.9,2024.1,283.9,2024.2,283.9
				C2024.1,283.9,2024.2,283.9,2024.2,283.9z M2023.7,284.3c-0.1,0-0.2,0-0.2,0c-0.2,0-0.5,0-0.7,0
				C2023.2,284.3,2023.4,284.3,2023.7,284.3z M2029.5,306.5c5.2,0,9.2-0.1,13,0.1c1.9,0.1,5.1,0.1,3.8-0.2c-1.7-0.4,1.2-0.4,4.1-0.4
				c3.7-0.1,7.5-0.1,11.1-0.2c0,0.2-0.1,0.4-0.1,0.6l0,0c-3.2,0.1-6.4,0.2-9.7,0.3c-6.4,0.1-12.7,0.2-19.1,0.2
				C2031.5,306.7,2030.4,306.7,2029.5,306.5z M1768.7,116.8c0.1,0,0.1,0,0.2,0C1768.8,116.8,1768.8,116.9,1768.7,116.8
				C1768.7,116.9,1768.7,116.8,1768.7,116.8z M1860.8,115.8c-0.2,0.1-0.4,0.3-0.5,0.4c-1.5,0-2.8,0.1-3.4,0.2
				c-0.8,0.2,0.4,0.3,2.3,0.4c-0.3,0.1-0.6,0.2-0.9,0.3c-0.8,0-1.5,0-2.3,0c-1.2,0-2.4,0-3.5,0c-0.8-0.5-1.6-0.9-2.4-1.4
				c0.4,0,0.8,0,1.3-0.1C1854.3,115.8,1857.7,115.8,1860.8,115.8z M1901.7,114.8c-2.7-0.4-6-0.3-9.5,0c-3.8-0.1-8.7-0.1-9.9-0.6
				c1.4,0,2.8,0,4.3,0c1.3,0,3,0,4.3,0c0.7,0,1.2,0,1.4-0.1c0,0,0.1,0,0,0s-0.5-0.1-1.5-0.1s-2.7,0-4,0c-1.5,0-3.2,0-4.8,0
				c1.6-0.1,3.3-0.1,4.9-0.2c3.1,0,6.2,0,9.1,0l0,0c4,0.1,8.3,0.1,12.7,0.1c-0.9,0.3-1.7,0.6-2.6,0.9
				C1904.6,114.8,1903.1,114.8,1901.7,114.8z M2013.8,118.1c-0.1,0-0.1,0-0.2,0c0,0,0,0-0.1,0
				C2013.6,118.1,2013.7,118.1,2013.8,118.1z M1910.5,113.3c-0.5,0.1-0.9,0.1-1.3,0.2c-0.8,0-2.3,0-2.4,0c-1.7-0.6-7.2-0.5-11.9-0.5
				c-0.1,0-0.3,0-0.4,0c0-0.3-0.2-0.6-0.6-0.7c4.1,0,8.3,0,12.5-0.1c2.8,0.1,5.7,0,8.6,0C1913.5,112.5,1912,112.9,1910.5,113.3z
				 M1060.6,87.5L1060.6,87.5l0.1-0.2l0,0C1060.7,87.3,1060.6,87.4,1060.6,87.5z M2120.5,162.3c3.4-0.6,7.5-0.7,11.7-0.1
				C2128,162.4,2124.2,162.4,2120.5,162.3z M2017.6,115.1c-1.3-0.1-3.2-0.2-5.1-0.2c-1.5,0-3.3-0.1-4.7-0.1l0.2-0.2
				c0.3-0.1,0.5-0.3,0.8-0.4c0.9,0,2,0,2.9,0.1c11.2,0.1,22.6,0.1,33.4,0.4l0,0c2.1,0.2,4.2,0.3,6.4,0.4c-1.1,0.4-2.9,0.6-4.4,0.9
				C2037.6,115.6,2027.9,115.3,2017.6,115.1z M2049.8,110.1h0.1c0.5,1,1.8,1.7,2.4,2.6c-1.7-0.1-3.4-0.1-5.1-0.2
				C2050.2,112.3,2049.7,111.3,2049.8,110.1z M2022.1,112.8c0.3,0.1,0.8,0.1,1.2,0.1c0.7,0,1.6,0,2.5,0s2.6-0.1,3.6,0
				c0.7,0,1.4,0.1,2,0.3c-0.6,0-1.2,0-1.3,0.1c-0.1,0.1,1.2,0.2,1.9,0.3l0,0l0,0c-0.5,0.1-1,0.2-1.5,0.3c-5.7-0.2-11.8-0.1-17.7-0.1
				c-1.1,0-2.4,0-3.5,0c0.3-0.2,0.5-0.4,0.6-0.7c0.4,0,0.7,0,1.2,0C2015.2,112.8,2018.6,112.8,2022.1,112.8z M1947.4,111.8
				c0.1,0,0.8,0,1.2,0c8.4-0.1,16.3,0.2,25-0.1c2.9,0.1,5.7,0.2,8.8,0.3c3.7,0.1,7,0.4,11.6,0.1l0,0c0.9,0,1.7,0,2.6,0
				c2.6,1,5.1,2,6.5,3.6c-5.6-0.4-13.3-0.1-19.7-0.2l0,0l0,0l0,0l0,0h0.1c-5.7-0.3-12.3-0.1-18.5-0.1c-2.7-0.2-5.9-0.2-9.2-0.1l0,0
				l0,0c-0.3,0-0.5,0-0.8,0c-1.5-0.4-3-0.8-4.5-1.2c5.7,0,11.4,0,17.1-0.1c2.6,0,5.2-0.1,7.8-0.1c0.2,0,0.5,0,0.8,0
				c1.8,0.1,3.9,0,5.7,0.1l0,0c1.5,0.1,3.4,0,5.2,0c1.6,0.1,3.4,0.1,5.1,0c0.7-0.1,0.1-0.1-0.9-0.1c-13.3-0.2-26.6-0.3-39.4-0.6
				c-0.1,0-0.1,0-0.2,0c0,0,0,0-0.1,0h0.2c-1.7-0.3-4.2-0.4-7.5-0.4c-3.4-0.6-6.9-1.1-10.3-1.3
				C1939.1,111.3,1944.2,111.3,1947.4,111.8z M1898.2,111.2c6.5,0.2,14.3,0,20.3,0.3l0,0c0.4,0,0.9,0,1.4,0
				c-1.1,0.1-2.2,0.3-3.2,0.4c-9.1,0-18.2-0.1-27.2-0.1c-0.5-0.1-0.9-0.3-1.1-0.6c3,0,6,0,9.1,0l0,0l0,0l0,0h-0.1
				C1897.6,111.1,1897.9,111.1,1898.2,111.2z M1545.2,97.4L1545.2,97.4L1545.2,97.4L1545.2,97.4L1545.2,97.4z M1485.2,87.2
				c2.4,0.3,4.8,0.1,7.4-0.8c1.6-0.6,5.4-0.6,4.1,2.2l0,0c-1.8,0-3.5,0.1-5.3,0.1c-2.2,0-4.4,0.1-6.6,0.1
				C1485.1,88.1,1485.2,87.6,1485.2,87.2z M1470,86.3c-1,0.1-2,0.2-2.9,0.2C1468.1,86.2,1469.1,86.1,1470,86.3z M1183.9,88.8
				L1183.9,88.8L1183.9,88.8L1183.9,88.8z M1015,85.6c0.3,0,0.6,0,0.9,0.1c0,0.2,0.1,0.4,0.3,0.6c0.3-0.2,0.6-0.3,0.9-0.5
				c1.6,0.1,3.2,0.2,4.8,0.3l0,0l0,0c0.8,0,1.6,0.1,2.4,0.1c-3.8,0.1-7.5,0.1-11.3,0.2c-0.3-0.1-0.6-0.1-0.9-0.2
				c-0.9-0.2-1.5,0-2.1,0.3c-1.4,0-2.8,0.1-4.2,0.1c-0.2,0-0.3,0-0.5,0c0.1-0.1,0.2-0.3,0.3-0.4c-0.8,0.1-1.6,0.2-2.3,0.4
				c-5.1-0.1-10.4-0.3-15.8-0.3c-0.2,0-0.4,0-0.6,0c1.1,0,2.2,0.1,3.4,0.1c0.1-0.3,0.2-0.6,0.3-0.9
				C998.8,85.4,1007.1,85.4,1015,85.6L1015,85.6z M1003.3,83.9L1003.3,83.9c0.2,0.1,0.2,0.3,0.3,0.4c-0.3,0-0.6,0-0.9,0
				c-0.7,0-1.9,0-2.4,0c0.1-0.1,0.1-0.2,0.1-0.4C1001.4,83.8,1002.4,83.8,1003.3,83.9z M1005.7,84.1c-0.3,0.1-0.7,0.1-1.2,0.1
				c0.2-0.1,0.4-0.2,0.6-0.3C1005.7,84,1006,84,1005.7,84.1z M1000.2,84.3c0.4,0.1,1.3,0.1,1.8,0.2l0,0l0,0c-0.5,0.1-1,0.2-1.5,0.3
				c-0.2,0-0.5,0-0.7,0C1000,84.6,1000.1,84.5,1000.2,84.3z M1003.1,83.1c-0.8,0-1.6,0-2.4-0.1C1000.9,82.4,1002.5,82,1003.1,83.1z
				 M993.4,83.8c0.2,0.4,0.6,0.7,1.4,0.9c-1.3,0-2.6,0-3.9,0c0.1-0.3,0.2-0.6,0.3-0.9C991.9,83.8,992.6,83.8,993.4,83.8z
				 M917.3,82.8c0.1,0,0.8,0,1.2,0c8.4-0.1,16.3,0.2,25-0.1c2.9,0.1,5.7,0.2,8.8,0.3c3.7,0.1,7,0.4,11.6,0.1l0,0
				c3.7,0,7.5,0,10.2,0.2c-0.6,0.5,0.6,1,7.1,0.7c0.7,0,1.4-0.1,2.1-0.1c0,0.2-0.1,0.5-0.1,0.7c-0.1,0-0.2,0-0.3,0
				c-2.1,0-4.9,0-5.5,0.2c-0.6,0.3,2.3,0.3,4.3,0.3c0.5,0,1,0,1.5,0c0,0.2,0,0.5,0.1,0.8c-0.3,0-0.5,0-0.8,0c-2.5,0-6.2-0.3-7.2,0
				c-1.1,0.3,3.6,0.4,6.7,0.4c0.4,0,0.9,0,1.3,0v0.1c0.2-0.1,0.4-0.1,0.7-0.1c0.2,0,0.4,0,0.6,0l0,0l0,0l0,0l0,0h0.1l0,0
				c-0.8,0.4-3.8,0.5-7.1,0.5c-0.1,0-0.1,0-0.2,0c-0.6,0-1.2,0-1.7,0l0,0c-0.8-0.1-1.6-0.1-2.4-0.2c-5.6-0.5-13.4-0.1-20-0.2l0,0
				l0,0l0,0l0,0h0.1c-5.7-0.3-12.3-0.1-18.5-0.1c-2.7-0.2-5.9-0.2-9.2-0.1l0,0l0,0c-4.2,0-8.5-0.1-12.5-0.2c-2.1,0-4.3-0.1-6.4-0.1
				c0.3-0.1,0.5-0.3,0.8-0.4c-0.1-0.2-0.2-0.4-0.4-0.5c10,0,20.1,0,30.4-0.2c2.6,0,5.2-0.1,7.8-0.1c0.2,0,0.5,0,0.8,0
				c1.8,0.1,3.9,0,5.7,0.1l0,0c1.5,0.1,3.4,0,5.2,0c1.6,0.1,3.4,0.1,5.1,0c0.7-0.1,0.1-0.1-0.9-0.1c-13.3-0.2-26.6-0.3-39.4-0.6
				c-0.1,0-0.1,0-0.2,0c0,0,0,0-0.1,0h0.2c-2.1-0.4-5.7-0.5-10.7-0.3c-1.5,0-3.1,0-4.7,0c-0.1-0.2-0.3-0.4-0.4-0.6
				c1.4-0.1,0.9-0.1-0.1-0.2c-0.2-0.2-0.3-0.4-0.5-0.7C909.8,82.3,914.4,82.3,917.3,82.8z M818.2,81.8
				C818.3,81.9,818.3,81.9,818.2,81.8c0.1,0.1,0.1,0,0.2,0c0.9-0.1,1.7-0.1,2.6-0.2c1-0.1,2.9-0.1,4.4-0.1c0.1,0,0.1,0.1,0.2,0.1
				c0,0,0,0,0-0.1c0.8,0,1.5,0.1,2,0.2c0.3,0.1,1.2,0.2,2.7,0.2l0,0c4.7-0.1,8.4,0.2,13.1,0.1l0,0l0,0c2.5,0.1,5.2,0.1,7.9,0l0,0
				l0,0c5.1,0.1,10.4,0.1,15.9,0l0,0l0,0l0,0h-0.1c0.3,0,0.6,0,0.9,0c6.5,0.2,14.3,0,20.3,0.3l0,0c2.1,0.2,4.3,0.1,6.6-0.1
				c2.8,0,5.9,0,8.9-0.1c-0.3,0.2-0.6,0.4-0.9,0.6c-1.2,0-2.5,0-3.9,0l0,0c-3.4-0.1-7.1,0-10.6,0l0,0c-14.6,0-29.2-0.1-43.8-0.1
				c-8.8,0-17.4-0.2-26.5,0.2c-0.3,0-0.6,0-1,0c-0.2-0.1-0.3-0.2-0.5-0.3c-0.2-0.3-0.3-0.5-0.5-0.8
				C816.9,81.9,817.6,81.9,818.2,81.8z M799.9,82.1c0.8,0,1.6,0,2.3,0c-1.2,0.3-2.3,0.7-3.3,1.5c2.6,1.1,3.6,1.5,4.3,0.8
				c0.1,0,0.2,0,0.3,0c0.9,0,2.4,0,2.3-0.2c-0.1-0.1-1.2-0.2-2.4-0.2c0.3-0.4,0.6-1.1,1-2c1.4,0,2.8,0,4.2,0c-0.5,1-1.5,1.9-3.2,2.6
				c0.8,0.4,1.6,0.4,2.5,0.3c0.3,0.2,0.5,0.3,0.8,0.5c-1.8,0-3.5,0-5.4,0c-2.8-0.1-5.8-0.1-8.7,0c0.2-0.9,0.3-2,0.4-3.3
				C796.7,82.1,798.3,82.1,799.9,82.1z M791.3,82.1c-0.3,0.3-0.7,0.6-1,0.9l-0.8,0.1c0,0-0.1-0.6-0.2-0.6c0-0.1,0-0.3,0-0.4
				C790,82.1,790.6,82.1,791.3,82.1z M697.4,82.7c-0.1,0-0.2-0.1-0.4-0.1c1.4-0.2,3.7-0.2,5.6-0.2l0,0l0,0c3,0,6-0.1,9-0.1
				c8.9,0.2,18.3,0.1,27.6,0c3.8,0.1,8,0,12,0l0,0h0.5h0.5c3,0.1,6.3,0,9.5,0l0,0c0.7,0,1.3,0,2,0c0.2,0.2,0.3,0.4,0.5,0.6
				C741.8,82.8,719.1,83.1,697.4,82.7z M775,84.1c-2.3-0.1-4.8-0.1-7.4-0.1c0.4-0.3,0.9-0.5,1.3-0.7c2.3,0,4.5,0,6.8-0.1
				c0.4,0.2,0.8,0.5,1.2,0.8C776.3,84.1,775.6,84.1,775,84.1z M595.9,87.5C595.9,87.5,595.8,87.5,595.9,87.5
				c-0.1-0.2-0.1-0.5-0.1-0.7C595.7,87,595.8,87.3,595.9,87.5z M569,88.2c0.1,0,0.2,0,0.3,0c-0.3,0-0.5,0-0.8,0
				C568.7,88.2,568.8,88.2,569,88.2z M551.7,88c0.2,0,0.3,0,0.5,0c-0.1,0-0.1,0-0.2,0C551.9,88.1,551.7,88.1,551.7,88
				C551.6,88.1,551.3,88.1,551.7,88z M524.9,89L524.9,89c-0.1,0-0.3,0-0.4,0C524.6,89,524.7,89,524.9,89z M515.2,88.2
				c0.1,0,0.2,0,0.2,0S515.4,88.2,515.2,88.2C515.3,88.2,515.3,88.2,515.2,88.2L515.2,88.2L515.2,88.2L515.2,88.2L515.2,88.2
				L515.2,88.2z M496.8,89.4L496.8,89.4L496.8,89.4L496.8,89.4z M509.6,90c-4,0.2-8,0.4-11.9,0.7c-1.6,0-3.2,0-4.8,0
				c-0.3-0.2-0.6-0.4-0.8-0.5C497.9,90.1,503.8,90,509.6,90z M479.8,90.4c1.6-0.3,3.7-0.2,5.8-0.2c-0.2,0.1-0.4,0.3-0.6,0.4
				C483.1,90.6,481.4,90.5,479.8,90.4L479.8,90.4z M291,88.9L291,88.9C291,88.9,290.9,88.9,291,88.9L291,88.9z M289.8,88.4
				C289.7,88.4,289.7,88.4,289.8,88.4C289.7,88.4,289.7,88.4,289.8,88.4C289.7,88.4,289.7,88.4,289.8,88.4z M135,129.5
				c-0.3,0-0.7,0-1,0s-0.5,0-0.8,0C133.8,129.5,134.4,129.5,135,129.5z M130.7,138.5L130.7,138.5L130.7,138.5L130.7,138.5z
				 M129.3,129.8L129.3,129.8L129.3,129.8c-0.1,0-0.1,0-0.1,0H129.3z M177.7,120.8c0.1,0,0.1,0,0.2,0h0.1
				C177.9,120.8,177.8,120.8,177.7,120.8z M178.8,119.4c0.2,0,0.3,0,0.5,0l0,0l0,0C179.1,119.5,178.9,119.5,178.8,119.4
				C178.8,119.5,178.8,119.5,178.8,119.4z M192.8,144.4h-0.1h-0.1C192.6,144.4,192.7,144.4,192.8,144.4L192.8,144.4z M268.6,88.8
				L268.6,88.8L268.6,88.8L268.6,88.8L268.6,88.8c-0.1,0-0.1,0-0.1,0H268.6z M267.3,92.5L267.3,92.5c-0.1,0-0.2,0-0.4,0
				C267,92.6,267.2,92.5,267.3,92.5z M229.1,93.1C229.1,93.1,229.2,93.1,229.1,93.1L229.1,93.1L229.1,93.1z M197.4,97.1
				C197.4,97.1,197.5,97.1,197.4,97.1L197.4,97.1L197.4,97.1z M196.9,94.3c0,0-0.1,0-0.2,0.1c-0.2,0-0.3,0-0.5,0
				C196.2,94.4,196.5,94.3,196.9,94.3z M195.7,96.8c0.4,0,0.7,0,1,0.1c-0.4,0-0.8,0.1-1.3,0.1C195.6,96.9,195.7,96.8,195.7,96.8z
				 M192.2,94.2L192.2,94.2L192.2,94.2L192.2,94.2z M177.7,106.9L177.7,106.9h0.1H177.7z M177.7,104.5h0.1H177.7L177.7,104.5z
				 M177,102.4c0.3,0,0.5,0,0.8,0C177.5,102.4,177.2,102.4,177,102.4C176.9,102.5,177,102.4,177,102.4z M176.5,105
				c-0.1,0-0.1,0-0.2,0l0,0C176.3,104.9,176.4,104.9,176.5,105z M173.9,108.6C173.9,108.6,173.8,108.6,173.9,108.6
				C173.8,108.6,173.8,108.6,173.9,108.6C173.8,108.6,173.8,108.6,173.9,108.6z M170,113.7C170,113.7,169.9,113.7,170,113.7
				c-0.1,0-0.2,0-0.2,0S169.9,113.7,170,113.7z M163.4,125.4h0.1H163.4L163.4,125.4z M158.9,113.6c0.2,0,0.3,0,0.5,0
				c-0.4,0-0.8,0.1-1.2,0.1C158.4,113.6,158.7,113.6,158.9,113.6z M155.3,104.7L155.3,104.7L155.3,104.7
				C155.2,104.7,155.3,104.7,155.3,104.7z M152.8,109.6L152.8,109.6L152.8,109.6L152.8,109.6z M151,113.9L151,113.9
				c-0.5,0-0.8,0-1.2,0C150.3,113.9,150.6,113.9,151,113.9z M142.1,95.9c-0.1,0-0.2,0-0.2,0c-0.1,0-0.1,0-0.2,0
				C141.8,95.9,142,95.9,142.1,95.9z M140.9,107.4L140.9,107.4L140.9,107.4C140.9,107.4,140.8,107.4,140.9,107.4L140.9,107.4z
				 M139.6,107.8L139.6,107.8C139.6,107.8,139.5,107.8,139.6,107.8c-0.1,0-0.1,0-0.1,0H139.6z M137.5,95.5c0.2,0,0.4,0,0.6,0l0,0
				l0,0C137.9,95.5,137.7,95.5,137.5,95.5C137.4,95.5,137.5,95.5,137.5,95.5z M135.6,103.7C135.5,103.7,135.5,103.7,135.6,103.7
				c-0.1,0-0.2,0-0.2,0C135.4,103.7,135.5,103.7,135.6,103.7z M130.3,108.2L130.3,108.2L130.3,108.2L130.3,108.2z M126.6,125.4
				c-0.1,0-0.3,0-0.4,0s-0.1,0-0.2,0C126.2,125.4,126.4,125.4,126.6,125.4z M125.3,127.9L125.3,127.9
				C125.3,127.9,125.2,127.9,125.3,127.9L125.3,127.9z M-22.5,234.3c-0.2,0-0.4,0-0.6,0c0.1-0.1,0.2-0.1,0.3-0.2
				C-22.7,234.2-22.6,234.3-22.5,234.3z M79.3,141.8L79.3,141.8c-0.1,0-0.1,0-0.2,0C79.2,141.8,79.3,141.8,79.3,141.8z M67,139.8
				c0.2,0,0.3,0,0.5,0c-0.4,0.1-0.9,0.1-1.5,0.1C66.3,139.9,66.6,139.8,67,139.8z M66.1,140.1L66.1,140.1L66.1,140.1L66.1,140.1z
				 M66.2,147.2L66.2,147.2C66.1,147.2,66.1,147.2,66.2,147.2L66.2,147.2z M63.8,139.9c-0.3,0-0.6,0-0.8,0c-0.1,0-0.1,0-0.2,0
				C63.2,139.9,63.5,139.9,63.8,139.9z M59.7,150.9c-0.1,0-0.2,0-0.2,0h0.1C59.6,150.9,59.6,150.9,59.7,150.9z M58.4,155.7
				c-0.7,0-1.3,0-1.9,0c0.4,0,0.9,0,1.4,0C58.1,155.7,58.3,155.7,58.4,155.7z M55.7,151.9L55.7,151.9
				C55.6,151.9,55.7,151.9,55.7,151.9L55.7,151.9z M51.7,148.7c-0.1,0-0.2,0-0.4,0c-0.1,0-0.1,0-0.2,0
				C51.4,148.7,51.5,148.7,51.7,148.7z M46.4,157.2L46.4,157.2L46.4,157.2L46.4,157.2L46.4,157.2L46.4,157.2L46.4,157.2L46.4,157.2z
				 M30.6,151.7L30.6,151.7L30.6,151.7L30.6,151.7z M18.7,145.9c-0.1,0-0.2,0-0.4,0C18.5,145.9,18.6,145.9,18.7,145.9L18.7,145.9z
				 M41.2,148.6c-0.1,0-0.2,0-0.3,0H41C41,148.6,41.1,148.6,41.2,148.6z M27.4,120.5c0.1,0,0.2,0,0.2,0h-0.1H27.4z M16.2,152
				L16.2,152c-0.1,0-0.1,0-0.1,0l0,0H16.2z M10.8,148.9L10.8,148.9L10.8,148.9L10.8,148.9z M9.6,155.1c-0.1,0-0.2,0-0.4,0H9.1
				C9.3,155.1,9.4,155.1,9.6,155.1z M4.7,152C4.7,152.1,4.7,152.1,4.7,152c-0.2,0-0.3,0-0.4,0C4.4,152,4.6,152,4.7,152z M5.2,121.5
				L5.2,121.5L5.2,121.5L5.2,121.5z M96.4,155.8c0.1,0,0.1,0,0.2,0h0.1C96.6,155.8,96.5,155.8,96.4,155.8z M97.6,156.2
				c0.1,0,0.2,0,0.2,0s0.1,0,0.2,0C97.8,156.2,97.7,156.2,97.6,156.2z M90,153.1L90,153.1c-0.1,0-0.1,0-0.2,0
				C89.9,153.1,90,153.1,90,153.1z M123.9,121.9L123.9,121.9L123.9,121.9c-0.1,0-0.1,0-0.2,0C123.8,121.9,123.9,121.9,123.9,121.9z
				 M121.5,121.5c-0.1,0-0.1,0-0.2,0l0,0C121.3,121.5,121.3,121.5,121.5,121.5C121.4,121.5,121.4,121.5,121.5,121.5z M121.1,105.8
				c-0.1,0-0.2,0-0.3,0c0,0,0,0-0.1,0C120.8,105.8,121,105.8,121.1,105.8z M114.5,108.6L114.5,108.6L114.5,108.6L114.5,108.6z
				 M114.6,115.8c-0.2,0-0.3,0-0.5,0.1c-0.1,0-0.2,0-0.2,0C114.1,115.8,114.4,115.8,114.6,115.8z M113.3,114.7L113.3,114.7
				C113.2,114.7,113.2,114.7,113.3,114.7C113.2,114.7,113.3,114.7,113.3,114.7z M109.6,139c-0.1,0-0.2,0-0.2,0l0,0
				C109.5,139,109.5,139,109.6,139z M107.8,115.2c0.1,0,0.2,0,0.3,0l0,0C107.9,115.2,107.8,115.2,107.8,115.2
				C107.7,115.2,107.7,115.2,107.8,115.2z M101.5,119.1C101.5,119.1,101.6,119.1,101.5,119.1C101.6,119.1,101.6,119.1,101.5,119.1
				L101.5,119.1C101.4,119.1,101.5,119.1,101.5,119.1z M100.1,118.2L100.1,118.2L100.1,118.2L100.1,118.2z M96.2,119.1L96.2,119.1
				C96.1,119.1,96.1,119.1,96.2,119.1L96.2,119.1z M92.6,121.8c0.2,0,0.4,0,0.6,0C92.9,121.8,92.7,121.8,92.6,121.8
				S92.5,121.8,92.6,121.8z M83.4,129.5C83.4,129.4,83.4,129.4,83.4,129.5C83.4,129.4,83.4,129.4,83.4,129.5c0.1,0,0.2,0,0.3,0
				C83.6,129.4,83.5,129.4,83.4,129.5z M83,100.8L83,100.8c0,0-0.1,0-0.2,0C82.9,100.8,82.9,100.8,83,100.8z M80.1,119.9
				c0.1,0,0.1,0,0.2,0C80.2,119.9,80.1,119.9,80.1,119.9L80.1,119.9z M70,131.6c-0.1,0-0.2,0-0.4,0h-0.1c-0.1,0-0.1,0-0.2,0
				C69.5,131.5,69.8,131.5,70,131.6z M68.3,102.3L68.3,102.3c0,0-0.1,0-0.2,0C68.2,102.3,68.2,102.3,68.3,102.3z M67.3,128.6
				L67.3,128.6L67.3,128.6C67.2,128.6,67.2,128.6,67.3,128.6z M65.7,116c0.1,0,0.1,0,0.2,0C65.8,116,65.7,116,65.7,116
				C65.6,116,65.6,116,65.7,116z M63.3,121.3L63.3,121.3c-0.1,0-0.3,0-0.4,0c-0.1,0-0.1,0,0-0.1C63,121.3,63.1,121.3,63.3,121.3z
				 M60.6,119.3L60.6,119.3h-0.2C60.4,119.3,60.5,119.3,60.6,119.3z M52.7,119.6C52.7,119.6,52.6,119.6,52.7,119.6
				C52.6,119.6,52.6,119.6,52.7,119.6C52.6,119.6,52.6,119.6,52.7,119.6z M51.1,99.6L51.1,99.6L51.1,99.6L51.1,99.6z M49.6,99.2
				c0.1,0,0.1,0,0.2,0C49.7,99.2,49.7,99.2,49.6,99.2L49.6,99.2z M48.5,103.2c0,0-0.1,0-0.2,0h-0.1
				C48.3,103.2,48.4,103.2,48.5,103.2z M45.9,106.1L45.9,106.1L45.9,106.1L45.9,106.1L45.9,106.1z M34.2,120.7L34.2,120.7
				L34.2,120.7L34.2,120.7z M19.7,140.4c0.1,0,0.1,0,0.2,0C19.8,140.4,19.7,140.4,19.7,140.4C19.6,140.4,19.7,140.4,19.7,140.4z
				 M17,108.3c-0.1,0-0.1,0-0.2,0l0,0C16.2,108.2,17.1,108.2,17,108.3z M15.8,127.1c0.1,0,0.1,0,0.2,0
				C16,127.1,15.9,127.1,15.8,127.1L15.8,127.1z M2.5,117.5L2.5,117.5L2.5,117.5L2.5,117.5z M-0.2,118.3c-0.1,0-0.1,0-0.2,0
				C-0.3,118.3-0.2,118.3-0.2,118.3C-0.1,118.3-0.2,118.3-0.2,118.3z M0.5,120.6L0.5,120.6c-0.2,0-0.3,0-0.5,0l0,0
				C0.1,120.6,0.3,120.6,0.5,120.6z M0.4,106.3L0.4,106.3c-0.4,0-0.6,0-0.9,0C-0.2,106.3,0.1,106.3,0.4,106.3z M-4.2,108.8
				c-0.1,0-0.1,0-0.2,0s-0.2,0-0.2,0C-4.5,108.8-4.3,108.8-4.2,108.8z M-12,115.8L-12,115.8L-12,115.8L-12,115.8L-12,115.8h-0.1H-12
				z M-14.6,126h0.1C-14.6,126-14.6,126-14.6,126C-14.7,126-14.7,126-14.6,126z M-15.9,121.7L-15.9,121.7L-15.9,121.7L-15.9,121.7z
				 M-23.5,143.8L-23.5,143.8L-23.5,143.8L-23.5,143.8L-23.5,143.8z M-33.1,149.3c0.1,0,0.3,0,0.4,0l0,0
				C-32.8,149.3-32.9,149.3-33.1,149.3z M-31.4,305.9c-2.1,0-4.3,0-6.5,0C-35.7,305.8-33.5,305.8-31.4,305.9
				C-31.4,305.8-31.4,305.9-31.4,305.9z M-28.5,305.9L-28.5,305.9c0.2,0,0.3,0,0.5,0C-28.1,305.9-28.3,305.9-28.5,305.9z
				 M-23.6,276.7c-4.5,0.3-9,0.4-13.4-0.6c1.5,0,3,0.1,4.6,0.4c3.6,0,7.2-0.1,10.8-0.1C-22.4,276.4-23.1,276.5-23.6,276.7z
				 M-17.8,276.4c-0.4,0-0.9-0.1-1.4-0.1c2.4,0,4.8-0.1,7.2-0.1c0,0.1,0,0.1,0,0.2C-14,276.3-15.9,276.3-17.8,276.4z M-6.8,277
				c-0.1-0.6-0.1-1.2,0.2-2.1l0,0c2-0.1,4.1-0.1,6.1-0.2c0.2,1,1.2,1.8,2.6,2.5C-0.9,277.3-3.9,277.3-6.8,277z M-6.6,334.5
				L-6.6,334.5c-2.4-6.5,4.5-6.6,7.4-5.3c7.2,3,13.4,2.7,19.9-0.8c0.6-0.3,1.6-0.1,2.4-0.3c1.3-0.2,2.5-0.3,3.7-0.2
				c1,2.6,6.9,2.9,8.6,5.1c-0.6,0.5-1.2,0.9-1.7,1.1c-10.2,0.1-20.4,0.3-30.6,0.4C-0.2,334.5-3.4,334.5-6.6,334.5z M47,393.4
				c-2.6,0.9-5.3,1.7-7.9,2.5c-0.3-0.3-0.6-0.5-0.9-0.9c-3.1,1.7-6.4,2.8-10.1,2.3c-0.6-0.1-1.3,0.1-1.7-0.1c-4.6-2.4-9-2.5-14-0.2
				c-2,0.9-6.8,1-5.3-3.7l0,0c2.3-0.1,4.5-0.1,6.8-0.2c11.4-0.1,22.8-0.3,34.2-0.4C47.7,392.8,47.4,393,47,393.4z M92.7,324.8
				c-0.1,0.2-0.4,0.4-0.8,0.5c-2.4,0-4.8,0.1-7.2,0.1l0,0l0,0c-0.8,0-1.6,0-2.4,0c-0.3-0.9,0.3-2.1,1.7-1.9
				c-0.7-0.4-3.6-0.2-5.5-0.4c4.9-0.1,9.7-0.1,14.6-0.2c0.1,0.1,0.2,0.1,0.2,0.2c-1.1,0.1-2.3,0.3-3.5,0.4
				C89.2,324.6,90.9,324.7,92.7,324.8z M208.6,418.9c-2.3,0.1-4.7,0.1-7,0c3.4,0,6.7,0,10.1-0.1
				C210.7,418.8,209.7,418.8,208.6,418.9z M219.3,418.6c2.1,0,4.2-0.1,6.2,0c0.1,0,0.1,0,0.2,0C223.6,418.5,221.5,418.5,219.3,418.6
				z M687.2,418.3c0.2-0.1,0.4-0.2,0.5-0.3c1.4,0,2.8,0,4.2,0L687.2,418.3z M1549.8,398.8c-0.4,0-0.8,0-1.3,0l0,0l0,0
				c0.2-0.2,0.5-0.4,0.8-0.6c0.2,0,0.4,0.1,0.6,0.1C1549.8,398.4,1549.8,398.6,1549.8,398.8z M1555.6,401.8L1555.6,401.8
				L1555.6,401.8L1555.6,401.8z M1615.1,404.1c1.6,0,3.3,0,4.9-0.1C1618.5,404.3,1616.7,404.3,1615.1,404.1z M1907.4,381.2l0.1-0.1
				c3,0,6-0.1,9-0.2C1913.5,381.1,1910.5,381.2,1907.4,381.2z M1946.1,350.1c-1.4,0.1-2.7,0.1-4.1,0.1c0.9-0.3,1.9-0.6,3.2-0.8
				C1946.6,349.5,1946.3,349.8,1946.1,350.1z M2037.4,296.9C2037.5,296.9,2037.5,296.9,2037.4,296.9c0.2,0,0.2,0,0.3,0
				C2037.6,296.9,2037.5,296.9,2037.4,296.9z M2076.9,288.5L2076.9,288.5c-0.1,0-0.2,0-0.2,0
				C2076.8,288.5,2076.9,288.5,2076.9,288.5z M2053.9,294.4L2053.9,294.4C2054,294.4,2054,294.4,2053.9,294.4L2053.9,294.4z
				 M2079.2,289.2c-1.2,0.1-2.6,0.1-4,0.1l4.5-0.3C2079.6,289.1,2079.6,289.2,2079.2,289.2z M2087.4,286.1L2087.4,286.1
				L2087.4,286.1L2087.4,286.1z M2054.3,273.1c1.6,0,3.2,0,4.8,0c0.3,0.1,0.5,0.3,0.8,0.5c-2.4-0.1-4.9-0.2-7.9-0.2l0,0
				C2051.6,273.2,2052.9,273.1,2054.3,273.1z M2043.3,277.5C2043.3,277.6,2043.4,277.6,2043.3,277.5c-0.3,0.1-0.6,0.1-0.9,0.1
				C2042.8,277.6,2043.1,277.5,2043.3,277.5z M2040.4,272.5c-0.7,0-1.4,0-2.1,0l0,0l0,0c-0.4,0-0.9,0-1.3,0c0-0.1,0-0.2,0-0.2
				c0.6,0,1.2,0,1.7,0l0,0l0,0h0.6h0.5c0.2,0,0.4,0,0.6,0C2040.3,272.4,2040.3,272.5,2040.4,272.5z M2041.1,271.8
				c-1.4,0-2.8,0-4.2,0v-0.1c-1.1,0-1.8,0.1-2.3,0.2c-1.1,0-2.1,0-3.1,0c-0.1,0-0.3-0.1-0.4-0.1c0,0.1,0,0.1,0,0.1
				c-2.3,0-4.5,0-6.6-0.1l0.1-0.1c5-0.2,10.2-0.2,15.2-0.2c0.1,0,0.2,0,0.3,0c-0.1,0.1-0.3,0.1-0.4,0.2
				C2039.9,271.4,2040.8,271.6,2041.1,271.8z M2052.8,256.8L2052.8,256.8L2052.8,256.8c-0.1,0-0.1,0-0.1,0
				S2052.7,256.8,2052.8,256.8z M2046.1,251.6L2046.1,251.6L2046.1,251.6C2046.1,251.6,2046.2,251.6,2046.1,251.6
				C2046.2,251.6,2046.2,251.6,2046.1,251.6L2046.1,251.6L2046.1,251.6L2046.1,251.6z M2074.8,203.6c0.1-0.1,0.3-0.1,0.4-0.2
				c0.1,0.1,0.2,0.1,0.3,0.2C2075.2,203.6,2075,203.6,2074.8,203.6z"/>
			<path class="st1" d="M2140.5,212.1l-1.7,2.2c0.5-0.1,0.9-0.1,1.4-0.2C2140.9,213.5,2140.4,212.8,2140.5,212.1z"/>
			<path class="st1" d="M1375.1,409.6L1347,408C1354.9,410.4,1365.7,410.4,1375.1,409.6z"/>
			<path class="st1" d="M1421.9,412.2c0.8,0.1,1.6,0.1,2.5,0.1c0.3-0.1,0.7-0.2,1-0.3l-5.3-1.8
				C1420.8,410.8,1421.2,411.6,1421.9,412.2z"/>
			<path class="st1" d="M1265.4,84.3c0-0.1-0.1-0.2-0.2-0.4c-0.2,0-0.5,0.1-0.5,0.1c0,0.1,0.1,0.2,0.2,0.4
				C1265.1,84.4,1265.4,84.4,1265.4,84.3z"/>
			<path class="st1" d="M-7,332.3c6.3,0.1,5.7-1.7,4.5-3.4C-6.7,328.9-6.8,330.6-7,332.3z"/>
			<path class="st1" d="M-33.4,332.8c0-0.7,0-1.3,0-2c-1.5,0-2.9,0-4.4,0.1C-36.2,331.4-37.3,333.3-33.4,332.8z"/>
			<path class="st1" d="M242.8,425.8c3.4,1.6,2.7-1,7.3-0.8C249.9,423,242.3,423.7,242.8,425.8z"/>
			<path class="st1" d="M399.4,431.3c0-0.7,0-1.3,0-2C395.1,428.4,395.1,432.4,399.4,431.3z"/>
			<path class="st1" d="M393.5,430.8c-2.6,0.2-3.4,1.2-3,2.7c1.5,0,2.9,0,4.4-0.1C395.6,432,393.9,431.6,393.5,430.8z"/>
			<path class="st1" d="M315.8,436.6c0.5,1.3,1.9-0.5,1.5-1.3C316.8,434,315.4,435.7,315.8,436.6z"/>
			<path class="st1" d="M239.6,438.5c1.3,1.1,2.7,2.3,7.3,1.9C244.4,439.8,244.6,438,239.6,438.5z"/>
			<path class="st1" d="M186.9,441.3c-0.3-0.6,0.6-0.6,1.5-0.7c0.6-1.3-6.6-0.9-4.4,0.7C184.9,441.3,185.9,441.3,186.9,441.3z"/>
			<path class="st1" d="M-16.7,444.5c0,0.4,0,0.9,0,1.3c2.4,0,4.9-0.1,7.3-0.1C-11,445.3-15,442.7-16.7,444.5z"/>
			<path class="st1" d="M230.8,443.3C233.9,445.3,240.2,442.4,230.8,443.3L230.8,443.3z"/>
			<path class="st1" d="M-21.1,447.9c-2.6,0.6-2.5,2.5-5.9,2.7c2.7,2.2,5.2-1.2,8.8-0.8C-18.7,449-20.8,448.8-21.1,447.9z"/>
			<path class="st1" d="M-35.8,448.8c-0.4,2.6,8.4,2.1,8.8-0.1C-29.6,449.9-30.7,448.2-35.8,448.8z"/>
			<path class="st1" d="M65.2,449.9c-1,0.5,5.7,1.7,4.4,0.6C69.4,450.3,66.5,449.3,65.2,449.9z"/>
			<path class="st1" d="M47.6,452.8c1.2,1.9,3.7-0.9,7.3-0.1C54.6,451.1,48.5,452.4,47.6,452.8z"/>
			<path class="st1" d="M176,439.1l-2.2,0.4c-4.5-0.4-2.8,1.9-7.3,1.5l-2.2,0.4l-0.7,1c-0.6,0.4-1.2,0.9-1.4,1.5l-5.2-0.4
				c1,1.3,5.2,1.7,7.3,0.5l-0.7,1c3.2-0.2,4.6,0.5,4.3,1.9c3.7-1.4,6.5-1.2,8.8,0.5c1.9-0.9,8.3-0.4,4.4-2.1
				c9.2,1,11.1-0.3,17.6-0.9c-7.7-1.9-17.9-2.7-21.8-6.3L176,439.1z"/>
			<path class="st1" d="M194.4,431.2c-3.5,2.3,5.3,2.6-3,3.4c2.6,2.1,12,1,13.1,3.8c3.2,0.1,4.7-0.6,4.4-2.1
				c5.4,2,11.8-0.6,17.5,1.1c3.6-0.6,4.4-2.5,7.4-3.4c2.6,0.5,3.7,1.8,8.8,1.2c1.7-1,4.2-1.7,5.9-2.7l18.3,2.7
				c-3.6-3.8-12.6-4-20.4-3l0.7-1c-5-0.8-13.2,0-17.5-1.1l-0.7,1l-2.2-0.3C216.7,434.7,203.2,431.8,194.4,431.2z"/>
			<path class="st1" d="M263.1,437.4c7.2,2.2,12.8,1,24.9,1c0.6-1.4-1-1.8-1.4-2.6l-2.2-0.8l0.8-1.2c-1.4-0.1-1-0.5-0.4-0.6
				c-5,0.7-12.4,0.8-18.7,0.9l0.7,1l-2.2,0.4C262.9,435.6,263.3,436.7,263.1,437.4z"/>
			<path class="st1" d="M308.5,434.8c-0.3-0.5-1.5-0.6-1.4-1.3c0-0.2,0-0.4,0-0.7l-2.2-0.8l0.8-1.2c-2.5,0.3-2.8-0.5-2.9-1.3
				c-5,1.4-15.5,0.3-14.7,4.2l2.7-0.4l1.7,1C300.9,434.2,303.1,434.6,308.5,434.8z"/>
			<path class="st1" d="M377.5,428.3l-2.2-0.3l0.7-1c-5.9-0.9-13.7-2.9-17.6,0.3l0.7,1c-2,0-3.9,0.6-5.9,1l0.8-1.2
				c-1.9-0.8-2.3-0.2-4.4,0.1l0.7,1l-2.2-0.3c-15.1,0.6-26.1-2.5-35.2,1.9l2.2,0.3l-0.8,1c11.2,1.5,18.5,1.7,29.3-0.5
				c2.7,0.1,0.8,2.2,2.9,2.6c1.9-0.7,5.4-0.7,7.4-1.5l-0.7-1c2.4,0.3,4.9,0.3,7.3-0.1l-0.8,1c4.5-0.6,2.8,1.8,7.3,1.2
				c1.9-1.9,6.1-2.3,10.3-1.5C378.6,430,374.7,429.6,377.5,428.3z"/>
			<path class="st1" d="M417,426.4l0.8-1l2.2,0.3c1.6-2.5-5.5-1-4.3-3.3c-9.9,0.7-19.3,1.6-27.8,1.1c-0.9,1.1-4.4,1.2-5.9,2.1
				l2.2,0.3l-4.4,0.7l-2.2,0.4l2.2,0.3c1.3,1.6,5.3,0.9,8,0.7c0.8-0.4,1.3-0.8,2.3-1.6l-0.8,1c8,0.9,14.2,0.2,14.6,2.5
				c5.5,0.9,2.8-1.9,7.4-1.5l-0.7-1l2.2-0.4C412.9,426.3,415.3,426.5,417,426.4z"/>
			<path class="st1" d="M248.5,436.4c-6.9-3,0.6,3.7,1.5,0.6C250.1,436.2,249.2,436.7,248.5,436.4z"/>
			<path class="st1" d="M213.2,441.6L211,442l-0.7-1c-3.2,1.1-8.3,1.3-10.3,2.8c4.8,1.6,16,1.1,26.3-0.4
				C224.5,441.1,219.7,440.8,213.2,441.6z"/>
			<path class="st1" d="M-37,439.5c1.6,0,3.3-0.1,5.1-0.4L-37,439.5z"/>
			<path class="st1" d="M445.7,421.1l7.3-0.1C450.6,420.8,448,421,445.7,421.1z"/>
			<path class="st1" d="M-21.6,437.6c1.1-0.1,2.2-0.2,2.9-0.4L-21.6,437.6z"/>
			<path class="st1" d="M-3.8,446.6c-0.2,0.5-0.5,0.9-0.5,1.4L-3.8,446.6z"/>
			<path class="st1" d="M148.1,441.6h2.9C149.9,441.5,148.8,441.3,148.1,441.6z"/>
			<path class="st1" d="M204,428.7l-7.3,0.1C199.1,428.9,201.5,428.8,204,428.7z"/>
			<path class="st1" d="M419.2,426.7l6.6,0.6c-0.1-0.1-0.2-0.2-0.2-0.3C423.7,426.4,421.3,426.1,419.2,426.7z"/>
			<path class="st1" d="M379.7,426.6l-0.9-1.3C378.7,425.8,378.9,426.2,379.7,426.6z"/>
			<path class="st1" d="M378,422.8c-0.4-0.1-0.8-0.1-1.1-0.1l1.9,2.7c0.1-0.7,0.9-1.3,1.2-1.7C379.4,423.4,378.6,423.1,378,422.8z"
				/>
			<path class="st1" d="M350.4,429.1l-1.4-1.3C349.2,428.2,349.6,428.7,350.4,429.1z"/>
			<path class="st1" d="M315.2,431l-8.8,0.9C309.3,431.6,312.4,431.7,315.2,431z"/>
			<path class="st1" d="M284.4,435c2.7-0.5,4.6-0.6,6.4-1.7L284.4,435z"/>
			<path class="st1" d="M225.9,429l2.9,2C228.1,430.2,226.9,429.6,225.9,429z"/>
			<path class="st1" d="M110.5,416.2l-3.7-0.3C108,416.1,109.6,416.3,110.5,416.2z"/>
			<path class="st1" d="M-14,440c1.7,0.9,3.3,1.4,4.7,2.3l-3.6-4.3C-13.6,438.8-14.3,439.4-14,440z"/>
			<path class="st1" d="M164.2,441.3c0-0.5-0.2-0.9-0.5-1.3L164.2,441.3z"/>
			<path class="st1" d="M164.2,441.3l-4.6,0.9C161.1,442,162.6,441.9,164.2,441.3z"/>
			<path class="st1" d="M418.8,427.4c0.2-0.2,0.3-0.5,0.5-0.7l-8.8,0.8C413,427.7,416.6,428.6,418.8,427.4z"/>
			<path class="st1" d="M298.5,424.1c0.8,0,1.8,0.1,2.6-0.1l-3.4-1.5C297.5,423,297.7,423.6,298.5,424.1z"/>
			<path class="st1" d="M211,441.9c0.7-0.9,0.7-1.8,0.8-2.7L211,441.9z"/>
			<path class="st1" d="M-96.4,156.9c-2.7-0.6-2.8-2.6-7.9-2C-102.8,156.2-101.2,157.4-96.4,156.9z"/>
			<path class="st1" d="M-71.5,157.2c0-0.5-0.1-1-0.1-1.4c-1,0-2.1,0-3.1,0.1c0,0.5,0.1,0.9,0.1,1.4
				C-73.6,157.3-72.6,157.2-71.5,157.2z"/>
			<path class="st1" d="M-122.5,178.1c-1,0-2.1,0-3.1,0.1c0,0.5,0.1,1,0.1,1.4c1,0,2.1,0,3.1-0.1
				C-122.4,179.1-122.4,178.6-122.5,178.1z"/>
			<path class="st1" d="M-118.6,222.3c5.6-1.7-4.7-5.5-8-2.7C-127.4,222.2-119.9,220.7-118.6,222.3z"/>
			<path class="st1" d="M-105.7,207.2l8.3,0.1C-100,206.8-103,207-105.7,207.2z"/>
			<path class="st1" d="M-109.6,244.6l-2.5-1.4C-111.7,243.9-111.5,244.6-109.6,244.6z"/>
			<path class="st1" d="M-87.6,246.2c0.5,0,0.9,0.1,1.4,0.1l-1.7-2.1C-87.8,244.9-88.3,245.6-87.6,246.2z"/>
			<path class="st1" d="M632.9,422.6c0.8,0,1.6,0,2.5-0.1c0.7-0.6,1-1.4,1.8-2l-5.3,1.9C632.2,422.4,632.6,422.5,632.9,422.6z"/>
			<path class="st1" d="M1322,84.6c4.3-0.1,8.6-0.1,13-0.2C1330.7,83.7,1326.3,82.8,1322,84.6z"/>
			<path class="st1" d="M1074.5,83.1c0.9,0.2,1.6-0.2,1.7-1c0.1-1-0.6-1.7-1.7-2.1c-0.9,0-1.6,0.4-1.8,1.1
				C1072.5,82.2,1073.4,82.9,1074.5,83.1z"/>
			<path class="st1" d="M1070.2,68.7c-1.8,0-1.8,1.9-2,3.2c1.1,0,2.3,0,3.4,0C1071.2,70.8,1072.5,68.8,1070.2,68.7z"/>
			<path class="st1" d="M1313.9,84.9c0.4,0,0.7-0.5,1-0.7c-0.5-0.7-1.4-0.6-2.2-0.5c-0.5,0-1.4,0.5-1.4,0.5
				C1311.8,85.3,1313,84.9,1313.9,84.9z"/>
			<polygon class="st1" points="1072.3,72.2 1071.6,71.9 1072,72.5 			"/>
			<polygon class="st1" points="1070.7,76.6 1069.9,76.3 1070.3,76.9 			"/>
			<polygon class="st1" points="339.6,74 338.9,73.7 339.3,74.3 			"/>
			<path class="st1" d="M806.2,69.3c0-1,0-2,0-2.9c-1.1,0.5-2.3,1-3.4,1.5C803.5,69.1,804.8,69.3,806.2,69.3z"/>
			<path class="st1" d="M806.6,69.9c0.4,0.3,0.9,0.4,1.4,0.5c0.1,0,0.3-0.3,0.4-0.5c-0.5-0.2-0.9-0.4-1.4-0.5
				C806.1,69.1,805.9,69.4,806.6,69.9z"/>
			<path class="st1" d="M792.5,71c0.6,0,1.1,0,1.7,0C793.7,70,793.1,70,792.5,71z"/>
			<polygon class="st1" points="795,71.3 794.2,71 794.6,71.6 			"/>
			<polygon class="st1" points="806.6,73.1 806.3,73.7 807,73.4 			"/>
			<path class="st1" d="M323.4,72.4c0.6,0.5,1.2,1,1.7,1.4C324.7,73.2,326,71.1,323.4,72.4z"/>
			<path class="st1" d="M402.3,77.3L402.3,77.3L402.3,77.3z"/>
			<path class="st1" d="M523.8,78.7c-4.2-1.6-3.3,1.1-3.4,3C522.1,81.1,523.2,80.1,523.8,78.7z"/>
			<path class="st1" d="M521.6,74.1c0-0.1-0.4-0.1-0.6-0.2c-0.1,0.2-0.2,0.4-0.2,0.6c0,0.1,0.4,0.1,0.6,0.2
				C521.5,74.5,521.6,74.3,521.6,74.1z"/>
			<path class="st1" d="M1706.3,84.9c4.3-0.1,8.6-0.1,13-0.2C1715,84,1710.6,83.1,1706.3,84.9z"/>
			<path class="st1" d="M1458.8,83.4c0.9,0.2,1.6-0.2,1.7-1c0.1-1-0.6-1.7-1.7-2.1c-0.9,0-1.6,0.4-1.8,1.1
				C1456.8,82.5,1457.7,83.1,1458.8,83.4z"/>
			<path class="st1" d="M1454.5,69c-1.8,0-1.8,1.9-2,3.2c1.1,0,2.3,0,3.4,0C1455.5,71.1,1456.8,69.1,1454.5,69z"/>
			<path class="st1" d="M1698.2,85.2c0.4,0,0.7-0.5,1-0.7c-0.5-0.7-1.4-0.6-2.2-0.5c-0.5,0-1.4,0.5-1.4,0.5
				C1696.1,85.6,1697.3,85.2,1698.2,85.2z"/>
			<polygon class="st1" points="1456.6,72.5 1455.9,72.2 1456.3,72.8 			"/>
			<polygon class="st1" points="1455,76.9 1454.2,76.6 1454.6,77.2 			"/>
			<polygon class="st1" points="723.9,74.3 723.2,74 723.6,74.6 			"/>
			<path class="st1" d="M1175.4,79.5c2.3,0.8,6.8,2.6,7.3-2.6c0.1-1.2,2.5-2.2,3.3,0.2c0.3,0.9,0.7,2.5,1.3,2
				c2.5-2.8,7.4,0.3,9.6-3.2c0.8-1.3,2.7-2.2,0.8-3.6c-1.5-1.1-2.5,0-3.3,1c-1,1.4-2,2.5-3.8,0.6c-3-0.4-5.8-1.6-9,0.1
				c-3.4,1.8-4.4-0.4-4.8-2.9c-0.8,0.6-2.1,1.1-2.5,1.9C1173.2,75.4,1172.2,78.4,1175.4,79.5z"/>
			<path class="st1" d="M1169.5,82c0.6-2.1,1.2-4.1,1.9-6.5c-9.4-3-11.9-1.4-10.9,6.9C1163.4,81.4,1166.3,81.9,1169.5,82z"/>
			<path class="st1" d="M1189.1,81.9c-2.1,0.3-4.2,0.6-5.8,2C1187.4,85.7,1187.4,85.7,1189.1,81.9z"/>
			<path class="st1" d="M1205.1,76.6c-0.6,1.6-4,2.3-2.5,5.6C1205,80.6,1206,79.1,1205.1,76.6z"/>
			<path class="st1" d="M1190.5,69.6c0-1,0-2,0-2.9c-1.1,0.5-2.3,1-3.4,1.5C1187.8,69.4,1189.1,69.6,1190.5,69.6z"/>
			<path class="st1" d="M1210.9,80.8c0.5-1.3,0.3-1.5-0.4-0.9c-0.6,0.4-1,1-1.5,1.5c0.3,0.2,0.9,0.6,1,0.5
				C1210.4,81.5,1210.8,80.9,1210.9,80.8z"/>
			<path class="st1" d="M1190.9,70.2c0.4,0.3,0.9,0.4,1.4,0.5c0.1,0,0.3-0.3,0.4-0.5c-0.5-0.2-0.9-0.4-1.4-0.5
				C1190.4,69.4,1190.2,69.7,1190.9,70.2z"/>
			<path class="st1" d="M1176.8,71.3c0.6,0,1.1,0,1.7,0C1178,70.3,1177.4,70.3,1176.8,71.3z"/>
			<polygon class="st1" points="1179.3,71.6 1178.5,71.3 1178.9,71.9 			"/>
			<polygon class="st1" points="1190.9,73.4 1190.6,74 1191.3,73.7 			"/>
			<path class="st1" d="M707.8,72.7c0.6,0.5,1.2,1,1.7,1.4C709,73.5,710.3,71.4,707.8,72.7z"/>
			<path class="st1" d="M786.6,77.6L786.6,77.6L786.6,77.6z"/>
			<path class="st1" d="M905.9,74.4c0-0.1-0.4-0.1-0.6-0.2c-0.1,0.2-0.2,0.4-0.2,0.6c0,0.1,0.4,0.1,0.6,0.2
				C905.8,74.8,905.9,74.6,905.9,74.4z"/>
			<path class="st1" d="M164.8,416.9c-4.3,0.1-8.6,0.1-13,0.2C156.1,417.8,160.5,418.7,164.8,416.9z"/>
			<path class="st1" d="M416.6,432.7c1.8,0,1.8-1.9,2-3.2c-1.1,0-2.3,0-3.4,0C415.6,430.7,414.3,432.7,416.6,432.7z"/>
			<path class="st1" d="M175.4,417.3c-0.4-1.2-1.6-0.8-2.5-0.7c-0.4,0-0.7,0.5-1,0.7c0.5,0.7,1.4,0.6,2.2,0.5
				C174.5,417.8,175.4,417.4,175.4,417.3z"/>
			<polygon class="st1" points="414.5,429.3 415.2,429.6 414.8,429 			"/>
			<polygon class="st1" points="1147.2,427.5 1147.9,427.8 1147.5,427.2 			"/>
			<path class="st1" d="M695.7,422.3c-2.3-0.8-6.8-2.6-7.3,2.6c-0.1,1.2-2.5,2.2-3.3-0.2c-0.3-0.9-0.7-2.5-1.3-2
				c-2.5,2.8-7.4-0.3-9.6,3.2c-0.8,1.3-2.7,2.2-0.8,3.6c1.5,1.1,2.5,0,3.3-1c1-1.4,2-2.5,3.8-0.6c3,0.4,5.8,1.6,9-0.1
				c3.4-1.8,4.4,0.4,4.8,2.9c0.8-0.6,2.1-1.1,2.5-1.9C697.9,426.3,698.9,423.4,695.7,422.3z"/>
			<path class="st1" d="M701.6,419.8c-0.6,2.1-1.2,4.1-1.9,6.5c9.4,3,11.9,1.4,10.9-6.9C707.7,420.4,704.8,419.9,701.6,419.8z"/>
			<path class="st1" d="M666,425.2c0.6-1.6,4-2.3,2.5-5.6C666.1,421.2,665.1,422.7,666,425.2z"/>
			<path class="st1" d="M680.6,432.2c0,1,0,2,0,2.9c1.1-0.5,2.3-1,3.4-1.5C683.3,432.4,682,432.2,680.6,432.2z"/>
			<path class="st1" d="M660.2,420.9c-0.5,1.3-0.3,1.5,0.4,0.9c0.6-0.4,1-1,1.5-1.5c-0.3-0.2-0.9-0.6-1-0.5
				C660.7,420.3,660.3,420.9,660.2,420.9z"/>
			<path class="st1" d="M680.2,431.6c-0.4-0.3-0.9-0.4-1.4-0.5c-0.1,0-0.3,0.3-0.4,0.5c0.5,0.2,0.9,0.4,1.4,0.5
				C680.7,432.4,680.9,432.1,680.2,431.6z"/>
			<path class="st1" d="M694.3,430.5c-0.6,0-1.1,0-1.7,0C693.1,431.5,693.7,431.5,694.3,430.5z"/>
			<polygon class="st1" points="691.8,430.2 692.6,430.5 692.2,429.9 			"/>
			<polygon class="st1" points="680.2,428.4 680.5,427.8 679.8,428.1 			"/>
			<path class="st1" d="M1163.3,429.1c-0.6-0.5-1.2-1-1.7-1.4C1162.1,428.3,1160.8,430.4,1163.3,429.1z"/>
			<path class="st1" d="M1055.5,416.6c-0.6-0.6-2,1.2-1.4,1.9c2.1,3,3,7,8.3,7.4c-0.3-3.3-1.7-6.9,3.3-8.8
				C1062.4,415.6,1058.8,419.5,1055.5,416.6z"/>
			<path class="st1" d="M963,422.8c4.2,1.6,3.3-1.1,3.4-3C964.7,420.4,963.6,421.4,963,422.8z"/>
			<path class="st1" d="M965.2,427.4c0,0.1,0.4,0.1,0.6,0.2c0.1-0.2,0.2-0.4,0.2-0.6c0-0.1-0.4-0.1-0.6-0.2
				C965.3,427,965.2,427.2,965.2,427.4z"/>
			<path class="st1" d="M937.9,85.2c-1,0-2.3,0-2.7,0.1c-0.6,0.2,0.9,0.2,2,0.2c6.7,0.1,13.4,0.2,20.1,0.2c1.2,0,2.1,0,2.1-0.2
				c-0.6,0-1.3-0.1-2.2-0.1C950.8,85.4,944.4,85.3,937.9,85.2z"/>
			<path class="st1" d="M358.2,88.6c-3.4,0.1-6.8,0.2-10.2,0.3c-1.2,0-2.7,0.1-2.5,0.3c0.2,0.2,1.8,0.1,3.1,0.1c1.1,0,2.2,0,3.3,0
				c2.6,0,5.3,0,7.7-0.2c1.4-0.1,3.5-0.2,3.1-0.4C362.2,88.5,359.9,88.5,358.2,88.6z"/>
			<path class="st1" d="M596.9,82.8c0.7,0,1.7-0.1,1.8-0.2c0.2-0.1-0.9-0.2-2-0.2c-7.2,0.1-14.4,0.2-21.5,0.3
				C582.1,83.1,589.5,82.9,596.9,82.8z"/>
			<path class="st1" d="M559.2,83.1c0.9,0,1.5-0.1,1.5-0.2c-0.6-0.1-1.6-0.1-2.7-0.1c-0.5,0-1.3,0.1-1.2,0.1
				C557,83.1,558,83.2,559.2,83.1z"/>
			<path class="st1" d="M660.2,84.5c-0.4,0-1,0.1-1.1,0.1c-0.2,0.1,0.1,0.2,1.2,0.1c0.5,0,0.8-0.1,1.2-0.1
				C661.5,84.6,661.3,84.5,660.2,84.5z"/>
			<path class="st1" d="M1968,114.2c-1,0-2.3,0-2.7,0.1c-0.6,0.2,0.9,0.2,2,0.2c6.7,0.1,13.4,0.2,20.1,0.2c1.2,0,2.1,0,2.1-0.2
				c-0.6,0-1.3-0.1-2.2-0.1C1980.9,114.4,1974.5,114.3,1968,114.2z"/>
			<path class="st1" d="M2134.9,122.3c0.2,0.3,3.6,0.2,5.5,0.2c1.5,0,3.7,0,3.4-0.2c-0.4-0.3-3.6-0.2-5.7-0.2
				C2136.3,122.1,2134.8,122.2,2134.9,122.3z"/>
			<path class="st1" d="M2084.5,295.6c-0.6,0.2,1.4,0.2,2.8,0.2c4.2,0.1,8.4,0.1,12.8,0c1.9,0,3.9,0,5.8,0c1.9,0,4.3,0.1,4.7-0.2
				c0.3-0.2-2.2-0.2-4.2-0.2c-6.1,0-12.3,0.2-18.3,0.1C2086.5,295.4,2084.9,295.5,2084.5,295.6z"/>
			<path class="st1" d="M2064.6,271.9c-0.5,0.2,1.6,0.2,2.9,0.2c6.3,0.2,13.1-0.1,17.7-0.1c3.4,0,5.2,0,5.4-0.2
				c0.3-0.2-1.7-0.2-3.6-0.2c-6.4,0-12.9,0.1-19.3,0.1C2066.5,271.7,2064.9,271.8,2064.6,271.9z"/>
			<path class="st1" d="M2121,282.3c0,0.4,3.7,0.2,6,0.3c1.4,0,3.5,0,3.4-0.2c-0.2-0.3-3.7-0.2-6-0.3
				C2122.7,282.1,2121,282.2,2121,282.3z"/>
			<path class="st1" d="M2101.6,258.6c0.2,0.3,3.6,0.2,5.5,0.2c1.5,0,3.7,0,3.4-0.2c-0.4-0.3-3.6-0.2-5.7-0.2
				C2103,258.3,2101.5,258.5,2101.6,258.6z"/>
			<path class="st1" d="M2093.8,294.8c-0.7,0-1.5,0.1-1.7,0.2c-0.4,0.1,0.5,0.2,1.7,0.1c1,0,1.3-0.1,1.5-0.2
				C2095.2,294.9,2094.8,294.8,2093.8,294.8z"/>
			<path class="st1" d="M2082.6,271.2c0,0-0.7-0.1-1.2-0.1c-0.6,0.1-1.3,0.1-1.4,0.1c-0.1,0,0.5,0.1,0.9,0.1
				C2081.7,271.3,2082.7,271.3,2082.6,271.2z"/>
			<path class="st1" d="M2075.4,271.2c0,0-0.6-0.1-1.1-0.1c-1.1,0-1.4,0.1-1.6,0.2c0.3,0,0.7,0.1,1.2,0.1
				C2075,271.4,2075.4,271.3,2075.4,271.2z"/>
		</g>
	</g>
</g>
</svg>
