<?xml version="1.0" encoding="UTF-8"?>
<svg id="Layer_1" data-name="Layer 1" xmlns="http://www.w3.org/2000/svg" xmlns:xlink="http://www.w3.org/1999/xlink" version="1.1" viewBox="0 0 535 364">
  <defs>
    <style>
      .cls-1 {
        fill: url(#linear-gradient);
      }

      .cls-1, .cls-2, .cls-3, .cls-4, .cls-5, .cls-6, .cls-7 {
        stroke-width: 0px;
      }

      .cls-2 {
        fill: #fab900;
      }

      .cls-3 {
        fill: #e20613;
      }

      .cls-4 {
        fill: #004c1d;
      }

      .cls-5 {
        fill: #d81616;
      }

      .cls-6 {
        fill: #2b2b2b;
      }

      .cls-7 {
        fill: #fff;
      }
    </style>
    <linearGradient id="linear-gradient" x1="463.3" y1="253.4" x2="463.3" y2="285.5" gradientTransform="translate(0 366) scale(1 -1)" gradientUnits="userSpaceOnUse">
      <stop offset="0" stop-color="#f29100"/>
      <stop offset="0" stop-color="#fab900"/>
      <stop offset="0" stop-color="#fbc300"/>
      <stop offset=".2" stop-color="#fdd700"/>
      <stop offset=".3" stop-color="#ffe400"/>
      <stop offset=".4" stop-color="#ffe800"/>
      <stop offset=".6" stop-color="#fedf00"/>
      <stop offset=".9" stop-color="#fbc700"/>
      <stop offset="1" stop-color="#fab900"/>
    </linearGradient>
  </defs>
  <g>
    <g>
      <path class="cls-6" d="M317.1,209c1.9,1,3.7,1.8,5.3,2.9,5.7,3.9,8.3,9.6,8.6,16.2.2,3.6.1,7.4-.7,10.9-1.3,5.7-4.4,10.4-9.9,13-3,1.4-6.1,2.8-9.3,3.6-2.9.7-6,.9-9,1-8.3.1-16.5,0-24.8,0s-7.6,0-11.4-.2c-2.1,0-2.8-1-2.8-3.1v-19.9c0-6.7-.2-13.4-.2-20.1s.2-9.7.2-14.5-.2-10.5-.2-15.7v-14.9c0-1.8,1-3,2.8-3.2,1.3-.1,2.7-.1,4.1-.2h7.7c5.1,0,10.3.2,15.4.3,2.1,0,4.1,0,6.2-.2,7.3-.4,14.3.6,20.6,4.7,4.4,2.9,6.8,7.3,7.6,12.3.7,4.2,1,8.6.4,12.7-.7,4.7-2.8,9-7,11.8-1.1.7-2.1,1.7-3.4,2.7h-.2ZM275.2,239.3h0v1.9c.6,4.2,0,4,3.9,3.9,5.4,0,10.9,0,16.3-.2,5.2-.1,10.3.7,15.4-1.4,2.5-1,4.2-2.6,5.4-4.7,2.3-4.4,2.6-9,1.2-14-1.8-6.4-7.5-9.2-12.7-9.2h-9.3c-4.1,0-8.1-.2-12.2-.2s-4.1,0-6.2.3c-.7,0-1.7.9-1.8,1.5-.2,2.4,0,4.7,0,7.1v15h0ZM299,204.2v.4c2.3-.2,4.7,0,6.9-.7,6.2-1.7,9.1-6,9.3-12.4,0-2.1-.4-4.2-.7-6.3-.6-4-4.8-8-8.8-8.4-3.8-.3-7.6-.3-11.4-.4-5.5,0-11.1,0-16.6-.1-1.2,0-2,.2-2.1,1.7,0,2-.3,3.9-.3,5.9v17.2c0,3,0,3.7,3.3,3h20.6-.2,0ZM293.3,251.5c1.2-1,2.3-1.9,3.3-2.8l-.4-.8c-1.6.4-3.1.9-4.8,1.4-.4-1.7-2.4-2-3.2-1.3-1.7,1.5-3,1.2-4.5.1-.2-.1-.5,0-.7,0,0,.2,0,.4.2.4.8.5,1.5,1.3.8,2.2-.4.5-1.5.8-1.9.6-.5-.3-.9-1.2-1.1-1.9-.2-.6,0-1.3,0-2.2-1.6,1.2-1.6,2.4-.8,3.7,1,1.7,3.7,2.7,5.4,2.1-.4-1.6.2-2.8,1.5-2.6.1.4.3.9.3,1.1,2.6.4,4.8,2.4,7.7,1.2-.6-.4-1.1-.7-1.8-1.2ZM269.6,243c.2,0,.4.1.7.2-.8.8-1.6,1.5-2.4,2.2.2.3.5,1,.8,1.7.2.4.7,1.1.9,1.1,1.3-.2,1.1.6,1.2,1.4.1,1.4.9,2.3,2.8,2.2-1.3-1.9-2.4-3.5-3.6-5.2.3-.2.8-.5,1.2-.9-.1-.3-.4-.7-.3-.8,1.7-2.3.4-3-1.6-4.2-1.5-.9-2-.5-3.4.7,1.5.6,2.6,1.1,3.7,1.6h0ZM269.7,237.3c0-1.5-.2-2.9-.2-3.7-1.3-1-2.1-1.6-3.1-2.4-.3.6-.6,1-.6,1,.9,1.2,1.5,2.1,2.2,3.1-.7.6-1.2,1.1-1.7,1.5,1.2.8,2.3,1.6,3.4,2.2.3.1,1.1-.2,1.2-.5.2-.3,0-.9-.1-1.4-.4,0-.8.2-1.1.2h0ZM300.4,253.6c0-.2,0-.5.1-.7-1.3-1-2.7-2-4-3-.2.1-.4.2-.5.3.2.9.2,2.2.8,2.5,1,.6,2.4.6,3.6.9ZM314,250.3c.6-.5,1.1-.8,1.2-1.2.3-1.3.4-2.7-1.2-3.9v5.1h0ZM316.1,242.3c0,.9,1.1,1.4,3,1.5-.2-.6-.5-1.2-.7-1.8-.8,0-1.5.2-2.3.3ZM267.8,228.4c1.1.5,1.9,1.2,2.4,1,.8-.3,1.3-1.3,2-1.9,0,0-.2-.2-.3-.2-1.1.3-2.2.7-4.1,1.2h0ZM305.3,252.1c1.3,0,2.1-.1,2.9-.2-.1-1-.2-1.8-.4-3-.9,1.1-1.5,1.9-2.6,3.2h.1ZM271.7,209.7c0,.2.1.5.2.7,1.5-.6,3.1-1.2,4.6-1.9-.1-.2-.2-.5-.3-.7-1.5.6-3,1.3-4.5,1.9h0ZM274.3,211.7c-.1.1-.2.3-.3.4.8.3,1.6.8,2.4.9.4,0,.8-.8,1.2-1.3h-3.3ZM314.9,214.2c.2-.6.5-1.2.7-1.8-.8-.2-1.7-.5-2.5-.7v.4c.5.6,1.1,1.2,1.9,2.1h-.1ZM297.7,210.2c-.5-.8-.8-1.3-1.2-1.9-.7.5-1.2,1-1.8,1.5,0,.2.1.4.2.7.9,0,1.7-.1,2.9-.2h-.1Z"/>
      <path class="cls-6" d="M60.2,209c1.9,1,3.5,1.7,5,2.7,3.3,2.1,5.8,5,7.2,8.6,2.5,6.6,2.9,13.6.7,20.3-2.3,6.8-7.1,11.4-14.1,13.7-5.5,1.9-11,2.4-16.7,2.2-7.2-.3-14.5,0-21.7.1-3.8,0-7.6,0-11.4-.2-2.3,0-2.9-.9-3-3.2,0-7.9-.2-15.9-.3-23.8v-61.2c0-2,1-3.1,3-3.3,1.3-.1,2.6-.1,3.9-.1h7.8c5.1,0,10.2.2,15.3.3,2.1,0,4.1,0,6.2-.1,7.3-.4,14.3.7,20.6,4.6,3.3,2.1,5.2,5.3,6.7,8.7,2.3,5.2,2.2,10.8,1.4,16.3-.7,4.7-2.8,9-7,11.8-1.1.7-2.1,1.7-3.4,2.7h-.2,0ZM18.7,235.5h-.2v2.9c0,1-.2,2.1,0,3.1.6,3.6,0,3.6,3.7,3.6,5.4,0,10.9,0,16.3-.2,5.2-.1,10.5.7,15.6-1.4,2.5-1,4.2-2.6,5.3-4.7,2.2-4.4,2.6-8.8,1.2-13.8-1.8-6.6-7.6-9.4-13-9.3h-8.5c-5.6,0-11.2-.2-16.8,0-3.5.1-3.5.3-3.6,3.8v16.1h0ZM18.7,199.6h-.4v3.1c0,1.4.6,1.9,2.1,1.8,2.4-.2,4.9-.2,7.3-.2,5.7,0,11.4.1,17.1.1s2.9,0,4.2-.5c6.3-1.8,9-6,9.4-12.1,0-2.1-.4-4.3-.7-6.5-.7-4.3-4.8-8.2-9.1-8.5-3.7-.3-7.3-.3-11-.3h-16.8c-1.2,0-2,.3-2,1.7v21.5h0ZM24.2,247.3c-1.2.8-1.6,1.7-1.2,2.9.5,1.5,3.2,3.4,4.8,3.3.8,0,1.4-.3.7-1.3-.1-.2,0-.8.2-1,.4-.4.9-.6,1.5-.9.2.7.3,1.1.4,1.4,2.6,0,4.8,2.5,7.7,1-.6-.4-1-.6-1.8-1.1,1.2-1,2.2-2,3.3-2.9,0-.2-.3-.5-.4-.7-1.5.5-3,.9-4.7,1.4-.4-1.6-2.5-2-3.2-1.3-1.8,1.7-3.1,1-4.7,0h-.6c0,.1,0,.3.1.4.9.5,1.5,1.3.8,2.2-.4.5-1.5.8-1.9.6-.5-.3-.8-1.2-1-1.9-.2-.6,0-1.2,0-2.1h0ZM11.1,240c-.5.3-1.1.6-1.7.9v.6c1.1.5,2.2,1,3.7,1.6,0,1.2-.6,2.1-2.5,2.1,1.9.3.3,3.7,3.1,3,.4,2.9.8,3.5,2.9,3.4-1.2-1.8-2.4-3.4-3.6-5.1.4-.2.8-.5,1.3-.8-.2-.7-.1-1.3.2-1.8.8-1.3.5-2.1-.9-2.6-.8-.3-1.5-.8-2.5-1.4h0ZM9.5,236.8c1.1.7,2,1.5,3.1,2,.4.2,1.2,0,1.5-.2.2-.2,0-.9,0-1.4-.5,0-.9.1-1.2.2,0-1.4-.2-2.8-.2-3.8-1.2-.9-2.1-1.6-3.1-2.3-.3.5-.6,1-.9,1.4,2.5.9,2.7,2.3.9,4.1h-.1ZM39.9,249.9l-.7.3c.2.9.2,2.3.8,2.5,1.1.5,2.4,1.3,3.9.3-1.5-1.1-2.7-2.1-4-3.1ZM57,245v4.5c0,.2.4.5.5.4.3-.1.8-.3.8-.6.4-1.4.5-2.8-1.4-4.3h.1ZM61.6,242c-.8.1-1.6.2-2.4.4,0,3,2.1.9,3.1,1.8-.3-.9-.5-1.5-.7-2.2ZM11.2,228.3c.8.4,1.7,1.2,2,1,.8-.4,1.4-1.3,2.1-1.9-.1,0-.2-.2-.3-.3-1.1.3-2.2.7-3.8,1.2ZM51.1,248.8c-.9,1.2-1.6,2.1-2.5,3.3,1.2,0,2,0,2.8-.1,0-1-.2-1.8-.3-3.1h0ZM37.8,209.6v.7c1,0,2,0,3-.1-.5-.8-.8-1.2-1.2-1.9-.6.5-1.2.9-1.9,1.4h.1ZM58.1,214.2c.3-.6.5-1.2.8-1.7-.9-.3-1.7-.6-2.6-.9v.4c.5.6,1.1,1.2,1.9,2.2h-.1ZM14.8,209.8c0,.2.2.4.3.6,1.5-.6,3-1.2,4.6-1.8-.1-.2-.2-.5-.3-.7-1.5.6-3,1.3-4.5,1.9h-.1ZM44.7,208.6v.6c1-.1,2.1-.3,3.3-.5-1.5-2.1-2.4-.7-3.4-.2h.1ZM65,233.6c0-.1-.2-.2-.3-.3-.4.3-1.1.5-1.2.9-.2.7,0,1.5,0,2.2h.6c.3-.9.6-1.8.9-2.7h0ZM17.4,211.6c-.1.2-.2.4-.3.5.8.3,1.6.8,2.4.9.2,0,.6-.7.9-1.1-1.2-.2-2.1-.3-3-.4h0Z"/>
      <path class="cls-6" d="M226.1,217.8c.9,1.2,1.3,2.4,2.2,3,2.9,2.1,3.7,5.4,5.3,8.2,1.1,1.9,2,4,3,5.9,1.1,2.1,2.3,4.2,3.3,6.3,2.1,4.2,4.2,8.5,6.2,12.7.6,1.2.1,2-1.1,2-3.5,0-7.1.2-10.6,0-.7,0-1.6-.9-2-1.6-1.9-3.5-3.7-7.2-5.5-10.7-2.6-5.1-5.1-10.3-7.7-15.4-1.7-3.2-3.9-6.2-7.6-7.4-2.2-.7-4.5-1.1-6.8-1.2-4.4-.2-8.8,0-13.2-.1-1.8,0-2.5.4-2.5,2.4.1,6.4,0,12.9,0,19.3v12.2c0,1.8-1.1,2.9-2.9,3-2.5,0-4.9-.1-7.4-.3-1.9-.1-2-1.5-2-2.9v-11.8c0-3.9-.3-7.8-.3-11.7s.3-8.3.3-12.5-.2-8.9-.2-13.3.2-8.9.2-13.3-.4-7.7-.4-11.5.2-7.7.4-11.5c0-1.8,1.2-2.7,3-2.7,5.7,0,11.5-.2,17.2,0,9.1.2,18.3,0,27.4,1.1,7.2.8,12.7,5,16.4,11.8,2.6,4.9,3.5,9.9,3.4,15.1,0,4.7-.9,9.3-3.3,13.8-2,3.7-4.8,6.2-8,8.5-1.8,1.3-4.2,1.8-6.8,2.8v-.2h0ZM213.4,208.4c3.9-.2,7.8-.4,11.1-2.8,1.8-1.3,3.9-2.7,4.8-4.6,2-4,2.5-8.4,1.5-12.8-1-4.4-3.3-7.9-7.2-10.1-3.2-1.7-6.8-1.7-10.4-1.7h-21.7c-1.6,0-2.6.9-2.5,2.8.1,1.9.1,3.7.1,5.6,0,6.8,0,13.6-.1,20.4,0,2.6.2,3,2.8,3.1h21.6,0ZM185.7,190.6c-.6-2.2-2.4-2.9-6.1-2.4,0,3.2,2.6,1.2,4.3,2.2-1.1.5-1.9.8-2.7,1.1.4.6.7,1.1,1.1,1.7-.6.2-1,.3-1.3.5-.3.3-.8.8-.8,1.1,0,.6.4,1.5.8,1.6,1.9.6,3.8,1,6.2,1.5-.8-1.6-1.5-2.8-2.2-4,.3-.4.6-.9,1-1.6-1,.3-1.7.5-2.5.7,0-.2-.2-.4-.3-.6.8-.6,1.5-1.2,2.4-1.9h.1ZM201.9,173.8c2.5-.3,4.2-3.4,7-1.4-.7-2.7-1.9-3.5-4.5-3.3-1.5.1-2.3,1.5-2.6,4.7h.1ZM198.3,171c-.1-2.3-.6-2.7-2.4-2.6-.9,1.2-1.7,2.2-2.5,3.3,2.4,1.9,5.1.8,7.8-.3-.9-2.5-1.9,0-2.9-.4h0ZM185,201.8c-.7-2.4-1.6-3.3-2.9-2.6.2.5.4,1,.6,1.5-.6.2-1,.3-1.9.6,1.6.2,2.8.3,4.2.5h0ZM183.9,238.2c.3-.2.6-.4.9-.5-.5-.7-1-1.5-1.5-2.2-.3.2-.5.4-.8.5.5.7.9,1.5,1.4,2.2h0Z"/>
      <path class="cls-6" d="M413.9,256.6h-2.7c-2.8,0-4.3-1-5.2-3.7-1.9-5.1-3.7-10.2-5.6-15.2-.5-1.4-1.3-2.8-2.1-4.2-.2-.4-.8-.6-1.3-.7-1.5-.2-3.1-.3-4.6-.3h-30.2c-1.5,0-2.4.5-2.9,2-2.4,6.4-5,12.8-7.4,19.3-1,2.6-3.3,2.5-5.3,2.8s-4.1.1-6.2,0c-1.3-.1-2.1-.9-1.5-2.4,1-2.6,2-5.2,2.9-7.8,1.5-4.1,3-8.2,4.6-12.2,1.6-4.2,3.5-8.3,5.1-12.4.9-2.4,1.7-4.8,2.6-7.2,1-2.5,2-4.9,3-7.3,1.6-3.8,3.1-7.6,4.6-11.5,1.2-3,2.2-6.2,3.4-9.2,1.8-4.6,3.6-9.2,5.4-13.8.7-1.9,1.3-3.9,2.3-5.7.6-1,1.8-1.9,2.9-2.1,2-.4,4.1-.3,6.2-.3s3.3.7,4,2.4c1.3,3.1,2.4,6.3,3.7,9.4,3.5,8.9,7.2,17.7,10.7,26.6,2.5,6.3,4.8,12.6,7.2,18.9,1.6,4.3,3.4,8.5,5.1,12.7,1.7,4.4,3.2,8.8,4.9,13.2.7,1.9,1.5,3.7,2.3,5.5.7,1.9.1,3-1.9,3.1-1.3.1-2.6,0-3.9,0h-.1ZM379.1,180.7c-5.1,13.6-10.2,27.2-15.5,41.4h30.8c-5.2-13.9-10.2-27.6-15.4-41.4h.1ZM394.3,199.5c-1.4-.3-2.2-.5-2.7-.6.4-2.3.8-4.5,1.1-6.6,0-.3-.2-.6-.4-.8-1.8-1.8-4.2-1.8-6.2,0,1.5.2,3.1.4,2,2.6,1.2.3,2.2.5,3.7.8-1.5.9-2.6,1.6-3.5,2.1,1.5,2.2,2.9,4.1,4.3,6.1,0-.6-.1-1.3-.2-2,.5-.4.9-.8,1.9-1.6h0ZM409.7,247.4c-.1.2-.3.5-.6.8.7,0,1.3-.1,2.2-.2-1.4,2.4.6,3.1,2,4.8v-2.7c.5-.3,1-.5,1.4-.8,0-.2.1-.4.2-.6-.8-.4-1.6-.9-2.5-1.1-1.6-.4-2.5-2-1.7-3.7.5.7,1,1.4,1.5,2,.2,0,.3-.1.5-.2-.5-2-1.1-4-1.6-6-2.4,1.8-2.6,2.3-2,4.2-.5.6-1.2,1.3-1.1,1.6.2.6.9,1.1,1.6,1.8h.1ZM382.5,173.6h-.8c-.2-.7-.3-1.5-.8-2s-1.3-1.1-2-1c-.6,0-1.1,1-1.7,1.5.6.4,1.1.9,1.8,1.2.9.4,2,.6,2.9.8,1,.2,1.7,0,1.8-1.2,0-.5-.4-1.1-.6-1.6-.1,0-.2.2-.4.3-.1.7-.2,1.3-.4,2h.2ZM383.7,182c.1.2.3.3.4.5.8-.6,1.8-1.1,2.2-1.8.3-.5-.2-1.8-.8-2.1-.5-.3-1.5.3-2.2.5v.5c.5,0,1,0,1.8.2-.6.9-1,1.6-1.5,2.4v-.2h.1ZM391.8,205.8c1.7.2,2.8.3,3.8.4-2.3-.6.2-2-.7-3.1-.9.8-1.8,1.6-3.1,2.7h0ZM378.4,175.5c-1.2-.3-2.5-1-3.6-.8-1.1.1-2,1.2-3.4,2.1,2.7-.5,4.9-.9,7-1.2h0ZM372.9,180.8c.1.9.3,1.6.3,2.2v1.5c1.8-1.8,1.6-2.6-.2-3.7h0ZM370.3,189.7l.6-.4c-.6-.8-1.2-1.6-2.1-2.8-.1,1.2-.2,1.7-.2,2.2.6.4,1.2.7,1.7,1Z"/>
      <path class="cls-6" d="M157.1,256.6h-2.7c-2.8,0-4.3-1-5.2-3.6-1.9-5.1-3.7-10.2-5.6-15.2-.5-1.4-1.3-2.8-2.1-4.2-.2-.4-.8-.7-1.2-.7-1.5-.2-3.1-.3-4.6-.3h-30.4c-1.4,0-2.3.6-2.8,1.9-1.4,4-3,8-4.5,11.9-1,2.6-2,5.1-3.1,7.7-1,2.4-3.3,2.2-5.3,2.5-2,.2-4,.1-6,0-1.3-.1-2.1-.9-1.6-2.4.8-2.2,1.6-4.5,2.4-6.7,1.6-4.3,3.3-8.6,5-12.9,1.7-4.3,3.7-8.6,5.4-13,2.4-6,4.6-12.1,6.9-18.2.8-2.2,1.8-4.4,2.7-6.6,1.3-3.4,2.6-6.8,3.9-10.2,1.8-4.6,3.6-9.2,5.4-13.8.7-1.9,1.3-3.9,2.3-5.7.6-1,1.8-1.9,2.9-2.1,1.9-.4,4-.2,6-.3,2,0,3.6.7,4.3,2.6,1.1,2.8,2.1,5.7,3.3,8.5,3.7,9.2,7.4,18.3,11,27.4,2.5,6.3,4.8,12.6,7.2,18.9,1.6,4.2,3.4,8.3,5,12.6,1.7,4.4,3.2,8.8,4.8,13.2.7,1.9,1.6,3.8,2.4,5.7.7,1.6,0,2.7-1.7,3-.7.1-1.4,0-2.1.1h-2,0ZM106.8,222.1h30.8c-5.2-13.9-10.2-27.6-15.4-41.4-5.1,13.6-10.2,27.3-15.5,41.4h0ZM129.1,191.5c1.7.3,3.3.4,2.2,2.6,1.1.3,2.1.5,3.7.8-1.5.9-2.7,1.5-3.5,2.1,1.5,2.2,2.9,4.1,4.1,5.9,0-.5.1-1.3.4-2.2.1-.4.6-.7.9-1.1-.5-.2-1-.4-1.5-.6-.3-.1-.7-.2-.5-.2.4-2.5.7-4.7,1-7,0-.2-.3-.4-.5-.6-2-1.6-3.6-1.6-6.3.2h0ZM155.3,246c.2,0,.4-.1.6-.2-.5-2-1-4-1.6-6-2.4,1.6-2.7,2.4-2,4.2-.5.6-1.3,1.2-1.2,1.5.3.7,1,1.2,1.6,1.9,0,0-.3.4-.5.8.7,0,1.3-.1,1.9-.2,0,1.1.8,2.7,2.3,4.7v-2.6c.5-.3,1-.6,1.4-.9v-.6c-.9-.3-1.7-.8-2.6-1-1.6-.4-2.4-2.2-1.4-3.7.4.7.8,1.3,1.2,1.9l.3.2h0ZM126.6,171.4c-.2,0-.3.2-.5.3-.3.6-.5,1.2-.8,1.9-.4-.5-.8-1-1.2-1.5-.2-.3-.3-.9-.5-1-.7-.2-1.5-.4-2.1-.2-.5.1-.8.8-1.2,1.3.5.4,1,.9,1.6,1.2,1,.4,2.1.7,3.1.8.6,0,1.4-.3,1.7-.8.2-.5,0-1.3-.2-1.9h0ZM126.9,182c0,.2.3.3.4.5.8-.6,1.8-1.1,2.2-1.8.2-.5-.4-1.8-1-2.2-.4-.3-1.4.3-2.2.4v.6c.5,0,1,0,1.9.2-.5.9-1,1.7-1.4,2.4h.1ZM138.8,206.2c-2-.7,0-2-.7-3.2-1,.9-1.8,1.7-3,2.7,1.6.2,2.7.3,3.7.4h0ZM115.1,176.6c2.1-.4,4.3-.8,6.5-1.2-2.3-.5-4.8-1.7-6.5,1.2ZM116.1,180.9c0,1.4,0,2.6.2,4,1.8-2,1.7-2.9-.2-4ZM113.5,189.6c.2-.1.4-.3.6-.4-.6-.8-1.3-1.6-2.1-2.6-.2,1.2-.3,1.8-.3,2.1.7.4,1.3.6,1.9.9h0Z"/>
    </g>
    <path class="cls-6" d="M467,298.2c-4.1-.1-7.8-1.6-11-4.6-3.2-2.9-5.9-6.8-8.2-11.6-2.3-4.8-4.1-10.3-5.5-16.5s-2.4-12.7-3-19.3c-2.8-5.8-5.3-12-7.5-18.7s-3.9-14-5.2-21.9c-1.2-7.5-1.7-14.5-1.5-21.2s1.1-12.8,2.6-18.4c1.5-5.6,3.6-10.6,6.3-14.9,2.7-4.3,5.9-7.9,9.7-10.6,3.7-2.7,7.9-4.6,12.5-5.6s9.6-1,14.9.1c4.7,1,8.7,2.3,11.9,4,3.3,1.7,6.1,3.7,8.4,6s4.3,4.9,5.9,7.8c1.6,2.9,3.1,6,4.3,9.3,2.3,6,4.2,12.6,5.5,19.7,1.3,7.2,2.1,14.6,2.4,22.3s0,15.5-.6,23.2c-.7,7.8-1.9,15.3-3.6,22.5-1.7,7.2-3.8,13.8-6.4,20s-5.6,11.4-9,15.8c3.8,2,7.6,3.8,11.5,5.4,3.8,1.6,7.5,2.9,11.2,3.9,3.6,1,7.1,1.8,10.5,2.4,3.4.5,6.5.8,9.4.9.6.1,1.2.5,1.6,1.1.5.6.8,1.2.9,1.8,0,.6,0,1.1-.3,1.5s-.9.6-1.7.5c-7.4.6-15.4.1-23.9-1.5-8.6-1.6-17.2-4.7-25.8-9.1-2.4,2-5,3.5-7.7,4.5s-5.6,1.5-8.6,1.4v-.2h0ZM455.7,257c3.1,4.1,6.5,7.8,10.1,11.2s7.4,6.5,11.3,9.4c2.7-3.3,5.2-7.7,7.5-13.1s4.3-11.4,6-18,3.1-13.6,4.2-21,1.8-14.7,2-22c.3-7.3.1-14.3-.5-21s-1.6-12.7-3.2-18c-1.5-5.3-3.6-9.6-6.2-13s-5.8-5.4-9.6-6.1c-4.1-.7-7.9-.4-11.5.9s-6.7,3.3-9.6,6.1-5.4,6.1-7.6,10.1-4.1,8.3-5.6,12.9c-1.5,4.6-2.7,9.5-3.5,14.5-.8,5.1-1.2,10-1.2,15s0,3.9.2,5.7c.1,1.8.3,3.7.6,5.5.4-4.6,1.1-8.8,1.9-12.8s1.8-7.5,3-10.5,2.6-5.5,4.2-7.4,3.4-3,5.4-3.4c1.7-.3,3.5-.2,5.3.2,1.8.5,3.6,1.2,5.2,2.1,1.7.9,3.2,2,4.6,3.2s2.5,2.4,3.3,3.5,1.3,2.2,1.5,3.1c.2.9-.2,1.6-1,1.9-1.7.8-3.3,2.3-4.8,4.5s-2.9,4.9-4.2,8.1c-1.3,3.2-2.4,6.7-3.4,10.6-1,3.9-1.8,8-2.5,12.2-.7,4.3-1.2,8.5-1.6,12.9-.3,4.3-.5,8.5-.4,12.5v.2h.1ZM469.5,283.4c-2.2-1.6-4.2-3.3-6.2-5.1-2-1.8-4-3.7-6-5.8.8,3.3,1.9,6,3.2,8.1,1.3,2.1,3,3.2,4.9,3.4,1.4,0,2.7-.1,4.1-.6Z"/>
    <g>
      <path class="cls-6" d="M7.2,279.2c.2-1.6.7-3.1,1.5-4.5s1.7-2.5,2.9-3.6c1.2-1,2.5-1.9,3.9-2.6,1.5-.7,3-1.3,4.7-1.8,1.6-.4,3.3-.7,5.1-.9s3.5-.2,5.2,0c1.7.1,3.3.4,4.9.8,1.6.4,3,.9,4.4,1.6.6.4,1.1.8,1.5,1.4s.6,1.1.7,1.5c0,.5,0,.8-.2,1.1s-.7.2-1.3,0c-1.3-.6-2.8-1-4.4-1.3-1.6-.3-3.2-.3-4.8-.3s-3.3.3-4.9.7c-1.6.4-3.2,1-4.6,1.7-1.5.7-2.8,1.6-4.1,2.6-1.2,1-2.3,2.2-3.2,3.6-.9,1.3-1.5,2.8-2,4.5s-.6,3.4-.5,5.3c-.2.3-.5.3-.8,0s-.7-.7-1-1.3-.7-1.3-1.1-2.1c-.4-.8-.7-1.7-.9-2.5-.3-.8-.5-1.6-.6-2.3,0-.7-.2-1.2,0-1.6h-.4ZM27.8,274.6c-1.1,2.3-1.9,4.6-2.5,6.9s-1.1,4.7-1.4,7.2-.5,5.1-.6,7.7c0,2.7-.1,5.5-.1,8.4v.4h-.3c-.1,0-.3-.2-.5-.4-.2-.2-.4-.4-.5-.7s-.3-.5-.5-.8-.2-.5-.3-.7c-.6-2.4-1-4.8-1.1-7.2-.2-2.3-.2-4.6,0-6.9s.5-4.6,1-6.8c.5-2.3,1.1-4.5,1.8-6.8,0-.2.2-.3.4-.4.3-.1.6-.2,1-.3.4,0,.8-.1,1.3-.1h1.3c.4,0,.7,0,.9.2.2,0,.3.2.3.4h-.2,0Z"/>
      <path class="cls-6" d="M29.6,286.3s.1-.1.3-.1h.5c.2,0,.3.1.5.2.1,0,.2.2.2.3,0,.2-.2.5-.3,1.1-.2.6-.3,1.2-.5,2-.2.7-.3,1.5-.4,2.4-.1.8-.2,1.6-.2,2.3s0,1.2.3,1.7.5.7.9.6c.3,0,.5-.2.8-.5s.5-.7.7-1.1.4-.9.6-1.4c.2-.5.3-1,.5-1.4h0v-2.9c.2-.6.4-1.2.7-1.7s.5-.9.8-1.1.6-.3.9-.2.7.5,1,1.1v2.2c0,.5-.2,1.1-.5,1.8-.2.6-.5,1.2-.9,1.8,0,.3,0,.6.2.9,0,.3.2.5.4.7s.3.4.5.4h.7c.2,0,.4-.2.6-.4.2-.2.3-.5.5-.7s.3-.6.4-.9c0-.3.2-.6.3-.9,0-.1.2-.1.3,0,0,0,.2.2.2.4v1.4c0,.5-.2.9-.4,1.4-.2.4-.4.8-.6,1.1-.3.3-.5.6-.8.7s-.5.2-.8.2-.6,0-.9-.3c-.3-.2-.6-.4-.9-.8s-.6-.8-.9-1.4c-.2.7-.4,1.4-.7,2.2-.3.8-.6,1.4-1,2.1-.4.6-.8,1.2-1.2,1.6-.4.4-.9.6-1.4.6s-1.1-.2-1.5-.6-.7-.9-1-1.7c-.2-.6-.3-1.3-.4-2.1v-2.5c0-.9.2-1.7.4-2.6.2-.9.4-1.7.6-2.4.2-.7.4-1.4.7-2,.2-.6.5-1,.7-1.2l-.2-.3h.3Z"/>
      <path class="cls-6" d="M48.1,288.8c.4,1.1.7,2.3.8,3.4s0,2.1,0,3.1h.2c.2,0,.4-.2.6-.4.2-.2.3-.5.5-.7s.3-.6.4-.9c0-.3.2-.6.3-.9,0-.1.2-.1.3,0,0,0,.2.2.2.4v1.4c0,.5-.2.9-.4,1.4-.2.4-.4.8-.6,1.1-.3.3-.5.6-.8.7-.4.2-.8.2-1.2.1-.5,1.2-1.1,2.1-1.9,2.8-.8.7-1.8,1.1-2.8,1.2-.4,0-.8,0-1.3-.1s-.9-.3-1.4-.6c-.5-.3-.9-.7-1.3-1.2-.4-.5-.8-1.2-1-2-.3-.8-.4-1.7-.4-2.5s0-1.8.4-2.6c.2-.9.6-1.7,1-2.4.4-.8.9-1.4,1.5-2s1.3-1,2-1.3,1.5-.4,2.3-.4.4,0,.6.2.5.3.8.5.5.5.7.8.4.7.6,1.1v-.2h0ZM46.2,289.5h0v-.3c-.2-.3-.4-.5-.5-.6,0,0-.3-.1-.5,0-.3,0-.7.2-1,.5s-.7.7-1,1.2-.6,1-.8,1.6-.4,1.2-.5,1.8c0,.6-.2,1.2,0,1.8,0,.6.2,1.1.4,1.5.3.6.7.9,1.1.9s.8-.3,1.3-.8c.4-.5.8-1.2,1.1-2v-.2c-.2-.2-.3-.5-.4-.9,0-.4-.2-.9-.2-1.4v-1.5c0-.5.4-.9.9-1.2v-.4h.1Z"/>
      <path class="cls-6" d="M59.4,292.7c-.2,1.6-.5,2.9-1,4.1s-1.1,2.1-1.7,3c-.6.8-1.3,1.6-2.1,2.1-.7.6-1.5,1.1-2.2,1.5-.2.8-.3,1.7-.5,2.6s-.3,1.9-.4,3c0,.5-.2.9-.3,1.3s-.3.8-.6,1.1c-.3.3-.6.6-1,.7-.4.2-.9.3-1.6.3s-1.7-.3-2.5-.8c-.7-.5-1.3-1.4-1.6-2.6-.2-.8-.3-1.6,0-2.2.2-.7.4-1.2.8-1.8.4-.5.9-1,1.4-1.4.6-.4,1.1-.7,1.7-1,.3-.2.6-.3,1-.5.3-.1.7-.3,1-.4.3-1.3.6-2.6.9-4,.3-1.3.6-2.7,1-4.2v-.3s0-.2-.2-.2h-.5c0-.6.3-1.1.5-1.7s.5-1.2.7-1.8c.2-.6.5-1.2.7-1.8s.5-1.1.7-1.6c0,0,.2-.1.4,0s.4,0,.7.1.4.1.6.2c.2,0,.3.2.3.3v.5c0,.3,0,.6-.2,1.1s-.2.9-.2,1.4-.2,1-.3,1.4c0,.5-.2.9-.2,1.3v.9c-.2,1.5-.3,2.7-.5,3.8-.2,1.1-.4,2.1-.5,3,.6-.3,1.1-.7,1.6-1.2.5-.4,1-1,1.5-1.6s.9-1.4,1.4-2.2c.4-.8.8-1.8,1.1-2.9h.2s.2,0,.2.1c0,0,0,.1.2.2v.2h-.5ZM48.3,307.5c0-.4.2-.7.3-1s.2-.7.3-1c0,0-.2.1-.4.3s-.5.3-.7.5c-.3.2-.5.5-.8.7-.3.3-.5.6-.6.9-.2.3-.2.6-.2.9s0,.6.4.9c0,.1.2.2.3.2s.3,0,.5-.2c.2-.1.3-.4.5-.7.2-.3.4-.8.5-1.4h0ZM54.5,279.5c.2-.6.4-1,.8-1.3.4-.2.7-.2,1,.1.2.1.3.3.4.6,0,.3.2.5.2.8v.9c0,.3,0,.6-.2.9-.2.6-.5,1-.8,1.2-.4.2-.7.2-1-.1-.3-.3-.5-.8-.6-1.4,0-.6,0-1.2.2-1.8h0Z"/>
      <path class="cls-6" d="M73.8,286.3s0-.1.3-.1h.5c.2,0,.3.1.5.2,0,0,.2.2.2.3,0,.2-.2.5-.3,1.1,0,.6-.3,1.2-.5,2-.2.7-.3,1.5-.4,2.4,0,.8-.2,1.6-.2,2.3s0,1.2.3,1.7.5.7.9.6c.3,0,.6-.2.9-.5s.6-.7.9-1.1.5-.9.8-1.4c.2-.5.4-1,.5-1.4,0-.1.2-.1.3,0,0,0,.2.2.2.4v1.3c0,.5-.2,1.1-.4,1.8-.2.7-.4,1.3-.7,2-.3.7-.6,1.3-.9,1.8-.3.6-.7,1-1.1,1.3s-.8.5-1.3.5-1.1-.2-1.5-.6-.7-.9-1-1.7c0-.2,0-.3-.2-.5v-.6c-.2.5-.3.9-.5,1.3s-.4.8-.6,1.1c-.2.3-.5.5-.8.7s-.6.2-.9.2c-.6,0-1.1-.2-1.5-.6s-.7-.9-1-1.7c-.3-.7-.4-1.5-.4-2.4v-2.6c0-.9.3-1.7.6-2.6.2-.9.5-1.6.8-2.3.3-.7.6-1.3.9-1.8s.6-.9.8-1.1c0,0,0-.1.3-.1h.5c.2,0,.3.1.5.2,0,0,.2.2.2.3,0,.2-.2.5-.4,1.1-.2.5-.4,1.2-.6,1.9-.2.7-.4,1.5-.6,2.3s-.3,1.6-.4,2.3v1.8c0,.5.4.7.8.8.3,0,.6-.1.9-.5s.5-.8.7-1.3.4-1,.5-1.5.3-1,.4-1.3c0-.7.3-1.3.4-1.9.2-.6.3-1.2.5-1.7s.4-1,.5-1.3c.2-.4.4-.7.5-.8v-.3h0Z"/>
      <path class="cls-6" d="M80.4,280.2c.2-.5.5-1,.8-1.4s.7-.6,1-.9c.4-.2.7-.3,1.1-.4s.7,0,.9,0c.3.1.5.3.6.5s.2.6,0,.9c0,0,0,.3-.3.7-.2.4-.4.9-.6,1.5-.3.6-.6,1.3-.9,2.1-.3.8-.6,1.6-1,2.5s-.6,1.7-.9,2.6-.5,1.7-.7,2.6c-.2.8-.3,1.6-.4,2.3v1.8c0,.3.2.6.3.8s.3.3.4.4c0,0,.3.1.5.1h.5c.3,0,.6-.2.9-.5s.5-.7.8-1.1c.2-.4.4-.9.6-1.4s.4-1,.5-1.4c0-.1.2-.1.3,0,0,0,.2.2.2.4v1.3c0,.6-.2,1.1-.4,1.8-.2.7-.4,1.3-.7,2-.3.7-.6,1.3-.9,1.8-.3.6-.7,1-1.1,1.3s-.8.5-1.3.5-1.1-.3-1.5-.7c-.4-.5-.7-1-.9-1.5-.3-.8-.4-1.8-.5-3,0-1.2,0-2.4.2-3.8,0-1.3.3-2.7.6-4,.2-1.3.5-2.6.8-3.7s.5-2.1.7-2.9.4-1.3.5-1.5v.3h0Z"/>
      <path class="cls-6" d="M84,287.2v-1.7c.2-.5.6-.9,1.1-1.2.2-1.1.4-2,.6-2.7s.3-1.2.4-1.4c.3-.8.7-1.4,1.3-1.8.6-.4,1.1-.7,1.6-.7s.9,0,1.3.3c.3.3.4.7.3,1.3,0,0,0,.3-.2.5s-.2.6-.4,1c-.2.4-.3.9-.5,1.5s-.4,1.1-.6,1.8h.8s0,.2.2.5v2.3c-.3,0-.5-.2-.8-.2s-.5-.1-.8-.1c-.3.8-.5,1.7-.7,2.5-.2.9-.4,1.7-.5,2.5s-.2,1.5-.3,2.2v1.7c0,.3.2.6.3.8s.3.3.4.4c0,0,.3.1.5.1h.5c.3,0,.6-.2.9-.5s.5-.7.8-1.1c.2-.4.4-.9.6-1.4s.4-1,.5-1.4c0-.1.2-.1.3,0,0,0,.2.2.2.4v1.3c0,.6-.2,1.1-.4,1.8-.2.7-.4,1.3-.7,2-.3.7-.6,1.3-.9,1.8-.3.6-.7,1-1.1,1.3s-.8.5-1.3.5-1.1-.3-1.5-.7c-.4-.5-.7-1-.9-1.5-.2-.7-.4-1.5-.5-2.5v-3.1c0-1.1,0-2.3.2-3.4s.3-2.3.4-3.4c0,0-.3.2-.4.2s-.3.2-.4.3l-.4-.2h0Z"/>
      <path class="cls-6" d="M92.8,286.3s.2-.1.4-.1h.6c.2,0,.4.1.6.2.2,0,.2.2.2.3,0,.2-.2.5-.3,1.1-.2.6-.3,1.2-.5,2-.2.7-.3,1.5-.4,2.4,0,.8-.2,1.6-.2,2.3s0,1.2.3,1.7.5.7.9.6c.3,0,.6-.2.9-.5s.6-.7.9-1.1.5-.9.8-1.4c.2-.5.4-1,.5-1.4,0-.1.2-.1.3,0,0,0,.2.2.2.4v1.3c0,.5-.2,1.1-.4,1.8-.2.7-.4,1.3-.7,2s-.6,1.3-.9,1.8c-.3.6-.7,1-1.1,1.3s-.8.5-1.3.5-1.1-.2-1.5-.6-.7-.9-1-1.7c-.2-.6-.3-1.3-.4-2.1v-2.5c0-.9,0-1.7.3-2.6,0-.9.3-1.7.5-2.4.2-.8.4-1.4.6-2s.5-1,.7-1.2h0ZM94.4,279.5c.2-.6.4-1,.8-1.3.4-.2.7-.2,1,.1.2.1.3.3.4.6,0,.3.2.5.2.8v.9c0,.3,0,.6-.2.9-.2.6-.5,1-.8,1.2-.4.2-.7.2-1-.1s-.5-.8-.6-1.4c0-.6,0-1.2.2-1.8h0Z"/>
      <path class="cls-6" d="M100.1,299.9v1.2s-.2.1-.3.1h-1.9s-.2,0-.4-.2-.3-.3-.4-.6c0-.3-.3-.6-.4-1.1s-.2-1.1,0-1.9c0-.8.2-1.6.4-2.5.2-.9.4-1.8.7-2.7.3-.9.6-1.8.9-2.6.3-.8.6-1.5.9-2.1s.6-1,.8-1.2c0,0,0-.1.3-.1h.5c.2,0,.3.1.5.2,0,0,.2.2,0,.3,0,.2-.2.5-.3,1.1,0,.6-.3,1.3-.4,2.1.2-.5.4-1,.6-1.4s.5-.9.7-1.2c.3-.4.5-.6.8-.9.3-.2.6-.4.9-.4.6,0,1.1.1,1.4.6.4.4.7,1,.9,1.7,0,.3.2.6.2.9s0,.6.2.9c.2-.6.3-1.1.6-1.6.2-.5.4-.9.7-1.3.3-.4.5-.7.9-.9.3-.2.7-.3,1-.3.6,0,1.2.3,1.6.7.5.4.8,1,1.1,1.7.3,1,.5,1.9.6,2.8v2.3c0,.7-.2,1.3-.2,1.9v1.4c0,.2,0,.3.3.3s.3,0,.4-.1c.2,0,.3-.2.5-.4.2-.2.4-.3.5-.5.2-.2.3-.3.4-.4,0-.1.2-.2.2-.2.3-.5.6-1,.8-1.6.3-.6.5-1.1.6-1.5,0-.1.2-.1.3,0,0,0,.2.2.2.4v1.9l-.3,1.2c0,.4-.3.9-.4,1.3-.2.6-.5,1.1-.8,1.6s-.7,1-1.1,1.4-.8.7-1.2.9c-.4.2-.8.3-1.3.2-.6-.1-1.1-.4-1.5-.9-.3-.5-.6-1-.8-1.6-.3-.9-.4-1.8-.3-2.7,0-.9.3-1.7.5-2.5s.4-1.5.5-2.2c.2-.7.2-1.3,0-1.8,0-.5-.4-.8-.7-.8s-.6.2-.9.5-.6.8-.9,1.3-.5,1.1-.8,1.8c-.2.6-.4,1.2-.5,1.8,0,1-.2,1.9-.3,2.9v4.2s-.2.1-.3.1h-1.8s-.3-.1-.4-.3-.3-.4-.4-.7c0-.3-.3-.7-.4-1.2s-.2-1,0-1.6c0-.6,0-1.2.3-1.9,0-.7.3-1.4.5-2.1s.4-1.4.6-2.1c.2-1,.2-1.7.2-2.1s-.3-.7-.7-.7-.6.1-.9.5-.6.9-.9,1.4c-.3.6-.6,1.2-.8,1.9s-.4,1.3-.6,1.8c0,1-.2,2-.2,3v2.7h-.5Z"/>
      <path class="cls-6" d="M123.4,290.1s0-.1.3-.1h.5c.2,0,.3.1.5.2,0,0,.2.2.2.3v3.4c0,.5,0,.9.3,1.3,0,.4.3.7.5,1s.5.4.9.4.6-.2.9-.5.5-.7.8-1.1c.2-.4.5-.9.6-1.4.2-.5.4-1,.5-1.4,0-.1.2-.1.3,0,.1,0,.2.2.2.4v1.3c0,.6-.2,1.1-.4,1.8-.2.7-.4,1.3-.7,2s-.6,1.3-.9,1.8c-.3.6-.7,1-1.1,1.3s-.8.5-1.3.5-1.1-.3-1.5-.7c-.4-.5-.7-1-.9-1.5,0-.4-.3-.8-.3-1.2s0-.8-.2-1.3c-.2.5-.4,1-.7,1.5-.2.5-.5,1-.8,1.5s-.7.8-1.1,1.1c-.4.3-.8.5-1.3.5s-1.1-.3-1.6-.8-.9-1.1-1.2-1.9c-.3-.8-.4-1.7-.4-2.6s.2-1.9.5-2.8.7-1.8,1.2-2.7c.5-.9,1.1-1.6,1.7-2.3s1.3-1.2,2-1.6,1.5-.6,2.2-.6,1.2.1,1.7.4c.6.3,1.1.7,1.7,1.4.2.2.4.5.6.8s.3.7.3,1.1,0,.4-.3.8-.4.7-.6,1-.4.6-.6.8c-.2.2-.3.2-.3,0v-1.1c0-.5-.2-1-.3-1.4,0-.5-.3-.9-.6-1.2-.3-.4-.6-.6-1-.6s-.9.1-1.4.4-.8.8-1.2,1.3c-.3.5-.7,1.1-.9,1.8s-.5,1.3-.6,1.9-.2,1.2-.3,1.7v1.1c0,.3.3.4.4.5s.3.1.4.1c.2,0,.4-.1.6-.4s.5-.6.7-.9c.2-.4.4-.8.6-1.3s.4-.9.6-1.4c0-.6.2-1.1.4-1.6,0-.5.3-.8.4-1h0Z"/>
      <path class="cls-6" d="M128.5,287.2s-.1,0-.1-.2v-.5c0-.2,0-.4.1-.6,0-.2,0-.3.1-.4.2-.5.6-.9,1.1-1.2.2-1.1.4-2,.6-2.7.2-.7.3-1.2.4-1.4.3-.8.7-1.4,1.3-1.8s1.1-.7,1.6-.7.9,0,1.3.3c.3.3.4.7.3,1.3,0,0,0,.3-.2.5s-.2.6-.4,1-.3.9-.5,1.5-.4,1.1-.6,1.8h.8s.1.2.2.5v1.8c0,.3,0,.4-.1.5-.3,0-.5-.2-.8-.2s-.5-.1-.8-.1c-.3.8-.5,1.7-.7,2.5-.2.9-.4,1.7-.5,2.5s-.2,1.5-.3,2.2c0,.7,0,1.3.1,1.7,0,.3.2.6.3.8s.3.3.4.4c.1,0,.3.1.5.1h.5c.3,0,.6-.2.9-.5.3-.3.5-.7.8-1.1.2-.4.4-.9.6-1.4.2-.5.4-1,.5-1.4,0-.1.2-.1.3,0,.1,0,.2.2.2.4v1.3c0,.6-.2,1.1-.4,1.8-.2.7-.4,1.3-.7,2s-.6,1.3-.9,1.8c-.3.6-.7,1-1.1,1.3-.4.3-.8.5-1.3.5s-1.1-.3-1.5-.7c-.4-.5-.7-1-.9-1.5-.2-.7-.4-1.5-.5-2.5,0-1-.1-2,0-3.1,0-1.1.1-2.3.2-3.4s.3-2.3.4-3.4c-.1,0-.3.2-.4.2s-.3.2-.4.3l-.4-.2h0Z"/>
      <path class="cls-6" d="M137.4,286.3s.2-.1.4-.1h.6c.2,0,.4.1.6.2.2,0,.2.2.2.3,0,.2-.2.5-.3,1.1-.2.6-.3,1.2-.5,2-.2.7-.3,1.5-.4,2.4-.1.8-.2,1.6-.2,2.3s0,1.2.3,1.7.5.7.9.6c.3,0,.6-.2.9-.5s.6-.7.9-1.1c.3-.4.5-.9.8-1.4.2-.5.4-1,.5-1.4,0-.1.2-.1.3,0,.1,0,.2.2.2.4v1.3c0,.5-.2,1.1-.4,1.8-.2.7-.4,1.3-.7,2s-.6,1.3-.9,1.8c-.3.6-.7,1-1.1,1.3-.4.3-.8.5-1.3.5s-1.1-.2-1.5-.6-.7-.9-1-1.7c-.2-.6-.3-1.3-.4-2.1v-2.5c0-.9.1-1.7.3-2.6.1-.9.3-1.7.5-2.4.2-.8.4-1.4.6-2,.2-.6.5-1,.7-1.2h0ZM138.9,279.5c.2-.6.4-1,.8-1.3.4-.2.7-.2,1,.1.2.1.3.3.4.6,0,.3.2.5.2.8v.9c0,.3,0,.6-.2.9-.2.6-.5,1-.8,1.2-.4.2-.7.2-1-.1s-.5-.8-.6-1.4c0-.6,0-1.2.2-1.8h0Z"/>
      <path class="cls-6" d="M144,286.3s.1-.1.3-.1h.5c.2,0,.3.1.5.2.1,0,.2.2.2.3,0,.2-.2.5-.3,1.1-.2.6-.3,1.2-.5,2-.2.7-.3,1.5-.4,2.4-.1.8-.2,1.6-.2,2.3s0,1.2.3,1.7.5.7.9.6c.3,0,.5-.2.8-.5s.5-.7.7-1.1.4-.9.6-1.4c.2-.5.3-1,.5-1.4h0v-1.8c0-.3,0-.5.1-.7,0-.2,0-.4.1-.4.2-.6.4-1.2.7-1.7s.5-.9.8-1.1.6-.3.9-.2.7.5,1,1.1c0,.1.1.4.1.8v1.4c0,.5-.2,1.1-.5,1.8-.2.6-.5,1.2-.9,1.8,0,.3,0,.6.2.9,0,.3.2.5.4.7s.3.4.5.4h.7c.2,0,.4-.2.6-.4.2-.2.3-.5.5-.7s.3-.6.4-.9c.1-.3.2-.6.3-.9,0-.1.2-.1.3,0,.1,0,.2.2.2.4v1.4c0,.5-.2.9-.4,1.4-.2.4-.4.8-.6,1.1-.3.3-.5.6-.8.7s-.5.2-.8.2-.6,0-.9-.3c-.3-.2-.6-.4-.9-.8s-.6-.8-.9-1.4c-.2.7-.4,1.4-.7,2.2-.3.8-.6,1.4-1,2.1-.4.6-.8,1.2-1.2,1.6s-.9.6-1.4.6-1.1-.2-1.5-.6-.7-.9-1-1.7c-.2-.6-.3-1.3-.4-2.1v-2.5c0-.9.2-1.7.4-2.6s.4-1.7.6-2.4c.2-.7.4-1.4.7-2,.2-.6.5-1,.7-1.2l-.2-.3h0Z"/>
      <path class="cls-6" d="M159,298.7c-.3-.9-.4-1.8-.3-2.7s.2-1.8.4-2.6c.2-.8.4-1.6.5-2.2.2-.7.2-1.2,0-1.7-.1-.5-.3-.7-.7-.8-.3,0-.6.1-.9.5-.3.4-.6.8-.9,1.4-.3.5-.5,1.1-.8,1.8-.2.6-.4,1.2-.5,1.8-.1,1-.2,2-.2,3v3.9s-.2.1-.3.1h-1.9c-.1,0-.2,0-.4-.2-.1-.1-.3-.3-.4-.6-.1-.3-.3-.6-.4-1.1-.1-.5-.2-1.1-.1-1.9,0-.8.2-1.6.4-2.5s.4-1.8.7-2.7c.3-.9.6-1.8.9-2.6.3-.8.6-1.5.9-2.1.3-.6.6-1,.8-1.2,0,0,.1-.1.3-.1h.5c.2,0,.3.1.5.2.1,0,.2.2.1.3,0,.2-.2.6-.3,1.2s-.3,1.4-.4,2.3c.2-.5.4-1.1.6-1.6.2-.5.4-1,.7-1.4s.5-.7.8-1,.6-.4.9-.4c.6,0,1.1.2,1.5.7s.7,1,1,1.7c.3,1,.5,1.9.5,2.8s0,1.7-.1,2.4c0,.7-.2,1.4-.3,1.9v1.4c0,.2.1.3.3.3s.3,0,.4-.1c.2,0,.3-.2.5-.4.2-.2.4-.3.5-.5.2-.2.3-.3.4-.4,0-.1.2-.2.2-.2.3-.5.6-1,.8-1.6.3-.6.5-1.1.6-1.5,0-.1.2-.1.3,0,.1,0,.2.2.2.4v.8c0,.4,0,.7-.1,1.1,0,.4-.2.8-.3,1.2-.1.4-.3.9-.4,1.3-.2.6-.5,1.1-.8,1.6s-.7,1-1.1,1.4c-.4.4-.8.7-1.2.9-.4.2-.8.3-1.3.2-.6-.1-1.1-.4-1.5-.9-.3-.5-.6-1-.8-1.6h.2Z"/>
      <path class="cls-6" d="M167.5,286.3s.2-.1.4-.1h.6c.2,0,.4.1.6.2.2,0,.2.2.2.3,0,.2-.2.5-.3,1.1-.2.6-.3,1.2-.5,2-.2.7-.3,1.5-.4,2.4-.1.8-.2,1.6-.2,2.3s0,1.2.3,1.7.5.7.9.6c.3,0,.6-.2.9-.5s.6-.7.9-1.1c.3-.4.5-.9.8-1.4.2-.5.4-1,.5-1.4,0-.1.2-.1.3,0,.1,0,.2.2.2.4v1.3c0,.5-.2,1.1-.4,1.8-.2.7-.4,1.3-.7,2s-.6,1.3-.9,1.8c-.3.6-.7,1-1.1,1.3-.4.3-.8.5-1.3.5s-1.1-.2-1.5-.6-.7-.9-1-1.7c-.2-.6-.3-1.3-.4-2.1v-2.5c0-.9.1-1.7.3-2.6.1-.9.3-1.7.5-2.4.2-.8.4-1.4.6-2,.2-.6.5-1,.7-1.2h0ZM169,279.5c.2-.6.4-1,.8-1.3.4-.2.7-.2,1,.1.2.1.3.3.4.6,0,.3.2.5.2.8v.9c0,.3,0,.6-.2.9-.2.6-.5,1-.8,1.2-.4.2-.7.2-1-.1s-.5-.8-.6-1.4c0-.6,0-1.2.2-1.8h0Z"/>
      <path class="cls-6" d="M182.3,286.3s.1-.1.3-.1h.5c.2,0,.3.1.5.2.1,0,.2.2.2.3,0,.2-.2.5-.3,1.1-.2.6-.3,1.2-.5,2-.2.7-.3,1.5-.4,2.4-.1.8-.2,1.6-.2,2.3s0,1.2.3,1.7.5.7.9.6c.3,0,.5-.2.8-.5s.5-.7.7-1.1.4-.9.6-1.4c.2-.5.3-1,.5-1.4h0v-1.8c0-.3,0-.5.1-.7,0-.2,0-.4.1-.4.2-.6.4-1.2.7-1.7s.5-.9.8-1.1.6-.3.9-.2.7.5,1,1.1c0,.1.1.4.1.8v1.4c0,.5-.2,1.1-.5,1.8-.2.6-.5,1.2-.9,1.8,0,.3,0,.6.2.9,0,.3.2.5.4.7s.3.4.5.4h.7c.2,0,.4-.2.6-.4.2-.2.3-.5.5-.7s.3-.6.4-.9c.1-.3.2-.6.3-.9,0-.1.2-.1.3,0,.1,0,.2.2.2.4v1.4c0,.5-.2.9-.4,1.4-.2.4-.4.8-.6,1.1-.3.3-.5.6-.8.7s-.5.2-.8.2-.6,0-.9-.3c-.3-.2-.6-.4-.9-.8s-.6-.8-.9-1.4c-.2.7-.4,1.4-.7,2.2-.3.8-.6,1.4-1,2.1-.4.6-.8,1.2-1.2,1.6s-.9.6-1.4.6-1.1-.2-1.5-.6-.7-.9-1-1.7c-.2-.6-.3-1.3-.4-2.1v-2.5c0-.9.2-1.7.4-2.6s.4-1.7.6-2.4c.2-.7.4-1.4.7-2,.2-.6.5-1,.7-1.2l-.2-.3h0Z"/>
      <path class="cls-6" d="M200.8,288.8c.4,1.1.7,2.3.8,3.4s.1,2.1,0,3.1h.2c.2,0,.4-.2.6-.4.2-.2.3-.5.5-.7s.3-.6.4-.9c.1-.3.2-.6.3-.9,0-.1.2-.1.3,0,.1,0,.2.2.2.4v1.4c0,.5-.2.9-.4,1.4-.2.4-.4.8-.6,1.1-.3.3-.5.6-.8.7-.4.2-.8.2-1.2.1-.5,1.2-1.1,2.1-1.9,2.8-.8.7-1.8,1.1-2.8,1.2-.4,0-.8,0-1.3-.1s-.9-.3-1.4-.6c-.5-.3-.9-.7-1.3-1.2-.4-.5-.8-1.2-1-2-.3-.8-.4-1.7-.4-2.5s.1-1.8.4-2.6c.2-.9.6-1.7,1-2.4.4-.8.9-1.4,1.5-2s1.3-1,2-1.3,1.5-.4,2.3-.4.4,0,.6.2.5.3.8.5.5.5.7.8.4.7.6,1.1v-.2h-.1ZM198.9,289.5h.1v-.3c-.2-.3-.4-.5-.5-.6-.1,0-.3-.1-.5,0-.3,0-.7.2-1,.5s-.7.7-1,1.2-.6,1-.8,1.6-.4,1.2-.5,1.8c-.1.6-.2,1.2-.1,1.8,0,.6.2,1.1.4,1.5.3.6.7.9,1.1.9s.8-.3,1.3-.8c.4-.5.8-1.2,1.1-2v-.2c-.2-.2-.3-.5-.4-.9-.1-.4-.2-.9-.2-1.4s0-1,.1-1.5.4-.9.9-1.2v-.4h0Z"/>
      <path class="cls-6" d="M212.4,280.2c.3-.8.7-1.4,1.3-1.8s1.1-.7,1.6-.7.9,0,1.3.3c.3.3.4.7.3,1.3,0,.1-.2.5-.5,1.2s-.6,1.5-1.1,2.4c-.4,1-.8,2.1-1.3,3.2-.5,1.2-.9,2.4-1.2,3.5-.3,1.2-.6,2.2-.8,3.3-.2,1-.2,1.9,0,2.5,0,.3.2.6.3.8s.3.3.4.4c.1,0,.3.1.5.1h.4c.3,0,.6-.2.9-.5.3-.3.5-.7.8-1.1.2-.4.5-.9.6-1.4.2-.5.4-1,.5-1.4,0-.1.2-.1.3,0,.1,0,.2.2.2.4v1.3c0,.6-.2,1.1-.4,1.8-.2.7-.4,1.3-.7,2s-.6,1.3-.9,1.8c-.3.6-.7,1-1.1,1.3-.4.3-.8.5-1.3.5s-1.1-.3-1.5-.7c-.4-.5-.7-1-.9-1.5-.1-.3-.2-.7-.3-1.2,0-.4-.1-.9-.2-1.4-.2.5-.4,1-.7,1.6-.2.6-.5,1.1-.8,1.5-.3.5-.7.8-1.1,1.2s-.8.5-1.3.5-1.1-.3-1.6-.8-.9-1.1-1.2-1.9c-.3-.7-.4-1.5-.4-2.3s.1-1.7.3-2.5.5-1.7.9-2.5.8-1.5,1.3-2.2,1-1.3,1.5-1.8,1-.9,1.6-1.1c.5-.2,1-.3,1.5-.3s.9.3,1.2.8c.2-.8.3-1.6.5-2.3s.3-1.4.5-1.9c.2-.6.3-1,.4-1.4.1-.4.2-.6.3-.8v-.2h-.1ZM207.3,296.7c.2,0,.4-.1.6-.4s.4-.6.6-.9c.2-.4.3-.8.5-1.3s.3-.9.4-1.4c.1-.5.3-.9.4-1.3,0-.4.2-.7.2-1s.1-.8.2-1.2c0-.4.1-.8.2-1.1-.4-.3-.7-.4-1.1-.2s-.7.6-1,1.1-.6,1.2-.9,1.9c-.3.7-.5,1.4-.6,2.1-.2.7-.3,1.3-.3,1.9v1.1c.1.3.3.4.4.5s.3.1.4.1h0Z"/>
      <path class="cls-6" d="M218.1,286.3s.2-.1.4-.1h.6c.2,0,.4.1.6.2.2,0,.2.2.2.3,0,.2-.2.5-.3,1.1-.2.6-.3,1.2-.5,2-.2.7-.3,1.5-.4,2.4-.1.8-.2,1.6-.2,2.3s0,1.2.3,1.7.5.7.9.6c.3,0,.6-.2.9-.5s.6-.7.9-1.1c.3-.4.5-.9.8-1.4.2-.5.4-1,.5-1.4,0-.1.2-.1.3,0,.1,0,.2.2.2.4v1.3c0,.5-.2,1.1-.4,1.8-.2.7-.4,1.3-.7,2s-.6,1.3-.9,1.8c-.3.6-.7,1-1.1,1.3-.4.3-.8.5-1.3.5s-1.1-.2-1.5-.6-.7-.9-1-1.7c-.2-.6-.3-1.3-.4-2.1v-2.5c0-.9.1-1.7.3-2.6.1-.9.3-1.7.5-2.4.2-.8.4-1.4.6-2,.2-.6.5-1,.7-1.2h0ZM219.7,279.5c.2-.6.4-1,.8-1.3.4-.2.7-.2,1,.1.2.1.3.3.4.6,0,.3.2.5.2.8v.9c0,.3,0,.6-.2.9-.2.6-.5,1-.8,1.2-.4.2-.7.2-1-.1s-.5-.8-.6-1.4c0-.6,0-1.2.2-1.8h0Z"/>
      <path class="cls-6" d="M229.1,286.2c.2,0,.4,0,.6.2.2,0,.4.2.6.4s.4.4.6.6c.2.2.3.5.4.8.2.6.2,1.1.2,1.8s0,1.2-.2,1.8c-.1.6-.3,1.1-.6,1.5s-.5.7-.8.8c0,0-.3,0-.5-.2-.3-.2-.6-.4-.9-.6s-.5-.4-.7-.6-.3-.3-.2-.4c.2-.1.5-.3.8-.6.3-.3.6-.7.8-1,.2-.4.4-.8.5-1.1s0-.7,0-.9c-.2-.3-.5-.4-.8-.3s-.7.4-1.1.9c-.4.4-.7,1-1.1,1.7-.3.7-.6,1.4-.9,2.1-.2.7-.3,1.4-.4,2.1,0,.7,0,1.3.3,1.8.2.4.5.7.9.9.4.2.8.3,1.3.3s.9,0,1.4-.2c.5-.1,1-.4,1.5-.6.5-.3.9-.6,1.3-1s.7-.8,1-1.3c.2-.3.3-.7.5-1.1s.3-.9.5-1.5c0-.1.2-.1.3,0,.1,0,.2.2.2.4v1.2c0,.5-.2.9-.3,1.4-.2.8-.5,1.6-.8,2.3-.3.7-.6,1.3-1.1,1.8-.4.5-.9,1-1.6,1.3-.6.3-1.4.6-2.3.7-1.3.2-2.4,0-3.4-.3-1-.4-1.8-1.1-2.4-2.2-.5-.8-.8-1.7-.9-2.6-.1-1,0-1.9,0-2.9.2-1,.5-1.9.9-2.8s1-1.7,1.6-2.3,1.3-1.2,2.1-1.6,1.6-.5,2.5-.5l.2-.2h0ZM231.6,279.5h.3s.2.1.2.2v.3c0,.1-.2.3-.3.4-.4.4-.8.7-1.1,1s-.5.6-.7.9-.4.5-.5.8-.3.5-.5.7c0,.1-.2.2-.2.2h-.2s-.1-.1-.2-.2c0,0,0-.2-.1-.2-.2-.4-.4-.8-.6-1.1-.2-.3-.3-.6-.5-.8s-.3-.4-.5-.6-.4-.4-.6-.6c-.3-.2-.4-.5-.4-.6,0-.2,0-.3.3-.4.5-.1.9-.2,1.2,0,.3,0,.6.2.9.4s.4.4.6.6c.2.2.3.4.4.5.4-.2.8-.5,1.3-.8.4-.3.9-.5,1.4-.5l-.2-.2h0Z"/>
      <path class="cls-6" d="M249.2,287.5c.2.9.2,1.9.1,2.7,0,.9-.2,1.7-.5,2.5-.2.8-.6,1.5-1,2.1s-.9,1.1-1.4,1.5c.2.2.3.5.4.8.1.3.2.6.3.9v1.6c.5-.3.9-.7,1.4-1.2.5-.4.9-1,1.3-1.6.4-.6.8-1.3,1.1-2,.4-.8.7-1.6.9-2.6h.2s.1,0,.2.1c0,0,.1.1.2.2v.2c-.2,1.3-.4,2.4-.8,3.5-.4,1-.8,1.9-1.3,2.7-.5.8-1,1.5-1.6,2-.6.6-1.2,1.1-1.8,1.5,0,1.3-.2,2.5-.5,3.7s-.7,2.3-1.2,3.2-1.1,1.7-1.8,2.3c-.7.6-1.6.9-2.5.9s-1.7-.3-2.5-.8c-.7-.5-1.3-1.4-1.6-2.6s-.3-1.6-.1-2.2c.2-.7.4-1.2.8-1.8.4-.5.9-1,1.4-1.4.6-.4,1.1-.7,1.7-1,.5-.3,1-.5,1.5-.7s1.1-.4,1.7-.7c0-.4.1-.8.1-1.2v-1.8c0-.5-.1-.9-.2-1.2-.3,0-.6,0-.9-.1s-.6-.3-.7-.7c0-.2-.1-.4,0-.6,0-.2.1-.4.3-.6s.4-.4.7-.4.7,0,1,.2c.6-.5,1-1.2,1.4-2,.3-.8.5-1.8.4-3-.2,0-.4.2-.7.4s-.6.4-.9.6-.6.4-1,.5-.6.1-.8,0c0,.5,0,.8-.1,1.1,0,.3-.1.6-.2,1,0,.2,0,.3-.2.3,0,0-.2,0-.3-.1,0,0-.2-.2-.2-.4v-1.7c0-.2,0-.5.1-.9-.1-.2-.2-.3-.3-.5s-.2-.4-.3-.7c-.4-.9-.5-1.7-.5-2.4s.1-1.3.3-1.7c.2-.5.5-.8.8-1s.6-.3.9-.2c.4,0,.6.3.7.5.1.2.2.5.2.8s0,.6-.2,1c-.1.4-.2.7-.4,1.1-.1.4-.2.8-.3,1.1,0,.4-.1.7-.1,1,.1,0,.3,0,.6-.3s.6-.6,1-.9c.4-.4.8-.7,1.2-1.1s.8-.6,1.3-.8.8-.2,1.1,0c.3.1.6.5.9,1.1l.7-.2h0ZM243.4,304.7c-.2.1-.4.2-.6.4-.2.1-.4.2-.6.4,0,0-.2.2-.4.3-.2.2-.5.4-.7.6-.3.2-.5.5-.8.8s-.5.6-.6.9c-.2.3-.2.6-.2.9s.2.5.4.8c.2.1.3.2.5.1s.4-.2.6-.4.4-.4.6-.7c.2-.3.4-.6.6-.9.2-.3.3-.6.5-.9.1-.3.2-.6.3-.8l.5-1.4h-.1Z"/>
      <path class="cls-6" d="M259.1,290.1s.1-.1.3-.1h.5c.2,0,.3.1.5.2.1,0,.2.2.2.3,0,.2,0,.4-.1.8v2.6c0,.5.1.9.3,1.3.1.4.3.7.5,1s.5.4.9.4.6-.2.9-.5.5-.7.8-1.1c.2-.4.5-.9.6-1.4.2-.5.4-1,.5-1.4,0-.1.2-.1.3,0,.1,0,.2.2.2.4v1.3c0,.6-.2,1.1-.4,1.8-.2.7-.4,1.3-.7,2s-.6,1.3-.9,1.8c-.3.6-.7,1-1.1,1.3s-.8.5-1.3.5-1.1-.3-1.5-.7c-.4-.5-.7-1-.9-1.5-.1-.4-.3-.8-.3-1.2s-.1-.8-.2-1.3c-.2.5-.4,1-.7,1.5-.2.5-.5,1-.8,1.5s-.7.8-1.1,1.1c-.4.3-.8.5-1.3.5s-1.1-.3-1.6-.8-.9-1.1-1.2-1.9-.4-1.7-.4-2.6.2-1.9.5-2.8.7-1.8,1.2-2.7c.5-.9,1.1-1.6,1.7-2.3s1.3-1.2,2-1.6c.7-.4,1.5-.6,2.2-.6s1.2.1,1.7.4c.6.3,1.1.7,1.7,1.4.2.2.4.5.6.8s.3.7.3,1.1,0,.4-.3.8-.4.7-.6,1-.4.6-.6.8c-.2.2-.3.2-.3,0,0-.3,0-.7-.1-1.1,0-.5-.2-1-.3-1.4-.1-.5-.3-.9-.6-1.2-.3-.4-.6-.6-1-.6s-.9.1-1.4.4-.8.8-1.2,1.3c-.3.5-.7,1.1-.9,1.8s-.5,1.3-.6,1.9-.2,1.2-.3,1.7c0,.5,0,.9.1,1.1.1.3.3.4.4.5s.3.1.4.1c.2,0,.4-.1.6-.4s.5-.6.7-.9c.2-.4.4-.8.6-1.3s.4-.9.6-1.4c.1-.6.2-1.1.4-1.6.1-.5.3-.8.4-1h.1Z"/>
      <path class="cls-6" d="M278.4,298.7c-.3-.9-.4-1.8-.3-2.7s.2-1.8.4-2.6c.2-.8.4-1.6.5-2.2.2-.7.2-1.2,0-1.7-.1-.5-.3-.7-.7-.8-.3,0-.6.1-.9.5s-.6.8-.9,1.4c-.3.5-.5,1.1-.8,1.8-.2.6-.4,1.2-.5,1.8-.1,1-.2,2-.2,3v3.9s-.2.1-.3.1h-1.9c-.1,0-.2,0-.4-.2-.1-.1-.3-.3-.4-.6-.1-.3-.3-.6-.4-1.1s-.2-1.1-.1-1.9c0-.8.2-1.6.4-2.5.2-.9.4-1.8.7-2.7.3-.9.6-1.8.9-2.6.3-.8.6-1.5.9-2.1s.6-1,.8-1.2c0,0,.1-.1.3-.1h.5c.2,0,.3.1.5.2.1,0,.2.2.1.3,0,.2-.2.6-.3,1.2-.1.6-.3,1.4-.4,2.3.2-.5.4-1.1.6-1.6s.4-1,.7-1.4c.3-.4.5-.7.8-1s.6-.4.9-.4c.6,0,1.1.2,1.5.7s.7,1,1,1.7c.3,1,.5,1.9.5,2.8s0,1.7-.1,2.4c0,.7-.2,1.4-.3,1.9v1.4c0,.2.1.3.3.3s.3,0,.4-.1c.2,0,.3-.2.5-.4.2-.2.4-.3.5-.5l.4-.4c0-.1.2-.2.2-.2.3-.5.6-1,.8-1.6.3-.6.5-1.1.6-1.5,0-.1.2-.1.3,0,.1,0,.2.2.2.4v.8c0,.4,0,.7-.1,1.1,0,.4-.2.8-.3,1.2-.1.4-.3.9-.4,1.3-.2.6-.5,1.1-.8,1.6s-.7,1-1.1,1.4-.8.7-1.2.9c-.4.2-.8.3-1.3.2-.6-.1-1.1-.4-1.5-.9-.3-.5-.6-1-.8-1.6h.2,0Z"/>
      <path class="cls-6" d="M292.2,290.1s.1-.1.3-.1h.5c.2,0,.3.1.5.2.1,0,.2.2.2.3,0,.2,0,.4-.1.8v2.6c0,.5.1.9.3,1.3.1.4.3.7.5,1s.5.4.9.4.6-.2.9-.5.5-.7.8-1.1c.2-.4.5-.9.6-1.4.2-.5.4-1,.5-1.4,0-.1.2-.1.3,0,.1,0,.2.2.2.4v1.3c0,.6-.2,1.1-.4,1.8-.2.7-.4,1.3-.7,2s-.6,1.3-.9,1.8c-.3.6-.7,1-1.1,1.3s-.8.5-1.3.5-1.1-.3-1.5-.7c-.4-.5-.7-1-.9-1.5-.1-.4-.3-.8-.3-1.2s-.1-.8-.2-1.3c-.2.5-.4,1-.7,1.5-.2.5-.5,1-.8,1.5s-.7.8-1.1,1.1c-.4.3-.8.5-1.3.5s-1.1-.3-1.6-.8-.9-1.1-1.2-1.9c-.3-.8-.4-1.7-.4-2.6s.2-1.9.5-2.8.7-1.8,1.2-2.7c.5-.9,1.1-1.6,1.7-2.3s1.3-1.2,2-1.6,1.5-.6,2.2-.6,1.2.1,1.7.4c.6.3,1.1.7,1.7,1.4.2.2.4.5.6.8s.3.7.3,1.1,0,.4-.3.8-.4.7-.6,1-.4.6-.6.8c-.2.2-.3.2-.3,0,0-.3,0-.7-.1-1.1,0-.5-.2-1-.3-1.4-.1-.5-.3-.9-.6-1.2-.3-.4-.6-.6-1-.6s-.9.1-1.4.4-.8.8-1.2,1.3c-.3.5-.7,1.1-.9,1.8s-.5,1.3-.6,1.9-.2,1.2-.3,1.7c0,.5,0,.9.1,1.1.1.3.3.4.4.5s.3.1.4.1c.2,0,.4-.1.6-.4s.5-.6.7-.9c.2-.4.4-.8.6-1.3s.4-.9.6-1.4c.1-.6.2-1.1.4-1.6.1-.5.3-.8.4-1h0Z"/>
      <path class="cls-6" d="M306.5,292.7c-.2,1.6-.5,2.9-1,4.1s-1.1,2.1-1.7,3c-.6.8-1.3,1.6-2.1,2.1-.7.6-1.5,1.1-2.2,1.5-.2.8-.3,1.7-.5,2.6s-.3,1.9-.4,3c0,.5-.2.9-.3,1.3-.1.4-.3.8-.6,1.1s-.6.6-1,.7c-.4.2-.9.3-1.6.3s-1.7-.3-2.5-.8c-.7-.5-1.3-1.4-1.6-2.6-.2-.8-.3-1.6-.1-2.2.2-.7.4-1.2.8-1.8.4-.5.9-1,1.4-1.4.6-.4,1.1-.7,1.7-1,.3-.2.6-.3,1-.5.3-.1.7-.3,1-.4.3-1.3.6-2.6.9-4,.3-1.3.6-2.7,1-4.2v-.3s-.1-.2-.2-.2h-.5c.1-.6.3-1.1.5-1.7s.5-1.2.7-1.8c.2-.6.5-1.2.7-1.8s.5-1.1.7-1.6c0,0,.2-.1.4,0s.4,0,.7.1.4.1.6.2c.2,0,.3.2.3.3,0,0,0,.2-.1.5,0,.3-.1.6-.2,1.1s-.2.9-.2,1.4-.2,1-.3,1.4c0,.5-.2.9-.2,1.3s-.1.7-.1.9c-.2,1.5-.3,2.7-.5,3.8-.2,1.1-.4,2.1-.5,3,.6-.3,1.1-.7,1.6-1.2.5-.4,1-1,1.5-1.6s.9-1.4,1.4-2.2c.4-.8.8-1.8,1.1-2.9h.2s.2,0,.2.1l.2.2v.2h-.2,0ZM295.3,307.5c0-.4.2-.7.3-1s.2-.7.3-1c0,0-.2.1-.4.3s-.5.3-.7.5c-.3.2-.5.5-.8.7-.3.3-.5.6-.6.9-.2.3-.2.6-.2.9s.1.6.4.9c0,.1.2.2.3.2s.3,0,.5-.2c.2-.1.3-.4.5-.7.2-.3.4-.8.5-1.4h0ZM301.6,279.5c.2-.6.4-1,.8-1.3.4-.2.7-.2,1,.1.2.1.3.3.4.6,0,.3.2.5.2.8v.9c0,.3,0,.6-.2.9-.2.6-.5,1-.8,1.2-.4.2-.7.2-1-.1-.3-.3-.5-.8-.6-1.4,0-.6,0-1.2.2-1.8h0Z"/>
      <path class="cls-6" d="M305,295.6c.1-.8.3-1.7.5-2.7s.4-2.1.7-3.2c.2-1.1.5-2.1.7-3.2.2-1,.5-2,.7-2.9s.4-1.6.5-2.2c.2-.6.3-1,.4-1.2.3-.8.7-1.4,1.3-1.8s1.1-.7,1.6-.7.9,0,1.3.3.4.7.3,1.3c0,0-.1.3-.3.6-.2.3-.4.8-.7,1.4-.3.6-.6,1.4-1,2.4s-.8,2.2-1.2,3.6h0c0,.2-.1.5-.2.8,0,.3-.2.7-.2,1.2.2-.3.3-.5.5-.6.5-.7,1-1.2,1.6-1.7s1.3-.6,2-.5c.7,0,1.4.5,1.9,1.1s.9,1.4,1.1,2.3c.3.9.4,2,.4,3.1s-.1,2.2-.4,3.2c0,0,.2-.1.3-.2,0,0,.2-.2.3-.2.2-.1.3-.3.5-.6.2-.3.3-.5.5-.8s.3-.6.4-.9.2-.6.3-.9c0-.1.2-.2.3,0,.1.1.2.3.2.4,0,.5,0,.9-.1,1.4s-.3.9-.5,1.3-.4.8-.7,1.1c-.2.3-.5.6-.7.8-.4.4-.9.7-1.7.9-.4.9-1,1.6-1.7,2.2s-1.5.9-2.5.9h-.6c-.2,0-.5-.1-.8-.2-.3,0-.6-.2-.9-.4s-.6-.3-.8-.6v.7c0,.2,0,.3-.1.3,0,0-.2.1-.3.1h-1.9c-.1,0-.2,0-.4-.2s-.3-.3-.4-.6c-.1-.3-.3-.6-.4-1.1-.1-.4-.2-1-.1-1.6,0-.6.1-1.3.2-2.1v-.3h.1ZM308.9,292.9c0,.2-.2.4-.2.5,0,.2-.1.4-.2.5v.6c0,.2,0,.3-.1.4v.4c0,.1,0,.3.1.5,0,.2.2.4.3.5.1.2.3.3.5.4s.5.2.8.1c.2,0,.5,0,.7-.2-.5-.5-.9-1.1-1.3-1.7-.3-.7-.6-1.4-.7-2.1h.1ZM313.6,289.3c-.1-.3-.3-.5-.5-.6s-.4-.1-.6,0c-.2,0-.5.2-.7.4-.3.2-.5.4-.8.7h0c-.4.5-.6,1.1-.7,1.7s-.1,1.2,0,1.7c.1.6.3,1.1.6,1.5.3.5.6.9,1,1.2.4-.4.7-.9,1-1.5s.5-1.2.7-1.8c.2-.6.3-1.2.3-1.8s0-1.1-.2-1.6h0Z"/>
      <path class="cls-6" d="M327.6,288.8c.4,1.1.7,2.3.8,3.4.1,1.1.1,2.1,0,3.1h.2c.2,0,.4-.2.6-.4.2-.2.3-.5.5-.7s.3-.6.4-.9.2-.6.3-.9c0-.1.2-.1.3,0,.1,0,.2.2.2.4v1.4c0,.5-.2.9-.4,1.4-.2.4-.4.8-.6,1.1-.3.3-.5.6-.8.7-.4.2-.8.2-1.2.1-.5,1.2-1.1,2.1-1.9,2.8-.8.7-1.8,1.1-2.8,1.2-.4,0-.8,0-1.3-.1s-.9-.3-1.4-.6c-.5-.3-.9-.7-1.3-1.2s-.8-1.2-1-2c-.3-.8-.4-1.7-.4-2.5s.1-1.8.4-2.6c.2-.9.6-1.7,1-2.4.4-.8.9-1.4,1.5-2s1.3-1,2-1.3,1.5-.4,2.3-.4.4,0,.6.2.5.3.8.5.5.5.7.8.4.7.6,1.1v-.2h-.1ZM325.6,289.5h.1v-.3c-.2-.3-.4-.5-.5-.6-.1,0-.3-.1-.5,0-.3,0-.7.2-1,.5s-.7.7-1,1.2-.6,1-.8,1.6c-.2.6-.4,1.2-.5,1.8-.1.6-.2,1.2-.1,1.8,0,.6.2,1.1.4,1.5.3.6.7.9,1.1.9s.8-.3,1.3-.8c.4-.5.8-1.2,1.1-2v-.2c-.2-.2-.3-.5-.4-.9s-.2-.9-.2-1.4,0-1,.1-1.5.4-.9.9-1.2v-.4Z"/>
      <path class="cls-6" d="M332.7,280.2c.2-.5.5-1,.8-1.4s.7-.6,1-.9c.4-.2.7-.3,1.1-.4s.7,0,.9,0c.3.1.5.3.6.5s.2.6,0,.9c0,0-.1.3-.3.7-.2.4-.4.9-.6,1.5-.3.6-.6,1.3-.9,2.1-.3.8-.6,1.6-1,2.5s-.6,1.7-.9,2.6-.5,1.7-.7,2.6c-.2.8-.3,1.6-.4,2.3v1.8c0,.3.2.6.3.8s.3.3.4.4c.1,0,.3.1.5.1h.5c.3,0,.6-.2.9-.5s.5-.7.8-1.1c.2-.4.4-.9.6-1.4s.4-1,.5-1.4c0-.1.2-.1.3,0,.1,0,.2.2.2.4v1.3c0,.6-.2,1.1-.4,1.8-.2.7-.4,1.3-.7,2-.3.7-.6,1.3-.9,1.8-.3.6-.7,1-1.1,1.3s-.8.5-1.3.5-1.1-.3-1.5-.7c-.4-.5-.7-1-.9-1.5-.3-.8-.4-1.8-.5-3,0-1.2,0-2.4.2-3.8.1-1.3.3-2.7.6-4,.2-1.3.5-2.6.8-3.7s.5-2.1.7-2.9.4-1.3.5-1.5v.3h-.1Z"/>
      <path class="cls-6" d="M345.4,292.7c-.2,1.6-.5,2.9-1,4.1s-1.1,2.1-1.7,3c-.6.8-1.3,1.6-2.1,2.1-.7.6-1.5,1.1-2.2,1.5-.2.8-.3,1.7-.5,2.6s-.3,1.9-.4,3c0,.5-.2.9-.3,1.3-.1.4-.3.8-.6,1.1s-.6.6-1,.7c-.4.2-.9.3-1.6.3s-1.7-.3-2.5-.8c-.7-.5-1.3-1.4-1.6-2.6-.2-.8-.3-1.6-.1-2.2.2-.7.4-1.2.8-1.8.4-.5.9-1,1.4-1.4.6-.4,1.1-.7,1.7-1,.3-.2.6-.3,1-.5.3-.1.7-.3,1-.4.3-1.3.6-2.6.9-4,.3-1.3.6-2.7,1-4.2v-.3s-.1-.2-.2-.2h-.5c.1-.6.3-1.1.5-1.7s.5-1.2.7-1.8c.2-.6.5-1.2.7-1.8s.5-1.1.7-1.6c0,0,.2-.1.4,0s.4,0,.7.1.4.1.6.2c.2,0,.3.2.3.3,0,0,0,.2-.1.5,0,.3-.1.6-.2,1.1s-.2.9-.2,1.4-.2,1-.3,1.4c0,.5-.2.9-.2,1.3s-.1.7-.1.9c-.2,1.5-.3,2.7-.5,3.8-.2,1.1-.4,2.1-.5,3,.6-.3,1.1-.7,1.6-1.2.5-.4,1-1,1.5-1.6s.9-1.4,1.4-2.2c.4-.8.8-1.8,1.1-2.9h.2s.2,0,.2.1l.2.2v.2h-.2,0ZM334.2,307.5c0-.4.2-.7.3-1s.2-.7.3-1c0,0-.2.1-.4.3s-.5.3-.7.5c-.3.2-.5.5-.8.7-.3.3-.5.6-.6.9-.2.3-.2.6-.2.9s.1.6.4.9c0,.1.2.2.3.2s.3,0,.5-.2c.2-.1.3-.4.5-.7.2-.3.4-.8.5-1.4h0ZM340.4,279.5c.2-.6.4-1,.8-1.3.4-.2.7-.2,1,.1.2.1.3.3.4.6,0,.3.2.5.2.8v.9c0,.3,0,.6-.2.9-.2.6-.5,1-.8,1.2-.4.2-.7.2-1-.1-.3-.3-.5-.8-.6-1.4,0-.6,0-1.2.2-1.8h0Z"/>
      <path class="cls-6" d="M346.3,286.3s.2-.1.4-.1h.6c.2,0,.4.1.6.2.2,0,.2.2.2.3,0,.2-.2.5-.3,1.1-.2.6-.3,1.2-.5,2-.2.7-.3,1.5-.4,2.4-.1.8-.2,1.6-.2,2.3s0,1.2.3,1.7.5.7.9.6c.3,0,.6-.2.9-.5s.6-.7.9-1.1.5-.9.8-1.4c.2-.5.4-1,.5-1.4,0-.1.2-.1.3,0,.1,0,.2.2.2.4v1.3c0,.5-.2,1.1-.4,1.8-.2.7-.4,1.3-.7,2s-.6,1.3-.9,1.8c-.3.6-.7,1-1.1,1.3s-.8.5-1.3.5-1.1-.2-1.5-.6-.7-.9-1-1.7c-.2-.6-.3-1.3-.4-2.1v-2.5c0-.9.1-1.7.3-2.6.1-.9.3-1.7.5-2.4.2-.8.4-1.4.6-2s.5-1,.7-1.2h0ZM347.8,279.5c.2-.6.4-1,.8-1.3.4-.2.7-.2,1,.1.2.1.3.3.4.6,0,.3.2.5.2.8v.9c0,.3,0,.6-.2.9-.2.6-.5,1-.8,1.2-.4.2-.7.2-1-.1s-.5-.8-.6-1.4c0-.6,0-1.2.2-1.8h0Z"/>
      <path class="cls-6" d="M359.7,293.4c0,.2,0,.3-.2.3,0,0-.2,0-.3-.1,0,0-.2-.2-.2-.4v-1.7c0-.2,0-.5.1-.9-.1-.2-.2-.3-.3-.5s-.2-.4-.3-.7c-.4-.9-.5-1.7-.5-2.4s.1-1.3.3-1.7c.2-.5.5-.8.8-1s.6-.3.9-.2c.4,0,.6.3.7.5s.2.5.2.8,0,.6-.2,1c-.1.4-.2.7-.4,1.1-.1.4-.2.8-.3,1.1,0,.4-.1.7-.1,1,.1,0,.3,0,.6-.3.3-.3.6-.6,1-.9.4-.4.8-.7,1.2-1.1.4-.4.8-.6,1.3-.8s.8-.2,1.1,0c.3.1.6.5.9,1.1.2.5.2.9.2,1.4s-.1,1-.3,1.5c-.1.5-.3,1-.5,1.5s-.4,1-.5,1.4c-.2.4-.3.9-.4,1.2v1c.1.4.3.7.5.8.2.1.5.2.9.2s.6-.2.9-.5.5-.7.8-1.1c.2-.4.4-.9.6-1.4s.4-1,.5-1.4c0-.1.2-.1.3,0,.1,0,.2.2.2.4v1.3c0,.6-.2,1.1-.4,1.8-.2.7-.4,1.3-.7,2s-.6,1.3-.9,1.8c-.3.6-.7,1-1.1,1.3s-.8.5-1.3.5-.6,0-.8-.2c-.2-.1-.5-.3-.7-.5s-.4-.4-.5-.7c-.2-.3-.3-.5-.4-.8-.3-.6-.5-1.4-.6-2.2,0-.8-.1-1.6,0-2.4,0-.8.2-1.6.5-2.4s.6-1.5,1-2.2c-.2,0-.4.2-.7.4s-.6.4-.9.6-.6.4-1,.5-.6.1-.8,0c0,.5,0,.8-.1,1.1,0,.3-.1.6-.2,1h0Z"/>
      <path class="cls-6" d="M377.8,288.8c.4,1.1.7,2.3.8,3.4.1,1.1.1,2.1,0,3.1h.2c.2,0,.4-.2.6-.4.2-.2.3-.5.5-.7.1-.3.3-.6.4-.9s.2-.6.3-.9c0-.1.2-.1.3,0,.1,0,.2.2.2.4v1.4c0,.5-.2.9-.4,1.4-.2.4-.4.8-.6,1.1-.3.3-.5.6-.8.7-.4.2-.8.2-1.2.1-.5,1.2-1.1,2.1-1.9,2.8-.8.7-1.8,1.1-2.8,1.2-.4,0-.8,0-1.3-.1s-.9-.3-1.4-.6-.9-.7-1.3-1.2-.8-1.2-1-2c-.3-.8-.4-1.7-.4-2.5s.1-1.8.4-2.6c.2-.9.6-1.7,1-2.4.4-.8.9-1.4,1.5-2s1.3-1,2-1.3,1.5-.4,2.3-.4.4,0,.6.2.5.3.8.5.5.5.7.8.4.7.6,1.1v-.2h-.1ZM375.8,289.5h.1v-.3c-.2-.3-.4-.5-.5-.6s-.3-.1-.5,0c-.3,0-.7.2-1,.5s-.7.7-1,1.2-.6,1-.8,1.6-.4,1.2-.5,1.8c-.1.6-.2,1.2-.1,1.8,0,.6.1,1.1.4,1.5.3.6.7.9,1.1.9s.8-.3,1.3-.8c.4-.5.8-1.2,1.1-2v-.2c-.2-.2-.3-.5-.4-.9s-.2-.9-.2-1.4,0-1,.1-1.5.4-.9.9-1.2v-.4Z"/>
      <path class="cls-6" d="M381.2,293.4c0,.2,0,.3-.2.3,0,0-.2,0-.3-.1s-.2-.2-.2-.4v-1.7c0-.2,0-.5.1-.9,0-.7.2-1.4.3-2.1.2-.7.4-1.2.6-1.7s.5-.9.9-1.2c.3-.3.7-.5,1.2-.5s.6,0,.9.1c.3,0,.5.2.7.4.2.2.3.3.4.5s.2.3.2.4v.7c-.1.1-.3.2-.5.2h-1.2c-.2,0-.3.2-.4.4v1c.1.4.4.9.7,1.5.4.6.8,1.2,1.2,1.8.4.6.9,1.3,1.3,2.1s.7,1.5.9,2.3c.3-.2.6-.6.9-1,.2-.3.3-.6.5-.9.1-.3.3-.6.4-.9s.2-.6.3-.9c0-.3.2-.5.2-.7s.2-.1.3,0c.1,0,.2.2.2.4v1.6c0,.7-.3,1.5-.6,2.3-.3.6-.6,1.1-.9,1.5s-.7.7-1.1,1c-.2.6-.5,1-.9,1.4-.4.3-1,.5-1.5.6s-1.2,0-1.8,0c-.6-.1-1.2-.3-1.7-.6-.5-.3-1-.7-1.3-1.1s-.6-.9-.6-1.5,0-.9.3-1,.6-.2,1-.1h1.3c.2-.1.3-.3.4-.5v-.7c0-.3,0-.5-.2-.7,0-.1-.2-.4-.3-.7s-.3-.7-.5-1.1-.3-.9-.5-1.4c-.1-.5-.2-1-.3-1.6v.8c0,.3,0,.6-.1.9,0,.3,0,.6-.1.9s0,.5-.1.7v.2h.1ZM386.7,279.5h.3s.2.1.2.2v.3c0,.1-.2.3-.3.4-.4.4-.8.7-1.1,1s-.5.6-.7.9-.4.5-.5.8-.3.5-.5.7c0,.1-.2.2-.2.2h-.2l-.2-.2s0-.2-.1-.2c-.2-.4-.4-.8-.6-1.1-.2-.3-.3-.6-.5-.8-.2-.2-.3-.4-.5-.6l-.6-.6c-.3-.2-.4-.5-.4-.6s0-.3.3-.4c.5-.1.9-.2,1.2,0s.6.2.9.4l.6.6c.2.2.3.4.4.5.4-.2.8-.5,1.3-.8.4-.3.9-.5,1.4-.5l-.2-.2h0Z"/>
      <path class="cls-6" d="M389.5,287.2s-.1,0-.1-.2v-.5c0-.2,0-.4.1-.6,0-.2,0-.3.1-.4.2-.5.6-.9,1.1-1.2.2-1.1.4-2,.6-2.7s.3-1.2.4-1.4c.3-.8.7-1.4,1.3-1.8.6-.4,1.1-.7,1.6-.7s.9,0,1.3.3c.3.3.4.7.3,1.3,0,0,0,.3-.2.5s-.2.6-.4,1c-.2.4-.3.9-.5,1.5s-.4,1.1-.6,1.8h.8s.1.2.2.5,0,.6,0,.9v.9c0,.3,0,.4-.1.5-.3,0-.5-.2-.8-.2s-.5-.1-.8-.1c-.3.8-.5,1.7-.7,2.5-.2.9-.4,1.7-.5,2.5s-.2,1.5-.3,2.2c0,.7,0,1.3.1,1.7,0,.3.2.6.3.8.1.2.3.3.4.4.1,0,.3.1.4.1h.4c.3,0,.6-.2.9-.5s.5-.7.8-1.1c.2-.4.5-.9.6-1.4.2-.5.4-1,.5-1.4,0-.1.2-.1.3,0,.1,0,.2.2.2.4v1.3c0,.6-.2,1.1-.4,1.8-.2.7-.4,1.3-.7,2-.3.7-.6,1.3-.9,1.8-.3.6-.7,1-1.1,1.3s-.8.5-1.3.5-1.1-.3-1.5-.7c-.4-.5-.7-1-.9-1.5-.2-.7-.4-1.5-.5-2.5,0-1-.1-2,0-3.1,0-1.1.1-2.3.2-3.4s.3-2.3.4-3.4c-.1,0-.3.2-.4.2s-.3.2-.4.3l-.2-.2h0Z"/>
      <path class="cls-6" d="M398.4,286.3s.2-.1.4-.1h.6c.2,0,.4.1.6.2.2,0,.2.2.2.3,0,.2-.1.5-.3,1.1-.2.6-.3,1.2-.5,2-.2.7-.3,1.5-.4,2.4-.1.8-.2,1.6-.2,2.3s0,1.2.3,1.7c.2.4.5.7.9.6.3,0,.6-.2.9-.5s.6-.7.9-1.1.5-.9.8-1.4c.2-.5.4-1,.5-1.4,0-.1.2-.1.3,0,.1,0,.2.2.2.4v1.3c0,.6-.2,1.1-.4,1.8-.2.7-.4,1.3-.7,2-.3.7-.6,1.3-.9,1.8-.3.6-.7,1-1.1,1.3s-.8.5-1.3.5-1.1-.2-1.5-.6-.7-.9-1-1.7c-.2-.6-.3-1.3-.4-2.1v-2.5c0-.9.1-1.7.3-2.6.1-.9.3-1.7.5-2.4.2-.8.4-1.4.6-2s.5-1,.7-1.2h0ZM399.9,279.5c.2-.6.4-1,.8-1.3.4-.2.7-.2,1,.1.2.1.3.3.4.6,0,.3.2.5.2.8v.9c0,.3,0,.6-.2.9-.2.6-.5,1-.8,1.2s-.7.2-1-.1-.5-.8-.6-1.4c0-.6,0-1.2.2-1.8h0Z"/>
      <path class="cls-6" d="M405.3,280.2c.2-.5.5-1,.8-1.4s.7-.6,1-.9c.4-.2.7-.3,1.1-.4s.7,0,.9,0,.5.3.6.5.2.6,0,.9c0,0-.1.3-.3.7-.2.4-.4.9-.6,1.5-.3.6-.6,1.3-.9,2.1-.3.8-.6,1.6-1,2.5-.3.9-.6,1.7-.9,2.6s-.5,1.7-.7,2.6c-.2.8-.3,1.6-.4,2.3v1.8c0,.3.2.6.3.8.1.2.3.3.4.4.1,0,.3.1.4.1h.4c.3,0,.6-.2.9-.5s.5-.7.8-1.1c.2-.4.5-.9.6-1.4.2-.5.4-1,.5-1.4,0-.1.2-.1.3,0,.1,0,.2.2.2.4v1.3c0,.6-.2,1.1-.4,1.8-.2.7-.4,1.3-.7,2-.3.7-.6,1.3-.9,1.8-.3.6-.7,1-1.1,1.3s-.8.5-1.3.5-1.1-.3-1.5-.7c-.4-.5-.7-1-.9-1.5-.3-.8-.4-1.8-.5-3,0-1.2,0-2.4.2-3.8s.3-2.7.6-4,.5-2.6.8-3.7.5-2.1.7-2.9.4-1.3.4-1.5l.2.3h0Z"/>
      <path class="cls-6" d="M418,292.7c-.2,1.6-.5,2.9-1,4.1s-1.1,2.1-1.7,3c-.6.8-1.3,1.6-2.1,2.1-.7.6-1.5,1.1-2.2,1.5-.2.8-.3,1.7-.5,2.6s-.3,1.9-.4,3c0,.5-.2.9-.3,1.3-.1.4-.3.8-.6,1.1s-.6.6-1,.7c-.4.2-.9.3-1.6.3s-1.7-.3-2.5-.8c-.7-.5-1.3-1.4-1.6-2.6-.2-.8-.3-1.6-.1-2.2.2-.7.4-1.2.8-1.8.4-.5.9-1,1.4-1.4.6-.4,1.1-.7,1.7-1,.3-.2.6-.3,1-.5s.7-.3,1-.4c.3-1.3.6-2.6.9-4,.3-1.3.6-2.7,1-4.2v-.3s-.1-.2-.2-.2h-.5c.1-.6.3-1.1.5-1.7s.4-1.2.7-1.8c.2-.6.5-1.2.7-1.8s.5-1.1.7-1.6c0,0,.2-.1.4,0,.2,0,.4,0,.7.1.2,0,.4.1.6.2.2,0,.3.2.3.3,0,0,0,.2-.1.5,0,.3-.1.6-.2,1.1,0,.4-.2.9-.2,1.4s-.2,1-.3,1.4-.2.9-.2,1.3-.1.7-.1.9c-.2,1.5-.3,2.7-.5,3.8-.2,1.1-.4,2.1-.5,3,.6-.3,1.1-.7,1.6-1.2.5-.4,1-1,1.5-1.6s.9-1.4,1.4-2.2c.4-.8.8-1.8,1.1-2.9h.2s.2,0,.2.1l.2.2c.1.1,0,.2,0,.2h-.2,0ZM406.8,307.5c0-.4.2-.7.3-1,0-.3.2-.7.3-1,0,0-.2.1-.5.3-.2.1-.5.3-.7.5-.3.2-.5.5-.8.7-.3.3-.5.6-.6.9-.2.3-.2.6-.2.9s.1.6.4.9c0,.1.2.2.3.2s.3,0,.5-.2.3-.4.5-.7c.2-.3.4-.8.5-1.4h0ZM413.1,279.5c.2-.6.4-1,.8-1.3.4-.2.7-.2,1,.1.2.1.3.3.4.6,0,.3.2.5.2.8v.9c0,.3,0,.6-.2.9-.2.6-.5,1-.8,1.2s-.7.2-1-.1-.5-.8-.6-1.4,0-1.2.2-1.8h0Z"/>
    </g>
  </g>
  <g>
    <path class="cls-6" d="M46.8,109.8s-.5,3.8-3,3.8h-3.9v-4.9h5.1v-4.1h-5.1v-3.6h5c.5,0,1,.3,1.3.6.5.5.6,1.2.7,1.6v.8h3.6v-7.4h-18.1v4.4h2.1v12.5h-2.1v4.3h18.1v-8.9h-3.5v.8s-.2,0-.2,0Z"/>
    <path class="cls-6" d="M86.9,109.6s-.5,3.8-3,3.8h-3.9v-4.9h5.1v-4h-5.1v-3.6h5c.5,0,1,.3,1.3.6.5.5.6,1.2.7,1.6v.8h3.6v-7.4h-18.1v4.4h2.1v12.5h-2.1v4.3h18.1v-9h-3.5v.8s-.2,0-.2,0Z"/>
    <path class="cls-6" d="M66.1,108.3c0,.2-.4,5-2.5,5.1h-3.2v-12.5h2v-4.4h-10.1v4.4h2.3v12.5h-1.7v4.4h17.2v-10.3h-3.9s0,.8,0,.8Z"/>
    <path class="cls-6" d="M103.9,109.9h3.1v.5c0,2.1-2.7,2.4-3.7,2.4h0c-1,0-2.6-.5-3.7-1.7s-1.4-2.3-1.4-3.7c0-2.9,1.7-5.7,5.1-5.7h0c1,0,2.5.4,3.2,1.1s.3.3.4.5l.2.5h4.6v-6.8h-5v.2c-1.1-.4-2.2-.6-3.2-.6h-.5c-2.7,0-5.3,1.1-7.1,3.1s-2.8,4.7-2.8,7.6,1.1,5.8,3.2,7.9,3.9,2.7,6.1,2.8c2,0,3.3,0,4.6-.5v.5h5.2v-8.1h1.9v-4h-10v4h.1Z"/>
    <path class="cls-6" d="M8.7,106h4.4v-.9c0-1.9.3-3.1.9-3.7.4-.4.7-.4.8-.4h1v12.5h-3.2v4.4h14.2v-4.3h-4v-12.5h.7c.5,0,.9,0,1.3.5.6.6,1,1.9,1,3.6v.8h4.3v-9.4H8.7s0,9.4,0,9.4Z"/>
    <path class="cls-6" d="M133.2,109.4c2.8-1.2,4.2-3.2,4.2-6.2s-.5-3.2-1.6-4.2c-2.3-2.3-6.2-2.4-11-2.4h-10.6v4.4h2.8v12.5h-2.7v4.3h11.4v-4.4h-2.3v-2.9h4.2l3.6,7.2h6.2v-4.3h-2.3l-2.3-4h.1ZM123.5,101h4.7c1.1,0,2.5.2,3.2.9s.5.9.5,1.6c0,1.7-.6,2.7-3.6,2.7h-4.9v-5.1h.1Z"/>
    <path class="cls-6" d="M155.7,101h2.3v-4.3h-13.7v4.3h2.6l-5.5,12.5h-1.6v4.3h10.4v-4.3h-2.7l.6-1.4h6.3l.6,1.4h-2.6v4.4h10.4v-4.3h-1.9l-5.5-12.5h0ZM153.1,108.9h-3.7l1.9-4.6,1.9,4.6Z"/>
    <polygon class="cls-6" points="191.2 100.4 191.2 96.5 181.5 96.5 177.4 104.8 174.1 96.5 164.1 96.5 164.1 100.5 166.5 100.5 166.5 113.5 164.6 113.5 164.6 117.8 174.4 117.8 174.4 113.5 172.8 113.5 172.7 107.7 177.1 117.7 182.6 107.1 182.6 113.5 180.9 113.5 180.9 117.8 190.8 117.8 190.8 113.5 188.9 113.5 188.9 100.4 191.2 100.4"/>
  </g>
  <g>
    <path class="cls-5" d="M285.8,117.9h18.7v-25h-18.7v25ZM288.8,97h3.2v10.1c0,.8,0,4.1,3.2,4.1s3.3-3.3,3.3-4.1v-10.1h3.1v11.1c0,4.4-2.9,6.2-6.4,6.2s-6.4-1.8-6.4-5.9v-11.4Z"/>
    <path class="cls-5" d="M369.8,92.9v25h19v-25s-19,0-19,0ZM381.8,113.6h-7.9v-3.3h7.4c.8,0,1.7-.4,1.7-1.8s-.7-1.7-1.7-1.7h-3.4c-2.6,0-4.8-2-4.8-4.9s1.7-4.9,4.2-4.9h7.8v3.3h-7.3c-.8,0-1.6.4-1.6,1.6s.8,1.6,1.6,1.6h3.5c2.6,0,4.9,2.1,4.9,5.1s-1.8,5.1-4.4,5.1h0ZM386.7,97.4c-1,0-2-.9-2-2.1s.9-2.1,2-2.1,1.9.9,1.9,2.1-.8,2.1-1.9,2.1Z"/>
    <path class="cls-5" d="M264.8,117.9h18.8v-25h-18.8v25ZM272.7,97h3.5l5.4,16.6h-3.3l-.9-3.5h-5.7l-1.1,3.5h-3.2l5.5-16.6h-.1Z"/>
    <path class="cls-5" d="M243.4,117.9h19.1v-25h-19.1v25ZM247.1,97h7.4c2.2,0,4.8,1.2,4.8,4.1s-1,3-2.5,3.6c1.7.7,2.8,2.4,2.8,4.2,0,2.8-2.6,4.6-5.2,4.6h-7.4v-16.6h.1Z"/>
    <path class="cls-5" d="M348.8,117.9h18.8v-25h-18.8v25ZM351.9,97h3.1v10.1c0,.8,0,4.1,3.3,4.1s3.2-3.3,3.2-4.1v-10.1h3.2v11.1c0,4.4-2.9,6.2-6.4,6.2s-6.4-1.8-6.4-5.9v-11.4Z"/>
    <path class="cls-5" d="M230.3,101.5v-3.7h8.1v-6.6l-5.6-6.2-5.7,6.2v2.8l-3.7-4-7,7.7v8.2h10.1l-2.2,2.4v9.8h16.9v-9.8l-8.5-9.2-2.4,2.6ZM228.8,91.9l3.9-4.2,3.8,4.2v3.8h-7.8v-3.8ZM218.5,103.2v-4.7l4.9-5.4,4.8,5.4v4.7h-9.7.1ZM238.5,115h-11.6v-5.7l5.7-6.4,5.8,6.3v5.8h.1Z"/>
    <path class="cls-5" d="M327.8,117.9h18.7v-25h-18.7v25ZM335.7,97h3.5l5.3,16.6h-3.2l-.9-3.5h-5.8l-1,3.5h-3.2l5.5-16.6h-.1Z"/>
    <path class="cls-5" d="M306.8,117.9h18.8v-25h-18.8v25ZM309.9,97h3.2v7.3h6.2v-7.3h3.2v16.6h-3.2v-6.4h-6.2v6.4h-3.2v-16.6Z"/>
    <path class="cls-5" d="M386.7,93.7c-.9,0-1.7.7-1.7,1.7s.8,1.8,1.7,1.8,1.6-.8,1.6-1.8-.7-1.7-1.6-1.7ZM387.2,96.6l-.6-1h-.4v1h-.4v-2.5h.9c.5,0,.7.3.7.7s-.2.6-.5.6l.6,1h-.4.1Z"/>
    <path class="cls-5" d="M387.2,94.8c0-.3-.3-.3-.5-.3h-.5v.7h.4c.3,0,.6,0,.6-.5h0Z"/>
    <polygon class="cls-5" points="337.4 100.9 335.4 107.4 339.4 107.4 337.4 100.9"/>
    <polygon class="cls-5" points="274.3 100.9 272.3 107.4 276.3 107.4 274.3 100.9"/>
    <path class="cls-5" d="M256.5,108.7c0-2.2-1.8-2.5-2.2-2.5h-3.9v4.6h3.9s2.2,0,2.2-2.2h0Z"/>
    <path class="cls-5" d="M256.1,101.6c0-1.8-1.8-1.9-1.9-1.9h-3.9v4.1h3.9c.6,0,1.9-.7,1.9-2.3Z"/>
  </g>
  <path class="cls-3" d="M514.8,121.2c-.2,1.1-1.3,2-2.4,2h-99.4c-1.1,0-1.9-.9-1.7-2l.5-2.6c.2-1.1,1.3-2,2.4-2h99.4c1.1,0,1.9.9,1.7,2l-.5,2.6Z"/>
  <path class="cls-7" d="M416.2,117.5c-.4,0-.7.1-1,.3-.3.2-.5.3-.7.5-.1.1-.2.3-.2.4,0,.2-.1.5-.2,1-.1.5-.1.9-.2,1,0,.1,0,.2,0,.3,0,0,0,.1,0,.2,0,.2.2.4.4.6s.5.3.9.3.9-.2,1.3-.5c.4-.3.6-.7.7-1.2l.2-1h-1.8l-.2.8h.9,0c0,.3-.2.5-.4.7-.2.2-.4.2-.7.2s-.2,0-.3-.1c-.1,0-.2-.1-.2-.2,0,0,0-.2,0-.3s0-.4.1-.9c0-.4.2-.7.2-.9,0-.1.1-.2.2-.3,0,0,.2-.1.3-.2.1,0,.2,0,.4,0,.2,0,.3,0,.4.1.1.1.2.2.2.4h0c0,.1.9.1.9.1h0c0-.5-.1-.8-.4-1.1-.2-.3-.5-.4-1-.4Z"/>
  <path class="cls-7" d="M421.5,117.6l-2.6,4.6h1l.5-1h1.6l.2,1h.9l-.8-4.6h-.7ZM421.8,120.4h-1l.8-1.5.2,1.5Z"/>
  <path class="cls-7" d="M426.6,118.5c.1-.1.3-.1.5-.1.4,0,.7.1,1,.3h0c0,0,.6-.6.6-.6h-.1c-.4-.4-.9-.5-1.4-.5-.5,0-.9.1-1.2.4-.3.2-.5.6-.6,1,0,.3,0,.7.2.9.2.2.5.4.9.4.2,0,.4,0,.6,0,.2,0,.3.1.3.2,0,0,0,.2,0,.3,0,.3-.4.5-.9.5s-.9-.1-1.1-.4h0c0,0-.7.5-.7.5h0c.4.5,1,.7,1.7.7,1.1,0,1.8-.5,2-1.3,0-.3,0-.6-.2-.9-.2-.3-.5-.4-.9-.5-.2,0-.4,0-.5,0-.2,0-.3-.1-.4-.2,0,0,0-.2,0-.2,0-.1.1-.3.3-.4Z"/>
  <path class="cls-7" d="M430.5,118.3h1.3l-.8,3.8h.9l.8-3.8h1.2v-.8c.1,0-3.2,0-3.2,0l-.2.8Z"/>
  <path class="cls-7" d="M437.9,117.6h-1.9l-.9,4.6h.9l.4-1.9h.7l.6,1.9h1l-.7-2c.6-.2,1-.7,1.1-1.2,0-.4,0-.8-.3-1-.2-.2-.5-.3-1-.3ZM436.8,118.3h1c.2,0,.3,0,.4.1.1,0,.1.2.1.4,0,.2-.1.3-.2.4-.1.1-.3.2-.5.2h-.9l.2-1.1Z"/>
  <path class="cls-7" d="M444.1,117.8c-.2-.2-.5-.3-.9-.3s-.7.1-1,.2c-.3.2-.5.3-.7.5-.1.1-.2.3-.2.4,0,.2-.1.5-.2,1-.1.5-.1.9-.1,1s0,.2,0,.3c0,0,0,.1,0,.2,0,.2.2.4.4.6.2.2.5.3.9.3s.7-.1,1-.3c.3-.2.5-.3.7-.5.1-.1.2-.3.3-.4,0-.2.1-.5.2-1,.1-.5.2-.9.2-1s0-.3,0-.4c-.1-.2-.3-.4-.5-.6ZM443.7,119c0,.1,0,.4-.1.9,0,.4-.2.7-.2.9,0,.1-.1.2-.2.3,0,0-.2.1-.3.2-.1,0-.2.1-.4.1s-.2,0-.3-.1c-.1,0-.2-.1-.2-.2,0,0,0-.2,0-.3s0-.4.1-.9c0-.4.2-.7.2-.9,0-.1.1-.2.2-.3,0,0,.2-.1.3-.2.1,0,.2,0,.4,0s.3,0,.3,0c.1,0,.1.1.2.2,0,0,0,.1,0,.3Z"/>
  <path class="cls-7" d="M449.4,120.4l-1.4-2.9h-.8l-.9,4.6h.9l.6-2.9,1.3,2.9h.8l.9-4.6h-.9l-.5,2.9Z"/>
  <path class="cls-7" d="M455.7,117.8c-.2-.2-.5-.3-.9-.3s-.7.1-1,.2c-.3.2-.5.3-.7.5-.1.1-.2.3-.2.4,0,.2-.1.5-.2,1-.1.5-.1.9-.2,1,0,.1,0,.2,0,.3,0,0,0,.1,0,.2,0,.2.2.4.4.6.2.2.5.3.9.3s.7-.1,1-.3c.3-.2.5-.3.7-.5.1-.1.2-.3.3-.4,0-.2.1-.5.2-1,.1-.5.1-.9.2-1,0-.2,0-.3,0-.4-.1-.2-.3-.4-.5-.6ZM455.3,119c0,.1,0,.4-.1.9-.1.4-.2.7-.2.9,0,.1-.1.2-.2.3,0,0-.2.1-.3.2-.1,0-.2.1-.4.1s-.2,0-.3-.1c-.1,0-.2-.1-.2-.2,0,0,0-.2,0-.3s0-.4.1-.9c0-.4.2-.7.2-.9,0-.1.1-.2.2-.3,0,0,.2-.1.3-.2.1,0,.2,0,.4,0s.3,0,.3,0c.1,0,.1.1.2.2,0,0,0,.2,0,.3Z"/>
  <path class="cls-7" d="M460.3,120.2l-.7-2.7h-.8l-.9,4.6h.9l.5-2.4.4,1.8h.7l1.1-1.7-.4,2.3h.9l.9-4.6h-.8l-1.8,2.7Z"/>
  <path class="cls-7" d="M466.2,118.5c.1-.1.3-.1.5-.1.4,0,.7.1,1,.3h0c0,0,.6-.6.6-.6h-.1c-.4-.4-.9-.5-1.4-.5-.5,0-.9.1-1.2.4-.3.2-.5.6-.6,1,0,.3,0,.7.2.9.2.2.5.4.9.4.2,0,.4,0,.6,0,.2,0,.3.1.3.2,0,0,0,.2,0,.3,0,.3-.4.5-.9.5s-.9-.1-1.1-.4h0c0,0-.7.5-.7.5h0c.4.5,1,.7,1.7.7,1.1,0,1.8-.5,2-1.3,0-.3,0-.6-.2-.9-.2-.3-.5-.4-.9-.5-.2,0-.4,0-.5,0-.2,0-.3-.1-.4-.2,0,0,0-.2,0-.2,0-.1.2-.3.3-.4Z"/>
  <path class="cls-7" d="M473.4,117.6l-2.1,2.1.4-2.1h-.9l-.9,4.6h.9l.3-1.4.8-.7.8,2h0c0,0,1.1,0,1.1,0l-1.1-2.7,1.9-1.9h-1.1Z"/>
  <path class="cls-7" d="M477.7,117.6l-2.6,4.6h1l.5-1h1.6l.2,1h.9l-.8-4.6h-.7ZM478,120.4h-1l.8-1.5.2,1.5Z"/>
  <path class="cls-7" d="M487.6,120.2l-.7-2.7h-.8l-.9,4.6h.9l.5-2.4.4,1.8h.7l1.1-1.7-.4,2.3h.9l.9-4.6h-.8l-1.8,2.7Z"/>
  <path class="cls-7" d="M493.9,117.6l-2.6,4.6h1l.5-1h1.6l.2,1h.9l-.8-4.6h-.7ZM494.2,120.4h-1l.8-1.5.2,1.5Z"/>
  <path class="cls-7" d="M500.1,117.6h-1.9l-.9,4.6h.9l.4-1.9h.7l.6,1.9h1l-.7-2c.6-.2,1-.7,1.1-1.2,0-.4,0-.8-.3-1-.3-.2-.6-.3-1-.3ZM500.5,118.9c0,.2-.1.3-.2.4-.1.1-.3.2-.5.2h-.9l.2-1.1h1c.2,0,.3,0,.4.1.1,0,.1.2.1.4Z"/>
  <path class="cls-7" d="M506.4,117.6l-2.1,2.1.4-2.1h-.9l-.9,4.6h.9l.3-1.4.8-.7.8,2h0c0,0,1.1,0,1.1,0l-1.1-2.7,1.9-1.9h-1.1Z"/>
  <path class="cls-7" d="M511.5,117.6h-.7l-2.6,4.6h1l.5-1h1.6l.2,1h.9l-.8-4.6ZM511.1,120.4h-1l.8-1.5.2,1.5Z"/>
  <path class="cls-4" d="M516,95c0-2-.8-3.6-2-4.8-1.3-1.3-3.1-1.9-5.5-1.9s-3.6.4-4.9,1.1c-.3.2-.7.4-1,.5-.2-.1-.4-.3-.7-.4-1.1-.5-2.4-.8-4.1-.8s-1.1,0-1.5,0c-.5,0-.9.1-1.3.1-.4,0-.8.1-1,.2l-1.1.2c0,0,.2-.1.2-.2,1.4-1,2.2-2.5,2.6-4.2.4-2.4-.4-3.9-1.2-4.8-.8-.8-2.1-1.8-4.4-1.8s-3.2.5-4.5,1.5c-1.4,1.1-2.2,2.5-2.6,4.2-.4,2.4.4,3.9,1.2,4.8,0,0,0,0,0,0l-2,.4s-.2,0-.6-.1c-.5-.2-1-.4-1.6-.6-.8-.2-1.6-.4-2.5-.4-1.6,0-2.9.4-4.1,1.1-.9.6-1.7,1.3-2.5,2.1l-.3.3,1.1-5.6c.2-1.3.2-2.4,0-3.3-.3-1-.9-1.8-1.6-2.4-.7-.5-1.5-.9-2.4-1.1-1.1-.2-2.3-.3-3.7-.2-.4,0-3.8.4-3.8.4l-2.4,12.8c0-.1-.1-.2-.2-.3-.8-1.2-2-2.1-3.5-2.8-1.4-.7-3.2-1-5.2-1s-3.2.2-4.7.7c-1.6.5-3.1,1.2-4.4,2.2-1.3,1-2.6,2.3-3.5,3.8-.8,1.3-1.3,2.6-1.7,4.3-.3,1.1-4.5,4.5-7.6,4.5s-1.4-.2-1.8-.4c-.4-.2-.7-.6-.8-1-.2-.5-.3-1.2-.4-2,0-.9,0-1.8.2-2.7.2-.8.4-1.7.8-2.5.3-.8.8-1.5,1.3-2.1.5-.5,1-1,1.7-1.4.6-.3,1.3-.5,2.1-.5s1.5.2,2,.4c.6.3,1.2.8,2,1.6.7.8,1.2,1.5,1.2,1.5,0,0,1.1-.5,1.9-1.1.6-.4,2-1.6,2.8-2.5,1-1.1,1.3-2.3,1.5-3.2.2-1.1-.1-2.1-.7-3-.3-.6-.7-1.1-1.1-1.5-.3-.4-.8-.8-1.4-1.2-.5-.4-1.2-.7-2-1-.8-.3-1.6-.5-2.6-.8-1-.2-2.1-.3-3.4-.3-2.7,0-5.2.4-7.3,1.3-2.2.9-4.1,2.1-5.7,3.6-1.6,1.5-2.9,3.3-3.9,5.4-1,2-1.8,4.2-2.2,6.6-.5,2.4-.6,4.7-.3,6.7.3,2.2,1,4.1,2.1,5.7,1.1,1.6,2.7,3,4.8,3.8,1.9.9,4.3,1.3,7,1.3s2.6-.1,3.6-.3c1.1-.2,2-.4,2.7-.7.8-.3,1.4-.6,2-.9.5-.3.9-.6,1.2-.8.6-.4,1.1-1,1.4-1.5.4.6.9,1.1,1.4,1.5,1.2,1.1,2.7,1.8,4.3,2.1,1.4.3,2.9.5,4.2.5s3.3-.1,4.6-.4c1.3-.3,2.4-.7,3.3-1.2.1,0,.2-.1.3-.2l-.2,1.1h12.9l.8-4.3.5,1c.6,1.1,1.3,1.9,2.3,2.6,1.1.8,2.5,1.1,4.3,1.1s3.9-.4,6.2-1.3h.1c.3.2.6.4,1,.5,1,.4,2.2.7,3.9.7s1.8-.1,2.9-.4h12.5l.5-2.5s0,0,0,0c.5,1,1.3,1.7,2.4,2.2,1,.4,2.2.7,3.9.7s1.1,0,1.6-.1c.4,0,.8-.1,1.1-.2h.1c.4-.1.8-.3,1.2-.4l1.1-.4,2.5-13.1c0-.3.1-.7.2-1.1l.2-1.2c0-.5.1-.9.2-1.4,0-.5,0-.9,0-1.4ZM477.4,100.8l3.4-3.7-1.5,7.8-1.9-4.1Z"/>
  <path class="cls-1" d="M432.8,110.2c-.2.2-.5.4-1,.7-.4.3-1,.5-1.6.8-.7.2-1.5.4-2.4.7-.9.2-2,.3-3.2.3-2.4,0-4.5-.4-6.1-1.1-1.6-.7-3-1.8-3.9-3.1-.9-1.3-1.5-2.9-1.7-4.8s-.1-3.9.3-6.1c.4-2.2,1.1-4.2,2-6.1.9-1.9,2.1-3.5,3.5-4.8,1.4-1.3,3.1-2.4,5-3.2,1.9-.8,4.1-1.2,6.5-1.2s2.1.1,3,.3c.9.2,1.6.4,2.2.7.7.3,1.2.5,1.6.8.4.3.8.5,1,.8.3.3.5.7.8,1.1.3.4.3.9.2,1.5-.1.6-.5,1.2-1.2,2-.7.8-1.5,1.5-2.5,2.3-.8-.9-1.6-1.6-2.4-2.1-.8-.4-1.8-.7-3-.7s-2.2.2-3.1.7c-.9.5-1.7,1.1-2.3,1.9-.7.8-1.2,1.6-1.6,2.6-.4,1-.7,2-.9,2.9-.2,1.1-.3,2.2-.3,3.2,0,1,.2,2,.5,2.7.3.8.9,1.4,1.6,2,.7.5,1.7.7,2.9.7s2.2-.2,3.1-.6c.9-.4,1.9-1,3-1.8.2.3.4.6.6.9.2.3.4.7.6,1.1.2.4.3.8.4,1.2.1.4.1.8,0,1.2-.2.9-.8,1.6-1.7,2.4ZM448.1,106.4c1.1,0,2.2-.2,3-.5.9-.3,1.7-.8,2.6-1.4.3.6.5,1.2.8,2s.3,1.4.2,2c-.1.5-.3,1-.7,1.4-.3.4-.9.9-1.6,1.2-.7.4-1.6.7-2.7,1-1.1.3-2.5.4-4.1.4s-2.4-.1-3.7-.4c-1.3-.3-2.4-.9-3.4-1.7-1-.8-1.7-2-2.2-3.5-.5-1.5-.5-3.5,0-5.9.3-1.8,1-3.4,1.8-4.7.9-1.3,1.9-2.4,3.1-3.3,1.2-.9,2.4-1.5,3.8-1.9,1.4-.4,2.7-.6,4-.6s3.2.3,4.3.8,2,1.2,2.6,2.1c.6.9,1,1.9,1.1,3,.1,1.2,0,2.4-.2,3.6,0,.1,0,.3-.1.6s-.1.5-.2.8c0,.3-.1.5-.2.7,0,.2-.1.4-.2.5h-11.5c0,1.1.2,2,.7,2.8.4.8,1.4,1.1,2.9,1.1ZM449.2,98.9c.2-1.2.2-2,0-2.4-.2-.4-.8-.7-1.5-.7-1.3,0-2.2,1-2.6,3.1h4.1ZM467.6,105.8c-.4-.7-.6-1.3-.8-1.9-.2-.6-.3-1.2-.3-2l-1.9,9.8h-8.6l5.8-30.3c.3,0,.7,0,1.1-.1.3,0,.7-.1,1.1-.1.4,0,.8,0,1.1,0,.7,0,1.3,0,2,.2.6.1,1.1.3,1.6.7.4.3.7.8.9,1.4.2.6.2,1.3,0,2.3l-2.7,13.9c.3-.6.6-1.3,1.1-1.9.4-.6,1-1.2,1.5-1.8l2.9-3c.7-.7,1.4-1.3,2.2-1.8.8-.5,1.7-.8,2.9-.8s1.3.1,1.9.3c.6.2,1.1.4,1.5.6.5.3,1,.5,1.4.9l-7.5,8.3,4.9,10.6c-2.1.8-3.8,1.2-5.5,1.2s-2.4-.2-3.1-.7c-.7-.5-1.2-1.1-1.6-1.9l-2-3.8ZM488.7,111.6c-1.2.4-2.3.5-3.2.5-1.3,0-2.3-.2-3-.5-.7-.3-1.1-.7-1.4-1.2-.3-.5-.3-1.1-.3-1.8,0-.7.2-1.4.3-2.1l3-15.4h1.1c.3-.2.7-.2,1.1-.3.4,0,.8,0,1.1,0,.7,0,1.3,0,2,.2.6.1,1.1.3,1.5.7.4.3.7.8.9,1.4.2.6.2,1.3,0,2.3l-3.1,16.3ZM493.6,84.5c-.2,1.2-.8,2.2-1.8,2.9-.9.7-2,1.1-3.2,1.1s-2.1-.3-2.8-1.1c-.7-.7-.9-1.7-.7-2.9.2-1.2.8-2.2,1.8-3,1-.7,2-1.1,3.2-1.1s2.1.4,2.8,1.1c.7.7.9,1.7.7,3ZM504.7,99.1c.1-.6.1-1.1,0-1.5,0-.4-.4-.5-1.1-.5s-1.1.1-1.4.4c-.3.3-.5.6-.6.9l-2.6,13.5h-8.7l4-20.6c.3,0,.6-.1.9-.2.3,0,.7-.1,1.1-.1.4,0,.9,0,1.4,0,1.3,0,2.3.2,3.1.6.8.4,1.2.9,1.4,1.6.4-.6,1.2-1.2,2.3-1.8,1-.5,2.4-.9,4-.9s3.1.4,4,1.3c.9.9,1.3,2,1.4,3.4,0,.3,0,.7,0,1.1,0,.4-.1.8-.1,1.2,0,.4-.1.8-.2,1.2,0,.4-.1.8-.2,1l-2.3,11.9c-.3.1-.6.2-1,.3-.3,0-.7.1-1.1.2-.4,0-.8.1-1.3.1-1.3,0-2.3-.2-3-.5-.7-.3-1.1-.7-1.4-1.2-.3-.5-.4-1.1-.3-1.8,0-.7.2-1.4.3-2.1l1.5-7.5Z"/>
  <path class="cls-2" d="M456,102.5c0-.1.1-.3.2-.5,0-.2.1-.5.2-.7,0-.3.1-.5.2-.8,0-.2,0-.4.1-.6.2-1.3.3-2.5.2-3.6-.1-1.1-.5-2.2-1.1-3-.6-.9-1.5-1.5-2.6-2.1-1.1-.5-2.6-.8-4.3-.8s-2.6.2-4,.6c-1.4.4-2.6,1-3.8,1.9-1.2.9-2.2,2-3.1,3.3-.9,1.3-1.5,2.9-1.8,4.7-.5,2.4-.5,4.4,0,5.9.5,1.5,1.2,2.7,2.2,3.5,1,.8,2.1,1.4,3.4,1.7,1.3.3,2.5.4,3.7.4s3-.1,4.1-.4c1.1-.3,2.1-.6,2.7-1,.8-.4,1.3-.8,1.6-1.2.3-.4.5-.9.7-1.4.1-.6,0-1.2-.2-2-.2-.8-.5-1.4-.8-2-.9.6-1.8,1-2.6,1.4s-1.9.5-3,.5-2.5-.4-3-1.1c-.5-.8-.8-1.7-.7-2.8h11.6ZM444.6,105.6c.6.9,1.8,1.4,3.5,1.4s2.3-.2,3.2-.5c.7-.3,1.4-.7,2.1-1.1.2.4.3.8.4,1.3.2.7.2,1.2.2,1.7,0,.4-.2.8-.5,1.1-.3.4-.8.7-1.4,1.1-.7.3-1.5.7-2.6.9-1.1.2-2.4.4-4,.4s-2.3-.1-3.6-.4c-1.2-.3-2.3-.8-3.2-1.5-.9-.8-1.6-1.9-2-3.2-.4-1.4-.4-3.3,0-5.6.3-1.7.9-3.2,1.8-4.5.8-1.3,1.8-2.3,2.9-3.1,1.1-.8,2.3-1.4,3.6-1.8,1.3-.4,2.6-.6,3.8-.6s3,.2,4.1.7c1,.5,1.8,1.1,2.4,1.9.5.8.9,1.7,1,2.7.1,1.1,0,2.2-.2,3.4v.6c-.1.2-.2.5-.3.7l-.2.8h-11.6v.5c0,1.2.2,2.3.8,3.2Z"/>
  <path class="cls-2" d="M449.8,99c.3-1.3.2-2.2-.1-2.8-.2-.4-.8-1-2-1s-2.6.6-3.2,3.6v.7c-.1,0,5.2,0,5.2,0v-.5ZM449.2,98.9h-4.2c.4-2.1,1.3-3.1,2.6-3.1s1.2.2,1.5.7c.3.4.3,1.2,0,2.4Z"/>
  <path class="cls-2" d="M437.8,89.4c.7-.8,1.1-1.4,1.2-2,.1-.5,0-1-.2-1.5-.3-.4-.5-.8-.8-1.1-.2-.3-.6-.5-1-.8-.4-.3-1-.5-1.6-.8-.7-.3-1.4-.5-2.2-.7-.9-.2-1.9-.3-3-.3-2.4,0-4.6.4-6.5,1.2-1.9.8-3.6,1.9-5,3.2-1.4,1.3-2.6,3-3.5,4.8-.9,1.9-1.5,3.9-2,6-.4,2.2-.5,4.3-.3,6.1.2,1.9.8,3.4,1.7,4.8.9,1.3,2.2,2.4,3.9,3.1,1.6.7,3.7,1.1,6.1,1.1s2.3-.1,3.2-.3c.9-.2,1.8-.4,2.4-.7.7-.2,1.2-.5,1.6-.8.4-.3.8-.5,1-.7.9-.7,1.5-1.5,1.6-2.4,0-.4,0-.8,0-1.2-.1-.4-.2-.8-.4-1.2-.2-.4-.4-.8-.6-1.1-.2-.3-.4-.7-.6-.9-1.1.8-2.1,1.4-3,1.8-.9.4-1.9.6-3.1.6s-2.1-.2-2.9-.7c-.7-.5-1.3-1.1-1.6-2-.3-.8-.5-1.7-.5-2.7s0-2.1.3-3.2c.2-1,.5-2,.9-2.9.4-1,1-1.9,1.6-2.6.7-.8,1.4-1.4,2.3-1.9.9-.5,1.9-.7,3.1-.7s2.2.2,3,.7c.8.4,1.6,1.2,2.4,2.1,1-.8,1.9-1.5,2.5-2.3ZM435.4,91c-.7-.8-1.5-1.3-2.2-1.8-.9-.5-2-.8-3.3-.8s-2.4.3-3.4.8c-1,.5-1.8,1.2-2.5,2-.7.8-1.2,1.8-1.7,2.8-.4,1-.8,2-1,3.1-.2,1.1-.3,2.2-.3,3.3,0,1.1.2,2.1.6,3,.4.9,1,1.6,1.8,2.2.8.5,1.9.8,3.2.8s2.3-.2,3.3-.6c.8-.3,1.7-.9,2.6-1.5,0,.1.2.2.2.4.2.3.4.7.6,1.1.2.3.3.7.4,1.1,0,.3,0,.7,0,1-.1.7-.6,1.4-1.4,2-.2.2-.5.4-.9.6-.4.2-.9.5-1.5.7-.6.2-1.4.4-2.3.6-.9.1-2,.2-3.2.2-2.3,0-4.3-.3-5.9-1.1-1.5-.7-2.8-1.6-3.6-2.9-.9-1.2-1.4-2.8-1.6-4.5-.2-1.8-.1-3.7.3-5.9.4-2.1,1.1-4.1,2-5.9.9-1.8,2-3.3,3.4-4.6,1.3-1.3,3-2.3,4.8-3.1,1.9-.8,4-1.1,6.3-1.1s2,0,2.9.2c.8.2,1.5.4,2.1.6.6.2,1.1.5,1.5.8.4.3.7.5.9.7.2.2.5.6.7,1,.2.3.2.7.2,1.1,0,.3-.3.9-1,1.7-.6.7-1.3,1.3-2.1,2Z"/>
  <path class="cls-2" d="M488.6,88.5c1.2,0,2.3-.3,3.2-1.1.9-.7,1.5-1.7,1.8-2.9.2-1.2,0-2.2-.7-3-.7-.7-1.6-1.1-2.8-1.1s-2.3.4-3.2,1.1c-1,.7-1.5,1.7-1.8,3-.2,1.2,0,2.2.7,2.9.7.7,1.6,1.1,2.8,1.1ZM485.8,84.6c.2-1.1.7-2,1.5-2.6.9-.7,1.8-1,2.9-1s1.8.3,2.4.9c.5.6.7,1.4.5,2.4-.2,1.1-.7,2-1.5,2.6-.9.7-1.8,1-2.9,1s-1.8-.3-2.4-.9c-.5-.5-.7-1.3-.5-2.4Z"/>
  <path class="cls-2" d="M513.8,95.1c0-1.4-.5-2.5-1.4-3.4-.9-.9-2.2-1.3-4-1.3s-2.9.3-4,.9c-1,.5-1.8,1.1-2.3,1.8-.2-.7-.6-1.2-1.4-1.6-.8-.4-1.8-.6-3.1-.6s-1,0-1.4,0c-.4,0-.8,0-1.1.1-.3,0-.7.1-.9.2l-4,20.6h8.7l2.6-13.5c0-.3.2-.6.6-.9.3-.3.8-.4,1.4-.4s1,.2,1.1.5c0,.4,0,.9,0,1.5l-1.4,7.4c-.1.8-.2,1.5-.3,2.1,0,.7,0,1.3.3,1.8.3.5.7.9,1.4,1.2.7.3,1.7.5,3,.5s.9,0,1.3-.1c.4,0,.8-.1,1.1-.2.3-.1.7-.2,1-.3l2.3-11.9c0-.3.1-.6.2-1,0-.4.1-.8.2-1.2,0-.4.1-.8.1-1.2,0-.4,0-.8,0-1.1ZM513.2,96.1c0,.4,0,.8-.1,1.2l-.2,1.2c0,.4-.1.7-.2,1l-2.2,11.6c-.2,0-.4.1-.6.2-.2,0-.6.1-1,.2-.4,0-.8,0-1.2,0-1.2,0-2.2-.1-2.7-.4-.5-.2-.9-.6-1.1-1-.2-.4-.3-.9-.2-1.5,0-.7.1-1.3.3-2.1l1.4-7.4c.1-.7.2-1.3,0-1.7,0-.4-.4-1-1.6-1s-1.4.2-1.8.5c-.4.4-.7.8-.8,1.2l-2.5,13h-7.5l3.7-19.5c.2,0,.3,0,.5-.1.3,0,.7-.1,1.1-.1.4,0,.9,0,1.3,0,1.2,0,2.1.2,2.8.5.6.3.9.7,1.1,1.2l.3,1.2.8-1c.4-.5,1.1-1.1,2.1-1.6,1-.5,2.2-.8,3.6-.8s2.8.4,3.6,1.1c.8.8,1.2,1.8,1.2,3,0,.3,0,.6,0,1Z"/>
  <path class="cls-2" d="M482.4,92.2c-.4-.3-.9-.6-1.4-.9-.4-.2-1-.4-1.5-.6-.6-.2-1.2-.3-1.9-.3-1.2,0-2.1.2-2.9.8-.8.5-1.5,1.1-2.2,1.8l-2.9,3c-.6.6-1.1,1.2-1.5,1.8-.4.6-.8,1.2-1.1,1.9l2.7-13.9c.2-.9.2-1.7,0-2.3-.2-.6-.5-1.1-.9-1.4-.4-.3-.9-.5-1.6-.7-.6-.1-1.3-.2-2-.2s-.8,0-1.1,0c-.4,0-.8,0-1.1.1-.4,0-.8.1-1.1.1l-5.8,30.3h8.6l1.9-9.8c0,.7.1,1.4.3,2,.2.6.4,1.2.8,1.9l2,3.8c.4.8,1,1.4,1.6,1.9.7.5,1.7.7,3.1.7s3.4-.4,5.5-1.2l-4.9-10.6,7.5-8.3ZM479,110.8c-1.7.6-3.3.9-4.6.9s-2.1-.2-2.7-.6c-.6-.4-1.1-1-1.5-1.7l-2-3.8c-.3-.6-.6-1.2-.8-1.8-.2-.5-.2-1.1-.2-1.8l-.2-.4-.3-.3-.4.2-.3.4-1.8,9.3h-7.4l5.6-29.2c.2,0,.4,0,.7-.1.3,0,.7-.1,1-.1.4,0,.8,0,1.1,0,.7,0,1.3,0,1.9.2.5.1,1,.3,1.3.6.3.3.5.6.7,1.1.2.5.2,1.2,0,2l-2.7,13.9v.4c.1,0,.3.4.3.4l.5-.2.3-.3c.2-.6.6-1.2,1-1.8.4-.6.9-1.2,1.5-1.8l2.9-3c.7-.7,1.3-1.2,2.1-1.7.7-.4,1.5-.7,2.5-.7s1.2,0,1.7.2c.5.2,1.1.4,1.5.6.3.1.5.3.8.4l-7.4,8.2,4.8,10.4Z"/>
  <path class="cls-2" d="M491.9,93.1c-.2-.6-.5-1.1-.9-1.4-.4-.3-.9-.5-1.5-.7-.6-.1-1.3-.2-2-.2s-.8,0-1.1,0c-.4,0-.8,0-1.1.1h-1.1c0,.1-3,15.6-3,15.6-.1.8-.2,1.5-.3,2.1,0,.7,0,1.3.3,1.8.3.5.7.9,1.4,1.2.7.3,1.6.5,3,.5s2-.2,3.2-.5l3.1-16.3c.1-.9.1-1.7,0-2.3ZM491.3,95.2l-3.1,15.9c-1,.3-2,.4-2.7.4-1.2,0-2.1-.1-2.7-.4-.5-.2-.9-.6-1.1-1-.2-.4-.3-.9-.2-1.5,0-.7.2-1.3.3-2.1l2.9-15h.7c.3-.1.7-.2,1.1-.2.4,0,.8,0,1.1,0,.7,0,1.3,0,1.9.2.5.1,1,.3,1.3.6.3.2.5.6.7,1.1.1.5.1,1.1,0,2Z"/>
</svg>