<?xml version="1.0" encoding="utf-8"?>
<!-- Generator: Adobe Illustrator 28.5.0, SVG Export Plug-In . SVG Version: 9.03 Build 54727)  -->
<svg version="1.1" id="Layer_1" xmlns="http://www.w3.org/2000/svg" xmlns:xlink="http://www.w3.org/1999/xlink" x="0px" y="0px"
	 viewBox="0 0 520 191.8" style="enable-background:new 0 0 520 191.8;" xml:space="preserve">
<style type="text/css">
	.st0{fill:#FFFFFF;}
</style>
<g>
	<path class="st0" d="M20.9,49.8c-2.2-1.9-4.7-3.4-6.5-5.5c-4.7-5.5-6.2-11.9-5.4-19.1c0.4-3.3,1.4-6.3,2.9-8.9
		c1.4-2.6,3.9-4.8,6.3-6.6c2-1.6,4.5-2.8,6.9-3.5c3.2-1,6.5-1.4,9.8-2c4.3-0.8,8.7-0.3,13,0.2c6.3,0.6,12.2,2.7,16.8,7.2
		c3.5,3.4,5.4,7.7,5.9,12.8c0.7,7.7-1.6,14.1-7,19.4c-1.5,1.5-3.3,2.5-5.3,4c0.7,0.4,1.2,0.7,1.7,0.9c5.3,2.6,9.9,6.1,11.9,11.7
		c1.4,3.8,1.9,7.8,1.5,11.9C73,76.3,72,80,69.8,83.5c-2.1,3.3-4.9,5.9-8.4,7.7c-6.3,3.3-13,4.3-20,4.3c-4.4,0-8.7,0-13-0.6
		c-5.4-0.7-10.6-2.4-15-5.8C9,85.7,7,80.7,6.1,75.1C5.6,71.5,5.8,67.9,7,64.7c1.1-2.9,2.8-5.9,5-8.2c2.3-2.4,5.4-4.1,8.2-6.1
		C20.5,50.1,20.8,49.9,20.9,49.8z M40,82.4c2.3-0.3,4.8-0.3,7-0.8c2.1-0.5,4.3-1.2,5.9-2.5c3.1-2.6,4.4-6,4.2-10.3
		c-0.2-3.2-3.4-8-6.4-8.9c-4-1.2-7.9-2.4-11.8-3.8c-3-1-5.8-0.7-8.8,0.6c-7.1,3.2-9.7,10.9-7.7,17.7c0.4,1.5,1.6,3.1,2.8,4
		C29.7,81.7,34.7,82.5,40,82.4z M55.5,28.6c-0.1-5.3-3.7-9.9-8.7-10.7c-4.7-0.7-9.4-1-14.1,0.2c-5.7,1.5-9.7,7.6-8.1,13.2
		c0.8,2.8,2.2,5.2,4.9,6.8c4.1,2.4,8.6,3,13,4.4c1,0.3,2.3,0.4,3.1-0.1c4-1.9,7.7-4.2,9-8.8C55.1,32,55.2,30.2,55.5,28.6z
		 M62.3,22.7c-0.8-1.6-1.6-3.2-2.4-4.9c-0.1-0.1-0.1-0.4,0-0.5c0.6-1.7-0.7-2.1-1.7-2.6c-0.4-0.2-1.1-0.1-1.5,0
		c-0.2,0.1,0,0.8-0.1,1.3c0,0.5,0,1.1-0.1,1.6c-0.3,1.7,0.3,2.6,1.9,3.2c0.7,0.2,1.2,0.9,1.9,1.3c-0.5,0.5-0.7,0.4-0.9,0.5
		c-0.5,0.3-0.9,0.6-1.3,0.9c-0.1,0.1,0.3,0.7,0.4,0.7c0.5-0.1,1-0.3,1.4-0.5C60.5,23.5,61.3,23.1,62.3,22.7z M50,46.6
		c-0.3,3.1,0.2,5.1,1.6,5.5c-0.3-0.8-0.8-1.6-0.8-2.3c0-0.8,0.5-1.7,0.8-2.5c1.5,1.3,2.9,2.5,4.3,3.6c0.2-0.2,0.4-0.4,0.6-0.5
		c-1-1.2-2-2.5-3.2-3.9c0.9-1.6,2.2-3.4,0.3-5.7c-0.1,0.9-0.3,1.7-0.4,2.5c-0.2,0-0.3,0.1-0.5,0.1c-0.4-0.8-0.9-1.7-1.3-2.5
		c-0.1,0-0.2,0.1-0.4,0.1c0.1,0.7,0.1,1.4,0.2,2.1c-0.3,0-0.5,0.1-1.1,0.2c0.9,0.5,1.6,0.8,2.2,1.1c-0.2,2.3-0.7,2.3-4.5,0.2
		c-0.4,0.4-0.8,0.9-1.6,1.7C47.9,46.5,48.9,46.6,50,46.6z M57.9,27.6c1.2,3.6,2.3,6.8,3.4,10.2c0.2,0,0.8,0.1,1.2,0.1
		C61.9,34.2,61,30.6,57.9,27.6z M35.3,14.3c0.2,0,0.4,0.1,0.6,0.1c0.2-1,0.2-2.1,0.7-3.1c0.4-0.9,1.3-1.5,1.9-2.3
		C34.8,9.9,34.6,11.7,35.3,14.3z M48.9,55.4c0.1,0.1,0.2,0.2,0.2,0.2c0.9,0,1.8,0.1,2.8,0c0.7-0.1,1.3-0.4,1.9-0.7
		c0.2-0.1,0.3-0.7,0.2-1c0-0.2-0.5-0.5-0.7-0.4C51.8,54.1,50.3,54.7,48.9,55.4z M58.7,38.6c-0.2,0.3-0.4,0.6-0.7,0.9
		c-0.3,0.3-0.6,0.6-0.8,0.9c2,1.2,2.2,1.2,3.4-0.8C60.1,39.4,59.6,39.1,58.7,38.6z M30.1,12.7c0.2,0,0.3,0.1,0.5,0.1
		c0.4-0.9,0.9-1.9,1.2-2.8c0.1-0.3-0.3-0.8-0.5-1.2c-0.3,0.3-0.7,0.5-0.8,0.8C30.3,10.7,30.2,11.7,30.1,12.7z"/>
	<path class="st0" d="M105.3,38.4c5.5,0,10.6-0.1,15.7,0c7.7,0.2,14.9,2.1,20.9,7.2c3.1,2.7,5,6.2,6.5,10c1.2,3,1.2,6,1.6,9.1
		c0.6,5.3-0.7,10.2-2.8,15c-1.9,4.4-4.9,8-8.8,10.5c-4.2,2.7-8.8,4.7-13.8,5.2c-3.3,0.3-6.6,0.6-9.9,0.3c-4.6-0.4-9-1.4-13.4-3.1
		c-3.7-1.5-6.9-3.8-9.6-6.5c-1.9-1.9-3.3-4.3-4.7-6.7c-0.8-1.4-1.2-3.1-1.7-4.7c-0.6-1.7,0-3.4,1.5-4.1c2.7-1.1,5.4-2.2,8.1-3.2
		c2.3-0.8,4.2-0.1,4.9,2c3,8.3,9.2,11.7,17.6,11.6c2.6,0,5.4-0.3,7.9-1.2c4.1-1.5,6.7-4.5,8-8.9c1.1-3.7,0.8-7.3-0.5-10.6
		c-1.6-3.8-4.7-6.6-9.2-7c-3.5-0.3-6.9-0.4-10.4-0.5c-4.9-0.1-9.8-0.2-14.7-0.3c-2.3,0-4.6,0-6.9-0.1c-2.2-0.2-3.4-2-3.1-4.2
		c0.5-3.9,0.7-7.8,1.1-11.7c0.2-2.3,0.5-4.6,0.8-6.9c0.5-4.3,0.9-8.7,1.4-13c0.3-2.5,0.4-5.1,0.9-7.6c0.4-1.6,1.6-2.9,3.4-3.1
		c4.6-0.4,9.2-0.6,13.8-0.7c3-0.1,6.1,0,9.1,0.1c3,0,6.1,0.1,9.1,0.2c3.7,0,7.3,0,11,0c1.6,0,3.2,0,4.8,0.2c1.5,0.2,2.5,1,2.5,2.7
		c0,3,0.1,6.1-0.1,9.1c0,0.7-0.8,1.6-1.5,1.8c-1.3,0.4-2.7,0.6-4,0.7c-6.1,0.1-12.3,0-18.4,0c-4.1,0-8.2,0.2-12.3,0.2
		c-0.1,0-0.1,0-0.2,0c-3.3,0.1-3.4,0.2-3.7,3.6c-0.3,3-0.7,6-0.9,9.1C105.2,34.6,105.3,36.4,105.3,38.4z M119.7,86.5
		c0.5-0.8,0.9-1.5,1.5-2.3c-3.8,1-3.8,1-3.4,3.4C118.3,87,118.3,85.1,119.7,86.5c0,0.6,0,1.3,0,1.7c1,0.4,1.7,0.7,2.5,1.1
		c0.9-1,0.4-1.9-0.6-2.4C121,86.5,120.3,86.6,119.7,86.5z M112.8,89c-0.1,0.1-0.2,0.3-0.3,0.4c1.4,1.3,2.8,2.5,4.1,3.8
		c2-1.4,0-2.9,0.1-4.4c0-0.5-0.6-0.9-1-1.5C114.2,89.5,114.2,89.5,112.8,89z M132.9,47.2c-0.6,0.2-1.3,0.4-2.1,0.7
		c-0.3-0.7-0.4-1.1-0.7-1.7c-0.9,2.1,0.3,3.8,2.6,4.6C132.8,49.6,132.9,48.4,132.9,47.2z M131.8,46.3c1-0.7,1.8-1.3,2.5-1.8
		c-0.1-0.2-0.1-0.4-0.2-0.6c-1,0.1-2.1,0.2-3.5,0.3C131.2,45.1,131.5,45.6,131.8,46.3z M142,72.5c1.4-0.5,2.3-0.9,3.4-1.3
		c-0.5-0.7-1-1.3-1.6-2.1C143.2,70.4,142.7,71.3,142,72.5z M107.6,47.7c0.1,0.1,0.2,0.2,0.3,0.3c0.9-0.5,1.8-1,2.9-1.6
		c-0.1-0.3-0.3-0.7-0.5-1.6C109.2,46,108.4,46.8,107.6,47.7z"/>
	<path class="st0" d="M177,93.9c-1.6-0.1-3.6-0.3-5.5-0.4c-1.9-0.2-2.5-1.1-1.7-2.8c1-1.9,2.2-3.6,3.5-5.3c2.3-3.2,4.7-6.4,7-9.6
		c4.8-6.5,9.7-13,14.6-19.6c4.1-5.6,8.1-11.2,12.2-16.7c3.3-4.4,6.6-8.8,9.9-13.3c2-2.7,3.9-5.4,5.9-8.1c2.6-3.6,5-7.3,8-10.6
		c1.1-1.3,3.5-1.7,5.4-1.9c2.3-0.3,4.7,0,7.1,0.1c2,0.1,2.9,1.6,1.8,3.2c-2.4,3.5-5,6.8-7.5,10.2c-0.8,1.1-1.5,2.3-2.3,3.4
		c-3.9,5.3-7.8,10.6-11.7,15.9c-2.2,3-4.2,6-6.3,8.9c-2.8,3.7-5.6,7.4-8.4,11.1c-2.7,3.7-5.5,7.3-8.2,11c-3.6,5-7.3,10-10.9,15
		c-1.7,2.3-3.4,4.6-5,6.9C182.8,93.9,180,93.8,177,93.9z M220.6,33.5c0.3-0.6,0.4-0.7,0.4-0.9c0.1-1.5-0.1-3.1,2-3.7
		c0.2-0.1,0.5-1.3,0.3-1.4c-1-0.8-2.1-1.4-3.6-2.3c0.4,1.7,1.1,2.9,0.8,3.8c-0.2,0.8-1.6,1.2-2.2,1.6c0.4,0.3,0.9,0.6,1.2,1
		C219.9,32.2,220.2,32.7,220.6,33.5z M228.5,17.1c-0.6,0.9-1.1,1.5-1.4,2.2c-0.2,0.5-0.2,1.4,0.1,1.8c0.4,0.5,1.2,0.8,1.8,1.1
		c0.1,0,0.5-0.3,0.4-0.4c0-0.3-0.2-0.6-0.4-0.7c-1.7-0.6-1.2-1.1-0.1-1.8c0.3-0.2,0.5-0.8,0.4-1.2C229.5,17.9,229,17.6,228.5,17.1z
		 M219.5,34.3c-1.7-0.6-1.9-2.9-4.2-2.3c2,0.9,2.5,2.3,1.1,4.6C217.7,35.7,218.4,35.2,219.5,34.3z M190.4,66.8
		c1.2,1.2,2.7,1.1,4.4,0C193.3,64.4,191.8,67.1,190.4,66.8z M226.4,28.5c-0.4-0.8-0.8-1.5-1-2.2c-0.4-1.1-0.6-1.2-1.7-0.6
		C225.5,29,225.5,29,226.4,28.5z M222.3,24.1c0.2,0.2,0.4,0.4,0.6,0.6c1-1,2-2,2.9-3.1c0.1-0.1-0.4-0.6-0.5-0.7
		C224.2,22.1,223.2,23.1,222.3,24.1z M205.7,51.1c0,0.1,0,0.1,0.1,0.2c1.2,0.3,2.4,0.6,3.7,0.7c0.3,0,0.6-0.4,0.9-0.6
		c-0.3-0.3-0.6-1-0.8-1C208.3,50.6,207,50.8,205.7,51.1z M215.1,41.2c-0.2-1.7-3.2-1.3-2.1-3.8c-0.5,0.7-0.9,1.7-0.6,2
		C213.2,40.1,214.2,40.6,215.1,41.2z M195.1,60.7c-0.2,0-0.4,0.1-0.5,0.1c-0.1,0.5-0.3,0.9-0.4,1.4c-0.2,1.4,0.4,1.9,1.4,0.9
		C195.9,62.9,195.3,61.6,195.1,60.7z M214.2,38.3c0.2,0.1,0.4,0.1,0.6,0.2c0.2-0.6,0.6-1.3,0.5-1.9c0-0.4-0.7-0.7-1.1-1.1
		c-0.1,0.1-0.3,0.2-0.4,0.3C213.9,36.6,214.1,37.5,214.2,38.3z"/>
	<path class="st0" d="M182.1,49c-7.7-0.1-12.7-1.2-16.7-5.2c-3-3-4.8-6.4-4.9-10.5c-0.1-3.4,0.2-6.8,0-10.2c-0.2-3.1,0-6,1.2-8.7
		c1.6-3.4,3.9-6.2,7.3-8.1c4.1-2.2,8.4-2.6,12.8-2.7c4.5-0.1,8.8,1.3,12.6,3.6c2.7,1.7,4.7,4.2,5.9,7.4c1.8,4.9,1.4,9.9,1.2,14.9
		c-0.1,1.4,0,2.7-0.1,4.1c0,5.3-2.9,8.8-6.8,11.9C190.2,49,185,49,182.1,49z M172.2,25.9c0.3,2.1,0.4,4.9,1,7.5
		c0.7,2.9,3.3,3.7,6,4.4c5,1.3,10.3-2.4,10.4-7.5c0.1-2.4-0.1-4.8,0.1-7.3c0.3-3.8-2.6-8.3-7.2-7.7c-0.5,0.1-1-0.1-1.5-0.2
		c-3.3-0.4-6.9,1.6-7.9,4.7C172.5,21.6,172.5,23.5,172.2,25.9z M163.4,23.7c0.1,0.2,0.1,0.4,0.2,0.6c0.9,0,1.7,0.2,2.6,0.1
		c0.1,0,0.1-1,0.3-1.4c0.2-0.5,0.4-1.2,0.8-1.4c1.5-0.9,0.9-1.7,0.3-2.4c-1.1,0.7-2.1,1.2-3.1,1.8C165.5,22.2,165.2,23.2,163.4,23.7
		z M169.5,31.2c-0.7,2.2-1.3,3.9-1.8,5.7c0.2,0.1,0.3,0.1,0.5,0.2C169.3,35.5,170.7,34,169.5,31.2z M168.4,12.1
		c1.8-0.3,3.3-0.5,5.2-0.8C170.4,10.2,169.4,10.3,168.4,12.1z M184,8.3c-0.8,1.8-1.3,2.9-1.9,4.1c1.4,0.1,2.2-0.9,2.7-2.1
		C185,9.9,184.4,9.2,184,8.3z M176.8,10.4c0,0.2,0,0.3,0,0.5c0.4,0,1.1,0.3,1.2,0.1c1.1-1.4,0.2-2.5-0.3-3.7c-0.2,0-0.3,0.1-0.5,0.1
		c0.2,0.8,0.5,1.6,0.7,2.4C177.5,10,177.1,10.2,176.8,10.4z"/>
	<path class="st0" d="M254.8,73.1c-0.5,3.6-0.7,7.5-1.5,11.2c-0.7,3.3-3,5.9-5.7,7.8c-4.6,3.1-9.8,4.1-15.3,3.3
		c-2.1-0.3-4.2-0.4-6.2-0.8c-7.4-1.6-11.2-6.6-12.7-13.7c-0.3-1.3-0.2-2.7-0.2-4.1c0.2-4.4,0.4-8.8,0.8-13.2
		c0.5-5.1,3.7-8.7,7.9-10.9c4.6-2.5,9.7-3.3,15-2.4c1.4,0.2,2.8,0.5,4.2,0.7c3.4,0.5,5.9,2.6,8.5,4.5c2.3,1.7,3.4,4.3,3.9,7
		C254.1,65.9,254.3,69.4,254.8,73.1z M242.8,73c-0.1,0-0.2,0-0.2-0.1c-0.2-1.8-0.3-3.6-0.5-5.4c-0.3-3-2.5-5.1-5.5-5.4
		c-1.1-0.1-2.1-0.3-3.2-0.4c-4.3-0.3-8.9,2.9-8.2,7.6c0.2,1.5-0.1,3,0,4.5c0.1,2.2,0.1,4.4,0.8,6.4c0.9,2.6,3.3,3.7,6,4.2
		c3.9,0.8,8.5-1.2,9.6-4.5C242.3,77.7,242.4,75.3,242.8,73z M220.1,67.7c-1.7,0.6-3,1.1-4.3,1.7c-0.2,0.1-0.3,0.8-0.2,1
		c0.3,0.4,0.8,0.6,1.2,1c0.5-0.7,1-1.3,1.5-1.9c0.5,0.5,0.9,0.9,1.3,1.2C219.7,69.7,219.8,68.9,220.1,67.7z M217.2,63.9
		c-0.3,1.5-0.6,2.9-0.9,4.3C218.9,67.3,219,66.8,217.2,63.9z M218.5,84c-0.9,1.4-0.9,1.4,2.7,4c0.1-0.8,0.2-1.6,0.3-2.6
		c-0.9,0.5-1.3,0.8-2.1,1.3C219.1,85.6,218.8,84.8,218.5,84z M222,64.7c1.2-1.9,1-2.3-1.9-3.4C220.8,62.6,221.4,63.7,222,64.7z
		 M228.3,87.8c0.2,0.1,0.3,0.2,0.5,0.2c0.3-0.6,0.8-1.2,0.8-1.7c0-0.4-0.9-1-1.4-0.9c-0.6,0.1-1.1,0.7-1.7,1
		c0.1,0.2,0.2,0.3,0.3,0.5c0.6-0.2,1.1-0.4,2-0.8C228.6,86.9,228.4,87.3,228.3,87.8z M232.5,92.3c0.1-0.1,0.2-0.2,0.4-0.3
		c-0.6-0.6-1.1-1.4-1.9-1.7c-0.7-0.3-1.5,0-2.6,0C230.1,91.1,231.3,91.7,232.5,92.3z M246.8,82.7c0.1,0.1,0.2,0.2,0.3,0.3
		c0.8-1.3,1.7-2.6,2.5-4c-0.2-0.1-0.4-0.3-0.6-0.4C248.3,80.1,247.5,81.4,246.8,82.7z M244,84c-1.9,0.8-2,1.6-0.5,3
		C243.7,86,243.8,85.2,244,84z"/>
</g>
<g>
	<path class="st0" d="M26.6,124.8c0.2,0.3,0.2,0.6,0.2,1.1c0,0.9-0.2,1.5-0.6,2c-0.9,1.1-1.9,2-2.9,2.8c-1.1,0.8-2.1,1.2-3.2,1.2
		c-1.7,0-2.9-1-3.8-2.9c-0.9,1.2-1.7,1.9-2.4,2.3c-0.7,0.4-1.5,0.6-2.4,0.6c-1.3,0-2.4-0.5-3.3-1.5c-0.9-1-1.3-2.3-1.3-3.9
		c0-1.7,0.4-3.3,1.1-4.8s1.8-2.7,3-3.6c1.3-0.9,2.7-1.5,4.3-1.7c0.4-4.2,1.2-7.8,2.4-10.8s2.7-4.5,4.6-4.5c0.9,0,1.7,0.4,2.3,1.3
		s0.9,2.1,0.9,3.8c0,2.4-0.6,5.3-1.8,8.5c-1.2,3.3-2.8,6.6-4.8,10c0.1,1.3,0.3,2.2,0.6,2.7c0.3,0.5,0.7,0.8,1.1,0.8
		c0.6,0,1.2-0.3,1.8-0.8c0.6-0.5,1.4-1.4,2.4-2.6c0.3-0.3,0.6-0.5,0.9-0.5C26.2,124.4,26.4,124.5,26.6,124.8z M13.9,128
		c0.4-0.3,0.9-1,1.6-1.9c-0.2-1.2-0.3-2.5-0.3-3.9c0-0.5,0-1.4,0.1-2.5c-1.2,0.4-2.2,1.2-3,2.4c-0.8,1.2-1.2,2.6-1.2,4.1
		c0,1.6,0.5,2.4,1.6,2.4C13.1,128.5,13.5,128.4,13.9,128z M20.8,106.4c-0.4,1.5-0.8,3.4-1.1,5.7c-0.3,2.4-0.5,4.8-0.6,7.4
		c2.4-5.3,3.6-9.6,3.6-12.8c0-0.8-0.1-1.5-0.2-1.9c-0.1-0.5-0.3-0.7-0.5-0.7C21.6,104.2,21.2,105,20.8,106.4z"/>
	<path class="st0" d="M41.4,122.1c0.2,0.3,0.2,0.6,0.2,1.1c0,1-0.3,1.7-0.9,1.9c-1.3,0.5-2.7,0.7-4.3,0.8c-0.4,1.8-1.2,3.3-2.4,4.4
		c-1.2,1.1-2.6,1.6-4.1,1.6c-1.3,0-2.4-0.3-3.3-0.9c-0.9-0.6-1.6-1.5-2.1-2.5c-0.5-1-0.7-2.2-0.7-3.4c0-1.6,0.3-3.1,0.9-4.4
		c0.6-1.3,1.5-2.3,2.6-3c1.1-0.7,2.3-1.1,3.7-1.1c1.6,0,3,0.6,4,1.7c1,1.1,1.6,2.5,1.8,4.2c1-0.1,2.2-0.3,3.6-0.7
		c0.2,0,0.3-0.1,0.5-0.1C41.1,121.7,41.3,121.8,41.4,122.1z M31.9,127.5c0.5-0.6,0.9-1.4,1-2.4c-0.7-0.5-1.2-1.1-1.5-1.8
		s-0.5-1.5-0.5-2.3c0-0.3,0-0.7,0.1-1h-0.2c-0.9,0-1.6,0.4-2.2,1.3c-0.6,0.8-0.9,2-0.9,3.5c0,1.2,0.2,2.1,0.7,2.7
		c0.5,0.6,1,0.9,1.6,0.9C30.8,128.4,31.4,128.1,31.9,127.5z"/>
	<path class="st0" d="M56.8,122.1c0.2,0.3,0.2,0.6,0.2,1.1c0,0.5-0.1,1-0.2,1.3c-0.2,0.3-0.4,0.5-0.7,0.6c-1.3,0.5-2.7,0.7-4.3,0.8
		c-0.4,1.8-1.3,3.3-2.5,4.4s-2.5,1.7-4,1.7c-2.2,0-3.8-0.8-4.8-2.5c-1-1.7-1.5-4.1-1.5-7.3c0-2.8,0.3-5.8,1-9.1
		c0.7-3.3,1.7-6.1,3-8.4c1.3-2.3,2.9-3.5,4.8-3.5c1,0,1.8,0.4,2.4,1.3s0.9,2,0.9,3.3c0,1.8-0.3,3.5-1,5.3c-0.7,1.8-1.8,3.6-3.4,5.5
		c1.5,0.1,2.6,0.7,3.5,1.8c0.9,1.1,1.5,2.4,1.6,4.1c1-0.1,2.2-0.3,3.6-0.7c0.1,0,0.3-0.1,0.5-0.1C56.5,121.7,56.7,121.8,56.8,122.1z
		 M47.3,127.5c0.5-0.6,0.9-1.4,1-2.4c-0.7-0.5-1.2-1.1-1.5-1.8c-0.4-0.7-0.5-1.5-0.5-2.3c0-0.3,0-0.7,0.1-1.2h-0.1
		c-0.9,0-1.6,0.4-2.2,1.3c-0.6,0.9-0.9,2.1-0.9,3.5c0,1.2,0.2,2.2,0.7,2.8s1,1,1.6,1C46.2,128.4,46.8,128.1,47.3,127.5z M45.8,106.2
		c-0.5,1.3-1,3-1.4,5.3c-0.4,2.2-0.8,4.6-1,7.3c1.4-2.6,2.6-4.9,3.4-7c0.9-2,1.3-3.8,1.3-5.4c0-0.7-0.1-1.2-0.2-1.6
		c-0.2-0.4-0.4-0.6-0.7-0.6C46.8,104.3,46.3,104.9,45.8,106.2z"/>
	<path class="st0" d="M54.8,130.5c-0.3-0.9-0.5-2.3-0.5-4.2c0-2.8,0.4-5.5,1.2-8c0.2-0.6,0.5-1.1,1-1.4c0.4-0.3,1.1-0.4,1.9-0.4
		c0.4,0,0.7,0.1,0.9,0.2c0.2,0.1,0.3,0.3,0.3,0.6c0,0.3-0.2,1.1-0.5,2.3c-0.2,0.9-0.4,1.6-0.5,2.3c-0.1,0.7-0.2,1.5-0.3,2.4
		c0.7-1.9,1.5-3.4,2.4-4.6c0.9-1.2,1.8-2,2.6-2.5c0.9-0.5,1.6-0.7,2.4-0.7c1.4,0,2.1,0.7,2.1,2.1c0,0.3-0.1,1-0.3,2.1
		c-0.2,0.9-0.3,1.4-0.3,1.6c0,0.8,0.3,1.1,0.8,1.1c0.6,0,1.4-0.5,2.3-1.4c0.3-0.3,0.6-0.4,0.9-0.4c0.3,0,0.5,0.1,0.7,0.4
		c0.2,0.2,0.2,0.6,0.2,1c0,0.8-0.2,1.4-0.7,1.9c-0.6,0.6-1.3,1.2-2.1,1.6c-0.8,0.4-1.7,0.7-2.6,0.7c-1.2,0-2-0.3-2.6-0.9
		c-0.6-0.6-0.9-1.4-0.9-2.4c0-0.3,0-0.7,0.1-1c0-0.4,0.1-0.7,0.1-0.9c0-0.3-0.1-0.5-0.4-0.5c-0.3,0-0.8,0.4-1.3,1.1
		c-0.5,0.7-1.1,1.7-1.6,2.9c-0.5,1.2-0.9,2.5-1.3,3.8c-0.2,1-0.5,1.7-0.8,2.1c-0.3,0.4-0.8,0.5-1.5,0.5
		C55.7,131.8,55.2,131.4,54.8,130.5z"/>
	<path class="st0" d="M86.3,122.1c0.2,0.3,0.2,0.6,0.2,1.1c0,1-0.3,1.7-0.9,1.9c-1.3,0.5-2.7,0.7-4.3,0.8c-0.4,1.8-1.2,3.3-2.4,4.4
		c-1.2,1.1-2.6,1.6-4.1,1.6c-1.3,0-2.4-0.3-3.3-0.9c-0.9-0.6-1.6-1.5-2.1-2.5c-0.5-1-0.7-2.2-0.7-3.4c0-1.6,0.3-3.1,0.9-4.4
		c0.6-1.3,1.5-2.3,2.6-3c1.1-0.7,2.3-1.1,3.7-1.1c1.6,0,3,0.6,4,1.7c1,1.1,1.6,2.5,1.8,4.2c1-0.1,2.2-0.3,3.6-0.7
		c0.2,0,0.3-0.1,0.5-0.1C86,121.7,86.2,121.8,86.3,122.1z M76.8,127.5c0.5-0.6,0.9-1.4,1-2.4c-0.7-0.5-1.2-1.1-1.5-1.8
		s-0.5-1.5-0.5-2.3c0-0.3,0-0.7,0.1-1h-0.2c-0.9,0-1.6,0.4-2.2,1.3c-0.6,0.8-0.9,2-0.9,3.5c0,1.2,0.2,2.1,0.7,2.7
		c0.5,0.6,1,0.9,1.6,0.9C75.7,128.4,76.3,128.1,76.8,127.5z"/>
	<path class="st0" d="M93,130.5c-0.3-0.9-0.5-2.3-0.5-4.2c0-2.8,0.4-5.5,1.2-8c0.2-0.6,0.5-1.1,1-1.4c0.4-0.3,1.1-0.4,1.9-0.4
		c0.4,0,0.7,0.1,0.9,0.2c0.2,0.1,0.3,0.3,0.3,0.6c0,0.3-0.2,1.1-0.5,2.3c-0.2,0.9-0.4,1.6-0.5,2.3c-0.1,0.6-0.2,1.4-0.3,2.4
		c0.6-1.7,1.3-3.1,2.1-4.3c0.8-1.2,1.6-2,2.5-2.6c0.9-0.6,1.7-0.9,2.4-0.9c0.8,0,1.3,0.2,1.6,0.5c0.3,0.3,0.5,0.9,0.5,1.6
		c0,0.7-0.2,2-0.6,3.8c-0.2,0.8-0.3,1.4-0.4,1.8c1.1-2.7,2.3-4.6,3.6-5.8c1.3-1.2,2.6-1.8,3.7-1.8c1.4,0,2.1,0.7,2.1,2.1
		c0,0.8-0.2,2.4-0.7,4.6c-0.4,1.9-0.6,3.1-0.6,3.7c0,0.9,0.3,1.3,0.9,1.3c0.4,0,0.9-0.3,1.5-0.8c0.6-0.5,1.4-1.4,2.4-2.6
		c0.3-0.3,0.6-0.5,0.9-0.5c0.3,0,0.5,0.1,0.7,0.4c0.2,0.3,0.2,0.6,0.2,1.1c0,0.9-0.2,1.5-0.6,2c-0.9,1.2-1.9,2.1-3,2.8
		s-2.3,1.1-3.7,1.1c-1.1,0-1.9-0.3-2.5-1c-0.6-0.6-0.8-1.6-0.8-2.8c0-0.6,0.2-1.7,0.5-3.3c0.3-1.4,0.4-2.3,0.4-2.8
		c0-0.3-0.1-0.5-0.4-0.5c-0.3,0-0.7,0.4-1.2,1.1s-1,1.7-1.6,2.9c-0.5,1.2-0.9,2.5-1.3,3.8c-0.2,1-0.5,1.7-0.8,2.1
		c-0.3,0.3-0.8,0.5-1.5,0.5c-0.7,0-1.3-0.3-1.6-1c-0.4-0.7-0.5-1.5-0.5-2.5c0-0.8,0.1-2,0.3-3.6c0.2-1.4,0.3-2.3,0.3-2.7
		c0-0.3-0.1-0.5-0.4-0.5c-0.3,0-0.7,0.4-1.2,1.2c-0.5,0.8-1,1.8-1.4,3c-0.5,1.2-0.8,2.4-1.1,3.6c-0.2,1-0.5,1.7-0.8,2.1
		c-0.3,0.4-0.8,0.5-1.5,0.5C93.9,131.8,93.3,131.4,93,130.5z"/>
	<path class="st0" d="M117.4,130.4c-0.8-1-1.2-2.3-1.2-3.8c0-1.7,0.4-3.4,1.2-4.9c0.8-1.6,1.9-2.8,3.2-3.7c1.3-0.9,2.8-1.4,4.2-1.4
		c0.5,0,0.8,0.1,1,0.3c0.2,0.2,0.3,0.5,0.4,1c0.5-0.1,0.9-0.1,1.4-0.1c1.1,0,1.6,0.4,1.6,1.1c0,0.5-0.2,1.5-0.5,3.3
		c-0.5,2.5-0.7,4.2-0.7,5.2c0,0.3,0.1,0.6,0.2,0.8c0.2,0.2,0.4,0.3,0.6,0.3c0.4,0,0.9-0.3,1.5-0.8c0.6-0.5,1.4-1.4,2.4-2.6
		c0.3-0.3,0.6-0.5,0.9-0.5c0.3,0,0.5,0.1,0.7,0.4c0.2,0.3,0.2,0.6,0.2,1.1c0,0.9-0.2,1.5-0.6,2c-0.9,1.1-1.8,2-2.8,2.8
		c-1,0.8-2,1.1-2.9,1.1c-0.7,0-1.4-0.2-2-0.7c-0.6-0.5-1-1.2-1.4-2c-1.1,1.8-2.6,2.7-4.3,2.7C119.3,131.8,118.2,131.3,117.4,130.4z
		 M123.2,127.7c0.4-0.6,0.7-1.3,0.9-2.2l1.2-6c-0.9,0-1.8,0.4-2.5,1c-0.8,0.7-1.4,1.5-1.8,2.6s-0.7,2.2-0.7,3.5
		c0,0.7,0.1,1.2,0.4,1.5c0.3,0.3,0.6,0.5,1.1,0.5S122.7,128.2,123.2,127.7z"/>
	<path class="st0" d="M132.5,130.5c-0.3-0.9-0.5-2.3-0.5-4.2c0-2.8,0.4-5.5,1.2-8c0.2-0.6,0.5-1.1,1-1.4c0.4-0.3,1.1-0.4,1.9-0.4
		c0.4,0,0.7,0.1,0.9,0.2c0.2,0.1,0.3,0.3,0.3,0.6c0,0.3-0.2,1.1-0.5,2.3c-0.2,0.9-0.4,1.6-0.5,2.3c-0.1,0.7-0.2,1.5-0.3,2.4
		c0.7-1.9,1.5-3.4,2.4-4.6c0.9-1.2,1.8-2,2.6-2.5c0.9-0.5,1.6-0.7,2.4-0.7c1.4,0,2.1,0.7,2.1,2.1c0,0.3-0.1,1-0.3,2.1
		c-0.2,0.9-0.3,1.4-0.3,1.6c0,0.8,0.3,1.1,0.8,1.1c0.6,0,1.4-0.5,2.3-1.4c0.3-0.3,0.6-0.4,0.9-0.4c0.3,0,0.5,0.1,0.7,0.4
		c0.2,0.2,0.2,0.6,0.2,1c0,0.8-0.2,1.4-0.7,1.9c-0.6,0.6-1.3,1.2-2.1,1.6c-0.8,0.4-1.7,0.7-2.6,0.7c-1.2,0-2-0.3-2.6-0.9
		c-0.6-0.6-0.9-1.4-0.9-2.4c0-0.3,0-0.7,0.1-1c0-0.4,0.1-0.7,0.1-0.9c0-0.3-0.1-0.5-0.4-0.5c-0.3,0-0.8,0.4-1.3,1.1
		c-0.5,0.7-1.1,1.7-1.6,2.9c-0.5,1.2-0.9,2.5-1.3,3.8c-0.2,1-0.5,1.7-0.8,2.1c-0.3,0.4-0.8,0.5-1.5,0.5
		C133.4,131.8,132.8,131.4,132.5,130.5z"/>
	<path class="st0" d="M147.7,130.3c-0.6-1-1-2.3-1-4c0-1,0.1-2.2,0.4-3.8c0.2-1.5,0.6-3,1-4.3c0.2-0.7,0.5-1.2,0.8-1.4
		s0.8-0.4,1.6-0.4c1.1,0,1.7,0.4,1.7,1.1c0,0.5-0.2,1.8-0.6,3.8c-0.5,2.4-0.8,4-0.8,4.9c0,0.7,0.1,1.2,0.3,1.5
		c0.2,0.3,0.5,0.5,0.9,0.5c0.4,0,0.9-0.3,1.5-0.8c0.6-0.5,1.4-1.4,2.3-2.6c0.3-0.3,0.6-0.5,0.9-0.5c0.3,0,0.5,0.1,0.7,0.4
		c0.2,0.3,0.2,0.6,0.2,1.1c0,0.9-0.2,1.5-0.6,2c-2.1,2.6-4.2,3.9-6,3.9C149.3,131.8,148.3,131.3,147.7,130.3z M149,113.7
		c-0.5-0.4-0.7-1-0.7-1.8s0.3-1.4,0.9-1.9c0.6-0.5,1.3-0.8,2.2-0.8c0.8,0,1.5,0.2,2,0.6c0.5,0.4,0.7,0.9,0.7,1.7
		c0,0.9-0.3,1.6-0.8,2.1c-0.6,0.5-1.3,0.8-2.2,0.8C150.1,114.3,149.4,114.1,149,113.7z"/>
	<path class="st0" d="M155.3,130.5c-0.3-0.9-0.5-2.3-0.5-4.2c0-2.8,0.4-5.5,1.2-8c0.2-0.6,0.5-1.1,1-1.4c0.4-0.3,1.1-0.4,1.9-0.4
		c0.4,0,0.7,0.1,0.9,0.2c0.2,0.1,0.3,0.3,0.3,0.6c0,0.3-0.2,1.1-0.5,2.3c-0.2,0.9-0.4,1.6-0.5,2.3c-0.1,0.7-0.2,1.5-0.3,2.4
		c0.7-1.9,1.5-3.4,2.4-4.6c0.9-1.2,1.8-2,2.6-2.5c0.9-0.5,1.6-0.7,2.4-0.7c1.4,0,2.1,0.7,2.1,2.1c0,0.8-0.2,2.4-0.7,4.6
		c-0.4,1.9-0.6,3.1-0.6,3.7c0,0.9,0.3,1.3,0.9,1.3c0.4,0,0.9-0.3,1.5-0.8c0.6-0.5,1.4-1.4,2.4-2.6c0.3-0.3,0.6-0.5,0.9-0.5
		c0.3,0,0.5,0.1,0.7,0.4c0.2,0.3,0.2,0.6,0.2,1.1c0,0.9-0.2,1.5-0.6,2c-0.9,1.2-1.9,2.1-3,2.8s-2.3,1.1-3.7,1.1
		c-1.1,0-1.9-0.3-2.5-1c-0.6-0.6-0.8-1.6-0.8-2.8c0-0.6,0.2-1.7,0.5-3.3c0.3-1.4,0.4-2.3,0.4-2.8c0-0.3-0.1-0.5-0.4-0.5
		c-0.3,0-0.7,0.4-1.2,1.1c-0.5,0.7-1,1.7-1.6,2.9c-0.5,1.2-1,2.5-1.3,3.8c-0.2,1-0.5,1.7-0.8,2.1c-0.3,0.4-0.8,0.5-1.5,0.5
		C156.3,131.8,155.7,131.4,155.3,130.5z"/>
	<path class="st0" d="M171.8,130.3c-0.6-1-1-2.3-1-4c0-1,0.1-2.2,0.4-3.8c0.2-1.5,0.6-3,1-4.3c0.2-0.7,0.5-1.2,0.8-1.4
		s0.8-0.4,1.6-0.4c1.1,0,1.7,0.4,1.7,1.1c0,0.5-0.2,1.8-0.6,3.8c-0.5,2.4-0.8,4-0.8,4.9c0,0.7,0.1,1.2,0.3,1.5
		c0.2,0.3,0.5,0.5,0.9,0.5c0.4,0,0.9-0.3,1.5-0.8c0.6-0.5,1.4-1.4,2.3-2.6c0.3-0.3,0.6-0.5,0.9-0.5c0.3,0,0.5,0.1,0.7,0.4
		c0.2,0.3,0.2,0.6,0.2,1.1c0,0.9-0.2,1.5-0.6,2c-2.1,2.6-4.2,3.9-6,3.9C173.5,131.8,172.5,131.3,171.8,130.3z M173.1,113.7
		c-0.5-0.4-0.7-1-0.7-1.8s0.3-1.4,0.9-1.9c0.6-0.5,1.3-0.8,2.2-0.8c0.8,0,1.5,0.2,2,0.6c0.5,0.4,0.7,0.9,0.7,1.7
		c0,0.9-0.3,1.6-0.8,2.1c-0.6,0.5-1.3,0.8-2.2,0.8C174.3,114.3,173.6,114.1,173.1,113.7z"/>
	<path class="st0" d="M179.5,130.5c-0.3-0.9-0.5-2.3-0.5-4.2c0-2.8,0.4-5.5,1.2-8c0.2-0.6,0.5-1.1,1-1.4c0.4-0.3,1.1-0.4,1.9-0.4
		c0.4,0,0.7,0.1,0.9,0.2c0.2,0.1,0.3,0.3,0.3,0.6c0,0.3-0.2,1.1-0.5,2.3c-0.2,0.9-0.4,1.6-0.5,2.3c-0.1,0.7-0.2,1.5-0.3,2.4
		c0.7-1.9,1.5-3.4,2.4-4.6c0.9-1.2,1.8-2,2.6-2.5c0.9-0.5,1.6-0.7,2.4-0.7c1.4,0,2.1,0.7,2.1,2.1c0,0.3-0.1,1-0.3,2.1
		c-0.2,0.9-0.3,1.4-0.3,1.6c0,0.8,0.3,1.1,0.8,1.1c0.6,0,1.4-0.5,2.3-1.4c0.3-0.3,0.6-0.4,0.9-0.4c0.3,0,0.5,0.1,0.7,0.4
		c0.2,0.2,0.2,0.6,0.2,1c0,0.8-0.2,1.4-0.7,1.9c-0.6,0.6-1.3,1.2-2.1,1.6c-0.8,0.4-1.7,0.7-2.6,0.7c-1.2,0-2-0.3-2.6-0.9
		c-0.6-0.6-0.9-1.4-0.9-2.4c0-0.3,0-0.7,0.1-1c0-0.4,0.1-0.7,0.1-0.9c0-0.3-0.1-0.5-0.4-0.5c-0.3,0-0.8,0.4-1.3,1.1
		c-0.5,0.7-1.1,1.7-1.6,2.9c-0.5,1.2-0.9,2.5-1.3,3.8c-0.2,1-0.5,1.7-0.8,2.1c-0.3,0.4-0.8,0.5-1.5,0.5
		C180.4,131.8,179.8,131.4,179.5,130.5z"/>
	<path class="st0" d="M194.5,130.4c-0.8-1-1.2-2.3-1.2-3.8c0-1.7,0.4-3.4,1.2-4.9c0.8-1.6,1.9-2.8,3.2-3.7c1.3-0.9,2.8-1.4,4.2-1.4
		c0.5,0,0.8,0.1,1,0.3c0.2,0.2,0.3,0.5,0.4,1c0.5-0.1,0.9-0.1,1.4-0.1c1.1,0,1.6,0.4,1.6,1.1c0,0.5-0.2,1.5-0.5,3.3
		c-0.5,2.5-0.7,4.2-0.7,5.2c0,0.3,0.1,0.6,0.2,0.8c0.2,0.2,0.4,0.3,0.6,0.3c0.4,0,0.9-0.3,1.5-0.8c0.6-0.5,1.4-1.4,2.4-2.6
		c0.3-0.3,0.6-0.5,0.9-0.5c0.3,0,0.5,0.1,0.7,0.4c0.2,0.3,0.2,0.6,0.2,1.1c0,0.9-0.2,1.5-0.6,2c-0.9,1.1-1.8,2-2.8,2.8
		c-1,0.8-2,1.1-2.9,1.1c-0.7,0-1.4-0.2-2-0.7c-0.6-0.5-1-1.2-1.4-2c-1.1,1.8-2.6,2.7-4.3,2.7C196.4,131.8,195.3,131.3,194.5,130.4z
		 M200.3,127.7c0.4-0.6,0.7-1.3,0.9-2.2l1.2-6c-0.9,0-1.8,0.4-2.5,1c-0.8,0.7-1.4,1.5-1.8,2.6s-0.7,2.2-0.7,3.5
		c0,0.7,0.1,1.2,0.4,1.5c0.3,0.3,0.6,0.5,1.1,0.5S199.9,128.2,200.3,127.7z"/>
	<path class="st0" d="M218.3,130.5c-0.3-0.9-0.5-2.3-0.5-4.2c0-2.8,0.4-5.5,1.2-8c0.2-0.6,0.5-1.1,1-1.4c0.4-0.3,1.1-0.4,1.9-0.4
		c0.4,0,0.7,0.1,0.9,0.2c0.2,0.1,0.3,0.3,0.3,0.6c0,0.3-0.2,1.1-0.5,2.3c-0.2,0.9-0.4,1.6-0.5,2.3c-0.1,0.6-0.2,1.4-0.3,2.4
		c0.6-1.7,1.3-3.1,2.1-4.3c0.8-1.2,1.6-2,2.5-2.6c0.9-0.6,1.7-0.9,2.4-0.9c0.8,0,1.3,0.2,1.6,0.5c0.3,0.3,0.5,0.9,0.5,1.6
		c0,0.7-0.2,2-0.6,3.8c-0.2,0.8-0.3,1.4-0.4,1.8c1.1-2.7,2.3-4.6,3.6-5.8c1.3-1.2,2.6-1.8,3.7-1.8c1.4,0,2.1,0.7,2.1,2.1
		c0,0.8-0.2,2.4-0.7,4.6c-0.4,1.9-0.6,3.1-0.6,3.7c0,0.9,0.3,1.3,0.9,1.3c0.4,0,0.9-0.3,1.5-0.8c0.6-0.5,1.4-1.4,2.4-2.6
		c0.3-0.3,0.6-0.5,0.9-0.5c0.3,0,0.5,0.1,0.7,0.4c0.2,0.3,0.2,0.6,0.2,1.1c0,0.9-0.2,1.5-0.6,2c-0.9,1.2-1.9,2.1-3,2.8
		s-2.3,1.1-3.7,1.1c-1.1,0-1.9-0.3-2.5-1c-0.6-0.6-0.8-1.6-0.8-2.8c0-0.6,0.2-1.7,0.5-3.3c0.3-1.4,0.4-2.3,0.4-2.8
		c0-0.3-0.1-0.5-0.4-0.5c-0.3,0-0.7,0.4-1.2,1.1s-1,1.7-1.6,2.9c-0.5,1.2-0.9,2.5-1.3,3.8c-0.2,1-0.5,1.7-0.8,2.1
		c-0.3,0.3-0.8,0.5-1.5,0.5c-0.7,0-1.3-0.3-1.6-1c-0.4-0.7-0.5-1.5-0.5-2.5c0-0.8,0.1-2,0.3-3.6c0.2-1.4,0.3-2.3,0.3-2.7
		c0-0.3-0.1-0.5-0.4-0.5c-0.3,0-0.7,0.4-1.2,1.2c-0.5,0.8-1,1.8-1.4,3c-0.5,1.2-0.8,2.4-1.1,3.6c-0.2,1-0.5,1.7-0.8,2.1
		c-0.3,0.4-0.8,0.5-1.5,0.5C219.2,131.8,218.6,131.4,218.3,130.5z"/>
	<path class="st0" d="M257.1,124.8c0.2,0.3,0.2,0.6,0.2,1.1c0,0.9-0.2,1.5-0.6,2c-0.8,1-1.9,1.9-3.4,2.7c-1.5,0.8-3,1.2-4.7,1.2
		c-2.3,0-4-0.6-5.3-1.9c-1.3-1.2-1.9-2.9-1.9-5.1c0-1.5,0.3-2.9,0.9-4.2s1.5-2.3,2.6-3.1c1.1-0.8,2.4-1.1,3.8-1.1
		c1.3,0,2.3,0.4,3,1.1c0.8,0.7,1.1,1.8,1.1,3c0,1.5-0.5,2.8-1.6,3.9c-1.1,1.1-2.9,1.9-5.5,2.6c0.5,1,1.6,1.5,3.1,1.5
		c1,0,2.1-0.3,3.3-1c1.2-0.7,2.3-1.6,3.2-2.7c0.3-0.3,0.6-0.5,0.9-0.5C256.7,124.4,256.9,124.5,257.1,124.8z M246.2,121.1
		c-0.6,0.9-0.8,2.1-0.8,3.4v0.1c1.3-0.3,2.3-0.8,3-1.4c0.7-0.6,1.1-1.3,1.1-2.1c0-0.4-0.1-0.7-0.3-1c-0.2-0.2-0.5-0.4-0.9-0.4
		C247.4,119.7,246.8,120.1,246.2,121.1z"/>
	<path class="st0" d="M258.2,131.8c-0.6-0.5-0.9-1.1-0.9-1.8c0-0.6,0.2-1.1,0.6-1.5c0.4-0.4,1-0.6,1.8-0.6c0.3,0,0.6,0,1,0.1
		c0.4,0.1,0.7,0.1,0.9,0.1c0-0.6-0.1-1.1-0.4-1.6c-0.2-0.5-0.5-1-0.9-1.4c-0.3-0.5-0.7-0.9-1-1.2c-0.7,1.3-1.3,2.3-2,3.2
		c-0.7,0.8-1.4,1.7-2.2,2.4c-0.4,0.4-0.8,0.6-1.2,0.6c-0.3,0-0.6-0.1-0.8-0.4c-0.2-0.2-0.3-0.6-0.3-0.9c0-0.4,0.2-0.8,0.5-1.2
		l0.4-0.5c1.2-1.5,2.1-2.7,2.7-3.6c0.4-0.6,0.8-1.5,1.3-2.5c0.5-1.1,1-2.1,1.5-3.3c0.4-1,1.3-1.4,2.6-1.4c0.6,0,1,0.1,1.3,0.2
		s0.4,0.3,0.4,0.5c0,0.1,0,0.3-0.1,0.6c-0.1,0.3-0.2,0.6-0.4,0.8c-0.4,0.8-0.6,1.4-0.6,2c0,0.3,0.1,0.7,0.3,1.1
		c0.2,0.4,0.6,0.9,1.1,1.5c0.7,0.9,1.2,1.7,1.6,2.3c0.4,0.6,0.5,1.3,0.5,2.1c0,0.2,0,0.5-0.1,0.9c1.1-0.4,2.3-1.5,3.7-3.3
		c0.3-0.3,0.6-0.5,0.9-0.5c0.3,0,0.5,0.1,0.7,0.4c0.2,0.3,0.2,0.6,0.2,1.1c0,0.8-0.2,1.5-0.6,2c-1.1,1.3-2.1,2.3-3.1,2.8
		c-1,0.5-2.2,0.8-3.7,0.8c-0.9,0.7-1.9,1.1-3.1,1.1C259.6,132.5,258.8,132.3,258.2,131.8z"/>
	<path class="st0" d="M285.9,122.1c0.2,0.3,0.2,0.6,0.2,1.1c0,1-0.3,1.7-0.9,1.9c-1.3,0.5-2.7,0.7-4.3,0.8c-0.4,1.8-1.2,3.3-2.4,4.4
		s-2.6,1.6-4.1,1.6c-1.3,0-2.4-0.3-3.3-0.9s-1.6-1.5-2.1-2.5c-0.5-1-0.7-2.2-0.7-3.4c0-1.6,0.3-3.1,0.9-4.4c0.6-1.3,1.5-2.3,2.6-3
		s2.3-1.1,3.7-1.1c1.7,0,3,0.6,4,1.7s1.6,2.5,1.8,4.2c1-0.1,2.2-0.3,3.6-0.7c0.2,0,0.3-0.1,0.5-0.1
		C285.5,121.7,285.7,121.8,285.9,122.1z M276.4,127.5c0.5-0.6,0.9-1.4,1-2.4c-0.7-0.5-1.2-1.1-1.5-1.8s-0.5-1.5-0.5-2.3
		c0-0.3,0-0.7,0.1-1h-0.2c-0.9,0-1.6,0.4-2.2,1.3c-0.6,0.8-0.9,2-0.9,3.5c0,1.2,0.2,2.1,0.7,2.7c0.5,0.6,1,0.9,1.6,0.9
		C275.2,128.4,275.8,128.1,276.4,127.5z"/>
	<path class="st0" d="M310,124.8c0.2,0.3,0.2,0.6,0.2,1.1c0,0.9-0.2,1.5-0.6,2c-0.9,1.2-1.9,2.1-3,2.8c-1.1,0.7-2.3,1.1-3.7,1.1
		c-1.2,0-2.1-0.4-2.8-1.2c-1.2,0.8-2.5,1.2-3.9,1.2c-0.3,4.2-0.9,7.7-1.9,10.5c-1,2.8-2.5,4.2-4.4,4.2c-1.2,0-2-0.4-2.6-1.3
		c-0.6-0.8-0.8-2-0.8-3.5c0-2.1,0.5-4.6,1.5-7.4c1-2.8,2.5-6,4.5-9.4c0-3.2,0-5.4-0.1-6.6c0-0.6,0.2-1.1,0.7-1.5
		c0.5-0.4,1.2-0.6,2-0.6c0.5,0,0.8,0.1,1,0.3s0.3,0.5,0.3,1.1c0,0.5,0,0.9,0,1.2c0.7-0.9,1.4-1.5,2.1-1.9s1.4-0.6,2.1-0.6
		c1.2,0,2.2,0.5,3,1.5c0.8,1,1.2,2.3,1.2,3.8c0,1.2-0.2,2.3-0.6,3.4c-0.4,1.1-0.9,2.1-1.5,3c0.5,0.1,0.8,0.2,1.1,0.2
		c0.7,0,1.4-0.3,2.1-0.8c0.7-0.5,1.5-1.4,2.5-2.6c0.3-0.3,0.6-0.5,0.9-0.5C309.6,124.4,309.8,124.5,310,124.8z M291.7,139.5
		c0.4-2.6,0.6-5.7,0.7-9.5c-0.9,2.2-1.7,4.2-2.2,6.2c-0.5,2-0.8,3.6-0.8,5c0,0.7,0.1,1.2,0.2,1.6c0.2,0.4,0.4,0.6,0.6,0.6
		C290.8,143.3,291.3,142.1,291.7,139.5z M298.6,127.4c0.7-0.7,1.2-1.5,1.6-2.5c0.4-1,0.6-2.1,0.6-3.2c0-0.7-0.1-1.1-0.4-1.5
		c-0.3-0.3-0.6-0.5-1-0.5c-0.8,0-1.7,0.8-2.8,2.5c0,1,0,2.4,0,4.2c0,1,0,1.8,0,2.3C297.2,128.5,297.9,128.1,298.6,127.4z"/>
	<path class="st0" d="M308.2,130.5c-0.3-0.9-0.5-2.3-0.5-4.2c0-2.8,0.4-5.5,1.2-8c0.2-0.6,0.5-1.1,1-1.4s1.1-0.4,1.9-0.4
		c0.4,0,0.7,0.1,0.9,0.2c0.2,0.1,0.3,0.3,0.3,0.6c0,0.3-0.2,1.1-0.5,2.3c-0.2,0.9-0.4,1.6-0.5,2.3c-0.1,0.7-0.2,1.5-0.3,2.4
		c0.7-1.9,1.5-3.4,2.4-4.6c0.9-1.2,1.8-2,2.6-2.5c0.9-0.5,1.6-0.7,2.4-0.7c1.4,0,2.1,0.7,2.1,2.1c0,0.3-0.1,1-0.3,2.1
		c-0.2,0.9-0.3,1.4-0.3,1.6c0,0.8,0.3,1.1,0.8,1.1c0.6,0,1.4-0.5,2.3-1.4c0.3-0.3,0.6-0.4,0.9-0.4c0.3,0,0.5,0.1,0.7,0.4
		c0.2,0.2,0.2,0.6,0.2,1c0,0.8-0.2,1.4-0.7,1.9c-0.6,0.6-1.3,1.2-2.1,1.6c-0.8,0.4-1.7,0.7-2.6,0.7c-1.2,0-2-0.3-2.6-0.9
		c-0.6-0.6-0.9-1.4-0.9-2.4c0-0.3,0-0.7,0.1-1c0-0.4,0.1-0.7,0.1-0.9c0-0.3-0.1-0.5-0.4-0.5c-0.3,0-0.8,0.4-1.3,1.1
		c-0.5,0.7-1.1,1.7-1.6,2.9c-0.5,1.2-0.9,2.5-1.3,3.8c-0.2,1-0.5,1.7-0.8,2.1c-0.3,0.4-0.8,0.5-1.5,0.5
		C309.1,131.8,308.5,131.4,308.2,130.5z"/>
	<path class="st0" d="M323.4,130.3c-0.6-1-1-2.3-1-4c0-1,0.1-2.2,0.4-3.8c0.2-1.5,0.6-3,1-4.3c0.2-0.7,0.5-1.2,0.8-1.4
		c0.3-0.3,0.8-0.4,1.6-0.4c1.1,0,1.7,0.4,1.7,1.1c0,0.5-0.2,1.8-0.6,3.8c-0.5,2.4-0.8,4-0.8,4.9c0,0.7,0.1,1.2,0.3,1.5
		c0.2,0.3,0.5,0.5,0.9,0.5c0.4,0,0.9-0.3,1.5-0.8c0.6-0.5,1.4-1.4,2.3-2.6c0.3-0.3,0.6-0.5,0.9-0.5c0.3,0,0.5,0.1,0.7,0.4
		c0.2,0.3,0.2,0.6,0.2,1.1c0,0.9-0.2,1.5-0.6,2c-2.1,2.6-4.2,3.9-6,3.9C325,131.8,324,131.3,323.4,130.3z M324.6,113.7
		c-0.5-0.4-0.7-1-0.7-1.8s0.3-1.4,0.9-1.9c0.6-0.5,1.3-0.8,2.2-0.8c0.8,0,1.5,0.2,2,0.6c0.5,0.4,0.7,0.9,0.7,1.7
		c0,0.9-0.3,1.6-0.8,2.1s-1.3,0.8-2.2,0.8C325.8,114.3,325.1,114.1,324.6,113.7z"/>
	<path class="st0" d="M340.5,124.9c0.2,0.3,0.2,0.6,0.2,1c0,0.5-0.1,0.9-0.2,1.2c-0.2,0.3-0.4,0.5-0.7,0.7c-1.5,1-3.5,2.4-6.1,4.1
		c-0.8,4.5-1.9,8.1-3.3,10.7c-1.3,2.6-3.1,3.9-5.1,3.9c-1.1,0-2-0.3-2.7-1s-1-1.6-1-2.7c0-1.5,0.6-3.2,1.8-4.9
		c1.2-1.7,3.4-3.9,6.7-6.5l0.2-1.7c0.3-2.1,0.5-4.1,0.7-6.2c0.1-1.2,0.3-2.9,0.6-5.2c0.1-0.6,0.3-1.1,0.7-1.4s1-0.4,1.8-0.4
		c0.7,0,1.1,0.1,1.3,0.3s0.3,0.5,0.3,0.8c0,1-0.4,3.8-1.1,8.3l-0.3,2.2c1.7-1.3,3.3-2.4,4.8-3.4c0.3-0.2,0.5-0.3,0.7-0.3
		C340.1,124.5,340.3,124.6,340.5,124.9z M327.4,141.4c0.7-1.3,1.3-3.3,1.9-6.2c-1.7,1.4-2.8,2.7-3.6,3.8s-1.1,2.1-1.1,3
		c0,0.8,0.3,1.3,0.9,1.3C326.1,143.3,326.8,142.7,327.4,141.4z M331.9,113.7c-0.5-0.4-0.7-1-0.7-1.8s0.3-1.4,0.9-1.9
		c0.6-0.5,1.3-0.8,2.2-0.8c0.8,0,1.5,0.2,2,0.6c0.5,0.4,0.7,0.9,0.7,1.7c0,0.9-0.3,1.6-0.8,2.1c-0.6,0.5-1.3,0.8-2.2,0.8
		C333,114.3,332.3,114.1,331.9,113.7z"/>
	<path class="st0" d="M353.9,124.8c0.2,0.3,0.2,0.6,0.2,1.1c0,0.9-0.2,1.5-0.6,2c-0.8,1-1.9,1.9-3.4,2.7c-1.5,0.8-3,1.2-4.7,1.2
		c-2.3,0-4-0.6-5.3-1.9c-1.3-1.2-1.9-2.9-1.9-5.1c0-1.5,0.3-2.9,0.9-4.2c0.6-1.3,1.5-2.3,2.6-3.1s2.4-1.1,3.8-1.1
		c1.3,0,2.3,0.4,3,1.1s1.1,1.8,1.1,3c0,1.5-0.5,2.8-1.6,3.9c-1.1,1.1-2.9,1.9-5.5,2.6c0.5,1,1.6,1.5,3.1,1.5c1,0,2.1-0.3,3.3-1
		c1.2-0.7,2.3-1.6,3.2-2.7c0.3-0.3,0.6-0.5,0.9-0.5C353.5,124.4,353.7,124.5,353.9,124.8z M343,121.1c-0.6,0.9-0.8,2.1-0.8,3.4v0.1
		c1.3-0.3,2.3-0.8,3-1.4c0.7-0.6,1.1-1.3,1.1-2.1c0-0.4-0.1-0.7-0.3-1c-0.2-0.2-0.5-0.4-0.9-0.4C344.2,119.7,343.5,120.1,343,121.1z
		"/>
	<path class="st0" d="M360.7,130.5c-0.3-0.9-0.5-2.3-0.5-4.2c0-2.8,0.4-5.5,1.2-8c0.2-0.6,0.5-1.1,1-1.4s1.1-0.4,1.9-0.4
		c0.4,0,0.7,0.1,0.9,0.2c0.2,0.1,0.3,0.3,0.3,0.6c0,0.3-0.2,1.1-0.5,2.3c-0.2,0.9-0.4,1.6-0.5,2.3c-0.1,0.7-0.2,1.5-0.3,2.4
		c0.7-1.9,1.5-3.4,2.4-4.6c0.9-1.2,1.8-2,2.6-2.5c0.9-0.5,1.6-0.7,2.4-0.7c1.4,0,2.1,0.7,2.1,2.1c0,0.3-0.1,1-0.3,2.1
		c-0.2,0.9-0.3,1.4-0.3,1.6c0,0.8,0.3,1.1,0.8,1.1c0.6,0,1.4-0.5,2.3-1.4c0.3-0.3,0.6-0.4,0.9-0.4c0.3,0,0.5,0.1,0.7,0.4
		c0.2,0.2,0.2,0.6,0.2,1c0,0.8-0.2,1.4-0.7,1.9c-0.6,0.6-1.3,1.2-2.1,1.6c-0.8,0.4-1.7,0.7-2.6,0.7c-1.2,0-2-0.3-2.6-0.9
		c-0.6-0.6-0.9-1.4-0.9-2.4c0-0.3,0-0.7,0.1-1c0-0.4,0.1-0.7,0.1-0.9c0-0.3-0.1-0.5-0.4-0.5c-0.3,0-0.8,0.4-1.3,1.1
		c-0.5,0.7-1.1,1.7-1.6,2.9c-0.5,1.2-0.9,2.5-1.3,3.8c-0.2,1-0.5,1.7-0.8,2.1c-0.3,0.4-0.8,0.5-1.5,0.5
		C361.6,131.8,361,131.4,360.7,130.5z"/>
	<path class="st0" d="M392.2,122.1c0.2,0.3,0.2,0.6,0.2,1.1c0,1-0.3,1.7-0.9,1.9c-1.3,0.5-2.7,0.7-4.3,0.8c-0.4,1.8-1.2,3.3-2.4,4.4
		s-2.6,1.6-4.1,1.6c-1.3,0-2.4-0.3-3.3-0.9s-1.6-1.5-2.1-2.5c-0.5-1-0.7-2.2-0.7-3.4c0-1.6,0.3-3.1,0.9-4.4c0.6-1.3,1.5-2.3,2.6-3
		s2.3-1.1,3.7-1.1c1.7,0,3,0.6,4,1.7s1.6,2.5,1.8,4.2c1-0.1,2.2-0.3,3.6-0.7c0.2,0,0.3-0.1,0.5-0.1
		C391.8,121.7,392.1,121.8,392.2,122.1z M382.7,127.5c0.5-0.6,0.9-1.4,1-2.4c-0.7-0.5-1.2-1.1-1.5-1.8s-0.5-1.5-0.5-2.3
		c0-0.3,0-0.7,0.1-1h-0.2c-0.9,0-1.6,0.4-2.2,1.3c-0.6,0.8-0.9,2-0.9,3.5c0,1.2,0.2,2.1,0.7,2.7c0.5,0.6,1,0.9,1.6,0.9
		C381.6,128.4,382.2,128.1,382.7,127.5z"/>
	<path class="st0" d="M395.4,131.8c-0.6-0.5-0.9-1.1-0.9-1.8c0-0.6,0.2-1.1,0.6-1.5c0.4-0.4,1-0.6,1.8-0.6c0.3,0,0.6,0,1,0.1
		c0.4,0.1,0.7,0.1,0.9,0.1c0-0.6-0.1-1.1-0.4-1.6c-0.2-0.5-0.5-1-0.9-1.4c-0.3-0.5-0.7-0.9-1-1.2c-0.7,1.3-1.3,2.3-2,3.2
		c-0.7,0.8-1.4,1.7-2.2,2.4c-0.4,0.4-0.8,0.6-1.2,0.6c-0.3,0-0.6-0.1-0.8-0.4c-0.2-0.2-0.3-0.6-0.3-0.9c0-0.4,0.2-0.8,0.5-1.2
		l0.4-0.5c1.2-1.5,2.1-2.7,2.7-3.6c0.4-0.6,0.8-1.5,1.3-2.5c0.5-1.1,1-2.1,1.5-3.3c0.4-1,1.3-1.4,2.6-1.4c0.6,0,1,0.1,1.3,0.2
		c0.2,0.1,0.4,0.3,0.4,0.5c0,0.1,0,0.3-0.1,0.6s-0.2,0.6-0.4,0.8c-0.4,0.8-0.6,1.4-0.6,2c0,0.3,0.1,0.7,0.3,1.1
		c0.2,0.4,0.6,0.9,1.1,1.5c0.7,0.9,1.2,1.7,1.6,2.3c0.4,0.6,0.5,1.3,0.5,2.1c0,0.2,0,0.5-0.1,0.9c1.1-0.4,2.3-1.5,3.7-3.3
		c0.3-0.3,0.6-0.5,0.9-0.5c0.3,0,0.5,0.1,0.7,0.4s0.2,0.6,0.2,1.1c0,0.8-0.2,1.5-0.6,2c-1.1,1.3-2.1,2.3-3.1,2.8
		c-1,0.5-2.2,0.8-3.7,0.8c-0.9,0.7-1.9,1.1-3.1,1.1C396.9,132.5,396,132.3,395.4,131.8z M397.3,113.8c-0.4-0.4-0.7-1-0.8-1.9
		l-1.4-5.9c-0.1-0.3-0.1-0.5-0.1-0.7c0-0.5,0.2-1,0.5-1.3c0.4-0.3,0.8-0.4,1.3-0.4c0.5,0,0.9,0.1,1.2,0.4c0.3,0.2,0.5,0.7,0.6,1.4
		l0.7,5.8l2.8-5.8c0.3-0.7,0.7-1.1,1-1.4c0.4-0.2,0.8-0.4,1.2-0.4s0.8,0.1,1.1,0.3s0.4,0.5,0.4,0.9c0,0.4-0.1,0.8-0.4,1.2l-3.6,6.3
		c-0.4,0.7-0.8,1.2-1.3,1.5c-0.5,0.3-1.1,0.5-1.7,0.5C398.2,114.4,397.7,114.2,397.3,113.8z"/>
	<path class="st0" d="M421,124.8c0.2,0.3,0.2,0.6,0.2,1.1c0,0.9-0.2,1.5-0.6,2c-0.9,1.2-2,2.1-3.1,2.8s-2.4,1.1-3.8,1.1
		c-4.4,0-6.6-3.1-6.6-9.3c0-1,0-1.9,0.1-2.9H406c-0.7,0-1.1-0.1-1.3-0.4c-0.2-0.2-0.3-0.6-0.3-1.1c0-1.2,0.5-1.8,1.5-1.8h1.9
		c0.4-2.4,0.9-4.6,1.7-6.5s1.7-3.5,2.8-4.7c1.1-1.2,2.2-1.8,3.5-1.8c0.9,0,1.6,0.4,2.1,1.2c0.5,0.8,0.8,1.8,0.8,3
		c0,3.4-1.4,6.3-4.2,8.8h3.6c0.3,0,0.6,0.1,0.7,0.2c0.2,0.2,0.2,0.4,0.2,0.8c0,1.5-1.2,2.2-3.7,2.2h-4c0,1.1-0.1,1.9-0.1,2.5
		c0,2.3,0.3,3.8,0.8,4.8c0.5,0.9,1.4,1.4,2.5,1.4c0.9,0,1.8-0.3,2.5-0.8c0.7-0.6,1.6-1.4,2.5-2.5c0.3-0.3,0.6-0.5,0.9-0.5
		C420.6,124.4,420.9,124.5,421,124.8z M413.6,107.6c-0.4,0.8-0.8,1.9-1.1,3.4s-0.7,3-0.9,4.8c1.3-1.1,2.2-2.4,2.9-3.7
		c0.6-1.4,1-2.6,1-3.8c0-1.3-0.2-1.9-0.7-1.9C414.3,106.4,414,106.8,413.6,107.6z"/>
	<path class="st0" d="M419.6,130.3c-0.6-1-1-2.3-1-4c0-1,0.1-2.2,0.4-3.8c0.2-1.5,0.6-3,1-4.3c0.2-0.7,0.5-1.2,0.8-1.4
		c0.3-0.3,0.8-0.4,1.6-0.4c1.1,0,1.7,0.4,1.7,1.1c0,0.5-0.2,1.8-0.6,3.8c-0.5,2.4-0.8,4-0.8,4.9c0,0.7,0.1,1.2,0.3,1.5
		c0.2,0.3,0.5,0.5,0.9,0.5c0.4,0,0.9-0.3,1.5-0.8c0.6-0.5,1.4-1.4,2.3-2.6c0.3-0.3,0.6-0.5,0.9-0.5c0.3,0,0.5,0.1,0.7,0.4
		c0.2,0.3,0.2,0.6,0.2,1.1c0,0.9-0.2,1.5-0.6,2c-2.1,2.6-4.2,3.9-6,3.9C421.2,131.8,420.2,131.3,419.6,130.3z M420.8,113.7
		c-0.5-0.4-0.7-1-0.7-1.8s0.3-1.4,0.9-1.9c0.6-0.5,1.3-0.8,2.2-0.8c0.8,0,1.5,0.2,2,0.6c0.5,0.4,0.7,0.9,0.7,1.7
		c0,0.9-0.3,1.6-0.8,2.1s-1.3,0.8-2.2,0.8C422,114.3,421.3,114.1,420.8,113.7z"/>
	<path class="st0" d="M439.7,124.8c0.2,0.3,0.2,0.6,0.2,1.1c0,0.9-0.2,1.5-0.6,2c-0.9,1.2-1.9,2.1-3,2.8c-1.1,0.7-2.3,1.1-3.7,1.1
		c-1.9,0-3.3-0.9-4.2-2.6c-0.9-1.7-1.4-4-1.4-6.7c0-2.6,0.3-5.7,1-9.1c0.7-3.4,1.7-6.3,3-8.7c1.3-2.4,2.9-3.6,4.8-3.6
		c1,0,1.9,0.5,2.5,1.5s0.9,2.4,0.9,4.2c0,2.6-0.7,5.6-2.1,9c-1.4,3.4-3.4,6.8-5.8,10.1c0.2,0.9,0.4,1.5,0.7,1.9
		c0.3,0.4,0.8,0.6,1.4,0.6c0.9,0,1.7-0.3,2.3-0.8c0.7-0.5,1.5-1.4,2.6-2.6c0.3-0.3,0.6-0.5,0.9-0.5
		C439.3,124.4,439.5,124.5,439.7,124.8z M433.3,107c-0.6,1.8-1.2,4-1.7,6.7c-0.5,2.7-0.7,5.2-0.8,7.7c1.5-2.5,2.8-5.1,3.7-7.6
		c0.9-2.6,1.4-4.9,1.4-7c0-1.7-0.3-2.5-0.9-2.5C434.5,104.3,433.9,105.2,433.3,107z"/>
	<path class="st0" d="M448.3,124.9c0.2,0.3,0.2,0.6,0.2,1c0,0.5-0.1,0.9-0.2,1.2c-0.2,0.3-0.4,0.5-0.7,0.7c-1.5,1-3.5,2.4-6.1,4.1
		c-0.8,4.5-1.9,8.1-3.3,10.7c-1.3,2.6-3.1,3.9-5.1,3.9c-1.1,0-2-0.3-2.7-1s-1-1.6-1-2.7c0-1.5,0.6-3.2,1.8-4.9
		c1.2-1.7,3.4-3.9,6.7-6.5l0.2-1.7c0.3-2.1,0.5-4.1,0.7-6.2c0.1-1.2,0.3-2.9,0.6-5.2c0.1-0.6,0.3-1.1,0.7-1.4s1-0.4,1.8-0.4
		c0.7,0,1.1,0.1,1.3,0.3s0.3,0.5,0.3,0.8c0,1-0.4,3.8-1.1,8.3l-0.3,2.2c1.7-1.3,3.3-2.4,4.8-3.4c0.3-0.2,0.5-0.3,0.7-0.3
		C447.9,124.5,448.1,124.6,448.3,124.9z M435.2,141.4c0.7-1.3,1.3-3.3,1.9-6.2c-1.7,1.4-2.8,2.7-3.6,3.8s-1.1,2.1-1.1,3
		c0,0.8,0.3,1.3,0.9,1.3C433.9,143.3,434.6,142.7,435.2,141.4z M439.7,113.7c-0.5-0.4-0.7-1-0.7-1.8s0.3-1.4,0.9-1.9
		c0.6-0.5,1.3-0.8,2.2-0.8c0.8,0,1.5,0.2,2,0.6c0.5,0.4,0.7,0.9,0.7,1.7c0,0.9-0.3,1.6-0.8,2.1c-0.6,0.5-1.3,0.8-2.2,0.8
		C440.8,114.3,440.1,114.1,439.7,113.7z"/>
	<path class="st0" d="M447,130.4c-0.8-1-1.2-2.3-1.2-3.8c0-1.7,0.4-3.4,1.2-4.9c0.8-1.6,1.9-2.8,3.2-3.7c1.3-0.9,2.8-1.4,4.3-1.4
		c0.5,0,0.8,0.1,1,0.3c0.2,0.2,0.3,0.5,0.4,1c0.5-0.1,0.9-0.1,1.4-0.1c1.1,0,1.6,0.4,1.6,1.1c0,0.5-0.2,1.5-0.5,3.3
		c-0.5,2.5-0.7,4.2-0.7,5.2c0,0.3,0.1,0.6,0.2,0.8c0.2,0.2,0.4,0.3,0.6,0.3c0.4,0,0.9-0.3,1.5-0.8c0.6-0.5,1.4-1.4,2.4-2.6
		c0.3-0.3,0.6-0.5,0.9-0.5c0.3,0,0.5,0.1,0.7,0.4s0.2,0.6,0.2,1.1c0,0.9-0.2,1.5-0.6,2c-0.9,1.1-1.8,2-2.8,2.8c-1,0.8-2,1.1-2.9,1.1
		c-0.7,0-1.4-0.2-2-0.7c-0.6-0.5-1-1.2-1.4-2c-1.1,1.8-2.6,2.7-4.3,2.7C448.8,131.8,447.8,131.3,447,130.4z M452.7,127.7
		c0.4-0.6,0.7-1.3,0.9-2.2l1.2-6c-0.9,0-1.8,0.4-2.5,1c-0.8,0.7-1.4,1.5-1.8,2.6c-0.5,1.1-0.7,2.2-0.7,3.5c0,0.7,0.1,1.2,0.4,1.5
		c0.3,0.3,0.6,0.5,1.1,0.5C451.8,128.5,452.3,128.2,452.7,127.7z"/>
	<path class="st0" d="M462.1,130.5c-0.3-0.9-0.5-2.3-0.5-4.2c0-2.8,0.4-5.5,1.2-8c0.2-0.6,0.5-1.1,1-1.4s1.1-0.4,1.9-0.4
		c0.4,0,0.7,0.1,0.9,0.2c0.2,0.1,0.3,0.3,0.3,0.6c0,0.3-0.2,1.1-0.5,2.3c-0.2,0.9-0.4,1.6-0.5,2.3c-0.1,0.7-0.2,1.5-0.3,2.4
		c0.7-1.9,1.5-3.4,2.4-4.6c0.9-1.2,1.8-2,2.6-2.5c0.9-0.5,1.6-0.7,2.4-0.7c1.4,0,2.1,0.7,2.1,2.1c0,0.8-0.2,2.4-0.7,4.6
		c-0.4,1.9-0.6,3.1-0.6,3.7c0,0.9,0.3,1.3,0.9,1.3c0.4,0,1-0.3,1.5-0.8c0.6-0.5,1.4-1.4,2.4-2.6c0.3-0.3,0.6-0.5,0.9-0.5
		c0.3,0,0.5,0.1,0.7,0.4s0.2,0.6,0.2,1.1c0,0.9-0.2,1.5-0.6,2c-0.9,1.2-1.9,2.1-3,2.8c-1.1,0.7-2.3,1.1-3.7,1.1
		c-1.1,0-1.9-0.3-2.5-1c-0.6-0.6-0.8-1.6-0.8-2.8c0-0.6,0.2-1.7,0.5-3.3c0.3-1.4,0.4-2.3,0.4-2.8c0-0.3-0.1-0.5-0.4-0.5
		c-0.3,0-0.7,0.4-1.2,1.1c-0.5,0.7-1,1.7-1.6,2.9c-0.5,1.2-1,2.5-1.3,3.8c-0.2,1-0.5,1.7-0.8,2.1c-0.3,0.4-0.8,0.5-1.5,0.5
		C463,131.8,462.4,131.4,462.1,130.5z"/>
	<path class="st0" d="M487.7,124.9c0.2,0.3,0.2,0.6,0.2,1c0,0.5-0.1,0.9-0.2,1.2c-0.2,0.3-0.4,0.5-0.7,0.7c-1.5,1-3.5,2.4-6.1,4.1
		c-0.8,4.5-1.9,8.1-3.3,10.7c-1.3,2.6-3.1,3.9-5.1,3.9c-1.1,0-2-0.3-2.7-1s-1-1.6-1-2.7c0-1.5,0.6-3.2,1.8-4.9
		c1.2-1.7,3.4-3.9,6.7-6.5l0.2-1.7c0.3-2.1,0.5-4.1,0.7-6.2c0.1-1.2,0.3-2.9,0.6-5.2c0.1-0.6,0.3-1.1,0.7-1.4s1-0.4,1.8-0.4
		c0.7,0,1.1,0.1,1.3,0.3s0.3,0.5,0.3,0.8c0,1-0.4,3.8-1.1,8.3l-0.3,2.2c1.7-1.3,3.3-2.4,4.8-3.4c0.3-0.2,0.5-0.3,0.7-0.3
		C487.3,124.5,487.5,124.6,487.7,124.9z M474.6,141.4c0.7-1.3,1.3-3.3,1.9-6.2c-1.7,1.4-2.8,2.7-3.6,3.8s-1.1,2.1-1.1,3
		c0,0.8,0.3,1.3,0.9,1.3C473.4,143.3,474,142.7,474.6,141.4z M479.1,113.7c-0.5-0.4-0.7-1-0.7-1.8s0.3-1.4,0.9-1.9
		c0.6-0.5,1.3-0.8,2.2-0.8c0.8,0,1.5,0.2,2,0.6c0.5,0.4,0.7,0.9,0.7,1.7c0,0.9-0.3,1.6-0.8,2.1c-0.6,0.5-1.3,0.8-2.2,0.8
		C480.2,114.3,479.5,114.1,479.1,113.7z"/>
	<path class="st0" d="M486.4,130.4c-0.8-1-1.2-2.3-1.2-3.8c0-1.7,0.4-3.4,1.2-4.9c0.8-1.6,1.9-2.8,3.2-3.7c1.3-0.9,2.8-1.4,4.3-1.4
		c0.5,0,0.8,0.1,1,0.3c0.2,0.2,0.3,0.5,0.4,1c0.5-0.1,0.9-0.1,1.4-0.1c1.1,0,1.6,0.4,1.6,1.1c0,0.5-0.2,1.5-0.5,3.3
		c-0.5,2.5-0.7,4.2-0.7,5.2c0,0.3,0.1,0.6,0.2,0.8c0.2,0.2,0.4,0.3,0.6,0.3c0.4,0,0.9-0.3,1.5-0.8c0.6-0.5,1.4-1.4,2.4-2.6
		c0.3-0.3,0.6-0.5,0.9-0.5c0.3,0,0.5,0.1,0.7,0.4s0.2,0.6,0.2,1.1c0,0.9-0.2,1.5-0.6,2c-0.9,1.1-1.8,2-2.8,2.8c-1,0.8-2,1.1-2.9,1.1
		c-0.7,0-1.4-0.2-2-0.7c-0.6-0.5-1-1.2-1.4-2c-1.1,1.8-2.6,2.7-4.3,2.7C488.3,131.8,487.2,131.3,486.4,130.4z M492.1,127.7
		c0.4-0.6,0.7-1.3,0.9-2.2l1.2-6c-0.9,0-1.8,0.4-2.5,1c-0.8,0.7-1.4,1.5-1.8,2.6c-0.5,1.1-0.7,2.2-0.7,3.5c0,0.7,0.1,1.2,0.4,1.5
		c0.3,0.3,0.6,0.5,1.1,0.5C491.2,128.5,491.7,128.2,492.1,127.7z"/>
	<path class="st0" d="M505.5,131c-0.5-0.5-0.7-1.2-0.7-2.1c0-1,0.3-1.8,0.8-2.3s1.3-0.9,2.3-0.9c1,0,1.7,0.2,2.2,0.7
		c0.5,0.5,0.7,1.2,0.7,2.1c0,1-0.3,1.8-0.8,2.4c-0.6,0.6-1.3,0.9-2.3,0.9C506.7,131.8,506,131.6,505.5,131z"/>
	<path class="st0" d="M11.7,170.4c-0.3-0.4-0.5-1-0.5-2c0-0.7,0.1-1.5,0.2-2.4c0.1-1,0.4-2.4,0.7-4.3c0-0.3,0.2-1.3,0.5-3.2
		s0.6-3.8,0.8-5.8c0.2-1.7,0.3-3,0.3-3.9c0-1-0.4-1.5-1.1-1.5c-0.5,0-1.2,0.3-2,0.9s-1.7,1.5-2.6,2.8c-0.3,0.4-0.6,0.6-1,0.6
		c-0.3,0-0.6-0.1-0.8-0.4c-0.2-0.3-0.3-0.6-0.3-1c0-0.4,0.1-0.7,0.2-1.1c0.1-0.3,0.4-0.7,0.7-1.2c1.1-1.5,2.2-2.6,3.5-3.4
		c1.3-0.8,2.7-1.2,4.1-1.2c1.2,0,2.1,0.4,2.7,1.1c0.6,0.7,0.9,1.8,0.9,3.2c0,1.3-0.2,3.1-0.5,5.5c1.1-3.2,2.5-5.7,4.1-7.3
		c1.7-1.7,3.6-2.5,5.9-2.5c1.8,0,3.1,0.5,4,1.5c0.9,1,1.4,2.4,1.4,4.1c0,1-0.1,2.1-0.4,3.5l-2,9.3c-0.2,1.1-0.3,2-0.3,2.8
		c0,0.9,0.2,1.6,0.6,2.1s1,0.7,1.8,0.7c0.7,0,1.4-0.2,2.1-0.7c0.7-0.5,1.5-1.3,2.4-2.4c0.3-0.3,0.6-0.5,0.9-0.5
		c0.3,0,0.5,0.1,0.7,0.4s0.2,0.6,0.2,1.1c0,0.8-0.2,1.5-0.6,2c-1.1,1.4-2.2,2.4-3.4,3s-2.3,0.9-3.5,0.9c-1.8,0-3.3-0.5-4.3-1.6
		c-1-1.1-1.6-2.6-1.6-4.4c0-0.7,0.1-1.5,0.2-2.3c0.1-0.8,0.3-1.9,0.6-3.2l1.3-6c0-0.2,0.1-0.5,0.2-1c0.1-0.5,0.2-1,0.3-1.4
		c0.1-0.4,0.1-0.9,0.1-1.3c0-0.7-0.2-1.2-0.6-1.7c-0.4-0.4-0.9-0.6-1.7-0.6c-1.3,0-2.6,0.7-3.9,2.1s-2.5,3.6-3.6,6.7
		c-1.1,3.1-2,7.1-2.6,11.9c-0.2,1.1-0.4,1.9-0.7,2.3c-0.3,0.4-0.9,0.7-1.7,0.7C12.6,170.9,12,170.7,11.7,170.4z"/>
	<path class="st0" d="M37.1,169.4c-0.6-1-1-2.3-1-4c0-1,0.1-2.2,0.4-3.8c0.2-1.5,0.6-3,1-4.3c0.2-0.7,0.5-1.2,0.8-1.4
		s0.8-0.4,1.6-0.4c1.1,0,1.7,0.4,1.7,1.1c0,0.5-0.2,1.8-0.6,3.8c-0.5,2.4-0.8,4-0.8,4.9c0,0.7,0.1,1.2,0.3,1.5
		c0.2,0.3,0.5,0.5,0.9,0.5c0.4,0,0.9-0.3,1.5-0.8c0.6-0.5,1.4-1.4,2.3-2.6c0.3-0.3,0.6-0.5,0.9-0.5c0.3,0,0.5,0.1,0.7,0.4
		c0.2,0.3,0.2,0.6,0.2,1.1c0,0.9-0.2,1.5-0.6,2c-2.1,2.6-4.2,3.9-6,3.9C38.8,170.9,37.8,170.4,37.1,169.4z M38.4,152.8
		c-0.5-0.4-0.7-1-0.7-1.8s0.3-1.4,0.9-1.9c0.6-0.5,1.3-0.8,2.2-0.8c0.8,0,1.5,0.2,2,0.6c0.5,0.4,0.7,0.9,0.7,1.7
		c0,0.9-0.3,1.6-0.8,2.1c-0.6,0.5-1.3,0.8-2.2,0.8C39.5,153.4,38.9,153.2,38.4,152.8z"/>
	<path class="st0" d="M54.2,163.9c0.2,0.3,0.2,0.6,0.2,1c0,0.5-0.1,0.9-0.2,1.2c-0.2,0.3-0.4,0.5-0.7,0.7c-1.5,1-3.5,2.4-6.1,4.1
		c-0.8,4.5-1.9,8.1-3.3,10.7c-1.3,2.6-3.1,3.9-5.1,3.9c-1.1,0-2-0.3-2.7-1s-1-1.6-1-2.7c0-1.5,0.6-3.2,1.8-4.9
		c1.2-1.7,3.4-3.9,6.7-6.5l0.2-1.7c0.3-2.1,0.5-4.1,0.7-6.2c0.1-1.2,0.3-2.9,0.6-5.2c0.1-0.6,0.3-1.1,0.7-1.4c0.4-0.3,1-0.4,1.8-0.4
		c0.7,0,1.1,0.1,1.3,0.3c0.2,0.2,0.3,0.5,0.3,0.8c0,1-0.4,3.8-1.1,8.3l-0.3,2.2c1.7-1.3,3.3-2.4,4.8-3.4c0.3-0.2,0.5-0.3,0.7-0.3
		C53.8,163.5,54,163.7,54.2,163.9z M41.2,180.5c0.7-1.3,1.3-3.3,1.9-6.2c-1.6,1.4-2.8,2.7-3.6,3.8c-0.7,1.1-1.1,2.1-1.1,3
		c0,0.8,0.3,1.3,0.9,1.3C39.9,182.4,40.5,181.8,41.2,180.5z M45.6,152.8c-0.5-0.4-0.7-1-0.7-1.8s0.3-1.4,0.9-1.9
		c0.6-0.5,1.3-0.8,2.2-0.8c0.8,0,1.5,0.2,2,0.6s0.7,0.9,0.7,1.7c0,0.9-0.3,1.6-0.8,2.1c-0.6,0.5-1.3,0.8-2.2,0.8
		C46.8,153.4,46.1,153.2,45.6,152.8z"/>
	<path class="st0" d="M67.7,163.9c0.2,0.3,0.2,0.6,0.2,1.1c0,0.9-0.2,1.5-0.6,2c-0.8,1-1.9,1.9-3.4,2.7c-1.5,0.8-3,1.2-4.7,1.2
		c-2.3,0-4-0.6-5.3-1.9c-1.3-1.2-1.9-2.9-1.9-5.1c0-1.5,0.3-2.9,0.9-4.2s1.5-2.3,2.6-3.1c1.1-0.8,2.4-1.1,3.8-1.1
		c1.3,0,2.3,0.4,3,1.1c0.8,0.7,1.1,1.8,1.1,3c0,1.5-0.5,2.8-1.6,3.9c-1.1,1.1-2.9,1.9-5.5,2.6c0.5,1,1.6,1.5,3.1,1.5
		c1,0,2.1-0.3,3.3-1c1.2-0.7,2.3-1.6,3.2-2.7c0.3-0.3,0.6-0.5,0.9-0.5C67.3,163.5,67.5,163.6,67.7,163.9z M56.8,160.2
		c-0.6,0.9-0.8,2.1-0.8,3.4v0.1c1.3-0.3,2.3-0.8,3-1.4c0.7-0.6,1.1-1.3,1.1-2.1c0-0.4-0.1-0.7-0.3-1c-0.2-0.2-0.5-0.4-0.9-0.4
		C58,158.8,57.3,159.2,56.8,160.2z"/>
	<path class="st0" d="M93.1,163.9c0.2,0.3,0.2,0.6,0.2,1.1c0,0.9-0.2,1.5-0.6,2c-0.9,1.1-1.9,2-2.9,2.8c-1.1,0.8-2.1,1.2-3.2,1.2
		c-1.7,0-2.9-1-3.8-2.9c-0.9,1.2-1.7,1.9-2.4,2.3c-0.7,0.4-1.5,0.6-2.4,0.6c-1.3,0-2.4-0.5-3.3-1.5c-0.9-1-1.3-2.3-1.3-3.9
		c0-1.7,0.4-3.3,1.1-4.8s1.8-2.7,3-3.6c1.3-0.9,2.7-1.5,4.3-1.7c0.4-4.2,1.2-7.8,2.4-10.8s2.7-4.5,4.6-4.5c0.9,0,1.7,0.4,2.3,1.3
		s0.9,2.1,0.9,3.8c0,2.4-0.6,5.3-1.8,8.5c-1.2,3.3-2.8,6.6-4.8,10c0.1,1.3,0.3,2.2,0.6,2.7c0.3,0.5,0.7,0.8,1.1,0.8
		c0.6,0,1.2-0.3,1.8-0.8c0.6-0.5,1.4-1.4,2.4-2.6c0.3-0.3,0.6-0.5,0.9-0.5C92.7,163.5,92.9,163.6,93.1,163.9z M80.4,167.1
		c0.4-0.3,0.9-1,1.6-1.9c-0.2-1.2-0.3-2.5-0.3-3.9c0-0.5,0-1.4,0.1-2.5c-1.2,0.4-2.2,1.2-3,2.4c-0.8,1.2-1.2,2.6-1.2,4.1
		c0,1.6,0.5,2.4,1.6,2.4C79.6,167.6,80,167.4,80.4,167.1z M87.3,145.5c-0.4,1.5-0.8,3.4-1.1,5.7c-0.3,2.4-0.5,4.8-0.6,7.4
		c2.4-5.3,3.6-9.6,3.6-12.8c0-0.8-0.1-1.5-0.2-1.9c-0.1-0.5-0.3-0.7-0.5-0.7C88.1,143.3,87.7,144,87.3,145.5z"/>
	<path class="st0" d="M107.9,161.2c0.2,0.3,0.2,0.6,0.2,1.1c0,1-0.3,1.7-0.9,1.9c-1.3,0.5-2.7,0.7-4.3,0.8c-0.4,1.8-1.2,3.3-2.4,4.4
		c-1.2,1.1-2.6,1.6-4.1,1.6c-1.3,0-2.4-0.3-3.3-0.9c-0.9-0.6-1.6-1.5-2.1-2.5c-0.5-1-0.7-2.2-0.7-3.4c0-1.6,0.3-3.1,0.9-4.4
		c0.6-1.3,1.5-2.3,2.6-3c1.1-0.7,2.3-1.1,3.7-1.1c1.6,0,3,0.6,4,1.7c1,1.1,1.6,2.5,1.8,4.2c1-0.1,2.2-0.3,3.6-0.7
		c0.2,0,0.3-0.1,0.5-0.1C107.6,160.7,107.8,160.9,107.9,161.2z M98.4,166.6c0.5-0.6,0.9-1.4,1-2.4c-0.7-0.5-1.2-1.1-1.5-1.8
		s-0.5-1.5-0.5-2.3c0-0.3,0-0.7,0.1-1h-0.2c-0.9,0-1.6,0.4-2.2,1.3c-0.6,0.8-0.9,2-0.9,3.5c0,1.2,0.2,2.1,0.7,2.7
		c0.5,0.6,1,0.9,1.6,0.9C97.3,167.5,97.9,167.2,98.4,166.6z"/>
	<path class="st0" d="M122.1,160.8c0.3,0,0.6,0.1,0.7,0.3c0.2,0.2,0.3,0.5,0.3,0.9c0,0.7-0.1,1.2-0.4,1.6s-0.7,0.7-1.2,0.8
		c-1,0.3-2.1,0.5-3.2,0.5c-1,0-1.9-0.1-2.7-0.4c-0.6,1-1.3,2.1-2.1,3.2c-0.9,1.2-1.6,2.1-2.2,2.5c-0.6,0.5-1.3,0.7-2.1,0.7
		c-0.9,0-1.6-0.3-2.1-1c-0.5-0.7-0.8-1.8-1-3.3c-0.3-3-0.4-5.7-0.4-8v-1.1c0-0.7,0.2-1.2,0.6-1.5c0.4-0.3,0.9-0.4,1.7-0.4
		c0.6,0,1,0.1,1.3,0.4s0.4,0.7,0.4,1.3c0,2.5,0.2,5.7,0.5,9.7c1.3-1.9,2.3-3.5,2.9-4.6c-0.3-0.6-0.5-1.4-0.5-2.2
		c0-0.7,0.2-1.5,0.5-2.1c0.3-0.7,0.8-1.3,1.3-1.7c0.6-0.4,1.2-0.7,1.9-0.7c0.6,0,1.1,0.2,1.5,0.7c0.4,0.4,0.6,1.1,0.6,1.9
		c0,1-0.3,2.1-0.8,3.4c0.8,0,1.9-0.2,3.3-0.5l0.9-0.2C121.9,160.8,122,160.8,122.1,160.8z"/>
	<path class="st0" d="M137.6,161.2c0.2,0.3,0.2,0.6,0.2,1.1c0,1-0.3,1.7-0.9,1.9c-1.3,0.5-2.7,0.7-4.3,0.8c-0.4,1.8-1.2,3.3-2.4,4.4
		c-1.2,1.1-2.6,1.6-4.1,1.6c-1.3,0-2.4-0.3-3.3-0.9c-0.9-0.6-1.6-1.5-2.1-2.5c-0.5-1-0.7-2.2-0.7-3.4c0-1.6,0.3-3.1,0.9-4.4
		c0.6-1.3,1.5-2.3,2.6-3c1.1-0.7,2.3-1.1,3.7-1.1c1.6,0,3,0.6,4,1.7c1,1.1,1.6,2.5,1.8,4.2c1-0.1,2.2-0.3,3.6-0.7
		c0.2,0,0.3-0.1,0.5-0.1C137.2,160.7,137.4,160.9,137.6,161.2z M128,166.6c0.5-0.6,0.9-1.4,1-2.4c-0.7-0.5-1.2-1.1-1.5-1.8
		s-0.5-1.5-0.5-2.3c0-0.3,0-0.7,0.1-1h-0.2c-0.9,0-1.6,0.4-2.2,1.3c-0.6,0.8-0.9,2-0.9,3.5c0,1.2,0.2,2.1,0.7,2.7
		c0.5,0.6,1,0.9,1.6,0.9C126.9,167.5,127.5,167.2,128,166.6z"/>
	<path class="st0" d="M148,163.9c0.2,0.3,0.2,0.6,0.2,1.1c0,0.9-0.2,1.5-0.6,2c-0.9,1.2-1.9,2.1-3,2.8c-1.1,0.7-2.3,1.1-3.7,1.1
		c-1.9,0-3.3-0.9-4.3-2.6s-1.4-4-1.4-6.7c0-2.6,0.3-5.7,1-9.1c0.7-3.4,1.7-6.3,3-8.7s2.9-3.6,4.8-3.6c1,0,1.9,0.5,2.5,1.5
		c0.6,1,0.9,2.4,0.9,4.2c0,2.6-0.7,5.6-2.1,9c-1.4,3.4-3.4,6.8-5.8,10.1c0.2,0.9,0.4,1.5,0.7,1.9c0.3,0.4,0.8,0.6,1.4,0.6
		c0.9,0,1.7-0.3,2.3-0.8c0.7-0.5,1.5-1.4,2.6-2.6c0.3-0.3,0.6-0.5,0.9-0.5C147.6,163.5,147.8,163.6,148,163.9z M141.6,146.1
		c-0.6,1.8-1.2,4-1.7,6.7c-0.5,2.7-0.7,5.2-0.8,7.7c1.5-2.5,2.8-5.1,3.7-7.6c0.9-2.6,1.4-4.9,1.4-7c0-1.7-0.3-2.5-0.9-2.5
		C142.8,143.3,142.3,144.2,141.6,146.1z"/>
	<path class="st0" d="M156.6,163.9c0.2,0.3,0.2,0.6,0.2,1c0,0.5-0.1,0.9-0.2,1.2c-0.2,0.3-0.4,0.5-0.7,0.7c-1.5,1-3.5,2.4-6.1,4.1
		c-0.8,4.5-1.9,8.1-3.3,10.7c-1.3,2.6-3.1,3.9-5.1,3.9c-1.1,0-2-0.3-2.7-1s-1-1.6-1-2.7c0-1.5,0.6-3.2,1.8-4.9
		c1.2-1.7,3.4-3.9,6.7-6.5l0.2-1.7c0.3-2.1,0.5-4.1,0.7-6.2c0.1-1.2,0.3-2.9,0.6-5.2c0.1-0.6,0.3-1.1,0.7-1.4c0.4-0.3,1-0.4,1.8-0.4
		c0.7,0,1.1,0.1,1.3,0.3c0.2,0.2,0.3,0.5,0.3,0.8c0,1-0.4,3.8-1.1,8.3l-0.3,2.2c1.7-1.3,3.3-2.4,4.8-3.4c0.3-0.2,0.5-0.3,0.7-0.3
		C156.2,163.5,156.4,163.7,156.6,163.9z M143.6,180.5c0.7-1.3,1.3-3.3,1.9-6.2c-1.6,1.4-2.8,2.7-3.6,3.8c-0.7,1.1-1.1,2.1-1.1,3
		c0,0.8,0.3,1.3,0.9,1.3C142.3,182.4,142.9,181.8,143.6,180.5z M148,152.8c-0.5-0.4-0.7-1-0.7-1.8s0.3-1.4,0.9-1.9
		c0.6-0.5,1.3-0.8,2.2-0.8c0.8,0,1.5,0.2,2,0.6s0.7,0.9,0.7,1.7c0,0.9-0.3,1.6-0.8,2.1c-0.6,0.5-1.3,0.8-2.2,0.8
		C149.2,153.4,148.5,153.2,148,152.8z"/>
	<path class="st0" d="M155.1,169.6c-0.3-0.9-0.5-2.3-0.5-4.2c0-2.8,0.4-5.5,1.2-8c0.2-0.6,0.5-1.1,1-1.4c0.4-0.3,1.1-0.4,1.9-0.4
		c0.4,0,0.7,0.1,0.9,0.2c0.2,0.1,0.3,0.3,0.3,0.6c0,0.3-0.2,1.1-0.5,2.3c-0.2,0.9-0.4,1.6-0.5,2.3c-0.1,0.7-0.2,1.5-0.3,2.4
		c0.7-1.9,1.5-3.4,2.4-4.6c0.9-1.2,1.8-2,2.6-2.5c0.9-0.5,1.6-0.7,2.4-0.7c1.4,0,2.1,0.7,2.1,2.1c0,0.8-0.2,2.4-0.7,4.6
		c-0.4,1.9-0.6,3.1-0.6,3.7c0,0.9,0.3,1.3,0.9,1.3c0.4,0,0.9-0.3,1.5-0.8c0.6-0.5,1.4-1.4,2.4-2.6c0.3-0.3,0.6-0.5,0.9-0.5
		c0.3,0,0.5,0.1,0.7,0.4c0.2,0.3,0.2,0.6,0.2,1.1c0,0.9-0.2,1.5-0.6,2c-0.9,1.2-1.9,2.1-3,2.8s-2.3,1.1-3.7,1.1
		c-1.1,0-1.9-0.3-2.5-1c-0.6-0.6-0.8-1.6-0.8-2.8c0-0.6,0.2-1.7,0.5-3.3c0.3-1.4,0.4-2.3,0.4-2.8c0-0.3-0.1-0.5-0.4-0.5
		c-0.3,0-0.7,0.4-1.2,1.1c-0.5,0.7-1,1.7-1.6,2.9c-0.5,1.2-1,2.5-1.3,3.8c-0.2,1-0.5,1.7-0.8,2.1c-0.3,0.4-0.8,0.5-1.5,0.5
		C156,170.9,155.4,170.5,155.1,169.6z"/>
	<path class="st0" d="M187.9,161.2c0.2,0.3,0.2,0.6,0.2,1.1c0,1-0.3,1.7-0.9,1.9c-1.3,0.5-2.7,0.7-4.3,0.8c-0.4,1.8-1.2,3.3-2.4,4.4
		c-1.2,1.1-2.6,1.6-4.1,1.6c-1.3,0-2.4-0.3-3.3-0.9c-0.9-0.6-1.6-1.5-2.1-2.5c-0.5-1-0.7-2.2-0.7-3.4c0-1.6,0.3-3.1,0.9-4.4
		c0.6-1.3,1.5-2.3,2.6-3c1.1-0.7,2.3-1.1,3.7-1.1c1.6,0,3,0.6,4,1.7c1,1.1,1.6,2.5,1.8,4.2c1-0.1,2.2-0.3,3.6-0.7
		c0.2,0,0.3-0.1,0.5-0.1C187.6,160.7,187.8,160.9,187.9,161.2z M178.4,166.6c0.5-0.6,0.9-1.4,1-2.4c-0.7-0.5-1.2-1.1-1.5-1.8
		s-0.5-1.5-0.5-2.3c0-0.3,0-0.7,0.1-1h-0.2c-0.9,0-1.6,0.4-2.2,1.3c-0.6,0.8-0.9,2-0.9,3.5c0,1.2,0.2,2.1,0.7,2.7
		c0.5,0.6,1,0.9,1.6,0.9C177.3,167.5,177.9,167.2,178.4,166.6z"/>
	<path class="st0" d="M197.4,170.8c-0.6-0.5-0.9-1.1-0.9-1.8c0-0.6,0.2-1.1,0.6-1.5c0.4-0.4,1-0.6,1.8-0.6c0.3,0,0.6,0,1,0.1
		c0.4,0.1,0.7,0.1,0.9,0.1c0-0.6-0.1-1.1-0.4-1.6c-0.2-0.5-0.5-1-0.9-1.4c-0.3-0.5-0.7-0.9-1-1.2c-0.7,1.3-1.3,2.3-2,3.2
		c-0.7,0.8-1.4,1.7-2.2,2.4c-0.4,0.4-0.8,0.6-1.2,0.6c-0.3,0-0.6-0.1-0.8-0.4c-0.2-0.2-0.3-0.6-0.3-0.9c0-0.4,0.2-0.8,0.5-1.2
		l0.4-0.5c1.2-1.5,2.1-2.7,2.7-3.6c0.4-0.6,0.8-1.5,1.3-2.5c0.5-1.1,1-2.1,1.5-3.3c0.4-1,1.3-1.4,2.6-1.4c0.6,0,1,0.1,1.3,0.2
		c0.2,0.1,0.4,0.3,0.4,0.5c0,0.1,0,0.3-0.1,0.6c-0.1,0.3-0.2,0.6-0.4,0.8c-0.4,0.8-0.6,1.4-0.6,2c0,0.3,0.1,0.7,0.3,1.1
		s0.6,0.9,1.1,1.5c0.7,0.9,1.2,1.7,1.6,2.3c0.4,0.6,0.5,1.3,0.5,2.1c0,0.2,0,0.5-0.1,0.9c1.1-0.4,2.3-1.5,3.7-3.3
		c0.3-0.3,0.6-0.5,0.9-0.5c0.3,0,0.5,0.1,0.7,0.4c0.2,0.3,0.2,0.6,0.2,1.1c0,0.8-0.2,1.5-0.6,2c-1.1,1.3-2.1,2.3-3.1,2.8
		c-1,0.5-2.2,0.8-3.7,0.8c-0.9,0.7-1.9,1.1-3.1,1.1C198.9,171.6,198,171.4,197.4,170.8z"/>
	<path class="st0" d="M208.7,169.4c-0.8-1-1.2-2.3-1.2-3.8c0-1.7,0.4-3.4,1.2-4.9c0.8-1.6,1.9-2.8,3.2-3.7c1.3-0.9,2.8-1.4,4.2-1.4
		c0.5,0,0.8,0.1,1,0.3c0.2,0.2,0.3,0.5,0.4,1c0.5-0.1,0.9-0.1,1.4-0.1c1.1,0,1.6,0.4,1.6,1.1c0,0.5-0.2,1.5-0.5,3.3
		c-0.5,2.5-0.7,4.2-0.7,5.2c0,0.3,0.1,0.6,0.2,0.8c0.2,0.2,0.4,0.3,0.6,0.3c0.4,0,0.9-0.3,1.5-0.8c0.6-0.5,1.4-1.4,2.4-2.6
		c0.3-0.3,0.6-0.5,0.9-0.5c0.3,0,0.5,0.1,0.7,0.4c0.2,0.3,0.2,0.6,0.2,1.1c0,0.9-0.2,1.5-0.6,2c-0.9,1.1-1.8,2-2.8,2.8
		c-1,0.8-2,1.1-2.9,1.1c-0.7,0-1.4-0.2-2-0.7c-0.6-0.5-1-1.2-1.4-2c-1.1,1.8-2.6,2.7-4.3,2.7C210.5,170.9,209.5,170.4,208.7,169.4z
		 M214.4,166.8c0.4-0.6,0.7-1.3,0.9-2.2l1.2-6c-0.9,0-1.8,0.4-2.5,1c-0.8,0.7-1.4,1.5-1.8,2.6s-0.7,2.2-0.7,3.5
		c0,0.7,0.1,1.2,0.4,1.5c0.3,0.3,0.6,0.5,1.1,0.5S214,167.3,214.4,166.8z"/>
	<path class="st0" d="M223.8,169.6c-0.3-0.9-0.5-2.3-0.5-4.2c0-2.8,0.4-5.5,1.2-8c0.2-0.6,0.5-1.1,1-1.4c0.4-0.3,1.1-0.4,1.9-0.4
		c0.4,0,0.7,0.1,0.9,0.2c0.2,0.1,0.3,0.3,0.3,0.6c0,0.3-0.2,1.1-0.5,2.3c-0.2,0.9-0.4,1.6-0.5,2.3c-0.1,0.6-0.2,1.4-0.3,2.4
		c0.6-1.7,1.3-3.1,2.1-4.3c0.8-1.2,1.6-2,2.5-2.6c0.9-0.6,1.7-0.9,2.4-0.9c0.8,0,1.3,0.2,1.6,0.5c0.3,0.3,0.5,0.9,0.5,1.6
		c0,0.7-0.2,2-0.6,3.8c-0.2,0.8-0.3,1.4-0.4,1.8c1.1-2.7,2.3-4.6,3.6-5.8c1.3-1.2,2.6-1.8,3.7-1.8c1.4,0,2.1,0.7,2.1,2.1
		c0,0.8-0.2,2.4-0.7,4.6c-0.4,1.9-0.6,3.1-0.6,3.7c0,0.9,0.3,1.3,0.9,1.3c0.4,0,0.9-0.3,1.5-0.8c0.6-0.5,1.4-1.4,2.4-2.6
		c0.3-0.3,0.6-0.5,0.9-0.5c0.3,0,0.5,0.1,0.7,0.4c0.2,0.3,0.2,0.6,0.2,1.1c0,0.9-0.2,1.5-0.6,2c-0.9,1.2-1.9,2.1-3,2.8
		s-2.3,1.1-3.7,1.1c-1.1,0-1.9-0.3-2.5-1c-0.6-0.6-0.8-1.6-0.8-2.8c0-0.6,0.2-1.7,0.5-3.3c0.3-1.4,0.4-2.3,0.4-2.8
		c0-0.3-0.1-0.5-0.4-0.5c-0.3,0-0.7,0.4-1.2,1.1s-1,1.7-1.6,2.9c-0.5,1.2-0.9,2.5-1.3,3.8c-0.2,1-0.5,1.7-0.8,2.1
		c-0.3,0.3-0.8,0.5-1.5,0.5c-0.7,0-1.3-0.3-1.6-1c-0.4-0.7-0.5-1.5-0.5-2.5c0-0.8,0.1-2,0.3-3.6c0.2-1.4,0.3-2.3,0.3-2.7
		c0-0.3-0.1-0.5-0.4-0.5c-0.3,0-0.7,0.4-1.2,1.2c-0.5,0.8-1,1.8-1.4,3c-0.5,1.2-0.8,2.4-1.1,3.6c-0.2,1-0.5,1.7-0.8,2.1
		c-0.3,0.4-0.8,0.5-1.5,0.5C224.7,170.9,224.1,170.5,223.8,169.6z"/>
	<path class="st0" d="M264.7,161.2c0.2,0.3,0.2,0.6,0.2,1.1c0,1-0.3,1.7-0.9,1.9c-1.3,0.5-2.7,0.7-4.3,0.8c-0.4,1.8-1.2,3.3-2.4,4.4
		c-1.2,1.1-2.6,1.6-4.1,1.6c-1.3,0-2.4-0.3-3.3-0.9c-0.9-0.6-1.6-1.5-2.1-2.5c-0.5-1-0.7-2.2-0.7-3.4c0-1.6,0.3-3.1,0.9-4.4
		c0.6-1.3,1.5-2.3,2.6-3c1.1-0.7,2.3-1.1,3.7-1.1c1.6,0,3,0.6,4,1.7c1,1.1,1.6,2.5,1.8,4.2c1-0.1,2.2-0.3,3.6-0.7
		c0.2,0,0.3-0.1,0.5-0.1C264.3,160.7,264.5,160.9,264.7,161.2z M255.2,166.6c0.5-0.6,0.9-1.4,1-2.4c-0.7-0.5-1.2-1.1-1.5-1.8
		s-0.5-1.5-0.5-2.3c0-0.3,0-0.7,0.1-1H254c-0.9,0-1.6,0.4-2.2,1.3c-0.6,0.8-0.9,2-0.9,3.5c0,1.2,0.2,2.1,0.7,2.7
		c0.5,0.6,1,0.9,1.6,0.9C254,167.5,254.6,167.2,255.2,166.6z"/>
	<path class="st0" d="M271.7,169.6c-0.6-0.9-0.9-2-0.9-3.4c0-1.6,0.1-3.1,0.3-4.5c0.2-1.4,0.6-2.8,1.1-4.3c0.2-0.7,0.5-1.1,0.9-1.4
		c0.4-0.3,1-0.4,1.9-0.4c0.5,0,0.8,0.1,1,0.2c0.2,0.2,0.3,0.4,0.3,0.7c0,0.2-0.1,0.8-0.4,1.8c-0.2,0.8-0.4,1.5-0.5,2.2
		c-0.4,2.3-0.7,3.8-0.7,4.6c0,0.5,0.1,0.8,0.2,1c0.1,0.2,0.3,0.3,0.5,0.3c0.3,0,0.7-0.3,1.2-1s1-1.6,1.6-3s1.1-3,1.6-4.9
		c0.2-0.7,0.4-1.1,0.8-1.4c0.4-0.3,0.9-0.4,1.6-0.4c0.5,0,0.8,0.1,1,0.2c0.2,0.1,0.3,0.3,0.3,0.7c0,0.5-0.3,2-0.8,4.5
		c-0.6,2.8-0.9,4.5-0.9,5.1c0,0.4,0.1,0.7,0.3,1s0.4,0.3,0.7,0.3c0.4,0,1-0.3,1.5-0.8c0.6-0.5,1.4-1.4,2.4-2.6
		c0.3-0.3,0.6-0.5,0.9-0.5c0.3,0,0.5,0.1,0.7,0.4s0.2,0.6,0.2,1.1c0,0.9-0.2,1.5-0.6,2c-0.9,1.2-1.9,2.1-3,2.8
		c-1.1,0.7-2.3,1.1-3.7,1.1c-1,0-1.8-0.4-2.3-1.2c-0.5-0.8-0.7-1.9-0.7-3.4c-0.4,1.5-0.9,2.6-1.7,3.4c-0.7,0.8-1.5,1.2-2.4,1.2
		C273.1,170.9,272.3,170.5,271.7,169.6z"/>
	<path class="st0" d="M298.8,163.9c0.2,0.3,0.2,0.6,0.2,1.1c0,0.9-0.2,1.5-0.6,2c-0.9,1.2-1.9,2.1-3,2.8c-1.1,0.7-2.3,1.1-3.7,1.1
		c-1.9,0-3.3-0.9-4.2-2.6c-0.9-1.7-1.4-4-1.4-6.7c0-2.6,0.3-5.7,1-9.1c0.7-3.4,1.7-6.3,3-8.7c1.3-2.4,2.9-3.6,4.8-3.6
		c1,0,1.9,0.5,2.5,1.5s0.9,2.4,0.9,4.2c0,2.6-0.7,5.6-2.1,9c-1.4,3.4-3.4,6.8-5.8,10.1c0.2,0.9,0.4,1.5,0.7,1.9
		c0.3,0.4,0.8,0.6,1.4,0.6c0.9,0,1.7-0.3,2.3-0.8c0.7-0.5,1.5-1.4,2.6-2.6c0.3-0.3,0.6-0.5,0.9-0.5
		C298.4,163.5,298.6,163.6,298.8,163.9z M292.4,146.1c-0.6,1.8-1.2,4-1.7,6.7c-0.5,2.7-0.7,5.2-0.8,7.7c1.5-2.5,2.8-5.1,3.7-7.6
		c0.9-2.6,1.4-4.9,1.4-7c0-1.7-0.3-2.5-0.9-2.5C293.6,143.3,293.1,144.2,292.4,146.1z"/>
	<path class="st0" d="M307.4,163.9c0.2,0.3,0.2,0.6,0.2,1c0,0.5-0.1,0.9-0.2,1.2c-0.2,0.3-0.4,0.5-0.7,0.7c-1.5,1-3.5,2.4-6.1,4.1
		c-0.8,4.5-1.9,8.1-3.3,10.7c-1.3,2.6-3.1,3.9-5.1,3.9c-1.1,0-2-0.3-2.7-1s-1-1.6-1-2.7c0-1.5,0.6-3.2,1.8-4.9
		c1.2-1.7,3.4-3.9,6.7-6.5l0.2-1.7c0.3-2.1,0.5-4.1,0.7-6.2c0.1-1.2,0.3-2.9,0.6-5.2c0.1-0.6,0.3-1.1,0.7-1.4s1-0.4,1.8-0.4
		c0.7,0,1.1,0.1,1.3,0.3s0.3,0.5,0.3,0.8c0,1-0.4,3.8-1.1,8.3l-0.3,2.2c1.7-1.3,3.3-2.4,4.8-3.4c0.3-0.2,0.5-0.3,0.7-0.3
		C307,163.5,307.2,163.7,307.4,163.9z M294.4,180.5c0.7-1.3,1.3-3.3,1.9-6.2c-1.7,1.4-2.8,2.7-3.6,3.8s-1.1,2.1-1.1,3
		c0,0.8,0.3,1.3,0.9,1.3C293.1,182.4,293.7,181.8,294.4,180.5z M298.8,152.8c-0.5-0.4-0.7-1-0.7-1.8s0.3-1.4,0.9-1.9
		c0.6-0.5,1.3-0.8,2.2-0.8c0.8,0,1.5,0.2,2,0.6c0.5,0.4,0.7,0.9,0.7,1.7c0,0.9-0.3,1.6-0.8,2.1c-0.6,0.5-1.3,0.8-2.2,0.8
		C300,153.4,299.3,153.2,298.8,152.8z"/>
	<path class="st0" d="M320.8,163.9c0.2,0.3,0.2,0.6,0.2,1.1c0,0.9-0.2,1.5-0.6,2c-0.8,1-1.9,1.9-3.4,2.7c-1.5,0.8-3,1.2-4.7,1.2
		c-2.3,0-4-0.6-5.3-1.9c-1.3-1.2-1.9-2.9-1.9-5.1c0-1.5,0.3-2.9,0.9-4.2c0.6-1.3,1.5-2.3,2.6-3.1s2.4-1.1,3.8-1.1
		c1.3,0,2.3,0.4,3,1.1s1.1,1.8,1.1,3c0,1.5-0.5,2.8-1.6,3.9c-1.1,1.1-2.9,1.9-5.5,2.6c0.5,1,1.6,1.5,3.1,1.5c1,0,2.1-0.3,3.3-1
		c1.2-0.7,2.3-1.6,3.2-2.7c0.3-0.3,0.6-0.5,0.9-0.5C320.5,163.5,320.7,163.6,320.8,163.9z M309.9,160.2c-0.6,0.9-0.8,2.1-0.8,3.4
		v0.1c1.3-0.3,2.3-0.8,3-1.4c0.7-0.6,1.1-1.3,1.1-2.1c0-0.4-0.1-0.7-0.3-1c-0.2-0.2-0.5-0.4-0.9-0.4
		C311.2,158.8,310.5,159.2,309.9,160.2z"/>
	<path class="st0" d="M328,169.4c-0.6-1-1-2.3-1-4c0-1,0.1-2.2,0.4-3.8c0.2-1.5,0.6-3,1-4.3c0.2-0.7,0.5-1.2,0.8-1.4
		c0.3-0.3,0.8-0.4,1.6-0.4c1.1,0,1.7,0.4,1.7,1.1c0,0.5-0.2,1.8-0.6,3.8c-0.5,2.4-0.8,4-0.8,4.9c0,0.7,0.1,1.2,0.3,1.5
		c0.2,0.3,0.5,0.5,0.9,0.5c0.4,0,0.9-0.3,1.5-0.8c0.6-0.5,1.4-1.4,2.3-2.6c0.3-0.3,0.6-0.5,0.9-0.5c0.3,0,0.5,0.1,0.7,0.4
		c0.2,0.3,0.2,0.6,0.2,1.1c0,0.9-0.2,1.5-0.6,2c-2.1,2.6-4.2,3.9-6,3.9C329.7,170.9,328.7,170.4,328,169.4z M329.3,152.8
		c-0.5-0.4-0.7-1-0.7-1.8s0.3-1.4,0.9-1.9c0.6-0.5,1.3-0.8,2.2-0.8c0.8,0,1.5,0.2,2,0.6c0.5,0.4,0.7,0.9,0.7,1.7
		c0,0.9-0.3,1.6-0.8,2.1s-1.3,0.8-2.2,0.8C330.4,153.4,329.8,153.2,329.3,152.8z"/>
	<path class="st0" d="M347.2,170.8c-0.6-0.5-0.9-1.1-0.9-1.8c0-0.6,0.2-1.1,0.6-1.5c0.4-0.4,1-0.6,1.8-0.6c0.3,0,0.6,0,1,0.1
		c0.4,0.1,0.7,0.1,0.9,0.1c0-0.6-0.1-1.1-0.4-1.6c-0.2-0.5-0.5-1-0.9-1.4c-0.3-0.5-0.7-0.9-1-1.2c-0.7,1.3-1.3,2.3-2,3.2
		c-0.7,0.8-1.4,1.7-2.2,2.4c-0.4,0.4-0.8,0.6-1.2,0.6c-0.3,0-0.6-0.1-0.8-0.4c-0.2-0.2-0.3-0.6-0.3-0.9c0-0.4,0.2-0.8,0.5-1.2
		l0.4-0.5c1.2-1.5,2.1-2.7,2.7-3.6c0.4-0.6,0.8-1.5,1.3-2.5c0.5-1.1,1-2.1,1.5-3.3c0.4-1,1.3-1.4,2.6-1.4c0.6,0,1,0.1,1.3,0.2
		c0.2,0.1,0.4,0.3,0.4,0.5c0,0.1,0,0.3-0.1,0.6s-0.2,0.6-0.4,0.8c-0.4,0.8-0.6,1.4-0.6,2c0,0.3,0.1,0.7,0.3,1.1
		c0.2,0.4,0.6,0.9,1.1,1.5c0.7,0.9,1.2,1.7,1.6,2.3c0.4,0.6,0.5,1.3,0.5,2.1c0,0.2,0,0.5-0.1,0.9c1.1-0.4,2.3-1.5,3.7-3.3
		c0.3-0.3,0.6-0.5,0.9-0.5c0.3,0,0.5,0.1,0.7,0.4s0.2,0.6,0.2,1.1c0,0.8-0.2,1.5-0.6,2c-1.1,1.3-2.1,2.3-3.1,2.8
		c-1,0.5-2.2,0.8-3.7,0.8c-0.9,0.7-1.9,1.1-3.1,1.1C348.7,171.6,347.8,171.4,347.2,170.8z"/>
	<path class="st0" d="M374.9,161.2c0.2,0.3,0.2,0.6,0.2,1.1c0,1-0.3,1.7-0.9,1.9c-1.3,0.5-2.7,0.7-4.3,0.8c-0.4,1.8-1.2,3.3-2.4,4.4
		s-2.6,1.6-4.1,1.6c-1.3,0-2.4-0.3-3.3-0.9s-1.6-1.5-2.1-2.5c-0.5-1-0.7-2.2-0.7-3.4c0-1.6,0.3-3.1,0.9-4.4c0.6-1.3,1.5-2.3,2.6-3
		s2.3-1.1,3.7-1.1c1.7,0,3,0.6,4,1.7s1.6,2.5,1.8,4.2c1-0.1,2.2-0.3,3.6-0.7c0.2,0,0.3-0.1,0.5-0.1
		C374.5,160.7,374.7,160.9,374.9,161.2z M365.4,166.6c0.5-0.6,0.9-1.4,1-2.4c-0.7-0.5-1.2-1.1-1.5-1.8s-0.5-1.5-0.5-2.3
		c0-0.3,0-0.7,0.1-1h-0.2c-0.9,0-1.6,0.4-2.2,1.3c-0.6,0.8-0.9,2-0.9,3.5c0,1.2,0.2,2.1,0.7,2.7c0.5,0.6,1,0.9,1.6,0.9
		C364.3,167.5,364.9,167.2,365.4,166.6z"/>
	<path class="st0" d="M385.3,163.9c0.2,0.3,0.2,0.6,0.2,1.1c0,0.9-0.2,1.5-0.6,2c-0.9,1.2-1.9,2.1-3,2.8c-1.1,0.7-2.3,1.1-3.7,1.1
		c-1.9,0-3.3-0.9-4.2-2.6c-0.9-1.7-1.4-4-1.4-6.7c0-2.6,0.3-5.7,1-9.1c0.7-3.4,1.7-6.3,3-8.7c1.3-2.4,2.9-3.6,4.8-3.6
		c1,0,1.9,0.5,2.5,1.5s0.9,2.4,0.9,4.2c0,2.6-0.7,5.6-2.1,9c-1.4,3.4-3.4,6.8-5.8,10.1c0.2,0.9,0.4,1.5,0.7,1.9
		c0.3,0.4,0.8,0.6,1.4,0.6c0.9,0,1.7-0.3,2.3-0.8c0.7-0.5,1.5-1.4,2.6-2.6c0.3-0.3,0.6-0.5,0.9-0.5
		C384.9,163.5,385.2,163.6,385.3,163.9z M379,146.1c-0.6,1.8-1.2,4-1.7,6.7c-0.5,2.7-0.7,5.2-0.8,7.7c1.5-2.5,2.8-5.1,3.7-7.6
		c0.9-2.6,1.4-4.9,1.4-7c0-1.7-0.3-2.5-0.9-2.5C380.2,143.3,379.6,144.2,379,146.1z"/>
	<path class="st0" d="M387.6,170.1c-0.5-0.5-0.7-1.2-0.7-2.1c0-1,0.3-1.8,0.8-2.3s1.3-0.9,2.3-0.9c1,0,1.7,0.2,2.2,0.7
		c0.5,0.5,0.7,1.2,0.7,2.1c0,1-0.3,1.8-0.8,2.4c-0.6,0.6-1.3,0.9-2.3,0.9C388.8,170.9,388.1,170.6,387.6,170.1z"/>
</g>
</svg>
