<?xml version="1.0" encoding="UTF-8"?>
<svg id="Layer_1" data-name="Layer 1" xmlns="http://www.w3.org/2000/svg" version="1.1" viewBox="0 0 520 258.8">
  <defs>
    <style>
      .cls-1 {
        fill: #fff;
        stroke-width: 0px;
      }
    </style>
  </defs>
  <g>
    <path class="cls-1" d="M12.9,167.7c-.4-.4-.5-1.1-.5-2.1s.1-1.5.2-2.5c.1-1,.4-2.4.7-4.4,0-.3.2-1.3.5-3.2s.6-3.9.8-5.9c.2-1.8.3-3.1.3-4s-.4-1.5-1.1-1.5-1.2.3-2.1.9c-.8.6-1.7,1.5-2.7,2.8-.3.4-.6.6-1,.6s-.6-.1-.8-.4c-.2-.3-.3-.6-.3-1s0-.7.2-1.1c0-.3.4-.8.7-1.2,1.1-1.5,2.3-2.6,3.6-3.4,1.3-.8,2.7-1.2,4.2-1.2s2.1.4,2.7,1.1c.6.7.9,1.8.9,3.3s-.2,3.1-.5,5.5c1.1-3.3,2.5-5.7,4.2-7.4s3.7-2.5,6-2.5,3.2.5,4.1,1.5,1.4,2.4,1.4,4.1,0,2.1-.4,3.5l-2,9.4c-.2,1.1-.3,2-.3,2.8s.2,1.6.6,2.1,1,.7,1.8.7,1.4-.2,2.1-.7c.7-.5,1.5-1.3,2.5-2.4.3-.3.6-.5.9-.5s.5.1.7.4.2.6.2,1.1c0,.9-.2,1.5-.6,2-1.1,1.4-2.3,2.4-3.4,3s-2.3,1-3.5,1c-1.9,0-3.3-.6-4.4-1.7-1.1-1.1-1.6-2.6-1.6-4.5s.1-1.5.2-2.4.3-1.9.6-3.3l1.3-6c0-.2.1-.6.2-1.1s.2-1,.3-1.4.1-.9.1-1.3c0-.7-.2-1.3-.6-1.7s-1-.6-1.7-.6c-1.3,0-2.6.7-4,2.1-1.3,1.4-2.5,3.7-3.7,6.8-1.1,3.1-2,7.1-2.6,12-.2,1.1-.4,1.9-.7,2.3-.3.4-.9.7-1.7.7-.9.3-1.4,0-1.8-.3Z"/>
    <path class="cls-1" d="M47.9,161.2c.2.3.2.6.2,1s0,.9-.2,1.2c-.2.3-.4.5-.7.8-1.5,1-3.6,2.4-6.2,4.2-.9,4.6-2,8.2-3.3,10.8-1.4,2.6-3.1,3.9-5.2,3.9s-2.1-.3-2.8-1c-.7-.7-1-1.6-1-2.7,0-1.6.6-3.2,1.8-5,1.2-1.8,3.5-4,6.8-6.6l.2-1.7c.3-2.1.5-4.2.7-6.2,0-1.2.3-3,.6-5.3,0-.6.3-1.1.7-1.4s1-.4,1.8-.4,1.1.1,1.3.3.3.5.3.8c0,1-.4,3.8-1.1,8.4l-.3,2.3c1.8-1.3,3.4-2.5,4.8-3.4.3-.2.5-.3.8-.3.4-.1.6,0,.8.3ZM34.7,178c.7-1.3,1.3-3.4,1.9-6.3-1.7,1.4-2.9,2.7-3.6,3.9-.7,1.2-1.1,2.2-1.1,3.1s.3,1.3.9,1.3c.6,0,1.2-.7,1.9-2ZM39.2,149.9c-.5-.4-.7-1-.7-1.8s.3-1.4.9-1.9c.6-.5,1.4-.8,2.3-.8s1.5.2,2,.6c.5.4.8,1,.8,1.7s-.3,1.6-.9,2.1c-.6.5-1.3.8-2.3.8-.9,0-1.6-.3-2.1-.7Z"/>
    <path class="cls-1" d="M46.7,166.8c-.6-1-1-2.4-1-4s0-2.3.4-3.8c.3-1.6.6-3,1-4.3.2-.7.5-1.2.8-1.5s.9-.4,1.6-.4c1.1,0,1.7.4,1.7,1.1s-.2,1.8-.6,3.8c-.5,2.4-.8,4.1-.8,4.9s0,1.2.3,1.5c.2.4.5.5.9.5s.9-.3,1.5-.8,1.4-1.4,2.4-2.6c.3-.3.6-.5.9-.5s.5.1.7.4.2.6.2,1.1c0,.9-.2,1.6-.6,2-2.2,2.7-4.2,4-6.1,4-1.6.1-2.6-.4-3.3-1.4ZM48,149.9c-.5-.4-.7-1-.7-1.8s.3-1.4.9-1.9c.6-.5,1.4-.8,2.3-.8s1.5.2,2,.6c.5.4.8,1,.8,1.7s-.3,1.6-.9,2.1c-.6.5-1.3.8-2.3.8-.9,0-1.6-.3-2.1-.7Z"/>
    <path class="cls-1" d="M72.9,161.2c.2.3.2.6.2,1.1,0,.9-.2,1.6-.6,2-1,1.2-2.1,2.1-3.1,2.9-1.1.7-2.3,1.1-3.6,1.1s-2-.3-2.5-1c-.6-.6-.9-1.6-.9-2.8s.2-1.7.5-3.3c.3-1.4.4-2.3.4-2.9s0-.5-.4-.5-.7.4-1.2,1.1c-.5.7-1.1,1.7-1.6,2.9s-1,2.5-1.3,3.8c-.4,1.8-1.5,2.6-3.1,2.6s-1.1-.2-1.3-.7-.3-1.3-.3-2.6v-4.3c0-3.4.3-6.9,1-10.6s1.7-6.8,3.1-9.3,3-3.7,4.9-3.7,1.8.4,2.5,1.3.9,2,.9,3.4c0,2.2-.6,4.5-1.9,6.9-1.3,2.4-3.4,5.2-6.3,8.4,0,1.1,0,2.3,0,3.5.7-1.9,1.5-3.4,2.4-4.6s1.8-2,2.6-2.5c.9-.5,1.7-.8,2.4-.8,1.4,0,2.1.7,2.1,2.1s-.2,2.4-.7,4.7c-.4,1.9-.6,3.2-.6,3.8,0,.9.3,1.3,1,1.3s1-.3,1.6-.8,1.4-1.4,2.4-2.6c.3-.3.6-.5.9-.5.2.2.4.3.6.6ZM61.1,142.1c-.5,1.1-1,2.7-1.4,4.6-.5,1.9-.8,4-1.1,6.3,1.4-1.6,2.5-3.4,3.4-5.2.9-1.9,1.3-3.6,1.3-5.1s0-1.2-.2-1.6c-.2-.4-.4-.6-.7-.6-.4,0-.8.4-1.3,1.6Z"/>
    <path class="cls-1" d="M82.7,168.2c-.6-.5-.9-1.1-.9-1.8s.2-1.1.6-1.5,1-.6,1.8-.6.6,0,1,.1.7.1.9.1c0-.6,0-1.1-.4-1.6-.2-.5-.5-1-.9-1.5s-.7-.9-1-1.2c-.7,1.3-1.4,2.4-2,3.2-.7.9-1.4,1.7-2.2,2.4-.4.4-.8.6-1.3.6s-.6-.1-.9-.4c-.2-.3-.3-.6-.3-.9s.2-.8.5-1.2l.4-.5c1.2-1.5,2.1-2.7,2.7-3.7.4-.6.8-1.5,1.3-2.6s1-2.2,1.5-3.3c.4-1,1.3-1.5,2.6-1.5s1,.1,1.3.2c.2.1.4.3.4.5s0,.3,0,.6-.2.6-.4.9c-.4.8-.6,1.5-.6,2s0,.7.3,1.1.6.9,1.1,1.5c.7.9,1.2,1.7,1.6,2.4s.5,1.4.5,2.1,0,.5,0,.9c1.1-.4,2.3-1.5,3.8-3.3.3-.3.6-.5.9-.5s.5.1.7.4.2.6.2,1.1c0,.8-.2,1.5-.6,2-1.1,1.4-2.2,2.3-3.2,2.8s-2.2.8-3.7.8c-.9.7-1.9,1.1-3.1,1.1-.9,0-1.8-.2-2.4-.7Z"/>
    <path class="cls-1" d="M106.5,161.2c.2.3.2.6.2,1.1,0,.9-.2,1.6-.6,2-.9,1.2-2,2.1-3.1,2.9-1.1.7-2.4,1.1-3.8,1.1s-3.4-.9-4.3-2.6-1.4-4-1.4-6.8.3-5.7,1-9.2c.7-3.4,1.7-6.4,3.1-8.8,1.4-2.5,3-3.7,4.8-3.7s1.9.5,2.5,1.5.9,2.4.9,4.2c0,2.6-.7,5.7-2.2,9.1-1.5,3.5-3.4,6.9-5.9,10.3.2.9.4,1.5.8,1.9s.8.6,1.4.6c.9,0,1.7-.3,2.4-.8.7-.5,1.6-1.4,2.6-2.7.3-.3.6-.5.9-.5.3,0,.5,0,.7.4ZM100,143.1c-.6,1.8-1.2,4.1-1.7,6.8s-.7,5.3-.8,7.8c1.6-2.6,2.8-5.2,3.7-7.7.9-2.6,1.4-4.9,1.4-7.1s-.3-2.5-.9-2.5-1,.9-1.7,2.7Z"/>
    <path class="cls-1" d="M121.5,158.4c.2.3.2.6.2,1.1,0,1.1-.3,1.7-1,1.9-1.3.5-2.8.7-4.4.8-.4,1.8-1.2,3.3-2.5,4.4-1.2,1.1-2.6,1.7-4.2,1.7s-2.4-.3-3.4-1-1.6-1.5-2.1-2.5-.7-2.2-.7-3.4c0-1.7.3-3.2,1-4.5.6-1.3,1.5-2.3,2.6-3.1s2.4-1.1,3.7-1.1,3,.6,4,1.7,1.6,2.6,1.8,4.3c1-.1,2.3-.3,3.7-.7.2,0,.3-.1.5-.1.5.1.7.2.8.5ZM111.9,163.9c.5-.6.9-1.4,1-2.5-.7-.5-1.2-1.1-1.6-1.8s-.5-1.5-.5-2.4,0-.7,0-1.1h-.2c-.9,0-1.6.4-2.2,1.3-.6.8-.9,2-.9,3.6s.2,2.1.7,2.8,1,1,1.7,1c.8,0,1.4-.3,1.9-.9Z"/>
    <path class="cls-1" d="M138.4,161.2c.2.3.2.6.2,1.1,0,.8-.2,1.5-.6,2-1,1.3-2.3,2.4-3.8,3.2s-3.3,1.2-5.2,1.2-2.8-.2-3.9-.7-1.9-1.1-2.5-1.8c-.6-.8-.9-1.7-.9-2.6,0-1.5.6-2.7,1.7-3.9,1.2-1.1,2.8-2.2,5-3.2h-5.4c-.5.1-.9,0-1.1-.4-.3-.4-.4-.8-.4-1.3s0-1,.4-1.4.6-.6,1-.6c1,0,2.4.1,4.1.2.4,0,1,.1,1.9.1s1.7.1,2.4.1.6-.1,1.3-.3c.1,0,.3-.1.6-.2.3-.1.6-.1.8-.1.4,0,.6.2.9.5.2.3.3.8.3,1.4s-.2,1.3-.5,1.7-.8.7-1.6,1.1c-2,.9-3.7,1.8-5,2.8s-2,2-2,2.9.3,1.1.9,1.5,1.4.6,2.5.6,2.5-.3,3.7-.9c1.3-.6,2.4-1.6,3.4-2.8.3-.3.6-.5.9-.5.5-.1.7,0,.9.3ZM127.4,150c-.4-.4-.7-1-.9-1.9l-1.5-5.9c0-.3,0-.5,0-.7,0-.5.2-1,.5-1.3.4-.3.8-.4,1.3-.4s.9.1,1.2.4c.3.3.5.7.6,1.4l.8,5.8,2.9-5.8c.3-.7.7-1.1,1.1-1.4.4-.2.8-.4,1.3-.4s.8.1,1.1.3.4.5.4.9-.1.8-.4,1.2l-3.7,6.4c-.4.7-.8,1.2-1.3,1.5s-1.1.5-1.8.5-1.1-.2-1.5-.6Z"/>
    <path class="cls-1" d="M136.9,166.8c-.6-1-1-2.4-1-4s.1-2.3.4-3.8c.3-1.6.6-3,1-4.3.2-.7.5-1.2.8-1.5s.9-.4,1.6-.4c1.1,0,1.7.4,1.7,1.1s-.2,1.8-.6,3.8c-.5,2.4-.8,4.1-.8,4.9s.1,1.2.3,1.5c.2.4.5.5.9.5s.9-.3,1.5-.8,1.4-1.4,2.4-2.6c.3-.3.6-.5.9-.5s.5.1.7.4.2.6.2,1.1c0,.9-.2,1.6-.6,2-2.2,2.7-4.2,4-6.1,4-1.6.1-2.7-.4-3.3-1.4ZM138.2,149.9c-.5-.4-.7-1-.7-1.8s.3-1.4.9-1.9c.6-.5,1.4-.8,2.3-.8s1.5.2,2,.6c.5.4.8,1,.8,1.7s-.3,1.6-.9,2.1c-.6.5-1.3.8-2.3.8-1,0-1.7-.3-2.1-.7Z"/>
    <path class="cls-1" d="M159.4,161.2c.2.3.2.6.2,1.1,0,.9-.2,1.6-.6,2-.9,1.2-2,2.1-3.1,2.9s-2.4,1.1-3.9,1.1c-4.5,0-6.7-3.2-6.7-9.5s0-1.9.1-2.9h-1.3c-.7,0-1.1-.1-1.3-.4s-.3-.6-.3-1.2c0-1.2.5-1.8,1.5-1.8h1.9c.4-2.4.9-4.6,1.7-6.6s1.7-3.6,2.8-4.8,2.3-1.8,3.5-1.8,1.6.4,2.2,1.2c.5.8.8,1.8.8,3.1,0,3.4-1.4,6.4-4.3,8.9h3.7c.4,0,.6.1.8.2.2.2.2.4.2.9,0,1.5-1.2,2.3-3.7,2.3h-4c0,1.1-.1,2-.1,2.6,0,2.3.3,3.9.8,4.8.5.9,1.4,1.4,2.6,1.4s1.8-.3,2.5-.9c.7-.6,1.6-1.4,2.6-2.6.3-.3.6-.5.9-.5.2,0,.4.2.5.5ZM151.9,143.7c-.4.8-.8,2-1.2,3.4-.4,1.5-.7,3.1-.9,4.9,1.3-1.1,2.3-2.4,2.9-3.8.6-1.4,1-2.7,1-3.8s-.2-1.9-.7-1.9-.7.4-1.1,1.2Z"/>
    <path class="cls-1" d="M167,166.5c-1.2-1.2-1.8-2.8-1.8-4.8s.4-3.3,1.1-4.7c.7-1.3,1.6-2.4,2.7-3.1s2.3-1.1,3.5-1.1,2.2.4,2.8,1.1c.7.7,1,1.6,1,2.8s-.2,1.7-.6,2.3c-.4.6-.9,1-1.6,1s-.8-.1-1-.3c-.3-.2-.4-.5-.4-.8s0-.3.1-.5c0-.2.1-.3.1-.4.1-.3.2-.6.2-.9s-.1-.5-.2-.7c-.1-.2-.3-.2-.6-.2-.5,0-1,.2-1.4.7s-.8,1.1-1.1,1.8c-.3.8-.4,1.6-.4,2.5,0,2.6,1.1,3.8,3.3,3.8s1.9-.3,2.9-.9c1-.6,2.1-1.5,3.1-2.7.3-.3.6-.5.9-.5s.5.1.7.4.2.6.2,1.1c0,.8-.2,1.5-.6,2-1,1.3-2.3,2.3-3.7,3s-2.8,1-4.2,1c-2.1-.1-3.8-.7-5-1.9ZM172,150.2c-.2-.2-.3-.5-.3-.8s.1-.4.2-.6l3.1-6.9c.2-.4.5-.8.8-1s.7-.3,1.1-.3,1,.2,1.5.6c.4.4.6.9.6,1.5s-.2,1.2-.7,1.8l-4.3,5.5c-.3.4-.6.6-1.1.6-.4,0-.6-.2-.9-.4Z"/>
    <path class="cls-1" d="M193.3,161.2c.2.3.2.6.2,1.1,0,.9-.2,1.6-.6,2-.8,1-2,1.9-3.4,2.7-1.5.8-3.1,1.3-4.8,1.3s-4.1-.6-5.4-1.9-1.9-3-1.9-5.1.3-2.9,1-4.2c.6-1.3,1.5-2.3,2.7-3.1,1.1-.8,2.4-1.2,3.8-1.2s2.3.4,3.1,1.1c.8.8,1.2,1.8,1.2,3.1s-.5,2.8-1.6,3.9c-1.1,1.1-2.9,2-5.5,2.6.5,1,1.6,1.5,3.1,1.5s2.1-.3,3.4-1c1.3-.7,2.4-1.6,3.3-2.7.3-.3.6-.5.9-.5,0,0,.3,0,.5.4ZM182.2,157.4c-.6.9-.8,2.1-.8,3.4h0c1.3-.2,2.3-.7,3.1-1.3.7-.6,1.1-1.3,1.1-2.1s-.1-.8-.3-1c-.2-.3-.5-.4-.9-.4-.9,0-1.6.4-2.2,1.4Z"/>
    <path class="cls-1" d="M203.1,168.2c-.6-.5-.9-1.1-.9-1.8s.2-1.1.6-1.5,1-.6,1.8-.6.6,0,1,.1.7.1.9.1c0-.6-.1-1.1-.4-1.6-.2-.5-.5-1-.9-1.5s-.7-.9-1-1.2c-.7,1.3-1.4,2.4-2,3.2-.7.9-1.4,1.7-2.2,2.4-.4.4-.8.6-1.3.6s-.6-.1-.9-.4c-.2-.3-.3-.6-.3-.9s.2-.8.5-1.2l.4-.5c1.2-1.5,2.1-2.7,2.7-3.7.4-.6.8-1.5,1.3-2.6s1-2.2,1.5-3.3c.4-1,1.3-1.5,2.6-1.5s1,.1,1.3.2c.2.1.4.3.4.5s0,.3-.1.6-.2.6-.4.9c-.4.8-.6,1.5-.6,2s.1.7.3,1.1.6.9,1.1,1.5c.7.9,1.2,1.7,1.6,2.4.4.7.5,1.4.5,2.1s0,.5-.1.9c1.1-.4,2.3-1.5,3.8-3.3.3-.3.6-.5.9-.5s.5.1.7.4.2.6.2,1.1c0,.8-.2,1.5-.6,2-1.1,1.4-2.2,2.3-3.2,2.8s-2.2.8-3.7.8c-.9.7-1.9,1.1-3.1,1.1-.9,0-1.8-.2-2.4-.7Z"/>
    <path class="cls-1" d="M229.1,161.2c.2.3.2.6.2,1.1,0,.9-.2,1.6-.6,2-.8,1-2,1.9-3.4,2.7-1.5.8-3.1,1.3-4.8,1.3s-4.1-.6-5.4-1.9-1.9-3-1.9-5.1.3-2.9,1-4.2c.6-1.3,1.5-2.3,2.7-3.1,1.1-.8,2.4-1.2,3.8-1.2s2.3.4,3.1,1.1c.8.8,1.2,1.8,1.2,3.1s-.5,2.8-1.6,3.9c-1.1,1.1-2.9,2-5.5,2.6.5,1,1.6,1.5,3.1,1.5s2.1-.3,3.4-1c1.3-.7,2.4-1.6,3.3-2.7.3-.3.6-.5.9-.5,0,0,.3,0,.5.4ZM218,157.4c-.6.9-.8,2.1-.8,3.4h0c1.3-.2,2.3-.7,3.1-1.3.7-.6,1.1-1.3,1.1-2.1s-.1-.8-.3-1c-.2-.3-.5-.4-.9-.4-.9,0-1.6.4-2.2,1.4Z"/>
    <path class="cls-1" d="M231.4,167.5c-.5-.5-.7-1.2-.7-2.1s.3-1.8.8-2.4,1.3-.9,2.4-.9,1.7.2,2.2.7.7,1.2.7,2.1-.3,1.8-.9,2.4-1.4.9-2.3.9c-1,.1-1.7-.2-2.2-.7ZM232.5,158.1c-.5-.5-.7-1.2-.7-2.1s.3-1.8.8-2.4c.6-.6,1.3-.9,2.4-.9s1.7.2,2.2.7.7,1.2.7,2.1-.3,1.8-.9,2.4-1.4.9-2.3.9c-.9.1-1.7-.2-2.2-.7Z"/>
    <path class="cls-1" d="M280,161.2c.2.3.2.6.2,1.1,0,.9-.2,1.5-.6,2-1.1,1.3-2.1,2.3-3.2,3s-2.4,1-3.8,1-2.6-.4-3.6-1.2-2-2.1-2.9-4c-.7-1.5-1.3-2.6-1.7-3.3-.4-.7-.8-1.2-1.2-1.5-.4-.3-.9-.5-1.5-.6-.1.5-.3,1.9-.8,4.4-.2,1.1-.3,1.8-.3,2-.2,1.3-.7,2.4-1.3,3.1-.7.7-1.7,1.1-3,1.1s-2.8-.4-3.9-1.3c-1.1-.9-2-2.1-2.6-3.6-.6-1.6-.9-3.3-.9-5.3,0-3.7.6-6.9,1.9-9.6s3.1-4.7,5.4-6.2c2.3-1.4,5-2.1,8-2.1s3.9.3,5.3,1c1.4.6,2.5,1.5,3.2,2.6s1,2.4,1,3.8-.3,2.4-.9,3.6c-.6,1.2-1.5,2.2-2.6,3.1-1.2.9-2.6,1.6-4.3,2,1.1.3,1.9.7,2.4,1.4.6.6,1.1,1.6,1.7,2.8.6,1.3,1.2,2.3,1.8,2.9.6.6,1.3.9,2.1.9s1.4-.2,2-.7,1.4-1.3,2.4-2.4c.3-.3.6-.5.9-.5.4,0,.6.2.8.5ZM257.1,157.7c-.7,0-1.3-.2-1.5-.5-.3-.4-.4-.7-.4-1.2s.2-.9.5-1.3c.3-.3.7-.5,1.2-.5h.8c.4-2.2.7-4,1-5.6.3-1.4,1.2-2.1,2.8-2.1s1.9.6,1.9,1.7v.6l-1,5.5c1.2-.1,2.3-.4,3.3-.9s1.8-1.2,2.3-2.1c.6-.9.9-1.9.9-3.1s-.5-2.5-1.4-3.3-2.3-1.2-4.2-1.2-4,.5-5.7,1.6c-1.6,1.1-2.9,2.7-3.8,4.8-.9,2.1-1.4,4.7-1.4,7.7s.1,2.6.4,3.6c.3,1,.6,1.8,1.1,2.3.4.5.8.8,1.2.8s.5-.1.7-.4c.2-.3.3-.7.4-1.4l.9-5Z"/>
    <path class="cls-1" d="M294.4,158.4c.2.3.2.6.2,1.1,0,1.1-.3,1.7-1,1.9-1.3.5-2.8.7-4.4.8-.4,1.8-1.2,3.3-2.5,4.4-1.2,1.1-2.6,1.7-4.2,1.7s-2.4-.3-3.4-1c-.9-.6-1.6-1.5-2.1-2.5-.5-1.1-.7-2.2-.7-3.4,0-1.7.3-3.2,1-4.5.6-1.3,1.5-2.3,2.6-3.1,1.1-.7,2.4-1.1,3.7-1.1s3,.6,4,1.7c1,1.2,1.6,2.6,1.8,4.3,1-.1,2.3-.3,3.7-.7.2,0,.3-.1.5-.1.4.1.6.2.8.5ZM284.7,163.9c.5-.6.9-1.4,1-2.5-.7-.5-1.2-1.1-1.6-1.8s-.5-1.5-.5-2.4,0-.7.1-1.1h-.2c-.9,0-1.6.4-2.2,1.3-.6.8-.9,2-.9,3.6s.2,2.1.7,2.8c.5.6,1,1,1.7,1,.8,0,1.4-.3,1.9-.9Z"/>
    <path class="cls-1" d="M297.6,168.2c-.6-.5-.9-1.1-.9-1.8s.2-1.1.6-1.5,1-.6,1.8-.6.6,0,1,.1.7.1.9.1c0-.6-.1-1.1-.4-1.6-.2-.5-.5-1-.9-1.5s-.7-.9-1-1.2c-.7,1.3-1.4,2.4-2,3.2-.7.9-1.4,1.7-2.2,2.4-.4.4-.8.6-1.3.6s-.6-.1-.9-.4-.3-.6-.3-.9.2-.8.5-1.2l.4-.5c1.2-1.5,2.1-2.7,2.7-3.7.4-.6.8-1.5,1.3-2.6s1-2.2,1.5-3.3c.4-1,1.3-1.5,2.6-1.5s1,.1,1.3.2c.2.1.4.3.4.5s0,.3-.1.6-.2.6-.4.9c-.4.8-.6,1.5-.6,2s.1.7.3,1.1c.2.4.6.9,1.1,1.5.7.9,1.2,1.7,1.6,2.4s.5,1.4.5,2.1,0,.5-.1.9c1.1-.4,2.3-1.5,3.8-3.3.3-.3.6-.5.9-.5s.5.1.7.4.2.6.2,1.1c0,.8-.2,1.5-.6,2-1.1,1.4-2.2,2.3-3.2,2.8s-2.2.8-3.7.8c-.9.7-1.9,1.1-3.1,1.1-.9,0-1.8-.2-2.4-.7ZM358.3,190.1c-.4-.4-.7-1-.9-1.9l-1.5-5.9c-.1-.3-.1-.5-.1-.7,0-.5.2-1,.5-1.3.4-.3.8-.4,1.3-.4s.9.1,1.2.4c.3.3.5.7.6,1.4l.8,5.8,2.9-5.8c.3-.7.7-1.1,1.1-1.4.4-.2.8-.4,1.3-.4s.8.1,1.1.3.4.5.4.9-.1.8-.4,1.2l-3.7,6.4c-.4.7-.8,1.2-1.3,1.5s-1.1.5-1.8.5-1.1-.2-1.5-.6Z"/>
    <path class="cls-1" d="M323.6,161.2c.2.3.2.6.2,1.1,0,.9-.2,1.6-.6,2-.9,1.2-2,2.1-3.1,2.9s-2.4,1.1-3.9,1.1c-4.5,0-6.7-3.2-6.7-9.5s0-1.9.1-2.9h-1.3c-.7,0-1.1-.1-1.3-.4-.2-.2-.3-.6-.3-1.2,0-1.2.5-1.8,1.5-1.8h1.9c.4-2.4.9-4.6,1.7-6.6.8-2,1.7-3.6,2.8-4.8,1.1-1.2,2.3-1.8,3.5-1.8s1.7.4,2.2,1.2.8,1.8.8,3.1c0,3.4-1.4,6.4-4.3,8.9h3.7c.4,0,.6.1.8.2.2.2.2.4.2.9,0,1.5-1.2,2.3-3.7,2.3h-4c0,1.1-.1,2-.1,2.6,0,2.3.3,3.9.8,4.8.5.9,1.4,1.4,2.6,1.4s1.8-.3,2.5-.9c.7-.6,1.6-1.4,2.6-2.6.3-.3.6-.5.9-.5,0,0,.3.2.5.5ZM316,143.7c-.4.8-.8,2-1.2,3.4-.4,1.5-.7,3.1-.9,4.9,1.3-1.1,2.3-2.4,2.9-3.8.6-1.4,1-2.7,1-3.8s-.2-1.9-.7-1.9-.7.4-1.1,1.2Z"/>
    <path class="cls-1" d="M322.1,166.8c-.6-1-1-2.4-1-4s.1-2.3.4-3.8c.3-1.6.6-3,1-4.3.2-.7.5-1.2.8-1.5s.9-.4,1.6-.4c1.1,0,1.7.4,1.7,1.1s-.2,1.8-.6,3.8c-.5,2.4-.8,4.1-.8,4.9s.1,1.2.3,1.5c.2.4.5.5.9.5s.9-.3,1.5-.8,1.4-1.4,2.4-2.6c.3-.3.6-.5.9-.5s.5.1.7.4.2.6.2,1.1c0,.9-.2,1.6-.6,2-2.2,2.7-4.2,4-6.1,4-1.6.1-2.7-.4-3.3-1.4ZM323.4,149.9c-.5-.4-.7-1-.7-1.8s.3-1.4.9-1.9,1.4-.8,2.3-.8,1.5.2,2,.6c.5.4.8,1,.8,1.7s-.3,1.6-.9,2.1-1.3.8-2.3.8c-.9,0-1.6-.3-2.1-.7Z"/>
    <path class="cls-1" d="M342.5,161.2c.2.3.2.6.2,1.1,0,.9-.2,1.6-.6,2-.9,1.2-2,2.1-3.1,2.9-1.1.7-2.4,1.1-3.8,1.1s-3.4-.9-4.3-2.6c-.9-1.8-1.4-4-1.4-6.8s.3-5.7,1-9.2c.7-3.4,1.7-6.4,3.1-8.8,1.4-2.5,3-3.7,4.8-3.7s1.9.5,2.5,1.5.9,2.4.9,4.2c0,2.6-.7,5.7-2.2,9.1-1.5,3.5-3.4,6.9-5.9,10.3.2.9.4,1.5.8,1.9s.8.6,1.4.6c.9,0,1.7-.3,2.4-.8s1.6-1.4,2.6-2.7c.3-.3.6-.5.9-.5.3,0,.5,0,.7.4ZM336,143.1c-.6,1.8-1.2,4.1-1.7,6.8s-.7,5.3-.8,7.8c1.6-2.6,2.8-5.2,3.7-7.7.9-2.6,1.4-4.9,1.4-7.1s-.3-2.5-.9-2.5-1.1.9-1.7,2.7Z"/>
    <path class="cls-1" d="M351.2,161.2c.2.3.2.6.2,1s-.1.9-.2,1.2c-.2.3-.4.5-.7.8-1.5,1-3.6,2.4-6.2,4.2-.9,4.6-2,8.2-3.3,10.8s-3.1,3.9-5.2,3.9-2.1-.3-2.8-1c-.7-.7-1-1.6-1-2.7,0-1.6.6-3.2,1.8-5,1.2-1.8,3.5-4,6.8-6.6l.2-1.7c.3-2.1.5-4.2.7-6.2.1-1.2.3-3,.6-5.3.1-.6.3-1.1.7-1.4.4-.3,1-.4,1.8-.4s1.1.1,1.3.3c.2.2.3.5.3.8,0,1-.4,3.8-1.1,8.4l-.3,2.3c1.8-1.3,3.4-2.5,4.8-3.4.3-.2.5-.3.8-.3.4-.1.6,0,.8.3ZM338,178c.7-1.3,1.3-3.4,1.9-6.3-1.7,1.4-2.9,2.7-3.6,3.9s-1.1,2.2-1.1,3.1.3,1.3.9,1.3c.6,0,1.2-.7,1.9-2ZM342.5,149.9c-.5-.4-.7-1-.7-1.8s.3-1.4.9-1.9,1.4-.8,2.3-.8,1.5.2,2,.6c.5.4.8,1,.8,1.7s-.3,1.6-.9,2.1-1.3.8-2.3.8c-1,0-1.7-.3-2.1-.7Z"/>
    <path class="cls-1" d="M349.9,166.8c-.8-1-1.2-2.3-1.2-3.9s.4-3.4,1.2-5c.8-1.6,1.9-2.8,3.3-3.8s2.8-1.4,4.3-1.4.8.1,1,.3.3.5.4,1c.5-.1.9-.1,1.5-.1,1.1,0,1.6.4,1.6,1.2s-.2,1.6-.5,3.3c-.5,2.5-.8,4.3-.8,5.3s.1.6.2.8c.2.2.4.3.6.3.4,0,.9-.3,1.5-.8s1.4-1.4,2.4-2.6c.3-.3.6-.5.9-.5s.5.1.7.4.2.6.2,1.1c0,.9-.2,1.6-.6,2-.9,1.1-1.9,2.1-2.9,2.8-1,.8-2,1.2-2.9,1.2s-1.4-.2-2-.7-1.1-1.2-1.4-2c-1.1,1.8-2.6,2.8-4.3,2.8-1.3-.2-2.4-.7-3.2-1.7ZM355.7,164.1c.4-.6.8-1.3,1-2.3l1.2-6.1c-.9,0-1.8.4-2.6,1-.8.7-1.4,1.6-1.9,2.7-.5,1.1-.7,2.3-.7,3.5s.1,1.2.4,1.5.7.5,1.1.5c.6.1,1.1-.2,1.5-.8Z"/>
    <path class="cls-1" d="M365.2,167c-.3-.9-.5-2.3-.5-4.2,0-2.9.4-5.6,1.2-8.2.2-.6.5-1.1,1-1.4.5-.3,1.1-.4,1.9-.4s.7.1.9.2.3.3.3.6-.2,1.1-.5,2.4c-.2.9-.4,1.6-.5,2.3s-.2,1.5-.3,2.4c.7-1.9,1.5-3.4,2.4-4.6s1.8-2,2.7-2.5c.9-.5,1.7-.8,2.4-.8,1.4,0,2.1.7,2.1,2.1s-.2,2.4-.7,4.7c-.4,1.9-.6,3.2-.6,3.8,0,.9.3,1.3,1,1.3s1-.3,1.6-.8,1.4-1.4,2.4-2.6c.3-.3.6-.5.9-.5s.5.1.7.4.2.6.2,1.1c0,.9-.2,1.6-.6,2-.9,1.2-2,2.1-3.1,2.9s-2.3,1.1-3.7,1.1-2-.3-2.5-1c-.6-.6-.9-1.6-.9-2.8s.2-1.7.5-3.3c.3-1.4.4-2.3.4-2.9s-.1-.5-.4-.5-.7.4-1.2,1.1-1,1.7-1.6,2.9-1,2.5-1.3,3.8c-.2,1-.5,1.7-.8,2.1-.3.4-.8.5-1.5.5-1,0-1.6-.4-1.9-1.2Z"/>
    <path class="cls-1" d="M391.1,161.2c.2.3.2.6.2,1s-.1.9-.2,1.2c-.2.3-.4.5-.7.8-1.5,1-3.6,2.4-6.2,4.2-.9,4.6-2,8.2-3.3,10.8s-3.1,3.9-5.2,3.9-2.1-.3-2.8-1c-.7-.7-1-1.6-1-2.7,0-1.6.6-3.2,1.8-5,1.2-1.8,3.5-4,6.8-6.6l.2-1.7c.3-2.1.5-4.2.7-6.2.1-1.2.3-3,.6-5.3.1-.6.3-1.1.7-1.4.4-.3,1-.4,1.8-.4s1.1.1,1.3.3c.2.2.3.5.3.8,0,1-.4,3.8-1.1,8.4l-.3,2.3c1.8-1.3,3.4-2.5,4.8-3.4.3-.2.5-.3.8-.3.4-.1.6,0,.8.3ZM377.9,178c.7-1.3,1.3-3.4,1.9-6.3-1.7,1.4-2.9,2.7-3.6,3.9s-1.1,2.2-1.1,3.1.3,1.3.9,1.3c.6,0,1.2-.7,1.9-2ZM382.4,149.9c-.5-.4-.7-1-.7-1.8s.3-1.4.9-1.9,1.4-.8,2.3-.8,1.5.2,2,.6c.5.4.8,1,.8,1.7s-.3,1.6-.9,2.1-1.3.8-2.3.8c-.9,0-1.6-.3-2.1-.7Z"/>
    <path class="cls-1" d="M404.7,161.2c.2.3.2.6.2,1.1,0,.9-.2,1.6-.6,2-.8,1-2,1.9-3.4,2.7-1.5.8-3.1,1.3-4.8,1.3s-4.1-.6-5.4-1.9c-1.3-1.3-1.9-3-1.9-5.1s.3-2.9,1-4.2c.6-1.3,1.5-2.3,2.7-3.1s2.4-1.2,3.8-1.2,2.3.4,3.1,1.1c.8.8,1.2,1.8,1.2,3.1s-.5,2.8-1.6,3.9c-1.1,1.1-2.9,2-5.5,2.6.5,1,1.6,1.5,3.1,1.5s2.1-.3,3.4-1,2.4-1.6,3.3-2.7c.3-.3.6-.5.9-.5,0,0,.4,0,.5.4ZM393.7,157.4c-.6.9-.8,2.1-.8,3.4h0c1.3-.2,2.3-.7,3.1-1.3.7-.6,1.1-1.3,1.1-2.1s-.1-.8-.3-1c-.2-.3-.5-.4-.9-.4-1,0-1.7.4-2.2,1.4Z"/>
    <path class="cls-1" d="M411.6,167c-.3-.9-.5-2.3-.5-4.2,0-2.9.4-5.6,1.2-8.2.2-.6.5-1.1,1-1.4.5-.3,1.1-.4,1.9-.4s.7.1.9.2.3.3.3.6-.2,1.1-.5,2.4c-.2.9-.4,1.6-.5,2.3s-.2,1.5-.3,2.4c.7-1.9,1.5-3.4,2.4-4.6s1.8-2,2.7-2.5c.9-.5,1.7-.8,2.4-.8,1.4,0,2.1.7,2.1,2.1s-.2,2.4-.7,4.7c-.4,1.9-.6,3.2-.6,3.8,0,.9.3,1.3,1,1.3s1-.3,1.6-.8,1.4-1.4,2.4-2.6c.3-.3.6-.5.9-.5s.5.1.7.4.2.6.2,1.1c0,.9-.2,1.6-.6,2-.9,1.2-2,2.1-3.1,2.9s-2.3,1.1-3.7,1.1-2-.3-2.5-1c-.6-.6-.9-1.6-.9-2.8s.2-1.7.5-3.3c.3-1.4.4-2.3.4-2.9s-.1-.5-.4-.5-.7.4-1.2,1.1-1,1.7-1.6,2.9-1,2.5-1.3,3.8c-.2,1-.5,1.7-.8,2.1-.3.4-.8.5-1.5.5-.9,0-1.5-.4-1.9-1.2Z"/>
    <path class="cls-1" d="M428.2,166.8c-.8-1-1.2-2.3-1.2-3.9s.4-3.4,1.2-5c.8-1.6,1.9-2.8,3.3-3.8s2.8-1.4,4.3-1.4.8.1,1,.3.3.5.4,1c.5-.1.9-.1,1.5-.1,1.1,0,1.6.4,1.6,1.2s-.2,1.6-.5,3.3c-.5,2.5-.8,4.3-.8,5.3s.1.6.2.8c.2.2.4.3.6.3.4,0,.9-.3,1.5-.8s1.4-1.4,2.4-2.6c.3-.3.6-.5.9-.5s.5.1.7.4.2.6.2,1.1c0,.9-.2,1.6-.6,2-.9,1.1-1.9,2.1-2.9,2.8-1,.8-2,1.2-2.9,1.2s-1.4-.2-2-.7-1.1-1.2-1.4-2c-1.1,1.8-2.6,2.8-4.3,2.8-1.3-.2-2.4-.7-3.2-1.7ZM434,164.1c.4-.6.8-1.3,1-2.3l1.2-6.1c-.9,0-1.8.4-2.6,1-.8.7-1.4,1.6-1.9,2.7-.5,1.1-.7,2.3-.7,3.5s.1,1.2.4,1.5.7.5,1.1.5c.6.1,1.1-.2,1.5-.8Z"/>
    <path class="cls-1" d="M12.1,207.8c-.6-.5-.9-1.1-.9-1.8s.2-1.1.6-1.5c.4-.4,1-.6,1.8-.6s.6,0,1,.1.7.1.9.1c0-.6-.1-1.1-.4-1.6s-.5-1-.9-1.5-.7-.9-1-1.2c-.7,1.3-1.4,2.4-2,3.2-.7.9-1.4,1.7-2.2,2.4-.4.4-.8.6-1.3.6s-.6-.1-.9-.4c-.2-.3-.3-.6-.3-.9s.2-.8.5-1.2l.4-.5c1.2-1.5,2.1-2.7,2.7-3.7.4-.6.8-1.5,1.3-2.6s1-2.2,1.5-3.3c.4-1,1.3-1.5,2.6-1.5s1,.1,1.3.2c.2.1.4.3.4.5s0,.3-.1.6-.2.6-.4.9c-.4.8-.6,1.5-.6,2s.1.7.3,1.1c.2.4.6.9,1.1,1.5.7.9,1.2,1.7,1.6,2.4.4.6.5,1.4.5,2.1s0,.5-.1.9c1.1-.4,2.3-1.5,3.8-3.3.3-.3.6-.5.9-.5s.5.1.7.4.2.6.2,1.1c0,.8-.2,1.5-.6,2-1.1,1.4-2.2,2.3-3.2,2.8s-2.2.8-3.7.8c-.9.7-1.9,1.1-3.1,1.1-.9,0-1.8-.2-2.4-.7Z"/>
    <path class="cls-1" d="M38.1,200.8c.2.3.2.6.2,1.1,0,.9-.2,1.6-.6,2-.9,1.2-2,2.1-3.1,2.9-1.1.7-2.4,1.1-3.9,1.1-4.5,0-6.7-3.2-6.7-9.5s0-1.9.1-2.9h-1.3c-.7,0-1.1-.1-1.3-.4s-.3-.6-.3-1.2c0-1.2.5-1.8,1.5-1.8h1.9c.4-2.4.9-4.6,1.7-6.6.8-2,1.7-3.6,2.8-4.8,1.1-1.2,2.3-1.8,3.5-1.8s1.6.4,2.2,1.2c.5.8.8,1.8.8,3.1,0,3.4-1.4,6.4-4.3,8.9h3.7c.4,0,.6.1.8.2.2.2.2.4.2.9,0,1.5-1.2,2.3-3.7,2.3h-4c0,1.1-.1,2-.1,2.6,0,2.3.3,3.9.8,4.8.5.9,1.4,1.4,2.6,1.4s1.8-.3,2.5-.9,1.6-1.4,2.6-2.6c.3-.3.6-.5.9-.5,0,.1.3.2.5.5ZM30.5,183.3c-.4.8-.8,2-1.2,3.4-.4,1.5-.7,3.1-.9,4.9,1.3-1.1,2.3-2.4,2.9-3.8s1-2.7,1-3.8-.2-1.9-.7-1.9c-.3,0-.7.4-1.1,1.2Z"/>
    <path class="cls-1" d="M53.1,198c.2.3.2.6.2,1.1,0,1.1-.3,1.7-1,1.9-1.3.5-2.8.7-4.4.8-.4,1.8-1.2,3.3-2.5,4.4-1.2,1.1-2.6,1.7-4.2,1.7s-2.4-.3-3.4-1c-.9-.6-1.6-1.5-2.1-2.5-.5-1.1-.7-2.2-.7-3.4,0-1.7.3-3.2,1-4.5.6-1.3,1.5-2.3,2.6-3.1,1.1-.7,2.4-1.1,3.7-1.1s3,.6,4,1.7c1,1.2,1.6,2.6,1.8,4.3,1-.1,2.3-.3,3.7-.7.2,0,.3-.1.5-.1.5.1.7.2.8.5ZM43.5,203.5c.5-.6.9-1.4,1-2.5-.7-.5-1.2-1.1-1.6-1.8-.4-.7-.5-1.5-.5-2.4s0-.7,0-1.1h-.2c-.9,0-1.6.4-2.2,1.3-.6.8-.9,2-.9,3.6s.2,2.1.7,2.8c.5.6,1,1,1.7,1s1.4-.3,1.9-.9Z"/>
    <path class="cls-1" d="M63.7,200.8c.2.3.2.6.2,1.1,0,.9-.2,1.6-.6,2-.9,1.2-2,2.1-3.1,2.9-1.1.7-2.4,1.1-3.8,1.1s-3.4-.9-4.3-2.6-1.4-4-1.4-6.8.3-5.7,1-9.2,1.7-6.4,3.1-8.8c1.4-2.5,3-3.7,4.8-3.7s1.9.5,2.5,1.5.9,2.4.9,4.2c0,2.6-.7,5.7-2.2,9.1s-3.4,6.9-5.9,10.3c.2.9.4,1.5.8,1.9.4.4.8.6,1.4.6.9,0,1.7-.3,2.4-.8s1.6-1.4,2.6-2.7c.3-.3.6-.5.9-.5s.5,0,.7.4ZM57.3,182.7c-.6,1.8-1.2,4.1-1.7,6.8s-.7,5.3-.8,7.8c1.6-2.6,2.8-5.2,3.7-7.7.9-2.6,1.4-4.9,1.4-7.1s-.3-2.5-.9-2.5c-.5,0-1.1.9-1.7,2.7Z"/>
    <path class="cls-1" d="M61.9,206.6c-.3-.9-.5-2.3-.5-4.2,0-2.9.4-5.6,1.2-8.2.2-.6.5-1.1,1-1.4.5-.3,1.1-.4,1.9-.4s.7.1.9.2c.2.1.3.3.3.6s-.2,1.1-.5,2.4c-.2.9-.4,1.6-.5,2.3s-.2,1.5-.3,2.4c.7-1.9,1.5-3.4,2.4-4.6.9-1.2,1.8-2,2.7-2.5.9-.5,1.7-.8,2.4-.8,1.4,0,2.1.7,2.1,2.1s-.2,2.4-.7,4.7c-.4,1.9-.6,3.2-.6,3.8,0,.9.3,1.3,1,1.3s1-.3,1.6-.8,1.4-1.4,2.4-2.6c.3-.3.6-.5.9-.5s.5.1.7.4.2.6.2,1.1c0,.9-.2,1.6-.6,2-.9,1.2-2,2.1-3.1,2.9-1.1.7-2.3,1.1-3.7,1.1s-2-.3-2.5-1c-.6-.6-.9-1.6-.9-2.8s.2-1.7.5-3.3c.3-1.4.4-2.3.4-2.9s0-.5-.4-.5-.7.4-1.2,1.1c-.5.7-1,1.7-1.6,2.9-.5,1.2-1,2.5-1.3,3.8-.2,1-.5,1.7-.8,2.1-.3.4-.8.5-1.5.5-1,0-1.6-.4-1.9-1.2Z"/>
    <path class="cls-1" d="M95.1,198c.2.3.2.6.2,1.1,0,1.1-.3,1.7-1,1.9-1.3.5-2.8.7-4.4.8-.4,1.8-1.2,3.3-2.5,4.4-1.2,1.1-2.6,1.7-4.2,1.7s-2.4-.3-3.4-1c-.9-.6-1.6-1.5-2.1-2.5-.5-1.1-.7-2.2-.7-3.4,0-1.7.3-3.2,1-4.5.6-1.3,1.5-2.3,2.6-3.1,1.1-.7,2.4-1.1,3.7-1.1s3,.6,4,1.7c1,1.2,1.6,2.6,1.8,4.3,1-.1,2.3-.3,3.7-.7.2,0,.3-.1.5-.1.5.1.7.2.8.5ZM85.5,203.5c.5-.6.9-1.4,1-2.5-.7-.5-1.2-1.1-1.6-1.8s-.5-1.5-.5-2.4,0-.7,0-1.1h-.2c-.9,0-1.6.4-2.2,1.3-.6.8-.9,2-.9,3.6s.2,2.1.7,2.8c.5.6,1,1,1.7,1s1.4-.3,1.9-.9Z"/>
    <path class="cls-1" d="M93.1,206.6c-.3-.9-.5-2.3-.5-4.2,0-2.9.4-5.6,1.2-8.2.2-.6.5-1.1,1-1.4.5-.3,1.1-.4,1.9-.4s.7.1.9.2c.2.1.3.3.3.6s-.2,1.1-.5,2.4c-.2.9-.4,1.6-.5,2.3,0,.6-.2,1.5-.3,2.4.6-1.7,1.3-3.2,2.1-4.4.8-1.2,1.7-2.1,2.5-2.7.9-.6,1.7-.9,2.5-.9s1.3.2,1.6.5.5.9.5,1.6-.2,2-.6,3.8c-.2.8-.3,1.4-.4,1.8,1.1-2.7,2.3-4.7,3.7-5.9,1.3-1.2,2.6-1.8,3.8-1.8s2.1.7,2.1,2.1-.2,2.4-.7,4.7c-.4,1.9-.6,3.2-.6,3.8,0,.9.3,1.3,1,1.3s1-.3,1.6-.8,1.4-1.4,2.4-2.6c.3-.3.6-.5.9-.5s.5.1.7.4.2.6.2,1.1c0,.9-.2,1.6-.6,2-.9,1.2-2,2.1-3.1,2.9-1.1.7-2.3,1.1-3.7,1.1s-2-.3-2.5-1c-.6-.6-.9-1.6-.9-2.8s.2-1.7.5-3.3c.3-1.4.4-2.3.4-2.9s0-.5-.4-.5-.7.4-1.2,1.1c-.5.7-1.1,1.7-1.6,2.9s-1,2.5-1.3,3.8c-.2,1.1-.5,1.8-.8,2.1s-.8.5-1.5.5-1.3-.3-1.6-1c-.4-.7-.5-1.5-.5-2.5s0-2,.3-3.6c.2-1.4.3-2.3.3-2.8s0-.5-.4-.5-.7.4-1.3,1.2c-.5.8-1,1.8-1.5,3s-.9,2.4-1.1,3.6c-.2,1-.5,1.7-.8,2.1-.3.4-.8.5-1.5.5-1.1.2-1.6-.3-2-1.1Z"/>
    <path class="cls-1" d="M126.4,206.6c-.3-.9-.5-2.3-.5-4.2,0-2.9.4-5.6,1.2-8.2.2-.6.5-1.1,1-1.4.5-.3,1.1-.4,1.9-.4s.7.1.9.2c.2.1.3.3.3.6s-.2,1.1-.5,2.4c-.2.9-.4,1.6-.5,2.3s-.2,1.5-.3,2.4c.7-1.9,1.5-3.4,2.4-4.6.9-1.2,1.8-2,2.7-2.5s1.7-.8,2.4-.8c1.4,0,2.1.7,2.1,2.1s-.2,2.4-.7,4.7c-.4,1.9-.6,3.2-.6,3.8,0,.9.3,1.3,1,1.3s1-.3,1.6-.8,1.4-1.4,2.4-2.6c.3-.3.6-.5.9-.5s.5.1.7.4.2.6.2,1.1c0,.9-.2,1.6-.6,2-.9,1.2-2,2.1-3.1,2.9-1.1.7-2.3,1.1-3.7,1.1s-2-.3-2.5-1c-.6-.6-.9-1.6-.9-2.8s.2-1.7.5-3.3c.3-1.4.4-2.3.4-2.9s-.1-.5-.4-.5-.7.4-1.2,1.1c-.5.7-1,1.7-1.6,2.9-.5,1.2-1,2.5-1.3,3.8-.2,1-.5,1.7-.8,2.1-.3.4-.8.5-1.5.5-1,0-1.6-.4-1.9-1.2Z"/>
    <path class="cls-1" d="M159.7,198c.2.3.2.6.2,1.1,0,1.1-.3,1.7-1,1.9-1.3.5-2.8.7-4.4.8-.4,1.8-1.2,3.3-2.5,4.4-1.2,1.1-2.6,1.7-4.2,1.7s-2.4-.3-3.4-1c-.9-.6-1.6-1.5-2.1-2.5-.5-1.1-.7-2.2-.7-3.4,0-1.7.3-3.2,1-4.5.6-1.3,1.5-2.3,2.6-3.1,1.1-.7,2.4-1.1,3.7-1.1s3,.6,4,1.7c1,1.2,1.6,2.6,1.8,4.3,1-.1,2.3-.3,3.7-.7.2,0,.3-.1.5-.1.4.1.6.2.8.5ZM150,203.5c.5-.6.9-1.4,1-2.5-.7-.5-1.2-1.1-1.6-1.8-.4-.7-.5-1.5-.5-2.4s0-.7.1-1.1h-.2c-.9,0-1.6.4-2.2,1.3-.6.8-.9,2-.9,3.6s.2,2.1.7,2.8c.5.6,1,1,1.7,1s1.4-.3,1.9-.9Z"/>
    <path class="cls-1" d="M174.7,200.8c.2.3.2.6.2,1s-.1.9-.2,1.2c-.2.3-.4.5-.7.8-1.9,1.3-3.3,2.2-4.2,2.8l-2.1,1.4c-.8,4.6-1.9,8.1-3.3,10.7-1.4,2.6-3.1,3.9-5.2,3.9s-2-.3-2.7-1-1.1-1.6-1.1-2.7c0-1.6.6-3.2,1.8-5s3.5-4,6.9-6.6l.2-1.3c-.4.6-.9,1.1-1.5,1.4-.6.3-1.2.5-1.8.5-1.4,0-2.5-.5-3.3-1.5s-1.2-2.3-1.2-3.9.4-3.4,1.2-5,1.9-2.8,3.3-3.8,2.8-1.4,4.3-1.4.8.1,1,.3.3.5.4,1c.4-.1.9-.1,1.5-.1s.9.1,1.2.2.3.5.3,1v.6c-.1.7-.4,2.4-.8,5.2-.1.5-.2,1.1-.3,1.7s-.2,1.3-.3,2c1.7-1.3,3.3-2.5,4.9-3.5.3-.2.5-.3.8-.3.3,0,.5.2.7.4ZM161.5,217.6c.7-1.3,1.4-3.4,2-6.3-1.7,1.5-2.9,2.8-3.7,3.9-.7,1.2-1.1,2.2-1.1,3.1s.1.7.2.9.4.4.7.4c.5,0,1.2-.7,1.9-2ZM163.8,203.6c.5-.6.8-1.5,1-2.6l1.1-5.6c-.9,0-1.7.4-2.5,1s-1.4,1.6-1.8,2.7c-.5,1.1-.7,2.3-.7,3.5s.1,1.2.4,1.5c.3.3.7.5,1.1.5.4,0,.9-.4,1.4-1Z"/>
    <path class="cls-1" d="M190.4,198c.2.3.2.6.2,1.1,0,1.1-.3,1.7-1,1.9-1.3.5-2.8.7-4.4.8-.4,1.8-1.2,3.3-2.5,4.4-1.2,1.1-2.6,1.7-4.2,1.7s-2.4-.3-3.4-1c-.9-.6-1.6-1.5-2.1-2.5-.5-1.1-.7-2.2-.7-3.4,0-1.7.3-3.2,1-4.5.6-1.3,1.5-2.3,2.6-3.1,1.1-.7,2.4-1.1,3.7-1.1s3,.6,4,1.7c1,1.2,1.6,2.6,1.8,4.3,1-.1,2.3-.3,3.7-.7.2,0,.3-.1.5-.1.4.1.6.2.8.5ZM180.7,203.5c.5-.6.9-1.4,1-2.5-.7-.5-1.2-1.1-1.6-1.8-.4-.7-.5-1.5-.5-2.4s0-.7.1-1.1h-.2c-.9,0-1.6.4-2.2,1.3-.6.8-.9,2-.9,3.6s.2,2.1.7,2.8c.5.6,1,1,1.7,1s1.4-.3,1.9-.9Z"/>
    <path class="cls-1" d="M188.3,206.6c-.3-.9-.5-2.3-.5-4.2,0-2.9.4-5.6,1.2-8.2.2-.6.5-1.1,1-1.4.5-.3,1.1-.4,1.9-.4s.7.1.9.2c.2.1.3.3.3.6s-.2,1.1-.5,2.4c-.2.9-.4,1.6-.5,2.3-.1.6-.2,1.5-.3,2.4.6-1.7,1.3-3.2,2.1-4.4s1.7-2.1,2.5-2.7c.9-.6,1.7-.9,2.5-.9s1.3.2,1.6.5.5.9.5,1.6-.2,2-.6,3.8c-.2.8-.3,1.4-.4,1.8,1.1-2.7,2.3-4.7,3.7-5.9,1.3-1.2,2.6-1.8,3.8-1.8s2.1.7,2.1,2.1-.2,2.4-.7,4.7c-.4,1.9-.6,3.2-.6,3.8,0,.9.3,1.3,1,1.3s1-.3,1.6-.8,1.4-1.4,2.4-2.6c.3-.3.6-.5.9-.5s.5.1.7.4.2.6.2,1.1c0,.9-.2,1.6-.6,2-.9,1.2-2,2.1-3.1,2.9-1.1.7-2.3,1.1-3.7,1.1s-2-.3-2.5-1c-.6-.6-.9-1.6-.9-2.8s.2-1.7.5-3.3c.3-1.4.4-2.3.4-2.9s-.1-.5-.4-.5-.7.4-1.2,1.1c-.5.7-1.1,1.7-1.6,2.9s-1,2.5-1.3,3.8c-.2,1.1-.5,1.8-.8,2.1s-.8.5-1.5.5-1.3-.3-1.6-1c-.4-.7-.5-1.5-.5-2.5s.1-2,.3-3.6c.2-1.4.3-2.3.3-2.8s-.1-.5-.4-.5-.7.4-1.3,1.2c-.5.8-1,1.8-1.5,3s-.9,2.4-1.1,3.6c-.2,1-.5,1.7-.8,2.1-.3.4-.8.5-1.5.5-1,.2-1.6-.3-2-1.1Z"/>
    <path class="cls-1" d="M227.7,200.8c.2.3.2.6.2,1.1,0,.9-.2,1.6-.6,2-.8,1-2,1.9-3.4,2.7-1.5.8-3.1,1.3-4.8,1.3s-4.1-.6-5.4-1.9-1.9-3-1.9-5.1.3-2.9,1-4.2c.6-1.3,1.5-2.3,2.7-3.1,1.1-.8,2.4-1.2,3.8-1.2s2.3.4,3.1,1.1c.8.8,1.2,1.8,1.2,3.1s-.5,2.8-1.6,3.9c-1.1,1.1-2.9,2-5.5,2.6.5,1,1.6,1.5,3.1,1.5s2.1-.3,3.4-1c1.3-.7,2.4-1.6,3.3-2.7.3-.3.6-.5.9-.5.1,0,.4,0,.5.4ZM216.7,197c-.6.9-.8,2.1-.8,3.4h0c1.3-.2,2.3-.7,3.1-1.3.7-.6,1.1-1.3,1.1-2.1s-.1-.8-.3-1c-.2-.3-.5-.4-.9-.4-1,0-1.7.4-2.2,1.4Z"/>
    <path class="cls-1" d="M240.7,200.8c.2.3.2.6.2,1.1,0,.9-.2,1.6-.6,2-.9,1.2-2,2.1-3.1,2.9-1.1.7-2.4,1.1-3.9,1.1-4.5,0-6.7-3.2-6.7-9.5s0-1.9.1-2.9h-1.3c-.7,0-1.1-.1-1.3-.4s-.3-.6-.3-1.2c0-1.2.5-1.8,1.5-1.8h1.9c.4-2.4.9-4.6,1.7-6.6s1.7-3.6,2.8-4.8,2.3-1.8,3.5-1.8,1.6.4,2.2,1.2c.5.8.8,1.8.8,3.1,0,3.4-1.4,6.4-4.3,8.9h3.7c.4,0,.6.1.8.2.2.2.2.4.2.9,0,1.5-1.2,2.3-3.7,2.3h-4c0,1.1-.1,2-.1,2.6,0,2.3.3,3.9.8,4.8.5.9,1.4,1.4,2.6,1.4s1.8-.3,2.5-.9,1.6-1.4,2.6-2.6c.3-.3.6-.5.9-.5.1.1.3.2.5.5ZM233.1,183.3c-.4.8-.8,2-1.2,3.4-.4,1.5-.7,3.1-.9,4.9,1.3-1.1,2.3-2.4,2.9-3.8s1-2.7,1-3.8-.2-1.9-.7-1.9c-.3,0-.7.4-1.1,1.2Z"/>
    <path class="cls-1" d="M239.2,206.5c-.6-.9-.9-2.1-.9-3.4s.1-3.2.3-4.5c.2-1.4.6-2.8,1.1-4.4.2-.7.5-1.1.9-1.4.4-.3,1-.4,1.9-.4s.8.1,1,.2c.2.2.3.4.3.7s-.1.8-.4,1.8c-.2.8-.4,1.6-.5,2.2-.4,2.3-.7,3.9-.7,4.6s.1.8.2,1c.1.2.3.3.5.3.3,0,.7-.3,1.2-1s1-1.7,1.6-3,1.1-3,1.6-4.9c.2-.7.4-1.1.8-1.4.4-.3.9-.4,1.6-.4s.9.1,1.1.2c.2.1.3.3.3.7,0,.6-.3,2.1-.8,4.5-.6,2.8-.9,4.6-.9,5.2s.1.7.3,1c.2.2.4.3.7.3s1-.3,1.6-.8,1.4-1.4,2.4-2.6c.3-.3.6-.5.9-.5s.5.1.7.4c.2.3.2.6.2,1.1,0,.9-.2,1.6-.6,2-.9,1.2-2,2.1-3.1,2.9-1.1.7-2.3,1.1-3.7,1.1s-1.8-.4-2.3-1.2-.7-2-.7-3.4c-.4,1.5-.9,2.6-1.7,3.4-.7.8-1.6,1.2-2.4,1.2-1.1-.1-1.9-.6-2.5-1.5Z"/>
    <path class="cls-1" d="M272.4,200.8c.2.3.2.6.2,1s-.1.9-.2,1.2c-.2.3-.4.5-.7.8-1.5,1-3.6,2.4-6.2,4.2-.9,4.6-2,8.2-3.3,10.8-1.4,2.6-3.1,3.9-5.2,3.9s-2.1-.3-2.8-1-1-1.6-1-2.7c0-1.6.6-3.2,1.8-5,1.2-1.8,3.5-4,6.8-6.6l.2-1.7c.3-2.1.5-4.2.7-6.2.1-1.2.3-3,.6-5.3.1-.6.3-1.1.7-1.4.4-.3,1-.4,1.8-.4s1.1.1,1.3.3c.2.2.3.5.3.8,0,1-.4,3.8-1.1,8.4l-.3,2.3c1.8-1.3,3.4-2.5,4.8-3.4.3-.2.5-.3.8-.3.4-.1.6,0,.8.3ZM259.2,217.6c.7-1.3,1.3-3.4,1.9-6.3-1.7,1.4-2.9,2.7-3.6,3.9s-1.1,2.2-1.1,3.1.3,1.3.9,1.3c.6-.1,1.2-.7,1.9-2ZM263.7,189.5c-.5-.4-.7-1-.7-1.8s.3-1.4.9-1.9,1.4-.8,2.3-.8,1.5.2,2,.6c.5.4.8,1,.8,1.7s-.3,1.6-.9,2.1-1.3.8-2.3.8-1.6-.3-2.1-.7Z"/>
    <path class="cls-1" d="M286,200.8c.2.3.2.6.2,1.1,0,.9-.2,1.6-.6,2-.8,1-2,1.9-3.4,2.7s-3.1,1.3-4.8,1.3-4.1-.6-5.4-1.9c-1.3-1.3-1.9-3-1.9-5.1s.3-2.9,1-4.2c.6-1.3,1.5-2.3,2.7-3.1,1.1-.8,2.4-1.2,3.8-1.2s2.3.4,3.1,1.1c.8.8,1.2,1.8,1.2,3.1s-.5,2.8-1.6,3.9-2.9,2-5.5,2.6c.5,1,1.6,1.5,3.1,1.5s2.1-.3,3.4-1,2.4-1.6,3.3-2.7c.3-.3.6-.5.9-.5,0,0,.4,0,.5.4ZM275,197c-.6.9-.8,2.1-.8,3.4h0c1.3-.2,2.3-.7,3.1-1.3.7-.6,1.1-1.3,1.1-2.1s-.1-.8-.3-1c-.2-.3-.5-.4-.9-.4-1,0-1.7.4-2.2,1.4Z"/>
    <path class="cls-1" d="M293.1,199.1c-.3-.4-.5-.8-.5-1.5s.1-1,.4-1.3.7-.5,1.3-.5l6.8-.7c.5,0,1,.1,1.3.4.3.3.4.8.4,1.4,0,1.2-.6,1.8-1.7,1.9l-6.8.7c-.4.1-.9,0-1.2-.4Z"/>
    <path class="cls-1" d="M315,206.6c-.3-.9-.5-2.3-.5-4.2,0-2.9.4-5.6,1.2-8.2.2-.6.5-1.1,1-1.4.5-.3,1.1-.4,1.9-.4s.7.1.9.2.3.3.3.6-.2,1.1-.5,2.4c-.2.9-.4,1.6-.5,2.3-.1.6-.2,1.5-.3,2.4.6-1.7,1.3-3.2,2.1-4.4.8-1.2,1.7-2.1,2.5-2.7s1.7-.9,2.5-.9,1.3.2,1.6.5c.3.4.5.9.5,1.6s-.2,2-.6,3.8c-.2.8-.3,1.4-.4,1.8,1.1-2.7,2.3-4.7,3.7-5.9,1.3-1.2,2.6-1.8,3.8-1.8s2.1.7,2.1,2.1-.2,2.4-.7,4.7c-.4,1.9-.6,3.2-.6,3.8,0,.9.3,1.3,1,1.3s1-.3,1.6-.8,1.4-1.4,2.4-2.6c.3-.3.6-.5.9-.5s.5.1.7.4.2.6.2,1.1c0,.9-.2,1.6-.6,2-.9,1.2-2,2.1-3.1,2.9-1.1.7-2.3,1.1-3.7,1.1s-2-.3-2.5-1c-.6-.6-.9-1.6-.9-2.8s.2-1.7.5-3.3c.3-1.4.4-2.3.4-2.9s-.1-.5-.4-.5-.7.4-1.2,1.1c-.5.7-1.1,1.7-1.6,2.9s-1,2.5-1.3,3.8c-.2,1.1-.5,1.8-.8,2.1s-.8.5-1.5.5-1.3-.3-1.6-1-.5-1.5-.5-2.5.1-2,.3-3.6c.2-1.4.3-2.3.3-2.8s-.1-.5-.4-.5-.7.4-1.3,1.2-1,1.8-1.5,3-.9,2.4-1.1,3.6c-.2,1-.5,1.7-.8,2.1-.3.4-.8.5-1.5.5-1.1.2-1.7-.3-2-1.1Z"/>
    <path class="cls-1" d="M339.9,206.5c-.6-.9-.9-2.1-.9-3.4s.1-3.2.3-4.5c.2-1.4.6-2.8,1.1-4.4.2-.7.5-1.1.9-1.4.4-.3,1-.4,1.9-.4s.8.1,1,.2c.2.2.3.4.3.7s-.1.8-.4,1.8c-.2.8-.4,1.6-.5,2.2-.4,2.3-.7,3.9-.7,4.6s.1.8.2,1,.3.3.5.3c.3,0,.7-.3,1.2-1s1-1.7,1.6-3,1.1-3,1.6-4.9c.2-.7.4-1.1.8-1.4.4-.3.9-.4,1.6-.4s.9.1,1.1.2c.2.1.3.3.3.7,0,.6-.3,2.1-.8,4.5-.6,2.8-.9,4.6-.9,5.2s.1.7.3,1c.2.2.4.3.7.3s1-.3,1.6-.8,1.4-1.4,2.4-2.6c.3-.3.6-.5.9-.5s.5.1.7.4.2.6.2,1.1c0,.9-.2,1.6-.6,2-.9,1.2-2,2.1-3.1,2.9-1.1.7-2.3,1.1-3.7,1.1s-1.8-.4-2.3-1.2-.7-2-.7-3.4c-.4,1.5-.9,2.6-1.7,3.4-.7.8-1.6,1.2-2.4,1.2-1.1-.1-1.9-.6-2.5-1.5Z"/>
    <path class="cls-1" d="M355.5,206.1c-1.2-1.2-1.8-2.8-1.8-4.8s.4-3.3,1.1-4.7c.7-1.3,1.6-2.4,2.7-3.1,1.1-.7,2.3-1.1,3.5-1.1s2.2.4,2.8,1.1,1,1.6,1,2.8-.2,1.7-.6,2.3-.9,1-1.6,1-.8-.1-1-.3c-.3-.2-.4-.5-.4-.8s0-.3.1-.5.1-.3.1-.4c.1-.3.2-.6.2-.9s-.1-.5-.2-.7-.3-.2-.6-.2c-.5,0-1,.2-1.4.7s-.8,1.1-1.1,1.8c-.3.8-.4,1.6-.4,2.5,0,2.6,1.1,3.8,3.3,3.8s1.9-.3,2.9-.9c1-.6,2.1-1.5,3.1-2.7.3-.3.6-.5.9-.5s.5.1.7.4.2.6.2,1.1c0,.8-.2,1.5-.6,2-1,1.3-2.3,2.3-3.7,3-1.4.7-2.8,1-4.2,1-2.2-.1-3.8-.7-5-1.9ZM360.5,189.8c-.2-.2-.3-.5-.3-.8s.1-.4.2-.6l3.1-6.9c.2-.4.5-.8.8-1s.7-.3,1.1-.3,1,.2,1.5.6c.4.4.6.9.6,1.5s-.2,1.2-.7,1.8l-4.3,5.5c-.3.4-.6.6-1.1.6s-.7-.2-.9-.4Z"/>
    <path class="cls-1" d="M386.1,200.8c.2.3.2.6.2,1.1,0,.9-.2,1.6-.6,2-1,1.2-2,2.2-3,2.9s-2.2,1.1-3.6,1.1-3.1-.5-4.1-1.5-1.6-2.3-1.6-3.9.4-1.5,1.3-1.8c1-.4,1.7-.9,2.1-1.3.4-.5.6-1.1.6-1.7s-.1-.7-.2-.9c-.2-.2-.4-.3-.6-.3-.6,0-1.2.4-2,1.3-.7.9-1.4,2-2,3.3-.6,1.4-1.1,2.7-1.5,4.2-.2,1-.5,1.7-.8,2.1-.3.4-.8.5-1.5.5s-1.2-.2-1.5-.7-.5-1.3-.6-2.3-.2-2.6-.2-4.6c0-3.4.3-6.9,1-10.6s1.7-6.8,3.1-9.3,3-3.7,4.9-3.7,1.8.4,2.5,1.3c.6.9.9,2,.9,3.4,0,2.2-.6,4.5-1.9,6.9s-3.4,5.2-6.3,8.4c-.1,1.1-.1,2.3-.1,3.5,1.1-2.8,2.3-4.7,3.6-6,1.4-1.2,2.6-1.9,3.8-1.9s2,.4,2.7,1.1c.7.7,1,1.7,1,2.8s-.3,2.3-.9,3.3-1.7,1.9-3.2,2.7c.1.6.4,1.1.8,1.4.5.4,1,.5,1.6.5s1.3-.3,2-.8c.6-.5,1.5-1.4,2.5-2.6.3-.3.6-.5.9-.5.3.2.5.3.7.6ZM373.5,181.7c-.5,1.1-1,2.7-1.4,4.6-.5,1.9-.8,4-1.1,6.3,1.4-1.6,2.5-3.4,3.4-5.2.9-1.9,1.3-3.6,1.3-5.1s-.1-1.2-.2-1.6-.4-.6-.7-.6c-.3-.1-.8.4-1.3,1.6Z"/>
    <path class="cls-1" d="M401.1,198c.2.3.2.6.2,1.1,0,1.1-.3,1.7-1,1.9-1.3.5-2.8.7-4.4.8-.4,1.8-1.2,3.3-2.5,4.4-1.2,1.1-2.6,1.7-4.2,1.7s-2.4-.3-3.4-1c-.9-.6-1.6-1.5-2.1-2.5-.5-1.1-.7-2.2-.7-3.4,0-1.7.3-3.2,1-4.5.6-1.3,1.5-2.3,2.6-3.1,1.1-.7,2.4-1.1,3.7-1.1s3,.6,4,1.7c1,1.2,1.6,2.6,1.8,4.3,1-.1,2.3-.3,3.7-.7.2,0,.3-.1.5-.1.5.1.7.2.8.5ZM391.5,203.5c.5-.6.9-1.4,1-2.5-.7-.5-1.2-1.1-1.6-1.8s-.5-1.5-.5-2.4,0-.7.1-1.1h-.2c-.9,0-1.6.4-2.2,1.3-.6.8-.9,2-.9,3.6s.2,2.1.7,2.8c.5.6,1,1,1.7,1s1.4-.3,1.9-.9Z"/>
    <path class="cls-1" d="M424,197.7c.3,0,.6.1.8.3.2.2.3.5.3.9,0,.7-.1,1.2-.4,1.6-.3.4-.7.7-1.2.8-1,.3-2.1.5-3.2.5s-1.9-.1-2.7-.4c-.6,1-1.3,2.1-2.1,3.2-.9,1.3-1.6,2.1-2.3,2.6-.6.5-1.4.7-2.2.7s-1.6-.4-2.1-1.1c-.5-.7-.8-1.8-1-3.3-.3-3.1-.4-5.8-.4-8.1v-1.2c0-.7.2-1.2.6-1.5s.9-.4,1.7-.4,1,.1,1.3.4c.3.3.4.7.4,1.3,0,2.5.2,5.8.5,9.9,1.3-2,2.3-3.5,3-4.7-.3-.6-.5-1.4-.5-2.3s.2-1.5.5-2.2.8-1.3,1.4-1.7,1.2-.7,1.9-.7,1.2.2,1.6.7.6,1.1.6,2-.3,2.1-.8,3.4c.8,0,1.9-.2,3.3-.5l.9-.2c-.2,0,0,0,.1,0Z"/>
    <path class="cls-1" d="M422.9,206.4c-.8-1-1.2-2.3-1.2-3.9s.4-3.4,1.2-5c.8-1.6,1.9-2.8,3.3-3.8s2.8-1.4,4.3-1.4.8.1,1,.3.3.5.4,1c.5-.1.9-.1,1.5-.1,1.1,0,1.6.4,1.6,1.2s-.2,1.6-.5,3.3c-.5,2.5-.8,4.3-.8,5.3s.1.6.2.8c.2.2.4.3.6.3.4,0,.9-.3,1.5-.8s1.4-1.4,2.4-2.6c.3-.3.6-.5.9-.5s.5.1.7.4.2.6.2,1.1c0,.9-.2,1.6-.6,2-.9,1.1-1.9,2.1-2.9,2.8-1,.8-2,1.2-2.9,1.2s-1.4-.2-2-.7-1.1-1.2-1.4-2c-1.1,1.8-2.6,2.8-4.3,2.8-1.3-.2-2.4-.7-3.2-1.7ZM428.7,203.7c.4-.6.8-1.3,1-2.3l1.2-6.1c-.9,0-1.8.4-2.6,1-.8.7-1.4,1.6-1.9,2.7-.5,1.1-.7,2.3-.7,3.5s.1,1.2.4,1.5.7.5,1.1.5c.6.1,1.1-.2,1.5-.8Z"/>
    <path class="cls-1" d="M438.2,206.6c-.3-.9-.5-2.3-.5-4.2,0-2.9.4-5.6,1.2-8.2.2-.6.5-1.1,1-1.4.5-.3,1.1-.4,1.9-.4s.7.1.9.2.3.3.3.6-.2,1.1-.5,2.4c-.2.9-.4,1.6-.5,2.3s-.2,1.5-.3,2.4c.7-1.9,1.5-3.4,2.4-4.6.9-1.2,1.8-2,2.7-2.5.9-.5,1.7-.8,2.4-.8,1.4,0,2.1.7,2.1,2.1s-.1,1-.3,2.1c-.2.9-.3,1.4-.3,1.6,0,.8.3,1.2.8,1.2s1.4-.5,2.4-1.5c.3-.3.6-.4.9-.4s.5.1.7.4.2.6.2,1c0,.8-.2,1.5-.7,1.9-.6.6-1.3,1.2-2.2,1.6-.8.5-1.7.7-2.6.7s-2.1-.3-2.7-.9c-.6-.6-.9-1.4-.9-2.4s0-.7.1-1c0-.4.1-.7.1-.9,0-.4-.1-.5-.4-.5s-.8.4-1.3,1.1c-.5.7-1.1,1.7-1.6,2.9s-1,2.5-1.3,3.8c-.2,1-.5,1.7-.8,2.1-.3.4-.8.5-1.5.5-.8,0-1.4-.4-1.7-1.2Z"/>
    <path class="cls-1" d="M453.4,206.4c-.8-1-1.2-2.3-1.2-3.9s.4-3.4,1.2-5c.8-1.6,1.9-2.8,3.3-3.8s2.8-1.4,4.3-1.4.8.1,1,.3.3.5.4,1c.5-.1.9-.1,1.5-.1,1.1,0,1.6.4,1.6,1.2s-.2,1.6-.5,3.3c-.5,2.5-.8,4.3-.8,5.3s.1.6.2.8c.2.2.4.3.6.3.4,0,.9-.3,1.5-.8s1.4-1.4,2.4-2.6c.3-.3.6-.5.9-.5s.5.1.7.4.2.6.2,1.1c0,.9-.2,1.6-.6,2-.9,1.1-1.9,2.1-2.9,2.8-1,.8-2,1.2-2.9,1.2s-1.4-.2-2-.7-1.1-1.2-1.4-2c-1.1,1.8-2.6,2.8-4.3,2.8-1.3-.2-2.4-.7-3.2-1.7ZM459.3,203.7c.4-.6.8-1.3,1-2.3l1.2-6.1c-.9,0-1.8.4-2.6,1-.8.7-1.4,1.6-1.9,2.7-.5,1.1-.7,2.3-.7,3.5s.1,1.2.4,1.5.7.5,1.1.5c.6.1,1-.2,1.5-.8Z"/>
    <path class="cls-1" d="M468.7,206.6c-.3-.9-.5-2.3-.5-4.2,0-2.9.4-5.6,1.2-8.2.2-.6.5-1.1,1-1.4.5-.3,1.1-.4,1.9-.4s.7.1.9.2.3.3.3.6-.2,1.1-.5,2.4c-.2.9-.4,1.6-.5,2.3s-.2,1.5-.3,2.4c.7-1.9,1.5-3.4,2.4-4.6.9-1.2,1.8-2,2.7-2.5.9-.5,1.7-.8,2.4-.8,1.4,0,2.1.7,2.1,2.1s-.2,2.4-.7,4.7c-.4,1.9-.6,3.2-.6,3.8,0,.9.3,1.3,1,1.3s1-.3,1.6-.8,1.4-1.4,2.4-2.6c.3-.3.6-.5.9-.5s.5.1.7.4.2.6.2,1.1c0,.9-.2,1.6-.6,2-.9,1.2-2,2.1-3.1,2.9-1.1.7-2.3,1.1-3.7,1.1s-2-.3-2.5-1c-.6-.6-.9-1.6-.9-2.8s.2-1.7.5-3.3c.3-1.4.4-2.3.4-2.9s-.1-.5-.4-.5-.7.4-1.2,1.1c-.5.7-1,1.7-1.6,2.9-.5,1.2-1,2.5-1.3,3.8-.2,1-.5,1.7-.8,2.1-.3.4-.8.5-1.5.5-1,0-1.5-.4-1.9-1.2Z"/>
    <path class="cls-1" d="M494.7,200.8c.2.3.2.6.2,1s-.1.9-.2,1.2c-.2.3-.4.5-.7.8-1.5,1-3.6,2.4-6.2,4.2-.9,4.6-2,8.2-3.3,10.8-1.4,2.6-3.1,3.9-5.2,3.9s-2.1-.3-2.8-1c-.7-.7-1-1.6-1-2.7,0-1.6.6-3.2,1.8-5,1.2-1.8,3.5-4,6.8-6.6l.2-1.7c.3-2.1.5-4.2.7-6.2.1-1.2.3-3,.6-5.3.1-.6.3-1.1.7-1.4.4-.3,1-.4,1.8-.4s1.1.1,1.3.3c.2.2.3.5.3.8,0,1-.4,3.8-1.1,8.4l-.3,2.3c1.8-1.3,3.4-2.5,4.8-3.4.3-.2.5-.3.8-.3.4-.1.6,0,.8.3ZM481.5,217.6c.7-1.3,1.3-3.4,1.9-6.3-1.7,1.4-2.9,2.7-3.6,3.9s-1.1,2.2-1.1,3.1.3,1.3.9,1.3c.6-.1,1.2-.7,1.9-2ZM486,189.5c-.5-.4-.7-1-.7-1.8s.3-1.4.9-1.9,1.4-.8,2.3-.8,1.5.2,2,.6c.5.4.8,1,.8,1.7s-.3,1.6-.9,2.1-1.3.8-2.3.8-1.7-.3-2.1-.7Z"/>
    <path class="cls-1" d="M508.3,200.8c.2.3.2.6.2,1.1,0,.9-.2,1.6-.6,2-.8,1-2,1.9-3.4,2.7s-3.1,1.3-4.8,1.3-4.1-.6-5.4-1.9c-1.3-1.3-1.9-3-1.9-5.1s.3-2.9,1-4.2c.6-1.3,1.5-2.3,2.7-3.1,1.1-.8,2.4-1.2,3.8-1.2s2.3.4,3.1,1.1c.8.8,1.2,1.8,1.2,3.1s-.5,2.8-1.6,3.9-2.9,2-5.5,2.6c.5,1,1.6,1.5,3.1,1.5s2.1-.3,3.4-1,2.4-1.6,3.3-2.7c.3-.3.6-.5.9-.5,0,0,.3,0,.5.4ZM497.2,197c-.6.9-.8,2.1-.8,3.4h0c1.3-.2,2.3-.7,3.1-1.3.7-.6,1.1-1.3,1.1-2.1s-.1-.8-.3-1c-.2-.3-.5-.4-.9-.4-.9,0-1.6.4-2.2,1.4Z"/>
    <path class="cls-1" d="M510.6,207.1c-.5-.5-.7-1.2-.7-2.1s.3-1.8.8-2.4c.6-.6,1.3-.9,2.4-.9s1.7.2,2.2.7.7,1.2.7,2.1-.3,1.8-.9,2.4c-.6.6-1.4.9-2.3.9-1,.1-1.7-.2-2.2-.7Z"/>
  </g>
  <g>
    <path class="cls-1" d="M130.4,79.1c3.9,1.6,6.8,4.2,9.1,7.6,2.2,3.3,3.2,6.9,3.2,10.6,0,7.5-1.1,14.6-7,20.2-5.4,5.2-12,7.4-19.3,7.8-4.6.2-9.2.2-13.7-.5-9.4-1.5-17.1-5.8-21.5-14.8-1-2-1.7-4.2-2.5-6.2-.7-1.6.2-2.5,1.5-3,2.8-1.2,5.6-2.2,8.4-3.3,1.8-.7,3.1-.3,3.9,1.6.8,1.9,1.6,3.9,2.8,5.5,2.7,3.8,6.4,6.1,11.1,6.5,1.9.2,3.9.2,5.8.5,5.9.8,12.8-3.1,14.1-8.5.8-3.7.8-7.5-1-11-1.2-2.2-3.2-3.6-5.5-4.1-2.1-.5-4.3-.6-6.5-.7-3.9,0-7.8,0-11.6,0s-4-1.1-4-4,0-4.2.2-6.2c.3-2.7.8-3.3,3.5-3.4,3.4-.2,6.9-.2,10.3,0,5,0,9.3-1.3,11.9-5.8.7-1.3,1.2-2.9,1.1-4.4,0-2.7.3-5.4-1.5-7.9-2.2-3.2-5.3-4.5-8.9-4.8-4.4-.4-8.8,0-12.8,1.8-2,1-3.8,2.7-5.2,4.5-1.3,1.7-2.1,3.9-2.9,5.9-.6,1.6-1.6,2.1-3.2,1.5-3-1.1-6-1.9-8.9-3.2-2.4-1.1-2.6-2.2-1.5-4.6,1.7-3.7,2.9-7.6,5.8-10.7,3-3.2,6.6-5.6,10.6-7.3,2.5-1,5.2-1.6,7.9-1.8,4.3-.3,8.6-1.2,13,0,2,.6,4,.9,6.1,1.2,3.7.6,6.7,2.7,9.5,5,1.6,1.3,2.8,3.3,4,5.1,2.8,4.2,3.6,8.9,3.4,13.8-.3,6.9-2.6,12.9-9,16.6-.2,0-.3.2-.5.3q-.1,0-.2.3ZM131.8,86.7c-1.8,1.4-3.9,1.5-6.1,1.1,1,.7,2,1,3,1.2,1.9.6,2.4-.9,3.1-2.3ZM123.4,116.8c.2-.2.4-.5.6-.7-.8-.7-1.6-1.5-2.6-2.1-.3-.2-1,.3-2,.7,1.7.9,2.9,1.5,4,2.1ZM118.9,114.2c-.9-1.7-2.6-.1-3.9-.4-.4-.1-.9.6-1.4.9.5.1,1.1.4,1.6.3,1.2-.2,2.4-.6,3.7-.8ZM137.2,98.1c.3-.1.6-.1.9-.2-.8-2.2-1.6-4.3-2.4-6.5-.2,0-.4,0-.6.2.7,2.2,1.4,4.4,2.1,6.5ZM123.5,86.6c0-.2.3-.4.4-.7-.5-.8-1-1.6-1.4-2.4-.2,0-.4,0-.7.2,0,.7-.5,1.6-.2,2.1.3.5,1.2.6,1.9.8ZM116.3,81.9c-.2-1.9-.4-3.6-.6-5.5-1.3,1.3-.8,4.8.6,5.5ZM127,81.1c1.6-1.4,1.7-1.9.9-2.5-.3-.2-1-.2-1.4,0s-.6.8-1.2,1.6c.9-.2,1.3-.3,1.8-.4,0,.3,0,.7-.1,1.3ZM110.6,79.9c1-.7,1.6-1,2.1-1.5s.4-.5.5-.8c0-.2-.4-.6-.4-.5-.7.3-1.5.6-2,1-.3.4,0,1.1-.2,1.8ZM132.6,114.5c-.3-1.6-.5-3-.8-4.4-.2,0-.4-.1-.6-.1-.4.4-.7.8-1.2,1.5,3.4-.5.5,2.4,2.6,3Z"/>
    <path class="cls-1" d="M52.1,52.4c-1.9,0-3.6-.3-5.2-.3-4,0-7.9.3-11.9.3s-6.6-.3-9.8-.3c-4,0-8,0-12,0s-3.5-1.1-3.5-3.6,0-4.5.1-6.8c.1-2.4,1.3-3.6,3.7-3.6s5.7,0,8.5.2c1.5,0,2.9-.2,4.4-.2h18.4c5.4,0,10.7,0,16.1,0s4.2.2,6.4.4c2,.2,3,1.6,2.8,3.6-.2,2.5,0,5-.4,7.5,0,1.2-.6,2.3-1.1,3.5-2.5,5.7-5.1,11.4-7.6,17.1-2.1,4.5-4.2,9-6.3,13.5-2.4,5.3-4.7,10.7-7.1,16.1-1.2,2.6-2.6,5.1-3.7,7.6-2,4.3-4,8.7-5.9,13-.8,1.8-1.9,3.1-3.9,3.2-3.4.1-6.8.4-10.1.2-2.8-.1-3.4-1.3-2.4-3.8,1-2.6,2.3-5,3.4-7.5,2.2-4.9,4.4-9.9,6.7-14.8,2-4.3,4.1-8.5,6.1-12.8,2.4-5.2,4.6-10.5,7-15.7,1.7-3.6,3.5-7.2,5.2-10.8.7-1.9,1.3-3.8,2.1-5.9ZM36.1,42.5c-1.1,2-1.9,3.5-2.7,4.9.9-.5,1.8-.9,3.1-1.5,0-.8-.2-1.9-.4-3.4ZM37.8,110.1c-2.4.7-2.8,1.7-2.5,5.4,1-2,1.7-3.5,2.5-5.4ZM23.4,50.6c.9-.8,1.4-1.2,1.9-1.7-1.1-.9-1.9-1.6-2.7-2.2-.2,0-.4.3-.6.4.4,1,.8,2,1.4,3.5ZM30.2,47.7c-.2-.2-.4-.5-.6-.7-1,.9-2,1.7-3,2.6.1.2.3.3.4.5,1-.7,2.1-1.5,3.2-2.4Z"/>
    <path class="cls-1" d="M169.3,123.8c-1.3-.1-3-.3-4.8-.4-2-.2-2.7-1-1.7-2.8.9-1.8,2.1-3.4,3.3-5,3.2-4.5,6.4-8.9,9.7-13.3,3.7-5,7.6-10,11.3-15,4-5.4,7.8-10.8,11.8-16.1,3.2-4.3,6.4-8.6,9.6-12.9,1.7-2.2,3.3-4.5,4.9-6.7,2.8-3.7,5.6-7.4,8.3-11.2,1.4-2,3.6-1.9,5.6-2.1,2.3-.3,4.7,0,7,.2,2,0,2.8,1.6,1.6,3.2-2.3,3.3-4.9,6.5-7.3,9.8-1.9,2.7-3.7,5.4-5.6,8.1-1.5,2-3.1,4-4.6,6-3.1,4.2-6.1,8.4-9.2,12.5-2.9,3.9-5.9,7.8-8.9,11.8-2.5,3.4-5.1,6.8-7.6,10.2-3.6,4.9-7.2,9.9-10.8,14.9-1.6,2.2-3.2,4.4-4.8,6.6-1.8,2.3-4.6,2.1-7.8,2.2ZM212.3,65.2c.1-2.2.1-4.1,2.3-4.7.1,0,.1-1.3-.2-1.5-.8-.6-1.8-1-2.8-1.4-.8,1.7,2.4,4.8-1.7,4.8.8.8,1.5,1.7,2.4,2.8ZM221.3,51.3c0-.2-.1-.4-.1-.6-.6-.3-1.1-.7-1.7-1-.4.9-1.3,1.9-1.2,2.8.1,1.1,1,1.9,2.7,1.6-.6-1-3.2-2.1.3-2.8ZM210.9,66c-1.6-.6-1.7-2.9-4-2.3,2,.9,2,2.5,1.2,4.5,1.2-.8,1.8-1.3,2.8-2.2ZM186.9,97.5c-1.4-2.4-2.8.3-4.3-.2.9,1.4,2.5,1.5,4.3.2ZM215.4,57.2c-.1.2-.3.4-.4.6q1.9,3,2.7,2.6c-.3-.6-.6-1.3-1-1.9-.3-.6-.8-.9-1.3-1.3ZM202.1,83.1c-.2-.6-.3-1.4-.4-1.4-1.4,0-2.7.3-4.1.4,0,0,.1.3.1.4,1.3.3,2.6.4,4.4.6ZM216.7,53.1c-1.1,1-2,2-2.9,2.9,2.6-.6,3.4-1.6,2.9-2.9ZM206.5,72.6c.2-.2.3-.4.5-.6-.9-.8-3-.8-2.2-3-.5.7-.9,1.6-.6,1.9.5.7,1.4,1.1,2.3,1.7ZM187.3,91.7c-.3,0-.6,0-.9,0,.1.8.2,1.7.3,2.5,0,0,.7,0,1,0-.1-.8-.2-1.7-.4-2.5Z"/>
    <path class="cls-1" d="M153.5,60.9c.3-4.8-.8-9.9,1.4-14.5,1.6-3.2,3.7-5.9,7.1-7.6,6.4-3.2,12.9-3.3,19.6-1.4,4.4,1.2,8.1,3.7,10.1,7.9,1.2,2.5,1.7,5.5,1.9,8.3.2,4.4.1,8.9-.3,13.4-.2,1.8-.9,3.9-2,5.4-3.6,4.9-8.3,7.9-14.6,7.8-3.3,0-6.6-.2-9.8-.5-6.6-.7-13.5-7.7-13.4-15.6.1-1.1,0-2.2,0-3.2ZM181.9,58.9q.1,0,0,0c0-1.6.2-3.3,0-4.9-.3-3.1-1.9-5.5-5-6.3-1.1-.3-2.3,0-3.5-.2-3.4-.3-7,1.6-7.7,4.9-.6,3-.4,6.3-.4,9.4s.2,2.2.6,3.2c1.4,3.6,7.4,5.5,11.1,4,4-1.7,5.3-4.6,5-8.6-.1-.4-.1-1-.1-1.5ZM156.5,55.9c2.1,1.2,2.8.8,2.9-1.1,0-.4.3-1,.6-1.1,1.8-.7,1.1-1.6.5-2.4-1.1.6-2,1.2-3.1,1.8,1.4,1.2.6,2-.9,2.8ZM161,69c1.1-1.9,2.6-3.2,1.3-5.4-.2,1.8-2,3.1-1.3,5.4ZM176.3,41.2c-.7,1.4-1.2,2.5-1.7,3.6,1.5-.3,2.6-.9,2.7-2.5,0-.3-.6-.7-1-1.1ZM165.9,43.8c0-.2-.1-.4-.1-.6-1.4.3-3.1-1.1-4.3.6,0,.2.1.5.1.7,1.4-.3,2.9-.5,4.3-.7Z"/>
    <path class="cls-1" d="M245.2,103.6c-.4,3.3-.7,6.5-1.1,9.7-.8,5.7-7.6,10.9-13,11.7-3.9.6-7.6.2-11.4.2-5.8,0-13.1-6-14.2-11.8-1.3-7.2-1.2-14.5.8-21.7,1.1-4.1,4.4-6.6,8.1-8.4,5-2.4,10.4-2.7,15.8-1.7,6.3,1.2,11.7,4.2,13.7,10.8,1,3.6.9,7.5,1.3,11.2ZM233.4,100.8c-.4-1.4-.8-3.6-1.8-5.5-1.7-3.2-5.2-2.7-8-2.7-4.4,0-7.8,3.3-7,7.8.2,1.1-.2,2.3-.1,3.5.1,2.2.1,4.5.7,6.5.9,2.7,3.3,4,6.1,4.2,5,.3,9.3-1,9.8-6.8.2-2.1.2-4.2.3-7ZM206.9,100.5c.4.4.9.9,1.4,1.5.6-.8,1-1.4,1.3-1.9.6.4,1.1.7,1.5,1,0-.9.1-1.8.1-2.8-1.4.7-2.6,1.4-4.3,2.2ZM207.9,98.6c.1.1.2.3.3.4.6-.5,1.7-1,1.7-1.6.1-.8-.6-1.7-1-3-.4,1.8-.7,3-1,4.2ZM210,114.2c-.7,2.3,1,2.9,2.6,3.9.1-.8.2-1.4.4-2.5-.9.5-1.4.8-1.8,1-.2-.1-.3-.2-.3-.3-.3-.7-.6-1.4-.9-2.1ZM213.4,95.5c1.1-1.9.7-2.7-1.9-3.1.7,1.1,1.3,2.1,1.9,3.1ZM219.6,117.8c.1.1.3.1.4.2.3-.5.6-1,.9-1.6-.6-.3-1.1-.9-1.7-.9s-1,.7-1.4,1c.1.1.2.3.4.4.5-.2,1.1-.4,1.9-.7-.2.8-.4,1.2-.5,1.6Z"/>
  </g>
</svg>
