<?xml version="1.0" encoding="utf-8"?>
<!-- Generator: Adobe Illustrator 28.3.0, SVG Export Plug-In . SVG Version: 6.00 Build 0)  -->
<svg version="1.1" id="Layer_1" xmlns="http://www.w3.org/2000/svg" xmlns:xlink="http://www.w3.org/1999/xlink" x="0px" y="0px"
	 viewBox="0 0 535 364" style="enable-background:new 0 0 535 364;" xml:space="preserve">
<style type="text/css">
	.st0{fill:#FFFFFF;}
</style>
<g>
	<path d="M446.4,362H373V278h72.6v20.1h-45.6v11.6H439V329h-39.1v12.8h46.5V362z"/>
	<path d="M354.9,278v54.8c0,5.4-0.8,10-2.4,13.8c-1.6,3.9-3.9,7-6.9,9.5c-3,2.5-6.6,4.3-11,5.5c-4.3,1.2-9.1,1.7-14.5,1.7
		c-5.4,0-10.3-0.6-14.7-1.7c-4.3-1.2-7.9-3-10.9-5.5c-3-2.5-5.3-5.7-6.9-9.5c-1.6-3.9-2.4-8.5-2.4-13.8v-1.1h25.3v1
		c0,3.9,0.7,6.7,2.1,8.3c1.5,1.6,3.6,2.4,6.5,2.4c2.9,0,5.1-0.8,6.5-2.4c1.5-1.6,2.2-4.3,2.2-8.3V278H354.9z"/>
	<path d="M273.5,278V362H250l-35.3-40.7V362H190V278h23.5l35.3,41.3V278H273.5z"/>
	<path d="M149.2,278l30.6,83.9h-28.5l-3.6-11.9h-29.4l-3.6,11.9H87.2l30.7-83.9H149.2z M133.3,301.4h-0.5l-8.9,29.9h18.2
		L133.3,301.4z"/>
	<path d="M90.7,278L61.1,362H29.9L0.1,278h28.8l16.9,56.1h0.5l17-56.1H90.7z"/>
	<path d="M322.6,184.5c7.1,0,13.5,0.9,19.2,2.8c5.6,1.8,10.4,4.6,14.2,8.2c3.9,3.6,6.9,8.1,8.9,13.6c2.1,5.4,3.1,11.7,3.1,18.8
		c0,7.2-1,13.5-3.1,18.9c-2,5.4-5,9.9-8.9,13.6c-3.9,3.6-8.6,6.4-14.2,8.2c-5.6,1.8-12,2.7-19.2,2.7c-7.1,0-13.5-0.9-19.2-2.7
		c-5.6-1.9-10.3-4.6-14.2-8.2c-3.9-3.7-6.8-8.2-8.8-13.6c-2-5.4-3-11.8-3-18.9c0-7.1,1-13.4,3-18.8c2-5.4,5-10,8.8-13.6
		c3.9-3.7,8.6-6.4,14.2-8.2C309,185.5,315.4,184.5,322.6,184.5z M322.6,204.7c-3,0-5.6,0.5-7.8,1.4c-2.2,1-4,2.3-5.5,4
		c-1.5,1.7-2.6,3.8-3.3,6.1c-0.7,2.4-1.1,5-1.1,7.9v7.8c0,2.9,0.4,5.5,1.1,7.9c0.8,2.4,1.9,4.4,3.3,6.1c1.5,1.7,3.3,3,5.5,4
		c2.2,1,4.8,1.4,7.8,1.4c3,0,5.6-0.5,7.8-1.4s4.1-2.3,5.5-4c1.5-1.7,2.6-3.8,3.3-6.1c0.8-2.4,1.1-5,1.1-7.9v-7.8
		c0-2.9-0.4-5.5-1.1-7.9c-0.7-2.4-1.8-4.4-3.3-6.1c-1.5-1.7-3.3-3-5.5-4C328.2,205.2,325.6,204.7,322.6,204.7z"/>
	<path d="M272.6,186v21.4h-27.4V270h-27v-62.5h-27.6V186H272.6z"/>
	<path d="M178.8,186v50.2c0,5.8-0.9,10.9-2.8,15.3c-1.9,4.4-4.6,8-8.2,11c-3.6,2.9-7.9,5.2-13.1,6.7c-5.2,1.5-11,2.3-17.6,2.3
		c-6.6,0-12.5-0.8-17.7-2.3c-5.2-1.5-9.5-3.7-13.1-6.7c-3.6-3-6.3-6.7-8.2-11c-1.9-4.4-2.8-9.5-2.8-15.3V186h26.9v49.8
		c0,2.3,0.3,4.3,0.9,6.3c0.6,1.9,1.6,3.5,2.8,4.9c1.2,1.4,2.8,2.4,4.6,3.2c1.9,0.8,4,1.1,6.5,1.1s4.6-0.4,6.5-1.1
		c1.9-0.8,3.4-1.9,4.6-3.2c1.3-1.4,2.2-3,2.8-4.9c0.6-1.9,1-4,1-6.3V186H178.8z"/>
	<path d="M7.1,186h47.1c4,0,7.6,0.7,10.9,2.1c3.3,1.4,6.1,3.3,8.5,5.8c2.4,2.5,4.2,5.4,5.5,8.8c1.3,3.3,2,7,2,11v1.5
		c0,4-0.7,7.6-2,11c-1.3,3.4-3.2,6.3-5.5,8.8c-2.3,2.5-5.2,4.4-8.5,5.8c-3.3,1.4-6.9,2.1-10.9,2.1H34V270H7.1V186z M45.2,205.9H34
		v17.3h11.1c2.9,0,5-0.7,6.4-2.2c1.4-1.5,2.1-3.5,2.1-6v-1c0-2.5-0.7-4.5-2.1-6C50.2,206.7,48.1,205.9,45.2,205.9z"/>
	<path class="st0" d="M489.5,92.5c7.1,0,13.5,0.9,19.2,2.8c5.6,1.8,10.4,4.6,14.2,8.2c3.9,3.6,6.9,8.1,8.9,13.6
		c2.1,5.4,3.1,11.7,3.1,18.8c0,7.2-1,13.5-3.1,18.9c-2,5.4-5,9.9-8.9,13.6c-3.9,3.6-8.6,6.4-14.2,8.2c-5.6,1.8-12,2.7-19.2,2.7
		c-7.1,0-13.5-0.9-19.2-2.7c-5.6-1.9-10.3-4.6-14.2-8.2c-3.9-3.7-6.8-8.2-8.8-13.6c-2-5.4-3-11.8-3-18.9c0-7.1,1-13.4,3-18.8
		c2-5.4,5-10,8.8-13.6c3.9-3.7,8.6-6.4,14.2-8.2C475.9,93.5,482.3,92.5,489.5,92.5z M489.5,112.7c-3,0-5.6,0.5-7.8,1.4
		c-2.2,1-4,2.3-5.5,4c-1.5,1.7-2.6,3.8-3.3,6.1c-0.7,2.4-1.1,5-1.1,7.9v7.8c0,2.9,0.4,5.5,1.1,7.9c0.8,2.4,1.9,4.4,3.3,6.1
		c1.5,1.7,3.3,3,5.5,4c2.2,1,4.8,1.4,7.8,1.4c3,0,5.6-0.5,7.8-1.4s4.1-2.3,5.5-4c1.5-1.7,2.6-3.8,3.3-6.1c0.8-2.4,1.1-5,1.1-7.9
		v-7.8c0-2.9-0.4-5.5-1.1-7.9c-0.7-2.4-1.8-4.4-3.3-6.1c-1.5-1.7-3.3-3-5.5-4C495.1,113.2,492.5,112.7,489.5,112.7z"/>
	<path class="st0" d="M429.7,94V178h-23.5l-35.3-40.7V178h-24.7V94h23.5l35.3,41.3V94H429.7z"/>
	<path class="st0" d="M333.7,94v21.4h-27.4V178h-27v-62.5h-27.6V94H333.7z"/>
	<path class="st0" d="M243.2,178h-73.4V94h72.6v20.1h-45.6v11.6h39.1V145h-39.1v12.8h46.5V178z"/>
	<path class="st0" d="M151.7,94v54.8c0,5.4-0.8,10-2.4,13.8c-1.6,3.9-3.9,7-6.9,9.5c-3,2.5-6.6,4.3-11,5.5
		c-4.3,1.2-9.1,1.7-14.5,1.7c-5.4,0-10.3-0.6-14.7-1.7c-4.3-1.2-7.9-3-10.9-5.5c-3-2.5-5.3-5.7-6.9-9.5c-1.6-3.9-2.4-8.5-2.4-13.8
		v-1.1h25.3v1c0,3.9,0.7,6.7,2.1,8.3c1.5,1.6,3.6,2.4,6.5,2.4c2.9,0,5.1-0.8,6.5-2.4c1.5-1.6,2.2-4.3,2.2-8.3V94H151.7z"/>
	<path class="st0" d="M77.1,178h-70V94H34v62.5h43.1V178z"/>
	<path class="st0" d="M229.8,0.5c7.1,0,13.5,0.9,19.2,2.8c5.6,1.8,10.4,4.6,14.2,8.2c3.9,3.6,6.9,8.1,8.9,13.6
		c2.1,5.4,3.1,11.7,3.1,18.8c0,7.2-1,13.5-3.1,18.9c-2,5.4-5,9.9-8.9,13.6c-3.9,3.6-8.6,6.4-14.2,8.2c-5.6,1.8-12,2.7-19.2,2.7
		c-7.1,0-13.5-0.9-19.2-2.7c-5.6-1.9-10.3-4.6-14.2-8.2c-3.9-3.7-6.8-8.2-8.8-13.6c-2-5.4-3-11.8-3-18.9c0-7.1,1-13.4,3-18.8
		c2-5.4,5-10,8.8-13.6c3.9-3.7,8.6-6.4,14.2-8.2C216.2,1.5,222.6,0.5,229.8,0.5z M229.8,20.7c-3,0-5.6,0.5-7.8,1.4
		c-2.2,1-4,2.3-5.5,4c-1.5,1.7-2.6,3.8-3.3,6.1c-0.7,2.4-1.1,5-1.1,7.9v7.8c0,2.9,0.4,5.5,1.1,7.9c0.8,2.4,1.9,4.4,3.3,6.1
		c1.5,1.7,3.3,3,5.5,4c2.2,1,4.8,1.4,7.8,1.4c3,0,5.6-0.5,7.8-1.4c2.2-1,4.1-2.3,5.5-4c1.5-1.7,2.6-3.8,3.3-6.1
		c0.8-2.4,1.1-5,1.1-7.9v-7.8c0-2.9-0.4-5.5-1.1-7.9c-0.7-2.4-1.8-4.4-3.3-6.1c-1.5-1.7-3.3-3-5.5-4
		C235.3,21.2,232.7,20.7,229.8,20.7z"/>
	<path class="st0" d="M174.9,27.8c0,2.5-0.3,4.9-1,7.2c-0.7,2.3-1.7,4.5-3,6.5c-1.4,2-3,3.9-5.1,5.5c-2,1.6-4.4,2.9-7.1,3.9
		L177.3,86h-30.3l-14.9-30.6h-10V86H95.3V2h51.3c4.6,0,8.7,0.7,12.3,2.1c3.5,1.4,6.5,3.3,8.9,5.7c2.4,2.3,4.2,5.1,5.4,8.2
		C174.3,21.1,174.9,24.4,174.9,27.8z M147.4,28.9c0-1.1-0.2-2.1-0.6-3.1c-0.4-1-1-1.8-1.7-2.4c-0.7-0.7-1.5-1.2-2.4-1.5
		c-0.9-0.4-1.9-0.6-2.9-0.6h-17.7v15.5h17.7c1,0,2-0.2,2.9-0.6c0.9-0.4,1.7-0.9,2.4-1.6c0.7-0.7,1.3-1.5,1.7-2.5
		C147.2,31,147.4,30,147.4,28.9z"/>
	<path class="st0" d="M7.1,2h47.1c4,0,7.6,0.7,10.9,2.1c3.3,1.4,6.1,3.3,8.5,5.8c2.4,2.5,4.2,5.4,5.5,8.8c1.3,3.3,2,7,2,11v1.5
		c0,4-0.7,7.6-2,11c-1.3,3.4-3.2,6.3-5.5,8.8c-2.3,2.5-5.2,4.4-8.5,5.8c-3.3,1.4-6.9,2.1-10.9,2.1H34V86H7.1V2z M45.2,21.9H34v17.3
		h11.1c2.9,0,5-0.7,6.4-2.2c1.4-1.5,2.1-3.5,2.1-6v-1c0-2.5-0.7-4.5-2.1-6C50.2,22.7,48.1,21.9,45.2,21.9z"/>
	<rect x="373" y="220.7" width="71.2" height="5.1"/>
	<rect x="284.3" y="41.4" class="st0" width="250.5" height="5.1"/>
</g>
</svg>
