<svg width="519" height="335" viewBox="0 0 519 335" fill="none" xmlns="http://www.w3.org/2000/svg">
<path d="M476.33 256.314C483.079 256.314 489.065 257.1 494.288 258.672C499.558 260.197 503.995 262.578 507.601 265.813C511.206 269.003 513.933 273.071 515.782 278.017C517.677 282.916 518.625 288.741 518.625 295.489V300.343H462.394C462.394 305.52 463.549 309.541 465.86 312.407C468.218 315.227 472.077 316.637 477.439 316.637C479.982 316.637 482.131 316.359 483.888 315.805C485.644 315.25 487.054 314.487 488.117 313.517C489.227 312.5 490.012 311.344 490.475 310.05C490.983 308.709 491.237 307.276 491.237 305.751H518.625C518.625 310.235 517.77 314.279 516.06 317.885C514.396 321.444 511.853 324.472 508.433 326.968C505.058 329.464 500.829 331.382 495.744 332.723C490.706 334.063 484.812 334.733 478.063 334.733C471.315 334.733 465.213 333.971 459.759 332.445C454.351 330.874 449.751 328.47 445.961 325.234C442.171 321.999 439.258 317.931 437.225 313.031C435.191 308.085 434.174 302.238 434.174 295.489C434.174 288.925 435.168 283.194 437.155 278.294C439.143 273.394 441.963 269.326 445.614 266.091C449.312 262.809 453.75 260.359 458.927 258.741C464.15 257.123 469.951 256.314 476.33 256.314ZM477.439 274.342C472.678 274.342 469.119 275.474 466.762 277.739C464.451 280.004 463.041 283.078 462.532 286.961H490.128C490.128 283.032 489.019 279.958 486.8 277.739C484.581 275.474 481.461 274.342 477.439 274.342Z" fill="black"/>
<path d="M408.52 235.306V258.048H424.467V277.185H408.52V305.751C408.52 307.369 408.635 308.779 408.866 309.98C409.097 311.182 409.513 312.199 410.114 313.031C410.715 313.863 411.524 314.487 412.541 314.903C413.558 315.319 414.875 315.527 416.493 315.527H424.467V332.168C423.265 332.538 421.878 332.884 420.307 333.208C418.735 333.532 417.117 333.809 415.453 334.04C413.789 334.271 412.148 334.433 410.53 334.525C408.959 334.664 407.549 334.733 406.301 334.733C402.464 334.733 398.951 334.41 395.762 333.763C392.572 333.116 389.822 332.029 387.511 330.504C385.246 328.932 383.466 326.875 382.172 324.333C380.924 321.744 380.3 318.532 380.3 314.695V277.185H369.761V258.048H381.409L387.511 235.306H408.52Z" fill="black"/>
<path d="M318.521 256.314C325.27 256.314 331.256 257.1 336.479 258.672C341.749 260.197 346.187 262.578 349.792 265.813C353.397 269.003 356.125 273.071 357.974 278.017C359.869 282.916 360.816 288.741 360.816 295.489V300.343H304.585C304.585 305.52 305.741 309.541 308.052 312.407C310.409 315.227 314.269 316.637 319.631 316.637C322.173 316.637 324.323 316.359 326.079 315.805C327.836 315.25 329.245 314.487 330.309 313.517C331.418 312.5 332.204 311.344 332.666 310.05C333.174 308.709 333.429 307.276 333.429 305.751H360.816C360.816 310.235 359.961 314.279 358.251 317.885C356.587 321.444 354.045 324.472 350.624 326.968C347.25 329.464 343.02 331.382 337.936 332.723C332.897 334.063 327.004 334.733 320.255 334.733C313.506 334.733 307.405 333.971 301.95 332.445C296.542 330.874 291.943 328.47 288.152 325.234C284.362 321.999 281.45 317.931 279.416 313.031C277.382 308.085 276.365 302.238 276.365 295.489C276.365 288.925 277.359 283.194 279.347 278.294C281.334 273.394 284.154 269.326 287.806 266.091C291.504 262.809 295.941 260.359 301.118 258.741C306.341 257.123 312.143 256.314 318.521 256.314ZM319.631 274.342C314.87 274.342 311.311 275.474 308.953 277.739C306.642 280.004 305.232 283.078 304.724 286.961H332.319C332.319 283.032 331.21 279.958 328.991 277.739C326.772 275.474 323.652 274.342 319.631 274.342Z" fill="black"/>
<path d="M228.593 256.314C233.03 256.314 237.398 256.754 241.697 257.632C245.996 258.464 249.833 259.827 253.207 261.723C256.581 263.618 259.309 266.114 261.389 269.211C263.469 272.262 264.509 276.006 264.509 280.443H238.23C238.184 278.964 237.814 277.762 237.121 276.838C236.428 275.867 235.573 275.128 234.556 274.619C233.585 274.064 232.522 273.695 231.366 273.51C230.211 273.325 229.147 273.232 228.177 273.232C227.576 273.232 226.698 273.256 225.542 273.302C224.386 273.348 223.231 273.533 222.075 273.856C220.966 274.134 219.995 274.596 219.163 275.243C218.331 275.89 217.915 276.815 217.915 278.017C217.915 279.357 218.608 280.42 219.995 281.206C221.382 281.946 223.208 282.547 225.473 283.009C227.738 283.471 230.326 283.887 233.238 284.257C236.15 284.627 239.109 285.112 242.113 285.713C245.164 286.268 248.146 287.053 251.058 288.07C253.97 289.041 256.558 290.382 258.823 292.092C261.088 293.802 262.914 295.951 264.301 298.54C265.688 301.129 266.381 304.341 266.381 308.178C266.381 313.309 265.318 317.584 263.191 321.005C261.111 324.425 258.292 327.153 254.732 329.187C251.173 331.22 247.036 332.653 242.321 333.485C237.653 334.317 232.753 334.733 227.622 334.733C222.907 334.733 218.239 334.248 213.616 333.277C209.04 332.307 204.926 330.781 201.274 328.701C197.623 326.575 194.664 323.871 192.399 320.589C190.134 317.261 189.002 313.262 189.002 308.594H215.211V309.148C215.257 310.951 215.719 312.43 216.598 313.586C217.522 314.695 218.608 315.574 219.856 316.221C221.151 316.822 222.491 317.238 223.878 317.469C225.311 317.7 226.559 317.815 227.622 317.815C228.593 317.815 229.748 317.769 231.089 317.677C232.476 317.584 233.77 317.376 234.972 317.053C236.22 316.683 237.26 316.128 238.092 315.389C238.97 314.649 239.409 313.609 239.409 312.269C239.409 310.882 238.716 309.772 237.329 308.94C235.942 308.108 234.117 307.438 231.852 306.93C229.587 306.375 226.998 305.89 224.086 305.474C221.174 305.058 218.192 304.526 215.142 303.879C212.137 303.232 209.179 302.423 206.267 301.452C203.354 300.435 200.766 299.095 198.501 297.431C196.236 295.72 194.41 293.617 193.023 291.121C191.637 288.579 190.943 285.459 190.943 281.761C190.943 276.815 191.983 272.724 194.063 269.488C196.144 266.206 198.917 263.595 202.384 261.653C205.851 259.712 209.849 258.348 214.379 257.562C218.909 256.73 223.647 256.314 228.593 256.314Z" fill="black"/>
<path d="M137 256.314C143.749 256.314 149.735 257.1 154.958 258.672C160.228 260.197 164.665 262.578 168.271 265.813C171.876 269.003 174.603 273.071 176.452 278.017C178.347 282.916 179.295 288.741 179.295 295.489V300.343H123.063C123.063 305.52 124.219 309.541 126.53 312.407C128.888 315.227 132.747 316.637 138.109 316.637C140.652 316.637 142.801 316.359 144.558 315.805C146.314 315.25 147.724 314.487 148.787 313.517C149.896 312.5 150.682 311.344 151.145 310.05C151.653 308.709 151.907 307.276 151.907 305.751H179.295C179.295 310.235 178.44 314.279 176.729 317.885C175.065 321.444 172.523 324.472 169.103 326.968C165.728 329.464 161.499 331.382 156.414 332.723C151.376 334.063 145.482 334.733 138.733 334.733C131.985 334.733 125.883 333.971 120.429 332.445C115.021 330.874 110.421 328.47 106.631 325.234C102.84 321.999 99.9284 317.931 97.8945 313.031C95.8607 308.085 94.8438 302.238 94.8438 295.489C94.8438 288.925 95.8376 283.194 97.8252 278.294C99.8128 273.394 102.632 269.326 106.284 266.091C109.982 262.809 114.42 260.359 119.597 258.741C124.82 257.123 130.621 256.314 137 256.314ZM138.109 274.342C133.348 274.342 129.789 275.474 127.432 277.739C125.12 280.004 123.711 283.078 123.202 286.961H150.798C150.798 283.032 149.688 279.958 147.47 277.739C145.251 275.474 142.131 274.342 138.109 274.342Z" fill="black"/>
<path d="M81.0459 230.036V333H58.0264L55.5996 322.322C52.8262 326.529 49.4287 329.649 45.4072 331.683C41.3857 333.716 36.8327 334.733 31.748 334.733C26.8021 334.733 22.3646 333.924 18.4355 332.307C14.5065 330.689 11.1784 328.239 8.45117 324.957C5.77018 321.675 3.71322 317.584 2.28027 312.685C0.847331 307.739 0.130859 301.961 0.130859 295.351C0.130859 288.833 0.847331 283.124 2.28027 278.225C3.71322 273.325 5.77018 269.257 8.45117 266.021C11.1784 262.786 14.5065 260.359 18.4355 258.741C22.3646 257.123 26.8021 256.314 31.748 256.314C35.9544 256.314 39.8372 257.031 43.3965 258.464C46.9557 259.897 50.099 262.069 52.8262 264.981V230.036H81.0459ZM40.5537 277.185C38.335 277.185 36.4398 277.531 34.8682 278.225C33.3428 278.918 32.0947 279.912 31.124 281.206C30.1533 282.5 29.4368 284.049 28.9746 285.852C28.5586 287.608 28.3506 289.596 28.3506 291.814V299.372C28.3506 301.591 28.5586 303.602 28.9746 305.404C29.4368 307.161 30.1533 308.663 31.124 309.911C32.0947 311.159 33.3428 312.13 34.8682 312.823C36.4398 313.517 38.335 313.863 40.5537 313.863C42.7725 313.863 44.6676 313.447 46.2393 312.615C47.8109 311.783 49.1051 310.651 50.1221 309.218C51.139 307.739 51.8786 306.051 52.3408 304.156C52.8493 302.215 53.1035 300.135 53.1035 297.916V293.271C53.1035 291.052 52.8493 288.972 52.3408 287.03C51.8786 285.089 51.139 283.402 50.1221 281.969C49.1051 280.49 47.8109 279.334 46.2393 278.502C44.6676 277.624 42.7725 277.185 40.5537 277.185Z" fill="black"/>
<path d="M311.033 134.314C317.782 134.314 323.768 135.1 328.991 136.672C334.261 138.197 338.698 140.578 342.304 143.813C345.909 147.003 348.636 151.071 350.485 156.017C352.381 160.916 353.328 166.741 353.328 173.489V178.343H297.097C297.097 183.52 298.252 187.541 300.563 190.407C302.921 193.227 306.781 194.637 312.143 194.637C314.685 194.637 316.834 194.359 318.591 193.805C320.347 193.25 321.757 192.487 322.82 191.517C323.93 190.5 324.715 189.344 325.178 188.05C325.686 186.709 325.94 185.276 325.94 183.751H353.328C353.328 188.235 352.473 192.279 350.763 195.885C349.099 199.444 346.556 202.472 343.136 204.968C339.761 207.464 335.532 209.382 330.447 210.723C325.409 212.063 319.515 212.733 312.767 212.733C306.018 212.733 299.916 211.971 294.462 210.445C289.054 208.874 284.454 206.47 280.664 203.234C276.874 199.999 273.962 195.931 271.928 191.031C269.894 186.085 268.877 180.238 268.877 173.489C268.877 166.925 269.871 161.194 271.858 156.294C273.846 151.394 276.666 147.326 280.317 144.091C284.015 140.809 288.453 138.359 293.63 136.741C298.853 135.123 304.654 134.314 311.033 134.314ZM312.143 152.342C307.382 152.342 303.822 153.474 301.465 155.739C299.154 158.004 297.744 161.078 297.235 164.961H324.831C324.831 161.032 323.722 157.958 321.503 155.739C319.284 153.474 316.164 152.342 312.143 152.342Z" fill="black"/>
<path d="M267.421 136.048L238.785 211H209.109L180.682 136.048H211.051L224.849 182.711H225.819L239.617 136.048H267.421Z" fill="black"/>
<path d="M137 134.314C143.749 134.314 149.735 135.1 154.958 136.672C160.228 138.197 164.665 140.578 168.271 143.813C171.876 147.003 174.603 151.071 176.452 156.017C178.347 160.916 179.295 166.741 179.295 173.489V178.343H123.063C123.063 183.52 124.219 187.541 126.53 190.407C128.888 193.227 132.747 194.637 138.109 194.637C140.652 194.637 142.801 194.359 144.558 193.805C146.314 193.25 147.724 192.487 148.787 191.517C149.896 190.5 150.682 189.344 151.145 188.05C151.653 186.709 151.907 185.276 151.907 183.751H179.295C179.295 188.235 178.44 192.279 176.729 195.885C175.065 199.444 172.523 202.472 169.103 204.968C165.728 207.464 161.499 209.382 156.414 210.723C151.376 212.063 145.482 212.733 138.733 212.733C131.985 212.733 125.883 211.971 120.429 210.445C115.021 208.874 110.421 206.47 106.631 203.234C102.84 199.999 99.9284 195.931 97.8945 191.031C95.8607 186.085 94.8438 180.238 94.8438 173.489C94.8438 166.925 95.8376 161.194 97.8252 156.294C99.8128 151.394 102.632 147.326 106.284 144.091C109.982 140.809 114.42 138.359 119.597 136.741C124.82 135.123 130.621 134.314 137 134.314ZM138.109 152.342C133.348 152.342 129.789 153.474 127.432 155.739C125.12 158.004 123.711 161.078 123.202 164.961H150.798C150.798 161.032 149.688 157.958 147.47 155.739C145.251 153.474 142.131 152.342 138.109 152.342Z" fill="black"/>
<path d="M81.0459 108.036V211H58.0264L55.5996 200.322C52.8262 204.529 49.4287 207.649 45.4072 209.683C41.3857 211.716 36.8327 212.733 31.748 212.733C26.8021 212.733 22.3646 211.924 18.4355 210.307C14.5065 208.689 11.1784 206.239 8.45117 202.957C5.77018 199.675 3.71322 195.584 2.28027 190.685C0.847331 185.739 0.130859 179.961 0.130859 173.351C0.130859 166.833 0.847331 161.124 2.28027 156.225C3.71322 151.325 5.77018 147.257 8.45117 144.021C11.1784 140.786 14.5065 138.359 18.4355 136.741C22.3646 135.123 26.8021 134.314 31.748 134.314C35.9544 134.314 39.8372 135.031 43.3965 136.464C46.9557 137.897 50.099 140.069 52.8262 142.981V108.036H81.0459ZM40.5537 155.185C38.335 155.185 36.4398 155.531 34.8682 156.225C33.3428 156.918 32.0947 157.912 31.124 159.206C30.1533 160.5 29.4368 162.049 28.9746 163.852C28.5586 165.608 28.3506 167.596 28.3506 169.814V177.372C28.3506 179.591 28.5586 181.602 28.9746 183.404C29.4368 185.161 30.1533 186.663 31.124 187.911C32.0947 189.159 33.3428 190.13 34.8682 190.823C36.4398 191.517 38.335 191.863 40.5537 191.863C42.7725 191.863 44.6676 191.447 46.2393 190.615C47.8109 189.783 49.1051 188.651 50.1221 187.218C51.139 185.739 51.8786 184.051 52.3408 182.156C52.8493 180.215 53.1035 178.135 53.1035 175.916V171.271C53.1035 169.052 52.8493 166.972 52.3408 165.03C51.8786 163.089 51.139 161.402 50.1221 159.969C49.1051 158.49 47.8109 157.334 46.2393 156.502C44.6676 155.624 42.7725 155.185 40.5537 155.185Z" fill="black"/>
<path d="M226.22 89V0.793945H233.296V89H226.22Z" fill="black"/>
<path d="M184.258 90.464C178.24 90.464 173.116 89.2847 168.886 86.926C164.657 84.486 161.444 80.7853 159.248 75.824C157.052 70.8627 155.954 64.5594 155.954 56.914C155.954 49.1874 157.052 42.884 159.248 38.004C161.444 33.0427 164.657 29.3827 168.886 27.024C173.116 24.584 178.24 23.364 184.258 23.364C190.358 23.364 195.482 24.584 199.63 27.024C203.86 29.3827 207.072 33.0427 209.268 38.004C211.546 42.884 212.684 49.1874 212.684 56.914C212.684 64.5594 211.546 70.8627 209.268 75.824C207.072 80.7853 203.86 84.486 199.63 86.926C195.482 89.2847 190.358 90.464 184.258 90.464ZM184.258 84.242C188.65 84.242 192.392 83.388 195.482 81.68C198.654 79.8907 201.054 77.1254 202.68 73.384C204.307 69.5614 205.12 64.6407 205.12 58.622V55.206C205.12 49.106 204.307 44.1853 202.68 40.444C201.054 36.7027 198.654 33.978 195.482 32.27C192.392 30.4807 188.65 29.586 184.258 29.586C179.866 29.586 176.125 30.4807 173.034 32.27C169.944 33.978 167.544 36.7027 165.836 40.444C164.21 44.1853 163.396 49.106 163.396 55.206V58.622C163.396 64.6407 164.21 69.5614 165.836 73.384C167.544 77.1254 169.944 79.8907 173.034 81.68C176.125 83.388 179.866 84.242 184.258 84.242Z" fill="black"/>
<path d="M117.897 90.464C111.878 90.464 106.754 89.2847 102.525 86.926C98.2956 84.486 95.0829 80.7853 92.8869 75.824C90.6909 70.8627 89.5929 64.5594 89.5929 56.914C89.5929 49.1874 90.6909 42.884 92.8869 38.004C95.0829 33.0427 98.2956 29.3827 102.525 27.024C106.754 24.584 111.878 23.364 117.897 23.364C123.997 23.364 129.121 24.584 133.269 27.024C137.498 29.3827 140.711 33.0427 142.907 38.004C145.184 42.884 146.323 49.1874 146.323 56.914C146.323 64.5594 145.184 70.8627 142.907 75.824C140.711 80.7853 137.498 84.486 133.269 86.926C129.121 89.2847 123.997 90.464 117.897 90.464ZM117.897 84.242C122.289 84.242 126.03 83.388 129.121 81.68C132.293 79.8907 134.692 77.1254 136.319 73.384C137.946 69.5614 138.759 64.6407 138.759 58.622V55.206C138.759 49.106 137.946 44.1853 136.319 40.444C134.692 36.7027 132.293 33.978 129.121 32.27C126.03 30.4807 122.289 29.586 117.897 29.586C113.505 29.586 109.764 30.4807 106.673 32.27C103.582 33.978 101.183 36.7027 99.4749 40.444C97.8482 44.1853 97.0349 49.106 97.0349 55.206V58.622C97.0349 64.6407 97.8482 69.5614 99.4749 73.384C101.183 77.1254 103.582 79.8907 106.673 81.68C109.764 83.388 113.505 84.242 117.897 84.242Z" fill="black"/>
<path d="M41.36 90.464C32.82 90.464 25.622 88.878 19.766 85.706C13.91 82.4527 9.47734 77.6133 6.468 71.188C3.45867 64.7627 1.954 56.7513 1.954 47.154C1.954 32.758 5.41067 21.9407 12.324 14.702C19.3187 7.46333 29.038 3.84399 41.482 3.84399C48.8833 3.84399 55.3087 4.98266 60.758 7.25999C66.2887 9.53733 70.5587 12.994 73.568 17.63C76.6587 22.1847 78.204 27.9593 78.204 34.954H70.274C70.274 29.342 69.0947 24.7467 66.736 21.168C64.4587 17.5893 61.1647 14.946 56.854 13.238C52.5433 11.53 47.3787 10.676 41.36 10.676C35.1787 10.676 29.7293 11.896 25.012 14.336C20.2947 16.6947 16.6347 20.5173 14.032 25.804C11.5107 31.0093 10.25 37.882 10.25 46.422V48.984C10.25 57.28 11.5107 63.9493 14.032 68.992C16.6347 74.0347 20.2947 77.7353 25.012 80.094C29.7293 82.4527 35.2193 83.632 41.482 83.632C47.4193 83.632 52.5433 82.778 56.854 81.07C61.246 79.362 64.6213 76.7593 66.98 73.262C69.3387 69.6833 70.518 65.088 70.518 59.476H78.204C78.204 66.552 76.618 72.408 73.446 77.044C70.274 81.5987 65.882 84.974 60.27 87.17C54.7393 89.366 48.436 90.464 41.36 90.464Z" fill="black"/>
</svg>
