<svg width="519" height="335" viewBox="0 0 519 335" fill="none" xmlns="http://www.w3.org/2000/svg">
<path d="M476.33 256.314C483.079 256.314 489.065 257.1 494.288 258.672C499.558 260.197 503.995 262.578 507.601 265.813C511.206 269.003 513.933 273.071 515.782 278.017C517.677 282.916 518.625 288.741 518.625 295.489V300.343H462.394C462.394 305.52 463.549 309.541 465.86 312.407C468.218 315.227 472.077 316.637 477.439 316.637C479.982 316.637 482.131 316.359 483.888 315.805C485.644 315.25 487.054 314.487 488.117 313.517C489.227 312.5 490.012 311.344 490.475 310.05C490.983 308.709 491.237 307.276 491.237 305.751H518.625C518.625 310.235 517.77 314.279 516.06 317.885C514.396 321.444 511.853 324.472 508.433 326.968C505.058 329.464 500.829 331.382 495.744 332.723C490.706 334.063 484.812 334.733 478.063 334.733C471.315 334.733 465.213 333.971 459.759 332.445C454.351 330.874 449.751 328.47 445.961 325.234C442.171 321.999 439.258 317.931 437.225 313.031C435.191 308.085 434.174 302.238 434.174 295.489C434.174 288.925 435.168 283.194 437.155 278.294C439.143 273.394 441.963 269.326 445.614 266.091C449.312 262.809 453.75 260.359 458.927 258.741C464.15 257.123 469.951 256.314 476.33 256.314ZM477.439 274.342C472.678 274.342 469.119 275.474 466.762 277.739C464.451 280.004 463.041 283.078 462.532 286.961H490.128C490.128 283.032 489.019 279.958 486.8 277.739C484.581 275.474 481.461 274.342 477.439 274.342Z" fill="black"/>
<path d="M408.52 235.306V258.048H424.467V277.185H408.52V305.751C408.52 307.369 408.635 308.779 408.866 309.98C409.097 311.182 409.513 312.199 410.114 313.031C410.715 313.863 411.524 314.487 412.541 314.903C413.558 315.319 414.875 315.527 416.493 315.527H424.467V332.168C423.265 332.538 421.878 332.884 420.307 333.208C418.735 333.532 417.117 333.809 415.453 334.04C413.789 334.271 412.148 334.433 410.53 334.525C408.959 334.664 407.549 334.733 406.301 334.733C402.464 334.733 398.951 334.41 395.762 333.763C392.572 333.116 389.822 332.029 387.511 330.504C385.246 328.932 383.466 326.875 382.172 324.333C380.924 321.744 380.3 318.532 380.3 314.695V277.185H369.761V258.048H381.409L387.511 235.306H408.52Z" fill="black"/>
<path d="M318.521 256.314C325.27 256.314 331.256 257.1 336.479 258.672C341.749 260.197 346.187 262.578 349.792 265.813C353.397 269.003 356.125 273.071 357.974 278.017C359.869 282.916 360.816 288.741 360.816 295.489V300.343H304.585C304.585 305.52 305.741 309.541 308.052 312.407C310.409 315.227 314.269 316.637 319.631 316.637C322.173 316.637 324.323 316.359 326.079 315.805C327.836 315.25 329.245 314.487 330.309 313.517C331.418 312.5 332.204 311.344 332.666 310.05C333.174 308.709 333.429 307.276 333.429 305.751H360.816C360.816 310.235 359.961 314.279 358.251 317.885C356.587 321.444 354.045 324.472 350.624 326.968C347.25 329.464 343.02 331.382 337.936 332.723C332.897 334.063 327.004 334.733 320.255 334.733C313.506 334.733 307.405 333.971 301.95 332.445C296.542 330.874 291.943 328.47 288.152 325.234C284.362 321.999 281.45 317.931 279.416 313.031C277.382 308.085 276.365 302.238 276.365 295.489C276.365 288.925 277.359 283.194 279.347 278.294C281.334 273.394 284.154 269.326 287.806 266.091C291.504 262.809 295.941 260.359 301.118 258.741C306.341 257.123 312.143 256.314 318.521 256.314ZM319.631 274.342C314.87 274.342 311.311 275.474 308.953 277.739C306.642 280.004 305.232 283.078 304.724 286.961H332.319C332.319 283.032 331.21 279.958 328.991 277.739C326.772 275.474 323.652 274.342 319.631 274.342Z" fill="black"/>
<path d="M228.593 256.314C233.03 256.314 237.398 256.754 241.697 257.632C245.996 258.464 249.833 259.827 253.207 261.723C256.581 263.618 259.309 266.114 261.389 269.211C263.469 272.262 264.509 276.006 264.509 280.443H238.23C238.184 278.964 237.814 277.762 237.121 276.838C236.428 275.867 235.573 275.128 234.556 274.619C233.585 274.064 232.522 273.695 231.366 273.51C230.211 273.325 229.147 273.232 228.177 273.232C227.576 273.232 226.698 273.256 225.542 273.302C224.386 273.348 223.231 273.533 222.075 273.856C220.966 274.134 219.995 274.596 219.163 275.243C218.331 275.89 217.915 276.815 217.915 278.017C217.915 279.357 218.608 280.42 219.995 281.206C221.382 281.946 223.208 282.547 225.473 283.009C227.738 283.471 230.326 283.887 233.238 284.257C236.15 284.627 239.109 285.112 242.113 285.713C245.164 286.268 248.146 287.053 251.058 288.07C253.97 289.041 256.558 290.382 258.823 292.092C261.088 293.802 262.914 295.951 264.301 298.54C265.688 301.129 266.381 304.341 266.381 308.178C266.381 313.309 265.318 317.584 263.191 321.005C261.111 324.425 258.292 327.153 254.732 329.187C251.173 331.22 247.036 332.653 242.321 333.485C237.653 334.317 232.753 334.733 227.622 334.733C222.907 334.733 218.239 334.248 213.616 333.277C209.04 332.307 204.926 330.781 201.274 328.701C197.623 326.575 194.664 323.871 192.399 320.589C190.134 317.261 189.002 313.262 189.002 308.594H215.211V309.148C215.257 310.951 215.719 312.43 216.598 313.586C217.522 314.695 218.608 315.574 219.856 316.221C221.151 316.822 222.491 317.238 223.878 317.469C225.311 317.7 226.559 317.815 227.622 317.815C228.593 317.815 229.748 317.769 231.089 317.677C232.476 317.584 233.77 317.376 234.972 317.053C236.22 316.683 237.26 316.128 238.092 315.389C238.97 314.649 239.409 313.609 239.409 312.269C239.409 310.882 238.716 309.772 237.329 308.94C235.942 308.108 234.117 307.438 231.852 306.93C229.587 306.375 226.998 305.89 224.086 305.474C221.174 305.058 218.192 304.526 215.142 303.879C212.137 303.232 209.179 302.423 206.267 301.452C203.354 300.435 200.766 299.095 198.501 297.431C196.236 295.72 194.41 293.617 193.023 291.121C191.637 288.579 190.943 285.459 190.943 281.761C190.943 276.815 191.983 272.724 194.063 269.488C196.144 266.206 198.917 263.595 202.384 261.653C205.851 259.712 209.849 258.348 214.379 257.562C218.909 256.73 223.647 256.314 228.593 256.314Z" fill="black"/>
<path d="M137 256.314C143.749 256.314 149.735 257.1 154.958 258.672C160.228 260.197 164.665 262.578 168.271 265.813C171.876 269.003 174.603 273.071 176.452 278.017C178.347 282.916 179.295 288.741 179.295 295.489V300.343H123.063C123.063 305.52 124.219 309.541 126.53 312.407C128.888 315.227 132.747 316.637 138.109 316.637C140.652 316.637 142.801 316.359 144.558 315.805C146.314 315.25 147.724 314.487 148.787 313.517C149.896 312.5 150.682 311.344 151.145 310.05C151.653 308.709 151.907 307.276 151.907 305.751H179.295C179.295 310.235 178.44 314.279 176.729 317.885C175.065 321.444 172.523 324.472 169.103 326.968C165.728 329.464 161.499 331.382 156.414 332.723C151.376 334.063 145.482 334.733 138.733 334.733C131.985 334.733 125.883 333.971 120.429 332.445C115.021 330.874 110.421 328.47 106.631 325.234C102.84 321.999 99.9284 317.931 97.8945 313.031C95.8607 308.085 94.8438 302.238 94.8438 295.489C94.8438 288.925 95.8376 283.194 97.8252 278.294C99.8128 273.394 102.632 269.326 106.284 266.091C109.982 262.809 114.42 260.359 119.597 258.741C124.82 257.123 130.621 256.314 137 256.314ZM138.109 274.342C133.348 274.342 129.789 275.474 127.432 277.739C125.12 280.004 123.711 283.078 123.202 286.961H150.798C150.798 283.032 149.688 279.958 147.47 277.739C145.251 275.474 142.131 274.342 138.109 274.342Z" fill="black"/>
<path d="M81.0459 230.036V333H58.0264L55.5996 322.322C52.8262 326.529 49.4287 329.649 45.4072 331.683C41.3857 333.716 36.8327 334.733 31.748 334.733C26.8021 334.733 22.3646 333.924 18.4355 332.307C14.5065 330.689 11.1784 328.239 8.45117 324.957C5.77018 321.675 3.71322 317.584 2.28027 312.685C0.847331 307.739 0.130859 301.961 0.130859 295.351C0.130859 288.833 0.847331 283.124 2.28027 278.225C3.71322 273.325 5.77018 269.257 8.45117 266.021C11.1784 262.786 14.5065 260.359 18.4355 258.741C22.3646 257.123 26.8021 256.314 31.748 256.314C35.9544 256.314 39.8372 257.031 43.3965 258.464C46.9557 259.897 50.099 262.069 52.8262 264.981V230.036H81.0459ZM40.5537 277.185C38.335 277.185 36.4398 277.531 34.8682 278.225C33.3428 278.918 32.0947 279.912 31.124 281.206C30.1533 282.5 29.4368 284.049 28.9746 285.852C28.5586 287.608 28.3506 289.596 28.3506 291.814V299.372C28.3506 301.591 28.5586 303.602 28.9746 305.404C29.4368 307.161 30.1533 308.663 31.124 309.911C32.0947 311.159 33.3428 312.13 34.8682 312.823C36.4398 313.517 38.335 313.863 40.5537 313.863C42.7725 313.863 44.6676 313.447 46.2393 312.615C47.8109 311.783 49.1051 310.651 50.1221 309.218C51.139 307.739 51.8786 306.051 52.3408 304.156C52.8493 302.215 53.1035 300.135 53.1035 297.916V293.271C53.1035 291.052 52.8493 288.972 52.3408 287.03C51.8786 285.089 51.139 283.402 50.1221 281.969C49.1051 280.49 47.8109 279.334 46.2393 278.502C44.6676 277.624 42.7725 277.185 40.5537 277.185Z" fill="black"/>
<path d="M379.329 134.314C383.628 134.314 387.372 134.962 390.562 136.256C393.797 137.504 396.455 139.33 398.535 141.733C400.661 144.137 402.233 147.095 403.25 150.608C404.313 154.075 404.845 158.027 404.845 162.465V211H376.625V165.862C376.625 162.719 375.862 160.154 374.337 158.166C372.812 156.178 370.593 155.185 367.681 155.185C365.97 155.185 364.422 155.508 363.035 156.155C361.648 156.756 360.47 157.611 359.499 158.721C358.528 159.784 357.766 161.032 357.211 162.465C356.702 163.898 356.448 165.4 356.448 166.972V211H328.159V165.862C328.159 162.719 327.396 160.154 325.871 158.166C324.346 156.178 322.127 155.185 319.215 155.185C317.505 155.185 315.956 155.508 314.569 156.155C313.183 156.756 312.004 157.611 311.033 158.721C310.062 159.784 309.3 161.032 308.745 162.465C308.237 163.898 307.982 165.4 307.982 166.972V211H279.763V136.048H302.921L304.724 147.211C306.157 145.223 307.821 143.444 309.716 141.872C311.657 140.254 313.76 138.891 316.025 137.781C318.29 136.672 320.671 135.817 323.167 135.216C325.709 134.615 328.275 134.314 330.863 134.314C336.641 134.314 341.402 135.447 345.146 137.712C348.937 139.931 351.757 143.097 353.605 147.211C355.038 145.27 356.702 143.513 358.598 141.941C360.539 140.324 362.619 138.96 364.838 137.851C367.057 136.741 369.391 135.886 371.841 135.285C374.291 134.638 376.787 134.314 379.329 134.314Z" fill="black"/>
<path d="M222.075 134.314C227.206 134.314 232.106 134.73 236.774 135.562C241.489 136.348 245.626 137.689 249.186 139.584C252.791 141.479 255.634 143.998 257.714 147.142C259.84 150.239 260.903 154.098 260.903 158.721V187.98C260.903 189.552 261.25 190.869 261.943 191.933C262.683 192.996 263.839 193.527 265.41 193.527H270.541V209.891C269.478 210.445 268.207 210.931 266.728 211.347C265.479 211.716 263.931 212.04 262.082 212.317C260.233 212.595 258.13 212.733 255.772 212.733C250.041 212.733 245.441 211.878 241.975 210.168C238.554 208.458 236.197 206.17 234.902 203.304C233.331 204.552 231.62 205.754 229.771 206.909C227.923 208.019 225.866 209.012 223.601 209.891C221.336 210.769 218.84 211.462 216.112 211.971C213.431 212.479 210.45 212.733 207.168 212.733C203.285 212.733 199.703 212.364 196.421 211.624C193.185 210.931 190.412 209.752 188.101 208.088C185.789 206.424 183.987 204.251 182.692 201.57C181.398 198.889 180.751 195.584 180.751 191.655C180.751 186.062 181.907 181.532 184.218 178.065C186.575 174.552 189.973 171.825 194.41 169.884C198.848 167.942 204.279 166.648 210.704 166.001C217.129 165.308 224.433 164.961 232.614 164.961V161.286C232.614 159.761 232.314 158.443 231.713 157.334C231.158 156.178 230.396 155.254 229.425 154.561C228.454 153.821 227.299 153.266 225.958 152.896C224.618 152.527 223.185 152.342 221.659 152.342C220.411 152.342 219.14 152.457 217.846 152.688C216.598 152.873 215.442 153.22 214.379 153.729C213.362 154.237 212.53 154.907 211.883 155.739C211.236 156.571 210.912 157.611 210.912 158.859V159.483H183.039C182.947 159.114 182.9 158.79 182.9 158.513C182.9 158.189 182.9 157.842 182.9 157.473C182.9 154.006 183.732 150.863 185.396 148.043C187.061 145.177 189.534 142.727 192.815 140.693C196.144 138.66 200.234 137.088 205.088 135.979C209.988 134.869 215.65 134.314 222.075 134.314ZM232.614 184.722V178.343C228.408 178.343 224.802 178.597 221.798 179.105C218.84 179.568 216.413 180.238 214.518 181.116C212.622 181.948 211.236 182.965 210.357 184.167C209.479 185.323 209.04 186.594 209.04 187.98C209.04 189.46 209.317 190.661 209.872 191.586C210.427 192.51 211.143 193.227 212.021 193.735C212.946 194.244 213.986 194.614 215.142 194.845C216.297 195.03 217.476 195.122 218.678 195.122C220.48 195.122 222.214 194.868 223.878 194.359C225.588 193.851 227.09 193.134 228.385 192.21C229.679 191.285 230.696 190.199 231.436 188.951C232.221 187.657 232.614 186.247 232.614 184.722Z" fill="black"/>
<path d="M133.88 134.314C138.317 134.314 142.686 134.754 146.984 135.632C151.283 136.464 155.12 137.827 158.494 139.723C161.868 141.618 164.596 144.114 166.676 147.211C168.756 150.262 169.796 154.006 169.796 158.443H143.518C143.471 156.964 143.102 155.762 142.408 154.838C141.715 153.867 140.86 153.128 139.843 152.619C138.872 152.064 137.809 151.695 136.653 151.51C135.498 151.325 134.435 151.232 133.464 151.232C132.863 151.232 131.985 151.256 130.829 151.302C129.674 151.348 128.518 151.533 127.362 151.856C126.253 152.134 125.282 152.596 124.45 153.243C123.618 153.89 123.202 154.815 123.202 156.017C123.202 157.357 123.896 158.42 125.282 159.206C126.669 159.946 128.495 160.547 130.76 161.009C133.025 161.471 135.613 161.887 138.525 162.257C141.438 162.627 144.396 163.112 147.4 163.713C150.451 164.268 153.433 165.053 156.345 166.07C159.257 167.041 161.845 168.382 164.11 170.092C166.375 171.802 168.201 173.951 169.588 176.54C170.975 179.129 171.668 182.341 171.668 186.178C171.668 191.309 170.605 195.584 168.479 199.005C166.398 202.425 163.579 205.153 160.02 207.187C156.46 209.22 152.323 210.653 147.608 211.485C142.94 212.317 138.04 212.733 132.909 212.733C128.194 212.733 123.526 212.248 118.903 211.277C114.327 210.307 110.213 208.781 106.562 206.701C102.91 204.575 99.9515 201.871 97.6865 198.589C95.4215 195.261 94.2891 191.262 94.2891 186.594H120.498V187.148C120.544 188.951 121.007 190.43 121.885 191.586C122.809 192.695 123.896 193.574 125.144 194.221C126.438 194.822 127.778 195.238 129.165 195.469C130.598 195.7 131.846 195.815 132.909 195.815C133.88 195.815 135.035 195.769 136.376 195.677C137.763 195.584 139.057 195.376 140.259 195.053C141.507 194.683 142.547 194.128 143.379 193.389C144.257 192.649 144.696 191.609 144.696 190.269C144.696 188.882 144.003 187.772 142.616 186.94C141.229 186.108 139.404 185.438 137.139 184.93C134.874 184.375 132.285 183.89 129.373 183.474C126.461 183.058 123.479 182.526 120.429 181.879C117.424 181.232 114.466 180.423 111.554 179.452C108.642 178.435 106.053 177.095 103.788 175.431C101.523 173.72 99.6973 171.617 98.3105 169.121C96.9238 166.579 96.2305 163.459 96.2305 159.761C96.2305 154.815 97.2705 150.724 99.3506 147.488C101.431 144.206 104.204 141.595 107.671 139.653C111.138 137.712 115.136 136.348 119.666 135.562C124.196 134.73 128.934 134.314 133.88 134.314Z" fill="black"/>
<path d="M42.2871 134.314C48.666 134.314 54.4671 135.123 59.6904 136.741C64.9137 138.359 69.3512 140.809 73.0029 144.091C76.7008 147.326 79.5436 151.394 81.5312 156.294C83.5651 161.194 84.582 166.925 84.582 173.489C84.582 180.053 83.5651 185.808 81.5312 190.754C79.5436 195.654 76.7008 199.744 73.0029 203.026C69.3512 206.262 64.9137 208.689 59.6904 210.307C54.4671 211.924 48.666 212.733 42.2871 212.733C35.9082 212.733 30.1071 211.924 24.8838 210.307C19.7067 208.689 15.2692 206.262 11.5713 203.026C7.9196 199.744 5.09993 195.654 3.1123 190.754C1.12467 185.808 0.130859 180.053 0.130859 173.489C0.130859 166.925 1.12467 161.194 3.1123 156.294C5.09993 151.394 7.9196 147.326 11.5713 144.091C15.2692 140.809 19.7067 138.359 24.8838 136.741C30.1071 135.123 35.9082 134.314 42.2871 134.314ZM42.2871 153.521C39.791 153.521 37.6647 153.89 35.9082 154.63C34.1517 155.369 32.7188 156.433 31.6094 157.819C30.5 159.206 29.668 160.893 29.1133 162.881C28.6048 164.822 28.3506 167.041 28.3506 169.537V177.649C28.3506 180.146 28.6048 182.387 29.1133 184.375C29.668 186.316 30.5 187.98 31.6094 189.367C32.7188 190.708 34.1517 191.748 35.9082 192.487C37.6647 193.181 39.791 193.527 42.2871 193.527C47.2331 193.527 50.8154 192.118 53.0342 189.298C55.2529 186.478 56.3623 182.595 56.3623 177.649V169.537C56.3623 167.041 56.085 164.822 55.5303 162.881C55.0218 160.893 54.1898 159.206 53.0342 157.819C51.8786 156.433 50.4225 155.369 48.666 154.63C46.9095 153.89 44.7832 153.521 42.2871 153.521Z" fill="black"/>
<path d="M392.984 90.464C387.047 90.464 381.963 89.2847 377.734 86.926C373.586 84.486 370.414 80.7853 368.218 75.824C366.103 70.8627 365.046 64.5594 365.046 56.914C365.046 49.1874 366.103 42.884 368.218 38.004C370.414 33.0427 373.627 29.3827 377.856 27.024C382.167 24.584 387.453 23.364 393.716 23.364C399.653 23.364 404.615 24.5433 408.6 26.902C412.585 29.2607 415.595 32.636 417.628 37.028C419.661 41.42 420.678 46.7067 420.678 52.888V58.744H372.488C372.488 64.9254 373.301 69.9274 374.928 73.75C376.636 77.4914 379.035 80.216 382.126 81.924C385.217 83.5507 388.917 84.364 393.228 84.364C396.725 84.364 399.694 83.9167 402.134 83.022C404.655 82.046 406.689 80.7854 408.234 79.24C409.861 77.6947 411.081 75.9054 411.894 73.872C412.789 71.8387 413.277 69.7647 413.358 67.65H420.19C420.109 70.578 419.539 73.4247 418.482 76.19C417.425 78.874 415.798 81.314 413.602 83.51C411.406 85.6247 408.6 87.3327 405.184 88.634C401.768 89.854 397.701 90.464 392.984 90.464ZM372.488 52.766H413.358C413.358 48.4554 412.829 44.836 411.772 41.908C410.796 38.8987 409.413 36.4994 407.624 34.71C405.835 32.8394 403.72 31.4973 401.28 30.684C398.84 29.8707 396.156 29.464 393.228 29.464C388.917 29.464 385.257 30.318 382.248 32.026C379.32 33.6527 377.002 36.174 375.294 39.59C373.667 43.006 372.732 47.398 372.488 52.766Z" fill="black"/>
<path d="M302.589 89V24.828H307.957L308.811 35.32H309.665C311.535 32.2293 313.609 29.83 315.887 28.122C318.245 26.3327 320.767 25.1127 323.451 24.462C326.135 23.73 328.941 23.364 331.869 23.364C335.935 23.364 339.473 24.0147 342.483 25.316C345.573 26.6173 347.932 28.7727 349.559 31.782C351.267 34.71 352.121 38.6954 352.121 43.738V89H345.045V44.104C345.045 41.176 344.638 38.7767 343.825 36.906C343.093 34.954 342.035 33.49 340.653 32.514C339.27 31.4567 337.643 30.7247 335.773 30.318C333.983 29.9113 331.991 29.708 329.795 29.708C326.46 29.708 323.207 30.5214 320.035 32.148C316.944 33.7747 314.423 36.174 312.471 39.346C310.6 42.518 309.665 46.3814 309.665 50.936V89H302.589Z" fill="black"/>
<path d="M263.985 90.464C259.837 90.464 256.177 90.0574 253.005 89.244C249.833 88.4307 247.19 87.2514 245.075 85.706C242.961 84.0794 241.334 82.0867 240.195 79.728C239.138 77.288 238.609 74.5227 238.609 71.432C238.609 71.1067 238.609 70.7407 238.609 70.334C238.691 69.9274 238.731 69.5614 238.731 69.236H245.807C245.726 69.724 245.685 70.1307 245.685 70.456C245.685 70.7 245.685 70.9847 245.685 71.31C245.685 74.726 246.458 77.41 248.003 79.362C249.63 81.2327 251.867 82.534 254.713 83.266C257.56 83.998 260.854 84.364 264.595 84.364C267.849 84.364 270.736 83.9167 273.257 83.022C275.779 82.046 277.771 80.6634 279.235 78.874C280.781 77.0847 281.553 74.8887 281.553 72.286C281.553 69.0327 280.577 66.5927 278.625 64.966C276.755 63.258 274.315 61.9567 271.305 61.062C268.296 60.086 265.165 59.1507 261.911 58.256C259.39 57.524 256.869 56.7513 254.347 55.938C251.826 55.0434 249.549 53.9453 247.515 52.644C245.563 51.3427 243.977 49.716 242.757 47.764C241.537 45.7307 240.927 43.2094 240.927 40.2C240.927 37.6787 241.456 35.4013 242.513 33.368C243.571 31.2533 245.075 29.464 247.027 28C249.061 26.4547 251.501 25.316 254.347 24.584C257.275 23.7707 260.61 23.364 264.351 23.364C268.743 23.364 272.403 23.852 275.331 24.828C278.341 25.804 280.699 27.1867 282.407 28.976C284.197 30.684 285.457 32.5547 286.189 34.588C287.003 36.6213 287.409 38.736 287.409 40.932C287.409 41.176 287.409 41.5014 287.409 41.908C287.409 42.2334 287.369 42.5994 287.287 43.006H280.211V41.176C280.211 39.468 279.805 37.7194 278.991 35.93C278.259 34.1407 276.714 32.636 274.355 31.416C272.078 30.1147 268.621 29.464 263.985 29.464C261.301 29.464 258.983 29.708 257.031 30.196C255.079 30.684 253.453 31.3754 252.151 32.27C250.85 33.0834 249.833 34.1407 249.101 35.442C248.451 36.7434 248.125 38.2887 248.125 40.078C248.125 42.6807 248.898 44.6733 250.443 46.056C252.07 47.3573 254.144 48.4147 256.665 49.228C259.187 49.96 261.871 50.814 264.717 51.79C267.564 52.6847 270.411 53.5794 273.257 54.474C276.104 55.3687 278.707 56.4667 281.065 57.768C283.424 59.0694 285.295 60.7774 286.677 62.892C288.141 65.0067 288.873 67.772 288.873 71.188C288.873 74.2787 288.223 77.044 286.921 79.484C285.701 81.8427 283.993 83.8354 281.797 85.462C279.601 87.0887 276.958 88.3087 273.867 89.122C270.858 90.0167 267.564 90.464 263.985 90.464Z" fill="black"/>
<path d="M201.772 90.464C195.753 90.464 190.629 89.2847 186.4 86.926C182.171 84.486 178.958 80.7853 176.762 75.824C174.566 70.8627 173.468 64.5594 173.468 56.914C173.468 49.1874 174.566 42.884 176.762 38.004C178.958 33.0427 182.171 29.3827 186.4 27.024C190.629 24.584 195.753 23.364 201.772 23.364C207.872 23.364 212.996 24.584 217.144 27.024C221.373 29.3827 224.586 33.0427 226.782 38.004C229.059 42.884 230.198 49.1874 230.198 56.914C230.198 64.5594 229.059 70.8627 226.782 75.824C224.586 80.7853 221.373 84.486 217.144 86.926C212.996 89.2847 207.872 90.464 201.772 90.464ZM201.772 84.242C206.164 84.242 209.905 83.388 212.996 81.68C216.168 79.8907 218.567 77.1254 220.194 73.384C221.821 69.5614 222.634 64.6407 222.634 58.622V55.206C222.634 49.106 221.821 44.1853 220.194 40.444C218.567 36.7027 216.168 33.978 212.996 32.27C209.905 30.4807 206.164 29.586 201.772 29.586C197.38 29.586 193.639 30.4807 190.548 32.27C187.457 33.978 185.058 36.7027 183.35 40.444C181.723 44.1853 180.91 49.106 180.91 55.206V58.622C180.91 64.6407 181.723 69.5614 183.35 73.384C185.058 77.1254 187.457 79.8907 190.548 81.68C193.639 83.388 197.38 84.242 201.772 84.242Z" fill="black"/>
<path d="M121.495 89V0.793945H128.571V59.2319L159.437 24.8279H167.977L145.651 49.8379L169.197 89H161.023L140.893 55.0839L128.571 67.894V89H121.495Z" fill="black"/>
<path d="M84.3231 89V24.828H89.8131L90.5451 35.808H91.2771C91.7651 33.856 92.5378 31.9447 93.5951 30.074C94.7338 28.122 96.3198 26.536 98.3531 25.316C100.386 24.0147 102.908 23.364 105.917 23.364C107.137 23.364 108.194 23.4453 109.089 23.608C109.984 23.7707 110.634 23.9333 111.041 24.096V30.44H107.503C104.575 30.44 102.054 31.05 99.9391 32.27C97.9058 33.4087 96.2385 34.954 94.9371 36.906C93.7171 38.858 92.8225 41.054 92.2531 43.494C91.6838 45.934 91.3991 48.4147 91.3991 50.936V89H84.3231Z" fill="black"/>
<path d="M6.58997 89V5.30798H47.46C52.9093 5.30798 57.4233 6.36532 61.002 8.47999C64.5806 10.5947 67.2646 13.482 69.054 17.142C70.8433 20.802 71.738 24.95 71.738 29.586C71.738 34.466 70.6806 38.8173 68.566 42.64C66.4513 46.4627 63.6046 49.472 60.026 51.668C56.4473 53.864 52.4213 54.962 47.948 54.962H14.398V89H6.58997ZM14.398 48.008H46.972C52.0146 48.008 56.0813 46.3813 59.172 43.128C62.2626 39.8747 63.808 35.442 63.808 29.83C63.808 26.17 63.198 23.0387 61.978 20.436C60.758 17.752 58.8873 15.7187 56.366 14.336C53.926 12.9533 50.7946 12.262 46.972 12.262H14.398V48.008Z" fill="black"/>
</svg>
