<svg width="520" height="335" viewBox="0 0 520 335" fill="none" xmlns="http://www.w3.org/2000/svg">
<path d="M477.33 256.314C484.079 256.314 490.065 257.1 495.288 258.672C500.558 260.197 504.995 262.578 508.601 265.813C512.206 269.003 514.933 273.071 516.782 278.017C518.677 282.916 519.625 288.741 519.625 295.489V300.343H463.394C463.394 305.52 464.549 309.541 466.86 312.407C469.218 315.227 473.077 316.637 478.439 316.637C480.982 316.637 483.131 316.359 484.888 315.805C486.644 315.25 488.054 314.487 489.117 313.517C490.227 312.5 491.012 311.344 491.475 310.05C491.983 308.709 492.237 307.276 492.237 305.751H519.625C519.625 310.235 518.77 314.279 517.06 317.885C515.396 321.444 512.853 324.472 509.433 326.968C506.058 329.464 501.829 331.382 496.744 332.723C491.706 334.063 485.812 334.733 479.063 334.733C472.315 334.733 466.213 333.971 460.759 332.445C455.351 330.874 450.751 328.47 446.961 325.234C443.171 321.999 440.258 317.931 438.225 313.031C436.191 308.085 435.174 302.238 435.174 295.489C435.174 288.925 436.168 283.194 438.155 278.294C440.143 273.394 442.963 269.326 446.614 266.091C450.312 262.809 454.75 260.359 459.927 258.741C465.15 257.123 470.951 256.314 477.33 256.314ZM478.439 274.342C473.678 274.342 470.119 275.474 467.762 277.739C465.451 280.004 464.041 283.078 463.532 286.961H491.128C491.128 283.032 490.019 279.958 487.8 277.739C485.581 275.474 482.461 274.342 478.439 274.342Z" fill="white"/>
<path d="M409.52 235.306V258.048H425.467V277.185H409.52V305.751C409.52 307.369 409.635 308.779 409.866 309.98C410.097 311.182 410.513 312.199 411.114 313.031C411.715 313.863 412.524 314.487 413.541 314.903C414.558 315.319 415.875 315.527 417.493 315.527H425.467V332.168C424.265 332.538 422.878 332.884 421.307 333.208C419.735 333.532 418.117 333.809 416.453 334.04C414.789 334.271 413.148 334.433 411.53 334.525C409.959 334.664 408.549 334.733 407.301 334.733C403.464 334.733 399.951 334.41 396.762 333.763C393.572 333.116 390.822 332.029 388.511 330.504C386.246 328.932 384.466 326.875 383.172 324.333C381.924 321.744 381.3 318.532 381.3 314.695V277.185H370.761V258.048H382.409L388.511 235.306H409.52Z" fill="white"/>
<path d="M319.521 256.314C326.27 256.314 332.256 257.1 337.479 258.672C342.749 260.197 347.187 262.578 350.792 265.813C354.397 269.003 357.125 273.071 358.974 278.017C360.869 282.916 361.816 288.741 361.816 295.489V300.343H305.585C305.585 305.52 306.741 309.541 309.052 312.407C311.409 315.227 315.269 316.637 320.631 316.637C323.173 316.637 325.323 316.359 327.079 315.805C328.836 315.25 330.245 314.487 331.309 313.517C332.418 312.5 333.204 311.344 333.666 310.05C334.174 308.709 334.429 307.276 334.429 305.751H361.816C361.816 310.235 360.961 314.279 359.251 317.885C357.587 321.444 355.045 324.472 351.624 326.968C348.25 329.464 344.02 331.382 338.936 332.723C333.897 334.063 328.004 334.733 321.255 334.733C314.506 334.733 308.405 333.971 302.95 332.445C297.542 330.874 292.943 328.47 289.152 325.234C285.362 321.999 282.45 317.931 280.416 313.031C278.382 308.085 277.365 302.238 277.365 295.489C277.365 288.925 278.359 283.194 280.347 278.294C282.334 273.394 285.154 269.326 288.806 266.091C292.504 262.809 296.941 260.359 302.118 258.741C307.341 257.123 313.143 256.314 319.521 256.314ZM320.631 274.342C315.87 274.342 312.311 275.474 309.953 277.739C307.642 280.004 306.232 283.078 305.724 286.961H333.319C333.319 283.032 332.21 279.958 329.991 277.739C327.772 275.474 324.652 274.342 320.631 274.342Z" fill="white"/>
<path d="M229.593 256.314C234.03 256.314 238.398 256.754 242.697 257.632C246.996 258.464 250.833 259.827 254.207 261.723C257.581 263.618 260.309 266.114 262.389 269.211C264.469 272.262 265.509 276.006 265.509 280.443H239.23C239.184 278.964 238.814 277.762 238.121 276.838C237.428 275.867 236.573 275.128 235.556 274.619C234.585 274.064 233.522 273.695 232.366 273.51C231.211 273.325 230.147 273.232 229.177 273.232C228.576 273.232 227.698 273.256 226.542 273.302C225.386 273.348 224.231 273.533 223.075 273.856C221.966 274.134 220.995 274.596 220.163 275.243C219.331 275.89 218.915 276.815 218.915 278.017C218.915 279.357 219.608 280.42 220.995 281.206C222.382 281.946 224.208 282.547 226.473 283.009C228.738 283.471 231.326 283.887 234.238 284.257C237.15 284.627 240.109 285.112 243.113 285.713C246.164 286.268 249.146 287.053 252.058 288.07C254.97 289.041 257.558 290.382 259.823 292.092C262.088 293.802 263.914 295.951 265.301 298.54C266.688 301.129 267.381 304.341 267.381 308.178C267.381 313.309 266.318 317.584 264.191 321.005C262.111 324.425 259.292 327.153 255.732 329.187C252.173 331.22 248.036 332.653 243.321 333.485C238.653 334.317 233.753 334.733 228.622 334.733C223.907 334.733 219.239 334.248 214.616 333.277C210.04 332.307 205.926 330.781 202.274 328.701C198.623 326.575 195.664 323.871 193.399 320.589C191.134 317.261 190.002 313.262 190.002 308.594H216.211V309.148C216.257 310.951 216.719 312.43 217.598 313.586C218.522 314.695 219.608 315.574 220.856 316.221C222.151 316.822 223.491 317.238 224.878 317.469C226.311 317.7 227.559 317.815 228.622 317.815C229.593 317.815 230.748 317.769 232.089 317.677C233.476 317.584 234.77 317.376 235.972 317.053C237.22 316.683 238.26 316.128 239.092 315.389C239.97 314.649 240.409 313.609 240.409 312.269C240.409 310.882 239.716 309.772 238.329 308.94C236.942 308.108 235.117 307.438 232.852 306.93C230.587 306.375 227.998 305.89 225.086 305.474C222.174 305.058 219.192 304.526 216.142 303.879C213.137 303.232 210.179 302.423 207.267 301.452C204.354 300.435 201.766 299.095 199.501 297.431C197.236 295.72 195.41 293.617 194.023 291.121C192.637 288.579 191.943 285.459 191.943 281.761C191.943 276.815 192.983 272.724 195.063 269.488C197.144 266.206 199.917 263.595 203.384 261.653C206.851 259.712 210.849 258.348 215.379 257.562C219.909 256.73 224.647 256.314 229.593 256.314Z" fill="white"/>
<path d="M138 256.314C144.749 256.314 150.735 257.1 155.958 258.672C161.228 260.197 165.665 262.578 169.271 265.813C172.876 269.003 175.603 273.071 177.452 278.017C179.347 282.916 180.295 288.741 180.295 295.489V300.343H124.063C124.063 305.52 125.219 309.541 127.53 312.407C129.888 315.227 133.747 316.637 139.109 316.637C141.652 316.637 143.801 316.359 145.558 315.805C147.314 315.25 148.724 314.487 149.787 313.517C150.896 312.5 151.682 311.344 152.145 310.05C152.653 308.709 152.907 307.276 152.907 305.751H180.295C180.295 310.235 179.44 314.279 177.729 317.885C176.065 321.444 173.523 324.472 170.103 326.968C166.728 329.464 162.499 331.382 157.414 332.723C152.376 334.063 146.482 334.733 139.733 334.733C132.985 334.733 126.883 333.971 121.429 332.445C116.021 330.874 111.421 328.47 107.631 325.234C103.84 321.999 100.928 317.931 98.8945 313.031C96.8607 308.085 95.8438 302.238 95.8438 295.489C95.8438 288.925 96.8376 283.194 98.8252 278.294C100.813 273.394 103.632 269.326 107.284 266.091C110.982 262.809 115.42 260.359 120.597 258.741C125.82 257.123 131.621 256.314 138 256.314ZM139.109 274.342C134.348 274.342 130.789 275.474 128.432 277.739C126.12 280.004 124.711 283.078 124.202 286.961H151.798C151.798 283.032 150.688 279.958 148.47 277.739C146.251 275.474 143.131 274.342 139.109 274.342Z" fill="white"/>
<path d="M82.0459 230.036V333H59.0264L56.5996 322.322C53.8262 326.529 50.4287 329.649 46.4072 331.683C42.3857 333.716 37.8327 334.733 32.748 334.733C27.8021 334.733 23.3646 333.924 19.4355 332.307C15.5065 330.689 12.1784 328.239 9.45117 324.957C6.77018 321.675 4.71322 317.584 3.28027 312.685C1.84733 307.739 1.13086 301.961 1.13086 295.351C1.13086 288.833 1.84733 283.124 3.28027 278.225C4.71322 273.325 6.77018 269.257 9.45117 266.021C12.1784 262.786 15.5065 260.359 19.4355 258.741C23.3646 257.123 27.8021 256.314 32.748 256.314C36.9544 256.314 40.8372 257.031 44.3965 258.464C47.9557 259.897 51.099 262.069 53.8262 264.981V230.036H82.0459ZM41.5537 277.185C39.335 277.185 37.4398 277.531 35.8682 278.225C34.3428 278.918 33.0947 279.912 32.124 281.206C31.1533 282.5 30.4368 284.049 29.9746 285.852C29.5586 287.608 29.3506 289.596 29.3506 291.814V299.372C29.3506 301.591 29.5586 303.602 29.9746 305.404C30.4368 307.161 31.1533 308.663 32.124 309.911C33.0947 311.159 34.3428 312.13 35.8682 312.823C37.4398 313.517 39.335 313.863 41.5537 313.863C43.7725 313.863 45.6676 313.447 47.2393 312.615C48.8109 311.783 50.1051 310.651 51.1221 309.218C52.139 307.739 52.8786 306.051 53.3408 304.156C53.8493 302.215 54.1035 300.135 54.1035 297.916V293.271C54.1035 291.052 53.8493 288.972 53.3408 287.03C52.8786 285.089 52.139 283.402 51.1221 281.969C50.1051 280.49 48.8109 279.334 47.2393 278.502C45.6676 277.624 43.7725 277.185 41.5537 277.185Z" fill="white"/>
<path d="M475.042 134.314C479.341 134.314 483.085 134.962 486.274 136.256C489.51 137.504 492.168 139.33 494.248 141.733C496.374 144.137 497.946 147.095 498.963 150.608C500.026 154.075 500.558 158.027 500.558 162.465V211H472.338V165.862C472.338 162.719 471.575 160.154 470.05 158.166C468.524 156.178 466.306 155.185 463.394 155.185C461.683 155.185 460.135 155.508 458.748 156.155C457.361 156.756 456.183 157.611 455.212 158.721C454.241 159.784 453.479 161.032 452.924 162.465C452.415 163.898 452.161 165.4 452.161 166.972V211H423.872V165.862C423.872 162.719 423.109 160.154 421.584 158.166C420.059 156.178 417.84 155.185 414.928 155.185C413.217 155.185 411.669 155.508 410.282 156.155C408.896 156.756 407.717 157.611 406.746 158.721C405.775 159.784 405.013 161.032 404.458 162.465C403.95 163.898 403.695 165.4 403.695 166.972V211H375.476V136.048H398.634L400.437 147.211C401.869 145.223 403.534 143.444 405.429 141.872C407.37 140.254 409.473 138.891 411.738 137.781C414.003 136.672 416.384 135.817 418.88 135.216C421.422 134.615 423.988 134.314 426.576 134.314C432.354 134.314 437.115 135.447 440.859 137.712C444.65 139.931 447.469 143.097 449.318 147.211C450.751 145.27 452.415 143.513 454.311 141.941C456.252 140.324 458.332 138.96 460.551 137.851C462.77 136.741 465.104 135.886 467.554 135.285C470.004 134.638 472.5 134.314 475.042 134.314Z" fill="white"/>
<path d="M317.788 134.314C322.919 134.314 327.819 134.73 332.487 135.562C337.202 136.348 341.339 137.689 344.898 139.584C348.504 141.479 351.347 143.998 353.427 147.142C355.553 150.239 356.616 154.098 356.616 158.721V187.98C356.616 189.552 356.963 190.869 357.656 191.933C358.396 192.996 359.551 193.527 361.123 193.527H366.254V209.891C365.191 210.445 363.92 210.931 362.44 211.347C361.192 211.716 359.644 212.04 357.795 212.317C355.946 212.595 353.843 212.733 351.485 212.733C345.754 212.733 341.154 211.878 337.688 210.168C334.267 208.458 331.91 206.17 330.615 203.304C329.044 204.552 327.333 205.754 325.484 206.909C323.635 208.019 321.578 209.012 319.313 209.891C317.049 210.769 314.552 211.462 311.825 211.971C309.144 212.479 306.163 212.733 302.881 212.733C298.998 212.733 295.416 212.364 292.134 211.624C288.898 210.931 286.125 209.752 283.813 208.088C281.502 206.424 279.7 204.251 278.405 201.57C277.111 198.889 276.464 195.584 276.464 191.655C276.464 186.062 277.619 181.532 279.931 178.065C282.288 174.552 285.686 171.825 290.123 169.884C294.561 167.942 299.992 166.648 306.417 166.001C312.842 165.308 320.146 164.961 328.327 164.961V161.286C328.327 159.761 328.027 158.443 327.426 157.334C326.871 156.178 326.108 155.254 325.138 154.561C324.167 153.821 323.011 153.266 321.671 152.896C320.33 152.527 318.897 152.342 317.372 152.342C316.124 152.342 314.853 152.457 313.559 152.688C312.311 152.873 311.155 153.22 310.092 153.729C309.075 154.237 308.243 154.907 307.596 155.739C306.949 156.571 306.625 157.611 306.625 158.859V159.483H278.752C278.66 159.114 278.613 158.79 278.613 158.513C278.613 158.189 278.613 157.842 278.613 157.473C278.613 154.006 279.445 150.863 281.109 148.043C282.773 145.177 285.246 142.727 288.528 140.693C291.856 138.66 295.947 137.088 300.801 135.979C305.701 134.869 311.363 134.314 317.788 134.314ZM328.327 184.722V178.343C324.121 178.343 320.515 178.597 317.511 179.105C314.552 179.568 312.126 180.238 310.23 181.116C308.335 181.948 306.949 182.965 306.07 184.167C305.192 185.323 304.753 186.594 304.753 187.98C304.753 189.46 305.03 190.661 305.585 191.586C306.14 192.51 306.856 193.227 307.734 193.735C308.659 194.244 309.699 194.614 310.854 194.845C312.01 195.03 313.189 195.122 314.391 195.122C316.193 195.122 317.927 194.868 319.591 194.359C321.301 193.851 322.803 193.134 324.098 192.21C325.392 191.285 326.409 190.199 327.148 188.951C327.934 187.657 328.327 186.247 328.327 184.722Z" fill="white"/>
<path d="M263.567 108.036V211H240.548L238.121 200.322C235.348 204.529 231.95 207.649 227.929 209.683C223.907 211.716 219.354 212.733 214.27 212.733C209.324 212.733 204.886 211.924 200.957 210.307C197.028 208.689 193.7 206.239 190.973 202.957C188.292 199.675 186.235 195.584 184.802 190.685C183.369 185.739 182.652 179.961 182.652 173.351C182.652 166.833 183.369 161.124 184.802 156.225C186.235 151.325 188.292 147.257 190.973 144.021C193.7 140.786 197.028 138.359 200.957 136.741C204.886 135.123 209.324 134.314 214.27 134.314C218.476 134.314 222.359 135.031 225.918 136.464C229.477 137.897 232.62 140.069 235.348 142.981V108.036H263.567ZM223.075 155.185C220.856 155.185 218.961 155.531 217.39 156.225C215.864 156.918 214.616 157.912 213.646 159.206C212.675 160.5 211.958 162.049 211.496 163.852C211.08 165.608 210.872 167.596 210.872 169.814V177.372C210.872 179.591 211.08 181.602 211.496 183.404C211.958 185.161 212.675 186.663 213.646 187.911C214.616 189.159 215.864 190.13 217.39 190.823C218.961 191.517 220.856 191.863 223.075 191.863C225.294 191.863 227.189 191.447 228.761 190.615C230.332 189.783 231.627 188.651 232.644 187.218C233.66 185.739 234.4 184.051 234.862 182.156C235.371 180.215 235.625 178.135 235.625 175.916V171.271C235.625 169.052 235.371 166.972 234.862 165.03C234.4 163.089 233.66 161.402 232.644 159.969C231.627 158.49 230.332 157.334 228.761 156.502C227.189 155.624 225.294 155.185 223.075 155.185Z" fill="white"/>
<path d="M130.096 134.314C136.844 134.314 142.83 135.1 148.054 136.672C153.323 138.197 157.761 140.578 161.366 143.813C164.972 147.003 167.699 151.071 169.548 156.017C171.443 160.916 172.391 166.741 172.391 173.489V178.343H116.159C116.159 183.52 117.315 187.541 119.626 190.407C121.983 193.227 125.843 194.637 131.205 194.637C133.747 194.637 135.897 194.359 137.653 193.805C139.41 193.25 140.82 192.487 141.883 191.517C142.992 190.5 143.778 189.344 144.24 188.05C144.749 186.709 145.003 185.276 145.003 183.751H172.391C172.391 188.235 171.535 192.279 169.825 195.885C168.161 199.444 165.619 202.472 162.198 204.968C158.824 207.464 154.594 209.382 149.51 210.723C144.471 212.063 138.578 212.733 131.829 212.733C125.08 212.733 118.979 211.971 113.524 210.445C108.116 208.874 103.517 206.47 99.7266 203.234C95.9362 199.999 93.0241 195.931 90.9902 191.031C88.9564 186.085 87.9395 180.238 87.9395 173.489C87.9395 166.925 88.9333 161.194 90.9209 156.294C92.9085 151.394 95.7282 147.326 99.3799 144.091C103.078 140.809 107.515 138.359 112.692 136.741C117.916 135.123 123.717 134.314 130.096 134.314ZM131.205 152.342C126.444 152.342 122.885 153.474 120.527 155.739C118.216 158.004 116.806 161.078 116.298 164.961H143.894C143.894 161.032 142.784 157.958 140.565 155.739C138.347 153.474 135.227 152.342 131.205 152.342Z" fill="white"/>
<path d="M40.167 134.314C44.6045 134.314 48.9727 134.754 53.2715 135.632C57.5703 136.464 61.4069 137.827 64.7812 139.723C68.1556 141.618 70.8828 144.114 72.9629 147.211C75.043 150.262 76.083 154.006 76.083 158.443H49.8047C49.7585 156.964 49.3887 155.762 48.6953 154.838C48.002 153.867 47.1468 153.128 46.1299 152.619C45.1592 152.064 44.096 151.695 42.9404 151.51C41.7848 151.325 40.7217 151.232 39.751 151.232C39.1501 151.232 38.2718 151.256 37.1162 151.302C35.9606 151.348 34.805 151.533 33.6494 151.856C32.54 152.134 31.5693 152.596 30.7373 153.243C29.9053 153.89 29.4893 154.815 29.4893 156.017C29.4893 157.357 30.1826 158.42 31.5693 159.206C32.9561 159.946 34.7819 160.547 37.0469 161.009C39.3118 161.471 41.9004 161.887 44.8125 162.257C47.7246 162.627 50.6829 163.112 53.6875 163.713C56.7383 164.268 59.7197 165.053 62.6318 166.07C65.5439 167.041 68.1325 168.382 70.3975 170.092C72.6624 171.802 74.4883 173.951 75.875 176.54C77.2617 179.129 77.9551 182.341 77.9551 186.178C77.9551 191.309 76.8919 195.584 74.7656 199.005C72.6855 202.425 69.8659 205.153 66.3066 207.187C62.7474 209.22 58.6104 210.653 53.8955 211.485C49.2269 212.317 44.3271 212.733 39.1963 212.733C34.4814 212.733 29.8128 212.248 25.1904 211.277C20.6143 210.307 16.5003 208.781 12.8486 206.701C9.19694 204.575 6.23861 201.871 3.97363 198.589C1.70866 195.261 0.576172 191.262 0.576172 186.594H26.7852V187.148C26.8314 188.951 27.2936 190.43 28.1719 191.586C29.0964 192.695 30.1826 193.574 31.4307 194.221C32.7249 194.822 34.0654 195.238 35.4521 195.469C36.8851 195.7 38.1331 195.815 39.1963 195.815C40.167 195.815 41.3226 195.769 42.6631 195.677C44.0498 195.584 45.3441 195.376 46.5459 195.053C47.7939 194.683 48.834 194.128 49.666 193.389C50.5443 192.649 50.9834 191.609 50.9834 190.269C50.9834 188.882 50.29 187.772 48.9033 186.94C47.5166 186.108 45.6908 185.438 43.4258 184.93C41.1608 184.375 38.5723 183.89 35.6602 183.474C32.748 183.058 29.7666 182.526 26.7158 181.879C23.7113 181.232 20.7529 180.423 17.8408 179.452C14.9287 178.435 12.3402 177.095 10.0752 175.431C7.81022 173.72 5.98438 171.617 4.59766 169.121C3.21094 166.579 2.51758 163.459 2.51758 159.761C2.51758 154.815 3.55762 150.724 5.6377 147.488C7.71777 144.206 10.4912 141.595 13.958 139.653C17.4248 137.712 21.4232 136.348 25.9531 135.562C30.4831 134.73 35.221 134.314 40.167 134.314Z" fill="white"/>
<path d="M467.851 90.464C461.914 90.464 456.831 89.2847 452.601 86.926C448.453 84.486 445.281 80.7853 443.085 75.824C440.971 70.8627 439.913 64.5594 439.913 56.914C439.913 49.1874 440.971 42.884 443.085 38.004C445.281 33.0427 448.494 29.3827 452.723 27.024C457.034 24.584 462.321 23.364 468.583 23.364C474.521 23.364 479.482 24.5433 483.467 26.902C487.453 29.2607 490.462 32.636 492.495 37.028C494.529 41.42 495.545 46.7067 495.545 52.888V58.744H447.355C447.355 64.9254 448.169 69.9274 449.795 73.75C451.503 77.4914 453.903 80.216 456.993 81.924C460.084 83.5507 463.785 84.364 468.095 84.364C471.593 84.364 474.561 83.9167 477.001 83.022C479.523 82.046 481.556 80.7854 483.101 79.24C484.728 77.6947 485.948 75.9054 486.761 73.872C487.656 71.8387 488.144 69.7647 488.225 67.65H495.057C494.976 70.578 494.407 73.4247 493.349 76.19C492.292 78.874 490.665 81.314 488.469 83.51C486.273 85.6247 483.467 87.3327 480.051 88.634C476.635 89.854 472.569 90.464 467.851 90.464ZM447.355 52.766H488.225C488.225 48.4554 487.697 44.836 486.639 41.908C485.663 38.8987 484.281 36.4994 482.491 34.71C480.702 32.8394 478.587 31.4973 476.147 30.684C473.707 29.8707 471.023 29.464 468.095 29.464C463.785 29.464 460.125 30.318 457.115 32.026C454.187 33.6527 451.869 36.174 450.161 39.59C448.535 43.006 447.599 47.398 447.355 52.766Z" fill="white"/>
<path d="M377.456 89V24.828H382.824L383.678 35.32H384.532C386.403 32.2293 388.477 29.83 390.754 28.122C393.113 26.3327 395.634 25.1127 398.318 24.462C401.002 23.73 403.808 23.364 406.736 23.364C410.803 23.364 414.341 24.0147 417.35 25.316C420.441 26.6173 422.799 28.7727 424.426 31.782C426.134 34.71 426.988 38.6954 426.988 43.738V89H419.912V44.104C419.912 41.176 419.505 38.7767 418.692 36.906C417.96 34.954 416.903 33.49 415.52 32.514C414.137 31.4567 412.511 30.7247 410.64 30.318C408.851 29.9113 406.858 29.708 404.662 29.708C401.327 29.708 398.074 30.5214 394.902 32.148C391.811 33.7747 389.29 36.174 387.338 39.346C385.467 42.518 384.532 46.3814 384.532 50.936V89H377.456Z" fill="white"/>
<path d="M332.567 90.464C327.199 90.464 322.603 89.2846 318.781 86.926C315.039 84.5673 312.152 80.8666 310.119 75.824C308.167 70.7813 307.191 64.2339 307.191 56.1819C307.191 48.6179 308.207 42.4366 310.241 37.6379C312.274 32.8393 315.161 29.2606 318.903 26.902C322.725 24.5433 327.239 23.3639 332.445 23.3639C335.21 23.3639 337.772 23.6893 340.131 24.3399C342.571 24.9906 344.767 26.048 346.719 27.512C348.752 28.9759 350.541 30.9686 352.087 33.4899H352.941V0.793945H360.017V89H354.649L353.673 79.362H352.819C350.541 83.1846 347.613 85.9906 344.035 87.78C340.456 89.5693 336.633 90.464 332.567 90.464ZM333.177 84.242C337.894 84.242 341.676 83.2253 344.523 81.192C347.451 79.1586 349.565 76.19 350.867 72.2859C352.249 68.382 352.941 63.6239 352.941 58.0119V55.694C352.941 50.082 352.331 45.568 351.111 42.152C349.972 38.7359 348.467 36.1333 346.597 34.3439C344.726 32.4733 342.652 31.2126 340.375 30.5619C338.179 29.9113 336.023 29.5859 333.909 29.5859C329.679 29.5859 326.141 30.4806 323.295 32.2699C320.448 33.9779 318.293 36.7026 316.829 40.4439C315.365 44.1853 314.633 49.1059 314.633 55.2059V58.6219C314.633 65.0473 315.405 70.1306 316.951 73.872C318.577 77.6133 320.773 80.2973 323.539 81.924C326.385 83.4693 329.598 84.242 333.177 84.242Z" fill="white"/>
<path d="M269.133 90.464C263.115 90.464 257.991 89.2847 253.761 86.926C249.532 84.486 246.319 80.7853 244.123 75.824C241.927 70.8627 240.829 64.5594 240.829 56.914C240.829 49.1874 241.927 42.884 244.123 38.004C246.319 33.0427 249.532 29.3827 253.761 27.024C257.991 24.584 263.115 23.364 269.133 23.364C275.233 23.364 280.357 24.584 284.505 27.024C288.735 29.3827 291.947 33.0427 294.143 38.004C296.421 42.884 297.559 49.1874 297.559 56.914C297.559 64.5594 296.421 70.8627 294.143 75.824C291.947 80.7853 288.735 84.486 284.505 86.926C280.357 89.2847 275.233 90.464 269.133 90.464ZM269.133 84.242C273.525 84.242 277.267 83.388 280.357 81.68C283.529 79.8907 285.929 77.1254 287.555 73.384C289.182 69.5614 289.995 64.6407 289.995 58.622V55.206C289.995 49.106 289.182 44.1853 287.555 40.444C285.929 36.7027 283.529 33.978 280.357 32.27C277.267 30.4807 273.525 29.586 269.133 29.586C264.741 29.586 261 30.4807 257.909 32.27C254.819 33.978 252.419 36.7027 250.711 40.444C249.085 44.1853 248.271 49.106 248.271 55.206V58.622C248.271 64.6407 249.085 69.5614 250.711 73.384C252.419 77.1254 254.819 79.8907 257.909 81.68C261 83.388 264.741 84.242 269.133 84.242Z" fill="white"/>
<path d="M205.7 90.464C201.308 90.464 197.404 89.5693 193.988 87.78C190.653 85.9906 187.807 83.1846 185.448 79.362H184.594L183.74 89H178.372V0.793945H185.448V33.4899H186.302C187.766 30.9686 189.555 28.9759 191.67 27.512C193.785 26.048 196.062 24.9906 198.502 24.3399C200.942 23.6893 203.382 23.3639 205.822 23.3639C211.109 23.3639 215.623 24.5433 219.364 26.902C223.105 29.2606 225.993 32.8393 228.026 37.6379C230.141 42.4366 231.198 48.6179 231.198 56.1819C231.198 64.2339 230.181 70.7813 228.148 75.824C226.115 80.8666 223.227 84.5673 219.486 86.926C215.745 89.2846 211.149 90.464 205.7 90.464ZM205.09 84.242C208.669 84.242 211.841 83.4693 214.606 81.924C217.453 80.2973 219.649 77.6133 221.194 73.872C222.821 70.1306 223.634 65.0473 223.634 58.6219V55.2059C223.634 49.1059 222.902 44.1853 221.438 40.4439C219.974 36.7026 217.819 33.9779 214.972 32.2699C212.125 30.4806 208.587 29.5859 204.358 29.5859C202.243 29.5859 200.088 29.9113 197.892 30.5619C195.696 31.2126 193.663 32.4733 191.792 34.3439C189.921 36.1333 188.376 38.7359 187.156 42.152C186.017 45.568 185.448 50.082 185.448 55.694V58.0119C185.448 63.6239 186.099 68.382 187.4 72.2859C188.783 76.19 190.938 79.1586 193.866 81.192C196.794 83.2253 200.535 84.242 205.09 84.242Z" fill="white"/>
<path d="M136.411 90.464C130.392 90.464 125.268 89.2847 121.039 86.926C116.809 84.486 113.597 80.7853 111.401 75.824C109.205 70.8627 108.107 64.5594 108.107 56.914C108.107 49.1874 109.205 42.884 111.401 38.004C113.597 33.0427 116.809 29.3827 121.039 27.024C125.268 24.584 130.392 23.364 136.411 23.364C142.511 23.364 147.635 24.584 151.783 27.024C156.012 29.3827 159.225 33.0427 161.421 38.004C163.698 42.884 164.837 49.1874 164.837 56.914C164.837 64.5594 163.698 70.8627 161.421 75.824C159.225 80.7853 156.012 84.486 151.783 86.926C147.635 89.2847 142.511 90.464 136.411 90.464ZM136.411 84.242C140.803 84.242 144.544 83.388 147.635 81.68C150.807 79.8907 153.206 77.1254 154.833 73.384C156.459 69.5614 157.273 64.6407 157.273 58.622V55.206C157.273 49.106 156.459 44.1853 154.833 40.444C153.206 36.7027 150.807 33.978 147.635 32.27C144.544 30.4807 140.803 29.586 136.411 29.586C132.019 29.586 128.277 30.4807 125.187 32.27C122.096 33.978 119.697 36.7027 117.989 40.444C116.362 44.1853 115.549 49.106 115.549 55.206V58.622C115.549 64.6407 116.362 69.5614 117.989 73.384C119.697 77.1254 122.096 79.8907 125.187 81.68C128.277 83.388 132.019 84.242 136.411 84.242Z" fill="white"/>
<path d="M87.3484 89V0.793945H94.4244V89H87.3484Z" fill="white"/>
<path d="M37.968 90.464C33.4947 90.464 29.1433 90.0573 24.914 89.244C20.766 88.512 17.0653 87.2107 13.812 85.34C10.5587 83.4693 7.956 80.9887 6.004 77.898C4.13333 74.726 3.198 70.7407 3.198 65.942C3.198 65.454 3.198 65.088 3.198 64.844C3.198 64.5187 3.23866 64.0713 3.32 63.502H11.25C11.1687 63.9087 11.0873 64.3967 11.006 64.966C11.006 65.5353 11.006 66.064 11.006 66.552C11.006 70.3747 12.1447 73.5467 14.422 76.068C16.7807 78.5893 19.912 80.5007 23.816 81.802C27.8013 83.022 32.1933 83.632 36.992 83.632C38.2933 83.632 40.0013 83.5507 42.116 83.388C44.312 83.144 46.63 82.7373 49.07 82.168C51.51 81.5173 53.7873 80.6227 55.902 79.484C58.0167 78.264 59.7653 76.7187 61.148 74.848C62.5307 72.896 63.222 70.4153 63.222 67.406C63.222 64.3153 62.368 61.7533 60.66 59.72C59.0333 57.6053 56.8373 55.8973 54.072 54.596C51.388 53.2133 48.338 52.034 44.922 51.058C41.506 50.0007 37.9273 49.0247 34.186 48.13C30.526 47.2353 26.9473 46.2593 23.45 45.202C20.034 44.0633 16.9433 42.6807 14.178 41.054C11.494 39.346 9.33866 37.2313 7.712 34.71C6.08533 32.1073 5.272 28.976 5.272 25.316C5.272 22.3067 5.882 19.46 7.102 16.776C8.322 14.092 10.1927 11.8147 12.714 9.944C15.3167 7.99199 18.692 6.48732 22.84 5.42999C27.0693 4.37266 32.1527 3.84399 38.09 3.84399C42.3193 3.84399 46.264 4.29133 49.924 5.18599C53.584 6.08066 56.7967 7.46332 59.562 9.33399C62.4087 11.2047 64.6047 13.5633 66.15 16.41C67.7767 19.2567 68.59 22.7133 68.59 26.78V28.244H60.66V25.804C60.66 22.7133 59.684 20.07 57.732 17.874C55.8613 15.5967 53.2587 13.848 49.924 12.628C46.5893 11.3267 42.8887 10.676 38.822 10.676C32.8033 10.676 27.9233 11.286 24.182 12.506C20.4407 13.726 17.6753 15.3933 15.886 17.508C14.0967 19.5413 13.202 21.8187 13.202 24.34C13.202 27.268 14.0153 29.708 15.642 31.66C17.2687 33.612 19.4647 35.2387 22.23 36.54C24.9953 37.76 28.086 38.858 31.502 39.834C34.9993 40.7287 38.578 41.6233 42.238 42.518C45.898 43.4127 49.436 44.4293 52.852 45.568C56.3493 46.7067 59.44 48.1707 62.124 49.96C64.8893 51.668 67.0853 53.8233 68.712 56.426C70.42 59.0287 71.274 62.2413 71.274 66.064C71.274 71.676 69.8507 76.312 67.004 79.972C64.1573 83.5507 60.2533 86.194 55.292 87.902C50.3307 89.61 44.556 90.464 37.968 90.464Z" fill="white"/>
</svg>
