<svg width="443" height="438" viewBox="0 0 443 438" fill="none" xmlns="http://www.w3.org/2000/svg">
<path d="M291.077 359.314C297.826 359.314 303.812 360.1 309.035 361.672C314.304 363.197 318.742 365.578 322.347 368.813C325.953 372.003 328.68 376.071 330.529 381.017C332.424 385.916 333.372 391.741 333.372 398.489V403.343H277.14C277.14 408.52 278.296 412.541 280.607 415.407C282.965 418.227 286.824 419.637 292.186 419.637C294.729 419.637 296.878 419.359 298.635 418.805C300.391 418.25 301.801 417.487 302.864 416.517C303.973 415.5 304.759 414.344 305.221 413.05C305.73 411.709 305.984 410.276 305.984 408.751H333.372C333.372 413.235 332.517 417.279 330.806 420.885C329.142 424.444 326.6 427.472 323.179 429.968C319.805 432.464 315.576 434.382 310.491 435.723C305.453 437.063 299.559 437.733 292.81 437.733C286.062 437.733 279.96 436.971 274.506 435.445C269.097 433.874 264.498 431.47 260.708 428.234C256.917 424.999 254.005 420.931 251.971 416.031C249.938 411.085 248.921 405.238 248.921 398.489C248.921 391.925 249.914 386.194 251.902 381.294C253.89 376.394 256.709 372.326 260.361 369.091C264.059 365.809 268.497 363.359 273.674 361.741C278.897 360.123 284.698 359.314 291.077 359.314ZM292.186 377.342C287.425 377.342 283.866 378.474 281.509 380.739C279.197 383.004 277.788 386.078 277.279 389.961H304.875C304.875 386.032 303.765 382.958 301.547 380.739C299.328 378.474 296.208 377.342 292.186 377.342Z" fill="black"/>
<path d="M223.266 338.306V361.048H239.214V380.185H223.266V408.751C223.266 410.369 223.382 411.779 223.613 412.98C223.844 414.182 224.26 415.199 224.861 416.031C225.462 416.863 226.271 417.487 227.288 417.903C228.305 418.319 229.622 418.527 231.24 418.527H239.214V435.168C238.012 435.538 236.625 435.884 235.053 436.208C233.482 436.532 231.864 436.809 230.2 437.04C228.536 437.271 226.895 437.433 225.277 437.525C223.705 437.664 222.296 437.733 221.048 437.733C217.211 437.733 213.698 437.41 210.509 436.763C207.319 436.116 204.569 435.029 202.258 433.504C199.993 431.932 198.213 429.875 196.919 427.333C195.671 424.744 195.047 421.532 195.047 417.695V380.185H184.508V361.048H196.156L202.258 338.306H223.266Z" fill="black"/>
<path d="M133.268 359.314C140.017 359.314 146.003 360.1 151.226 361.672C156.496 363.197 160.933 365.578 164.539 368.813C168.144 372.003 170.872 376.071 172.72 381.017C174.616 385.916 175.563 391.741 175.563 398.489V403.343H119.332C119.332 408.52 120.487 412.541 122.799 415.407C125.156 418.227 129.016 419.637 134.378 419.637C136.92 419.637 139.069 419.359 140.826 418.805C142.582 418.25 143.992 417.487 145.055 416.517C146.165 415.5 146.951 414.344 147.413 413.05C147.921 411.709 148.176 410.276 148.176 408.751H175.563C175.563 413.235 174.708 417.279 172.998 420.885C171.334 424.444 168.791 427.472 165.371 429.968C161.997 432.464 157.767 434.382 152.682 435.723C147.644 437.063 141.75 437.733 135.002 437.733C128.253 437.733 122.151 436.971 116.697 435.445C111.289 433.874 106.69 431.47 102.899 428.234C99.1088 424.999 96.1967 420.931 94.1628 416.031C92.129 411.085 91.1121 405.238 91.1121 398.489C91.1121 391.925 92.1059 386.194 94.0935 381.294C96.0811 376.394 98.9008 372.326 102.552 369.091C106.25 365.809 110.688 363.359 115.865 361.741C121.088 360.123 126.889 359.314 133.268 359.314ZM134.378 377.342C129.617 377.342 126.057 378.474 123.7 380.739C121.389 383.004 119.979 386.078 119.47 389.961H147.066C147.066 386.032 145.957 382.958 143.738 380.739C141.519 378.474 138.399 377.342 134.378 377.342Z" fill="black"/>
<path d="M43.3396 359.314C47.7771 359.314 52.1453 359.754 56.4441 360.632C60.7429 361.464 64.5795 362.827 67.9539 364.723C71.3282 366.618 74.0554 369.114 76.1355 372.211C78.2156 375.262 79.2556 379.006 79.2556 383.443H52.9773C52.9311 381.964 52.5613 380.762 51.8679 379.838C51.1746 378.867 50.3194 378.128 49.3025 377.619C48.3318 377.064 47.2686 376.695 46.113 376.51C44.9574 376.325 43.8943 376.232 42.9236 376.232C42.3227 376.232 41.4444 376.256 40.2888 376.302C39.1332 376.348 37.9776 376.533 36.822 376.856C35.7126 377.134 34.7419 377.596 33.9099 378.243C33.0779 378.89 32.6619 379.815 32.6619 381.017C32.6619 382.357 33.3552 383.42 34.7419 384.206C36.1287 384.946 37.9545 385.547 40.2195 386.009C42.4845 386.471 45.073 386.887 47.9851 387.257C50.8972 387.627 53.8556 388.112 56.8601 388.713C59.9109 389.268 62.8923 390.053 65.8044 391.07C68.7166 392.041 71.3051 393.382 73.5701 395.092C75.835 396.802 77.6609 398.951 79.0476 401.54C80.4343 404.129 81.1277 407.341 81.1277 411.178C81.1277 416.309 80.0645 420.584 77.9382 424.005C75.8582 427.425 73.0385 430.153 69.4792 432.187C65.92 434.22 61.783 435.653 57.0681 436.485C52.3995 437.317 47.4998 437.733 42.3689 437.733C37.6541 437.733 32.9854 437.248 28.363 436.277C23.7869 435.307 19.6729 433.781 16.0212 431.701C12.3695 429.575 9.41121 426.871 7.14624 423.589C4.88127 420.261 3.74878 416.262 3.74878 411.594H29.9578V412.148C30.004 413.951 30.4662 415.43 31.3445 416.586C32.269 417.695 33.3552 418.574 34.6033 419.221C35.8975 419.822 37.238 420.238 38.6248 420.469C40.0577 420.7 41.3057 420.815 42.3689 420.815C43.3396 420.815 44.4952 420.769 45.8357 420.677C47.2224 420.584 48.5167 420.376 49.7185 420.053C50.9666 419.683 52.0066 419.128 52.8386 418.389C53.7169 417.649 54.156 416.609 54.156 415.269C54.156 413.882 53.4626 412.772 52.0759 411.94C50.6892 411.108 48.8634 410.438 46.5984 409.93C44.3334 409.375 41.7449 408.89 38.8328 408.474C35.9207 408.058 32.9392 407.526 29.8884 406.879C26.8839 406.232 23.9255 405.423 21.0134 404.452C18.1013 403.435 15.5128 402.095 13.2478 400.431C10.9828 398.72 9.15698 396.617 7.77026 394.121C6.38354 391.579 5.69019 388.459 5.69019 384.761C5.69019 379.815 6.73022 375.724 8.8103 372.488C10.8904 369.206 13.6638 366.595 17.1306 364.653C20.5974 362.712 24.5958 361.348 29.1257 360.562C33.6557 359.73 38.3936 359.314 43.3396 359.314Z" fill="black"/>
<path d="M400.35 237.314C407.099 237.314 413.085 238.1 418.308 239.672C423.578 241.197 428.015 243.578 431.621 246.813C435.226 250.003 437.954 254.071 439.802 259.017C441.698 263.916 442.645 269.741 442.645 276.489V281.343H386.414C386.414 286.52 387.569 290.541 389.881 293.407C392.238 296.227 396.098 297.637 401.46 297.637C404.002 297.637 406.151 297.359 407.908 296.805C409.664 296.25 411.074 295.487 412.137 294.517C413.247 293.5 414.033 292.344 414.495 291.05C415.003 289.709 415.258 288.276 415.258 286.751H442.645C442.645 291.235 441.79 295.279 440.08 298.885C438.416 302.444 435.873 305.472 432.453 307.968C429.079 310.464 424.849 312.382 419.764 313.723C414.726 315.063 408.832 315.733 402.084 315.733C395.335 315.733 389.233 314.971 383.779 313.445C378.371 311.874 373.772 309.47 369.981 306.234C366.191 302.999 363.279 298.931 361.245 294.031C359.211 289.085 358.194 283.238 358.194 276.489C358.194 269.925 359.188 264.194 361.176 259.294C363.163 254.394 365.983 250.326 369.635 247.091C373.332 243.809 377.77 241.359 382.947 239.741C388.17 238.123 393.971 237.314 400.35 237.314ZM401.46 255.342C396.699 255.342 393.139 256.474 390.782 258.739C388.471 261.004 387.061 264.078 386.552 267.961H414.148C414.148 264.032 413.039 260.958 410.82 258.739C408.601 256.474 405.481 255.342 401.46 255.342Z" fill="black"/>
<path d="M344.396 211.036V314H321.377L318.95 303.322C316.177 307.529 312.779 310.649 308.758 312.683C304.736 314.716 300.183 315.733 295.098 315.733C290.152 315.733 285.715 314.924 281.786 313.307C277.857 311.689 274.529 309.239 271.802 305.957C269.121 302.675 267.064 298.584 265.631 293.685C264.198 288.739 263.481 282.961 263.481 276.351C263.481 269.833 264.198 264.124 265.631 259.225C267.064 254.325 269.121 250.257 271.802 247.021C274.529 243.786 277.857 241.359 281.786 239.741C285.715 238.123 290.152 237.314 295.098 237.314C299.305 237.314 303.188 238.031 306.747 239.464C310.306 240.897 313.449 243.069 316.177 245.981V211.036H344.396ZM303.904 258.185C301.685 258.185 299.79 258.531 298.219 259.225C296.693 259.918 295.445 260.912 294.474 262.206C293.504 263.5 292.787 265.049 292.325 266.852C291.909 268.608 291.701 270.596 291.701 272.814V280.372C291.701 282.591 291.909 284.602 292.325 286.404C292.787 288.161 293.504 289.663 294.474 290.911C295.445 292.159 296.693 293.13 298.219 293.823C299.79 294.517 301.685 294.863 303.904 294.863C306.123 294.863 308.018 294.447 309.59 293.615C311.161 292.783 312.455 291.651 313.472 290.218C314.489 288.739 315.229 287.051 315.691 285.156C316.2 283.215 316.454 281.135 316.454 278.916V274.271C316.454 272.052 316.2 269.972 315.691 268.03C315.229 266.089 314.489 264.402 313.472 262.969C312.455 261.49 311.161 260.334 309.59 259.502C308.018 258.624 306.123 258.185 303.904 258.185Z" fill="black"/>
<path d="M255.369 239.048V247.854L223.544 294.863H256.686V314H183.537V304.778L215.085 258.185H185.27V239.048H255.369Z" fill="black"/>
<path d="M133.268 237.314C140.017 237.314 146.003 238.1 151.226 239.672C156.496 241.197 160.933 243.578 164.539 246.813C168.144 250.003 170.872 254.071 172.72 259.017C174.616 263.916 175.563 269.741 175.563 276.489V281.343H119.332C119.332 286.52 120.487 290.541 122.799 293.407C125.156 296.227 129.016 297.637 134.378 297.637C136.92 297.637 139.069 297.359 140.826 296.805C142.582 296.25 143.992 295.487 145.055 294.517C146.165 293.5 146.951 292.344 147.413 291.05C147.921 289.709 148.176 288.276 148.176 286.751H175.563C175.563 291.235 174.708 295.279 172.998 298.885C171.334 302.444 168.791 305.472 165.371 307.968C161.997 310.464 157.767 312.382 152.682 313.723C147.644 315.063 141.75 315.733 135.002 315.733C128.253 315.733 122.151 314.971 116.697 313.445C111.289 311.874 106.69 309.47 102.899 306.234C99.1088 302.999 96.1967 298.931 94.1628 294.031C92.129 289.085 91.1121 283.238 91.1121 276.489C91.1121 269.925 92.1059 264.194 94.0935 259.294C96.0811 254.394 98.9008 250.326 102.552 247.091C106.25 243.809 110.688 241.359 115.865 239.741C121.088 238.123 126.889 237.314 133.268 237.314ZM134.378 255.342C129.617 255.342 126.057 256.474 123.7 258.739C121.389 261.004 119.979 264.078 119.47 267.961H147.066C147.066 264.032 145.957 260.958 143.738 258.739C141.519 256.474 138.399 255.342 134.378 255.342Z" fill="black"/>
<path d="M43.3396 237.314C47.7771 237.314 52.1453 237.754 56.4441 238.632C60.7429 239.464 64.5795 240.827 67.9539 242.723C71.3282 244.618 74.0554 247.114 76.1355 250.211C78.2156 253.262 79.2556 257.006 79.2556 261.443H52.9773C52.9311 259.964 52.5613 258.762 51.8679 257.838C51.1746 256.867 50.3194 256.128 49.3025 255.619C48.3318 255.064 47.2686 254.695 46.113 254.51C44.9574 254.325 43.8943 254.232 42.9236 254.232C42.3227 254.232 41.4444 254.256 40.2888 254.302C39.1332 254.348 37.9776 254.533 36.822 254.856C35.7126 255.134 34.7419 255.596 33.9099 256.243C33.0779 256.89 32.6619 257.815 32.6619 259.017C32.6619 260.357 33.3552 261.42 34.7419 262.206C36.1287 262.946 37.9545 263.547 40.2195 264.009C42.4845 264.471 45.073 264.887 47.9851 265.257C50.8972 265.627 53.8556 266.112 56.8601 266.713C59.9109 267.268 62.8923 268.053 65.8044 269.07C68.7166 270.041 71.3051 271.382 73.5701 273.092C75.835 274.802 77.6609 276.951 79.0476 279.54C80.4343 282.129 81.1277 285.341 81.1277 289.178C81.1277 294.309 80.0645 298.584 77.9382 302.005C75.8582 305.425 73.0385 308.153 69.4792 310.187C65.92 312.22 61.783 313.653 57.0681 314.485C52.3995 315.317 47.4998 315.733 42.3689 315.733C37.6541 315.733 32.9854 315.248 28.363 314.277C23.7869 313.307 19.6729 311.781 16.0212 309.701C12.3695 307.575 9.41121 304.871 7.14624 301.589C4.88127 298.261 3.74878 294.262 3.74878 289.594H29.9578V290.148C30.004 291.951 30.4662 293.43 31.3445 294.586C32.269 295.695 33.3552 296.574 34.6033 297.221C35.8975 297.822 37.238 298.238 38.6248 298.469C40.0577 298.7 41.3057 298.815 42.3689 298.815C43.3396 298.815 44.4952 298.769 45.8357 298.677C47.2224 298.584 48.5167 298.376 49.7185 298.053C50.9666 297.683 52.0066 297.128 52.8386 296.389C53.7169 295.649 54.156 294.609 54.156 293.269C54.156 291.882 53.4626 290.772 52.0759 289.94C50.6892 289.108 48.8634 288.438 46.5984 287.93C44.3334 287.375 41.7449 286.89 38.8328 286.474C35.9207 286.058 32.9392 285.526 29.8884 284.879C26.8839 284.232 23.9255 283.423 21.0134 282.452C18.1013 281.435 15.5128 280.095 13.2478 278.431C10.9828 276.72 9.15698 274.617 7.77026 272.121C6.38354 269.579 5.69019 266.459 5.69019 262.761C5.69019 257.815 6.73022 253.724 8.8103 250.488C10.8904 247.206 13.6638 244.595 17.1306 242.653C20.5974 240.712 24.5958 239.348 29.1257 238.562C33.6557 237.73 38.3936 237.314 43.3396 237.314ZM71.4207 211.036L51.6599 231.629H33.4939L13.7332 211.036H31.8992L42.4382 221.991L52.9773 211.036H71.4207Z" fill="black"/>
<path d="M386.196 193.464C380.258 193.464 375.175 192.285 370.946 189.926C366.798 187.486 363.626 183.785 361.43 178.824C359.315 173.863 358.258 167.559 358.258 159.914C358.258 152.187 359.315 145.884 361.43 141.004C363.626 136.043 366.838 132.383 371.068 130.024C375.378 127.584 380.665 126.364 386.928 126.364C392.865 126.364 397.826 127.543 401.812 129.902C405.797 132.261 408.806 135.636 410.84 140.028C412.873 144.42 413.89 149.707 413.89 155.888V161.744H365.7C365.7 167.925 366.513 172.927 368.14 176.75C369.848 180.491 372.247 183.216 375.338 184.924C378.428 186.551 382.129 187.364 386.44 187.364C389.937 187.364 392.906 186.917 395.346 186.022C397.867 185.046 399.9 183.785 401.446 182.24C403.072 180.695 404.292 178.905 405.106 176.872C406 174.839 406.488 172.765 406.57 170.65H413.402C413.32 173.578 412.751 176.425 411.694 179.19C410.636 181.874 409.01 184.314 406.814 186.51C404.618 188.625 401.812 190.333 398.396 191.634C394.98 192.854 390.913 193.464 386.196 193.464ZM365.7 155.766H406.57C406.57 151.455 406.041 147.836 404.984 144.908C404.008 141.899 402.625 139.499 400.836 137.71C399.046 135.839 396.932 134.497 394.492 133.684C392.052 132.871 389.368 132.464 386.44 132.464C382.129 132.464 378.469 133.318 375.46 135.026C372.532 136.653 370.214 139.174 368.506 142.59C366.879 146.006 365.944 150.398 365.7 155.766Z" fill="black"/>
<path d="M295.8 192V127.828H301.168L302.022 138.32H302.876C304.747 135.229 306.821 132.83 309.098 131.122C311.457 129.333 313.978 128.113 316.662 127.462C319.346 126.73 322.152 126.364 325.08 126.364C329.147 126.364 332.685 127.015 335.694 128.316C338.785 129.617 341.144 131.773 342.77 134.782C344.478 137.71 345.332 141.695 345.332 146.738V192H338.256V147.104C338.256 144.176 337.85 141.777 337.036 139.906C336.304 137.954 335.247 136.49 333.864 135.514C332.482 134.457 330.855 133.725 328.984 133.318C327.195 132.911 325.202 132.708 323.006 132.708C319.672 132.708 316.418 133.521 313.246 135.148C310.156 136.775 307.634 139.174 305.682 142.346C303.812 145.518 302.876 149.381 302.876 153.936V192H295.8Z" fill="black"/>
<path d="M254.391 192L230.601 127.828H238.043L250.853 162.598C251.504 164.306 252.195 166.339 252.927 168.698C253.659 170.975 254.432 173.293 255.245 175.652C256.058 177.929 256.75 179.963 257.319 181.752H257.929C258.58 180.044 259.271 178.011 260.003 175.652C260.816 173.293 261.67 170.975 262.565 168.698C263.46 166.339 264.192 164.306 264.761 162.598L277.449 127.828H284.647L260.735 192H254.391Z" fill="black"/>
<path d="M212.283 113.676V103.794H219.359V113.676H212.283ZM212.283 192V127.828H219.359V192H212.283Z" fill="black"/>
<path d="M191.271 193.342C188.506 193.342 186.31 192.895 184.683 192C183.138 191.105 182.04 189.804 181.389 188.096C180.738 186.388 180.413 184.436 180.413 182.24V134.05H171.629V127.828H180.535L181.877 110.016H187.489V127.828H200.299V134.05H187.489V180.532C187.489 182.891 187.774 184.599 188.343 185.656C188.994 186.713 190.417 187.242 192.613 187.242H200.299V191.634C199.486 192.041 198.55 192.366 197.493 192.61C196.436 192.854 195.338 193.017 194.199 193.098C193.142 193.261 192.166 193.342 191.271 193.342Z" fill="black"/>
<path d="M128.541 193.464C125.776 193.464 123.133 193.139 120.611 192.488C118.171 191.837 116.016 190.821 114.145 189.438C112.275 187.974 110.811 186.144 109.753 183.948C108.696 181.752 108.167 179.068 108.167 175.896C108.167 171.423 109.265 167.803 111.461 165.038C113.739 162.273 116.87 160.158 120.855 158.694C124.841 157.149 129.558 156.091 135.007 155.522C140.457 154.953 146.353 154.668 152.697 154.668V145.64C152.697 142.875 152.169 140.516 151.111 138.564C150.135 136.531 148.346 135.026 145.743 134.05C143.222 132.993 139.684 132.464 135.129 132.464C130.737 132.464 127.281 133.033 124.759 134.172C122.319 135.311 120.571 136.815 119.513 138.686C118.456 140.557 117.927 142.59 117.927 144.786V146.86H111.095C111.014 146.453 110.973 146.047 110.973 145.64C110.973 145.233 110.973 144.745 110.973 144.176C110.973 140.028 112.031 136.653 114.145 134.05C116.341 131.447 119.351 129.536 123.173 128.316C127.077 127.015 131.551 126.364 136.593 126.364C141.555 126.364 145.743 127.096 149.159 128.56C152.575 130.024 155.178 132.098 156.967 134.782C158.838 137.466 159.773 140.719 159.773 144.542V183.216C159.773 184.761 160.017 185.819 160.505 186.388C161.075 186.957 161.888 187.242 162.945 187.242H168.435V191.634C167.053 192.203 165.711 192.61 164.409 192.854C163.189 193.179 161.969 193.342 160.749 193.342C158.553 193.342 156.886 192.854 155.747 191.878C154.69 190.902 153.958 189.601 153.551 187.974C153.145 186.266 152.941 184.395 152.941 182.362H152.087C150.461 184.721 148.387 186.754 145.865 188.462C143.425 190.089 140.701 191.309 137.691 192.122C134.763 193.017 131.713 193.464 128.541 193.464ZM129.517 187.242C132.283 187.242 135.007 186.795 137.691 185.9C140.457 185.005 142.937 183.745 145.133 182.118C147.411 180.41 149.241 178.417 150.623 176.14C152.006 173.781 152.697 171.179 152.697 168.332V160.768C144.32 160.768 137.407 161.215 131.957 162.11C126.508 163.005 122.441 164.55 119.757 166.746C117.155 168.942 115.853 171.992 115.853 175.896C115.853 178.58 116.463 180.776 117.683 182.484C118.903 184.192 120.53 185.412 122.563 186.144C124.678 186.876 126.996 187.242 129.517 187.242Z" fill="black"/>
<path d="M7.95667 192V127.828H13.3247L14.1787 138.32H15.0327C16.9033 135.229 18.9367 132.83 21.1327 131.122C23.3287 129.333 25.6873 128.113 28.2087 127.462C30.8113 126.73 33.5767 126.364 36.5047 126.364C40.8967 126.364 44.6787 127.259 47.8507 129.048C51.0227 130.837 53.178 133.928 54.3167 138.32H55.1707C56.8787 135.311 58.8307 132.952 61.0267 131.244C63.2227 129.455 65.5813 128.194 68.1027 127.462C70.7053 126.73 73.43 126.364 76.2767 126.364C80.1807 126.364 83.5967 127.015 86.5247 128.316C89.4527 129.536 91.73 131.651 93.3567 134.66C94.9833 137.588 95.7967 141.614 95.7967 146.738V192H88.7207V147.104C88.7207 144.095 88.3547 141.655 87.6227 139.784C86.8907 137.913 85.8333 136.49 84.4507 135.514C83.1493 134.457 81.6447 133.725 79.9367 133.318C78.2287 132.911 76.358 132.708 74.3247 132.708C71.0713 132.708 67.9807 133.521 65.0527 135.148C62.206 136.775 59.888 139.174 58.0987 142.346C56.3093 145.518 55.4147 149.381 55.4147 153.936V192H48.3387V147.104C48.3387 144.095 47.9727 141.655 47.2407 139.784C46.5087 137.913 45.492 136.49 44.1907 135.514C42.9707 134.457 41.5067 133.725 39.7987 133.318C38.0907 132.911 36.3013 132.708 34.4307 132.708C31.096 132.708 27.924 133.521 24.9147 135.148C21.9867 136.775 19.5873 139.174 17.7167 142.346C15.9273 145.518 15.0327 149.381 15.0327 153.936V192H7.95667Z" fill="black"/>
<path d="M395.283 90V25.828H400.773L401.505 36.808H402.237C402.725 34.856 403.497 32.9447 404.555 31.074C405.693 29.122 407.279 27.536 409.313 26.316C411.346 25.0147 413.867 24.364 416.877 24.364C418.097 24.364 419.154 24.4453 420.049 24.608C420.943 24.7707 421.594 24.9333 422.001 25.096V31.44H418.463C415.535 31.44 413.013 32.05 410.899 33.27C408.865 34.4087 407.198 35.954 405.897 37.906C404.677 39.858 403.782 42.054 403.213 44.494C402.643 46.934 402.359 49.4147 402.359 51.936V90H395.283Z" fill="black"/>
<path d="M353.321 91.464C347.303 91.464 342.179 90.2847 337.949 87.926C333.72 85.486 330.507 81.7853 328.311 76.824C326.115 71.8627 325.017 65.5594 325.017 57.914C325.017 50.1874 326.115 43.884 328.311 39.004C330.507 34.0427 333.72 30.3827 337.949 28.024C342.179 25.584 347.303 24.364 353.321 24.364C359.421 24.364 364.545 25.584 368.693 28.024C372.923 30.3827 376.135 34.0427 378.331 39.004C380.609 43.884 381.747 50.1874 381.747 57.914C381.747 65.5594 380.609 71.8627 378.331 76.824C376.135 81.7853 372.923 85.486 368.693 87.926C364.545 90.2847 359.421 91.464 353.321 91.464ZM353.321 85.242C357.713 85.242 361.455 84.388 364.545 82.68C367.717 80.8907 370.117 78.1254 371.743 74.384C373.37 70.5614 374.183 65.6407 374.183 59.622V56.206C374.183 50.106 373.37 45.1853 371.743 41.444C370.117 37.7027 367.717 34.978 364.545 33.27C361.455 31.4807 357.713 30.586 353.321 30.586C348.929 30.586 345.188 31.4807 342.097 33.27C339.007 34.978 336.607 37.7027 334.899 41.444C333.273 45.1853 332.459 50.106 332.459 56.206V59.622C332.459 65.6407 333.273 70.5614 334.899 74.384C336.607 78.1254 339.007 80.8907 342.097 82.68C345.188 84.388 348.929 85.242 353.321 85.242Z" fill="black"/>
<path d="M300.257 90V32.05H290.619V25.828H300.257V13.75C300.257 11.554 300.542 9.47999 301.111 7.52799C301.762 5.57599 302.941 3.98999 304.649 2.76999C306.438 1.46866 308.919 0.817993 312.091 0.817993C313.067 0.817993 314.043 0.858659 315.019 0.939991C315.995 1.02132 316.93 1.14332 317.825 1.30599C318.72 1.38732 319.533 1.54999 320.265 1.79399V7.03999H313.677C311.481 7.03999 309.854 7.56866 308.797 8.62599C307.821 9.68332 307.333 11.2693 307.333 13.384V25.828H320.265V32.05H307.333V90H300.257Z" fill="black"/>
<path d="M259.58 91.464C255.432 91.464 251.772 91.0574 248.6 90.244C245.428 89.4307 242.784 88.2514 240.67 86.706C238.555 85.0794 236.928 83.0867 235.79 80.728C234.732 78.288 234.204 75.5227 234.204 72.432C234.204 72.1067 234.204 71.7407 234.204 71.334C234.285 70.9274 234.326 70.5614 234.326 70.236H241.402C241.32 70.724 241.28 71.1307 241.28 71.456C241.28 71.7 241.28 71.9847 241.28 72.31C241.28 75.726 242.052 78.41 243.598 80.362C245.224 82.2327 247.461 83.534 250.308 84.266C253.154 84.998 256.448 85.364 260.19 85.364C263.443 85.364 266.33 84.9167 268.852 84.022C271.373 83.046 273.366 81.6634 274.83 79.874C276.375 78.0847 277.148 75.8887 277.148 73.286C277.148 70.0327 276.172 67.5927 274.22 65.966C272.349 64.258 269.909 62.9567 266.9 62.062C263.89 61.086 260.759 60.1507 257.506 59.256C254.984 58.524 252.463 57.7513 249.942 56.938C247.42 56.0434 245.143 54.9453 243.11 53.644C241.158 52.3427 239.572 50.716 238.352 48.764C237.132 46.7307 236.522 44.2094 236.522 41.2C236.522 38.6787 237.05 36.4013 238.108 34.368C239.165 32.2533 240.67 30.464 242.622 29C244.655 27.4547 247.095 26.316 249.942 25.584C252.87 24.7707 256.204 24.364 259.946 24.364C264.338 24.364 267.998 24.852 270.926 25.828C273.935 26.804 276.294 28.1867 278.002 29.976C279.791 31.684 281.052 33.5547 281.784 35.588C282.597 37.6213 283.004 39.736 283.004 41.932C283.004 42.176 283.004 42.5014 283.004 42.908C283.004 43.2334 282.963 43.5994 282.882 44.006H275.806V42.176C275.806 40.468 275.399 38.7194 274.586 36.93C273.854 35.1407 272.308 33.636 269.95 32.416C267.672 31.1147 264.216 30.464 259.58 30.464C256.896 30.464 254.578 30.708 252.626 31.196C250.674 31.684 249.047 32.3754 247.746 33.27C246.444 34.0834 245.428 35.1407 244.696 36.442C244.045 37.7434 243.72 39.2887 243.72 41.078C243.72 43.6807 244.492 45.6733 246.038 47.056C247.664 48.3573 249.738 49.4147 252.26 50.228C254.781 50.96 257.465 51.814 260.312 52.79C263.158 53.6847 266.005 54.5794 268.852 55.474C271.698 56.3687 274.301 57.4667 276.66 58.768C279.018 60.0694 280.889 61.7774 282.272 63.892C283.736 66.0067 284.468 68.772 284.468 72.188C284.468 75.2787 283.817 78.044 282.516 80.484C281.296 82.8427 279.588 84.8354 277.392 86.462C275.196 88.0887 272.552 89.3087 269.462 90.122C266.452 91.0167 263.158 91.464 259.58 91.464Z" fill="black"/>
<path d="M172.966 90V25.828H178.334L179.188 36.32H180.042C181.913 33.2293 183.987 30.83 186.264 29.122C188.623 27.3327 191.144 26.1127 193.828 25.462C196.512 24.73 199.318 24.364 202.246 24.364C206.313 24.364 209.851 25.0147 212.86 26.316C215.951 27.6173 218.31 29.7727 219.936 32.782C221.644 35.71 222.498 39.6954 222.498 44.738V90H215.422V45.104C215.422 42.176 215.016 39.7767 214.202 37.906C213.47 35.954 212.413 34.49 211.03 33.514C209.648 32.4567 208.021 31.7247 206.15 31.318C204.361 30.9113 202.368 30.708 200.172 30.708C196.838 30.708 193.584 31.5214 190.412 33.148C187.322 34.7747 184.8 37.174 182.848 40.346C180.978 43.518 180.042 47.3814 180.042 51.936V90H172.966Z" fill="black"/>
<path d="M123.656 91.464C120.891 91.464 118.248 91.1387 115.726 90.488C113.286 89.8374 111.131 88.8207 109.26 87.438C107.39 85.974 105.926 84.144 104.868 81.948C103.811 79.752 103.282 77.068 103.282 73.896C103.282 69.4227 104.38 65.8033 106.576 63.038C108.854 60.2727 111.985 58.158 115.97 56.694C119.956 55.1487 124.673 54.0913 130.122 53.522C135.572 52.9527 141.468 52.668 147.812 52.668V43.64C147.812 40.8747 147.284 38.516 146.226 36.564C145.25 34.5307 143.461 33.026 140.858 32.05C138.337 30.9927 134.799 30.464 130.244 30.464C125.852 30.464 122.396 31.0333 119.874 32.172C117.434 33.3107 115.686 34.8154 114.628 36.686C113.571 38.5567 113.042 40.59 113.042 42.786V44.86H106.21C106.129 44.4534 106.088 44.0467 106.088 43.64C106.088 43.2333 106.088 42.7454 106.088 42.176C106.088 38.028 107.146 34.6527 109.26 32.05C111.456 29.4473 114.466 27.536 118.288 26.316C122.192 25.0147 126.666 24.364 131.708 24.364C136.67 24.364 140.858 25.096 144.274 26.56C147.69 28.024 150.293 30.098 152.082 32.782C153.953 35.466 154.888 38.7193 154.888 42.542V81.216C154.888 82.7613 155.132 83.8187 155.62 84.388C156.19 84.9574 157.003 85.242 158.06 85.242H163.55V89.634C162.168 90.2034 160.826 90.61 159.524 90.854C158.304 91.1794 157.084 91.342 155.864 91.342C153.668 91.342 152.001 90.854 150.862 89.878C149.805 88.902 149.073 87.6007 148.666 85.974C148.26 84.266 148.056 82.3954 148.056 80.362H147.202C145.576 82.7207 143.502 84.754 140.98 86.462C138.54 88.0887 135.816 89.3087 132.806 90.122C129.878 91.0167 126.828 91.464 123.656 91.464ZM124.632 85.242C127.398 85.242 130.122 84.7947 132.806 83.9C135.572 83.0054 138.052 81.7447 140.248 80.118C142.526 78.41 144.356 76.4174 145.738 74.14C147.121 71.7814 147.812 69.1787 147.812 66.332V58.768C139.435 58.768 132.522 59.2154 127.072 60.11C121.623 61.0047 117.556 62.55 114.872 64.746C112.27 66.942 110.968 69.992 110.968 73.896C110.968 76.58 111.578 78.776 112.798 80.484C114.018 82.192 115.645 83.412 117.678 84.144C119.793 84.876 122.111 85.242 124.632 85.242Z" fill="black"/>
<path d="M71.816 90V25.828H77.306L78.038 36.808H78.77C79.258 34.856 80.0306 32.9447 81.088 31.074C82.2266 29.122 83.8126 27.536 85.846 26.316C87.8793 25.0147 90.4006 24.364 93.41 24.364C94.63 24.364 95.6873 24.4453 96.582 24.608C97.4766 24.7707 98.1273 24.9333 98.534 25.096V31.44H94.996C92.068 31.44 89.5466 32.05 87.432 33.27C85.3986 34.4087 83.7313 35.954 82.43 37.906C81.21 39.858 80.3153 42.054 79.746 44.494C79.1766 46.934 78.892 49.4147 78.892 51.936V90H71.816Z" fill="black"/>
<path d="M31.2586 90V13.262H0.880615V6.30798H69.8106V13.262H39.0666V90H31.2586Z" fill="black"/>
</svg>
