<svg width="60" height="60" viewBox="0 0 60 60" fill="none" xmlns="http://www.w3.org/2000/svg">
<rect width="60" height="60" rx="8" fill="#008200"/>
<path d="M47 34.7764C47 40.4227 42.299 45 36.5 45C30.701 45 26 40.4227 26 34.7764C26 29.13 36.5 15 36.5 15C36.5 15 47 29.13 47 34.7764Z" fill="white"/>
<path d="M24.5 15L24.9013 14.7018L24.5 14.1617L24.0987 14.7018L24.5 15ZM24.5 15C24.9013 14.7018 24.9014 14.7019 24.9015 14.702L24.9019 14.7026L24.9035 14.7047L24.9094 14.7126L24.9324 14.7437L25.0211 14.8644C25.0987 14.9702 25.2122 15.1257 25.3565 15.3254C25.645 15.7248 26.0569 16.3011 26.5509 17.0102C27.5386 18.428 28.8564 20.3785 30.1751 22.5075C31.4927 24.6349 32.8166 26.9494 33.8128 29.0936C34.7995 31.2174 35.5 33.2461 35.5 34.7764C35.5 40.7114 30.5625 45.5 24.5 45.5C18.4375 45.5 13.5 40.7114 13.5 34.7764C13.5 33.2461 14.2005 31.2174 15.1872 29.0936C16.1834 26.9494 17.5073 24.6349 18.8249 22.5075C20.1436 20.3785 21.4614 18.428 22.4491 17.0102C22.9431 16.3011 23.355 15.7248 23.6435 15.3254C23.7878 15.1257 23.9013 14.9702 23.9789 14.8644L24.0676 14.7437L24.0906 14.7126L24.0965 14.7047L24.0981 14.7026L24.0985 14.702C24.0986 14.7019 24.0987 14.7018 24.5 15Z" fill="white" stroke="#008200"/>
</svg>
