<svg width="60" height="60" viewBox="0 0 60 60" fill="none" xmlns="http://www.w3.org/2000/svg">
<rect width="60" height="60" rx="8" fill="#008200"/>
<path d="M47 35.7764C47 41.4227 42.299 46 36.5 46C30.701 46 26 41.4227 26 35.7764C26 30.13 36.5 16 36.5 16C36.5 16 47 30.13 47 35.7764Z" fill="white"/>
<path d="M24.5 16L24.9013 15.7018L24.5 15.1617L24.0987 15.7018L24.5 16ZM24.5 16C24.9013 15.7018 24.9014 15.7019 24.9015 15.702L24.9019 15.7026L24.9035 15.7047L24.9094 15.7126L24.9324 15.7437L25.0211 15.8644C25.0987 15.9702 25.2122 16.1257 25.3565 16.3254C25.645 16.7248 26.0569 17.3011 26.5509 18.0102C27.5386 19.428 28.8564 21.3785 30.1751 23.5075C31.4927 25.6349 32.8166 27.9494 33.8128 30.0936C34.7995 32.2174 35.5 34.2461 35.5 35.7764C35.5 41.7114 30.5625 46.5 24.5 46.5C18.4375 46.5 13.5 41.7114 13.5 35.7764C13.5 34.2461 14.2005 32.2174 15.1872 30.0936C16.1834 27.9494 17.5073 25.6349 18.8249 23.5075C20.1436 21.3785 21.4614 19.428 22.4491 18.0102C22.9431 17.3011 23.355 16.7248 23.6435 16.3254C23.7878 16.1257 23.9013 15.9702 23.9789 15.8644L24.0676 15.7437L24.0906 15.7126L24.0965 15.7047L24.0981 15.7026L24.0985 15.702C24.0986 15.7019 24.0987 15.7018 24.5 16Z" fill="white" stroke="#008200"/>
</svg>
