<svg width="1802px" height="1308px" viewBox="0 0 1802 1308" version="1.1" xmlns="http://www.w3.org/2000/svg" xmlns:xlink="http://www.w3.org/1999/xlink">

                <defs>
                    <path d="M928.6119,90.0806 C855.5829,144.8526 831.0609,177.4526 754.7159,191.8726 C678.3719,206.2936 661.4069,196.9626 611.3589,188.4796 C561.3109,
                        179.9976 476.4839,192.7216 428.9809,235.9826 C381.4779,279.2446 365.3609,369.1616 357.7259,414.9686 C350.0909,460.7746 330.5809,505.7326 300.0439,
                        532.8776 C269.5059,560.0226 249.1479,559.1746 228.7889,560.8706 C208.4299,562.5676 180.4379,563.4156 127.8449,564.2636 C75.2519,565.1116 19.2659,
                        601.5876 6.5419,649.9386 C-6.1821,698.2906 -2.7891,760.2146 38.7759,816.1996 C80.3409,872.1856 139.7199,916.2966 176.1959,954.4686 C212.6719,
                        992.6406 245.7539,1083.4056 288.1679,1139.3916 C330.5809,1195.3776 398.4429,1213.1906 441.7049,1219.1286 C484.9659,1225.0666 525.6839,1217.4326 587.6079,
                        1209.7976 C649.5309,1202.1636 659.7099,1200.4666 695.3379,1205.5566 C730.9649,1210.6456 783.5579,1231.0046 817.4879,1253.0596 C851.4199,1275.1146 912.4949,
                        1316.6806 1043.1289,1305.6516 C1173.7619,1294.6246 1235.6859,1209.7976 1254.3479,1163.9906 C1273.0099,1118.1846 1290.8229,1029.1156 1315.4239,
                        996.0336 C1340.0239,962.9506 1393.4639,957.0136 1427.3959,956.1646 C1461.3259,955.3166 1556.3319,964.6476 1636.0699,944.2886 C1715.8069,923.9306 1791.3029,
                        839.1026 1800.6339,731.3736 C1809.9649,623.6426 1768.3999,546.4506 1724.2899,519.3056 C1680.1799,492.1606 1661.5179,482.8296 1625.8909,471.8026 C1590.2629,
                        460.7746 1547.0009,449.7476 1522.4019,425.1476 C1497.8019,400.5476 1460.4779,325.8996 1451.1469,297.0586 C1441.8159,268.2176 1410.4299,168.9696 1372.2579,
                        113.8316 C1334.0849,58.6946 1275.5549,17.9776 1203.4509,3.5576 C1131.3489,-10.8634 1032.1009,22.2186 1008.3499,37.4876 C984.5979,52.7566 942.1839,
                        79.9016 928.6119,90.0806" id="path-1"></path>
                    <filter x="-1.7%" y="-2.3%" width="103.3%" height="104.6%" filterUnits="objectBoundingBox" id="filter-2">
                        <feGaussianBlur stdDeviation="30" in="SourceAlpha" result="shadowBlurInner1"></feGaussianBlur>
                        <feOffset dx="0" dy="0" in="shadowBlurInner1" result="shadowOffsetInner1"></feOffset>
                        <feComposite in="shadowOffsetInner1" in2="SourceAlpha" operator="arithmetic" k2="-1" k3="1" result="shadowInnerInner1"></feComposite>
                        <feColorMatrix values="0 0 0 0 0.811148886   0 0 0 0 0.89246036   0 0 0 0 0.956552934  0 0 0 1 0" type="matrix" in="shadowInnerInner1"></feColorMatrix>
                    </filter>
                    <path d="M921.8258,140.1284 C871.3828,182.8114 836.9988,219.8654 807.3088,231.7414 C777.6198,243.6174 706.3658,262.2794 652.9238,269.9144 C599.4828,
                        277.5484 555.3728,303.8444 528.2278,319.1134 C501.0838,334.3824 462.0628,388.6714 438.3118,442.1124 C414.5598,495.5534 391.6568,537.1194 368.7538,
                        554.0844 C345.8498,571.0494 303.4368,596.4984 247.4508,616.8564 C191.4648,637.2154 130.3888,674.5384 135.4788,731.3734 C140.5688,788.2074 213.5198,
                        819.5934 231.3338,830.6204 C249.1478,841.6484 266.1128,867.0964 265.2638,895.0894 C264.4158,923.0824 260.1748,966.3444 283.9268,981.6124 C307.6778,
                        996.8814 382.3258,999.4264 416.2568,1012.1504 C450.1878,1024.8744 470.5458,1074.0744 496.8428,1070.6814 C523.1388,1067.2884 518.0488,1042.6884 529.9248,
                        1022.3294 C541.8008,1001.9714 558.7658,984.1574 579.9728,987.5504 C601.1798,990.9434 639.3518,1019.7844 657.1658,1036.7504 C674.9788,1053.7164 736.9028,
                        1123.2744 754.7168,1143.6324 C772.5308,1163.9904 835.3028,1218.2804 872.6258,1227.6114 C909.9508,1236.9414 969.3288,1236.9414 1018.5288,1230.1554 C1067.7288,
                        1223.3694 1131.3488,1191.1354 1168.6728,1157.2044 C1205.9958,1123.2744 1231.4448,1070.6814 1234.8378,994.3374 C1238.2308,917.9924 1284.0368,882.3644 1301.8508,
                        869.6414 C1319.6648,856.9174 1405.3398,847.5864 1442.6638,842.4964 C1479.9888,837.4064 1617.4078,838.2554 1648.7938,724.5864 C1680.1798,610.9184 1615.7108,
                        553.2364 1536.8228,515.9124 C1457.9328,478.5884 1379.0438,408.1824 1349.3548,364.9204 C1319.6648,321.6584 1293.3678,216.4724 1288.2788,185.0864 C1283.1898,
                        153.7004 1247.5618,57.8464 1174.6108,50.2114 C1101.6588,42.5774 1032.1008,46.8184 921.8258,140.1284" id="path-3"></path>
                    <filter x="-2.0%" y="-2.5%" width="103.9%" height="105.1%" filterUnits="objectBoundingBox" id="filter-4">
                        <feGaussianBlur stdDeviation="30" in="SourceAlpha" result="shadowBlurInner1"></feGaussianBlur>
                        <feOffset dx="0" dy="0" in="shadowBlurInner1" result="shadowOffsetInner1"></feOffset>
                        <feComposite in="shadowOffsetInner1" in2="SourceAlpha" operator="arithmetic" k2="-1" k3="1" result="shadowInnerInner1"></feComposite>
                        <feColorMatrix values="0 0 0 0 0.811148886   0 0 0 0 0.89246036   0 0 0 0 0.956552934  0 0 0 1 0" type="matrix" in="shadowInnerInner1"></feColorMatrix>
                    </filter>
                    <path d="M820.882,280.9414 C791.407,320.8874 764.896,375.9474 736.055,414.1194 C707.214,452.2924 667.345,498.0984 612.207,533.7264 C557.07,569.3534 534.166,
                        574.4424 485.815,594.8014 C437.464,615.1604 386.567,671.1464 396.746,723.7384 C406.926,776.3314 450.188,810.2624 516.353,836.5594 C582.518,862.8554 628.324,
                        885.7584 660.559,914.5994 C692.793,943.4414 729.269,988.3994 744.537,1024.8744 C759.806,1061.3504 796.282,1144.4814 824.275,1164.8394 C852.268,1185.1974 889.591,
                        1186.8944 909.102,1186.8944 C928.612,1186.8944 954.061,1177.5634 971.874,1165.6884 C989.688,1153.8124 1001.564,1146.1774 1026.163,1144.4814 C1050.763,
                        1142.7844 1094.873,1134.3014 1116.928,1116.4874 C1138.984,1098.6744 1151.707,1084.2534 1148.315,1024.8744 C1144.921,965.4954 1138.135,933.2614 1152.556,
                        884.0624 C1166.976,834.8614 1248.41,775.4834 1267.072,763.6074 C1285.734,751.7324 1414.671,694.0494 1405.34,621.0974 C1396.009,548.1464 1289.127,554.0844 1261.134,
                        548.1464 C1233.141,542.2084 1160.19,521.8504 1140.68,479.4364 C1121.169,437.0234 1118.625,385.2784 1140.68,324.2034 C1162.735,263.1284 1155.101,
                        191.8734 1122.018,175.7554 C1088.936,159.6384 949.819,106.1974 820.882,280.9414" id="path-5"></path>
                    <filter x="-3.0%" y="-2.9%" width="105.9%" height="105.8%" filterUnits="objectBoundingBox" id="filter-6">
                        <feGaussianBlur stdDeviation="30" in="SourceAlpha" result="shadowBlurInner1"></feGaussianBlur>
                        <feOffset dx="0" dy="0" in="shadowBlurInner1" result="shadowOffsetInner1"></feOffset>
                        <feComposite in="shadowOffsetInner1" in2="SourceAlpha" operator="arithmetic" k2="-1" k3="1" result="shadowInnerInner1"></feComposite>
                        <feColorMatrix values="0 0 0 0 0.811148886   0 0 0 0 0.89246036   0 0 0 0 0.956552934  0 0 0 1 0" type="matrix" in="shadowInnerInner1"></feColorMatrix>
                    </filter>
                    <path d="M765.7443,478.5884 C729.2833,505.4864 691.9443,551.5394 692.7933,582.0774 C693.6413,612.6154 717.3923,662.6634 728.4203,689.8084 C739.4483,716.9524 742.8413,
                        737.3114 740.2963,752.5794 C737.7513,767.8494 724.1793,789.0554 705.5163,801.7794 C686.8553,814.5034 674.1313,850.1314 719.0893,871.3374 C764.0473,
                        892.5444 780.1643,901.0264 799.6753,940.8964 C819.1853,980.7644 808.1583,1007.9094 807.3093,1021.4824 C806.4613,1035.0544 794.5853,1068.9844 822.5783,
                        1082.5574 C850.5713,1096.1294 851.4193,1094.4334 864.1433,1102.0674 C876.8683,1109.7014 880.2613,1114.7914 898.9223,1113.9424 C917.5843,1113.0954 935.3983,
                        1080.8604 959.9983,1080.0124 C984.5983,1079.1634 1038.8873,1083.4054 1062.6393,1061.3504 C1086.3903,1039.2954 1107.5973,1003.6674 1097.4183,928.1714 C1087.2383,
                        852.6754 1077.0593,775.4834 1105.0523,735.6144 C1133.0453,695.7454 1172.9143,674.5384 1188.1823,661.8154 C1203.4513,649.0904 1211.0863,626.1884 1211.0863,
                        609.2224 C1211.0863,592.2564 1186.4863,561.7184 1160.1893,550.6914 C1133.8933,539.6644 1107.5973,526.9404 1097.4183,494.7054 C1087.2383,462.4714 1078.7563,
                        395.4584 1066.0323,357.2854 C1053.3073,319.1134 1015.1363,255.4934 966.7843,253.7964 C918.4323,252.1004 878.5643,270.7624 866.6883,320.8104 C854.8123,
                        370.8584 869.2333,402.2444 765.7443,478.5884" id="path-7"></path>
                    <filter x="-5.7%" y="-3.5%" width="111.5%" height="107.0%" filterUnits="objectBoundingBox" id="filter-8">
                        <feGaussianBlur stdDeviation="30" in="SourceAlpha" result="shadowBlurInner1"></feGaussianBlur>
                        <feOffset dx="0" dy="0" in="shadowBlurInner1" result="shadowOffsetInner1"></feOffset>
                        <feComposite in="shadowOffsetInner1" in2="SourceAlpha" operator="arithmetic" k2="-1" k3="1" result="shadowInnerInner1"></feComposite>
                        <feColorMatrix values="0 0 0 0 0.811148886   0 0 0 0 0.89246036   0 0 0 0 0.956552934  0 0 0 1 0" type="matrix" in="shadowInnerInner1"></feColorMatrix>
                    </filter>
                    <path d="M318.7667,652.9995 C298.7667,646.9995 272.2667,663.9995 258.7667,677.9995 C245.2667,691.9995 218.7667,733.4995 240.7667,752.4995 C262.7667,
                        771.4995 301.2667,764.9995 317.7667,759.4995 C334.2667,753.9995 361.2667,731.4995 350.7667,692.9995 C340.2667,654.4995 318.7667,652.9995 318.7667,652.9995" id="path-9"></path>
                    <filter x="-37.3%" y="-39.7%" width="174.5%" height="179.3%" filterUnits="objectBoundingBox" id="filter-10">
                        <feOffset dx="0" dy="0" in="SourceAlpha" result="shadowOffsetOuter1"></feOffset>
                        <feGaussianBlur stdDeviation="15" in="shadowOffsetOuter1" result="shadowBlurOuter1"></feGaussianBlur>
                        <feColorMatrix values="0 0 0 0 0.811148886   0 0 0 0 0.89246036   0 0 0 0 0.956552934  0 0 0 1 0" type="matrix" in="shadowBlurOuter1"></feColorMatrix>
                    </filter>
                    <path d="M1536.5997,633.9995 C1522.5167,617.9995 1493.9337,623.9995 1477.9337,631.3325 C1461.9337,638.6665 1436.7527,669.0195 1449.9337,704.6665 C1457.2667,
                        724.4995 1464.9747,733.1425 1475.7667,731.9995 C1497.0167,729.7495 1499.5997,705.6665 1508.0167,698.7495 C1518.1627,690.4115 1568.1827,669.8805 1536.5997,633.9995" id="path-11"></path>
                    <filter x="-44.7%" y="-41.6%" width="189.4%" height="183.2%" filterUnits="objectBoundingBox" id="filter-12">
                        <feOffset dx="0" dy="0" in="SourceAlpha" result="shadowOffsetOuter1"></feOffset>
                        <feGaussianBlur stdDeviation="15" in="shadowOffsetOuter1" result="shadowBlurOuter1"></feGaussianBlur>
                        <feColorMatrix values="0 0 0 0 0.811148886   0 0 0 0 0.89246036   0 0 0 0 0.956552934  0 0 0 1 0" type="matrix" in="shadowBlurOuter1"></feColorMatrix>
                    </filter>
                </defs>

                <g id="Page-1" stroke="none" stroke-width="1" fill="none" fill-rule="evenodd">
                    <g id="earthlayers" transform="translate(-19.000000, -20.000000)">
                        <g transform="translate(19.000000, 20.000000)">
                            <g id="Fill-1" fill="black" fill-opacity="1">
                                <use filter="url(#filter-2)" xlink:href="#path-1"></use>
                            </g>
                            <g id="Fill-4" fill="black" fill-opacity="1">
                                <use filter="url(#filter-4)" xlink:href="#path-3"></use>
                            </g>
                            <g id="Fill-6" fill="black" fill-opacity="1">
                                <use filter="url(#filter-6)" xlink:href="#path-5"></use>
                            </g>
                            <g id="Fill-8" fill="black" fill-opacity="1">
                                <use filter="url(#filter-8)" xlink:href="#path-7"></use>
                            </g>
                            <g id="Fill-10">
                                <use fill="black" fill-opacity="1" filter="url(#filter-10)" xlink:href="#path-9"></use>
                                <use fill="#FFFFFF" fill-rule="evenodd" xlink:href="#path-9"></use>
                            </g>
                            <g id="Fill-12">
                                <use fill="black" fill-opacity="1" filter="url(#filter-12)" xlink:href="#path-11"></use>
                                <use fill="#FFFFFF" fill-rule="evenodd" xlink:href="#path-11"></use>
                            </g>
                        </g>
                    </g>
                </g>

            </svg>