<?xml version="1.0" encoding="utf-8"?>
<!-- Generator: Adobe Illustrator 24.1.2, SVG Export Plug-In . SVG Version: 6.00 Build 0)  -->
<svg version="1.1" id="Layer_1" xmlns="http://www.w3.org/2000/svg" xmlns:xlink="http://www.w3.org/1999/xlink" x="0px" y="0px"
	 viewBox="0 0 92.1 31.1" style="enable-background:new 0 0 92.1 31.1;" xml:space="preserve">
<style type="text/css">
	.st0{fill:#1A171C;}
	.st1{fill:#E2001A;}
	.st2{fill:#8B0E13;}
</style>
<polygon class="st0" points="67.7,1.8 67.7,0.7 59.8,0.7 59.8,13.9 67.7,13.9 67.7,12.7 61,12.7 61,7.9 67.7,7.9 67.7,6.7 61,6.7 
	61,1.8 "/>
<path class="st0" d="M47.1,0.7l-9,13.3h1.4l4.1-6h3.7v6h1.2V0.7H47.1z M44.4,6.7l2.9-4.3v4.3H44.4z"/>
<path class="st0" d="M89.8,13.9h1.4l-9-13.3h-1.4v13.3H82v-6h3.7L89.8,13.9z M82,6.7V2.4l2.9,4.3H82z"/>
<polygon class="st0" points="79.3,13.9 79.3,13.9 79.3,0.7 78.2,0.7 78.2,12.1 70.3,0.7 68.9,0.7 68.9,0.7 68.9,0.7 68.9,13.9 
	70.1,13.9 70.1,2.4 77.9,13.9 79.3,13.9 "/>
<path class="st0" d="M57.4,13.9h1.4l-4.1-6h0.3c2,0,3.6-1.6,3.6-3.6c0-2-1.6-3.6-3.6-3.6H50v13.3h1.2v-6h2.2L57.4,13.9z M51.2,1.8
	h3.9c1.3,0,2.4,1.1,2.4,2.4c0,1.3-1.1,2.4-2.4,2.4h-3.9V1.8z"/>
<polygon class="st0" points="54.3,18.4 54.3,17.2 46.9,17.2 46.9,30.4 54.3,30.4 54.3,29.3 48.1,29.3 48.1,24.4 54.3,24.4 
	54.3,23.2 48.1,23.2 48.1,18.4 "/>
<polygon class="st0" points="65.8,30.4 65.7,30.4 65.7,17.2 64.6,17.2 64.6,28.7 57,17.2 55.7,17.2 55.6,17.2 55.7,17.2 55.7,30.4 
	56.8,30.4 56.8,18.9 64.4,30.4 65.7,30.4 "/>
<path class="st0" d="M90.7,30.4h1.4l-4-6h0.3c1.9,0,3.5-1.6,3.5-3.6c0-2-1.6-3.6-3.5-3.6h-4.9v13.3h1.1v-6h2L90.7,30.4z M84.7,18.3
	h3.7c1.3,0,2.4,1.1,2.4,2.4c0,1.3-1.1,2.4-2.4,2.4h-3.7V18.3z"/>
<path class="st0" d="M45.6,30.4h-1.9c-3.5,0-6.4-3-6.4-6.6s2.9-6.6,6.4-6.6h1.9v1.2h-1.9c-2.9,0-5.3,2.5-5.3,5.5
	c0,3,2.4,5.5,5.3,5.5h1.9V30.4z"/>
<polygon class="st0" points="74.3,17.2 66.7,17.2 66.7,18.4 69.9,18.4 69.9,30.4 71.1,30.4 71.1,18.4 74.3,18.4 "/>
<path class="st0" d="M81.3,30.4h1.2l-4.3-13.3h-1.2l-4.3,13.3H74l1.9-6h3.4L81.3,30.4z M76.4,23.2l1.3-4.1l1.3,4.1H76.4z"/>
<path class="st1" d="M21,13.3c-0.5-1.3-1.7-1.9-3.1-1.9c-1.1,0-2.2,0.3-3.4,0.9c-2.7,1.4-3.7,3.8-2.9,5.5c0.8,1.5,3.6,2.2,6.2,0.9
	C20.6,17.4,21.6,15,21,13.3 M17.1,17.3c-0.6,0.3-1.2,0.4-1.7,0.4c-0.8,0-1.4-0.3-1.7-0.9c-0.5-1,0.3-2.3,1.7-3.1
	c1.4-0.7,3-0.5,3.4,0.4C19.2,15.2,18.5,16.6,17.1,17.3"/>
<path class="st1" d="M25.9,10.7c-1.4-3-4.6-4.7-8.1-4.7c-1.9,0-3.8,0.5-5.7,1.4c-5.3,2.8-7.8,8.7-5.7,13c2.1,4.3,8.4,5.7,13.8,3
	C25.5,20.7,27.9,15.1,25.9,10.7 M18.5,19.9c-1.9,1-3.8,1.5-5.3,1.5c-1.9,0-3.4-0.7-4-2C7.9,17,9.8,13.3,14,11.1
	c4.2-2.2,8.4-1.8,9.5,0.5C24.6,14.1,22.7,17.8,18.5,19.9"/>
<path class="st1" d="M3.8,22.1c-2.3-4.7,1.4-11.5,8.2-15c6.9-3.6,14.4-2.6,16.7,2.1c2.3,4.7-1.3,11.5-8.2,15
	c-2.8,1.5-5.7,2.2-8.3,2.2C8.3,26.4,5.1,24.9,3.8,22.1 M30.5,7.8c-3.7-7.2-13.2-10.1-21.2-6C1.3,6-2.2,15.4,1.4,22.8
	c3.7,7.4,13.3,10.6,21.2,6.7C30.9,25.3,34.5,15.5,30.5,7.8"/>
<path class="st2" d="M27.5,4.9C23.8,1,15,1.3,8.9,7.1c-6.4,6.2-8,14.6-4,19.4c4,4.7,12.7,3.5,18.8-2.4C30.1,17.9,31.9,9.3,27.5,4.9
	 M20.5,24.2c-2.8,1.5-5.7,2.2-8.3,2.2c-3.8,0-7-1.5-8.4-4.3c-2.3-4.7,1.4-11.5,8.2-15c6.9-3.6,14.4-2.6,16.7,2.1
	C31.1,13.9,27.4,20.7,20.5,24.2"/>
<path class="st2" d="M13.1,21.4c-1.9,0-3.4-0.7-4-2C7.9,17,9.8,13.3,14,11.1c4.2-2.2,8.4-1.8,9.5,0.5c0.6,1.4,0.3,3.1-0.8,4.7
	c1.3-1.8,1.7-3.7,1-5.1c-1.2-2.4-4.1-3.6-8.6-2c-5.8,2.1-7.9,7.6-6.7,10c0.7,1.5,2.6,2.3,4.9,2.2C13.3,21.4,13.2,21.4,13.1,21.4"/>
<path class="st2" d="M25.9,10.7c-1.4-3-4.6-4.7-8.1-4.7c-1.9,0-3.8,0.5-5.7,1.4c5.4-2.7,11.4-1.3,13.5,2.8c2.2,4.3-0.2,9.9-5.5,12.6
	c-5.4,2.8-11.6,1.7-13.7-2.6c0,0-0.3-0.6-0.5-1.1c0.1,0.6,0.5,1.4,0.5,1.4c2.1,4.3,8.4,5.7,13.8,3C25.5,20.7,27.9,15.1,25.9,10.7"/>
<path class="st2" d="M21,13.3c-0.5-1.3-1.7-1.9-3.1-1.9c-1.1,0-2.2,0.3-3.4,0.9c-2.7,1.4-3.7,3.8-2.9,5.5c0.8,1.5,3.6,2.2,6.2,0.9
	C20.6,17.4,21.6,15,21,13.3 M17.6,18.4c-1.9,1.1-4.6,1-5.6-0.2c-1.3-1.5-0.2-4.3,2.4-5.7c2.8-1.6,5.6-1.1,6.2,0.3
	C21.5,14.6,20.2,16.9,17.6,18.4"/>
<path class="st2" d="M19.5,14c0-1-1.5-2.1-3.8-1c-1.6,0.7-2.6,2.5-2.3,3.5c0.4,1.5,2.3,1.5,3.7,0.8C18.5,16.6,19.6,15.5,19.5,14
	 M17.1,17.3c-0.6,0.3-1.2,0.4-1.7,0.4c-0.8,0-1.4-0.3-1.7-0.9c-0.5-1,0.3-2.3,1.7-3.1c1.4-0.7,3-0.5,3.4,0.4
	C19.2,15.2,18.5,16.6,17.1,17.3"/>
<g>
</g>
<g>
</g>
<g>
</g>
<g>
</g>
<g>
</g>
<g>
</g>
<g>
</g>
<g>
</g>
<g>
</g>
<g>
</g>
<g>
</g>
<g>
</g>
<g>
</g>
<g>
</g>
<g>
</g>
</svg>
