<?xml version="1.0" encoding="UTF-8" standalone="no"?>
<svg
   xmlns:dc="http://purl.org/dc/elements/1.1/"
   xmlns:cc="http://creativecommons.org/ns#"
   xmlns:rdf="http://www.w3.org/1999/02/22-rdf-syntax-ns#"
   xmlns:svg="http://www.w3.org/2000/svg"
   xmlns="http://www.w3.org/2000/svg"
   viewBox="0 0 1122.52 793.70667"
   height="793.70667"
   width="1122.52"
   xml:space="preserve"
   id="svg2"
   version="1.1"><metadata
     id="metadata8"><rdf:RDF><cc:Work
         rdf:about=""><dc:format>image/svg+xml</dc:format><dc:type
           rdf:resource="http://purl.org/dc/dcmitype/StillImage" /></cc:Work></rdf:RDF></metadata><defs
     id="defs6"><clipPath
       id="clipPath18"
       clipPathUnits="userSpaceOnUse"><path
         id="path16"
         d="M 0,595.28 H 841.89 V 0 H 0 Z" /></clipPath></defs><g
     transform="matrix(1.3333333,0,0,-1.3333333,0,793.70667)"
     id="g10"><g
       id="g12"><g
         clip-path="url(#clipPath18)"
         id="g14"><g
           transform="translate(299.9128,298.1446)"
           id="g20"><path
             id="path22"
             style="fill:#393536;fill-opacity:1;fill-rule:nonzero;stroke:none"
             d="m 0,0 c 0,-0.272 0.116,-0.407 0.349,-0.407 h 10.758 c 0.232,0 0.396,0.087 0.493,0.261 0.097,0.175 0.146,0.649 0.146,1.426 0,2.209 -0.369,3.885 -1.106,5.029 C 9.905,7.452 8.431,8.024 6.222,8.024 4.942,8.024 3.896,7.821 3.082,7.414 2.268,7.007 1.628,6.445 1.162,5.727 0.697,5.009 0.387,4.157 0.232,3.169 0.077,2.181 0,1.124 0,0 m 17.328,-17.271 c -1.125,-0.543 -2.549,-0.96 -4.273,-1.25 -1.726,-0.291 -3.616,-0.436 -5.67,-0.436 -2.831,0 -5.204,0.378 -7.124,1.134 -1.918,0.756 -3.46,1.832 -4.622,3.227 -1.164,1.396 -1.988,3.082 -2.472,5.059 -0.485,1.977 -0.727,4.187 -0.727,6.629 0,5.234 1.124,9.246 3.372,12.038 2.248,2.79 5.757,4.186 10.526,4.186 2.326,0 4.264,-0.31 5.814,-0.93 1.551,-0.62 2.792,-1.512 3.723,-2.675 0.93,-1.164 1.589,-2.579 1.977,-4.245 0.387,-1.668 0.581,-3.548 0.581,-5.641 0,-1.977 -0.087,-3.295 -0.261,-3.954 -0.175,-0.66 -0.611,-0.988 -1.308,-0.988 H 0.465 c -0.233,0 -0.349,-0.116 -0.349,-0.349 0,-1.551 0.183,-2.831 0.553,-3.839 0.367,-1.007 0.9,-1.802 1.599,-2.384 0.697,-0.581 1.57,-0.988 2.617,-1.221 1.046,-0.232 2.247,-0.348 3.605,-0.348 1.472,0 2.984,0.144 4.535,0.436 1.55,0.291 2.771,0.59 3.664,0.901 0.31,0 0.523,-0.097 0.639,-0.29 l 0.408,-4.536 c 0,-0.233 -0.137,-0.408 -0.408,-0.524" /></g><g
           transform="translate(342.2961,279.769)"
           id="g24"><path
             id="path26"
             style="fill:#393536;fill-opacity:1;fill-rule:nonzero;stroke:none"
             d="m 0,0 c -0.387,0 -0.581,0.194 -0.581,0.581 v 19.655 c 0,1.084 -0.078,1.996 -0.232,2.733 -0.156,0.736 -0.437,1.309 -0.844,1.716 -0.407,0.406 -0.979,0.697 -1.716,0.872 -0.737,0.174 -1.685,0.261 -2.849,0.261 -1.783,0 -3.159,-0.116 -4.129,-0.348 -0.388,-0.117 -0.581,-0.311 -0.581,-0.581 V 0.581 C -10.932,0.194 -11.126,0 -11.513,0 h -6.455 c -0.389,0 -0.581,0.194 -0.581,0.581 V 29.89 c 0,0.309 0.192,0.503 0.581,0.581 0.775,0.116 1.666,0.251 2.675,0.407 1.008,0.155 2.054,0.29 3.141,0.406 1.084,0.116 2.16,0.213 3.226,0.291 1.066,0.078 2.064,0.117 2.995,0.117 2.558,0 4.672,-0.185 6.338,-0.553 C 2.074,30.77 3.403,30.16 4.391,29.307 5.38,28.454 6.067,27.321 6.456,25.906 6.842,24.491 7.037,22.716 7.037,20.585 V 0.581 C 7.037,0.194 6.842,0 6.456,0 Z" /></g><g
           transform="translate(361.9453,298.1446)"
           id="g28"><path
             id="path30"
             style="fill:#393536;fill-opacity:1;fill-rule:nonzero;stroke:none"
             d="m 0,0 c 0,-0.272 0.116,-0.407 0.349,-0.407 h 10.758 c 0.232,0 0.396,0.087 0.493,0.261 0.097,0.175 0.146,0.649 0.146,1.426 0,2.209 -0.369,3.885 -1.106,5.029 C 9.905,7.452 8.431,8.024 6.222,8.024 4.942,8.024 3.896,7.821 3.082,7.414 2.268,7.007 1.628,6.445 1.162,5.727 0.697,5.009 0.387,4.157 0.232,3.169 0.077,2.181 0,1.124 0,0 m 17.328,-17.271 c -1.125,-0.543 -2.549,-0.96 -4.273,-1.25 -1.726,-0.291 -3.616,-0.436 -5.67,-0.436 -2.831,0 -5.204,0.378 -7.124,1.134 -1.918,0.756 -3.46,1.832 -4.622,3.227 -1.164,1.396 -1.988,3.082 -2.472,5.059 -0.485,1.977 -0.727,4.187 -0.727,6.629 0,5.234 1.124,9.246 3.372,12.038 2.248,2.79 5.757,4.186 10.526,4.186 2.326,0 4.264,-0.31 5.814,-0.93 1.551,-0.62 2.792,-1.512 3.723,-2.675 0.93,-1.164 1.589,-2.579 1.977,-4.245 0.387,-1.668 0.581,-3.548 0.581,-5.641 0,-1.977 -0.087,-3.295 -0.261,-3.954 -0.175,-0.66 -0.611,-0.988 -1.308,-0.988 H 0.465 c -0.233,0 -0.349,-0.116 -0.349,-0.349 0,-1.551 0.183,-2.831 0.553,-3.839 0.367,-1.007 0.9,-1.802 1.599,-2.384 0.697,-0.581 1.57,-0.988 2.617,-1.221 1.046,-0.232 2.247,-0.348 3.605,-0.348 1.472,0 2.984,0.144 4.535,0.436 1.55,0.291 2.771,0.59 3.664,0.901 0.31,0 0.523,-0.097 0.639,-0.29 l 0.408,-4.536 c 0,-0.233 -0.137,-0.408 -0.408,-0.524" /></g><g
           transform="translate(402.121,305.1225)"
           id="g32"><path
             id="path34"
             style="fill:#393536;fill-opacity:1;fill-rule:nonzero;stroke:none"
             d="M 0,0 C -1.396,0.232 -2.889,0.349 -4.477,0.349 -4.944,0.349 -5.505,0.32 -6.164,0.261 -6.823,0.204 -7.385,0.077 -7.85,-0.116 -8.122,-0.272 -8.257,-0.485 -8.257,-0.756 v -24.016 c 0,-0.465 -0.214,-0.658 -0.64,-0.581 h -6.397 c -0.388,0 -0.581,0.194 -0.581,0.581 V 4.536 c 0,0.309 0.193,0.503 0.581,0.581 1.474,0.311 3.199,0.591 5.176,0.844 1.977,0.251 3.896,0.377 5.757,0.377 0.968,0 1.802,-0.02 2.5,-0.057 0.698,-0.04 1.433,-0.099 2.21,-0.175 C 0.581,6.066 0.697,5.911 0.697,5.641 L 0.406,0.291 C 0.406,0.057 0.271,-0.04 0,0" /></g><g
           transform="translate(420.0319,286.8056)"
           id="g36"><path
             id="path38"
             style="fill:#393536;fill-opacity:1;fill-rule:nonzero;stroke:none"
             d="M 0,0 C 0.813,0 1.501,0.038 2.064,0.116 2.625,0.193 3.061,0.271 3.373,0.349 3.643,0.425 3.779,0.6 3.779,0.872 v 17.154 c 0,0.232 -0.116,0.407 -0.349,0.523 -0.426,0.194 -0.95,0.32 -1.569,0.378 -0.621,0.058 -1.339,0.087 -2.152,0.087 -1.358,0 -2.472,-0.126 -3.344,-0.377 -0.872,-0.253 -1.57,-0.728 -2.093,-1.425 -0.524,-0.698 -0.893,-1.668 -1.105,-2.908 -0.213,-1.241 -0.32,-2.869 -0.32,-4.884 0,-1.977 0.088,-3.577 0.261,-4.798 C -6.717,3.401 -6.378,2.451 -5.873,1.773 -5.37,1.094 -4.652,0.629 -3.723,0.377 -2.792,0.124 -1.552,0 0,0 m 11.339,-6.339 c 0,-2.286 -0.329,-4.158 -0.988,-5.611 -0.661,-1.453 -1.6,-2.588 -2.821,-3.402 -1.221,-0.814 -2.694,-1.376 -4.42,-1.687 -1.725,-0.309 -3.654,-0.464 -5.785,-0.464 -0.659,0 -1.484,0.038 -2.472,0.116 -0.989,0.078 -2.006,0.184 -3.053,0.32 -1.046,0.136 -2.034,0.291 -2.965,0.465 -0.93,0.175 -1.667,0.378 -2.21,0.611 -0.272,0.116 -0.407,0.27 -0.407,0.464 l 0.697,4.537 c 0.078,0.27 0.253,0.387 0.524,0.348 0.543,-0.116 1.192,-0.242 1.948,-0.378 0.756,-0.136 1.541,-0.262 2.356,-0.378 0.813,-0.116 1.628,-0.213 2.441,-0.291 0.815,-0.077 1.571,-0.116 2.268,-0.116 1.745,0 3.101,0.116 4.07,0.348 0.97,0.234 1.697,0.612 2.181,1.135 0.485,0.524 0.786,1.202 0.902,2.036 0.116,0.834 0.174,1.83 0.174,2.994 0,0.271 -0.116,0.407 -0.349,0.407 C 2.655,-4.963 1.861,-5.021 1.046,-5.06 0.232,-5.098 -0.64,-5.117 -1.571,-5.117 c -2.442,0 -4.515,0.221 -6.222,0.668 -1.706,0.445 -3.092,1.201 -4.157,2.268 -1.066,1.065 -1.842,2.509 -2.326,4.331 -0.485,1.823 -0.727,4.129 -0.727,6.921 0,2.752 0.261,5.117 0.785,7.094 0.523,1.977 1.386,3.596 2.588,4.856 1.2,1.259 2.752,2.181 4.652,2.762 1.899,0.581 4.225,0.872 6.978,0.872 0.813,0 1.734,-0.021 2.762,-0.058 1.026,-0.039 2.043,-0.108 3.052,-0.203 1.008,-0.097 1.958,-0.224 2.85,-0.379 0.891,-0.154 1.628,-0.349 2.21,-0.581 0.193,-0.078 0.319,-0.165 0.377,-0.262 0.059,-0.098 0.088,-0.203 0.088,-0.319 z" /></g><g
           transform="translate(439.1565,279.769)"
           id="g40"><path
             id="path42"
             style="fill:#393536;fill-opacity:1;fill-rule:nonzero;stroke:none"
             d="m 0,0 c -0.387,0 -0.581,0.194 -0.581,0.581 v 29.947 c 0,0.388 0.194,0.582 0.581,0.582 h 6.456 c 0.386,0 0.581,-0.194 0.581,-0.582 V 0.581 C 7.037,0.194 6.842,0 6.456,0 Z m -0.174,36.285 c -0.388,0 -0.582,0.194 -0.582,0.582 v 5.757 c 0,0.387 0.194,0.582 0.582,0.582 h 6.803 c 0.387,0 0.583,-0.195 0.583,-0.582 v -5.757 c 0,-0.388 -0.196,-0.582 -0.583,-0.582 z" /></g><g
           transform="translate(468.9845,293.2599)"
           id="g44"><path
             id="path46"
             style="fill:#393536;fill-opacity:1;fill-rule:nonzero;stroke:none"
             d="m 0,0 c 0,0.232 -0.116,0.349 -0.35,0.349 h -3.895 c -1.047,0 -1.919,-0.058 -2.617,-0.174 -0.698,-0.118 -1.26,-0.36 -1.687,-0.727 -0.426,-0.369 -0.727,-0.873 -0.901,-1.512 -0.175,-0.64 -0.262,-1.484 -0.262,-2.53 0,-1.047 0.078,-1.871 0.234,-2.471 0.154,-0.602 0.444,-1.057 0.872,-1.367 0.425,-0.311 0.997,-0.515 1.714,-0.61 0.718,-0.097 1.659,-0.145 2.821,-0.145 0.659,0 1.337,0.029 2.035,0.086 0.698,0.059 1.24,0.126 1.629,0.204 C -0.137,-8.819 0,-8.684 0,-8.49 Z m -6.164,12.095 c -1.048,0 -2.278,-0.059 -3.693,-0.175 -1.415,-0.116 -2.588,-0.252 -3.518,-0.406 -0.194,-0.04 -0.378,-0.049 -0.552,-0.03 -0.175,0.019 -0.282,0.126 -0.32,0.32 l -0.407,4.477 c -0.078,0.427 0.038,0.699 0.348,0.815 1.124,0.31 2.607,0.571 4.449,0.785 1.841,0.213 3.751,0.32 5.728,0.32 1.783,0 3.392,-0.166 4.826,-0.494 1.434,-0.331 2.655,-0.853 3.664,-1.571 1.008,-0.717 1.773,-1.666 2.297,-2.849 0.524,-1.182 0.785,-2.626 0.785,-4.332 v -21.109 c 0,-0.194 -0.05,-0.358 -0.145,-0.493 -0.097,-0.137 -0.301,-0.263 -0.611,-0.379 -0.505,-0.155 -1.134,-0.301 -1.89,-0.436 -0.756,-0.136 -1.58,-0.242 -2.471,-0.32 -0.893,-0.077 -1.832,-0.145 -2.821,-0.204 -0.988,-0.057 -1.986,-0.086 -2.994,-0.086 -2.637,0 -4.827,0.135 -6.572,0.406 -1.744,0.271 -3.14,0.747 -4.186,1.425 -1.047,0.678 -1.784,1.571 -2.211,2.675 -0.426,1.105 -0.638,2.491 -0.638,4.158 0,1.473 0.116,2.763 0.349,3.867 0.232,1.105 0.697,2.035 1.395,2.791 0.698,0.756 1.696,1.376 2.994,1.86 1.299,0.486 3.015,0.863 5.146,1.135 L -0.35,5.117 C -0.116,5.155 0,5.272 0,5.466 v 2.325 c 0,1.746 -0.466,2.899 -1.396,3.46 -0.931,0.562 -2.521,0.844 -4.768,0.844" /></g><g
           transform="translate(517.6055,279.769)"
           id="g48"><path
             id="path50"
             style="fill:#393536;fill-opacity:1;fill-rule:nonzero;stroke:none"
             d="m 0,0 c -0.387,0 -0.581,0.194 -0.581,0.581 v 19.655 c 0,1.084 -0.078,1.996 -0.232,2.733 -0.156,0.736 -0.437,1.309 -0.844,1.716 -0.407,0.406 -0.979,0.697 -1.716,0.872 -0.737,0.174 -1.685,0.261 -2.849,0.261 -1.783,0 -3.159,-0.116 -4.129,-0.348 -0.388,-0.117 -0.581,-0.311 -0.581,-0.581 V 0.581 C -10.932,0.194 -11.126,0 -11.513,0 h -6.455 c -0.389,0 -0.581,0.194 -0.581,0.581 V 29.89 c 0,0.309 0.192,0.503 0.581,0.581 0.775,0.116 1.666,0.251 2.675,0.407 1.008,0.155 2.054,0.29 3.141,0.406 1.084,0.116 2.16,0.213 3.226,0.291 1.066,0.078 2.064,0.117 2.995,0.117 2.558,0 4.672,-0.185 6.338,-0.553 C 2.074,30.77 3.403,30.16 4.391,29.307 5.38,28.454 6.067,27.321 6.456,25.906 6.842,24.491 7.037,22.716 7.037,20.585 V 0.581 C 7.037,0.194 6.842,0 6.456,0 Z" /></g><g
           transform="translate(546.8511,293.2599)"
           id="g52"><path
             id="path54"
             style="fill:#393536;fill-opacity:1;fill-rule:nonzero;stroke:none"
             d="m 0,0 c 0,0.232 -0.116,0.349 -0.35,0.349 h -3.895 c -1.047,0 -1.919,-0.058 -2.617,-0.174 -0.698,-0.118 -1.26,-0.36 -1.687,-0.727 -0.426,-0.369 -0.727,-0.873 -0.901,-1.512 -0.175,-0.64 -0.262,-1.484 -0.262,-2.53 0,-1.047 0.078,-1.871 0.234,-2.471 0.154,-0.602 0.444,-1.057 0.872,-1.367 0.425,-0.311 0.997,-0.515 1.714,-0.61 0.718,-0.097 1.659,-0.145 2.821,-0.145 0.659,0 1.337,0.029 2.035,0.086 0.698,0.059 1.24,0.126 1.629,0.204 C -0.137,-8.819 0,-8.684 0,-8.49 Z m -6.164,12.095 c -1.048,0 -2.278,-0.059 -3.693,-0.175 -1.415,-0.116 -2.588,-0.252 -3.518,-0.406 -0.194,-0.04 -0.378,-0.049 -0.552,-0.03 -0.175,0.019 -0.282,0.126 -0.32,0.32 l -0.407,4.477 c -0.078,0.427 0.038,0.699 0.348,0.815 1.124,0.31 2.607,0.571 4.449,0.785 1.841,0.213 3.751,0.32 5.728,0.32 1.783,0 3.392,-0.166 4.826,-0.494 1.434,-0.331 2.655,-0.853 3.664,-1.571 1.008,-0.717 1.773,-1.666 2.297,-2.849 0.524,-1.182 0.785,-2.626 0.785,-4.332 v -21.109 c 0,-0.194 -0.05,-0.358 -0.145,-0.493 -0.097,-0.137 -0.301,-0.263 -0.611,-0.379 -0.505,-0.155 -1.134,-0.301 -1.89,-0.436 -0.756,-0.136 -1.58,-0.242 -2.471,-0.32 -0.893,-0.077 -1.832,-0.145 -2.821,-0.204 -0.988,-0.057 -1.986,-0.086 -2.994,-0.086 -2.637,0 -4.827,0.135 -6.572,0.406 -1.744,0.271 -3.14,0.747 -4.186,1.425 -1.047,0.678 -1.784,1.571 -2.211,2.675 -0.426,1.105 -0.638,2.491 -0.638,4.158 0,1.473 0.116,2.763 0.349,3.867 0.232,1.105 0.697,2.035 1.395,2.791 0.698,0.756 1.696,1.376 2.994,1.86 1.299,0.486 3.015,0.863 5.146,1.135 L -0.35,5.117 C -0.116,5.155 0,5.272 0,5.466 v 2.325 c 0,1.746 -0.466,2.899 -1.396,3.46 -0.931,0.562 -2.521,0.844 -4.768,0.844" /></g><g
           transform="translate(574.5833,279.7102)"
           id="g56"><path
             id="path58"
             style="fill:#393536;fill-opacity:1;fill-rule:nonzero;stroke:none"
             d="m 0,0 c -0.66,-0.154 -1.405,-0.28 -2.239,-0.377 -0.834,-0.096 -1.657,-0.145 -2.471,-0.145 -4.692,0 -7.036,2.131 -7.036,6.395 v 19.074 c 0,0.233 -0.117,0.349 -0.349,0.349 h -4.013 c -0.388,0 -0.581,0.193 -0.581,0.581 v 4.71 c 0,0.388 0.193,0.582 0.581,0.582 h 4.013 c 0.232,0 0.349,0.116 0.349,0.349 v 7.269 c 0,0.387 0.194,0.581 0.581,0.581 h 6.455 c 0.387,0 0.581,-0.194 0.581,-0.581 v -7.269 c 0,-0.233 0.116,-0.349 0.349,-0.349 h 4.885 c 0.387,0 0.581,-0.194 0.581,-0.582 v -4.71 c 0,-0.388 -0.194,-0.581 -0.581,-0.581 H -3.78 c -0.233,0 -0.349,-0.116 -0.349,-0.349 V 7.676 c 0,-0.969 0.183,-1.618 0.553,-1.948 0.367,-0.329 1.017,-0.493 1.948,-0.493 h 1.802 c 0.388,0 0.582,-0.196 0.582,-0.583 L 0.581,0.756 C 0.581,0.329 0.387,0.078 0,0" /></g><g
           transform="translate(587.9565,310.8795)"
           id="g60"><path
             id="path62"
             style="fill:#393536;fill-opacity:1;fill-rule:nonzero;stroke:none"
             d="m 0,0 c 0.387,0 0.581,-0.194 0.581,-0.582 v -19.306 c 0,-1.125 0.088,-2.054 0.263,-2.791 0.173,-0.737 0.474,-1.318 0.9,-1.745 0.427,-0.426 1.027,-0.737 1.802,-0.929 0.775,-0.195 1.745,-0.292 2.908,-0.292 1.512,0 2.83,0.117 3.954,0.349 0.35,0.116 0.524,0.31 0.524,0.582 v 24.132 c 0,0.388 0.194,0.582 0.582,0.582 h 6.395 c 0.389,0 0.583,-0.194 0.583,-0.582 V -29.89 c 0,-0.31 -0.194,-0.504 -0.583,-0.581 -1.59,-0.31 -3.458,-0.592 -5.61,-0.843 -2.152,-0.252 -4.139,-0.377 -5.961,-0.377 -2.558,0 -4.691,0.194 -6.397,0.581 -1.706,0.386 -3.081,1.017 -4.129,1.889 -1.045,0.872 -1.782,2.026 -2.209,3.46 -0.426,1.434 -0.64,3.217 -0.64,5.35 v 19.829 c 0,0.388 0.194,0.582 0.583,0.582 z" /></g><g
           transform="translate(629.2383,305.1225)"
           id="g64"><path
             id="path66"
             style="fill:#393536;fill-opacity:1;fill-rule:nonzero;stroke:none"
             d="M 0,0 C -1.396,0.232 -2.889,0.349 -4.477,0.349 -4.944,0.349 -5.505,0.32 -6.164,0.261 -6.823,0.204 -7.385,0.077 -7.85,-0.116 -8.122,-0.272 -8.258,-0.485 -8.258,-0.756 v -24.016 c 0,-0.465 -0.213,-0.658 -0.639,-0.581 h -6.397 c -0.388,0 -0.581,0.194 -0.581,0.581 V 4.536 c 0,0.309 0.193,0.503 0.581,0.581 1.474,0.311 3.199,0.591 5.176,0.844 1.977,0.251 3.896,0.377 5.757,0.377 0.968,0 1.802,-0.02 2.5,-0.057 0.698,-0.04 1.433,-0.099 2.21,-0.175 C 0.581,6.066 0.697,5.911 0.697,5.641 L 0.406,0.291 C 0.406,0.057 0.271,-0.04 0,0" /></g><g
           transform="translate(649.7108,293.2599)"
           id="g68"><path
             id="path70"
             style="fill:#393536;fill-opacity:1;fill-rule:nonzero;stroke:none"
             d="m 0,0 c 0,0.232 -0.116,0.349 -0.35,0.349 h -3.895 c -1.047,0 -1.919,-0.058 -2.617,-0.174 -0.698,-0.118 -1.26,-0.36 -1.687,-0.727 -0.426,-0.369 -0.727,-0.873 -0.901,-1.512 -0.175,-0.64 -0.262,-1.484 -0.262,-2.53 0,-1.047 0.078,-1.871 0.234,-2.471 0.154,-0.602 0.444,-1.057 0.872,-1.367 0.425,-0.311 0.997,-0.515 1.714,-0.61 0.718,-0.097 1.659,-0.145 2.821,-0.145 0.659,0 1.337,0.029 2.035,0.086 0.698,0.059 1.24,0.126 1.629,0.204 C -0.137,-8.819 0,-8.684 0,-8.49 Z m -6.164,12.095 c -1.048,0 -2.278,-0.059 -3.693,-0.175 -1.415,-0.116 -2.588,-0.252 -3.518,-0.406 -0.194,-0.04 -0.378,-0.049 -0.552,-0.03 -0.175,0.019 -0.282,0.126 -0.32,0.32 l -0.407,4.477 c -0.078,0.427 0.038,0.699 0.348,0.815 1.124,0.31 2.607,0.571 4.449,0.785 1.841,0.213 3.751,0.32 5.728,0.32 1.783,0 3.392,-0.166 4.826,-0.494 1.434,-0.331 2.655,-0.853 3.664,-1.571 1.008,-0.717 1.773,-1.666 2.297,-2.849 0.524,-1.182 0.785,-2.626 0.785,-4.332 v -21.109 c 0,-0.194 -0.05,-0.358 -0.145,-0.493 -0.097,-0.137 -0.301,-0.263 -0.611,-0.379 -0.505,-0.155 -1.134,-0.301 -1.89,-0.436 -0.756,-0.136 -1.58,-0.242 -2.471,-0.32 -0.893,-0.077 -1.832,-0.145 -2.821,-0.204 -0.988,-0.057 -1.986,-0.086 -2.994,-0.086 -2.637,0 -4.827,0.135 -6.572,0.406 -1.744,0.271 -3.14,0.747 -4.186,1.425 -1.047,0.678 -1.784,1.571 -2.211,2.675 -0.426,1.105 -0.638,2.491 -0.638,4.158 0,1.473 0.116,2.763 0.349,3.867 0.232,1.105 0.697,2.035 1.395,2.791 0.698,0.756 1.696,1.376 2.995,1.86 1.298,0.486 3.014,0.863 5.145,1.135 L -0.35,5.117 C -0.116,5.155 0,5.272 0,5.466 v 2.325 c 0,1.746 -0.466,2.899 -1.396,3.46 -0.931,0.562 -2.521,0.844 -4.768,0.844" /></g><g
           transform="translate(675.5823,279.769)"
           id="g72"><path
             id="path74"
             style="fill:#393536;fill-opacity:1;fill-rule:nonzero;stroke:none"
             d="m 0,0 c -0.66,-0.194 -1.348,-0.339 -2.064,-0.436 -0.718,-0.096 -1.522,-0.145 -2.413,-0.145 -2.443,0 -4.266,0.504 -5.468,1.512 -1.201,1.008 -1.801,2.868 -1.801,5.582 v 35.588 c 0,0.425 0.192,0.64 0.581,0.64 h 6.454 c 0.388,0 0.582,-0.215 0.582,-0.64 V 7.559 c 0,-0.93 0.193,-1.57 0.581,-1.918 0.387,-0.349 1.008,-0.524 1.861,-0.524 h 1.861 c 0.386,0 0.582,-0.194 0.582,-0.581 L 0.581,0.697 C 0.581,0.31 0.387,0.077 0,0" /></g><g
           transform="translate(681.919,279.769)"
           id="g76"><path
             id="path78"
             style="fill:#393536;fill-opacity:1;fill-rule:nonzero;stroke:none"
             d="m 0,0 c -0.387,0 -0.581,0.194 -0.581,0.581 v 29.947 c 0,0.388 0.194,0.582 0.581,0.582 h 6.456 c 0.386,0 0.581,-0.194 0.581,-0.582 V 0.581 C 7.037,0.194 6.842,0 6.456,0 Z m -0.174,36.285 c -0.388,0 -0.582,0.194 -0.582,0.582 v 5.757 c 0,0.387 0.194,0.582 0.582,0.582 h 6.803 c 0.387,0 0.583,-0.195 0.583,-0.582 v -5.757 c 0,-0.388 -0.196,-0.582 -0.583,-0.582 z" /></g><g
           transform="translate(695.9922,279.8278)"
           id="g80"><path
             id="path82"
             style="fill:#393536;fill-opacity:1;fill-rule:nonzero;stroke:none"
             d="m 0,0 c -0.232,0.077 -0.349,0.232 -0.349,0.465 l 0.292,5.058 c 0,0.233 0.153,0.311 0.464,0.233 C 1.375,5.562 2.48,5.407 3.721,5.291 4.961,5.175 6.067,5.117 7.037,5.117 c 1.046,0 1.879,0.037 2.5,0.116 0.619,0.077 1.094,0.233 1.425,0.465 0.328,0.233 0.552,0.562 0.668,0.989 0.116,0.426 0.174,1.007 0.174,1.744 0,0.427 -0.078,0.823 -0.233,1.192 -0.154,0.368 -0.436,0.756 -0.842,1.164 -0.407,0.406 -0.97,0.88 -1.687,1.424 -0.718,0.542 -1.657,1.201 -2.82,1.977 C 5.06,14.963 4.07,15.67 3.257,16.31 2.442,16.95 1.783,17.59 1.28,18.229 c -0.505,0.64 -0.864,1.328 -1.076,2.065 -0.214,0.735 -0.32,1.588 -0.32,2.558 0,3.294 0.891,5.583 2.675,6.861 1.782,1.28 4.573,1.92 8.373,1.92 1.395,0 2.82,-0.058 4.275,-0.175 1.453,-0.116 2.625,-0.271 3.517,-0.465 0.194,-0.078 0.291,-0.213 0.291,-0.407 l -0.35,-5.175 c 0,-0.078 -0.038,-0.145 -0.116,-0.204 -0.078,-0.057 -0.173,-0.068 -0.29,-0.029 -0.892,0.155 -1.89,0.29 -2.995,0.408 -1.105,0.116 -2.083,0.174 -2.937,0.174 -1.822,0 -3.091,-0.145 -3.808,-0.437 -0.718,-0.291 -1.076,-1.056 -1.076,-2.296 0,-0.505 0.078,-0.941 0.233,-1.309 0.155,-0.369 0.437,-0.746 0.843,-1.133 0.407,-0.388 0.969,-0.824 1.687,-1.308 0.716,-0.486 1.657,-1.076 2.82,-1.775 1.278,-0.813 2.335,-1.569 3.169,-2.268 0.833,-0.697 1.501,-1.394 2.006,-2.093 0.503,-0.697 0.853,-1.425 1.047,-2.181 0.193,-0.756 0.291,-1.58 0.291,-2.47 0,-1.862 -0.253,-3.384 -0.756,-4.565 C 18.279,2.741 17.551,1.811 16.602,1.133 15.651,0.454 14.47,-0.011 13.055,-0.262 11.64,-0.514 10.04,-0.64 8.258,-0.64 6.629,-0.64 5.078,-0.582 3.605,-0.466 2.131,-0.35 0.931,-0.194 0,0" /></g><g
           transform="translate(279.2017,360.1365)"
           id="g84"><path
             id="path86"
             style="fill:#80cd3d;fill-opacity:1;fill-rule:nonzero;stroke:none"
             d="m 0,0 c -12.453,2.174 -81.644,-14.705 -105.305,-23.286 -23.661,-8.58 -41.811,-22.976 -46.038,-39.247 -1.68,-6.469 -6.638,-32.69 19.5,-54.472 17.908,-14.923 53.979,-14.989 80.189,3.753 37.015,26.47 52.042,52.885 62.049,95.055 C 12.2,-10.589 12.453,-2.174 0,0" /></g><g
           transform="translate(180.4474,311.5038)"
           id="g88"><path
             id="path90"
             style="fill:#ffffff;fill-opacity:1;fill-rule:nonzero;stroke:none"
             d="M 0,0 C -3.476,0 -8.264,-0.541 -11.896,-1.699 -12.667,-2.008 -13.13,-2.78 -13.13,-3.63 v -26.337 c 0,-1.005 0.771,-1.777 1.775,-1.777 h 5.716 c 1.004,0 1.777,0.772 1.777,1.777 v 20.93 c 1.004,0.696 3.399,0.773 4.093,0.773 4.402,0 4.79,-1.082 4.79,-6.642 v -15.061 c 0,-1.005 0.771,-1.777 1.775,-1.777 h 5.716 c 1.004,0 1.777,0.772 1.777,1.777 v 15.061 C 14.289,-4.711 10.35,0 0,0" /></g><g
           transform="translate(211.2219,311.5038)"
           id="g92"><path
             id="path94"
             style="fill:#ffffff;fill-opacity:1;fill-rule:nonzero;stroke:none"
             d="M 0,0 C -3.476,0 -8.265,-0.541 -11.895,-1.699 -12.667,-2.008 -13.13,-2.78 -13.13,-3.63 v -26.337 c 0,-1.005 0.771,-1.777 1.775,-1.777 h 5.716 c 1.004,0 1.777,0.772 1.777,1.777 v 20.93 c 1.004,0.696 3.399,0.773 4.093,0.773 4.402,0 4.79,-1.082 4.79,-6.642 v -15.061 c 0,-1.005 0.771,-1.777 1.775,-1.777 h 5.716 c 1.004,0 1.777,0.772 1.777,1.777 v 15.061 C 14.289,-4.711 10.349,0 0,0" /></g><g
           transform="translate(246.9328,289.646)"
           id="g96"><path
             id="path98"
             style="fill:#ffffff;fill-opacity:1;fill-rule:nonzero;stroke:none"
             d="m 0,0 c 0,0 -1.622,-2.008 -4.015,-2.008 -2.626,0 -4.635,1.081 -4.635,6.797 0,4.634 1.622,8.728 8.65,8.728 z m 8.033,20.004 c -3.861,1.313 -7.105,1.854 -10.427,1.854 -10.349,0 -16.143,-7.028 -16.143,-16.992 0,-7.956 2.704,-15.139 11.046,-15.139 1.158,0 4.016,0 7.491,2.936 L 1.236,-8.728 C 1.932,-9.5 2.472,-9.886 3.476,-9.886 h 4.017 c 1.004,0 1.777,0.772 1.777,1.776 v 26.183 c 0,0.85 -0.465,1.622 -1.237,1.931" /></g><g
           transform="translate(151.0513,303.1626)"
           id="g100"><path
             id="path102"
             style="fill:#ffffff;fill-opacity:1;fill-rule:nonzero;stroke:none"
             d="m 0,0 c 2.008,0 3.784,-0.464 3.784,-2.703 0,-1.7 -1.544,-2.395 -4.479,-2.395 -1.237,0 -3.475,0.309 -4.634,1.314 C -4.711,-1.005 -2.703,0 0,0 m 12.878,-18.577 -0.018,0.052 c -0.029,0.118 -0.069,0.234 -0.116,0.374 l -0.032,0.067 -1.191,3.537 c -0.437,0.905 -1.468,1.264 -2.372,0.827 l -1.257,-0.608 c -2.724,-1.204 -4.664,-1.545 -7.537,-1.358 -3.546,0.232 -5.608,2.247 -5.608,4.409 2.395,-0.695 4.635,-1.004 6.797,-1.004 6.951,0 11.509,3.63 11.509,10.813 0,5.639 -4.711,9.809 -13.053,9.809 -10.35,0 -14.752,-6.256 -14.752,-15.756 0,-10.195 4.402,-16.374 14.752,-16.374 3.476,0 8.187,0.077 11.663,3.089 0.694,0.463 1.235,1.236 1.235,1.931 0,0.075 -0.018,0.135 -0.031,0.199 z" /></g></g></g></g></svg>