<?xml version="1.0" standalone="no"?>
<!DOCTYPE svg PUBLIC "-//W3C//DTD SVG 20010904//EN"
 "http://www.w3.org/TR/2001/REC-SVG-20010904/DTD/svg10.dtd">
<svg version="1.0" xmlns="http://www.w3.org/2000/svg"
 width="444.000000pt" height="488.000000pt" viewBox="0 0 444.000000 488.000000"
 preserveAspectRatio="xMidYMid meet">

<g transform="translate(0.000000,488.000000) scale(0.100000,-0.100000)"
fill="#000000" stroke="none">
<path d="M2155 4865 c-155 -55 -183 -293 -46 -390 40 -28 48 -30 139 -30 60 0
110 5 130 14 l32 13 0 115 0 114 -77 -3 -78 -3 -3 -42 -3 -43 40 0 c40 0 41
-1 41 -35 0 -31 -3 -35 -39 -46 -52 -16 -102 -5 -134 29 -48 50 -54 107 -20
174 27 54 112 74 175 42 30 -15 31 -15 64 17 l35 33 -23 18 c-50 37 -161 48
-233 23z"/>
<path d="M1300 4660 l0 -210 50 0 50 0 0 90 0 90 90 0 90 0 0 -90 0 -90 45 0
45 0 0 210 0 210 -45 0 -45 0 0 -80 0 -80 -90 0 -90 0 0 80 0 80 -50 0 -50 0
0 -210z"/>
<path d="M2760 4660 l0 -210 45 0 44 0 3 95 3 96 74 -96 74 -95 59 0 c32 0 58
2 58 6 0 3 -36 48 -81 101 -45 53 -83 103 -86 110 -3 7 31 53 76 102 45 49 81
91 81 95 0 3 -24 6 -54 6 l-54 0 -74 -85 -73 -85 -3 85 -3 85 -44 0 -45 0 0
-210z"/>
<path d="M1842 4304 c-25 -17 -30 -65 -8 -83 12 -10 10 -16 -10 -36 -13 -13
-24 -31 -24 -38 0 -56 102 -87 153 -47 34 27 37 72 5 94 -20 15 -21 16 -5 34
52 58 -43 124 -111 76z m82 -36 c8 -14 7 -21 -6 -34 -16 -16 -18 -16 -43 0
-21 14 -24 20 -14 37 12 24 47 22 63 -3z m-3 -88 c43 -24 5 -79 -46 -66 -28 7
-38 31 -25 57 12 21 41 25 71 9z"/>
<path d="M2410 4260 l0 -60 39 0 c65 0 93 -45 47 -75 -19 -13 -32 -14 -60 -6
-32 8 -36 7 -36 -9 0 -18 26 -30 67 -30 61 0 103 52 84 103 -12 31 -39 47 -80
47 -28 0 -31 3 -31 30 0 29 2 30 45 30 33 0 45 4 45 15 0 12 -13 15 -60 15
l-60 0 0 -60z"/>
<path d="M2998 4309 c-10 -5 -18 -16 -18 -24 0 -12 5 -12 27 -4 34 13 69 5 78
-18 5 -13 -6 -30 -43 -64 -51 -47 -72 -77 -72 -103 0 -13 14 -16 80 -16 73 0
80 2 80 20 0 18 -7 20 -57 20 l-57 0 51 53 c63 64 70 85 42 120 -16 21 -29 27
-57 27 -20 0 -45 -5 -54 -11z"/>
<path d="M1318 4299 c-10 -5 -18 -17 -18 -24 0 -18 5 -18 31 -5 18 10 19 6 19
-90 0 -93 1 -100 20 -100 19 0 20 7 20 115 l0 115 -27 0 c-16 0 -36 -5 -45
-11z"/>
<path d="M1300 3770 l0 -180 183 -2 182 -3 0 -180 0 -180 -181 -3 -181 -2 4
-43 c2 -23 10 -103 16 -177 l12 -135 165 -5 165 -5 3 -177 2 -178 -105 0
c-119 0 -116 2 -77 -75 35 -70 155 -225 173 -225 5 0 9 65 9 145 l0 145 180 0
180 0 2 -222 3 -223 183 -3 182 -2 0 225 0 225 183 -2 182 -3 5 -143 5 -143
36 38 c51 54 92 110 128 174 49 88 48 89 -69 89 l-100 0 2 178 3 177 163 3
c146 2 162 4 162 20 0 9 7 82 15 162 8 80 15 153 15 162 0 16 -17 18 -177 20
l-178 3 0 180 0 180 178 3 177 2 0 180 0 180 -185 0 -185 0 0 -180 0 -180
-177 2 -178 3 -3 178 -2 177 -185 0 -185 0 0 -180 0 -180 -177 2 -178 3 -3
178 -2 177 -185 0 -185 0 0 -180z m1095 -365 l0 -180 -175 0 -175 0 -3 170
c-1 93 0 175 3 182 3 11 42 13 177 11 l173 -3 0 -180z m-365 -365 l0 -180
-177 2 -178 3 -3 178 -2 177 180 0 180 0 0 -180z m730 0 l0 -180 -177 2 -178
3 -3 178 -2 177 180 0 180 0 0 -180z m-362 -362 l2 -178 -180 0 -180 0 0 173
c0 96 3 177 7 181 4 3 84 5 177 4 l171 -3 3 -177z"/>
<path d="M2675 1462 c-45 -28 -58 -49 -59 -96 -1 -56 20 -80 95 -107 74 -27
88 -42 64 -69 -22 -24 -62 -26 -94 -4 -21 15 -24 15 -52 -12 -16 -15 -29 -30
-29 -34 0 -14 60 -39 106 -44 65 -8 113 10 141 53 43 63 21 134 -49 160 -79
30 -98 41 -98 60 0 11 11 23 29 31 24 9 34 9 59 -4 30 -15 30 -15 56 18 l25
34 -33 16 c-46 22 -123 21 -161 -2z"/>
<path d="M730 1285 l0 -185 40 0 40 0 0 80 0 80 80 0 80 0 0 -80 0 -80 40 0
40 0 0 185 0 185 -40 0 -40 0 0 -70 0 -71 -77 3 -78 3 -3 68 -3 67 -39 0 -40
0 0 -185z"/>
<path d="M1180 1285 l0 -186 38 3 37 3 3 73 c4 99 24 99 78 -3 l39 -75 48 0
c26 0 47 2 47 5 0 2 -20 37 -44 77 l-44 72 29 18 c56 34 63 118 14 167 -24 24
-33 26 -135 29 l-110 4 0 -187z m184 93 c19 -30 -4 -53 -58 -56 l-46 -3 0 41
0 41 46 -3 c31 -2 51 -9 58 -20z"/>
<path d="M1524 1453 c4 -10 37 -94 73 -186 l67 -168 34 3 c33 3 33 3 108 183
41 98 74 180 74 182 0 2 -20 3 -44 3 l-44 0 -43 -115 c-24 -63 -47 -111 -51
-107 -3 4 -24 54 -46 112 l-39 105 -48 3 c-42 3 -47 1 -41 -15z"/>
<path d="M2000 1423 c-60 -135 -130 -303 -130 -312 0 -6 18 -11 41 -11 38 0
42 2 56 40 l16 40 72 0 72 0 16 -40 c15 -39 17 -40 61 -40 25 0 46 2 46 3 0 2
-35 84 -78 183 l-78 179 -36 3 c-35 3 -38 1 -58 -45z m78 -171 c-10 -2 -28 -2
-42 0 l-23 3 20 53 20 54 22 -54 c20 -50 21 -53 3 -56z"/>
<path d="M2260 1435 l0 -35 55 0 55 0 0 -150 0 -150 40 0 40 0 0 150 0 150 50
0 50 0 0 35 0 35 -145 0 -145 0 0 -35z"/>
<path d="M2960 1285 l0 -185 40 0 39 0 3 86 3 86 73 -86 73 -86 55 0 c30 0 54
3 54 6 0 3 -39 49 -87 101 l-86 94 84 85 84 84 -55 0 c-54 0 -55 0 -127 -72
l-73 -72 0 72 0 72 -40 0 -40 0 0 -185z"/>
<path d="M3480 1443 c-35 -76 -140 -326 -140 -334 0 -5 18 -9 41 -9 38 0 42 3
57 40 l17 40 71 0 72 0 16 -40 c15 -39 18 -40 62 -40 25 0 44 4 42 10 -1 5
-37 88 -78 185 l-75 175 -36 0 c-29 0 -38 -5 -49 -27z m73 -150 l17 -43 -45 0
c-43 0 -44 1 -35 25 6 14 15 37 20 52 12 31 21 24 43 -34z"/>
<path d="M104 915 c-68 -34 -99 -87 -99 -170 0 -85 31 -137 102 -172 48 -23
62 -25 123 -20 39 3 82 12 97 19 27 13 28 15 31 111 l3 97 -76 0 -75 0 0 -40
c0 -39 1 -40 35 -40 32 0 35 -3 35 -29 0 -32 -17 -41 -84 -41 -30 0 -45 7 -72
34 -49 49 -49 113 0 162 28 28 41 34 78 34 24 0 54 -7 67 -16 22 -16 24 -15
54 15 31 30 31 31 12 46 -55 41 -159 46 -231 10z"/>
<path d="M577 926 c-80 -30 -120 -90 -120 -181 0 -127 90 -205 221 -192 107
11 172 84 172 192 0 111 -67 183 -177 191 -36 3 -73 -1 -96 -10z m146 -87 c37
-28 53 -86 37 -133 -16 -50 -53 -76 -107 -76 -38 0 -50 5 -79 34 -29 29 -34
41 -34 81 0 40 5 52 34 81 29 29 41 34 79 34 30 0 53 -7 70 -21z"/>
<path d="M1003 925 c-41 -18 -68 -59 -68 -106 0 -50 30 -81 100 -103 59 -18
79 -41 64 -69 -13 -22 -76 -23 -100 -1 -21 19 -30 14 -59 -26 l-22 -30 44 -20
c51 -23 106 -25 151 -6 52 22 72 51 72 107 0 60 -20 82 -94 106 -62 20 -82 43
-62 67 16 19 72 21 89 4 9 -9 17 -6 37 12 34 32 31 48 -10 66 -43 18 -100 18
-142 -1z"/>
<path d="M1758 930 c-79 -24 -128 -94 -128 -185 0 -90 41 -154 117 -181 103
-36 214 2 261 91 21 40 20 141 -1 181 -43 82 -152 123 -249 94z m148 -104 c29
-29 34 -41 34 -81 0 -40 -5 -52 -34 -81 -29 -29 -41 -34 -79 -34 -55 0 -92 27
-108 79 -24 80 27 151 108 151 38 0 50 -5 79 -34z"/>
<path d="M3404 926 c-45 -20 -74 -62 -74 -106 0 -50 23 -76 94 -103 33 -12 64
-30 69 -39 25 -39 -53 -66 -99 -33 -19 13 -23 12 -50 -16 l-29 -31 23 -18 c27
-22 98 -35 147 -26 19 4 48 20 65 37 25 25 30 38 30 78 0 58 -20 80 -99 110
-61 23 -74 37 -60 63 11 20 58 24 88 8 14 -7 24 -3 46 20 32 33 28 46 -23 60
-49 13 -90 12 -128 -4z"/>
<path d="M1290 746 l0 -186 40 0 40 0 0 70 0 70 38 0 c108 1 162 39 162 115 0
35 -6 52 -29 77 -29 33 -29 33 -140 36 l-111 4 0 -186z m171 104 c25 -14 25
-56 -1 -70 -12 -6 -35 -10 -53 -8 -30 3 -32 6 -35 46 l-3 42 36 0 c20 0 45 -5
56 -10z"/>
<path d="M2110 746 l0 -186 88 0 c103 0 150 12 192 47 44 36 60 74 60 139 0
72 -28 123 -84 155 -34 20 -59 24 -148 27 l-108 4 0 -186z m226 70 c26 -26 34
-42 34 -71 0 -29 -8 -45 -34 -71 -31 -31 -40 -34 -90 -34 l-56 0 0 105 0 105
56 0 c50 0 59 -3 90 -34z"/>
<path d="M2571 758 c-40 -95 -76 -179 -78 -185 -4 -9 8 -13 40 -13 43 0 45 2
61 40 l16 40 70 0 70 0 16 -40 c16 -38 18 -40 61 -40 39 0 44 2 39 18 -4 9
-39 92 -79 185 l-72 167 -35 0 -36 0 -73 -172z m129 6 c11 -25 20 -48 20 -50
0 -2 -18 -4 -40 -4 -22 0 -40 3 -40 7 0 11 32 93 37 93 2 0 13 -21 23 -46z"/>
<path d="M2960 745 l0 -185 40 0 40 0 0 75 c0 66 2 75 18 75 13 0 31 -24 58
-75 l39 -75 48 0 c26 0 47 2 47 5 0 2 -18 34 -40 70 -46 75 -47 81 -20 90 45
14 65 109 34 154 -26 37 -74 51 -174 51 l-90 0 0 -185z m178 103 c17 -17 15
-55 -4 -62 -9 -3 -33 -6 -55 -6 -39 0 -39 0 -39 40 l0 40 43 0 c24 0 48 -5 55
-12z"/>
<path d="M3670 745 l0 -185 40 0 39 0 3 84 3 84 70 -83 70 -84 58 0 58 -1 -20
28 c-11 16 -27 35 -36 42 -8 7 -38 39 -66 72 l-51 58 83 85 83 85 -56 0 -56 0
-66 -70 c-36 -38 -68 -70 -71 -70 -3 0 -5 32 -5 70 l0 70 -40 0 -40 0 0 -185z"/>
<path d="M4126 753 c-42 -98 -76 -181 -76 -185 0 -5 20 -8 43 -8 42 0 44 2 57
40 l13 40 72 0 72 0 16 -40 c15 -39 17 -40 61 -40 25 0 46 2 46 4 0 2 -35 84
-78 182 l-78 179 -35 3 -36 3 -77 -178z m133 4 l20 -47 -44 0 -44 0 21 50 c11
28 22 49 24 48 1 -2 12 -25 23 -51z"/>
<path d="M1475 396 c-5 -3 -22 -7 -37 -10 -98 -22 -157 -167 -109 -271 32 -70
93 -105 181 -105 88 0 149 35 181 105 43 94 5 215 -82 260 -26 14 -116 28
-134 21z m111 -110 c30 -30 34 -41 34 -84 0 -59 -24 -95 -75 -112 -77 -26
-145 27 -145 112 0 43 4 54 34 84 28 28 42 34 76 34 34 0 48 -6 76 -34z"/>
<path d="M2465 396 c-5 -3 -22 -7 -37 -10 -98 -22 -157 -167 -109 -271 32 -70
93 -105 181 -105 88 0 149 35 181 105 43 94 5 215 -82 260 -26 14 -116 28
-134 21z m111 -110 c30 -30 34 -41 34 -84 0 -59 -24 -95 -75 -112 -77 -26
-145 27 -145 112 0 43 4 54 34 84 28 28 42 34 76 34 34 0 48 -6 76 -34z"/>
<path d="M950 206 l0 -186 40 0 39 0 3 81 3 81 68 -81 69 -81 60 0 60 0 -86
94 c-47 52 -86 98 -86 103 0 5 34 42 75 83 41 41 75 78 75 82 0 5 -22 8 -48 8
-47 0 -51 -2 -120 -74 l-71 -73 -3 71 -3 71 -37 3 -38 3 0 -185z"/>
<path d="M1800 205 l0 -185 40 0 40 0 1 133 1 132 45 -132 45 -133 32 0 32 0
46 133 47 132 0 -132 1 -133 40 0 40 0 0 185 0 185 -59 0 -59 0 -31 -85 c-17
-47 -33 -96 -37 -110 -11 -43 -22 -37 -43 20 -12 31 -21 58 -21 60 0 2 -9 29
-21 60 l-20 55 -60 0 -59 0 0 -185z"/>
<path d="M2790 205 l0 -185 40 0 40 0 0 76 c0 66 2 75 18 72 9 -2 33 -34 55
-76 l38 -72 50 0 c57 0 57 -4 -8 97 l-34 53 26 12 c53 24 70 98 35 155 -24 40
-67 53 -177 53 l-83 0 0 -185z m171 105 c11 -6 19 -21 19 -36 0 -27 -30 -44
-81 -44 -28 0 -29 2 -29 45 0 45 0 45 36 45 19 0 44 -5 55 -10z"/>
<path d="M3207 212 c-42 -98 -77 -182 -77 -185 0 -4 20 -7 43 -7 42 0 45 2 60
40 l16 41 68 -3 c68 -3 68 -3 86 -40 16 -36 20 -38 62 -38 25 0 45 1 45 3 0 1
-35 83 -79 182 l-78 180 -34 3 -35 3 -77 -179z m146 -44 c-2 -5 -20 -8 -39 -8
-40 0 -42 10 -17 72 l17 42 22 -49 c12 -28 20 -53 17 -57z"/>
</g>
</svg>
