<?xml version="1.0" standalone="no"?>
<!DOCTYPE svg PUBLIC "-//W3C//DTD SVG 20010904//EN"
 "http://www.w3.org/TR/2001/REC-SVG-20010904/DTD/svg10.dtd">
<svg version="1.0" xmlns="http://www.w3.org/2000/svg"
 width="1139.000000pt" height="539.000000pt" viewBox="0 0 1139.000000 539.000000"
 preserveAspectRatio="xMidYMid meet">

<g transform="translate(0.000000,539.000000) scale(0.100000,-0.100000)"
fill="#000000" stroke="none">
<path d="M6675 4208 c-2 -7 -52 -290 -110 -628 -59 -338 -109 -628 -112 -643
l-6 -28 109 3 108 3 31 171 c27 155 43 204 65 204 4 0 71 -84 150 -186 78
-102 148 -188 154 -190 7 -3 65 -3 129 -2 l116 3 -190 249 c-157 204 -189 251
-177 261 7 7 74 66 148 133 74 66 154 140 177 164 l43 43 -73 62 -72 62 -100
-99 c-145 -143 -279 -257 -283 -239 -1 8 20 153 48 322 27 170 50 317 50 328
0 18 -8 19 -100 19 -72 0 -102 -4 -105 -12z"/>
<path d="M4876 4188 c-71 -5 -131 -10 -134 -12 -2 -2 -55 -276 -118 -608 -62
-331 -116 -615 -120 -630 l-6 -28 116 0 c64 0 116 3 116 8 0 4 19 110 42 235
l42 228 30 -7 c17 -4 78 -7 136 -7 294 1 494 144 530 380 21 133 -18 262 -100
337 -99 90 -259 121 -534 104z m319 -214 c57 -30 88 -88 88 -169 0 -116 -62
-196 -176 -230 -55 -16 -242 -21 -251 -6 -3 5 11 101 31 214 42 237 25 216
173 214 75 -2 104 -6 135 -23z"/>
<path d="M1281 4128 c68 -128 1455 -2521 1492 -2576 220 -320 569 -562 947
-657 324 -81 627 -70 941 35 493 163 880 550 1043 1041 45 135 63 225 78 379
13 139 9 163 -24 158 -19 -2 -25 -14 -38 -73 -57 -246 -173 -463 -348 -646
-196 -207 -437 -340 -725 -400 -136 -29 -370 -31 -507 -5 -571 110 -1004 544
-1107 1110 -25 134 -22 371 6 502 119 566 535 978 1090 1080 91 17 114 32 90
60 -10 12 -247 14 -1481 14 l-1469 0 12 -22z"/>
<path d="M8623 4068 l-111 -42 -7 -45 c-4 -25 -11 -67 -17 -93 l-10 -48 -53 0
-53 0 -16 -71 c-23 -102 -24 -99 34 -99 28 0 50 -2 50 -5 0 -3 -25 -115 -55
-250 -30 -134 -55 -263 -55 -287 0 -96 46 -174 125 -209 47 -22 191 -26 292
-8 l63 11 0 95 c0 94 0 95 -22 89 -120 -34 -135 -36 -174 -24 -44 15 -64 46
-63 98 0 19 24 136 52 260 l52 225 391 3 391 2 16 78 c9 43 17 81 17 85 0 4
-173 7 -385 7 -301 0 -385 3 -385 13 0 6 13 67 29 135 18 79 24 122 17 121 -6
0 -61 -19 -123 -41z"/>
<path d="M5899 3836 c-122 -35 -251 -139 -324 -261 -62 -105 -88 -202 -89
-340 -1 -105 2 -126 22 -170 52 -114 141 -165 287 -165 96 0 166 21 235 71 23
17 43 29 43 27 36 -74 60 -88 151 -88 l68 0 -7 28 c-3 15 -9 86 -12 157 -5
125 -3 140 45 395 67 354 66 321 12 338 -64 20 -369 26 -431 8z m233 -174 c7
-7 2 -51 -16 -146 -44 -224 -77 -313 -142 -386 -42 -46 -90 -64 -150 -57 -60
6 -89 28 -110 83 -16 41 -16 57 -7 133 25 194 109 332 230 377 43 16 178 13
195 -4z"/>
<path d="M7735 3831 c-216 -62 -359 -244 -381 -484 -12 -143 30 -271 116 -351
85 -79 122 -91 285 -91 110 0 151 4 193 18 28 10 52 19 52 20 4 14 25 217 23
217 -2 0 -21 -11 -42 -25 -68 -42 -159 -68 -219 -61 -121 14 -192 91 -192 210
0 27 2 28 33 22 100 -22 167 -26 248 -16 239 29 379 147 379 320 0 118 -57
190 -181 224 -75 21 -235 20 -314 -3z m205 -162 c58 -13 80 -34 80 -75 0 -43
-44 -87 -112 -111 -39 -13 -82 -18 -165 -18 -61 0 -115 3 -119 7 -13 14 30 79
89 134 77 71 129 86 227 63z"/>
<path d="M9290 3580 c-13 -8 -12 -13 6 -37 20 -27 26 -28 111 -31 l91 -3 21
36 c11 20 21 38 21 41 0 8 -235 3 -250 -6z"/>
<path d="M9553 3568 c-33 -43 -65 -116 -79 -177 -16 -69 -16 -70 7 -101 23
-31 24 -31 40 -11 16 19 62 212 62 259 0 31 -17 47 -30 30z"/>
<path d="M9928 3523 c-19 -33 -42 -91 -51 -129 -15 -67 -15 -70 6 -101 21 -31
23 -31 39 -15 10 10 28 67 43 135 29 139 29 128 12 151 -12 17 -16 13 -49 -41z"/>
<path d="M9636 3483 c-30 -133 -40 -203 -30 -212 5 -6 23 2 43 19 28 24 36 41
52 110 l19 81 -26 35 c-15 19 -30 34 -34 34 -5 0 -15 -30 -24 -67z"/>
<path d="M9248 3269 c-27 -20 -27 -21 -10 -44 16 -23 24 -24 106 -25 78 0 91
3 115 23 26 21 27 25 13 45 -13 20 -23 22 -106 22 -76 -1 -96 -4 -118 -21z"/>
<path d="M9653 3271 c-28 -23 -29 -33 -5 -54 14 -13 38 -17 103 -17 74 1 88 4
114 25 28 24 29 24 10 44 -16 18 -30 21 -109 21 -74 -1 -95 -4 -113 -19z"/>
<path d="M9182 3208 c-15 -29 -62 -250 -56 -260 3 -5 24 8 48 28 39 33 44 42
60 116 17 79 17 82 -1 106 -26 35 -37 37 -51 10z"/>
<path d="M9863 3202 c-45 -39 -68 -138 -52 -228 9 -55 13 -63 26 -53 24 20 32
42 57 163 23 107 25 147 7 146 -3 -1 -20 -13 -38 -28z"/>
<path d="M9181 2958 c-40 -29 -42 -32 -25 -45 12 -9 53 -13 130 -13 l113 0 -6
38 c-3 20 -11 40 -17 44 -6 4 -43 8 -82 8 -63 0 -74 -3 -113 -32z"/>
</g>
</svg>
