<?xml version="1.0" standalone="no"?>
<!DOCTYPE svg PUBLIC "-//W3C//DTD SVG 20010904//EN"
 "http://www.w3.org/TR/2001/REC-SVG-20010904/DTD/svg10.dtd">
<svg version="1.0" xmlns="http://www.w3.org/2000/svg"
 width="1920.000000pt" height="1080.000000pt" viewBox="0 0 1920.000000 1080.000000"
 preserveAspectRatio="xMidYMid meet">

<g transform="translate(0.000000,1080.000000) scale(0.100000,-0.100000)"
fill="#000000" stroke="none">
<path d="M15280 8435 c0 -3 -70 -407 -155 -898 -85 -491 -155 -903 -155 -915
0 -22 2 -22 150 -22 83 0 150 3 150 6 0 3 18 113 41 243 37 213 44 239 68 263
l26 27 205 -267 205 -267 178 -3 c97 -1 177 1 177 5 -1 5 -120 163 -265 353
l-265 345 32 29 c380 339 501 452 497 464 -2 5 -48 48 -102 94 l-99 85 -126
-127 c-155 -155 -406 -374 -410 -357 -1 7 31 221 73 476 41 255 75 465 75 467
0 2 -67 4 -150 4 -82 0 -150 -2 -150 -5z"/>
<path d="M1670 8376 c0 -6 2554 -4442 2633 -4574 137 -228 358 -493 559 -669
228 -200 414 -326 673 -453 444 -219 844 -313 1335 -313 233 0 399 16 604 58
1231 249 2183 1250 2371 2492 20 133 40 412 32 445 -14 55 -85 62 -105 11 -6
-16 -21 -73 -33 -128 -173 -788 -748 -1458 -1506 -1755 -433 -170 -939 -215
-1393 -124 -500 100 -943 341 -1296 705 -382 395 -607 861 -686 1424 -16 116
-16 483 0 605 78 588 336 1106 747 1498 356 340 792 559 1281 642 71 12 125
27 136 37 23 21 23 65 0 86 -17 16 -218 17 -2685 17 -1467 0 -2667 -2 -2667
-4z"/>
<path d="M7495 7513 c-87 -478 -161 -878 -163 -890 l-4 -23 160 0 160 0 6 28
c7 32 146 794 146 799 0 2 159 3 353 3 l353 0 -73 -397 c-40 -219 -73 -406
-73 -416 0 -16 12 -17 158 -15 l157 3 162 870 c89 479 162 878 162 888 1 15
-13 17 -158 17 -157 0 -159 0 -164 -22 -3 -13 -31 -166 -63 -340 l-58 -318
-353 0 -352 0 5 28 c3 15 31 168 63 340 l57 312 -161 0 -161 0 -159 -867z"/>
<path d="M13490 8271 c-25 -10 -97 -37 -161 -60 l-117 -42 -17 -87 c-9 -48
-21 -108 -27 -134 l-10 -48 -74 0 c-68 0 -74 -2 -79 -22 -14 -65 -45 -208 -45
-213 0 -3 34 -5 76 -5 67 0 75 -2 70 -17 -3 -10 -38 -160 -78 -333 -100 -438
-99 -513 11 -633 62 -67 124 -90 251 -95 107 -4 292 18 330 38 18 10 20 21 20
140 0 78 -4 130 -10 130 -5 0 -44 -12 -87 -26 -104 -35 -200 -32 -240 8 -49
49 -45 97 38 463 l73 325 180 2 180 3 22 105 c13 58 23 111 24 118 0 9 -41 12
-175 12 -96 0 -175 2 -175 4 0 5 80 350 86 369 7 21 -8 21 -66 -2z"/>
<path d="M9765 7915 c-73 -16 -135 -43 -195 -84 -25 -16 -46 -27 -48 -22 -1 5
1 27 7 50 l9 41 -153 0 -154 0 -10 -52 c-18 -88 -231 -1235 -231 -1242 0 -4
68 -5 152 -4 l152 3 73 390 c82 437 95 476 184 570 106 112 220 136 343 70 47
-25 68 -31 71 -23 18 53 85 291 83 293 -6 5 -161 25 -191 24 -18 0 -59 -7 -92
-14z"/>
<path d="M12079 7919 c-232 -34 -450 -203 -571 -444 -94 -186 -126 -485 -68
-638 57 -152 185 -241 365 -254 147 -10 278 27 387 110 l46 35 24 -46 c34 -67
69 -82 191 -82 53 0 97 1 97 3 0 1 -7 38 -15 82 -9 45 -16 142 -17 225 -1 142
0 153 76 549 64 328 76 405 65 412 -67 41 -425 71 -580 48z m195 -251 l57 -11
-6 -51 c-14 -107 -68 -354 -97 -446 -53 -167 -124 -271 -213 -311 -97 -45
-221 -11 -263 71 -22 42 -23 53 -19 170 6 145 23 213 79 328 103 210 255 292
462 250z"/>
<path d="M14375 7916 c-213 -41 -349 -158 -385 -330 -22 -109 14 -223 96 -294
24 -22 98 -68 165 -103 153 -81 196 -112 215 -152 37 -77 -33 -175 -142 -197
-97 -20 -199 11 -308 95 -27 20 -50 34 -53 31 -19 -19 -151 -262 -146 -269 9
-15 140 -72 213 -93 80 -23 296 -26 380 -5 87 21 193 77 254 132 124 113 167
311 97 446 -33 64 -90 109 -241 188 -80 42 -156 87 -168 98 -104 96 -28 207
142 207 54 0 75 -6 131 -34 36 -19 80 -47 97 -61 l31 -26 68 132 c38 72 69
135 69 139 0 4 -29 19 -64 34 -162 64 -323 87 -451 62z"/>
<path d="M16925 7916 c-183 -37 -329 -128 -450 -280 -122 -155 -184 -323 -200
-541 -16 -219 60 -390 207 -466 167 -86 435 -54 579 69 22 19 41 33 43 31 1
-2 8 -18 15 -35 7 -18 26 -45 42 -60 29 -28 35 -29 141 -32 l111 -4 -7 39
c-20 114 -26 169 -26 280 0 109 7 160 75 518 41 219 75 406 75 416 0 38 -147
66 -385 74 -106 3 -171 1 -220 -9z m243 -252 c28 -8 28 -26 1 -174 -70 -385
-155 -577 -282 -636 -89 -41 -194 -28 -245 30 -46 52 -56 95 -49 210 8 130 28
210 82 321 70 143 149 219 264 252 45 13 179 11 229 -3z"/>
<path d="M10140 7890 c0 -9 282 -956 362 -1213 l30 -98 56 3 57 3 412 650
c226 358 412 653 412 658 1 4 -77 7 -173 7 l-173 0 -223 -385 c-123 -212 -226
-385 -229 -385 -4 0 -54 172 -112 383 l-106 382 -157 3 c-104 2 -156 -1 -156
-8z"/>
<path d="M14487 5973 c20 -38 63 -113 94 -168 l57 -100 149 -3 150 -3 163 171
162 170 -98 0 -99 0 -112 -75 c-62 -41 -118 -75 -124 -75 -6 0 -49 34 -95 75
l-84 75 -101 0 -100 0 38 -67z"/>
<path d="M15785 5867 l-169 -62 -26 -130 -26 -130 -76 -3 -76 -3 -21 -102
c-12 -57 -24 -113 -28 -125 -5 -21 -3 -22 71 -22 74 0 76 -1 71 -22 -49 -209
-146 -654 -151 -688 -20 -149 67 -299 202 -350 84 -31 312 -26 447 11 l37 10
0 138 0 138 -82 -29 c-142 -50 -243 -36 -275 40 -22 52 -14 107 66 452 l68
295 180 3 180 2 22 103 c12 57 24 113 28 125 l5 22 -179 0 -180 0 44 187 c24
103 42 190 41 194 -2 4 -79 -21 -173 -54z"/>
<path d="M11565 5534 c-71 -14 -131 -27 -133 -29 -2 -2 1 -51 7 -109 7 -58 9
-129 6 -158 -3 -29 -67 -383 -142 -785 -75 -403 -135 -735 -132 -737 3 -3 74
21 159 52 l155 57 42 214 c23 118 44 216 47 218 2 3 33 -6 68 -19 55 -20 81
-23 203 -23 157 1 225 15 337 69 192 95 343 290 398 516 29 119 37 304 16 398
-42 197 -149 306 -343 347 -79 17 -209 19 -271 5 -48 -12 -151 -57 -198 -89
l-32 -21 -13 57 c-9 37 -19 59 -29 60 -8 1 -73 -10 -145 -23z m576 -265 c106
-46 156 -148 146 -299 -21 -325 -189 -499 -480 -500 -86 0 -130 11 -170 42
-17 13 -15 28 43 338 68 364 59 342 165 397 111 58 196 64 296 22z"/>
<path d="M13350 5545 c-82 -19 -208 -81 -282 -140 -126 -99 -237 -278 -278
-445 -61 -252 -22 -484 103 -611 93 -93 221 -139 392 -139 132 0 221 20 330
74 238 118 394 360 428 663 13 120 1 245 -32 333 -44 115 -144 208 -271 251
-84 28 -292 36 -390 14z m255 -254 c93 -42 132 -135 122 -296 -15 -235 -119
-436 -261 -505 -58 -28 -170 -38 -233 -21 -96 26 -143 103 -151 245 -13 263
123 526 302 582 62 19 173 17 221 -5z"/>
<path d="M14604 5545 c-145 -31 -272 -122 -326 -233 -30 -60 -33 -75 -33 -157
0 -76 4 -97 25 -139 36 -70 101 -124 240 -197 67 -35 139 -77 161 -92 152
-107 2 -301 -199 -259 -72 15 -146 51 -200 98 -25 21 -47 33 -52 28 -14 -15
-150 -252 -150 -262 0 -11 138 -75 210 -97 82 -25 277 -31 370 -11 162 34 302
131 360 249 35 72 54 173 45 237 -18 120 -81 185 -288 295 -190 101 -229 146
-194 221 23 48 85 77 167 78 78 1 131 -18 216 -79 l60 -43 69 138 c38 77 67
141 65 143 -11 11 -162 60 -235 78 -93 22 -221 24 -311 4z"/>
<path d="M16895 5545 c-138 -30 -256 -97 -364 -207 -115 -118 -187 -247 -237
-428 -15 -51 -19 -101 -19 -230 0 -184 11 -229 76 -314 79 -103 173 -147 329
-154 155 -7 273 29 377 114 l41 34 22 -46 c35 -70 65 -84 189 -84 l104 0 -7
33 c-19 85 -26 163 -26 283 0 122 5 160 75 529 41 218 75 405 75 415 0 53
-462 93 -635 55z m279 -250 c22 -10 20 -38 -24 -257 -82 -410 -190 -578 -370
-578 -154 0 -213 94 -190 303 23 207 117 403 229 481 77 54 126 67 236 62 55
-2 108 -7 119 -11z"/>
</g>
</svg>
