<?xml version="1.0" encoding="UTF-8" standalone="no"?>
<svg
   xmlns:dc="http://purl.org/dc/elements/1.1/"
   xmlns:cc="http://creativecommons.org/ns#"
   xmlns:rdf="http://www.w3.org/1999/02/22-rdf-syntax-ns#"
   xmlns:svg="http://www.w3.org/2000/svg"
   xmlns="http://www.w3.org/2000/svg"
   viewBox="0 0 15756.667 7559.0532"
   height="7559.0532"
   width="15756.667"
   xml:space="preserve"
   id="svg2"
   version="1.1"><metadata
     id="metadata8"><rdf:RDF><cc:Work
         rdf:about=""><dc:format>image/svg+xml</dc:format><dc:type
           rdf:resource="http://purl.org/dc/dcmitype/StillImage" /></cc:Work></rdf:RDF></metadata><defs
     id="defs6"><clipPath
       id="clipPath38"
       clipPathUnits="userSpaceOnUse"><path
         id="path36"
         d="m 6148.175,0 h 5669.291 V 5669.291 H 6148.175 Z" /></clipPath><clipPath
       id="clipPath76"
       clipPathUnits="userSpaceOnUse"><path
         id="path74"
         d="M 0,0 H 5668.834 V 5669.291 H 0 Z" /></clipPath></defs><g
     transform="matrix(1.3333333,0,0,-1.3333333,0,7559.0533)"
     id="g10"><path
       id="path12"
       style="fill:#ffffff;fill-opacity:1;fill-rule:nonzero;stroke:none"
       d="m 6148.175,0 h 5669.291 V 5669.291 H 6148.175 Z" /><path
       id="path14"
       style="fill:#ed1c24;fill-opacity:1;fill-rule:nonzero;stroke:none"
       d="M 11385.467,432.001 H 6580.176 v 4805.291 h 4805.291 z m -5021.291,-216 h 5237.291 V 5453.292 H 6364.176 Z" /><path
       id="path16"
       style="fill:#ed1c24;fill-opacity:1;fill-rule:nonzero;stroke:none"
       d="m 8970.727,3398.132 h -957.769 v -957.767 h 957.769 z" /><g
       transform="translate(9114.7432,3398.6531)"
       id="g18"><path
         id="path20"
         style="fill:#ed1c24;fill-opacity:1;fill-rule:nonzero;stroke:none"
         d="M 0,0 V -958.288 H 958.289 Z" /></g><path
       id="path22"
       style="fill:#ed1c24;fill-opacity:1;fill-rule:nonzero;stroke:none"
       d="M 8970.727,4499.897 H 8012.958 V 3542.13 h 957.769 z" /><g
       transform="translate(9114.7432,4499.8979)"
       id="g24"><path
         id="path26"
         style="fill:#ed1c24;fill-opacity:1;fill-rule:nonzero;stroke:none"
         d="M 0,0 V -958.288 L 958.289,0 Z" /></g><g
       transform="translate(7563.6631,1874.1305)"
       id="g28"><path
         id="path30"
         style="fill:#ed1c24;fill-opacity:1;fill-rule:nonzero;stroke:none"
         d="M 0,0 H -176.676 L -404.972,-318.621 V 0 h -155.839 v -694.81 h 155.839 v 312.664 L -176.676,-694.81 H 3.974 l -268,355.343 z" /></g><g
       id="g32"><g
         clip-path="url(#clipPath38)"
         id="g34"><g
           transform="translate(8463.7256,1338.1344)"
           id="g40"><path
             id="path42"
             style="fill:#ed1c24;fill-opacity:1;fill-rule:nonzero;stroke:none"
             d="m 0,0 c -17.865,-22.83 -49.623,-52.607 -99.255,-52.607 -56.58,0 -90.327,36.722 -90.327,97.271 v 259.07 H -325.567 V 17.865 c 0,-109.187 62.533,-186.605 177.671,-186.605 76.43,0 124.078,39.701 147.896,65.512 v -55.585 H 134.003 V 303.734 H 0 Z" /></g><g
           transform="translate(9696.9189,1327.2184)"
           id="g44"><path
             id="path46"
             style="fill:#ed1c24;fill-opacity:1;fill-rule:nonzero;stroke:none"
             d="m 0,0 c -18.865,-20.848 -50.623,-43.676 -98.271,-43.676 -71.462,0 -122.085,51.612 -122.085,127.049 0,75.438 50.623,127.049 122.085,127.049 47.648,0 79.406,-22.824 98.271,-43.672 z m 0,266.012 c -27.793,26.797 -75.438,58.562 -141.94,58.562 -129.037,0 -218.367,-107.199 -218.367,-243.185 0,-133.998 88.338,-239.213 218.367,-239.213 70.475,0 117.125,32.754 141.94,57.57 v -47.627 h 133.998 v 462.53 H 0 Z" /></g><g
           transform="translate(7908.3643,1327.2184)"
           id="g48"><path
             id="path50"
             style="fill:#ed1c24;fill-opacity:1;fill-rule:nonzero;stroke:none"
             d="m 0,0 c -18.864,-20.848 -50.623,-43.676 -98.271,-43.676 -71.461,0 -122.085,51.612 -122.085,127.049 0,75.438 50.624,127.049 122.085,127.049 47.648,0 79.407,-22.824 98.271,-43.672 z m 0,266.012 c -27.794,26.797 -75.439,58.562 -141.941,58.562 -129.037,0 -218.366,-107.199 -218.366,-243.185 0,-133.998 88.339,-239.213 218.366,-239.213 70.476,0 117.125,32.754 141.941,57.57 v -47.627 h 133.998 v 462.53 H 0 Z" /></g><g
           transform="translate(10828.788,1333.1735)"
           id="g52"><path
             id="path54"
             style="fill:#ed1c24;fill-opacity:1;fill-rule:nonzero;stroke:none"
             d="m 0,0 c -17.869,-22.834 -51.613,-49.633 -103.227,-49.633 -71.47,0 -122.093,51.612 -122.093,127.051 0,75.436 50.623,127.049 122.093,127.049 51.614,0 85.358,-26.797 103.227,-49.623 z M 0,540.959 V 256.088 c -23.82,24.809 -72.463,62.533 -146.904,62.533 -130.03,0 -218.375,-107.201 -218.375,-243.187 0,-135.983 90.332,-239.213 218.375,-239.213 74.441,0 123.084,36.726 146.904,62.533 v -52.607 h 134.002 v 694.812 z" /></g><g
           transform="translate(10211.023,1651.7946)"
           id="g56"><path
             id="path58"
             style="fill:#ed1c24;fill-opacity:1;fill-rule:nonzero;stroke:none"
             d="m 0,0 c -75.434,0 -124.08,-39.709 -146.903,-65.514 v 55.588 h -134.99 v -462.547 h 134.99 v 303.731 c 16.875,23.824 48.639,52.603 99.26,52.603 56.576,0 89.331,-36.724 89.331,-97.269 v -259.065 h 135.984 v 285.866 C 177.672,-77.43 115.143,0 0,0" /></g><g
           transform="translate(8954.0049,1771.8942)"
           id="g60"><path
             id="path62"
             style="fill:#ed1c24;fill-opacity:1;fill-rule:nonzero;stroke:none"
             d="M 0,0 C 45.659,0 72.464,-19.853 72.464,-19.853 L 94.306,83.379 c 0,0 -36.731,28.783 -124.081,28.783 -113.158,0 -183.629,-65.51 -183.629,-187.6 v -54.587 h -68.489 v -111.174 h 68.489 v -351.373 h 137.967 v 351.373 H 81.396 v 111.174 H -75.437 v 42.677 C -75.437,-28.783 -48.639,0 0,0" /></g><path
           id="path64"
           style="fill:#ed1c24;fill-opacity:1;fill-rule:nonzero;stroke:none"
           d="m 9113.3,1179.322 h 137.97 v 694.811 H 9113.3 Z" /></g></g><path
       id="path66"
       style="fill:#ffffff;fill-opacity:1;fill-rule:nonzero;stroke:none"
       d="M 0,0 H 5669.291 V 5669.291 H 0 Z" /><path
       id="path68"
       style="fill:#ed1c24;fill-opacity:1;fill-rule:nonzero;stroke:none"
       d="M 5237.291,432.001 H 432 V 5237.292 H 5237.291 Z M 216,216.001 H 5453.291 V 5453.292 H 216 Z" /><g
       id="g70"><g
         clip-path="url(#clipPath76)"
         id="g72"><g
           transform="translate(1151.8619,2626.3523)"
           id="g78"><path
             id="path80"
             style="fill:#ed1c24;fill-opacity:1;fill-rule:nonzero;stroke:none"
             d="m 0,0 c 90.007,0 139.183,66.965 139.183,194.644 0,133.929 -47.081,188.359 -140.213,188.359 H -72.219 V 0 Z M -297.185,560.888 H 6.284 c 235.441,0 357.866,-127.644 357.866,-359.96 0,-242.789 -150.688,-372.529 -378.779,-372.529 h -282.556 z" /></g><g
           transform="translate(1591.2145,3089.9358)"
           id="g82"><path
             id="path84"
             style="fill:#ed1c24;fill-opacity:1;fill-rule:nonzero;stroke:none"
             d="m 0,0 c 0,54.396 41.861,92.068 100.447,92.068 64.869,0 100.481,-35.543 100.481,-89.973 0,-54.43 -37.672,-92.102 -98.386,-92.102 C 41.861,-90.007 0,-54.43 0,0 m -85.818,-851.789 12.569,142.308 c 0,0 8.379,-2.095 14.664,-2.095 41.861,0 59.649,29.293 59.649,80.565 v 492.892 h 197.769 v -491.828 c 0,-149.657 -101.511,-225.001 -240.694,-225.001 -21.944,0 -43.957,3.159 -43.957,3.159" /></g><g
           transform="translate(2200.176,2761.3708)"
           id="g86"><path
             id="path88"
             style="fill:#ed1c24;fill-opacity:1;fill-rule:nonzero;stroke:none"
             d="m 0,0 c 0,34.512 -26.168,69.059 -75.344,69.059 -36.607,0 -65.934,-21.979 -77.438,-69.059 z m 170.571,-110.887 h -320.194 c 16.724,-46.086 54.396,-63.874 114.046,-63.874 92.102,0 139.183,39.733 139.183,39.733 l 54.43,-114.046 c 0,0 -65.934,-67.995 -209.307,-67.995 -176.855,0 -284.616,98.352 -284.616,259.479 0,149.657 95.227,258.483 262.638,258.483 153.847,0 243.82,-103.606 243.82,-261.608 z" /></g><path
           id="path90"
           style="fill:#ed1c24;fill-opacity:1;fill-rule:nonzero;stroke:none"
           d="m 2442.814,3187.258 h 195.673 v -732.489 h -195.673 z" /><g
           transform="translate(3076.9238,2633.698)"
           id="g92"><path
             id="path94"
             style="fill:#ed1c24;fill-opacity:1;fill-rule:nonzero;stroke:none"
             d="m 0,0 v 140.214 c -14.664,14.663 -37.707,29.326 -73.249,29.326 -56.491,0 -96.292,-40.831 -96.292,-100.48 0,-57.556 39.801,-98.387 96.292,-98.387 35.542,0 58.585,14.664 73.249,29.327 M 189.423,318.099 V -178.95 H 0 v 50.241 c -24.073,-25.103 -70.124,-60.715 -144.403,-60.715 -131.869,0 -220.811,111.986 -220.811,256.389 0,145.467 88.942,261.607 220.811,261.607 72.184,0 120.33,-35.576 144.403,-61.744 v 51.271 z" /></g><g
           transform="translate(3371.8696,2626.3523)"
           id="g96"><path
             id="path98"
             style="fill:#ed1c24;fill-opacity:1;fill-rule:nonzero;stroke:none"
             d="M 0,0 H 164.286 L 88.942,-304.499 H -53.366 Z" /></g><g
           transform="translate(1374.7679,1490.1569)"
           id="g100"><path
             id="path102"
             style="fill:#ed1c24;fill-opacity:1;fill-rule:nonzero;stroke:none"
             d="m 0,0 v -310.784 h -191.484 v 266.862 c 0,47.081 -24.073,77.439 -68.029,77.439 -33.483,0 -56.491,-18.854 -70.124,-35.612 v -308.689 h -190.454 v 497.049 h 190.454 v -54.397 c 23.043,26.168 71.188,64.87 147.562,64.87 C -63.84,196.738 0,115.145 0,0" /></g><g
           transform="translate(1774.3812,1485.9987)"
           id="g104"><path
             id="path106"
             style="fill:#ed1c24;fill-opacity:1;fill-rule:nonzero;stroke:none"
             d="m 0,0 c 0,34.512 -26.167,69.059 -75.344,69.059 -36.607,0 -65.934,-21.978 -77.438,-69.059 z m 170.571,-110.921 h -320.194 c 16.724,-46.052 54.396,-63.84 114.046,-63.84 92.102,0 139.183,39.733 139.183,39.733 l 54.43,-114.046 c 0,0 -65.934,-67.995 -209.307,-67.995 -176.855,0 -284.616,98.352 -284.616,259.479 0,149.657 95.227,258.518 262.638,258.518 153.847,0 243.82,-103.641 243.82,-261.643 z" /></g><g
           transform="translate(2658.4536,1679.567)"
           id="g108"><path
             id="path110"
             style="fill:#ed1c24;fill-opacity:1;fill-rule:nonzero;stroke:none"
             d="m 0,0 -12.569,-184.17 c 0,0 -11.504,3.159 -36.607,3.159 -66.965,0 -118.235,-33.516 -148.593,-72.218 V -500.174 H -390.317 V -3.159 h 192.548 V -95.193 C -161.161,-39.767 -105.701,7.349 -41.861,7.349 -9.409,7.349 0,0 0,0" /></g><path
           id="path112"
           style="fill:#ed1c24;fill-opacity:1;fill-rule:nonzero;stroke:none"
           d="m 2722.166,1676.401 h 193.579 v -497.083 h -193.579 z m -2.095,138.152 c 0,54.431 39.767,92.103 99.417,92.103 63.84,0 98.386,-35.611 98.386,-90.008 0,-54.43 -35.577,-92.067 -96.291,-92.067 -61.745,0 -101.512,35.577 -101.512,89.972" /><g
           transform="translate(3000.4707,1814.5504)"
           id="g114"><path
             id="path116"
             style="fill:#ed1c24;fill-opacity:1;fill-rule:nonzero;stroke:none"
             d="m 0,0 c 0,54.43 41.861,92.102 100.481,92.102 64.835,0 100.447,-35.578 100.447,-89.973 0,-54.43 -37.672,-92.102 -98.386,-92.102 C 41.861,-89.973 0,-54.396 0,0 m -85.817,-851.789 12.568,142.343 c 0,0 8.379,-2.129 14.664,-2.129 41.861,0 59.615,29.327 59.615,80.597 v 492.894 h 197.803 v -491.863 c 0,-149.623 -101.511,-225.001 -240.694,-225.001 -21.944,0 -43.956,3.159 -43.956,3.159" /></g><g
           transform="translate(3609.4497,1485.9987)"
           id="g118"><path
             id="path120"
             style="fill:#ed1c24;fill-opacity:1;fill-rule:nonzero;stroke:none"
             d="m 0,0 c 0,34.512 -26.168,69.059 -75.31,69.059 -36.675,0 -65.934,-21.978 -77.473,-69.059 z m 170.57,-110.921 h -320.193 c 16.724,-46.052 54.43,-63.84 114.046,-63.84 92.101,0 139.183,39.733 139.183,39.733 l 54.43,-114.046 c 0,0 -65.934,-67.995 -209.307,-67.995 -176.855,0 -284.617,98.352 -284.617,259.479 0,149.657 95.193,258.518 262.639,258.518 153.846,0 243.819,-103.641 243.819,-261.643 z" /></g><g
           transform="translate(3929.5503,1803.0455)"
           id="g122"><path
             id="path124"
             style="fill:#ed1c24;fill-opacity:1;fill-rule:nonzero;stroke:none"
             d="M 0,0 V 120.33 L 171.601,55.461 343.236,120.33 V 0 L 171.601,-80.598 Z m -88.943,-375.653 c 0,141.278 91.072,259.513 256.388,259.513 139.183,0 191.485,-54.43 191.485,-54.43 l -57.555,-133.929 c 0,0 -28.263,27.197 -91.038,27.197 -60.714,0 -96.292,-42.891 -96.292,-98.351 0,-55.495 35.578,-97.323 96.292,-97.323 62.775,0 91.038,27.233 91.038,27.233 l 57.555,-133.963 c 0,0 -52.302,-55.461 -191.485,-55.461 -165.316,0 -256.388,119.3 -256.388,259.514" /></g><path
           id="path126"
           style="fill:#ed1c24;fill-opacity:1;fill-rule:nonzero;stroke:none"
           d="m 4349.095,1676.401 h 193.647 V 1179.318 H 4349.095 Z M 4347,1814.553 c 0,54.431 39.732,92.103 99.417,92.103 63.805,0 98.352,-35.611 98.352,-90.008 0,-54.43 -35.577,-92.067 -96.292,-92.067 -61.745,0 -101.477,35.577 -101.477,89.972" /><g
           transform="translate(4613.749,1265.1969)"
           id="g128"><path
             id="path130"
             style="fill:#ed1c24;fill-opacity:1;fill-rule:nonzero;stroke:none"
             d="m 0,0 c 0,58.586 40.762,98.353 100.481,98.353 63.805,0 100.447,-37.672 100.447,-96.258 0,-58.619 -37.672,-98.386 -98.387,-98.386 C 40.762,-96.291 0,-57.589 0,0" /></g></g></g></g></svg>