<svg width="85" height="72" viewBox="0 0 85 72" fill="none" xmlns="http://www.w3.org/2000/svg">
<g clip-path="url(#clip0_105_122)">
<path d="M9.1987 22.0119C9.23388 21.716 9.23388 21.4171 9.1987 21.1213C8.61183 19.0085 8.88303 16.9603 9.68331 14.9521C9.94339 14.3042 10.139 13.6386 10.9415 13.3781C11.2172 13.289 11.4083 12.8905 11.6084 12.6078C12.345 11.5779 13.328 10.7496 14.4672 10.1989C17.1347 8.84302 19.9868 8.15062 22.8745 7.56064C26.7847 6.76138 30.7082 6.04005 34.6273 5.28755C38.5464 4.53504 42.4856 3.84042 46.5136 4.13653C47.0099 4.13515 47.5054 4.09794 47.9963 4.02521C48.4409 3.03003 48.2297 2.04376 48.2586 1.08198C48.272 0.674559 48.2097 0.213704 48.7277 0.03337C49.1212 -0.10689 49.5168 0.213704 49.648 0.923908C49.8925 2.1678 50.3904 3.34784 51.1107 4.39033C51.4908 4.9625 51.9666 5.28087 52.6668 5.28087C53.1581 5.28087 53.6471 5.3432 54.1384 5.34098C55.1365 5.34098 56.068 5.47456 56.9416 6.05118C57.4251 6.33833 57.9683 6.50976 58.5288 6.55211C60.1493 6.71908 61.6699 7.24673 63.2082 7.7343C65.5467 8.4779 67.8875 9.19701 70.1483 10.1833C71.8444 10.9202 73.3249 11.9822 74.7854 13.0642C75.9525 13.928 76.4304 15.3083 76.915 16.6263C76.9963 16.8964 76.9963 17.1844 76.915 17.4545C76.6927 18.2182 76.8172 18.9729 76.8283 19.7432C76.8395 20.6337 76.606 21.5399 76.4038 22.4148C76.2837 22.9536 75.9436 23.4523 76.2215 24.0534C77.0751 24.2516 77.9776 24.3517 78.7912 24.679C79.6048 25.0063 80.3673 25.5918 81.1631 26.0371C83.5262 27.3573 84.5265 29.5169 84.8511 32.0772C84.9141 32.7066 84.9416 33.3392 84.9333 33.9718C84.96 36.4965 84.9956 39.0234 84.9889 41.5413C84.9733 46.1076 84.9711 50.6694 84.8689 55.2401C84.8422 56.4868 84.4932 57.7291 84.2553 58.9647C84.1019 59.764 83.5417 60.4987 84.0708 61.3848C84.2109 61.6074 84.1064 62.1083 83.9508 62.3911C83.3461 63.4887 82.7192 64.5395 81.6389 65.3165C77.4908 68.2931 72.8003 69.8783 67.8564 70.7154C65.5845 71.0983 63.2526 71.1607 60.9429 71.2898C57.933 71.4679 54.9202 71.6067 51.9043 71.7061C48.0497 71.8375 44.1928 72.0133 40.3448 71.9977C34.2316 71.9755 28.1562 71.4902 22.2454 69.7514C21.5723 69.5521 20.8879 69.3938 20.1958 69.2772C16.9836 68.7495 13.9937 67.5206 10.9926 66.3406C8.83609 65.4786 6.83433 64.2702 5.06618 62.7629C4.57621 62.3652 4.0657 61.9937 3.53677 61.6497C2.55644 60.9818 1.82286 60.2048 1.93178 58.9091C1.95818 58.6978 1.9338 58.4833 1.86065 58.2835C1.23377 56.8208 1.32269 55.2623 1.19376 53.7261C0.940336 50.6516 0.560206 47.5792 0.386814 44.4979C0.217868 41.3454 -0.0577819 38.2018 1.5513e-05 35.0293C0.0690771 32.6455 0.267214 30.2673 0.593551 27.905C0.672582 27.2061 0.888622 26.5297 1.22928 25.9146C1.56993 25.2995 2.0285 24.7578 2.57867 24.3206C3.97025 23.1896 5.60637 22.5573 7.28027 22.0274C7.78933 21.8783 8.38953 22.0119 9.1987 22.0119ZM66.3781 21.0412L65.0443 21.3862C64.4729 21.6499 63.843 21.7607 63.2161 21.7076C62.5891 21.6545 61.9867 21.4395 61.4676 21.0835C61.6143 20.5692 61.741 20.1016 61.8788 19.6363C62.4346 17.7529 61.9211 16.1989 60.4739 14.9031C59.5771 14.1056 58.4558 13.6056 57.2639 13.4716C56.5148 13.3781 56.3036 12.8037 55.9701 12.4319L54.3474 12.3517C53.5271 9.93838 53.5338 9.72242 54.4741 7.97474C54.9809 8.45563 56.0591 8.04821 56.1013 9.19478C56.4903 9.12131 56.5014 8.39775 57.175 8.66714V10.5306C57.6352 9.89385 57.9353 9.4753 58.2087 9.09237C59.1801 9.40406 59.727 9.83374 59.4291 10.8289C59.4002 10.9313 59.5847 11.0961 59.7336 11.3343C60.0626 10.7042 60.2961 10.2011 60.5828 9.73133C60.7162 9.50869 60.9363 9.26602 61.2364 9.6022C61.0808 10.2389 60.9229 10.8779 60.7607 11.5458C61.4498 11.5903 61.8277 11.0182 62.4768 11.2675C62.8503 11.41 63.3971 11.0115 63.8573 11.0449C64.3774 11.0694 64.8865 11.2965 65.6001 11.4901L63.9062 13.5139C64.3641 13.7365 64.4797 13.4048 64.6664 13.2556C65.7179 12.4208 66.0625 12.3651 67.0695 13.013C68.181 13.7321 69.2924 14.3933 70.6107 14.7718C72.2157 15.2304 72.6981 16.6018 71.9978 18.1336C71.5732 19.0597 71.2798 20.1217 70.1861 20.5825C70.026 20.6493 69.9416 20.9031 69.8237 21.0701C69.5125 21.1258 69.1279 20.9321 68.7567 21.5154L69.7948 21.0345C71.3887 20.9477 72.7403 20.1796 74.0896 19.4471C74.4093 19.2894 74.6761 19.0418 74.8573 18.7345C75.0385 18.4272 75.1263 18.0737 75.11 17.7172C75.0366 16.2746 74.6876 14.9098 73.3983 14.0415C71.5377 12.8037 69.6592 11.5814 67.5207 10.8C63.8306 9.43077 60.0337 8.42892 56.2413 7.42261C55.1299 7.12651 53.9628 6.85712 52.7402 6.89051C52.5179 7.9035 52.9936 8.67159 53.1247 9.47085C53.4004 11.1517 53.6605 12.8593 52.7868 14.4156C51.5864 16.5573 50.3149 18.6679 48.4743 20.3488C48.2698 20.5336 48.0297 20.7183 47.6784 20.3243C47.9007 19.9547 48.143 19.554 48.3876 19.1577C49.3094 17.6734 50.2334 16.1825 51.1596 14.6849C51.6044 13.9611 51.8356 13.1259 51.8265 12.276C51.8265 10.8 51.7554 9.32391 51.2285 7.91908C51.1036 7.70245 50.9545 7.50078 50.7839 7.31797C50.1926 8.25081 50.1615 9.27716 49.6725 10.092C49.1834 10.9068 48.6788 11.7907 48.0986 12.5788C47.4784 13.4248 46.7759 14.2152 46.0779 15.0011C44.9797 16.2345 44.8308 16.3191 43.6549 16.5595C43.9483 16.1298 44.115 15.7269 44.4107 15.4842C45.2332 14.8163 45.7733 13.9124 46.4936 13.1666C47.8474 11.7595 48.4409 10.0141 49.0634 7.96584C46.5514 10.5016 46.5514 10.5016 43.1903 11.9065C42.9424 12.039 42.6853 12.1536 42.4211 12.2493C41.6808 12.4408 40.9384 12.6946 40.1848 12.7458C38.6287 12.8393 36.9948 12.4208 35.5365 13.3447C34.5718 13.013 34.1138 13.7143 33.6981 14.3354C33.5047 14.6312 33.3753 14.9643 33.3182 15.3133C33.2612 15.6622 33.2778 16.0192 33.3669 16.3614C33.4558 16.7443 33.6915 17.174 33.1668 17.5146C32.9994 17.4204 32.8491 17.2984 32.7222 17.154C32.3997 16.6435 32.203 16.0636 32.1485 15.462C32.094 14.8604 32.1832 14.2545 32.4088 13.6942C32.8131 12.5682 32.9233 11.3573 32.7289 10.1766C32.6756 9.81816 32.4844 9.37511 33.0446 9.06343C33.4892 9.66231 33.5736 10.3413 33.6403 11.0248C33.6704 11.1233 33.717 11.2159 33.7782 11.2987C34.1116 10.7866 33.6181 10.0542 34.2894 9.5176L35.0386 11.125C35.1964 10.3213 35.2853 9.80257 35.412 9.29497C35.4321 9.21704 35.6343 9.18365 35.8744 9.07233C35.9856 9.61556 36.0967 10.1276 36.2412 10.8534C36.3644 10.2593 36.524 9.67345 36.7192 9.09905C36.8792 8.71612 37.1793 8.37994 37.7729 8.68049C37.8818 9.38625 37.9751 10.141 38.1307 10.8846C38.1728 10.9746 38.2368 11.0526 38.3168 11.1113C38.3968 11.1701 38.4903 11.2077 38.5887 11.2208C38.7221 11.2208 38.9822 10.9625 38.971 10.84C38.8466 9.55545 39.5023 8.59812 39.9803 7.84339C40.9117 7.68087 41.7053 7.75879 42.2032 7.40925C43.0502 6.80369 43.8794 6.65452 44.9064 6.74135C45.082 7.60294 45.2421 8.40443 45.4066 9.22595C47.156 8.38439 47.5895 7.76769 47.6495 6.06677C46.7804 5.84413 45.909 5.49014 45.022 5.45007C42.7168 5.3432 40.4115 5.2586 38.113 5.75063C35.8144 6.24265 33.4158 6.56992 31.075 7.01519C29.5189 7.30907 27.9629 7.66973 26.4312 7.99478C26.5357 10.6285 26.6535 11.1673 27.3004 12.3896C27.4227 12.1959 27.6094 12.04 27.6005 11.8909C27.5694 11.194 27.4805 10.5016 27.4227 9.8048C27.4004 9.53096 27.3515 9.22595 27.9073 9.15916C28.0629 9.551 28.2341 9.97623 28.4008 10.4059C28.592 10.8979 28.4541 11.5191 29.1477 12.0178C29.2166 11.597 29.3255 11.292 29.3011 11.0003C29.2386 10.5865 29.151 10.1768 29.0388 9.77363C28.9721 9.46194 28.5942 9.1881 28.9676 8.74061C29.6701 8.96324 29.6812 9.61111 29.8702 10.1811C30.0769 10.8133 30.0725 11.5658 30.7905 12.1625C31.0328 11.8219 31.344 11.5792 31.3618 11.3165C31.4085 10.6219 31.3129 9.91834 31.3084 9.21927C31.3084 9.08124 31.4574 8.9432 31.6663 8.58476C32.0294 9.96484 32.2043 11.3878 32.1865 12.8148C31.5196 13.2601 30.8861 13.2356 30.2592 13.3002C27.8873 13.5451 25.5087 13.8122 23.2546 14.636C21.4317 15.3039 20.587 15.8827 21.0005 18.0356C21.0474 18.2772 21.0268 18.5271 20.9409 18.7577C20.855 18.9883 20.7071 19.1907 20.5137 19.3425C20.1313 18.6946 19.8468 17.9421 19.3421 17.4256C18.7108 16.7933 18.453 16.0764 18.2773 15.2593C18.1351 14.5914 17.9217 13.9235 17.7661 13.2556C17.7438 13.1599 17.8683 13.033 17.9328 12.9061L18.7886 12.8393C18.7563 12.5057 18.763 12.1695 18.8086 11.8375C18.8642 11.6148 19.111 11.4478 19.271 11.2564C19.4333 12.3384 19.5911 13.4182 19.7734 14.4957C19.7867 14.5759 19.969 14.6271 20.0735 14.6916C20.5581 13.5228 20.3447 12.6657 19.2332 11.292C19.331 10.9603 19.3933 10.5885 19.9935 10.7221L21.5829 14.1439L23.1568 13.2668C23.6681 12.0334 22.7366 11.194 22.4899 10.0386C23.9993 10.5796 23.7325 11.9488 24.2349 12.7836C24.8062 12.9907 25.1663 12.8037 25.1597 12.2827C25.1463 11.2608 25.0396 10.2389 24.9374 8.78959C25.2619 9.35063 25.4576 9.54654 25.482 9.76027C25.5509 10.3836 25.5398 11.0182 25.5887 11.646C25.6065 11.8864 25.6065 12.2248 26.1689 12.0423C25.7532 10.9091 26.3467 9.54432 25.2797 8.53801C25.0657 8.49258 24.8471 8.47241 24.6284 8.4779C21.7914 8.91369 19.0143 9.67645 16.3522 10.751C15.3986 11.1428 14.5361 11.7907 13.6847 12.4007C13.2967 12.6992 12.9876 13.0883 12.7844 13.5339C12.6082 13.9081 12.5621 14.3305 12.6532 14.7339C12.751 15.0768 13.1311 15.335 13.4802 15.738C13.5785 15.4198 13.6989 15.1089 13.8403 14.8074C14.1915 14.1974 14.7295 14.1261 15.1918 14.6271C15.4439 14.8716 15.6508 15.1587 15.8032 15.4753C16.0877 16.1833 16.3078 16.918 16.5412 17.646C16.6901 18.1046 16.9013 18.3718 17.4504 18.0044C17.2281 17.1829 16.8924 16.3903 16.8035 15.5688C16.7035 14.6627 15.732 14.1306 15.7587 13.151C16.0232 13.151 16.2144 13.0953 16.2722 13.151C17.7038 14.7094 17.9528 16.7777 18.6063 18.8304L20.5426 19.318C21.4873 20.0816 22.6899 20.282 23.7548 20.7807C24.9524 21.3659 26.2409 21.7423 27.5649 21.8939C29.37 22.0742 31.1662 22.3391 32.9668 22.5618C35.6699 22.9024 38.3731 23.2497 41.0806 23.5614C41.7009 23.6349 42.3366 23.5614 42.9657 23.5836C45.062 23.6349 47.1583 23.6927 49.2568 23.7439C50.1615 23.7662 51.0663 23.8174 51.971 23.7907C52.9469 23.7595 53.9228 23.666 54.8987 23.5792C57.1217 23.3877 59.358 23.2386 61.5676 22.9625C62.8547 22.8 64.2174 22.6441 65.0132 21.3551C65.2475 21.4101 65.4917 21.4066 65.7243 21.3449C65.9568 21.2832 66.1707 21.1651 66.347 21.0011L67.2918 20.6271L70.0038 19.7143C70.0794 19.0909 70.1127 18.561 70.7974 18.1692C71.4821 17.7773 71.5043 16.9736 70.9975 16.3725C70.7298 16.059 70.4065 15.7978 70.0438 15.6022C69.4436 15.2794 68.8012 15.0323 68.2432 14.7851C66.9961 15.5354 67.0072 15.5488 66.5493 16.5439C66.9694 16.3413 67.3385 16.1499 67.7186 15.9874C68.1632 15.8003 68.3321 16.1477 68.5389 16.4193L68.2543 16.6241L68.5077 16.3792H69.8726L67.2051 18.0957L68.4121 18.3072C67.6986 18.7146 67.1562 18.9907 66.6471 19.3224C66.1758 19.6297 65.5001 19.6786 65.091 20.4356L67.314 19.8968C67.314 20.253 67.314 20.4601 67.314 20.6649L66.3781 21.0412ZM7.50034 29.9154L8.125 29.7729L8.00496 29.5503C7.84713 29.6838 7.68929 29.8152 7.52702 29.9465L6.58003 30.325C6.10654 30.4408 5.63749 30.5833 5.15732 30.6568C5.01061 30.679 4.83499 30.5143 4.57935 30.3874C5.31738 29.3388 6.7512 29.43 7.61816 28.2634C6.09097 28.4237 5.05062 29.1673 3.95692 29.5992C3.51232 29.2653 3.1233 28.9803 2.74317 28.6931C3.10329 27.9562 3.8102 27.6779 4.47042 27.2994C5.33961 26.8052 6.44665 26.6426 6.98017 25.6386L7.64706 25.5985C7.62261 25.5206 7.60038 25.4426 7.57592 25.3647L7.00462 25.6697C5.44853 25.9102 4.14587 26.6694 2.91656 27.5933C2.50753 27.9028 2.48975 28.2612 2.77207 28.6731C2.77207 29.5948 3.30781 30.2716 3.88356 30.8482C4.87056 31.8234 5.95315 32.705 7.00906 33.6111C7.08687 33.6779 7.25804 33.6378 7.52702 33.6601C7.40253 33.1146 7.28916 32.6093 7.18023 32.1261C7.50034 31.4337 8.43399 31.505 8.88303 30.6946C8.43844 30.7436 8.15834 30.7191 7.92271 30.8104C7.53591 30.9618 7.18913 31.2067 6.81122 31.3803C6.49778 31.5228 6.1132 31.6631 5.92203 31.249C5.73085 30.8349 6.16656 30.6723 6.38885 30.4363C6.43776 30.3851 6.48444 30.3339 6.53557 30.2849L7.50034 29.9154ZM68.4611 32.823L67.5474 32.9521C67.5741 33.03 67.6008 33.1102 67.6297 33.1881L68.4299 32.7918C68.551 32.7918 68.6717 32.7791 68.7901 32.754C68.8501 32.7384 68.8901 32.6516 68.939 32.5959C68.8793 32.5959 68.82 32.6057 68.7634 32.6248C68.6584 32.6853 68.5567 32.7515 68.4588 32.823H68.4611ZM64.2618 33.6668L61.701 33.7514C61.8614 33.6166 62.0413 33.507 62.2345 33.4263C64.413 32.9054 66.6138 32.4623 68.7745 31.8679C71.0553 31.2467 73.4427 30.8037 75.1567 28.9336C75.3056 27.1146 75.3056 27.1146 74.801 25.9837C74.6675 26.0101 74.536 26.0458 74.4075 26.0905C72.3068 26.961 70.2839 28.1788 67.8408 27.4263C67.5363 27.3306 67.1539 27.4953 66.8049 27.5399L65.9713 27.6401C66.6029 27.1705 67.3182 26.8259 68.0787 26.6248C69.4125 26.213 70.7685 25.8434 72.1023 25.4159C72.9559 25.1421 73.8295 24.8571 74.4164 23.5614C71.7599 24.0067 69.5703 25.3647 67.194 25.4204C66.4782 24.5877 67.1228 24.0846 67.5585 23.5102C65.0154 23.813 62.5924 24.1046 60.1693 24.3851C58.9845 24.5232 57.7974 24.6367 56.6126 24.7681C53.8965 25.1 51.1613 25.2487 48.4254 25.2133C46.747 25.1755 45.0709 25.0753 43.3948 25.0063C42.4878 24.9684 41.5764 24.9773 40.6738 24.895C37.3949 24.5922 34.1205 24.2649 30.8461 23.9354C28.4008 23.6905 25.9555 23.4122 23.6547 22.4838C21.8986 21.7759 20.1535 21.03 18.3618 20.4334C15.9165 19.6185 13.8425 18.2204 11.9663 16.4883C11.7262 16.2657 11.4684 16.0697 11.0971 15.7603C10.6366 16.8387 10.4195 18.0056 10.4613 19.1777C10.5036 20.7362 11.0749 22.0274 12.5243 22.8311C13.3147 23.2843 14.0805 23.7792 14.8184 24.3139C14.881 24.3864 14.9236 24.4741 14.9419 24.5682C14.9602 24.6624 14.9537 24.7596 14.9229 24.8504C14.8539 24.9196 14.7688 24.9704 14.6751 24.998C14.5815 25.0256 14.4825 25.0292 14.3871 25.0085C13.7336 24.7681 13.1 24.472 12.4576 24.1937L10.4369 23.3232C9.10311 24.777 10.2502 26.2174 10.1012 27.6133C11.1216 27.9785 11.4906 28.8067 11.9085 29.6326C12.5976 30.9952 13.638 31.9614 15.1629 32.3733C18.5374 33.319 21.9597 34.0845 25.4153 34.6664C27.416 34.9848 29.4478 35.2029 31.4752 35.3343C34.056 35.4968 36.6458 35.528 39.2333 35.6059C40.0723 35.6663 40.9142 35.6745 41.7542 35.6304C47.4095 35.1072 53.0914 35.2007 58.7466 34.4861C59.7981 34.3525 60.8096 34.2634 61.7343 33.7135C62.5857 34.2946 63.4149 34.19 64.233 33.6423C64.6776 33.6133 65.1777 33.8271 65.7112 33.2081L64.2618 33.6668ZM12.96 34.5417C13.4757 34.4749 14.0159 34.466 14.5161 33.8916C13.7891 33.9117 13.3312 34.1009 12.9955 34.5595L12.0619 34.9469C11.5328 35.0204 10.986 35.0605 10.7592 35.8375C12.2531 36.7035 13.7291 37.4916 15.5097 37.4315L17.2192 38.2686C17.6638 37.3937 18.3729 37.1978 19.1265 37.0219C20.0713 36.7992 21.0027 36.5098 21.9319 36.2337C22.1542 36.1692 22.5099 36.2204 22.4276 35.7261C20.4226 35.7843 18.4527 36.2677 16.6479 37.1443C16.2679 37.2859 15.8768 37.3954 15.4786 37.4716C15.3297 36.964 15.6431 36.5811 15.8298 36.1647C17.0347 36.2582 18.0328 35.6749 19.0465 35.1495C17.9029 35.1704 16.792 35.5358 15.8587 36.1981C15.4852 36.3579 15.0984 36.4845 14.7028 36.5766C14.3734 36.6149 14.0397 36.5776 13.7269 36.4675C13.3846 36.354 13.5802 35.5926 12.9489 35.7573C12.6087 35.8464 12.262 35.9176 12.0841 35.5191C12.0364 35.3233 12.0213 35.1209 12.0397 34.9202L12.96 34.5417ZM6.61115 27.3729C5.83755 27.3484 5.23068 27.7224 4.68161 28.2234C5.37295 28.0608 6.06874 27.9072 6.58003 27.3328C6.82456 27.2794 7.07131 27.2304 7.31139 27.1636C7.35363 27.1503 7.40475 27.0122 7.39586 27.0078C7.31361 26.9477 7.17356 26.8386 7.13577 26.8631C6.95114 27.0226 6.77596 27.1929 6.61115 27.3729ZM78.2044 61.9035C78.0265 61.4137 78.2555 60.7703 77.7242 60.4274C77.0729 60.4764 77.0773 60.9662 77.024 61.3469C76.9573 61.8055 76.7216 62.4311 77.2463 62.6716C77.9132 62.9788 77.8665 62.095 78.2355 61.8501C78.5445 62.1529 78.889 62.4111 79.347 62.2642C81.192 61.6675 82.9393 60.9818 82.9037 58.5528C82.9037 58.0742 83.106 57.5978 83.146 57.1146C83.1518 56.6681 83.1266 56.2218 83.0705 55.7788C82.0012 56.1462 81.0809 56.4467 80.1806 56.7807C79.4292 57.0612 79.3403 57.6156 79.6738 58.4059C80.0555 58.2873 80.4271 58.1384 80.7852 57.9606C81.2009 57.7135 81.5433 57.335 81.9701 57.1146C82.139 57.0278 82.468 57.1725 82.677 57.295C82.7016 57.3863 82.7058 57.4819 82.6892 57.575C82.6727 57.6682 82.6359 57.7565 82.5814 57.8337C81.999 58.3213 81.441 58.9469 80.7586 59.1696C79.4403 59.6148 78.629 60.3896 78.3466 61.741C78.3311 61.8078 78.251 61.8523 78.2021 61.9035H78.2044ZM29.7901 38.7495L29.8146 38.7829C29.8968 38.2352 30.3881 38.2285 30.7594 38.115C31.6108 37.8345 32.4777 37.6007 33.7115 37.2378C33.0446 37.0152 32.7267 36.8215 32.4177 36.8193C31.0839 36.8081 29.7501 36.7369 28.443 36.9016C26.5046 37.1421 24.5861 37.5562 22.6633 37.9102C22.0453 38.0237 21.5162 38.095 20.8849 37.7054C20.2536 37.3158 19.4333 37.4827 18.7375 38.2352C19.0786 38.4049 19.4333 38.5457 19.7979 38.656C22.7477 39.2349 25.7021 39.7892 28.7053 40.0096C30.033 40.1241 31.3704 39.9935 32.6511 39.6245C34.1916 39.1636 35.7633 38.8074 37.3194 38.3844C37.7909 38.2634 38.249 38.0949 38.6865 37.8812C38.8666 37.79 38.9488 37.5028 39.1311 37.2133C38.2838 36.9259 37.3638 36.9369 36.5235 37.2445C34.3139 37.9235 32.0887 38.518 29.7879 38.754L29.7901 38.7495ZM60.9763 38.3465C61.6662 38.3889 62.3581 38.3889 63.0481 38.3465C65.9002 38.0037 68.7411 37.5562 71.5977 37.2601C74.9744 36.9061 78.1732 35.9243 81.3276 34.7376C82.6614 34.2367 83.2572 33.2527 83.1749 31.7855C83.1563 31.1163 83.0039 30.4577 82.7267 29.8485C82.4495 29.2393 82.0531 28.692 81.5611 28.2389C80.2693 27.0464 78.7596 26.1151 77.1151 25.4961C77.0195 25.4605 76.8684 25.5762 76.7172 25.6319C76.4949 26.1684 76.4549 26.6849 77.024 27.2104C77.4764 27.13 77.934 27.0824 78.3933 27.0679C78.7223 27.0679 79.1558 27.1436 79.3559 27.3595C79.956 28.0322 80.5157 28.7399 81.032 29.479C81.241 29.7684 80.9786 30.4564 80.6363 30.5521C80.2339 30.6657 79.816 30.7146 79.4048 30.7903C77.9576 31.053 76.5149 31.2979 75.0677 31.5985C74.7921 31.6564 74.5631 31.9369 74.0341 32.3109C76.2281 32.4467 77.9754 31.4204 79.9361 31.9213C79.8948 32.0209 79.8288 32.1084 79.7444 32.1754C79.66 32.2424 79.56 32.2867 79.4537 32.3042C78.9735 32.4 78.4867 32.4712 78.0021 32.5269C77.5175 32.5825 77.8932 32.9721 77.6486 33.3128C74.6476 33.5109 71.6888 34.8334 68.4877 34.6486C68.2768 34.645 68.0673 34.6844 67.872 34.7644C66.2447 35.3788 64.393 35.1762 62.8658 36.1736C62.6013 36.3473 62.1834 36.3117 61.8366 36.3183C60.9296 36.3362 60.0226 36.3183 59.1134 36.3183C61.1764 36.7057 63.2726 36.3183 65.3244 36.8282C62.6902 37.0864 60.0515 37.2067 57.4173 37.3558C54.832 37.505 52.2489 37.7143 49.6636 37.8412C47.0382 37.9681 44.4618 38.5848 41.8209 38.5425C42.2645 38.3823 42.7258 38.2762 43.1947 38.2263C43.6037 38.1484 43.9972 37.9814 44.4062 37.8946C44.8819 37.7922 45.3665 37.7165 45.8512 37.6586C46.2802 37.6074 46.7804 38.0037 47.3116 37.3558C44.9864 36.9595 42.8212 37.2423 40.6716 37.1978C40.538 37.2099 40.4093 37.254 40.2963 37.3265C40.1833 37.399 40.0894 37.4976 40.0225 37.6141C39.758 38.3265 39.1333 38.5046 38.5464 38.6716C37.2682 39.0323 35.9678 39.3172 34.6807 39.6534C34.3984 39.7269 33.9982 39.7068 33.9805 40.2768C39.8624 39.9228 45.74 40.1499 51.5731 39.2126L47.4873 39.1057C51.971 38.4378 56.4481 37.8968 60.9985 37.6163C60.9985 37.9614 60.9985 38.1662 60.9985 38.3688L58.9734 38.4445C58.9734 38.5313 58.9934 38.6182 59.0023 38.705L60.9763 38.3465ZM64.7709 45.9451L64.802 45.9762C65.2498 45.7938 65.7105 45.6449 66.1803 45.531C67.4918 45.3083 68.8256 45.2081 70.1283 44.9499C73.6369 44.2735 77.1067 43.4091 80.5229 42.3606C81.5299 42.0467 82.5236 41.6772 83.3105 40.9358C83.584 40.6775 83.6862 40.3569 83.2261 40.0675C80.6355 41.29 77.9332 42.2592 75.1567 42.9618C72.3824 43.6297 69.6281 44.4356 66.7338 44.5046C67.4695 44.185 68.236 43.9418 69.0212 43.7788C72.458 43.0913 75.8305 42.1134 79.1024 40.8556C80.6492 40.2835 82.0745 39.4248 83.3039 38.3243C80.5318 39.7937 77.513 40.3503 74.5009 40.9024C71.4198 41.4679 68.3366 42.0623 65.1799 41.9755C67.4474 41.5302 69.7348 41.2252 71.9911 40.7644C74.2475 40.3035 76.4971 39.7269 78.729 39.1235C80.4518 38.656 81.8967 37.643 83.2661 36.5276C83.5773 36.2738 83.5951 35.9376 83.215 35.5636C82.9703 35.6411 82.733 35.7402 82.5058 35.8597C81.172 36.708 79.6915 37.1265 78.1888 37.4716C76.346 37.8946 74.4853 38.2419 72.6314 38.5848C66.6893 39.6534 60.6695 40.0497 54.663 40.5595C52.709 40.7265 50.755 40.9447 48.7966 41.0538C44.2484 41.3076 39.6979 41.6549 35.1475 41.695C29.8841 41.7308 24.6311 41.2189 19.4733 40.1677C18.2373 39.9206 16.9658 39.807 15.7543 39.4709C13.1105 38.7374 10.5886 37.619 8.26949 36.1514C7.58926 35.7217 6.90458 35.194 5.92647 35.1495C5.53745 37.485 6.42664 39.738 5.92647 42.2961C5.83311 41.5725 5.89091 41.105 5.70418 40.7688C5.00616 39.4753 5.02172 38.0749 4.9906 36.6835C4.97059 35.853 5.05284 35.0226 5.08841 34.1877C4.45931 33.5332 3.97692 32.7473 2.93657 32.4222C2.901 33.1302 2.86321 33.6779 2.84765 34.2256C2.82987 34.8579 2.86099 35.4924 2.81431 36.1224C2.77874 36.5877 3.0655 37.1376 2.46308 37.5495C2.3297 35.8998 2.18965 34.2968 2.0785 32.6916C2.07732 32.3428 2.10933 31.9947 2.17409 31.6519C2.21855 31.3046 2.08961 31.1465 1.62057 31.22C1.53609 32.2375 1.35825 33.2816 1.37826 34.3235C1.43161 37.2 1.53239 40.0749 1.68059 42.9484C1.76951 44.6983 1.9718 46.4415 2.12518 48.1892C2.24522 49.6542 2.38305 51.1213 2.4653 52.5885C2.52532 53.7017 2.41195 54.8482 2.55644 55.9547C2.71872 57.2015 3.08551 58.4193 3.36338 59.6504C4.18811 60.2961 5.03284 60.915 5.83311 61.5918C9.01419 64.2835 12.8355 65.7261 16.7235 66.9039C19.6734 67.7944 22.6988 68.449 25.7221 69.0434C28.5337 69.6234 31.3743 70.0522 34.2316 70.328C36.9459 70.5662 39.6913 70.5172 42.4211 70.4994C45.7178 70.4794 49.0122 70.377 52.3067 70.2768C54.4785 70.2078 56.6482 70.0007 58.82 69.9807C62.0722 69.9495 65.1977 69.0901 68.3788 68.6449C68.6265 68.6247 68.8592 68.518 69.0364 68.3434C69.2135 68.1688 69.3238 67.9375 69.348 67.6898C69.4592 67.0041 69.5948 66.3072 69.1657 65.6861C67.9587 65.341 68.1787 66.5276 67.7719 67.1465C67.6008 66.5966 67.4829 66.2226 67.3673 65.8486C66.7783 65.7929 66.307 65.7796 65.9913 66.2939C65.8384 66.5197 65.6729 66.7367 65.4956 66.9439L65.5289 66.9751C65.3822 66.472 65.1733 66.0846 64.5308 66.1313C63.9662 66.1803 63.6127 66.423 63.5149 66.9929C63.4349 67.4493 63.366 67.9057 63.2371 68.7117C63.0837 67.6898 62.9836 67.0219 62.8903 66.4118C62.0011 66.0623 61.8766 66.8682 61.5054 67.2556C60.8607 66.1981 60.6384 66.1603 60.0137 66.9195C59.8826 67.0775 59.747 67.2289 59.6114 67.3848L59.6447 67.4115C59.4802 66.9061 59.2001 66.5321 58.6044 66.5744C58.3265 66.5944 58.0508 66.6323 57.773 66.6612C56.6763 66.7006 55.5794 66.5867 54.5141 66.3228C55.2788 65.9822 56.228 66.4786 56.9727 65.715C57.1351 64.5916 56.9899 63.445 56.5526 62.3978L50.5172 62.3265C52.0333 62.0349 53.5538 61.9903 55.0743 61.908C55.6278 61.879 56.2525 61.908 56.7082 61.6497C56.9655 61.4902 57.2572 61.3948 57.5589 61.3715C57.8606 61.3483 58.1635 61.3979 58.4421 61.5161C59.1801 61.7699 59.5291 61.3647 59.538 60.4742C59.4965 60.2795 59.4285 60.0915 59.3357 59.9154C57.504 59.5391 55.5211 60.0757 53.3581 59.5592C55.1543 59.5235 56.6926 59.5592 58.2309 59.4412C59.7203 59.3187 61.1941 59.0248 62.7391 58.7977C62.868 58.5172 63.0303 58.1588 63.2171 57.7558C63.3438 57.9473 63.4394 58.0542 63.4927 58.1744C63.8795 58.8779 64.1863 59.0471 64.7509 58.8556C65.2533 58.6864 65.4378 58.3747 65.3355 57.6846C65.2403 57.2724 65.1132 56.8682 64.9554 56.4757C61.4476 56.4623 58.0464 57.2104 54.5474 56.7317C56.9194 56.5425 59.2157 56.3799 61.5054 56.1684C63.2437 56.0081 64.9791 55.8078 66.7116 55.5673C66.9961 55.5272 67.2873 55.2222 67.4852 54.9684C67.6519 54.7569 67.6919 54.4408 67.8431 54.0133C68.3455 55.2556 68.3455 55.2556 69.3013 55.0219C69.7459 54.561 69.2057 53.7462 70.0549 53.2608C70.1438 53.6883 70.1505 54.0267 70.2883 54.2961C70.3468 54.4086 70.4293 54.5068 70.53 54.5837C70.6307 54.6607 70.747 54.7145 70.8708 54.7414C70.9951 54.7212 71.1124 54.6698 71.2115 54.5919C71.3107 54.5141 71.3885 54.4123 71.4376 54.2961C71.5577 53.6927 71.6888 53.0404 70.9797 52.515C69.6615 52.6597 68.2766 52.8289 66.885 52.9603C64.9376 53.1451 62.9859 53.3098 61.0341 53.4746C60.7543 53.4946 60.4735 53.4946 60.1938 53.4746C59.9226 53.459 59.6514 53.41 59.3802 53.3766C63.3527 52.8022 67.314 52.4326 71.3042 51.6913V49.8723C70.7729 49.8968 70.3684 49.8879 69.9705 49.9391C66.1536 50.4356 62.3434 50.9944 58.4843 51.0523L58.5177 51.0723C58.8289 50.9232 59.1268 50.6783 59.4491 50.6382C61.0452 50.4423 62.6546 50.3577 64.2441 50.1284C66.9405 49.741 69.6303 49.3002 72.3135 48.8304C73.3249 48.6545 73.425 48.354 73.1515 46.9046C69.2747 47.1829 65.4334 48.1046 61.512 47.8775C64.2063 47.4501 66.9161 47.1584 69.6037 46.7332C72.2912 46.308 74.9922 46.1031 77.4508 44.9521C77.4686 44.3599 77.164 44.1996 76.7839 44.2597C75.6102 44.4401 74.4453 44.685 73.2716 44.872C70.4573 45.3217 67.663 46.0319 64.7687 45.9495L64.7709 45.9451ZM71.98 67.3959C72.8692 67.6586 72.8692 67.6831 73.3383 67.5451C76.0347 66.7547 78.7045 65.9065 80.7563 63.8293C81.1076 63.4731 81.6678 63.226 81.6277 62.3844C80.3962 62.8297 79.2358 63.0389 78.2933 63.8226C78.1621 63.9317 77.9421 64.0987 77.8487 64.0564C77.0773 63.7291 76.4149 64.279 75.6835 64.2924C74.9521 64.3057 74.1652 64.515 73.4138 64.6731C72.3024 64.8957 72.1401 65.056 71.9934 66.1514C71.9602 66.5669 71.955 66.9841 71.9778 67.4004L71.98 67.3959ZM63.6972 64.0497H63.4482C63.3171 63.5154 63.2104 62.9699 63.0392 62.449C62.9984 62.3584 62.9369 62.2788 62.8597 62.2165C62.7824 62.1543 62.6916 62.1111 62.5946 62.0905C62.4968 62.0858 62.3994 62.105 62.3107 62.1465C62.222 62.188 62.1447 62.2506 62.0856 62.3287C61.6965 63.3885 61.5231 64.4527 62.1923 65.5258L65.2488 65.1629C65.7268 63.2905 65.7312 62.6159 65.2177 61.928L63.9128 62.0705C63.8373 62.8141 63.7684 63.433 63.6972 64.0497ZM72.5291 63.9629C73.8873 63.8649 75.2256 63.6824 76.4704 63.0879C76.5438 62.3154 76.6638 61.6386 76.3282 60.935L75.5012 61.7098C75.2789 61.338 75.3745 60.7703 74.7521 60.7881C74.2297 60.8015 74.0274 61.1176 73.9451 61.5785C73.8882 61.7932 73.8184 62.0044 73.7362 62.2107C73.6295 61.8434 73.625 61.6029 73.5139 61.4671C73.356 61.2868 73.0848 61.053 72.9026 61.0842C72.7807 61.1242 72.6708 61.1941 72.5827 61.2874C72.4946 61.3807 72.4311 61.4945 72.3979 61.6185C72.3046 62.3688 72.109 63.1414 72.5291 63.9629ZM83.3728 52.6219C81.7386 53.0964 80.1624 53.752 78.6734 54.5766C78.7001 54.9506 78.7268 55.3536 78.7601 55.8367C79.158 55.8679 79.5426 56.0104 79.8205 55.8968C80.9128 55.4744 81.9755 54.979 83.0016 54.4141C83.5973 54.0734 83.5995 53.3989 83.3728 52.6219ZM59.6181 65.6794C59.6381 64.7443 59.6758 63.9139 59.6647 63.0835C59.6832 62.8704 59.6167 62.6586 59.4796 62.4946C59.3425 62.3306 59.1461 62.2277 58.9334 62.2085C58.4043 62.1373 57.8908 62.4156 57.8219 62.9298C57.7107 63.758 57.693 64.5974 57.6641 65.4323C57.6641 65.5391 57.8085 65.6549 57.9708 65.8775L59.6181 65.6794ZM83.3661 46.8311C82.3324 47.1829 81.421 47.4612 80.534 47.8018C79.7071 48.118 79.6604 48.4898 80.2717 49.6096C81.4833 49.3358 82.3569 48.3673 83.5706 47.9822C83.5039 47.6037 83.4461 47.2853 83.3661 46.8311ZM83.6684 42.3473C81.7967 42.8705 80.2584 43.2779 78.7357 43.7432C78.2577 43.8879 78.1088 44.2619 78.4689 44.7094C81.2209 44.2686 82.3058 43.8078 83.6684 42.3473ZM83.1994 44.3354C82.2257 44.6538 81.2298 44.9365 80.2695 45.3083C79.5515 45.5844 79.5737 46.1744 80.314 46.8846C81.1787 46.5039 82.0746 46.1365 82.9482 45.7202C83.4995 45.4597 83.5262 45.2059 83.1994 44.3354ZM69.7037 61.7009C69.0368 61.3068 68.6389 61.4516 68.4033 61.9859C68.0898 62.6819 68.0392 63.4683 68.261 64.1989C68.3254 64.4215 68.6367 64.7176 68.7967 64.6976C69.0924 64.6575 69.3703 64.4237 69.6259 64.23C69.7081 64.1677 69.7193 63.9762 69.7193 63.8426C69.7215 63.099 69.7104 62.3554 69.7037 61.6987V61.7009ZM71.7333 61.3937C70.9375 61.1465 70.5418 61.3113 70.4217 61.7766C70.2105 62.5825 70.1038 63.4152 70.4462 64.3413C70.8107 64.2901 71.1798 64.3258 71.4398 64.1744C71.5447 64.0875 71.6299 63.9792 71.6897 63.8567C71.7495 63.7342 71.7825 63.6004 71.7866 63.4642C71.8133 62.7762 71.7555 62.0861 71.7444 61.3914L71.7333 61.3937ZM66.0669 64.9224C67.4629 64.9002 67.623 64.8334 67.6941 64.1566C67.7553 63.6067 67.7775 63.0532 67.7608 62.5002C67.7453 61.9436 67.4585 61.6452 67.0539 61.6742C66.536 61.712 66.3559 62.0705 66.3025 62.5091C66.2136 63.2571 66.1536 64.0096 66.0669 64.9224ZM61.4942 63.9851C61.4396 63.4864 61.3595 62.9907 61.2542 62.5002C61.2141 62.351 60.9385 62.135 60.8096 62.1618C60.5873 62.2085 60.2116 62.4022 60.2005 62.5536C60.1539 63.4435 60.1539 64.3353 60.2005 65.2252C60.2005 65.3499 60.4761 65.5414 60.6451 65.5569C60.7409 65.5637 60.8369 65.5469 60.9249 65.5081C61.0128 65.4693 61.09 65.4097 61.1497 65.3343C61.2907 64.8917 61.4057 64.4412 61.4942 63.9851ZM78.7423 52.9714C79.2892 52.8645 79.6893 52.82 80.0761 52.7065C81.2276 52.3658 81.321 52.1343 80.9208 50.5848C80.5452 50.7228 80.185 50.8608 79.8094 50.9877C79.4337 51.1146 79.0735 51.226 78.6645 51.3595C78.6912 51.9072 78.7134 52.3681 78.7423 52.9714ZM70.295 65.3721C70.1194 66.1291 69.9238 66.7948 69.8304 67.476C69.8037 67.6764 70.0527 68.0861 70.2016 68.0972C70.504 68.1261 70.9708 68.046 71.1131 67.8367C71.6043 67.1042 71.4888 66.2649 71.282 65.4501C71.2687 65.3966 71.1864 65.3632 71.1086 65.2942L70.295 65.3721ZM83.3483 49.367C81.3477 50.4044 81.3343 50.4401 81.7923 51.9317C83.7174 51.1569 83.7485 51.1191 83.3483 49.367ZM71.7889 57.1258C71.7288 56.7829 71.7355 56.4178 71.591 56.1284C71.5169 56.0284 71.4233 55.9445 71.316 55.8818C71.2086 55.819 71.0897 55.7787 70.9663 55.7632C70.8174 55.7388 70.5062 55.9191 70.4884 56.0415C70.4048 56.564 70.3743 57.0936 70.3973 57.6222C70.3973 57.7469 70.6929 57.9606 70.8419 57.954C71.1046 57.933 71.3552 57.8347 71.5621 57.6712C71.7022 57.5666 71.7199 57.3172 71.7911 57.1258H71.7889ZM67.6697 57.2527C67.6404 57.0084 67.5775 56.7695 67.4829 56.5425C67.4225 56.4626 67.3468 56.3956 67.2601 56.3455C67.1734 56.2954 67.0776 56.2632 66.9783 56.2508C66.7715 56.2207 66.561 56.2718 66.3908 56.3933C66.2206 56.5148 66.1038 56.6975 66.0647 56.9031C65.9246 57.7247 66.1581 58.3592 66.6449 58.4883C66.7426 58.5204 66.8459 58.5318 66.9483 58.5219C67.0507 58.512 67.1499 58.481 67.2397 58.4308C67.3295 58.3806 67.4079 58.3123 67.4701 58.2302C67.5322 58.1482 67.5767 58.0541 67.6008 57.954C67.6363 57.7514 67.643 57.5532 67.6719 57.2527H67.6697ZM74.0385 56.1083C74.063 56.3844 74.063 56.5247 74.0896 56.6627C74.0975 56.7498 74.123 56.8343 74.1645 56.9112C74.206 56.9881 74.2626 57.0558 74.331 57.1102C74.3994 57.1645 74.4781 57.2043 74.5623 57.2273C74.6465 57.2503 74.7345 57.2559 74.821 57.2438C74.9099 57.2458 74.9983 57.2301 75.081 57.1975C75.1637 57.1648 75.2391 57.116 75.3027 57.0537C75.3662 56.9915 75.4168 56.9172 75.4512 56.8351C75.4857 56.753 75.5035 56.6649 75.5034 56.5759C75.5479 56.2288 75.5199 55.8763 75.4212 55.5406C75.3754 55.4206 75.302 55.3132 75.207 55.2269C75.112 55.1406 74.998 55.078 74.8743 55.0441C74.7423 55.0566 74.6145 55.0972 74.4995 55.1633C74.3845 55.2293 74.2849 55.3193 74.2075 55.4271C74.1034 55.6394 74.0465 55.8718 74.0407 56.1083H74.0385ZM7.66484 23.7306C5.76197 23.7306 4.23034 24.4542 3.79686 25.6408C5.06618 25.0842 6.25992 24.5655 7.44921 24.0311C7.54702 23.9888 7.59371 23.8352 7.66484 23.7306ZM69.7437 57.0345C69.6918 56.7902 69.6066 56.5542 69.4903 56.3332C69.4233 56.2592 69.3421 56.1994 69.2516 56.1574C69.1611 56.1153 69.0631 56.0918 68.9634 56.0883C68.4699 56.0683 68.1965 56.4623 68.1987 57.1213C68.201 57.7803 68.4833 58.1877 68.9746 58.1298C69.2328 58.0761 69.4645 57.9345 69.6303 57.7291C69.7437 57.5933 69.6948 57.3306 69.7437 57.0345ZM75.7569 47.4612C76.157 47.4612 76.3993 47.3944 76.5749 47.4746C77.5086 47.8953 77.802 47.7395 77.7487 46.7621C77.7353 46.5239 77.5708 46.2946 77.4219 45.9317L75.7458 46.5684L75.7569 47.4612ZM73.5761 56.5158C73.5856 56.3293 73.5568 56.1429 73.4916 55.9681C73.3649 55.7454 73.136 55.4605 72.9492 55.4605C72.7625 55.4605 72.5269 55.7499 72.4024 55.9636C72.3288 56.1605 72.3104 56.3737 72.349 56.5803C72.3779 56.9811 72.2868 57.453 72.847 57.5955C73.2849 57.7068 73.5761 57.2994 73.5672 56.5113L73.5761 56.5158ZM74.1319 54.4564C74.6832 54.1024 75.0811 53.9888 75.1633 53.7595C75.2817 53.3627 75.2993 52.9426 75.2145 52.5373C75.1811 52.3414 74.861 52.0319 74.7121 52.0542C74.5858 52.0864 74.4693 52.1491 74.3728 52.2368C74.2764 52.3245 74.2028 52.4346 74.1585 52.5573C74.0652 53.0115 74.123 53.4968 74.123 54.4519L74.1319 54.4564ZM73.5117 50.4645C73.4316 50.2619 73.3961 49.9436 73.2182 49.7833C73.1191 49.7089 73.0035 49.6593 72.8813 49.6388C72.7591 49.6182 72.6338 49.6273 72.5158 49.6653C71.9067 50.0015 71.9089 51.0256 72.4758 51.3974C72.7136 51.5532 73.2805 51.3974 73.3649 51.1347C73.4245 50.9128 73.4705 50.6875 73.5028 50.4601L73.5117 50.4645ZM72.2312 53.3588C72.2668 53.6393 72.2312 53.8798 72.3335 54.0267C72.4602 54.2226 72.7069 54.4831 72.8781 54.472C73.0893 54.4519 73.425 54.1937 73.445 54.0089C73.4841 53.5411 73.4496 53.07 73.3427 52.613C73.3183 52.4883 73.0226 52.3414 72.8537 52.3436C72.7575 52.352 72.6646 52.3825 72.5821 52.4327C72.4996 52.4829 72.4298 52.5514 72.3779 52.633C72.2923 52.8664 72.2399 53.1107 72.2223 53.3588H72.2312ZM65.5445 60.3629C65.589 59.7551 65.3222 59.4523 64.7442 59.4478C64.1263 59.4478 63.8262 59.6705 63.7328 60.2115C63.6394 60.7525 63.9551 61.0909 64.5464 61.102C65.1888 61.1154 65.4956 60.8927 65.5356 60.3629H65.5445ZM70.7907 60.4141C71.4865 60.4141 71.78 60.0467 71.7844 59.4167C71.7844 58.9603 71.5621 58.682 71.2087 58.7131C71.0858 58.7143 70.9646 58.7422 70.8535 58.7948C70.7424 58.8474 70.6441 58.9236 70.5653 59.018C70.4864 59.1124 70.429 59.2228 70.3969 59.3416C70.3648 59.4604 70.3589 59.5848 70.3795 59.7061C70.4106 59.9822 70.6685 60.2248 70.7818 60.4141H70.7907ZM75.4946 58.9336C75.5019 58.832 75.4867 58.73 75.45 58.635C75.4132 58.5401 75.3559 58.4544 75.2821 58.3844C75.2083 58.3143 75.1199 58.2615 75.0232 58.2298C74.9266 58.1981 74.8241 58.1883 74.7232 58.2011C74.2919 58.2367 74.0718 58.5172 74.0563 59.0493C74.0452 59.5458 74.3386 59.8308 74.7988 59.764C74.8985 59.7551 74.9954 59.7264 75.084 59.6798C75.1726 59.6331 75.2511 59.5693 75.315 59.4921C75.3789 59.4149 75.4268 59.3258 75.4561 59.2299C75.4854 59.1341 75.4955 59.0333 75.4857 58.9336H75.4946ZM62.299 61.3825C62.5568 61.3002 62.7191 61.2979 62.7991 61.2156C63.1659 60.8371 63.1392 60.0556 62.748 59.7328C62.6916 59.6965 62.6286 59.6717 62.5626 59.6599C62.4966 59.648 62.4289 59.6494 62.3634 59.6638C61.8433 59.7796 61.7521 60.2093 61.8388 60.6211C61.8877 60.9083 62.1411 61.1532 62.2901 61.3848L62.299 61.3825ZM77.0417 52.4326C77.0573 52.6553 77.0417 52.7376 77.0729 52.7799C77.2307 52.9692 77.4063 53.1428 77.5753 53.3232C77.7375 53.1228 78.0199 52.9358 78.0376 52.7198C78.0407 52.3811 77.9765 52.045 77.8487 51.7313C77.822 51.6445 77.6264 51.5599 77.5152 51.5688C77.4503 51.5776 77.3882 51.6012 77.3339 51.6379C77.2795 51.6746 77.2343 51.7233 77.2018 51.7803C77.1309 51.993 77.0773 52.2112 77.0417 52.4326ZM67.6875 60.089C67.7075 59.5703 67.434 59.1985 67.0472 59.2542C66.5648 59.3143 66.3626 59.6282 66.347 60.0913C66.327 60.5877 66.6026 60.9395 67.0028 60.9239C67.4029 60.9083 67.6674 60.5989 67.6875 60.0846V60.089ZM74.6098 49.3714C74.4853 49.4115 74.3119 49.4115 74.243 49.4961C73.9274 49.879 73.9096 50.676 74.2653 51.0033C74.3764 51.1057 74.8366 51.03 74.9499 50.8876C75.1026 50.6985 75.1859 50.4628 75.1859 50.2196C75.1859 49.9765 75.1026 49.7408 74.9499 49.5517C74.8899 49.4582 74.7276 49.4271 74.6098 49.367V49.3714ZM74.1052 48.2582C74.8277 48.3606 75.0233 47.9599 75.0522 47.4389C75.07 47.1005 74.9966 46.7243 74.5631 46.6953C74.4794 46.6824 74.3938 46.6894 74.3133 46.7158C74.2328 46.7423 74.1597 46.7874 74.0998 46.8475C74.04 46.9076 73.9953 46.981 73.9692 47.0617C73.943 47.1425 73.9363 47.2282 73.9496 47.312C73.9822 47.631 74.0342 47.9478 74.1052 48.2605V48.2582ZM75.4812 20.8185C74.592 21.3106 74.0474 21.7091 73.8629 22.5128C75.2611 22.5462 75.2611 22.5462 75.4812 20.8185ZM69.7748 59.5569C69.6504 59.4345 69.4703 59.1117 69.2213 59.0426C68.75 58.9113 68.361 59.3499 68.3677 59.9087C68.3528 60.078 68.4029 60.2467 68.5078 60.3803C68.6127 60.5139 68.7645 60.6024 68.9323 60.6278C69.4258 60.7213 69.7571 60.3606 69.7748 59.5569ZM73.5672 58.4794C72.3735 58.7666 72.2334 58.9425 72.438 59.7328C72.473 59.8218 72.5285 59.9012 72.6 59.9647C72.6714 60.0281 72.7568 60.0738 72.8492 60.0979C73.0159 60.1224 73.3294 60.0022 73.3649 59.8753C73.4666 59.4179 73.5342 58.9535 73.5672 58.4861V58.4794ZM78.191 55.3113C78.0443 55.0686 77.9398 54.728 77.7086 54.5521C77.4774 54.3762 77.0951 54.8905 77.1618 55.4426C77.2062 55.7099 77.298 55.967 77.433 56.2018C77.473 56.2731 77.6709 56.2731 77.7976 56.282C77.8294 56.2801 77.8604 56.2707 77.8878 56.2544C77.9153 56.2381 77.9384 56.2155 77.9554 56.1885C78.0399 55.9235 78.1021 55.6608 78.191 55.3113ZM61.4164 60.6879C61.1541 60.3651 61.0074 60.0623 60.7651 59.9176C60.5228 59.7729 60.1582 60.0734 60.116 60.4653C60.0626 60.9729 60.3383 61.456 60.6584 61.3558C60.9185 61.269 61.1097 60.9729 61.4187 60.6879H61.4164ZM79.3603 46.4638C79.138 46.1989 78.998 45.9362 78.7912 45.8427C78.4956 45.7091 78.1644 46.2211 78.2822 46.7198C78.3288 46.9202 78.5934 47.0694 78.7579 47.243L79.3603 46.4638ZM77.0573 50.4445C77.3463 50.3644 77.6709 50.3465 77.6931 50.2553C77.7866 49.8648 77.8218 49.4627 77.7976 49.0619C77.7976 48.9417 77.493 48.7391 77.353 48.7569C77.2607 48.7863 77.1774 48.8387 77.1109 48.9092C77.0444 48.9797 76.9969 49.066 76.9728 49.1599C76.9709 49.5896 76.9999 50.0189 77.0595 50.4445H77.0573ZM40.7094 10.5395C40.6986 10.3274 40.6696 10.1166 40.6227 9.90944C40.5871 9.80257 40.4404 9.6445 40.3693 9.65563C40.187 9.68903 39.8869 9.78699 39.8713 9.89163C39.8291 10.2789 39.8336 10.6698 39.8847 11.056C39.8847 11.1406 40.087 11.2542 40.2003 11.2608C40.2654 11.2595 40.3294 11.2438 40.3878 11.215C40.4462 11.1861 40.4976 11.1448 40.5382 11.0939C40.6165 10.9163 40.674 10.7303 40.7094 10.5395ZM15.6987 17.2786C15.4764 16.2901 15.4764 16.2901 14.8095 16.023C14.7695 16.6798 14.8717 17.1807 15.6987 17.2786ZM76.0147 50.8742C76.5016 50.095 76.5282 49.6809 75.9102 49.2467C75.8392 49.445 75.7936 49.6514 75.7747 49.8612C75.8297 50.2043 75.9099 50.5429 76.0147 50.8742ZM77.6086 59.036C77.6753 59.036 77.7553 59.036 77.8064 59.007C78.2288 58.7287 78.2666 57.8939 77.8576 57.6245C77.8004 57.6024 77.7385 57.5953 77.6778 57.6039C77.6172 57.6125 77.5597 57.6364 77.5108 57.6734C77.3564 57.8474 77.266 58.069 77.2546 58.3014C77.2433 58.5339 77.3117 58.7632 77.4486 58.9514C77.4819 58.9825 77.5553 58.9959 77.6086 59.0248V59.036ZM55.49 39.0256C55.49 38.9855 55.49 38.9477 55.49 38.9076H53.7383V39.1035L55.49 39.0256ZM78.7757 49.8946C78.8979 49.8545 79.0713 49.8568 79.1313 49.7721C79.2641 49.6131 79.3311 49.4092 79.3187 49.2023C79.3064 48.9954 79.2155 48.801 79.0647 48.659C79.0354 48.6398 79.0021 48.6277 78.9673 48.6239C78.9325 48.62 78.8973 48.6244 78.8646 48.6367C78.4822 48.8393 78.5467 49.1911 78.6045 49.5273C78.6453 49.6566 78.7029 49.7801 78.7757 49.8946ZM65.7179 15.3595C66.6671 15.0478 66.6671 15.0478 66.8005 14.3554L65.7179 15.3595ZM56.2769 36.9551L56.2325 36.7124L55.0876 36.8326L55.101 36.9551H56.2769ZM76.1903 58.0875V59.2875C76.5527 58.9313 76.7839 58.5729 76.1903 58.0875ZM76.2037 56.4089H76.4126C76.4813 56.2318 76.5247 56.0459 76.5416 55.8568C76.5086 55.6552 76.4488 55.459 76.3637 55.2735L76.1414 55.3269C76.1592 55.6898 76.1903 56.0504 76.2059 56.4089H76.2037ZM76.4038 52.1165C75.8814 52.6196 76.0592 52.9781 76.4638 53.3232C76.4482 52.9558 76.4282 52.5907 76.4126 52.1165H76.4038ZM79.0713 58.2078L78.8179 57.7959C78.7283 57.8826 78.676 58.001 78.6723 58.1258C78.6685 58.2505 78.7136 58.3718 78.7979 58.4638L79.0713 58.2078ZM50.8484 37.2334L50.6506 37.2734C50.6906 37.3068 50.7284 37.3625 50.7684 37.3647C50.8359 37.363 50.9028 37.3502 50.9662 37.3269L50.8484 37.2334ZM23.7436 36.8772C23.7125 36.8415 23.6792 36.7725 23.6481 36.7747C23.5322 36.7868 23.4172 36.8054 23.3035 36.8304C23.3368 36.8616 23.3724 36.9217 23.4057 36.9217C23.5169 36.9172 23.6303 36.8927 23.7414 36.8772H23.7436ZM25.2353 36.3874C25.3731 36.4742 25.4576 36.5543 25.482 36.5387C25.6155 36.4742 25.7441 36.3998 25.8666 36.3161L25.2353 36.3874ZM42.9568 9.37734C42.9568 9.56435 42.9568 9.74246 42.9568 9.92057C42.9568 9.92057 43.0302 9.9406 43.0702 9.94951C43.0858 9.7714 43.1013 9.59107 43.1102 9.41296C43.0595 9.39644 43.0074 9.38452 42.9546 9.37734H42.9568ZM63.2415 19.8634L63.0525 20.1773C63.1348 20.2263 63.2615 20.3354 63.2904 20.3154C63.3779 20.23 63.4528 20.1326 63.5127 20.026L63.2415 19.8634ZM57.9064 12.3362L57.9219 12.2204L57.8174 12.2471L57.9064 12.3362ZM70.9308 32.2041H70.6551C70.7018 32.2286 70.7507 32.2731 70.7974 32.2731C70.8441 32.2731 70.8974 32.2263 70.9375 32.2041H70.9308ZM77.0795 29.7439H77.2507C77.2216 29.6793 77.1843 29.6186 77.1396 29.5636C77.1262 29.5636 77.0462 29.6104 76.9973 29.6349L77.0795 29.7439ZM63.6305 17.1206V17.2964L63.8528 17.1584C63.8239 17.1161 63.7928 17.0404 63.7639 17.0404C63.735 17.0404 63.6683 17.0939 63.6239 17.1206H63.6305ZM14.7406 35.1829L14.6005 35.1005L14.5783 35.2274L14.7406 35.1829Z" fill="#333333"/>
<path d="M4.41923 57.4153C4.41923 57.6156 4.48147 57.8472 4.40145 58.0075C4.33331 58.055 4.25533 58.0865 4.17335 58.0996C4.09136 58.1127 4.00747 58.1071 3.92795 58.0832C3.77689 57.8588 3.68441 57.6001 3.65897 57.3307C3.61896 56.144 3.63674 54.9529 3.59895 53.7685C3.56645 53.1966 3.65302 52.6242 3.85317 52.0877C4.05331 51.5511 4.36266 51.0621 4.76157 50.6516C4.82826 51.9629 4.86383 53.1986 4.95941 54.4364C5.05056 55.6008 5.20616 56.7607 5.35288 58.0898C4.92829 57.8093 4.66376 57.6446 4.40145 57.4576C4.38589 55.8657 4.50593 54.2717 4.21249 52.6932C4.25028 54.2628 3.98353 55.8546 4.41923 57.4153Z" fill="#333333"/>
<path d="M6.41781 50.2419C6.41781 53.6816 7.24031 57.0657 7.46039 60.5009C6.46005 58.7978 6.05324 54.659 6.41781 50.2419Z" fill="#333333"/>
<path d="M13.3556 63.8761L11.7817 63.1013V57.0011H11.8929C12.024 58.141 12.1263 59.2853 12.2952 60.4208C12.4286 61.3247 12.6509 62.2018 13.4912 62.7785C13.8913 63.0456 13.878 63.4775 13.3556 63.8761Z" fill="#333333"/>
<path d="M9.76999 54.2538C10.1227 57.0738 10.4739 59.8938 10.8237 62.7139C10.8237 62.7651 10.7459 62.8274 10.6147 63.0033C10.4213 62.7139 10.1434 62.4823 10.1034 62.2152C9.70774 59.5725 9.50101 56.9254 9.76999 54.2538Z" fill="#333333"/>
<path d="M7.78711 52.771C7.92049 53.007 8.14056 53.2297 8.17835 53.479C8.52514 55.7432 8.84525 58.0096 9.15646 60.2783C9.15752 60.4944 9.13138 60.7098 9.07866 60.9194C8.49179 60.0022 8.46956 60.0022 8.36286 58.9558C8.14723 56.8853 7.72264 54.8349 7.81156 52.7399L7.78711 52.771Z" fill="#333333"/>
<path d="M46.2867 66.8816C49.0994 66.8816 51.3795 66.8397 51.3795 66.7881C51.3795 66.7364 49.0994 66.6946 46.2867 66.6946C43.474 66.6946 41.1938 66.7364 41.1938 66.7881C41.1938 66.8397 43.474 66.8816 46.2867 66.8816Z" fill="#333333"/>
<path d="M7.25122 40.9291C7.11118 39.7937 6.9489 38.656 7.19565 37.5139C7.46685 38.6493 7.32236 39.7892 7.25122 40.9291Z" fill="#333333"/>
<path d="M7.81154 52.7399C7.42919 51.5844 7.63148 50.3978 7.61592 49.2223C7.83299 50.3913 7.89057 51.5844 7.78709 52.7688L7.81154 52.7399Z" fill="#333333"/>
<path d="M58.4911 51.0457C57.493 51.2238 56.4905 51.364 55.479 51.0635H58.5223L58.4911 51.0457Z" fill="#333333"/>
<path d="M55.112 53.6884H56.2479C56.2479 53.7106 56.2479 53.7351 56.2479 53.7596H55.0542L55.112 53.6884Z" fill="#333333"/>
<path d="M64.7685 45.9495C64.2328 46.3457 63.6571 46.2344 63.0591 45.9784H64.7974C64.7884 45.9682 64.7787 45.9586 64.7685 45.9495Z" fill="#333333"/>
<path d="M6.08232 46.2278C6.11862 46.3464 6.14027 46.469 6.14678 46.5929C6.09868 46.8209 6.031 47.0444 5.94449 47.2608C5.89336 46.7064 5.86891 46.4526 5.84668 46.201L6.08232 46.2278Z" fill="#333333"/>
<path d="M42.7036 62.5491L42.9015 62.5447L42.8748 62.607L42.7036 62.5491Z" fill="#333333"/>
<path d="M58.8645 48.1781L58.9623 48.236L58.6978 48.2048L58.8645 48.1781Z" fill="#333333"/>
<path d="M64.9131 44.8096C64.8998 44.8497 64.8864 44.9254 64.8731 44.9254C64.7597 44.9254 64.6508 44.9076 64.5308 44.8965C64.5441 44.8564 64.5597 44.7784 64.573 44.7784C64.6864 44.7807 64.7997 44.7985 64.9131 44.8096Z" fill="#333333"/>
<path d="M59.6159 67.3669L59.5492 67.6586C59.5492 67.6141 59.5203 67.5629 59.5359 67.5295C59.5681 67.4799 59.607 67.4349 59.6515 67.3959L59.6159 67.3669Z" fill="#333333"/>
<path d="M65.4998 66.9261C65.4843 67.0241 65.4687 67.1221 65.451 67.2178C65.4454 67.1802 65.4454 67.1419 65.451 67.1043C65.4753 67.0536 65.5028 67.0046 65.5332 66.9573L65.4998 66.9261Z" fill="#333333"/>
<path d="M54.6654 29.1785C54.4943 29.3099 54.3609 29.4902 54.2008 29.5214C53.3761 29.6817 52.5492 29.8442 51.7178 29.931C47.8161 30.3112 43.8935 30.4302 39.976 30.2872C36.4793 30.1759 32.9825 30.029 29.4925 29.7863C27.1917 29.626 24.9042 29.272 22.6012 28.9937C22.1855 28.9425 21.7765 28.8401 21.3653 28.7488C20.9207 28.6531 20.5805 28.4282 20.5983 27.9162C20.6117 27.5199 21.0251 27.2483 21.5253 27.2839C21.9439 27.3139 22.3599 27.3734 22.7702 27.462C25.9868 28.2234 29.2635 28.4616 32.5513 28.6041C36.1858 28.7622 39.8249 28.9269 43.4616 28.9537C46.5382 28.9781 49.6148 28.8201 52.6892 28.731C53.6562 28.6932 53.6562 28.6642 54.6654 29.1785Z" fill="#333333"/>
<path d="M49.021 32.6048C52.4977 32.2463 55.7922 32.1172 59.0844 31.4716C58.8999 31.6096 58.731 31.8278 58.5242 31.8723C55.5966 32.5179 52.64 32.9231 49.6323 32.8319C49.4209 32.7787 49.2159 32.7026 49.021 32.6048Z" fill="#333333"/>
<path d="M68.532 29.0716C68.8531 28.8423 69.1973 28.6476 69.5591 28.4905C71.004 28.0207 72.4623 27.5999 73.9183 27.1547C74.1116 27.1289 74.3074 27.1289 74.5007 27.1547C74.5007 27.3417 74.5229 27.5443 74.4696 27.571C72.5867 28.4816 70.635 29.1295 68.5054 29.0337L68.532 29.0716Z" fill="#333333"/>
<path d="M50.7905 27.5666C53.2664 27.3365 55.7577 27.3268 58.2353 27.5376C55.7604 27.7866 53.2673 27.7963 50.7905 27.5666Z" fill="#333333"/>
<path d="M72.4291 29.666C72.278 29.7862 72.1446 29.971 71.9734 30.02C70.6396 30.394 69.3059 30.7502 67.9721 31.0886C67.8165 31.1287 67.6231 31.0174 67.2207 30.9216C68.9724 30.089 70.673 29.8842 72.2535 29.2764C72.3158 29.4077 72.3713 29.5368 72.4291 29.666Z" fill="#333333"/>
<path d="M67.2051 29.4323C67.0095 29.6994 66.8117 29.9487 66.376 29.548L67.234 29.4679L67.2051 29.4323Z" fill="#333333"/>
<path d="M68.5055 29.036C68.1876 29.5459 67.7075 29.5258 67.2051 29.4345L67.234 29.4679C67.5452 28.938 68.0409 29.0115 68.5322 29.0716L68.5055 29.036Z" fill="#333333"/>
<path d="M48.3077 27.5243V27.6356L48.1743 27.5822L48.3077 27.5243Z" fill="#333333"/>
<path d="M54.0229 14.2864C55.6791 14.5535 56.7572 15.2749 57.3885 16.4927C58.0199 17.7105 57.6998 18.9751 56.8861 20.0415C56.2659 20.8563 55.5679 21.6333 54.4853 21.8537C54.1274 21.2459 54.5098 20.9632 54.8254 20.7405C55.5927 20.2355 56.1407 19.4585 56.3593 18.5654C56.6438 17.4122 56.4038 16.7843 55.4368 16.0274C54.921 15.6244 54.1497 15.4329 54.0229 14.2864Z" fill="#333333"/>
<path d="M26.5736 15.206C26.2646 16.1499 26.0001 16.9536 25.6844 17.8998C25.3532 17.6972 25.0175 17.6082 24.9531 17.4256C24.8219 17.0605 24.7019 16.593 24.8219 16.2568C25.0165 15.8307 25.3127 15.4592 25.6844 15.1748C25.8311 15.0568 26.1735 15.1837 26.5736 15.206Z" fill="#333333"/>
<path d="M73.2295 35.5392C71.5311 36.1581 70.5619 36.2806 68.6523 36.1247C70.0808 35.4598 71.68 35.2552 73.2295 35.5392Z" fill="#333333"/>
<path d="M44.5262 39.4731H43.1924V39.3373H44.4461L44.5262 39.4731Z" fill="#333333"/>
<path d="M29.788 38.7539C29.5621 38.9034 29.3187 39.0245 29.0633 39.1146C28.5645 39.2305 28.0516 39.2732 27.5405 39.2415C27.8621 39.0041 28.2323 38.841 28.6243 38.764C29.0164 38.687 29.4207 38.698 29.808 38.7962L29.788 38.7539Z" fill="#333333"/>
</g>
<defs>
<clipPath id="clip0_105_122">
<rect width="85" height="72" fill="white"/>
</clipPath>
</defs>
</svg>
