<svg width="108" height="65" viewBox="0 0 108 65" fill="none" xmlns="http://www.w3.org/2000/svg">
<g clip-path="url(#clip0_108_258)">
<path fill-rule="evenodd" clip-rule="evenodd" d="M49.0034 63.8294C51.1044 62.8408 54.1431 61.0941 59.1732 58.668C64.2032 56.242 71.2063 53.1245 78.66 49.5703C86.1138 46.0161 93.939 42.0374 98.8107 39.581C103.682 37.1247 105.552 36.1967 106.642 34.8139C107.468 33.5421 107.938 32.0735 108.002 30.5602C108.066 29.0469 107.723 27.5441 107.007 26.2074C106.368 25.1218 105.448 24.1756 103.536 23.1324C101.624 22.0892 98.7376 20.8883 95.4675 19.4327C92.1973 17.977 88.5192 16.2121 84.8654 14.2227C81.2116 12.2334 77.6735 9.97713 74.513 7.88466C71.3525 5.79219 68.539 3.79677 66.8218 2.51096C65.771 1.73758 64.7703 0.898922 63.8256 0C57.5046 2.51096 51.1774 5.02192 44.4545 6.9567C37.9646 8.74501 31.3873 10.2025 24.7483 11.3236C18.9023 12.3668 14.329 13.0886 10.7909 13.6829C7.25278 14.2773 4.75602 14.7383 2.26535 15.2053C1.63493 17.3487 1.12464 19.5254 0.736847 21.7253C0.43623 23.8957 0.247204 26.08 0.17051 28.2696C0.0852544 30.0891 0.0426276 31.1748 0 32.309C2.04003 34.9473 4.0618 37.5977 6.8265 40.6182C9.9293 43.9959 13.2123 47.205 16.6613 50.2314C20.099 53.3264 23.7855 56.1358 27.6836 58.6316C30.8277 60.5558 34.1621 62.1533 37.6341 63.3988C39.7216 64.2122 41.9088 64.7446 44.1378 64.9818C45.7516 65.091 46.8964 64.8362 49.0095 63.8355L49.0034 63.8294ZM2.08266 26.5653C2.88649 27.4993 3.76341 28.5 4.98134 29.798C6.62554 31.5326 8.86044 33.7949 10.8883 35.6266C13.0821 37.5817 15.3748 39.4238 17.7574 41.1459C20.8023 43.4021 25.065 46.5074 28.8284 48.9153C31.8269 50.8762 34.9538 52.6349 38.1882 54.1798C39.7318 54.9383 41.3448 55.5476 43.0051 55.9993C44.0769 56.2783 44.832 56.4239 45.5628 56.5513C43.3895 55.716 41.2632 54.7644 39.193 53.7007C36.544 52.3299 33.1034 50.3284 29.9733 48.3694C26.8432 46.4104 23.9689 44.4756 21.1494 42.4438C18.3299 40.412 15.5469 38.277 13.2328 36.3301C10.9187 34.3832 8.97006 32.594 7.34412 30.9443C5.71818 29.2946 4.34192 27.7662 3.40412 26.6987C2.91086 26.1225 2.52721 25.6676 2.18619 25.2734C2.18619 25.0369 2.24099 24.7943 2.25926 24.5516C2.31407 24.1453 2.3567 23.7632 2.4115 23.3993C3.02047 24.2727 3.74514 25.2188 4.62205 26.3469C5.83998 27.8814 7.38066 29.7919 8.98224 31.4962C10.6225 33.2515 12.3738 34.9006 14.2254 36.4332C16.2898 38.18 18.7988 40.1572 20.924 41.6917C22.8799 43.1011 24.9129 44.401 27.0137 45.5855C29.2364 46.841 31.8854 48.2542 34.3213 49.4975C36.7571 50.7409 38.9677 51.8083 40.825 52.7242C42.2942 53.3942 43.7057 54.1833 45.0452 55.0835C45.9464 55.7628 46.2631 56.339 46.2631 56.8303C46.2631 57.3215 45.8246 57.6915 44.9477 57.7946C44.0708 57.8977 42.725 57.7218 40.5875 56.9455C37.7052 55.8085 34.9245 54.4308 32.2752 52.8273C28.7364 50.7106 25.3207 48.396 22.0445 45.8948C18.7196 43.3657 15.7174 40.7577 13.0258 38.3619C10.3341 35.9662 7.95918 33.7161 6.08965 31.8116C4.48198 30.1255 3.22752 28.7123 2.04612 27.3173C2.04612 27.0626 2.04612 26.8079 2.08875 26.5653H2.08266ZM20.6135 47.7447C23.3355 49.8796 26.1794 51.9357 29.0964 53.8402C31.7811 55.611 34.5826 57.1996 37.4818 58.5952C39.303 59.4946 41.2487 60.1181 43.2548 60.4451C44.4037 60.6339 45.5817 60.536 46.6833 60.16C47.4683 59.8351 48.1992 59.3933 48.8512 58.8499C48.6555 59.3786 48.3622 59.8661 47.9865 60.2874C47.4766 60.7597 46.8435 61.0792 46.1596 61.2093C44.963 61.5043 43.7164 61.5375 42.5058 61.3063C40.2259 60.9048 38.0114 60.1968 35.9229 59.2017C33.0122 57.8232 30.2181 56.2127 27.5679 54.386C24.791 52.5119 22.2151 50.4922 20.0228 48.8C17.7917 47.1402 15.6531 45.3604 13.6165 43.4688C11.1806 41.1883 8.13578 37.9799 5.96786 35.669C4.10443 33.6372 2.92303 32.2847 1.89388 30.9989V31.66C4.09225 34.3711 6.28452 37.0822 9.32935 40.2846C12.6952 43.8241 16.2399 47.1906 19.9497 50.3709C23.2667 53.2829 26.8556 55.8724 30.6675 58.104C33.7697 59.8855 37.0923 61.2556 40.551 62.1797C43.267 62.859 45.0817 62.7862 46.5371 62.3071C47.2229 62.117 47.8586 61.7796 48.3994 61.3186C48.9402 60.8575 49.3729 60.284 49.6672 59.6384C49.9677 58.9075 50.0949 58.1173 50.0389 57.3295C49.9829 56.5416 49.7453 55.7772 49.3445 55.0956C48.4371 53.5187 46.6407 52.0085 43.3705 50.468C40.1004 48.9274 35.3687 47.3383 30.9354 45.1792C26.5531 43.0219 22.4305 40.3768 18.6465 37.2945C15.1621 34.4954 11.9397 31.3874 9.01877 28.0088C6.87518 25.4235 4.9253 22.6848 3.18489 19.8148C3.02656 20.4213 2.86214 21.0278 2.71598 21.7314C4.37237 24.0058 6.04703 26.262 7.87392 28.4333C10.0222 30.9771 12.3482 33.3666 14.8344 35.5841C17.4905 37.9883 20.3421 40.1692 23.3599 42.1041C26.8685 44.326 30.4884 46.3686 34.2056 48.2238C37.5914 49.9221 40.2952 51.0927 42.3901 52.1055C44.4849 53.1184 45.983 53.9675 46.866 54.944C47.749 55.9205 47.9986 57.0183 47.5724 57.8613C47.1461 58.7044 46.0439 59.317 44.357 59.2745C42.6702 59.2321 40.3805 58.5528 37.153 57.0304C33.1704 55.0902 29.3447 52.8455 25.7105 50.3163C21.7415 47.5291 17.9392 44.5136 14.3229 41.2853C10.9553 38.3195 8.1784 35.6266 6.19927 33.5644C4.22013 31.5023 3.02656 30.083 2.33234 29.2764C2.17401 29.0823 2.04612 28.9367 1.93651 28.8094C1.93651 29.1611 1.93651 29.5432 1.89388 29.9132C2.54548 30.7563 3.2397 31.6357 4.15923 32.6911C5.21883 33.9465 6.59509 35.4568 8.06879 36.9366C9.54249 38.4165 11.1136 39.8479 13.178 41.6493C15.2424 43.4506 17.8792 45.628 20.5952 47.7447H20.6135ZM52.4197 59.1472C60.5738 55.3928 68.7278 51.6385 76.5348 48.0116C84.3417 44.3846 91.7589 40.9032 96.4845 38.6167C101.21 36.3301 103.226 35.2748 104.401 34.0618C104.928 33.5252 105.332 32.8816 105.587 32.1751C105.841 31.4685 105.939 30.7156 105.875 29.9678C105.826 28.3093 105.147 26.7311 103.975 25.5524C102.629 24.2241 100.449 23.1809 98.0678 22.2105C95.6867 21.2401 93.1412 20.3182 89.9868 18.8201C86.4673 17.1222 83.0364 15.2477 79.7075 13.2038C76.3521 11.172 73.4169 9.2008 70.7557 7.3388C68.0945 5.47681 65.7317 3.69972 63.3507 1.9469C60.3911 3.06289 57.4498 4.17887 53.7351 5.43435C50.0204 6.68983 45.5689 8.09695 40.7824 9.35243C35.9959 10.6079 30.8989 11.736 25.7714 12.7125C20.6439 13.689 15.5043 14.4896 11.7652 15.0961C8.02616 15.7026 5.76081 16.0726 3.4711 16.4486C4.61715 18.8134 5.97453 21.0706 7.52681 23.1931C9.79607 26.2617 12.3068 29.1457 15.0354 31.8177C17.5918 34.3244 20.3788 36.5865 23.3599 38.5742C26.26 40.539 29.3148 42.2671 32.4944 43.7417C35.6915 45.2216 39.0469 46.4346 42.0491 47.7205C45.0513 49.0063 47.682 50.3406 49.4114 51.7659C50.7928 52.8212 51.8118 54.2768 52.3284 55.9326C52.5938 56.9841 52.6333 58.0795 52.4441 59.1472H52.4197Z" fill="#333333"/>
<path fill-rule="evenodd" clip-rule="evenodd" d="M25.7959 31.9026C27.3914 31.2112 28.993 30.5016 30.8625 29.7738C32.732 29.046 34.8878 28.2635 36.4284 27.7965C37.551 27.453 38.6967 27.1895 39.8569 27.0081C40.9713 27.8632 42.104 28.7124 43.2123 29.4341C44.3206 30.1559 45.3924 30.8352 46.4094 31.4538C47.4264 32.0725 48.3763 32.6668 49.3263 33.2733C47.8709 34.0921 46.3972 34.8927 44.7286 35.6569C43.0601 36.4211 41.1723 37.0944 39.6255 37.7009C38.0787 38.3074 36.9217 38.829 35.7342 39.3506C33.9073 38.2528 32.0804 37.149 30.6372 36.1482C29.4982 35.3705 28.4193 34.5089 27.4097 33.5705C26.6728 32.8791 26.2344 32.3575 25.7959 31.8905V31.9026Z" fill="#333333"/>
<path fill-rule="evenodd" clip-rule="evenodd" d="M28.7736 25.5646C29.7053 25.2006 30.6431 24.8489 31.5627 24.4789C29.2973 22.6593 27.0259 20.8398 24.7484 19.0203C25.1817 18.9093 25.5934 18.7269 25.9663 18.4805C26.1794 18.2985 26.0942 18.1044 25.9663 17.9467C25.8384 17.7891 25.5948 17.6677 25.0833 17.7041C24.4242 17.8122 23.7762 17.9787 23.1468 18.2015C22.5378 18.4138 22.0689 18.5957 21.6183 18.808C22.3353 19.0441 23.0268 19.351 23.6827 19.7238C24.3923 20.177 25.0643 20.6861 25.6923 21.2462C26.3012 21.8102 26.9102 22.3743 27.5191 22.9262C25.9602 22.532 24.4195 22.1378 22.8058 21.7132C21.192 21.2886 19.5478 20.9247 18.4577 20.67C17.7715 20.4626 17.0613 20.3444 16.3446 20.3182C15.8824 20.3715 15.4331 20.5049 15.0171 20.7124C16.7587 22.2833 18.5125 23.8481 19.633 24.8792C20.7535 25.9103 21.2468 26.4015 21.7401 26.8928C21.4866 27.1403 21.2562 27.4103 21.0519 27.6995C20.884 27.9811 20.7472 28.2801 20.6439 28.591C21.3411 28.4323 22.0235 28.2152 22.684 27.9421C23.4438 27.5967 24.182 27.2058 24.8945 26.7715C23.6339 25.6677 22.3551 24.582 21.0946 23.4963L28.7736 25.5403V25.5646Z" fill="#333333"/>
<path fill-rule="evenodd" clip-rule="evenodd" d="M36.1482 23.9148C37.0434 23.5752 38.645 22.8716 39.6498 22.4167C40.6546 21.9619 41.0809 21.8102 41.4767 21.5858C41.388 21.1215 41.2057 20.68 40.9408 20.2879C40.5642 19.8179 40.1306 19.3962 39.6498 19.0324C39.7085 19.4584 39.733 19.8883 39.7229 20.3182C39.7287 20.4866 39.7005 20.6546 39.6398 20.8119C39.5791 20.9693 39.4873 21.1128 39.3697 21.234C38.9247 21.5644 38.4105 21.7904 37.8655 21.8951C37.7376 21.9255 37.6158 21.9558 37.488 21.9982L35.9716 20.3849C36.3921 20.2368 36.7994 20.0542 37.1896 19.8391C37.3304 19.7758 37.454 19.6801 37.5504 19.5599C37.6467 19.4397 37.713 19.2984 37.7437 19.1476C37.7685 19.0279 37.7526 18.9034 37.6986 18.7936C37.6446 18.6838 37.5555 18.595 37.4453 18.5411C37.0939 18.4098 36.7155 18.3661 36.3431 18.4138C36.0521 18.4423 35.7732 18.5446 35.5332 18.7109C35.3797 18.8426 35.2464 18.9958 35.1374 19.1658C35.0826 19.2204 35.0399 19.2932 34.979 19.3478L32.4214 16.6549L32.531 16.6124C33.1268 16.3728 33.7369 16.1703 34.3579 16.0059C34.8202 15.861 35.318 15.876 35.7707 16.0484C36.3338 16.3046 36.8703 16.6154 37.3723 16.9763C37.3739 16.5276 37.263 16.0856 37.0495 15.6905C36.7097 15.2661 36.2974 14.9048 35.8316 14.623C34.9242 14.8899 34.0047 15.1568 33.1095 15.3569C32.2143 15.5571 31.3252 15.7087 30.6736 15.8482C30.1812 15.9379 29.7009 16.0844 29.2426 16.2849C28.9564 16.4426 28.8285 16.5942 28.8894 16.7519C28.9575 16.8594 29.0465 16.9522 29.151 17.0251C29.2556 17.098 29.3736 17.1495 29.4983 17.1765C29.8285 17.3001 30.1848 17.3376 30.5336 17.2856L35.5454 22.4956L35.2043 22.623C34.5528 22.9201 34.4553 23.2719 34.4979 23.5388C34.5126 23.6524 34.5532 23.7612 34.6165 23.8569C34.6798 23.9525 34.7642 24.0325 34.8633 24.0907C35.0338 24.1999 35.2348 24.2302 36.1239 23.8906L36.1482 23.9148Z" fill="#333333"/>
<path fill-rule="evenodd" clip-rule="evenodd" d="M40.4109 13.8953L46.4397 18.2985C46.1413 18.438 46.0743 18.5836 46.0865 18.6928C46.0986 18.8019 46.257 18.9475 46.4701 19.0082C46.816 19.0682 47.1714 19.0432 47.5054 18.9354C48.0534 18.808 48.906 18.5533 49.4297 18.3956C49.7586 18.3226 50.0775 18.2106 50.3797 18.062C50.5624 17.9589 50.7146 17.8194 50.6902 17.692C50.6659 17.5647 50.5076 17.4797 50.1787 17.4555C49.9644 17.456 49.7506 17.4743 49.5393 17.5101C49.4419 16.9339 49.3323 16.3395 49.2166 15.6177L48.8634 13.6284C49.2693 13.8953 49.7504 14.2106 50.3066 14.5745C50.9582 14.9991 51.7194 15.4783 52.4989 15.9877L52.5598 16.4365L52.3162 16.6185C52.0482 16.8732 52.0604 17.0734 52.103 17.1826C52.1457 17.2917 52.2187 17.3827 52.645 17.2857C53.0713 17.1886 53.8203 16.9157 54.4719 16.6791L56.1405 16.1333C55.8932 15.9034 55.5844 15.7496 55.2514 15.6905C54.8443 15.6409 54.4316 15.6655 54.0335 15.7633L53.4671 10.3896C53.6072 10.3472 53.7351 10.3047 53.8386 10.2622C54.2466 10.0924 54.3745 9.93473 54.4171 9.75278C54.4451 9.67477 54.4446 9.58942 54.4157 9.51175C54.3867 9.43408 54.3311 9.36908 54.2588 9.32821C53.9759 9.27835 53.6851 9.2992 53.4123 9.38887C52.911 9.48912 52.415 9.61462 51.9264 9.7649C51.5306 9.91046 51.3601 10.05 51.287 10.2319C51.214 10.4139 51.2018 10.6868 51.3601 10.7838C51.5184 10.8809 51.6585 10.8384 51.9691 10.7838L52.3101 14.0287L47.5784 10.9961C47.4356 11.2666 47.3213 11.5512 47.2374 11.8452C47.2062 11.9666 47.2043 12.0937 47.2318 12.2159C47.2593 12.3382 47.3155 12.4523 47.3957 12.5488C47.4857 12.661 47.5901 12.761 47.7063 12.846C47.8037 13.6345 47.9194 14.4108 47.9621 15.0901C48.0169 15.8907 48.0169 16.5579 48.0047 17.2068C46.7868 16.3577 45.5688 15.4965 44.5458 14.7808C43.681 14.1743 42.9625 13.7254 42.2561 13.2705C42.3375 13.244 42.4169 13.2116 42.4936 13.1735C42.7798 13.0583 42.8894 12.9612 42.8894 12.8339C42.8894 12.7065 42.7798 12.567 42.4814 12.567C42.0105 12.6173 41.548 12.7273 41.1051 12.8945C40.4962 13.0765 39.8202 13.3312 39.4366 13.501C39.0529 13.6708 38.9555 13.7558 39.0225 13.871C39.1118 13.9599 39.2225 14.0244 39.3441 14.0584C39.4657 14.0924 39.594 14.0947 39.7167 14.0651C39.9602 14.0372 40.1994 13.9802 40.4292 13.8953H40.4109Z" fill="#333333"/>
<path fill-rule="evenodd" clip-rule="evenodd" d="M60.3485 7.64817C59.9436 7.60485 59.5353 7.60485 59.1305 7.64817C58.9467 7.67794 58.7717 7.74772 58.618 7.85255C58.4643 7.95739 58.3357 8.0947 58.2414 8.25469C58.1475 8.38864 58.0902 8.54468 58.0752 8.7074C58.0603 8.87013 58.0882 9.03393 58.1562 9.18265C58.2892 9.39622 58.4669 9.57878 58.677 9.71796C58.8872 9.85714 59.1249 9.94968 59.3741 9.9893C60.2098 10.1847 61.0584 10.3206 61.9135 10.3957C62.755 10.4529 63.5798 10.6582 64.3493 11.0022C64.6159 11.1425 64.8474 11.3407 65.0266 11.5822C65.2058 11.8237 65.3282 12.1022 65.3846 12.3972C65.4181 12.6488 65.3832 12.9047 65.2836 13.1383C65.184 13.372 65.0233 13.5747 64.8183 13.7254C64.2864 14.155 63.6606 14.4542 62.9914 14.5988C62.4696 14.7109 61.9405 14.7859 61.408 14.8232C61.4459 14.9033 61.4686 14.9897 61.475 15.078C61.4956 15.1797 61.4896 15.285 61.4576 15.3837C61.4256 15.4825 61.3687 15.5714 61.2923 15.642C61.207 15.7459 61.0922 15.8217 60.9629 15.8596C60.8336 15.8975 60.6959 15.8956 60.5677 15.8543C60.1135 15.655 59.7005 15.3732 59.3497 15.0234C59.0357 14.7427 58.7811 14.4025 58.6007 14.0226C58.4875 13.7498 58.464 13.4483 58.5337 13.1614C58.5841 12.9443 58.675 12.7385 58.8017 12.5549C58.9069 12.7171 59.0294 12.8676 59.1671 13.0037C59.3879 13.2339 59.6352 13.4375 59.9039 13.6102C60.0866 13.7376 60.2997 13.8649 60.5129 13.9923C60.8126 13.9702 61.1099 13.9235 61.402 13.8528C61.9395 13.7546 62.4513 13.5482 62.9061 13.2463C63.2471 12.9794 63.3019 12.6398 63.1619 12.4457C63.0218 12.2516 62.6625 12.0757 61.9439 11.9241C61.2254 11.7725 60.1901 11.5966 59.1731 11.3176C58.2524 11.1058 57.3909 10.6913 56.652 10.1045C56.421 9.90672 56.2496 9.64884 56.1571 9.35967C56.0647 9.07051 56.0547 8.76145 56.1283 8.46697C56.3014 7.93638 56.6435 7.47646 57.1027 7.1569C57.5281 6.88681 57.9921 6.68232 58.4789 6.55039C58.7815 6.46113 59.0784 6.35379 59.368 6.22893C59.3081 6.14096 59.2609 6.04499 59.2279 5.94387C59.1553 5.83288 59.1098 5.70651 59.095 5.57487C59.0802 5.44323 59.0965 5.30997 59.1427 5.18573C59.1555 5.12477 59.1893 5.07018 59.2382 5.03141C59.2871 4.99264 59.3481 4.97213 59.4106 4.97345C59.5263 4.97345 59.6238 5.08262 59.9039 5.36768C60.184 5.65274 60.659 6.13189 60.9818 6.50793C61.237 6.79334 61.4729 7.09523 61.6882 7.41162C61.8617 7.60285 61.9667 7.84604 61.9866 8.10306C61.9656 8.24621 61.9147 8.38336 61.8371 8.50562C61.7594 8.62787 61.6568 8.73249 61.5359 8.81267C61.249 9.03235 60.8925 9.14212 60.5311 9.12199C60.2023 9.09167 59.9892 8.87939 60.0074 8.66711C60.0257 8.45483 60.318 8.24861 60.3728 8.01814C60.4087 7.92858 60.4087 7.8287 60.3728 7.73915L60.3485 7.64817Z" fill="#333333"/>
<path fill-rule="evenodd" clip-rule="evenodd" d="M47.0366 46.6166C48.3824 45.7857 49.7161 44.9547 51.1045 44.1481C52.4929 43.3414 53.9179 42.5954 55.1663 41.9768C56.4147 41.3581 57.4621 40.8911 58.5095 40.412C57.5025 40.2777 56.4782 40.3626 55.5073 40.6606C53.9488 41.1917 52.4458 41.8722 51.0193 42.6924C49.9265 43.2467 48.9229 43.9601 48.0414 44.8092C47.5719 45.3317 47.2282 45.954 47.0366 46.6287V46.6166Z" fill="#333333"/>
<path fill-rule="evenodd" clip-rule="evenodd" d="M44.7285 44.5969C46.0621 43.766 47.3897 42.9351 48.7781 42.1284C50.1666 41.3217 51.6098 40.5757 52.846 39.9571C54.0822 39.3384 55.1357 38.8714 56.1831 38.3923C55.1839 38.2523 54.166 38.3288 53.1992 38.6167C51.6382 39.149 50.1347 39.8358 48.7112 40.6667C47.6254 41.2219 46.6247 41.9285 45.7394 42.7652C45.2719 43.2873 44.9322 43.9101 44.7468 44.5848L44.7285 44.5969Z" fill="#333333"/>
<path fill-rule="evenodd" clip-rule="evenodd" d="M41.7568 43.3717C43.0844 42.5408 44.418 41.7099 45.8065 40.9032C47.1949 40.0966 48.6381 39.3506 49.8682 38.7319C51.0984 38.1133 52.1641 37.6463 53.2115 37.1611C52.2039 37.033 51.1805 37.1198 50.2093 37.4158C48.6496 37.9439 47.1463 38.6245 45.7212 39.4476C44.6327 40.0008 43.6315 40.7099 42.7494 41.5522C42.282 42.0743 41.9422 42.697 41.7568 43.3717Z" fill="#333333"/>
<path fill-rule="evenodd" clip-rule="evenodd" d="M39.5342 41.9768C40.8617 41.1458 42.1954 40.3088 43.5838 39.5204C44.9722 38.7319 46.4033 37.9556 47.6456 37.3309C48.8879 36.7062 49.9414 36.2452 50.9888 35.7843C49.9829 35.6387 48.957 35.7195 47.9866 36.0208C46.428 36.5517 44.925 37.2321 43.4986 38.0526C42.4067 38.6054 41.4049 39.319 40.5268 40.1694C40.0546 40.6881 39.7142 41.3121 39.5342 41.9889V41.9768Z" fill="#333333"/>
<path fill-rule="evenodd" clip-rule="evenodd" d="M50.0083 47.9691C51.3419 47.1382 52.6756 46.2951 54.0579 45.5006C55.4403 44.706 56.8957 43.9479 58.1258 43.3292C59.3559 42.7106 60.4155 42.2436 61.469 41.7645C60.4629 41.6255 59.4385 41.7062 58.4668 42.001C56.9084 42.5321 55.4053 43.2126 53.9788 44.0328C52.8939 44.5998 51.892 45.312 51.0009 46.1495C50.5333 46.6715 50.1935 47.2943 50.0083 47.9691Z" fill="#333333"/>
<path fill-rule="evenodd" clip-rule="evenodd" d="M52.5903 49.3702C53.9544 48.5635 55.3124 47.775 56.713 47.0108C58.1136 46.2466 59.5873 45.5309 60.8479 44.9548C62.1084 44.3786 63.1559 43.9237 64.2155 43.4688C63.2143 43.3053 62.1894 43.3633 61.2133 43.6386C59.6403 44.1246 58.1188 44.7625 56.6704 45.5431C55.5619 46.0697 54.5362 46.7541 53.6255 47.5749C53.1357 48.0895 52.7766 48.7134 52.5781 49.3944L52.5903 49.3702Z" fill="#333333"/>
<path fill-rule="evenodd" clip-rule="evenodd" d="M54.5146 51.4262C55.903 50.6681 57.2732 49.9039 58.7043 49.2003C60.1353 48.4968 61.6212 47.8053 62.894 47.2534C64.1667 46.7015 65.2446 46.3072 66.3224 45.8827C65.3142 45.6865 64.2752 45.7114 63.2776 45.9555C61.6911 46.391 60.1512 46.9801 58.6799 47.7143C57.5596 48.2022 56.5189 48.8544 55.5925 49.6491C55.0935 50.1427 54.7162 50.7447 54.4902 51.408L54.5146 51.4262Z" fill="#333333"/>
<path fill-rule="evenodd" clip-rule="evenodd" d="M65.811 38.4226C67.1446 37.5856 68.4782 36.7547 69.8606 35.948C71.243 35.1414 72.6862 34.4014 73.9041 33.7646C75.1221 33.1278 76.1938 32.6789 77.2413 32.1998C76.2365 32.0698 75.2156 32.1524 74.2451 32.4424C72.6839 32.9764 71.1787 33.661 69.751 34.4863C68.6662 35.0431 67.6658 35.7496 66.7792 36.5849C66.3134 37.1081 65.9739 37.7305 65.7866 38.4044L65.811 38.4226Z" fill="#333333"/>
<path fill-rule="evenodd" clip-rule="evenodd" d="M63.4907 36.4029C64.8365 35.5719 66.1702 34.7349 67.5525 33.9344C68.9349 33.1338 70.372 32.3817 71.6204 31.763C72.8688 31.1444 73.9101 30.6713 74.9575 30.1922C73.9529 30.0586 72.9312 30.1413 71.9614 30.4348C70.3981 30.9637 68.8924 31.6485 67.4673 32.4787C66.3808 33.0353 65.3801 33.744 64.4955 34.5833C64.0281 35.1073 63.6847 35.7291 63.4907 36.4029Z" fill="#333333"/>
<path fill-rule="evenodd" clip-rule="evenodd" d="M60.5068 35.1717C61.8405 34.3408 63.168 33.5099 64.5565 32.7032C65.9449 31.8965 67.376 31.1505 68.6183 30.5319C69.8606 29.9133 70.9141 29.4462 71.9615 28.9671C70.9551 28.8375 69.9327 28.918 68.9593 29.2036C67.4014 29.7437 65.8986 30.4301 64.4712 31.2536C63.3854 31.8088 62.3848 32.5155 61.4995 33.3522C61.0343 33.8759 60.6949 34.4981 60.5068 35.1717Z" fill="#333333"/>
<path fill-rule="evenodd" clip-rule="evenodd" d="M58.2964 33.7646C59.6239 32.9337 60.9697 32.1028 62.346 31.2961C63.7223 30.4895 65.1777 29.7435 66.42 29.1248C67.6623 28.5062 68.7036 28.0391 69.751 27.56C68.748 27.426 67.7278 27.5108 66.761 27.8087C65.2013 28.3368 63.698 29.0174 62.2729 29.8405C61.1797 30.392 60.1743 31.1012 59.289 31.9451C58.8219 32.4665 58.484 33.0897 58.3025 33.7646H58.2964Z" fill="#333333"/>
<path fill-rule="evenodd" clip-rule="evenodd" d="M68.7705 39.7751C70.1163 38.9442 71.45 38.0951 72.8384 37.3066C74.2268 36.5181 75.6518 35.7539 76.9002 35.1353C78.1486 34.5166 79.196 34.0314 80.2434 33.5644C79.237 33.4214 78.2113 33.5043 77.2412 33.807C75.6826 34.3379 74.1795 35.0184 72.7531 35.8388C71.663 36.3973 70.6599 37.1103 69.7753 37.9556C69.3066 38.4787 68.9631 39.1008 68.7705 39.7751Z" fill="#333333"/>
<path fill-rule="evenodd" clip-rule="evenodd" d="M73.2949 43.2323C74.6712 42.4681 76.0535 41.7099 77.4846 40.9882C78.9157 40.2664 80.3894 39.6053 81.6621 39.0534C82.9348 38.5015 84.0127 38.0951 85.0906 37.6888C84.0968 37.4945 83.0725 37.5173 82.0884 37.7555C80.4993 38.1971 78.9574 38.7923 77.4846 39.5326C76.3624 40.024 75.3182 40.6757 74.385 41.4673C73.8876 41.9624 73.5142 42.567 73.2949 43.2323Z" fill="#333333"/>
<path fill-rule="evenodd" clip-rule="evenodd" d="M70.7558 41.255C72.1138 40.4544 73.4596 39.6599 74.8724 38.9017C76.2852 38.1436 77.7346 37.4158 78.9951 36.8396C80.2557 36.2634 81.3153 35.8085 82.381 35.3718C81.3807 35.2061 80.3561 35.26 79.3788 35.5295C77.8047 36.0122 76.2828 36.6502 74.8359 37.434C73.7259 37.9581 72.6999 38.6427 71.7911 39.4658C71.2946 39.9755 70.9345 40.6011 70.7437 41.2853L70.7558 41.255Z" fill="#333333"/>
<path fill-rule="evenodd" clip-rule="evenodd" d="M55.4766 31.9451C56.8102 31.1142 58.1499 30.2832 59.5262 29.4766C60.9024 28.6699 62.3579 27.9239 63.6062 27.3053C64.8546 26.6866 65.8838 26.2196 66.9312 25.7404C65.9289 25.6106 64.9104 25.6911 63.9412 25.977C62.3833 26.5171 60.8805 27.2035 59.4531 28.027C58.364 28.5827 57.3593 29.2892 56.4692 30.1255C56.004 30.6492 55.6646 31.2714 55.4766 31.9451Z" fill="#333333"/>
<path fill-rule="evenodd" clip-rule="evenodd" d="M52.7852 30.4773C54.1188 29.6464 55.4463 28.7973 56.8348 28.0088C58.2232 27.2203 59.6665 26.4561 60.9027 25.8314C62.1389 25.2067 63.1924 24.7457 64.2398 24.2666C63.2331 24.1336 62.2096 24.2163 61.2376 24.5092C59.679 25.0401 58.1759 25.7205 56.7495 26.541C55.6637 27.1036 54.6632 27.8162 53.7778 28.6577C53.3056 29.1765 52.9652 29.8004 52.7852 30.4773Z" fill="#333333"/>
<path fill-rule="evenodd" clip-rule="evenodd" d="M50.5625 28.5971C51.8961 27.7662 53.2237 26.9232 54.6121 26.1286C56.0006 25.3341 57.4316 24.5759 58.6739 23.9573C59.9162 23.3387 60.9697 22.8595 62.0171 22.3925C61.0112 22.2474 59.9854 22.3282 59.0149 22.6291C57.4574 23.1625 55.9545 23.8429 54.5269 24.6609C53.4397 25.2211 52.4389 25.934 51.5551 26.7776C51.0852 27.298 50.7452 27.9214 50.5625 28.5971Z" fill="#333333"/>
<path fill-rule="evenodd" clip-rule="evenodd" d="M47.7188 26.6381C49.0524 25.8071 50.3799 24.9762 51.7684 24.1695C53.1568 23.3629 54.6001 22.6169 55.8302 21.9982C57.0603 21.3796 58.126 20.9126 59.1734 20.4274C58.1667 20.2944 57.1432 20.3771 56.1712 20.67C54.6126 21.2008 53.1095 21.8813 51.6831 22.7018C50.5973 23.2643 49.5968 23.9769 48.7114 24.8185C48.2404 25.3381 47.9001 25.9617 47.7188 26.6381Z" fill="#333333"/>
<path fill-rule="evenodd" clip-rule="evenodd" d="M81.3882 31.7752C82.734 30.926 84.0676 30.0951 85.45 29.3066C86.8323 28.5182 88.2695 27.7418 89.5179 27.1293C90.7663 26.5167 91.8076 26.0315 92.855 25.5645C91.8506 25.4216 90.8269 25.5045 89.8589 25.8071C88.2979 26.3367 86.7927 27.0172 85.3647 27.8389C84.2747 28.3945 83.2732 29.1078 82.393 29.9556C81.9243 30.4787 81.5808 31.1008 81.3882 31.7752Z" fill="#333333"/>
<path fill-rule="evenodd" clip-rule="evenodd" d="M79.0803 29.7434C80.4139 28.9125 81.7415 28.0755 83.1299 27.2749C84.5184 26.4743 85.9616 25.7223 87.1917 25.0976C88.4218 24.4728 89.4875 24.0119 90.535 23.5328C89.5274 23.4047 88.504 23.4915 87.5328 23.7875C85.9721 24.318 84.4669 24.9985 83.0386 25.8193C81.9475 26.3733 80.9459 27.0868 80.0668 27.936C79.597 28.4564 79.2569 29.0798 79.0742 29.7556L79.0803 29.7434Z" fill="#333333"/>
<path fill-rule="evenodd" clip-rule="evenodd" d="M76.1084 28.5303C77.4359 27.6812 78.7696 26.8503 80.158 26.0618C81.5465 25.2733 82.9897 24.4909 84.232 23.8844C85.4743 23.2779 86.5156 22.7867 87.563 22.3196C86.5566 22.1771 85.531 22.26 84.5608 22.5622C83.0032 23.0954 81.5003 23.7758 80.0728 24.5941C78.981 25.1468 77.9791 25.8604 77.101 26.7108C76.6267 27.228 76.286 27.8525 76.1084 28.5303Z" fill="#333333"/>
<path fill-rule="evenodd" clip-rule="evenodd" d="M73.9038 27.1293C75.2314 26.2983 76.565 25.4553 77.9534 24.6608C79.3419 23.8662 80.7669 23.1081 82.0152 22.4894C83.2636 21.8708 84.311 21.3916 85.3584 20.9246C84.3525 20.7791 83.3267 20.8599 82.3562 21.1612C80.7987 21.6946 79.2959 22.375 77.8682 23.193C76.7755 23.7473 75.7718 24.4607 74.8903 25.3097C74.4221 25.8303 74.0841 26.4538 73.9038 27.1293Z" fill="#333333"/>
<path fill-rule="evenodd" clip-rule="evenodd" d="M84.3599 33.1156C85.6935 32.2847 87.021 31.4477 88.4095 30.6471C89.7979 29.8465 91.2412 29.0944 92.4774 28.4697C93.7136 27.845 94.7671 27.3841 95.8145 26.9049C94.8099 26.7717 93.7882 26.8544 92.8184 27.1475C91.2551 27.6764 89.7494 28.3612 88.3242 29.1915C87.2378 29.748 86.237 30.4568 85.3525 31.2961C84.8837 31.8172 84.5438 32.4403 84.3599 33.1156Z" fill="#333333"/>
<path fill-rule="evenodd" clip-rule="evenodd" d="M88.8664 36.5727C90.2548 35.8085 91.625 35.0625 93.0561 34.3408C94.4871 33.619 95.973 32.9458 97.2457 32.412C98.5185 31.8783 99.5964 31.4477 100.674 31.0413C99.6675 30.8376 98.6281 30.8563 97.6294 31.0959C96.0429 31.545 94.5016 32.1399 93.0256 32.873C91.9106 33.3708 90.8713 34.0221 89.9382 34.8078C89.4377 35.3025 89.0602 35.9069 88.8359 36.5727H88.8664Z" fill="#333333"/>
<path fill-rule="evenodd" clip-rule="evenodd" d="M86.3332 34.5955C87.6912 33.807 89.0492 33.0003 90.4498 32.2422C91.8504 31.484 93.3241 30.7744 94.5847 30.18C95.8453 29.5857 96.9048 29.1611 97.9584 28.7123C96.958 28.5466 95.9334 28.6004 94.9562 28.87C93.3818 29.3625 91.8585 30.0043 90.4072 30.7866C89.2979 31.3068 88.2719 31.9873 87.3624 32.8063C86.8853 33.3186 86.5277 33.9296 86.3149 34.5955H86.3332Z" fill="#333333"/>
<path fill-rule="evenodd" clip-rule="evenodd" d="M71.0664 25.3279C72.4 24.4788 73.7276 23.6479 75.116 22.8594C76.5045 22.071 77.9355 21.2886 79.1778 20.6821C80.4201 20.0755 81.4736 19.5843 82.521 19.1173C81.5146 18.9745 80.489 19.0574 79.5188 19.3599C77.9603 19.8907 76.4572 20.5712 75.0308 21.3917C73.939 21.9444 72.9371 22.658 72.059 23.5084C71.5869 24.0272 71.2465 24.6511 71.0664 25.3279Z" fill="#333333"/>
<path fill-rule="evenodd" clip-rule="evenodd" d="M68.3623 23.8178C69.7081 22.9869 71.0357 22.1499 72.4241 21.3493C73.8126 20.5487 75.2436 19.7966 76.492 19.1719C77.7404 18.5472 78.7817 18.0862 79.8291 17.6071C78.8223 17.4794 77.7999 17.5621 76.8269 17.8497C75.2681 18.385 73.7651 19.0695 72.3389 19.8937C71.2514 20.4485 70.2504 21.1574 69.3671 21.9983C68.9022 22.524 68.5591 23.1452 68.3623 23.8178Z" fill="#333333"/>
<path fill-rule="evenodd" clip-rule="evenodd" d="M66.1396 21.9376C67.4672 21.1067 68.8008 20.2757 70.1893 19.4691C71.5777 18.6624 73.021 17.9164 74.2511 17.2978C75.4812 16.6791 76.5469 16.2121 77.5943 15.733C76.5882 15.594 75.5638 15.6747 74.5921 15.9695C73.0341 16.5093 71.5313 17.1958 70.104 18.0195C69.0173 18.5731 68.0164 19.2799 67.1323 20.1181C66.6626 20.6386 66.3225 21.2619 66.1396 21.9376Z" fill="#333333"/>
<path fill-rule="evenodd" clip-rule="evenodd" d="M63.2656 19.9785C64.6114 19.1476 65.939 18.3167 67.3274 17.51C68.7159 16.7034 70.1469 15.9574 71.3953 15.3387C72.6437 14.7201 73.685 14.2531 74.7324 13.7679C73.7249 13.6396 72.7015 13.7264 71.7302 14.0226C70.1696 14.5483 68.666 15.229 67.2422 16.0544C66.1547 16.6092 65.1537 17.3181 64.2704 18.159C63.8066 18.6855 63.4637 19.3065 63.2656 19.9785Z" fill="#333333"/>
</g>
<defs>
<clipPath id="clip0_108_258">
<rect width="108" height="65" fill="white"/>
</clipPath>
</defs>
</svg>
