<?xml version="1.0" encoding="utf-8"?>
<!-- Generator: Adobe Illustrator 25.0.1, SVG Export Plug-In . SVG Version: 6.00 Build 0)  -->
<svg version="1.1" id="_x34_" xmlns="http://www.w3.org/2000/svg" xmlns:xlink="http://www.w3.org/1999/xlink" x="0px" y="0px"
	 viewBox="0 0 612.1 67.4" style="enable-background:new 0 0 612.1 67.4;" xml:space="preserve">
<g>
	<polygon points="426.2,67.4 423.8,67.4 390.7,0.9 405.3,0.9 425.2,43 425.3,43 445.2,0.9 459.3,0.9 	"/>
	<polygon points="128.5,0.9 128.5,11.7 96.5,11.7 96.5,28.1 126.4,28.1 126.4,38.6 96.5,38.6 96.5,55.2 131.4,55.2 131.4,66.1 
		83.8,66.1 83.8,0.9 	"/>
	<polygon points="285.6,0.9 285.6,11.7 253.6,11.7 253.6,28.6 283.5,28.6 283.5,39 253.6,39 253.6,55.2 288.6,55.2 288.6,66.1 
		240.9,66.1 240.9,0.9 	"/>
	<polygon points="526,0.9 526,11.7 494,11.7 494,28.7 523.9,28.7 523.9,39.2 494,39.2 494,55.2 529,55.2 529,66.1 481.3,66.1 
		481.3,0.9 	"/>
	<path d="M578.6,55.4c14.4,0,20.9-7.3,20.9-21.9c0-14.6-6.5-21.9-20.9-21.9h-9.5v43.8H578.6z M556.5,66.1V0.9h22.1
		c22.2,0,33.5,13.5,33.5,32.6c0,19.1-11.3,32.6-33.5,32.6H556.5z"/>
	<path d="M209.1,7.8l-6,8.3c-5.3-3.5-10.9-5.5-17.8-5.5c-9.5,0-12.3,3.6-12.3,7.1c0,11.7,38,4.9,38,27.9c0,12.6-10.9,21.3-26.2,21.3
		c-10.7,0-19.9-3.3-27.3-11.7l6.8-7.9c6.3,5.9,12.6,8.9,20.7,8.9c9.5,0,14.1-4.5,14.1-9.5c0-14-39-4.5-39-28.4
		C160.1,7.9,170.6,0,185.5,0C195.1,0,203.9,3.4,209.1,7.8z"/>
	<path d="M57.6,65.9l-1.1-9.6c-1,0.2-2.2,0.3-3.5,0.3c-5.3,0-8-1.6-11.2-6.7c-1.2-1.9-2.5-4.1-3.6-5.9c-1.3-2-2.1-2.9-3.3-3.6
		c9.4-2.2,15.9-9.1,15.9-19.5c0-11.6-8.3-20-24.2-20H0v65.2h12.7V42.2c0,0,4.5,0,5.7,0c3.2,0,4.7,1.2,6.1,3.3c1.3,2,5.8,9.4,5.8,9.4
		c5.7,9,11.9,12,20.4,12C53.6,66.8,56.2,66.3,57.6,65.9z M26.7,32.2h-14V11.3h13.9c8,0,11.7,3.9,11.7,10
		C38.3,29,33.3,32.2,26.7,32.2"/>
	<path d="M377.3,65.9l-1.1-9.6c-1,0.2-2.2,0.3-3.5,0.3c-5.3,0-8-1.6-11.2-6.7c-1.2-1.9-2.5-4.1-3.6-5.9c-1.3-2-2.1-2.9-3.3-3.6
		c9.4-2.2,15.9-9.1,15.9-19.5c0-11.6-8.3-20-24.2-20h-26.6v65.2h12.7V42.2c0,0,4.5,0,5.7,0c3.2,0,4.7,1.2,6.1,3.3
		c1.3,2,5.8,9.4,5.8,9.4c5.7,9,11.9,12,20.4,12C373.4,66.8,375.9,66.3,377.3,65.9z M346.4,32.2h-14V11.3h13.9c8,0,11.7,3.9,11.7,10
		C358,29,353,32.2,346.4,32.2"/>
</g>
</svg>
