<?xml version="1.0" encoding="UTF-8"?>
<svg id="Layer_1" xmlns="http://www.w3.org/2000/svg" version="1.1" viewBox="0 0 535 364">
  <!-- Generator: Adobe Illustrator 29.1.0, SVG Export Plug-In . SVG Version: 2.1.0 Build 142)  -->
  <defs>
    <style>
      .st0 {
        fill: #eac998;
      }

      .st1 {
        fill: #781c18;
      }
    </style>
  </defs>
  <path class="st1" d="M32.6,297.8h0c-.2.1-.4.3-.6.5.9,1,2,1.9,3.4,2.2,1.2.2,2.4-.1,3.2-1.1.8-.9,1-2.2,1.1-3.4.1-1.5,0-3.1,0-4.6-.1-1.8-.4-3.7-.8-5.5-.2,0-.5.1-.8.2.6,1.4,2.1,1.9,3.5,2,1.5,0,3.1-.4,4.4-1.2,2.9-1.7,4.8-4.6,5.4-7.9.4-2,.3-4.1-.1-6-.2,0-.5.1-.8.2.6,1.5,2.1,2.6,3.7,2.9,1.9.3,3.8-.3,5.3-1.3,1.5-.9,2.7-2.3,3.5-3.8.8-1.5,1.2-3.1,1.7-4.7.5-1.8,1.1-3.7,2.4-5.1-.2,0-.4,0-.7-.2.5,1.5,1.6,2.5,3,3.2,1.6.8,3.4.8,5.1.5,1.9-.3,3.7-1,5.5-1.8,1.7-.7,3.4-1.5,5-2.4,1.8-1,3.6-2.1,5.3-3.4-.2-.2-.4-.4-.6-.6-1.6,3-4.1,5.3-5.7,8.3-1.4,2.6-2.1,5.8-.5,8.5.8,1.3,2,2.2,3.4,2.5v-.8c-3.6,1.1-7.3,2.4-10,5.1-1.2,1.2-2.2,2.6-2.6,4.2-.5,1.7-.5,3.7.6,5.1,1.1,1.5,2.9,2.1,4.5,2.7v-.8c-2.8.6-5.8,1.3-7.8,3.4-1.7,1.8-2.5,4.7-.9,6.9.8,1.1,2.1,1.8,3.4,1.7,0-.3,0-.5,0-.8-2.8.6-5.6,1.6-8.2,2.7-1.3.6-2.5,1.3-3.8,2-1,.7-2.1,1.5-2.3,2.7-.3,1.6.5,3.1,1.3,4.3.2-.1.5-.3.7-.4-.2-.4-.7-.4-1.1-.4-.6,0-1.2,0-1.7.2-1,.2-2.1.4-3.2.7-3.9,1.1-7.4,3.5-10.4,6.1-.8.7-1.5,1.4-2.2,2-.5.5-1,1-1.5,1.5-.4.4-1.1.8-1.7.6s-.6-1.1-.6-1.7v-2.4c0-1.1-.2-2.2-.4-3.2-.4-2.2-.9-4.3-1.5-6.4-1.3-4.6-2.9-9.1-5.1-13.4-.2-.5-.9,0-.7.4,1.9,3.9,3.4,7.9,4.6,12,.6,2.1,1.1,4.2,1.6,6.3.2,1.1.4,2.2.5,3.3,0,.9.2,1.8.1,2.8,0,.7,0,1.4.1,2.1s.8,1.1,1.5,1.1c1.4,0,2.5-1.4,3.4-2.3,2.9-2.8,6-5.4,9.7-7.1,1.5-.7,3-1.1,4.6-1.5.7-.1,1.3-.3,2-.3.3,0,.6,0,.8,0h.2c0,0,0,0,0,0,0,0,0,0,0,0,.3.4.9,0,.7-.4-.6-1-1.4-2.3-1.2-3.5.1-1.2,1.2-2,2.1-2.5,2.3-1.4,4.7-2.5,7.2-3.4,1.4-.5,2.9-.9,4.3-1.2.4,0,.3-.8,0-.8-2.3.2-3.8-2.2-3.5-4.2.4-2.4,2.5-4.1,4.6-5,1.4-.6,2.9-.9,4.4-1.2.4,0,.3-.7,0-.8-1.4-.5-2.8-1-3.8-2.1-1.2-1.2-1.3-3-.8-4.6.9-3.2,3.6-5.4,6.4-6.8,1.8-.9,3.8-1.5,5.8-2.2.3,0,.4-.7,0-.8-2.5-.5-3.9-3.2-3.8-5.6.1-3.1,2.2-5.8,4-8.1,1.1-1.4,2.2-2.8,3-4.4.2-.3-.2-.8-.6-.6-2.9,2.1-5.9,3.8-9.2,5.2-1.7.7-3.3,1.4-5.1,1.9-1.7.5-3.4.7-5.1.2-1.5-.4-2.9-1.5-3.4-3,0-.3-.5-.4-.7-.2-2.2,2.4-2.5,5.7-3.6,8.6-.6,1.5-1.5,2.9-2.7,4-1.3,1.1-2.9,2.1-4.7,2.2-1.7,0-3.6-.7-4.3-2.4-.2-.5-.9-.3-.8.2.7,3.1.4,6.6-1.2,9.4-1.4,2.4-3.8,4.2-6.6,4.6-1.3.2-3.2,0-3.8-1.4-.2-.5-.9-.3-.8.2.7,2.9.9,5.9.8,8.8,0,1.9-.5,4.9-3,4.8-1.4,0-2.5-1-3.4-2-.3-.4-.8,0-.6.5h0c.2.5.9,0,.7-.4h0Z"/>
  <path class="st1" d="M32.7,297.7h0s-.1,0-.2,0c-.2.1-.4.3-.6.5,0,0,0,.1,0,.2.9,1,2,1.9,3.4,2.2,1.2.3,2.5,0,3.3-.9.9-.9,1.2-2.3,1.4-3.5.2-1.6.1-3.2,0-4.8-.1-1.8-.4-3.7-.8-5.5,0,0,0-.1-.2,0-.2,0-.5.1-.8.2,0,0-.1.1,0,.2.6,1.4,2,2,3.4,2.1,1.7,0,3.5-.5,5-1.4,2.6-1.6,4.4-4.4,5.1-7.4.5-2.1.4-4.3,0-6.5,0,0,0-.1-.2,0-.2,0-.5.1-.8.2,0,0-.1.1,0,.2.6,1.4,1.8,2.4,3.3,2.8,1.7.5,3.5,0,5-.7,1.5-.8,2.8-1.9,3.8-3.4,1.1-1.6,1.7-3.4,2.2-5.2.6-2,1.1-4.1,2.5-5.6,0,0,0-.2,0-.2-.2,0-.4,0-.7-.2,0,0-.2,0-.2.2.5,1.4,1.6,2.5,2.9,3.2,1.6.8,3.3.9,5,.7,1.9-.3,3.7-1,5.5-1.7,1.8-.8,3.5-1.6,5.2-2.5,1.9-1,3.7-2.2,5.5-3.4,0,0,0-.1,0-.2l-.6-.6s-.2,0-.2,0c-1.5,2.9-4,5.2-5.6,8-1.5,2.6-2.2,5.9-.7,8.6.8,1.4,2.1,2.5,3.6,2.8,0,0,.2,0,.2-.1v-.8c0,0,0-.2-.2-.1-3.5,1.1-7.1,2.3-9.8,4.8-1.3,1.2-2.4,2.8-3,4.5-.5,1.6-.5,3.5.4,5,1.1,1.7,3,2.5,4.8,3.1,0,0,.2,0,.2-.1v-.8c0,0,0-.2-.2-.1-2.7.6-5.6,1.3-7.6,3.3-1.8,1.8-2.8,4.8-1.3,7.1.8,1.2,2.2,2.1,3.7,2,0,0,.1,0,.1-.2,0-.3,0-.5,0-.8s0-.1-.2,0c-2.9.7-5.8,1.6-8.5,2.9-1.3.6-2.7,1.3-3.9,2.2-.9.7-1.8,1.5-2,2.7-.2,1.6.6,3,1.3,4.3,0,0,.1,0,.2,0,.2-.1.5-.3.7-.4,0,0,0-.1,0-.2-.5-.6-1.5-.5-2.1-.4-.9.1-1.9.3-2.8.5-1.7.4-3.4,1-4.9,1.8-3.2,1.6-5.9,3.9-8.5,6.4-.7.6-1.3,1.3-2,1.9-.6.5-1.7,1-1.9,0v-2.4c0-1-.1-1.9-.3-2.9-.6-3.9-1.6-7.7-2.8-11.4-.6-1.8-1.3-3.6-2-5.4-.4-.8-.7-1.7-1.1-2.5-.2-.4-.4-.8-.6-1.3-.1-.2-.2-.6-.5-.6-.5,0-.8.5-.6.9.4.9.8,1.8,1.2,2.7.8,1.8,1.5,3.6,2.1,5.5,1.3,3.7,2.4,7.6,3,11.5.2,1,.3,2,.4,3v2.8c0,.7.2,1.4.8,1.8.6.4,1.3.4,1.9.2.7-.2,1.2-.7,1.7-1.2.5-.5,1-1.1,1.6-1.6,1.3-1.2,2.6-2.4,4.1-3.5,1.4-1.1,3-2,4.6-2.8,1.7-.8,3.5-1.4,5.4-1.7.9-.2,1.8-.3,2.7-.3v-.3h0c-.2,0-.2.3,0,.3h0v-.2c0,0,0,0,0,0h0c-.1-.2-.3,0-.2.1.3.3.9.3,1-.2,0-.3-.2-.6-.3-.8-.2-.4-.5-.9-.7-1.4-.3-.8-.5-1.8,0-2.6.4-.7,1-1.1,1.7-1.5,3.3-2,6.8-3.4,10.5-4.3.4,0,.8-.1,1.2-.3.2,0,.3-.3.3-.5,0-.6-.7-.5-1.1-.5-1.4-.1-2.4-1.4-2.7-2.6-.4-1.5.2-3,1.2-4.1,1.1-1.2,2.5-2,4.1-2.5.9-.3,1.8-.5,2.8-.8.4,0,1.3-.1,1.1-.8,0-.2-.2-.3-.4-.4-.4-.2-.8-.3-1.3-.5-.8-.3-1.6-.8-2.3-1.3-2.6-2.4-.8-6.5,1.3-8.6,2.5-2.5,5.9-3.7,9.1-4.7.4-.1,1.2-.3,1-.9,0-.2-.3-.3-.6-.3-.3,0-.7-.2-1-.4-1.3-.7-2-2-2.4-3.4-.8-3.3,1.4-6.4,3.3-8.9,1.1-1.5,2.3-2.8,3.2-4.4.1-.3.5-.7.4-1,0-.2-.2-.5-.5-.5-.3,0-.6.2-.8.4-.4.3-.8.6-1.3.8-3.2,2.1-6.6,3.9-10.1,5.2-1.8.7-3.7,1.3-5.7,1.3-1.7,0-3.4-.7-4.4-2.1-.2-.3-.4-.6-.5-.9,0-.2-.2-.5-.6-.5-.3,0-.5.2-.7.5-.2.3-.5.6-.7.9-.8,1.3-1.3,2.8-1.7,4.3-.5,1.6-.8,3.2-1.7,4.6-.9,1.5-2.2,2.8-3.7,3.6-1.4.8-3.1,1.2-4.7.7-.7-.2-1.3-.6-1.8-1.2-.2-.3-.4-.6-.6-.9,0-.2-.3-.3-.5-.3-.7,0-.5.8-.4,1.2.1.9.2,1.8.2,2.7,0,1.7-.3,3.5-1.1,5.1-1.3,2.8-4,5.2-7.2,5.5-.7,0-1.3,0-1.9-.1-.7-.2-1.2-.6-1.5-1.2-.2-.4-.7-.5-1,0-.1.2,0,.5,0,.7,0,.5.2,1,.3,1.6.3,2,.5,4,.5,6s0,2.5-.5,3.8c-.2.5-.5,1.1-.9,1.4-.5.4-1.2.5-1.8.4-.8-.1-1.6-.7-2.2-1.2-.3-.2-.5-.6-.8-.8-.2-.1-.4-.1-.6,0-.3.2-.3.8.1,1,.5.1.8-.4.7-.8,0-.2-.4,0-.3,0,0,.2,0,.4-.2.4s-.2-.5,0-.5c.2,0,.4.3.5.4.1.1.3.3.5.5.6.5,1.2.9,1.8,1.1,1.1.3,2.3.1,3-.8.7-.8.9-1.9,1-2.9.2-1.6.1-3.3,0-4.9,0-.9-.2-1.8-.3-2.7,0-.4-.1-.9-.2-1.3,0-.2-.4-1.2,0-1.3.3-.1.5.4.6.6.1.2.4.4.6.5.5.3,1,.4,1.6.5,2.8.3,5.5-1.3,7.2-3.4,2-2.5,2.8-5.8,2.5-8.9,0-.4,0-.8-.1-1.2,0-.2-.3-1.1,0-1.1s.4.5.6.7c.2.3.4.5.6.8,1,.9,2.4,1.3,3.6,1.1,3.1-.3,5.8-2.7,7.1-5.5,1.3-2.8,1.5-6,3.3-8.6.1-.2.7-1.1,1-.7,0,.1,0,.3.2.5,0,.2.2.4.3.5.4.6.9,1.1,1.5,1.5,1.4.9,3,1.1,4.6.9,1.8-.2,3.6-.8,5.3-1.5,1.7-.7,3.3-1.4,4.9-2.3s3.2-1.7,4.7-2.7c.3-.2.7-.5,1-.7.1,0,.3-.3.5-.4.2,0,.4,0,.4.3,0,.1-.1.3-.2.4-.5.8-1,1.6-1.5,2.3-1.9,2.6-4.3,5.1-5.1,8.3-.6,2.5,0,5.5,2.4,6.8.2.1.5.2.8.3.1,0,.4,0,.5.1.2.1,0,.3,0,.5-.2,0-.5.1-.7.2-.2,0-.5.1-.7.2-.5.1-.9.3-1.3.5-1.6.6-3.1,1.2-4.5,2-2.5,1.5-4.7,3.7-5.2,6.7-.3,1.4,0,2.8.8,3.9,1,1.2,2.5,1.8,4,2.3.1,0,.3.2.3.4,0,.2-.4.2-.5.2-.5,0-.9.2-1.4.3-.8.2-1.7.5-2.5.8-1.3.5-2.5,1.3-3.5,2.4-.8,1-1.5,2.3-1.4,3.6,0,1.2.7,2.3,1.7,3,.5.3,1,.6,1.7.6s.8,0,.6.3c0,.2-.4.2-.6.2-.2,0-.5.1-.8.2-1.8.4-3.5,1-5.2,1.7-1.7.7-3.3,1.5-4.8,2.4-1.1.7-2.5,1.5-2.6,2.9,0,.8.1,1.5.5,2.2.2.4.4.7.6,1.1,0,.1.3.4.3.5,0,.3-.4.2-.5,0l-.2.2h0c0,0,.1,0,.2,0h0c0,0,0-.2,0-.2h0v.3h0c.2,0,.2-.3,0-.3-.8,0-1.7,0-2.5.2-.9.2-1.7.4-2.6.6-1.7.5-3.3,1.2-4.8,2.1-2.9,1.7-5.5,3.9-7.8,6.3-.8.9-2.3,2.5-3.7,1.8-.8-.4-.9-1.4-.9-2.2v-2.8c-.4-3.8-1.4-7.6-2.5-11.2-1.1-3.6-2.4-7.1-4-10.4,0-.2-.7-1-.1-1.1.2,0,.3.3.4.5,0,.2.2.5.3.7.4.8.8,1.7,1.2,2.6.8,1.7,1.4,3.5,2,5.3,1.2,3.6,2.2,7.2,2.9,11,.2,1,.3,2,.4,3.1v2.6c0,.8,0,1.1.4,1.5.5.4,1.2.1,1.7-.2.7-.5,1.3-1.1,1.8-1.7.7-.7,1.3-1.3,2-1.9,1.3-1.2,2.6-2.3,4.1-3.2s2.9-1.8,4.5-2.5c1.7-.7,3.5-1.1,5.3-1.5.5,0,.9-.1,1.4-.1s.8,0,1.1.3v-.2c-.2.1-.5.3-.7.4,0,0,.1,0,.2,0-.7-1.1-1.4-2.5-1.3-3.8,0-1.3,1-2.2,2-2.9,2.3-1.5,5-2.7,7.6-3.6,1.5-.5,3-.9,4.6-1.3,0,0-.1,0-.2,0,0,.3,0,.5,0,.8,0,0,0-.1.1-.2-1.4,0-2.6-.6-3.4-1.7-.8-1-1-2.4-.7-3.6.6-2.6,2.8-4.3,5.2-5.3,1.4-.5,2.8-.8,4.2-1.1,0,0-.1,0-.2-.1v.8s.1,0,.2-.1c-1.6-.6-3.3-1.2-4.3-2.5-1.1-1.4-1.2-3.3-.8-5,1-3.5,4-5.9,7.1-7.4,1.8-.8,3.6-1.4,5.5-2,0,0-.1,0-.2-.1v.8s.1,0,.2-.1c-3-.6-4.5-3.9-4.2-6.8.3-3.1,2.3-5.7,4.1-8,1-1.4,2.1-2.7,2.9-4.2h-.2c.2.2.4.4.6.6v-.2c-3,2.1-6.2,4-9.5,5.4-1.7.7-3.4,1.4-5.1,1.9-1.7.4-3.6.6-5.3,0-1.7-.5-3.1-1.7-3.7-3.4l-.2.2c.2,0,.4,0,.7.2v-.2c-2.4,2.6-2.4,6.5-3.9,9.6-1.5,3-4.9,5.7-8.4,5.4-1.7-.1-3.4-1.2-4.1-2.8,0,0,0,.1,0,.2.2,0,.5-.1.8-.2,0,0-.1,0-.2,0,.7,3.3.4,6.8-1.3,9.8-1.6,2.6-4.3,4.8-7.4,5.1-1.6.1-3.5-.3-4.2-1.9,0,0,0,.1,0,.2.2,0,.5-.1.8-.2,0,0-.1,0-.2,0,.7,2.9,1,5.9.9,8.8,0,1.3-.1,2.7-.8,3.9-.6,1.1-1.7,1.8-3.1,1.7-1.5,0-2.7-1.1-3.7-2.2v.2c.2-.1.4-.3.6-.5h-.2c0,.2.3,0,.2-.1l.2-.3h-.1Z"/>
  <g>
    <path class="st0" d="M21.9,127.9c-4.6-2.1-8.3-5.3-10.9-9.6-2.6-4.3-4-9.7-4-16.1s1.6-12.8,4.7-17.7c3.1-4.9,7.3-8.6,12.5-11,5.2-2.5,10.9-3.7,17-3.7s10.9,1.1,14.8,3.4c4,2.3,6,5.4,6,9.4s-.6,4-1.7,5.5c-1.2,1.6-2.6,2.7-4.3,3.5-1.7.8-3.3,1.2-5,1.2s-2.6-.1-3.6-.4c-1-.3-1.5-.6-1.5-1s.1-.5.4-.8c.5-.6.9-1.5,1.3-2.6.3-1.1.5-2.3.5-3.4,0-2.1-.5-4.1-1.6-5.8-1.1-1.8-2.7-2.6-5-2.6-3.3,0-6.2,1.2-8.5,3.6-2.4,2.4-4.1,5.4-5.3,9-1.2,3.6-1.8,7.2-1.8,10.9s.8,8,2.3,11.5c1.5,3.5,3.7,6.3,6.5,8.4,2.8,2.1,6,3.1,9.7,3.1s4.7-.5,7.2-1.6c2.5-1.1,4.4-2.4,5.8-4.1l4.1,3.9c-2.8,3.5-6.1,6.1-10,7.8-3.9,1.7-8.5,2.5-13.7,2.5s-11.2-1-15.8-3.1ZM31.1,65.3l-9.8-12.9h6.1l9.6,8.3,9.7-8.3h6.1l-10.7,13c-1,1-2.3,1.6-3.8,1.6h-3.4c-1.6,0-2.8-.5-3.8-1.6Z"/>
    <path class="st0" d="M60.3,130.2c0-.2,0-.4.2-.5,1.6-1.4,2.7-3.1,3.4-4.9l17.7-46.4c.1-.3.2-.6.2-.9,0-.6-.2-1.1-.5-1.7-.3-.6-.7-1-1.2-1.4-.5-.3-.7-.6-.7-1s0-.5.3-.7.4-.3.7-.3c4-.5,7.1-1.1,9.4-2.1,2.3-.9,3.9-1.8,4.7-2.5.2-.2.4-.3.7-.3.8,0,1.4.4,1.7,1.2l21.6,55.6c.9,2.3,1.9,3.9,2.8,4.8.3.3.4.6.4.9,0,.5-.2.8-.7.8h-19.6c-1.1,0-1.6-.3-1.6-1l.2-.7c.4-.9.6-1.9.6-2.8s-.1-1.6-.3-2.2l-4.5-11.5h-21.1l-4.7,12.7c-.1.6-.2,1-.2,1.2,0,.7.3,1.8.9,3.1.1.3.2.6.2.7,0,.4-.3.6-.8.6h-9.2c-.5,0-.7-.3-.7-.8ZM94,107.8l-9.1-22.9-8.4,22.9h17.4Z"/>
    <path class="st0" d="M171.9,131.5c-5.6-.7-9.2-2-10.8-4-1-1.3-2-2.7-2.9-4.4-.9-1.7-1.9-3.8-3-6.2-1.5-3.1-2.5-5-3.1-5.8-2.2-.3-4.1-.7-5.6-1.2v14.2c0,.9.1,1.6.4,2.3.3.7.7,1.3,1.2,2,.5.7.7,1.2.7,1.5s0,.5-.3.8c-.2.2-.4.3-.7.3h-21c-.3,0-.5-.1-.7-.3-.2-.2-.3-.5-.3-.8s.2-.8.7-1.5c.5-.7.8-1.4,1.2-2,.3-.6.5-1.4.5-2.3v-44.4c0-1.6-.8-3-2.4-4.3-.3-.3-.5-.6-.5-1s0-.5.3-.7c.2-.2.4-.3.7-.3,2.2,0,4.5-.3,6.8-.8,2.3-.5,5-1.3,8.1-2.3,1.9-.6,3.2-1,3.9-1.2,3.9-1.3,7.7-2,11.5-2s8.3.9,11.7,2.6c3.4,1.8,6.1,4.2,8.1,7.5,2,3.2,2.9,6.9,2.9,11.1s-1,8.5-2.9,11.9c-2,3.4-4.7,6.1-8.1,8l.3,1.3c0,.3.7,1.9,2,4.7,1.3,2.8,3.1,5.8,5.4,8.9,2.3,3.1,5.1,5.5,8.3,7.2.3.2.5.5.5.9s0,.5-.3.7-.4.3-.7.3c-4.8,0-8.7-.2-11.9-.7ZM156.9,103c2.1-2.2,3.2-6.1,3.2-11.9s-.6-7.8-1.8-10.3c-1.2-2.6-2.6-4.4-4.3-5.4-1.7-1-3.3-1.6-4.9-1.6s-1.5.1-1.9.3c-.5.2-.7.4-.7.7v30.2c0,.3.3.6.9.9.6.3,1.4.4,2.2.4,2.8,0,5.2-1.1,7.3-3.2Z"/>
    <path class="st0" d="M191.1,122.7c-5.4-5.5-8.1-13.3-8.1-23.3s1.4-10.9,4.2-15.6c2.8-4.7,6.6-8.4,11.3-11.1,4.8-2.7,10-4.1,15.8-4.1s12.3,1.3,17,4c4.7,2.7,8.3,6.3,10.7,11,2.4,4.6,3.6,9.9,3.6,15.7s-1.4,12-4.1,16.8c-2.7,4.8-6.5,8.4-11.3,11-4.8,2.5-10.1,3.8-16,3.8-10.1,0-17.9-2.7-23.2-8.2ZM222.7,119.2c1.6-4.9,2.4-11.5,2.4-19.7s-.9-13-2.7-18.3c-1.8-5.3-4.5-7.9-8-7.9s-6.6,2.6-8.2,7.7c-1.6,5.1-2.5,11.3-2.5,18.5s.9,14.4,2.6,19.5c1.7,5.1,4.4,7.6,8.1,7.6s6.7-2.4,8.3-7.3Z"/>
    <path class="st0" d="M294.3,119.5c0,4.7-1,7.9-2.9,9.8-1.2,1.1-2.7,1.6-4.5,1.6h-37.9c-.3,0-.5-.1-.7-.3-.2-.2-.3-.5-.3-.8s.2-.8.7-1.5c.5-.7.8-1.4,1.2-2,.3-.6.5-1.4.5-2.3v-44.1c0-1.6-.8-3-2.4-4.3-.3-.3-.5-.6-.5-1s0-.5.3-.7c.2-.2.4-.3.7-.3,3.3,0,6.7-.3,10.2-1,3.5-.7,6.2-1.7,7.9-2.9.2-.2.5-.3.8-.3s.6.1.8.3c.3.2.4.5.5.9v53.5c0,.6,0,1,0,1.2.3.3.9.5,1.8.7.9.2,1.9.3,3.1.3,2.9,0,5.6-.8,8.1-2.4,2.5-1.6,4.5-3.6,6-6.2,1.5-2.5,2.2-5.2,2.2-8,3,1.8,4.5,5.1,4.5,9.8Z"/>
    <path class="st0" d="M319.3,126.4c.3.7.7,1.3,1.2,2,.5.7.7,1.2.7,1.5s0,.5-.3.8c-.2.2-.4.3-.7.3h-21c-.3,0-.5-.1-.7-.3-.2-.2-.3-.5-.3-.8s.2-.8.7-1.5c.5-.7.8-1.4,1.2-2,.3-.6.5-1.4.5-2.3v-44.1c0-1.6-.8-3-2.4-4.3-.3-.3-.5-.6-.5-1s0-.5.3-.7c.2-.2.4-.3.7-.3,3.3,0,6.7-.3,10.2-1,3.5-.7,6.2-1.7,7.9-2.9.2-.2.5-.3.8-.3s.6.1.8.3c.3.2.4.5.5.9v53.5c0,.9.1,1.6.4,2.3Z"/>
    <path class="st0" d="M330.4,128.9c-3.9-2.3-5.8-5.6-5.8-9.9s.8-3.8,2.3-5c1.5-1.2,3.2-2,5.2-2.5,1.9-.5,3.6-.7,5-.7h4.3c0,.3-.2,1-.3,2.2-.2,1.2-.3,2.4-.3,3.7,0,3.8.4,6.7,1.1,8.7s2.1,3,4.1,3c2.9,0,4.4-1.6,4.4-4.8v-43.5c0-1.6-.7-3-2.4-4.3-.3-.3-.4-.6-.4-.9s0-.5.3-.7c.2-.2.4-.3.7-.3,4.8,0,8.7-.4,11.6-1.3,2.9-.9,5.1-1.8,6.4-2.7.2-.1.4-.2.8-.2s.6.1.8.3c.3.2.4.5.5.8v48.3c0,4-1.6,6.9-4.8,8.9-3.2,2-6.4,3.2-9.7,3.7-3.2.5-5.7.7-7.5.7-7,0-12.4-1.2-16.2-3.5Z"/>
    <path class="st0" d="M366.9,130.2c0-.2,0-.4.2-.5,1.6-1.4,2.7-3.1,3.4-4.9l17.7-46.4c.1-.3.2-.6.2-.9,0-.6-.2-1.1-.5-1.7-.3-.6-.7-1-1.2-1.4-.5-.3-.7-.6-.7-1s0-.5.3-.7c.2-.2.4-.3.7-.3,4-.5,7.1-1.1,9.4-2.1,2.3-.9,3.9-1.8,4.7-2.5.2-.2.4-.3.7-.3.8,0,1.4.4,1.7,1.2l21.6,55.6c.9,2.3,1.9,3.9,2.8,4.8.3.3.4.6.4.9,0,.5-.2.8-.7.8h-19.6c-1.1,0-1.6-.3-1.6-1l.2-.7c.4-.9.6-1.9.6-2.8s-.1-1.6-.3-2.2l-4.5-11.5h-21.1l-4.7,12.7c-.1.6-.2,1-.2,1.2,0,.7.3,1.8.9,3.1.1.3.2.6.2.7,0,.4-.3.6-.8.6h-9.2c-.5,0-.7-.3-.7-.8ZM400.6,107.8l-9.1-22.9-8.4,22.9h17.4Z"/>
    <path class="st0" d="M7,216.4c0-.2,0-.4.2-.5,1.6-1.4,2.7-3.1,3.4-4.9l17.7-46.4c.1-.3.2-.6.2-.9,0-.6-.2-1.1-.5-1.7-.3-.6-.7-1-1.2-1.4-.5-.3-.7-.6-.7-1s0-.5.3-.7.4-.3.7-.3c4-.5,7.1-1.1,9.4-2.1,2.3-.9,3.9-1.8,4.7-2.5.2-.2.4-.3.7-.3.8,0,1.4.4,1.7,1.2l21.6,55.6c.9,2.3,1.9,3.9,2.8,4.8.3.3.4.6.4.9,0,.5-.2.8-.7.8h-19.6c-1.1,0-1.6-.3-1.6-1l.2-.7c.4-.9.6-1.9.6-2.8s-.1-1.6-.3-2.2l-4.5-11.5h-21.1l-4.7,12.7c-.1.6-.2,1-.2,1.2,0,.7.3,1.8.9,3.1.1.3.2.6.2.7,0,.4-.3.6-.8.6H7.7c-.5,0-.7-.3-.7-.8ZM40.7,194l-9.1-22.9-8.4,22.9h17.4Z"/>
    <path class="st0" d="M117.2,160c4.1,2.8,7.1,6.5,9.3,11,2.1,4.5,3.2,9.3,3.2,14.2,0,8-1.5,14.4-4.4,19.1-2.9,4.7-6.5,8.1-10.9,10-4.4,1.9-9,2.9-14,2.9s-5.5-.3-8.2-.9c-2-.4-4.2-.6-6.8-.6s-3.8,0-5.7.3c-1.9.2-3.4.4-4.7.6-1.2.2-2,.3-2.3.4-.3,0-.5,0-.7-.3-.2-.2-.3-.4-.3-.7s0-.5.3-.7c1.4-2,2.2-3.7,2.2-5.2v-44.8c0-1.5-.9-2.8-2.4-4.1-.3-.3-.5-.6-.5-1s0-.5.3-.7c.2-.2.4-.3.7-.3,1.1,0,2.7,0,4.7,0,3,0,5.6-.1,7.9-.4,2.3-.3,4-.5,5.2-.8,1.2-.3,1.9-.5,2.2-.6,3.8-1.2,7.4-1.8,10.7-1.8,5.5,0,10.2,1.4,14.3,4.2ZM104.5,208.4c2.2-2.1,3.7-4.9,4.5-8.5s1.2-7.9,1.2-13.2c0-7.5-1.3-13.4-3.9-17.6-2.6-4.2-6.4-6.3-11.3-6.3s-1.8,0-2.8.3v48.2c1.3.1,2.2.2,2.8.2,4.1,0,7.3-1,9.5-3.1Z"/>
    <path class="st0" d="M128.4,160.4c-.3-.7-.8-1.3-1.3-1.7-.3-.3-.4-.6-.4-.9s0-.5.3-.7.4-.3.7-.3c3.9.4,7.3.6,10.3.6s7.1-.3,8.8-.9l.7-.2c.3,0,.6.3.7.8.1.5.3,1.2.7,1.9l15.1,32.9,13.7-33.1c0-.1,0-.3,0-.6s0-.4,0-.6c0-.2,0-.3,0-.3,0-.1,0-.2,0-.4,0-.1.2-.2.4-.1,1.1.2,2.3.3,3.5.3s2.4-.1,3.4-.4c0,0,.1,0,.2,0,0,0,.1.1.1.2l-16.3,39.8-8.5,20.7h-5.4l-26.6-56.8Z"/>
    <path class="st0" d="M187.8,216.9c-.2-.2-.3-.4-.3-.7s0-.5.3-.7c1.4-1.8,2.2-3.5,2.2-5.1v-46.3c0-1.4-.9-2.8-2.4-4.1-.3-.3-.5-.6-.5-.9s0-.5.3-.7c.2-.2.4-.3.7-.3,3,0,5.7,0,8.2-.3,2.5-.3,5.5-.7,9.1-1.2,3.1-.5,5.6-.8,7.5-1,1.9-.2,3.8-.3,5.9-.3,4.5,0,8.1.6,10.9,1.9,2.8,1.3,4.1,3.3,4.1,6.1s-.4,3-1.2,4.5c-.8,1.5-1.9,2.7-3.4,3.7-1.5,1-3.1,1.5-5,1.6v-.9c0-4.6-1.3-7.8-3.8-9.6-2.5-1.8-5.4-2.7-8.6-2.7s-2.5.1-3.5.3v23c0,0,5.9,0,5.9,0,2.1,0,4.2-.6,6.4-1.7.3-.2.6-.3.9-.3.5,0,1,.2,1.4.6.4.4.6.9.6,1.5v4.6c0,.6-.2,1.1-.6,1.5-.4.4-.9.6-1.4.6s-.6,0-.9-.3c-1.7-.9-3.9-1.3-6.4-1.3h-6v20.5c0,1,.4,1.8,1.3,2.2.9.5,1.8.7,2.7.7,2.2,0,4.4-.5,6.6-1.6,2.1-1.1,3.9-2.5,5.3-4.4,1.4-1.8,2.3-3.9,2.6-6.1,4.4,2.7,6.6,6.1,6.6,10.3s-.2,2.4-.5,3.5-.7,2-1.1,2.7c-.4.7-.6,1.1-.7,1.3h-42.3c-.3,0-.5,0-.7-.3Z"/>
    <path class="st0" d="M246.8,172.8v39.5c0,.7.2,1.3.5,1.7.3.5.8.9,1.3,1.5.2.2.3.4.3.6s-.1.5-.3.8-.5.3-.8.3h-8.5c-.3,0-.5-.1-.7-.3-.2-.2-.3-.5-.3-.8s0-.5.2-.6c.2-.2.4-.4.7-.8.3-.4.6-.7.8-1.1.2-.4.3-.8.3-1.3v-48.2c0-1.1-.3-2-.8-2.7-.5-.7-1.1-1.3-1.7-1.6-.4-.2-.6-.5-.6-.9s.1-.5.3-.8c.2-.2.5-.3.8-.3h1.9c3.6,0,6.7-.2,9.4-.7,2.6-.5,4.7-1,6.3-1.5,1.6-.5,2.3-.8,2.2-.8l25.3,32.9v-26.3c0-.5-.1-.9-.3-1.3-.2-.3-.5-.7-.9-1-.4-.3-.7-.6-.9-.8-.2-.2-.3-.4-.3-.7s0-.5.3-.7c.2-.2.4-.3.7-.3h9c.3,0,.6.1.8.3.2.2.3.4.3.7s0,.5-.3.7c-.1.1-.3.4-.7.7-.3.4-.6.7-.8,1.1-.2.4-.3.8-.3,1.2v50.3c-1.4.8-2.6,1.7-3.7,2.7-1.1,1-1.9,1.9-2.5,2.6-.6.7-1,1.2-1.1,1.5l-35.7-45.7Z"/>
    <path class="st0" d="M348.9,158.8c.6,1.4.9,3.1.9,5s-.4,3.7-1.1,5.3c-.7,1.6-1.8,2.8-3.3,3.5h-1.9c0-3.1-1-5.5-3.1-7.2-2.1-1.7-5.2-2.6-9.5-2.6v47.6c0,.9.1,1.6.4,2.3.3.7.7,1.3,1.2,2,.5.7.7,1.2.7,1.5s0,.5-.3.8c-.2.2-.4.3-.7.3h-21c-.3,0-.5-.1-.7-.3-.2-.2-.3-.5-.3-.8s.2-.8.7-1.5c.5-.7.8-1.4,1.2-2,.3-.6.5-1.4.5-2.3v-47.6c-4.2,0-7.5.9-9.7,2.6-2.2,1.7-3.3,4.1-3.3,7.2h-2.2c-1.3-.7-2.3-1.9-3.1-3.6-.7-1.7-1.1-3.5-1.1-5.4s.3-3.5,1-4.9c.7-1.4,1.5-2,2.6-2,1.6,0,4.5.3,8.8.9,6.6,1,11.8,1.5,15.6,1.5s6.2-.2,9.2-.5c3-.3,6.3-.7,10.1-1.3,2.9-.5,4.8-.7,5.9-.7s1.6.7,2.2,2.1Z"/>
    <path class="st0" d="M341.5,216.4c0-.2,0-.4.2-.5,1.6-1.4,2.7-3.1,3.4-4.9l17.7-46.4c.1-.3.2-.6.2-.9,0-.6-.2-1.1-.5-1.7-.3-.6-.7-1-1.2-1.4-.5-.3-.7-.6-.7-1s0-.5.3-.7c.2-.2.4-.3.7-.3,4-.5,7.1-1.1,9.4-2.1,2.3-.9,3.9-1.8,4.7-2.5.2-.2.4-.3.7-.3.8,0,1.4.4,1.7,1.2l21.6,55.6c.9,2.3,1.9,3.9,2.8,4.8.3.3.4.6.4.9,0,.5-.2.8-.7.8h-19.6c-1.1,0-1.6-.3-1.6-1l.2-.7c.4-.9.6-1.9.6-2.8s-.1-1.6-.3-2.2l-4.5-11.5h-21.1l-4.7,12.7c-.1.6-.2,1-.2,1.2,0,.7.3,1.8.9,3.1.1.3.2.6.2.7,0,.4-.3.6-.8.6h-9.2c-.5,0-.7-.3-.7-.8ZM375.2,194l-9.1-22.9-8.4,22.9h17.4Z"/>
    <path class="st0" d="M62.7,242.9v42.3c0,4.1-1.3,7.7-3.8,10.6-2.5,3-5.8,5.2-9.8,6.7s-8.4,2.2-12.9,2.2-8.9-.7-12.9-2.2c-4-1.5-7.3-3.7-9.8-6.7-2.5-3-3.8-6.5-3.8-10.6v-33c0-1.1,0-2-.4-2.5-.3-.5-.9-1.1-1.8-1.9-.3-.3-.5-.6-.5-1s0-.5.3-.7c.2-.2.4-.3.7-.3,3.7,0,6.9-.4,9.5-1.1,2.7-.7,5.2-1.6,7.5-2.5,1-.4,1.6-.6,1.7-.6.3,0,.6.1.9.3.3.2.4.5.4.8v42.4c0,2.7.6,5,1.7,7,1.1,2,2.6,3.4,4.4,4.4,1.8,1,3.8,1.5,5.8,1.5s4.1-.5,6.2-1.5c2.1-1,3.8-2.4,5.1-4.4,1.4-2,2-4.3,2-7v-42.3h9.3Z"/>
    <path class="st0" d="M92.5,303c-.3-.3-.4-.7-.4-1.1s.1-.7.4-1c5.6-5.6,11-11.8,16-18.4,5-6.6,7.5-12.3,7.5-17.1s-1.1-5.5-3.3-7.3c-2.2-1.8-4.8-2.6-7.9-2.6s-5.5.7-7.8,2.2c-.4.2-.8.2-1.1,0-.3-.3-.4-.6-.3-1,.6-2.3,1.8-4.6,3.6-6.8s4.1-4.1,6.9-5.5c2.8-1.4,5.9-2.2,9.2-2.2,5.6,0,10.1,1.5,13.4,4.4,3.3,2.9,4.9,7,4.9,12.1s-2.5,11.6-7.6,17.5c-5.1,5.9-11.1,11.3-18.2,16.3.1,0,.4,0,.8,0,.4,0,1,0,1.8,0,5.6,0,10.3-1.1,14.3-3.4,3.7-2,6.4-5,8-9,.1.5.3,1.5.5,3.1.2,1.6.3,3.4.3,5.3,0,2.8-.3,5.1-.9,7-.7,2.4-1.8,4.3-3.4,5.8-1.6,1.4-3.8,2.2-6.6,2.2h-29c-.4,0-.7-.2-1-.5Z"/>
    <path class="st0" d="M159.7,303.1c-.2-.2-.3-.4-.3-.7s0-.5.3-.7c.1-.2.3-.4.6-.6.3-.2.5-.5.6-.7.8-.7,1.4-1.4,1.9-2,.4-.6.6-1.2.6-1.8v-8.6h-25.2v-3.3l24.8-35.9c.6-.8,1.4-1.2,2.2-1.2,2.2-.1,4.7-.6,7.3-1.3,2.6-.8,5-2.2,7-4.2.2-.2.5-.3.8-.3s.6.1.8.3c.3.2.4.5.5.9v39.9h4v4.9h-4v8.7c0,.6.1,1.2.6,1.8.4.5,1,1.2,1.9,2,.7.6,1.1,1,1.3,1.3.2.2.3.4.3.7s-.1.5-.3.7c-.2.2-.4.3-.7.3h-24.1c-.3,0-.5,0-.7-.3ZM163.4,283v-26.2l-18.1,26.2h18.1Z"/>
    <path class="st0" d="M222.9,301.2c-4.2-2.1-6.3-5.3-6.3-9.7s.4-2.7,1.3-3.9c.9-1.2,2-2.2,3.4-2.9,1.4-.7,2.7-1.1,4.1-1.1-.2.9-.3,1.7-.3,2.6,0,2.6.8,4.9,2.4,6.9,1.6,2,3.6,3.6,6.1,4.7s4.8,1.7,7.2,1.7,4.4-.6,5.9-1.8c1.5-1.2,2.2-2.9,2.2-5.3s-1-4.5-2.9-5.9c-1.9-1.4-5.3-2.8-10.2-4.1-6.3-1.6-11-4-14.1-7.1-3.1-3.1-4.7-7.2-4.7-12.4s1-7.6,3-10.6c2-3,4.8-5.3,8.3-6.9,3.5-1.6,7.5-2.4,12-2.4,6.7,0,11.8.9,15.4,2.6,3.6,1.7,5.4,4.1,5.4,7.1s-.9,4.6-2.7,6.2c-1.8,1.6-4.1,2.4-6.8,2.4s-1.8,0-2.8-.3c.4-1.2.6-2.5.6-3.8,0-2.7-.8-5-2.5-6.9-1.7-1.9-3.9-2.9-6.6-2.9s-4.7.6-6.3,1.9c-1.6,1.3-2.4,3.1-2.4,5.4s.9,4.6,2.8,6c1.9,1.4,5.1,2.7,9.8,4,4.3,1.2,7.9,2.5,10.7,4,2.8,1.5,5.1,3.6,6.7,6.2,1.6,2.6,2.4,5.9,2.4,10,0,6.5-2.3,11.4-7,14.7-4.7,3.3-10.7,4.9-18,4.9s-11.9-1-16.2-3.1Z"/>
    <path class="st0" d="M264.1,302.7c0-.2,0-.4.2-.5,1.6-1.4,2.7-3.1,3.4-4.9l17.7-46.4c.1-.3.2-.6.2-.9,0-.6-.2-1.1-.5-1.7-.3-.6-.7-1-1.2-1.4-.5-.3-.7-.6-.7-1s0-.5.3-.7.4-.3.7-.3c4-.5,7.1-1.1,9.4-2.1,2.3-.9,3.9-1.8,4.7-2.5.2-.2.4-.3.7-.3.8,0,1.4.4,1.7,1.2l21.6,55.6c.9,2.3,1.9,3.9,2.8,4.8.3.3.4.6.4.9,0,.5-.2.8-.7.8h-19.6c-1.1,0-1.6-.3-1.6-1l.2-.7c.4-.9.6-1.9.6-2.8s-.1-1.6-.3-2.2l-4.5-11.5h-21.1l-4.7,12.7c-.1.6-.2,1-.2,1.2,0,.7.3,1.8.9,3.1.1.3.2.6.2.7,0,.4-.3.6-.8.6h-9.2c-.5,0-.7-.3-.7-.8ZM297.8,280.2l-9.1-22.9-8.4,22.9h17.4Z"/>
    <path class="st0" d="M372.9,245c.6,1.4.9,3.1.9,5s-.4,3.7-1.1,5.3c-.7,1.6-1.8,2.8-3.3,3.5h-1.9c0-3.1-1-5.5-3.1-7.2-2.1-1.7-5.2-2.6-9.5-2.6v47.6c0,.9.1,1.6.4,2.3.3.7.7,1.3,1.2,2,.5.7.7,1.2.7,1.5s0,.5-.3.8c-.2.2-.4.3-.7.3h-21c-.3,0-.5-.1-.7-.3-.2-.2-.3-.5-.3-.8s.2-.8.7-1.5c.5-.7.8-1.4,1.2-2,.3-.6.5-1.4.5-2.3v-47.6c-4.2,0-7.5.9-9.7,2.6-2.2,1.7-3.3,4.1-3.3,7.2h-2.2c-1.3-.7-2.3-1.9-3.1-3.6-.7-1.7-1.1-3.5-1.1-5.4s.3-3.5,1-4.9c.7-1.4,1.5-2,2.6-2,1.6,0,4.5.3,8.8.9,6.6,1,11.8,1.5,15.6,1.5s6.2-.2,9.2-.5c3-.3,6.3-.7,10.1-1.2,2.9-.5,4.8-.7,5.9-.7s1.6.7,2.2,2.1Z"/>
    <path class="st0" d="M365.5,302.7c0-.2,0-.4.2-.5,1.6-1.4,2.7-3.1,3.4-4.9l17.7-46.4c.1-.3.2-.6.2-.9,0-.6-.2-1.1-.5-1.7-.3-.6-.7-1-1.2-1.4-.5-.3-.7-.6-.7-1s0-.5.3-.7.4-.3.7-.3c4-.5,7.1-1.1,9.4-2.1,2.3-.9,3.9-1.8,4.7-2.5.2-.2.4-.3.7-.3.8,0,1.4.4,1.7,1.2l21.6,55.6c.9,2.3,1.9,3.9,2.8,4.8.3.3.4.6.4.9,0,.5-.2.8-.7.8h-19.6c-1.1,0-1.6-.3-1.6-1l.2-.7c.4-.9.6-1.9.6-2.8s-.1-1.6-.3-2.2l-4.5-11.5h-21.1l-4.7,12.7c-.1.6-.2,1-.2,1.2,0,.7.3,1.8.9,3.1.1.3.2.6.2.7,0,.4-.3.6-.8.6h-9.2c-.5,0-.7-.3-.7-.8ZM399.2,280.2l-9.1-22.9-8.4,22.9h17.4Z"/>
  </g>
  <path class="st1" d="M421.1,128.3c-2.2,5.1-6.6,9-11,12.2-4.7,3.5-9.8,6.4-14.3,10.2-8.4,7.1-13.5,17.8-12.5,28.8.5,5.4,2.3,10.6,5.1,15.1,3,4.7,7,8.4,11.6,11.5,4.6,3.2,9.5,5.9,13.9,9.4,4.2,3.3,7.7,7.5,10,12.3,1.1,2.3,1.9,4.8,2.3,7.3.4,2.4.4,4.7.3,7.1,0,2,0,4.2.8,6s2.9,3,4.9,3c3.8-.1,5-4.9,4.5-7.9-.4-2.2-.3-4.5-.4-6.7,0-2.3-.3-4.6.2-7,1.3-5.4,5.3-9.7,9.7-12.9,4.8-3.5,10.1-6.1,15-9.4,9.1-6.1,17.3-14.7,19.4-25.8,1-5.5.4-11.1-2.1-16.1-2.3-4.7-6.1-8.6-10.1-11.9-8.3-7-18.3-11.9-25.4-20.2-1.7-2-3.1-4.2-4.3-6.5-.3-.7-1.4,0-1,.6,4.8,9.7,14.2,15.7,22.8,21.7,8.4,5.8,17.5,13.1,19.1,23.9,1.6,11.3-5,21.7-13.2,28.8-4.3,3.7-9.1,6.6-14,9.4-4.8,2.9-9.7,5.9-13.2,10.4-1.6,2-2.9,4.3-3.7,6.8-.4,1.2-.6,2.4-.6,3.7v3.3c0,2.3,0,4.6.2,6.9,0,.9.3,1.7.3,2.6s0,1.7-.4,2.5c-.5,1.5-1.6,2.8-3.3,2.7-1,0-2.1-.5-2.8-1.1-.7-.7-1.1-1.6-1.3-2.5-.4-1.9-.2-3.8,0-5.8,0-2.5-.2-5.1-.8-7.6-1.2-4.9-3.7-9.4-7-13.2-3.5-4.1-8-7.2-12.5-10.2-4.6-3-9.4-5.8-13.3-9.7-3.8-3.8-6.7-8.5-8.4-13.7-1.6-5-1.9-10.4-.8-15.6,1.1-5.3,3.5-10.2,6.9-14.4,7.3-8.8,18.7-12.8,26.2-21.3,1.7-1.9,3.1-4,4.1-6.4.3-.7-.9-1-1.2-.3h.3Z"/>
  <path class="st1" d="M421.6,128.8c2.2.9,4.5,1.8,6.9,2h3.6c1.1,0,2.2-.3,3.3-.7,1.1-.4,2.2-1,3.2-1.7.3-.2.4-.5.2-.8,0-.3-.6-.4-.8-.2-.4.3-.9.6-1.3.9-.4.2-.9.5-1.2.6-.5.2-.9.3-1.4.5-.5,0-1,.2-1.5.3h-3.6c-1.1,0-2.2-.3-3.2-.6-1.3-.4-2.5-.9-3.7-1.4-.3,0-.7,0-.7.4s0,.6.4.7h-.2Z"/>
  <path class="st1" d="M423.1,119.2v-.7h-1.2v3.9c0,1.3,0,2.6-.2,3.9,0,.7-.2,1.4-.3,2.1,0,.3,0,.7.4.7s.7,0,.7-.4c.5-2.6.6-5.3.6-8v-2.3c0-.3-.3-.6-.6-.6s-.6.3-.6.6v.7h0c0,.4.3.7.6.7s.6-.3.6-.6h0Z"/>
  <path class="st1" d="M438.8,119v-.6h-1.2c0,2.6.2,5.2.2,7.7v1.7c0,.3.3.6.6.6s.6-.3.6-.6c0-2.4,0-4.9-.2-7.3v-2.1c0-.3-.3-.6-.6-.6s-.6.3-.6.6v.6c0,.3.3.6.6.6s.6-.3.6-.6h0Z"/>
  <path class="st1" d="M435.7,120c1-.2,2.1-.5,2.9-1.2.5-.5.7-1.2.5-1.8-.2-.7-.6-1.2-1.2-1.6-1.2-.9-2.6-1.2-4.1-1.3-1.5-.2-3.1-.4-4.7-.4s-2.8,0-4.2.3c-1.1.3-2.4.9-3.1,1.9-.4.5-.7,1-.6,1.6,0,.6.4,1.2.9,1.6.9.8,2,1.1,3.2,1.3,1.5.3,3.1.3,4.6.3s3.1,0,4.7-.4c.4,0,.8,0,1.1-.2.3,0,.5-.4.4-.7,0-.3-.4-.5-.7-.4-1.4.3-2.7.4-4.1.5h-4.3c-.6,0-1.2,0-1.8-.3-.3,0-.5,0-.8-.2h-.5c-.2,0-.4-.2-.6-.4,0,0-.2,0,0,0h0s-.2-.3-.3-.4h0v-.2h0v-.2h0s0-.2,0,0v-.2h0v-.3h0c.2-.2.4-.4.6-.5h.2s.2,0,.3-.2c.2,0,.5-.3.7-.4.5-.2,1.1-.4,1.7-.5h1.8c1.4,0,2.8,0,4.2.3,1.3.2,2.7.2,4,.7h.3s.3,0,.4.2c0,0,.2.2.3.2,0,0,.2.2.3.3h0s0,.3,0,0c0,0,.2.2.2.4v.3h0c0,.2,0,0,0,0h0s0,0,0,.2h0s-.2,0-.3.2h-.5c-.2,0-.4,0-.7.2h-.6c-.3,0-.5.4-.4.7,0,.3.4.5.7.4h-.2l-.3.2Z"/>
  <path class="st1" d="M428.6,119.9c-.4-3.3-.9-6.8,0-10v-.7h0c0-.1,0-.2,0-.1,0-.1,0-.3.2-.4v-.2h0c0-.1,0,0,0,0,0-.1.2-.2.3-.3h.2c0-.1.2-.1.2-.1,0,0,.2,0,0,0h.4s.3,0,.4.1h0s.3.2.4.2h.2c.2.2.2.3.3.5h0v.2c0,.1.2.3.2.4s0,0,0,0v2.4c0,.8-.3,1.8-.6,2.6,0,.3,0,.7.4.7s.6,0,.7-.4c.5-1.7,1-3.6.4-5.3-.4-1.3-1.6-2.6-3-2.8-.7-.1-1.4,0-2.1.3-.7.4-1.1,1-1.4,1.7-.3.8-.5,1.6-.6,2.4,0,.9-.2,1.9-.2,2.8,0,2.1.2,4.1.5,6.2,0,.3.2.6.6.6s.6-.3.6-.6h0l1.4-.2h.5Z"/>
  <path class="st1" d="M392.2,156.2c4.5,2.4,9.3,4.3,14.2,5.6,5,1.4,10.1,2.3,15.2,2.7,5.1.4,10.3.3,15.4-.2,5.1-.6,10.2-1.6,15.1-3.2,4.9-1.5,9.6-3.6,14-6.1.5-.3,1.1-.6,1.6-.9.7-.4,0-1.4-.6-1-4.3,2.6-8.8,4.7-13.6,6.3-4.8,1.6-9.8,2.8-14.8,3.5s-10.1.9-15.1.6c-5.1-.3-10.1-1-15-2.3-4.9-1.2-9.6-2.9-14.1-5.2-.6-.3-1.1-.6-1.7-.9-.7-.4-1.3.7-.6,1h0Z"/>
  <path class="st1" d="M384.2,184.2c3.9,4.5,9.6,7.2,15.3,8.7,6.8,1.7,13.9,1.8,20.9,1.9,7.2,0,14.4.2,21.5-.3,6.7-.5,13.4-1.4,19.8-3.3,5.9-1.8,11.7-4.3,16.8-7.9.6-.4,1.2-.9,1.8-1.4s-.2-1.3-.9-.9c-4.8,3.8-10.4,6.5-16.1,8.4-6.2,2-12.6,3.1-19,3.7-7,.6-14,.6-21.1.5-7,0-14,0-20.9-1.3-5.8-1.1-11.6-3.3-15.9-7.4-.5-.5-1-1-1.4-1.5-.5-.6-1.4.3-.9.9h0Z"/>
  <path class="st1" d="M384.8,181.4c2.5-1.3,5-2.6,7.5-4,2-1.1,4.2-2,5.9-3.6,1.4-1.3,2.2-3.2,1.6-5.1-.5-1.6-2-3-3.8-2.8-2.1.2-3.3,2.1-3.7,4-.4,1.8-.4,3.8,0,5.6.8,3.7,3.2,7,6.2,9.3,3.2,2.4,7.3,3.4,11.3,2.9,3.9-.5,7.6-2.4,10.3-5.3,1.3-1.4,2.3-3,3-4.8.6-1.7,1.1-3.8.4-5.5-.8-2.1-3.1-2.7-5-1.6-2,1.1-2.6,3.5-2.5,5.5,0,4.2,2.3,8.1,5.6,10.5,3.5,2.6,8.2,3.4,12.5,2.5,4.2-.9,7.8-3.6,9.7-7.4.9-1.8,1.4-3.9,1.4-5.9s-.2-4.9-2.6-5c-2.4,0-3.2,2.6-3.3,4.6,0,2,.3,4,1.2,5.7,1.9,3.8,5.6,6.5,9.7,7.3,4.4.8,9.1-.2,12.6-2.9,3.4-2.6,5.6-6.6,6-10.8.2-2.2,0-4.7-1.5-6.5-1.3-1.6-3.7-2.4-5.7-1.5-1.9.9-2.9,3-2.7,5.1.2,2.3,1.6,4.4,3.1,6.1,1.4,1.6,3.1,2.9,5.1,3.7,1.7.7,3.8,1.2,5.7.6,1.6-.5,3-1.6,4.1-2.7,1.2-1.3,2.3-2.8,3-4.4.6-1.4,1-2.8.7-4.3-.1-.8-1.3-.4-1.2.3.2,1.2-.2,2.6-.7,3.7-.7,1.4-1.6,2.7-2.7,3.9-1,1-2.1,2-3.5,2.4-1.5.5-3.3,0-4.8-.5-1.8-.7-3.3-1.9-4.6-3.2-1.4-1.4-2.6-3.3-3-5.2-.3-1.7.4-3.7,2.1-4.4,1.8-.7,3.8.5,4.7,2.2s.9,3.9.5,5.8c-.3,1.8-1,3.6-2,5.2-2.1,3.4-5.5,5.6-9.3,6.4s-7.9,0-11-2.2c-2.8-2.1-4.8-5.6-4.7-9.2,0-.9,0-1.8.5-2.6.3-.7,1.2-1.5,2.1-1,.7.4.8,1.7.9,2.5v2.7c-.4,3.6-2.6,7-5.7,8.9-3.3,2-7.4,2.6-11.1,1.7-3.6-.9-6.8-3.3-8.5-6.7-.8-1.6-1.3-3.4-1.3-5.2s.5-4,2.4-4.6c.8-.3,1.7-.2,2.3.4.5.6.7,1.4.7,2.1,0,1.6-.5,3.3-1.3,4.7-3.2,6.2-11.1,9.5-17.8,7.5-6.3-1.9-11.6-8.6-10.3-15.4.3-1.5,1-3.4,2.8-3.6,1.5,0,2.5,1.3,2.7,2.6.2,1.7-1.2,3.2-2.5,4.1-1.8,1.3-3.8,2.2-5.7,3.2-2.1,1.1-4.2,2.2-6.3,3.3-.7.4,0,1.4.6,1h-.1Z"/>
  <g>
    <path class="st1" d="M244,37.4c-1.6-1.1-2.9-2.7-3.7-4.5,0-.2-.2-.2-.4-.2-.1,0-.2.2-.2.4.8,1.9,2.2,3.6,3.9,4.8.1,0,.3,0,.4,0s0-.3,0-.4h0Z"/>
    <path class="st1" d="M244.1,37.2c-.8-.6-1.6-1.3-2.3-2.1-.3-.4-.6-.8-.9-1.3-.1-.2-.2-.5-.4-.7,0-.2-.2-.4-.3-.6-.3-.2-.8.2-.6.5.2.5.5.9.7,1.4.5.9,1.2,1.7,1.9,2.4.2.2.4.4.7.6.2.2.4.4.7.5.4.2.9-.4.5-.7-.2-.1-.3,0-.2.2s0,.2,0,.2c0,0-.2,0-.2,0-.2-.1-.4-.3-.5-.4-.3-.3-.7-.6-1-.9-.6-.6-1.1-1.3-1.6-2.1-.2-.4-.4-.7-.6-1.1,0,0-.1-.2,0-.3,0,0,0-.1.2,0,0,0,.1.1.2.2,0,0,0,.2.2.3.4.8.9,1.5,1.4,2.2.6.7,1.4,1.4,2.1,2,.2,0,.3-.1.2-.2h0Z"/>
  </g>
  <g>
    <path class="st1" d="M244.3,37.5c-.6-1.8-1.2-3.6-1.8-5.4-.1-.3-.7-.2-.5.2.6,1.8,1.2,3.6,1.8,5.4.1.3.7.2.5-.2h0Z"/>
    <path class="st1" d="M244.5,37.4c-.3-1-.7-2-1-3-.2-.5-.3-1-.5-1.5,0-.2-.2-.5-.2-.7,0-.2-.1-.3-.3-.4-.3,0-.6.1-.6.4s0,.2,0,.3c0,.1,0,.3.1.4,0,.2.2.5.2.7.3,1,.7,2,1,3l.3.8c0,.2.1.4.3.5.3.1.7-.2.6-.5,0-.2-.3,0-.3,0,0,0,0,.2-.2.2-.2,0-.2-.2-.2-.4-.2-.4-.3-.8-.4-1.2-.3-.8-.6-1.6-.8-2.5-.2-.4-.3-.8-.4-1.2,0,0-.1-.2,0-.3.1,0,.2,0,.2.1.3.8.6,1.7.9,2.5.3.9.6,1.9,1,2.8,0,.2.3,0,.3,0h0Z"/>
  </g>
  <g>
    <path class="st1" d="M244.7,37.6c.4-1.8.5-3.7.3-5.5,0-.4-.6-.3-.6,0,.2,1.8,0,3.6-.3,5.3,0,.4.5.5.6,0h0Z"/>
    <path class="st1" d="M244.8,37.7c.2-1,.3-1.9.4-2.9v-1.5c0-.2,0-.5,0-.7,0-.2,0-.4-.1-.6-.2-.2-.6-.2-.7,0,0,.2,0,.4,0,.7v.7c0,1,0,2-.2,2.9,0,.3,0,.6-.2.8,0,.2-.2.4,0,.7,0,.1.2.2.4.2.2,0,.3-.2.4-.3,0-.2-.2-.2-.3,0,0,0-.2.1-.2,0-.1,0,0-.3,0-.4,0-.4.2-.8.2-1.2.1-.8.2-1.6.1-2.5,0-.4,0-.8,0-1.2,0-.1,0-.3,0-.3s.2.2.2.3c0,.8.1,1.7,0,2.5,0,.9-.2,1.9-.4,2.8,0,.2.2.2.3,0h0Z"/>
  </g>
  <g>
    <path class="st1" d="M243.7,37.4c1,4.1,2.1,8.1,3.4,12.1,1.3,3.8,2.9,7.6,5.1,11.1,2.1,3.5,4.6,6.7,7.7,9.4,3.1,2.7,6.7,4.9,10.4,6.7,3.8,1.9,7.7,3.3,11.7,4.7.5.2,1,.3,1.5.5.3.1.6-.4.2-.5-3.9-1.4-7.9-2.8-11.7-4.5-3.8-1.7-7.4-3.8-10.6-6.4-3.2-2.5-5.9-5.6-8.1-9-2.2-3.4-3.9-7.1-5.3-10.9-1.4-3.9-2.5-7.9-3.6-11.9-.1-.5-.2-1-.4-1.5,0-.3-.6-.2-.5.2h0Z"/>
    <path class="st1" d="M243.6,37.4c1.1,4.2,2.2,8.5,3.7,12.6,1.4,3.9,3.1,7.8,5.3,11.4,2.3,3.6,5.1,6.9,8.5,9.6,3.4,2.7,7.3,4.9,11.3,6.7,2,.9,4,1.7,6,2.5s2.1.8,3.1,1.1c.5.2,1,.4,1.5.5.3,0,.7.3,1,.2.2-.1.3-.4.2-.6,0-.1-.2-.2-.3-.2-.3,0-.6-.2-.9-.3-1-.3-2-.7-3.1-1.1-2.1-.7-4.1-1.5-6.1-2.4-4-1.7-7.9-3.8-11.4-6.5-3.5-2.7-6.4-5.9-8.8-9.6-2.3-3.6-4-7.5-5.5-11.4-1.5-4.1-2.6-8.3-3.6-12.5,0-.2-.2-.5-.5-.5-.2,0-.4.3-.4.5,0,.2.3.2.3,0,0-.1,0-.3.2-.2,0,0,0,.2.1.3,0,.3.1.5.2.8.1.5.2,1,.4,1.5.2,1,.5,2,.8,3,.6,2,1.1,4,1.8,6,1.3,3.8,2.9,7.6,4.9,11,2.1,3.6,4.6,6.8,7.7,9.5,3.1,2.8,6.7,5,10.5,6.8,3.8,1.9,7.7,3.3,11.7,4.7.5.2,1,.3,1.5.5,0,0,.2,0,.1.2,0,.1-.2,0-.3,0-.2,0-.5-.2-.7-.2-1-.3-2-.7-3-1.1-2-.7-3.9-1.5-5.9-2.3-3.9-1.7-7.7-3.6-11.1-6.1-3.4-2.4-6.4-5.5-8.8-8.9-2.4-3.3-4.2-7-5.7-10.8-1.5-3.9-2.7-7.9-3.8-11.9-.2-1-.5-2-.8-3,0-.2-.3,0-.3,0h0Z"/>
  </g>
  <g>
    <path class="st1" d="M245.4,43.3c-1.7-1.1-3.3-2.4-4.7-3.9-.4-.4-.8-.8-1.2-1.2,0-.1-.3,0-.4,0s0,.3,0,.4c1.4,1.5,2.9,2.9,4.5,4.2.5.3.9.7,1.4,1,.1,0,.3,0,.4,0s0-.3,0-.4h0Z"/>
    <path class="st1" d="M245.5,43.1c-2.1-1.5-4.1-3.2-5.9-5.1,0,0-.2-.2-.3-.2-.1,0-.2,0-.3,0-.2.1-.2.3-.1.5,0,.1.2.2.2.3s.2.2.3.4c.2.2.4.5.7.7.9.9,1.9,1.8,2.9,2.6.6.4,1.1.9,1.7,1.3.2.2.5.3.7,0,.2-.2.2-.5,0-.7-.2-.1-.3,0-.2.2,0,0,0,.2,0,.2,0,0-.2,0-.3,0-.2-.2-.5-.3-.7-.5-.4-.3-.9-.7-1.3-1-.9-.7-1.7-1.5-2.5-2.2-.4-.4-.8-.8-1.2-1.2,0,0-.2-.2-.2-.2s0-.2.2-.1c0,0,0,0,.1.1,0,0,0,.1.2.2,0,0,.2.2.3.3.8.8,1.6,1.6,2.4,2.3,1,.8,2,1.6,3,2.3.2,0,.3-.1.2-.2h0,0Z"/>
  </g>
  <g>
    <path class="st1" d="M245.4,43.6c-1.8-.2-3.5-1-4.8-2.2-.4-.3-.7-.7-1-1.1-.2-.3-.7,0-.5.3,1.1,1.5,2.8,2.7,4.6,3.2.5.2,1,.2,1.5.3.2,0,.3,0,.3-.2,0-.2,0-.3-.2-.3h0Z"/>
    <path class="st1" d="M245.4,43.5c-1.1-.1-2.3-.5-3.3-1.1-.5-.3-1-.6-1.4-1-.2-.2-.5-.5-.7-.7,0-.1-.2-.2-.3-.3,0,0-.1-.2-.2-.2-.3-.2-.7.2-.6.5,0,0,.1.2.2.3,0,.1.2.2.3.3.2.2.4.4.6.7.9.8,1.9,1.5,3,1.9.6.2,1.3.4,2,.5.3,0,.6,0,.7-.2,0-.2,0-.5-.3-.6-.2,0-.2.2,0,.3,0,0,.2.2,0,.2,0,0-.2,0-.4,0-.3,0-.5,0-.8-.2-.5-.1-1-.3-1.5-.5-1-.4-1.8-1-2.6-1.7-.2-.2-.4-.4-.6-.6,0,0-.2-.2-.2-.3,0,0-.2-.2-.2-.3,0,0,0-.2.2-.2s.1,0,.2.2c0,.1.2.2.3.3.7.8,1.5,1.4,2.4,1.9,1,.5,2.1.9,3.2,1,.2,0,.2-.2,0-.3h0c0,0,0,0,0,0Z"/>
  </g>
  <g>
    <path class="st1" d="M245.7,43.8c-1-1.8-2.1-3.5-3.4-5.1,0-.1-.2-.2-.4,0-.1,0-.2.3,0,.4,1.3,1.6,2.4,3.3,3.4,5.1,0,.1.3.2.4,0,.1,0,.2-.2,0-.4h0Z"/>
    <path class="st1" d="M245.9,43.7c-.5-.9-1.1-1.8-1.6-2.7-.3-.4-.6-.9-.9-1.3-.2-.2-.3-.4-.5-.7-.2-.2-.3-.4-.5-.6-.3-.2-.8,0-.7.4,0,0,0,.2.1.2,0,.1.2.2.3.3.2.2.3.4.5.6.6.8,1.2,1.7,1.8,2.6.2.2.3.5.4.7s.2.3.2.4c0,.1.1.2.2.3.1.2.4.2.6,0,.2-.1.2-.4.1-.6,0-.2-.3,0-.3,0,0,0,0,.2,0,.2s-.2,0-.2,0-.1-.2-.2-.3c0-.1-.1-.2-.2-.3-.2-.4-.4-.8-.7-1.1-.5-.7-1-1.5-1.5-2.2-.2-.3-.5-.7-.8-1,0,0-.1-.1-.1-.2s0-.1.1-.1c0,0,.2,0,.2.2,0,0,.2.2.2.3.6.7,1.1,1.4,1.5,2.1.6.8,1.1,1.7,1.5,2.5,0,.2.3,0,.2-.2h0,0Z"/>
  </g>
  <g>
    <path class="st1" d="M247.5,49c.9-1.7,1.2-3.6,1.1-5.5,0-.5-.2-1.1-.3-1.6,0-.2-.2-.2-.4-.2-.2,0-.2.2-.2.4.4,1.7.4,3.6-.2,5.3-.2.5-.4,1-.6,1.4-.2.3.3.6.5.2h0Z"/>
    <path class="st1" d="M247.6,49.1c1.1-2.1,1.4-4.6.9-6.9,0-.2,0-.5-.4-.6-.2,0-.5,0-.5.3v.3c0,.2,0,.3,0,.5,0,.3,0,.6.1.8,0,1.1,0,2.3-.3,3.4,0,.3-.2.7-.3,1,0,.2-.2.4-.2.5,0,.1-.2.2-.2.4,0,.2.1.4.3.4.2,0,.4,0,.5-.2,0-.2-.2-.3-.2-.1,0,0-.2,0-.3,0v-.2c0-.1.1-.3.2-.4.2-.5.4-1,.6-1.5.2-1,.3-2,.3-2.9,0-.5,0-1-.2-1.5,0-.1-.2-.6,0-.6.1,0,.1.2.2.2,0,.2,0,.3,0,.4.2,1,.2,2.1,0,3.2-.2,1.1-.5,2.2-1,3.3,0,.2.2.3.2.1h0Z"/>
  </g>
  <g>
    <path class="st1" d="M247.9,49.3c1.5-1.4,2.6-3.3,3.1-5.3.1-.6.2-1.2.2-1.8s-.2-.3-.3-.2c-.2,0-.2.2-.2.3,0,1.9-.7,3.8-1.9,5.4-.3.4-.7.8-1.1,1.2-.1,0-.2.2,0,.4,0,.1.3.2.4,0h0Z"/>
    <path class="st1" d="M248,49.4c1.9-1.7,3.1-4.1,3.3-6.6v-.4c0-.1,0-.3,0-.4-.1-.2-.4-.2-.6-.1-.2.2-.2.5-.2.7s0,.6,0,.9c-.2,1.2-.7,2.3-1.3,3.3-.4.6-.8,1.2-1.4,1.7-.2.2-.5.4-.3.7,0,.2.4.3.6.2.2-.1,0-.3-.2-.2h-.2c0-.1,0-.2.1-.3.2-.2.4-.4.6-.7.4-.4.7-.9,1-1.3.6-.9,1-1.9,1.2-2.9.1-.5.2-1,.2-1.5s0-.3,0-.3c0,0,.2,0,.2.2,0,.3,0,.6,0,.9-.1,1.1-.4,2.2-.9,3.2-.6,1.1-1.3,2.1-2.2,2.9-.1.1,0,.3.2.2h0Z"/>
  </g>
  <g>
    <path class="st1" d="M247.6,48.9h-.3c0,.2,0,.4.1.6,1.7-.4,3.3-1.4,4.4-2.8.3-.4.6-.8.8-1.3.2-.3-.3-.6-.5-.2-.7,1.5-2,2.7-3.5,3.3-.4.2-.9.3-1.4.4-.1,0-.2.2-.2.3,0,.1.2.2.3.2h.3c.4,0,.3-.6,0-.6h0c0,0,0,0,0,0Z"/>
    <path class="st1" d="M247.5,48.7h-.3c0,0-.2,0-.1.2,0,.2,0,.4.1.6,0,0,.1,0,.2,0,1.2-.2,2.4-.8,3.3-1.6.5-.4.9-.8,1.3-1.3.2-.3.4-.6.6-.8.1-.2.3-.5.2-.7,0-.2-.2-.2-.4-.2-.2,0-.3.2-.4.4-.3.6-.7,1.1-1.1,1.5-.9.9-2,1.6-3.3,1.9-.2,0-.3,0-.4.2,0,0-.1.2,0,.4,0,.1.1.2.2.3.1,0,.3,0,.4,0,.2,0,.4-.2.4-.5s-.2-.4-.5-.4-.2.3,0,.3.2.2,0,.2c0,0-.2,0-.3,0-.1,0-.2,0-.2-.2,0-.1.2-.1.3-.2.2,0,.3,0,.4-.1.2,0,.5-.2.8-.3,1-.4,1.8-1,2.5-1.8.3-.4.7-.8.9-1.3,0,0,.1-.2.2-.3,0,0,0,0,.1,0,.2,0,.2.1.1.2-.5,1-1.2,1.8-2,2.5-.9.7-2,1.2-3.1,1.5,0,0,.1,0,.2,0,0-.2,0-.4-.1-.6,0,0,0,.1-.1.2h.3c.2,0,.2-.3,0-.3h0c0,0,0,0,0,0Z"/>
  </g>
  <g>
    <path class="st1" d="M248.9,53.1c-2.1-.8-3.9-2.2-5.3-3.9-.4-.5-.7-1-1.1-1.6,0-.1-.3-.2-.4,0-.1,0-.2.2,0,.4,1.1,2,2.8,3.7,4.8,4.9.6.3,1.1.6,1.8.8.2,0,.3,0,.4-.1s0-.3-.1-.4h0Z"/>
    <path class="st1" d="M248.9,52.9c-2.6-1-4.8-2.9-6.2-5.3,0-.1-.1-.2-.3-.3h-.4c-.2.2-.2.4-.1.7.3.6.7,1.1,1.1,1.7.8,1.1,1.9,2,3,2.7.7.4,1.3.8,2,1.1.3.1.6.3.9,0,.2-.2.2-.6,0-.7-.2,0-.3.2-.1.2,0,0,.1.2,0,.2-.1,0-.3,0-.4,0-.3-.1-.6-.2-.9-.4-.6-.3-1.1-.6-1.6-.9-1-.7-1.9-1.5-2.6-2.4-.4-.5-.7-1-1-1.5,0,0-.2-.2-.2-.4s.2-.2.2,0,0,.1,0,.2c0,0,0,.2.1.2,0,.2.2.3.2.4.7,1,1.5,1.9,2.4,2.7,1.1.9,2.2,1.5,3.5,2,.2,0,.3-.2.1-.2,0,0,0,0,0,0Z"/>
  </g>
  <g>
    <path class="st1" d="M248.7,53.3c-2.6-.4-5.1-1.6-7-3.3-.5-.5-1-1-1.5-1.6-.2-.3-.7,0-.5.3,1.7,2.2,4,3.8,6.6,4.6.7.2,1.5.4,2.3.5.4,0,.5-.5,0-.6h0Z"/>
    <path class="st1" d="M248.7,53.2c-3.2-.5-6.3-2.2-8.3-4.8,0-.1-.2-.2-.3-.3h-.3c-.2,0-.3.3-.2.6,0,.2.2.3.3.5.1.2.2.3.4.5.3.3.6.6.9.9,1.2,1.1,2.6,2,4.1,2.6.9.3,1.7.6,2.7.8.2,0,.4,0,.7,0s.3,0,.4-.2c.2-.2,0-.6-.3-.7-.2,0-.2.2,0,.3,0,0,.1,0,0,.2,0,.1-.2,0-.3,0-.4,0-.7-.1-1.1-.2-.7-.2-1.4-.4-2.1-.7-1.4-.6-2.6-1.4-3.7-2.4-.6-.5-1.1-1.1-1.5-1.6,0,0-.2-.2-.1-.2,0,0,0,0,.2,0s.2.2.3.3c.1.2.2.3.4.5,1,1.1,2.1,2,3.4,2.7,1.4.8,2.9,1.3,4.6,1.6.2,0,.2-.2,0-.3Z"/>
  </g>
  <g>
    <path class="st1" d="M248.6,53.7c-1.8.2-3.5,0-5.2-.8-.5-.2-.9-.4-1.4-.7-.1,0-.3,0-.4.1,0,.2,0,.3.1.4,1.6.9,3.4,1.5,5.3,1.5h1.5c.4,0,.3-.6,0-.6h0Z"/>
    <path class="st1" d="M248.6,53.5c-1.1,0-2.3,0-3.4-.2-.6-.1-1.1-.3-1.6-.5-.3-.1-.6-.2-.9-.4-.1,0-.2-.1-.4-.2-.1,0-.2-.2-.4-.2-.2,0-.4.2-.5.4,0,.2.2.4.3.5.5.3,1,.5,1.6.7,1.1.4,2.2.7,3.3.7h1.5c.2,0,.3,0,.5,0,.2,0,.3-.3.3-.5s-.2-.4-.4-.3c-.2,0-.2.3,0,.3s.2.2,0,.2c0,0-.2,0-.3,0h-.4c-.5,0-1.1,0-1.5,0-1,0-2-.3-2.9-.7-.5-.2-.9-.4-1.4-.6-.1,0-.6-.2-.3-.4,0,0,.2,0,.3,0,.1,0,.2.1.4.2.9.5,1.9.8,2.8,1,1.1.2,2.2.3,3.3.2.2,0,.2-.3,0-.3h0Z"/>
  </g>
  <g>
    <path class="st1" d="M251.5,58.3v.2h.6c0-2.3,0-4.5-.2-6.8,0-.4-.6-.3-.6,0,0,2.3.2,4.5.2,6.8,0,.3.5.3.6,0v-.2c0-.4-.5-.5-.6,0h0Z"/>
    <path class="st1" d="M251.4,58.3v.2c0,0,0,.2.1.2h.6c0,0,.2,0,.2-.2,0-1.4,0-2.7,0-4.1,0-.7,0-1.3,0-2v-.5c0-.1,0-.2,0-.4,0-.2-.3-.2-.5-.2-.2,0-.3.2-.4.4v1c0,.7,0,1.4,0,2s0,1.3,0,2v1.9c0,.2.3.3.5.3.3,0,.3-.3.3-.6,0-.5-.7-.6-.8,0,0,.2.2.2.3,0,0-.1.2-.2.2,0,0,0,0,.2,0,.2,0,0,0,.2-.1.2-.2,0-.2-.2-.2-.4v-.8c0-1.1,0-2.2,0-3.3,0-.5,0-1.1,0-1.6v-.8c0,0,.2-.2.2,0,0,0,0,.2,0,.3v1.2c0,.6,0,1.1,0,1.6,0,1.2,0,2.5,0,3.7,0,0,.1,0,.2-.2h-.6v.2c.1,0,.1-.2.1-.2,0-.2-.2-.2-.3,0h.2Z"/>
  </g>
  <g>
    <path class="st1" d="M252.3,59c.8-1.8,1.3-3.8,1.4-5.8,0-.6,0-1.1,0-1.7s-.6-.3-.6,0c0,1.9-.2,3.8-.8,5.6-.2.5-.4,1-.6,1.5-.2.3.4.6.5.2h0Z"/>
    <path class="st1" d="M252.4,59.1c1-2.4,1.5-4.9,1.5-7.4,0-.2,0-.4-.3-.5-.2,0-.4,0-.5.2,0,0,0,.2,0,.3v1.4c0,1.2-.3,2.5-.7,3.7,0,.4-.2.7-.4,1.1,0,.2-.1.3-.2.5,0,.1-.2.3-.2.4,0,.5.6.7.8.2,0-.2-.2-.3-.2-.1,0,0-.2,0-.2,0v-.2c0-.2.1-.3.2-.4.2-.5.4-1.1.6-1.6.3-1.1.5-2.1.6-3.2,0-.6,0-1.1,0-1.6s0-.4.2-.4,0,0,0,.1v.4c0,1.1-.1,2.3-.3,3.4-.2,1.2-.6,2.4-1.1,3.6,0,.2.2.3.2.1h0c0,0,0,0,0,0Z"/>
  </g>
  <g>
    <path class="st1" d="M252.2,59.3c1.5-1.2,2.6-2.9,3.1-4.8.2-.5.2-1.1.3-1.6,0-.2,0-.3-.2-.3-.1,0-.3,0-.3.2-.1,1.8-.9,3.6-2,5-.3.4-.7.7-1.1,1.1-.1,0-.2.2,0,.4,0,.1.3.2.4,0h0Z"/>
    <path class="st1" d="M252.3,59.4c1.9-1.5,3.1-3.7,3.4-6,0-.2.1-.6,0-.8-.1-.2-.4-.2-.6,0-.2.2-.2.4-.2.7,0,.3,0,.6-.2.8-.2,1.1-.7,2.2-1.4,3.1-.4.6-.9,1.1-1.4,1.5-.1,0-.2.2-.3.3v.3c.1.2.4.3.6.2.2,0,0-.3-.2-.2,0,0-.2,0-.2,0,0-.1,0-.2.1-.2.2-.2.4-.4.6-.6.4-.4.7-.8,1-1.2.6-.8,1-1.7,1.2-2.6.1-.5.2-1,.3-1.4,0,0,0-.2,0-.3,0,0,.2,0,.2,0v.3c0,.1,0,.3,0,.4-.2,1-.5,2-1,2.9-.6,1-1.3,1.9-2.3,2.7-.2.1,0,.3.2.2h0Z"/>
  </g>
  <g>
    <path class="st1" d="M253.2,61.3c-2,.2-4.1-.3-5.9-1.3-.5-.3-1-.6-1.4-1-.3-.2-.7.2-.4.4,1.7,1.4,3.7,2.2,5.9,2.4.6,0,1.2,0,1.8,0,.4,0,.3-.6,0-.6h0Z"/>
    <path class="st1" d="M253.1,61.1c-1.3,0-2.6,0-3.8-.5-.6-.2-1.2-.4-1.7-.7-.3-.2-.6-.4-.9-.6s-.3-.2-.4-.3c-.1,0-.2-.2-.4-.3-.4-.2-.7.3-.5.7,0,0,.2.2.3.3.2.1.3.2.4.3.3.2.6.4.8.5,1.1.7,2.4,1.1,3.8,1.3.8.1,1.5.2,2.3.1.2,0,.3,0,.4,0,0,0,.2-.2.2-.3,0-.2-.2-.4-.5-.4s-.2.3,0,.3.2.2,0,.3h-.9c-.6,0-1.2,0-1.8-.2-1.2-.2-2.3-.6-3.3-1.2-.5-.3-1-.6-1.5-1,0,0,0,0,0-.2s0,0,0,0c0,0,.2,0,.2,0,.1,0,.2.2.4.3,1,.7,2,1.2,3.1,1.5,1.2.4,2.5.5,3.8.4.2,0,.2-.3,0-.3h0q0,0,0,0Z"/>
  </g>
  <g>
    <path class="st1" d="M252.8,60.7c-1.8-.6-3.5-1.6-5-2.9-.4-.4-.8-.7-1.2-1.2,0-.1-.3,0-.4,0s0,.3,0,.4c1.3,1.5,2.9,2.7,4.7,3.5.5.2,1,.4,1.6.6.2,0,.3,0,.4-.1s0-.3-.1-.4h0Z"/>
    <path class="st1" d="M252.9,60.6c-1.2-.4-2.3-.9-3.3-1.6-.5-.3-1-.7-1.5-1.1-.2-.2-.5-.4-.7-.6-.1-.1-.2-.2-.3-.3-.1-.1-.2-.2-.3-.4-.2-.2-.4-.1-.6,0-.2.2-.2.4,0,.6,0,.1.2.2.3.3s.2.2.3.3c.2.2.4.4.7.6.9.8,2,1.5,3,2.1.6.3,1.3.6,1.9.8.2,0,.5.2.7,0,.2-.2,0-.5-.2-.7-.2,0-.3.2-.1.2,0,0,.1.2,0,.2,0,0-.2,0-.3,0-.2,0-.5-.2-.8-.3-.5-.2-1-.4-1.5-.7-.9-.5-1.8-1.1-2.6-1.8-.4-.3-.8-.7-1.1-1.1,0,0-.2-.2-.2-.2s0-.2.2-.1c0,0,0,0,.1.1,0,0,0,.1.2.2,0,0,.2.2.3.3.7.7,1.6,1.4,2.5,2,1,.6,2.1,1.1,3.2,1.5.2,0,.3-.2.1-.2h0Z"/>
  </g>
  <g>
    <path class="st1" d="M252.6,60.8c-2.3.4-4.7.8-7,0-.6-.2-1.1-.6-1.6-1-.3-.2-.7.2-.4.4,1.8,1.7,4.5,1.9,6.9,1.6.7,0,1.4-.2,2.1-.3.2,0,.3-.2.2-.3,0-.2-.2-.3-.3-.2h0Z"/>
    <path class="st1" d="M252.6,60.7c-2.7.5-6,1-8.3-1-.2-.2-.4-.4-.7-.2-.2.1-.2.4-.2.6,0,.1.2.2.3.3.1.1.3.2.4.3.3.2.6.4.9.5,1.3.6,2.7.7,4.1.7.8,0,1.7-.2,2.5-.3.2,0,.5,0,.7-.1.2,0,.4,0,.5-.2.2-.3,0-.7-.4-.7-.2,0-.2.3,0,.3.2,0,.2.2,0,.2,0,0-.2,0-.2,0,0,0-.2,0-.3,0-.4,0-.7.1-1.1.2-.7,0-1.3.2-2,.2-1.3,0-2.5-.1-3.7-.6-.3-.1-.6-.3-.8-.4-.1,0-.2-.2-.4-.3s-.3-.2-.4-.3c0,0,0-.3.1-.2,0,0,.1,0,.2.1,0,0,.1.1.2.2.2.1.3.2.4.3,1.1.7,2.4,1,3.7,1,1.4,0,2.8-.2,4.2-.4.2,0,.2-.3,0-.3h0Z"/>
  </g>
  <g>
    <path class="st1" d="M259.2,67.9c-.4-2.4-1.1-4.8-2-7.1-.3-.7-.6-1.3-.8-1.9,0-.1-.2-.2-.4-.2-.1,0-.2.2-.2.4,1.1,2.2,1.9,4.5,2.4,6.9.2.7.3,1.3.4,2,0,.2.2.3.3.2.2,0,.3-.2.2-.3h0Z"/>
    <path class="st1" d="M259.4,67.9c-.5-2.9-1.4-5.7-2.6-8.4,0-.2-.2-.3-.2-.5s-.1-.3-.2-.4c-.2-.1-.5,0-.6.2,0,.1,0,.2,0,.3,0,.2.2.3.2.5.2.3.3.7.4,1,.6,1.3,1.1,2.7,1.5,4.1.2.8.4,1.6.6,2.5,0,.2,0,.4.1.7,0,.2.1.3.3.4.3.1.6-.1.6-.4,0-.2-.3-.2-.3,0,0,.1-.1.2-.2.1,0,0,0-.2,0-.2,0,0,0-.2,0-.3,0-.3-.1-.7-.2-1-.2-.7-.3-1.3-.5-1.9-.3-1.3-.8-2.5-1.3-3.7-.2-.6-.5-1.2-.8-1.8,0,0-.1-.2,0-.3.1-.1.2,0,.3.2.2.3.3.6.4,1,.5,1.2,1,2.4,1.4,3.7.4,1.4.8,2.8,1,4.2,0,.2.3.2.3,0h0Z"/>
  </g>
  <g>
    <path class="st1" d="M259.4,68c0-2.9-.5-5.8-1.5-8.5-.3-.8-.6-1.5-.9-2.2,0-.1-.2-.2-.4-.2-.1,0-.2.2-.2.4,1.2,2.6,2,5.4,2.3,8.2,0,.8.1,1.6.1,2.4s.2.3.3.2c.2,0,.2-.2.2-.3h0Z"/>
    <path class="st1" d="M259.6,68c0-1.6-.2-3.3-.5-4.9-.3-1.6-.8-3.3-1.5-4.8,0-.2-.2-.4-.3-.6,0-.2-.2-.4-.3-.6-.2-.3-.6-.3-.7,0,0,.2,0,.3,0,.4,0,.2.2.4.2.6.2.4.3.7.5,1.1.6,1.5,1,3.2,1.3,4.8.1.8.2,1.7.3,2.5v1.4c0,.5,0,.3.2.4.1,0,.3.1.4,0,.2,0,.2-.2.2-.4s-.3-.2-.3,0,0,.2-.1.2-.1,0-.1,0v-.6c0-.4,0-.8,0-1.2,0-.7-.2-1.5-.3-2.3-.2-1.5-.6-2.9-1.1-4.4-.2-.7-.5-1.4-.9-2.1,0-.1-.2-.2,0-.3.2,0,.3.2.3.3.2.4.3.7.5,1.1.6,1.4,1,2.9,1.3,4.4.3,1.6.5,3.3.5,5s.3.2.3,0h0Z"/>
  </g>
  <g>
    <path class="st1" d="M259.7,68.6c.4-1.5.5-3.1.4-4.6,0-1.5-.3-3.1-.8-4.6-.2-.8-.6-1.6-1-2.4,0-.1-.2-.2-.4-.2-.1,0-.2.2-.2.4.7,1.4,1.2,2.8,1.5,4.3.3,1.5.4,3,.2,4.5,0,.9-.2,1.7-.4,2.5,0,.4.5.5.6,0,0,0,0,0,0,0Z"/>
    <path class="st1" d="M259.8,68.6c.4-1.7.6-3.5.4-5.3-.1-1.8-.6-3.6-1.2-5.3,0-.2-.2-.4-.3-.7,0-.2-.2-.4-.3-.6-.2-.3-.6-.2-.7.1,0,.2,0,.3.1.5,0,.2.2.4.3.6.2.4.3.8.5,1.3.6,1.7.9,3.5.9,5.3s0,1.8-.2,2.7c0,.2,0,.4-.1.7,0,.2-.1.4-.1.6s.3.4.6.3c.1,0,.2-.2.2-.3,0-.2-.2-.2-.3,0,0,0-.1.1-.2,0-.1,0,0-.3,0-.4,0-.4.2-.8.2-1.2.1-.8.2-1.6.2-2.4,0-1.6-.2-3.2-.7-4.8-.2-.8-.5-1.6-.9-2.3,0,0,0-.2-.1-.2,0,0,0-.1,0-.2,0,0,0-.1.1-.1,0,0,.2.1.2.2.2.4.4.8.5,1.2.6,1.5,1,3.2,1.1,4.8.2,1.8,0,3.7-.4,5.5,0,.2.2.2.3,0h0Z"/>
  </g>
  <g>
    <path class="st1" d="M257.5,66.8c-2.3,0-4.6-.4-6.7-1.2-.6-.2-1.2-.5-1.8-.8-.3-.2-.6.3-.2.5,2.1,1.1,4.4,1.8,6.8,2,.7,0,1.4,0,2,0,.4,0,.3-.6,0-.6h0Z"/>
    <path class="st1" d="M257.5,66.7c-1.4,0-2.9-.1-4.2-.5-.7-.2-1.4-.4-2.1-.6s-.7-.3-1.1-.4c-.4-.2-.7-.3-1.1-.5-.4-.2-.8.4-.4.7.1,0,.2.2.4.2.2,0,.3.2.5.2.3.2.7.3,1,.4,1.3.5,2.8.9,4.2,1.1.8.1,1.7.2,2.5.2s.7,0,.7-.3c0-.3-.2-.5-.4-.5-.2,0-.2.3,0,.3s.1,0,.2.2c0,.1,0,.1-.2.1h-1c-.7,0-1.4,0-2-.2-1.3-.2-2.5-.5-3.8-1-.6-.2-1.2-.5-1.8-.8,0,0-.2,0-.2-.2,0,0,0-.2,0-.2s.2,0,.2,0c.2,0,.3.2.5.2,1.2.6,2.4,1,3.7,1.3,1.4.3,2.8.5,4.2.4.2,0,.2-.3,0-.3h0Z"/>
  </g>
  <g>
    <path class="st1" d="M256.9,66.7c-1.9,1-4.1,1.4-6.2,1.3-.6,0-1.2-.1-1.8-.2-.4,0-.5.5,0,.6,2.2.5,4.6.3,6.7-.4.6-.2,1.2-.5,1.8-.8.1,0,.2-.3,0-.4,0-.2-.2-.2-.4,0h0Z"/>
    <path class="st1" d="M256.8,66.6c-1.2.6-2.5,1-3.8,1.2s-1.3.1-2,.1-.7,0-1.1,0c-.4,0-.7-.1-1.1-.2-.5,0-.7.7-.2.8.3,0,.7.1,1,.2.3,0,.7,0,1,0,1.3,0,2.6,0,3.8-.4.8-.2,1.5-.4,2.2-.8.2,0,.4-.2.6-.3.2,0,.2-.2.2-.4,0-.3-.3-.5-.6-.4-.2,0,0,.3,0,.3,0,0,.2,0,.2,0s-.2.2-.3.3c-.3.2-.6.3-.9.4-.6.2-1.1.4-1.7.5-1.1.2-2.3.4-3.5.3-.6,0-1.2,0-1.7-.2,0,0-.2,0-.3,0v-.2c0,0,.3,0,.3,0,.2,0,.3,0,.5,0,1.2.2,2.4.2,3.6,0,1.3-.2,2.6-.6,3.8-1.2.2,0,0-.3-.2-.2h0Z"/>
  </g>
  <g>
    <path class="st1" d="M256.8,66.3c-1.8-.6-3.5-1.5-5-2.7-.3-.2-.7.2-.4.4,1.5,1.3,3.3,2.3,5.2,2.9.2,0,.3,0,.3-.2,0-.2,0-.3-.2-.3h0Z"/>
    <path class="st1" d="M256.8,66.1c-1-.3-2-.7-2.9-1.3-.5-.3-.9-.6-1.3-.9-.2-.2-.4-.3-.6-.5-.1,0-.2-.2-.4-.1-.3,0-.4.4-.2.7,0,0,.1.1.2.2,0,0,.2.2.3.2.2.2.4.3.7.5.9.6,1.8,1.1,2.7,1.5.3.1.5.2.8.3.2,0,.3,0,.4.2.1,0,.2,0,.4,0,.2,0,.4-.2.4-.4,0-.2,0-.4-.3-.5-.2,0-.3.2-.1.2,0,0,.2,0,.2.1s0,.1,0,.2c0,0-.2,0-.3,0,0,0-.2,0-.3-.1-.4-.2-.8-.3-1.2-.5-.8-.4-1.6-.8-2.3-1.3-.2-.1-.4-.2-.5-.4-.2-.1-.4-.2-.5-.4s0-.2,0-.2c0,0,.2,0,.2,0,.7.6,1.4,1.1,2.2,1.5.9.5,1.8.9,2.8,1.2.2,0,.2-.2,0-.3h0c0,0,0,.1,0,.1Z"/>
  </g>
  <g>
    <path class="st1" d="M266.3,73.4c-.8-2.8-1.7-5.5-2.9-8.2-.3-.7-.7-1.5-1-2.3,0-.1-.2-.2-.4-.2-.1,0-.2.2-.2.4,1.2,2.6,2.3,5.4,3.2,8.1.2.8.5,1.6.7,2.4,0,.3.7.2.5-.2h0Z"/>
    <path class="st1" d="M266.4,73.4c-.9-3.4-2.1-6.7-3.6-9.8,0-.2-.2-.4-.3-.6,0-.2-.2-.3-.3-.3-.3,0-.6.2-.6.5s0,.2,0,.2c0,0,0,.2.1.3,0,.2.2.4.3.6.2.4.3.8.5,1.2.7,1.6,1.3,3.2,1.9,4.9.3.9.6,1.9.9,2.8,0,.2,0,.4.2.7,0,.1.2.2.3.2.3,0,.5-.3.4-.6,0-.2-.3,0-.3,0,0,0,0,.2-.1.2-.1,0-.2-.2-.2-.2-.1-.4-.2-.8-.3-1.1-.2-.7-.5-1.5-.7-2.2-.5-1.5-1.1-2.9-1.7-4.4-.3-.7-.6-1.5-1-2.2,0,0,0-.2-.1-.2,0,0,0-.1,0-.2,0-.2.2-.2.3,0,0,.2.2.4.2.5,0,.2.2.4.2.6.7,1.5,1.2,2.9,1.8,4.4.6,1.6,1.1,3.3,1.6,5,0,.2.3,0,.3,0h0Z"/>
  </g>
  <g>
    <path class="st1" d="M266.6,73.5c0-2.8-.5-5.5-1.3-8.2-.2-.7-.5-1.5-.7-2.2-.1-.3-.7-.2-.5.2,1,2.5,1.6,5.2,1.9,7.9,0,.8.1,1.5.2,2.3,0,.4.6.3.6,0h0Z"/>
    <path class="st1" d="M266.7,73.5c0-3.3-.7-6.6-1.8-9.7,0-.2-.1-.4-.2-.6,0-.2-.1-.3-.3-.4-.2,0-.5,0-.6.2,0,.2,0,.3,0,.4,0,.2.2.4.2.6.2.4.3.8.4,1.2.5,1.5.8,3.2,1.1,4.8.1.9.2,1.9.3,2.8v.7c0,.1.1.2.2.3.3.1.6-.1.6-.4s-.3-.2-.3,0,0,.2-.2.2,0-.2-.1-.3c0-.4,0-.8,0-1.2,0-.8-.1-1.5-.2-2.3-.2-1.5-.5-2.9-1-4.3-.2-.7-.5-1.4-.7-2.1,0,0-.1-.2,0-.3,0,0,.2,0,.2,0,0,0,0,.2,0,.2,0,0,0,.2,0,.2,0,.2.1.4.2.6.5,1.4.9,2.9,1.1,4.4.3,1.6.5,3.3.5,4.9,0,.2.3.2.3,0h0Z"/>
  </g>
  <g>
    <path class="st1" d="M266.8,74c.8-2.5.9-5.3.2-7.9-.2-.7-.5-1.4-.8-2.1,0-.1-.2-.2-.4-.2-.1,0-.2.2-.2.4,1.1,2.3,1.5,4.9,1.1,7.4,0,.7-.2,1.4-.5,2.1,0,.2,0,.3.1.4s.3,0,.4-.1h0Z"/>
    <path class="st1" d="M266.9,74c.9-2.9.9-6,0-8.9-.2-.4-.3-.8-.5-1.2,0-.2-.2-.3-.3-.3s-.3,0-.4.1c-.2.3,0,.6,0,.9.2.3.3.7.4,1,.5,1.4.7,2.9.7,4.4,0,.9-.1,1.7-.3,2.6,0,.2-.1.5-.2.7,0,.2-.2.4,0,.6,0,.4.7.4.8,0,0-.2-.2-.3-.2-.1,0,.2-.3,0-.3,0s0-.2,0-.2c0,0,0-.2,0-.3,0-.4.2-.7.2-1.1.1-.7.2-1.4.2-2.1,0-1.3-.1-2.7-.5-4-.2-.7-.4-1.3-.7-1.9,0,0-.1-.2,0-.3.2,0,.2.2.3.3.2.3.3.7.4,1.1.4,1.3.7,2.7.7,4.1,0,1.5-.2,3-.7,4.5,0,.2.2.3.2.1h0,0Z"/>
  </g>
  <g>
    <path class="st1" d="M264.4,73.1c-2.2,1.3-4.8,2-7.4,2-.7,0-1.5,0-2.2,0-.4,0-.5.5,0,.6,2.7.3,5.4,0,7.9-1.1.7-.3,1.4-.6,2.1-1,.1,0,.2-.3,0-.4,0-.1-.2-.2-.4,0h0Z"/>
    <path class="st1" d="M264.3,72.9c-2.7,1.5-6,2.3-9.1,2-.3,0-.7-.1-.8.2-.1.2,0,.5.2.6.2,0,.4,0,.5,0,.2,0,.4,0,.6,0h1.1c1.5,0,3-.3,4.5-.7.9-.2,1.7-.6,2.5-1,.2,0,.4-.2.7-.3.2,0,.4-.2.4-.4.1-.4-.2-.7-.6-.5-.2,0,0,.3,0,.3,0,0,.2,0,.2,0,0,0,0,.1,0,.2,0,0-.1,0-.2.1,0,0-.2,0-.3.2-.3.2-.7.4-1.1.5-.7.3-1.3.5-2,.7-1.3.4-2.7.6-4.1.6-.7,0-1.4,0-2.1,0,0,0-.2,0-.3,0s0-.2.1-.2h.5c.2,0,.4,0,.6,0,1.4,0,2.9,0,4.2-.4,1.5-.3,3-.9,4.3-1.7.2,0,0-.3-.2-.2h0Z"/>
  </g>
  <g>
    <path class="st1" d="M264,72.5c-1.8.7-3.6,1.1-5.5,1.1-.5,0-1.1,0-1.6,0-.2,0-.3,0-.3.2,0,.2,0,.3.2.3,2,.2,4,0,5.9-.6.5-.2,1.1-.3,1.6-.6.3-.2.2-.7-.2-.5h0Z"/>
    <path class="st1" d="M263.9,72.4c-1.1.5-2.3.8-3.5,1-.6,0-1.2.2-1.8.2h-1.5c-.2,0-.3,0-.5,0-.2,0-.4.3-.3.5,0,.3.3.3.6.3.6,0,1.2,0,1.8,0,1.2,0,2.4-.2,3.5-.5.3,0,.7-.2,1-.3.2,0,.4-.1.6-.2.2,0,.3-.1.5-.2.4-.2.1-1-.3-.8-.2,0,0,.3,0,.3.1,0,.2,0,.2.2,0,0-.2,0-.2.1-.2,0-.3.1-.4.2-.5.2-1.1.3-1.6.5-1,.2-2,.4-3.1.4h-1.6c-.1,0-.2,0-.4,0,0,0-.2,0-.2-.2,0-.2.2-.1.3,0,.2,0,.3,0,.4,0,1.1,0,2.2,0,3.3-.2,1.2-.2,2.3-.5,3.4-1,.2,0,0-.3,0-.3h0c0,0,0,0,0,0Z"/>
  </g>
  <g>
    <path class="st1" d="M263.8,72.4c-2.3.3-4.6.3-6.8,0-.7,0-1.3-.2-1.9-.4-.4,0-.5.5,0,.6,2.3.6,4.6.8,6.9.7.7,0,1.3,0,2-.2.4,0,.3-.6,0-.6h0Z"/>
    <path class="st1" d="M263.8,72.2c-2.9.4-5.8.2-8.6-.4-.2,0-.5,0-.6.2,0,.2,0,.4.2.6.1,0,.3,0,.4.1.2,0,.4,0,.6.1.3,0,.7.1,1.1.2,1.4.2,2.8.3,4.2.3s1.7,0,2.5-.2c.2,0,.3,0,.5-.1,0,0,.2-.2.2-.3,0-.3-.2-.5-.4-.5s-.2.3,0,.3c.2,0,.2.2,0,.3-.2,0-.3,0-.5,0-.2,0-.4,0-.5,0-.7,0-1.3,0-1.9,0-1.3,0-2.5,0-3.8-.3-.6,0-1.3-.2-1.9-.4,0,0-.2,0-.3-.1v-.2c0,0,.2,0,.3,0,.2,0,.3,0,.5.1,1.3.2,2.5.4,3.8.5,1.4,0,2.8,0,4.2-.2.2,0,.2-.3,0-.3h0Z"/>
  </g>
  <g>
    <path class="st1" d="M272.6,76.6c-.6-1.7-1-3.5-1.3-5.2,0-.5-.2-1-.2-1.5,0-.2-.2-.3-.3-.2s-.3.2-.2.3c.3,1.8.7,3.7,1.1,5.4.1.5.3,1,.4,1.5.1.3.7.2.5-.2h0Z"/>
    <path class="st1" d="M272.7,76.6c-.4-1.1-.7-2.3-.9-3.4-.1-.6-.2-1.1-.4-1.7,0-.3,0-.6-.2-.9,0-.2,0-.3,0-.4,0-.1,0-.3,0-.4-.1-.2-.3-.2-.5-.2-.2,0-.3.3-.2.5,0,.6.2,1.1.3,1.7.2,1.1.5,2.3.8,3.4,0,.3.2.7.3,1,0,.2,0,.3.2.5,0,.1,0,.3.2.4.1.2.3.2.5,0,.2,0,.2-.3.2-.5,0-.2-.3,0-.3,0,0,.1,0,.2-.2.2,0,0,0-.1,0-.2,0-.1,0-.3-.1-.4-.2-.5-.3-1-.4-1.5-.2-1-.5-2-.7-3,0-.5-.2-1-.2-1.5,0-.1,0-.2,0-.3,0,0,0-.2,0-.2.1,0,.2.1.2.2,0,.1,0,.3,0,.4.2,1,.3,2,.6,3,.2,1.1.6,2.2.9,3.3,0,.2.3,0,.3,0h0Z"/>
  </g>
  <g>
    <path class="st1" d="M272.7,76.8c0-2.5,0-5-.4-7.4,0-.7-.2-1.4-.4-2.1,0-.2-.2-.3-.3-.2s-.3.2-.2.3c.5,2.4.8,4.9.8,7.4,0,.7,0,1.4,0,2.1,0,.2.2.3.3.2s.2-.2.2-.3h0Z"/>
    <path class="st1" d="M272.9,76.8c.1-3,0-6-.7-8.9,0-.2,0-.4,0-.5s0-.3-.2-.4c-.2-.2-.5,0-.7.2,0,.2,0,.3,0,.4,0,.2,0,.4.1.6,0,.4.1.7.2,1.1.2,1.5.4,2.9.4,4.4,0,.8,0,1.7,0,2.5v.7c0,.2,0,.3.2.4.3.2.6,0,.7-.3,0-.2-.3-.2-.3,0s0,.2-.2.2c-.1,0,0-.3,0-.4v-1c0-.7,0-1.3,0-2,0-1.3-.2-2.6-.4-3.9,0-.7-.2-1.3-.3-2,0,0,0-.3,0-.4.2-.1.2,0,.2.2,0,.3.1.7.2,1,.2,1.3.4,2.6.5,3.9,0,1.5.1,3,0,4.5,0,.2.3.2.3,0h0Z"/>
  </g>
  <g>
    <path class="st1" d="M272.9,76.8c.8-2.2,1.3-4.6,1.3-6.9,0-.7,0-1.3,0-2,0-.4-.6-.3-.6,0,.2,2.3,0,4.6-.6,6.8-.2.6-.4,1.2-.6,1.8,0,.2,0,.3.1.4s.3,0,.4-.1h0Z"/>
    <path class="st1" d="M273.1,76.9c1-2.7,1.5-5.5,1.3-8.4,0-.2,0-.3,0-.5,0-.1,0-.3-.1-.4-.2-.2-.4-.2-.6,0-.2.2-.2.5-.1.8,0,.3,0,.7,0,1,0,1.4-.1,2.8-.4,4.2-.2.8-.4,1.6-.6,2.4,0,.2-.2.4-.2.6,0,.2,0,.3,0,.4.2.3.6.2.7,0,0-.2-.2-.3-.2-.1,0,0-.2,0-.2,0,0,0,0-.2,0-.2,0,0,0-.2,0-.2.1-.3.2-.6.3-1,.2-.6.3-1.2.5-1.8.2-1.2.4-2.4.4-3.7s0-1.2,0-1.9c0,0,0-.2,0-.2,0,0,.2,0,.2,0,0,.1,0,.3,0,.5v.5c0,1.3,0,2.6-.2,3.8-.2,1.4-.6,2.8-1.1,4.1,0,.2.2.3.2.1h0Z"/>
  </g>
  <g>
    <path class="st1" d="M277.4,78.8c.6-3.2.8-6.4.7-9.7,0-.9,0-1.9-.2-2.8,0-.4-.6-.3-.6,0,.3,3.2.3,6.4,0,9.6,0,.9-.2,1.8-.4,2.7,0,.4.5.5.6,0h0Z"/>
    <path class="st1" d="M277.5,78.8c.3-1.9.6-3.8.7-5.6,0-1.9,0-3.8,0-5.8,0-.2,0-.5,0-.7,0-.2,0-.4-.1-.6-.2-.2-.5-.2-.7,0-.1.2,0,.4,0,.5,0,.2,0,.5,0,.7,0,.5,0,.9,0,1.4,0,1.9,0,3.8,0,5.7,0,1-.2,1.9-.3,2.9,0,.2,0,.5-.1.7,0,.2-.1.5-.1.7s.3.5.6.4c.2,0,.2-.2.2-.3,0-.2-.2-.2-.3,0,0,0-.1.2-.2,0,0,0,0,0,0-.1,0-.1,0-.2,0-.3,0-.4.2-.9.2-1.3.1-.9.2-1.8.3-2.6.1-1.7.2-3.4,0-5.1,0-.9,0-1.7-.2-2.6,0-.1,0-.2,0-.3s0,0,0-.1c0,0,.2,0,.2,0,0,.2,0,.5,0,.7,0,.2,0,.5,0,.7.1,1.7.2,3.5,0,5.2,0,1.7-.2,3.5-.5,5.2,0,.2,0,.4-.1.7,0,.2.2.2.3,0h0Z"/>
  </g>
  <g>
    <path class="st1" d="M277.6,78.8c1.1-2.2,1.8-4.5,2.1-6.9,0-.7.2-1.4.2-2s-.2-.3-.3-.2c-.2,0-.2.2-.2.3,0,2.3-.6,4.6-1.4,6.9-.2.6-.5,1.2-.8,1.8-.2.3.3.6.5.2h0Z"/>
    <path class="st1" d="M277.7,78.9c1.3-2.7,2-5.5,2.2-8.5,0-.3.1-.7-.2-.9-.2-.2-.6,0-.6.2,0,.2,0,.3,0,.5s0,.4,0,.6c0,.3,0,.7-.1,1.1-.2,1.4-.5,2.9-1,4.2-.3.8-.6,1.6-1,2.4,0,.2,0,.5.2.6s.5,0,.6-.2c0-.2-.2-.3-.2-.1,0,0-.2,0-.3,0,0,0,0-.3.2-.4,0-.2.2-.3.2-.5.3-.6.5-1.2.7-1.9.4-1.2.7-2.5.9-3.7,0-.6.2-1.3.2-1.9v-.4c0,0,0-.1,0-.2h.2c0,0,0,.3,0,.4,0,.2,0,.4,0,.5,0,1.3-.3,2.6-.7,3.9-.4,1.4-.9,2.8-1.5,4.1,0,.2.2.3.2.1h0q0,0,0,0Z"/>
  </g>
  <g>
    <path class="st1" d="M277.2,79c2-1.4,3.7-3.4,4.6-5.7.2-.7.5-1.3.6-2,0-.4-.5-.5-.6,0-.5,2.3-1.7,4.4-3.4,6.1-.5.5-1,.9-1.6,1.2-.3.2,0,.7.3.5h0Z"/>
    <path class="st1" d="M277.2,79.1c2.5-1.7,4.4-4.3,5.1-7.3,0-.2,0-.4.1-.6,0-.1,0-.2,0-.3-.2-.2-.4-.2-.6,0-.1,0-.2.2-.2.3,0,.2,0,.4-.1.5,0,.4-.2.7-.3,1.1-.5,1.4-1.3,2.7-2.3,3.8-.6.7-1.2,1.2-2,1.7-.1,0-.3.2-.3.3,0,0,0,.2,0,.3.1.2.4.3.6.2.2,0,0-.3-.2-.2-.1,0-.3,0-.2-.2,0,0,.2-.2.3-.2.2-.1.3-.2.5-.3.5-.4,1.1-.9,1.5-1.4.9-1,1.6-2.1,2.1-3.3.2-.6.5-1.2.6-1.9,0-.1,0-.6.3-.4,0,0,0,.2,0,.3,0,.2,0,.3-.1.5-.4,1.3-1,2.6-1.7,3.7-.9,1.3-2,2.4-3.3,3.2-.2,0,0,.3.2.2h0Z"/>
  </g>
  <g>
    <path class="st1" d="M277.4,79.2c1.9-.6,3.6-1.7,5-3.1s.7-.8,1.1-1.3c.2-.3-.2-.7-.4-.4-1.1,1.5-2.6,2.7-4.3,3.6s-1,.4-1.5.6c-.3.1-.2.7.2.5h0Z"/>
    <path class="st1" d="M277.4,79.3c2.4-.8,4.5-2.3,6.1-4.3.1-.2.2-.3.1-.5,0-.2-.2-.3-.4-.3s-.3.2-.5.4c-.2.2-.4.5-.7.7-.9.9-1.9,1.7-3,2.3-.3.2-.7.3-1,.5-.2,0-.3.1-.5.2-.2,0-.3,0-.5.2-.2,0-.3.3-.2.5s.3.3.5.2c.2,0,0-.3,0-.3-.1,0-.2-.1-.2-.2s.2,0,.3-.1c.1,0,.3,0,.4-.2.5-.2,1-.4,1.5-.7,1-.6,1.9-1.2,2.6-2s.4-.4.6-.6c0,0,.2-.2.2-.3,0,0,.2-.2.3-.3,0,0,.2,0,.2,0v.2c0,.1-.2.2-.3.4-.7.9-1.5,1.6-2.4,2.3-1,.7-2.1,1.3-3.3,1.6-.2,0,0,.3,0,.3h0Z"/>
  </g>
  <g>
    <path class="st1" d="M272,76.9c-1.7,1.2-3.7,2.2-5.8,2.7-.6.2-1.1.3-1.7.4-.2,0-.3.2-.2.3,0,.2.2.3.3.2,2.2-.4,4.3-1.1,6.2-2.2.5-.3,1.1-.7,1.6-1,.3-.2,0-.7-.3-.5h0Z"/>
    <path class="st1" d="M271.9,76.8c-1.1.8-2.3,1.5-3.6,2-.6.2-1.3.5-1.9.7-.3,0-.7.2-1,.3-.2,0-.3,0-.5.1-.2,0-.4,0-.5.1-.2,0-.4.4-.2.6.2.3.5.2.7.1.7-.1,1.3-.3,1.9-.5,1.3-.4,2.5-.9,3.6-1.5.3-.2.7-.4,1-.6.2-.1.3-.2.5-.3.2,0,.3-.2.5-.3.4-.3-.1-.9-.5-.7-.2,0,0,.3.2.2,0,0,.2,0,.2.2,0,0-.1.1-.2.2-.2,0-.3.2-.4.3-.5.3-1.1.7-1.6.9-1.1.6-2.1,1-3.3,1.3-.6.2-1.1.3-1.7.4-.2,0-.3,0-.4,0-.1,0-.3,0-.3,0,0-.2.1-.2.2-.2.2,0,.3,0,.5,0,1.2-.2,2.4-.6,3.5-1.1,1.2-.5,2.4-1.2,3.5-2,.2,0,0-.3-.2-.2h0Z"/>
  </g>
  <g>
    <path class="st1" d="M271.2,76.6c-1.6.7-3.3,1.2-5.1,1.5-.5,0-1,.1-1.5.2-.4,0-.3.6,0,.6,1.8-.1,3.6-.5,5.3-1.1.5-.2,1-.3,1.4-.6.2,0,.2-.2.2-.4,0-.1-.2-.2-.4-.2h0Z"/>
    <path class="st1" d="M271.1,76.5c-1.1.5-2.1.8-3.3,1.1-.6.1-1.1.2-1.7.3-.3,0-.6,0-.9.1-.2,0-.3,0-.5,0-.1,0-.2,0-.4,0-.4.1-.3.7,0,.8.1,0,.2,0,.3,0s.3,0,.4,0c.3,0,.6,0,.9,0,1.1-.2,2.3-.4,3.3-.7.7-.2,1.3-.4,1.9-.7.2,0,.4-.3.3-.6,0-.2-.3-.4-.6-.3-.2,0,0,.3,0,.3,0,0,.2,0,.2,0,0,.1,0,.2-.2.2-.2,0-.5.2-.7.3-.5.2-1,.3-1.5.5-1,.3-1.9.5-2.9.6-.5,0-1,.1-1.5.2,0,0-.1,0-.2,0v-.2c0,0,.1,0,.2,0,.1,0,.3,0,.4,0,1,0,2-.2,3-.5,1.1-.3,2.1-.6,3.2-1.1.2,0,0-.3,0-.3h0,0Z"/>
  </g>
  <g>
    <path class="st1" d="M271.6,76.9c-1.3,1.8-2.8,3.5-4.5,5-.1,0-.2.2,0,.4,0,.1.3.2.4,0,1.7-1.5,3.3-3.2,4.6-5.1,0-.1,0-.3,0-.4s-.3,0-.4,0h0Z"/>
    <path class="st1" d="M271.5,76.8c-.7.9-1.4,1.9-2.2,2.7-.4.4-.8.8-1.2,1.2-.2.2-.4.4-.6.6,0,0-.2.2-.3.3,0,0-.2.2-.3.3-.2.3.2.8.5.6.1,0,.2-.2.3-.2,0,0,.2-.2.3-.3.2-.2.4-.4.6-.6.8-.8,1.6-1.6,2.3-2.5.2-.2.4-.5.6-.8.2-.2.4-.5.6-.7.1-.2,0-.4,0-.6-.2-.2-.5-.1-.6,0-.1.2,0,.3.2.2s.2,0,.2,0,0,.2,0,.2c-.1.2-.3.4-.4.6-.3.4-.6.8-.9,1.1-.6.7-1.3,1.5-2,2.1-.3.3-.7.7-1.1,1,0,0-.2.2-.2.2s-.1,0-.1-.2.1-.2.2-.2c0,0,.2-.2.3-.2.7-.7,1.4-1.3,2-2,.7-.8,1.4-1.7,2-2.6,0-.2-.1-.3-.2-.2h0Z"/>
  </g>
  <g>
    <path class="st1" d="M276.9,79.1c-.2.5-.7.8-1,1.1-.4.3-.9.7-1.4,1-.9.6-1.9,1.1-2.9,1.6-.1,0-.2.2-.2.4,0,.1.2.2.4.2,1.6-.8,3.2-1.7,4.6-2.9.4-.3.8-.7.9-1.2,0-.2,0-.3-.2-.3-.2,0-.3,0-.3.2h0Z"/>
    <path class="st1" d="M276.8,79c-.2.5-.7.8-1.1,1.1-.5.3-1,.7-1.5,1-.5.3-1,.6-1.5.9-.2.1-.5.3-.8.4-.2,0-.5.2-.6.4,0,.2,0,.4.1.5.2.2.4,0,.6,0,.5-.2,1-.5,1.5-.8,1-.6,2-1.2,2.9-1.9.2-.2.5-.4.7-.6.2-.2.4-.5.5-.8,0-.2-.1-.4-.3-.5-.2,0-.5,0-.5.3,0,.2.2.3.2.1,0,0,0-.2.2-.2s.2,0,.2.1c0,0,0,.2-.1.3,0,.1-.1.2-.2.3-.3.4-.7.7-1.1.9-.8.6-1.6,1.1-2.5,1.6-.4.2-.9.5-1.3.7,0,0-.2.1-.3.1s-.2,0-.2-.1c0,0,0-.2.2-.2.1,0,.2-.1.3-.2.9-.4,1.7-.9,2.5-1.5.5-.3.9-.7,1.4-1,.4-.3.8-.6,1-1,0-.2-.2-.3-.2-.1h0Z"/>
  </g>
  <g>
    <path class="st1" d="M277.3,79.2c-.7,1.9-2.2,3.3-3.6,4.6-.4.4-.8.8-1.2,1.3-.2.3.2.7.4.4,1.3-1.5,3-2.8,4.1-4.5.3-.5.6-1,.8-1.5,0-.2,0-.3-.1-.4s-.3,0-.4.1h0Z"/>
    <path class="st1" d="M277.1,79.2c-.4,1.2-1.2,2.2-2,3.1-.4.5-.9.9-1.3,1.3l-.7.7c-.2.2-.5.5-.7.7-.2.3,0,.7.4.7.2,0,.4-.3.5-.4.2-.2.4-.5.7-.7.9-1,2-1.9,2.8-2.9.4-.6.8-1.2,1.1-1.9,0-.2.2-.6,0-.7-.2-.2-.6-.1-.7.2,0,.2.2.3.2.1,0,0,.2-.1.2,0,0,0,0,.2,0,.3,0,.2-.2.5-.3.8-.3.5-.6,1-1,1.5-.7.9-1.6,1.7-2.4,2.5-.2.2-.4.4-.6.7,0,.1-.2.2-.3.3,0,0,0,.2-.2.2,0,0-.2,0-.2-.2,0,0,.1-.2.2-.2,0-.1.2-.2.3-.3.7-.8,1.6-1.5,2.4-2.4.8-.9,1.6-1.9,2-3,0-.2-.2-.3-.2-.1h0q0-.1,0-.1Z"/>
  </g>
  <g>
    <path class="st1" d="M277.3,79.5c.7,2-.3,4.1-1.1,5.8-.2.3.4.6.5.2.7-1.5,1.5-3.2,1.4-4.9,0-.5,0-.9-.2-1.4-.1-.3-.7-.2-.5.2h0Z"/>
    <path class="st1" d="M277.1,79.6c.3,1,.2,2,0,3-.1.5-.3,1-.5,1.4,0,.2-.2.5-.3.7s-.2.4-.3.7c-.1.4.3.7.6.5.2-.1.3-.4.4-.6.1-.3.2-.5.4-.8.4-1.1.8-2.1.9-3.3,0-.3,0-.7,0-1s0-.7-.2-.9c0-.2-.3-.3-.5-.2s-.3.3-.2.5c0,.2.3,0,.3,0,0-.1.1-.2.2-.2s0,.2.1.3c0,.1,0,.2,0,.4,0,.5,0,1,0,1.5-.1,1-.5,2-.9,2.9,0,.2-.2.5-.3.7,0,0,0,.2-.2.3,0,0,0,.2-.1.2-.1,0-.2,0-.2-.2s0-.2.1-.3c0,0,0-.2.2-.3.4-.8.7-1.6.9-2.5.2-1,.3-2,0-2.9,0-.2-.3,0-.3,0h0,0Z"/>
  </g>
  <g>
    <path class="st1" d="M278,80.1c0,0-.2-.1-.3-.2-.2-.2-.5.2-.3.4,1,1.4,1.7,2.9,2,4.6,0,.2.2.2.4.2.2,0,.2-.2.2-.4-.4-1.7-1.1-3.3-2.1-4.7l-.3.4c0,0,.2.1.3.2.1,0,.3,0,.4-.1,0-.2,0-.3-.1-.4h0Z"/>
    <path class="st1" d="M278,79.9c-.2,0-.3-.2-.5-.2s-.2,0-.3.2c-.2.3.1.7.3.9.5.8.9,1.6,1.3,2.5.2.4.3.9.4,1.3,0,.2,0,.4.2.5.2,0,.3,0,.5,0,.2-.1.2-.3.1-.5,0-.2,0-.4-.2-.7-.1-.4-.3-.9-.4-1.3-.4-1-.9-1.9-1.5-2.7,0,0-.2,0-.2,0l-.3.4c0,0,0,.2,0,.2.1,0,.3.2.4.2.1,0,.2,0,.3-.1.2-.2.2-.5,0-.7-.2,0-.3.1-.2.2,0,0,.2.2,0,.3-.1,0-.3-.1-.4-.2,0,0,0,.2,0,.2l.3-.4h-.2c.9,1.3,1.6,2.7,2,4.2,0,0,0,.2,0,.3s0,.2,0,.3c0,0-.1,0-.2,0,0,0,0-.2,0-.2,0-.4-.2-.8-.3-1.1-.2-.7-.6-1.4-.9-2.1-.2-.4-.5-.8-.7-1.1,0,0-.1-.2,0-.3,0,0,0,0,.1,0,.1,0,.2.1.3.2.2,0,.3-.2.1-.2h0Z"/>
  </g>
  <g>
    <path class="st1" d="M283.2,81.7c1.6.6,3.4.6,5.1,0,.3-.1.2-.7-.2-.5-1.5.6-3.2.6-4.6,0-.2,0-.3,0-.4.1s0,.3.1.4h0Z"/>
    <path class="st1" d="M283.2,81.9c1.6.6,3.4.7,5.1,0,.2,0,.3-.2.3-.3,0-.2,0-.3-.1-.4-.1-.1-.3-.2-.4,0-.2,0-.4.2-.6.2-.8.2-1.7.3-2.6.2-.2,0-.5,0-.7-.2-.2,0-.5-.2-.7-.2s-.4,0-.5.3c0,.2,0,.4.2.5.2,0,.3-.2.1-.2,0,0,0-.1,0-.2,0,0,.1,0,.2,0,.2,0,.3.1.5.2.3,0,.7.2,1.1.2.7,0,1.5,0,2.2-.1.2,0,.3,0,.5-.1,0,0,.2,0,.2,0,0,0,.2,0,.2,0s.2.1,0,.2c0,0,0,0-.2,0,0,0-.2,0-.3,0-.7.2-1.4.3-2.2.3s-1.7-.2-2.4-.5c-.2,0-.3.2-.1.2h0Z"/>
  </g>
</svg>