<?xml version="1.0" encoding="UTF-8"?>
<svg id="Layer_1" xmlns="http://www.w3.org/2000/svg" version="1.1" viewBox="0 0 200 200">
  <!-- Generator: Adobe Illustrator 29.1.0, SVG Export Plug-In . SVG Version: 2.1.0 Build 142)  -->
  <defs>
    <style>
      .st0 {
        fill: #781c18;
      }
    </style>
  </defs>
  <g>
    <path class="st0" d="M45.9,21.1c-5.2-3.7-9.4-8.7-11.9-14.6-.2-.5-.7-.7-1.2-.6-.4.2-.8.7-.6,1.2,2.7,6.1,7,11.5,12.5,15.4.4.3,1,.3,1.3-.1s.3-1,0-1.3h0Z"/>
    <path class="st0" d="M46.2,20.7c-2.7-2-5.2-4.3-7.3-6.9-1-1.3-2-2.7-2.8-4.1-.4-.7-.8-1.5-1.2-2.2-.3-.6-.5-1.4-1.1-1.8-1.1-.7-2.5.5-2,1.7.6,1.5,1.5,3,2.3,4.4,1.7,2.8,3.8,5.4,6.2,7.7.7.6,1.4,1.3,2.1,1.9.7.6,1.4,1.2,2.2,1.6,1.4.8,2.8-1.2,1.6-2.2-.5-.4-1,.3-.6.7s.2.5,0,.6c-.2.2-.5.1-.7,0-.6-.4-1.2-.9-1.7-1.3-1.1-.9-2.1-1.8-3.1-2.8-2-2-3.7-4.3-5.2-6.7-.7-1.2-1.4-2.4-2-3.7,0-.2-.4-.6-.3-.9,0-.2.3-.4.5-.3.3,0,.4.4.5.6,0,.3.3.7.5,1,1.2,2.5,2.8,4.9,4.5,7,2,2.4,4.4,4.6,6.9,6.4.5.3,1.1-.4.6-.7h0Z"/>
  </g>
  <g>
    <path class="st0" d="M46.8,21.5c-2-5.8-3.9-11.6-5.9-17.3-.4-1.1-2.1-.5-1.7.6,2,5.8,3.9,11.6,5.9,17.3.4,1.1,2.1.5,1.7-.6h0Z"/>
    <path class="st0" d="M47.3,21.3c-1.1-3.2-2.2-6.5-3.3-9.7-.5-1.6-1.1-3.2-1.6-4.8-.3-.8-.5-1.6-.8-2.4-.2-.5-.4-1.1-.9-1.3-.9-.3-1.9.4-1.9,1.4s.2.6.3.9c0,.4.3.9.4,1.3.3.8.5,1.6.8,2.4,1.1,3.2,2.2,6.4,3.3,9.6l.9,2.7c.2.6.4,1.4,1.1,1.6,1.1.4,2.1-.7,1.8-1.7-.2-.6-1-.3-.9.3,0,.3-.2.6-.5.6-.5,0-.6-.8-.7-1.2-.5-1.3-.9-2.7-1.4-4-.9-2.7-1.8-5.3-2.7-8-.5-1.3-.9-2.7-1.4-4,0-.3-.4-.8,0-1,.4-.2.6,0,.7.4.9,2.7,1.8,5.4,2.8,8.1,1,3,2,6,3.1,9,.2.6,1.1.3.9-.3h0Z"/>
  </g>
  <g>
    <path class="st0" d="M47.9,22c1.3-5.8,1.7-11.8,1-17.6,0-1.2-2-1-1.8,0,.7,5.7.3,11.5-1,17.2-.3,1.2,1.5,1.5,1.8.3h0Z"/>
    <path class="st0" d="M48.3,22.1c.7-3.1,1.1-6.2,1.3-9.4v-4.8c0-.8,0-1.6-.2-2.4,0-.6,0-1.4-.4-1.9-.6-.8-2-.7-2.4.3-.2.6,0,1.4,0,2.1s0,1.6,0,2.4c0,3.2,0,6.4-.5,9.5,0,.9-.3,1.8-.5,2.7,0,.6-.5,1.4,0,2.1.3.4.8.7,1.3.6.6,0,1.1-.5,1.2-1.1.2-.6-.7-.7-.9-.2,0,.3-.5.4-.7.3-.4-.2,0-.9,0-1.3.3-1.3.5-2.6.7-3.9.4-2.7.5-5.3.4-8,0-1.3,0-2.6-.3-4,0-.4-.2-1,.3-1s.5.5.6.9c.3,2.7.4,5.4.2,8-.2,3-.6,6-1.3,9,0,.6.8.7.9.2h.2Z"/>
  </g>
  <g>
    <path class="st0" d="M44.8,21.1c3.3,13.1,6.7,26.1,11.1,38.9,4.3,12.4,9.5,24.6,16.3,35.9,6.7,11.3,15,21.6,25,30.2,10.1,8.8,21.7,15.8,33.7,21.7,12.2,6,25,10.8,37.8,15.3,1.6.6,3.2,1.1,4.8,1.6,1.1.4,1.9-1.3.8-1.7-12.7-4.4-25.4-9-37.7-14.6-12.1-5.6-23.8-12.2-34.2-20.5-10.3-8.2-19-18-26.2-29.1-7.1-11-12.5-22.9-17-35.1-4.6-12.6-8.1-25.5-11.5-38.4-.4-1.6-.8-3.2-1.2-4.9-.3-1.1-2-.5-1.7.6h0Z"/>
    <path class="st0" d="M44.4,21.3c3.5,13.7,7.1,27.4,11.8,40.7,4.5,12.7,10,25.2,17.2,36.7,7.3,11.7,16.5,22.2,27.3,30.9,11,8.8,23.4,15.8,36.3,21.6,6.4,2.9,12.9,5.6,19.5,8s6.7,2.5,10,3.6c1.7.6,3.3,1.2,5,1.7.9.3,2.2,1.1,3.2.5.6-.4.9-1.2.5-1.8-.2-.4-.6-.5-1-.6-.9-.3-1.9-.6-2.8-1-3.3-1.1-6.6-2.3-9.9-3.5-6.7-2.4-13.3-5-19.8-7.9-12.9-5.6-25.5-12.3-36.8-20.9-11.2-8.6-20.8-19.1-28.4-31-7.4-11.5-13-24.1-17.6-36.9-4.7-13.2-8.3-26.8-11.7-40.4-.2-.8-.5-1.7-1.6-1.6-.8.1-1.4.9-1.2,1.7,0,.6,1,.5.9,0,0-.4.2-.9.7-.6.3.2.3.7.4,1,.2.9.4,1.7.7,2.6.4,1.6.8,3.3,1.3,4.9.8,3.2,1.7,6.5,2.6,9.7,1.8,6.5,3.7,13,5.9,19.4,4.2,12.3,9.2,24.4,15.8,35.6,6.7,11.5,15,21.9,24.9,30.7,10.1,8.9,21.7,16,33.8,22,12.2,6,24.9,10.8,37.8,15.3,1.6.6,3.3,1,4.9,1.7.3.1.5.2.4.6-.2.4-.6.3-.9.2-.8-.2-1.6-.5-2.4-.8-3.2-1.1-6.4-2.2-9.7-3.4-6.4-2.3-12.7-4.8-19-7.5-12.5-5.4-24.7-11.7-35.8-19.7-11-7.9-20.6-17.6-28.4-28.7-7.6-10.8-13.5-22.7-18.3-35-4.9-12.6-8.7-25.5-12.1-38.5-.8-3.2-1.7-6.4-2.5-9.6,0-.6-1-.3-.9.3h0Z"/>
  </g>
  <g>
    <path class="st0" d="M50.4,40.2c-5.5-3.7-10.6-7.9-15.3-12.6-1.3-1.3-2.6-2.7-3.9-4-.3-.4-1-.2-1.3.1s-.2.9.1,1.3c4.4,4.9,9.3,9.4,14.6,13.4,1.5,1.1,3,2.2,4.5,3.2.4.3.9.3,1.3,0s.3-1,0-1.3h0Z"/>
    <path class="st0" d="M50.7,39.8c-6.9-4.7-13.3-10.2-18.9-16.3-.3-.3-.5-.5-.9-.6-.4,0-.7,0-1,.2-.6.4-.7,1.1-.4,1.7.2.4.5.6.8.9s.7.8,1.1,1.2c.7.7,1.4,1.5,2.2,2.2,3,3,6.1,5.7,9.4,8.3,1.8,1.4,3.7,2.8,5.6,4.1.7.5,1.5.9,2.2.3.7-.5.7-1.6,0-2.1-.5-.4-1.1.3-.6.7.2.2.2.6,0,.7-.3.2-.7-.2-1-.3-.7-.5-1.5-1-2.2-1.6-1.4-1-2.9-2.1-4.2-3.2-2.8-2.3-5.5-4.7-8.1-7.2-1.3-1.3-2.6-2.6-3.8-3.9-.2-.2-.5-.5-.5-.8s.3-.5.6-.4c.2,0,.3.2.4.4.2.2.3.4.5.5.3.3.6.7.9,1,2.5,2.6,5.1,5.1,7.8,7.4,3.1,2.6,6.3,5.1,9.7,7.4.5.3,1.1-.4.6-.7h-.2Z"/>
  </g>
  <g>
    <path class="st0" d="M50.2,41.2c-5.7-.6-11.2-3.1-15.5-7-1.2-1.1-2.3-2.3-3.3-3.6-.7-.9-2.2,0-1.5,1,3.7,5,9,8.6,14.9,10.4,1.6.5,3.3.8,5,1,.5,0,1-.2,1.1-.7,0-.5-.2-1-.7-1.1h0Z"/>
    <path class="st0" d="M50.2,40.8c-3.7-.4-7.4-1.6-10.6-3.5-1.6-.9-3.1-2-4.5-3.3-.8-.7-1.5-1.5-2.2-2.3-.3-.4-.6-.7-.9-1.1-.2-.3-.4-.6-.7-.7-1-.5-2.3.5-2,1.6.1.3.4.6.6.9.3.4.6.8.9,1.1.6.7,1.3,1.4,2,2.1,2.8,2.6,6.2,4.7,9.8,6.1,2,.8,4.1,1.3,6.3,1.6.9,0,2,.3,2.4-.8.3-.8-.2-1.7-1-1.8-.6,0-.7.8-.2.9.3,0,.5.5.3.7-.3.3-.8,0-1.2,0-.9,0-1.7-.3-2.5-.5-1.7-.4-3.3-.9-4.8-1.6-3.1-1.3-5.9-3.2-8.4-5.5-.6-.6-1.2-1.2-1.8-1.9-.3-.3-.5-.6-.7-.9-.2-.3-.6-.6-.7-.9,0-.3.2-.6.5-.6s.4.3.5.5c.3.4.6.7.9,1.1,2.1,2.5,4.8,4.6,7.6,6.2,3.2,1.7,6.7,2.9,10.3,3.2.6,0,.8-.8.2-.9v.3Z"/>
  </g>
  <g>
    <path class="st0" d="M51.4,41.8c-3.1-5.8-6.8-11.2-11-16.3-.3-.4-.8-.5-1.3-.2-.4.3-.6.9-.2,1.3,4.2,5.1,7.9,10.5,11,16.3.2.4.9.5,1.3.2.4-.3.5-.8.2-1.3h0Z"/>
    <path class="st0" d="M51.8,41.5c-1.6-3-3.4-5.8-5.3-8.6-.9-1.4-1.9-2.8-2.9-4.1-.5-.7-1.1-1.4-1.6-2.1-.5-.6-.9-1.3-1.5-1.8-1-.8-2.5,0-2.2,1.4,0,.3.2.5.4.7.3.4.6.7.9,1.1.5.7,1,1.3,1.5,2,2,2.7,3.9,5.5,5.7,8.3.5.8,1,1.6,1.4,2.4s.5.9.7,1.3c.2.4.4.8.7,1.1.4.5,1.2.5,1.8.2.6-.4.7-1.2.4-1.8-.3-.5-1.1-.2-.9.3,0,.2.2.5,0,.7s-.5.2-.7,0-.4-.6-.5-.9c-.2-.4-.4-.7-.6-1.1-.7-1.2-1.4-2.5-2.2-3.7-1.5-2.4-3.2-4.8-4.9-7.1-.8-1.1-1.7-2.2-2.6-3.3-.2-.2-.4-.4-.4-.7s.2-.4.4-.4c.3,0,.5.3.6.5.3.3.5.6.8.9,1.8,2.2,3.5,4.5,5,6.9,1.8,2.7,3.4,5.4,5,8.2.3.5,1,0,.8-.5h.2Z"/>
  </g>
  <g>
    <path class="st0" d="M57,58.8c2.8-5.4,4-11.7,3.5-17.7-.2-1.7-.5-3.5-.9-5.2,0-.5-.7-.7-1.2-.6-.5.2-.7.7-.6,1.2,1.4,5.5,1.2,11.5-.6,17-.5,1.6-1.2,3.1-1.9,4.6-.5,1,1.1,1.8,1.7.8h0Z"/>
    <path class="st0" d="M57.4,59c3.5-6.8,4.5-14.7,2.8-22.2-.2-.8-.3-1.7-1.2-2-.8-.2-1.5.3-1.7,1.1,0,.4,0,.8,0,1.1,0,.5.2,1,.3,1.5.2.9.3,1.8.4,2.7.3,3.7,0,7.4-1,10.9-.3,1.1-.7,2.1-1.1,3.2-.2.6-.5,1.2-.8,1.7-.2.4-.5.8-.5,1.2,0,.7.4,1.2,1,1.4.7.2,1.3,0,1.6-.7.3-.5-.5-.9-.8-.4-.2.3-.7.3-.9,0,0-.2,0-.4,0-.5.2-.4.4-.9.6-1.3.7-1.6,1.3-3.2,1.8-4.9.8-3.1,1.1-6.3,1-9.5,0-1.6-.3-3.2-.6-4.7,0-.4-.7-2,.2-1.9.4,0,.4.5.5.8,0,.5.2.9.3,1.4.7,3.3.8,6.8.3,10.2-.5,3.7-1.6,7.2-3.3,10.5-.3.5.6.9.8.4h.2Z"/>
  </g>
  <g>
    <path class="st0" d="M58.3,59.7c5-4.5,8.5-10.6,9.9-17.2.4-1.9.6-3.8.6-5.7s-.5-.9-1-.8c-.5,0-.8.5-.8,1,0,6.2-2.3,12.4-6.1,17.4-1.1,1.4-2.3,2.7-3.6,3.9-.4.3-.5.8-.2,1.3.3.4.9.6,1.3.2h0Z"/>
    <path class="st0" d="M58.6,60c6-5.4,9.9-13.1,10.5-21.2v-1.4c0-.4,0-.9-.2-1.3-.4-.6-1.3-.8-1.9-.4-.8.5-.6,1.6-.6,2.4s-.2,2-.3,2.9c-.6,3.8-2.1,7.5-4.1,10.8-1.2,2-2.7,3.8-4.4,5.4-.7.6-1.6,1.3-1.1,2.3.3.7,1.4,1,2,.5.5-.4,0-1.1-.5-.8-.2,0-.5,0-.6,0-.2-.4.2-.7.4-.9.7-.7,1.4-1.4,2-2.1,1.2-1.3,2.2-2.8,3.2-4.3,1.8-2.9,3.1-6.1,3.8-9.4.4-1.7.6-3.3.6-5s0-.9.3-1.1c.3-.2.6,0,.6.5,0,.9,0,1.9-.2,2.8-.4,3.6-1.4,7.1-3,10.3-1.8,3.6-4.2,6.8-7.2,9.5-.4.4.3,1,.7.6Z"/>
  </g>
  <g>
    <path class="st0" d="M57.3,58.3h-.9c0,.6.3,1.2.4,1.8,5.6-1.2,10.7-4.4,14.2-8.9,1-1.3,1.9-2.7,2.6-4.1.5-1.1-1.1-1.8-1.7-.8-2.4,4.8-6.5,8.6-11.4,10.8-1.4.6-2.9,1.1-4.4,1.4-.4,0-.7.7-.6,1.1,0,.4.5.8,1,.7h.9c1.2,0,1-2,0-1.8h0v-.2Z"/>
    <path class="st0" d="M57.2,57.8h-.9c-.3,0-.5.3-.4.6,0,.6.3,1.2.4,1.8,0,.3.4.3.6.3,3.9-.8,7.6-2.6,10.6-5.2,1.5-1.3,2.9-2.7,4.1-4.3.7-.9,1.2-1.8,1.8-2.7.4-.7,1-1.5.6-2.3-.3-.5-.8-.8-1.4-.7-.8,0-1.1.7-1.4,1.3-1,1.8-2.2,3.5-3.7,5-2.9,3-6.6,5.1-10.7,6.1-.5,0-1,.2-1.4.6-.3.3-.4.8-.3,1.2,0,.4.4.8.8.9.4.2,1,0,1.4,0,.8,0,1.4-.6,1.4-1.5s-.7-1.3-1.5-1.3-.5.9,0,.9.7.5.3.8c-.2.2-.7,0-.9.2-.4,0-.8,0-.7-.5,0-.4.5-.4.9-.5.5,0,.9-.2,1.3-.4.8-.3,1.7-.5,2.5-.9,3.1-1.3,5.8-3.3,8.1-5.8,1.1-1.3,2.1-2.6,3-4.1.2-.3.4-.7.6-1.1,0-.2.2-.3.4-.3.5,0,.5.4.4.8-1.6,3.1-3.8,5.9-6.6,8-2.9,2.3-6.3,3.9-9.9,4.7.2,0,.4.2.6.3,0-.6-.3-1.2-.4-1.8,0,.2-.3.4-.4.6h.9c.6,0,.5-1,0-.9v.2Z"/>
  </g>
  <g>
    <path class="st0" d="M61.5,71.8c-6.7-2.6-12.7-7-17.1-12.6-1.3-1.6-2.4-3.3-3.4-5.1-.2-.4-.9-.5-1.3-.2-.4.3-.5.8-.2,1.3,3.6,6.5,9.1,12,15.5,15.7,1.8,1,3.7,1.9,5.7,2.7.5.2,1,0,1.2-.4s0-1-.4-1.2h0v-.2Z"/>
    <path class="st0" d="M61.7,71.4c-8.4-3.2-15.6-9.3-20.1-17.2-.2-.4-.4-.7-.9-.9-.4,0-.8,0-1.2,0-.8.5-.8,1.4-.4,2.1,1.1,1.9,2.3,3.7,3.7,5.4,2.7,3.4,6,6.4,9.7,8.8,2.1,1.4,4.3,2.6,6.6,3.6.9.4,2,1.1,2.9.3.7-.6.5-1.9-.3-2.3-.5-.3-.9.6-.4.8.3.2.4.6,0,.8-.4.2-1-.2-1.3-.3-.9-.4-1.9-.8-2.8-1.3-1.8-.9-3.5-1.9-5.1-3-3.2-2.2-6-4.9-8.5-7.9-1.2-1.5-2.3-3.1-3.3-4.8-.2-.3-.6-.8-.6-1.2s.5-.6.8-.3.2.4.3.6c0,.2.3.5.4.7.3.5.6.9.8,1.3,2.2,3.3,4.8,6.2,7.8,8.7,3.4,2.8,7.2,5,11.3,6.6.5.2.9-.6.4-.8l.2.3Z"/>
  </g>
  <g>
    <path class="st0" d="M60.8,72.5c-8.4-1.3-16.3-5.1-22.5-10.8-1.7-1.6-3.3-3.3-4.8-5.2-.7-.9-2.2,0-1.5,1,5.4,7,12.9,12.3,21.2,15,2.4.8,4.8,1.4,7.3,1.7,1.2.2,1.5-1.6.3-1.8h0Z"/>
    <path class="st0" d="M60.9,72.1c-10.4-1.6-20.2-7.2-26.7-15.4-.3-.4-.5-.7-1-.9h-1c-.7.3-1,1.1-.7,1.8.3.5.8,1,1.1,1.5.4.5.8,1,1.3,1.5.9,1,1.8,1.9,2.8,2.8,3.9,3.6,8.4,6.5,13.2,8.5,2.8,1.1,5.6,2,8.6,2.6.7,0,1.4.3,2.1.3s.9-.3,1.2-.7c.5-.8,0-1.9-.9-2.1-.6,0-.7.8-.2.9.3,0,.4.3.3.6-.2.4-.6.3-1,.2-1.2-.2-2.4-.4-3.6-.7-2.3-.6-4.6-1.4-6.9-2.3-4.4-1.9-8.5-4.6-12-7.8-1.8-1.6-3.4-3.4-4.9-5.2-.2-.2-.5-.5-.4-.8,0-.2.3-.3.6-.3s.7.7.9,1c.4.5.8,1,1.3,1.5,3.1,3.5,6.9,6.5,11,8.8,4.5,2.6,9.5,4.3,14.7,5.1.6,0,.7-.8.2-.9Z"/>
  </g>
  <g>
    <path class="st0" d="M60.7,73.7c-5.7.5-11.4-.3-16.7-2.5-1.5-.6-3-1.3-4.4-2.2-.4-.2-1,0-1.2.4-.2.5,0,1,.4,1.2,5.2,3,11,4.7,17,4.9,1.7,0,3.4,0,5,0,1.2,0,1-1.9,0-1.8h0Z"/>
    <path class="st0" d="M60.7,73.2c-3.6.3-7.3,0-10.9-.7-1.8-.4-3.5-.9-5.2-1.6-1-.4-1.9-.8-2.8-1.3-.4-.2-.8-.4-1.2-.7-.4-.2-.8-.5-1.2-.6-.7,0-1.4.5-1.5,1.2,0,.8.5,1.3,1.1,1.7,1.6.9,3.3,1.7,5.1,2.4,3.5,1.3,7.1,2.1,10.8,2.4,1.1,0,2.1,0,3.2,0h1.7c.5,0,1,0,1.5-.2.7-.2,1-.9.9-1.6s-.7-1.2-1.4-1.1c-.6,0-.5.9,0,.9s.6.5.3.8c-.2.2-.7.2-.9.2h-1.3c-1.7,0-3.4,0-5-.2-3.2-.3-6.4-1.1-9.4-2.2-1.5-.6-3-1.2-4.4-2-.4-.2-1.8-.8-1-1.3.3-.2.6,0,.9.2.4.2.8.4,1.2.7,2.9,1.5,6,2.6,9.1,3.2,3.5.7,7,.9,10.5.6.6,0,.5-1,0-.9h-.1Z"/>
  </g>
  <g>
    <path class="st0" d="M70,88.7v.6h1.8c0-7.3-.3-14.6-.7-21.9,0-1.2-1.9-1-1.8,0,.3,7.3.6,14.6.7,21.9,0,1,1.7,1.1,1.8,0v-.6c.2-1.2-1.6-1.5-1.8-.3h0v.2Z"/>
    <path class="st0" d="M69.6,88.6v.6c0,.2,0,.5.4.5h1.8c.3,0,.5-.2.5-.5,0-4.4-.2-8.7-.3-13.1,0-2.2-.2-4.3-.2-6.5v-1.6c0-.4,0-.8-.2-1.2-.3-.6-.9-.8-1.5-.7-.6,0-1.1.6-1.2,1.3,0,1,0,2.1,0,3.1,0,2.2.2,4.4.2,6.6s0,4.3.2,6.5v6.2c.2.7,1,1,1.7.9.9-.2,1.1-1.1,1.1-1.9,0-1.6-2.4-1.8-2.7-.3,0,.6.8.7.9.2,0-.4.6-.5.8-.2.2.2,0,.6,0,.8,0,.3,0,.5-.4.5-.7,0-.6-.8-.6-1.3v-2.7c0-3.5-.2-7.1-.3-10.6,0-1.7,0-3.5-.2-5.2v-1.3c0-.4,0-.9,0-1.3,0-.3.6-.5.8-.2.2.2,0,.7,0,1v1.3c0,.9,0,1.7,0,2.6,0,1.8,0,3.5.2,5.3,0,4,.2,8,.3,12,.2-.2.4-.3.5-.5h-1.8l.4.5v-.6c0-.6-.8-.7-.9-.2h.2Z"/>
  </g>
  <g>
    <path class="st0" d="M72.6,91.1c2.6-5.9,4.2-12.2,4.6-18.6,0-1.8.2-3.7.2-5.5s-1.9-1-1.8,0c0,6.2-.8,12.4-2.7,18.2-.6,1.7-1.2,3.3-1.9,4.9-.5,1.1,1.2,1.9,1.7.8h0Z"/>
    <path class="st0" d="M73,91.3c3.3-7.6,4.9-15.7,4.8-24,0-.7-.2-1.4-1-1.6-.6,0-1.3.2-1.6.7-.2.3-.2.7-.2,1v1.6c0,1,0,2,0,3-.3,4-1,8-2.2,11.9-.3,1.2-.7,2.3-1.2,3.4-.2.6-.4,1.1-.7,1.7-.2.4-.5.9-.5,1.4-.2,1.5,2,2.1,2.6.7.3-.5-.6-.9-.8-.4-.2.3-.6.3-.8,0,0-.2,0-.4,0-.6.2-.5.4-.9.6-1.4.7-1.7,1.3-3.5,1.8-5.3,1-3.4,1.6-6.9,1.9-10.4.2-1.8.2-3.5.2-5.3s-.2-1.4.6-1.4.3.2.3.4v1.4c0,3.7-.4,7.4-1.1,11-.8,4-2,7.8-3.6,11.5-.2.5.6.9.8.4l.2.3Z"/>
  </g>
  <g>
    <path class="st0" d="M72.1,91.9c4.9-3.9,8.5-9.3,10.1-15.4.5-1.7.8-3.4.9-5.2,0-.5-.2-1-.7-1.1-.4,0-1,.2-1.1.7-.4,5.9-2.8,11.5-6.6,16-1.1,1.3-2.3,2.4-3.6,3.4-.4.3-.5.8-.2,1.3.3.4.9.6,1.3.2h-.1Z"/>
    <path class="st0" d="M72.4,92.3c6-4.8,10.1-11.8,11-19.4,0-.8.4-1.9,0-2.6-.4-.6-1.2-.7-1.8-.3-.7.5-.6,1.3-.7,2.1,0,.9-.3,1.8-.5,2.7-.8,3.6-2.3,7-4.5,10-1.3,1.8-2.8,3.5-4.5,4.9-.4.3-.7.6-.9,1,0,.4,0,.8,0,1.1.4.7,1.3.9,2,.5.5-.3,0-1.1-.5-.8-.2.2-.5,0-.7-.2-.2-.4.2-.6.4-.8.7-.6,1.4-1.2,2-1.8,1.2-1.2,2.3-2.5,3.2-3.9,1.8-2.6,3.1-5.5,4-8.5.4-1.5.7-3.1.9-4.6,0-.3,0-.8.2-1,.3-.2.7,0,.8.3v1.1c0,.4,0,.9-.2,1.3-.5,3.3-1.6,6.5-3.3,9.4-1.8,3.3-4.3,6.2-7.3,8.6-.5.4,0,1.1.5.8h0Z"/>
  </g>
  <g>
    <path class="st0" d="M75.3,98.2c-6.6.5-13.2-1.1-18.9-4.3-1.6-.9-3.1-1.9-4.5-3.1-.9-.7-2.1.7-1.2,1.4,5.4,4.4,12,7.1,18.9,7.8,1.9.2,3.9.2,5.9,0,1.2,0,1-1.9,0-1.8h0Z"/>
    <path class="st0" d="M75.2,97.7c-4.1.3-8.3-.2-12.3-1.5-1.9-.6-3.8-1.4-5.6-2.3-1-.6-2-1.2-3-1.8s-.9-.6-1.4-1c-.4-.3-.8-.7-1.2-.9-1.2-.5-2.4,1.1-1.5,2.2.3.3.7.6,1.1.9.5.4.9.7,1.4,1,.9.6,1.8,1.2,2.7,1.7,3.7,2.1,7.9,3.6,12.2,4.2,2.5.4,5,.5,7.5.4.5,0,.9,0,1.3-.3.3-.3.5-.6.5-1,0-.8-.6-1.4-1.5-1.4s-.5.9,0,.9.7.7.2.9c-.4,0-1,0-1.4,0h-1.5c-2,0-4-.2-5.9-.6-3.8-.7-7.4-2-10.8-3.9-1.7-.9-3.3-2-4.8-3.2-.2,0-.3-.3-.3-.5s.2-.3.3-.3c.3,0,.5,0,.7.3.4.3.8.7,1.3,1,3.1,2.2,6.5,3.9,10.1,5,3.9,1.2,8,1.6,12.1,1.4.6,0,.5-1,0-.9l-.2-.3Z"/>
  </g>
  <g>
    <path class="st0" d="M74.2,96.5c-5.9-1.9-11.4-5.1-16.1-9.2-1.3-1.2-2.6-2.4-3.8-3.8-.3-.4-1-.2-1.3,0s-.2.9,0,1.3c4.3,4.7,9.5,8.6,15.3,11.2,1.6.8,3.3,1.4,5.1,2,.5.2,1,0,1.2-.4s0-1.1-.4-1.2h0Z"/>
    <path class="st0" d="M74.4,96c-3.8-1.2-7.4-2.9-10.7-5.1-1.7-1.1-3.2-2.3-4.7-3.5-.8-.6-1.5-1.3-2.2-2-.4-.4-.7-.7-1.1-1.1-.4-.4-.7-.8-1.1-1.2-.5-.5-1.4-.4-1.9,0-.5.5-.5,1.2,0,1.8.2.4.6.7.9,1s.7.8,1.1,1.1c.7.7,1.4,1.4,2.2,2,3,2.6,6.3,4.9,9.8,6.7,2,1,4.1,1.9,6.2,2.6.8.3,1.6.5,2.2-.3.5-.7.2-1.7-.5-2.1-.5-.2-.9.6-.4.8.3,0,.4.5.2.7-.3.3-.8,0-1,0-.8-.3-1.7-.6-2.5-.9-1.6-.6-3.1-1.4-4.7-2.2-3-1.6-5.9-3.6-8.5-5.9-1.3-1.1-2.6-2.3-3.7-3.6-.2-.2-.5-.5-.5-.8s.3-.5.6-.4c.2,0,.3.2.4.4.2.2.3.4.5.5.3.3.6.6.9,1,2.4,2.4,5.1,4.6,8,6.4,3.2,2,6.7,3.7,10.3,4.9.6.2,1-.6.4-.8h0Z"/>
  </g>
  <g>
    <path class="st0" d="M73.6,96.9c-7.4,1.3-15.3,2.6-22.5-.3-1.9-.8-3.7-1.9-5.2-3.3-.9-.8-2.1.6-1.2,1.4,5.9,5.6,14.6,6.1,22.2,5.2,2.3-.3,4.5-.7,6.8-1.1.5,0,.9-.5.8-1,0-.5-.5-.9-1-.8h0Z"/>
    <path class="st0" d="M73.6,96.5c-8.8,1.5-19.4,3.3-26.8-3.1-.6-.5-1.3-1.2-2.1-.6-.6.4-.8,1.2-.5,1.8.2.4.6.7,1,1,.4.4.9.7,1.4,1.1.9.7,1.9,1.2,3,1.7,4.1,1.9,8.7,2.4,13.2,2.2,2.7,0,5.5-.5,8.2-.9.8,0,1.5-.3,2.3-.4.6,0,1.3,0,1.7-.7.7-.9,0-2.3-1.2-2.2-.6,0-.5,1,0,.9.5,0,.7.6.3.8-.2,0-.5,0-.8.2-.3,0-.6,0-1,.2-1.2.2-2.4.4-3.7.6-2.1.3-4.2.5-6.3.6-4.1,0-8.2-.4-12-2-.9-.4-1.8-.9-2.7-1.4-.4-.3-.8-.6-1.2-.9s-.9-.6-1.2-1c-.2-.3,0-.9.4-.8.2,0,.4.3.5.4.2.2.4.4.7.6.5.4.9.7,1.4,1,3.6,2.3,7.8,3.2,12,3.3,4.6,0,9.1-.7,13.6-1.4.6,0,.5-1,0-.9h-.2Z"/>
  </g>
  <g>
    <path class="st0" d="M94.9,119.5c-1.4-7.8-3.6-15.5-6.6-22.9-.9-2.1-1.8-4.1-2.7-6.2-.2-.4-.7-.7-1.2-.6-.4,0-.8.7-.6,1.2,3.4,7.1,6.1,14.5,7.9,22.2.5,2.1,1,4.3,1.4,6.4,0,.5.5.9,1,.8.5,0,.9-.5.8-1h0Z"/>
    <path class="st0" d="M95.3,119.5c-1.7-9.3-4.5-18.5-8.4-27.1-.2-.5-.5-1.1-.7-1.6s-.4-.9-.8-1.2c-.7-.4-1.6,0-2,.7-.2.4,0,.7,0,1.1.3.6.5,1.1.8,1.7.5,1.1,1,2.2,1.4,3.2,1.8,4.3,3.4,8.8,4.7,13.3.7,2.6,1.4,5.3,1.9,8,0,.7.3,1.4.4,2.1,0,.5.4,1,.9,1.2.9.4,2-.4,1.9-1.4,0-.6-1-.5-.9,0,0,.4-.4.6-.7.4-.2,0-.2-.5-.3-.7,0-.3,0-.6-.2-.9-.2-1.1-.4-2.2-.7-3.3-.5-2.1-1-4.1-1.5-6.2-1.1-4.1-2.5-8-4.1-11.9-.8-1.9-1.6-3.9-2.6-5.8,0-.3-.4-.6,0-.9.4-.4.7.2.9.5.5,1,1,2,1.4,3.1,1.7,3.9,3.2,7.8,4.5,11.9,1.4,4.5,2.5,9.1,3.3,13.7,0,.6,1,.5.9,0h-.1Z"/>
  </g>
  <g>
    <path class="st0" d="M95.5,120.1c0-9.4-1.6-18.7-4.8-27.5-.9-2.5-1.9-4.9-3-7.2-.2-.4-.7-.7-1.2-.6-.4.2-.8.7-.6,1.2,4,8.3,6.5,17.3,7.3,26.5.3,2.6.4,5.2.4,7.8s.5.9,1,.8c.5,0,.8-.5.8-1h0Z"/>
    <path class="st0" d="M96,120.1c0-5.3-.5-10.6-1.5-15.8-1-5.3-2.6-10.5-4.7-15.5-.3-.7-.6-1.3-.9-2-.3-.6-.5-1.3-.9-1.9-.6-.9-1.8-.9-2.4,0-.3.5-.2.9,0,1.4.3.6.6,1.2.8,1.8.5,1.2,1,2.4,1.5,3.7,1.9,5,3.3,10.2,4.2,15.4.4,2.7.7,5.4.9,8.2,0,1.5,0,2.9,0,4.4s0,1,.5,1.4c.4.3.9.4,1.4.2.5-.2.8-.7.8-1.3s-.9-.8-.9-.2,0,.6-.4.6-.4,0-.4-.2c0-.2,0-.6,0-.9v-1c0-1.3,0-2.7-.2-4-.2-2.4-.5-4.9-.9-7.3-.8-4.8-2-9.5-3.7-14.1-.8-2.3-1.7-4.5-2.8-6.7-.2-.4-.5-.8,0-1.1.6-.3.9.7,1,1,.5,1.2,1.1,2.4,1.6,3.6,1.8,4.6,3.3,9.3,4.2,14.1,1.1,5.3,1.6,10.7,1.6,16.2s.9.5.9,0h.2Z"/>
  </g>
  <g>
    <path class="st0" d="M96.3,121.9c1.2-4.9,1.6-9.9,1.4-15-.2-5-1.1-10-2.6-14.8-.8-2.7-1.9-5.3-3.2-7.8-.2-.4-.7-.7-1.2-.6-.4,0-.8.7-.6,1.2,2.2,4.4,3.8,9.1,4.7,13.9.9,4.8,1.2,9.7.8,14.6-.2,2.8-.7,5.5-1.3,8.2-.3,1.2,1.5,1.5,1.8.3h.2Z"/>
    <path class="st0" d="M96.7,122c1.3-5.6,1.8-11.4,1.3-17.2-.4-5.8-1.8-11.6-4-17-.3-.7-.6-1.4-.9-2.1-.3-.6-.5-1.4-1-1.9-.7-.9-2-.6-2.4.4-.2.6,0,1.1.4,1.6.3.7.6,1.3.9,2,.6,1.3,1.1,2.7,1.6,4.1,1.9,5.5,2.8,11.3,2.8,17.1s-.2,5.9-.7,8.8c0,.7-.3,1.4-.4,2.2,0,.6-.4,1.3-.4,2,0,.9,1.1,1.3,1.9,1,.4-.2.7-.5.8-1,.2-.6-.7-.7-.9-.2,0,.3-.4.4-.7.3-.4-.2,0-.9,0-1.3.3-1.3.5-2.7.7-4,.4-2.6.6-5.2.6-7.9,0-5.2-.8-10.4-2.3-15.4-.8-2.6-1.7-5.1-2.9-7.5,0-.3-.3-.5-.4-.8,0-.2-.3-.4-.2-.6,0-.2.2-.4.4-.4.3,0,.5.4.6.6.6,1.2,1.2,2.5,1.7,3.8,2,4.9,3.2,10.2,3.7,15.5.5,5.9,0,12-1.2,17.8,0,.6.8.7.9.2h0Z"/>
  </g>
  <g>
    <path class="st0" d="M89.3,116.2c-7.4,0-14.8-1.2-21.7-3.9-2-.8-3.9-1.7-5.8-2.7-1-.6-1.8,1.1-.8,1.7,6.7,3.6,14.2,5.8,21.8,6.5,2.2.2,4.4.3,6.6.2,1.2,0,1-1.9,0-1.8h0Z"/>
    <path class="st0" d="M89.3,115.8c-4.6,0-9.2-.4-13.7-1.5-2.3-.5-4.5-1.2-6.7-2s-2.3-.9-3.4-1.4c-1.2-.5-2.3-1.1-3.4-1.7-1.4-.7-2.6,1.3-1.4,2.3.4.3.8.5,1.3.7.6.3,1.1.6,1.7.8,1,.5,2.1.9,3.2,1.4,4.3,1.7,8.9,2.9,13.5,3.6,2.7.4,5.5.6,8.2.6s2.1,0,2.3-1.1c0-.9-.6-1.6-1.4-1.7-.6,0-.5.9,0,.9s.4.2.5.5c0,.4-.2.4-.6.4h-3.3c-2.2,0-4.4-.3-6.5-.6-4.1-.6-8.2-1.7-12.1-3.3-1.9-.8-3.8-1.6-5.7-2.6-.3,0-.6-.2-.7-.6,0-.2,0-.5.3-.5.3,0,.6.2.8.3.5.3,1.1.5,1.6.8,3.8,1.8,7.8,3.2,11.9,4.2,4.5,1,9.1,1.5,13.7,1.4.6,0,.5-.9,0-.9h0Z"/>
  </g>
  <g>
    <path class="st0" d="M87.5,115.9c-6.1,3.2-13.2,4.6-20.1,4.2-2,0-4-.4-5.9-.8-1.2-.2-1.5,1.6-.3,1.8,7.1,1.5,14.7,1,21.6-1.3,2-.7,3.9-1.5,5.8-2.5.4-.2.5-.9.2-1.3-.3-.5-.8-.5-1.3-.2h0Z"/>
    <path class="st0" d="M87.2,115.5c-3.8,2-8,3.2-12.2,3.8s-4.2.4-6.4.4-2.4,0-3.5-.3c-1.2,0-2.3-.4-3.5-.6-1.7-.2-2.2,2.2-.6,2.7,1,.3,2.1.4,3.1.5,1.1,0,2.1.2,3.2.3,4.2.2,8.4-.2,12.4-1.2,2.5-.6,4.9-1.4,7.2-2.5.6-.3,1.2-.6,1.8-.9.5-.2.7-.7.7-1.2,0-1.1-1.1-1.6-2-1.2-.5.2-.2,1.1.3.9.3-.2.8-.2.8.3s-.8.7-1.1.9c-1,.5-2,.9-2.9,1.3-1.8.7-3.7,1.3-5.6,1.7-3.7.8-7.5,1.2-11.3,1-1.9,0-3.8-.3-5.6-.7-.3,0-.7,0-.9-.3,0-.2,0-.5,0-.7.3-.2.9,0,1.1,0,.6,0,1.1.2,1.7.3,3.9.6,7.8.5,11.7,0,4.2-.7,8.3-2,12.1-3.9.5-.3,0-1-.5-.8h0Z"/>
  </g>
  <g>
    <path class="st0" d="M87.2,114.5c-5.9-1.8-11.3-4.8-16-8.8-.9-.8-2.1.6-1.2,1.4,5,4.2,10.7,7.3,16.9,9.2.5,0,1-.3,1.1-.7,0-.5-.3-.9-.7-1.1h-.1Z"/>
    <path class="st0" d="M87.2,114c-3.3-1-6.4-2.4-9.4-4.2-1.5-.9-2.9-1.8-4.3-2.8-.7-.5-1.3-1-2-1.6-.4-.3-.8-.5-1.4-.4-.9.2-1.4,1.3-.8,2.1.2.2.4.4.7.6.3.3.7.5,1,.8.7.5,1.4,1,2.1,1.5,2.8,1.9,5.7,3.6,8.8,4.9.9.4,1.7.7,2.6,1,.5.2.9.3,1.4.5.4,0,.8.3,1.2.3.6,0,1.2-.6,1.3-1.2,0-.7-.3-1.3-1-1.6-.6-.2-.9.6-.4.8.2,0,.5.2.5.4s0,.4-.3.5c-.3,0-.7,0-.9-.2-.3,0-.7-.2-1-.4-1.4-.5-2.7-1-4-1.6-2.6-1.2-5.2-2.6-7.5-4.3-.6-.4-1.2-.8-1.7-1.3-.6-.4-1.2-.8-1.7-1.3s-.2-.5,0-.7c.3-.3.5,0,.8,0,2.2,1.8,4.6,3.5,7.1,4.9,2.8,1.6,5.8,2.9,8.9,3.8.6.2.7-.7.2-.9l-.2.3Z"/>
  </g>
  <g>
    <path class="st0" d="M117.8,137.5c-2.5-9.1-5.6-17.9-9.3-26.6-1-2.4-2.1-4.9-3.2-7.3-.2-.4-.7-.7-1.2-.6-.4.2-.8.7-.6,1.2,4,8.5,7.4,17.3,10.3,26.2.8,2.5,1.6,5.1,2.3,7.6.3,1.1,2.1.5,1.7-.6h0Z"/>
    <path class="st0" d="M118.2,137.3c-3-10.9-6.9-21.5-11.6-31.7-.3-.7-.6-1.3-.9-2-.2-.5-.5-.9-1-1-.9-.3-1.8.5-1.8,1.5s.2.5.3.8c0,.3.3.6.4.9.3.6.6,1.3.9,1.9.6,1.3,1.1,2.5,1.7,3.8,2.2,5.2,4.2,10.4,6,15.8,1,3,2,6,2.8,9.1.2.7.3,1.4.6,2.1.2.4.6.7,1.1.7,1,0,1.6-.9,1.4-1.8,0-.6-1-.3-.9.3,0,.3-.2.6-.4.6-.4,0-.5-.5-.6-.8-.4-1.3-.7-2.5-1.1-3.7-.7-2.4-1.5-4.8-2.3-7.2-1.6-4.8-3.4-9.5-5.4-14.2-1-2.4-2-4.7-3.1-7,0-.3-.2-.5-.4-.8,0-.2-.3-.4-.3-.6,0-.5.6-.5.9-.2.3.5.6,1.2.8,1.7.3.6.6,1.2.8,1.8,2.1,4.7,4,9.4,5.8,14.2,2,5.3,3.7,10.8,5.2,16.2.2.6,1,.3.9-.3h.2Z"/>
  </g>
  <g>
    <path class="st0" d="M118.6,137.8c-.2-8.9-1.7-17.8-4.2-26.3-.7-2.4-1.5-4.8-2.4-7.1-.4-1.1-2.2-.5-1.7.6,3.1,8.2,5.2,16.7,6.1,25.5.3,2.5.4,5,.5,7.5,0,1.2,1.9,1,1.8-.1h-.1Z"/>
    <path class="st0" d="M119.1,137.8c-.3-10.6-2.3-21.2-5.8-31.2-.2-.6-.4-1.2-.7-1.8-.2-.5-.4-1-.9-1.3-.7-.3-1.6,0-1.9.8-.2.5,0,.9.2,1.4.2.6.5,1.2.7,1.8.5,1.3.9,2.6,1.3,3.9,1.6,5,2.7,10.2,3.5,15.4.4,3,.7,6.1.9,9.1,0,.7,0,1.6,0,2.3,0,.4.4.8.8.9,1,.4,1.9-.4,1.9-1.4s-.9-.5-.9,0-.3.5-.6.5-.3-.6-.4-.9c0-1.3,0-2.6-.2-3.8-.2-2.5-.4-4.9-.8-7.4-.7-4.7-1.7-9.3-3.1-13.9-.7-2.3-1.5-4.6-2.3-6.8,0-.3-.4-.8-.2-1,.2-.2.6-.2.7,0,.2.2.2.5.3.8,0,.3.2.5.3.8.2.6.4,1.2.6,1.8,1.6,4.6,2.9,9.3,3.7,14.1,1,5.2,1.5,10.5,1.7,15.9,0,.6.9.5.9,0h.2Z"/>
  </g>
  <g>
    <path class="st0" d="M119.2,139.2c2.7-8.2,2.8-17.1.5-25.5-.6-2.3-1.5-4.6-2.5-6.7-.2-.4-.7-.7-1.2-.6-.4.2-.8.7-.6,1.2,3.5,7.5,4.8,15.9,3.6,24-.3,2.3-.8,4.6-1.5,6.8-.2.5,0,1,.4,1.2s1.1,0,1.2-.4h0Z"/>
    <path class="st0" d="M119.6,139.4c3-9.3,2.9-19.4-.3-28.6-.5-1.3-1-2.6-1.6-3.8-.2-.5-.5-.9-1-1s-1,0-1.4.4c-.8.9,0,1.9.3,2.8.5,1.1.9,2.2,1.3,3.3,1.5,4.6,2.2,9.4,2.1,14.3,0,2.8-.4,5.6-1.1,8.4-.2.8-.4,1.5-.6,2.3-.2.6-.5,1.2-.3,1.8.3,1.2,2.1,1.4,2.6.2.2-.5-.6-.9-.8-.4-.2.5-.9.2-.9-.3s0-.5.2-.7c0-.3.2-.7.3-1,.3-1.2.6-2.4.8-3.6.4-2.2.6-4.4.7-6.7,0-4.3-.4-8.6-1.6-12.8-.6-2.1-1.3-4.1-2.2-6.1,0-.3-.4-.8,0-1,.6-.2.8.7.9,1.1.5,1.1,1,2.3,1.4,3.5,1.4,4.2,2.2,8.7,2.3,13.1,0,4.9-.6,9.8-2.1,14.5-.2.6.7,1,.8.4h.2Z"/>
  </g>
  <g>
    <path class="st0" d="M111.7,136.3c-7.2,4.1-15.5,6.4-23.8,6.6-2.4,0-4.7,0-7.1-.3-1.2-.1-1.5,1.7-.3,1.8,8.6,1,17.5-.2,25.5-3.4,2.3-.9,4.5-2,6.7-3.2.4-.2.5-.9.2-1.3-.3-.4-.8-.5-1.3-.2h.1Z"/>
    <path class="st0" d="M111.4,135.9c-8.8,5-19.2,7.3-29.3,6.4-.9,0-2.1-.4-2.6.6-.4.7,0,1.7.7,1.9.5.2,1.2.1,1.7.2.6,0,1.2,0,1.8.1h3.7c4.9,0,9.7-.9,14.4-2.3,2.8-.8,5.5-1.9,8.1-3.2.7-.3,1.4-.7,2.1-1.1.5-.3,1.2-.5,1.4-1.2.4-1.2-.8-2.2-2-1.7-.5.3-.2,1.1.3.9.2-.1.5-.2.7,0,.2.1.2.4,0,.6,0,.2-.4.3-.6.4-.3.2-.6.3-.9.5-1.1.6-2.3,1.2-3.4,1.7-2.1.9-4.3,1.7-6.5,2.4-4.3,1.2-8.8,1.9-13.2,2-2.2,0-4.5,0-6.7-.2-.3,0-.8,0-.9-.3s0-.6.4-.7h1.6c.7,0,1.3,0,2,.1,4.6.2,9.2-.2,13.7-1.2,4.9-1.1,9.7-2.9,14-5.4.5-.3,0-1.1-.5-.8v.3Z"/>
  </g>
  <g>
    <path class="st0" d="M110.3,134.6c-5.7,2.4-11.7,3.6-17.9,3.7-1.7,0-3.5,0-5.2-.2-.5,0-1,.2-1.1.7,0,.5.2,1,.7,1.1,6.4.6,12.8,0,19-1.8,1.7-.5,3.4-1.1,5.1-1.8,1.1-.5.5-2.2-.6-1.7h0Z"/>
    <path class="st0" d="M110.1,134.2c-3.6,1.5-7.4,2.6-11.2,3.1-1.9.3-3.8.5-5.8.5h-4.8c-.5,0-1-.2-1.5,0-.8.1-1.3.9-1.1,1.7.3,1,1.1,1,1.9,1.1,1.9.2,3.8.2,5.7.2,3.8-.1,7.6-.7,11.3-1.7,1.1-.3,2.2-.6,3.3-1,.6-.2,1.2-.4,1.8-.7.5-.2,1-.4,1.5-.6,1.4-.8.4-3.1-1.1-2.5-.6.2-.3,1.1.3.9.4-.1.7.3.5.7-.2.3-.6.3-.8.4-.5.2-.9.4-1.4.5-1.7.6-3.4,1.1-5.2,1.6-3.3.8-6.6,1.3-10,1.4h-5.1c-.4,0-.8,0-1.2-.1-.3,0-.8-.1-.7-.6,0-.5.7-.4,1.1-.3.5,0,.9,0,1.4.1,3.5.2,7,0,10.5-.5,3.8-.6,7.4-1.7,11-3.1.5-.2.2-1.1-.3-.9v-.2Z"/>
  </g>
  <g>
    <path class="st0" d="M109.6,134.1c-7.3.9-14.7.9-22-.3-2.1-.3-4.2-.7-6.2-1.2-1.2-.3-1.5,1.5-.3,1.8,7.3,1.8,14.9,2.5,22.4,2.1,2.1-.1,4.2-.3,6.3-.6,1.2-.2,1-2,0-1.8h-.1Z"/>
    <path class="st0" d="M109.5,133.6c-9.2,1.2-18.7.7-27.7-1.4-.8-.2-1.5-.1-1.8.7-.3.6,0,1.4.6,1.8.4.2,1,.3,1.4.4.6.1,1.2.3,1.8.4,1.1.2,2.2.4,3.4.6,4.5.7,9.1,1,13.7,1s5.4-.2,8-.5c.5,0,1.1,0,1.6-.4.3-.2.5-.6.5-1,0-.9-.6-1.5-1.4-1.5s-.5,1,0,.9c.6,0,.6.8,0,.9-.5.1-1.1.1-1.6.2-.6,0-1.2.1-1.7.2-2.1.2-4.2.3-6.2.3-4.1,0-8.2-.3-12.2-.9-2-.3-4.1-.7-6.1-1.2-.3,0-.8,0-.9-.4v-.6c.3-.2.8,0,1,.1.5.1,1.1.2,1.6.4,4.1.8,8.2,1.4,12.3,1.6,4.6.2,9.1,0,13.7-.6.6,0,.5-1,0-.9h0Z"/>
  </g>
  <g>
    <path class="st0" d="M138.1,147.8c-1.8-5.5-3.2-11.2-4.2-16.9-.3-1.7-.6-3.3-.8-5,0-.5-.5-.9-1-.8s-.9.5-.8,1c.9,5.9,2.1,11.8,3.7,17.5.4,1.6.9,3.2,1.4,4.8.4,1.1,2.1.5,1.7-.6h0Z"/>
    <path class="st0" d="M138.5,147.6c-1.2-3.6-2.2-7.3-3-11.1-.4-1.9-.8-3.7-1.2-5.6-.2-1-.3-1.9-.5-2.9,0-.5-.1-.9-.2-1.4,0-.4,0-.9-.3-1.3-.4-.6-1.1-.8-1.7-.6-.7.3-.9,1-.8,1.7.3,1.9.6,3.7.9,5.6.7,3.7,1.5,7.4,2.5,11,.3,1.1.6,2.2.9,3.3.2.5.3,1,.5,1.5.1.4.2.9.5,1.2.4.5,1.1.5,1.7.2.6-.3.8-1,.7-1.6-.2-.6-1-.3-.9.3,0,.4-.3.7-.7.6-.2-.1-.2-.4-.3-.6-.1-.4-.3-.9-.4-1.3-.5-1.6-.9-3.2-1.4-4.9-.8-3.2-1.6-6.4-2.2-9.6-.3-1.6-.6-3.2-.8-4.8,0-.4-.1-.7-.2-1.1,0-.3,0-.6.3-.7.4,0,.5.4.6.7,0,.4.1.9.2,1.3.5,3.3,1.1,6.5,1.9,9.7.8,3.6,1.8,7.1,2.9,10.7.2.6,1,.3.9-.3h.1Z"/>
  </g>
  <g>
    <path class="st0" d="M138.5,148.3c.3-8,0-16.1-1.3-24-.3-2.3-.8-4.5-1.2-6.8-.1-.5-.5-.9-1-.8s-.9.5-.8,1c1.6,7.9,2.5,15.9,2.6,23.9,0,2.3,0,4.6-.1,6.9,0,.5.5.9,1,.8s.8-.5.8-1h0Z"/>
    <path class="st0" d="M138.9,148.3c.4-9.6-.3-19.2-2.1-28.7-.1-.6-.2-1.2-.3-1.7s-.2-1-.6-1.3c-.7-.6-1.7-.2-2.1.5-.2.5,0,.9,0,1.4.1.6.2,1.2.4,1.8.2,1.2.4,2.4.6,3.6.7,4.7,1.2,9.4,1.4,14.1.1,2.7.1,5.5,0,8.2v2.1c0,.5.2.9.6,1.2,1,.6,2,0,2.1-1.1,0-.6-.9-.8-.9-.2s-.3.8-.7.5c-.4-.2-.2-1-.2-1.4v-3.3c0-2.2,0-4.3-.1-6.5-.2-4.3-.6-8.5-1.2-12.7-.3-2.1-.7-4.2-1.1-6.3,0-.3-.3-.9,0-1.2.5-.4.8.2.8.6.2,1.1.4,2.2.6,3.3.8,4.2,1.3,8.5,1.6,12.7.3,4.8.4,9.6.2,14.4,0,.6.9.5.9,0h.1Z"/>
  </g>
  <g>
    <path class="st0" d="M139.1,148.5c2.7-7.2,4.1-14.8,4.3-22.4,0-2.1,0-4.3-.2-6.4,0-1.2-1.9-1-1.8,0,.6,7.4,0,14.8-2,21.9-.5,2-1.2,4-1.9,5.9-.2.5,0,1,.4,1.2s1,0,1.2-.4h0Z"/>
    <path class="st0" d="M139.5,148.7c3.2-8.6,4.7-17.8,4.2-27,0-.6,0-1.1-.1-1.7,0-.4,0-.9-.4-1.2-.5-.5-1.3-.5-1.9,0-.8.6-.5,1.7-.4,2.5,0,1.1.1,2.2.1,3.3,0,4.5-.4,9-1.3,13.4-.5,2.6-1.2,5.1-2,7.6-.2.7-.5,1.3-.7,2-.2.5-.2,1,.1,1.4.6.9,1.9.7,2.4-.2.3-.5-.6-.9-.8-.4-.2.3-.7.3-.8,0,0-.2,0-.5.1-.7.1-.3.2-.5.3-.8.4-1,.7-2,1-3.1.6-1.9,1.1-3.9,1.5-5.9.8-3.9,1.2-7.8,1.2-11.8s0-4-.2-6c0-.3,0-.5.3-.6.2,0,.5,0,.6.3.1.4,0,1,.1,1.5v1.6c.2,4.1,0,8.3-.7,12.3-.7,4.5-1.9,8.9-3.5,13.2-.2.5.6.9.8.4h0Z"/>
  </g>
  <g>
    <path class="st0" d="M153.5,154.7c1.8-10.3,2.5-20.8,2.1-31.3-.1-3-.3-6-.6-8.9-.1-1.2-2-1-1.8,0,1.1,10.3,1,20.8-.2,31.1-.3,2.9-.8,5.8-1.3,8.7-.2,1.2,1.6,1.5,1.8.3h0Z"/>
    <path class="st0" d="M154,154.8c1.1-6,1.8-12.1,2.1-18.2.3-6.2.2-12.4-.3-18.6,0-.8-.1-1.6-.2-2.4,0-.6,0-1.4-.4-1.9-.5-.7-1.7-.7-2.3,0-.4.5-.2,1.2-.1,1.7,0,.7.1,1.5.2,2.2.1,1.5.2,3,.3,4.6.3,6.1.2,12.2-.3,18.3-.2,3.1-.6,6.2-1,9.3-.1.8-.2,1.6-.4,2.3-.1.7-.4,1.5-.4,2.3s1,1.6,1.9,1.3c.5-.2.7-.6.8-1,.1-.6-.8-.7-.9-.2,0,.3-.4.5-.7.3-.1,0-.2-.2-.2-.4,0-.4.1-.7.2-1.1.2-1.4.5-2.9.7-4.3.4-2.8.7-5.7.9-8.5.4-5.5.5-11.1.3-16.6-.1-2.8-.3-5.5-.6-8.3,0-.4-.1-.7-.1-1.1s0-.3.2-.4c.3-.2.6,0,.7.3.2.7.1,1.5.2,2.2,0,.7.1,1.5.2,2.2.4,5.6.5,11.3.2,16.9-.2,5.6-.8,11.2-1.7,16.8-.1.7-.2,1.4-.4,2.1-.1.6.8.7.9.2h.2Z"/>
  </g>
  <g>
    <path class="st0" d="M154.1,154.8c3.4-7,5.7-14.6,6.7-22.3.3-2.2.5-4.4.5-6.6s-.5-.9-1-.8c-.5,0-.8.5-.8,1-.3,7.5-1.8,15-4.5,22.1-.8,2-1.6,4-2.6,5.9-.5,1.1,1.1,1.8,1.7.8h0Z"/>
    <path class="st0" d="M154.6,155c4.2-8.6,6.6-17.9,7.2-27.4,0-.9.4-2.2-.5-2.8-.8-.5-1.8,0-2,.7-.2.5-.1,1.1-.1,1.6s0,1.2-.1,1.9c0,1.1-.2,2.3-.4,3.4-.6,4.6-1.7,9.2-3.2,13.6-.9,2.6-2,5.1-3.2,7.6-.3.7-.2,1.5.5,1.9s1.5.1,1.9-.6c.3-.5-.6-.9-.8-.4-.2.3-.8.3-.9-.1,0-.3.3-.9.5-1.2.2-.5.5-1,.7-1.5.9-2,1.7-4,2.4-6.1,1.3-3.9,2.3-8,2.9-12,.3-2,.5-4.1.6-6.1v-1.4c0-.2,0-.4.2-.6.2,0,.4,0,.6,0,.3.3,0,1,0,1.4,0,.6,0,1.2-.1,1.7-.3,4.2-1,8.4-2.1,12.5-1.2,4.6-2.9,9.1-4.9,13.3-.3.5.6.9.8.4v.2Z"/>
  </g>
  <g>
    <path class="st0" d="M152.8,155.5c6.6-4.4,11.9-10.9,14.9-18.4.8-2.1,1.5-4.3,2-6.5.2-1.2-1.6-1.5-1.8-.3-1.6,7.5-5.5,14.3-11,19.6-1.6,1.5-3.3,2.8-5.1,4-1,.7,0,2.2,1,1.5h0Z"/>
    <path class="st0" d="M153,155.9c8.2-5.5,14.2-14,16.6-23.5.1-.6.3-1.2.4-1.8,0-.4,0-.8-.3-1-.5-.5-1.4-.6-1.9-.1-.4.3-.5.7-.6,1.1-.1.6-.3,1.2-.4,1.7-.3,1.2-.7,2.3-1.1,3.4-1.7,4.4-4.3,8.6-7.5,12.1-1.9,2.1-4,3.9-6.3,5.5-.4.3-.9.5-1,1.1,0,.3,0,.7.2,1,.4.7,1.3.9,2,.5.5-.3,0-1.1-.5-.8-.4.2-.9-.2-.7-.6.2-.3.7-.5,1-.7.5-.4,1-.7,1.5-1.1,1.7-1.4,3.4-2.9,4.8-4.5,2.8-3.1,5.1-6.7,6.8-10.6.8-1.9,1.5-4,2-6,.1-.4.2-1.9,1-1.4.3.2.1.6,0,.9-.1.6-.3,1.1-.4,1.7-1.2,4.3-3.1,8.4-5.6,12-2.8,4.1-6.4,7.6-10.5,10.4-.5.3,0,1.1.5.8h0Z"/>
  </g>
  <g>
    <path class="st0" d="M153.4,156c6-2,11.6-5.4,16.1-9.9s2.4-2.6,3.5-4.1c.7-.9-.7-2.1-1.4-1.2-3.7,4.8-8.5,8.8-13.9,11.5s-3.2,1.4-4.8,1.9c-1.1.4-.5,2.1.6,1.7h-.1Z"/>
    <path class="st0" d="M153.5,156.4c7.7-2.5,14.6-7.4,19.6-13.8.4-.5.7-1.1.4-1.7-.2-.5-.7-.9-1.3-.9s-1.1.6-1.5,1.2c-.7.8-1.3,1.6-2.1,2.4-2.8,3-6,5.5-9.6,7.5-1.1.6-2.2,1.1-3.3,1.6-.5.2-1.1.4-1.6.6-.5.2-1.1.3-1.6.6-.7.3-1,1-.7,1.7s1,1,1.7.8c.6-.2.3-1-.3-.9-.4.1-.8-.4-.5-.7s.8-.3,1-.4c.4-.2.9-.3,1.3-.5,1.7-.7,3.3-1.4,4.9-2.3,3.1-1.8,6-4,8.5-6.5s1.2-1.3,1.8-2c.3-.3.5-.6.8-1,.3-.3.5-.8.9-1.1.2-.2.6-.1.7.2v.5c-.2.4-.6.8-.9,1.2-2.3,2.8-5,5.3-7.9,7.3-3.2,2.3-6.8,4.1-10.5,5.3-.6.2-.3,1.1.3.9h0Z"/>
  </g>
  <g>
    <path class="st0" d="M136,148.7c-5.6,4-11.9,7-18.6,8.8-1.9.5-3.7,1-5.6,1.3-.5,0-.9.5-.8,1,0,.5.5.9,1,.8,7-1.3,13.8-3.7,20-7.2,1.7-1,3.4-2.1,5.1-3.2,1-.7,0-2.2-1-1.5h-.1Z"/>
    <path class="st0" d="M135.7,148.3c-3.6,2.5-7.4,4.7-11.5,6.4-2,.8-4.1,1.6-6.2,2.2-1.1.3-2.2.6-3.3.9-.5.1-1.1.2-1.6.4-.6.1-1.2.2-1.7.4-.8.3-1.2,1.3-.7,2,.6.9,1.5.6,2.4.4,2.1-.4,4.1-.9,6.1-1.5,4.1-1.2,8-2.9,11.7-4.9,1.1-.6,2.2-1.2,3.3-1.9.6-.4,1.1-.7,1.7-1.1.5-.3,1.1-.6,1.5-1,1.2-1.1-.4-3-1.7-2.1-.5.3,0,1.1.5.8.3-.2.8,0,.7.5,0,.3-.4.4-.6.6-.5.3-.9.6-1.4.9-1.7,1.1-3.4,2.1-5.1,3-3.4,1.8-6.9,3.2-10.5,4.3-1.8.6-3.6,1-5.4,1.4-.5,0-.9.2-1.4.3-.4,0-.9.3-1-.2-.2-.5.4-.6.7-.7.5,0,1-.2,1.5-.3,3.9-.8,7.7-2,11.3-3.6,4-1.7,7.7-3.8,11.2-6.3.5-.3,0-1.1-.5-.8h0Z"/>
  </g>
  <g>
    <path class="st0" d="M133.4,147.7c-5.2,2.3-10.8,3.9-16.5,4.7-1.6.2-3.3.4-4.9.5-1.2,0-1,1.9,0,1.8,5.9-.4,11.7-1.5,17.2-3.5,1.6-.5,3.1-1.1,4.6-1.8.5-.2.7-.7.6-1.2-.2-.4-.7-.8-1.2-.6h0Z"/>
    <path class="st0" d="M133.2,147.3c-3.4,1.5-6.9,2.7-10.5,3.5-1.8.4-3.7.8-5.5,1.1-1,.1-2,.3-3,.4-.5,0-1,0-1.5.1-.4,0-.8,0-1.2.1-1.2.4-1,2.2,0,2.6.4.1.7,0,1.1,0s.9,0,1.4-.1c.9,0,1.8-.2,2.8-.3,3.7-.5,7.3-1.3,10.8-2.4,2.1-.7,4.2-1.4,6.2-2.3.7-.3,1.4-.9,1.1-1.8-.2-.7-1-1.2-1.8-.9-.6.2-.3,1.1.3.9.2,0,.5,0,.6.3.1.4-.3.6-.6.7-.8.3-1.6.7-2.4,1-1.5.6-3.1,1.1-4.7,1.6-3.1.9-6.2,1.6-9.4,2-1.6.2-3.2.4-4.8.5-.2,0-.4,0-.6-.2,0-.1,0-.4,0-.5,0-.2.4-.2.6-.2.4,0,.9,0,1.3-.1,3.3-.3,6.5-.8,9.7-1.6,3.5-.9,6.9-2,10.2-3.5.5-.2.2-1.1-.3-.9h.2Z"/>
  </g>
  <g>
    <path class="st0" d="M134.8,148.7c-4.1,5.9-9,11.3-14.5,16-.4.3-.5.8-.2,1.3.3.4.9.6,1.3.2,5.6-4.8,10.6-10.3,14.8-16.3.3-.4.3-1-.1-1.3s-1-.3-1.3.1h0Z"/>
    <path class="st0" d="M134.5,148.4c-2.1,3-4.5,6-7,8.7-1.2,1.4-2.5,2.7-3.8,3.9-.7.6-1.3,1.3-2,1.9-.3.3-.7.6-1,.9-.3.3-.7.5-.9.9-.7,1.1.5,2.6,1.7,2,.4-.2.7-.5.9-.8.3-.3.7-.6,1-.9.7-.6,1.4-1.3,2-1.9,2.7-2.6,5.2-5.3,7.5-8.1.7-.8,1.3-1.6,1.9-2.5.6-.8,1.2-1.6,1.8-2.4.4-.6.3-1.4-.2-1.8-.6-.5-1.5-.4-1.9.2-.4.5.3,1,.7.6s.5-.2.7,0,0,.5,0,.7c-.4.6-.9,1.3-1.4,1.9-1,1.3-1.9,2.5-3,3.7-2,2.4-4.1,4.7-6.4,6.9-1.1,1.1-2.3,2.2-3.5,3.2-.2.2-.5.5-.8.5s-.4-.2-.4-.5.4-.5.6-.7c.3-.3.6-.6.9-.8,2.3-2.1,4.5-4.3,6.6-6.6,2.4-2.6,4.6-5.4,6.6-8.3.3-.5-.4-1.1-.7-.6h0Z"/>
  </g>
  <g>
    <path class="st0" d="M152,155.7c-.5,1.5-2.1,2.5-3.3,3.4-1.4,1.1-2.9,2.1-4.4,3.1-3,1.9-6,3.7-9.2,5.2-.4.2-.7.7-.6,1.2.2.4.7.8,1.2.6,5.3-2.5,10.4-5.6,15-9.2,1.3-1,2.5-2.1,3-3.8.1-.5-.3-1-.7-1.1-.5,0-.9.3-1.1.7h.1Z"/>
    <path class="st0" d="M151.6,155.5c-.5,1.6-2.2,2.5-3.5,3.4-1.5,1.1-3.1,2.2-4.7,3.2-1.6,1-3.2,2-4.9,2.9-.8.4-1.7.9-2.5,1.3-.6.3-1.5.6-1.9,1.2-.3.6-.1,1.2.4,1.6.6.5,1.2.3,1.9,0,1.7-.8,3.3-1.6,4.9-2.6,3.2-1.8,6.3-3.8,9.2-6,.8-.6,1.6-1.2,2.3-2,.6-.7,1.3-1.6,1.5-2.6.1-.7-.4-1.3-1-1.5-.8-.2-1.5.2-1.7,1-.2.6.6.9.8.4,0-.2.2-.5.5-.5s.5.2.5.4c0,.3-.3.8-.4,1-.2.4-.4.7-.7,1-1,1.2-2.4,2.1-3.6,3-2.6,1.9-5.2,3.6-8,5.1-1.4.8-2.8,1.5-4.2,2.2-.3.1-.6.4-.9.4s-.5-.2-.5-.4c0-.3.3-.5.5-.6.4-.2.7-.4,1.1-.5,2.8-1.4,5.6-3,8.2-4.7,1.5-1,3-2.1,4.4-3.1,1.2-.9,2.6-1.8,3.1-3.3.2-.6-.6-1-.8-.4h0Z"/>
  </g>
  <g>
    <path class="st0" d="M153.2,156.2c-2.1,6.2-7.2,10.5-11.6,15-1.3,1.3-2.6,2.6-3.8,4.1-.8.9.6,2.1,1.4,1.2,4.2-5,9.6-9,13.2-14.5,1-1.6,1.9-3.2,2.5-5,.2-.5,0-1-.4-1.2s-1.1,0-1.2.4h0Z"/>
    <path class="st0" d="M152.7,156c-1.3,3.9-3.8,7.1-6.6,10-1.4,1.5-2.9,2.9-4.3,4.3l-2.3,2.3c-.7.8-1.5,1.6-2.2,2.4-.7.9,0,2.4,1.2,2.3.8,0,1.3-.9,1.7-1.4.7-.8,1.4-1.6,2.2-2.3,3-3.1,6.3-6,9-9.5,1.4-1.9,2.6-3.9,3.5-6.1.3-.8.7-1.8,0-2.4-.7-.6-1.8-.4-2.1.5-.2.5.6.9.8.4.1-.3.6-.4.8,0,.2.3,0,.8-.2,1.1-.3.8-.7,1.7-1.1,2.5-.9,1.7-2,3.2-3.2,4.7-2.4,2.9-5.2,5.4-7.8,8.1-.7.7-1.3,1.4-2,2.1-.3.4-.6.7-.9,1.1-.2.2-.3.5-.6.6-.3,0-.6-.3-.5-.6,0-.3.4-.6.6-.8.3-.4.7-.8,1-1.1,2.4-2.6,5.1-5,7.6-7.6,2.7-2.9,5.1-6,6.4-9.8.2-.6-.6-.9-.8-.4l-.2-.4Z"/>
  </g>
  <g>
    <path class="st0" d="M153.2,157.2c2.1,6.5-1,13.1-3.7,18.8-.5,1.1,1.2,1.9,1.7.8,2.4-5,4.7-10.2,4.5-15.9,0-1.5-.3-2.9-.7-4.4-.4-1.1-2.1-.5-1.7.6h-.1Z"/>
    <path class="st0" d="M152.7,157.4c1,3.2.7,6.5-.1,9.6-.4,1.6-1,3.1-1.6,4.6-.3.8-.7,1.5-1,2.2s-.7,1.4-1,2.1c-.4,1.2.9,2.3,2,1.7.6-.4.9-1.2,1.2-1.9.4-.9.8-1.7,1.2-2.6,1.4-3.4,2.6-6.9,2.8-10.6,0-1.1,0-2.2-.1-3.2s-.3-2.1-.7-3c-.3-.7-1-1-1.7-.7s-1,1-.8,1.7c.2.6,1,.3.9-.3-.1-.4.4-.8.7-.5s.3.7.4,1c.1.4.2.8.3,1.3.3,1.6.3,3.3.1,5-.4,3.3-1.5,6.4-2.8,9.4-.3.7-.7,1.5-1,2.2-.2.3-.3.7-.5,1,0,.2-.2.5-.4.5-.4,0-.6-.3-.6-.6s.3-.6.4-.9c.2-.3.3-.7.5-1,1.2-2.6,2.3-5.2,3-8,.8-3.1.9-6.3,0-9.4-.2-.6-1-.3-.9.3h-.3Z"/>
  </g>
  <g>
    <path class="st0" d="M155.3,158.9c-.3-.2-.7-.4-1-.6-.8-.5-1.7.7-1.1,1.4,3.2,4.4,5.5,9.4,6.6,14.7.1.5.7.7,1.2.6.5-.2.7-.7.6-1.2-1.2-5.4-3.5-10.6-6.8-15.1l-1.1,1.4c.3.2.7.4,1,.6.4.3,1,0,1.2-.4.2-.5,0-1-.4-1.2h0l-.2-.2Z"/>
    <path class="st0" d="M155.5,158.5c-.5-.3-1.1-.8-1.7-.8s-.8.3-1.1.7c-.7,1.1.4,2.1,1,2.9,1.7,2.5,3,5.2,4.1,8,.5,1.4.9,2.8,1.3,4.3.1.6.2,1.3.8,1.6.5.3,1.1.2,1.6-.1.5-.4.6-1,.4-1.6-.2-.7-.3-1.4-.5-2.2-.4-1.4-.9-2.8-1.4-4.2-1.3-3.1-2.9-6.1-4.9-8.8-.2-.2-.5-.3-.7,0l-1.1,1.4c-.2.2,0,.6.2.7.4.3.9.7,1.4.8.4,0,.8-.1,1.1-.4.7-.7.5-1.7-.3-2.2-.5-.3-1.1.4-.6.7.3.2.6.7,0,.9-.4.2-1-.4-1.4-.7,0,.2.1.5.2.7l1.1-1.4h-.7c3,4.1,5.2,8.7,6.5,13.6,0,.3.2.6.2.9s.2.6,0,.9c-.1.2-.4.2-.6.1-.3-.1-.3-.5-.3-.7-.3-1.2-.6-2.5-1-3.7-.8-2.3-1.8-4.6-3-6.8-.7-1.2-1.5-2.5-2.3-3.6-.2-.3-.4-.6,0-.9.2-.1.3,0,.4,0,.4.2.7.4,1,.6.5.3.9-.5.4-.8h0Z"/>
  </g>
  <g>
    <path class="st0" d="M172.3,164.3c5.2,2,11.1,2,16.3,0,1.1-.4.5-2.2-.6-1.7-4.8,1.8-10.2,1.9-15,0-.5-.2-1,0-1.2.4s0,1,.4,1.2h.1Z"/>
    <path class="st0" d="M172.1,164.7c5.2,2,11.1,2.1,16.4.1.5-.2,1-.5,1.1-1.1.1-.5,0-1-.4-1.3-.4-.4-.9-.5-1.3-.3-.7.2-1.3.5-2,.7-2.7.7-5.6.9-8.4.5-.8-.1-1.5-.3-2.3-.5-.7-.2-1.5-.5-2.2-.7s-1.4.2-1.6.9c-.2.7,0,1.4.7,1.7.5.3.9-.6.4-.8-.2-.1-.3-.4-.2-.6.1-.3.4-.3.7-.2.6.2,1.1.4,1.7.6,1.1.3,2.3.6,3.5.7,2.3.3,4.7.1,7-.4.6-.1,1.1-.3,1.7-.4.3,0,.5-.2.8-.3.2,0,.5-.3.8-.3s.5.4.3.7c0,.2-.3.2-.5.3-.3.1-.6.2-.9.3-2.3.7-4.6,1.1-7,1.1s-5.4-.5-7.9-1.5c-.5-.2-.9.6-.4.8h0Z"/>
  </g>
</svg>