<?xml version="1.0" encoding="UTF-8"?>
<svg id="Layer_1" xmlns="http://www.w3.org/2000/svg" version="1.1" viewBox="0 0 200 200">
  <!-- Generator: Adobe Illustrator 29.1.0, SVG Export Plug-In . SVG Version: 2.1.0 Build 142)  -->
  <defs>
    <style>
      .st0 {
        fill: #781c18;
      }
    </style>
  </defs>
  <path class="st0" d="M92.9,49.8c-2.2,5.1-6.6,9-11,12.2-4.7,3.5-9.8,6.4-14.3,10.2-8.4,7.1-13.5,17.8-12.5,28.8.5,5.4,2.3,10.6,5.1,15.1,3,4.7,7,8.4,11.6,11.5,4.6,3.2,9.5,5.9,13.9,9.4,4.2,3.3,7.7,7.5,10,12.3,1.1,2.3,1.9,4.8,2.3,7.3.4,2.4.4,4.7.3,7.1,0,2,0,4.2.8,6s2.9,3,4.9,3c3.8-.1,5-4.9,4.5-7.9-.4-2.2-.3-4.5-.4-6.7,0-2.3-.3-4.6.2-7,1.3-5.4,5.3-9.7,9.7-12.9,4.8-3.5,10.1-6.1,15-9.4,9.1-6.1,17.3-14.7,19.4-25.8,1-5.5.4-11.1-2.1-16.1-2.3-4.7-6.1-8.6-10.1-11.9-8.3-7-18.3-11.9-25.4-20.2-1.7-2-3.1-4.2-4.3-6.5-.3-.7-1.4,0-1,.6,4.8,9.7,14.2,15.7,22.8,21.7,8.4,5.8,17.5,13.1,19.1,23.9,1.6,11.3-5,21.7-13.2,28.8-4.3,3.7-9.1,6.6-14,9.4-4.8,2.9-9.7,5.9-13.2,10.4-1.6,2-2.9,4.3-3.7,6.8-.4,1.2-.6,2.4-.6,3.7s0,2.2,0,3.3c0,2.3,0,4.6.2,6.9,0,.9.3,1.7.3,2.6s0,1.7-.4,2.5c-.5,1.5-1.6,2.8-3.3,2.7-1,0-2.1-.5-2.8-1.1-.7-.7-1.1-1.6-1.3-2.5-.4-1.9-.2-3.8,0-5.8,0-2.5-.2-5.1-.8-7.6-1.2-4.9-3.7-9.4-7-13.2-3.5-4.1-8-7.2-12.5-10.2-4.6-3-9.4-5.8-13.3-9.7-3.8-3.8-6.7-8.5-8.4-13.7-1.6-5-1.9-10.4-.8-15.6,1.1-5.3,3.5-10.2,6.9-14.4,7.3-8.8,18.7-12.8,26.2-21.3,1.7-1.9,3.1-4,4.1-6.4.3-.7-.9-1-1.2-.3h.3Z"/>
  <path class="st0" d="M93.4,50.3c2.2.9,4.5,1.8,6.9,2h3.6c1.1,0,2.2-.3,3.3-.7,1.1-.4,2.2-1,3.2-1.7.3-.2.4-.5.2-.8,0-.3-.6-.4-.8-.2-.4.3-.9.6-1.3.9-.4.2-.9.5-1.2.6-.5.2-.9.3-1.4.5-.5,0-1,.2-1.5.3h-3.6c-1.1,0-2.2-.3-3.2-.6-1.3-.4-2.5-.9-3.7-1.4-.3,0-.7,0-.7.4s0,.6.4.7h-.2Z"/>
  <path class="st0" d="M94.9,40.7c0-.2,0-.4,0-.5v-.2h0c0,0-1.2,0-1.2,0v3.9c0,1.3,0,2.6-.2,3.9,0,.7-.2,1.4-.3,2.1,0,.3,0,.7.4.7s.7,0,.7-.4c.5-2.6.6-5.3.6-8v-2.3c0-.3-.3-.6-.6-.6s-.6.3-.6.6v.7h0c0,.4.3.7.6.7s.6-.3.6-.6h0Z"/>
  <path class="st0" d="M110.6,40.5v-.6h-1.2c0,2.6.2,5.2.2,7.7v1.7c0,.3.3.6.6.6s.6-.3.6-.6c0-2.4,0-4.9-.2-7.3v-2.1c0-.3-.3-.6-.6-.6s-.6.3-.6.6v.6c0,.3.3.6.6.6s.6-.3.6-.6h0Z"/>
  <path class="st0" d="M107.5,41.5c1-.2,2.1-.5,2.9-1.2.5-.5.7-1.2.5-1.8-.2-.7-.6-1.2-1.2-1.6-1.2-.9-2.6-1.2-4.1-1.3-1.5-.2-3.1-.4-4.7-.4s-2.8,0-4.2.3c-1.1.3-2.4.9-3.1,1.9-.4.5-.7,1-.6,1.6,0,.6.4,1.2.9,1.6.9.8,2,1.1,3.2,1.3,1.5.3,3.1.3,4.6.3s3.1,0,4.7-.4c.4,0,.8,0,1.1-.2.3,0,.5-.4.4-.7,0-.3-.4-.5-.7-.4-1.4.3-2.7.4-4.1.5-1.4,0-2.9,0-4.3,0-.6,0-1.2,0-1.8-.3-.3,0-.5,0-.8-.2,0,0-.2,0-.3,0h-.2s0,0,0,0h0c-.2,0-.4-.2-.6-.4,0,0-.2,0,0,0h0c0,0-.2-.3-.3-.4h0s0,0,0-.2h0v-.2c0,0,0,0,0,0,0,0,0-.2,0,0v-.2h0c0,0,0,0,0,0h0v-.3h0c.2-.2.4-.4.6-.5h0s0,0,.2,0c0,0,.2,0,.3-.2.2,0,.5-.3.7-.4.5-.2,1.1-.4,1.7-.5h1.8c1.4,0,2.8,0,4.2.3,1.3.2,2.7.2,4,.7h.3c0,0,.3,0,.4.2,0,0,.2.2.3.2,0,0,.2.2.3.3h0c0,0,0,.3,0,0,0,0,.2.2.2.4s0,.2,0,.3c0,0,0,0,0,0h0s0,0,0,0h0c0,.2,0,0,0,0h0q0,0,0,.2h0s-.2,0-.3.2h-.2s0,0,0,0h-.3c-.2,0-.4,0-.7.2-.2,0-.4,0-.6,0-.3,0-.5.4-.4.7,0,.3.4.5.7.4h-.2Z"/>
  <path class="st0" d="M100.4,41.4c-.4-3.3-.9-6.8,0-10,0-.2,0-.3,0-.5v-.2h0c0-.1,0-.2,0-.1,0-.1,0-.3.2-.4,0,0,0-.1,0-.2h0c0-.1,0,0,0,0,0-.1.2-.2.3-.3h0s0,0,.2-.1c0,0,0,0,0,0h.2s.2,0,0,0h.4s0,0,0,0,.3,0,.4.1h0s0,0,0,0h0c0,0,.3.2.4.2h0s0,0,.2.1.2.2.3.4h0s0,.1,0,.2c0,.1.2.3.2.4s0,0,0,0v.5c0,.2,0,.4,0,.6v1.3c0,.8-.3,1.8-.6,2.6,0,.3,0,.7.4.7s.6,0,.7-.4c.5-1.7,1-3.6.4-5.3-.4-1.3-1.6-2.6-3-2.8-.7-.1-1.4,0-2.1.3-.7.4-1.1,1-1.4,1.7-.3.8-.5,1.6-.6,2.4,0,.9-.2,1.9-.2,2.8,0,2.1.2,4.1.5,6.2,0,.3.2.6.6.6s.6-.3.6-.6h0l1.4-.2Z"/>
  <path class="st0" d="M64,77.7c4.5,2.4,9.3,4.3,14.2,5.6,5,1.4,10.1,2.3,15.2,2.7,5.1.4,10.3.3,15.4-.2,5.1-.6,10.2-1.6,15.1-3.2,4.9-1.5,9.6-3.6,14-6.1.5-.3,1.1-.6,1.6-.9.7-.4,0-1.4-.6-1-4.3,2.6-8.8,4.7-13.6,6.3-4.8,1.6-9.8,2.8-14.8,3.5s-10.1.9-15.1.6c-5.1-.3-10.1-1-15-2.3-4.9-1.2-9.6-2.9-14.1-5.2-.6-.3-1.1-.6-1.7-.9-.7-.4-1.3.7-.6,1h0Z"/>
  <path class="st0" d="M56,105.7c3.9,4.5,9.6,7.2,15.3,8.7,6.8,1.7,13.9,1.8,20.9,1.9,7.2,0,14.4.2,21.5-.3,6.7-.5,13.4-1.4,19.8-3.3,5.9-1.8,11.7-4.3,16.8-7.9.6-.4,1.2-.9,1.8-1.4s-.2-1.3-.9-.9c-4.8,3.8-10.4,6.5-16.1,8.4-6.2,2-12.6,3.1-19,3.7-7,.6-14,.6-21.1.5-7,0-14,0-20.9-1.3-5.8-1.1-11.6-3.3-15.9-7.4-.5-.5-1-1-1.4-1.5-.5-.6-1.4.3-.9.9h0Z"/>
  <path class="st0" d="M56.6,102.9c2.5-1.3,5-2.6,7.5-4,2-1.1,4.2-2,5.9-3.6,1.4-1.3,2.2-3.2,1.6-5.1-.5-1.6-2-3-3.8-2.8-2.1.2-3.3,2.1-3.7,4-.4,1.8-.4,3.8,0,5.6.8,3.7,3.2,7,6.2,9.3,3.2,2.4,7.3,3.4,11.3,2.9,3.9-.5,7.6-2.4,10.3-5.3,1.3-1.4,2.3-3,3-4.8.6-1.7,1.1-3.8.4-5.5-.8-2.1-3.1-2.7-5-1.6-2,1.1-2.6,3.5-2.5,5.5,0,4.2,2.3,8.1,5.6,10.5,3.5,2.6,8.2,3.4,12.5,2.5,4.2-.9,7.8-3.6,9.7-7.4.9-1.8,1.4-3.9,1.4-5.9s-.2-4.9-2.6-5c-2.4,0-3.2,2.6-3.3,4.6,0,2,.3,4,1.2,5.7,1.9,3.8,5.6,6.5,9.7,7.3,4.4.8,9.1-.2,12.6-2.9,3.4-2.6,5.6-6.6,6-10.8.2-2.2,0-4.7-1.5-6.5-1.3-1.6-3.7-2.4-5.7-1.5-1.9.9-2.9,3-2.7,5.1.2,2.3,1.6,4.4,3.1,6.1,1.4,1.6,3.1,2.9,5.1,3.7,1.7.7,3.8,1.2,5.7.6,1.6-.5,3-1.6,4.1-2.7,1.2-1.3,2.3-2.8,3-4.4.6-1.4,1-2.8.7-4.3-.1-.8-1.3-.4-1.2.3.2,1.2-.2,2.6-.7,3.7-.7,1.4-1.6,2.7-2.7,3.9-1,1-2.1,2-3.5,2.4-1.5.5-3.3,0-4.8-.5-1.8-.7-3.3-1.9-4.6-3.2-1.4-1.4-2.6-3.3-3-5.2-.3-1.7.4-3.7,2.1-4.4,1.8-.7,3.8.5,4.7,2.2s.9,3.9.5,5.8c-.3,1.8-1,3.6-2,5.2-2.1,3.4-5.5,5.6-9.3,6.4s-7.9,0-11-2.2c-2.8-2.1-4.8-5.6-4.7-9.2,0-.9,0-1.8.5-2.6.3-.7,1.2-1.5,2.1-1,.7.4.8,1.7.9,2.5v2.7c-.4,3.6-2.6,7-5.7,8.9-3.3,2-7.4,2.6-11.1,1.7-3.6-.9-6.8-3.3-8.5-6.7-.8-1.6-1.3-3.4-1.3-5.2s.5-4,2.4-4.6c.8-.3,1.7-.2,2.3.4.5.6.7,1.4.7,2.1,0,1.6-.5,3.3-1.3,4.7-3.2,6.2-11.1,9.5-17.8,7.5-6.3-1.9-11.6-8.6-10.3-15.4.3-1.5,1-3.4,2.8-3.6,1.5,0,2.5,1.3,2.7,2.6.2,1.7-1.2,3.2-2.5,4.1-1.8,1.3-3.8,2.2-5.7,3.2-2.1,1.1-4.2,2.2-6.3,3.3-.7.4,0,1.4.6,1h-.1Z"/>
</svg>