<?xml version="1.0" encoding="UTF-8"?>
<svg id="Layer_1" xmlns="http://www.w3.org/2000/svg" version="1.1" viewBox="0 0 519 171.9">
  <!-- Generator: Adobe Illustrator 29.1.0, SVG Export Plug-In . SVG Version: 2.1.0 Build 142)  -->
  <defs>
    <style>
      .st0 {
        fill: #eac998;
      }
    </style>
  </defs>
  <path class="st0" d="M3.2,92.6c-.3,0-.5,0-.7-.3-.2-.2-.3-.4-.3-.7s0-.3.2-.5c2.7-4.5,4.2-10.1,4.5-16.8v-31c0-1.4-.4-2.4-1.1-3-.8-.7-1.2-1-1.2-1.1-.2-.2-.3-.5-.3-.8s0-.5.2-.7.4-.3.6-.3c4.4,0,8-.4,10.6-1.2,2.7-.8,4.6-1.6,5.7-2.4.2-.2.4-.2.7-.2s.5,0,.7.3.4.5.4.8v33.6c0,4.5-.5,8-1.5,10.5s-2.6,4.8-4.8,6.7c-1.8,1.6-3.7,2.9-5.8,3.9-2.1,1-4.6,2.1-7.6,3.2h-.5.2ZM8.5,28.9c-1.6-1.6-2.4-3.5-2.4-5.8s.8-4.2,2.4-5.8c1.6-1.6,3.5-2.4,5.8-2.4s4.1.8,5.7,2.4c1.6,1.6,2.4,3.5,2.4,5.8s-.8,4.2-2.4,5.8c-1.6,1.6-3.5,2.4-5.7,2.4s-4.2-.8-5.8-2.4Z"/>
  <path class="st0" d="M74.4,71.8c.3.6.6,1.2,1.1,1.9.5.7.7,1.1.7,1.3,0,.3,0,.6-.2.7-.2.2-.4.3-.7.3h-17.6v-5.5c-1.4,2.1-3.2,3.7-5.3,5-2.1,1.2-4.3,1.8-6.6,1.8s-4.9-.6-7.1-1.9c-2.2-1.2-4.1-3-5.5-5.3-1.4-2.3-2.1-4.8-2.1-7.8v-19.2c0-1-.2-1.8-.5-2.2s-.9-1-1.6-1.7-.5-.6-.5-.9,0-.5.2-.6c.2-.2.4-.2.6-.2,3.3,0,6.2-.3,8.6-1,2.4-.6,4.7-1.4,6.8-2.3.9-.4,1.5-.5,1.6-.5.3,0,.6,0,.8.3.2.2.4.4.4.7v26.8c0,2.1.6,3.7,1.9,4.9,1.3,1.2,2.8,1.8,4.7,1.8s2.4-.3,3.5-.8v-24.1c0-1-.2-1.8-.5-2.2s-.9-1-1.6-1.7c-.3-.3-.5-.6-.5-.9s0-.5.2-.6c.2-.2.4-.2.6-.2,3.3,0,6.2-.3,8.6-1,2.4-.6,4.7-1.4,6.8-2.3.9-.4,1.5-.5,1.6-.5.3,0,.6,0,.8.3.2.2.4.4.4.7v35.2c0,.7,0,1.4.3,2v-.3Z"/>
  <path class="st0" d="M85.4,72.4c-2.3-2.8-3.5-6.5-3.5-11.2v-21.8c0-1.5-.8-2.8-2.3-3.9-.3-.2-.4-.5-.4-.9,0-.6.3-.9.8-.9,4.6,0,8.1-1.2,10.6-3.5,2.5-2.4,4.4-4.8,5.7-7.4.2-.4.4-.5.9-.5s.5,0,.7.2.3.4.4.6v10.7h5.7v4.6h-5.7v25.8c0,1.6.5,2.8,1.6,3.6,1.1.8,2.4,1.2,3.9,1.2s1.9,0,2.8-.4,1.5-.6,2.1-1l.6.9c-3.3,5.5-8.1,8.3-14.6,8.3s-6.9-1.4-9.3-4.1v-.3Z"/>
  <path class="st0" d="M148.7,71.9c.3.6.6,1.2,1.1,1.8.4.6.7,1.1.7,1.3s0,.5-.2.7-.4.3-.6.3h-19c-.3,0-.5,0-.6-.3-.2-.2-.2-.4-.2-.7s.2-.7.6-1.3c.4-.6.8-1.2,1.1-1.8.3-.6.4-1.3.4-2.1,0,0-.5.7-1.4,1.9-.9,1.1-2.3,2.2-4.2,3.3-1.9,1-3.8,1.6-5.8,1.6-3.5,0-6.3-.9-8.4-2.8-2.1-1.8-3.2-4.5-3.2-7.8s1.7-7.7,5.1-10.3,7.2-4.5,11.4-5.7,6.4-1.7,6.4-1.4v-7.2c0-2-.3-3.5-1-4.4s-1.7-1.4-3.2-1.4c-2.3,0-3.4,2-3.4,5.9s-.7,4.2-2,5.4-2.9,1.8-4.7,1.8-3.2-.6-4.4-1.7c-1.1-1.1-1.7-2.6-1.7-4.4,0-3.3,1.7-5.7,5.1-7.2s7.6-2.3,12.6-2.3,10.4,1.5,13.8,4.4c3.4,2.9,5.2,7,5.4,12.2v20.1h0c0,.8.1,1.5.4,2.1h-.1ZM131.8,52.5c-2.8,1.8-4.9,3.8-6.3,5.9-1.4,2.1-2.1,4.2-2.1,6.1s.4,2.5,1.1,3.2,1.6,1.1,2.7,1.1,1.7-.2,2.5-.7c.8-.4,1.5-1.1,2-1.8v-13.8h.1Z"/>
  <path class="st0" d="M186.6,34.1c.3.3.5.7.5,1.4v8.4c0,.5-.2.9-.5,1.3-.3.3-.7.5-1.2.5l-.6-.2c-1.4-.5-2.7-.8-3.9-.8-2.9,0-5.6,1.2-8.3,3.6v21.5c0,.8.1,1.5.4,2.1.3.6.6,1.2,1.1,1.8.4.6.7,1.1.7,1.3s0,.5-.2.7-.4.3-.6.3h-19c-.3,0-.5,0-.6-.3-.2-.2-.2-.4-.2-.7s.2-.7.6-1.3c.4-.6.8-1.2,1.1-1.8.3-.6.4-1.3.4-2.1v-26.6c0-1-.2-1.8-.5-2.2s-.9-1-1.6-1.7c-.3-.3-.5-.6-.5-.9s0-.5.2-.6c.2-.2.4-.2.6-.2,3.3,0,6.2-.3,8.6-1,2.4-.6,4.7-1.4,6.8-2.3.9-.4,1.5-.5,1.6-.5.3,0,.6,0,.8.3.2.2.4.4.4.7v9c.9-2.1,2.2-4,3.7-5.5s3.1-2.7,4.6-3.4,2.9-1.1,4.1-1.1,1.3,0,1.6.4h-.1Z"/>
  <path class="st0" d="M236.1,71.9c.3.6.6,1.2,1.1,1.8.4.6.7,1.1.7,1.3s0,.5-.2.7-.4.3-.6.3h-19c-.3,0-.5,0-.6-.3-.2-.2-.2-.4-.2-.7s.2-.7.6-1.3c.4-.6.8-1.2,1.1-1.8.3-.6.4-1.3.4-2.1v-21.5c0-2-.6-3.5-1.8-4.6s-2.6-1.7-4.2-1.7-3.4.7-4.8,2v25.8c0,.8.1,1.5.4,2.1.3.6.6,1.2,1.1,1.8.4.6.7,1.1.7,1.3s0,.5-.2.7-.4.3-.6.3h-19c-.3,0-.5,0-.6-.3-.2-.2-.2-.4-.2-.7s.2-.7.6-1.3c.4-.6.8-1.2,1.1-1.8.3-.6.4-1.3.4-2.1v-26.6c0-1-.2-1.8-.5-2.2s-.9-1-1.6-1.7c-.3-.3-.5-.6-.5-.9s0-.5.2-.6c.2-.2.4-.2.6-.2,3.3,0,6.2-.3,8.6-1,2.4-.6,4.7-1.4,6.8-2.3.9-.4,1.5-.5,1.6-.5.3,0,.6,0,.8.3.2.2.4.4.4.7v5.3c1.5-2.2,3.4-3.9,5.7-5.1,2.3-1.2,4.7-1.8,7.2-1.8s4.8.6,7,1.9c2.2,1.2,4,3,5.3,5.1,1.4,2.2,2,4.6,2,7.3v22.5c0,.8.1,1.5.4,2.1l-.2-.2Z"/>
  <path class="st0" d="M240.3,92.6c-.3,0-.5,0-.7-.3-.2-.2-.3-.4-.3-.7s0-.3.2-.5c2.7-4.5,4.2-10.1,4.5-16.8v-31c0-1.4-.4-2.4-1.1-3-.8-.7-1.2-1-1.2-1.1-.2-.2-.3-.5-.3-.8s0-.5.2-.7.4-.3.6-.3c4.4,0,8-.4,10.6-1.2,2.7-.8,4.6-1.6,5.7-2.4.2-.2.4-.2.7-.2s.5,0,.7.3.4.5.4.8v33.6c0,4.5-.5,8-1.5,10.5s-2.6,4.8-4.8,6.7c-1.8,1.6-3.7,2.9-5.8,3.9s-4.6,2.1-7.6,3.2h-.5.2ZM245.6,28.9c-1.6-1.6-2.4-3.5-2.4-5.8s.8-4.2,2.4-5.8c1.6-1.6,3.5-2.4,5.8-2.4s4.1.8,5.7,2.4c1.6,1.6,2.4,3.5,2.4,5.8s-.8,4.2-2.4,5.8c-1.6,1.6-3.5,2.4-5.7,2.4s-4.2-.8-5.8-2.4Z"/>
  <path class="st0" d="M305.2,71.9c.3.6.6,1.2,1.1,1.8.4.6.7,1.1.7,1.3s0,.5-.2.7-.4.3-.6.3h-19c-.3,0-.5,0-.6-.3s-.2-.4-.2-.7.2-.7.6-1.3c.4-.6.8-1.2,1.1-1.8.3-.6.4-1.3.4-2.1,0,0-.5.7-1.4,1.9-.9,1.1-2.3,2.2-4.2,3.3-1.9,1-3.8,1.6-5.8,1.6-3.5,0-6.3-.9-8.4-2.8-2.1-1.8-3.2-4.5-3.2-7.8s1.7-7.7,5.1-10.3,7.2-4.5,11.4-5.7,6.4-1.7,6.4-1.4v-7.2c0-2-.3-3.5-1-4.4s-1.7-1.4-3.2-1.4c-2.3,0-3.4,2-3.4,5.9s-.7,4.2-1.9,5.4c-1.3,1.2-2.9,1.8-4.7,1.8s-3.2-.6-4.4-1.7c-1.1-1.1-1.7-2.6-1.7-4.4,0-3.3,1.7-5.7,5.1-7.2s7.6-2.3,12.6-2.3,10.4,1.5,13.8,4.4,5.2,7,5.4,12.2v20.1h0c0,.8.1,1.5.4,2.1h-.2ZM288.3,52.5c-2.8,1.8-4.9,3.8-6.3,5.9-1.4,2.1-2.1,4.2-2.1,6.1s.4,2.5,1.1,3.2,1.6,1.1,2.7,1.1,1.7-.2,2.5-.7c.8-.4,1.5-1.1,2-1.8v-13.8h0Z"/>
  <path class="st0" d="M13.6,144.9c-3-1.6-5.4-3.9-7.1-7.1-1.7-3.1-2.6-7-2.6-11.7,0-7.6,2-13.4,6-17.3,4-4,9.5-5.9,16.4-5.9s7.3.8,10.1,2.5c2.8,1.6,4.1,3.9,4.1,6.8s-.7,4-2.2,5.3-3.3,1.9-5.6,1.9-1.6,0-2.3-.3c-.6-.2-.9-.5-.9-.9s.1-.4.4-.9c.2-.5.4-1.3.4-2.4,0-2.3-.6-4.5-1.7-6.6s-2.6-3.1-4.3-3.1c-1.9.2-3.3,1.9-4,5.3s-1.1,6.9-1.1,10.5c0,5.1,1,9.4,3.1,12.6,2.1,3.3,5.1,4.9,9.1,4.9s2.8-.2,3.9-.7,2.2-1.1,3.3-1.9c.7-.5,1.1-.8,1.4-.8s.6.1.8.3.4.4.4.7,0,.3-.2.5c-1.6,3.5-3.9,6.1-6.7,7.8-2.9,1.7-6.3,2.6-10.3,2.6s-7.3-.8-10.3-2.3v.2ZM18.4,97.8l-8.9-11.7h5.5l8.7,7.5,8.7-7.5h5.5l-9.7,11.8c-.9.9-2.1,1.4-3.4,1.4h-3c-1.4,0-2.5-.5-3.4-1.5Z"/>
  <path class="st0" d="M82.4,141.9c.3.6.6,1.2,1.1,1.8.4.6.7,1.1.7,1.3s0,.5-.2.7-.4.3-.6.3h-19c-.3,0-.5-.1-.6-.3-.2-.2-.2-.4-.2-.7s.2-.7.6-1.3.8-1.2,1.1-1.8c.3-.6.4-1.3.4-2.1,0,.1-.5.7-1.4,1.9-.9,1.1-2.3,2.2-4.2,3.3-1.9,1-3.8,1.6-5.8,1.6-3.5,0-6.3-.9-8.4-2.8-2.1-1.8-3.2-4.5-3.2-7.8s1.7-7.7,5.1-10.3c3.4-2.6,7.2-4.5,11.4-5.7,4.2-1.2,6.4-1.7,6.4-1.4v-7.2c0-2-.3-3.5-1-4.4-.7-.9-1.7-1.4-3.2-1.4-2.3,0-3.4,2-3.4,5.9s-.7,4.2-2,5.4c-1.3,1.2-2.9,1.8-4.7,1.8s-3.2-.6-4.4-1.7c-1.1-1.1-1.7-2.6-1.7-4.4,0-3.3,1.7-5.7,5.1-7.2,3.4-1.5,7.6-2.3,12.6-2.3s10.4,1.5,13.8,4.4,5.2,7,5.4,12.2v20.1h0c0,.8,0,1.5.4,2.1h0ZM65.5,122.5c-2.8,1.8-4.9,3.8-6.3,5.9-1.4,2.1-2.1,4.2-2.1,6.1s.4,2.5,1.1,3.2c.7.7,1.6,1.1,2.7,1.1s1.7-.2,2.5-.7c.8-.4,1.5-1.1,2-1.8v-13.8h0Z"/>
  <path class="st0" d="M120.3,104.1c.3.3.5.7.5,1.4v8.4c0,.5-.2.9-.5,1.3-.3.3-.7.5-1.2.5l-.6-.2c-1.4-.5-2.7-.8-3.9-.8-2.9,0-5.6,1.2-8.3,3.6v21.5c0,.8,0,1.5.4,2.1s.6,1.2,1.1,1.8c.4.6.7,1.1.7,1.3s0,.5-.2.7-.4.3-.6.3h-19c-.3,0-.5-.1-.6-.3-.2-.2-.2-.4-.2-.7s.2-.7.6-1.3.8-1.2,1.1-1.8c.3-.6.4-1.3.4-2.1v-26.6c0-1-.2-1.8-.5-2.2-.3-.4-.9-1-1.6-1.7s-.5-.6-.5-.9,0-.5.2-.6c.2-.2.4-.2.6-.2,3.3,0,6.2-.3,8.6-1,2.4-.6,4.7-1.4,6.8-2.3.9-.4,1.5-.5,1.6-.5.3,0,.6,0,.8.3.2.2.4.4.4.7v9c.9-2.1,2.2-4,3.7-5.5s3.1-2.7,4.6-3.4,2.9-1.1,4.1-1.1,1.3,0,1.6.4h0Z"/>
  <path class="st0" d="M134.7,145.2c-3.6-1.4-6.7-3.7-9.3-6.9-2.6-3.3-3.9-7.6-3.9-12.9s1.3-9.8,3.9-13.1c2.6-3.3,5.7-5.6,9.3-7s7.1-2.1,10.5-2.1,6.8.7,10.4,2.1c3.6,1.4,6.7,3.7,9.3,7s3.9,7.7,3.9,13.1-1.3,9.7-3.9,12.9c-2.6,3.3-5.7,5.6-9.3,6.9-3.6,1.4-7.1,2-10.4,2s-6.9-.7-10.5-2ZM150.5,137.9c1.2-3.5,1.9-7.6,1.9-12.2s-.6-9.7-1.9-13.4-3-5.5-5.3-5.5-4.1,1.9-5.3,5.6-1.9,8.3-1.9,13.7.6,8.4,1.9,11.9c1.3,3.5,3,5.2,5.3,5.2s4.1-1.8,5.3-5.3h0Z"/>
  <path class="st0" d="M189.8,141.8c.3.6.6,1.2,1.1,1.8.4.6.7,1.1.7,1.3s0,.5-.2.7-.4.3-.6.3h-19c-.3,0-.5-.1-.6-.3-.2-.2-.2-.4-.2-.7s.2-.7.6-1.3c.4-.6.8-1.2,1.1-1.8s.4-1.3.4-2.1v-44.7c0-1-.2-1.8-.5-2.2-.3-.4-.9-1-1.6-1.7-.3-.3-.5-.6-.5-.9s0-.5.2-.6c.2-.2.4-.2.6-.2,3.3,0,6.2-.3,8.6-1s4.7-1.4,6.8-2.3c.9-.4,1.5-.5,1.6-.5.3,0,.6,0,.8.3.2.2.4.4.4.7v53.2c0,.8.1,1.5.4,2.1h-.1Z"/>
  <path class="st0" d="M214.8,141.9c.3.6.6,1.2,1.1,1.8.4.6.7,1.1.7,1.3s0,.5-.2.7-.4.3-.6.3h-19c-.3,0-.5-.1-.6-.3-.2-.2-.2-.4-.2-.7s.2-.7.6-1.3c.4-.6.8-1.2,1.1-1.8s.4-1.3.4-2.1v-26.6c0-1-.2-1.8-.5-2.2-.3-.4-.9-1-1.6-1.7-.3-.3-.5-.6-.5-.9s0-.5.2-.6c.2-.2.4-.2.6-.2,3.3,0,6.2-.3,8.6-1,2.4-.6,4.7-1.4,6.8-2.3.9-.4,1.5-.5,1.6-.5.3,0,.6,0,.8.3.2.2.4.4.4.7v35.1c0,.8.1,1.5.4,2.1h-.1ZM200.2,98.9c-1.6-1.6-2.4-3.5-2.4-5.8s.8-4.2,2.4-5.8c1.6-1.6,3.5-2.4,5.8-2.4s4.1.8,5.7,2.4c1.6,1.6,2.4,3.5,2.4,5.8s-.8,4.2-2.4,5.8c-1.6,1.6-3.5,2.4-5.7,2.4s-4.2-.8-5.8-2.4Z"/>
  <path class="st0" d="M219.1,162.6c-.3,0-.5-.1-.7-.3s-.3-.4-.3-.7,0-.3.2-.5c2.7-4.5,4.2-10.1,4.5-16.8v-31c0-1.4-.4-2.4-1.1-3-.8-.7-1.2-1-1.2-1.1-.2-.2-.3-.5-.3-.8s0-.5.2-.7.4-.3.6-.3c4.4,0,8-.4,10.6-1.2,2.7-.8,4.6-1.6,5.7-2.4.2-.2.4-.2.7-.2s.5,0,.7.3c.2.2.4.5.4.8v33.6c0,4.5-.5,8-1.5,10.5s-2.6,4.8-4.8,6.7c-1.8,1.6-3.7,2.9-5.8,3.9s-4.6,2.1-7.6,3.2h-.5.2ZM224.4,98.9c-1.6-1.6-2.4-3.5-2.4-5.8s.8-4.2,2.4-5.8c1.6-1.6,3.5-2.4,5.8-2.4s4.1.8,5.7,2.4c1.6,1.6,2.4,3.5,2.4,5.8s-.8,4.2-2.4,5.8c-1.6,1.6-3.5,2.4-5.7,2.4s-4.2-.8-5.8-2.4Z"/>
  <path class="st0" d="M284,141.9c.3.6.6,1.2,1.1,1.8.4.6.7,1.1.7,1.3s0,.5-.2.7-.4.3-.6.3h-19c-.3,0-.5-.1-.6-.3s-.2-.4-.2-.7.2-.7.6-1.3.8-1.2,1.1-1.8c.3-.6.4-1.3.4-2.1,0,.1-.5.7-1.4,1.9-.9,1.1-2.3,2.2-4.2,3.3-1.9,1-3.8,1.6-5.8,1.6-3.5,0-6.3-.9-8.4-2.8-2.1-1.8-3.2-4.5-3.2-7.8s1.7-7.7,5.1-10.3c3.4-2.6,7.2-4.5,11.4-5.7s6.4-1.7,6.4-1.4v-7.2c0-2-.3-3.5-1-4.4s-1.7-1.4-3.2-1.4c-2.3,0-3.4,2-3.4,5.9s-.7,4.2-1.9,5.4c-1.3,1.2-2.9,1.8-4.7,1.8s-3.2-.6-4.4-1.7c-1.1-1.1-1.7-2.6-1.7-4.4,0-3.3,1.7-5.7,5.1-7.2,3.4-1.5,7.6-2.3,12.6-2.3s10.4,1.5,13.8,4.4,5.2,7,5.4,12.2v20.1h0c0,.8.1,1.5.4,2.1h-.2ZM267.1,122.5c-2.8,1.8-4.9,3.8-6.3,5.9-1.4,2.1-2.1,4.2-2.1,6.1s.4,2.5,1.1,3.2,1.6,1.1,2.7,1.1,1.7-.2,2.5-.7c.8-.4,1.5-1.1,2-1.8v-13.8h0Z"/>
</svg>