<?xml version="1.0" encoding="utf-8"?>
<!-- Generator: Adobe Illustrator 25.2.0, SVG Export Plug-In . SVG Version: 6.00 Build 0)  -->
<svg version="1.1" id="Layer_1" xmlns="http://www.w3.org/2000/svg" xmlns:xlink="http://www.w3.org/1999/xlink" x="0px" y="0px"
	 viewBox="0 0 1222.2 154.5" style="enable-background:new 0 0 1222.2 154.5;" xml:space="preserve">
<style type="text/css">
	.st0{fill:#024421;}
	.st1{fill:#017A3D;}
</style>
<g>
	<path class="st0" d="M-24.5,142.6C190.5,153.2,393.3,39.1,608,24.5c189.6-12.8,378.8,52.6,568,34.1c22.8-2.2,45.8-5.8,66.7-15.2
		c27.7-12.5,50-34.8,67.9-59.3c83.2-113.9,76.4-267.9,66-408.5c-0.9-12.3-1.9-24.9-7.2-36.1c-12-25.1-41.7-35.5-68.7-42.3
		c-140.6-35.1-289.4-36.9-430.8-5.3c-71.3,15.9-140.5,40.1-211.5,57.1c-117,27.9-237.7,35.9-357.9,41.2
		c-144.2,6.3-288.6,8.9-432.9,7.7c-33.3-0.3-70.1,0.5-94.6,23c-11.6,10.6-19,25-25.1,39.5c-32.3,76.8-33.1,166.3-2.1,243.7
		s93.2,141.6,169.6,175c30.1,13.2,66.9,26.7,74.2,58.7"/>
</g>
<g>
	<path class="st1" d="M-58.4,142.6c215,10.5,417.7-103.6,632.5-118.1c189.6-12.8,378.8,52.6,568,34.1c22.8-2.2,45.8-5.8,66.7-15.2
		c27.7-12.5,50-34.8,67.9-59.3c83.2-113.9,76.4-267.9,66-408.5c-0.9-12.3-1.9-24.9-7.2-36.1c-12-25.1-41.7-35.5-68.7-42.3
		c-140.6-35.1-289.4-36.9-430.8-5.3c-71.3,15.9-140.5,40.1-211.5,57.1c-117,27.9-237.7,35.9-357.9,41.2
		c-144.2,6.3-288.6,8.9-432.9,7.7c-33.3-0.3-70.1,0.5-94.6,23c-11.6,10.6-19,25-25.1,39.5c-32.3,76.8-33.1,166.3-2.1,243.7
		s93.2,141.6,169.6,175c30.1,13.2,66.9,26.7,74.2,58.7"/>
</g>
<g>
</g>
<g>
</g>
<g>
</g>
<g>
</g>
<g>
</g>
<g>
</g>
</svg>
