<?xml version="1.0" encoding="utf-8"?>
<!-- Generator: Adobe Illustrator 25.2.0, SVG Export Plug-In . SVG Version: 6.00 Build 0)  -->
<svg version="1.1" id="Layer_1" xmlns="http://www.w3.org/2000/svg" xmlns:xlink="http://www.w3.org/1999/xlink" x="0px" y="0px"
	 viewBox="0 0 1222.2 487" style="enable-background:new 0 0 1222.2 487;" xml:space="preserve">
<style type="text/css">
	.st0{fill:#024421;}
	.st1{fill:#017A3D;}
</style>
<path class="st0" d="M-159.1,654c97.8-237.7,417.7-303.5,431.6-306.2c232.7-44.6,275.9,74.9,473.1,42.3
	C1071,336.4,1160.5-23.1,1297.3,7.5c138.7,31.1,257.3,447.7,84.6,705.7c-312,466-1495.9,297.7-1563.8,52.6
	C-191.3,732-178.3,700.5-159.1,654z"/>
<path class="st1" d="M-146.9,661.5C-49.1,423.9,270.8,358,284.7,355.3c232.7-44.6,275.9,74.9,473.1,42.3
	c325.4-53.7,414.9-413.2,551.7-382.5c138.7,31.1,257.3,447.7,84.6,705.7c-312,466-1495.9,297.7-1563.8,52.6
	C-179.1,739.6-166.1,708.1-146.9,661.5z"/>
</svg>
