<?xml version="1.0" encoding="utf-8"?>
<!-- Generator: Adobe Illustrator 25.2.0, SVG Export Plug-In . SVG Version: 6.00 Build 0)  -->
<svg version="1.1" id="Layer_1" xmlns="http://www.w3.org/2000/svg" xmlns:xlink="http://www.w3.org/1999/xlink" x="0px" y="0px"
	 viewBox="0 0 1222.2 154.5" style="enable-background:new 0 0 1222.2 154.5;" xml:space="preserve">
<style type="text/css">
	.st0{fill:#024421;}
	.st1{fill:#FEF4F4;}
</style>
<g>
	<path class="st0" d="M1239.4,11.2c-215-10.6-417.8,103.5-632.5,118.1c-189.6,12.8-378.8-52.6-568-34.1
		c-22.8,2.2-45.8,5.8-66.7,15.2c-27.7,12.5-50,34.8-67.9,59.3c-83.2,113.9-76.4,267.9-66,408.5c0.9,12.3,1.9,24.9,7.2,36.1
		c12,25.1,41.7,35.5,68.7,42.3c140.6,35.1,289.4,36.9,430.8,5.3c71.3-15.9,140.5-40.1,211.5-57.1c117-27.9,237.7-35.9,357.9-41.2
		c144.2-6.3,288.6-8.9,432.9-7.7c33.3,0.3,70.1-0.5,94.6-23c11.6-10.6,19-25,25.1-39.5c32.3-76.8,33.1-166.3,2.1-243.7
		s-93.2-141.6-169.6-175c-30.1-13.2-66.9-26.7-74.2-58.7"/>
</g>
<g>
	<path class="st1" d="M1273.3,11.2c-215-10.5-417.7,103.6-632.5,118.1C451.2,142.1,262,76.7,72.8,95.2C50,97.4,27,101,6.1,110.4
		c-27.7,12.5-50,34.8-67.9,59.3c-83.2,113.9-76.4,267.9-66,408.5c0.9,12.3,1.9,24.9,7.2,36.1c12,25.1,41.7,35.5,68.7,42.3
		c140.6,35.1,289.4,36.9,430.8,5.3c71.3-15.9,140.5-40.1,211.5-57.1c117-27.9,237.7-35.9,357.9-41.2c144.2-6.3,288.6-8.9,432.9-7.7
		c33.3,0.3,70.1-0.5,94.6-23c11.6-10.6,19-25,25.1-39.5c32.3-76.8,33.1-166.3,2.1-243.7s-93.2-141.6-169.6-175
		c-30.1-13.2-66.9-26.7-74.2-58.7"/>
</g>
</svg>
