<?xml version="1.0" encoding="utf-8"?>
<!-- Generator: Adobe Illustrator 25.1.0, SVG Export Plug-In . SVG Version: 6.00 Build 0)  -->
<svg version="1.1" id="Layer_1" xmlns="http://www.w3.org/2000/svg" xmlns:xlink="http://www.w3.org/1999/xlink" x="0px" y="0px"
	 viewBox="0 0 193.8 124.5" style="enable-background:new 0 0 193.8 124.5;" xml:space="preserve">
<style type="text/css">
	.st0{fill:none;}
	.st1{fill:#FFFFFF;}
	.st2{fill:none;stroke:#FFFFFF;stroke-miterlimit:10;}
</style>
<g>
	<rect x="35.4" y="1.2" class="st0" width="158.4" height="56.1"/>
	<path class="st1" d="M44.7,5.4c0,0.1,0,0.2-0.2,0.4c-1,1.5-1.9,3.2-2.7,4.9c0,0.1,0,0.1,0.2,0.1c0.1,0,0.2,0,0.5-0.1
		c0.2-0.1,0.2,0,0.7-0.2c3.2-1.6,5.7-3.5,7.6-5.8C51,4.5,51,4.5,51.1,4.5c0.4,0,0.9,0.2,1.2,0.5C52.5,5,52.6,5,52.7,5.1
		c0.1,0.1,0.1,0.2,0.1,0.3c0,0,0,0.1-0.2,0.4c-1.7,2-3.6,3.6-5.6,4.8c-1.1,0.7-2.3,1.2-3.6,1.9c-0.3,0.1-0.3,0.2-0.3,0.4
		c0,0.2,0.1,0.4,0.2,0.6c0.3,0.6,0.2,0.7,0.4,1.1c0.7,1.4,2.4,3.8,4,5.4c0.3,0.3,0.5,0.5,0.7,0.6c0.6,0.3,1,0.6,1,1
		c0,0.3-0.2,0.4-0.4,0.5c-0.4,0-0.2,0.2-0.6,0.2c-1.2,0-2.2-1-2.7-1.6C45,20,44.4,19.4,44,18.8c-1.5-1.9-2.5-4.2-2.9-5.6
		c0-0.1,0-0.1-0.1-0.1c-0.1,0-0.1,0-0.1,0.1c-1,2-1.9,4.2-2.3,6.5c0,0.2,0,0.2-0.5,0.5c-0.2,0.1-0.3,0.1-0.4,0.1
		c-0.2,0-0.2-0.2-0.6-0.4c-0.4-0.2-0.7-0.3-0.7-0.6c0-0.1,0-0.3,0.1-0.7c1.6-5.1,4-10.3,5.6-13.3C42.3,5,42.3,5,42.4,4.9
		c0.2-0.2,0.5-0.6,0.9-0.6c0.1,0,0.2,0,0.3,0c0.2,0.1,0.1,0.2,0.4,0.3c0.2,0.1,0.4,0.1,0.6,0.2C44.7,5,44.7,5.3,44.7,5.4z"/>
	<path class="st1" d="M56.9,10.2c1,0,1.5-0.1,2.1-0.1c0.8,0,1.5,0.2,1.5,0.6c0,0.3-0.6,0.4-0.7,0.5c0,0.1-0.1,0.1-0.3,0.1
		c-0.5,0.1-1.2,0.3-1.8,0.4c-0.5,0.1-0.8,0.1-0.9,0.1c-0.2,0-0.2,0-0.3,0.2c-0.6,2.6-1.5,4.8-3,6.4c-0.7,0.7-1.3,1.4-2.2,1.4
		c-0.2,0-0.4,0-0.6-0.1c-0.9-0.4-1.6-1-1.8-1.5c-0.3-0.7-0.4-1.4-0.4-2c0-2,1-3.7,2.1-5.4c0.3-0.5,0.3-0.4,0.6-0.7
		C52,9.2,53,8,54.1,8c0.4,0,0.9,0.1,1.3,0.5c0.2,0.2,0.3,0.2,0.3,0.4C55.9,9.5,56.2,10.2,56.9,10.2z M54.3,10.1
		c-0.1-0.2-0.1-0.4-0.2-0.4c-0.1,0-0.2,0.1-0.4,0.2c-0.1,0.1-0.3,0.2-0.5,0.4c-0.7,0.9-3,3.9-3,6.7c0,0.1,0,0.2,0.1,0.3
		c0.1,0.2,0.4,0.6,0.6,0.8c0.1,0,0.1,0,0.2,0c0.2,0,0.4-0.1,0.5-0.2c0.2-0.1,0.2-0.1,0.4-0.4c1.4-2.1,2.7-4,2.7-6.4
		c0-0.1,0-0.4,0-0.5c0-0.2-0.1-0.2-0.1-0.3C54.3,10.4,54.3,10.2,54.3,10.1z"/>
	<path class="st1" d="M61.3,10.8c0,0.3,0,0.5-0.1,0.8c-0.1,0.3-0.1,0.3-0.1,0.4c0,0.1,0,0.1,0.1,0.1c0,0,0.1,0,0.3-0.2
		c1.3-1,2.5-1.7,3.3-2c0.1,0,0.2,0,0.3,0c0.7,0,1.3,0.2,1.8,0.7c0.1,0.1,0.2,0.3,0.2,0.4c0,0.7-0.6,1.1-0.8,1.1
		c-0.4,0-0.7-0.2-1.1-0.2c-0.1,0-0.2,0-0.4,0.1c-2.6,1.2-5.2,3.4-6,6.9c-0.2,0.7-0.4,1-0.6,1.2c-0.1,0.1-0.3,0.2-0.4,0.2
		c-0.4,0-0.6-0.3-0.7-0.5c-0.2-0.2-0.4-0.6-0.5-0.9c0-0.8,1-1.6,1.3-2.5c0.6-1.8,1.3-3.6,1.7-5.5c0-0.2,0-0.3,0-0.4
		c0-0.1-0.2-0.3-0.2-0.6c0-0.2,0.4-0.5,0.9-0.5c0.3,0,0.7,0.1,0.8,0.3C61.1,9.8,61.3,10.2,61.3,10.8z"/>
	<path class="st1" d="M68.8,19.1c-0.5,0.5-1.4,1.2-2.5,1.2c-0.7,0-1.5-1-1.8-1.9c-0.1-0.3-0.1-0.7-0.1-1c0-0.6,0.1-1.1,0.4-1.9
		c0.2-0.5,0.3-0.9,0.4-1.2c0.7-1.8,1.4-3.5,2.3-5.3c0.2-0.5,0.7-0.6,1.2-0.6c0.2,0,0.6,0,0.7,0.2c0.1,0.1,0.2,0.2,0.2,0.4
		c0,1.3-1,1.9-1.5,3c-0.4,0.9-1.1,2.5-1.4,3.4c-0.4,1.1-0.6,2-0.6,2.4c0,0.2,0,0.8,0.4,0.8c0.5,0,0.8-0.1,1.8-0.8
		c0.6-0.4,0.7-0.5,1.1-0.5c0.2,0,0.5,0,0.6,0.2c0.1,0.1,0.1,0.2,0.1,0.3c0,0.3-0.1,0.4-0.4,0.6L68.8,19.1z M72.1,4.2
		c0,0.1,0,0.3-0.1,0.4c-0.4,0.5-1,1.2-1.5,1.2c-0.5,0-0.8-0.3-1-0.5c-0.1-0.2-0.2-0.6-0.2-0.8c0-0.3,0.1-0.7,0.3-1
		C69.9,3.2,70.3,3,70.8,3c0.4,0,0.8,0.1,1,0.3C72.1,3.6,72.1,3.9,72.1,4.2z"/>
	<path class="st1" d="M76.9,10.4c0,0.9-0.4,1.6-0.7,2c-0.2,0.2-0.2,0.3-0.3,0.3c-0.3,0-0.7-0.2-0.8-0.3c-0.2-0.2-0.4-0.4-0.4-0.8
		c0,0,0-0.1,0.1-0.2c0.2-0.4,0.4-0.7,0.4-1.1c0-0.2-0.1-0.5-0.2-0.6c-0.1-0.2-0.3-0.3-0.5-0.3c-0.2,0-1.3,1.4-1.5,2.5
		c0,0.2,0,0.3,0,0.6c0,0.1,0.1,1.2,0.2,1.5c0.2,1.8,0.8,4.5,0.8,5.5c0,0.2-0.1,0.3-0.2,0.4c-0.4,0.4-0.9,0.9-1.5,0.9
		c-0.2,0-0.5,0-0.6-0.1c-1.6-0.6-2.7-1.9-3.5-3.2c-0.1-0.1-0.1-0.3-0.1-0.4c0-0.4,0.4-0.9,0.9-0.9c0.5,0,0.7,0,0.9,0.3
		c0.6,0.7,0.8,1.7,1.6,2.3c0.2,0.2,0.4,0.3,0.5,0.3c0.1,0,0.2-0.1,0.2-0.2c0-0.1,0-0.1-0.1-0.7c-0.3-1.6-0.8-5.2-0.8-5.7
		c0-0.6,0.3-2,0.9-2.9c0.7-1.1,1.7-1.5,2.1-1.5c1.3,0,1.8,0.3,2.4,0.9C76.8,9.2,76.9,9.9,76.9,10.4z"/>
	<path class="st1" d="M81.2,9.8c-0.2,0.5-0.6,1.4-0.6,1.5c0,0,0,0.1,0.1,0.1c0.1,0,0.4,0,0.6-0.1c1.1-0.2,2.4-0.7,3.2-1.2
		c0.1-0.1,0.2-0.1,0.3-0.1c0.4,0,1.2,0.3,1.2,0.6c0,0.3-0.3,0.7-0.8,0.9c-0.6,0.3-0.6,0.3-1.1,0.5c-1.2,0.5-3.2,0.9-3.7,1.1
		c-0.2,0.1-0.4,0.2-0.5,0.4c-0.2,0.3-0.3,0.8-0.4,1.2c-0.1,0.3-0.2,0.5-0.3,0.8c-0.1,0.8-1,2.8-1.1,4c0,0.2-0.3,0.8-0.6,1
		c-0.1,0-0.3,0.1-0.4,0.1c-0.3,0-0.7-0.1-0.9-0.3c-0.2-0.1-0.3-0.4-0.3-0.6c0-0.2,0-0.5,0.1-0.7c0.6-1.8,1-3.9,1.8-5.7
		c0-0.1,0-0.1,0-0.2c0,0,0-0.1-0.1-0.1c-0.9-0.4-1-1.1-1.6-1.5c-0.1-0.1-0.1-0.2-0.1-0.3c0-0.2,0.1-0.2,0.3-0.3
		c0.1-0.1,0.3-0.1,0.5-0.1c0.5,0,1.1,0.4,1.6,0.4c0.2,0,0.4-0.1,0.4-0.3c0.1-0.3,0.2-0.6,0.4-1.1c0.6-1.5,1.2-3.3,2-5.1
		c0.1-0.3,0.2-0.3,0.3-0.3C82,4.2,82.1,4,82.3,4c0.2,0,0.6,0.1,0.9,0.2c0.1,0,0.2,0.1,0.2,0.2c0,0,0,0.1,0,0.3
		C83.1,6.5,81.9,8.2,81.2,9.8z"/>
	<path class="st1" d="M86.5,19.1c-0.5,0.5-1.4,1.2-2.5,1.2c-0.7,0-1.5-1-1.8-1.9c-0.1-0.3-0.1-0.7-0.1-1c0-0.6,0.1-1.1,0.4-1.9
		c0.2-0.5,0.3-0.9,0.4-1.2c0.7-1.8,1.4-3.5,2.3-5.3c0.2-0.5,0.7-0.6,1.2-0.6c0.2,0,0.6,0,0.7,0.2c0.1,0.1,0.2,0.2,0.2,0.4
		c0,1.3-1,1.9-1.5,3c-0.4,0.9-1.1,2.5-1.4,3.4c-0.4,1.1-0.6,2-0.6,2.4c0,0.2,0,0.8,0.4,0.8c0.5,0,0.8-0.1,1.8-0.8
		c0.6-0.4,0.7-0.5,1.1-0.5c0.2,0,0.5,0,0.6,0.2c0.1,0.1,0.1,0.2,0.1,0.3c0,0.3-0.1,0.4-0.4,0.6L86.5,19.1z M89.8,4.2
		c0,0.1,0,0.3-0.1,0.4c-0.4,0.5-1,1.2-1.5,1.2c-0.5,0-0.8-0.3-1-0.5C87.1,5,87,4.7,87,4.5c0-0.3,0.1-0.7,0.3-1C87.6,3.2,88,3,88.5,3
		c0.4,0,0.8,0.1,1,0.3C89.8,3.6,89.8,3.9,89.8,4.2z"/>
	<path class="st1" d="M108.9,5.9c0,0.3,0,0.7,0,1c0,1.2-0.1,2.1-0.5,3.6c-0.7,3.3-2,6.6-4.1,9.5c-0.3,0.4-0.6,0.8-1.2,0.8
		c-0.1,0-0.3-0.1-0.7-0.2c-0.4,0-0.5-0.1-0.7-0.3c-0.2-0.2-0.8-0.2-1-0.6c-0.5-1-0.5-2-0.6-3.3c0-0.4-0.1-0.4-0.2-0.4
		c-0.1,0-0.1,0-0.2,0.2c-0.2,0.4-0.5,0.6-0.8,1c-1.2,1.1-2.2,3-3.2,3c-0.1,0-0.5-0.2-0.9-0.6c-0.3-0.2-0.8-0.1-0.8-0.5
		c0-0.2,0-0.3,0-0.8c0-0.8,0.1-1.4,0.2-2.1c0.1-0.6,0-0.6,0.2-1.3c0.7-3.3,1.9-6.8,2.8-10c0.1-0.3,0.1-0.4,0.7-0.4
		c0.3,0,0.5,0.1,0.7,0.1c0.1,0,0.6,0.6,0.6,0.6s0,0.2-0.1,0.2c-1.5,3.5-2.4,7.3-3.2,11.2c-0.1,0.5-0.1,0.7-0.1,0.8
		c0,0.1,0,0.1,0.1,0.1s0.2,0,0.6-0.5c1.6-1.6,3.1-3.7,3.8-5.4c0.2-0.5,0.3-0.6,0.4-1.1c0.1-0.4,0.2-0.9,0.4-1.2
		c0.1-0.2,0.1-0.2,0.2-0.2c0.2,0,0.5,0.1,0.6,0.1c0.2,0,0.3,0.1,0.5,0.3c0.3,0.3,0.4,0.6,0.4,0.9c0,0.3,0,0.4-0.1,0.6
		c-0.4,1.4-0.7,2.8-0.7,4.3c0,0.9,0.1,1.9,0.3,3c0,0.1,0.1,0.2,0.2,0.2c0.1,0,0.2-0.1,0.4-0.3c2-2.6,3.1-6.1,3.9-9.4
		c0.1-0.5,0.1-0.8,0.1-1.1c0-0.6,0-0.7,0-1.4c0-0.7-0.5-0.9-0.5-1.6c0-0.6,0-0.8,0.3-0.8c0.2,0,0.4,0,0.7,0c0.5,0,0.8,0,1.1,0.6
		C108.8,5,108.9,5.5,108.9,5.9z"/>
	<path class="st1" d="M118.1,22.3c-0.1,0.1-0.2,0.1-0.3,0.1c-0.4,0-0.9-0.1-1.2-0.4c-0.3-0.3-0.5-1.9-0.5-3c0-1.1,0.1-2.1,0.1-3.2
		c0-0.1,0-0.1-0.1-0.1c-1.4,0.5-3.9,1.3-4.9,1.5c-0.2,0-0.2,0.1-0.4,0.3c-0.3,0.6-0.4,1.2-0.4,1.7c0,1.1,0.1,1.2,0.1,1.3
		c0,0,0,0.1-0.1,0.1c-0.3,0.2-0.6,0.5-0.9,0.5c-0.1,0-0.3-0.1-0.5-0.2c-0.5-0.3-0.7-0.6-0.7-1.6c0-0.9,0.3-2,0.3-2.1
		c0-0.1,0-0.1-0.1-0.2c-0.6-0.3-0.8-0.4-0.8-0.7c0-0.5,0.3-1.3,0.4-1.3c0.1-0.1,0.2-0.1,0.3-0.1c0.4,0,0.7,0.4,1,0.4
		c0.1,0,0.1,0,0.3-0.3c1.9-3.5,3.9-6.9,6.5-10.8c0.4-0.6,0.4-0.6,0.5-0.6c0.3,0,1-0.3,1.5-0.3c0.3,0,0.8,0.1,0.8,0.2
		c0.1,0.2,0.2,0.2,0.2,0.4c0,0.2-0.4,2.1-0.4,2.3c0,0.2,0,0.5-0.1,0.8c-0.3,1.8-0.5,5.8-0.5,5.9c0,0.1,0,0.1,0.1,0.1
		c0.2,0,0.6-0.1,1.2-0.1c0.6,0,1.2,0.2,1.5,0.5c0.1,0.1,0.1,0.2,0.1,0.3s0,0.2-0.1,0.3c-0.3,0.5-0.8,0.6-1.7,0.6
		c-0.4,0-0.8,0.1-1.1,0.2c-0.2,0.1-0.2,0.2-0.3,0.5l-0.1,2.4c0,0.3,0,1.2,0,1.5c0,1.9,0.5,2.5,0.5,2.6
		C118.6,22,118.3,22.2,118.1,22.3z M116.9,7.1c0-0.4,0-0.4-0.1-0.4s-0.1,0-0.2,0.2c-1.8,2.9-3.1,5.1-4.3,7.4
		c-0.2,0.5-0.3,0.6-0.3,0.6c0,0.1,0,0.1,0.1,0.1c0.3,0,1.6-0.4,2.4-0.7c0.9-0.3,1.5-0.5,1.6-0.6c0.1,0,0.1-0.1,0.2-0.3
		C116.8,10.2,116.9,8.2,116.9,7.1z"/>
	<path class="st1" d="M130.6,7.6c0,0.3,0.1,0.6,0.1,0.8c0,0.2-0.2,0.3-0.5,0.3c-0.1,0-0.2,0-0.4-0.1c-0.5-0.1-0.9-0.6-1.1-0.8
		c-0.3-0.4-0.2-1.4-0.9-1.8c-0.2-0.1-0.3-0.1-0.5-0.1c-0.2,0-0.6,0.7-0.6,1.9c0,0.3,0,1.1,0.3,2.4c0.4,1.5,1.4,4.8,1.7,6.7
		c0.1,0.9,0.2,1.2,0.2,1.6c0,1-0.6,1.8-1.5,2.1c-0.2,0.1-0.4,0.1-0.9,0.1c-2.1,0-4.2-1.2-5.8-3.1c-0.4-0.5-1.1-1-1.3-2.4
		c0-0.3,0-0.5,0-0.7c0-0.2,0.3-0.7,0.5-0.7c0.4,0,0.9,0.1,1.2,0.3c0.5,0.3,0.8,0.7,0.8,0.8c0,0.4-0.2,0.4-0.2,1
		c0,0.1,0.1,0.2,0.1,0.4c0.6,1.1,2,2.3,3.4,2.7c0.2,0.1,0.4,0.1,0.6,0.1c0.4,0,0.8-0.4,0.8-0.9c0-0.6,0-1.4-0.1-1.8
		c-0.4-2.7-1.3-4.8-1.8-7.5c0-0.3-0.2-1.4-0.2-1.8c0-0.2,0-0.4,0-0.5c0.2-0.8,0.3-2.2,1.5-2.2c1.3,0,2.5,0.2,3.6,1.4
		C130.2,6.2,130.5,7,130.6,7.6z"/>
	<path class="st1" d="M144.4,8.8c0,0.7-0.2,1.5-0.6,2.3c-0.2,0.4-0.2,0.5-0.4,1c-1.7,3.6-3.7,7.2-7.2,8.4c-0.3,0.1-0.5,0.1-0.8,0.1
		c-0.6,0-1.2-0.2-1.8-0.3c0,0.2-0.3,0.2-0.6,0.2c-0.4,0-1.1-0.5-1.3-0.9c-0.8-0.3-2-0.9-2-1.7c0-0.3,0.2-0.4,0.5-0.4
		c0.2,0,0.5,0.1,0.9,0.1c0.3,0,0.5,0.3,0.6,0.3c0.1,0,0.1,0,0.1-0.1c0.7-2.9,1.8-5.9,2.9-8.8c0-0.1,0-0.1-0.1-0.1
		c-0.2,0-0.7,0.6-1.2,0.6c-0.2,0-0.5-0.2-0.5-0.5c0-1.1,0-1.2,1.7-2.4c1.3-0.9,3.3-1.8,5.1-1.8c0.7,0,1.7,0.1,2.3,0.6
		c0.6,0.5,1.3,0.8,1.9,1.6C144.2,7.2,144.4,7.6,144.4,8.8z M140.4,6.1c-0.9,0-1.8,0.5-2.5,0.7C137.9,6.9,138,7,138,7
		c0,0.4-0.3,0.3-0.5,0.8c-1.6,3.6-3.4,7.2-3.9,11c0,0.1,0,0.2,0.1,0.2c0.2,0,0.5,0.1,0.7,0.1c0.9,0,1.7-0.4,2.3-1
		c2.3-2.3,3.8-4.9,5-7.8c0.2-0.5,0.6-1.4,0.6-1.9c0-0.1-0.1-1-0.3-1.2C141.6,6.4,141,6.1,140.4,6.1z"/>
	<path class="st1" d="M154.6,9.8c-0.2,0.5-0.6,1.4-0.6,1.5c0,0,0,0.1,0.1,0.1c0.1,0,0.4,0,0.6-0.1c1.1-0.2,2.4-0.7,3.2-1.2
		c0.1-0.1,0.2-0.1,0.3-0.1c0.4,0,1.2,0.3,1.2,0.6c0,0.3-0.3,0.7-0.8,0.9c-0.6,0.3-0.6,0.3-1.1,0.5c-1.2,0.5-3.2,0.9-3.7,1.1
		c-0.2,0.1-0.4,0.2-0.5,0.4c-0.2,0.3-0.3,0.8-0.4,1.2c-0.1,0.3-0.2,0.5-0.3,0.8c-0.1,0.8-1,2.8-1.1,4c0,0.2-0.3,0.8-0.6,1
		c-0.1,0-0.3,0.1-0.4,0.1c-0.3,0-0.7-0.1-0.9-0.3c-0.2-0.1-0.3-0.4-0.3-0.6c0-0.2,0-0.5,0.1-0.7c0.6-1.8,1-3.9,1.8-5.7
		c0-0.1,0-0.1,0-0.2c0,0,0-0.1-0.1-0.1c-0.9-0.4-1-1.1-1.6-1.5c-0.1-0.1-0.1-0.2-0.1-0.3c0-0.2,0.1-0.2,0.3-0.3
		c0.1-0.1,0.3-0.1,0.5-0.1c0.5,0,1.1,0.4,1.6,0.4c0.2,0,0.4-0.1,0.4-0.3c0.1-0.3,0.2-0.6,0.4-1.1c0.6-1.5,1.2-3.3,2-5.1
		c0.1-0.3,0.2-0.3,0.3-0.3c0.4,0,0.4-0.1,0.7-0.1c0.2,0,0.6,0.1,0.9,0.2c0.1,0,0.2,0.1,0.2,0.2c0,0,0,0.1,0,0.3
		C156.5,6.5,155.4,8.2,154.6,9.8z"/>
	<path class="st1" d="M159.9,19.1c-0.5,0.5-1.4,1.2-2.5,1.2c-0.7,0-1.5-1-1.8-1.9c-0.1-0.3-0.1-0.7-0.1-1c0-0.6,0.1-1.1,0.4-1.9
		c0.2-0.5,0.3-0.9,0.4-1.2c0.7-1.8,1.4-3.5,2.3-5.3c0.2-0.5,0.7-0.6,1.2-0.6c0.2,0,0.6,0,0.7,0.2c0.1,0.1,0.2,0.2,0.2,0.4
		c0,1.3-1,1.9-1.5,3c-0.4,0.9-1.1,2.5-1.4,3.4c-0.4,1.1-0.6,2-0.6,2.4c0,0.2,0,0.8,0.4,0.8c0.5,0,0.8-0.1,1.8-0.8
		c0.6-0.4,0.7-0.5,1.1-0.5c0.2,0,0.5,0,0.6,0.2c0.1,0.1,0.1,0.2,0.1,0.3c0,0.3-0.1,0.4-0.4,0.6L159.9,19.1z M163.3,4.2
		c0,0.1,0,0.3-0.1,0.4c-0.4,0.5-1,1.2-1.5,1.2c-0.5,0-0.8-0.3-1-0.5c-0.1-0.2-0.2-0.6-0.2-0.8c0-0.3,0.1-0.7,0.3-1
		C161,3.2,161.5,3,162,3c0.4,0,0.8,0.1,1,0.3C163.2,3.6,163.3,3.9,163.3,4.2z"/>
	<path class="st1" d="M164.3,11.9c0,0.1,0,0.2,0,0.2c0,0,0.1-0.1,0.2-0.2c1.1-1.2,2.1-2.3,3.2-2.9c0.2-0.1,0.3-0.1,0.4-0.1
		c0.7,0,1.4,0.4,2,0.8c0.2,0.1,0.5,0.4,0.5,1c0,0.8-0.1,1.2-0.2,1.7c0,0.2,0,0.4-0.1,0.8c-1.2,3.2-1.8,4.9-3.4,6.4
		c-0.2,0.1-0.5,0.2-0.7,0.2c-0.6,0-1.4-0.5-1.6-0.7c-0.6-0.6-1-1.2-1.2-1.8c0-0.1-0.1-0.1-0.1-0.1c0,0-0.1,0-0.1,0.1
		c-1.5,2.8-2.3,4.9-3.1,8.4c-0.1,0.5,0,0.9-0.3,1c-0.3,0.1-0.6,0.1-0.8,0.1c-0.3,0-0.5-0.1-0.7-0.3c-0.1-0.2-0.3-0.2-0.3-0.6
		c0-0.1,0-0.2,0.1-0.5c1.4-4.6,4.5-11.4,5.3-16.5c0.1-0.4,0.1-0.4,0.3-0.5c0.3-0.1,0.6-0.3,0.9-0.3c0.4,0,0.8,0.2,0.8,0.5
		C165,9.6,164.6,10.7,164.3,11.9z M164.4,14.7c-0.2,0.3-0.2,0.4-0.2,0.7c0,0.5,0.8,2.6,1.4,2.6c0.1,0,0.1,0,0.2-0.1
		c0.8-0.7,1.7-3.1,1.8-3.4c0.9-2.7,0.9-3.7,0.9-3.8c0-0.1-0.1-0.1-0.1-0.1c0,0-0.1,0-0.2,0C166.6,11.7,165.4,13.2,164.4,14.7z"/>
	<path class="st1" d="M178,4.9c-0.5,0.6-0.5,0.7-0.6,0.9c-1.1,1.8-1.8,3.9-2.6,5.8c0,0.1-0.1,0.2-0.1,0.2s0,0.1,0.1,0.1
		c0.1,0,0.2,0,0.3-0.1c1.5-0.9,3.1-2,4.1-3.6c0.2-0.3,0.3-0.4,0.5-0.5c0.2-0.2,0.5-0.2,0.7-0.2c0.2,0,0.3,0,0.6,0.2
		c0.3,0.2,0.4,0.3,0.4,0.4c0,0.4-0.6,1.2-1.1,1.6c-0.4,0.3-0.4,0.5-0.7,0.7c-1.2,1-2.6,1.9-3.8,2.8c-0.1,0.1-0.2,0.2-0.2,0.3
		c0,0.2,0.1,0.4,0.5,1.7c0.1,0.5,1.1,2.4,1.3,2.7c0.7,1,0.9,1.2,2,1.7c0.3,0.1,0.5-0.1,0.5,0.4c0,0.3-0.4,0.5-0.5,0.6
		c-0.1,0.2-0.3,0.3-0.6,0.3c-0.9,0-1.5-0.3-1.8-0.7c-0.2-0.2-0.3-0.3-0.4-0.4c-0.1-0.1-0.3-0.2-0.5-0.5c-1.4-2.5-1.8-4.3-2.1-5
		c-0.1-0.2-0.1-0.2-0.2-0.2c0,0-0.1,0-0.1,0.1c-0.5,1.3-1.1,2.7-1.3,4.2c-0.1,0.5-0.3,1.7-0.8,1.7c-0.2,0-0.3,0.1-0.6,0.1
		c-0.1,0-0.8,0-0.8-0.8c0-0.2,0.1-0.5,0.2-0.7c0-0.1,0.1-0.3,0.1-0.3c1.6-5,3.9-9.8,6-14.7l0.3-0.6c0.1-0.3,0.3-0.5,0.4-0.5
		c0.2,0,0.2,0,0.8,0.1c0.6,0.1,0.9,0.3,0.9,0.7C178.7,3.9,178.4,4.3,178,4.9z"/>
	<path class="st1" d="M183.4,20.3c-0.3,0-0.5,0-0.9-0.2c-0.5-0.2-1.4-0.6-1.5-0.7c-0.5-0.3-0.9-0.9-1.2-1.7
		c-0.2-0.5-0.3-1.4-0.3-1.8c0-0.2,0-0.5,0.1-0.8c0.7-2.4,2.3-4.6,4.1-6.5c0.4-0.4,1.4-1.1,2.6-1.1c0.6,0,1,0.1,1.5,0.3
		c0.3,0.1,0.8,0.5,0.8,1.5c0,0.6-0.3,1.2-0.6,1.7c-0.2,0.5-0.4,0.7-0.8,1.1c-1.7,1.9-3.5,4-5.6,5.1c-0.1,0.1-0.1,0.1-0.1,0.2
		c0,0.4,0.4,0.9,0.6,1c0.3,0.1,0.5,0.2,0.7,0.2c0.4,0,0.8-0.1,1.8-0.7c1.7-0.9,2.7-2.2,4.1-3.1c0.3-0.2,0.4-0.2,0.5-0.2
		c0.1,0,0.5,0.2,0.5,0.5c0,0.2,0,0.2,0,0.3c0,0.1,0,0.2-0.1,0.3c-1.2,1-1.7,2.2-5.3,4.2C183.8,20.3,183.7,20.3,183.4,20.3z
		 M186.4,9.3c0-0.2,0-0.3-0.1-0.3c-0.1,0-0.3,0.1-0.5,0.2c-0.3,0.2-0.2,0.1-0.5,0.3c-1.6,1.4-3.2,3.4-3.8,5.5c0,0.1,0,0.1,0,0.1
		c0,0,0.1,0,0.2-0.1c1.4-1.1,2.6-2.4,3.7-3.7c0.4-0.4,0.3-0.5,0.6-1C186.3,10,186.4,9.7,186.4,9.3z"/>
	<path class="st1" d="M41.1,45.1c-0.5,0.5-1.4,1.2-2.5,1.2c-0.7,0-1.5-1-1.8-1.9c-0.1-0.3-0.1-0.7-0.1-1c0-0.6,0.1-1.1,0.4-1.9
		c0.2-0.5,0.3-0.9,0.4-1.2c0.7-1.8,1.4-3.5,2.3-5.3c0.2-0.5,0.7-0.6,1.2-0.6c0.2,0,0.6,0,0.7,0.2c0.1,0.1,0.2,0.2,0.2,0.4
		c0,1.3-1,1.9-1.5,3c-0.4,0.9-1.1,2.5-1.4,3.4c-0.4,1.1-0.6,2-0.6,2.4c0,0.2,0,0.8,0.4,0.8c0.5,0,0.8-0.1,1.8-0.8
		c0.6-0.4,0.7-0.5,1.1-0.5c0.2,0,0.5,0,0.6,0.2c0.1,0.1,0.1,0.2,0.1,0.3c0,0.3-0.1,0.4-0.4,0.6L41.1,45.1z M44.4,30.2
		c0,0.1,0,0.3-0.1,0.4c-0.4,0.5-1,1.2-1.5,1.2c-0.5,0-0.8-0.3-1-0.5c-0.1-0.2-0.2-0.6-0.2-0.8c0-0.3,0.1-0.7,0.3-1
		c0.2-0.3,0.7-0.4,1.2-0.4c0.4,0,0.8,0.1,1,0.3C44.3,29.6,44.4,29.9,44.4,30.2z"/>
	<path class="st1" d="M41.4,44.5c0-0.3-0.1-0.5-0.1-0.8c0-1.1,0.5-2.2,1-3.6c1-2.7,3.2-6.5,5-9.6c0.4-0.7,0.6-2,1.5-2
		c0.3,0,0.5,0,0.8,0c0.2,0,0.5,0.1,0.6,0.3c0.1,0.2,0.2,0.4,0.2,0.7c0,0.3-0.1,0.6-0.2,0.8c-2.2,3.5-4.7,6.7-6.1,10.5
		c-0.4,1-0.9,1.9-0.9,3c0,0.3,0,0.6,0.1,0.9c0.1,0.2,0.3,0.3,0.5,0.3c0.1,0,0.3,0,0.4-0.1c1.1-0.6,2.2-2.7,3.3-2.7
		c0.2,0,0.8,0.2,0.8,0.6c0,0.3-0.2,0.4-0.5,0.7c-1.2,1.3-2.2,3.1-4.1,3.1C43.6,46.4,41.6,45.8,41.4,44.5z"/>
	<path class="st1" d="M51.4,45.1c-0.5,0.5-1.4,1.2-2.5,1.2c-0.7,0-1.5-1-1.8-1.9c-0.1-0.3-0.1-0.7-0.1-1c0-0.6,0.1-1.1,0.4-1.9
		c0.2-0.5,0.3-0.9,0.4-1.2c0.7-1.8,1.4-3.5,2.3-5.3c0.2-0.5,0.7-0.6,1.2-0.6c0.2,0,0.6,0,0.7,0.2c0.1,0.1,0.2,0.2,0.2,0.4
		c0,1.3-1,1.9-1.5,3c-0.4,0.9-1.1,2.5-1.4,3.4c-0.4,1.1-0.6,2-0.6,2.4c0,0.2,0,0.8,0.4,0.8c0.5,0,0.8-0.1,1.8-0.8
		c0.6-0.4,0.7-0.5,1.1-0.5c0.2,0,0.5,0,0.6,0.2c0.1,0.1,0.1,0.2,0.1,0.3c0,0.3-0.1,0.4-0.4,0.6L51.4,45.1z M54.8,30.2
		c0,0.1,0,0.3-0.1,0.4c-0.4,0.5-1,1.2-1.5,1.2c-0.5,0-0.8-0.3-1-0.5C52,31,52,30.7,52,30.5c0-0.3,0.1-0.7,0.3-1
		c0.2-0.3,0.7-0.4,1.2-0.4c0.4,0,0.8,0.1,1,0.3C54.7,29.6,54.8,29.9,54.8,30.2z"/>
	<path class="st1" d="M62.9,35.8c-0.2,0.5-0.6,1.4-0.6,1.5c0,0,0,0.1,0.1,0.1c0.1,0,0.4,0,0.6-0.1c1.1-0.2,2.4-0.7,3.2-1.2
		c0.1-0.1,0.2-0.1,0.3-0.1c0.4,0,1.2,0.3,1.2,0.6c0,0.3-0.3,0.7-0.8,0.9c-0.6,0.3-0.6,0.3-1.1,0.5c-1.2,0.5-3.2,0.9-3.7,1.1
		c-0.2,0.1-0.4,0.2-0.5,0.4c-0.2,0.3-0.3,0.8-0.4,1.2c-0.1,0.3-0.2,0.5-0.3,0.8c-0.1,0.8-1,2.8-1.1,4c0,0.2-0.3,0.8-0.6,1
		c-0.1,0-0.3,0.1-0.4,0.1c-0.3,0-0.7-0.1-0.9-0.3c-0.2-0.1-0.3-0.4-0.3-0.6c0-0.2,0-0.5,0.1-0.7c0.6-1.8,1-3.9,1.8-5.7
		c0-0.1,0-0.1,0-0.2c0,0,0-0.1-0.1-0.1c-0.9-0.4-1-1.1-1.6-1.5c-0.1-0.1-0.1-0.2-0.1-0.3c0-0.2,0.1-0.2,0.3-0.3
		c0.1-0.1,0.3-0.1,0.5-0.1c0.5,0,1.1,0.4,1.6,0.4c0.2,0,0.4-0.1,0.4-0.3c0.1-0.3,0.2-0.6,0.4-1.1c0.6-1.5,1.2-3.3,2-5.1
		c0.1-0.3,0.2-0.3,0.3-0.3c0.4,0,0.4-0.1,0.7-0.1c0.2,0,0.6,0.1,0.9,0.2c0.1,0,0.2,0.1,0.2,0.2c0,0,0,0.1,0,0.3
		C64.8,32.5,63.6,34.2,62.9,35.8z"/>
	<path class="st1" d="M71.9,36.2c1,0,1.5-0.1,2.1-0.1c0.8,0,1.5,0.2,1.5,0.6c0,0.3-0.6,0.4-0.7,0.5c0,0.1-0.1,0.1-0.3,0.1
		c-0.5,0.1-1.2,0.3-1.8,0.4c-0.5,0.1-0.8,0.1-0.9,0.1c-0.2,0-0.2,0-0.3,0.2c-0.6,2.6-1.5,4.8-3,6.4c-0.7,0.7-1.3,1.4-2.2,1.4
		c-0.2,0-0.4,0-0.6-0.1c-0.9-0.4-1.6-1-1.8-1.5c-0.3-0.7-0.4-1.4-0.4-2c0-2,1-3.7,2.1-5.4c0.3-0.5,0.3-0.4,0.6-0.7
		C67,35.2,68,34,69,34c0.4,0,0.9,0.1,1.3,0.5c0.2,0.2,0.3,0.2,0.3,0.4C70.8,35.5,71.2,36.2,71.9,36.2z M69.2,36.1
		c-0.1-0.2-0.1-0.4-0.2-0.4c-0.1,0-0.2,0.1-0.4,0.2c-0.1,0.1-0.3,0.2-0.5,0.4c-0.7,0.9-3,3.9-3,6.7c0,0.1,0,0.2,0.1,0.3
		c0.1,0.2,0.4,0.6,0.6,0.8c0.1,0,0.1,0,0.2,0c0.2,0,0.4-0.1,0.5-0.2c0.2-0.1,0.2-0.1,0.4-0.4c1.4-2.1,2.7-4,2.7-6.4
		c0-0.1,0-0.4,0-0.5c0-0.2-0.1-0.2-0.1-0.3C69.3,36.4,69.2,36.2,69.2,36.1z"/>
	<path class="st1" d="M76.9,35.7c0,0.2-0.1,0.5-0.5,0.7c-0.2,0.1-0.5,0.4-0.7,1.1c-0.6,2.1-1.6,4.5-1.8,6.2c0,0.3,0,0.4,0,0.6
		c0,0.1,0.2,0.3,0.3,0.3c0.1,0,0.4-0.1,0.5-0.2c0.9-0.8,0.9-1,1.3-1.4c1.5-1.6,2.8-3.4,3.6-5.4c0.1-0.3,0.1-0.4,0.4-0.5
		c0.2-0.1,0.4-0.1,0.6-0.1s0.4,0.2,0.6,0.2c0.4,0.1,0.5,0.3,0.5,0.4c0,0.4,0,0.5-0.1,0.7c-0.8,1.8-1.5,3.5-1.8,5.4
		c-0.1,0.5-0.1,1.1-0.1,1.8c0,0.6,0.4,1.1,0.4,1.6c0,0.2,0,0.4-0.1,0.4c-0.1,0-0.2,0.1-0.3,0.1c-0.3,0-0.6-0.2-0.9-0.4
		c-0.5-0.3-0.5-0.1-0.6-0.5c-0.2-0.5-0.2-1-0.2-1.4c0-0.6,0.1-1.4,0.1-1.6c0-0.1,0-0.1-0.1-0.1c-0.1,0-0.2,0.2-0.3,0.3
		c-0.8,1-1.7,1.8-2.7,2.3c-0.2,0.1-0.2,0.1-0.3,0.1s-0.8-0.1-1.4-0.5c-0.4-0.3-0.7-0.5-0.7-0.7c-0.1-0.4-0.1-0.8-0.1-1
		c0-0.9,0.3-1.9,0.6-2.7c0.2-0.6,0.2-0.9,0.4-1.5c0.5-1.4,0.8-3,1.7-4.5c0.3-0.5,0.6-0.6,1-0.6c0.2,0,0.7,0.1,0.8,0.4
		C76.7,35.3,76.9,35.5,76.9,35.7z"/>
	<path class="st1" d="M90,41.4c0.3,0,0.8,0.6,0.8,0.6c0,0.1-0.1,0.1-0.1,0.2c0,0.1,0,0.2-0.2,0.3c-0.7,0.3-1.6,1-2.6,1.8
		c-1.3,1.1-2.5,1.8-3.6,1.8c-1.3,0-2.3-0.9-2.4-1.2c-0.2-0.4-0.3-0.7-0.3-1.1c0-0.6,0.2-1.2,0.4-1.8c0-0.2,0.1-0.6,0.3-0.9
		c1.2-2.5,3-5.4,5-6.4c0.1-0.1,0.2-0.1,0.4-0.1c0.8,0,1.9,0.4,2.5,1c0.1,0.1,0.1,0.1,0.1,0.3c0,0.3,0,0.3,0,0.4c0,0,0,0.1,0,0.2
		c-0.1,0.3-0.8,1.4-0.8,2.3c0,0.2-0.1,0.4-0.5,0.4c-0.2,0-0.3,0-0.5-0.2l-0.6-0.5c-0.2-0.1-0.3-0.3-0.3-0.5c0-0.5,0.5-1.1,0.5-1.4
		c0-0.1-0.1-0.2-0.2-0.2c-0.1,0-0.2,0-0.4,0.2c-1,1-2.1,2.4-2.9,3.9c-0.8,1.5-1.4,3.1-1.4,3.7c0,0.3,0.2,0.5,0.4,0.5
		c1.1,0,2.2-0.6,3.4-1.5C88.1,42.2,89.3,41.4,90,41.4z"/>
	<path class="st1" d="M97,46.8c-0.1,0-0.3,0-0.7-0.2c-0.9-0.3-1.3-1.1-1.3-2.3c0-0.7,0.1-1.6,0.5-2.7c0.3-1.1,0.6-1.8,0.9-2.5
		c0.1-0.2,0.1-0.2,0.1-0.3c0,0,0,0,0,0c0,0-0.1,0.1-0.3,0.3c-1.6,1.9-3.3,4.7-4.7,6.3c-0.1,0.1-0.1,0.2-0.3,0.2
		c-0.2,0.1-0.6,0.3-0.9,0.3c-0.1,0-0.9-0.3-1.2-0.7c-0.1-0.1-0.1-0.2-0.1-0.3c0-0.3,0.1-0.2,0.2-0.6c0.7-3.2,2.5-6.6,4.5-10.7
		c1-2,2.4-4.2,3.5-6.6c0.1-0.3,0.4-0.3,0.6-0.3s0.4,0,0.5,0c0.2,0,0.5,0.2,0.7,0.4c0.2,0.2,0.2,0.3,0.2,0.6c0,0.6-0.5,1-1.1,1.8
		c-0.2,0.3-0.3,0.4-0.5,0.6c-2.2,3-4.1,7.9-5.9,11.7c-0.2,0.4-0.2,0.5-0.2,0.5c0,0,0,0,0,0c0,0,0,0,0.2-0.2c1.9-2.7,3.7-4.8,5.4-6.7
		c0.3-0.4,0.5-0.5,0.7-0.6c0.2-0.1,0.4-0.1,0.6-0.1c0.2,0,0.7,0.1,0.9,0.2c0.2,0.1,0.4,0.3,0.4,0.5c0,0.7-0.3,1.2-0.7,1.9
		c-0.3,0.6-0.4,1-0.6,1.5c-0.6,1.5-1.2,3.5-1.2,5.1c0,1.2,0.2,1.4,0.6,1.6c0.1,0.1,0.4,0.1,0.6,0.1c0.1,0,0.2,0.1,0.2,0.2
		c0,0.1-0.1,0.2-0.1,0.3c-0.1,0.2-0.3,0.3-0.5,0.3C97.6,46.6,97.3,46.8,97,46.8z"/>
	<path class="st1" d="M112.3,30.9c-0.5,0.6-0.5,0.7-0.6,0.9c-1.1,1.8-1.8,3.9-2.6,5.8c0,0.1-0.1,0.2-0.1,0.2s0,0.1,0.1,0.1
		c0.1,0,0.2,0,0.3-0.1c1.5-0.9,3.1-2,4.1-3.6c0.2-0.3,0.3-0.4,0.5-0.5c0.2-0.2,0.5-0.2,0.7-0.2c0.2,0,0.3,0,0.6,0.2
		c0.3,0.2,0.4,0.3,0.4,0.4c0,0.4-0.6,1.2-1.1,1.6c-0.4,0.3-0.4,0.5-0.7,0.7c-1.2,1-2.6,1.9-3.8,2.8c-0.1,0.1-0.2,0.2-0.2,0.3
		c0,0.2,0.1,0.4,0.5,1.7c0.1,0.5,1.1,2.4,1.3,2.7c0.7,1,0.9,1.2,2,1.7c0.3,0.1,0.5-0.1,0.5,0.4c0,0.3-0.4,0.5-0.5,0.6
		c-0.1,0.2-0.3,0.3-0.6,0.3c-0.9,0-1.5-0.3-1.8-0.7c-0.2-0.2-0.3-0.3-0.4-0.4c-0.1-0.1-0.3-0.2-0.5-0.5c-1.4-2.5-1.8-4.3-2.1-5
		c-0.1-0.2-0.1-0.2-0.2-0.2c0,0-0.1,0-0.1,0.1c-0.5,1.3-1.1,2.7-1.3,4.2c-0.1,0.5-0.3,1.7-0.8,1.7c-0.2,0-0.3,0.1-0.6,0.1
		c-0.1,0-0.8,0-0.8-0.8c0-0.2,0.1-0.5,0.2-0.7c0-0.1,0.1-0.3,0.1-0.3c1.6-5,3.9-9.8,6-14.7l0.3-0.6c0.1-0.3,0.3-0.5,0.4-0.5
		c0.2,0,0.2,0,0.8,0.1c0.6,0.1,0.9,0.3,0.9,0.7C113,29.9,112.7,30.3,112.3,30.9z"/>
	<path class="st1" d="M122,36.2c1,0,1.5-0.1,2.1-0.1c0.8,0,1.5,0.2,1.5,0.6c0,0.3-0.6,0.4-0.7,0.5c0,0.1-0.1,0.1-0.3,0.1
		c-0.5,0.1-1.2,0.3-1.8,0.4c-0.5,0.1-0.8,0.1-0.9,0.1c-0.2,0-0.2,0-0.3,0.2c-0.6,2.6-1.5,4.8-3,6.4c-0.7,0.7-1.3,1.4-2.2,1.4
		c-0.2,0-0.4,0-0.6-0.1c-0.9-0.4-1.6-1-1.8-1.5c-0.3-0.7-0.4-1.4-0.4-2c0-2,1-3.7,2.1-5.4c0.3-0.5,0.3-0.4,0.6-0.7
		c0.8-1.1,1.8-2.2,2.8-2.2c0.4,0,0.9,0.1,1.3,0.5c0.2,0.2,0.3,0.2,0.3,0.4C121,35.5,121.3,36.2,122,36.2z M119.3,36.1
		c-0.1-0.2-0.1-0.4-0.2-0.4c-0.1,0-0.2,0.1-0.4,0.2c-0.1,0.1-0.3,0.2-0.5,0.4c-0.7,0.9-3,3.9-3,6.7c0,0.1,0,0.2,0.1,0.3
		c0.1,0.2,0.4,0.6,0.6,0.8c0.1,0,0.1,0,0.2,0c0.2,0,0.4-0.1,0.5-0.2c0.2-0.1,0.2-0.1,0.4-0.4c1.4-2.1,2.7-4,2.7-6.4
		c0-0.1,0-0.4,0-0.5c0-0.2-0.1-0.2-0.1-0.3C119.4,36.4,119.4,36.2,119.3,36.1z"/>
	<path class="st1" d="M125.7,35.1c0.2-0.3,0.2-0.3,0.4-0.5c0.2-0.2,0.5-0.2,0.8-0.2c0.6,0,0.9,0.1,1,0.4c0,0.1,0.1,0.3,0.1,0.4
		c0,0.3-0.1,0.7-0.5,1.1c-0.3,0.3-0.9,1.1-1.5,2.2c-0.3,0.6-0.9,1.8-1.7,3.7c-0.2,0.4-0.5,1.6-0.5,1.7c0,0.1,0,0.2,0.1,0.2
		c0.1,0,0.2-0.1,0.4-0.3c3.2-4.6,5-5.6,5.5-6.7c0.4-0.9,0.5-1,0.8-1c0.4,0,0.5,0.2,0.9,0.2c0.3,0,0.5,0.4,0.5,0.6
		c0,0.1-0.1,0.4-0.2,0.6c-0.9,1.4-1.3,2.3-1.7,3.6c-0.1,0.5-0.3,1.7-0.3,2.2c0,0.4,0.1,0.8,0.2,1c0.1,0.4,0.7,0.7,0.8,0.9
		c0.2,0.1,0.4,0.3,0.4,0.6c0,0.2-0.2,0.6-0.6,0.6c-0.2,0-1-0.1-1.2-0.3c-0.3-0.3-0.6-0.4-0.9-0.8c-0.3-0.4-0.4-0.9-0.4-1.5
		c0-1.4,0.2-1.8,0.2-1.9c0,0,0-0.1-0.1-0.1s-0.1,0-0.1,0.1c-1,1.3-1.6,2.1-2.2,2.9c-0.5,0.7-0.7,0.7-1,1.1c-0.2,0.2-0.7,0.3-0.9,0.3
		c-0.3,0-1.4-0.7-1.7-1.1c-0.1-0.1-0.2-0.4-0.2-0.7c0-0.7,0.2-0.9,0.3-1.4c0.1-0.7,0.8-2.3,1.2-3.3
		C124.1,37.9,124.7,36.8,125.7,35.1z"/>
	<path class="st1" d="M137.5,35.8c-0.2,0.5-0.6,1.4-0.6,1.5c0,0,0,0.1,0.1,0.1c0.1,0,0.4,0,0.6-0.1c1.1-0.2,2.4-0.7,3.2-1.2
		c0.1-0.1,0.2-0.1,0.3-0.1c0.4,0,1.2,0.3,1.2,0.6c0,0.3-0.3,0.7-0.8,0.9c-0.6,0.3-0.6,0.3-1.1,0.5c-1.2,0.5-3.2,0.9-3.7,1.1
		c-0.2,0.1-0.4,0.2-0.5,0.4c-0.2,0.3-0.3,0.8-0.4,1.2c-0.1,0.3-0.2,0.5-0.3,0.8c-0.1,0.8-1,2.8-1.1,4c0,0.2-0.3,0.8-0.6,1
		c-0.1,0-0.3,0.1-0.4,0.1c-0.3,0-0.7-0.1-0.9-0.3c-0.2-0.1-0.3-0.4-0.3-0.6c0-0.2,0-0.5,0.1-0.7c0.6-1.8,1-3.9,1.8-5.7
		c0-0.1,0-0.1,0-0.2c0,0,0-0.1-0.1-0.1c-0.9-0.4-1-1.1-1.6-1.5c-0.1-0.1-0.1-0.2-0.1-0.3c0-0.2,0.1-0.2,0.3-0.3
		c0.1-0.1,0.3-0.1,0.5-0.1c0.5,0,1.1,0.4,1.6,0.4c0.2,0,0.4-0.1,0.4-0.3c0.1-0.3,0.2-0.6,0.4-1.1c0.6-1.5,1.2-3.3,2-5.1
		c0.1-0.3,0.2-0.3,0.3-0.3c0.4,0,0.4-0.1,0.7-0.1c0.2,0,0.6,0.1,0.9,0.2c0.1,0,0.2,0.1,0.2,0.2c0,0,0,0.1,0,0.3
		C139.4,32.5,138.2,34.2,137.5,35.8z"/>
	<path class="st1" d="M142.5,36.8c0,0.3,0,0.5-0.1,0.8c-0.1,0.3-0.1,0.3-0.1,0.4c0,0.1,0,0.1,0.1,0.1c0,0,0.1,0,0.3-0.2
		c1.3-1,2.5-1.7,3.3-2c0.1,0,0.2,0,0.3,0c0.7,0,1.3,0.2,1.8,0.7c0.1,0.1,0.2,0.3,0.2,0.4c0,0.7-0.6,1.1-0.8,1.1
		c-0.4,0-0.7-0.2-1.1-0.2c-0.1,0-0.2,0-0.4,0.1c-2.6,1.2-5.2,3.4-6,6.9c-0.2,0.7-0.4,1-0.6,1.2c-0.1,0.1-0.3,0.2-0.4,0.2
		c-0.4,0-0.6-0.3-0.7-0.5c-0.2-0.2-0.4-0.6-0.5-0.9c0-0.8,1-1.6,1.3-2.5c0.6-1.8,1.3-3.6,1.7-5.5c0-0.2,0-0.3,0-0.4
		c0-0.1-0.2-0.3-0.2-0.6c0-0.2,0.4-0.5,0.9-0.5c0.3,0,0.7,0.1,0.8,0.3C142.4,35.8,142.5,36.2,142.5,36.8z"/>
	<path class="st1" d="M153.8,36.2c1,0,1.5-0.1,2.1-0.1c0.8,0,1.5,0.2,1.5,0.6c0,0.3-0.6,0.4-0.7,0.5c0,0.1-0.1,0.1-0.3,0.1
		c-0.5,0.1-1.2,0.3-1.8,0.4c-0.5,0.1-0.8,0.1-0.9,0.1c-0.2,0-0.2,0-0.3,0.2c-0.6,2.6-1.5,4.8-3,6.4c-0.7,0.7-1.3,1.4-2.2,1.4
		c-0.2,0-0.4,0-0.6-0.1c-0.9-0.4-1.6-1-1.8-1.5c-0.3-0.7-0.4-1.4-0.4-2c0-2,1-3.7,2.1-5.4c0.3-0.5,0.3-0.4,0.6-0.7
		c0.8-1.1,1.8-2.2,2.8-2.2c0.4,0,0.9,0.1,1.3,0.5c0.2,0.2,0.3,0.2,0.3,0.4C152.8,35.5,153.1,36.2,153.8,36.2z M151.1,36.1
		c-0.1-0.2-0.1-0.4-0.2-0.4c-0.1,0-0.2,0.1-0.4,0.2c-0.1,0.1-0.3,0.2-0.5,0.4c-0.7,0.9-3,3.9-3,6.7c0,0.1,0,0.2,0.1,0.3
		c0.1,0.2,0.4,0.6,0.6,0.8c0.1,0,0.1,0,0.2,0c0.2,0,0.4-0.1,0.5-0.2c0.2-0.1,0.2-0.1,0.4-0.4c1.4-2.1,2.7-4,2.7-6.4
		c0-0.1,0-0.4,0-0.5c0-0.2-0.1-0.2-0.1-0.3C151.2,36.4,151.2,36.2,151.1,36.1z"/>
	<path class="st1" d="M153.9,44.5c0-0.3-0.1-0.5-0.1-0.8c0-1.1,0.5-2.2,1-3.6c1-2.7,3.2-6.5,5-9.6c0.4-0.7,0.6-2,1.5-2
		c0.3,0,0.5,0,0.8,0c0.2,0,0.5,0.1,0.6,0.3c0.1,0.2,0.2,0.4,0.2,0.7c0,0.3-0.1,0.6-0.2,0.8c-2.2,3.5-4.7,6.7-6.1,10.5
		c-0.4,1-0.9,1.9-0.9,3c0,0.3,0,0.6,0.1,0.9c0.1,0.2,0.3,0.3,0.5,0.3c0.1,0,0.3,0,0.4-0.1c1.1-0.6,2.2-2.7,3.3-2.7
		c0.2,0,0.8,0.2,0.8,0.6c0,0.3-0.2,0.4-0.5,0.7c-1.2,1.3-2.2,3.1-4.1,3.1C156.1,46.4,154.1,45.8,153.9,44.5z"/>
	<path class="st1" d="M163.4,46.3c-0.3,0-0.5,0-0.9-0.2c-0.5-0.2-1.4-0.6-1.5-0.7c-0.5-0.3-0.9-0.9-1.2-1.7
		c-0.2-0.5-0.3-1.4-0.3-1.8c0-0.2,0-0.5,0.1-0.8c0.7-2.4,2.3-4.6,4.1-6.5c0.4-0.4,1.4-1.1,2.6-1.1c0.6,0,1,0.1,1.5,0.3
		c0.3,0.1,0.8,0.5,0.8,1.5c0,0.6-0.3,1.2-0.6,1.7c-0.2,0.5-0.4,0.7-0.8,1.1c-1.7,1.9-3.5,4-5.6,5.1c-0.1,0.1-0.1,0.1-0.1,0.2
		c0,0.4,0.4,0.9,0.6,1c0.3,0.1,0.5,0.2,0.7,0.2c0.4,0,0.8-0.1,1.8-0.7c1.7-0.9,2.7-2.2,4.1-3.1c0.3-0.2,0.4-0.2,0.5-0.2
		c0.1,0,0.5,0.2,0.5,0.5c0,0.2,0,0.2,0,0.3c0,0.1,0,0.2-0.1,0.3c-1.2,1-1.7,2.2-5.3,4.2C163.9,46.3,163.7,46.3,163.4,46.3z
		 M166.5,35.3c0-0.2,0-0.3-0.1-0.3c-0.1,0-0.3,0.1-0.5,0.2c-0.3,0.2-0.2,0.1-0.5,0.3c-1.6,1.4-3.2,3.4-3.8,5.5c0,0.1,0,0.1,0,0.1
		c0,0,0.1,0,0.2-0.1c1.4-1.1,2.6-2.4,3.7-3.7c0.4-0.4,0.3-0.5,0.6-1C166.3,36,166.5,35.7,166.5,35.3z"/>
</g>
<g>
	<g>
		<path class="st2" d="M74.6,54.6c0.7,4-1.1,6.6-0.7,10c0.4,3.4-1.1,8-4.6,7.8c-1.4-0.1-2.6-1-3.9-1.2c-4-0.5-5.6,4.8-6.9,8.7
			c-0.3,0.9-0.7,1.8-1.3,2.6c-1.7,1.9-4.6,2.1-7.1,2.1c-4.1-0.1-8.3-0.4-12.1,1c-3.9,1.3-7.3,4.8-7.1,8.9c0.1,3.6,2.5,8.4-0.8,10
			c-0.9,0.4-1.9,0.4-2.8,0.3c-4-0.3-10.9,1.1-9.8,5c3.1,11.1-9.7,12.4-16.4,10.2"/>
		<g>
			<polygon class="st1" points="5.3,116.6 5.8,117.5 1.4,119.8 4,123.9 3.2,124.5 0,119.4 			"/>
		</g>
	</g>
</g>
<g>
</g>
<g>
</g>
<g>
</g>
<g>
</g>
<g>
</g>
<g>
</g>
<g>
</g>
</svg>
