<?xml version="1.0" encoding="utf-8"?>
<!-- Generator: Adobe Illustrator 25.1.0, SVG Export Plug-In . SVG Version: 6.00 Build 0)  -->
<svg version="1.1" id="Layer_1" xmlns="http://www.w3.org/2000/svg" xmlns:xlink="http://www.w3.org/1999/xlink" x="0px" y="0px"
	 viewBox="0 0 188.2 168.6" style="enable-background:new 0 0 188.2 168.6;" xml:space="preserve">
<style type="text/css">
	.st0{fill:none;}
	.st1{fill:#FFFFFF;}
	.st2{fill:none;stroke:#FFFFFF;stroke-miterlimit:10;}
</style>
<g>
	<rect x="39.7" y="112.5" class="st0" width="148.5" height="56.1"/>
	<path class="st1" d="M51.4,118.9c0,0.3,0.1,0.6,0.1,0.8c0,0.2-0.2,0.3-0.5,0.3c-0.1,0-0.2,0-0.4-0.1c-0.5-0.1-0.9-0.6-1.1-0.8
		c-0.3-0.4-0.2-1.4-0.9-1.8c-0.2-0.1-0.3-0.1-0.5-0.1c-0.2,0-0.6,0.7-0.6,1.9c0,0.3,0,1.1,0.3,2.4c0.4,1.5,1.4,4.8,1.7,6.7
		c0.1,0.9,0.2,1.2,0.2,1.6c0,1-0.6,1.8-1.5,2.1c-0.2,0.1-0.4,0.1-0.9,0.1c-2.1,0-4.2-1.2-5.8-3.1c-0.4-0.5-1.1-1-1.3-2.4
		c0-0.3,0-0.5,0-0.7c0-0.2,0.3-0.7,0.5-0.7c0.4,0,0.9,0.1,1.2,0.3c0.5,0.3,0.8,0.7,0.8,0.8c0,0.4-0.2,0.4-0.2,1
		c0,0.1,0.1,0.2,0.1,0.4c0.6,1.1,2,2.3,3.4,2.7c0.2,0.1,0.4,0.1,0.6,0.1c0.4,0,0.8-0.4,0.8-0.9c0-0.6,0-1.4-0.1-1.8
		c-0.4-2.7-1.3-4.8-1.8-7.5c0-0.3-0.2-1.4-0.2-1.8c0-0.2,0-0.4,0-0.5c0.2-0.8,0.3-2.2,1.5-2.2c1.3,0,2.5,0.2,3.6,1.4
		C51,117.5,51.3,118.3,51.4,118.9z M49.8,114.8c0,0-0.1,0-0.1,0c-0.1,0-0.3,0-0.4-0.2l-1.2-1.7c-0.5-0.7-0.5-0.9-0.5-1.1
		c0-0.1,0-0.1,0-0.3c0-0.1,0-0.2,0.2-0.4c0.2-0.3,0.3-0.4,0.4-0.4c0,0,0.2-0.1,0.4-0.1c0.1,0,0.2,0,0.2,0.1c0,0.1,0.1,0.3,1.1,2
		c0.1,0.1,0.1,0.2,0.2,0.2c0.2,0,0.7-0.4,1.1-0.6l1.5-0.8c0.2-0.1,0.2-0.1,0.3-0.1c0.1,0,0.3,0,0.3,0.4c0,0.1,0,0.2,0,0.4
		c0,0.1,0,0.2-0.1,0.4c-0.1,0.1-0.1,0.2-0.5,0.4l-2.7,1.7C50,114.8,49.9,114.8,49.8,114.8z"/>
	<path class="st1" d="M58.7,116.1c-0.5,0.6-0.5,0.7-0.6,0.9c-1.1,1.8-1.8,3.9-2.6,5.8c0,0.1-0.1,0.2-0.1,0.2c0,0,0,0.1,0.1,0.1
		c0.1,0,0.2,0,0.3-0.1c1.5-0.9,3.1-2,4.1-3.6c0.2-0.3,0.3-0.4,0.5-0.5c0.2-0.2,0.5-0.2,0.7-0.2c0.2,0,0.3,0,0.6,0.2
		c0.3,0.2,0.4,0.3,0.4,0.4c0,0.4-0.6,1.2-1.1,1.6c-0.4,0.3-0.4,0.5-0.7,0.7c-1.2,1-2.6,1.9-3.8,2.8c-0.1,0.1-0.2,0.2-0.2,0.3
		c0,0.2,0.1,0.4,0.5,1.7c0.1,0.5,1.1,2.4,1.3,2.7c0.7,1,0.9,1.2,2,1.7c0.3,0.1,0.5-0.1,0.5,0.4c0,0.3-0.4,0.5-0.5,0.6
		c-0.1,0.2-0.3,0.3-0.6,0.3c-0.9,0-1.5-0.3-1.8-0.7c-0.2-0.2-0.3-0.3-0.4-0.4c-0.1-0.1-0.3-0.2-0.5-0.5c-1.4-2.5-1.8-4.3-2.1-5
		c-0.1-0.2-0.1-0.2-0.2-0.2c0,0-0.1,0-0.1,0.1c-0.5,1.3-1.1,2.7-1.3,4.2c-0.1,0.5-0.3,1.7-0.8,1.7c-0.2,0-0.3,0.1-0.6,0.1
		c-0.1,0-0.8,0-0.8-0.8c0-0.2,0.1-0.5,0.2-0.7c0-0.1,0.1-0.3,0.1-0.3c1.6-5,3.9-9.8,6-14.7l0.3-0.6c0.1-0.3,0.3-0.5,0.4-0.5
		c0.2,0,0.2,0,0.8,0.1s0.9,0.3,0.9,0.7C59.4,115.1,59.1,115.6,58.7,116.1z"/>
	<path class="st1" d="M68.4,121.5c1,0,1.5-0.1,2.1-0.1c0.8,0,1.5,0.2,1.5,0.6c0,0.3-0.6,0.4-0.7,0.5c0,0.1-0.1,0.1-0.3,0.1
		c-0.5,0.1-1.2,0.3-1.8,0.4c-0.5,0.1-0.8,0.1-0.9,0.1c-0.2,0-0.2,0-0.3,0.2c-0.6,2.6-1.5,4.8-3,6.4c-0.7,0.7-1.3,1.4-2.2,1.4
		c-0.2,0-0.4,0-0.6-0.1c-0.9-0.4-1.6-1-1.8-1.5c-0.3-0.7-0.4-1.4-0.4-2c0-2,1-3.7,2.1-5.4c0.3-0.5,0.3-0.4,0.6-0.7
		c0.8-1.1,1.8-2.2,2.8-2.2c0.4,0,0.9,0.1,1.3,0.5c0.2,0.2,0.3,0.2,0.3,0.4C67.4,120.8,67.7,121.5,68.4,121.5z M65.8,121.4
		c-0.1-0.2-0.1-0.4-0.2-0.4s-0.2,0.1-0.4,0.2c-0.1,0.1-0.3,0.2-0.5,0.4c-0.7,0.9-3,3.9-3,6.7c0,0.1,0,0.2,0.1,0.3
		c0.1,0.2,0.4,0.6,0.6,0.8c0.1,0,0.1,0,0.2,0c0.2,0,0.4-0.1,0.5-0.2c0.2-0.1,0.2-0.1,0.4-0.4c1.4-2.1,2.7-4,2.7-6.4
		c0-0.1,0-0.4,0-0.5c0-0.2-0.1-0.2-0.1-0.3C65.9,121.6,65.8,121.5,65.8,121.4z"/>
	<path class="st1" d="M68.5,129.8c0-0.3-0.1-0.5-0.1-0.8c0-1.1,0.5-2.2,1-3.6c1-2.7,3.2-6.5,5-9.6c0.4-0.7,0.6-2,1.5-2
		c0.3,0,0.5,0,0.8,0c0.2,0,0.5,0.1,0.6,0.3c0.1,0.2,0.2,0.4,0.2,0.7c0,0.3-0.1,0.6-0.2,0.8c-2.2,3.5-4.7,6.7-6.1,10.5
		c-0.4,1-0.9,1.9-0.9,3c0,0.3,0,0.6,0.1,0.9c0.1,0.2,0.3,0.3,0.5,0.3c0.1,0,0.3,0,0.4-0.1c1.1-0.6,2.2-2.7,3.3-2.7
		c0.2,0,0.8,0.2,0.8,0.6c0,0.3-0.2,0.4-0.5,0.7c-1.2,1.3-2.2,3.1-4.1,3.1C70.8,131.6,68.8,131.1,68.5,129.8z"/>
	<path class="st1" d="M78.6,130.4c-0.5,0.5-1.4,1.2-2.5,1.2c-0.7,0-1.5-1-1.8-1.9c-0.1-0.3-0.1-0.7-0.1-1c0-0.6,0.1-1.1,0.4-1.9
		c0.2-0.5,0.3-0.9,0.4-1.2c0.7-1.8,1.4-3.5,2.3-5.3c0.2-0.5,0.7-0.6,1.2-0.6c0.2,0,0.6,0,0.7,0.2c0.1,0.1,0.2,0.2,0.2,0.4
		c0,1.3-1,1.9-1.5,3c-0.4,0.9-1.1,2.5-1.4,3.4c-0.4,1.1-0.6,2-0.6,2.4c0,0.2,0,0.8,0.4,0.8c0.5,0,0.8-0.1,1.8-0.8
		c0.6-0.4,0.7-0.5,1.1-0.5c0.2,0,0.5,0,0.6,0.2c0.1,0.1,0.1,0.2,0.1,0.3c0,0.3-0.1,0.4-0.4,0.6L78.6,130.4z M81.9,115.4
		c0,0.1,0,0.3-0.1,0.4c-0.4,0.5-1,1.2-1.5,1.2c-0.5,0-0.8-0.3-1-0.5c-0.1-0.2-0.2-0.6-0.2-0.8c0-0.3,0.1-0.7,0.3-1
		c0.2-0.3,0.7-0.4,1.2-0.4c0.4,0,0.8,0.1,1,0.3C81.9,114.9,81.9,115.2,81.9,115.4z"/>
	<path class="st1" d="M87.4,126.6c0.3,0,0.8,0.6,0.8,0.6c0,0.1-0.1,0.1-0.1,0.2c0,0.1,0,0.2-0.2,0.3c-0.7,0.3-1.6,1-2.6,1.8
		c-1.3,1.1-2.5,1.8-3.6,1.8c-1.3,0-2.3-0.9-2.4-1.2c-0.2-0.4-0.3-0.7-0.3-1.1c0-0.6,0.2-1.2,0.4-1.8c0-0.2,0.1-0.6,0.3-0.9
		c1.2-2.5,3-5.4,5-6.4c0.1-0.1,0.2-0.1,0.4-0.1c0.8,0,1.9,0.4,2.5,1c0.1,0.1,0.1,0.1,0.1,0.3c0,0.3,0,0.3,0,0.4c0,0,0,0.1,0,0.2
		c-0.1,0.3-0.8,1.4-0.8,2.3c0,0.2-0.1,0.4-0.5,0.4c-0.2,0-0.3,0-0.5-0.2l-0.6-0.5c-0.2-0.1-0.3-0.3-0.3-0.5c0-0.5,0.5-1.1,0.5-1.4
		c0-0.1-0.1-0.2-0.2-0.2c-0.1,0-0.2,0-0.4,0.2c-1,1-2.1,2.4-2.9,3.9c-0.8,1.5-1.4,3.1-1.4,3.7c0,0.3,0.2,0.5,0.4,0.5
		c1.1,0,2.2-0.6,3.4-1.5C85.5,127.5,86.7,126.6,87.4,126.6z"/>
	<path class="st1" d="M98.4,121.2c0.1,0,0.5,0,0.7,0.3c0,0.1,0,0.1,0,0.1c0,0.1,0,0.2-0.1,0.3c-1.1,1.4-2.3,3.2-2.8,5.1
		c-0.2,0.7-0.3,1.4-0.3,2.1c0,0.6,0.1,1.2,0.5,1.8c0,0,0,0.1,0,0.1c0,0-0.1,0.3-0.5,0.3c-0.1,0-0.3,0.1-0.5,0.1
		c-0.4,0-0.9-0.2-1-0.5c-0.3-0.7-0.4-1.4-0.4-2.1c0-0.7,0.1-1.1,0.1-1.2c0-0.1,0-0.1-0.1-0.1c-0.1,0-0.3,0.2-0.6,0.4l-1.3,1.2
		c-1.2,1.2-2,1.5-2.9,1.8c-0.1,0-0.3,0.1-0.4,0.1c-0.3,0-0.6-0.2-1.7-1.1c-0.1-0.1-0.5-0.5-0.5-1.4c0-0.8,0.3-1.8,1.4-3.6
		c1.4-2.1,2.7-3.1,3.5-3.6c1.2-0.9,2.4-1.5,3.8-1.9c0.2,0,0.4-0.1,0.5-0.1c0.6,0,1,0.3,1.5,0.7c0.1,0.1,0.3,0.3,0.4,0.5
		C97.9,121,98.1,121.2,98.4,121.2z M95.5,121.3c-2.3,1.2-4,2.5-5.4,4.2c-1,1.2-1.8,2.6-1.8,3.3c0,0.3,0.1,0.6,0.5,0.6
		c0.2,0,0.7-0.3,1.2-0.7c2.2-2.1,4.8-3.7,6-6c0.2-0.3,0.4-0.6,0.7-0.9c0.1-0.1,0.1-0.2,0.1-0.4c0-0.2-0.1-0.5-0.6-0.5
		C96.2,121.1,95.8,121.1,95.5,121.3z"/>
	<path class="st1" d="M112.1,126.6c0.3,0,0.8,0.6,0.8,0.6c0,0.1-0.1,0.1-0.1,0.2c0,0.1,0,0.2-0.2,0.3c-0.7,0.3-1.6,1-2.6,1.8
		c-1.3,1.1-2.5,1.8-3.6,1.8c-1.3,0-2.3-0.9-2.4-1.2c-0.2-0.4-0.3-0.7-0.3-1.1c0-0.6,0.2-1.2,0.4-1.8c0-0.2,0.1-0.6,0.3-0.9
		c1.2-2.5,3-5.4,5-6.4c0.1-0.1,0.2-0.1,0.4-0.1c0.8,0,1.9,0.4,2.5,1c0.1,0.1,0.1,0.1,0.1,0.3c0,0.3,0,0.3,0,0.4c0,0,0,0.1,0,0.2
		c-0.1,0.3-0.8,1.4-0.8,2.3c0,0.2-0.1,0.4-0.5,0.4c-0.2,0-0.3,0-0.5-0.2l-0.6-0.5c-0.2-0.1-0.3-0.3-0.3-0.5c0-0.5,0.5-1.1,0.5-1.4
		c0-0.1-0.1-0.2-0.2-0.2c-0.1,0-0.2,0-0.4,0.2c-1,1-2.1,2.4-2.9,3.9c-0.8,1.5-1.4,3.1-1.4,3.7c0,0.3,0.2,0.5,0.4,0.5
		c1.1,0,2.2-0.6,3.4-1.5C110.2,127.5,111.4,126.6,112.1,126.6z M113.3,115.3c0.1,0,0.2-0.1,0.3-0.1c0.2,0,0.3,0,0.5,0.2
		c0.2,0.2,0.3,0.4,0.3,0.7c0,0.4,0,0.5-0.1,0.6c-0.2,0.3-0.6,0.4-1.7,0.8l-2.8,0.9c-0.2,0-0.3,0.1-0.5,0.1c-0.1,0-0.2,0-0.3,0
		c-0.1-0.1-0.3-0.2-0.4-0.3c-0.1-0.1-0.1-0.2-0.2-0.3c0,0-0.1-0.1-0.1-0.2c0-0.1,0-0.2,0.1-0.3c0.1-0.1,0.2-0.1,0.3-0.1
		c0.1,0,0.3-0.1,0.6-0.2l2.1-0.8C111.8,116,113,115.6,113.3,115.3z"/>
	<path class="st1" d="M115.9,131.5c-0.3,0-0.5,0-0.9-0.2c-0.5-0.2-1.4-0.6-1.5-0.7c-0.5-0.3-0.9-0.9-1.2-1.7
		c-0.2-0.5-0.3-1.4-0.3-1.8c0-0.2,0-0.5,0.1-0.8c0.7-2.4,2.3-4.6,4.1-6.5c0.4-0.4,1.4-1.1,2.6-1.1c0.6,0,1,0.1,1.5,0.3
		c0.3,0.1,0.8,0.5,0.8,1.5c0,0.6-0.3,1.2-0.6,1.7c-0.2,0.5-0.4,0.7-0.8,1.1c-1.7,1.9-3.5,4-5.6,5.1c-0.1,0.1-0.1,0.1-0.1,0.2
		c0,0.4,0.4,0.9,0.6,1c0.3,0.1,0.5,0.2,0.7,0.2c0.4,0,0.8-0.1,1.8-0.7c1.7-0.9,2.7-2.2,4.1-3.1c0.3-0.2,0.4-0.2,0.5-0.2
		c0.1,0,0.5,0.2,0.5,0.5c0,0.2,0,0.2,0,0.3c0,0.1,0,0.2-0.1,0.3c-1.2,1-1.7,2.2-5.3,4.2C116.3,131.5,116.2,131.5,115.9,131.5z
		 M119,120.5c0-0.2,0-0.3-0.1-0.3c-0.1,0-0.3,0.1-0.5,0.2c-0.3,0.2-0.2,0.1-0.5,0.3c-1.6,1.4-3.2,3.4-3.8,5.5c0,0.1,0,0.1,0,0.1
		c0,0,0.1,0,0.2-0.1c1.4-1.1,2.6-2.4,3.7-3.7c0.4-0.4,0.3-0.5,0.6-1C118.8,121.3,119,121,119,120.5z"/>
	<path class="st1" d="M131.3,121c-0.2,0.5-0.6,1.4-0.6,1.5c0,0,0,0.1,0.1,0.1c0.1,0,0.4,0,0.6-0.1c1.1-0.2,2.4-0.7,3.2-1.2
		c0.1-0.1,0.2-0.1,0.3-0.1c0.4,0,1.2,0.3,1.2,0.6c0,0.3-0.3,0.7-0.8,0.9c-0.6,0.3-0.6,0.3-1.1,0.5c-1.2,0.5-3.2,0.9-3.7,1.1
		c-0.2,0.1-0.4,0.2-0.5,0.4c-0.2,0.3-0.3,0.8-0.4,1.2c-0.1,0.3-0.2,0.5-0.3,0.8c-0.1,0.8-1,2.8-1.1,4c0,0.2-0.3,0.8-0.6,1
		c-0.1,0-0.3,0.1-0.4,0.1c-0.3,0-0.7-0.1-0.9-0.3c-0.2-0.1-0.3-0.4-0.3-0.6c0-0.2,0-0.5,0.1-0.7c0.6-1.8,1-3.9,1.8-5.7
		c0-0.1,0-0.1,0-0.2s0-0.1-0.1-0.1c-0.9-0.4-1-1.1-1.6-1.5c-0.1-0.1-0.1-0.2-0.1-0.3c0-0.2,0.1-0.2,0.3-0.3c0.1-0.1,0.3-0.1,0.5-0.1
		c0.5,0,1.1,0.4,1.6,0.4c0.2,0,0.4-0.1,0.4-0.3c0.1-0.3,0.2-0.6,0.4-1.1c0.6-1.5,1.2-3.3,2-5.1c0.1-0.3,0.2-0.3,0.3-0.3
		c0.4,0,0.4-0.1,0.7-0.1c0.2,0,0.6,0.1,0.9,0.2c0.1,0,0.2,0.1,0.2,0.2c0,0,0,0.1,0,0.3C133.2,117.8,132.1,119.4,131.3,121z"/>
	<path class="st1" d="M136.6,130.4c-0.5,0.5-1.4,1.2-2.5,1.2c-0.7,0-1.5-1-1.8-1.9c-0.1-0.3-0.1-0.7-0.1-1c0-0.6,0.1-1.1,0.4-1.9
		c0.2-0.5,0.3-0.9,0.4-1.2c0.7-1.8,1.4-3.5,2.3-5.3c0.2-0.5,0.7-0.6,1.2-0.6c0.2,0,0.6,0,0.7,0.2c0.1,0.1,0.2,0.2,0.2,0.4
		c0,1.3-1,1.9-1.5,3c-0.4,0.9-1.1,2.5-1.4,3.4c-0.4,1.1-0.6,2-0.6,2.4c0,0.2,0,0.8,0.4,0.8c0.5,0,0.8-0.1,1.8-0.8
		c0.6-0.4,0.7-0.5,1.1-0.5c0.2,0,0.5,0,0.6,0.2c0.1,0.1,0.1,0.2,0.1,0.3c0,0.3-0.1,0.4-0.4,0.6L136.6,130.4z M140,115.4
		c0,0.1,0,0.3-0.1,0.4c-0.4,0.5-1,1.2-1.5,1.2c-0.5,0-0.8-0.3-1-0.5c-0.1-0.2-0.2-0.6-0.2-0.8c0-0.3,0.1-0.7,0.3-1
		c0.2-0.3,0.7-0.4,1.2-0.4c0.4,0,0.8,0.1,1,0.3C139.9,114.9,140,115.2,140,115.4z"/>
	<path class="st1" d="M44.7,149.1c0,0.1,0,0.2,0,0.2c0,0,0.1-0.1,0.2-0.2c1.1-1.2,2.1-2.3,3.2-2.9c0.2-0.1,0.3-0.1,0.4-0.1
		c0.7,0,1.4,0.4,2,0.8c0.2,0.1,0.5,0.4,0.5,1c0,0.8-0.1,1.2-0.2,1.7c0,0.2,0,0.4-0.1,0.8c-1.2,3.2-1.8,4.9-3.4,6.4
		c-0.2,0.1-0.5,0.2-0.7,0.2c-0.6,0-1.4-0.5-1.6-0.7c-0.6-0.6-1-1.2-1.2-1.8c0-0.1-0.1-0.1-0.1-0.1c0,0-0.1,0-0.1,0.1
		c-1.5,2.8-2.3,4.9-3.1,8.4c-0.1,0.5,0,0.9-0.3,1c-0.3,0.1-0.6,0.1-0.8,0.1c-0.3,0-0.5-0.1-0.7-0.3c-0.1-0.2-0.3-0.2-0.3-0.6
		c0-0.1,0-0.2,0.1-0.5c1.4-4.6,4.5-11.4,5.3-16.5c0.1-0.4,0.1-0.4,0.3-0.5c0.3-0.1,0.6-0.3,0.9-0.3c0.4,0,0.8,0.2,0.8,0.5
		C45.4,146.9,45,147.9,44.7,149.1z M44.8,152c-0.2,0.3-0.2,0.4-0.2,0.7c0,0.5,0.8,2.6,1.4,2.6c0.1,0,0.1,0,0.2-0.1
		c0.8-0.7,1.7-3.1,1.8-3.4c0.9-2.7,0.9-3.7,0.9-3.8c0-0.1-0.1-0.1-0.1-0.1s-0.1,0-0.2,0C47,149,45.8,150.5,44.8,152z"/>
	<path class="st1" d="M59.7,147.5c1,0,1.5-0.1,2.1-0.1c0.8,0,1.5,0.2,1.5,0.6c0,0.3-0.6,0.4-0.7,0.5c0,0.1-0.1,0.1-0.3,0.1
		c-0.5,0.1-1.2,0.3-1.8,0.4c-0.5,0.1-0.8,0.1-0.9,0.1c-0.2,0-0.2,0-0.3,0.2c-0.6,2.6-1.5,4.8-3,6.4c-0.7,0.7-1.3,1.4-2.2,1.4
		c-0.2,0-0.4,0-0.6-0.1c-0.9-0.4-1.6-1-1.8-1.5c-0.3-0.7-0.4-1.4-0.4-2c0-2,1-3.7,2.1-5.4c0.3-0.5,0.3-0.4,0.6-0.7
		c0.8-1.1,1.8-2.2,2.8-2.2c0.4,0,0.9,0.1,1.3,0.5c0.2,0.2,0.3,0.2,0.3,0.4C58.7,146.8,59,147.5,59.7,147.5z M57.1,147.4
		c-0.1-0.2-0.1-0.4-0.2-0.4s-0.2,0.1-0.4,0.2c-0.1,0.1-0.3,0.2-0.5,0.4c-0.7,0.9-3,3.9-3,6.7c0,0.1,0,0.2,0.1,0.3
		c0.1,0.2,0.4,0.6,0.6,0.8c0.1,0,0.1,0,0.2,0c0.2,0,0.4-0.1,0.5-0.2c0.2-0.1,0.2-0.1,0.4-0.4c1.4-2.1,2.7-4,2.7-6.4
		c0-0.1,0-0.4,0-0.5c0-0.2-0.1-0.2-0.1-0.3C57.2,147.6,57.1,147.5,57.1,147.4z"/>
	<path class="st1" d="M65.7,146.6c0,0.1,0,0.5-0.3,0.8c-1.8,2.4-3.3,5.1-4.1,8c0,0.1,0.1,0.3,0.2,0.3c0.1,0,0.2,0,0.3-0.1
		c2.6-1.3,4.8-4,5.8-6.6c0.1-0.2,0.2-0.4,0.5-0.6c0.3-0.2,0.6-0.3,0.9-0.3c0.4,0,0.8,0.2,1.1,0.5c0.1,0.1,0.1,0.1,0.1,0.2
		c0,0.1,0,0.2-0.1,0.4c-0.4,1.2-1.5,2.1-2.1,3.3c-0.8,1.5-1,2.4-1,3c0,0.1,0.1,0.4,0.2,0.4c0.4,0,1-0.3,1.4-0.8
		c1.7-1.9,4-3.3,4.9-5.7c0.1-0.3,0.4-0.9,1.2-0.9c0.5,0,0.4,0.1,0.7,0.2c0.6,0.1,0.6,0.1,0.8,0.5c0.1,0.1,0.1,0.2,0.1,0.3
		c0,0.5-0.6,0.5-0.9,1c-1.2,2-1.7,3.2-1.7,4.4c0,0.8,0.2,1.6,0.8,2.4c0.1,0.1,0.2,0.2,0.2,0.2c0.1,0.1,0.3,0.3,0.3,0.5
		s-0.2,0.4-0.6,0.4c-0.4,0-0.6-0.1-0.9-0.2c-0.3,0-0.6-0.4-1.1-1.4c-0.3-0.5-0.6-1.4-0.6-2.1c0-0.1,0-0.1-0.1-0.1c0,0-0.1,0-0.2,0.1
		c-1.2,0.9-2.3,2.8-4.2,2.8c-0.4,0-0.9-0.1-1.2-0.3c-1-0.5-1.1-0.8-1.1-1.2c0-0.3,0-0.4-0.1-0.4c0,0-0.1,0-0.2,0.1
		c-0.7,0.7-1.7,1.3-2.5,1.7c-0.1,0.1-0.3,0.1-0.4,0.1c-0.7,0-1.4-0.3-2-0.7c-0.1-0.1-0.1-0.1-0.2-0.3c-0.1-0.4-0.1-0.8-0.1-1.2
		c0-2.2,1.6-4,2.4-5.9c0.6-1.4,0.9-1.5,1.2-2.5c0.1-0.3,0.6-0.8,1.5-0.8c0.3,0,0.5,0,0.7,0.2C65.7,146.2,65.7,146.3,65.7,146.6z"/>
	<path class="st1" d="M84.6,147.5c1,0,1.5-0.1,2.1-0.1c0.8,0,1.5,0.2,1.5,0.6c0,0.3-0.6,0.4-0.7,0.5c0,0.1-0.1,0.1-0.3,0.1
		c-0.5,0.1-1.2,0.3-1.8,0.4c-0.5,0.1-0.8,0.1-0.9,0.1c-0.2,0-0.2,0-0.3,0.2c-0.6,2.6-1.5,4.8-3,6.4c-0.7,0.7-1.3,1.4-2.2,1.4
		c-0.2,0-0.4,0-0.6-0.1c-0.9-0.4-1.6-1-1.8-1.5c-0.3-0.7-0.4-1.4-0.4-2c0-2,1-3.7,2.1-5.4c0.3-0.5,0.3-0.4,0.6-0.7
		c0.8-1.1,1.8-2.2,2.8-2.2c0.4,0,0.9,0.1,1.3,0.5c0.2,0.2,0.3,0.2,0.3,0.4C83.6,146.8,83.9,147.5,84.6,147.5z M82,147.4
		c-0.1-0.2-0.1-0.4-0.2-0.4s-0.2,0.1-0.4,0.2c-0.1,0.1-0.3,0.2-0.5,0.4c-0.7,0.9-3,3.9-3,6.7c0,0.1,0,0.2,0.1,0.3
		c0.1,0.2,0.4,0.6,0.6,0.8c0.1,0,0.1,0,0.2,0c0.2,0,0.4-0.1,0.5-0.2c0.2-0.1,0.2-0.1,0.4-0.4c1.4-2.1,2.7-4,2.7-6.4
		c0-0.1,0-0.4,0-0.5c0-0.2-0.1-0.2-0.1-0.3C82,147.6,82,147.5,82,147.4z"/>
	<path class="st1" d="M93.2,152.6c0.3,0,0.8,0.6,0.8,0.6c0,0.1-0.1,0.1-0.1,0.2c0,0.1,0,0.2-0.2,0.3c-0.7,0.3-1.6,1-2.6,1.8
		c-1.3,1.1-2.5,1.8-3.6,1.8c-1.3,0-2.3-0.9-2.4-1.2c-0.2-0.4-0.3-0.7-0.3-1.1c0-0.6,0.2-1.2,0.4-1.8c0-0.2,0.1-0.6,0.3-0.9
		c1.2-2.5,3-5.4,5-6.4c0.1-0.1,0.2-0.1,0.4-0.1c0.8,0,1.9,0.4,2.5,1c0.1,0.1,0.1,0.1,0.1,0.3c0,0.3,0,0.3,0,0.4c0,0,0,0.1,0,0.2
		c-0.1,0.3-0.8,1.4-0.8,2.3c0,0.2-0.1,0.4-0.5,0.4c-0.2,0-0.3,0-0.5-0.2l-0.6-0.5c-0.2-0.1-0.3-0.3-0.3-0.5c0-0.5,0.5-1.1,0.5-1.4
		c0-0.1-0.1-0.2-0.2-0.2c-0.1,0-0.2,0-0.4,0.2c-1,1-2.1,2.4-2.9,3.9c-0.8,1.5-1.4,3.1-1.4,3.7c0,0.3,0.2,0.5,0.4,0.5
		c1.1,0,2.2-0.6,3.4-1.5C91.3,153.5,92.5,152.6,93.2,152.6z M94.4,141.3c0.1,0,0.2-0.1,0.3-0.1c0.2,0,0.3,0,0.5,0.2
		c0.2,0.2,0.3,0.4,0.3,0.7c0,0.4,0,0.5-0.1,0.6c-0.2,0.3-0.6,0.4-1.7,0.8l-2.8,0.9c-0.2,0-0.3,0.1-0.5,0.1c-0.1,0-0.2,0-0.3,0
		c-0.1-0.1-0.3-0.2-0.4-0.3c-0.1-0.1-0.1-0.2-0.2-0.3c0,0-0.1-0.1-0.1-0.2c0-0.1,0-0.2,0.1-0.3c0.1-0.1,0.2-0.1,0.3-0.1
		c0.1,0,0.3-0.1,0.6-0.2l2.1-0.8C92.9,142,94,141.6,94.4,141.3z"/>
	<path class="st1" d="M97.5,156.4c-0.5,0.5-1.4,1.2-2.5,1.2c-0.7,0-1.5-1-1.8-1.9c-0.1-0.3-0.1-0.7-0.1-1c0-0.6,0.1-1.1,0.4-1.9
		c0.2-0.5,0.3-0.9,0.4-1.2c0.7-1.8,1.4-3.5,2.3-5.3c0.2-0.5,0.7-0.6,1.2-0.6c0.2,0,0.6,0,0.7,0.2c0.1,0.1,0.2,0.2,0.2,0.4
		c0,1.3-1,1.9-1.5,3c-0.4,0.9-1.1,2.5-1.4,3.4c-0.4,1.1-0.6,2-0.6,2.4c0,0.2,0,0.8,0.4,0.8c0.5,0,0.8-0.1,1.8-0.8
		c0.6-0.4,0.7-0.5,1.1-0.5c0.2,0,0.5,0,0.6,0.2c0.1,0.1,0.1,0.2,0.1,0.3c0,0.3-0.1,0.4-0.4,0.6L97.5,156.4z M100.8,141.4
		c0,0.1,0,0.3-0.1,0.4c-0.4,0.5-1,1.2-1.5,1.2c-0.5,0-0.8-0.3-1-0.5c-0.1-0.2-0.2-0.6-0.2-0.8c0-0.3,0.1-0.7,0.3-1
		c0.2-0.3,0.7-0.4,1.2-0.4c0.4,0,0.8,0.1,1,0.3C100.8,140.9,100.8,141.2,100.8,141.4z"/>
	<path class="st1" d="M108.4,147c0,0.2-0.1,0.5-0.5,0.7c-0.2,0.1-0.5,0.4-0.7,1.1c-0.6,2.1-1.6,4.5-1.8,6.2c0,0.3,0,0.4,0,0.6
		s0.2,0.3,0.3,0.3c0.1,0,0.4-0.1,0.5-0.2c0.9-0.8,0.9-1,1.3-1.4c1.5-1.6,2.8-3.4,3.6-5.4c0.1-0.3,0.1-0.4,0.4-0.5
		c0.2-0.1,0.4-0.1,0.6-0.1c0.2,0,0.4,0.2,0.6,0.2c0.4,0.1,0.5,0.3,0.5,0.4c0,0.4,0,0.5-0.1,0.7c-0.8,1.8-1.5,3.5-1.8,5.4
		c-0.1,0.5-0.1,1.1-0.1,1.8c0,0.6,0.4,1.1,0.4,1.6c0,0.2,0,0.4-0.1,0.4c-0.1,0-0.2,0.1-0.3,0.1c-0.3,0-0.6-0.2-0.9-0.4
		c-0.5-0.3-0.5-0.1-0.6-0.5c-0.2-0.5-0.2-1-0.2-1.4c0-0.6,0.1-1.4,0.1-1.6c0-0.1,0-0.1-0.1-0.1c-0.1,0-0.2,0.2-0.3,0.3
		c-0.8,1-1.7,1.8-2.7,2.3c-0.2,0.1-0.2,0.1-0.3,0.1c-0.1,0-0.8-0.1-1.4-0.5c-0.4-0.3-0.7-0.5-0.7-0.7c-0.1-0.4-0.1-0.8-0.1-1
		c0-0.9,0.3-1.9,0.6-2.7c0.2-0.6,0.2-0.9,0.4-1.5c0.5-1.4,0.8-3,1.7-4.5c0.3-0.5,0.6-0.6,1-0.6c0.2,0,0.7,0.1,0.8,0.4
		C108.2,146.5,108.4,146.7,108.4,147z"/>
	<path class="st1" d="M124.4,147c-0.2,0.5-0.6,1.4-0.6,1.5c0,0,0,0.1,0.1,0.1c0.1,0,0.4,0,0.6-0.1c1.1-0.2,2.4-0.7,3.2-1.2
		c0.1-0.1,0.2-0.1,0.3-0.1c0.4,0,1.2,0.3,1.2,0.6c0,0.3-0.3,0.7-0.8,0.9c-0.6,0.3-0.6,0.3-1.1,0.5c-1.2,0.5-3.2,0.9-3.7,1.1
		c-0.2,0.1-0.4,0.2-0.5,0.4c-0.2,0.3-0.3,0.8-0.4,1.2c-0.1,0.3-0.2,0.5-0.3,0.8c-0.1,0.8-1,2.8-1.1,4c0,0.2-0.3,0.8-0.6,1
		c-0.1,0-0.3,0.1-0.4,0.1c-0.3,0-0.7-0.1-0.9-0.3c-0.2-0.1-0.3-0.4-0.3-0.6c0-0.2,0-0.5,0.1-0.7c0.6-1.8,1-3.9,1.8-5.7
		c0-0.1,0-0.1,0-0.2s0-0.1-0.1-0.1c-0.9-0.4-1-1.1-1.6-1.5c-0.1-0.1-0.1-0.2-0.1-0.3c0-0.2,0.1-0.2,0.3-0.3c0.1-0.1,0.3-0.1,0.5-0.1
		c0.5,0,1.1,0.4,1.6,0.4c0.2,0,0.4-0.1,0.4-0.3c0.1-0.3,0.2-0.6,0.4-1.1c0.6-1.5,1.2-3.3,2-5.1c0.1-0.3,0.2-0.3,0.3-0.3
		c0.4,0,0.4-0.1,0.7-0.1c0.2,0,0.6,0.1,0.9,0.2c0.1,0,0.2,0.1,0.2,0.2c0,0,0,0.1,0,0.3C126.3,143.8,125.2,145.4,124.4,147z"/>
	<path class="st1" d="M133.4,147.5c1,0,1.5-0.1,2.1-0.1c0.8,0,1.5,0.2,1.5,0.6c0,0.3-0.6,0.4-0.7,0.5c0,0.1-0.1,0.1-0.3,0.1
		c-0.5,0.1-1.2,0.3-1.8,0.4c-0.5,0.1-0.8,0.1-0.9,0.1c-0.2,0-0.2,0-0.3,0.2c-0.6,2.6-1.5,4.8-3,6.4c-0.7,0.7-1.3,1.4-2.2,1.4
		c-0.2,0-0.4,0-0.6-0.1c-0.9-0.4-1.6-1-1.8-1.5c-0.3-0.7-0.4-1.4-0.4-2c0-2,1-3.7,2.1-5.4c0.3-0.5,0.3-0.4,0.6-0.7
		c0.8-1.1,1.8-2.2,2.8-2.2c0.4,0,0.9,0.1,1.3,0.5c0.2,0.2,0.3,0.2,0.3,0.4C132.4,146.8,132.7,147.5,133.4,147.5z M130.8,147.4
		c-0.1-0.2-0.1-0.4-0.2-0.4c-0.1,0-0.2,0.1-0.4,0.2c-0.1,0.1-0.3,0.2-0.5,0.4c-0.7,0.9-3,3.9-3,6.7c0,0.1,0,0.2,0.1,0.3
		c0.1,0.2,0.4,0.6,0.6,0.8c0.1,0,0.1,0,0.2,0c0.2,0,0.4-0.1,0.5-0.2c0.2-0.1,0.2-0.1,0.4-0.4c1.4-2.1,2.7-4,2.7-6.4
		c0-0.1,0-0.4,0-0.5c0-0.2-0.1-0.2-0.1-0.3C130.8,147.6,130.8,147.5,130.8,147.4z"/>
	<path class="st1" d="M139.4,146.6c0,0.1,0,0.5-0.3,0.8c-1.8,2.4-3.3,5.1-4.1,8c0,0.1,0.1,0.3,0.2,0.3c0.1,0,0.2,0,0.3-0.1
		c2.6-1.3,4.8-4,5.8-6.6c0.1-0.2,0.2-0.4,0.5-0.6c0.3-0.2,0.6-0.3,0.9-0.3c0.4,0,0.8,0.2,1.1,0.5c0.1,0.1,0.1,0.1,0.1,0.2
		c0,0.1,0,0.2-0.1,0.4c-0.4,1.2-1.5,2.1-2.1,3.3c-0.8,1.5-1,2.4-1,3c0,0.1,0.1,0.4,0.2,0.4c0.4,0,1-0.3,1.4-0.8
		c1.7-1.9,4-3.3,4.9-5.7c0.1-0.3,0.4-0.9,1.2-0.9c0.5,0,0.4,0.1,0.7,0.2c0.6,0.1,0.6,0.1,0.8,0.5c0.1,0.1,0.1,0.2,0.1,0.3
		c0,0.5-0.6,0.5-0.9,1c-1.2,2-1.7,3.2-1.7,4.4c0,0.8,0.2,1.6,0.8,2.4c0.1,0.1,0.2,0.2,0.2,0.2c0.1,0.1,0.3,0.3,0.3,0.5
		s-0.2,0.4-0.6,0.4s-0.6-0.1-0.9-0.2c-0.3,0-0.6-0.4-1.1-1.4c-0.3-0.5-0.6-1.4-0.6-2.1c0-0.1,0-0.1-0.1-0.1c0,0-0.1,0-0.2,0.1
		c-1.2,0.9-2.3,2.8-4.2,2.8c-0.4,0-0.9-0.1-1.2-0.3c-1-0.5-1.1-0.8-1.1-1.2c0-0.3,0-0.4-0.1-0.4c0,0-0.1,0-0.2,0.1
		c-0.7,0.7-1.7,1.3-2.5,1.7c-0.1,0.1-0.3,0.1-0.4,0.1c-0.7,0-1.4-0.3-2-0.7c-0.1-0.1-0.1-0.1-0.2-0.3c-0.1-0.4-0.1-0.8-0.1-1.2
		c0-2.2,1.6-4,2.4-5.9c0.6-1.4,0.9-1.5,1.2-2.5c0.1-0.3,0.6-0.8,1.5-0.8c0.3,0,0.5,0,0.7,0.2C139.4,146.2,139.4,146.3,139.4,146.6z"
		/>
	<path class="st1" d="M154,157.5c-0.3,0-0.5,0-0.9-0.2c-0.5-0.2-1.4-0.6-1.5-0.7c-0.5-0.3-0.9-0.9-1.2-1.7c-0.2-0.5-0.3-1.4-0.3-1.8
		c0-0.2,0-0.5,0.1-0.8c0.7-2.4,2.3-4.6,4.1-6.5c0.4-0.4,1.4-1.1,2.6-1.1c0.6,0,1,0.1,1.5,0.3c0.3,0.1,0.8,0.5,0.8,1.5
		c0,0.6-0.3,1.2-0.6,1.7c-0.2,0.5-0.4,0.7-0.8,1.1c-1.7,1.9-3.5,4-5.6,5.1c-0.1,0.1-0.1,0.1-0.1,0.2c0,0.4,0.4,0.9,0.6,1
		c0.3,0.1,0.5,0.2,0.7,0.2c0.4,0,0.8-0.1,1.8-0.7c1.7-0.9,2.7-2.2,4.1-3.1c0.3-0.2,0.4-0.2,0.5-0.2c0.1,0,0.5,0.2,0.5,0.5
		c0,0.2,0,0.2,0,0.3c0,0.1,0,0.2-0.1,0.3c-1.2,1-1.7,2.2-5.3,4.2C154.4,157.5,154.3,157.5,154,157.5z M157.1,146.5
		c0-0.2,0-0.3-0.1-0.3c-0.1,0-0.3,0.1-0.5,0.2c-0.3,0.2-0.2,0.1-0.5,0.3c-1.6,1.4-3.2,3.4-3.8,5.5c0,0.1,0,0.1,0,0.1
		c0,0,0.1,0,0.2-0.1c1.4-1.1,2.6-2.4,3.7-3.7c0.4-0.4,0.3-0.5,0.6-1C156.9,147.3,157.1,147,157.1,146.5z"/>
	<path class="st1" d="M163,155.6c0,0.2,0,0.5-0.2,0.9c-0.2,0.4-0.4,0.9-0.8,0.9c-0.2,0-0.4,0-0.9,0c-0.4,0-0.7-1.1-0.7-1.5
		c0-0.3,0-0.4,0.2-0.7c0.1-0.2,0.1-0.6,0.5-0.6c0.7,0,0.9,0.5,1.6,0.5C162.9,155.3,163,155.4,163,155.6z M166.7,142.8
		c0,0.9-0.5,1.6-0.7,2.3c-0.8,2.6-1.3,5.1-2.4,7.5c-0.1,0.2-0.1,0.3-0.3,0.3c-0.3,0-0.5-0.2-0.5-0.3c-0.1-0.6-0.7-0.7-0.7-1
		c0-0.2,0-0.2,0.1-0.4c0.2-0.4,0.2-0.6,0.3-1c0.6-2.3,1.2-4.2,1.6-6.5c0.1-0.8,0.3-1.9,1-1.9c0.2,0,0.3,0.2,0.5,0.2
		c0.3,0.1,0.3,0.3,0.5,0.3C166.4,142.3,166.7,142.6,166.7,142.8z"/>
</g>
<g>
	<g>
		<path class="st2" d="M78.7,90.4c2.9-2.4,4.1-6.8,2.6-10.3c-1.4-3.5-5.3-5.9-9.1-5.6c-3.1,0.2-6,2-9,1.4c-4.5-0.9-6.2-6.6-6.2-11.2
			c0-4.6,0.6-9.8-2.4-13.4c-2.7-3.2-7.3-3.8-11.4-4.4c-9-1.4-18.2-4.2-24.9-10.4C8.7,27.7,5.7,14,3.3,1.1"/>
		<g>
			<polygon class="st1" points="8,3.5 7.4,4.3 3.4,1.4 0.9,5.6 0,5.1 3.2,0 			"/>
		</g>
	</g>
</g>
<g>
</g>
<g>
</g>
<g>
</g>
<g>
</g>
<g>
</g>
<g>
</g>
<g>
</g>
</svg>
