<?xml version="1.0" encoding="utf-8"?>
<!-- Generator: Adobe Illustrator 25.2.0, SVG Export Plug-In . SVG Version: 6.00 Build 0)  -->
<svg version="1.1" id="Layer_1" xmlns="http://www.w3.org/2000/svg" xmlns:xlink="http://www.w3.org/1999/xlink" x="0px" y="0px"
	 viewBox="0 0 1222.2 167.2" style="enable-background:new 0 0 1222.2 167.2;" xml:space="preserve">
<style type="text/css">
	.st0{fill:#DA5E78;}
	.st1{fill:#F46E86;}
</style>
<path class="st0" d="M-165.2-204c97.8-237.7,417.7-303.5,431.6-306.2c232.7-44.6,275.9,74.9,473.1,42.3
	c325.4-53.7,414.9-413.2,551.7-382.6c138.7,31.1,257.3,447.7,84.6,705.7c-312,466-1495.9,297.7-1563.8,52.6
	C-197.4-126-184.4-157.5-165.2-204z"/>
<path class="st1" d="M-153-196.5C-55.2-434.1,264.7-500,278.6-502.7c232.7-44.6,275.9,74.9,473.1,42.3
	c325.4-53.7,414.9-413.2,551.7-382.5c138.7,31.1,257.3,447.7,84.6,705.7c-312,466-1495.9,297.7-1563.8,52.6
	C-185.2-118.4-172.2-149.9-153-196.5z"/>
</svg>
