<?xml version="1.0" encoding="utf-8"?>
<!-- Generator: Adobe Illustrator 25.1.0, SVG Export Plug-In . SVG Version: 6.00 Build 0)  -->
<svg version="1.1" id="Layer_1" xmlns="http://www.w3.org/2000/svg" xmlns:xlink="http://www.w3.org/1999/xlink" x="0px" y="0px"
	 viewBox="0 0 48 89" style="enable-background:new 0 0 48 89;" xml:space="preserve">
<style type="text/css">
	.st0{fill:none;stroke:#017A3D;stroke-miterlimit:10;}
	.st1{fill:#017A3D;}
</style>
<g>
	<g>
		<path class="st0" d="M42.9,0.1c-1,3.3,1.6,6.5,3.3,9.4c1.7,3,2.1,7.8-1.2,8.9C43.7,19,42.3,18.6,41,19c-3.9,1.1-3.3,6.6-3,10.7
			c0.1,1,0.1,2-0.2,2.9C37,35,34.4,36.3,32,37.2c-3.8,1.5-7.8,2.9-10.8,5.6c-3,2.7-4.8,7.3-3.1,11c1.5,3.2,5.5,6.8,3.2,9.5
			c-0.6,0.7-1.6,1.1-2.5,1.4C15,66,10.9,67.1,8,69.9c-4.5,4.5-4.3,11.6-3.7,18"/>
		<g>
			<polygon class="st1" points="0,84.9 0.7,84.2 4.3,87.5 7.4,83.7 8.2,84.3 4.4,89 			"/>
		</g>
	</g>
</g>
<g>
</g>
<g>
</g>
<g>
</g>
<g>
</g>
<g>
</g>
<g>
</g>
<g>
</g>
</svg>
