<?xml version="1.0" encoding="utf-8"?>
<!-- Generator: Adobe Illustrator 25.1.0, SVG Export Plug-In . SVG Version: 6.00 Build 0)  -->
<svg version="1.1" id="Layer_1" xmlns="http://www.w3.org/2000/svg" xmlns:xlink="http://www.w3.org/1999/xlink" x="0px" y="0px"
	 viewBox="0 0 82.5 90.8" style="enable-background:new 0 0 82.5 90.8;" xml:space="preserve">
<style type="text/css">
	.st0{fill:none;stroke:#FFFFFF;stroke-miterlimit:10;}
	.st1{fill:#FFFFFF;}
</style>
<g>
	<g>
		<path class="st0" d="M78.7,90.4c2.9-2.4,4.1-6.8,2.6-10.3c-1.4-3.5-5.3-5.9-9.1-5.6c-3.1,0.2-6,2-9,1.4c-4.5-0.9-6.2-6.6-6.2-11.2
			c0-4.6,0.6-9.8-2.4-13.4c-2.7-3.2-7.3-3.8-11.4-4.4c-9-1.4-18.2-4.2-24.9-10.4C8.7,27.7,5.7,14,3.3,1.1"/>
		<g>
			<polygon class="st1" points="8,3.5 7.4,4.3 3.4,1.4 0.9,5.6 0,5.1 3.2,0 			"/>
		</g>
	</g>
</g>
<g>
</g>
<g>
</g>
<g>
</g>
<g>
</g>
<g>
</g>
<g>
</g>
<g>
</g>
</svg>
