<svg width="218" height="67" viewBox="0 0 218 67" fill="none" xmlns="http://www.w3.org/2000/svg">
<path d="M77.7026 39.0952C77.9714 39.0952 78.2403 39.0952 78.5092 39.0952C78.7781 39.0952 79.0469 39.3609 79.3158 39.6266C80.1224 40.1582 81.1979 40.424 82.5422 40.424C83.6177 40.424 84.6931 40.1582 85.7686 39.8924C86.8441 39.3609 87.6506 38.8293 88.1884 38.0321C88.7261 37.2348 88.995 36.4375 88.995 35.3744C88.995 34.3114 88.7261 33.2484 88.1884 32.7168C87.6506 31.9195 86.844 31.1223 85.4997 30.0592C84.962 29.5277 84.6931 29.262 84.6931 29.262C83.6177 28.4647 82.8111 27.9332 82.5422 27.1359C82.0045 26.6044 81.7356 26.0728 81.7356 25.2756C81.7356 24.744 82.0044 24.2125 82.2733 23.9468C82.5422 23.681 83.0799 23.4152 83.6176 23.4152C84.6931 23.4152 85.7686 23.9467 86.3063 24.744C86.844 25.807 87.3818 26.8701 87.6506 28.1989H88.1884C88.1884 25.5413 88.1884 23.681 88.1884 22.3522H87.6506C87.6506 23.1495 87.3818 23.4152 86.844 23.4152C86.5752 23.4152 86.5752 23.4153 86.3063 23.1495C86.0374 22.8837 85.2309 22.6179 84.6931 22.6179C83.8865 22.3522 83.0799 22.3522 82.2733 22.3522C81.1978 22.3522 80.1224 22.618 79.3158 22.8837C78.5092 23.1495 77.7026 23.681 77.1648 24.4783C76.6271 25.2756 76.3582 26.0729 76.3582 26.8701C76.3582 27.6674 76.6271 28.4647 76.896 28.9962C77.1648 29.5277 77.7026 30.325 77.9715 30.5908C78.2403 30.8565 79.0469 31.6539 80.1224 32.4511C80.929 33.2484 81.4667 33.7799 81.7356 34.0456C82.0044 34.3114 82.2733 34.8429 82.5422 35.3744C82.8111 35.906 82.811 36.4375 82.811 36.969C82.811 37.5005 82.5422 38.0321 82.2733 38.2978C82.0044 38.5636 81.4667 38.8294 80.929 38.8294C79.8535 38.8294 78.7781 38.2978 77.9715 37.2348C77.1649 36.1718 76.6271 34.8429 76.6271 32.9826H76.0894C76.0894 35.906 76.0894 38.0321 76.0894 39.3609H76.6271C77.1649 39.3609 77.4337 39.0952 77.7026 39.0952Z" fill="white"/>
<path d="M100.019 39.0951C99.4808 39.0951 98.9431 38.8293 98.9431 38.5635C98.9431 38.2978 98.6742 37.5005 98.6742 36.7032V26.6043C98.6742 26.0728 98.9431 25.2755 99.4808 25.0097C100.019 24.4782 100.556 24.4782 101.094 24.4782C101.632 24.4782 102.17 24.7439 102.17 25.0097C102.438 25.2755 102.438 25.807 102.438 26.6043V36.9689C102.438 37.7662 102.438 38.5635 102.17 38.8293C101.901 39.0951 101.632 39.3608 101.094 39.3608V40.1581C103.514 40.1581 104.858 40.1581 105.665 40.1581C106.471 40.1581 107.816 40.1581 110.236 40.1581V39.3608C109.698 39.3608 109.16 39.0951 108.891 38.8293C108.622 38.5635 108.622 37.7662 108.622 36.9689V28.1989C108.622 27.1358 108.622 26.3385 108.353 25.5413C108.085 25.0097 108.085 24.4782 107.547 23.9467C106.74 23.1494 105.665 22.6179 103.783 22.6179C101.363 22.6179 99.7497 23.4151 98.6742 25.0097V14.6451C97.061 14.9108 95.1789 15.1766 93.028 15.1766C92.4903 15.1766 91.6837 15.1766 91.1459 15.1766V15.9739C91.6837 15.9739 92.2214 16.2396 92.4903 16.7711C92.7591 17.3026 93.028 17.8342 93.028 18.8972V36.9689C93.028 37.7662 92.7591 38.5635 92.4903 38.8293C92.2214 39.0951 91.6837 39.3608 91.1459 39.3608V40.1581C93.5657 40.1581 95.179 40.1581 95.9856 40.1581C96.7922 40.1581 98.1365 40.1581 100.287 40.1581V39.0951H100.019Z" fill="white"/>
<path d="M113.462 25.0098C112.118 26.3386 111.311 28.7305 111.311 31.6538C111.311 34.5772 112.118 36.9691 113.462 38.2979C114.806 39.6267 116.957 40.424 119.646 40.424C122.335 40.424 124.217 39.6267 125.83 38.2979C127.174 36.9691 127.981 34.843 127.981 31.6538C127.981 28.4647 127.174 26.3386 125.83 25.0098C124.485 23.681 122.335 22.8838 119.646 22.8838C116.957 22.8838 114.806 23.681 113.462 25.0098ZM121.259 25.5414C121.797 26.8702 121.797 28.9962 121.797 31.6538C121.797 34.3114 121.528 36.4376 121.259 37.7664C120.99 39.0952 120.184 39.8924 119.646 39.8924C118.839 39.8924 118.302 39.361 118.033 37.7664C117.495 36.4376 117.495 34.3114 117.495 31.6538C117.495 28.9962 117.764 26.8702 118.033 25.5414C118.57 24.2126 119.108 23.4152 119.646 23.4152C120.184 23.4152 120.721 24.2126 121.259 25.5414Z" fill="white"/>
<path d="M141.962 22.8838C139.811 22.8838 137.929 23.681 137.122 25.2756V22.8838C135.509 23.1495 133.627 23.4152 131.476 23.4152C130.938 23.4152 130.132 23.4152 129.594 23.4152V24.2126C130.132 24.2126 130.669 24.4783 130.938 25.0098C131.207 25.5413 131.476 26.0729 131.476 27.136V43.0816C131.476 43.8789 131.207 44.6761 130.938 44.9419C130.669 45.2076 130.132 45.4734 129.594 45.4734V46.2707C132.014 46.2707 133.358 46.2707 134.165 46.2707C134.971 46.2707 136.585 46.2707 139.273 46.2707H140.08V45.4734C139.273 45.4734 138.467 45.2076 137.929 44.9419C137.391 44.6761 137.122 43.8789 137.122 42.8158V40.1582C137.929 40.6897 139.004 40.6897 140.08 40.6897C142.231 40.6897 144.113 39.8924 145.457 38.5636C146.801 37.2348 147.608 34.5772 147.608 31.3881C147.608 28.7305 147.07 26.8702 145.995 25.5414C144.919 23.681 143.575 22.8838 141.962 22.8838ZM140.886 37.5006C140.349 38.8294 139.542 39.3609 138.198 39.3609C137.66 39.3609 137.391 39.361 137.122 39.0952V26.8702C137.122 26.3387 137.391 25.5414 137.929 25.2756C138.467 24.7441 139.004 24.744 139.542 24.744C140.08 24.744 140.618 25.2756 141.155 26.3386C141.693 27.4017 141.693 29.262 141.693 31.9196C141.693 34.3115 141.424 36.1718 140.886 37.5006Z" fill="white"/>
<path d="M161.858 22.8838C159.707 22.8838 157.825 23.681 157.018 25.2756V22.8838C155.405 23.1495 153.523 23.4152 151.372 23.4152C150.834 23.4152 150.028 23.4152 149.49 23.4152V24.2126C150.028 24.2126 150.566 24.4783 150.834 25.0098C151.103 25.5413 151.372 26.0729 151.372 27.136V43.0816C151.372 43.8789 151.103 44.6761 150.834 44.9419C150.566 45.2076 150.028 45.4734 149.49 45.4734V46.2707C151.91 46.2707 153.254 46.2707 154.061 46.2707C154.867 46.2707 156.481 46.2707 159.169 46.2707H159.976V45.4734C159.169 45.4734 158.363 45.2076 157.825 44.9419C157.287 44.6761 157.018 43.8789 157.018 42.8158V40.1582C157.825 40.6897 158.9 40.6897 159.976 40.6897C162.127 40.6897 164.009 39.8924 165.353 38.5636C166.698 37.2348 167.504 34.5772 167.504 31.3881C167.504 28.7305 166.966 26.8702 165.891 25.5414C164.816 23.681 163.471 22.8838 161.858 22.8838ZM160.514 37.5006C159.976 38.8294 159.169 39.3609 157.825 39.3609C157.287 39.3609 157.018 39.361 156.75 39.0952V26.8702C156.75 26.3387 157.018 25.5414 157.556 25.2756C158.094 24.7441 158.632 24.744 159.169 24.744C159.707 24.744 160.245 25.2756 160.783 26.3386C161.32 27.4017 161.32 29.262 161.32 31.9196C161.32 34.3115 161.051 36.1718 160.514 37.5006Z" fill="white"/>
<path d="M173.688 20.4918C174.764 20.4918 175.57 20.226 176.377 19.6945C176.915 19.163 177.183 18.6315 177.183 17.5684C177.183 16.5054 176.915 15.9738 176.377 15.4423C175.839 14.9108 174.764 14.6451 173.688 14.6451C172.613 14.6451 171.806 14.9108 170.999 15.4423C170.462 15.9738 170.193 16.5054 170.193 17.5684C170.193 18.6315 170.462 19.163 170.999 19.6945C171.537 20.226 172.344 20.4918 173.688 20.4918Z" fill="white"/>
<path d="M176.646 36.9691V23.1496C175.033 23.4154 173.15 23.6811 170.999 23.6811C170.462 23.6811 169.655 23.6811 169.117 23.6811V24.4784C169.655 24.4784 170.193 24.7442 170.462 25.2757C170.731 25.8072 170.731 26.3387 170.731 27.4017V37.5007C170.731 38.298 170.731 39.0952 170.462 39.361C170.193 39.6267 169.655 39.8925 169.117 39.8925V40.6898C171.537 40.6898 173.15 40.6898 173.957 40.6898C174.764 40.6898 176.108 40.6898 178.528 40.6898V39.8925C177.99 39.8925 177.452 39.6267 177.183 39.361C176.915 39.0952 176.646 37.7664 176.646 36.9691Z" fill="white"/>
<path d="M197.08 36.969V28.1989C197.08 27.1358 197.08 26.3386 196.811 25.5413C196.542 25.0098 196.542 24.4782 196.004 23.9467C195.198 23.1494 194.122 22.6179 192.24 22.6179C189.82 22.6179 188.207 23.4152 187.131 25.0097V22.6179C185.518 22.8837 183.636 23.1494 181.485 23.1494C180.948 23.1494 180.141 23.1494 179.603 23.1494V23.9467C180.141 23.9467 180.679 24.2124 180.948 24.7439C181.216 25.2755 181.216 25.807 181.216 26.8701V36.969C181.216 37.7662 181.216 38.5636 180.948 38.8293C180.679 39.0951 180.141 39.3608 179.603 39.3608V40.1581C182.023 40.1581 183.636 40.1581 184.443 40.1581C185.249 40.1581 186.594 40.1581 188.745 40.1581V39.3608C188.207 39.3608 187.669 39.0951 187.669 38.8293C187.4 38.5636 187.4 37.7662 187.4 36.969V26.8701C187.4 26.3386 187.669 25.5413 188.207 25.2755C188.745 24.744 189.282 24.7439 189.82 24.7439C190.358 24.7439 190.896 25.0097 190.896 25.2755C190.896 25.5413 191.165 26.0728 191.165 26.8701V37.2347C191.165 38.032 191.165 38.8293 190.896 39.0951C190.627 39.3609 190.358 39.6266 189.82 39.6266V40.4239C192.24 40.4239 193.584 40.4239 194.391 40.4239C195.198 40.4239 196.542 40.4239 198.962 40.4239V39.6266C198.424 39.6266 197.886 39.3609 197.617 39.0951C197.08 38.2978 197.08 37.7662 197.08 36.969Z" fill="white"/>
<path d="M214.556 26.0727C214.825 26.3385 215.363 26.6043 215.631 26.6043C216.169 26.6043 216.438 26.3385 216.976 26.0727C217.245 25.807 217.513 25.2755 217.513 24.7439C217.513 24.2124 217.245 23.681 216.976 23.1494C216.707 22.6179 216.169 22.6179 215.363 22.6179C214.825 22.6179 214.018 22.8837 213.48 23.1494C212.943 23.4152 212.405 23.9467 211.867 24.4782C210.523 23.4152 208.91 23.1494 206.759 23.1494C204.608 23.1494 202.995 23.681 201.65 24.4782C200.306 25.2755 199.768 26.6043 199.768 28.1989C199.768 29.5277 200.306 30.8565 201.113 31.6537C201.919 32.451 203.264 32.9826 204.877 33.2483C203.801 33.7798 202.726 34.3114 202.188 35.1087C201.65 35.6402 201.381 36.4375 201.381 37.2347C201.381 38.2978 201.65 38.8293 202.457 39.3608C203.264 39.8923 204.339 40.1581 205.683 40.1581H207.297C208.641 40.1581 209.447 40.4238 209.985 40.6896C210.523 40.9554 210.792 41.4869 210.792 42.2842C210.792 43.3472 210.523 43.8788 209.716 44.4103C208.91 44.9418 207.834 45.2076 206.49 45.2076C205.146 45.2076 204.07 44.9418 203.264 44.4103C202.457 43.8788 202.188 43.3472 202.188 42.55C202.188 42.0184 202.457 41.2212 202.995 40.4239L202.726 39.8923C201.381 40.1581 200.575 40.6896 199.768 41.2212C199.231 41.7527 198.962 42.2842 198.962 42.8157C198.962 43.613 199.499 44.4103 200.844 44.9418C202.188 45.4733 203.801 45.7391 205.952 45.7391C208.103 45.7391 209.985 45.4733 211.598 44.9418C213.212 44.4103 214.287 43.613 214.825 42.8157C215.631 42.0185 215.9 40.9554 215.9 39.8923C215.9 38.2978 215.363 37.2348 214.018 36.4375C212.674 35.6402 211.061 35.3744 208.91 35.3744H205.683C204.877 35.3744 204.608 35.1086 204.608 34.3114C204.608 33.7798 204.877 33.2483 205.414 32.9825C205.683 32.9825 205.952 32.9825 206.221 32.9825C208.372 32.9825 209.985 32.451 211.33 31.6537C212.674 30.8565 213.212 29.5277 213.212 27.9331C213.212 26.6043 212.943 25.5412 212.136 24.7439C212.674 23.9467 213.212 23.4152 214.287 23.1494C214.018 23.681 213.749 24.2124 213.749 24.7439C214.018 25.2755 214.287 25.807 214.556 26.0727ZM207.565 31.388C207.297 32.1852 207.028 32.4511 206.49 32.4511C205.952 32.4511 205.683 32.1852 205.414 31.388C205.146 30.5907 205.146 29.5277 205.146 27.9331C205.146 26.3385 205.146 25.0098 205.414 24.4782C205.683 23.681 205.952 23.4151 206.49 23.4151C207.028 23.4151 207.297 23.681 207.565 24.4782C207.834 25.2755 207.834 26.3385 207.834 27.9331C207.834 29.5277 207.834 30.8564 207.565 31.388Z" fill="white"/>
<path d="M90.877 56.104C90.3393 57.4328 90.0704 58.7616 89.8016 60.0904C89.5327 58.7616 89.2638 57.4328 88.7261 56.104L86.844 49.9914H84.9619L82.811 56.3698C82.2733 57.6986 82.0044 59.0274 81.7356 60.3562C81.4667 59.0274 81.1978 57.6986 80.9289 56.3698L79.3158 50.2572H76.8959L80.6601 62.4822H82.811L84.6931 56.6354C85.2308 55.3066 85.4997 53.9778 85.7686 52.649C86.0374 53.9778 86.3063 55.3066 86.844 56.6354L88.7261 62.4822H90.877L94.91 50.2572H92.7591L90.877 56.104Z" fill="white"/>
<path d="M101.632 49.4599C98.1364 49.4599 95.7166 52.3832 95.7166 56.1039C95.7166 59.8245 98.1364 62.2164 101.901 62.2164C103.783 62.2164 105.127 61.6849 105.934 61.4191L105.665 59.8245C104.858 60.0903 103.783 60.3561 102.169 60.3561C100.019 60.3561 97.8676 59.0273 97.8676 56.1039H106.471C106.471 55.8381 106.471 55.5724 106.471 55.0409C106.74 53.1805 105.665 49.4599 101.632 49.4599ZM98.1364 54.7751C98.4053 53.1805 99.2119 51.0545 101.632 51.0545C104.051 51.0545 104.858 53.1805 104.858 54.7751H98.1364Z" fill="white"/>
<path d="M114.537 49.4599C111.042 49.4599 108.622 52.3832 108.622 56.1039C108.622 59.8245 111.042 62.2164 114.806 62.2164C116.688 62.2164 118.033 61.6849 118.839 61.4191L118.57 59.8245C117.764 60.0903 116.688 60.3561 115.075 60.3561C112.924 60.3561 110.773 59.0273 110.773 56.1039H119.377C119.377 55.8381 119.377 55.5724 119.377 55.0409C119.646 53.1805 118.57 49.4599 114.537 49.4599ZM111.042 54.7751C111.311 53.1805 112.118 51.0545 114.537 51.0545C116.957 51.0545 117.764 53.1805 117.764 54.7751H111.042Z" fill="white"/>
<path d="M132.283 49.9913H129.594L125.83 54.2435C125.561 54.775 125.023 55.3065 124.754 55.5723V44.1446H122.603V62.2163H124.754V57.6984L125.83 56.3696L130.132 62.2163H132.82L127.443 55.0408L132.283 49.9913Z" fill="white"/>
<path d="M13.4434 58.7614C12.6368 57.1668 12.3679 55.5722 12.9056 53.9776L17.2075 38.8293C13.7122 38.5635 10.4858 36.1717 9.14147 32.7168L6.18391 24.7439C5.91504 23.9466 6.18392 23.1494 6.99052 22.8837C7.79712 22.6179 8.33487 23.1494 8.60374 23.6809L11.5613 31.6537C12.6367 34.3113 15.0565 35.9059 17.7452 35.9059L23.6603 14.6451L2.41979 19.9603C0.806585 20.226 0 21.8206 0 23.4151L5.10846 63.2793C5.37733 65.1396 7.2594 66.4684 9.14147 65.9369L22.3159 62.7478L16.9386 61.6848C15.8631 61.1532 14.25 60.0902 13.4434 58.7614Z" fill="white"/>
<path d="M50.2781 11.9875L51.3536 6.93806L46.2451 5.87504C44.363 5.60928 42.481 6.67232 42.2121 8.53265L41.1366 13.5821L46.2451 14.6451C48.1272 15.1766 50.0092 13.8478 50.2781 11.9875Z" fill="white"/>
<path d="M62.9148 8.26685L63.9903 3.21741L58.8818 2.1543C56.9998 1.88854 55.1177 2.95159 54.8488 4.81191L53.7734 9.86144L58.8818 10.9245C60.7639 11.456 62.3771 10.1272 62.9148 8.26685Z" fill="white"/>
<path d="M38.7169 4.81197L39.2546 1.35711L35.7593 0.825555C34.6839 0.559795 33.6084 1.35709 33.3395 2.42014L32.8018 5.87508L36.2971 6.40655C37.3726 6.67231 38.448 5.87501 38.7169 4.81197Z" fill="white"/>
<path d="M61.5706 20.226L31.4575 14.6451C31.1886 14.6451 31.1886 14.6451 30.9198 14.6451C29.5754 14.6451 28.4999 15.4423 27.9622 16.7711L15.5943 55.0407C15.0566 56.9011 16.1321 58.7613 18.0141 59.2929L58.613 67C58.8819 67 59.1508 67 59.1508 67C60.764 67 62.3772 65.6711 62.3772 63.8108L64.2593 23.6809C64.2593 21.8206 63.1838 20.4918 61.5706 20.226ZM56.9999 27.6673L54.58 35.9059C53.2357 40.6896 48.3961 43.613 43.5565 42.5499L38.448 41.4869C33.6084 40.4239 30.382 36.1717 30.9198 31.1223L31.7263 22.8837C31.7263 22.0864 32.5329 21.5549 33.3395 21.5549C34.1461 21.8206 34.415 22.3521 34.415 23.1494L33.6084 31.388C33.3396 34.8428 35.4905 38.032 38.9858 38.5635L44.0942 39.6266C47.5895 40.1581 50.8159 38.2978 51.8914 34.8429L54.3112 26.6043C54.5801 25.807 55.1178 25.5413 55.9244 25.5413C56.731 26.0728 57.2687 26.87 56.9999 27.6673Z" fill="white"/>
<path d="M136.316 16.2397H105.665V17.037H136.316V16.2397Z" fill="white"/>
<path d="M107.278 14.6452C107.009 14.6452 106.471 14.3794 106.471 14.1136L105.665 14.9109C106.202 15.4425 106.74 15.4424 107.278 15.4424C108.353 15.4424 109.16 14.911 109.16 13.8479C109.16 12.2533 107.009 12.7848 107.009 11.9876C107.009 11.7218 107.547 11.456 107.816 11.456C108.085 11.456 108.353 11.456 108.622 11.7218L109.429 10.9245C109.16 10.6588 108.622 10.393 108.085 10.393C107.278 10.393 106.203 10.9245 106.203 11.9876C106.203 13.5821 108.353 13.0506 108.353 13.8479C108.085 14.6452 107.547 14.6452 107.278 14.6452Z" fill="white"/>
<path d="M113.193 15.7082C114.537 15.7082 115.075 14.9109 115.075 13.8479V10.9245H114V13.8479C114 14.3794 113.731 14.9109 113.193 14.9109C112.655 14.9109 112.118 14.3794 112.118 13.8479V10.9245H111.042V13.8479C111.042 14.9109 111.849 15.7082 113.193 15.7082Z" fill="white"/>
<path d="M118.302 13.848H119.108C120.184 13.848 120.721 13.5822 120.721 12.5192C120.721 11.4561 119.915 11.1904 118.839 11.1904H117.226V15.7083H118.302V13.848ZM118.302 11.7218H118.839C119.108 11.7218 119.646 11.7219 119.646 12.2534C119.646 12.7849 119.377 12.7849 118.839 12.7849H118.033V11.7218H118.302Z" fill="white"/>
<path d="M126.099 14.6451H123.948V13.5821H126.099V12.7848H123.948V11.7217H126.099V10.9245H122.872V15.4424H126.099V14.6451Z" fill="white"/>
<path d="M129.325 13.5821H129.863L130.938 15.4424H132.283L131.207 13.5821C131.745 13.5821 132.283 13.0506 132.283 12.2533C132.283 11.1903 131.476 10.9245 130.401 10.9245H128.518V15.4424H129.594V13.5821H129.325ZM129.325 11.7217H129.863C130.132 11.7217 130.669 11.7218 130.669 12.2533C130.669 12.7848 130.132 12.7848 129.863 12.7848H129.325V11.7217Z" fill="white"/>
<path d="M135.509 11.9875V15.4424H136.316V10.9245H135.509L133.896 12.2533L134.434 12.7848L135.509 11.9875Z" fill="white"/>
</svg>
