<svg xmlns="http://www.w3.org/2000/svg" width="447.188" height="131.187" viewBox="0 0 447.188 131.187">
  <metadata><?xpacket begin="﻿" id="W5M0MpCehiHzreSzNTczkc9d"?>
<x:xmpmeta xmlns:x="adobe:ns:meta/" x:xmptk="Adobe XMP Core 5.6-c138 79.159824, 2016/09/14-01:09:01        ">
   <rdf:RDF xmlns:rdf="http://www.w3.org/1999/02/22-rdf-syntax-ns#">
      <rdf:Description rdf:about=""/>
   </rdf:RDF>
</x:xmpmeta>
                                                                                                    
                                                                                                    
                                                                                                    
                                                                                                    
                                                                                                    
                                                                                                    
                                                                                                    
                                                                                                    
                                                                                                    
                                                                                                    
                                                                                                    
                                                                                                    
                                                                                                    
                                                                                                    
                                                                                                    
                                                                                                    
                                                                                                    
                                                                                                    
                                                                                                    
                                                                                                    
                           
<?xpacket end="w"?></metadata>
<defs>
    <style>
      .cls-1 {
        fill: #f21c0a;
        fill-rule: evenodd;
      }
    </style>
  </defs>
  <path class="cls-1" d="M606,851.156c0,15-17.827,66.368-20.752,74.075-1.92,5.068-5.608,5.786-10.381,5.786-8.637,0-15.15-2.063-18.323-4.607a2.872,2.872,0,0,1-.92-3.295c3.246-9.688,15.569-44.574,15.569-52.109,0-4.124-1.217-7.225-5.332-7.225-24.945,0-70.773,53.282-79.283,62.8-2.786,3.114-6.865,3.773-11.63,3.773-5.9,0-12.183-3.132-12.778-3.443-1.866-.967-1.956-2.031-1.4-4.283l1.564-6.375c2.867-11.67,17.719-54.831,28.01-78.224,0.437-.988.865-1.81,3.1-2.162a47.75,47.75,0,0,1,9.186-.956c3.48,0,10.241.249,13.631,2.067,0,0,.027-0.05.027,5.645,0,2.459.266,10.821,8.132,10.821,13.265,0,37.349-22.793,58.643-22.793,18.719,0,22.938,11.561,22.938,20.5M341.116,870.012c0,3.114-3.624,11.688-4.134,12.952-3.259,8.045-11.8,9.349-17.818,9.349-9.02,0-12.121-3.245-12.121-8.361,0-3.963,3.331-10.8,3.769-11.809,4.061-9.318,11.331-10.329,18.508-10.329,6.085,0,11.8,2.531,11.8,8.2m-77.155-19.678c0-5.933-.28-14.436-4.914-14.436-15.078,0-41.572,23.091-44.228,25.749-1.965,1.967-.495,1.8,2.132,1.8h33.906c12.017,0,13.1-2.026,13.1-13.118m36.2,3.114c0,29.069-17.864,35.092-37.679,35.092H248.563c-13.91,0-41.934-.821-41.934-0.821-2.249-.045-3.93-0.492-3.93.821,0,9.482,10.709,23.781,27.027,23.781,12.851,0,21.131-8.036,22.934-9.94,0,0,14.766-1.7,24.241-1.7,9.2,0,22.773,1.471,22.773,6.719,0,10.239-33.225,26.4-61.1,26.4-41.969,0-79.774-22.824-79.774-50.341,0-46.113,88.9-80.849,114.829-80.849,23.349,0,26.536,37.231,26.536,50.837m111.39-.985c-3.16,0-7.866.493-9.993,3.443-7.983,11.06-13.27,38.718-13.27,46.411,0,5.253,3.646,4.919,8.519,4.919,2.835,0,7.41.072,9.993-2.622,7.009-7.31,13.058-40.44,13.058-46.419,0-4.255-.306-5.732-8.307-5.732m52.742-1.475c0,12.626-12.45,40.346-16.452,48.048-16.728,32.2-39.076,31.981-64.3,31.981-12.329,0-39.806.139-39.806-22.96,0-10.333,9-29.272,16.38-47.227,3.142-7.639,16.525-33.293,62.086-33.293,18.792,0,42.1,2.955,42.1,23.451" transform="translate(-158.812 -802.625)"/>
</svg>
