<?xml version="1.0" encoding="utf-8"?>
<!-- Generator: Adobe Illustrator 16.0.0, SVG Export Plug-In . SVG Version: 6.00 Build 0)  -->
<!DOCTYPE svg PUBLIC "-//W3C//DTD SVG 1.1//EN" "http://www.w3.org/Graphics/SVG/1.1/DTD/svg11.dtd">
<svg version="1.1" id="Layer_1" xmlns="http://www.w3.org/2000/svg" xmlns:xlink="http://www.w3.org/1999/xlink" x="0px" y="0px"
	 width="841.889px" height="255.983px" viewBox="0 169.499 841.889 255.983" enable-background="new 0 169.499 841.889 255.983"
	 xml:space="preserve">
<path fill="#3C4682" d="M294.593,425.346V169.471h59.876v96.604h47.946v-96.604h58.561v255.875h-58.561V318.842h-47.946v106.504
	H294.593z M502.559,425.346V169.471H641.67v49.663h-79.574v46.942h73.445v51.461h-73.445v55.693h79.574v52.116H502.559z
	 M678.819,425.346V169.471h58.806c16.775,0,31.015,0.785,42.646,2.381c11.616,1.584,21.938,4.881,30.961,9.866
	c8.976,4.994,16.045,12.643,21.264,22.801c5.159,10.202,7.947,23.681,8.344,40.507c0,21.238-4.658,39.047-13.904,53.458
	c-9.25,14.419-23.191,23.257-41.913,26.482c-10.242,1.592-25.567,2.319-45.986,2.319v98.061H678.819z M739.035,279.712
	c8.341,0,15.157-0.513,20.479-1.464c5.385-1.034,9.921-3.418,13.593-7.225c3.752-3.789,6.08-9.524,7.113-17.172
	c0.491-4.48,0.737-7.781,0.737-9.874c0-11.507-3.295-19.053-9.883-22.613c-6.632-3.579-17.296-5.452-32.039-5.624V279.712z"/>
<polygon fill-rule="evenodd" clip-rule="evenodd" fill="#3C4682" points="189.034,169.443 174.575,169.482 122.884,315.822 
	157.122,306.215 115.274,425.482 256.709,425.482 256.819,169.443 "/>
<polygon fill-rule="evenodd" clip-rule="evenodd" fill="#C80014" points="0.302,169.499 0,425.482 77.066,425.482 124.046,288.786 
	93.301,300.118 138.89,169.499 "/>
</svg>
