<?xml version="1.0" encoding="utf-8"?>
<!-- Generator: Adobe Illustrator 22.1.0, SVG Export Plug-In . SVG Version: 6.00 Build 0)  -->
<svg version="1.1" id="Layer_1" xmlns="http://www.w3.org/2000/svg" xmlns:xlink="http://www.w3.org/1999/xlink" x="0px" y="0px"
	 width="132px" height="73px" viewBox="0 0 132 73" style="enable-background:new 0 0 132 73;" xml:space="preserve">
<style type="text/css">
	.st0{fill:#C0B460;}
</style>
<g>
	<path class="st0" d="M26.3,39.4c0-0.3,0.2-0.6,0.5-0.6c0.5,0,0.9,0.5,1.7,1c1.6,1,3.1,1.4,5,1.4c2,0,3.1-0.8,3.1-1.8
		c0-1.2-1.3-1.8-3.9-2.6c-1.8-0.6-3.1-1-3.9-1.5c-1.1-0.7-1.6-1.6-1.6-2.7c0-2,1.7-3.4,4.4-3.4c1.3,0,2,0.2,2.3,0.2s0.4-0.1,0.6-0.4
		c0.1-0.2,0.3-0.4,0.5-0.4c0.3,0,0.7,0.3,1.1,0.8l1.5,1.8c0.4,0.4,0.6,0.7,0.6,1c0,0.3-0.2,0.5-0.5,0.5c-0.4,0-0.9-0.4-1.7-0.9
		c-1-0.6-1.9-0.9-2.9-0.9c-1.3,0-2,0.4-2,1.1c0,1,1.6,1.1,4.2,1.9c3.3,1,4.8,2.4,4.8,4.9s-2,4.3-5.7,4.3c-2.3,0-3.7-0.5-4.2-0.5
		c-0.4,0-0.5,0.9-1.1,0.9c-0.4,0-0.6-0.3-1-0.9l-1.4-2.3C26.4,40,26.3,39.7,26.3,39.4"/>
	<path class="st0" d="M41.9,32.7c1.3-2.1,3.7-3.3,6.1-3.3c2,0,3.8,0.8,5.2,2.2s2.2,3.3,2.2,5.4c0,3.9-2.7,6.5-7.3,6.5
		c-4.7,0-7.4-2.4-7.4-6.3C40.7,35.5,41.1,34,41.9,32.7 M48,41.5c2,0,3.4-1.7,3.4-4.7c0-3.5-1.5-5.8-3.4-5.8c-1,0-1.7,0.6-2.4,1.7
		c-0.6,1-1,2.5-1,4C44.6,39.7,46,41.5,48,41.5"/>
	<path class="st0" d="M54.7,42.3c0-0.6,0.5-0.6,0.9-0.8c0.3-0.2,0.4-0.4,0.4-0.8v-8.6c0-0.5-0.1-0.7-0.4-0.9
		c-0.4-0.2-0.9-0.2-0.9-0.8c0-0.6,0.4-0.8,1.1-0.8h3.7c0.8,0,1.1,0.2,1.1,0.8c0,0.6-0.5,0.6-0.9,0.8c-0.3,0.2-0.4,0.4-0.4,0.9v8.3
		c0,0.5,0.3,0.8,0.8,0.8h2c1,0,1.8-0.2,2.7-0.8c0.8-0.5,1.2-1,1.7-1c0.3,0,0.5,0.2,0.5,0.6c0,0.3-0.1,0.5-0.3,0.7l-1.5,2.5
		c-0.3,0.4-0.5,0.7-0.8,0.7c-0.4,0-0.6-0.8-1.5-0.8h-7C55.1,43.1,54.7,42.9,54.7,42.3"/>
	<path class="st0" d="M70,42c-2.1-1.2-3.2-3.1-3.2-5.5c0-1.9,0.7-3.7,2.1-5s3.4-2.1,5.6-2.1c1,0,1.7,0.2,2.4,0.2
		c0.6,0,0.6-0.6,1.1-0.6c0.4,0,0.5,0.5,0.8,1.3l0.5,1.3c0.3,0.8,0.5,1.4,0.5,1.6c0,0.3-0.2,0.5-0.4,0.5c-0.4,0-0.7-0.5-1.3-1
		c-1.1-1-2.2-1.5-3.4-1.5c-2.4,0-4.1,2-4.1,4.9c0,3.2,1.7,5.2,4.5,5.2c1.1,0,1.6-0.3,1.6-1.1v-1.7c0-0.5-0.1-0.7-0.4-0.8
		c-0.4-0.2-0.8-0.2-0.8-0.8s0.3-0.8,1-0.8H80c0.7,0,1.1,0.2,1.1,0.8s-0.4,0.6-0.8,0.8c-0.3,0.2-0.4,0.4-0.4,0.8v2.2
		c0,0.5,0.1,0.7,0.4,0.9c0.4,0.2,0.9,0.3,0.9,0.8c0,0.6-0.4,0.8-1.1,0.8h-3.5C74,43.1,71.8,43,70,42"/>
	<path class="st0" d="M81.9,42.4c0-0.7,0.5-0.7,0.9-0.9c0.5-0.2,0.8-0.8,1.1-1.6l4.3-9.7c0.3-0.6,0.2-0.6,0.8-0.6h1.6
		c0.5,0,0.5,0,0.8,0.7l3.4,9.6c0.3,1,0.5,1.5,1.2,1.8c0.4,0.2,0.8,0.3,0.8,0.8s-0.3,0.6-0.8,0.6h-4.1c-0.7,0-1-0.1-1-0.7
		c0-0.3,0.1-0.5,0.4-0.6s0.5-0.1,0.5-0.5c0-0.2-0.2-0.9-0.5-1.3c-0.4-0.5-0.7-0.6-1.4-0.6h-2.2c-0.7,0-1.2,0.1-1.4,0.4
		c-0.3,0.3-0.7,1.1-0.7,1.6c0,0.2,0.1,0.3,0.4,0.4c0.4,0.2,0.6,0.4,0.6,0.7c0,0.4-0.3,0.7-0.8,0.7h-3.3
		C82.2,43.1,81.9,42.9,81.9,42.4 M87.3,37.2c0,0.4,0.4,0.5,1.2,0.5c1.3,0,2-0.2,2-0.5c0-0.2,0-0.3-0.1-0.4l-1.1-3.3
		c-0.1-0.2-0.2-0.3-0.2-0.3c-0.1,0-0.2,0.1-0.3,0.3l-1.3,3.4C87.4,37,87.3,37.1,87.3,37.2"/>
	<path class="st0" d="M102.3,41.5c0.4,0.2,0.9,0.2,0.9,0.8s-0.4,0.8-1.1,0.8h-3.6c-0.7,0-1.1-0.2-1.1-0.8s0.5-0.6,0.9-0.8
		c0.3-0.2,0.4-0.4,0.4-0.9V32c0-0.5-0.1-0.7-0.4-0.9c-0.4-0.2-0.9-0.2-0.9-0.8c0-0.6,0.4-0.8,1.1-0.8h4.5c2.1,0,3.8,0.2,5.3,1.2
		c1.6,1,2.5,2.6,2.5,4.2c0,1.8-1.1,3-3.2,3.7l1.7,2.1c0.4,0.5,0.7,0.8,1.3,1c0.4,0.2,0.7,0.3,0.7,0.7s-0.3,0.7-1,0.7H106
		c-0.5,0-0.8-0.3-0.8-0.7c0-0.9,0.9-0.8,0.9-1s-0.6-0.9-1.8-2.1c-1.1,0.1-1.7-0.1-2-0.1c-0.4,0-0.5,0.2-0.5,0.6v0.8
		C101.9,41.1,102,41.4,102.3,41.5 M103.5,37.8c2.1,0,3.3-1.1,3.3-3.2c0-2.1-1.2-3.3-3.3-3.3c-1.2,0-1.6,0.3-1.6,1.1v3.7
		C101.9,37.4,102.2,37.8,103.5,37.8"/>
	<path class="st0" d="M48.8,46.2c3.6,7.3,11.1,12.3,19.7,12.3s16.1-5,19.7-12.3H48.8z"/>
	<path class="st0" d="M88.1,26.3c-3.6-7.4-11-12.4-19.7-12.4c-8.6,0-16.1,5.1-19.7,12.4H88.1z"/>
	<path class="st0" d="M96.9,26.3c-4-12-15.3-20.6-28.5-20.6C55.2,5.7,44,14.3,40,26.3h-5C39.2,11.6,52.6,0.9,68.5,0.9
		S97.8,11.6,102,26.3H96.9z"/>
	<path class="st0" d="M96.9,46.2c-4.1,11.9-15.3,20.5-28.4,20.5S44.1,58.1,40,46.2h-5c4.3,14.6,17.6,25.3,33.4,25.3
		s29.2-10.7,33.4-25.3H96.9z"/>
	<path class="st0" d="M12.2,59.2c0,1.9-3.8,3.8-5.5,3.7c0-0.2,0-0.4,0.1-0.7c1.2-0.3,4.7-1.4,4.7-3.1c0-0.5-0.5-0.7-0.9-0.7
		c-1.7,0-5.2,2.1-5.2,4c0,2.9,4.8,2.2,4.8,5.3c0,2.9-3.4,3.5-5.6,3.5C3.2,71.3,1,71,1,69.5c0-1.4,1.7-2.1,3.7-2.1c1,0,2,0.2,2.9,0.5
		c0,0.1-0.1,0.7-0.2,0.7c-0.3,0-1.8-0.4-2.9-0.4c-0.8,0-2.8,0.3-2.8,1.3c0,1.1,2,1.1,2.8,1.1c1.7,0,4.8-0.3,4.8-2.6
		c0-2.5-4.8-2.2-4.8-5.1c0-2.7,3.6-5,6-5C11.4,57.8,12.2,58.2,12.2,59.2"/>
	<path class="st0" d="M14.8,64.5l-2.4,5.3c-0.1,0.3-0.2,0.5-0.2,0.5s0,0.1,0.1,0.1c0.3,0,3.1-2.2,3.1-2.2l0.2-0.1
		c0.1,0,0.1,0.3,0.1,0.5c0,0.4-3.2,2.6-3.9,2.6c-0.4,0-0.6-0.1-0.6-0.4c0-0.5,0.9-2.3,1.1-2.8l0,0c-0.2,0.2-1.1,1.1-1.2,1.1
		c-0.1,0-0.2-0.1-0.2-0.4c0-0.4,2.1-2,2.2-2.4l0.8-1.8C13.9,64.5,14.8,64.5,14.8,64.5z M14.3,62.6c0-0.4,0.3-0.9,0.7-0.9
		c0.3,0,0.4,0.3,0.4,0.5c0,0.4-0.2,0.9-0.7,0.9C14.4,63.1,14.3,62.9,14.3,62.6"/>
	<path class="st0" d="M16.7,69.3L16.7,69.3c0.9-0.9,4.9-5,5.9-5c0.3,0,0.5,0.2,0.5,0.4c0,0.2-2,4.5-2.4,5.3c0,0.1,0,0.2,0.1,0.2
		c0.5,0,2.9-2.1,3.2-2.3c0,0,0.1,0,0.1,0.2c0,0.3,0,0.5-0.3,0.8c-0.5,0.5-2.8,2.2-3.6,2.2c-0.4,0-0.6-0.1-0.6-0.6s2.2-4.6,2.2-4.9
		c0-0.1,0-0.2-0.1-0.2s-1.9,1.5-3.2,2.8l-1.8,1.9c-0.3,0.3-0.9,1-1.1,1c-0.2,0-0.4-0.1-0.4-0.3c0.1-0.5,0.8-2,1.1-2.7l0.1-0.2
		c0,0-1,1-1.1,1s-0.2-0.1-0.2-0.4c0-0.4,1.8-1.6,2.2-2.5s0.5-1.6,1.2-1.6c0.2,0,0.3,0,0.3,0.2s-0.2,0.4-0.2,0.5L16.7,69.3z"/>
	<path class="st0" d="M28.2,64.3c0.6,0,1.4,0.2,1.4,1c0,0.1-0.5,1.9-0.9,1.9s-0.4-0.2-0.4-0.3c0-0.4,0.6-1.1,0.6-1.5
		s-0.4-0.5-0.7-0.5c-0.7,0-3.6,2-3.6,4.1c0,0.9,0.2,1.5,1.2,1.5c1.6,0,4-2.4,4.1-2.4c0.2,0,0.2,0.3,0.2,0.3c0,0.2,0,0.3-0.2,0.5
		c-1,0.8-2.4,2.3-4.5,2.3c-1.2,0-1.5-1-1.5-2.6C23.9,66.7,26.9,64.3,28.2,64.3"/>
	<path class="st0" d="M34,64.3c0.8,0,1.3,0.4,1.3,1c0,1.8-1.9,3.3-4.2,3.3h-0.7c-0.1,0.9,0,1.9,1.2,1.9c2,0,4.2-2.5,4.4-2.5
		c0.1,0,0.2,0.3,0.2,0.3c0,0.3-0.1,0.4-0.3,0.6c-0.9,0.7-2.5,2.3-4.5,2.3c-1.5,0-1.7-1.1-1.7-2.7C29.6,66.7,32.5,64.3,34,64.3
		 M33.9,64.9c-1,0-3.2,2-3.3,3.1c0.2,0,0.4,0.1,0.5,0.1c1.7,0,3.4-1.3,3.4-2.6C34.5,65.1,34.2,64.9,33.9,64.9"/>
	<path class="st0" d="M98.3,71.3c1.7-2.6,2.9-5.5,4.2-8.2l0,0c-0.2,0.3-1.5,1.1-1.8,1.1c-0.1,0-0.2-0.2-0.2-0.3
		c0-0.2,0.2-0.4,0.5-0.6c0.2-0.1,0.7-0.3,1.8-1.3c0.4-0.4,0.7-1.6,1.5-1.6c0.2,0,0.3,0.2,0.3,0.3c0,0.2-0.2,0.7-0.7,1.2
		c-0.4,0.4-0.5,0.8-0.8,1.3c-1.5,3.6-2.6,6-3.9,8L98.3,71.3z"/>
	<path class="st0" d="M107.6,65.5c0,0.7,0.3,1.1,1,1.1c0.9,0,1.9-1,2.4-1.7c0.1,0.1,0.3,0.3,0.3,0.4c0,0.4-1.4,1.9-2.9,1.9
		c-1,0-1.6-0.8-1.6-1.8c0-2.4,2.2-5.2,4.7-5.2c1.4,0,2.1,0.8,2.1,2.2c0,2.9-3.8,7.5-7.1,9.8c-0.2,0.1-0.4,0.3-0.6,0.3
		s-0.4-0.1-0.4-0.3c0-0.1,0.2-0.3,0.5-0.5c2.4-1.7,6.8-6.4,6.8-9.4c0-0.9-0.5-1.4-1.3-1.4C109.5,61,107.6,63.7,107.6,65.5"/>
	<path class="st0" d="M120.4,63.6c0.3-0.6,0.7-1.3,1-2c0.1-0.1,0.2-0.2,0.3-0.2c0.2,0,0.3,0.1,0.3,0.2c0,0.2-2.6,5.2-2.6,5.2
		c0,0.2,0.9,0.2,1,0.2c0.2,0,0.5,0,0.7,0c0.1,0,0.3,0,0.3,0.1c0,0.2-0.2,0.6-0.6,0.6c-0.5,0-1.1-0.1-1.7-0.1l-1.3,3
		c-0.1,0.2-0.2,0.6-0.5,0.6c-0.2,0-0.3-0.1-0.3-0.3c0-0.6,1.2-2.7,1.4-3.4c-0.7-0.1-2.1-0.3-2.9-0.3c-0.4,0-0.8,1.1-1.5,1.1
		c-0.2,0-0.4-0.1-0.4-0.4c0-0.5,0.7-1,1.1-1.2c0.5-0.3,0.4-0.3,0.7-0.7c1.5-2,2.7-5.4,2.8-5.7c0.2-0.4,0.2-0.6,0.6-0.6
		c0.2,0,0.4,0.1,0.4,0.3c0,0.3-2,4.6-3.3,6.6c0.8,0.1,1.7,0.3,2.6,0.3c0.3,0,0.3,0,0.5-0.3L120.4,63.6z"/>
	<path class="st0" d="M124,62.2c0-0.7,1.1-1.3,1.1-1.9c0-0.1,0.3-0.1,0.4-0.1s0.3,0,0.4,0s0,0.1,0.1,0.1s0.5-0.1,1-0.1
		c0.3,0,1.4,0.2,2.2,0.2c0.5,0,0.9-0.1,1.4-0.1c0.3,0,0.4,0,0.4,0.1c0,0.3,0,0.4-0.6,1.2c-1.4,2-2,3.1-2.8,5
		c-0.8,1.7-1.4,3.2-2.2,4.4c-0.2,0.3-0.3,0.4-0.7,0.4c-0.1,0-0.4-0.1-0.4-0.2s0.7-1.2,0.8-1.4c1.8-3.4,2.1-4.8,4.7-8.6
		c-1,0.1-2-0.2-3-0.2c-0.4,0-0.7,0-1,0.1c-0.2,0.1-0.2,0.1-0.3,0.3c-0.1,0.3-0.7,1.3-1.1,1.3C124.1,62.7,124,62.4,124,62.2"/>
	<path class="st0" d="M116.4,31.8c0,1.3-1,2.3-2.2,2.3s-2.2-1-2.2-2.3c0-1.2,1-2.2,2.2-2.2C115.5,29.5,116.4,30.5,116.4,31.8
		 M112.3,31.8c0,1.1,0.8,1.9,1.9,1.9c1,0,1.9-0.9,1.9-1.9c0-1.1-0.8-1.9-1.9-1.9C113.2,29.9,112.3,30.7,112.3,31.8 M115.3,33H115
		l-0.7-1.2h-0.6V33h-0.3v-2.5h1.1c0.2,0,0.4,0,0.6,0.1s0.3,0.3,0.3,0.5c0,0.5-0.3,0.7-0.8,0.7L115.3,33z M114.2,31.6
		c0.3,0,0.9,0.1,0.9-0.5c0-0.4-0.3-0.4-0.6-0.4h-0.7v0.9H114.2z"/>
</g>
</svg>
