<svg width="164" height="30" viewBox="0 0 164 30" fill="none" xmlns="http://www.w3.org/2000/svg">
<path d="M34.5862 0C31.6281 0 28.9545 0.85389 26.736 2.27704C27.4755 2.8463 28.1013 3.47249 28.6701 4.1556C30.3767 3.18786 32.4245 2.67552 34.5862 2.67552C41.5831 2.67552 46.5321 7.79886 46.5321 14.9715C46.5321 22.0873 41.5831 27.1537 34.5862 27.1537C27.7031 27.1537 22.7541 22.0873 22.7541 14.9715C22.7541 12.8083 23.2091 10.8159 24.0624 9.05123C23.5504 8.25427 22.9247 7.57116 22.1283 7.0019C20.7062 9.33586 19.9098 12.0683 19.9098 14.9715C19.9098 23.6243 26.1103 29.9431 34.6431 29.9431C43.119 29.9431 49.4332 23.5104 49.4332 14.9715C49.3763 6.43264 43.0052 0 34.5862 0ZM71.1633 18.2163C71.1633 19.5256 70.9927 20.7211 70.7083 21.8027C69.6843 25.2751 66.8401 27.2106 63.0288 27.2106C59.2175 27.2106 56.3732 25.2751 55.3493 21.8027C55.0648 20.778 54.8942 19.5256 54.8942 18.2163V0.56926H52.0499V18.5009C52.0499 19.981 52.2775 21.8027 52.6757 22.9412C54.0409 27.3245 57.6816 29.9431 63.0857 29.9431C68.4897 29.9431 72.0166 27.2676 73.4956 22.8843C73.8938 21.6888 74.0645 19.9241 74.0645 18.444V0.56926H71.2202V18.2163H71.1633ZM21.3319 25.5598C20.5924 25.9013 19.796 26.129 18.8859 26.2998C17.5206 26.5844 15.9847 26.6983 14.2782 26.6983H5.57473V3.24478H14.2782C15.9847 3.24478 17.4637 3.30171 18.8859 3.64326C24.4037 4.83871 27.4186 8.82353 27.4186 15.0285C27.4186 17.3055 27.0204 19.2979 26.2241 20.9488C26.736 21.8027 27.4186 22.4858 28.1013 23.112C29.4665 20.8349 30.2629 18.0455 30.2629 15.0285C30.2629 7.51423 26.3378 2.56167 19.5685 1.08159C18.0895 0.740038 16.4967 0.56926 14.7332 0.56926H2.73047V29.3738H14.7332C16.4967 29.3738 18.0895 29.3169 19.6254 28.9753C20.9337 28.6907 22.1283 28.2353 23.266 27.666C22.5265 27.0968 21.8439 26.2998 21.3319 25.5598ZM157.913 13.9469L154.898 12.4668C152.339 11.2144 150.86 9.67742 150.86 7.2296C150.86 4.55408 152.737 2.6186 155.638 2.6186C158.596 2.6186 160.302 4.72486 160.758 8.02657H163.431C162.919 2.50474 159.677 0 155.581 0C151.087 0 147.958 3.24478 147.958 7.34345C147.958 11.1006 150.234 13.4915 153.818 15.1992L156.889 16.6224C159.051 17.6471 161.042 19.2979 161.042 22.2011C161.042 25.1613 158.937 27.1537 155.809 27.1537C152.452 27.1537 150.006 25.2182 149.494 20.6072H146.65C147.105 26.9829 150.746 29.8861 155.752 29.8861C160.644 29.8861 163.943 26.5844 163.943 22.0304C163.943 17.4763 160.985 15.4269 157.913 13.9469ZM132.884 0.56926L121.734 29.3738H124.92L128.333 20.2657H140.165L143.635 29.3738H146.934L135.728 0.56926H132.884ZM139.198 17.5332H129.357L132.656 8.70968C133.225 7.17268 133.737 5.57875 134.249 4.04175C134.761 5.57875 135.273 7.17268 135.899 8.70968L139.198 17.5332ZM110.983 0.56926H108.139V29.3738H119.686L120.824 26.6983H111.04V0.56926H110.983ZM88.5702 16.167V18.8425H102.166C101.142 23.852 96.9323 27.1537 91.4145 27.1537C84.4176 27.1537 79.5824 22.0304 79.5824 14.9146C79.5824 7.79886 84.4745 2.67552 91.4145 2.67552C96.0222 2.67552 99.8335 5.06641 101.483 9.22201H104.555C102.848 3.52941 97.6718 0 91.4145 0C82.9955 0 76.7381 6.43264 76.7381 14.9146C76.7381 23.6812 82.7679 29.9431 91.4145 29.9431C99.5491 29.9431 105.408 24.0797 105.351 16.167H88.5702Z" fill="black"/>
</svg>
