<?xml version="1.0" encoding="UTF-8"?>
<svg id="Layer_1" xmlns="http://www.w3.org/2000/svg" version="1.1" viewBox="0 0 88.9 85.4">
  <!-- Generator: Adobe Illustrator 29.6.1, SVG Export Plug-In . SVG Version: 2.1.1 Build 9)  -->
  <defs>
    <style>
      .st0 {
        fill: #ffe106;
      }
    </style>
  </defs>
  <path class="st0" d="M68.8,6.3c-4.1,3.8-3,8.4-3.9,13s-2.9,5-2.9,5.3c0,.9,1.2,2,2.2,1.9,6.8-.8,10.8-9.8,18.1-8.4-8.3,2.1-7.4,12.2-14.9,14.6.3,3.5,4,3,6.7,2.8,4.1-.4,9.2-4.4,12.8-1.2-7.4.2-10.2,8.4-17.6,8.1v2.7c5.1,3.5,12.5,1.5,17.2,4.9s1.1,0,.9,1.2c-5.3-2-10.6,1.1-15.6,1.4s-5.4-1.5-5.7,1.6c3.9,6.2,12.6,5.7,15.2,12.8-.4.3-3.1-2-3.9-2.4-3.3-1.6-6.7-1.2-10.1-2s-8.9-5.4-7,.9,6.7,8,7.8,13.1.4,1.2-.6,1.1c-3.3-6.2-11.8-5.8-14.2-12.5-1.2.2-2.5.3-2.8,1.6-1.2,6.4,3.9,12,1.9,18.3-1.5.3-.8-1.9-1.2-3.2-1.5-4.5-4.7-5.7-6.4-9.3s-1-3.8-1.9-5.6l-2.5.3c-3.4,4.5-1.1,11.8-4.4,15.9s-.8,1.1-1.6,1c2.9-6.6-3.8-12.1-1.1-18.8-1.9-2.3-4.5.3-5.9,1.9-2.9,3.4-3.6,9.6-8.8,10.9.4-1.7,1.7-2.7,2.3-4.4,1.2-3.1.7-6.2,1.7-9.4s3.4-4.7,1.3-6.2l-.7-.2c-6.8.3-10.2,9-17.1,7.9,5.1-2,6.1-7.6,9.3-11.1,1.7-1.9,8.9-5.6.3-5.6s-10.3,3.7-15.2,1.4l5-2c4.1-3,7.1-6.4,12.6-6.6,1-2.8-2.9-3.8-5.1-4.4-4.5-1.2-9.8.3-13-3.9,7,1.9,12.9-3.3,19.9-.9.2-1.3,1.3-1.8.5-3-3.4-5.2-11.3-5.5-14-11.4,2.2.3,3.8,2,6,2.6,4.3,1,8.9.3,12.9,3.4l1.8-1.8c-1-6.9-9.5-10-8.4-17.1,1.7,5.9,7.8,6.5,11.6,9.8s2.9,4,3.1,4.1c.9.5,2.5-.6,2.7-1.6,1.1-6.1-3.7-11.3-1.9-17.4.9-1,2.3,4.3,2.7,5,2.1,4,6.7,6.8,6.8,12.2,2.8,2.2,4.1-3.1,4.6-5.1,1.1-4.3.2-9.3,3.9-12.5-2.2,5.8,1.9,10.7,1.9,16s-1.3,3.9.3,4.4c7.6-1.2,6.9-12,14.1-13.9l.3-.2Z"/>
</svg>