<?xml version="1.0" encoding="utf-8"?>
<!-- Generator: Adobe Illustrator 27.1.1, SVG Export Plug-In . SVG Version: 6.00 Build 0)  -->
<svg version="1.1" id="Ebene_1" xmlns="http://www.w3.org/2000/svg" xmlns:xlink="http://www.w3.org/1999/xlink" x="0px" y="0px"
	 viewBox="0 0 911 448" style="enable-background:new 0 0 911 448;" xml:space="preserve">
<style type="text/css">
	.st0{fill:#2870ED;}
	.st1{fill:#FFFFFF;}
</style>
<g>
	<path class="st0" d="M876,447.98H35c-19.25,0-35-15.75-35-35v-378c0-19.25,15.75-35,35-35h841c19.25,0,35,15.75,35,35v378
		C911,432.23,895.25,447.98,876,447.98z"/>
	<g>
		<g>
			<path class="st1" d="M199.45,158.4c0-5.57,2.48-8.51,8.21-8.51h56.35v10.84c0,5.57-2.94,8.21-8.82,8.21H221.9v20.59h36.38v17.8
				H221.9v22.76h42.88v10.84c0,5.57-2.94,8.05-8.67,8.05h-48.46c-5.73,0-8.21-2.94-8.21-8.51V158.4z"/>
			<path class="st1" d="M273.92,158.24c0-5.42,2.32-8.36,8.05-8.36h32.67c23.22,0,36.23,12.85,36.23,31.89
				c0,13.78-6.81,23.84-19.82,28.49l22.91,34.52c0.77,1.39,1.39,2.79,1.39,4.18h-20.13c-4.18,0-5.73-0.31-8.36-4.49l-19.04-30.65
				h-11.46v35.14h-22.45V158.24z M296.36,168.93v26.01h16.72c9.44,0,15.95-3.41,15.95-13.16c0-9.44-6.5-12.85-15.95-12.85H296.36z"
				/>
			<path class="st1" d="M391.26,149.11c19.97,0,31.43,2.17,31.43,10.99v8.51h-29.26c-8.67,0-12.08,2.63-12.08,7.59
				c0,13.47,46.6,11.15,46.6,44.28c0,15.79-9.75,29.26-38.08,29.26c-17.8,0-32.51-2.48-32.51-10.99v-8.52h33.6
				c8.82,0,13.16-2.79,13.16-8.51c0-14.55-46.44-12.38-46.44-46.13C357.67,160.72,368.19,149.11,391.26,149.11z"/>
			<path class="st1" d="M495.91,149.88v11.15c0,5.42-3.1,7.9-8.82,7.9H473v80.04h-22.45v-80.04h-22.91v-11.15
				c0-5.42,2.94-7.9,8.67-7.9H495.91z"/>
			<path class="st1" d="M503.03,158.4c0-5.57,2.48-8.51,8.21-8.51h56.35v10.84c0,5.57-2.94,8.21-8.82,8.21h-33.29v20.59h36.38v17.8
				h-36.38v22.76h42.88v10.84c0,5.57-2.94,8.05-8.67,8.05h-48.46c-5.73,0-8.21-2.94-8.21-8.51V158.4z"/>
		</g>
		<g>
			<path class="st1" d="M596.53,222.42h88.43v-11.87H596.7c-0.07-1.37-0.03-28.14-0.21-40.51c-0.15-10.55,7.05-20.82,20.66-20.59
				c24.8,0.41,49.63,0.41,74.43-0.02c10.69-0.19,20.42,7.66,20.41,20.43c0,1.78-0.01,3.96-0.01,6.27h-88.51v11.59l88.51-0.02
				c0,1.59,0.03,28.4-0.01,40.87c-0.04,12.55-8.08,20.44-20.78,20.45c-24.6,0-49.2,0-73.8,0c-12.8,0-20.81-7.98-20.86-20.77
				C596.53,226.48,596.53,224.7,596.53,222.42"/>
			<path class="st1" d="M654.36,137.06c-10.46-0.01-18.92-8.62-18.86-19.2c0.05-10.4,8.55-18.85,18.93-18.82
				c10.37,0.02,18.85,8.51,18.87,18.9C673.32,128.5,664.83,137.07,654.36,137.06"/>
		</g>
		<g>
			<path class="st1" d="M199.48,275.25c0-2.91,1.18-4.55,4.19-4.55h16.48c13.3,0,20.49,5.1,20.49,15.48
				c0,6.28-3.01,10.93-9.38,12.84c7.74,2,11.56,6.74,11.56,14.02c0,10.65-7.19,15.94-20.49,15.94h-18.67c-3,0-4.19-1.55-4.19-4.55
				V275.25z M220.15,295.1c6.19,0,10.38-1.73,10.38-7.83c0-6.19-4.46-7.92-11.11-7.92h-9.93v15.75H220.15z M221.7,320.33
				c6.56,0,11.02-1.91,11.02-8.56c0-6.28-4.46-8.47-11.02-8.47h-12.2v17.03H221.7z"/>
			<path class="st1" d="M279.34,328.98c-3.28,0-4.55-1.73-4.55-3.92v-1.28c-3.92,4.1-9.02,5.65-13.29,5.65
				c-8.65,0-14.02-5.01-14.02-12.75c0-11.38,12.48-14.48,27.32-15.12v-3.82c0-5.74-4.1-7.47-9.93-7.47h-14.02v-2.64
				c0-4.37,5.46-4.64,15.57-4.64c11.29,0,17.94,4.74,17.94,14.3v31.69H279.34z M274.79,307.31c-12.48,0.18-17.21,2.64-17.21,8.01
				c0,4.74,3.46,6.37,8.1,6.37c3.37,0,6.83-1.27,9.11-3.28V307.31z"/>
			<path class="st1" d="M294.36,328.98v-45.53h5.01c3.37,0,4.55,1.73,4.55,3.92v1.37c3.92-4.1,8.65-5.74,13.39-5.74
				c9.47,0,14.02,5.74,14.02,14.12v31.87h-9.56v-31.42c0-5.01-3.19-7.01-8.29-7.01c-3.46,0-7.01,1.46-9.56,3.37v35.06H294.36z"/>
			<path class="st1" d="M351,303.75l17.12-18.21c1.18-1.64,1.91-2.09,3.92-2.09h8.1c0,0.73-0.27,1.37-0.82,2l-18.76,19.31
				l18.85,22.22c0.55,0.64,0.73,1.37,0.73,2h-8.83c-2.19,0-2.91-0.82-4.28-2.73L351,307.31v21.67h-9.56v-55.55
				c0-2.91,1.09-4.55,4.1-4.55H351V303.75z"/>
		</g>
	</g>
</g>
</svg>
