<?xml version="1.0" encoding="utf-8"?>
<!-- Generator: Adobe Illustrator 25.0.1, SVG Export Plug-In . SVG Version: 6.00 Build 0)  -->
<svg version="1.1" id="Layer_1" xmlns="http://www.w3.org/2000/svg" xmlns:xlink="http://www.w3.org/1999/xlink" x="0px" y="0px"
	 viewBox="0 0 386 93.5" style="enable-background:new 0 0 386 93.5;" xml:space="preserve">
<style type="text/css">
	.st0{fill:#131313;}
</style>
<g id="Calque_2">
	<g id="Calque_1-2">
		<path class="st0" d="M150.8,93.2h2.6v-5.1h4.9c2.3,0,6,0,6-4s-3.7-4.1-6-4.1h-7.4L150.8,93.2z M153.3,85.8v-3.6h5.4
			c1.5,0,2.8,0.1,2.8,1.8s-1.3,1.8-2.8,1.8H153.3z M167.3,93.2h2.8l1.4-3h7.7l1.4,3h2.8L176.9,80h-3L167.3,93.2z M172.6,88l2.8-6
			l2.8,6H172.6z M189.9,93.3h2.6V88h4.1l3.9,5.2h3.2l-4.1-5.4c2.1,0,3.7-1.7,3.7-3.8c0,0,0-0.1,0-0.1c0-3.2-2.3-3.9-5.4-3.9h-8
			L189.9,93.3z M192.5,85.9v-3.8h5.1c2.1,0,3.2,0.3,3.2,1.9s-1.1,1.9-3.2,1.9L192.5,85.9z M211.5,80h2.6v13.2h-2.6V80z M232.5,84
			c-0.4-1.2-1.5-2.2-4.7-2.2c-1.8,0-3.6,0.4-3.6,1.7c0,0.6,0.3,1.2,3,1.5l3.1,0.5c3,0.4,4.8,1.6,4.8,3.8c0,3.1-3,4.3-6.6,4.3
			c-5.7,0-7.1-2.8-7.4-3.8l2.5-0.8c0.5,1,1.5,2.4,5,2.4c2.1,0,3.9-0.7,3.9-1.8c0-0.8-1-1.4-2.9-1.7l-3.2-0.4
			c-3.1-0.4-4.8-1.8-4.8-3.8c0-3.9,5.2-3.9,6.2-3.9c5.8,0,6.7,2.6,7.1,3.5L232.5,84z M332.8,59.2c1.1,9.2,5.9,7.8,6.2,8.6
			c0,0-18.6,0-18.6-0.1c-0.1-0.3,5.4-0.1,4.3-8.2l-4.9-35.8c-0.2-0.9-0.2-2-0.7-1.8c-0.4,0.2-16.4,38.7-16.4,38.7
			c-0.2,0.6-0.6,1-1.2,0.1c-0.4-0.7-15-32.6-15-32.6c-0.7-1.6-2-4.2-2.2-4.6c-0.4-0.8-1-0.9-0.9,1.8l-3.8,36.3
			c-0.9,6.3,5.1,5.9,5,6.2h-13.1c-0.2-0.3,4.4,0.3,5.4-6.4l4.3-40.1c-0.3-7.8-5.8-7.4-5.8-8h13.9l0.2,0.4l14.7,31.9
			c0.2,0.4,0.3,0.6,0.4,0.8c0.4,0.9,0.4,1.5,0.9,0.3l14.4-33.5h13.3c0.1,0.5-5.4,0.2-5.4,6.9L332.8,59.2z M28.8,66
			c12.8-0.2,12.2-9.8,13.1-9.8l-2.2,11.6H0c0-0.3,7.6-0.4,7.7-5.8V21.4c0-6.6-7.2-6.8-6.8-7.3h22.4c-0.5,0.5-7.8,0.5-7.8,7v42.2
			c0,3.1,3.1,2.6,5.8,2.7H28.8 M113.4,62.3c0.8,6.7,5.9,5,5.9,5.6h-14.4c0-0.7,5.8,0,5.7-6.1V21c0.1-7.1-6.1-7.1-6.2-7.6h14.4
			l29.9,36.8l-0.1-29.8c-0.2-7.2-5.8-6.7-5.8-7.1h15.1c-0.1,0.4-6,0.5-6.3,7.1l-0.1,46.2c0,0,0.5,3.5-1.6,0.7
			c-0.9-1.2-35.9-45.2-35.9-45.2c-0.3-0.4-0.5,0-0.5,1.1v38.5L113.4,62.3z M64.9,41.3c-1.5,0-1.2-0.8-0.7-2.2c0,0,4.9-12.1,5.5-13.6
			c0.8-1.9,1.6-1.5,2.1,0.1l4.9,13.7c0.5,1.5,1.1,2-0.6,2L64.9,41.3 M94,61L73.9,13.7c-1.5-1.6-2,0.2-2,0.2
			c-2,4.5-20.3,48.4-20.3,48.4c-2.5,5.8-5.8,5.2-5.8,5.6h13c0-0.7-7,0.4-4.6-5.7l7-16.9c0.7-1.1,0.8-1.3,2.5-1.3h13
			c1.6,0,1.7,0,2.3,1.6l6.6,16c1.9,6.4-3.9,6-3.8,6.4h18.5c0.2-0.6-2.8,1.3-6.2-6.9 M241.8,4.1l-22,6.7l22-10.8l22.1,10.8L241.8,4.1
			z M241.8,65.8h-0.2c-10.6,0-17.5-9.9-17.5-25.2c0-17.6,7.1-26.1,17.7-26.1l0,0c10.5,0,17.7,8.5,17.7,26.1
			C259.5,55.9,252.2,65.7,241.8,65.8 M241.9,12.4c-15.4-0.3-28,12-28.3,27.4c0,0.2,0,0.5,0,0.7c0,14.5,11,27.4,28.1,27.4
			s28.5-12.9,28.5-27.3c0.1-15.4-12.3-27.9-27.6-28.1C242.3,12.5,242.1,12.5,241.9,12.4 M189.5,65.7c12.4-0.2,18-8.8,19.1-9.2
			c0.6-0.2-6.1,11.2-19.2,11.2c-29.6,0-29.1-26.6-29.1-26.6c0.9-18.7,16.2-29.9,30.8-28.4c2.9,0.3,5.8,0.9,8.5,1.9
			c1.4,0.4,5,2.4,6.4,1.9c1-0.4,1.8-2.5,2-2.6l0.1,14.6c-1,0-4.3-14.1-18.4-14.1c-11.6,0-20.3,13.1-20.1,26
			C169.9,62,185,65.8,189.5,65.7 M358.4,41v13.4v7c0,4.1-0.3,4.6,2.3,4.6h14.7c3.6-0.2,5.9-1.1,7.4-2.3c3.4-2.7,2.6-6.6,3.3-6.8
			l-0.3,10.9h-41.2c-0.2-0.4,6.1,0.7,6.1-8.3V22c0-9-5.8-7.6-5.7-8.3h40.8l0.3,10.8c-0.8-0.1,1.3-8.4-10.8-9.2h-13.5
			c-2.3,0-3.3,0-3.3,4.5v11.6l0,2.6c0,2,0,2.2,2.8,2.2h13.1c6.6,0,5.7-5.9,6.3-5.9v14c-0.6,0,0.3-6.5-6-6.3h-13.2c-2.9,0-3,1-3,3
			L358.4,41z"/>
	</g>
</g>
</svg>
