<svg id="eS8iBcdPECb1" xmlns="http://www.w3.org/2000/svg" xmlns:xlink="http://www.w3.org/1999/xlink" viewBox="0 0 524 389" shape-rendering="geometricPrecision" text-rendering="geometricPrecision">
<style><![CDATA[
#eS8iBcdPECb2 {animation: eS8iBcdPECb2_c_o 6000ms linear 1 normal forwards}@keyframes eS8iBcdPECb2_c_o { 0% {opacity: 0} 10% {opacity: 0} 50% {opacity: 1} 100% {opacity: 1}} #eS8iBcdPECb8 {animation: eS8iBcdPECb8_c_o 6000ms linear 1 normal forwards}@keyframes eS8iBcdPECb8_c_o { 0% {opacity: 0} 33.333333% {opacity: 1} 100% {opacity: 1}} #eS8iBcdPECb14 {animation: eS8iBcdPECb14_c_o 6000ms linear 1 normal forwards}@keyframes eS8iBcdPECb14_c_o { 0% {opacity: 0} 53.333333% {opacity: 0} 86.666667% {opacity: 1} 100% {opacity: 1}} #eS8iBcdPECb25 {animation: eS8iBcdPECb25_c_o 6000ms linear 1 normal forwards}@keyframes eS8iBcdPECb25_c_o { 0% {opacity: 0} 46.666667% {opacity: 0} 80% {opacity: 1} 100% {opacity: 1}} #eS8iBcdPECb30 {animation: eS8iBcdPECb30_c_o 6000ms linear 1 normal forwards}@keyframes eS8iBcdPECb30_c_o { 0% {opacity: 0} 40% {opacity: 0} 73.333333% {opacity: 1} 100% {opacity: 1}} #eS8iBcdPECb36 {animation: eS8iBcdPECb36_c_o 6000ms linear 1 normal forwards}@keyframes eS8iBcdPECb36_c_o { 0% {opacity: 0} 33.333333% {opacity: 0} 63.333333% {opacity: 1} 100% {opacity: 1}} #eS8iBcdPECb48 {animation: eS8iBcdPECb48_c_o 6000ms linear 1 normal forwards}@keyframes eS8iBcdPECb48_c_o { 0% {opacity: 0} 23.333333% {opacity: 0} 56.666667% {opacity: 1} 100% {opacity: 1}}
]]></style>
<defs><linearGradient id="eS8iBcdPECb3-fill" x1="0" y1="18.1424" x2="349.2806" y2="223.0113" spreadMethod="pad" gradientUnits="userSpaceOnUse" gradientTransform="translate(0 0)"><stop id="eS8iBcdPECb3-fill-0" offset="0%" stop-color="#7b19c8"/><stop id="eS8iBcdPECb3-fill-1" offset="100%" stop-color="#8e60b1"/></linearGradient><linearGradient id="eS8iBcdPECb4-fill" x1="-5.6685" y1="27.8994" x2="343.5567" y2="232.7682" spreadMethod="pad" gradientUnits="userSpaceOnUse" gradientTransform="translate(0 0)"><stop id="eS8iBcdPECb4-fill-0" offset="0%" stop-color="#7b19c8"/><stop id="eS8iBcdPECb4-fill-1" offset="100%" stop-color="#8e60b1"/></linearGradient><linearGradient id="eS8iBcdPECb5-fill" x1="-26.5003" y1="63.4098" x2="322.725" y2="268.2787" spreadMethod="pad" gradientUnits="userSpaceOnUse" gradientTransform="translate(0 0)"><stop id="eS8iBcdPECb5-fill-0" offset="0%" stop-color="#7b19c8"/><stop id="eS8iBcdPECb5-fill-1" offset="100%" stop-color="#8e60b1"/></linearGradient><linearGradient id="eS8iBcdPECb6-fill" x1="-46.9144" y1="98.2083" x2="302.3109" y2="303.0772" spreadMethod="pad" gradientUnits="userSpaceOnUse" gradientTransform="translate(0 0)"><stop id="eS8iBcdPECb6-fill-0" offset="0%" stop-color="#7b19c8"/><stop id="eS8iBcdPECb6-fill-1" offset="100%" stop-color="#8e60b1"/></linearGradient><linearGradient id="eS8iBcdPECb7-fill" x1="-66.0006" y1="130.7426" x2="283.2247" y2="335.6125" spreadMethod="pad" gradientUnits="userSpaceOnUse" gradientTransform="translate(0 0)"><stop id="eS8iBcdPECb7-fill-0" offset="0%" stop-color="#7b19c8"/><stop id="eS8iBcdPECb7-fill-1" offset="100%" stop-color="#8e60b1"/></linearGradient><linearGradient id="eS8iBcdPECb9-fill" x1="62.7235" y1="-88.6836" x2="411.9488" y2="116.1853" spreadMethod="pad" gradientUnits="userSpaceOnUse" gradientTransform="translate(0 0)"><stop id="eS8iBcdPECb9-fill-0" offset="0%" stop-color="#7b19c8"/><stop id="eS8iBcdPECb9-fill-1" offset="100%" stop-color="#8e60b1"/></linearGradient><linearGradient id="eS8iBcdPECb10-fill" x1="36.6894" y1="-44.3048" x2="385.9147" y2="160.5651" spreadMethod="pad" gradientUnits="userSpaceOnUse" gradientTransform="translate(0 0)"><stop id="eS8iBcdPECb10-fill-0" offset="0%" stop-color="#7b19c8"/><stop id="eS8iBcdPECb10-fill-1" offset="100%" stop-color="#8e60b1"/></linearGradient><linearGradient id="eS8iBcdPECb11-fill" x1="21.6807" y1="-18.7209" x2="370.906" y2="186.148" spreadMethod="pad" gradientUnits="userSpaceOnUse" gradientTransform="translate(0 0)"><stop id="eS8iBcdPECb11-fill-0" offset="0%" stop-color="#7b19c8"/><stop id="eS8iBcdPECb11-fill-1" offset="100%" stop-color="#8e60b1"/></linearGradient><linearGradient id="eS8iBcdPECb12-fill" x1="14.6033" y1="-6.6566" x2="363.8286" y2="198.2122" spreadMethod="pad" gradientUnits="userSpaceOnUse" gradientTransform="translate(0 0)"><stop id="eS8iBcdPECb12-fill-0" offset="0%" stop-color="#7b19c8"/><stop id="eS8iBcdPECb12-fill-1" offset="100%" stop-color="#8e60b1"/></linearGradient><linearGradient id="eS8iBcdPECb13-fill" x1="-5.6749" y1="28.0244" x2="343.5504" y2="232.8932" spreadMethod="pad" gradientUnits="userSpaceOnUse" gradientTransform="translate(0 0)"><stop id="eS8iBcdPECb13-fill-0" offset="0%" stop-color="#7b19c8"/><stop id="eS8iBcdPECb13-fill-1" offset="100%" stop-color="#8e60b1"/></linearGradient></defs><g id="eS8iBcdPECb2" opacity="0"><path d="M325.9,224.5c-8.2,0-15.1-6.9-15.1-15.1s6.9-15.1,15.1-15.1s15.1,6.9,15.1,15.1c.1,8.1-6.8,15.1-15.1,15.1Z" fill="url(#eS8iBcdPECb3-fill)"/><path d="M269.6,224.5c-21.4,0-38.1-13.4-38.1-35.9c0-19.8,15.1-35.8,37.2-35.8c20.1,0,35.5,14.4,35.5,38.5v5.2h-46.4c1.4,4.4,6.4,8.6,14.7,8.6c3.8,0,12.3-1.8,15.7-4.8L298.7,216c-6.7,5.8-18.9,8.5-29.1,8.5Zm10.5-44.2c-.7-3-3.1-8.2-11.3-8.2-7.8,0-10.3,5.1-11.2,8.2h22.5Z" fill="url(#eS8iBcdPECb4-fill)"/><path d="M177.4,197.4c2.4,3,7.2,4.5,10.6,4.5c6.9,0,12.7-4.8,12.7-13.4c0-8.5-5.8-13.3-12.7-13.3-3.4,0-8.2,1.7-10.6,4.7v17.5Zm0,25.4h-25.4v-94.4h25.5v33.2c5.4-6.5,12.3-8.9,19.2-8.9c16.8,0,30.1,13.2,30.1,35.8c0,23.5-13.6,35.9-30.1,35.9-6.9,0-13.4-2.4-19.2-8.9v7.3h-.1Z" fill="url(#eS8iBcdPECb5-fill)"/><path d="M108.5,224.5c-21.4,0-38.1-13.4-38.1-35.9c0-19.8,15.1-35.8,37.2-35.8c20.1,0,35.5,14.4,35.5,38.5v5.2h-46.3c1.4,4.4,6.4,8.6,14.7,8.6c3.8,0,12.3-1.8,15.7-4.8L137.7,216c-6.8,5.8-19,8.5-29.2,8.5ZM119,180.3c-.7-3-3.1-8.2-11.3-8.2-7.8,0-10.3,5.1-11.2,8.2h22.5Z" fill="url(#eS8iBcdPECb6-fill)"/><path d="M33.5,224.5C20.9,224.5,7.3,220.1,0,214l10.2-17.1c5.4,4.2,17,8.6,24.6,8.6c5.2,0,6.8-1.3,6.8-3c0-6.5-38.8,1.8-38.8-26.7c0-12.3,10.8-23.1,30.6-23.1c11.5,0,21.6,3.5,29.6,8.8l-9.3,16.6c-4.2-3.5-12.2-7.1-20.1-7.1-3.7,0-6.4,1.1-6.4,3c0,5.7,38.8-1.4,38.8,27-.1,13.6-12.2,23.5-32.5,23.5Z" fill="url(#eS8iBcdPECb7-fill)"/></g><g id="eS8iBcdPECb8" opacity="0"><path d="M391,101.9h-25.5v-39.9c0-4.1-2.1-7.6-7.8-7.6s-8.8,3.4-10.5,5.4v42.2h-25.5v-40c0-4.1-2-7.6-7.8-7.6-5.5,0-8.6,3.4-10.3,5.4v42.2h-25.5v-68.5h25.5v7.8c3-3.8,11.6-9.5,22.6-9.5c9.6,0,16.6,3.5,19.7,12c4-5.9,12.9-12,23.9-12c12.6,0,21.1,6.4,21.1,20.5v49.6h.1Z" fill="url(#eS8iBcdPECb9-fill)"/><path d="M264.2,101.9h-25.5v-6.5c-3.8,4.8-12.2,8.2-20.7,8.2-10.2,0-23.5-6.9-23.5-22.5c0-17,13.3-21.8,23.5-21.8c8.9,0,17,2.8,20.7,7.5v-7.1c0-4.8-4.4-8.5-12.7-8.5-6.4,0-13.6,2.5-19,6.6l-8.6-15.7c9.2-7.4,21.9-10.3,32.3-10.3c17,0,33.5,5.9,33.5,28.7v41.4ZM228.7,87c4,0,8.3-1.3,10-3.7v-3.8c-1.7-2.4-6.1-3.7-10-3.7-4.2,0-8.9,1.4-8.9,5.7-.1,4.2,4.6,5.5,8.9,5.5Z" fill="url(#eS8iBcdPECb10-fill)"/><path d="M169.6,101.9h-25.5v-68.4h25.5v7.5c4.2-5,13.2-9.5,20.9-9.5v24.3c-1.3-.4-3.4-.7-5.8-.7-5.4,0-12.3,1.4-15.1,4.8v42Z" fill="url(#eS8iBcdPECb11-fill)"/><path d="M117.2,28.6c-7.9,0-14.3-6.4-14.3-14.3s6.4-14.3,14.3-14.3s14.3,6.4,14.3,14.3-6.4,14.3-14.3,14.3Zm12.7,73.3h-25.5v-68.4h25.5v68.4Z" fill="url(#eS8iBcdPECb12-fill)"/><path d="M65.6,101.9h-59.2v-94.4h57.3c19.5,0,28,13,28,24.1c0,11.7-6.9,19.7-16.1,21.6c10.2,1.6,18,10.9,18,23.1-.1,13.1-9,25.6-28,25.6ZM57,42.3c3,0,5.7-2.3,5.7-5.7c0-3.3-2.7-5.4-5.7-5.4h-22.1v11h22.1v.1Zm.9,35.8c4.1,0,6.6-2.4,6.6-5.9c0-3.4-2.5-6.1-6.6-6.1h-23v12h23Z" fill="url(#eS8iBcdPECb13-fill)"/></g><g id="eS8iBcdPECb14" opacity="0"><path d="M508.3,388.3c-.8,0-1.4-.2-1.7-.5s-.5-.7-.4-1.1.2-.6.4-.8.5-.3.8-.3.5.1.6.3.2.5.3.8.1.5.3.8c.1.2.3.3.6.3.4,0,.8-.3,1.1-.8s.6-1.4.9-2.5.6-2.6.9-4.5l2.5-14.3c.3-1.6,0-2.4-.7-2.4s-1.7.6-2.8,1.9c-.1.1-.2.1-.3,0s-.1-.2,0-.3c.9-1,1.7-1.8,2.5-2.3.7-.5,1.4-.8,2.1-.8.6,0,1,.3,1.1.9.2.6.1,1.6-.2,3L514,379.1c-.4,2.4-.9,4.3-1.3,5.6s-1,2.3-1.7,2.8c-.8.5-1.6.8-2.7.8Zm8.1-31.3c-.5,0-.9-.1-1.2-.4s-.4-.6-.4-1.1c0-.4.1-.8.4-1.1s.7-.4,1.2-.4.9.1,1.1.4c.3.3.4.6.4,1.1.1,1-.4,1.5-1.5,1.5Z"/><path d="M499.6,378c-1.2,0-2.2-.4-3-1.1s-1.3-1.7-1.7-3c-.3-1.2-.3-2.6,0-4.1s.8-2.9,1.6-4.1s1.8-2.2,2.9-2.9c1.2-.7,2.4-1.1,3.7-1.1s2.4.4,3.2,1.1s1.4,1.7,1.6,3c.3,1.2.2,2.6,0,4-.3,1.6-.9,3.1-1.8,4.3s-1.9,2.2-3,2.9c-1.1.6-2.3,1-3.5,1Zm1.4-1c1.2,0,2.2-.5,3.2-1.4s1.6-2.3,1.9-4c.2-.9.2-1.9.2-2.9-.1-1-.2-2-.6-2.9-.3-.9-.8-1.7-1.4-2.3s-1.4-.9-2.3-.9c-1.2,0-2.3.5-3.3,1.5s-1.6,2.3-2,4c-.2,1-.3,2-.2,3s.3,2,.6,2.9c.4.9.9,1.6,1.5,2.2.7.5,1.5.8,2.4.8Z"/><path d="M479.6,377.7c-.3,0-.6,0-.7-.1-.1,0-.2-.1-.2-.2s.1-.4.2-1c.2-.6.3-1.3.4-2l4.1-21.9c.2-.8.1-1.4-.4-1.6-.4-.2-1.2-.1-2.5.6-.1.1-.2,0-.3-.2s0-.2.1-.3l4.9-2.4c.1-.1.2,0,.3.1s.1.2.1.2L481.9,369l-1.5,8c.1.6-.2.7-.8.7Zm9.5.1c-.6,0-1.1-.2-1.5-.6s-.9-1.1-1.5-2.1l-2.3-4c-.3-.5-.6-.9-.9-1s-.7-.1-1.4,0l3.4-1.1l2.7,4.8c.6,1,1,1.6,1.4,1.9s.8.4,1.2.4c.3,0,.7-.1,1.2-.4s1-.7,1.6-1.3c.1-.1.2-.1.3,0s.1.2,0,.3c-1.8,2.1-3.1,3.1-4.2,3.1Zm-7.6-7.6v-.5c1.8-.4,3.2-.8,4.3-1.3c1.1-.4,1.9-1,2.5-1.5.6-.6,1-1.4,1.1-2.3.1-.6.1-1.1-.2-1.4-.2-.3-.5-.5-1-.5-1.4,0-2.7.6-3.8,1.7-1.1,1.2-1.9,2.7-2.4,4.7l-.9-1.4c.6-1.2,1.4-2.2,2.3-3.2.9-.9,1.9-1.6,3-2.2s2.2-.8,3.4-.8c.7,0,1.1.1,1.4.4s.5.6.6,1s.1.7,0,.9c-.1.8-.7,1.6-1.6,2.4s-2.1,1.5-3.7,2.1c-1.4.9-3.1,1.4-5,1.9Z"/><path d="M469.2,377.9c-.9,0-1.8-.2-2.5-.7s-1-1-.9-1.7c.1-.3.2-.6.4-.7.2-.2.4-.2.7-.2s.5.1.6.4c.2.3.3.6.5.9s.4.6.8.9c.3.3.8.4,1.5.4.8,0,1.4-.2,1.9-.6s.8-1.1.9-2c.1-.8,0-1.5-.3-2.1s-.8-1.1-1.4-1.6-1.1-.9-1.7-1.4-1-1-1.3-1.6-.4-1.3-.2-2.1c.2-.9.5-1.6,1-2.1.6-.6,1.2-1,1.9-1.3s1.5-.4,2.2-.4c.9,0,1.6.2,2.2.6s.9.8.8,1.3c-.1.3-.2.6-.4.8-.2.1-.4.2-.6.2-.3,0-.6-.1-.8-.3s-.4-.4-.6-.7-.4-.5-.7-.7-.7-.3-1.2-.3-1,.1-1.4.4c-.4.2-.7.7-.8,1.3-.1.8,0,1.5.3,2.1s.8,1.1,1.3,1.6c.6.5,1.1,1,1.7,1.5s1,1.1,1.3,1.7.4,1.4.3,2.2-.5,1.5-1,2.2-1.1,1.2-1.9,1.7c-.9.1-1.7.3-2.6.3Z"/><path d="M458.4,377.9c-.5,0-.9-.1-1.4-.3-.4-.2-.7-.5-.9-.9-.2-.5-.2-1.1-.1-1.9l1.7-9.4c.2-1,.2-1.6,0-1.8-.1-.2-.6-.4-1.4-.4-.1,0-.1-.1-.1-.2c0-.2.1-.2.2-.2.8,0,1.6-.3,2.2-.8.6-.6,1-1.3,1.2-2.1c0-.1.1-.1.3-.1s.3,0,.3.1L458,373.5c-.2,1.1-.2,1.9.1,2.4s.8.8,1.7.8c.8,0,1.6-.2,2.2-.6s1.2-.8,1.8-1.3c.1-.1.1,0,.2.1s.1.2.1.2c-1.2,1-2.2,1.8-3.1,2.2-1,.4-1.8.6-2.6.6Zm5.6-14c-.1,0-.4,0-.9-.1s-1.1-.1-1.9-.2c-.7-.1-1.3-.1-2-.1l.1-.9c.6,0,1.3,0,2.1-.1s1.6-.1,2.3-.1c.7-.1,1.1-.1,1.3-.1.1,0,.2,0,.2.1.1.1.1.1,0,.2-.1.2-.2.5-.5.8-.1.3-.4.5-.7.5Z"/><path d="M439.8,377.9c-.8,0-1.5-.3-1.9-.9s-.5-1.7-.4-3.2c.2-1.4.7-2.9,1.3-4.3.7-1.4,1.6-2.8,2.5-4c1-1.2,2.1-2.1,3.2-2.8s2.2-1.1,3.2-1.1c.5,0,.9.1,1.4.3.4.2.8.4,1.1.8s.5.9.6,1.5l-1.5-1c.3-.1.6-.3,1.1-.6.4-.4.7-.8.8-1.3.1-.1.1-.1.3-.1s.2.1.2.1l-2.3,12.5c-.3,1.6-.1,2.4.6,2.4.3,0,.7-.2,1.2-.5.5-.4,1-.8,1.6-1.4.1-.1.2-.1.3,0s.1.2,0,.3c-.9,1-1.7,1.7-2.4,2.3-.7.5-1.4.8-2.1.8-.6,0-1-.3-1.1-.8-.1-.6-.1-1.6.2-3l.9-5.5.6-.7c-.8,1.9-1.8,3.7-2.8,5.3-1.1,1.6-2.2,2.8-3.3,3.7-1.1.8-2.2,1.2-3.3,1.2Zm1.1-1.7c.8,0,1.6-.3,2.4-.9s1.6-1.4,2.4-2.4s1.5-2.1,2.1-3.2c.6-1.2,1-2.4,1.2-3.5.2-.9.1-1.7-.3-2.4s-1.1-1-2.1-.9c-.9,0-1.9.5-3,1.3-1,.8-1.9,2-2.7,3.4s-1.3,3-1.5,4.8c-.2,1.2-.2,2.2.1,2.8.2.7.7,1,1.4,1Z"/><path d="M427,377.9c-.9,0-1.6-.3-2.2-.8-.6-.6-.9-1.3-1.1-2.2s-.2-1.8-.1-2.6c.2-1.2.6-2.5,1.2-3.8s1.2-2.5,1.7-3.6c.2-.4.2-.6.1-.8s-.3-.2-.6-.2h-2c-.7,0-1.2.1-1.5.2s-.6.3-.8.6-.4.8-.6,1.4c-.1.1-.2.1-.3.1-.1-.1-.2-.1-.1-.3.4-1.1.7-2,1-2.5s.6-.9,1.1-1c.4-.2,1-.2,1.8-.2h3.5c.2,0,.4,0,.4.1.1.1,0,.2-.1.4-.6,1.4-1.2,3-1.8,4.6s-.9,3.1-1.1,4.3c-.2,1.5,0,2.7.4,3.5.5.8,1.2,1.2,2.1,1.2.8,0,1.6-.3,2.4-.8.8-.6,1.5-1.3,2.1-2.3.7-1,1.2-2.1,1.5-3.4.4-1.3.5-2.3.4-3.1s-.3-1.3-.5-1.7c-.3-.3-.5-.6-.6-.7s-.3-.3-.6-.5c-.2-.2-.4-.5-.4-.9s.2-.8.5-.9c.3-.2.6-.3.9-.3.6,0,1,.3,1.3,1s.4,1.5.4,2.4s0,1.9-.2,2.7c-.2,1.6-.7,3-1.3,4.2s-1.3,2.3-2.1,3.1-1.6,1.5-2.5,1.9c-.7.7-1.5.9-2.3.9Z"/><path d="M410.6,377.2h-.4c.2-1.1.5-2.4.9-3.8s.9-2.7,1.4-4.1s1.1-2.6,1.7-3.8c.6-1.1,1.2-2,1.8-2.7s1.2-1,1.8-1c.3,0,.7.1,1,.3s.6.4.8.8c.2.3.3.7.2,1s-.2.6-.4.8c-.2.1-.4.2-.7.2-.4,0-.7-.1-.9-.3s-.3-.5-.4-.7-.3-.4-.6-.4c-.4,0-.8.3-1.3.9-.4.6-.9,1.5-1.4,2.5s-1,2.2-1.4,3.4-.9,2.4-1.2,3.6c-.4,1.3-.7,2.3-.9,3.3Zm-1,.5c-.3,0-.6,0-.7-.1-.1,0-.1-.1-.1-.2s.1-.4.2-1.1c.2-.7.3-1.3.4-1.9l1.2-6.9c.2-1.2.3-2.1.3-2.7s-.2-1-.4-1.2-.4-.4-.6-.4c-.4,0-.8.2-1.3.5-.4.3-.8.6-1.1.9-.1.1-.1,0-.2,0-.1-.1-.1-.2-.1-.3.7-.8,1.4-1.5,2.1-1.9s1.4-.7,2-.7c.4,0,.8.2,1,.5.3.3.4.9.4,1.7s-.1,2-.4,3.6l-1.7,9.6c0,.5-.4.6-1,.6Z"/><path d="M380.4,377.4c-.1,0-.1-.1-.1-.2s0-.2.1-.2c.8,0,1.5-.1,1.9-.2.5-.1.8-.4,1-.8s.4-1,.5-1.7L387,356c.2-1.1.2-1.9-.2-2.2-.3-.3-1.1-.5-2.3-.5-.1,0-.1-.1-.1-.2c0-.2,0-.2.1-.2.5,0,1.1,0,1.7.1.7,0,1.4,0,2.1,0c.8,0,1.5,0,2.2,0c.7-.1,1.3-.1,1.8-.1.1,0,.1.1.1.2c0,.2,0,.2-.1.2-.8,0-1.5.1-2,.2-.4.2-.8.4-1,.8s-.4,1-.5,1.7l-3.2,18.2c-.2,1.1-.1,1.9.1,2.2.3.3,1.1.5,2.4.5.1,0,.1.1.1.2s0,.2-.1.2c-.5,0-1.1,0-1.8,0s-1.4,0-2.2,0c-.7,0-1.4,0-2.1,0-.5.1-1.1.1-1.6.1Zm5.9-12.5l.2-.8h15.1l-.1.8h-15.2Zm9.3,12.5c-.1,0-.1-.1-.1-.2s0-.2.1-.2c.9,0,1.5-.1,2-.2.4-.1.8-.4,1-.8s.4-1,.5-1.7l3.2-18.2c.2-1.1.2-1.9-.1-2.3s-1-.6-2.3-.6c-.1,0-.1-.1-.1-.2c0-.2,0-.2.1-.2.5,0,1.1,0,1.7.1.7,0,1.4,0,2.1,0s1.4,0,2.1,0c.7-.1,1.3-.1,1.8-.1.1,0,.1.1.1.2c0,.2,0,.2-.1.2-.8,0-1.5.1-1.9.2s-.8.4-1,.8-.4.9-.5,1.7L401,374.2c-.2,1.1-.1,1.9.2,2.2s1.1.5,2.4.5c.1,0,.1.1.1.2s0,.2-.1.2c-.5,0-1.1,0-1.8,0s-1.4,0-2.1,0-1.5,0-2.2,0c-.8.1-1.4.1-1.9.1Z"/><path d="M357.7,377.9c-1.1,0-1.9-.4-2.3-1.2s-.4-2.1,0-4l1.4-7c.2-.8.2-1.4,0-1.8-.1-.4-.4-.6-.7-.6s-.7.2-1.1.5c-.5.3-1,.8-1.6,1.4-.1.1-.2.1-.3,0s-.1-.2,0-.3c.9-1,1.7-1.8,2.4-2.3s1.4-.8,2.1-.8c.6,0,1,.3,1.1.9.2.6.1,1.6-.2,3l-1.3,6.3c-.3,1.6-.4,2.8-.1,3.5s.8,1.1,1.7,1.1s1.8-.6,2.7-1.7c1-1.1,1.9-2.7,2.7-4.8.9-2.1,1.6-4.7,2.1-7.7h.4c-.5,3.1-1.3,5.8-2.2,8.1s-2,4.1-3.2,5.5c-1,1.3-2.3,1.9-3.6,1.9Zm7.7-.1c-.6,0-1-.3-1.1-.8-.1-.6-.1-1.6.2-3l2-11.5c.1-.4.4-.6,1-.6.3,0,.6,0,.7.1.1,0,.2.1.2.2s-.1.4-.2,1.1c-.1.6-.3,1.3-.4,1.9l-1.6,8.8c-.3,1.6,0,2.4.7,2.4.3,0,.7-.2,1.2-.5s1-.8,1.6-1.4c.1-.1.2-.1.3,0s.1.2,0,.3c-.9,1-1.7,1.8-2.4,2.3-.9.4-1.6.7-2.2.7Z"/></g><g id="eS8iBcdPECb25" opacity="0"><path d="M503.9,324l.6-.8h8.1l.3.8h-9Zm19.3,12.6c.1,0,.2.1.2.2c0,.2-.1.2-.2.2-.8,0-1.5,0-2.3-.1s-1.6-.1-2.3-.1c-.8,0-1.5,0-2.1.1s-1.3.1-2,.1c-.1,0-.2-.1-.2-.2c0-.2.1-.2.2-.2c1.4,0,2.3-.2,2.6-.6s.2-1.2-.3-2.3L508,315.2l1-1.2-7.7,18.1c-.7,1.6-.7,2.8-.1,3.5s1.7,1.1,3.4,1.1c.1,0,.2.1.2.2c0,.2-.1.2-.2.2-.8,0-1.5,0-2.2-.1s-1.5-.1-2.5-.1c-.9,0-1.7,0-2.3.1s-1.2.1-2.1.1c-.1,0-.2-.1-.2-.2c0-.2.1-.2.2-.2.7,0,1.3-.1,1.9-.4.5-.3,1-.8,1.5-1.5s1-1.7,1.5-3l8.3-19.7c.1-.1.1-.1.3-.1.1,0,.2,0,.2.1l9.3,19.6c.6,1.3,1.1,2.3,1.6,3s.9,1.2,1.4,1.5c.6.3,1.1.4,1.7.4Z"/><path d="M471.6,332.8v-19.5l.9.1v19.4c0,1.4.2,2.4.7,3s1.3.9,2.4.9c.1,0,.1.1.1.2c0,.2,0,.2-.1.2-.5,0-1.1,0-1.6,0-.6,0-1.2,0-1.9,0s-1.3,0-1.9,0-1.2,0-1.7,0c-.1,0-.1-.1-.1-.2c0-.2,0-.2.1-.2c1.2,0,2-.3,2.4-.9.4-.7.7-1.7.7-3Zm19.9,4.8c0,.1-.1.1-.2.1s-.2,0-.3,0l-18.2-22c-.9-1.1-1.7-1.8-2.4-2.2s-1.3-.6-2-.6c-.1,0-.1-.1-.1-.2c0-.2,0-.2.1-.2.5,0,.9,0,1.4,0s.9,0,1.3,0c.5,0,.9,0,1.3,0s.7,0,.9,0c.3,0,.6.2.7.5s.5.8,1.1,1.6L490.9,334l.6,3.6Zm0-20.9v20.8l-.9-1.2v-19.6c0-1.4-.2-2.4-.7-3-.4-.6-1.2-.9-2.3-.9-.1,0-.1-.1-.1-.2c0-.2,0-.2.1-.2.5,0,1.1,0,1.6.1.6,0,1.2,0,1.9,0c.6,0,1.3,0,1.9,0c.6-.1,1.2-.1,1.7-.1.1,0,.1.1.1.2c0,.2,0,.2-.1.2-1.1,0-1.9.3-2.4.9-.6.7-.8,1.7-.8,3Z"/><path d="M463.9,337.1h-16.6c-.1,0-.1-.1-.1-.2c0-.2,0-.2.1-.2c1,0,1.7-.1,2.2-.2s.8-.4.9-.8c.2-.4.3-1,.3-1.7v-18.3c0-.8-.1-1.3-.3-1.7s-.5-.7-.9-.8c-.5-.2-1.2-.2-2.2-.2-.1,0-.1-.1-.1-.2c0-.2,0-.2.1-.2h15.9c.2,0,.4.1.4.4l.1,4.9c0,.1-.1.1-.2.2-.1,0-.2,0-.2-.1-.1-1.4-.5-2.5-1.3-3.3s-1.8-1.1-3-1.1h-2.4c-.9,0-1.6.1-2.1.2-.4.1-.8.4-.9.8-.2.4-.2.9-.2,1.6v17.9c0,.7.1,1.2.2,1.6.2.4.5.6.9.8.4.1,1.1.2,2,.2h3.2c1.3,0,2.3-.4,3.2-1.3s1.4-2.2,1.7-3.7c0-.1.1-.1.2-.1.2,0,.2.1.2.2-.1.7-.2,1.5-.3,2.5s-.1,1.9-.1,2.7c-.1-.1-.3.1-.7.1Zm-2.3-9.2c0-1.2-.3-2-.9-2.5s-1.5-.8-2.8-.8h-5.9v-.8h6c1.3,0,2.2-.2,2.7-.6.6-.4.8-1.2.8-2.1c0-.1.1-.1.2-.1s.2,0,.2.1c0,.8,0,1.4,0,1.9c0,.4,0,.9,0,1.3c0,.6,0,1.2,0,1.8s0,1.2,0,1.9c0,.1-.1.1-.2.1c0-.1-.1-.2-.1-.2Z"/><path d="M424.3,336.6l15.6-23.2c.1-.1.1-.2.1-.2c0-.1-.1-.1-.3-.1-2.6,0-4.7,0-6.4.1-1.7,0-3,.1-4.1.2-1,.1-1.8.4-2.4.7s-1,.7-1.3,1.3c-.3.5-.6,1.2-.9,2.1c0,.1-.1.1-.3.1-.2-.1-.2-.1-.2-.2l1.6-6.2c0-.1.1-.1.3,0c.2,0,.2.1.2.1-.1.5,0,.8.3.9s.9.2,1.9.2c1.6,0,3.5,0,5.8,0s5.2,0,8.6,0c.1,0,.2.1.3.2s.1.2,0,.3L427.8,336c-.1.1-.1.2-.1.3c0,0,.1,0,.3,0c2.2,0,4.1,0,5.8,0s3.1,0,4.2,0c1.2,0,2.2-.2,3-.5s1.4-.8,1.9-1.5.8-1.6,1-2.6c0-.1.1-.1.2-.1s.2,0,.2.1l-.6,5c0,.1,0,.2-.1.3s-.1.1-.3.1c-1.9,0-4-.1-6.2-.1s-4.3,0-6.5,0-4.2,0-6.2,0c-.1,0-.2-.1-.3-.2.1,0,.1-.1.2-.2Zm9.7-26.7l-4.1-3.8c-.1-.1,0-.1,0-.2.1-.1.2-.1.2-.1l4.3,2.3l4.3-2.3c.1-.1.1,0,.2.1s.1.1,0,.2l-4,3.8c-.1.1-.2.2-.4.2s-.4-.1-.5-.2Z"/></g><g id="eS8iBcdPECb30" opacity="0"><path d="M397.7,337.9c-2.7,0-5-.6-7.1-1.7-2.1-1.2-3.7-2.7-4.9-4.8-1.2-2-1.7-4.3-1.7-6.9s.6-4.8,1.7-6.8c1.2-2,2.8-3.5,4.9-4.6s4.5-1.7,7.1-1.7c2.7,0,5.1.6,7.1,1.7c2.1,1.1,3.6,2.7,4.8,4.7s1.7,4.2,1.7,6.8-.6,4.9-1.7,6.9c-1.2,2-2.8,3.5-4.8,4.7-2.2,1.2-4.5,1.7-7.1,1.7Zm.6-1.3c2,0,3.5-1,4.5-3s1.5-4.6,1.5-8c0-3.1-.3-5.5-1-7.4-.6-1.9-1.5-3.3-2.6-4.1-1.1-.9-2.2-1.3-3.5-1.3-2.1,0-3.6,1-4.8,3-1.1,2-1.6,4.7-1.6,8c0,2.5.3,4.8.9,6.7s1.5,3.4,2.6,4.4c1.2,1.1,2.5,1.7,4,1.7Z"/><path d="M367.1,337.9c-2.7,0-5-.6-7.1-1.7-2.1-1.2-3.7-2.7-4.9-4.8-1.2-2-1.7-4.3-1.7-6.9s.6-4.8,1.7-6.8c1.2-2,2.8-3.5,4.9-4.6s4.5-1.7,7.1-1.7c2.7,0,5.1.6,7.1,1.7c2.1,1.1,3.6,2.7,4.8,4.7s1.7,4.2,1.7,6.8-.6,4.9-1.7,6.9c-1.2,2-2.8,3.5-4.8,4.7-2.2,1.2-4.5,1.7-7.1,1.7Zm.6-1.3c2,0,3.5-1,4.5-3s1.5-4.6,1.5-8c0-3.1-.3-5.5-1-7.4-.6-1.9-1.5-3.3-2.6-4.1-1.1-.9-2.2-1.3-3.5-1.3-2.1,0-3.6,1-4.8,3-1.1,2-1.6,4.7-1.6,8c0,2.5.3,4.8.9,6.7s1.5,3.4,2.6,4.4c1.2,1.1,2.5,1.7,4,1.7Z"/><path d="M330.4,324.5c4.4,0,7.9.5,10.5,1.5c2.7,1,4.6,2.4,5.8,4.2s1.8,3.9,1.8,6.2c0,2.4-.6,4.6-1.9,6.6s-3.3,3.9-6,5.8-6.3,3.8-10.8,5.8c-.2,0-.3,0-.4-.3-.1-.2-.1-.4.1-.4c3.3-1.8,5.8-3.7,7.6-5.5s3.1-3.6,3.9-5.5c.7-1.8,1.1-3.6,1.1-5.5c0-3.5-1-6.2-3.1-8.2s-5.1-3-9-3c-.5,0-.7-.3-.6-.8l2.1-11.4c0-.3.1-.5.2-.5.1-.1.3-.1.6-.2c3.7-.4,6.5-.8,8.6-1c2.1-.3,3.6-.5,4.5-.7s1.5-.4,1.8-.7.5-.7.6-1.1c0-.1.2-.2.4-.1.3,0,.4.1.3.3l-1.3,7.1c-.1.5-.3.8-.6,1-.3.1-.7.2-1.2.2l-12.2.3c-.6,0-.9.3-1,.9l-1.2,6.2-.6-1.2Z"/><path d="M301.9,335.4c2.6-2.4,4.7-4.3,6.3-5.9c1.7-1.6,3-3,3.9-4.2c1-1.2,1.7-2.2,2.1-3.1s.6-1.9.6-2.8c0-1.5-.4-2.8-1.2-4s-1.9-1.9-3.5-1.9c-1.7,0-3.1.8-4.1,2.4-1,1.5-1.9,3.6-2.8,6.2c0,.1-.2.1-.4.1-.3,0-.4-.1-.3-.2l2.8-11c0-.1.2-.2.4-.1.3,0,.3.1.3.2-.2.8-.1,1.3.1,1.5.3.2.5.3.8.3.7,0,1.6-.2,2.7-.7s2.5-.7,4.3-.7c2.4,0,4.2.6,5.5,1.7s2,2.6,2,4.4c0,1.5-.4,3-1.3,4.3s-1.9,2.6-3.3,3.7c-1.3,1.1-2.6,2.2-4,3.1-1.4,1-2.6,1.9-3.7,2.8-.1.1-.1.2-.1.3.1.1.2.1.4.1c2.2,0,4.1,0,5.7-.1c1.7,0,3.1-.2,4.2-.4s2-.5,2.6-1c.6-.4,1.1-1,1.3-1.8c0-.2.2-.2.4-.2.3,0,.4.1.4.2l-1.3,7.6c0,.2-.1.3-.2.5-.1.1-.2.2-.4.2-3,0-6.2,0-9.8,0-3.5,0-6.8,0-9.9,0-.2,0-.4-.2-.5-.7-.2-.3-.2-.7,0-.8Z"/><path d="M276.1,326.5c-.1,0-.2-.3-.3-.8c0-.6,0-1.1,0-1.6s.1-.8.2-.8h21.3c.1,0,.2.3.3.8c0,.5,0,1,0,1.6c0,.5-.1.8-.3.8h-21.2Zm12.2,9c0,.1-.3.2-.8.3-.5,0-1,.1-1.6.1-.5,0-.8-.1-.8-.2v-21.3c0-.1.3-.2.8-.3.6,0,1.1,0,1.6,0s.8.1.8.3v21.1Z"/></g><g id="eS8iBcdPECb36" opacity="0"><path d="M248.9,337.6c-1.9,0-3.6-.3-5.2-1-1.5-.7-2.8-1.6-4-2.8-1.1-1.2-1.9-2.5-2.5-4.1s-.9-3.2-.9-4.9c0-2.1.4-4,1.2-5.6s1.9-2.9,3.3-4s2.9-1.9,4.5-2.4s3.3-.8,4.9-.8c1.9,0,3.7.4,5.2,1.1c1.6.7,2.9,1.6,4,2.8s1.9,2.5,2.5,4s.9,3,.9,4.6c0,1.8-.4,3.6-1.1,5.1-.7,1.6-1.8,3-3,4.1-1.3,1.2-2.7,2.1-4.4,2.8-1.8.7-3.5,1.1-5.4,1.1Zm1.4-.9c1.8,0,3.4-.4,4.8-1.3s2.6-2.1,3.4-3.8s1.3-3.7,1.3-6.1c0-2.5-.5-4.7-1.4-6.6s-2.2-3.4-3.9-4.5-3.6-1.7-5.9-1.7c-2.9,0-5.2.9-6.8,2.8s-2.4,4.4-2.4,7.7c0,1.9.2,3.6.8,5.3.5,1.6,1.3,3,2.3,4.3c1,1.2,2.1,2.2,3.5,2.8c1.2.8,2.7,1.1,4.3,1.1Z"/><path d="M220.7,315.6v18.1c0,.7.1,1.3.2,1.6.2.4.5.6.9.8.5.1,1.1.2,2,.2h4.3c1.5,0,2.7-.5,3.6-1.4.9-1,1.5-2.2,1.7-3.8c0-.1.1-.1.2-.1.2,0,.2,0,.2.1-.1.7-.2,1.6-.2,2.6-.1,1-.1,1.9-.1,2.8c0,.4-.2.6-.6.6h-18.3c-.1,0-.1-.1-.1-.2c0-.2,0-.2.1-.2.9,0,1.7-.1,2.1-.2.5-.1.8-.4,1-.8s.2-1,.2-1.7v-18.3c0-.8-.1-1.3-.2-1.7-.2-.4-.5-.7-1-.8-.5-.2-1.2-.2-2.1-.2-.1,0-.1-.1-.1-.2c0-.2,0-.2.1-.2.6,0,1.3,0,2.1.1.8,0,1.6,0,2.5,0s1.8,0,2.6,0c.8-.1,1.5-.1,2.1-.1.1,0,.1.1.1.2c0,.2,0,.2-.1.2-.9,0-1.7.1-2.2.2s-.8.4-.9.8c0,.3-.1.9-.1,1.6Z"/><path d="M194,324l.6-.8h8.1l.3.8h-9Zm19.2,12.6c.1,0,.2.1.2.2c0,.2-.1.2-.2.2-.8,0-1.5,0-2.3-.1s-1.6-.1-2.3-.1c-.8,0-1.5,0-2.1.1s-1.3.1-2,.1c-.1,0-.2-.1-.2-.2c0-.2.1-.2.2-.2c1.4,0,2.3-.2,2.6-.6s.2-1.2-.3-2.3L198,315.2l1-1.2-7.7,18.1c-.7,1.6-.7,2.8-.1,3.5s1.7,1.1,3.4,1.1c.1,0,.2.1.2.2c0,.2-.1.2-.2.2-.8,0-1.5,0-2.2-.1s-1.5-.1-2.5-.1c-.9,0-1.7,0-2.3.1s-1.2.1-2.1.1c-.1,0-.2-.1-.2-.2c0-.2.1-.2.2-.2.7,0,1.3-.1,1.9-.4.5-.3,1-.8,1.5-1.5s1-1.7,1.5-3l8.3-19.7c.1-.1.1-.1.3-.1.1,0,.2,0,.2.1l9.3,19.6c.6,1.3,1.1,2.3,1.6,3s.9,1.2,1.4,1.5c.7.3,1.2.4,1.7.4Z"/><path d="M189.1,312.4c.1,0,.1.1.1.2c0,.2,0,.2-.1.2-.8,0-1.6.2-2.3.7-.7.4-1.2,1.3-1.7,2.5l-8.4,21.1c0,.1-.2.2-.4.2s-.4-.1-.4-.2l-9.8-21.4c-.4-1-.9-1.7-1.4-2.1s-1.1-.7-1.9-.7c-.1,0-.1-.1-.1-.2c0-.2,0-.2.1-.2.4,0,.7,0,1.1,0c.3,0,.7.1,1.1.1s.8,0,1.1,0c.8,0,1.5,0,2.1,0s1.1-.1,1.6-.1.9,0,1.3,0c.1,0,.1.1.1.2c0,.2,0,.2-.1.2-1,0-1.8.2-2.2.6s-.4,1.1.1,2.1l8.5,18.7-1.2,1.8l8.1-20.3c.4-1,.4-1.7,0-2.2s-1.3-.7-2.8-.7c-.1,0-.1-.1-.1-.2c0-.2,0-.2.1-.2.7,0,1.3,0,1.9.1.6,0,1.3,0,2.3,0c.8,0,1.4,0,1.8,0c.3-.2.8-.2,1.5-.2Z"/><path d="M147.8,337.6c-1.9,0-3.6-.3-5.2-1-1.5-.7-2.8-1.6-4-2.8-1.1-1.2-1.9-2.5-2.5-4.1s-.9-3.2-.9-4.9c0-2.1.4-4,1.2-5.6s1.9-2.9,3.3-4s2.9-1.9,4.5-2.4s3.3-.8,4.9-.8c1.9,0,3.7.4,5.2,1.1c1.6.7,2.9,1.6,4,2.8s1.9,2.5,2.4,4c.6,1.5.9,3,.9,4.6c0,1.8-.4,3.6-1.1,5.1-.7,1.6-1.8,3-3,4.1-1.3,1.2-2.7,2.1-4.4,2.8s-3.4,1.1-5.3,1.1Zm1.4-.9c1.8,0,3.4-.4,4.8-1.3s2.6-2.1,3.4-3.8s1.3-3.7,1.3-6.1c0-2.5-.5-4.7-1.4-6.6s-2.2-3.4-3.9-4.5-3.6-1.7-5.9-1.7c-2.9,0-5.2.9-6.8,2.8s-2.4,4.4-2.4,7.7c0,1.9.3,3.6.8,5.3.5,1.6,1.3,3,2.3,4.3c1,1.2,2.1,2.2,3.5,2.8c1.2.8,2.7,1.1,4.3,1.1Z"/><path d="M119.6,315.6v18.1c0,.7.1,1.3.2,1.6.2.4.5.6.9.8.5.1,1.1.2,2,.2h4.3c1.5,0,2.7-.5,3.6-1.4.9-1,1.5-2.2,1.7-3.8c0-.1.1-.1.2-.1.2,0,.2,0,.2.1-.1.7-.2,1.6-.2,2.6-.1,1-.1,1.9-.1,2.8c0,.4-.2.6-.6.6h-18.3c-.1,0-.1-.1-.1-.2c0-.2,0-.2.1-.2.9,0,1.7-.1,2.1-.2.5-.1.8-.4,1-.8s.2-1,.2-1.7v-18.3c0-.8-.1-1.3-.2-1.7-.2-.4-.5-.7-1-.8-.5-.2-1.2-.2-2.1-.2-.1,0-.1-.1-.1-.2c0-.2,0-.2.1-.2.6,0,1.3,0,2.1.1.8,0,1.6,0,2.5,0s1.8,0,2.6,0c.8-.1,1.5-.1,2.1-.1.1,0,.1.1.1.2c0,.2,0,.2-.1.2-.9,0-1.7.1-2.2.2s-.8.4-.9.8c0,.3-.1.9-.1,1.6Z"/><path d="M109.3,337.1h-16.5c-.1,0-.1-.1-.1-.2c0-.2,0-.2.1-.2c1,0,1.7-.1,2.2-.2s.8-.4.9-.8c.2-.4.3-1,.3-1.7v-18.3c0-.8-.1-1.3-.3-1.7s-.5-.7-.9-.8c-.5-.2-1.2-.2-2.2-.2-.1,0-.1-.1-.1-.2c0-.2,0-.2.1-.2h15.9c.2,0,.4.1.4.4l.1,4.9c0,.1-.1.1-.2.2-.1,0-.2,0-.2-.1-.1-1.4-.5-2.5-1.3-3.3s-1.8-1.1-3-1.1h-2.4c-.9,0-1.6.1-2.1.2-.4.1-.8.4-.9.8-.2.4-.2.9-.2,1.6v17.9c0,.7.1,1.2.2,1.6.2.4.5.6.9.8.4.1,1.1.2,2,.2h3.2c1.3,0,2.3-.4,3.2-1.3s1.4-2.2,1.7-3.7c0-.1.1-.1.2-.1.2,0,.2.1.2.2-.1.7-.2,1.5-.3,2.5s-.1,1.9-.1,2.7c-.2-.1-.4.1-.8.1Zm-2.2-9.2c0-1.2-.3-2-.9-2.5s-1.5-.8-2.8-.8h-5.9v-.8h6c1.3,0,2.2-.2,2.7-.6.6-.4.8-1.2.8-2.1c0-.1.1-.1.2-.1s.2,0,.2.1c0,.8,0,1.4,0,1.9c0,.4,0,.9,0,1.3c0,.6,0,1.2,0,1.8s0,1.2,0,1.9c0,.1-.1.1-.2.1c0-.1-.1-.2-.1-.2Z"/><path d="M86.4,334.4c0,1.6-.1,2.9-.3,4s-.5,2.1-.9,2.9-1,1.5-1.8,2.1c-.7.6-1.7,1.1-2.8,1.6-.1.1-.1,0-.2-.2-.1-.1-.1-.2,0-.2c1.4-.8,2.3-1.9,2.8-3.4s.7-3.4.7-5.7v-19.9c0-.8-.1-1.3-.3-1.7s-.5-.7-1-.8c-.5-.2-1.2-.2-2.2-.2-.1,0-.1-.1-.1-.2c0-.2,0-.2.1-.2.7,0,1.4,0,2.2.1.8,0,1.6,0,2.4,0c.9,0,1.6,0,2.3,0c.7-.1,1.4-.1,1.9-.1.1,0,.1.1.1.2c0,.2,0,.2-.1.2-1.3,0-2.1.2-2.4.6s-.5,1.1-.5,2.3v18.6h.1Z"/><path d="M63,337.2c-.8,0-1.7,0-2.8-.1s-2.1-.1-3.1-.1c-.9,0-1.7,0-2.5,0s-1.5,0-2.1,0c-.1,0-.1-.1-.1-.2c0-.2,0-.2.1-.2.9,0,1.7-.1,2.2-.2s.8-.4,1-.8.2-1,.2-1.7v-18.3c0-.8-.1-1.3-.2-1.7-.2-.4-.5-.7-1-.8-.5-.2-1.2-.2-2.1-.2-.1,0-.1-.1-.1-.2c0-.2,0-.2.1-.2.6,0,1.3,0,2.1.1.8,0,1.6,0,2.5,0s1.8,0,2.8-.1s1.9-.1,2.6-.1c2.8,0,5.2.5,7.3,1.6s3.7,2.5,4.9,4.3s1.7,3.9,1.7,6.1c0,2-.4,3.8-1.1,5.4s-1.7,2.9-2.9,4.1c-1.2,1.1-2.7,2-4.3,2.6-1.7.4-3.4.7-5.2.7Zm-.3-.5c2.1,0,4-.4,5.6-1.3s2.9-2.2,3.8-3.9s1.4-3.8,1.4-6.2c0-2.3-.4-4.4-1.3-6.2-.9-1.9-2.1-3.3-3.7-4.4s-3.4-1.7-5.6-1.7c-1.6,0-2.7.2-3.4.5s-1,1.1-1,2.3v17.8c0,1.1.3,1.9.8,2.4.5.4,1.6.7,3.4.7Z"/><path d="M46.1,316.7c0-1.3-.3-2.3-.9-2.9-.6-.7-1.4-1-2.6-1-.1,0-.1-.1-.1-.2c0-.2,0-.2.1-.2.6,0,1.2,0,1.9.1.6,0,1.3,0,2.1,0c.6,0,1.2,0,1.9,0c.6-.1,1.2-.1,1.7-.1.1,0,.1.1.1.2c0,.2,0,.2-.1.2-1.1,0-1.8.3-2.4,1-.5.6-.8,1.6-.8,2.9v11.3c0,2-.4,3.8-1.2,5.2s-1.8,2.5-3.2,3.3-3,1.1-4.9,1.1-3.7-.4-5.1-1.1c-1.4-.8-2.6-1.8-3.4-3.2s-1.2-3.1-1.2-5v-12.6c0-.8-.1-1.3-.2-1.7-.2-.4-.5-.7-1-.8-.5-.2-1.2-.2-2.1-.2-.1,0-.1-.1-.1-.2c0-.2,0-.2.1-.2.6,0,1.3,0,2.1.1.8,0,1.6,0,2.5,0s1.8,0,2.6,0c.8-.1,1.5-.1,2.1-.1.1,0,.1.1.1.2c0,.2,0,.2-.1.2-.9,0-1.7.1-2.1.2-.5.2-.8.4-.9.8-.2.4-.2,1-.2,1.7v11.2c0,3.1.7,5.5,2.1,7.2c1.4,1.6,3.4,2.4,5.9,2.4c2.4,0,4.2-.7,5.5-2.2s2-3.6,2-6.2v-11.4h-.2Z"/><path d="M9.8,317c0,1.1.3,2,.8,2.8.6.8,1.3,1.4,2.1,2s1.7,1.2,2.7,1.7c1,.6,1.9,1.1,2.8,1.8.9.6,1.7,1.4,2.3,2.3s.9,1.9.9,3.2-.3,2.4-.9,3.4-1.6,1.8-2.8,2.4-2.7.9-4.4.9c-.6,0-1.3-.1-1.9-.2s-1.2-.2-1.9-.4c-.6-.2-1.2-.5-1.8-.8-.1-.1-.2-.2-.3-.3c0-.1-.1-.3-.1-.5l-.5-5.4c0-.1,0-.2.2-.2s.3,0,.3.1c.2.8.4,1.6.8,2.4.3.8.8,1.6,1.3,2.3.6.7,1.2,1.2,2,1.7.8.4,1.7.6,2.8.6.8,0,1.5-.1,2.2-.4s1.3-.8,1.8-1.4c.5-.7.7-1.6.7-2.7c0-1.3-.3-2.4-.9-3.2-.6-.9-1.3-1.6-2.1-2.3-.9-.6-1.8-1.2-2.8-1.8-.9-.6-1.8-1.2-2.7-1.8-.8-.6-1.5-1.3-2.1-2.1-.5-.8-.8-1.9-.8-3.1c0-1.4.4-2.5,1.1-3.4s1.6-1.6,2.8-2.1s2.3-.7,3.5-.7c.7,0,1.5.1,2.3.2s1.6.4,2.3.7c.2.1.4.2.4.3.1.1.2.2.2.4l.3,4.5c0,.1-.1.2-.2.2s-.2-.1-.3-.2c-.1-.5-.2-1.1-.4-1.7-.2-.7-.6-1.3-1-1.9s-1-1.1-1.7-1.4c-.7-.4-1.5-.6-2.5-.6s-1.9.2-2.5.7c-.6.4-1.1,1-1.4,1.7-.4.8-.6,1.5-.6,2.3Z"/></g><g id="eS8iBcdPECb48" opacity="0"><path d="M410.6,292.2c-1.1,0-1.9-.4-2.3-1.2s-.4-2.1,0-4l1.4-7c.2-.8.2-1.4,0-1.8-.1-.4-.4-.6-.7-.6s-.7.2-1.1.5c-.5.3-1,.8-1.6,1.4-.1.1-.2.1-.3,0s-.1-.2,0-.3c.9-1,1.7-1.8,2.4-2.3s1.4-.8,2.1-.8c.6,0,1,.3,1.1.9.2.6.1,1.6-.2,3l-1.3,6.3c-.3,1.6-.4,2.8-.1,3.5s.8,1.1,1.7,1.1s1.8-.6,2.7-1.7c1-1.1,1.9-2.7,2.7-4.8.9-2.1,1.6-4.7,2.1-7.7h.4c-.5,3.1-1.3,5.8-2.2,8.1s-2,4.1-3.2,5.5c-1.1,1.2-2.3,1.9-3.6,1.9Zm7.6-.2c-.6,0-1-.3-1.1-.8-.1-.6-.1-1.6.2-3l2-11.5c.1-.4.4-.6,1-.6.3,0,.6,0,.7.1.1,0,.2.1.2.2s-.1.4-.2,1.1c-.1.6-.3,1.3-.4,1.9l-1.6,8.8c-.3,1.6,0,2.4.7,2.4.3,0,.7-.2,1.2-.5s1-.8,1.6-1.4c.1-.1.2-.1.3,0s.1.2,0,.3c-.9,1-1.7,1.8-2.4,2.3-.8.5-1.5.7-2.2.7Z"/><path d="M395,302.5c-.8,0-1.4-.2-1.7-.5s-.5-.7-.4-1.1.2-.6.4-.8.5-.3.8-.3.5.1.6.3.2.5.3.8.1.5.3.8.3.3.6.3c.4,0,.8-.3,1.1-.8s.6-1.4.9-2.5.6-2.6.9-4.5l2.4-14.3c.3-1.6,0-2.4-.7-2.4s-1.7.6-2.8,1.9c-.1.1-.2.1-.3,0s-.1-.2,0-.3c.9-1,1.7-1.8,2.4-2.3s1.4-.8,2.1-.8c.6,0,1,.3,1.1.9.2.6.1,1.6-.2,3l-2.3,13.4c-.4,2.4-.9,4.3-1.3,5.6s-1,2.3-1.7,2.8c-.6.6-1.5.8-2.5.8Zm8.1-31.3c-.5,0-.9-.1-1.2-.4s-.4-.6-.4-1.1c0-.4.1-.8.4-1.1s.7-.4,1.2-.4.9.1,1.1.4c.3.3.4.6.4,1.1.1,1-.5,1.5-1.5,1.5Z"/><path d="M390.9,292c-.6,0-1-.3-1.2-.8-.1-.6-.1-1.6.2-3l1.1-6.3c.6-3.1.1-4.6-1.5-4.6-.9,0-1.8.6-2.8,1.7-.9,1.1-1.9,2.7-2.7,4.9-.8,2.1-1.5,4.7-2.1,7.7h-.4c.6-3.1,1.3-5.7,2.2-8.1.9-2.3,2-4.2,3.2-5.5s2.5-2,3.8-2c1.1,0,1.9.4,2.3,1.2s.4,2.1,0,4l-1.3,7c-.1.8-.1,1.4,0,1.8s.4.6.7.6.7-.2,1.1-.5c.5-.4,1-.8,1.6-1.4.1-.1.2-.1.3,0s.1.2,0,.3c-.9,1-1.7,1.7-2.4,2.3-.7.5-1.4.7-2.1.7Zm-10,0c-.3,0-.6,0-.7-.1-.1,0-.2-.1-.2-.2s.1-.4.2-1c.2-.6.3-1.3.4-2l1.6-8.8c.3-1.6,0-2.4-.7-2.4-.3,0-.7.2-1.2.5s-1,.8-1.6,1.4c-.1.1-.2.1-.3,0s-.1-.2,0-.3c.9-1,1.7-1.8,2.4-2.3.8-.5,1.5-.8,2.1-.8s1,.3,1.1.9c.2.6.1,1.6-.2,3l-2,11.5c.1.4-.3.6-.9.6Z"/><path d="M363.7,292.2c-.8,0-1.5-.3-1.9-.9s-.5-1.7-.4-3.2c.2-1.4.7-2.9,1.3-4.3.7-1.4,1.6-2.8,2.5-4c1-1.2,2.1-2.1,3.2-2.8s2.2-1.1,3.2-1.1c.5,0,.9.1,1.4.3.4.2.8.4,1.1.8s.5.9.6,1.5l-1.5-1c.3-.1.6-.3,1.1-.6.4-.4.7-.8.8-1.3.1-.1.1-.1.3-.1s.2.1.2.1l-2.3,12.5c-.3,1.6-.1,2.4.6,2.4.3,0,.7-.2,1.2-.5.5-.4,1-.8,1.6-1.4.1-.1.2-.1.3,0s.1.2,0,.3c-.9,1-1.7,1.7-2.4,2.3-.7.5-1.4.8-2.1.8-.6,0-1-.3-1.1-.8-.1-.6-.1-1.6.2-3l.9-5.5.6-.7c-.8,1.9-1.8,3.7-2.8,5.3-1.1,1.6-2.2,2.8-3.3,3.7-1.1.8-2.2,1.2-3.3,1.2Zm1.2-1.7c.8,0,1.6-.3,2.4-.9s1.6-1.4,2.4-2.4s1.5-2.1,2.1-3.2c.6-1.2,1-2.4,1.2-3.5.2-.9.1-1.7-.3-2.4s-1.1-1-2.1-.9c-.9,0-1.9.5-3,1.3-1,.8-1.9,2-2.7,3.4s-1.3,3-1.5,4.8c-.2,1.2-.2,2.2.1,2.8.1.7.6,1,1.4,1Z"/><path d="M347.2,292.2c-.6,0-1.2-.2-1.8-.5-.5-.4-.9-.9-1.2-1.7-.2-.8-.3-1.9,0-3.2.3-1.5.7-2.9,1.4-4.1.7-1.3,1.5-2.4,2.5-3.4s2.1-1.8,3.2-2.3c1.1-.6,2.3-.9,3.4-.9.7,0,1.4.2,2,.6s1,1.1,1.1,2l-1.6,3.4c-.8,2-1.7,3.7-2.7,5.3-.9,1.5-2,2.7-3,3.6-1.1.8-2.2,1.2-3.3,1.2Zm1.1-1.7c.9,0,1.8-.4,2.6-1.1.9-.7,1.6-1.6,2.3-2.7s1.3-2.2,1.8-3.3.8-2.1.9-2.9c.2-1.1.1-1.9-.4-2.5-.4-.6-1.1-.9-2.1-.8-1.8,0-3.3.7-4.7,2.1s-2.3,3.4-2.7,6c-.3,1.8-.2,3.1.2,4c.5.8,1.2,1.2,2.1,1.2Zm7.2,1.5c-.6,0-1-.3-1.2-.8-.1-.6-.1-1.6.2-3l4-21.3c.2-.8,0-1.4-.4-1.6s-1.2-.1-2.5.6c-.1.1-.2,0-.2-.2-.1-.2,0-.3.1-.3l4.9-2.4c.1-.1.2,0,.3.1s.1.2.1.2l-4.6,24.8c-.2.8-.2,1.4,0,1.8s.4.6.8.6c.3,0,.7-.2,1.1-.5.5-.4,1-.8,1.6-1.4.1-.1.2-.1.3,0s.1.2,0,.3c-.9,1-1.7,1.7-2.4,2.3s-1.4.8-2.1.8Z"/><path d="M329.5,292c-.1,0-.1,0-.2-.1s-.1-.2-.1-.2l12.4-14.2-.2.4c-.3.4-.7.6-.9.8-.3.1-.7.2-1.2.2-.6,0-1.2-.1-2-.2-.7-.2-1.4-.3-2.1-.5s-1.2-.2-1.7-.2c-.4,0-.8.2-1,.5s-.5.8-.8,1.5c0,.1-.1.1-.3.1-.2-.1-.2-.2-.2-.3.4-1.1.7-1.9,1-2.4s.6-.8.9-.9.8-.2,1.3-.2c.9.1,2,.2,3.2.6c1.2.3,2.3.5,3.4.5.4,0,.8-.1,1.1-.2.3-.2.7-.5,1.1-.9.1-.1.2,0,.2.1.1.1.1.2,0,.2L331,290.8l.2-.5c.3-.4.6-.6.9-.7s.7-.2,1.3-.2c.7,0,1.4.1,2.3.2s1.7.3,2.5.4c.8.2,1.5.2,1.9.2s.8-.1,1-.4.5-.8.8-1.5c0-.1.1-.1.2,0c.2,0,.2.1.2.2-.4,1.1-.7,1.9-.9,2.4-.3.5-.6.8-.9.9s-.7.2-1.2.2c-.7,0-1.6-.1-2.4-.3-.9-.2-1.8-.3-2.6-.5-.9-.2-1.7-.3-2.5-.3-.4,0-.8.1-1.1.2-.4.1-.8.4-1.2.9Z"/><path d="M316.5,292.2c-1.1,0-1.9-.4-2.3-1.2s-.4-2.1,0-4l1.4-7c.2-.8.2-1.4,0-1.8-.1-.4-.4-.6-.7-.6s-.7.2-1.1.5c-.5.3-1,.8-1.6,1.4-.1.1-.2.1-.3,0s-.1-.2,0-.3c.9-1,1.7-1.8,2.4-2.3s1.4-.8,2.1-.8c.6,0,1,.3,1.1.9.2.6.1,1.6-.2,3l-1.3,6.3c-.3,1.6-.4,2.8-.1,3.5s.8,1.1,1.7,1.1s1.8-.6,2.7-1.7c1-1.1,1.9-2.7,2.7-4.8.9-2.1,1.6-4.7,2.1-7.7h.4c-.5,3.1-1.3,5.8-2.2,8.1s-2,4.1-3.2,5.5c-1,1.2-2.3,1.9-3.6,1.9Zm7.6-.2c-.6,0-1-.3-1.1-.8-.1-.6-.1-1.6.2-3l2-11.5c.1-.4.4-.6,1-.6.3,0,.6,0,.7.1.1,0,.2.1.2.2s-.1.4-.2,1.1c-.1.6-.3,1.3-.4,1.9l-1.6,8.8c-.3,1.6,0,2.4.7,2.4.3,0,.7-.2,1.2-.5s1-.8,1.6-1.4c.1-.1.2-.1.3,0s.1.2,0,.3c-.9,1-1.7,1.8-2.5,2.3-.7.5-1.4.7-2.1.7Z"/><path d="M301.6,292.2c-1.2,0-2.2-.4-3-1.1s-1.3-1.7-1.7-3c-.3-1.2-.3-2.6,0-4.1s.8-2.9,1.6-4.1s1.8-2.2,2.9-2.9c1.2-.7,2.4-1.1,3.7-1.1s2.4.4,3.2,1.1s1.4,1.7,1.6,3c.3,1.2.3,2.6,0,4-.3,1.6-.9,3.1-1.8,4.3s-1.9,2.2-3,2.9-2.3,1-3.5,1Zm1.4-1c1.2,0,2.2-.5,3.2-1.4s1.6-2.3,1.9-4c.2-.9.2-1.9.2-2.9-.1-1-.2-2-.6-2.9-.3-.9-.8-1.7-1.4-2.3s-1.4-.9-2.3-.9c-1.2,0-2.3.5-3.3,1.5s-1.6,2.3-2,4c-.2,1-.3,2-.2,3s.3,2,.6,2.9c.4.9.9,1.6,1.5,2.2.7.6,1.5.8,2.4.8Z"/><path d="M277.3,302.5c-.1,0-.2,0-.2-.2s0-.3.1-.3c.6-.1,1.1-.2,1.4-.4s.5-.4.7-.9c.2-.4.3-1,.4-1.8l4-22.6c0-.1.1-.2.2-.4.2-.2.3-.4.6-.6.2-.2.4-.5.6-.8s.3-.7.4-1.1c0-.1.1-.1.2-.1.2,0,.2.1.2.2l-4.5,25.1c-.2,1.1-.1,1.8.2,2.1s1,.4,2.2.3c.1-.1.2,0,.2.2.1.2,0,.2-.1.3l-6.6,1Zm7.9-10.8c-1.1,0-1.8,0-2.3-.1-.4-.1-.9-.2-1.2-.2l.4-2c.5.3,1.1.6,1.7.9.7.2,1.5.4,2.4.4c1.2,0,2.3-.3,3.1-1c.9-.7,1.6-1.6,2.1-2.7s.9-2.5,1.1-3.9c.1-.9.1-1.8,0-2.6s-.4-1.5-.8-2.1c-.5-.6-1.3-.8-2.4-.8-1.2,0-2.5.4-3.7,1.1s-2.6,1.8-4.3,3c-.1,0-.2,0-.3-.1s-.1-.2,0-.2c1.6-1.4,3.2-2.6,4.8-3.6c1.7-1,3.3-1.5,4.9-1.5c1.4,0,2.5.5,3.1,1.4s.8,2.3.6,4.1c-.2,1.3-.6,2.6-1.2,3.8s-1.3,2.3-2.2,3.2c-.8.9-1.8,1.6-2.8,2.2-1,.4-2,.7-3,.7Z"/><path d="M269.9,292.2c-1.2,0-2.2-.4-3-1.1s-1.3-1.7-1.7-3c-.3-1.2-.3-2.6,0-4.1s.8-2.9,1.6-4.1s1.8-2.2,2.9-2.9c1.2-.7,2.4-1.1,3.7-1.1s2.4.4,3.2,1.1s1.4,1.7,1.6,3c.3,1.2.2,2.6,0,4-.3,1.6-.9,3.1-1.8,4.3s-1.9,2.2-3,2.9c-1.2.7-2.4,1-3.5,1Zm1.3-1c1.2,0,2.2-.5,3.2-1.4s1.6-2.3,1.9-4c.2-.9.2-1.9.2-2.9-.1-1-.2-2-.6-2.9-.3-.9-.8-1.7-1.4-2.3s-1.4-.9-2.3-.9c-1.2,0-2.3.5-3.3,1.5s-1.6,2.3-2,4c-.2,1-.3,2-.2,3s.3,2,.6,2.9c.4.9.9,1.6,1.5,2.2.8.6,1.5.8,2.4.8Z"/><path d="M258.5,292c-.6,0-1-.3-1.1-.8-.1-.6-.1-1.6.2-3l1.1-6.3c.3-1.6.3-2.7,0-3.5-.2-.8-.7-1.1-1.5-1.1s-1.7.6-2.7,1.7c-.9,1.1-1.8,2.7-2.7,4.9-.8,2.1-1.5,4.7-2.1,7.7h-.4c.5-3.1,1.3-5.7,2.2-8.1.9-2.3,2-4.2,3.1-5.5c1.2-1.3,2.4-2,3.6-2c1.1,0,1.7.4,2.1,1.2.3.8.4,2.1,0,4l-1.3,7c-.1.8-.1,1.4,0,1.8s.4.6.7.6.7-.2,1.2-.5c.5-.4,1-.8,1.6-1.4.1-.1.2-.1.3,0s.1.2,0,.3c-.9,1-1.7,1.7-2.4,2.3-.5.5-1.2.7-1.9.7Zm-18.3,0c-.3,0-.6,0-.7-.1-.1,0-.1-.1-.1-.2s.1-.4.2-1s.3-1.2.4-1.8l1.7-9c.3-1.6,0-2.4-.7-2.4-.3,0-.7.2-1.2.5s-1,.8-1.6,1.4c-.1.1-.2.1-.3,0s-.1-.2,0-.3c.9-1,1.7-1.8,2.4-2.3.8-.5,1.5-.8,2.1-.8s1,.3,1.1.9c.2.6.1,1.6-.2,3l-2.1,11.5c-.1.4-.4.6-1,.6Zm8.7,0c-.3,0-.6,0-.7-.1-.1,0-.1-.1-.1-.2s.1-.4.2-1.1c.2-.7.3-1.3.4-1.9l1.3-6.9c.2-1.6.2-2.7,0-3.5s-.6-1.1-1.3-1.1c-.8,0-1.7.6-2.6,1.7s-1.8,2.7-2.7,4.9c-.8,2.1-1.5,4.7-2.1,7.7h-.4c.5-3.1,1.3-5.7,2.2-8.1.9-2.3,2-4.2,3.1-5.5c1.2-1.3,2.4-2,3.6-2c1,0,1.7.4,2,1.2.4.8.4,2.1,0,4l-1.9,10.3c-.1.4-.4.6-1,.6Z"/><path d="M223.1,292.2c-.8,0-1.5-.3-1.9-.9s-.5-1.7-.4-3.2c.2-1.4.7-2.9,1.3-4.3.7-1.4,1.6-2.8,2.5-4c1-1.2,2.1-2.1,3.2-2.8s2.2-1.1,3.2-1.1c.5,0,.9.1,1.4.3.4.2.8.4,1.1.8s.5.9.6,1.5l-1.5-1c.3-.1.6-.3,1.1-.6.4-.4.7-.8.8-1.3.1-.1.1-.1.3-.1s.2.1.2.1l-2.3,12.5c-.3,1.6-.1,2.4.6,2.4.3,0,.7-.2,1.2-.5.5-.4,1-.8,1.6-1.4.1-.1.2-.1.3,0s.1.2,0,.3c-.9,1-1.7,1.7-2.4,2.3-.7.5-1.4.8-2.1.8-.6,0-1-.3-1.1-.8-.1-.6-.1-1.6.2-3l.9-5.5.6-.7c-.8,1.9-1.8,3.7-2.8,5.3-1.1,1.6-2.2,2.8-3.3,3.7-1.2.8-2.3,1.2-3.3,1.2Zm1.1-1.7c.8,0,1.6-.3,2.4-.9s1.6-1.4,2.4-2.4s1.5-2.1,2.1-3.2c.6-1.2,1-2.4,1.2-3.5.2-.9.1-1.7-.3-2.4s-1.1-1-2.1-.9c-.9,0-1.9.5-3,1.3-1,.8-1.9,2-2.7,3.4s-1.3,3-1.5,4.8c-.2,1.2-.2,2.2.1,2.8s.6,1,1.4,1Z"/><path d="M212,292.1c-.9,0-1.8-.2-2.5-.7s-1-1-.9-1.7c.1-.3.2-.6.4-.7s.4-.2.7-.2.5.1.6.4c.2.3.3.6.5.9s.4.6.8.9c.3.3.8.4,1.5.4.8,0,1.4-.2,1.9-.6s.8-1.1.9-2c.1-.8,0-1.5-.3-2.1s-.8-1.1-1.4-1.6-1.1-.9-1.7-1.4-1-1-1.3-1.6-.4-1.3-.2-2.1c.2-.9.5-1.6,1-2.1.6-.6,1.2-1,1.9-1.3s1.5-.4,2.2-.4c.9,0,1.6.2,2.2.6s.9.8.8,1.3c-.1.3-.2.6-.4.8-.2.1-.4.2-.6.2-.3,0-.6-.1-.8-.3s-.4-.4-.6-.7-.4-.5-.7-.7-.7-.3-1.2-.3-1,.1-1.4.4c-.4.2-.7.7-.8,1.3-.1.8,0,1.5.3,2.1s.8,1.1,1.3,1.6c.6.5,1.1,1,1.7,1.5s1,1.1,1.3,1.7.4,1.4.3,2.2-.5,1.5-1,2.2-1.1,1.2-1.9,1.7c-.8.1-1.7.3-2.6.3Z"/><path d="M189.2,292.2c-1.2,0-2.2-.4-3-1.1s-1.3-1.7-1.7-3c-.3-1.2-.3-2.6,0-4.1s.8-2.9,1.6-4.1s1.8-2.2,2.9-2.9c1.2-.7,2.4-1.1,3.7-1.1s2.4.4,3.2,1.1s1.4,1.7,1.6,3c.3,1.2.2,2.6,0,4-.3,1.6-.9,3.1-1.8,4.3s-1.9,2.2-3,2.9-2.3,1-3.5,1Zm1.4-1c1.2,0,2.2-.5,3.2-1.4s1.6-2.3,1.9-4c.2-.9.2-1.9.2-2.9-.1-1-.3-2-.6-2.9s-.8-1.7-1.4-2.3-1.4-.9-2.3-.9c-1.2,0-2.3.5-3.3,1.5s-1.6,2.3-2,4c-.2,1-.3,2-.2,3s.3,2,.6,2.9c.4.9.9,1.6,1.5,2.2.8.6,1.5.8,2.4.8Z"/><path d="M160,292.2c-.8,0-1.5-.3-1.9-.9s-.5-1.7-.4-3.2c.2-1.4.7-2.9,1.3-4.3.7-1.4,1.6-2.8,2.5-4c1-1.2,2.1-2.1,3.2-2.8s2.2-1.1,3.2-1.1c.5,0,.9.1,1.4.3.4.2.8.4,1.1.8s.5.9.6,1.5l-1.5-1c.3-.1.6-.3,1.1-.6.4-.4.7-.8.8-1.3.1-.1.1-.1.3-.1s.2.1.2.1l-2.3,12.5c-.3,1.6-.1,2.4.6,2.4.3,0,.7-.2,1.2-.5.5-.4,1-.8,1.6-1.4.1-.1.2-.1.3,0s.1.2,0,.3c-.9,1-1.7,1.7-2.4,2.3-.7.5-1.4.8-2.1.8-.6,0-1-.3-1.1-.8-.1-.6-.1-1.6.2-3l.9-5.5.6-.7c-.8,1.9-1.8,3.7-2.8,5.3-1.1,1.6-2.2,2.8-3.3,3.7-1.1.8-2.2,1.2-3.3,1.2Zm1.2-1.7c.8,0,1.6-.3,2.4-.9s1.6-1.4,2.4-2.4s1.5-2.1,2.1-3.2c.6-1.2,1-2.4,1.2-3.5.2-.9.1-1.7-.3-2.4s-1.1-1-2.1-.9c-.9,0-1.9.5-3,1.3-1,.8-1.9,2-2.7,3.4s-1.3,3-1.5,4.8c-.2,1.2-.2,2.2.1,2.8s.6,1,1.4,1Z"/><path d="M150.2,292.1c-.5,0-.9-.1-1.4-.3-.4-.2-.7-.5-.9-.9-.2-.5-.2-1.1-.1-1.9l1.7-9.4c.2-1,.2-1.6,0-1.8-.1-.2-.6-.4-1.4-.4-.1,0-.1-.1-.1-.2c0-.2.1-.2.2-.2.8,0,1.6-.3,2.2-.8.6-.6,1-1.3,1.2-2.1c0-.1.1-.1.3-.1s.3,0,.3.1l-2.4,13.6c-.2,1.1-.2,1.9.1,2.4s.8.8,1.7.8c.8,0,1.5-.2,2-.5.6-.3,1.1-.7,1.7-1.1.1-.1.1,0,.2.1s.1.2.1.2c-1.1.9-2.1,1.6-2.9,2-1,.4-1.8.5-2.5.5Zm7.3-14c-.9-.1-1.8-.2-2.9-.2-1.1-.1-2.2-.1-3.5-.1l.1-.8c.8,0,1.7,0,2.6-.1s1.8-.1,2.7-.2s1.6-.1,2.2-.2c.1,0,.2,0,.3.1s.1.1,0,.2c0,.2-.1.3-.3.6-.1.2-.3.4-.5.6s-.5.1-.7.1Z"/><path d="M138.1,292.1c-1.4,0-2.5-.4-3.2-1.1-.8-.7-1.3-1.7-1.6-2.9-.2-1.2-.2-2.5,0-3.8.2-1,.5-2,1-3c.6-1,1.2-1.9,2-2.7s1.7-1.5,2.7-2s2.1-.8,3.2-.8c.9,0,1.6.2,2.1.6.4.4.6.9.5,1.5s-.5,1.2-1.1,1.8-1.3,1.1-2.3,1.5c-.9.4-2,.8-3.1,1.2-1.1.3-2.3.6-3.6.7l.1-.5c2.1-.3,3.8-.8,5.2-1.4c1.4-.7,2.3-1.5,2.5-2.5.2-.7.1-1.2-.4-1.5s-1-.4-1.5-.4c-.9,0-1.8.3-2.5.8-.7.6-1.3,1.3-1.7,2.2s-.7,1.9-.9,3c-.3,1.5-.3,2.8-.1,4s.7,2.1,1.4,2.8s1.6,1,2.8,1c.7,0,1.3-.1,2-.3s1.4-.5,2.1-1c.1-.1.2,0,.2.1.1.1.1.2,0,.3-1,.8-2,1.4-2.9,1.7-1,.6-2,.7-2.9.7Z"/><path d="M118,292c-.3,0-.6,0-.7-.1-.1,0-.2-.1-.2-.2s.1-.4.2-1c.2-.6.3-1.3.4-2l4.1-21.9c.2-.8.1-1.4-.4-1.6-.4-.2-1.2-.1-2.5.6-.1.1-.2,0-.3-.2s0-.3.1-.3l4.9-2.4c.1-.1.2,0,.3.1s.1.2.1.2l-3.7,20.1-1.5,8c.2.5-.2.7-.8.7Zm9.6,0c-.6,0-1.1-.2-1.5-.6s-.9-1.1-1.5-2.1l-2.3-4c-.3-.5-.6-.9-.9-1s-.7-.1-1.4,0l3.4-1.1l2.7,4.8c.6,1,1,1.6,1.4,1.9s.8.4,1.2.4c.3,0,.7-.1,1.2-.4s1-.7,1.6-1.3c.1-.1.2-.1.3,0s.1.2,0,.3c-1.8,2.1-3.2,3.1-4.2,3.1Zm-7.7-7.6v-.5c1.8-.4,3.2-.8,4.3-1.3c1.1-.4,1.9-1,2.5-1.5.6-.6,1-1.4,1.1-2.3.1-.6.1-1.1-.2-1.4-.2-.3-.5-.5-1-.5-1.4,0-2.7.6-3.8,1.7-1.1,1.2-1.9,2.7-2.4,4.7l-.9-1.4c.6-1.2,1.4-2.2,2.3-3.2.9-.9,1.9-1.6,3-2.2s2.2-.8,3.4-.8c.7,0,1.1.1,1.4.4s.5.6.6,1s.1.7,0,.9c-.1.8-.7,1.6-1.6,2.4s-2.1,1.5-3.7,2.1c-1.4.9-3.1,1.5-5,1.9Z"/><path d="M110.5,292c-.6,0-1-.3-1.2-.8-.1-.6-.1-1.6.2-3l1.1-6.3c.6-3.1.1-4.6-1.5-4.6-.9,0-1.8.6-2.8,1.7-.9,1.1-1.9,2.7-2.7,4.9-.8,2.1-1.5,4.7-2.1,7.7h-.4c.6-3.1,1.3-5.7,2.2-8.1.9-2.3,2-4.2,3.2-5.5s2.5-2,3.8-2c1.1,0,1.9.4,2.3,1.2s.4,2.1,0,4l-1.3,7c-.1.8-.1,1.4,0,1.8s.4.6.7.6.7-.2,1.1-.5c.5-.4,1-.8,1.6-1.4.1-.1.2-.1.3,0s.1.2,0,.3c-.9,1-1.7,1.7-2.4,2.3-.7.5-1.4.7-2.1.7Zm-10,0c-.3,0-.6,0-.7-.1-.1,0-.2-.1-.2-.2s.1-.4.2-1c.2-.6.3-1.3.4-2l1.6-8.8c.3-1.6,0-2.4-.7-2.4-.3,0-.7.2-1.2.5s-1,.8-1.6,1.4c-.1.1-.2.1-.3,0s-.1-.2,0-.3c.9-1,1.7-1.8,2.4-2.3.8-.5,1.5-.8,2.1-.8s1,.3,1.1.9c.2.6.1,1.6-.2,3l-2,11.5c.1.4-.3.6-.9.6Z"/><path d="M83.3,292.2c-.8,0-1.5-.3-1.9-.9s-.5-1.7-.4-3.2c.2-1.4.7-2.9,1.3-4.3.7-1.4,1.6-2.8,2.5-4c1-1.2,2.1-2.1,3.2-2.8s2.2-1.1,3.2-1.1c.5,0,.9.1,1.4.3.4.2.8.4,1.1.8s.5.9.6,1.5l-1.5-1c.3-.1.6-.3,1.1-.6.4-.4.7-.8.8-1.3.1-.1.1-.1.3-.1s.2.1.2.1l-2.3,12.5c-.3,1.6-.1,2.4.6,2.4.3,0,.7-.2,1.2-.5.5-.4,1-.8,1.6-1.4.1-.1.2-.1.3,0s.1.2,0,.3c-.9,1-1.7,1.7-2.4,2.3-.7.5-1.4.8-2.1.8-.6,0-1-.3-1.1-.8-.1-.6-.1-1.6.2-3l.9-5.5.6-.7c-.8,1.9-1.8,3.7-2.8,5.3-1.1,1.6-2.2,2.8-3.3,3.7-1.1.8-2.2,1.2-3.3,1.2Zm1.2-1.7c.8,0,1.6-.3,2.4-.9s1.6-1.4,2.4-2.4s1.5-2.1,2.1-3.2c.6-1.2,1-2.4,1.2-3.5.2-.9.1-1.7-.3-2.4s-1.1-1-2.1-.9c-.9,0-1.9.5-3,1.3-1,.8-1.9,2-2.7,3.4s-1.3,3-1.5,4.8c-.2,1.2-.2,2.2.1,2.8s.6,1,1.4,1Z"/><path d="M57,292.2c-.8,0-1.5-.3-1.9-.9s-.5-1.7-.4-3.2c.2-1.4.7-2.9,1.3-4.3.7-1.4,1.6-2.8,2.5-4c1-1.2,2.1-2.1,3.2-2.8s2.2-1.1,3.2-1.1c.5,0,.9.1,1.4.3.4.2.8.4,1.1.8s.5.9.6,1.5l-1.5-1c.3-.1.6-.3,1.1-.6.4-.4.7-.8.8-1.3.1-.1.1-.1.3-.1s.2.1.2.1l-2.3,12.5c-.3,1.6-.1,2.4.6,2.4.3,0,.7-.2,1.2-.5.5-.4,1-.8,1.6-1.4.1-.1.2-.1.3,0s.1.2,0,.3c-.9,1-1.7,1.7-2.4,2.3-.7.5-1.4.8-2.1.8-.6,0-1-.3-1.1-.8-.1-.6-.1-1.6.2-3l.9-5.5.6-.7c-.8,1.9-1.8,3.7-2.8,5.3-1.1,1.6-2.2,2.8-3.3,3.7-1.1.8-2.2,1.2-3.3,1.2Zm1.2-1.7c.8,0,1.6-.3,2.4-.9s1.6-1.4,2.4-2.4s1.5-2.1,2.1-3.2c.6-1.2,1-2.4,1.2-3.5.2-.9.1-1.7-.3-2.4s-1.1-1-2.1-.9c-.9,0-1.9.5-3,1.3-1,.8-1.9,2-2.7,3.4s-1.3,3-1.5,4.8c-.2,1.2-.2,2.2.1,2.8.1.7.6,1,1.4,1Z"/><path d="M44.2,292.2c-.9,0-1.6-.3-2.2-.8-.6-.6-.9-1.3-1.1-2.2s-.2-1.8-.1-2.6c.2-1.2.6-2.5,1.2-3.8s1.2-2.5,1.7-3.6c.2-.4.2-.6.1-.8s-.3-.2-.6-.2h-2.1c-.7,0-1.2.1-1.5.2s-.6.3-.8.6-.4.8-.6,1.4c-.1.1-.2.1-.3.1-.1-.1-.2-.1-.1-.3.4-1.1.7-2,1-2.5s.6-.9,1.1-1c.4-.2,1-.2,1.8-.2h3.5c.2,0,.4,0,.4.1.1.1,0,.2-.1.4-.6,1.4-1.2,3-1.8,4.6s-.9,3.1-1.1,4.3c-.2,1.5,0,2.7.4,3.5.5.8,1.2,1.2,2.1,1.2.8,0,1.6-.3,2.4-.8.8-.6,1.5-1.3,2.1-2.3.7-1,1.2-2.1,1.5-3.4.4-1.3.5-2.3.4-3.1s-.3-1.3-.5-1.7c-.3-.3-.5-.6-.6-.7s-.3-.3-.6-.5c-.2-.2-.4-.5-.4-.9s.2-.8.5-.9c.3-.2.6-.3.9-.3.6,0,1,.3,1.3,1s.4,1.5.4,2.4s0,1.9-.2,2.7c-.2,1.6-.7,3-1.3,4.2s-1.3,2.3-2.1,3.1-1.6,1.5-2.4,1.9c-.7.7-1.5.9-2.3.9Z"/><path d="M27.8,291.4h-.4c.2-1.1.5-2.4.9-3.8s.9-2.7,1.4-4.1s1.1-2.6,1.7-3.8c.6-1.1,1.2-2,1.8-2.7s1.2-1,1.8-1c.3,0,.7.1,1,.3s.6.4.8.8c.2.3.3.7.2,1s-.2.6-.4.8c-.2.1-.4.2-.7.2-.4,0-.7-.1-.9-.3s-.3-.5-.4-.7-.3-.4-.6-.4c-.4,0-.8.3-1.3.9-.4.6-.9,1.5-1.4,2.5s-1,2.2-1.4,3.4-.9,2.4-1.2,3.6c-.4,1.3-.7,2.4-.9,3.3Zm-1,.6c-.3,0-.6,0-.7-.1-.1,0-.1-.1-.1-.2s.1-.4.2-1.1c.2-.7.3-1.3.4-1.9l1.2-6.9c.2-1.2.3-2.1.3-2.7-.1-.6-.2-1-.4-1.2s-.4-.4-.6-.4c-.4,0-.8.2-1.3.5-.4.3-.8.6-1.1.9-.1.1-.1,0-.2,0-.1-.1-.1-.2-.1-.3.7-.8,1.4-1.5,2.1-1.9s1.4-.7,2-.7c.4,0,.8.2,1,.5.3.3.4.9.4,1.7s-.1,2-.4,3.6l-1.7,9.6c0,.4-.4.6-1,.6Z"/><path d="M4.6,291.7c-.1,0-.1-.1-.1-.2s0-.2.1-.2c.8,0,1.5-.1,1.9-.2.5-.1.8-.4,1-.8s.4-1,.6-1.7l3.2-18.3c.2-1.1.2-1.9-.1-2.2s-1.1-.5-2.4-.5c-.1,0-.1-.1-.1-.2s0-.2.1-.2c.5,0,1.1,0,1.7.1.7,0,1.4,0,2.1,0c.6,0,1.3,0,2.2-.1.8-.1,1.8-.1,2.7-.1c1.3,0,2.5.2,3.6.8c1.1.5,1.8,1.2,2.4,2.3.6,1,.7,2.3.4,3.9-.2,1.3-.7,2.5-1.4,3.4s-1.5,1.7-2.4,2.3-1.9,1.1-3,1.3c-1,.3-2,.4-2.9.4-.3,0-.6,0-.9,0-.2,0-.5-.1-.8-.2-.1,0-.1-.1,0-.3s.1-.3.2-.2c.2.1.4.1.6.1s.4,0,.6,0c1.1,0,2.1-.2,3.2-.7c1.1-.4,2-1.1,2.8-2s1.4-2.1,1.7-3.5c.3-1.5.2-2.8-.2-3.9s-1-1.9-1.9-2.4c-.8-.6-1.8-.9-2.8-.9-.8,0-1.5.1-1.9.2s-.8.3-1,.7-.4,1.1-.6,2L10,288.6c-.2,1.1-.1,1.9.2,2.2s1.1.5,2.4.5c.1,0,.1.1.1.2s0,.2-.1.2c-.5,0-1.1,0-1.8,0s-1.4,0-2.2,0c-.7,0-1.4,0-2.1,0-.9,0-1.4,0-1.9,0Z"/></g></svg>
