<?xml version="1.0" encoding="utf-8"?>
<!-- Generator: Adobe Illustrator 25.0.1, SVG Export Plug-In . SVG Version: 6.00 Build 0)  -->
<svg version="1.1" id="Layer_1" xmlns="http://www.w3.org/2000/svg" xmlns:xlink="http://www.w3.org/1999/xlink" x="0px" y="0px"
	 viewBox="0 0 199.4 87.7" style="enable-background:new 0 0 199.4 87.7;" xml:space="preserve">
<style type="text/css">
	.st0{fill:#231F20;}
	.st1{fill:none;stroke:#231F20;stroke-width:4.9749;stroke-miterlimit:10;}
</style>
<g>
	<g id="ANZOTICA">
		<g>
			<path class="st0" d="M9.8,0.7h7.5l8.7,52.7h-5.8l-1.5-10.1H9L7.7,53.4H1.8L9.8,0.7z M9.7,38.3h8.1l-4.2-27.9h-0.1L9.7,38.3z"/>
			<path class="st0" d="M48.5,0.7H54v52.7h-4.6L37.6,17.2L38,30.5v22.9h-5.7V0.7h4.7l12.2,35.9l-0.6-15.2V0.7z"/>
			<path class="st0" d="M62.7,0.7H79v4.7L68.2,48.2h10.6v5.2h-17V48L72.6,5.8h-9.9V0.7z"/>
			<path class="st0" d="M84.9,15c0-6,1.1-10.1,3.2-12.3C89.8,0.9,92.3,0,95.5,0c4.7,0,7.7,1.9,9,5.8c0.8,2.3,1.2,5.4,1.2,9.2v23.2
				c0,5.5-0.8,9.5-2.3,12c-1.5,2.5-4.2,3.8-8.1,3.8c-3.8,0-6.6-1.3-8.1-3.8c-1.6-2.5-2.4-6.5-2.4-12V15z M99.5,14.6
				c0-3.4-0.3-5.8-0.8-7.2c-0.5-1.4-1.6-2.1-3.3-2.1s-2.8,0.7-3.4,2.2c-0.6,1.4-1,3.8-1,7.1v23.7c0,4,0.3,6.7,0.8,8.2
				c0.6,1.4,1.7,2.2,3.4,2.2c1.7,0,2.8-0.7,3.4-2.2c0.6-1.5,0.8-4.2,0.8-8.2V14.6z"/>
			<path class="st0" d="M110.3,0.7h17.4v5.2h-5.4v47.6h-6.2V5.8h-5.8V0.7z"/>
			<path class="st0" d="M133.3,0.7h6.2v52.7h-6.2V0.7z"/>
			<path class="st0" d="M148.1,15.9c0-4,0.3-6.9,1-8.8c0.7-1.9,1.4-3.3,2.2-4.1c1.7-1.9,4.2-2.9,7.4-2.9c4.6,0,7.5,2,8.8,6
				c0.8,2.3,1.1,5.4,1.1,9.2v5.8h-6.1v-5.9c0-3.4-0.2-5.7-0.6-6.8c-0.4-1.2-0.8-2-1.3-2.4c-0.5-0.4-1.2-0.6-2-0.6
				c-1.7,0-2.8,0.8-3.4,2.4c-0.6,1.6-0.9,4-0.9,7.4V38c0,4,0.3,6.8,0.9,8.4s1.7,2.4,3.3,2.4c1.6,0,2.7-0.8,3.3-2.4
				c0.5-1.6,0.8-4.4,0.8-8.4v-5.8h6.1v5.8c0,5.5-0.8,9.6-2.3,12.2s-4.1,3.9-7.9,3.9s-6.4-1.3-8-4c-1.6-2.7-2.4-6.7-2.4-12.1V15.9z"
				/>
			<path class="st0" d="M181.5,0.7h7.5l8.7,52.7h-5.8l-1.5-10.1h-9.6l-1.4,10.1h-5.9L181.5,0.7z M181.5,38.3h8.1l-4.2-27.9h-0.1
				L181.5,38.3z"/>
		</g>
		<line class="st1" x1="194.2" y1="50.9" x2="199.4" y2="50.9"/>
		<line class="st1" x1="0" y1="50.9" x2="2.7" y2="50.9"/>
	</g>
	<g>
		<path class="st0" d="M49.2,70.6c0-1.8,0.1-3.1,0.4-4s0.6-1.5,1-1.9c0.8-0.9,1.9-1.3,3.3-1.3c2,0,3.4,0.9,4,2.7
			c0.3,1,0.5,2.4,0.5,4.1v2.6h-2.7v-2.6c0-1.5-0.1-2.5-0.2-3.1c-0.2-0.5-0.4-0.9-0.6-1.1c-0.2-0.2-0.5-0.3-0.9-0.3
			c-0.7,0-1.3,0.4-1.5,1.1c-0.3,0.7-0.4,1.8-0.4,3.3v10.3c0,1.8,0.1,3.1,0.4,3.8s0.7,1.1,1.5,1.1c0.7,0,1.2-0.4,1.5-1.1
			c0.2-0.7,0.4-2,0.4-3.8v-2.6h2.8v2.6c0,2.5-0.3,4.3-1,5.5c-0.7,1.2-1.9,1.8-3.5,1.8c-1.7,0-2.9-0.6-3.6-1.8
			c-0.7-1.2-1.1-3-1.1-5.5V70.6z"/>
		<path class="st0" d="M61.5,70.2c0-2.7,0.5-4.5,1.5-5.6c0.8-0.8,1.9-1.2,3.3-1.2c2.1,0,3.5,0.9,4.1,2.6c0.4,1,0.5,2.4,0.5,4.1v10.5
			c0,2.5-0.3,4.3-1,5.4c-0.7,1.1-1.9,1.7-3.6,1.7s-2.9-0.6-3.7-1.7c-0.7-1.1-1.1-2.9-1.1-5.4V70.2z M68.1,70c0-1.5-0.1-2.6-0.4-3.2
			s-0.7-0.9-1.5-0.9c-0.7,0-1.2,0.3-1.5,1c-0.3,0.6-0.4,1.7-0.4,3.2v10.7c0,1.8,0.1,3,0.4,3.7c0.3,0.7,0.8,1,1.5,1
			c0.8,0,1.3-0.3,1.5-1s0.4-1.9,0.4-3.7V70z"/>
		<path class="st0" d="M74.2,71.1c-0.2-0.6-0.2-1.2-0.2-2c0-1.7,0.3-3.1,0.9-4.1c0.6-1,1.8-1.5,3.6-1.5c2.3,0,3.7,1.1,4.1,3.3
			c0.2,1,0.3,2.2,0.3,3.6v1.4h-2.7v-1.6c0-1.5-0.1-2.5-0.2-3c-0.2-0.5-0.3-0.9-0.6-1c-0.2-0.2-0.5-0.3-0.9-0.3
			c-0.7,0-1.2,0.2-1.5,0.7c-0.3,0.5-0.4,1.2-0.4,2.2c0,1,0.1,1.7,0.4,2.1c0.3,0.4,0.6,0.9,1,1.3c0.4,0.4,0.6,0.6,0.7,0.7l1.6,1.7
			c1.9,2,2.9,4.3,2.9,6.8c0,2-0.3,3.6-0.9,4.7c-0.6,1.1-1.8,1.6-3.6,1.6c-2.1,0-3.5-0.9-4.1-2.8c-0.3-1.1-0.5-2.4-0.5-4.2
			c0,0,0-0.1,0-0.1v-2.3h2.7v2.4c0,1.7,0.1,2.9,0.4,3.6c0.3,0.7,0.7,1,1.4,1c0.7,0,1.2-0.2,1.4-0.5c0.3-0.3,0.4-0.8,0.5-1.5
			c0-0.7,0.1-1.4,0.1-2.2c0-1.6-0.7-3.2-2.2-4.6L76.8,75C75.4,73.6,74.6,72.3,74.2,71.1z"/>
		<path class="st0" d="M96.4,63.7h3.5v23.7h-2.5v-9.5l0.2-8.9l-3.2,18.3h-2.5l-3.4-18.3l0.2,8.9v9.5h-2.5V63.7h3.5l3.4,19.5
			L96.4,63.7z"/>
		<path class="st0" d="M103.7,63.7h7.1V66h-4.3v8.1h4.1v2.3h-4.1v8.6h4.4v2.3h-7.1V63.7z"/>
		<path class="st0" d="M112.5,63.7h7.8V66h-2.4v21.4h-2.8V66h-2.6V63.7z"/>
		<path class="st0" d="M122.9,63.7h2.8v23.7h-2.8V63.7z"/>
		<path class="st0" d="M129.5,70.6c0-1.8,0.1-3.1,0.4-4c0.3-0.8,0.6-1.5,1-1.9c0.8-0.9,1.9-1.3,3.3-1.3c2,0,3.4,0.9,4,2.7
			c0.3,1,0.5,2.4,0.5,4.1v2.6H136v-2.6c0-1.5-0.1-2.5-0.2-3.1c-0.2-0.5-0.4-0.9-0.6-1.1s-0.5-0.3-0.9-0.3c-0.7,0-1.3,0.4-1.5,1.1
			c-0.3,0.7-0.4,1.8-0.4,3.3v10.3c0,1.8,0.1,3.1,0.4,3.8c0.3,0.7,0.8,1.1,1.5,1.1c0.7,0,1.2-0.4,1.5-1.1c0.2-0.7,0.4-2,0.4-3.8v-2.6
			h2.8v2.6c0,2.5-0.3,4.3-1,5.5c-0.7,1.2-1.9,1.8-3.5,1.8s-2.9-0.6-3.6-1.8c-0.7-1.2-1.1-3-1.1-5.5V70.6z"/>
		<path class="st0" d="M141.9,71.1c-0.2-0.6-0.2-1.2-0.2-2c0-1.7,0.3-3.1,1-4.1c0.6-1,1.8-1.5,3.6-1.5c2.3,0,3.7,1.1,4.1,3.3
			c0.2,1,0.3,2.2,0.3,3.6v1.4h-2.7v-1.6c0-1.5-0.1-2.5-0.2-3c-0.2-0.5-0.3-0.9-0.6-1c-0.2-0.2-0.5-0.3-0.9-0.3
			c-0.7,0-1.2,0.2-1.5,0.7c-0.3,0.5-0.4,1.2-0.4,2.2c0,1,0.1,1.7,0.4,2.1c0.3,0.4,0.6,0.9,1,1.3s0.6,0.6,0.7,0.7l1.6,1.7
			c1.9,2,2.9,4.3,2.9,6.8c0,2-0.3,3.6-0.9,4.7c-0.6,1.1-1.8,1.6-3.6,1.6c-2.1,0-3.5-0.9-4.1-2.8c-0.3-1.1-0.5-2.4-0.5-4.2
			c0,0,0-0.1,0-0.1v-2.3h2.7v2.4c0,1.7,0.1,2.9,0.4,3.6c0.3,0.7,0.7,1,1.4,1s1.2-0.2,1.4-0.5c0.3-0.3,0.4-0.8,0.5-1.5
			c0-0.7,0.1-1.4,0.1-2.2c0-1.6-0.7-3.2-2.2-4.6l-1.5-1.5C143.1,73.6,142.2,72.3,141.9,71.1z"/>
	</g>
</g>
</svg>
