<?xml version="1.0" encoding="utf-8"?>
<!-- Generator: Adobe Illustrator 24.1.2, SVG Export Plug-In . SVG Version: 6.00 Build 0)  -->
<svg version="1.1" id="Layer_1" xmlns="http://www.w3.org/2000/svg" xmlns:xlink="http://www.w3.org/1999/xlink" x="0px" y="0px"
	 viewBox="0 0 900.1 202.7" style="enable-background:new 0 0 900.1 202.7;" xml:space="preserve">
<style type="text/css">
	.st0{fill:#A4D8DC;}
	.st1{fill:#A9DADE;}
	.st2{fill:#B8E1E4;}
	.st3{fill:#94D1D6;}
	.st4{fill:#816562;}
	.st5{fill:#759E56;}
	.st6{opacity:0.2;}
	.st7{opacity:0.8;}
	.st8{fill:#696867;}
	.st9{fill:#7EA77B;}
	.st10{fill:#6C9C6B;}
	.st11{opacity:0.1;enable-background:new    ;}
	.st12{fill:#84A969;}
	.st13{fill:#B6E0E3;}
	.st14{fill:#D4E193;}
	.st15{fill:#A8CF78;}
	.st16{fill:#E6DCD1;}
	.st17{fill:#638749;}
	.st18{fill:#FFFFFF;}
	.st19{fill:#CB8456;}
	.st20{fill:#BABDC6;}
	.st21{fill:#625955;}
	.st22{fill:#623E3B;}
	.st23{fill:#C39276;}
	.st24{fill:#C4E3F1;}
	.st25{fill:#EC614E;}
	.st26{fill:#40403F;}
	.st27{fill:#9D9D9C;}
	.st28{fill:#EAB99F;}
	.st29{fill:#CE9B25;}
	.st30{fill:#6193B2;}
	.st31{fill:#3F3F3E;}
	.st32{fill:#4A4A49;}
	.st33{fill:#F4F4F4;}
	.st34{opacity:7.000000e-02;enable-background:new    ;}
	.st35{fill:#EEC7B2;}
	.st36{fill:#9C9C9B;}
	.st37{fill:#B1B1B1;}
	.st38{fill:#3F82A4;}
	.st39{fill:#EDC3AD;}
	.st40{fill:#528FAD;}
	.st41{opacity:0.1;fill:#1D1D1B;enable-background:new    ;}
	.st42{fill:#F0BB9D;}
</style>
<g>
	<g>
		<path class="st0" d="M878,56.1h-0.3H877v1.7h-11v2.3h-3.7v2.5v0.1V63v1v1.7v0.1v0.3V67v1.7v0.1v0.3V70v1.7V72v0.3v0.9v1.7V75v0.3
			v0.9V78v0.1v0.3v0.9V81h-16.9V53h-4.1v-4h-4.5v-3.5l0,0c0.2,0,0.3-0.1,0.3-0.3s-0.1-0.3-0.3-0.3l0,0l-7.2-6.6h0.1v-3.7h-1.4
			l-0.4-8.2h-0.1l0,0l-0.4,8.2H826v3.7l-7.2,6.6l0,0c-0.2,0-0.3,0.1-0.3,0.3s0.1,0.3,0.3,0.3l0,0V49h-4v18.2l0,0V53h-4.1v20H801
			v-8.6h-3.3v-3.6h-2.5v-9.2H794v9.2h-1.2v-6h-1.2v6H762v3.6h-3.3V84H739v-1.8v-1v-0.4v-0.1v-2v-1v-0.4v-0.1v-2v-1v-0.4v-0.1v-2v-1
			V70v-0.1v-2v-1v-0.4v-0.1v-2v-1V63v-0.1v-2v-1v-0.4v-0.1v-2v-1V56v-0.1v-2v-1v-0.4V52v-2v-1v-0.4v-0.1v-3l0,0h-2.9v-2.7h-2v-2
			h-3.7h-0.5v2h-8.6v2.7h-2.9v3v0.1V49v1v2v0.1v0.4v1v2v0.1V56v1v2v0.1v0.4v0.8l-11.9-4.1h-0.3l-14.9,5.2v-0.8h-0.9v-1.1h0.9v-1.3
			h-0.9v-1.1h0.9V56h-0.9v-1h0.9v-1.3h-0.9v-1.1h0.9v-1.3h-0.9v-1.1h0.9V49h-0.9v-1h0.9v-1.3h-0.9v-1.1h0.9v-1.3h-0.9v-1.1h0.9V42
			h-0.9v-1.1h0.9v-1.3h-0.9v-1.1h0.9v-1.3h-0.9v-1.9h-3.6v-5.9h-1.4v-6.1l-1.6,0.3v-1.4h-8.2V25l-1.6,0.3v4.1h-1.4v5.9h-3.2v1.9
			h-1.2v1.3h1.2v1.1h-1.2v1.3h1.2V42h-1.2v1.3h1.2v1.1h-1.2v1.3h1.2v1.1h-1.2V48h1.2v1h-1.2v1.3h1.2v1.1h-1.2v1.3h1.2v1.1h-1.2V55
			h1.2v1h-1.2v1.3h1.2v1.1h-1.2v1.3h1.2v1.1h-1.1v-0.9h-1.6v5.7H647V46.4h-4V34.6h-0.1l-6.5-7.6h-1.6v-6l0,0l-0.6-5.6l0,0l-0.6,5.6
			l0,0v6H632l-6.5,7.6h-0.1v11.7h-4v10.2H603v-1.4V54v-1.9V51v-1.9v-1.2V46v-1.2V43v-1.2V40v-1.2v-1.9v-1.2v-1.9v-1.2v-1.9V23h-2.9
			c-0.1-1.3-1.2-2.4-2.6-2.4h-1.4v-6.5h-0.6v6.5h-1.4c-1.4,0-2.5,1-2.6,2.4h-2.9v22l-7.7,9.7v14.8h-13.3V50h-4.3v-3.3h0.1
			c0.2,0,0.3-0.1,0.3-0.3s-0.1-0.3-0.3-0.3h-0.1h-18h-0.1c-0.2,0-0.3,0.1-0.3,0.3s0.1,0.3,0.3,0.3h0.1V50H541v29.9h-23V55.7h-12.7
			V27l-18.7-14.7v43.4h-12.7V39h-21.4v-9.3h-2.7V39h-18.7V22.3h-4.7V39h-7.3V15h-22v33.3h-22.7v17.2h-15.6V35.7h-4.3v-3.3h0.1
			c0.2,0,0.3-0.1,0.3-0.3s-0.1-0.3-0.3-0.3h-0.1h-18h-0.1c-0.2,0-0.3,0.1-0.3,0.3c0,0.2,0.1,0.3,0.3,0.3h0.1v3.3h-4.3v19.5H319V40.3
			l-7.7-9.7V8.8h-2.9c-0.1-1.3-1.2-2.4-2.6-2.4h-1.4V0h-0.6v6.5h-1.4c-1.4,0-2.5,1-2.6,2.4h-2.9v7.7v1.9v1.2v1.9v1.2v1.9v1.2v1.9V29
			v1.9v1.2V34v1.2v1.9v1.2v1.9v1.2v1.4h-18.4V32h-4V20.3h-0.1l-6.5-7.6h-1.6v-6l0,0l-0.6-5.6l0,0l-0.6,5.6l0,0v6h-1.6l-6.5,7.6h0V32
			h-4v19.1h-19.6v-5.7h-1.6v0.9h-1.1v-1.1h1.2V44h-1.2v-1h1.2v-1.3h-1.2v-1.1h1.2v-1.3h-1.2v-1.1h1.2V37h-1.2v-1h1.2v-1.3h-1.2v-1.1
			h1.2v-1.3h-1.2v-1.1h1.2V30h-1.2v-1.1h1.2v-1.3h-1.2v-1.1h1.2v-1.3h-1.2v-1.1h1.2V23h-1.2v-1.9h-3.2v-5.9h-1.4v-4.1l-1.6-0.3V8
			h-8.2v1.4l-1.6-0.3v6.1h-1.4v5.9h-3.6V23h-0.9v1.3h0.9v1.1h-0.9v1.3h0.9v1.1h-0.9v1.3h0.9V30h-0.9v1.3h0.9v1.1h-0.9v1.3h0.9v1.1
			h-0.9V36h0.9v1h-0.9v1.3h0.9v1.1h-0.9v1.3h0.9v1.1h-0.9V43h0.9v1h-0.9v1.3h0.9v1.1h-0.9v0.8L193.7,42h-0.3l-11.9,4.1v-0.8v-0.4
			v-0.1v-2v-1v-0.4v-0.1v-2v-1v-0.4v-0.1v-2v-1v-0.4V34v-3h-2.9v-2.7H170v-2h-0.5h-3.7v2h-2V31H161l0,0v3v0.1v0.4v1v2v0.1V38v1v2
			v0.1v0.4v1v2v0.1V45v1v2v0.1v0.4v1v2v0.1V52v1v2v0.1v0.4v1v2v0.1V59v1v2v0.1v0.4v1v2v0.1V66v1v1.8h-19.7V50.1H138v-3.6h-29.4v-6
			h-1.2v6h-1.2v-9.2H105v9.2h-2.5v3.6h-3.3v8.6h-9.7v-20h-4.1v14.2l0,0V34.7h-4v-3.5l0,0c0.2,0,0.3-0.1,0.3-0.3
			c0-0.2-0.1-0.3-0.3-0.3l0,0L74,24v-3.7h-1.4l-0.4-8.2l0,0h-0.1l-0.4,8.2h-1.4V24h0.1l-7.2,6.6l0,0c-0.2,0-0.3,0.1-0.3,0.3
			c0,0.2,0.1,0.3,0.3,0.3l0,0v3.5h-4.5v4h-4.1v28h-17V65v-0.9v-0.3v-0.1V62v-1v-0.3v-0.1v-1.7V58v-0.3v-0.1v-1.7V55v-0.3v-0.1v-1.7
			V52v-0.3v-0.1v-1.7V49v-0.3v-0.1v-2.5H34v-2.3H23v-1.7h-0.6H22v-7.4H0v41.4V80v0.3v2.3l0,0V95v7v2.4v1.7v0.9v16.3v0.1h0.8v79h899
			v-64.7h0.3v-0.1v-16.3v-0.9v-1.7v-2.4v-7V97l0,0v-2.3v-0.3v-4.2V48.7h-22L878,56.1L878,56.1z M231.8,51h-1.1v-1h1.1V51z
			 M231.8,48.7h-1.1v-1.1h1.1V48.7z M669.3,65.4h-1.1v-1.1h1.1V65.4z M669.3,63h-1.1v-1h1.1V63z"/>
		<path class="st1" d="M347.4,22H346l-0.4-7.9l0,0h-0.1l-0.4,7.9h-1.4l-2.7,2.4h-2.4v7.2h13.8v-7.2H350L347.4,22z"/>
		<rect x="379.3" y="53.1" class="st2" width="7.4" height="7.4"/>
		<rect x="389.6" y="53.1" class="st2" width="7.4" height="7.4"/>
		<rect x="399.9" y="53.1" class="st2" width="7.4" height="7.4"/>
		<rect x="410.1" y="53.1" class="st2" width="7.4" height="7.4"/>
		<rect x="420.4" y="53.1" class="st2" width="7.4" height="7.4"/>
		<rect x="430.7" y="53.1" class="st2" width="7.4" height="7.4"/>
		<rect x="440.9" y="53.1" class="st2" width="7.4" height="7.4"/>
		<rect x="451.2" y="53.1" class="st2" width="7.4" height="7.4"/>
		<rect x="461.4" y="53.1" class="st2" width="7.4" height="7.4"/>
		<g>
			<rect x="597.1" y="25.8" class="st2" width="3.9" height="3.9"/>
			<rect x="597.1" y="31.2" class="st2" width="3.9" height="3.9"/>
			<rect x="597.1" y="36.6" class="st2" width="3.9" height="3.9"/>
			<rect x="597.1" y="42" class="st2" width="3.9" height="3.9"/>
			<rect x="597.1" y="47.4" class="st2" width="3.9" height="3.9"/>
			<rect x="597.1" y="52.8" class="st2" width="3.9" height="3.9"/>
			<rect x="597.1" y="58.1" class="st2" width="3.9" height="3.9"/>
			<rect x="597.1" y="63.5" class="st2" width="3.9" height="3.9"/>
			<rect x="597.1" y="68.9" class="st2" width="3.9" height="3.9"/>
		</g>
		<g>
			<rect x="558.9" y="52.4" class="st2" width="3.2" height="3.2"/>
			<rect x="558.9" y="56.9" class="st2" width="3.2" height="3.2"/>
			<rect x="558.9" y="61.4" class="st2" width="3.2" height="3.2"/>
			<rect x="558.9" y="65.8" class="st2" width="3.2" height="3.2"/>
			<rect x="558.9" y="70.3" class="st2" width="3.2" height="3.2"/>
			<rect x="558.9" y="74.8" class="st2" width="3.2" height="3.2"/>
			<rect x="558.9" y="79.3" class="st2" width="3.2" height="3.2"/>
			<rect x="558.9" y="83.7" class="st2" width="3.2" height="3.2"/>
			<rect x="558.9" y="88.2" class="st2" width="3.2" height="3.2"/>
			<rect x="554.7" y="52.4" class="st2" width="3.2" height="3.2"/>
			<rect x="554.7" y="56.9" class="st2" width="3.2" height="3.2"/>
			<rect x="554.7" y="61.4" class="st2" width="3.2" height="3.2"/>
			<rect x="554.7" y="65.8" class="st2" width="3.2" height="3.2"/>
			<rect x="554.7" y="70.3" class="st2" width="3.2" height="3.2"/>
			<rect x="554.7" y="74.8" class="st2" width="3.2" height="3.2"/>
			<rect x="554.7" y="79.3" class="st2" width="3.2" height="3.2"/>
			<rect x="554.7" y="83.7" class="st2" width="3.2" height="3.2"/>
			<rect x="554.7" y="88.2" class="st2" width="3.2" height="3.2"/>
			<rect x="550.6" y="52.4" class="st2" width="3.2" height="3.2"/>
			<rect x="550.6" y="56.9" class="st2" width="3.2" height="3.2"/>
			<rect x="550.6" y="61.4" class="st2" width="3.2" height="3.2"/>
			<rect x="550.6" y="65.8" class="st2" width="3.2" height="3.2"/>
			<rect x="550.6" y="70.3" class="st2" width="3.2" height="3.2"/>
			<rect x="550.6" y="74.8" class="st2" width="3.2" height="3.2"/>
			<rect x="550.6" y="79.3" class="st2" width="3.2" height="3.2"/>
			<rect x="550.6" y="83.7" class="st2" width="3.2" height="3.2"/>
			<rect x="550.6" y="88.2" class="st2" width="3.2" height="3.2"/>
			<rect x="546.4" y="52.4" class="st2" width="3.2" height="3.2"/>
			<rect x="546.4" y="56.9" class="st2" width="3.2" height="3.2"/>
			<rect x="546.4" y="61.4" class="st2" width="3.2" height="3.2"/>
			<rect x="546.4" y="65.8" class="st2" width="3.2" height="3.2"/>
			<rect x="546.4" y="70.3" class="st2" width="3.2" height="3.2"/>
			<rect x="546.4" y="74.8" class="st2" width="3.2" height="3.2"/>
			<rect x="546.4" y="79.3" class="st2" width="3.2" height="3.2"/>
			<rect x="546.4" y="83.7" class="st2" width="3.2" height="3.2"/>
			<rect x="546.4" y="88.2" class="st2" width="3.2" height="3.2"/>
		</g>
		<g>
			<rect x="841" y="55.6" class="st2" width="2" height="2"/>
			<rect x="841" y="58.3" class="st2" width="2" height="2"/>
			<rect x="841" y="61.1" class="st2" width="2" height="2"/>
			<rect x="841" y="63.8" class="st2" width="2" height="2"/>
			<rect x="841" y="66.6" class="st2" width="2" height="2"/>
			<rect x="841" y="69.4" class="st2" width="2" height="2"/>
			<rect x="841" y="72.1" class="st2" width="2" height="2"/>
			<rect x="841" y="74.9" class="st2" width="2" height="2"/>
			<rect x="841" y="77.6" class="st2" width="2" height="2"/>
			<rect x="838.4" y="55.6" class="st2" width="2" height="2"/>
			<rect x="838.4" y="58.3" class="st2" width="2" height="2"/>
			<rect x="838.4" y="61.1" class="st2" width="2" height="2"/>
			<rect x="838.4" y="63.8" class="st2" width="2" height="2"/>
			<rect x="838.4" y="66.6" class="st2" width="2" height="2"/>
			<rect x="838.4" y="69.4" class="st2" width="2" height="2"/>
			<rect x="838.4" y="72.1" class="st2" width="2" height="2"/>
			<rect x="838.4" y="74.9" class="st2" width="2" height="2"/>
			<rect x="838.4" y="77.6" class="st2" width="2" height="2"/>
			<rect x="835.9" y="55.6" class="st2" width="2" height="2"/>
			<rect x="835.9" y="58.3" class="st2" width="2" height="2"/>
			<rect x="835.9" y="61.1" class="st2" width="2" height="2"/>
			<rect x="835.9" y="63.8" class="st2" width="2" height="2"/>
			<rect x="835.9" y="66.6" class="st2" width="2" height="2"/>
			<rect x="835.9" y="69.4" class="st2" width="2" height="2"/>
			<rect x="835.9" y="72.1" class="st2" width="2" height="2"/>
			<rect x="835.9" y="74.9" class="st2" width="2" height="2"/>
			<rect x="835.9" y="77.6" class="st2" width="2" height="2"/>
			<rect x="833.3" y="55.6" class="st2" width="2" height="2"/>
			<rect x="833.3" y="58.3" class="st2" width="2" height="2"/>
			<rect x="833.3" y="61.1" class="st2" width="2" height="2"/>
			<rect x="833.3" y="63.8" class="st2" width="2" height="2"/>
			<rect x="833.3" y="66.6" class="st2" width="2" height="2"/>
			<rect x="833.3" y="69.4" class="st2" width="2" height="2"/>
			<rect x="833.3" y="72.1" class="st2" width="2" height="2"/>
			<rect x="833.3" y="74.9" class="st2" width="2" height="2"/>
			<rect x="833.3" y="77.6" class="st2" width="2" height="2"/>
		</g>
		<g>
			<rect x="176" y="33.2" class="st2" width="3.2" height="3.2"/>
			<rect x="176" y="37.6" class="st2" width="3.2" height="3.2"/>
			<rect x="176" y="42.1" class="st2" width="3.2" height="3.2"/>
			<rect x="176" y="46.6" class="st2" width="3.2" height="3.2"/>
			<rect x="176" y="51.1" class="st2" width="3.2" height="3.2"/>
			<rect x="176" y="55.5" class="st2" width="3.2" height="3.2"/>
			<rect x="176" y="60" class="st2" width="3.2" height="3.2"/>
			<rect x="176" y="64.5" class="st2" width="3.2" height="3.2"/>
			<rect x="176" y="69" class="st2" width="3.2" height="3.2"/>
			<rect x="171.8" y="33.2" class="st2" width="3.2" height="3.2"/>
			<rect x="171.8" y="37.6" class="st2" width="3.2" height="3.2"/>
			<rect x="171.8" y="42.1" class="st2" width="3.2" height="3.2"/>
			<rect x="171.8" y="46.6" class="st2" width="3.2" height="3.2"/>
			<rect x="171.8" y="51.1" class="st2" width="3.2" height="3.2"/>
			<rect x="171.8" y="55.5" class="st2" width="3.2" height="3.2"/>
			<rect x="171.8" y="60" class="st2" width="3.2" height="3.2"/>
			<rect x="171.8" y="64.5" class="st2" width="3.2" height="3.2"/>
			<rect x="171.8" y="69" class="st2" width="3.2" height="3.2"/>
			<rect x="167.7" y="33.2" class="st2" width="3.2" height="3.2"/>
			<rect x="167.7" y="37.6" class="st2" width="3.2" height="3.2"/>
			<rect x="167.7" y="42.1" class="st2" width="3.2" height="3.2"/>
			<rect x="167.7" y="46.6" class="st2" width="3.2" height="3.2"/>
			<rect x="167.7" y="51.1" class="st2" width="3.2" height="3.2"/>
			<rect x="167.7" y="55.5" class="st2" width="3.2" height="3.2"/>
			<rect x="167.7" y="60" class="st2" width="3.2" height="3.2"/>
			<rect x="167.7" y="64.5" class="st2" width="3.2" height="3.2"/>
			<rect x="167.7" y="69" class="st2" width="3.2" height="3.2"/>
			<rect x="163.5" y="33.2" class="st2" width="3.2" height="3.2"/>
			<rect x="163.5" y="37.6" class="st2" width="3.2" height="3.2"/>
			<rect x="163.5" y="42.1" class="st2" width="3.2" height="3.2"/>
			<rect x="163.5" y="46.6" class="st2" width="3.2" height="3.2"/>
			<rect x="163.5" y="51.1" class="st2" width="3.2" height="3.2"/>
			<rect x="163.5" y="55.5" class="st2" width="3.2" height="3.2"/>
			<rect x="163.5" y="60" class="st2" width="3.2" height="3.2"/>
			<rect x="163.5" y="64.5" class="st2" width="3.2" height="3.2"/>
			<rect x="163.5" y="69" class="st2" width="3.2" height="3.2"/>
		</g>
		<g>
			<rect x="334.8" y="37.4" class="st2" width="12.3" height="3.2"/>
			<rect x="334.8" y="41.9" class="st2" width="12.3" height="3.2"/>
			<rect x="334.8" y="46.4" class="st2" width="12.3" height="3.2"/>
			<rect x="334.8" y="50.8" class="st2" width="12.3" height="3.2"/>
			<rect x="334.8" y="55.3" class="st2" width="12.3" height="3.2"/>
			<rect x="334.8" y="59.8" class="st2" width="12.3" height="3.2"/>
			<rect x="334.8" y="64.3" class="st2" width="12.3" height="3.2"/>
			<rect x="334.8" y="68.7" class="st2" width="12.3" height="3.2"/>
			<rect x="334.8" y="73.2" class="st2" width="12.3" height="3.2"/>
		</g>
		<g>
			<rect x="733.3" y="46.7" class="st2" width="3.2" height="3.2"/>
			<rect x="733.3" y="51.2" class="st2" width="3.2" height="3.2"/>
			<rect x="733.3" y="55.7" class="st2" width="3.2" height="3.2"/>
			<rect x="733.3" y="60.2" class="st2" width="3.2" height="3.2"/>
			<rect x="733.3" y="64.6" class="st2" width="3.2" height="3.2"/>
			<rect x="733.3" y="69.1" class="st2" width="3.2" height="3.2"/>
			<rect x="733.3" y="73.6" class="st2" width="3.2" height="3.2"/>
			<rect x="733.3" y="78.1" class="st2" width="3.2" height="3.2"/>
			<rect x="733.3" y="82.5" class="st2" width="3.2" height="3.2"/>
			<rect x="729.1" y="46.7" class="st2" width="3.2" height="3.2"/>
			<rect x="729.1" y="51.2" class="st2" width="3.2" height="3.2"/>
			<rect x="729.1" y="55.7" class="st2" width="3.2" height="3.2"/>
			<rect x="729.1" y="60.2" class="st2" width="3.2" height="3.2"/>
			<rect x="729.1" y="64.6" class="st2" width="3.2" height="3.2"/>
			<rect x="729.1" y="69.1" class="st2" width="3.2" height="3.2"/>
			<rect x="729.1" y="73.6" class="st2" width="3.2" height="3.2"/>
			<rect x="729.1" y="78.1" class="st2" width="3.2" height="3.2"/>
			<rect x="729.1" y="82.5" class="st2" width="3.2" height="3.2"/>
			<rect x="725" y="46.7" class="st2" width="3.2" height="3.2"/>
			<rect x="725" y="51.2" class="st2" width="3.2" height="3.2"/>
			<rect x="725" y="55.7" class="st2" width="3.2" height="3.2"/>
			<rect x="725" y="60.2" class="st2" width="3.2" height="3.2"/>
			<rect x="725" y="64.6" class="st2" width="3.2" height="3.2"/>
			<rect x="725" y="69.1" class="st2" width="3.2" height="3.2"/>
			<rect x="725" y="73.6" class="st2" width="3.2" height="3.2"/>
			<rect x="725" y="78.1" class="st2" width="3.2" height="3.2"/>
			<rect x="725" y="82.5" class="st2" width="3.2" height="3.2"/>
			<rect x="720.8" y="46.7" class="st2" width="3.2" height="3.2"/>
			<rect x="720.8" y="51.2" class="st2" width="3.2" height="3.2"/>
			<rect x="720.8" y="55.7" class="st2" width="3.2" height="3.2"/>
			<rect x="720.8" y="60.2" class="st2" width="3.2" height="3.2"/>
			<rect x="720.8" y="64.6" class="st2" width="3.2" height="3.2"/>
			<rect x="720.8" y="69.1" class="st2" width="3.2" height="3.2"/>
			<rect x="720.8" y="73.6" class="st2" width="3.2" height="3.2"/>
			<rect x="720.8" y="78.1" class="st2" width="3.2" height="3.2"/>
			<rect x="720.8" y="82.5" class="st2" width="3.2" height="3.2"/>
		</g>
		<g>
			<rect x="634.7" y="36" class="st2" width="5.2" height="3.2"/>
			<rect x="634.7" y="40.4" class="st2" width="5.2" height="3.2"/>
			<rect x="634.7" y="44.9" class="st2" width="5.2" height="3.2"/>
			<rect x="634.7" y="49.4" class="st2" width="5.2" height="3.2"/>
			<rect x="634.7" y="53.9" class="st2" width="5.2" height="3.2"/>
			<rect x="634.7" y="58.3" class="st2" width="5.2" height="3.2"/>
			<rect x="634.7" y="62.8" class="st2" width="5.2" height="3.2"/>
			<rect x="634.7" y="67.3" class="st2" width="5.2" height="3.2"/>
			<rect x="634.7" y="71.8" class="st2" width="5.2" height="3.2"/>
			<rect x="628.1" y="36" class="st2" width="5.2" height="3.2"/>
			<rect x="628.1" y="40.4" class="st2" width="5.2" height="3.2"/>
			<rect x="628.1" y="44.9" class="st2" width="5.2" height="3.2"/>
			<rect x="628.1" y="49.4" class="st2" width="5.2" height="3.2"/>
			<rect x="628.1" y="53.9" class="st2" width="5.2" height="3.2"/>
			<rect x="628.1" y="58.3" class="st2" width="5.2" height="3.2"/>
			<rect x="628.1" y="62.8" class="st2" width="5.2" height="3.2"/>
			<rect x="628.1" y="67.3" class="st2" width="5.2" height="3.2"/>
			<rect x="628.1" y="71.8" class="st2" width="5.2" height="3.2"/>
		</g>
		<g>
			<rect x="313.6" y="49.6" class="st2" width="3.1" height="3.1"/>
			<rect x="309.3" y="49.6" class="st2" width="3.1" height="3.1"/>
			<rect x="305" y="49.6" class="st2" width="3.1" height="3.1"/>
			<rect x="300.7" y="49.6" class="st2" width="3.1" height="3.1"/>
			<rect x="296.4" y="49.6" class="st2" width="3.1" height="3.1"/>
			<rect x="292.1" y="49.6" class="st2" width="3.1" height="3.1"/>
			<rect x="287.8" y="49.6" class="st2" width="3.1" height="3.1"/>
			<rect x="283.5" y="49.6" class="st2" width="3.1" height="3.1"/>
			<rect x="279.2" y="49.6" class="st2" width="3.1" height="3.1"/>
			<rect x="313.6" y="45.6" class="st2" width="3.1" height="3.1"/>
			<rect x="309.3" y="45.6" class="st2" width="3.1" height="3.1"/>
			<rect x="305" y="45.6" class="st2" width="3.1" height="3.1"/>
			<rect x="300.7" y="45.6" class="st2" width="3.1" height="3.1"/>
			<rect x="296.4" y="45.6" class="st2" width="3.1" height="3.1"/>
			<rect x="292.1" y="45.6" class="st2" width="3.1" height="3.1"/>
			<rect x="287.8" y="45.6" class="st2" width="3.1" height="3.1"/>
			<rect x="283.5" y="45.6" class="st2" width="3.1" height="3.1"/>
			<rect x="279.2" y="45.6" class="st2" width="3.1" height="3.1"/>
		</g>
		<g>
			<rect x="488.5" y="28.8" class="st2" width="14.5" height="3.9"/>
			<rect x="488.5" y="34.2" class="st2" width="14.5" height="3.9"/>
			<rect x="488.5" y="39.6" class="st2" width="14.5" height="3.9"/>
			<rect x="488.5" y="45" class="st2" width="14.5" height="3.9"/>
			<rect x="488.5" y="50.4" class="st2" width="14.5" height="3.9"/>
			<rect x="488.5" y="55.8" class="st2" width="14.5" height="3.9"/>
			<rect x="488.5" y="61.2" class="st2" width="14.5" height="3.9"/>
			<rect x="488.5" y="66.5" class="st2" width="14.5" height="3.9"/>
			<rect x="488.5" y="71.9" class="st2" width="14.5" height="3.9"/>
		</g>
	</g>
	<path class="st3" d="M873.7,96.7v-3.3h0.1c0.2,0,0.3-0.1,0.3-0.3c0-0.2-0.1-0.3-0.3-0.3h-18.1c-0.2,0-0.3,0.1-0.3,0.3
		c0,0.2,0.1,0.3,0.3,0.3h0.1v3.3h-4.3v29.9h-23.1v-24.2h-12.7V73.7L797,59v43.4h-12.7V85.7h-21.4v-9.3h-2.7v9.3h-18.7V69h-4.7v16.7
		h-7.3v-24h-22V95h-22.7v17.2h-15.6V82.3H665V79h0.1c0.2,0,0.3-0.1,0.3-0.3c0-0.2-0.1-0.3-0.3-0.3H647c-0.2,0-0.3,0.1-0.3,0.3
		c0,0.2,0.1,0.3,0.3,0.3h0.1v3.3h-4.3v19.5h-13.3V87l-7.7-9.7V55.5h-2.9c-0.1-1.3-1.2-2.4-2.6-2.4h-1.4v-6.5h-0.6v6.5h-1.4
		c-1.4,0-2.5,1-2.6,2.4h-2.9v33.4H589V78.7h-4V67h-0.1l-6.5-7.6h-1.6v-6l0,0l-0.6-5.6l0,0l-0.6,5.6l0,0v6H574l-6.5,7.6h-0.1v11.7h-4
		v19.1h-19.6v-5.7h-1.6V93H541v-1h1.2v-1.3H541v-1.1h1.2v-1.3H541v-1.1h1.2V86H541v-1h1.2v-1.3H541v-1.1h1.2v-1.3H541v-1.1h1.2V79
		H541v-1h1.2v-1.3H541v-1.1h1.2v-1.3H541v-1.1h1.2V72H541v-1h1.2v-1.3H541v-1.9h-3.2v-5.9h-1.4v-4.1l-1.6-0.3v-2.8h-8.2v1.4
		l-1.6-0.3v6.1h-1.4v5.9H520v1.9h-1V71h0.9v1H519v1.3h0.9v1.1H519v1.3h0.9v1.1H519V78h0.9v1H519v1.3h0.9v1.1H519v1.3h0.9v1.1H519V85
		h0.9v1H519v1.3h0.9v1.1H519v1.3h0.9v1.1H519V92h0.9v1H519v0.8l-14.9-5.2h-0.3l-11.9,4.1v-15H489V75h-8.6v-2h-4.2v2h-2v2.7h-2.9
		v38.6h-19.7V96.8h-3.3v-3.6H419v-6h-1.2v6h-1.2V84h-1.2v9.2h-2.5v3.6h-3.3v8.6h-9.7v-20h-4.1v14.2l0,0V81.4h-4v-3.5l0,0
		c0.2,0,0.3-0.1,0.3-0.3c0-0.2-0.1-0.3-0.3-0.3l0,0l-7.2-6.6V67h-1.4l-0.4-8.2l0,0h-0.1l-0.4,8.2h-1.4v3.7h0.1l-7.2,6.6l0,0
		c-0.2,0-0.3,0.1-0.3,0.3c0,0.2,0.1,0.3,0.3,0.3l0,0v3.5H369v4h-4.1v28H348V92.5h-3.7v-2.3h-11v-1.7h-0.9v-7.4h-22v10.1l-23.1-11.3
		V59.4h-43.6v8.1h-26.1v75.1h26.1v25h43.6v-0.1h23.1v2.7h0.8v32.2l565.1-1.7c-0.5-50.8-1.6-53.2,1.2-103.9h-3.8V96.7z M542.1,97.7
		H541v-1.1h1.1V97.7z M542.1,95.4H541v-1.1h1.1V95.4z"/>
</g>
<g>
	<g>
		<g>
			<g>
				<polygon class="st4" points="712.8,85.8 711.2,120.3 723.3,120.3 721.8,85.8 				"/>
				<path class="st4" d="M717.9,85.8h3.8c0.1-7.7,9.2-13.5,9.2-13.5C721.5,73.6,717.9,85.8,717.9,85.8z"/>
				<path class="st4" d="M714,79.7l0.9,6.5l2.2-2.2c0,0-2.2-7.2,2.7-10.3C719.8,73.6,715.4,74.2,714,79.7z"/>
				<path class="st4" d="M716.7,81.7l-2.7,7.6c0,0,6.3,0.1,6.2,0s-0.4-7.6-0.4-7.6S718.4,84.5,716.7,81.7z"/>
				<path class="st4" d="M719.8,69.2c5.7,4.1,1.4,10.4,1.3,10.5l3-3C724.6,70.6,719.8,69.2,719.8,69.2z"/>
			</g>
			<path class="st4" d="M703.2,71.4c9.8,5.2,9.6,14.4,9.6,14.4l3.7,0.4l-2.4-6.5C711.6,74.5,703.2,71.4,703.2,71.4z"/>
		</g>
	</g>
	<g>
		<g>
			<ellipse class="st5" cx="694.6" cy="52.1" rx="18.3" ry="18.3"/>
			<ellipse class="st5" cx="717.3" cy="58.5" rx="19.5" ry="19.5"/>
			<ellipse class="st5" cx="741.4" cy="50.9" rx="21.3" ry="20.3"/>
			
				<ellipse transform="matrix(3.158358e-03 -1 1 3.158358e-03 678.3787 738.05)" class="st5" cx="709.4" cy="28.8" rx="26.9" ry="26.9"/>
			<ellipse class="st5" cx="731" cy="28.8" rx="24.5" ry="24.5"/>
		</g>
		<g class="st6">
			<path d="M696.3,65.8C688,66,680.5,62,676.7,55.7c1.6,8.4,9.1,14.8,18,14.8c4,0,7.6-1.3,10.6-3.4c-1-0.6-2-1.3-2.8-2.1
				C700.5,65.4,698.4,65.7,696.3,65.8z"/>
			<path d="M704.8,66.8c-0.8-0.5-1.5-1-2.2-1.5c-1,0.4-2.1,0.6-3.2,0.9c3,7,9.9,11.8,17.9,11.8c9.2,0,16.9-6.3,19-14.9
				c-3.2,2.9-7.5,4.8-11.7,5.7C718.2,70,710.7,70.2,704.8,66.8z"/>
			<path d="M736.3,63.1c-0.3,0.5-0.6,1.8-1,2.2c-1.2,1.4-3.1,2.4-5,3c3.2,1.9,7,2.9,11,2.9c8.5,0,15.8-4.7,19.2-11.5
				C754.4,65.2,744.8,65.5,736.3,63.1z"/>
		</g>
	</g>
</g>
<g>
	<path class="st3" d="M446.2,99.5c0.3-1.2,0.5-2.4,0.5-3.6c0-7.9-6.4-14.3-14.3-14.3c-1.6,0-3.2,0.3-4.6,0.8c-2.3-1.4-5.1-2.2-8-2.2
		c-6.5,0-12,3.9-14.4,9.5c-0.1-0.1-0.2-0.3-0.4-0.4l-0.1-0.1c-0.2-0.2-0.5-0.4-0.7-0.6c-0.1,0-0.1-0.1-0.2-0.1
		c-0.2-0.2-0.4-0.3-0.6-0.4c-0.1,0-0.1-0.1-0.2-0.1c-0.3-0.2-0.5-0.3-0.8-0.5l0,0c-1.2-0.5-2.5-0.9-3.9-0.9c-5,0-9,3.9-9.2,8.9
		c-3.9,0.8-6.8,4.2-6.8,8.3c0,2.2,0.8,4.2,2.2,5.7l0,0c0.1,0.2,0.3,0.3,0.4,0.5c0.2,0.2,0.4,0.3,0.5,0.5c0.4,4.4,3.7,7.9,7.9,8.8
		c1.4,1.5,3.3,3.9,3.3,5.6l-0.4,14.2h1.8h0.4h1h0.4h1.8l-0.4-14.2c0-2,2.6-4.8,4-6.1c0,0,0.1,0,0.1,0.1c0.2,0.1,0.3,0.2,0.5,0.3
		c0.1,0.1,0.2,0.1,0.4,0.2c0.2,0.1,0.3,0.2,0.5,0.3c0.1,0.1,0.3,0.1,0.4,0.2c0.2,0.1,0.4,0.1,0.6,0.2c0.1,0,0.3,0.1,0.4,0.1
		c0.2,0.1,0.4,0.1,0.6,0.2c0.1,0,0.3,0.1,0.4,0.1c0.2,0,0.4,0.1,0.7,0.1c0.1,0,0.2,0,0.3,0c0.3,0,0.7,0.1,1,0.1s0.6,0,0.9,0
		c0.1,0,0.1,0,0.2,0c0.3,0,0.5-0.1,0.8-0.1h0.1c0.6-0.1,1.2-0.3,1.8-0.5c0,0,0,0.1,0.1,0.1c0.2,0.3,0.5,0.7,0.8,1c0,0,0,0.1,0.1,0.1
		c0.3,0.3,0.6,0.6,0.9,0.9c0,0,0,0,0.1,0.1c0.3,0.3,0.6,0.5,1,0.8c0.1,0,0.1,0.1,0.2,0.1c0.3,0.2,0.7,0.5,1,0.7c0,0,0.1,0,0.1,0.1
		c0.2,0.1,0.3,0.2,0.5,0.3c2.2,2.8,2.2,5.7,2.2,5.7l-0.9,20.2h7.1l-0.9-20.2c0.1-3.2,2.7-5.7,4.2-6.9c0.1-0.1,0.2-0.1,0.3-0.2
		c0.4-0.3,0.7-0.5,0.7-0.5c-0.1,0-0.1,0-0.2,0c0.6-0.6,1.2-1.2,1.7-1.9l0,0h0.1c0.3,0.1,0.6,0.2,1,0.3h0.1c0.4,0.1,0.7,0.2,1.1,0.3
		h0.1c0.3,0.1,0.7,0.1,1,0.1c0.1,0,0.2,0,0.3,0c0.4,0,0.7,0.1,1.1,0.1s0.8,0,1.1-0.1c0.1,0,0.2,0,0.3,0c0.3,0,0.6-0.1,0.9-0.1
		c0.1,0,0.2,0,0.3,0c0.4-0.1,0.7-0.2,1.1-0.3c0.1,0,0.1,0,0.2-0.1c0.3-0.1,0.6-0.2,0.8-0.3c0.1,0,0.2-0.1,0.3-0.1
		c0.3-0.1,0.6-0.3,0.9-0.4h0.1c0.3-0.2,0.6-0.3,0.9-0.5c0.1-0.1,0.2-0.1,0.2-0.2c0.2-0.2,0.4-0.3,0.7-0.5c0.1-0.1,0.1-0.1,0.2-0.2
		c0.3-0.2,0.5-0.4,0.8-0.7l0.1-0.1c0.2-0.2,0.4-0.4,0.6-0.6c0.1-0.1,0.1-0.2,0.2-0.2c0.2-0.2,0.4-0.5,0.5-0.7l0.1-0.1
		c0.2-0.3,0.4-0.6,0.6-0.9c0-0.1,0.1-0.2,0.1-0.2c0.1-0.1,0.1-0.2,0.2-0.4l0,0c0.8-1.6,1.3-3.3,1.3-5.2
		C451,105,449.1,101.6,446.2,99.5z M398.4,122.7c-0.5-1.3-1.4-2.5-2.3-3.5c0.8,0,1.6-0.2,2.3-0.4V122.7z M402.3,115.7L402.3,115.7
		L402.3,115.7L402.3,115.7z M401.6,114.6L401.6,114.6L401.6,114.6z M401.1,113.5L401.1,113.5c0,0,0-0.1-0.1-0.1
		C401.1,113.5,401.1,113.5,401.1,113.5z M400.7,112.1c0,0.1,0,0.2,0.1,0.3C400.7,112.2,400.7,112.1,400.7,112.1
		C400.6,112,400.6,112,400.7,112.1z M400.5,111.2c0-0.1,0-0.2-0.1-0.4C400.4,110.9,400.5,111,400.5,111.2z M400.2,122.7v-4.6
		c0.2-0.1,0.4-0.2,0.5-0.3c0.7,0.3,1.5,0.5,2.3,0.6C402.1,119.6,400.9,121.1,400.2,122.7z M403,116.6c0.1,0.1,0.1,0.1,0.2,0.2
		C403.1,116.8,403.1,116.7,403,116.6z M404,94.2c0-0.1,0-0.1,0-0.2C404.1,94.1,404,94.2,404,94.2z M404.3,92.6L404.3,92.6
		L404.3,92.6z M422.4,125.7c-0.2-0.5-0.5-0.9-0.9-1.4c0,0,0,0,0.1,0c0.4,0.1,0.8,0.2,1.2,0.2l0,0
		C422.7,124.9,422.5,125.3,422.4,125.7z M427,124.9c-0.6,0.8-1.1,1.6-1.5,2.4c-0.3,0.4-0.9,0.7-1.5-0.4c-0.1-0.6-0.1-1.4,0.1-2.2
		c0.1,0,0.2,0,0.3,0c0.4,0,0.9,0,1.3-0.1c0.1,0,0.2,0,0.3,0c0.4-0.1,0.7-0.1,1.1-0.2c0.1,0,0.1,0,0.2,0c0,0,0,0,0.1,0
		C427.2,124.5,427.1,124.7,427,124.9z"/>
	<g class="st7">
		<path class="st8" d="M400.2,122.7v-5.1h-1.8v5.1c-1.2-2.8-4.3-5.6-4.7-5.9l-1.2,1.3c1.2,1.1,4.3,4.3,4.3,6.5l-0.4,14.2h1.8h0.4h1
			h0.4h1.8l-0.4-14.2c0-2.2,3.2-5.5,4.4-6.5l-1.1-1.3C404.2,117.2,401.4,119.9,400.2,122.7z"/>
		<g>
			<g>
				<g>
					<g>
						<polygon class="st8" points="421.7,129.3 420.8,149.5 427.9,149.5 427,129.3 						"/>
						<path class="st8" d="M424.7,129.3h2.2c0.1-4.5,5.3-7.6,5.3-7.6C426.7,122.5,424.7,129.3,424.7,129.3z"/>
						<path class="st8" d="M422.4,125.7l0.5,3.8l1.3-1.3c0,0-1.3-4.2,1.6-6C425.8,122.1,423.2,122.4,422.4,125.7z"/>
						<path class="st8" d="M424,126.9l-1.6,4.4c0,0,3.7,0.1,3.6,0s-0.2-4.4-0.2-4.4S425,128.5,424,126.9z"/>
						<path class="st8" d="M425.8,119.6c3.3,2.4,0.8,6.1,0.8,6.2l1.7-1.8C428.6,120.3,425.8,119.6,425.8,119.6z"/>
					</g>
					<path class="st8" d="M416.1,120.9c5.7,3,5.6,8.4,5.6,8.4l2.2,0.2l-1.4-3.8C421,122.6,416.1,120.9,416.1,120.9z"/>
				</g>
			</g>
			<g>
				<path class="st9" d="M446.2,99.5c0.3-1.2,0.5-2.4,0.5-3.6c0-7.9-6.4-14.3-14.3-14.3c-1.6,0-3.2,0.3-4.6,0.8
					c-2.3-1.4-5.1-2.2-8-2.2c-8.7,0-15.7,7.1-15.7,15.8c0,1.7,0.3,3.4,0.8,5c-2.7,2-4.4,5.1-4.4,8.7c0,5.9,4.8,10.7,10.7,10.7
					c1.3,0,2.6-0.3,3.8-0.7c2,3.1,5.6,5.1,9.5,5.1s7.3-1.9,9.4-4.9c1.5,0.6,3.1,0.9,4.8,0.9c6.9,0,12.5-5.3,12.5-11.9
					C451,105,449.1,101.6,446.2,99.5z"/>
				<g>
					<path class="st10" d="M403.3,87.9c0.2,0.1,0.4,0.3,0.6,0.4C403.7,88.2,403.5,88,403.3,87.9z"/>
					<path class="st10" d="M402.2,87.3c0.3,0.1,0.6,0.3,0.8,0.5C402.8,87.6,402.5,87.5,402.2,87.3z"/>
					<path class="st10" d="M405.3,89.6L405.3,89.6c-0.1-0.1-0.2-0.3-0.3-0.4C405,89.3,405.1,89.5,405.3,89.6z"/>
					<path class="st10" d="M404.1,88.5c0.2,0.2,0.5,0.4,0.7,0.6C404.6,88.9,404.3,88.7,404.1,88.5z"/>
					<path class="st10" d="M385,109.7c-0.1-0.1-0.3-0.3-0.4-0.5C384.7,109.4,384.9,109.6,385,109.7z"/>
					<path class="st10" d="M398.4,86.5c-5,0-9,3.9-9.2,8.9c-3.9,0.8-6.8,4.2-6.8,8.3c0,2.2,0.8,4.2,2.2,5.7c2.4,0.4,4.8,0,6.7-2.1
						c1.2-1.3,1.7-2.9,2-4.5c0.1-0.6,0.2-1.2,0.3-1.9c0.1-0.3,0.1-0.5,0.2-0.7c0,0,0-0.1,0.1-0.1c0.5-0.9,0.1-0.3,0.7-0.8
						c0.5-0.5,0.1-0.1,1-0.8c1.3-0.9,2.7-1.7,3.8-2.9c2.2-2.3,3-5.2,2.7-8.1C401.1,86.8,399.8,86.5,398.4,86.5z"/>
					<path class="st11" d="M385.6,110.2c-0.2-0.2-0.4-0.3-0.5-0.5C385.2,109.9,385.4,110.1,385.6,110.2z"/>
					<path class="st11" d="M403.9,88.3c0.1,0,0.1,0.1,0.2,0.1C404,88.4,404,88.4,403.9,88.3z"/>
					<path class="st11" d="M403.1,87.8c0.1,0,0.1,0.1,0.2,0.1C403.2,87.9,403.2,87.8,403.1,87.8z"/>
					<path class="st11" d="M384.6,109.3L384.6,109.3L384.6,109.3z"/>
					<path class="st11" d="M402.2,87.3L402.2,87.3L402.2,87.3z"/>
					<path class="st11" d="M404.8,89.1l0.1,0.1L404.8,89.1z"/>
					<path class="st10" d="M404.9,89.2l-0.1-0.1c-0.2-0.2-0.5-0.4-0.7-0.6c-0.1,0-0.1-0.1-0.2-0.1c-0.2-0.2-0.4-0.3-0.6-0.4
						c-0.1,0-0.1-0.1-0.2-0.1c-0.3-0.2-0.5-0.3-0.8-0.5l0,0c0.3,2.9-0.5,5.8-2.7,8.1c-1.1,1.1-2.5,2-3.8,2.9c-0.9,0.6-0.5,0.3-1,0.8
						s-0.2,0-0.7,0.8c0,0.1-0.1,0.1-0.1,0.1c-0.1,0.2-0.2,0.5-0.2,0.7c-0.1,0.6-0.2,1.2-0.3,1.9c-0.3,1.7-0.9,3.3-2,4.5
						c-1.9,2.1-4.3,2.5-6.7,2.1l0,0c0.1,0.2,0.3,0.3,0.4,0.5c0.2,0.2,0.4,0.3,0.5,0.5c0.5,5.1,4.8,9.1,10,9.1c1.9,0,3.7-0.5,5.2-1.5
						c1,0.4,2.1,0.6,3.2,0.6c0.4,0,0.7,0,1.1-0.1c-2.8-1.9-4.7-5.2-4.7-8.9c0-3.6,1.8-6.7,4.4-8.7c-0.5-1.6-0.8-3.2-0.8-5
						c0-2.2,0.5-4.3,1.3-6.3C405.1,89.5,405,89.3,404.9,89.2z"/>
					<path class="st11" d="M404.9,89.2l-0.1-0.1c-0.2-0.2-0.5-0.4-0.7-0.6c-0.1,0-0.1-0.1-0.2-0.1c-0.2-0.2-0.4-0.3-0.6-0.4
						c-0.1,0-0.1-0.1-0.2-0.1c-0.3-0.2-0.5-0.3-0.8-0.5l0,0c0.3,2.9-0.5,5.8-2.7,8.1c-1.1,1.1-2.5,2-3.8,2.9c-0.9,0.6-0.5,0.3-1,0.8
						s-0.2,0-0.7,0.8c0,0.1-0.1,0.1-0.1,0.1c-0.1,0.2-0.2,0.5-0.2,0.7c-0.1,0.6-0.2,1.2-0.3,1.9c-0.3,1.7-0.9,3.3-2,4.5
						c-1.9,2.1-4.3,2.5-6.7,2.1l0,0c0.1,0.2,0.3,0.3,0.4,0.5c0.2,0.2,0.4,0.3,0.5,0.5c0.5,5.1,4.8,9.1,10,9.1c1.9,0,3.7-0.5,5.2-1.5
						c1,0.4,2.1,0.6,3.2,0.6c0.4,0,0.7,0,1.1-0.1c-2.8-1.9-4.7-5.2-4.7-8.9c0-3.6,1.8-6.7,4.4-8.7c-0.5-1.6-0.8-3.2-0.8-5
						c0-2.2,0.5-4.3,1.3-6.3C405.1,89.5,405,89.3,404.9,89.2z"/>
				</g>
				<g class="st6">
					<path d="M412,117.5c-4.9,0.1-9.3-2.2-11.5-5.9c1,4.9,5.3,8.7,10.5,8.7c2.3,0,4.5-0.7,6.2-2c-0.6-0.3-1.1-0.7-1.6-1.2
						C414.5,117.3,413.3,117.5,412,117.5z"/>
					<path d="M417,118.1c-0.5-0.3-0.9-0.6-1.3-0.9c-0.6,0.2-1.2,0.4-1.9,0.5c1.7,4.1,5.8,6.9,10.5,6.9c5.4,0,9.9-3.7,11.1-8.7
						c-1.9,1.7-4.4,2.8-6.8,3.3C424.9,120,420.5,120.1,417,118.1z"/>
					<path d="M435.5,116c-0.2,0.3-0.3,1-0.6,1.3c-0.7,0.8-1.8,1.4-2.9,1.7c1.9,1.1,4.1,1.7,6.5,1.7c5,0,9.2-2.8,11.3-6.8
						C446.1,117.2,440.4,117.4,435.5,116z"/>
				</g>
			</g>
		</g>
	</g>
</g>
<g>
	<path class="st4" d="M643,98.5v-8.7h-3.1v8.7c-2.1-4.9-7.3-9.5-8-10.1l-2.1,2.3c2.1,1.8,7.3,7.4,7.3,11.1l-0.7,24.2h3h0.7h1.7h0.7
		h3l-0.7-24.2c0-3.8,5.4-9.4,7.5-11.2l-1.8-2.2C649.7,88.9,645,93.6,643,98.5z"/>
	<path class="st5" d="M655.2,48.9c-1.5-7.1-7.8-12.4-15.3-12.4c-8.5,0-15.4,6.7-15.7,15.2c-6.6,1.3-11.6,7.1-11.6,14.1
		c0,4.6,2.1,8.6,5.4,11.3c0.9,8.7,8.1,15.5,17,15.5c3.2,0,6.3-0.9,8.9-2.5c1.7,0.7,3.5,1.1,5.4,1.1c7.8,0,14.1-6.3,14.1-14.2
		c0-1.3-0.2-2.6-0.5-3.8c2.9-2.6,4.7-6.3,4.7-10.4C667.6,55.6,662.2,49.7,655.2,48.9z"/>
	<path class="st11" d="M655.2,48.9c-1.1-4.9-4.4-8.9-8.7-10.9c0.6,5-0.8,9.9-4.6,13.8c-1.9,1.9-4.3,3.5-6.6,4.9
		c-1.6,1-0.9,0.5-1.8,1.3c-0.9,0.9-0.3-0.1-1.1,1.4c-0.1,0.1-0.1,0.2-0.1,0.2c-0.1,0.4-0.3,0.8-0.4,1.3c-0.2,1.1-0.4,2.1-0.6,3.2
		c-0.5,2.9-1.5,5.6-3.5,7.7c-3.3,3.6-7.4,4.2-11.5,3.6c0.5,0.6,1.1,1.1,1.7,1.6c0.9,8.7,8.1,15.5,17,15.5c3.2,0,6.3-0.9,8.9-2.5
		c1.7,0.7,3.5,1.1,5.4,1.1c7.8,0,14.1-6.3,14.1-14.2c0-1.3-0.2-2.6-0.5-3.8c2.9-2.6,4.7-6.3,4.7-10.4
		C667.6,55.6,662.2,49.7,655.2,48.9z"/>
</g>
<g>
	<path class="st4" d="M676.1,93.4h-3.3c-2.1-5.2-7.8-10.5-8.6-11.2l-2.2,2.7c2.3,2,8.2,8.3,8.2,12.5l-0.8,27.1h3.4h0.7h1.8h0.7h3.4
		l-0.8-27.1c0-4.2,5.9-10.7,8.2-12.7l-2.2-2.5C683.9,82.9,678.1,88.2,676.1,93.4z"/>
	<path class="st4" d="M671.3,95.8c0.1,0.8,5.1,2.1,5.1,1.3c0.4-11.1-8.5-22.8-8.5-22.8S670.3,82.3,671.3,95.8z"/>
	<path class="st12" d="M697.8,41.6c0.5-1.5,0.8-3.1,0.8-4.8c0-7.2-5.4-13.2-12.4-14.1c-0.1-7.7-6.4-14-14.2-14s-14.2,6.4-14.2,14.2
		c0,0.4,0,0.9,0.1,1.3c-6.7,1.2-11.7,7-11.7,14c0,3.2,1,6.1,2.8,8.4c-3.6,3.5-5.8,8.1-5.8,13.2c0,5.5,2.6,10.5,6.8,14.1
		c0.5,7.1,7.2,12.8,15.4,12.8c3.4,0,6.6-1,9.1-2.7c2.2,1,4.7,1.5,7.3,1.5c9,0,16.3-6.5,16.3-14.4c0-1.3-0.2-2.6-0.6-3.8
		c3.7-3.4,5.9-8,5.9-13.1C703.4,49.4,701.3,44.9,697.8,41.6z"/>
	<path class="st11" d="M697.7,71.3c-7.2,7.4-19.1,10.1-27.1,5.1c-3.3,0.8-6.8,0.4-10-1.4c-3.3-1.9-5.3-4.7-6.3-7.9
		c-5.3-1.9-9.2-5.4-10.7-10.8c-0.2,1.1-0.4,2.3-0.4,3.5c0,5.5,2.6,10.5,6.8,14.1c0.5,7.1,7.2,12.8,15.4,12.8c3.4,0,6.6-1,9.1-2.7
		c2.2,1,4.7,1.5,7.3,1.5c9,0,16.3-6.5,16.3-14.4c0-0.1,0-0.2,0-0.3C697.9,71.1,697.8,71.2,697.7,71.3z"/>
</g>
<rect x="301.9" y="81.3" class="st13" width="33.7" height="67.9"/>
<path class="st14" d="M0.8,202.4h513.4l6.2-32c0,0-234.8-80-519.6-80V202.4z"/>
<path class="st15" d="M225.4,204.7h674.4c0,0,0.2-96,0.2-97.6C900,107.1,277.1,131.8,225.4,204.7z"/>
<path class="st16" d="M369.9,202.2l71,0.2c21.6-20.1,52.9-48,79.4-62c-7.2,1-14.4,2.1-21.7,3.2C488.1,147.3,416.1,167.6,369.9,202.2
	z"/>
<g>
	<g>
		<g>
			<g>
				<polygon class="st4" points="85.1,136 83.2,178.5 98.1,178.5 96.2,136 				"/>
				<path class="st4" d="M91.5,136h4.7c0.2-9.5,11.2-16.5,11.2-16.5C95.8,121.1,91.5,136,91.5,136z"/>
				<path class="st4" d="M86.7,128.5l1.1,8l2.7-2.7c0,0-2.7-8.9,3.3-12.7C93.8,121,88.3,121.7,86.7,128.5z"/>
				<path class="st4" d="M90,131l-3.3,9.3c0,0,7.8,0.2,7.6,0c-0.2-0.2-0.5-9.3-0.5-9.3S92.1,134.4,90,131z"/>
				<path class="st4" d="M93.8,115.6c7,5,1.7,12.8,1.6,12.9l3.7-3.8C99.7,117.2,93.8,115.6,93.8,115.6z"/>
			</g>
			<path class="st4" d="M73.3,118.3c12,6.4,11.8,17.7,11.8,17.7l4.6,0.4l-3-8C83.7,122,73.3,118.3,73.3,118.3z"/>
		</g>
	</g>
	<g>
		<g>
			<ellipse class="st5" cx="62.8" cy="94.5" rx="22.6" ry="22.6"/>
			<ellipse class="st5" cx="90.8" cy="102.3" rx="24.1" ry="24.1"/>
			<ellipse class="st5" cx="120.5" cy="93" rx="26.3" ry="25.1"/>
			<ellipse class="st5" cx="80.9" cy="65.7" rx="33.1" ry="33.2"/>
			<ellipse class="st5" cx="107.5" cy="65.7" rx="30.2" ry="30.2"/>
		</g>
		<g class="st6">
			<path d="M64.8,111.3c-10.2,0.3-19.5-4.7-24.2-12.5c2,10.4,11.2,18.2,22.2,18.2c4.9,0,9.4-1.6,13.1-4.2c-1.3-0.7-2.4-1.6-3.4-2.6
				C69.9,110.9,67.4,111.2,64.8,111.3z"/>
			<path d="M75.3,112.6c-1-0.6-1.9-1.2-2.7-1.8c-1.3,0.4-2.6,0.8-3.9,1.1c3.7,8.6,12.2,14.6,22.1,14.6c11.3,0,20.8-7.8,23.4-18.3
				c-4,3.6-9.2,6-14.4,7C91.8,116.6,82.6,116.8,75.3,112.6z"/>
			<path d="M114.2,108.1c-0.4,0.6-0.7,2.2-1.2,2.7c-1.5,1.7-3.8,2.9-6.1,3.6c4,2.3,8.6,3.6,13.6,3.6c10.4,0,19.5-5.8,23.7-14.2
				C136.4,110.6,124.6,111,114.2,108.1z"/>
		</g>
	</g>
</g>
<g>
	<g>
		<g>
			<g>
				<polygon class="st4" points="154.9,152.9 153.3,189.9 166.3,189.9 164.7,152.9 				"/>
				<path class="st4" d="M145.1,138c0,0,9.7,6.7,9.9,14.9h4.1C159.1,152.9,155.2,139.4,145.1,138z"/>
				<path class="st4" d="M157.1,139.8c5.3,3.3,2.9,11.1,2.9,11.1l2.3,2.4l1-6.9C161.8,140.4,157.1,139.8,157.1,139.8z"/>
				<path class="st4" d="M157.1,148.5c0,0-0.3,8-0.4,8.1c-0.1,0.1,6.6,0,6.6,0l-2.9-8.1C158.6,151.5,157.1,148.5,157.1,148.5z"/>
				<path class="st4" d="M152.4,143.1l3.2,3.3c-0.1-0.1-4.7-6.9,1.4-11.3C157.1,135.1,151.9,136.5,152.4,143.1z"/>
			</g>
			<path class="st4" d="M163.3,146.4l-2.6,6.9l4-0.4c0,0-0.2-9.9,10.3-15.5C174.9,137.5,165.8,140.7,163.3,146.4z"/>
		</g>
	</g>
	<g>
		<g>
			<ellipse class="st12" cx="184.1" cy="116.7" rx="19.7" ry="19.7"/>
			<ellipse class="st12" cx="159.7" cy="123.5" rx="21" ry="21"/>
			<ellipse class="st12" cx="133.8" cy="115.4" rx="22.9" ry="21.8"/>
			
				<ellipse transform="matrix(1.961088e-03 -1 1 1.961088e-03 76.3173 259.6849)" class="st12" cx="168.3" cy="91.6" rx="28.9" ry="28.9"/>
			<ellipse class="st12" cx="145.1" cy="91.6" rx="26.3" ry="26.3"/>
		</g>
		<g class="st6">
			<path d="M182.4,131.4c-2.3-0.1-4.5-0.4-6.7-0.9c-0.9,0.9-1.9,1.7-3,2.3c3.2,2.3,7.2,3.7,11.4,3.7c9.6,0,17.6-6.8,19.3-15.9
				C199.4,127.3,191.3,131.6,182.4,131.4z"/>
			<path d="M173.2,132.5c-6.3,3.6-14.3,3.5-21.3,2.1c-4.5-0.9-9.1-2.9-12.6-6.1c2.2,9.2,10.5,16,20.4,16c8.6,0,16.1-5.2,19.3-12.7
				c-1.2-0.2-2.3-0.5-3.4-0.9C174.8,131.5,174,132,173.2,132.5z"/>
			<path d="M139.3,128.5c-9.1,2.5-19.4,2.2-26.2-3.7c3.7,7.3,11.6,12.4,20.7,12.4c4.3,0,8.4-1.2,11.9-3.2c-2-0.6-4-1.7-5.3-3.2
				C139.9,130.4,139.7,129,139.3,128.5z"/>
		</g>
	</g>
</g>
<g>
	<path class="st5" d="M80.1,182.9c0.2-1,0.3-2.1,0.3-3.1c0-8.7-7.5-15.7-16.9-15.7c-6.3,0-11.8,3.2-14.7,7.9
		c-2.4-1.6-5.4-2.6-8.6-2.6c-7.9,0-14.4,6-14.4,13.4c0,0.1,0,0.2,0,0.2c-4.9,1-8.8,5.2-8.8,10.1l0,0c0,5.7,5.1,10.3,11.1,10.3h51.3
		c6.2,0,11.1-4.6,11.1-10.3l0,0C90.8,187.6,86,183.1,80.1,182.9z"/>
	<path class="st17" d="M132.4,181.1c0.2-1.1,0.4-2.2,0.4-3.4c0-9.4-8.1-16.9-18.3-16.9c-6.8,0-12.8,3.5-16,8.6
		c-2.6-1.8-5.8-2.8-9.3-2.8c-8.7,0-15.7,6.5-15.7,14.5c0,0.1,0,0.2,0,0.3c-5.4,1.1-9.5,5.7-9.5,10.9l0,0c0,6.2,5.5,11.2,12.2,11.2
		h55.7c6.7,0,12.2-5.1,12.2-11.2l0,0C144.1,186.4,138.9,181.4,132.4,181.1z"/>
	<path class="st5" d="M156.6,181.1c0.2-1.1,0.4-2.2,0.4-3.4c0-9.4-8.1-16.9-18.3-16.9c-6.8,0-12.8,3.5-16,8.6
		c-2.6-1.8-5.8-2.8-9.3-2.8c-8.7,0-15.7,6.5-15.7,14.5c0,0.1,0,0.2,0,0.3c-5.4,1.1-9.5,5.7-9.5,10.9l0,0c0,6.2,5.5,11.2,12.2,11.2
		h55.7c6.7,0,12.2-5.1,12.2-11.2l0,0C168.2,186.4,163,181.4,156.6,181.1z"/>
	<path class="st17" d="M198.1,183.1c0-0.1,0-0.2,0-0.2c0-7.4-6.5-13.4-14.4-13.4c-3.2,0-6.2,0.9-8.6,2.6c-2.9-4.7-8.3-7.9-14.7-7.9
		c-9.3,0-16.9,7-16.9,15.7c0,1,0.1,2.1,0.3,3.1c-6,0.2-10.7,4.8-10.7,10.3l0,0c0,5.7,5.1,10.3,11.1,10.3h51.3
		c6.2,0,11.1-4.6,11.1-10.3l0,0C206.8,188.3,203.1,184.1,198.1,183.1z"/>
	<path class="st17" d="M198.1,183.1c0-0.1,0-0.2,0-0.2c0-7.4-6.5-13.4-14.4-13.4c-3.2,0-6.2,0.9-8.6,2.6c-2.9-4.7-8.3-7.9-14.7-7.9
		c-9.3,0-16.9,7-16.9,15.7c0,1,0.1,2.1,0.3,3.1c-6,0.2-10.7,4.8-10.7,10.3l0,0c0,5.7,5.1,10.3,11.1,10.3h51.3
		c6.2,0,11.1-4.6,11.1-10.3l0,0C206.8,188.3,203.1,184.1,198.1,183.1z"/>
</g>
<g>
	<rect x="747" y="82.7" class="st18" width="1.9" height="34.2"/>
	<rect x="794.2" y="82.7" class="st18" width="1.9" height="34.2"/>
	<g>
		<rect x="744" y="81.3" class="st19" width="55.7" height="4"/>
		<rect x="744" y="86.6" class="st19" width="55.7" height="4"/>
		<rect x="744" y="91.9" class="st19" width="55.7" height="4"/>
		<rect x="744" y="99.8" class="st19" width="55.7" height="2.3"/>
	</g>
</g>
<g>
	<polygon class="st20" points="39.1,61.8 31.8,61.8 34.6,79.3 39.1,79.3 39.8,79.3 44.2,79.3 47,61.8 39.8,61.8 	"/>
	<g>
		<g>
			<rect x="33" y="61.1" transform="matrix(0.9871 -0.1601 0.1601 0.9871 -10.8671 6.2683)" class="st21" width="0.8" height="19"/>
		</g>
		<g>
			
				<rect x="35.9" y="70.1" transform="matrix(0.1601 -0.9871 0.9871 0.1601 -31.5027 104.0654)" class="st21" width="19" height="0.8"/>
		</g>
	</g>
	<g>
		<g>
			
				<rect x="32.4" y="70.2" transform="matrix(5.571969e-02 -0.9984 0.9984 5.571969e-02 -31.0403 108.3815)" class="st21" width="18.8" height="0.8"/>
		</g>
		<g>
			
				<rect x="36.7" y="61.2" transform="matrix(0.9984 -5.573878e-02 5.573878e-02 0.9984 -3.874 2.1771)" class="st21" width="0.8" height="18.8"/>
		</g>
	</g>
	<path class="st21" d="M44.4,79.3H34c-0.3,0-0.6,0.3-0.6,0.6c0,0.3,0.3,0.6,0.6,0.6h10.4c0.3,0,0.6-0.3,0.6-0.6
		C45,79.6,44.7,79.3,44.4,79.3z"/>
	<path class="st21" d="M44.4,81.1H34c-0.3,0-0.6,0.3-0.6,0.6c0,0.3,0.3,0.6,0.6,0.6h10.4c0.3,0,0.6-0.3,0.6-0.6
		C45,81.3,44.7,81.1,44.4,81.1z"/>
	<path class="st21" d="M46.6,60.7H31.8c-0.5,0-0.8,0.3-0.8,0.6c0,0.3,0.4,0.6,0.8,0.6h14.8c0.5,0,0.8-0.3,0.8-0.6
		C47.5,60.9,47,60.7,46.6,60.7z"/>
	<polygon class="st21" points="42.4,56.5 42.2,55.1 40.5,55.1 40.5,52.4 39.3,49.5 39.2,49.4 39.1,49.4 39.1,49.5 37.8,52.4 
		37.8,55.1 36.2,55.1 35.9,56.5 33.3,58.4 32.6,60.7 39.1,61.1 39.1,61.1 39.2,61.1 39.3,61.1 39.3,61.1 45.8,60.7 45.1,58.4 	"/>
	<rect x="35.2" y="80.2" class="st21" width="7.9" height="1"/>
	<g>
		<path class="st21" d="M34.9,82.3L34.9,82.3C34.9,82.3,34.9,82.3,34.9,82.3z"/>
		<path class="st21" d="M39.4,81.9L39.4,81.9c0-0.1-0.1-0.1-0.2,0c-0.2,0-0.2,0-0.2,0V82c-1.1,0.2-3.9,0.5-4.1,0.4l2.8,5.3v101.9
			h1.3h0.4h1.3V87.5l2.8-5.3C43.3,82.3,40.5,82,39.4,81.9z"/>
		<path class="st21" d="M43.5,82.3L43.5,82.3L43.5,82.3z"/>
	</g>
	<polygon class="st21" points="42.1,189.5 40.8,189.5 39.5,189.5 38.9,189.5 37.5,189.5 36.3,189.5 36.3,193.3 31.9,197.9 
		31.9,202.7 38.9,202.7 39.5,202.7 46.5,202.7 46.5,197.9 42.1,193.3 	"/>
</g>
<g>
	<g>
		<path class="st22" d="M758.5,70.5H757c-1.4,0-2.5,1.1-2.5,2.5l-0.5,8.3c0,1,1.1,1.8,2.1,1.8h3.1c1,0,2.1-0.8,2.1-1.8L761,73
			C761,71.6,759.9,70.5,758.5,70.5z"/>
		<path class="st23" d="M755.6,75.9c0,1.3,1,2.3,2.3,2.3s2.3-1,2.3-2.3V73h-4.7v2.9H755.6z"/>
		<path class="st23" d="M756.3,79.4c0,0.8,0.6,1.4,1.4,1.4s1.4-0.6,1.4-1.4v-3.1h-2.8L756.3,79.4L756.3,79.4z"/>
		<polygon class="st22" points="754.9,76.6 755.9,77.9 756.3,78.6 756.6,72.3 755.2,72.9 		"/>
		<path class="st22" d="M755.7,73.5l0.8,0.3c0,0,0-0.7,0.7-0.7v-0.4h-1.5V73.5z"/>
		<path class="st11" d="M757.1,77.8c0.9,1,1.9,0.4,1.9,0.4v-0.3C758.2,78.4,757.1,77.8,757.1,77.8z"/>
		<path class="st11" d="M759.1,75.9h-0.6c0.4,0.6,0.9,0.1,0.9,0.1l-0.3-1.8L759.1,75.9z"/>
		<path class="st24" d="M753.9,91.2c0,0-1.7,4.6-1.7,6.5c0,2.4,1.4,3,4.5,3h2.6c2.9,0,4.1-1,4.1-3c0-2.4-1.8-6.5-1.8-6.5H753.9z"/>
		<path class="st11" d="M759.1,96.7L759.1,96.7c-0.3,0.4-0.6,0.6-1.1,0.6c-2-0.1-3.7-0.9-5.4-1.6c-0.2,0.8-0.3,1.6-0.3,2.1
			c0,2.4,1.4,3,4.5,3h2.6c2.9,0,4.1-1,4.1-3c0-0.9-0.3-2.2-0.7-3.5C761.7,95.3,760.5,96.1,759.1,96.7z"/>
		<path class="st25" d="M763.3,81L763.3,81c0,0-0.2-1.2-1.4-1.5l-2.8-0.7c-0.1,0.2-3.1,0-3.1,0l-2.7,0.7c-1,0.3-1.4,1.1-1.5,1.4
			l-0.4,2.1c0.2,0.1,2.1,2.6,2.1,2.6l0.4,5.6c0,0-0.2,0.4-0.4,1.1c2.8,0,5.8,0.3,8.6,0.3c-0.3-0.8-0.6-1.5-0.6-1.5l-0.1-4.7
			c0.4-0.3,0.7-0.8,0.7-1.4l0,0c0,0,0-0.4-0.1-1c0.8-0.5,1.3-0.8,1.6-0.9L763.3,81z"/>
		<path class="st23" d="M756.3,78.7l-2.5,0.7c1,2.4,7.1,1.6,8.2,0.1l-2.9-0.8C759,78.9,756.2,78.7,756.3,78.7z"/>
		<path class="st11" d="M753.5,85.6l0.4,5.6c0,0-0.2,0.4-0.4,1.1c0.3,0,0.7,0,1,0c0-1.1-0.1-2.1-0.2-3.2
			C754.3,88,754.3,86.7,753.5,85.6z"/>
		<path class="st11" d="M759.8,86.6c0.1,0,0.1,0.1,0.2,0.1c0.5,0.1,0.9,0.5,0.9,1.2c0,1.8-0.9,3.2-0.8,4.8c0.4,0,2,0,2,0
			c-0.3-0.8-0.6-1.5-0.6-1.5l-0.1-4.7c0.4-0.3,0.7-0.8,0.7-1.4V85c-0.6,0.5-1.2,1-1.9,1.4C760.1,86.5,760,86.6,759.8,86.6z"/>
	</g>
	<path class="st23" d="M756.4,98.6l1.9,11l-1.1,5.2c0,0-0.3,2,0.5,2.3c1.3,0.4,2.4-0.2,2.5-2.3v-5.1l0.5-8.6
		C760.8,101,760.5,94.6,756.4,98.6z"/>
	<path class="st11" d="M756.4,98.6v0.3c0.2,0,0.3,0.1,0.5,0.2c0.3,0,0.6,0.1,0.8,0.3c2.2,2,2.3,5,2.3,7.7c0,1.8-0.2,2-0.1,3.8
		c0,1.4,0.3,2.8,0.3,4.2c0-0.1,0-0.3,0-0.4v-5.1l0.5-8.6C760.8,101,760.5,94.6,756.4,98.6z"/>
	<path class="st26" d="M759.7,114.3c-0.8,0.5-2.1,0.6-2.3-0.4l-0.2,0.9c0,0-0.3,2,0.5,2.3c1.3,0.4,2.4-0.2,2.5-2.3v-1
		C760.1,114,759.9,114.2,759.7,114.3z"/>
	<path class="st25" d="M763.7,83.1l-2.2,1.2l1,4.7l-3.9,2.7l1,1.2l4.3-1.9c0.6-0.3,1-0.7,0.9-1.3L763.7,83.1z"/>
	<path class="st25" d="M753.9,84.4l-2.4-1.8l-1.3,7c-0.1,0.6,0.3,1,0.9,1.3l4.6,2.3l1.2-1.3l-4.3-2.9L753.9,84.4z"/>
	<path class="st11" d="M751.4,85.7c0.3-2.7,0.5-4.8,0.5-4.8l-0.6,3.3l-1,5.5c-0.1,0.6,0.3,1,0.9,1.3l4.6,2.3l0.7-0.8
		c-1.2-0.6-4.2-2.4-5.2-3.3C751,89.1,751.1,87.8,751.4,85.7z"/>
	<path class="st11" d="M764.5,88.1c0,1.7-0.6,1.7-1,1.9c-1.5,0.9-4,1.8-4.6,2.1l0.6,0.8l4.3-1.9c0.6-0.3,1-0.7,0.9-1.3L764.5,88.1z"
		/>
	<path class="st25" d="M761.1,81.3c0,0-6.8,0.2-6.8,1.1l-0.1,2.7c0,0.9,0.9,1.6,1.7,1.6h4.9c0.8,0,1.4-0.7,1.4-1.6V85
		C762.2,85,761.9,81.3,761.1,81.3z"/>
	<path class="st11" d="M761.4,85.7c-0.7,0.6-1.5,0.9-2.4,1h1.7c0.8,0,1.4-0.7,1.4-1.6V85c0,0,0-0.2,0-0.4
		C762,85,761.8,85.4,761.4,85.7z"/>
	<path class="st23" d="M766,106l-3.2-7.9c0,0-0.9-1.9-1.5-2.4s-2.4-1.9-4.2-0.5c-2.3,1.9-0.5,4.5-0.5,4.5s-0.5-1,1.3-0.9
		c0.5,0.1,2.9,3.1,2.9,3.1l3.8,5.2l1.8,4.6c1,1.8,2.4,2.1,3.7,1.7c1-0.3-0.9-2.6-0.9-2.6L766,106z"/>
	<path class="st26" d="M768.9,110.5c0,0.3,0,0.5,0,0.7c-0.4,1.3-1.9,0.7-2.7,0l0.2,0.5c1,1.8,2.4,2.1,3.7,1.7c1-0.3-0.9-2.6-0.9-2.6
		L768.9,110.5z"/>
	<path class="st23" d="M758.8,91.6l-2,0.5l-1.1,1.2c1.3,0.8,2.4,0,2.4,0l1.6,0.5c1.3,0.1,1.2-0.5,1.2-0.5L758.8,91.6z"/>
	<path class="st11" d="M758.4,92.7c-0.1-0.1-0.1-0.1-0.2-0.2c-0.5,0-1,0.4-1.4,0.5c-0.3,0.1-0.5,0-0.7-0.1l-0.3,0.4
		c1.3,0.8,2.4,0,2.4,0l1.6,0.5h0.1c-0.3-0.2-0.7-0.4-1-0.6C758.8,93,758.5,92.9,758.4,92.7z"/>
	<path class="st23" d="M758.3,91.3l-0.9-0.4c-0.2-0.1-0.5-0.1-0.6,0l-1.4,1c0,0,0.9,0.8,1.6,0.4c0.7-0.3,1.5-0.5,1.5-0.5
		S758.8,91.6,758.3,91.3z"/>
</g>
<g>
	<g>
		<g>
			<path class="st27" d="M790.2,78.8l-4.9-1.9l0,0l0,0l0,0h-0.1h-0.1l0,0l0,0l0,0l-4.9,1.9c-1.3,0.3-1.7,1.3-1.8,1.6l0,0l2,5.6
				l0.1,4.4l-0.4,4.4h10.1l-0.3-9.9l2.2-4.6C791.9,80,791.4,79.1,790.2,78.8z"/>
			<path class="st11" d="M789.5,85.2c-0.2,0.7-0.8,7.9-1.3,9.6h1.9l-0.3-9.9L789.5,85.2z"/>
			<path class="st11" d="M790.1,95.5L790.1,95.5L790.1,95.5z"/>
			<path class="st28" d="M782.1,74.3c0,1.4,1.2,2.6,2.6,2.6s2.9-1.7,2.9-3.1v-2.6H782L782.1,74.3L782.1,74.3z"/>
			<path class="st28" d="M783.4,78.3c0,0.4,0.2,0.8,0.4,1c0.1,0,0.3-0.1,0.5-0.1c0.5,0,0.9,0.2,1.2,0.4c0.6-0.2,1-0.8,1-1.4v-3.5
				h-3.1L783.4,78.3L783.4,78.3z"/>
			<path class="st29" d="M785.4,69.1h-4c0,2,0.6,2,0.6,2h3.4c0.8,0,0.8,0.8,0.8,0.8l0,0l0,0v0.8h0.4c0,0,0.2-0.3,0.4-0.3
				s0.4,0,0.4,0.5c0,1.4-0.7,1.3-0.7,1.3l-0.2,1.7c1.2-0.6,1.3-2.9,1.3-2.9v-2C787.8,68.8,785.4,69.1,785.4,69.1z"/>
			<path class="st11" d="M783.4,76.6v0.3c0,0,1.2,0.7,2.3-0.5C785.7,76.4,784.4,77.1,783.4,76.6z"/>
			<path class="st11" d="M783.3,72.1L783,74c0,0,0.4,0.6,0.9-0.1h-0.7L783.3,72.1z"/>
			<g>
				<polygon class="st18" points="784.6,79.2 785.7,80.4 787.3,77.6 786.6,76.8 				"/>
				<polygon class="st18" points="782.7,77.8 783.4,80.4 784.6,79.2 783.3,76.9 				"/>
			</g>
		</g>
		<path class="st30" d="M779.2,98c0,1.4,1.2,2.6,2.6,2.6h5.8c1.4,0,2.6-1.2,2.6-2.6v-3.2h-10.9L779.2,98L779.2,98z"/>
		<path class="st11" d="M789.7,95.6c-1.3,1.9-3.5,2.4-5.8,2.5c-1.2,0-2.3-0.1-3.5-0.1c-0.4,0-0.8,0-1.3,0v0.2c0,1.3,1.1,2.4,2.4,2.4
			h6.2c1.3,0,2.4-1.1,2.4-2.4v-2.6H790C789.9,95.6,789.8,95.6,789.7,95.6z"/>
		<path class="st31" d="M778.5,115.1l-2.3,1c-1.2,0.1-1.3,1.1-1.3,1.1h6.2c0.2-1.1-0.3-2.1-0.3-2.1H778.5z"/>
		<path class="st31" d="M784.8,115.1l-1.6,1c-1.3,0.1-1.4,1.1-1.4,1.1h5.4c0.2-1.1-0.3-2.1-0.3-2.1H784.8z"/>
		<polygon class="st27" points="777.2,91 776.1,98 778,98 779.7,91.9 780.7,84.7 778.3,80.4 		"/>
		<path class="st11" d="M776.6,97.9C776.6,98,776.6,98,776.6,97.9L778,98l1.7-6.1l0.5-4c-0.6,1.7-1,3.9-1,3.9S777.5,96.4,776.6,97.9
			z"/>
		<polygon class="st27" points="789.8,84.9 790.7,90.6 793.4,90.4 792,80.4 		"/>
		<path class="st28" d="M776.1,98c0,0-0.9,1.1-0.9,1.5s-0.1,1,0.5,1s2.2,0,2.2,0l-0.3-2.5H776.1z"/>
		<path class="st30" d="M779.2,94.8c-1.1,0-2,0.9-2,2l1.1,18.3h2.8V96.9C781.1,95.7,780.2,94.8,779.2,94.8z"/>
		<path class="st11" d="M780.6,99.7c-0.2,5.2-0.8,10.3-1,15.5h1.5V96.9c0-0.4-0.1-0.8-0.3-1.1C781,97.1,780.9,98.4,780.6,99.7z"/>
		<path class="st30" d="M785.3,94.8c-1.1,0-2,0.9-2,2l1.1,18.3h2.8V96.9C787.3,95.7,786.4,94.8,785.3,94.8z"/>
		<path class="st11" d="M786.3,95.1c1.5,1.6,0.2,5.3,0.1,7.4c-0.3,4.2-0.4,8.4-0.8,12.6h1.7V96.9C787.3,96.1,786.9,95.5,786.3,95.1z
			"/>
	</g>
	<path class="st27" d="M786.9,91.5c0,0-0.1,0.7,0.1,1.8l5.2-1.1c0.7,0,1.3-0.6,1.3-1.3l-0.2-1.8L786.9,91.5z"/>
	<path class="st32" d="M785.5,88.8c0-0.1-0.2-0.2-0.3-0.2l-2,0.4c-0.1,0-0.2,0.2-0.2,0.3l0.8,4.1c0,0.1,0.2,0.2,0.3,0.2l2-0.4
		c0.1,0,0.2-0.2,0.2-0.3L785.5,88.8z"/>
	<path class="st28" d="M785.9,90.9l0.1,0.6h-2.7c0,0.6,0.5,0.6,0.5,0.6l0.7,1c0.1,0.2,0.4,0.3,0.6,0.3h0.9c0.9,0,1.2-0.3,1.2-0.3
		l-0.1-1.5C786.9,91.3,785.9,90.9,785.9,90.9z"/>
</g>
<g>
	<path class="st33" d="M675.1,119.7c-0.7,0-1.5,0.2-1.6,0.4c-0.1,0.2-0.1,0.2-0.1,0.2l0.3,0.6c0,0,1.2,0.8,2.7,0.7
		c1.5-0.1,2.1-0.4,2.8-0.3c0.7,0,2.8,0.4,2.9-0.3c0.1-0.5,0.2-1.9,0.2-1.9l-4.7-0.7C677.7,118.5,675.8,119.8,675.1,119.7z"/>
	<path class="st34" d="M675,121.6c0.4,0.1,0.8,0.2,1.3,0.1c1.5-0.1,2.1-0.4,2.8-0.3c0.7,0,2.8,0.4,2.9-0.3c0.1-0.5,0.2-1.9,0.2-1.9
		l-3.1-0.5C678.6,120.5,676.9,121.3,675,121.6z"/>
	<path class="st35" d="M685.6,112c0,0-3.9,3.8-4.7,4.4s-4.7,2.7-5,3.1c0,0,0.9,0.9,3.2,0.4c1.3-0.3,2.3-0.7,3.2-0.7
		c0,0,0-0.8,0.4-1.2c0.3-0.4,5.6-3.6,5.6-3.6S687.9,111.5,685.6,112z"/>
	<path class="st34" d="M687.1,112.3c0,0.2,0,0.4-0.1,0.7c-0.6,1-1.5,1.7-2.5,2.3c-1.7,1.1-2.7,1.8-4,3.3c-0.6,0.6-1.2,1.1-1.9,1.5
		c0.2,0,0.4,0,0.6-0.1c1.3-0.3,2.3-0.7,3.2-0.7c0,0,0-0.8,0.4-1.2c0.3-0.4,5.6-3.6,5.6-3.6S688.1,112.9,687.1,112.3z"/>
	<path class="st29" d="M707.7,94.8c0,0,1.5,1.5,2.9,1.3l0.4-1.4l-2.2-1.2C708.8,93.5,708.6,94.8,707.7,94.8z"/>
	<path class="st11" d="M707.7,94.8c0,0,1.5,1.5,2.9,1.3l0.4-1.4l-2.2-1.2C708.8,93.5,708.6,94.8,707.7,94.8z"/>
	<polygon class="st35" points="702.7,108.6 705.9,104.4 706.8,96.7 700.8,106.1 	"/>
	<path class="st34" d="M702,107.7l0.6,0.8l3.3-4.2l0.9-7.7l-0.9,1.4C705.6,101.5,704.8,105.8,702,107.7z"/>
	<path class="st36" d="M700.2,100.2l-10.2-1c-0.2,0-0.3,0.1-0.2,0.3l2.7,8.2l10.9,1.2l-2.6-8.2C700.7,100.4,700.4,100.2,700.2,100.2
		z"/>
	<path class="st37" d="M700.2,100.2l-10.2-1c-0.2,0-0.3,0.1-0.2,0.3l2.1,6.5c2.5-0.1,5.2-0.1,7.6-1.1c0.8-0.3,1.5-0.8,2.2-1.3
		l-0.9-2.9C700.7,100.4,700.4,100.2,700.2,100.2z"/>
	<path class="st38" d="M694.2,107.2c0,0-1.7-0.9-2.5-0.8c-0.8,0-5.2,4.3-5.2,4.3l2.8,3l3.3-1.9c0,0,7.1,5.4,8.7,5.9
		c1.6,0.6,4.1,0.5,4.1,0.5l-5.2-6.2L694.2,107.2z"/>
	<path class="st18" d="M678.9,121c-0.7,0-1.5,0.2-1.6,0.4c-0.1,0.2-0.1,0.2-0.1,0.2l0.3,0.6c0,0,1.2,0.8,2.7,0.7
		c1.5-0.1,2.1-0.4,2.8-0.3c0.7,0,2.8,0.4,2.9-0.3c0.1-0.5,0.2-1.9,0.2-1.9l-4.7-0.7C681.5,119.8,679.6,121,678.9,121z"/>
	<path class="st34" d="M678.5,122.7c0.5,0.2,1.1,0.3,1.8,0.3c1.5-0.1,2.1-0.4,2.8-0.3c0.7,0,2.8,0.4,2.9-0.3
		c0.1-0.5,0.2-1.9,0.2-1.9l-2.7-0.4C681.8,121.2,680.4,122.4,678.5,122.7z"/>
	<path class="st39" d="M710.3,94.7c0,0,0.2,0.7,0.1,0.7c-0.2,0-0.9,0.2-0.9,0.2l-1.9,5.6c0,0,2.9,0.4,3.1,0c0.1-0.4,4.9-5.7,4.9-5.7
		l-2-2.3L710.3,94.7z"/>
	<path class="st18" d="M717.7,96.5c-1.2-0.9-3.1-2.1-3.1-2.1l-5.3,5.8l0.1-4.6l-2,0.4c0,0-1,0.5-1.2,2c-0.2,1.3-1.1,5.9-1.1,5.9
		l0.1,6.2c0,0,3.9,0.5,5.3,1.4c1.4,1,2.5,3.9,2.4,4.9c0,0,1.3-2,1.5-2.8c0.4-1.4,4.7-8.5,4.8-12.7C719.1,97.2,718.6,97.2,717.7,96.5
		z"/>
	<path class="st33" d="M717.7,96.5L717.7,96.5c-0.1,0.1-0.2,0.4-0.4,0.6c-2.6,4.7-4.8,10.9-9.8,13.5c1.1,0.2,2.2,0.6,2.9,1
		c1.4,1,2.5,3.9,2.4,4.9c0,0,1.3-2,1.5-2.8c0.4-1.4,4.7-8.5,4.8-12.7C719.1,97.2,718.6,97.2,717.7,96.5z"/>
	<path class="st36" d="M709.7,110.1l-8.8-1.7c-0.3,0-0.5,0.1-0.5,0.4s0.1,0.5,0.4,0.5l8.8,1.7c0.3,0,0.5-0.1,0.5-0.4
		C710.1,110.4,709.9,110.1,709.7,110.1z"/>
	<path class="st40" d="M711.1,111.6c-1.1-0.7-5.1-1.5-5.1-1.5s-8.2-3.2-8.9-3.4c-0.8-0.2-2.6-0.6-2.9-0.1c-0.3,0.5-3.7,5.2-3.9,5.5
		s3.2,3,3.2,3s2.8-2.1,3.1-2.6c0,0,3.5,3.2,4.1,3.6c0.6,0.5,3.1,2.4,5.2,2.5c2.1,0.2,4.1,0.4,5.8-0.8c1.7-1.2,1.5-1.9,1.6-2.7
		C713.1,113.9,712.2,112.4,711.1,111.6z"/>
	<path class="st34" d="M706.3,115.9c-2.8-0.5-5.4-2.1-8-3.2c-0.1,0-1.3-0.6-2.2-1c-0.7,0.9-1.7,1.6-2.7,2.3
		c-0.3,0.2-0.6,0.3-0.9,0.4c0.5,0.4,0.9,0.7,0.9,0.7s2.8-2.1,3.1-2.6c0,0,3.5,3.2,4.1,3.6c0.6,0.5,3.1,2.4,5.2,2.5
		c2.1,0.2,4.1,0.4,5.8-0.8c1.7-1.2,1.5-1.9,1.6-2.7c0-0.1,0-0.2,0-0.3C711.2,116.2,708.2,116.2,706.3,115.9z"/>
	<path class="st24" d="M690.7,111.3l-1.4,1.9c1.9,0,3.1,2.8,3.1,2.8l1.8-1.4C693.5,111.7,690.7,111.3,690.7,111.3z"/>
	<path class="st34" d="M691.4,114.6c0.6,0.7,0.9,1.4,0.9,1.4l1.8-1.4c-0.2-1.1-0.7-1.8-1.3-2.4C692.5,113.2,692.1,113.9,691.4,114.6
		z"/>
	<path class="st24" d="M686.8,110.1l-1.6,1.9c1.9,0,3.1,2.8,3.1,2.8l1.8-1.4C689.4,110.4,686.8,110.1,686.8,110.1z"/>
	<path class="st35" d="M689.5,113.3c0,0-3.9,3.8-4.7,4.4s-4.7,2.8-5,3.2c0,0-0.4,0.9,3.4,0.3c2.2-0.4,2.9-0.2,2.9-0.2
		s0.1-1.2,0.5-1.6c0.3-0.4,5.5-3.6,5.5-3.6S691.7,112.8,689.5,113.3z"/>
	<path class="st34" d="M689,117.1c-2.4,1.5-5,2.7-7.4,4.2c0.4,0,0.9-0.1,1.6-0.2c2.2-0.4,2.9-0.2,2.9-0.2s0.1-1.2,0.5-1.6
		c0.3-0.4,5.5-3.6,5.5-3.6s-0.1-0.6-0.4-1.2C691.1,115.6,690.2,116.4,689,117.1z"/>
	<path class="st35" d="M709.9,87.2c-1.3,0.2-2.5,1.2-2.5,1.2s-0.6,0.3-0.2,1.3c0.4,1,0.7,1.9,0.7,1.9s-0.3,0.4,0.1,1.2
		c0.3,0.6,1.1,1.5,1.5,2c0.2,0.2,0.4,0.3,0.6,0.3c0.2,0,0.4,0,0.6-0.1l2.7-1.8C713.4,93.2,711.2,87,709.9,87.2z"/>
	<path class="st35" d="M716.1,97.2c-1.2,0.5-1.5,3.1-1.5,3.6s0.2,7.8,0.2,7.8l-7-0.6l-3-1l-1.6,0.9l3.3,1.5l1.8,0.3
		c0,0,4.9,1.8,6.2,2.1c1.2,0.4,3.2,0.6,3.8,0.1c0.3-0.3,0.9-12.6,0.4-13.8C718.1,97,717.3,96.6,716.1,97.2z"/>
	<path class="st34" d="M718.5,98c-0.1,4.3-0.5,7-1.1,8.9c-0.9,3.2-3.6,4.5-6.6,3.5c-0.3,0-0.7-0.1-1-0.1c1.5,0.5,3.7,1.3,4.5,1.5
		c1.2,0.4,3.2,0.6,3.8,0.1C718.4,111.6,719,99.3,718.5,98C718.5,98.2,718.5,98.1,718.5,98z"/>
	<polygon class="st35" points="703.1,107.9 703.4,108.8 706.7,109.5 706.5,108 	"/>
	<path class="st29" d="M707.9,86.2c-1.1,0.7-1.5,1.7-1.5,2.8c-0.1,1,1.4,2.6,1.4,2.6s-0.1-0.2-0.3-1c-0.2-0.7,0.6-2.6,0.6-2.6l0.9-2
		C709,86,709,85.6,707.9,86.2z"/>
	<path class="st29" d="M712.2,85.4c-1.4-0.4-2.3-0.6-3.3,0.6s-0.8,2.1-0.8,2.1s1,1.4,3.2,2.3c1.8,0.7,1.5,3.1,1.3,4.1
		c-0.2,1.1-0.6,1.2-0.6,1.2s2.1,0.2,2.7,0c0.9-0.3,1.5-0.3,2-1.1c0.7-1,1.3-3.2,0.2-4.6C715.7,88.5,713.8,85.8,712.2,85.4z"/>
	<path class="st11" d="M714.1,86.7c0.7,0.8,1.2,1.8,1.5,3c0.4,2.3-0.7,4.6-2.4,6c0.6,0,1.3,0,1.5-0.1c0.9-0.3,1.5-0.3,2-1.1
		c0.7-1,1.3-3.2,0.2-4.6C716.2,89.1,715.2,87.7,714.1,86.7z"/>
</g>
<g>
	<g>
		<rect x="245.1" y="124.5" class="st18" width="4" height="78.1"/>
		<rect x="345.7" y="124.5" class="st18" width="4" height="78.1"/>
		<g>
			<rect x="238.5" y="121.7" class="st19" width="118.9" height="8.6"/>
			<rect x="238.5" y="132.9" class="st19" width="118.9" height="8.6"/>
			<rect x="238.5" y="144" class="st19" width="118.9" height="8.6"/>
			<rect x="238.5" y="161" class="st19" width="118.9" height="5"/>
		</g>
	</g>
	<g>
		<g>
			<g>
				<path class="st25" d="M328.5,113.1L328.5,113.1c-0.3-0.8-1.3-3.1-4.4-3.9l-11.9-4.4c0,0,0,0,0-0.1l0,0h-0.1h-0.1h-0.1h-0.1l0,0
					c0,0,0,0,0,0.1l-11.9,4.4c-3.1,0.8-4.2,3.1-4.4,3.9l5.5,11.1L300,148h24.5l-0.9-10.7l0.3-10.7L328.5,113.1z"/>
				<path class="st41" d="M300.7,124.2l-0.8,23.8h4.6c-1.1-4.2-2.7-21.7-3.1-23.2L300.7,124.2z"/>
				<path class="st29" d="M299.9,149.8h0.1C300,149.8,300,149.8,299.9,149.8z"/>
				<path class="st28" d="M306,97.2c0,3.5,3.6,7.5,7.1,7.5s6.3-2.8,6.3-6.3v-7.6H306V97.2z"/>
				<path class="st28" d="M308.6,108c0,1.6,1.1,2.9,2.4,3.3c3.1,0.4,3.5-0.5,4-0.9c0.7-0.7,1.1-1.5,1.1-2.5v-8.6h-7.5L308.6,108
					L308.6,108z"/>
				<path class="st29" d="M305.4,90.7v5c0,0,0.3,5.4,3.2,7l-0.5-4.2c0,0-1.7,0.3-1.7-3.2c0-1.2,0.5-1.3,0.9-1.3
					c0.5,0,0.9,0.8,0.9,0.8h0.9v-1.9l0,0l0,0c0,0,0-2,2-2h8.2c0,0,1.6-0.1,1.6-5h-9.6C311.4,85.9,305.4,85.1,305.4,90.7z"/>
				<path class="st29" d="M310.6,103.4c2.7,2.7,5.5,1.1,5.5,1.1v-0.7C313.7,105.3,310.6,103.4,310.6,103.4z"/>
				<path class="st11" d="M316.5,97.6h-1.6c1.1,1.6,2.1,0.1,2.1,0.1l-0.7-4.6L316.5,97.6z"/>
			</g>
			<path class="st30" d="M299.9,155.7c0,3.5,2.8,6.2,6.2,6.2h14.1c3.5,0,6.2-2.8,6.2-6.2V148h-26.5v7.6H299.9z"/>
			<path class="st41" d="M323.3,155.7c-2.8,0-5.6,0.3-8.6,0.1c-5.5,0-10.7-1.3-13.9-6c-0.3,0-0.5,0-0.7-0.1c-0.1,0-0.1,0-0.3,0v6.3
				c0,3.2,2.5,5.8,5.8,5.8h14.9c3.2,0,5.8-2.5,5.8-5.8v-0.4C325.4,155.8,324.4,155.8,323.3,155.7z"/>
			<path class="st31" d="M333.6,199.6l-5.6-2.4h-5.5c0,0-1.2,2.4-0.8,5.1h15.1C336.8,202.4,336.7,200,333.6,199.6z"/>
			<path class="st31" d="M316.5,199.6l-3.7-2.4h-5.1c0,0-1.2,2.4-0.8,5.1h13C319.8,202.4,319.7,200,316.5,199.6z"/>
			<polygon class="st28" points="328.5,113.1 322.6,123.5 325,141.1 329.2,155.8 333.9,155.8 331.2,138.8 			"/>
			<path class="st25" d="M322.5,123.3l0.7,4.6c0.1,0,0.3-0.1,0.4-0.1c2-0.5,5.6-0.8,7.6-1.2l-2.8-13.4L322.5,123.3z"/>
			<path class="st41" d="M326.1,140.8c0,0-0.9-5.4-2.3-9.4l1.3,9.6l4.2,14.7h3.5l-0.1-0.1C330.4,151.8,326.1,140.8,326.1,140.8z"/>
			<path class="st25" d="M292.9,126.7c0,0,5.4,1.1,7.5,1.5l0.8-3.6l-6-11.5L292.9,126.7z"/>
			<path class="st28" d="M291.8,137.7l6.7,0.1l1.6-9.6c-2.3-0.4-4.6-0.7-6.7-1.2L291.8,137.7z"/>
			<path class="st28" d="M333.9,155.8h-3.6l-0.7,6.2c0,0,4,0,5.4,0c1.3,0,1.2-1.5,1.2-2.4C336,158.5,333.9,155.8,333.9,155.8z"/>
			<path class="st30" d="M326.4,148c-2.7,0-4.8,2.3-4.8,5v44.2h6.8l2.8-44.2C331.2,150.3,329.1,148,326.4,148z"/>
			<path class="st41" d="M322.4,150.3c-0.4,0.8-0.8,1.6-0.8,2.7v44.2h3.6c-0.5-12.5-1.7-24.9-2.4-37.4
				C322.2,156.7,321.8,153.7,322.4,150.3z"/>
			<path class="st30" d="M311.5,148c-2.7,0-4.8,2.3-4.8,5v44.2h6.7l2.8-44.2C316.3,150.3,314.2,148,311.5,148z"/>
			<path class="st41" d="M309.1,148.8c-1.3,0.9-2.3,2.4-2.3,4.2v44.2h4c-0.9-10.2-1.1-20.2-2-30.4
				C308.4,161.7,305.4,152.7,309.1,148.8z"/>
		</g>
		<path class="st28" d="M291.8,138.7c0,1.7,1.1,2.5,3.1,3.1l11.5,5.2c0.5-2.7,0.9-4.7,0.9-4.7l-14.9-9.5L291.8,138.7z"/>
		<path class="st29" d="M315.9,101c-3.5,0-6.3,0.1-6.7-7.2h-1.1l-0.1,4.7c0,0,0.8,7.5,7.1,7.6c5.8,0.1,4.2-8.4,4.2-8.4
			S320,101,315.9,101z"/>
		<path class="st29" d="M316.1,99h-1.6c-1.2,0-2.3,1.1-2.3,2.3v0.7c0,1.3,1.1,2.3,2.3,2.3h1.6c1.2,0,2.3-1.1,2.3-2.3v-0.7
			C318.3,100.1,317.3,99,316.1,99z"/>
		<path class="st42" d="M315.7,102.2c0.9,0,1.6,0,1.6-1.1h-3.2C314.1,102.2,314.9,102.2,315.7,102.2z"/>
	</g>
	<g>
		<polygon class="st32" points="304.6,149.8 332,149.8 336,131.6 308.6,131.6 		"/>
		<rect x="299.6" y="148" class="st32" width="9.6" height="1.6"/>
	</g>
</g>
</svg>
