<?xml version="1.0" encoding="utf-8"?>
<!-- Generator: Adobe Illustrator 24.1.2, SVG Export Plug-In . SVG Version: 6.00 Build 0)  -->
<svg version="1.1" id="Livello_1" xmlns="http://www.w3.org/2000/svg" xmlns:xlink="http://www.w3.org/1999/xlink" x="0px" y="0px"
	 viewBox="0 0 822.6 81.9" style="enable-background:new 0 0 822.6 81.9;" xml:space="preserve">
<style type="text/css">
	.st0{fill:#F1F9FA;}
	.st1{fill:#DBEFF1;}
	.st2{fill:#FFDF73;}
</style>
<path class="st0" d="M715.2,35.2H713c0.1-1,0.2-2.1,0.2-3.1c0-12.1-9.8-21.9-21.9-21.9c-8.2,0-15.3,4.5-19.1,11.1
	c-3.2-2.3-7.1-3.7-11.4-3.7c-10.2,0-18.5,7.8-19.3,17.8c-6.8,0.9-12,6.8-12,13.8c0,7.7,6.3,14,14,14h71.8c7.7,0,14-6.3,14-14
	S722.8,35.2,715.2,35.2z"/>
<g>
	<path class="st1" d="M814.9,62.3H695c-4.2,0-7.7,3.5-7.7,7.7l0,0c0,4.2,3.5,7.7,7.7,7.7h119.9c4.2,0,7.7-3.5,7.7-7.7l0,0
		C822.5,65.8,819.1,62.3,814.9,62.3z"/>
	<path class="st1" d="M725.5,38.4c-12.9,0-23.4,10.5-23.4,23.4s16.7,10.3,29.6,10.3c12.9,0,17.1,2.6,17.1-10.3
		C748.8,48.9,738.4,38.4,725.5,38.4z"/>
	
		<ellipse transform="matrix(2.257836e-03 -1 1 2.257836e-03 733.0579 848.063)" class="st1" cx="791.5" cy="56.7" rx="17.7" ry="17.7"/>
	<ellipse class="st1" cx="760.5" cy="46.9" rx="27.1" ry="27.1"/>
</g>
<g>
	<path class="st1" d="M81.7,39.9H4.9c-2.7,0-4.9,2.2-4.9,4.9l0,0c0,2.7,2.2,4.9,4.9,4.9h76.8c2.7,0,4.9-2.2,4.9-4.9l0,0
		C86.6,42.1,84.4,39.9,81.7,39.9z"/>
	<path class="st1" d="M24.4,24.7c-8.3,0-15,6.7-15,14.9s10.7,6.5,19,6.5s10.9,1.7,10.9-6.5C39.4,31.3,32.7,24.7,24.4,24.7z"/>
	<ellipse class="st1" cx="66.7" cy="36.3" rx="11.3" ry="11.2"/>
	<ellipse class="st1" cx="46.9" cy="30.1" rx="17.3" ry="17.2"/>
</g>
<ellipse class="st2" cx="144.5" cy="25" rx="25" ry="25"/>
<path class="st0" d="M141.6,53.9h-2.2c0.1-1,0.2-2.1,0.2-3.1c0-12.1-9.8-21.9-21.9-21.9c-8.2,0-15.3,4.5-19.1,11.1
	c-3.2-2.3-7.1-3.7-11.4-3.7c-10.2,0-18.5,7.8-19.3,17.8c-6.8,0.9-12,6.8-12,13.8c0,7.7,6.3,14,14,14h71.8c7.7,0,14-6.3,14-14
	C155.5,60.2,149.2,53.9,141.6,53.9z"/>
</svg>
