<?xml version="1.0" encoding="utf-8"?>
<!-- Generator: Adobe Illustrator 24.1.2, SVG Export Plug-In . SVG Version: 6.00 Build 0)  -->
<svg version="1.1" id="Layer_1" xmlns="http://www.w3.org/2000/svg" xmlns:xlink="http://www.w3.org/1999/xlink" x="0px" y="0px"
	 viewBox="0 0 900 277.9" style="enable-background:new 0 0 900 277.9;" xml:space="preserve">
<style type="text/css">
	.st0{fill:#A4D8DC;}
	.st1{fill:#A9DADE;}
	.st2{fill:#B8E1E4;}
	.st3{fill:#94D1D6;}
	.st4{fill:#816562;}
	.st5{fill:#759E56;}
	.st6{opacity:0.2;}
	.st7{opacity:0.8;}
	.st8{fill:#696867;}
	.st9{fill:#7EA77B;}
	.st10{fill:#6C9C6B;}
	.st11{opacity:0.1;}
	.st12{fill:#84A969;}
	.st13{fill:#B6E0E3;}
	.st14{fill:#D4E193;}
	.st15{fill:#A8CF78;}
	.st16{fill:#E6DCD1;}
	.st17{fill:#638749;}
	.st18{fill:#FFFFFF;}
	.st19{fill:#CB8456;}
	.st20{fill:#7DB159;}
	.st21{fill:#64C2C8;}
	.st22{fill:#F39660;}
	.st23{fill:#6A4A4F;}
	.st24{fill:#5B4436;}
	.st25{fill:#FAF8F6;}
	.st26{opacity:0.3;}
	.st27{fill:#BABDC6;}
	.st28{fill:#625955;}
	.st29{fill:#EAB99F;}
	.st30{opacity:8.000000e-02;}
	.st31{fill:#F3E7CB;}
	.st32{fill:#623E3B;}
	.st33{fill:#EC614E;}
	.st34{fill:#3F82A4;}
	.st35{fill:#595959;}
	.st36{fill:#434343;}
	.st37{fill:#127296;}
	.st38{fill:#F08172;}
	.st39{fill:#C39276;}
	.st40{fill:#C4E3F1;}
	.st41{fill:#40403F;}
	.st42{fill:#9D9D9C;}
	.st43{fill:#CE9B25;}
	.st44{fill:#6193B2;}
	.st45{fill:#3F3F3E;}
	.st46{fill:#4A4A49;}
	.st47{opacity:5.000000e-02;}
	.st48{fill:#E2C37C;}
	.st49{fill:#6E4643;}
	.st50{fill:#89C7B9;}
	.st51{fill:#EABC45;}
	.st52{fill:#F07E2D;}
	.st53{fill:#DF772A;}
	.st54{fill:#E1DDDB;}
	.st55{fill:#F0EEED;}
	.st56{fill:#E69351;}
	.st57{fill:#F4F4F4;}
	.st58{opacity:7.000000e-02;}
	.st59{fill:#EEC7B2;}
	.st60{fill:#9C9C9B;}
	.st61{fill:#B1B1B1;}
	.st62{fill:#EDC3AD;}
	.st63{fill:#528FAD;}
	.st64{opacity:0.1;fill:#1D1D1B;}
	.st65{fill:#F0BB9D;}
</style>
<g>
	<g>
		<path class="st0" d="M878,56.1h-0.3H877v1.7h-11v2.3h-3.7v2.5v0.1v0.3V64v1.7v0.1v0.3v0.9v1.7v0.1v0.3v0.9v1.7V72v0.3v0.9v1.7V75
			v0.3v0.9V78v0.1v0.3v0.9V81h-16.9V53h-4.1v-4h-4.5v-3.5h0c0.2,0,0.3-0.1,0.3-0.3c0-0.2-0.1-0.3-0.3-0.3h0l-7.2-6.6h0.1v-3.7h-1.4
			l-0.4-8.2c0,0-0.1,0-0.1,0c0,0,0,0,0,0l-0.4,8.2H826v3.7l-7.2,6.6h0c-0.2,0-0.3,0.1-0.3,0.3c0,0.2,0.1,0.3,0.3,0.3h0V49h-4v18.2h0
			V53h-4.1v20h-9.7v-8.6h-3.3v-3.6h-2.5v-9.2h-1.2v9.2h-1.2v-6h-1.2v6H762v3.6h-3.3V84H739v-1.8v-1v-0.4v-0.1v-2v-1v-0.4v-0.1v-2v-1
			v-0.4v-0.1v-2v-1V70v-0.1v-2v-1v-0.4v-0.1v-2v-1v-0.4v-0.1v-2v-1v-0.4v-0.1v-2v-1v-0.4v-0.1v-2v-1v-0.4V52v-2v-1v-0.4v-0.1v-3v0
			h-2.9v-2.7h-2v-2h-3.7h-0.5v2h-8.6v2.7h-2.9v3v0.1v0.4v1v2v0.1v0.4v1v2v0.1v0.4v1v2v0.1v0.4v0.8l-11.9-4.1h-0.3l-14.9,5.2v-0.8
			h-0.9v-1.1h0.9v-1.3h-0.9v-1.1h0.9V56h-0.9V55h0.9v-1.3h-0.9v-1.1h0.9v-1.3h-0.9v-1.1h0.9V49h-0.9V48h0.9v-1.3h-0.9v-1.1h0.9v-1.3
			h-0.9v-1.1h0.9V42h-0.9v-1.1h0.9v-1.3h-0.9v-1.1h0.9v-1.3h-0.9v-1.9h-3.6v-5.9h-1.4v-6.1l-1.6,0.3v-1.4h-8.2v2.8l-1.6,0.3v4.1
			h-1.4v5.9h-3.2v1.9h-1.2v1.3h1.2v1.1h-1.2v1.3h1.2V42h-1.2v1.3h1.2v1.1h-1.2v1.3h1.2v1.1h-1.2V48h1.2V49h-1.2v1.3h1.2v1.1h-1.2
			v1.3h1.2v1.1h-1.2V55h1.2V56h-1.2v1.3h1.2v1.1h-1.2v1.3h1.2v1.1h-1.1v-0.9h-1.6v5.7H647V46.4h-4V34.6h-0.1l-6.5-7.6h-1.6v-6h0
			l-0.6-5.6h0l-0.6,5.6h0v6H632l-6.5,7.6h-0.1v11.7h-4v10.2h-18.4v-1.4V54v-1.9V51v-1.9v-1.2V46v-1.2V43v-1.2V40v-1.2v-1.9v-1.2
			v-1.9v-1.2v-1.9v-7.7h-2.9c-0.1-1.3-1.2-2.4-2.6-2.4h-1.4v-6.5h-0.6v6.5h-1.4c-1.4,0-2.5,1-2.6,2.4h-2.9V45l-7.7,9.7v14.8h-13.3
			V50h-4.3v-3.3h0.1c0.2,0,0.3-0.1,0.3-0.3c0-0.2-0.1-0.3-0.3-0.3h-0.1h-18h-0.1c-0.2,0-0.3,0.1-0.3,0.3c0,0.2,0.1,0.3,0.3,0.3h0.1
			V50h-4.3v29.9H518V55.7h-12.7V27l-18.7-14.7v43.4h-12.7V39h-21.4v-9.3h-2.7V39h-18.7V22.3h-4.7V39h-7.3V15h-22v33.3h-22.7v17.2
			h-15.6V35.7h-4.3v-3.3h0.1c0.2,0,0.3-0.1,0.3-0.3c0-0.2-0.1-0.3-0.3-0.3h-0.1h-18h-0.1c-0.2,0-0.3,0.1-0.3,0.3
			c0,0.2,0.1,0.3,0.3,0.3h0.1v3.3h-4.3v19.5H319V40.3l-7.7-9.7V8.8h-2.9c-0.1-1.3-1.2-2.4-2.6-2.4h-1.4V0h-0.6v6.5h-1.4
			c-1.4,0-2.5,1-2.6,2.4h-2.9v7.7v1.9v1.2v1.9v1.2v1.9v1.2v1.9v1.2v1.9v1.2v1.9v1.2v1.9v1.2v1.9v1.2v1.4h-18.4V32h-4V20.3h-0.1
			l-6.5-7.6h-1.6v-6h0l-0.6-5.6h0l-0.6,5.6h0v6h-1.6l-6.5,7.6H257V32h-4v19.1h-19.6v-5.7h-1.6v0.9h-1.1v-1.1h1.2V44h-1.2V43h1.2
			v-1.3h-1.2v-1.1h1.2v-1.3h-1.2v-1.1h1.2V37h-1.2V36h1.2v-1.3h-1.2v-1.1h1.2v-1.3h-1.2v-1.1h1.2V30h-1.2v-1.1h1.2v-1.3h-1.2v-1.1
			h1.2v-1.3h-1.2v-1.1h1.2V23h-1.2v-1.9h-3.2v-5.9h-1.4v-4.1l-1.6-0.3V8h-8.2v1.4l-1.6-0.3v6.1h-1.4v5.9h-3.6V23h-0.9v1.3h0.9v1.1
			h-0.9v1.3h0.9v1.1h-0.9v1.3h0.9V30h-0.9v1.3h0.9v1.1h-0.9v1.3h0.9v1.1h-0.9V36h0.9V37h-0.9v1.3h0.9v1.1h-0.9v1.3h0.9v1.1h-0.9V43
			h0.9V44h-0.9v1.3h0.9v1.1h-0.9v0.8L193.7,42h-0.3l-11.9,4.1v-0.8v-0.4v-0.1v-2v-1v-0.4v-0.1v-2v-1v-0.4v-0.1v-2v-1v-0.4V34v-3
			h-2.9v-2.7h-8.6v-2h-0.5h-3.7v2h-2v2.7H161v0v3v0.1v0.4v1v2v0.1v0.4v1v2v0.1v0.4v1v2v0.1v0.4v1v2v0.1v0.4v1v2v0.1v0.4v1v2v0.1v0.4
			v1v2v0.1v0.4v1v2v0.1v0.4v1v2v0.1v0.4v1v1.8h-19.7V50.1H138v-3.6h-29.4v-6h-1.2v6h-1.2v-9.2h-1.2v9.2h-2.5v3.6h-3.3v8.6h-9.7v-20
			h-4.1v14.2h0V34.7h-4v-3.5h0c0.2,0,0.3-0.1,0.3-0.3c0-0.2-0.1-0.3-0.3-0.3h0L74,24v-3.7h-1.4l-0.4-8.2c0,0,0,0,0,0
			c0,0-0.1,0-0.1,0l-0.4,8.2h-1.4V24h0.1l-7.2,6.6h0c-0.2,0-0.3,0.1-0.3,0.3c0,0.2,0.1,0.3,0.3,0.3h0v3.5h-4.5v4h-4.1v28H37.6V65
			v-0.9v-0.3v-0.1v-1.7V61v-0.3v-0.1v-1.7V58v-0.3v-0.1v-1.7v-0.9v-0.3v-0.1v-1.7v-0.9v-0.3v-0.1v-1.7v-0.9v-0.3v-0.1v-2.5H34v-2.3
			H23v-1.7h-0.6H22v-7.4H0v41.4V80v0.3v2.3v0V95v7v2.4v1.7v0.9v16.3v0.1h0.8v79h899v-64.7h0.3v-0.1v-16.3v-0.9v-1.7v-2.4v-7V97v0
			v-2.3v-0.3v-4.2V48.7h-22V56.1z M231.8,51h-1.1V50h1.1V51z M231.8,48.7h-1.1v-1.1h1.1V48.7z M669.3,65.4h-1.1v-1.1h1.1V65.4z
			 M669.3,63h-1.1V62h1.1V63z"/>
		<path class="st1" d="M347.4,22h-1.4l-0.4-7.9c0,0,0,0,0,0c0,0-0.1,0-0.1,0l-0.4,7.9h-1.4l-2.7,2.4h-2.4v7.2h13.8v-7.2h-2.4
			L347.4,22z"/>
		<rect x="379.3" y="53.1" class="st2" width="7.4" height="7.4"/>
		<rect x="389.6" y="53.1" class="st2" width="7.4" height="7.4"/>
		<rect x="399.9" y="53.1" class="st2" width="7.4" height="7.4"/>
		<rect x="410.1" y="53.1" class="st2" width="7.4" height="7.4"/>
		<rect x="420.4" y="53.1" class="st2" width="7.4" height="7.4"/>
		<rect x="430.7" y="53.1" class="st2" width="7.4" height="7.4"/>
		<rect x="440.9" y="53.1" class="st2" width="7.4" height="7.4"/>
		<rect x="451.2" y="53.1" class="st2" width="7.4" height="7.4"/>
		<rect x="461.4" y="53.1" class="st2" width="7.4" height="7.4"/>
		<g>
			<rect x="597.1" y="25.8" class="st2" width="3.9" height="3.9"/>
			<rect x="597.1" y="31.2" class="st2" width="3.9" height="3.9"/>
			<rect x="597.1" y="36.6" class="st2" width="3.9" height="3.9"/>
			<rect x="597.1" y="42" class="st2" width="3.9" height="3.9"/>
			<rect x="597.1" y="47.4" class="st2" width="3.9" height="3.9"/>
			<rect x="597.1" y="52.8" class="st2" width="3.9" height="3.9"/>
			<rect x="597.1" y="58.1" class="st2" width="3.9" height="3.9"/>
			<rect x="597.1" y="63.5" class="st2" width="3.9" height="3.9"/>
			<rect x="597.1" y="68.9" class="st2" width="3.9" height="3.9"/>
		</g>
		<g>
			<rect x="558.9" y="52.4" class="st2" width="3.2" height="3.2"/>
			<rect x="558.9" y="56.9" class="st2" width="3.2" height="3.2"/>
			<rect x="558.9" y="61.4" class="st2" width="3.2" height="3.2"/>
			<rect x="558.9" y="65.8" class="st2" width="3.2" height="3.2"/>
			<rect x="558.9" y="70.3" class="st2" width="3.2" height="3.2"/>
			<rect x="558.9" y="74.8" class="st2" width="3.2" height="3.2"/>
			<rect x="558.9" y="79.3" class="st2" width="3.2" height="3.2"/>
			<rect x="558.9" y="83.7" class="st2" width="3.2" height="3.2"/>
			<rect x="558.9" y="88.2" class="st2" width="3.2" height="3.2"/>
			<rect x="554.7" y="52.4" class="st2" width="3.2" height="3.2"/>
			<rect x="554.7" y="56.9" class="st2" width="3.2" height="3.2"/>
			<rect x="554.7" y="61.4" class="st2" width="3.2" height="3.2"/>
			<rect x="554.7" y="65.8" class="st2" width="3.2" height="3.2"/>
			<rect x="554.7" y="70.3" class="st2" width="3.2" height="3.2"/>
			<rect x="554.7" y="74.8" class="st2" width="3.2" height="3.2"/>
			<rect x="554.7" y="79.3" class="st2" width="3.2" height="3.2"/>
			<rect x="554.7" y="83.7" class="st2" width="3.2" height="3.2"/>
			<rect x="554.7" y="88.2" class="st2" width="3.2" height="3.2"/>
			<rect x="550.6" y="52.4" class="st2" width="3.2" height="3.2"/>
			<rect x="550.6" y="56.9" class="st2" width="3.2" height="3.2"/>
			<rect x="550.6" y="61.4" class="st2" width="3.2" height="3.2"/>
			<rect x="550.6" y="65.8" class="st2" width="3.2" height="3.2"/>
			<rect x="550.6" y="70.3" class="st2" width="3.2" height="3.2"/>
			<rect x="550.6" y="74.8" class="st2" width="3.2" height="3.2"/>
			<rect x="550.6" y="79.3" class="st2" width="3.2" height="3.2"/>
			<rect x="550.6" y="83.7" class="st2" width="3.2" height="3.2"/>
			<rect x="550.6" y="88.2" class="st2" width="3.2" height="3.2"/>
			<rect x="546.4" y="52.4" class="st2" width="3.2" height="3.2"/>
			<rect x="546.4" y="56.9" class="st2" width="3.2" height="3.2"/>
			<rect x="546.4" y="61.4" class="st2" width="3.2" height="3.2"/>
			<rect x="546.4" y="65.8" class="st2" width="3.2" height="3.2"/>
			<rect x="546.4" y="70.3" class="st2" width="3.2" height="3.2"/>
			<rect x="546.4" y="74.8" class="st2" width="3.2" height="3.2"/>
			<rect x="546.4" y="79.3" class="st2" width="3.2" height="3.2"/>
			<rect x="546.4" y="83.7" class="st2" width="3.2" height="3.2"/>
			<rect x="546.4" y="88.2" class="st2" width="3.2" height="3.2"/>
		</g>
		<g>
			<rect x="841" y="55.6" class="st2" width="2" height="2"/>
			<rect x="841" y="58.3" class="st2" width="2" height="2"/>
			<rect x="841" y="61.1" class="st2" width="2" height="2"/>
			<rect x="841" y="63.8" class="st2" width="2" height="2"/>
			<rect x="841" y="66.6" class="st2" width="2" height="2"/>
			<rect x="841" y="69.4" class="st2" width="2" height="2"/>
			<rect x="841" y="72.1" class="st2" width="2" height="2"/>
			<rect x="841" y="74.9" class="st2" width="2" height="2"/>
			<rect x="841" y="77.6" class="st2" width="2" height="2"/>
			<rect x="838.4" y="55.6" class="st2" width="2" height="2"/>
			<rect x="838.4" y="58.3" class="st2" width="2" height="2"/>
			<rect x="838.4" y="61.1" class="st2" width="2" height="2"/>
			<rect x="838.4" y="63.8" class="st2" width="2" height="2"/>
			<rect x="838.4" y="66.6" class="st2" width="2" height="2"/>
			<rect x="838.4" y="69.4" class="st2" width="2" height="2"/>
			<rect x="838.4" y="72.1" class="st2" width="2" height="2"/>
			<rect x="838.4" y="74.9" class="st2" width="2" height="2"/>
			<rect x="838.4" y="77.6" class="st2" width="2" height="2"/>
			<rect x="835.9" y="55.6" class="st2" width="2" height="2"/>
			<rect x="835.9" y="58.3" class="st2" width="2" height="2"/>
			<rect x="835.9" y="61.1" class="st2" width="2" height="2"/>
			<rect x="835.9" y="63.8" class="st2" width="2" height="2"/>
			<rect x="835.9" y="66.6" class="st2" width="2" height="2"/>
			<rect x="835.9" y="69.4" class="st2" width="2" height="2"/>
			<rect x="835.9" y="72.1" class="st2" width="2" height="2"/>
			<rect x="835.9" y="74.9" class="st2" width="2" height="2"/>
			<rect x="835.9" y="77.6" class="st2" width="2" height="2"/>
			<rect x="833.3" y="55.6" class="st2" width="2" height="2"/>
			<rect x="833.3" y="58.3" class="st2" width="2" height="2"/>
			<rect x="833.3" y="61.1" class="st2" width="2" height="2"/>
			<rect x="833.3" y="63.8" class="st2" width="2" height="2"/>
			<rect x="833.3" y="66.6" class="st2" width="2" height="2"/>
			<rect x="833.3" y="69.4" class="st2" width="2" height="2"/>
			<rect x="833.3" y="72.1" class="st2" width="2" height="2"/>
			<rect x="833.3" y="74.9" class="st2" width="2" height="2"/>
			<rect x="833.3" y="77.6" class="st2" width="2" height="2"/>
		</g>
		<g>
			<rect x="176" y="33.2" class="st2" width="3.2" height="3.2"/>
			<rect x="176" y="37.6" class="st2" width="3.2" height="3.2"/>
			<rect x="176" y="42.1" class="st2" width="3.2" height="3.2"/>
			<rect x="176" y="46.6" class="st2" width="3.2" height="3.2"/>
			<rect x="176" y="51.1" class="st2" width="3.2" height="3.2"/>
			<rect x="176" y="55.5" class="st2" width="3.2" height="3.2"/>
			<rect x="176" y="60" class="st2" width="3.2" height="3.2"/>
			<rect x="176" y="64.5" class="st2" width="3.2" height="3.2"/>
			<rect x="176" y="69" class="st2" width="3.2" height="3.2"/>
			<rect x="171.8" y="33.2" class="st2" width="3.2" height="3.2"/>
			<rect x="171.8" y="37.6" class="st2" width="3.2" height="3.2"/>
			<rect x="171.8" y="42.1" class="st2" width="3.2" height="3.2"/>
			<rect x="171.8" y="46.6" class="st2" width="3.2" height="3.2"/>
			<rect x="171.8" y="51.1" class="st2" width="3.2" height="3.2"/>
			<rect x="171.8" y="55.5" class="st2" width="3.2" height="3.2"/>
			<rect x="171.8" y="60" class="st2" width="3.2" height="3.2"/>
			<rect x="171.8" y="64.5" class="st2" width="3.2" height="3.2"/>
			<rect x="171.8" y="69" class="st2" width="3.2" height="3.2"/>
			<rect x="167.7" y="33.2" class="st2" width="3.2" height="3.2"/>
			<rect x="167.7" y="37.6" class="st2" width="3.2" height="3.2"/>
			<rect x="167.7" y="42.1" class="st2" width="3.2" height="3.2"/>
			<rect x="167.7" y="46.6" class="st2" width="3.2" height="3.2"/>
			<rect x="167.7" y="51.1" class="st2" width="3.2" height="3.2"/>
			<rect x="167.7" y="55.5" class="st2" width="3.2" height="3.2"/>
			<rect x="167.7" y="60" class="st2" width="3.2" height="3.2"/>
			<rect x="167.7" y="64.5" class="st2" width="3.2" height="3.2"/>
			<rect x="167.7" y="69" class="st2" width="3.2" height="3.2"/>
			<rect x="163.5" y="33.2" class="st2" width="3.2" height="3.2"/>
			<rect x="163.5" y="37.6" class="st2" width="3.2" height="3.2"/>
			<rect x="163.5" y="42.1" class="st2" width="3.2" height="3.2"/>
			<rect x="163.5" y="46.6" class="st2" width="3.2" height="3.2"/>
			<rect x="163.5" y="51.1" class="st2" width="3.2" height="3.2"/>
			<rect x="163.5" y="55.5" class="st2" width="3.2" height="3.2"/>
			<rect x="163.5" y="60" class="st2" width="3.2" height="3.2"/>
			<rect x="163.5" y="64.5" class="st2" width="3.2" height="3.2"/>
			<rect x="163.5" y="69" class="st2" width="3.2" height="3.2"/>
		</g>
		<g>
			<rect x="334.8" y="37.4" class="st2" width="12.3" height="3.2"/>
			<rect x="334.8" y="41.9" class="st2" width="12.3" height="3.2"/>
			<rect x="334.8" y="46.4" class="st2" width="12.3" height="3.2"/>
			<rect x="334.8" y="50.8" class="st2" width="12.3" height="3.2"/>
			<rect x="334.8" y="55.3" class="st2" width="12.3" height="3.2"/>
			<rect x="334.8" y="59.8" class="st2" width="12.3" height="3.2"/>
			<rect x="334.8" y="64.3" class="st2" width="12.3" height="3.2"/>
			<rect x="334.8" y="68.7" class="st2" width="12.3" height="3.2"/>
			<rect x="334.8" y="73.2" class="st2" width="12.3" height="3.2"/>
		</g>
		<g>
			<rect x="733.3" y="46.7" class="st2" width="3.2" height="3.2"/>
			<rect x="733.3" y="51.2" class="st2" width="3.2" height="3.2"/>
			<rect x="733.3" y="55.7" class="st2" width="3.2" height="3.2"/>
			<rect x="733.3" y="60.2" class="st2" width="3.2" height="3.2"/>
			<rect x="733.3" y="64.6" class="st2" width="3.2" height="3.2"/>
			<rect x="733.3" y="69.1" class="st2" width="3.2" height="3.2"/>
			<rect x="733.3" y="73.6" class="st2" width="3.2" height="3.2"/>
			<rect x="733.3" y="78.1" class="st2" width="3.2" height="3.2"/>
			<rect x="733.3" y="82.5" class="st2" width="3.2" height="3.2"/>
			<rect x="729.1" y="46.7" class="st2" width="3.2" height="3.2"/>
			<rect x="729.1" y="51.2" class="st2" width="3.2" height="3.2"/>
			<rect x="729.1" y="55.7" class="st2" width="3.2" height="3.2"/>
			<rect x="729.1" y="60.2" class="st2" width="3.2" height="3.2"/>
			<rect x="729.1" y="64.6" class="st2" width="3.2" height="3.2"/>
			<rect x="729.1" y="69.1" class="st2" width="3.2" height="3.2"/>
			<rect x="729.1" y="73.6" class="st2" width="3.2" height="3.2"/>
			<rect x="729.1" y="78.1" class="st2" width="3.2" height="3.2"/>
			<rect x="729.1" y="82.5" class="st2" width="3.2" height="3.2"/>
			<rect x="725" y="46.7" class="st2" width="3.2" height="3.2"/>
			<rect x="725" y="51.2" class="st2" width="3.2" height="3.2"/>
			<rect x="725" y="55.7" class="st2" width="3.2" height="3.2"/>
			<rect x="725" y="60.2" class="st2" width="3.2" height="3.2"/>
			<rect x="725" y="64.6" class="st2" width="3.2" height="3.2"/>
			<rect x="725" y="69.1" class="st2" width="3.2" height="3.2"/>
			<rect x="725" y="73.6" class="st2" width="3.2" height="3.2"/>
			<rect x="725" y="78.1" class="st2" width="3.2" height="3.2"/>
			<rect x="725" y="82.5" class="st2" width="3.2" height="3.2"/>
			<rect x="720.8" y="46.7" class="st2" width="3.2" height="3.2"/>
			<rect x="720.8" y="51.2" class="st2" width="3.2" height="3.2"/>
			<rect x="720.8" y="55.7" class="st2" width="3.2" height="3.2"/>
			<rect x="720.8" y="60.2" class="st2" width="3.2" height="3.2"/>
			<rect x="720.8" y="64.6" class="st2" width="3.2" height="3.2"/>
			<rect x="720.8" y="69.1" class="st2" width="3.2" height="3.2"/>
			<rect x="720.8" y="73.6" class="st2" width="3.2" height="3.2"/>
			<rect x="720.8" y="78.1" class="st2" width="3.2" height="3.2"/>
			<rect x="720.8" y="82.5" class="st2" width="3.2" height="3.2"/>
		</g>
		<g>
			<rect x="634.7" y="36" class="st2" width="5.2" height="3.2"/>
			<rect x="634.7" y="40.4" class="st2" width="5.2" height="3.2"/>
			<rect x="634.7" y="44.9" class="st2" width="5.2" height="3.2"/>
			<rect x="634.7" y="49.4" class="st2" width="5.2" height="3.2"/>
			<rect x="634.7" y="53.9" class="st2" width="5.2" height="3.2"/>
			<rect x="634.7" y="58.3" class="st2" width="5.2" height="3.2"/>
			<rect x="634.7" y="62.8" class="st2" width="5.2" height="3.2"/>
			<rect x="634.7" y="67.3" class="st2" width="5.2" height="3.2"/>
			<rect x="634.7" y="71.8" class="st2" width="5.2" height="3.2"/>
			<rect x="628.1" y="36" class="st2" width="5.2" height="3.2"/>
			<rect x="628.1" y="40.4" class="st2" width="5.2" height="3.2"/>
			<rect x="628.1" y="44.9" class="st2" width="5.2" height="3.2"/>
			<rect x="628.1" y="49.4" class="st2" width="5.2" height="3.2"/>
			<rect x="628.1" y="53.9" class="st2" width="5.2" height="3.2"/>
			<rect x="628.1" y="58.3" class="st2" width="5.2" height="3.2"/>
			<rect x="628.1" y="62.8" class="st2" width="5.2" height="3.2"/>
			<rect x="628.1" y="67.3" class="st2" width="5.2" height="3.2"/>
			<rect x="628.1" y="71.8" class="st2" width="5.2" height="3.2"/>
		</g>
		<g>
			<rect x="313.6" y="49.6" class="st2" width="3.1" height="3.1"/>
			<rect x="309.3" y="49.6" class="st2" width="3.1" height="3.1"/>
			<rect x="305" y="49.6" class="st2" width="3.1" height="3.1"/>
			<rect x="300.7" y="49.6" class="st2" width="3.1" height="3.1"/>
			<rect x="296.4" y="49.6" class="st2" width="3.1" height="3.1"/>
			<rect x="292.1" y="49.6" class="st2" width="3.1" height="3.1"/>
			<rect x="287.8" y="49.6" class="st2" width="3.1" height="3.1"/>
			<rect x="283.5" y="49.6" class="st2" width="3.1" height="3.1"/>
			<rect x="279.2" y="49.6" class="st2" width="3.1" height="3.1"/>
			<rect x="313.6" y="45.6" class="st2" width="3.1" height="3.1"/>
			<rect x="309.3" y="45.6" class="st2" width="3.1" height="3.1"/>
			<rect x="305" y="45.6" class="st2" width="3.1" height="3.1"/>
			<rect x="300.7" y="45.6" class="st2" width="3.1" height="3.1"/>
			<rect x="296.4" y="45.6" class="st2" width="3.1" height="3.1"/>
			<rect x="292.1" y="45.6" class="st2" width="3.1" height="3.1"/>
			<rect x="287.8" y="45.6" class="st2" width="3.1" height="3.1"/>
			<rect x="283.5" y="45.6" class="st2" width="3.1" height="3.1"/>
			<rect x="279.2" y="45.6" class="st2" width="3.1" height="3.1"/>
		</g>
		<g>
			<rect x="488.5" y="28.8" class="st2" width="14.5" height="3.9"/>
			<rect x="488.5" y="34.2" class="st2" width="14.5" height="3.9"/>
			<rect x="488.5" y="39.6" class="st2" width="14.5" height="3.9"/>
			<rect x="488.5" y="45" class="st2" width="14.5" height="3.9"/>
			<rect x="488.5" y="50.4" class="st2" width="14.5" height="3.9"/>
			<rect x="488.5" y="55.8" class="st2" width="14.5" height="3.9"/>
			<rect x="488.5" y="61.2" class="st2" width="14.5" height="3.9"/>
			<rect x="488.5" y="66.5" class="st2" width="14.5" height="3.9"/>
			<rect x="488.5" y="71.9" class="st2" width="14.5" height="3.9"/>
		</g>
	</g>
	<path class="st3" d="M873.7,96.7v-3.3h0.1c0.2,0,0.3-0.1,0.3-0.3c0-0.2-0.1-0.3-0.3-0.3h-18.1c-0.2,0-0.3,0.1-0.3,0.3
		c0,0.2,0.1,0.3,0.3,0.3h0.1v3.3h-4.3v29.9h-23.1v-24.2h-12.7V73.7L797,59v43.4h-12.7V85.7h-21.4v-9.3h-2.7v9.3h-18.7V69h-4.7v16.7
		h-7.3v-24h-22V95h-22.7v17.2h-15.6V82.3H665V79h0.1c0.2,0,0.3-0.1,0.3-0.3c0-0.2-0.1-0.3-0.3-0.3h-18.1c-0.2,0-0.3,0.1-0.3,0.3
		c0,0.2,0.1,0.3,0.3,0.3h0.1v3.3h-4.3v19.5h-13.3V87l-7.7-9.7V55.5h-2.9c-0.1-1.3-1.2-2.4-2.6-2.4h-1.4v-6.5h-0.6v6.5h-1.4
		c-1.4,0-2.5,1-2.6,2.4h-2.9v33.4h-18.4V78.7h-4V67h-0.1l-6.5-7.6h-1.6v-6h0l-0.6-5.6h0l-0.6,5.6h0v6h-1.6l-6.5,7.6h-0.1v11.7h-4
		v19.1h-19.6v-5.7h-1.6V93H541V92h1.2v-1.3H541v-1.1h1.2v-1.3H541v-1.1h1.2V86H541V85h1.2v-1.3H541v-1.1h1.2v-1.3H541v-1.1h1.2V79
		H541V78h1.2v-1.3H541v-1.1h1.2v-1.3H541v-1.1h1.2V72H541V71h1.2v-1.3H541v-1.9h-3.2v-5.9h-1.4v-4.1l-1.6-0.3v-2.8h-8.2v1.4
		l-1.6-0.3v6.1h-1.4v5.9h-3.6v1.9H519V71h0.9V72H519v1.3h0.9v1.1H519v1.3h0.9v1.1H519V78h0.9V79H519v1.3h0.9v1.1H519v1.3h0.9v1.1
		H519V85h0.9V86H519v1.3h0.9v1.1H519v1.3h0.9v1.1H519V92h0.9V93H519v0.8l-14.9-5.2h-0.3l-11.9,4.1v-15h-2.9v-2.7h-8.6v-2h-4.2v2h-2
		v2.7h-2.9v38.6h-19.7V96.8h-3.3v-3.6H419v-6h-1.2v6h-1.2V84h-1.2v9.2h-2.5v3.6h-3.3v8.6h-9.7v-20h-4.1v14.2h0V81.4h-4v-3.5h0
		c0.2,0,0.3-0.1,0.3-0.3c0-0.2-0.1-0.3-0.3-0.3h0l-7.2-6.6V67h-1.4l-0.4-8.2c0,0,0,0,0,0c0,0-0.1,0-0.1,0l-0.4,8.2h-1.4v3.7h0.1
		l-7.2,6.6h0c-0.2,0-0.3,0.1-0.3,0.3c0,0.2,0.1,0.3,0.3,0.3h0v3.5H369v4h-4.1v28H348V92.5h-3.7v-2.3h-11v-1.7h-0.9v-7.4h-22v10.1
		l-23.1-11.3V59.4h-43.6v8.1h-26.1v75.1h26.1v25h43.6v-0.1h23.1v2.7h0.8v79h564.5c-0.5-50.8-1-101.7,1.8-152.4H873.7z M542.1,97.7
		H541v-1.1h1.1V97.7z M542.1,95.4H541v-1.1h1.1V95.4z"/>
</g>
<g>
	<g>
		<g>
			<g>
				<polygon class="st4" points="712.8,85.8 711.2,120.3 723.3,120.3 721.8,85.8 				"/>
				<path class="st4" d="M717.9,85.8h3.8c0.1-7.7,9.2-13.5,9.2-13.5C721.5,73.6,717.9,85.8,717.9,85.8z"/>
				<path class="st4" d="M714,79.7l0.9,6.5l2.2-2.2c0,0-2.2-7.2,2.7-10.3C719.8,73.6,715.4,74.2,714,79.7z"/>
				<path class="st4" d="M716.7,81.7l-2.7,7.6c0,0,6.3,0.1,6.2,0c-0.1-0.1-0.4-7.6-0.4-7.6S718.4,84.5,716.7,81.7z"/>
				<path class="st4" d="M719.8,69.2c5.7,4.1,1.4,10.4,1.3,10.5l3-3C724.6,70.6,719.8,69.2,719.8,69.2z"/>
			</g>
			<path class="st4" d="M703.2,71.4c9.8,5.2,9.6,14.4,9.6,14.4l3.7,0.4l-2.4-6.5C711.6,74.5,703.2,71.4,703.2,71.4z"/>
		</g>
	</g>
	<g>
		<g>
			<ellipse class="st5" cx="694.6" cy="52.1" rx="18.3" ry="18.3"/>
			
				<ellipse transform="matrix(1 -1.424737e-03 1.424737e-03 1 -8.259527e-02 1.0221)" class="st5" cx="717.3" cy="58.5" rx="19.5" ry="19.5"/>
			<ellipse class="st5" cx="741.4" cy="50.9" rx="21.3" ry="20.3"/>
			
				<ellipse transform="matrix(3.158364e-03 -1 1 3.158364e-03 678.3412 738.0717)" class="st5" cx="709.4" cy="28.8" rx="26.9" ry="26.9"/>
			
				<ellipse transform="matrix(1.149618e-03 -1 1 1.149618e-03 701.3107 759.6481)" class="st5" cx="730.9" cy="28.8" rx="24.5" ry="24.5"/>
		</g>
		<g class="st6">
			<path d="M696.3,65.8c-8.3,0.2-15.8-3.8-19.6-10.1c1.6,8.4,9.1,14.8,18,14.8c4,0,7.6-1.3,10.6-3.4c-1-0.6-2-1.3-2.8-2.1
				C700.5,65.4,698.4,65.7,696.3,65.8z"/>
			<path d="M704.8,66.8c-0.8-0.5-1.5-1-2.2-1.5c-1,0.4-2.1,0.6-3.2,0.9c3,7,9.9,11.8,17.9,11.8c9.2,0,16.9-6.3,19-14.9
				c-3.2,2.9-7.5,4.8-11.7,5.7C718.2,70,710.7,70.2,704.8,66.8z"/>
			<path d="M736.3,63.1c-0.3,0.5-0.6,1.8-1,2.2c-1.2,1.4-3.1,2.4-5,3c3.2,1.9,7,2.9,11,2.9c8.5,0,15.8-4.7,19.2-11.5
				C754.4,65.2,744.8,65.5,736.3,63.1z"/>
		</g>
	</g>
</g>
<g>
	<path class="st3" d="M446.2,99.5c0.3-1.2,0.5-2.4,0.5-3.6c0-7.9-6.4-14.3-14.3-14.3c-1.6,0-3.2,0.3-4.6,0.8c-2.3-1.4-5.1-2.2-8-2.2
		c-6.5,0-12,3.9-14.4,9.5c-0.1-0.1-0.2-0.3-0.4-0.4c0,0-0.1-0.1-0.1-0.1c-0.2-0.2-0.5-0.4-0.7-0.6c-0.1,0-0.1-0.1-0.2-0.1
		c-0.2-0.2-0.4-0.3-0.6-0.4c-0.1,0-0.1-0.1-0.2-0.1c-0.3-0.2-0.5-0.3-0.8-0.5l0,0c-1.2-0.5-2.5-0.9-3.9-0.9c-5,0-9,3.9-9.2,8.9
		c-3.9,0.8-6.8,4.2-6.8,8.3c0,2.2,0.8,4.2,2.2,5.7l0,0c0.1,0.2,0.3,0.3,0.4,0.5c0.2,0.2,0.4,0.3,0.5,0.5c0.4,4.4,3.7,7.9,7.9,8.8
		c1.4,1.5,3.3,3.9,3.3,5.6l-0.4,14.2h1.8h0.4h1h0.4h1.8l-0.4-14.2c0-2,2.6-4.8,4-6.1c0,0,0.1,0,0.1,0.1c0.2,0.1,0.3,0.2,0.5,0.3
		c0.1,0.1,0.2,0.1,0.4,0.2c0.2,0.1,0.3,0.2,0.5,0.3c0.1,0.1,0.3,0.1,0.4,0.2c0.2,0.1,0.4,0.1,0.6,0.2c0.1,0,0.3,0.1,0.4,0.1
		c0.2,0.1,0.4,0.1,0.6,0.2c0.1,0,0.3,0.1,0.4,0.1c0.2,0,0.4,0.1,0.7,0.1c0.1,0,0.2,0,0.3,0c0.3,0,0.7,0.1,1,0.1c0.3,0,0.6,0,0.9,0
		c0.1,0,0.1,0,0.2,0c0.3,0,0.5-0.1,0.8-0.1c0,0,0.1,0,0.1,0c0.6-0.1,1.2-0.3,1.8-0.5c0,0,0,0.1,0.1,0.1c0.2,0.3,0.5,0.7,0.8,1
		c0,0,0,0.1,0.1,0.1c0.3,0.3,0.6,0.6,0.9,0.9c0,0,0,0,0.1,0.1c0.3,0.3,0.6,0.5,1,0.8c0.1,0,0.1,0.1,0.2,0.1c0.3,0.2,0.7,0.5,1,0.7
		c0,0,0.1,0,0.1,0.1c0.2,0.1,0.3,0.2,0.5,0.3c2.2,2.8,2.2,5.7,2.2,5.7l-0.9,20.2h7.1l-0.9-20.2c0.1-3.2,2.7-5.7,4.2-6.9
		c0.1-0.1,0.2-0.1,0.3-0.2c0.4-0.3,0.7-0.5,0.7-0.5c-0.1,0-0.1,0-0.2,0c0.6-0.6,1.2-1.2,1.7-1.9c0,0,0,0,0,0c0,0,0.1,0,0.1,0
		c0.3,0.1,0.6,0.2,1,0.3c0,0,0.1,0,0.1,0c0.4,0.1,0.7,0.2,1.1,0.3c0,0,0.1,0,0.1,0c0.3,0.1,0.7,0.1,1,0.1c0.1,0,0.2,0,0.3,0
		c0.4,0,0.7,0.1,1.1,0.1c0.4,0,0.8,0,1.1-0.1c0.1,0,0.2,0,0.3,0c0.3,0,0.6-0.1,0.9-0.1c0.1,0,0.2,0,0.3,0c0.4-0.1,0.7-0.2,1.1-0.3
		c0.1,0,0.1,0,0.2-0.1c0.3-0.1,0.6-0.2,0.8-0.3c0.1,0,0.2-0.1,0.3-0.1c0.3-0.1,0.6-0.3,0.9-0.4c0,0,0.1,0,0.1,0
		c0.3-0.2,0.6-0.3,0.9-0.5c0.1-0.1,0.2-0.1,0.2-0.2c0.2-0.2,0.4-0.3,0.7-0.5c0.1-0.1,0.1-0.1,0.2-0.2c0.3-0.2,0.5-0.4,0.8-0.7
		c0,0,0.1-0.1,0.1-0.1c0.2-0.2,0.4-0.4,0.6-0.6c0.1-0.1,0.1-0.2,0.2-0.2c0.2-0.2,0.4-0.5,0.5-0.7c0,0,0.1-0.1,0.1-0.1
		c0.2-0.3,0.4-0.6,0.6-0.9c0-0.1,0.1-0.2,0.1-0.2c0.1-0.1,0.1-0.2,0.2-0.4c0,0,0,0,0,0c0.8-1.6,1.3-3.3,1.3-5.2
		C451,105,449.1,101.6,446.2,99.5z M398.4,122.7c-0.5-1.3-1.4-2.5-2.3-3.5c0.8,0,1.6-0.2,2.3-0.4V122.7z M402.3,115.7
		C402.3,115.7,402.3,115.7,402.3,115.7C402.3,115.7,402.3,115.7,402.3,115.7C402.3,115.7,402.3,115.7,402.3,115.7z M401.6,114.6
		C401.6,114.6,401.6,114.6,401.6,114.6C401.6,114.6,401.6,114.6,401.6,114.6z M401.1,113.5C401.1,113.5,401.1,113.5,401.1,113.5
		c0,0,0-0.1-0.1-0.1C401.1,113.5,401.1,113.5,401.1,113.5z M400.7,112.1c0,0.1,0,0.2,0.1,0.3C400.7,112.2,400.7,112.1,400.7,112.1
		C400.6,112,400.6,112,400.7,112.1z M400.5,111.2c0-0.1,0-0.2-0.1-0.4C400.4,110.9,400.5,111,400.5,111.2z M400.2,122.7v-4.6
		c0.2-0.1,0.4-0.2,0.5-0.3c0.7,0.3,1.5,0.5,2.3,0.6C402.1,119.6,400.9,121.1,400.2,122.7z M403,116.6c0.1,0.1,0.1,0.1,0.2,0.2
		C403.1,116.8,403.1,116.7,403,116.6z M404,94.2c0-0.1,0-0.1,0-0.2C404.1,94.1,404,94.2,404,94.2z M404.3,92.6
		C404.3,92.6,404.3,92.6,404.3,92.6C404.3,92.6,404.3,92.6,404.3,92.6z M422.4,125.7c-0.2-0.5-0.5-0.9-0.9-1.4c0,0,0,0,0.1,0
		c0.4,0.1,0.8,0.2,1.2,0.2c0,0,0,0,0,0C422.7,124.9,422.5,125.3,422.4,125.7z M427,124.9c-0.6,0.8-1.1,1.6-1.5,2.4
		c-0.3,0.4-0.9,0.7-1.5-0.4c-0.1-0.6-0.1-1.4,0.1-2.2c0.1,0,0.2,0,0.3,0c0.4,0,0.9,0,1.3-0.1c0.1,0,0.2,0,0.3,0
		c0.4-0.1,0.7-0.1,1.1-0.2c0.1,0,0.1,0,0.2,0c0,0,0,0,0.1,0C427.2,124.5,427.1,124.7,427,124.9z"/>
	<g class="st7">
		<path class="st8" d="M400.2,122.7v-5.1h-1.8v5.1c-1.2-2.8-4.3-5.6-4.7-5.9l-1.2,1.3c1.2,1.1,4.3,4.3,4.3,6.5l-0.4,14.2h1.8h0.4h1
			h0.4h1.8l-0.4-14.2c0-2.2,3.2-5.5,4.4-6.5l-1.1-1.3C404.2,117.2,401.4,119.9,400.2,122.7z"/>
		<g>
			<g>
				<g>
					<g>
						<polygon class="st8" points="421.7,129.3 420.8,149.5 427.9,149.5 427,129.3 						"/>
						<path class="st8" d="M424.7,129.3h2.2c0.1-4.5,5.3-7.6,5.3-7.6C426.7,122.5,424.7,129.3,424.7,129.3z"/>
						<path class="st8" d="M422.4,125.7l0.5,3.8l1.3-1.3c0,0-1.3-4.2,1.6-6C425.8,122.1,423.2,122.4,422.4,125.7z"/>
						<path class="st8" d="M424,126.9l-1.6,4.4c0,0,3.7,0.1,3.6,0s-0.2-4.4-0.2-4.4S425,128.5,424,126.9z"/>
						<path class="st8" d="M425.8,119.6c3.3,2.4,0.8,6.1,0.8,6.2l1.7-1.8C428.6,120.3,425.8,119.6,425.8,119.6z"/>
					</g>
					<path class="st8" d="M416.1,120.9c5.7,3,5.6,8.4,5.6,8.4l2.2,0.2l-1.4-3.8C421,122.6,416.1,120.9,416.1,120.9z"/>
				</g>
			</g>
			<g>
				<path class="st9" d="M446.2,99.5c0.3-1.2,0.5-2.4,0.5-3.6c0-7.9-6.4-14.3-14.3-14.3c-1.6,0-3.2,0.3-4.6,0.8
					c-2.3-1.4-5.1-2.2-8-2.2c-8.7,0-15.7,7.1-15.7,15.8c0,1.7,0.3,3.4,0.8,5c-2.7,2-4.4,5.1-4.4,8.7c0,5.9,4.8,10.7,10.7,10.7
					c1.3,0,2.6-0.3,3.8-0.7c2,3.1,5.6,5.1,9.5,5.1c3.9,0,7.3-1.9,9.4-4.9c1.5,0.6,3.1,0.9,4.8,0.9c6.9,0,12.5-5.3,12.5-11.9
					C451,105,449.1,101.6,446.2,99.5z"/>
				<g>
					<path class="st10" d="M403.3,87.9c0.2,0.1,0.4,0.3,0.6,0.4C403.7,88.2,403.5,88,403.3,87.9z"/>
					<path class="st10" d="M402.2,87.3c0.3,0.1,0.6,0.3,0.8,0.5C402.8,87.6,402.5,87.5,402.2,87.3z"/>
					<path class="st10" d="M405.3,89.6C405.3,89.6,405.3,89.6,405.3,89.6c-0.1-0.1-0.2-0.3-0.3-0.4C405,89.3,405.1,89.5,405.3,89.6z
						"/>
					<path class="st10" d="M404.1,88.5c0.2,0.2,0.5,0.4,0.7,0.6C404.6,88.9,404.3,88.7,404.1,88.5z"/>
					<path class="st10" d="M385,109.7c-0.1-0.1-0.3-0.3-0.4-0.5C384.7,109.4,384.9,109.6,385,109.7z"/>
					<path class="st10" d="M398.4,86.5c-5,0-9,3.9-9.2,8.9c-3.9,0.8-6.8,4.2-6.8,8.3c0,2.2,0.8,4.2,2.2,5.7c2.4,0.4,4.8,0,6.7-2.1
						c1.2-1.3,1.7-2.9,2-4.5c0.1-0.6,0.2-1.2,0.3-1.9c0.1-0.3,0.1-0.5,0.2-0.7c0,0,0-0.1,0.1-0.1c0.5-0.9,0.1-0.3,0.7-0.8
						c0.5-0.5,0.1-0.1,1-0.8c1.3-0.9,2.7-1.7,3.8-2.9c2.2-2.3,3-5.2,2.7-8.1C401.1,86.8,399.8,86.5,398.4,86.5z"/>
					<path class="st11" d="M385.6,110.2c-0.2-0.2-0.4-0.3-0.5-0.5C385.2,109.9,385.4,110.1,385.6,110.2z"/>
					<path class="st11" d="M403.9,88.3c0.1,0,0.1,0.1,0.2,0.1C404,88.4,404,88.4,403.9,88.3z"/>
					<path class="st11" d="M403.1,87.8c0.1,0,0.1,0.1,0.2,0.1C403.2,87.9,403.2,87.8,403.1,87.8z"/>
					<polygon class="st11" points="384.6,109.3 384.6,109.3 384.6,109.3 					"/>
					<polygon class="st11" points="402.2,87.3 402.2,87.3 402.2,87.3 					"/>
					<path class="st11" d="M404.8,89.1c0,0,0.1,0.1,0.1,0.1C404.9,89.2,404.8,89.1,404.8,89.1z"/>
					<path class="st10" d="M404.9,89.2c0,0-0.1-0.1-0.1-0.1c-0.2-0.2-0.5-0.4-0.7-0.6c-0.1,0-0.1-0.1-0.2-0.1
						c-0.2-0.2-0.4-0.3-0.6-0.4c-0.1,0-0.1-0.1-0.2-0.1c-0.3-0.2-0.5-0.3-0.8-0.5l0,0c0.3,2.9-0.5,5.8-2.7,8.1
						c-1.1,1.1-2.5,2-3.8,2.9c-0.9,0.6-0.5,0.3-1,0.8c-0.5,0.5-0.2,0-0.7,0.8c0,0.1-0.1,0.1-0.1,0.1c-0.1,0.2-0.2,0.5-0.2,0.7
						c-0.1,0.6-0.2,1.2-0.3,1.9c-0.3,1.7-0.9,3.3-2,4.5c-1.9,2.1-4.3,2.5-6.7,2.1l0,0c0.1,0.2,0.3,0.3,0.4,0.5
						c0.2,0.2,0.4,0.3,0.5,0.5c0.5,5.1,4.8,9.1,10,9.1c1.9,0,3.7-0.5,5.2-1.5c1,0.4,2.1,0.6,3.2,0.6c0.4,0,0.7,0,1.1-0.1
						c-2.8-1.9-4.7-5.2-4.7-8.9c0-3.6,1.8-6.7,4.4-8.7c-0.5-1.6-0.8-3.2-0.8-5c0-2.2,0.5-4.3,1.3-6.3
						C405.1,89.5,405,89.3,404.9,89.2z"/>
					<path class="st11" d="M404.9,89.2c0,0-0.1-0.1-0.1-0.1c-0.2-0.2-0.5-0.4-0.7-0.6c-0.1,0-0.1-0.1-0.2-0.1
						c-0.2-0.2-0.4-0.3-0.6-0.4c-0.1,0-0.1-0.1-0.2-0.1c-0.3-0.2-0.5-0.3-0.8-0.5l0,0c0.3,2.9-0.5,5.8-2.7,8.1
						c-1.1,1.1-2.5,2-3.8,2.9c-0.9,0.6-0.5,0.3-1,0.8c-0.5,0.5-0.2,0-0.7,0.8c0,0.1-0.1,0.1-0.1,0.1c-0.1,0.2-0.2,0.5-0.2,0.7
						c-0.1,0.6-0.2,1.2-0.3,1.9c-0.3,1.7-0.9,3.3-2,4.5c-1.9,2.1-4.3,2.5-6.7,2.1l0,0c0.1,0.2,0.3,0.3,0.4,0.5
						c0.2,0.2,0.4,0.3,0.5,0.5c0.5,5.1,4.8,9.1,10,9.1c1.9,0,3.7-0.5,5.2-1.5c1,0.4,2.1,0.6,3.2,0.6c0.4,0,0.7,0,1.1-0.1
						c-2.8-1.9-4.7-5.2-4.7-8.9c0-3.6,1.8-6.7,4.4-8.7c-0.5-1.6-0.8-3.2-0.8-5c0-2.2,0.5-4.3,1.3-6.3
						C405.1,89.5,405,89.3,404.9,89.2z"/>
				</g>
				<g class="st6">
					<path d="M412,117.5c-4.9,0.1-9.3-2.2-11.5-5.9c1,4.9,5.3,8.7,10.5,8.7c2.3,0,4.5-0.7,6.2-2c-0.6-0.3-1.1-0.7-1.6-1.2
						C414.5,117.3,413.3,117.5,412,117.5z"/>
					<path d="M417,118.1c-0.5-0.3-0.9-0.6-1.3-0.9c-0.6,0.2-1.2,0.4-1.9,0.5c1.7,4.1,5.8,6.9,10.5,6.9c5.4,0,9.9-3.7,11.1-8.7
						c-1.9,1.7-4.4,2.8-6.8,3.3C424.9,120,420.5,120.1,417,118.1z"/>
					<path d="M435.5,116c-0.2,0.3-0.3,1-0.6,1.3c-0.7,0.8-1.8,1.4-2.9,1.7c1.9,1.1,4.1,1.7,6.5,1.7c5,0,9.2-2.8,11.3-6.8
						C446.1,117.2,440.4,117.4,435.5,116z"/>
				</g>
			</g>
		</g>
	</g>
</g>
<g>
	<path class="st4" d="M643,98.5v-8.7h-3.1v8.7c-2.1-4.9-7.3-9.5-8-10.1l-2.1,2.3c2.1,1.8,7.3,7.4,7.3,11.1l-0.7,24.2h3h0.7h1.7h0.7
		h3l-0.7-24.2c0-3.8,5.4-9.4,7.5-11.2l-1.8-2.2C649.7,88.9,645,93.6,643,98.5z"/>
	<path class="st5" d="M655.2,48.9c-1.5-7.1-7.8-12.4-15.3-12.4c-8.5,0-15.4,6.7-15.7,15.2c-6.6,1.3-11.6,7.1-11.6,14.1
		c0,4.6,2.1,8.6,5.4,11.3c0.9,8.7,8.1,15.5,17,15.5c3.2,0,6.3-0.9,8.9-2.5c1.7,0.7,3.5,1.1,5.4,1.1c7.8,0,14.1-6.3,14.1-14.2
		c0-1.3-0.2-2.6-0.5-3.8c2.9-2.6,4.7-6.3,4.7-10.4C667.6,55.6,662.2,49.7,655.2,48.9z"/>
	<path class="st11" d="M655.2,48.9c-1.1-4.9-4.4-8.9-8.7-10.9c0.6,5-0.8,9.9-4.6,13.8c-1.9,1.9-4.3,3.5-6.6,4.9
		c-1.6,1-0.9,0.5-1.8,1.3c-0.9,0.9-0.3-0.1-1.1,1.4c-0.1,0.1-0.1,0.2-0.1,0.2c-0.1,0.4-0.3,0.8-0.4,1.3c-0.2,1.1-0.4,2.1-0.6,3.2
		c-0.5,2.9-1.5,5.6-3.5,7.7c-3.3,3.6-7.4,4.2-11.5,3.6c0.5,0.6,1.1,1.1,1.7,1.6c0.9,8.7,8.1,15.5,17,15.5c3.2,0,6.3-0.9,8.9-2.5
		c1.7,0.7,3.5,1.1,5.4,1.1c7.8,0,14.1-6.3,14.1-14.2c0-1.3-0.2-2.6-0.5-3.8c2.9-2.6,4.7-6.3,4.7-10.4
		C667.6,55.6,662.2,49.7,655.2,48.9z"/>
</g>
<g>
	<path class="st4" d="M676.1,93.4h-3.3c-2.1-5.2-7.8-10.5-8.6-11.2l-2.2,2.7c2.3,2,8.2,8.3,8.2,12.5l-0.8,27.1h3.4h0.7h1.8h0.7h3.4
		l-0.8-27.1c0-4.2,5.9-10.7,8.2-12.7l-2.2-2.5C683.9,82.9,678.1,88.2,676.1,93.4z"/>
	<path class="st4" d="M671.3,95.8c0.1,0.8,5.1,2.1,5.1,1.3c0.4-11.1-8.5-22.8-8.5-22.8S670.3,82.3,671.3,95.8z"/>
	<path class="st12" d="M697.8,41.6c0.5-1.5,0.8-3.1,0.8-4.8c0-7.2-5.4-13.2-12.4-14.1c-0.1-7.7-6.4-14-14.2-14
		c-7.8,0-14.2,6.4-14.2,14.2c0,0.4,0,0.9,0.1,1.3c-6.7,1.2-11.7,7-11.7,14c0,3.2,1,6.1,2.8,8.4c-3.6,3.5-5.8,8.1-5.8,13.2
		c0,5.5,2.6,10.5,6.8,14.1c0.5,7.1,7.2,12.8,15.4,12.8c3.4,0,6.6-1,9.1-2.7c2.2,1,4.7,1.5,7.3,1.5c9,0,16.3-6.5,16.3-14.4
		c0-1.3-0.2-2.6-0.6-3.8c3.7-3.4,5.9-8,5.9-13.1C703.4,49.4,701.3,44.9,697.8,41.6z"/>
	<path class="st11" d="M697.7,71.3c-7.2,7.4-19.1,10.1-27.1,5.1c-3.3,0.8-6.8,0.4-10-1.4c-3.3-1.9-5.3-4.7-6.3-7.9
		c-5.3-1.9-9.2-5.4-10.7-10.8c-0.2,1.1-0.4,2.3-0.4,3.5c0,5.5,2.6,10.5,6.8,14.1c0.5,7.1,7.2,12.8,15.4,12.8c3.4,0,6.6-1,9.1-2.7
		c2.2,1,4.7,1.5,7.3,1.5c9,0,16.3-6.5,16.3-14.4c0-0.1,0-0.2,0-0.3C697.9,71.1,697.8,71.2,697.7,71.3z"/>
</g>
<rect x="301.9" y="81.3" class="st13" width="33.7" height="67.9"/>
<path class="st14" d="M0,195.4h497.6l6-30c0,0-227.6-75-503.6-75V195.4z"/>
<path class="st15" d="M257.3,189.4H900c0,0,0-78.5,0-80C900,109.4,616.4,106.4,257.3,189.4z"/>
<path class="st16" d="M386.8,189.4h59.7c21.6-20.1,47.3-35,73.8-49c-7.2,1-14.4,2.1-21.7,3.2C488.1,147.3,435.4,159.4,386.8,189.4z"
	/>
<rect y="233.2" class="st16" width="900" height="44.7"/>
<g>
	<g>
		<g>
			<g>
				<polygon class="st4" points="109.1,122 107.2,164.5 122.1,164.5 120.2,122 				"/>
				<path class="st4" d="M115.5,122h4.7c0.2-9.5,11.2-16.5,11.2-16.5C119.8,107.1,115.5,122,115.5,122z"/>
				<path class="st4" d="M110.7,114.5l1.1,8l2.7-2.7c0,0-2.7-8.9,3.3-12.7C117.8,107,112.3,107.7,110.7,114.5z"/>
				<path class="st4" d="M114,117l-3.3,9.3c0,0,7.8,0.2,7.6,0c-0.2-0.2-0.5-9.3-0.5-9.3S116.1,120.4,114,117z"/>
				<path class="st4" d="M117.8,101.6c7,5,1.7,12.8,1.6,12.9l3.7-3.8C123.7,103.2,117.8,101.6,117.8,101.6z"/>
			</g>
			<path class="st4" d="M97.3,104.3c12,6.4,11.8,17.7,11.8,17.7l4.6,0.4l-3-8C107.7,108,97.3,104.3,97.3,104.3z"/>
		</g>
	</g>
	<g>
		<g>
			
				<ellipse transform="matrix(1 -1.197694e-03 1.197694e-03 1 -9.630286e-02 0.104)" class="st5" cx="86.8" cy="80.5" rx="22.6" ry="22.6"/>
			<ellipse class="st5" cx="114.8" cy="88.3" rx="24.1" ry="24.1"/>
			<ellipse class="st5" cx="144.5" cy="79" rx="26.3" ry="25.1"/>
			<ellipse class="st5" cx="104.9" cy="51.7" rx="33.1" ry="33.2"/>
			<ellipse class="st5" cx="131.5" cy="51.7" rx="30.2" ry="30.2"/>
		</g>
		<g class="st6">
			<path d="M88.8,97.3c-10.2,0.3-19.5-4.7-24.2-12.5c2,10.4,11.2,18.2,22.2,18.2c4.9,0,9.4-1.6,13.1-4.2c-1.3-0.7-2.4-1.6-3.4-2.6
				C93.9,96.9,91.4,97.2,88.8,97.3z"/>
			<path d="M99.3,98.6c-1-0.6-1.9-1.2-2.7-1.8c-1.3,0.4-2.6,0.8-3.9,1.1c3.7,8.6,12.2,14.6,22.1,14.6c11.3,0,20.8-7.8,23.4-18.3
				c-4,3.6-9.2,6-14.4,7C115.8,102.6,106.6,102.8,99.3,98.6z"/>
			<path d="M138.2,94.1c-0.4,0.6-0.7,2.2-1.2,2.7c-1.5,1.7-3.8,2.9-6.1,3.6c4,2.3,8.6,3.6,13.6,3.6c10.4,0,19.5-5.8,23.7-14.2
				C160.4,96.6,148.6,97,138.2,94.1z"/>
		</g>
	</g>
</g>
<g>
	<g>
		<g>
			<g>
				<polygon class="st4" points="178.9,138.9 177.3,175.9 190.3,175.9 188.7,138.9 				"/>
				<path class="st4" d="M169.1,124c0,0,9.7,6.7,9.9,14.9h4.1C183.1,138.9,179.2,125.4,169.1,124z"/>
				<path class="st4" d="M181.1,125.8c5.3,3.3,2.9,11.1,2.9,11.1l2.3,2.4l1-6.9C185.8,126.4,181.1,125.8,181.1,125.8z"/>
				<path class="st4" d="M181.1,134.5c0,0-0.3,8-0.4,8.1c-0.1,0.1,6.6,0,6.6,0l-2.9-8.1C182.6,137.5,181.1,134.5,181.1,134.5z"/>
				<path class="st4" d="M176.4,129.1l3.2,3.3c-0.1-0.1-4.7-6.9,1.4-11.3C181.1,121.1,175.9,122.5,176.4,129.1z"/>
			</g>
			<path class="st4" d="M187.3,132.4l-2.6,6.9l4-0.4c0,0-0.2-9.9,10.3-15.5C198.9,123.5,189.8,126.7,187.3,132.4z"/>
		</g>
	</g>
	<g>
		<g>
			<ellipse class="st12" cx="208.1" cy="102.7" rx="19.7" ry="19.7"/>
			<ellipse transform="matrix(1 -2.681386e-03 2.681386e-03 1 -0.293 0.493)" class="st12" cx="183.7" cy="109.5" rx="21" ry="21"/>
			<ellipse class="st12" cx="157.8" cy="101.4" rx="22.9" ry="21.8"/>
			
				<ellipse transform="matrix(1.961093e-03 -1 1 1.961093e-03 114.2789 269.7567)" class="st12" cx="192.3" cy="77.6" rx="28.9" ry="28.9"/>
			<ellipse class="st12" cx="169.1" cy="77.6" rx="26.3" ry="26.3"/>
		</g>
		<g class="st6">
			<path d="M206.4,117.4c-2.3-0.1-4.5-0.4-6.7-0.9c-0.9,0.9-1.9,1.7-3,2.3c3.2,2.3,7.2,3.7,11.4,3.7c9.6,0,17.6-6.8,19.3-15.9
				C223.4,113.3,215.3,117.6,206.4,117.4z"/>
			<path d="M197.2,118.5c-6.3,3.6-14.3,3.5-21.3,2.1c-4.5-0.9-9.1-2.9-12.6-6.1c2.2,9.2,10.5,16,20.4,16c8.6,0,16.1-5.2,19.3-12.7
				c-1.2-0.2-2.3-0.5-3.4-0.9C198.8,117.5,198,118,197.2,118.5z"/>
			<path d="M163.3,114.5c-9.1,2.5-19.4,2.2-26.2-3.7c3.7,7.3,11.6,12.4,20.7,12.4c4.3,0,8.4-1.2,11.9-3.2c-2-0.6-4-1.7-5.3-3.2
				C163.9,116.4,163.7,115,163.3,114.5z"/>
		</g>
	</g>
</g>
<g>
	<path class="st5" d="M105,168.2c0.2-1,0.3-2,0.3-3c0-8.4-7.3-15.2-16.4-15.2c-6.1,0-11.4,3.1-14.3,7.7c-2.3-1.6-5.2-2.5-8.3-2.5
		c-7.7,0-14,5.8-14,13c0,0.1,0,0.2,0,0.2c-4.8,1-8.5,5-8.5,9.8v0c0,5.5,4.9,10,10.8,10h49.8c6,0,10.8-4.5,10.8-10v0
		C115.4,172.8,110.8,168.4,105,168.2z"/>
	<path class="st17" d="M155.8,166.5c0.2-1.1,0.4-2.1,0.4-3.3c0-9.1-7.9-16.4-17.8-16.4c-6.6,0-12.4,3.4-15.5,8.3
		c-2.5-1.7-5.6-2.7-9-2.7c-8.4,0-15.2,6.3-15.2,14.1c0,0.1,0,0.2,0,0.3c-5.2,1.1-9.2,5.5-9.2,10.6v0c0,6,5.3,10.9,11.8,10.9h54
		c6.5,0,11.8-4.9,11.8-10.9v0C167.1,171.6,162.1,166.8,155.8,166.5z"/>
	<path class="st5" d="M179.3,166.5c0.2-1.1,0.4-2.1,0.4-3.3c0-9.1-7.9-16.4-17.8-16.4c-6.6,0-12.4,3.4-15.5,8.3
		c-2.5-1.7-5.6-2.7-9-2.7c-8.4,0-15.2,6.3-15.2,14.1c0,0.1,0,0.2,0,0.3c-5.2,1.1-9.2,5.5-9.2,10.6v0c0,6,5.3,10.9,11.8,10.9h54
		c6.5,0,11.8-4.9,11.8-10.9v0C190.5,171.6,185.5,166.8,179.3,166.5z"/>
	<path class="st17" d="M219.5,168.4c0-0.1,0-0.2,0-0.2c0-7.2-6.3-13-14-13c-3.1,0-6,0.9-8.3,2.5c-2.8-4.6-8.1-7.7-14.3-7.7
		c-9,0-16.4,6.8-16.4,15.2c0,1,0.1,2,0.3,3c-5.8,0.2-10.4,4.7-10.4,10v0c0,5.5,4.9,10,10.8,10h49.8c6,0,10.8-4.5,10.8-10v0
		C228,173.5,224.4,169.4,219.5,168.4z"/>
	<path class="st17" d="M219.5,168.4c0-0.1,0-0.2,0-0.2c0-7.2-6.3-13-14-13c-3.1,0-6,0.9-8.3,2.5c-2.8-4.6-8.1-7.7-14.3-7.7
		c-9,0-16.4,6.8-16.4,15.2c0,1,0.1,2,0.3,3c-5.8,0.2-10.4,4.7-10.4,10v0c0,5.5,4.9,10,10.8,10h49.8c6,0,10.8-4.5,10.8-10v0
		C228,173.5,224.4,169.4,219.5,168.4z"/>
</g>
<g>
	<rect x="747" y="82.7" class="st18" width="1.9" height="34.2"/>
	<rect x="794.2" y="82.7" class="st18" width="1.9" height="34.2"/>
	<g>
		<rect x="744" y="81.3" class="st19" width="55.7" height="4"/>
		<rect x="744" y="86.6" class="st19" width="55.7" height="4"/>
		<rect x="744" y="91.9" class="st19" width="55.7" height="4"/>
		<rect x="744" y="99.8" class="st19" width="55.7" height="2.3"/>
	</g>
</g>
<rect y="188.2" class="st20" width="900" height="59.9"/>
<path class="st21" d="M626.4,224.4c47,15.7,118.4,23.8,168,23.8H900v-60H518.4L626.4,224.4z"/>
<g>
	<g>
		<path class="st18" d="M762.5,159.5c-2.1-0.9-3.4-2.4-6.5-0.6c-3.1,1.8-4.9,6.1-4.8,8.4c0.2,3.8,1.6,15.2,0.1,14.5
			c-1.5-0.7-9.6-8.8-18.1-8.3c-8.6,0.5-17.2,4.9-17.2,4.9s0.7,1.6,2.1,1.6c0,0-0.1,1.9-2.6,0.6c-2.5-1.4-6.2-3.1-7.6-4
			c-1.5-0.9,1.7,4,4.4,5.4c0,0,1.7,6.3,4.6,6.3H761c0,0,0.7-4.6-2.6-11.5c-3.3-7-2.9-9.2-1.6-12.3c0,0,3.1,0.6,4.1,0.5
			c1-0.1,3-2.6,3-2.6S764.5,160.4,762.5,159.5z"/>
		<path class="st22" d="M763.8,164.4c-0.2-0.5-0.1-1.3-0.7-1.3c-0.6,0-2.1,0.6-1.9,1.7c0,0,2.6,2.5,3.1,2.8c0.4,0.3,1.5,0.9,1.5,0.9
			s0.7-0.3-0.3-1.5C764.5,165.8,764,165,763.8,164.4z"/>
		<path class="st23" d="M763.2,162.2c-0.5,0.1-1.5-0.7-1.5-0.7c-1.1-0.5-0.9,0-0.6,0.2c0.4,0.2,0.2,1,0,1.5c-0.3,1.2,0,1.6,0,1.6
			c0-1.1,1.3-1.5,1.7-1.5c0.4,0,0.1,0.5,0.3,1c0.4,0.8,0.2-0.3,0.4-0.7c0.2-0.4,0.4-1.3,0.4-1.3
			C763.9,162.1,763.6,162.1,763.2,162.2z"/>
		<path class="st24" d="M761.4,161.3c-0.5-0.4-0.9-0.2-0.9-0.2c-0.1,0.9,1.2,0.6,1.2,0.6S761.9,161.7,761.4,161.3z"/>
	</g>
	<g>
		<path class="st25" d="M690.5,163.4c-1.8-0.8-3-2.1-5.6-0.5c-2.7,1.6-4.2,5.3-4.1,7.3c0.1,3.3,1.4,13.1,0.1,12.5
			c-1.3-0.6-8.3-7.6-15.7-7.2c-7.4,0.4-14.9,4.2-14.9,4.2s0.6,1.4,1.8,1.4c0,0-0.1,1.7-2.3,0.5c-2.2-1.2-5.3-2.7-6.6-3.5
			s1.5,3.5,3.9,4.6c0,0,1.5,5.4,4,5.4h38.3c0,0,0.6-4-2.3-10c-2.9-6-2.5-8-1.4-10.7c0,0,2.7,0.5,3.6,0.4s2.6-2.3,2.6-2.3
			S692.2,164.2,690.5,163.4z"/>
		<path class="st22" d="M691.6,167.6c-0.2-0.5-0.1-1.1-0.6-1.1c-0.5,0-1.8,0.6-1.7,1.5c0,0,2.3,2.1,2.7,2.4c0.4,0.2,1.3,0.7,1.3,0.7
			s0.6-0.3-0.2-1.3C692.2,168.8,691.8,168.1,691.6,167.6z"/>
		<path class="st23" d="M691,165.7c-0.4,0.1-1.3-0.6-1.3-0.6c-0.9-0.5-0.8,0-0.5,0.2c0.3,0.2,0.1,0.8,0,1.3c-0.2,1.1,0,1.4,0,1.4
			c0-1,1.1-1.3,1.4-1.3c0.4,0,0.1,0.5,0.3,0.9c0.3,0.7,0.2-0.2,0.4-0.6c0.1-0.4,0.3-1.1,0.3-1.2C691.7,165.6,691.4,165.6,691,165.7z
			"/>
		<path class="st24" d="M689.5,165c-0.5-0.3-0.7-0.1-0.7-0.1c-0.1,0.8,1,0.5,1,0.5S690,165.3,689.5,165z"/>
	</g>
	<g class="st26">
		<path class="st18" d="M760.9,210.6c-1-0.1-4.1,0.4-4.1,0.4c-1.3-2.9-1.7-5.1,1.6-11.8c3.3-6.6,2.6-11,2.6-11h-44.2
			c-2.9,0-4.6,6-4.6,6c-2.7,1.3-5.9,6-4.4,5.1c1.5-0.9,5.1-2.5,7.6-3.8c2.5-1.3,2.6,0.5,2.6,0.5c-1.4,0-2.1,1.5-2.1,1.5
			s8.7,4.3,17.2,4.7c8.6,0.4,16.6-7.3,18.1-8c1.5-0.7,0,10.2-0.1,13.8c-0.1,2.2,1.7,6.3,4.8,8.1c3.1,1.7,4.4,0.3,6.5-0.5
			c2.1-0.9,1.4-2.6,1.4-2.6S761.9,210.7,760.9,210.6z"/>
		<path class="st22" d="M765.7,207.2c0,0-1.1,0.5-1.5,0.8c-0.4,0.3-3.1,2.6-3.1,2.6c-0.1,1,1.3,1.6,1.9,1.6c0.6,0,0.5-0.7,0.7-1.3
			c0.2-0.5,0.7-1.3,1.7-2.4C766.5,207.6,765.7,207.2,765.7,207.2z"/>
		<path class="st23" d="M763.1,211.2c-0.2,0.4,0.1,0.9-0.3,0.9c-0.4,0-1.7-0.3-1.7-1.4c0,0-0.3,0.3,0,1.5c0.1,0.5,0.4,1.2,0,1.5
			c-0.4,0.2-0.5,0.7,0.6,0.2c0,0,1.1-0.7,1.5-0.6c0.5,0.1,0.8,0.1,0.8-0.1c0-0.1-0.2-0.9-0.4-1.3
			C763.4,211.4,763.5,210.4,763.1,211.2z"/>
		<path class="st24" d="M761.7,213.6c0,0-1.3-0.3-1.2,0.6c0,0,0.3,0.2,0.9-0.2C761.9,213.7,761.7,213.6,761.7,213.6z"/>
	</g>
	<g class="st26">
		<path class="st18" d="M689.1,207.6c-0.9-0.1-3.6,0.4-3.6,0.4c-1.1-2.5-1.5-4.4,1.4-10.2c2.9-5.8,2.3-9.5,2.3-9.5h-38.3
			c-2.5,0-4,5.2-4,5.2c-2.4,1.1-5.1,5.2-3.9,4.4c1.3-0.8,4.4-2.2,6.6-3.3c2.2-1.1,2.3,0.5,2.3,0.5c-1.2,0-1.8,1.3-1.8,1.3
			s7.5,3.7,14.9,4.1c7.4,0.4,14.4-6.3,15.7-6.9c1.3-0.6,0,8.9-0.1,12c-0.1,1.9,1.5,5.5,4.1,7c2.7,1.5,3.9,0.3,5.6-0.5
			s1.2-2.3,1.2-2.3S690,207.7,689.1,207.6z"/>
		<path class="st22" d="M693.3,204.7c0,0-0.9,0.5-1.3,0.7c-0.4,0.2-2.7,2.3-2.7,2.3c-0.1,0.9,1.1,1.4,1.7,1.4c0.5,0,0.4-0.6,0.6-1.1
			c0.2-0.4,0.6-1.1,1.4-2.1C693.9,205,693.3,204.7,693.3,204.7z"/>
		<path class="st23" d="M691,208.1c-0.2,0.4,0.1,0.8-0.3,0.8c-0.4,0-1.4-0.3-1.4-1.2c0,0-0.3,0.3,0,1.3c0.1,0.5,0.3,1.1,0,1.3
			c-0.3,0.2-0.4,0.6,0.5,0.2c0,0,0.9-0.6,1.3-0.5c0.4,0.1,0.7,0.1,0.7-0.1c0-0.1-0.2-0.8-0.3-1.1C691.2,208.3,691.3,207.5,691,208.1
			z"/>
		<path class="st24" d="M689.8,210.2c0,0-1.1-0.2-1,0.5c0,0,0.3,0.2,0.7-0.1C690,210.3,689.8,210.2,689.8,210.2z"/>
	</g>
</g>
<g>
	<polygon class="st27" points="37.8,61.8 28.2,61.8 31.8,85 37.8,85 38.7,85 44.6,85 48.2,61.8 38.7,61.8 	"/>
	<g>
		<g>
			
				<rect x="29.8" y="60.9" transform="matrix(0.9871 -0.1601 0.1601 0.9871 -11.3651 5.7977)" class="st28" width="1.1" height="25.1"/>
		</g>
		<g>
			
				<rect x="33.6" y="72.9" transform="matrix(0.1601 -0.9871 0.9871 0.1601 -33.7623 107.1984)" class="st28" width="25.1" height="1.1"/>
		</g>
	</g>
	<g>
		<g>
			
				<rect x="28.9" y="72.9" transform="matrix(5.571710e-02 -0.9984 0.9984 5.571710e-02 -34.2919 110.6193)" class="st28" width="24.8" height="1.1"/>
		</g>
		<g>
			
				<rect x="34.6" y="61" transform="matrix(0.9984 -5.573624e-02 5.573624e-02 0.9984 -4.0387 2.0693)" class="st28" width="1.1" height="24.8"/>
		</g>
	</g>
	<path class="st28" d="M44.8,85H31.1c-0.4,0-0.8,0.4-0.8,0.8s0.4,0.8,0.8,0.8h13.7c0.4,0,0.8-0.4,0.8-0.8S45.2,85,44.8,85z"/>
	<path class="st28" d="M44.8,87.3H31.1c-0.4,0-0.8,0.4-0.8,0.8c0,0.4,0.4,0.8,0.8,0.8h13.7c0.4,0,0.8-0.4,0.8-0.8
		C45.6,87.6,45.2,87.3,44.8,87.3z"/>
	<path class="st28" d="M47.7,60.4H28.1c-0.6,0-1.1,0.4-1.1,0.8c0,0.4,0.5,0.8,1.1,0.8h19.6c0.6,0,1.1-0.4,1.1-0.8
		C48.9,60.7,48.3,60.4,47.7,60.4z"/>
	<polygon class="st28" points="42.2,54.9 41.9,53 39.7,53 39.7,49.4 38,45.6 37.9,45.5 37.8,45.4 37.8,45.6 36.1,49.4 36.1,53 
		34,53 33.6,54.9 30.1,57.3 29.2,60.4 37.8,60.9 37.8,60.9 37.9,60.9 38,60.9 38,60.9 46.6,60.4 45.7,57.3 	"/>
	<rect x="32.6" y="86.2" class="st28" width="10.5" height="1.3"/>
	<g>
		<path class="st28" d="M32.3,88.9L32.3,88.9C32.2,88.9,32.3,88.9,32.3,88.9z"/>
		<path class="st28" d="M38.2,88.4L38.2,88.4c0-0.1-0.1-0.1-0.3,0c-0.2,0-0.3,0-0.3,0v0.1c-1.4,0.2-5.1,0.6-5.4,0.5l3.7,7v134.7h1.7
			h0.5h1.7V95.8l3.7-7C43.3,89,39.6,88.6,38.2,88.4z"/>
		<path class="st28" d="M43.6,88.9L43.6,88.9C43.6,88.9,43.6,88.9,43.6,88.9z"/>
	</g>
	<polygon class="st28" points="41.8,230.6 40.1,230.6 38.3,230.6 37.6,230.6 35.7,230.6 34.1,230.6 34.1,235.7 28.3,241.8 
		28.3,248.1 37.6,248.1 38.3,248.1 47.6,248.1 47.6,241.8 41.8,235.7 	"/>
</g>
<g>
	<g>
		<path class="st29" d="M596.8,208.9l-6.2,31.8l4.7,1.6l8.2-23.3l1.8-8.3l10.5-15.7c0,0,3.2-2.8,4-3.9c0.8-1.3,2.2-5.7,2.2-5.7
			l-19.3-3.4L596.8,208.9z"/>
	</g>
	<g class="st30">
		<path d="M597.4,206C597.4,206.1,597.4,206.1,597.4,206c5.5,4.8,3.9,11.3,2.6,17.7c-0.4,1.9-0.9,3.7-1.5,5.5
			c-1.2,4.3-2.9,8.5-5,12.5l1.9,0.6l8.2-23.3l1.8-8.3l10.5-15.7c0,0,3.2-2.8,4-3.9c0.8-1.3,2.2-5.7,2.2-5.7l-19.3-3.4L597.4,206z"/>
	</g>
	<g>
		<path class="st31" d="M596.4,205c4,0.7,8.4,2.1,12.4,3.1l7-13.1c0,0,3.2-2.8,4-3.9c0.8-1.3,2.2-5.7,2.2-5.7l-19.4-3.5L596.4,205z"
			/>
	</g>
	<g class="st30">
		<path d="M599.8,192.1c0.3,0.2,0.6,0.4,0.9,0.5c0.4-0.1,1,0,1.3,0.5c2.8,3.9,4.7,9.3,5.4,14.6c0.5,0.1,0.9,0.3,1.4,0.4l7-13.1
			c0,0,3.2-2.8,4-3.9c0.8-1.3,2.2-5.7,2.2-5.7l-19.4-3.5L599.8,192.1z"/>
	</g>
	<g>
		<path class="st32" d="M610.8,113.5c-2.1,0-5.3,0.2-7.9,0.3c-1.8,0.1-2.6,2.2-1.4,3.5l8.1,12.5l4.2-2c0,0,2.8-3.5,2.7-6.6
			C616.4,118.3,615,113.4,610.8,113.5z"/>
	</g>
	<g>
		<path class="st29" d="M611.4,128.1c-1.7,0-1.8-2.3-1.8-2.3c0.5-0.3,0.5-1.1,0.3-2.2c-0.3-1.8-2.3-0.2-2.3-0.2
			c-0.7-3.8-1.7-4.1-2.7-4.7c-1.3-0.7-3.5-1.4-3.5-1.4l-1.1,3.6l0.3,1.5l-2.3,4l1.6,0.4l0.7,6.2l4.3,0.4l1.9,5.4l7.2-5l-0.2-5.8
			C613.8,127.9,613.1,128.1,611.4,128.1z"/>
	</g>
	<g>
		<polygon class="st29" points="623.9,212 621.8,185 615.9,186 601.3,188 606.5,195.9 609,198.7 616.8,219.3 629.1,240.9 
			633.4,239.7 627.2,219.3 		"/>
	</g>
	<g class="st30">
		<path d="M623.9,212l-2.1-27l-5.9,1l-14.6,2.1l5.2,7.9l2.5,2.8l4,10.5c8.5-1.4,13,10.6,14.3,14.7c0.9,2.9,2.9,11.5,3.8,16.4
			l2.4-0.6l-6.3-20.4L623.9,212z"/>
	</g>
	<g>
		<path class="st31" d="M623.2,192.9c0.1-1.5,0.1-3-0.1-4.5l-1.2-7.6l-18.6-1.2l-2,8.5l1.2,7l5.5,4l3.7,9c4.1-0.6,8.4-1.3,12.5-2.1
			l-1.1-11.6L623.2,192.9z"/>
	</g>
	<g class="st30">
		<path d="M623.2,192.9c0.1-1.5,0.1-3-0.1-4.5l-1.2-7.6l-18.6-1.2l-2,8.5l1.2,7l1.9,1.4c6.1,2.4,12.3,5.1,16,10.2
			c1.3-0.2,2.6-0.5,3.8-0.7l-1.1-11.6L623.2,192.9z"/>
	</g>
	<g>
		<path class="st33" d="M628.4,240.3l-4.7,3.9c-0.2,0.2-3.9,1.3-3.9,1.3c-2.4,0.3-1.9,2.6-1.9,2.6l8.9-0.1l9.5-2
			c0.3-3.4-2.5-6.8-2.5-6.8L628.4,240.3z"/>
	</g>
	<g class="st30">
		<path d="M630.9,239.7C630.9,239.8,631,239.8,630.9,239.7c0.9,2.4,0.9,4.9,0.5,7.3l4.9-1.1c0.3-3.4-2.5-6.8-2.5-6.8L630.9,239.7z"
			/>
	</g>
	<g>
		<path class="st34" d="M622.3,153.8c0,0-0.1-7.2-1.7-11.7c-1.6-4.5-6.7-8.8-6.7-8.8s-6.5,3.6-8.2,5.9c-3.7,5.1-2.5,11.2-3.4,14.7
			c-0.3,1.3,0.1,18.8,0.1,18.8l-0.6,10c10.7,1.5,20.5,0.4,20.5,0.4l-1.1-12.4L622.3,153.8z"/>
	</g>
	<g>
		<g>
			<rect x="597.4" y="162.4" class="st35" width="4.2" height="7.9"/>
		</g>
		<g>
			<rect x="596" y="164.2" class="st36" width="1.5" height="4"/>
		</g>
		<g>
			<polygon class="st35" points="594.9,165.3 594.9,165.9 594.9,168.8 596,168.1 596,165.9 596,165.3 596,164.2 594.9,163.5 			"/>
		</g>
	</g>
	<g>
		<path class="st35" d="M606.1,137.6c-0.1,0.1-0.2,0.2-0.4,0.4c-5.1,5.8-6.6,14-6.6,24.4l1.4,0c0-15.1,4.5-21.4,6.3-23.5
			c0.2-0.2,0.4-0.4,0.4-0.5c0.6-0.8,5.2-3.5,7.9-5l-0.7-1.2C613.2,132.9,607,136.3,606.1,137.6z"/>
	</g>
	<g>
		<path class="st33" d="M623.5,175.3h-20.2c-1.9,0-3.5,1.6-3.5,3.5v13.7c0,1.9,1.5,3.5,3.5,3.5h20.2c1.9,0,3.5-1.5,3.5-3.5v-13.7
			C626.9,176.9,625.4,175.3,623.5,175.3z"/>
	</g>
	<g>
		<path class="st33" d="M612.3,136.8c-8.4,0.9-9.4,10.2-9.4,10.3l-2.3,31.1l1.8,0.1l2.3-31.1c0-0.3,0.9-8,7.8-8.7
			c5.9-0.7,7.4,7.5,7.4,7.9l4.9,31l1.7-0.3l-4.9-31.1C621,142.6,618.3,136.1,612.3,136.8z"/>
	</g>
	<g>
		<path class="st29" d="M619.5,144.6c0,0-2.3-6.6-6-5.8c-3.7,0.8-4.2,2.7-4,6.3s9,19.8,9,19.8s4.2-0.1,6.8-1.1l0,0L619.5,144.6z"/>
	</g>
	<g class="st30">
		<path d="M619.5,144.6c0,0-2.3-6.6-6-5.8c-3.7,0.8-4.2,2.7-4,6.3s9,19.8,9,19.8s4.2-0.1,6.8-1.1l0,0L619.5,144.6z"/>
	</g>
	<g>
		<path class="st37" d="M613.4,138.8c-3.7,0.8-4.2,2.7-4,6.3c0.1,1.7,2,6,4,10.1c2.9-0.7,5.7-1.4,8.6-2.2l-2.6-8.5
			C619.5,144.6,617.1,138,613.4,138.8z"/>
	</g>
	<g>
		<path class="st29" d="M602.9,149.2c-0.4-0.1-0.7,0-1,0.3c-0.8,0.9-1.7,2.4-2.2,3.1c-0.2,0.3-0.2,0.7-0.1,1.1l1.3,2.2l4.2,1.4
			l2.4-2.9l-1.9-4.4L602.9,149.2z"/>
		<path class="st29" d="M605.5,147.7c-1.2,0.3-0.9,2.1-0.9,2.1l2.8,4.4l-0.8-4.6L605.5,147.7z"/>
	</g>
	<g>
		<path class="st29" d="M606.6,153.5l-2.1,3.5l13.9,11.2c4.8,2.3,7.7-1.1,6.8-4.3L606.6,153.5z"/>
	</g>
	<g class="st30">
		<path d="M621.9,162c0,0.1,3.5,1.9,2.4,5.8c1-1,1.4-2.5,1-3.9L621.9,162z"/>
	</g>
	<g>
		<path class="st33" d="M590.6,240.7l-7.3,1.9c-0.3,0.1-4.1,0.1-4.1,0.1c-2.4-0.4-2.6,1.9-2.6,1.9l7.9,2.7l10.3,0.9
			c1.3-3.1,0.6-6.2,0.6-6.2L590.6,240.7z"/>
	</g>
	<g class="st30">
		<path d="M593.2,241.4c0,0.1,0,0.1,0,0.2c-0.4,2.3-1.2,4.5-2.7,6.2l4.3,0.4c1.3-3.1,0.6-6.2,0.6-6.2L593.2,241.4z"/>
	</g>
	<path class="st38" d="M623.6,175.3H603c-1.8,0-3.3,1.5-3.3,3.3v7.1c0,1.4,1.1,2.6,2.5,2.8c3.4,0.3,9.2,0.9,11.6,0.9
		c2.2,0,7.4-0.5,10.5-0.8c1.4-0.1,2.5-1.3,2.5-2.8v-7.1C626.9,176.8,625.4,175.3,623.6,175.3z"/>
</g>
<g>
	<g>
		<path class="st32" d="M758.5,70.5H757c-1.4,0-2.5,1.1-2.5,2.5l-0.5,8.3c0,1,1.1,1.8,2.1,1.8h3.1c1,0,2.1-0.8,2.1-1.8l-0.3-8.3
			C761,71.6,759.9,70.5,758.5,70.5z"/>
		<path class="st39" d="M755.6,75.9c0,1.3,1,2.3,2.3,2.3c1.3,0,2.3-1,2.3-2.3V73h-4.7V75.9z"/>
		<path class="st39" d="M756.3,79.4c0,0.8,0.6,1.4,1.4,1.4s1.4-0.6,1.4-1.4v-3.1h-2.8V79.4z"/>
		<polygon class="st32" points="754.9,76.6 755.9,77.9 756.3,78.6 756.6,72.3 755.2,72.9 		"/>
		<path class="st32" d="M755.7,73.5l0.8,0.3c0,0,0-0.7,0.7-0.7v-0.4h-1.5V73.5z"/>
		<path class="st11" d="M757.1,77.8c0.9,1,1.9,0.4,1.9,0.4v-0.3C758.2,78.4,757.1,77.8,757.1,77.8z"/>
		<path class="st11" d="M759.1,75.9h-0.6c0.4,0.6,0.9,0.1,0.9,0.1l-0.3-1.8L759.1,75.9z"/>
		<path class="st40" d="M753.9,91.2c0,0-1.7,4.6-1.7,6.5c0,2.4,1.4,3,4.5,3h2.6c2.9,0,4.1-1,4.1-3c0-2.4-1.8-6.5-1.8-6.5H753.9z"/>
		<path class="st11" d="M759.1,96.7C759.1,96.7,759.1,96.7,759.1,96.7c-0.3,0.4-0.6,0.6-1.1,0.6c-2-0.1-3.7-0.9-5.4-1.6
			c-0.2,0.8-0.3,1.6-0.3,2.1c0,2.4,1.4,3,4.5,3h2.6c2.9,0,4.1-1,4.1-3c0-0.9-0.3-2.2-0.7-3.5C761.7,95.3,760.5,96.1,759.1,96.7z"/>
		<path class="st33" d="M763.3,81L763.3,81c0,0-0.2-1.2-1.4-1.5l-2.8-0.7c-0.1,0.2-3.1,0-3.1,0l-2.7,0.7c-1,0.3-1.4,1.1-1.5,1.4
			l-0.4,2.1c0.2,0.1,2.1,2.6,2.1,2.6l0.4,5.6c0,0-0.2,0.4-0.4,1.1c2.8,0,5.8,0.3,8.6,0.3c-0.3-0.8-0.6-1.5-0.6-1.5l-0.1-4.7
			c0.4-0.3,0.7-0.8,0.7-1.4V85c0,0,0-0.4-0.1-1c0.8-0.5,1.3-0.8,1.6-0.9L763.3,81z"/>
		<path class="st39" d="M756.3,78.7l-2.5,0.7c1,2.4,7.1,1.6,8.2,0.1l-2.9-0.8C759,78.9,756.2,78.7,756.3,78.7z"/>
		<path class="st11" d="M753.5,85.6l0.4,5.6c0,0-0.2,0.4-0.4,1.1c0.3,0,0.7,0,1,0c0-1.1-0.1-2.1-0.2-3.2
			C754.3,88,754.3,86.7,753.5,85.6z"/>
		<path class="st11" d="M759.8,86.6c0.1,0,0.1,0.1,0.2,0.1c0.5,0.1,0.9,0.5,0.9,1.2c0,1.8-0.9,3.2-0.8,4.8c0.4,0,2,0,2,0
			c-0.3-0.8-0.6-1.5-0.6-1.5l-0.1-4.7c0.4-0.3,0.7-0.8,0.7-1.4v-0.1c-0.6,0.5-1.2,1-1.9,1.4C760.1,86.5,760,86.6,759.8,86.6z"/>
	</g>
	<path class="st39" d="M756.4,98.6l1.9,11l-1.1,5.2c0,0-0.3,2,0.5,2.3c1.3,0.4,2.4-0.2,2.5-2.3v-5.1l0.5-8.6
		C760.8,101,760.5,94.6,756.4,98.6z"/>
	<path class="st11" d="M756.4,98.6l0,0.3c0.2,0,0.3,0.1,0.5,0.2c0.3,0,0.6,0.1,0.8,0.3c2.2,2,2.3,5,2.3,7.7c0,1.8-0.2,2-0.1,3.8
		c0,1.4,0.3,2.8,0.3,4.2c0-0.1,0-0.3,0-0.4v-5.1l0.5-8.6C760.8,101,760.5,94.6,756.4,98.6z"/>
	<path class="st41" d="M759.7,114.3c-0.8,0.5-2.1,0.6-2.3-0.4l-0.2,0.9c0,0-0.3,2,0.5,2.3c1.3,0.4,2.4-0.2,2.5-2.3v-1
		C760.1,114,759.9,114.2,759.7,114.3z"/>
	<path class="st33" d="M763.7,83.1l-2.2,1.2l1,4.7l-3.9,2.7l1,1.2l4.3-1.9c0.6-0.3,1-0.7,0.9-1.3L763.7,83.1z"/>
	<path class="st33" d="M753.9,84.4l-2.4-1.8l-1.3,7c-0.1,0.6,0.3,1,0.9,1.3l4.6,2.3l1.2-1.3l-4.3-2.9L753.9,84.4z"/>
	<path class="st11" d="M751.4,85.7c0.3-2.7,0.5-4.8,0.5-4.8l-0.6,3.3l-1,5.5c-0.1,0.6,0.3,1,0.9,1.3l4.6,2.3l0.7-0.8
		c-1.2-0.6-4.2-2.4-5.2-3.3C751,89.1,751.1,87.8,751.4,85.7z"/>
	<path class="st11" d="M764.5,88.1c0,1.7-0.6,1.7-1,1.9c-1.5,0.9-4,1.8-4.6,2.1l0.6,0.8l4.3-1.9c0.6-0.3,1-0.7,0.9-1.3L764.5,88.1z"
		/>
	<path class="st33" d="M761.1,81.3c0,0-6.8,0.2-6.8,1.1l-0.1,2.7c0,0.9,0.9,1.6,1.7,1.6h4.9c0.8,0,1.4-0.7,1.4-1.6V85
		C762.2,85,761.9,81.3,761.1,81.3z"/>
	<path class="st11" d="M761.4,85.7c-0.7,0.6-1.5,0.9-2.4,1h1.7c0.8,0,1.4-0.7,1.4-1.6V85c0,0,0-0.2,0-0.4
		C762,85,761.8,85.4,761.4,85.7z"/>
	<path class="st39" d="M766,106l-3.2-7.9c0,0-0.9-1.9-1.5-2.4c-0.6-0.5-2.4-1.9-4.2-0.5c-2.3,1.9-0.5,4.5-0.5,4.5s-0.5-1,1.3-0.9
		c0.5,0.1,2.9,3.1,2.9,3.1l3.8,5.2l1.8,4.6c1,1.8,2.4,2.1,3.7,1.7c1-0.3-0.9-2.6-0.9-2.6L766,106z"/>
	<path class="st41" d="M768.9,110.5c0,0.3,0,0.5,0,0.7c-0.4,1.3-1.9,0.7-2.7,0l0.2,0.5c1,1.8,2.4,2.1,3.7,1.7c1-0.3-0.9-2.6-0.9-2.6
		L768.9,110.5z"/>
	<path class="st39" d="M758.8,91.6l-2,0.5l-1.1,1.2c1.3,0.8,2.4,0,2.4,0l1.6,0.5c1.3,0.1,1.2-0.5,1.2-0.5L758.8,91.6z"/>
	<path class="st11" d="M758.4,92.7c-0.1-0.1-0.1-0.1-0.2-0.2c-0.5,0-1,0.4-1.4,0.5c-0.3,0.1-0.5,0-0.7-0.1l-0.3,0.4
		c1.3,0.8,2.4,0,2.4,0l1.6,0.5c0,0,0.1,0,0.1,0c-0.3-0.2-0.7-0.4-1-0.6C758.8,93,758.5,92.9,758.4,92.7z"/>
	<path class="st39" d="M758.3,91.3l-0.9-0.4c-0.2-0.1-0.5-0.1-0.6,0l-1.4,1c0,0,0.9,0.8,1.6,0.4c0.7-0.3,1.5-0.5,1.5-0.5
		S758.8,91.6,758.3,91.3z"/>
</g>
<g>
	<g>
		<g>
			<path class="st42" d="M790.2,78.8l-4.9-1.9c0,0,0,0,0,0c0,0,0,0,0,0l0,0l-0.1,0l-0.1,0l0,0c0,0,0,0,0,0c0,0,0,0,0,0l-4.9,1.9
				c-1.3,0.3-1.7,1.3-1.8,1.6l0,0l2,5.6l0.1,4.4l-0.4,4.4h10.1l-0.3-9.9l2.2-4.6C791.9,80,791.4,79.1,790.2,78.8z"/>
			<path class="st11" d="M789.5,85.2c-0.2,0.7-0.8,7.9-1.3,9.6h1.9l-0.3-9.9L789.5,85.2z"/>
			<path class="st11" d="M790.1,95.5C790.1,95.5,790.1,95.5,790.1,95.5C790.1,95.5,790.1,95.5,790.1,95.5z"/>
			<path class="st29" d="M782.1,74.3c0,1.4,1.2,2.6,2.6,2.6s2.9-1.7,2.9-3.1l0-2.6h-5.6V74.3z"/>
			<path class="st29" d="M783.4,78.3c0,0.4,0.2,0.8,0.4,1c0.1,0,0.3-0.1,0.5-0.1c0.5,0,0.9,0.2,1.2,0.4c0.6-0.2,1-0.8,1-1.4v-3.5
				h-3.1V78.3z"/>
			<path class="st43" d="M785.4,69.1h-4c0,2,0.6,2,0.6,2h3.4c0.8,0,0.8,0.8,0.8,0.8l0,0l0,0v0.8h0.4c0,0,0.2-0.3,0.4-0.3
				c0.2,0,0.4,0,0.4,0.5c0,1.4-0.7,1.3-0.7,1.3l-0.2,1.7c1.2-0.6,1.3-2.9,1.3-2.9v-2C787.8,68.8,785.4,69.1,785.4,69.1z"/>
			<path class="st11" d="M783.4,76.6v0.3c0,0,1.2,0.7,2.3-0.5C785.7,76.4,784.4,77.1,783.4,76.6z"/>
			<path class="st11" d="M783.3,72.1L783,74c0,0,0.4,0.6,0.9-0.1h-0.7L783.3,72.1z"/>
			<g>
				<polygon class="st18" points="784.6,79.2 785.7,80.4 787.3,77.6 786.6,76.8 				"/>
				<polygon class="st18" points="782.7,77.8 783.4,80.4 784.6,79.2 783.3,76.9 				"/>
			</g>
		</g>
		<path class="st44" d="M779.2,98c0,1.4,1.2,2.6,2.6,2.6h5.8c1.4,0,2.6-1.2,2.6-2.6v-3.2h-10.9V98z"/>
		<path class="st11" d="M789.7,95.6c-1.3,1.9-3.5,2.4-5.8,2.5c-1.2,0-2.3-0.1-3.5-0.1c-0.4,0-0.8,0-1.3,0v0.2c0,1.3,1.1,2.4,2.4,2.4
			h6.2c1.3,0,2.4-1.1,2.4-2.4v-2.6c0,0-0.1,0-0.1,0C789.9,95.6,789.8,95.6,789.7,95.6z"/>
		<path class="st45" d="M778.5,115.1l-2.3,1c-1.2,0.1-1.3,1.1-1.3,1.1h6.2c0.2-1.1-0.3-2.1-0.3-2.1H778.5z"/>
		<path class="st45" d="M784.8,115.1l-1.6,1c-1.3,0.1-1.4,1.1-1.4,1.1h5.4c0.2-1.1-0.3-2.1-0.3-2.1H784.8z"/>
		<polygon class="st42" points="777.2,91 776.1,98 778,98 779.7,91.9 780.7,84.7 778.3,80.4 		"/>
		<path class="st11" d="M776.6,97.9C776.6,98,776.6,98,776.6,97.9L778,98l1.7-6.1l0.5-4c-0.6,1.7-1,3.9-1,3.9S777.5,96.4,776.6,97.9
			z"/>
		<polygon class="st42" points="789.8,84.9 790.7,90.6 793.4,90.4 792,80.4 		"/>
		<path class="st29" d="M776.1,98c0,0-0.9,1.1-0.9,1.5c0,0.4-0.1,1,0.5,1s2.2,0,2.2,0l-0.3-2.5H776.1z"/>
		<path class="st44" d="M779.2,94.8c-1.1,0-2,0.9-2,2l1.1,18.3h2.8V96.9C781.1,95.7,780.2,94.8,779.2,94.8z"/>
		<path class="st11" d="M780.6,99.7c-0.2,5.2-0.8,10.3-1,15.5h1.5V96.9c0-0.4-0.1-0.8-0.3-1.1C781,97.1,780.9,98.4,780.6,99.7z"/>
		<path class="st44" d="M785.3,94.8c-1.1,0-2,0.9-2,2l1.1,18.3h2.8V96.9C787.3,95.7,786.4,94.8,785.3,94.8z"/>
		<path class="st11" d="M786.3,95.1c1.5,1.6,0.2,5.3,0.1,7.4c-0.3,4.2-0.4,8.4-0.8,12.6h1.7V96.9C787.3,96.1,786.9,95.5,786.3,95.1z
			"/>
	</g>
	<path class="st42" d="M786.9,91.5c0,0-0.1,0.7,0.1,1.8l5.2-1.1c0.7,0,1.3-0.6,1.3-1.3l-0.2-1.8L786.9,91.5z"/>
	<path class="st46" d="M785.5,88.8c0-0.1-0.2-0.2-0.3-0.2l-2,0.4c-0.1,0-0.2,0.2-0.2,0.3l0.8,4.1c0,0.1,0.2,0.2,0.3,0.2l2-0.4
		c0.1,0,0.2-0.2,0.2-0.3L785.5,88.8z"/>
	<path class="st29" d="M785.9,90.9l0.1,0.6l-2.7,0c0,0.6,0.5,0.6,0.5,0.6l0.7,1c0.1,0.2,0.4,0.3,0.6,0.3l0.9,0
		c0.9,0,1.2-0.3,1.2-0.3l-0.1-1.5C786.9,91.3,785.9,90.9,785.9,90.9z"/>
</g>
<g>
	<g>
		<path class="st29" d="M501.3,179l-7.5-14l-3.2,2.6l8.2,12.9l0,0l0.8,3.7l1.5,3.7c0.9-0.4,0.7-1.7,0.4-2.5
			c-0.3-0.8,0.4-0.9,0.4-0.9s2.3,3.8,2.8,4.6c0.5,0.8,1.2,0.2,1.2,0.2l0.5-2.2l-0.9-3.8L501.3,179z"/>
	</g>
	<g class="st47">
		<path d="M493.9,164.9l-3.2,2.6l8.2,12.9l0,0l0.8,3.7l1.3,3.1c-0.5-1.9-0.3-4-0.9-5.9C499.1,178.1,493.9,164.9,493.9,164.9z"/>
	</g>
	<g>
		<path class="st29" d="M493.9,125.5l-0.3-1.9l-8.5,1.6l-0.1,8.2l-0.7,4.6l5.2,1.4l1.7-5.1l2.8,0c0,0,0.9-1.6,0.9-4.3l0.9-0.5
			l-2-2.8L493.9,125.5z"/>
	</g>
	<g>
		<path class="st32" d="M491.3,119.4c-3.4,1.9-6,4.9-8.9,7.6c-1,1-2,1.9-3.1,2.7c0.2,0.3,0.4,0.6,0.6,0.9c0,0,1.4,1.8,4.5,2.6l3,0.4
			l0.1-6c0.2-1.1,1-2.1,2.1-2.5l4-1C494.7,122.9,494.4,121,491.3,119.4z"/>
	</g>
	<g class="st11">
		<path d="M485.1,133.2c0,0-0.1,0-0.1,0l0,0.3l-0.7,4.6l2.1,0.5c0-1.8,0-3.5,0-5.3C485.9,133.3,485.5,133.3,485.1,133.2z"/>
	</g>
	<path class="st29" d="M511.5,236.4l-5.3-27.2c0,0,0-2.9-1.3-7l-10.8-23.6l-0.5-3.8l-12-1.4c0,0-5.2,6.1-1.2,11
		c3.1,3.8,18.8,22,18.8,22l0.8,3.8l0.3,3.7c0.2,2.5,0.8,5,1.7,7.3l6,15.7l-0.2,0l6.2,8.9c0,0,4.6,0.7,3.9,0
		C514.8,243.2,511.5,236.4,511.5,236.4z"/>
	<path class="st11" d="M504.3,200.8l-10.2-22.2l-0.5-3.8l-12-1.4c0,0-5.2,6.1-1.2,11c3.1,3.8,18.8,22,18.8,22l0.8,3.8l0.3,3.7
		c0.2,2.5,0.8,5,1.7,7.3l6,15.7l-0.2,0l1.4,2C506.6,234.1,497,205.3,504.3,200.8z"/>
	<g>
		<path class="st33" d="M516.9,244.9c0,0-0.7,0.3-1,0.5c-0.4,0.1-1,0.5-2.2-0.5c-1.1-1-6-8.5-6-8.5c-0.1-0.2-0.7,0.3-1.5,1.5
			c-0.6,0.8-0.4,2.5-0.4,2.5s0.5,2.4,0.7,3.2c0.4,1.5,0.5,2.7,0.5,3.3c0,0,0,0,0,0l0,1.3l1.7,0l0-1.3c0,0,0.2-3.8,0.3-3.7
			c0.1,0,0.1,0.1,0.2,0.2l1.4,2c0.3,0.5,1.1,1.6,1.1,1.6c0.8,1,2.6,1.2,2.6,1.2c0,0,5.1,0,5.4-0.2c0,0,0.1,0,0.1-0.1
			c0,0,0.1-0.1,0.1-0.1c0.1-0.1,0.1-0.2,0.1-0.3C519.8,246.4,516.9,244.9,516.9,244.9z"/>
	</g>
	<path class="st29" d="M481,174c-0.9,1.1-1.5,2.4-1.6,3.9c0,4.9-1,28.9-1,28.9l-1.9,3.3l-2.8,3.9c-0.8,1.2-1.5,2.4-2.1,3.7
		l-6.7,15.1l0.2,0.2l1,10.3c0,0,3.7,2.8,3.4,1.9c-1.4-3.8-0.8-11.2-0.8-11.2l12.9-20.2c0,0,2-2.2,3.8-6.1l8-24.7l-4.8-9
		C486.2,173.9,483.6,174,481,174z"/>
	<path class="st11" d="M481,174c-0.9,1.1-1.5,2.4-1.6,3.9c0,4.9-1,28.9-1,28.9l-1.9,3.3l-2.8,3.9c-0.8,1.2-1.5,2.4-2.1,3.7
		l-6.7,15.1l0.2,0.2l0,0.3c0.1-0.1,4.3-7.7,6.5-12.5c2.1-4.5,5.6-9.9,8.4-14.1c2.2-3.3,4.1-2.9,7-4l6.4-19.7l-4.8-9
		C486.2,173.9,483.6,174,481,174z"/>
	<g>
		<path class="st33" d="M468.1,243.8c-0.4-0.1-1.1-0.1-1.7-1.5c-0.5-1.4-1.1-10.4-1.1-10.4c0-0.2-0.8,0-2.1,0.6
			c-0.9,0.4-1.5,2-1.5,2s-0.7,2.3-1,3.1c-0.4,1.5-0.9,2.5-1.2,3.1c0,0,0,0,0,0l-0.6,1.2l1.5,0.8l0.7-1.1c0,0,2-3.2,2.1-3.1
			c0,0.1,0.1,0.2,0.1,0.3l0.2,2.4c0,0.6,0.2,1.9,0.2,1.9c0.2,1.3,1.7,2.4,1.7,2.4c0,0,4.4,2.5,4.8,2.5c0,0,0.1,0,0.1,0
			c0,0,0.1,0,0.1,0c0.1,0,0.2-0.1,0.2-0.2c0.3-1.1-1.5-3.7-1.5-3.7S468.5,243.8,468.1,243.8z"/>
	</g>
	<path class="st33" d="M489.5,139.1c-0.3-0.3-5-2-5-2l-1.9,2.7c0,0-3.1,4.9-3.1,11.2c0,2.4,1.5,16.2,2.1,21.5c4.2,0.3,12.1,0,12.1,0
		l1.1-15.5c0,0,2-1,2.5-3.4l-3-6.1C494.2,147.5,489.8,139.4,489.5,139.1z"/>
	<path class="st33" d="M481.6,171.4C481.6,171.4,481.6,171.4,481.6,171.4L481.6,171.4c0,0-2.4,5.1-2.6,7.4l-2.1,24.3l27.1-2.8
		l-10.6-27.9C489.4,171.7,485.8,172,481.6,171.4z"/>
	<polygon class="st18" points="481.6,171.4 493.6,172.7 493.8,171.1 481.6,170.2 	"/>
	<g>
		<path class="st48" d="M492.8,117.8c-0.8,0.1-1.5,0.3-2.2,0.5c0-0.1,0.1-0.1,0.1-0.2c0,0-3.8-3.8-9.2-0.3c-4.7,3-2.8,8.2-2.1,9.6
			c-1.2,2.4-4.1,10.4-1.3,8.3c2.2-1.7,7.2-6.5,11.2-9.8c2.6-2.1,11.2-7.1,11.2-7.1C502.5,117.5,497.4,117.1,492.8,117.8z"/>
		<path class="st11" d="M481.9,117.5c-0.1,0.1-0.3,0.1-0.4,0.2c-4.7,3-2.8,8.2-2.1,9.6c-1.2,2.4-4.1,10.4-1.3,8.3
			c0.8-0.6,2-1.6,3.3-2.8c1.5-3,2.3-6.2,1-9.4C481.4,121.1,481,119.8,481.9,117.5z"/>
		<path class="st33" d="M478.8,125.8l0.6,1.5c0,0,4.9-1.1,7.9-3.7c3.1-2.7,4-5.2,4-5.2l-1.1-0.9
			C490.1,117.6,487.8,123.4,478.8,125.8z"/>
	</g>
	<g>
		<g>
			<path class="st29" d="M486.9,141.8c0,0-3.4-1.6-4.7,3.2c-1.1,4.1-4.2,15.3-5.1,18.4c-0.1,0.5-0.2,1-0.1,1.5
				c0,0,1.6,17.6,1.6,17.6c0,0-1.6,0.6-1.4,2.4l0.3,4c0,0-2.4-0.9-2.9-0.4l0.1,2l2.2,1.7l2.8-1.2c0,0,1.9-8.4,1.9-8.4l0.4-16
				c0.8-2.1,5.2-13.1,5.7-14.7C488.3,150.2,491.5,143.4,486.9,141.8z"/>
		</g>
		<g class="st11">
			<path d="M482.2,145c-1.1,4.1-4.2,15.3-5.1,18.4c-0.1,0.5-0.2,1-0.1,1.5c0,0,1.6,17.6,1.6,17.6c0,0-1.6,0.6-1.4,2.4l0.2,4
				c0.7-1.5,2.1-5.2,3.4-6.2c0,0,0,0,0,0c-0.5-0.3-0.8-0.8-1-1.4c-0.1-0.2-0.1-0.4-0.1-0.6c-0.8-4.2-1.5-16.9-0.8-19
				c0.8-2.4,4.4-21.2,8.8-19.5c-0.2-0.2-0.5-0.3-0.8-0.4C486.9,141.8,483.5,140.2,482.2,145z"/>
		</g>
		<g>
			<path class="st18" d="M481.6,179.2l-4.8,1.1c-0.3,0.1-0.5,0.4-0.4,0.7c0.1,0.3,0.3,0.5,0.6,0.5c0,0,0,0,0.1,0l4.8-1.1
				c0.3-0.1,0.5-0.4,0.4-0.7C482.2,179.3,481.9,179.1,481.6,179.2z"/>
		</g>
	</g>
	<g>
		<g>
			<path class="st49" d="M414.5,221.1c0,0-5.4,0.3-7.1,3.5c-1.7,3.2-1.5,5.1-0.6,6.6c0.9,1.5,1.3,3.2,1,4.6c-0.4,1.4-2,2.8-2,2.8
				s-0.7,0.6-0.7,2c0,1.4,0.3,5.3,0.3,5.3s1.3,2.2,2,2.2h2.8c0,0-0.1-1.6-1.3-1.8l-1.1-0.7l0.1-4.6c0,0,5.2-2.2,7.1-5.7
				c1.8-3.5,2.5-3.3,2.5-3.3s2.9,0.4,4.3,1.1c1.3,0.8,6.7,1.9,9.6,2.2c2.9,0.3,7.6-5.5,7.6-6.1c0-0.6,0.7-4.7,0.7-4.7l-8.4-3.5
				H414.5z"/>
			<path class="st49" d="M409.9,231.4c1.1,1.4,1.7,3.1,1.5,4.5c-0.2,1.4-1.5,3-1.5,3s-0.6,0.6-0.5,2c0.2,1.4,0.9,5.2,0.9,5.2
				s1.6,2.1,2.3,2h2.8c0,0-0.3-1.9-1.5-2l-1.2-0.6l-0.4-4.6c0,0,4.8-2.8,6.2-6.5c1-2.6,1.6-3.7,1.8-4.2c-3.8-0.1-7.7-0.5-11.4-1.7
				C409,229.8,409.3,230.7,409.9,231.4z"/>
			<path class="st49" d="M440.1,212.9c0,0,0,0-0.4-1c-0.4-1-2.7-1.7-4.9-1.3c-3.2,0.6-3.2,3.2-3.2,3.2l-0.5,5.5
				c0,1.8-1.9,1.9-1.9,1.9l10.3,3.5l-0.3-4.8c0,0,0.1-2.9,2.9-3c2.8-0.1,2.4-3.6,2.4-3.6L440.1,212.9z"/>
			<path class="st49" d="M432.5,207.9c-0.4,0.3-0.4,5.8-0.4,5.8s4-1.8,3.9-2.2C435.9,211.4,432.9,207.6,432.5,207.9z"/>
			<path class="st49" d="M435,207.6c-0.5,0.2-0.7,4.7-0.7,4.7s3.4-0.8,3.5-1C437.9,211.1,435.5,207.4,435,207.6z"/>
			<path class="st49" d="M402.6,226.6c-1.9-0.3-2.5-1.9-2.5-3c0-0.3-0.4-0.4-0.6-0.2c-0.3,0.5-0.6,1.1-0.5,1.8
				c0.3,1.5,2.2,3.4,4.4,3.1c3.2-0.4,4.6-2.2,4.6-2.2l-0.3-2.2C407.8,224,405.1,227.1,402.6,226.6z"/>
			<path class="st11" d="M399.5,223.6c-0.3,0.5-0.5,1.1-0.4,1.7c0.3,1.5,2.2,3.4,4.4,3.1c1-0.1,1.8-0.4,2.5-0.7
				c-2,0.1-3.8-0.5-5.4-1.9C399.9,225.3,399.6,224.4,399.5,223.6z"/>
			<path class="st49" d="M436.1,230.8l-3.2,2.8l6.3,6.2l0.3,2.4c0.9,1.8,3,1,3,1l-0.9-4.5L436.1,230.8z"/>
		</g>
		<path class="st11" d="M407.4,224.6c-1.7,3.2-1.5,5.1-0.6,6.6c0.9,1.5,1.3,3.2,1,4.6c-0.4,1.4-2,2.8-2,2.8s-0.7,0.6-0.7,2
			c0,1.4,0.3,5.3,0.3,5.3s0.8,1.3,1.5,1.9c-0.4-1-0.7-2.2-0.7-3.5c-0.1-1.9,0.3-3.9,1.2-5.6c0.5-0.9,1.1-1.6,1.7-2.2
			c0-0.4,0.1-0.8,0.1-1.2c-0.2-0.8-0.3-1.7-0.3-2.7c0.3-5,2.3-9.1,6.1-11.5h-0.5C414.5,221.1,409.1,221.4,407.4,224.6z"/>
		<path class="st50" d="M439.2,219.6l-7.9-1.3c-0.4-0.1-0.8,0.2-0.8,0.6l-0.1,0.4c-0.1,0.4,0.2,0.8,0.6,0.8l7.9,1.3
			c0.4,0.1,0.8-0.2,0.8-0.6l0.1-0.4C439.9,220,439.6,219.7,439.2,219.6z"/>
		<g>
			<path class="st51" d="M438.8,220.8c-0.7,0-1.2,0.5-1.2,1.2c0,0.7,0.5,1.2,1.2,1.2c0.7,0,1.2-0.5,1.2-1.2
				C440,221.4,439.4,220.8,438.8,220.8z"/>
			<rect x="438.6" y="220.2" class="st51" width="0.4" height="1.2"/>
		</g>
		<path class="st11" d="M422.5,231.7c-1-0.1-2-0.2-3.1-0.2c-0.3,0-0.5,0-0.6,0c-0.1,0-0.2,0.1-0.5,0.2c-0.3,0.1-0.6,0.2-0.8,0.2
			c0,0,0,0.1,0,0.1c0.4,0,3,0.4,4.2,1.1c1.3,0.8,6.7,1.9,9.6,2.2c0.6,0.1,1.3-0.1,2-0.5c-3-0.2-5.9-1.3-8.6-3
			C424,231.8,423.2,231.7,422.5,231.7z"/>
		<path class="st49" d="M435.2,246.6c-0.3-0.2-1-0.8-1.7-1.3l0.4-13.5l-4.3-0.3l1.7,14.6l2,2h2.9C436,248.2,436.3,247.2,435.2,246.6
			z"/>
	</g>
	<path class="st18" d="M476.5,188.3c0.3,1.1-0.4,4.2-0.4,4.2l0.9,0.4c0.8-1.9,0.4-4.2,0.4-4.2L476.5,188.3z"/>
	<g>
		<path class="st18" d="M439.7,220.2l-0.1,0.7c0.8,0.1,1.7,0.1,2.5,0.1c23.6,0,34.7-28.2,34.8-28.5l-0.7-0.3
			C476.1,192.6,464.5,222.3,439.7,220.2z"/>
	</g>
</g>
<g>
	<path class="st29" d="M245.1,204.7l-11.8-18.3l-7.9,9.8l12.5,13.4c0,0-0.2,6.7,1.2,11c1.4,4.3,4.1,16,4.6,15.8
		c0.5-0.2,4.5-2.6,4.5-2.6l-2.5-27.4C245.7,205.8,245.5,205.2,245.1,204.7z"/>
	<path class="st29" d="M208.4,209.1c0,0-5.7-1.2-6.9-1.2c-1.2,0-17.5,1.5-17.5,1.5l-0.5,5.8l26.8,1.9c1.4,0.1,2.7-0.6,3.5-1.7
		c0.6-0.9,1.4-2.2,2.1-3.6c1.7-3.3,6.9-14.4,6.9-14.4l-10.8-5.8L208.4,209.1z"/>
	<path class="st52" d="M214.6,176.5c0,0-3.1,3.9-3.6,9.3c-0.5,5.3-0.9,9.6-0.9,9.6l12,3.9l9.3-21.1
		C231.4,178.2,219.9,180.6,214.6,176.5z"/>
	<path class="st52" d="M223.4,196l2.1,1.4l10.9-7.9c0,0-2.1-5.4-4.9-11.3L223.4,196z"/>
	<path class="st53" d="M226.6,188.9l-3.2,7.2l2.1,1.4l2.6-1.9c0-0.1,0-0.1,0-0.2C227.5,193.2,226.9,191,226.6,188.9z"/>
	<path class="st29" d="M240.3,127.2c0,0-0.3-1.8-0.6-3.3c-0.3-1.5-2.5-3.5-2.5-3.5l-9.5,1.7l-0.5,11.1l-1.5,4.3l6.8,5.2l2-2.7
		l0.8-1.7l3.3-1l0.2-1.7l0.9-1.8l0.3-1.8l1.3-0.3l0.4-0.6l-1.7-3.1L240.3,127.2z"/>
	<path class="st32" d="M228.9,118.5c-2.8,0.3-6.8,2.9-4.5,10.4c0.4,1.4,2.7,4.3,2.7,4.3s0.7,0.6,1.4,1.1c0.7,0.5,1.1-3.1,1.2-4.1
		c0.1-0.9,0.9-2.8,0.9-2.8s0.9-1,2.3,0.7c1.4,1.7,1.5,2.5,1.5,2.5l1.2,0.1c0,0,0-2.7,0.3-3.8c0.3-1.1,0.9-1.7,0.9-1.7
		s-1.3-2.8-1.1-3.6c0.2-0.8,3,0.1,3,0.1l1.1-2.5C240,119.2,234.5,118,228.9,118.5z"/>
	<polygon class="st18" points="242.6,234.1 244.4,242.3 251.4,238.9 248.4,232 	"/>
	<polygon class="st18" points="175.1,212.1 177.6,216.2 180.3,215.2 183.6,215.2 184.1,209.4 180.8,209.5 	"/>
	<g>
		<path class="st54" d="M261.2,236.8c-1.2,0.5-3.4,1.2-3.4,1.2l-5.8-1.2l-0.9-0.1c0,0-1,2.2-2.6,2.6c-1.6,0.4-4.5-0.3-5.1,0.3
			l0.2,2.2c0,0,0.3,2.4,1,3.8l0.3,2c0,0,5.4-0.4,7.1-1.8c1.7-1.4,3.3-1.7,4-2c0.8-0.3,5-1.9,6.4-3.5c1.5-1.6,1.9-2.6,1.9-2.6
			S262.4,236.3,261.2,236.8z"/>
		<path class="st52" d="M251.6,236.8c-1.1,2-2.3,3.9-3.4,5.9c-0.9,1.5-1.8,3.1-2.3,4.9c1-0.1,2.7-0.4,4.1-0.8
			c0.8-1.6,1.6-3.2,2.5-4.8c0.9-1.6,1.8-3.1,2.9-4.5l-3.4-0.7L251.6,236.8z"/>
		<path class="st55" d="M251,236.7c0,0-0.3,0.6-0.8,1.3c1.5,0.3,3.1,0.7,4.6,0.7c1.1,0,2.1-0.2,2.8-0.8l-5.6-1.1L251,236.7z"/>
		<path class="st55" d="M244.5,245.7C244.5,245.7,244.5,245.7,244.5,245.7l0.3,1.9c0,0,5.4-0.4,7.1-1.8c1.7-1.4,3.3-1.7,4-2
			c0.8-0.3,5-1.9,6.4-3.5c1.5-1.6,1.9-2.6,1.9-2.6s-0.2-0.1-0.4-0.3C258.7,242.6,251.3,244.7,244.5,245.7z"/>
	</g>
	<path class="st29" d="M223,143.3c-3.7,3.7-14,14.7-13.9,15.8c0.1,1.1,1.3,3.1,5.5,7.1c4.2,4,5.5,5.1,5.5,5.1s0.7,1.9,2,3.2
		c1.2,1.3,1.9,1.9,2.6,1.9c0.3,0,3.7-2.5,3.7-2.5s0.3-2.8-0.2-3.2c-0.4-0.3-1.1-0.8-1.1-0.8l-1.9-1.5l-2,0c0,0-4.9-7.6-5.5-8.5
		c-0.6-0.8,7.9-7.4,9.8-8.9c1.9-1.6,5.7-5.1,2-8.7C229.5,142.3,226.7,139.6,223,143.3z"/>
	<path class="st18" d="M225.6,137.4c-2.9,1.1-8,5.5-9.2,10.9c-0.5,2.6,0.1,23.1,0.1,24.1s-1.9,4-1.9,4c4.8,5.9,16.8,1.7,16.8,1.7
		l0.3-5.5c0,0,4.4-16.1,4.8-18.2c0.4-2.1-0.1-6.5-1.9-9.6C232.7,141.8,227.2,136.8,225.6,137.4z"/>
	<path class="st29" d="M243.9,164.7c-0.5,0-1.3,0-1.3,0l-2.4-0.2l-1.6,1.1c0,0-8.3-3.4-9.3-3.8c-0.9-0.3,2.2-10.6,2.9-13
		c0.7-2.4,1.7-7.5-3.3-8.2c0,0-3.9-0.6-4.8,4.5c-0.9,5.1-3,20.1-2.3,20.9c0.7,0.9,2.8,1.8,8.6,2.7c5.7,0.8,7.5,1,7.5,1
		s1.7,1.2,3.4,1.5c1.7,0.3,2.6,0.5,3.2,0.1c0.3-0.2,1.6-4.2,1.6-4.2S244.6,164.7,243.9,164.7z"/>
	<g>
		<path class="st54" d="M181.7,208.4l-1.8-1.3c0,0-2.1-1.3-3.5-1.7l-1.7-1c0,0-3.2,4.4-3.2,6.6c-0.1,2.2-0.8,3.6-1.1,4.3
			c-0.3,0.8-1.8,5-1.5,7.2c0.3,2.2,0.7,3.1,0.7,3.1s2.4-0.4,2.8-1.7c0.4-1.2,1.3-3.4,1.3-3.4l4.6-3.7l0.7-0.7c0,0-1-2.2-0.3-3.7
			C179.3,211,181.8,209.3,181.7,208.4z"/>
		<path class="st52" d="M174,205.3c-0.6,0.9-1.5,2.3-2,3.6c0.7,1.6,1.4,3.3,2.1,5c0.6,1.7,1.2,3.4,1.6,5.1l2.7-2.1l0.2-0.2
			c-0.8-2.1-1.5-4.3-2.3-6.4C175.6,208.5,175,206.8,174,205.3z"/>
		<path class="st55" d="M174.9,217.8c-0.8,0.9-1.1,1.7-1.2,2.6l4.5-3.6l0.7-0.7c0,0-0.3-0.6-0.5-1.5
			C177.2,215.7,175.9,216.6,174.9,217.8z"/>
		<path class="st55" d="M171.4,211c-0.1,2.2-0.8,3.6-1.1,4.3c-0.3,0.8-1.8,5-1.5,7.2c0.3,2.2,0.7,3.1,0.7,3.1s0.2,0,0.5-0.1
			c-0.6-7.2,2.7-14.2,6.2-20.1c0,0,0,0,0,0l-1.7-1C174.6,204.4,171.4,208.8,171.4,211z"/>
	</g>
	<polygon class="st53" points="235.8,169.8 237.3,170.3 238.7,165.2 237.1,164.7 	"/>
	<g>
		<path class="st18" d="M237.8,166.5l-0.6-0.1c-0.4-0.1-0.8,0.1-0.9,0.5l-0.2,0.9c-0.1,0.4,0.1,0.8,0.5,0.9l0.6,0.1
			c0.4,0.1,0.8-0.1,0.9-0.5l0.2-0.9C238.5,167,238.2,166.5,237.8,166.5z"/>
		<path class="st56" d="M237.9,166.3l-0.6-0.1c-0.1,0-0.1,0-0.2,0c-0.4,0-0.8,0.3-0.8,0.7l-0.2,0.9c-0.1,0.2,0,0.5,0.1,0.7
			c0.1,0.2,0.3,0.3,0.5,0.4l0.6,0.1c0.1,0,0.1,0,0.2,0c0.4,0,0.8-0.3,0.8-0.7l0.2-0.9c0.1-0.2,0-0.5-0.1-0.7
			C238.3,166.5,238.1,166.4,237.9,166.3z M238.2,167.3l-0.2,0.9c-0.1,0.3-0.4,0.5-0.7,0.5l-0.6-0.1c-0.2,0-0.3-0.1-0.4-0.3
			c-0.1-0.1-0.1-0.3-0.1-0.5l0.2-0.9c0.1-0.3,0.3-0.5,0.6-0.5c0,0,0.1,0,0.1,0l0.6,0.1c0.2,0,0.3,0.1,0.4,0.3
			C238.3,167,238.3,167.2,238.2,167.3z"/>
	</g>
</g>
<g>
	<path class="st57" d="M675.1,119.7c-0.7,0-1.5,0.2-1.6,0.4c-0.1,0.2-0.1,0.2-0.1,0.2l0.3,0.6c0,0,1.2,0.8,2.7,0.7
		c1.5-0.1,2.1-0.4,2.8-0.3c0.7,0,2.8,0.4,2.9-0.3c0.1-0.5,0.2-1.9,0.2-1.9l-4.7-0.7C677.7,118.5,675.8,119.8,675.1,119.7z"/>
	<path class="st58" d="M675,121.6c0.4,0.1,0.8,0.2,1.3,0.1c1.5-0.1,2.1-0.4,2.8-0.3c0.7,0,2.8,0.4,2.9-0.3c0.1-0.5,0.2-1.9,0.2-1.9
		l-3.1-0.5C678.6,120.5,676.9,121.3,675,121.6z"/>
	<path class="st59" d="M685.6,112c0,0-3.9,3.8-4.7,4.4c-0.8,0.6-4.7,2.7-5,3.1c0,0,0.9,0.9,3.2,0.4c1.3-0.3,2.3-0.7,3.2-0.7
		c0,0,0-0.8,0.4-1.2c0.3-0.4,5.6-3.6,5.6-3.6S687.9,111.5,685.6,112z"/>
	<path class="st58" d="M687.1,112.3c0,0.2,0,0.4-0.1,0.7c-0.6,1-1.5,1.7-2.5,2.3c-1.7,1.1-2.7,1.8-4,3.3c-0.6,0.6-1.2,1.1-1.9,1.5
		c0.2,0,0.4,0,0.6-0.1c1.3-0.3,2.3-0.7,3.2-0.7c0,0,0-0.8,0.4-1.2c0.3-0.4,5.6-3.6,5.6-3.6S688.1,112.9,687.1,112.3z"/>
	<path class="st43" d="M707.7,94.8c0,0,1.5,1.5,2.9,1.3l0.4-1.4l-2.2-1.2C708.8,93.5,708.6,94.8,707.7,94.8z"/>
	<path class="st11" d="M707.7,94.8c0,0,1.5,1.5,2.9,1.3l0.4-1.4l-2.2-1.2C708.8,93.5,708.6,94.8,707.7,94.8z"/>
	<polygon class="st59" points="702.7,108.6 705.9,104.4 706.8,96.7 700.8,106.1 	"/>
	<path class="st58" d="M702,107.7l0.6,0.8l3.3-4.2l0.9-7.7l-0.9,1.4C705.6,101.5,704.8,105.8,702,107.7z"/>
	<path class="st60" d="M700.2,100.2l-10.2-1c-0.2,0-0.3,0.1-0.2,0.3l2.7,8.2l10.9,1.2l-2.6-8.2C700.7,100.4,700.4,100.2,700.2,100.2
		z"/>
	<path class="st61" d="M700.2,100.2l-10.2-1c-0.2,0-0.3,0.1-0.2,0.3l2.1,6.5c2.5-0.1,5.2-0.1,7.6-1.1c0.8-0.3,1.5-0.8,2.2-1.3
		l-0.9-2.9C700.7,100.4,700.4,100.2,700.2,100.2z"/>
	<path class="st34" d="M694.2,107.2c0,0-1.7-0.9-2.5-0.8c-0.8,0-5.2,4.3-5.2,4.3l2.8,3l3.3-1.9c0,0,7.1,5.4,8.7,5.9
		c1.6,0.6,4.1,0.5,4.1,0.5l-5.2-6.2L694.2,107.2z"/>
	<path class="st18" d="M678.9,121c-0.7,0-1.5,0.2-1.6,0.4c-0.1,0.2-0.1,0.2-0.1,0.2l0.3,0.6c0,0,1.2,0.8,2.7,0.7
		c1.5-0.1,2.1-0.4,2.8-0.3c0.7,0,2.8,0.4,2.9-0.3c0.1-0.5,0.2-1.9,0.2-1.9l-4.7-0.7C681.5,119.8,679.6,121,678.9,121z"/>
	<path class="st58" d="M678.5,122.7c0.5,0.2,1.1,0.3,1.8,0.3c1.5-0.1,2.1-0.4,2.8-0.3c0.7,0,2.8,0.4,2.9-0.3
		c0.1-0.5,0.2-1.9,0.2-1.9l-2.7-0.4C681.8,121.2,680.4,122.4,678.5,122.7z"/>
	<path class="st62" d="M710.3,94.7c0,0,0.2,0.7,0.1,0.7c-0.2,0-0.9,0.2-0.9,0.2l-1.9,5.6c0,0,2.9,0.4,3.1,0c0.1-0.4,4.9-5.7,4.9-5.7
		l-2-2.3L710.3,94.7z"/>
	<path class="st18" d="M717.7,96.5c-1.2-0.9-3.1-2.1-3.1-2.1l-5.3,5.8l0.1-4.6l-2,0.4c0,0-1,0.5-1.2,2c-0.2,1.3-1.1,5.9-1.1,5.9
		l0.1,6.2c0,0,3.9,0.5,5.3,1.4c1.4,1,2.5,3.9,2.4,4.9c0,0,1.3-2,1.5-2.8c0.4-1.4,4.7-8.5,4.8-12.7C719.1,97.2,718.6,97.2,717.7,96.5
		z"/>
	<path class="st57" d="M717.7,96.5c0,0-0.1-0.1-0.1-0.1c0,0.2-0.1,0.5-0.3,0.7c-2.6,4.7-4.8,10.9-9.8,13.5c1.1,0.2,2.2,0.6,2.9,1
		c1.4,1,2.5,3.9,2.4,4.9c0,0,1.3-2,1.5-2.8c0.4-1.4,4.7-8.5,4.8-12.7C719.1,97.2,718.6,97.2,717.7,96.5z"/>
	<path class="st60" d="M709.7,110.1l-8.8-1.7c-0.3,0-0.5,0.1-0.5,0.4c0,0.3,0.1,0.5,0.4,0.5l8.8,1.7c0.3,0,0.5-0.1,0.5-0.4
		C710.1,110.4,709.9,110.1,709.7,110.1z"/>
	<path class="st63" d="M711.1,111.6c-1.1-0.7-5.1-1.5-5.1-1.5s-8.2-3.2-8.9-3.4c-0.8-0.2-2.6-0.6-2.9-0.1c-0.3,0.5-3.7,5.2-3.9,5.5
		c-0.2,0.3,3.2,3,3.2,3s2.8-2.1,3.1-2.6c0,0,3.5,3.2,4.1,3.6c0.6,0.5,3.1,2.4,5.2,2.5c2.1,0.2,4.1,0.4,5.8-0.8
		c1.7-1.2,1.5-1.9,1.6-2.7C713.1,113.9,712.2,112.4,711.1,111.6z"/>
	<path class="st58" d="M706.3,115.9c-2.8-0.5-5.4-2.1-8-3.2c-0.1,0-1.3-0.6-2.2-1c-0.7,0.9-1.7,1.6-2.7,2.3
		c-0.3,0.2-0.6,0.3-0.9,0.4c0.5,0.4,0.9,0.7,0.9,0.7s2.8-2.1,3.1-2.6c0,0,3.5,3.2,4.1,3.6c0.6,0.5,3.1,2.4,5.2,2.5
		c2.1,0.2,4.1,0.4,5.8-0.8c1.7-1.2,1.5-1.9,1.6-2.7c0-0.1,0-0.2,0-0.3C711.2,116.2,708.2,116.2,706.3,115.9z"/>
	<path class="st40" d="M690.7,111.3l-1.4,1.9c1.9,0,3.1,2.8,3.1,2.8l1.8-1.4C693.5,111.7,690.7,111.3,690.7,111.3z"/>
	<path class="st58" d="M691.4,114.6c0.6,0.7,0.9,1.4,0.9,1.4l1.8-1.4c-0.2-1.1-0.7-1.8-1.3-2.4C692.5,113.2,692.1,113.9,691.4,114.6
		z"/>
	<path class="st40" d="M686.8,110.1l-1.6,1.9c1.9,0,3.1,2.8,3.1,2.8l1.8-1.4C689.4,110.4,686.8,110.1,686.8,110.1z"/>
	<path class="st59" d="M689.5,113.3c0,0-3.9,3.8-4.7,4.4c-0.8,0.6-4.7,2.8-5,3.2c0,0-0.4,0.9,3.4,0.3c2.2-0.4,2.9-0.2,2.9-0.2
		s0.1-1.2,0.5-1.6c0.3-0.4,5.5-3.6,5.5-3.6S691.7,112.8,689.5,113.3z"/>
	<path class="st58" d="M689,117.1c-2.4,1.5-5,2.7-7.4,4.2c0.4,0,0.9-0.1,1.6-0.2c2.2-0.4,2.9-0.2,2.9-0.2s0.1-1.2,0.5-1.6
		c0.3-0.4,5.5-3.6,5.5-3.6s-0.1-0.6-0.4-1.2C691.1,115.6,690.2,116.4,689,117.1z"/>
	<path class="st59" d="M709.9,87.2c-1.3,0.2-2.5,1.2-2.5,1.2s-0.6,0.3-0.2,1.3c0.4,1,0.7,1.9,0.7,1.9s-0.3,0.4,0.1,1.2
		c0.3,0.6,1.1,1.5,1.5,2c0.2,0.2,0.4,0.3,0.6,0.3c0.2,0,0.4,0,0.6-0.1l2.7-1.8C713.4,93.2,711.2,87,709.9,87.2z"/>
	<path class="st59" d="M716.1,97.2c-1.2,0.5-1.5,3.1-1.5,3.6c0,0.5,0.2,7.8,0.2,7.8l-7-0.6l-3-1l-1.6,0.9l3.3,1.5l1.8,0.3
		c0,0,4.9,1.8,6.2,2.1c1.2,0.4,3.2,0.6,3.8,0.1c0.3-0.3,0.9-12.6,0.4-13.8C718.1,97,717.3,96.6,716.1,97.2z"/>
	<path class="st58" d="M718.5,98c-0.1,4.3-0.5,7-1.1,8.9c-0.9,3.2-3.6,4.5-6.6,3.5c-0.3,0-0.7-0.1-1-0.1c1.5,0.5,3.7,1.3,4.5,1.5
		c1.2,0.4,3.2,0.6,3.8,0.1c0.3-0.3,0.9-12.6,0.4-13.8C718.5,98.2,718.5,98.1,718.5,98z"/>
	<polygon class="st59" points="703.1,107.9 703.4,108.8 706.7,109.5 706.5,108 	"/>
	<path class="st43" d="M707.9,86.2c-1.1,0.7-1.5,1.7-1.5,2.8c-0.1,1,1.4,2.6,1.4,2.6s-0.1-0.2-0.3-1c-0.2-0.7,0.6-2.6,0.6-2.6
		L709,86C709,86,709,85.6,707.9,86.2z"/>
	<path class="st43" d="M712.2,85.4c-1.4-0.4-2.3-0.6-3.3,0.6c-1,1.2-0.8,2.1-0.8,2.1s1,1.4,3.2,2.3c1.8,0.7,1.5,3.1,1.3,4.1
		c-0.2,1.1-0.6,1.2-0.6,1.2s2.1,0.2,2.7,0c0.9-0.3,1.5-0.3,2-1.1c0.7-1,1.3-3.2,0.2-4.6C715.7,88.5,713.8,85.8,712.2,85.4z"/>
	<path class="st11" d="M714.1,86.7c0.7,0.8,1.2,1.8,1.5,3c0.4,2.3-0.7,4.6-2.4,6c0.6,0,1.3,0,1.5-0.1c0.9-0.3,1.5-0.3,2-1.1
		c0.7-1,1.3-3.2,0.2-4.6C716.2,89.1,715.2,87.7,714.1,86.7z"/>
</g>
<g>
	<g>
		<rect x="286" y="130.4" class="st18" width="3" height="58.3"/>
		<rect x="361.1" y="130.4" class="st18" width="3" height="58.3"/>
		<g>
			<rect x="281.1" y="128.3" class="st19" width="88.8" height="6.4"/>
			<rect x="281.1" y="136.7" class="st19" width="88.8" height="6.4"/>
			<rect x="281.1" y="145" class="st19" width="88.8" height="6.4"/>
			<rect x="281.1" y="157.7" class="st19" width="88.8" height="3.7"/>
		</g>
	</g>
	<g>
		<g>
			<g>
				<path class="st33" d="M348.3,121.9L348.3,121.9c-0.2-0.6-1-2.3-3.3-2.9l-8.9-3.3c0,0,0,0,0-0.1c0,0,0,0,0,0l-0.1,0l-0.1,0
					l-0.1,0l-0.1,0c0,0,0,0,0,0c0,0,0,0,0,0.1l-8.9,3.3c-2.3,0.6-3.1,2.3-3.3,2.9l4.1,8.3l-0.6,17.8h18.3l-0.7-8l0.2-8L348.3,121.9z
					"/>
				<path class="st64" d="M327.5,130.2l-0.6,17.8h3.4c-0.8-3.1-2-16.2-2.3-17.3L327.5,130.2z"/>
				<path class="st43" d="M326.9,149.3c0,0,0.1,0,0.1,0C327,149.3,327,149.3,326.9,149.3z"/>
				<path class="st29" d="M331.5,110c0,2.6,2.7,5.6,5.3,5.6c2.6,0,4.7-2.1,4.7-4.7v-5.7h-10L331.5,110z"/>
				<path class="st29" d="M333.4,118.1c0,1.2,0.8,2.2,1.8,2.5c2.3,0.3,2.6-0.4,3-0.7c0.5-0.5,0.8-1.1,0.8-1.9v-6.4h-5.6V118.1z"/>
				<path class="st43" d="M331,105.2v3.7c0,0,0.2,4,2.4,5.2L333,111c0,0-1.3,0.2-1.3-2.4c0-0.9,0.4-1,0.7-1c0.4,0,0.7,0.6,0.7,0.6
					h0.7v-1.4l0,0l0,0c0,0,0-1.5,1.5-1.5h6.1c0,0,1.2-0.1,1.2-3.7h-7.2C335.5,101.6,331,101,331,105.2z"/>
				<path class="st43" d="M334.9,114.7c2,2,4.1,0.8,4.1,0.8V115C337.2,116.1,334.9,114.7,334.9,114.7z"/>
				<path class="st11" d="M339.3,110.3h-1.2c0.8,1.2,1.6,0.1,1.6,0.1l-0.5-3.4L339.3,110.3z"/>
			</g>
			<path class="st44" d="M326.9,153.7c0,2.6,2.1,4.6,4.6,4.6h10.5c2.6,0,4.6-2.1,4.6-4.6V148h-19.8V153.7z"/>
			<path class="st64" d="M344.4,153.7c-2.1,0-4.2,0.2-6.4,0.1c-4.1,0-8-1-10.4-4.5c-0.2,0-0.4,0-0.5-0.1c-0.1,0-0.1,0-0.2,0v4.7
				c0,2.4,1.9,4.3,4.3,4.3h11.1c2.4,0,4.3-1.9,4.3-4.3v-0.3C346,153.8,345.2,153.8,344.4,153.7z"/>
			<path class="st45" d="M352.1,186.5l-4.2-1.8h-4.1c0,0-0.9,1.8-0.6,3.8h11.3C354.5,188.6,354.4,186.8,352.1,186.5z"/>
			<path class="st45" d="M339.3,186.5l-2.8-1.8h-3.8c0,0-0.9,1.8-0.6,3.8h9.7C341.8,188.6,341.7,186.8,339.3,186.5z"/>
			<polygon class="st29" points="348.3,121.9 343.9,129.7 345.7,142.8 348.8,153.8 352.3,153.8 350.3,141.1 			"/>
			<path class="st33" d="M343.8,129.5l0.5,3.4c0.1,0,0.2-0.1,0.3-0.1c1.5-0.4,4.2-0.6,5.7-0.9l-2.1-10L343.8,129.5z"/>
			<path class="st64" d="M346.5,142.6c0,0-0.7-4-1.7-7l1,7.2l3.1,11h2.6c0,0-0.1-0.1-0.1-0.1C349.7,150.8,346.5,142.6,346.5,142.6z"
				/>
			<path class="st33" d="M321.7,132.1c0,0,4,0.8,5.6,1.1l0.6-2.7l-4.5-8.6L321.7,132.1z"/>
			<path class="st29" d="M320.9,140.3l5,0.1l1.2-7.2c-1.7-0.3-3.4-0.5-5-0.9L320.9,140.3z"/>
			<path class="st29" d="M352.3,153.8h-2.7l-0.5,4.6c0,0,3,0,4,0c1,0,0.9-1.1,0.9-1.8C353.9,155.8,352.3,153.8,352.3,153.8z"/>
			<path class="st44" d="M346.7,148c-2,0-3.6,1.7-3.6,3.7v33h5.1l2.1-33C350.3,149.7,348.7,148,346.7,148z"/>
			<path class="st64" d="M343.7,149.7c-0.3,0.6-0.6,1.2-0.6,2v33h2.7c-0.4-9.3-1.3-18.6-1.8-27.9
				C343.6,154.5,343.3,152.2,343.7,149.7z"/>
			<path class="st44" d="M335.6,148c-2,0-3.6,1.7-3.6,3.7v33h5l2.1-33C339.2,149.7,337.6,148,335.6,148z"/>
			<path class="st64" d="M333.8,148.6c-1,0.7-1.7,1.8-1.7,3.1v33h3c-0.7-7.6-0.8-15.1-1.5-22.7C333.3,158.2,331,151.5,333.8,148.6z"
				/>
		</g>
		<path class="st29" d="M320.9,141c0,1.3,0.8,1.9,2.3,2.3l8.6,3.9c0.4-2,0.7-3.5,0.7-3.5l-11.1-7.1L320.9,141z"/>
		<path class="st43" d="M338.9,112.9c-2.6,0-4.7,0.1-5-5.4h-0.8L333,111c0,0,0.6,5.6,5.3,5.7c4.3,0.1,3.1-6.3,3.1-6.3
			S341.9,112.9,338.9,112.9z"/>
		<path class="st43" d="M339,111.4h-1.2c-0.9,0-1.7,0.8-1.7,1.7v0.5c0,1,0.8,1.7,1.7,1.7h1.2c0.9,0,1.7-0.8,1.7-1.7v-0.5
			C340.7,112.2,339.9,111.4,339,111.4z"/>
		<path class="st65" d="M338.7,113.8c0.7,0,1.2,0,1.2-0.8h-2.4C337.5,113.8,338.1,113.8,338.7,113.8z"/>
	</g>
	<g>
		<polygon class="st46" points="330.4,149.3 350.9,149.3 353.9,135.7 333.4,135.7 		"/>
		<rect x="326.7" y="148" class="st46" width="7.2" height="1.2"/>
	</g>
</g>
<g>
</g>
<g>
</g>
<g>
</g>
<g>
</g>
<g>
</g>
<g>
</g>
<g>
</g>
<g>
</g>
<g>
</g>
<g>
</g>
<g>
</g>
<g>
</g>
<g>
</g>
<g>
</g>
<g>
</g>
</svg>
