<?xml version="1.0" encoding="utf-8"?>
<!-- Generator: Adobe Illustrator 24.1.2, SVG Export Plug-In . SVG Version: 6.00 Build 0)  -->
<svg version="1.1" xmlns="http://www.w3.org/2000/svg" xmlns:xlink="http://www.w3.org/1999/xlink" x="0px" y="0px"
	 viewBox="0 0 254.2 81" style="enable-background:new 0 0 254.2 81;" xml:space="preserve">
<style type="text/css">
	.st0{fill:#FFFFFF;}
	.st1{fill:#FFFFFF;stroke:#000000;stroke-width:0.66;stroke-miterlimit:10;}
</style>
<g id="Graphics">
</g>
<g id="Logo">
	<g>
		<g>
			<g id="Circle_Tri-Leaf_161_">
				<path class="st0" d="M43,63.3c-11.2,0-20.2-9.1-20.2-20.2c0-11.2,9-20.2,20.2-20.2c11.1,0,20.2,9.1,20.2,20.2
					C63.2,54.2,54.2,63.3,43,63.3z M43,21.5c-11.9,0-21.5,9.7-21.5,21.6c0,11.9,9.6,21.5,21.5,21.5c11.9,0,21.5-9.6,21.5-21.5
					C64.5,31.2,54.9,21.5,43,21.5z"/>
				<g>
					<path class="st0" d="M24.5,42.9c7.3,2.3,14.3,9.5,16.4,18.7C30.5,60.2,24.5,51.7,24.5,42.9z"/>
					<path class="st0" d="M61.5,42.9c-7.3,2.3-14.4,9.5-16.4,18.7C55.4,60.2,61.5,51.7,61.5,42.9z"/>
					<path class="st0" d="M43,61.6c-7.8-12.1-6.1-28.7,0-37.6C48.9,32.9,50.7,49.5,43,61.6z"/>
				</g>
			</g>
			<g>
				<path class="st0" d="M70.4,24h4.7v6.5h8.7V24h4.7v16.9h-4.7v-7.3h-8.7v7.3h-4.7V24z"/>
				<path class="st0" d="M92.3,24h16.1v3.1H97.1v3.6h10.4v2.9H97.1v4.1h11.6v3.1l-16.3,0V24z"/>
				<path class="st0" d="M111.5,24h11.6c3.9,0,6.3,2.1,6.3,4.7c0,2-1,3.5-3.4,4.2v0c2.3,0.5,3,2.2,3.1,4c0.1,1.1,0,3.1,0.9,4h-4.7
					c-0.5-1.1-0.5-2.7-0.8-4c-0.3-1.8-1.2-2.6-3.6-2.6h-4.7v6.6h-4.7V24z M116.2,31.7h5.2c2.1,0,3.3-0.7,3.3-2.4
					c0-1.6-1.1-2.3-3.3-2.3h-5.2V31.7z"/>
				<path class="st0" d="M132.9,24H143c4.1,0,6.9,1,6.9,4.2c0,1.7-1,2.8-2.9,3.5c2.7,0.6,3.9,2.2,3.9,4.3c0,3.4-3.7,4.9-7.6,4.9
					h-10.4V24z M142.4,30.9c1.7,0,2.9-0.6,2.9-2c0-1.6-1.6-1.9-3.3-1.9h-4.4v3.9H142.4z M142.7,38c1.8,0,3.5-0.5,3.5-2.2
					c0-1.7-1.4-2.4-3.4-2.4h-5.2V38H142.7z"/>
				<path class="st0" d="M159,24h4.9l8,16.9H167l-1.6-3.8h-8l-1.7,3.8h-4.8L159,24z M164.2,34.4l-2.7-6.2h-0.1l-2.8,6.2H164.2z"/>
				<path class="st0" d="M173.4,24h4.7v13.8l10.5,0v3.1h-15.2V24z"/>
				<path class="st0" d="M190.4,24h4.7v16.9h-4.7V24z"/>
				<path class="st0" d="M198.9,24H214v3.1h-10.4V31h9v2.9h-9v7h-4.7V24z"/>
				<path class="st0" d="M216.4,24h16.1v3.1h-11.4v3.6h10.4v2.9h-10.4v4.1h11.6v3.1h-16.3V24z"/>
			</g>
			<g>
				<path class="st0" d="M70.4,44.8h4.7l9,11.3h0.1V44.8h4.4v16.9h-4.7l-9-11.3h-0.1v11.3h-4.4V44.8z"/>
				<path class="st0" d="M110.7,55.3c0,4.6-3.4,6.8-9.2,6.8c-5.8,0-9.2-2.2-9.2-6.8V44.8h4.7v10.5c0,1.8,0.6,3.7,4.4,3.7
					c3.4,0,4.5-1.1,4.5-3.7V44.8h4.7V55.3z"/>
				<path class="st0" d="M119.4,47.9H113v-3.1h17.6v3.1h-6.4v13.8h-4.7V47.9z"/>
				<path class="st0" d="M133,44.8h11.6c3.9,0,6.3,2.1,6.3,4.7c0,2-1,3.5-3.4,4.2v0c2.3,0.5,3,2.2,3.1,3.9c0.1,1.1,0,3.1,0.9,4h-4.7
					c-0.5-1.1-0.5-2.7-0.8-4c-0.3-1.8-1.2-2.6-3.6-2.6h-4.7v6.6H133V44.8z M137.7,52.4h5.2c2.1,0,3.3-0.7,3.3-2.4
					c0-1.6-1.1-2.3-3.3-2.3h-5.2V52.4z"/>
				<path class="st0" d="M155.4,44.8h4.7v16.9h-4.7V44.8z"/>
				<path class="st0" d="M169.3,47.9h-6.5v-3.1h17.6v3.1H174v13.8h-4.7V47.9z"/>
				<path class="st0" d="M183.3,44.8h4.7v16.9h-4.7V44.8z"/>
				<path class="st0" d="M201.2,44.4c6.6,0,10.6,3.9,10.6,8.9c0,4.9-4,8.8-10.6,8.8c-6.6,0-10.6-3.9-10.6-8.8
					C190.6,48.3,194.6,44.4,201.2,44.4z M201.2,59c4.2,0,5.8-2.8,5.8-5.7c0-3-1.6-5.8-5.8-5.8c-4.3,0-5.8,2.8-5.8,5.8
					C195.4,56.1,196.9,59,201.2,59z"/>
				<path class="st0" d="M214.6,44.8h4.7l9,11.3h0.1V44.8h4.4v16.9H228l-9-11.3H219v11.3h-4.4V44.8z"/>
			</g>
		</g>
		<path class="st1" d="M17.3,74.7"/>
		<path class="st1" d="M237,74.7"/>
	</g>
</g>
</svg>
