<?xml version="1.0" encoding="utf-8"?>
<!-- Generator: Adobe Illustrator 27.0.0, SVG Export Plug-In . SVG Version: 6.00 Build 0)  -->
<svg version="1.1" id="_x3C_Layer_x3E_" xmlns="http://www.w3.org/2000/svg" xmlns:xlink="http://www.w3.org/1999/xlink" x="0px"
	 y="0px" viewBox="0 0 5300 2835.5" style="enable-background:new 0 0 5300 2835.5;" xml:space="preserve">
<style type="text/css">
	.st0{fill:#EDF1FC;}
	.st1{fill:#CCD0E0;}
	.st2{fill:#B9BCCC;}
	.st3{fill:#8DA8D5;}
	.st4{fill:#7F97BF;}
	.st5{fill:#C6CDE6;}
	.st6{fill:#D6DAEB;}
	.st7{fill:#D7DBED;}
	.st8{fill:#E2E6F7;}
	.st9{fill:#FFFFFF;}
	.st10{fill:#D5E5FD;}
	.st11{fill:#FDE2D6;}
	.st12{fill:#412233;}
	.st13{fill:#E0A884;}
	.st14{fill:#AAC4E8;}
	.st15{fill:#6E788E;}
	.st16{fill:#61C4F6;}
	.st17{opacity:0.62;fill:url(#SVGID_1_);enable-background:new    ;}
	.st18{fill:#5E3C4F;}
	.st19{fill:#996973;}
	.st20{fill:#E3D8DF;}
	.st21{fill:#D9E7F7;}
	.st22{fill:#BFB4BC;}
	.st23{fill:#DED1DA;}
	.st24{fill:#F09F67;}
	.st25{fill:#FFCAA6;}
	.st26{fill:#686882;}
	.st27{fill:#7A7A99;}
	.st28{opacity:0.46;fill:#835353;enable-background:new    ;}
	.st29{fill:#BC848F;}
	.st30{fill:#A2B7B5;}
	.st31{fill:#C3D4CF;}
	.st32{fill:#EE7E61;}
	.st33{fill:#F7BA91;}
	.st34{fill:#535573;}
	.st35{fill:#7894A3;}
	.st36{fill:#F3ECF1;}
	.st37{fill:#C9C3C7;}
	.st38{fill:#ACD3EA;}
	.st39{fill:#E9B3A4;}
	.st40{fill:#F7CBBE;}
	.st41{fill:#878187;}
	.st42{fill:#B7CAE0;}
	.st43{fill:#4D6980;}
	.st44{fill:#668AA8;}
	.st45{fill:#A8A1A8;}
	.st46{fill:none;}
	.st47{fill:#667F8C;}
	.st48{fill:#91A7B4;}
	.st49{fill:#B78480;}
	.st50{fill:#D6A6A2;}
	.st51{fill:#8895B0;}
	.st52{opacity:0.59;fill:#D5E5FD;enable-background:new    ;}
	.st53{opacity:0.3;}
	.st54{fill:url(#SVGID_00000180335211908659127190000002359619455541124738_);}
	.st55{fill:url(#SVGID_00000127737389777993975750000008728451726739514772_);}
	.st56{fill:url(#SVGID_00000075850889660340346360000012248291179535104672_);}
	.st57{fill:url(#SVGID_00000018943858583575131550000016502703873260014516_);}
	.st58{fill:url(#SVGID_00000032650410640223422880000016744077998757559194_);}
	.st59{fill:url(#SVGID_00000126318272189756925810000018018921341480310931_);}
	.st60{fill:url(#SVGID_00000145765101499742112280000013413613691527981976_);}
	.st61{fill:url(#SVGID_00000170968690770947413880000010911958161790083230_);}
	.st62{fill:#7C90B0;}
	.st63{fill:url(#SVGID_00000177483487019978532690000000357999536215677585_);}
	.st64{fill:url(#SVGID_00000157302121747989172100000005400230878390804135_);}
	.st65{fill:#FFC1A3;}
	.st66{fill:#A3A7C2;}
	.st67{fill:#9599B3;}
	.st68{fill:url(#SVGID_00000080201746047935298190000004815417588925559424_);}
	.st69{opacity:0.48;fill:#412233;enable-background:new    ;}
	.st70{opacity:0.29;fill:#412233;enable-background:new    ;}
	.st71{fill:#5B406C;}
	.st72{fill:#774884;}
	.st73{fill:#F7AF7E;}
	.st74{fill:#EE8C72;}
	.st75{opacity:0.39;fill:#7C90B0;enable-background:new    ;}
	.st76{opacity:0.49;fill:#412233;enable-background:new    ;}
	.st77{fill:#9292B8;}
	.st78{opacity:0.2;fill:#FFFFFF;enable-background:new    ;}
	.st79{fill:#8CBFDE;}
	.st80{fill:#C4141F;}
	.st81{fill:#88C5EA;}
	.st82{fill:#4F7148;}
</style>
<g>
	<rect x="-183.2" y="-16.6" class="st0" width="5777.6" height="2871"/>
	<rect x="-183.2" y="184.8" class="st1" width="5777.6" height="303.4"/>
	<rect x="-183.2" y="-16.6" class="st2" width="5777.6" height="201.5"/>
	<rect x="-183.2" y="488.2" class="st3" width="5777.6" height="84.1"/>
	<rect x="3784.3" y="1895.5" class="st4" width="1810.1" height="78.5"/>
	<rect x="142.2" y="785.4" class="st5" width="494" height="1188.6"/>
	<rect x="142.2" y="1895.4" class="st4" width="1810.1" height="78.5"/>
	<rect x="142.2" y="678.5" class="st6" width="1810.1" height="106.9"/>
	<g>
		<rect x="142.2" y="896.5" class="st0" width="299.7" height="648.7"/>
		<g>
			<rect x="142.2" y="905.9" class="st7" width="304.9" height="3.3"/>
			<rect x="142.2" y="918.5" class="st7" width="304.9" height="3.3"/>
			<rect x="142.2" y="931.1" class="st7" width="304.9" height="3.3"/>
			<rect x="142.2" y="943.7" class="st7" width="304.9" height="3.3"/>
			<rect x="142.2" y="956.3" class="st7" width="304.9" height="3.3"/>
			<rect x="142.2" y="968.9" class="st7" width="304.9" height="3.3"/>
			<rect x="142.2" y="981.5" class="st7" width="304.9" height="3.3"/>
			<rect x="142.2" y="994.1" class="st7" width="304.9" height="3.3"/>
			<rect x="142.2" y="1006.7" class="st7" width="304.9" height="3.3"/>
			<rect x="142.2" y="1019.2" class="st7" width="304.9" height="3.3"/>
			<rect x="142.2" y="1031.9" class="st7" width="304.9" height="3.3"/>
			<rect x="142.2" y="1044.5" class="st7" width="304.9" height="3.3"/>
			<rect x="142.2" y="1057.1" class="st7" width="304.9" height="3.3"/>
			<rect x="142.2" y="1069.7" class="st7" width="304.9" height="3.3"/>
			<rect x="142.2" y="1082.3" class="st7" width="304.9" height="3.3"/>
			<rect x="142.2" y="1094.9" class="st7" width="304.9" height="3.3"/>
			<rect x="142.2" y="1107.5" class="st7" width="304.9" height="3.3"/>
			<rect x="142.2" y="1120.1" class="st7" width="304.9" height="3.3"/>
			<rect x="142.2" y="1132.7" class="st7" width="304.9" height="3.3"/>
			<rect x="142.2" y="1145.3" class="st7" width="304.9" height="3.3"/>
			<rect x="142.2" y="1157.9" class="st7" width="304.9" height="3.3"/>
			<rect x="142.2" y="1170.6" class="st7" width="304.9" height="3.3"/>
			<rect x="142.2" y="1183.2" class="st7" width="304.9" height="3.3"/>
			<rect x="142.2" y="1195.8" class="st7" width="304.9" height="3.3"/>
			<rect x="142.2" y="1208.4" class="st7" width="304.9" height="3.3"/>
			<rect x="142.2" y="1221" class="st7" width="304.9" height="3.3"/>
			<rect x="142.2" y="1233.6" class="st7" width="304.9" height="3.3"/>
			<rect x="142.2" y="1246.2" class="st7" width="304.9" height="3.3"/>
			<rect x="142.2" y="1258.8" class="st7" width="304.9" height="3.3"/>
			<rect x="142.2" y="1271.4" class="st7" width="304.9" height="3.3"/>
			<rect x="142.2" y="1284" class="st7" width="304.9" height="3.3"/>
			<rect x="142.2" y="1296.5" class="st7" width="304.9" height="3.3"/>
		</g>
	</g>
	<rect x="3784.3" y="678.5" class="st8" width="1810.1" height="1217"/>
	<g>
		<rect x="5212.9" y="896.5" class="st9" width="381.5" height="648.7"/>
		<g>
			<rect x="5212.8" y="905.8" class="st7" width="381.6" height="3.3"/>
			<rect x="5212.8" y="918.4" class="st7" width="381.6" height="3.3"/>
			<rect x="5212.8" y="931" class="st7" width="381.6" height="3.3"/>
			<rect x="5212.8" y="943.6" class="st7" width="381.6" height="3.3"/>
			<rect x="5212.8" y="956.2" class="st7" width="381.6" height="3.3"/>
			<rect x="5212.8" y="968.8" class="st7" width="381.6" height="3.3"/>
			<rect x="5212.8" y="981.4" class="st7" width="381.6" height="3.3"/>
			<rect x="5212.8" y="994" class="st7" width="381.6" height="3.3"/>
			<rect x="5212.8" y="1006.6" class="st7" width="381.6" height="3.3"/>
			<rect x="5212.8" y="1019.3" class="st7" width="381.6" height="3.3"/>
			<rect x="5212.8" y="1031.9" class="st7" width="381.6" height="3.3"/>
			<rect x="5212.8" y="1044.5" class="st7" width="381.6" height="3.3"/>
			<rect x="5212.8" y="1057.1" class="st7" width="381.6" height="3.3"/>
			<rect x="5212.8" y="1069.7" class="st7" width="381.6" height="3.3"/>
			<rect x="5212.8" y="1082.3" class="st7" width="381.6" height="3.3"/>
			<rect x="5212.8" y="1094.9" class="st7" width="381.6" height="3.3"/>
			<rect x="5212.8" y="1107.5" class="st7" width="381.6" height="3.3"/>
			<rect x="5212.8" y="1120.1" class="st7" width="381.6" height="3.3"/>
			<rect x="5212.8" y="1132.7" class="st7" width="381.6" height="3.3"/>
			<rect x="5212.8" y="1145.3" class="st7" width="381.6" height="3.3"/>
			<rect x="5212.8" y="1157.9" class="st7" width="381.6" height="3.3"/>
			<rect x="5212.8" y="1170.5" class="st7" width="381.6" height="3.3"/>
			<rect x="5212.8" y="1183.1" class="st7" width="381.6" height="3.3"/>
			<rect x="5212.8" y="1195.7" class="st7" width="381.6" height="3.3"/>
			<rect x="5212.8" y="1208.3" class="st7" width="381.6" height="3.3"/>
			<rect x="5212.8" y="1220.9" class="st7" width="381.6" height="3.3"/>
			<rect x="5212.8" y="1233.5" class="st7" width="381.6" height="3.3"/>
			<rect x="5212.8" y="1246.1" class="st7" width="381.6" height="3.3"/>
			<rect x="5212.8" y="1258.7" class="st7" width="381.6" height="3.3"/>
			<rect x="5212.8" y="1271.3" class="st7" width="381.6" height="3.3"/>
			<rect x="5212.8" y="1283.9" class="st7" width="381.6" height="3.3"/>
			<rect x="5212.8" y="1296.6" class="st7" width="381.6" height="3.3"/>
		</g>
	</g>
	<g>
		<rect x="4332.5" y="896.5" class="st9" width="806.7" height="648.7"/>
		<g>
			<rect x="4332.2" y="905.8" class="st7" width="807" height="3.3"/>
			<rect x="4332.2" y="918.4" class="st7" width="807" height="3.3"/>
			<rect x="4332.2" y="931" class="st7" width="807" height="3.3"/>
			<rect x="4332.2" y="943.6" class="st7" width="807" height="3.3"/>
			<rect x="4332.2" y="956.2" class="st7" width="807" height="3.3"/>
			<rect x="4332.2" y="968.8" class="st7" width="807" height="3.3"/>
			<rect x="4332.2" y="981.4" class="st7" width="807" height="3.3"/>
			<rect x="4332.2" y="994" class="st7" width="807" height="3.3"/>
			<rect x="4332.2" y="1006.6" class="st7" width="807" height="3.3"/>
			<rect x="4332.2" y="1019.3" class="st7" width="807" height="3.3"/>
			<rect x="4332.2" y="1031.9" class="st7" width="807" height="3.3"/>
			<rect x="4332.2" y="1044.5" class="st7" width="807" height="3.3"/>
			<rect x="4332.2" y="1057.1" class="st7" width="807" height="3.3"/>
			<rect x="4332.2" y="1069.7" class="st7" width="807" height="3.3"/>
			<rect x="4332.2" y="1082.3" class="st7" width="807" height="3.3"/>
			<rect x="4332.2" y="1094.9" class="st7" width="807" height="3.3"/>
			<rect x="4332.2" y="1107.5" class="st7" width="807" height="3.3"/>
			<rect x="4332.2" y="1120.1" class="st7" width="807" height="3.3"/>
			<rect x="4332.2" y="1132.7" class="st7" width="807" height="3.3"/>
			<rect x="4332.2" y="1145.3" class="st7" width="807" height="3.3"/>
			<rect x="4332.2" y="1157.9" class="st7" width="807" height="3.3"/>
			<rect x="4332.2" y="1170.5" class="st7" width="807" height="3.3"/>
			<rect x="4332.2" y="1183.1" class="st7" width="807" height="3.3"/>
			<rect x="4332.2" y="1195.7" class="st7" width="807" height="3.3"/>
			<rect x="4332.2" y="1208.3" class="st7" width="807" height="3.3"/>
			<rect x="4332.2" y="1220.9" class="st7" width="807" height="3.3"/>
			<rect x="4332.2" y="1233.5" class="st7" width="807" height="3.3"/>
			<rect x="4332.2" y="1246.1" class="st7" width="807" height="3.3"/>
			<rect x="4332.2" y="1258.7" class="st7" width="807" height="3.3"/>
			<rect x="4332.2" y="1271.3" class="st7" width="807" height="3.3"/>
			<rect x="4332.2" y="1283.9" class="st7" width="807" height="3.3"/>
			<rect x="4332.2" y="1296.6" class="st7" width="807" height="3.3"/>
		</g>
	</g>
	<g>
		<path class="st5" d="M835.3,1171.8h180.4c0,0-43.8-54.7-90.2-54.7S835.3,1171.8,835.3,1171.8z"/>
		<rect x="922.8" y="738.3" class="st5" width="5.3" height="419.3"/>
	</g>
	<g>
		<path class="st5" d="M1425.3,1171.8h180.4c0,0-43.8-54.7-90.2-54.7C1469.2,1117.1,1425.3,1171.8,1425.3,1171.8z"/>
		<rect x="1512.9" y="738.3" class="st5" width="5.3" height="419.3"/>
	</g>
	<g>
		<g>
			<rect x="798.7" y="1221.4" class="st9" width="391.7" height="269.4"/>
			<path class="st10" d="M971,1240.1h44.5c1.3,0,2.3-1,2.3-2.3v-3.2c0-1.3-1-2.3-2.3-2.3H971c-1.3,0-2.3,1-2.3,2.3v3.2
				C968.7,1239,969.7,1240.1,971,1240.1z"/>
			<path class="st10" d="M1155.3,1265.3h22.9c1.2,0,2.2-1,2.2-2.2l0,0c0-1.2-1-2.2-2.2-2.2h-22.9c-1.2,0-2.2,1-2.2,2.2l0,0
				C1153.1,1264.3,1154.1,1265.3,1155.3,1265.3z"/>
			<path class="st10" d="M1106.3,1265.3h22.9c1.2,0,2.2-1,2.2-2.2l0,0c0-1.2-1-2.2-2.2-2.2h-22.9c-1.2,0-2.2,1-2.2,2.2l0,0
				C1104,1264.3,1105,1265.3,1106.3,1265.3z"/>
			<path class="st10" d="M1057.2,1265.3h22.9c1.2,0,2.2-1,2.2-2.2l0,0c0-1.2-1-2.2-2.2-2.2h-22.9c-1.2,0-2.2,1-2.2,2.2l0,0
				C1055,1264.3,1055.9,1265.3,1057.2,1265.3z"/>
			<path class="st10" d="M1008.1,1265.3h22.9c1.2,0,2.2-1,2.2-2.2l0,0c0-1.2-1-2.2-2.2-2.2h-22.9c-1.2,0-2.2,1-2.2,2.2l0,0
				C1005.9,1264.3,1006.9,1265.3,1008.1,1265.3z"/>
			<path class="st10" d="M959,1265.3h22.9c1.2,0,2.2-1,2.2-2.2l0,0c0-1.2-1-2.2-2.2-2.2H959c-1.2,0-2.2,1-2.2,2.2l0,0
				C956.8,1264.3,957.8,1265.3,959,1265.3z"/>
			<path class="st10" d="M909.9,1265.3h22.9c1.2,0,2.2-1,2.2-2.2l0,0c0-1.2-1-2.2-2.2-2.2h-22.9c-1.2,0-2.2,1-2.2,2.2l0,0
				C907.7,1264.3,908.7,1265.3,909.9,1265.3z"/>
			<path class="st10" d="M860.8,1265.3h22.9c1.2,0,2.2-1,2.2-2.2l0,0c0-1.2-1-2.2-2.2-2.2h-22.9c-1.2,0-2.2,1-2.2,2.2l0,0
				C858.6,1264.3,859.6,1265.3,860.8,1265.3z"/>
			<path class="st10" d="M811.7,1265.3h22.9c1.2,0,2.2-1,2.2-2.2l0,0c0-1.2-1-2.2-2.2-2.2h-22.9c-1.2,0-2.2,1-2.2,2.2l0,0
				C809.5,1264.3,810.5,1265.3,811.7,1265.3z"/>
			<g>
				<rect x="798.7" y="1250.2" class="st10" width="391.7" height="2.3"/>
			</g>
			<g>
				<rect x="798.7" y="1273.1" class="st10" width="391.7" height="2.3"/>
			</g>
			<g>
				<rect x="798.7" y="1316.1" class="st10" width="391.7" height="2.3"/>
			</g>
			<g>
				<rect x="798.7" y="1359" class="st10" width="391.7" height="2.3"/>
			</g>
			<g>
				<rect x="798.7" y="1402" class="st10" width="391.7" height="2.3"/>
			</g>
			<g>
				<rect x="798.7" y="1445" class="st10" width="391.7" height="2.3"/>
			</g>
			<g>
				<rect x="1141.3" y="1251.3" class="st10" width="2.3" height="239.5"/>
			</g>
			<g>
				<rect x="1091.8" y="1251.3" class="st10" width="2.3" height="239.5"/>
			</g>
			<g>
				<rect x="1042.3" y="1251.3" class="st10" width="2.3" height="239.5"/>
			</g>
			<g>
				<rect x="992.9" y="1251.3" class="st10" width="2.3" height="239.5"/>
			</g>
			<g>
				<rect x="943.4" y="1251.3" class="st10" width="2.3" height="239.5"/>
			</g>
			<g>
				<rect x="893.9" y="1251.3" class="st10" width="2.3" height="239.5"/>
			</g>
			<g>
				<rect x="844.4" y="1251.3" class="st10" width="2.3" height="239.5"/>
			</g>
		</g>
	</g>
	<g>
		<g>
			<rect x="1230.9" y="1221.4" class="st9" width="391.7" height="269.4"/>
			<path class="st10" d="M1404.9,1240.1h41.3c2.2,0,3.9-1.8,3.9-3.9l0,0c0-2.2-1.8-3.9-3.9-3.9h-41.3c-2.2,0-3.9,1.8-3.9,3.9l0,0
				C1401,1238.3,1402.7,1240.1,1404.9,1240.1z"/>
			<path class="st10" d="M1587.6,1265.3h22.9c1.2,0,2.2-1,2.2-2.2l0,0c0-1.2-1-2.2-2.2-2.2h-22.9c-1.2,0-2.2,1-2.2,2.2l0,0
				C1585.4,1264.3,1586.4,1265.3,1587.6,1265.3z"/>
			<path class="st10" d="M1538.5,1265.3h22.9c1.2,0,2.2-1,2.2-2.2l0,0c0-1.2-1-2.2-2.2-2.2h-22.9c-1.2,0-2.2,1-2.2,2.2l0,0
				C1536.3,1264.3,1537.3,1265.3,1538.5,1265.3z"/>
			<path class="st10" d="M1489.4,1265.3h22.9c1.2,0,2.2-1,2.2-2.2l0,0c0-1.2-1-2.2-2.2-2.2h-22.9c-1.2,0-2.2,1-2.2,2.2l0,0
				C1487.2,1264.3,1488.2,1265.3,1489.4,1265.3z"/>
			<path class="st10" d="M1440.3,1265.3h22.9c1.2,0,2.2-1,2.2-2.2l0,0c0-1.2-1-2.2-2.2-2.2h-22.9c-1.2,0-2.2,1-2.2,2.2l0,0
				C1438.1,1264.3,1439.1,1265.3,1440.3,1265.3z"/>
			<path class="st10" d="M1391.3,1265.3h22.9c1.2,0,2.2-1,2.2-2.2l0,0c0-1.2-1-2.2-2.2-2.2h-22.9c-1.2,0-2.2,1-2.2,2.2l0,0
				C1389,1264.3,1390,1265.3,1391.3,1265.3z"/>
			<path class="st10" d="M1342.2,1265.3h22.9c1.2,0,2.2-1,2.2-2.2l0,0c0-1.2-1-2.2-2.2-2.2h-22.9c-1.2,0-2.2,1-2.2,2.2l0,0
				C1340,1264.3,1340.9,1265.3,1342.2,1265.3z"/>
			<path class="st10" d="M1293.1,1265.3h22.9c1.2,0,2.2-1,2.2-2.2l0,0c0-1.2-1-2.2-2.2-2.2h-22.9c-1.2,0-2.2,1-2.2,2.2l0,0
				C1290.9,1264.3,1291.9,1265.3,1293.1,1265.3z"/>
			<path class="st10" d="M1244,1265.3h22.9c1.2,0,2.2-1,2.2-2.2l0,0c0-1.2-1-2.2-2.2-2.2H1244c-1.2,0-2.2,1-2.2,2.2l0,0
				C1241.8,1264.3,1242.8,1265.3,1244,1265.3z"/>
			<g>
				<rect x="1230.9" y="1250.2" class="st10" width="391.7" height="2.3"/>
			</g>
			<g>
				<rect x="1230.9" y="1273.1" class="st10" width="391.7" height="2.3"/>
			</g>
			<g>
				<rect x="1230.9" y="1316.1" class="st10" width="391.7" height="2.3"/>
			</g>
			<g>
				<rect x="1230.9" y="1359" class="st10" width="391.7" height="2.3"/>
			</g>
			<g>
				<rect x="1230.9" y="1402" class="st10" width="391.7" height="2.3"/>
			</g>
			<g>
				<rect x="1230.9" y="1445" class="st10" width="391.7" height="2.3"/>
			</g>
			<g>
				<rect x="1573.5" y="1251.3" class="st10" width="2.3" height="239.5"/>
			</g>
			<g>
				<rect x="1524.1" y="1251.3" class="st10" width="2.3" height="239.5"/>
			</g>
			<g>
				<rect x="1474.6" y="1251.3" class="st10" width="2.3" height="239.5"/>
			</g>
			<g>
				<rect x="1425.1" y="1251.3" class="st10" width="2.3" height="239.5"/>
			</g>
			<g>
				<rect x="1375.7" y="1251.3" class="st10" width="2.3" height="239.5"/>
			</g>
			<g>
				<rect x="1326.2" y="1251.3" class="st10" width="2.3" height="239.5"/>
			</g>
			<g>
				<rect x="1276.7" y="1251.3" class="st10" width="2.3" height="239.5"/>
			</g>
		</g>
	</g>
	<g>
		<g>
			<path class="st11" d="M1217.5,1910h-30.1v-586.6h24.4c3.2,0,5.7,2.6,5.7,5.7V1910z"/>
			<g>
				<ellipse class="st11" cx="1269.7" cy="1950.5" rx="23.2" ry="23.1"/>
				<path class="st11" d="M1253,1910h47.5v47.4h-40.7c-3.8,0-6.8-3.1-6.8-6.8V1910z"/>
				<rect x="1108" y="1910.1" class="st11" width="192.6" height="17.4"/>
				<ellipse class="st12" cx="1281.6" cy="1950.5" rx="23.2" ry="23.1"/>
				<ellipse class="st11" cx="1281.6" cy="1950.5" rx="15.9" ry="15.8"/>
			</g>
			<g>
				<ellipse class="st12" cx="1123.5" cy="1950.5" rx="23.2" ry="23.1"/>
				<path class="st11" d="M1108,1910h47.5v47.4h-40.7c-3.8,0-6.8-3.1-6.8-6.8V1910z"/>
				<ellipse class="st12" cx="1135.5" cy="1950.5" rx="23.2" ry="23.1"/>
				<ellipse class="st11" cx="1135.5" cy="1950.5" rx="15.9" ry="15.8"/>
			</g>
			<path class="st11" d="M1602.4,1910h-30.1v-586.6h24.4c3.2,0,5.7,2.6,5.7,5.7V1910z"/>
			<path class="st13" d="M1596.7,1320.7h-24.3v277.1h30.1v-271.4C1602.4,1323.2,1599.8,1320.7,1596.7,1320.7z"/>
			<g>
				<g>
					<path class="st12" d="M1356.6,1307.1h2.7v-7.4c0-6.1-5-11.1-11.2-11.1h-7.1v2.7h7.1c4.7,0,8.4,3.8,8.4,8.4L1356.6,1307.1
						L1356.6,1307.1z"/>
				</g>
				<g>
					<path class="st14" d="M1175.4,1577.2h411.5c2.5,0,4.5-2,4.5-4.5v-264.2c0-2.5-2-4.5-4.5-4.5h-411.5c-2.5,0-4.5,2-4.5,4.5v264.2
						C1170.9,1575.2,1172.9,1577.2,1175.4,1577.2z"/>
					<path class="st9" d="M1169.1,1577.2h411.5c2.5,0,4.5-2,4.5-4.5v-264.2c0-2.5-2-4.5-4.5-4.5h-411.5c-2.5,0-4.5,2-4.5,4.5v264.2
						C1164.7,1575.2,1166.7,1577.2,1169.1,1577.2z"/>
					<path class="st12" d="M1168.2,1577.2h411.5c2.5,0,4.5-2,4.5-4.5v-264.2c0-2.5-2-4.5-4.5-4.5h-411.5c-2.5,0-4.5,2-4.5,4.5v264.2
						C1163.8,1575.2,1165.8,1577.2,1168.2,1577.2z"/>
					<rect x="1172.5" y="1311.9" class="st15" width="403.1" height="257.3"/>
					<rect x="1327.5" y="1469.9" class="st16" width="62.1" height="17.3"/>
					<ellipse class="st9" cx="1358" cy="1425.5" rx="31.6" ry="31.5"/>
				</g>
				<path class="st12" d="M1349.1,1296.6h28.2c3.7,0,6.7-3,6.7-6.7l0,0c0-3.7-3-6.7-6.7-6.7h-28.2c-3.7,0-6.7,3-6.7,6.7l0,0
					C1342.3,1293.6,1345.3,1296.6,1349.1,1296.6z"/>
				<path class="st15" d="M1338.9,1296.6h21.3c3.7,0,6.7-3,6.7-6.7l0,0c0-3.7-3-6.7-6.7-6.7h-21.3c-3.7,0-6.7,3-6.7,6.7l0,0
					C1332.1,1293.6,1335.1,1296.6,1338.9,1296.6z"/>
				<path class="st12" d="M1352.5,1289.9c0,2.6,2.1,4.7,4.8,4.7c2.6,0,4.8-2.1,4.8-4.7s-2.1-4.7-4.8-4.7
					C1354.6,1285.2,1352.5,1287.3,1352.5,1289.9z"/>
				<ellipse class="st9" cx="1357.2" cy="1289.9" rx="1.9" ry="1.9"/>
			</g>
			<g>
				<ellipse class="st12" cx="1654.6" cy="1950.5" rx="23.2" ry="23.1"/>
				<path class="st11" d="M1638,1910h47.5v47.4h-40.7c-3.8,0-6.8-3.1-6.8-6.8V1910z"/>
				<rect x="1492.9" y="1910.1" class="st11" width="192.6" height="17.4"/>
				<ellipse class="st12" cx="1666.5" cy="1950.5" rx="23.2" ry="23.1"/>
				<ellipse class="st11" cx="1666.5" cy="1950.5" rx="15.9" ry="15.8"/>
			</g>
			<g>
				<ellipse class="st12" cx="1508.4" cy="1950.5" rx="23.2" ry="23.1"/>
				<path class="st11" d="M1492.9,1910h47.5v47.4h-40.7c-3.8,0-6.8-3.1-6.8-6.8V1910z"/>
				<ellipse class="st12" cx="1520.4" cy="1950.5" rx="23.2" ry="23.1"/>
				<ellipse class="st11" cx="1520.4" cy="1950.5" rx="15.9" ry="15.8"/>
			</g>
			<rect x="1187.4" y="1577.1" class="st13" width="30.1" height="20.6"/>
			<rect x="1572.3" y="1605.5" class="st13" width="30.1" height="10.2"/>
			<rect x="1187.4" y="1605.5" class="st13" width="30.1" height="10.2"/>
		</g>
		
			<linearGradient id="SVGID_1_" gradientUnits="userSpaceOnUse" x1="10328.2754" y1="4130.0801" x2="10328.2754" y2="4323.2441" gradientTransform="matrix(-1 0 0 1 11787.0254 -2834.0002)">
			<stop  offset="0" style="stop-color:#FFFFFF"/>
			<stop  offset="1" style="stop-color:#000000"/>
		</linearGradient>
		<path class="st17" d="M1333.3,1422.7l250.9,95.8v-206.8c0-4.2-3.4-7.6-7.6-7.6h-243.2v118.6H1333.3z"/>
	</g>
	<g>
		<g>
			<g>
				<path class="st18" d="M1267,1645.6h-77.9v-9.7h77.9c1.1,0,2,0.9,2,2v5.8C1269,1644.7,1268.1,1645.6,1267,1645.6z"/>
				<path class="st9" d="M1212.6,1645.6h-72v-9.7h72c1.1,0,2,0.9,2,2v5.8C1214.5,1644.7,1213.6,1645.6,1212.6,1645.6z"/>
			</g>
			<g>
				<path class="st19" d="M1267.3,1662.6h-74.2v-17h74.2c1.3,0,2.4,1.1,2.4,2.4v12.2C1269.8,1661.5,1268.7,1662.6,1267.3,1662.6z"/>
				<path class="st20" d="M1210.3,1662.6h-74.9v-17h74.9c1.3,0,2.4,1.1,2.4,2.4v12.2C1212.7,1661.5,1211.7,1662.6,1210.3,1662.6z"/>
			</g>
			<g>
				<rect x="1123.4" y="1662.6" class="st21" width="67.8" height="19.7"/>
				<rect x="1191.2" y="1662.6" class="st22" width="91.4" height="19.7"/>
				<rect x="1123.5" y="1663.9" class="st23" width="159.1" height="0.7"/>
				<rect x="1123.5" y="1666.3" class="st23" width="159.1" height="0.7"/>
				<rect x="1123.5" y="1668.6" class="st23" width="159.1" height="0.7"/>
				<rect x="1123.5" y="1670.9" class="st23" width="159.1" height="0.7"/>
				<rect x="1123.5" y="1673.3" class="st23" width="159.1" height="0.7"/>
				<rect x="1123.5" y="1675.6" class="st23" width="159.1" height="0.7"/>
				<rect x="1123.5" y="1678.1" class="st23" width="159.1" height="0.7"/>
				<rect x="1123.5" y="1680.4" class="st23" width="159.1" height="0.7"/>
			</g>
		</g>
		<g>
			<polygon class="st24" points="1688.2,1802.4 1683.7,1822.1 1681.5,1832.2 1680,1838.7 1649.4,1974 1638.8,1974 1661.1,1838.7 
				1662.2,1832.2 1663.9,1822.1 1667.1,1802.4 			"/>
			<polygon class="st24" points="1859.1,1974 1848.5,1974 1817.9,1838.7 1816.5,1832.2 1814.2,1822.1 1809.7,1802.4 1830.8,1802.4 
				1834,1822.1 1835.7,1832.2 1836.8,1838.7 			"/>
			<polygon class="st25" points="1583.4,1802.4 1578.9,1822.1 1576.6,1832.2 1575.1,1838.7 1544.6,1974 1534,1974 1556.3,1838.7 
				1557.4,1832.2 1559,1822.1 1562.3,1802.4 			"/>
			<polygon class="st25" points="1748,1974 1737.4,1974 1706.8,1838.7 1705.3,1832.2 1703,1822.1 1698.6,1802.4 1719.7,1802.4 
				1722.9,1822.1 1724.6,1832.2 1725.6,1838.7 			"/>
			<path class="st26" d="M1856,1783.6c-2.1,10.9-11.7,18.7-22.8,18.7h-283.9l14.2-64.1c1.9-9.9,10.1-17.4,20.2-18.6l72-8.1
				c8.1-0.9,15.1-6,18.5-13.3l24.5-53.3c3.8-8.2,12-13.5,21.1-13.5h131.8l1.9,64.5L1856,1783.6z"/>
			<path class="st27" d="M1856,1783.6c-2.1,10.9-11.7,18.7-22.8,18.7h-105.6l14.2-64.1c1.9-9.9,10.1-17.4,20.2-18.6l72-8.1
				c8.1-0.9,15.1-6,18.5-13.3l1.1-2.3L1856,1783.6z"/>
			<polygon class="st28" points="1562.3,1802.4 1583.4,1802.4 1578.9,1822.1 1559,1822.1 			"/>
			<polygon class="st28" points="1667.1,1802.4 1688.2,1802.4 1683.7,1822.1 1663.9,1822.1 			"/>
			<polygon class="st28" points="1719.7,1802.4 1722.9,1822.1 1703,1822.1 1698.6,1802.4 			"/>
			<polygon class="st28" points="1834,1822.1 1814.2,1822.1 1809.7,1802.4 1830.8,1802.4 			"/>
			<polygon class="st28" points="1557.4,1832.2 1576.6,1832.2 1575.1,1838.7 1556.3,1838.7 			"/>
			<polygon class="st28" points="1662.2,1832.2 1681.5,1832.2 1680,1838.7 1661.1,1838.7 			"/>
			<polygon class="st28" points="1724.6,1832.2 1725.6,1838.7 1706.8,1838.7 1705.3,1832.2 			"/>
			<polygon class="st28" points="1836.8,1838.7 1817.9,1838.7 1816.5,1832.2 1835.7,1832.2 			"/>
		</g>
		<g>
			<g>
				<polygon class="st12" points="1490.3,1922.6 1493.9,1915.6 1050.2,1687.2 720.3,1915.9 724.8,1922.3 1050.8,1696.3 				"/>
			</g>
			<rect x="1315.3" y="1913.4" class="st12" width="297.2" height="11.4"/>
			<rect x="542.3" y="1682.3" class="st13" width="1110" height="19.3"/>
			<rect x="1250.1" y="1682.3" class="st25" width="402.2" height="19.3"/>
			<polygon class="st12" points="1315.5,1974 1339.6,1974 1300.2,1701.6 1276.1,1701.6 			"/>
			<polygon class="st12" points="1605.1,1974 1629.3,1974 1589.9,1701.6 1565.7,1701.6 			"/>
			<rect x="577.9" y="1913.4" class="st12" width="297.2" height="11.4"/>
			<polygon class="st12" points="874.9,1974 850.8,1974 890.2,1701.6 914.3,1701.6 			"/>
			<polygon class="st12" points="585.3,1974 561.1,1974 600.5,1701.6 624.7,1701.6 			"/>
		</g>
		<g>
			<polygon class="st24" points="1259.4,1802.4 1263.9,1822.1 1266.2,1832.2 1267.6,1838.7 1298.2,1974 1308.8,1974 1286.5,1838.7 
				1285.4,1832.2 1283.8,1822.1 1280.5,1802.4 			"/>
			<polygon class="st24" points="1088.5,1974 1099.1,1974 1129.7,1838.7 1131.2,1832.2 1133.5,1822.1 1137.9,1802.4 1116.8,1802.4 
				1113.6,1822.1 1111.9,1832.2 1110.8,1838.7 			"/>
			<polygon class="st25" points="1364.3,1802.4 1368.7,1822.1 1371,1832.2 1372.5,1838.7 1403.1,1974 1413.6,1974 1391.3,1838.7 
				1390.3,1832.2 1388.6,1822.1 1385.3,1802.4 			"/>
			<polygon class="st25" points="1199.7,1974 1210.3,1974 1240.8,1838.7 1242.3,1832.2 1244.6,1822.1 1249,1802.4 1228,1802.4 
				1224.7,1822.1 1223.1,1832.2 1222,1838.7 			"/>
			<path class="st27" d="M1106.5,1802.4h283.9c11.1,0,20.7-7.9,22.8-18.7l37.5-152.2h-130c-53.3-0.3-88.5,79-107.8,80.1l-72,8.1
				c-10.1,1.1-18.3,8.7-20.2,18.6L1106.5,1802.4z"/>
			<path class="st26" d="M1208,1802.4h182.4c11.1,0,20.7-7.9,22.8-18.7l37.5-152.2h-130C1320.7,1631.5,1249,1791.9,1208,1802.4z"/>
			<polygon class="st28" points="1385.3,1802.4 1364.3,1802.4 1368.7,1822.1 1388.6,1822.1 			"/>
			<polygon class="st28" points="1280.5,1802.4 1259.4,1802.4 1263.9,1822.1 1283.8,1822.1 			"/>
			<polygon class="st28" points="1228,1802.4 1224.7,1822.1 1244.6,1822.1 1249,1802.4 			"/>
			<polygon class="st28" points="1113.6,1822.1 1133.5,1822.1 1137.9,1802.4 1116.8,1802.4 			"/>
			<polygon class="st28" points="1390.3,1832.2 1371,1832.2 1372.5,1838.7 1391.3,1838.7 			"/>
			<polygon class="st28" points="1285.4,1832.2 1266.2,1832.2 1267.6,1838.7 1286.5,1838.7 			"/>
			<polygon class="st28" points="1223.1,1832.2 1222,1838.7 1240.8,1838.7 1242.3,1832.2 			"/>
			<polygon class="st28" points="1110.8,1838.7 1129.7,1838.7 1131.2,1832.2 1111.9,1832.2 			"/>
		</g>
		<g>
			<polygon class="st24" points="442.7,1802.4 438.2,1822.1 435.9,1832.2 434.4,1838.7 403.9,1974 393.3,1974 415.6,1838.7 
				416.7,1832.2 418.3,1822.1 421.6,1802.4 			"/>
			<polygon class="st24" points="613.5,1974 603,1974 572.4,1838.7 570.9,1832.2 568.6,1822.1 564.2,1802.4 585.2,1802.4 
				588.5,1822.1 590.2,1832.2 591.2,1838.7 			"/>
			<polygon class="st25" points="337.8,1802.4 333.4,1822.1 331.1,1832.2 329.6,1838.7 299,1974 288.4,1974 310.7,1838.7 
				311.8,1832.2 313.5,1822.1 316.7,1802.4 			"/>
			<polygon class="st25" points="502.4,1974 491.8,1974 461.3,1838.7 459.8,1832.2 457.5,1822.1 453,1802.4 474.1,1802.4 
				477.4,1822.1 479,1832.2 480.1,1838.7 			"/>
			<path class="st27" d="M595.6,1802.4H311.7c-11.1,0-20.7-7.9-22.8-18.7l-37.5-152.2h130c53.3-0.3,88.5,79,107.8,80.1l72,8.1
				c10.1,1.1,18.3,8.7,20.2,18.6L595.6,1802.4z"/>
			<path class="st26" d="M494.1,1802.4H311.7c-11.1,0-20.7-7.9-22.8-18.7l-37.5-152.2h130C381.4,1631.5,453,1791.9,494.1,1802.4z"/>
			<polygon class="st28" points="316.7,1802.4 337.8,1802.4 333.4,1822.1 313.5,1822.1 			"/>
			<polygon class="st28" points="421.6,1802.4 442.7,1802.4 438.2,1822.1 418.3,1822.1 			"/>
			<polygon class="st28" points="474.1,1802.4 477.4,1822.1 457.5,1822.1 453,1802.4 			"/>
			<polygon class="st28" points="588.5,1822.1 568.6,1822.1 564.2,1802.4 585.2,1802.4 			"/>
			<polygon class="st28" points="311.8,1832.2 331.1,1832.2 329.6,1838.7 310.7,1838.7 			"/>
			<polygon class="st28" points="416.7,1832.2 435.9,1832.2 434.4,1838.7 415.6,1838.7 			"/>
			<polygon class="st28" points="479,1832.2 480.1,1838.7 461.3,1838.7 459.8,1832.2 			"/>
			<polygon class="st28" points="591.2,1838.7 572.4,1838.7 570.9,1832.2 590.2,1832.2 			"/>
		</g>
		<g>
			<g>
				<g>
					<g>
						<g>
							<rect x="953.6" y="1592.4" class="st19" width="41.1" height="90"/>
							<rect x="966" y="1592.4" class="st29" width="1.1" height="90"/>
							<rect x="953.6" y="1592.4" class="st29" width="9.8" height="90"/>
						</g>
						<rect x="973.4" y="1589.6" class="st30" width="49" height="92.8"/>
						<rect x="987.5" y="1589.6" class="st31" width="0.9" height="92.8"/>
						<rect x="973.4" y="1589.6" class="st31" width="11.7" height="92.8"/>
					</g>
					<g>
						<rect x="993.6" y="1594.6" class="st32" width="49" height="87.8"/>
						<rect x="1008.5" y="1594.6" class="st33" width="1.3" height="87.8"/>
						<rect x="993.6" y="1594.6" class="st33" width="11.7" height="87.8"/>
					</g>
				</g>
			</g>
		</g>
		<g>
			<g>
				<g>
					<path class="st34" d="M1103.4,1639.3h1.1c0-0.2-0.2-23.4-1.8-57.1c-1.6-34-25.1-56.9-25.3-57.2l-0.7,0.8
						c0.2,0.2,23.4,22.9,25,56.4C1103.2,1615.9,1103.4,1639.1,1103.4,1639.3z"/>
				</g>
				<g>
					<path class="st34" d="M1100.6,1642.5l1.1-0.1c-0.2-2.5-4-60.8-10.8-71.2c-6.8-10.4-24.5-17.7-25.3-18.1l-0.4,1
						c0.2,0.1,18.2,7.5,24.8,17.6C1096.7,1581.9,1100.6,1641.9,1100.6,1642.5z"/>
				</g>
				<g>
					<path class="st34" d="M1106.2,1642.4c0-0.2,0.4-19-0.7-32.4c-1.1-13.6-16.8-21.7-17.5-22.1l-0.5,1c0.2,0.1,15.9,8.2,16.9,21.2
						c1.1,13.3,0.7,32.1,0.7,32.3H1106.2z"/>
				</g>
				<path class="st34" d="M1051.6,1516.5c0,0,18.9-5.4,30,8.3c11.1,13.7,15,31,15,31L1051.6,1516.5z"/>
				<path class="st34" d="M1104,1605.3l-37.8-19.2C1066.2,1586.1,1092.2,1567.2,1104,1605.3z"/>
				<path class="st34" d="M1064,1553.7l26.5,17.8C1090.5,1571.5,1088,1552.3,1064,1553.7z"/>
			</g>
			<g>
				<path class="st9" d="M1093.6,1682.4V1635c0-2.6,2.1-4.7,4.7-4.7h8.1c2.6,0,4.7,2.1,4.7,4.7v47.4H1093.6z"/>
				<rect x="1097.4" y="1625.3" class="st9" width="10.1" height="6.6"/>
				<rect x="1095.8" y="1623" class="st9" width="13.2" height="2.4"/>
			</g>
		</g>
	</g>
	<g>
		<g>
			<g>
				<path class="st11" d="M4977.9,1153.7h543.2c5.1,0,9.2,4.1,9.2,9.2v761.4c0,5.1-4.1,9.2-9.2,9.2h-543.2c-5.1,0-9.2-4.1-9.2-9.2
					v-761.4C4968.7,1157.8,4972.8,1153.7,4977.9,1153.7z"/>
				<path class="st35" d="M4961.9,1153.7h543.2c5.1,0,9.2,4.1,9.2,9.2v761.4c0,5.1-4.1,9.2-9.2,9.2h-543.2c-5.1,0-9.2-4.1-9.2-9.2
					v-761.4C4952.7,1157.8,4956.8,1153.7,4961.9,1153.7z"/>
				<rect x="4881.3" y="1589.8" class="st25" width="473.6" height="21.1"/>
				<rect x="5354.8" y="1589.8" class="st24" width="130.1" height="21.1"/>
			</g>
			<g>
				<g>
					<path class="st12" d="M5453.7,1940.2L5453.7,1940.2h12.4v5.1c3,3,4.8,7.2,4.8,11.8c0,4.6-1.8,8.7-4.8,11.8v5h-10.3
						c-0.6,0.1-1.2,0.1-1.8,0.1c-9.4,0-17-7.6-17-16.9C5437,1947.8,5444.5,1940.3,5453.7,1940.2z"/>
					<ellipse class="st18" cx="5466.1" cy="1957.1" rx="17" ry="16.9"/>
				</g>
				<g>
					<path class="st12" d="M5355.6,1940.2L5355.6,1940.2h12.4v5.1c3,3,4.8,7.2,4.8,11.8c0,4.6-1.8,8.7-4.8,11.8v5h-10.3
						c-0.6,0.1-1.2,0.1-1.8,0.1c-9.4,0-17-7.6-17-16.9C5338.9,1947.8,5346.4,1940.3,5355.6,1940.2z"/>
					<ellipse class="st18" cx="5368" cy="1957.1" rx="17" ry="16.9"/>
				</g>
				<rect x="5335.2" y="1933.6" class="st12" width="153.4" height="6.6"/>
			</g>
			<path class="st12" d="M5405.3,1830.3L5405.3,1830.3c-6.4,0-11.7,5.2-11.7,11.6v91.7h23.3v-91.7
				C5417,1835.5,5411.8,1830.3,5405.3,1830.3z"/>
			<g>
				<g>
					<path class="st12" d="M5077.8,1940.2L5077.8,1940.2h12.4v5.1c3,3,4.8,7.2,4.8,11.8c0,4.6-1.8,8.7-4.8,11.8v5h-10.3
						c-0.6,0.1-1.2,0.1-1.8,0.1c-9.4,0-17-7.6-17-16.9C5061.1,1947.8,5068.5,1940.3,5077.8,1940.2z"/>
					<ellipse class="st18" cx="5090.2" cy="1957.1" rx="17" ry="16.9"/>
				</g>
				<g>
					<path class="st12" d="M4979.7,1940.2L4979.7,1940.2h12.4v5.1c3,3,4.8,7.2,4.8,11.8c0,4.6-1.8,8.7-4.8,11.8v5h-10.3
						c-0.6,0.1-1.2,0.1-1.8,0.1c-9.4,0-17-7.6-17-16.9C4963,1947.8,4970.4,1940.3,4979.7,1940.2z"/>
					<ellipse class="st18" cx="4992.1" cy="1957.1" rx="17" ry="16.9"/>
				</g>
				<rect x="4959.3" y="1933.6" class="st12" width="153.4" height="6.6"/>
			</g>
			<path class="st12" d="M5029.4,1830.3L5029.4,1830.3c-6.4,0-11.7,5.2-11.7,11.6v91.7h23.3v-91.7
				C5041.1,1835.5,5035.8,1830.3,5029.4,1830.3z"/>
		</g>
		<rect x="5117.4" y="1153.7" class="st12" width="23.3" height="103.3"/>
		<g>
			<rect x="5307" y="1153.7" class="st12" width="23.3" height="103.3"/>
		</g>
		<g>
			<rect x="4984.4" y="1248.8" class="st36" width="472.3" height="324.8"/>
			<path class="st37" d="M5247,1271.3h-49.8c-2.6,0-4.7-2.1-4.7-4.7l0,0c0-2.6,2.1-4.7,4.7-4.7h49.8c2.6,0,4.7,2.1,4.7,4.7l0,0
				C5251.8,1269.2,5249.6,1271.3,5247,1271.3z"/>
			<path class="st37" d="M5026.7,1301.7h-27.6c-1.5,0-2.7-1.2-2.7-2.6l0,0c0-1.5,1.2-2.6,2.7-2.6h27.6c1.5,0,2.7,1.2,2.7,2.6l0,0
				C5029.4,1300.5,5028.2,1301.7,5026.7,1301.7z"/>
			<path class="st37" d="M5085.9,1301.7h-27.6c-1.5,0-2.7-1.2-2.7-2.6l0,0c0-1.5,1.2-2.6,2.7-2.6h27.6c1.5,0,2.7,1.2,2.7,2.6l0,0
				C5088.6,1300.5,5087.4,1301.7,5085.9,1301.7z"/>
			<path class="st37" d="M5145.1,1301.7h-27.6c-1.5,0-2.7-1.2-2.7-2.6l0,0c0-1.5,1.2-2.6,2.7-2.6h27.6c1.5,0,2.7,1.2,2.7,2.6l0,0
				C5147.8,1300.5,5146.6,1301.7,5145.1,1301.7z"/>
			<path class="st37" d="M5204.3,1301.7h-27.6c-1.5,0-2.7-1.2-2.7-2.6l0,0c0-1.5,1.2-2.6,2.7-2.6h27.6c1.5,0,2.7,1.2,2.7,2.6l0,0
				C5206.9,1300.5,5205.8,1301.7,5204.3,1301.7z"/>
			<path class="st37" d="M5263.5,1301.7h-27.6c-1.5,0-2.7-1.2-2.7-2.6l0,0c0-1.5,1.2-2.6,2.7-2.6h27.6c1.5,0,2.7,1.2,2.7,2.6l0,0
				C5266.1,1300.5,5264.9,1301.7,5263.5,1301.7z"/>
			<path class="st37" d="M5322.7,1301.7H5295c-1.5,0-2.7-1.2-2.7-2.6l0,0c0-1.5,1.2-2.6,2.7-2.6h27.6c1.5,0,2.7,1.2,2.7,2.6l0,0
				C5325.3,1300.5,5324.1,1301.7,5322.7,1301.7z"/>
			<path class="st37" d="M5381.8,1301.7h-27.6c-1.5,0-2.7-1.2-2.7-2.6l0,0c0-1.5,1.2-2.6,2.7-2.6h27.6c1.5,0,2.7,1.2,2.7,2.6l0,0
				C5384.5,1300.5,5383.3,1301.7,5381.8,1301.7z"/>
			<path class="st37" d="M5441,1301.7h-27.6c-1.5,0-2.7-1.2-2.7-2.6l0,0c0-1.5,1.2-2.6,2.7-2.6h27.6c1.5,0,2.7,1.2,2.7,2.6l0,0
				C5443.7,1300.5,5442.5,1301.7,5441,1301.7z"/>
			<g>
				<rect x="4984.4" y="1283.5" class="st37" width="472.3" height="2.8"/>
			</g>
			<g>
				<rect x="4984.4" y="1311.1" class="st37" width="472.3" height="2.8"/>
			</g>
			<g>
				<rect x="4984.4" y="1362.9" class="st37" width="472.3" height="2.8"/>
			</g>
			<g>
				<rect x="4984.4" y="1414.7" class="st37" width="472.3" height="2.8"/>
			</g>
			<g>
				<rect x="4984.4" y="1466.5" class="st37" width="472.3" height="2.8"/>
			</g>
			<g>
				<rect x="4984.4" y="1518.3" class="st37" width="472.3" height="2.8"/>
			</g>
			<g>
				<rect x="5040.9" y="1284.9" class="st37" width="2.8" height="288.7"/>
			</g>
			<g>
				<rect x="5100.6" y="1284.9" class="st37" width="2.8" height="288.7"/>
			</g>
			<g>
				<rect x="5160.2" y="1284.9" class="st37" width="2.8" height="288.7"/>
			</g>
			<g>
				<rect x="5219.9" y="1284.9" class="st37" width="2.8" height="288.7"/>
			</g>
			<g>
				<rect x="5279.5" y="1284.9" class="st37" width="2.8" height="288.7"/>
			</g>
			<g>
				<rect x="5339.2" y="1284.9" class="st37" width="2.8" height="288.7"/>
			</g>
			<g>
				<rect x="5398.8" y="1284.9" class="st37" width="2.8" height="288.7"/>
			</g>
		</g>
		<path class="st12" d="M5443.5,1705.5L5443.5,1705.5c-6.4,0-11.5-5.1-11.5-11.5v-83.1h23.1v83.1
			C5455,1700.4,5449.8,1705.5,5443.5,1705.5z"/>
		<path class="st12" d="M5000.3,1705.5L5000.3,1705.5c-6.4,0-11.5-5.1-11.5-11.5v-83.1h23.1v83.1
			C5011.8,1700.4,5006.7,1705.5,5000.3,1705.5z"/>
		<polygon class="st25" points="5097.4,1366.1 5051.2,1373.5 5043.9,1328.3 5090.1,1320.9 		"/>
		
			<rect x="5167.7" y="1373.2" transform="matrix(2.857020e-02 -0.9996 0.9996 2.857020e-02 3646.2537 6545.1831)" class="st25" width="45.7" height="46.8"/>
		
			<rect x="5287.3" y="1424.9" transform="matrix(0.9999 -1.462737e-02 1.462737e-02 0.9999 -20.6088 77.837)" class="st25" width="46.8" height="45.7"/>
		<polygon class="st25" points="5272.1,1528.7 5225.6,1522.9 5231.4,1477.5 5277.9,1483.4 		"/>
		<polygon class="st38" points="5156.1,1521.5 5110,1529.8 5101.9,1484.8 5148,1476.5 		"/>
		<polygon class="st38" points="5452.1,1359.4 5406,1367.7 5397.8,1322.7 5443.9,1314.4 		"/>
	</g>
	<g>
		<g>
			<path class="st12" d="M4224.4,1937.5L4224.4,1937.5H4211v5.5c-3.2,3.3-5.2,7.8-5.2,12.7c0,4.9,2,9.4,5.2,12.7v5.4h11.2
				c0.6,0.1,1.3,0.1,2,0.1c10.1,0,18.3-8.2,18.3-18.2S4234.4,1937.6,4224.4,1937.5z"/>
			<ellipse class="st12" cx="4211" cy="1955.7" rx="18.3" ry="18.2"/>
		</g>
		<g>
			<path class="st12" d="M4395.6,1937.5L4395.6,1937.5h-13.4v5.5c-3.2,3.3-5.2,7.8-5.2,12.7s2,9.4,5.2,12.7v5.4h11.2
				c0.6,0.1,1.3,0.1,2,0.1c10.1,0,18.3-8.2,18.3-18.2S4405.6,1937.6,4395.6,1937.5z"/>
			<ellipse class="st12" cx="4382.2" cy="1955.7" rx="18.3" ry="18.2"/>
		</g>
		<g>
			<path class="st12" d="M3914.7,1937.5L3914.7,1937.5h-13.4v5.5c-3.2,3.3-5.2,7.8-5.2,12.7c0,4.9,2,9.4,5.2,12.7v5.4h11.2
				c0.6,0.1,1.3,0.1,2,0.1c10.1,0,18.3-8.2,18.3-18.2S3924.7,1937.6,3914.7,1937.5z"/>
			<ellipse class="st18" cx="3901.3" cy="1955.7" rx="18.3" ry="18.2"/>
		</g>
		<g>
			<path class="st12" d="M4085.9,1937.5L4085.9,1937.5h-13.4v5.5c-3.2,3.3-5.2,7.8-5.2,12.7s2,9.4,5.2,12.7v5.4h11.2
				c0.6,0.1,1.3,0.1,2,0.1c10.1,0,18.3-8.2,18.3-18.2S4095.9,1937.6,4085.9,1937.5z"/>
			<ellipse class="st18" cx="4072.5" cy="1955.7" rx="18.3" ry="18.2"/>
		</g>
		<g>
			<rect x="4051.9" y="1487" class="st39" width="101.1" height="74.3"/>
			<rect x="4153.1" y="1486.9" class="st40" width="99" height="74.3"/>
			<path class="st18" d="M4227,1502.6h-36.3c-1.8,0-3.2-1.4-3.2-3.2l0,0c0-1.8,1.4-3.2,3.2-3.2h36.3c1.8,0,3.2,1.4,3.2,3.2l0,0
				C4230.2,1501.2,4228.8,1502.6,4227,1502.6z"/>
		</g>
		<g>
			<g>
				<g>
					<rect x="4069.3" y="1526.5" class="st36" width="50.2" height="34.7"/>
					<rect x="4001.7" y="1526.6" class="st23" width="67.7" height="34.7"/>
				</g>
				<rect x="3999" y="1516.2" class="st23" width="70.3" height="10.3"/>
				<rect x="4069.4" y="1516.2" class="st36" width="53.2" height="10.3"/>
			</g>
			<rect x="4001.6" y="1526.5" class="st23" width="117.9" height="5.6"/>
		</g>
		<rect x="4056.4" y="1561.2" class="st41" width="177.7" height="376.2"/>
		<g>
			<g>
				<g>
					<g>
						<g>
							<rect x="4145.7" y="1834" class="st42" width="57.4" height="103.5"/>
							<rect x="4185.1" y="1834" class="st21" width="1.5" height="103.5"/>
							<rect x="4189.4" y="1834" class="st21" width="13.7" height="103.5"/>
						</g>
						<g>
							<rect x="4125.7" y="1841.2" class="st43" width="57.4" height="96.3"/>
							<rect x="4166.5" y="1841.2" class="st44" width="1.2" height="96.3"/>
							<rect x="4169.4" y="1841.2" class="st44" width="13.7" height="96.3"/>
						</g>
					</g>
				</g>
			</g>
			<g>
				<g>
					<g>
						<g>
							<rect x="4103.7" y="1828.6" class="st32" width="57.4" height="108.8"/>
							<rect x="4143.7" y="1828.6" class="st33" width="1" height="108.8"/>
							<rect x="4147.4" y="1828.6" class="st33" width="13.7" height="108.8"/>
						</g>
						<g>
							<rect x="4080" y="1834.6" class="st19" width="57.4" height="102.9"/>
							<rect x="4119.7" y="1834.6" class="st29" width="1.4" height="102.9"/>
							<rect x="4123.7" y="1834.6" class="st29" width="13.7" height="102.9"/>
						</g>
					</g>
				</g>
			</g>
		</g>
		<rect x="4225" y="1561.2" class="st45" width="214.4" height="385.3"/>
		<g>
			<path class="st42" d="M3930.7,1894.4h91.4V1883h-91.4c-1.3,0-2.3,1-2.3,2.3v6.8C3928.4,1893.4,3929.4,1894.4,3930.7,1894.4z"/>
			<path class="st36" d="M3994.5,1894.4h84.4V1883h-84.4c-1.3,0-2.3,1-2.3,2.3v6.8C3992.2,1893.4,3993.2,1894.4,3994.5,1894.4z"/>
		</g>
		<g>
			<path class="st32" d="M3930.3,1914.4h87v-20h-87c-1.6,0-2.8,1.3-2.8,2.8v14.3C3927.4,1913.1,3928.7,1914.4,3930.3,1914.4z"/>
			<path class="st23" d="M3997.1,1914.4h87.8v-20h-87.8c-1.6,0-2.8,1.3-2.8,2.8v14.3C3994.3,1913.1,3995.5,1914.4,3997.1,1914.4z"/>
		</g>
		<g>
			<rect x="4019.5" y="1914.3" class="st40" width="79.4" height="23.1"/>
			<rect x="3912.4" y="1914.4" class="st39" width="107.1" height="23.1"/>
			<rect x="3912.4" y="1915.9" class="st23" width="186.6" height="0.8"/>
			<rect x="3912.4" y="1918.6" class="st23" width="186.6" height="0.8"/>
			<rect x="3912.4" y="1921.4" class="st23" width="186.6" height="0.8"/>
			<rect x="3912.4" y="1924.2" class="st23" width="186.6" height="0.8"/>
			<rect x="3912.4" y="1926.9" class="st23" width="186.6" height="0.8"/>
			<rect x="3912.4" y="1929.7" class="st23" width="186.6" height="0.8"/>
			<rect x="3912.4" y="1932.4" class="st23" width="186.6" height="0.8"/>
			<rect x="3912.4" y="1935.2" class="st23" width="186.6" height="0.8"/>
		</g>
		<g>
			<g>
				<g>
					<g>
						<g>
							<rect x="3985.1" y="1703.6" class="st19" width="48.1" height="105.6"/>
							<rect x="4017.4" y="1703.6" class="st29" width="1.3" height="105.6"/>
							<rect x="4021.7" y="1703.6" class="st29" width="11.5" height="105.6"/>
						</g>
						<rect x="3952.6" y="1700.3" class="st30" width="57.4" height="108.8"/>
						<rect x="3992.3" y="1700.3" class="st31" width="1.1" height="108.8"/>
						<rect x="3996.3" y="1700.3" class="st31" width="13.7" height="108.8"/>
					</g>
					<g>
						<rect x="3928.9" y="1706.2" class="st32" width="57.4" height="102.9"/>
						<rect x="3967.4" y="1706.2" class="st33" width="1.5" height="102.9"/>
						<rect x="3972.6" y="1706.2" class="st33" width="13.7" height="102.9"/>
					</g>
				</g>
			</g>
		</g>
		<rect x="3869.5" y="1685.9" class="st12" width="364.7" height="7.9"/>
		<g>
			<rect x="4103.8" y="1649.1" class="st36" width="90" height="36.8"/>
			<rect x="3982.4" y="1649.1" class="st23" width="121.4" height="36.8"/>
			<rect x="3982.4" y="1651.5" class="st23" width="211.4" height="1.3"/>
			<rect x="3982.4" y="1656" class="st23" width="211.4" height="1.3"/>
			<rect x="3982.4" y="1660.4" class="st23" width="211.4" height="1.3"/>
			<rect x="3982.4" y="1664.8" class="st23" width="211.4" height="1.3"/>
			<rect x="3982.4" y="1669.2" class="st23" width="211.4" height="1.3"/>
			<rect x="3982.4" y="1673.6" class="st23" width="211.4" height="1.3"/>
			<rect x="3982.4" y="1678" class="st23" width="211.4" height="1.3"/>
			<rect x="3982.4" y="1682.4" class="st23" width="211.4" height="1.3"/>
		</g>
		<g>
			<g>
				<g>
					<g>
						<g>
							<rect x="3957.5" y="1586" class="st43" width="62.9" height="99.9"/>
							<rect x="4004.9" y="1586" class="st44" width="15.5" height="99.9"/>
						</g>
					</g>
				</g>
			</g>
			<rect x="4004.8" y="1607.7" class="st36" width="15.6" height="56.3"/>
			<g>
				<ellipse class="st36" cx="4013.1" cy="1596.1" rx="5.1" ry="5.1"/>
				<path class="st43" d="M4016.7,1596.1c0,2-1.6,3.6-3.7,3.6s-3.7-1.6-3.7-3.6s1.6-3.6,3.7-3.6S4016.7,1594.1,4016.7,1596.1z"/>
			</g>
			<g>
				<ellipse class="st36" cx="4013.1" cy="1674.1" rx="5.1" ry="5.1"/>
				<path class="st43" d="M4016.7,1674.1c0,2-1.6,3.6-3.7,3.6s-3.7-1.6-3.7-3.6s1.6-3.6,3.7-3.6S4016.7,1672.1,4016.7,1674.1z"/>
			</g>
		</g>
		<g>
			<g>
				<g>
					<g>
						<g>
							<rect x="3938.4" y="1586" class="st43" width="62.9" height="99.9"/>
							<rect x="3985.7" y="1586" class="st44" width="15.5" height="99.9"/>
						</g>
					</g>
				</g>
			</g>
			<rect x="3985.7" y="1607.7" class="st36" width="15.6" height="56.3"/>
			<g>
				<ellipse class="st36" cx="3993.9" cy="1596.1" rx="5.1" ry="5.1"/>
				<path class="st43" d="M3997.6,1596.1c0,2-1.6,3.6-3.7,3.6s-3.7-1.6-3.7-3.6s1.6-3.6,3.7-3.6S3997.6,1594.1,3997.6,1596.1z"/>
			</g>
			<g>
				<ellipse class="st36" cx="3993.9" cy="1674.1" rx="5.1" ry="5.1"/>
				<path class="st43" d="M3997.6,1674.1c0,2-1.6,3.6-3.7,3.6s-3.7-1.6-3.7-3.6s1.6-3.6,3.7-3.6S3997.6,1672.1,3997.6,1674.1z"/>
			</g>
		</g>
		<g>
			<g>
				<g>
					<g>
						<g>
							<rect x="3919.2" y="1586" class="st43" width="62.9" height="99.9"/>
							<rect x="3966.6" y="1586" class="st44" width="15.5" height="99.9"/>
						</g>
					</g>
				</g>
			</g>
			<rect x="3966.6" y="1607.7" class="st36" width="15.6" height="56.3"/>
			<g>
				<ellipse class="st36" cx="3974.8" cy="1596.1" rx="5.1" ry="5.1"/>
				<path class="st43" d="M3978.5,1596.1c0,2-1.6,3.6-3.7,3.6s-3.7-1.6-3.7-3.6s1.6-3.6,3.7-3.6S3978.5,1594.1,3978.5,1596.1z"/>
			</g>
			<g>
				<ellipse class="st36" cx="3974.8" cy="1674.1" rx="5.1" ry="5.1"/>
				<path class="st43" d="M3978.5,1674.1c0,2-1.6,3.6-3.7,3.6s-3.7-1.6-3.7-3.6s1.6-3.6,3.7-3.6S3978.5,1672.1,3978.5,1674.1z"/>
			</g>
		</g>
		<g>
			<g>
				<g>
					<g>
						<g>
							<rect x="3900.1" y="1586" class="st43" width="62.9" height="99.9"/>
							<rect x="3947.5" y="1586" class="st44" width="15.5" height="99.9"/>
						</g>
					</g>
				</g>
			</g>
			<rect x="3947.4" y="1607.7" class="st36" width="15.6" height="56.3"/>
			<g>
				<ellipse class="st36" cx="3955.7" cy="1596.1" rx="5.1" ry="5.1"/>
				<path class="st43" d="M3959.4,1596.1c0,2-1.6,3.6-3.7,3.6c-2,0-3.7-1.6-3.7-3.6s1.6-3.6,3.7-3.6
					C3957.7,1592.5,3959.4,1594.1,3959.4,1596.1z"/>
			</g>
			<g>
				<ellipse class="st36" cx="3955.7" cy="1674.1" rx="5.1" ry="5.1"/>
				<path class="st43" d="M3959.4,1674.1c0,2-1.6,3.6-3.7,3.6c-2,0-3.7-1.6-3.7-3.6s1.6-3.6,3.7-3.6
					C3957.7,1670.5,3959.4,1672.1,3959.4,1674.1z"/>
			</g>
		</g>
		<rect x="3869.5" y="1809.1" class="st12" width="364.7" height="7.9"/>
		<g>
			<path class="st18" d="M4234.2,1946.6h-177.7v-385.3h177.7V1946.6z M4065.6,1937.5H4225v-367.1h-159.4V1937.5z"/>
		</g>
		<g>
			<path class="st18" d="M4439.4,1946.6H4225v-385.3h214.4V1946.6z M4234.2,1937.5h196.1v-367.1h-196.1V1937.5z"/>
		</g>
		<g>
			<path class="st44" d="M4040.8,1633.5h72.8v-15.6h-72.8c-1.3,0-2.4,1.1-2.4,2.4v10.8C4038.4,1632.4,4039.5,1633.5,4040.8,1633.5z"
				/>
			<path class="st36" d="M4092.1,1633.5h65.4v-15.6h-65.4c-1.3,0-2.4,1.1-2.4,2.4v10.8C4089.7,1632.4,4090.8,1633.5,4092.1,1633.5z"
				/>
		</g>
		<g>
			<path class="st19" d="M4043.3,1649.1h68v-15.6h-68c-1.2,0-2.2,1-2.2,2.2v11.2C4041,1648.1,4042,1649.1,4043.3,1649.1z"/>
			<path class="st23" d="M4095.4,1649.1h57.6v-15.6h-57.6c-1.2,0-2.2,1-2.2,2.2v11.2C4093.2,1648.1,4094.2,1649.1,4095.4,1649.1z"/>
		</g>
		<g>
			<path class="st12" d="M4065.6,1946.6h-196.1v-385.3h196.1V1946.6z M3878.7,1937.5h177.7v-367.1h-177.7V1937.5z"/>
		</g>
		<g>
			<g>
				
					<rect x="3903.1" y="1432.4" transform="matrix(4.842578e-02 -0.9988 0.9988 4.842578e-02 2354.1904 5342.5181)" class="st34" width="155.8" height="6.7"/>
			</g>
			<g>
				<path class="st34" d="M3939.2,1453.1l22.1,3.5c0,0-11.3,16.2-25.2,15.3S3939.2,1453.1,3939.2,1453.1z"/>
			</g>
			<g>
				<path class="st9" d="M3935.8,1513.7c0,20.1,8.2,37.7,20.6,47.6h45.9c12.4-9.9,20.6-27.5,20.6-47.6c0-6.2-0.8-12.2-2.3-17.8H3938
					C3936.6,1501.4,3935.8,1507.4,3935.8,1513.7z"/>
			</g>
			<g>
				<path class="st34" d="M3892.9,1430.4c0,0,58.9,1.4,77.6-10.2c18.7-11.6,17.1-12.4,17.1-12.4l-11.4-6.1L3892.9,1430.4z"/>
			</g>
			<g>
				<path class="st34" d="M3968.6,1377.9c0,0,20.6,25.1,42.9,35.4c22.3,10.3,60.1,13,60.1,13l-80-48.4H3968.6z"/>
			</g>
			<g>
				<path class="st34" d="M3973.7,1362.8l116.2-26.7C4089.9,1336.1,4014,1322.3,3973.7,1362.8z"/>
			</g>
			<g>
				<path class="st34" d="M3882.8,1362.9l77.2,31.6C3960,1394.4,3960,1360.5,3882.8,1362.9z"/>
			</g>
			<g>
				<path class="st34" d="M4004.2,1427c0,0,8.9,32.1,23.6,41.2c14.6,9.1,41.4,11,41.4,11L4004.2,1427z"/>
			</g>
			<g>
				<path class="st34" d="M3972.7,1446l28.8-1.7c0,0-13.2,19-23.8,22.3s-13.6,0.8-13.6,0.8L3972.7,1446z"/>
			</g>
			<g>
				<polygon class="st34" points="3981.2,1443.8 3980.9,1442 4010.6,1435.6 4010.9,1437.4 				"/>
			</g>
			<g>
				<polygon class="st34" points="3979.5,1435.9 3967.8,1411.9 3969.5,1411.1 3981.1,1435.1 				"/>
			</g>
			<g>
				<polygon class="st34" points="3981.1,1479.5 3979.4,1478.9 3991,1448.9 3992.7,1449.5 				"/>
			</g>
			<g>
				<path class="st34" d="M3978.8,1487c-8.4-7.1-30.4-25.7-31.3-26.3l1-1.5c0.9,0.6,28.3,23.8,31.5,26.5L3978.8,1487z"/>
			</g>
			<g>
				<polygon class="st34" points="3981.8,1424 3980.3,1423 3999.5,1393.9 4001,1394.9 				"/>
			</g>
			<g>
				<line class="st46" x1="3996.6" y1="1353.2" x2="3981" y2="1380.7"/>
			</g>
			<g>
				<polygon class="st34" points="3980.4,1421.2 3941.5,1382.1 3942.8,1380.8 3981.7,1419.9 				"/>
			</g>
		</g>
	</g>
	<g>
		<g>
			<g>
				<path class="st42" d="M5057.2,1542.3h66v-8.2h-66c-0.9,0-1.7,0.7-1.7,1.7v4.9C5055.5,1541.5,5056.2,1542.3,5057.2,1542.3z"/>
				<path class="st36" d="M5103.2,1542.3h60.9v-8.2h-60.9c-0.9,0-1.7,0.7-1.7,1.7v4.9C5101.6,1541.5,5102.3,1542.3,5103.2,1542.3z"
					/>
			</g>
			<g>
				<path class="st32" d="M5056.9,1556.7h62.8v-14.4h-62.8c-1.1,0-2,0.9-2,2v10.3C5054.8,1555.8,5055.7,1556.7,5056.9,1556.7z"/>
				<path class="st23" d="M5105.1,1556.7h63.4v-14.4h-63.4c-1.1,0-2,0.9-2,2v10.3C5103.1,1555.8,5104,1556.7,5105.1,1556.7z"/>
			</g>
			<g>
				<rect x="5121.3" y="1556.6" class="st40" width="57.4" height="16.7"/>
				<rect x="5044" y="1556.7" class="st39" width="77.3" height="16.7"/>
				<rect x="5043.9" y="1557.7" class="st23" width="134.7" height="0.6"/>
				<rect x="5043.9" y="1559.7" class="st23" width="134.7" height="0.6"/>
				<rect x="5043.9" y="1561.7" class="st23" width="134.7" height="0.6"/>
				<rect x="5043.9" y="1563.7" class="st23" width="134.7" height="0.6"/>
				<rect x="5043.9" y="1565.7" class="st23" width="134.7" height="0.6"/>
				<rect x="5043.9" y="1567.7" class="st23" width="134.7" height="0.6"/>
				<rect x="5043.9" y="1569.7" class="st23" width="134.7" height="0.6"/>
				<rect x="5043.9" y="1571.7" class="st23" width="134.7" height="0.6"/>
			</g>
		</g>
		<g>
			<rect x="5030.3" y="1710.7" class="st25" width="13.3" height="263.2"/>
			<rect x="4936.2" y="1710.7" class="st25" width="13.3" height="263.2"/>
			<rect x="4867" y="1710.7" class="st24" width="13.3" height="263.2"/>
			<path class="st47" d="M5034.6,1663.5H4876c-5,0-9,4-9,9v38.2h176.6v-38.2C5043.6,1667.5,5039.6,1663.5,5034.6,1663.5z"/>
			<path class="st48" d="M5036.6,1663.5h-93.3c-3.9,0-7,3.1-7,7v40.2h107.4v-40.2C5043.6,1666.6,5040.5,1663.5,5036.6,1663.5z"/>
			<rect x="4867" y="1885.1" class="st24" width="69.2" height="13.3"/>
			<rect x="4936.2" y="1885.1" class="st25" width="107.4" height="13.3"/>
			<rect x="4867" y="1728.7" class="st24" width="69.2" height="13.3"/>
			<rect x="4936.2" y="1728.7" class="st25" width="107.4" height="13.3"/>
		</g>
		<g>
			<rect x="5354.5" y="1710.8" class="st25" width="13.3" height="263.2"/>
			<rect x="5448.5" y="1710.8" class="st25" width="13.3" height="263.2"/>
			<rect x="5517.8" y="1710.8" class="st24" width="13.3" height="263.2"/>
			<path class="st26" d="M5363.5,1663.5H5522c5,0,9,4,9,9v38.2h-176.6v-38.2C5354.4,1667.5,5358.5,1663.5,5363.5,1663.5z"/>
			<path class="st27" d="M5361.5,1663.5h93.3c3.9,0,7,3.1,7,7v40.2h-107.4v-40.2C5354.4,1666.6,5357.6,1663.5,5361.5,1663.5z"/>
			<rect x="5461.9" y="1885" class="st24" width="69.2" height="13.3"/>
			<rect x="5354.5" y="1885" class="st25" width="107.4" height="13.3"/>
			<rect x="5461.9" y="1728.6" class="st24" width="69.2" height="13.3"/>
			<rect x="5354.5" y="1728.6" class="st25" width="107.4" height="13.3"/>
		</g>
		<g>
			<rect x="4657.6" y="1710.7" class="st25" width="13.3" height="263.2"/>
			<rect x="4563.5" y="1710.7" class="st25" width="13.3" height="263.2"/>
			<rect x="4494.3" y="1710.7" class="st24" width="13.3" height="263.2"/>
			<path class="st49" d="M4655.7,1663.5h-146.2c-8.4,0-15.2,6.8-15.2,15.1v32.1h176.6v-32.1
				C4670.9,1670.3,4664.1,1663.5,4655.7,1663.5z"/>
			<path class="st50" d="M4659.1,1663.5h-83.7c-6.5,0-11.8,5.3-11.8,11.8v35.4H4671v-35.4
				C4670.9,1668.8,4665.6,1663.5,4659.1,1663.5z"/>
			<rect x="4494.3" y="1885.1" class="st24" width="69.2" height="13.3"/>
			<rect x="4563.5" y="1885.1" class="st25" width="107.4" height="13.3"/>
			<rect x="4494.3" y="1728.7" class="st24" width="69.2" height="13.3"/>
			<rect x="4563.5" y="1728.7" class="st25" width="107.4" height="13.3"/>
		</g>
		<g>
			<g>
				<rect x="4652.9" y="1573.3" class="st51" width="726.6" height="19.9"/>
				<rect x="4652.9" y="1573.3" class="st15" width="260.5" height="19.9"/>
				<polygon class="st25" points="4864.8,1593.2 4862.4,1613.3 4861.4,1621.3 4860.5,1628.5 4818.2,1974 4797.8,1974 4840.1,1628.5 
					4841,1621.3 4842,1613.3 4844.4,1593.2 				"/>
				<polygon class="st25" points="4752.8,1593.2 4750.3,1613.3 4749.4,1621.3 4748.5,1628.5 4706.1,1974 4685.7,1974 4728,1628.5 
					4728.9,1621.3 4729.9,1613.3 4732.4,1593.2 				"/>
				<polygon class="st24" points="5229.3,1974 5208.9,1974 5166.5,1628.5 5165.6,1621.3 5164.7,1613.3 5162.2,1593.2 5182.6,1593.2 
					5185.1,1613.3 5186.1,1621.3 5187,1628.5 				"/>
				<polygon class="st24" points="5341.3,1974 5320.9,1974 5278.6,1628.5 5277.7,1621.3 5276.7,1613.3 5274.2,1593.2 5294.7,1593.2 
					5297.1,1613.3 5298.1,1621.3 5299,1628.5 				"/>
			</g>
			<polygon class="st28" points="4732.4,1593.2 4752.8,1593.2 4750.3,1613.3 4729.9,1613.3 			"/>
			<polygon class="st28" points="4844.4,1593.2 4864.8,1593.2 4862.4,1613.3 4842,1613.3 			"/>
			<polygon class="st28" points="5182.6,1593.2 5185.1,1613.3 5164.7,1613.3 5162.2,1593.2 			"/>
			<polygon class="st28" points="5297.1,1613.3 5276.7,1613.3 5274.2,1593.2 5294.7,1593.2 			"/>
			<polygon class="st28" points="4728.9,1621.3 4749.4,1621.3 4748.5,1628.5 4728,1628.5 			"/>
			<polygon class="st28" points="4841,1621.3 4861.4,1621.3 4860.5,1628.5 4840.1,1628.5 			"/>
			<polygon class="st28" points="5186.1,1621.3 5187,1628.5 5166.5,1628.5 5165.6,1621.3 			"/>
			<polygon class="st28" points="5299,1628.5 5278.6,1628.5 5277.7,1621.3 5298.1,1621.3 			"/>
		</g>
		<g>
			<g>
				<path class="st34" d="M4879.4,1504.9c0-1.7-0.5-21.3-0.2-43.9c-0.3-17.9-1.1-38.3-2.5-55.5c-2.1-24.7-7.8-31.8-10.9-33.8
					c-2-1.3-3.5-0.9-3.6-0.9l-1.1-3c0.3-0.1,3-1,6.4,1.2c6.5,4.2,10.7,16.4,12.4,36.3c0.4,4.3,0.7,8.8,1,13.5
					c0.8-10.1,2-18.5,3.7-23.6c2.5-7.7,6.3-12.3,11.3-13.8c7-2.1,13.5,2.9,13.8,3.1l-2,2.5c-0.1,0-5.5-4.2-10.9-2.5
					c-3.9,1.2-7,5.1-9.1,11.7c-3.7,11.3-4.9,40.5-5.2,65.8c0.4,23.7,0.2,42.6,0.2,43L4879.4,1504.9z"/>
			</g>
			<g>
				<path class="st34" d="M4913.8,1510.7l-3.1-1c0.7-1.9,16.1-47.2,27.3-65.9c2.9-4.9,6.8-7.6,11.6-8.3
					c11.6-1.5,24.1,10.4,24.6,10.9l-2.3,2.3c-0.1-0.1-11.9-11.4-21.9-10c-3.8,0.5-6.8,2.7-9.2,6.7
					C4929.8,1463.8,4913.9,1510.3,4913.8,1510.7z"/>
			</g>
			<g>
				<polygon class="st34" points="4903.5,1505.3 4900.3,1504.4 4913.6,1455.1 4916.7,1455.9 				"/>
			</g>
			<g>
				<rect x="4886.9" y="1439.7" class="st34" width="3.2" height="56.6"/>
			</g>
			<g>
				<path class="st34" d="M4875.3,1505c0-0.4-2.7-35.7-11.7-72.7c-4.6-19.1-10.5-24.9-14.6-26.3c-3.7-1.3-6.4,0.7-6.6,0.8l-2-2.6
					c0.2-0.1,4.2-3.1,9.5-1.3c7.1,2.5,12.7,12.1,16.7,28.6c9.1,37.3,11.7,72.9,11.8,73.2L4875.3,1505z"/>
			</g>
			<g>
				<path class="st34" d="M4865.7,1510.5c0-0.2-3.4-21.1-15.4-60.6c-3.2-10.5-7.3-16.3-11.7-16.6c-0.2,0-0.3,0-0.5,0
					c-6.9,0-14.4,12.1-16.8,16.9l-2.9-1.4c0.4-0.8,9.8-19.6,20.4-18.7c6,0.5,10.8,6.7,14.5,18.9c12.1,39.7,15.5,60.8,15.5,61
					L4865.7,1510.5z"/>
			</g>
			<path class="st40" d="M4939.4,1549.7v-53.3H4848v53.3c0,9.4,4,18,10.4,24h70.7C4935.4,1567.7,4939.4,1559.2,4939.4,1549.7z"/>
			<path class="st34" d="M4901,1450.3c-11.2,17.4-31.1,24.6-44.5,16.1s-15.2-29.5-4-47s31.9-27.7,38.2-6.3
				C4912.6,1407.6,4912.2,1432.9,4901,1450.3z"/>
			<path class="st34" d="M4834.3,1457.9c0.6,16.1-5.4,29.3-13.3,29.6c-7.9,0.3-14.8-12.5-15.4-28.6s4.9-31.6,13.6-20.6
				C4826.5,1425.3,4833.7,1441.8,4834.3,1457.9z"/>
			<path class="st34" d="M4945.4,1448.1c11,12.4,12.2,29.2,2.7,37.5s-26.1,5.1-37.1-7.3s-14.3-30.5,3.5-30.6
				C4915,1429.9,4934.4,1435.7,4945.4,1448.1z"/>
			<path class="st34" d="M4983.8,1455.3c0.4,12-4,21.9-10,22.2c-5.9,0.2-11.1-9.4-11.5-21.4s3.6-23.7,10.2-15.4
				C4978,1431,4983.4,1443.3,4983.8,1455.3z"/>
			<path class="st34" d="M4936.6,1388c14.5,13.7,20.7,30.5,13.9,37.6c-6.7,7.1-23.9,1.7-38.4-12s-23.2-32.1-5.8-29.9
				C4901.5,1366,4922.1,1374.3,4936.6,1388z"/>
			<path class="st34" d="M4844.3,1416.3c-5.2,8.6-13,13.6-17.2,11c-4.3-2.6-3.5-11.7,1.8-20.3c5.2-8.6,13.5-15,14.3-6.1
				C4851.4,1396.5,4849.5,1407.6,4844.3,1416.3z"/>
			<path class="st34" d="M4873.7,1386c-6.8,10.6-18.9,15-27,9.8s-9.2-17.9-2.4-28.5s19.4-16.8,23.2-3.9
				C4880.7,1360.1,4880.5,1375.5,4873.7,1386z"/>
		</g>
		<g>
			<g>
				<g>
					<g>
						<g>
							<g>
								<rect x="5017.8" y="1467.6" class="st43" width="66.6" height="105.7"/>
								<rect x="5067.9" y="1467.6" class="st44" width="16.4" height="105.7"/>
							</g>
						</g>
					</g>
				</g>
				<rect x="5067.9" y="1490.5" class="st36" width="16.5" height="59.6"/>
				<g>
					<path class="st36" d="M5082,1478.3c0,3-2.4,5.4-5.4,5.4s-5.4-2.4-5.4-5.4s2.4-5.4,5.4-5.4S5082,1475.3,5082,1478.3z"/>
					<path class="st43" d="M5080.5,1478.3c0,2.1-1.7,3.9-3.9,3.9s-3.9-1.7-3.9-3.9c0-2.1,1.7-3.9,3.9-3.9
						S5080.5,1476.1,5080.5,1478.3z"/>
				</g>
				<g>
					<path class="st36" d="M5082,1560.8c0,3-2.4,5.4-5.4,5.4s-5.4-2.4-5.4-5.4s2.4-5.4,5.4-5.4S5082,1557.9,5082,1560.8z"/>
					<path class="st43" d="M5080.5,1560.8c0,2.1-1.7,3.9-3.9,3.9s-3.9-1.7-3.9-3.9c0-2.1,1.7-3.9,3.9-3.9
						S5080.5,1558.7,5080.5,1560.8z"/>
				</g>
			</g>
			<g>
				<g>
					<g>
						<g>
							<g>
								<rect x="4997.5" y="1467.6" class="st19" width="66.6" height="105.7"/>
								<rect x="5047.7" y="1467.6" class="st29" width="16.4" height="105.7"/>
							</g>
						</g>
					</g>
				</g>
				<rect x="5047.6" y="1490.5" class="st36" width="16.5" height="59.6"/>
				<g>
					<ellipse class="st36" cx="5056.3" cy="1478.3" rx="5.4" ry="5.4"/>
					<path class="st19" d="M5060.2,1478.3c0,2.1-1.7,3.9-3.9,3.9s-3.9-1.7-3.9-3.9c0-2.1,1.7-3.9,3.9-3.9
						S5060.2,1476.1,5060.2,1478.3z"/>
				</g>
				<g>
					<ellipse class="st36" cx="5056.3" cy="1560.8" rx="5.4" ry="5.4"/>
					<path class="st19" d="M5060.2,1560.8c0,2.1-1.7,3.9-3.9,3.9s-3.9-1.7-3.9-3.9c0-2.1,1.7-3.9,3.9-3.9
						S5060.2,1558.7,5060.2,1560.8z"/>
				</g>
			</g>
		</g>
	</g>
	<rect x="3784.3" y="678.5" class="st6" width="1810.1" height="106.9"/>
	<g>
		<path class="st5" d="M3953.9,1171.8h180.4c0,0-43.8-54.7-90.2-54.7S3953.9,1171.8,3953.9,1171.8z"/>
		<rect x="4041.4" y="738.3" class="st5" width="5.3" height="419.3"/>
	</g>
	<polygon class="st9" points="4312.8,327.1 5303,327.1 5528.1,366.8 4537.9,366.8 	"/>
	<polygon class="st9" points="2745.6,327.1 3735.8,327.1 3960.9,366.8 2970.7,366.8 	"/>
	<polygon class="st9" points="1178.5,327.1 2168.7,327.1 2393.7,366.8 1403.5,366.8 	"/>
	<polygon class="st9" points="601.5,327.1 826.6,366.8 -163.6,366.8 -183.2,360.4 -183.2,327.1 	"/>
	<g>
		<rect x="3784.3" y="678.5" class="st52" width="1810.1" height="1295.5"/>
		<rect x="3784.3" y="678.5" class="st3" width="1810.1" height="59.8"/>
		<g>
			<g>
				<rect x="4987.4" y="738.2" class="st12" width="16.6" height="1235.7"/>
			</g>
			<g>
				<rect x="4374.7" y="738.2" class="st12" width="16.6" height="1235.7"/>
			</g>
		</g>
	</g>
	<g class="st53">
		
			<linearGradient id="SVGID_00000083065052588245023010000016994011463639785889_" gradientUnits="userSpaceOnUse" x1="4146" y1="3725.2227" x2="4146" y2="4298.541" gradientTransform="matrix(1 0 0 1 0 -2834.0002)">
			<stop  offset="0" style="stop-color:#FFFFFF"/>
			<stop  offset="1" style="stop-color:#000000"/>
		</linearGradient>
		<polygon style="fill:url(#SVGID_00000083065052588245023010000016994011463639785889_);" points="4507.7,678.5 3784.3,1399 
			3784.3,1166.8 4274.6,678.5 		"/>
		
			<linearGradient id="SVGID_00000075162048020091161150000013259760238530515131_" gradientUnits="userSpaceOnUse" x1="4936.3999" y1="3616.8672" x2="4936.3999" y2="4647.7158" gradientTransform="matrix(1 0 0 1 0 -2834.0002)">
			<stop  offset="0" style="stop-color:#FFFFFF"/>
			<stop  offset="1" style="stop-color:#000000"/>
		</linearGradient>
		<polygon style="fill:url(#SVGID_00000075162048020091161150000013259760238530515131_);" points="5594.4,678.5 5594.4,895.5 
			4511.5,1974 4278.4,1974 5579.2,678.5 		"/>
		
			<linearGradient id="SVGID_00000024699162233960636030000009554537226878380215_" gradientUnits="userSpaceOnUse" x1="5146.5996" y1="3933.2615" x2="5146.5996" y2="4594.3003" gradientTransform="matrix(1 0 0 1 0 -2834.0002)">
			<stop  offset="0" style="stop-color:#FFFFFF"/>
			<stop  offset="1" style="stop-color:#000000"/>
		</linearGradient>
		<polygon style="fill:url(#SVGID_00000024699162233960636030000009554537226878380215_);" points="5594.4,1082.1 5594.4,1570 
			5188.7,1974 4698.8,1974 		"/>
		
			<linearGradient id="SVGID_00000036213225007030238500000014951380563287307454_" gradientUnits="userSpaceOnUse" x1="4475.5" y1="3758.5095" x2="4475.5" y2="4701.3857" gradientTransform="matrix(1 0 0 1 0 -2834.0002)">
			<stop  offset="0" style="stop-color:#FFFFFF"/>
			<stop  offset="1" style="stop-color:#000000"/>
		</linearGradient>
		<polygon style="fill:url(#SVGID_00000036213225007030238500000014951380563287307454_);" points="5166.7,678.5 3865.9,1974 
			3784.3,1974 3784.3,1498.7 4608,678.5 		"/>
	</g>
	<g>
		<rect x="142.2" y="678.4" class="st52" width="1810.1" height="1295.5"/>
		<rect x="142.2" y="678.5" class="st3" width="1810.1" height="59.8"/>
		<g>
			<g>
				<rect x="1345.3" y="738.2" class="st12" width="16.6" height="1235.7"/>
			</g>
			<g>
				<rect x="732.6" y="738.2" class="st12" width="16.6" height="1235.7"/>
			</g>
		</g>
	</g>
	<g class="st53">
		
			<linearGradient id="SVGID_00000068672287662453460680000006067286648320911286_" gradientUnits="userSpaceOnUse" x1="411.5" y1="3670.8496" x2="411.5" y2="4097.6523" gradientTransform="matrix(1 0 0 1 0 -2834.0002)">
			<stop  offset="0" style="stop-color:#FFFFFF"/>
			<stop  offset="1" style="stop-color:#000000"/>
		</linearGradient>
		<polygon style="fill:url(#SVGID_00000068672287662453460680000006067286648320911286_);" points="680.8,678.5 142.2,1214.8 
			142.2,982.7 447.7,678.5 		"/>
		
			<linearGradient id="SVGID_00000054971108720919843280000005288895502835551912_" gradientUnits="userSpaceOnUse" x1="1201.85" y1="3616.8672" x2="1201.85" y2="4647.7158" gradientTransform="matrix(1 0 0 1 0 -2834.0002)">
			<stop  offset="0" style="stop-color:#FFFFFF"/>
			<stop  offset="1" style="stop-color:#000000"/>
		</linearGradient>
		<polygon style="fill:url(#SVGID_00000054971108720919843280000005288895502835551912_);" points="1952.3,678.5 1952.3,711.4 
			684.5,1974 451.4,1974 1752.3,678.5 		"/>
		
			<linearGradient id="SVGID_00000037663710231560034560000010648223362931937454_" gradientUnits="userSpaceOnUse" x1="1412.1001" y1="3752.6736" x2="1412.1001" y2="4550.1885" gradientTransform="matrix(1 0 0 1 0 -2834.0002)">
			<stop  offset="0" style="stop-color:#FFFFFF"/>
			<stop  offset="1" style="stop-color:#000000"/>
		</linearGradient>
		<polygon style="fill:url(#SVGID_00000037663710231560034560000010648223362931937454_);" points="1952.3,898 1952.3,1385.8 
			1361.8,1974 871.9,1974 		"/>
		
			<linearGradient id="SVGID_00000093170750939916768360000015055808036408693429_" gradientUnits="userSpaceOnUse" x1="740.95" y1="3738.9688" x2="740.95" y2="4606.9634" gradientTransform="matrix(1 0 0 1 0 -2834.0002)">
			<stop  offset="0" style="stop-color:#FFFFFF"/>
			<stop  offset="1" style="stop-color:#000000"/>
		</linearGradient>
		<polygon style="fill:url(#SVGID_00000093170750939916768360000015055808036408693429_);" points="1339.7,678.5 142.2,1871.1 
			142.2,1314.6 781,678.5 		"/>
	</g>
	<g>
		<rect x="2908.8" y="772.5" class="st1" width="579.9" height="1201.5"/>
		<rect x="2952.6" y="819.5" class="st62" width="488.9" height="1154.5"/>
		<rect x="3065.6" y="943.7" class="st10" width="263" height="622.9"/>
		<path class="st10" d="M2992,1633.8h25.7c2.2,0,4-1.8,4-4v-59.2c0-2.2-1.8-4-4-4H2992c-2.2,0-4,1.8-4,4v59.2
			C2988,1632,2989.8,1633.8,2992,1633.8z"/>
		<g>
			<path class="st3" d="M3326.9,1902.2h-259.6v-266.5h259.6V1902.2z M3077.4,1892.1h239.4v-246.4h-239.4V1892.1z"/>
		</g>
	</g>
	<g class="st53">
		
			<linearGradient id="SVGID_00000057830208431173649280000015896422825038564521_" gradientUnits="userSpaceOnUse" x1="3178.6499" y1="3844.2256" x2="3178.6499" y2="4023.3926" gradientTransform="matrix(1 0 0 1 0 -2834.0002)">
			<stop  offset="0" style="stop-color:#FFFFFF"/>
			<stop  offset="1" style="stop-color:#000000"/>
		</linearGradient>
		<polygon style="fill:url(#SVGID_00000057830208431173649280000015896422825038564521_);" points="3291.7,943.7 3065.6,1168.9 
			3065.6,1077.7 3200.1,943.7 		"/>
		
			<linearGradient id="SVGID_00000002372211503122161370000002992476395039087762_" gradientUnits="userSpaceOnUse" x1="3197.1001" y1="3871.4104" x2="3197.1001" y2="4221.0498" gradientTransform="matrix(1 0 0 1 0 -2834.0002)">
			<stop  offset="0" style="stop-color:#FFFFFF"/>
			<stop  offset="1" style="stop-color:#000000"/>
		</linearGradient>
		<polygon style="fill:url(#SVGID_00000002372211503122161370000002992476395039087762_);" points="3328.6,946.2 3328.6,1164.7 
			3065.6,1426.6 3065.6,1208.1 		"/>
	</g>
	<g>
		<g>
			<g>
				<rect x="2218.6" y="939.9" class="st9" width="152.2" height="212.8"/>
			</g>
			<g>
				<path class="st12" d="M2216.4,1154.9h156.7V937.5h-156.7V1154.9z M2368.5,1150.4h-147.6V942.1h147.6V1150.4z"/>
			</g>
		</g>
		<g>
			<g>
				<rect x="2242.9" y="969.4" class="st65" width="103.6" height="153.2"/>
			</g>
		</g>
	</g>
	<g>
		<g>
			<g>
				<rect x="2643.6" y="769.8" class="st9" width="152.2" height="212.8"/>
			</g>
			<g>
				<path class="st12" d="M2641.4,984.9h156.7V767.5h-156.7V984.9z M2793.6,980.3H2646V772.1h147.6V980.3z"/>
			</g>
		</g>
		<g>
			<g>
				<rect x="2667.9" y="799.4" class="st65" width="103.6" height="153.2"/>
			</g>
		</g>
	</g>
	<g>
		<g>
			<g>
				<rect x="2429.5" y="1034.2" class="st9" width="214.6" height="342"/>
			</g>
			<g>
				<path class="st12" d="M2426.6,1379.1H2647v-347.9h-220.4V1379.1z M2641.1,1373.3h-208.7v-336.2h208.7V1373.3z"/>
			</g>
		</g>
		<g>
			<rect x="2492.3" y="1129.8" class="st0" width="89.1" height="150.6"/>
		</g>
	</g>
	<g>
		<rect x="4470.4" y="184.3" class="st66" width="219" height="1789.7"/>
		<rect x="4470.3" y="184.3" class="st67" width="104.3" height="1789.7"/>
	</g>
	<g>
		<rect x="1562.9" y="184.3" class="st66" width="219" height="1789.7"/>
		<rect x="1562.9" y="184.3" class="st67" width="104.3" height="1789.7"/>
	</g>
	
		<linearGradient id="SVGID_00000069360152579785976640000012030479217221598102_" gradientUnits="userSpaceOnUse" x1="2705.5999" y1="4842.1943" x2="2705.5999" y2="5614.981" gradientTransform="matrix(1 0 0 1 0 -2834.0002)">
		<stop  offset="0" style="stop-color:#9FB5E0"/>
		<stop  offset="1" style="stop-color:#8399C4"/>
	</linearGradient>
	
		<rect x="-183.2" y="1974" style="fill:url(#SVGID_00000069360152579785976640000012030479217221598102_);" width="5777.6" height="880.4"/>
	<g>
		<g>
			<rect x="3919.3" y="1223.8" class="st38" width="1675.1" height="1023"/>
			<polygon class="st9" points="3907.6,1212.1 5594.4,1212.1 5594.4,1252.2 3942.8,1252.2 3942.8,2201.6 5594.4,2201.6 
				5594.4,2258.4 3907.6,2258.4 			"/>
			<rect x="3904.2" y="1252.2" class="st69" width="1690.2" height="7"/>
		</g>
	</g>
	<g>
		<g>
			<rect x="-183.2" y="1223.3" class="st38" width="455.3" height="1023"/>
			<polygon class="st9" points="248.6,2201.1 248.6,1251.7 -183.2,1251.7 -183.2,1211.7 283.8,1211.7 283.8,2258 -183.2,2258 
				-183.2,2201.1 			"/>
			<rect x="-183.2" y="1251.7" class="st69" width="470.4" height="7"/>
		</g>
	</g>
	<rect x="2456.3" y="2262.3" class="st70" width="395.2" height="104.6"/>
	<g>
		<g>
			<g>
				<g>
					<g>
						<rect x="2685.6" y="2205" class="st18" width="10.9" height="161.9"/>
					</g>
					<g>
						<rect x="3053.8" y="2205" class="st18" width="10.9" height="161.9"/>
					</g>
					<g>
						<rect x="2455.4" y="2205" class="st12" width="10.9" height="161.9"/>
					</g>
					<rect x="2455.4" y="2205" class="st12" width="230.2" height="62.3"/>
					<rect x="2685.6" y="2205" class="st18" width="379.1" height="62.3"/>
				</g>
				<rect x="2523" y="1703.8" class="st67" width="541.7" height="501.3"/>
				<rect x="2455.4" y="1703.7" class="st27" width="230.2" height="501.3"/>
			</g>
			<g>
				<rect x="2666.6" y="1703.7" class="st26" width="4.7" height="501.3"/>
			</g>
			<g>
				<rect x="2668.9" y="1821.6" class="st26" width="395.8" height="4.7"/>
			</g>
			<g>
				<rect x="2668.9" y="1953" class="st26" width="395.8" height="4.7"/>
			</g>
			<g>
				<rect x="2668.9" y="2084.5" class="st26" width="395.8" height="4.7"/>
			</g>
		</g>
		<g>
			<rect x="2848.7" y="1639.5" class="st36" width="156.8" height="64.2"/>
			<rect x="2637.2" y="1639.5" class="st23" width="211.4" height="64.2"/>
			<rect x="2637.3" y="1643.8" class="st23" width="368.2" height="2.3"/>
			<rect x="2637.3" y="1651.5" class="st23" width="368.2" height="2.3"/>
			<rect x="2637.3" y="1659.1" class="st23" width="368.2" height="2.3"/>
			<rect x="2637.3" y="1666.8" class="st23" width="368.2" height="2.3"/>
			<rect x="2637.3" y="1674.5" class="st23" width="368.2" height="2.3"/>
			<rect x="2637.3" y="1682.1" class="st23" width="368.2" height="2.3"/>
			<rect x="2637.3" y="1689.8" class="st23" width="368.2" height="2.3"/>
			<rect x="2637.3" y="1697.5" class="st23" width="368.2" height="2.3"/>
		</g>
		<g>
			<g>
				<g>
					<g>
						<g>
							<rect x="2593.8" y="1529.6" class="st71" width="109.6" height="174.1"/>
							<rect x="2676.3" y="1529.6" class="st72" width="27.1" height="174.1"/>
						</g>
					</g>
				</g>
			</g>
			<rect x="2676.3" y="1567.4" class="st36" width="27.1" height="98"/>
			<g>
				<path class="st36" d="M2699.5,1547.2c0,4.9-4,8.8-8.8,8.8s-8.8-3.9-8.8-8.8s4-8.8,8.8-8.8S2699.5,1542.3,2699.5,1547.2z"/>
				<path class="st71" d="M2697,1547.2c0,3.5-2.9,6.4-6.4,6.4s-6.4-2.8-6.4-6.4c0-3.5,2.9-6.4,6.4-6.4
					C2694.2,1540.8,2697,1543.7,2697,1547.2z"/>
			</g>
			<g>
				<path class="st36" d="M2699.5,1683.1c0,4.9-4,8.8-8.8,8.8s-8.8-3.9-8.8-8.8s4-8.8,8.8-8.8S2699.5,1678.2,2699.5,1683.1z"/>
				<path class="st71" d="M2697,1683.1c0,3.5-2.9,6.4-6.4,6.4s-6.4-2.8-6.4-6.4c0-3.5,2.9-6.4,6.4-6.4
					C2694.2,1676.7,2697,1679.6,2697,1683.1z"/>
			</g>
		</g>
		<g>
			<g>
				<g>
					<g>
						<g>
							<rect x="2560.5" y="1529.6" class="st71" width="109.6" height="174.1"/>
							<rect x="2643" y="1529.6" class="st72" width="27.1" height="174.1"/>
						</g>
					</g>
				</g>
			</g>
			<rect x="2642.9" y="1567.4" class="st36" width="27.1" height="98"/>
			<g>
				<ellipse class="st36" cx="2657.3" cy="1547.2" rx="8.8" ry="8.8"/>
				<path class="st71" d="M2663.7,1547.2c0,3.5-2.9,6.4-6.4,6.4s-6.4-2.8-6.4-6.4c0-3.5,2.9-6.4,6.4-6.4
					S2663.7,1543.7,2663.7,1547.2z"/>
			</g>
			<g>
				<ellipse class="st36" cx="2657.3" cy="1683.1" rx="8.8" ry="8.8"/>
				<path class="st71" d="M2663.7,1683.1c0,3.5-2.9,6.4-6.4,6.4s-6.4-2.8-6.4-6.4c0-3.5,2.9-6.4,6.4-6.4
					S2663.7,1679.6,2663.7,1683.1z"/>
			</g>
		</g>
		<g>
			<g>
				<g>
					<g>
						<g>
							<rect x="2527.2" y="1529.6" class="st71" width="109.6" height="174.1"/>
							<rect x="2609.7" y="1529.6" class="st72" width="27.1" height="174.1"/>
						</g>
					</g>
				</g>
			</g>
			<rect x="2609.6" y="1567.4" class="st36" width="27.1" height="98"/>
			<g>
				<ellipse class="st36" cx="2624" cy="1547.2" rx="8.8" ry="8.8"/>
				<path class="st71" d="M2630.4,1547.2c0,3.5-2.9,6.4-6.4,6.4s-6.4-2.8-6.4-6.4c0-3.5,2.9-6.4,6.4-6.4
					C2627.5,1540.8,2630.4,1543.7,2630.4,1547.2z"/>
			</g>
			<g>
				<ellipse class="st36" cx="2624" cy="1683.1" rx="8.8" ry="8.8"/>
				<path class="st71" d="M2630.4,1683.1c0,3.5-2.9,6.4-6.4,6.4s-6.4-2.8-6.4-6.4c0-3.5,2.9-6.4,6.4-6.4
					S2630.4,1679.6,2630.4,1683.1z"/>
			</g>
		</g>
		<g>
			<g>
				<g>
					<g>
						<g>
							<rect x="2493.9" y="1529.6" class="st71" width="109.6" height="174.1"/>
							<rect x="2576.4" y="1529.6" class="st72" width="27.1" height="174.1"/>
						</g>
					</g>
				</g>
			</g>
			<rect x="2576.3" y="1567.4" class="st36" width="27.1" height="98"/>
			<g>
				<ellipse class="st36" cx="2590.7" cy="1547.2" rx="8.8" ry="8.8"/>
				<path class="st71" d="M2597.1,1547.2c0,3.5-2.9,6.4-6.4,6.4s-6.4-2.8-6.4-6.4c0-3.5,2.9-6.4,6.4-6.4
					C2594.2,1540.8,2597.1,1543.7,2597.1,1547.2z"/>
			</g>
			<g>
				<ellipse class="st36" cx="2590.7" cy="1683.1" rx="8.8" ry="8.8"/>
				<path class="st71" d="M2597.1,1683.1c0,3.5-2.9,6.4-6.4,6.4s-6.4-2.8-6.4-6.4c0-3.5,2.9-6.4,6.4-6.4
					C2594.2,1676.7,2597.1,1679.6,2597.1,1683.1z"/>
			</g>
		</g>
		<g>
			<path class="st44" d="M2739,1612.4h126.8v-27.1H2739c-2.3,0-4.2,1.9-4.2,4.2v18.8C2734.8,1610.5,2736.7,1612.4,2739,1612.4z"/>
			<path class="st36" d="M2828.3,1612.4h113.9v-27.1h-113.9c-2.3,0-4.2,1.9-4.2,4.2v18.8C2824.1,1610.5,2826,1612.4,2828.3,1612.4z"
				/>
		</g>
		<g>
			<path class="st19" d="M2743.2,1639.5h118.4v-27.1h-118.4c-2.1,0-3.8,1.7-3.8,3.8v19.4C2739.4,1637.8,2741.1,1639.5,2743.2,1639.5
				z"/>
			<path class="st23" d="M2834.1,1639.5h100.3v-27.1h-100.3c-2.1,0-3.8,1.7-3.8,3.8v19.4C2830.3,1637.8,2832,1639.5,2834.1,1639.5z"
				/>
		</g>
	</g>
	<rect x="2851.5" y="2366.9" class="st70" width="2742.9" height="63.7"/>
	<rect x="5594.4" y="2366.9" class="st70" width="0" height="63.7"/>
	<g>
		<rect x="2863.1" y="1332.3" class="st38" width="2731.2" height="1023"/>
		<polygon class="st9" points="2851.5,1320.6 5594.4,1320.6 5594.4,1360.7 2886.6,1360.7 2886.6,2310 5594.4,2310 5594.4,2366.9 
			2851.5,2366.9 		"/>
		<rect x="5594.4" y="1320.6" class="st9" width="0" height="40.1"/>
		<rect x="5594.4" y="2310" class="st9" width="0" height="56.9"/>
		<rect x="2848.1" y="1360.7" class="st69" width="2746.3" height="7"/>
		<rect x="5594.4" y="1360.7" class="st69" width="0" height="7"/>
	</g>
	<g>
		<g>
			<rect x="3127.9" y="1417.5" class="st36" width="549.3" height="389.2"/>
		</g>
		<rect x="3424.6" y="1480.2" class="st9" width="173.1" height="265.6"/>
		<rect x="3190.3" y="1490.3" class="st9" width="179.4" height="147.9"/>
		<polygon class="st25" points="3563.3,1624.8 3613.5,1632.8 3621.4,1583.8 3571.2,1575.8 		"/>
		
			<rect x="3528.4" y="1635.6" transform="matrix(0.9996 -2.857153e-02 2.857153e-02 0.9996 -45.9897 102.2162)" class="st73" width="50.8" height="49.6"/>
		
			<rect x="3342.3" y="1524.4" transform="matrix(0.9996 -2.857153e-02 2.857153e-02 0.9996 -42.8885 96.8536)" class="st25" width="50.8" height="49.6"/>
		
			<rect x="3221.3" y="1666.6" transform="matrix(1.462620e-02 -0.9999 0.9999 1.462620e-02 1506.7791 4913.021)" class="st74" width="49.6" height="50.8"/>
		
			<rect x="3458.7" y="1573.2" transform="matrix(1.462620e-02 -0.9999 0.9999 1.462620e-02 1834.1713 5058.3701)" class="st74" width="49.6" height="50.8"/>
		
			<rect x="3506.1" y="1717.2" transform="matrix(1.462620e-02 -0.9999 0.9999 1.462620e-02 1736.8962 5247.6733)" class="st74" width="49.6" height="50.8"/>
		<polygon class="st25" points="3436,1757.2 3486.3,1750.8 3480.1,1701.6 3429.7,1708 		"/>
		<polygon class="st25" points="3212,1591.6 3262.4,1585.2 3256.1,1536 3205.7,1542.4 		"/>
		<polygon class="st38" points="3507.4,1553.7 3557.4,1562.6 3566.3,1513.9 3516.3,1504.9 		"/>
		<polygon class="st62" points="3266.8,1610.1 3316.8,1619.1 3325.6,1570.3 3275.6,1561.3 		"/>
		<polygon class="st62" points="3406.3,1567.2 3456.3,1576.2 3465.1,1527.4 3415.1,1518.4 		"/>
		<polygon class="st38" points="3404.1,1715.2 3454.1,1724.1 3462.9,1675.4 3412.9,1666.4 		"/>
		<polygon class="st38" points="3257.1,1512.1 3307.1,1521.1 3315.9,1472.3 3265.9,1463.3 		"/>
	</g>
	<rect x="4770.3" y="1320.6" class="st75" width="824.1" height="1046.3"/>
	<rect x="5594.4" y="1320.6" class="st75" width="0" height="1046.3"/>
	<rect x="3359.6" y="2430.7" class="st76" width="2234.8" height="69.1"/>
	<g>
		<g>
			<g>
				<g>
					<g>
						<g>
							<rect x="4231.2" y="1678" class="st27" width="112.3" height="212.8"/>
							<rect x="4316.7" y="1678" class="st77" width="26.8" height="212.8"/>
						</g>
						<g>
							<rect x="4184.9" y="1717.8" class="st74" width="112.3" height="173.1"/>
							<rect x="4270.4" y="1717.8" class="st33" width="26.8" height="173.1"/>
						</g>
					</g>
				</g>
				<g>
					<path class="st12" d="M4466,1590.8h-142l0,0c0-23.7,19.3-42.9,43.1-42.9h55.8C4446.7,1547.9,4466,1567.1,4466,1590.8
						L4466,1590.8z"/>
					<path class="st12" d="M4296.1,1569.3h38.5v21.4h-38.5c-1.1,0-1.9-0.9-1.9-1.9v-17.6C4294.2,1570.2,4295.1,1569.3,4296.1,1569.3
						z"/>
					<rect x="4231.9" y="1576.1" class="st12" width="97.1" height="7.9"/>
					<g>
						<path class="st12" d="M4242.5,1589.8c-5.7,6.3-15.4,6.9-21.8,1.2c-6.4-5.6-6.9-15.3-1.2-21.7c5.7-6.3,15.4-6.9,21.8-1.2
							C4247.6,1573.7,4248.2,1583.4,4242.5,1589.8z"/>
						<path class="st12" d="M4122.9,1723.4c-5.7,6.3-15.4,6.9-21.8,1.2s-6.9-15.3-1.2-21.7c5.7-6.3,15.4-6.9,21.8-1.2
							S4128.6,1717.1,4122.9,1723.4z"/>
						<polygon class="st12" points="4107.5,1709.7 4102.1,1704.9 4221.8,1571.3 4227.1,1576 						"/>
						<polygon class="st12" points="4120.7,1721.4 4114.6,1716 4234.2,1582.4 4240.3,1587.8 						"/>
					</g>
					<polygon class="st12" points="4231.3,1877.5 4210.3,1877.5 4100.9,1716.6 4121.9,1716.6 					"/>
					<path class="st12" d="M4318.4,1869.6h-114.7c-3.4,0-6.2,2.8-6.2,6.2v15.1h127.2v-15.1
						C4324.7,1872.3,4321.9,1869.6,4318.4,1869.6z"/>
				</g>
			</g>
			<g>
				<g>
					<g>
						<path class="st9" d="M3741.3,1656.5h288.4c5.2,0,9.4,4.2,9.4,9.4l16.7,203.8c0,2.3-0.9,4.4-2.3,6.1c-1.7,2-4.3,3.3-7.2,3.3
							H3758c-5.2,0-9.4-4.2-9.4-9.4l-16.7-203.8C3731.9,1660.7,3736.1,1656.5,3741.3,1656.5z"/>
					</g>
				</g>
				<g>
					<g>
						<path class="st12" d="M3745.7,1656.5h288.4c5.2,0,9.4,4.2,9.4,9.4l16.7,203.8c0,2.3-0.9,4.4-2.3,6.1c-1.7,2-4.3,3.3-7.2,3.3
							h-288.4c-5.2,0-9.4-4.2-9.4-9.4l-16.7-203.8C3736.3,1660.7,3740.5,1656.5,3745.7,1656.5z"/>
					</g>
				</g>
				<path class="st78" d="M3745.7,1656.5h49.1l18.9,222.6h-51.3c-5.2,0-9.4-4.2-9.4-9.4l-16.7-203.8
					C3736.3,1660.7,3740.5,1656.5,3745.7,1656.5z"/>
				<polygon class="st78" points="3856.9,1879.1 3826.1,1879.1 3807.2,1656.6 3838,1656.6 				"/>
				<g>
					<path class="st11" d="M4107.4,1879.3L4107.4,1879.3v1.4c0,9.6-51.7,10.1-54,10.1h-243.3c-2.3,0-53.4-1.1-53.4-10.4v-1.1l0,0
						v-0.2h350.6v0.2H4107.4z"/>
					<path class="st9" d="M4168.1,1879.3L4168.1,1879.3v1.4c0,9.6-51.7,10.1-54,10.1h-243.3c-2.3,0-53.4-1.1-53.4-10.4v-1.1l0,0
						v-0.2H4168v0.2H4168.1z"/>
				</g>
			</g>
		</g>
		<g>
			<g>
				<g>
					<polygon class="st12" points="3413.5,2392.5 3406,2377.9 4004,1901.1 4525.4,2378.4 4516,2391.9 4002.7,1920.2 					"/>
				</g>
				<rect x="3344.3" y="2373.3" class="st12" width="434.5" height="23.8"/>
				<rect x="3261.2" y="1890.8" class="st13" width="1450" height="40.3"/>
				<rect x="3261.2" y="1890.8" class="st25" width="653.7" height="40.3"/>
				<polygon class="st12" points="3778.4,2499.7 3728,2499.7 3810.3,1931.1 3860.7,1931.1 				"/>
				<polygon class="st12" points="3359.6,2499.7 3309.2,2499.7 3391.5,1931.1 3441.9,1931.1 				"/>
				<rect x="4202.2" y="2373.2" class="st12" width="434.5" height="23.8"/>
				<polygon class="st12" points="4202.6,2499.7 4253,2499.7 4170.8,1931.1 4120.4,1931.1 				"/>
				<polygon class="st12" points="4621.5,2499.7 4671.9,2499.7 4589.6,1931.1 4539.2,1931.1 				"/>
			</g>
		</g>
		<g>
			<polygon class="st24" points="4688.1,2141.5 4678.8,2182.7 4674,2203.8 4670.9,2217.4 4607.1,2499.7 4585,2499.7 4631.6,2217.4 
				4633.8,2203.8 4637.3,2182.7 4644.1,2141.5 			"/>
			<polygon class="st24" points="5044.8,2499.7 5022.7,2499.7 4958.9,2217.4 4955.8,2203.8 4951.1,2182.7 4941.8,2141.5 
				4985.8,2141.5 4992.6,2182.7 4996,2203.8 4998.3,2217.4 			"/>
			<polygon class="st25" points="4469.2,2141.5 4459.9,2182.7 4455.1,2203.8 4452,2217.4 4388.2,2499.7 4366.1,2499.7 
				4412.7,2217.4 4414.9,2203.8 4418.4,2182.7 4425.2,2141.5 			"/>
			<polygon class="st25" points="4812.8,2499.7 4790.7,2499.7 4726.9,2217.4 4723.8,2203.8 4719.1,2182.7 4709.7,2141.5 
				4753.7,2141.5 4760.5,2182.7 4764,2203.8 4766.3,2217.4 			"/>
			<path class="st26" d="M5038.4,2102.4c-4.4,22.7-24.3,39.1-47.6,39.1h-592.7l29.6-133.8c4-20.7,21.1-36.4,42.1-38.8L4620,1952
				c16.9-1.9,31.5-12.5,38.6-27.8l51.2-111.3c7.9-17.2,25.1-28.1,44-28.1H5029l3.9,134.6L5038.4,2102.4z"/>
			<path class="st27" d="M5038.4,2102.4c-4.4,22.7-24.3,39.1-47.6,39.1h-220.6l29.6-133.8c4-20.7,21.1-36.4,42.1-38.8l150.2-16.9
				c16.9-1.9,31.5-12.5,38.6-27.8l2.2-4.8L5038.4,2102.4z"/>
			<polygon class="st28" points="4425.2,2141.5 4469.2,2141.5 4459.9,2182.7 4418.4,2182.7 			"/>
			<polygon class="st28" points="4644.1,2141.5 4688.1,2141.5 4678.8,2182.7 4637.3,2182.7 			"/>
			<polygon class="st28" points="4753.7,2141.5 4760.5,2182.7 4719.1,2182.7 4709.7,2141.5 			"/>
			<polygon class="st28" points="4992.6,2182.7 4951.1,2182.7 4941.8,2141.5 4985.8,2141.5 			"/>
			<polygon class="st28" points="4414.9,2203.8 4455.1,2203.8 4452,2217.4 4412.7,2217.4 			"/>
			<polygon class="st28" points="4633.8,2203.8 4674,2203.8 4670.9,2217.4 4631.6,2217.4 			"/>
			<polygon class="st28" points="4764,2203.8 4766.3,2217.4 4726.9,2217.4 4723.8,2203.8 			"/>
			<polygon class="st28" points="4998.3,2217.4 4958.9,2217.4 4955.8,2203.8 4996,2203.8 			"/>
		</g>
	</g>
	<g>
		<g>
			<g>
				<path class="st12" d="M5274.7,2285.1c0.1-5.3,1.6-66.5,0.7-137c1.1-55.8,3.3-119.6,7.8-173c6.6-77,24.2-99.2,34.1-105.5
					c6.4-4.1,11-2.7,11.1-2.7l3.4-9.4c-0.9-0.3-9.4-3.1-19.9,3.7c-20.4,13-33.5,51.1-38.7,113.1c-1.1,13.5-2.1,27.6-3,42.1
					c-2.6-31.4-6.2-57.8-11.4-73.8c-7.8-23.9-19.7-38.4-35.2-43.2c-21.8-6.6-42.1,8.9-43,9.6l6.2,7.9c0.2-0.1,17.1-13,33.9-7.9
					c12.2,3.7,21.8,16.1,28.5,36.7c11.5,35.2,15.2,126.4,16.1,205.3c-1.4,73.9-0.7,133-0.7,134L5274.7,2285.1z"/>
			</g>
		</g>
		<g>
			<g>
				<path class="st12" d="M5167.4,2303.3l9.6-3.2c-2-6-50.2-147.3-85.1-205.6c-9.1-15.2-21.3-23.9-36.2-25.8
					c-36.1-4.7-75.1,32.5-76.7,34.1l7,7.2c0.4-0.4,37.1-35.4,68.4-31.3c11.8,1.6,21.3,8.4,28.8,21
					C5117.5,2157,5166.9,2301.8,5167.4,2303.3z"/>
			</g>
		</g>
		<g>
			<g>
				<polygon class="st12" points="5199.6,2286.2 5209.3,2283.6 5168,2129.6 5158.3,2132.2 				"/>
			</g>
		</g>
		<g>
			<g>
				<rect x="5241.1" y="2081.8" class="st12" width="10.1" height="176.7"/>
			</g>
		</g>
		<g>
			<g>
				<path class="st12" d="M5287.5,2285.3c0.1-1.1,8.3-111.2,36.4-226.9c14.5-59.6,32.8-77.6,45.6-82.2c11.5-4.1,20.1,2.1,20.5,2.4
					l6.1-8c-0.5-0.4-13.1-9.8-29.8-4c-22.1,7.7-39.6,37.8-52.2,89.4c-28.3,116.5-36.6,227.4-36.7,228.5L5287.5,2285.3z"/>
			</g>
		</g>
		<g>
			<g>
				<path class="st12" d="M5309.3,2282.6c0.1-0.5,8.5-53.3,38.8-152.7c8.1-26.5,18.3-41.1,29.5-42c0.4,0,0.8,0,1.2,0
					c17.4,0,36.4,30.6,42.3,42.6l7.3-3.6c-1-2-24.6-49.3-51.5-47.1c-15.2,1.2-27.2,16.8-36.6,47.7c-30.5,100.1-39,153.3-39.1,153.9
					L5309.3,2282.6z"/>
			</g>
		</g>
		<g>
			<path class="st9" d="M5087.4,2424.9v-166.4h285.3v166.4c0,29.5-12.4,56-32.3,74.8h-220.6
				C5099.9,2480.9,5087.4,2454.4,5087.4,2424.9z"/>
		</g>
		<g>
			<path class="st12" d="M5207.1,2114.7c34.9,54.4,97,76.9,138.7,50.3c41.7-26.6,47.3-92.1,12.5-146.5
				c-34.8-54.4-99.6-86.3-119.1-19.8C5171,1981.6,5172.3,2060.3,5207.1,2114.7z"/>
		</g>
		<g>
			<path class="st12" d="M5388.6,2150c-1.4,40.5,13.6,73.9,33.6,74.6c20,0.7,37.3-31.6,38.8-72.1c1.4-40.5-12.2-79.8-34.4-51.9
				C5408.3,2068,5390.1,2109.5,5388.6,2150z"/>
		</g>
		<g>
			<path class="st12" d="M5068.9,2107.9c-34.2,38.6-38,91.1-8.3,117.1c29.6,26.1,81.4,15.9,115.7-22.7
				c34.2-38.6,44.7-95.2-10.9-95.4C5163.5,2051,5103.1,2069.3,5068.9,2107.9z"/>
		</g>
		<g>
			<path class="st12" d="M4948.9,2130.4c-1.3,37.5,12.6,68.5,31.1,69.1c18.5,0.7,34.6-29.2,35.9-66.8s-11.3-73.9-31.9-48
				C4967.1,2054.4,4950.2,2092.9,4948.9,2130.4z"/>
		</g>
		<g>
			<path class="st12" d="M5096.2,1920.2c-45.1,42.7-64.6,95.2-43.5,117.2c21.1,22,74.7,5.3,119.8-37.3
				c45.1-42.7,72.4-100.1,18.2-93.3C5205.8,1851.6,5141.3,1877.5,5096.2,1920.2z"/>
		</g>
		<g>
			<path class="st12" d="M5384.3,2008.6c16.4,27,40.4,42.3,53.7,34.3c13.3-8,10.8-36.4-5.5-63.3c-16.4-27-42-46.7-44.5-19.2
				C5362,1946.9,5367.9,1981.6,5384.3,2008.6z"/>
		</g>
		<g>
			<path class="st12" d="M5292.5,1914.2c21.2,33,58.8,46.7,84.2,30.6c25.3-16.1,28.7-55.9,7.6-88.9c-21.2-33-60.5-52.4-72.3-12
				C5270.6,1833.4,5271.3,1881.2,5292.5,1914.2z"/>
		</g>
	</g>
	<rect x="4036.4" y="1485.4" class="st25" width="61.8" height="61.5"/>
	<rect x="3909.4" y="1561.7" class="st62" width="61.8" height="61.5"/>
	<rect x="3910.6" y="1452.8" class="st73" width="61.8" height="61.5"/>
	<rect x="2942.2" y="2367" class="st12" width="20.5" height="63.7"/>
	<rect x="4856.8" y="2367" class="st12" width="20.5" height="63.7"/>
	<rect x="5507.4" y="2367" class="st12" width="20.5" height="63.7"/>
	<rect x="4528.2" y="1496.8" class="st9" width="178.1" height="249"/>
	<rect x="4463.4" y="1652.4" class="st79" width="131.1" height="197.8"/>
	<g>
		<g>
			<path class="st27" d="M346.5,2536.5h437.4V2150c0-5.6-4.5-10.2-10.2-10.2H356.6c-5.6,0-10.2,4.5-10.2,10.2v386.5H346.5z"/>
		</g>
		<g>
			<rect x="741.7" y="2156.9" class="st26" width="42.2" height="379.5"/>
		</g>
		<g>
			<rect x="346.4" y="2156.9" class="st26" width="245.4" height="379.5"/>
		</g>
		<g>
			<rect x="346.5" y="2486.1" class="st12" width="437.4" height="11.9"/>
		</g>
	</g>
	<g>
		<g>
			<path class="st12" d="M287.5,2353.6c0-1.6,1.3-159.6,12.2-390.1c5.6-119.6,51.8-218,89.4-279.6c40.9-66.7,81-105.7,81.4-106
				l-5.1-5.3c-0.4,0.4-41.1,39.8-82.4,107.3c-38.2,62.3-84.9,162-90.6,283.2c-10.9,230.6-12.2,388.8-12.2,390.4L287.5,2353.6z"/>
		</g>
		<g>
			<path class="st12" d="M254.3,2341.5l7.3-0.1c0-1.6-1.4-159.7-12.2-390.4c-5.7-121.2-52.4-220.9-90.6-283.2
				c-41.4-67.5-82-106.9-82.4-107.3l-5.1,5.3c0.4,0.4,40.5,39.3,81.4,106c37.7,61.5,83.8,159.9,89.4,279.6
				C252.9,2181.9,254.3,2339.9,254.3,2341.5z"/>
		</g>
		<g>
			<path class="st12" d="M242.1,2341.7c0-0.6,4.4-59.8-13.2-214.9c-14.8-130.2-108.8-223-185.1-277.9
				c-82.4-59.3-121.7-71.1-122.5-71.4l0.9,5.1c0.8,0.3,35.9,13.6,117.5,72.4c75,54.1,167.5,145.2,181.9,272.7
				c17.5,154.4,13.2,212.9,13.2,213.5L242.1,2341.7z"/>
		</g>
		<g>
			<path class="st12" d="M306.6,2375.2c0.3-4.1,27.1-413.7,72.4-483c45.2-69.1,168.2-120,169.4-120.5l-2.8-6.8
				c-5.1,2.1-126.3,52.3-172.8,123.3c-46.3,70.9-72.5,469.6-73.6,486.5L306.6,2375.2z"/>
		</g>
		<g>
			<path class="st12" d="M268.3,2375l7.3-0.2c0-1.3-2.7-129.6,4.5-220.5c7-89,114.3-144.3,115.4-144.9l-3.3-6.5
				c-4.6,2.3-112,57.7-119.4,150.8C265.7,2245.1,268.3,2373.7,268.3,2375z"/>
		</g>
		<path class="st12" d="M641.3,1514.6c0,0-129.3-36.9-205.2,56.6s-102.7,211.7-102.7,211.7L641.3,1514.6z"/>
		<path class="st12" d="M47.4,1548.7l172.4,273.1C219.8,1821.8,240,1580.5,47.4,1548.7z"/>
		<path class="st12" d="M149.3,1952.3L-89,1776.5C-89,1776.5,84.3,1722,149.3,1952.3z"/>
		<path class="st12" d="M283.7,2121.2L542,1990.1C541.9,1990.1,364,1861.2,283.7,2121.2z"/>
		<path class="st12" d="M577.8,1754.8l-201.9,135.4C375.9,1890.2,414,1745.2,577.8,1754.8z"/>
		<polygon class="st37" points="143.7,2335.1 399.3,2335.1 354.5,2536.5 188.5,2536.5 		"/>
	</g>
	<g>
		<rect x="3666.6" y="1430.4" class="st12" width="16.4" height="5.2"/>
		<rect x="3141.7" y="1433.1" class="st12" width="16.4" height="5.2"/>
	</g>
	<g>
		<rect x="3666.6" y="1784" class="st12" width="16.4" height="5.2"/>
		<rect x="3141.7" y="1786.6" class="st12" width="16.4" height="5.2"/>
	</g>
	<g>
		<g>
			<path class="st38" d="M1599.1,1444.2h-85.3c-5.6,0-10.2,4.6-10.2,10.2s4.6,10.2,10.2,10.2h85.3c5.6,0,10.2-4.6,10.2-10.2
				S1604.7,1444.2,1599.1,1444.2z"/>
		</g>
		<g>
			<rect x="1478.4" y="1464.6" class="st9" width="157" height="509.7"/>
		</g>
		<g>
			<path class="st1" d="M1604.3,1486h-89.8c-8.6,0-15.6,7-15.6,15.5v81.7c0,8.5,7,15.5,15.6,15.5h89.8c8.6,0,15.6-7,15.6-15.5v-81.7
				C1619.9,1493,1612.8,1486,1604.3,1486z"/>
		</g>
		<g>
			<rect x="1529.3" y="1510.8" class="st9" width="15.2" height="45.2"/>
		</g>
		<g>
			<rect x="1572.5" y="1510.8" class="st9" width="15.2" height="45.2"/>
		</g>
		<g>
			<rect x="1529.3" y="1521.7" class="st80" width="15.2" height="7.1"/>
		</g>
		<g>
			<rect x="1572.5" y="1521.7" class="st81" width="15.2" height="7.1"/>
		</g>
	</g>
	<g>
		<g>
			<g>
				<g>
					<g>
						<rect x="2063.5" y="1857.5" class="st18" width="7.9" height="116.4"/>
					</g>
					<g>
						<rect x="2328.3" y="1857.5" class="st18" width="7.9" height="116.4"/>
					</g>
					<g>
						<rect x="1898" y="1857.5" class="st12" width="7.9" height="116.4"/>
					</g>
					<rect x="1898" y="1857.5" class="st12" width="165.5" height="44.8"/>
					<rect x="2063.5" y="1857.5" class="st18" width="272.7" height="44.8"/>
				</g>
				<rect x="1946.6" y="1496.9" class="st38" width="389.6" height="360.6"/>
				<rect x="1898" y="1497" class="st81" width="165.5" height="360.6"/>
			</g>
			<g>
				<rect x="2049.9" y="1497" class="st82" width="3.4" height="360.6"/>
			</g>
			<g>
				<rect x="2214.7" y="1497" class="st82" width="3.4" height="360.6"/>
			</g>
		</g>
		<g>
			<rect x="2119.4" y="1426.3" class="st39" width="96.2" height="70.7"/>
			<rect x="2215.7" y="1426.3" class="st40" width="94.2" height="70.7"/>
			<path class="st18" d="M2286,1441.2h-34.6c-1.7,0-3.1-1.4-3.1-3l0,0c0-1.7,1.4-3,3.1-3h34.6c1.7,0,3.1,1.4,3.1,3l0,0
				C2289.1,1439.8,2287.7,1441.2,2286,1441.2z"/>
		</g>
		<g>
			<g>
				<g>
					<rect x="2136" y="1463.9" class="st36" width="47.8" height="33.1"/>
					<rect x="2071.5" y="1463.9" class="st23" width="64.4" height="33.1"/>
				</g>
				<rect x="2069.1" y="1454.1" class="st23" width="66.9" height="9.8"/>
				<rect x="2136" y="1454.2" class="st36" width="50.6" height="9.8"/>
			</g>
			<rect x="2071.6" y="1463.9" class="st23" width="112.2" height="5.4"/>
		</g>
		<g>
			<g>
				<path class="st12" d="M2067.3,1481h-5.9v-77.6c0-82.4,30.2-88.3,31.5-88.5l1,5.8l-0.5-2.9l0.5,2.9c-0.3,0.1-26.6,6.1-26.6,82.7
					V1481z"/>
			</g>
			<g>
				<path class="st12" d="M2049.7,1443.2h-5.9v-151.7c0-12.1-3.2-20.2-9.7-24c-14.1-8.4-39.2,4.9-39.5,5l-2.8-5.2
					c1.2-0.6,28.4-15,45.3-4.9c8.3,5,12.5,14.7,12.5,29L2049.7,1443.2L2049.7,1443.2z"/>
			</g>
			<g>
				<path class="st12" d="M2062.6,1451.6l-5.9-0.2c0-56.8-36.2-80.8-36.6-81l3.2-5c1.3,0.8,25,16.6,35,52.7
					c1.4-32,3.1-82.8,3.1-132.8c0-31.9,6.2-51,18.5-56.7c13.1-6.1,27.3,5.3,27.9,5.8l-3.8,4.6l1.9-2.3l-1.9,2.3
					c-0.1-0.1-11.9-9.5-21.6-5c-6.9,3.2-15.1,14.8-15.1,51.4C2067.3,1367.1,2062.6,1450.8,2062.6,1451.6z"/>
			</g>
			<g>
				<path class="st12" d="M2040.5,1444.7h-5.9v-129c0-66.7-14-104.2-14.2-104.6l5.5-2.1c0.6,1.6,14.6,38.9,14.6,106.7V1444.7z"/>
			</g>
			<g>
				<path class="st12" d="M2005,1263.8c0,0,15.8-52.3-23.3-36.2c-39.2,16.1-43.4,70.9-43.4,70.9s47.5,27.9,83.2,5
					C2057.1,1280.7,2005,1263.8,2005,1263.8z"/>
			</g>
			<g>
				<path class="st12" d="M2028.5,1366.5c0,0,34.6-26.6-7.4-22c-42,4.6-66.9,33.8-66.9,33.8s32.7,20,74.1,11.4
					C2069.7,1381.1,2028.5,1366.5,2028.5,1366.5z"/>
			</g>
			<g>
				<path class="st12" d="M2024.3,1213.9c0,0,25.2,3.3,6.1-12c-19.1-15.4-41.3-13.7-41.3-13.7s5.1,21.6,25.5,35.1
					C2035.1,1236.8,2024.3,1213.9,2024.3,1213.9z"/>
			</g>
			<g>
				<path class="st12" d="M2133.1,1293.7c-32.4-40.1-41.7,22.6-41.7,22.6s-62-14.4-36.4,30.3c25.6,44.8,88.1,45.3,88.1,45.3
					S2165.5,1333.8,2133.1,1293.7z"/>
			</g>
			<g>
				<path class="st12" d="M2104.7,1211.6c-44.1-21.9-13.4,15.1-13.4,15.1s-47.9-5.6-5.4,19.4c42.5,25,82.6,22.4,82.6,22.4
					S2148.8,1233.5,2104.7,1211.6z"/>
			</g>
			<g>
				<path class="st43" d="M2094.7,1445.6c0-3.9-0.2-7.6-0.6-11.3h-88.2c-0.4,3.7-0.6,7.5-0.6,11.3c0,20.5,5.9,38.9,15.2,51.4h59
					C2088.8,1484.5,2094.7,1466.1,2094.7,1445.6z"/>
			</g>
		</g>
	</g>
</g>
</svg>
