<svg width="212" height="46" viewBox="0 0 212 46" fill="none" xmlns="http://www.w3.org/2000/svg">
<g clip-path="url(#clip0_2_509)">
<path d="M9.01778 0C18.7427 5.52627 25.3059 15.9764 25.3059 27.964C25.3059 34.5691 23.3129 40.7068 19.8965 45.8135C18.2182 40.458 18.0624 36.6999 15.6829 34.4373C12.8089 31.7071 8.66415 30.7751 3.80919 30.0648C0.518603 29.5823 0.962143 27.7392 0.761351 26.8162C0.56056 25.8931 2.00506 24.5295 2.00506 24.0081C2.00506 23.4866 0.800311 22.9652 0.800311 22.3238C0.800311 21.6825 2.32573 20.5197 2.32573 20.5197C2.32573 20.5197 0.842267 19.7585 0.680435 18.9164C0.518603 18.0742 1.88518 17.1512 2.12494 16.5488C2.36469 15.9465 1.9661 16.0663 0.761351 14.7447C-0.443399 13.4201 -0.179672 12.554 1.28281 11.6159C7.42943 7.67204 7.97487 3.82703 9.01778 0Z" fill="url(#paint0_radial_2_509)"/>
<path d="M19.7885 44.4559C19.8304 44.8934 19.8664 45.3459 19.8934 45.8135C20.5197 39.1154 22.6745 36.2114 24.9012 33.0677C21.5836 35.0157 19.4678 38.3272 19.7885 44.4559Z" fill="#0C0C0E"/>
<path fill-rule="evenodd" clip-rule="evenodd" d="M30.772 0C21.0471 5.52627 14.4839 15.9764 14.4839 27.964C14.4839 34.5691 16.4769 40.7068 19.8933 45.8135C18.5567 32.8759 27.1068 31.3625 35.9806 30.0648C39.2712 29.5823 38.8277 27.7392 39.0285 26.8162C39.2293 25.8931 37.7848 24.5295 37.7848 24.0081C37.7848 23.4866 38.9895 22.9652 38.9895 22.3238C38.9895 21.6825 37.4641 20.5197 37.4641 20.5197C37.4641 20.5197 38.9476 19.7585 39.1094 18.9164C39.2712 18.0742 37.9046 17.1512 37.6649 16.5488C37.4251 15.9465 37.8237 16.0663 39.0285 14.7447C40.2332 13.4201 39.9695 12.554 38.507 11.6159C32.3604 7.67503 31.815 3.83003 30.772 0.00299689" fill="url(#paint1_radial_2_509)"/>
<path d="M18.293 7.92676C13.3901 13.2582 10.8967 26.6993 15.0264 33.8648C14.6698 31.9528 14.484 29.9779 14.484 27.964C14.484 21.3588 16.4769 15.2212 19.8934 10.1145C19.3899 9.36227 18.8564 8.63402 18.293 7.92676Z" fill="#9F3818"/>
<path d="M206.831 29.3283C205.279 29.3283 203.938 28.7036 202.806 27.4542C201.682 26.1964 201.12 24.6368 201.12 22.7753V21.9703C201.12 20.0166 201.665 18.4025 202.755 17.1279C203.845 15.845 205.191 15.2036 206.793 15.2036C208.327 15.2036 209.577 15.7067 210.541 16.7129C211.514 17.7191 212 19.0691 212 20.7629V21.8068H201.799V21.9703V22.7753C201.799 24.4188 202.282 25.8107 203.246 26.9511C204.21 28.0831 205.405 28.6491 206.831 28.6491C207.845 28.6491 208.692 28.5107 209.371 28.234C210.059 27.9573 210.646 27.5422 211.132 26.9888L211.497 27.5171C210.96 28.1124 210.306 28.5652 209.535 28.8755C208.772 29.1773 207.87 29.3283 206.831 29.3283ZM206.793 15.8827C205.443 15.8827 204.319 16.3775 203.422 17.3669C202.525 18.348 202.018 19.5764 201.9 21.0522L201.938 21.1276H211.321V20.7126C211.321 19.329 210.902 18.1803 210.063 17.2663C209.224 16.3439 208.134 15.8827 206.793 15.8827Z" fill="black"/>
<path d="M184.354 28.3849H186.404V16.1343H184.354V15.4551H186.983L187.071 18.2599C187.482 17.2873 188.081 16.5368 188.87 16.0085C189.658 15.4719 190.631 15.2036 191.788 15.2036C193.272 15.2036 194.383 15.6731 195.121 16.6122C195.867 17.543 196.24 19.023 196.24 21.0522V28.3849H198.29V29.0641H193.511V28.3849H195.561V21.027C195.561 19.1404 195.221 17.8113 194.542 17.0399C193.871 16.2685 192.957 15.8827 191.8 15.8827C190.333 15.8827 189.226 16.323 188.48 17.2034C187.734 18.0754 187.268 19.1949 187.084 20.5616V28.3849H189.134V29.0641H184.354V28.3849Z" fill="black"/>
<path d="M176.468 29.3283C174.917 29.3283 173.575 28.7036 172.443 27.4542C171.32 26.1964 170.758 24.6368 170.758 22.7753V21.9703C170.758 20.0166 171.303 18.4025 172.393 17.1279C173.483 15.845 174.829 15.2036 176.43 15.2036C177.965 15.2036 179.214 15.7067 180.179 16.7129C181.151 17.7191 181.638 19.0691 181.638 20.7629V21.8068H171.437V21.9703V22.7753C171.437 24.4188 171.919 25.8107 172.883 26.9511C173.848 28.0831 175.043 28.6491 176.468 28.6491C177.483 28.6491 178.33 28.5107 179.009 28.234C179.696 27.9573 180.283 27.5422 180.77 26.9888L181.134 27.5171C180.598 28.1124 179.944 28.5652 179.172 28.8755C178.409 29.1773 177.508 29.3283 176.468 29.3283ZM176.43 15.8827C175.08 15.8827 173.957 16.3775 173.06 17.3669C172.162 18.348 171.655 19.5764 171.538 21.0522L171.575 21.1276H180.958V20.7126C180.958 19.329 180.539 18.1803 179.701 17.2663C178.862 16.3439 177.772 15.8827 176.43 15.8827Z" fill="black"/>
<path d="M167.186 30.1835C167.186 31.5839 166.871 32.6613 166.243 33.416C165.614 34.179 164.733 34.5606 163.601 34.5606C163.35 34.5606 163.115 34.5396 162.897 34.4977C162.679 34.4557 162.444 34.3929 162.193 34.309L162.356 33.655C162.507 33.7053 162.696 33.7556 162.922 33.8059C163.157 33.8562 163.383 33.8814 163.601 33.8814C164.524 33.8814 165.236 33.5585 165.739 32.9129C166.251 32.2672 166.507 31.3575 166.507 30.1835V16.1343H164.456V15.4551H167.186V30.1835ZM167.11 11.1284H166.431V9.44299H167.11V11.1284Z" fill="black"/>
<path d="M138.572 28.3849H140.622V16.1343H138.572V15.4551H141.213L141.301 18.2599C141.712 17.2956 142.303 16.5452 143.074 16.0085C143.846 15.4719 144.785 15.2036 145.892 15.2036C147.066 15.2036 148.017 15.5054 148.747 16.1091C149.485 16.7045 149.992 17.6269 150.269 18.8762C150.629 17.7191 151.216 16.8177 152.03 16.172C152.851 15.518 153.874 15.191 155.099 15.191C156.6 15.191 157.74 15.6815 158.52 16.6626C159.3 17.6436 159.69 19.1865 159.69 21.2911V28.3724H161.74V29.0516H156.948V28.3724H158.998V21.266C158.998 19.2955 158.646 17.9036 157.941 17.0902C157.237 16.2768 156.298 15.8702 155.124 15.8702C153.682 15.8702 152.592 16.3062 151.854 17.1782C151.116 18.0419 150.655 19.1613 150.47 20.5365C150.47 20.7042 150.474 20.8509 150.483 20.9767C150.491 21.0941 150.495 21.2115 150.495 21.3289V28.3849H152.545V29.0641H147.753V28.3849H149.803V21.2786C149.803 19.2997 149.451 17.9078 148.747 17.1028C148.043 16.2894 147.099 15.8827 145.917 15.8827C144.508 15.8827 143.439 16.2978 142.71 17.1279C141.98 17.9497 141.515 19.0188 141.314 20.3352V28.3849H143.364V29.0641H138.572V28.3849Z" fill="black"/>
<path d="M124.221 21.9955C124.221 19.9998 124.77 18.3689 125.868 17.1028C126.975 15.8366 128.409 15.2036 130.17 15.2036C131.939 15.2036 133.373 15.8366 134.471 17.1028C135.578 18.3689 136.132 19.9998 136.132 21.9955V22.5237C136.132 24.5278 135.578 26.1629 134.471 27.429C133.373 28.6952 131.947 29.3283 130.195 29.3283C128.426 29.3283 126.988 28.6952 125.881 27.429C124.774 26.1629 124.221 24.5278 124.221 22.5237V21.9955ZM124.9 22.5237C124.9 24.2343 125.378 25.6849 126.334 26.8756C127.29 28.0579 128.577 28.6491 130.195 28.6491C131.788 28.6491 133.063 28.0537 134.019 26.863C134.974 25.6724 135.452 24.2259 135.452 22.5237V21.9955C135.452 20.3268 134.97 18.893 134.006 17.6939C133.042 16.4865 131.763 15.8827 130.17 15.8827C128.568 15.8827 127.29 16.4865 126.334 17.6939C125.378 18.893 124.9 20.3268 124.9 21.9955V22.5237Z" fill="black"/>
<path d="M116.775 15.4551L116.9 17.8197V18.2851C117.278 17.3124 117.84 16.5577 118.586 16.0211C119.332 15.4761 120.25 15.2036 121.34 15.2036C121.533 15.2036 121.709 15.2203 121.869 15.2539C122.036 15.279 122.179 15.3084 122.296 15.3419L122.221 15.9456L121.34 15.8702C120.124 15.8702 119.135 16.2643 118.372 17.0525C117.617 17.8323 117.127 18.8636 116.9 20.1466V28.3849H118.951V29.0641H114.171V28.3849H116.221V16.1343H114.171V15.4551H116.221H116.775Z" fill="black"/>
<path d="M99.2539 33.6172H101.304V16.1343H99.2539V15.4551H101.832L101.971 17.8952C102.423 17.0567 103.04 16.3984 103.82 15.9205C104.599 15.4425 105.526 15.2036 106.599 15.2036C108.201 15.2036 109.454 15.8408 110.36 17.1154C111.274 18.3815 111.731 20.0921 111.731 22.247V22.5112C111.731 24.6074 111.278 26.2677 110.373 27.4919C109.467 28.7161 108.218 29.3283 106.624 29.3283C105.56 29.3283 104.629 29.1144 103.832 28.6868C103.044 28.2592 102.428 27.6806 101.983 26.9511V33.6172H104.033V34.2964H99.2539V33.6172ZM111.039 22.247C111.039 20.3604 110.658 18.8301 109.895 17.6562C109.14 16.4739 108.046 15.8827 106.612 15.8827C105.295 15.8827 104.272 16.214 103.543 16.8764C102.813 17.5388 102.294 18.3522 101.983 19.3164V25.6807C102.319 26.5863 102.88 27.3074 103.669 27.8441C104.457 28.3807 105.446 28.6491 106.637 28.6491C108.071 28.6491 109.161 28.0956 109.907 26.9888C110.662 25.882 111.039 24.3894 111.039 22.5112V22.247Z" fill="black"/>
<path d="M93.7323 29.0641C93.6317 28.8377 93.5436 28.6071 93.4682 28.3724C93.3927 28.1292 93.334 27.886 93.2921 27.6428C92.8561 28.146 92.3236 28.5526 91.6947 28.8629C91.0742 29.1731 90.3615 29.3283 89.5565 29.3283C88.2233 29.3283 87.1626 28.9677 86.3744 28.2466C85.5946 27.5171 85.2047 26.5276 85.2047 25.2783C85.2047 24.0037 85.7161 23.0185 86.7391 22.3225C87.7621 21.6265 89.263 21.2786 91.2419 21.2786H93.116V19.9453C93.116 19.2913 92.9273 18.784 92.55 18.4234C92.1727 18.0629 91.6151 17.8826 90.8772 17.8826C90.4579 17.8826 90.0848 17.9329 89.7578 18.0335C89.4307 18.1258 89.1666 18.239 88.9654 18.3731L88.7264 19.8321H85.9593L85.9719 16.8135C86.6427 16.3607 87.4099 15.9792 88.2736 15.6689C89.1456 15.3587 90.0932 15.2036 91.1161 15.2036C92.8016 15.2036 94.1683 15.6186 95.2165 16.4487C96.273 17.2705 96.8012 18.4444 96.8012 19.9705V25.5927C96.8012 25.8023 96.8012 25.9994 96.8012 26.1838C96.8096 26.3683 96.8264 26.5444 96.8516 26.7121L97.971 26.863V29.0641H93.7323ZM90.5502 26.6115C91.1036 26.6115 91.6067 26.4941 92.0595 26.2593C92.5123 26.0161 92.8644 25.7143 93.116 25.3537V23.2784H91.2419C90.4621 23.2784 89.871 23.4629 89.4685 23.8318C89.066 24.1924 88.8647 24.6284 88.8647 25.1399C88.8647 25.6011 89.0115 25.9616 89.305 26.2216C89.6068 26.4815 90.0219 26.6115 90.5502 26.6115Z" fill="url(#paint2_linear_2_509)"/>
<path d="M77.8719 26.5109C78.526 26.5109 79.05 26.3222 79.4441 25.9449C79.8382 25.5592 80.0353 25.0477 80.0353 24.4104H83.3558L83.3935 24.4859C83.427 25.861 82.9114 27.014 81.8465 27.9447C80.7815 28.8671 79.4567 29.3283 77.8719 29.3283C75.8427 29.3283 74.2789 28.6868 73.1804 27.4039C72.082 26.121 71.5328 24.4733 71.5328 22.4609V22.0835C71.5328 20.0795 72.0946 18.4318 73.2182 17.1405C74.3502 15.8492 75.9601 15.2036 78.048 15.2036C79.1464 15.2036 80.1317 15.3671 81.0037 15.6941C81.8758 16.0211 82.6011 16.4823 83.1797 17.0776L83.23 20.7126H80.2491L79.6454 18.5869C79.4609 18.4276 79.2345 18.2977 78.9662 18.197C78.6978 18.088 78.3918 18.0335 78.048 18.0335C77.0082 18.0335 76.2746 18.4109 75.8469 19.1655C75.4193 19.9202 75.2055 20.8928 75.2055 22.0835V22.4609C75.2055 23.6767 75.4025 24.6578 75.7966 25.404C76.1907 26.1419 76.8825 26.5109 77.8719 26.5109Z" fill="url(#paint3_linear_2_509)"/>
<path d="M63.068 26.863L64.8414 26.4857V18.0461L62.8793 17.6688V15.4551H68.5141V26.4857L70.275 26.863V29.0641H63.068V26.863ZM68.5141 12.1975H64.8414V9.44299H68.5141V12.1975Z" fill="url(#paint4_linear_2_509)"/>
<path d="M48 29.0642V26.8631L49.9495 26.4857V13.3421L48 12.9648V10.7511H49.9495H53.6222H55.5843V12.9648L53.6222 13.3421V26.2468H58.7916L58.9677 23.9451H61.7725V29.0642H48Z" fill="url(#paint5_linear_2_509)"/>
</g>
<defs>
<radialGradient id="paint0_radial_2_509" cx="0" cy="0" r="1" gradientUnits="userSpaceOnUse" gradientTransform="translate(1.55852 -4.09675) scale(38.7648 38.7648)">
<stop stop-color="#F5DD0A"/>
<stop offset="0.55" stop-color="#DDAD03"/>
<stop offset="1" stop-color="#F55F2F"/>
</radialGradient>
<radialGradient id="paint1_radial_2_509" cx="0" cy="0" r="1" gradientUnits="userSpaceOnUse" gradientTransform="translate(32.9388 -2.6013) scale(48.8253 48.8253)">
<stop stop-color="#8BC541"/>
<stop offset="0.55" stop-color="#009247"/>
<stop offset="1" stop-color="#096B38"/>
</radialGradient>
<linearGradient id="paint2_linear_2_509" x1="91.5878" y1="15.2036" x2="91.5878" y2="29.3283" gradientUnits="userSpaceOnUse">
<stop stop-color="#8BC541"/>
<stop offset="1" stop-color="#096B38"/>
</linearGradient>
<linearGradient id="paint3_linear_2_509" x1="77.4639" y1="15.2036" x2="77.4639" y2="29.3283" gradientUnits="userSpaceOnUse">
<stop stop-color="#8BC541"/>
<stop offset="1" stop-color="#096B38"/>
</linearGradient>
<linearGradient id="paint4_linear_2_509" x1="66.5772" y1="9.44299" x2="66.5772" y2="29.0641" gradientUnits="userSpaceOnUse">
<stop stop-color="#8BC541"/>
<stop offset="1" stop-color="#096B38"/>
</linearGradient>
<linearGradient id="paint5_linear_2_509" x1="54.8863" y1="10.7511" x2="54.8863" y2="29.0642" gradientUnits="userSpaceOnUse">
<stop stop-color="#8BC541"/>
<stop offset="1" stop-color="#096B38"/>
</linearGradient>
<clipPath id="clip0_2_509">
<rect width="212" height="45.8135" fill="white"/>
</clipPath>
</defs>
</svg>
