<?xml version="1.0" encoding="utf-8"?>
<!-- Generator: Adobe Illustrator 25.0.1, SVG Export Plug-In . SVG Version: 6.00 Build 0)  -->
<svg version="1.1" id="Layer_1" xmlns="http://www.w3.org/2000/svg" xmlns:xlink="http://www.w3.org/1999/xlink" x="0px" y="0px"
	 viewBox="0 0 142 170.1" style="enable-background:new 0 0 142 170.1;" xml:space="preserve">
<style type="text/css">
	.st0{fill:url(#SVGID_1_);}
</style>
<linearGradient id="SVGID_1_" gradientUnits="userSpaceOnUse" x1="0" y1="85.0593" x2="141.967" y2="85.0593">
	<stop  offset="0" style="stop-color:#AF7B2B"/>
	<stop  offset="9.973509e-02" style="stop-color:#C2953C"/>
	<stop  offset="0.2341" style="stop-color:#DAB85A"/>
	<stop  offset="0.3417" style="stop-color:#ECD06F"/>
	<stop  offset="0.4082" style="stop-color:#F4DB77"/>
	<stop  offset="0.527" style="stop-color:#E6C868"/>
	<stop  offset="0.7597" style="stop-color:#C99F44"/>
	<stop  offset="0.9732" style="stop-color:#AF7B2B"/>
</linearGradient>
<path class="st0" d="M103.6,28.2V14.4H91.7C99.5,16.4,103.2,25.7,103.6,28.2z M2.7,22.8v6.6h1.9v-2.3h6v-2.1h-6v-2.2H2.7z M7.5,32.5
	H2.7v2.1h4.8c0.9,0,1.3,0.6,1.3,1.3c0,0.7-0.4,1.3-1.3,1.3H2.7v2.1h4.9c2.3,0,3.2-1.7,3.2-3.3C10.8,34.1,9.9,32.5,7.5,32.5z
	 M10.6,13.8H8.8v3.8H7.6v-3.5H5.7v3.5H4.5v-3.8H2.7v5.9h7.9V13.8z M119.6,32.8c0.6-4.9,3-10.4,3.3-13.2c0.2-1.8,0.1-2.5,0.1-2.5
	c-0.2-1.8-1.7-3.2-3.4-3.2h-0.1c-1.7,0-3.2,1.4-3.4,3.2c0,0-0.2,0.8,0.1,2.6C116.5,22.2,118.9,27.8,119.6,32.8z M6.7,147.9
	c-2.3,0-4.1,1.8-4.1,4.2c0,2.4,1.8,4.2,4.1,4.2c2.3,0,4.1-1.8,4.1-4.2C10.8,149.7,8.9,147.9,6.7,147.9z M6.7,154.3
	c-1.2,0-2.1-1-2.1-2.1c0-1.2,0.9-2.1,2.1-2.1c1.2,0,2.1,0.9,2.1,2.1C8.8,153.3,7.9,154.3,6.7,154.3z M0,17l2.1,0.7v-1.8L0,14.8V17z
	 M2.7,76.7v5.9l7.9,0v-5.9H8.8v3.8l-1.2,0V77H5.7v3.5H4.5v-3.8H2.7z M36.1,54.7h10.6V14.4H36.1l1.1,0.8v38.7L36.1,54.7z M2.7,52.4
	v5.9h7.9v-5.9H8.8v3.8H7.6v-3.5H5.7v3.5H4.5v-3.8H2.7z M76.9,54.7h10.6V14.4H76.9l1.1,0.8v38.7L76.9,54.7z M10.6,44v-2.1l-7.9,2.9
	v1.9l7.9,3v-2.1L9.2,47v-2.6L10.6,44z M7.4,46.5l-2.4-0.8L7.4,45V46.5z M10.6,68.2l0-4c0-1.6-1-2.6-2.3-2.6c-0.9,0-1.8,0.5-2,1.5
	c-0.2-0.7-0.9-1.1-1.6-1.1c-1,0-2,0.8-2,2.4l0,3.8H10.6z M7.3,64.7c0-0.6,0.4-0.9,0.8-0.9c0.4,0,0.8,0.3,0.8,0.9l0,1.5H7.3V64.7z
	 M4.4,64.8c0-0.5,0.3-0.7,0.7-0.7c0.3,0,0.7,0.2,0.7,0.8v1.3H4.4V64.8z M97.4,42.7V26.5c0,0-2,6.2-7.5,7.9
	C95.4,36,97.3,42.3,97.4,42.7z M10.6,93.3v-3.3c0-2.6-1.5-4.1-4-4.1c-2.4,0-4,1.5-4,4l0,3.3L10.6,93.3z M4.6,90c0-1.3,1-1.8,2-1.8
	c1.1,0,2.1,0.6,2.1,1.8v1.3l-4.1,0V90z M10.6,140.5c0-1.6-1-2.6-2.3-2.6c-0.9,0-1.8,0.5-2,1.5c-0.2-0.7-0.9-1.1-1.6-1.1
	c-1,0-2,0.8-2,2.4v3.8l7.9,0V140.5z M5.7,142.5H4.4v-1.4c0-0.5,0.3-0.7,0.7-0.7c0.3,0,0.7,0.2,0.7,0.8V142.5z M8.9,142.5l-1.6,0
	v-1.6c0-0.6,0.4-0.9,0.8-0.9c0.4,0,0.8,0.3,0.8,0.9V142.5z M96,144.2V128c0,0-2,6.2-7.5,7.9C94,137.5,96,143.8,96,144.2z
	 M102.3,129.7v-13.8H90.4C98.2,117.9,101.8,127.2,102.3,129.7z M99.7,91.2C97.9,100,89.9,105,87,105.4h12.7V91.2z M76.6,116.7v38.7
	l-1.1,0.8h10.6v-40.3H75.6L76.6,116.7z M90.4,156.2h14.4V143C102.3,152.5,94.5,155,90.4,156.2z M140.9,104.6V65.1h-10.6l1.1,0.8
	v34.3c0,2.9,2.3,5.2,5.1,5.2h5.5L140.9,104.6z M118.7,95.1V65.1h-10.6l1.1,0.8v27.5c0,9.6,4.3,12.3,9.8,12.3c5,0,8.1-3.1,8.1-3.1
	C124.1,104,118.7,104.6,118.7,95.1z M72.1,105.4h10.6V65.9l1.1-0.8H72.1l1.1,0.8v38.7L72.1,105.4z M91.7,54.7h14.4V41.5
	C103.6,51,95.8,53.5,91.7,54.7z M52,14.4c1.8,0.7,6.2,2.8,6.5,11.9c0,0,0.3,4.7,0.3,8.6c0,4-0.3,8.4-0.3,8.4
	c-0.4,9-4.7,10.9-6.4,11.4c7.2-0.4,18-6.1,18-19.8C70,21.5,59.2,15,52,14.4z M7.3,129.5H2.7v2.1h4.6c0.9,0,1.6,0.5,1.6,1.5
	c0,0.5-0.2,1.1-0.6,1.5l1.6,0.9c0.7-0.7,0.9-1.7,0.9-2.6C10.8,131.1,9.8,129.5,7.3,129.5z M8.2,101.6c-1.1,0-1.7,0.7-2.1,1.5
	c-0.2,0.5-0.4,1.2-0.6,1.6c-0.1,0.3-0.3,0.6-0.6,0.6c-0.3,0-0.5-0.3-0.5-0.9c0-0.6,0.2-1.4,0.7-1.9l-1.5-1c-0.7,0.8-1,1.9-1,2.9
	c0,1.8,1.1,3,2.5,3c1.1,0,1.7-0.6,2.1-1.3c0.3-0.6,0.5-1.3,0.6-1.8c0.2-0.4,0.3-0.7,0.6-0.7c0.4,0,0.6,0.5,0.6,0.9
	c0,0.9-0.4,1.7-1,2.3l1.5,1c0.9-0.8,1.4-2,1.4-3.3C10.8,102.8,9.7,101.6,8.2,101.6z M22.1,170.1h1.8L23.8,0h-1.8L22.1,170.1z
	 M2.7,110.5l0,6.6h1.9v-2.3l6,0v-2.1l-6,0v-2.2H2.7z M2.7,120v5.9l7.9,0V120H8.8v3.8l-1.2,0v-3.5H5.7l0,3.5H4.5V120H2.7z
	 M67.6,155.2c-0.8-1.1-0.9-3-0.9-8.3c0-7-5.5-10.6-13.4-11.1c8.1-0.6,12.3-4.2,12.3-9.8c0-4.6-4.3-10-13.7-10
	c1.2,0.2,3.9,1.4,4.2,5.9c0,0,0.2,2.1,0.2,4c0,2-0.2,4-0.2,4c-0.3,5-3.6,5.6-5.1,5.9c2.9,1,5.8,4.3,5.8,8.8c0,1,0,2,0.1,3.3
	c0.3,6.9,4.5,9,12.3,8.4C69.2,156.2,68.4,156.1,67.6,155.2z M63.7,91.2C61.9,100,53.9,105,51,105.4h12.7V91.2z M37.2,65.9v38.7
	l-1.1,0.8h10.6V65.9l1.1-0.8H36.1L37.2,65.9z M46.8,115.9H36.1l1.1,0.8v38.8l-1.1,0.8h11.6l-0.9-0.8V115.9z"/>
</svg>
