<?xml version="1.0" standalone="no"?>
<!DOCTYPE svg PUBLIC "-//W3C//DTD SVG 1.1//EN" "http://www.w3.org/Graphics/SVG/1.1/DTD/svg11.dtd" >
<svg xmlns="http://www.w3.org/2000/svg" xmlns:xlink="http://www.w3.org/1999/xlink" version="1.1">
<metadata></metadata>
<defs>
<font id="fjalla_oneregular" horiz-adv-x="0" >
<font-face units-per-em="2048" ascent="1638" descent="-410" />
<missing-glyph horiz-adv-x="438" />
<glyph />
<glyph />
<glyph unicode="&#xd;" />
<glyph unicode="&#x9;" />
<glyph unicode="&#xa;" />
<glyph />
<glyph />
<glyph />
<glyph />
<glyph />
<glyph />
<glyph />
<glyph unicode=" "  horiz-adv-x="438" />
<glyph unicode="&#x09;" horiz-adv-x="438" />
<glyph unicode="&#xa0;" horiz-adv-x="438" />
<glyph unicode="!" horiz-adv-x="690" d="M191 177q0 105 42 150.5t114 45.5q75 0 116 -48t41 -148q0 -91 -41.5 -141t-116.5 -50q-72 0 -113.5 48.5t-41.5 142.5zM208 1813h273l-31 -1258h-207z" />
<glyph unicode="&#x22;" horiz-adv-x="1123" d="M206 1876h249l-21 -696h-203zM668 1876h249l-21 -696h-203z" />
<glyph unicode="#" horiz-adv-x="1108" d="M96 385v182h154l19 242h-133v182h146l28 378h179l-28 -378h238l28 378h179l-28 -378h134v-182h-147l-19 -242h126v-182h-139l-28 -385h-179l28 385h-238l-28 -385h-179l28 385h-141zM429 567h239l18 242h-239z" />
<glyph unicode="$" horiz-adv-x="1006" d="M97 346q0 55 6.5 101.5t19.5 100.5h201v-82q0 -140 41.5 -212.5t129.5 -72.5q75 0 111 37.5t36 109.5q0 28 -5.5 58.5t-19 65t-36.5 73t-59 83.5l-263 339q-36 45 -64 90.5t-47.5 93t-29.5 98t-10 107.5q0 75 21.5 139.5t62 114t99 82t133.5 44.5v228h186v-230 q82 -14 137.5 -49.5t89.5 -84.5t48.5 -106t14.5 -113q0 -55 -8 -101.5t-19 -102.5h-200v82q0 137 -43 209t-124 72q-73 0 -110.5 -40t-37.5 -109q0 -58 23.5 -105.5t61.5 -97.5l295 -382q41 -54 73 -104t53.5 -100t32.5 -102.5t11 -111.5q0 -74 -20.5 -136t-59 -110 t-93.5 -80t-124 -46v-251h-186v243q-95 9 -158 42.5t-101 83t-53.5 110t-15.5 122.5z" />
<glyph unicode="%" horiz-adv-x="1885" d="M156 1221v107q0 91 14 157.5t38.5 113.5t56.5 76t68 45t73.5 22t73.5 6q34 0 71 -5.5t72.5 -21.5t67.5 -44.5t56 -75.5t38 -114t14 -159v-107q0 -137 -31 -222.5t-78.5 -132.5t-104 -63.5t-106.5 -16.5q-57 0 -114.5 16t-104 62.5t-75.5 132t-29 224.5zM362 1169 q0 -115 26.5 -169.5t92.5 -54.5q63 0 88 54.5t25 169.5v194q0 117 -25 171.5t-88 54.5q-66 0 -92.5 -54.5t-26.5 -171.5v-194zM625 0l460 1727h181l-459 -1727h-182zM1087 420v107q0 136 30.5 219t78 127.5t104.5 59t110 14.5q34 0 71 -5.5t72.5 -21.5t67.5 -44.5t56 -75.5 t38 -114t14 -159v-107q0 -92 -14.5 -160t-39 -116t-56.5 -79t-67.5 -49t-72.5 -24.5t-70 -6.5q-38 0 -76.5 6.5t-74 23.5t-67 48t-54.5 79t-36.5 116.5t-13.5 161.5zM1292 368q0 -115 26.5 -169.5t92.5 -54.5q63 0 88 54.5t25 169.5v194q0 117 -25 171.5t-88 54.5 q-66 0 -92.5 -54.5t-26.5 -171.5v-194z" />
<glyph unicode="&#x26;" horiz-adv-x="1211" d="M55 410q0 85 28 160t68 138.5t84.5 115t77.5 89.5l27 29l-34 61q-26 47 -50 99t-42.5 106.5t-29.5 111t-11 112.5q0 87 30 157t81 119t120 75.5t147 26.5q102 0 168.5 -31t105.5 -77.5t54.5 -100t15.5 -99.5q0 -93 -30.5 -172.5t-73 -145t-88.5 -117t-77 -87.5l-22 -25 l258 -469q17 55 26.5 115t9.5 123q0 33 -1 61.5t-3 55.5h209q5 -26 7.5 -56.5t2.5 -60.5q0 -120 -37.5 -232t-101.5 -209l156 -282h-268l-56 100q-72 -55 -151.5 -86t-163.5 -31q-96 0 -176 28.5t-138 82.5t-90 133.5t-32 181.5zM312 445q0 -48 13.5 -95.5t42 -85t72.5 -61 t106 -23.5q51 0 94 20t80 56l-284 512q-60 -75 -92 -157t-32 -166zM410 1432q0 -34 5.5 -67t18 -69t31.5 -77.5t46 -93.5l17 18q20 23 45.5 54t48.5 70t39 87t16 104q0 38 -10.5 66t-28 46t-40 27t-47.5 9q-23 0 -48 -8.5t-45.5 -28.5t-34 -53.5t-13.5 -83.5z" />
<glyph unicode="'" horiz-adv-x="661" d="M206 1876h249l-21 -696h-203z" />
<glyph unicode="(" horiz-adv-x="776" d="M131 760v197q0 180 14.5 319t40 244t60 178.5t75 122.5t84 77.5t87 42.5t85 18t77.5 4v-173q-146 0 -219.5 -197.5t-73.5 -589.5v-291q0 -206 20 -355.5t57.5 -247.5t92 -145t123.5 -47v-174q-36 0 -77.5 3.5t-85 17.5t-87 42.5t-84 78t-75 123.5t-60 180t-40 247 t-14.5 325z" />
<glyph unicode=")" horiz-adv-x="776" d="M121 -83q69 0 124 47t92.5 145t57.5 247.5t20 355.5v291q0 388 -74.5 587.5t-219.5 199.5v173q36 0 78 -4t85.5 -18t87 -42.5t83.5 -77.5t74.5 -122.5t60 -178.5t40 -244t14.5 -319v-197q0 -245 -25.5 -415.5t-67 -283.5t-96 -176.5t-112.5 -95t-116 -39t-106 -7.5v174z " />
<glyph unicode="*" horiz-adv-x="1048" d="M79 1300l71 239l299 -162l-46 350h246l-54 -350l301 157l73 -239l-331 -56l235 -253l-200 -146l-152 313l-155 -309l-199 149l237 246z" />
<glyph unicode="+" horiz-adv-x="835" d="M45 691v196h272v313h199v-313h274v-196h-274v-323h-199v323h-272z" />
<glyph unicode="," horiz-adv-x="512" d="M55 -327l100 677h257l-146 -677h-211z" />
<glyph unicode="-" horiz-adv-x="997" d="M126 685v203h745v-203h-745z" />
<glyph unicode="." horiz-adv-x="501" d="M91 179q0 106 42 152t114 46q75 0 116 -49t41 -149q0 -93 -41.5 -143t-116.5 -50q-72 0 -113.5 48.5t-41.5 144.5z" />
<glyph unicode="/" horiz-adv-x="552" d="M10 -326l313 2210h219l-313 -2210h-219z" />
<glyph unicode="0" horiz-adv-x="1047" d="M105 498v722q0 112 20.5 193.5t54 137t77.5 89.5t90.5 52.5t93 24.5t85.5 6q37 0 82.5 -5.5t92 -23t90 -51t77 -89.5t54 -138t20.5 -196v-722q0 -112 -20.5 -193.5t-54.5 -138.5t-78 -92.5t-90 -55t-91 -26.5t-82 -7q-40 0 -87 7t-94 26.5t-90.5 54.5t-76.5 92t-53 139 t-20 194zM370 389q0 -106 38.5 -154t117.5 -48q78 0 115.5 48t37.5 154v925q0 112 -37.5 163t-115.5 51q-79 0 -117.5 -51t-38.5 -163v-925z" />
<glyph unicode="1" horiz-adv-x="830" d="M26 1304l388 404h193l-1 -2l1 1v-1512h197v-195h-652v195h198v1165l-212 -187z" />
<glyph unicode="2" horiz-adv-x="992" d="M102 0v152l377 726q52 99 84.5 172.5t51 129.5t25.5 97t7 74q0 52 -9.5 87.5t-28 57t-46 30.5t-63.5 9q-88 0 -127.5 -72t-39.5 -209v-97h-200q-11 56 -19 102.5t-8 101.5q0 65 22.5 129.5t70.5 116.5t122.5 84t178.5 32q112 0 191.5 -26t130.5 -76t74.5 -122t23.5 -163 q0 -52 -9.5 -102.5t-31.5 -108t-57 -125.5t-86 -156l-337 -640h499v-204h-796z" />
<glyph unicode="3" horiz-adv-x="1035" d="M96 1361q0 65 24 129.5t72.5 116.5t123 84t175.5 32q109 0 187 -25t127.5 -73.5t73 -119t23.5 -160.5v-105q0 -73 -18.5 -129.5t-48 -99t-67 -71.5t-76.5 -47v-8q50 -17 93 -44.5t74.5 -70.5t49.5 -104t18 -145v-113q0 -118 -34 -199t-92 -130.5t-135.5 -71.5t-163.5 -22 q-197 0 -299.5 94.5t-102.5 268.5q0 43 6 94.5t19 106.5h202v-87q0 -80 13.5 -134t36.5 -87t55 -47t70 -14q75 0 118 45t43 153v189q0 108 -40 166.5t-139 58.5h-109v185h109q32 0 60 10.5t49 34t33 60.5t12 90v179q0 96 -37 140t-110 44q-81 0 -124.5 -72t-43.5 -209v-97 h-200q-11 51 -19 100t-8 104z" />
<glyph unicode="4" horiz-adv-x="1100" d="M81 306v136l498 1266h309v-1199h158v-203h-158v-306h-241v306h-566zM345 509h302v252l24 644h-30z" />
<glyph unicode="5" horiz-adv-x="1030" d="M126 351q0 94 25 198h202v-140q0 -122 35.5 -175.5t116.5 -53.5q82 0 116 58.5t34 170.5v330q0 64 -11 103.5t-30 62t-44.5 30.5t-55.5 8q-56 0 -96 -31.5t-66 -75.5h-191v872h734v-229h-518v-422q42 48 105.5 75t132.5 27q159 0 233 -107t74 -315v-290 q0 -132 -34 -220.5t-90 -142t-129.5 -76.5t-151.5 -23q-95 0 -168 25.5t-122.5 73.5t-75 115.5t-25.5 151.5z" />
<glyph unicode="6" horiz-adv-x="1050" d="M108 507v702q0 118 21.5 202t57 141.5t81.5 91t94.5 51.5t96.5 23t88 5q103 0 176 -26.5t119.5 -71t67.5 -103.5t21 -124q0 -35 -6.5 -77t-20.5 -84h-197v52q0 78 -9.5 127t-29 77.5t-49.5 39t-72 10.5q-86 0 -131.5 -58.5t-45.5 -187.5v-329q38 42 99.5 70.5t142.5 28.5 q58 0 117.5 -18.5t108 -66t79 -129t30.5 -208.5v-166q0 -137 -28.5 -231t-81.5 -152.5t-127.5 -84.5t-167.5 -26q-105 0 -185.5 28t-136 90t-84 161.5t-28.5 242.5zM370 410q0 -118 40.5 -174t128.5 -56q78 0 113.5 54.5t35.5 165.5v254q0 62 -11 104t-31 67.5t-48.5 36.5 t-62.5 11q-27 0 -51.5 -8t-45.5 -21t-38 -30t-30 -34v-370z" />
<glyph unicode="7" horiz-adv-x="848" d="M41 1480v229h780v-137l-470 -1572h-281l473 1480h-502z" />
<glyph unicode="8" horiz-adv-x="1042" d="M87 414v105q0 75 16 133t44.5 101.5t67.5 75.5t84 55v8q-33 18 -66.5 45t-60.5 66.5t-44 92.5t-17 123v120q0 83 20 144t52.5 104t75.5 69.5t88.5 41.5t91 20t83.5 5t83.5 -5t91.5 -20t88.5 -41.5t75.5 -69t53 -103.5t20 -144v-120q0 -70 -17 -123t-44 -92.5t-60.5 -66.5 t-66.5 -45v-8q46 -23 84.5 -54.5t67 -75.5t44.5 -102t16 -133v-105q0 -88 -18 -154t-49.5 -114t-73.5 -79t-90.5 -49.5t-101 -26t-104.5 -7.5t-104 7.5t-100.5 25.5t-90.5 49.5t-72.5 79t-48.5 113.5t-18 154zM350 393q0 -65 14.5 -106.5t38 -65t54.5 -32.5t64 -9t64.5 9 t55.5 33t39 65.5t15 106.5v188q0 56 -11.5 95.5t-32.5 65t-51 37t-66 11.5h-25q-73 0 -116 -50.5t-43 -159.5v-188zM372 1177q0 -57 9.5 -95.5t27.5 -62t43.5 -33.5t57.5 -10h24q29 0 54.5 9.5t44.5 32.5t30 62t11 98v141q0 106 -35.5 161t-116.5 55t-115.5 -56t-34.5 -162 v-140z" />
<glyph unicode="9" horiz-adv-x="1039" d="M85 1063v166q0 136 28.5 230.5t81.5 153t127.5 84.5t167.5 26q105 0 185.5 -26.5t136 -86.5t84 -158t28.5 -241v-712q0 -118 -21 -202t-56 -141.5t-79.5 -91t-92.5 -51.5t-94.5 -23t-85.5 -5q-106 0 -181 26.5t-122 71t-69 103.5t-22 124q0 35 6.5 77t20.5 84h197v-37 q0 -78 10 -127t31 -77.5t53 -39t76 -10.5q80 0 123.5 58.5t43.5 187.5v314q-38 -42 -98 -70.5t-141 -28.5q-58 0 -118 18.5t-109 66t-80 129t-31 208.5zM344 1054q0 -62 11 -104t31 -67.5t48 -36.5t63 -11q27 0 51.5 8t45.5 21t38 30t30 34v398q0 58 -10 98.5t-30.5 65 t-52.5 35.5t-76 11q-78 0 -113.5 -54.5t-35.5 -165.5v-262z" />
<glyph unicode=":" horiz-adv-x="501" d="M91 179q0 106 42 152t114 46q75 0 116 -49t41 -149q0 -93 -41.5 -143t-116.5 -50q-72 0 -113.5 48.5t-41.5 144.5zM91 1151q0 106 42 152t114 46q75 0 116 -49t41 -149q0 -93 -41.5 -143t-116.5 -50q-72 0 -113.5 48.5t-41.5 144.5z" />
<glyph unicode=";" horiz-adv-x="501" d="M55 -327l100 677h257l-146 -677h-211zM91 1151q0 106 42 152t114 46q75 0 116 -49t41 -149q0 -93 -41.5 -143t-116.5 -50q-72 0 -113.5 48.5t-41.5 144.5z" />
<glyph unicode="&#x3c;" horiz-adv-x="775" d="M45 715v147l644 400v-235l-416 -235v-8l416 -236v-234z" />
<glyph unicode="=" horiz-adv-x="916" d="M86 488v195h744v-195h-744zM86 895v195h744v-195h-744z" />
<glyph unicode="&#x3e;" horiz-adv-x="775" d="M35 314v234l416 236v8l-416 235v235l644 -400v-147z" />
<glyph unicode="?" horiz-adv-x="1026" d="M112 1465q0 76 23 142t72 115t124 77t179 28q103 0 180.5 -27.5t129.5 -78.5t77.5 -122.5t25.5 -159.5q0 -49 -9 -95t-27.5 -92t-47 -93t-67.5 -99l-80 -108q-29 -39 -45 -67t-24 -55t-9.5 -57t-1.5 -72v-144h-221l1 203q0 40 2 69.5t8.5 56.5t19.5 54.5t35 62.5l118 186 q38 63 60 128t22 122q0 41 -11 75t-31 58t-49.5 37.5t-65.5 13.5q-81 0 -119 -71.5t-38 -208.5v-82h-204q-11 56 -19 102.5t-8 101.5zM360 177q0 105 42 150.5t114 45.5q75 0 116 -48t41 -148q0 -91 -41.5 -141t-116.5 -50q-72 0 -113.5 48.5t-41.5 142.5z" />
<glyph unicode="@" horiz-adv-x="1649" d="M90 513v432q0 182 32 317.5t86.5 232.5t127 160t154 99.5t167 51t166.5 14.5q83 0 170 -12t168.5 -45t154 -92t126.5 -152.5t85.5 -226.5t31.5 -315v-212q0 -140 -13 -259t-47.5 -206t-95.5 -136t-158 -49q-103 0 -164 46.5t-89 146.5q-35 -94 -94 -143t-134 -49 q-26 0 -58 3.5t-65 18.5t-64 45.5t-55 83.5t-38.5 133t-14.5 194v243q0 103 13.5 177.5t36 125.5t52 82.5t60.5 48.5t61.5 22.5t55.5 5.5q70 0 119 -35t81 -89l19 109h196v-834q0 -44 7.5 -73.5t20.5 -46.5t29.5 -24t33.5 -7q22 0 42 13.5t34 55.5t22.5 120.5t8.5 208.5v280 q0 159 -25.5 270.5t-67.5 186t-97 117t-114.5 63.5t-119.5 26.5t-112 5.5q-53 0 -113 -7.5t-120 -32.5t-115 -71.5t-97 -124.5t-67.5 -192t-25.5 -273v-471q0 -163 27 -277.5t72.5 -191.5t106 -122t126.5 -67.5t134.5 -28.5t130.5 -6q29 0 65 2.5t72.5 8t71 13.5t61.5 19 v-160q-20 -14 -56 -26t-81 -21t-94.5 -14.5t-95.5 -5.5q-64 0 -143.5 11t-161.5 45t-159.5 96t-138 163.5t-97.5 249t-37 351.5zM709 546q0 -74 8 -119.5t23 -71t35.5 -34.5t45.5 -9q38 0 62 24.5t40 58.5v622q-16 38 -40.5 63.5t-60.5 25.5q-22 0 -42.5 -9t-36 -35 t-25 -73.5t-9.5 -124.5v-318z" />
<glyph unicode="A" horiz-adv-x="967" d="M19 0l315 1708h298l316 -1708h-262l-47 306h-312l-45 -306h-263zM357 501h252l-120 851h-11z" />
<glyph unicode="B" horiz-adv-x="1047" d="M146 0v1708h262q58 0 120 -4t121 -17t112 -38.5t92.5 -68.5t63 -106.5t23.5 -152.5v-83q0 -68 -19.5 -125t-51.5 -100.5t-73 -72t-84 -38.5v-8q127 -23 191.5 -120.5t64.5 -249.5v-87q0 -93 -20.5 -161.5t-57.5 -117t-88 -79.5t-112 -48.5t-130 -24t-142 -6.5h-272z M400 180h74q52 0 94.5 13.5t73 42t47 72.5t16.5 104v133q0 60 -12 106.5t-39.5 78t-71.5 48t-108 16.5h-74v-614zM400 977h50q52 0 95 12.5t73.5 39t47 69t16.5 102.5v70q0 60 -12 106t-39.5 78t-72 48.5t-108.5 16.5h-50v-542z" />
<glyph unicode="C" horiz-adv-x="936" d="M99 556v605q0 129 20 220.5t53 154t76 99.5t89 56.5t91.5 25.5t84.5 6q102 0 170.5 -28.5t110 -78t59 -115.5t17.5 -140q0 -55 -5.5 -101.5t-16.5 -102.5h-210v87q0 281 -122 281q-36 0 -63 -14t-45 -47.5t-27.5 -88.5t-9.5 -137v-780q0 -80 7.5 -133t24.5 -85 t44.5 -45.5t66.5 -13.5q25 0 48 11.5t40.5 36t28 62t10.5 88.5v167h237v-158q0 -206 -94 -304t-270 -99q-40 0 -86.5 6.5t-93 27.5t-89 59.5t-75 101.5t-52 155.5t-19.5 220.5z" />
<glyph unicode="D" horiz-adv-x="1061" d="M146 0v1708h269q61 0 126.5 -3.5t128 -21.5t118 -55.5t97.5 -105t66.5 -170t24.5 -250.5v-496q0 -148 -24.5 -251t-66.5 -170t-97.5 -104.5t-118 -55.5t-128 -21.5t-126.5 -3.5h-269zM405 181h66q70 0 115.5 18t72 63.5t36.5 124t10 198.5v530q0 120 -10 198.5t-36.5 124 t-72 63.5t-115.5 18h-66v-1338z" />
<glyph unicode="E" horiz-adv-x="830" d="M146 0v1708h633v-204h-374v-511h289v-204h-289v-585h384v-204h-643z" />
<glyph unicode="F" horiz-adv-x="826" d="M146 0v1708h653v-204h-394v-511h309v-204h-309v-789h-259z" />
<glyph unicode="G" horiz-adv-x="1047" d="M109 556v605q0 129 21 220.5t56 154t80.5 99.5t94.5 56.5t97 25.5t89 6q104 0 175.5 -28.5t116 -78t64 -115.5t19.5 -140q0 -55 -6.5 -101.5t-17.5 -102.5h-207v81q0 281 -151 281q-41 0 -71 -14t-50 -47.5t-29.5 -88.5t-9.5 -137v-774q0 -80 9.5 -133t29 -85t49 -45.5 t70.5 -13.5q43 0 74 22.5t51 61.5t29.5 92t9.5 115v223h-133v170h385v-865h-172l-28 162q-49 -95 -112.5 -136.5t-150.5 -41.5q-30 0 -70 6.5t-82.5 27.5t-83.5 59.5t-73.5 102t-52.5 156t-20 220.5z" />
<glyph unicode="H" horiz-adv-x="1119" d="M146 0v1708h259v-715h307v715h259v-1708h-259v789h-307v-789h-259z" />
<glyph unicode="I" horiz-adv-x="551" d="M146 0v1708h259v-1708h-259z" />
<glyph unicode="J" horiz-adv-x="850" d="M12 362q0 54 7 121t21 136h207l-3 -208q0 -66 6 -110.5t18.5 -71t32 -38t47.5 -11.5q23 0 41.5 9t31.5 31.5t20 60.5t7 97l3 1330h259v-1294q0 -132 -30 -216t-80.5 -131.5t-115 -65t-133.5 -17.5q-96 0 -161 30t-104.5 81.5t-56.5 120.5t-17 146z" />
<glyph unicode="K" horiz-adv-x="1005" d="M146 0v1708h259v-746h8l296 746h258l-330 -801l367 -907h-277l-314 813h-8v-813h-259z" />
<glyph unicode="L" horiz-adv-x="776" d="M146 0v1708h259v-1504h353v-204h-612z" />
<glyph unicode="M" horiz-adv-x="1442" d="M146 0v1708h338l164 -661q26 -111 41 -210t29 -187h8q14 88 29 187t41 210l169 661h331v-1708h-242v565q0 130 2.5 250t6.5 220.5t9 177.5t9 122h-19l-258 -1115h-164l-260 1115h-19q4 -45 9 -122t9 -177.5t6.5 -220.5t2.5 -250v-565h-242z" />
<glyph unicode="N" horiz-adv-x="1127" d="M146 0v1708h210l414 -1143h6q-3 40 -7.5 89t-9 111.5t-7.5 141.5t-3 178v623h232v-1708h-212l-412 1113h-8q3 -45 7.5 -97.5t9 -123.5t7.5 -165.5t3 -224.5v-502h-230z" />
<glyph unicode="O" horiz-adv-x="1044" d="M99 556v605q0 129 20.5 220.5t54.5 154t77.5 99.5t91 56.5t94.5 25.5t87 6q38 0 84.5 -5t93 -24t90.5 -55.5t78 -99t54.5 -155t20.5 -223.5v-605q0 -127 -21 -218.5t-55 -155t-78.5 -102t-91 -60t-92.5 -28.5t-83 -7q-41 0 -89 6.5t-95 27.5t-90.5 59.5t-77 101.5 t-53.5 155.5t-20 220.5zM370 455q0 -80 9.5 -132.5t28.5 -84.5t48 -45t68 -13q38 0 66.5 13t47 45t28 84.5t9.5 132.5v777q0 82 -9.5 137t-28 88.5t-47 47.5t-66.5 14q-39 0 -68 -14t-48 -47.5t-28.5 -88.5t-9.5 -137v-777z" />
<glyph unicode="P" horiz-adv-x="982" d="M146 0v1708h259q49 0 107.5 -4.5t117 -21t113 -50.5t96.5 -92.5t67.5 -146.5t25.5 -214v-60q0 -137 -23.5 -234.5t-62.5 -164t-90.5 -106.5t-107 -60.5t-112 -27t-106.5 -6.5h-25v-520h-259zM405 710h13q70 0 118 20.5t76.5 64t41 112t12.5 164.5v154q0 76 -11 131.5 t-39.5 91.5t-76.5 53.5t-121 17.5h-13v-809z" />
<glyph unicode="Q" horiz-adv-x="1064" d="M109 556v605q0 129 20.5 220.5t54.5 154t77.5 99.5t91 56.5t94.5 25.5t87 6q38 0 84.5 -5t93 -24t90.5 -55.5t78 -99t54.5 -155t20.5 -223.5v-605q0 -148 -28 -248.5t-72.5 -165t-99 -97.5t-108.5 -46v-15q0 -49 11.5 -79t34 -46.5t56 -22t77.5 -5.5h28t26 1v-140 q-49 -22 -92 -30t-91 -8q-21 0 -49 2.5t-58 12t-58.5 27t-51.5 48t-37 75.5t-14 109v67q-57 11 -114 42t-103 95t-74.5 166.5t-28.5 257.5zM380 455q0 -80 9.5 -132.5t28.5 -84.5t48 -45t68 -13q38 0 66.5 13t47 45t28 84.5t9.5 132.5v777q0 82 -9.5 137t-28 88.5t-47 47.5 t-66.5 14q-39 0 -68 -14t-48 -47.5t-28.5 -88.5t-9.5 -137v-777z" />
<glyph unicode="R" horiz-adv-x="1048" d="M146 0v1708h281q48 0 105.5 -4t115 -19.5t111 -46.5t95 -85t66.5 -135.5t25 -197.5v-43q0 -196 -56 -318t-165 -176l274 -683h-274l-227 639h-97v-639h-254zM400 826h39q68 0 115 15t76 50.5t42 94t13 144.5v135q0 66 -12 114t-40.5 79t-76 46t-117.5 15h-39v-693z" />
<glyph unicode="S" horiz-adv-x="956" d="M80 346q0 55 6.5 101.5t19.5 100.5h201v-83q0 -69 8.5 -122t28 -89.5t52 -55t79.5 -18.5q75 0 113.5 40.5t38.5 118.5q0 40 -5.5 73.5t-19 67t-36.5 69.5t-59 81l-270 321q-72 93 -111 186t-39 199q0 85 26.5 156t76.5 122.5t123.5 80t166.5 28.5q113 0 188.5 -32 t120.5 -84t63.5 -116.5t18.5 -129.5q0 -55 -8.5 -101.5t-19.5 -102.5h-200v81q0 137 -39 209t-127 72q-73 0 -109 -40t-36 -109q0 -36 5.5 -65t16 -53.5t25.5 -47.5t34 -48l301 -364q82 -107 126 -205.5t44 -208.5q0 -91 -28.5 -164t-81.5 -124t-128 -78.5t-169 -27.5 q-116 0 -192.5 31t-122 82t-64 116t-18.5 133z" />
<glyph unicode="T" horiz-adv-x="866" d="M29 1504v204h808v-204h-274v-1504h-259v1504h-275z" />
<glyph unicode="U" horiz-adv-x="1094" d="M140 525v1183h261v-1252q0 -80 8 -133t25.5 -84.5t45 -45t65.5 -13.5t66.5 13.5t47 45t28 84.5t9.5 133v1252h258v-1183q0 -125 -20 -214t-53 -149t-75.5 -95t-88 -53.5t-90.5 -23.5t-82 -5t-81.5 5t-89.5 23.5t-87 53.5t-75 95t-52.5 148.5t-19.5 214.5z" />
<glyph unicode="V" horiz-adv-x="955" d="M19 1708h265l188 -1353h11l189 1353h264l-311 -1708h-296z" />
<glyph unicode="W" horiz-adv-x="1479" d="M37 1708h248l115 -1032l13 -241h25l24 271l184 1002h207l176 -1002l20 -271h26l12 241l105 1032h249l-239 -1708h-263l-141 821l-44 357h-20l-43 -357l-148 -821h-260z" />
<glyph unicode="X" horiz-adv-x="939" d="M33 0l312 860l-312 848h277l159 -546h10l159 546h268l-313 -849l313 -859h-267l-162 549h-17l-169 -549h-258z" />
<glyph unicode="Y" horiz-adv-x="959" d="M5 1708h261l209 -817h12l207 817h260l-346 -1139v-569h-259v569z" />
<glyph unicode="Z" horiz-adv-x="865" d="M39 0v137l506 1367h-430v204h721v-137l-507 -1367h477v-204h-767z" />
<glyph unicode="[" horiz-adv-x="776" d="M139 -256v2219h505v-192h-283v-1837h283v-190h-505z" />
<glyph unicode="\" horiz-adv-x="552" d="M10 1884h219l313 -2210h-219z" />
<glyph unicode="]" horiz-adv-x="776" d="M131 -66h284v1837h-284v192h505v-2219h-505v190z" />
<glyph unicode="^" horiz-adv-x="959" d="M35 277l323 1448h233l333 -1448h-219l-162 790l-51 335h-25l-54 -335l-159 -790h-219z" />
<glyph unicode="_" horiz-adv-x="1381" d="M-5 -172h1391v-163h-1391v163z" />
<glyph unicode="`" horiz-adv-x="687" d="M114 1846l169 137l290 -416l-125 -105z" />
<glyph unicode="a" horiz-adv-x="924" d="M54 316q0 85 21 151t61.5 119t100.5 96.5t139 82.5q19 9 41 19t44.5 19.5t44.5 18t40 15.5v182q0 40 -3 74.5t-14.5 60t-34.5 40t-63 14.5q-27 0 -52.5 -10t-45 -34t-31 -64t-11.5 -99v-60h-193q-9 39 -13.5 71.5t-4.5 64.5q0 77 26.5 136t74 99t113.5 60.5t145 20.5 q103 0 171 -22.5t108.5 -67.5t57 -113t16.5 -159v-1031h-188l-18 118q-42 -60 -110 -96.5t-156 -36.5q-64 0 -113.5 25.5t-83.5 69.5t-51.5 104.5t-17.5 131.5zM302 355q0 -79 31 -127t99 -48q32 0 62.5 16.5t51.5 40.5v431q-20 -8 -45 -19t-54 -29q-27 -17 -53 -41 t-46.5 -57t-33 -74.5t-12.5 -92.5z" />
<glyph unicode="b" horiz-adv-x="989" d="M130 0v1819h253v-367l-8 -182l1 -1q17 24 39.5 46t51 39.5t63 27.5t75.5 10q21 0 50.5 -4t61 -20t63 -47.5t56 -86.5t40 -137t15.5 -199v-417q0 -117 -15.5 -199t-40.5 -137.5t-57 -87.5t-65 -48t-64 -20.5t-54 -4.5q-48 0 -86 12t-68 32.5t-52.5 46.5t-39.5 53l-21 -128 h-198zM383 279q8 -19 19 -37t26.5 -31.5t35.5 -22t45 -8.5q28 0 51 10.5t40 38t26.5 76.5t9.5 126v527q0 77 -9.5 125.5t-26 76.5t-39.5 38t-51 10q-48 0 -78 -27.5t-49 -65.5v-836z" />
<glyph unicode="c" horiz-adv-x="871" d="M94 564v260q0 131 19 224.5t50.5 157t72 100.5t83.5 56.5t85 25t77 5.5q70 0 128 -18.5t100 -56t65 -94.5t23 -134q0 -48 -4.5 -82.5t-12.5 -66.5h-202v46q0 104 -24.5 162.5t-80.5 58.5q-31 0 -54 -14.5t-38.5 -49.5t-23 -94t-7.5 -148v-391q0 -90 6 -153t21 -102.5 t39.5 -57.5t62.5 -18q19 0 37 9.5t31.5 31.5t22 58.5t8.5 90.5v43h218v-53q0 -196 -86.5 -285.5t-258.5 -89.5q-174 0 -265.5 143t-91.5 436z" />
<glyph unicode="d" horiz-adv-x="988" d="M98 481v437q0 116 16.5 196t43.5 132.5t60.5 82t67 43.5t64 17t50.5 3q37 0 70 -10t60 -26.5t48 -37t35 -41.5l1 1l-8 174v367h252v-1819h-197l-22 128q-17 -27 -39.5 -53t-52 -46t-67.5 -32.5t-86 -12.5q-23 0 -54 4.5t-64 20.5t-65 48t-57 87.5t-40.5 137.5t-15.5 199z M352 431q0 -77 9.5 -126t26.5 -76.5t40.5 -38t51.5 -10.5q25 0 44.5 8.5t35 22t27 31.5t19.5 37v828q-19 42 -50.5 71.5t-76.5 29.5q-28 0 -51 -10t-40 -37.5t-26.5 -76t-9.5 -125.5v-528z" />
<glyph unicode="e" horiz-adv-x="922" d="M94 564v260q0 131 19 224.5t51 157t73.5 100.5t85.5 56.5t87.5 25t80.5 5.5q68 0 131 -20.5t111 -70t76.5 -132.5t28.5 -207q0 -84 -9.5 -169.5t-23.5 -152.5h-457v-140q0 -90 7 -151.5t23.5 -99t45 -54t71.5 -16.5q23 0 45 9.5t38.5 31.5t26.5 58.5t10 90.5v43h211v-53 q0 -196 -93.5 -285.5t-270.5 -89.5q-89 0 -157.5 33t-115.5 103t-71 179.5t-24 263.5zM348 811h254q1 11 2 29.5t1.5 38.5t0.5 39.5v33.5q0 136 -32 196t-95 60q-33 0 -58 -15.5t-41 -52t-24 -96.5t-8 -149v-84z" />
<glyph unicode="f" horiz-adv-x="616" d="M45 1197v180h119v99q0 112 23 182.5t63.5 110t95 53.5t117.5 14q18 0 40.5 -2t45 -6t44 -10.5t38.5 -15.5v-178q-44 11 -94 11q-25 0 -47.5 -8t-39.5 -26.5t-27 -49t-10 -75.5v-99h191v-180h-191v-1197h-249v1197h-119z" />
<glyph unicode="g" horiz-adv-x="993" d="M98 556v362q0 112 15.5 190.5t40.5 131.5t57.5 83t66 45.5t65.5 19.5t57 4q51 0 89 -13t66.5 -34.5t48.5 -48.5t34 -54l23 136h197v-1322q0 -115 -22 -207.5t-69 -158t-119.5 -100.5t-173.5 -35q-68 0 -128 12t-105 42.5t-71 83t-26 133.5q0 14 3 35t10 45h179 q0 -89 33 -126t102 -37q28 0 54 8.5t45.5 31t31.5 62.5t12 103v217q-34 -45 -87.5 -76t-132.5 -31q-23 0 -54 4.5t-64 20.5t-65 48.5t-57 87.5t-40.5 137.5t-15.5 199.5zM352 506q0 -77 9.5 -126t26.5 -77t40.5 -38.5t51.5 -10.5q25 0 44.5 8.5t35 22.5t27 32t19.5 37v753 q-19 42 -50.5 71.5t-76.5 29.5q-28 0 -51 -10t-40 -37.5t-26.5 -76t-9.5 -125.5v-453z" />
<glyph unicode="h" horiz-adv-x="1022" d="M130 0v1819h253v-324l-13 -236q28 39 60.5 64.5t67 41t70 22t70.5 6.5q121 0 186.5 -84t65.5 -254v-1055h-253v1046q0 91 -28 126.5t-82 35.5q-38 0 -76.5 -25.5t-67.5 -70.5v-1112h-253z" />
<glyph unicode="i" horiz-adv-x="521" d="M114 1739q0 45 10.5 75.5t30 49t47.5 27t64 8.5q75 0 114 -37.5t39 -122.5q0 -78 -39.5 -121.5t-114.5 -43.5q-70 0 -110.5 42t-40.5 123zM134 0v1377h253v-1377h-253z" />
<glyph unicode="j" horiz-adv-x="521" d="M-7 -273q8 -1 16 -1.5t16 -0.5q22 0 42 8t35 26.5t23.5 49t8.5 75.5v1493h253v-1461q0 -113 -22.5 -183t-60.5 -109.5t-87 -53.5t-102 -14q-30 0 -61 5t-61 19v147zM114 1739q0 45 10.5 75.5t30 49t47.5 27t64 8.5q75 0 114 -37.5t39 -122.5q0 -78 -39.5 -121.5 t-114.5 -43.5q-70 0 -110.5 42t-40.5 123z" />
<glyph unicode="k" horiz-adv-x="942" d="M134 0v1819h253v-1047h8l276 605h243l-306 -630l335 -747h-258l-290 683h-8v-683h-253z" />
<glyph unicode="l" horiz-adv-x="521" d="M134 0v1819h253v-1819h-253z" />
<glyph unicode="m" horiz-adv-x="1520" d="M130 0v1377h196l22 -147v-1q30 47 64 78.5t70.5 50.5t75 27t76.5 8q163 0 222 -156q30 45 63.5 75t69.5 48t73 25.5t75 7.5q121 0 186 -84t65 -254v-1055h-253v1046q0 90 -28 126t-89 36q-35 0 -70 -25.5t-64 -70.5q1 -9 1 -18v-18v-1076h-253v1046q0 90 -28 126t-89 36 q-34 0 -69 -24.5t-63 -69.5v-1114h-253z" />
<glyph unicode="n" horiz-adv-x="1020" d="M130 0v1377h195l23 -147v-1q30 47 64.5 78.5t71.5 50.5t75.5 27t76.5 8q121 0 186.5 -84t65.5 -254v-1055h-253v1046q0 91 -28 126.5t-82 35.5q-38 0 -75.5 -24.5t-66.5 -69.5v-1114h-253z" />
<glyph unicode="o" horiz-adv-x="950" d="M94 591v216q0 134 16.5 229.5t45 160.5t66.5 103.5t80.5 59t87.5 27t88 6.5q41 0 85 -6t86 -25.5t79.5 -58t66 -103.5t45 -161.5t16.5 -231.5v-216q0 -134 -17 -231t-46 -164t-67 -108.5t-80 -64.5t-85.5 -30.5t-83.5 -7.5q-44 0 -89.5 7t-88 29t-80 63t-65.5 108 t-44 165t-16 234zM348 523q0 -97 7 -162.5t23 -105.5t40.5 -57.5t60.5 -17.5q34 0 57.5 17.5t38 57.5t21 105.5t6.5 162.5v339q0 97 -6.5 163t-21 106.5t-38 58.5t-57.5 18q-36 0 -60.5 -18t-40.5 -58.5t-23 -106.5t-7 -163v-339z" />
<glyph unicode="p" horiz-adv-x="990" d="M130 -445v1822h198l23 -145q17 28 40.5 57t55 51.5t71 37t88.5 14.5q21 0 50.5 -4t61 -20t63 -47.5t56 -86.5t40 -137t15.5 -199v-417q0 -117 -15.5 -199t-40.5 -137t-57 -87t-65 -48t-64 -20.5t-54 -4.5q-40 0 -73.5 8.5t-60.5 22.5t-48.5 33.5t-38.5 41.5l8 -169v-367 h-253zM383 281q16 -40 46.5 -70.5t80.5 -30.5q28 0 51 10.5t40 38t26.5 76.5t9.5 126v527q0 77 -9.5 125.5t-26 76.5t-39.5 38t-51 10q-24 0 -43.5 -7.5t-35 -20.5t-28 -30.5t-21.5 -36.5v-832z" />
<glyph unicode="q" horiz-adv-x="988" d="M98 481v417q0 117 15.5 199t40 137t56 86.5t63 47.5t61 20t50.5 4q49 0 88 -14t70 -36.5t54.5 -51t40.5 -56.5l24 143h197v-1823h-252v367l7 168q-34 -43 -87 -73.5t-132 -30.5q-23 0 -54 4.5t-64 20.5t-65 48t-57 87t-40.5 137t-15.5 199zM352 431q0 -77 9.5 -126 t26.5 -76.5t40.5 -38t51.5 -10.5q25 0 44.5 8.5t35 22t27 31.5t19.5 37v828q-19 42 -50.5 71.5t-76.5 29.5q-28 0 -51 -10.5t-40 -38t-26.5 -76.5t-9.5 -126v-526z" />
<glyph unicode="r" horiz-adv-x="788" d="M130 0v1377h185l22 -140q42 78 96.5 117t111.5 39q109 0 161 -66.5t52 -201.5q0 -17 -2.5 -40.5t-7 -49t-11 -51t-13.5 -46.5h-176v128q0 42 -5.5 69t-14.5 43.5t-21.5 23t-25.5 6.5q-30 0 -55.5 -19.5t-42.5 -54.5v-1134h-253z" />
<glyph unicode="s" horiz-adv-x="829" d="M76 288q0 45 8.5 87t16.5 67h178q0 -75 7.5 -125.5t24.5 -80.5t45.5 -43t69.5 -13q57 0 83 32t26 74q0 22 -6 42t-17 40.5t-27 41.5t-36 46l-185 218q-36 45 -69.5 91.5t-59 96t-41 103.5t-15.5 114q0 80 27.5 139t74 98t107.5 58t129 19q75 0 135 -18t103 -54t66 -89.5 t23 -124.5q0 -48 -8.5 -93t-16.5 -77h-175q-1 68 -6 119t-18.5 84.5t-37 50.5t-61.5 17q-33 0 -55 -10.5t-35.5 -27.5t-19 -38t-5.5 -43q0 -48 23 -89t61 -89l202 -237q22 -27 51 -65t55 -85t44 -102t18 -115q0 -73 -23 -132.5t-68 -101.5t-110.5 -65t-149.5 -23 q-69 0 -130 15.5t-106 51t-71 93.5t-26 143z" />
<glyph unicode="t" horiz-adv-x="675" d="M52 1197v180h129l51 357h180v-357h220v-180h-220v-876q0 -45 8.5 -72.5t23.5 -43t34.5 -20.5t42.5 -5q37 0 65.5 9t54.5 25v-140q-22 -27 -47.5 -44t-52.5 -27.5t-55 -14.5t-55 -4q-53 0 -102 14t-87 53.5t-60.5 109.5t-22.5 182v854h-107z" />
<glyph unicode="u" horiz-adv-x="1021" d="M132 322v1055h253v-1035q0 -91 28 -126.5t82 -35.5q38 0 74 21t65 60v1116h253v-1377h-193l-25 147h-1q-30 -47 -64 -78.5t-70 -50t-74 -26.5t-76 -8q-121 0 -186.5 83.5t-65.5 254.5z" />
<glyph unicode="v" horiz-adv-x="874" d="M16 1377h252l133 -732l33 -293h8l38 293l132 732h244l-314 -1377h-216z" />
<glyph unicode="w" horiz-adv-x="1338" d="M35 1377h241l99 -746l24 -279h8l30 279l132 746h213l136 -746l37 -279h8l17 279l87 746h236l-223 -1377h-233l-143 766l-32 211h-8l-29 -211l-130 -766h-243z" />
<glyph unicode="x" horiz-adv-x="902" d="M25 0l286 699l-272 678h259l147 -451h2l156 451h242l-261 -654l293 -723h-259l-170 475h-8l-172 -475h-243z" />
<glyph unicode="y" horiz-adv-x="898" d="M18 1377h257l145 -762l42 -263h8l29 263l117 762h249l-290 -1428q-19 -99 -48.5 -173t-73 -123t-103.5 -73.5t-140 -24.5q-67 0 -133 25l1 155q23 -3 44 -3q32 0 61 7q48 12 82.5 43.5t55 84t23.5 125.5z" />
<glyph unicode="z" horiz-adv-x="703" d="M22 0v126l386 1059h-353v192h624v-126l-387 -1059h389v-192h-659z" />
<glyph unicode="{" horiz-adv-x="896" d="M76 767v179l51 3q38 2 67 13t49 35.5t30 64t10 99.5v419q0 103 26.5 176t72 119.5t105.5 67.5t128 21q32 0 71.5 -7t78.5 -19v-154h-38q-62 0 -103.5 -7t-67.5 -23t-37 -42.5t-11 -65.5v-401q0 -74 -7.5 -134t-26 -106.5t-50 -80.5t-78.5 -55v-26q46 -21 77 -55t50 -80.5 t27 -106.5t8 -133v-405q0 -39 11 -65.5t37 -43t67.5 -23.5t103.5 -7h38v-153q-39 -13 -78.5 -20t-71.5 -7q-68 0 -128 21t-105 67.5t-71.5 119.5t-26.5 177v422q0 60 -10 100t-30 64.5t-49 35.5t-67 13z" />
<glyph unicode="|" horiz-adv-x="714" d="M247 -326v2210h220v-2210h-220z" />
<glyph unicode="}" horiz-adv-x="896" d="M131 -76h38q61 0 103 7t68 23.5t37 43t11 65.5v405q0 73 8 133t26.5 106.5t49.5 80.5t77 55v26q-47 21 -78 55t-49.5 81t-26 107t-7.5 133v401q0 39 -11 65.5t-37 42.5t-68 23t-103 7h-38v154q39 12 78 19t72 7q67 0 127.5 -21t106 -67.5t72 -119.5t26.5 -176v-419 q0 -60 10 -99.5t30 -64t49 -35.5t67 -13l51 -3v-179l-52 -3q-38 -2 -67 -13t-49 -35.5t-30 -64.5t-10 -100v-422q0 -104 -26.5 -177t-71.5 -119.5t-105.5 -67.5t-127.5 -21q-33 0 -72 7t-78 20v153z" />
<glyph unicode="~" horiz-adv-x="1304" d="M130 450q-10 130 11 216.5t63 138.5t100.5 73.5t123.5 21.5q66 0 116 -23t89 -58t69.5 -75t58 -75t55 -58t60.5 -23q69 0 94.5 71.5t1.5 209.5h192q22 -117 7.5 -205.5t-54 -147t-97 -88t-120.5 -29.5q-68 0 -120 23t-93 57t-74 74.5t-62 74.5t-57 57t-60 23 q-38 0 -64.5 -19t-41.5 -53t-18 -81.5t6 -104.5h-186z" />
<glyph unicode="&#xa2;" horiz-adv-x="899" d="M113 564v260q0 102 11.5 180.5t32 138t47.5 101t58.5 69.5t65 44t66.5 24v242h186v-237q53 -9 96.5 -32t74 -60t47 -88t16.5 -116q0 -48 -4.5 -82.5t-12.5 -66.5h-192v46q0 105 -28 163t-85 58q-31 0 -54.5 -15.5t-39 -52t-23.5 -96.5t-8 -149v-394q0 -90 6.5 -151.5 t22 -99t40.5 -54t62 -16.5q19 0 38 9.5t34.5 31.5t25 58.5t9.5 90.5v53h205v-63q0 -162 -56.5 -250t-172.5 -114v-254h-186v250q-69 13 -121.5 52.5t-88.5 109.5t-54 171.5t-18 238.5z" />
<glyph unicode="&#xa3;" horiz-adv-x="1006" d="M66 701v179h129v344q0 248 92 373.5t294 125.5q94 0 161 -29.5t109 -78.5t61.5 -112.5t19.5 -131.5q0 -48 -7 -102.5t-19 -111.5h-201v71q0 81 -9.5 136.5t-26.5 90t-41 50t-54 15.5q-32 0 -55 -14t-38.5 -47.5t-23 -90.5t-7.5 -144v-344h279v-179h-279v-138 q0 -121 -17.5 -208.5t-60.5 -150.5h536v-204h-810v152q42 19 62 61t28 100.5t7.5 129.5t-0.5 148v110h-129z" />
<glyph unicode="&#xa5;" horiz-adv-x="1006" d="M38 1708h261l198 -716h12l198 716h261l-337 -981h235v-180h-235v-151h235v-179h-235v-217h-258v217h-236v179h236v151h-236v180h236z" />
<glyph unicode="&#xa8;" horiz-adv-x="948" d="M114 1728q0 43 6.5 75t22 53.5t42 32t66.5 10.5q82 0 113.5 -41.5t31.5 -129.5q0 -77 -31.5 -119.5t-113.5 -42.5q-78 0 -107.5 40.5t-29.5 121.5zM552 1728q0 43 6.5 75t22 53.5t41.5 32t66 10.5q82 0 114 -41.5t32 -129.5q0 -77 -32 -119.5t-114 -42.5q-78 0 -107 40.5 t-29 121.5z" />
<glyph unicode="&#xa9;" horiz-adv-x="1458" d="M104 694v336q0 155 30 268t79.5 192t114.5 128t134.5 76t139.5 36.5t130 9.5q58 0 126.5 -9t137.5 -35t134 -74.5t114.5 -127.5t79.5 -193t30 -271v-336q0 -157 -30 -271t-80 -193t-115 -127t-134 -74t-138 -35t-127 -9q-60 0 -129.5 9.5t-139.5 36.5t-134 75.5 t-114 127.5t-79.5 192t-29.5 268zM260 670q0 -123 22 -211.5t59 -149.5t85 -98.5t100.5 -57.5t105 -26.5t98.5 -6.5q45 0 97 6t103.5 25.5t100 56.5t85.5 98t60 150t24 214v384q0 125 -22.5 214t-59.5 150t-85.5 98t-100.5 56.5t-104 25.5t-96 6q-46 0 -99 -6.5 t-105.5 -26.5t-100.5 -57.5t-85.5 -98.5t-59.5 -149.5t-22 -211.5v-384zM421 736v257q0 100 16 171.5t43 120t62 77.5t72 44t73.5 19.5t67.5 4.5q79 0 132.5 -23.5t86 -60t46.5 -81t14 -86.5q0 -43 -5 -79t-13 -80h-164v56q0 187 -102 187q-27 0 -48.5 -11t-35.5 -36.5 t-21.5 -68.5t-7.5 -107v-367q0 -62 7.5 -103t22 -66t37 -35t52.5 -10q42 0 69.5 35.5t27.5 116.5v85h185v-74q0 -162 -72 -245.5t-210 -84.5q-32 0 -69.5 5t-74.5 21.5t-71.5 46t-61 79t-42.5 121t-16 171.5z" />
<glyph unicode="&#xab;" horiz-adv-x="1336" d="M144 717v150l389 406l137 -124l-283 -359l279 -360l-137 -125zM651 717v150l389 406l137 -124l-283 -359l279 -360l-137 -125z" />
<glyph unicode="&#xad;" horiz-adv-x="997" d="M126 685v203h745v-203h-745z" />
<glyph unicode="&#xae;" horiz-adv-x="1479" d="M104 879v166q0 151 31.5 261.5t83.5 188t118.5 125.5t137.5 74.5t140.5 36t126.5 9.5q55 0 123 -9t138.5 -34.5t137 -73t119 -125t84 -188.5t31.5 -265v-166q0 -154 -32 -265t-84 -188.5t-119 -125t-138 -73t-139 -34.5t-123 -9q-57 0 -126.5 9.5t-140 36.5t-137 75 t-118 125t-83 187.5t-31.5 261.5zM260 871q0 -119 22 -205t59 -146t85.5 -97.5t102 -58t108 -27.5t103.5 -7q48 0 101.5 6.5t106.5 26.5t102 56.5t86.5 97t60 147t23.5 207.5v182q0 121 -22.5 208t-59.5 147t-86 96.5t-102 56.5t-107 26.5t-101 6.5q-49 0 -104 -7 t-108.5 -27.5t-102.5 -58t-86 -97.5t-59 -146t-22 -205v-182zM478 562v825h183q38 0 80 -2t83.5 -10t79 -24t66.5 -44t46 -70t17 -102v-30q0 -75 -33 -129.5t-96 -82.5l187 -331h-207l-128 280h-95v-280h-183zM661 968h31q78 0 109.5 32.5t31.5 101.5v42q0 27 -7 48.5 t-23 37t-43.5 23.5t-67.5 8h-31v-293z" />
<glyph unicode="&#xb4;" horiz-adv-x="687" d="M114 1567l290 416l169 -137l-334 -384z" />
<glyph unicode="&#xb8;" horiz-adv-x="594" d="M114 -389l7 151q8 -1 16.5 -1h16.5q34 0 61.5 7t47 26.5t31 55.5t14.5 94l2 44l93 148l69 -137l6 -103q4 -71 -6 -122t-28 -86t-42.5 -56t-49.5 -32.5t-48 -15t-39 -3.5q-42 0 -75.5 7t-75.5 23z" />
<glyph unicode="&#xbb;" horiz-adv-x="1368" d="M167 1149l137 124l389 -406v-150l-385 -412l-137 125l279 360zM688 1149l137 124l389 -406v-150l-385 -412l-137 125l279 360z" />
<glyph unicode="&#x106;" horiz-adv-x="936" d="M99 556v605q0 129 20 220.5t53 154t76 99.5t89 56.5t91.5 25.5t84.5 6q102 0 170.5 -28.5t110 -78t59 -115.5t17.5 -140q0 -55 -5.5 -101.5t-16.5 -102.5h-210v87q0 281 -122 281q-36 0 -63 -14t-45 -47.5t-27.5 -88.5t-9.5 -137v-780q0 -80 7.5 -133t24.5 -85 t44.5 -45.5t66.5 -13.5q25 0 48 11.5t40.5 36t28 62t10.5 88.5v167h237v-158q0 -206 -94 -304t-270 -99q-40 0 -86.5 6.5t-93 27.5t-89 59.5t-75 101.5t-52 155.5t-19.5 220.5zM351 1898l290 416l169 -137l-334 -384z" />
<glyph unicode="&#x107;" horiz-adv-x="871" d="M94 564v260q0 131 19 224.5t50.5 157t72 100.5t83.5 56.5t85 25t77 5.5q70 0 128 -18.5t100 -56t65 -94.5t23 -134q0 -48 -4.5 -82.5t-12.5 -66.5h-202v46q0 104 -24.5 162.5t-80.5 58.5q-31 0 -54 -14.5t-38.5 -49.5t-23 -94t-7.5 -148v-391q0 -90 6 -153t21 -102.5 t39.5 -57.5t62.5 -18q19 0 37 9.5t31.5 31.5t22 58.5t8.5 90.5v43h218v-53q0 -196 -86.5 -285.5t-258.5 -89.5q-174 0 -265.5 143t-91.5 436zM309 1567l290 416l169 -137l-334 -384z" />
<glyph unicode="&#x10c;" horiz-adv-x="936" d="M99 556v605q0 129 20 220.5t53 154t76 99.5t89 56.5t91.5 25.5t84.5 6q102 0 170.5 -28.5t110 -78t59 -115.5t17.5 -140q0 -55 -5.5 -101.5t-16.5 -102.5h-210v87q0 281 -122 281q-36 0 -63 -14t-45 -47.5t-27.5 -88.5t-9.5 -137v-780q0 -80 7.5 -133t24.5 -85 t44.5 -45.5t66.5 -13.5q25 0 48 11.5t40.5 36t28 62t10.5 88.5v167h237v-158q0 -206 -94 -304t-270 -99q-40 0 -86.5 6.5t-93 27.5t-89 59.5t-75 101.5t-52 155.5t-19.5 220.5zM108 2397h218l94 -212l50 -171l51 171l88 212h219l-276 -581h-174z" />
<glyph unicode="&#x10d;" horiz-adv-x="871" d="M76 2066h218l94 -212l50 -171l51 171l88 212h219l-276 -581h-174zM94 564v260q0 131 19 224.5t50.5 157t72 100.5t83.5 56.5t85 25t77 5.5q70 0 128 -18.5t100 -56t65 -94.5t23 -134q0 -48 -4.5 -82.5t-12.5 -66.5h-202v46q0 104 -24.5 162.5t-80.5 58.5q-31 0 -54 -14.5 t-38.5 -49.5t-23 -94t-7.5 -148v-391q0 -90 6 -153t21 -102.5t39.5 -57.5t62.5 -18q19 0 37 9.5t31.5 31.5t22 58.5t8.5 90.5v43h218v-53q0 -196 -86.5 -285.5t-258.5 -89.5q-174 0 -265.5 143t-91.5 436z" />
<glyph unicode="&#x110;" horiz-adv-x="1037" d="M43 817v202h85v706h278q48 0 106.5 -5t118 -23.5t115.5 -56.5t99.5 -104.5t69.5 -165.5t26 -241v-523q0 -144 -26 -245.5t-69.5 -168.5t-99.5 -105.5t-115.5 -58t-118 -24t-106.5 -4.5h-278v817h-85zM387 180h31q69 0 117.5 22.5t79 69t44 117.5t13.5 169v591 q0 91 -12.5 160.5t-42 116t-78.5 70t-121 23.5h-31v-500h158v-202h-158v-637z" />
<glyph unicode="&#x111;" horiz-adv-x="988" d="M98 481v437q0 116 16.5 196t43.5 132.5t60.5 82t67 43.5t64 17t50.5 3q37 0 70 -10t60 -26.5t48 -37t35 -41.5l1 1l-8 174v367h252v-1819h-197l-22 128q-17 -27 -39.5 -53t-52 -46t-67.5 -32.5t-86 -12.5q-23 0 -54 4.5t-64 20.5t-65 48t-57 87.5t-40.5 137.5t-15.5 199z M332 1506v165l655 -1v-165zM352 431q0 -77 9.5 -126t26.5 -76.5t40.5 -38t51.5 -10.5q25 0 44.5 8.5t35 22t27 31.5t19.5 37v828q-19 42 -50.5 71.5t-76.5 29.5q-28 0 -51 -10t-40 -37.5t-26.5 -76t-9.5 -125.5v-528z" />
<glyph unicode="&#x160;" horiz-adv-x="946" d="M76 346q0 55 6.5 101.5t19.5 100.5h201v-83q0 -69 8.5 -122t28 -89.5t52 -55t79.5 -18.5q75 0 113.5 40.5t38.5 118.5q0 40 -5.5 73.5t-19 67t-36.5 69.5t-59 81l-270 321q-72 93 -111 186t-39 199q0 85 26.5 156t76.5 122.5t123.5 80t166.5 28.5q113 0 188.5 -32 t120.5 -84t63.5 -116.5t18.5 -129.5q0 -55 -8.5 -101.5t-19.5 -102.5h-200v81q0 137 -39 209t-127 72q-73 0 -109 -40t-36 -109q0 -36 5.5 -65t16 -53.5t25.5 -47.5t34 -48l301 -364q82 -107 126 -205.5t44 -208.5q0 -91 -28.5 -164t-81.5 -124t-128 -78.5t-169 -27.5 q-116 0 -192.5 31t-122 82t-64 116t-18.5 133zM108 2066h248l84 -130l40 -56l40 56l69 130h249l-246 -310h-234z" />
<glyph unicode="&#x161;" horiz-adv-x="820" d="M60 2066h218l94 -212l50 -171l51 171l88 212h219l-276 -581h-174zM72 288q0 45 8.5 87t16.5 67h178q0 -75 7.5 -125.5t24.5 -80.5t45.5 -43t69.5 -13q57 0 83 32t26 74q0 22 -6 42t-17 40.5t-27 41.5t-36 46l-185 218q-36 45 -69.5 91.5t-59 96t-41 103.5t-15.5 114 q0 80 27.5 139t74 98t107.5 58t129 19q75 0 135 -18t103 -54t66 -89.5t23 -124.5q0 -48 -8.5 -93t-16.5 -77h-175q-1 68 -6 119t-18.5 84.5t-37 50.5t-61.5 17q-33 0 -55 -10.5t-35.5 -27.5t-19 -38t-5.5 -43q0 -48 23 -89t61 -89l202 -237q22 -27 51 -65t55 -85t44 -102 t18 -115q0 -73 -23 -132.5t-68 -101.5t-110.5 -65t-149.5 -23q-69 0 -130 15.5t-106 51t-71 93.5t-26 143z" />
<glyph unicode="&#x17d;" horiz-adv-x="865" d="M39 0v137l506 1367h-430v204h721v-137l-507 -1367h477v-204h-767zM114 2066h248l84 -130l40 -56l40 56l69 130h249l-246 -310h-234z" />
<glyph unicode="&#x17e;" horiz-adv-x="697" d="M-11 2066h218l94 -212l50 -171l51 171l88 212h219l-276 -581h-174zM20 0v126l386 1059h-353v192h624v-126l-387 -1059h389v-192h-659z" />
<glyph unicode="&#x2c6;" horiz-adv-x="948" d="M114 1485l270 581h174l276 -581h-219l-88 212l-51 172l-50 -172l-94 -212h-218z" />
<glyph unicode="&#x2da;" horiz-adv-x="866" d="M114 1757q0 60 18.5 116t57 98.5t98 68t140.5 25.5q82 0 142.5 -25t101 -67.5t60.5 -98.5t20 -117q0 -56 -20 -110.5t-60.5 -98t-101 -70.5t-142.5 -27q-80 0 -139 26t-98 68.5t-58 97.5t-19 114zM288 1753q0 -26 8.5 -51t25.5 -44.5t43.5 -31.5t61.5 -12q40 0 69.5 12.5 t49 32t29.5 44.5t10 50q0 31 -10 58t-29.5 47t-49 32t-69.5 12q-36 0 -62 -12t-43.5 -32.5t-25.5 -47.5t-8 -57z" />
<glyph unicode="&#x2dc;" horiz-adv-x="975" d="M114 1646q0 70 18 117.5t48.5 76t70.5 40.5t84 12q59 0 99.5 -19.5t80.5 -57.5q13 -12 28.5 -27.5t32 -29t33 -22.5t32.5 -9q22 0 36 14t14 45v87h159q6 -35 8.5 -61t2.5 -45q0 -57 -17.5 -100.5t-46 -72.5t-66.5 -43.5t-78 -14.5q-62 0 -106 20t-86 58q-24 21 -40.5 37 t-29.5 27t-25 16.5t-27 5.5q-21 0 -32 -17t-11 -47v-72h-178q0 6 -0.5 17.5t-1.5 24t-1.5 24t-0.5 16.5z" />
<glyph unicode="&#x2000;" horiz-adv-x="1198" />
<glyph unicode="&#x2001;" horiz-adv-x="2397" />
<glyph unicode="&#x2002;" horiz-adv-x="1198" />
<glyph unicode="&#x2003;" horiz-adv-x="2397" />
<glyph unicode="&#x2004;" horiz-adv-x="799" />
<glyph unicode="&#x2005;" horiz-adv-x="599" />
<glyph unicode="&#x2006;" horiz-adv-x="399" />
<glyph unicode="&#x2007;" horiz-adv-x="399" />
<glyph unicode="&#x2008;" horiz-adv-x="299" />
<glyph unicode="&#x2009;" horiz-adv-x="479" />
<glyph unicode="&#x200a;" horiz-adv-x="133" />
<glyph unicode="&#x2010;" horiz-adv-x="997" d="M126 685v203h745v-203h-745z" />
<glyph unicode="&#x2011;" horiz-adv-x="997" d="M126 685v203h745v-203h-745z" />
<glyph unicode="&#x2012;" horiz-adv-x="997" d="M126 685v203h745v-203h-745z" />
<glyph unicode="&#x2013;" horiz-adv-x="1381" d="M126 685v203h1128v-203h-1128z" />
<glyph unicode="&#x2014;" horiz-adv-x="1647" d="M126 685v203h1395v-203h-1395z" />
<glyph unicode="&#x2018;" horiz-adv-x="620" d="M162 1180v224l150 472h197l-79 -397v-299h-268z" />
<glyph unicode="&#x2019;" horiz-adv-x="620" d="M101 1180l79 397v299h268v-224l-150 -472h-197z" />
<glyph unicode="&#x201a;" horiz-adv-x="620" d="M101 -458l79 397v299h268v-224l-150 -472h-197z" />
<glyph unicode="&#x201c;" horiz-adv-x="1092" d="M162 1180v224l150 472h197l-79 -397v-299h-268zM634 1180v224l150 472h197l-79 -397v-299h-268z" />
<glyph unicode="&#x201d;" horiz-adv-x="1088" d="M101 1182l79 397v299h268v-224l-150 -472h-197zM569 1182l79 397v299h268v-224l-150 -472h-197z" />
<glyph unicode="&#x201e;" horiz-adv-x="1092" d="M101 -458l79 397v299h268v-224l-150 -472h-197zM573 -458l79 397v299h268v-224l-150 -472h-197z" />
<glyph unicode="&#x2026;" horiz-adv-x="1483" d="M91 179q0 106 42 152t114 46q75 0 116 -49t41 -149q0 -93 -41.5 -143t-116.5 -50q-72 0 -113.5 48.5t-41.5 144.5zM581 179q0 106 42 152t114 46q75 0 116 -49t41 -149q0 -93 -41.5 -143t-116.5 -50q-72 0 -113.5 48.5t-41.5 144.5zM1072 179q0 106 42 152t114 46 q75 0 116 -49t41 -149q0 -93 -41.5 -143t-116.5 -50q-72 0 -113.5 48.5t-41.5 144.5z" />
<glyph unicode="&#x202f;" horiz-adv-x="479" />
<glyph unicode="&#x2039;" horiz-adv-x="834" d="M144 717v150l389 406l137 -124l-283 -359l279 -360l-137 -125z" />
<glyph unicode="&#x203a;" horiz-adv-x="834" d="M154 1149l137 124l389 -406v-150l-385 -412l-137 125l279 360z" />
<glyph unicode="&#x205f;" horiz-adv-x="599" />
<glyph unicode="&#x20ac;" horiz-adv-x="1038" d="M4 546v180h154v151h-154v179h154v105q0 129 21 220.5t55.5 154t79 99.5t93 56.5t96.5 25.5t89 6q101 0 170 -26t112 -72t61.5 -107.5t18.5 -131.5q0 -36 -2.5 -62t-6 -47.5t-8.5 -41t-10 -41.5h-200v65q0 139 -36.5 200t-105.5 61q-38 0 -68 -14t-51 -47.5t-32 -88.5 t-11 -137v-177h322l-29 -179h-293v-151h267l-32 -180h-235v-90q0 -80 11.5 -132.5t34 -84.5t56 -45t78.5 -13q34 0 62.5 11t49.5 33.5t32.5 57.5t11.5 83v73h218v-61q0 -200 -97 -296t-277 -97q-44 0 -93.5 6.5t-98.5 27t-94.5 58t-80.5 100t-56 153t-22 216.5h-154z" />
<glyph unicode="&#x2122;" horiz-adv-x="1597" d="M40 1566l1 159h533v-159h-178v-693h-178v693h-178zM686 873v852h227l126 -363l34 -113h16l35 113l137 363h204v-852h-177v86q0 117 2 195t5.5 133.5t7 96t6.5 80.5h-6l-166 -467h-113l-175 467h-7q3 -40 6.5 -80.5t7 -96t5.5 -133.5t2 -195v-86h-177z" />
<glyph unicode="&#x25fc;" horiz-adv-x="1375" d="M0 0v1375h1375v-1375h-1375z" />
</font>
</defs>
</svg>
