<svg width="1440" height="510" viewBox="0 0 1440 510" fill="none" xmlns="http://www.w3.org/2000/svg">
<path d="M685.721 245.726C690.918 245.365 696.115 245.004 701.407 244.783C706.7 244.563 711.945 244.272 717.453 244.367C728.933 244.517 740.401 246.279 751.333 249.574C748.581 244.911 772.336 247.012 781.606 247.194C791.757 247.869 808.848 248.104 822.057 249.511C827.35 249.881 832.592 250.847 837.627 252.379C840.972 253.53 842.07 255.056 839.492 257.178C832.716 259.926 822.061 258.514 810.586 257.256C804.717 256.635 798.825 255.978 793.173 255.673C787.443 255.268 781.717 255.566 776.195 256.557C757.709 259.935 767.253 261.394 781.608 262.963L792.884 264.168C796.703 264.5 800.396 264.884 803.723 265.371C807.61 265.565 811.414 266.61 814.716 268.394L826.929 267.068L849.807 264.462C853.645 264.025 857.465 263.64 861.231 263.098L872.634 261.384C867.725 262.166 862.912 263.088 857.955 263.8L843.292 265.761L815.259 269.427L814.221 269.58L809.562 270.171C805.138 271.936 800.086 272.582 795.045 272.028L794.832 272.114C814.16 275.384 795.549 277.782 790.888 280.838L791.629 280.806C801.552 279.767 811.542 278.88 821.6 278.145L830.124 277.555C833.69 274.809 835.608 271.88 834.281 269.462C844.37 267.01 854.926 265.745 865.627 265.706C870.517 265.693 875.466 265.925 880.397 266.21C879.845 263.97 879.299 261.817 878.966 260.294L903.061 256.523L900.725 256.53C906.752 255.128 912.989 254.265 919.325 253.957C933.98 251.506 948.327 249.001 962.739 245.798L1004.36 237.158C1018.19 234.057 1031.9 230.465 1045.52 226.821C1056.58 224.708 1068.08 223.988 1079.61 224.686C1090.2 225.226 1100.76 226.55 1111.16 228.641C1075.12 242.614 1037.75 254.468 999.32 264.111C1001 264.503 1002.13 265.033 1002.48 265.786C1003.43 269.567 995.059 270.857 983.797 271.663C977.646 272.142 970.83 272.443 963.912 272.516L953.743 274.76C958.613 275.482 963.534 275.826 968.436 275.789L974.373 274.679L1011.11 267.661L1020.15 265.832L1029.08 263.687L1046.87 259.292L1049.92 258.502C1044.07 259.491 1038.11 260.142 1032.09 260.449C1035.23 253.89 1061.21 250.651 1074.73 247.898C1074.62 248.527 1075.06 249.246 1074.18 249.556C1074.23 250.745 1072.73 251.98 1070.3 253.193C1085.94 249.235 1101.23 244.53 1116.08 239.1L1130.4 233.291C1138.02 235.441 1145.03 237.658 1151.49 239.698L1159.87 238.897C1157.68 239.183 1155.55 239.684 1153.54 240.389C1154.46 240.778 1155.38 241.167 1156.28 241.608C1160.55 242.117 1166.9 242.496 1161.59 244.202C1164.45 245.672 1167.21 247.278 1169.83 249.013C1172.21 248.051 1174.91 247.668 1177.63 247.912C1175.78 248.735 1174.18 249.843 1172.89 251.177C1175.42 253.06 1177.71 255.132 1179.73 257.362C1185.43 256.933 1191.76 256.245 1197.2 255.833C1207.13 255.074 1214.18 255.124 1209.19 259.926C1253.21 252.644 1309.19 238.982 1358.57 232.389C1360.91 226.962 1377.83 225.92 1382.59 222.376C1376.36 220.424 1392.08 215.391 1393.05 211.864C1457.14 203.781 1522.08 180.038 1585.86 165.363C1607.01 164.935 1618.43 159.497 1635.93 154.682L1632.89 156.766C1639.35 154.505 1645.74 152.226 1652.1 149.825L1689.82 134.927C1740.17 114.858 1789.67 92.9857 1840.61 76.1719C1876.43 73.4677 1893.34 62.1285 1920.9 51.3972C1903.96 68.3773 1884.93 83.9278 1864.08 97.8347C1852.2 105.788 1839.46 113.824 1826.34 121.702C1819.72 125.64 1813.08 129.543 1806.35 133.394C1799.62 137.245 1792.61 140.849 1785.76 144.437C1758.47 147.354 1768.9 138.731 1784.99 129.066C1801.09 119.401 1822.51 108.292 1818.4 107.137C1818.66 101.789 1805.71 108.653 1794.05 111.817C1771.15 124.825 1749.96 141.127 1754.52 149.539L1733.51 148.203C1681.72 170.467 1630.97 201.408 1566.28 227.022C1575.95 227.662 1585.58 226.797 1594.64 224.477C1605.66 220.885 1615.81 215.906 1624.73 209.718C1657.29 214.429 1644.37 217.116 1621.96 221.996C1599.55 226.877 1567.43 233.007 1561.87 246.373C1561.92 242.859 1554.2 244.153 1544.25 247.027C1534.29 249.902 1521.84 254.058 1513.25 256.869L1525.23 246.364C1533.67 245.493 1542.28 244.78 1550.64 243.717C1593.16 220.554 1537.01 228.638 1532.54 225.208C1500.61 234.801 1487.61 246.437 1473.28 258.435C1465.79 264.67 1457.57 270.314 1448.71 275.299C1450.04 274.763 1451.31 274.244 1452.82 273.902C1463.16 271.903 1473.5 269.992 1483.91 267.784C1484.91 267.964 1484.47 268.591 1484.43 269.01C1488.93 267.632 1493.33 266.114 1497.76 264.631L1522.7 258.992C1524.77 258.827 1526.85 258.609 1528.97 258.601C1530.08 257.659 1531.38 256.874 1532.82 256.276L1541.99 253.765C1546.16 252.613 1552.1 251.189 1559.01 249.594C1564.05 248.446 1569.66 247.248 1575.43 245.893L1588.43 241.022L1585.71 241.674L1590.01 240.557C1629.25 225.893 1669.23 210.795 1706.62 197.731C1710.43 191.122 1736.01 183.302 1743.19 177.477C1733.78 177.889 1757.62 166.11 1759.19 162.026C1856.66 128.081 1954.32 74.8011 2049.75 32.3679C2080.92 23.3489 2098.29 12.6761 2124.45 0.137678C2105.32 14.8136 2085.24 28.6732 2064.27 41.6648C2040 56.5719 2013.03 72.5332 1985.8 86.9374C1961.64 94.1876 1972.66 86.6678 1988.82 77.3357C2004.98 68.0035 2026.02 56.5084 2022.79 56.5636C2024.37 53.0568 2011.59 60.0791 2000.93 64.4013C1978.21 77.4274 1955.9 91.8538 1957.98 96.2514L1940.2 99.6146C1915.34 111.984 1889.85 125.19 1863.2 139.317L1820.44 160.609C1813.27 164.142 1806.09 167.816 1798.6 171.348L1775.71 181.891C1784.58 180.283 1793.17 177.925 1801.33 174.857C1811.62 170.479 1821.43 165.45 1830.67 159.816C1858.15 156.375 1846.29 160.516 1825.69 167.888C1805.09 175.259 1775.5 185.247 1768.05 194.496C1769.51 190.185 1739.79 203.721 1723.02 210.253L1735.68 201.534C1743.39 199.437 1750.96 197.128 1758.43 194.994C1800.65 172.756 1749.4 188.485 1745.84 187.42C1733.65 192.354 1721.86 197.87 1710.54 203.937C1701.37 209.001 1694.14 213.863 1686.66 218.776C1670.38 229.773 1652.3 238.99 1632.85 246.207C1644.06 244.841 1657.96 240.097 1676.91 237.071C1684.08 235.548 1672.52 239.569 1672.73 240.601C1674.29 240.855 1675.88 240.951 1677.44 240.885L1692.23 236.949L1690.27 237.744C1685.74 239.087 1681.72 240.135 1677.76 241.026C1683.1 240.876 1689.7 239.857 1695.27 239.567C1659.08 251.922 1621.79 262.334 1583.65 270.738C1597.64 266.763 1611.23 262.594 1623.82 257.844L1587.33 268.167C1575.08 271.661 1562.61 274.611 1550.17 277.911C1543.38 279.279 1536.64 280.804 1529.86 282.119L1511.64 285.568C1513.68 285.367 1514.66 285.599 1514.08 286.593C1526.25 283.851 1538.43 281.197 1550.17 277.911L1583.74 270.791L1523.24 286.373C1527.82 285.904 1532.47 285.226 1537.15 284.495C1545.98 281.129 1555.51 278.942 1565.38 278.015C1563.12 278.932 1561.11 279.744 1558.9 280.643L1567.48 278.864L1556.76 281.42C1548.47 284.4 1539.91 286.942 1531.16 289.031L1523.15 290.935C1530.9 289.222 1537.77 287.872 1544.34 286.818C1528.17 290.958 1511.49 294.501 1494.7 298.533C1513.02 294.281 1533.53 292.101 1551.08 286.01C1548.82 286.209 1546.61 286.479 1544.34 286.818L1587.56 275.197C1601.87 271.363 1616.1 267.652 1630.36 264.063C1621.99 267.61 1613.05 270.316 1603.75 272.123C1594.08 274.226 1584.63 276.889 1575.5 280.089C1639.18 267.162 1704.88 244.314 1766.66 228.616L1735.33 239.802C1724.88 243.548 1714.31 247.119 1703.86 251.18C1708.28 249.63 1712.82 248.296 1717.46 247.186L1695.19 253.938C1687.97 256.283 1680.57 258.434 1672.7 260.461C1655.2 265.277 1638.08 270.968 1620.65 275.889C1603.21 280.81 1586.26 286.432 1569.1 291.022C1575.4 291.111 1581.54 289.943 1586.97 287.624C1591.26 285.455 1595.81 283.609 1600.56 282.109C1613.99 279.128 1627.42 276.007 1640.4 272.622L1678.01 262.339L1649.11 270.074C1662.87 266.442 1676.33 262.208 1689.44 257.391C1684.59 257.788 1675.64 261.104 1672.5 260.408L1702.21 252.117C1712.14 249.434 1722.14 246.974 1732.23 244.736C1756.03 238.305 1745.73 247.052 1736.29 250.121C1712.8 257.41 1690.6 265.298 1667.82 271.803C1656.52 275.091 1645.27 278.623 1634.04 281.387C1622.81 284.151 1611.2 286.843 1599.53 289.202C1588.45 291.145 1577.13 292.737 1566.05 294.767C1554.97 296.797 1543.84 298.984 1532.57 300.733C1520.23 303.632 1502.89 307.486 1495.41 308.326L1454.3 310.937C1447.82 313.308 1440.85 314.805 1433.65 315.371L1434.25 318.083C1426.76 319.553 1418.34 321.804 1409.37 323.966L1382.12 330.538C1364.24 334.88 1347.87 338.792 1338.66 338.627C1315.69 345.481 1291.93 352.121 1267.36 357.831C1254.99 360.549 1242.55 363.208 1230.03 365.808C1217.45 368.268 1204.91 371.113 1192.09 373.135L1153.59 379.569C1140.73 381.696 1127.9 384.032 1114.92 385.757L1076.28 391.577C1063.5 393.582 1050.74 395.709 1037.87 397.347L1019.27 404.447C960.123 415 972.556 405.476 944.329 406.309C938.048 407.871 941.242 409.757 937.921 411.507C906.649 412.904 947.451 407.372 934.993 406.826C927.202 407.612 918.774 408.343 910.279 409.056L897.571 410.135L890.566 410.558C876.72 412.68 862.701 414.469 848.645 416.363L823.383 419.623L810.683 421.191L797.937 422.374L746.665 427.001C738.17 427.714 729.692 428.689 720.992 429.262C712.293 429.834 703.958 430.303 695.477 430.876C678.444 431.813 661.572 433.012 644.862 434.475C628.095 435.587 611.415 436.351 594.895 437.587C582.887 438.336 570.856 438.946 558.802 439.415C546.773 439.815 534.634 439.498 522.573 439.373C510.512 439.248 498.368 438.843 486.267 438.421L468.742 437.869L450.523 436.3C426.312 434.25 402.181 432.077 378.08 429.31L305.839 419.191C297.645 418.035 289.401 416.406 281.167 414.953C272.934 413.499 264.53 412.115 256.216 410.783C239.498 408.067 222.637 405.858 205.858 403.212L155.633 394.959L130.65 390.981C122.413 389.842 114.172 387.899 105.786 386.462C74.0971 380.741 42.7034 373.753 11.7258 365.527C-3.17278 361.491 -17.6212 357.317 -31.473 352.901L-41.742 349.585C-45.0806 348.311 -48.3891 347.054 -51.6674 345.816C-58.2418 343.286 -64.579 340.705 -70.7885 338.071C-92.6348 328.252 -105.795 318.716 -111.387 309.74C-114.019 305.977 -115.104 301.701 -114.48 297.548C-113.856 293.396 -111.556 289.589 -107.925 286.696C-100.896 280.574 -88.8063 275.804 -73.067 272.868C-75.9919 271.456 -78.6932 270.133 -80.8855 268.917C-94.194 264.101 -103.262 260.79 -111.701 258.479C-120.139 256.168 -127.862 254.507 -137.859 252.066C-144.25 247.894 -163.752 238.557 -165.558 235.437C-154.022 232.325 -131.564 234.28 -102.079 239.747C-94.5675 241.179 -86.9784 242.805 -78.6115 244.294C-70.2446 245.783 -61.4782 247.379 -52.3735 249.151C-43.2687 250.923 -33.8017 252.907 -24.0683 254.962C-18.0721 256.248 -12.0281 257.604 -5.77088 258.874L-5.2357 257.268C-36.6148 251.181 -49.9875 244.599 -54.4634 237.813C-61.115 234.859 -67.1291 231.021 -72.2318 226.473C-93.9374 212.878 -108.842 206.604 -120.064 203.406C-129.315 201.094 -139.045 200.826 -148.193 202.631C-157.636 204.553 -167.589 204.835 -177.403 203.46C-189.451 201.762 -204.568 195.574 -226.266 182.468C-205.71 179.729 -219.246 170.122 -240.823 158.625C-251.772 153.121 -263.957 145.968 -275.382 139.447C-285.161 134.086 -294.224 127.906 -302.405 121.02C-311.979 116.003 -322.259 111.966 -332.989 109.01C-341.926 106.767 -350.532 105.643 -361.321 103.479C-366.217 97.6699 -383.847 85.7365 -383.304 81.0362C-365.882 73.4755 -338.617 72.2709 -305.712 75.0954C-297.484 75.7448 -289.029 76.8846 -279.852 78.0453C-270.676 79.2059 -261.321 80.0702 -251.654 81.3904C-241.987 82.7107 -232.049 84.1894 -221.924 85.8614C-211.799 87.5333 -201.616 89.4502 -190.598 91.0738C-189.008 92.4447 -187.665 93.692 -188.137 94.1969C-179.024 98.609 -168.672 102.922 -157.83 107.394C-146.988 111.867 -135.707 116.743 -124.015 121.185C-112.453 125.643 -101.249 130.724 -90.4853 136.39C-85.1753 139.292 -80.0561 142.42 -75.1518 145.76C-70.3567 149.191 -65.2793 152.239 -61.1181 156.016C-65.3143 154.932 -69.5683 154.025 -73.8615 153.301L-84.4286 151.54C-95.1036 149.481 -105.561 146.612 -115.654 142.971C-108.463 154.525 -96.3529 159.021 -82.8476 162.054C-69.3422 165.088 -53.8928 165.63 -40.0915 171.007C-64.449 165.477 -37.6393 182.557 -18.5661 190.948C1.00468 195.687 25.8526 202.811 52.0459 211.584C58.5376 213.834 65.3302 215.648 72.091 217.654C73.0233 217.903 73.937 218.205 74.8267 218.471C79.4429 218.614 84.1017 218.74 88.7498 218.692L131.415 227.592C148.131 231.34 164.875 234.493 181.718 237.471C169.654 232.775 157.19 228.842 144.446 225.711L135.73 220.287L127.162 214.443C136.89 216.411 148.715 218.02 161.346 220.333C173.978 222.646 187.632 225.26 201.356 228.295C208.271 229.97 215.184 231.243 222.125 232.638C229.067 234.033 235.91 235.603 242.559 237.206C255.211 240.155 267.675 243.685 279.89 247.778C282.287 251.286 283.049 253.037 282.269 254.205L310.758 258.373C314.445 258.008 318.195 257.99 321.935 258.319C328.879 258.683 337.214 259.648 344.742 260.626L355.135 262.054L362.78 262.806L360.855 264.528L365.165 265.019C380.646 266.803 396.12 268.814 411.644 269.864C442.628 272.347 473.474 275.425 504.392 276.457L550.711 278.678L594.611 279.193C588.384 278.046 582.204 276.969 577.145 276.019C559.898 273.563 557.593 270.51 554.913 267.386C552.233 264.262 549.539 261.278 531.5 258.381C512.213 260.426 566.301 272.578 541.316 273.933L525.149 268.44C515.42 262.172 508.707 254.501 496.943 248.521C489.644 247.002 478.43 244.293 477.658 245.951C491.722 250.997 486.095 254.311 469.878 253.363C465.744 251.512 461.979 249.15 458.729 246.372C475.574 244.018 467.735 241.867 453.55 238.796C446.337 237.242 437.608 235.541 429.44 233.389C422.218 231.661 415.391 228.884 409.31 225.203C380.932 212.119 372.024 212.865 362.521 214.57C357.173 215.769 351.537 216.141 345.905 215.666C335.075 214.172 324.626 210.923 315.21 206.121C326.554 204.162 317.515 199.54 303.605 194.162C296.442 191.647 288.703 188.29 281.229 185.319C274.826 182.827 268.701 179.866 262.936 176.477C256.657 174.049 250.097 172.172 243.378 170.881C238.022 170.052 232.982 169.767 226.605 169.039C222.843 166.085 211.178 160.647 210.515 158.004C218.902 153.392 233.933 151.729 253.109 152.149C262.626 152.454 273.374 152.888 284.999 153.728C290.723 154.138 296.567 154.724 302.92 155.417C309.273 156.111 315.336 156.698 321.854 157.234C322.965 157.904 323.942 158.538 323.764 158.834C347.592 167.491 382.772 173.963 407.025 188.496C394.023 186.199 393.131 187.681 373.264 182.748C376.012 185.312 379.341 187.441 383.059 189.009C386.776 190.578 390.807 191.556 394.916 191.885C403.77 192.5 412.575 193.805 421.204 195.781C406.183 193.318 424.013 201.72 436.242 205.675C448.458 207.618 463.786 211.167 480.213 215.21C496.641 219.254 514.235 223.093 530.553 226.419C537.29 229.107 552.553 231.606 565.025 234.163C577.497 236.72 587.448 238.775 583.339 241.921C603.488 245.754 607.187 240.893 622.468 241.19C632.778 244.64 643.685 246.592 654.657 246.948C665.07 247.075 675.446 246.667 685.721 245.726ZM658.132 278.468C652.797 278.372 647.46 277.737 642.251 276.577C643.061 277.272 643.768 278.039 644.356 278.86L658.132 278.468ZM1403.67 279.64L1400.72 280.028C1399.45 280.547 1397.66 281.273 1395.18 282.276L1383.8 285.458L1385.32 285.203C1391.8 284.411 1399.1 283.15 1406.43 281.925C1406.21 281.41 1405.84 280.937 1405.36 280.541C1404.89 280.145 1404.31 279.836 1403.67 279.64ZM902.196 380.033L892.719 381.459C881.183 383.137 869.506 384.29 857.94 385.846L836.815 388.547C838.013 388.654 839.169 389.022 840.155 389.611L859.253 386.971C870.68 385.292 882.153 383.998 893.497 382.039L906.075 379.894L902.196 380.033ZM1347.04 290.606C1348.3 290.769 1350.77 290.483 1353.25 290.774C1354.62 290.123 1356.04 289.545 1357.51 289.045L1372.98 286.983L1376.55 280.653L1377.01 280.462C1367.94 281.617 1359.21 283.888 1351.13 287.198C1348.59 288.743 1345.91 290.144 1343.12 291.392L1347.04 290.606ZM575.493 311.903C641.319 313.514 715.55 313.327 782.61 305.118C779.649 303.723 776.509 302.605 773.258 301.789C707.489 307.906 640.991 310.645 575.493 311.903ZM1487.34 228.359C1489.29 217.844 1516.93 213.756 1523.47 206.53C1519.41 205.446 1520.02 203.228 1522.41 200.512L1512.76 199.454C1479.44 209.25 1445.48 223.431 1404.32 234.485C1417.93 235.369 1423.71 234.818 1440.77 227.448C1459.1 230.853 1451.21 231.814 1437.48 233.622C1423.75 235.43 1404.22 237.527 1399.26 244.2C1399.74 242.436 1395.04 242.817 1388.85 243.943C1382.65 245.068 1374.94 246.851 1369.49 248.033L1377.82 242.948C1382.9 242.814 1387.94 242.61 1392.96 242.318C1420.91 231.921 1387.03 234.284 1384.69 232.455C1344.84 240.333 1348.17 254.754 1301.81 262.498C1299.32 259.742 1306.66 258.289 1302.43 256.329C1289.36 257.511 1290.54 253.897 1270.62 258.842C1251.32 267.565 1231.12 260.393 1207.8 268.241C1199.52 276.438 1236.15 267.898 1233.16 273.007L1222.38 277.381C1209.77 279.09 1194.16 286.589 1182.49 284.333L1181.6 285.815L1181.73 286.882L1180.84 286.93C1178.82 289.723 1176.48 292.351 1173.85 294.783C1175.1 294.276 1176.2 293.651 1177.14 292.91C1199.51 294.725 1260.57 275.282 1247.15 294.976C1282.65 285.68 1322.99 274.063 1363.88 261.644C1374.13 258.561 1384.62 255.829 1394.88 252.694C1405.15 249.559 1415.47 246.581 1425.78 243.744C1436.09 240.906 1446.47 238.261 1456.73 235.667C1466.99 233.074 1477.3 230.324 1487.46 228.307L1487.34 228.359ZM1621.72 244.18C1620.73 245.033 1620.26 245.625 1620.71 245.802C1621.16 245.979 1621.94 245.93 1622.51 246.055C1623.27 245.166 1623.44 244.468 1621.72 244.18ZM1472.73 292.751C1473.02 293.172 1473.58 293.437 1474.74 293.46L1476.09 293.361C1485.92 291.522 1495.6 289.243 1505.06 286.535C1494.25 288.636 1483.53 290.79 1472.73 292.751ZM1294.4 324.37L1280.46 325.548L1276.12 327.888C1264.44 330.996 1253.12 334.837 1242.28 339.378C1230.83 343.574 1219.36 346.704 1209.06 344.209L1210.41 349.53C1206.35 349.651 1202.1 350.034 1197.67 350.486C1194 350.766 1190.2 351.186 1186.41 351.606L1176.93 355.182C1213.88 352.693 1255.54 336.326 1294.4 324.37ZM402.74 275.313L410.395 274.806L402.095 274.051C402.282 274.48 402.498 274.901 402.74 275.313ZM480.547 280.754C484.639 281.962 488.76 283.292 492.801 284.744C492.476 284.122 492.414 283.443 492.625 282.814C492.836 282.185 493.307 281.642 493.964 281.27L491.951 281.191L480.547 280.754ZM610.075 283.896L598.642 284.054C602.153 284.332 605.603 284.68 608.9 285.045C618.361 285.678 627.664 287.85 636.236 291.428L637.954 291.313C642.272 290.144 634.648 289.025 633.156 287.48C641.054 287.726 648.052 290.398 647.642 292.266C643.872 291.77 640.073 291.542 636.289 291.585C636.977 292.011 637.613 292.488 638.189 293.01L642.778 292.716L702.207 288.634L716.112 287.473C715.341 285.224 713.799 283.162 711.665 281.526L706.867 280.56C703.802 280.774 700.778 280.97 697.75 281.078L640.955 283.6C637.865 284.011 634.705 284.119 631.542 283.924C624.371 283.786 617.211 283.824 610.051 283.861L610.075 283.896Z" fill="#36B9DC"/>
<path d="M143.1 438.566C154.498 431.015 178.813 440.076 199.329 436.3L200.089 446.117C176.534 440.076 170.455 446.117 144.62 439.321C143.86 439.321 143.86 438.566 143.1 438.566Z" fill="#36B9DC"/>
<path d="M10.1257 509.545C9.36584 507.279 26.8426 498.973 11.6454 500.483C20.0038 499.728 27.6024 498.973 20.0038 494.443C35.201 493.688 21.5235 501.239 31.4017 504.259C23.0433 500.483 16.9644 508.034 10.1257 509.545Z" fill="#36B9DC"/>
<path d="M67.1146 501.239C59.516 501.239 53.4372 507.28 46.5984 502.749C53.4371 500.484 62.5555 498.218 67.1146 501.239Z" fill="#36B9DC"/>
<path d="M48.8783 485.382L52.6776 486.137L42.7994 492.177L48.8783 485.382Z" fill="#36B9DC"/>
<path d="M91.43 489.912C94.4694 489.157 96.749 487.647 96.749 486.137L70.154 484.627L93.7095 480.851C108.147 484.627 101.308 486.892 91.43 489.912Z" fill="#36B9DC"/>
<path d="M68.6339 497.463L60.2755 495.198C60.2755 493.688 71.6734 493.688 82.3114 492.178C75.4726 492.933 69.3938 495.198 68.6339 497.463Z" fill="#36B9DC"/>
<path d="M91.43 489.912C89.1504 490.667 86.1106 491.423 82.3114 492.178C85.3508 490.667 88.3905 489.912 91.43 489.912Z" fill="#36B9DC"/>
<path d="M115.745 477.076L119.545 477.076L121.064 483.872C113.466 483.116 116.505 478.586 115.745 477.076Z" fill="#36B9DC"/>
<path d="M148.419 464.239C155.258 459.708 168.935 464.239 175.014 464.994C166.656 469.524 156.777 469.524 145.38 471.035C156.777 469.524 148.419 466.504 148.419 464.239Z" fill="#36B9DC"/>
<path d="M181.093 455.177C173.495 455.177 165.896 455.177 158.297 455.177C162.857 447.626 171.215 454.422 181.093 455.177Z" fill="#36B9DC"/>
<path d="M217.566 458.198C219.846 458.953 218.326 461.218 222.125 461.974C219.086 464.994 210.727 463.484 205.408 464.239L217.566 458.198Z" fill="#36B9DC"/>
<path d="M983.613 430C996.817 426.449 1017.01 442.748 1037.66 445.668L1035.27 455.219C1014.85 442.026 1007.17 445.829 984.815 431.197C984.095 430.956 984.334 430.24 983.613 430Z" fill="#36B9DC"/>
<path d="M835 455.187C834.997 452.797 854.205 450.457 839.313 447.074C847.48 449.006 854.926 450.698 849.155 443.993C863.808 448.092 848.443 450.92 856.855 456.915C850.123 450.686 841.965 455.921 835 455.187Z" fill="#36B9DC"/>
<path d="M891.685 465.366C884.478 462.959 876.798 466.762 871.747 460.298C878.951 460.316 888.318 461.057 891.685 465.366Z" fill="#36B9DC"/>
<path d="M879.413 444.548L882.777 446.468L871.494 449.067L879.413 444.548Z" fill="#36B9DC"/>
<path d="M918.336 462.328C921.458 462.575 924.099 461.865 924.577 460.433L899.831 450.573L923.369 454.456C935.866 462.612 928.662 462.593 918.336 462.328Z" fill="#36B9DC"/>
<path d="M894.322 462.267L887.112 457.47C887.591 456.038 898.401 459.649 908.97 461.588C902.244 460.137 895.761 460.359 894.322 462.267Z" fill="#36B9DC"/>
<path d="M918.336 462.328C915.934 462.322 912.812 462.075 908.97 461.588C912.331 461.118 915.453 461.365 918.336 462.328Z" fill="#36B9DC"/>
<path d="M945.466 457.857L949.07 459.061L948.358 465.989C941.39 462.865 945.708 459.531 945.466 457.857Z" fill="#36B9DC"/>
<path d="M980.524 456.035C988.446 453.905 999.983 462.536 1005.51 465.178C996.146 466.827 986.777 463.697 975.488 461.518C986.777 463.697 979.806 458.184 980.524 456.035Z" fill="#36B9DC"/>
<path d="M1014.39 457.794C1007.18 455.386 999.971 452.978 992.764 450.571C999.481 444.853 1005.26 453.947 1014.39 457.794Z" fill="#36B9DC"/>
<path d="M1048.02 472.216C1049.94 473.654 1047.79 475.321 1051.15 477.241C1047.31 479.143 1039.86 475.062 1034.58 474.093L1048.02 472.216Z" fill="#36B9DC"/>
<path d="M462.29 401.237C473.688 393.686 498.004 402.747 518.52 398.971L519.28 408.788C495.724 402.747 489.645 408.788 463.81 401.992C463.05 401.992 463.05 401.237 462.29 401.237Z" fill="#36B9DC"/>
<path d="M329.316 472.216C328.556 469.95 346.033 461.644 330.836 463.154C339.194 462.399 346.793 461.644 339.194 457.113C354.391 456.358 340.714 463.909 350.592 466.93C342.234 463.154 336.155 470.705 329.316 472.216Z" fill="#36B9DC"/>
<path d="M386.305 463.91C378.706 463.91 372.627 469.95 365.789 465.42C372.627 463.155 381.746 460.889 386.305 463.91Z" fill="#36B9DC"/>
<path d="M368.069 448.052L371.868 448.808L361.99 454.848L368.069 448.052Z" fill="#36B9DC"/>
<path d="M410.62 452.583C413.66 451.828 415.939 450.318 415.939 448.808L389.344 447.297L412.9 443.522C427.337 447.297 420.498 449.563 410.62 452.583Z" fill="#36B9DC"/>
<path d="M387.824 460.134L379.466 457.869C379.466 456.359 390.864 456.359 401.502 454.848C394.663 455.604 388.584 457.869 387.824 460.134Z" fill="#36B9DC"/>
<path d="M410.62 452.583C408.341 453.338 405.301 454.093 401.502 454.848C404.541 453.338 407.581 452.583 410.62 452.583Z" fill="#36B9DC"/>
<path d="M434.936 439.746L438.735 439.746L440.255 446.542C432.656 445.787 435.695 441.257 434.936 439.746Z" fill="#36B9DC"/>
<path d="M467.609 426.91C474.448 422.379 488.125 426.91 494.204 427.665C485.846 432.195 475.968 432.195 464.57 433.705C475.968 432.195 467.609 429.175 467.609 426.91Z" fill="#36B9DC"/>
<path d="M500.283 417.848C492.685 417.848 485.086 417.848 477.488 417.848C482.047 410.297 490.405 417.093 500.283 417.848Z" fill="#36B9DC"/>
<path d="M536.757 420.869C539.036 421.624 537.516 423.889 541.316 424.644C538.276 427.665 529.918 426.155 524.599 426.91L536.757 420.869Z" fill="#36B9DC"/>
</svg>