<svg width="1440" height="392" viewBox="0 0 1440 392" fill="none" xmlns="http://www.w3.org/2000/svg">
<mask id="mask0" mask-type="alpha" maskUnits="userSpaceOnUse" x="0" y="0" width="1440" height="392">
<rect width="1440" height="392" fill="#C4C4C4"/>
</mask>
<g mask="url(#mask0)">
<g opacity="0.35">
<path d="M1215.92 330.881C1220.23 331.656 1224.42 332.986 1228.39 334.837C1234.03 339.486 1230.4 339.578 1224.57 338.232C1221.64 337.611 1218.2 336.552 1215.08 335.654L1207.49 333.685L1209.52 332.354C1208.95 330.596 1211.91 330.319 1215.92 330.881Z" fill="#66C1DF"/>
<path d="M555.893 259.691C562.266 257.457 568.916 255.324 575.741 253.27C579.17 252.241 582.628 251.176 586.072 250.278L596.552 247.998C607.947 249.591 601.986 251.943 593.586 254.147L587.141 255.759C584.983 256.308 582.901 256.948 581.107 257.488C577.551 258.565 575.198 259.436 575.881 259.887C574.673 262.05 581.176 260.366 586.454 260.117C598.218 257.19 610.056 252.895 610.011 249.086L617.977 251.708C624.262 250.712 630.622 249.508 637.098 248.158C643.574 246.808 650.015 245.163 657.02 244.083C670.705 241.696 685.065 239.131 700.422 237.146C691.27 234.595 687.225 234.601 673.8 238.086C650.125 227.573 696.406 239.404 706.009 229.863C705.273 231.242 708.585 231.487 713.077 231.329C717.569 231.172 723.287 231.004 727.31 230.802L720.42 233.726C717.03 233.092 713.382 232.521 709.855 232.135C688.347 237.124 712.137 239.498 713.303 241.252C742.479 240.612 743.509 228.653 777.002 228.339C778.034 230.939 772.688 231.163 775.125 233.3C778.241 233.575 781.308 234.255 784.248 235.323C788.629 236.257 793.136 236.439 797.577 235.863C812.832 231.867 825.011 240.201 842.842 236.966C850.417 231.376 823.328 233.432 826.543 229.708L834.943 227.504C844.253 227.715 857.199 223.822 864.609 227.935L864.979 225.703C877.997 228.699 899.771 228.289 907.036 232.585C915.09 232.544 923.26 232.92 931.532 233.617C927.879 230.725 924.535 227.632 921.523 224.831C907.038 208.64 900.165 187.186 934.075 175.349L949.344 176.89L958.513 177.88C962.32 172.396 961.137 165.934 959.715 159.699C1013.06 162.085 1066.22 166.979 1119.21 172.889C1152.27 177.369 1185.04 182.28 1217.67 186.478C1250.29 190.677 1282.64 194.775 1314.99 198.375C1249.42 189.186 1184.42 180.395 1119.23 173.02C1066.34 165.672 1012.78 158.569 958.624 154.022C957.521 146.821 958.621 140.591 970.978 137.628C988.624 130.236 1045.3 146.43 1078.35 148.356C1124.35 149.209 1171.82 154.997 1219.08 162.402C1266.34 169.808 1313.42 178.56 1359.4 185.517C1393.28 191.062 1426.65 199.382 1459.16 210.395C1467.54 213.368 1476 216.297 1484.24 219.518C1492.47 222.739 1500.61 226.037 1508.62 229.583C1524.91 236.599 1540.91 244.179 1556.6 252.326C1578.13 263.784 1600.02 275.797 1621.89 288.178C1643.76 300.559 1665.14 314.124 1685.59 328.295C1705.51 342.276 1724.36 357.708 1742 374.466C1758.16 389.93 1772.52 407.175 1784.79 425.87C1789.11 432.469 1792.55 439.607 1795.02 447.099C1796.79 452.164 1797.59 457.515 1797.39 462.876C1797.3 466.589 1795.88 470.146 1793.38 472.893C1790.97 475.404 1787.84 477.11 1784.43 477.781C1776.91 479.286 1766.76 477.581 1755.4 473.099C1749.14 470.609 1743.05 467.74 1737.15 464.508C1730.87 460.961 1723.99 457.118 1717.08 452.515L1708.54 460.606C1720.65 470.872 1726.29 479.17 1728.59 485.037C1729.72 487.194 1730.11 489.66 1729.71 492.059C1729.31 494.459 1728.13 496.661 1726.36 498.331C1720.27 504.412 1708.24 507.071 1704.74 514.641C1686.5 491.513 1662.82 473.257 1635.82 461.502C1630.13 456.823 1619.13 447.788 1613.18 443.406C1604.83 436.882 1595.95 430.983 1587.28 424.861C1578.61 418.739 1569.34 413.184 1560.29 407.77C1551.23 402.356 1541.83 397.115 1532.57 391.858C1523.3 386.601 1513.73 381.877 1504.05 377.332C1494.37 372.787 1484.63 368.315 1474.93 363.904C1465.23 359.494 1455.22 355.551 1445.16 351.779C1435.11 348.007 1425.18 344.485 1415.21 340.902L1399.76 336.066C1394.59 334.444 1389.42 332.757 1384.14 331.249C1342.09 318.695 1298.53 308.041 1254.65 298.585C1249.48 297.494 1244.45 296.454 1239.16 295.444C1240.01 296.208 1241.91 297.18 1242.34 298.025C1239.5 297.459 1236.82 296.251 1234.5 294.493C1217.39 291.045 1200.18 287.806 1182.87 284.779C1186.59 288.259 1184.48 291.224 1187.26 294.051C1194.89 297.594 1203.08 299.794 1211.46 300.555C1219.32 301.632 1227.03 302.062 1234.2 305.805C1226.01 292.43 1261.64 307.356 1279.24 313.833C1283.1 314.88 1286.77 316.573 1290.07 318.841C1291.35 320.049 1292.33 321.553 1292.9 323.221C1294.19 326.056 1295.65 328.904 1307.57 333.289C1321.11 333.703 1285.86 317.706 1303.29 319.294L1313.51 325.601C1319.02 331.99 1322.7 338.825 1329.92 344.718C1334.8 346.77 1342.17 349.926 1342.94 348.576C1333.9 342.995 1338.3 340.924 1349.4 343.116C1351.97 345.058 1354.21 347.394 1356.05 350.037C1332.21 350.687 1376.29 360.153 1387.34 372.134C1405.44 385.185 1411.64 385.459 1418.39 384.806C1425.15 384.153 1431.97 383.227 1450.1 395.379C1442.02 396.319 1447.77 400.725 1456.88 406.098C1461.5 408.68 1466.69 412.022 1471.5 415.111C1475.63 417.628 1479.54 420.503 1483.17 423.702C1493.58 429.655 1498.66 429.662 1507.3 431.51C1509.59 434.095 1517.29 439.302 1517.55 441.527C1511.33 445.069 1500.76 445.735 1487.34 444.443C1480.64 443.797 1473.25 442.765 1465.33 441.099C1461.36 440.334 1457.28 439.449 1453.09 438.477L1446.71 436.964L1439.92 435.631C1439.21 434.95 1438.58 434.393 1438.73 434.178C1430.79 429.828 1420.78 425.586 1410.97 420.558C1406.08 418.054 1401.33 415.285 1396.74 412.263C1394.45 410.772 1392.24 409.172 1390.16 407.524C1388.01 406.001 1385.95 404.345 1384.01 402.568C1392.87 405.484 1393.64 404.399 1406.86 410.291C1403.6 405.41 1398.59 401.96 1392.87 400.642C1386.75 399.407 1380.74 397.619 1374.94 395.298C1385.27 398.541 1373.74 390.131 1365.68 385.862C1357.52 382.964 1347.35 378.509 1336.55 373.463C1325.48 368.98 1313.82 363.968 1302.98 359.425C1298.75 356.402 1288.59 352.642 1280.32 349.126C1272.06 345.61 1265.45 343.028 1268.84 340.777C1255.48 335.698 1251.93 339.427 1241.48 337.327C1235 333.242 1227.85 330.314 1220.37 328.671C1213.1 327.375 1205.75 326.568 1198.37 326.255C1183.53 325.294 1168.74 323.897 1153.6 314.879C1154.65 319.036 1138.47 314.517 1132.05 313.24C1118.09 310.088 1085.22 302.369 1093.92 297.344C1104.55 294.882 1122.01 307.343 1137.69 306.15C1164.75 304.927 1112.11 296.887 1113.13 290.567C1116.27 292.424 1119.5 288.301 1128.39 291.446C1109.8 283.923 1141.84 287.659 1130.88 281.207C1139.41 282.443 1148.01 283.049 1156.63 283.021C1159.18 282.792 1161.72 282.354 1164.2 281.709C1149.73 279.346 1135.24 277.084 1120.64 275.034C1136.12 276.905 1151.46 278.923 1166.68 281.089C1168.49 280.614 1170.52 280.112 1173.14 279.542C1175.7 280.475 1178.17 281.654 1180.51 283.063C1217.94 288.659 1254.68 295.198 1291.03 302.877C1304.96 305.701 1318.62 309.087 1332.42 312.291L1352.93 317.534C1359.77 319.292 1366.61 321.116 1373.47 323.071C1380.33 325.026 1387.18 326.883 1393.69 328.977L1413.69 335.274C1420.28 337.46 1426.63 339.839 1433.13 342.167C1439.64 344.495 1446.07 347.296 1452.57 349.856C1452.33 347.795 1451.03 344.662 1455.27 344.633C1448.89 341.33 1442.49 337.895 1435.99 335.069C1429.49 332.243 1423.06 329.377 1416.39 326.835C1409.73 324.293 1402.93 321.967 1396.16 319.67C1389.39 317.373 1382.4 315.466 1375.54 313.478C1347.8 305.693 1319.5 299.897 1290.99 294.855C1233.99 284.903 1176.46 277.001 1118.12 262.726L1117.08 268.948L1119.01 268.724L1121.45 277.097C1109.46 278.69 1099.45 282.972 1100.43 288.031C1084.65 289.501 1070.87 285.93 1056.57 281.558C1049.39 279.441 1042.09 277.139 1034.33 275.422C1026.1 273.906 1017.73 273.278 1009.37 273.548C1001.14 273.776 984.261 271.527 983.825 268.062C984.24 261.646 1008.05 268.76 1022.89 269.157C1015.26 265.136 1004.38 263.715 992.787 262.709C986.989 262.189 980.97 261.761 975.095 261.151C969.221 260.541 963.344 260.196 957.874 259.075L968.885 256.799C965.904 255.687 963.013 254.497 960.27 253.158C944.933 251.89 927.106 255.158 912.031 253.86L918.05 257.139C915.013 256.953 911.967 256.953 908.93 257.139L900.193 258.155C894.827 258.779 890.514 258.484 889.024 255.938C897.048 255.635 899.977 254.3 907.743 255.486C909.458 253.695 902.939 252.96 901.838 251.762C891.288 251.165 876.967 249.215 868.507 251.758C861.719 250.25 854.829 249.245 847.894 248.749C840.893 247.872 836.087 247.038 840.66 243.588C824.673 243.855 806.316 244.564 787.534 244.758L780.473 244.783L773.414 245.107C768.693 245.291 764.004 245.471 759.337 245.55C749.97 245.71 740.708 245.627 731.832 245.167C728.975 249.114 717.082 247.512 713.045 249.872C716.826 252.152 704.912 254.366 703.478 257.153C692.06 256.79 680.257 257.101 668.445 257.911C662.517 258.269 656.516 258.569 650.52 259.199L632.529 261.623C620.481 263.257 608.441 264.955 596.403 266.388C593.392 266.739 590.382 267.089 587.404 267.435L578.505 268.768C572.57 269.635 566.648 270.324 560.737 270.835C546.099 268.723 537.019 271.636 523.899 273.461C534.185 268.036 544.883 263.432 555.893 259.691ZM1143.51 254.367C1210.69 263.402 1277.93 276.609 1342.9 290.312C1288.72 276.415 1226.16 260.077 1169.73 255.63C1129.62 251.306 1091.84 245.816 1054.96 241.516C1019.27 237.009 983.325 234.853 947.354 235.06C955.591 236.026 963.884 237.184 972.21 238.338C980.536 239.492 988.149 241.359 996.124 242.919C1045.45 243.577 1094.68 247.401 1143.51 254.367Z" fill="#66C1DF"/>
<path d="M964.626 274.076C966.577 274.313 968.709 274.397 970.951 274.567L977.838 275.325C982.536 275.799 987.162 276.82 991.623 278.365C1000.76 279.391 1014.49 278.492 1011.58 274.618C1039.09 277.853 1023.59 284 1051.66 289.855C1045.1 290.161 1038.53 289.633 1032.11 288.282C1025.36 287.309 1018.35 285.77 1011.32 284.067C997.268 280.992 982.981 277.911 969.867 279.502C959.37 278.501 959.243 274.271 964.626 274.076Z" fill="#66C1DF"/>
<path d="M926.425 272.682L929.956 272.536C929.65 273.036 928.924 273.353 926.425 272.682Z" fill="#66C1DF"/>
<path d="M930.735 271.251C931.713 266.826 953.104 266.826 962.148 268.162C958.509 273.096 939.883 272.343 929.956 272.536C930.234 272.072 930.052 271.364 930.735 271.251Z" fill="#66C1DF"/>
<path d="M935.167 257.736L940.764 256.82C943.385 257.112 953.199 255.374 951.095 258.67C945.792 259.707 940.312 259.386 935.167 257.736Z" fill="#66C1DF"/>
<path d="M871.606 263.005L882.053 263.581L878.463 268.642L869.408 267.771C885.167 267.829 858.164 263.772 871.606 263.005Z" fill="#66C1DF"/>
<path d="M851.212 266.736C846.001 266.414 843.029 268.517 840.578 267.973L837.035 266.03C841.733 264.921 846.649 265.166 851.212 266.736Z" fill="#66C1DF"/>
<path d="M868.931 255.688C875.418 256.426 861.671 259.418 859.225 257.779C863.433 256.892 862.557 254.208 868.931 255.688Z" fill="#66C1DF"/>
<path d="M835.103 226.027C823.186 224.793 810.714 227.338 804.522 223.15C818.118 222.563 823.186 224.793 835.103 226.027Z" fill="#66C1DF"/>
<path d="M1326.33 378.533L1315.57 371.559C1320.75 372.499 1325.6 374.796 1329.61 378.218L1326.33 378.533Z" fill="#66C1DF"/>
<path d="M1258.1 344.845C1265.16 346.958 1271.98 349.764 1278.48 353.221C1284.83 356.892 1291.41 360.17 1298.16 363.037L1305.24 368.847C1297 366.488 1285.78 362.686 1274.37 358.375C1263.2 354.87 1252.29 350.598 1241.71 345.591C1237.87 339.074 1246.57 344.661 1258.1 344.845Z" fill="#66C1DF"/>
<path d="M918.326 187.927C916.47 186.517 914.673 185.035 912.76 183.699C920.334 182.184 928.195 183.129 935.194 186.396C927.02 185.688 922.122 189.773 918.326 187.927Z" fill="#36B9D8"/>
<path d="M1276.8 311.993C1280.73 313.451 1284.46 315.403 1287.89 317.801C1296.71 328.648 1274.08 315.693 1268.31 313.445L1270.49 312.495C1270.26 310.532 1273.11 310.797 1276.8 311.993Z" fill="#36B9D8"/>
<path d="M1011.6 214.322C1012.52 214.216 1013.7 214.41 1014.95 214.563C1014.73 215.019 1014.03 215.267 1011.6 214.322Z" fill="#36B9D8"/>
<path d="M930.497 199.047L927.269 196.669C931.941 196.239 936.641 197.129 940.833 199.238C935.856 198.357 932.743 200.112 930.497 199.047Z" fill="#36B9D8"/>
<path d="M901.979 150.03C915.048 150.898 919.568 154.12 930.765 156.864C919.524 154.026 907.341 154.78 901.979 150.03Z" fill="#36B9D8"/>
<path d="M1374.14 377.848L1371.08 377.507L1362.58 368.547C1367.22 370.518 1371.22 373.737 1374.14 377.848Z" fill="#36B9D8"/>
<path d="M1314.07 332.434C1320.23 335.826 1326.06 339.802 1331.47 344.306C1336.71 348.956 1342.26 353.241 1348.08 357.132L1353.55 363.958C1346.25 360.197 1336.4 354.744 1326.47 348.635C1316.75 343.152 1307.39 337.063 1298.44 330.404C1296.07 323.416 1303.31 330.069 1314.07 332.434Z" fill="#36B9D8"/>
<path d="M1261.33 304.473C1257.91 303.578 1254.49 302.682 1251.06 301.656C1247.62 300.629 1244.19 299.668 1240.72 298.347C1233.48 295.631 1226.76 291.664 1220.89 286.625C1221.12 290.877 1206.7 283.864 1200.87 281.624C1194.64 278.8 1183.85 274.748 1175.92 270.663C1172.67 269.176 1169.66 267.238 1166.96 264.906C1165.21 263.253 1165.01 261.817 1167.34 260.75C1172.54 260.145 1178.85 263.656 1185.73 267.233C1189.26 269.045 1192.79 270.889 1196.28 272.407C1199.79 274.019 1203.53 275.083 1207.36 275.562C1220.21 277.119 1214.62 273.823 1206.01 269.352L1199.24 265.862C1196.92 264.738 1194.7 263.604 1192.74 262.471C1190.33 261.441 1188.26 259.766 1186.74 257.631L1178.55 255.898L1163.16 252.746C1160.57 252.217 1158.02 251.652 1155.45 251.221L1147.64 249.973C1151.02 250.476 1154.38 250.848 1157.76 251.417L1167.72 253.21L1186.73 256.703L1187.44 256.82L1190.59 257.415C1193.98 257.043 1197.4 257.684 1200.43 259.256L1200.59 259.237C1189.37 252.317 1201.98 254.665 1205.94 253.342L1205.46 253.199C1198.81 251.761 1192.18 250.189 1185.54 248.484L1179.93 247.014C1176.77 248.343 1174.6 250.188 1174.65 252.371C1167.44 251.994 1160.32 250.589 1153.51 248.197C1150.39 247.1 1147.32 245.798 1144.28 244.461C1143.9 246.329 1143.55 248.128 1143.26 249.388L1126.72 246.868L1128.21 247.391C1123.92 247.118 1119.67 246.377 1115.55 245.183C1105.43 243.772 1095.5 242.473 1085.29 241.703L1056.03 239.004C1046.23 238.287 1036.34 237.977 1026.5 237.729C1018.78 236.869 1011.23 234.827 1004.14 231.674C997.577 228.855 991.295 225.433 985.37 221.453C1012.83 218.737 1040.45 217.975 1068.02 219.171C1067.07 218.484 1066.53 217.818 1066.55 217.152C1067.18 213.995 1072.92 214.886 1080.34 216.809C1084.41 217.828 1088.84 219.137 1093.26 220.646L1100.45 221.202C1097.59 219.538 1094.58 218.156 1091.45 217.076L1087.32 216.595L1061.68 213.739L1055.34 213.117L1048.96 212.764L1036.22 212.156L1034.03 212.08C1038.07 212.635 1042.07 213.478 1045.99 214.601C1041.86 218.995 1024.29 215.633 1014.8 214.714C1015.08 214.25 1015.03 213.592 1015.69 213.549C1016.05 212.612 1017.4 211.99 1019.34 211.598C1008.11 211.136 996.862 211.337 985.653 212.2L974.659 213.479C970.516 210.08 966.781 206.767 963.342 203.718L957.755 202.444C959.241 202.718 960.755 202.809 962.264 202.716C961.806 202.205 961.349 201.694 960.921 201.147C958.374 199.785 954.458 198.052 958.39 197.926C957.051 196.135 955.825 194.261 954.72 192.317C952.899 192.529 951.055 192.214 949.408 191.409C950.848 191.186 952.231 190.687 953.482 189.94C952.492 187.904 951.711 185.773 951.15 183.579C947.391 182.623 943.141 181.724 939.553 180.815C932.993 179.157 928.524 177.521 933.262 174.914C902.914 170.616 862.879 168.573 829.343 162.524C826.091 166.218 814.995 163.197 810.812 164.878C814.138 167.807 802.506 168.165 800.743 170.692C757.37 162.47 708.361 166.246 663.038 163.225C649.453 158.769 640.425 160.416 627.731 160.201L630.342 159.267C625.502 159.565 620.698 159.891 615.872 160.32L587.043 163.374C548.499 167.591 509.908 173.406 472.049 174.956C448.401 168.951 433.958 173.947 412.945 176.059C429.246 166.68 446.409 158.887 464.198 152.787C474.337 149.286 485.055 145.917 495.964 142.758C501.453 141.191 506.945 139.657 512.478 138.185C518.011 136.712 523.64 135.494 529.167 134.254C547.464 138.162 538.02 142.51 524.642 146.388C511.263 150.265 494.028 154.06 496.264 155.89C494.353 159.992 504.818 157.581 513.262 157.76C532.056 152.822 550.838 144.933 550.687 137.356L563.598 143.151C603.773 137.55 646.119 124.965 695.582 119.677C689.644 116.99 683.24 115.482 676.726 115.237C668.554 115.537 660.479 117.114 652.794 119.91C633.635 108.872 642.72 109.706 658.555 110.982C674.39 112.258 696.801 114.759 704.693 105.617C703.517 108.34 708.843 109.081 716.108 109.098C723.373 109.115 732.644 108.7 739.016 108.457L727.978 113.919C722.329 112.686 716.629 111.293 710.966 110.227C676.391 118.625 714.713 125.046 716.434 128.726C739.854 128.49 751.911 122.379 764.933 116.288C771.725 113.132 778.791 110.6 786.042 108.725C785.027 108.843 784.046 108.958 782.976 108.883C775.754 108.098 768.558 107.243 761.22 106.604C760.647 106.24 761.133 105.852 761.295 105.534C757.985 105.588 754.69 105.772 751.391 105.923L733.7 104.664C732.334 104.326 730.94 104.023 729.591 103.55C728.579 104.033 727.496 104.349 726.383 104.487L719.736 104.365C716.713 104.318 712.474 104.082 707.561 103.758C703.983 103.51 700.031 103.174 695.922 102.922L686.072 103.769L688.007 103.876L684.911 103.772C655.191 106.299 624.861 108.997 596.836 110.698C592.259 114.978 573.456 115.274 566.996 118.181C573.11 119.99 554.113 123.758 551.789 126.582C478.769 130.929 399.335 150.281 324.849 161.696C302.093 161.656 287.578 166.031 266.865 169.866C283.804 162.775 301.088 156.537 318.65 151.174C338.933 145.068 361.281 138.755 383.28 133.709C401.003 133.538 391.543 136.894 378.232 140.498C364.921 144.102 347.797 148.282 349.867 148.97C347.722 151.342 358.135 148.771 366.316 147.82C385.004 142.828 403.885 136.652 403.997 132.759L416.398 134.169C436.23 130.171 456.732 125.664 478.276 120.705L512.397 113.818C518.103 112.69 523.863 111.457 529.776 110.404L547.765 107.384C541.601 106.626 535.375 106.517 529.188 107.057C521.217 108.133 513.342 109.825 505.633 112.118C487.047 108.575 495.939 108.038 511.435 106.966C526.93 105.893 548.992 104.82 556.742 99.3088C554.408 102.333 577.711 98.5285 590.495 97.2407L579.609 101.16C574.024 101.047 568.462 101.13 563.019 101.099C528.932 108.844 566.632 108.208 568.547 109.842C577.908 108.763 587.198 107.14 596.37 104.981C603.847 103.117 610.032 100.972 616.384 98.8399C630.318 93.9698 644.815 90.8908 659.526 89.6771C651.959 88.2025 641.576 88.7467 628.549 86.8125C623.49 86.3728 632.153 85.8628 632.352 85.0105C631.444 84.4595 630.468 84.0268 629.45 83.7229L618.771 83.4393L620.276 83.2642C623.59 83.2436 626.487 83.3379 629.296 83.5418C625.853 82.4499 621.328 81.7491 617.692 80.7127C644.72 79.2917 671.812 79.6306 698.797 81.7274C688.607 81.6522 678.611 81.8198 669.058 82.6654L695.616 82.8932C704.544 82.9494 713.427 83.4751 722.41 83.7238C727.175 84.1978 731.957 84.5372 736.692 85.0477L749.396 86.4888C748.034 86.1829 747.49 85.7819 748.178 85.1381C739.549 84.5165 730.945 83.8257 722.41 83.7238L698.757 81.6657L742.285 83.2365C739.222 82.5646 736.044 82.0388 732.836 81.5496C726.122 82.1679 719.352 81.7126 712.781 80.2007C714.515 79.999 716.053 79.8201 717.754 79.6222L711.72 79.0638L719.365 79.5012C725.609 79.0605 731.873 79.0188 738.122 79.3762L743.832 79.7071C738.343 79.2841 733.542 78.7811 729.021 78.1131C740.646 78.552 752.405 79.5723 764.388 80.2349C751.357 79.3957 737.616 76.4502 724.472 77.2159C725.973 77.5721 727.466 77.8627 729.021 78.1131L697.76 77.3708C687.416 77.1145 677.162 76.7814 666.93 76.3462C673.41 75.4816 679.969 75.3979 686.468 76.0971C693.305 76.6517 700.174 76.7175 707.02 76.2939C662.339 71.9387 613.128 74.8426 568.748 73.0725L592.306 71.4604C600.168 70.9108 608.05 70.5249 616.016 69.7311C612.705 69.9376 609.383 69.9473 606.07 69.7601L622.429 69.5491C627.78 69.358 633.186 69.3595 638.847 69.5633C651.541 69.7785 664.278 69.2258 676.961 69.3428C689.643 69.4598 702.249 68.9224 714.656 69.2373C710.682 67.7415 706.397 67.2596 702.189 67.835C698.753 68.551 695.26 68.9573 691.751 69.0489C682.249 68.3299 672.692 67.7167 663.338 67.4117L636.083 66.9L656.971 67.4224C647.045 67.1348 637.11 67.3824 627.21 68.1641C630.419 68.9516 637.186 68.3968 638.957 69.6501L617.368 69.3749C610.186 69.2152 603.026 68.865 595.888 68.3243C578.664 67.9395 588.06 63.4641 595.061 63.2136C612.365 62.8595 629.05 61.7483 645.643 61.8416C653.901 61.843 662.202 61.6405 670.24 62.0322C678.279 62.424 686.532 62.9566 694.718 63.7623C702.395 64.7599 710.111 66.0846 717.814 67.0129C725.516 67.9412 733.306 68.7598 741.039 69.9499C749.823 70.487 762.102 71.4137 767.132 72.4539L794.112 79.7299C799.002 79.3516 803.921 79.765 808.68 80.9541L809.182 78.7069C814.42 79.2586 820.507 79.413 826.915 79.7621L846.372 80.8158C859.152 81.4853 870.837 82.1494 876.632 84.3607C893.465 84.2273 910.735 84.4409 928.21 85.5593C936.957 86.2445 945.733 86.9927 954.538 87.8037C963.336 88.7373 972.23 89.3612 981.041 90.6913L1007.61 94.4006C1016.47 95.6576 1025.39 96.7434 1034.2 98.339L1060.66 102.558C1069.43 103.892 1078.23 105.124 1086.95 106.764L1101.09 105.451C1142.12 110.629 1131.11 115.225 1149.32 120.967C1153.82 121.173 1152.41 118.983 1155.09 118.373C1175.42 124.366 1147.68 119.433 1155.42 122.679C1160.63 123.831 1166.23 125.17 1171.86 126.538L1180.29 128.576L1184.88 129.833C1194.37 131.316 1203.86 133.097 1213.41 134.805L1230.53 137.988L1239.11 139.643L1247.6 141.608L1281.7 149.615C1287.33 150.983 1293.03 152.144 1298.75 153.668C1304.47 155.192 1309.92 156.714 1315.49 158.188C1326.62 161.315 1337.74 164.202 1348.84 166.846C1359.86 169.777 1370.71 172.959 1381.61 175.737C1389.48 177.872 1397.33 180.122 1405.14 182.485C1412.92 184.897 1420.53 187.892 1428.16 190.72C1435.78 193.548 1443.37 196.612 1450.92 199.68L1461.88 204.077L1472.95 209.423C1487.67 216.5 1502.29 223.653 1516.71 231.263L1559.33 255.492C1564.16 258.246 1568.87 261.38 1573.62 264.375C1578.38 267.37 1583.27 270.35 1588.12 273.268C1597.86 279.167 1607.86 284.703 1617.66 290.561L1646.89 308.354L1661.47 317.105C1666.34 319.856 1670.94 323.234 1675.8 326.25C1694.08 337.877 1711.75 350.421 1728.76 363.835C1736.91 370.349 1744.74 376.868 1752.1 383.441L1757.54 388.346C1759.25 390.093 1760.94 391.82 1762.62 393.526C1765.98 396.983 1769.16 400.426 1772.25 403.881C1782.94 416.468 1788.19 426.868 1788.82 435.119C1789.27 438.642 1788.56 442.215 1786.81 445.306C1785.06 448.396 1782.36 450.838 1779.11 452.267C1772.64 455.439 1763.4 456.414 1752.44 455.135C1753.84 456.896 1755.13 458.538 1756.13 459.98C1763.01 466.741 1767.7 471.37 1772.31 475.079C1776.92 478.788 1781.28 481.828 1786.84 485.991C1789.54 490.684 1798.89 502.365 1799.03 505.202C1790.68 505.012 1777.04 498.406 1760.09 487.477C1755.78 484.662 1751.49 481.679 1746.65 478.626C1741.82 475.573 1736.77 472.347 1731.56 468.906C1726.35 465.466 1720.98 461.779 1715.46 457.977C1712.07 455.618 1708.67 453.195 1705.11 450.79L1704.25 451.919C1722.21 463.759 1728.56 471.908 1729.19 478.202C1732.46 482.007 1735.03 486.355 1736.79 491.049C1746.15 506.542 1753.58 514.799 1759.67 519.828C1764.8 523.722 1770.89 526.133 1777.29 526.799C1783.92 527.441 1790.34 529.475 1796.13 532.767C1803.23 536.816 1810.82 545.054 1820.34 560.164C1806.38 557.642 1811.86 568.182 1821.82 582.013C1826.99 588.775 1832.4 597.1 1837.53 604.761C1842 611.146 1845.75 618.007 1848.7 625.218C1853.15 631.289 1858.37 636.758 1864.22 641.487C1869.17 645.256 1874.28 648.079 1880.43 652.206C1881.65 657.835 1888.96 671.112 1887.08 674.647C1873.55 676.586 1855.82 671.351 1835.83 661.703C1830.81 659.335 1825.81 656.534 1820.36 653.553C1814.9 650.573 1809.24 647.782 1803.53 644.567C1797.81 641.351 1791.98 637.95 1786.09 634.357C1780.2 630.764 1774.35 626.966 1767.88 623.209C1767.31 621.782 1766.87 620.507 1767.33 620.221C1762.98 614.725 1757.8 609.025 1752.37 603.09C1746.94 597.156 1741.36 590.807 1735.38 584.704C1729.48 578.617 1724.02 572.127 1719.02 565.281C1716.59 561.821 1714.36 558.227 1712.33 554.518C1710.4 550.762 1708.17 547.241 1706.76 543.36C1709.07 545.154 1711.48 546.822 1713.97 548.358L1720.11 552.121C1726.23 556.139 1731.94 560.739 1737.16 565.858C1736.36 555.239 1730.13 548.999 1722.53 543.581C1714.94 538.163 1705.3 534.243 1698.28 526.934C1711.96 536.752 1700.49 517.392 1691.1 506.544C1680.21 498.425 1666.74 487.257 1652.95 474.5C1649.56 471.279 1645.83 468.33 1642.19 465.238C1641.68 464.833 1641.19 464.392 1640.71 463.983C1637.83 462.827 1634.91 461.674 1631.94 460.66L1607.72 444.074C1598.32 437.374 1588.71 431.13 1578.97 424.999C1585.11 431.384 1591.75 437.266 1598.83 442.588L1602.6 448.783L1606.14 455.269C1600.6 451.536 1593.61 447.606 1586.33 442.947C1579.06 438.288 1571.23 433.162 1563.5 427.694C1559.65 424.825 1555.67 422.269 1551.71 419.612C1547.76 416.955 1543.92 414.184 1540.22 411.431C1533.14 406.272 1526.37 400.703 1519.94 394.753C1519.56 391.481 1519.64 389.945 1520.52 389.213L1503.77 379.52C1501.31 378.969 1498.92 378.134 1496.65 377.032C1492.36 375.177 1487.37 372.539 1482.91 370.074L1476.77 366.609L1472.15 364.293L1473.94 363.389L1471.36 362.031C1462.1 357.138 1452.92 352.07 1443.4 347.739C1424.52 338.792 1405.91 329.414 1386.6 321.611L1357.89 309.396L1330.15 299.057C1333.74 301.36 1337.31 303.597 1340.22 305.481C1350.38 311.297 1350.85 314.194 1351.53 317.232C1352.22 320.27 1352.96 323.202 1363.48 329.54C1376.4 332.315 1345.99 310.614 1362.31 315.216L1370.79 323.151C1374.93 330.231 1376.7 337.719 1382.23 345.036C1386.37 347.871 1392.62 352.517 1393.65 351.402C1386.35 344.291 1391.01 342.987 1401.01 347.396C1403.03 349.772 1404.65 352.462 1405.81 355.36C1394.34 353.378 1398.62 356.826 1406.64 362.428C1410.71 365.27 1415.71 368.569 1420.2 372.093C1424.22 375.073 1427.66 378.779 1430.32 383.021C1444.09 399.627 1450 401.063 1456.59 401.887C1460.38 402.165 1464.09 403.152 1467.51 404.796C1473.91 408.411 1479.49 413.305 1483.91 419.173C1476.06 418.129 1480.3 423.772 1487.39 431.106C1491.12 434.685 1494.94 439.049 1498.72 443.053C1501.98 446.442 1504.91 450.133 1507.47 454.075C1510.67 457.386 1514.22 460.332 1518.07 462.857C1521.21 464.715 1524.32 466.078 1528.13 468.088C1529.56 471.239 1535.2 478.111 1534.76 480.318C1527.93 482.008 1517.83 479.899 1505.78 475.231C1499.83 472.839 1493.14 470.068 1486.03 466.783C1482.52 465.167 1479 463.388 1475.19 461.411C1471.38 459.433 1467.72 457.604 1463.75 455.71C1463.26 454.938 1462.85 454.223 1463.06 454.033C1450.73 441.902 1430.48 428.902 1419.81 412.102C1427.32 416.833 1428.37 415.881 1439.39 424.218C1438.48 421.6 1437.06 419.19 1435.21 417.128C1433.36 415.066 1431.11 413.393 1428.61 412.206C1423.18 409.723 1418.01 406.714 1413.17 403.223C1421.91 408.54 1413.32 397.965 1406.84 392.12C1399.71 387.841 1391.12 381.61 1382 374.745C1372.88 367.879 1362.95 360.909 1353.66 354.626C1350.25 351.009 1341.37 345.609 1334.28 340.796C1327.18 335.983 1321.53 332.13 1325.17 330.613C1313.61 323.068 1309.67 326.014 1300.06 322.323C1294.63 317.304 1288.33 313.316 1281.48 310.555C1274.9 308.099 1268.17 306.068 1261.33 304.473ZM1289.54 285.241C1292.9 286.523 1296.09 288.225 1299.02 290.307C1298.73 289.583 1298.53 288.827 1298.43 288.055L1289.54 285.241ZM816.086 115.546L818.085 115.91C819.067 115.796 820.441 115.636 822.339 115.415L830.608 115.515L829.564 115.371C825.186 114.521 820.134 113.848 815.077 113.143C815.051 113.593 815.128 114.044 815.303 114.461C815.478 114.877 815.746 115.248 816.086 115.546ZM1167.53 150.952L1174.02 151.989C1181.9 153.294 1189.7 155.041 1197.56 156.448L1211.86 159.129C1211.14 158.775 1210.52 158.227 1210.09 157.545L1197.09 155.276C1189.28 153.995 1181.57 152.405 1173.72 151.361L1165.02 150.183L1167.53 150.952ZM855.652 119.832C854.908 119.422 853.244 119.084 851.759 118.295C850.678 118.492 849.585 118.619 848.487 118.676L837.985 116.78L833.655 120.898L833.296 120.94C839.442 122.097 845.73 122.306 851.939 121.558C854.059 120.931 856.219 120.447 858.404 120.109L855.652 119.832ZM1352.97 277.931C1311.65 261.776 1264.41 245.116 1219.12 236.322C1220.54 238.078 1222.18 239.658 1223.98 241.03C1267.77 251.159 1310.93 264.082 1352.97 277.931ZM746.192 136.509C741.521 144.249 722.624 141.173 716.108 145.313C718.336 147.077 717.227 148.666 714.824 150.239L720.612 153.247C744.979 153.166 771.187 149.819 800.953 150.536C792.588 146.767 788.738 145.888 775.491 147.76C764.95 140.96 770.278 141.999 779.596 143.701C788.914 145.403 802.007 148.192 807.337 144.123C806.456 145.386 809.563 146.152 813.87 146.68C818.176 147.207 823.657 147.564 827.507 147.879L820.551 149.949C817.279 148.903 814.014 147.923 810.725 147.012C789.572 148.776 811.873 154.606 812.763 156.559C840.659 159.45 843.246 147.475 875.239 151.946C875.919 154.653 870.783 154.123 872.829 156.604C881.524 158.644 879.598 161.19 893.869 161.851C908.976 159.431 919.476 169.586 936.857 168.758C944.791 164.254 918.731 162.608 922.294 159.309L930.572 158.346C939.14 159.87 951.508 157.569 958.188 161.966L959.238 161.015L959.503 160.155L960.086 160.319C962.28 158.603 964.623 157.088 967.088 155.791C966.128 155.902 965.227 156.14 964.385 156.503C950.764 150.028 905.613 151.332 920.568 139.047C894.971 138.243 865.543 138.15 835.51 138.558C827.991 138.637 820.434 138.388 812.886 138.503C805.338 138.618 797.807 138.598 790.33 138.473C782.854 138.347 775.391 138.054 768.026 137.75C760.661 137.446 753.21 137.251 746.094 136.52L746.192 136.509ZM665.939 93.7734C666.85 93.3358 667.339 92.9804 667.113 92.7415C666.886 92.5025 666.372 92.3633 666.047 92.1357C665.278 92.6563 664.939 93.16 665.939 93.7734ZM776.468 89.7081C776.422 89.3154 776.151 88.9821 775.422 88.7021L774.533 88.4738C767.681 87.6774 760.791 87.2609 753.893 87.2261C761.449 88.0387 768.965 88.7897 776.468 89.7081ZM900.114 105.475L909.362 107.716L912.88 106.876C921.318 107.103 929.762 106.675 938.135 105.597C946.779 104.924 955.089 105.085 960.826 109.359L961.702 104.913C964.318 105.736 967.148 106.402 970.109 107.052C972.535 107.666 975.084 108.198 977.633 108.731L984.822 108.094C960.528 101.666 928.709 104.969 900.114 105.475ZM1450.83 345.514L1445.8 344.176L1450.83 346.642C1450.85 346.267 1450.85 345.89 1450.83 345.514ZM1403.16 323.665C1400.95 321.799 1398.76 319.832 1396.67 317.787C1396.67 318.344 1396.49 318.886 1396.15 319.328C1395.81 319.77 1395.34 320.086 1394.8 320.227L1396.05 320.744L1403.16 323.665ZM1321.86 291.897L1329.17 294.362C1327.03 293.351 1324.95 292.299 1322.98 291.269C1317.17 288.634 1311.97 284.838 1307.68 280.113L1306.56 279.813C1303.43 279.746 1307.91 282.342 1308.36 283.882C1303.42 281.903 1299.84 278.24 1300.71 276.878C1302.94 278.118 1305.28 279.156 1307.7 279.978C1307.4 279.491 1307.16 278.976 1306.96 278.44L1303.95 277.629L1264.84 267.352L1255.63 265.107C1255.39 267.032 1255.69 268.985 1256.52 270.742L1259.25 272.579C1261.27 273.107 1263.25 273.639 1265.21 274.24L1302.13 285.136C1304.23 285.516 1306.28 286.147 1308.22 287.015C1312.73 288.745 1317.3 290.337 1321.86 291.929L1321.86 291.897Z" fill="#36B9DC"/>
<g clip-path="url(#clip0)">
<path d="M386.975 51.0207C398.372 43.4697 422.688 52.5309 443.204 48.7554L443.964 58.5718C420.408 52.5309 414.329 58.5718 388.494 51.7758C387.734 51.7758 387.734 51.0207 386.975 51.0207Z" fill="#00C1DE"/>
<path d="M254 122C253.241 119.734 270.717 111.428 255.52 112.938C263.879 112.183 271.477 111.428 263.879 106.898C279.076 106.143 265.398 113.694 275.276 116.714C266.918 112.938 260.839 120.49 254 122Z" fill="#00C1DE"/>
<path d="M310.989 113.694C303.391 113.694 297.312 119.735 290.473 115.204C297.312 112.939 306.43 110.673 310.989 113.694Z" fill="#00C1DE"/>
<path d="M292.753 97.8366L296.552 98.5917L286.674 104.633L292.753 97.8366Z" fill="#00C1DE"/>
<path d="M335.305 102.367C338.344 101.612 340.624 100.102 340.624 98.5918L314.029 97.0816L337.584 93.3061C352.021 97.0816 345.183 99.3469 335.305 102.367Z" fill="#00C1DE"/>
<path d="M312.509 109.918L304.15 107.653C304.15 106.143 315.548 106.143 326.186 104.633C319.347 105.388 313.268 107.653 312.509 109.918Z" fill="#00C1DE"/>
<path d="M335.305 102.367C333.025 103.122 329.986 103.877 326.186 104.632C329.226 103.122 332.265 102.367 335.305 102.367Z" fill="#00C1DE"/>
<path d="M359.62 89.5306L363.419 89.5306L364.939 96.3265C357.34 95.5714 360.38 91.0408 359.62 89.5306Z" fill="#00C1DE"/>
<path d="M392.294 76.6937C399.132 72.1631 412.81 76.6937 418.889 77.4488C410.53 81.9794 400.652 81.9794 389.254 83.4896C400.652 81.9794 392.294 78.959 392.294 76.6937Z" fill="#00C1DE"/>
<path d="M424.968 67.6324C417.369 67.6324 409.771 67.6324 402.172 67.6324C406.731 60.0814 415.09 66.8773 424.968 67.6324Z" fill="#00C1DE"/>
<path d="M461.441 70.6531C463.72 71.4082 462.201 73.6735 466 74.4286C462.961 77.449 454.602 75.9388 449.283 76.6939L461.441 70.6531Z" fill="#00C1DE"/>
</g>
<g clip-path="url(#clip1)">
<path d="M857.613 -4.00049C870.816 -7.5509 891.008 8.74799 911.663 11.6678L909.273 21.219C888.846 8.02569 881.166 11.8291 858.815 -2.80276C858.095 -3.04353 858.334 -3.75972 857.613 -4.00049Z" fill="#00C1DE"/>
<path d="M709 21.1868C708.997 18.7975 728.205 16.457 713.313 13.074C721.48 15.0063 728.926 16.6978 723.155 9.99292C737.808 14.0921 722.443 16.9202 730.855 22.915C724.123 16.6855 715.965 21.9213 709 21.1868Z" fill="#00C1DE"/>
<path d="M765.685 31.3665C758.478 28.9588 750.798 32.7622 745.747 26.2981C752.951 26.3164 762.318 27.0571 765.685 31.3665Z" fill="#00C1DE"/>
<path d="M753.413 10.5479L756.777 12.4679L745.494 15.0675L753.413 10.5479Z" fill="#00C1DE"/>
<path d="M792.336 28.3281C795.458 28.575 798.099 27.8649 798.577 26.4326L773.831 16.5733L797.369 20.4561C809.866 28.6117 802.662 28.5933 792.336 28.3281Z" fill="#00C1DE"/>
<path d="M768.322 28.267L761.112 23.47C761.591 22.0376 772.401 25.6491 782.97 27.5875C776.244 26.1368 769.761 26.3592 768.322 28.267Z" fill="#00C1DE"/>
<path d="M792.336 28.3279C789.935 28.3218 786.813 28.0749 782.97 27.5873C786.332 27.1179 789.454 27.3648 792.336 28.3279Z" fill="#00C1DE"/>
<path d="M819.466 23.8575L823.07 25.0613L822.358 31.9886C815.39 28.8647 819.708 25.5306 819.466 23.8575Z" fill="#00C1DE"/>
<path d="M854.524 22.035C862.446 19.9048 873.983 28.5358 879.509 31.1781C870.146 32.8268 860.777 29.6968 849.488 27.5177C860.777 29.6968 853.806 24.1836 854.524 22.035Z" fill="#00C1DE"/>
<path d="M888.385 23.7936C881.178 21.3859 873.971 18.9782 866.764 16.5706C873.481 10.8532 879.255 19.9474 888.385 23.7936Z" fill="#00C1DE"/>
<path d="M922.022 38.2155C923.945 39.654 921.786 41.3211 925.15 43.2411C921.31 45.1428 913.861 41.062 908.577 40.0928L922.022 38.2155Z" fill="#00C1DE"/>
</g>
<g clip-path="url(#clip2)">
<path d="M412.975 207.021C424.372 199.47 448.688 208.531 469.204 204.755L469.964 214.572C446.408 208.531 440.329 214.572 414.494 207.776C413.734 207.776 413.734 207.021 412.975 207.021Z" fill="#00C1DE"/>
<path d="M280 278C279.241 275.734 296.717 267.428 281.52 268.939C289.879 268.183 297.477 267.428 289.879 262.898C305.076 262.143 291.398 269.694 301.276 272.714C292.918 268.939 286.839 276.49 280 278Z" fill="#00C1DE"/>
<path d="M336.989 269.694C329.391 269.694 323.312 275.735 316.473 271.204C323.312 268.939 332.43 266.673 336.989 269.694Z" fill="#00C1DE"/>
<path d="M318.753 253.837L322.552 254.592L312.674 260.633L318.753 253.837Z" fill="#00C1DE"/>
<path d="M361.305 258.367C364.344 257.612 366.624 256.102 366.624 254.592L340.029 253.082L363.584 249.306C378.021 253.082 371.183 255.347 361.305 258.367Z" fill="#00C1DE"/>
<path d="M338.509 265.918L330.15 263.653C330.15 262.143 341.548 262.143 352.186 260.633C345.347 261.388 339.268 263.653 338.509 265.918Z" fill="#00C1DE"/>
<path d="M361.305 258.367C359.025 259.122 355.986 259.877 352.186 260.632C355.226 259.122 358.265 258.367 361.305 258.367Z" fill="#00C1DE"/>
<path d="M385.62 245.531L389.419 245.531L390.939 252.327C383.34 251.571 386.38 247.041 385.62 245.531Z" fill="#00C1DE"/>
<path d="M418.294 232.694C425.132 228.163 438.81 232.694 444.889 233.449C436.53 237.979 426.652 237.979 415.254 239.49C426.652 237.979 418.294 234.959 418.294 232.694Z" fill="#00C1DE"/>
<path d="M450.968 223.632C443.369 223.632 435.771 223.632 428.172 223.632C432.731 216.081 441.09 222.877 450.968 223.632Z" fill="#00C1DE"/>
<path d="M487.441 226.653C489.72 227.408 488.201 229.674 492 230.429C488.961 233.449 480.602 231.939 475.283 232.694L487.441 226.653Z" fill="#00C1DE"/>
</g>
<path d="M482.31 81.5325C487.481 80.3674 492.257 79.5135 497.056 78.8559C501.854 78.1984 506.61 77.7447 511.78 77.1435L491.051 79.1231L517.99 76.355C527.283 75.2743 536.831 74.9599 546.294 74.4895C553.208 74.0503 558.965 69.3679 569.036 71.8447C544.396 74.7102 519.201 78.5025 494.038 81.4288C492.29 80.3718 485.5 82.1564 482.31 81.5325Z" fill="#36B9D8"/>
<path d="M454.679 86.9021C457.135 86.4639 459.615 86.1754 462.106 86.0383L454.679 86.9021Z" fill="#36B9D8"/>
<path d="M584.549 79.7581C583.013 79.6714 581.477 79.5846 579.967 79.4287C592.961 77.0885 606.816 78.1635 619.811 77.5477C607.762 78.3187 596.13 78.6766 584.549 79.7581Z" fill="#36B9D8"/>
<path d="M532.825 86.9999C538.335 85.8949 544.1 84.9923 549.917 84.2495C555.776 83.4471 561.672 82.9386 567.582 82.7258C561.589 83.0911 555.662 83.7472 549.878 84.4862C544.094 85.2252 538.343 85.9603 532.825 86.9999Z" fill="#36B9D8"/>
<path d="M714.895 105.226C720.064 105.188 724.472 104.875 728.875 104.528C730.075 105.251 731.391 105.76 732.765 106.033C736.105 106.241 739.461 106.581 742.592 106.979L733.73 106.352L724.957 105.913L707.767 104.96C708.859 104.769 709.936 104.5 710.989 104.154C712.411 104.685 714.118 104.819 714.895 105.226Z" fill="#36B9D8"/>
<path d="M525.553 91.1956C534.907 89.2123 544.77 87.8995 554.881 86.7237C562.739 86.1414 570.67 86.1808 578.526 85.8642C560.663 87.1124 543.089 89.4215 525.553 91.1956Z" fill="#36B9D8"/>
<path d="M592.831 105.061L585.744 105.72C586.766 105.452 587.735 105.014 588.611 104.424C590.004 104.719 591.413 104.932 592.831 105.061Z" fill="#36B9D8"/>
</g>
</g>
<defs>
<clipPath id="clip0">
<rect width="212" height="74" fill="white" transform="matrix(-1 5.15429e-10 5.15429e-10 1 466 48)"/>
</clipPath>
<clipPath id="clip1">
<rect width="212" height="74" fill="white" transform="matrix(-0.948472 -0.31686 -0.31686 0.948472 933.524 18.1743)"/>
</clipPath>
<clipPath id="clip2">
<rect width="212" height="74" fill="white" transform="matrix(-1 5.15429e-10 5.15429e-10 1 492 204)"/>
</clipPath>
</defs>
</svg>