<svg width="925" height="463" viewBox="0 0 925 463" fill="none" xmlns="http://www.w3.org/2000/svg">
<mask id="mask0" mask-type="alpha" maskUnits="userSpaceOnUse" x="0" y="0" width="925" height="463">
<rect width="925" height="463" fill="#C4C4C4"/>
</mask>
<g mask="url(#mask0)">
<g opacity="0.25">
<path d="M847.225 233.878L852.168 234.592C848.117 231.888 847.525 232.523 847.225 233.878Z" fill="#00C1DE"/>
<path d="M473.464 84.0864C485.401 80.372 495.106 77.6947 502.801 75.7782C506.611 74.8404 510.043 74.0693 512.982 73.5072C515.921 72.9452 518.373 72.7456 520.633 72.5527C524.368 69.4275 529.193 65.6116 535.868 60.8485L531.525 60.8057L512.413 63.6525L493.323 67.1902L455.136 73.9968C445.416 76.8359 435.931 80.4247 426.766 84.7308C442.365 84.7326 457.999 84.6179 473.464 84.0864Z" fill="#00C1DE"/>
<path d="M511.866 83.5349C512.974 84.4574 516.97 83.3595 520.983 81.6079C528.926 77.9539 536.843 71.3039 520.48 72.5578C512.638 79.1668 510.795 82.5344 511.866 83.5349Z" fill="#00C1DE"/>
<path d="M111.12 127.891L90.1971 132.836L81.6491 139.009L96.5288 135.961L111.12 127.891Z" fill="#00C1DE"/>
<path d="M-176.723 258.926C-96.6986 216.615 -14.1733 179.212 70.3949 146.926C74.1494 144.377 77.9 141.712 81.6439 138.855C67.1502 141.893 52.8272 145.694 38.7346 150.243C24.6409 154.544 10.7126 159.185 -3.05029 164.166C-9.84046 166.704 -16.5962 169.126 -23.1799 172.081C-29.7637 175.035 -36.1874 178.176 -42.5316 181.39C-55.2215 187.782 -67.5502 194.622 -79.2887 201.864C-88.665 207.412 -101.531 218.727 -111.264 222.865C-134.274 233.031 -156.213 244.197 -177.565 255.689C-198.544 267.936 -218.763 281.08 -238.961 293.723C-219.157 282.668 -199.056 271.322 -178.657 259.684L-176.723 258.926Z" fill="#00C1DE"/>
<path d="M796.532 70.1789C797.879 69.7096 799.338 69.6595 800.715 70.0351C803.806 67.201 797.833 67.7905 790.344 69.0084C782.924 72.2218 801.435 65.2846 796.532 70.1789Z" fill="#00C1DE"/>
<path d="M791.769 71.3418L796.194 70.4213L796.529 70.1024C795.156 70.4185 793.594 70.7796 791.72 71.0361C791.725 71.1896 791.766 71.265 791.769 71.3418Z" fill="#00C1DE"/>
<path d="M798.999 74.8968C794.473 76.2434 786.985 77.4613 788.561 75.2555L782.456 78.7312L803.469 74.1669C799.177 73.3539 792.122 73.7884 791.84 71.1854L782.793 72.8795C788.271 72.6197 793.752 73.3021 798.999 74.8968Z" fill="#00C1DE"/>
<path d="M746.905 82.8732C748.156 83.5629 749.585 83.8618 751.007 83.7311C751.026 83.1542 749.099 82.9899 746.905 82.8732Z" fill="#00C1DE"/>
<path d="M745.178 80.704L740.703 81.2804C739.748 82.5811 743.671 82.6769 746.905 82.8731C744.958 81.0189 753.273 77.0063 737.835 78.3437C742.296 78.4593 746.757 78.575 745.178 80.704Z" fill="#00C1DE"/>
<path d="M763.575 68.1993L760.547 69.5329L782.882 68.7653C780.063 65.02 772.43 69.8545 763.575 68.1993Z" fill="#00C1DE"/>
<path d="M638.191 78.9249C632.341 75.2838 620.285 80.0013 609.934 78.436L609.8 83.4738C621.671 80.069 624.652 82.9634 637.811 79.0532L638.191 78.9249Z" fill="#00C1DE"/>
<path d="M469.008 100.876C462.754 102.244 457.107 103.398 461.906 99.929C449.944 102.914 462.03 103.536 454.472 107.216C460.493 103.551 466.445 105.69 472.412 104.908C472.289 103.568 457.919 103.562 469.008 100.876Z" fill="#00C1DE"/>
<path d="M469.008 100.876C470.611 100.552 472.287 100.149 473.853 99.8644C471.79 100.204 470.264 100.526 469.008 100.876Z" fill="#00C1DE"/>
<path d="M442.447 109.473C436.439 110.179 428.978 111.089 426.019 113.304C431.996 111.715 437.921 113.048 442.447 109.473Z" fill="#00C1DE"/>
<path d="M437.986 101.52L435.002 103.005L443.975 103.619L437.986 101.52Z" fill="#00C1DE"/>
<path d="M424.508 111.819L430.515 108.846C430.486 108.001 421.085 110.591 412.723 112.108C418.384 111.376 423.516 110.892 424.508 111.819Z" fill="#00C1DE"/>
<path d="M405.531 113.009C407.944 112.855 410.346 112.554 412.723 112.109L405.531 113.009Z" fill="#00C1DE"/>
<path d="M643.952 295.768C646.605 293.564 642.091 293.028 636.361 292.879C630.394 294.774 645.107 291.349 640.823 295.261C642.281 295.211 643.356 295.174 643.952 295.768Z" fill="#00C1DE"/>
<path d="M640.823 295.261C639.548 295.381 638.266 295.425 636.985 295.393C636.985 295.393 636.985 295.393 636.993 295.623L640.409 295.506L640.823 295.261Z" fill="#00C1DE"/>
<path d="M637.105 295.504L630.151 295.513C634.341 296.314 638.321 297.969 641.844 300.374C638.325 300.841 632.595 300.692 634.108 298.873L629.152 301.118L645.347 300.561C642.335 299.013 637.041 298.119 637.105 295.504Z" fill="#00C1DE"/>
<path d="M602.284 298.545C602.611 299.11 603.437 299.658 605.222 300.173C605.432 299.59 603.917 299.104 602.284 298.545Z" fill="#00C1DE"/>
<path d="M596.004 292.46C599.342 293.421 602.639 294.345 601.24 296.122L597.813 295.894C596.966 296.961 599.877 297.821 602.285 298.584C601.019 296.399 607.737 293.978 596.004 292.46Z" fill="#00C1DE"/>
<path d="M616.533 287.221L614.101 287.996L630.888 291.261C629.172 287.171 622.87 290.499 616.533 287.221Z" fill="#00C1DE"/>
<path d="M446.572 311.12L445.818 310.416L444.267 311.122L446.572 311.12Z" fill="#00C1DE"/>
<path d="M430.603 310.401C434.465 310.998 438.095 311.527 441.882 312.165C442.658 311.775 443.454 311.427 444.267 311.122C436.769 310.957 439.138 308.34 430.603 310.401Z" fill="#00C1DE"/>
<path d="M444.393 309.197L445.742 310.418C455.004 307.142 459.591 312.056 473.027 309.481C463.541 308.062 453.905 307.967 444.393 309.197Z" fill="#00C1DE"/>
<path d="M930.232 220.959C924.219 222.626 939.105 219.771 934.663 223.535C936.121 223.485 937.234 223.447 937.796 224.157C940.529 222.065 936.009 221.337 930.232 220.959Z" fill="#00C1DE"/>
<path d="M922.824 228.975L939.156 229.067C936.101 227.366 930.761 226.282 930.94 223.663L923.944 223.558C928.175 224.496 932.164 226.309 935.653 228.88C932.091 229.194 926.315 228.817 927.907 227.071L922.824 228.975Z" fill="#00C1DE"/>
<path d="M895.805 225.37C896.093 225.936 896.88 226.485 898.668 227.077C898.765 226.536 897.401 225.968 895.805 225.37Z" fill="#00C1DE"/>
<path d="M889.745 218.97C893.01 220.049 896.312 221.126 894.835 222.868L891.403 222.486C890.478 223.517 893.391 224.454 895.805 225.37C894.806 223.137 901.418 220.989 889.745 218.97Z" fill="#00C1DE"/>
<path d="M910.456 214.57L907.983 215.269L924.754 219.188C923.266 215.013 916.802 218.117 910.456 214.57Z" fill="#00C1DE"/>
<path d="M904.679 166.088C901.801 166.187 897.203 165.423 898.569 163.801L894.325 165.522L907.351 166.688C905.057 164.769 900.896 163.337 901.23 160.751L895.635 160.06C899.088 161.319 902.189 163.386 904.679 166.088Z" fill="#00C1DE"/>
<path d="M904.193 160.88C905.344 160.84 906.236 161.079 906.642 161.718C908.996 159.793 905.428 158.801 900.869 158.074C895.913 159.205 907.917 157.448 904.193 160.88Z" fill="#00C1DE"/>
<path d="M901.23 160.751L903.971 161.118L904.231 160.879C903.219 160.853 902.212 160.733 901.222 160.521L901.23 160.751Z" fill="#00C1DE"/>
<path d="M872.972 160.224C873.184 160.793 873.782 161.426 875.15 162.109C875.285 161.566 874.225 160.911 872.972 160.224Z" fill="#00C1DE"/>
<path d="M868.59 153.459C871.171 154.753 873.711 156.01 872.385 157.67L869.675 157.071C868.864 158.06 871.13 159.173 872.972 160.224C872.201 157.907 877.831 156.253 868.59 153.459Z" fill="#00C1DE"/>
<path d="M885.545 150.417L883.487 150.91L896.645 155.914C895.765 151.526 890.328 154.325 885.545 150.417Z" fill="#00C1DE"/>
<path d="M792.338 125.919C800.014 125.655 801.246 129.109 809.724 128.702L809.954 128.694C807.132 123.72 799.192 125.222 793.288 121.122L792.338 125.919Z" fill="#00C1DE"/>
<path d="M705.778 108.108L708.55 108.281C707.428 108.051 706.43 108.085 705.778 108.108Z" fill="#00C1DE"/>
<path d="M706.856 112.643C707.081 111.367 698.271 107.674 705.772 107.954C701.69 107.672 697.878 107.418 701.375 105.224C693.686 105.065 700.803 108.701 695.75 110.335C699.906 108.309 703.185 112.039 706.856 112.643Z" fill="#00C1DE"/>
<path d="M677.802 109.069C681.639 108.937 685.004 111.818 688.227 109.44C684.556 108.837 679.907 107.728 677.802 109.069Z" fill="#00C1DE"/>
<path d="M686.736 100.732L684.723 101.416L690.01 104.308L686.736 100.732Z" fill="#00C1DE"/>
<path d="M665.518 103.805C664.08 103.316 662.946 102.74 662.684 101.827L676.143 101.057L663.867 99.3662C656.643 101.574 660.14 102.722 665.518 103.805Z" fill="#00C1DE"/>
<path d="M677.128 107.363L681.153 105.957C681.125 105.151 675.212 105.278 669.967 104.689C673.487 105.375 676.665 106.188 677.128 107.363Z" fill="#00C1DE"/>
<path d="M665.518 103.805C666.975 104.216 668.463 104.512 669.967 104.689L665.518 103.805Z" fill="#00C1DE"/>
<path d="M652.679 98.0219L650.76 98.0879L650.305 101.6C654.195 100.775 652.588 98.7167 652.679 98.0219Z" fill="#00C1DE"/>
<path d="M636.289 91.7845C632.72 89.6787 625.659 92.1498 622.755 92.6338C627.213 94.9011 632.082 94.5801 637.753 95.2689C632.082 94.5801 636.106 93.1739 636.289 91.7845Z" fill="#00C1DE"/>
<path d="M619.562 88.0179C623.399 87.886 627.237 87.7541 631.074 87.6222C628.755 83.8598 624.418 87.3515 619.562 88.0179Z" fill="#00C1DE"/>
<path d="M601.035 90.0375C600.049 90.4172 600.891 91.4257 598.842 92.1877C600.618 93.5482 604.547 92.7216 607.362 93.0091L601.035 90.0375Z" fill="#00C1DE"/>
<path d="M840.981 187.45C823.68 186.008 806.329 185.336 789.118 185.39L777.18 183.457L777.172 183.226C777.135 182.152 775.567 181.245 773.256 181.094L762.633 180.537C765.587 179.283 767.559 177.409 767.83 175.248L773.07 175.683C778.74 176.295 784.338 177.102 789.97 177.753C801.198 179.135 812.385 180.441 823.451 181.559C825.387 178.619 826.67 175.297 827.214 171.819C827.757 168.34 827.547 164.786 826.6 161.395C820.429 159.968 814.272 158.566 808.128 157.189C809.032 156.658 809.629 156.138 809.694 155.79C806.352 152.339 802.157 149.832 797.534 148.524L795.823 147.929L797.358 147.877L796.539 147.521C808.309 146.809 820.158 146.132 832.013 145.61C836.694 145.449 840.203 143.561 839.776 141.194C839.348 138.826 835.133 136.896 830.447 136.942C813.348 136.073 796.214 136.136 779.122 137.131L776.59 137.218C776.232 136.884 775.916 136.626 775.558 136.254C771.588 132.548 781.226 131.257 783.775 130.516C776.615 124.538 763.411 121.572 748.175 119.829C732.939 118.086 715.693 118.256 700.335 117.439C695.567 117.334 692.485 121.551 687.765 121.713L681.065 119.062C676.313 119.523 671.528 119.533 666.774 119.092C657.777 115.559 644.741 115.238 631.337 115.392L627.5 115.523C629.697 114.603 632.265 113.323 634.793 111.969L636.166 111.691C638.718 110.64 641.03 109.084 642.963 107.116C644.464 106.065 645.434 105.225 645.459 104.84C641.545 102.746 631.634 102.779 621.311 103.134L623.751 102.589L622.216 102.642L621.006 103.221C612.717 103.506 604.13 104.07 597.981 104.013C594.188 102.583 590.296 101.432 586.336 100.571C578.969 98.6339 593.968 93.4694 597.751 91.7257C571.882 85.8142 511.907 101.477 463.42 112.671C457.361 114.147 453.69 118 448.548 120.406L432.49 121.611C427.041 121.798 421.686 122.481 416.443 123.084L401.127 124.61C395.959 122.943 395.167 118.898 396.921 114.035C399.846 114.226 402.783 114.047 405.663 113.504C403.284 113.585 401.403 113.65 400.757 112.75L421.678 106.614L402.232 109.818C400.657 110.521 399.131 111.331 397.666 112.242C402.232 101.98 416.084 89.1707 423.16 87.1217C424.327 86.4284 425.652 85.845 426.937 85.2245C414.58 85.6492 402.261 86.0725 390.067 86.7606L332.318 97.8895L286.02 109.048L262.849 114.57L251.418 117.345L245.625 118.696L239.842 120.355C243.853 118.565 247.91 117.004 251.968 115.443L264.136 110.645C267.916 108.824 271.931 107.15 276.026 105.587C293.412 99.1487 311.378 94.4011 329.675 91.4103C348.79 88.6402 369.344 87.4728 390.091 86.3371L422.549 79.42L455.172 73.9188L456.805 73.3632C449.859 73.6019 442.836 73.8433 435.852 74.0833C428.867 74.3234 421.79 74.1055 414.776 74.5771L372.849 76.5559L335.15 84.1526C322.566 86.9288 310.038 90.2025 297.46 93.1322L259.693 102.114C253.406 103.637 247.074 104.969 240.829 106.605L222.075 112.052C230.183 108.738 238.16 104.968 246.305 101.614C265.052 93.2109 284.772 87.1769 305.011 83.6516C310.353 82.5843 315.777 81.6679 321.318 80.7859C326.859 79.9039 332.402 79.0986 338.114 78.7102C349.607 77.7389 361.109 77.0363 372.845 76.4408C420.659 65.7686 468.171 58.6415 514.841 49.3533C498.954 49.8993 481.953 50.4836 464.966 51.4516C456.491 51.9349 448.057 52.4554 439.779 53.0856L427.482 54.123L421.469 54.6754L415.582 55.5693L369.265 63.9233L346.355 68.0917C338.722 69.5835 331.306 70.6836 323.884 72.7061C294.344 79.5997 265.219 86.2486 236.652 93.493C208.197 101.771 180.162 109.958 152.401 118.289L70.3911 146.811C58.9458 155.577 46.494 162.945 33.3004 168.756C18.5409 175.296 2.29805 181.156 -14.0705 186.713C-30.1851 192.953 -46.3421 199.08 -61.0764 205.234C-54.6097 207.817 -69.688 212.907 -68.9234 215.032C-75.8291 219.808 -83.0957 224.04 -90.6575 227.69C-98.2152 231.369 -106.145 235.407 -114.366 238.801C-130.683 245.855 -148.066 252.062 -165.2 258.837C-170.09 260.772 -170.968 258.689 -176.722 258.964C-195.596 278.823 -220.013 295.031 -247.337 309.379L-252.47 312.053L-257.595 314.957L-267.928 320.614C-274.87 324.349 -281.967 328.012 -289.141 331.678L-332.43 353.26C-346.306 362.036 -360.502 370.439 -375.449 378.214C-361.604 369.67 -347.094 361.449 -332.43 353.26C-316.307 343.908 -300.54 334.26 -285.097 324.124C-277.382 319.069 -269.708 313.939 -262.074 308.733L-256.373 304.695L-250.505 301.035L-238.807 293.717L-253.472 301.906C-258.375 304.571 -262.994 307.689 -267.775 310.542L-296.039 327.728C-314.858 339.132 -333.7 349.846 -351.645 362.066C-369.591 374.286 -388.03 385.562 -406.345 397.065C-424.131 409.472 -441.994 421.842 -460.168 434.109L-473.117 443.045L-479.456 447.527L-485.594 452.272C-493.751 458.623 -501.754 465.007 -509.679 471.427L-521.489 481.054L-532.671 491.082L-555.037 511.061C-562.493 517.695 -569.47 524.851 -576.493 531.816L-597.364 552.82C-610.974 567.08 -623.993 581.782 -637.176 596.182C-647.641 608.068 -658.655 619.627 -670.113 630.549C-675.961 635.898 -681.451 641.619 -687.182 647.041C-692.912 652.464 -698.678 657.964 -704.527 663.313C-703.627 660.439 -702.803 657.568 -702.133 654.702L-712.929 664.793L-718.209 669.893L-723.291 675.177C-729.99 682.247 -736.595 689.428 -743.106 696.721L-752.795 707.697C-755.888 711.607 -759.018 715.556 -762.072 719.504C-768.178 727.398 -774.17 735.288 -780.153 743.408L-786.649 752.276L-820.382 802.615L-836.167 827.401C-841.38 835.572 -846.83 843.559 -851.689 851.986L-866.82 876.788L-874.498 889.27L-881.738 902.198C-891.479 919.477 -901.947 936.857 -911.402 955.778C-916.23 965.088 -920.588 974.689 -924.879 983.981C-929.17 993.273 -932.586 1003.46 -936.956 1012.67C-941.399 1027.62 -918.3 1009.96 -927.001 1034.04C-925.845 1033.04 -924.587 1032.16 -923.249 1031.41C-917.744 1012.71 -914.233 995.257 -907.644 992.456C-896.194 990.218 -907.231 1025.71 -907.891 1050.1C-906.473 1051.5 -905.243 1053.09 -904.233 1054.81L-906.888 1061.4C-906.854 1062.39 -906.363 1063.26 -906.1 1064.21C-902.827 1064.89 -899.933 1066.78 -898.003 1069.51L-893.188 1057.58C-891.516 1053.68 -889.614 1049.78 -887.827 1045.87C-886.22 1050.82 -885.193 1055.95 -884.767 1061.14C-884.258 1067.06 -884.349 1073.03 -885.039 1078.93L-884.808 1078.93L-885.124 1079.82C-885.452 1082.56 -885.815 1085.42 -886.282 1088.58C-867.848 1066.01 -861.548 1068.21 -857.715 1079.11C-853.883 1090 -852.631 1109.67 -844.479 1123.26C-841.742 1118.5 -839.669 1113.39 -838.316 1108.07L-832.044 1110.58C-827.127 1101.61 -822.566 1093.46 -817.518 1086.07C-812.47 1078.67 -807.05 1072.03 -801.741 1065.54C-799.047 1062.3 -796.39 1059.14 -793.655 1055.97L-789.514 1051.25L-785.061 1046.68L-766.15 1027.9C-763.297 1025.28 -759.761 1023.52 -755.951 1022.82C-754.062 1022.25 -752.295 1021.33 -750.742 1020.11C-748.627 1018.47 -746.867 1016.42 -745.57 1014.09C-741.066 1006.52 -736.484 998.984 -731.9 991.488C-729.576 987.566 -727.356 983.955 -724.947 980.26L-717.642 969.251C-712.772 961.887 -707.903 954.483 -703.036 947.042C-698.339 939.503 -693.093 932.292 -688.438 924.64C-650.626 859.339 -604.654 799.118 -551.631 745.429C-551.917 745.451 -552.204 745.404 -552.469 745.293C-552.733 745.182 -552.967 745.009 -553.152 744.789C-540.106 731.969 -527.15 718.807 -513.128 706.453C-506.783 700.646 -501.093 694.163 -496.157 687.12C-491.031 680.169 -485.11 673.841 -478.517 668.264L-460.317 653.384C-454.224 648.449 -447.928 643.814 -441.601 638.986L-423.152 624.635C-417.095 619.778 -410.637 615.407 -404.42 610.736C-379.788 591.832 -353.701 575.029 -328.46 557.102C-315.981 547.913 -302.69 540.003 -289.644 531.678L-250.511 506.551C-237.229 498.41 -223.692 490.952 -210.287 482.999L-190.101 471.125L-179.972 465.129C-176.58 463.206 -173.067 461.472 -169.634 459.625C-162.07 451.541 -153.974 443.972 -145.4 436.969C-152.618 440.199 -160.012 443.018 -167.548 445.414C-161.77 438.682 -155.572 432.322 -148.992 426.373C-140.509 423.52 -132.1 420.375 -123.766 416.938C-119.482 415.254 -115.242 413.418 -110.999 411.658C-122.95 419.436 -134.448 427.887 -145.439 436.97C-138.225 433.746 -131.204 430.105 -124.413 426.066C-117.79 421.996 -111.629 417.942 -105.39 413.886C-99.1515 409.829 -93.9003 406.114 -88.3526 402.081L-79.9438 398.565C-76.6411 399.776 -73.2089 400.599 -69.7163 401.018C-77.9493 407.41 -86.0659 413.837 -94.4192 420.079L-51.2919 399.386L-29.7413 394.803C-21.0814 393.007 -12.1965 391.05 -3.70592 388.799C13.2778 384.373 28.8233 378.344 38.8905 370.545C48.4159 371.779 58.0979 370.425 66.9185 366.623C74.451 362.803 82.2996 359.641 90.3764 357.172L92.065 357.114C111.752 354.209 132.343 351.887 150.665 346.148L150.204 346.164C162.596 344.508 174.913 342.932 186.836 341.063C209.704 335.666 235.462 333.897 252.75 329.384C263.394 326.085 274.28 323.629 285.31 322.041C287.074 322.224 288.847 322.304 290.62 322.281L290.812 322.274C292.904 322.27 294.993 322.095 297.057 321.752C294.99 321.935 292.914 322.006 290.84 321.966L290.805 320.968C293.71 320.51 296.575 320.027 299.4 319.52L302.279 319.421L314.494 319.347C322.37 319.346 329.218 319.61 331.963 321.206C336.87 316.427 326.436 318.015 317.252 319.099C327.419 317.558 339.555 315.182 350.737 314.106C346.284 315.335 343.169 317.478 338.045 315.964C335.645 317.66 336.752 318.582 340.117 319.235C350.108 317.048 369.29 317.31 370.177 314.053C372.105 314.335 374.001 314.81 375.835 315.472L380.679 312.193L382.924 312.692C382.28 312.317 381.614 311.981 380.93 311.685C394.008 309.891 408.25 309.517 417.92 305.803L415.253 305.357L417.92 305.803C418.756 305.039 419.536 304.216 420.255 303.341C424.138 304.514 418.322 305.213 417.151 306.906C426.379 306.012 433.311 305.351 435.9 302.419L420.549 302.947C421.137 302.272 421.486 301.423 421.542 300.53C423.432 299.62 425.326 298.825 426.764 298.199L435.863 296.888C445.186 297.638 454.415 299.276 463.426 301.78L462.606 302.539C456.297 302.294 447.246 302.759 443.828 302.8L455.061 305.449L458.834 303.437C459.824 303.344 460.815 303.609 461.626 304.186C461.697 304.479 461.839 304.751 462.037 304.979C462.084 305.193 462.092 305.414 462.06 305.631L462.75 305.607L463.851 306.338L464.202 305.365L469.129 304.504C469.165 304.412 469.182 304.314 469.178 304.215C469.175 304.116 469.151 304.018 469.109 303.929C475.079 307.08 481.733 308.712 488.483 308.68C488.572 308.565 488.671 308.459 488.779 308.363C494.317 309.45 499.926 310.13 505.563 310.399C508.881 310.017 512.102 309.034 515.068 307.498L516.143 307.461C518.231 306.805 520.138 305.674 521.716 304.157C522.919 303.386 523.742 302.743 523.767 302.358C521.223 299.871 514.942 298.243 507.941 296.87L505.738 296.484L507.656 296.418L506.495 296.151L505.509 296.53C499.21 295.479 492.725 294.588 487.954 293.292C486.498 292.151 484.973 291.1 483.389 290.144C503.89 287.442 524.219 285.322 545.478 284.553C580.997 279.49 615.318 273.085 650.289 266.619C657.619 265.253 664.552 263.517 671.21 261.597C677.868 259.678 684.291 257.651 690.633 255.474C702.781 251.214 714.623 246.965 727.245 243.073C731.9 243.259 736.476 243.371 741.014 243.484C753.298 243.354 765.576 244.126 777.747 245.795C777.93 244.405 778.484 243.771 782.613 246.511L777.747 245.795C777.482 247.033 777.51 248.953 775.182 249.418C794.252 249.533 813.301 250.7 832.242 252.912C835.172 250.968 838.059 248.87 840.72 246.935C816.565 243.923 792.498 240.139 769.375 238.091C747.382 236.631 725.294 237.738 703.558 241.39C708.572 241.948 713.232 242.287 717.815 242.591C678.51 248.98 638.91 253.393 599.164 255.813C594.098 255.987 589.109 256.158 584.159 256.328C583.564 256.181 582.956 256.099 582.344 256.083L568.787 255.128L573.507 254.965C576.616 254.859 579.264 253.653 579.475 251.956C579.432 251.574 579.3 251.209 579.089 250.889C578.877 250.568 578.593 250.303 578.259 250.115C589.712 247.992 601.16 245.716 612.29 243.105C615.398 242.943 618.468 242.346 621.411 241.332L660.927 244.123L664.171 244.588C667.874 245.117 671.638 244.204 674.687 242.037C675.284 241.572 675.73 240.942 675.97 240.225C704.453 237.248 733.432 235.292 760.621 230.438C762.041 230.39 763.615 230.336 765.335 230.084L764.02 229.822L764.902 229.792C766.353 229.512 767.137 228.87 766.918 228.071C767.522 228.29 768.176 228.334 768.805 228.198C769.188 228.185 769.604 227.978 769.984 227.85C773.594 229.069 777.355 229.78 781.16 229.963L781.496 229.683C786.996 231.095 792.591 232.11 798.237 232.719C801.6 232.544 804.897 231.727 807.952 230.31L809.026 230.273C811.161 229.742 813.141 228.713 814.802 227.27C816.084 226.573 816.908 225.968 816.971 225.543C814.258 222.64 806.966 220.624 799.181 218.816L801.1 218.75L799.974 218.405L798.947 218.709C792.711 217.271 786.212 215.958 781.552 214.543L781.928 214.299C789.603 214.036 797.279 213.772 804.942 213.163C806.707 213.102 808.185 212.513 808.192 211.591C808.199 210.669 806.712 209.874 804.941 209.782C800.62 209.277 796.303 208.849 791.985 208.421C794.732 206.751 797.403 205.084 799.995 203.382L795.481 202.845C798.806 202.308 801.251 200.803 801.528 198.795C801.544 198.363 801.464 197.933 801.293 197.535C805.792 198.785 810.478 199.222 815.13 198.827L815.399 198.818C814.059 197.315 812.251 196.307 810.267 195.959C812.493 194.223 814.623 192.367 816.647 190.399C811.425 189.388 806.128 188.417 800.87 187.483C814.33 187.828 827.801 188.517 841.321 189.513C842.204 189.482 843.001 189.224 843.023 188.724C843.044 188.224 841.98 187.454 840.981 187.45ZM-833.276 986.404L-830.823 985.129C-832.148 990.169 -833.512 995.211 -834.961 999.986C-835.874 995.395 -835.283 990.633 -833.276 986.404ZM-790.354 931.792L-793.963 938.563L-797.261 945.477L-803.86 959.151C-808.236 968.215 -812.894 976.905 -817.251 985.392C-821.608 993.879 -825.704 1002.17 -830.173 1009.62C-830.675 1009.3 -831.128 1008.92 -831.519 1008.47L-819.413 979.511C-814.933 970.098 -810.413 960.76 -805.881 951.767C-803.615 947.271 -801.308 942.85 -798.997 938.544C-796.686 934.238 -793.98 930.265 -791.502 926.338C-786.719 918.9 -781.513 911.742 -775.91 904.901L-790.354 931.792ZM-661.09 830.49L-661.955 829.905L-660.881 829.868C-660.967 830.095 -661.036 830.329 -661.087 830.567L-661.09 830.49ZM465.254 302.448L465.241 302.064L466.797 302.625L465.254 302.448ZM759.548 222.676L757.847 222.389L758.026 221.998L759.548 222.676ZM755.34 222.09C754.111 222.133 752.718 221.835 751.486 221.762L755.923 221.187L756.422 221.17C756.088 221.507 755.726 221.815 755.34 222.09ZM189.772 230.846C189.779 231.038 189.786 231.23 189.791 231.384L181.431 232.977C184.325 232.225 186.952 231.52 189.772 230.846ZM270.51 158.606C266.658 158.316 268.805 157.051 266.597 156.551C263.519 157.54 260.284 158.42 256.93 159.226C254.54 159.001 252.149 158.738 249.725 158.629L252.722 157.527L257.774 155.816C262.858 156.18 267.976 156.426 273.164 156.44C272.165 157.01 271.268 157.742 270.51 158.606ZM251.421 155.42L240.528 158.215C239.876 158.237 239.223 158.26 238.571 158.282C236.153 158.365 233.697 158.45 231.241 158.534C235.799 157.046 240.44 155.822 245.139 154.867L252.111 155.396L251.421 155.42ZM25.8818 307.289C36.1857 301.902 45.7565 296.425 55.1406 291.107C60.6086 290.343 66.0355 289.503 71.3871 288.705C56.5098 295.171 41.434 301.453 25.9202 307.288C23.0115 308.733 20.1503 310.445 17.2482 312.081C8.51768 317.414 -6.18583 319.994 -15.5658 323.198C-1.20738 318.402 12.3915 312.748 25.8818 307.289ZM733.251 140.59C734.437 140.012 735.773 139.818 737.074 140.036L737.765 140.012L733.251 140.59ZM132.73 308.381L124.036 312.522C115.36 314.972 101.067 314.964 98.0035 316.375C85.2026 320.657 72.5183 323.86 60.1293 326.706C63.3412 325.136 66.5146 323.567 69.5716 321.963L38.3551 331.489C28.3787 333.615 18.5299 336.301 8.85523 339.533C0.86881 341.921 -7.08584 344.116 -15.0417 346.272L25.8556 327.769C47.2008 319.298 68.0837 309.705 88.4167 299.031C103.274 291.605 118.66 284.672 134.576 278.234C141.713 276.836 148.847 275.362 155.935 273.658C163.826 271.85 171.636 269.929 179.368 267.973C185.921 266.339 192.37 264.683 198.715 263.005C201.026 264.871 203.446 266.597 205.963 268.173L203.983 268.702C194.848 271.206 185.743 273.479 176.94 276.701C141.596 289.097 107.551 301.293 76.784 318.296C74.5224 319.564 71.992 320.842 69.5755 322.078L92.8374 314.747C100.44 312.373 108.22 309.569 116.106 307.608L162.874 294.474L186.245 288.062C194.05 285.988 201.944 284.295 209.793 282.373L222.063 279.415L224.379 280.834C213.465 284.129 202.474 287.389 191.6 290.721C179.605 294.975 167.687 299.227 155.817 303.784C148.033 305.358 140.215 307.048 132.73 308.381ZM243.493 289.206L249.123 287.553L251.886 287.458L256.48 286.993C254.159 288.593 252.112 290.557 250.417 292.81C243.059 293.332 235.639 294.317 227.988 295.31C222.139 296.164 216.097 296.987 209.815 297.548C221.05 294.665 232.487 292.043 243.493 289.206ZM720.328 189.368C725.171 189.432 730.093 189.57 735.017 189.747C742.969 190.088 751.042 190.566 759.234 191.181C742.535 190.487 725.777 190.295 709.062 190.254L720.328 189.368ZM691.162 190.37L688.245 190.47C691.085 190.373 693.955 190.044 696.87 189.905L691.162 190.37ZM36.182 242.541C31.5251 244.545 26.9501 246.701 22.3713 248.741C14.9908 249.217 7.67246 250.395 0.515264 252.258C-2.57341 252.941 -5.73354 253.779 -8.93204 254.619C2.26589 247.086 13.8368 240.123 25.7368 233.756C28.3511 237.583 31.9635 240.621 36.182 242.541ZM795.815 147.699L795.393 147.714L796.506 147.675L795.815 147.699ZM-481.777 505.201C-479.076 499.713 -475.803 494.526 -472.012 489.727C-467.202 483.783 -462.033 478.139 -456.532 472.828C-433.083 449.699 -401.218 424.398 -382.805 414.621C-371.487 408.546 -359.614 401.875 -347.796 394.707C-341.848 391.122 -335.905 387.421 -329.966 383.605C-323.862 380.091 -317.724 376.461 -311.627 372.755C-299.395 365.342 -287.215 357.547 -275.31 349.53C-269.353 345.483 -263.448 341.438 -257.593 337.395C-251.738 333.351 -243.829 327.585 -238.087 323.623C-231.226 327.613 -231.687 334.314 -234.311 339.591C-236.095 342.751 -238.432 345.564 -241.21 347.897C-242.969 349.411 -244.806 350.834 -246.712 352.159C-248.732 353.727 -250.903 355.415 -253.265 357.11C-264.812 365.133 -276.795 372.51 -289.16 379.206C-296.204 383.29 -303.717 387.16 -311.483 391.5C-315.253 393.589 -319.41 395.614 -323.368 397.825L-335.268 404.842C-351.313 414.231 -367.921 423.984 -383.989 433.834L-395.915 441.198C-399.668 443.786 -403.416 446.528 -407.164 449.269C-414.665 454.599 -421.629 459.91 -428.249 465.17C-440.272 474.381 -451.489 484.6 -461.778 495.715L-481.777 505.201ZM-501.176 651.753C-513.79 663.713 -525.68 676.608 -538.316 689.03L-545.728 696.969C-548.248 699.668 -550.646 702.555 -553.122 705.407C-558.035 711.147 -562.981 717.041 -567.887 722.973C-577.853 734.842 -586.801 747.252 -595.087 758.794C-597.874 762.509 -600.869 766.063 -604.058 769.438L-613.694 779.72C-614.447 779.601 -615.207 779.524 -615.969 779.491L-610.548 772.888L-604.85 766.507C-601.078 762.228 -597.385 757.9 -593.77 753.524C-588.788 745.323 -586.764 733.803 -583.612 730.468C-577.618 721.8 -570.949 713.618 -563.667 706L-551.923 693.34C-547.795 689.356 -543.565 684.984 -539.488 680.656C-533.009 672.357 -525.522 664.898 -517.198 658.451C-509.08 652.063 -500.388 645.617 -492.459 638.198C-490.923 638.24 -489.385 638.188 -487.854 638.04C-492.118 642.528 -496.65 647.063 -501.26 651.563L-501.176 651.753ZM662.297 229.207L658.92 229.323C660.523 228.999 661.546 228.58 661.83 227.917L662.022 227.91C663.565 228.278 665.074 228.779 666.531 229.407L662.297 229.207ZM668.015 229.011L672.5 226.474L674.75 227.089C674.16 226.686 673.494 226.325 672.789 225.926C686.054 225.086 700.368 225.709 710.33 222.677L707.695 222.037L710.33 222.677C711.226 221.963 712.072 221.189 712.863 220.361C716.525 221.811 710.772 222.124 709.443 223.706C718.807 223.384 725.791 223.144 728.542 220.437L713.154 219.89C713.785 219.287 714.191 218.487 714.306 217.622C721.507 218.105 728.707 218.549 735.981 218.914C739.819 218.782 743.657 218.65 747.503 218.787L750.606 219.641C746.051 220.143 741.538 220.721 737.025 221.337L736.603 221.351L736.795 221.345C714.269 224.386 692.011 228.493 667.936 228.936L668.015 229.011ZM766.344 227.014C765.332 226.413 764.142 226.182 762.979 226.362C755.303 226.625 747.639 227.196 739.977 227.844C738.864 227.882 737.674 227.923 736.638 227.959L730.662 228.471C728.057 227.39 725.151 227.271 722.467 228.138L725.912 228.903L719.17 229.481C704.692 230.785 690.216 232.167 675.473 232.481C689.94 229.717 704.737 227.633 720.352 225.867C727.815 224.996 735.04 223.941 742.228 222.925L747.507 224.473L751.287 222.691C752.292 222.653 753.276 222.989 754.048 223.633C754.104 223.913 754.232 224.173 754.42 224.389C754.469 224.616 754.477 224.85 754.443 225.08L755.134 225.056C755.471 225.336 755.827 225.593 756.198 225.826L756.627 224.889L761.601 224.296C761.674 224.226 761.731 224.141 761.768 224.047C761.804 223.953 761.82 223.851 761.813 223.751C763.456 224.616 765.061 225.483 766.895 226.304C766.751 226.358 766.619 226.443 766.51 226.553C766.401 226.663 766.317 226.795 766.264 226.94L766.344 227.014Z" fill="#00C1DE"/>
<path d="M324.366 295.802L327.572 295.192C324.469 294.338 324.257 294.883 324.366 295.802Z" fill="#66C1DF"/>
<path d="M65.973 268.681C74.5252 263.007 83.595 258.154 93.0613 254.188C94.778 251.593 97.1246 248.323 100.4 244.138L97.7338 244.806L53.0911 265.013C47.4987 268.277 42.226 272.06 37.3425 276.312C46.8521 273.526 56.5362 271.349 65.973 268.681Z" fill="#66C1DF"/>
<path d="M93.0613 254.188C78.46 276.513 112.57 247.216 93.0613 254.188V254.188Z" fill="#66C1DF"/>
<path d="M472.291 311.542C480.442 312.837 486.467 311.516 494.383 312.665C494.351 311.744 494.759 311.308 495.812 312.885L494.383 312.665C494.181 313.479 494.032 314.752 493.278 315.162C499.004 314.293 504.813 314.093 510.585 314.568C511.651 313.148 512.678 311.729 513.665 310.274C499.35 308.499 485.11 305.569 472.291 311.542Z" fill="#66C1DF"/>
<path d="M516.672 301.603L518.139 301.821C517.087 300.282 516.872 300.712 516.672 301.603Z" fill="#66C1DF"/>
<path d="M266.419 322.421C271.975 320.847 277.84 319.339 284.094 317.972C284.062 317.051 284.044 316.513 287.299 317.324L284.094 317.972C284.123 318.816 284.626 320.028 283.309 320.842C291.244 318.072 300.294 315.34 309.551 313.024L310.817 312.981C315.558 312.28 320.306 311.809 325.054 311.339L339.369 309.771C332.66 311.308 325.989 312.843 319.323 314.533C312.658 316.222 306.128 318.521 299.596 320.743C295.813 322.448 292.026 324.077 288.238 325.629C295.894 324.828 303.545 323.835 311.192 322.765L317.003 321.912L322.784 321.329L334.267 320.051L353.331 315.784C359.74 314.45 366.199 313.459 372.688 312.237L411.968 304.779C414.985 304.252 417.97 303.919 420.919 303.626C397.345 299.827 373.468 298.242 349.6 298.892C338.168 299.518 326.801 301.013 315.597 303.365C307.216 305.536 299.026 308.388 291.108 311.891C286.379 312.898 281.653 314.021 277.085 315.254L269.133 317.525C266.224 317.856 263.351 318.108 260.439 318.324C254.4 319.898 248.753 322.709 243.855 326.578C241.398 327.738 238.902 328.9 236.602 330.17L240.225 329.392L237.645 331.44C245.499 328.558 253.534 326.476 261.137 324.101L266.419 322.421Z" fill="#66C1DF"/>
<path d="M203.122 355.449C213.817 356.964 221.763 352.311 229.393 346.247C221.213 348.603 213.138 350.648 205.148 352.92C204.485 353.75 203.897 354.538 203.122 355.449Z" fill="#66C1DF"/>
<path d="M213.397 344.76C222.929 343.741 230.367 337.684 237.912 331.393C229.123 334.61 220.862 339.115 213.397 344.76Z" fill="#66C1DF"/>
<path d="M414.983 203.589C419.652 201.091 424.666 199.3 429.861 198.275C431.177 196.308 432.938 193.904 435.294 190.903L433.989 190.948C426.102 192.871 418.168 194.527 410.229 196.068C406.913 197.525 403.811 199.428 401.01 201.725C405.675 202.18 410.358 203.171 414.983 203.589Z" fill="#66C1DF"/>
<path d="M429.861 198.274C418.532 215.185 439.859 197.393 429.861 198.274V198.274Z" fill="#66C1DF"/>
<path d="M373.177 289.552L377.222 288.76L376.224 288.794L373.177 289.552Z" fill="#66C1DF"/>
<path d="M293.389 245.228C299.532 244.408 305.613 243.172 311.589 241.529C299.169 243.492 286.673 245.459 276.585 250.416C278.12 250.363 279.745 251.806 281.28 251.753C284.343 248.122 288.671 245.789 293.389 245.228Z" fill="#66C1DF"/>
<path d="M408.653 275.423L399.632 274.542C398.205 274.361 396.781 274.294 395.316 274.153C385.712 276.442 375.914 278.661 365.641 280.474C373.858 278.092 382.298 275.855 390.961 273.764C374.033 272.002 356.189 268.159 339.426 273.422C334.615 275.538 329.617 277.202 324.498 278.392C321.834 279.137 319.167 279.805 316.466 280.589C313.765 281.374 311.191 282.499 308.619 283.664C308.404 284.237 308.219 284.82 308.064 285.412C307.258 285.439 306.483 285.236 305.712 285.185C304.479 286.254 303.312 287.397 302.218 288.609L286.35 294.188L280.993 295.947L285.673 290.139L287.257 289.277C292.92 286.217 299.325 284.799 305.751 285.184C306.389 284.561 307.184 284.122 308.051 283.914L308.657 283.662C309.387 281.697 310.588 279.941 312.154 278.548C313.721 277.154 315.605 276.166 317.642 275.669C321.836 274.799 326.127 274.483 330.404 274.731C328.917 271.709 333.426 273.244 333.439 270.247C342.534 264.363 351.819 258.396 359.774 253.973C372.309 248.663 384.461 252.318 395.891 243.934C399.25 241.052 405.353 243.109 410.122 242.138C412.256 240.915 414.464 239.826 416.733 238.876C414.48 238.134 412.224 237.327 409.965 236.457C408.45 234.857 450.693 230.908 449.958 225.17C449.946 224.825 447.862 224.551 444.216 224.676L429.557 225.18C417.775 225.585 403.065 225.744 390.879 225.548C386.411 220.746 396.504 203.647 399.912 202.185L401.143 201.106L390.1 199.526C384.146 200.691 378.19 201.779 372.232 202.829C367.461 203.723 362.642 204.388 357.835 205.36L343.451 208.314C346.021 207.073 348.627 205.754 351.225 204.204C352.428 203.384 353.687 202.648 354.991 202C365.453 196.723 377.553 197.767 390.018 199.375C396.775 198.105 403.557 196.45 410.28 195.297L410.808 195.01L398.171 194.023L385.542 192.113C377.704 193.612 369.89 195.033 362.098 196.377L338.59 201.027C341.2 199.823 343.767 198.505 346.409 197.108C351.915 193.439 358.302 191.309 364.908 190.94C371.806 190.61 378.72 190.99 385.541 192.075C392.946 190.668 400.379 188.952 407.744 187.47C415.108 185.987 422.472 184.505 429.793 182.87C425.012 182.381 419.847 181.905 414.726 181.582C409.714 181.164 404.675 181.183 399.667 181.638C380.284 184.456 361.883 186.779 344.008 190.966L317.577 196.639C308.889 198.743 300.248 201.077 291.643 203.37C288.212 206.851 284.033 209.504 279.423 211.129C277.003 211.937 274.537 212.599 272.037 213.112C269.524 213.774 266.968 214.285 264.41 214.757C259.294 215.701 254.133 216.455 249.406 217.539C251.234 220.435 246.444 220.792 246.572 222.286C242.198 225.47 237.083 227.484 231.712 228.137C226.439 228.971 220.919 229.353 215.407 229.965C213.834 230.019 213.673 228.68 211.908 227.627C205.676 234.818 197.292 239.809 187.999 241.857C178.72 244.213 169.268 245.822 159.733 246.671C154.93 247.952 150.021 248.79 145.065 249.173C149.907 248.08 154.803 247.245 159.733 246.671C170.61 243.486 181.178 239.329 191.311 234.251C178.318 238.54 165.824 242.811 153.307 246.392C147.026 248.106 140.833 250.125 134.595 251.953C128.356 253.781 122.077 255.534 115.562 257.141C103.716 260.447 92.2231 264.909 81.2489 270.461C75.7851 273.211 70.4237 275.956 65.1647 278.698L49.6532 287.953C41.3258 292.364 32.3548 295.434 23.0709 297.05C25.0267 289.647 29.212 283.025 35.0595 278.081C35.6921 277.483 36.4002 276.844 37.1109 276.281L14.2633 282.254L-2.8041 289.833L-19.8214 297.756C-28.9765 301.913 -38.1699 306.071 -47.3145 310.535L-74.7891 323.85C-70.1294 320.809 -65.4723 317.69 -60.8947 314.498C-58.7626 312.811 -56.4757 311.157 -54.1465 309.617C-44.2399 303.165 -33.6164 297.887 -22.4901 293.89C-16.6884 291.655 -10.6871 289.643 -4.57181 287.588C1.54342 285.534 7.86765 283.972 14.2633 282.254C27.1689 276.546 39.9078 270.461 52.706 264.988L53.6456 264.379L2.17148 278.097C-12.6211 284.791 -27.4363 291.947 -42.3759 298.839C-57.3155 305.73 -72.1174 313.27 -87.0478 320.43C-82.351 317.348 -77.7323 314.231 -73.0779 311.036C-53.7083 295.54 -26.5134 286.383 2.17411 278.174L44.2058 259.132C58.1342 253.006 71.8629 246.655 85.4407 240.387C75.7697 242.948 65.4622 245.992 55.234 249.11C45.0058 252.227 34.8187 255.421 25.5711 259.12C-44.7265 287.916 -112.899 321.651 -178.434 360.071C-184.676 366.935 -191.778 372.964 -199.564 378.009C-203.886 380.809 -208.517 383.581 -213.269 386.165C-218.022 388.749 -222.759 391.755 -227.627 394.342C-237.273 399.861 -247.083 405.077 -255.851 410.45C-251.435 411.49 -260.488 416.373 -259.751 417.692C-267.792 425.292 -276.757 431.848 -286.437 437.205C-296.301 443.077 -306.667 448.889 -316.99 454.853C-319.928 456.568 -320.818 455.254 -324.367 455.952C-329.78 463.254 -335.834 470.058 -342.456 476.284C-349.538 482.848 -357.028 488.957 -364.881 494.575C-372.814 500.726 -381.217 506.662 -389.856 512.415L-402.89 521.085L-415.718 530.171C-423.98 536.833 -432.601 543.123 -441.571 549.31C-433.383 542.727 -424.569 536.469 -415.718 530.171C-410.968 526.396 -406.377 522.473 -401.784 518.627C-397.19 514.78 -392.516 511.047 -387.96 507.202C-383.405 503.357 -378.899 499.206 -374.418 495.44L-367.708 489.447L-360.875 483.679C-406.908 519.341 -448.961 554.52 -491.621 592.179C-496.689 596.733 -501.605 601.282 -506.519 605.869C-511.432 610.457 -515.914 615.336 -520.517 620.028C-525.12 624.72 -529.485 629.634 -533.97 634.399C-538.455 639.164 -542.747 643.96 -546.838 649.019C-555.102 658.985 -563.199 668.945 -571.131 678.9L-593.663 709.681C-595.207 711.732 -596.755 713.63 -598.333 715.797L-602.961 721.988C-606.091 725.938 -609.336 729.892 -612.62 733.847C-615.903 737.802 -619.302 741.761 -622.75 745.414L-627.932 751.125L-632.919 756.944C-632.563 755.011 -632.245 753.079 -632.044 751.112C-640.395 760.774 -648.358 770.538 -656.006 780.56C-663.653 790.581 -670.349 801.454 -677.267 812.565L-680.901 818.607C-694.117 842.114 -706.669 863.715 -718.316 885.9L-727.393 902.388L-735.991 919.397C-741.745 930.852 -748.192 942.254 -753.801 954.588C-756.666 960.641 -759.181 966.837 -761.695 973.071L-769.278 991.658C-771.706 1001.5 -757.088 989.741 -762.037 1005.59C-761.315 1004.94 -760.538 1004.36 -759.715 1003.85C-758.121 997.691 -757.097 991.701 -755.525 987.151C-753.952 982.602 -752.296 979.356 -750.101 978.397C-746.284 977.651 -746.101 982.985 -747.033 990.51C-748.165 999.006 -748.833 1007.56 -749.035 1016.13C-748.07 1017.02 -747.233 1018.04 -746.548 1019.16C-746.548 1019.16 -747.325 1021.14 -748.322 1023.44C-748.3 1024.09 -747.935 1024.66 -747.76 1025.27C-745.597 1025.71 -743.678 1026.95 -742.377 1028.73L-735.92 1013.14C-733.337 1020.04 -732.565 1027.49 -733.678 1034.77L-733.89 1035.32C-734.097 1037.13 -734.334 1039.18 -734.691 1041.07C-722.214 1026.27 -718.016 1027.66 -715.696 1034.81C-713.376 1041.95 -712.624 1054.87 -706.661 1064.04C-704.727 1060.89 -703.117 1057.56 -701.855 1054.08L-697.65 1055.7C-691.819 1045.09 -685.221 1034.91 -677.911 1025.25C-670.756 1016.55 -663.117 1008.53 -654.746 999.441C-650.797 994.733 -645.636 997.322 -641.407 989.569C-635.798 979.13 -630.069 968.816 -624.221 958.625C-617.997 948.537 -611.93 938.378 -606.57 927.781C-596.829 908.236 -586.221 889.352 -574.858 871.173C-573.439 869.971 -572.093 868.888 -570.818 867.999C-570.225 871.82 -573.637 874.281 -577.09 876.667L-570.221 871.936C-571.799 875.368 -573.583 878.701 -575.565 881.917C-576.618 883.682 -577.748 885.45 -578.916 887.257L-582.256 892.905C-586.798 900.514 -591.756 908.292 -595.775 915.423C-603.268 929.935 -606.746 941.657 -596.809 942.353C-594.057 942.334 -591.338 941.758 -588.814 940.661C-586.29 939.564 -584.013 937.969 -582.121 935.97C-579.598 933.584 -577.271 930.999 -575.164 928.239C-572.805 925.315 -570.108 922.187 -567.614 918.72C-562.469 911.935 -557.667 904.085 -552.357 896.488C-547.047 888.89 -541.347 881.471 -536.157 874.838C-537.011 890.235 -544.115 903.773 -550.747 917.602L-556.119 927.892C-557.02 929.613 -557.921 931.335 -558.784 933.055C-559.647 934.775 -560.316 936.565 -561.062 938.32C-564.099 945.122 -566.543 952.173 -568.368 959.395C-562.205 954.266 -554.953 952.864 -550.017 944.434C-548.379 941.803 -546.895 939.14 -545.139 936.582L-539.832 928.907L-529.287 913.753C-524.087 902.97 -521.898 891.752 -508.59 886.569C-507.956 885.718 -507.279 884.899 -506.561 884.117C-506.098 881.95 -507.038 879.177 -506.067 877.261C-499.791 869.822 -494.225 870.784 -492.261 859.728C-491.806 859.948 -491.399 860.255 -491.063 860.632C-490.727 861.01 -490.469 861.45 -490.303 861.927C-490.08 858.347 -485.382 855.303 -485.883 850.787C-484.083 851.829 -482.141 852.604 -480.118 853.086C-476.426 848.733 -472.463 844.409 -468.617 840.05C-464.771 835.692 -460.609 831.591 -456.683 827.307L-444.907 814.454C-440.746 810.315 -436.651 806.114 -432.623 801.852C-427.879 796.771 -423.329 791.659 -418.422 786.879C-414.854 782.107 -410.98 777.572 -406.824 773.302C-404.949 770.856 -406.505 765.838 -406.336 764.026C-398.342 760.226 -390.681 755.76 -383.435 750.675C-383.498 748.833 -381.312 746.491 -380.821 742.901C-378.38 742.923 -375.943 742.711 -373.542 742.267C-364.941 734.287 -356.657 726.049 -347.816 718.33L-348.173 717.996C-343.861 713.471 -339.258 709.231 -334.394 705.305C-329.153 701.283 -323.682 697.252 -318.671 693.238C-314.572 689.832 -310.682 686.183 -307.021 682.31L-294.007 675.293C-295.761 674.181 -297.327 672.795 -298.643 671.188C-299.222 673.028 -300.397 674.623 -301.984 675.721C-300.229 672.996 -299.028 669.952 -298.449 666.762C-292.66 667.157 -286.847 666.475 -281.306 664.752C-270.228 657.301 -259.392 649.514 -247.676 642.733C-247.74 640.853 -249.548 639.685 -250.549 638.49C-244.621 636.596 -238.328 635.227 -232.237 633.596C-222.812 628.354 -213.068 623.447 -203.207 618.575C-201.367 616.352 -199.788 613.926 -198.499 611.344C-196.179 612.472 -193.641 613.08 -191.061 613.124L-179.704 608.2C-174.558 605.91 -167.493 602.402 -159.46 598.014C-155.425 595.801 -151.205 593.389 -146.837 590.818L-133.159 582.971C-132.426 580.833 -131.91 579.086 -131.027 579.056C-125.732 576.355 -120.285 573.961 -114.714 571.887C-106.088 566.865 -97.8856 561.819 -90.7816 557.233C-83.6776 552.647 -77.3941 548.781 -73.1619 545.6C-68.4861 540.791 -77.2949 537.136 -87.4747 533.836C-97.6545 530.536 -109.037 528.007 -109.169 524.169C-108.003 510.029 -100.255 502.923 -89.5849 495.91C-84.2899 492.347 -78.2924 489.105 -71.5536 485.07C-64.2599 480.654 -57.3747 475.595 -50.9798 469.955C-42.8898 463.875 -59.1233 468.89 -61.1356 465.117C-60.6073 462.394 -59.6606 459.77 -58.3293 457.337C-52.1015 454.087 -45.9544 450.725 -39.8523 447.173L-42.6604 448.192C-48.0587 450.681 -53.2166 453.662 -58.0687 457.097C-54.0555 449.774 -47.3799 442.783 -42.7899 435.479C-38.2749 436.054 -33.6342 436.931 -28.5304 437.87C-25.4471 438.148 -22.9916 443.635 -19.2835 441.971C-14.3646 439.766 -9.32256 437.786 -4.12439 435.879C0.932016 434.173 5.83313 432.038 10.5253 429.497C15.5348 426.2 20.4216 423.061 25.1859 420.079C30.1142 417.028 35.1775 414.549 40.2725 411.877C50.205 406.608 60.4351 401.92 70.9112 397.837C70.6749 397.581 70.5059 397.27 70.419 396.932L86.0598 391.438C87.4316 390.99 88.7099 390.295 89.8315 389.387C98.7189 387.507 107.542 385.974 116.344 384.98C108.013 385.483 99.7199 386.499 91.5136 388.023C93.6607 385.732 96.3291 383.993 99.2924 382.953C108.322 380.722 117.197 378.496 125.938 375.698C130.308 374.28 134.728 373.206 139.105 372.018L152.273 368.338L165.392 364.391C169.765 363.05 174.184 361.976 178.598 360.71C187.429 358.293 196.21 355.571 205.225 352.917C207.682 349.972 210.45 347.301 213.481 344.949C211.141 345.216 208.777 345.181 206.446 344.845C211.236 338.411 217.304 333.036 224.269 329.056C231.24 324.92 238.688 321.645 246.448 319.304C261.921 314.507 277.576 310.55 288.976 304.625C302.099 297.956 316.218 293.461 330.782 291.316C338.118 290.142 345.621 289.346 353.25 288.854C360.879 288.361 368.613 288.671 376.305 288.906C383.913 286.686 392.061 284.523 400.144 282.708C408.226 280.894 416.489 279.841 424.828 278.748C417.21 280.7 409.392 282.39 401.529 283.89L377.305 288.949C385.542 289.357 393.925 289.569 402.223 290.667L427.27 293.917C436.658 293.189 446.093 293.353 455.45 294.409L469.512 295.539L483.834 296.392C488.5 295.77 492.871 296.619 496.362 294.232C499.165 290.832 502.007 287.43 504.617 283.997C498.69 283.512 492.728 283.717 486.849 284.608C487.603 284.198 487.753 282.963 487.916 282.112C479.762 280.74 473.486 282.608 465.07 281.437C471.574 278.471 478.695 277.106 485.835 277.458C492.988 277.673 500.33 278.881 507.739 279.817C508.836 278.204 509.894 276.554 510.835 274.87C503.311 272.823 495.685 271.164 487.954 269.816C484.128 269.09 480.262 268.594 476.377 268.331C472.522 267.964 468.671 267.713 464.822 267.499C456.97 267.103 449.129 267.014 441.299 267.232C433.468 267.45 425.656 268.205 417.863 269.497C412.187 270.922 406.428 272.157 400.743 273.313C403.139 273.73 405.855 274.482 408.653 275.423ZM-701.433 982.526C-702.174 979.525 -701.932 976.365 -700.744 973.512L-699.161 972.612C-699.855 975.902 -700.585 979.231 -701.433 982.526ZM-674.084 936.48L-681.978 954.963C-684.614 961.008 -687.331 966.903 -690.135 972.532C-692.938 978.161 -695.244 983.735 -697.992 988.747C-698.35 988.563 -698.671 988.313 -698.939 988.011C-696.469 981.625 -694.314 975.02 -691.693 968.552C-689.072 962.084 -686.323 955.995 -683.572 949.946C-680.822 943.896 -678.058 938.23 -675.175 932.675C-672.245 927.658 -669.011 922.825 -665.491 918.203C-668.358 924.219 -671.533 930.206 -674.087 936.403L-674.084 936.48ZM-228.214 525.955C-236.221 531.072 -244.112 536.261 -251.999 541.527C-249.584 539.138 -247.248 536.676 -244.912 534.213C-239.36 531.41 -233.768 528.682 -228.214 525.955C-225.886 524.377 -223.517 522.874 -221.148 521.371C-222.306 522.333 -223.427 523.255 -224.508 524.214L-228.214 525.955ZM108.507 285.508L112.03 284.042C110.259 286.409 109.04 289.142 108.463 292.041C107.357 290.306 106.707 288.319 106.574 286.266L108.507 285.508ZM-70.4466 421.138L-77.0225 424.322C-77.168 422.602 -77.8324 420.966 -78.928 419.631C-80.0236 418.297 -81.4986 417.326 -83.1578 416.849L-81.3461 415.903L-69.6131 410.735C-69.5385 414.222 -69.8177 417.707 -70.4466 421.138ZM-281.052 553.629L-263.517 543.997C-258.391 541.131 -253.22 538.418 -248.009 535.78C-255.833 541.774 -263.424 547.836 -270.433 554.071C-279.217 560.084 -287.974 566.136 -296.704 572.225C-292.052 565.696 -286.922 559.523 -281.355 553.754L-281.052 553.629ZM-77.6882 355.763L-77.1416 356.013L-76.8188 356.463L-84.403 359.375L-77.6882 355.763ZM-188.36 469.259L-193.485 473.277C-198.419 477.289 -207.193 480.242 -213.013 483.054C-204.402 478.724 -196.185 474.1 -188.243 469.293L-178.491 461.274C-172.832 458.236 -167.107 455.273 -161.315 452.385C-170.261 458.148 -179.252 463.721 -188.36 469.259ZM-213.652 443.233L-219.354 448.347C-224.247 450.206 -229.176 452.104 -234.066 454.04L-230.343 450.569C-227.843 448.409 -225.421 446.212 -222.884 444.012C-219.895 443.794 -216.707 443.761 -213.641 443.54L-213.652 443.233ZM-220.855 516.481L-220.066 515.955C-212.553 510.971 -205.317 505.766 -197.941 501.247C-190.566 496.729 -183.62 492.034 -177.012 487.542C-173.709 485.277 -170.519 483.054 -167.445 480.835C-164.371 478.616 -161.322 476.783 -158.52 474.458C-165.702 477.894 -172.759 481.594 -179.817 485.295L-201.19 496.172C-209.105 500.976 -216.52 506.56 -223.324 512.839C-227.051 516.195 -230.547 519.542 -234.003 522.965C-243.899 527.916 -253.878 532.677 -263.862 537.324C-252.825 527.97 -241.287 519.224 -229.3 511.124L-207.522 496.39L-186.049 482.819C-173.014 474.188 -160.712 466.58 -150.614 458.549L-141.164 454.036C-142.278 454.017 -143.392 454.055 -144.502 454.151C-126.129 441.031 -106.852 429.225 -86.8169 418.819C-85.1388 421.478 -83.705 424.283 -82.533 427.201C-86.5363 429.221 -90.5752 431.319 -94.503 433.299C-105.211 439.225 -115.594 445.294 -125.652 451.505C-135.736 457.692 -145.18 464.625 -154.36 471.395C-155.669 472.439 -157.207 473.529 -158.631 474.577L-130.114 460.303C-120.511 455.747 -110.987 451.155 -101.424 446.561C-95.6436 443.712 -89.7824 440.974 -83.9198 438.275C-83.391 438.958 -82.9045 439.673 -82.4631 440.415L-83.3312 440.868C-96.3798 448.002 -109.1 455.739 -121.788 463.321C-125.884 465.998 -129.823 468.746 -133.766 471.417C-152.353 480.624 -170.606 490.587 -188.455 501.152L-188.186 501.143L-188.865 501.512L-188.451 501.267C-199.354 505.983 -210.163 511.196 -220.855 516.481ZM-81.0613 447.667L-80.397 447.99C-83.3931 449.131 -86.3469 450.385 -89.3416 451.563L-81.0613 447.667ZM-77.6444 435.293L-72.6883 433.048L-70.9111 432.219L-70.8491 434.022L-77.9795 437.841C-77.5863 436.982 -77.6153 436.138 -77.6444 435.293ZM276.54 250.225C285.095 245.362 294.319 241.782 303.915 239.602C308.746 238.377 313.637 237.401 318.569 236.678L333.296 234.789L338.413 232.769C341.664 231.773 345.135 231.747 348.4 232.695L349.782 232.647L348.989 233.059C353.569 234.4 357.909 236.594 363.374 237.982L364.977 236.543L364.786 241.045C357.936 245.245 349.93 247.161 341.921 246.518C333.991 245.784 325.996 246.188 318.18 247.719C309.476 250.477 300.52 252.59 291.531 254.897C281.96 255.879 272.4 257.207 262.965 258.799C267.261 255.606 271.816 252.776 276.583 250.339L276.54 250.225ZM117.321 269.183C125.145 263.506 133.971 259.357 143.335 256.955C151.538 256.028 159.627 254.27 167.475 251.707C175.852 248.883 183.959 245.313 191.698 241.039C195.556 249.32 192.677 253.876 186.265 257.362C179.853 260.848 169.695 262.657 158.736 264.609C154.493 265.255 150.183 266.171 145.915 267.202C146.017 267.068 146.069 266.903 146.063 266.735C146.057 266.568 145.994 266.407 145.884 266.281C141.854 266.848 137.905 267.886 134.118 269.374L109.045 277.69C111.297 274.42 114.114 271.578 117.363 269.297L117.321 269.183ZM-88.014 357.155C-88.0032 357.283 -87.9988 357.411 -88.0008 357.539C-92.518 360.256 -97.112 362.975 -101.783 365.697C-108.986 368.506 -116.151 371.313 -123.278 374.12C-119.993 372.432 -116.709 370.743 -113.343 369.168L-88.014 357.155ZM-498.453 625.917C-495.13 617.603 -490.506 609.87 -484.755 603.008C-472.316 586.883 -458.042 572.261 -442.222 559.437C-435.519 554.365 -428.354 549.316 -421.242 543.847C-414.13 538.377 -406.988 532.637 -399.896 526.592C-392.804 520.547 -385.47 514.839 -378.496 508.682C-371.523 502.526 -364.752 496.069 -358.003 490.112C-338.813 498.443 -373.631 520.579 -412.168 549.605L-426.816 560.521C-431.721 564.263 -436.424 568.266 -441.132 572.155C-450.462 580.16 -459.808 587.704 -467.221 595.605C-474.179 602.595 -480.513 610.179 -486.152 618.271C-488.323 621.476 -490.2 624.871 -491.758 628.415C-492.996 631.398 -493.731 634.565 -493.934 637.787C-499.428 636.67 -500.426 632.209 -498.453 625.917ZM-182.062 504.928C-175.719 500.561 -169.491 496.197 -163.304 491.758L-162.779 491.394L-160.463 490.585C-151.084 487.617 -141.509 485.311 -131.807 483.683C-148.582 490.458 -165.335 497.501 -182.066 504.813L-182.062 504.928ZM-77.7728 447.208C-77.7833 446.901 -77.7926 446.633 -77.8031 446.326C-69.8373 442.594 -61.8446 438.9 -53.825 435.243C-51.3947 435.082 -48.9566 435.075 -46.5256 435.223C-45.3743 435.183 -44.1741 435.449 -43.0163 435.602C-54.8139 438.889 -66.3588 442.82 -77.7767 447.093L-77.7728 447.208ZM27.5599 397.483L27.3072 396.838L27.6658 397.21L27.5599 397.483ZM46.7697 390.752C49.8293 389.225 52.93 387.774 55.9447 386.057C56.7236 385.21 57.3767 384.256 57.8836 383.224L69.5426 378.136C64.5991 381.14 59.8123 384.395 55.2008 387.888C52.9488 389.617 50.3831 390.892 47.6456 391.644L46.7697 390.752ZM106.307 359.006L102.758 360.819C95.3712 362.763 87.9472 364.747 80.6026 366.806C85.1591 364.113 91.4659 364.281 96.987 361.709C98.358 361.354 98.9765 358.106 98.581 356.659C108.934 357.187 112.274 347.044 122.345 346.045L120.787 345.446C124.788 344.463 128.748 343.443 132.789 342.497C134.268 341.947 135.752 341.512 137.232 341C136.046 341.974 134.792 342.864 133.482 343.665C124.3 348.168 115.505 353.849 106.299 358.776L106.307 359.006Z" fill="#66C1DF"/>
<path d="M473.175 246.733C458.547 245.977 443.966 244.477 429.49 242.241L428.735 242.651C421.382 246.111 413.327 247.821 405.201 247.648C396.51 247.8 387.905 249.394 379.736 252.365C372.199 256.029 364.375 259.073 356.343 261.468C348.535 263.996 340.876 266.966 333.404 270.363C338.863 270.445 344.237 270.298 349.609 270.114L357.63 269.838L365.584 269.872C376.254 269.871 386.903 270.79 397.415 272.62C404.055 271.316 410.745 270.318 417.515 269.432C422.797 268.098 428.125 266.634 433.501 265.041C458.837 259.943 487.09 267.041 513.773 268.698C515.481 264.468 516.369 259.953 516.39 255.391C502.494 250.378 487.93 247.46 473.175 246.733Z" fill="#66C1DF"/>
<path d="M242.363 335.697C237.899 338.847 233.696 342.872 229.393 346.247C234.722 344.796 240.078 342.998 245.571 341.849C253.175 339.513 260.272 336.964 267.247 334.188C270.772 332.799 274.218 331.336 277.706 329.987L288.166 325.785C277.708 326.682 267.312 328.269 256.732 328.978C251.543 330.239 246.658 332.523 242.363 335.697Z" fill="#66C1DF"/>
<path d="M395.277 274.154C396.994 273.788 398.706 273.306 400.385 272.98C399.378 272.745 398.371 272.511 397.405 272.352L390.961 273.764L395.277 274.154Z" fill="#66C1DF"/>
<path d="M348.985 232.944L348.41 232.964C343.442 233.749 338.355 234.423 333.305 235.058C326.253 237.798 318.981 239.738 311.598 241.798C325.011 239.685 338.221 238.347 348.985 232.944Z" fill="#66C1DF"/>
<path d="M304.79 196.848L298.381 197.068L295.481 199.896L300.097 200.045L304.79 196.848Z" fill="#66C1DF"/>
<path d="M211.901 227.435C218.74 225.202 225.456 222.743 232.148 220.707L252.112 214.68L271.883 208.622L291.643 203.37C292.911 202.251 294.176 201.055 295.365 199.861C286.474 199.534 277.575 200.253 268.851 202.002C260.109 203.973 251.741 207.335 244.066 211.96C240.974 213.68 236.608 218.556 233.427 218.78C218.501 221.598 204.783 228.256 191.269 234.138C197.844 232.067 204.492 229.841 211.292 227.609L211.901 227.435Z" fill="#66C1DF"/>
<path d="M77.8655 405.667C63.5017 411.424 49.2689 417.638 35.0268 423.583C68.8528 413.968 102.519 405.281 135.859 396.066C116.229 397.08 96.7751 400.3 77.8655 405.667Z" fill="#66C1DF"/>
<path d="M828.025 33.0208C816.628 25.4698 792.312 34.531 771.796 30.7555L771.036 40.5718C794.592 34.531 800.671 40.5718 826.506 33.7759C827.266 33.7759 827.266 33.0208 828.025 33.0208Z" fill="#00C1DE"/>
<path d="M904.011 95.6938C911.609 95.6938 917.688 101.735 924.527 97.204C917.688 94.9387 908.57 92.6734 904.011 95.6938Z" fill="#00C1DE"/>
<path d="M922.248 79.8365L918.448 80.5916L928.326 86.6325L922.248 79.8365Z" fill="#00C1DE"/>
<path d="M879.695 84.3674C876.656 83.6123 874.376 82.1021 874.376 80.5919L900.971 79.0817L877.416 75.3062C862.979 79.0817 869.817 81.347 879.695 84.3674Z" fill="#00C1DE"/>
<path d="M902.491 91.9184L910.85 89.6531C910.85 88.1429 899.452 88.1429 888.814 86.6327C895.653 87.3878 901.732 89.6531 902.491 91.9184Z" fill="#00C1DE"/>
<path d="M879.695 84.3671C881.975 85.1222 885.014 85.8773 888.814 86.6324C885.774 85.1222 882.735 84.3671 879.695 84.3671Z" fill="#00C1DE"/>
<path d="M855.38 71.5306L851.581 71.5306L850.061 78.3266C857.66 77.5715 854.62 73.0408 855.38 71.5306Z" fill="#00C1DE"/>
<path d="M822.706 58.6938C815.868 54.1632 802.19 58.6938 796.111 59.4489C804.47 63.9795 814.348 63.9795 825.746 65.4897C814.348 63.9795 822.706 60.9591 822.706 58.6938Z" fill="#00C1DE"/>
<path d="M790.032 49.6324C797.631 49.6324 805.229 49.6324 812.828 49.6324C808.269 42.0814 799.91 48.8773 790.032 49.6324Z" fill="#00C1DE"/>
<path d="M753.559 52.6531C751.28 53.4082 752.799 55.6735 749 56.4286C752.039 59.449 760.398 57.9388 765.717 58.6939L753.559 52.6531Z" fill="#00C1DE"/>
</g>
</g>
</svg>