<?xml version="1.0" encoding="UTF-8"?>
<svg width="571px" height="291px" viewBox="0 0 571 291" version="1.1" xmlns="http://www.w3.org/2000/svg" xmlns:xlink="http://www.w3.org/1999/xlink">
    <title>hep_logo_white</title>
    <defs>
        <polygon id="path-1" points="0 0.6991 93.5236 0.6991 93.5236 173 0 173"></polygon>
        <polygon id="path-3" points="0.0561 0.6994 109.403 0.6994 109.403 172.6744 0.0561 172.6744"></polygon>
    </defs>
    <g id="Page-1" stroke="none" stroke-width="1" fill="none" fill-rule="evenodd">
        <g id="hep_logo_white">
            <path d="M311.7797,1.0001 C311.7557,1.9561 311.7097,2.9111 311.7097,3.8671 C311.7067,59.2131 311.7067,114.5591 311.7067,169.9051 L311.7067,172.9361 L272.1377,172.9361 L272.1377,101.6531 L239.9107,101.6531 L239.9107,172.9731 L199.6057,172.9731 C199.5587,172.2371 199.4757,171.5491 199.4757,170.8601 C199.4697,114.7961 199.471554,58.7321 199.4737,2.6691 C199.4737,2.1121 199.5267,1.5561 199.5547,1.0001 L239.8407,1.0001 L239.8407,65.6681 L271.8227,65.6681 C271.9217,65.3621 272.0097,65.2161 272.0097,65.0701 C272.0017,43.7131 271.9877,22.3571 271.9737,1.0001 L311.7797,1.0001 Z" id="Fill-1" fill="#FFFFFF" fill-rule="nonzero"></path>
            <path d="M174.1362,1.0001 C174.1122,1.9561 174.0662,2.9111 174.0662,3.8671 C174.0632,59.2961 174.0632,114.7251 174.0632,170.1551 L174.0632,173.1071 L78.6002,173.1071 C87.9302,146.5511 97.2352,120.0661 106.7032,93.1181 C98.9302,95.2731 91.5592,97.3171 83.6892,99.5001 C95.4122,66.3311 106.9582,33.6661 118.5032,1.0001 L174.1362,1.0001 Z" id="Fill-3" fill="#FFFFFF" fill-rule="nonzero"></path>
            <g id="Fill-5-Clipped" transform="translate(1.000000, 0.301000)">
                <mask id="mask-2" fill="white">
                    <use xlink:href="#path-1"></use>
                </mask>
                <g id="path-1"></g>
                <path d="M93.5236,0.6991 C90.2056,10.3141 86.9116,19.9371 83.5646,29.5421 C76.9196,48.6161 70.2446,67.6801 63.5846,86.7491 C63.4546,87.1211 63.3546,87.5031 63.0966,88.3541 C69.9876,85.8371 76.5636,83.4351 83.5806,80.8711 C82.9686,82.7921 82.4896,84.4041 81.9426,85.9921 C72.2276,114.1871 62.4856,142.3741 52.8296,170.5891 C52.2126,172.3931 51.4766,173.0111 49.5126,173.000384 C33.1346,172.9051 16.7546,172.9461 0.2246,172.9461 C0.1446,172.3621 0.0116,171.8421 0.0116,171.3211 C0.0016,138.2961 -0.0064,105.2711 0.0056,72.2461 C0.0146,48.7141 0.0516,25.1831 0.0726,1.6511 C0.0736,1.3341 0.0276,1.0161 0.0026,0.6991 L93.5236,0.6991 Z" id="Fill-5" fill="#FFFFFF" fill-rule="nonzero" mask="url(#mask-2)"></path>
            </g>
            <path d="M433.5966,1.0001 C433.5266,3.5411 433.4046,6.0811 433.3976,8.6221 C433.3726,17.1441 433.3876,25.6661 433.3876,34.4041 L379.9796,34.4041 L379.9796,65.8331 L429.1006,65.8331 L429.1006,100.5381 L379.9716,100.5381 L379.9716,137.9701 L433.2466,137.9701 L433.2466,172.9471 L339.6476,172.9471 C339.6016,172.2431 339.5176,171.5551 339.5176,170.8681 C339.5116,114.8011 339.5116,58.7351 339.5156,2.6691 C339.5156,2.1131 339.5676,1.5561 339.5966,1.0001 L433.5966,1.0001 Z" id="Fill-8" fill="#FFFFFF" fill-rule="nonzero"></path>
            <g id="Fill-10-Clipped" transform="translate(458.000000, 0.301000)">
                <mask id="mask-4" fill="white">
                    <use xlink:href="#path-3"></use>
                </mask>
                <g id="path-3"></g>
                <path d="M40.9991,75.0104 C45.1561,74.6674 49.0531,74.4904 52.9101,73.9984 C61.3061,72.9254 66.2211,68.4694 68.0131,60.3314 C68.5571,57.8564 68.9091,55.2994 68.9911,52.7694 C69.4671,38.0534 64.2481,34.8294 54.0141,33.0304 C49.7621,32.2824 45.4081,32.1084 40.9991,31.6624 L40.9991,75.0104 Z M109.4031,61.4904 C108.7671,64.3064 108.1791,67.1344 107.4861,69.9364 C104.8651,80.5344 100.3271,90.0464 91.5591,97.0204 C84.2461,102.8384 75.6541,105.3684 66.4881,105.9594 C58.6071,106.4674 50.7021,106.5944 42.8081,106.8944 C42.2621,106.9144 41.7171,106.9644 40.9541,107.0144 L40.9541,172.6744 L0.2651,172.6744 C0.2651,171.5774 0.2651,170.5704 0.2651,169.5624 C0.2651,114.2994 0.2661,59.0374 0.2561,3.7744 C0.2561,2.7494 0.1251,1.7244 0.0561,0.6994 L56.1681,0.6994 C56.7301,0.8594 57.2821,1.0954 57.8541,1.1674 C63.0741,1.8194 68.3551,2.1424 73.5091,3.1284 C91.7791,6.6234 103.8241,16.8514 107.7761,35.5124 C108.3581,38.2594 108.8631,41.0234 109.4031,43.7794 L109.4031,61.4904 Z" id="Fill-10" fill="#FFFFFF" fill-rule="nonzero" mask="url(#mask-4)"></path>
            </g>
            <path d="M32.31,273 L55.17,208.74 L46.26,208.74 L27.72,264.45 L27.54,264.45 L9.18,208.74 L0,208.74 L22.59,273 L32.31,273 Z M69.48,218.1 L69.48,208.74 L61.83,208.74 L61.83,218.1 L69.48,218.1 Z M69.48,273 L69.48,226.47 L61.83,226.47 L61.83,273 L69.48,273 Z M104.58,220.08 L113.85,207.21 L106.92,207.21 L100.62,215.85 L94.41,207.21 L86.85,207.21 L96.21,220.08 L104.58,220.08 Z M100.35,273.99 C102.69,273.99 105.045,273.765 107.415,273.315 C109.785,272.865 111.915,272.07 113.805,270.93 C115.695,269.79 117.225,268.29 118.395,266.43 C119.565,264.57 120.15,262.23 120.15,259.41 C120.15,257.19 119.715,255.33 118.845,253.83 C117.975,252.33 116.835,251.085 115.425,250.095 C114.015,249.105 112.395,248.31 110.565,247.71 C108.735,247.11 106.86,246.6 104.94,246.18 C103.14,245.76 101.34,245.355 99.54,244.965 C97.74,244.575 96.12,244.095 94.68,243.525 C93.24,242.955 92.055,242.235 91.125,241.365 C90.195,240.495 89.73,239.4 89.73,238.08 C89.73,236.88 90.03,235.905 90.63,235.155 C91.23,234.405 92.01,233.805 92.97,233.355 C93.93,232.905 94.995,232.59 96.165,232.41 C97.335,232.23 98.49,232.14 99.63,232.14 C100.89,232.14 102.135,232.275 103.365,232.545 C104.595,232.815 105.72,233.25 106.74,233.85 C107.76,234.45 108.6,235.245 109.26,236.235 C109.92,237.225 110.31,238.47 110.43,239.97 L118.08,239.97 C117.9,237.15 117.3,234.795 116.28,232.905 C115.26,231.015 113.895,229.515 112.185,228.405 C110.475,227.295 108.51,226.515 106.29,226.065 C104.07,225.615 101.64,225.39 99,225.39 C96.96,225.39 94.905,225.645 92.835,226.155 C90.765,226.665 88.905,227.445 87.255,228.495 C85.605,229.545 84.255,230.91 83.205,232.59 C82.155,234.27 81.63,236.28 81.63,238.62 C81.63,241.62 82.38,243.96 83.88,245.64 C85.38,247.32 87.255,248.625 89.505,249.555 C91.755,250.485 94.2,251.205 96.84,251.715 C99.48,252.225 101.925,252.795 104.175,253.425 C106.425,254.055 108.3,254.88 109.8,255.9 C111.3,256.92 112.05,258.42 112.05,260.4 C112.05,261.84 111.69,263.025 110.97,263.955 C110.25,264.885 109.335,265.59 108.225,266.07 C107.115,266.55 105.9,266.88 104.58,267.06 C103.26,267.24 102,267.33 100.8,267.33 C99.24,267.33 97.725,267.18 96.255,266.88 C94.785,266.58 93.465,266.085 92.295,265.395 C91.125,264.705 90.18,263.775 89.46,262.605 C88.74,261.435 88.35,260.01 88.29,258.33 L80.64,258.33 C80.76,261.21 81.36,263.655 82.44,265.665 C83.52,267.675 84.96,269.295 86.76,270.525 C88.56,271.755 90.63,272.64 92.97,273.18 C95.31,273.72 97.77,273.99 100.35,273.99 Z M150.66,273.99 C155.94,273.99 160.32,272.67 163.8,270.03 C167.28,267.39 169.53,263.46 170.55,258.24 L162.99,258.24 C162.33,261.3 160.965,263.58 158.895,265.08 C156.825,266.58 154.17,267.33 150.93,267.33 C148.41,267.33 146.22,266.91 144.36,266.07 C142.5,265.23 140.97,264.105 139.77,262.695 C138.57,261.285 137.7,259.665 137.16,257.835 C136.62,256.005 136.38,254.07 136.44,252.03 L171.27,252.03 C171.39,249.21 171.135,246.24 170.505,243.12 C169.875,240 168.735,237.12 167.085,234.48 C165.435,231.84 163.245,229.665 160.515,227.955 C157.785,226.245 154.35,225.39 150.21,225.39 C147.03,225.39 144.105,225.99 141.435,227.19 C138.765,228.39 136.455,230.07 134.505,232.23 C132.555,234.39 131.04,236.94 129.96,239.88 C128.88,242.82 128.34,246.06 128.34,249.6 C128.46,253.14 128.985,256.41 129.915,259.41 C130.845,262.41 132.24,264.99 134.1,267.15 C135.96,269.31 138.255,270.99 140.985,272.19 C143.715,273.39 146.94,273.99 150.66,273.99 Z M163.17,245.28 L136.44,245.28 C136.56,243.48 136.95,241.785 137.61,240.195 C138.27,238.605 139.17,237.21 140.31,236.01 C141.45,234.81 142.815,233.865 144.405,233.175 C145.995,232.485 147.78,232.14 149.76,232.14 C151.68,232.14 153.435,232.485 155.025,233.175 C156.615,233.865 157.995,234.795 159.165,235.965 C160.335,237.135 161.265,238.53 161.955,240.15 C162.645,241.77 163.05,243.48 163.17,245.28 Z M228.78,273.99 C232.5,273.99 235.755,273.375 238.545,272.145 C241.335,270.915 243.69,269.205 245.61,267.015 C247.53,264.825 248.97,262.26 249.93,259.32 C250.89,256.38 251.37,253.2 251.37,249.78 C251.37,246.36 250.89,243.165 249.93,240.195 C248.97,237.225 247.53,234.645 245.61,232.455 C243.69,230.265 241.335,228.54 238.545,227.28 C235.755,226.02 232.5,225.39 228.78,225.39 C225.12,225.39 221.88,226.02 219.06,227.28 C216.24,228.54 213.87,230.265 211.95,232.455 C210.03,234.645 208.59,237.225 207.63,240.195 C206.67,243.165 206.19,246.36 206.19,249.78 C206.19,253.2 206.67,256.38 207.63,259.32 C208.59,262.26 210.03,264.825 211.95,267.015 C213.87,269.205 216.24,270.915 219.06,272.145 C221.88,273.375 225.12,273.99 228.78,273.99 Z M228.78,267.33 C226.8,267.33 224.925,266.94 223.155,266.16 C221.385,265.38 219.84,264.255 218.52,262.785 C217.2,261.315 216.165,259.485 215.415,257.295 C214.665,255.105 214.29,252.6 214.29,249.78 C214.29,246.96 214.665,244.455 215.415,242.265 C216.165,240.075 217.2,238.23 218.52,236.73 C219.84,235.23 221.385,234.09 223.155,233.31 C224.925,232.53 226.8,232.14 228.78,232.14 C230.76,232.14 232.635,232.53 234.405,233.31 C236.175,234.09 237.72,235.23 239.04,236.73 C240.36,238.23 241.395,240.075 242.145,242.265 C242.895,244.455 243.27,246.96 243.27,249.78 C243.27,252.6 242.895,255.105 242.145,257.295 C241.395,259.485 240.36,261.315 239.04,262.785 C237.72,264.255 236.175,265.38 234.405,266.16 C232.635,266.94 230.76,267.33 228.78,267.33 Z M281.52,273.99 C284.76,273.99 287.73,273.42 290.43,272.28 C293.13,271.14 295.11,269.28 296.37,266.7 L296.55,266.7 L296.55,273 L304.2,273 L304.2,208.74 L296.55,208.74 L296.55,232.68 L296.37,232.68 C295.53,231.3 294.495,230.145 293.265,229.215 C292.035,228.285 290.73,227.535 289.35,226.965 C287.97,226.395 286.59,225.99 285.21,225.75 C283.83,225.51 282.54,225.39 281.34,225.39 C277.8,225.39 274.695,226.035 272.025,227.325 C269.355,228.615 267.135,230.355 265.365,232.545 C263.595,234.735 262.275,237.3 261.405,240.24 C260.535,243.18 260.1,246.3 260.1,249.6 C260.1,252.9 260.55,256.02 261.45,258.96 C262.35,261.9 263.685,264.48 265.455,266.7 C267.225,268.92 269.445,270.69 272.115,272.01 C274.785,273.33 277.92,273.99 281.52,273.99 Z M282.6,267.33 C280.14,267.33 277.995,266.85 276.165,265.89 C274.335,264.93 272.835,263.64 271.665,262.02 C270.495,260.4 269.625,258.555 269.055,256.485 C268.485,254.415 268.2,252.3 268.2,250.14 C268.2,247.86 268.44,245.64 268.92,243.48 C269.4,241.32 270.18,239.4 271.26,237.72 C272.34,236.04 273.78,234.69 275.58,233.67 C277.38,232.65 279.57,232.14 282.15,232.14 C284.79,232.14 287.04,232.635 288.9,233.625 C290.76,234.615 292.275,235.92 293.445,237.54 C294.615,239.16 295.47,241.035 296.01,243.165 C296.55,245.295 296.82,247.5 296.82,249.78 C296.82,251.94 296.565,254.07 296.055,256.17 C295.545,258.27 294.72,260.145 293.58,261.795 C292.44,263.445 290.97,264.78 289.17,265.8 C287.37,266.82 285.18,267.33 282.6,267.33 Z M362.25,273.99 C364.59,273.99 366.945,273.765 369.315,273.315 C371.685,272.865 373.815,272.07 375.705,270.93 C377.595,269.79 379.125,268.29 380.295,266.43 C381.465,264.57 382.05,262.23 382.05,259.41 C382.05,257.19 381.615,255.33 380.745,253.83 C379.875,252.33 378.735,251.085 377.325,250.095 C375.915,249.105 374.295,248.31 372.465,247.71 C370.635,247.11 368.76,246.6 366.84,246.18 C365.04,245.76 363.24,245.355 361.44,244.965 C359.64,244.575 358.02,244.095 356.58,243.525 C355.14,242.955 353.955,242.235 353.025,241.365 C352.095,240.495 351.63,239.4 351.63,238.08 C351.63,236.88 351.93,235.905 352.53,235.155 C353.13,234.405 353.91,233.805 354.87,233.355 C355.83,232.905 356.895,232.59 358.065,232.41 C359.235,232.23 360.39,232.14 361.53,232.14 C362.79,232.14 364.035,232.275 365.265,232.545 C366.495,232.815 367.62,233.25 368.64,233.85 C369.66,234.45 370.5,235.245 371.16,236.235 C371.82,237.225 372.21,238.47 372.33,239.97 L379.98,239.97 C379.8,237.15 379.2,234.795 378.18,232.905 C377.16,231.015 375.795,229.515 374.085,228.405 C372.375,227.295 370.41,226.515 368.19,226.065 C365.97,225.615 363.54,225.39 360.9,225.39 C358.86,225.39 356.805,225.645 354.735,226.155 C352.665,226.665 350.805,227.445 349.155,228.495 C347.505,229.545 346.155,230.91 345.105,232.59 C344.055,234.27 343.53,236.28 343.53,238.62 C343.53,241.62 344.28,243.96 345.78,245.64 C347.28,247.32 349.155,248.625 351.405,249.555 C353.655,250.485 356.1,251.205 358.74,251.715 C361.38,252.225 363.825,252.795 366.075,253.425 C368.325,254.055 370.2,254.88 371.7,255.9 C373.2,256.92 373.95,258.42 373.95,260.4 C373.95,261.84 373.59,263.025 372.87,263.955 C372.15,264.885 371.235,265.59 370.125,266.07 C369.015,266.55 367.8,266.88 366.48,267.06 C365.16,267.24 363.9,267.33 362.7,267.33 C361.14,267.33 359.625,267.18 358.155,266.88 C356.685,266.58 355.365,266.085 354.195,265.395 C353.025,264.705 352.08,263.775 351.36,262.605 C350.64,261.435 350.25,260.01 350.19,258.33 L342.54,258.33 C342.66,261.21 343.26,263.655 344.34,265.665 C345.42,267.675 346.86,269.295 348.66,270.525 C350.46,271.755 352.53,272.64 354.87,273.18 C357.21,273.72 359.67,273.99 362.25,273.99 Z M412.65,273 L412.65,266.25 L409.14,266.25 C407.94,266.25 406.965,266.205 406.215,266.115 C405.465,266.025 404.88,265.83 404.46,265.53 C404.04,265.23 403.755,264.81 403.605,264.27 C403.455,263.73 403.38,263.01 403.38,262.11 L403.38,233.22 L412.65,233.22 L412.65,226.47 L403.38,226.47 L403.38,212.52 L395.73,212.52 L395.73,226.47 L387.81,226.47 L387.81,233.22 L395.73,233.22 L395.73,262.83 C395.73,264.99 395.94,266.73 396.36,268.05 C396.78,269.37 397.425,270.39 398.295,271.11 C399.165,271.83 400.305,272.325 401.715,272.595 C403.125,272.865 404.82,273 406.8,273 L412.65,273 Z M430.74,273 L430.74,252.3 C430.74,249.3 431.04,246.645 431.64,244.335 C432.24,242.025 433.2,240.06 434.52,238.44 C435.84,236.82 437.58,235.59 439.74,234.75 C441.9,233.91 444.51,233.49 447.57,233.49 L447.57,225.39 C443.43,225.27 440.01,226.11 437.31,227.91 C434.61,229.71 432.33,232.5 430.47,236.28 L430.29,236.28 L430.29,226.47 L423.09,226.47 L423.09,273 L430.74,273 Z M471.6,273.99 C475.02,273.99 477.99,273.315 480.51,271.965 C483.03,270.615 485.1,268.5 486.72,265.62 L486.9,265.62 L486.9,273 L494.1,273 L494.1,226.47 L486.45,226.47 L486.45,252.75 C486.45,254.85 486.165,256.785 485.595,258.555 C485.025,260.325 484.17,261.87 483.03,263.19 C481.89,264.51 480.465,265.53 478.755,266.25 C477.045,266.97 475.02,267.33 472.68,267.33 C469.74,267.33 467.43,266.49 465.75,264.81 C464.07,263.13 463.23,260.85 463.23,257.97 L463.23,226.47 L455.58,226.47 L455.58,257.07 C455.58,259.59 455.835,261.885 456.345,263.955 C456.855,266.025 457.74,267.81 459,269.31 C460.26,270.81 461.91,271.965 463.95,272.775 C465.99,273.585 468.54,273.99 471.6,273.99 Z M515.97,218.1 L515.97,208.74 L508.32,208.74 L508.32,218.1 L515.97,218.1 Z M504.81,290.73 C508.23,290.73 510.945,289.785 512.955,287.895 C514.965,286.005 515.97,282.99 515.97,278.85 L515.97,226.47 L508.32,226.47 L508.32,277.59 C508.32,279.99 508.02,281.655 507.42,282.585 C506.82,283.515 505.68,283.98 504,283.98 L502.38,283.98 C502.14,283.98 501.915,283.965 501.705,283.935 C501.495,283.905 501.24,283.86 500.94,283.8 L500.94,290.37 C502.14,290.61 503.43,290.73 504.81,290.73 Z M549.9,273.99 C555.18,273.99 559.56,272.67 563.04,270.03 C566.52,267.39 568.77,263.46 569.79,258.24 L562.23,258.24 C561.57,261.3 560.205,263.58 558.135,265.08 C556.065,266.58 553.41,267.33 550.17,267.33 C547.65,267.33 545.46,266.91 543.6,266.07 C541.74,265.23 540.21,264.105 539.01,262.695 C537.81,261.285 536.94,259.665 536.4,257.835 C535.86,256.005 535.62,254.07 535.68,252.03 L570.51,252.03 C570.63,249.21 570.375,246.24 569.745,243.12 C569.115,240 567.975,237.12 566.325,234.48 C564.675,231.84 562.485,229.665 559.755,227.955 C557.025,226.245 553.59,225.39 549.45,225.39 C546.27,225.39 543.345,225.99 540.675,227.19 C538.005,228.39 535.695,230.07 533.745,232.23 C531.795,234.39 530.28,236.94 529.2,239.88 C528.12,242.82 527.58,246.06 527.58,249.6 C527.7,253.14 528.225,256.41 529.155,259.41 C530.085,262.41 531.48,264.99 533.34,267.15 C535.2,269.31 537.495,270.99 540.225,272.19 C542.955,273.39 546.18,273.99 549.9,273.99 Z M562.41,245.28 L535.68,245.28 C535.8,243.48 536.19,241.785 536.85,240.195 C537.51,238.605 538.41,237.21 539.55,236.01 C540.69,234.81 542.055,233.865 543.645,233.175 C545.235,232.485 547.02,232.14 549,232.14 C550.92,232.14 552.675,232.485 554.265,233.175 C555.855,233.865 557.235,234.795 558.405,235.965 C559.575,237.135 560.505,238.53 561.195,240.15 C561.885,241.77 562.29,243.48 562.41,245.28 Z" id="Višeodstruje" fill="#FFFFFF" fill-rule="nonzero"></path>
        </g>
    </g>
</svg>