<?xml version="1.0" encoding="UTF-8"?>
<svg width="567px" height="174px" viewBox="0 0 567 174" version="1.1" xmlns="http://www.w3.org/2000/svg" xmlns:xlink="http://www.w3.org/1999/xlink">
    <title>Group 13</title>
    <defs>
        <polygon id="path-1" points="0 0.6991 93.5236 0.6991 93.5236 173 0 173"></polygon>
        <polygon id="path-3" points="0.0561 0.6994 109.403 0.6994 109.403 172.6744 0.0561 172.6744"></polygon>
    </defs>
    <g id="Page-1" stroke="none" stroke-width="1" fill="none" fill-rule="evenodd">
        <g id="Group-13">
            <path d="M310.7797,1.0001 C310.7557,1.9561 310.7097,2.9111 310.7097,3.8671 C310.7067,59.2131 310.7067,114.5591 310.7067,169.9051 L310.7067,172.9361 L271.1377,172.9361 L271.1377,101.6531 L238.9107,101.6531 L238.9107,172.9731 L198.6057,172.9731 C198.5587,172.2371 198.4757,171.5491 198.4757,170.8601 C198.4697,114.7961 198.471314,58.7321 198.4737,2.6691 C198.4737,2.1121 198.5267,1.5561 198.5547,1.0001 L238.8407,1.0001 L238.8407,65.6681 L270.8227,65.6681 C270.9217,65.3621 271.0097,65.2161 271.0097,65.0701 C271.0017,43.7131 270.9877,22.3571 270.9737,1.0001 L310.7797,1.0001 Z" id="Fill-1" fill="#1A4EA1"></path>
            <path d="M173.1362,1.0001 C173.1122,1.9561 173.0662,2.9111 173.0662,3.8671 C173.0632,59.2961 173.0632,114.7251 173.0632,170.1551 L173.0632,173.1071 L77.6002,173.1071 C86.9302,146.5511 96.2352,120.0661 105.7032,93.1181 C97.9302,95.2731 90.5592,97.3171 82.6892,99.5001 C94.4122,66.3311 105.9582,33.6661 117.5032,1.0001 L173.1362,1.0001 Z" id="Fill-3" fill="#1A4EA1"></path>
            <g id="Group-7" transform="translate(0.000000, 0.301000)">
                <mask id="mask-2" fill="white">
                    <use xlink:href="#path-1"></use>
                </mask>
                <g id="Clip-6"></g>
                <path d="M93.5236,0.6991 C90.2056,10.3141 86.9116,19.9371 83.5646,29.5421 C76.9196,48.6161 70.2446,67.6801 63.5846,86.7491 C63.4546,87.1211 63.3546,87.5031 63.0966,88.3541 C69.9876,85.8371 76.5636,83.4351 83.5806,80.8711 C82.9686,82.7921 82.4896,84.4041 81.9426,85.9921 C72.2276,114.1871 62.4856,142.3741 52.8296,170.5891 C52.2126,172.3931 51.4766,173.0111 49.5126,173.000244 C33.1346,172.9051 16.7546,172.9461 0.2246,172.9461 C0.1446,172.3621 0.0116,171.8421 0.0116,171.3211 C0.0016,138.2961 -0.0064,105.2711 0.0056,72.2461 C0.0146,48.7141 0.0516,25.1831 0.0726,1.6511 C0.0736,1.3341 0.0276,1.0161 0.0026,0.6991 L93.5236,0.6991 Z" id="Fill-5" fill="#C72227" mask="url(#mask-2)"></path>
            </g>
            <path d="M432.5966,1.0001 C432.5266,3.5411 432.4046,6.0811 432.3976,8.6221 C432.3726,17.1441 432.3876,25.6661 432.3876,34.4041 L378.9796,34.4041 L378.9796,65.8331 L428.1006,65.8331 L428.1006,100.5381 L378.9716,100.5381 L378.9716,137.9701 L432.2466,137.9701 L432.2466,172.9471 L338.6476,172.9471 C338.6016,172.2431 338.5176,171.5551 338.5176,170.8681 C338.5116,114.8011 338.5116,58.7351 338.5156,2.6691 C338.5156,2.1131 338.5676,1.5561 338.5966,1.0001 L432.5966,1.0001 Z" id="Fill-8" fill="#1A4EA1"></path>
            <g id="Group-12" transform="translate(457.000000, 0.301000)">
                <mask id="mask-4" fill="white">
                    <use xlink:href="#path-3"></use>
                </mask>
                <g id="Clip-11"></g>
                <path d="M40.9991,75.0104 C45.1561,74.6674 49.0531,74.4904 52.9101,73.9984 C61.3061,72.9254 66.2211,68.4694 68.0131,60.3314 C68.5571,57.8564 68.9091,55.2994 68.9911,52.7694 C69.4671,38.0534 64.2481,34.8294 54.0141,33.0304 C49.7621,32.2824 45.4081,32.1084 40.9991,31.6624 L40.9991,75.0104 Z M109.4031,61.4904 C108.7671,64.3064 108.1791,67.1344 107.4861,69.9364 C104.8651,80.5344 100.3271,90.0464 91.5591,97.0204 C84.2461,102.8384 75.6541,105.3684 66.4881,105.9594 C58.6071,106.4674 50.7021,106.5944 42.8081,106.8944 C42.2621,106.9144 41.7171,106.9644 40.9541,107.0144 L40.9541,172.6744 L0.2651,172.6744 C0.2651,171.5774 0.2651,170.5704 0.2651,169.5624 C0.2651,114.2994 0.2661,59.0374 0.2561,3.7744 C0.2561,2.7494 0.1251,1.7244 0.0561,0.6994 L56.1681,0.6994 C56.7301,0.8594 57.2821,1.0954 57.8541,1.1674 C63.0741,1.8194 68.3551,2.1424 73.5091,3.1284 C91.7791,6.6234 103.8241,16.8514 107.7761,35.5124 C108.3581,38.2594 108.8631,41.0234 109.4031,43.7794 L109.4031,61.4904 Z" id="Fill-10" fill="#1A4EA1" mask="url(#mask-4)"></path>
            </g>
        </g>
    </g>
</svg>