<?xml version="1.0" encoding="UTF-8"?>
<svg width="107px" height="131px" viewBox="0 0 107 131" version="1.1" xmlns="http://www.w3.org/2000/svg" xmlns:xlink="http://www.w3.org/1999/xlink">
    <title>Group 10</title>
    <defs>
        <polygon id="path-1" points="0 130.085 106.738 130.085 106.738 0 0 0"></polygon>
    </defs>
    <g id="Page-1" stroke="none" stroke-width="1" fill="none" fill-rule="evenodd">
        <g id="Group-10">
            <path d="M103.0962,59.4563 C103.6352,58.1773 104.0312,57.1183 104.4182,56.3103 C101.6872,59.0433 98.1752,60.8603 94.5642,62.2333 C90.9532,63.6063 87.2022,64.5833 83.5752,65.9123 C80.6172,66.9953 77.7452,68.3123 74.9942,69.8453 C73.8982,70.4563 72.8132,71.1073 71.8762,71.9413 C70.0822,73.5383 68.9252,75.7143 67.8462,77.8593 C67.2752,78.9933 66.7142,80.1373 66.3032,81.3383 C65.3762,84.0393 65.2342,86.9363 65.1002,89.7883 C65.0762,90.2993 65.0572,90.8353 65.2822,91.2953 C65.4762,91.6923 65.8102,91.9963 66.2052,92.1943 C66.6362,93.8413 67.1172,95.4753 67.6612,97.0883 C67.8342,97.6013 68.0172,98.1203 68.3292,98.5623 C69.3452,99.9973 71.3512,100.2143 73.1072,100.2993 C74.3672,100.3613 75.6282,100.4223 76.8882,100.4833 C78.3832,100.5563 79.8792,100.6293 81.3752,100.5933 C85.8142,100.4853 90.2272,99.4023 94.2112,97.4423 C95.1172,96.9973 96.0082,96.5023 96.7812,95.8523 C97.4512,95.2883 98.0222,94.6153 98.5422,93.9103 C100.5952,91.1223 101.8552,87.8073 102.5522,84.4153 C103.2492,81.0243 103.4032,77.5433 103.3992,74.0803 C103.3952,69.5663 103.6332,64.8783 103.7092,60.3643 C103.7132,60.1663 103.7142,59.9583 103.6212,59.7833 C103.5182,59.5893 103.3152,59.4893 103.0962,59.4563" id="Fill-1" fill="#51D489"></path>
            <path d="M4.3195,59.4563 C3.7805,58.1773 3.3845,57.1183 2.9975,56.3103 C5.7285,59.0433 9.2405,60.8603 12.8515,62.2333 C16.4625,63.6063 20.2125,64.5833 23.8405,65.9123 C26.7975,66.9953 29.6705,68.3123 32.4215,69.8453 C33.5175,70.4563 34.6025,71.1073 35.5395,71.9413 C37.3335,73.5383 38.4905,75.7143 39.5695,77.8593 C40.1395,78.9933 40.7015,80.1373 41.1125,81.3383 C42.0395,84.0393 42.1815,86.9363 42.3155,89.7883 C42.3385,90.2993 42.3585,90.8353 42.1335,91.2953 C41.9395,91.6923 41.6055,91.9963 41.2105,92.1943 C40.7795,93.8413 40.2985,95.4753 39.7545,97.0883 C39.5815,97.6013 39.3985,98.1203 39.0865,98.5623 C38.0705,99.9973 36.0645,100.2143 34.3085,100.2993 C33.0475,100.3613 31.7875,100.4223 30.5275,100.4833 C29.0325,100.5563 27.5365,100.6293 26.0405,100.5933 C21.6015,100.4853 17.1885,99.4023 13.2045,97.4423 C12.2975,96.9973 11.4075,96.5023 10.6345,95.8523 C9.9645,95.2883 9.3935,94.6153 8.8735,93.9103 C6.8205,91.1223 5.5605,87.8073 4.8635,84.4153 C4.1665,81.0243 4.0125,77.5433 4.0165,74.0803 C4.0205,69.5663 3.7825,64.8783 3.7055,60.3643 C3.7025,60.1663 3.7015,59.9583 3.7945,59.7833 C3.8975,59.5893 4.1005,59.4893 4.3195,59.4563" id="Fill-3" fill="#51D489"></path>
            <path d="M54.5239,54.5811 L54.1799,54.5811 C44.7709,54.5811 37.1439,46.9541 37.1439,37.5451 L37.1439,29.9981 L71.5599,29.9981 L71.5599,37.5451 C71.5599,46.9541 63.9329,54.5811 54.5239,54.5811" id="Fill-5" fill="#D1D3D4"></path>
            <mask id="mask-2" fill="white">
                <use xlink:href="#path-1"></use>
            </mask>
            <g id="Clip-8"></g>
            <polygon id="Fill-7" fill="#F9ED32" mask="url(#mask-2)" points="34.394 28.914 74.977 28.914 74.977 19.997 34.394 19.997"></polygon>
            <path d="M39.1885,32.569 L70.0615,32.569 C69.7545,40.607 67.7105,46.394 63.9285,49.732 C59.8325,53.348 55.1145,52.813 54.9025,52.783 C54.8845,52.781 54.8675,52.784 54.8495,52.782 C54.7655,52.773 54.6795,52.773 54.5935,52.775 C54.5325,52.776 54.4715,52.776 54.4115,52.782 C54.3855,52.785 54.3615,52.782 54.3355,52.785 C54.2855,52.791 49.5225,53.397 45.3765,49.782 C41.5595,46.453 39.4965,40.649 39.1885,32.569 L39.1885,32.569 Z M35.5015,20.582 C35.5015,20.505 35.5645,20.442 35.6405,20.442 L73.6085,20.442 C73.6855,20.442 73.7485,20.505 73.7485,20.582 L73.7485,28.181 C73.7485,28.258 73.6855,28.321 73.6085,28.321 L35.6405,28.321 C35.5645,28.321 35.5015,28.258 35.5015,28.181 L35.5015,20.582 Z M105.5815,55.46 C104.7805,55.05 103.8115,55.188 103.1585,55.804 C100.1695,58.617 95.7195,59.988 90.5655,61.575 C84.9185,63.315 78.5165,65.287 72.3565,69.69 C62.2905,76.883 62.6585,87.962 63.2895,92.422 C60.5785,93.354 58.3195,93.933 56.7485,94.278 L56.7485,57.033 C59.1945,56.876 63.1055,56.087 66.6645,52.983 C71.4335,48.825 73.9805,41.917 74.3065,32.498 C76.3935,32.161 77.9965,30.361 77.9965,28.181 L77.9965,20.582 C77.9965,18.162 76.0285,16.194 73.6085,16.194 L66.5885,16.194 L66.5885,2.124 C66.5885,0.95 65.6385,0 64.4645,0 C63.2915,0 62.3405,0.95 62.3405,2.124 L62.3405,16.194 L46.9085,16.194 L46.9085,2.124 C46.9085,0.95 45.9585,0 44.7845,0 C43.6115,0 42.6605,0.95 42.6605,2.124 L42.6605,16.194 L35.6405,16.194 C33.2215,16.194 31.2525,18.162 31.2525,20.582 L31.2525,28.181 C31.2525,30.361 32.8565,32.161 34.9435,32.499 C35.2695,41.917 37.8155,48.825 42.5845,52.983 C46.1435,56.087 50.0555,56.876 52.5005,57.033 L52.5005,94.755 C52.4585,94.747 52.4205,94.732 52.3785,94.726 C52.2915,94.715 48.7045,94.228 43.4495,92.423 C44.0805,87.963 44.4495,76.883 34.3835,69.689 C28.2215,65.288 21.8205,63.315 16.1725,61.575 C11.0195,59.988 6.5685,58.617 3.5795,55.804 C2.9245,55.188 1.9555,55.051 1.1565,55.46 C0.3575,55.869 -0.0985,56.736 0.0185,57.627 C0.4635,61.028 0.5885,64.696 0.7215,68.579 C1.2325,83.552 1.8125,100.522 22.6535,102.273 C24.1475,102.392 25.5715,102.442 26.9085,102.442 C33.3045,102.442 37.6885,101.306 37.9075,101.248 C39.0415,100.949 39.7165,99.788 39.4175,98.654 C39.1205,97.522 37.9595,96.844 36.8255,97.14 C36.7665,97.155 30.8635,98.668 23.0005,98.039 C5.9285,96.604 5.4615,82.921 4.9665,68.434 C4.8915,66.22 4.8145,63.961 4.6695,61.75 C7.7195,63.417 11.2515,64.505 14.9215,65.635 C20.2605,67.28 26.3125,69.145 31.9135,73.146 C39.4825,78.555 39.7665,86.788 39.3625,90.863 C32.2225,87.872 23.3215,82.693 15.7995,73.857 C15.0395,72.963 13.6985,72.855 12.8055,73.616 C11.9115,74.376 11.8045,75.717 12.5645,76.61 C28.9875,95.905 50.9265,98.827 51.8525,98.942 C51.9415,98.953 52.0285,98.958 52.1165,98.958 C52.2505,98.958 52.3725,98.911 52.5005,98.887 L52.5005,127.961 C52.5005,129.134 53.4515,130.085 54.6245,130.085 C55.7975,130.085 56.7485,129.134 56.7485,127.961 L56.7485,98.632 C62.5135,97.519 80.3085,92.899 94.1735,76.61 C94.9345,75.717 94.8265,74.376 93.9335,73.616 C93.0415,72.857 91.7005,72.962 90.9395,73.857 C83.4175,82.693 74.5165,87.872 67.3765,90.863 C66.9725,86.787 67.2555,78.555 74.8255,73.146 C80.4265,69.145 86.4775,67.28 91.8165,65.635 C95.4865,64.505 99.0195,63.417 102.0685,61.75 C101.9245,63.961 101.8475,66.22 101.7715,68.435 C101.2765,82.922 100.8105,96.604 83.7455,98.038 C75.8785,98.669 69.9735,97.156 69.9165,97.141 C68.7845,96.839 67.6205,97.518 67.3205,98.652 C67.0205,99.786 67.6965,100.948 68.8315,101.248 C69.0515,101.306 73.4325,102.441 79.8315,102.441 C81.1695,102.441 82.5985,102.392 84.0925,102.272 C104.9265,100.522 105.5065,83.552 106.0175,68.58 C106.1495,64.696 106.2755,61.028 106.7205,57.627 C106.8375,56.736 106.3805,55.869 105.5815,55.46 L105.5815,55.46 Z" id="Fill-9" fill="#424242" mask="url(#mask-2)"></path>
        </g>
    </g>
</svg>