<?xml version="1.0" encoding="UTF-8"?>
<svg width="105px" height="136px" viewBox="0 0 105 136" version="1.1" xmlns="http://www.w3.org/2000/svg" xmlns:xlink="http://www.w3.org/1999/xlink">
    <title>Group 13</title>
    <defs>
        <polygon id="path-1" points="0.000127271931 0.0307 104.791 0.0307 104.791 134.9997 0.000127271931 134.9997"></polygon>
        <polygon id="path-3" points="0 135 104.791 135 104.791 0.03 0 0.03"></polygon>
    </defs>
    <g id="Page-1" stroke="none" stroke-width="1" fill="none" fill-rule="evenodd">
        <g id="Group-13">
            <polygon id="Fill-1" fill="#F9ED32" points="24.253 132.917 39.92 132.917 39.92 93.492 24.253 93.492"></polygon>
            <polygon id="Fill-2" fill="#84C2D9" points="52.395 106.492 66.003 106.492 66.003 93.492 52.395 93.492"></polygon>
            <g id="Group-12" transform="translate(0.000000, 0.970000)">
                <path d="M82.6548,54.5352 C82.0658,54.2652 81.4768,53.9952 80.8878,53.7262 C80.0358,53.3352 79.1248,52.8922 78.6838,52.0642 C78.3628,51.4602 78.3458,50.7462 78.3368,50.0632 C78.3198,48.8612 78.3028,47.6592 78.2868,46.4572 C78.2768,45.7992 78.2688,45.1352 78.4008,44.4902 C78.5758,43.6392 78.9878,42.8592 79.4008,42.0952 C80.7698,39.5652 82.2818,36.9812 84.6578,35.3592 C85.2978,34.9222 85.9878,34.5652 86.6778,34.2142 C91.7678,31.6232 96.9868,29.2872 102.3088,27.2162 C102.3168,29.9312 102.3248,32.6472 102.3328,35.3632 C102.3348,36.0772 102.3368,36.7952 102.2238,37.5012 C102.0948,38.3052 101.8198,39.0772 101.5458,39.8442 C100.7408,42.0992 99.9358,44.3542 99.1298,46.6092 C98.8748,47.3232 98.6188,48.0392 98.2998,48.7282 C97.6908,50.0412 96.8588,51.2372 96.0318,52.4262 C95.7438,52.8402 95.4518,53.2592 95.0788,53.6002 C94.7708,53.8832 94.4128,54.1072 94.0488,54.3142 C91.4678,55.7772 88.3388,56.4272 85.4768,55.6462 C84.4998,55.3802 83.5748,54.9562 82.6548,54.5352" id="Fill-3" fill="#51D489"></path>
                <path d="M71.787,25.1792 C71.87,23.9372 71.952,22.6722 71.662,21.4622 C71.408,20.3982 70.877,19.4242 70.343,18.4712 C69.548,17.0552 68.732,15.6512 67.894,14.2602 C67.136,13.0042 66.349,11.7432 65.283,10.7352 C64.098,9.6132 62.623,8.8532 61.153,8.1442 C53.271,4.3422 44.578,1.5182 35.877,2.4512 C31.789,2.8892 27.723,4.1502 23.642,3.6542 C27.412,9.2542 31.195,14.8782 34.142,20.9532 C35.712,24.1912 37.043,27.5522 38.864,30.6572 C40.685,33.7612 43.065,36.6472 46.218,38.3822 C47.928,39.3232 49.812,39.8972 51.681,40.4632 C53.858,41.1222 56.04,41.7792 58.269,42.2292 C61.652,42.9122 65.131,43.1142 68.569,42.8272 C70.728,39.9732 71.048,36.1772 71.288,32.6062 C71.454,30.1312 71.621,27.6552 71.787,25.1792" id="Fill-5" fill="#51D489"></path>
                <g id="Group-9">
                    <mask id="mask-2" fill="white">
                        <use xlink:href="#path-1"></use>
                    </mask>
                    <g id="Clip-8"></g>
                    <path d="M94.7623,50.9557 C93.2163,52.9597 91.0993,53.9327 88.2923,53.9327 C86.0763,53.9327 83.8793,53.3147 82.2013,52.6837 C86.2473,48.6157 91.2813,44.2067 93.7643,42.1287 C94.6623,41.3757 94.7813,40.0357 94.0293,39.1367 C93.2763,38.2367 91.9373,38.1187 91.0373,38.8707 C90.1043,39.6517 84.8653,44.0757 80.1523,48.7247 C79.7913,44.2957 80.3523,38.4987 95.0123,32.1687 C96.9033,31.4967 98.8693,30.8147 100.4173,30.2837 C100.0893,35.3577 98.9223,45.5657 94.7623,50.9557 L94.7623,50.9557 Z M35.9303,20.6407 C33.7003,15.8187 31.2243,10.4667 27.0823,5.2397 C28.1383,5.1527 29.1853,5.0627 30.2203,4.9737 C34.3653,4.6167 38.2783,4.2787 42.0453,4.2787 C51.6603,4.2787 58.3243,6.6757 64.3273,12.2937 C71.5053,19.0097 70.1313,29.8987 68.2813,37.0717 C60.9933,22.9607 47.4033,13.8987 46.7593,13.4757 C45.7793,12.8317 44.4653,13.1047 43.8183,14.0837 C43.1743,15.0627 43.4453,16.3797 44.4253,17.0247 C44.5803,17.1267 59.0183,26.7667 65.4663,40.9947 C62.4223,40.7787 57.2833,40.0927 51.3063,37.9717 C42.5393,34.9327 39.6233,28.6257 35.9303,20.6407 L35.9303,20.6407 Z M78.5943,128.0767 C78.5943,129.5517 77.3943,130.7517 75.9183,130.7517 L41.3063,130.7517 L41.3063,92.1017 C41.3063,90.9287 40.3543,89.9777 39.1813,89.9777 L25.0213,89.9777 C23.8483,89.9777 22.8973,90.9287 22.8973,92.1017 L22.8973,130.7517 L15.2683,130.7517 C13.7923,130.7517 12.5923,129.5517 12.5923,128.0767 L12.5923,74.5057 C12.5923,73.0307 13.7923,71.8307 15.2683,71.8307 L75.9183,71.8307 C77.3943,71.8307 78.5943,73.0307 78.5943,74.5057 L78.5943,128.0767 Z M27.1453,130.7517 L37.0573,130.7517 L37.0573,94.2257 L27.1453,94.2257 L27.1453,130.7517 Z M103.9083,25.5497 C103.3523,25.1487 102.6353,25.0407 101.9883,25.2597 C101.9883,25.2597 97.6213,26.7327 93.4583,28.2177 C74.6253,36.3437 75.5003,45.0187 76.0233,50.2017 C76.1273,51.2237 76.2243,52.1867 76.1093,52.7897 C76.0973,52.8517 76.1093,52.9127 76.1033,52.9747 C75.4033,53.7707 74.7553,54.5447 74.2113,55.2687 L71.8503,53.1177 C71.8893,51.4317 71.8443,47.4837 70.8563,43.2987 C72.9963,36.8517 78.3233,19.5737 67.2303,9.1917 C58.5543,1.0717 49.2133,0.0307 42.0453,0.0307 C38.0963,0.0307 34.0943,0.3757 29.8563,0.7407 C27.4783,0.9467 25.0503,1.1557 22.5653,1.3077 C21.7403,1.3567 21.0193,1.8817 20.7163,2.6507 C20.4153,3.4207 20.5863,4.2947 21.1573,4.8927 C26.6133,10.6117 29.3903,16.6157 32.0743,22.4237 C35.8633,30.6157 39.4413,38.3547 49.9003,41.9807 C57.5513,44.6957 63.8683,45.2397 66.9503,45.3237 C67.8123,49.7067 67.5813,53.6577 67.5783,53.7017 C67.5763,53.7337 67.5823,53.7637 67.5823,53.7957 C67.5813,53.8117 67.5773,53.8277 67.5773,53.8447 C67.5773,53.8617 67.5853,53.8777 67.5863,53.8947 C67.5923,54.1207 67.6243,54.3417 67.6973,54.5457 C67.7003,54.5547 67.7053,54.5627 67.7093,54.5717 C67.7813,54.7657 67.8843,54.9417 68.0073,55.1047 C68.0243,55.1277 68.0303,55.1567 68.0483,55.1797 L68.6253,55.8927 C68.6933,55.9767 68.7673,56.0557 68.8463,56.1277 L86.0993,71.8497 C86.1983,71.9747 86.2963,72.1417 86.3503,72.2677 C86.0693,72.4587 85.1373,72.9017 82.6863,73.0647 C82.0213,69.9377 79.2423,67.5827 75.9183,67.5827 L15.2683,67.5827 C11.6193,67.5827 8.6523,70.4287 8.3943,74.0127 C5.0043,73.8007 4.2953,73.1047 4.2513,73.1367 C4.2663,72.8867 4.6573,72.2667 5.1103,71.8197 L36.7203,38.0007 C37.5213,37.1427 37.4763,35.7987 36.6193,34.9987 C35.7633,34.1977 34.4183,34.2427 33.6173,35.0987 L2.0923,68.8327 C1.7853,69.1247 -0.8627,71.7667 0.2883,74.6357 C1.3733,77.3457 5.0093,78.0897 8.3443,78.2697 L8.3443,128.0767 C8.3443,131.8947 11.4503,134.9997 15.2683,134.9997 L25.0213,134.9997 L39.1813,134.9997 L75.9183,134.9997 C79.7363,134.9997 82.8423,131.8947 82.8423,128.0767 L82.8423,77.3217 C85.9123,77.1397 89.2333,76.4277 90.3183,73.9397 C91.1493,72.0347 90.2263,70.0467 89.1853,68.9247 C89.1453,68.8807 89.1023,68.8397 89.0593,68.7997 L77.3643,58.1427 C77.8273,57.4927 78.4083,56.7727 79.0843,55.9987 C81.1623,56.9277 84.6393,58.1807 88.2923,58.1807 C92.3863,58.1807 95.7873,56.5807 98.1253,53.5517 C104.6453,45.1037 104.7883,28.0047 104.791309,27.2807 C104.7933,26.5957 104.4663,25.9507 103.9083,25.5497 L103.9083,25.5497 Z" id="Fill-7" fill="#424242" mask="url(#mask-2)"></path>
                </g>
                <mask id="mask-4" fill="white">
                    <use xlink:href="#path-3"></use>
                </mask>
                <g id="Clip-11"></g>
                <path d="M54.05,104.139 L63.962,104.139 L63.962,94.227 L54.05,94.227 L54.05,104.139 Z M66.086,89.978 L51.926,89.978 C50.753,89.978 49.802,90.929 49.802,92.102 L49.802,106.262 C49.802,107.436 50.753,108.387 51.926,108.387 L66.086,108.387 C67.259,108.387 68.21,107.436 68.21,106.262 L68.21,92.102 C68.21,90.929 67.259,89.978 66.086,89.978 L66.086,89.978 Z" id="Fill-10" fill="#424242" mask="url(#mask-4)"></path>
            </g>
        </g>
    </g>
</svg>