<?xml version="1.0" encoding="UTF-8"?>
<svg width="500px" height="59px" viewBox="0 0 500 59" version="1.1" xmlns="http://www.w3.org/2000/svg" xmlns:xlink="http://www.w3.org/1999/xlink">
    <title>telegram_logo_white.5f49895</title>
    <g id="Page-1" stroke="none" stroke-width="1" fill="none" fill-rule="evenodd">
        <g id="telegram_logo_white.5f49895" fill="#DC1637" fill-rule="nonzero">
            <path d="M104.3,36.3 C104.3,36.6 102.8,46.7 96,46.7 L85.3,46.7 L85.3,33.4 L99.2,33.4 L99.2,22.2 L85.3,22.2 L85.3,12.2 L98.8,12.2 C100.3,12.4 101.5,13 102.4,13.9 C103.8,15.3 104.2,17.2 104.3,18.2 L104.5,20.5 L114.2,20.4 L114.2,0.1 L98.5,0.1 L64.6,0.1 L64.6,12.2 L70.3,12.2 L70.3,46.6 L64.6,46.6 L64.6,58.6 L114.2,58.6 L114.2,34.1 L104.5,34.1 L104.3,36.3 Z" id="Path"></path>
            <path d="M214.2,36.2 C214.2,36.5 212.7,46.6 205.9,46.6 L195.2,46.6 L195.2,33.3 L209,33.3 L209,22.2 L195.1,22.2 L195.1,12.2 L208.6,12.2 C210.1,12.4 211.3,13 212.2,13.9 C213.6,15.3 214,17.2 214.1,18.2 L214.3,20.5 L224,20.4 L224,0.1 L208.3,0.1 L174.4,0.1 L174.4,12.2 L180.1,12.2 L180.1,46.6 L174.4,46.6 L174.4,58.6 L224,58.6 L224,34 L214.3,34 L214.2,36.2 Z" id="Path"></path>
            <path d="M157.2,32.5 C157.2,33.1 156,46.1 150.4,46.5 L141.7,46.5 L141.7,12.1 L147.1,12.1 L147.1,0 L119.4,0 L119.4,12.1 L125.6,12.1 L125.6,46.5 L121.1,46.5 L121.1,58.6 L168.1,58.6 L168.1,30.2 L157.3,30.2 L157.2,32.5 Z" id="Path"></path>
            <path d="M260.7,36.6 L269.1,36.6 L269.1,37.9 C268.7,43.7 261.8,44.4 258.9,44.4 L258.8,44.4 C256,44.4 251.8,43 248.7,39.9 C246.1,37.3 244.6,33.7 244.6,29.7 C244.8,21.9 249.2,14.1 258.5,14.1 L258.9,14.1 C261.8,14.2 265.7,15.3 267.7,17.2 C268.1,17.6 268.5,18.1 268.7,18.6 L269.4,20 L282,20 L282,1.2 L268.3,1.2 L268.3,1.7 C265.3,0.6 262.4,0 259.5,0 C259.1,0 258.8,0 258.5,0 C258.3,0 258.3,0 258.2,0 C250.7,0 243.7,3 238.7,8.4 C233.7,13.8 231,21.2 231,29.2 C231,37.5 234.1,45.2 239.8,50.8 C244.5,55.5 250.6,58.3 256.4,58.5 C261.7,58.7 265.4,58.2 269,57 L269,58.5 L283.1,58.5 L283.1,36.5 L288.1,36.5 L288.1,25.5 L260.7,25.5 L260.7,36.6 Z" id="Path"></path>
            <path d="M0,26.1 L12.2,26.1 L12.2,23.6 C12.1,18.6 13,15.2 14.7,13.4 C15.7,12.3 16.7,12.3 16.9,12.3 L19.6,12.3 L19.6,46.6 L10.9,46.6 L10.9,58.7 L49.7,58.7 L49.7,46.8 L38.6,46.8 L38.6,12.4 L40.2,12.4 L40.6,12.4 C42.1,12.4 43.2,12.8 44.2,13.8 C46,15.6 46.9,18.8 47.1,23.8 L47.2,26.2 L58.9,26.2 L58.9,0.3 L0,0.3 L0,26.1 Z" id="Path"></path>
            <path d="M341.1,35.4 C348.8,32.1 352.6,26.5 352.7,18.3 C352.7,13.5 351.3,9.6 348.5,6.7 C342.4,0.6 331.4,0.1 318.6,0.1 L289.6,0.1 L289.6,12.2 L297.2,12.2 L297.2,46.5 L289.7,46.5 L289.7,58.5 L320.9,58.5 L321,46.4 L314.6,46.4 L314.6,38.5 L326.3,38.5 L336.3,58.4 L353.4,58.4 L353.4,46.4 L347.2,46.3 L341.1,35.4 Z M314.6,12.2 L315.5,12.2 C316.8,12.2 318.3,12.2 319.9,12.2 L321.1,12.2 C325.8,12.2 326.6,12.2 326.8,12.2 L327.4,12.2 C330.4,12.3 334.2,12.7 336.2,14.7 C337.2,15.7 337.7,17.2 337.7,18.9 C337.7,23.3 336,26.2 327.9,26.2 C326.7,26.2 325.6,26.2 324.6,26.2 L324.3,26.2 C323.8,26.2 323.3,26.2 322.9,26.2 C318.9,26.2 316.2,26.2 314.5,26.2 L314.6,12.2 Z" id="Shape"></path>
            <path d="M402.6,12.2 L408.8,12.2 L408.8,0.2 L371.3,0.2 L371.3,12.2 L378.3,12.1 L363.2,46.5 L358.9,46.5 L358.9,58.5 L387.6,58.5 L387.6,46.5 L380.1,46.5 L381.9,42.6 L399.2,42.6 L401,46.5 L394,46.5 L394,58.6 L422.7,58.6 L422.7,46.6 L417.6,46.6 L402.6,12.2 Z M395.6,34.1 L385.5,34.1 L390.6,21.6 L395.6,34.1 Z" id="Shape"></path>
            <polygon id="Path" points="499.7 11 499.7 0.2 473.2 0.2 462 22.9 453.1 0.2 425.7 0.2 425.7 11.1 432 11.1 432 46.6 427 46.6 427 58.6 454 58.6 454 46.6 449.3 46.6 449.2 30.6 461.3 58.2 476.3 28.9 476.3 46.6 471.8 46.6 471.8 58.5 498.8 58.5 498.8 46.6 493.5 46.6 493.5 11"></polygon>
        </g>
    </g>
</svg>