<?xml version="1.0" encoding="UTF-8"?>
<svg id="Layer_1" xmlns="http://www.w3.org/2000/svg" version="1.1" viewBox="0 0 535 364">
  <!-- Generator: Adobe Illustrator 29.0.1, SVG Export Plug-In . SVG Version: 2.1.0 Build 192)  -->
  <defs>
    <style>
      .st0 {
        fill: #fff;
      }

      .st1 {
        fill: #019cdd;
      }
    </style>
  </defs>
  <rect class="st1" x="210.5" y="61" width="114" height="149.2"/>
  <g>
    <path class="st0" d="M70.1,124.1c-6.7,0-11-4.9-11-10.6v-14.3h5.5v14.3c0,3.5,2.3,5.7,5.5,5.7s5.5-2.1,5.5-5.7v-14.3h5.5v14.3c0,5.7-4.4,10.6-11,10.6Z"/>
    <path class="st0" d="M108.5,115.4h-7.4v8.4h-5.5v-24.5h12.9c4.9,0,8.3,3.6,8.3,8s-3.4,8.1-8.3,8.1ZM107.6,103.6h-6.4v7.3h6.4c1.9,0,3.5-1.6,3.5-3.7s-1.6-3.6-3.5-3.6Z"/>
    <path class="st0" d="M131.8,124.1c-7,0-12.5-5.6-12.5-12.6s5.5-12.7,12.5-12.7,12.5,5.7,12.5,12.7-5.5,12.6-12.5,12.6ZM131.8,103.8c-4.5,0-7,3.3-7,7.8s2.5,7.7,7,7.7,7-3.3,7-7.7-2.5-7.8-7-7.8Z"/>
    <path class="st0" d="M159.4,104.1v19.7h-5.5v-19.7h-8.1v-4.8h21.6v4.8h-8Z"/>
    <path class="st0" d="M188.1,123.7l-6.4-8.8h-5.2v8.8h-5.5v-24.5h13.3c4.7,0,8.1,3.6,8.1,7.9s-1.7,5.7-4.5,7l7.1,9.6h-6.8ZM183.3,103.7h-6.7v7h6.7c1.9,0,3.5-1.5,3.5-3.5s-1.6-3.4-3.5-3.4Z"/>
    <path class="st0" d="M215.1,123.7l-1.9-5h-9l-1.9,5h-5.4l9.3-24.5h5.1l9.3,24.5h-5.4ZM208.7,104.7l-3.2,9.8h6.4l-3.2-9.8Z"/>
    <path class="st0" d="M223.8,123.7v-5l13.4-14.8h-13.1v-4.7h19.6v4.9l-13.3,14.9h13.8v4.7h-20.5Z"/>
    <path class="st0" d="M249.2,123.7v-24.5h5.5v24.5h-5.5Z"/>
    <path class="st0" d="M268.3,123.7v-5l13.4-14.8h-13.1v-4.7h19.6v4.9l-13.3,14.9h13.8v4.7h-20.5Z"/>
    <path class="st0" d="M309.6,123.7l-1.9-5h-9.1l-1.9,5h-5.4l9.3-24.5h5.1l9.3,24.5h-5.4ZM303.2,104.7l-3.2,9.8h6.4l-3.2-9.8Z"/>
    <path class="st0" d="M344.2,123.7l-11.8-16.2v16.2h-5.4v-24.5h5.4l11.8,16.2v-16.2h5.4v24.5h-5.4Z"/>
    <path class="st0" d="M358.2,123.9h-3.5v-4.3h3.3c2.1,0,2.8-1.5,2.8-3.8v-12.1h-5.7v-4.5h11.2v16.7c0,4.9-2.4,7.9-8.2,7.9Z"/>
    <path class="st0" d="M372.7,123.7v-24.5h18v4.7h-12.5v4.7h11.8v4.7h-11.8v5.5h12.5v4.7h-18Z"/>
    <path class="st0" d="M408.2,124.1c-8.6,0-13.9-5.6-13.9-12.6s5.9-12.7,13.8-12.7,5,.3,7.1.8l-.7,4.6c-2.1-.4-3.6-.5-5.7-.5-6,0-9,2.8-9,7.8s2.8,7.7,7.9,7.7,2.5,0,3.6-.3v-7.9h5.2v11.9c-1.9.6-6,1.1-8.3,1.1Z"/>
    <path class="st0" d="M432.6,124.1c-7,0-12.5-5.6-12.5-12.6s5.5-12.7,12.5-12.7,12.5,5.7,12.5,12.7-5.5,12.6-12.5,12.6ZM432.6,103.8c-4.5,0-7,3.3-7,7.8s2.5,7.7,7,7.7,7-3.3,7-7.7-2.5-7.8-7-7.8Z"/>
    <path class="st0" d="M470.3,123.7v-14.8l-6.1,10.2h-3l-6-10.3v14.8h-5.3v-24.5h5.3l7.5,12.8,7.5-12.8h5.3v24.5h-5.3Z"/>
    <path class="st0" d="M16.3,167.9l-9.6-10v10H1.2v-24.5h5.5v9.5l9.1-9.5h7.3l-12,11.9,12.5,12.6h-7.3Z"/>
    <path class="st0" d="M36.4,168.3c-7,0-12.5-5.6-12.5-12.6s5.5-12.7,12.5-12.7,12.5,5.7,12.5,12.7-5.5,12.6-12.5,12.6ZM36.4,147.9c-4.5,0-7,3.3-7,7.8s2.5,7.7,7,7.7,7-3.3,7-7.7-2.5-7.8-7-7.8Z"/>
    <path class="st0" d="M55.7,168h-3.5v-4.3h3.3c2.1,0,2.8-1.5,2.8-3.8v-12.1h-5.7v-4.5h11.2v16.7c0,4.9-2.4,7.9-8.2,7.9Z"/>
    <path class="st0" d="M80.8,168.3c-6.7,0-11-4.9-11-10.6v-14.3h5.5v14.3c0,3.5,2.3,5.7,5.5,5.7s5.5-2.1,5.5-5.7v-14.3h5.5v14.3c0,5.7-4.4,10.6-11,10.6Z"/>
    <path class="st0" d="M123.7,167.9l-11.8-16.2v16.2h-5.4v-24.5h5.4l11.8,16.2v-16.2h5.4v24.5h-5.4Z"/>
    <path class="st0" d="M151,167.9l-1.9-5h-9l-1.9,5h-5.4l9.3-24.5h5.1l9.3,24.5h-5.4ZM144.6,148.9l-3.2,9.8h6.4l-3.2-9.8Z"/>
    <path class="st0" d="M169,168.3c-3.2,0-6.8-.7-10.3-2.1l1.1-4.2c3.1,1,6.2,1.6,9,1.6s5-.7,5-2.5-1.4-1.8-5.9-3.5c-5.5-2.1-8.3-3.5-8.3-7.8s3.2-6.8,10.1-6.8,6.4.5,8.9,1.3l-.8,4.5c-2.2-.6-5.4-1-8-1s-4.7.5-4.7,1.9,1.5,2,6.5,3.9c5.2,2,7.7,2.8,7.7,7.4s-4.4,7.4-10.4,7.4ZM167.3,136.6l1.7,2.1,1.7-2.1h4.4l-4.1,4.9h-3.8l-4.1-4.9h4.4Z"/>
    <path class="st0" d="M199.8,167.9l-1.9-5h-9l-1.9,5h-5.4l9.3-24.5h5.1l9.3,24.5h-5.4ZM193.4,148.9l-3.2,9.8h6.4l-3.2-9.8Z"/>
    <path class="st0" d="M232.3,167.9l-9.6-10v10h-5.5v-24.5h5.5v9.5l9.1-9.5h7.3l-12,11.9,12.5,12.6h-7.3Z"/>
    <path class="st0" d="M252.4,168.3c-7,0-12.5-5.6-12.5-12.6s5.5-12.7,12.5-12.7,12.5,5.7,12.5,12.7-5.5,12.6-12.5,12.6ZM252.4,147.9c-4.5,0-7,3.3-7,7.8s2.5,7.7,7,7.7,7-3.3,7-7.7-2.5-7.8-7-7.8Z"/>
    <path class="st0" d="M268.2,167.9v-5l13.4-14.8h-13.1v-4.7h19.6v4.9l-13.3,14.9h13.8v4.7h-20.5ZM276.6,136.6l1.7,2.1,1.7-2.1h4.4l-4.1,4.9h-3.8l-4.1-4.9h4.4Z"/>
    <path class="st0" d="M309.5,167.9l-1.9-5h-9.1l-1.9,5h-5.4l9.3-24.5h5.1l9.3,24.5h-5.4ZM303.1,148.9l-3.2,9.8h6.4l-3.2-9.8Z"/>
    <path class="st0" d="M325.4,167.9v-5l13.4-14.8h-13.1v-4.7h19.6v4.9l-13.3,14.9h13.8v4.7h-20.5Z"/>
    <path class="st0" d="M366.6,167.9l-1.9-5h-9.1l-1.9,5h-5.4l9.3-24.5h5.1l9.3,24.5h-5.4ZM360.2,148.9l-3.2,9.8h6.4l-3.2-9.8Z"/>
    <path class="st0" d="M384.7,168.3c-3.2,0-6.8-.7-10.3-2.1l1.1-4.2c3.1,1,6.2,1.6,9,1.6s5-.7,5-2.5-1.4-1.8-5.9-3.5c-5.5-2.1-8.3-3.5-8.3-7.8s3.2-6.8,10.1-6.8,6.4.5,8.9,1.3l-.8,4.5c-2.2-.6-5.4-1-8-1s-4.7.5-4.7,1.9,1.5,2,6.5,3.9c5.2,2,7.7,2.8,7.7,7.4s-4.4,7.4-10.4,7.4Z"/>
    <path class="st0" d="M400.2,167.9v-24.5h5.5v19.8h11.8v4.7h-17.3Z"/>
    <path class="st0" d="M431.5,168.3c-6.7,0-11-4.9-11-10.6v-14.3h5.5v14.3c0,3.5,2.3,5.7,5.5,5.7s5.5-2.1,5.5-5.7v-14.3h5.5v14.3c0,5.7-4.4,10.6-11,10.6Z"/>
    <path class="st0" d="M447.3,167.9v-5l13.4-14.8h-13.1v-4.7h19.6v4.9l-13.3,14.9h13.8v4.7h-20.5ZM455.7,136.6l1.7,2.1,1.7-2.1h4.4l-4.1,4.9h-3.8l-4.1-4.9h4.4Z"/>
    <path class="st0" d="M483.2,168.3c-6.7,0-11-4.9-11-10.6v-14.3h5.5v14.3c0,3.5,2.3,5.7,5.5,5.7s5.5-2.1,5.5-5.7v-14.3h5.5v14.3c0,5.7-4.4,10.6-11,10.6Z"/>
    <path class="st0" d="M502.5,168h-3.5v-4.3h3.3c2.1,0,2.8-1.5,2.8-3.8v-12.1h-5.7v-4.5h11.2v16.7c0,4.9-2.4,7.9-8.2,7.9Z"/>
    <path class="st0" d="M516.9,167.9v-24.5h18v4.7h-12.5v4.7h11.8v4.7h-11.8v5.5h12.5v4.7h-18Z"/>
  </g>
  <g>
    <path class="st0" d="M271,263.2l-8.9-10.4h.7l8.6,10,8.6-10h.7l-8.9,10.4,9.2,10.9h-.7l-8.9-10.5-8.9,10.5h-.7l9.2-10.9h-.1Z"/>
    <g>
      <path class="st0" d="M311.1,256.9c-.8-1-2.5-1.6-3.7-1.6s-3.4.7-3.4,2.4c0,4.2,10.6,1.5,10.6,9.6s-4.2,7.6-8.9,7.6-5.6-.9-7.8-2.9l3.6-4c1,1.3,2.8,2.2,4.5,2.2s3.5-.7,3.5-2.4c0-4.2-10.8-1.9-10.8-9.6s4.2-7.5,8.8-7.5,5.1.7,7.1,2.4l-3.5,3.8h0Z"/>
      <path class="st0" d="M344.4,265.4c0,5.4-3.4,9.5-9.7,9.5s-9.8-4-9.8-9.5v-14.2h5.1v14c0,2.8,1.9,5,4.7,5s4.6-2.2,4.6-5v-14h5.1v14.2h0Z"/>
      <path class="st0" d="M355.6,251.3h8.6c4.8,0,8.8,1.6,8.8,7s-3.7,7.1-8.6,7.1h-3.7v9h-5.1v-23h0ZM360.7,261h3.4c1.8,0,3.6-.6,3.6-2.8s-2.4-2.7-4.4-2.7h-2.6v5.4h0Z"/>
      <path class="st0" d="M382.8,251.3h15.7v4.7h-10.6v4.3h10v4.7h-10v4.7h11.2v4.7h-16.2v-23h0Z"/>
      <path class="st0" d="M409.7,251.3h8.9c4.7,0,8.7,1.6,8.7,7s-1.7,5.7-5,6.3l5.9,9.8h-6.1l-4.8-9.2h-2.5v9.2h-5.1v-23.1h0ZM414.7,260.8h3c1.9,0,4.2,0,4.2-2.5s-2.1-2.7-4-2.7h-3.3v5.2h0Z"/>
      <path class="st0" d="M444.3,256.7l-4.6,4.1-2.8-3.2,7.5-6.3h4.5v23h-4.7v-17.6Z"/>
    </g>
    <g>
      <g>
        <path class="st0" d="M184.8,260.8h-5.8v6.7h-2.3v-17h8.1c3.3,0,5.4,2.5,5.4,5.2s-2,5.2-5.4,5.2ZM184.6,252.4h-5.6v6.5h5.6c1.9,0,3.2-1.4,3.2-3.2s-1.5-3.2-3.2-3.2Z"/>
        <path class="st0" d="M197.9,267.8c-4.8,0-8.2-4-8.2-8.8s3.4-8.8,8.2-8.8,8.2,4,8.2,8.8-3.4,8.8-8.2,8.8ZM197.9,252.3c-3.6,0-5.9,2.9-5.9,6.7s2.3,6.7,5.9,6.7,5.9-2.9,5.9-6.7-2.3-6.7-5.9-6.7Z"/>
        <path class="st0" d="M212.8,267.8c-2.2,0-4.6-.5-6.9-1.4l.5-1.8c2.1.7,4.4,1.2,6.3,1.2s4.3-1.1,4.3-2.6-.8-2-4.7-3.5c-4.5-1.7-5.9-2.8-5.9-5.4s2.3-4.1,6.5-4.1,4.3.3,6,.9l-.4,1.9c-1.7-.4-3.7-.7-5.5-.7-3,0-4.2.5-4.2,2s1.1,2.2,5.1,3.8c4.4,1.7,5.5,2.7,5.5,5.1s-2.6,4.6-6.6,4.6Z"/>
        <path class="st0" d="M231.8,267.5l-1.7-4.3h-7.6l-1.7,4.3h-2.3l6.8-17h2l6.8,17h-2.3ZM226.3,253l-3.2,8.3h6.3l-3.1-8.3Z"/>
        <path class="st0" d="M239,260.7v6.8h-2.3v-6.8l-6.5-10.2h2.4l5.3,8.1,5.2-8.1h2.4l-6.5,10.2Z"/>
      </g>
      <g>
        <path class="st0" d="M67.8,267.5v-17h2.3v15h8.7v2h-11Z"/>
        <path class="st0" d="M91.6,267.5l-1.7-4.3h-7.6l-1.7,4.3h-2.3l6.8-17h2l6.8,17h-2.3ZM86.1,253l-3.2,8.3h6.3l-3.1-8.3Z"/>
      </g>
      <g>
        <path class="st0" d="M110.3,267.5l-5.1-6.9h-5.1v6.9h-2.3v-17h8.2c3.3,0,5.3,2.4,5.3,5.1s-1.3,4.1-3.5,4.7l5.3,7.2h-2.8ZM105.7,252.4h-5.6v6.3h5.6c1.9,0,3.2-1.3,3.2-3.1s-1.5-3.1-3.2-3.1Z"/>
        <path class="st0" d="M120.1,267.8c-4.8,0-8.2-4-8.2-8.8s3.4-8.8,8.2-8.8,8.2,4,8.2,8.8-3.4,8.8-8.2,8.8ZM120.1,252.3c-3.6,0-5.9,2.9-5.9,6.7s2.3,6.7,5.9,6.7,5.9-2.9,5.9-6.7-2.3-6.7-5.9-6.7Z"/>
        <path class="st0" d="M141.5,252.8c-1.1-.3-2.5-.5-3.8-.5-4.4,0-7.2,2.7-7.2,6.7s2.8,6.7,7.2,6.7,2.3-.2,3.8-.5l.5,1.9c-1.4.4-2.9.7-4.4.7-5.5,0-9.4-3.9-9.4-8.8s3.9-8.8,9.4-8.8,3,.2,4.4.6l-.5,1.9Z"/>
        <path class="st0" d="M154.7,267.5v-7.7h-8.9v7.7h-2.3v-17h2.3v7.3h8.9v-7.3h2.4v17h-2.4Z"/>
        <path class="st0" d="M159.1,267.5v-17h11.7v2h-9.4v5.2h8.8v2h-8.8v5.8h9.4v2h-11.7Z"/>
      </g>
      <g>
        <path class="st0" d="M88.5,277.1v-6.7h.6v6.1h3.5v.5h-4.1Z"/>
        <path class="st0" d="M97.9,277.1l-.7-1.9h-3.3l-.7,1.9h-.6l2.8-6.7h.4l2.8,6.7h-.6ZM95.5,271.2l-1.4,3.6h2.9l-1.4-3.6Z"/>
        <path class="st0" d="M101.7,277.1h-3v-6.7h2.7c1.4,0,2.1.7,2.1,1.7s-.4,1.2-1,1.5c.8.3,1.2.9,1.2,1.6s-.7,1.8-2,1.8ZM101.4,271h-2.1v2.4h2.1c.8,0,1.6-.4,1.6-1.2s-.6-1.2-1.5-1.2ZM101.7,274h-2.3v2.7h2.4c.9,0,1.5-.5,1.5-1.3s-.5-1.3-1.5-1.3Z"/>
        <path class="st0" d="M107,277.3c-1.9,0-3.1-1.6-3.1-3.4s1.3-3.4,3.1-3.4,3.1,1.6,3.1,3.4-1.3,3.4-3.1,3.4ZM107,270.9c-1.5,0-2.5,1.2-2.5,2.9s1,2.9,2.5,2.9,2.5-1.2,2.5-2.9-1-2.9-2.5-2.9Z"/>
        <path class="st0" d="M115.8,277.1l-2.1-2.9h-2.3v2.9h-.6v-6.7h3c1.3,0,2,.9,2,1.9s-.5,1.6-1.5,1.8l2.2,2.9h-.7ZM113.8,271h-2.4v2.7h2.4c.9,0,1.4-.5,1.4-1.4s-.7-1.4-1.4-1.4Z"/>
        <path class="st0" d="M121.6,277.1l-.7-1.9h-3.3l-.7,1.9h-.6l2.8-6.7h.4l2.8,6.7h-.6ZM119.2,271.2l-1.4,3.6h2.9l-1.4-3.6Z"/>
        <path class="st0" d="M124.1,271v6.1h-.6v-6.1h-2.3v-.5h5.2v.5h-2.3Z"/>
        <path class="st0" d="M129.1,277.3c-1.9,0-3.1-1.6-3.1-3.4s1.3-3.4,3.1-3.4,3.1,1.6,3.1,3.4-1.3,3.4-3.1,3.4ZM129.1,270.9c-1.5,0-2.5,1.2-2.5,2.9s1,2.9,2.5,2.9,2.5-1.2,2.5-2.9-1-2.9-2.5-2.9Z"/>
        <path class="st0" d="M132.9,277.1v-6.7h.6v6.7h-.6Z"/>
        <path class="st0" d="M139.7,277.1l-2.1-2.9h-2.3v2.9h-.6v-6.7h3c1.3,0,2,.9,2,1.9s-.5,1.6-1.5,1.8l2.2,2.9h-.7ZM137.7,271h-2.4v2.7h2.4c.9,0,1.4-.5,1.4-1.4s-.7-1.4-1.4-1.4Z"/>
        <path class="st0" d="M140.7,277.1v-6.7h4.4v.5h-3.8v2.4h3.6v.5h-3.6v2.7h3.8v.5h-4.4Z"/>
      </g>
      <g>
        <path class="st0" d="M148.5,277.1h-1.3v-6.7h1.3c2.3,0,3.9,1.4,3.9,3.3s-1.6,3.3-3.9,3.3ZM148.6,271h-.8v5.6h.8c1.6,0,3.2-1,3.2-2.8s-1.6-2.8-3.2-2.8Z"/>
        <path class="st0" d="M152.9,277.1v-6.7h4.4v.5h-3.8v2.4h3.6v.5h-3.6v2.7h3.8v.5h-4.4Z"/>
        <path class="st0" d="M163.1,277.1l-2.1-2.9h-2.3v2.9h-.6v-6.7h3c1.3,0,2,.9,2,1.9s-.5,1.6-1.5,1.8l2.2,2.9h-.7ZM161.1,271h-2.4v2.7h2.4c.9,0,1.4-.5,1.4-1.4s-.7-1.4-1.4-1.4Z"/>
        <path class="st0" d="M169.7,277.1v-5.6l-2.3,4.7h-.4l-2.3-4.7v5.6h-.6v-6.7h.6l2.5,5,2.5-5h.6v6.7h-.6Z"/>
        <path class="st0" d="M175.9,277.1l-.7-1.9h-3.3l-.7,1.9h-.6l2.8-6.7h.4l2.8,6.7h-.6ZM173.5,271.2l-1.4,3.6h2.9l-1.4-3.6Z"/>
        <path class="st0" d="M178.4,271v6.1h-.6v-6.1h-2.3v-.5h5.2v.5h-2.3Z"/>
        <path class="st0" d="M183.4,277.3c-1.9,0-3.1-1.6-3.1-3.4s1.3-3.4,3.1-3.4,3.1,1.6,3.1,3.4-1.3,3.4-3.1,3.4ZM183.4,270.9c-1.5,0-2.5,1.2-2.5,2.9s1,2.9,2.5,2.9,2.5-1.2,2.5-2.9-1-2.9-2.5-2.9Z"/>
        <path class="st0" d="M187.2,277.1v-6.7h.6v6.1h3.5v.5h-4.1Z"/>
        <path class="st0" d="M194.1,277.3c-1.9,0-3.1-1.6-3.1-3.4s1.3-3.4,3.1-3.4,3.1,1.6,3.1,3.4-1.3,3.4-3.1,3.4ZM194.1,270.9c-1.5,0-2.5,1.2-2.5,2.9s1,2.9,2.5,2.9,2.5-1.2,2.5-2.9-1-2.9-2.5-2.9Z"/>
        <path class="st0" d="M200.9,277.3c-2.1,0-3.7-1.5-3.7-3.4s1.4-3.4,3.7-3.4,1.2,0,1.7.2v.5c-.7-.1-1.2-.2-1.7-.2-1.8,0-3,1.1-3,2.9s1.3,2.9,3,2.9.9,0,1.4-.1v-2.4h.5v2.8c-.6.2-1.4.3-1.9.3Z"/>
        <path class="st0" d="M203.8,277.1v-6.7h.6v6.7h-.6Z"/>
      </g>
      <g>
        <path class="st0" d="M208.5,277.2v1.8h-.6v-1.8c-1.7-.2-2.8-1.7-2.8-3.4s1.3-3.4,3.1-3.4,3.1,1.6,3.1,3.4-1.1,3.3-2.8,3.4ZM208.2,270.9c-1.5,0-2.5,1.2-2.5,2.9s1,2.9,2.5,2.9,2.5-1.2,2.5-2.9-1-2.9-2.5-2.9Z"/>
        <path class="st0" d="M214.5,277.3c-1.7,0-2.6-1.2-2.6-2.4v-4.3h.6v4.4c0,1.2.8,1.9,2,1.9s2-.8,2-1.9v-4.4h.6v4.3c0,1.3-.9,2.4-2.6,2.4Z"/>
      </g>
      <path class="st0" d="M218.1,277.1v-6.7h4.4v.5h-3.8v2.4h3.6v.5h-3.6v2.7h3.8v.5h-4.4Z"/>
    </g>
  </g>
</svg>