<?xml version="1.0" encoding="utf-8"?>
<!-- Generator: Adobe Illustrator 25.4.1, SVG Export Plug-In . SVG Version: 6.00 Build 0)  -->
<svg version="1.1" xmlns="http://www.w3.org/2000/svg" xmlns:xlink="http://www.w3.org/1999/xlink" x="0px" y="0px"
	 viewBox="0 0 3039.7 2018.5" style="enable-background:new 0 0 3039.7 2018.5;" xml:space="preserve">
<style type="text/css">
	.st0{fill:#009EE2;}
	.st1{fill:#C0638E;}
	.st2{opacity:0.5;}
	.st3{fill:#FFFFFF;}
	.st4{clip-path:url(#SVGID_00000057856055360600980460000012605834356081474975_);}
	.st5{fill:#292F54;}
	.st6{fill:#CD7BA2;}
	.st7{fill:#E09E86;}
	.st8{fill:#E3B38E;}
	.st9{fill:#E0B48F;}
	.st10{fill:#BFDBF3;}
	.st11{fill:#F5F5F0;}
	.st12{fill:#98CDFC;}
	.st13{opacity:0.54;}
	.st14{fill:#5DA0EE;}
	.st15{fill:#292C50;}
	.st16{opacity:0.53;fill:#B3CCF1;}
	.st17{opacity:0.29;fill:#FFFFFF;}
	.st18{opacity:0.81;fill:#D2E3FC;}
	.st19{fill:#2A2F58;}
	.st20{fill:#365683;}
	.st21{fill:#42668F;}
	.st22{fill:#E5B48F;}
	.st23{fill:#486C9A;}
	.st24{fill:#DE9E87;}
	.st25{fill:#A3C2DB;}
</style>
<path class="st0" d="M234,1976.3c79.7,39.8,392.7,11,504.9-104.7c28.3-29.2,39.5-82,57-118.4c23.1-47.9,49-94.5,78.2-139
	c57.9-88.3,128.7-168.5,213.6-231.6c74.9-55.7,162.4-89.2,241.2-136.6c82.3-49.5,182.2-63.5,276.8-59c114.1,5.5,225.2,36,337.7,55.9
	c112.5,19.9,230.6,28.9,338.9-7.6c152.7-51.4,268.8-197.5,284.6-357.8c5.7-58.1-0.7-116.8,4.1-174.9c4.8-58.2,23.1-118.8,67.6-156.6
	c52.8-44.8,128.3-47.1,193.5-70c95.2-33.5,162.5-112.2,193.6-206.4c3.8-11.7,6.8-23.5,9-35.3c32.7-175.3-493-196.4-671.3-201
	c-285.4-7.5-458.4,123.4-737.9,123.4c-503.2,0-380-153.2-882.8-131.5C399.5,40,350.2,144.6,243.8,258.1
	C155.7,352,119.5,482.9,144,609.4c49.9,257.6-106.1,612.5-139,831.8c-19.2,127.9,27.2,252.9,88.1,367
	C133.5,1883.6,168.3,1943.6,234,1976.3z"/>
<g>
	<g>
		<g>
			<path class="st1" d="M1719.7,1516.5c-0.6-0.3-1.1-0.8-1.4-1.5c-25.1-61.2-25.3-131.6-0.6-209.3c22.2-69.9,63.8-143.9,123.7-219.9
				c54.4-69,123.3-138.3,199.3-200.4c73.4-59.9,151.8-112,226.9-150.6c1.4-0.7,3-0.2,3.7,1.2c0.7,1.4,0.2,3-1.2,3.7
				c-154.5,79.4-317.1,213.4-424.4,349.5c-125.5,159.3-168.9,309.8-122.3,423.6c0.6,1.4-0.1,3-1.5,3.6
				C1721.1,1516.9,1720.3,1516.8,1719.7,1516.5z"/>
			<path class="st1" d="M2268.7,737.3c4.4,8.4,73.9,8.3,140.7-15c31.8-11.2,62.4-25.9,149.2-73.2c-26.1-13.5-67.2-23.2-112-20.8
				C2323.3,635.3,2265,730.1,2268.7,737.3z"/>
			<path class="st1" d="M2136.1,817.5c8.9-1.3,36.4-38.9,53.2-69.5c40.4-73.7,30.5-131.7,43.7-179.1c-26.6,8.2-68.1,36.6-97.9,77.4
				C2062.8,745,2125.4,819.2,2136.1,817.5z"/>
			<path class="st1" d="M1948.9,954.4c26.5,9.8,14.4-4.4,35.8-84.2c21.1-78.8,50.8-190.7,11.4-214.4c-13.6,39.8-59,71.9-87.5,136.8
				C1873.2,874.1,1903.2,936.9,1948.9,954.4z"/>
			<path class="st1" d="M1746.3,1158.9c15.6,1.9,35.5,0,48-6.6c5.8-3,6.9-4.5-0.2-18.8c-15.9-30.9-22.9-45.2-37.7-107.2
				c-11.3-45-29.5-123.7-20.2-169.3c-36.8,25.6-84.7,109.1-81.8,186.5C1656.9,1113.7,1696.8,1153,1746.3,1158.9z"/>
			<path class="st1" d="M1660.3,1385.6c5,3.1,37.6,23.3,42.2,19.5c9.7-7.9-1.6-170.1-101.7-226.6c-26.4-14.1-54.2-18.9-81.1-15.7
				c-18,2.2-32.3,7.7-37,10.1C1551.7,1309.3,1601.1,1350,1660.3,1385.6z"/>
			<path class="st1" d="M2066.2,868.6c-1.3,2.5,0.2,7.5,4.3,14c16.7,26.1,61.9,52.3,117.4,51.2c45.8-1.2,89.2-19.4,120.9-48.7
				c14.3-13.1,24-26,34.3-41.3c-2.4-0.1-8.9-0.1-14.8,0.1c-26.9,0.9-21.1,2-70.4,1.7c0,0-3.5-0.1-35-1.4
				C2144.1,840.7,2070,861.1,2066.2,868.6z"/>
			<path class="st1" d="M1959.4,1033.2c-32-0.3-76.3,5.4-80.5,11.4c-1.7,2.4-1.6,7.9,0.7,15.4c1.1,3.8,3,7.8,5.4,12.3
				c13.2,24.7,46,48.7,88.5,55.1c69.6,10.3,133.5-24.8,150.7-39.1c-31.9-16.2-68.2-34.5-102.4-45.3
				C2001.2,1036.4,1982.9,1033.3,1959.4,1033.2z"/>
			<path class="st1" d="M1815.6,1227.4c-42.8-1.6-75.2,22.2-75.9,28.2c-0.7,6.3,12.9,17.3,18.2,21.1c9.7,7.7,28.7,20.2,53.7,32.7
				c32.4,16.7,63,23.2,161.6,58.8c-9.7-23.2-24.3-48.8-35.6-64.3C1905.9,1260.5,1869.5,1229.9,1815.6,1227.4z"/>
		</g>
		<g class="st2">
			<g>
				<g>
					<path class="st3" d="M555.7,1153.5L555.7,1153.5c-13.5-8-29.4-12.5-47.8-13.6c-32.3-2-72.3,6.6-119.6,25.6l-5.3,2.2l3.7,5.2
						c3.8,5.6,96,135.6,164.7,121.7c10.1-2,19.1-7,27.1-15c8.8-8.9,16.4-21.2,22.5-37.1l0.4-1l0-1c0-0.2,0-1,0-2.2
						c-0.2-9.5-2.8-46.2-29.4-72.4C567,1161.2,561.6,1157,555.7,1153.5z M584.9,1198c0.1,0.1,0.1,0.1,0.1,0.1c0.6,1.2,1,2.4,1.5,3.7
						c2,4.6,3.4,9.3,4.6,13.6c0.3,1.1,0.5,2.1,0.8,3.1c0.3,1.5,0.6,3,0.9,4.4c0.6,2.9,0.9,5.4,1.2,7.7c0.1,1,0.2,1.9,0.3,2.7
						c0.2,2.1,0.3,3.7,0.4,4.9c0,0.6,0,1.1,0,1.5c-0.1,0.3-0.2,0.6-0.4,0.9c-0.8,2.2-1.7,4.2-2.6,6.2c-0.4,0.8-0.7,1.6-1.1,2.3
						c-1,2.1-2,4.1-3.1,6c-0.5,0.9-1,1.8-1.6,2.5l0,0.1c-2.1,3.8-4.5,7.1-7,10.1l0,0.1c-0.7,0.9-1.4,1.8-2.2,2.5l0,0.1
						c-0.6,0.8-1.2,1.4-1.9,2.1c-2.4,2.5-4.9,4.6-7.6,6.4c-1.3,0.9-2.5,1.6-3.7,2.3c0,0,0,0.1-0.1,0.1c-3.9,2.2-8.1,3.8-12.5,4.7
						c-21.7,4.3-46.5-7.3-69.9-24.9l-0.1-0.1c-3-2.1-6-4.4-8.9-6.9c-11.1-9.1-21.6-19.1-31.3-29.1c-0.1-0.1-0.1-0.1-0.1-0.1
						c-2.2-2.2-4.3-4.4-6.3-6.7c-0.1-0.1-0.1-0.1-0.1-0.1c-4.4-4.8-8.6-9.5-12.5-14.1c-0.1-0.1-0.1-0.1-0.1-0.1
						c-1.4-1.6-2.8-3.3-4.1-4.8c-0.1-0.1-0.1-0.1-0.1-0.1c-3.8-4.4-7.2-8.6-10.3-12.5c-0.1-0.1-0.1-0.1-0.1-0.1
						c-1.1-1.3-2.1-2.6-3-3.9l-0.1-0.1c-2.8-3.5-5.1-6.5-7-8.9c-0.4-0.6-0.8-1.2-1.2-1.7c0.5-0.2,1-0.4,1.5-0.6
						c3.7-1.4,7.4-2.8,11-4c0,0,0-0.1,0.1,0c1.2-0.5,2.5-0.9,3.6-1.4c0.1,0.1,0.1,0,0.2,0c5.1-1.8,10.1-3.4,15-4.9
						c1.5-0.5,3-0.9,4.6-1.4c0-0.1,0.1,0,0.1,0c6.5-1.9,12.7-3.5,18.8-4.8l7.1-1.6c0-0.1,0.2,0,0.2,0c12.6-2.5,24.4-3.9,35.4-4.2
						c0-0.1,0.1,0,0.2,0c3.7-0.1,7.2-0.2,10.7,0.1l0.1,0c2.8,0.1,5.4,0.3,8.1,0.6c21,2,38.4,8.8,51.8,20.4l0.1,0.1
						c1.2,1,2.3,2,3.5,3.1c1.3,1.3,2.6,2.6,3.7,3.9l0.1,0.1c1.8,2,3.4,4.1,4.8,6.2c0.1,0.1,0.1,0.1,0.1,0.1
						C579.9,1188.1,582.7,1193.1,584.9,1198z"/>
				</g>
			</g>
			<g>
				<g>
					<path class="st3" d="M420.8,1211c0.9,0.7,86.5,68.9,162.4,58.5l-0.1-2.2c-75.3,10.3-160.5-57.5-161.3-58.2L420.8,1211z"/>
				</g>
			</g>
			<g>
				<g>
					<path class="st3" d="M456,1247.3c0.6,0.4,62,41.4,119.4,32.7l-0.2-2.2c-56.8,8.6-117.8-32.1-118.4-32.5L456,1247.3z"/>
				</g>
			</g>
			<g>
				<g>
					<path class="st3" d="M408.2,1196c1.2,0.7,116.6,74.6,183.2,60.6l-0.2-2.2c-66.1,13.9-181-59.6-182.2-60.4L408.2,1196z"/>
				</g>
			</g>
			<g>
				<g>
					<path class="st3" d="M397,1181.7c1.4,0.7,138.9,68.2,197.9,67.3l0-2.2c-58.7,0.9-195.9-66.5-197.3-67.1L397,1181.7z"/>
				</g>
			</g>
			<g>
				<g>
					<path class="st3" d="M389,1170.9c1.5,0.5,155.1,54.5,210.1,71l0.4-2.2c-54.9-16.4-208.5-70.4-210-71L389,1170.9z"/>
				</g>
			</g>
			<g>
				<g>
					<path class="st3" d="M402,1165.9c1.4,0.3,136.5,29.7,195.3,69.4l0.8-2c-59.1-39.9-194.5-69.4-195.8-69.6L402,1165.9z"/>
				</g>
			</g>
			<g>
				<g>
					<path class="st3" d="M419.6,1159.8c1.2,0.2,118.7,18.2,175.7,61.2l0.9-1.9c-57.3-43.3-175.2-61.3-176.3-61.5L419.6,1159.8z"/>
				</g>
			</g>
			<g>
				<g>
					<path class="st3" d="M438.9,1154.1c0.9,0,86.7,0.5,152,50.9l0.9-1.9c-65.8-50.6-152-51.2-152.9-51.2L438.9,1154.1z"/>
				</g>
			</g>
			<g>
				<g>
					<path class="st3" d="M482.4,1146.9c0.7,0.1,68,9.6,102,43.6l1.1-1.8c-34.4-34.3-102.1-43.9-102.8-44L482.4,1146.9z"/>
				</g>
			</g>
		</g>
		<g class="st2">
			<g>
				<g>
					<path class="st3" d="M1850.9,427.3L1850.9,427.3c7.4-13.8,11.2-29.9,11.6-48.3c0.6-32.4-9.5-72-30.5-118.5l-2.4-5.2l-5.1,3.9
						c-5.4,4.1-131.6,101.5-114.9,169.6c2.4,10,7.7,18.8,16.1,26.5c9.2,8.5,21.8,15.5,38,21l1,0.3l1-0.1c0.2,0,1,0,2.2-0.1
						c9.5-0.6,46.1-4.7,71.1-32.4C1843.7,439,1847.7,433.4,1850.9,427.3z M1807.7,458.3c0,0.1,0,0.1-0.1,0.1
						c-1.2,0.6-2.3,1.1-3.6,1.6c-4.6,2.2-9.1,3.8-13.4,5.1c-1.1,0.3-2.1,0.6-3.1,0.9c-1.5,0.4-3,0.8-4.3,1.1
						c-2.8,0.7-5.4,1.1-7.6,1.5c-1,0.2-1.9,0.3-2.7,0.4c-2.1,0.3-3.7,0.4-4.9,0.6c-0.6,0-1.1,0-1.5,0.1c-0.3-0.1-0.6-0.2-0.9-0.4
						c-2.2-0.7-4.3-1.5-6.3-2.4c-0.8-0.3-1.6-0.6-2.4-1c-2.1-0.9-4.2-1.9-6.1-2.9c-1-0.5-1.9-0.9-2.6-1.5l-0.1,0
						c-3.9-2-7.3-4.2-10.3-6.5l-0.1,0c-0.9-0.6-1.8-1.3-2.6-2.1l-0.1,0c-0.8-0.6-1.5-1.2-2.2-1.8c-2.5-2.3-4.8-4.7-6.7-7.3
						c-1-1.2-1.7-2.4-2.5-3.6c0,0-0.1,0-0.1-0.1c-2.4-3.8-4.1-8-5.2-12.3c-5.2-21.6,5.4-46.8,22-70.9l0.1-0.1c2-3.1,4.2-6.1,6.5-9.1
						c8.6-11.4,18.2-22.3,27.8-32.4c0-0.1,0.1-0.1,0.1-0.1c2.2-2.3,4.3-4.5,6.4-6.6c0-0.1,0.1-0.1,0.1-0.1c4.6-4.6,9.2-9,13.5-13
						c0.1-0.1,0.1-0.1,0.1-0.1c1.5-1.4,3.1-2.9,4.6-4.3c0-0.1,0.1-0.1,0.1-0.1c4.3-4,8.3-7.6,12-10.8c0-0.1,0-0.1,0-0.1
						c1.3-1.1,2.5-2.2,3.7-3.1l0-0.1c3.3-2.9,6.3-5.3,8.6-7.3c0.6-0.4,1.2-0.9,1.6-1.3c0.2,0.5,0.4,1,0.7,1.5
						c1.6,3.7,3.1,7.3,4.5,10.9c0,0,0.1,0,0,0.1c0.5,1.2,1,2.4,1.5,3.6c0,0.1,0,0.1,0,0.2c2,5,3.8,9.9,5.5,14.8
						c0.5,1.5,1.1,3,1.6,4.5c0.1,0,0,0.1,0,0.1c2.1,6.4,4,12.6,5.6,18.6l1.9,7c0.1,0,0,0.2,0,0.2c3,12.5,4.9,24.3,5.7,35.2
						c0.1,0,0,0.1,0,0.2c0.3,3.7,0.5,7.2,0.4,10.7l0,0.1c0,2.8-0.1,5.5-0.2,8.2c-1.1,21.1-7.2,38.7-18.3,52.6l0,0.1
						c-1,1.2-1.9,2.4-3,3.6c-1.2,1.3-2.5,2.7-3.8,3.9l0,0.1c-1.9,1.8-3.9,3.6-6,5.1c0,0.1-0.1,0.1-0.1,0.1
						C1817.3,452.9,1812.4,455.9,1807.7,458.3z"/>
				</g>
			</g>
			<g>
				<g>
					<path class="st3" d="M1787.9,295c-0.7,0.9-65.3,89.2-51.8,164.6l2.2-0.2c-13.4-74.8,50.8-162.7,51.5-163.6L1787.9,295z"/>
				</g>
			</g>
			<g>
				<g>
					<path class="st3" d="M1753.1,331.6c-0.4,0.6-38.9,63.7-27.8,120.6l2.2-0.2c-11-56.4,27.2-119,27.6-119.7L1753.1,331.6z"/>
				</g>
			</g>
			<g>
				<g>
					<path class="st3" d="M1802.4,281.7c-0.7,1.2-69.8,119.5-53,185.5l2.2-0.3c-16.6-65.4,52.2-183.3,52.9-184.5L1802.4,281.7z"/>
				</g>
			</g>
			<g>
				<g>
					<path class="st3" d="M1816.2,269.9c-0.6,1.4-62.5,141.6-59.1,200.5l2.2-0.1c-3.4-58.6,58.4-198.5,59-199.9L1816.2,269.9z"/>
				</g>
			</g>
			<g>
				<g>
					<path class="st3" d="M1826.7,261.5c-0.5,1.6-48.1,157.3-62.3,212.8l2.2,0.3c14.2-55.5,61.8-211.2,62.3-212.7L1826.7,261.5z"/>
				</g>
			</g>
			<g>
				<g>
					<path class="st3" d="M1832.2,274.3c-0.2,1.4-24.1,137.6-61.4,198l2,0.7c37.4-60.6,61.3-197.1,61.6-198.5L1832.2,274.3z"/>
				</g>
			</g>
			<g>
				<g>
					<path class="st3" d="M1839,291.7c-0.1,1.2-13.3,119.3-53.9,178l2,0.8c40.9-59.1,54-177.5,54.2-178.7L1839,291.7z"/>
				</g>
			</g>
			<g>
				<g>
					<path class="st3" d="M1845.5,310.6c0,0.9,3,86.6-44.6,154l2,0.8c47.9-67.8,44.9-154,44.8-154.9L1845.5,310.6z"/>
				</g>
			</g>
			<g>
				<g>
					<path class="st3" d="M1854.4,353.8c-0.1,0.7-6.8,68.3-39.3,103.7l1.8,1c32.9-35.8,39.7-103.8,39.7-104.5L1854.4,353.8z"/>
				</g>
			</g>
		</g>
		<g class="st2">
			<path class="st3" d="M1968.3,519.2c2.5,8.8,2.7,16.2,2.6,22.5c-0.3,6.7-1.2,13.1-2.8,19c-3,11.3-8.2,21.7-15.8,31.6
				c-7.5,9.7-16.7,17.9-27.4,24.3c-5.6,3.4-11.9,6.4-18.8,9c-5.9,2.1-13.2,4.4-22.4,5.5c-10.4,10.6-20.4,21.5-30.1,32.7
				c4.8-2.1,9.9-3.9,15.1-5.4c13.1-3.7,26.1-5.3,39.6-5c7.1,0.2,14.5,1,22.2,2.4c7,1.4,15.3,3.4,24.6,7.4l4.1,1.8l-1.9,4.1
				c-3.8,8-8.6,13.8-12.9,18.5c-4.7,5-9.8,9.4-15.1,13.1c-10.1,7.1-21.4,12.4-34.5,16.2c-13,3.7-26,5.4-39.6,5
				c-7-0.2-14.5-1-22.2-2.4c-5.3-1.1-12.1-2.7-19.7-5.5l-8.9,12.1l-16,23.6c-3.7,5.2-7.1,10.8-10.4,16.1c-1.6,2.5-3.1,5.1-4.7,7.6
				l-7.4,11.9l-7.1,12.2c-1.9,3.4-3.8,6.8-5.8,10.2c-2.7,4.7-5.5,9.5-8.1,14.3l-13.1,24.8l-0.2,0.5c4.4-2.4,9-4.5,13.5-6.3
				c12.1-4.6,24.8-7.2,38.7-8c14.1-0.7,27.3,0.5,40.6,3.7c6.9,1.7,14.1,4,21.3,7c6.5,2.8,14.3,6.5,22.3,12.3l3.9,2.8l-3.2,3.6
				c-6,6.7-12.4,11.2-17.9,14.7c-6.1,3.7-12.3,6.8-18.6,9.2c-12,4.6-24.6,7.2-38.7,8.1c-14,0.8-27.2-0.4-40.6-3.6
				c-6.9-1.6-14.1-4-21.3-7c-5.5-2.4-10.2-4.7-14.5-7.3c-3.2,6.6-6.3,13.2-9.3,19.9l-0.5,1.3c-8.8,19.2-17.6,39.2-26,59.5
				c-4.3,10.6-8.6,21.2-12.8,31.8l-4.5,11.4c-4.7,12.2-9.3,24.5-13.8,36.8c3.1-1.6,6.3-3.1,9.5-4.4c12-4.8,24.6-7.6,38.5-8.6
				c14-0.9,27.3,0.1,40.6,3.1c6.9,1.6,14.1,3.8,21.4,6.7c6.5,2.7,14.3,6.2,22.5,12l4,2.8l-3.2,3.7c-5.8,6.8-12.1,11.4-17.6,15
				c-6,3.8-12.1,7-18.4,9.5c-11.9,4.8-24.5,7.6-38.5,8.6c-13.9,1-27.2,0-40.6-3c-7-1.5-14.1-3.8-21.4-6.7c-3.3-1.4-6.4-2.8-9.3-4.2
				c-2.8,7.7-5.5,15.5-8.2,23.3l-4.4,12.5l-12-2.6c-4.6-1-9.2-2-13.9-3c-1.9-0.5-4-0.9-6.4-1.3c-10.7-2.3-21.3-4.5-32.4-6.8
				c-1.8-0.4-3.7-0.8-5.4-1.1l-4.3-2.7c-10.6-8.1-19.9-17-28.2-27.3c-1.4-1.6-2.6-3.2-3.9-4.8l-0.7-0.9
				c-9.6-12.7-16.8-25.4-21.9-38.9c-2.7-7.2-4.7-14.7-6-22.2c-1-6.3-1.9-13.2-1.4-20.4c0-1.5,0.2-3,0.3-4.6l0.6-5.1l4.9,1.4l2.3,0.7
				c9.8,3.1,17.8,7.1,24.3,10.7c8,4.4,15.2,9.1,21.3,14c5.3,4,10.1,8.2,14.3,12.2c6.8,6.5,13.1,13.5,18.6,20.7
				c6.1,7.9,11.4,16.1,15.8,24.7c2.2,4.4,4.3,9.2,6.2,14.2c0.8,2.2,1.5,4.4,2.2,6.6c11.9-29.1,23.4-56,35-82l0.7-1.5
				c1-2.3,2-4.5,3.1-6.8c2.7-6.2,5.5-12.3,8.3-18.2c1.3-3,2.7-6,4.1-9c-4.9-1.8-9.2-3.8-12.6-5.5c-6.9-3.5-13.2-7.4-18.8-11.5
				c-10.8-8-19.9-17.1-27.6-27.8c-7.7-10.9-13-21.9-16.2-33.5c-1.7-6.1-2.7-12.6-3.1-19.4c-0.2-6.2-0.1-13.6,2.2-22.1l1.1-4.1l4,1
				c9.9,2.4,17.7,5.9,24.1,9c6.9,3.5,13.2,7.4,18.8,11.5c10.8,7.9,19.8,17,27.6,27.8c7.7,10.8,13.1,21.8,16.3,33.5
				c0.5,1.7,0.9,3.5,1.3,5.3c5-10.2,10.3-20.7,15.8-31.2l0.4-0.9c6.4-12.4,13.4-24.8,20.1-36.8l21.5-36.8c3.5-6,7.3-11.8,11.1-17.6
				l10.2-15.8c-4.6-2.2-9.2-4.8-14.3-8.1c-6.4-4.3-12.1-8.8-17-13.5c-9.5-9-17.2-19.3-23.1-30.7c-6-11.7-9.5-23.1-10.8-34.8
				c-0.7-6.2-0.6-12.7,0.1-19.4c0.8-6.1,2.1-13.3,5.9-21.3l1.7-3.6l3.7,1.4c9.5,3.6,16.8,7.9,22.7,11.8c6.3,4.3,12.1,8.8,17,13.5
				c9.5,9,17.1,19.1,23.2,30.6c5.9,11.4,9.6,23.1,10.8,34.8c0.4,3.2,0.5,6.5,0.5,9.9c2.1-3,4.3-6,6.6-8.9l17.4-23.2l18.3-22.4
				c2-2.4,4.1-4.9,6.8-7.8c18.9-21.8,39.1-42.8,60.1-62.4c-1.7-7.4-1.9-13.7-1.8-19c0.3-6.7,1.2-13.1,2.8-19
				c3-11.2,8.3-21.9,15.9-31.6c7.7-9.8,16.7-17.7,27.4-24.2c5.5-3.4,11.9-6.4,18.8-9c6.4-2.2,14.2-4.7,24-5.7l3.6-0.4L1968.3,519.2z
				 M1903.3,617.3c6.4-2.4,12.2-5.2,17.3-8.3c9.9-6,18.1-13.2,25-22.2c6.9-9,11.6-18.3,14.3-28.5c1.4-5.2,2.2-11,2.5-16.9
				c0.1-4.8-0.1-10.1-1.4-16.2c-7.3,1.1-13.1,3-18.4,4.8c-6.4,2.4-12.2,5.2-17.3,8.3c-9.8,5.9-18,13.2-25.1,22.1
				c-6.9,8.9-11.6,18.2-14.3,28.4c-1.4,5.3-2.2,11-2.5,16.9c-0.1,4.6,0.1,10,1.4,16.3C1892.2,621,1898.1,619.2,1903.3,617.3z
				 M1816.3,700.5l-3.3,4.1l0.5,0.2c8.1,3.4,15.3,5.1,21.2,6.3c7.2,1.3,14.2,2.1,20.8,2.3c12.8,0.3,24.9-1.2,37.1-4.7
				c12.2-3.5,22.7-8.5,32-15c4.8-3.4,9.4-7.4,13.7-11.9c3.1-3.5,6.4-7.3,9.2-12.2c-6.8-2.6-12.9-4-18.5-5.1
				c-7.2-1.3-14.2-2.1-20.8-2.2c-12.7-0.3-24.8,1.2-37.1,4.6c-12.2,3.4-22.6,8.3-32,14.9c-0.4,0.3-0.7,0.5-1,0.8l-17.9,13.5
				C1818.8,697.5,1817.5,699,1816.3,700.5z M1734.9,875.8c6.7,2.8,13.4,5,19.9,6.5c12.6,3,25.1,4.1,38.2,3.4
				c13.2-0.8,25-3.3,36.2-7.5c5.7-2.2,11.5-5,17.1-8.4c4.1-2.6,8.4-5.6,12.6-9.5c-5.8-3.7-11.3-6.3-16.4-8.5
				c-6.7-2.8-13.4-5-19.9-6.5c-12.5-3-25-4.1-38.2-3.4c-13.1,0.7-24.9,3.1-36.2,7.5c-5.8,2.2-11.5,5-17.1,8.4
				c-2.6,1.6-5.1,3.4-7.6,5.4l-5.2,4.1C1723.2,870.2,1728.4,872.9,1734.9,875.8z M1760,774.9l-16,24.5c-3.7,5.7-7.4,11.5-10.9,17.3
				l-14.5,24.3l-6.9,12.3c-6.7,11.9-13.6,24.2-20.1,36.7l-0.4,0.9c-7.7,14.7-15.1,29.7-21.9,43.7l-7,13.7l0.4,0.1l-2.2,4.6
				c-2.1,4.3-4.2,8.7-6.2,13.3c-2.9,6-5.6,12-8.3,18.1c-1.1,2.3-2.1,4.5-3.1,6.7l-0.7,1.5c-13.2,29.4-26.2,60-39.8,93.7l-2.7,6.8
				c0.5,0.1,0.9,0.2,1.4,0.3c4.6,1,9.2,2,13.9,3l4.7,1l1.9-5.3c3.3-9.3,6.5-18.6,9.8-27.7l1.5-5.3l4.7,2.6c3.9,2.2,8,4.1,12.8,6.1
				c6.8,2.7,13.5,4.8,20,6.3c12.6,2.8,25.1,3.7,38.2,2.8c13.1-1,24.9-3.6,36-8c5.7-2.3,11.4-5.2,16.9-8.7c4-2.7,8.3-5.7,12.3-9.7
				c-5.9-3.6-11.4-6.1-16.6-8.3c-6.8-2.7-13.5-4.8-20.1-6.2c-12.5-2.8-25-3.8-38.2-2.9c-13,0.9-24.8,3.5-36,8
				c-5.7,2.3-11.4,5.2-16.9,8.7l-12.6,8.6l4.6-12.7c5.9-16.2,11.9-32.3,18.1-48.4l4.5-11.5c4.2-10.7,8.5-21.3,12.8-32
				c8.4-20.1,17-40,25.8-59.1l0.4-1.1c3.8-8.5,7.7-16.9,11.8-25.3l2.1-4.4l0.1,0.1l23.6-46.2c2.6-5,5.4-9.8,8.2-14.6
				c1.9-3.3,3.9-6.6,5.8-10.1l7.2-12.4l7.5-12.1c1.6-2.5,3.1-5,4.6-7.5c2.9-4.7,5.9-9.6,9.1-14.3c-3.4,4.6-6.7,9.2-9.9,13.9
				c-1.7,2.4-3.4,4.9-5.1,7.3L1760,774.9L1760,774.9z M1690.6,673.3c-0.7,6-0.7,11.8-0.1,17.4c1.1,10.7,4.3,21.1,9.8,31.7
				c5.5,10.6,12.5,19.9,21.4,28.3c4.5,4.3,9.9,8.6,15.8,12.5c6.3,4.1,11.8,7,17.7,9.5l0.2,0.1l1.8-8.2c0.5-2.4,1-4.7,1.3-7
				c0.7-6,0.7-11.8,0.1-17.3c-1.2-10.8-4.4-21.2-9.9-31.7c-5.6-10.7-12.6-19.9-21.5-28.3c-4.6-4.3-9.9-8.6-15.8-12.6
				c-4.9-3.2-10.3-6.5-17.2-9.4C1692,663.8,1691.2,668.8,1690.6,673.3z M1581.1,855.4c0.3,6.1,1.3,12,2.8,17.5
				c2.9,10.6,7.8,20.7,14.9,30.7c7.2,10,15.5,18.5,25.6,25.9c5.2,3.8,11.1,7.4,17.5,10.7c4.4,2.1,9.7,4.6,16.1,6.6l4,1.3l-0.8-15.9
				c-0.3-6.1-1.2-12-2.8-17.4c-2.9-10.8-7.8-20.8-14.9-30.7c-7.3-10.1-15.7-18.5-25.7-25.9c-5.2-3.8-11.1-7.4-17.5-10.7
				c-5.2-2.6-11.1-5.2-18.2-7.3C1581,845.8,1581,850.9,1581.1,855.4z M1498.5,994.5c1.2,6.9,3.1,13.8,5.6,20.6
				c4.8,12.7,11.6,24.7,20.6,36.6l0.7,0.9c1.2,1.5,2.4,3,3.7,4.6c8,9.8,16.7,18.3,26.7,25.8l1.9,1.4c1.5,0.3,3.2,0.7,5.1,1.1
				c10.7,2.2,21.3,4.4,32.4,6.8c0.2,0,0.4,0.1,0.6,0.1l-1.3-6.7c-1.1-5.8-2.8-11.7-5.1-18c-1.8-4.6-3.7-9.1-5.8-13.2
				c-4.2-8-9.2-15.9-15-23.3c-5.3-6.9-11.2-13.6-17.7-19.8c-4-3.8-8.6-7.7-13.6-11.6c-5.9-4.6-12.7-9-20.2-13.2
				c-5.5-3-12-6.3-19.8-9C1496.9,983,1497.5,988.3,1498.5,994.5z"/>
		</g>
		<g class="st2">
			<path class="st3" d="M1064.4,896.9c-4,11.1-9.8,21.5-17.7,31.9c-7.8,10.2-16.6,18.9-26.9,26.4c-5.3,3.9-11.2,7.5-17.6,10.8
				c-3,1.5-5.8,2.8-8.6,3.9c3.6,6.6,7.2,13.1,10.8,19.6l5.8,10.6l-9.1,6.8c-3.5,2.6-6.9,5.2-10.5,7.8c-1.4,1-2.8,2-4.1,3.1l-0.6,0.5
				c-8.1,6-16.1,12-24.1,18.2c-1.5,1.1-3,2.2-4.4,3.4l-4.5,1.4c-12,2.5-23.7,3.6-35.8,3.2c-1.8,0-3.6-0.1-5.3-0.2l-1.3-0.1
				c-14.5-0.9-27.5-3.5-39.8-8.1c-6.6-2.5-12.9-5.6-18.8-9.1c-4.9-3.1-10.1-6.6-14.7-11.2c-1.1-0.9-2-2-3-3l-3.2-3.5l5.9-3.6
				c8.2-4.9,15.7-8,22.1-10.5c7.9-2.9,15.5-5,22.5-6.4c6-1.2,11.8-2.1,17.1-2.6c8.6-0.8,17.2-1,25.5-0.5c9,0.5,17.9,1.8,26.4,3.8
				c4.3,1.1,8.8,2.5,13.4,4.2c2,0.8,4,1.6,5.8,2.4c-12.5-25.8-23.8-49.9-34.3-73.4c-1.1-2.5-2.3-5.1-3.4-7.6
				c-2.5-5.6-5-11.1-7.3-16.7c-1.3-2.7-2.4-5.5-3.6-8.3c-4.2,2.3-8,4-11.4,5.4c-6.6,2.7-13.1,4.8-19.3,6.2
				c-12.1,2.7-23.7,3.5-35.8,2.4c-12.1-1.2-22.8-4.1-32.7-8.9c-5.2-2.5-10.2-5.7-15.1-9.5c-4.3-3.6-9.3-8.1-13.7-14.8l-2.1-3.2
				l3.1-2.2c7.7-5.4,14.8-8.7,20.9-11.3c6.6-2.7,13.1-4.7,19.3-6.1c12-2.7,23.7-3.6,35.8-2.5c12.1,1.1,22.8,4,32.7,8.8
				c1.5,0.7,2.9,1.5,4.4,2.3c-3.7-9.4-7.7-19.4-11.6-29.7l-0.3-0.8c-4.5-12-8.8-24.4-12.8-36.4l-11.8-36.6
				c-1.9-6.1-3.6-12.2-5.2-18.4l-4.5-16.3c-4.3,1.9-8.9,3.5-14.2,5.1c-6.8,1.9-13.4,3.1-19.6,3.7c-11.9,1.2-23.7,0.4-35-2.3
				c-11.6-2.8-21.5-7.2-30.3-13.4c-4.6-3.2-9-7.2-13.1-11.7c-3.6-4.2-7.8-9.5-10.9-16.9l-1.4-3.3l3.2-1.7c8.2-4.5,15.6-6.9,21.9-8.7
				c6.8-1.8,13.4-3.1,19.5-3.7c12-1.2,23.4-0.4,35,2.3c11.4,2.7,21.6,7.2,30.3,13.4c2.4,1.7,4.7,3.5,7,5.6c-0.8-3.3-1.5-6.6-2.1-9.9
				l-5.1-26l-4-26.1c-0.5-3.1-0.8-6.2-1.2-9.4c-3.3-26.2-5.2-52.8-5.7-79.1c-6.1-3.3-10.5-6.9-14-10.2c-4.4-4.2-8.2-8.7-11.2-13.3
				c-5.8-8.8-9.8-18.9-11.8-30c-2-11.2-1.9-22.2,0.3-33.5c1.1-5.8,2.9-12,5.4-18.4c2.3-5.7,5.4-12.6,10.8-20.1l1.9-2.7l3,1.4
				c7.5,3.6,12.7,7.9,16.8,11.7c4.4,4.2,8.2,8.7,11.2,13.3c5.9,8.9,9.7,18.6,11.8,29.9c2,11,1.9,22.3-0.2,33.5
				c-1.1,5.9-2.9,12.1-5.4,18.4c-2.2,5.4-5.1,11.8-9.9,18.8c0.9,13.5,2.2,27,3.8,40.4c1.5-4.5,3.4-9.1,5.6-13.7
				c5.5-11.3,12.4-21.3,20.9-30.5c4.4-4.8,9.5-9.5,15.2-13.9c5.2-4,11.7-8.6,20.1-12.6l3.7-1.8l1.6,3.8c3.1,7.4,4.1,14.2,4.7,20
				c0.5,6.3,0.4,12.4-0.3,18.3c-1.3,11.3-4.6,22.3-10.1,33.7c-5.4,11.3-12.2,21.3-20.8,30.5c-4.4,4.8-9.5,9.5-15.2,13.9
				c-3.9,3-9.2,6.8-15.8,10.3l2.8,13.5l6.2,25.3c1.3,5.6,3,11.3,4.6,16.8c0.8,2.7,1.6,5.3,2.3,7.9l3.6,12.3l4,12.2
				c1.1,3.3,2.2,6.6,3.3,9.9c1.6,4.8,3.1,9.6,4.9,14.3l8.8,23.9l0.2,0.4c1.1-4.6,2.4-9,4-13.1c4.3-11.1,10.2-21.5,18.2-31.7
				c8.1-10.2,17-18.7,27.3-26c5.4-3.8,11.3-7.4,17.7-10.6c5.9-2.8,13.1-6,22-8.1l4.3-1l0.5,4.4c0.9,8.2,0,15.3-0.9,21.3
				c-1.2,6.4-2.9,12.6-5.1,18.4c-4.2,11.1-10.2,21.4-18.2,31.7c-8,10.1-16.9,18.6-27.3,26c-5.4,3.8-11.3,7.4-17.8,10.6
				c-5,2.4-9.4,4.2-13.8,5.7c2.5,6.2,5.2,12.3,7.9,18.3l0.5,1.1c7.7,17.7,16,35.8,24.6,53.7c4.6,9.4,9.2,18.7,13.9,28l5,9.9
				c5.4,10.6,11,21.1,16.6,31.6c0.8-3.2,1.8-6.2,2.8-9.2c4.1-11.2,9.9-21.6,17.7-31.8c7.9-10.3,16.7-18.9,26.9-26.3
				c5.3-3.9,11.2-7.5,17.6-10.8c5.9-2.9,13-6.2,21.9-8.4l4.3-1.1l0.6,4.4c1.1,8.2,0.3,15.3-0.5,21.2c-0.4,2.5-0.9,5-1.5,7.4
				C1066.8,889.7,1065.7,893.3,1064.4,896.9z M1046.5,869.4c-6,3.1-11.5,6.5-16.5,10.2c-9.6,7-17.9,15.1-25.3,24.8
				c-7.4,9.6-12.8,19.3-16.6,29.7c-1.9,5.3-3.4,11-4.4,16.9l-1.8,13.9l-5.8-10.8c-7.4-13.8-14.7-27.6-21.9-41.5l-5.1-10
				c-4.7-9.3-9.3-18.6-13.9-28.1c-8.5-17.7-16.7-35.6-24.4-53.2l-0.5-1c-3.5-7.7-6.8-15.5-10-23.4l-1.7-4.1l0.1,0l-17-44.1
				c-1.8-4.8-3.4-9.7-5-14.6c-1.1-3.3-2.1-6.5-3.3-9.8l-4-12.4l-3.6-12.5c-0.7-2.6-1.5-5.2-2.3-7.8c-1.4-4.8-2.9-9.7-4.1-14.7
				c1,5.1,2.2,10.2,3.4,15.2c0.6,2.7,1.3,5.3,1.9,8l8.5,32.8c1.6,6.1,3.3,12.1,5.2,18.1l7.7,24.7l4,11.7
				c4.1,11.9,8.3,24.2,12.8,36.3l0.3,0.8c4.9,13.2,10.1,26.1,16.3,41.4l5.1,13.1l0.4-0.2l1.8,4.3c1.7,4.1,3.3,8.1,5.2,12.2
				c2.3,5.6,4.7,11.1,7.3,16.6c1.1,2.6,2.2,5.1,3.4,7.6c11.9,26.6,24.8,54,39.4,83.8l2.9,5.9c0.4-0.3,0.7-0.5,1.1-0.8
				c3.4-2.6,6.9-5.2,10.4-7.8l3.6-2.7l-2.5-4.5c-4.3-7.9-8.7-15.7-12.6-23.1l-2.3-4.7l4.1-1.5c3.9-1.4,7.7-3.1,12-5.2
				c6-3.1,11.5-6.5,16.5-10.2c9.6-7.1,17.9-15.2,25.3-24.8c7.4-9.7,12.8-19.4,16.5-29.8c1.9-5.3,3.4-11,4.4-16.9
				c0.6-4.4,1.2-9.1,0.9-14.4C1056.2,864.7,1051.1,867.1,1046.5,869.4z M856,1020.2c5.4,3.3,11.3,6.1,17.4,8.5
				c11.6,4.3,23.9,6.8,37.5,7.6l1.3,0.1c1.7,0.1,3.3,0.2,5.1,0.2c11.6,0.3,22.7-0.7,33.9-3l2.1-0.4c1.2-1,2.5-1.9,3.8-2.9
				c8-6.1,16-12.1,24.7-18.6c0,0,0.1,0,0.1-0.1l-5.3-3.1c-4.6-2.7-9.7-5.1-15.4-7.3c-4.3-1.6-8.5-2.9-12.5-3.9
				c-8-1.9-16.4-3.1-25-3.6c-8-0.5-16-0.3-24.3,0.4c-5,0.5-10.4,1.3-16.2,2.5c-6.6,1.3-13.8,3.4-21.3,6.1c-5.3,2-11.6,4.6-18.3,8.3
				C847.2,1014.4,851.2,1017.2,856,1020.2z M969,696.1c-6,3-11.6,6.3-16.6,9.9c-9.7,6.9-18.1,14.9-25.7,24.4
				c-7.5,9.5-13.1,19.2-17.1,29.6c-2,5.3-3.6,11-4.7,16.9c-0.4,2.8-0.8,5.6-1,8.5l-0.4,6c5.2-1.5,10.2-3.5,16.1-6.3
				c6-3,11.6-6.3,16.6-9.9c9.7-6.9,18.1-14.9,25.6-24.5c7.5-9.6,13.1-19.3,17-29.6c2-5.3,3.6-11,4.7-16.9c0.7-4.4,1.3-9.1,1.2-14.4
				C978.7,691.6,973.6,693.9,969,696.1z M811.9,879.5c4.4,3.4,8.9,6.3,13.6,8.5c9,4.4,18.8,7,30,8.1c11.2,1,22,0.3,33.3-2.2
				c5.8-1.3,11.9-3.3,18-5.8c4.1-1.8,9-4,14.3-7.2l3.3-2l-11.3-8.9c-4.4-3.4-8.9-6.3-13.6-8.6c-9.1-4.4-18.9-7-30-8
				c-11.3-1-22.2-0.2-33.3,2.3c-5.8,1.3-11.8,3.3-18,5.7c-5,2.1-10.3,4.6-16.1,8.2C805.3,873.9,808.7,876.9,811.9,879.5z
				 M894.5,523.8c-5.3,4.2-10.1,8.6-14.2,13.1c-8,8.6-14.4,17.9-19.5,28.5c-5.1,10.5-8.2,20.7-9.4,31.1l-2,20.7
				c0.2,2.1,0.5,4.3,0.8,6.4l0.7,4.8l0.5-0.2c7.3-3.6,12.8-7.6,17.2-10.9c5.3-4.2,10.1-8.6,14.2-13.1c8-8.7,14.4-18,19.5-28.5
				c5.1-10.6,8.1-20.8,9.4-31.2c0.6-5.3,0.7-10.9,0.3-16.6c-0.4-4.3-1.1-8.8-2.7-13.7C903.4,517.2,898.7,520.6,894.5,523.8z
				 M754.9,694.5c3.7,4.1,7.6,7.6,11.8,10.5c8,5.6,17,9.6,27.6,12.2c10.6,2.5,21.2,3.3,32.4,2.2c5.7-0.6,11.9-1.7,18.2-3.4
				c6.7-1.9,12-4,17.2-6.6l0.2-0.1l-4.5-6.2c-1.3-1.8-2.6-3.5-4-5c-3.7-4.1-7.6-7.6-11.7-10.5c-8.1-5.7-17.1-9.6-27.6-12.1
				c-10.7-2.5-21.3-3.2-32.4-2.1c-5.7,0.6-11.9,1.7-18.2,3.4c-5.1,1.5-10.7,3.3-16.9,6.3C749.3,687.8,752.2,691.4,754.9,694.5z
				 M811.4,433.8c-2.3,5.9-3.9,11.6-5,17c-2,10.4-2.1,20.4-0.3,30.7c1.8,10.1,5.3,18.9,10.6,27c2.7,4.1,6.1,8.1,10,11.8
				c3.1,2.8,6.8,5.9,11.9,8.7c3.7-5.7,6.1-10.9,8-15.6c2.3-5.9,4-11.6,5-17c2-10.5,2-20.5,0.2-30.6c-1.9-10.2-5.4-19-10.7-27
				c-2.7-4.1-6.1-8.1-10-11.9c-3.2-3-6.9-6-11.8-8.8C815.7,423.9,813.4,429.1,811.4,433.8z"/>
		</g>
		<g class="st2">
			<path class="st3" d="M473,358.9c8.2-1.2,14.9-0.5,20.5,0.4c6,1.1,11.6,2.7,16.7,4.9c9.8,4.1,18.4,10.1,26.4,18.4
				c7.7,8,13.9,17.5,18.4,28c4,9.4,5.5,19.5,7,29.2c0.5,3.4,1,6.9,1.7,10.3c0.1,0.7,0.4,2.4-0.5,4.1c-0.8,1.4-2.1,2.3-3.8,2.6
				l-1.3,0.1c-7.4,0.2-16.5-1.3-19.1-1.7c-6-1-11.6-2.7-16.7-4.9c-9.7-4.1-18.6-10.3-26.4-18.4c-7.9-8.3-13.9-17.5-18.3-28.1
				c-2.3-5.5-4.2-11.6-5.7-18.3c-1.2-6.1-2.4-13.5-2.2-22.7l0.1-3.3L473,358.9z M554.1,440.9c-1.4-9.2-2.8-18.8-6.4-27.3
				c-4.1-9.8-9.6-18.2-16.8-25.6c-7.2-7.4-15-12.9-23.8-16.6c-4.5-1.9-9.6-3.4-14.9-4.3c-4.3-0.7-9.1-1.2-14.7-0.7
				c0.1,6.8,1,12.4,2,17.4c1.4,6.1,3.1,11.8,5.3,16.9c4.1,9.7,9.6,18.1,16.7,25.7c7.1,7.4,14.9,12.9,23.8,16.6
				c4.5,1.9,9.6,3.4,15,4.3c4.3,0.8,10.2,1.5,15.1,1.6C554.9,446.3,554.5,443.6,554.1,440.9z"/>
		</g>
		<g class="st2">
			<path class="st3" d="M1432.3,396.4c-8.2-0.8-14.6-3.1-19.8-5.3c-5.5-2.5-10.6-5.4-15-8.7c-8.5-6.4-15.4-14.3-21.2-24.2
				c-5.6-9.7-9.3-20.3-11.1-31.6c-1.6-10.1-0.6-20.2,0.3-30c0.3-3.5,0.7-6.9,0.9-10.4c0-0.7,0.2-2.4,1.5-3.8
				c1.1-1.2,2.7-1.7,4.3-1.6l1.3,0.2c7.2,1.6,15.7,5.2,18.1,6.3c5.6,2.5,10.7,5.4,15.1,8.7c8.4,6.4,15.6,14.5,21.2,24.3
				c5.6,9.9,9.2,20.3,11,31.7c0.9,5.9,1.3,12.3,1.1,19.2c-0.3,6.2-0.9,13.7-3.4,22.6l-0.9,3.2L1432.3,396.4z M1373.3,297.3
				c-0.9,9.3-1.8,18.9-0.3,28c1.6,10.5,5,20,10.1,28.9c5.2,9,11.5,16.1,19.1,21.8c4,3,8.5,5.6,13.4,7.8c4,1.7,8.5,3.3,14.1,4.3
				c1.6-6.6,2-12.3,2.2-17.4c0.2-6.3-0.2-12.2-1-17.7c-1.6-10.4-4.9-19.9-10.1-29c-5.1-8.9-11.4-16.1-19.1-21.9
				c-3.9-3-8.5-5.6-13.5-7.8c-4-1.8-9.5-3.9-14.3-5.2C1373.8,291.9,1373.5,294.6,1373.3,297.3z"/>
		</g>
		<g class="st2">
			<g>
				<g>
					<path class="st3" d="M601.8,891.1c0.6,0.5,1.1,1.1,1.8,1.6c6.3,5.8,12.6,11.7,19.1,17.4l8.4,7.2l2.3,2l5.4,4.6l5.5,4.4
						l11.1,8.8l11.4,8.4c13.1,9.5,26.5,18.6,40.5,26.9c3.2-2.7,6.5-5.5,9.9-8.2c-15.7-7.5-31-16.2-45.8-25.4l-3.7-2.3l-8.1-5.2
						l-11.6-7.9l-5.8-4l-9.3-6.9l-7.7-5.7c-2.2-1.6-4.3-3.3-6.5-4.9c-3.8-3-7.5-5.9-11.3-9c-1.1-0.9-2.2-1.7-3.3-2.6
						c-0.4-0.3-0.7-0.6-1.1-0.9l-21.5-18.2l19.2,18.8L601.8,891.1z"/>
				</g>
			</g>
			<g>
				<g>
					<g>
						<path class="st3" d="M384.9,625.6c17.3,5.3,34.1,10.9,50.1,16.6l2.3,0.8c19.7,7.2,38.3,14.8,55.2,22.7l2.2,1
							c24,11.2,45.6,23.1,64.3,35.6l2,1.4c22.5,15.2,41.3,31.5,55.9,48.4c0.6,0.7,1.3,1.5,1.9,2.2c67.3,80.2,24.7,154.1,19.5,162.3
							l-1.5,2l-1.5,0.9c-59.8,34.6-113.5,23.2-159.3-33.7c-0.7-0.9-1.4-1.7-2-2.6c-11.5-14.7-22.5-32.4-32.7-52.5l-1.3-2.5
							c-9.5-18.9-18.4-40.3-26.6-63.4l-0.9-2.5c-6.7-19.2-12.9-39.6-18.5-60.7c-0.3-0.9-0.5-1.9-0.7-2.8
							c-8.4-32.1-13.1-57.3-14.7-66.6l-1.5-9L384.9,625.6z M631.4,912.7l0.3-0.3c4.8-7.7,44.8-77.1-19-153c-0.6-0.7-1.1-1.3-1.8-2.1
							c-14.1-16.4-32.4-32.2-54.5-47.1l-1.9-1.3c-18.3-12.2-39.6-24-63.4-35.1l-1.9-0.9c-16.8-7.8-35.3-15.3-55.2-22.6l-1.8-0.7
							c-14.5-5.3-29.8-10.4-45.4-15.2c2.1,11.3,6.5,34.1,13.9,62.3l0,0.1c0.2,0.8,0.4,1.7,0.7,2.6c5.5,21,11.7,41.2,18.4,60.2
							l0.9,2.5c8.1,22.8,16.9,43.9,26.2,62.5l1.2,2.4c10,19.7,20.7,36.9,31.9,51.2c0.6,0.8,1.2,1.6,1.9,2.4
							c36.4,45.2,78,59.9,123.8,43.8C614.2,921.6,622.7,917.7,631.4,912.7z"/>
					</g>
				</g>
			</g>
			<g>
				<g>
					<g>
						<path class="st3" d="M447.2,714.6c1,1.2,1.9,2.3,2.8,3.4c13.7,16.6,29.4,35,46.9,54.9c0.8,0.9,1.6,1.8,2.4,2.7
							c17.2,19.5,36.2,40.4,56.8,62.2c0.8,0.9,1.7,1.7,2.5,2.6c15.4,16.2,31.7,33,48.9,50.2c0.8,0.9,1.7,1.7,2.5,2.6
							c7.6,7.6,15.4,15.2,23.3,22.9c0.4-0.2,0.7-0.4,1.1-0.6l0.7-1c-18.4-17.9-36-35.5-52.6-52.6c-0.6-0.6-1.2-1.3-1.8-1.9
							c-19.7-20.3-38-39.9-54.9-58.5c-0.6-0.7-1.2-1.3-1.8-2c-17.6-19.4-33.7-37.7-48.2-54.7c-0.6-0.7-1.3-1.5-1.9-2.2
							c-17.7-20.7-32.9-39.3-45.6-55.2c-0.6-0.8-1.3-1.6-1.9-2.5c-24.3-30.5-38.8-50.5-42.4-55.5c-0.6-0.2-1.2-0.4-1.8-0.6
							c0,0,0.2,0.9,0.4,2.6C387.9,639.2,410.2,669.8,447.2,714.6z"/>
					</g>
				</g>
			</g>
			<g>
				<g>
					<g>
						<path class="st3" d="M610,893.2l0.4,0l0.2-2.4l-3.2-0.2L477,880.8c0.7,0.9,1.3,1.7,2,2.5L610,893.2z"/>
					</g>
				</g>
			</g>
			<g>
				<g>
					<g>
						<path class="st3" d="M558.6,840.5l0.4,0l0.2-2.4l-3.1-0.3l-112.7-11.4c0.4,0.8,0.8,1.7,1.3,2.5L558.6,840.5z"/>
					</g>
				</g>
			</g>
			<g>
				<g>
					<g>
						<path class="st3" d="M499.3,775.6l0.3,0l0.3-2.3l-3.1-0.4L416.2,761c0.3,0.8,0.6,1.7,0.9,2.5L499.3,775.6z"/>
					</g>
				</g>
			</g>
			<g>
				<g>
					<g>
						<path class="st3" d="M450,718c0.2,0.1,0.9-2.2,0.9-2.2l-3.8-1.3L397,697.8c0.2,0.9,0.5,1.8,0.7,2.7L450,718z"/>
					</g>
				</g>
			</g>
			<g>
				<g>
					<g>
						<path class="st3" d="M473.2,744.9l2.3,0.5l0.2-0.6l17.5-74.4c-0.7-0.3-1.4-0.7-2.2-1l-17.2,73.2L473.2,744.9z"/>
					</g>
				</g>
			</g>
			<g>
				<g>
					<g>
						<path class="st3" d="M425.7,687.5l2.3,0.5l0.1-0.6l7.8-40.6c-0.7-0.3-1.5-0.6-2.2-0.8l-7.5,39L425.7,687.5z"/>
					</g>
				</g>
			</g>
			<g>
				<g>
					<g>
						<path class="st3" d="M523.2,801.4l2.2,0.8l0.2-0.7l33.2-94.4c-0.7-0.5-1.3-0.9-2-1.4l-33,93.8L523.2,801.4z"/>
					</g>
				</g>
			</g>
			<g>
				<g>
					<g>
						<path class="st3" d="M580,861.9l2.2,0.7l0.2-0.7l33.4-105c-0.6-0.7-1.2-1.4-1.8-2.1L580.6,860L580,861.9z"/>
					</g>
				</g>
			</g>
		</g>
		<g class="st2">
			<g>
				<g>
					<path class="st3" d="M2480,403.5c-0.4,0.4-0.8,0.7-1.1,1c-4.1,3.7-8.3,7.4-12.3,11.3l-5.1,5l-1.4,1.4l-3.3,3.2l-3.2,3.3
						l-6.3,6.6l-6.1,6.8c-6.9,7.8-13.5,15.9-19.7,24.5c1.6,2.2,3.2,4.5,4.7,6.8c5.8-9.6,12.3-18.9,19.1-27.9l1.7-2.2l3.8-4.9l5.8-7
						l2.9-3.5l5-5.5l4.1-4.6c1.2-1.3,2.4-2.6,3.6-3.9c2.1-2.3,4.3-4.5,6.4-6.7c0.6-0.6,1.2-1.3,1.9-2c0.2-0.2,0.4-0.4,0.6-0.7
						l13-12.7l-13.2,11.2L2480,403.5z"/>
				</g>
			</g>
			<g>
				<g>
					<g>
						<path class="st3" d="M2663.5,279.9c-4.4,10.8-9,21.3-13.7,31.2l-0.7,1.4c-5.8,12.2-11.8,23.7-17.9,34.1l-0.8,1.4
							c-8.6,14.7-17.6,27.9-26.7,39.2l-1,1.2c-11.1,13.6-22.7,24.7-34.4,33c-0.5,0.4-1,0.7-1.5,1.1c-55.6,38.5-100.5,6.7-105.5,2.9
							l-1.2-1.1l-0.5-1c-18.7-40.5-8.2-74.3,31.2-100.4c0.6-0.4,1.2-0.8,1.8-1.2c10.1-6.5,22.2-12.6,35.7-17.9l1.7-0.7
							c12.7-5,27-9.4,42.3-13.3l1.6-0.4c12.7-3.2,26.2-6,40.1-8.3c0.6-0.1,1.2-0.2,1.8-0.3c21.1-3.5,37.6-5,43.7-5.5l5.9-0.4
							L2663.5,279.9z M2464.3,421.2l0.2,0.2c4.6,3.5,46.8,33.4,99.5-3.1c0.5-0.3,0.9-0.6,1.4-1c11.4-8.1,22.7-18.9,33.5-32.2
							l0.9-1.2c8.9-11,17.8-24,26.3-38.7l0.7-1.2c6-10.4,12-21.7,17.8-34.1l0.5-1.1c4.2-9,8.4-18.5,12.5-28.3
							c-7.4,0.6-22.3,2.2-40.9,5.2l0,0c-0.6,0.1-1.1,0.2-1.7,0.3c-13.8,2.3-27.2,5.1-39.8,8.2l-1.6,0.4
							c-15.1,3.8-29.2,8.2-41.8,13.1l-1.6,0.6c-13.2,5.2-24.9,11.1-34.8,17.5c-0.6,0.4-1.1,0.7-1.7,1.1
							c-31.2,20.7-43.1,46.5-35.5,76.9C2459.6,409.6,2461.7,415.3,2464.3,421.2z"/>
					</g>
				</g>
			</g>
			<g>
				<g>
					<g>
						<path class="st3" d="M2602.6,314.6c-0.8,0.5-1.6,1.1-2.4,1.6c-11.5,7.8-24.3,16.8-38.1,26.9c-0.6,0.5-1.3,0.9-1.9,1.4
							c-13.6,9.9-28.1,20.9-43.4,32.8c-0.6,0.5-1.2,1-1.8,1.4c-11.4,8.9-23.1,18.4-35.2,28.4c-0.6,0.5-1.2,1-1.8,1.5
							c-5.3,4.4-10.7,9-16.1,13.6c0.1,0.2,0.2,0.5,0.3,0.7l0.6,0.5c12.6-10.8,25-21,37-30.7c0.4-0.4,0.9-0.7,1.3-1.1
							c14.2-11.4,27.9-22,40.9-31.8c0.5-0.4,0.9-0.7,1.4-1c13.5-10.2,26.3-19.4,38-27.7c0.5-0.4,1-0.7,1.5-1.1
							c14.4-10.1,27.2-18.8,38.2-26c0.6-0.4,1.1-0.8,1.7-1.1c21-13.8,34.8-21.9,38.2-23.9c0.2-0.4,0.3-0.8,0.5-1.2
							c0,0-0.6,0-1.7,0.1C2654.6,281,2633.6,293.5,2602.6,314.6z"/>
					</g>
				</g>
			</g>
			<g>
				<g>
					<g>
						<path class="st3" d="M2478.1,408.7l-0.1,0.3l1.5,0.3l0.3-2l14.1-83.2c-0.6,0.4-1.2,0.7-1.7,1.1L2478.1,408.7z"/>
					</g>
				</g>
			</g>
			<g>
				<g>
					<g>
						<path class="st3" d="M2515.1,378.8l-0.1,0.3l1.5,0.3l0.4-2l14-71.7c-0.6,0.2-1.1,0.4-1.7,0.7L2515.1,378.8z"/>
					</g>
				</g>
			</g>
			<g>
				<g>
					<g>
						<path class="st3" d="M2560.3,344.5l0,0.2l1.5,0.4l0.5-2l12.5-51.2c-0.5,0.1-1.1,0.3-1.6,0.4L2560.3,344.5z"/>
					</g>
				</g>
			</g>
			<g>
				<g>
					<g>
						<path class="st3" d="M2600.3,316.3c-0.1,0.1,1.3,0.7,1.3,0.7l1-2.4l13.8-31.3c-0.6,0.1-1.2,0.2-1.8,0.3L2600.3,316.3z"/>
					</g>
				</g>
			</g>
			<g>
				<g>
					<g>
						<path class="st3" d="M2581.6,329.6l-0.5,1.4l0.4,0.1l46.8,15.7c0.3-0.4,0.5-0.9,0.8-1.3l-46-15.4L2581.6,329.6z"/>
					</g>
				</g>
			</g>
			<g>
				<g>
					<g>
						<path class="st3" d="M2621.3,302.4l-0.4,1.5l0.4,0.1l25.6,7.4c0.2-0.5,0.5-0.9,0.7-1.4l-24.6-7.2L2621.3,302.4z"/>
					</g>
				</g>
			</g>
			<g>
				<g>
					<g>
						<path class="st3" d="M2542.3,358.3l-0.6,1.4l0.4,0.2l58.7,27c0.3-0.4,0.7-0.8,1-1.2l-58.3-26.8L2542.3,358.3z"/>
					</g>
				</g>
			</g>
			<g>
				<g>
					<g>
						<path class="st3" d="M2500.1,391.2l-0.6,1.4l0.4,0.2l65.5,27.7c0.5-0.3,1-0.7,1.5-1l-65.6-27.7L2500.1,391.2z"/>
					</g>
				</g>
			</g>
		</g>
		<g>
			<defs>
				<rect id="SVGID_1_" x="783.2" y="292.2" width="1396.1" height="1592.1"/>
			</defs>
			<clipPath id="SVGID_00000173148969599620885190000005441930838049358730_">
				<use xlink:href="#SVGID_1_"  style="overflow:visible;"/>
			</clipPath>
			<g id="character6" style="clip-path:url(#SVGID_00000173148969599620885190000005441930838049358730_);">
				<path class="st5" d="M1672.3,975.2c35.2,110.8,162.7,157.1,253.2,230.1c104.2,84.1,165.6,218.7,160.7,352.5
					c-3.2,87.9-33.2,175.4-20.2,262.4c9.2,61.2,39.2,118,47.5,179.4c12.3,91.3-26.5,184.8-90.1,251.5
					c-188.6,197.6-614.7,220.3-770.8-22.5c-107.6-167.3-59.8-410.8-195-556.7c-54.2-58.5-131.7-92.8-181-155.5
					c-82.7-105.1-62.9-257.8-15.6-382.9c47.3-125,118.7-244.6,128.7-377.9c2.5-32.7,1.3-66.7,14.2-97c18.9-44.4,123.4-114.8,168-136
					c190.5-90.3,466.1,79,486.4,302.1C1663,875,1657,927.1,1672.3,975.2z"/>
				<path class="st1" d="M1194.1,1721c-74.8-173.9-149.1-329-161.7-290.7c-71.4,217-363.9,692.1-267,856.9
					c95.2,161.7,595.3-156.7,595.3-156.7S1277.1,1914.1,1194.1,1721z"/>
				<path class="st6" d="M1352,1258.6c-112.3-15.5-299.6,125.6-319.7,171.7c-32.1,73.6-25.1,119.1-29.7,217
					c-0.9,18.4-69.3,109.8-65.5,147.3c3.5,34.3,42.8,82.6,76.1,100.3c0.5,140.1,82.1,311.6,73.7,426.9
					c-4.5,61.6,517.7,37.1,509.8-34.7c-36.8-334.3,166.3-745.3,101.1-883.8C1669.7,1343.9,1462.1,1273.8,1352,1258.6z"/>
				<path class="st7" d="M1257.8,923.1c-18.3,307.2-59,380.2-56.3,424.3c1.6,25.8,220,43.9,233.5-41.1
					c7.2-45.6-44.9-296.6-31.3-465.4C1330,854.6,1262.6,841.4,1257.8,923.1z"/>
				<g>
					<path class="st1" d="M1306.8,1914.1c-19.6,0-39.1-2.2-57-7.2c-30.8-8.6-53.5-24.9-65.6-47c-2.9-5.4-1-12.2,4.4-15.1
						c5.4-2.9,12.2-1,15.1,4.4c9.3,17,26.8,29.2,52,36.2c53,14.8,123.7,1.8,158.9-18.7c5.3-3.1,12.1-1.3,15.2,4
						c3.1,5.3,1.3,12.1-4,15.2C1398.1,1902.3,1352.2,1914.1,1306.8,1914.1z"/>
				</g>
				<g>
					<path class="st6" d="M1692.6,1393.7c62,93.6,330.8,816.9,202,871.6c-21.7,9.2-80.8,0.6-109.6-42.5
						c-62.1-92.7-111-366-228.7-552.2C1497.6,1578,1654.6,1336.4,1692.6,1393.7z"/>
					<path class="st6" d="M1790.4,2083.2c-10.9,24.2-426.4,87.6-510.6,87.5c-27.4,0-14.9,98.3,1.9,109.6
						c23.2,15.5,479.5,85.3,619.3-22.2C1992,2188.2,1814,2030.7,1790.4,2083.2z"/>
				</g>
				<g>
					<path class="st8" d="M842.9,2168.7c43.7-5.4,41.9-6.2,53.8-16.1c13.1-10.8,44.8-54.6,64.5-57.7c19.7-3.1,62.7,0.5,88.5-0.9
						c25.8-1.4,41.7-13.3,44.8-5.5c3.2,7.8-5.5,27.9-21.6,33.3c-16.1,5.4-64.5-9.8-67.8,14.3c-2.4,17.4,115.6-7.9,119.6,6.9
						c5.3,19.8-30.3,20.9-33.1,33c-8.2,35.4-34.3,70.3-42.2,73.6c-47.6,20-161.7,8.8-181.3,10.1c-19.7,1.3-24.4-4.4-32.9-14.5
						C820.9,2227.9,819.6,2171.6,842.9,2168.7z"/>
					<g>
						<path class="st1" d="M1641.5,1848.1c-2.6,0-5.2-3-7-8.9c-25.8-83.7-47.8-168.5-48-169.3c-3-11.4-1.9-27.5,2.4-35.9
							c4.3-8.4,10.1-5.9,13.1,5.5c0.2,0.8,21.8,84,47.1,166.1c3.3,10.7,2.7,26.9-1.3,36.2
							C1645.9,1846.1,1643.7,1848.1,1641.5,1848.1z"/>
					</g>
				</g>
				<path class="st9" d="M1066.9,663c-57.4,191.3,4.1,420.1,68.8,439.2c105.4,31.2,262.7-92.8,254.3-225.6
					c44.9,48,68.3-104.6,52.1-119.7c-30.9-28.9-58,36.2-68.5,34.5C1300,780,1110.3,738.1,1066.9,663z"/>
				<g>
					<path class="st1" d="M1302.3,868.3c0,8.7-7.1,15.8-15.8,15.8c-8.7,0-15.8-7.1-15.8-15.8c0-8.7,7.1-15.8,15.8-15.8
						C1295.3,852.5,1302.3,859.6,1302.3,868.3z"/>
					
						<ellipse transform="matrix(0.7733 -0.634 0.634 0.7733 -327.7624 1017.8094)" class="st1" cx="1259.6" cy="967.3" rx="15.8" ry="15.8"/>
					<path class="st1" d="M1243.8,940.3c0,5-4,9-9,9c-5,0-9-4-9-9c0-5,4-9,9-9C1239.8,931.3,1243.8,935.3,1243.8,940.3z"/>
					<path class="st1" d="M1225.8,998.8c0,5-4,9-9,9c-5,0-9-4-9-9c0-5,4-9,9-9C1221.8,989.8,1225.8,993.8,1225.8,998.8z"/>
					
						<ellipse transform="matrix(0.9239 -0.3827 0.3827 0.9239 -243.6239 538.8132)" class="st1" cx="1232.6" cy="881.8" rx="9" ry="9"/>
					<circle class="st1" cx="1320.3" cy="911" r="9"/>
					
						<ellipse transform="matrix(7.987078e-02 -0.9968 0.9968 7.987078e-02 255.8485 2130.7642)" class="st1" cx="1282.1" cy="926.8" rx="9" ry="9"/>
					<path class="st1" d="M1286.6,1004.4c0,4.3-3.5,7.9-7.9,7.9c-4.3,0-7.9-3.5-7.9-7.9c0-4.3,3.5-7.9,7.9-7.9
						C1283.1,996.6,1286.6,1000.1,1286.6,1004.4z"/>
					<path class="st1" d="M1204.1,870.4c0,4-3.3,7.3-7.3,7.3s-7.3-3.3-7.3-7.3c0-4,3.3-7.3,7.3-7.3S1204.1,866.4,1204.1,870.4z"/>
					<path class="st1" d="M1192,966.6c0,4-3.3,7.3-7.3,7.3s-7.3-3.3-7.3-7.3s3.3-7.3,7.3-7.3S1192,962.6,1192,966.6z"/>
					
						<ellipse transform="matrix(0.9925 -0.1222 0.1222 0.9925 -96.545 171.1596)" class="st1" cx="1347.3" cy="872.8" rx="7.9" ry="7.9"/>
					
						<ellipse transform="matrix(0.1222 -0.9925 0.9925 0.1222 152.0845 1994.049)" class="st1" cx="1203.3" cy="911" rx="7.9" ry="7.9"/>
					
						<ellipse transform="matrix(0.2298 -0.9732 0.9732 0.2298 76.4757 2022.2305)" class="st1" cx="1315.8" cy="962.8" rx="9" ry="9"/>
				</g>
			</g>
		</g>
		<g id="shadow_2_">
			<path class="st10" d="M706.7,1895.8c-1.6,0-2.8-4.5-2.7-10.1c0.1-5.6,1.4-10.1,2.9-10.1l1446.1,3.2c1.6,0,2.8,4.5,2.7,10.1
				c-0.1,5.6-1.4,10.1-2.9,10.1L706.7,1895.8C706.7,1895.8,706.7,1895.8,706.7,1895.8z"/>
		</g>
		<g>
			<path class="st1" d="M744.7,1698.2c38.4,65.2,62.4,126.8,71.8,182.5l4.7,0.6c-0.2-0.9-0.3-1.9-0.4-2.8
				c-9.8-56.2-34.1-117.6-72.3-182.4c-34.7-58.9-80.6-119.5-132.7-175.3c-50.3-53.9-105.3-102.2-159.1-139.8c-1-0.7-2.3-0.4-3,0.5
				c-0.7,1-0.4,2.3,0.5,3C564.9,1461.8,676.2,1582,744.7,1698.2z"/>
			<path class="st1" d="M455.4,1382.6c-4.2,6-57.8-1.4-106.8-26.3c-23.4-12-45.4-26.5-107.3-72c21.5-7.7,54.2-10.9,88.5-4.3
				C423.9,1298.2,459,1377.5,455.4,1382.6z"/>
			<path class="st1" d="M549.2,1458.3c-6.7-1.9-24-33.8-33.7-59.1c-23.4-61.1-9.8-104.7-14.9-142.6c19.6,9.1,48.7,35.3,67.4,69.9
				C613.3,1410.1,557.3,1460.7,549.2,1458.3z"/>
			<path class="st1" d="M679.2,1583.4c-21.4,4.8-10.7-4.9-18.8-68.7c-8-62.9-19.2-152.3,13.6-166.5c6.3,32.1,38,61.6,53.2,114.6
				C745.9,1529.4,716.2,1574.7,679.2,1583.4z"/>
			<path class="st1" d="M813.9,1762.2c-12.2-0.2-27.4-3.7-36.3-10.1c-4.1-2.9-4.9-4.2,2.2-14.5c15.5-22.2,22.3-32.5,40.2-78.7
				c13.5-33.5,35.7-92.3,33.2-128.4c25.7,23.6,53.9,93,43.6,152.3C887.6,1736.7,852.7,1762.8,813.9,1762.2z"/>
			<path class="st1" d="M597.7,1505c0.7,2.1-0.9,5.8-4.8,10.4c-15.6,18.4-53.2,33.9-95.9,27.2c-35.2-5.7-66.7-24.3-88.1-50.2
				c-9.6-11.6-15.8-22.6-22.1-35.4c1.9,0.1,6.9,0.8,11.4,1.6c20.7,3.5,16.1,3.7,54.1,8.7c0,0,2.7,0.3,27.2,2.5
				C540.6,1475.3,595.6,1498.8,597.7,1505z"/>
			<path class="st1" d="M662.9,1643c24.7,3.1,58.3,12.1,60.9,17.2c1,2,0.4,6.2-2.2,11.8c-1.2,2.8-3.1,5.7-5.5,8.9
				c-12.7,17.6-40.6,32.8-74,33.3c-54.7,0.6-100.3-33.1-112.1-45.9c26.3-9.2,56.2-19.5,83.6-24.2
				C630.3,1641.1,644.8,1640.7,662.9,1643z"/>
		</g>
		<g>
			<path class="st6" d="M2218.4,1123.3c39.1,62.4,153-27.4,175.6-93.5C2296.8,995.6,2165.5,1039,2218.4,1123.3z"/>
			<path class="st11" d="M2208.8,1114.3c0.5,0.9,1.6,1.3,2.5,0.9l179.4-81.8c1-0.4,1.4-1.6,0.9-2.6c-0.4-0.9-1.6-1.4-2.6-1
				l-179.4,81.8C2208.8,1112.1,2208.4,1113.3,2208.8,1114.3C2208.8,1114.2,2208.8,1114.3,2208.8,1114.3z"/>
			<path class="st11" d="M2355.9,1047.2c0.2,0.4,0.5,0.7,1,0.9c1,0.4,2.1-0.1,2.5-1l9-22.2c0.4-1-0.1-2.1-1.1-2.5
				c-1-0.4-2.1,0.1-2.5,1l-9,22.2C2355.7,1046.2,2355.7,1046.7,2355.9,1047.2z"/>
			<path class="st11" d="M2337.2,1055.8c0.2,0.4,0.6,0.8,1.1,1l33.3,11.4c1,0.3,2.1-0.2,2.4-1.2c0.3-1-0.2-2.1-1.2-2.5l-33.3-11.4
				c-1-0.3-2.1,0.2-2.4,1.2C2336.9,1054.8,2336.9,1055.3,2337.2,1055.8z"/>
			<path class="st11" d="M2313.5,1066.5c0.3,0.5,0.8,1,1.4,1.1c1.1,0.2,2-0.6,2.2-1.6l6.8-46c0.2-1.1-0.6-2-1.6-2.2
				c-1.1-0.2-2,0.6-2.2,1.6l-6.8,46C2313.2,1065.7,2313.3,1066.1,2313.5,1066.5z"/>
			<path class="st11" d="M2284,1080c0.2,0.4,0.5,0.7,0.8,0.9l48.8,25.5c0.9,0.5,2.1,0.1,2.6-0.8c0.5-0.9,0.1-2.1-0.8-2.6l-48.8-25.5
				c-0.9-0.5-2.1-0.1-2.6,0.8C2283.8,1078.8,2283.8,1079.5,2284,1080z"/>
			<path class="st11" d="M2258.9,1091.5c0.4,0.7,1.1,1.2,1.9,1.1c1.1-0.1,1.8-1.1,1.7-2.1l-6.4-57c-0.1-1.1-1.1-1.8-2.1-1.7
				c-1.1,0.1-1.8,1.1-1.7,2.1l6.4,57C2258.7,1091.1,2258.8,1091.3,2258.9,1091.5z"/>
			<path class="st11" d="M2231.8,1103.8c0.1,0.3,0.3,0.5,0.6,0.7l47.6,35.2c0.9,0.6,2.1,0.5,2.7-0.4c0.6-0.9,0.4-2.1-0.4-2.7
				l-47.6-35.2c-0.9-0.6-2.1-0.5-2.7,0.4C2231.6,1102.4,2231.5,1103.2,2231.8,1103.8z"/>
		</g>
		<g>
			<path class="st6" d="M2468.9,1760.3c-6.5,53.8,100.5,54.6,144,27.1C2573,1723.1,2477.6,1687.6,2468.9,1760.3z"/>
			<path class="st11" d="M2467.6,1750.7c-0.2,0.7,0.3,1.5,1,1.7l140.7,35.5c0.8,0.2,1.5-0.3,1.7-1c0.2-0.7-0.3-1.5-1-1.7
				l-140.7-35.5C2468.6,1749.5,2467.8,1749.9,2467.6,1750.7C2467.6,1750.7,2467.6,1750.7,2467.6,1750.7z"/>
			<path class="st11" d="M2583,1779.9c-0.1,0.3,0,0.7,0.1,1c0.4,0.7,1.2,0.9,1.9,0.6l15.4-8.6c0.7-0.4,0.9-1.2,0.6-1.9
				c-0.4-0.7-1.2-0.9-1.9-0.6l-15.4,8.6C2583.4,1779.1,2583.1,1779.5,2583,1779.9z"/>
			<path class="st11" d="M2568.3,1776.2c-0.1,0.4,0,0.7,0.2,1.1l13.8,21.9c0.4,0.7,1.3,0.9,2,0.4c0.7-0.4,0.9-1.3,0.4-2l-13.8-21.9
				c-0.4-0.7-1.3-0.9-2-0.4C2568.6,1775.5,2568.4,1775.8,2568.3,1776.2z"/>
			<path class="st11" d="M2549.8,1771.4c-0.1,0.4,0,0.9,0.3,1.3c0.5,0.6,1.4,0.6,2,0.1l25.2-23.2c0.6-0.5,0.6-1.4,0.1-2
				c-0.5-0.6-1.4-0.6-2-0.1l-25.2,23.2C2550,1770.9,2549.8,1771.1,2549.8,1771.4z"/>
			<path class="st11" d="M2526.6,1765.6c-0.1,0.3,0,0.6,0.1,0.9l16.2,37.1c0.3,0.7,1.1,1,1.9,0.7c0.7-0.3,1-1.2,0.7-1.9l-16.2-37.1
				c-0.3-0.7-1.1-1-1.9-0.7C2527,1764.8,2526.7,1765.2,2526.6,1765.6z"/>
			<path class="st11" d="M2506.9,1760.7c-0.1,0.6,0.1,1.2,0.6,1.5c0.7,0.4,1.5,0.2,2-0.4l22.7-35.7c0.4-0.7,0.2-1.5-0.4-2
				c-0.7-0.4-1.5-0.2-2,0.4l-22.7,35.7C2507,1760.3,2506.9,1760.5,2506.9,1760.7z"/>
			<path class="st11" d="M2485.7,1755.3c0,0.2,0,0.4,0,0.7l11,42.1c0.2,0.8,1,1.2,1.7,1c0.8-0.2,1.2-1,1-1.7l-11-42.1
				c-0.2-0.8-1-1.2-1.7-1C2486.1,1754.4,2485.8,1754.8,2485.7,1755.3z"/>
		</g>
		<g>
			<path class="st11" d="M2123.9,1711.9c-9.2-79.5,178.7-97.6,254.1-63.3C2305.4,1751.2,2136.3,1819.4,2123.9,1711.9z"/>
			<path class="st12" d="M2126.2,1725.6c44.9-24.8,164.2-50.4,251.7-77C2305.4,1751.2,2136,1817.7,2126.2,1725.6z"/>
			<polygon class="st12" points="2301.4,1670 2305,1672.6 2330.9,1636.6 2327.3,1634 			"/>
			<polygon class="st12" points="2225.4,1693.3 2229.4,1695.3 2261.1,1633.7 2257.2,1631.7 			"/>
			<path class="st12" d="M2106.4,1737.3c0.7,0.6,1.8,0.7,2.6,0.2c38.7-24.2,111.2-43,175.2-59.7c35.7-9.3,69.4-18,93.3-26.7
				c1.2-0.4,1.7-1.7,1.3-2.9c-0.4-1.2-1.7-1.8-2.8-1.3c-23.8,8.6-57.4,17.4-92.9,26.6c-64.3,16.7-137.1,35.7-176.4,60.2
				c-1,0.7-1.4,2-0.7,3.1C2106.1,1737,2106.2,1737.2,2106.4,1737.3z"/>
			<polygon class="st12" points="2150.7,1716.2 2154.9,1717.6 2176.6,1650.8 2172.4,1649.4 			"/>
			<path class="st12" d="M2377.9,1652.5c0.6-0.9,1.2-1.7,1.9-2.6l1.6-2.2l-2.5-1.1c-0.4-0.2-0.8-0.3-1.2-0.5
				c-28-12.4-71.6-18.2-116.9-15.7c-27.5,1.6-52.9,6.1-74.1,12.9c-6.9,2.2-13.3,4.7-19.2,7.4c-3.4,1.5-6.5,3.1-9.5,4.8
				c-4.2,2.3-8,4.7-11.4,7.2c-18.6,13.7-27,30.3-24.8,49.4c0.1,0.5,0.1,1,0.2,1.4c0.5,3.7,1.2,7.3,2,10.7c0.4,1.5,0.8,2.9,1.3,4.3
				c0.2,0.6,0.4,1.1,0.6,1.7c0.8,2.2,1.6,4.2,2.6,6.2c1.9,3.9,4.1,7.5,6.6,10.8c2.1,2.7,4.5,5.2,7.1,7.4c6.2,5.3,13.7,9.1,22.5,11.4
				c10.3,2.7,22.2,3.2,35.2,1.6c10.3-1.2,21.4-3.8,32.9-7.6c0.1,0,0.2-0.1,0.3-0.1c13.4-4.4,27.4-10.6,41.6-18.3
				c14.2-7.7,27.9-16.6,40.9-26.5l0,0c15.9-12,30.6-25.4,43.5-39.6c0.1-0.1,0.2-0.3,0.4-0.4
				C2366.1,1667.7,2372.3,1660.2,2377.9,1652.5z M2232.9,1755.2c-1.5,0.5-3,1-4.5,1.5c-24,7.5-45.7,9.4-62.7,5
				c-12.1-3.1-21.5-9.3-28.2-18.3c-3.5-4.8-6.3-10.4-8.3-16.7c-0.1-0.4-0.2-0.7-0.3-1.1c0-0.1-0.1-0.2-0.1-0.3
				c-0.1-0.3-0.2-0.6-0.2-0.9c-0.2-0.7-0.4-1.4-0.5-2.1c-0.4-1.7-0.8-3.4-1.1-5.1c0,0,0,0,0,0c-0.3-1.8-0.6-3.6-0.8-5.5
				c-2-17.4,5.7-32.6,23-45.3c1.6-1.2,3.3-2.3,5.1-3.5c4.7-3,9.8-5.7,15.4-8.3c0.4-0.2,0.9-0.4,1.4-0.6c1.7-0.8,3.5-1.5,5.4-2.3
				c3.8-1.5,7.7-2.9,11.7-4.2c20.3-6.6,43.6-10.7,67.3-12.4c1.7-0.1,3.4-0.2,5.2-0.3c22.1-1.3,44.3-0.5,64.6,2.2
				c1.7,0.2,3.3,0.5,5,0.7c15.6,2.4,29.9,5.9,41.7,10.6c1,0.4,1.9,0.8,2.8,1.1c0,0-0.1,0.1-0.1,0.1c-0.8,1.1-1.6,2.2-2.5,3.3
				c-4.6,6.2-9.7,12.2-15,18.2c-1.1,1.2-2.1,2.4-3.2,3.5c-11.9,12.8-25.3,24.9-39.7,35.9c-1.2,1-2.5,1.9-3.7,2.8
				c-12.1,9-24.8,17.2-37.9,24.2C2259,1745,2245.6,1750.9,2232.9,1755.2z"/>
			<path class="st11" d="M2328.6,1664.8c0.2,0.2,0.4,0.3,0.6,0.4l27.6,10.7c1.1,0.4,2.4-0.1,2.9-1.3c0.4-1.1-0.1-2.4-1.3-2.9
				l-27.6-10.7c-1.1-0.4-2.4,0.1-2.9,1.3C2327.6,1663.2,2327.9,1664.2,2328.6,1664.8z"/>
			<path class="st11" d="M2268.1,1683.3c0,0,0.1,0.1,0.2,0.1l44.6,31.8c1,0.7,2.4,0.5,3.1-0.5c0.7-1,0.5-2.4-0.5-3.1l-44.6-31.8
				c-1-0.7-2.4-0.5-3.1,0.5C2267,1681.3,2267.2,1682.6,2268.1,1683.3z"/>
			<path class="st11" d="M2230.7,1759.5c0.8,0.7,1.9,0.7,2.8,0.1c1-0.8,1.1-2.2,0.4-3.1l-40.7-52.6c-0.8-1-2.1-1.2-3.1-0.4
				c-1,0.8-1.1,2.2-0.4,3.1l40.7,52.6C2230.4,1759.3,2230.6,1759.4,2230.7,1759.5z"/>
		</g>
		<g>
			<path class="st11" d="M2429.7,1448.5c-17.3-50.3,102-89,155.9-77.5C2553.1,1448,2453.2,1516.5,2429.7,1448.5z"/>
			<path class="st12" d="M2433.2,1457.1c25.6-22.5,99.4-56.3,152.4-86C2553.1,1448,2452.7,1515.4,2433.2,1457.1z"/>
			<polygon class="st12" points="2538.9,1395.9 2541.7,1397 2553.3,1370 2550.6,1368.8 			"/>
			<polygon class="st12" points="2492.9,1421.9 2495.8,1422.6 2507.6,1378.1 2504.7,1377.3 			"/>
			<path class="st12" d="M2422,1467.5c0.6,0.3,1.2,0.2,1.7-0.2c21.7-21.2,66-43.9,105.2-63.8c21.8-11.1,42.5-21.6,56.8-30.7
				c0.7-0.4,0.9-1.4,0.5-2c-0.4-0.7-1.3-0.9-2-0.5c-14.2,9-34.8,19.5-56.5,30.6c-39.3,20.1-83.9,42.8-105.9,64.4
				c-0.6,0.6-0.6,1.5,0,2.1C2421.7,1467.3,2421.9,1467.4,2422,1467.5z"/>
			<polygon class="st12" points="2447.7,1447.5 2450.7,1447.8 2455.2,1401.3 2452.2,1401 			"/>
			<path class="st12" d="M2586.1,1373.5c0.3-0.6,0.6-1.3,0.8-1.9l0.7-1.7l-1.8-0.4c-0.3-0.1-0.5-0.1-0.8-0.2
				c-19.9-4-49.1-1.6-78.2,6.6c-17.6,5-33.5,11.5-46.2,19c-4.1,2.4-8,5-11.4,7.6c-2,1.5-3.8,3-5.5,4.5c-2.4,2.1-4.5,4.2-6.4,6.3
				c-10.1,11.5-13.2,23.5-9,35.6c0.1,0.3,0.2,0.6,0.3,0.9c0.8,2.4,1.8,4.6,2.9,6.6c0.5,0.9,0.9,1.8,1.4,2.6c0.2,0.3,0.4,0.7,0.6,1
				c0.8,1.3,1.6,2.5,2.5,3.7c1.8,2.3,3.7,4.3,5.9,6c1.8,1.4,3.6,2.7,5.6,3.8c4.8,2.5,10.2,3.9,16.3,4.2c7,0.3,14.8-1.1,23.1-4
				c6.5-2.3,13.3-5.5,20.3-9.6c0.1,0,0.1-0.1,0.2-0.1c8.1-4.8,16.3-10.8,24.4-17.8c8.1-7,15.7-14.8,22.8-23l0,0
				c8.6-10.1,16.2-20.9,22.6-31.9c0.1-0.1,0.1-0.2,0.2-0.3C2580.6,1385.1,2583.6,1379.3,2586.1,1373.5z M2506.7,1461
				c-0.9,0.6-1.8,1.1-2.7,1.6c-14.5,8.3-28.3,12.7-40,12.2c-8.3-0.3-15.3-2.9-20.9-7.8c-3-2.6-5.6-5.8-7.8-9.7
				c-0.1-0.2-0.3-0.4-0.4-0.7c0-0.1-0.1-0.1-0.1-0.2c-0.1-0.2-0.2-0.4-0.3-0.5c-0.2-0.4-0.4-0.8-0.6-1.3c-0.5-1-1-2.1-1.4-3.2
				c0,0,0,0,0,0c-0.5-1.1-0.9-2.3-1.3-3.4c-3.8-11-1-22,8.4-32.7c0.9-1,1.8-2,2.8-3c2.6-2.6,5.6-5.1,8.8-7.6
				c0.3-0.2,0.5-0.4,0.8-0.6c1-0.8,2.1-1.5,3.2-2.2c2.2-1.5,4.6-3,7-4.4c12.2-7.2,26.8-13.2,41.9-17.7c1.1-0.3,2.2-0.6,3.3-1
				c14.2-4,28.7-6.7,42.2-7.8c1.1-0.1,2.2-0.2,3.3-0.3c10.5-0.7,20.2-0.4,28.6,0.9c0.7,0.1,1.3,0.2,2,0.3c0,0,0,0.1,0,0.1
				c-0.4,0.8-0.7,1.7-1.1,2.5c-2.1,4.7-4.5,9.3-7.1,14c-0.5,0.9-1,1.8-1.6,2.8c-5.9,10-12.9,19.8-20.6,29c-0.7,0.8-1.3,1.6-2,2.4
				c-6.6,7.6-13.7,14.7-21.1,21.2C2522.1,1450.7,2514.3,1456.4,2506.7,1461z"/>
			<path class="st11" d="M2555.9,1388.6c0.1,0.1,0.3,0.1,0.5,0.2l19.4,3c0.8,0.1,1.6-0.4,1.7-1.2c0.1-0.8-0.4-1.6-1.2-1.7l-19.4-3
				c-0.8-0.1-1.6,0.4-1.7,1.2C2555,1387.7,2555.3,1388.4,2555.9,1388.6z"/>
			<path class="st11" d="M2519.2,1409.3c0,0,0.1,0,0.1,0.1l33.5,14.2c0.8,0.3,1.6,0,1.9-0.8c0.3-0.8,0-1.6-0.8-1.9l-33.5-14.2
				c-0.8-0.3-1.6,0-1.9,0.8C2518.2,1408.1,2518.5,1408.9,2519.2,1409.3z"/>
			<path class="st11" d="M2505.8,1464.1c0.6,0.3,1.4,0.2,1.8-0.4c0.5-0.6,0.4-1.6-0.2-2.1l-33.9-28.3c-0.6-0.5-1.6-0.4-2.1,0.2
				c-0.5,0.6-0.4,1.6,0.2,2.1l33.9,28.3C2505.7,1464,2505.8,1464.1,2505.8,1464.1z"/>
		</g>
		<g>
			<g>
				<rect x="2453.8" y="1867.8" class="st12" width="37.6" height="8.7"/>
				
					<rect x="2453.8" y="1867.8" transform="matrix(-1.836970e-16 1 -1 -1.836970e-16 4344.686 -600.4635)" class="st12" width="37.6" height="8.7"/>
			</g>
			<g>
				<rect x="2428.1" y="684.2" class="st11" width="30.6" height="7.1"/>
				
					<rect x="2428.1" y="684.2" transform="matrix(-1.836970e-16 1 -1 -1.836970e-16 3131.1133 -1755.7035)" class="st11" width="30.6" height="7.1"/>
			</g>
			<g>
				<rect x="671.1" y="1107.5" class="st11" width="39.3" height="9.1"/>
				
					<rect x="671.1" y="1107.5" transform="matrix(-1.836970e-16 1 -1 -1.836970e-16 1802.7622 421.377)" class="st11" width="39.3" height="9.1"/>
			</g>
			<g>
				<rect x="322.6" y="1518.6" class="st11" width="40.7" height="9.4"/>
				
					<rect x="322.6" y="1518.6" transform="matrix(-1.836970e-16 1 -1 -1.836970e-16 1866.2477 1180.3756)" class="st11" width="40.7" height="9.4"/>
			</g>
			<g class="st13">
				
					<rect x="294.9" y="927.7" transform="matrix(0.7071 0.7071 -0.7071 0.7071 757.1971 42.4069)" class="st11" width="64.9" height="15.1"/>
				
					<rect x="294.9" y="927.7" transform="matrix(-0.7071 0.7071 -0.7071 -0.7071 1220.2233 1365.0095)" class="st11" width="64.9" height="15.1"/>
			</g>
			<g>
				<path class="st14" d="M2263.8,456.2c13.1,0,23.8-10.7,23.8-23.8c0-13.1-10.7-23.8-23.8-23.8c-13.1,0-23.8,10.7-23.8,23.8
					C2240.1,445.5,2250.7,456.2,2263.8,456.2z M2263.8,421.4c6.1,0,11,4.9,11,11s-5,11-11,11c-6.1,0-11-5-11-11
					S2257.8,421.4,2263.8,421.4z"/>
			</g>
			<g>
				<path class="st14" d="M363.1,1816.1c1.4,0,2.8-0.1,4.1-0.3c13.8-2,24.4-13.9,24.4-28.3c0-15.8-12.8-28.6-28.6-28.6
					c-1.4,0-2.8,0.1-4.1,0.3c-13.8,2-24.4,13.9-24.4,28.3C334.5,1803.3,347.4,1816.1,363.1,1816.1z M362.2,1774.3c0.3,0,0.6,0,0.9,0
					c7.3,0,13.3,6,13.3,13.3c0,6.3-4.4,11.6-10.4,12.9c-0.9,0.2-1.9,0.3-2.9,0.3c-7.3,0-13.3-6-13.3-13.3
					C349.8,1780.5,355.3,1774.8,362.2,1774.3z"/>
			</g>
			<g>
				<path class="st14" d="M2284.1,1476.9c1.1,0,2.2-0.1,3.2-0.2c10.8-1.6,19.2-10.9,19.2-22.2c0-12.4-10-22.4-22.4-22.4
					c-1.1,0-2.2,0.1-3.2,0.2c-10.8,1.6-19.2,10.9-19.2,22.2C2261.6,1466.9,2271.7,1476.9,2284.1,1476.9z M2283.3,1444.1
					c0.2,0,0.5,0,0.7,0c5.7,0,10.4,4.7,10.4,10.4c0,5-3.5,9.1-8.1,10.2c-0.7,0.2-1.5,0.3-2.3,0.3c-5.7,0-10.4-4.7-10.4-10.4
					C2273.6,1449,2277.9,1444.5,2283.3,1444.1z"/>
			</g>
		</g>
		<g>
			<path class="st15" d="M931.6,1011.2c-3.2-29.4-27.4-52.5-55.7-53.8c-11.2-0.5-22.3,4.7-31,12.2c-7.6,6.5-10.2,14.9-21.7,13.1
				c-5.7-0.9-10.9-6.9-19.2-6.8c-12.4,0.1-21.5,13.9-14.4,28.1c-23.6-1.5-27.8,37.6,7.9,39.2c-17.5,3.3-10.1,26.9,12.1,33.3
				c23.1,6.7,47.2,5.7,67.3-7.4C888,1062,933.2,1026.3,931.6,1011.2z"/>
			<g>
				<path class="st16" d="M1392.9,965.3c-17.3-25.5-39.4-42.8-39.9-43c0,0-0.7,1-1.9,2.9c10.9,18.8,18.2,39.8,20.7,62.3
					c10.8,95.8-66.9,183.1-173.6,195.2c-5.2,0.6-10.3,1-15.4,1.2c-0.7,1.2-1.4,2.3-2,3.4c23.2,7.2,48.5,9.8,74.6,6.9
					c94.3-10.6,159.8-91.8,149.9-179.4C1403.1,996.5,1400.8,980.9,1392.9,965.3z"/>
				
					<ellipse transform="matrix(0.6684 -0.7438 0.7438 0.6684 -358.716 1271.6019)" class="st17" cx="1246.8" cy="1038.1" rx="162.8" ry="143.6"/>
				<path class="st18" d="M1149.1,976.6c50.1-74.3,145.6-100.7,213.2-58.8c1.9,1.2,3.7,2.4,5.5,3.6c-5.8-5.3-12.2-10.2-19.1-14.5
					c-67.7-41.9-163.1-15.6-213.2,58.8c-48.7,72.3-36.6,163.4,26.4,206.8C1111,1126,1104.1,1043.3,1149.1,976.6z"/>
				<path class="st19" d="M1154.6,1187.9c70.4,43.6,170.8,14.6,224.2-64.7c53.4-79.3,39.7-178.9-30.7-222.5
					c-70.4-43.6-170.8-14.6-224.2,64.7C1070.5,1044.7,1084.2,1144.3,1154.6,1187.9z M1162.7,1174.4c-64-39.6-76.5-130.1-27.9-202.2
					c48.6-72.1,139.8-98.4,203.8-58.8c64,39.6,76.5,130.1,27.9,202.2C1317.9,1187.6,1226.7,1214,1162.7,1174.4z"/>
				<path class="st20" d="M1056.3,1334.5l77.5-109c2.8-4,1.9-9.5-2.1-12.4l0,0c-4-2.8-9.5-1.9-12.4,2.1l-77.5,109
					c-2.8,4-1.9,9.5,2.1,12.4l0,0C1047.9,1339.4,1053.5,1338.4,1056.3,1334.5z"/>
				
					<rect x="1115.7" y="1189.1" transform="matrix(-0.5795 0.815 -0.815 -0.5795 2780.9822 960.9492)" class="st21" width="53.7" height="17.7"/>
			</g>
			<path class="st22" d="M1114.3,1259.9c0.2,0,0.4,0,0.6,0c2.7-0.3,4.7-3.3,6.1-4.9c6-6.8,10.6-13.9,5.3-21.2
				c-1.3,0.3-2.4,1.2-3.3,2.1c-3.9,4-6,9-5.6,13.7c-0.7-0.7-1.6-1.5-2.8-1.3c-1.7,0.2-2.4,1.8-2.7,3.1c-0.3,1.1-0.5,2.2-0.8,3.3
				C1110.6,1256.9,1110.9,1259.9,1114.3,1259.9z"/>
			<path class="st22" d="M1116.6,1219.5c-2.3,1.5-4.7,3.6-4.8,3.6c-4.2,2.6-10.2,3.9-15,5.2c-5.5,1.5-11.9,3.1-16.4,6.8
				c-5,4.1,1,8.3,2.5,13.6c1,3.7,4.4,7.7,8.2,8.3c3.9,0.6,7.1-3.9,9.5-9c1.8-3.7,6.1-8.7,8.5-12c2.4-3.3,6-5.4,8.5-8.6
				c1.7-2.2,3.1-5.8,3-8.5C1120.6,1217.3,1118.7,1218.1,1116.6,1219.5z"/>
			<path class="st22" d="M1087,1255.2c0.2,0.2,0.4,0.3,0.7,0.5c-0.2-3-0.1-5.9,0-8.9c0.2-5.9,3.8-9,2.3-14.5c-1.7,2-5.8,0-6.7,0
				c-7.3-0.3-41.7,0.2-32,10.7C1061.1,1253.5,1083.5,1252.2,1087,1255.2z"/>
			<path class="st11" d="M1080.5,1262c-9.3,5.3-121.3,9.1-140.8-6.7c-20.8-16.8-32.5-31.2-49.6-45.4c-19-15.7-39.4-28.2-49.8-51.4
				c-3-6.7-4.4-14.5-2.3-21.6c2.6-8.9,10.1-15.4,17.3-21.3c6.5-5.3,17.2-14.2,25.4-12.2c6,1.5,33.2,26.5,37,31.4
				c25.1,32.6,37.9,69.6,45.6,74.4c19.2,11.9,127.1,16.3,125.6,15.7C1088.9,1225,1091.9,1255.5,1080.5,1262z"/>
			<path class="st22" d="M908.5,1503c-0.8,14.7,1.9,77.6,2.8,122.6c1.9,98-7.8,212-3.5,226.8c6.3,21.6-11.1,15.5-11.5-0.3
				c-0.7-28.6-56.3-149.7-50.9-188.2c2.8-20.1,8.7-33,9.6-45.2s-29-116.9-29-116.9L908.5,1503z"/>
			<path class="st22" d="M834.4,1507.3c-3.7,14.1-10.9,73.4-20.4,117.1c-2.9,13.5-13.1,48-19.7,72c-19.8,72.1-41.8,137.5-40.9,149.2
				c1.7,22.7-19.1,11.9-12.9-2.3c6.1-14.2-11.7-153.3-1.3-190.5c10.4-37.1,20.4-40.4,23.7-52.1c3.3-11.6-8.6-115.9-8.6-115.9
				L834.4,1507.3z"/>
			<path class="st23" d="M908.5,1848.8c25.9,14.7,40,21,40,26.9c0,5.9-53.4,6.2-58.1,4.1c-4.7-2.1,6.7-29.1,6.7-29.1L908.5,1848.8z"
				/>
			<path class="st23" d="M753.4,1845.6c9.5,14.4,29.4,33.1,25.9,40.9c-3.5,7.8-47.8-14-50.6-22.8c-1.5-4.7,11.8-20.4,11.8-20.4
				L753.4,1845.6z"/>
			<path class="st11" d="M904.5,1505.9c1.8,3.9,3.6,7.7,5.5,11.5c-4.2,0.6-8.6,1.2-13,1.6c0.5-3.5,0.8-7.1,1-10.7
				C900.3,1507.9,902.5,1507,904.5,1505.9z"/>
			<path class="st11" d="M903.8,1541.9c-23.2,8.4-47,16.3-70.9,14.3c7.5-38.1,14.4-75.4,19.2-113.9c7.7-62.3,15-124.7,23.5-186.9
				c2.7-20.1,4.3-41.8,10.1-61.4c3.5-11.8,19.6-47.8,31.5-40.5c2.8,1.7,5.3,5.8,7.4,13.1c3,10.4,0.4,21.8-1.9,32.7
				c-13.4,63.1-18.5,127.9-15.2,191.7c1.3,26,4.7,52.2,5.6,78.1c0.5,15.7,2,27.8,6.3,41.9c4.4,14.1,4.1,23.7-11,29.2
				C906.9,1540.8,905.4,1541.4,903.8,1541.9z"/>
			<path class="st5" d="M920.9,1506.5c2.4,28.8,3.4,59.4-4.1,85.1c-1.3,4.5-39.7,11.6-83.6,14c-43.9,2.5-81.2-13.7-83.7-17.3
				c-3.3-4.7-1.1-20.1-1.1-25.6c0-15.2,0.1-30.6,1-45.8c2-36,4.3-74.8,12.1-110c6.9-30.9,19.8-61,41.1-82.3
				c18.1-18.1,46.2-28.7,66.8-14.2c13.3,9.3,20.1,26.5,25.4,43c12.5,39.2,19.6,80.4,23.3,121.8
				C918.9,1485.1,920,1495.7,920.9,1506.5z"/>
			<path class="st1" d="M836.5,1098.8c-9.8,2.4-24.7,16.2-31.1,26.1c-4.2,6.6,12.8,86-13.2,143.4c-5.6,12.4-15.7,66.1,11.3,86.9
				c27,20.8,96.7,3.7,95.9,1.7c-6.4-17-13.5-29.6-17.3-47.1c-3.8-17.5-3.4-35.7,0.8-53.1c4-16.5,15.2-29.3,18.8-45.7
				c3.6-16.4-1.8-34.5-5.1-50.6c-2.4-11.7-2-23.6-4.7-35.2c-1.6-7-5.6-13.9-8.3-20.6C878.9,1093.3,862.4,1092.5,836.5,1098.8z"/>
			<path class="st24" d="M865.7,1028.8c-6.6,22.5-24.2,63.6-29.3,70c-7.2,9,16.9,24.8,28.7,24.1c11.8-0.7,16.6-6.5,17.9-10.8
				c1.3-4.3-0.6-39.7,4.1-70.8C890.9,1016.5,868.4,1019.6,865.7,1028.8z"/>
			<path class="st11" d="M836.5,1098.8c-10.6,1.7-33.4,18.6-38.9,34.2c-11.3,32,12.3,92.6-11.2,132.2
				c-8.2,13.8-92.8,146.6-126.1,193c-20.6,28.7,105.6,103,129.4,103c23.8,0,81.5-327.6,86-362.7
				C880.2,1163.3,836.5,1098.8,836.5,1098.8z"/>
			<path class="st25" d="M918.5,1185.3c-0.2-2.1-2.9-6.6-7.2-13.7c-2.7-4.4-6.7-11-7.4-13.4c0.9,0.3,2.4,1.1,3.4,1.6
				c3.1,1.6,5,2.6,6.4,1.7c0.6-0.4,1-1,1.1-1.9c0.7-4.6-6.6-24-9.1-29.6c-0.3-0.7-1.1-1-1.7-0.6c-0.6,0.4-0.9,1.3-0.5,2.1
				c3.3,7.3,8.8,23.4,8.9,27.2c0,0,0,0,0,0c-0.9-0.2-2.7-1.1-3.9-1.8c-3-1.6-4.9-2.5-6.2-1.6c-0.6,0.4-0.9,1.1-1,2
				c-0.1,2.3,2.5,6.9,8,15.9c2.8,4.5,6.5,10.7,6.7,12.2c-0.2,2.5-9,15.1-13.5,21.5c0.1,1.5,0.1,3.1,0,4.6c0.5-0.8,1.1-1.6,1.7-2.4
				C914.1,1195.3,918.8,1188.1,918.5,1185.3z"/>
			<path class="st25" d="M870.5,1213.7c-0.5-0.1-0.9-0.6-1-1.2c-1.7-10.2-11-18.2-16-22.5c-1.8-1.5-2.9-2.5-3.5-3.3
				c-1.4-2.1,0.8-5.9,5.3-13.2c2-3.3,5.3-8.7,5.5-10.3c-1.3-0.4-6.1,0.9-8.9,1.8c-5.8,1.7-9.5,2.7-11.3,1.2c-1.3-1-2.4-4.5-5.6-15
				c-3.9-12.9-9.8-32.3-16.4-41c-0.5-0.6-0.4-1.6,0.2-2.2c0.6-0.6,1.5-0.5,2,0.1c7,9.1,12.7,28.1,16.9,41.9
				c1.9,6.2,3.8,12.7,4.7,13.6c1,0.7,6-0.8,9-1.7c5.8-1.7,9.5-2.7,11.4-1.3c2.6,2-0.6,7.2-5.1,14.5c-2,3.3-5.1,8.3-5.2,9.7
				c0.5,0.6,1.7,1.6,2.9,2.7c5.3,4.6,15.1,13,17,24.3c0.1,0.8-0.4,1.7-1.1,1.8C870.9,1213.8,870.7,1213.8,870.5,1213.7z"/>
			<g>
				<path class="st25" d="M837,1099.1c-0.3-1-1.2-1.5-2.1-1.1c-18,6.9-32,20.8-39.9,39.6c1.1,0.1,2.2,0.5,3.1,1.2
					c7.6-17.7,20.7-30.8,37.7-37.3C836.8,1101.1,837.3,1100,837,1099.1z"/>
				<path class="st25" d="M716.4,1523.9c-60.9-40.2-57.9-59.7-57.4-61.6c6-8.3,88.8-123.3,120.9-181.1c-1.1-0.7-1.9-1.7-2.3-2.8
					c-32.3,58.4-120.3,180.6-121.4,182l-0.2,0.4c-1,2.2-7.7,22.7,58.6,66.4c0.2,0.1,0.3,0.2,0.5,0.2c0.7,0.2,1.4-0.2,1.8-0.9
					C717.4,1525.5,717.2,1524.4,716.4,1523.9z"/>
			</g>
			<path class="st22" d="M799.3,1416.2c3.5,1.6,5.9,2.9,6.6,3.4c2.2,1.7-4.7,21.3,2,31.2c2.7,3.9,19.3,18.5,25.4,19.1
				c6.1,0.7-3.3-16.1-4-19.7c-0.7-3.6-3.3-24.8,1.1-23.5c4.4,1.3,4.4,16.4,12.9,13.9c1.3-0.4,0.3-5,0.1-10.3
				c-0.1-3.2,0.9-6.9,0-10.3c-2.1-7.3-17.5-14.2-21.4-13.9c-0.4,0-1.6-0.7-3.4-2L799.3,1416.2z"/>
			<path class="st11" d="M760.9,1172.9c-27,50-47.4,118.5-38.8,139.8c14.7,36.2,79.5,116.5,79.5,116.5l22.1-24.4
				c0,0-39.9-77.1-44.2-104.2c-3.5-22.3,44.6-120.4,48.5-161C834.6,1072.8,781.5,1131.3,760.9,1172.9z"/>
			<g>
				<path class="st25" d="M1084.8,1226.7c-24.5,0-97.7-9.5-116-14.5c-6.5-1.8-8.2-4.5-11.3-9.5l-0.7-1.1c-2.6-4.2-5.4-8.9-8.7-14.6
					c-2.2-3.8-4.4-7.7-6.6-11.6c-3.3-5.9-6.8-12-10.3-17.9c-6-10.2-22.5-35.2-44.9-47.6c-0.5-0.3-0.7-1-0.4-1.5
					c0.3-0.5,1-0.7,1.5-0.4c22.9,12.7,39.6,38.1,45.8,48.4c3.5,5.9,7,12.1,10.3,18c2.2,3.9,4.4,7.7,6.6,11.6
					c3.3,5.7,6,10.3,8.7,14.5l0.7,1.1c3,4.8,4.4,7,10,8.6c20.1,5.5,99.7,15.2,118.3,14.3c0.6,0,1.1,0.5,1.2,1.1
					c0,0.6-0.5,1.1-1.1,1.2C1086.9,1226.7,1085.9,1226.7,1084.8,1226.7z"/>
			</g>
			<g>
				<path class="st25" d="M905.8,1367.1c-0.6,0-1.1-0.5-1.1-1.1c-1.4-57.9,4.5-115.8,17.3-172.2c0.1-0.6,0.7-1,1.3-0.8
					c0.6,0.1,1,0.7,0.8,1.3c-12.8,56.3-18.6,114-17.3,171.7C906.9,1366.5,906.4,1367.1,905.8,1367.1
					C905.8,1367.1,905.8,1367.1,905.8,1367.1z"/>
			</g>
			<g>
				<path class="st25" d="M720.1,1289.5c-0.1,0-0.2,0-0.3,0c-0.8-0.2-1.2-1-1-1.7c14.5-57.3,34.8-106.4,60.5-145.9
					c8.2-12.7,22.8-26.4,37.1-34.8c0.7-0.4,1.5-0.2,1.9,0.5c0.4,0.7,0.2,1.5-0.5,1.9c-14,8.3-28.2,21.6-36.2,34
					c-25.5,39.2-45.7,88-60.1,145C721.3,1289.1,720.7,1289.5,720.1,1289.5z"/>
			</g>
			<g>
				<path class="st25" d="M820.8,1396.9c-0.5,0-1-0.3-1.3-0.8c-6.5-13.4-11.8-23.8-17-33.9c-5.2-10.1-10.5-20.6-17-34
					c-3-6.2-6.2-12.7-7.7-19.6c-3.1-14.2,3.5-31,9.3-45.9c1.9-4.8,3.6-9.3,5-13.4l20.5-63.4c0.2-0.7,1-1.1,1.8-0.9
					c0.7,0.2,1.1,1,0.9,1.8l-20.5,63.4c-1.4,4.2-3.1,8.8-5,13.6c-5.7,14.5-12.1,30.9-9.2,44.3c1.4,6.6,4.5,12.9,7.5,19
					c6.5,13.4,11.8,23.8,17,33.9c5.2,10.1,10.5,20.6,17,34c0.3,0.7,0,1.5-0.6,1.9C821.2,1396.9,821,1396.9,820.8,1396.9z"/>
			</g>
			<g>
				<path class="st25" d="M800.4,1431.5l-0.9-1c-25.4-30.1-51.3-66.4-73.1-102.1c-0.4-0.7-0.2-1.5,0.5-1.9c0.7-0.4,1.5-0.2,1.9,0.5
					c21.5,35.2,47,70.9,72,100.8c7-5.6,18.1-17,22.1-23.4c0.4-0.7,1.3-0.9,1.9-0.4c0.7,0.4,0.9,1.3,0.4,1.9
					c-4.7,7.5-17.5,20.1-23.8,24.9L800.4,1431.5z"/>
			</g>
			<path class="st8" d="M920.3,1013.1c3.7,22.4-7.3,63.6-23.9,70.1c-11.2,4.4-42.2-15.6-43.4-47.6c-3.7,1.5-6.9-9.6-4.7-17.1
				c1.6-5.6,7.1-5.3,9.6-0.2c2.1,2,5.5,4.5,9.1,2.5c4.9-2.8,5.3-11.9,8.9-13.9c4.7-2.7,9.5,3.1,14.6,0.6c5.6-2.7,5.9-8.6,10.3-8.7
				c2.7,0,4.6,5.4,8.2,6.1c3.2,0.6,4-3.3,5.7-2.9C917.2,1002.6,919.2,1006.5,920.3,1013.1z"/>
		</g>
	</g>
</g>
</svg>
