<?xml version="1.0" encoding="utf-8"?>
<!-- Generator: Adobe Illustrator 25.0.1, SVG Export Plug-In . SVG Version: 6.00 Build 0)  -->
<svg version="1.1" id="Layer_1" xmlns="http://www.w3.org/2000/svg" xmlns:xlink="http://www.w3.org/1999/xlink" x="0px" y="0px"
	 viewBox="0 0 497.5 214.5" style="enable-background:new 0 0 497.5 214.5;" xml:space="preserve">
<style type="text/css">
	.st0{fill-rule:evenodd;clip-rule:evenodd;fill:#FFFFFF;}
	.st1{fill-rule:evenodd;clip-rule:evenodd;fill:#E63312;}
	.st2{fill-rule:evenodd;clip-rule:evenodd;fill:none;stroke:#000000;stroke-width:2.968717e-02;stroke-miterlimit:3.8637;}
</style>
<g>
	<g>
		<g>
			<path class="st0" d="M248.3,190.3c-19.6,14.4-39.6,21.2-45.1,22.5c-8,2.4-30.8,1.6-30.8,1.6c-0.9,0-67.3-12-100.6-18.1
				c-7.7-1.4-41.1-6.7-50.2-8.9C7.7,184,1.5,169.9,0.7,163.9l-0.3-32.7c4.1,0.2,13-2.1,13-9c0-3.6-3-8.5-13.5-8.8v-30
				c0.8-8,3.3-14.3,9.8-20.1c4.6-4.1,11-6.2,14.1-7c10.3-2.5,150.2-25.9,150.2-25.9s13.3-1.3,21.6,0c5.5,0.9,9.9,2.7,13.8,3.7
				l0.1,5.2c-5.2-1,83.6-1,78.4,0l0.1-5.2c3.9-1,8.3-2.9,13.8-3.7c8.3-1.3,21.6,0,21.6,0s139.9,23.4,150.2,25.9
				c3.1,0.7,9.5,2.9,14.1,7c6.5,5.8,9,12.1,9.9,20.1v30c-10.5,0.3-13.5,5.2-13.5,8.8c0,6.9,8.9,9.2,13,9l-0.3,32.7
				c-0.8,6.1-7,20.2-20.9,23.5c-9,2.2-42.5,7.5-50.2,8.9c-33.2,6.1-99.7,18.1-100.6,18.1c0,0-22.8,0.8-30.8-1.6
				C288.8,211.5,267.9,204.7,248.3,190.3z"/>
			<g>
				<path class="st0" d="M248.2,87.5c-8.5,0-38.2-5.4-39.4-39.2c-0.4-12-1.2-48.3-1.2-48.3s28,1.2,41,1.2c13,0,41.2-1.2,41.2-1.2
					s-0.8,36.3-1.2,48.3c-1.2,33.8-30.8,39.2-39.4,39.2C240.4,87.5,257,87.5,248.2,87.5z"/>
			</g>
			<g>
				<path class="st1" d="M249.6,5.7c14.3-0.2,36.5-1,36.5-1s-0.8,19-1.2,32.7c-0.1,5.6-0.1,11.8-1.5,20.6c-0.7,4.8-3.3,10.6-11.7,17
					c-7.8,5.9-16.2,7.6-23.8,7.6h1.6c-7.6,0-16-1.5-23.8-7.4c-4.4-3.3-6.7-6.4-8.2-8.8c-1.7-2.6-2.5-4.6-2.9-6.6
					c-2.1-8.7-1.9-17-2-22.5c-0.4-13.8-1.2-32.7-1.2-32.7s22.1,0.8,36.5,1H249.6z"/>
			</g>
			<g>
				<path class="st1" d="M209.1,52.7c-3-1.2-12.9-4.9-19.2-5.4c-5.3-0.5-13.7,0.6-13.7,0.6c-0.9,0-64.4,10.4-105.6,17.1
					c-16.9,2.8-28.8,4.4-43.3,7.1c-3.5,0.7-9.7,4.2-9.8,9.5c-0.2,8.9,0,21.5,0,21.5c4.9,0,13.1,6.7,13.1,19.1
					c0,16.4-11.3,20-13.5,20v18.6c0.1,3,1.5,6.7,4.5,8.7c3,2,8.9,3,11.2,3.3c10.2,1.7,17.9,3.1,28.1,4.6c2,0.3,70.7,11.3,70.7,11.3
					s27.2,5.2,44.6,7.6c6,0.8,9.5,0.6,15.4-0.1c19.6-2.3,33-13,39.8-17.2c4.1-2.5,7.8-5.4,11.6-9h5.6h5.7c3.8,3.6,7.5,6.4,11.6,9
					c6.9,4.1,20.3,14.9,39.8,17.2c6,0.7,9.5,0.9,15.5,0.1c17.4-2.3,44.6-7.6,44.6-7.6s68.7-11,70.7-11.3c10.2-1.5,17.9-2.9,28.1-4.6
					c2.3-0.4,8.2-1.3,11.2-3.3c2.9-2,4.4-5.7,4.5-8.7v-18.6c-2.2,0-13.5-3.6-13.5-20c0-12.4,8.2-19.1,13.2-19.1c0,0,0.2-12.6,0-21.5
					c-0.1-5.4-6.3-8.9-9.8-9.5c-14.4-2.7-26.4-4.4-43.3-7.1c-41.2-6.7-104.7-17.1-105.6-17.1c0,0-8.4-1.1-13.7-0.6
					c-6.3,0.6-16.2,4.2-19.2,5.4c-3.5,29.8-30.9,34.8-39,34.8h-1C240,87.5,212.5,82.7,209.1,52.7z"/>
			</g>
			<path class="st2" d="M330.4,151"/>
			<g>
				<path class="st0" d="M154.7,93.6h19.1c0.9,0,4.2,0.8,5.8,1.5c1.9,0.8,3.5,2.4,4.3,3.9c1,1.8,1.9,5.3,1.9,6.2v34
					c0,0.9-0.6,4.3-1.6,6.1c-0.9,1.5-2.8,3.3-4.7,4c-1.7,0.7-4.9,1.6-5.8,1.5h-19.1V93.6z M166.2,103.3h4c2.2,0,3.8,3.4,3.8,4.9v29
					c0,2.1-2.2,4.2-3.8,4.1h-4V103.3z"/>
				<path class="st0" d="M275,124.8l0-18.2c0-1.6,1.4-4,3.9-4h0.5c2.5,0,3.9,2.5,3.9,4v18.2H275z M279.5,92.8
					c4.1,0,8.7,1.5,10.7,3.1c3.2,2.5,5.4,6.8,5.3,11.6c-0.1,14.7,0,43.6,0,43.6h-12.1V135h-4.2h-4.2V151h-12.1c0,0,0.1-28.9,0-43.6
					c0-4.7,2.2-9.1,5.3-11.6c2-1.6,6.6-3.1,10.7-3.1H279.5z"/>
				<path class="st0" d="M430.1,124.8v-18.2c0-1.6,1.4-4,3.9-4h0.5c2.5,0,3.9,2.5,3.9,4v18.2H430.1z M434.6,92.8
					c4.1,0,8.7,1.5,10.7,3.1c3.2,2.5,5.4,6.8,5.4,11.6c-0.1,14.7,0,43.6,0,43.6h-12.1V135h-4.1h-4.2V151H418c0,0,0.1-28.9,0-43.6
					c0-4.7,2.2-9.1,5.3-11.6c2-1.6,6.6-3.1,10.7-3.1H434.6z"/>
				<path class="st0" d="M322.8,151c-0.4-4.1-8.2-57.4-8.2-57.4h11.9c0.3,4.5,2.2,28.1,3.4,37.3h0.8c1.1-9.2,3-32.8,3.3-37.3H346
					c0,0-7.7,53.3-8.2,57.4H322.8z"/>
				<path class="st0" d="M365.3,93.6h11.4l0,23.4c0.7,0.3,1.1,0.3,2,0.3c1.1,0,3.3-0.3,4.6-2c0.7-0.9,1.3-3.6,1.4-4.6l-0.1-17.2
					h11.1l0.1,20.9c0,0.9-0.2,3.1-1.5,4.4c-1,1-2.5,1.9-3.5,2.1c1,0.9,2.4,1.7,3.4,3.2c1.2,1.9,1.6,4.5,1.6,5.4V151h-11.1v-17.8
					c0-0.9,0.2-3.4-1-5.1c-0.7-1.1-2-1.5-2.9-1.5h-3.9V151h-11.6L365.3,93.6z"/>
				<path class="st0" d="M220.9,102.9h3.7c0.9,0,3.4,0.2,3.8,2.9c0,0,0.3,2.9,0.3,4.7c0,1.6-0.3,4.2-0.3,4.2c-0.2,1-0.6,2.3-3.8,2.5
					h-3.7V102.9z M209.6,93.7c0,0,9.8,0,17.1,0c9.5,0,13,3.9,13.4,12.8c0,0.4,0,2.3,0,2.7c0,7.8-2,10.8-6.2,12
					c1.4,0.5,2.3,1.1,3.2,2c2,2.1,2.7,6.1,2.7,9.9v18h-11.5v-20.4c0-1.1-1.3-4.2-4.2-4.2h-3.3V151l-11.3,0.1V93.7z"/>
				<path class="st0" d="M66.2,132.5h-6.9V151H48V93.6h18.3c9.3,0,11.7,6.8,12.2,8.9c0.7,3.1,0.5,6.8,0.5,11.1c0,0,0.1,6.9-0.5,10
					C78,125.7,75.5,132.5,66.2,132.5z M59.3,102.5h2.7c2,0.1,3.1,0.6,4.1,2.4c0.7,1.2,1,3.9,1,6.5c0,3.3-0.1,6.7-0.5,8.3
					c-0.5,2.6-2.2,3.2-2.8,3.2h-4.5V102.5z"/>
				<path class="st0" d="M114.8,141.6c-3.1,0-4.3-2.2-4.3-4.5v-29.9c0-2.3,1.2-4.6,4.3-4.6c3.1,0,4.1,2.2,4.1,4.6v29.9
					C118.9,139.4,117.8,141.6,114.8,141.6z M98.4,121.1c0-1.2-0.1-9.7,0.2-15c0.2-3.3,3.4-12.8,15.3-12.8h1.2
					c11.9,0,15.2,9.5,15.3,12.8c0.3,5.3,0.2,13.9,0.2,15v2.2c0,1.2,0.1,9.7-0.2,15c-0.2,3.3-3.4,12.8-15.3,12.8h-1.2
					c-12,0-15.2-9.5-15.3-12.8c-0.3-5.3-0.2-13.9-0.2-15V121.1z"/>
			</g>
			<path class="st1" d="M248.3,190.3c-19.6,14.4-39.6,21.2-45.1,22.5c-8,2.4-30.8,1.6-30.8,1.6c-0.9,0-67.3-12-100.6-18.1
				c-7.7-1.4-41.1-6.7-50.2-8.9C7.7,184,1.5,169.9,0.7,163.9l-0.3-32.7c4.1,0.2,13-2.1,13-9c0-3.6-3-8.5-13.5-8.8v-30
				c0.8-8,3.3-14.3,9.8-20.1c4.6-4.1,11-6.2,14.1-7c10.3-2.5,150.2-25.9,150.2-25.9s13.3-1,21.6,0c4.8,0.6,8.4,1.2,12.3,2.2l0.1,6.7
				c-5.2-1-9.1-1.7-14.9-2.1c-8.7-0.6-13.4-0.2-22.4,0.9c-9.2,1.1-134.8,23.7-139.1,24.2c-0.3,0.2-10.8,1.4-15.8,5.5
				C10.6,72.1,7.5,78.9,7.5,83c0,9.8,0.3,24.6,0.3,24.6c11,1.5,12.6,10.8,12.6,15c0,10.4-7.8,13.9-12.8,14.6l-0.2,22
				c0,10.7,8.6,19.5,15.6,20.8c3.9,0.7,116,21.3,143.7,26.4c9.9,1.8,18.2,2.1,29.7,0.5c22.3-3.2,51.3-25.2,52-25.2
				c0.1,0,0.3,0,0.3,0c0.1,0,0.1,0,0.1,0c0.7,0,29.7,22,52.1,25.2c11.5,1.6,19.8,1.3,29.7-0.5c27.7-5.1,139.8-25.6,143.7-26.4
				c7.1-1.3,15.6-10.1,15.6-20.8l-0.2-22c-5-0.7-12.8-4.2-12.8-14.6c0-4.2,1.7-13.5,12.6-15c0,0,0.3-14.8,0.3-24.6
				c0-4.1-3.1-10.9-8.3-15.3c-5-4.2-15.5-5.3-15.8-5.5C461.6,61.8,336,39.1,326.8,38c-9-1.1-13.7-1.5-22.4-0.9
				c-5.9,0.4-9.7,1.1-14.9,2.1l0.1-6.7c3.9-1,7.4-1.7,12.2-2.2c8.4-1,21.6,0,21.6,0s139.9,23.4,150.2,25.9c3.1,0.7,9.5,2.9,14.1,7
				c6.5,5.8,9,12.1,9.9,20.1v30c-10.5,0.3-13.5,5.2-13.5,8.8c0,6.9,8.9,9.2,13,9l-0.3,32.7c-0.8,6.1-7,20.2-20.9,23.5
				c-9,2.2-42.5,7.5-50.2,8.9c-33.2,6.1-99.7,18.1-100.6,18.1c0,0-22.8,0.8-30.8-1.6C288.8,211.5,267.9,204.7,248.3,190.3z"/>
			<g>
				<path class="st0" d="M249,72v9.4c-8.8-0.4-17.6-2.2-25.2-9.5c-4-3.8-6.5-7-7.7-11.3c-1.3-4.4-1.9-8.9-2.1-14.5
					c-0.6-16.1-1.2-39.9-1.2-39.9l36.2,1.1v14.4c-1-0.9-5.5-6-13.9-6c-4.2,0-7.2,1.9-8.3,2.7c-2,1.4-5.3,5.1-6.8,9.4
					c-1.3,3.9-1.4,9-0.2,14.6c1.6,7.3,7,14,11.2,17.6C237.2,65.5,246.1,70.3,249,72z"/>
			</g>
			<g>
				<path class="st0" d="M249.2,71.9v-50c0.9-0.8,5.3-6.1,13.9-6.1c4.2,0,7.2,1.9,8.3,2.7c2,1.4,5.3,5.1,6.8,9.4
					c1.3,3.9,1.4,9,0.2,14.6c-1.5,7.3-7,14-11.2,17.6C260.9,65.5,252,70.2,249.2,71.9z"/>
			</g>
		</g>
	</g>
</g>
</svg>
