<?xml version="1.0" encoding="utf-8"?>
<!-- Generator: Adobe Illustrator 25.0.1, SVG Export Plug-In . SVG Version: 6.00 Build 0)  -->
<svg version="1.1" id="Layer_1" xmlns="http://www.w3.org/2000/svg" xmlns:xlink="http://www.w3.org/1999/xlink" x="0px" y="0px"
	 viewBox="0 0 115.7 149.1" style="enable-background:new 0 0 115.7 149.1;" xml:space="preserve">
<style type="text/css">
	.st0{fill:#005BA2;}
	.st1{fill:none;stroke:#FFFFFF;stroke-miterlimit:10;}
	.st2{fill:#ED1C24;}
	.st3{fill:#FFF200;}
</style>
<rect x="2.1" y="0.5" class="st0" width="112.4" height="112.4"/>
<rect x="2.1" y="0.5" class="st1" width="112.4" height="112.4"/>
<path class="st2" d="M58.3,3.5C28.9,3.5,5.1,27.3,5.1,56.7c0,29.4,23.8,53.2,53.2,53.2c29.4,0,53.2-23.8,53.2-53.2
	C111.5,27.3,87.7,3.5,58.3,3.5"/>
<path class="st3" d="M58.3,6.8C30.8,6.8,8.4,29.2,8.4,56.7c0,27.5,22.3,49.8,49.8,49.8c27.5,0,49.8-22.3,49.8-49.8
	C108.1,29.2,85.8,6.8,58.3,6.8"/>
<polygon class="st0" points="80.2,47.4 80.2,50.8 82.8,50.8 82.8,62.6 80.2,62.6 80.2,66 102.4,66 102.4,56.7 93.3,61.8 93.3,50.8 
	95.9,50.8 95.9,47.4 "/>
<path class="st0" d="M69.4,60.2h-0.7v-7h0.6C72.5,53.2,72.5,60.2,69.4,60.2 M71.5,47.4H56.5v3.4h2.6v11.7h-2.6V66h14.9
	C82.5,66,82.6,47.4,71.5,47.4"/>
<polygon class="st2" points="55.2,58.1 46.4,49.3 36.2,59.5 36.2,62.9 38.8,60.3 45.9,67.4 43.3,70 45,71.7 59.1,57.5 59.1,54.1 "/>
<path class="st2" d="M45.1,36.9c3.1,0,5.6,2.5,5.6,5.6c0,3.1-2.5,5.6-5.6,5.6c-3.1,0-5.6-2.5-5.6-5.6C39.5,39.4,42,36.9,45.1,36.9"
	/>
<polygon class="st0" points="14.1,47.4 29.8,47.4 29.8,50.8 27.2,50.8 27.2,61.8 36.2,56.7 36.2,66 14.1,66 14.1,62.6 16.7,62.6 
	16.7,50.8 14.1,50.8 "/>
<g>
	<path class="st0" d="M10.7,133c0.1-0.1,0.2-0.1,0.3-0.1h2.4c0.1,0,0.2,0,0.3,0.1c0.1,0.1,0.1,0.2,0.1,0.3c-0.4,2.6-1.1,5.1-1.9,7.7
		s-1.8,5-3,7.5c0,0.1-0.1,0.2-0.2,0.2s-0.2,0.1-0.3,0.1H5.4c-0.1,0-0.2,0-0.3-0.1c-0.1,0-0.1-0.1-0.2-0.2c-1.2-2.5-2.2-4.9-3-7.5
		c-0.8-2.5-1.5-5.1-1.9-7.7c0-0.1,0-0.2,0.1-0.3c0.1-0.1,0.2-0.1,0.3-0.1h2.5c0.1,0,0.2,0,0.3,0.1s0.1,0.1,0.1,0.3
		c0.4,2.3,0.9,4.4,1.5,6.4c0.6,2,1.3,4,2.1,6H7c0.9-2,1.6-4.1,2.2-6c0.6-2,1.1-4.1,1.4-6.3C10.6,133.2,10.7,133.1,10.7,133z"/>
	<path class="st0" d="M16.9,137.5c0.6,0,1.2,0,1.9,0c0.1,0,0.2,0,0.3,0.1c0.1,0.1,0.1,0.2,0.1,0.3v10.6c0,0.1,0,0.2-0.1,0.3
		c-0.1,0.1-0.2,0.1-0.3,0.1h-2.2c-0.1,0-0.2,0-0.3-0.1c-0.1-0.1-0.1-0.2-0.1-0.3v-8.6h-0.9c-0.1,0-0.2,0-0.3-0.1
		c-0.1-0.1-0.1-0.2-0.1-0.3V138c0-0.1,0-0.2,0.1-0.3c0.1-0.1,0.2-0.1,0.3-0.1C15.7,137.6,16.3,137.5,16.9,137.5z M19,132.8
		c0.4,0.4,0.6,0.8,0.6,1.4c0,0.5-0.2,1-0.6,1.4c-0.4,0.4-0.8,0.6-1.4,0.6c-0.5,0-1-0.2-1.4-0.6s-0.6-0.8-0.6-1.4
		c0-0.5,0.2-1,0.6-1.4s0.8-0.6,1.4-0.6C18.2,132.2,18.7,132.4,19,132.8z"/>
	<path class="st0" d="M22.8,138.1c0.7-0.6,1.7-0.9,3-0.9c1.1,0,2,0.2,2.6,0.7c0.7,0.5,1.1,1.2,1.4,2.1c0,0.1,0,0.2,0,0.3
		c0,0.1-0.1,0.1-0.3,0.2l-1.7,0.4c-0.1,0-0.2,0-0.3,0s-0.1-0.1-0.2-0.3c-0.1-0.3-0.3-0.6-0.5-0.7c-0.2-0.2-0.5-0.2-0.9-0.2
		c-0.4,0-0.7,0.1-1,0.3c-0.2,0.2-0.3,0.4-0.3,0.7c0,0.3,0.1,0.5,0.3,0.7c0.2,0.2,0.7,0.5,1.5,0.8c0.8,0.3,1.3,0.5,1.7,0.8
		c0.4,0.2,0.7,0.5,1,0.7c0.3,0.3,0.5,0.7,0.7,1c0.1,0.3,0.2,0.7,0.2,1.2c0,1-0.4,1.9-1.2,2.5c-0.8,0.6-1.9,0.9-3.3,0.9
		c-0.8,0-1.5-0.1-2.1-0.3c-0.6-0.2-1.2-0.5-1.7-0.9c-0.1-0.1-0.1-0.2-0.2-0.3s0-0.2,0.1-0.3l0.8-1.4c0.1-0.1,0.2-0.2,0.3-0.2
		c0.1,0,0.2,0,0.3,0.1c0.4,0.3,0.7,0.5,1.1,0.7c0.4,0.1,0.8,0.2,1.2,0.2c0.5,0,1-0.1,1.3-0.3c0.3-0.2,0.4-0.4,0.4-0.7
		c0-0.3-0.1-0.5-0.3-0.7c-0.2-0.2-0.7-0.4-1.4-0.7c-0.7-0.3-1.3-0.5-1.7-0.7c-0.4-0.2-0.7-0.5-1-0.7c-0.3-0.3-0.5-0.6-0.7-1
		c-0.2-0.4-0.2-0.8-0.2-1.2C21.7,139.6,22.1,138.8,22.8,138.1z M28.9,133c0.2,0,0.3,0,0.3,0.1s0,0.2,0,0.3l-1.6,2.5
		c-0.1,0.1-0.1,0.2-0.2,0.2c-0.1,0-0.2,0.1-0.3,0.1h-2.6c-0.1,0-0.2,0-0.3-0.1c-0.1,0-0.1-0.1-0.2-0.2l-1.6-2.5
		c-0.1-0.1-0.1-0.2,0-0.3s0.2-0.1,0.3-0.1H24c0.1,0,0.2,0,0.3,0.1c0.1,0,0.1,0.1,0.2,0.1l1.3,1.5h0l1.3-1.5c0.1-0.1,0.1-0.1,0.2-0.1
		c0.1,0,0.2-0.1,0.3-0.1H28.9z"/>
	<path class="st0" d="M40.9,145.8c0.1,0,0.2,0.1,0.2,0.2l0.6,1.2c0.1,0.1,0.1,0.2,0.1,0.3c0,0.1-0.1,0.2-0.2,0.3
		c-0.5,0.5-1.1,0.8-1.8,1c-0.7,0.2-1.4,0.3-2.2,0.3c-1.9,0-3.3-0.5-4.3-1.6c-1-1-1.5-2.5-1.5-4.5c0-1.7,0.5-3.1,1.5-4.2
		c1-1.1,2.3-1.6,3.8-1.6s2.7,0.5,3.6,1.4c0.9,0.9,1.3,2.3,1.3,4c0,0.1,0,0.3,0,0.4s0,0.3,0,0.6c0,0.1-0.1,0.2-0.1,0.3
		c-0.1,0.1-0.2,0.1-0.3,0.1h-6.8c0.1,0.8,0.5,1.5,1,1.9c0.6,0.5,1.3,0.7,2.2,0.7c0.5,0,0.9-0.1,1.4-0.2c0.4-0.1,0.8-0.3,1.2-0.6
		C40.7,145.8,40.8,145.7,40.9,145.8z M39.3,142.1c0-0.8-0.2-1.4-0.6-1.8c-0.4-0.4-0.9-0.6-1.6-0.6c-0.6,0-1.2,0.2-1.6,0.7
		c-0.4,0.4-0.7,1-0.8,1.8H39.3z"/>
	<path class="st0" d="M57.6,137.5c0.1,0,0.2,0,0.3,0.1c0.1,0.1,0.1,0.2,0.1,0.3v1.5c0,0.1,0,0.2,0,0.3c0,0.1-0.1,0.1-0.1,0.2
		l-4.7,6.3v0.1h4.7c0.1,0,0.2,0,0.3,0.1c0.1,0.1,0.1,0.2,0.1,0.3v1.7c0,0.1,0,0.2-0.1,0.3c-0.1,0.1-0.2,0.1-0.3,0.1h-8.2
		c-0.1,0-0.2,0-0.3-0.1s-0.1-0.2-0.1-0.3v-1.5c0-0.1,0-0.2,0-0.3c0-0.1,0.1-0.1,0.1-0.2l4.9-6.4V140H50c-0.1,0-0.2,0-0.3-0.1
		c-0.1-0.1-0.1-0.2-0.1-0.3v-1.7c0-0.1,0-0.2,0.1-0.3c0.1-0.1,0.2-0.1,0.3-0.1H57.6z"/>
	<path class="st0" d="M62.3,137.6c0.7-0.3,1.5-0.4,2.4-0.4c1.5,0,2.6,0.4,3.3,1.2s1.2,2,1.2,3.5v4.5h1c0.1,0,0.2,0,0.3,0.1
		c0.1,0.1,0.1,0.2,0.1,0.3v1.4c0,0.1,0,0.2-0.1,0.3c-0.1,0.1-0.1,0.1-0.2,0.1c-0.3,0.1-0.7,0.2-1,0.2c-0.3,0-0.6,0.1-0.9,0.1
		c-0.6,0-1-0.1-1.3-0.3s-0.5-0.5-0.6-1h-0.1c-0.3,0.5-0.7,0.8-1.2,1.1c-0.5,0.2-1.1,0.3-1.8,0.3c-1,0-1.8-0.3-2.5-0.9
		s-0.9-1.4-0.9-2.5c0-1.1,0.4-1.9,1.1-2.5c0.7-0.6,1.7-0.9,3-0.9c0.4,0,0.9,0,1.3,0.1c0.4,0.1,0.7,0.2,0.9,0.3v-0.8
		c0-0.8-0.2-1.3-0.5-1.7s-0.9-0.5-1.6-0.5c-0.4,0-0.8,0.1-1.2,0.2c-0.4,0.1-0.7,0.4-1.1,0.7c-0.1,0.1-0.2,0.2-0.3,0.1
		c-0.1,0-0.2-0.1-0.3-0.2l-0.9-1.2c-0.1-0.1-0.1-0.2-0.1-0.3c0-0.1,0-0.2,0.1-0.3C61,138.3,61.6,137.9,62.3,137.6z M63.3,144.5
		c-0.3,0.2-0.4,0.6-0.4,1c0,0.4,0.1,0.8,0.4,1c0.3,0.3,0.7,0.4,1.2,0.4c0.4,0,0.8-0.1,1.1-0.2c0.3-0.1,0.6-0.3,0.8-0.6v-1.5
		c-0.2-0.2-0.5-0.3-0.8-0.4c-0.3-0.1-0.6-0.1-1-0.1C64,144.1,63.6,144.3,63.3,144.5z"/>
	<path class="st0" d="M84.9,137.6c0.1-0.1,0.2-0.1,0.3-0.1h2.2c0.1,0,0.2,0,0.3,0.1c0.1,0.1,0.1,0.2,0,0.3c-0.4,1.8-1,3.6-1.7,5.4
		c-0.7,1.8-1.5,3.5-2.5,5.2c-0.1,0.1-0.1,0.2-0.2,0.2c-0.1,0-0.2,0.1-0.3,0.1h-1.7c-0.1,0-0.2,0-0.3-0.1c-0.1,0-0.1-0.1-0.2-0.2
		c-1-1.8-1.8-3.6-2.5-5.3c-0.7-1.8-1.2-3.5-1.6-5.3c0-0.1,0-0.2,0-0.3c0.1-0.1,0.2-0.1,0.3-0.1h2.3c0.1,0,0.2,0,0.3,0.1
		c0.1,0.1,0.1,0.1,0.1,0.3c0.3,1.5,0.7,2.9,1,4.1s0.8,2.4,1.3,3.5h0c0.5-1.2,1-2.4,1.4-3.7c0.4-1.2,0.7-2.6,1-3.9
		C84.8,137.7,84.8,137.6,84.9,137.6z"/>
	<path class="st0" d="M91.4,137.6c0.7-0.3,1.5-0.4,2.4-0.4c1.5,0,2.6,0.4,3.3,1.2s1.2,2,1.2,3.5v4.5h1c0.1,0,0.2,0,0.3,0.1
		c0.1,0.1,0.1,0.2,0.1,0.3v1.4c0,0.1,0,0.2-0.1,0.3c-0.1,0.1-0.1,0.1-0.2,0.1c-0.3,0.1-0.7,0.2-1,0.2c-0.3,0-0.6,0.1-0.9,0.1
		c-0.6,0-1-0.1-1.3-0.3s-0.5-0.5-0.6-1h-0.1c-0.3,0.5-0.7,0.8-1.2,1.1c-0.5,0.2-1.1,0.3-1.8,0.3c-1,0-1.8-0.3-2.5-0.9
		s-0.9-1.4-0.9-2.5c0-1.1,0.4-1.9,1.1-2.5c0.7-0.6,1.7-0.9,3-0.9c0.4,0,0.9,0,1.3,0.1c0.4,0.1,0.7,0.2,0.9,0.3v-0.8
		c0-0.8-0.2-1.3-0.5-1.7s-0.9-0.5-1.6-0.5c-0.4,0-0.8,0.1-1.2,0.2c-0.4,0.1-0.7,0.4-1.1,0.7c-0.1,0.1-0.2,0.2-0.3,0.1
		c-0.1,0-0.2-0.1-0.3-0.2l-0.9-1.2c-0.1-0.1-0.1-0.2-0.1-0.3c0-0.1,0-0.2,0.1-0.3C90.1,138.3,90.7,137.9,91.4,137.6z M92.4,144.5
		c-0.3,0.2-0.4,0.6-0.4,1c0,0.4,0.1,0.8,0.4,1c0.3,0.3,0.7,0.4,1.2,0.4c0.4,0,0.8-0.1,1.1-0.2c0.3-0.1,0.6-0.3,0.8-0.6v-1.5
		c-0.2-0.2-0.5-0.3-0.8-0.4c-0.3-0.1-0.6-0.1-1-0.1C93.1,144.1,92.7,144.3,92.4,144.5z"/>
	<path class="st0" d="M102.6,138.1c0.7-0.6,1.7-0.9,3-0.9c1.1,0,2,0.2,2.6,0.7c0.7,0.5,1.1,1.2,1.4,2.1c0,0.1,0,0.2,0,0.3
		c0,0.1-0.1,0.1-0.3,0.2l-1.7,0.4c-0.1,0-0.2,0-0.3,0s-0.1-0.1-0.2-0.3c-0.1-0.3-0.3-0.6-0.5-0.7c-0.2-0.2-0.5-0.2-0.9-0.2
		c-0.4,0-0.7,0.1-1,0.3c-0.2,0.2-0.3,0.4-0.3,0.7c0,0.3,0.1,0.5,0.3,0.7c0.2,0.2,0.7,0.5,1.5,0.8c0.8,0.3,1.3,0.5,1.7,0.8
		c0.4,0.2,0.7,0.5,1,0.7c0.3,0.3,0.5,0.7,0.7,1c0.1,0.3,0.2,0.7,0.2,1.2c0,1-0.4,1.9-1.2,2.5c-0.8,0.6-1.9,0.9-3.3,0.9
		c-0.8,0-1.5-0.1-2.1-0.3c-0.6-0.2-1.2-0.5-1.7-0.9c-0.1-0.1-0.1-0.2-0.2-0.3s0-0.2,0.1-0.3l0.8-1.4c0.1-0.1,0.2-0.2,0.3-0.2
		c0.1,0,0.2,0,0.3,0.1c0.4,0.3,0.7,0.5,1.1,0.7c0.4,0.1,0.8,0.2,1.2,0.2c0.5,0,1-0.1,1.3-0.3c0.3-0.2,0.4-0.4,0.4-0.7
		c0-0.3-0.1-0.5-0.3-0.7c-0.2-0.2-0.7-0.4-1.4-0.7c-0.7-0.3-1.3-0.5-1.7-0.7c-0.4-0.2-0.7-0.5-1-0.7c-0.3-0.3-0.5-0.6-0.7-1
		c-0.2-0.4-0.2-0.8-0.2-1.2C101.5,139.6,101.8,138.8,102.6,138.1z"/>
	<path class="st0" d="M112.6,148.5c-0.3-0.3-0.5-0.8-0.5-1.3c0-0.5,0.2-1,0.5-1.3c0.3-0.3,0.8-0.5,1.3-0.5c0.5,0,1,0.2,1.3,0.5
		c0.3,0.3,0.5,0.8,0.5,1.3c0,0.5-0.2,1-0.5,1.3c-0.3,0.3-0.8,0.5-1.3,0.5C113.3,149,112.9,148.9,112.6,148.5z M112.3,133
		c0.1-0.1,0.2-0.1,0.3-0.1h2.6c0.1,0,0.2,0,0.3,0.1c0.1,0.1,0.1,0.2,0.1,0.3c0,0,0,0.9-0.1,2.6s-0.1,4.2-0.2,7.5
		c0,0.1,0,0.2-0.1,0.3c-0.1,0.1-0.2,0.1-0.3,0.1h-1.9c-0.1,0-0.2,0-0.3-0.1c-0.1-0.1-0.1-0.2-0.1-0.3c-0.1-3.3-0.2-5.8-0.2-7.5
		c-0.1-1.7-0.1-2.6-0.1-2.6C112.2,133.2,112.2,133.1,112.3,133z"/>
</g>
</svg>
