<svg width="345" height="118" viewBox="0 0 345 118" fill="none" xmlns="http://www.w3.org/2000/svg">
<path d="M204.897 22.4438H163.85V80.5937H204.897V22.4438Z" fill="white"/>
<path d="M21.7109 80.5934V51.6885H25.6121V77.1928H40.1991V80.5934H21.7109Z" fill="white"/>
<path d="M61.7404 80.5934L58.8569 73.2821H45.9661L43.0826 80.5934H39.1814L50.7153 51.6885H54.1077L65.6416 80.5934H61.7404ZM52.5811 55.9392L47.323 70.0516H58.0089L52.5811 55.9392Z" fill="white"/>
<path d="M93.2891 80.5934L84.8083 68.8614H76.1578V80.5934H72.2567V51.6885H86.1652C91.5929 51.6885 95.1549 55.7692 95.1549 60.3599C95.1549 63.9305 92.9499 67.3311 89.2183 68.3513L98.208 80.5934H93.2891ZM85.6564 54.919H76.1578V65.6308H85.6564C88.8791 65.6308 91.0841 63.4205 91.0841 60.3599C91.0841 57.2994 88.5398 54.919 85.6564 54.919Z" fill="white"/>
<path d="M109.742 81.1038C101.6 81.1038 95.8333 74.3026 95.8333 66.1412C95.8333 57.9799 101.6 51.1787 109.742 51.1787C117.883 51.1787 123.65 57.9799 123.65 66.1412C123.65 74.3026 117.883 81.1038 109.742 81.1038ZM109.742 54.5793C103.805 54.5793 99.7345 59.5101 99.7345 66.1412C99.7345 72.7724 103.636 77.5332 109.742 77.5332C115.678 77.5332 119.749 72.6023 119.749 66.1412C119.749 59.5101 115.848 54.5793 109.742 54.5793Z" fill="white"/>
<path d="M146.04 55.4294C144.174 54.9193 141.799 54.5793 139.764 54.5793C132.301 54.5793 127.552 59.1701 127.552 65.9712C127.552 72.7724 132.301 77.5332 139.764 77.5332C141.63 77.5332 143.665 77.1931 146.04 76.683L146.888 79.9136C144.683 80.5937 142.139 81.1038 139.594 81.1038C130.435 81.1038 123.65 74.4727 123.65 66.1412C123.65 57.8098 130.265 51.1787 139.594 51.1787C142.308 51.1787 144.683 51.5188 147.058 52.1989L146.04 55.4294Z" fill="white"/>
<path d="M168.09 80.5934V67.5012H153.164V80.5934H149.263V51.6885H153.164V64.1006H168.09V51.6885H172.161V80.5934H168.09Z" fill="white"/>
<path d="M163.85 67.5013H167.92V80.5935H171.991V51.5186H167.92V63.9307H163.85" fill="#00A7FF"/>
<path d="M222.367 69.2014H212.529V80.5934H208.628V51.6885H222.367C227.965 51.6885 231.357 55.9392 231.357 60.53C231.357 65.1207 227.965 69.2014 222.367 69.2014ZM222.028 54.919H212.529V65.9709H222.028C225.251 65.9709 227.456 63.5905 227.456 60.53C227.456 57.4695 224.911 54.919 222.028 54.919Z" fill="white"/>
<path d="M244.417 81.1038C236.276 81.1038 230.509 74.3026 230.509 66.1412C230.509 57.9799 236.276 51.1787 244.417 51.1787C252.559 51.1787 258.326 57.9799 258.326 66.1412C258.326 74.3026 252.389 81.1038 244.417 81.1038ZM244.417 54.5793C238.481 54.5793 234.41 59.5101 234.41 66.1412C234.41 72.7724 238.311 77.5332 244.417 77.5332C250.354 77.5332 254.425 72.6023 254.425 66.1412C254.255 59.5101 250.354 54.5793 244.417 54.5793Z" fill="white"/>
<path d="M269.521 81.1038C265.789 81.1038 261.718 80.2536 257.987 78.7234L258.835 75.6629C262.397 76.8531 266.128 77.7032 269.521 77.7032C274.1 77.7032 276.814 75.8329 276.814 73.2825C276.814 70.9021 275.457 69.8819 268.842 67.3314C261.379 64.441 258.835 62.5706 258.835 58.1499C258.835 53.3891 262.736 51.1787 269.69 51.1787C272.574 51.1787 276.984 51.6888 279.698 52.709L279.019 55.9395C276.136 55.2594 272.743 54.7493 269.86 54.7493C264.771 54.7493 262.736 55.5995 262.736 58.1499C262.736 60.8704 264.602 61.8905 271.386 64.611C278.85 67.5015 280.546 69.2018 280.546 73.2825C280.546 77.7032 276.305 81.1038 269.521 81.1038Z" fill="white"/>
<path d="M301.409 80.5934L298.525 73.2821H285.634L282.751 80.5934H278.85L290.384 51.6885H293.776L305.31 80.5934H301.409ZM292.08 55.9392L286.822 70.0516H297.507L292.08 55.9392Z" fill="white"/>
<path d="M313.451 68.8615V80.5935H309.55V68.8615L298.525 51.5186H302.596L311.416 65.2909L320.236 51.5186H324.307L313.451 68.8615Z" fill="white"/>
<path d="M72.087 96.9164V85.5244H73.1047V95.8962H79.0413V96.9164H72.087Z" fill="white"/>
<path d="M88.0309 96.9164L86.8436 93.6858H81.4159L80.059 96.9164H79.0413L83.6209 85.5244H84.2994L88.879 96.9164H88.0309ZM83.9601 86.8846L81.5855 93.0057H86.3348L83.9601 86.8846Z" fill="white"/>
<path d="M94.4764 96.9164H89.3879V85.5244H93.9676C96.3422 85.5244 97.5295 86.7146 97.5295 88.4149C97.5295 89.4351 96.851 90.4553 95.8333 90.9653C97.1903 91.4754 97.8687 92.4956 97.8687 93.8558C97.8687 95.3861 96.6814 96.9164 94.4764 96.9164ZM93.9676 86.5446H90.4056V90.7953H93.7979C95.1549 90.7953 96.3422 90.1152 96.3422 88.755C96.3422 87.3947 95.4941 86.5446 93.9676 86.5446ZM94.3068 91.4754H90.4056V96.0662H94.4764C96.0029 96.0662 96.851 95.2161 96.851 93.8558C96.851 92.4956 96.0029 91.4754 94.3068 91.4754Z" fill="white"/>
<path d="M103.296 97.0864C100.074 97.0864 98.0384 94.3659 98.0384 91.3054C98.0384 88.2449 100.243 85.5244 103.296 85.5244C106.519 85.5244 108.555 88.2449 108.555 91.3054C108.555 94.3659 106.35 97.0864 103.296 97.0864ZM103.296 86.3746C100.752 86.3746 99.0561 88.5849 99.0561 91.3054C99.0561 94.0259 100.752 96.2362 103.296 96.2362C105.841 96.2362 107.537 94.1959 107.537 91.3054C107.537 88.4149 105.841 86.3746 103.296 86.3746Z" fill="white"/>
<path d="M118.053 96.9164L114.491 91.9855H110.59V96.9164H109.572V85.5244H114.661C116.866 85.5244 118.053 87.0547 118.053 88.755C118.053 90.1152 117.205 91.4754 115.509 91.8155L119.24 96.9164H118.053ZM114.661 86.5446H110.59V91.3054H114.661C116.187 91.3054 117.035 90.4553 117.035 88.925C117.035 87.3947 116.018 86.5446 114.661 86.5446Z" fill="white"/>
<path d="M127.891 96.9164L126.704 93.6858H121.276L119.919 96.9164H118.901L123.481 85.5244H124.159L128.909 96.9164H127.891ZM123.99 86.8846L121.615 93.0057H126.364L123.99 86.8846Z" fill="white"/>
<path d="M132.131 86.5445V96.9162H131.114V86.5445H127.212V85.6943H135.863V86.5445H132.131Z" fill="white"/>
<path d="M140.612 97.0864C137.389 97.0864 135.354 94.3659 135.354 91.3054C135.354 88.2449 137.559 85.5244 140.612 85.5244C143.835 85.5244 145.87 88.2449 145.87 91.3054C145.87 94.3659 143.665 97.0864 140.612 97.0864ZM140.612 86.3746C138.068 86.3746 136.372 88.5849 136.372 91.3054C136.372 94.0259 138.068 96.2362 140.612 96.2362C143.156 96.2362 144.853 94.1959 144.853 91.3054C144.853 88.4149 142.987 86.3746 140.612 86.3746Z" fill="white"/>
<path d="M147.058 96.9164V85.5244H148.075V96.9164H147.058Z" fill="white"/>
<path d="M158.422 96.9164L154.86 91.9855H150.959V96.9164H149.941V85.5244H155.03C157.235 85.5244 158.422 87.0547 158.422 88.755C158.422 90.1152 157.574 91.4754 155.878 91.8155L159.609 96.9164H158.422ZM155.03 86.5446H150.959V91.3054H155.03C156.556 91.3054 157.404 90.4553 157.404 88.925C157.404 87.3947 156.217 86.5446 155.03 86.5446Z" fill="white"/>
<path d="M160.118 96.9164V85.5244H167.581V86.3746H161.136V90.4553H167.242V91.3054H161.136V95.8962H167.581V96.9164H160.118Z" fill="white"/>
<path d="M173.178 96.9164H170.973V85.5244H173.178C177.08 85.5244 179.793 87.9048 179.793 91.1354C179.793 94.3659 176.91 96.9164 173.178 96.9164ZM173.348 86.5446H171.991V96.0662H173.348C176.062 96.0662 178.776 94.3659 178.776 91.3054C178.776 88.2449 176.062 86.5446 173.348 86.5446Z" fill="white"/>
<path d="M180.472 96.9164V85.5244H187.935V86.3746H181.49V90.4553H187.596V91.3054H181.49V95.8962H187.935V96.9164H180.472Z" fill="white"/>
<path d="M197.773 96.9164L194.211 91.9855H190.31V96.9164H189.292V85.5244H194.381C196.586 85.5244 197.773 87.0547 197.773 88.755C197.773 90.1152 196.925 91.4754 195.229 91.8155L198.96 96.9164H197.773ZM194.381 86.5446H190.31V91.3054H194.381C195.907 91.3054 196.755 90.4553 196.755 88.925C196.755 87.3947 195.737 86.5446 194.381 86.5446Z" fill="white"/>
<path d="M208.967 96.9164V87.3947L205.066 95.3861H204.388L200.487 87.3947V96.9164H199.469V85.5244H200.487L204.727 94.0259L208.967 85.5244H209.985V96.9164H208.967Z" fill="white"/>
<path d="M219.314 96.9164L218.127 93.6858H212.699L211.512 96.9164H210.324L214.904 85.5244H215.583L220.162 96.9164H219.314ZM215.243 86.8846L212.869 93.0057H217.618L215.243 86.8846Z" fill="white"/>
<path d="M223.385 86.5445V96.9162H222.367V86.5445H218.466V85.6943H227.116V86.5445H223.385Z" fill="white"/>
<path d="M231.866 97.0864C228.643 97.0864 226.608 94.3659 226.608 91.3054C226.608 88.2449 228.813 85.5244 231.866 85.5244C235.088 85.5244 237.124 88.2449 237.124 91.3054C237.124 94.3659 235.088 97.0864 231.866 97.0864ZM231.866 86.3746C229.322 86.3746 227.625 88.5849 227.625 91.3054C227.625 94.0259 229.322 96.2362 231.866 96.2362C234.41 96.2362 236.106 94.1959 236.106 91.3054C236.106 88.4149 234.41 86.3746 231.866 86.3746Z" fill="white"/>
<path d="M238.311 96.9164V85.5244H239.329V95.8962H245.266V96.9164H238.311Z" fill="white"/>
<path d="M249.845 97.0864C246.622 97.0864 244.587 94.3659 244.587 91.3054C244.587 88.2449 246.792 85.5244 249.845 85.5244C253.068 85.5244 255.103 88.2449 255.103 91.3054C255.103 94.3659 253.068 97.0864 249.845 97.0864ZM249.845 86.3746C247.301 86.3746 245.605 88.5849 245.605 91.3054C245.605 94.0259 247.301 96.2362 249.845 96.2362C252.389 96.2362 254.086 94.1959 254.086 91.3054C254.086 88.4149 252.389 86.3746 249.845 86.3746Z" fill="white"/>
<path d="M261.379 97.0864C257.817 97.0864 255.273 94.5359 255.273 91.3054C255.273 87.9048 257.648 85.5244 261.379 85.5244C262.227 85.5244 263.415 85.6944 264.263 85.8645L264.093 86.7146C263.075 86.5446 262.227 86.3746 261.379 86.3746C258.326 86.3746 256.291 88.2449 256.291 91.3054C256.291 94.3659 258.496 96.2362 261.379 96.2362C262.058 96.2362 262.906 96.0662 263.754 95.8962V91.8155H264.602V96.5763C263.754 96.9163 262.397 97.0864 261.379 97.0864Z" fill="white"/>
<path d="M266.298 96.9164V85.5244H267.316V96.9164H266.298Z" fill="white"/>
<path d="M274.1 97.0864V100.147H273.083V97.0864C270.199 96.7463 268.333 94.1959 268.333 91.3054C268.333 88.0748 270.538 85.5244 273.591 85.5244C276.645 85.5244 278.85 88.2449 278.85 91.3054C278.85 94.1959 276.984 96.7463 274.1 97.0864ZM273.591 86.3746C271.047 86.3746 269.351 88.4149 269.351 91.3054C269.351 94.1959 271.047 96.2362 273.591 96.2362C276.136 96.2362 277.832 94.0259 277.832 91.3054C277.832 88.4149 276.136 86.3746 273.591 86.3746Z" fill="white"/>
<path d="M284.277 97.0863C281.394 97.0863 279.867 95.0459 279.867 93.0056V85.6943H280.885V93.1756C280.885 95.2159 282.242 96.4061 284.277 96.4061C286.313 96.4061 287.67 95.0459 287.67 93.1756V85.6943H288.687V93.0056C288.687 95.0459 287.161 97.0863 284.277 97.0863Z" fill="white"/>
<path d="M290.214 96.9164V85.5244H297.677V86.3746H291.232V90.4553H297.338V91.3054H291.232V95.8962H297.677V96.9164H290.214Z" fill="white"/>
<path d="M175.553 80.5935V51.5186H195.229V55.0892H179.454V63.9307H194.211V67.3312H179.454V77.1929H195.229V80.5935H175.553Z" fill="#00A7FF"/>
</svg>
