<svg width="512" height="269" viewBox="0 0 512 269" fill="none" xmlns="http://www.w3.org/2000/svg">
<g clip-path="url(#clip0)">
<path d="M131.067 27.3203V119.939H100.395V27.3203H61.6435V0H169.968V27.3203H131.067Z" fill="white"/>
<path d="M222.036 119.939V110.932C215.902 117.838 207.673 121.44 197.199 121.44C192.86 121.44 188.97 120.69 185.379 119.339C181.788 117.838 178.796 116.036 176.252 113.634C173.709 111.233 171.764 108.531 170.268 105.228C168.771 102.076 168.173 98.7734 168.173 95.3209C168.173 86.7645 170.567 80.1596 175.504 75.8064C180.442 71.4531 187.324 69.2014 196.302 69.2014H220.54V63.4972C220.54 61.3956 220.241 59.7444 219.792 58.2433C219.193 56.8923 218.296 55.6914 216.949 54.9408C215.603 54.1903 213.807 53.5898 211.413 53.1395C209.019 52.8393 206.176 52.5391 202.586 52.5391C198.695 52.5391 194.506 52.6892 189.868 52.8393C185.23 53.1395 180.591 53.5898 175.953 54.3404L172.961 34.2254C177.898 33.1747 183.285 32.274 189.269 31.5234C195.254 30.7729 200.641 30.4727 205.578 30.4727C212.311 30.4727 218.296 31.0731 223.832 32.4241C229.218 33.625 234.006 35.7266 237.896 38.4286C241.786 41.1306 244.778 44.7333 246.873 49.0865C248.968 53.4397 250.015 58.6936 250.015 64.8482V119.939H222.036ZM220.54 86.1641H207.822C204.68 86.1641 202.137 86.9146 200.341 88.2656C198.396 89.6166 197.499 91.7182 197.499 94.4202C197.499 96.822 198.247 98.6233 199.892 99.9743C201.389 101.325 204.082 101.926 207.673 101.926C211.563 101.926 214.705 100.575 216.949 97.8728C219.343 95.1708 220.54 91.8683 220.54 88.1155V86.1641V86.1641Z" fill="white"/>
<path d="M317.344 119.039C314.95 119.489 312.556 119.789 310.462 119.939C305.973 120.39 301.634 120.239 297.594 119.489C293.555 118.738 289.964 117.387 286.822 115.436C283.68 113.484 281.136 110.782 279.041 107.33C277.096 103.877 275.899 99.8242 275.451 94.8705L271.71 52.3889L260.638 53.2896L258.992 34.976L270.064 34.0753L267.97 9.60713L297.295 7.05524L299.39 31.5234L313.753 30.3225L315.399 48.6362L301.036 49.837L304.477 89.4665C304.776 93.2193 305.973 95.471 307.918 96.3716C309.863 97.2723 312.108 97.5725 314.651 97.2723C315.399 97.2723 316.147 97.1222 317.045 96.9721C317.943 96.822 318.541 96.6719 318.84 96.5218L323.179 117.838C321.833 118.138 319.738 118.588 317.344 119.039Z" fill="white"/>
<path d="M358.041 83.6122C358.639 89.0162 361.033 93.0692 365.073 95.6211C369.262 98.3231 374.798 99.524 381.681 99.524C385.87 99.524 389.91 99.2238 393.8 98.7734C397.69 98.3231 401.73 97.5725 405.77 96.6719L410.857 116.336C406.219 117.988 401.281 119.339 396.344 120.089C391.257 120.99 386.319 121.29 381.232 121.29C372.853 121.29 365.372 120.239 358.939 118.138C352.505 116.036 347.119 113.034 342.63 108.981C338.291 105.078 334.999 100.275 332.755 94.7204C330.511 89.1663 329.463 82.8616 329.463 75.9565C329.463 69.952 330.511 64.2478 332.456 58.6936C334.551 53.2896 337.393 48.3359 341.134 44.1328C344.874 39.9297 349.513 36.6272 354.899 34.0753C360.285 31.6735 366.42 30.3225 373.302 30.3225C386.02 30.3225 396.044 34.3756 403.376 42.6317C410.707 50.7377 414.448 62.1462 414.448 76.707V83.3119H358.041V83.6122ZM382.878 56.1417C380.783 53.4397 377.492 52.0887 373.153 52.0887C369.412 52.0887 366.27 53.2896 363.577 55.5413C360.884 57.9431 359.088 61.5458 358.34 66.6495H387.067C386.319 62.2963 384.973 58.8437 382.878 56.1417Z" fill="white"/>
<path d="M4.03974 234.775L2.39392 216.161L36.3577 173.379L2.2443 176.381L0.59848 157.767L65.9825 152.063L67.6283 170.527L32.6172 213.309L71.5184 209.856L73.1642 228.77L4.03974 234.775Z" fill="white"/>
<path d="M130.768 231.922V223.967C125.382 230.121 118.05 233.123 109.073 233.123C105.333 233.123 101.891 232.523 98.7493 231.172C95.6072 229.971 92.9141 228.17 90.6698 226.068C88.4255 223.967 86.63 221.565 85.4331 218.713C84.2361 215.86 83.488 213.008 83.488 210.006C83.488 202.501 85.5827 196.796 89.9217 192.893C94.2607 188.991 100.395 187.189 108.175 187.189H129.421V182.235C129.421 180.434 129.122 178.933 128.673 177.732C128.224 176.531 127.327 175.48 126.279 174.88C125.082 174.129 123.586 173.679 121.492 173.379C119.397 173.079 116.853 172.929 113.711 172.929C110.42 172.929 106.679 173.079 102.639 173.229C98.5996 173.379 94.5599 173.829 90.3705 174.43L87.6774 156.717C92.0164 155.816 96.8042 154.915 102.041 154.315C107.278 153.714 112.065 153.414 116.404 153.414C122.24 153.414 127.626 154.015 132.414 155.065C137.202 156.116 141.241 157.917 144.683 160.319C148.124 162.721 150.667 165.873 152.612 169.626C154.408 173.529 155.306 178.032 155.306 183.436V231.772H130.768V231.922ZM129.421 202.2H118.349C115.656 202.2 113.412 202.801 111.766 204.002C110.12 205.203 109.372 207.004 109.372 209.406C109.372 211.507 110.12 213.158 111.467 214.359C112.814 215.56 115.058 216.161 118.349 216.161C121.791 216.161 124.484 214.96 126.579 212.558C128.673 210.156 129.721 207.304 129.721 204.002V202.2H129.421Z" fill="white"/>
<path d="M247.322 266.748C244.928 266.898 242.534 267.049 240.439 267.049C235.951 267.049 231.612 266.448 227.722 265.397C223.832 264.347 220.241 262.695 217.248 260.294C214.256 258.042 211.862 255.04 210.216 251.587C208.57 247.984 207.673 243.781 207.673 238.828V196.196H196.601V177.882H207.673V153.414H237.148V177.882H251.511V196.196H237.148V235.975C237.148 239.728 238.046 242.13 239.991 243.031C241.786 244.081 244.03 244.532 246.574 244.532C247.322 244.532 248.07 244.532 248.968 244.382C249.866 244.382 250.464 244.232 250.913 244.081L253.456 265.698C251.811 266.298 249.716 266.598 247.322 266.748Z" fill="white"/>
<path d="M315.549 266.598L316.297 257.592C309.564 264.046 301.036 266.748 290.712 265.848C286.373 265.547 282.632 264.347 279.191 262.695C275.75 260.894 272.907 258.792 270.513 256.241C268.119 253.689 266.473 250.686 265.276 247.384C264.079 244.082 263.78 240.779 264.079 237.326C264.828 228.77 267.82 222.465 273.206 218.563C278.443 214.66 285.625 213.008 294.452 213.909L318.541 216.011L318.99 210.456C319.14 208.355 318.99 206.704 318.691 205.203C318.242 203.701 317.494 202.651 316.147 201.75C314.95 200.849 313.155 200.099 310.911 199.498C308.666 198.898 305.674 198.448 302.083 198.147C298.193 197.847 294.004 197.547 289.515 197.397C284.877 197.247 280.238 197.247 275.6 197.547L274.254 177.132C279.191 176.531 284.727 176.081 290.712 175.931C296.697 175.781 302.233 175.781 307.02 176.231C313.753 176.831 319.738 178.032 324.975 179.684C330.361 181.485 334.7 183.737 338.441 186.889C342.032 189.891 344.725 193.644 346.52 198.297C348.166 202.801 348.764 208.205 348.316 214.209L343.528 269.15L315.549 266.598ZM317.045 232.673L304.477 231.622C301.335 231.322 298.791 231.772 296.846 232.973C294.901 234.174 293.704 236.126 293.555 238.978C293.405 241.379 294.003 243.331 295.35 244.682C296.846 246.183 299.39 247.084 302.981 247.384C306.871 247.684 310.013 246.633 312.556 244.232C315.1 241.68 316.596 238.527 316.895 234.775L317.045 232.673Z" fill="white"/>
<path d="M409.959 266.748C407.565 266.898 405.171 267.049 403.077 267.049C398.588 267.049 394.249 266.448 390.359 265.397C386.469 264.347 382.878 262.695 379.885 260.294C376.893 258.042 374.499 255.04 372.853 251.587C371.207 247.984 370.31 243.781 370.31 238.828V196.196H359.238V177.882H370.31V153.414H399.785V177.882H414.148V196.196H399.785V235.975C399.785 239.728 400.683 242.13 402.628 243.031C404.423 244.081 406.667 244.532 409.211 244.532C409.959 244.532 410.707 244.532 411.605 244.382C412.503 244.382 413.101 244.232 413.55 244.081L416.094 265.698C414.448 266.298 412.353 266.598 409.959 266.748Z" fill="white"/>
<path d="M455.444 229.22C456.042 234.624 458.436 238.677 462.476 241.229C466.665 243.931 472.201 245.132 479.084 245.132C483.273 245.132 487.313 244.832 491.203 244.382C495.093 243.931 499.133 243.181 503.172 242.28L508.259 261.945C503.621 263.596 498.684 264.947 493.746 265.698C488.659 266.598 483.722 266.898 478.635 266.898C470.256 266.898 462.775 265.848 456.341 263.746C449.908 261.645 444.521 258.642 440.033 254.589C435.694 250.686 432.402 245.883 430.158 240.329C427.913 234.775 426.866 228.47 426.866 221.565C426.866 215.56 427.913 209.856 429.858 204.302C431.953 198.898 434.796 193.944 438.536 189.741C442.277 185.538 446.915 182.235 452.302 179.684C457.688 177.282 463.822 175.931 470.705 175.931C483.423 175.931 493.447 179.984 500.778 188.24C508.11 196.346 511.85 207.754 511.85 222.315V228.92H455.444V229.22ZM480.28 201.75C478.186 199.048 474.894 197.697 470.555 197.697C466.815 197.697 463.673 198.898 460.98 201.15C458.286 203.551 456.491 207.154 455.743 212.258H484.47C483.722 207.905 482.375 204.452 480.28 201.75Z" fill="white"/>
<path d="M157.101 248.285H0V267.799H157.101V248.285Z" fill="white"/>
</g>
<defs>
<clipPath id="clip0">
<rect width="512" height="269" fill="white"/>
</clipPath>
</defs>
</svg>
