<svg width="230" height="191" viewBox="0 0 230 191" fill="none" xmlns="http://www.w3.org/2000/svg">
<path d="M77.9608 0.64101H74.9368L68.4808 13.001L66.3928 0.64101H63.3928L66.3688 16.625H69.3688L77.9608 0.64101Z" fill="white"/>
<path d="M84.3359 4.76901C84.0719 4.74501 83.904 4.74501 83.616 4.76901C81.696 4.93701 80.5439 6.37701 79.8479 7.67301L80.3519 4.93701H77.5439L75.5039 16.625H78.3839L78.672 14.969C79.512 10.097 81.3599 7.69701 83.0639 7.50501C83.3039 7.48101 83.4479 7.48101 83.6399 7.50501L84.3359 4.76901Z" fill="white"/>
<path d="M88.4238 4.93701H85.5438L83.5038 16.625H86.3838L88.4238 4.93701ZM89.2638 0.185009H86.3838L85.9038 2.94501H88.7838L89.2638 0.185009Z" fill="white"/>
<path d="M94.1302 4.93701H91.2502L89.1862 16.649C88.9462 17.945 88.5862 18.545 87.4582 18.545C87.0982 18.545 86.9302 18.521 86.5942 18.449L86.2582 20.657C86.6182 20.729 87.2182 20.801 87.6022 20.801C90.0982 20.801 91.5622 19.601 92.0182 16.961L94.1302 4.93701ZM94.9702 0.161011H92.0902L91.6102 2.94501H94.4902L94.9702 0.161011Z" fill="white"/>
<path d="M105.142 7.55301C105.142 6.04101 103.87 4.72101 101.086 4.72101C97.2457 4.72101 94.3657 7.62501 94.3657 11.849C94.3657 14.777 96.4057 16.817 99.9337 16.817C101.35 16.817 102.838 16.505 103.918 15.977L103.462 13.985C102.406 14.345 101.398 14.537 100.342 14.537C98.2297 14.537 97.0777 13.649 97.1257 11.897C102.598 11.897 105.142 10.433 105.142 7.55301ZM102.502 7.91301C102.502 9.04101 100.726 9.64101 97.4857 9.64101C98.0137 7.91301 99.2617 6.92901 100.918 6.92901C102.022 6.92901 102.502 7.28901 102.502 7.91301Z" fill="white"/>
<path d="M118.156 0.64101H115.252L114.364 5.58501C113.74 5.10501 112.564 4.72101 111.628 4.72101C107.692 4.72101 105.46 9.13701 105.46 12.689C105.46 14.801 106.252 16.817 108.772 16.817C110.452 16.817 112.06 15.593 112.924 13.937L112.444 16.625H115.324L118.156 0.64101ZM114.052 7.55301C114.028 7.64901 114.028 7.69701 114.004 7.76901C113.044 11.297 111.532 14.561 109.66 14.561C108.628 14.561 108.388 13.721 108.388 12.593C108.388 10.001 109.564 6.95301 112.108 6.95301C112.804 6.95301 113.476 7.21701 114.052 7.55301Z" fill="white"/>
<path d="M122.786 4.93701H119.906L117.866 16.625H120.746L122.786 4.93701ZM123.626 0.185009H120.746L120.266 2.94501H123.146L123.626 0.185009Z" fill="white"/>
<path d="M132.619 4.93701H129.739L127.699 16.625H130.579L132.619 4.93701ZM133.459 0.185009H130.579L130.099 2.94501H132.979L133.459 0.185009Z" fill="white"/>
<path d="M148.525 4.93701H139.189L138.805 7.07301H144.709L137.077 14.441L136.693 16.625H146.605L146.989 14.465H140.413L148.165 7.09701L148.525 4.93701Z" fill="white"/>
<path d="M160.481 4.93701H157.553L157.457 5.58501C156.905 5.15301 155.801 4.72101 154.721 4.72101C150.785 4.72101 148.529 9.13701 148.529 12.689C148.529 14.801 149.345 16.817 151.865 16.817C153.545 16.817 155.177 15.521 156.017 13.937L155.513 16.625H158.417L160.481 4.93701ZM157.121 7.52901C157.121 7.60101 157.121 7.67301 157.097 7.76901C156.617 11.225 154.649 14.561 152.753 14.561C151.673 14.561 151.433 13.721 151.433 12.593C151.433 10.001 152.657 6.95301 155.201 6.95301C155.897 6.95301 156.545 7.19301 157.121 7.52901Z" fill="white"/>
<path d="M184.55 7.86501C184.55 5.89701 183.566 4.72101 181.526 4.72101C179.678 4.72101 177.974 6.11301 177.014 7.67301C176.99 7.24101 176.918 6.83301 176.798 6.47301C176.438 5.34501 175.55 4.72101 174.086 4.72101C172.238 4.72101 170.606 6.16101 169.718 7.64901L170.198 4.93701H167.39L165.326 16.625H168.206L168.518 14.969C169.406 10.241 170.87 7.28901 172.886 7.28901C173.75 7.28901 174.11 7.74501 174.11 8.60901C174.11 8.94501 174.086 9.28101 174.014 9.66501L172.766 16.625H175.67L175.982 14.873C176.822 10.145 178.334 7.28901 180.326 7.28901C181.262 7.28901 181.574 7.76901 181.574 8.63301C181.574 8.96901 181.526 9.28101 181.454 9.66501L180.23 16.625H183.11L184.406 9.20901C184.478 8.72901 184.55 8.29701 184.55 7.86501Z" fill="white"/>
<path d="M197.508 4.93701H194.58L194.484 5.58501C193.932 5.15301 192.828 4.72101 191.748 4.72101C187.812 4.72101 185.556 9.13701 185.556 12.689C185.556 14.801 186.372 16.817 188.892 16.817C190.572 16.817 192.204 15.521 193.044 13.937L192.54 16.625H195.444L197.508 4.93701ZM194.148 7.52901C194.148 7.60101 194.148 7.67301 194.124 7.76901C193.644 11.225 191.676 14.561 189.78 14.561C188.7 14.561 188.46 13.721 188.46 12.593C188.46 10.001 189.684 6.95301 192.228 6.95301C192.924 6.95301 193.572 7.19301 194.148 7.52901Z" fill="white"/>
<path d="M217.258 7.86501C217.258 5.89701 216.274 4.72101 214.234 4.72101C212.386 4.72101 210.682 6.11301 209.722 7.67301C209.698 7.24101 209.626 6.83301 209.506 6.47301C209.146 5.34501 208.258 4.72101 206.794 4.72101C204.946 4.72101 203.314 6.16101 202.426 7.64901L202.906 4.93701H200.098L198.034 16.625H200.914L201.226 14.969C202.114 10.241 203.578 7.28901 205.594 7.28901C206.458 7.28901 206.818 7.74501 206.818 8.60901C206.818 8.94501 206.794 9.28101 206.722 9.66501L205.474 16.625H208.378L208.69 14.873C209.53 10.145 211.042 7.28901 213.034 7.28901C213.97 7.28901 214.282 7.76901 214.282 8.63301C214.282 8.96901 214.234 9.28101 214.162 9.66501L212.938 16.625H215.818L217.114 9.20901C217.186 8.72901 217.258 8.29701 217.258 7.86501Z" fill="white"/>
<path d="M229.041 7.55301C229.041 6.04101 227.769 4.72101 224.985 4.72101C221.145 4.72101 218.265 7.62501 218.265 11.849C218.265 14.777 220.305 16.817 223.833 16.817C225.249 16.817 226.737 16.505 227.817 15.977L227.361 13.985C226.305 14.345 225.297 14.537 224.241 14.537C222.129 14.537 220.977 13.649 221.025 11.897C226.497 11.897 229.041 10.433 229.041 7.55301ZM226.401 7.91301C226.401 9.04101 224.625 9.64101 221.385 9.64101C221.913 7.91301 223.161 6.92901 224.817 6.92901C225.921 6.92901 226.401 7.28901 226.401 7.91301Z" fill="white"/>
<g clip-path="url(#clip0)">
<path d="M3.84238 151.891C12.1278 155.076 21.352 154.893 29.7325 152.257C38.413 149.552 46.109 144.146 51.726 136.992C54.7817 133.098 57.0269 128.621 58.5845 123.932C60.4076 118.449 61.1027 112.401 60.3158 106.668C59.599 101.411 57.5064 96.2587 53.4718 92.6913C50.2653 89.848 45.7174 87.9202 41.3606 88.3383C38.7678 88.5821 36.5798 89.4261 34.4264 90.905C32.0434 92.5776 30.3827 95.0095 29.0746 97.53C26.1224 103.329 25.8317 110.418 27.641 116.576C30.4515 126.103 38.2554 133.767 47.1571 137.834C56.1645 141.954 66.1456 142.988 75.8304 141.095C85.7092 139.167 94.7983 133.887 102.231 127.158C110.318 119.831 116.554 110.65 121.169 100.832C126.527 89.3568 129.663 76.9444 131.812 64.4778C132.309 61.6389 132.736 58.7646 133.163 55.8904C133.323 54.7795 133.342 53.4215 132.955 52.3452C132.762 51.7629 132.269 50.7218 131.529 50.7033C129.536 50.6303 128.756 53.8569 128.543 55.25C128.151 58.1419 127.707 60.9632 127.192 63.8374C126.943 65.3009 126.677 66.7997 126.393 68.2456C126.34 68.5277 126.322 69.0039 126.18 69.2859C126.198 69.2507 126.446 67.9635 126.304 68.7746C126.287 68.898 126.269 69.0215 126.233 69.1801C126.091 69.9031 125.932 70.6613 125.755 71.3665C125.134 74.1876 124.425 77.0087 123.646 79.7943C123.238 81.2224 122.796 82.6328 122.336 84.0785C122.123 84.766 121.893 85.4007 121.681 86.0883C121.592 86.3527 121.362 86.8992 121.822 85.7181C121.751 85.8591 121.698 86.053 121.663 86.2117C121.539 86.5467 121.415 86.8816 121.309 87.1813C120.283 89.9314 119.186 92.6461 117.948 95.2901C117.329 96.6122 116.693 97.8812 116.039 99.1856C115.809 99.6438 115.88 99.1501 116.163 98.9388C116.092 98.9916 115.951 99.3618 115.933 99.3971C115.791 99.6791 115.615 99.9434 115.473 100.225C115.155 100.772 114.837 101.318 114.537 101.829C113.3 103.944 111.974 105.971 110.543 107.944C109.819 108.949 109.077 109.9 108.335 110.852C108.229 110.975 108.141 111.063 108.07 111.204C107.876 111.416 107.7 111.415 108.212 111.01C108 111.169 107.841 111.486 107.647 111.698C107.24 112.156 106.817 112.649 106.41 113.107C102.772 117.194 98.6763 120.876 94.14 123.939C94.3341 123.816 94.546 123.657 94.7401 123.534C88.3505 127.83 81.1335 130.872 73.4779 131.974C73.672 131.939 73.9013 131.922 74.0953 131.887C65.8577 133.006 57.3052 131.937 49.6548 128.63C49.8311 128.719 50.0602 128.789 50.2365 128.878C45.1069 126.614 40.4548 123.311 36.8091 119.056C36.9852 119.232 37.1437 119.444 37.2846 119.603C36.0166 118.085 34.8368 116.479 33.8513 114.749C33.5872 114.308 33.3585 113.884 33.1474 113.425C33.0594 113.249 32.9538 113.02 32.8659 112.843C32.813 112.772 32.7604 112.526 32.6724 112.437C32.7604 112.526 32.9537 113.108 32.7779 112.667C32.4086 111.731 32.0394 110.796 31.776 109.826C31.7234 109.579 31.6531 109.367 31.6005 109.12C31.3722 108.256 31.7406 109.896 31.6356 109.226C31.5304 108.732 31.4604 108.256 31.4081 107.744C31.3907 107.515 31.3558 107.233 31.3384 107.004C31.2685 106.527 31.4081 107.744 31.3553 107.674C31.3201 107.568 31.3557 107.321 31.3558 107.233C31.3388 106.739 31.4099 106.245 31.3928 105.751C31.4105 105.716 31.25 107.18 31.3568 106.439C31.3745 106.316 31.3746 106.228 31.3924 106.104C31.428 105.857 31.4636 105.61 31.4991 105.364C31.5169 105.24 31.5523 105.17 31.57 105.046C31.6589 104.517 31.375 105.963 31.4104 105.804C31.4989 105.54 31.5522 105.258 31.6054 104.976C31.6762 104.746 31.747 104.517 31.8179 104.288C31.9595 103.83 31.5877 105.011 31.5878 104.923C31.5879 104.835 31.7117 104.588 31.747 104.517C31.9239 104.077 32.1185 103.601 32.3306 103.178C32.4544 102.931 32.7194 102.578 32.1362 103.565C32.2069 103.424 32.2599 103.319 32.3659 103.195C32.4897 102.948 32.6487 102.719 32.8077 102.49C32.9667 102.261 33.1257 102.032 33.2847 101.803C33.3377 101.697 33.4083 101.644 33.4966 101.556C33.7616 101.204 32.8962 102.226 33.3906 101.68C34.15 100.869 34.9269 100.112 35.8624 99.4781C35.6682 99.6013 35.4564 99.7598 35.2623 99.883C36.7802 98.8795 38.4212 98.2466 40.2204 98.0018C40.0263 98.0368 39.797 98.0542 39.603 98.0892C42.196 97.7572 44.7528 98.2012 47.1501 99.227C46.9739 99.1386 46.7447 99.0678 46.5684 98.9794C48.8776 100.005 50.9393 101.524 52.5949 103.413C52.4187 103.237 52.2602 103.025 52.1193 102.866C53.1408 104.084 53.9681 105.426 54.6542 106.873C54.9709 107.561 54.3377 106.096 54.6367 106.82C54.707 107.031 54.7949 107.208 54.8652 107.42C55.0235 107.808 55.1288 108.214 55.2518 108.584C55.3573 108.902 55.4451 109.254 55.5328 109.607C55.603 109.907 55.7079 110.666 55.5154 109.378C55.5504 109.66 55.6383 109.925 55.6732 110.207C55.7256 110.63 55.7957 111.019 55.8481 111.442C55.8829 111.812 56.0234 112.324 55.9701 112.694C55.9701 112.694 55.901 111.424 55.9354 112.147C55.9528 112.377 55.9526 112.553 55.9699 112.782C55.987 113.276 55.9688 113.752 55.9682 114.282C55.95 114.758 55.7717 116.345 55.968 114.458C55.9323 114.793 55.9142 115.181 55.8785 115.516C55.8427 115.939 55.7717 116.345 55.683 116.786C55.6651 116.997 55.612 117.191 55.5764 117.438C55.3633 118.655 55.807 116.362 55.6472 117.209C55.4876 117.967 55.2927 118.708 55.0801 119.483C54.9739 119.871 54.8676 120.259 54.726 120.629C54.6729 120.823 54.5845 120.999 54.549 121.158C54.8322 120.33 54.8854 120.136 54.7614 120.559C54.7084 120.664 54.6906 120.788 54.6199 120.929C54.1068 122.304 53.5056 123.591 52.8515 124.895C53.5233 123.555 52.9045 124.789 52.6925 125.124C52.4804 125.459 52.3213 125.776 52.1093 126.111C51.7029 126.746 51.2965 127.38 50.8548 127.997C50.4132 128.614 49.9715 129.23 49.5123 129.794C49.371 129.988 48.8942 130.499 49.6183 129.671C49.53 129.759 49.477 129.865 49.3887 129.953C49.0884 130.287 48.8235 130.64 48.5409 130.939C46.2451 133.494 43.6323 135.713 40.8258 137.614C41.0199 137.491 41.2318 137.333 41.4259 137.209C35.9895 140.836 29.8137 143.298 23.3047 144.225C23.4988 144.19 23.7281 144.173 23.9221 144.137C17.5543 144.959 11.1352 144.387 5.21203 142.122C4.54213 141.875 3.65904 142.932 3.37639 143.319C2.74038 144.236 2.33315 145.576 2.22602 146.669C2.02999 148.379 1.92087 151.148 3.84238 151.891Z" fill="white"/>
<path d="M122.889 63.9733C126.141 57.8396 129.376 51.7412 132.664 45.6252C130.686 47.1925 128.674 48.7421 126.715 50.2742C130.587 56.7162 134.459 63.1582 138.332 69.6001C138.649 70.112 140.007 69.4258 140.237 69.3202C141.207 68.7923 142.196 67.8764 142.903 66.9954C143.627 66.0791 144.422 65.1101 144.758 63.9994C144.847 63.7349 144.9 63.4528 144.988 63.1883C145.112 62.7652 145.025 62.4124 144.743 62.0946C140.87 55.6526 136.998 49.2106 133.126 42.7686C132.791 42.5566 132.403 42.5385 132.015 42.6967C131.415 42.9253 130.868 43.2245 130.391 43.6472C129.102 44.6333 127.937 45.99 127.159 47.4529C123.906 53.5865 120.672 59.685 117.384 65.801C117.101 66.365 116.535 67.4931 116.711 68.1987C116.922 68.8339 117.504 68.9052 118.086 68.7118C119.039 68.3955 119.921 67.6911 120.628 66.9865C121.458 66.1233 122.305 65.1366 122.889 63.9733Z" fill="white"/>
</g>
<defs>
<clipPath id="clip0">
<rect width="155.459" height="90.9016" fill="white" transform="translate(0 149.964) rotate(-63.3667)"/>
</clipPath>
</defs>
</svg>
