<svg width="30" height="30" viewBox="0 0 30 30" fill="none" xmlns="http://www.w3.org/2000/svg">
<path d="M15 30C6.72656 30 0 23.2734 0 15C0 6.72656 6.72656 0 15 0C23.2734 0 30 6.72656 30 15C30 23.2734 23.2734 30 15 30ZM15 1.875C7.76367 1.875 1.875 7.76367 1.875 15C1.875 22.2363 7.76367 28.125 15 28.125C22.2363 28.125 28.125 22.2363 28.125 15C28.125 7.76367 22.2363 1.875 15 1.875Z" fill="#0096E6"/>
<path d="M21.5625 15.9375H8.4375C7.92188 15.9375 7.5 15.5156 7.5 15C7.5 14.4844 7.92188 14.0625 8.4375 14.0625H21.5625C22.0781 14.0625 22.5 14.4844 22.5 15C22.5 15.5156 22.0781 15.9375 21.5625 15.9375Z" fill="#0096E6"/>
</svg>
