<svg width="164" height="162" viewBox="0 0 164 162" fill="none" xmlns="http://www.w3.org/2000/svg">
<g clip-path="url(#clip0)">
<path d="M95.8054 159.781C99.6198 157.17 102.876 153.608 104.982 149.495C107.039 145.444 108.043 140.552 107.083 136.042C106.094 131.274 103.396 126.991 99.633 123.913C96.2455 121.169 91.7267 119.374 87.3361 120.041C85.3426 120.334 83.5476 121.055 81.9225 122.282C80.5031 123.338 79.3479 124.739 78.469 126.26C76.4975 129.57 76.0105 133.562 77.0308 137.277C78.3289 141.956 82.7315 145.546 87.4214 146.366C89.9684 146.819 92.5802 146.685 95.0508 145.965C97.5379 145.224 99.8426 143.866 101.875 142.257C103.907 140.647 105.684 138.765 107.361 136.837C109.121 134.807 110.798 132.711 112.392 130.549C115.388 126.508 118.1 122.273 120.448 117.816C125.19 108.801 128.464 98.9158 129.586 88.7585C130.628 79.2103 129.658 69.4689 126.745 60.2959C123.844 51.2342 118.914 42.6378 112.182 35.8698C105.578 29.2379 97.3535 24.3771 88.3098 21.894C79.7896 19.5601 70.6142 19.3985 62.1359 21.918C60.1388 22.5111 58.2162 23.2648 56.3638 24.1422C54.9766 24.8188 55.1116 26.5109 55.8429 27.669C56.2974 28.3697 56.9208 29.0707 57.6919 29.4179C58.265 29.6742 59.0689 29.9804 59.674 29.6893C61.8104 28.6684 63.9884 27.8493 66.282 27.2238C67.4474 26.9091 68.6005 26.652 69.7742 26.4113C69.8277 26.3867 70.5444 26.2523 70.5485 26.2893C70.4373 26.3015 70.3468 26.3301 70.2355 26.3422C70.3468 26.3301 70.4373 26.3015 70.5485 26.2893C70.6968 26.2731 70.8616 26.2364 71.0099 26.2202C71.5824 26.139 72.1385 26.0783 72.7152 26.0341C75.0549 25.8163 77.3949 25.7673 79.7559 25.9035C80.341 25.9335 80.9096 25.9839 81.4783 26.0344C81.7255 26.0637 82.0098 26.089 82.2571 26.1183C82.4096 26.1391 82.562 26.16 82.731 26.1603C82.9205 26.1772 83.65 26.3226 82.8257 26.1687C83.955 26.3644 85.1171 26.5189 86.234 26.7721C88.5421 27.2705 90.8505 27.9377 93.0809 28.7447C93.3158 28.8316 93.5715 28.935 93.8271 29.0384C92.8707 28.7114 93.9261 29.0839 94.1611 29.1708C94.7136 29.4106 95.2825 29.6298 95.8392 29.9067C96.9278 30.4069 97.9999 30.9276 99.0392 31.4894C100.058 32.0347 101.048 32.6582 102.054 33.2612C101.085 32.6542 102.075 33.2777 102.297 33.4222C102.52 33.5667 102.743 33.7112 102.949 33.8762C103.477 34.2313 103.989 34.6068 104.484 35.003C105.408 35.7086 106.316 36.4349 107.174 37.2228C107.405 37.4414 107.653 37.6394 107.905 37.8746C107.987 37.9406 108.053 38.0271 108.156 38.1097C108.639 38.5634 107.525 37.5034 108.008 37.9571C108.491 38.4108 108.978 38.9016 109.444 39.3759C110.294 40.2584 111.112 41.1821 111.913 42.1263C112.305 42.6087 112.677 43.0745 113.069 43.5569C113.247 43.8001 113.445 44.0599 113.639 44.2825C113.726 44.3856 113.796 44.5092 113.883 44.6123C113.176 43.6765 113.705 44.3691 113.841 44.5793C115.291 46.6156 116.622 48.7587 117.792 50.9756C118.056 51.4907 118.342 52.0222 118.606 52.5373C118.677 52.6609 118.73 52.8051 118.78 52.9122C118.342 52.0222 118.631 52.5909 118.71 52.7886C118.838 53.0935 119.003 53.3943 119.132 53.6991C119.657 54.861 120.149 56.0639 120.605 57.2709C121.035 58.4244 121.45 59.5984 121.79 60.7804C121.968 61.3612 122.15 61.979 122.328 62.5598C122.415 62.8316 122.465 63.1075 122.552 63.3794C122.59 63.5441 122.627 63.7088 122.665 63.8736C122.802 64.4213 122.494 63.1981 122.665 63.8736C123.258 66.3034 123.708 68.7865 124.025 71.2652C124.188 72.5416 124.298 73.8427 124.387 75.1272C124.437 75.7406 124.451 76.3581 124.485 76.9921C124.498 77.272 124.511 77.552 124.524 77.8319C124.524 78.0007 124.524 78.1695 124.524 78.3383C124.55 78.8981 124.54 77.8114 124.524 78.3383C124.534 83.7391 123.901 89.0975 122.712 94.3478C122.381 95.7345 122.029 97.1046 121.657 98.4582C121.517 98.886 121.657 98.4582 121.669 98.4006C121.632 98.5734 121.558 98.7502 121.505 98.9436C121.411 99.2727 121.296 99.5854 121.202 99.9145C120.997 100.593 120.772 101.256 120.53 101.939C119.608 104.571 118.566 107.142 117.388 109.671C115.054 114.747 112.224 119.595 109.023 124.145C108.23 125.264 107.416 126.365 106.602 127.467C106.734 127.302 106.849 127.159 106.96 126.978C105.209 129.251 103.38 131.495 101.422 133.603C99.4486 135.731 97.2522 137.715 94.7335 139.172C94.9105 139.078 95.0875 138.983 95.2438 138.872C94.1326 139.5 92.9717 140.021 91.757 140.397C91.2135 140.569 90.6452 140.687 90.0768 140.806C89.6362 140.891 90.1716 140.814 90.2045 140.773C90.0975 140.822 89.8338 140.813 89.7061 140.846C89.3725 140.882 89.0553 140.898 88.7216 140.935C88.1614 140.958 87.634 140.941 87.086 140.907C86.9541 140.902 86.8016 140.882 86.6862 140.857C86.3071 140.823 87.3374 140.973 86.8016 140.882C86.4761 140.823 86.1505 140.765 85.8413 140.686C85.5899 140.62 85.3178 140.537 85.0664 140.471C84.9097 140.413 84.7695 140.334 84.617 140.313C84.6541 140.309 85.2891 140.615 84.8727 140.417C84.6335 140.293 84.3778 140.189 84.1387 140.066C83.9984 139.987 83.8582 139.909 83.718 139.83C83.1777 139.533 84.3698 140.284 83.8788 139.925C83.6725 139.76 83.4498 139.616 83.2229 139.434C83.1197 139.351 83.033 139.248 82.9299 139.166C83.7593 139.863 83.4788 139.706 83.3096 139.537C83.161 139.384 83.0124 139.232 82.8802 139.059C82.8142 138.972 82.7523 138.923 82.6862 138.836C82.3145 138.37 82.8802 139.059 82.9299 139.166C82.7397 138.811 82.496 138.482 82.3059 138.127C82.1199 137.81 82.6823 138.968 82.4796 138.502C82.4299 138.395 82.3803 138.288 82.3513 138.197C82.2727 138 82.1898 137.765 82.1276 137.547C82.1193 137.472 82.0738 137.402 82.0654 137.328C81.9368 136.855 82.2275 138.098 82.136 137.621C82.0944 137.419 82.0571 137.254 82.0155 137.052C81.9488 136.628 81.9192 136.2 81.8895 135.772C81.8641 135.381 81.8902 136.109 81.8902 136.109C81.8447 136.039 81.8979 135.846 81.906 135.751C81.9221 135.562 81.9176 135.356 81.9338 135.167C81.9783 134.731 82.0228 134.294 82.125 133.871C82.174 133.64 82.2231 133.41 82.2885 133.159C82.2966 133.064 82.3417 132.965 82.3498 132.871C82.3865 132.698 82.1573 133.492 82.3211 132.949C82.4768 132.5 82.649 132.031 82.8624 131.596C83.2687 130.707 83.7574 129.885 84.3452 129.108C84.2136 129.272 84.0985 129.416 83.9876 129.597C84.9206 128.389 86.06 127.345 87.3811 126.582C87.2041 126.676 87.0271 126.771 86.8707 126.882C87.3482 126.623 87.8298 126.402 88.3321 126.197C88.5667 126.115 88.8385 126.029 89.0732 125.947C89.2008 125.915 89.3449 125.861 89.4932 125.845C89.5838 125.817 90.1357 125.719 89.7485 125.78C89.3614 125.841 89.8433 125.788 89.9339 125.76C90.0822 125.743 90.2676 125.723 90.4158 125.707C90.733 125.691 91.0709 125.692 91.3881 125.676C91.6889 125.681 91.9896 125.685 92.2946 125.727C92.5212 125.74 93.0241 125.873 92.2369 125.715C92.3893 125.735 92.5624 125.773 92.7149 125.794C93.329 125.914 93.9473 126.072 94.5327 126.271C94.6316 126.316 95.2377 126.531 94.6894 126.329C94.1987 126.138 94.7306 126.362 94.8666 126.403C95.1635 126.539 95.4604 126.676 95.7409 126.833C96.0007 126.973 96.2811 127.13 96.5245 127.291C97.0689 127.626 95.9759 126.92 96.3636 127.196C96.4874 127.295 96.6276 127.374 96.772 127.489C97.2836 127.865 97.7994 128.277 98.278 128.694C98.6536 129.028 97.6424 128.051 98.1088 128.525C98.2161 128.645 98.3606 128.76 98.4679 128.88C98.7032 129.135 98.9179 129.375 99.1532 129.63C99.3678 129.869 99.529 130.133 99.7437 130.372C99.9377 130.595 99.4504 129.935 99.4339 129.956C99.4381 129.993 99.5455 130.113 99.5661 130.129C99.6776 130.286 99.7891 130.442 99.9007 130.599C100.244 131.143 100.57 131.708 100.88 132.293C101.12 132.754 100.553 131.559 100.806 132.132C100.86 132.276 100.93 132.4 100.984 132.544C101.116 132.886 101.249 133.228 101.36 133.553C101.468 133.842 101.559 134.151 101.63 134.443C101.638 134.517 101.684 134.587 101.692 134.661C101.7 134.735 101.538 133.965 101.592 134.278C101.613 134.464 101.671 134.645 101.713 134.847C101.842 135.489 101.917 136.156 101.956 136.827C101.977 137.012 101.96 137.202 101.981 137.387C101.994 137.667 101.985 137.086 101.968 137.107C101.96 137.202 101.969 137.276 101.977 137.35C101.982 137.724 101.95 138.103 101.917 138.482C101.853 139.239 101.768 139.98 101.608 140.729C101.523 141.132 101.453 141.515 101.347 141.901C101.318 141.98 101.289 142.058 101.298 142.132C101.237 142.42 101.449 141.646 101.31 142.074C101.257 142.268 101.2 142.424 101.146 142.617C100.88 143.415 100.572 144.181 100.207 144.933C99.4807 146.475 98.5728 147.906 97.5618 149.254C97.6933 149.09 97.8084 148.946 97.9193 148.765C96.1026 151.121 93.9146 153.179 91.4581 154.854C90.9519 155.19 90.8629 156.063 90.9257 156.618C91.0301 157.376 91.4642 158.229 91.9967 158.79C92.9338 159.776 94.4804 160.676 95.8054 159.781Z" fill="white"/>
<path d="M65.4294 29.4734C60.6033 28.6121 55.7773 27.7507 50.9348 26.9099C52.1368 28.5794 53.3388 30.2489 54.5614 31.9348C57.343 27.8237 60.1247 23.7126 62.8899 19.622C63.6952 18.4462 64.48 17.2539 65.2689 16.0987C65.54 15.6752 65.4733 15.2511 65.3077 14.7815C65.0592 14.0771 64.5264 13.3475 64.0309 12.7826C63.4984 12.2217 62.9041 11.6114 62.1907 11.2766C61.8938 11.1401 61.1392 10.7723 60.8638 11.1588C58.0822 15.2699 55.3005 19.381 52.5353 23.4716C51.73 24.6474 50.9452 25.8397 50.1563 26.9949C49.6263 27.7842 50.3825 28.9959 50.8656 29.6184C51.2002 30.0883 51.6048 30.5131 52.0464 30.9338C52.4467 31.3216 53.2058 31.8952 53.7993 31.9992C58.6253 32.8606 63.4513 33.7219 68.2938 34.5627C68.7142 34.6294 69.1261 34.622 69.2612 34.157C69.4128 33.6716 69.0447 32.9052 68.8133 32.5178C68.3917 31.7761 67.8631 31.0835 67.2194 30.5348C66.7036 30.1221 66.0805 29.5899 65.4294 29.4734Z" fill="white"/>
</g>
<defs>
<clipPath id="clip0">
<rect width="121.4" height="109.012" fill="white" transform="translate(95.7599 161.867) rotate(-141.338)"/>
</clipPath>
</defs>
</svg>
