<svg width="108" height="100" viewBox="0 0 108 100" fill="none" xmlns="http://www.w3.org/2000/svg">
<g clip-path="url(#clip0)">
<path d="M26.7049 3.83039C27.2113 4.02492 27.7358 4.24883 28.2366 4.46715C28.3681 4.54831 28.5052 4.60568 28.6423 4.66306C28.4157 4.5595 28.7081 4.70364 28.7794 4.72044C29.048 4.85898 29.2928 4.99192 29.5614 5.13045C30.5406 5.66221 31.503 6.2653 32.4248 6.93414C34.2502 8.24244 35.9008 9.76055 37.3639 11.4353C38.1891 12.4077 38.9556 13.4165 39.6577 14.4854C39.6214 14.4266 39.585 14.3678 39.5486 14.3091C41.7277 17.6333 43.2199 21.4233 43.7719 25.3684C44.3448 29.5443 43.9119 33.8348 42.6159 37.8467C41.8769 40.1325 40.8399 42.2979 39.5582 44.3303C39.5988 44.2646 39.6337 44.2226 39.6743 44.1569C38.3632 46.2075 36.7891 48.0958 34.9506 49.7211C34.1545 50.4372 33.2744 51.0834 32.3636 51.647C31.8935 51.9379 31.429 52.205 30.9407 52.4666C30.882 52.5029 30.8232 52.5393 30.7407 52.5701C30.7113 52.5882 30.5112 52.6917 30.6581 52.6008C30.7994 52.5337 30.6581 52.6008 30.6287 52.619C30.57 52.6554 30.5112 52.6917 30.4343 52.6987C30.181 52.8148 29.9278 52.9309 29.6746 53.0469C29.1737 53.2553 28.6728 53.4637 28.1538 53.6426C27.9062 53.7349 27.6641 53.8034 27.3927 53.8901C27.257 53.9335 27.1213 53.9768 26.9912 53.9964C26.9618 54.0146 27.4165 53.8957 27.2095 53.9223C27.1269 53.953 27.05 53.96 26.9674 53.9908C26.7254 54.0593 26.4596 54.1222 26.1994 54.1613C26.093 54.1865 25.9629 54.2061 25.8328 54.2256C25.7265 54.2508 25.1529 54.3416 25.6258 54.2522C26.0986 54.1627 25.6258 54.2522 25.5251 54.2536C25.3949 54.2731 25.2648 54.2927 25.111 54.3066C24.9808 54.3262 24.827 54.3402 24.6968 54.3597C24.5961 54.3611 25.4663 54.2899 25.1585 54.3178C25.0816 54.3248 24.9808 54.3262 24.9039 54.3332C24.7738 54.3528 24.6255 54.3429 24.4954 54.3625C24.4422 54.3751 24.3947 54.3639 24.3415 54.3765C24.0099 54.3988 25.2005 54.3528 24.8451 54.3696C24.7206 54.3653 24.6199 54.3667 24.4954 54.3625C24.4185 54.3695 24.3709 54.3583 24.2939 54.3653C23.8197 54.354 25.0648 54.3962 24.7444 54.3709C24.6199 54.3667 24.5192 54.3681 24.3947 54.3639C24.3233 54.3471 24.2702 54.3597 24.1988 54.3429C23.8015 54.3246 24.6675 54.3779 24.6437 54.3723C24.3765 54.3345 24.1275 54.3261 23.8603 54.2883C23.5161 54.2574 24.1988 54.3429 24.175 54.3373C24.1275 54.3261 24.0323 54.3037 23.9792 54.3163C23.8603 54.2883 23.7596 54.2896 23.6406 54.2616C23.5217 54.2336 23.4266 54.2113 23.3077 54.1833C23.2126 54.1609 22.7369 54.0489 23.0699 54.1273C23.4266 54.2113 22.9985 54.1105 22.9272 54.0937C22.8083 54.0657 22.6712 54.0083 22.5523 53.9803C22.2963 53.8949 22.0641 53.8151 21.8375 53.7116C21.7004 53.6542 21.5633 53.5968 21.4262 53.5394C21.3367 53.4933 20.9548 53.3029 21.2415 53.4709C20.9967 53.3379 20.7463 53.2288 20.5309 53.0776C20.0469 52.788 19.5685 52.4746 19.1251 52.1192C18.2383 51.4084 17.4676 50.5241 16.8144 49.5671C16.8507 49.6259 16.8871 49.6846 16.9235 49.7434C14.3919 45.784 14.6781 40.7311 16.3854 36.4646C16.8893 35.1776 17.5539 33.9537 18.2844 32.7703C18.2438 32.836 18.2088 32.878 18.1682 32.9437C20.3791 29.5237 23.4544 26.9096 27.0193 24.988C27.2487 24.8663 27.4782 24.7446 27.6783 24.6412C27.8489 24.5558 27.4782 24.7446 27.6545 24.6356C27.7076 24.623 27.7426 24.581 27.7958 24.5684C27.9371 24.5013 28.049 24.4524 28.1903 24.3852C28.6674 24.1713 29.1445 23.9573 29.616 23.7671C30.6121 23.3742 31.597 23.0288 32.6239 22.7184C32.7064 22.6876 33.1317 22.587 32.8128 22.6625C32.4882 22.7617 32.9191 22.6373 33.0016 22.6065C33.2675 22.5436 33.5333 22.4807 33.7991 22.4178C34.3069 22.2864 34.8329 22.1844 35.3296 22.1005C35.4597 22.0809 35.5898 22.0614 35.6961 22.0362C35.9563 21.9971 35.282 22.0893 35.3534 22.1061C35.4303 22.0991 35.4835 22.0865 35.5604 22.0795C35.8206 22.0404 36.1046 22.0069 36.3648 21.9678C36.6251 21.9286 36.8559 21.9077 37.1161 21.8686C37.2462 21.849 37.3707 21.8532 37.5008 21.8336C37.7079 21.8071 38.0101 21.8029 37.0923 21.863C37.1693 21.856 37.2462 21.849 37.2994 21.8364C37.838 21.7875 38.3472 21.7568 38.8802 21.7317C39.2356 21.715 38.045 21.761 38.4004 21.7443C38.4535 21.7317 38.5011 21.7429 38.5543 21.7303C38.6788 21.7345 38.8089 21.7149 38.9334 21.7192C39.2118 21.7094 39.4846 21.7234 39.763 21.7137C39.9113 21.7235 40.4387 21.7222 39.7868 21.7193C39.1404 21.6926 39.6623 21.7151 39.8105 21.7249C40.1071 21.7445 40.3855 21.7348 40.6821 21.7544C40.9549 21.7684 41.916 21.8441 40.8304 21.7642C41.1032 21.7783 41.3704 21.8161 41.6432 21.8301C42.1832 21.882 42.6882 21.9758 43.2282 22.0276C43.2757 22.0388 42.6224 21.9352 42.8896 21.973C42.961 21.9898 43.0323 22.0066 43.1093 21.9996C43.2282 22.0276 43.3527 22.0318 43.4954 22.0654C43.7626 22.1032 44.0242 22.1648 44.3151 22.2082C44.8439 22.3076 45.3434 22.4252 45.8666 22.5484C45.9617 22.5708 46.366 22.666 46.0568 22.5932C45.7476 22.5204 46.1519 22.6156 46.2471 22.638C46.5087 22.6996 46.7647 22.785 47.0444 22.876C48.0503 23.1881 49.0505 23.524 50.0395 23.9075C50.5221 24.0964 51.0229 24.3147 51.4999 24.5274C51.637 24.5848 51.7741 24.6422 51.9056 24.7233C51.9951 24.7695 52.1979 24.8675 51.9951 24.7695C52.2637 24.9081 52.5379 25.0228 52.7827 25.1557C54.7285 26.1661 56.5819 27.3555 58.3542 28.6764C61.8638 31.3601 64.9425 34.5949 67.4811 38.2046C67.8014 38.6565 68.1217 39.1084 68.4126 39.5785C68.3762 39.5197 68.3399 39.461 68.3035 39.4022C71.905 44.8936 74.3481 51.0409 75.651 57.4469C77.1188 64.6447 77.1737 72.087 76.2605 79.3768C75.7367 83.5203 74.8981 87.6149 73.7979 91.6479C73.7363 91.9094 74.675 92.0803 74.6988 92.0859C75.394 92.2245 76.1592 92.2791 76.8643 92.2695C77.5694 92.2598 78.3277 92.2375 79.0188 92.074C79.2846 92.011 79.8288 91.9384 79.9016 91.6292C82.1747 83.2541 83.382 74.5026 82.8418 65.8165C82.3464 57.7935 80.3177 49.8864 76.4632 42.8043C72.8828 36.2637 67.8544 30.4363 61.5176 26.4344C54.6843 22.0896 46.6167 20.2151 38.5601 20.4265C30.7468 20.6701 22.7024 22.6413 16.5448 27.7926C14.0138 29.9074 12.0128 32.649 10.6554 35.6425C9.35532 38.4989 8.65257 41.6968 9.07459 44.8081C9.47284 47.9138 11.1134 50.8602 13.6285 52.7576C17.1017 55.3826 21.7 55.7876 25.8816 55.6176C29.8855 55.4559 33.8419 54.4297 37.341 52.4676C40.5519 50.6635 43.188 47.9961 45.2141 44.9341C49.5407 38.4983 51.236 30.3386 49.3835 22.749C47.6694 15.7443 43.0496 9.46091 36.9464 5.63944C35.3686 4.66553 33.6857 3.8175 31.9819 3.16533C31.4279 2.9596 30.734 2.92171 30.1647 2.88805C29.3938 2.85715 28.5642 2.86261 27.813 2.96182C27.3989 3.01491 26.7176 3.03019 26.414 3.3603C26.1327 3.59527 26.4727 3.75061 26.7049 3.83039Z" fill="#0096E6"/>
<path d="M67.3518 80.1153C69.1867 83.8354 71.0216 87.5554 72.8327 91.2699C73.3627 92.3234 73.869 93.3713 74.3935 94.4485C74.6186 94.878 75.0327 95.2516 75.3572 95.579C75.8258 96.0407 76.3531 96.4661 76.8973 96.8201C77.268 97.058 77.6624 97.3015 78.0681 97.4974C78.1814 97.5492 78.9032 97.8948 79.0837 97.6612C82.8477 92.5487 86.5823 87.4544 90.3463 82.3419C91.4111 80.9109 92.4578 79.4506 93.5226 78.0197C93.7087 77.7623 93.2149 77.1942 93.1184 77.0711C92.6722 76.5143 92.0903 76.0008 91.5392 75.5698C90.9643 75.1332 90.3656 74.6911 89.7039 74.4098C89.5011 74.3118 88.8744 73.9886 88.6883 74.246C84.9243 79.3585 81.1897 84.4528 77.4258 89.5653C76.3609 90.9963 75.3143 92.4566 74.2495 93.8875C75.8287 94.9622 77.3842 96.0312 78.9635 97.1058C77.1286 93.3858 75.2937 89.6657 73.4826 85.9512C72.9526 84.8978 72.4463 83.8499 71.9218 82.7726C71.6659 82.2606 71.084 81.7471 70.6881 81.4029C70.1062 80.8893 69.4712 80.3884 68.7843 80.0008C68.6053 79.9085 68.4025 79.8105 68.229 79.6944C67.9842 79.5614 67.7044 79.4704 67.4078 79.4508C67.0833 79.5501 67.2357 79.8621 67.3518 80.1153Z" fill="#0096E6"/>
</g>
<defs>
<clipPath id="clip0">
<rect width="90.7891" height="81.3565" fill="white" transform="translate(18.646) rotate(13.2493)"/>
</clipPath>
</defs>
</svg>
