<svg width="117" height="121" viewBox="0 0 117 121" fill="none" xmlns="http://www.w3.org/2000/svg">
<g clip-path="url(#clip0)">
<path d="M6.03384 72.5313C6.36846 72.0994 6.7367 71.6585 7.09263 71.2388C7.20907 71.1356 7.3042 71.02 7.39934 70.9045C7.23368 71.093 7.45756 70.8528 7.49447 70.7889C7.70605 70.5701 7.90533 70.3726 8.11691 70.1537C8.91401 69.3637 9.77504 68.6106 10.6877 67.9157C12.4794 66.5348 14.4227 65.3836 16.4627 64.4587C17.6401 63.945 18.8355 63.4986 20.0702 63.1317C20.003 63.1497 19.9357 63.1678 19.8685 63.1858C23.7072 62.0491 27.7956 61.7101 31.7607 62.3229C35.9546 62.9825 39.9669 64.6455 43.4601 67.0601C45.4501 68.4364 47.2376 70.065 48.8257 71.8912C48.7741 71.833 48.7438 71.7871 48.6921 71.7289C50.2893 73.5887 51.6536 75.655 52.6874 77.9C53.147 78.8757 53.5148 79.912 53.794 80.9541C53.9381 81.4919 54.0609 82.0175 54.1714 82.5643C54.1894 82.6315 54.2074 82.6988 54.2131 82.7873C54.2221 82.8209 54.2638 83.0439 54.2188 82.8758C54.1951 82.7201 54.2188 82.8758 54.2278 82.9095C54.2458 82.9767 54.2638 83.0439 54.2482 83.1201C54.2867 83.3981 54.3251 83.676 54.3635 83.9539C54.4191 84.4975 54.4747 85.041 54.4966 85.5936C54.5138 85.8592 54.5096 86.1125 54.5144 86.3994C54.5168 86.5429 54.5192 86.6864 54.5003 86.8175C54.5093 86.8512 54.5267 86.3781 54.4922 86.5855C54.4979 86.6741 54.4823 86.7503 54.488 86.8389C54.4838 87.0922 54.4673 87.3668 54.4296 87.6291C54.423 87.739 54.4041 87.8701 54.3852 88.0013C54.3786 88.1112 54.2997 88.6907 54.3507 88.2087C54.4016 87.7267 54.3507 88.2087 54.3228 88.3063C54.3039 88.4374 54.285 88.5686 54.2538 88.7211C54.2349 88.8522 54.2037 89.0047 54.1848 89.1359C54.1568 89.2334 54.3408 88.3735 54.2784 88.6784C54.2628 88.7547 54.2349 88.8522 54.2193 88.9285C54.2004 89.0596 54.1478 89.1998 54.1289 89.3309C54.1256 89.3859 54.101 89.4285 54.0977 89.4834C54.023 89.8097 54.3243 88.6481 54.2373 88.9957C54.1971 89.1145 54.1692 89.2121 54.1289 89.3309C54.1133 89.4072 54.0887 89.4498 54.0731 89.526C53.9246 89.9802 54.3267 88.7916 54.2094 89.0932C54.1692 89.2121 54.1412 89.3096 54.101 89.4285C54.0641 89.4924 54.0608 89.5474 54.0239 89.6113C53.891 89.9892 54.1938 89.1695 54.1815 89.1908C54.0674 89.4375 53.987 89.6752 53.873 89.9219C53.7433 90.2449 54.0239 89.6113 54.0116 89.6326C53.987 89.6752 53.9378 89.7605 53.9345 89.8154C53.873 89.9219 53.8451 90.0195 53.7835 90.1261C53.722 90.2326 53.6728 90.3179 53.6113 90.4244C53.5621 90.5097 53.316 90.9359 53.4883 90.6375C53.6728 90.3179 53.4513 90.7015 53.4144 90.7654C53.3529 90.8719 53.2578 90.9875 53.1963 91.0941C53.0396 91.3162 52.8953 91.517 52.7296 91.7055C52.6345 91.8211 52.5393 91.9366 52.4442 92.0522C52.3737 92.1251 52.0793 92.4382 52.3244 92.2104C52.1252 92.4079 51.9472 92.6177 51.7389 92.7816C51.3191 93.1643 50.8779 93.5347 50.4064 93.8592C49.4634 94.5082 48.3869 94.9948 47.2743 95.347C47.3415 95.329 47.4088 95.311 47.476 95.293C42.9224 96.5852 38.1321 94.8424 34.5128 91.9573C33.4179 91.0978 32.4304 90.1014 31.5011 89.0534C31.5527 89.1116 31.583 89.1575 31.6346 89.2158C28.9779 86.0907 27.3494 82.3658 26.5309 78.3698C26.4801 78.1132 26.4294 77.8566 26.3877 77.6336C26.3549 77.4442 26.4294 77.8566 26.3754 77.6549C26.3787 77.6 26.3483 77.554 26.3516 77.4991C26.3279 77.3433 26.3132 77.2212 26.2895 77.0654C26.2216 76.5432 26.1537 76.0209 26.1072 75.511C26.0174 74.4362 25.9702 73.386 25.9689 72.3055C25.9632 72.217 25.9895 71.7776 25.9698 72.1071C25.9713 72.449 25.9764 71.9973 25.9706 71.9087C25.9871 71.6341 26.0036 71.3595 26.0201 71.0849C26.0408 70.5569 26.0951 70.02 26.1583 69.5166C26.1772 69.3854 26.1961 69.2543 26.2027 69.1444C26.2405 68.8821 26.1337 69.5592 26.1707 69.4953C26.1863 69.4191 26.1895 69.3641 26.2051 69.2879C26.2429 69.0256 26.293 68.7419 26.3308 68.4796C26.3686 68.2173 26.4154 67.9886 26.4532 67.7263C26.4721 67.5951 26.5124 67.4762 26.5312 67.3451C26.5657 67.1377 26.6495 66.845 26.4409 67.7476C26.4565 67.6713 26.4721 67.5951 26.4754 67.5402C26.5846 67.0065 26.7029 66.5065 26.8334 65.9851C26.9204 65.6375 26.6191 66.7991 26.7062 66.4515C26.7095 66.3966 26.7341 66.354 26.7374 66.2991C26.7776 66.1802 26.7965 66.049 26.8367 65.9302C26.9081 65.6588 27.0008 65.3998 27.0722 65.1285C27.1247 64.9883 27.2766 64.4793 27.0845 65.1072C26.8712 65.7228 27.0443 65.226 27.0968 65.0859C27.2019 64.8055 27.2733 64.5342 27.3783 64.2538C27.471 63.9948 27.823 63.0899 27.4308 64.1137C27.5235 63.8546 27.6376 63.6079 27.7303 63.3489C27.937 62.8431 28.1741 62.3833 28.3809 61.8775C28.4055 61.8349 28.1159 62.4349 28.2299 62.1882C28.2668 62.1243 28.3038 62.0603 28.3194 61.9841C28.3809 61.8775 28.4211 61.7587 28.4949 61.6308C28.6089 61.3841 28.7443 61.1497 28.8706 60.8816C29.12 60.4005 29.3784 59.953 29.6491 59.4841C29.6983 59.3989 29.9075 59.0366 29.7475 59.3136C29.5875 59.5907 29.7967 59.2284 29.8459 59.1431C29.9813 58.9087 30.1379 58.6866 30.3069 58.4432C30.8999 57.5637 31.5142 56.6965 32.1711 55.854C32.4935 55.4434 32.8494 55.0237 33.193 54.6254C33.2881 54.5098 33.3833 54.3943 33.4997 54.291C33.5702 54.2181 33.7236 54.0509 33.5702 54.2181C33.7818 53.9993 33.9721 53.7681 34.1714 53.5706C35.7106 51.9872 37.3958 50.5449 39.1842 49.219C42.7914 46.6132 46.8049 44.5829 51.0232 43.1824C51.5521 43.0046 52.0809 42.8269 52.6187 42.6828C52.5515 42.7008 52.4843 42.7188 52.417 42.7368C58.7588 40.8574 65.3968 40.2856 71.9534 40.8885C79.3214 41.5622 86.5153 43.6697 93.2809 46.6665C97.1251 48.3746 100.831 50.3719 104.401 52.6037C104.635 52.7391 105.073 51.8833 105.085 51.862C105.421 51.2317 105.695 50.5095 105.891 49.8267C106.086 49.1439 106.285 48.4061 106.328 47.6921C106.344 47.4174 106.432 46.8715 106.155 46.7115C98.7373 42.088 90.6471 38.3832 82.1129 36.3827C74.2312 34.5316 66.0161 34.193 58.0669 35.8547C50.7193 37.4092 43.6394 40.5674 37.9402 45.5172C31.7662 50.8465 27.6164 58.0833 25.4816 65.915C23.4484 73.5213 23.0145 81.8521 26.1953 89.2862C27.5002 92.3412 29.5635 95.0669 32.0566 97.245C34.4342 99.3281 37.3144 100.934 40.4377 101.43C43.5486 101.948 46.8666 101.221 49.4266 99.3459C52.9665 96.758 54.6919 92.4406 55.7418 88.3583C56.7482 84.4498 56.9069 80.3361 56.0302 76.3917C55.2223 72.7712 53.4149 69.4546 51.0499 66.6116C46.0987 60.5705 38.7211 56.5668 30.8635 56.1503C23.61 55.7702 16.2089 58.4019 10.7516 63.1788C9.35423 64.418 8.04785 65.7948 6.92425 67.2488C6.56502 67.7234 6.32706 68.3816 6.12931 68.921C5.87575 69.6554 5.64021 70.4571 5.51781 71.2105C5.44881 71.6253 5.26578 72.2868 5.49601 72.6755C5.641 73.0149 5.88949 72.7322 6.03384 72.5313Z" fill="#0096E6"/>
<path d="M91.4068 55.473C95.5273 54.7832 99.6478 54.0934 103.756 53.4249C104.926 53.2195 106.084 53.0354 107.275 52.8423C107.754 52.7498 108.235 52.4589 108.645 52.2409C109.226 51.923 109.79 51.5379 110.289 51.1159C110.626 50.8274 110.975 50.5176 111.282 50.1832C111.365 50.089 111.908 49.4932 111.735 49.2513C107.897 44.137 104.067 39.0563 100.229 33.942C99.1582 32.4996 98.0536 31.0662 96.9826 29.6239C96.7884 29.3697 96.0972 29.681 95.9504 29.7383C95.2839 30.007 94.6197 30.4192 94.0441 30.8256C93.4561 31.2534 92.8559 31.7024 92.3925 32.2589C92.2392 32.4261 91.7455 32.9367 91.9397 33.1909C95.7779 38.3052 99.6071 43.3859 103.445 48.5002C104.516 49.9426 105.621 51.3759 106.692 52.8183C108.187 51.6071 109.669 50.4172 111.164 49.206C107.044 49.8958 102.923 50.5856 98.8151 51.2541C97.6451 51.4595 96.4875 51.6436 95.2963 51.8367C94.7282 51.9349 94.064 52.3471 93.6171 52.629C92.9529 53.0411 92.2855 53.5082 91.7123 54.0581C91.5712 54.204 91.4178 54.3712 91.2555 54.5048C91.0562 54.7023 90.8872 54.9457 90.7822 55.2261C90.7837 55.5679 91.1289 55.5115 91.4068 55.473Z" fill="#0096E6"/>
</g>
<defs>
<clipPath id="clip0">
<rect width="91.4431" height="81.9425" fill="white" transform="translate(0 79.1919) rotate(-60)"/>
</clipPath>
</defs>
</svg>
