<svg width="275" height="54" viewBox="0 0 275 54" fill="none" xmlns="http://www.w3.org/2000/svg">
<g clip-path="url(#clip0)">
<path d="M88.6588 0.0866774C88.6588 0.0866774 88.8341 15.3419 88.6588 22.3628C88.6588 26.1766 88.6588 28.7769 88.6588 31.6372C88.9217 38.8315 86.1182 51.4864 68.5091 51.4864C55.5432 51.4864 48.3594 41.8652 48.3594 31.6372C48.3594 27.9968 48.3594 25.2231 48.3594 21.5827C48.3594 15.6886 48.3594 2.94703 48.3594 2.42697H55.6308C55.6308 3.55377 55.6308 24.0096 55.6308 31.6372C55.6308 36.5779 58.0838 44.3788 68.5967 44.3788C79.1096 44.3788 81.5626 39.5249 81.5626 31.6372C81.5626 25.6565 81.5626 18.8957 81.5626 11.9615C81.5626 8.66774 81.5626 5.374 81.5626 2.42697C82.7015 2.42697 82.8768 2.42697 84.0156 2.42697C84.0156 4.24719 84.1909 24.0096 84.0156 31.6372C84.0156 36.0578 84.0156 46.7191 68.6843 46.7191C58.1714 46.7191 53.353 39.5249 53.353 31.6372C53.353 13.435 53.4406 12.6549 53.353 9.53451C53.353 8.84109 53.353 4.76726 53.353 4.76726H50.9C50.9 4.76726 50.9 25.1364 50.9 31.5506C50.9 39.4382 55.7184 49.0594 68.6843 49.0594C84.0156 49.0594 86.7315 38.5714 86.5563 31.5506C86.7315 23.923 86.5563 16.9888 86.5563 8.75441C86.5563 6.32745 86.5563 0 86.5563 0H79.2848C79.2848 0 79.2848 7.97432 79.2848 11.8748C79.2848 18.809 79.2848 25.5698 79.2848 31.5506C79.2848 35.6244 79.2848 41.8652 68.7719 41.8652C65.4429 41.8652 58.259 39.4382 58.259 31.5506C58.259 23.923 58.259 0 58.259 0L45.9064 0.0866774V1.47352C45.9064 1.47352 45.9064 2.86035 45.9064 4.68058C45.994 10.6613 45.9064 16.8154 45.9064 22.7095C45.9064 26.3499 45.9064 27.9968 45.9064 31.6372C45.9064 41.9518 53.1778 53.9133 68.5091 53.9133C85.5926 53.9133 91.1995 43.0787 91.1995 31.6372C91.1995 28.6902 91.1995 24.2697 91.1995 21.5827C91.2871 14.6485 91.1995 0 91.1995 0H88.6588V0.0866774Z" fill="white"/>
<path d="M122.3 0.0864258H109.247H106.881V24.0094C106.881 24.0094 107.232 24.0094 122.3 24.0094C131.937 24.0094 133.163 9.62094 122.3 9.62094C118.27 9.62094 114.328 9.62094 114.065 9.62094H111.612V19.2421H114.065C114.065 19.2421 114.065 13.4347 114.065 11.9612C116.168 11.9612 120.723 11.9612 122.3 11.9612C129.572 11.9612 129.572 21.5824 122.3 21.5824C115.554 21.5824 109.334 21.5824 109.247 21.5824C109.247 16.6418 109.247 6.06716 109.247 2.42671C112.488 2.34004 119.059 2.42671 122.3 2.42671C142.275 2.42671 142.362 31.2036 122.3 31.2036H111.7V49.0591V51.4861H104.516V0.0864258H102.063V49.0591V53.9131H114.065V33.7172C115.554 33.7172 122.212 33.7172 122.3 33.7172C145.428 33.7172 145.604 0.0864258 122.3 0.0864258Z" fill="white"/>
<path d="M184.063 41.9518C184.063 41.9518 167.418 41.9518 161.285 41.9518V36.0578H158.832V44.3788C158.832 44.3788 177.493 44.3788 181.61 44.3788V46.3724C181.61 46.4591 181.698 48.9727 181.61 51.573C181.61 51.573 181.61 51.573 151.561 51.573V0.17334H149.108V13.435C149.108 24.183 149.108 35.0176 149.108 45.7656V54H150.51H153.05C153.05 54 179.946 54 180.121 54H183.976V52.6998C184.063 50.7062 183.976 44.5522 183.976 44.1188V41.9518H184.063Z" fill="white"/>
<path d="M230.671 33.1974L228.48 34.2375C228.48 34.2375 235.401 47.6725 237.329 51.573H229.619L219.106 31.2905H208.856V49.1461V51.573C206.841 51.573 203.687 51.573 201.585 51.573C201.585 50.8796 201.585 0.17334 201.585 0.17334H199.132V54H200.446C201.848 54 211.222 54 211.222 54V49.2327V33.7175H217.529L228.305 53.9133H241.096L239.869 51.4863C239.694 50.9663 230.671 33.1974 230.671 33.1974Z" fill="white"/>
<path d="M179.245 33.7176V21.6694C179.245 21.6694 164.439 21.6694 161.285 21.6694C161.285 21.6694 161.285 21.3227 161.285 7.28097C162.424 7.28097 179.245 7.28097 179.245 7.28097V4.854H158.832V24.0097H176.792C176.792 26.1766 176.792 31.2039 176.792 31.2039C165.753 31.2039 154.014 31.2039 154.014 31.2039V49.0595C154.014 49.0595 177.405 49.0595 179.245 49.0595V46.6325C177.493 46.6325 160.497 46.6325 156.467 46.6325C156.467 45.679 156.467 34.2376 156.467 33.5442H179.245V33.7176Z" fill="white"/>
<path d="M206.491 2.51339C206.491 2.51339 214.288 2.51339 219.106 2.51339C233.912 2.42671 237.504 19.5022 230.408 26.6097C229.094 27.9099 228.393 28.5166 226.378 29.5567C224.45 30.5102 221.91 31.377 221.91 31.377L231.109 49.2325H233.737L225.327 32.6771C242.322 28.5166 241.184 0.173103 219.282 0.259781L204.126 0.0864258V49.1458H206.579L206.491 2.51339Z" fill="white"/>
<path d="M154.014 25.3095V28.8633H174.427V26.4363C156.292 26.4363 160.147 26.4363 156.467 26.4363C156.467 26.4363 156.467 2.8601 156.467 2.51339H181.698V9.62094H163.738V12.0479C167.768 12.0479 184.151 12.0479 184.151 12.0479V0.0864258H154.102L154.189 2.25336C154.189 2.25336 154.189 2.51339 154.189 4.94036C153.926 12.2213 153.926 18.8954 154.014 25.3095Z" fill="white"/>
<path d="M219.106 7.19419C232.16 7.19419 232.686 26.3499 219.106 26.3499H208.856V28.7769H219.106C236.015 28.7769 235.314 4.8539 219.106 4.8539C216.653 4.68055 211.66 4.8539 211.309 4.8539H208.856V11.9614H219.106C226.29 11.9614 226.29 21.5826 219.106 21.5826C217.267 21.5826 216.215 21.5826 215.602 21.5826C214.989 21.5826 214.814 21.5826 214.814 21.5826C214.2 21.5826 213.061 21.5826 211.309 21.5826V16.7287H208.856V24.0096H219.106C229.532 24.0096 229.356 9.62116 219.106 9.62116C218.581 9.62116 211.747 9.62116 211.309 9.62116C211.309 8.66771 211.309 7.97429 211.309 7.19419C213.5 7.19419 219.106 7.19419 219.106 7.19419Z" fill="white"/>
<path d="M122.3 28.777C139.208 28.777 139.208 4.854 122.3 4.854C120.46 4.854 111.7 4.854 111.7 4.854V7.19429C111.7 7.19429 120.548 7.10762 122.3 7.19429C135.967 7.19429 135.792 26.35 122.3 26.35C121.336 26.35 106.881 26.35 106.881 26.35V49.0595H109.247C109.247 49.0595 109.247 31.2906 109.247 28.6903C109.247 28.777 121.336 28.777 122.3 28.777Z" fill="white"/>
<path d="M12.0022 4.1605C15.6817 2.68698 19.6241 2.51363 23.4788 3.64043C28.5601 4.94059 35.481 8.32101 35.481 8.32101L36.7076 5.98072C36.7076 5.98072 29.699 2.42695 24.2673 1.04011C19.7993 -0.26005 15.3313 -0.0866954 11.0385 1.64685C6.04492 3.55375 2.71583 7.36756 1.22651 12.9149C-0.525645 19.329 3.06626 25.4831 7.09621 28.5168C10.1625 30.8571 13.6668 32.1573 16.295 33.0241C17.9595 33.5441 19.7993 34.2375 21.3762 35.2777C22.6027 36.0578 23.0408 37.1846 22.778 39.0048C22.6903 39.6982 21.201 40.825 19.6241 40.825C16.8206 40.825 5.95731 36.9245 5.69449 36.8379L4.38038 36.3178L0 48.1059L1.22651 48.626C1.48933 48.7127 8.41032 51.7464 11.6518 52.6131C13.6668 53.2199 15.857 53.74 18.2224 53.74H18.31C26.3699 53.6533 31.8891 50.2729 34.8678 43.512C36.7076 39.2648 36.7076 32.4173 32.152 27.5634C30.0494 25.2231 27.2459 23.4895 23.5664 22.016C22.6027 21.6693 21.7267 21.3226 20.763 21.0626C19.3613 20.6292 18.1348 20.1958 16.8206 19.5891C15.7694 19.069 14.8933 18.4623 14.3676 17.5955C13.842 16.9021 13.7544 15.9486 14.1048 15.0818C14.4552 14.1284 15.3313 13.5217 16.295 13.3483C19.186 12.8282 21.9895 13.5217 25.231 14.7351C26.5451 15.2552 30.2246 16.642 30.2246 16.642L31.3635 17.0754L34.605 10.2279L33.2909 9.70785C33.028 9.62117 22.3399 3.90046 14.7181 5.63401C9.89965 6.32743 0 15.0818 10.2501 24.5297C12.7031 26.3499 15.3313 27.3034 17.9595 28.2568C18.5728 28.4302 19.186 28.6902 19.7993 28.8635C21.9895 29.6436 23.5664 30.4237 24.9681 31.3772C27.9468 33.3708 28.2972 36.3178 28.2096 37.878C28.0344 40.825 26.4575 43.4253 24.0921 44.6388C21.8143 46.0257 18.9232 46.7191 14.3676 45.3322C13.0535 44.9855 7.27142 43.0786 7.27142 43.0786L6.39535 45.5056C6.39535 45.5056 11.9146 47.4992 13.7544 47.9326C17.9595 48.9727 21.1134 49.2327 25.4062 47.0658C28.5601 45.4189 30.7502 41.8652 30.9255 38.0513C31.1007 34.4109 29.5237 31.2038 26.5451 29.2103C24.9681 28.1701 23.216 27.3034 20.8506 26.4366C20.2373 26.1765 19.6241 26.0032 19.0108 25.7432C16.4702 24.8764 14.1048 24.0096 12.0898 22.4494C3.59191 14.9952 12.3527 8.7544 15.5065 8.32101C19.0984 7.62759 22.4275 8.49436 25.0558 9.36114C26.4575 9.79453 29.4361 11.008 31.1007 11.7014L30.137 13.7817C28.9105 13.3483 27.1583 12.6549 26.2823 12.3082C23.1284 11.0947 19.6241 10.1412 15.9446 10.748C14.0172 11.0947 12.4403 12.3082 11.6518 14.1284C10.9509 15.8619 11.1262 17.7688 12.1774 19.2424C13.0535 20.4558 14.1924 21.3226 15.6817 22.1027C17.0835 22.7961 18.4852 23.2295 19.8869 23.6629C20.763 24.0096 21.6391 24.2696 22.5151 24.6164C25.8442 25.9165 28.2972 27.4767 30.137 29.4703C33.6413 33.2841 33.9041 39.0048 32.3272 42.5586C29.7866 48.366 25.231 51.1396 18.2224 51.2263C13.0535 50.9663 5.51927 47.6725 3.41669 46.8058L5.95731 39.9582C7.53425 40.565 15.5941 43.8587 19.5365 43.6854C22.3399 43.5987 25.0558 41.6918 25.4062 39.5249C25.8442 36.6645 24.9681 34.4976 22.778 33.1974C20.9382 32.0706 18.9232 31.2905 17.0835 30.6838C13.404 29.4703 10.8633 28.2568 8.67314 26.6099C5.43167 23.8363 2.45301 18.809 3.85473 13.6083C5.16884 8.84107 7.79707 5.80737 12.0022 4.1605Z" fill="white"/>
<path d="M263.611 53.9997C263.261 53.9997 262.91 53.9997 262.735 53.9997H261.333V49.0591C261.333 49.0591 261.333 27.4765 261.333 17.7686V16.3818H264.049V17.7686C264.049 27.3898 264.049 49.0591 264.049 49.0591V51.3128C266.239 51.3128 270.094 51.3128 272.197 51.3128C272.197 51.0527 272.197 50.706 272.197 50.3593C272.197 50.0126 272.197 49.3192 272.197 49.3192C272.197 49.0591 272.197 18.8954 272.197 3.98691V3.03346H266.677C264.838 4.24694 257.917 8.84084 255.551 10.3144V13.9548C257.128 12.9147 259.932 11.0078 264.662 7.71403L265.013 7.454H269.656V49.2325H266.852V10.141H265.889C255.989 16.9018 254.938 17.5086 254.85 17.5953L252.748 18.8954V8.58081L253.449 8.14742C254.237 7.71403 261.07 3.20681 265.451 0.346458L265.801 0.0864258H275V3.81355C274.912 18.7221 275 48.8858 275 49.1458C275 49.1458 275 49.8392 275 50.0993C275 51.9195 275 52.5262 275 52.5262V53.9131H273.598C273.686 53.9997 266.414 53.9997 263.611 53.9997Z" fill="white"/>
<path d="M258.092 18.7219H263.436V16.4683H261.421L258.092 18.7219Z" fill="white"/>
</g>
<defs>
<clipPath id="clip0">
<rect width="275" height="54" fill="white"/>
</clipPath>
</defs>
</svg>
