<?xml version="1.0" encoding="UTF-8"?>
<svg xmlns="http://www.w3.org/2000/svg" version="1.1" viewBox="0 0 535 364">
  <defs>
    <style>
      .cls-1 {
        fill: #fff;
      }
    </style>
  </defs>
  <!-- Generator: Adobe Illustrator 28.7.1, SVG Export Plug-In . SVG Version: 1.2.0 Build 142)  -->
  <g>
    <g id="Layer_1">
      <g id="Layer_1-2" data-name="Layer_1">
        <g id="Layer_1-2">
          <g>
            <path class="cls-1" d="M125.9,70c2.6.8,5.3,1.9,7.8,3.3.8.4,1.6.8,2.2,1.2.7.3,1.2.4,1.6.4s1.2-.4,1.6-1.2c.4-.8.7-2.1.9-3.8h2.6c-.4,5.4-.6,14.5-.6,27.4h-2.6c-.3-4.3-1.3-8.4-3-12.2-1.6-3.9-3.9-7.1-6.7-9.6-2.9-2.5-6.2-3.7-9.9-3.7s-6.2.9-8.3,2.8c-2.1,1.8-3.1,4.4-3.1,7.7s.6,4.8,1.7,6.7,2.8,3.7,4.9,5.4,5.8,4.4,10.7,7.8c.4.2.9.5,1.3.8s.8.6,1.2.9c4.1,2.9,7.4,5.4,9.9,7.6,2.5,2.2,4.5,4.8,6,7.7,1.6,3,2.3,6.3,2.3,10.1s-1.4,9-4.1,12.3-6.4,5.8-11.1,7.5-9.8,2.5-15.4,2.5-8.4-.4-11.4-1.2c-3-.7-5.9-1.7-8.5-3-1.6-1.1-3-1.6-3.9-1.6s-1.2.4-1.6,1.2c-.4.8-.7,2.1-.9,3.8h-2.6c.3-5.1.4-16,.4-32.7h2.6c.5,9,2.4,16.2,5.7,21.8,3.2,5.6,8.2,8.3,14.9,8.3s7.4-1,9.9-3c2.5-2,3.7-4.7,3.7-8.1s-1.3-8-4-11c-2.6-3-6.8-6.4-12.4-10.2-4.5-3-8.1-5.7-10.8-7.9-2.7-2.2-4.9-4.8-6.7-7.8-1.7-3-2.6-6.4-2.6-10.3s1.3-8.7,3.9-11.9c2.5-3.2,5.9-5.6,10.2-7.1,4.3-1.6,8.9-2.3,13.9-2.3s7.7.4,10.4,1.2v.2h0Z"/>
            <path class="cls-1" d="M225.8,92.7c0,3.5,0,6.2.3,8.1h-2.6c-2.5-9.9-5.7-16.9-9.6-21.3s-8.1-6.6-12.7-6.6h0v64.4c0,3.1.3,5.4,1,6.9.7,1.4,1.8,2.4,3.5,2.9,1.7.5,4.4.7,8.1.7v2.2c-10.6-.2-18.8-.3-24.6-.3s-13.1,0-23.2.3v-2.2c3.7,0,6.3-.2,8.1-.7,1.7-.5,2.9-1.5,3.5-2.9.7-1.4,1-3.7,1-6.9v-64.4h0c-4.6,0-8.8,2.1-12.7,6.5s-7.1,11.4-9.5,21.4h-2.6c.2-2,.3-4.7.3-8.1,0-6.6-.2-14-.8-22.3,7.1.2,19.4.3,36.8.3s29.6,0,36.7-.3c-.5,8.3-.8,15.8-.8,22.3h.2Z"/>
            <path class="cls-1" d="M300.8,70.3v2.2c-3.9,1.9-7.8,6.9-11.9,15l-10.4,20.7v30c0,2.9.2,4.9.7,6.2.4,1.3,1.2,2.1,2.2,2.6,1.1.4,2.8.7,5.2.9v2.2c-4.4-.2-10.8-.3-19.4-.3s-15.4,0-19.5.3v-2.2c2.4-.2,4.1-.4,5.3-.9,1.1-.4,1.8-1.3,2.2-2.6.4-1.3.6-3.4.6-6.2v-20.7l-20.9-38.5c-1.2-2.1-2.4-3.8-3.5-4.8-1.2-1-2.1-1.6-3-1.6v-2.4c4.7.4,9.9.7,15.5.7s14.7-.2,24.8-.7v2.4c-3,0-5.3.2-6.7.4-1.5.3-2.2,1-2.2,2.1s.2,1.1.4,1.7l16.1,30.9,5.1-10.1c3.5-7.1,5.3-12.7,5.3-16.8s-3-8.1-9-8.3v-2.2c5.7.2,10.5.3,14.8.3s6.4,0,8.7-.3h-.2,0Z"/>
            <path class="cls-1" d="M344.9,72.6c-2.7.2-4.7.4-5.9.9-1.2.4-2.1,1.3-2.5,2.6-.4,1.3-.7,3.4-.7,6.2v58.1c0,2.1.2,3.6.4,4.6.3,1,.8,1.6,1.6,2s2,.5,3.7.5h3.7c2.6,0,5.5-1.3,8.5-3.9,3-2.6,5.8-6.1,8.3-10.4s4.1-8.8,4.9-13.5h2.6c-.2,2.7-.3,6.2-.3,10.4,0,8.1.2,14.8.8,20-5.1-.2-13.7-.3-25.8-.3-17.6,0-30.7,0-39.4.3v-2.2c2.4-.2,4.1-.4,5.3-.9,1.1-.4,1.8-1.3,2.2-2.6.4-1.3.6-3.4.6-6.2v-55.9c0-2.9-.2-4.9-.7-6.2-.4-1.3-1.2-2.1-2.2-2.6-1.1-.4-2.8-.7-5.2-.9v-2.2c4.3.2,10.9.3,20,.3s15.3,0,20-.3v2.2h0Z"/>
            <path class="cls-1" d="M440.6,150.1c-5.1-.2-13.7-.3-25.8-.3-17.6,0-30.7,0-39.4.3v-2.2c2.4-.2,4.1-.4,5.3-.9,1.1-.4,1.8-1.3,2.2-2.6.4-1.3.6-3.4.6-6.2v-55.9c0-2.9-.2-4.9-.7-6.2-.4-1.3-1.2-2.1-2.2-2.6-1.1-.4-2.8-.7-5.2-.9v-2.2c8.7.2,21.9.3,39.4.3s18.9,0,23.6-.3c-.5,7.1-.8,13.4-.8,18.9s0,6.2.3,8.1h-2.6c-1.3-8.7-3.9-15-7.6-18.7-3.7-3.8-8.1-5.7-13.1-5.7h-1.5c-2.1,0-3.5.2-4.4.5s-1.6,1-1.9,1.9c-.3.9-.5,2.5-.5,4.7v28.8h1.2c3.9,0,7.2-1.6,10-4.6,2.8-3,4.5-6.5,5.3-10.3h2.6c-.2,3.1-.3,6.7-.3,10.6v5.4c0,3.9.2,9.2.7,16h-2.6c-.7-4.3-2.4-7.8-5.3-10.7s-6.3-4.2-10.4-4.2h-1.2v29.2c0,2.2.2,3.7.5,4.7.3.9,1,1.6,1.9,1.9.9.3,2.4.5,4.4.5h3.7c4.4,0,8.5-2.1,12.4-6.3,3.9-4.3,6.7-11,8.3-20.3h2.6c-.2,2.7-.3,6.2-.3,10.4,0,7.6.2,14,.8,18.9h0Z"/>
            <path class="cls-1" d="M114.8,166.8c3.1,1.3,6.2,3,9.2,5.4.7.7,1.5,1,2.1,1,1.5,0,2.5-2.2,3-6.7h2.6c-.3,5.3-.4,14.7-.4,28.2h-2.6c-.5-6-1.5-10.8-3-14.2-1.4-3.5-3.9-6.3-7.4-8.7-3.5-2.2-7-3.4-10.4-3.4-7.8,0-13.3,3.8-16.4,11.3-3.1,7.5-4.8,16.5-4.8,26.9s1.6,19.4,4.8,26.9c3.1,7.5,8.6,11.3,16.4,11.3s7-1.2,10.4-3.4c3.5-2.1,6-5.1,7.4-8.8s2.4-8.9,3-15.7h2.6c0,14,.2,23.8.4,29.2h-2.6c-.2-2.4-.6-4.1-1-5.1s-1-1.6-1.7-1.6-1.4.3-2.4.9c-3.4,2.4-6.6,4.2-9.7,5.4-3,1.2-6.8,1.9-11.2,1.9-8.5,0-15.9-1.6-22.3-4.8-6.4-3.2-11.3-7.9-14.9-14-3.5-6.1-5.3-13.4-5.3-21.9s1.8-15.6,5.4-21.9c3.6-6.4,8.6-11.3,15.1-14.9s13.8-5.3,22.1-5.3,8.3.7,11.5,1.9h0Z"/>
            <path class="cls-1" d="M222.4,169.6c-1.1.4-1.8,1.3-2.2,2.6-.4,1.3-.6,3.4-.6,6.2v55.9c0,2.9.2,4.9.7,6.2.4,1.3,1.2,2.1,2.2,2.6,1.1.4,2.8.7,5.2.9v2.2c-4-.2-10.4-.3-18.9-.3s-15.3,0-20,.3v-2.2c2.4-.2,4.1-.4,5.3-.9,1.1-.4,1.8-1.3,2.2-2.6s.6-3.4.6-6.2v-27h-25.3v27c0,2.9.2,4.9.7,6.2.4,1.3,1.2,2.1,2.2,2.6,1.1.4,2.8.7,5.2.9v2.2c-4.4-.2-10.6-.3-18.8-.3s-15.8,0-20,.3v-2.2c2.4-.2,4.1-.4,5.3-.9,1.1-.4,1.8-1.3,2.2-2.6s.6-3.4.6-6.2v-55.9c0-2.9-.2-4.9-.7-6.2-.4-1.3-1.2-2.1-2.2-2.6-1.1-.4-2.8-.7-5.2-.9v-2.2c4.3.2,10.9.3,20,.3s14.4,0,18.8-.3v2.2c-2.4.2-4.2.4-5.3.9-1.1.4-1.8,1.3-2.2,2.6-.4,1.3-.6,3.4-.6,6.2v26.6h25.3v-26.6c0-2.9-.2-4.9-.7-6.2-.4-1.3-1.2-2.1-2.2-2.6-1.1-.4-2.8-.7-5.2-.9v-2.2c4.7.2,11.3.3,20,.3s14.9,0,18.9-.3v2.2c-2.4.2-4.2.4-5.3.9h0Z"/>
            <path class="cls-1" d="M299.1,246.2c-5.1-.2-13.7-.3-25.8-.3-17.6,0-30.7,0-39.4.3v-2.2c2.4-.2,4.1-.4,5.3-.9,1.1-.4,1.8-1.3,2.2-2.6s.6-3.4.6-6.2v-55.9c0-2.9-.2-4.9-.7-6.2-.4-1.3-1.2-2.1-2.2-2.6-1.1-.4-2.8-.7-5.2-.9v-2.2c8.7.2,21.9.3,39.4.3s18.9,0,23.6-.3c-.5,7.1-.8,13.4-.8,18.9s0,6.2.3,8.1h-2.6c-1.3-8.7-3.9-15-7.6-18.7s-8.1-5.7-13.1-5.7h-1.5c-2.1,0-3.5.2-4.4.5-.9.3-1.6,1-1.9,1.9s-.5,2.5-.5,4.7v28.8h1.2c3.9,0,7.2-1.6,10-4.6,2.8-3,4.5-6.5,5.3-10.3h2.6c-.2,3.1-.3,6.7-.3,10.6v5.4c0,3.9.2,9.2.7,16h-2.6c-.7-4.3-2.4-7.8-5.3-10.7s-6.3-4.2-10.4-4.2h-1.2v29.2c0,2.2.2,3.7.5,4.7.3.9,1,1.6,1.9,1.9.9.3,2.4.5,4.4.5h3.7c4.4,0,8.5-2.1,12.4-6.3,3.9-4.3,6.7-11,8.3-20.3h2.6c-.2,2.7-.3,6.2-.3,10.4,0,7.6.2,14,.8,18.9h0Z"/>
            <path class="cls-1" d="M362.1,166.8c3.1,1.3,6.2,3,9.2,5.4.7.7,1.5,1,2.1,1,1.5,0,2.5-2.2,3-6.7h2.6c-.3,5.3-.4,14.7-.4,28.2h-2.6c-.5-6-1.5-10.8-3-14.2-1.4-3.5-3.9-6.3-7.4-8.7-3.5-2.2-7-3.4-10.4-3.4-7.8,0-13.3,3.8-16.4,11.3-3.1,7.5-4.8,16.5-4.8,26.9s1.6,19.4,4.8,26.9c3.1,7.5,8.6,11.3,16.4,11.3s7-1.2,10.4-3.4c3.5-2.1,6-5.1,7.4-8.8s2.4-8.9,3-15.7h2.6c0,14,.2,23.8.4,29.2h-2.6c-.2-2.4-.6-4.1-1-5.1s-1-1.6-1.7-1.6-1.4.3-2.4.9c-3.4,2.4-6.6,4.2-9.7,5.4-3,1.2-6.8,1.9-11.2,1.9-8.5,0-15.9-1.6-22.3-4.8-6.4-3.2-11.3-7.9-14.9-14-3.5-6.1-5.3-13.4-5.3-21.9s1.8-15.6,5.4-21.9c3.6-6.4,8.6-11.3,15.1-14.9s13.8-5.3,22.1-5.3,8.3.7,11.5,1.9h0Z"/>
            <path class="cls-1" d="M467.6,241.2c1,1,2.2,2,3.9,2.8v2.2c-6.3-.2-13.1-.3-20.3-.3s-10.9,0-16.1.3v-2.2c2.4-.2,4.1-.3,5-.7.9-.2,1.4-.7,1.4-1.6s-.4-1.7-1.2-3l-16.3-27.6c-1.1-1.8-2-3-2.6-3.7-.7-.7-1.6-1.1-2.6-1.2v27.9c0,2.9.2,4.9.7,6.2.4,1.3,1.2,2.1,2.2,2.6,1.1.4,2.8.7,5.2.9v2.2c-4.4-.2-10.6-.3-18.8-.3s-15.8,0-20,.3v-2.2c2.4-.2,4.1-.4,5.3-.9,1.1-.4,1.8-1.3,2.2-2.6s.6-3.4.6-6.2v-55.9c0-2.9-.2-4.9-.7-6.2-.4-1.3-1.2-2.1-2.2-2.6-1.1-.4-2.8-.7-5.2-.9v-2.2c4.3.2,10.9.3,20,.3s14.4,0,18.8-.3v2.2c-2.4.2-4.2.4-5.3.9-1.1.4-1.8,1.3-2.2,2.6-.4,1.3-.6,3.4-.6,6.2v25.5c3-.2,5.9-1.3,8.8-3.4s6.3-5.3,10.4-10l3.9-4.3c3.3-3.8,4.9-7.1,4.9-10.1s-.9-3.9-2.6-5.3c-1.7-1.3-3.9-2.1-6.7-2.2v-2.1c6.3.2,12.7.3,19.1.3s8.4,0,11.3-.3v2.1c-6.6,1.7-12.7,5.8-18.5,12.4l-11,12.5,26.1,43.6c1.1,1.7,2.1,3.1,3,4.1h0Z"/>
          </g>
        </g>
        <g>
          <path class="cls-1" d="M90.7,274c-3.4,5.3-8.1,7.3-12.1,8.5,1.6,4.4-1.5,9-5.4,10.9-1.8.9-4.4,1.3-6.4,1-2.2-.4-3.8-1.7-3.8-4,0-4.7,6.2-7.4,12.7-9.2-.9-1.6-2.4-3-3.2-4.6-1.3-2.5-.9-5.2.9-7.3,1.7-2,5.8-3.2,7.6-1.6,2.1,1.9.2,5.6-1,6.2-1.1.5-2.4-.5-1.4-1.5,2.3-2.4,1.2-4.1-1.2-2.6-1.5,1-2.9,2.6-3.1,4.4-.3,2.5,1.8,4.4,3.2,6.5,3.8-1.1,8.5-2.9,11.4-7.8.6-1,2.3.2,1.7,1.2h0ZM76.4,283.1c-3.1.8-6.5,2-9,4-1.5,1.3-3.9,5.1-.3,5.2,4.4,0,10-4.4,9.3-9.2h0Z"/>
          <path class="cls-1" d="M129.3,274c-2.3,3.2-8.6,4.8-15.1,6.7-3.6,6.6-8.1,13.1-12.4,14.3-6.8,1.9-7.2-4.1-5.3-7.2,3.1-4.9,9.1-6.7,14.5-8.1,0,0,.2,0,.3,0,1.2-2.1,2.5-4.8,3.9-7.6-4.1,3.7-10.5,7.5-12,3.6-1.1-2.8,2.5-5.7,4.5-6.9,2.8-1.7,6-2.3,9.3-2,.2,0,.3,0,.5.2.2-.5.4-1,.6-1.4.7-1.9,3.3-.9,2.5,1.8-.7,2.3-2.8,6.5-5.2,11.2,1.7-.5,3.5-1,5.1-1.6,2.5-.9,5.4-2,7.2-4.1.8-.9,2.2.2,1.6,1.2h0ZM110,282c-6.4,2.1-12,4.7-12.2,9.7,0,1.8,3.3.8,4.5,0,3.2-2.4,5.6-6.1,7.6-9.6h0ZM115.4,269c-1.6.2-3.2.6-4.7,1.4-2.2,1.2-5,4.3-4.9,4.7,0,.4,1.6,0,2.4-.4,1-.4,1.9-1,2.8-1.6,1.6-1.2,3-2.6,4.4-4.1h0Z"/>
          <path class="cls-1" d="M131.3,271.3c-1.2,2.6-2.8,6.3-2.5,8.3.2,1.9,4.2,2.3,12.6-6.8.8-.9,1.9,0,1.2.9-6,7.6-13.5,11.1-15.7,8.2-2-2.5-.2-7.2,1.2-10.5,1.8-4.4,3.9-8.5,6.2-12.6,2.1-3.7,4.3-7.4,7.1-10.6,1.4-1.6,3.6.4,2.5,1.8-2.5,3.3-4.8,6.7-6.8,10.2-2.1,3.6-3.9,7.3-5.7,11.1h0Z"/>
          <path class="cls-1" d="M165.5,274.2c-3,3.9-12.3,12.3-16,7.9-1.9-2.2-.7-5.3.2-7.6v-.2c-3.2,2.9-7,4.9-8.5,1.6-1.4-3,1.9-5.8,3.9-7.5,2.7-2.1,5.7-2.8,8.6-.9h0c0-.2.2-.2.3-.4,1.1-1.5,3.8,0,2.5,1.8-1.2,1.7-2.4,3.5-3.4,5.4-.9,1.7-2.5,4.6-2.1,6.7.5,2,4.5-.4,5.5-1.1,3-1.8,5.4-4.4,7.6-7.1.7-1,2,.4,1.2,1.3h0ZM152.7,268.8c-2.1-1.2-5.2,1.4-6.5,2.7-.8.7-1.6,1.6-2.1,2.5-.2.4-.6,1-.5,1.6,0,.2.4,0,.7,0,3.2-1.4,6.1-3.9,8.5-6.7v-.2Z"/>
          <path class="cls-1" d="M188,274.5c-5.8,1.7-9.9-1.6-11.2-6-1.9,4.7-5.4,10.4-9.3,13.1-2.9,2-5.8,0-5-3.6.8-3.9,2.5-7.8,4.5-11.3,1.2-2.1,3.5,0,2.5,1.8-1.6,2.8-3,5.8-3.9,9-.2.7-.4,1.3-.5,2.1,0,.2.8,1.3,3.6-1.7,2.5-2.7,7.6-11,7.7-15.9,0-1.2,1.8-.3,1.8.8v.7h0c0,.3,0,.7-.2,1.1-.5,4.9,3,10.3,8.7,8.6,1.1-.3,2.3,1.1,1.2,1.4h0Z"/>
          <path class="cls-1" d="M213.1,274c-2.6,3.5-7,8.3-11.4,9.2-3.7.7-6.2-2.1-5.8-4.9.6-3.9,3.8-7.1,4.4-10.4,0-.2,0-1.3-1.2-.7-4,2.1-8.8,8.8-10.8,12-.7,1-3.1.3-2.7-1.7.8-3.5,2.9-8.6,5.2-11,1.6-1.6,3.3,1,2.5,1.8-1.2,1.3-2.1,2.8-2.9,4.6,3.7-4.5,8.8-9.2,11.3-7.7,1.8,1,2,3.5.7,6.5-.8,1.8-3.2,5.4-3.5,7.7,0,.7.3,2.2,2.1,2,3.5-.4,8-5.1,10.6-8.5.7-1,2.2.2,1.5,1.2h0Z"/>
          <path class="cls-1" d="M229.8,274.2c-2.8,1.3-6.2,1.8-8.7.5-2.1,5.4-7.7,10.5-10.4,5.6-1.2-2.3-.4-5.6.7-7.8,1.5-2.8,3.9-5,6.9-5.8.4,0,.9,0,1.3.5.2,0,.4,0,.6.2.5,0,.9.7,1.2,1.1.7,1.2.7,3,.2,4.7h0c1.6,1.5,5.1.7,7.1-.2,1.1-.5,2,.8.9,1.3h0ZM218.6,276c.3-.7.8-1.6,1.2-2.5-1.1-1.2-1.4-2.6-1.2-4.1-2.2,1.2-3.9,3.3-4.9,5.6-.5,1.2-.8,2.6-.8,3.9,0,3.5,4.5-.7,5.8-3h0Z"/>
          <path class="cls-1" d="M263.9,274c-5.8,6.5-13.8,11.5-16.8,7.3-.9-1.3-.7-3.7.6-6.1.9-1.8,2-3.5,2.9-5.4.5-1.1.5-1.9-1.1-1.2-5.1,2.1-7.6,10.3-11.1,9.8-.9-.2-2-1.2-1.3-3.1.7-2.1,1-3,1.4-4.2.2-.8-.8-.6-1.5-.2-3,1.6-4.8,3.9-6.6,6.8h0v.2c-.3,1.2-3.2.4-2.7-1.4.9-3.5,2.1-7.1,4.4-9.9,1.2-1.6,3.4.4,2.5,1.8-.8,1.3-1.7,2.6-2.3,4,1.9-2,4.2-3.6,6.8-4,1.2-.2,2.4,0,2.6,1.7.2,1.2-.5,2.4-.8,3.4,0,.2-.8,1.7-.7,1.9.7.9,4.6-8.5,11.3-9,2.1-.2,2.9,2.9,1.8,5.2-.9,1.9-2,3.7-2.9,5.5s-1.1,2.2-1.1,3.3,2.5.6,3.1.4c3.7-1.2,7.1-4.9,10.4-8.1.8-.7,2.1.4,1.2,1.4h-.2Z"/>
          <path class="cls-1" d="M302.4,274.2c-3.5,4.1-10.8,11-15,8.1-2.5-1.8-2.4-4.8-1.2-7.9-3.9,3.5-8.4,6.2-9.5,1.8-.8-3.2,2.1-6.8,4.2-8.8,1.8-1.8,3.3,1,2.5,1.8-1,1.1-1.9,2.2-2.7,3.5s-.8,1.3-1.1,2.1c-.2.6-.3,1.8.6,1.4.8-.3,1.4-.7,2.1-1.2,3-2.1,5.8-4.8,8.2-7.7.2-.2.3-.4.5-.6,1.4-1.6,3.5.5,2.5,1.8-1.4,1.8-2.7,3.8-3.6,5.8-.7,1.4-2.4,5.3-.9,6.7,1.6,1.4,5.1-1.4,6.2-2.3,2.1-1.6,3.9-3.6,5.7-5.6.8-.9,2.1.3,1.4,1.2h0Z"/>
          <path class="cls-1" d="M303.4,274.3c-.5,1.4-2.8,7.1-3.4,8.8-.4,1.2-3.3.7-2.7-1.4,1-3.5,4.4-12.7,6.6-15.2,1.4-1.6,3.5.3,2.5,1.8s-.7.9-1.1,1.4c3.4-2.5,7.7-3.7,9.4-1.6,1.3,1.6-.5,1.9-1.6.8-2.1-1.8-7.8,2.5-9.8,5.3h0Z"/>
          <path class="cls-1" d="M340.3,274.1c-3.8,3.1-16.9,11.2-21.2,7.9-1.9-1.5-1.1-5.3.5-7.9,1.2-1.8,2.5-3.5,4.1-5,1.2-1.2,3.3-2.4,5.1-2.3,1.2,0,1.7.7,1.8,1.6h0c.3,4.2-3.7,8.2-8.1,7.3,0,0-.2,0-.3,0-.3.6-.7,1.2-1,1.7-1.4,2.8,1.6,6.4,18.1-4.8,1.2-.7,2.2.2,1,1.3v.2ZM323.2,274.2c2.9-.2,5.3-2.5,5.3-5h0c-1.6.8-3,2.2-4.2,3.6-.4.4-.7.9-1.1,1.4Z"/>
          <path class="cls-1" d="M365.9,273.7c-4.7,7.1-14.2,12-16.8,8.9-1.7-2.1-1-6.7.2-9.9-3.5,3.5-8.5,7.2-10.4,3.2-1.4-3,1.9-5.8,3.9-7.5,2.7-2.1,5.7-2.8,8.6-.9,1.4-3,2.9-5.8,4.5-8.7,2.1-3.7,4.4-7.3,7.1-10.6,1.6-2,3.5.3,2.5,1.8-2.2,3.5-4.8,6.7-6.8,10.2-2.1,3.6-3.9,7.3-5.7,11.1-1.2,2.6-3,6.3-2.6,9.4.6,3.9,11.1-2.6,14-7.9.6-1.1,1.9,0,1.3,1h0ZM350.4,268.8c-2.1-1.2-5.2,1.4-6.5,2.7-.8.7-1.6,1.6-2.1,2.5-.2.4-.6,1-.5,1.6,0,.2.4,0,.7,0,3.2-1.4,6.1-3.9,8.5-6.7v-.2Z"/>
          <path class="cls-1" d="M390.3,274c-2.6,3.5-7,8.3-11.4,9.2-3.7.7-6.2-2.1-5.8-4.9.6-3.9,3.8-7.1,4.4-10.4,0-.2,0-1.3-1.2-.7-4,2.1-8.8,8.8-10.8,12-.7,1-3.1.3-2.7-1.7.8-3.5,2.9-8.6,5.2-11,1.6-1.6,3.3,1,2.5,1.8-1.2,1.3-2.1,2.8-2.9,4.6,3.7-4.5,8.8-9.2,11.3-7.7,1.8,1,2,3.5.7,6.5-.8,1.8-3.2,5.4-3.5,7.7,0,.7.3,2.2,2.1,2,3.5-.4,8-5.1,10.6-8.5.7-1,2.2.2,1.5,1.2h0Z"/>
          <path class="cls-1" d="M403.8,274.2c-3,3.9-12.3,12.3-16,7.9-1.9-2.2-.7-5.3.2-7.6,1.2-2.6,2.6-5.1,4.4-7.4,1.1-1.4,3.9.2,2.5,1.8s-2.4,3.5-3.4,5.4c-.9,1.7-2.5,4.6-2.1,6.7.5,2,4.5-.4,5.5-1.1,3-1.8,5.4-4.4,7.6-7.1.7-1,2,.4,1.2,1.3h0ZM394.7,264.3c.7-1.2,1.6-2.4,2.5-3.3,1.6-1.4,3.5,1,2.5,1.8-1,1-1.9,2.1-2.5,3.3-.8,1.3-3.1-.7-2.5-1.8Z"/>
          <path class="cls-1" d="M422.7,274.1c-3.8,3.1-16.9,11.2-21.2,7.9-1.9-1.5-1.1-5.3.5-7.8,1.2-1.8,2.5-3.5,4.1-5,1.2-1.2,3.3-2.4,5.1-2.3,2.4,0,2.4,3,.4,4.8-.9.8-2.2-.6-1.4-1.3.4-.3.5-.7.7-1.1-1.6.8-3,2.2-4.1,3.6-1.2,1.4-2.3,3-3.1,4.7-1.4,2.8,1.6,6.4,18.1-4.8,1.2-.7,2.2.2,1,1.3h0Z"/>
          <path class="cls-1" d="M439.7,274.2c-2.8,1.3-6.2,1.8-8.7.5-2.1,5.4-7.7,10.5-10.4,5.6-1.2-2.3-.4-5.6.7-7.8,1.5-2.8,3.9-5,6.9-5.8.4,0,.9,0,1.3.5.2,0,.4,0,.6.2.5,0,.9.7,1.2,1.1.7,1.2.7,3,.2,4.7h0c1.6,1.5,5.1.7,7.1-.2,1.1-.5,2,.8.9,1.3h0ZM428.5,276c.3-.7.8-1.6,1.2-2.5-1.1-1.2-1.4-2.6-1.2-4.1-2.2,1.2-3.9,3.3-4.9,5.6-.5,1.2-.8,2.6-.8,3.9,0,3.5,4.5-.7,5.8-3h0Z"/>
          <path class="cls-1" d="M473.7,274c-5.8,6.5-13.8,11.5-16.8,7.3-.9-1.3-.7-3.7.6-6.1.9-1.8,2-3.5,2.9-5.4.5-1.1.5-1.9-1.1-1.2-5.1,2.1-7.6,10.3-11.1,9.8-.9-.2-2-1.2-1.3-3.1.7-2.1,1-3,1.4-4.2.2-.8-.8-.6-1.5-.2-3,1.6-4.8,3.9-6.6,6.8h0v.2c-.3,1.2-3.2.4-2.7-1.4.9-3.5,2.1-7.1,4.4-9.9,1.2-1.6,3.4.4,2.5,1.8-.8,1.3-1.7,2.6-2.3,4,1.9-2,4.2-3.6,6.8-4,1.2-.2,2.4,0,2.6,1.7.2,1.2-.5,2.4-.8,3.4,0,.2-.8,1.7-.7,1.9.7.9,4.6-8.5,11.3-9,2.1-.2,2.9,2.9,1.8,5.2-.9,1.9-2,3.7-2.9,5.5s-1.1,2.2-1.1,3.3,2.5.6,3.1.4c3.7-1.2,7.1-4.9,10.4-8.1.8-.7,2.1.4,1.2,1.4h-.2Z"/>
        </g>
      </g>
    </g>
  </g>
</svg>