<svg viewBox="0 0 119 34">
		<path fill-rule="evenodd" clip-rule="evenodd" d="M85.1 25V13.8H70.6V25h-4.1V0h4.1v10.7h14.5V0h4.1v25h-4.1zM20.9 32.1l.8-2.1.8 2.1h-1.6zm2.5 1.9h.6l-2.2-5.2-2.3 5.2h.6l.6-1.4h2.1l.6 1.4zM57.3 32.1l.8-2.1.8 2.1h-1.6zm2.4 1.9h.6l-2.2-5.2-2.2 5.2h.6l.6-1.4h2.1l.5 1.4zM82.8 29.1h.6V34h-.6v-4.9zM34.7 0h-4.1v25h4.1V0z"></path>
		<path d="M20.6 0l-8.1 16.9L4.3 0H0l12.4 25L24.8 0h-4.2zM53.9 21.6c-6 0-10.5-3.8-10.5-9.1s4.4-9.1 10.5-9.1c2.7 0 5.1.8 7 2.2v-4c-2.1-1-4.5-1.6-7-1.6-7.8 0-14.2 5.6-14.2 12.5S46.1 25 53.9 25c2.5 0 4.9-.6 7-1.6v-4c-1.9 1.4-4.3 2.2-7 2.2M29.6 34v-4.9h.8c1.1 0 1.7.4 1.7 1.3 0 .4-.2.7-.5 1 .3.1.5.2.7.5.2.2.2.5.2.8 0 .5-.2.8-.5 1.1-.3.2-.7.3-1.2.3h-1.2zm.5-4.4v1.6h.3c.4 0 .7 0 .8-.1.2-.1.3-.3.3-.6s-.1-.6-.3-.7c-.2-.1-.4-.1-.8-.1h-.3zm0 2v1.9h.6c.9 0 1.2-.3 1.2-.9 0-.6-.4-1-1.3-1h-.5zM40.6 28.9c.7 0 1.4.2 1.9.7.5.5.8 1.1.8 1.8s-.3 1.3-.8 1.8c-.5.6-1.1.8-1.9.8-.7 0-1.4-.2-1.9-.7-.5-.5-.8-1.1-.8-1.8s.3-1.3.8-1.8c.6-.5 1.2-.8 1.9-.8m0 .5c-.6 0-1.1.2-1.5.6-.4.4-.6.9-.6 1.4 0 .6.2 1 .6 1.4.4.4.9.6 1.5.6s1.1-.2 1.5-.6c.4-.4.6-.9.6-1.4 0-.6-.2-1-.6-1.4-.4-.4-.9-.6-1.5-.6M74.6 28.9c.7 0 1.4.2 1.9.7.5.5.8 1.1.8 1.8s-.3 1.3-.8 1.8-1.1.7-1.9.7c-.7 0-1.4-.2-1.9-.7-.5-.5-.8-1.1-.8-1.8s.3-1.3.8-1.8c.5-.4 1.2-.7 1.9-.7m0 .5c-.6 0-1.1.2-1.5.6-.4.4-.6.9-.6 1.4 0 .6.2 1 .6 1.4.4.4.9.6 1.5.6s1.1-.2 1.5-.6c.4-.4.6-.9.6-1.4 0-.6-.2-1-.6-1.4-.4-.4-.9-.6-1.5-.6M108.3 29.7l-.4.3c-.2-.4-.5-.5-.9-.5-.2 0-.4.1-.6.2-.2.1-.2.3-.2.5s.1.3.3.5c.1.1.3.2.5.3l.3.1c.4.2.7.3.8.5.2.2.4.5.4.9s-.2.8-.5 1.1c-.3.3-.7.4-1.1.4-.4 0-.7-.1-1-.3-.3-.2-.5-.5-.5-.9l.5-.2c0 .3.1.5.3.6.2.2.4.3.7.3.3 0 .5-.1.7-.3.2-.2.3-.4.3-.7 0-.3-.1-.5-.3-.6-.1-.1-.3-.2-.6-.3l-.3-.1c-.3-.1-.6-.3-.8-.5-.2-.2-.3-.5-.3-.8 0-.4.1-.7.4-.9.3-.2.6-.3 1-.3.6-.1 1.1.2 1.3.7M97.9 34v-4.9h2.7v.5h-2.2v1.5h2v.5h-2v1.9h2.2v.5h-2.7zM13 29.1v4.4h1.4v.5h-1.9v-4.9h.5zM66.4 29.6V34h-.6v-4.4h-1.2v-.5h3v.5h-1.2zM48.8 31.8V34h-.6v-4.9h.8c1.2 0 1.8.5 1.8 1.4 0 .4-.1.7-.3.9-.2.2-.5.4-.9.4l1.6 2.2h-.7L49 31.8h-.2zm0-2.2v1.8h.2c.4 0 .7-.1.9-.2.3-.1.4-.4.4-.7 0-.4-.1-.6-.4-.8-.2-.1-.5-.1-.9-.1h-.2zM90.1 31.8V34h-.6v-4.9h.7c1.2 0 1.8.5 1.8 1.4 0 .4-.1.7-.3.9-.2.2-.5.4-.9.4l1.6 2.2h-.7l-1.5-2.2h-.1zm0-2.2v1.8h.2c.4 0 .7-.1.9-.2.3-.1.4-.4.4-.7 0-.4-.1-.6-.4-.8-.2-.1-.5-.1-.9-.1h-.2zM119 0l-11.2 14.2V25H104V14.3L92.8 0h4.4l8.7 11.1L114.6 0h4.4"></path>
	</svg>