<?xml version="1.0" encoding="UTF-8" standalone="no"?>
<svg
   xmlns:dc="http://purl.org/dc/elements/1.1/"
   xmlns:cc="http://creativecommons.org/ns#"
   xmlns:rdf="http://www.w3.org/1999/02/22-rdf-syntax-ns#"
   xmlns:svg="http://www.w3.org/2000/svg"
   xmlns="http://www.w3.org/2000/svg"
   viewBox="0 0 583.30267 294.228"
   height="294.228"
   width="583.30267"
   xml:space="preserve"
   id="svg2"
   version="1.1"><metadata
     id="metadata8"><rdf:RDF><cc:Work
         rdf:about=""><dc:format>image/svg+xml</dc:format><dc:type
           rdf:resource="http://purl.org/dc/dcmitype/StillImage" /></cc:Work></rdf:RDF></metadata><defs
     id="defs6"><clipPath
       id="clipPath18"
       clipPathUnits="userSpaceOnUse"><path
         id="path16"
         d="M 0,220.671 H 437.477 V 0 H 0 Z" /></clipPath></defs><g
     transform="matrix(1.3333333,0,0,-1.3333333,0,294.228)"
     id="g10"><g
       id="g12"><g
         clip-path="url(#clipPath18)"
         id="g14"><g
           transform="translate(184.6733,93.1558)"
           id="g20"><path
             id="path22"
             style="fill:#ffffff;fill-opacity:1;fill-rule:nonzero;stroke:none"
             d="m 0,0 v -1.205 c 0,-17.01 -5.057,-32.893 -13.781,-46.315 l -50.27,41.235 c 4.473,5.001 9.301,12.663 11.406,23.671 0.349,1.828 0.624,3.749 0.809,5.765 0.178,1.943 0.276,3.973 0.276,6.097 0,9.182 -2.67,20.374 -6.132,31.027 -0.996,3.067 -2.059,6.089 -3.142,9.005 -2.661,7.168 -5.448,13.698 -7.696,18.685 -3.934,8.732 -8.281,17.381 -12.24,24.353 -1.828,3.22 -3.228,5.5 -4.331,7.123 C -11.051,78.974 -0.173,36.537 0.055,0.042 Z m -89.644,-88.237 c -29.638,0 -55.856,13.998 -72.261,35.845 l 49.616,42.635 c 6.896,-6.44 14.96,-9.749 21.863,-9.749 7.527,0 16.02,3.658 22.834,9.698 l 50.978,-41.816 c -16.268,-22.146 -42.941,-36.613 -73.03,-36.613 m -90.048,86.488 c -1.47,42.803 23.182,74.254 44.121,93.102 16.399,14.76 33.153,24.331 41.411,28.605 -1.225,-1.608 -2.792,-3.963 -4.84,-7.418 -3.955,-6.669 -8.342,-15.184 -12.353,-23.977 -2.374,-5.203 -5.356,-12.14 -8.146,-19.76 -1.101,-3.005 -2.171,-6.116 -3.163,-9.269 -3.132,-9.964 -5.474,-20.344 -5.474,-29.109 0,-2.58 0.139,-5.061 0.4,-7.448 0.218,-1.993 0.523,-3.918 0.905,-5.775 1.982,-9.642 6.062,-17.455 11.111,-23.356 l -49.069,-42.164 c -8.909,13.365 -14.31,29.299 -14.903,46.569 m 108.411,-5.034 c -6.81,-5.845 -14.162,-8.006 -19.145,-8.006 -5.05,0 -12.024,2.558 -18.26,8.128 L -90.49,8.974 Z m -19.283,22.246 -21.611,-18.571 c -4.921,5.67 -8.959,13.529 -10.533,23.853 L -90.49,48.429 -56.853,20.838 C -58.485,9.33 -63.306,1.579 -67.704,-3.289 Z m 34.238,11.371 -34.238,28.084 -32.756,-28.147 c -0.064,1.191 -0.1,2.406 -0.1,3.654 0,9.843 3.253,22.497 7.782,35.144 l 25.148,21.609 25.839,-21.195 c 4.829,-13.213 8.374,-26.506 8.374,-36.735 0,-0.821 -0.019,-1.623 -0.049,-2.414 m -33.478,91.113 c 3.511,-4.739 13.372,-22.665 21.498,-42.537 l -22.258,18.257 -21.338,-18.336 c 8.11,19.974 18.191,38.054 22.098,42.616 M -13.172,64.918 C -28.089,87.93 -52.81,108.227 -88.749,126.97 l -1.046,0.546 -1.081,-0.475 c -0.986,-0.434 -24.425,-10.858 -47.878,-31.936 -31.214,-28.052 -47.071,-61.602 -45.854,-97.022 1.757,-51.162 43.47,-91.239 94.964,-91.239 51.725,0 93.884,40.595 94.554,90.74 l 0.067,0.051 v 1.205 c 0,25.981 -5.767,46.978 -18.149,66.078" /></g><g
           transform="translate(243.9526,43.4709)"
           id="g24"><path
             id="path26"
             style="fill:#ffffff;fill-opacity:1;fill-rule:nonzero;stroke:none"
             d="m 0,0 c -0.266,0 -0.523,0.097 -0.771,0.29 -0.247,0.193 -0.438,0.441 -0.571,0.743 l -4.641,10.425 c -0.266,0.737 -0.417,1.438 -0.453,2.103 L -8.847,0 h -4.605 L -9.5,18.637 h 3.427 c 0.7,0 1.266,-0.081 1.695,-0.244 0.429,-0.164 0.752,-0.529 0.97,-1.097 L 0.308,8.702 C 0.562,8.001 0.731,7.288 0.816,6.563 L 2.919,18.637 H 7.524 L 3.572,0 Z" /></g><g
           transform="translate(256.8425,62.1082)"
           id="g28"><path
             id="path30"
             style="fill:#ffffff;fill-opacity:1;fill-rule:nonzero;stroke:none"
             d="M 0,0 H 12.836 L 11.948,-4.152 H 3.753 L 3.046,-7.433 h 6.69 l -0.762,-3.554 h -6.69 l -0.743,-3.499 h 8.213 l -0.87,-4.151 H -3.952 Z" /></g><g
           transform="translate(275.9329,51.4844)"
           id="g32"><path
             id="path34"
             style="fill:#ffffff;fill-opacity:1;fill-rule:nonzero;stroke:none"
             d="m 0,0 c 0,-1.148 0.344,-2.067 1.033,-2.756 0.689,-0.689 1.65,-1.033 2.883,-1.033 0.979,0 1.922,0.217 2.828,0.653 0.907,0.435 1.68,1.039 2.321,1.812 0.64,0.774 1.063,1.644 1.269,2.611 0.097,0.483 0.145,0.918 0.145,1.306 0,1.147 -0.345,2.063 -1.033,2.746 C 8.757,6.022 7.79,6.363 6.545,6.363 5.566,6.363 4.626,6.146 3.726,5.711 2.825,5.276 2.055,4.671 1.414,3.898 0.773,3.124 0.35,2.254 0.145,1.287 0.048,0.803 0,0.374 0,0 m -2.167,6.255 c 1.143,1.462 2.539,2.607 4.188,3.435 1.65,0.828 3.406,1.242 5.267,1.242 1.596,0 2.991,-0.308 4.188,-0.925 1.197,-0.616 2.118,-1.483 2.765,-2.601 0.646,-1.118 0.97,-2.409 0.97,-3.871 0,-0.689 -0.085,-1.438 -0.254,-2.248 C 14.57,-0.562 13.806,-2.218 12.664,-3.68 11.522,-5.143 10.122,-6.288 8.466,-7.116 6.81,-7.944 5.052,-8.358 3.191,-8.358 c -1.595,0 -2.992,0.308 -4.188,0.925 -1.197,0.616 -2.119,1.483 -2.765,2.601 -0.647,1.118 -0.97,2.409 -0.97,3.871 0,0.689 0.084,1.438 0.254,2.248 0.399,1.849 1.169,3.505 2.311,4.968" /></g><g
           transform="translate(304.478,48.4114)"
           id="g36"><path
             id="path38"
             style="fill:#ffffff;fill-opacity:1;fill-rule:nonzero;stroke:none"
             d="m 0,0 c 0.936,0.429 1.737,1.024 2.402,1.786 0.665,0.761 1.1,1.619 1.306,2.574 0.096,0.459 0.145,0.876 0.145,1.251 0,1.136 -0.357,2.049 -1.07,2.738 C 2.07,9.038 1.085,9.382 -0.172,9.382 h -3.789 l -2.14,-10.026 h 3.191 c 1.003,0 1.973,0.215 2.91,0.644 m -7.678,13.697 h 8.177 c 1.619,0 3.036,-0.302 4.251,-0.906 C 5.965,12.186 6.901,11.334 7.56,10.234 8.219,9.134 8.548,7.871 8.548,6.445 8.548,5.78 8.476,5.085 8.331,4.36 7.944,2.583 7.18,0.988 6.037,-0.426 4.895,-1.84 3.496,-2.946 1.84,-3.744 0.184,-4.542 -1.58,-4.94 -3.454,-4.94 h -8.176 z" /></g><g
           transform="translate(319.7883,51.4844)"
           id="g40"><path
             id="path42"
             style="fill:#ffffff;fill-opacity:1;fill-rule:nonzero;stroke:none"
             d="m 0,0 c 0,-1.148 0.344,-2.067 1.033,-2.756 0.689,-0.689 1.65,-1.033 2.883,-1.033 0.979,0 1.922,0.217 2.828,0.653 0.907,0.435 1.68,1.039 2.321,1.812 0.64,0.774 1.063,1.644 1.269,2.611 0.097,0.483 0.145,0.918 0.145,1.306 0,1.147 -0.345,2.063 -1.033,2.746 C 8.757,6.022 7.79,6.363 6.545,6.363 5.566,6.363 4.626,6.146 3.726,5.711 2.825,5.276 2.055,4.671 1.414,3.898 0.773,3.124 0.35,2.254 0.145,1.287 0.048,0.803 0,0.374 0,0 m -2.167,6.255 c 1.143,1.462 2.539,2.607 4.188,3.435 1.65,0.828 3.406,1.242 5.267,1.242 1.596,0 2.991,-0.308 4.188,-0.925 1.197,-0.616 2.118,-1.483 2.765,-2.601 0.646,-1.118 0.97,-2.409 0.97,-3.871 0,-0.689 -0.085,-1.438 -0.254,-2.248 C 14.57,-0.562 13.806,-2.218 12.664,-3.68 11.522,-5.143 10.122,-6.288 8.466,-7.116 6.81,-7.944 5.052,-8.358 3.191,-8.358 c -1.595,0 -2.992,0.308 -4.188,0.925 -1.197,0.616 -2.119,1.483 -2.765,2.601 -0.647,1.118 -0.97,2.409 -0.97,3.871 0,0.689 0.084,1.438 0.254,2.248 0.399,1.849 1.169,3.505 2.311,4.968" /></g><g
           transform="translate(340.6555,62.1082)"
           id="g44"><path
             id="path46"
             style="fill:#ffffff;fill-opacity:1;fill-rule:nonzero;stroke:none"
             d="M 0,0 H 4.623 L 1.559,-14.413 H 8.993 L 8.104,-18.637 H -3.952 Z" /></g><g
           transform="translate(365.3842,62.1082)"
           id="g48"><path
             id="path50"
             style="fill:#ffffff;fill-opacity:1;fill-rule:nonzero;stroke:none"
             d="m 0,0 -2.574,-12.111 c -0.279,-1.281 -0.828,-2.435 -1.65,-3.462 -0.822,-1.028 -1.825,-1.831 -3.01,-2.412 -1.184,-0.58 -2.441,-0.87 -3.771,-0.87 -0.834,0 -1.619,0.142 -2.357,0.426 -0.737,0.284 -1.305,0.601 -1.704,0.952 l 0.617,1.178 c 0.302,0.568 0.68,1.016 1.133,1.342 0.453,0.326 0.927,0.49 1.423,0.49 0.157,0 0.308,-0.019 0.453,-0.055 0.544,-0.169 0.973,-0.254 1.287,-0.254 0.677,0 1.299,0.254 1.868,0.762 0.568,0.507 0.93,1.142 1.087,1.903 L -4.623,0 Z" /></g><g
           transform="translate(365.6921,43.4709)"
           id="g52"><path
             id="path54"
             style="fill:#ffffff;fill-opacity:1;fill-rule:nonzero;stroke:none"
             d="M 0,0 3.952,18.637 H 8.594 L 4.623,0 Z" /></g><g
           transform="translate(397.1286,62.1082)"
           id="g56"><path
             id="path58"
             style="fill:#ffffff;fill-opacity:1;fill-rule:nonzero;stroke:none"
             d="m 0,0 -11.839,-18.637 h -4.278 L -20.052,0 h 3.01 c 0.677,0 1.206,-0.148 1.586,-0.444 0.381,-0.296 0.614,-0.777 0.698,-1.441 l 1.777,-10.062 c 0.012,-0.049 0.018,-0.152 0.018,-0.309 0,-0.411 -0.085,-1.184 -0.254,-2.32 h 0.109 c 0.338,1.511 0.61,2.447 0.816,2.81 l 5.91,10.044 C -5.741,-0.574 -4.744,0 -3.39,0 Z" /></g><g
           transform="translate(262.1166,140.8058)"
           id="g60"><path
             id="path62"
             style="fill:#ffffff;fill-opacity:1;fill-rule:nonzero;stroke:none"
             d="m 0,0 c -1.876,-1.75 -4.217,-3.053 -7.023,-3.91 -2.805,-0.857 -5.75,-1.286 -8.835,-1.286 -3.717,0 -7.095,0.871 -10.135,2.612 -3.04,1.74 -5.435,4.131 -7.185,7.171 -1.75,3.04 -2.625,6.418 -2.625,10.135 0,3.735 0.875,7.121 2.625,10.161 1.75,3.041 4.154,5.431 7.212,7.172 3.058,1.741 6.463,2.612 10.216,2.612 1.84,0 3.717,-0.294 5.629,-0.88 1.912,-0.586 3.685,-1.376 5.318,-2.368 1.632,-0.992 2.954,-2.074 3.964,-3.247 l -1.542,-1.895 c -0.433,-0.505 -0.938,-0.906 -1.516,-1.204 -0.577,-0.298 -1.191,-0.446 -1.84,-0.446 -0.812,0 -1.624,0.261 -2.436,0.784 -0.92,0.65 -2.075,1.173 -3.464,1.57 -1.389,0.396 -2.751,0.595 -4.086,0.595 -2.363,0 -4.519,-0.559 -6.468,-1.677 -1.948,-1.119 -3.486,-2.662 -4.614,-4.628 -1.128,-1.967 -1.691,-4.15 -1.691,-6.549 0,-2.4 0.559,-4.578 1.678,-6.535 1.118,-1.958 2.647,-3.497 4.587,-4.614 1.939,-1.12 4.091,-1.679 6.454,-1.679 3.735,0 6.558,0.578 8.47,1.733 v 6.575 h -2.706 c -1.155,0 -2.047,0.312 -2.679,0.934 -0.632,0.622 -0.947,1.439 -0.947,2.449 V 16.21 L 0,16.21 Z" /></g><g
           transform="translate(277.9067,149.0194)"
           id="g64"><path
             id="path66"
             style="fill:#ffffff;fill-opacity:1;fill-rule:nonzero;stroke:none"
             d="m 0,0 c 1.128,-1.958 2.666,-3.501 4.614,-4.628 1.949,-1.128 4.105,-1.691 6.468,-1.691 2.382,0 4.546,0.563 6.495,1.691 1.948,1.127 3.482,2.67 4.6,4.628 1.119,1.957 1.679,4.126 1.679,6.508 0,2.399 -0.56,4.578 -1.679,6.536 -1.118,1.957 -2.652,3.5 -4.6,4.627 -1.949,1.128 -4.113,1.692 -6.495,1.692 -2.363,0 -4.519,-0.564 -6.468,-1.692 C 2.666,16.544 1.128,14.996 0,13.03 -1.128,11.064 -1.691,8.89 -1.691,6.508 -1.691,4.126 -1.128,1.957 0,0 m -6.359,16.643 c 1.759,3.04 4.167,5.435 7.225,7.185 3.058,1.75 6.455,2.625 10.189,2.625 3.735,0 7.135,-0.875 10.202,-2.625 3.068,-1.75 5.485,-4.145 7.253,-7.185 1.768,-3.041 2.652,-6.418 2.652,-10.135 0,-3.698 -0.884,-7.067 -2.652,-10.108 -1.768,-3.04 -4.185,-5.435 -7.253,-7.185 -3.067,-1.75 -6.467,-2.624 -10.202,-2.624 -3.734,0 -7.131,0.874 -10.189,2.624 -3.058,1.75 -5.466,4.145 -7.225,7.185 -1.76,3.041 -2.639,6.41 -2.639,10.108 0,3.717 0.879,7.094 2.639,10.135" /></g><g
           transform="translate(325.7391,157.6387)"
           id="g68"><path
             id="path70"
             style="fill:#ffffff;fill-opacity:1;fill-rule:nonzero;stroke:none"
             d="m 0,0 h 6.928 c 1.01,0 1.93,0.225 2.76,0.676 0.83,0.451 1.489,1.069 1.976,1.854 0.487,0.785 0.731,1.655 0.731,2.612 0,0.992 -0.244,1.876 -0.731,2.652 -0.487,0.775 -1.15,1.38 -1.989,1.813 -0.839,0.433 -1.773,0.649 -2.801,0.649 H 0 Z M -7.307,-21.515 V 17.32 H 7.225 c 2.328,0 4.439,-0.519 6.333,-1.556 1.895,-1.038 3.392,-2.486 4.493,-4.344 1.1,-1.858 1.65,-3.951 1.65,-6.278 0,-1.913 -0.465,-3.649 -1.394,-5.21 -0.929,-1.561 -2.102,-2.787 -3.518,-3.68 -1.416,-0.893 -2.81,-1.349 -4.181,-1.367 L 9.742,-5.142 v -0.054 c 0.992,-0.073 1.814,-0.284 2.463,-0.636 0.65,-0.352 1.2,-0.862 1.651,-1.529 L 23.95,-21.515 h -6.035 c -0.866,0 -1.633,0.158 -2.3,0.474 -0.668,0.316 -1.281,0.907 -1.841,1.773 L 5.061,-7.063 H 0 v -14.452 z" /></g><g
           transform="translate(359.6748,137.2881)"
           id="g72"><path
             id="path74"
             style="fill:#ffffff;fill-opacity:1;fill-rule:nonzero;stroke:none"
             d="m 0,0 c -2.256,1.118 -4.258,2.58 -6.008,4.384 l 1.57,2.76 c 0.288,0.487 0.685,0.866 1.19,1.137 0.505,0.27 1.056,0.405 1.651,0.405 0.83,0 1.597,-0.234 2.3,-0.703 C 1.75,7.243 2.886,6.62 4.113,6.116 5.34,5.611 6.414,5.358 7.334,5.358 c 1.876,0 3.378,0.428 4.505,1.286 1.128,0.856 1.692,2.106 1.692,3.748 0,1.118 -0.501,2.11 -1.502,2.976 -1.001,0.867 -2.584,1.714 -4.749,2.544 -3.861,1.371 -6.708,2.986 -8.539,4.844 -1.831,1.858 -2.746,4.059 -2.746,6.604 0,2.11 0.505,3.986 1.515,5.628 1.01,1.642 2.431,2.918 4.262,3.83 1.831,0.91 3.929,1.366 6.293,1.366 1.912,0 3.869,-0.37 5.872,-1.11 2.002,-0.739 3.626,-1.785 4.871,-3.139 L 17.455,31.554 C 17.04,30.85 16.549,30.327 15.98,29.984 15.412,29.642 14.803,29.47 14.153,29.47 c -0.577,0 -1.109,0.117 -1.596,0.352 -0.722,0.451 -1.493,0.785 -2.314,1.001 -0.821,0.217 -1.547,0.325 -2.178,0.325 -1.408,0 -2.554,-0.338 -3.437,-1.015 -0.885,-0.677 -1.327,-1.592 -1.327,-2.746 0,-0.939 0.478,-1.773 1.435,-2.504 0.956,-0.73 2.471,-1.439 4.546,-2.124 3.879,-1.155 6.775,-2.756 8.687,-4.804 1.912,-2.047 2.869,-4.56 2.869,-7.536 0,-2.364 -0.578,-4.462 -1.732,-6.293 C 17.951,2.295 16.336,0.87 14.262,-0.149 12.187,-1.168 9.814,-1.678 7.144,-1.678 4.636,-1.678 2.255,-1.119 0,0" /></g><g
           transform="translate(413.1491,174.4846)"
           id="g76"><path
             id="path78"
             style="fill:#ffffff;fill-opacity:1;fill-rule:nonzero;stroke:none"
             d="m 0,0 c 0.541,0.315 1.145,0.474 1.813,0.474 h 6.82 L -3.951,-16.738 c -0.289,-0.415 -0.654,-0.789 -1.096,-1.123 -0.442,-0.334 -0.88,-0.519 -1.313,-0.555 v -0.054 c 0.451,-0.072 0.911,-0.28 1.381,-0.622 0.468,-0.343 0.829,-0.695 1.082,-1.056 L 9.661,-38.361 H 2.977 c -0.704,0 -1.376,0.181 -2.016,0.542 -0.641,0.361 -1.16,0.829 -1.556,1.407 l -11.502,16.047 c -0.325,0.452 -0.721,0.84 -1.19,1.164 -0.47,0.325 -0.957,0.578 -1.462,0.758 0.469,0.144 0.938,0.379 1.408,0.704 0.468,0.324 0.865,0.73 1.19,1.217 L -1.38,-1.34 C -1.001,-0.763 -0.541,-0.316 0,0 m -23.354,0.447 h 7.307 V -38.36 h -7.307 z" /></g><path
           id="path80"
           style="fill:#ffffff;fill-opacity:1;fill-rule:nonzero;stroke:none"
           d="m 430.171,174.931 h 7.307 v -38.807 h -7.307 z" /><g
           transform="translate(253.7646,120.2389)"
           id="g82"><path
             id="path84"
             style="fill:#ffffff;fill-opacity:1;fill-rule:nonzero;stroke:none"
             d="m 0,0 c 0.541,0.315 1.145,0.474 1.813,0.474 h 6.82 L -3.951,-16.738 c -0.289,-0.416 -0.654,-0.789 -1.096,-1.123 -0.442,-0.334 -0.88,-0.519 -1.313,-0.555 v -0.054 c 0.451,-0.073 0.911,-0.28 1.381,-0.623 0.468,-0.342 0.829,-0.694 1.082,-1.055 L 9.661,-38.361 H 2.977 c -0.704,0 -1.376,0.18 -2.016,0.542 -0.641,0.361 -1.16,0.829 -1.556,1.407 l -11.502,16.047 c -0.325,0.451 -0.721,0.84 -1.19,1.164 -0.47,0.325 -0.957,0.577 -1.462,0.758 0.469,0.144 0.938,0.378 1.408,0.704 0.468,0.324 0.865,0.73 1.19,1.217 L -1.38,-1.34 C -1.001,-0.763 -0.541,-0.316 0,0 m -23.354,0.447 h 7.307 v -38.808 h -7.307 z" /></g><g
           transform="translate(277.9067,94.7732)"
           id="g86"><path
             id="path88"
             style="fill:#ffffff;fill-opacity:1;fill-rule:nonzero;stroke:none"
             d="m 0,0 c 1.128,-1.958 2.666,-3.5 4.614,-4.628 1.949,-1.128 4.105,-1.691 6.468,-1.691 2.382,0 4.546,0.563 6.495,1.691 1.948,1.128 3.482,2.67 4.6,4.628 1.119,1.957 1.679,4.127 1.679,6.508 0,2.4 -0.56,4.578 -1.679,6.536 -1.118,1.957 -2.652,3.5 -4.6,4.628 -1.949,1.127 -4.113,1.691 -6.495,1.691 -2.363,0 -4.519,-0.564 -6.468,-1.691 C 2.666,16.544 1.128,14.997 0,13.03 -1.128,11.064 -1.691,8.89 -1.691,6.508 -1.691,4.127 -1.128,1.957 0,0 m -6.359,16.643 c 1.759,3.04 4.167,5.435 7.225,7.185 3.058,1.75 6.455,2.625 10.189,2.625 3.735,0 7.135,-0.875 10.202,-2.625 3.068,-1.75 5.485,-4.145 7.253,-7.185 1.768,-3.04 2.652,-6.418 2.652,-10.135 0,-3.698 -0.884,-7.067 -2.652,-10.107 -1.768,-3.04 -4.185,-5.436 -7.253,-7.186 -3.067,-1.749 -6.467,-2.624 -10.202,-2.624 -3.734,0 -7.131,0.875 -10.189,2.624 -3.058,1.75 -5.466,4.146 -7.225,7.186 -1.76,3.04 -2.639,6.409 -2.639,10.107 0,3.717 0.879,7.095 2.639,10.135" /></g><g
           transform="translate(312.3308,120.7125)"
           id="g90"><path
             id="path92"
             style="fill:#ffffff;fill-opacity:1;fill-rule:nonzero;stroke:none"
             d="M 0,0 H 29.958 V -6.982 H 18.646 V -38.835 H 11.339 V -6.982 L 0,-6.982 Z" /></g><g
           transform="translate(368.5931,95.9503)"
           id="g94"><path
             id="path96"
             style="fill:#ffffff;fill-opacity:1;fill-rule:nonzero;stroke:none"
             d="m 0,0 -4.871,11.258 c -0.398,0.938 -0.677,1.759 -0.839,2.463 -0.163,0.703 -0.244,1.479 -0.244,2.327 H -6.225 C -6.243,15.182 -6.333,14.397 -6.495,13.694 -6.658,12.99 -6.937,12.178 -7.334,11.258 L -12.205,0 Z M 14.099,-14.072 H 8.876 c -0.866,0 -1.646,0.23 -2.341,0.69 -0.695,0.46 -1.213,1.105 -1.556,1.935 l -2.3,5.331 h -17.536 l -2.3,-5.331 c -0.362,-0.83 -0.889,-1.475 -1.584,-1.935 -0.694,-0.46 -1.474,-0.69 -2.34,-0.69 h -5.224 l 16.968,38.834 h 6.468 z" /></g><g
           transform="translate(396.791,103.3925)"
           id="g98"><path
             id="path100"
             style="fill:#ffffff;fill-opacity:1;fill-rule:nonzero;stroke:none"
             d="m 0,0 h 6.928 c 1.01,0 1.93,0.225 2.76,0.676 0.83,0.452 1.489,1.07 1.976,1.854 0.487,0.785 0.731,1.656 0.731,2.612 0,0.992 -0.244,1.876 -0.731,2.652 -0.487,0.775 -1.15,1.38 -1.989,1.813 -0.839,0.433 -1.773,0.65 -2.801,0.65 L 0,10.257 Z M -7.307,-21.515 V 17.32 H 7.225 c 2.328,0 4.439,-0.519 6.333,-1.556 1.895,-1.038 3.392,-2.486 4.493,-4.344 1.1,-1.858 1.65,-3.951 1.65,-6.278 0,-1.913 -0.465,-3.649 -1.394,-5.21 -0.929,-1.56 -2.102,-2.787 -3.518,-3.68 -1.416,-0.893 -2.81,-1.349 -4.181,-1.367 L 9.742,-5.142 v -0.054 c 0.992,-0.072 1.814,-0.284 2.463,-0.636 0.65,-0.352 1.2,-0.862 1.651,-1.529 L 23.95,-21.515 h -6.035 c -0.866,0 -1.633,0.158 -2.3,0.474 -0.668,0.316 -1.281,0.907 -1.841,1.773 L 5.061,-7.063 H 0 v -14.452 z" /></g></g></g></g></svg>