<?xml version="1.0" encoding="UTF-8"?>
<!-- Generator: Adobe Illustrator 25.3.1, SVG Export Plug-In . SVG Version: 6.00 Build 0)  -->
<svg version="1.1" id="Layer_1" xmlns="http://www.w3.org/2000/svg" xmlns:xlink="http://www.w3.org/1999/xlink" x="0px" y="0px" viewBox="0 0 150 150" style="enable-background:new 0 0 150 150;" xml:space="preserve">
<style type="text/css">
	.st0{fill:none;}
	.st1{fill:#E20074;}
</style>
<g>
	<g id="Hintergrund_1_">
		<rect x="-0.07" y="0.43" class="st0" width="150" height="150"/>
	</g>
	<g id="Telekom_Logo_1_">
		<path class="st1" d="M58.09,87.3H42.71V71.92h7.67h7.67V87.3H58.09z M42.71,36.56V62.7h4.61v-0.76c0-12.31,6.92-19.99,19.99-19.99    h0.76v55.35c0,7.67-3.06,10.77-10.77,10.77H55v5.37h39.97v-5.37h-2.31c-7.67,0-10.77-3.06-10.77-10.77V41.93h0.76    c13.07,0,19.99,7.67,19.99,19.99v0.76h4.61V36.56H42.71z M91.91,87.3h15.38V71.92h-7.67h-7.67V87.3H91.91z"/>
	</g>
</g>
</svg>