<?xml version="1.0" encoding="UTF-8"?>
<svg id="Layer_1" data-name="Layer 1" xmlns="http://www.w3.org/2000/svg" version="1.1" viewBox="0 0 535 364">
  <defs>
    <style>
      .cls-1 {
        fill: #fff;
        stroke-width: 0px;
      }
    </style>
  </defs>
  <g>
    <g>
      <path class="cls-1" d="M131.4,59.4c.5.3.7.5.6,1.1,0,.5-.2.9-.4,1.4-1.8,4.7-3.6,9.3-5.4,13.9,0,0,0,.2-.1.3.7,0,1.3,0,1.9-.2h1.3c.9,0,1.2.7.9,1.5,0,.3-.3.6-.6.8-.9.6-1.6,1.3-2.1,2.2-.9,1.4-2.2,2.2-3.8,2.6-.2,0-.3.2-.4.4-2.5,6.6-4.9,13.2-7.1,19.9,0,.2-.1.3-.2.5-.3.6-1.2.6-1.5.2-.6-.8-1.4-1.5-2.2-2.1-.3-.2-.5-.5-.7-.8-.3-.3-.3-.7-.2-1.2,1-3.7,2.2-7.3,3.5-10.9.5-1.4,1-2.8,1.5-4.2h-.5c-2.5.6-5.1,1.1-7.7,1.7-.2,0-.3.2-.4.3-1.7,4.5-3.3,9.1-5,13.6-.2.5-.4,1.1-.8,1.5-.3.3-.6.5-.9.5-.6,0-1.2-.3-1.2-1s0-.9.2-1.3c1.5-4.3,3-8.5,4.6-12.8,0,0,0-.2.1-.4-1.2,0-2-.8-2.6-1.6,0,0-.2-.2-.3-.3-.4-.5-.9-1-1.6-1.1-.5,0-.8-.6-1-1.1,0,0,0-.2,0-.2v-.3c.2-.2.4-.4.6-.6.2,0,.5-.2.7-.3,2.2-.6,4.5-1.2,6.7-1.8.3,0,.4-.2.5-.5,2.3-5.7,4.6-11.5,6.9-17.2.2-.5.5-.9.8-1.3s.7-.6,1.2-.7c.6,0,1.1.3,1.1.9s-.1.9-.3,1.3c-2.1,5.4-4.3,10.8-6.5,16.2,0,0,0,.2-.1.4h.3c2.5-.5,5.1-1,7.6-1.5.2,0,.3,0,.4-.4,1-2.6,2.1-5.2,3.1-7.7s2.1-4.9,3.1-7.3c.2-.5.6-.9,1.1-1,1.4-.5,2.9-.9,4.3-1.4h.7Z"/>
      <path class="cls-1" d="M148,89.8c.5-1.2.9-2.4,1.4-3.6,3-7.6,6.5-15,10.1-22.4.4-.7.8-1.4,1.2-2.1.3-.5.9-.8,1.5-1,.8-.2,1.6-.6,2.3-.8.6-.2,1.2-.4,1.9-.4s1,.3,1,1-.2,1.5-.4,2.3c-1,4.5-1.9,8.9-2.9,13.4-1,4.9-2,9.8-3,14.8-.8,4.2-1.7,8.3-2.5,12.5-.2.9-.7,1-1.5.7-.2,0-.4-.2-.5-.4-.6-.8-1.3-1.4-2.1-2-.3-.2-.5-.4-.7-.6-.3-.3-.4-.6-.3-1.1.6-3.4,1.1-6.8,1.7-10.1.6-3.5,1.3-6.9,2-10.4.6-2.9,1.1-5.7,1.7-8.6v-.2s0,.2,0,.2c-2.5,5.2-4.9,10.6-7.1,15.9-1.7,4.1-3.2,8.2-4.8,12.2,0,.3-.3.6-.4.8-.3.4-.8.4-1.2,0,0,0-.2-.2-.3-.4-.5-.8-1.1-1.5-1.8-2.1-.6-.6-1.1-1.4-1.2-2.3,0-.7-.2-1.4-.2-2.2,0-2.6,0-5.2.3-7.8.2-2.7.5-5.4.8-8,0-1.6.2-3.1.3-4.7v-.2s0,.2,0,.3c-2,6.3-4,12.6-6,18.9-.9,3-1.8,6-2.7,9-.2.5-.4,1.1-.8,1.5-.3.2-.6.4-.9.4-.5,0-.9-.4-1-.9s0-.9,0-1.3c1.9-7.2,4.1-14.4,6.4-21.5,1.7-5.2,3.4-10.4,5.3-15.5.2-.7.6-1.2,1.3-1.4,1.4-.6,2.8-1.1,4.2-1.6.3-.1.7-.1,1-.1.6,0,.9.3.9.9v2.6c-.2,1.9-.4,3.9-.7,5.8-.2,1.8-.5,3.7-.8,5.5-.3,2.2-.6,4.3-.8,6.5-.3,2.7-.5,5.4-.6,8.2v.3h0Z"/>
      <path class="cls-1" d="M128,96.5c-.3.2-.7.5-1,.7-.8.4-1.6.6-2.4.3-1.2-.4-1.9-1.7-1.8-3,.1-.9.5-1.8,1.1-2.5.5-.6,1.1-1.3,1.7-1.9.1,0,.2-.3.1-.5-.2-.7-.5-1.4-.5-2.2s.5-1.7,1.3-2.1c.8-.5,1.7-.4,2.5,0,.9.5,1.3,1.5.8,2.5-.3.7-.8,1.3-1.2,1.9-.2.3-.4.5-.6.8,0,0,0,.2,0,.2.2.6.4,1.2.6,1.8l.5-.5c.2-.2.5-.3.7-.4.5,0,.9.2.9.7s-.2.9-.4,1.4c-.3.4-.6.8-.8,1.2v.3c0,.3.2.6.3,1,0,.2,0,.4,0,.7,0,.6-.6.9-1.1.6-.2,0-.4-.4-.5-.6,0,0,0-.3-.2-.4h-.1ZM126.5,92.3c-.2.3-.4.5-.5.7-.2.3-.4.6-.5.9v.5h.5c.3,0,.6-.3.8-.5v-.2c-.2-.5-.3-.9-.5-1.5h.2ZM127.1,88.4h0c.2-.3.5-.6.7-1,.2-.3,0-.7-.3-.8-.3,0-.6,0-.7.5,0,.4,0,.8,0,1.3h.2Z"/>
    </g>
    <path class="cls-1" d="M197,84.6l-11.9-14h1l11.5,13.4,11.5-13.4h1l-11.9,14,12.4,14.6h-1l-11.9-14.1-11.9,14.1h-1l12.4-14.6h-.2Z"/>
    <g>
      <path class="cls-1" d="M250.8,76.1c-1.1-1.4-3.3-2.1-4.9-2.1s-4.6.9-4.6,3.2c0,5.6,14.2,2,14.2,12.9s-5.6,10.2-11.9,10.2-7.5-1.2-10.4-3.9l4.8-5.3c1.4,1.8,3.7,2.9,6,2.9s4.7-1,4.7-3.2c0-5.7-14.5-2.6-14.5-12.9s5.7-10,11.8-10,6.9.9,9.5,3.2l-4.7,5.1h0Z"/>
      <path class="cls-1" d="M295.4,87.6c0,7.3-4.5,12.7-13,12.7s-13.1-5.4-13.1-12.7v-19h6.8v18.8c0,3.8,2.6,6.7,6.3,6.7s6.2-2.9,6.2-6.7v-18.8h6.8v19h0Z"/>
      <path class="cls-1" d="M310.4,68.6h11.5c6.4,0,11.8,2.1,11.8,9.4s-4.9,9.5-11.5,9.5h-5v12.1h-6.8v-30.9h0ZM317.3,81.7h4.5c2.4,0,4.8-.8,4.8-3.7s-3.2-3.6-5.9-3.6h-3.5v7.3h0Z"/>
      <path class="cls-1" d="M347,68.6h21v6.3h-14.2v5.8h13.4v6.3h-13.4v6.3h15v6.3h-21.8v-30.9h0Z"/>
      <path class="cls-1" d="M383,68.6h12c6.3,0,11.7,2.2,11.7,9.4s-2.3,7.7-6.7,8.5l7.9,13.1h-8.2l-6.5-12.4h-3.4v12.4h-6.8v-31h0ZM389.8,81.4h4c2.5,0,5.7,0,5.7-3.4s-2.8-3.6-5.3-3.6h-4.4v7h0Z"/>
      <path class="cls-1" d="M429.5,75.9l-6.2,5.5-3.7-4.3,10.1-8.5h6.1v30.9h-6.3v-23.6Z"/>
    </g>
  </g>
  <g>
    <path class="cls-1" d="M37.2,170c-2.9,0-5.3-.8-7.2-2.3-1.9-1.6-3.3-3.6-4-6.3-.7-2.6-.8-5.5-.3-8.6.4-2.5,1.2-4.8,2.3-6.9,1.1-2.1,2.5-3.9,4.2-5.4s3.5-2.7,5.5-3.6c2-.8,4.1-1.2,6.3-1.2s5.5.8,7.4,2.3c1.9,1.6,3.3,3.6,4,6.2.7,2.6.8,5.4.3,8.6-.5,2.6-1.3,5-2.5,7.1-1.2,2.1-2.6,3.9-4.3,5.4-1.7,1.5-3.5,2.7-5.5,3.5-2,.8-4,1.2-6.2,1.2ZM39.4,168.6c2.9,0,5.4-1.1,7.5-3.4,2.1-2.3,3.6-5.5,4.3-9.6.5-2.5.7-4.9.5-7.2-.2-2.2-.7-4.2-1.6-6s-2-3.1-3.4-4.1c-1.4-1-3.1-1.5-5-1.5-3,0-5.5,1.2-7.6,3.5-2.1,2.4-3.5,5.5-4.2,9.5-.5,2.4-.6,4.8-.4,7,.2,2.2.7,4.2,1.5,6,.8,1.8,1.9,3.1,3.3,4.1,1.4,1,3.1,1.5,5,1.5Z"/>
    <path class="cls-1" d="M62.3,170.1c-.9,0-1.7-.2-2.5-.7-.8-.5-1.3-1.3-1.7-2.3-.4-1.1-.4-2.5,0-4.3.4-1.9,1-3.8,2-5.5,1-1.7,2.1-3.3,3.4-4.6,1.3-1.4,2.8-2.4,4.3-3.2,1.5-.8,3-1.1,4.6-1.1s2,.3,2.8.8c.9.5,1.4,1.5,1.5,2.7l-2.3,4.6c-1.1,2.7-2.2,5-3.5,7.1-1.3,2.1-2.6,3.7-4.1,4.9-1.4,1.2-2.9,1.8-4.4,1.8ZM64.4,167.1c1.1,0,2.2-.4,3.2-1.3,1-.9,2-2,2.8-3.3.8-1.3,1.5-2.7,2.1-4.1s1-2.6,1.1-3.6c.3-1.5,0-2.6-.6-3.4-.7-.8-1.7-1.2-2.9-1.1-2.1,0-3.9.9-5.4,2.6-1.6,1.7-2.6,4.2-3.2,7.4-.4,2.3-.3,4.1.3,5.2.5,1.1,1.4,1.7,2.5,1.7ZM73.6,169.8c-1,0-1.6-.4-1.9-1.2-.3-.8-.2-2.1.1-4l5.1-27.6c.2-1.4.1-2.2-.4-2.6-.5-.3-1.5-.1-3.1.7-.1,0-.2,0-.3-.3,0-.2,0-.3.1-.4l7.3-3.6c.1,0,.3,0,.4.1.1.1.2.2.2.3l-6.1,33.3c-.2,1.1-.2,1.8,0,2.3.2.4.5.7.8.7s.9-.2,1.4-.6c.6-.4,1.2-1,1.9-1.6s.3-.1.4,0c.1.1.1.3,0,.4-1.2,1.3-2.2,2.3-3.1,3-.9.7-1.9,1.1-2.9,1.1Z"/>
    <path class="cls-1" d="M101,170.1c-1.8,0-3.2-.5-4.3-1.5-1.1-1-1.9-2.3-2.2-4-.4-1.7-.4-3.5,0-5.5.4-2.1,1.2-4,2.3-5.6,1.1-1.6,2.4-2.9,4-3.9,1.6-1,3.3-1.4,5.1-1.4s3.4.5,4.5,1.5c1.1,1,1.9,2.3,2.3,4,.4,1.7.4,3.5,0,5.5-.5,2.3-1.3,4.3-2.5,5.9-1.2,1.6-2.6,2.9-4.2,3.8-1.6.9-3.2,1.3-4.8,1.3ZM102.9,168.8c1.3,0,2.6-.6,3.7-1.9,1.1-1.3,1.9-3.1,2.3-5.4.2-1.4.3-2.8.3-4.2,0-1.4-.3-2.7-.7-3.9-.4-1.2-.9-2.1-1.6-2.8-.7-.7-1.6-1.1-2.7-1.1s-2.5.6-3.6,1.9c-1.1,1.3-1.9,3.1-2.4,5.5-.3,1.5-.4,2.9-.3,4.3,0,1.4.3,2.7.7,3.8.4,1.2,1,2.1,1.7,2.8.7.7,1.6,1,2.6,1Z"/>
    <path class="cls-1" d="M117.3,169.8c-.6,0-.9,0-1.1-.1-.2,0-.3-.2-.3-.3s0-.6.3-1.4c.2-.8.4-1.7.5-2.6l5.3-28.4c.2-1.4.1-2.2-.4-2.6-.5-.3-1.5-.1-3.1.7-.1,0-.3,0-.3-.3,0-.2,0-.3,0-.4l7.3-3.6c.1,0,.3,0,.5,0,.2.1.2.2.2.3l-4.9,27-1.9,10.5c-.1.6-.8.9-2.1.9ZM120.2,159.9v-.8c2.3-.5,4.1-1,5.5-1.6,1.4-.6,2.5-1.3,3.2-2.1.7-.8,1.2-1.8,1.4-2.9.1-.8,0-1.4-.2-1.8-.3-.4-.7-.7-1.3-.7-1.7,0-3.2.8-4.5,2.3-1.3,1.5-2.3,3.6-2.9,6.1l-1.8-1.9c.8-1.6,1.9-3,3.2-4.2,1.3-1.2,2.6-2.2,4.1-2.9,1.5-.7,3-1.1,4.5-1.1s1.7.2,2.1.6c.4.4.7.8.8,1.3.1.5.1.9,0,1.3-.2,1.1-.9,2.2-2.1,3.3-1.2,1.1-2.9,2.1-4.9,3-2.1.9-4.5,1.6-7.2,2.2ZM130.5,169.8c-.8,0-1.5-.3-2.2-.8-.6-.5-1.4-1.4-2.2-2.8l-3.1-5.3c-.4-.7-.8-1.1-1.1-1.2-.3-.2-.9-.1-1.8,0l5.1-1.8,3.7,6.3c.7,1.2,1.4,2,1.9,2.4.5.4,1,.6,1.5.6s.9-.2,1.4-.5c.6-.3,1.2-.8,1.9-1.4.1-.1.3-.1.4,0,.1.2.2.3,0,.4-2.4,2.7-4.2,4-5.6,4Z"/>
    <path class="cls-1" d="M143,170.1c-1.5,0-2.5-.6-3.1-1.7-.6-1.1-.6-2.9-.1-5.3l1.9-9.4c.2-1.1.2-1.8,0-2.3-.2-.4-.5-.7-.9-.7s-.8.2-1.4.6c-.6.4-1.2,1-1.9,1.6s-.3.1-.4,0c-.1-.1-.1-.3,0-.4,1.2-1.3,2.2-2.4,3.2-3.1.9-.7,1.9-1.1,2.8-1.1s1.5.4,1.9,1.2c.3.8.3,2.1-.1,4l-1.7,8.4c-.4,1.9-.5,3.4-.1,4.3.3.9,1,1.4,1.9,1.4s2.2-.7,3.4-2.1c1.2-1.4,2.3-3.5,3.4-6.2,1.1-2.7,1.9-6,2.7-10h.7c-.7,4.2-1.6,7.8-2.9,10.9-1.3,3.1-2.7,5.5-4.3,7.2-1.6,1.7-3.3,2.6-5.1,2.6ZM153.5,169.8c-1,0-1.6-.4-1.8-1.2s-.2-2,0-3.8l2.7-15.5c.1-.6.8-.9,2.1-.9s.9,0,1.1.1c.2,0,.3.2.3.3s0,.6-.3,1.4c-.2.8-.4,1.7-.5,2.6l-2.2,11.8c-.3,2,0,3,.8,3s.9-.2,1.5-.6c.6-.4,1.3-1,2-1.7.1-.1.2-.1.4,0,.1.2.2.3,0,.4-1.2,1.4-2.4,2.5-3.3,3.1-1,.7-2,1-2.9,1Z"/>
    <path class="cls-1" d="M157.7,183.9c-.1,0-.2,0-.3-.3,0-.2,0-.3.2-.4.7-.1,1.3-.3,1.7-.6.4-.2.7-.6.9-1.2.2-.5.4-1.4.6-2.4l5.4-30.3c0-.1.2-.3.5-.5.3-.2.7-.5,1.1-.8.4-.3.8-.7,1.1-1.2.3-.5.6-1,.7-1.5,0-.1.1-.2.3-.2.2,0,.3.1.2.3l-6,33.8c-.2,1.4-.2,2.3.2,2.7.4.4,1.3.5,2.7.3.1,0,.2,0,.3.2,0,.2,0,.3-.2.3l-9.4,1.5ZM168.6,169.4c-1.2,0-2.1,0-2.8-.2-.7-.1-1.3-.2-1.8-.3l.5-2.9c.7.5,1.5.9,2.4,1.3.9.4,2,.6,3.4.6s2.7-.4,3.7-1.3c1-.9,1.8-2.1,2.4-3.6.6-1.5,1-3.3,1.2-5.2.2-1.2.2-2.3,0-3.4-.2-1.1-.6-1.9-1.2-2.6-.7-.7-1.7-1-3-1s-3.3.4-4.9,1.3c-1.6.9-3.5,2.1-5.7,3.8-.1,0-.2,0-.4-.1-.1-.2-.1-.3,0-.4,2.2-1.9,4.4-3.5,6.8-4.7,2.4-1.3,4.6-1.9,6.9-1.9s3.5.6,4.3,1.9c.9,1.3,1.1,3.1.8,5.5-.2,1.8-.8,3.5-1.6,5.1-.8,1.6-1.8,3.1-3,4.3-1.2,1.3-2.4,2.2-3.8,2.9-1.4.7-2.8,1.1-4.2,1.1Z"/>
    <path class="cls-1" d="M187.3,169.8c-1,0-1.7-.4-1.9-1.2-.2-.8-.2-2.1.1-4l5.1-27.6c.2-1.4.1-2.2-.3-2.6-.5-.3-1.5-.1-3,.7-.1,0-.3,0-.3-.3,0-.2,0-.3,0-.4l7.3-3.6c.2,0,.3,0,.5.1.1.1.2.2.2.3l-6.1,33.3c-.2,1.1-.2,1.8,0,2.3.2.4.5.7.8.7s.9-.2,1.4-.6c.5-.4,1.2-1,1.9-1.6.1-.1.3-.1.4,0,.1.1.1.3,0,.4-1.1,1.3-2.2,2.3-3.1,3-1,.7-1.9,1.1-2.9,1.1Z"/>
    <path class="cls-1" d="M194,183.9c-1.3,0-2.3-.3-2.9-.8-.6-.5-.9-1.1-.8-1.8,0-.6.3-1,.7-1.3.4-.3.8-.5,1.3-.5s1,.2,1.2.5c.2.3.4.7.5,1.2,0,.5.2.9.3,1.2.2.3.4.5.8.5s.9-.3,1.2-1c.3-.6.6-1.7,1-3.3.3-1.6.8-3.7,1.2-6.5l3.2-18.7c.4-2,0-3-.8-3s-2,.8-3.5,2.3c-.1.1-.2.1-.4,0-.1-.2-.2-.3,0-.4,1.2-1.4,2.4-2.5,3.4-3.1,1-.7,2-1,2.9-1s1.6.4,1.8,1.2c.3.8.2,2,0,3.8l-3.1,17.8c-.6,3.3-1.2,5.8-1.9,7.7-.7,1.9-1.5,3.2-2.5,4-1,.8-2.2,1.2-3.7,1.2ZM205,142.4c-.8,0-1.4-.2-1.8-.6-.4-.4-.7-1-.7-1.9s.2-1.3.7-1.8c.4-.4,1.1-.6,1.8-.6s1.4.2,1.9.6.6,1,.6,1.8c0,1.7-.8,2.5-2.5,2.5Z"/>
    <path class="cls-1" d="M212.3,170.1c-1.2,0-2.1-.4-2.7-1.3-.6-.8-.8-2.3-.6-4.2.3-1.9.9-3.8,1.9-5.7s2.1-3.7,3.5-5.3c1.4-1.6,2.8-2.9,4.4-3.9,1.6-1,3-1.5,4.5-1.5s1.3.1,2,.4c.7.2,1.2.6,1.7,1.2.5.5.8,1.3.8,2.2l-2.5-1.5c.5,0,1-.4,1.6-.9.6-.5,1-1.1,1.3-1.8,0-.1.2-.1.4,0,.2,0,.3.1.2.2l-3.1,16.8c-.4,1.9-.1,2.9.7,2.9s.9-.2,1.5-.6,1.2-1,1.9-1.6c.1-.1.2,0,.4,0,.1.1.2.3,0,.4-1.1,1.3-2.2,2.3-3.1,3-1,.7-1.9,1.1-2.8,1.1s-1.6-.4-1.9-1.2c-.3-.8-.3-2.1,0-4l1.3-7.4,1-.9c-1,2.8-2.1,5.2-3.5,7.2-1.4,2.1-2.9,3.7-4.4,4.8-1.5,1.1-3,1.7-4.5,1.7ZM214.7,167c1,0,1.9-.4,2.9-1.1,1-.7,1.9-1.7,2.8-2.9.9-1.2,1.7-2.5,2.3-3.9.7-1.4,1.1-2.8,1.4-4,.3-1.4.2-2.6-.3-3.5-.5-.9-1.4-1.3-2.6-1.3-1.2,0-2.3.5-3.5,1.5-1.2,1-2.2,2.3-3.1,4-.9,1.7-1.5,3.6-1.9,5.8-.3,1.9-.2,3.3.1,4.2.4.9,1,1.3,1.9,1.3Z"/>
    <path class="cls-1" d="M235.5,169.8c-.6,0-.9,0-1.1-.1-.2,0-.3-.2-.3-.3s0-.6.3-1.4c.2-.8.4-1.7.5-2.6l2.2-11.8c.4-2,0-3-.8-3s-.9.2-1.5.6c-.6.4-1.3,1-2,1.7-.1.1-.2.1-.4,0-.1-.2-.2-.3,0-.4,1.2-1.4,2.4-2.5,3.4-3.1,1-.7,2-1,2.9-1s1.6.4,1.8,1.2c.3.8.2,2,0,3.8l-2.8,15.5c-.1.6-.8.9-2.1.9ZM249,169.8c-1,0-1.6-.4-1.9-1.2-.2-.8-.2-2.1.1-4l1.5-8.4c.8-3.8.2-5.7-1.8-5.7s-2.2.7-3.4,2.1c-1.2,1.4-2.3,3.5-3.4,6.2-1.1,2.7-1.9,6-2.7,10h-.7c.7-4.2,1.7-7.8,2.9-10.9,1.2-3.1,2.6-5.5,4.2-7.2,1.6-1.7,3.3-2.6,5.1-2.6s2.5.5,3.1,1.6c.5,1.1.6,2.9.1,5.4l-1.8,9.4c-.2,1.1-.2,1.8,0,2.3.2.4.5.7.8.7s.9-.2,1.4-.6c.5-.4,1.2-1,1.9-1.6.1-.1.2-.1.4,0,.1.1.2.3,0,.4-1.1,1.3-2.2,2.3-3.1,3-1,.7-1.9,1.1-2.9,1.1Z"/>
    <path class="cls-1" d="M254.8,183.9c-1.3,0-2.3-.3-2.9-.8-.6-.5-.9-1.1-.8-1.8,0-.6.3-1,.7-1.3.4-.3.8-.5,1.3-.5s1,.2,1.2.5c.2.3.4.7.5,1.2,0,.5.2.9.3,1.2.2.3.4.5.8.5s.9-.3,1.2-1c.3-.6.6-1.7,1-3.3.3-1.6.8-3.7,1.2-6.5l3.2-18.7c.4-2,0-3-.8-3s-2,.8-3.5,2.3c-.1.1-.2.1-.4,0-.1-.2-.2-.3,0-.4,1.2-1.4,2.4-2.5,3.4-3.1,1-.7,2-1,2.9-1s1.6.4,1.8,1.2c.3.8.2,2,0,3.8l-3.1,17.8c-.6,3.3-1.2,5.8-1.9,7.7-.7,1.9-1.5,3.2-2.5,4-1,.8-2.2,1.2-3.7,1.2ZM265.8,142.4c-.8,0-1.4-.2-1.8-.6-.4-.4-.7-1-.7-1.9s.2-1.3.7-1.8c.4-.4,1.1-.6,1.8-.6s1.4.2,1.9.6.6,1,.6,1.8c0,1.7-.8,2.5-2.5,2.5Z"/>
    <path class="cls-1" d="M273.1,170.1c-1.2,0-2.1-.4-2.7-1.3-.6-.8-.8-2.3-.6-4.2.3-1.9.9-3.8,1.9-5.7s2.1-3.7,3.5-5.3c1.4-1.6,2.8-2.9,4.4-3.9,1.6-1,3-1.5,4.5-1.5s1.3.1,2,.4c.7.2,1.2.6,1.7,1.2.5.5.8,1.3.8,2.2l-2.5-1.5c.5,0,1-.4,1.6-.9.6-.5,1-1.1,1.3-1.8,0-.1.2-.1.4,0,.2,0,.3.1.2.2l-3.1,16.8c-.4,1.9-.1,2.9.7,2.9s.9-.2,1.5-.6,1.2-1,1.9-1.6c.1-.1.2,0,.4,0,.1.1.2.3,0,.4-1.1,1.3-2.2,2.3-3.1,3-1,.7-1.9,1.1-2.8,1.1s-1.6-.4-1.9-1.2c-.3-.8-.3-2.1,0-4l1.3-7.4,1-.9c-1,2.8-2.1,5.2-3.5,7.2-1.4,2.1-2.9,3.7-4.4,4.8-1.5,1.1-3,1.7-4.5,1.7ZM275.5,167c1,0,1.9-.4,2.9-1.1,1-.7,1.9-1.7,2.8-2.9.9-1.2,1.7-2.5,2.3-3.9.7-1.4,1.1-2.8,1.4-4,.3-1.4.2-2.6-.3-3.5-.5-.9-1.4-1.3-2.6-1.3-1.2,0-2.3.5-3.5,1.5-1.2,1-2.2,2.3-3.1,4-.9,1.7-1.5,3.6-1.9,5.8-.3,1.9-.2,3.3.1,4.2.4.9,1,1.3,1.9,1.3Z"/>
    <path class="cls-1" d="M308.8,169.8c-.6,0-.9,0-1.1-.1-.2,0-.3-.2-.3-.3s0-.6.3-1.4c.2-.8.4-1.7.5-2.6l2.2-11.8c.4-2,0-3-.8-3s-.9.2-1.5.6c-.6.4-1.3,1-2,1.7-.1.1-.2.1-.4,0-.1-.2-.2-.3,0-.4,1.2-1.4,2.4-2.5,3.4-3.1,1-.7,2-1,2.9-1s1.6.4,1.8,1.2c.3.8.2,2,0,3.8l-2.8,15.5c-.1.6-.8.9-2.1.9ZM322.3,169.8c-1,0-1.6-.4-1.9-1.2-.2-.8-.2-2.1.1-4l1.5-8.4c.8-3.8.2-5.7-1.8-5.7s-2.2.7-3.4,2.1c-1.2,1.4-2.3,3.5-3.4,6.2-1.1,2.7-1.9,6-2.7,10h-.7c.7-4.2,1.7-7.8,2.9-10.9,1.2-3.1,2.6-5.5,4.2-7.2,1.6-1.7,3.3-2.6,5.1-2.6s2.5.5,3.1,1.6c.5,1.1.6,2.9.1,5.4l-1.8,9.4c-.2,1.1-.2,1.8,0,2.3.2.4.5.7.8.7s.9-.2,1.4-.6c.5-.4,1.2-1,1.9-1.6.1-.1.2-.1.4,0,.1.1.2.3,0,.4-1.1,1.3-2.2,2.3-3.1,3-1,.7-1.9,1.1-2.9,1.1Z"/>
    <path class="cls-1" d="M333.5,170.1c-1.2,0-2.1-.4-2.7-1.3-.6-.8-.8-2.3-.6-4.2.3-1.9.9-3.8,1.9-5.7s2.1-3.7,3.5-5.3c1.4-1.6,2.8-2.9,4.4-3.9,1.6-1,3-1.5,4.5-1.5s1.3.1,2,.4c.7.2,1.2.6,1.7,1.2.5.5.8,1.3.8,2.2l-2.5-1.5c.5,0,1-.4,1.6-.9.6-.5,1-1.1,1.3-1.8,0-.1.2-.1.4,0,.2,0,.3.1.2.2l-3.1,16.8c-.4,1.9-.1,2.9.7,2.9s.9-.2,1.5-.6,1.2-1,1.9-1.6c.1-.1.2,0,.4,0,.1.1.2.3,0,.4-1.1,1.3-2.2,2.3-3.1,3-1,.7-1.9,1.1-2.8,1.1s-1.6-.4-1.9-1.2c-.3-.8-.3-2.1,0-4l1.3-7.4,1-.9c-1,2.8-2.1,5.2-3.5,7.2-1.4,2.1-2.9,3.7-4.4,4.8-1.5,1.1-3,1.7-4.5,1.7ZM335.9,167c1,0,1.9-.4,2.9-1.1,1-.7,1.9-1.7,2.8-2.9.9-1.2,1.7-2.5,2.3-3.9.7-1.4,1.1-2.8,1.4-4,.3-1.4.2-2.6-.3-3.5-.5-.9-1.4-1.3-2.6-1.3-1.2,0-2.3.5-3.5,1.5-1.2,1-2.2,2.3-3.1,4-.9,1.7-1.5,3.6-1.9,5.8-.3,1.9-.2,3.3.1,4.2.4.9,1,1.3,1.9,1.3Z"/>
    <path class="cls-1" d="M361.6,183.9c-.1,0-.2,0-.3-.3,0-.2,0-.3.2-.4.7-.1,1.3-.3,1.7-.6.4-.2.7-.6.9-1.2.2-.5.4-1.4.6-2.4l5.4-30.3c0-.1.2-.3.5-.5.3-.2.7-.5,1.1-.8.4-.3.8-.7,1.1-1.2.3-.5.6-1,.7-1.5,0-.1.1-.2.3-.2.2,0,.3.1.2.3l-6,33.8c-.2,1.4-.2,2.3.2,2.7.4.4,1.3.5,2.7.3.1,0,.2,0,.3.2,0,.2,0,.3-.2.3l-9.4,1.5ZM372.5,169.4c-1.2,0-2.1,0-2.8-.2-.7-.1-1.3-.2-1.8-.3l.5-2.9c.7.5,1.5.9,2.4,1.3.9.4,2,.6,3.4.6s2.7-.4,3.7-1.3c1-.9,1.8-2.1,2.4-3.6.6-1.5,1-3.3,1.2-5.2.2-1.2.2-2.3,0-3.4-.2-1.1-.6-1.9-1.2-2.6-.7-.7-1.7-1-3-1s-3.3.4-4.9,1.3c-1.6.9-3.5,2.1-5.7,3.8-.1,0-.2,0-.4-.1-.1-.2-.1-.3,0-.4,2.2-1.9,4.4-3.5,6.8-4.7,2.4-1.3,4.6-1.9,6.9-1.9s3.5.6,4.3,1.9c.9,1.3,1.1,3.1.8,5.5-.2,1.8-.8,3.5-1.6,5.1-.8,1.6-1.8,3.1-3,4.3-1.2,1.3-2.4,2.2-3.8,2.9-1.4.7-2.8,1.1-4.2,1.1Z"/>
    <path class="cls-1" d="M391.2,169.8c-1,0-1.7-.4-1.9-1.2-.2-.8-.2-2.1.1-4l5.1-27.6c.2-1.4.1-2.2-.3-2.6-.5-.3-1.5-.1-3,.7-.1,0-.3,0-.3-.3,0-.2,0-.3,0-.4l7.3-3.6c.2,0,.3,0,.5.1.1.1.2.2.2.3l-6.1,33.3c-.2,1.1-.2,1.8,0,2.3.2.4.5.7.8.7s.9-.2,1.4-.6c.5-.4,1.2-1,1.9-1.6.1-.1.3-.1.4,0,.1.1.1.3,0,.4-1.1,1.3-2.2,2.3-3.1,3-1,.7-1.9,1.1-2.9,1.1Z"/>
    <path class="cls-1" d="M403.4,170.1c-1.2,0-2.1-.4-2.7-1.3-.6-.8-.8-2.3-.6-4.2.3-1.9.9-3.8,1.9-5.7s2.1-3.7,3.5-5.3c1.4-1.6,2.8-2.9,4.4-3.9,1.6-1,3-1.5,4.5-1.5s1.3.1,2,.4c.7.2,1.2.6,1.7,1.2.5.5.8,1.3.8,2.2l-2.5-1.5c.5,0,1-.4,1.6-.9.6-.5,1-1.1,1.3-1.8,0-.1.2-.1.4,0,.2,0,.3.1.2.2l-3.1,16.8c-.4,1.9-.1,2.9.7,2.9s.9-.2,1.5-.6,1.2-1,1.9-1.6c.1-.1.2,0,.4,0,.1.1.2.3,0,.4-1.1,1.3-2.2,2.3-3.1,3-1,.7-1.9,1.1-2.8,1.1s-1.6-.4-1.9-1.2c-.3-.8-.3-2.1,0-4l1.3-7.4,1-.9c-1,2.8-2.1,5.2-3.5,7.2-1.4,2.1-2.9,3.7-4.4,4.8-1.5,1.1-3,1.7-4.5,1.7ZM405.8,167c1,0,1.9-.4,2.9-1.1,1-.7,1.9-1.7,2.8-2.9.9-1.2,1.7-2.5,2.3-3.9.7-1.4,1.1-2.8,1.4-4,.3-1.4.2-2.6-.3-3.5-.5-.9-1.4-1.3-2.6-1.3-1.2,0-2.3.5-3.5,1.5-1.2,1-2.2,2.3-3.1,4-.9,1.7-1.5,3.6-1.9,5.8-.3,1.9-.2,3.3.1,4.2.4.9,1,1.3,1.9,1.3Z"/>
    <path class="cls-1" d="M422.3,169.7c0,0-.2,0-.3-.2-.2-.2-.2-.3-.2-.3l16.8-18.9-.3.6c-.5.8-.9,1.4-1.3,1.7-.4.3-1,.5-1.7.5s-1.6-.1-2.6-.3c-1-.2-1.9-.4-2.9-.6-.9-.2-1.7-.3-2.3-.3s-1.1.2-1.5.6c-.4.4-.7,1-1.1,1.8,0,.1-.2.2-.4,0-.2,0-.3-.2-.2-.4.6-1.7,1-2.9,1.4-3.6.4-.8.8-1.2,1.2-1.4.4-.2,1.1-.3,1.8-.2,1.2,0,2.7.3,4.3.7,1.6.4,3.1.6,4.5.7.6,0,1.1-.1,1.5-.3.4-.2.9-.6,1.4-1.2.1,0,.2,0,.4.1.2.2.2.3.1.3l-16.8,19v-.6c.5-.8,1-1.4,1.5-1.7.5-.3,1.1-.5,1.9-.5s1.9,0,3,.3c1.1.2,2.3.4,3.3.6,1.1.2,1.9.3,2.6.3s1.1-.2,1.4-.5.7-1,1-1.8c0,0,.2,0,.4,0,.2,0,.2.1.2.3-.5,1.7-.9,2.9-1.3,3.7-.4.8-.8,1.3-1.2,1.5-.4.2-1,.3-1.7.3-1,0-2.1-.2-3.3-.4-1.2-.2-2.4-.4-3.6-.7-1.2-.2-2.3-.4-3.4-.4-.6,0-1.1.1-1.5.3-.4.2-.9.6-1.4,1.2ZM432.4,144.5l-1.2-13.2c0-.1,0-.2.3-.2.2,0,.3,0,.3.1l2,7.4,4.8-7.5c0,0,.1,0,.3,0,.2,0,.3.1.2.2l-5.8,13.2c0,.2-.3.3-.6.3s-.5,0-.5-.3Z"/>
    <path class="cls-1" d="M446.2,169.8c-1,0-1.6-.4-1.9-1.2-.3-.8-.3-2.1.1-4l2.2-11c.4-2,0-3-.9-3s-.9.2-1.5.6c-.6.4-1.3,1-2,1.7-.1.1-.2.1-.4,0-.2-.2-.2-.3,0-.4,1.2-1.4,2.4-2.5,3.3-3.1,1-.7,1.9-1,2.9-1s1.6.4,1.9,1.2c.3.8.2,2-.1,3.8l-2.2,11.3c-.2,1.1-.2,1.8,0,2.3.2.4.5.7.8.7s.9-.2,1.5-.6c.6-.4,1.2-.9,1.9-1.6.1-.1.3-.1.4,0,.1.2.1.3,0,.4-1.1,1.3-2.2,2.4-3.2,3-1,.7-1.9,1-2.9,1ZM449.6,142.4c-.8,0-1.4-.2-1.8-.6-.4-.4-.7-1-.7-1.9s.2-1.3.7-1.8c.4-.4,1.1-.6,1.8-.6s1.4.2,1.9.6.6,1,.6,1.8c0,1.7-.8,2.5-2.5,2.5Z"/>
    <path class="cls-1" d="M471.6,170.1c-.9,0-1.7-.2-2.5-.7-.8-.5-1.3-1.3-1.7-2.3-.4-1.1-.4-2.5,0-4.3.4-1.9,1-3.8,2-5.5,1-1.7,2.1-3.3,3.4-4.6,1.3-1.4,2.8-2.4,4.3-3.2,1.5-.8,3-1.1,4.6-1.1s2,.3,2.8.8c.9.5,1.4,1.5,1.5,2.7l-2.3,4.6c-1.1,2.7-2.2,5-3.5,7.1-1.3,2.1-2.6,3.7-4.1,4.9-1.4,1.2-2.9,1.8-4.4,1.8ZM473.6,167.1c1.1,0,2.2-.4,3.2-1.3,1-.9,2-2,2.8-3.3.8-1.3,1.5-2.7,2.1-4.1s1-2.6,1.1-3.6c.3-1.5,0-2.6-.6-3.4-.7-.8-1.7-1.2-2.9-1.1-2.1,0-3.9.9-5.4,2.6-1.6,1.7-2.6,4.2-3.2,7.4-.4,2.3-.3,4.1.3,5.2.5,1.1,1.4,1.7,2.5,1.7ZM482.9,169.8c-1,0-1.6-.4-1.9-1.2-.3-.8-.2-2.1.1-4l5.1-27.6c.2-1.4.1-2.2-.4-2.6-.5-.3-1.5-.1-3.1.7-.1,0-.2,0-.3-.3,0-.2,0-.3.1-.4l7.3-3.6c.1,0,.3,0,.4.1.1.1.2.2.2.3l-6.1,33.3c-.2,1.1-.2,1.8,0,2.3.2.4.5.7.8.7s.9-.2,1.4-.6c.6-.4,1.2-1,1.9-1.6s.3-.1.4,0c.1.1.1.3,0,.4-1.2,1.3-2.2,2.3-3.1,3-.9.7-1.9,1.1-2.9,1.1Z"/>
    <path class="cls-1" d="M497.9,170.1c-1.8,0-3.2-.5-4.3-1.5-1.1-1-1.9-2.3-2.2-4-.4-1.7-.4-3.5,0-5.5.4-2.1,1.2-4,2.3-5.6,1.1-1.6,2.4-2.9,4-3.9,1.6-1,3.3-1.4,5.1-1.4s3.4.5,4.5,1.5c1.1,1,1.9,2.3,2.3,4,.4,1.7.4,3.5,0,5.5-.5,2.3-1.3,4.3-2.5,5.9-1.2,1.6-2.6,2.9-4.2,3.8-1.6.9-3.2,1.3-4.8,1.3ZM499.7,168.8c1.3,0,2.6-.6,3.7-1.9,1.1-1.3,1.9-3.1,2.3-5.4.2-1.4.3-2.8.3-4.2,0-1.4-.3-2.7-.7-3.9-.4-1.2-.9-2.1-1.6-2.8-.7-.7-1.6-1.1-2.7-1.1s-2.5.6-3.6,1.9c-1.1,1.3-1.9,3.1-2.4,5.5-.3,1.5-.4,2.9-.3,4.3,0,1.4.3,2.7.7,3.8.4,1.2,1,2.1,1.7,2.8.7.7,1.6,1,2.6,1Z"/>
  </g>
  <g>
    <path class="cls-1" d="M38.1,193.7h4l-15.8,35.7h-4l-16-35.7h4.3l13.8,31.5,13.7-31.5Z"/>
    <path class="cls-1" d="M45.3,193.7h28.4v3.4h-24.7v12.1h23.8v3.4h-23.8v13.4h25.1v3.4h-28.8v-35.7Z"/>
    <path class="cls-1" d="M114.3,215.8c-.8,8-7.4,14.5-17.7,14.5s-19-7.3-19-18.8,5.1-18.8,19-18.8,16.3,3.5,17.4,13h-3.7c-1.1-6.8-7.2-9.6-13.7-9.6s-15,5-15,15.4,4.2,15.4,15,15.4,12.7-4.3,14-11.1h3.7Z"/>
    <path class="cls-1" d="M120.2,193.7h28.4v3.4h-24.7v12.1h23.8v3.4h-23.8v13.4h25.1v3.4h-28.8v-35.7Z"/>
    <path class="cls-1" d="M154.5,193.7h19.5c6.1,0,11.6,2.1,11.6,9.7s-2.4,7.6-7,8.7h0c5.1.9,6.1,4.1,6.4,10,.1,2.2.4,6.6,1.2,7.4h-4c-.6-.8-.9-3.4-.9-7.3-.1-6.3-2.5-8.4-8.7-8.4h-14.4v15.7h-3.7v-35.7ZM158.2,210.3h15.7c4.1,0,7.7-1.5,7.7-7s-4-6.2-7.4-6.2h-16v13.2Z"/>
    <path class="cls-1" d="M190.9,193.7h4.5l25,30.5h0v-30.5h3.7v35.7h-4.3l-25.1-30.5h-.1v30.5h-3.7v-35.7Z"/>
    <path class="cls-1" d="M232.4,219c0,5.1,2.4,8.2,7.9,8.2s8-1.8,8-8.8v-24.7h3.7v25.7c0,6.4-3.7,10.9-11.9,10.9s-11.3-8.2-11.4-12.6h3.7v1.3Z"/>
    <path class="cls-1" d="M258.9,193.7h3.7v35.7h-3.7v-35.7Z"/>
    <path class="cls-1" d="M269.6,193.7h3.7v15.1h25.8v-15.1h3.7v35.7h-3.7v-17.2h-25.8v17.2h-3.7v-35.7Z"/>
    <path class="cls-1" d="M320.3,226l26.5-28.9h-24.8v-3.4h29.8v3.4l-26.7,28.9h27.1v3.4h-31.9v-3.4Z"/>
    <path class="cls-1" d="M379.8,218.5h-18.8l-4.9,10.9h-4l16.2-35.7h4.3l16.2,35.7h-4.3l-4.8-10.9ZM370.4,197.4l-8,17.8h15.8l-7.9-17.8Z"/>
    <path class="cls-1" d="M391.8,193.7h20.3c7,0,10,4,10,9s-1.9,6.7-6.2,7.7h0c4.7.8,7.6,4.3,7.6,8.9,0,7.5-6.3,10.2-11.8,10.2h-19.9v-35.7ZM395.5,209.2h14.7c5,0,8.2-1.6,8.2-6.4s-2.9-5.8-7-5.8h-15.9v12.1ZM395.5,226h15.6c4.8,0,8.4-1.9,8.4-6.8s-3.2-6.6-7.5-6.6h-16.5v13.4Z"/>
    <path class="cls-1" d="M452.9,218.5h-18.8l-4.9,10.9h-4l16.2-35.7h4.3l16.2,35.7h-4.3l-4.8-10.9ZM443.6,197.4l-8,17.8h15.8l-7.9-17.8Z"/>
    <path class="cls-1" d="M490.8,193.7h4l-15.8,35.7h-4l-16-35.7h4.3l13.8,31.5,13.7-31.5Z"/>
    <path class="cls-1" d="M519.6,218.5h-18.8l-4.9,10.9h-4l16.2-35.7h4.3l16.2,35.7h-4.3l-4.8-10.9ZM510.2,197.4l-8,17.8h15.8l-7.9-17.8Z"/>
    <path class="cls-1" d="M15.2,284.7c-1.8,0-3-.7-3.7-2-.7-1.3-.7-3.5-.1-6.4l2.3-11.4c.2-1.3.2-2.2,0-2.7-.2-.5-.5-.8-1.1-.8s-1,.3-1.7.8c-.7.5-1.4,1.2-2.2,2s-.3.2-.5,0c-.2-.2-.2-.3,0-.5,1.4-1.6,2.7-2.9,3.8-3.7,1.1-.9,2.3-1.3,3.4-1.3s1.9.5,2.2,1.4c.4.9.3,2.6-.1,4.9l-2,10.2c-.5,2.3-.6,4.1-.2,5.2.4,1.1,1.2,1.7,2.3,1.7s2.7-.9,4.1-2.6c1.4-1.7,2.8-4.2,4.1-7.5,1.3-3.3,2.3-7.3,3.2-12h.9c-.8,5.1-2,9.4-3.5,13.1-1.5,3.7-3.2,6.6-5.2,8.7-1.9,2.1-4,3.1-6.1,3.1ZM27.9,284.4c-1.2,0-1.9-.5-2.2-1.4s-.3-2.5,0-4.5l3.3-18.7c.1-.7,1-1.1,2.6-1.1s1.1,0,1.3.1c.2,0,.3.2.3.3s-.1.7-.3,1.7c-.2,1-.4,2-.6,3.1l-2.6,14.3c-.4,2.4,0,3.6,1,3.6s1.1-.2,1.8-.7c.7-.5,1.5-1.2,2.4-2.1.1-.2.3-.2.4,0,.2.2.2.4,0,.5-1.5,1.7-2.8,3-4,3.8-1.2.8-2.4,1.2-3.5,1.2Z"/>
    <path class="cls-1" d="M36.9,284.3c0,0-.2,0-.4-.3-.2-.2-.3-.3-.2-.4l20.3-22.8-.4.7c-.6,1-1.1,1.7-1.6,2-.5.4-1.2.5-2.1.5s-1.9-.1-3.1-.4c-1.2-.3-2.3-.5-3.5-.8-1.1-.3-2-.4-2.8-.4s-1.4.2-1.8.7c-.4.5-.9,1.2-1.3,2.2,0,.2-.2.2-.4,0-.3-.1-.3-.3-.3-.5.7-2,1.3-3.5,1.7-4.4.5-.9,1-1.5,1.5-1.7.5-.2,1.3-.3,2.2-.3,1.5,0,3.2.4,5.2.9,2,.5,3.8.8,5.4.9.7,0,1.3-.1,1.8-.4.5-.3,1.1-.7,1.7-1.5.1,0,.3,0,.5.2.2.2.2.3.2.4l-20.2,22.9v-.7c.6-1,1.2-1.7,1.8-2,.6-.4,1.3-.5,2.2-.5s2.3.1,3.7.4c1.4.2,2.7.5,4,.7,1.3.3,2.3.4,3.1.4s1.3-.2,1.7-.6.8-1.2,1.2-2.2c0,0,.2-.1.4,0,.2,0,.3.1.3.3-.6,2-1.1,3.5-1.6,4.4-.4.9-.9,1.5-1.4,1.8-.5.2-1.2.4-2,.4-1.2,0-2.5-.2-3.9-.4-1.4-.3-2.9-.5-4.3-.8-1.5-.3-2.8-.4-4.1-.5-.7,0-1.3.1-1.8.4-.5.3-1.1.7-1.7,1.5Z"/>
    <path class="cls-1" d="M74.3,280.6l26.5-28.9h-24.8v-3.4h29.8v3.4l-26.7,28.9h27.1v3.4h-31.9v-3.4Z"/>
    <path class="cls-1" d="M133.8,273.2h-18.8l-4.9,10.9h-4l16.2-35.7h4.3l16.2,35.7h-4.3l-4.8-10.9ZM124.5,252l-8,17.8h15.8l-7.9-17.8Z"/>
    <path class="cls-1" d="M145.9,248.3h3.7v32.3h22.7v3.4h-26.4v-35.7Z"/>
    <path class="cls-1" d="M199.6,273.2h-18.8l-4.9,10.9h-4l16.2-35.7h4.3l16.2,35.7h-4.3l-4.8-10.9ZM190.2,252l-8,17.8h15.8l-7.9-17.8Z"/>
    <path class="cls-1" d="M208.6,280.6l26.5-28.9h-24.8v-3.4h29.8v3.4l-26.7,28.9h27.1v3.4h-31.9v-3.4Z"/>
    <path class="cls-1" d="M268.1,273.2h-18.8l-4.9,10.9h-4l16.2-35.7h4.3l16.2,35.7h-4.3l-4.8-10.9ZM258.7,252l-8,17.8h15.8l-7.9-17.8Z"/>
    <path class="cls-1" d="M280.7,248.3h3.7v19.3l23.1-19.3h5.4l-17.7,14.8,18.9,21h-5.2l-16.6-18.5-7.8,6.4v12.1h-3.7v-35.7Z"/>
    <path class="cls-1" d="M355.3,258.5c-.5-6.1-5.5-7.7-11.2-7.7s-10.1,2.3-10.1,6.3,4.4,5.8,13.1,7.2c6.5,1.1,13,2.6,13,9.5s-8,11.2-14.9,11.2-15.7-3.1-16.2-12.7h3.7c.7,7.5,5.7,9.3,12.5,9.3s10.9-1.5,10.9-7.1-6.5-6.1-13-7.2c-8.5-1.4-13.1-3.8-13.1-9.5s7.2-10.4,14.1-10.4,14.7,2.6,14.9,11.1h-3.7Z"/>
    <path class="cls-1" d="M396.6,270.2c0,6.5-1.8,14.7-16,14.7s-16-8.2-16-14.7v-21.9h3.7v21.9c0,9.4,6.1,11.3,12.3,11.3s12.3-2,12.3-11.3v-21.9h3.7v21.9Z"/>
    <path class="cls-1" d="M403.4,248.3h4.5l25,30.5h0v-30.5h3.7v35.7h-4.3l-25.1-30.5h-.1v30.5h-3.7v-35.7Z"/>
    <path class="cls-1" d="M478.6,270.4c-.8,8-7.4,14.5-17.7,14.5s-19-7.3-19-18.8,5.1-18.8,19-18.8,16.3,3.5,17.4,13h-3.7c-1.1-6.8-7.2-9.6-13.7-9.6s-15,5-15,15.4,4.2,15.4,15,15.4,12.7-4.3,14-11.1h3.7Z"/>
    <path class="cls-1" d="M508,273.2h-18.8l-4.9,10.9h-4l16.2-35.7h4.3l16.2,35.7h-4.3l-4.8-10.9ZM498.6,252l-8,17.8h15.8l-7.9-17.8Z"/>
    <polygon class="cls-1" points="99.5 184 96.2 186.7 92.8 184 88.7 184 94 188.2 98 188.2 103.2 184 99.5 184"/>
  </g>
</svg>