<?xml version="1.0" encoding="utf-8"?>
<!-- Generator: Adobe Illustrator 28.5.0, SVG Export Plug-In . SVG Version: 9.03 Build 54727)  -->
<svg version="1.1" id="Layer_1" xmlns="http://www.w3.org/2000/svg" xmlns:xlink="http://www.w3.org/1999/xlink" x="0px" y="0px"
	 viewBox="0 0 200 200" style="enable-background:new 0 0 200 200;" xml:space="preserve">
<style type="text/css">
	.st0{fill:#FFFFFF;}
</style>
<g>
	<g>
		<g>
			<path class="st0" d="M80.8,84.9c11.6-1.3,22-6.5,29.6-15.5c6.9-8.1,11-18.1,13.4-28.4c1.8-7.8,3-16,1.4-24
				c-1.2-5.8-4.1-13-10.8-13.9c-4.2-0.6-8.8,1.4-11.7,4.5c-3.8,4-4.9,9.7-4.6,15c1.2-0.5,2.4-1,3.6-1.4C96.9,13.9,90.5,6.2,80.8,9.1
				c-9.8,2.9-13.2,12.7-11.7,22c1.3-0.2,2.6-0.3,4-0.5c-0.8-3.5-2.8-6.5-5.8-8.5c-3-2-6.1-2.2-9.6-1.7c-4.6,0.6-9.4,2.5-12.1,6.5
				c-2.1,3-2.8,6.5-2.8,10.1c0,1.9,0.2,4.3,1,6c0.9-0.9,1.8-1.7,2.7-2.6c-4.6-1.7-9.3-4.2-14.3-4.1c-4.2,0.1-7.9,2.3-10.4,5.6
				c-3.5,4.6-3.2,10.2-0.5,15c3.1,5.6,8.1,10,13.1,13.7c4.9,3.7,10.3,6.9,15.9,9.4C59.7,84.4,70.6,85.9,80.8,84.9
				c2.6-0.3,2.1-4.2-0.5-4c-14.1,1.4-27.5-2.7-39.2-10.4c-4.8-3.1-9.5-6.7-13.3-11.1c-2.7-3.2-5.7-7.6-4.5-12c0.8-3,3.6-5.9,6.6-6.8
				c4.9-1.4,10.3,1.8,14.8,3.5c1.5,0.6,3.5-0.9,2.7-2.6c-0.3-0.7-0.2-0.4-0.3-1c-0.2-0.9-0.3-1.8-0.4-2.7c-0.2-2.4,0.1-4.9,1.1-7.1
				c1.4-3.1,4.3-4.9,7.5-5.8c2.2-0.6,5.1-1.2,7.3-0.6c3.1,0.8,5.7,3.7,6.4,6.7c0.5,2.5,4.4,2.1,4-0.5c-1.3-7.6,1-15.6,9.2-17.8
				c7.7-2.1,12.6,5.3,16.2,10.9c1.1,1.8,3.7,0.4,3.6-1.4c-0.3-4.2,0.6-9,3.7-12.1c2-2.1,5.6-3.6,8.5-2.9c5,1.2,6.6,8,7.2,12.4
				c1,7-0.1,14-1.7,20.8c-2,8.8-5.5,17.4-11,24.6c-7.1,9.2-17,14.6-28.5,15.9C77.8,81.3,78.3,85.2,80.8,84.9z"/>
		</g>
	</g>
	<g>
		<g>
			<path class="st0" d="M94.6,80.7c21.9,23.4,36.1,53.5,40.6,85.2c1.3,9,1.7,18.2,1.3,27.3c-0.1,2.5,3.8,3.2,3.9,0.6
				c1.4-32.9-7.7-65.8-25.5-93.5c-5-7.8-10.8-15.2-17.1-22C96.1,76.4,92.8,78.8,94.6,80.7L94.6,80.7z"/>
		</g>
	</g>
	<g>
		<g>
			<path class="st0" d="M127.5,127.9c2.7-5,5.4-10.1,8.2-15.1c0.5-0.9-0.1-2.2-1-2.6c-1.1-0.5-2.1,0.1-2.6,1
				c-2.7,5-5.4,10.1-8.2,15.1c-0.5,0.9,0.1,2.2,1,2.6C126,129.4,127,128.8,127.5,127.9L127.5,127.9z"/>
		</g>
	</g>
	<g>
		<g>
			<path class="st0" d="M135.5,110.8c-7.1-10.2-3.4-22.6,3.2-32c6.7-9.6,16.4-18,27.4-22.3c2.4-0.9,0.9-4.6-1.5-3.7
				c-9.5,3.7-17.9,10.3-24.5,17.9c-6.5,7.4-12.2,16.9-12.4,27c-0.2,5.7,1.5,11,4.7,15.6C133.7,115.3,136.9,112.9,135.5,110.8
				L135.5,110.8z"/>
		</g>
	</g>
	<g>
		<g>
			<path class="st0" d="M134.1,113.9c21.4-3.1,35.4-22.8,36.4-43.6c0.3-5.7-0.3-11.3-2-16.7c-0.7-2.5-4.4-0.9-3.7,1.5
				c6.9,22.8-6.4,51.3-31.2,54.9C131.1,110.3,131.6,114.3,134.1,113.9L134.1,113.9z"/>
		</g>
	</g>
	<g>
		<g>
			<path class="st0" d="M125.5,125.1c-8,0.1-15.8,2-23.8,2.1c-1.1,0-1.9,1.2-1.8,2.2c0.1,1.2,1.1,1.8,2.2,1.8c8-0.1,15.8-2,23.8-2.1
				c1.1,0,1.9-1.2,1.8-2.2C127.6,125.7,126.6,125.1,125.5,125.1L125.5,125.1z"/>
		</g>
	</g>
	<g>
		<g>
			<path class="st0" d="M102.5,128.1c-6.7-10.1-18-14.4-29.6-15.9c-13.2-1.6-26.6,2.6-36.2,11.9c-1.8,1.8,0.6,5,2.4,3.2
				c8.8-8.6,21-12.6,33.2-11.1c10.6,1.3,20.9,5.1,27,14.3C100.7,132.6,103.9,130.2,102.5,128.1L102.5,128.1z"/>
		</g>
	</g>
	<g>
		<g>
			<path class="st0" d="M36.8,128.7c8.4,6.3,17.6,12.4,28.3,13.5c13.6,1.4,26.9-4.7,38.5-11.1c2.2-1.2,0.8-4.9-1.5-3.7
				c-10.9,6-23.6,12.2-36.4,10.9c-10.1-1-18.6-6.8-26.5-12.7C37.2,124,34.7,127.2,36.8,128.7L36.8,128.7z"/>
		</g>
	</g>
</g>
</svg>
