<?xml version="1.0" encoding="utf-8"?>
<!-- Generator: Adobe Illustrator 28.5.0, SVG Export Plug-In . SVG Version: 9.03 Build 54727)  -->
<svg version="1.1" id="Layer_1" xmlns="http://www.w3.org/2000/svg" xmlns:xlink="http://www.w3.org/1999/xlink" x="0px" y="0px"
	 viewBox="0 0 200 200" style="enable-background:new 0 0 200 200;" xml:space="preserve">
<style type="text/css">
	.st0{fill:#FFFFFF;}
</style>
<g>
	<path class="st0" d="M103.5,44.7c3.7,2.6,3.8-9.4,0-17.4C103.5,27.4,99.8,42.1,103.5,44.7z"/>
	<path class="st0" d="M140.2,54.5c0,0-15.1,2.2-16.1,6.6C123.2,65.5,134.3,61,140.2,54.5z"/>
	<path class="st0" d="M66.9,54.2c0,0,12.7,8.4,16.4,5.8C87,57.4,75.7,53.3,66.9,54.2z"/>
	<path class="st0" d="M119.2,83.3c-4.5-0.1,2.1,9.9,9.7,14.4C129,97.6,123.8,83.3,119.2,83.3z"/>
	<path class="st0" d="M81,99.1c0,0,12.6-8.6,11.5-13C91.5,81.7,83.5,90.6,81,99.1z"/>
	<path class="st0" d="M127.3,128.3C127.3,128.3,127.3,128.3,127.3,128.3c0.1,0,0.2,0,0.2-0.1C127.4,128.3,127.4,128.3,127.3,128.3z"
		/>
	<path class="st0" d="M173.1,124.5c-8.2-1.2-16.4-2.3-24.7-2.4c-4.1-0.1-8.1,0.1-12.1,0.7c-3.2,0.4-6.4,0.9-9.4,2.1
		c-5,2-9.4,5.1-13.5,8.5c-3.9,3.1-7.5,6.6-10.9,10.2c-0.3,0.3-0.6,0.6-0.9,0.9c3.8-9.2,5.9-19.1,6.7-29c0.3-4.1,0.4-8.2,0.4-12.3
		c0,0,0,0,0,0v0c3.4,6,7.7,10.3,12.6,12.3c2,0.8,4,1.2,5.9,1.2c5.4,0,10.6-3,15.2-8.9c4.8-6.2,5-13.1,0.7-19.9
		c-2.9-4.5-7.4-8.4-11.8-11.5c9-1.3,16-4.8,19.9-9.9c4.8-6.4,4.1-14.3-2-22.4c-4.8-6.3-11.4-8.3-19.1-5.8c-2.9,0.9-5.7,2.4-8.3,4.1
		c1.4-8.7,0.2-16.3-3.4-21.4c-4.6-6.6-12.4-8.3-21.9-4.9c-7.4,2.6-11.3,8.3-11.3,16.4c0,3.8,0.9,7.8,2.1,11.6
		c-7-6-14.4-8.9-20.9-8.4c-8,0.7-13.4,6.5-15.3,16.4c-1.5,7.7,1.4,14,8.4,18.1c5.8,3.4,13.4,4.8,19.7,5.4c-1.6,0.9-3.1,2-4.5,3
		C67,84.1,62.3,90.9,61.5,97.6c-1,8,3.6,14.5,12.9,18.4c2.4,1,4.8,1.5,7,1.5c4.5,0,8.7-2,12.4-6c4.7-5.1,7.7-12.7,9.5-18.9
		c1,15.8,0.4,31.6-5,46.6c-4.1,11.5-11.2,21.2-20.5,28.1c0.1-1.9,0.2-3.7,0.3-5.6c0.1-5,0.1-10-0.4-15c-0.5-5.3-1.3-10.8-3.4-15.8
		c-1.2-2.9-2.9-5.4-4.8-7.9c-2.4-3.1-4.9-6.1-7.7-8.9c-5.5-5.6-11.7-10.4-18-15.1c-0.8-0.6-1.6-1.2-2.3-1.7c-0.9-0.7-2.2,0.1-2.5,1
		c-2.4,7.3-3.5,15-3.3,22.7c0.2,7.5,1.8,15.3,5.6,21.9c1.3,2.3,3.1,4.4,4.9,6.3c2,2.1,4.2,4,6.5,5.9c4.5,3.7,9.4,7,14.3,10.1
		c2.5,1.5,4.9,3.1,7.5,4.4c-5.1,3.2-10.7,5.7-16.9,7.2c-10.3,2.5-21,2.2-31-1.1c-3.1-1-4.5,3.9-1.4,4.9c18.7,6.2,40.2,2.5,56-9.3
		c7-5.2,12.5-11.8,16.6-19.2c0,0,0,0,0.1,0c2.4,0.7,4.9,1.3,7.4,1.9c5.5,1.3,11.1,2.4,16.7,3.1c5.6,0.7,11.5,1.2,17.1,0.2
		c3.3-0.6,6.5-1.9,9.5-3.4c3.5-1.8,6.7-4,9.6-6.6c5.9-5,10.9-11.2,14.6-18c0.4-0.8,0.9-1.6,1.3-2.4
		C174.6,126.1,174.3,124.7,173.1,124.5z M140.8,90.5c3,5.3,2.7,10.2-1.1,15.1c-5.2,6.8-11.1,9.1-17.1,6.6
		c-5.3-2.1-10.1-7.9-13.2-15.8c-0.3-0.8-0.6-1.6-0.9-2.4l0,0c-0.2-4-0.5-8.1-0.9-12.1c3.3-0.9,6.1-3,7.9-5.8
		c2.8,0.4,5.6,0.6,8.4,0.6c0.7,0,1.3,0,2,0C131.9,80.5,137.8,85.2,140.8,90.5z M132.2,41.1c5.9-1.5,10.6,0.1,14.3,4.9
		c5.2,6.8,5.9,13.1,2,18.2c-3.4,4.5-10.2,7.7-18.7,8.7c-1,0.1-2,0.2-3.1,0.3c-2.4,0.1-4.8,0.1-7.2-0.1c-0.8-0.1-1.6-0.1-2.4-0.2
		c0.1-0.3,0.2-0.6,0.3-0.8c0.3-1.1,0.5-2.3,0.5-3.5v-0.2c0-2.9-0.9-5.5-2.3-7.8c2.4-4.4,4.2-9,5.3-13.5
		C124.5,44.3,128.4,42.1,132.2,41.1z M88.5,31.2c0.3-6.1,3.3-10.1,9.1-12.1c2.8-1,5.4-1.5,7.7-1.5c4.4,0,7.8,1.7,10.2,5.2
		c3.3,4.6,4.2,12.1,2.6,20.4c-0.1,0.6-0.3,1.3-0.4,1.9c-0.5,2-1.1,4-1.8,6c-0.8,2.3-1.8,4.5-2.9,6.8c-0.7-0.6-1.4-1.1-2.2-1.6
		c-1-0.6-2.2-1.1-3.3-1.4c-1.2-0.3-2.5-0.5-3.8-0.5c-2.2,0-4.3,0.5-6.1,1.4c-1.4-2-2.8-4-4.4-5.8C90.4,43.8,88.2,37,88.5,31.2z
		 M60.2,66.5c-5.1-3.4-7-7.9-5.9-13.9c1.6-8.4,5.8-13.1,12.3-13.7c0.4,0,0.8,0,1.2,0c5.4,0,11.8,2.9,17.8,8.1
		c1.7,1.5,3.3,3.1,4.8,4.8c1.2,2.5,2.4,4.7,3.3,6.4c0,0.1,0.1,0.1,0.1,0.2c-2.6,2.5-4.1,6.1-4.1,10c0,0.7,0,1.3,0.1,1.9
		c0.1,0.7,0.2,1.3,0.4,1.9c-1.6,0.1-3.4,0.1-5.1,0C76.4,72.1,66.5,70.7,60.2,66.5z M90.5,109.9c-4.3,4.3-9.2,5.2-14.8,2.9
		c-7.9-3.3-11.6-8.4-10.8-14.8c0.7-5.6,5-11.8,11.8-16.9c2.7-2,5.8-3.9,9.1-5.4c0.1,0,0.2,0,0.4,0h0.7c1.6,0,3.2,0,4.9-0.1
		c2.2,3.7,6.1,6.3,10.5,6.8C100.5,91.7,96.9,103.7,90.5,109.9z M93.6,68.2c0-5.9,4.7-10.6,10.6-10.6c5.9,0,10.6,4.7,10.6,10.6
		c0,5.9-4.7,10.6-10.6,10.6C98.3,78.8,93.6,74.1,93.6,68.2z M74.7,160.4c0,1.8-0.1,3.5-0.2,5.3c-1.4-0.8-2.7-1.6-4.1-2.4
		c-4.7-2.9-9.2-5.9-13.6-9.2c0,0,0,0,0,0c-0.1,0-0.2-0.1-0.2-0.1c-0.1-0.1-0.3-0.2-0.4-0.3c-0.3-0.2-0.6-0.5-0.9-0.7
		c-0.6-0.5-1.2-0.9-1.7-1.4c-1.1-0.9-2.2-1.9-3.3-2.9c-1-0.9-2-1.9-2.9-2.9c-0.4-0.5-0.8-1-1.2-1.5c-0.1-0.1-0.2-0.2-0.3-0.3
		c0-0.1-0.1-0.1-0.1-0.2c-0.2-0.2-0.4-0.5-0.5-0.7c-0.8-1.2-1.5-2.4-2.1-3.7c-0.2-0.4-0.3-0.7-0.5-1.1c-0.1-0.1-0.1-0.2-0.2-0.3
		c0,0,0,0,0,0c-0.1-0.2-0.2-0.5-0.3-0.7c-0.3-0.8-0.6-1.7-0.9-2.6c-0.6-1.7-1-3.5-1.3-5.3c-0.1-0.5-0.2-0.9-0.2-1.4
		c0-0.2-0.1-0.4-0.1-0.6c0-0.1,0-0.2,0-0.3c0,0,0-0.1,0-0.1c0,0,0,0,0-0.1c-0.1-0.9-0.2-1.9-0.3-2.8c-0.3-3.8-0.2-7.6,0.2-11.3
		c0-0.4,0.1-0.9,0.2-1.3c0-0.1,0-0.2,0-0.3c0,0,0,0,0-0.1c0-0.3,0.1-0.5,0.1-0.8c0.1-0.9,0.3-1.9,0.5-2.8c0.3-1.8,0.8-3.6,1.3-5.3
		c0-0.1,0-0.1,0.1-0.2c1,0.7,1.9,1.4,2.9,2.2c0.2,0.1,0.4,0.3,0.5,0.4c0.1,0.1,0.2,0.1,0.3,0.2c0,0,0.1,0,0.1,0.1
		c0.4,0.3,0.8,0.6,1.1,0.9c0.7,0.6,1.5,1.2,2.2,1.8c3,2.4,5.9,4.9,8.7,7.5c2.8,2.6,5.4,5.4,7.8,8.3c0.3,0.4,0.6,0.7,0.8,1.1
		c0,0,0.1,0.1,0.1,0.1c0.1,0.1,0.1,0.2,0.2,0.2c0.2,0.2,0.3,0.5,0.5,0.7c0.6,0.8,1.1,1.6,1.7,2.4c0.8,1.1,1.5,2.2,2.1,3.5
		c0.1,0.2,0.2,0.5,0.3,0.7c0.1,0.1,0.1,0.2,0.2,0.4c0,0.1,0.1,0.1,0.1,0.2c0.2,0.6,0.4,1.1,0.6,1.7c0.4,1.2,0.7,2.4,1,3.6
		c0.3,1.3,0.6,2.6,0.8,4c0.1,0.3,0.1,0.6,0.2,1c0,0.2,0,0.3,0.1,0.5c0,0.1,0,0.2,0,0.2c0,0.1,0.1,0.4,0,0.1c0-0.3,0,0.3,0,0.3
		c0,0.2,0,0.3,0.1,0.5c0,0.3,0.1,0.7,0.1,1C74.6,150.2,74.8,155.3,74.7,160.4z M165.4,134.7c-0.1,0.2-0.3,0.4-0.4,0.6
		c-0.1,0.1-0.1,0.2-0.2,0.3c0,0-0.1,0.1-0.1,0.1c-0.3,0.4-0.6,0.7-0.9,1.1c-0.6,0.7-1.2,1.5-1.8,2.2c-1.3,1.4-2.6,2.8-4,4.1
		c-0.7,0.7-1.4,1.3-2.2,1.9c-0.3,0.3-0.7,0.6-1,0.8c-0.2,0.2-0.4,0.3-0.6,0.5c-0.1,0.1-0.2,0.1-0.3,0.2c0,0-0.1,0.1-0.2,0.1
		c-1.5,1.1-3,2.2-4.7,3.1c-0.8,0.5-1.6,0.9-2.5,1.4c-0.4,0.2-0.7,0.4-1.1,0.5c-0.2,0.1-0.4,0.2-0.6,0.3c-0.1,0-0.2,0.1-0.3,0.1
		c0,0-0.2,0.1-0.3,0.1c-0.1,0-0.1,0.1-0.1,0.1c-0.1,0-0.2,0.1-0.4,0.1c-0.2,0.1-0.4,0.1-0.6,0.2c-0.4,0.2-0.9,0.3-1.3,0.5
		c-0.8,0.3-1.5,0.5-2.3,0.7c-0.6,0.1-1.2,0.3-1.7,0.4c-0.3,0-0.5,0.1-0.8,0.1c0.5-0.1,0,0-0.1,0c-0.2,0-0.4,0-0.5,0.1
		c-1.3,0.1-2.6,0.2-4,0.2c-2.9,0-5.8-0.2-8.7-0.5c-0.7-0.1-1.5-0.2-2.2-0.3c0,0,0,0-0.1,0c-0.1,0-0.2,0-0.2,0c-0.2,0-0.3,0-0.5-0.1
		c-0.4-0.1-0.7-0.1-1.1-0.2c-1.5-0.2-2.9-0.5-4.4-0.7c-2.6-0.5-5.2-1-7.8-1.6c-2.1-0.5-4.2-1-6.2-1.6c0.8-0.8,1.5-1.7,2.3-2.5
		c3.2-3.4,6.6-6.7,10.2-9.8c1-0.9,2-1.7,3.1-2.5c0.1-0.1,0.1-0.1,0.2-0.2c0,0,0,0,0,0c0,0,0.2-0.2,0.3-0.2c0.3-0.2,0.6-0.4,0.9-0.6
		c0.5-0.4,1-0.8,1.6-1.1c2.1-1.4,4.2-2.8,6.5-3.8c0.3-0.1,0.5-0.2,0.8-0.3c0,0,0.1,0,0.1,0c0,0,0,0,0,0c0,0,0,0,0,0c0,0,0.1,0,0.1,0
		c0.1,0,0.1,0,0.1,0c0.1,0,0.2-0.1,0.2-0.1c0.5-0.2,1.1-0.4,1.6-0.6c1.4-0.5,2.9-0.7,4.4-1c0.5-0.1,0.9-0.2,1.4-0.2
		c0.3,0,0.5-0.1,0.8-0.1c0.1,0,0.3,0,0.4-0.1c0,0,0.1,0,0.1,0c0,0,0,0,0.1,0c1-0.1,1.9-0.2,2.9-0.3c2-0.2,4-0.3,6.1-0.3
		c4-0.1,8,0.1,12,0.5c2,0.2,4.1,0.4,6.1,0.6c1,0.1,2,0.2,3,0.4c0.6,0.1,0.6,0.1,1.2,0.2c0.5,0.1,1.1,0.1,1.6,0.2
		c0.3,0,0.5,0.1,0.8,0.1C168.6,130,167.1,132.4,165.4,134.7z"/>
	<path class="st0" d="M62.6,141.3c-0.5-0.6-0.9-1.1-1.4-1.7c-0.1-0.1-0.2-0.3-0.3-0.4c0,0-0.1-0.1-0.1-0.1c0,0,0,0,0-0.1
		c-0.2-0.3-0.4-0.6-0.7-0.9c-0.9-1.2-1.7-2.4-2.6-3.6c-3.3-4.8-6.1-9.9-8.5-15.2c-0.2-0.4-0.3-0.7-0.5-1.1c-0.1-0.2-0.2-0.4-0.2-0.5
		c0-0.1-0.1-0.2-0.1-0.2c0-0.1,0-0.1-0.1-0.2c0.1,0.1,0.1,0.1,0,0c-0.3-0.7-0.6-1.5-0.9-2.2c-0.6-1.5-1.2-3.1-1.7-4.7
		c-0.3-0.8-1.2-1.5-2.1-1.2c-0.8,0.3-1.5,1.2-1.2,2.1c1.9,5.7,4.3,11.2,7.1,16.4c2.9,5.2,6.2,10.2,9.9,14.9c2.1,2.6,4.3,5.1,6.6,7.4
		c0.6,0.6,1.8,0.7,2.4,0c0.6-0.7,0.7-1.7,0-2.4C66.4,145.7,64.4,143.5,62.6,141.3z"/>
	<path class="st0" d="M155.1,134.4c-9.2,7-20.7,9.1-32,9.8c-3.5,0.2-7,0.3-10.5,0.4c-0.9,0-1.7,0.8-1.7,1.7c0,0.9,0.7,1.7,1.7,1.7
		c12.2-0.3,24.8-0.7,36.1-5.8c2.9-1.3,5.6-2.9,8.1-4.8c0.7-0.5,1.1-1.5,0.6-2.3C157,134.3,155.9,133.8,155.1,134.4z"/>
</g>
</svg>
