<?xml version="1.0" encoding="utf-8"?>
<!-- Generator: Adobe Illustrator 28.5.0, SVG Export Plug-In . SVG Version: 9.03 Build 54727)  -->
<svg version="1.1" id="Layer_1" xmlns="http://www.w3.org/2000/svg" xmlns:xlink="http://www.w3.org/1999/xlink" x="0px" y="0px"
	 viewBox="0 0 200 200" style="enable-background:new 0 0 200 200;" xml:space="preserve">
<style type="text/css">
	.st0{fill:#FFFFFF;}
</style>
<g>
	<g>
		<g>
			<path class="st0" d="M137.2,17.9c-0.8-3.5-2-8.4-4.8-10.9c-2.1-1.8-5.1-1.5-7.5-0.5c-6,2.6-11.3,8.3-14.8,13.7
				c-8.5,12.9-12.4,29.1-10.8,44.4c0.7,6.7,2.5,13.5,4.9,19.8c1.1,3,4.7,11.4,9.2,8.6c1.5-0.9,2.5-2.6,3.4-4.1
				c1.2-2.1,2.3-4.3,3.3-6.5c1.8-4,3.3-8.1,5.2-12.1C132.8,53.9,141.1,36.3,137.2,17.9c-0.5-2.2-3.9-1.8-3.4,0.4
				c3,14.3-1.8,28.6-7.5,41.6c-2.1,4.8-4.4,9.5-6.4,14.3c-1.6,3.9-3.1,7.7-5.1,11.4c-0.7,1.4-1.6,3-2.7,4.1
				c-0.1,0.1-0.5,0.5-0.4,0.4c-0.1,0.2,0.3,0.1,0.3,0c-0.1-0.2-0.7-0.5-0.9-0.7c-0.5-0.4-0.8-1-1.2-1.5c-2.7-4.1-4-9.4-5.3-14.2
				c-3.7-13.7-2.3-28.6,3.2-41.7c3-7.2,7.2-13.9,13.2-18.9c2-1.6,4.3-3.6,6.9-4c3.9-0.6,5.3,6.3,5.9,9.1
				C134.3,20.4,137.7,20.1,137.2,17.9z"/>
		</g>
	</g>
	<g>
		<g>
			<path class="st0" d="M182.9,94.4c3.7-2.6,9.5-7.3,5.2-11.9c-3.2-3.4-8.7-5.1-13.1-6.3c-11.9-3.3-25.1-2.7-36.9,0.3
				c-5.7,1.5-11.1,3.6-16.2,6.5c-2.5,1.4-4.9,3-7.1,4.8c-2.1,1.6-4.7,3.7-5.6,6.3c-2.1,6.1,7.8,7.6,11.7,8.2
				c6.5,0.9,13.1,1.3,19.6,1.4C154.7,103.8,170.7,102.4,182.9,94.4c1.9-1.2-0.2-4-2.1-2.7c-9.2,6.1-21.1,7.8-31.9,8.4
				c-5.6,0.3-11.2,0.2-16.9-0.2c-5.4-0.4-11.3-0.5-16.4-2.2c-0.8-0.3-2.6-0.8-3.1-1.7c-0.6-1.2,1.3-2.8,2.1-3.5
				c1.9-1.8,4-3.3,6.2-4.8c4.1-2.7,8.6-4.8,13.2-6.4c9.7-3.4,20.3-4.5,30.5-3.5c5.5,0.5,10.9,1.8,16,4c1.7,0.7,4.6,1.8,5.5,3.6
				c1.1,2.2-3.8,5.2-5.2,6.3C179,92.9,181.1,95.6,182.9,94.4z"/>
		</g>
	</g>
	<g>
		<g>
			<path class="st0" d="M157.4,134.7c2.4-1.7,5.7-4.1,6.7-7c0.7-2.1-0.6-4.2-2.1-5.5c-3.8-3.4-9.6-5-14.4-6.2
				c-12.3-3.1-25.5-1.4-37.5,2.5c-6.9,2.3-13.6,5.4-19.7,9.4c-2.8,1.9-9.2,5.1-5,8.8c2.7,2.3,6.6,3.6,9.9,4.7
				c5.5,1.9,11.3,2.9,17,3.2c7.6,0.4,15.3-0.2,22.8-1.7C142.8,141.2,150.7,139.1,157.4,134.7c1.9-1.2-0.2-4-2.1-2.7
				c-5.2,3.4-11.4,5.3-17.5,6.7c-5.7,1.4-11.5,2.2-17.3,2.5c-9.5,0.4-19.1-0.9-27.9-4.5c-1.4-0.6-2.8-1.2-4.1-2
				c-0.3-0.2-0.9-0.9-1.2-0.9c0-0.1-0.1-0.1-0.1-0.2c0.2,0.2,0.2,0.4,0.1,0.7c-0.4,0.4-0.2,0.4,0.4-0.2c0.4-0.3,0.8-0.6,1.2-0.9
				c4.8-3.6,10.1-6.6,15.6-8.9c10.4-4.4,21.9-7,33.2-6.3c5.7,0.4,11.2,1.6,16.5,3.8c2.1,0.8,4.8,1.8,6.3,3.7c1.7,2.3-3.4,5.5-5,6.6
				C153.5,133.2,155.5,136,157.4,134.7z"/>
		</g>
	</g>
	<g>
		<g>
			<path class="st0" d="M75.9,63.5c-1.8-2.4-4.5-6-7.7-6.6c-2.6-0.5-4.7,1.6-5.9,3.6c-3.3,5.1-4.8,11.7-5.5,17.6
				c-1.7,14.1,1.3,28.3,7.7,40.9c3.2,6.3,7.1,12.2,11.6,17.6c1.2,1.5,3,4.2,5.3,3.2c1.3-0.6,1.9-2.1,2.3-3.3
				c1.3-3.9,1.7-8.2,2.1-12.3c0.4-3.8,0.6-7.5,0.7-11.3c0.3-8.5-0.1-17-1.6-25.3C83.4,79.2,80.9,70.6,75.9,63.5
				c-1.3-1.8-4,0.3-2.7,2.1c7.6,10.7,9.5,25.3,9.9,38.1c0.3,8.2-0.1,16.6-1.2,24.7c-0.2,1.8-0.5,3.5-0.9,5.2
				c-0.1,0.4-1.1,3.2-1.2,3.1c0,0,0.2-0.2,0.2-0.1c0.5,0,0.5,0,0.5-0.3c0-0.3-1-1.1-1.2-1.4c-1.1-1.2-2.1-2.5-3.1-3.8
				c-1.8-2.3-3.5-4.8-5-7.3c-6.4-10.3-10.6-22.1-11.3-34.3c-0.4-7,0.3-14.1,2.5-20.7c0.8-2.5,1.7-5.2,3.4-7.3
				c1.1-1.3,1.8-1.5,3.2-0.4c1.6,1.2,3,2.8,4.2,4.4C74.5,67.4,77.3,65.3,75.9,63.5z"/>
		</g>
	</g>
	<g>
		<g>
			<path class="st0" d="M110.7,91.1C94,120.2,74,147.9,47.4,168.8c-7.4,5.8-15.3,11.1-23.5,15.7c-1.9,1.1,0.2,3.8,2.1,2.7
				c29.6-16.9,53.3-41.4,72.3-69.5c5.6-8.2,10.7-16.7,15.7-25.4C115,90.5,111.8,89.2,110.7,91.1L110.7,91.1z"/>
		</g>
	</g>
	<g>
		<g>
			<path class="st0" d="M120.3,28.8c-2.8,13.1-5.6,26.3-8.5,39.4c-0.5,2.2,2.9,2.6,3.4,0.5c2.8-13.1,5.6-26.3,8.5-39.4
				C124.2,27.1,120.8,26.6,120.3,28.8L120.3,28.8z"/>
		</g>
	</g>
	<g>
		<g>
			<path class="st0" d="M164.3,84.8c-10.8,1.8-21.7,3.7-32.5,5.5c-2.2,0.4-1.8,3.8,0.4,3.4c10.8-1.8,21.7-3.7,32.5-5.5
				C166.9,87.9,166.5,84.5,164.3,84.8L164.3,84.8z"/>
		</g>
	</g>
	<g>
		<g>
			<path class="st0" d="M65.5,81.6c2.5,11,5,22,7.5,32.9c0.5,2.1,3.9,1.8,3.4-0.4c-2.5-11-5-22-7.5-32.9C68.4,79,65,79.4,65.5,81.6
				L65.5,81.6z"/>
		</g>
	</g>
	<g>
		<g>
			<path class="st0" d="M144.4,126.3c-11.9,0.5-23.8,1.1-35.6,1.6c-2.2,0.1-1.8,3.5,0.4,3.4c11.9-0.5,23.8-1.1,35.6-1.6
				C147,129.6,146.6,126.2,144.4,126.3L144.4,126.3z"/>
		</g>
	</g>
</g>
</svg>
