<?xml version="1.0" encoding="UTF-8"?>
<svg id="Layer_1" data-name="Layer 1" xmlns="http://www.w3.org/2000/svg" version="1.1" viewBox="0 0 519 286.9">
  <defs>
    <style>
      .cls-1 {
        fill: #fff;
        stroke-width: 0px;
      }
    </style>
  </defs>
  <g>
    <path class="cls-1" d="M5.3,7.1h9.3l51.9,63.5h.2V7.1h7.7v74.3h-8.9L13.2,17.9h-.2v63.5h-7.7V7.1Z"/>
    <path class="cls-1" d="M89.4,7.1h59.1v7.1h-51.4v25.2h49.5v7.1h-49.5v27.9h52.2v7.1h-59.9V7.1Z"/>
    <path class="cls-1" d="M160.6,7.1h40.1c11.4,0,22.4,5.7,22.4,21.4s-9.3,21.6-25.8,21.6h-28.9v31.2h-7.7V7.1ZM168.3,43.1h29.8c12.9,0,16.6-5.9,16.6-14.6s-6.2-14.4-15.1-14.4h-31.3v28.9Z"/>
    <path class="cls-1" d="M233.9,7.1h40.5c12.6,0,24.1,4.5,24.1,20.1s-4.9,15.8-14.6,18v.2c10.5,1.7,12.7,8.4,13.2,20.6.2,4.7.8,13.7,2.6,15.4h-8.3c-1.4-1.6-1.9-7.1-2-15.2-.2-13.1-5.2-17.5-18-17.5h-29.9v32.7h-7.7V7.1ZM241.6,41.7h32.6c8.4,0,16-3.1,16-14.5s-8.2-13-15.3-13h-33.3v27.5Z"/>
    <path class="cls-1" d="M347.2,5.3c21.1,0,40.4,12.8,40.4,39s-19.2,39-40.4,39-40.4-12.8-40.4-39,19.2-39,40.4-39ZM347.2,76.2c16.3,0,32-9.6,32-31.9s-15.7-31.9-32-31.9-32,9.6-32,31.9,15.7,31.9,32,31.9Z"/>
    <path class="cls-1" d="M55.7,130.1c-1-12.7-11.3-16-23.3-16s-21,4.7-21,13.1,9.1,12,27.2,15c13.5,2.3,27,5.4,27,19.7s-16.5,23.2-31,23.2S2,178.6.8,158.6h7.7c1.4,15.6,11.8,19.4,26,19.4s22.7-3,22.7-14.8-13.5-12.7-27-14.9c-17.7-2.8-27.2-7.8-27.2-19.8s15-21.5,29.3-21.5,30.5,5.4,31,23.1h-7.7Z"/>
    <path class="cls-1" d="M76.1,108.9h40.1c11.4,0,22.4,5.7,22.4,21.4s-9.3,21.6-25.8,21.6h-28.9v31.2h-7.7v-74.3ZM83.8,144.8h29.8c12.9,0,16.6-5.9,16.6-14.6s-6.2-14.4-15.1-14.4h-31.3v28.9Z"/>
    <path class="cls-1" d="M194.3,160.6h-39.1l-10.1,22.6h-8.3l33.7-74.3h8.9l33.7,74.3h-8.9l-9.9-22.6ZM174.8,116.5l-16.5,36.9h32.9l-16.3-36.9Z"/>
    <path class="cls-1" d="M273.1,108.9h8.3l-32.9,74.3h-8.3l-33.2-74.3h8.9l28.7,65.5,28.4-65.5Z"/>
    <path class="cls-1" d="M332.9,160.6h-39.1l-10.1,22.6h-8.3l33.7-74.3h8.9l33.7,74.3h-8.9l-9.9-22.6ZM313.5,116.5l-16.5,36.9h32.9l-16.3-36.9Z"/>
    <path class="cls-1" d="M358,108.9h9.3l51.9,63.5h.2v-63.5h7.7v74.3h-8.9l-52.2-63.5h-.2v63.5h-7.7v-74.3Z"/>
    <path class="cls-1" d="M442.1,108.9h59.1v7.1h-51.4v25.2h49.5v7.1h-49.5v27.9h52.2v7.1h-59.9v-74.3Z"/>
  </g>
  <g>
    <path class="cls-1" d="M16.3,270.3c-1.3,0-2.1,0-2.5-.2s-.6-.3-.6-.6.2-1.6.7-3.6c.5-2.1.9-4.2,1.3-6.6l5.5-29.9c.9-5.3.1-7.9-2.3-7.9s-2.3.5-3.9,1.6c-1.6,1.1-3.4,2.6-5.4,4.6-.3.4-.6.3-1,0-.4-.4-.4-.7,0-1,3-3.5,5.8-6.1,8.4-7.8,2.5-1.7,5-2.5,7.3-2.5s3.5,1,4.1,2.9c.6,1.9.5,5.2-.3,10l-7,39.1c-.2,1.3-1.6,2-4.3,2ZM50.5,270.4c-2.3,0-3.8-1-4.4-2.9-.6-2-.4-5.4.5-10.2l3.9-21.3c2.1-10,.4-15-5-15s-5.9,1.8-9,5.5c-3.1,3.7-6.1,9-8.9,16.1-2.8,7.1-5.2,15.6-7,25.7h-1.6c1.9-10.6,4.4-19.7,7.5-27.6,3.1-7.9,6.7-14,10.8-18.4,4.1-4.4,8.3-6.6,12.7-6.6s6.4,1.4,7.7,4.2c1.3,2.8,1.3,7.3,0,13.5l-4.4,23.8c-.4,2.7-.4,4.6,0,5.9.4,1.3,1.2,1.9,2.3,1.9s2.2-.6,3.8-1.7c1.5-1.1,3.2-2.6,5.1-4.5.3-.4.6-.4,1,0,.4.4.4.7,0,1.1-2.9,3.3-5.5,5.9-7.9,7.7s-4.8,2.7-7.1,2.7Z"/>
    <path class="cls-1" d="M88.3,271.1c-4.3,0-7.8-1.3-10.6-3.8-2.8-2.5-4.6-5.8-5.6-10-1-4.2-1-8.8,0-13.9,1-5.3,2.9-10,5.6-14.1,2.8-4.2,6.1-7.4,10-9.8,3.9-2.4,8.1-3.6,12.5-3.6s8.4,1.3,11.2,3.8c2.8,2.5,4.7,5.9,5.6,10,.9,4.2.9,8.7-.2,13.7-1.1,5.6-3.1,10.5-6.1,14.7-3,4.2-6.5,7.4-10.5,9.6-4,2.2-8,3.3-12,3.3ZM92.9,267.8c3.7,0,7-1.6,10.1-4.9,3.1-3.3,5.2-7.8,6.2-13.6.6-3.3.8-6.7.7-10.2-.2-3.5-.8-6.8-1.9-9.8-1.1-3-2.6-5.5-4.6-7.4-2-1.9-4.4-2.8-7.2-2.8s-7.2,1.7-10.3,5c-3.1,3.3-5.3,7.9-6.4,13.7-.7,3.5-.9,7-.7,10.5s1,6.7,2.1,9.7c1.1,3,2.7,5.4,4.7,7.2,2,1.8,4.4,2.7,7.3,2.7Z"/>
    <path class="cls-1" d="M142,271c-3.8,0-7-.9-9.4-2.6-2.5-1.7-4.3-4-5.6-6.8-1.3-2.8-2-5.9-2.1-9.3-.2-3.4,0-6.7.8-10,1.2-5.6,3.3-10.4,6.4-14.3,3.1-3.9,6.6-6.9,10.6-9,4-2.1,7.9-3.1,11.7-3.1s4.1.3,6,1c1.8.7,3.3,1.6,4.3,2.7,1,1.2,1.5,2.5,1.3,4.2,0,1.2-.5,2.2-1.2,3-.7.9-1.8,1.3-3.2,1.3s-2.3-.4-3-1.2c-.8-.8-1.4-1.8-1.8-3.1-.3-1.1-.9-2.2-2-3.3-1.1-1.1-2.7-1.7-5-1.7s-5.5.9-7.6,2.6c-2.1,1.7-3.9,4.1-5.2,7-1.3,2.9-2.3,6.1-3,9.7-.9,4.9-1.1,9.5-.5,13.9.6,4.3,2,7.8,4.4,10.5,2.3,2.6,5.6,4,9.9,4s5.6-.6,7.9-1.9c2.3-1.2,4.4-2.6,6.3-4.2.3-.2.6,0,.9.3.4.4.4.7.1.9-3.7,3.3-7.2,5.7-10.7,7.2-3.5,1.5-6.9,2.3-10.2,2.3ZM152.2,205.9c0,.3-.4.3-.9.1-.5-.2-.6-.4-.5-.5l12.5-32.2c.2-.3.7-.6,1.6-.9.9-.4,1.9-.6,3.1-.8,1.2-.2,2.1-.3,2.9-.3s1.1.2.9.5l-19.7,34Z"/>
    <path class="cls-1" d="M181.8,270.4c-2.1,0-3.6-.9-4.3-2.8-.7-1.9-.6-5.3.4-10.3l5.5-27.9c1-5.3.2-7.9-2.3-7.9s-2.3.5-4,1.6c-1.7,1.1-3.4,2.6-5.3,4.6-.3.4-.6.3-1,0-.4-.4-.4-.7,0-1,3-3.5,5.8-6.1,8.3-7.8,2.5-1.7,4.9-2.5,7.2-2.5s3.7,1,4.3,2.9c.6,1.9.4,5.2-.5,10l-5.4,28.1c-.5,2.7-.6,4.6-.1,5.9.4,1.3,1.2,1.9,2.3,1.9s2.3-.5,3.9-1.5c1.6-1,3.3-2.5,5.2-4.4.4-.4.7-.4,1.1,0,.4.4.4.7,0,1.1-2.9,3.3-5.7,5.8-8.1,7.6-2.5,1.7-4.8,2.6-7.2,2.6ZM190.2,200.5c-1.8,0-3.2-.5-4.2-1.5-1-1-1.5-2.4-1.5-4.3s.5-3,1.5-4c1-1,2.4-1.5,4.2-1.5s3.3.5,4.2,1.5c.9,1,1.4,2.3,1.4,4,0,3.8-1.9,5.8-5.6,5.8Z"/>
  </g>
</svg>