<?xml version="1.0" encoding="UTF-8"?>
<svg id="Layer_1" data-name="Layer 1" xmlns="http://www.w3.org/2000/svg" version="1.1" viewBox="0 0 519 196.4">
  <defs>
    <style>
      .cls-1 {
        fill: #fff;
        stroke-width: 0px;
      }
    </style>
  </defs>
  <g>
    <path class="cls-1" d="M71.9,85h9.3l-36.6,82.8h-9.3L-1.7,85h10l32,73,31.7-73Z"/>
    <path class="cls-1" d="M88.5,85h65.9v7.9h-57.3v28.1h55.2v7.9h-55.2v31.1h58.2v7.9h-66.8v-82.8Z"/>
    <path class="cls-1" d="M248.6,136.3c-1.9,18.5-17.2,33.6-40.9,33.6s-44.1-16.9-44.1-43.5,11.7-43.5,44.1-43.5,37.7,8.2,40.2,30h-8.6c-2.6-15.8-16.7-22.1-31.7-22.1s-34.8,11.5-34.8,35.6,9.6,35.6,34.8,35.6,29.4-10,32.3-25.7h8.6Z"/>
    <path class="cls-1" d="M262.4,85h65.9v7.9h-57.3v28.1h55.2v7.9h-55.2v31.1h58.2v7.9h-66.8v-82.8Z"/>
    <path class="cls-1" d="M341.8,85h45.1c14,0,26.9,5,26.9,22.4s-5.4,17.6-16.2,20.1v.2c11.7,1.9,14.1,9.4,14.7,23,.2,5.2.9,15.3,2.9,17.2h-9.3c-1.5-1.7-2.1-7.9-2.2-16.9-.2-14.6-5.8-19.5-20.1-19.5h-33.3v36.4h-8.6v-82.8ZM350.4,123.5h36.3c9.4,0,17.9-3.5,17.9-16.1s-9.2-14.5-17-14.5h-37.1v30.6Z"/>
    <path class="cls-1" d="M482.1,142.6h-43.6l-11.2,25.2h-9.3l37.6-82.8h10l37.6,82.8h-10l-11-25.2ZM460.4,93.6l-18.4,41.2h36.6l-18.2-41.2Z"/>
    <path class="cls-1" d="M208.3,76h9.3l-6.6,13.8h-9.3l-7-13.8h10l2,4,1.7-4Z"/>
  </g>
  <g>
    <path class="cls-1" d="M34.8,71.6c-.2,0-.3-.2-.3-.5s0-.5.3-.5c2.2,0,3.9-.7,5.1-2,1.3-1.3,2.1-3.5,2.6-6.5l7.9-44.6,1.6.2-7.6,44.5c-.5,3-.5,5.2.2,6.5.7,1.3,2.1,2,4.4,2s.2.2.2.5,0,.5-.2.5c-1,0-2.1,0-3.2,0-1.1,0-2.4,0-3.9,0s-2.5,0-3.7,0c-1.2,0-2.3,0-3.4,0ZM77.9,72.6l-25.9-49.9c-1.3-2.5-2.6-4.1-3.8-5-1.2-.9-2.4-1.3-3.7-1.3s-.3-.2-.3-.5,0-.5.3-.5c.9,0,1.9,0,3,0,1.1,0,2,0,2.9,0s1.5,0,2.3,0c.7,0,1.3,0,1.6,0,.7,0,1.1.3,1.3,1,.2.7.7,1.9,1.4,3.6l22.9,44.3-.6,8.2c0,.2-.2.4-.6.4-.4,0-.6,0-.8-.3ZM79.3,72.5l-1.2-3.3,7.7-44.2c.5-3,.5-5.2-.2-6.5-.7-1.4-2.1-2-4.3-2s-.3-.2-.3-.5,0-.5.3-.5c1,0,2,0,3.1.1,1.1,0,2.4.1,3.9.1s2.5,0,3.7-.1c1.2,0,2.4-.1,3.5-.1s.2.2.2.5,0,.5-.2.5c-2.2,0-3.9.7-5.2,2-1.3,1.4-2.2,3.5-2.7,6.5l-8.5,47.5Z"/>
    <path class="cls-1" d="M106.3,72.7c-3.2,0-5.7-.8-7.5-2.5-1.8-1.7-3-3.9-3.6-6.6-.6-2.7-.6-5.6,0-8.6.4-2.2,1.2-4.5,2.4-6.8,1.2-2.3,2.8-4.4,4.6-6.3,1.9-1.9,3.9-3.4,6.2-4.5,2.3-1.1,4.7-1.7,7.3-1.7s3.9.4,4.9,1.3c1,.9,1.5,2.1,1.2,3.6-.3,1.4-1.1,2.8-2.5,4.1-1.4,1.3-3.1,2.5-5.3,3.6-2.2,1.1-4.6,2-7.2,2.7-2.7.8-5.4,1.3-8.3,1.6l.2-1.2c4.6-.7,8.5-1.7,11.7-3.2,3.1-1.5,5-3.4,5.5-5.8.4-1.6.1-2.7-.8-3.4-1-.6-2-.9-3.2-.9-2,0-3.8.6-5.3,1.9-1.5,1.3-2.7,2.9-3.7,5-1,2.1-1.7,4.4-2.1,6.9-.7,3.4-.7,6.4-.2,9,.5,2.6,1.5,4.7,3.1,6.3,1.6,1.6,3.6,2.3,6.1,2.3s2.9-.2,4.5-.6c1.6-.4,3.1-1.2,4.6-2.3.2-.1.4,0,.6.2.2.2.2.5,0,.6-2.3,1.9-4.5,3.2-6.7,4-2.2.8-4.3,1.2-6.5,1.2Z"/>
    <path class="cls-1" d="M123.3,72.3c-.1,0-.3,0-.5-.3-.2-.3-.3-.4-.2-.5l28.4-32.2-.5,1c-.8,1.1-1.5,1.8-2.2,2.2-.7.4-1.6.6-2.9.6s-2.7-.2-4.5-.5c-1.7-.4-3.3-.7-4.9-1.1-1.6-.4-2.8-.5-3.8-.5s-1.8.4-2.4,1.1c-.6.7-1.2,1.8-1.8,3.2,0,.2-.3.3-.6.2-.4-.1-.5-.3-.4-.6,1-2.7,1.8-4.6,2.4-5.8.6-1.2,1.3-2,2.1-2.3.7-.3,1.8-.5,3-.4,2.1.1,4.5.5,7.3,1.2,2.8.7,5.3,1.1,7.6,1.2,1,0,1.8-.2,2.5-.5.7-.4,1.5-1,2.4-2.1.2-.1.4,0,.6.2.2.3.3.5.1.6l-28.3,32.2.4-1.1c.8-1.1,1.5-1.8,2.2-2.2.7-.4,1.7-.5,3-.5s3.2.2,5.2.5c1.9.3,3.8.7,5.7,1,1.8.4,3.3.5,4.4.5s1.8-.3,2.4-.9c.6-.6,1.1-1.7,1.7-3.2,0-.1.3-.1.6,0,.3,0,.5.2.4.4-.8,2.6-1.6,4.6-2.2,5.8-.6,1.2-1.3,2-2,2.3-.7.3-1.6.5-2.8.5-1.7,0-3.5-.3-5.5-.6-2-.4-4-.7-6.1-1.1-2-.4-4-.6-5.8-.7-1,0-1.8.2-2.5.5-.7.4-1.5,1.1-2.4,2.1Z"/>
    <path class="cls-1" d="M161.4,72.8c-2,0-3.5-.7-4.5-2.2-1-1.4-1.3-3.8-.9-7.2.5-3.2,1.5-6.5,3.1-9.8,1.6-3.3,3.5-6.3,5.9-9,2.3-2.7,4.8-4.9,7.3-6.5,2.6-1.6,5-2.5,7.4-2.5s2.2.2,3.3.6c1,.4,2,1.1,2.7,2,.8.9,1.2,2.1,1.4,3.6l-3.9-2.4c.8-.1,1.7-.6,2.7-1.5,1-.9,1.6-1.9,1.9-3,.1-.2.3-.2.7-.2.3,0,.5.2.4.3l-5.2,28.5c-.6,3.5-.2,5.2,1.4,5.2s1.5-.4,2.6-1.1c1-.7,2.2-1.8,3.4-3,.2-.2.4-.1.6,0,.2.2.3.4,0,.6-1.9,2.2-3.7,3.9-5.3,5.2-1.6,1.2-3.2,1.8-4.8,1.8s-2.4-.7-2.8-2c-.4-1.3-.3-3.6.3-6.8l2.2-12.6,1.5-1.5c-1.8,4.6-3.9,8.6-6.3,12.1-2.4,3.5-4.9,6.3-7.5,8.2-2.6,2-5.1,3-7.6,3ZM164.7,68.4c1.7,0,3.4-.7,5.2-2,1.8-1.3,3.5-3,5.2-5.2,1.6-2.1,3.1-4.5,4.3-7,1.2-2.5,2.1-5.1,2.6-7.5.5-2.2.3-4.1-.6-5.6-.9-1.5-2.5-2.2-4.7-2.2-2.1,0-4.2,1-6.4,2.8-2.2,1.8-4.1,4.3-5.8,7.3-1.7,3-2.8,6.5-3.4,10.4-.4,3-.3,5.3.2,6.8.6,1.5,1.7,2.2,3.4,2.2Z"/>
    <path class="cls-1" d="M206.4,72.8c-3,0-5.3-.7-7-2.2-1.7-1.4-2.2-3.4-1.8-5.9l9.2-48.8c.4-2.2.1-3.5-.8-4-.9-.5-2.7-.1-5.4,1.2-.2.1-.4,0-.5-.4-.1-.4,0-.6.2-.6l11.5-5.7c.3-.1.6,0,.8.2.2.2.3.4.3.5l-10.3,55.9c-.4,2.2.2,4,1.6,5.4,1.4,1.4,3.4,2.1,5.9,2.1s3.9-.7,5.8-2.2c1.9-1.4,3.7-3.6,5.3-6.3,1.6-2.8,2.7-6.2,3.3-10.1.5-2.2.6-4.2.5-6-.2-1.8-.6-3.3-1.5-4.4-.8-1.1-2.1-1.7-3.9-1.7-2.5,0-4.8,1-7.1,2.9-2.3,2-4.3,4.7-6,8.1-1.7,3.5-3,7.5-3.9,12.1l-.5-1.8c.5-3.4,1.5-6.7,2.9-9.8,1.4-3.1,3-5.8,5-8.1,1.9-2.3,4.1-4.2,6.4-5.5,2.3-1.4,4.6-2,7-2s4.9,1.2,6.2,3.7c1.3,2.5,1.6,5.7.8,9.6-.8,3.9-2.1,7.3-3.9,10.3-1.8,3-3.9,5.4-6.2,7.4-2.3,2-4.7,3.5-7.2,4.5s-4.7,1.5-6.7,1.5Z"/>
    <path class="cls-1" d="M246.1,72.9c-2.9,0-5.3-.8-7.1-2.5-1.9-1.7-3.1-3.9-3.8-6.8-.7-2.8-.7-5.9,0-9.4.7-3.5,1.9-6.7,3.8-9.5,1.9-2.8,4.1-5,6.8-6.6,2.6-1.6,5.4-2.4,8.4-2.4s5.6.9,7.5,2.6c1.9,1.7,3.2,4,3.8,6.8.6,2.8.6,5.9-.1,9.2-.7,3.8-2.1,7.1-4.1,9.9-2,2.8-4.4,5-7,6.5-2.7,1.5-5.4,2.2-8.1,2.2ZM249.3,70.6c2.5,0,4.7-1.1,6.8-3.3,2.1-2.2,3.5-5.2,4.2-9.1.4-2.2.6-4.5.4-6.9-.1-2.4-.5-4.6-1.3-6.6-.7-2-1.7-3.7-3.1-4.9-1.3-1.3-2.9-1.9-4.9-1.9s-4.8,1.1-6.9,3.3c-2.1,2.2-3.5,5.3-4.3,9.2-.5,2.3-.6,4.7-.4,7,.2,2.3.6,4.5,1.4,6.5.7,2,1.8,3.6,3.1,4.9,1.4,1.2,3,1.8,4.9,1.8Z"/>
    <path class="cls-1" d="M275.2,72.3c-.8,0-1.4,0-1.6-.1-.2,0-.4-.2-.4-.4s.2-1.1.5-2.6c.3-1.5.6-2.9.9-4.3l3-16.6c.5-2.4.7-4.2.5-5.4-.1-1.2-.4-2.1-.8-2.6-.4-.5-.9-.7-1.3-.7-.8,0-1.7.4-2.7,1.1-1,.7-1.9,1.5-2.8,2.2-.1.2-.3.2-.5,0-.2-.2-.3-.5-.2-.6,1.8-2,3.5-3.6,5-4.6,1.6-1,3.1-1.5,4.7-1.5s1.9.3,2.5,1c.6.7.9,1.9,1,3.6,0,1.7-.2,4.2-.8,7.4l-4,22.9c-.2.9-1.1,1.3-2.9,1.3ZM278.1,71h-.9c.5-2.8,1.2-5.7,2-8.9.9-3.1,1.9-6.3,3-9.3s2.4-5.9,3.7-8.4c1.3-2.5,2.7-4.5,4-6.1,1.4-1.5,2.8-2.3,4.1-2.3s1.6.2,2.4.7c.8.5,1.4,1,1.9,1.8.5.7.7,1.5.5,2.4-.2.8-.5,1.4-1,1.8-.5.4-1.1.6-1.8.6s-1.6-.2-2-.7c-.5-.5-.8-1-1.2-1.5-.3-.5-.8-.8-1.4-.8s-1.8.7-2.8,2.1c-1,1.4-2.1,3.3-3.2,5.6-1.1,2.3-2.1,4.8-3.1,7.6-1,2.7-1.9,5.4-2.7,8.1-.8,2.7-1.3,5.1-1.7,7.2Z"/>
    <path class="cls-1" d="M306,72.8c-2,0-3.5-.7-4.5-2.2-1-1.4-1.3-3.8-.9-7.2.5-3.2,1.5-6.5,3.1-9.8,1.6-3.3,3.5-6.3,5.9-9,2.3-2.7,4.8-4.9,7.3-6.5,2.6-1.6,5-2.5,7.4-2.5s2.2.2,3.3.6c1,.4,2,1.1,2.7,2,.8.9,1.2,2.1,1.3,3.6l-3.9-2.4c.8-.1,1.7-.6,2.7-1.5,1-.9,1.6-1.9,1.9-3,.1-.2.3-.2.7-.2.3,0,.5.2.4.3l-5.2,28.5c-.6,3.5-.2,5.2,1.3,5.2s1.5-.4,2.6-1.1c1-.7,2.2-1.8,3.4-3,.2-.2.4-.1.6,0,.2.2.3.4,0,.6-1.9,2.2-3.7,3.9-5.3,5.2-1.6,1.2-3.2,1.8-4.8,1.8s-2.4-.7-2.8-2c-.4-1.3-.3-3.6.3-6.8l2.2-12.6,1.5-1.5c-1.8,4.6-3.9,8.6-6.3,12.1-2.4,3.5-4.9,6.3-7.5,8.2-2.6,2-5.1,3-7.6,3ZM309.2,68.4c1.7,0,3.4-.7,5.2-2,1.8-1.3,3.5-3,5.2-5.2,1.7-2.1,3.1-4.5,4.3-7,1.2-2.5,2.1-5.1,2.6-7.5.5-2.2.3-4.1-.6-5.6-.9-1.5-2.5-2.2-4.7-2.2-2.1,0-4.2,1-6.4,2.8-2.2,1.8-4.1,4.3-5.8,7.3-1.7,3-2.8,6.5-3.4,10.4-.4,3-.3,5.3.2,6.8.6,1.5,1.7,2.2,3.4,2.2Z"/>
    <path class="cls-1" d="M354.4,72.8c-2,0-3.6-.6-5-1.8-1.3-1.2-2.2-2.8-2.7-4.7-.5-1.9-.6-3.9-.4-5.9.4-2.7,1.3-5.5,2.7-8.4,1.4-2.9,2.7-5.6,3.9-8.3.4-.8.5-1.4.3-1.8-.2-.4-.6-.5-1.2-.5h-4.6c-1.6,0-2.7.1-3.5.4-.8.2-1.4.7-1.9,1.4-.5.7-.9,1.7-1.4,3.1-.1.2-.3.3-.7.2-.3-.1-.4-.3-.3-.6.9-2.6,1.7-4.5,2.3-5.8.7-1.3,1.5-2.1,2.5-2.5,1-.4,2.4-.6,4.1-.6h8c.5,0,.9,0,.9.2,0,.1,0,.4-.2.9-1.4,3.2-2.7,6.6-4,10.1-1.3,3.6-2.1,6.7-2.4,9.5-.5,3.4-.1,6.1,1,8,1.2,1.9,2.8,2.9,4.9,2.9s3.6-.6,5.4-1.8c1.8-1.2,3.4-2.8,4.8-5,1.4-2.2,2.5-4.7,3.2-7.6.7-2.7,1-4.8.8-6.4-.2-1.6-.6-2.7-1.2-3.5-.6-.8-1.1-1.3-1.5-1.7-.3-.3-.7-.7-1.3-1.3-.6-.6-.9-1.3-.9-2.1s.4-1.9,1.2-2.4c.8-.5,1.6-.7,2.3-.7,1.4,0,2.4.7,3,2,.6,1.4.9,3.1,1,5.1,0,2.1,0,4.2-.3,6.4-.5,3.5-1.4,6.7-2.7,9.6-1.3,2.9-3,5.3-4.8,7.3-1.9,2-3.8,3.6-5.8,4.7-2,1.1-3.9,1.6-5.7,1.6Z"/>
    <path class="cls-1" d="M384,72.3c-.8,0-1.4,0-1.7-.1-.3,0-.4-.2-.4-.4s.2-1,.5-2.4c.3-1.4.6-2.8.9-4.4l3.7-20.1c.6-3.5,0-5.3-1.5-5.3s-1.5.4-2.6,1.1c-1.1.7-2.3,1.7-3.6,3.1-.2.2-.4.2-.7,0-.3-.3-.3-.5,0-.7,2-2.3,3.9-4.1,5.6-5.2,1.7-1.1,3.3-1.7,4.9-1.7s2.4.6,2.7,1.9c.4,1.3.3,3.5-.2,6.7l-4.7,26.3c-.1.9-1.1,1.3-2.9,1.3ZM406.9,72.4c-1.6,0-2.5-.7-2.9-2-.4-1.3-.3-3.6.3-6.8l2.6-14.3c1.4-6.7.3-10.1-3.3-10.1s-3.9,1.2-6,3.7c-2.1,2.5-4.1,6.1-6,10.8-1.9,4.7-3.5,10.5-4.7,17.3h-1.1c1.3-7.1,2.9-13.3,5-18.5,2.1-5.3,4.5-9.4,7.2-12.3,2.7-2.9,5.6-4.4,8.5-4.4s4.3.9,5.2,2.8c.9,1.9.9,4.9,0,9.1l-3,16c-.3,1.8-.3,3.1,0,4,.3.8.8,1.3,1.5,1.3s1.5-.4,2.5-1.1c1-.7,2.2-1.8,3.4-3,.2-.2.4-.2.7,0,.3.2.3.5,0,.7-1.9,2.2-3.7,3.9-5.3,5.2-1.6,1.2-3.2,1.8-4.8,1.8Z"/>
    <path class="cls-1" d="M425.7,72.8c-2,0-3.5-.7-4.5-2.2-1-1.4-1.3-3.8-.9-7.2.5-3.2,1.5-6.5,3.1-9.8,1.6-3.3,3.5-6.3,5.8-9,2.3-2.7,4.8-4.9,7.3-6.5,2.6-1.6,5-2.5,7.4-2.5s2.2.2,3.3.6c1,.4,2,1.1,2.7,2,.8.9,1.2,2.1,1.4,3.6l-3.9-2.4c.8-.1,1.7-.6,2.7-1.5,1-.9,1.6-1.9,1.9-3,.1-.2.3-.2.7-.2.3,0,.5.2.4.3l-5.2,28.5c-.6,3.5-.2,5.2,1.4,5.2s1.5-.4,2.6-1.1c1-.7,2.2-1.8,3.4-3,.2-.2.4-.1.6,0,.2.2.3.4,0,.6-1.9,2.2-3.7,3.9-5.3,5.2-1.6,1.2-3.2,1.8-4.8,1.8s-2.4-.7-2.8-2c-.4-1.3-.3-3.6.3-6.8l2.2-12.6,1.5-1.5c-1.8,4.6-3.9,8.6-6.3,12.1-2.4,3.5-4.9,6.3-7.5,8.2-2.6,2-5.1,3-7.6,3ZM429,68.4c1.7,0,3.4-.7,5.2-2,1.8-1.3,3.5-3,5.2-5.2,1.6-2.1,3.1-4.5,4.3-7,1.2-2.5,2.1-5.1,2.6-7.5.5-2.2.3-4.1-.6-5.6-.9-1.5-2.5-2.2-4.7-2.2-2.1,0-4.2,1-6.4,2.8-2.2,1.8-4.1,4.3-5.8,7.3-1.7,3-2.8,6.5-3.4,10.4-.4,3-.3,5.3.2,6.8.6,1.5,1.7,2.2,3.4,2.2Z"/>
  </g>
</svg>