<?xml version="1.0" encoding="UTF-8"?>
<svg id="Layer_1" data-name="Layer 1" xmlns="http://www.w3.org/2000/svg" version="1.1" viewBox="0 0 520 147.3">
  <defs>
    <style>
      .cls-1 {
        fill: #fff;
        stroke-width: 0px;
      }
    </style>
  </defs>
  <g>
    <path class="cls-1" d="M6.3,8h34.9c10,0,19.5,5,19.5,18.7s-8.1,18.9-22.5,18.9H13v27.2h-6.7V8ZM13,39.4h25.9c11.3,0,14.5-5.2,14.5-12.7s-5.4-12.5-13.2-12.5H13v25.2Z"/>
    <path class="cls-1" d="M101.8,6.3c18.4,0,35.2,11.2,35.2,34s-16.8,34-35.2,34-35.2-11.2-35.2-34S83.4,6.3,101.8,6.3ZM101.8,68.2c14.2,0,27.9-8.3,27.9-27.9s-13.7-27.9-27.9-27.9-27.9,8.3-27.9,27.9,13.7,27.9,27.9,27.9Z"/>
    <path class="cls-1" d="M147.5,8h34.9c10,0,19.5,5,19.5,18.7s-8.1,18.9-22.5,18.9h-25.2v27.2h-6.7V8ZM154.2,39.4h25.9c11.3,0,14.5-5.2,14.5-12.7s-5.4-12.5-13.2-12.5h-27.3v25.2Z"/>
    <path class="cls-1" d="M243,6.3c18.4,0,35.2,11.2,35.2,34s-16.8,34-35.2,34-35.2-11.2-35.2-34S224.5,6.3,243,6.3ZM243,68.2c14.2,0,27.9-8.3,27.9-27.9s-13.7-27.9-27.9-27.9-27.9,8.3-27.9,27.9,13.7,27.9,27.9,27.9Z"/>
    <path class="cls-1" d="M287.6,8h31.5c18.9,0,28.7,12.1,28.7,32.4s-9.5,32.4-27.7,32.4h-32.5V8ZM294.3,66.6h24.5c11.6,0,21.7-6.4,21.7-26.2s-6.7-26.2-21.7-26.2h-24.5v52.4Z"/>
    <path class="cls-1" d="M358.2,8h8.1l45.3,55.3h.2V8h6.7v64.8h-7.8l-45.5-55.3h-.2v55.3h-6.7V8Z"/>
    <path class="cls-1" d="M431.5,8h51.5v6.2h-44.8v22h43.2v6.2h-43.2v24.3h45.5v6.2h-52.3V8Z"/>
  </g>
  <g>
    <path class="cls-1" d="M163.6,140.8c-3.6,0-6.1-1.4-7.6-4.2-1.5-2.8-1.7-7-.6-12.7l4.5-22.8c.4-2.5.4-4.1,0-4.9s-1-1.2-1.7-1.2-1.8.4-2.9,1.3c-1.1.9-2.3,1.9-3.7,3.2-.3.3-.7.3-1,0-.3-.3-.3-.7,0-1,2.7-3.2,5.2-5.7,7.4-7.4,2.2-1.7,4.6-2.6,7-2.6s4.4,1,5.4,2.9c1.1,2,1.1,5.2.2,9.6l-4,20.3c-.9,4.1-.9,7.1-.3,9.1.7,2,1.9,2.9,3.7,2.9s5-1.6,7.6-4.9c2.6-3.2,5.1-8,7.4-14.3,2.3-6.3,4.2-14,5.8-23.1h2.3c-1.6,10.2-3.9,18.9-6.9,26.4-3,7.4-6.4,13.1-10.2,17.1-3.8,4-8,6-12.4,6ZM189.8,140.3c-2.7,0-4.5-1-5.3-2.9-.8-1.9-.9-4.6-.3-8.1l6.7-38c.4-1.7,2.8-2.6,7.2-2.6s2.8.1,3.4.4c.6.3.8.5.8.6,0,.3-.2,1.5-.6,3.3-.4,1.9-.9,3.9-1.3,6.1l-5.2,28.5c-.8,4.2-.1,6.3,1.9,6.3s1.9-.4,3.1-1.3c1.2-.9,2.7-2.1,4.3-3.8.3-.3.6-.3.9,0,.3.4.4.7.1,1.1-3.1,3.7-5.8,6.3-8.3,7.9-2.4,1.6-4.9,2.4-7.4,2.4Z"/>
    <path class="cls-1" d="M248.4,140.1c-1.6,0-2.7-.1-3.3-.3-.6-.2-.9-.4-.9-.7s.2-1.4.7-3.3c.5-1.9.9-3.9,1.2-6.1l5.2-28.5c.8-4.2.1-6.3-1.9-6.3s-1.9.4-3.1,1.3c-1.2.9-2.7,2.1-4.3,3.8-.3.3-.6.3-.9,0-.3-.4-.4-.7-.1-1.1,3.1-3.7,5.8-6.3,8.3-7.9,2.5-1.6,4.9-2.4,7.3-2.4s4.5,1,5.4,2.9c.9,1.9.9,4.6.3,8.1l-6.7,38c-.4,1.7-2.8,2.6-7.2,2.6ZM276.8,140.1c-1.6,0-2.7-.1-3.3-.3-.6-.2-.9-.4-.9-.7s.2-1.4.7-3.3c.5-1.9.9-3.9,1.2-6.1l4.2-22.5c.8-4.2.8-7.2.1-9-.7-1.8-1.9-2.8-3.6-2.8s-4.6,1.7-7.1,5c-2.5,3.3-4.9,8.1-7.1,14.4-2.2,6.3-4.1,13.9-5.5,22.8h-2.3c1.6-10.3,3.9-19,6.7-26.4,2.9-7.4,6.2-13.1,10-17.1,3.8-4,7.8-6,12.1-6s5.6,1.3,7.1,4c1.5,2.6,1.7,6.9.7,12.7l-5.9,32.9c-.3,1.7-2.6,2.6-7.2,2.6ZM308.5,140.3c-2.9,0-4.7-1.1-5.5-3.2-.8-2.1-.8-5.2-.1-9.3l3.8-20.3c.7-4.1.8-7.1.3-9.1-.5-2-1.6-2.9-3.3-2.9s-4.3,1.6-6.8,4.7c-2.5,3.1-4.9,7.8-7.2,14-2.3,6.2-4.2,14.1-5.8,23.5h-2.3c1.7-10.5,4-19.4,6.9-26.8,2.9-7.4,6.2-13,10-16.9,3.8-3.9,7.7-5.8,11.8-5.8s5.7,1.4,7.1,4.1c1.4,2.7,1.6,7,.4,12.8l-4.1,22.8c-.4,2.4-.4,4,0,4.8.4.8,1,1.2,1.7,1.2s1.9-.4,3-1.3c1.1-.9,2.3-1.9,3.6-3.2.3-.3.7-.3,1,0,.3.3.3.7,0,1-2.6,3.2-5.1,5.6-7.4,7.4-2.3,1.7-4.7,2.6-7.2,2.6Z"/>
    <path class="cls-1" d="M346,140.9c-4.7,0-8.4-1.2-11.2-3.7-2.8-2.5-4.6-5.7-5.4-9.7-.9-4-.9-8.4,0-13,1-5.2,2.9-9.8,5.6-13.8,2.7-4,6.1-7.1,10-9.3,3.9-2.2,8.1-3.3,12.7-3.3s8.6,1.2,11.4,3.5c2.8,2.3,4.7,5.5,5.6,9.5.9,4,.9,8.4-.1,13.4-1.1,5.8-3.2,10.7-6.2,14.6-3,4-6.5,6.9-10.4,8.9-3.9,2-7.9,2.9-11.9,2.9ZM350.3,137.7c2.7,0,5.1-1.6,7.1-4.8,2-3.2,3.5-7.5,4.4-12.9.7-3.8,1-7.5,1-10.9,0-3.5-.4-6.5-1.2-9.3-.8-2.7-1.8-4.9-3.2-6.4-1.4-1.5-3-2.3-5-2.3s-4.6,1.5-6.7,4.3c-2,2.9-3.6,7.4-4.7,13.4-.7,3.8-1,7.5-.9,11,0,3.5.5,6.6,1.2,9.2.7,2.6,1.8,4.7,3.1,6.3,1.4,1.5,3,2.3,4.9,2.3Z"/>
    <path class="cls-1" d="M387.8,140.1c-1.6,0-2.7-.1-3.3-.3-.6-.2-.9-.4-.9-.7s.3-1.4.8-3.3c.5-1.9.9-3.9,1.3-6.1l5.2-28.5c.3-1.4.3-2.6.3-3.5,0-.9-.3-1.6-.7-2-.4-.5-.9-.7-1.6-.7s-1.8.4-3,1.3c-1.2.9-2.7,2.1-4.3,3.8-.3.3-.7.3-1,0-.3-.4-.3-.7,0-1.1,3.1-3.7,5.8-6.3,8.3-7.9,2.5-1.6,4.9-2.4,7.3-2.4s3.3.4,4.2,1.3c.9.9,1.5,2.1,1.7,3.7.2,1.6.1,3.6-.3,6l-6.8,38c-.3,1.7-2.6,2.6-7.2,2.6ZM395,137.6h-1.3c.9-4.6,1.8-9.2,2.9-13.9,1.1-4.6,2.3-9.1,3.6-13.2,1.3-4.2,2.8-7.9,4.4-11.2,1.6-3.3,3.4-5.9,5.2-7.8,1.9-1.9,3.9-2.9,6-2.9s2.8.4,4.2,1.1c1.4.7,2.6,1.7,3.6,2.9.9,1.2,1.3,2.5,1,4,0,1.1-.6,2.3-1.7,3.5-1,1.2-2.3,1.8-4,1.8s-2.4-.3-3.3-1c-.9-.6-1.8-1.3-2.6-1.9-.8-.6-1.7-1-2.6-1s-2,.9-3.2,2.7c-1.2,1.8-2.4,4.2-3.6,7.2-1.2,3-2.4,6.2-3.6,9.8-1.2,3.5-2.2,7.1-3.1,10.6-.9,3.5-1.6,6.6-2.1,9.3Z"/>
    <path class="cls-1" d="M439.8,140.8c-3.6,0-6.1-1.4-7.6-4.2-1.5-2.8-1.7-7-.6-12.7l4.5-22.8c.4-2.5.4-4.1,0-4.9-.4-.8-1-1.2-1.7-1.2s-1.8.4-2.9,1.3c-1.1.9-2.3,1.9-3.7,3.2-.3.3-.7.3-1,0-.3-.3-.3-.7,0-1,2.7-3.2,5.2-5.7,7.4-7.4,2.2-1.7,4.6-2.6,7-2.6s4.4,1,5.4,2.9c1.1,2,1.1,5.2.2,9.6l-4,20.3c-.9,4.1-.9,7.1-.3,9.1.7,2,1.9,2.9,3.7,2.9s5-1.6,7.6-4.9c2.6-3.2,5.1-8,7.4-14.3s4.2-14,5.8-23.1h2.3c-1.6,10.2-3.9,18.9-6.9,26.4-3,7.4-6.4,13.1-10.2,17.1-3.8,4-8,6-12.4,6ZM466,140.3c-2.7,0-4.5-1-5.3-2.9-.8-1.9-.9-4.6-.3-8.1l6.7-38c.4-1.7,2.8-2.6,7.2-2.6s2.8.1,3.4.4c.6.3.8.5.8.6,0,.3-.2,1.5-.6,3.3-.4,1.9-.9,3.9-1.3,6.1l-5.2,28.5c-.8,4.2-.1,6.3,1.9,6.3s1.9-.4,3.1-1.3c1.2-.9,2.7-2.1,4.3-3.8.3-.3.6-.3.9,0,.3.4.4.7.1,1.1-3.1,3.7-5.8,6.3-8.3,7.9-2.4,1.6-4.9,2.4-7.4,2.4Z"/>
  </g>
</svg>