<?xml version="1.0" encoding="UTF-8"?>
<svg id="Layer_1" data-name="Layer 1" xmlns="http://www.w3.org/2000/svg" version="1.1" viewBox="0 0 443 187.9">
  <defs>
    <style>
      .cls-1 {
        fill: #fff;
        stroke-width: 0px;
      }
    </style>
  </defs>
  <g>
    <path class="cls-1" d="M57.4,140.1c0,11.7-3.2,26.4-28.7,26.4S0,151.8,0,140.1v-39.4h6.7v39.4c0,16.8,10.9,20.3,22,20.3s22-3.5,22-20.3v-39.4h6.7v39.4Z"/>
    <path class="cls-1" d="M94.6,100.7h6.7v27.2h46.4v-27.2h6.7v64.2h-6.7v-30.9h-46.4v30.9h-6.7v-64.2Z"/>
    <path class="cls-1" d="M166.2,100.7h6.7v58.1h40.7v6.1h-47.4v-64.2Z"/>
    <path class="cls-1" d="M262.8,145.4h-33.8l-8.7,19.5h-7.2l29.1-64.2h7.7l29.1,64.2h-7.7l-8.5-19.5ZM246,107.3l-14.3,31.9h28.4l-14.1-31.9Z"/>
    <path class="cls-1" d="M284.5,100.7h31.2c18.7,0,28.4,12,28.4,32.1s-9.4,32.1-27.4,32.1h-32.2v-64.2ZM291.1,158.8h24.3c11.5,0,21.5-6.3,21.5-26s-6.7-26-21.5-26h-24.3v52Z"/>
    <path class="cls-1" d="M412.2,140.1c0,11.7-3.2,26.4-28.7,26.4s-28.7-14.7-28.7-26.4v-39.4h6.7v39.4c0,16.8,10.9,20.3,22,20.3s22-3.5,22-20.3v-39.4h6.7v39.4Z"/>
  </g>
  <g>
    <path class="cls-1" d="M16.9,111.5c-.2,0-.4,0-.6-.5-.3-.4-.3-.7-.1-.9,4-2.4,7.2-6,9.4-10.9,2.2-4.8,4-10.8,5.3-17.8l11.5-65.1c.7-3.7.6-6.1-.3-7.2-.9-1.1-3.1-1.7-6.7-1.7s-.4-.3-.4-.8.1-.8.4-.8c1.9,0,4,0,6.3.2s4.8.2,7.4.2,5.7,0,8-.2c2.3-.1,4.4-.2,6.2-.2s.4.3.4.8-.1.8-.4.8c-2.4,0-4.3.3-5.6.8s-2.2,1.4-2.8,2.7c-.6,1.3-1.1,3.2-1.6,5.7l-10.9,61.4c-1.2,6.7-2.8,12.2-4.9,16.4-2.1,4.2-4.8,7.6-8.1,10.2-3.3,2.6-7.5,4.9-12.6,7Z"/>
    <path class="cls-1" d="M75.8,88.3c-3.7,0-6.3-1.4-7.7-4.1-1.4-2.8-1.5-7.1-.3-12.9l4.5-23c.4-2.6.5-4.3,0-5.2s-1-1.4-1.9-1.4-2,.5-3.2,1.4c-1.2.9-2.6,2.2-4.1,3.6-.3.3-.7.3-1,0-.3-.3-.3-.7,0-1,2.8-3.3,5.3-5.8,7.6-7.5,2.3-1.7,4.6-2.6,7-2.6s4.1,1,5,2.9c.9,1.9.9,5.2-.1,9.8l-4,20.5c-.9,4.4-1.1,7.6-.3,9.8.7,2.1,2.1,3.2,4.2,3.2s5.3-1.7,8.1-5c2.8-3.4,5.4-8.3,7.9-14.8,2.5-6.5,4.5-14.4,6.1-23.8h2.1c-1.7,10.3-4.1,19.1-7.1,26.7-3,7.5-6.5,13.4-10.3,17.4-3.9,4.1-8,6.1-12.4,6.1ZM101.8,87.7c-2.5,0-4.1-.9-4.8-2.8-.7-1.9-.8-4.8,0-8.7l6.7-38.2c.3-1.6,2.4-2.3,6.1-2.3s2.6.1,3.1.3c.5.2.8.4.8.6,0,.3-.2,1.5-.6,3.4-.4,1.9-.9,4-1.3,6.3l-5.3,28.8c-.8,4.5,0,6.7,2.1,6.7s2-.5,3.4-1.4c1.4-.9,2.9-2.3,4.5-4.1.3-.3.6-.3,1,0s.4.8,0,1.1c-3,3.6-5.7,6.2-8.1,7.8-2.4,1.6-4.9,2.4-7.4,2.4Z"/>
    <path class="cls-1" d="M136.1,88.1c-1.9,0-3.7-.3-5.4-1-1.7-.7-3-2-3.7-3.8-.8-1.9-.9-4.5-.3-7.9l5.2-28.3c.5-2.9.5-4.8,0-5.7-.5-.9-2-1.3-4.5-1.3s-.5-.3-.5-.9c0-.6.2-.9.5-.9,3.8,0,6.9-1.1,9.4-3.3,2.5-2.2,4.3-4.8,5.6-7.7,0-.3.5-.3,1.3-.3.8,0,1.1.3,1,.6l-8,44.8c-.6,3.2-.4,5.5.6,7,1,1.5,2.9,2.3,5.6,2.3s3.9-.5,5.7-1.4c1.9-.9,3.7-2.2,5.6-3.8.2-.2.5,0,.8.3.4.3.5.6.2.9-3.9,3.7-7.3,6.4-10.3,7.9-3,1.6-6,2.4-8.9,2.4ZM155.5,42.8c-.2,0-1.1-.1-2.7-.3-1.6-.2-3.6-.5-5.9-.7-2.3-.3-4.6-.4-6.9-.4l.3-3.5c2.7,0,5.3,0,7.8-.3,2.5-.2,4.7-.3,6.7-.5,1.9-.2,3.3-.3,4.1-.3s.7.2.8.5c.1.3.1.6,0,1,0,.7-.6,1.6-1.5,2.8-.9,1.2-1.8,1.7-2.6,1.7Z"/>
    <path class="cls-1" d="M168.8,87.6c-1.6,0-2.6,0-3.1-.3-.5-.2-.8-.4-.8-.6s.3-1.5.8-3.5c.5-2,.9-4,1.3-6.2l4.9-27.1c.4-2.2.6-3.8.5-5-.1-1.2-.4-2.1-.8-2.6-.4-.5-1-.8-1.7-.8s-2.1.5-3.4,1.4-2.7,2.1-4.3,3.7-.6.2-.9-.1c-.3-.3-.4-.7-.1-1,2.9-3.4,5.6-5.9,8-7.5,2.4-1.6,4.8-2.3,7.1-2.3s3.2.5,4.1,1.4,1.4,2.3,1.6,4.3c.2,1.9,0,4.5-.5,7.7l-6.6,36.4c-.2,1.6-2.2,2.3-6.1,2.3ZM174.9,85.3h-1.3c.9-4.5,1.9-9,3-13.6,1.2-4.6,2.5-9.1,3.9-13.4,1.4-4.3,3-8.2,4.7-11.6,1.7-3.4,3.6-6.1,5.5-8.1,1.9-2,3.9-3,6-3s2.6.3,4,1c1.4.7,2.5,1.6,3.4,2.8.9,1.2,1.2,2.4.9,3.8-.2,1.1-.7,2.2-1.6,3.2s-2.1,1.6-3.6,1.6-2.3-.3-3.2-1c-.8-.7-1.6-1.4-2.3-2.1-.7-.7-1.5-1-2.4-1s-2.2,1-3.5,2.9-2.6,4.5-4,7.6c-1.4,3.1-2.7,6.5-3.9,10.2-1.2,3.7-2.3,7.4-3.3,11-.9,3.7-1.7,6.9-2.3,9.8Z"/>
    <path class="cls-1" d="M224.3,88.4c-4.6,0-8.2-1.2-11-3.7-2.8-2.5-4.6-5.7-5.5-9.8-.9-4-.9-8.5,0-13.3.9-5.2,2.8-9.8,5.6-13.8,2.8-4,6.1-7.1,9.9-9.4,3.9-2.3,8.1-3.4,12.5-3.4s8.5,1.2,11.3,3.6c2.8,2.4,4.7,5.6,5.6,9.6.9,4,.8,8.5-.2,13.4-1,5.7-3.1,10.6-6.1,14.6-3,4-6.5,7.1-10.4,9.1-3.9,2-7.9,3-11.8,3ZM228.6,85.2c3,0,5.7-1.6,8.1-4.8,2.4-3.2,4-7.5,5-13.1.7-3.6,1-7.1.9-10.6,0-3.4-.6-6.6-1.4-9.4-.9-2.8-2.1-5.1-3.7-6.7-1.6-1.6-3.5-2.5-5.7-2.5s-5.4,1.5-7.8,4.5c-2.4,3-4.1,7.5-5.2,13.4-.7,3.7-1,7.3-.8,10.8s.6,6.6,1.5,9.3c.9,2.7,2.1,4.9,3.7,6.5,1.6,1.6,3.5,2.5,5.6,2.5Z"/>
  </g>
</svg>